<svg xmlns="http://www.w3.org/2000/svg" viewBox="0 0 351.28 373.17"><defs><style>.cls-1{fill:none;stroke:#d6d2c7;stroke-miterlimit:10;stroke-width:1.28px;stroke-dasharray:9.57;}.cls-2{fill:#d6d2c7;}</style></defs><title>資產 159</title><g id="圖層_2" data-name="圖層 2"><g id="圖層_3" data-name="圖層 3"><rect class="cls-1" x="0.64" y="0.64" width="350" height="371.89"/><polygon class="cls-2" points="45.78 33.2 54.89 34.29 28.89 49.28 16.11 47.44 25.69 42.31 23.71 42.03 12.36 48.1 29.13 50.51 58.57 33.53 47.5 32.22 45.78 33.2"/><polygon class="cls-2" points="25.69 39.87 29.13 40.37 45.78 30.77 47.5 29.78 58.57 23.39 47.58 22.08 45.87 23.07 29.13 32.72 25.6 32.22 23.62 31.93 12.36 37.96 23.71 39.59 25.69 39.87"/><path class="cls-2" d="M11.52,27.12,23.19,28.8l2,.29,3.66.53,17.35-10,1.77-1L59.41,12,43.3,10.11ZM55.6,12.81,46,18.35l-1.77,1-15.56,9-1.58-.22L25,27.82,15.4,26.44,43.54,11.37Z"/></g></g></svg>