<svg xmlns="http://www.w3.org/2000/svg" viewBox="0 0 117.34 108.4"><defs><style>.cls-1{fill:#183143;}</style></defs><title>資產 171</title><g id="圖層_2" data-name="圖層 2"><g id="圖層_3" data-name="圖層 3"><path class="cls-1" d="M116.4,9.62c-2,.89-4,1.77-5.87,2.68-.79-1.18-1.62-2.33-2.51-3.44a33.12,33.12,0,0,0-3.12-3.37,22.41,22.41,0,0,0-3.65-2.78,17.07,17.07,0,0,0-2-1.07A16.91,16.91,0,0,0,97.07.83Q96.52.67,96,.53C95.59.44,95.21.37,94.84.3A22,22,0,0,0,92.55,0C91.79,0,91,0,90.26,0l-1.15,0c-.39,0-.77.05-1.15.09L86.84.26c-.9.11-1.79.25-2.68.41-1.25.23-2.5.52-3.73.84s-2.46.7-3.67,1.11c-.61.2-1.21.41-1.81.63s-1.21.44-1.8.67l-1.73.69c-.86.35-1.72.72-2.57,1.09q-2.13.93-4.24,1.92t-4.19,2q-2.09,1-4.16,2.09Q52.12,13.86,48,16.09c-1.36.74-2.72,1.5-4.07,2.26s-2.69,1.53-4,2.31-2.67,1.57-4,2.38-2.65,1.61-4,2.44S29.34,27.14,28.05,28s-2.58,1.73-3.84,2.63c-2.53,1.8-5,3.69-7.35,5.72-1.17,1-2.32,2.06-3.43,3.14-.7.68-1.38,1.38-2,2.09-.39.41-.78.83-1.17,1.27s-.79.9-1.18,1.36-.76.93-1.13,1.4c-.74,1-1.45,1.92-2.11,2.92s-1.28,2-1.85,3.09c-.3.57-.59,1.15-.86,1.74s-.46,1-.67,1.53-.41,1-.59,1.57-.35,1.06-.51,1.6C1,59.14.74,60.23.54,61.33S.2,63.55.11,64.67,0,66.91,0,68s.09,2.24.22,3.35S.54,73.6.77,74.7s.5,2.19.82,3.26.68,2.14,1.08,3.19.83,2.08,1.3,3.1,1,2,1.49,3,1.08,2,1.65,2.93S8.29,92.1,8.9,93l.83,1.23q-1.1,2.45-2,5-1,2.7-1.84,5.47c-.37,1.23-.71,2.48-1,3.69h0l.12,0c.71-.26,1.63-.6,2.18-.86s.59-.38.62-.47l0-.14c.29-1,.61-2.07.94-3.09.48-1.48,1-2.94,1.55-4.38.11-.29.22-.58.34-.86.21-.54.43-1.08.65-1.59.36-.85.71-1.63,1-2.28s.6-1.29.92-2c.22-.46.46-.94.71-1.44.07-.13.13-.27.2-.4l.29-.57.17-.33,0-.06c.26-.5.53-1,.8-1.48L16.22,87l.53-.9c.79-1.33,1.62-2.63,2.47-3.91s1.75-2.54,2.66-3.77,1.87-2.45,2.84-3.64,2-2.36,3-3.5,2.08-2.27,3.15-3.37l.86-.85Q33.33,65.5,35,64c.68-.62,1.37-1.23,2.06-1.84s1.38-1.2,2.07-1.79q2.12-1.78,4.27-3.51l.72-.57c2.43-1.92,4.91-3.78,7.41-5.6l.75-.54c2.28-1.65,4.6-3.25,6.92-4.84q3.93-2.65,7.9-5.22l4-2.57h0l4-2.54h0q4.06-2.55,8.17-5c1.37-.83,2.75-1.64,4.13-2.45q5.17-3,10.46-5.93L100,20.41l3.09-1.63,2-1c.33-.16.66-.32,1-.48l.57-.28,1-.5,1-.5,1-.48,1.35-.64.56-.27,2.25-1c1.13-.53,2.27-1,3.41-1.55l.08,0s.11,0-.05-.46S116.69,10.24,116.4,9.62Z"/></g></g></svg>