<svg xmlns="http://www.w3.org/2000/svg" viewBox="0 0 351.28 373.17"><defs><style>.cls-1{fill:none;stroke:#d6d2c7;stroke-miterlimit:10;stroke-width:1.28px;stroke-dasharray:9.57;}.cls-2{fill:#d6d2c7;}</style></defs><title>資產 160</title><g id="圖層_2" data-name="圖層 2"><g id="圖層_3" data-name="圖層 3"><rect class="cls-1" x="0.64" y="0.64" width="350" height="371.89"/><path class="cls-2" d="M46.71,28.29a13.44,13.44,0,0,0-5.94-11.15,13.42,13.42,0,0,0,0,22.3A13.42,13.42,0,0,0,46.71,28.29Z"/><path class="cls-2" d="M33.65,27.32c0-.2.05-.39.08-.59a14,14,0,0,0-4-1.86l-.8-.2a13.73,13.73,0,0,0-5.31-.12c-.05.3-.1.6-.14.9,0,.08,0,.15,0,.22a10.93,10.93,0,0,0-.06,1.15c0,.05,0,.1,0,.15,0,.41,0,.82.07,1.22a2,2,0,0,0,0,.25,11,11,0,0,0,.18,1.17,1.74,1.74,0,0,0,.05.22A10.83,10.83,0,0,0,24,31,.19.19,0,0,0,24,31l.09.27c.09.26.19.53.29.79a.36.36,0,0,1,0,.09,1.22,1.22,0,0,0,.07.17,11.53,11.53,0,0,0,.54,1.12v0A13.82,13.82,0,0,0,30.58,39l0,0c.36.19.73.37,1.1.53l.2.08c.36.15.74.29,1.12.41l.13,0q.51.15,1,.27l.26.06c.37.07.75.13,1.14.17l.28,0c.39,0,.79.06,1.2.06h.17c.37,0,.73,0,1.09-.06h0l.22,0,.48-.07a2.44,2.44,0,0,0-.1-.24l-.13-.11,0,0-.47-.41a14.43,14.43,0,0,1-3.57-4.9,1.11,1.11,0,0,0-.07-.16,1.54,1.54,0,0,0-.08-.19c-.14-.34-.27-.69-.38-1l-.06-.17,0-.11c-.12-.38-.21-.77-.3-1.15,0-.09,0-.17,0-.25-.08-.41-.15-.83-.19-1.24l0-.27c0-.44-.06-.89-.06-1.33s0-.89.06-1.33Z"/><path class="cls-2" d="M47.92,30.52c0,.41-.11.83-.19,1.23a2.38,2.38,0,0,1,0,.26c-.09.39-.18.77-.3,1.14l0,.12-.06.17c-.11.35-.24.7-.38,1a1.54,1.54,0,0,0-.08.19,1.11,1.11,0,0,0-.07.16,14.53,14.53,0,0,1-3.56,4.9l-.48.41h0l-.13.12a2.44,2.44,0,0,0-.1.24l.48.07.22,0h0c.36,0,.72,0,1.09.06h.17c.41,0,.81,0,1.2-.06l.28,0c.39,0,.77-.1,1.14-.17l.26-.06q.54-.12,1-.27l.13,0c.38-.12.76-.26,1.12-.41l.2-.08c.37-.16.74-.34,1.1-.53l0,0a13.73,13.73,0,0,0,5.5-5.5v0A11.53,11.53,0,0,0,57,32.34a1.22,1.22,0,0,0,.07-.17.36.36,0,0,1,0-.09c.1-.26.2-.53.29-.79l.09-.27a.19.19,0,0,0,0-.07,10.83,10.83,0,0,0,.29-1.12,1.74,1.74,0,0,0,0-.22,11,11,0,0,0,.18-1.17,2,2,0,0,0,0-.25c0-.4.07-.81.07-1.22,0,0,0-.1,0-.15a10.93,10.93,0,0,0-.06-1.15c0-.07,0-.14,0-.22,0-.3-.09-.6-.14-.9a13.73,13.73,0,0,0-5.31.12l-.8.2a14,14,0,0,0-4,1.86c0,.2.06.39.08.59l0,.27c0,.44.06.88.06,1.33s0,.89-.06,1.33Z"/><path class="cls-2" d="M52.31,14.17l0,0a13.57,13.57,0,0,1,8.15,16.71l0,.12.1.06c.24.13.48.28.71.43l.17.1.06-.18A14.69,14.69,0,0,0,50.6,12.5l-.8-.17.69.44A13.18,13.18,0,0,1,52.31,14.17Z"/><path class="cls-2" d="M20.12,31.62l.17-.1c.23-.15.47-.3.71-.43l.1-.06,0-.12a13.4,13.4,0,0,1-.62-4A13.66,13.66,0,0,1,29.21,14.2l0,0a14.59,14.59,0,0,1,1.83-1.4l.69-.44-.8.17A14.69,14.69,0,0,0,20.06,31.44Z"/><path class="cls-2" d="M51,22.87,51,23l.16,0,.79-.19.14,0,0-.15A14.73,14.73,0,0,0,46.62,14l-.06,0H46.5c-.37.06-.74.13-1.09.22l-.33.08.28.19A13.53,13.53,0,0,1,51,22.87Z"/><path class="cls-2" d="M29.46,22.76l.14,0,.79.19.16,0,0-.15a13.53,13.53,0,0,1,5.63-8.38l.28-.19-.33-.08c-.35-.09-.72-.16-1.09-.22H35L35,14a14.73,14.73,0,0,0-5.46,8.58Z"/><path class="cls-2" d="M38.21,42.17l-.23,0-.24,0-.5.08h0l0,0a13.58,13.58,0,0,1-11.6,2.26,13.6,13.6,0,0,1-9.24-8.33,13.4,13.4,0,0,1,1.18-.88c.23-.15.47-.3.7-.43a13.36,13.36,0,0,1,4.05-1.54l.17,0-.07-.17c-.1-.25-.19-.51-.27-.77l0-.13-.14,0a14.89,14.89,0,0,0-4.13,1.58c-.24.14-.49.28-.72.43a15.23,15.23,0,0,0-1.76,1.32l-.29.25.13.36a14.67,14.67,0,0,0,10.15,9.4,14.31,14.31,0,0,0,3.73.49h0a14.68,14.68,0,0,0,9.71-3.67l.63-.55-.82.16Z"/><path class="cls-2" d="M64.5,34.36l-.73-.43a14.89,14.89,0,0,0-4.13-1.58l-.13,0,0,.13c-.08.26-.17.52-.27.77l-.06.17.17,0a13.2,13.2,0,0,1,4,1.54c.24.13.47.28.7.43.42.28.82.58,1.19.88a13.59,13.59,0,0,1-20.85,6.07l0,0h0l-.49-.07-.25,0a.91.91,0,0,0-.23,0L43,42.12l-.09,0,0,.08,0,0v-.07L42.19,42l.61.54a14.71,14.71,0,0,0,9.72,3.67h0a14.39,14.39,0,0,0,3.74-.49,14.71,14.71,0,0,0,10.15-9.4l.12-.36-.28-.25A16.47,16.47,0,0,0,64.5,34.36Z"/></g></g></svg>