<svg xmlns="http://www.w3.org/2000/svg" viewBox="0 0 88.2 118.43"><defs><style>.cls-1{fill:#183143;}</style></defs><title>資產 166</title><g id="圖層_2" data-name="圖層 2"><g id="圖層_3" data-name="圖層 3"><path class="cls-1" d="M33,0C44.79.42,57.62,1.29,69.92,5.72c2,.72,4.08,1.36,6,2.23,3.69,1.63,3.88,2,3.09,6-3.41,17.59-7,35.15-12.36,52.27-.79,2.5-1.85,4.92-2.54,7.45a7.18,7.18,0,0,1-5,5.49,13.1,13.1,0,0,0-4.32,2.49c-3.54,3-5.76,6.73-3.58,11.31,1.29,2.71.07,4-1.55,5.49A22,22,0,0,1,32.42,104c-5-.44-9.82-1.81-14.75-2.64-3-.52-6.1-.82-9.16-1.23-2.69-.35-5.24-.93-6-4.08a9.6,9.6,0,0,1,3.48-10c.59-.4,1.26-.7,1.83-1.12,5.56-4.14,6.86-9.67,2.37-14.78-2.42-2.76-2.08-5-1.51-7.76Q14.36,34.71,20.11,7c.05-.24.07-.48.12-.71C21.49.16,21.5.14,27.58,0,29,0,30.45,0,33,0Z"/><path class="cls-1" d="M76,104.41c-.61,3.31-1.37,7.54-2.18,11.76a2.49,2.49,0,0,1-3.07,2.22c-1.88-.25-3.75-.47-5.62-.75-8.2-1.24-16.41-2.4-24.59-3.8-3.74-.64-7.36-2-11.09-2.65-6.08-1.12-12.22-1.9-18.31-3-3-.54-6-1.43-8.95-2.23-.66-.18-1.55-.52-1.78-1a3.62,3.62,0,0,1-.21-2.67,2.38,2.38,0,0,1,2.17-.8C12.1,105,22.27,106,32.52,106.61c8.35.53,15.64-1.71,21.37-8a6.19,6.19,0,0,1,6.4-2c4.2.87,8.44,1.6,12.63,2.5C76,99.77,76.32,100.28,76,104.41Z"/><path class="cls-1" d="M75.21,80.75c-9.48-2.13-10.38,0-6.8-10.29C74.43,53.06,77.9,35,81.58,17c.14-.7.17-1.43.31-2.13.73-3.49,1.44-4.13,4-3.61,2.36.48,2.7,1.24,2.1,5-1,6.36-2.14,12.7-3.06,19.07-1.8,12.5-3.48,25-5.23,37.54-.26,1.88-.6,3.76-1,5.63C78.31,80.65,77,81.27,75.21,80.75Z"/><path class="cls-1" d="M64,81.78c1.4.18,2.83.27,4.21.55,4,.8,3.89.84,3.07,5.31a27.7,27.7,0,0,0-.12,5.62c0,1.37-.16,2.41-1.87,2.09-4.18-.78-8.39-1.44-12.51-2.46C53,92,52.28,89.76,54.39,86.63,56.66,83.27,59.68,81.25,64,81.78Z"/></g></g></svg>