<svg xmlns="http://www.w3.org/2000/svg" viewBox="0 0 208.5 116.93"><defs><style>.cls-1{fill:#183143;}</style></defs><title>資產 165</title><g id="圖層_2" data-name="圖層 2"><g id="圖層_3" data-name="圖層 3"><path class="cls-1" d="M120.11,9.14a109.67,109.67,0,0,1-27-5.88A20.66,20.66,0,0,1,89.5,1.43c-.12-.07,0-1,.21-1.1a5.43,5.43,0,0,1,2-.32C103.11-.13,114,2.49,124.62,6.5a3.56,3.56,0,0,1,1.28.78,2.41,2.41,0,0,1,.52,1.24c0,.12-.48.37-.77.47a3.41,3.41,0,0,1-1,.15Z"/><path class="cls-1" d="M44.5,23.36A103.51,103.51,0,0,1,17.66,18a31.72,31.72,0,0,1-4.15-1.8,1.36,1.36,0,0,1-.62-1.15A1.43,1.43,0,0,1,14,14.35c3,0,6.12-.29,9.06.22,6.12,1,12.2,2.42,18.22,3.92a50.18,50.18,0,0,1,7.48,3,1.31,1.31,0,0,1,.62,1.13,1.41,1.41,0,0,1-1.09.73C46.8,23.41,45.28,23.36,44.5,23.36Z"/><path class="cls-1" d="M107.6,84.26l-6.7.58A12.48,12.48,0,0,1,92,82c-2-1.53-4.22-2.74-6.26-4.21-.56-.41-1.22-1.33-1.11-1.89.8-4.31,1.69-8.61,2.75-12.86.49-2,1.69-2.27,3.44-1.11a14.27,14.27,0,0,1,2,1.6,16.48,16.48,0,0,0,13.95,4.57c4.81-.59,9.39-.14,13.7,2.41a8.57,8.57,0,0,0,6.9.61c.26-.08,1.16.74,1.1,1-.64,3.65-.9,7.48-2.25,10.88-1.76,4.41-4.63,6.65-9.52,3.89A19.36,19.36,0,0,0,107.6,84.26Z"/><path class="cls-1" d="M119.39,43.27c-4.51-.83-8.13-1.74-11.81-2.12-5-.52-10.1-.8-15.15-.86-2.14,0-4-.15-5.53-1.79a5.21,5.21,0,0,0-2-1.54c-4.82-1.42-4.67-4.69-3.47-8.56.74-2.42,1.09-4.95,1.75-7.4s1.75-2.88,4-1.34a34.45,34.45,0,0,1,2.74,2.25,14,14,0,0,0,10.25,3.6c1.18-.07,2.38,0,3.55-.11A19.83,19.83,0,0,1,116,27.71a8.35,8.35,0,0,0,7.32.86c.23-.08,1.17.76,1.11,1C123.69,33.43,123,37.25,122,41A2.6,2.6,0,0,1,119.39,43.27Z"/><path class="cls-1" d="M85.08,11.54c.09-.54.14-1,.26-1.54.54-2.11.45-5,1.81-6.12,1.67-1.37,3.93.94,5.94,1.59,10.33,3.37,20.81,5.78,31.75,5.81,3.06,0,3.19.18,2.74,3.2s-1,6.33-3.64,8.64c-1.41,1.22-2.78,1.87-4.59,1.13a8.92,8.92,0,0,1-1.43-.5c-4.69-3-9.9-3.23-15.18-2.74-4.66.44-8.65-.65-12-4a16.23,16.23,0,0,0-4.24-2.71C85.15,13.65,84.65,12.87,85.08,11.54Z"/><path class="cls-1" d="M108.79,63.54c-2.66,0-4.77.37-6.69-.09a23.2,23.2,0,0,1-5.87-2.74c-1.45-.84-2.63-2.13-4.07-3-3.38-2.07-3.41-2-2.77-5.65,1.17-6.61,1.12-6.47,7.23-4.28a104.57,104.57,0,0,0,30.2,6.08c1,0,2,0,3,.08,1.22.06,1.93.75,1.77,2-.44,3.32-.62,6.68-3.33,9.3a4.88,4.88,0,0,1-5,1.49A7.25,7.25,0,0,1,121.4,66,19.61,19.61,0,0,0,108.79,63.54Z"/><path class="cls-1" d="M111.69,116.86a61.68,61.68,0,0,1-25.18-4.74c-1.41-.56-2.8-1.17-4.18-1.8a2.36,2.36,0,0,1-1.52-2.85c.07-.33.15-.66.21-1l1.5-7.89c2.88-.73,5,1.32,7.58,2,7.37,1.85,14.69,3.79,22.32,4.26,1.51.1,3,.48,4.52.57,1.91.12,2.2,1.07,1.7,2.7-.44,1.45-.73,2.94-1.13,4.4C116.36,116.77,115.86,117.15,111.69,116.86Z"/><path class="cls-1" d="M116.93,101.88a80.81,80.81,0,0,1-30.58-6.16c-.62-.25-1.24-.52-1.85-.82-3.24-1.6-3.49-2.06-2.8-5.49A51.85,51.85,0,0,1,83,84c.52-1.63,1.68-2,3.13-1.17A18.89,18.89,0,0,1,89,85a15.31,15.31,0,0,0,13.56,4.1,19.17,19.17,0,0,1,13.17,2.24,10.25,10.25,0,0,0,6.37,1c2.11-.27,2.13-.16,1.79,2.08-.13.84-.24,1.67-.41,2.5C122.49,101.55,121.79,102.09,116.93,101.88Z"/><path class="cls-1" d="M123.59,51.55A108.25,108.25,0,0,1,97.38,46a19,19,0,0,1-3.21-1.47c-.36-.2-.52-.75-.77-1.14.4-.23.81-.68,1.19-.66,4.54.26,9.14.22,13.6,1,5.8,1,11.5,2.63,17.21,4.13A27.11,27.11,0,0,1,130,49.88c.27.13.65.63.59.72-.23.36-.6.89-.94.91C128,51.6,126.29,51.55,123.59,51.55Z"/><path class="cls-1" d="M88.21,47.1c-.69,2.32-1.36,4.56-2,6.79-2.74.51-4.73-1.32-7-2.23a2.63,2.63,0,0,1-1.75-3.24c.49-2.31.93-4.63,1.58-6.89.51-1.76,1.64-2.25,3-1.29a39,39,0,0,1,5.08,4.15C87.74,45,87.85,46.14,88.21,47.1Z"/><path class="cls-1" d="M76.78,65.65c.3-2.29.39-3.81.72-5.27s.93-3.08,1.4-4.61c2,.71,4.08,1.35,6,2.19.36.16.61,1.17.51,1.71-.53,2.79-1.14,5.57-1.81,8.33a1.5,1.5,0,0,1-2.25,1.19,13.9,13.9,0,0,1-3.16-1.49A7.25,7.25,0,0,1,76.78,65.65Z"/><path class="cls-1" d="M38.72,59.7a17.62,17.62,0,0,1-3.12-1.19,19.31,19.31,0,0,0-11.25-2.17c-1.18.08-2.37,0-3.54.14a13,13,0,0,1-10.66-3.62,22.41,22.41,0,0,0-2.78-2.18c-1.11-.73-2.93-1.07-3.3-2-.49-1.25,0-2.95.3-4.42.56-3,1.16-6,1.92-8.9.62-2.42,2-2.83,4.15-1.43a2,2,0,0,1,.4.31c4.8,5.28,10.92,6.18,17.6,5.38a17,17,0,0,1,9.77,1.89,18.07,18.07,0,0,0,6.23,1.75c3,.28,3.26.22,2.8,2.84-.5,2.82-1.06,5.64-1.83,8.39A6.64,6.64,0,0,1,38.72,59.7Z"/><path class="cls-1" d="M51,27.92c-.83,3.11-.62,6.48-3.25,8.92-2.39,2.22-3.4,2.75-6.27,1.2a25.28,25.28,0,0,0-15.18-2.81c-4.8.52-9-.5-12.52-4a11.58,11.58,0,0,0-2-1.5C7.9,27.2,7.9,27.21,8.77,23c.07-.33.16-.66.23-1,1-4.75.95-4.61,5.68-2.9a100.07,100.07,0,0,0,31.63,6.38c.84,0,1.69,0,2.53,0C50.9,25.67,51.21,26.05,51,27.92Z"/><path class="cls-1" d="M29.78,88.88c-9.12.05-17.66-2.47-26-5.79C-.1,81.55-.38,81,.28,77c.38-2.31.92-4.59,1.4-6.88,2.23.61,4.49,1.18,6.71,1.84a138.07,138.07,0,0,0,26.8,5.07c3,.29,3.17.48,2.5,3.36-.37,1.64-.78,3.29-1.26,4.9-.88,3-1.47,3.41-4.63,3.55C31.13,88.91,30.45,88.88,29.78,88.88Z"/><path class="cls-1" d="M35.5,73.62A80.45,80.45,0,0,1,4.46,67a7.89,7.89,0,0,1-2.65-1.44A3.71,3.71,0,0,1,.69,63,43.2,43.2,0,0,1,2,56.56c.76-2.82,2.16-3.46,4.27-1.35,5.29,5.32,11.55,6.52,18.64,5.52a15.34,15.34,0,0,1,8.83,1.76A26.25,26.25,0,0,0,40,64.24a10.82,10.82,0,0,0,3-.27c0,1.14,0,2.29,0,3.43a2.09,2.09,0,0,1-.13.49C41.59,73.68,41.43,73.81,35.5,73.62Z"/><path class="cls-1" d="M161.49,60.63c.84-4,1.6-7.93,2.57-11.85.48-2,1.72-2.31,3.46-1.17a29.1,29.1,0,0,1,3.17,2.51,14.54,14.54,0,0,0,10.69,3.74c1.35-.07,2.7-.06,4.05-.2a19,19,0,0,1,10.78,2,17.68,17.68,0,0,0,5.28,1.5,12.7,12.7,0,0,0,3.47-.41c-.1,1.47-.09,2.94-.31,4.39A33.94,33.94,0,0,1,203.42,67a21.91,21.91,0,0,1-2.53,4.84c-1.44,2.16-3.57,2.29-5.84,1.5a19.9,19.9,0,0,1-2.29-1.08,19.05,19.05,0,0,0-12.27-2,14.47,14.47,0,0,1-13.08-3.75,15.13,15.13,0,0,0-4.22-2.73C161.56,63.15,161.27,62.14,161.49,60.63Z"/><path class="cls-1" d="M201,52.83a37,37,0,0,1-3.92-1.66,17.89,17.89,0,0,0-9.8-2c-1,.06-2,0-3,.16-5,.58-9.41-.5-13-4.26a10.37,10.37,0,0,0-1.61-1.23c-1.31-1-3.17-1.63-3.78-2.91-.54-1.12.3-2.92.57-4.4s.53-2.65.87-4c.25-1,.86-1.32,1.88-.85,9,4.17,18.59,6,28.32,7.34,3,.41,6.07.34,9.09.64.68.07,1.9.8,1.86,1.13-.4,4-.56,8.23-4.3,10.88A11.93,11.93,0,0,1,201,52.83Z"/><path class="cls-1" d="M183.24,102.31c-7.08.51-14.48-2.42-21.88-5.22-4-1.49-4.33-2-3.35-6,.58-2.37-.38-5.11,1.64-7.13,2.23.69,4.45,1.44,6.7,2.06a123,123,0,0,0,24.23,4.63c4.81.35,5.79.09,4.24,5.65s-.44,6.6-8,6.15Z"/><path class="cls-1" d="M194.12,87.62A81.77,81.77,0,0,1,163,81.37c-.63-.25-1.28-.46-1.88-.76-2.56-1.26-3-2-2.69-4.75a44.73,44.73,0,0,1,1.23-5.94c.51-1.82,1.83-2.25,3.52-1.22a14.81,14.81,0,0,1,2.39,1.87,15.67,15.67,0,0,0,14.49,4.18,15.66,15.66,0,0,1,10.78,1.61c2.6,1.36,5.22,2.38,8.23,1.75,1.49-.31,1.74.63,1.6,1.77a30,30,0,0,1-.58,3C199.18,87.18,198.31,87.88,194.12,87.62Z"/><path class="cls-1" d="M176.88,28.28A100.19,100.19,0,0,1,203,33.76a21.23,21.23,0,0,1,3.6,1.8c.3.18.42.8.46,1.23,0,.14-.49.44-.78.46a31.94,31.94,0,0,1-3.53.1,97.32,97.32,0,0,1-29.06-6,19.22,19.22,0,0,1-3.37-2c1-1.68,2.67-.84,4-1.06A20,20,0,0,1,176.88,28.28Z"/></g></g></svg>