<svg xmlns="http://www.w3.org/2000/svg" viewBox="0 0 94.51 37.52"><title>資產 169</title><g id="圖層_2" data-name="圖層 2"><g id="圖層_3" data-name="圖層 3"><path d="M94.32,9.57c.85-3.26-1.22-4-3.9-4.66Q86.75,4.06,83,3.34,75.58,1.92,68,1.1a188.15,188.15,0,0,0-59.13,3C2.09,5.5-1.61,4.63.67,13.15q1.82,6.8,3.64,13.58.9,3.42,1.82,6.84c.79,3,2,4.54,5.32,3.74,4.87-1.17,9.77-2.1,14.74-2.8a154,154,0,0,1,29.66-1.3c5,.26,9.89.76,14.81,1.49q3.66.55,7.3,1.27c2.4.48,4.5,1.88,7.25,1.22,3.35-.8,4.9-11.38,5.43-13.42Z"/></g></g></svg>