<svg xmlns="http://www.w3.org/2000/svg" viewBox="0 0 351.28 373.17"><defs><style>.cls-1{fill:none;stroke:#d6d2c7;stroke-miterlimit:10;stroke-width:1.28px;stroke-dasharray:9.57;}.cls-2{fill:#d6d2c7;}</style></defs><title>資產 158</title><g id="圖層_2" data-name="圖層 2"><g id="圖層_3" data-name="圖層 3"><rect class="cls-1" x="0.64" y="0.64" width="350" height="371.89"/><path class="cls-2" d="M52,11.29a7.7,7.7,0,1,0,7.7,7.7A7.7,7.7,0,0,0,52,11.29Zm0,14.5a6.8,6.8,0,1,1,6.8-6.8A6.81,6.81,0,0,1,52,25.79Z"/><path class="cls-2" d="M26.14,27.91a7.25,7.25,0,1,0,7.25,7.25A7.25,7.25,0,0,0,26.14,27.91Z"/><path class="cls-2" d="M34.77,11.55a7.44,7.44,0,0,0-7.41,7H24.93a7.43,7.43,0,1,0,0,.9h2.43a7.43,7.43,0,1,0,7.41-7.89Zm-17.26,14a6.54,6.54,0,1,1,6.52-7H17.51v.9H24A6.56,6.56,0,0,1,17.51,25.53Z"/></g></g></svg>