<svg xmlns="http://www.w3.org/2000/svg" viewBox="0 0 87.72 114.76"><defs><style>.cls-1{fill:#183143;}</style></defs><title>資產 168</title><g id="圖層_2" data-name="圖層 2"><g id="圖層_3" data-name="圖層 3"><path class="cls-1" d="M49.82.47c9.84,3.05,19.62,5.39,28.27,10.7,1.16.71,2.41,1.29,3.55,2,2,1.26,2.09,1.64,1.32,3.7-.59,1.57-1.24,3.1-1.87,4.64q-4.7,11.35-9.4,22.69c-1.27,3.05-1.3,3.07-4.22,1.88L36.31,33.4c-.42-.17-.85-.32-1.25-.53-1.73-.9-2-1.39-1.27-3.23,1.77-4.51,3.61-9,5.44-13.49C41,11.94,42.72,7.74,44.47,3.54,46.1-.39,46.13-.41,49.82.47Z"/><path class="cls-1" d="M69.11,50.65c-.36.85-.89,2.11-1.44,3.35q-3.73,8.3-7.48,16.59a6.18,6.18,0,0,1-4.52,3.91c-3.86.93-5.56,4.17-4.47,8.06a3.48,3.48,0,0,1-.87,3.66c-.3.34-.61.67-.93,1-4.07,4.15-4.33,3.23-7.78,1.74-9.88-4.27-19.9-8.21-29.86-12.29C8.94,75.51,9,75.49,11.05,73c1.87-2.24,3.72-4.41,6.89-4.78a4.48,4.48,0,0,0,1.63-.79c3.14-1.93,4-4.22,2.66-7.66a4.46,4.46,0,0,1-.1-3.87c3-6.48,5.86-13,8.8-19.49C32,34,32.72,33.64,35.16,34.64,46,39.06,56.74,43.56,67.53,48,68.54,48.43,69.59,48.77,69.11,50.65Z"/><path class="cls-1" d="M33.84,106.61c-4.21-1.76-9.08-3.82-14-5.83C14.68,98.66,9.48,96.59,4.29,94.5.34,92.9-.33,91.77.13,87.63a15.23,15.23,0,0,1,4.11-8.88c1.55-1.68,3.12-2.16,5.23-1.26,3.33,1.42,6.71,2.73,10.07,4.11q10.08,4.13,20.14,8.27c.84.34,1.63.79,2.46,1.16,1.2.54,1,1.25.33,2.09-.59.69-1.16,1.4-1.68,2.14A17.59,17.59,0,0,0,37.36,105C37.28,107.28,36.88,107.45,33.84,106.61Z"/><path class="cls-1" d="M62.36,105.92a17.68,17.68,0,0,1-4.47,7.43,4,4,0,0,1-4.94,1c-3.34-1.43-6.75-2.7-10.09-4.14s-3.87-2.61-3.46-6a16.18,16.18,0,0,1,6.12-11.27,69.17,69.17,0,0,0,6.72-6.08,3.29,3.29,0,0,1,4-1c.7.27,1.41.55,2.1.85,3.48,1.55,3.4,1.55,3.44,5.25,0,2.57.35,5.13.46,7.7C62.36,101.72,62.33,103.82,62.36,105.92Z"/><path class="cls-1" d="M87.37,19.22C85.26,24.39,82.92,30,80.7,35.62q-7.32,18.6-14.56,37.25c-.22.56-.43,1.13-.69,1.68-.81,1.71-1.3,1.8-3.21,1-1.58-.63-1.53-1.66-1-2.91,2.27-5,4.7-9.85,6.81-14.87C73.43,45.08,78.63,32.31,83.9,19.57a14.29,14.29,0,0,1,1.41-2.82c.27-.39,1.28-.78,1.47-.61a4.08,4.08,0,0,1,.92,1.75C87.78,18.12,87.57,18.46,87.37,19.22Z"/><path class="cls-1" d="M58.92,84.49a.77.77,0,0,1-.64.16,32.2,32.2,0,0,1-3.73-1.6c-1.8-.91-2.23-2.26-1.42-4.1a4.91,4.91,0,0,1,5.1-2.9c2.09.34,2.53,1.31,1.83,3.36A51.66,51.66,0,0,0,58.92,84.49Z"/></g></g></svg>