<svg xmlns="http://www.w3.org/2000/svg" viewBox="0 0 246.33 118.25"><defs><style>.cls-1{fill:#183143;}</style></defs><title>資產 162</title><g id="圖層_2" data-name="圖層 2"><g id="圖層_3" data-name="圖層 3"><path class="cls-1" d="M246.3,39.57c-3.84,0-7.5,0-11.2.14-.41-2.42-.92-4.84-1.57-7.22A55.73,55.73,0,0,0,231,25a39.4,39.4,0,0,0-3.84-7,31.59,31.59,0,0,0-5.31-5.92c-.51-.43-1-.85-1.56-1.25s-1.07-.78-1.62-1.15a35.89,35.89,0,0,0-3.44-2C214,7.05,212.79,6.5,211.56,6l-1.86-.73c-.62-.23-1.25-.45-1.88-.66L206,4q-2.25-.68-4.53-1.23c-2.15-.51-4.33-.93-6.52-1.28s-4.39-.61-6.6-.82c-1.1-.1-2.2-.19-3.31-.27S182.77.25,181.68.2s-2.16-.09-3.24-.12c-1.61,0-3.22-.07-4.83-.08-2.69,0-5.39,0-8.08.09s-5.38.15-8.07.27-5.37.24-8.06.39q-8.07.47-16.11,1.14-4,.35-8,.73t-8,.84q-4,.45-8,1t-8,1.09c-2.66.39-5.32.8-8,1.26s-5.3.94-7.93,1.48C80,9.33,74.78,10.61,69.63,12.18Q65.76,13.35,62,14.75c-1.59.59-3.17,1.22-4.72,1.87-.91.39-1.82.78-2.75,1.2s-1.89.88-2.82,1.34-1.86.93-2.78,1.42q-2.76,1.47-5.4,3.16c-1.75,1.13-3.46,2.33-5.1,3.61-.88.69-1.74,1.41-2.58,2.14s-1.43,1.29-2.13,2-1.38,1.37-2.05,2.08-1.3,1.44-1.93,2.19a55.07,55.07,0,0,0-3.52,4.65,56.07,56.07,0,0,0-3,5q-1.38,2.56-2.52,5.26c-.75,1.79-1.42,3.62-2,5.47s-1.06,3.74-1.47,5.65-.73,3.82-1,5.75-.42,3.86-.52,5.81-.14,3.89-.11,5.83.11,3.89.25,5.83.33,3.88.57,5.81.52,3.85.84,5.77c.14.85.29,1.69.45,2.53q-3.46,3.12-6.72,6.45c-2.34,2.39-4.59,4.84-6.76,7.39-1.45,1.69-2.87,3.43-4.21,5.15H0l.22,0c1.31.09,3,.19,4.07.16s1.2-.19,1.31-.32l.15-.19c1.19-1.44,2.42-2.86,3.67-4.24,1.79-2,3.63-4,5.53-5.86l1.13-1.13c.73-.71,1.45-1.4,2.15-2.06,1.17-1.1,2.27-2.1,3.2-2.92s1.84-1.62,2.83-2.45l2.13-1.79.6-.49.86-.71.49-.4.1-.07c.76-.6,1.53-1.19,2.3-1.78l2.34-1.74L34.56,91q3.27-2.31,6.66-4.47t6.87-4.12c2.32-1.32,4.68-2.58,7.06-3.78s4.79-2.35,7.22-3.45,4.89-2.13,7.37-3.12l2-.76Q75.3,70,79,68.74c1.52-.5,3-1,4.56-1.48s3-.93,4.55-1.38q4.59-1.36,9.24-2.58l1.54-.4q7.8-2,15.67-3.68l1.58-.34c4.77-1,9.57-1.94,14.37-2.81q8.08-1.49,16.2-2.76,4.06-.64,8.15-1.26h0l8.19-1.21h0q8.24-1.19,16.49-2.23,4.13-.52,8.26-1,10.36-1.2,20.76-2.06l4.18-.33c2-.15,4-.28,6.05-.41q1.93-.12,3.87-.21l1.85-.09,1.1-.06,1.95-.09,1.94-.08,1.9-.07,2.59-.08,1.08,0,4.3-.1c2.17,0,4.33-.05,6.5-.05h.14c.09,0,.2,0,.25-.75S246.33,40.77,246.3,39.57Z"/></g></g></svg>