<svg xmlns="http://www.w3.org/2000/svg" viewBox="0 0 264.97 98.16"><defs><style>.cls-1{fill:#183143;}.cls-2{fill:#ee8948;}</style></defs><title>資產 164</title><g id="圖層_2" data-name="圖層 2"><g id="圖層_3" data-name="圖層 3"><path class="cls-1" d="M92.6,43.6,68.86,19.87,57.24,8.25C54.1,5.1,49-3.66,43.6,1.7L19.87,25.44,8.25,37.05C5.1,40.2-3.66,45.33,1.7,50.69L25.44,74.43,37.05,86C40.2,89.19,45.33,98,50.69,92.6L74.43,68.86,86,57.24C89.19,54.1,98,49,92.6,43.6Z"/><path class="cls-2" d="M201.17,62.28A10.26,10.26,0,0,0,188,68.34l9.61,3.55Z"/><path class="cls-2" d="M190.16,96.55c12.91,4.76,27.12-1.4,31.67-13.74l-23.41-8.64Z"/><line class="cls-2" x1="199.39" y1="71.54" x2="222.81" y2="80.18"/><rect class="cls-2" x="210.16" y="63.38" width="1.88" height="24.96" transform="translate(66.84 247.63) rotate(-69.74)"/><circle class="cls-2" cx="154.31" cy="16.18" r="10.81"/><path class="cls-2" d="M167,17a12.7,12.7,0,0,1-13.5,11.83,13.82,13.82,0,0,1-1.59-.22A14,14,0,1,0,167,15.41,10.81,10.81,0,0,1,167,17Z"/><path class="cls-2" d="M107.88,68.34a10.8,10.8,0,0,1,4.74-9l.73,1.07a9.52,9.52,0,0,0-2.53,13.21l10.3,15.19a9.53,9.53,0,0,0,13.21,2.54l.73,1.07a10.82,10.82,0,0,1-15-2.88l-10.3-15.19A10.71,10.71,0,0,1,107.88,68.34Z"/><ellipse class="cls-2" cx="127.81" cy="74.03" rx="10.85" ry="5.78" transform="translate(-19.52 84.51) rotate(-34.15)"/><path class="cls-2" d="M117.33,78.35a1,1,0,0,1,0-.17v0c0-.2,0-.41.07-.61a14.25,14.25,0,0,1,2-5.54l.1-.15.1-.16c.2-.3.41-.6.63-.88l.11-.14.07-.09c.24-.3.5-.58.76-.86l.18-.19c.28-.28.58-.56.89-.82l.2-.17c.34-.27.68-.54,1-.78a12.42,12.42,0,0,1,1.1-.67l.23-.13.52-.26a13.37,13.37,0,0,0-.68-4.22c-.09-.26-.18-.51-.28-.76a13.1,13.1,0,0,0-2.8-4.33c-.27.12-.54.24-.8.38l-.19.1c-.32.18-.64.37-1,.58l-.12.08c-.33.23-.65.47-1,.72l-.19.15c-.29.25-.58.52-.84.79a1.14,1.14,0,0,0-.15.16c-.26.27-.51.55-.74.84l-.06.06c0,.07-.1.15-.16.22s-.32.44-.47.66l-.06.08-.1.15c-.21.34-.42.69-.61,1.05v0a13.37,13.37,0,0,0-1.43,7.43v0c0,.39.1.78.17,1.17,0,.07,0,.14,0,.2a8.88,8.88,0,0,0,.28,1.13.56.56,0,0,0,0,.12c.1.34.22.67.35,1a2.44,2.44,0,0,1,.1.24c.14.34.31.68.48,1l.13.24c.19.34.39.68.61,1l.1.14q.3.43.63.84l0,0,.13.17.33.35Z"/><path class="cls-2" d="M139.27,87.41c.31-.21.61-.44.9-.67l.16-.14c.23-.19.44-.39.65-.6a13.18,13.18,0,0,0-3-4.2,7.7,7.7,0,0,0-.6-.54,13.51,13.51,0,0,0-3.67-2.2c-.14.14-.29.26-.43.39l-.21.17c-.33.27-.67.53-1,.78s-.73.46-1.1.67l-.24.12a11.12,11.12,0,0,1-1.1.53l-.23.09a10.9,10.9,0,0,1-1.09.39l-.11,0-.16,0c-.35.1-.7.19-1.05.26l-.2,0-.16,0a14.16,14.16,0,0,1-5.9-.19l-.59-.16h0l-.17-.05-.25.05c.07.14.13.29.21.43s.07.12.1.19l0,0c.17.31.36.61.55.9l.09.14c.23.33.46.64.71.94l.17.21c.25.29.5.56.77.82l.19.18c.25.24.51.48.78.7l.11.08c.3.24.62.47.94.68l.17.11c.34.22.68.42,1,.6l0,0A13.5,13.5,0,0,0,133,89.71h0q.6-.06,1.2-.18l.17,0,.09,0a7.79,7.79,0,0,0,.8-.2l.26-.06.08,0c.35-.11.7-.23,1.05-.37l.2-.09a9.86,9.86,0,0,0,1-.49l.22-.12c.34-.19.68-.39,1-.62Z"/><path class="cls-2" d="M258.23,43.58a12.08,12.08,0,0,1-2.84,7.79l-2-1.67a9.54,9.54,0,0,0-1.19-13.46l1.67-2a12,12,0,0,1,4.3,8.25A9.76,9.76,0,0,1,258.23,43.58Z"/><ellipse class="cls-2" cx="242.4" cy="25.59" rx="6.21" ry="11.65" transform="translate(67.1 194.95) rotate(-50.04)"/><path class="cls-2" d="M249.94,35.15l-.17,0h0l-.65.11a15.07,15.07,0,0,1-6.31-.44l-.18-.05-.2-.06c-.37-.12-.73-.25-1.09-.39l-.18-.07-.11-.05c-.38-.16-.75-.34-1.12-.53l-.24-.13c-.38-.21-.75-.43-1.12-.68l-.23-.16q-.57-.39-1.11-.84a12.77,12.77,0,0,1-1-.94l-.2-.2a6,6,0,0,1-.42-.46,14.08,14.08,0,0,0-4.17,2c-.24.16-.47.33-.7.5a14.51,14.51,0,0,0-3.65,4.17q.3.36.63.72l.16.16c.28.28.57.55.88.81l.12.1a12.52,12.52,0,0,0,1,.78l.22.15c.34.23.69.44,1,.64l.21.1a12,12,0,0,0,1.09.52l.07,0,.28.1c.27.1.55.21.82.29l.11,0,.17.06c.42.12.84.23,1.27.32h0a14.45,14.45,0,0,0,8.1-.71l0,0a12.24,12.24,0,0,0,1.17-.52l.19-.1a11.68,11.68,0,0,0,1.08-.63l.12-.07c.31-.21.62-.43.92-.66l.22-.17c.31-.25.61-.52.91-.8l.21-.2c.29-.3.58-.6.85-.93a.76.76,0,0,0,.11-.14c.25-.29.47-.59.69-.9a.05.05,0,0,0,0,0l.14-.19.26-.43Z"/><path class="cls-2" d="M252.85,9.81a10.92,10.92,0,0,0-1-.72L251.7,9c-.26-.18-.54-.34-.81-.5a14.27,14.27,0,0,0-3.46,4.33c-.14.25-.26.51-.38.77A14.44,14.44,0,0,0,245.86,18c.18.1.35.21.53.33l.23.16q.57.39,1.11.84a12.77,12.77,0,0,1,1,.94l.2.2c.31.32.6.65.87,1,.06.07.11.15.16.22.26.33.5.66.72,1l.07.11a.86.86,0,0,1,.1.16c.21.32.4.66.58,1l.09.19.09.17a15.08,15.08,0,0,1,1.53,6.14c0,.22,0,.44,0,.66v.2l.12.24.39-.34.16-.16,0,0c.26-.27.52-.54.77-.83l.12-.14c.27-.33.52-.66.76-1,.05-.08.11-.16.16-.25.23-.33.44-.68.63-1a2,2,0,0,1,.13-.25c.17-.34.34-.68.48-1l.06-.13c.16-.39.3-.78.43-1.17l.06-.22c.12-.41.23-.82.31-1.23V23.7a14.43,14.43,0,0,0-.72-8.09v0c-.16-.4-.34-.8-.54-1.19a1.19,1.19,0,0,1-.08-.16l-.06-.1a8.31,8.31,0,0,0-.44-.76l-.14-.25-.05-.07c-.22-.34-.45-.66-.7-1l-.14-.19c-.26-.32-.53-.62-.82-.93l-.18-.18c-.3-.3-.61-.59-.94-.87Z"/><path class="cls-2" d="M230.6,15.7c-3.64,4.35-6.41,10-3.88,12.11,1.49,1.25,3.87.46,6.31-1.28a16,16,0,0,1-.88-2.24c-2.07,1.56-3.59,2-3.94,1.74-.5-.43.14-3.55,3.28-7.69.29-.38.56-.75.9-1.15s.65-.73,1-1.08c3.52-3.81,6.49-5,7-4.57.35.29.16,1.87-1,4.18a15.67,15.67,0,0,1,2.36.48c1.29-2.72,1.65-5.19.16-6.44C239.32,7.64,234.25,11.35,230.6,15.7Z"/><path class="cls-2" d="M206.82,12.53A4.49,4.49,0,0,1,205,16.16l-.77-1.06a3.16,3.16,0,1,0-3.7-5.12l-.77-1.06a4.46,4.46,0,0,1,7.08,3.61Z"/><path class="cls-2" d="M221.62,43.71a12.37,12.37,0,0,1-17.24-2.77l1.05-.77a11.06,11.06,0,0,0,15.43,2.48Z"/><rect class="cls-2" x="197.01" y="18.16" width="1.3" height="24.74" transform="translate(19.59 121.58) rotate(-35.86)"/><rect class="cls-2" x="183.56" y="14.16" width="18.3" height="1.3" transform="translate(27.87 115.73) rotate(-35.87)"/><path class="cls-2" d="M207.68,38.55a8.27,8.27,0,0,0,11.55,1.85l-5-7Z"/><polygon class="cls-2" points="207.68 38.55 193.03 18.29 199.74 13.44 214.18 33.42 207.68 38.55"/><path class="cls-2" d="M138.17,30.46l0,0-9.38-16a7.7,7.7,0,0,0-13.27,7.78l9.39,16h0L127.13,42a4.64,4.64,0,0,0,1.81-6.15l5.23-3.06a4.65,4.65,0,0,0,6.28,1.65Z"/><path class="cls-2" d="M109.53,36.47l6.83-4,4,6.83a9.3,9.3,0,0,1-10.83-2.82m-1.86-.42a10.61,10.61,0,0,0,14.52,3.79l-5.37-9.15-9.15,5.36Z"/><rect class="cls-2" x="105.15" y="29.65" width="10.61" height="1.3" transform="translate(-0.15 60.04) rotate(-30.39)"/><rect class="cls-2" x="102.8" y="25.65" width="10.61" height="1.3" transform="matrix(0.86, -0.51, 0.51, 0.86, 1.55, 58.31)"/><rect class="cls-2" x="100.45" y="21.65" width="10.61" height="1.3" transform="translate(3.25 56.56) rotate(-30.39)"/><circle class="cls-2" cx="162.59" cy="77.85" r="5.97"/><circle class="cls-2" cx="153.22" cy="64.02" r="5.97"/><circle class="cls-2" cx="171.96" cy="91.67" r="5.97"/><rect class="cls-2" x="168.29" y="55.06" width="1.3" height="34.73" transform="translate(-11.56 107.15) rotate(-34.09)"/><rect class="cls-2" x="162.5" y="60.85" width="1.3" height="34.73" transform="translate(-15.8 104.9) rotate(-34.09)"/><path class="cls-2" d="M265,87a16.57,16.57,0,1,1-23.44-23.42l9.2,9.19a7.11,7.11,0,1,0,10.06,10.05Z"/><path class="cls-2" d="M230.41,75.26a22.67,22.67,0,0,1,6.68-16.15L238,60a21.4,21.4,0,0,0-6.3,15.23h0A21.37,21.37,0,0,0,238,90.5l-.92.92a22.7,22.7,0,0,1-6.69-16.15Z"/><path class="cls-2" d="M265,87a16.57,16.57,0,1,1-23.44-23.42l9.2,9.19a7.11,7.11,0,1,0,10.06,10.05Z"/></g></g></svg>