<svg xmlns="http://www.w3.org/2000/svg" viewBox="0 0 126.72 120.14"><defs><style>.cls-1{fill:#183143;}</style></defs><title>資產 163</title><g id="圖層_2" data-name="圖層 2"><g id="圖層_3" data-name="圖層 3"><path class="cls-1" d="M68.25,52.29a60.48,60.48,0,0,1-6.08,24.2A122.4,122.4,0,0,1,51.42,94.78a23,23,0,0,0-2.12,3.57c-.69,1.52-1,3.17.25,4.6.94,1.07.46,1.9-.25,2.76-2,2.4-4,4.83-6,7.19-1.27,1.46-1.37,1.48-3.26.53q-8.72-4.38-17.39-8.84-9.45-4.84-18.88-9.72c-.62-.32-1.26-.62-1.86-1C.11,92.91,0,92.56,1.28,91c1.77-2.15,3.6-4.24,5.35-6.41a4.5,4.5,0,0,1,3.48-1.91A9.47,9.47,0,0,0,17.75,78c4.54-6.9,9-13.81,12.22-21.44s5.23-15.37,4.7-23.67C34.6,31.8,35.16,31.7,36,32c1.66.54,3.33,1,4.94,1.7A162.06,162.06,0,0,1,64.41,45.73C67.35,47.52,69,49.56,68.25,52.29Z"/><path class="cls-1" d="M115,28.28c-3-.27-5.17,1-7.25,2.62-3,2.33-6.12,4.6-9.3,6.71A21,21,0,0,1,94,39.54c-3.26,1.19-5.9.21-8-2.46a5.32,5.32,0,0,1-1.12-1.75c-.85-3.25-3.34-4.84-6-6.31-3.87-2.11-7.71-4.27-11.55-6.43-1.42-.8-1.41-1.18-.07-2.19,2.59-1.95,5.23-3.84,7.74-5.89,2.16-1.76,2.25-2.49.81-5A1.49,1.49,0,0,1,76,7.4c1.87-1.9,3.67-3.87,5.54-5.77s2-2,4.5-.85q8.64,4.13,17.26,8.28l19.12,9.22c.53.25,1,.5,1.56.78.75.41,1,1,.34,1.66-1.81,2-3.61,3.93-5.4,5.91C117.75,27.88,116.59,29,115,28.28Z"/><path class="cls-1" d="M51.7,97.71c.36-.67.81-1.59,1.34-2.45,2.57-4.14,5.31-8.18,7.72-12.41a68.17,68.17,0,0,0,8.63-24.1,65.76,65.76,0,0,0,.44-8.66,8.52,8.52,0,0,1,1.26-4.6c2.4-3.87,5-7.59,8.72-10.28,1.73-1.23,1.86-1.2,2.83.64.16.31.28.63.42.95,1.7,4,5.11,5.2,9.49,4.69a19.44,19.44,0,0,0,8.61-3.58c2.1-1.44,4.11-3,6.19-4.49.87-.62,1.55-.33,1.79.72.19.78.17,1.63.42,2.39a3.31,3.31,0,0,1-.94,3.47c-2.4,2.68-4.72,5.43-7.09,8.13Q85.21,66.69,68.87,85.22c-4.52,5.14-9,10.31-13.55,15.43a12.61,12.61,0,0,1-2.13,1.57c-.35-.81-.74-1.62-1-2.45A15.66,15.66,0,0,1,51.7,97.71Z"/><path class="cls-1" d="M47.31,16.31c.88.28,1.66.51,2.42.78A165.12,165.12,0,0,1,79,31.43c1.34.81,1.46,1.33.43,2-4.23,2.89-7.08,6.94-9.74,11.19-1.09,1.74-1.21,1.74-3,.7-4.09-2.4-8-5.07-12.3-7.16C48.81,35.43,43,33.1,37.25,30.64c-2.13-.92-2.3-1.08-1.23-2.95a30.94,30.94,0,0,1,8.92-10A23.08,23.08,0,0,1,47.31,16.31Z"/><path class="cls-1" d="M0,95.49a1.93,1.93,0,0,1,.78-.33,2.36,2.36,0,0,1,1,.38c12.46,6.43,24.9,12.92,37.4,19.27a5.43,5.43,0,0,1,3,4.66c0,.2-.6.73-.78.67A17.29,17.29,0,0,1,38.83,119C27,112.9,15.16,106.75,3.28,100.71A5.57,5.57,0,0,1,0,95.49Z"/><path class="cls-1" d="M52.56,110a4.17,4.17,0,0,1-.56,1.59c-2.3,2.72-4.67,5.37-7,8-.38.43-.78.44-1-.18-.67-2-1-3.91.72-5.75,2-2.06,3.7-4.39,5.56-6.58.78-.91,1.37-.82,1.69.22.14.44.2.9.3,1.35S52.4,109.34,52.56,110Z"/><path class="cls-1" d="M126.72,25.55a7,7,0,0,1-.85,1.82c-1.84,2.21-3.75,4.37-5.69,6.5-1,1.05-1.24.87-1.73-.56a4.76,4.76,0,0,1,1.37-5.61c1.53-1.39,2.89-3,4.38-4.42a9,9,0,0,1,1.63-1c.25.63.52,1.25.73,1.9A8.44,8.44,0,0,1,126.72,25.55Z"/><path class="cls-1" d="M113.71,29.93c1.91,0,2.41.47,2.94,2.69s.3,2.69-2,3.35c-4.24,1.21-3.32,1-4.07-2.52C110,30.89,111,29.91,113.71,29.93Z"/></g></g></svg>