<svg xmlns="http://www.w3.org/2000/svg" viewBox="0 0 200.78 99.05"><defs><style>.cls-1{fill:#183143;}</style></defs><title>資產 167</title><g id="圖層_2" data-name="圖層 2"><g id="圖層_3" data-name="圖層 3"><path class="cls-1" d="M16.17,0c3.89.65,8.46,1.4,13,2.19l56.89,10C95,13.81,104,15.36,112.92,17c3.71.66,4.35,1.24,3.74,4.87-.88,5.32-2.1,10.58-3.36,15.82a6.05,6.05,0,0,1-2.07,2.83c-3.72,3.11-4.36,5.09-2.93,9.61a3.91,3.91,0,0,1,.19,2.15c-1.32,4.28-4.95,6.22-9.35,5.35-7.23-1.44-14.49-2.78-21.76-4.07Q49.63,48.6,21.85,43.75c-5-.88-10-1.65-15-2.48A7.59,7.59,0,0,1,5.44,41C3.62,40.35,1.81,39.65,0,39c1.27-2.23,1.78-5.07,4.29-6.31a8.83,8.83,0,0,0,4.33-4.58c.86-1.92,1.28-3.88,0-5.73s-1-3.41-.61-5.28C9,13,9.75,8.93,10.61,4.86a15.17,15.17,0,0,1,.47-1.79C12,.45,12.79-.08,16.17,0Z"/><path class="cls-1" d="M196.18,53.8c-.34,2-.64,4-1,5.92q-.83,4.08-1.76,8.13c-.61,2.7-1.27,5.12-4,6.89a5.83,5.83,0,0,0-2.12,7.79c1.29,2.53,0,4.11-1.24,5.84-1.44,2-3.38,3.26-5.94,2.8-2.26-.4-4.45-1.23-6.72-1.63C166.25,88.29,159.1,87.21,152,86c-15-2.6-30-5.29-45.08-7.9-8.36-1.44-16.72-2.8-25.08-4.2a7.22,7.22,0,0,1-2.22-.52,1.54,1.54,0,0,1-.52-1.42,17.3,17.3,0,0,1,7.69-8.2c.93-.5,2.38-.26,3.54-.06,10.18,1.72,20.34,3.52,30.52,5.27,2.93.5,3.72.24,4.34-1.22,1.18-2.78.88-5.3-1.22-6.45-2.69-1.48-3.36-4-3.77-6.53a8.85,8.85,0,0,0-2.35-5.28c-2.19-2.25-1.74-3.9.72-6.16a7.29,7.29,0,0,0,1.77-2.52c1.19-2.81,1.33-3,4.35-2.44,5,.87,10,1.84,15,2.64,6.08,1,12.19,1.71,18.25,2.73,10.94,1.83,21.86,3.79,32.79,5.71a22.53,22.53,0,0,1,2.69.68A3.44,3.44,0,0,1,196.18,53.8Z"/><path class="cls-1" d="M84.38,60c-4.57-.77-8.67-1.43-12.77-2.15L14.26,47.78a25,25,0,0,1-4-.91,2,2,0,0,1-1.07-1.58,2.52,2.52,0,0,1,1.44-1.44,3.56,3.56,0,0,1,1.82.08L60.16,52.4l24.11,4.27c1.84.32,2.61,1.21,1.89,2.24C85.73,59.53,84.79,59.79,84.38,60Z"/><path class="cls-1" d="M163.39,93.3c-2.43-.4-4.86-.77-7.29-1.19l-50.92-9c-4.69-.84-9.38-1.71-14.08-2.56-.6-.11-1.38,0-1.77-.4a2.83,2.83,0,0,1-.83-1.86c0-.37.73-1,1.18-1.08a10.57,10.57,0,0,1,2.73.25q28.2,4.92,56.39,9.87c5,.87,10,1.82,15,2.71,1,.17,1.87.37,1.83,1.6C165.57,93.05,164.6,93.35,163.39,93.3Z"/><path class="cls-1" d="M121.77,64.92a6,6,0,0,1-1.47,1.29,3.48,3.48,0,0,1-1.8-.08c-4.52-.8-9-1.59-13.54-2.49-.77-.16-1.88-.71-2-1.3s.2-2.2.73-2.43c3.34-1.42,5.15-4.17,7-7.06,1-1.62,2.79-.81,4.24-.68,1.23.11,2.51.49,2.7,2,.44,3.57,1.42,6.88,4,9.58C121.68,63.94,121.64,64.33,121.77,64.92Z"/><path class="cls-1" d="M198.68,99.05c-5.25-1-10.22-1.9-15.16-2.93a2.07,2.07,0,0,1-1.31-1.45,2.18,2.18,0,0,1,1-1.76,10.82,10.82,0,0,0,5.8-5.64c1.21-2.4,3.12-2,5.11-1.82s2.49,1.51,2.77,3.12c.48,2.74,1.16,5.37,3.11,7.52.45.5.92,1.67.7,1.92A5.69,5.69,0,0,1,198.68,99.05Z"/><path class="cls-1" d="M199.22,58.05c-.67,5-1.27,9.66-2,14.35-.08.5-1,.86-1.53,1.28-.41-.54-1.26-1.17-1.18-1.61,1-5,2.08-9.89,3.2-14.82.08-.35.55-.6.84-.89a5.91,5.91,0,0,1,.66,1A1.53,1.53,0,0,1,199.22,58.05Z"/><path class="cls-1" d="M120.07,23.82c-.62,5-1.17,9.43-1.73,13.86A2.75,2.75,0,0,1,118,39a9.93,9.93,0,0,1-1.64,1.29c-.37-.57-1.14-1.23-1-1.71,1-5,2.06-9.94,3.17-14.89.07-.31.63-.52,1-.77C119.78,23.37,120.07,23.82,120.07,23.82Z"/><path class="cls-1" d="M193.33,79.16c0,.57,0,1,.09,1.48.11,1.26.29,2.53-1.63,2.46s-3.12-.83-3.16-2.49a5.45,5.45,0,0,1,2.56-5,3.32,3.32,0,0,1,2.17-.14c.19,0,.28,1,.27,1.58A18.39,18.39,0,0,1,193.33,79.16Z"/><path class="cls-1" d="M114.08,43.62c0,1.35,0,2.7,0,4.05,0,.88.4,1.91-1,2.1a3,3,0,0,1-3.42-1.64,5.25,5.25,0,0,1,2.87-6.07C113.74,41.58,114.58,42.28,114.08,43.62Z"/><path class="cls-1" d="M84.41,76.14a15.81,15.81,0,0,1,1.93,1c.14.09,0,1.13-.23,1.18a14.08,14.08,0,0,1-2.52.27,1.53,1.53,0,0,1-.89-.15c-.43-.31-1.12-.75-1.1-1.1s.65-.86,1.09-1.18C82.89,76,83.28,76.14,84.41,76.14Z"/><path class="cls-1" d="M99,62.2c-1.06-.42-2-.76-2.88-1.19-.12-.06-.16-.61,0-.81.82-1.33,2.14-.77,3.22-.61.52.07.93.87,1.38,1.34Z"/><path class="cls-1" d="M76.69,75.2c1.12.14,1.65.07,2,.29a1.68,1.68,0,0,1,.55,1.07.92.92,0,0,1-.46.7,2.07,2.07,0,0,1-1.3.25,28.72,28.72,0,0,1-2.73-1.21Z"/><path class="cls-1" d="M170.15,91.65c1,.55,1.94,1,2.81,1.54.11.07.06.63-.09.84-1,1.34-2.22.38-3.34.26-.81-.09-1.61-.56-1.19-1.47C168.58,92.31,169.44,92.08,170.15,91.65Z"/><path class="cls-1" d="M178.53,95.29a8,8,0,0,1-2.14-.27c-.46-.21-.76-.75-1.14-1.15.4-.37.75-.91,1.23-1.07a4.32,4.32,0,0,1,1.79,0c.89.1,2,.15,1.65,1.46C179.78,94.77,178.88,95.06,178.53,95.29Z"/><path class="cls-1" d="M91.42,60.77a4.32,4.32,0,0,1-1.77-.06A1.56,1.56,0,0,1,89,59.35c.09-.44.78-1.13,1.09-1.08a14.57,14.57,0,0,1,3,1c.24.1.58.55.53.64a1.8,1.8,0,0,1-.83.85,4,4,0,0,1-1.34,0Z"/></g></g></svg>