<svg xmlns="http://www.w3.org/2000/svg" viewBox="0 0 103.07 22.61"><defs><style>.cls-1{fill:#b13234;}</style></defs><title>資產 126</title><g id="圖層_2" data-name="圖層 2"><g id="圖層_1-2" data-name="圖層 1"><path class="cls-1" d="M.21,21.22a2.58,2.58,0,0,1-.21-.5s.12,0,.36,0c1,.09,4.17.13,9.56.13h2.59c2.05,0,3.36,0,3.91,0a6.16,6.16,0,0,0,1.52-.14,1.14,1.14,0,0,0,.51-.44,2.43,2.43,0,0,1,.2-.29,8,8,0,0,1,.63-.73c.16-.06.61.2,1.35.79s1.11,1,1.09,1.15v.07c0,.12-.08.19-.26.22s-.91.06-1.94.07H12.61q-8.58,0-9.51.05a19.92,19.92,0,0,0-2.4.27.19.19,0,0,1-.21-.06A2.74,2.74,0,0,1,.21,21.22Zm0-9.63A4,4,0,0,1,1,11.11a27.17,27.17,0,0,0,4.78-3.7C7.26,6,7.88,5.05,7.59,4.73a6.17,6.17,0,0,0-2.34-.17,30,30,0,0,0-3.67.24l-.17,0a1.29,1.29,0,0,1-.5,0c-.07,0-.17-.18-.28-.44a.93.93,0,0,1-.05-.1C.42,4,.36,3.84.4,3.8a1.17,1.17,0,0,1,.59,0c.49,0,2,.07,4.49.07s3.84,0,3.95,0c.39-.16.45-1.25.17-3.27,0-.23,0-.35.07-.37a2.67,2.67,0,0,1,.71.15,10,10,0,0,1,1.91.6c.25.15.25.33,0,.54a1,1,0,0,0-.28.43,3.89,3.89,0,0,0-.06.85V3a1.84,1.84,0,0,0,.07.66,1,1,0,0,0,.66.24c.24,0,.82,0,1.74,0h1.34a9.77,9.77,0,0,0,1.79-.09A1.82,1.82,0,0,0,18.33,3l.24-.34c.26-.34.45-.51.56-.51a3,3,0,0,1,.9.59,7.31,7.31,0,0,1,1,.87c.28.29.41.48.41.56v0a.22.22,0,0,1-.14.21,4.8,4.8,0,0,1-.87.08l-2.36,0h-.7c-2.5,0-3.79.05-3.85.1-.33.18-.15.55.53,1.11A14.41,14.41,0,0,0,16.8,7.54a26.81,26.81,0,0,0,3.83,1.65,5.94,5.94,0,0,1,1.06.41q.11.11-.33.27a2,2,0,0,0-.79.67,2.36,2.36,0,0,0-.54,1c0,.07-.07.09-.15.08a3.51,3.51,0,0,1-.53-.22A16.59,16.59,0,0,1,12.8,5.56c-.39-.65-.63-.77-.74-.36a18.15,18.15,0,0,0,0,3.41v.05a11.44,11.44,0,0,1,0,1.26.43.43,0,0,1-.22.31l0,0a3.33,3.33,0,0,1-.9.34,2.16,2.16,0,0,1-.82.1c-.21,0-.34-.14-.38-.26a3.54,3.54,0,0,1,0-.93c.06-1.12.09-1.84.07-2.16a1.18,1.18,0,0,0-.13-.68.23.23,0,0,0-.32-.06c-.12.07-.44.34-1,.79A21.53,21.53,0,0,1,5.21,9.63a4.29,4.29,0,0,0-.69.48A1.27,1.27,0,0,1,4,10.4c-.21.07-.58.21-1.09.44-1,.45-1.81.79-2.48,1a.19.19,0,0,1-.19-.06C.15,11.74.16,11.67.23,11.59Zm4.38,8.32c-.18-.08-.24-.38-.17-.9s0-1.49,0-3.32S4.43,12.2,4.32,11a.35.35,0,0,0,0-.12c0-.25,0-.39.1-.4a4.3,4.3,0,0,1,.87.31l.17.07.34.14a4.39,4.39,0,0,0,1.29.42c.32,0,1.2.05,2.64.05h2.11c1.55,0,2.47-.05,2.76-.1a1.17,1.17,0,0,0,.75-.51l.15-.19a2.5,2.5,0,0,1,.44-.5.2.2,0,0,1,.24,0,5.16,5.16,0,0,1,1.3,1c.49.47.71.77.66.88s-.09.12-.29.25l-.1,0a.76.76,0,0,0-.34.48c0,.18,0,.78,0,1.78v.31c0,1.52,0,2.55.06,3.08a3,3,0,0,1,0,1c0,.12-.23.27-.55.44a2.67,2.67,0,0,1-1.34.39c-.32,0-.47-.22-.43-.58a.74.74,0,0,1,0-.12c0-.26,0-.42-.07-.49a1.94,1.94,0,0,0-.92-.17c-.34,0-1.18,0-2.52,0H10.09c-1.25,0-2,0-2.35,0a2.38,2.38,0,0,0-.88.13.47.47,0,0,0-.17.38v.12c0,.28-.31.53-.85.74A1.44,1.44,0,0,1,4.61,19.91Zm6.3-5.34a26.29,26.29,0,0,0,3.93-.14c.21-.13.31-.49.31-1.07s-.1-.93-.31-1.06a25.23,25.23,0,0,0-3.92-.15,25.92,25.92,0,0,0-3.94.1c-.21.13-.31.49-.31,1.1s.1,1,.31,1.1A26.87,26.87,0,0,0,10.91,14.57ZM15,17.36a3.6,3.6,0,0,0,.07-.87V16.2c0-.37,0-.6-.1-.68s-.39-.23-.83-.27-1.08,0-2.27,0h-2c-1.18,0-1.93,0-2.26,0s-.71.12-.82.27-.11.31-.1.68v.29a3.82,3.82,0,0,0,.06.86.46.46,0,0,0,.28.3,30.63,30.63,0,0,0,3.86.1,29.48,29.48,0,0,0,3.89-.08A.52.52,0,0,0,15,17.36Z"/><path class="cls-1" d="M32.93,22.5a.36.36,0,0,1-.22-.31,6,6,0,0,1,0-1.09c.09-1.54.16-3.11.18-4.73a15.47,15.47,0,0,0-.07-2.67c-.08-.16-.18-.22-.32-.19a1.8,1.8,0,0,0-.62.41A23.56,23.56,0,0,1,29.14,16c-1,.7-1.59,1-1.72.92s-.13-.13-.09-.2a1,1,0,0,1,.31-.33A20.39,20.39,0,0,0,33,10.26a1.7,1.7,0,0,0,.27-.72c0-.15-.1-.26-.29-.32a7.81,7.81,0,0,0-1.88,0,24.65,24.65,0,0,0-2.63.24,1.22,1.22,0,0,1-.52,0A1.24,1.24,0,0,1,27.64,9l0,0c-.17-.34-.23-.53-.2-.57s.24,0,.61,0,1.45.06,3,.07,2.46,0,2.57,0,.44-.32.68-.78a2.09,2.09,0,0,0,.34-1.09c0-.24-.44-.38-1.28-.41a17,17,0,0,0-3.11.24,1.44,1.44,0,0,1-.61,0c-.08,0-.17-.16-.28-.39L29.34,6a1.57,1.57,0,0,1-.22-.57c0-.06.13-.07.34,0,.84.07,1.93.11,3.26.12a11.85,11.85,0,0,0,2.22-.07,1.48,1.48,0,0,0,.53-.85c.18-.58.21-.94.09-1.07s-.53-.18-1.23-.17l-4,.13a9.12,9.12,0,0,1-1.53-.05c-.18,0-.27-.11-.27-.22A.14.14,0,0,1,28.67,3c.07,0,.33,0,.76-.09a1.9,1.9,0,0,0,.37,0c2.34-.22,4.82-.57,7.43-1A65.9,65.9,0,0,0,43.86.41,7.11,7.11,0,0,1,44.71.2a7.4,7.4,0,0,1,1,1,8,8,0,0,1,1,1.05q0,.12-.27.15a2,2,0,0,1-.61-.07,5.93,5.93,0,0,0-1.94.09q-2.1.3-4.17.51a4.52,4.52,0,0,0-1.31.23A1.63,1.63,0,0,0,38,4c0,.06,0,.15-.07.27a2,2,0,0,0-.2.87c0,.18.22.28.56.31a16.76,16.76,0,0,0,1.82.05h1.19a11.79,11.79,0,0,0,2-.09,1.77,1.77,0,0,0,.81-.71l.2-.26c.26-.34.44-.51.56-.51s.41.13.84.46c1,.79,1.53,1.3,1.43,1.52s-.27.21-.67.23-1.81,0-4.22,0-3.75,0-4.16,0a1.23,1.23,0,0,0-.81.21,2.59,2.59,0,0,0-.51.93,2.11,2.11,0,0,0-.25.89c.05.15.21.23.49.24s1.23,0,2.86,0h2.06c1.59,0,2.52,0,2.81-.06A1,1,0,0,0,45.46,8l.12-.17c.49-.65.79-1,.9-1s.61.29,1.28.86,1,.93,1,1.08v.07c0,.12,0,.18-.19.2a7.61,7.61,0,0,1-1.38.09l-3.81,0H41.29l-3.83,0a10.39,10.39,0,0,0-1.48.1.49.49,0,0,0-.34.19l-.07.1c-.57.69-.73,1.16-.49,1.41a1.18,1.18,0,0,0,.71.19c.35,0,1.51,0,3.46,0h1c1.49,0,2.37,0,2.66-.06a1.31,1.31,0,0,0,.79-.47,1,1,0,0,0,.14-.17q.44-.46.75-.39a4.23,4.23,0,0,1,1.24.9,2.8,2.8,0,0,1,.61.63c0,.11,0,.24-.25.36a1,1,0,0,0-.48.59,30.67,30.67,0,0,0,0,3.27c0,2,.06,3.6.13,4.92v.15a3.77,3.77,0,0,1,0,.87c0,.1-.17.2-.39.32l-.12,0a2.89,2.89,0,0,1-1.41.38.47.47,0,0,1-.44-.59.88.88,0,0,1,0-.2.83.83,0,0,0-.1-.56,1.5,1.5,0,0,0-.87-.21Q42,21,40.1,21H38.58c-1.31,0-2.15,0-2.5,0a1.71,1.71,0,0,0-.92.17c-.1.06-.15.21-.15.46v.14c0,.28-.27.51-.81.7A1.57,1.57,0,0,1,32.93,22.5Zm6.35-2.23a35.16,35.16,0,0,0,3.88-.09c.22-.12.35-.49.36-1.11s-.09-1-.31-1.15a27.94,27.94,0,0,0-4-.1A27.31,27.31,0,0,0,35.3,18c-.22.14-.33.52-.31,1.14s.14,1,.39,1.09A32.73,32.73,0,0,0,39.28,20.27ZM43.21,14c.22-.13.34-.48.34-1s-.12-.91-.34-1a26.2,26.2,0,0,0-4-.1A28.44,28.44,0,0,0,35.3,12c-.21.13-.31.47-.31,1s.1.86.31,1a27.31,27.31,0,0,0,3.94.15A27.94,27.94,0,0,0,43.21,14Zm-3.93,3.13a30.85,30.85,0,0,0,3.88-.1c.26-.13.39-.49.39-1.1s-.13-1-.39-1.08a26.41,26.41,0,0,0-3.88-.12,26.41,26.41,0,0,0-3.88.12c-.28.13-.41.5-.41,1.1s.13,1,.39,1.11A35.62,35.62,0,0,0,39.28,17.17Z"/><path class="cls-1" d="M54.34,11.91c-.07-.07-.08-.13,0-.2a2.82,2.82,0,0,1,.49-.36,24.54,24.54,0,0,0,5.29-4.8A18.77,18.77,0,0,0,63.53,1s0-.12.07-.22c.11-.31.18-.49.2-.53s.08-.06.16,0h0a13.74,13.74,0,0,1,1.84.44,9.94,9.94,0,0,1,1.51.47s0,.1-.1.17a.66.66,0,0,1-.27.13.34.34,0,0,0-.29.37,1.24,1.24,0,0,0,.29.7,13.86,13.86,0,0,0,3.62,3.32,23.18,23.18,0,0,0,5.18,2.57c.37.13.57.25.59.35s-.11.24-.4.38a2.89,2.89,0,0,0-.86.72,3,3,0,0,0-.59,1c-.05.15-.11.22-.17.22a3.7,3.7,0,0,1-.56-.27,18.29,18.29,0,0,1-4.2-3.2,14.5,14.5,0,0,1-2.85-4c-.26-.55-.42-.87-.49-1A.55.55,0,0,0,66,2.35a.32.32,0,0,0-.32.11,6.85,6.85,0,0,0-.62.84,21.68,21.68,0,0,1-3.52,4.07l-.92.9a1.12,1.12,0,0,1-.41.34A7.11,7.11,0,0,0,59.6,9l-.15.1a24.84,24.84,0,0,1-3.8,2.3l0,0-1,.46C54.47,12,54.38,12,54.34,11.91Zm.6,10.54a.14.14,0,0,1,0-.14,1.12,1.12,0,0,1,.33-.19l.07-.05a9.62,9.62,0,0,0,4.39-4.74,18.5,18.5,0,0,0,.9-8.07,1.65,1.65,0,0,1,0-.58s.15,0,.36,0a12.69,12.69,0,0,1,2,.63q.49.24.21.48a.83.83,0,0,0-.3.44,4.57,4.57,0,0,0-.06.92,16.12,16.12,0,0,1-.79,5.49,8.57,8.57,0,0,1-2.61,3.63A13.38,13.38,0,0,1,56.76,22C55.65,22.48,55,22.65,54.94,22.45Zm12.49.05a.41.41,0,0,1-.21-.26,3,3,0,0,1,0-.63q.15-2.19.12-6.87a50.13,50.13,0,0,0-.19-5.57.64.64,0,0,0,0-.15c0-.24,0-.37.06-.4a2,2,0,0,1,.62.09.43.43,0,0,1,.17,0,10.68,10.68,0,0,1,2,.6c.3.16.33.32.07.49a.78.78,0,0,0-.34.59c0,.27-.06,1.16-.07,2.68q0,4.76.14,7.66a4.3,4.3,0,0,1,0,1c0,.12-.21.25-.52.39,0,0-.06,0-.07.05a3.63,3.63,0,0,1-1,.32A1,1,0,0,1,67.43,22.5Z"/><path class="cls-1" d="M85.4,22.53a.49.49,0,0,1-.26-.28,4.13,4.13,0,0,1,0-.79c.07-.95.12-2.16.15-3.61a17.63,17.63,0,0,0,0-2.35c-.13-.33-.29-.41-.49-.25a3,3,0,0,0-.6,1.14,17.45,17.45,0,0,1-1.35,2.91c-.54.94-.91,1.4-1.12,1.38s-.17,0-.17-.14a2.8,2.8,0,0,1,.17-.68,16.87,16.87,0,0,0,.8-5.19V14.5c0-.27,0-.43.09-.46a2,2,0,0,1,.73.12l.27.08,1.12.27a.53.53,0,0,0,.31,0c.21-.08.32-.48.32-1.2s-.09-1.11-.3-1.19a2.47,2.47,0,0,0-1.19.14,3.24,3.24,0,0,0-1.18.51c-.18.16-.3.21-.37.14A4.76,4.76,0,0,1,81.9,12l0,0c0-.1-.07-.21-.12-.34-.15-.4-.2-.64-.16-.71s.26-.12.64-.14H83a2.73,2.73,0,0,0,.9-.12,1.57,1.57,0,0,0,.63-.7c.16-.26.48-.89,1-1.89.19-.41.35-.72.46-.95.29-.61.62-1.41,1-2.39A9.14,9.14,0,0,0,87.48,3c0-.22.62,0,1.87.56a2.89,2.89,0,0,1,.87.5c.08.1,0,.2-.24.28s-.57.45-1,1.11c-.74,1.09-1.57,2.19-2.47,3.3a5.17,5.17,0,0,1-.42.49l-.36.46q-.48.6-.3.78c.12.13.56.17,1.32.14s1.36-.1,1.48-.26,0-.55-.34-1.2c-.23-.45-.33-.69-.29-.72s.52,0,1.19.42a5.83,5.83,0,0,1,1.5,1.39c.23.33.41.5.57.53s.35-.1.59-.36a11,11,0,0,0,2.89-6.76c.06-.63-.07-1-.4-1.16a3.86,3.86,0,0,0-2,.12,1.47,1.47,0,0,1-.62.07A1.15,1.15,0,0,1,91,2.23l0,0c-.16-.32-.22-.51-.18-.55a1.32,1.32,0,0,1,.59,0c.39.05,1.9.07,4.52.07h1.23c1.47,0,2.35,0,2.62,0a1.14,1.14,0,0,0,.73-.41l.14-.15c.33-.34.61-.47.85-.4a4.48,4.48,0,0,1,1.29,1.06,1.12,1.12,0,0,1,.36.58c0,.16-.08.24-.29.24,0,0-.13,0-.23.15a.93.93,0,0,0-.22.25,7.39,7.39,0,0,0-.13,1.27,20.24,20.24,0,0,1-.68,4.85,2.64,2.64,0,0,1-1.72,1.68c-.91.3-1.38.26-1.43-.15A1.93,1.93,0,0,0,98,9.62,2.16,2.16,0,0,0,97,9a3.57,3.57,0,0,1-.65-.24.12.12,0,0,1,0-.19,4.16,4.16,0,0,1,1.14,0,4.82,4.82,0,0,0,1.67-.1,1.5,1.5,0,0,0,.73-1.16,22.8,22.8,0,0,0,.31-3,1.22,1.22,0,0,1,0-.22,2.78,2.78,0,0,0-.09-1.44c-.12-.14-.58-.22-1.37-.23h-.29A4.11,4.11,0,0,0,97,2.56c-.14.09-.27.4-.36.93a.43.43,0,0,0,0,.1A11.31,11.31,0,0,1,94.88,8a12.21,12.21,0,0,1-3.67,3.29,1,1,0,0,0-.43.63,1.23,1.23,0,0,1-.56.8.91.91,0,0,1-.78.14.67.67,0,0,1-.48-.6,1.83,1.83,0,0,0-.34-1,.68.68,0,0,0-.68-.08.78.78,0,0,0-.56.49c0,.08,0,1.1,0,3s0,3.34,0,4.18q0,.27,0,.75c0,1.12.07,1.77.07,2s0,.32-.07.35a2.69,2.69,0,0,1-1.06.51A1.36,1.36,0,0,1,85.4,22.53ZM83.82,7.81a.54.54,0,0,1-.23-.16,2,2,0,0,1-.18-.4A7.25,7.25,0,0,0,82,4.78l-.24-.29-.07-.07c-.28-.34,0-.37.9-.08.53.18.87.22,1,.11a2.71,2.71,0,0,0,.48-1.17,21.56,21.56,0,0,0,.6-2.74V.46c0-.29.11-.44.17-.46a2.3,2.3,0,0,1,.68.2l.15,0A10.44,10.44,0,0,1,87.43,1c.24.17.24.31,0,.43a1.15,1.15,0,0,0-.44.3c-.13.14-.37.45-.73.93s-.7.93-1.09,1.39a3.23,3.23,0,0,0-.68,1c0,.16.07.38.29.67a1.68,1.68,0,0,1,.39,1.14,1.09,1.09,0,0,1-.39.88A.8.8,0,0,1,83.82,7.81Zm5.67,11a.58.58,0,0,1-.32-.26,2.18,2.18,0,0,1-.16-.66,16.36,16.36,0,0,0-.66-2.72c-.27-.81-.33-1.23-.17-1.26s.6.3,1.31,1a4.62,4.62,0,0,1,1.17,2,2.28,2.28,0,0,1,0,1.68Q90.32,19.18,89.49,18.77Zm2.42,3.37a7.9,7.9,0,0,1,0-1.33c.07-1.07.09-2.52.07-4.34s-.09-3.17-.19-4.08a1.15,1.15,0,0,0,0-.14c0-.29,0-.45.07-.46a2.82,2.82,0,0,1,.87.29l.32.12a6.52,6.52,0,0,0,1.39.42q.48.06,2.34.09h.7a10.82,10.82,0,0,0,1.89-.09,1.61,1.61,0,0,0,.78-.64,2.53,2.53,0,0,1,.2-.22c.14-.18.26-.26.36-.26a1.38,1.38,0,0,1,.58.29c1.16.79,1.55,1.3,1.16,1.52a1.35,1.35,0,0,0-.48.49,3.43,3.43,0,0,0-.15,1.26c0,.44,0,1.46,0,3.08,0,.16,0,.39,0,.68,0,1.13,0,1.85,0,2.16a2,2,0,0,1-.15.82.86.86,0,0,1-.46.27.64.64,0,0,0-.19.05,2.38,2.38,0,0,1-1.23.14c-.22-.08-.32-.32-.3-.73v-.12a1.27,1.27,0,0,0-.08-.56q-.12-.17-.63-.21c-.22,0-.77,0-1.64,0h-.61q-1.41,0-1.77,0c-.36,0-.57.09-.65.19a.9.9,0,0,0-.1.53v.05a1.3,1.3,0,0,1-.07.51,1,1,0,0,1-.37.28,2.27,2.27,0,0,1-.77.23,2,2,0,0,1-.74,0A.34.34,0,0,1,91.91,22.14Zm7.45-2.28a.71.71,0,0,0,.26-.55c0-.26,0-1.14,0-2.63v-1A8.93,8.93,0,0,0,99.6,14a.71.71,0,0,0-.48-.59,7.6,7.6,0,0,0-1.36,0H96a7.42,7.42,0,0,0-1.35,0,.74.74,0,0,0-.49.59,10,10,0,0,0,0,1.62v1c0,1.49,0,2.37,0,2.63a.65.65,0,0,0,.23.53,15.64,15.64,0,0,0,2.5.12A13.07,13.07,0,0,0,99.36,19.86Z"/></g></g></svg>