<svg xmlns="http://www.w3.org/2000/svg" viewBox="0 0 48.45 22.57"><defs><style>.cls-1{fill:#b13234;}</style></defs><title>資產 125</title><g id="圖層_2" data-name="圖層 2"><g id="圖層_1-2" data-name="圖層 1"><path class="cls-1" d="M4,22.48a.46.46,0,0,1-.39-.37,12.5,12.5,0,0,1,0-1.69q.22-3.54.15-7.76c0-2.14-.08-3.7-.2-4.68a.47.47,0,0,0,0-.15q0-.48.06-.51a3.28,3.28,0,0,1,.86.29l.24.1.15.07a12.08,12.08,0,0,0,1.32.51,5.67,5.67,0,0,0,1.13.07h.12A4.34,4.34,0,0,0,8.6,8.27.71.71,0,0,0,9,7.69a6.53,6.53,0,0,0,.12-1.46v-.1A.8.8,0,0,0,9,5.6c-.09-.1-.35-.15-.77-.17H5.61c-1.42,0-2.33,0-2.74.05a13.21,13.21,0,0,0-1.65.17l-.09,0a1.21,1.21,0,0,1-.57,0,1.22,1.22,0,0,1-.31-.45L.18,5.12A1.23,1.23,0,0,1,0,4.67q0-.09.21-.06a28.59,28.59,0,0,0,3.49.14,19.06,19.06,0,0,0,3,0c.12-.06.18-.12.19-.18a2.52,2.52,0,0,0-.06-.37A11.28,11.28,0,0,0,5,.58C4.8.31,4.89.2,5.3.27A4.31,4.31,0,0,1,6.7.78a5.13,5.13,0,0,1,1.39.92A2.52,2.52,0,0,1,8.8,2.87,1.5,1.5,0,0,1,8.69,4a1.17,1.17,0,0,0-.17.51c0,.11.16.19.44.22l1.36,0c.93,0,1.5,0,1.69,0a.72.72,0,0,0,.47-.19,5.43,5.43,0,0,0,.81-1.8,13.69,13.69,0,0,0,.62-2.4q0-.36.24-.36c.14,0,.64.15,1.48.41l.07,0A6.11,6.11,0,0,1,17,.92c.17.11.12.24-.14.37a5.3,5.3,0,0,0-1,.84c-.45.5-.89,1-1.33,1.39a3.78,3.78,0,0,0-.8.87c-.08.18,0,.29.34.34a10.64,10.64,0,0,0,1.65,0H16a6.61,6.61,0,0,0,1.38-.12A1.9,1.9,0,0,0,18.1,4l.15-.17c.46-.61.76-.9.89-.87a6.07,6.07,0,0,1,1.41,1c.69.58,1,.94,1,1.07v.05a.22.22,0,0,1-.14.22,4.76,4.76,0,0,1-1,.09l-2.77,0h-2c-1.33,0-2.17,0-2.52,0a3.92,3.92,0,0,0-1,.15.94.94,0,0,0-.41.38l-.15.2c-.19.26-.43.57-.73.94l-.07.08a4.38,4.38,0,0,0-.56.82c0,.16.13.26.49.29s.9.05,1.94.05h.82a13,13,0,0,0,1.7-.06,1.17,1.17,0,0,0,.61-.47l.14-.17c.31-.36.52-.54.64-.55s.4.14.82.45A6.64,6.64,0,0,1,18.61,8.6c.18.23.18.4,0,.52a2.28,2.28,0,0,0-.32.19.78.78,0,0,0-.4.52c-.05.24-.07,1.74,0,4.5s.07,4.83.15,6.21a2.55,2.55,0,0,1-.09,1.17,2.08,2.08,0,0,1-1,.5,1.74,1.74,0,0,1-1.09.14c-.18-.08-.26-.32-.25-.72s0-.67-.26-.78a43.1,43.1,0,0,0-4.46-.1,42.28,42.28,0,0,0-4.46.1.82.82,0,0,0-.28.62c0,.32-.29.58-.76.8A2.1,2.1,0,0,1,4,22.48ZM15.26,20c.25-.13.38-.65.4-1.55s-.08-1.44-.32-1.6a32.66,32.66,0,0,0-4.48-.15,33,33,0,0,0-4.49.1C6.12,17,6,17.51,6,18.44s.14,1.45.38,1.56a39.49,39.49,0,0,0,4.42.1A42.25,42.25,0,0,0,15.26,20Zm-4.41-7.86A34,34,0,0,0,15.34,12a.53.53,0,0,0,.24-.39,8.87,8.87,0,0,0,.05-1.17v-.41a1.25,1.25,0,0,0-.12-.75c-.12-.16-.42-.26-.9-.29s-1.15,0-2.43,0H9.42C8.16,9,7.37,9,7,9a1.38,1.38,0,0,0-.87.29,1.67,1.67,0,0,0-.1.82v.47a7.46,7.46,0,0,0,0,1.11.54.54,0,0,0,.25.34A34.17,34.17,0,0,0,10.85,12.17ZM15.26,16a.5.5,0,0,0,.29-.35,7.16,7.16,0,0,0,0-1.2V14a1.57,1.57,0,0,0-.09-.82c-.12-.17-.41-.27-.88-.32s-1.14,0-2.4,0H9.44c-1.26,0-2.06,0-2.4,0s-.76.15-.87.32a1.64,1.64,0,0,0-.1.82v.46a8.7,8.7,0,0,0,0,1.19.47.47,0,0,0,.29.34,42.75,42.75,0,0,0,4.42.1A40.26,40.26,0,0,0,15.26,16Z"/><path class="cls-1" d="M31.63,18a.45.45,0,0,1-.38-.33,6.64,6.64,0,0,1,0-1.34q.16-3,.15-6.5c0-2.31-.07-4.07-.2-5.26a.86.86,0,0,0,0-.17c0-.29,0-.45.08-.46a2.86,2.86,0,0,1,.87.31l.31.12a11.62,11.62,0,0,0,1.23.47,7.33,7.33,0,0,0,1.17.09,4,4,0,0,0,1.43-.14c.15-.1.26-.45.32-1.05,0,0,0-.12,0-.21a1.43,1.43,0,0,0,0-.68c-.06-.15-.28-.23-.65-.25s-.91,0-1.92,0h-.89c-1.44,0-2.36,0-2.77.05a11.53,11.53,0,0,0-1.67.17l-.12,0a1.27,1.27,0,0,1-.53,0,1.1,1.1,0,0,1-.3-.39l-.07-.12a1.46,1.46,0,0,1-.23-.54c0-.06.12-.08.33,0,1.11.11,4.18.16,9.19.14A69.86,69.86,0,0,0,44.7,1.7,4.35,4.35,0,0,0,45.35,1a.77.77,0,0,1,.1-.12c.31-.39.52-.59.65-.6a2,2,0,0,1,.83.48L47,.8c1.06.76,1.53,1.25,1.4,1.48s-.26.21-.63.23-1.66,0-3.85,0H42.71c-1.2,0-2,0-2.3,0a2.68,2.68,0,0,0-1,.15,1.61,1.61,0,0,0-.49.46,2.15,2.15,0,0,0-.18.23l-.18.2a8.23,8.23,0,0,0-.71.92c-.06.18,0,.3.34.34a13.38,13.38,0,0,0,1.63,0h.75a12,12,0,0,0,1.67-.09,1.4,1.4,0,0,0,.66-.49l.12-.15c.27-.32.48-.48.61-.48a2.37,2.37,0,0,1,.87.48,4.65,4.65,0,0,1,1.14,1c.13.22,0,.4-.22.53a1,1,0,0,0-.56.63c0,.15,0,1.52,0,4.12s0,4.28.07,5a2.23,2.23,0,0,0,0,.32,5.22,5.22,0,0,1,0,1c0,.12-.17.25-.43.38l-.1.05a3.49,3.49,0,0,1-1.22.41c-.35,0-.52-.05-.52-.24s0-.37-.15-.44a2.79,2.79,0,0,0-1-.14c-.41,0-1.36,0-2.86,0h-1q-2.06,0-2.61,0a5.16,5.16,0,0,0-1.07.09,1,1,0,0,0-.37.32l-.07.09a1.51,1.51,0,0,1-.82.45A2.55,2.55,0,0,1,31.63,18ZM27.68,22.5c-.08-.08-.1-.15,0-.21a3.74,3.74,0,0,1,.6-.3,21.16,21.16,0,0,0,3.84-2.11,10.13,10.13,0,0,0,2.58-2.33c.11-.16.21-.23.28-.21a2.76,2.76,0,0,1,.62.43l0,0q.75.6,1,.75a2.33,2.33,0,0,1,.78.62c0,.12-.09.19-.42.2a2.2,2.2,0,0,0-.57.12l-1.22.61a26.51,26.51,0,0,1-6.84,2.35l-.48.1C27.8,22.58,27.74,22.56,27.68,22.5Zm14.71-14c.21-.13.32-.59.32-1.39s-.11-1.25-.32-1.38a28,28,0,0,0-4.31-.14,24.08,24.08,0,0,0-4.24.17c-.18.17-.26.65-.25,1.41s.12,1.21.32,1.33a27.31,27.31,0,0,0,4.24.14A26.89,26.89,0,0,0,42.39,8.49Zm0,7.56c.21-.13.32-.61.32-1.43s-.11-1.3-.32-1.43A24.65,24.65,0,0,0,38.15,13a25,25,0,0,0-4.24.15c-.21.13-.32.61-.32,1.43s.11,1.3.32,1.43a25,25,0,0,0,4.24.15A24.65,24.65,0,0,0,42.39,16.05Zm-.07-3.73a.46.46,0,0,0,.29-.33,6.73,6.73,0,0,0,0-1.15V10.4a1.39,1.39,0,0,0-.1-.8,1.3,1.3,0,0,0-.84-.29c-.33,0-1.1,0-2.33,0H36.91c-1.22,0-2,0-2.32,0a1.31,1.31,0,0,0-.85.29,1.59,1.59,0,0,0-.1.8v.44a8.06,8.06,0,0,0,0,1.15.46.46,0,0,0,.29.33c.11,0,1.5.07,4.17.07A37.21,37.21,0,0,0,42.32,12.32Zm4.08,10.2a3.2,3.2,0,0,1-1-.72,16.57,16.57,0,0,0-5.09-3c-.87-.33-1.09-.51-.64-.56a13.73,13.73,0,0,1,2.87.31,14,14,0,0,1,4,1.28c1,.52,1.44,1.1,1.44,1.73a.93.93,0,0,1-.47.84A1.28,1.28,0,0,1,46.4,22.52Z"/></g></g></svg>