<svg width="99" height="77" viewBox="0 0 99 77" fill="none" xmlns="http://www.w3.org/2000/svg">
<path d="M12.1494 76.0099C33.2662 70.0167 53.2794 60.6601 71.4194 48.2999C80.4919 42.152 89.0621 35.2938 97.0494 27.7899C102.459 22.7199 94.4794 17.8699 91.3694 14.6999L80.1094 3.24992C73.7394 -3.23008 72.1794 1.24992 67.1094 5.69992C62.9594 9.29992 58.6694 12.6999 54.1894 15.8699C45.2539 22.2276 35.7265 27.7096 25.7394 32.2399C20.7394 34.5099 15.6794 36.5199 10.4994 38.3099C5.48944 40.0099 -1.74056 39.6599 0.379444 47.5599C1.77278 52.7533 3.16611 57.9499 4.55944 63.1499L6.63944 70.9399C7.46944 74.0099 7.99944 77.1999 12.1494 76.0099Z" fill="black"/>
</svg>
