<svg xmlns="http://www.w3.org/2000/svg" viewBox="0 0 76.31 99.48"><title>資產 50</title><g id="圖層_2" data-name="圖層 2"><g id="圖層_1-2" data-name="圖層 1"><path d="M21.51,98.11c2.66,2.61,4.53,1.06,6.62-1.17,1.9-2,3.75-4.09,5.57-6.2q5.49-6.36,10.44-13.13A207.1,207.1,0,0,0,61.36,49.66,207.33,207.33,0,0,0,74,19.35C76.33,12,79.21,9,69.79,6.46l-15-4-7.56-2c-3.26-.87-5.46-.57-6.52,3q-2.34,8-5.45,15.66A169.76,169.76,0,0,1,20.11,48.21c-3,4.62-6.18,9.06-9.6,13.36Q8,64.78,5.26,67.86C3.47,69.9,1,71.14.09,74.13c-1.09,3.65,8.19,11,9.85,12.61Z"/></g></g></svg>