<svg xmlns="http://www.w3.org/2000/svg" viewBox="0 0 166 169.64"><defs><style>.cls-1{fill:#ee8948;}</style></defs><title>資產 106</title><g id="圖層_2" data-name="圖層 2"><g id="圖層_3" data-name="圖層 3"><path d="M165,141l-13.4-13.4-6.55-6.55c-1.78-1.78-4.67-6.73-7.7-3.7L124,130.78l-6.55,6.55c-1.78,1.78-6.72,4.67-3.7,7.7l13.4,13.4,6.55,6.55c1.78,1.78,4.68,6.72,7.7,3.7l13.4-13.4,6.55-6.55C163.12,147,168.07,144.05,165,141Z"/><path d="M101,1,87.61,14.35l-6.55,6.56c-1.78,1.78-6.73,4.67-3.7,7.7L90.76,42l6.55,6.56c1.78,1.78,4.67,6.72,7.7,3.7l13.4-13.4L125,32.31c1.78-1.78,6.72-4.68,3.7-7.7l-13.4-13.4-6.55-6.55C106.93,2.88,104-2.07,101,1Z"/><path d="M119.2,59.17l-13.4,13.4-6.55,6.55c-1.78,1.78-6.73,4.67-3.7,7.7l13.4,13.4,6.55,6.55c1.78,1.78,4.67,6.72,7.7,3.7l13.4-13.4,6.55-6.55c1.78-1.78,6.73-4.68,3.7-7.7l-13.4-13.4-6.55-6.55C125.12,61.09,122.23,56.14,119.2,59.17Z"/><path d="M39.16,66.81l13.4,13.4,6.55,6.55c1.78,1.78,4.67,6.72,7.7,3.7l13.4-13.4,6.55-6.55c1.78-1.78,6.72-4.68,3.7-7.7l-13.4-13.4-6.55-6.55c-1.78-1.78-4.68-6.73-7.7-3.7l-13.4,13.4-6.55,6.55C41.08,60.89,36.13,63.78,39.16,66.81Z"/><path d="M81,97.37l-13.4,13.4-6.55,6.55c-1.78,1.78-6.73,4.67-3.7,7.7l13.4,13.4L77.3,145c1.78,1.78,4.67,6.72,7.7,3.7l13.4-13.4,6.55-6.55c1.78-1.78,6.72-4.68,3.7-7.7l-13.4-13.4-6.55-6.55C86.92,99.29,84,94.34,81,97.37Z"/><path d="M1,105l13.39,13.4L20.91,125c1.78,1.78,4.67,6.72,7.7,3.7L42,115.26l6.56-6.55c1.78-1.78,6.72-4.68,3.7-7.7l-13.4-13.4-6.55-6.55c-1.78-1.78-4.68-6.73-7.7-3.7l-13.4,13.4L4.66,97.31C2.88,99.09-2.07,102,1,105Z"/><path class="cls-1" d="M94.15,33.67a5.66,5.66,0,0,0,3.55,7.17l1.81-5.36Z"/><path class="cls-1" d="M113.23,39.22c2.44-7.2-1.18-14.95-8.06-17.27L100.75,35Z"/><line class="cls-1" x1="99.29" y1="34.51" x2="103.7" y2="21.45"/><rect class="cls-1" x="94.6" y="27.46" width="13.79" height="1.04" transform="translate(42.5 115.18) rotate(-71.34)"/><circle class="cls-1" cx="72.44" cy="69.86" r="5.86"/><path class="cls-1" d="M70.85,76.57a6.89,6.89,0,0,1-5.11-8.29,5.82,5.82,0,0,1,.25-.84,7.6,7.6,0,1,0,5.73,9.27A8.74,8.74,0,0,1,70.85,76.57Z"/><path class="cls-1" d="M18.45,117A7,7,0,0,1,14,112.22l.82-.21a6.15,6.15,0,0,0,7.52,4.37l11.47-3a6.18,6.18,0,0,0,4.38-7.53l.81-.21a7,7,0,0,1-5,8.55l-11.47,3A7,7,0,0,1,18.45,117Z"/><ellipse class="cls-1" cx="26.19" cy="106.08" rx="3.74" ry="7.02" transform="translate(-26.31 10.25) rotate(-14.85)"/><path class="cls-1" d="M26.58,113.41l-.1,0h0l-.36-.18a9.18,9.18,0,0,1-2.95-2.4l-.07-.09-.08-.1c-.14-.19-.28-.38-.4-.57l-.06-.1a.21.21,0,0,1,0-.06c-.13-.21-.25-.43-.37-.65l-.07-.15a7.84,7.84,0,0,1-.32-.72l-.06-.16c-.09-.26-.18-.52-.25-.8a7.78,7.78,0,0,1-.17-.81l0-.17c0-.13,0-.25,0-.37a8.77,8.77,0,0,0-2.73-.49H18a8.47,8.47,0,0,0-3.25.78c0,.19,0,.38.06.57l0,.14c0,.23.09.47.15.7a.29.29,0,0,0,0,.09c.06.25.15.5.23.74l.06.15c.09.23.19.46.3.68l.06.12c.11.22.23.43.35.64l0,0,.1.14.3.44a.1.1,0,0,1,0,0l.07.09a7.34,7.34,0,0,0,.51.6h0A8.72,8.72,0,0,0,21.25,114h0c.25.06.5.11.76.15l.13,0c.25,0,.5.06.75.07H23c.23,0,.46,0,.68,0h.17l.72-.08.18,0a7,7,0,0,0,.74-.16l.1,0c.22-.06.44-.13.65-.21h0l.13,0,.28-.12A.64.64,0,0,0,26.58,113.41Z"/><path class="cls-1" d="M36.81,101.94c-.07-.23-.14-.46-.22-.68,0-.05,0-.09-.05-.13s-.15-.36-.23-.53a8.63,8.63,0,0,0-3.21.93l-.45.25a8.63,8.63,0,0,0-2.13,1.77c.05.12.1.23.14.35a.76.76,0,0,1,.06.16,7.3,7.3,0,0,1,.26.79c.07.28.13.55.17.82l0,.17a6.82,6.82,0,0,1,.08.79.81.81,0,0,1,0,.16c0,.25,0,.5,0,.74v.08a.41.41,0,0,0,0,.11c0,.23,0,.47-.07.7a.5.5,0,0,1,0,.12s0,.08,0,.11a9.15,9.15,0,0,1-1.38,3.56l-.22.33h0l-.07.1a1,1,0,0,1,0,.16l.31,0,.14,0h0c.23,0,.45-.08.67-.14l.11,0,.72-.23.16-.07a5.65,5.65,0,0,0,.67-.29l.15-.07c.2-.11.4-.22.59-.34l.08,0c.21-.13.41-.28.61-.43l.11-.08c.2-.16.39-.33.58-.5l0,0a8.73,8.73,0,0,0,2.46-4.24h0c.06-.25.11-.51.15-.77,0,0,0-.07,0-.11v-.07c0-.17,0-.35.05-.52a1.1,1.1,0,0,1,0-.18v0c0-.24,0-.48,0-.73v-.14c0-.24-.05-.49-.08-.74l0-.15a6.85,6.85,0,0,0-.16-.76A.29.29,0,0,1,36.81,101.94Z"/><path class="cls-1" d="M126.36,83.39a2.84,2.84,0,0,0,1.32-3.78l-2.55,1.23Z"/><path class="cls-1" d="M131.79,88.14A2.83,2.83,0,0,0,128,86.81l1.22,2.55Z"/><path class="cls-1" d="M125.15,80.8,115,85.8a4.69,4.69,0,0,0,4.15,8.4l10.12-5Z"/><path class="cls-1" d="M127.56,98.47l-2.14-4.32L129.75,92a5.65,5.65,0,0,1,0,3.59,5.6,5.6,0,0,1-2.17,2.86m-.33,1.11a6.46,6.46,0,0,0,2.92-8.65l-5.79,2.86,2.87,5.79Z"/><rect class="cls-1" x="123.46" y="94.42" width="0.79" height="6.46" transform="translate(-30.44 64.98) rotate(-26.3)"/><rect class="cls-1" x="120.93" y="95.67" width="0.79" height="6.46" transform="translate(-31.26 63.99) rotate(-26.3)"/><rect class="cls-1" x="118.39" y="96.92" width="0.79" height="6.46" transform="translate(-32.08 62.99) rotate(-26.3)"/><circle class="cls-1" cx="84.04" cy="127.5" r="3.89"/><circle class="cls-1" cx="94.34" cy="124.05" r="3.89"/><circle class="cls-1" cx="73.74" cy="130.96" r="3.89"/><rect class="cls-1" x="75.03" y="132" width="22.6" height="0.85" transform="translate(-37.58 34.26) rotate(-18.51)"/><rect class="cls-1" x="72.41" y="127.36" width="22.6" height="0.85" transform="translate(-36.24 33.19) rotate(-18.51)"/><path class="cls-1" d="M134.88,156.7a14.28,14.28,0,0,1-8-7.53l.75-.34a13.43,13.43,0,0,0,7.52,7.11h0a13.42,13.42,0,0,0,10.35-.29l.33.75a14.24,14.24,0,0,1-11,.3Z"/><path class="cls-1" d="M149.49,139.05a10.4,10.4,0,0,1-19,8.51l7.46-3.34a4.47,4.47,0,0,0,8.15-3.65Z"/></g></g></svg>