<svg width="74" height="74" viewBox="0 0 74 74" fill="none" xmlns="http://www.w3.org/2000/svg">
<g clip-path="url(#clip0)">
<path d="M72.6727 34.2144L54.0388 15.5851L44.9304 6.47897C42.4551 4.00433 38.4224 -2.87741 34.2228 1.33505L15.5889 19.9505L6.48056 29.0705C4.00531 31.5452 -2.87811 35.563 1.33538 39.7754L19.9554 58.3909L29.0777 67.5109C31.5529 69.9856 35.5717 76.8534 39.7852 72.6548L58.4052 54.0255L67.5275 44.9194C70.0028 42.4447 76.8723 38.413 72.6727 34.2144Z" fill="black"/>
<path d="M25.2669 41.8251C25.9225 41.5104 26.6754 41.4651 27.364 41.699C28.0526 41.9329 28.6222 42.4273 28.9506 43.0762L29.9653 42.5757C29.7003 42.0301 29.3105 41.5544 28.8275 41.1874C28.3445 40.8203 27.7819 40.5721 27.1852 40.4628C26.4746 40.331 25.7414 40.4002 25.0681 40.6628C24.3949 40.9254 23.8084 41.3709 23.3748 41.949C22.9412 42.5272 22.6777 43.2149 22.6142 43.9348C22.5506 44.6547 22.6894 45.378 23.0149 46.0231L30.0626 60.2853L31.0774 59.7988L24.0158 45.5088C23.7011 44.8532 23.6558 44.1003 23.8897 43.4117C24.1236 42.723 24.618 42.1535 25.2669 41.8251Z" fill="#EE8948"/>
<path d="M55.9957 32.302L54.9809 32.8024C56.1068 35.0886 56.2795 37.728 55.4611 40.1414C54.6428 42.5547 52.9003 44.5447 50.6161 45.6746L31.3218 55.1827L31.8222 56.1975L51.1165 46.6893C53.6682 45.4251 55.6147 43.2008 56.5293 40.5039C57.4438 37.8071 57.252 34.8576 55.9957 32.302V32.302Z" fill="#EE8948"/>
<path d="M49.5606 43.5053C51.2673 42.657 52.5681 41.1666 53.1778 39.3609C53.7875 37.5552 53.6565 35.5814 52.8134 33.8721L46.0854 37.1805L26.8745 46.6747L30.0578 53.1247L49.5606 43.5053Z" fill="#EE8948"/>
</g>
<defs>
<clipPath id="clip0">
<rect width="73.98" height="73.98" fill="white"/>
</clipPath>
</defs>
</svg>
