<svg xmlns="http://www.w3.org/2000/svg" viewBox="0 0 73.97 73.97"><defs><style>.cls-1{fill:#ee8948;}</style></defs><title>資產 55</title><g id="圖層_2" data-name="圖層 2"><g id="圖層_1-2" data-name="圖層 1"><path d="M39.77,1.33C35.56-2.87,31.53,4,29.06,6.47Q24.52,11,20,15.58L1.33,34.2C-2.87,38.41,4,42.44,6.47,44.91Q11,49.46,15.58,54L34.2,72.64c4.21,4.21,8.24-2.67,10.71-5.14q4.55-4.56,9.11-9.11L72.64,39.77c4.21-4.21-2.67-8.24-5.14-10.71L58.39,20Z"/><path class="cls-1" d="M25.11,54.35a9.5,9.5,0,0,1-5.88-2.82l1.46-1.43a7.51,7.51,0,0,0,10.63.09l1.43,1.46A9.5,9.5,0,0,1,26,54.39,8.25,8.25,0,0,1,25.11,54.35Z"/><ellipse class="cls-1" cx="40.41" cy="43.32" rx="9.16" ry="4.88" transform="translate(-18.78 40.74) rotate(-44.49)"/><path class="cls-1" d="M32.35,48.5a.66.66,0,0,1,0-.14v0l0-.52a12,12,0,0,1,.82-4.91l.06-.13.06-.16c.12-.28.25-.55.39-.82a.54.54,0,0,1,.07-.13.41.41,0,0,1,0-.09c.15-.28.32-.56.5-.83l.11-.18c.2-.28.4-.56.62-.83a1.15,1.15,0,0,0,.14-.17c.24-.27.48-.54.74-.8s.54-.5.82-.73l.17-.14.39-.29A11.09,11.09,0,0,0,36,34.2c-.11-.2-.23-.39-.35-.58a11.27,11.27,0,0,0-3-3.18c-.21.14-.41.28-.61.44L32,31c-.24.2-.48.41-.7.63l-.09.08c-.24.24-.47.49-.68.74l-.14.16c-.2.25-.4.51-.58.78l-.1.15c-.17.27-.34.54-.49.81l0,.06a2,2,0,0,0-.1.21l-.3.62,0,.08-.06.14c-.13.31-.25.64-.35,1v0a11.39,11.39,0,0,0-.06,6.39v0c.09.32.2.64.32,1a.77.77,0,0,0,.07.16c.12.31.25.6.4.9a.41.41,0,0,1,.05.09c.14.27.29.52.45.78l.12.18c.17.26.35.52.55.77l.15.18c.2.25.42.5.65.74l.1.1.66.6,0,0,.13.12.33.24C32.29,48.63,32.32,48.57,32.35,48.5Z"/><path class="cls-1" d="M52,52.7c.22-.22.43-.46.64-.69,0,0,.08-.09.11-.14s.31-.4.45-.6a11.14,11.14,0,0,0-3.12-3c-.19-.13-.38-.24-.58-.36a11.26,11.26,0,0,0-3.39-1.26l-.3.38a2.09,2.09,0,0,1-.14.17c-.24.28-.48.55-.74.81s-.54.49-.82.72l-.17.14a8,8,0,0,1-.84.6l-.18.12q-.41.26-.84.48l-.09,0-.13.07-.83.37-.16.06-.13.05a11.94,11.94,0,0,1-4.93.74l-.51,0h-.16l-.2.08a3.81,3.81,0,0,0,.24.32.76.76,0,0,0,.11.14l0,0c.19.23.39.45.6.67l.09.1c.24.24.48.46.73.67l.18.15c.25.2.5.39.76.57l.18.12c.25.16.51.31.76.45l.1.06c.29.15.59.29.89.42l.16.07c.31.12.62.24.94.34h0a11.33,11.33,0,0,0,6.4.05h0c.33-.1.65-.21,1-.33l.14-.06.08,0,.63-.29.21-.09.05,0c.28-.15.56-.31.82-.48l.16-.1c.27-.17.53-.36.79-.56l.16-.13c.26-.21.51-.44.75-.67Z"/><path class="cls-1" d="M49.05,34.83c-3.13-3.18-7.34-5.77-9.19-4-1.09,1.08-.65,3,.52,5a13,13,0,0,1,1.82-.52c-1.06-1.74-1.31-3-1.06-3.21s2.77.38,5.77,3.15c.28.25.55.5.83.79s.53.56.78.84c2.71,3,3.41,5.46,3,5.82s-1.47,0-3.19-1.11a14.5,14.5,0,0,1-.55,1.81c2,1.21,3.93,1.68,5,.61C54.7,42.27,52.17,38,49.05,34.83Z"/></g></g></svg>