<svg width="74" height="74" viewBox="0 0 74 74" fill="none" xmlns="http://www.w3.org/2000/svg">
<g filter="url(#filter0_i)">
<path d="M72.64 34.2L54 15.58C50.9733 12.5266 47.9433 9.48996 44.91 6.46996C42.44 3.99996 38.41 -2.87004 34.2 1.32996L15.58 20C12.5266 23.0066 9.48996 26.0266 6.46996 29.06C3.99996 31.53 -2.87004 35.56 1.32996 39.77L20 58.39C23.04 61.4233 26.0766 64.46 29.11 67.5C31.58 69.97 35.61 76.85 39.82 72.64L58.39 54C61.4233 50.96 64.46 47.9233 67.5 44.89C70 42.44 76.85 38.41 72.64 34.2Z" fill="black"/>
<path d="M40.14 32.8201C40.6063 32.5983 41.0244 32.2868 41.3703 31.9034C41.7162 31.52 41.9831 31.0722 42.1559 30.5855C42.3286 30.0989 42.4038 29.583 42.377 29.0673C42.3503 28.5516 42.2221 28.0462 42 27.5801L38.46 29.2801L40.14 32.8201Z" fill="#EE8948"/>
<path d="M47.6899 39.43C47.2403 38.4899 46.4357 37.7669 45.453 37.42C44.4704 37.0731 43.3902 37.1306 42.45 37.58L44.15 41.13L47.6899 39.43Z" fill="#EE8948"/>
<path d="M38.45 29.23L24.38 36.23C22.8855 37.0245 21.7592 38.3699 21.2399 39.9808C20.7206 41.5918 20.8491 43.3417 21.5983 44.8595C22.3474 46.3773 23.6582 47.5436 25.2528 48.1112C26.8474 48.6788 28.6003 48.603 30.14 47.9L44.22 40.9L38.45 29.23Z" fill="#EE8948"/>
<path d="M41.81 53.8001L38.81 47.8001L44.81 44.8001C45.3552 46.4225 45.3574 48.1784 44.8161 49.8021C44.2749 51.4259 43.2196 52.8293 41.81 53.8001V53.8001ZM41.35 55.3401C43.4735 54.2805 45.0925 52.4251 45.8547 50.1777C46.617 47.9303 46.4607 45.4729 45.42 43.3401L37.37 47.3401L41.37 55.3901L41.35 55.3401Z" fill="#EE8948"/>
<path d="M35.1666 48.3781L34.1804 48.8655L38.1592 56.9159L39.1453 56.4285L35.1666 48.3781Z" fill="#EE8948"/>
<path d="M31.6419 50.1176L30.6558 50.605L34.6345 58.6554L35.6207 58.1681L31.6419 50.1176Z" fill="#EE8948"/>
<path d="M28.1272 51.8571L27.1411 52.3445L31.1199 60.3949L32.106 59.9076L28.1272 51.8571Z" fill="#EE8948"/>
</g>
<defs>
<filter id="filter0_i" x="0" y="0" width="73.9775" height="73.974" filterUnits="userSpaceOnUse" color-interpolation-filters="sRGB">
<feFlood flood-opacity="0" result="BackgroundImageFix"/>
<feBlend mode="normal" in="SourceGraphic" in2="BackgroundImageFix" result="shape"/>
<feColorMatrix in="SourceAlpha" type="matrix" values="0 0 0 0 0 0 0 0 0 0 0 0 0 0 0 0 0 0 127 0" result="hardAlpha"/>
<feOffset/>
<feGaussianBlur stdDeviation="5"/>
<feComposite in2="hardAlpha" operator="arithmetic" k2="-1" k3="1"/>
<feColorMatrix type="matrix" values="0 0 0 0 0.933333 0 0 0 0 0.537255 0 0 0 0 0.282353 0 0 0 1 0"/>
<feBlend mode="normal" in2="shape" result="effect1_innerShadow"/>
</filter>
</defs>
</svg>
