<svg xmlns="http://www.w3.org/2000/svg" viewBox="0 0 53.22 53.22"><defs><style>.cls-1{fill:#ee8948;}</style></defs><title>資產 108</title><g id="圖層_2" data-name="圖層 2"><g id="圖層_3" data-name="圖層 3"><path d="M52.26,24.61l-13.4-13.4L32.31,4.66c-1.78-1.78-4.68-6.73-7.7-3.7L11.21,14.35,4.66,20.91c-1.78,1.78-6.73,4.67-3.7,7.7L14.35,42l6.56,6.56c1.78,1.78,4.67,6.72,7.7,3.7L42,38.86l6.56-6.55C50.34,30.53,55.28,27.63,52.26,24.61Z"/><path class="cls-1" d="M18.18,30.08a2,2,0,0,1,2.65.9l.73-.36a2.78,2.78,0,0,0-2-1.52,2.79,2.79,0,0,0-3,4l5.07,10.26.73-.35L17.28,32.73A2,2,0,0,1,18.18,30.08Z"/><path class="cls-1" d="M40.29,23.23l-.73.36a6.92,6.92,0,0,1-3.14,9.26L22.54,39.69l.36.73,13.88-6.84A7.74,7.74,0,0,0,40.29,23.23Z"/><path class="cls-1" d="M35.66,31.29A5.18,5.18,0,0,0,38,24.36l-4.84,2.38L19.34,33.57l2.29,4.64Z"/></g></g></svg>