<svg width="74" height="74" viewBox="0 0 74 74" fill="none" xmlns="http://www.w3.org/2000/svg">
<g filter="url(#filter0_i)">
<path d="M39.77 1.32996C35.56 -2.87004 31.53 3.99996 29.06 6.46996C26.0333 9.48996 23.0133 12.5266 20 15.58L1.32996 34.2C-2.87004 38.41 3.99996 42.44 6.46996 44.91C9.48996 47.9433 12.5266 50.9733 15.58 54L34.2 72.64C38.41 76.85 42.44 69.97 44.91 67.5C47.9433 64.46 50.98 61.4233 54.02 58.39L72.64 39.77C76.85 35.56 69.97 31.53 67.5 29.06L58.39 20L39.77 1.32996Z" fill="black"/>
<path d="M25.11 54.3501C22.8786 54.1333 20.7958 53.1344 19.23 51.5301L20.69 50.1001C21.3816 50.8048 22.2054 51.3662 23.1142 51.7522C24.023 52.1381 24.999 52.3411 25.9863 52.3495C26.9737 52.3578 27.953 52.1714 28.8682 51.8009C29.7834 51.4303 30.6165 50.883 31.32 50.1901L32.75 51.6501C31.8605 52.5285 30.8064 53.2226 29.6481 53.6928C28.4898 54.163 27.25 54.4 26 54.3901C25.7028 54.3928 25.4057 54.3795 25.11 54.3501V54.3501Z" fill="#EE8948"/>
<path d="M43.8252 46.8058C47.4341 43.2606 48.8286 38.828 46.9399 36.9053C45.0511 34.9827 40.5944 36.298 36.9855 39.8433C33.3766 43.3885 31.9822 47.8211 33.8709 49.7437C35.7596 51.6664 40.2163 50.351 43.8252 46.8058Z" fill="#EE8948"/>
<path d="M32.3501 48.4999C32.3451 48.4534 32.3451 48.4065 32.3501 48.3599V47.8399C32.2772 46.1639 32.5565 44.4913 33.1701 42.9299L33.2301 42.7999L33.2901 42.6399C33.4101 42.3599 33.5401 42.0899 33.6801 41.8199C33.6973 41.7736 33.7209 41.7299 33.7501 41.6899C33.7468 41.66 33.7468 41.6298 33.7501 41.5999C33.9001 41.3199 34.0701 41.0399 34.2501 40.7699L34.3601 40.5899C34.5601 40.3099 34.7601 40.0299 34.9801 39.7599C35.0321 39.7079 35.0789 39.651 35.1201 39.5899C35.3601 39.3199 35.6001 39.0499 35.8601 38.7899C36.1201 38.5299 36.4001 38.2899 36.6801 38.0599L36.8501 37.9199L37.2401 37.6299C37.0189 36.426 36.5999 35.267 36.0001 34.1999C35.8901 33.9999 35.7701 33.8099 35.6501 33.6199C34.8672 32.3743 33.848 31.294 32.6501 30.4399C32.4401 30.5799 32.2401 30.7199 32.0401 30.8799L32.0001 30.9999C31.7601 31.1999 31.5201 31.4099 31.3001 31.6299L31.2101 31.7099C30.9701 31.9499 30.7401 32.1999 30.5301 32.4499L30.3901 32.6099C30.1901 32.8599 29.9901 33.1199 29.8101 33.3899L29.7101 33.5399C29.5401 33.8099 29.3701 34.0799 29.2201 34.3499V34.4099C29.1827 34.4779 29.1493 34.5481 29.1201 34.6199L28.8201 35.2399V35.3199L28.7601 35.4599C28.6301 35.7699 28.5101 36.0999 28.4101 36.4599C27.7807 38.5406 27.7599 40.7579 28.3501 42.8499V42.8499C28.4401 43.1699 28.5501 43.4899 28.6701 43.8499C28.6872 43.9058 28.7107 43.9594 28.7401 44.0099C28.8601 44.3199 28.9901 44.6099 29.1401 44.9099C29.1604 44.9377 29.1772 44.968 29.1901 44.9999C29.3301 45.2699 29.4801 45.5199 29.6401 45.7799L29.7601 45.9599C29.9301 46.2199 30.1101 46.4799 30.3101 46.7299L30.4601 46.9099C30.6601 47.1599 30.8801 47.4099 31.1101 47.6499L31.2101 47.7499L31.8701 48.3499L32.0001 48.4699L32.3301 48.7099C32.2901 48.6299 32.3201 48.5699 32.3501 48.4999Z" fill="#EE8948"/>
<path d="M51.9999 52.6999C52.2199 52.4799 52.4299 52.2399 52.6399 52.0099C52.6399 52.0099 52.7199 51.9199 52.7499 51.8699C52.7799 51.8199 53.0599 51.4699 53.1999 51.2699C52.3661 50.0755 51.3061 49.0563 50.0799 48.2699C49.8899 48.1399 49.6999 48.0299 49.4999 47.9099C48.4452 47.31 47.3005 46.8845 46.1099 46.6499L45.8099 47.0299C45.7663 47.089 45.7196 47.1457 45.6699 47.1999C45.4299 47.4799 45.1899 47.7499 44.9299 48.0099C44.6699 48.2699 44.3899 48.4999 44.1099 48.7299L43.9399 48.8699C43.6732 49.0878 43.3926 49.2882 43.0999 49.4699L42.9199 49.5899C42.6466 49.7632 42.3666 49.9232 42.0799 50.0699H41.9899L41.8599 50.1399L41.0299 50.5099L40.8699 50.5699L40.7399 50.6199C39.167 51.2107 37.487 51.4629 35.8099 51.3599H35.2999H35.1399L34.9399 51.4399C35.0143 51.5507 35.0944 51.6575 35.1799 51.7599C35.211 51.8107 35.2479 51.8577 35.2899 51.8999C35.4799 52.1299 35.6799 52.3499 35.8899 52.5699L35.9799 52.6699C36.2199 52.9099 36.4599 53.1299 36.7099 53.3399L36.8899 53.4899C37.1399 53.6899 37.3899 53.8799 37.6499 54.0599L37.8299 54.1799C38.0799 54.3399 38.3399 54.4899 38.5899 54.6299L38.6899 54.6899C38.9799 54.8399 39.2799 54.9799 39.5799 55.1099L39.7399 55.1799C40.0499 55.2999 40.3599 55.4199 40.6799 55.5199C42.7641 56.1513 44.9861 56.1687 47.0799 55.5699V55.5699C47.4099 55.4699 47.7299 55.3599 48.0799 55.2399L48.2199 55.1799H48.2999L48.9299 54.8899L49.1399 54.7999H49.1899C49.4699 54.6499 49.7499 54.4899 50.0099 54.3199L50.1699 54.2199C50.4399 54.0499 50.6999 53.8599 50.9599 53.6599L51.1199 53.5299C51.3799 53.3199 51.6299 53.0899 51.8699 52.8599L51.9999 52.6999Z" fill="#EE8948"/>
<path d="M49.0501 34.8299C45.9201 31.6499 41.7101 29.0599 39.8601 30.8299C38.7701 31.9099 39.2101 33.8299 40.3801 35.8299C40.9733 35.6126 41.5816 35.4388 42.2001 35.3099C41.1401 33.5699 40.8901 32.3099 41.1401 32.0999C41.3901 31.8899 43.9101 32.4799 46.9101 35.2499C47.1901 35.4999 47.4601 35.7499 47.7401 36.0399C48.0201 36.3299 48.2701 36.5999 48.5201 36.8799C51.2301 39.8799 51.9301 42.3399 51.5201 42.6999C51.1101 43.0599 50.0501 42.6999 48.3301 41.5899C48.1863 42.2046 48.0026 42.8092 47.7801 43.3999C49.7801 44.6099 51.7101 45.0799 52.7801 44.0099C54.7001 42.2699 52.1701 37.9999 49.0501 34.8299Z" fill="#EE8948"/>
</g>
<defs>
<filter id="filter0_i" x="0" y="0" width="73.974" height="73.974" filterUnits="userSpaceOnUse" color-interpolation-filters="sRGB">
<feFlood flood-opacity="0" result="BackgroundImageFix"/>
<feBlend mode="normal" in="SourceGraphic" in2="BackgroundImageFix" result="shape"/>
<feColorMatrix in="SourceAlpha" type="matrix" values="0 0 0 0 0 0 0 0 0 0 0 0 0 0 0 0 0 0 127 0" result="hardAlpha"/>
<feOffset/>
<feGaussianBlur stdDeviation="5"/>
<feComposite in2="hardAlpha" operator="arithmetic" k2="-1" k3="1"/>
<feColorMatrix type="matrix" values="0 0 0 0 0.933333 0 0 0 0 0.537255 0 0 0 0 0.282353 0 0 0 1 0"/>
<feBlend mode="normal" in2="shape" result="effect1_innerShadow"/>
</filter>
</defs>
</svg>
