<svg xmlns="http://www.w3.org/2000/svg" viewBox="0 0 1251.22 666.44"><defs><style>.cls-1{fill:#05172f;}.cls-2{fill:#e2ded3;}.cls-3{fill:#ee8948;}.cls-4{fill:#fff;}.cls-5,.cls-6,.cls-8{fill:none;}.cls-5{stroke:#e2ded3;stroke-miterlimit:10;}.cls-5,.cls-6{stroke-width:1.26px;}.cls-6{stroke:#ee8948;}.cls-7{fill:#cacaca;}</style></defs><title>資產 97</title><g id="圖層_2" data-name="圖層 2"><g id="圖層_1-2" data-name="圖層 1"><path class="cls-1" d="M1236,276.38a417.31,417.31,0,0,0-22.21-65.88,360.86,360.86,0,0,0-33.68-60.79h0q-10.42-1.56-20.87-3T1138.29,144q-20.93-2.62-41.91-4.83t-42-4.09q-19.39-1.74-38.82-3.23l-3.21-.24q-21-1.6-42.08-3T928.19,126q-42.11-2.34-84.27-3.75-21.07-.7-42.16-1.21t-42.17-.85q-21.09-.34-42.18-.62-10.54-.13-21.09-.3T675.24,119c-14.06-.26-28.12-.59-42.17-1.12q-10.53-.41-21.06-1t-21-1.47q-10.51-.88-21-2.19c-7-.88-13.92-1.93-20.84-3.21s-13.78-2.81-20.57-4.64c-4.55-1.23-9.07-2.6-13.53-4.12q-3.28-1.12-6.53-2.36c-2.16-.82-4.3-1.69-6.43-2.59s-4.24-1.85-6.33-2.83q-6.28-3-12.33-6.36T471.6,79.85q-5.79-3.81-11.35-7.94c-7.43-5.49-14.6-11.33-21.71-17.22S424.35,42.86,417,37.21c-3.65-2.82-7.36-5.58-11.16-8.2q-2.85-2-5.77-3.83L399,24.45q-2.35-1.47-4.76-2.86-6-3.46-12.29-6.41T369.12,9.85A161.4,161.4,0,0,0,342.4,2.58c-5-.9-10-1.57-15-2Q321.1.06,314.81,0T302.25.41c-4.18.29-8.34.76-12.49,1.38A161,161,0,0,0,171.19,86.15q-3.44,6.57-6.27,13.42-2,4.77-3.63,9.66t-3,9.87c-.92,3.31-1.75,6.65-2.53,10-1.55,6.7-2.87,13.46-4.15,20.22s-2.5,13.53-3.84,20.29-2.76,13.48-4.39,20.17q-1.22,5-2.59,10c-.92,3.31-1.89,6.62-2.93,9.9q-3.1,9.84-7,19.43t-8.47,18.82q-4.62,9.24-9.92,18.1A316.58,316.58,0,0,1,89,299.93q-6.4,8.08-13.25,15.83t-14,15.14c-9.58,9.88-19.59,19.34-29.91,28.45q-9,7.95-18.26,15.56Q6.81,380.4,0,385.73c18.27,41.54,41.25,81.18,69.73,116.58a431.1,431.1,0,0,0,46.67,49.53,414.78,414.78,0,0,0,54.06,41.34c38.23,24.54,80.47,42.58,124.25,54.63a590.15,590.15,0,0,0,107,18.63q7.69-10.08,15.89-19.78,5.6-6.64,11.43-13.09,12-13.27,24.93-25.69a24.12,24.12,0,0,0,6.89-21.07,392,392,0,0,1-4.33-46.76c-.26-8.67-.19-17.36.27-26a256.77,256.77,0,0,1,6.48-46,221.49,221.49,0,0,1,6.61-22.42,213.28,213.28,0,0,1,9-21.6,206.35,206.35,0,0,1,24.32-38.83q6.27-7.86,13.3-15.06a209.31,209.31,0,0,1,18-16.42A252.66,252.66,0,0,1,575.37,327q5.68-3,11.47-5.78,9.27-4.46,18.79-8.38t19.28-7.43q10-3.59,20.14-6.69c17.59-5.41,35.46-9.82,53.46-13.56,13.48-2.8,27-5.22,40.63-7.4,20.77-3.32,41.61-6.09,62.49-8.51q30.84-3.58,61.78-6.2,26.13-2.22,52.31-3.78,27.74-1.65,55.52-2.44c15.51-.41,31-.59,46.55-.21,8.93.22,17.87.62,26.78,1.27,8.13.59,16.24,1.38,24.31,2.45,8.7,1.15,17.37,2.62,25.95,4.49,7.34,1.59,14.63,3.48,21.81,5.7q7.15,2.22,14.16,4.88c2.71,1,5.41,2.11,8.08,3.26a152.54,152.54,0,0,1,14.57,7.18A124.76,124.76,0,0,1,1165,293.2a114.26,114.26,0,0,1,25.76,25.49,138.19,138.19,0,0,1,14.45,25,200.58,200.58,0,0,1,11.87,35.18,17,17,0,0,0,2.25,5,17.16,17.16,0,0,0,4,4.24,17.4,17.4,0,0,0,5.2,2.65,16.86,16.86,0,0,0,5.46.73c5.74-.06,11.47-.1,17.21-.09C1249.94,352.66,1245.32,314,1236,276.38ZM315,318.9A155.46,155.46,0,1,1,470.4,163.44,155.46,155.46,0,0,1,315,318.9Zm165,36.27c-1.9,0-2.68-.78-2.68-2.68s.78-2.68,2.68-2.68,2.68.78,2.68,2.68S481.86,355.17,480,355.17Zm12.64-12.64c-1.9,0-2.68-.79-2.68-2.68s.78-2.68,2.68-2.68,2.68.78,2.68,2.68S494.51,342.53,492.61,342.53Zm12.64-12.64c-1.89,0-2.68-.79-2.68-2.69s.79-2.68,2.68-2.68,2.69.79,2.69,2.68S507.15,329.89,505.25,329.89Zm140.5-63.1h-3.22V206h3.22Zm37.85-71.52h-3.7V134.48h3.7Zm61.81,71.52h-3.22V206h3.22Zm37.85-71.52h-3.7V134.48h3.7Z"/><rect class="cls-2" x="736.34" y="175.1" width="1.26" height="6.39" transform="translate(89.78 573.34) rotate(-45)"/><path class="cls-2" d="M731.36,163.11a6.77,6.77,0,0,1-9.58,9.58"/><path class="cls-2" d="M726.57,175.3a7.32,7.32,0,0,1-5.23-2.17l.89-.89a6.14,6.14,0,1,0,8.68-8.68l.89-.89a7.4,7.4,0,0,1-5.23,12.63Z"/><path class="cls-3" d="M573.24,262.1a10.9,10.9,0,0,1-2.33,6.33,4,4,0,0,0-2-1c.69-.87,2.18-2.18,2.18-7V255h10.28v7.14h-3.73a5.84,5.84,0,0,0,1.46,2.35,6.76,6.76,0,0,0,3.41,2.17,7.25,7.25,0,0,0-1.5,1.78,9.46,9.46,0,0,1-5.59-6.3Zm6-2V257H573.3v3.09Z"/><path class="cls-3" d="M576.86,246.19h5.42v2.14H569.19v-2.14h5.4v-7.64h-4.46V236.4H581.3v2.15h-4.44Z"/><path class="cls-2" d="M575.73,286.88c0,.72-.39,1.08-1.18,1.08h-4.07c-.78,0-1.16-.36-1.16-1.08v-9.71c0-.73.39-1.09,1.18-1.09h4c.79,0,1.18.36,1.18,1.09Zm-1.91-.74v-8.36h-2.58v8.36Z"/><path class="cls-2" d="M581.59,288h-1.92v-8.38h-.75v-.24l1-3.26h1.66Z"/><polygon class="cls-2" points="113.1 351.99 95.31 347.21 90.55 340.86 96.94 342.8 96.2 341.81 88.64 339.52 94.87 347.85 115.02 353.26 110.79 347.88 109.61 347.56 113.1 351.99"/><polygon class="cls-3" points="114.05 343.2 102.59 340.13 101.28 338.38 94.96 336.46 98.44 341.11 99.17 342.09 99.71 342.81 109.92 345.55 111.09 345.87 117.5 347.59 114.05 343.2"/><polygon class="cls-3" points="115.22 343.52 114.05 343.2 117.5 347.59 111.09 345.87 109.92 345.55 99.71 342.81 99.17 342.09 98.44 341.11 94.96 336.46 101.28 338.38 100.55 337.39 93.05 335.12 97.26 340.75 98 341.74 99.28 343.44 110.67 346.51 111.84 346.82 119.42 348.86 115.22 343.52"/><path class="cls-3" d="M118.56,336.46l-21.18-6.41,4.34,5.8.76,1,1.36,1.82,11.87,3.19,1.22.33,7.79,2.09Zm-2.41,4.75-1.22-.33L104.29,338l-.59-.79-.76-1-3.58-4.78,18.76,5.68,4.61,5.85Z"/><path class="cls-2" d="M65.68,372.65a4.76,4.76,0,1,1,3.37-1.39A4.75,4.75,0,0,1,65.68,372.65Zm0-8.58a3.82,3.82,0,1,0,2.7,1.12A3.83,3.83,0,0,0,65.68,364.07Z"/><path class="cls-3" d="M80.67,387.8a4.92,4.92,0,1,1,3.48-1.44A4.88,4.88,0,0,1,80.67,387.8Zm0-8.9a4,4,0,0,0-2.82,6.79,4.08,4.08,0,0,0,5.63,0,4,4,0,0,0-2.81-6.79Z"/><circle class="cls-2" cx="62.41" cy="378.65" r="4.45"/><circle class="cls-3" cx="73.17" cy="375.38" r="4.29"/><path class="cls-3" d="M73.17,380.14a4.71,4.71,0,0,1-3.36-1.39,4.77,4.77,0,1,1,3.36,1.39Zm0-8.57a3.81,3.81,0,1,0,2.7,1.11A3.84,3.84,0,0,0,73.17,371.57Z"/><line class="cls-4" x1="65.68" y1="367.89" x2="73.17" y2="375.38"/><polygon class="cls-2" points="72.84 375.72 65.35 368.22 66.02 367.55 73.51 375.05 72.84 375.72"/><ellipse class="cls-2" cx="143.42" cy="305.25" rx="6.85" ry="3.65" transform="translate(-173.84 190.82) rotate(-45)"/><path class="cls-3" d="M137.46,309.68s0-.07,0-.11h0l0-.39a9,9,0,0,1,.59-3.67.42.42,0,0,1,0-.1l0-.12c.09-.21.18-.41.29-.62a.41.41,0,0,1,0-.09l0-.07c.12-.21.24-.42.37-.62l.09-.14c.14-.21.29-.42.45-.62l.11-.13a7.65,7.65,0,0,1,.55-.6,6.2,6.2,0,0,1,.6-.55l.13-.11.29-.22a8.35,8.35,0,0,0-.92-2.53c-.09-.15-.17-.3-.26-.44a8.67,8.67,0,0,0-2.25-2.35,4.84,4.84,0,0,0-.46.33l-.1.09a5.66,5.66,0,0,0-.52.47l-.07.06c-.18.18-.34.37-.5.56l-.1.12c-.15.19-.3.38-.43.58l-.08.12c-.12.2-.24.4-.35.61l0,0a1.11,1.11,0,0,0-.07.16c-.08.15-.15.31-.22.47l0,.05a.3.3,0,0,1,0,.1c-.09.24-.18.48-.25.73h0a8.54,8.54,0,0,0,0,4.78v0c.07.24.16.48.25.71l0,.12a5.79,5.79,0,0,0,.31.67.25.25,0,0,0,0,.07,5.36,5.36,0,0,0,.34.57c0,.05.05.1.08.14a6,6,0,0,0,.42.57,1.34,1.34,0,0,1,.11.14c.16.18.32.37.5.54l.07.08.5.44,0,0,.1.09.24.18Z"/><path class="cls-3" d="M151.6,312.15a5.91,5.91,0,0,0,.48-.52l.08-.1.34-.45a8.42,8.42,0,0,0-2.36-2.25l-.43-.26a8.52,8.52,0,0,0-2.54-.93l-.22.29-.11.13a9.37,9.37,0,0,1-1.15,1.15l-.13.11c-.2.16-.41.31-.62.45l-.14.09c-.2.13-.41.26-.62.37l-.07,0-.09,0c-.21.11-.41.2-.62.29l-.12,0-.1.05a9.13,9.13,0,0,1-3.67.58l-.39,0H139l-.14.06.17.24.09.1,0,0c.14.17.29.34.44.5l.08.07a6.52,6.52,0,0,0,.55.5l.13.11q.28.23.57.42l.14.09.57.33.07,0a5.79,5.79,0,0,0,.67.31l.12.05c.23.09.47.18.71.25h0a8.51,8.51,0,0,0,4.77,0h0c.25-.07.49-.16.73-.25l.1,0,.06,0,.46-.22.16-.07,0,0c.21-.11.41-.23.61-.36l.12-.08c.2-.13.39-.28.58-.43l.12-.09c.19-.16.38-.33.56-.51Z"/><path class="cls-2" d="M136.51,310.44l0,0h0l0,0a2.92,2.92,0,0,1-.28-.21c-.13-.09-.26-.18-.38-.28a8.14,8.14,0,0,1-2-.52A8.44,8.44,0,0,1,129.28,298c.33,0,.65.08,1,.14l.5.12a8.6,8.6,0,0,1,2.45,1.1c.07-.16.14-.31.22-.46a8.85,8.85,0,0,0-2.45-1.1l-.5-.12a8.52,8.52,0,0,0-1.33-.19H129l-.07.15a8.93,8.93,0,0,0,.32,8.4,9.27,9.27,0,0,0,1.4,1.82,8.92,8.92,0,0,0,5.75,2.6h.17Z"/><path class="cls-2" d="M137.11,310.65l-.75,0a9.09,9.09,0,0,1-7.6-13.05l.12-.25.27,0a9.32,9.32,0,0,1,1.35.19l.51.13a8.73,8.73,0,0,1,2.49,1.12l.12.07-.06.13a4.54,4.54,0,0,0-.21.45l-.08.17-.16-.1a8.23,8.23,0,0,0-2.4-1.08l-.49-.11c-.28-.06-.57-.1-.84-.13a8.26,8.26,0,0,0,4.47,11,8.59,8.59,0,0,0,1.91.52h0l0,0,.25.19.23.17.17.12Zm-8-13,0,.06a8.77,8.77,0,0,0,.32,8.25,8.3,8.3,0,0,0,1.38,1.79,8.79,8.79,0,0,0,5.25,2.52l-.08-.06-.24-.17a8.6,8.6,0,0,1-6.53-12.09l0-.1h.11a6.74,6.74,0,0,1,1,.14,4.7,4.7,0,0,1,.51.12,8.4,8.4,0,0,1,2.34,1l.08-.17a9,9,0,0,0-2.29-1l-.49-.12a8.68,8.68,0,0,0-1.3-.19Z"/><path class="cls-2" d="M151.18,319.53a8.52,8.52,0,0,0-.19-1.33,4.54,4.54,0,0,0-.12-.5,8.72,8.72,0,0,0-1.1-2.45l-.46.22a8.6,8.6,0,0,1,1.1,2.45l.12.5c.06.32.11.64.14,1a8.44,8.44,0,0,1-11.35-4.51,8.14,8.14,0,0,1-.52-1.95c-.1-.12-.19-.25-.28-.37s-.15-.19-.21-.29l0,0v0l0,0,0,0v.17a8.92,8.92,0,0,0,2.6,5.75,9.27,9.27,0,0,0,1.82,1.4,8.93,8.93,0,0,0,8.4.32l.15-.07Z"/><path class="cls-2" d="M147.14,320.82a9.1,9.1,0,0,1-4.58-1.23,9.14,9.14,0,0,1-4.5-7.28l0-.76.42.63.12.17.09.12.08.11a2.35,2.35,0,0,0,.19.25l0,0v.05a9.14,9.14,0,0,0,.51,1.91,8.42,8.42,0,0,0,3.51,4.06,8.31,8.31,0,0,0,7.53.41c0-.27-.07-.56-.13-.84s-.07-.33-.11-.49a8.23,8.23,0,0,0-1.08-2.4l-.1-.16.17-.07.45-.22.13-.06.07.12a8.86,8.86,0,0,1,1.12,2.49c0,.17.09.34.13.51a9.32,9.32,0,0,1,.19,1.35h0l0,.27-.25.12A9.11,9.11,0,0,1,147.14,320.82Zm-8.73-8.14a8.72,8.72,0,0,0,4.31,6.63,8.77,8.77,0,0,0,8.25.32l.06,0v-.06a8.68,8.68,0,0,0-.19-1.3l-.12-.49a8.69,8.69,0,0,0-1-2.29l-.17.08a8.4,8.4,0,0,1,1,2.34,4.7,4.7,0,0,1,.12.51,6.8,6.8,0,0,1,.14,1v.12l-.1,0a8.59,8.59,0,0,1-11.56-4.6,8.11,8.11,0,0,1-.52-1.93l-.17-.24Z"/><line class="cls-5" x1="139.27" y1="375.45" x2="121.1" y2="357.29"/><polyline class="cls-5" points="153.43 361.29 149.43 357.29 144.54 331.07"/><polyline class="cls-5" points="124.16 390.55 120.14 386.54 94.96 382.56"/><path class="cls-3" d="M726.62,180a12,12,0,0,1-8.58-3.56l.89-.89a10.88,10.88,0,0,0,15.38-15.38l.9-.9A12.15,12.15,0,0,1,726.62,180Z"/><path class="cls-2" d="M741.15,173.87l-1.17-.49a14.48,14.48,0,0,0,0-11.07l1.17-.48a15.82,15.82,0,0,1,0,12Z"/><polygon class="cls-3" points="715.56 179.81 714.66 178.91 733.87 159.71 730.33 156.17 731.22 155.28 735.65 159.71 715.56 179.81"/><rect class="cls-3" x="738.99" y="148.51" width="1.26" height="7.86" transform="translate(108.86 567.68) rotate(-45)"/><path class="cls-3" d="M1164.17,163.49q2.24,3.25,4.39,6.58c2.6.37,5.17.75,7.73,1.13-1.39-2.21-2.79-4.41-4.23-6.58Z"/><path class="cls-3" d="M1180.6,164.62c-1.43-2.22-2.89-4.43-4.36-6.61l-7.94-1.16q2.28,3.27,4.5,6.61Z"/><path class="cls-3" d="M1245.1,385.32a566.16,566.16,0,0,0-9-80,449.66,449.66,0,0,0-15.33-59.16,385.56,385.56,0,0,0-19.14-46.79c-4.39-9-9.18-17.8-14.24-26.24l-.15-.25-.29-.05-9-1.37.87,1.41,7.61,1.16c5,8.34,9.71,17,14,25.89a386.32,386.32,0,0,1,19.08,46.64,450.22,450.22,0,0,1,15.28,59,562.32,562.32,0,0,1,9,79.18c-3.08,0-20.64,0-23.73.08l1,1.26c3.32,0,20.09-.06,23.39-.08h.65Z"/><path class="cls-3" d="M149.32,221.68c-1.11-3.08-2.15-6.23-3.1-9.39-2.08,6.63-4.42,13.21-7,19.61,1,2.58,2.12,5.13,3.24,7.64C145,233.71,147.24,227.74,149.32,221.68Z"/><path class="cls-3" d="M475.82,92.37l-.5-.3c1.26,2.9,2.45,5.87,3.55,8.83,5.33,2.94,10.83,5.65,16.44,8.11-.75-2.52-1.54-5-2.4-7.55C487.08,98.72,481.33,95.66,475.82,92.37Z"/><path class="cls-3" d="M391.87,658.75q3.47.35,6.93.66c1.43-1.85,2.89-3.69,4.35-5.53q-3.51-.3-7-.63Q394,656,391.87,658.75Z"/><path class="cls-3" d="M10.25,389.18c.83,1.85,1.68,3.69,2.53,5.52l4.74-3.79c-.85-1.83-1.69-3.68-2.52-5.53Q12.63,387.29,10.25,389.18Z"/><path class="cls-6" d="M134.69,241.13q-3.42,7.74-7.31,15.23C114.62,280.92,98,303.39,79.56,324A542.23,542.23,0,0,1,21,379.67"/><path class="cls-6" d="M490.81,115.53q-4.62-2.06-9.13-4.34A174.87,174.87,0,0,1,154,231.72"/><path class="cls-6" d="M99,514.79A443.06,443.06,0,0,1,55.8,459a529.1,529.1,0,0,1-40.56-74.66L9.47,389c1,2.23,2,4.47,3.07,6.69q11.06-8.74,21.79-17.91"/><path class="cls-6" d="M460.89,583.74a526.22,526.22,0,0,0-70.2,75.52q4.19.43,8.39.81,2.63-3.37,5.3-6.71a598.51,598.51,0,0,1-81.57-12.31,487.27,487.27,0,0,1-64.91-19.33"/><path class="cls-6" d="M15.68,402.33c18.94,39.33,42.42,76.55,71.06,109.46a415.43,415.43,0,0,0,60.86,57.26,406.66,406.66,0,0,0,41.7,28,438.82,438.82,0,0,0,75.93,35c37.85,13.32,77.31,21.72,117.18,26.36a533.07,533.07,0,0,1,77.37-83.13"/><path class="cls-3" d="M284.67,526l5.89,5.89A11.73,11.73,0,1,0,274,548.44l-5.9-5.89A11.73,11.73,0,0,1,284.67,526Z"/><path class="cls-3" d="M340,581.27l5.89,5.89a11.73,11.73,0,0,0,16.59-16.6l-5.89-5.89A11.73,11.73,0,1,1,340,581.27Z"/><path class="cls-3" d="M267.47,575.14l5.9,5.9A11.73,11.73,0,0,0,290,564.44l-5.89-5.89a11.73,11.73,0,1,1-16.6,16.59Z"/><path class="cls-5" d="M365,573.13a11.73,11.73,0,1,1-16.59,16.6"/><path class="cls-5" d="M265.13,539.61A11.73,11.73,0,1,1,281.72,523"/><line class="cls-5" x1="365.03" y1="573.13" x2="284.32" y2="492.43"/><line class="cls-5" x1="292.75" y1="567.23" x2="265.13" y2="539.61"/><line class="cls-5" x1="348.44" y1="589.73" x2="281.72" y2="523.01"/><path class="cls-5" d="M292.53,567a11.73,11.73,0,0,1-16.59,16.6"/><path class="cls-5" d="M211.32,552.17a11.73,11.73,0,0,1,16.59-16.6"/><line class="cls-5" x1="238.45" y1="579.29" x2="210.83" y2="551.66"/><line class="cls-5" x1="275.94" y1="583.61" x2="227.81" y2="535.48"/><path class="cls-3" d="M230.86,538.52l5.89,5.89A11.73,11.73,0,0,0,220.16,561l-5.9-5.9a11.73,11.73,0,0,1,16.6-16.59Z"/><path class="cls-5" d="M296.61,443.72a10.24,10.24,0,1,1-14.48,14.48"/><path class="cls-5" d="M237.45,442.49A10.24,10.24,0,0,1,251.93,428"/><line class="cls-5" x1="296.61" y1="443.72" x2="237.15" y2="384.25"/><line class="cls-5" x1="307.08" y1="512.12" x2="237.45" y2="442.49"/><line class="cls-5" x1="282.13" y1="458.2" x2="251.93" y2="428"/><path class="cls-3" d="M254.5,430.58l5.14,5.14a10.24,10.24,0,0,0-14.48,14.48L240,445.06a10.24,10.24,0,1,1,14.48-14.48Z"/><path class="cls-3" d="M274.74,450.82l5.14,5.14a10.25,10.25,0,1,0,14.49-14.49l-5.15-5.14a10.24,10.24,0,1,1-14.48,14.49Z"/><path class="cls-5" d="M377.5,399.9A10.24,10.24,0,0,0,363,414.38"/><path class="cls-5" d="M396.51,476.84A10.24,10.24,0,0,0,411,462.36"/><line class="cls-5" x1="377.5" y1="399.9" x2="433.31" y2="455.7"/><line class="cls-5" x1="307.44" y1="387.77" x2="396.51" y2="476.84"/><line class="cls-5" x1="363.02" y1="414.38" x2="410.99" y2="462.36"/><path class="cls-3" d="M408.48,459.84l-5-5A10.24,10.24,0,0,1,389,469.3l5,5a10.25,10.25,0,0,0,14.48-14.49Z"/><path class="cls-3" d="M370.24,421.6l-5-5a10.24,10.24,0,0,1,14.48-14.48l5,5a10.24,10.24,0,0,0-14.48,14.48Z"/><path class="cls-3" d="M575.73,224.69a27.64,27.64,0,1,1,27.64-27.64A27.66,27.66,0,0,1,575.73,224.69Zm0-54a26.38,26.38,0,1,0,26.37,26.37A26.4,26.4,0,0,0,575.73,170.68Z"/><polygon class="cls-3" points="599.38 164.07 575.73 149.9 552.08 164.07 550.79 161.91 575.73 146.96 600.68 161.91 599.38 164.07"/><circle class="cls-7" cx="575.73" cy="148.43" r="6.42"/><circle class="cls-7" cx="600.03" cy="162.99" r="6.42"/><circle class="cls-7" cx="551.43" cy="162.99" r="6.42"/><circle class="cls-2" cx="733.81" cy="152.7" r="4.29"/><path class="cls-2" d="M733.81,157.61a4.92,4.92,0,1,1,3.48-1.44A4.91,4.91,0,0,1,733.81,157.61Zm0-8.57a3.66,3.66,0,1,0,2.58,1.07A3.64,3.64,0,0,0,733.81,149Z"/><rect class="cls-3" x="723.73" y="152.06" width="9.92" height="1.26"/><circle class="cls-3" cx="698.73" cy="248.86" r="5.29"/><path class="cls-3" d="M692.51,252.15a11.69,11.69,0,1,1,0-23.38h6.56a4.91,4.91,0,0,0,0-9.82v-1.26a6.17,6.17,0,0,1,0,12.34h-6.56a10.43,10.43,0,1,0,0,20.86Z"/><path class="cls-2" d="M678.51,240.46h-1.27a15.29,15.29,0,0,1,15.27-15.27v1.27A14,14,0,0,0,678.51,240.46Z"/><path class="cls-2" d="M682.8,258.08h-.63a4.93,4.93,0,1,1,0-9.85h.63Zm-1.26-8.53a3.66,3.66,0,0,0,0,7.21Z"/><path class="cls-3" d="M697.73,241.68a4.93,4.93,0,0,1,0-9.85v1.26a3.67,3.67,0,0,0,0,7.33Z"/><path class="cls-2" d="M689.26,246.37H688a4.93,4.93,0,0,1,4.93-4.92v1.26A3.67,3.67,0,0,0,689.26,246.37Z"/><path class="cls-2" d="M686.16,241.05h-1.27a4.93,4.93,0,0,1,4.93-4.93v1.27A3.66,3.66,0,0,0,686.16,241.05Z"/><path class="cls-3" d="M703.61,236.37a4.52,4.52,0,0,0-4.51-4.51v4.51Z"/><path class="cls-3" d="M688.63,258.05a4.51,4.51,0,0,0-4.51-4.51v4.51Z"/><path class="cls-2" d="M708.52,259.7a4.52,4.52,0,0,0-4.51-4.51v4.51Z"/><circle class="cls-2" cx="699.87" cy="249.56" r="3.74"/><path class="cls-8" d="M546.42,261.19v14.13a82.69,82.69,0,0,0,11.43,3.38V265.3A69.68,69.68,0,0,1,546.42,261.19Z"/><path class="cls-8" d="M546.42,236.4v11.31a57.82,57.82,0,0,0,11.43,5.1V242.76A48.9,48.9,0,0,1,546.42,236.4Z"/><path class="cls-8" d="M606.45,235.31a49.49,49.49,0,0,1-12.84,7.45v10.05a58.11,58.11,0,0,0,12.84-5.93Z"/><path class="cls-8" d="M557.85,254.14a59.12,59.12,0,0,1-11.43-5v10.65A69,69,0,0,0,557.85,264Z"/><path class="cls-8" d="M593.61,254.14V264a68.62,68.62,0,0,0,12.84-4.86V248.36A59.47,59.47,0,0,1,593.61,254.14Z"/><path class="cls-8" d="M593.61,226.88v6.7a41,41,0,0,0,12.84-9.91V213.36A35.05,35.05,0,0,1,593.61,226.88Z"/><path class="cls-8" d="M593.61,235v6.42a47.92,47.92,0,0,0,12.84-7.72v-8.11A42,42,0,0,1,593.61,235Z"/><path class="cls-8" d="M546.42,227v7.8a47.55,47.55,0,0,0,11.43,6.6V235A41.89,41.89,0,0,1,546.42,227Z"/><path class="cls-8" d="M557.85,233.58v-6.7a35,35,0,0,1-11.43-11.14v9.47A41,41,0,0,0,557.85,233.58Z"/><path class="cls-8" d="M593.61,265.3v13.4a83,83,0,0,0,12.84-3.93V260.55A70,70,0,0,1,593.61,265.3Z"/><path class="cls-3" d="M546.42,275.32v1.36A83.87,83.87,0,0,0,557.85,280V278.7A82.69,82.69,0,0,1,546.42,275.32Z"/><path class="cls-3" d="M593.61,278.7V280a84.21,84.21,0,0,0,12.84-3.86v-1.36A83,83,0,0,1,593.61,278.7Z"/><path class="cls-3" d="M593.61,264v1.31a70,70,0,0,0,12.84-4.75v-1.42A68.62,68.62,0,0,1,593.61,264Z"/><path class="cls-3" d="M546.42,259.81v1.38a69.68,69.68,0,0,0,11.43,4.11V264A69,69,0,0,1,546.42,259.81Z"/><path class="cls-3" d="M593.61,252.81v1.33a59.47,59.47,0,0,0,12.84-5.78v-1.48A58.11,58.11,0,0,1,593.61,252.81Z"/><path class="cls-3" d="M546.42,247.71v1.45a59.12,59.12,0,0,0,11.43,5v-1.33A57.82,57.82,0,0,1,546.42,247.71Z"/><path class="cls-3" d="M593.61,241.4v1.36a49.49,49.49,0,0,0,12.84-7.45v-1.63A47.92,47.92,0,0,1,593.61,241.4Z"/><path class="cls-3" d="M546.42,234.8v1.6a48.9,48.9,0,0,0,11.43,6.36V241.4A47.55,47.55,0,0,1,546.42,234.8Z"/><path class="cls-3" d="M546.42,225.21V227a41.89,41.89,0,0,0,11.43,8v-1.4A41,41,0,0,1,546.42,225.21Z"/><path class="cls-3" d="M593.61,233.58V235a42,42,0,0,0,12.84-9.41v-1.9A41,41,0,0,1,593.61,233.58Z"/><path class="cls-2" d="M546.42,213.29v2.45a35,35,0,0,0,11.43,11.14v-1.49A33.75,33.75,0,0,1,546.42,213.29Z"/><path class="cls-2" d="M593.61,225.39v1.49a35.05,35.05,0,0,0,12.84-13.52v-2.89A33.7,33.7,0,0,1,593.61,225.39Z"/><rect class="cls-2" x="884.93" y="160.28" width="18.12" height="1.26"/><rect class="cls-3" x="1095.9" y="208.84" width="7.79" height="1.26"/><rect class="cls-2" x="849.17" y="231.8" width="18.12" height="1.26"/><path class="cls-3" d="M1039.93,250.05l-.59-.19,0-.08-.08-.06-.15-.09a3,3,0,0,1-.4-.18,2.25,2.25,0,0,0-.46-.2,26.79,26.79,0,0,0-5.08-1.27,81.25,81.25,0,0,0-12.26-.89h-.52l.14-11.1h.51a109.5,109.5,0,0,1,11.51.69l3.9.62,2,.42a26.86,26.86,0,0,1,6.17,2.28l.45.25-2.13,3.81-.44-.23a28.89,28.89,0,0,0-8.94-2.58,83.2,83.2,0,0,0-8.91-.8l-.08,2.35a79.48,79.48,0,0,1,10.12,1,29.35,29.35,0,0,1,4.88,1.28l1.07.44a5.59,5.59,0,0,1,1,.52,3.36,3.36,0,0,1,.8.56l7.61-5.07a12.47,12.47,0,0,0-.93-1.08,8.88,8.88,0,0,0-1-.93l-.88-.69-.54-.35c-.38-.23-.78-.48-1.17-.69l-.37-.18c-.59-.29-1.19-.58-1.76-.8L1041,236c-1.18-.33-2.4-.67-3.51-.87-1.28-.28-2.5-.46-3.75-.63a112.58,112.58,0,0,0-14.3-.86v-1a113.58,113.58,0,0,1,14.43.86c1.27.18,2.51.36,3.81.65,1.14.2,2.38.55,3.58.89l.36.1,2.12.76c.6.23,1.23.54,1.85.83l.39.2c.43.24.84.49,1.24.73l.59.38.93.73a9.12,9.12,0,0,1,1.09,1,11.77,11.77,0,0,1,1.36,1.68l.27.42-9.18,6.11-.3-.33a2.78,2.78,0,0,0-.87-.7,5.56,5.56,0,0,0-.84-.44l-.8-.35,0,.6V247a1.71,1.71,0,0,0,0,.31l.08.52c0,.1.06.21.1.33l.1.28a2.59,2.59,0,0,0,.3.53l.1.13.17.11.1.46Zm-18.53-4a82.54,82.54,0,0,1,11.92.91,26.9,26.9,0,0,1,5.25,1.32h0a3,3,0,0,1-.08-.32l-.1-.58a3.22,3.22,0,0,1,0-.43v-.36a3.94,3.94,0,0,1,0-.6l1,.08-.21-.07a27.78,27.78,0,0,0-4.71-1.23,80.21,80.21,0,0,0-10.48-1l-.5,0,.15-4.38.52,0a88.93,88.93,0,0,1,9.53.84,30.68,30.68,0,0,1,8.81,2.46l1.15-2a26.13,26.13,0,0,0-5.48-2c-.64-.15-1.3-.28-2-.41l-1-.19-2.87-.42a105.18,105.18,0,0,0-10.88-.68Z"/><path class="cls-3" d="M998.91,250.25l-.39-.32-.31-.36.33-.34.1-.12.09-.15a1.33,1.33,0,0,0,.17-.3,3.25,3.25,0,0,0,.21-.6,3.74,3.74,0,0,0,.12-.6c0-.15,0-.32,0-.47v-.25h1V247a3.36,3.36,0,0,1,0,.57,4.75,4.75,0,0,1-.13.72l0,.1.09,0a27.9,27.9,0,0,1,5.25-1.36,79.69,79.69,0,0,1,12-.93l-.1-9.07a101.27,101.27,0,0,0-10.91.69l-3.83.63c-.65.13-1.3.26-1.95.42a26,26,0,0,0-5.45,2l1.15,2a30.63,30.63,0,0,1,8.8-2.51,84.28,84.28,0,0,1,9.53-.85l.52,0,.15,4.38-.5,0a77.33,77.33,0,0,0-10.47,1,27,27,0,0,0-4.68,1.24,7.18,7.18,0,0,0-.9.38l-1,.51a3.29,3.29,0,0,0-1,.77l-.3.38-9-6.52.32-.41a14.94,14.94,0,0,1,5-4.17c.8-.42,1.53-.75,2.26-1.07l2.48-.87a36.26,36.26,0,0,1,3.62-.92l.61-.13,1.31-.26,1.87-.27a108.12,108.12,0,0,1,14.48-.88v1a109,109,0,0,0-14.34.87l-1.86.28-1.27.24-.62.13c-1.13.21-2.35.56-3.53.9l-.35.1-2,.74c-.69.3-1.39.62-2.12,1a14.36,14.36,0,0,0-4.36,3.51l7.38,5.35a5.26,5.26,0,0,1,.94-.67l.39-.24.55-.25a7.43,7.43,0,0,1,1.1-.46,28.28,28.28,0,0,1,4.83-1.29,78.13,78.13,0,0,1,10.11-1l-.08-2.34a79.5,79.5,0,0,0-8.91.81,28.52,28.52,0,0,0-8.92,2.63l-.44.24-2.14-3.81.45-.25a26.18,26.18,0,0,1,6.13-2.3c.68-.17,1.34-.3,2-.44l1-.19,2.94-.45a103,103,0,0,1,11.54-.7h.5l.13,11.1h-.52a78.72,78.72,0,0,0-12.29.92,27.88,27.88,0,0,0-5,1.29l-.89.4a1.93,1.93,0,0,1-.26.17l-.13.08Z"/><path class="cls-3" d="M974.84,231.08l-6.67-8.84.35-.31a3.91,3.91,0,0,0,.78-1.09,3.82,3.82,0,0,0,.32-.64l.16-.39a4.08,4.08,0,0,0,.19-.42l-.49,0a4.4,4.4,0,0,0-.47,0l-.21,0a5.14,5.14,0,0,0-.53.1,2,2,0,0,0-.39.14,1.09,1.09,0,0,0-.26.1,1.39,1.39,0,0,0-.21.11l-.2.11-.14.12-.1.1-.14,0a.26.26,0,0,0,.16-.09l-.07.05-.13-.2-.71-.26.17-.32a8.77,8.77,0,0,0,.69-1.56,21.19,21.19,0,0,0,.63-2.17l.27-1.28c.14-.72.29-1.43.39-2.19a97,97,0,0,0,.89-13.31v-.51l11.1.13v.5c0,3.93-.23,8-.66,12.24A40.63,40.63,0,0,1,976.38,224l-.22.48-3.91-2,.2-.45a33.59,33.59,0,0,0,2.53-9.66c.45-3.05.62-6,.79-9.58l-2.35-.07a95.57,95.57,0,0,1-1,10.93,35.29,35.29,0,0,1-1.28,5.32l0,.15a9.54,9.54,0,0,1-.41,1.07q-.08.15-.15.33a4.46,4.46,0,0,1-.37.76,4.69,4.69,0,0,1-.66,1l5.51,7.29a12.11,12.11,0,0,0,2.14-2.38,7.67,7.67,0,0,0,.64-1l.34-.6a7.28,7.28,0,0,0,.43-.82,30.46,30.46,0,0,0,1.65-4.41c.34-1.31.7-2.72.92-4s.41-2.36.55-3.48l.07-.47a132.11,132.11,0,0,0,.83-15.16h1a132.34,132.34,0,0,1-.84,15.28l-.06.48c-.15,1.14-.31,2.31-.56,3.52s-.59,2.79-.95,4.14a30.2,30.2,0,0,1-1.69,4.55,9.27,9.27,0,0,1-.48.92l-.34.59a9.64,9.64,0,0,1-.7,1.09,12.86,12.86,0,0,1-2.75,2.89Zm-1.26-9,2.1,1a41,41,0,0,0,2.87-12c.4-4,.63-7.89.65-11.63l-9.07-.1a96.57,96.57,0,0,1-.9,12.93c-.1.77-.25,1.51-.39,2.25l-.29,1.33a20.89,20.89,0,0,1-.66,2.26,3,3,0,0,1-.15.42l.29-.08a6.24,6.24,0,0,1,.64-.13l.21,0a2.56,2.56,0,0,1,.45,0h.18l.71,0,0,.32a35,35,0,0,0,1.23-5.16,97.72,97.72,0,0,0,1-11.3l0-.5,4.38.14,0,.52a101.6,101.6,0,0,1-.81,10.18A36.36,36.36,0,0,1,973.58,222.08Z"/><path class="cls-3" d="M982.6,197.3a125.84,125.84,0,0,0-.85-15.2c-.19-1.44-.35-2.64-.62-3.93s-.54-2.47-.86-3.7l-.1-.39-.71-2.13c-.19-.54-.45-1.12-.7-1.7l-.4-.82a14.44,14.44,0,0,0-3.21-4.34l-5.75,7.06a1.18,1.18,0,0,1,.2.27l.25.33.29.54a7.16,7.16,0,0,1,.47,1l0,.12a9.47,9.47,0,0,1,.46,1.22,35.11,35.11,0,0,1,1.29,5.28,89.8,89.8,0,0,1,1,10.92l2.34-.08a93.75,93.75,0,0,0-.8-9.57,33.56,33.56,0,0,0-2.58-9.64l-.22-.45,3.91-2,.23.48a40.8,40.8,0,0,1,3.24,12.74,122.35,122.35,0,0,1,.68,12.26v.51l-11.1.11v-.51a93.16,93.16,0,0,0-.91-13.32,32.15,32.15,0,0,0-1.33-5.62,4.66,4.66,0,0,0-.24-.6c-.07-.16-.14-.31-.2-.48a.64.64,0,0,0-.08-.14c0-.06-.07-.13-.11-.2l0-.1a1.76,1.76,0,0,1-.15-.23.51.51,0,0,1-.1-.21l-.1-.46.84-.26.25.37c.16.1.3.2.39.24l.33.15a2.26,2.26,0,0,0,.31.1,4.68,4.68,0,0,0,.67.15l.45,0h.37a.55.55,0,0,1,.46.26l.14.27-.16.25c-.18.27-.44.25-.88.22l-.51-.05a4.81,4.81,0,0,1-.81-.18l-.06,0a4.55,4.55,0,0,1,.2.53,33,33,0,0,1,1.38,5.79,94.61,94.61,0,0,1,.92,13l9.07-.1c0-3.88-.26-7.8-.67-11.64a40.39,40.39,0,0,0-2.94-12l-2.09,1.06A35.32,35.32,0,0,1,976,182a99,99,0,0,1,.83,10.19l0,.51-4.38.14,0-.5a94,94,0,0,0-1-11.29,33.44,33.44,0,0,0-1.26-5.13,6.57,6.57,0,0,0-.42-1.12l-.06-.14a5.68,5.68,0,0,0-.4-.85l-.52-.82a.67.67,0,0,0-.18-.23l-.09-.11-.76-.2.61-.58,6.7-8.23.4.34a15.31,15.31,0,0,1,3.83,5l.43.89c.26.6.53,1.21.73,1.78l.83,2.59c.33,1.25.67,2.54.87,3.77.3,1.41.49,2.84.64,4a126.05,126.05,0,0,1,.85,15.32Z"/><path class="cls-3" d="M1018.91,161.51a133.66,133.66,0,0,1-15.31-.84l-.47-.06c-1.15-.15-2.33-.3-3.54-.56-1.37-.22-2.86-.6-4.14-.94a32.1,32.1,0,0,1-4.55-1.69c-.27-.11-.59-.3-.92-.48l-.61-.35a9.39,9.39,0,0,1-1.08-.69,13.25,13.25,0,0,1-2.9-2.74l-.31-.41,8.83-6.68.31.35a6.32,6.32,0,0,0,1.74,1.1l.38.17a4.08,4.08,0,0,0,.42.17l0-.48a2,2,0,0,0,0-.47l0-.22c0-.27-.06-.36-.1-.52s-.1-.29-.14-.4l-.1-.26-.12-.21-.11-.2a.68.68,0,0,0-.12-.13l-.11-.11,0-.14a.27.27,0,0,0,.1.17l0-.07a.32.32,0,0,0,.12.11l.34-1,.17.05.09.1a9.6,9.6,0,0,0,1.63.72,20.35,20.35,0,0,0,2.16.62l1.32.29c.71.14,1.42.28,2.17.38a97.44,97.44,0,0,0,13.34.89h.51l-.12,11.11h-.51c-3.93,0-8.06-.23-12.26-.66a41,41,0,0,1-12.79-3.17l-.48-.22,2-3.92.45.21a34.11,34.11,0,0,0,9.68,2.52c3.06.45,6,.62,9.59.79l.08-2.35a95.7,95.7,0,0,1-10.95-1,36.49,36.49,0,0,1-5.34-1.27L997,149a7.78,7.78,0,0,1-1.06-.4l-.34-.15a4.86,4.86,0,0,1-.76-.37,5.25,5.25,0,0,1-1-.66l-7.28,5.51a11.88,11.88,0,0,0,2.38,2.15,7.85,7.85,0,0,0,1,.63l.62.35a7.28,7.28,0,0,0,.82.43,31.51,31.51,0,0,0,4.41,1.64c1.25.33,2.7.7,4.06.92,1.19.25,2.36.41,3.48.56l.47.06a135.78,135.78,0,0,0,15.19.83ZM993,153.58a41.1,41.1,0,0,0,12,2.87c4,.4,7.9.63,11.65.66l.1-9.08a97.17,97.17,0,0,1-13-.9c-.77-.1-1.5-.24-2.23-.39l-1.37-.29a23.27,23.27,0,0,1-2.25-.65l-.44-.16a1.4,1.4,0,0,1,.09.29c0,.17.06.28.12.6l0,.25a4.16,4.16,0,0,1,0,.45h0v.18c0,.17,0,.4,0,.71l-.29,0a34.71,34.71,0,0,0,5.16,1.23,98.22,98.22,0,0,0,11.33,1l.5,0-.15,4.38-.51,0a102.23,102.23,0,0,1-10.21-.81,36.73,36.73,0,0,1-9.51-2.41Z"/><path class="cls-3" d="M1018.92,161.51v-1a126.27,126.27,0,0,0,15.22-.85c1.21-.16,2.57-.34,3.94-.62,1.21-.2,2.5-.54,3.74-.86l.35-.1,2.14-.7c.54-.2,1.12-.45,1.69-.71l.53-.23c.31-.15.65-.34,1-.53l.78-.44.49-.34.12-.08a12.78,12.78,0,0,0,2.27-2l-7.05-5.77a1.06,1.06,0,0,1-.28.2l-.33.25-.54.29a6,6,0,0,1-1,.46l-.14.06a9.26,9.26,0,0,1-1.22.46,34.35,34.35,0,0,1-5.29,1.29,89.94,89.94,0,0,1-10.94,1l.08,2.34a94.6,94.6,0,0,0,9.59-.8,33.78,33.78,0,0,0,9.66-2.58l.45-.21,2,3.91-.47.22a40.69,40.69,0,0,1-12.77,3.24,122.42,122.42,0,0,1-12.28.68h-.51L1020,147h.51a93.6,93.6,0,0,0,13.35-.91,32.38,32.38,0,0,0,5.64-1.33,4.66,4.66,0,0,0,.6-.24c.16-.07.31-.14.48-.2a.47.47,0,0,0,.14-.08l.21-.11.11-.06v0l0,0a.9.9,0,0,1,.19-.15.67.67,0,0,1,.23-.1l.45-.08.25.83-.37.24c-.11.18-.2.31-.24.39l-.15.33a3,3,0,0,0-.1.32,3.63,3.63,0,0,0-.15.67s0,.29,0,.44,0,.35,0,.38h0a.53.53,0,0,1-.26.46l-.26.14-.25-.16c-.28-.18-.26-.46-.22-.88,0-.17,0-.51,0-.51a4.72,4.72,0,0,1,.18-.82l0-.05a5.58,5.58,0,0,1-.54.2,33.21,33.21,0,0,1-5.81,1.37,91.8,91.8,0,0,1-13,.93l.1,9.07c3.9,0,7.82-.26,11.67-.67a40.73,40.73,0,0,0,12-2.93l-1.06-2.1a35.48,35.48,0,0,1-9.49,2.47,99.59,99.59,0,0,1-10.21.83l-.51,0-.15-4.38.51,0a92.29,92.29,0,0,0,11.31-1,33.11,33.11,0,0,0,5.15-1.26,8.3,8.3,0,0,0,1.12-.42l.16-.07a5.85,5.85,0,0,0,.83-.39l.83-.52a.79.79,0,0,0,.23-.18l.1-.09.21-.75.58.6,8.21,6.7-.33.4a13.06,13.06,0,0,1-2.81,2.54l-.12.09c-.18.13-.37.26-.55.37l-.81.46c-.35.19-.71.39-1,.56l-.54.24c-.6.27-1.21.53-1.78.74l-2.56.82c-1.27.33-2.58.67-3.81.88-1.39.29-2.77.47-4,.63A126.37,126.37,0,0,1,1018.92,161.51Z"/><path class="cls-3" d="M1055.71,196.82h-1a128.3,128.3,0,0,1,.85-15.16l0-.35c.16-1.17.32-2.38.58-3.63s.58-2.68,1-4.11c.15-.53.34-1.08.52-1.62l.2-.57a14.14,14.14,0,0,1,.71-1.71l.26-.6a9.61,9.61,0,0,1,.5-.93l.31-.54a8.61,8.61,0,0,1,.74-1.13,12.49,12.49,0,0,1,2.76-2.87l.41-.31,6.59,8.89-.35.31a3.8,3.8,0,0,0-.76,1.05,4,4,0,0,0-.33.65c0,.12-.1.24-.16.36s-.13.31-.2.48l.49,0h.29l.36,0c.29-.05.39-.06.55-.1a3.56,3.56,0,0,0,.39-.13l.26-.1.2-.11.16-.09a.56.56,0,0,0,.18-.14l.18-.12-.09.06.08-.05.13.19.71.26-.16.3a8,8,0,0,0-.68,1.54,28.86,28.86,0,0,0-1.29,5.56,94.45,94.45,0,0,0-.89,13.15v.51l-11.1-.13v-.5c0-3.89.24-8,.67-12.14a39.86,39.86,0,0,1,3.2-12.66l.22-.48,3.9,2-.21.45a33.05,33.05,0,0,0-2.53,9.55c-.48,3.23-.65,6.53-.79,9.48l2.35.08a93.18,93.18,0,0,1,1-10.81,34.24,34.24,0,0,1,1.28-5.26,7.54,7.54,0,0,1,.45-1.2c0-.1.09-.2.14-.31a4.6,4.6,0,0,1,.38-.77,4.82,4.82,0,0,1,.64-1l-5.44-7.34a11.66,11.66,0,0,0-2.16,2.35,8.1,8.1,0,0,0-.67,1l-.31.54a6.87,6.87,0,0,0-.45.83l-.27.61a16.87,16.87,0,0,0-.67,1.61l-.2.58c-.18.52-.36,1-.51,1.56-.37,1.39-.72,2.75-.93,4s-.42,2.42-.57,3.57l0,.35A130.1,130.1,0,0,0,1055.71,196.82Zm3.39-2.22,9.07.11a95.8,95.8,0,0,1,.9-12.79,30.24,30.24,0,0,1,1.34-5.75c0-.13.09-.25.13-.37l-.29.08a5.7,5.7,0,0,1-.64.13l-.48,0h-.38c-.23,0-.45,0-.67,0l0-.37a33.88,33.88,0,0,0-1.23,5.08,95.94,95.94,0,0,0-1,11.18l0,.51-4.38-.15,0-.51c.15-3.11.31-6.63.82-10.09a35.21,35.21,0,0,1,2.42-9.4l-2.09-1.06a39.66,39.66,0,0,0-2.89,11.87C1059.35,187,1059.13,190.89,1059.1,194.6Z"/><path class="cls-3" d="M1063.33,230.22l-.39-.33a15.29,15.29,0,0,1-3.87-5l-.41-.84c-.27-.6-.54-1.21-.76-1.79l-.87-2.7c-.31-1.2-.64-2.45-.84-3.62s-.46-2.58-.64-4a126.39,126.39,0,0,1-.86-15.2h1a121.89,121.89,0,0,0,.85,15.07c.18,1.37.35,2.6.63,3.91.19,1.15.51,2.37.83,3.55l.13.5.71,2.12c.2.55.47,1.14.72,1.71l.38.77a14.34,14.34,0,0,0,3.24,4.33l5.7-7.11a4.89,4.89,0,0,1-.74-1.13,6.06,6.06,0,0,1-.5-1,9.93,9.93,0,0,1-.47-1.22,34.5,34.5,0,0,1-1.29-5.21,88.23,88.23,0,0,1-1-10.81l-2.35.08a91.75,91.75,0,0,0,.81,9.47,32.39,32.39,0,0,0,2.59,9.54l.21.45-3.89,2-.23-.47a39.71,39.71,0,0,1-3.26-12.64,120.37,120.37,0,0,1-.68-12.16V198l11.1-.11v.51a92.43,92.43,0,0,0,.91,13.17,31,31,0,0,0,1.33,5.53,4.46,4.46,0,0,0,.24.59c.07.15.13.3.2.47a.42.42,0,0,0,.07.13,1.28,1.28,0,0,1,.11.2l.15.24.27.37-.28.39-.34.31-.61-.51a1.11,1.11,0,0,0-.29-.17l-.13-.06a2.78,2.78,0,0,0-.48-.18,3.64,3.64,0,0,0-.68-.15l-.47,0h-.33a.53.53,0,0,1-.46-.26l-.14-.27.16-.25c.18-.27.43-.25.85-.22l.51.05a4.83,4.83,0,0,1,.81.17l.06,0c-.06-.14-.12-.29-.18-.47a31.7,31.7,0,0,1-1.37-5.71,90.71,90.71,0,0,1-.92-12.82l-9.07.1c0,3.85.26,7.73.67,11.54a39.71,39.71,0,0,0,3,11.85l2.08-1.07a35.26,35.26,0,0,1-2.47-9.39,96.71,96.71,0,0,1-.83-10.09l0-.51,4.38-.14,0,.5a90.08,90.08,0,0,0,1,11.17,33.84,33.84,0,0,0,1.25,5.07,9.34,9.34,0,0,0,.43,1.1,7.49,7.49,0,0,0,.46,1,4.19,4.19,0,0,0,.89,1.22l.33.33Z"/><circle class="cls-3" cx="1160.03" cy="197.23" r="3.68"/><path class="cls-3" d="M1101.73,189.09v16.19h-3.52V195.15a5.06,5.06,0,0,1-.73.86,10.67,10.67,0,0,0-2-2.64.38.38,0,0,1,0-.52,28.74,28.74,0,0,0,4.7-9.08.47.47,0,0,1,.59-.32l2.8.79c.17,0,.55.14.55.45s-.29.34-.67.46c-.24.54-1.46,3.47-1.68,3.94"/><path class="cls-3" d="M873.35,160.91a15.13,15.13,0,0,0-9.4-14v1.38a13.82,13.82,0,0,1,0,25.2v1.38A15.13,15.13,0,0,0,873.35,160.91Z"/><path class="cls-3" d="M852.52,148.31v-1.38a15.24,15.24,0,0,0-8.35,8.44h1.38A13.91,13.91,0,0,1,852.52,148.31Z"/><path class="cls-3" d="M845.55,166.45h-1.38a15.24,15.24,0,0,0,8.35,8.44v-1.38A13.91,13.91,0,0,1,845.55,166.45Z"/><path class="cls-3" d="M944.87,160.91a15.13,15.13,0,0,0-9.39-14v1.38a13.83,13.83,0,0,1,0,25.2v1.38A15.13,15.13,0,0,0,944.87,160.91Z"/><path class="cls-3" d="M924,148.31v-1.38a15.19,15.19,0,0,0-8.34,8.44h1.37A14,14,0,0,1,924,148.31Z"/><path class="cls-3" d="M917.07,166.45H915.7a15.19,15.19,0,0,0,8.34,8.44v-1.38A14,14,0,0,1,917.07,166.45Z"/><path class="cls-3" d="M837.54,232.43a15.13,15.13,0,0,0-9.4-14v1.38a13.82,13.82,0,0,1,0,25.2v1.38A15.13,15.13,0,0,0,837.54,232.43Z"/><path class="cls-3" d="M816.71,219.83v-1.38a15.24,15.24,0,0,0-8.35,8.44h1.38A13.91,13.91,0,0,1,816.71,219.83Z"/><path class="cls-3" d="M809.74,238h-1.38a15.24,15.24,0,0,0,8.35,8.44V245A13.91,13.91,0,0,1,809.74,238Z"/><path class="cls-3" d="M909.16,232.46a15.13,15.13,0,0,0-9.4-14v1.38a13.82,13.82,0,0,1,0,25.2v1.38A15.13,15.13,0,0,0,909.16,232.46Z"/><path class="cls-3" d="M888.33,219.86v-1.38a15.24,15.24,0,0,0-8.35,8.44h1.38A13.91,13.91,0,0,1,888.33,219.86Z"/><path class="cls-3" d="M881.36,238H880a15.24,15.24,0,0,0,8.35,8.44v-1.38A13.91,13.91,0,0,1,881.36,238Z"/></g></g></svg>