<svg width="91" height="91" viewBox="0 0 91 91" fill="none" xmlns="http://www.w3.org/2000/svg">
<g filter="url(#filter0_i)">
<path d="M32.87 78.39C31.08 80.17 31.08 81.66 32.87 83.39L25.29 91L0 65.74L7.59 58.16C9.37 59.95 10.86 59.95 12.64 58.16L58.16 12.64C59.95 10.86 59.95 9.37 58.16 7.59L65.74 0L91 25.29L83.41 32.87C81.63 31.08 80.14 31.08 78.41 32.87L32.87 78.39Z" fill="#CACACA"/>
<path d="M40.1214 53.6065C40.8087 52.9192 40.7549 51.751 40.0012 50.9973C39.2475 50.2436 38.0793 50.1898 37.392 50.8771C36.7046 51.5644 36.7585 52.7326 37.5122 53.4863C38.2659 54.24 39.4341 54.2938 40.1214 53.6065Z" fill="#EE8948"/>
<path d="M38.9107 59.087C39.598 58.3997 39.5442 57.2315 38.7905 56.4778C38.0368 55.724 36.8686 55.6702 36.1813 56.3575C35.494 57.0449 35.5478 58.2131 36.3015 58.9668C37.0552 59.7205 38.2234 59.7743 38.9107 59.087Z" fill="#EE8948"/>
<path d="M34.6998 54.8741C35.3871 54.1868 35.3333 53.0186 34.5796 52.2649C33.8258 51.5111 32.6577 51.4573 31.9703 52.1447C31.283 52.832 31.3368 54.0002 32.0905 54.7539C32.8443 55.5076 34.0124 55.5614 34.6998 54.8741Z" fill="#EE8948"/>
<path d="M10.16 63.4299H9.31002H9.11002C8.68686 63.4369 8.26425 63.3966 7.85002 63.3099L7.62002 63.2499L4.77002 66.0499L25 86.2799L27.84 83.4399C27.8447 83.4101 27.8447 83.3797 27.84 83.3499C27.7456 82.9302 27.7086 82.4996 27.73 82.0699C27.6859 81.8319 27.6558 81.5915 27.64 81.3499C27.5982 79.934 28.0587 78.5489 28.94 77.4399L13.63 62.1399C12.6311 62.9121 11.4208 63.3621 10.16 63.4299V63.4299Z" fill="#EE8948"/>
<path d="M54.2532 39.6055C54.9406 38.9182 54.8867 37.75 54.133 36.9963C53.3793 36.2426 52.2111 36.1888 51.5238 36.8761C50.8365 37.5634 50.8903 38.7316 51.644 39.4853C52.3977 40.239 53.5659 40.2929 54.2532 39.6055Z" fill="#EE8948"/>
<path d="M55.4639 34.1251C56.1513 33.4377 56.0974 32.2695 55.3437 31.5158C54.59 30.7621 53.4218 30.7083 52.7345 31.3956C52.0472 32.083 52.101 33.2511 52.8547 34.0049C53.6084 34.7586 54.7766 34.8124 55.4639 34.1251Z" fill="#EE8948"/>
<path d="M59.6849 38.338C60.3722 37.6506 60.3184 36.4824 59.5647 35.7287C58.811 34.975 57.6428 34.9212 56.9554 35.6085C56.2681 36.2958 56.3219 37.464 57.0757 38.2177C57.8294 38.9715 58.9976 39.0253 59.6849 38.338Z" fill="#EE8948"/>
<path d="M81.49 27.06C81.7729 27.0402 82.057 27.0402 82.34 27.06H82.54C82.9629 27.0431 83.3863 27.0801 83.8 27.17L84.03 27.2299L86.88 24.3899L66.65 4.19995L63.81 6.99995C63.8053 7.02977 63.8053 7.06013 63.81 7.08995C63.9093 7.50889 63.9464 7.9402 63.92 8.36995C63.9641 8.60797 63.9941 8.84839 64.01 9.08995C64.0542 10.5093 63.5935 11.8983 62.71 13.01L78 28.34C79.0034 27.5635 80.2224 27.1164 81.49 27.06V27.06Z" fill="#EE8948"/>
</g>
<defs>
<filter id="filter0_i" x="0" y="0" width="91" height="91" filterUnits="userSpaceOnUse" color-interpolation-filters="sRGB">
<feFlood flood-opacity="0" result="BackgroundImageFix"/>
<feBlend mode="normal" in="SourceGraphic" in2="BackgroundImageFix" result="shape"/>
<feColorMatrix in="SourceAlpha" type="matrix" values="0 0 0 0 0 0 0 0 0 0 0 0 0 0 0 0 0 0 127 0" result="hardAlpha"/>
<feOffset/>
<feGaussianBlur stdDeviation="5"/>
<feComposite in2="hardAlpha" operator="arithmetic" k2="-1" k3="1"/>
<feColorMatrix type="matrix" values="0 0 0 0 0.933333 0 0 0 0 0.537255 0 0 0 0 0.282353 0 0 0 1 0"/>
<feBlend mode="normal" in2="shape" result="effect1_innerShadow"/>
</filter>
</defs>
</svg>
