<svg xmlns="http://www.w3.org/2000/svg" viewBox="0 0 91.03 91.03"><defs><style>.cls-1{fill:#cacaca;}.cls-2{fill:#ee8948;}</style></defs><title>資產 48</title><g id="圖層_2" data-name="圖層 2"><g id="圖層_1-2" data-name="圖層 1"><path class="cls-1" d="M32.87,78.39c-1.79,1.78-1.79,3.27,0,5L25.29,91,0,65.74l7.59-7.58c1.78,1.79,3.27,1.79,5.05,0L58.16,12.64c1.79-1.78,1.79-3.27,0-5.05L65.74,0,91,25.29l-7.59,7.58c-1.78-1.79-3.27-1.79-5,0Z"/><ellipse class="cls-2" cx="38.76" cy="52.24" rx="1.76" ry="1.93" transform="translate(-25.59 42.71) rotate(-45)"/><ellipse class="cls-2" cx="37.55" cy="57.72" rx="1.76" ry="1.93" transform="translate(-29.82 43.46) rotate(-45)"/><ellipse class="cls-2" cx="33.33" cy="53.51" rx="1.76" ry="1.93" transform="translate(-28.07 39.24) rotate(-45)"/><path class="cls-2" d="M10.16,63.43l-.85,0h-.2a5.69,5.69,0,0,1-1.26-.12l-.23-.06L4.77,66.05,25,86.28l2.84-2.84a.29.29,0,0,0,0-.09,4.75,4.75,0,0,1-.11-1.28,6.16,6.16,0,0,1-.09-.72,6,6,0,0,1,1.3-3.91L13.63,62.14A6.22,6.22,0,0,1,10.16,63.43Z"/><ellipse class="cls-2" cx="52.89" cy="38.24" rx="1.76" ry="1.93" transform="translate(-11.55 48.6) rotate(-45)"/><ellipse class="cls-2" cx="54.1" cy="32.76" rx="1.76" ry="1.93" transform="translate(-7.32 47.85) rotate(-45)"/><ellipse class="cls-2" cx="58.32" cy="36.97" rx="1.76" ry="1.93" transform="translate(-9.06 52.07) rotate(-45)"/><path class="cls-2" d="M81.49,27.06a6.09,6.09,0,0,1,.85,0h.2a5,5,0,0,1,1.26.11l.23.06,2.85-2.84L66.65,4.2,63.81,7a.29.29,0,0,0,0,.09,4.38,4.38,0,0,1,.11,1.28,6.16,6.16,0,0,1,.09.72,6,6,0,0,1-1.3,3.92L78,28.34A6.15,6.15,0,0,1,81.49,27.06Z"/></g></g></svg>