<svg width="37" height="37" viewBox="0 0 37 37" fill="none" xmlns="http://www.w3.org/2000/svg">
<g filter="url(#filter0_i)">
<path d="M3.38997 36.47L33.08 36.47C34.9522 36.47 36.47 34.9522 36.47 33.08L36.47 3.38997C36.47 1.51772 34.9522 -3.06503e-05 33.08 -3.08139e-05L3.38997 -3.34095e-05C1.51773 -3.35732e-05 -2.7462e-05 1.51772 -2.76256e-05 3.38997L-3.02212e-05 33.08C-3.03849e-05 34.9522 1.51772 36.47 3.38997 36.47Z" fill="#CACACA"/>
<path d="M28.68 18.2299C28.7236 23.4645 28.4564 28.697 27.88 33.8999C28.0929 34.1861 28.3645 34.4233 28.6767 34.5958C28.9889 34.7683 29.3344 34.872 29.69 34.8999C30.0408 34.8697 30.3811 34.7649 30.6881 34.5924C30.9951 34.42 31.2617 34.1838 31.47 33.8999C30.8935 28.697 30.6264 23.4645 30.67 18.2299C30.627 12.9954 30.8941 7.76285 31.47 2.5599C31.2575 2.27328 30.986 2.03566 30.6737 1.86312C30.3614 1.69059 30.0157 1.58719 29.66 1.5599C29.3047 1.58909 28.9597 1.69332 28.6477 1.8657C28.3357 2.03808 28.0638 2.27469 27.85 2.5599C28.4359 7.76226 28.713 12.9948 28.68 18.2299V18.2299Z" fill="#EE8948"/>
<path d="M23.4699 17.9499C23.4726 16.3037 24.1277 14.7257 25.2917 13.5617C26.4557 12.3977 28.0338 11.7426 29.6799 11.7399L29.6799 12.7399C28.2982 12.7399 26.973 13.2888 25.9959 14.2659C25.0188 15.2429 24.4699 16.5681 24.4699 17.9499C24.4699 19.3317 25.0188 20.6569 25.9959 21.6339C26.973 22.611 28.2982 23.1599 29.6799 23.1599L29.6799 24.1599C28.0337 24.1573 26.4557 23.5022 25.2917 22.3381C24.1277 21.1741 23.4726 19.5961 23.4699 17.9499V17.9499Z" fill="#EE8948"/>
<path d="M16.5699 11.47L16.5699 12.47L24.7499 12.47C25.2581 12.0668 25.816 11.7307 26.4099 11.47L16.5699 11.47Z" fill="#EE8948"/>
<path d="M10.1699 14.3101L10.1699 15.3101L22.6599 15.3101C22.7997 14.9621 22.9704 14.6275 23.1699 14.3101L10.1699 14.3101Z" fill="#EE8948"/>
<path d="M22.1599 17.47L4.78991 17.47L4.78991 18.47L22.1599 18.47C22.1599 18.3 22.1599 18.14 22.1599 17.97C22.1599 17.8 22.1499 17.61 22.1599 17.47Z" fill="#EE8948"/>
<path d="M24.8601 23.47L16.5701 23.47L16.5701 24.47L26.5701 24.47C25.9555 24.2194 25.3798 23.8827 24.8601 23.47Z" fill="#EE8948"/>
<path d="M10.1699 20.6699L10.1699 21.6699L23.1699 21.6699C22.964 21.3529 22.7866 21.0183 22.6399 20.6699L10.1699 20.6699Z" fill="#EE8948"/>
</g>
<defs>
<filter id="filter0_i" x="0" y="0" width="36.47" height="36.47" filterUnits="userSpaceOnUse" color-interpolation-filters="sRGB">
<feFlood flood-opacity="0" result="BackgroundImageFix"/>
<feBlend mode="normal" in="SourceGraphic" in2="BackgroundImageFix" result="shape"/>
<feColorMatrix in="SourceAlpha" type="matrix" values="0 0 0 0 0 0 0 0 0 0 0 0 0 0 0 0 0 0 127 0" result="hardAlpha"/>
<feOffset/>
<feGaussianBlur stdDeviation="5"/>
<feComposite in2="hardAlpha" operator="arithmetic" k2="-1" k3="1"/>
<feColorMatrix type="matrix" values="0 0 0 0 0.933333 0 0 0 0 0.537255 0 0 0 0 0.282353 0 0 0 1 0"/>
<feBlend mode="normal" in2="shape" result="effect1_innerShadow"/>
</filter>
</defs>
</svg>
