<svg xmlns="http://www.w3.org/2000/svg" viewBox="0 0 36.47 36.47"><defs><style>.cls-1{fill:#cacaca;}.cls-2{fill:#ee8948;}</style></defs><title>資產 94</title><g id="圖層_2" data-name="圖層 2"><g id="圖層_1-2" data-name="圖層 1"><rect class="cls-1" width="36.47" height="36.47" rx="3.39"/><path class="cls-2" d="M7.79,18.24a132.29,132.29,0,0,1,.8-15.67,2.5,2.5,0,0,0-1.81-1A2.47,2.47,0,0,0,5,2.57a132.29,132.29,0,0,1,.8,15.67A132.54,132.54,0,0,1,5,33.91a2.49,2.49,0,0,0,1.81,1,2.52,2.52,0,0,0,1.81-1A132.54,132.54,0,0,1,7.79,18.24Z"/><path class="cls-2" d="M13,18.52a6.22,6.22,0,0,1-6.21,6.21v-1a5.21,5.21,0,0,0,0-10.42v-1A6.22,6.22,0,0,1,13,18.52Z"/><path class="cls-2" d="M19.9,25V24H11.72a7.56,7.56,0,0,1-1.66,1Z"/><path class="cls-2" d="M26.3,22.16v-1H13.81a6.27,6.27,0,0,1-.51,1Z"/><path class="cls-2" d="M14.31,19H31.68V18H14.31c0,.17,0,.33,0,.5S14.32,18.86,14.31,19Z"/><path class="cls-2" d="M11.61,13H19.9V12h-10v0A7,7,0,0,1,11.61,13Z"/><path class="cls-2" d="M26.3,15.8v-1h-13a6.38,6.38,0,0,1,.53,1Z"/></g></g></svg>