<svg width="37" height="37" viewBox="0 0 37 37" fill="none" xmlns="http://www.w3.org/2000/svg">
<g filter="url(#filter0_i)">
<path d="M33.08 0H3.39C1.51775 0 0 1.51775 0 3.39V33.08C0 34.9522 1.51775 36.47 3.39 36.47H33.08C34.9522 36.47 36.47 34.9522 36.47 33.08V3.39C36.47 1.51775 34.9522 0 33.08 0Z" fill="#CACACA"/>
<path d="M7.79 18.2401C7.7464 13.0055 8.01354 7.77297 8.59 2.57007C8.3771 2.28392 8.10543 2.04664 7.79324 1.87416C7.48105 1.70168 7.13557 1.59799 6.78 1.57007C6.42917 1.60024 6.08884 1.70508 5.78184 1.87755C5.47484 2.05002 5.20827 2.28614 5 2.57007C5.57646 7.77297 5.8436 13.0055 5.8 18.2401C5.84301 23.4746 5.57588 28.7071 5 33.9101C5.21244 34.1967 5.484 34.4343 5.79628 34.6068C6.10856 34.7794 6.45427 34.8828 6.81 34.9101C7.16526 34.8809 7.51029 34.7767 7.8223 34.6043C8.1343 34.4319 8.40619 34.1953 8.62 33.9101C8.0341 28.7077 7.75695 23.4752 7.79 18.2401V18.2401Z" fill="#EE8948"/>
<path d="M13 18.5201C12.9974 20.1662 12.3423 21.7442 11.1783 22.9083C10.0142 24.0723 8.43622 24.7274 6.79004 24.7301V23.7301C8.17182 23.7301 9.497 23.1811 10.4741 22.2041C11.4511 21.227 12 19.9018 12 18.5201C12 17.1383 11.4511 15.8131 10.4741 14.836C9.497 13.859 8.17182 13.3101 6.79004 13.3101V12.3101C8.43622 12.3127 10.0142 12.9678 11.1783 14.1318C12.3423 15.2959 12.9974 16.8739 13 18.5201V18.5201Z" fill="#EE8948"/>
<path d="M19.9001 25V24H11.7201C11.2119 24.4032 10.654 24.7393 10.0601 25H19.9001Z" fill="#EE8948"/>
<path d="M26.3 22.1599V21.1599H13.81C13.6703 21.5078 13.4996 21.8425 13.3 22.1599H26.3Z" fill="#EE8948"/>
<path d="M14.3101 19H31.6801V18H14.3101C14.3101 18.17 14.3101 18.33 14.3101 18.5C14.3101 18.67 14.3201 18.86 14.3101 19Z" fill="#EE8948"/>
<path d="M11.6099 13H19.8999V12H9.8999C10.5144 12.2506 11.0902 12.5873 11.6099 13Z" fill="#EE8948"/>
<path d="M26.3 15.8V14.8H13.3C13.506 15.117 13.6834 15.4517 13.83 15.8H26.3Z" fill="#EE8948"/>
</g>
<defs>
<filter id="filter0_i" x="0" y="0" width="36.47" height="36.47" filterUnits="userSpaceOnUse" color-interpolation-filters="sRGB">
<feFlood flood-opacity="0" result="BackgroundImageFix"/>
<feBlend mode="normal" in="SourceGraphic" in2="BackgroundImageFix" result="shape"/>
<feColorMatrix in="SourceAlpha" type="matrix" values="0 0 0 0 0 0 0 0 0 0 0 0 0 0 0 0 0 0 127 0" result="hardAlpha"/>
<feOffset/>
<feGaussianBlur stdDeviation="5"/>
<feComposite in2="hardAlpha" operator="arithmetic" k2="-1" k3="1"/>
<feColorMatrix type="matrix" values="0 0 0 0 0.933333 0 0 0 0 0.537255 0 0 0 0 0.282353 0 0 0 1 0"/>
<feBlend mode="normal" in2="shape" result="effect1_innerShadow"/>
</filter>
</defs>
</svg>
