<svg xmlns="http://www.w3.org/2000/svg" viewBox="0 0 36.47 36.47"><defs><style>.cls-1{fill:#cacaca;}.cls-2{fill:#ee8948;}</style></defs><title>資產 95</title><g id="圖層_2" data-name="圖層 2"><g id="圖層_1-2" data-name="圖層 1"><rect class="cls-1" width="36.47" height="36.47" rx="3.39" transform="translate(36.47 36.47) rotate(180)"/><path class="cls-2" d="M28.69,18.24a132.54,132.54,0,0,1-.8,15.67,2.49,2.49,0,0,0,1.81,1,2.52,2.52,0,0,0,1.81-1,132.54,132.54,0,0,1-.8-15.67,132.29,132.29,0,0,1,.8-15.67,2.5,2.5,0,0,0-1.81-1,2.47,2.47,0,0,0-1.81,1A132.29,132.29,0,0,1,28.69,18.24Z"/><path class="cls-2" d="M14.68,21.26l.89-.46a5.21,5.21,0,1,0,4.64-7.58v-1a6.21,6.21,0,1,1-5.53,9Z"/><path class="cls-2" d="M14.63,25.72v-14a1.77,1.77,0,0,1,3.54,0v7.36a.77.77,0,1,0,1.54,0V9.57h1v9.51a1.77,1.77,0,0,1-3.54,0V11.72a.77.77,0,1,0-1.54,0v14Z"/></g></g></svg>