<svg width="841" height="404" viewBox="0 0 841 404" fill="none" xmlns="http://www.w3.org/2000/svg">
<g filter="url(#filter0_i)">
<path d="M840.17 135C827.07 135 814.57 135.17 801.97 135.5C800.56 127.22 798.81 118.99 796.62 110.87C794.295 102.108 791.348 93.5224 787.8 85.18C784.253 76.826 779.871 68.8521 774.72 61.38C772.128 57.6599 769.312 54.1001 766.29 50.72C763.259 47.3461 760.016 44.1696 756.58 41.21C754.86 39.7367 753.097 38.3033 751.29 36.91C749.483 35.5167 747.633 34.2133 745.74 33C741.956 30.4934 738.036 28.1966 734 26.12C730 24.04 725.84 22.12 721.64 20.44C719.55 19.57 717.44 18.75 715.31 17.96C713.18 17.17 711.04 16.4 708.91 15.68C706.78 14.96 704.66 14.28 702.54 13.62C697.45 12.06 692.29 10.67 687.1 9.43C679.75 7.68 672.32 6.24 664.85 5.06C657.38 3.88 649.85 2.97 642.34 2.26C638.58 1.9 634.83 1.59 631.04 1.33C627.25 1.07 623.46 0.86 619.73 0.68C616 0.5 612.35 0.37 608.68 0.27C603.21 0.12 597.69 0 592.2 0C583.02 0 573.84 0.1 564.66 0.3C555.48 0.5 546.303 0.803333 537.13 1.21C527.963 1.59 518.793 2.04333 509.62 2.57C491.287 3.61 472.97 4.90333 454.67 6.45C445.517 7.21667 436.373 8.04667 427.24 8.94C418.107 9.83333 408.977 10.7867 399.85 11.8C390.723 12.82 381.607 13.91 372.5 15.07C363.393 16.23 354.297 17.47 345.21 18.79C336.123 20.1233 327.053 21.5567 318 23.09C308.947 24.6233 299.923 26.31 290.93 28.15C272.93 31.84 255.08 36.15 237.51 41.53C228.73 44.1967 220.033 47.13 211.42 50.33C206.01 52.33 200.61 54.48 195.32 56.7C192.2 58.02 189.12 59.36 185.95 60.8C182.78 62.24 179.51 63.8 176.31 65.35C173.11 66.9 169.96 68.53 166.83 70.21C160.55 73.5433 154.417 77.1333 148.43 80.98C142.43 84.82 136.63 88.92 131.04 93.3C128.033 95.6533 125.093 98.0867 122.22 100.6C119.74 102.77 117.33 104.99 114.95 107.29C112.57 109.59 110.25 111.96 107.95 114.39C105.65 116.82 103.49 119.29 101.35 121.83C97.0791 126.91 93.0737 132.207 89.35 137.7C85.63 143.19 82.189 148.864 79.04 154.7C75.8933 160.533 73.03 166.513 70.45 172.64C67.87 178.767 65.6 184.997 63.64 191.33C61.64 197.66 59.99 204.09 58.64 210.57C57.29 217.05 56.15 223.57 55.31 230.19C54.47 236.81 53.87 243.4 53.52 250C53.17 256.6 53.05 263.26 53.14 269.9C53.23 276.54 53.52 283.16 54 289.78C54.48 296.4 55.12 303 55.93 309.59C56.74 316.18 57.71 322.75 58.81 329.29C59.29 332.17 59.81 335.05 60.34 337.93C52.4733 345.043 44.83 352.4 37.41 360C29.41 368.14 21.77 376.51 14.34 385.2C9.41 390.93 4.57 396.86 0 402.73H0.76C5.22 403.05 11 403.39 14.62 403.29C18.4 403.2 18.72 402.65 19.09 402.2L19.63 401.55C23.68 396.64 27.88 391.81 32.12 387.08C38.2533 380.247 44.55 373.58 51.01 367.08C52.29 365.787 53.5733 364.51 54.86 363.25C57.33 360.82 59.8 358.46 62.19 356.2C66.19 352.47 69.94 349.04 73.1 346.2C76.26 343.36 79.39 340.69 82.74 337.84C85 336 87.43 334 90 331.84L92 330.16L95 327.75L96.68 326.39L97.01 326.13C99.61 324.13 102.22 322.08 104.87 320.07C107.52 318.06 110.05 316.18 112.87 314.14C114.543 312.933 116.21 311.727 117.87 310.52C125.31 305.253 132.88 300.173 140.58 295.28C148.28 290.387 156.093 285.7 164.02 281.22C171.94 276.727 179.963 272.427 188.09 268.32C196.217 264.213 204.43 260.293 212.73 256.56C221.043 252.853 229.427 249.3 237.88 245.9C240.09 245.02 242.32 244.17 244.54 243.31C252.78 240.223 261.073 237.283 269.42 234.49C274.58 232.757 279.76 231.09 284.96 229.49C290.16 227.89 295.333 226.313 300.48 224.76C310.94 221.66 321.443 218.73 331.99 215.97L337.27 214.6C354.99 210.033 372.807 205.843 390.72 202.03L396.1 200.89C412.387 197.457 428.72 194.257 445.1 191.29C463.473 187.957 481.887 184.823 500.34 181.89C509.6 180.417 518.867 178.98 528.14 177.58H528.25C537.583 176.173 546.897 174.8 556.19 173.46H556.29C575.017 170.793 593.763 168.257 612.53 165.85C621.923 164.67 631.32 163.537 640.72 162.45C664.293 159.73 687.9 157.397 711.54 155.45C716.293 155.057 721.04 154.687 725.78 154.34C732.66 153.833 739.543 153.367 746.43 152.94C750.83 152.667 755.227 152.42 759.62 152.2L765.95 151.89L769.71 151.71L776.34 151.4L783 151L789.45 150.75C792.04 150.66 795.04 150.56 798.3 150.47L802 150.36C806.63 150.24 811.64 150.13 816.66 150.05C824.047 149.93 831.433 149.867 838.82 149.86H839.32C839.62 149.86 839.99 150.02 840.15 147.29C840.33 144.41 840.25 139.06 840.17 135Z" fill="#183143"/>
</g>
<defs>
<filter id="filter0_i" x="0" y="0" width="840.259" height="403.308" filterUnits="userSpaceOnUse" color-interpolation-filters="sRGB">
<feFlood flood-opacity="0" result="BackgroundImageFix"/>
<feBlend mode="normal" in="SourceGraphic" in2="BackgroundImageFix" result="shape"/>
<feColorMatrix in="SourceAlpha" type="matrix" values="0 0 0 0 0 0 0 0 0 0 0 0 0 0 0 0 0 0 127 0" result="hardAlpha"/>
<feOffset/>
<feGaussianBlur stdDeviation="5"/>
<feComposite in2="hardAlpha" operator="arithmetic" k2="-1" k3="1"/>
<feColorMatrix type="matrix" values="0 0 0 0 0.933333 0 0 0 0 0.537255 0 0 0 0 0.282353 0 0 0 1 0"/>
<feBlend mode="normal" in2="shape" result="effect1_innerShadow"/>
</filter>
</defs>
</svg>
