<svg xmlns="http://www.w3.org/2000/svg" viewBox="0 0 840.26 403.36"><defs><style>.cls-1{fill:#183143;}</style></defs><title>資產 100</title><g id="圖層_2" data-name="圖層 2"><g id="圖層_1-2" data-name="圖層 1"><path class="cls-1" d="M840.17,135c-13.1,0-25.6.17-38.2.5-1.41-8.28-3.16-16.51-5.35-24.63a190.36,190.36,0,0,0-8.82-25.69,134.62,134.62,0,0,0-13.08-23.8,112.41,112.41,0,0,0-8.43-10.66,106.31,106.31,0,0,0-9.71-9.51Q754,39,751.29,36.91T745.74,33A123.93,123.93,0,0,0,734,26.12c-4-2.08-8.16-4-12.36-5.68-2.09-.87-4.2-1.69-6.33-2.48s-4.27-1.56-6.4-2.28-4.25-1.4-6.37-2.06c-5.09-1.56-10.25-2.95-15.44-4.19-7.35-1.75-14.78-3.19-22.25-4.37s-15-2.09-22.51-2.8c-3.76-.36-7.51-.67-11.3-.93S623.46.86,619.73.68,612.35.37,608.68.27C603.21.12,597.69,0,592.2,0Q578.43,0,564.66.3t-27.53.91q-13.75.57-27.51,1.36-27.5,1.56-54.95,3.88-13.73,1.15-27.43,2.49T399.85,11.8q-13.69,1.53-27.35,3.27t-27.29,3.72q-13.63,2-27.21,4.3t-27.07,5.06c-18,3.69-35.85,8-53.42,13.38q-13.17,4-26.09,8.8c-5.41,2-10.81,4.15-16.1,6.37-3.12,1.32-6.2,2.66-9.37,4.1s-6.44,3-9.64,4.55-6.35,3.18-9.48,4.86q-9.42,5-18.4,10.77c-6,3.84-11.8,7.94-17.39,12.32q-4.51,3.53-8.82,7.3c-2.48,2.17-4.89,4.39-7.27,6.69s-4.7,4.67-7,7.1-4.46,4.9-6.6,7.44a192.48,192.48,0,0,0-12,15.87,197.46,197.46,0,0,0-10.31,17q-4.72,8.75-8.59,17.94t-6.81,18.69c-2,6.33-3.65,12.76-5,19.24s-2.49,13-3.33,19.62S53.87,243.4,53.52,250s-.47,13.26-.38,19.9.38,13.26.86,19.88,1.12,13.22,1.93,19.81,1.78,13.16,2.88,19.7c.48,2.88,1,5.76,1.53,8.64Q48.54,348.6,37.41,360c-8,8.14-15.64,16.51-23.07,25.2C9.41,390.93,4.57,396.86,0,402.73H0l.76,0c4.46.32,10.24.66,13.86.56,3.78-.09,4.1-.64,4.47-1.09l.54-.65c4.05-4.91,8.25-9.74,12.49-14.47q9.2-10.25,18.89-20,1.92-1.94,3.85-3.83c2.47-2.43,4.94-4.79,7.33-7.05,4-3.73,7.75-7.16,10.91-10s6.29-5.51,9.64-8.36C85,336,87.43,334,90,331.84l2-1.68L95,327.75l1.68-1.36.33-.26c2.6-2,5.21-4.05,7.86-6.06s5.18-3.89,8-5.93q2.51-1.81,5-3.62,11.16-7.9,22.71-15.24t23.44-14.06q11.88-6.74,24.07-12.9t24.64-11.76Q225.2,251,237.88,245.9c2.21-.88,4.44-1.73,6.66-2.59q12.36-4.63,24.88-8.82,7.74-2.6,15.54-5t15.52-4.73q15.69-4.65,31.51-8.79l5.28-1.37q26.58-6.85,53.45-12.57l5.38-1.14q24.43-5.15,49-9.6,27.56-5,55.24-9.4,13.89-2.21,27.8-4.31l.11,0q14-2.11,27.94-4.12l.1,0q28.09-4,56.24-7.61,14.09-1.77,28.19-3.4,35.36-4.08,70.82-7,7.13-.59,14.24-1.11,10.32-.76,20.65-1.4,6.6-.41,13.19-.74l6.33-.31,3.76-.18,6.63-.31L783,151l6.45-.25c2.59-.09,5.59-.19,8.85-.28l3.7-.11c4.63-.12,9.64-.23,14.66-.31q11.08-.18,22.16-.19h.5c.3,0,.67.16.83-2.57C840.33,144.41,840.25,139.06,840.17,135Z"/></g></g></svg>