<?xml version="1.0" encoding="utf-8"?>
<!-- Generator: Adobe Illustrator 24.2.3, SVG Export Plug-In . SVG Version: 6.00 Build 0)  -->
<svg version="1.1" id="Layer_1" xmlns="http://www.w3.org/2000/svg" xmlns:xlink="http://www.w3.org/1999/xlink" x="0px" y="0px"
	 viewBox="0 0 352 219" style="enable-background:new 0 0 352 219;" xml:space="preserve">
<style type="text/css">
	.st0{clip-path:url(#SVGID_2_);}
	.st1{fill:none;stroke:#D6D2C7;stroke-width:1.3;stroke-miterlimit:10;stroke-dasharray:9.31,9.31;}
	.st2{fill:#D6D2C7;}
</style>
<g>
	<defs>
		<rect id="SVGID_1_" width="351.3" height="218.1"/>
	</defs>
	<clipPath id="SVGID_2_">
		<use xlink:href="#SVGID_1_"  style="overflow:visible;"/>
	</clipPath>
	<g class="st0">
		<path class="st1" d="M350.6,0.6H0.6v216.8h350V0.6z"/>
	</g>
</g>
<path class="st2" d="M23.8,47.1c0,0,0.1,0,0.2,0c0.9-0.2,1.5-0.3,1.8-0.5c0.4-0.3,0.6-0.8,0.6-1.7c0.1-0.6,0.1-2.1,0.1-4.3
	c0-0.3,0-0.7,0-1.2c0-1.2,0-1.9,0-2.3c0-0.4,0.1-0.8,0.2-0.9c0.1-0.1,0.2-0.3,0.5-0.4c0.1-0.1,0.2-0.1,0.3-0.2
	c0.6-0.4,1-0.6,1.2-0.6c0.2,0,0.3,0.1,0.5,0.5c0.1,0.2,0.2,0.3,0.2,0.4c0,0,0.2,0,0.3,0c0.5-0.1,1-0.2,1.5-0.2s0.8,0.1,0.8,0.2
	c0.1,0.2-0.1,0.8-0.5,2c-0.4,1.2-0.9,2.4-1.4,3.5c-0.1,0.3-0.1,0.5,0,0.6c0.2,0.1,0.5,0.1,1.1,0.1c0.4,0,0.6,0,0.7-0.1
	c0.1-0.1,0.2-0.2,0.3-0.5c0.2-0.4,0.3-0.6,0.5-0.6s0.5,0.1,1,0.3c0.9,0.5,1.4,0.8,1.5,1c0.1,0.2-0.1,0.5-0.5,0.9
	c-1.4,1.3-3.3,2.4-5.9,3.2c-0.4,0.1-0.7,0.2-0.8,0.3c-0.1,0.1-0.1,0.1-0.1,0.2c0,0.1,0.1,0.1,0.3,0.1c0.1,0,0.5-0.1,1.1-0.2
	c3-0.6,5.4-1.6,7-2.9c0.4-0.3,0.7-0.4,0.9-0.4c0.3,0.1,0.7,0.5,1.5,1.2c0.7,0.7,1.3,1.3,1.6,1.8c0.2,0.3,0.5,0.5,0.9,0.4
	c0.4,0,0.7-0.2,0.8-0.6c0.2-0.6,0.1-1.3-0.4-2c-0.5-0.8-1.3-1.4-2.4-2.1c-0.4-0.3-0.7-0.5-0.7-0.6c0-0.1,0-0.4,0.2-0.7
	c0.6-1.2,1.1-2.6,1.4-4.4c0.1-0.5,0.2-0.8,0.4-0.9c0.1-0.1,0.5-0.2,1.2-0.2c0.6,0,0.9,0,1.1-0.1c0.2,0,0.2-0.2,0.2-0.3
	c0-0.1-0.3-0.4-0.8-0.9c-0.5-0.5-0.9-0.9-1.3-1.1c-0.2-0.1-0.3-0.2-0.4-0.1c-0.1,0.1-0.3,0.4-0.7,1c0,0,0,0.1-0.1,0.1
	c-0.2,0.3-0.5,0.5-0.6,0.6c-0.2,0-0.7,0.1-1.6,0.1c-0.1,0-0.3,0-0.3,0c-0.1,0-0.2,0-0.3,0c-0.8,0-1.4,0-1.6,0
	c-0.3,0-0.4-0.2-0.5-0.4c0-0.1,0.1-0.5,0.2-1c0-0.1,0.1-0.2,0.1-0.2c0.2-0.5,0.3-0.9,0.4-1.1c0.1-0.2,0.3-0.4,0.4-0.5
	c0.2-0.1,0.3-0.2,0.2-0.3c-0.1-0.1-0.3-0.2-0.7-0.3c-0.2-0.1-0.6-0.1-1-0.2c-0.5-0.1-0.7-0.1-0.8-0.1c0,0-0.1,0.3-0.2,0.9
	c-0.2,1-0.4,1.9-0.6,2.6c-0.1,0.3-0.2,0.5-0.4,0.6C32.1,35,31.8,35,31.4,35c-0.8,0-1.4-0.1-1.8-0.2c-0.4-0.1-0.4-0.3-0.2-0.4
	c0.1-0.1,0.1-0.1,0.1-0.2c0-0.1,0-0.1,0-0.1c-0.1,0-0.4,0.1-1.2,0.3c-0.1,0-0.2,0-0.3,0.1c-0.6,0.2-1,0.3-1.1,0.3
	c-0.2,0-0.3-0.1-0.4-0.3c0-0.1,0-0.5,0-1.2c0-0.1,0-0.2,0-0.3c0-0.7,0-1.1,0-1.3c0-0.3,0.1-0.4,0.2-0.5c0.1,0,0.4-0.1,0.7-0.1
	c0.4,0,0.6,0,0.8,0.1c0.1,0.1,0.2,0.2,0.3,0.5c0.1,0.5,0.4,0.8,0.8,0.9c0.4,0,0.8-0.1,1.2-0.5c0.4-0.4,0.7-0.9,0.7-1.5
	c0-0.1,0-0.2,0-0.3c0-0.3,0.1-0.5,0.2-0.5c0.1-0.1,0.4-0.2,0.8-0.2c0.3,0,1,0,2.1,0c0.5,0,0.9,0,1.2,0c0.3,0,0.6,0,1.1,0
	c1.3,0,2.1,0,2.4,0.1c0.4,0.1,0.7,0.2,0.7,0.5c0,0.2-0.1,0.7-0.3,1.5c-0.1,0.3-0.1,0.5-0.2,0.6c0,0,0,0.1,0,0.2c0,0,0.1,0.1,0.1,0.1
	c0.1,0,0.3-0.2,0.8-0.6c0.5-0.4,0.9-0.8,1.4-1.2c0.5-0.4,0.8-0.7,1.2-0.8c0.3,0,0.4-0.2,0.3-0.3c-0.1-0.2-0.3-0.5-0.8-1
	c-0.5-0.5-0.9-0.8-1.1-0.9c-0.2,0-0.4,0.1-0.8,0.5l0,0c-0.3,0.3-0.5,0.5-0.7,0.6c-0.2,0-0.6,0.1-1.2,0.1c-0.1,0-0.1,0-0.1,0
	c0,0-0.1,0-0.2,0c-0.8,0-1.2,0-1.3-0.1c-0.1-0.1-0.2-0.4-0.2-1.1c0,0,0-0.1,0-0.1c0-0.5,0-0.8,0-0.9c0-0.2,0.1-0.3,0.3-0.5
	c0.2-0.2,0.2-0.3-0.1-0.5c-0.2-0.1-0.8-0.3-1.7-0.5c0,0-0.1,0-0.2,0c-0.4-0.1-0.6-0.1-0.6-0.1c0,0-0.1,0.1,0,0.4c0,0,0,0.1,0,0.1
	c0.2,2,0.2,3-0.1,3.3C34.2,29,33.7,29,32.9,29c-0.8,0-1.3,0-1.4-0.1c-0.2-0.1-0.4-0.3-0.4-0.6c-0.1-0.4-0.2-0.6-0.3-0.6
	c-0.1,0-0.1,0-0.1,0c0,0.3-0.1,0.6-0.3,1.1c-0.2,0.4-0.4,0.7-0.5,0.9s-0.3,0.2-0.5,0.2c-0.1,0-0.4-0.3-0.8-0.6l0,0
	C28.2,29.1,28,29,28,29c-0.1,0-0.2,0.2-0.4,0.5c-0.2,0.3-0.4,0.5-0.5,0.6s-0.2,0.1-0.3,0.1c-0.2,0-0.4-0.7-0.3-2
	c0-1.3,0.2-2,0.4-2.2c0.5-0.3-0.2-0.7-2.2-1.2l0,0c-0.3-0.1-0.4-0.1-0.4,0c0,0,0,0.3,0,0.6c0.1,0.9,0.2,1.9,0.2,2.9
	c0,1,0,1.6-0.1,1.8c-0.1,0.2-0.3,0.3-0.6,0.3c-0.3,0-0.9,0-1.8-0.1c0,0,0,0-0.1,0c-0.3,0-0.4,0-0.5,0c0,0,0,0.2,0.1,0.4
	c0,0,0,0.1,0,0.1c0,0,0,0,0,0.1c0.1,0.3,0.2,0.4,0.3,0.4c0.1,0,0.2,0,0.4,0c0,0,0.1,0,0.1,0c0.7-0.2,1.2-0.3,1.5-0.2
	c0.3,0,0.5,0.3,0.6,0.6c0.1,0.3,0.1,0.9,0.1,1.8c0,0.1,0,0.2,0,0.4c0,0.7,0,1.1-0.1,1.3c-0.1,0.3-0.3,0.5-0.6,0.6
	c-0.2,0.1-0.8,0.3-1.6,0.5c-0.2,0-0.4,0.1-0.5,0.1c-0.3,0.1-0.5,0.1-0.6,0.2c0,0,0,0.1,0,0.2c0,0.1,0.2,0.5,0.4,1.2
	c0.2,0.6,0.3,1,0.4,1c0.1,0.2,0.2,0.1,0.4,0c0.3-0.4,0.7-0.7,1.2-1c0.5-0.2,0.8-0.3,0.9,0c0,0.1,0.1,1.1,0.1,2.9c0,1.9,0,2.9,0,3.1
	c-0.1,0.3-0.2,0.4-0.5,0.5c-0.2,0.1-0.7,0.1-1.5,0c-0.5,0-0.8,0-0.8,0c-0.1,0.1,0,0.2,0.4,0.3c1,0.2,1.5,0.8,1.7,1.8
	C23.7,47,23.7,47.1,23.8,47.1z M36.2,41C36,41,36,41,35.9,41c-0.1,0-0.2-0.1-0.5-0.1c-0.2,0-0.6-0.2-1.3-0.3c-0.6-0.2-1-0.3-1.1-0.4
	s-0.1-0.4,0.1-0.9c0.1-0.1,0.2-0.7,0.6-1.6c0-0.1,0.1-0.2,0.1-0.2c0-0.1,0.1-0.2,0.1-0.4c0.3-0.7,0.5-1.1,0.6-1.2
	c0.2-0.1,0.6-0.2,1.3-0.2c0.2,0,0.3,0,0.4,0c0.7,0,1.1,0,1.3,0c0.3,0,0.4,0.2,0.4,0.3c0,0.1,0,0.4-0.1,0.9c-0.2,1-0.5,2-0.8,2.7
	C36.7,40.4,36.4,40.9,36.2,41z M52,47.1c0.2,0.1,0.6,0.1,1,0c0.5-0.1,0.8-0.3,1.1-0.5c0.1-0.1,0.1-0.2,0.1-0.3c0-0.1,0-0.6,0-1.4
	c0-0.3,0-0.6,0-0.8c0-0.7-0.1-2.5-0.1-5.5c0-0.2,0-0.5,0-0.8c0-2,0-3.1,0-3.5c0-0.4,0.1-0.6,0.3-0.6l0,0c0.1-0.1,0.2-0.2,0.1-0.3
	c-0.1-0.1-0.3-0.3-0.6-0.6c-0.2-0.2-0.3-0.4-0.4-0.5c0-0.1,0.1-0.4,0.2-0.7c0.8-1.6,1.5-3,1.9-4.2c0.2-0.5,0.4-0.9,0.7-1
	c0.3-0.1,0.3-0.3,0-0.4c-0.3-0.2-0.9-0.4-1.9-0.7c-0.5-0.2-0.8-0.2-0.9-0.2c-0.1,0-0.1,0-0.1,0.1c0,0.2-0.1,0.7-0.2,1.4
	c-0.1,0.7-0.3,1.4-0.5,1.9c-0.4,1.3-0.9,2.7-1.6,4.2c-0.7,1.5-1.4,2.9-2.1,4.1c-0.2,0.3-0.3,0.5-0.3,0.6c0,0.1,0,0.1,0.1,0.1
	c0.2,0,0.8-0.5,1.9-1.7c0.3-0.4,0.5-0.6,0.7-0.6s0.3,0,0.3,0.2c0.1,0.2,0.1,1.6,0,4.3c0,2.7-0.1,4.7-0.2,6.1c0,0.7-0.1,1.1,0,1.2
	C51.8,46.9,51.9,47.1,52,47.1z M55.3,46.4c0,0.1,0.1,0.1,0.2,0.1c0.7-0.1,1.5-0.2,2.6-0.3c1.1,0,3.2,0,6.4,0c0.3,0,0.8,0,1.4,0
	c2.4,0,3.8,0,4.2,0c0.4,0,0.6-0.1,0.7-0.2c0.1-0.1-0.1-0.4-0.4-0.7c-0.3-0.4-0.8-0.8-1.4-1.2c-0.3-0.2-0.5-0.3-0.6-0.3
	c-0.1,0-0.3,0.3-0.7,0.8c0,0-0.1,0.1-0.1,0.2c-0.3,0.4-0.5,0.7-0.7,0.7c-0.1,0.1-0.5,0.1-1.2,0.1c-0.1,0-0.2,0-0.3,0
	c-0.1,0-0.3,0-0.5,0c-0.5,0-0.8,0-0.9-0.1c-0.2-0.1-0.3-0.3-0.3-0.7c0-0.3,0-0.9,0-1.8c0-0.5,0-0.9,0-1.1c0-0.3,0-0.7,0-1.3
	c0-0.9,0-1.5,0-1.8c0.1-0.3,0.2-0.5,0.5-0.6c0.2-0.1,0.7-0.1,1.5-0.1c0.4,0,0.8,0,1.1,0c1.5,0,2.3,0,2.5,0c0.3,0,0.4-0.1,0.5-0.2
	c0.1-0.2-0.3-0.7-1.2-1.5l0,0c-0.4-0.4-0.7-0.5-0.8-0.5c-0.1,0-0.3,0.2-0.6,0.6l0,0c-0.3,0.5-0.6,0.7-0.7,0.8
	c-0.2,0.1-0.6,0.1-1.2,0.1c-0.1,0-0.2,0-0.3,0c-0.4,0-0.7,0-0.8-0.1c-0.2-0.1-0.3-0.3-0.3-0.6c0-0.2,0-0.8,0-1.7c0-0.3,0-0.5,0-0.7
	c0-0.3,0-0.6,0-1c0-0.8,0-1.3,0-1.5c0.1-0.3,0.3-0.5,0.6-0.6c0.2,0,0.8-0.1,1.6,0c0.5,0,0.8,0,1.1,0c1.6,0,2.5,0,2.7,0
	c0.3,0,0.4-0.1,0.5-0.2c0.1-0.1-0.1-0.4-0.4-0.7c-0.3-0.3-0.7-0.7-1.3-1.1c-0.3-0.2-0.5-0.3-0.6-0.3c-0.1,0-0.3,0.2-0.6,0.6
	c-0.4,0.5-0.7,0.8-0.9,0.9c-0.1,0.1-1.7,0.1-4.8,0.1c-3.1,0-5,0-5.5-0.1c-0.4,0-0.5,0-0.6,0c0,0,0,0.2,0.1,0.5l0,0.1l0,0
	c0.1,0.3,0.2,0.4,0.3,0.4c0.1,0,0.2,0,0.5,0c0.7-0.1,1.6-0.2,2.6-0.2c1,0,1.6,0,1.8,0l0,0c0.2,0,0.3,0.2,0.3,0.4c0,0.2,0,0.9,0,2.1
	c0,0.2,0,0.3,0,0.5s0,0.3,0,0.5c0,1.2,0,1.9,0,2.1c0,0.2-0.1,0.3-0.3,0.4l0,0c-0.1,0.1-0.8,0.1-2,0.1c-1.2,0-2.1-0.1-2.6-0.2
	c-0.1,0-0.2,0-0.2,0.1c0,0.1,0.1,0.3,0.2,0.5c0,0,0,0,0,0.1c0.1,0.2,0.2,0.4,0.2,0.4s0.2,0,0.5,0c0,0,0.1,0,0.1,0
	c0.7-0.1,1.5-0.2,2.4-0.2c0.9,0,1.4,0,1.5,0.1c0.1,0.1,0.2,0.3,0.2,0.6c0,0.3,0,1.3,0,3c0,1.6,0,2.6,0,3c0,0.3-0.1,0.6-0.2,0.6
	c-0.1,0.1-0.9,0.1-2.3,0.1c-1.4,0-2.6,0-3.6-0.1c-0.2,0-0.3,0-0.3,0c0,0,0.1,0.2,0.2,0.5C55.2,46.2,55.3,46.3,55.3,46.4z M62.8,29.7
	c0.4,0.2,0.7,0.1,1,0c0.3-0.2,0.5-0.5,0.5-0.9c0-0.7-0.3-1.4-1.1-2c-0.8-0.6-1.8-1.1-3.2-1.4c-0.5-0.1-0.7-0.1-0.7,0
	c0,0.1,0.3,0.4,0.8,0.9c1.1,1.1,1.8,2.1,2.3,3C62.5,29.4,62.7,29.6,62.8,29.7z M80.7,45.2c2.5,0,3.8,0,3.8-0.1
	c0.1,0,0.1-0.2,0.1-0.4c0-0.2,0-0.4-0.1-0.4l-0.2,0c-0.3,0-0.6-0.1-0.8-0.1c-0.1,0-0.2,0-0.4,0c-0.4,0-0.7-0.1-0.8-0.2
	c-0.1-0.1-0.2-0.4-0.3-0.8c0-0.3,0-1,0-2c0-0.4,0-0.7,0-0.9c0-0.3,0-0.7,0-1.2c0-0.9,0-1.5,0-1.8c0-0.4,0.2-0.6,0.4-0.6
	c0.1-0.1,0.5-0.1,1-0.1c0.3,0,0.5,0,0.6,0c0.1,0,0.2,0,0.3,0c0.8,0,1.3,0.1,1.5,0.2c0.1,0.1,0.3,0.5,0.4,1.1c0,0.1,0,0.2,0,0.3
	c0,0,0,0.1,0,0.2c0,0.5,0.1,0.8,0.1,0.8c0,0.1,0.2,0.1,0.4,0.1c0,0,0.1,0,0.1,0c0,0,0.1,0,0.2,0c0.1,0,0.2,0,0.3-0.1
	c0.1-0.1,0.1-0.2,0.1-0.6c0-0.2,0-0.7,0-1.6c0-0.4,0-0.7,0-0.9c0-0.2,0-0.4,0-0.7c0-0.9,0-1.5,0-1.8c0-0.3,0-0.5-0.1-0.6
	c0-0.1-0.1-0.1-0.3-0.1c-0.1,0-0.1,0-0.2,0h0c-0.2,0-0.4,0-0.4,0.1c0,0.1-0.1,0.4-0.1,0.8c0,0,0,0.1,0,0.1c0,0.1,0,0.2,0,0.3
	c-0.1,0.7-0.2,1-0.4,1.2c-0.1,0.1-0.6,0.1-1.5,0.1c-0.1,0-0.3,0-0.3,0c-0.1,0-0.3,0-0.6,0c-0.5,0-0.9,0-1-0.1
	c-0.2-0.1-0.3-0.3-0.4-0.6c0-0.2-0.1-0.8,0-1.8c0-0.4,0-0.8,0-1c0-0.3,0-0.7,0-1.2c0-0.9,0-1.5,0-1.8c0.1-0.3,0.2-0.5,0.5-0.6
	c0.2-0.1,0.7-0.1,1.4-0.1c0.4,0,0.7,0,0.9,0c0.2,0,0.5,0,0.9,0c0.8,0,1.4,0,1.6,0c0.3,0,0.5,0.2,0.7,0.4c0.1,0.1,0.2,0.5,0.3,1.1
	c0,0.3,0.1,0.5,0.1,0.6c0,0.1,0,0.2,0.1,0.3c0.1,0.6,0.2,0.9,0.3,1c0.1,0.1,0.2,0.1,0.5,0.1c0,0,0.1,0,0.1,0c0.3,0,0.5,0,0.6,0
	c0.1,0,0.1-0.1,0.1-0.3c0,0,0-0.3,0-0.8c0-0.6,0-1,0-1.4c0-1.4-0.1-2-0.1-2.1c0,0-2.2-0.1-6.6-0.1c-4.3,0-6.5,0-6.6,0
	c-0.1,0.2-0.2,0.3,0,0.5c0.1,0.2,0.3,0.3,0.5,0.3c0.7,0.1,1.2,0.1,1.4,0.2c0.2,0.1,0.4,0.2,0.5,0.4c0,0.1,0.1,2,0.1,5.7
	c0,3.7,0,6.3,0,7.7c0,0,0,0.1,0,0.1c0,0.8-0.1,1.2-0.2,1.4c-0.1,0.1-0.5,0.2-1.1,0.3c-0.1,0-0.1,0-0.1,0c-0.6,0.1-0.9,0.1-0.9,0.2
	c0,0-0.1,0.2-0.1,0.4c0,0.2,0,0.3,0.1,0.3C77,45.1,78.2,45.2,80.7,45.2z M101.8,45.2c3.2,0,4.8,0,4.9,0c0,0,0.1-0.2,0.1-0.4
	c0-0.2,0-0.3,0-0.3c-0.1,0-0.6-0.1-1.5-0.2c-0.2,0-0.4-0.1-0.7-0.1c-0.5,0-0.8-0.1-0.9-0.3c-0.2-0.2-0.3-0.7-0.3-1.4
	c0-0.6,0-1.9,0-3.9c0-1.2,0-2.3,0-3c0-4,0-6.3,0-7c0-0.7,0-1-0.1-1.1c0-0.1-0.2-0.1-0.3,0c-0.1,0-0.6,0.1-1.5,0.3
	c-0.4,0.1-0.8,0.2-1.1,0.3c-0.2,0-0.5,0.1-0.9,0.2c-1,0.2-1.6,0.4-1.8,0.5c-0.2,0.1-0.2,0.2-0.2,0.3c0,0,0,0.1,0,0.1c0,0,0,0,0,0.1
	c0,0.2,0,0.3,0.1,0.3c0.1,0,0.4,0,0.9,0c0.1,0,0.2,0,0.2,0c0.8-0.1,1.3-0.1,1.5-0.1c0.2,0,0.3,0.1,0.4,0.3c0.1,0.1,0.1,2.5,0.1,7
	c0,4.5,0,6.9-0.1,7c-0.1,0.2-0.2,0.3-0.4,0.4c-0.2,0-0.7,0.1-1.6,0.2c-1,0.1-1.5,0.2-1.5,0.2c0,0-0.1,0.1-0.1,0.3c0,0.2,0,0.3,0,0.4
	C97,45.2,98.6,45.2,101.8,45.2z M113.9,46.4c0,0.1,0.2,0.1,0.6,0c0,0,0.1,0,0.2,0c0.6-0.1,1.4-0.2,2.2-0.2c0.9,0,3.7,0,8.4,0
	c0.5,0,1.3,0,2.2,0c3.6,0,5.7,0,6.3,0c0.6,0,1-0.1,1-0.2l0,0c0.1-0.2-0.3-0.7-1.4-1.6c0,0-0.1,0-0.1-0.1c-0.5-0.4-0.8-0.6-0.9-0.6
	c-0.1,0-0.3,0.2-0.6,0.6c0,0-0.1,0.1-0.1,0.1c0,0,0,0,0,0.1c-0.4,0.5-0.7,0.9-0.8,0.9c-0.2,0.1-0.6,0.1-1.3,0.1c-0.1,0-0.1,0-0.2,0
	c-0.7,0-1.1,0-1.2,0c-0.2,0-0.3-0.1-0.4-0.3c0-0.1-0.1-2.3-0.1-6.5c0-4.3,0-6.5,0-6.8c0,0,0,0,0-0.1c0-0.1,0.1-0.2,0.1-0.3
	c0.1-0.1,0.4-0.1,0.7-0.1c0.3,0,0.9,0,1.9,0c0.2,0,0.3,0,0.4,0c1.6,0,2.5,0,2.7,0c0.3,0,0.4-0.1,0.5-0.2c0.2-0.3-0.4-0.9-1.8-1.8h0
	c-0.3-0.2-0.5-0.3-0.6-0.3c-0.1,0-0.3,0.2-0.6,0.6c0,0-0.1,0.1-0.1,0.1c0,0,0,0.1-0.1,0.1c-0.3,0.4-0.6,0.7-0.8,0.8
	c-0.2,0.1-0.7,0.1-1.5,0.1c0,0-0.1,0-0.1,0c-1,0-1.5-0.1-1.6-0.2c-0.1-0.1,0.1-0.5,0.7-1.1c0.6-0.6,1.2-1.4,1.8-2.2
	c0.5-0.7,0.8-1,0.9-1c0.4,0,0.4-0.1,0-0.4c-0.4-0.2-1.1-0.5-2-0.8c0,0-0.1,0-0.2,0c-0.4-0.1-0.6-0.2-0.6-0.1c-0.1,0-0.1,0.2-0.2,0.4
	c0,0,0,0.1,0,0.1c-0.1,0.8-0.3,1.8-0.7,2.9c-0.3,1.1-0.6,1.8-0.8,2.1c-0.1,0.2-0.6,0.3-1.5,0.4c-0.8,0-1.7,0-2.5-0.1
	c-0.3,0-0.6,0-0.9,0c-0.4,0-1.4,0.1-3.1,0c-1.7,0-2.8-0.1-3.3-0.1c-0.1,0-0.2,0-0.2,0.1c0,0.1,0.1,0.3,0.2,0.6c0,0,0,0.1,0.1,0.1
	c0.1,0.2,0.2,0.3,0.3,0.3s0.3,0,0.7-0.1c0.1,0,0.2,0,0.2,0c0.8-0.1,1.8-0.2,2.9-0.2c1.1,0,1.7,0,1.8,0.1c0.1,0.1,0.2,0.5,0.2,1.1
	c0,0.6,0,2.6,0,6c0,0.3,0,0.7,0,1.2c0,2,0,3.4,0,3.9c0,0.8,0,1.2-0.1,1.4c0,0.2-0.1,0.3-0.2,0.3c0,0-0.1,0-0.1,0
	c-0.1,0.1-1.1,0.1-2.7,0.1c-1.7,0-2.9-0.1-3.7-0.1c-0.3,0-0.4,0-0.4,0.2C113.5,45.7,113.6,45.9,113.9,46.4z M125.1,45.4
	c-0.1,0.1-0.4,0.1-0.9,0.1c-0.5,0-0.8,0-1-0.1l0,0c-0.1,0-0.2-0.1-0.2-0.3c0-0.2-0.1-0.7-0.1-1.5c0-0.5,0-1.8,0-3.9c0-0.6,0-1,0-1.3
	c0-0.5,0-1.3,0-2.2c0-1.8,0-3,0-3.5c0-0.7,0.1-1.1,0.2-1.3c0.1-0.1,0.3-0.2,0.6-0.1c0.2,0,0.3,0,0.4,0s0.2,0,0.4,0
	c0.3,0,0.5,0,0.6,0.1c0.1,0.2,0.2,0.6,0.2,1.3c0,0.5,0,1.6,0,3.5c0,1,0,1.7,0,2.3c0,0.3,0,0.7,0,1.2c0,2,0,3.4,0,3.9
	c0,0.8,0,1.2-0.1,1.4C125.3,45.3,125.3,45.4,125.1,45.4C125.1,45.4,125.1,45.4,125.1,45.4z M128.7,42.5c0.1,0,0.1,0,0.2,0
	c0,0,0.1-0.1,0.3-0.3c1-1.5,2-3.4,2.9-5.6c0,0,0-0.1,0-0.1c0.4-0.8,0.6-1.3,0.7-1.5c0.1-0.2,0.3-0.3,0.5-0.4
	c0.4-0.2,0.2-0.4-0.6-0.6c0,0-0.2,0-0.3-0.1c-0.5-0.1-0.8-0.2-1.1-0.3l0,0c-0.5-0.1-0.7-0.2-0.8-0.2s-0.1,0.1-0.1,0.3
	c0,0.7-0.1,1.7-0.4,3.1c-0.2,1.4-0.6,2.8-0.9,4.3c0,0,0,0.1,0,0.1c-0.2,0.6-0.2,1-0.3,1.1C128.6,42.4,128.6,42.5,128.7,42.5z
	 M117.8,41.9c0.5,0.3,0.9,0.2,1.2-0.2c0.3-0.4,0.4-1.1,0.4-2c-0.1-0.9-0.3-1.8-0.7-2.7c-0.3-0.6-0.7-1.3-1.2-1.9
	c-0.5-0.6-0.9-1.1-1.2-1.3c-0.3-0.2-0.4-0.1-0.3,0.4c0.4,1,0.7,2.2,0.9,3.4c0.3,1.2,0.4,2.3,0.4,3.2c0,0.5,0,0.7,0.1,0.8
	C117.5,41.7,117.6,41.8,117.8,41.9z M121.2,30.3c0.1,0,0.3,0,0.5-0.1c0.2-0.1,0.4-0.2,0.5-0.3c0.5-0.7,0.5-1.5-0.1-2.4
	c-0.5-0.9-1.5-1.6-2.7-2.2c-0.5-0.2-0.8-0.3-1-0.3c-0.1,0-0.1,0.2,0.1,0.4c0.4,0.5,0.8,1.2,1.1,1.9c0.4,0.8,0.6,1.4,0.7,2
	C120.5,29.9,120.8,30.1,121.2,30.3z M145.7,46.5c0,0,0.3,0,0.9,0c0.7-0.1,1.5-0.2,2.3-0.2c0.8,0,2.9,0,6.4,0c4.5,0,6.8,0,7,0
	c0.3-0.1,0.4-0.2,0.3-0.5c-0.1-0.2-0.5-0.6-1.1-1.1c0,0-0.1,0-0.1-0.1c-0.6-0.5-1-0.7-1.1-0.7c-0.2,0-0.4,0.2-0.8,0.7
	c0,0-0.1,0.1-0.1,0.1c0,0-0.1,0.1-0.1,0.2c-0.3,0.4-0.5,0.6-0.7,0.6c-0.2,0.1-0.6,0.1-1.4,0.1c-0.1,0-0.2,0-0.3,0
	c-0.2,0-0.4,0-0.6,0c-0.5,0-0.9,0-1-0.1c-0.2-0.1-0.3-0.4-0.4-0.8c0-0.3,0-1,0-2.1c0-0.5,0-1,0-1.3c0-0.4,0-0.9,0-1.5c0-1,0-1.7,0-2
	c0.1-0.4,0.2-0.6,0.5-0.7c0.2-0.1,0.7-0.1,1.4-0.1c0.4,0,0.8,0,1.1,0c1.3,0,2.2-0.1,2.5-0.1c0.4-0.1,0.6-0.3,0.4-0.5
	c-0.2-0.2-0.6-0.6-1.5-1.2c0,0-0.1,0-0.1-0.1c-0.4-0.3-0.6-0.4-0.7-0.3c-0.1,0-0.3,0.2-0.7,0.6c0,0-0.1,0.1-0.1,0.1
	c0,0.1-0.1,0.2-0.2,0.3c-0.2,0.2-0.3,0.4-0.4,0.5c-0.2,0.1-0.5,0.2-0.9,0.2c-0.3,0-1,0-2.1,0c-0.4,0-0.8,0-1.1,0c-0.2,0-0.5,0-0.9,0
	c-1.3,0-2.2,0-2.5,0c-0.5,0-0.8-0.1-0.9-0.2c0-0.1,0-0.3,0.1-0.6c0-0.1,0.1-0.1,0.1-0.2c0.5-1.4,0.8-2.5,1-3.1
	c0-0.1,0.1-0.3,0.1-0.5c0.1-0.4,0.2-0.6,0.3-0.7c0.2-0.1,0.6-0.2,1.1-0.3c0.4,0,1.4,0,2.9,0c0.8,0,1.5,0,2,0c3,0,4.7,0,5.2,0
	c0.5,0,0.8-0.1,0.9-0.2c0.1-0.1-0.1-0.4-0.4-0.7c-0.4-0.4-0.9-0.8-1.5-1.3c-0.3-0.2-0.4-0.2-0.6-0.2c-0.1,0-0.4,0.3-0.7,0.8
	c0,0.1-0.1,0.2-0.2,0.3c-0.2,0.2-0.3,0.4-0.4,0.5c-0.2,0.1-0.4,0.2-0.9,0.2c-0.3,0-1,0-2,0c-0.4,0-0.8,0-1,0c-0.3,0-0.7,0-1.2,0
	c-1.1,0-1.9,0-2.2,0c-0.4,0-0.7-0.2-0.7-0.3c0-0.1,0-0.4,0.1-0.9c0-0.2,0.1-0.4,0.1-0.5c0.1-0.6,0.2-1.1,0.3-1.6
	c0.1-0.4,0.2-0.6,0.2-0.7c0.1-0.1,0.2-0.2,0.4-0.3c0.2-0.1,0.3-0.1,0.4-0.2c0.1-0.1,0.1-0.2,0-0.2c0,0-0.6-0.1-1.8-0.3
	c-1.2-0.2-1.7-0.3-1.8-0.2c0,0,0,0.4,0,1.2c0,2.5-0.3,3.9-0.7,4.1c-0.2,0.1-1.1,0.1-2.9,0.1c-1.7,0-2.8-0.1-3.3-0.2
	c-0.1,0-0.2,0-0.2,0.1c0,0.1,0.1,0.2,0.2,0.5c0,0,0,0,0,0.1c0.1,0.2,0.2,0.4,0.3,0.4c0.1,0,0.3,0,0.7,0c0.1,0,0.2,0,0.3,0
	c0.9-0.1,1.9-0.2,3.1-0.2c0,0,0,0,0.1,0c0.7,0,1.1,0,1.2,0c0.2,0,0.4,0.2,0.4,0.3c0,0.1,0,0.4-0.1,0.9c0,0,0,0.1,0,0.1
	c-0.6,2.6-1.4,4.9-2.4,7.2c-1,2.2-2.2,4-3.5,5.5c0,0.1-0.1,0.2-0.2,0.3c-0.2,0.2-0.3,0.3-0.3,0.3c-0.1,0.1-0.1,0.2-0.1,0.3
	c0.1,0.1,0.1,0.1,0.2,0c0.1,0,0.3-0.2,0.6-0.4c2.3-1.8,4.2-4.3,5.7-7.4c0,0,0,0,0-0.1c0.2-0.5,0.4-0.7,0.6-0.8s0.7-0.1,1.6-0.1
	c0.1,0,0.2,0,0.3,0c0.2,0,0.4,0,0.7,0c0.5,0,0.9,0,1,0.1c0.2,0.1,0.3,0.3,0.4,0.7c0,0.3,0,0.9,0,2c0,0.6,0,1,0,1.4
	c0,0.2,0,0.4,0,0.7c0,1.6,0,2.6,0,2.9c0,0.3-0.1,0.4-0.2,0.5l0,0c-0.2,0.1-1.2,0.1-3.2,0c-2,0-3.2-0.1-3.6-0.1
	c-0.1,0-0.2,0.1-0.1,0.3C145.3,46,145.5,46.2,145.7,46.5z M174.8,47.1c0.2,0,0.5,0,0.8,0c0.4,0,0.6-0.1,0.8-0.2
	c0.2-0.1,0.3-0.2,0.3-0.3c0-0.1,0.1-0.3,0.1-0.6c0,0,0-0.1,0-0.2c0-0.3,0-0.4,0.1-0.5c0.1-0.1,0.4-0.2,0.9-0.2c0.3,0,1.1,0,2.3,0
	c0.4,0,0.8,0,1.1,0c0.3,0,0.6,0,1,0c1.3,0,2.1,0,2.4,0c0.5,0,0.8,0.1,0.9,0.2c0.1,0.1,0.1,0.3,0.1,0.6c0,0.1,0,0.2,0,0.2
	c0,0.5,0.1,0.8,0.2,0.9c0.2,0.1,0.6,0.1,1.2-0.1c0.5-0.1,0.8-0.3,0.9-0.5c0.1-0.1,0.1-0.5,0.1-1.1c-0.1-1.5-0.1-3.1-0.1-4.8
	c0-1.8,0-2.7,0.1-2.8c0.1-0.2,0.2-0.3,0.4-0.4c0.3-0.1,0.4-0.2,0.3-0.3c0-0.1-0.2-0.4-0.6-0.7c-0.7-0.7-1.1-1-1.3-1.1
	c-0.2,0-0.5,0.2-0.8,0.6c0,0-0.1,0.1-0.1,0.2c-0.1,0.2-0.3,0.3-0.4,0.4c-0.2,0.1-0.5,0.1-0.9,0.1c-0.3,0-1,0-2.2,0c-0.5,0-1,0-1.3,0
	c-2,0-3.2,0-3.6,0c-0.4,0-0.6-0.1-0.8-0.1c-0.5-0.2-0.8-0.3-0.9-0.5c-0.1-0.2,0-0.4,0.2-0.8c0.8-1.3,1.3-2.4,1.7-3.1
	c0.3-0.5,0.5-0.9,0.6-1c0.1,0,2.1-0.1,6-0.1c3,0,4.8,0,5.3,0c0.5,0,0.8-0.1,0.9-0.2c0.1-0.2-0.4-0.8-1.5-1.7l0,0
	c-0.4-0.4-0.7-0.5-0.9-0.5c-0.1,0-0.4,0.2-0.7,0.7c0,0-0.1,0.1-0.1,0.1c0,0.1-0.1,0.2-0.2,0.3c-0.2,0.3-0.4,0.5-0.5,0.6
	c-0.2,0.1-0.5,0.2-0.9,0.2c-0.3,0-1,0-2,0c-0.5,0-0.8,0-1.1,0c-0.2,0-0.5,0-0.9,0c-1.2,0-2,0-2.3,0c-0.4,0-0.7-0.1-0.8-0.3
	c0-0.1,0-0.4,0.2-0.8c0-0.1,0.1-0.2,0.1-0.3c0,0,0-0.1,0.1-0.3c0.2-0.5,0.3-0.9,0.3-1.1c0.2-0.6,0.3-0.9,0.4-1.1
	c0.1-0.2,0.2-0.3,0.4-0.4c0.3-0.1,0.3-0.3,0-0.4c-0.3-0.1-1-0.4-2.1-0.6c0,0-0.1,0-0.2,0c-0.4-0.1-0.6-0.1-0.6-0.1
	c-0.1,0-0.1,0.1-0.1,0.4c0,0.1,0,0.1,0,0.1c-0.1,1.2-0.2,2.3-0.5,3.3c-0.3,1-0.5,1.6-0.7,1.7c-0.2,0.1-1,0.1-2.5,0.1
	c-1.5,0-2.8,0-3.7-0.1c-0.3,0-0.4,0-0.5,0c0,0,0.1,0.2,0.2,0.5c0,0,0,0,0,0.1c0.1,0.2,0.2,0.4,0.3,0.4c0.1,0,0.3,0,0.6,0
	c0.1,0,0.1,0,0.2,0c0.8-0.1,1.7-0.2,2.9-0.2c1.2,0,1.8,0,2,0c0.3,0.2,0.2,0.8-0.3,2c-0.5,1.1-1.2,2.4-2.1,3.8
	c-1,1.5-1.9,2.7-2.9,3.6c-0.5,0.5-0.8,0.8-0.8,0.9c-0.1,0.1-0.1,0.2,0.1,0.2c0.2,0,0.7-0.3,1.5-0.9c0.8-0.7,1.6-1.3,2.3-2
	c0,0,0.1-0.1,0.1-0.1c0.5-0.4,0.8-0.7,0.9-0.8c0.2-0.1,0.3,0,0.3,0.3c0,0.2,0,0.8,0,1.6c0,0.1,0,0.2,0,0.3c0,1.9,0,3.6-0.1,5.3
	c0,0.8-0.1,1.4,0,1.5C174.5,47,174.6,47.1,174.8,47.1z M181.2,44.4c-2.6,0-4,0-4.2-0.1c-0.1-0.1-0.2-0.3-0.2-0.6c0-0.3,0-1.2,0-2.9
	c0-0.3,0-0.7,0-1.2c0-0.9,0-1.4,0.1-1.7c0.1-0.3,0.3-0.5,0.7-0.6c0.3-0.1,1-0.1,2.1-0.1c0.6,0,1.2,0,1.5,0c0.4,0,0.9,0,1.5,0
	c1.1,0,1.8,0,2.1,0.1c0.4,0.1,0.7,0.3,0.8,0.6c0.1,0.2,0.1,0.8,0.1,1.6c0,0.5,0,0.9,0,1.2c0,1.6,0,2.6,0,2.9c0,0.3-0.1,0.5-0.2,0.6
	C185.3,44.3,183.9,44.4,181.2,44.4z M203.5,47.1c0.1,0,0.3,0,0.8-0.1c0.8-0.2,1.3-0.6,1.5-1.2c0-0.2,0.1-1.5,0.1-4
	c0-0.2,0-0.5,0-0.8c0-1.2,0-1.9,0-2.3c0-0.4,0.1-0.8,0.1-0.9c0-0.1,0.2-0.2,0.3-0.3c0.1,0,0.1-0.1,0.1-0.1c0.3-0.2,0.5-0.3,0.6-0.2
	c0.1,0,0.2,0.3,0.3,0.6c0,0.4,0,1,0,1.9c0,0.8,0,1.2,0,1.4c0,0.1,0.1,0.2,0.2,0.3c0.2,0.1,0.5,0,0.8-0.1s0.5-0.2,0.5-0.4
	c0-0.2,0.1-0.3,0.4-0.4c0.3-0.1,0.5-0.1,0.7,0.1c0.2,0.1,0.3,0.5,0.3,1.1s-0.1,1-0.3,1.2c-0.1,0.1-0.6,0.2-1.4,0.3
	c-0.8,0.1-1.4,0.1-1.8,0.1c-0.1,0-0.2,0.1-0.1,0.2c0,0.1,0.2,0.4,0.4,0.9c0.3,0.6,0.4,0.9,0.5,1c0.1,0.1,0.2,0,0.4-0.1
	c0.1-0.1,0.3-0.2,0.5-0.3c0.2-0.1,0.6-0.2,1.2-0.4c0.2-0.1,0.6-0.2,1.1-0.3c0.5-0.2,0.9-0.3,1.1-0.4c0.7-0.2,1.2-0.4,1.4-0.3
	c0.2,0,0.3,0.2,0.5,0.5c0.1,0.2,0.2,0.4,0.5,0.5c0.3,0.1,0.5,0,0.6-0.2c0.3-0.3,0.4-0.6,0.2-1.1c-0.1-0.4-0.4-0.8-0.9-1.2
	c-0.2-0.2-0.4-0.3-0.5-0.4c-0.2-0.2-0.3-0.2-0.5-0.2c-0.1,0-0.3,0-0.4,0c-0.2,0-0.2,0.1,0,0.4c0.2,0.2,0.2,0.5,0.1,0.7
	c-0.1,0.2-0.2,0.3-0.4,0.4c-0.2,0-0.4-0.1-0.6-0.3c-0.2-0.3-0.3-0.6-0.2-0.9c0-0.4,0.2-0.6,0.4-0.9c0.2-0.2,0.5-0.3,0.7-0.1
	c0.1,0.1,0.3,0.2,0.4,0.5c0.1,0.1,0.2,0.1,0.6,0c0.5-0.1,0.7-0.2,0.8-0.4c0.1-0.1,0.1-0.5,0.1-1c-0.1-1-0.1-1.6,0-2
	c0.1-0.3,0.2-0.6,0.5-0.7c0.2-0.1,0.3-0.2,0.2-0.3c0-0.1-0.2-0.3-0.4-0.5c-0.4-0.4-0.7-0.6-0.9-0.6c-0.2,0-0.4,0.1-0.6,0.3
	c-0.5,0.5-1,0.7-1.4,0.4c-0.2-0.1-0.2-0.2-0.3-0.4c0-0.2,0.1-0.4,0.2-0.5c0.2-0.1,0.2-0.2,0.1-0.4c-0.1-0.1-0.5-0.3-1.1-0.6
	c-0.4-0.1-0.6-0.2-0.7-0.2c0,0-0.1,0.2,0,0.4c0.1,0.7,0,1.2-0.2,1.4c-0.2,0.2-0.5,0.3-1,0.1c-0.4-0.1-0.6-0.3-0.5-0.5
	c0-0.2,0.3-0.6,0.7-1.2c0,0,0.1-0.1,0.1-0.2c0.3-0.4,0.5-0.6,0.8-0.6c0.3-0.1,1-0.1,2.2-0.1c0.3,0,0.5,0,0.6,0c0.2,0,0.5,0,0.9,0
	c0.8,0,1.3,0,1.5,0c0.3,0.1,0.5,0.2,0.6,0.5c0,0.2,0,0.7,0,1.5c0,0.4,0,0.7,0,0.9c0,2.1-0.1,3.7-0.2,4.6c-0.1,0.9-0.2,1.6-0.4,2.3
	c-0.2,0.6-0.4,1-0.7,1.1c-0.3,0.1-0.9,0.1-2,0c-0.4,0-0.7,0-0.8,0c-0.1,0-0.2,0-0.2,0.1c0,0.1,0.2,0.2,0.6,0.3
	c1.1,0.3,1.7,0.8,1.7,1.6c0,0.1,0,0.2,0.1,0.2c0.1,0,0.3,0,0.6,0c0.9-0.1,1.5-0.4,1.9-0.9c0.4-0.6,0.7-1.6,0.9-3
	c0.2-1.3,0.3-3.4,0.4-6.4c0-1.2,0.1-1.9,0.1-2.2c0.1-0.3,0.2-0.5,0.4-0.5c0,0,0.1,0,0.2-0.1c0.1-0.1,0.2-0.2,0.2-0.2
	c0-0.1-0.2-0.3-0.5-0.6c-0.4-0.4-0.7-0.6-1-0.8c-0.3-0.2-0.4-0.3-0.4-0.3c0,0,0.1-0.1,0.2-0.2c0.1-0.1,0.2-0.2,0.3-0.2
	c0.2-0.1,0.3-0.2,0.3-0.3c0-0.1,0-0.4,0-1c-0.1-1.1-0.1-1.9,0-2.3c0-0.4,0.2-0.7,0.4-0.8c0.3-0.2,0.4-0.3,0.3-0.4
	c0-0.1-0.3-0.4-0.7-0.7c-0.4-0.4-0.7-0.6-0.9-0.6c-0.2-0.1-0.3,0.1-0.6,0.4c0,0-0.1,0.1-0.1,0.2c-0.2,0.3-0.4,0.5-0.7,0.5
	c-0.3,0-1,0.1-2.4,0.1c-0.4,0-0.6,0-0.8,0c-0.2,0-0.4,0-0.8,0c-1.3,0-2,0-2.3,0s-0.6-0.1-1.1-0.3c-0.1-0.1-0.3-0.1-0.4-0.1l0,0
	c-0.4-0.2-0.7-0.3-0.7-0.3c-0.1,0-0.1,0.1-0.1,0.3c0.1,0.9,0.1,1.9,0.1,3c0,1.1,0,1.7-0.1,1.9c-0.1,0.1-0.2,0.2-0.3,0.2
	c-0.1,0-0.3-0.1-0.6-0.3c-0.4-0.3-0.8-0.5-1-0.6c-0.2-0.1-0.3,0-0.5,0.1c-0.3,0.4-0.5,0.6-0.7,0.7c-0.2,0.1-0.4,0.1-0.6,0.1
	c-0.5-0.1-0.5-0.4,0-0.9c0.1-0.1,0.2-0.3,0.5-0.6c0.1-0.1,0.2-0.2,0.2-0.3c0.3-0.4,0.6-0.6,0.7-0.7s0.3-0.2,0.6-0.2
	c0.2-0.1,0.4-0.2,0.3-0.3s-0.2-0.3-0.5-0.6c-0.5-0.5-0.9-0.8-1.1-0.9c-0.2-0.1-0.4,0-0.6,0.3c-0.3,0.4-0.7,0.6-1.1,0.7
	c-0.4,0.1-0.6,0-0.7-0.2c-0.1-0.2,0-0.6,0.2-0.9c0.1-0.2,0.2-0.2,0.3-0.2c0.6-0.2,0.1-0.5-1.4-1.1c0,0-0.1,0-0.2-0.1
	c-0.4-0.1-0.6-0.2-0.6-0.1c-0.1,0-0.1,0.1-0.1,0.4c0,0,0,0.1,0,0.1c-0.1,1.1-0.4,2.3-0.8,3.6s-0.9,2.5-1.5,3.6
	c-0.2,0.3-0.3,0.6-0.3,0.6c0,0.1,0,0.1,0.1,0.1c0.1,0,0.2-0.1,0.4-0.3c0.3-0.3,0.6-0.4,0.7-0.2c0.1,0.1,0.1,1.2,0.1,3.4
	c0,2.2,0,3.6-0.1,4.4c-0.2,2.5-0.5,4.5-1.2,6c-0.1,0.2-0.1,0.4,0,0.4c0.1,0.1,0.2,0,0.4-0.2c0.5-0.6,1-1.4,1.4-2.4
	c0.4-1,0.7-2.2,0.9-3.4c0,0,0-0.1,0-0.2c0.1-0.5,0.2-0.8,0.3-0.9s0.6-0.1,1.4-0.1c0.2,0,0.3,0,0.4,0c0.1,0,0.3,0,0.6,0
	c0.6,0,1,0,1.1,0c0.2,0,0.4,0.2,0.4,0.5c0,0.2,0.1,0.6,0,1.3c0,0.3,0,0.5,0,0.7c0,0.1,0,0.2,0,0.3c0,0.9,0,1.5,0,1.7
	c0,0.3-0.2,0.5-0.4,0.6c-0.1,0-0.5,0-1,0c-0.1,0-0.2,0-0.2,0c-0.5,0-0.8,0-0.9,0c-0.1,0-0.1,0-0.1,0.1c0,0.1,0,0.1,0.1,0.1
	c0,0,0.2,0.1,0.5,0.1c0.8,0.2,1.3,0.7,1.5,1.4c0,0,0,0,0,0.1C203.5,47.1,203.5,47.1,203.5,47.1z M209.8,39.7c-0.7,0.3-1,0-1-1.1
	c0-0.6,0.1-1,0.2-1.3c0.2-0.2,0.5-0.3,0.8,0c0.2,0.1,0.3,0.6,0.3,1.2C210.2,39.2,210,39.6,209.8,39.7z M212.6,39.8
	c-0.4,0.2-0.7,0.1-1-0.3c-0.2-0.4-0.2-1-0.1-1.7c0.1-0.4,0.3-0.5,0.7-0.5c0.4,0,0.6,0.2,0.7,0.5c0.1,0.4,0.1,0.8,0,1.2
	C212.9,39.5,212.8,39.7,212.6,39.8z M203.9,39.1c-0.2,0.1-0.3,0.1-0.6,0.1c-0.2-0.1-0.3-0.2-0.4-0.3c-0.1-0.1-0.1-0.6-0.1-1.4
	c0-0.8,0.1-1.3,0.1-1.4c0.1-0.2,0.3-0.3,0.4-0.3c0.2,0,0.3,0,0.5,0.1c0.2,0.1,0.3,0.7,0.3,1.6C204.2,38.4,204.1,38.9,203.9,39.1z
	 M201.1,39.1c-0.2,0.1-0.4,0.1-0.6,0.1c-0.2-0.1-0.3-0.2-0.4-0.3c0-0.1,0-0.6,0-1.3c0-0.8,0-1.3,0.1-1.5c0.1-0.2,0.3-0.3,0.5-0.3
	c0.3,0,0.5,0.1,0.5,0.3c0.1,0.2,0.1,0.7,0.1,1.6c0,0.6,0,0.9-0.1,1.1C201.3,38.9,201.2,39,201.1,39.1z M206.5,36.2
	c-0.3,0.3-0.4,0.3-0.5,0.1c-0.1-0.1-0.1-0.8-0.1-2.1s0-2,0.1-2.1c0.1-0.2,0.3-0.3,0.5-0.4s0.4,0,0.5,0.1c0.1,0.1,0.2,0.1,0.3,0.1
	c0.1,0,0.4,0,0.8-0.1c0.3,0,0.4,0.1,0.4,0.4c0,0.3-0.3,0.9-0.8,1.9C207.2,35.2,206.8,35.9,206.5,36.2z M203.8,34.9
	c-0.4,0.2-0.6,0.2-0.8,0c-0.2-0.3-0.2-0.8-0.2-1.5c0-0.8,0.1-1.3,0.2-1.5c0.1-0.2,0.4-0.3,0.8-0.1c0.2,0.1,0.3,0.6,0.3,1.5
	C204.2,34.3,204.1,34.8,203.8,34.9z M200.7,35c-0.3,0-0.4-0.1-0.5-0.3c-0.1-0.2-0.1-0.7-0.1-1.3c0-0.8,0.1-1.2,0.2-1.5
	c0.2-0.2,0.4-0.2,0.7,0c0.2,0.1,0.3,0.6,0.3,1.5c0,0.9-0.1,1.4-0.3,1.5C200.9,35,200.8,35,200.7,35z M215.4,33.2c-0.1,0-0.9,0-2.4,0
	s-2.2,0-2.3-0.1c-0.2-0.1-0.3-0.3-0.1-0.6c0.1-0.3,0.3-0.5,0.6-0.6c0.3-0.1,0.4-0.2,0.1-0.4c-0.3-0.2-0.3-0.4,0-0.4
	c0.3-0.1,1-0.1,2.1-0.1c1.1,0,1.7,0,1.9,0.1c0.2,0,0.3,0.2,0.3,0.4c0,0.1,0,0.2,0,0.2c0,0,0.1,0,0.3,0c0.4,0.1,0.6,0.1,0.6,0.2
	c0,0.1-0.2,0.3-0.5,0.6C215.8,33,215.6,33.2,215.4,33.2z M201.4,31c-0.2,0-0.5,0.1-0.7,0c-0.3,0-0.5-0.1-0.6-0.2
	c-0.2-0.1-0.3-0.3-0.3-0.4c0-0.2,0.2-0.5,0.5-1.1c0.3-0.6,0.5-0.9,0.7-1c0.1-0.1,0.4-0.2,0.8-0.2c0.4,0,0.6,0,0.7,0.1
	c0.1,0.1,0.2,0.3,0.1,0.6c0,0.3-0.2,0.7-0.5,1.5C201.9,30.7,201.7,30.9,201.4,31z M215.4,30.3c-0.8,0.5-1.1,0-1.1-1.5
	c0-0.7,0-1.2,0.1-1.3c0.1-0.2,0.3-0.3,0.6-0.3c0.3,0,0.5,0.1,0.6,0.3c0.1,0.2,0.1,0.6,0.1,1.3c0,0.6,0,1,0,1.2
	C215.6,30.1,215.5,30.3,215.4,30.3z M209.8,30.3c-0.2,0.1-0.5,0.2-0.7,0s-0.4-0.3-0.4-0.6c-0.1-0.8-0.1-1.5,0-1.9
	c0.1-0.5,0.4-0.7,0.7-0.7c0.3,0,0.5,0.1,0.6,0.3s0.1,0.6,0.1,1.4c0,0.6,0,1,0,1.2C210,30.1,209.9,30.2,209.8,30.3z M212.5,30.3
	c-0.2,0.1-0.4,0.1-0.6,0.1c-0.2,0-0.4-0.1-0.5-0.3c-0.1-0.1-0.1-0.6-0.1-1.3c0-0.8,0.1-1.2,0.1-1.3c0.1-0.1,0.2-0.2,0.5-0.3
	c0.2,0,0.4,0,0.6,0.1c0.3,0.1,0.4,0.6,0.4,1.5C212.9,29.7,212.8,30.2,212.5,30.3z M227.3,47.1c0,0,0.1,0.1,0.3,0c0.1,0,0.1,0,0.2,0
	c1-0.2,1.7-0.6,1.9-1.1l0,0c0.1-0.3,0.2-0.6,0.2-1c0-0.4,0.1-1.7,0.1-3.8c0-2.7,0-4.1,0.1-4.2c0.1-0.2,0.5-0.5,1.2-0.9
	c1.1-0.7,1.6-1.1,1.6-1.2c0-0.1-0.1-0.1-0.2-0.1s-0.4,0.1-1,0.3c-0.1,0-0.1,0-0.2,0.1c-0.5,0.2-0.9,0.3-1,0.2
	c-0.2,0-0.3-0.1-0.4-0.4c0-0.2-0.1-0.6-0.1-1.3c0-0.2,0-0.3,0-0.4c0-0.1,0-0.3,0-0.6c0-0.7,0-1.1,0-1.2c0-0.2,0.2-0.4,0.3-0.5
	c0.1,0,0.5,0,1,0c0.2,0,0.3,0,0.4,0c0,0,0.1,0,0.1,0c0.7,0,1.2,0,1.3,0.1c0.1,0.1,0.2,0.3,0.3,0.7c0,0,0,0.1,0,0.1
	c0,0.3,0,1.4,0,3.2c0,1.8,0,2.9,0,3.3c0,0.5,0,0.8,0.1,0.9c0.1,0.1,0.4,0.1,0.9,0c0.7-0.2,1.1-0.4,1.1-0.7c0-0.4,0.3-0.6,0.8-0.7
	c0.6-0.1,1,0,1.1,0.4c0.1,0.3,0.1,0.7,0,1.3c-0.1,0.6-0.2,1-0.4,1.1c-0.1,0-0.8,0.1-2.2,0c-1.3,0-2.3,0-2.8-0.1c-0.4,0-0.6,0-0.6,0
	c0,0,0,0.2,0.2,0.5c0,0,0,0.1,0,0.1c0.1,0.3,0.2,0.4,0.3,0.4c0.1,0,0.2,0,0.4,0h0.1c0.6-0.1,1.4-0.2,2.3-0.2c1-0.1,1.6-0.1,1.8,0
	c0.5,0.1,0.5,0.6,0,1.5c-0.9,1.6-2.7,2.8-5.3,3.8c-0.4,0.2-0.7,0.3-0.8,0.3c0,0,0,0.1,0,0.2c0,0.1,0.2,0.1,0.4,0
	c0.2,0,0.7-0.1,1.4-0.3c1.8-0.5,3.2-1.1,4.2-1.8c1.1-0.7,1.9-1.6,2.4-2.6c0.2-0.4,0.4-0.6,0.5-0.6c0.1,0,0.3,0.2,0.4,0.6
	c0.9,2.2,2.4,3.7,4.5,4.4c0.2,0.1,0.4,0.1,0.4,0.1c0.1,0,0.1-0.1,0.1-0.3c0.1-0.8,0.6-1.4,1.4-1.7c0.3-0.1,0.4-0.2,0.3-0.3
	c0,0-0.3-0.1-0.8-0.2c-1.5-0.3-2.8-0.8-4-1.4c-1.2-0.6-1.7-1.2-1.7-1.7c0-0.1,0.1-0.2,0.1-0.2c0.1,0,0.4-0.1,0.8-0.1
	c0.3,0,1,0,2.1,0c1.3,0,2.2,0,2.5-0.1c0.5,0,0.7-0.2,0.6-0.3c0-0.1-0.3-0.4-0.8-0.9c-0.5-0.5-0.8-0.7-1-0.8
	c-0.2-0.1-0.4-0.2-0.5-0.1c-0.1,0.1-0.3,0.3-0.5,0.6c0,0-0.1,0.1-0.1,0.2c-0.3,0.4-0.5,0.7-0.7,0.7c-0.1,0.1-0.5,0.1-1.2,0.1
	c-0.1,0-0.2,0-0.3,0c0,0-0.1,0-0.2,0c-0.7,0-1.1-0.1-1.2-0.2c-0.1-0.1-0.1-0.5,0-1.1c0-0.1,0-0.1,0-0.2c0.1-0.6,0.2-1,0.3-1.1
	c0.1-0.1,0.4-0.2,1-0.2c0.5,0,0.8,0.1,1,0.2c0.2,0.1,0.3,0.3,0.3,0.6c0,0.2,0,0.3,0.1,0.3c0.1,0,0.2,0,0.4,0
	c0.8-0.1,1.2-0.3,1.4-0.5c0.2-0.2,0.3-0.7,0.3-1.4c-0.1-2-0.1-3.3,0-3.8c0.1-0.6,0.2-0.9,0.5-1.1c0.2-0.1,0.3-0.3,0.2-0.5
	c-0.1-0.2-0.4-0.4-0.9-0.8c-0.5-0.4-0.8-0.6-1-0.6c-0.1,0-0.3,0.1-0.6,0.4c0,0-0.1,0.1-0.1,0.2c-0.2,0.3-0.4,0.4-0.7,0.5
	c-0.2,0-1,0-2.2,0c-0.4,0-0.7,0-0.9,0c-1.5,0-2.4,0-2.7,0c-0.3,0-0.6,0-0.7-0.1c-0.8-0.3-1.5-0.6-1.9-0.8s-0.8-0.5-1.1-0.8
	c-0.5-0.5-0.8-0.7-0.9-0.7c-0.1,0-0.3,0.2-0.6,0.5c-0.2,0.4-0.4,0.6-0.6,0.7c-0.1,0.1-0.2,0.1-0.3,0c0,0-0.1-0.2-0.1-0.3
	c0-0.2,0-0.6,0-1.4c0-0.9,0-1.4,0-1.6c0-0.2,0.1-0.4,0.3-0.5c0.3-0.2,0.2-0.4-0.1-0.5c-0.3-0.2-1-0.4-2.1-0.6l0,0
	c-0.3-0.1-0.4-0.1-0.4,0c0,0,0,0.3,0,0.6c0.1,0.9,0.2,1.8,0.2,2.7c0,1,0,1.5-0.1,1.6c-0.1,0.2-0.3,0.3-0.6,0.3c-0.3,0-0.9,0-1.7-0.1
	c0,0,0,0-0.1,0c-0.3,0-0.4,0-0.5,0c0,0,0,0.2,0.1,0.4c0,0,0,0.1,0,0.1c0,0,0,0,0,0.1c0.1,0.2,0.2,0.4,0.2,0.4c0.1,0,0.2,0,0.5-0.1
	c0,0,0.1,0,0.1,0c0.7-0.2,1.1-0.2,1.3-0.2c0.3,0.1,0.5,0.3,0.6,0.7c0.1,0.3,0.1,1,0.1,2c0,0.1,0,0.3,0,0.6c0,0.8,0,1.3-0.1,1.5
	c-0.1,0.3-0.3,0.5-0.6,0.7c-0.2,0.1-0.8,0.3-1.6,0.5c-0.3,0.1-0.5,0.1-0.7,0.2c-0.1,0-0.2,0.1-0.2,0.2c0,0.1,0.1,0.5,0.3,1.1
	c0,0,0,0.1,0,0.1c0.3,0.8,0.4,1.2,0.5,1.3c0.1,0.1,0.2,0,0.3-0.2s0.4-0.5,0.9-0.7c0.4-0.2,0.7-0.3,0.9-0.2c0.1,0.1,0.2,0.2,0.2,0.5
	c0,0.2,0,1,0,2.4c0,0.1,0,0.3,0,0.6c0,1.1,0,1.8,0,2c-0.1,0.4-0.2,0.6-0.4,0.7c-0.2,0-0.6,0-1.2,0c-0.1,0-0.2,0-0.3,0
	c-0.5,0-0.7,0-0.8,0c-0.1,0.1,0,0.2,0.4,0.3c0.5,0.1,0.8,0.3,1.1,0.6c0.3,0.3,0.4,0.7,0.6,1.2C227.2,46.9,227.3,47.1,227.3,47.1z
	 M238.9,37.1c-2,0-3,0-3.1-0.1c-0.2-0.2-0.3-0.5-0.3-1.1c0-0.6,0.2-0.9,0.4-1c0.1-0.1,1.1-0.1,3-0.1c1.9,0,2.9,0,3,0.1
	c0.2,0.1,0.4,0.5,0.4,1c0,0.5-0.1,0.9-0.3,1.1C241.9,37.1,240.9,37.1,238.9,37.1z M238.9,34.2c-2,0-3,0-3.1-0.1
	c-0.2-0.2-0.3-0.5-0.3-1.1c0-0.6,0.2-0.9,0.4-1c0.1-0.1,1.1-0.1,3-0.1c1.9,0,2.9,0,3,0.1c0.2,0.1,0.4,0.5,0.4,1
	c0,0.5-0.1,0.9-0.3,1.1C241.9,34.1,240.9,34.2,238.9,34.2z M235.6,30.4c0.1,0.1,0.4,0,0.9-0.1c0.4-0.1,0.8-0.2,0.9-0.4
	c0.1-0.1,0.1-0.1,0.1-0.2c0,0,0-0.2,0-0.5c0-0.4,0.1-0.7,0.2-0.8c0.1-0.1,0.5-0.1,1.2-0.1c0.6,0,1,0,1.2,0.1s0.2,0.4,0.2,0.9
	c0,0.3,0,0.6,0,0.6s0.1,0.2,0.2,0.2c0.2,0.1,0.6,0,1-0.1c0.5-0.2,0.7-0.4,0.7-0.5v-0.1c0-0.2,0-0.3,0-0.4c0-0.4,0.1-0.6,0.3-0.6
	c0.2-0.1,0.8-0.1,1.8-0.1c1.2,0,1.8-0.1,1.9-0.3s-0.2-0.6-1-1.3c-0.4-0.4-0.7-0.6-0.9-0.6c-0.1,0-0.4,0.2-0.7,0.7l0,0
	c-0.4,0.6-0.8,0.8-1.1,0.6c-0.2-0.1-0.3-0.3-0.3-0.7c0-0.4,0.2-0.6,0.4-0.8c0.2-0.2,0.2-0.3,0-0.5c-0.2-0.1-0.8-0.3-1.7-0.6
	c-0.4-0.1-0.6-0.2-0.7-0.1c-0.1,0-0.1,0.1-0.1,0.4c0.2,1.3,0.1,2-0.1,2.2c-0.1,0.1-0.5,0.1-1.1,0.1c-0.6,0-1,0-1.1-0.1
	c-0.2-0.1-0.3-0.4-0.3-0.7c0-0.4,0.2-0.6,0.4-0.8c0.2-0.2,0.1-0.3-0.1-0.5c-0.3-0.1-0.8-0.3-1.7-0.6c0,0,0,0-0.1,0
	c-0.3-0.1-0.5-0.1-0.6-0.1c0,0-0.1,0.2,0,0.5v0.1c0.1,0.8,0.1,1.4,0,1.6c-0.1,0.3-0.4,0.5-0.8,0.6c-0.4,0-1.1,0-2.2-0.1
	c-0.2,0-0.2,0-0.3,0c0,0,0.1,0.2,0.2,0.6c0,0,0,0,0,0.1c0.1,0.2,0.2,0.4,0.3,0.4c0.1,0,0.3,0,0.6-0.1h0c0.8-0.2,1.4-0.2,1.7-0.1
	c0.3,0.1,0.4,0.4,0.4,1C235.4,30,235.5,30.3,235.6,30.4z M272.9,47.1c0.5,0.1,0.8-0.1,1.1-0.5c0.3-0.4,0.3-0.9,0.2-1.6
	c-0.3-1.7-1.7-3.1-4.1-4.3c-0.6-0.3-1-0.4-1.1-0.4c-0.1,0,0,0.2,0.3,0.6c0.8,1.1,1.3,1.8,1.4,2.1c0.1,0.3-0.2,0.5-0.7,0.6
	c-0.5,0-1.3,0.1-2.6,0.1c-1.3,0-2,0-2.1,0c-0.3,0-0.4-0.1-0.4-0.3c0-0.2,0.2-0.5,0.6-1c1.9-2.2,3.6-4.6,5.3-7.3
	c0.3-0.4,0.5-0.7,0.8-0.7c0.3-0.1,0.3-0.2,0-0.4c-0.3-0.2-0.9-0.5-1.9-1c0,0,0,0-0.1,0c-0.3-0.1-0.5-0.2-0.5-0.1
	c-0.1,0-0.1,0.2-0.2,0.5c0,0,0,0.1,0,0.1c-0.6,1.9-2.1,4.9-4.4,9.1c0,0-0.1,0.1-0.1,0.2c-0.3,0.5-0.6,0.8-0.7,0.9
	c-0.2,0.1-0.7,0.1-1.5,0.1c-0.1,0-0.2,0-0.3,0c-0.1,0-0.3,0-0.5,0c-0.6,0-1,0-1,0.1s0,0.4,0.2,0.8c0.1,0.2,0.1,0.3,0.2,0.4
	c0.3,0.8,0.5,1.3,0.6,1.4c0.1,0.1,0.2,0.1,0.4-0.1c0.1-0.1,0.3-0.2,0.6-0.3c0.3-0.1,0.9-0.2,1.8-0.4c1.3-0.3,2.8-0.6,4.5-1
	c0.4-0.1,0.6-0.1,0.8-0.2c0.8-0.2,1.3-0.3,1.5-0.3c0.3,0,0.6,0.1,0.7,0.4c0.1,0.2,0.3,0.7,0.5,1.5c0.1,0.3,0.2,0.6,0.3,0.7
	C272.4,47,272.6,47.1,272.9,47.1z M255.8,47.1c0.1,0.1,0.3,0.1,0.7,0c0.4-0.1,0.8-0.2,1.1-0.3c0.7-0.4,1.3-1.1,1.6-2.2
	c0.4-1.2,0.6-3,0.8-5.4c0-0.7,0.1-1.1,0.2-1.3c0.1-0.2,0.2-0.3,0.5-0.5c0.3-0.1,0.3-0.3,0.2-0.5c-0.1-0.2-0.5-0.5-1-1
	c-0.4-0.3-0.6-0.5-0.7-0.5s-0.3,0.2-0.6,0.5c-0.3,0.3-0.5,0.5-0.7,0.6c-0.2,0-0.6,0.1-1.2,0.1c0,0-0.1,0-0.2,0c-0.5,0-0.8,0-0.9-0.1
	c-0.2-0.1-0.3-0.2-0.3-0.5c0-0.2,0-0.6,0.1-1.3c0-0.1,0-0.2,0-0.2c0-0.1,0-0.2,0-0.3c0.1-0.7,0.1-1.2,0.1-1.3
	c0.1-0.3,0.2-0.4,0.3-0.5c0.1,0,0.4-0.1,0.8-0.1c0.1,0,0.1,0,0.2,0c0.5,0,0.9,0,1,0.1c0.2,0.1,0.2,0.3,0.2,0.6
	c0,0.2,0.2,0.3,0.5,0.3c0.3,0,0.7-0.1,1.2-0.3l0,0c0.2-0.1,0.3-0.2,0.4-0.3c0-0.1,0.1-0.4,0-1c0-0.1,0-0.1,0-0.2c0-0.9,0-1.4,0-1.7
	c0.1-0.2,0.3-0.2,0.5,0.2c0.1,0.1,0.1,0.2,0.2,0.2c0,0,0.2,0,0.4,0c0.1,0,0.1,0,0.1,0c0.9-0.1,1.8-0.2,2.5-0.2c0.6,0,0.9,0,1,0.1
	c0.2,0.1,0.3,0.3,0.2,0.6c0,0.2-0.2,0.7-0.5,1.5c-0.4,1-0.6,1.6-0.7,1.9c-0.2,0.4-0.3,0.6-0.5,0.6c-0.1,0-0.3,0-0.7-0.2
	c-1.7-0.7-2.3-0.7-1.5,0c1.2,1.2,2.1,2.5,2.5,3.8c0.1,0.3,0.2,0.5,0.3,0.6s0.3,0.2,0.6,0.2c0.6,0,1-0.4,1-1.1
	c0.1-0.7-0.2-1.4-0.8-2.1c-0.3-0.3-0.4-0.6-0.4-0.7c0-0.2,0.2-0.5,0.6-0.9c0.8-1,1.5-1.7,1.9-2.3c0.4-0.5,0.7-0.8,1-1
	c0.3-0.1,0.3-0.3,0-0.4c-0.3-0.1-0.4-0.3-0.3-0.4c0.1-0.1,0.3-0.1,0.6-0.2c0.4,0,1.3,0,2.7,0c1.4,0,2.3,0,2.7-0.1
	c0.5-0.1,0.6-0.2,0.5-0.5c-0.1-0.2-0.6-0.6-1.4-1.3l0,0c-0.4-0.4-0.7-0.6-0.9-0.6c-0.1,0-0.4,0.2-0.7,0.7l0,0
	c-0.4,0.5-0.6,0.8-0.8,0.9s-0.5,0.1-1.1,0.1c-0.6,0-1-0.1-1.1-0.2s-0.2-0.6-0.2-1.3c0-0.6,0-1,0-1.1c0-0.2,0.1-0.3,0.3-0.5
	c0.2-0.2,0.2-0.3,0.1-0.4s-0.5-0.2-1.1-0.4c-1.3-0.4-1.9-0.4-1.9-0.2c0.1,0.2,0.1,0.8,0.2,2c0,1.1,0,1.7,0,1.8
	c-0.1,0.2-0.6,0.3-1.5,0.3s-2,0-3.4-0.1c-0.3,0-0.4,0-0.5,0c-0.1,0-0.1,0-0.2-0.2c0-0.2-0.1-0.4-0.1-0.7c0-0.3,0-0.5,0.1-0.6
	c0.1-0.1,0.2-0.3,0.5-0.4c0.2-0.1,0.3-0.3,0.1-0.6c-0.2-0.3-0.6-0.6-1.2-1.1c-0.3-0.3-0.6-0.4-0.7-0.4c-0.1,0-0.3,0.2-0.5,0.6
	c-0.3,0.4-0.8,0.6-1.5,0.7c-0.7,0.1-1.8,0-3.4-0.1c-0.4,0-0.6,0-0.6,0c0,0,0,0.2,0.2,0.5c0,0,0,0.1,0.1,0.1c0.1,0.2,0.2,0.4,0.2,0.4
	c0.1,0,0.2,0,0.4,0c0,0,0.1,0,0.1,0c2.6-0.4,4-0.3,4.1,0.2c0.1,0.2,0.1,0.8,0.1,1.9c0,1.1-0.1,1.7-0.1,1.8c-0.2,0.3-0.5,0.4-1.1,0.4
	c-0.6,0-1.3-0.2-2.2-0.6c-0.1,0-0.2,0-0.3-0.1c-0.5-0.2-0.8-0.3-0.8-0.3c0,0-0.1,0.3,0,1c0,1.4-0.1,3.4-0.4,5.9c0,0,0,0.1,0,0.2
	c-0.1,0.5-0.1,0.8,0,0.9s0.2,0.1,0.6,0.1c0.1,0,0.1,0,0.2,0c0.5,0,0.8,0,0.9-0.1c0.2-0.1,0.3-0.3,0.3-0.6c0.1-0.4,0.2-0.6,0.3-0.7
	c0.2-0.1,0.6-0.1,1.2-0.1c0,0,0.1,0,0.1,0c0.5,0,0.9,0,1,0.1c0.2,0.1,0.3,0.3,0.3,0.6c0,0.2,0,0.7-0.1,1.6c0,0.1,0,0.2,0,0.2
	c-0.1,1.6-0.3,2.8-0.5,3.5c-0.2,0.8-0.4,1.3-0.8,1.5c-0.3,0.2-0.8,0.3-1.5,0.3c-0.1,0-0.2,0-0.4,0c-0.4,0-0.7,0-0.8,0
	c-0.3,0-0.5,0-0.5,0c0,0.1,0,0.1,0.1,0.2c0.1,0,0.3,0.1,0.5,0.2c1.1,0.3,1.6,0.9,1.6,1.7C255.7,47,255.7,47.1,255.8,47.1z
	 M39.8,70.3c0.9,0.7,1.3,0.9,1.3,0.6c0-0.3,0.2-0.6,0.6-1s0.7-0.7,1.1-0.9c0.3-0.1,0.4-0.2,0.4-0.3c0-0.1-0.2-0.2-0.5-0.3
	c-1.3-0.5-2.5-1.3-3.7-2.3c-0.4-0.3-0.6-0.6-0.6-0.7c0-0.2,0.1-0.5,0.3-0.9c1-1.7,1.7-3.6,2.3-5.7c0.1-0.6,0.3-1,0.4-1.1
	c0.1-0.2,0.2-0.3,0.5-0.3c0.3-0.1,0.4-0.2,0.3-0.4c-0.1-0.2-0.3-0.5-0.8-1c-0.5-0.5-0.8-0.8-1-0.8c-0.1,0-0.4,0.1-0.7,0.5
	c0,0-0.1,0.1-0.2,0.2c-0.3,0.3-0.5,0.4-0.7,0.5c-0.2,0-0.9,0.1-1.9,0.1c-0.3,0-0.5,0-0.7,0c-0.2,0-0.5,0-0.9,0c-0.8,0-1.3,0-1.6,0
	c-0.3,0-0.5-0.2-0.6-0.4c0-0.2-0.1-0.6,0-1.2c0-0.3,0-0.5,0-0.7c0-0.2,0-0.5,0-0.8c0-0.6,0-0.9,0.1-1.1c0.1-0.2,0.4-0.4,0.8-0.4
	c0.3,0,1.1,0,2.3,0c0.7,0,1.2,0,1.7,0c1.8,0,2.9,0,3.4,0c0.7,0,1.1,0,1.2-0.1c0.1,0,0.2-0.1,0.2-0.2c0.1-0.3-0.4-0.8-1.3-1.5
	c-0.4-0.3-0.7-0.5-0.8-0.5c-0.1,0-0.3,0.2-0.6,0.6l0,0c0,0-0.1,0.1-0.1,0.2c-0.2,0.4-0.5,0.6-0.7,0.7c-0.3,0.1-1,0.1-2.2,0.1
	c-0.3,0-0.5,0-0.6,0s-0.3,0-0.6,0c-1.1,0-1.8,0-2.1,0c-0.3,0-0.7-0.2-1.2-0.4c-0.1-0.1-0.3-0.1-0.4-0.1c0,0-0.1,0-0.2-0.1
	c-0.4-0.2-0.7-0.2-0.7-0.2c-0.1,0-0.1,0.2-0.1,0.5c0,0.1,0,0.1,0,0.1c0,0.6,0.1,1.3,0.1,2.2c0,0.9,0,1.4,0,1.5
	c-0.1,0.2-0.2,0.2-0.3,0.2c-0.1,0-0.4-0.3-0.8-0.7l0,0c-0.5-0.5-0.8-0.7-1-0.7c-0.1,0-0.3,0.2-0.6,0.6c-0.3,0.5-0.6,0.7-0.7,0.7
	c-0.2,0-0.3-0.7-0.3-2c0-1.4,0.1-2.1,0.4-2.3c0.3-0.2,0.2-0.4-0.1-0.5c-0.3-0.2-1-0.4-2-0.6c-0.3-0.1-0.4-0.1-0.5,0c0,0,0,0.2,0,0.5
	c0.2,1.3,0.2,2.5,0.2,3.5c0,1-0.1,1.5-0.3,1.7c-0.1,0.1-0.6,0.1-1.5,0.1c-0.8,0-1.4-0.1-1.8-0.2c-0.2,0-0.2,0.2,0.1,0.6l0,0
	c0.1,0.3,0.2,0.4,0.3,0.5c0,0,0.1,0,0.3,0h0c0.4-0.1,0.8-0.2,1.2-0.2c0.4,0,0.7,0,0.9,0c0.1,0.1,0.2,0.2,0.2,0.4
	c0,0.2,0,0.5-0.1,0.9c-0.7,3.3-1.7,6-3,8.1c-0.2,0.3-0.2,0.4-0.3,0.5c0,0.1,0,0.1,0.1,0.2c0.1,0.1,0.4-0.2,1-0.8
	c0.6-0.6,1.2-1.4,1.7-2.3c0.3-0.5,0.5-0.8,0.7-0.9c0.1-0.1,0.2,0,0.3,0.2c0.1,0.2,0.1,1.2,0.1,3c0,1.8-0.1,3.4-0.2,4.7
	c0,0.6-0.1,1-0.1,1.2c0,0.1,0,0.2,0.1,0.3c0.1,0.1,0.2,0.2,0.3,0.2c0.2,0.1,0.6,0,1-0.1c0.4-0.1,0.7-0.3,0.9-0.5
	c0.1-0.1,0.1-0.2,0.1-0.3c0-0.1,0-0.5,0-1.2c0-1-0.1-2.8-0.1-5.6c0-2.7,0-4.2,0-4.3c0.1-0.2,0.2-0.3,0.3-0.2
	c0.1,0.1,0.3,0.3,0.4,0.6c0.1,0.2,0.2,0.5,0.4,1c0.1,0.4,0.2,0.6,0.2,0.7c0,0.3,0.2,0.5,0.5,0.6c0.4,0.1,0.7,0,0.9-0.2
	c0.5-0.4,0.5-1.1,0.1-1.8c-0.4-0.8-1.1-1.4-2.1-2c-0.4-0.2-0.6-0.4-0.6-0.5c-0.1-0.1-0.1-0.4-0.1-0.9c0,0,0,0,0-0.1
	c0-0.5,0.1-0.8,0.2-0.9c0.1-0.1,0.6-0.1,1.5-0.1c0,0,0.1,0,0.1,0c0,0,0.1,0,0.1,0c0.9,0,1.4-0.1,1.5-0.1c0.1-0.1,0.2-0.1,0.2,0
	s0.1,0.1,0.1,0.3c0,0.1,0,0.9,0,2.2c0,1.3,0,2.2-0.1,2.4c0,0.3-0.1,0.7-0.1,1.2c-0.1,1.6-0.4,3.3-0.8,4.9c-0.4,1.6-1,3-1.7,4.2
	c-0.1,0.2-0.2,0.4-0.2,0.5c0,0.1,0,0.1,0.1,0.1c0.1,0.1,0.5-0.2,1.1-1c0.6-0.7,1.1-1.4,1.5-2.2c0.7-1.2,1.2-2.5,1.5-4
	c0.3-1.5,0.6-3.2,0.7-5.4v0c0-0.7,0.1-1,0.1-1.2c0-0.1,0.1-0.2,0.3-0.3c0.2-0.1,0.3,0,0.4,0.1c0.1,0.1,0.2,0.4,0.2,0.9
	c0.3,2.2,0.9,4.3,1.6,6.2c0.3,0.6,0.4,1,0.3,1.2c0,0.2-0.3,0.6-0.8,1.3c-1.2,1.5-2.6,2.7-4.2,3.7l0,0c-0.2,0.1-0.4,0.2-0.4,0.3
	c0,0,0,0.1,0,0.2c0.1,0.2,0.9,0,2.2-0.8c1.4-0.8,2.4-1.5,3.2-2.2c0.5-0.5,0.9-0.7,1-0.7c0.2,0,0.4,0.3,0.8,0.8
	C38.2,68.8,39,69.5,39.8,70.3z M37.1,63.2c-0.3,0.3-0.7,0-1.2-1c-0.5-1-1-2.3-1.4-3.8c0,0,0-0.1,0-0.1c-0.1-0.5-0.2-0.8-0.1-0.9
	c0-0.2,0.2-0.3,0.5-0.3c0.2,0,0.7,0,1.6,0c0.1,0,0.2,0,0.2,0c1.1,0,1.7,0,1.9,0c0.2,0,0.3,0.1,0.4,0.3c0.1,0.3-0.1,1.3-0.6,2.9
	C37.8,61.9,37.4,62.9,37.1,63.2z M58.1,62.9c0.1,0.2,0.2,0.3,0.4,0.3c0.2,0,0.5-0.2,0.9-0.6c0.9-0.7,1.6-1.6,2-2.8
	c0.4-1.1,0.4-2.1,0.1-2.9c-0.3-0.9-0.9-1.3-1.8-1.2c-0.6,0-1,0.3-1.3,0.7c-0.2,0.4-0.3,0.9-0.1,1.4c0.2,0.5,0.5,1,1.1,1.3
	c0.3,0.2,0.5,0.3,0.6,0.5c0.1,0.1,0.1,0.2,0.1,0.4c-0.1,0.4-0.3,0.8-0.6,1.3c-0.4,0.5-0.8,0.8-1.2,1.2c-0.2,0.1-0.3,0.2-0.3,0.3
	C57.9,62.6,58,62.8,58.1,62.9z M91.4,71.1c0,0.1,0.4,0.1,1.1-0.1c0.7-0.1,1.2-0.3,1.6-0.6c0.4-0.3,0.6-0.7,0.7-1.2
	c0.1-0.2,0.1-2.9,0.1-8.3c0-0.2,0-0.4,0-0.5c0-5.6,0-8.5,0.1-8.5c0.1-0.1,0.2-0.2,0.4-0.2c0.2,0,0.6-0.1,1.4-0.1
	c1.1,0,1.6-0.1,1.7-0.3c0-0.2-0.4-0.7-1.4-1.5c0,0,0,0-0.1-0.1c-0.5-0.4-0.8-0.6-1-0.6c-0.1,0-0.4,0.3-0.7,0.7c0,0-0.1,0.1-0.1,0.1
	c-0.4,0.5-0.7,0.8-0.9,0.9c-0.2,0-2.7,0-7.7,0c-5.2,0-8.3,0-9.3-0.1c-0.2,0-0.3,0-0.3,0c0,0,0.1,0.2,0.2,0.6c0,0,0,0.1,0,0.1
	c0.1,0.2,0.2,0.4,0.3,0.4c0.1,0,0.2,0,0.6,0c0.7-0.1,1.4-0.2,2.1-0.2c0.7,0,2.6,0,5.9,0c0.3,0,0.8,0,1.3,0c2.6,0,4.1,0,4.5,0
	c0.4,0,0.7,0.1,0.8,0.2l0,0c0.1,0.1,0.1,2.8,0.1,8.1c0,5.3,0,8-0.1,8.2c-0.1,0.2-0.3,0.3-0.6,0.4c-0.3,0-1.1,0-2.5-0.1
	c-0.8,0-1.3-0.1-1.4-0.1c-0.1,0-0.2,0.1-0.2,0.1c0,0.1,0.2,0.2,0.5,0.2c1.8,0.3,2.8,1,3,2.1l0,0C91.3,71,91.4,71.1,91.4,71.1z
	 M79.7,66.3c0.3,0.2,0.7,0.1,1.3-0.1c0.5-0.3,0.8-0.6,0.8-0.9c0,0,0,0,0-0.1c-0.1-0.6-0.1-1,0-1.2c0-0.2,0.2-0.4,0.6-0.4
	c0.2,0,0.8-0.1,1.7-0.1c0,0,0.1,0,0.1,0c0,0,0.1,0,0.2,0c0.8,0,1.3,0,1.5,0c0.3,0,0.5,0.1,0.6,0.3c0,0.1,0.1,0.3,0,0.6v0.1
	c0,0.5,0.1,0.8,0.4,0.9c0.3,0.1,0.8,0,1.4-0.4l0,0c0.3-0.1,0.4-0.2,0.4-0.4s0-0.4,0-1c0-0.6-0.1-1.8-0.1-3.6c0-1.8,0-2.8,0-2.9
	c0.1-0.3,0.2-0.5,0.5-0.6c0.3-0.1,0.4-0.2,0.3-0.4s-0.2-0.4-0.6-0.7c-0.7-0.6-1.1-1-1.3-1.1c-0.2-0.1-0.4,0.1-0.7,0.4
	c0,0-0.1,0.1-0.1,0.2c-0.2,0.3-0.5,0.5-0.6,0.6c-0.2,0-0.7,0.1-1.6,0.1c-0.2,0-0.4,0-0.5,0s-0.3,0-0.5,0c-0.8,0-1.4,0-1.6,0
	c-0.2,0-0.6-0.2-1.1-0.4c-0.1,0-0.2-0.1-0.2-0.1c0,0-0.1-0.1-0.2-0.1c-0.4-0.2-0.7-0.3-0.8-0.3c-0.1,0-0.1,0.2,0,0.5
	c0,0.1,0,0.1,0,0.1c0.1,1.1,0.2,2.7,0.2,4.6c0,1.9,0,3.6-0.1,5.2c0,0.4,0,0.7,0,0.8C79.5,66.1,79.6,66.2,79.7,66.3z M84.1,62.8
	c-1.3,0-2,0-2.1-0.1c-0.1-0.1-0.2-0.3-0.3-0.6c0-0.3,0-1.2,0-2.6c0-0.2,0-0.5,0-0.9c0-0.8,0-1.3,0-1.6c0.1-0.3,0.2-0.5,0.5-0.6
	c0.2,0,0.6-0.1,1.2,0c0.3,0,0.5,0,0.7,0s0.4,0,0.7,0c0.6,0,1,0,1.2,0c0.2,0.1,0.4,0.3,0.5,0.6c0,0.2,0,0.7,0,1.6c0,0.4,0,0.7,0,0.9
	c0,1.5,0,2.4,0,2.6c0,0.3-0.1,0.5-0.2,0.6C86,62.8,85.3,62.8,84.1,62.8z M110,71c0,0.1,0.2,0.1,0.5,0c0.3-0.1,0.9-0.3,1.8-0.6
	c2.8-1.1,5.2-2.5,7.1-4.4c0.4-0.4,0.7-0.6,0.8-0.7c0.2-0.1,0.4-0.1,0.6,0.1c0.1,0.1,0.4,0.5,0.9,1.1c0.8,1.1,1.5,2.2,2,3.2
	c0.3,0.5,0.4,0.8,0.5,0.9c0.1,0.1,0.3,0.2,0.6,0.3c0.6,0.1,0.9-0.1,1.2-0.6c0.2-0.5,0.2-1.1-0.1-1.8c-0.5-1.3-1.8-2.6-3.8-3.6
	c-0.5-0.3-0.8-0.5-0.9-0.6c0-0.2,0-0.5,0.3-0.9c0.7-1.3,1.3-2.8,1.6-4.3c0.3-1.5,0.6-3.6,0.7-6.3c0-0.6,0-1,0.1-1.2
	c0.1-0.2,0.2-0.3,0.3-0.4c0.3-0.2,0.3-0.3,0-0.4c-0.3-0.1-1-0.2-2.1-0.4c-0.4,0-0.7-0.1-0.8,0c-0.1,0-0.1,0.1-0.1,0.1
	c0.1,0.3,0.1,1.4,0.1,3.2c-0.1,4.1-0.9,7.5-2.5,10.1c-1.6,2.6-4.3,4.8-8,6.6c-0.5,0.2-0.7,0.4-0.8,0.4C110,70.8,110,70.9,110,71z
	 M105.8,69.2c0.1,0.1,0.2,0,0.3-0.1c0.2-0.2,0.4-0.4,0.6-0.5c0.2-0.1,0.8-0.4,1.6-0.9c1.8-0.9,3.5-1.8,5.1-2.7
	c1.6-1,2.5-1.5,2.5-1.6c0-0.1-0.1-0.1-0.3-0.1c-0.2,0-1,0.3-2.3,0.7c-1.4,0.4-2.2,0.7-2.5,0.8c-0.3,0.1-0.5,0.1-0.6,0
	c-0.1-0.1-0.2-0.5-0.2-1.1c0-0.7-0.1-2.7-0.1-5.9c0-0.3,0-0.8,0-1.4c0-1.9,0-3.2,0-3.7c0-0.7,0-1.2,0-1.4c0-0.1,0.1-0.3,0.2-0.3l0,0
	c0.2-0.2,0.2-0.3,0.1-0.4c-0.2-0.1-0.6-0.2-1.2-0.2c-0.9-0.1-1.3-0.1-1.3,0c0,0.1,0,2.6,0.1,7.3c0,0.3,0,0.6,0,1.1
	c0,3.3,0.1,5.3,0.1,5.9c0,0.6,0,0.9-0.1,1c-0.1,0.2-1,0.6-2.5,0.9c-0.4,0.1-0.5,0.1-0.5,0.2c0,0,0.2,0.4,0.5,1.2
	C105.6,68.7,105.8,69.1,105.8,69.2z M116.3,58.9c0.5,0.2,1,0,1.2-0.4c0.3-0.4,0.3-1,0-1.7c-0.5-1.4-1.9-2.6-4.2-3.5
	c-0.5-0.2-0.8-0.3-0.8-0.2c0,0.1,0.1,0.3,0.5,0.7c1.3,1.6,2.1,3,2.6,4.3C115.8,58.5,116,58.8,116.3,58.9z M136.9,71.1
	c0.1,0.1,0.1,0.1,0.2,0c0.1,0,0.4-0.1,0.8-0.3c2-0.8,3.7-1.8,4.9-3.1c1.2-1.3,2.2-3,2.9-5c0.7-2,1.1-4.6,1.3-7.8
	c0-0.2,0-0.6,0.1-1.1c0-0.2,0-0.4,0-0.5c0,0,0,0,0-0.1c0-0.4,0.1-0.6,0.1-0.7c0.1-0.1,0.2-0.2,0.5-0.2c0.2,0,0.6,0,1.3,0
	c0,0,0.1,0,0.1,0c0.1,0,0.3,0,0.5,0c0.6,0,1,0,1.2,0.1c0.2,0.1,0.3,0.4,0.4,0.9c0,0.3,0,1.1,0,2.3c0,0.4,0,0.7,0,1
	c-0.2,4.3-0.4,7.2-0.8,8.7c-0.3,1.5-0.8,2.4-1.5,2.5c-0.2,0-0.7,0-1.5,0c-0.8,0-1.4-0.1-1.6-0.1c-0.1,0-0.2,0-0.3,0.1s0,0.2,0.1,0.2
	c0,0,0.2,0,0.5,0.1c0.8,0.2,1.3,0.5,1.6,0.7c0.3,0.3,0.5,0.7,0.5,1.2c0,0.3,0.1,0.4,0.2,0.5c0.1,0,0.4,0,0.9-0.1
	c1-0.2,1.8-0.8,2.3-1.6c0.5-0.9,1-2.5,1.2-4.7c0.3-2,0.5-5.2,0.6-9.5c0-0.9,0.1-1.5,0.1-1.7c0.1-0.2,0.2-0.4,0.6-0.5
	c0.3-0.1,0.4-0.2,0.3-0.3c0-0.1-0.2-0.4-0.6-0.8c-0.8-0.8-1.2-1.1-1.4-1.1c-0.1,0-0.3,0.2-0.7,0.6c-0.4,0.4-0.7,0.7-0.8,0.7
	c-0.2,0.1-1.9,0.1-4.9,0c-3.1,0-4.8-0.1-5.2-0.2c-0.1,0-0.2,0-0.2,0c0,0,0.1,0.2,0.2,0.4c0.2,0.3,0.3,0.5,0.3,0.6
	c0.1,0.1,0.1,0.1,0.2,0.1c0,0,0.1,0,0.3,0c0.2,0,0.3-0.1,0.4-0.1c1.2-0.2,2-0.3,2.4-0.1c0.4,0.1,0.6,0.6,0.6,1.3
	c-0.1,4.7-0.8,8.3-2,11c-1.2,2.6-3,4.6-5.5,5.9c-0.3,0.1-0.4,0.2-0.5,0.3C136.8,70.9,136.8,71,136.9,71.1z M136.5,65.5
	c0.2,0,0.9,0.1,2.1,0c1.1,0,1.8-0.1,2.1-0.1c0.7-0.2,1.2-0.4,1.5-0.8c0.2-0.4,0.2-0.8-0.2-1.2c-0.2-0.2-0.3-0.4-0.3-0.5
	c0-0.2-0.1-0.6-0.1-1.4c0-0.9-0.1-1.4-0.1-1.4c-0.1-0.1-0.2,0.1-0.3,0.6c-0.2,1-0.4,1.6-0.5,1.9c-0.1,0.4-0.4,0.6-0.6,0.7
	c-0.2,0.1-0.6,0.1-1.3,0.1c-0.1,0-0.2,0-0.3,0c-0.4,0-0.6-0.1-0.7-0.1c-0.1-0.1-0.2-0.3-0.3-0.7c0-0.3,0-0.9,0-1.8
	c0-0.3,0-0.5,0-0.6c0-0.2,0-0.6,0-1c0-0.8,0-1.3,0-1.5c0.1-0.3,0.2-0.5,0.5-0.6c0.2-0.1,0.7-0.2,1.4-0.3c0.4-0.1,0.7-0.1,1-0.2
	c1.3-0.3,2.1-0.4,2.4-0.6c0.4-0.1,0.6-0.3,0.5-0.5c-0.1-0.1-0.5-0.4-1.1-0.9l0,0c-0.5-0.4-0.8-0.6-1-0.6c-0.2-0.1-0.4,0-0.5,0.1
	c-0.1,0.1-0.2,0.4-0.4,0.9l0,0c-0.2,0.5-0.3,0.8-0.5,0.9c-0.1,0.1-0.5,0.2-1,0.3c0,0-0.1,0-0.2,0c-0.4,0.1-0.7,0.1-0.8,0.1
	c-0.2-0.1-0.3-0.3-0.3-0.6c0-0.2,0-0.8,0-1.8c0-0.2,0-0.4,0-0.5c0-1.3,0-2,0-2.3c0-0.2,0.1-0.4,0.3-0.5c0.5-0.3-0.1-0.6-1.9-1.1
	c0,0,0,0-0.1,0c-0.3-0.1-0.4-0.1-0.5-0.1c0,0,0,0.2,0,0.5c0,0,0,0.1,0,0.1c0.1,0.8,0.1,2.1,0.1,3.8c0,1.7,0,2.6-0.1,2.8
	c-0.1,0.1-0.2,0.2-0.4,0.3c-0.2,0-0.6,0.1-1.2,0.3c0,0-0.1,0-0.2,0c-0.5,0.1-0.9,0.2-0.9,0.2c-0.1,0-0.1,0.2,0,0.3
	c0.1,0.1,0.2,0.2,0.2,0.2c0.1,0,0.4,0,0.8-0.1h0c0.1,0,0.2,0,0.4-0.1c0.5-0.1,0.8-0.1,0.9-0.1c0.2,0.1,0.3,0.3,0.3,0.7
	c0,0.3,0,1,0,2c0,0.4,0,0.7,0,0.9c0,1.5,0,2.5,0.1,2.9c0,0.6,0.2,1,0.3,1.2C135.8,65.3,136.1,65.4,136.5,65.5z M162.7,71.1
	c0,0,0.3,0,0.7,0c0.9-0.2,1.5-0.6,1.8-1.3c0.1-0.2,0.1-0.4,0.1-0.8c0-0.4,0-1.6,0-3.7c0-0.2,0-0.5,0-0.8c0-1.8,0-2.8,0-3.1
	c0-0.3,0.1-0.5,0.2-0.6l0.1,0c0,0,0.3-0.3,0.9-0.6c0.1-0.1,0.2-0.1,0.3-0.2c0.8-0.5,1.2-0.8,1.2-0.9c0-0.1-0.1-0.1-0.2-0.1
	c-0.1,0-0.4,0.1-0.9,0.2l0,0c-0.6,0.2-0.9,0.3-1.1,0.3c-0.2,0-0.3-0.1-0.4-0.4c0-0.2,0-0.7,0-1.5c0,0,0-0.1,0-0.1c0,0,0-0.1,0-0.1
	c0-0.7,0-1.2,0-1.4c0-0.3,0.1-0.5,0.3-0.5c0.1,0,0.4-0.1,0.8,0c0,0,0.1,0,0.1,0c0.7,0,1,0.1,1.1,0.3c0.1,0.2-0.1,0.5-0.6,1.1
	c-0.2,0.3-0.3,0.4-0.3,0.5c0.1,0.1,0.3,0,0.6-0.2c0.4-0.3,0.7-0.4,0.8-0.2c0.1,0.1,0.2,0.6,0.1,1.4c0,0.6,0,1.1,0,1.7
	c0,0.3,0,0.8,0,1.5c0,0.1,0,0.2,0,0.3c0,0.6,0,1,0.2,1.2c0.2,0.1,0.6,0.1,1.2-0.1c0.4-0.1,0.6-0.2,0.7-0.4c0.1-0.1,0.2-0.4,0.2-0.7
	c0-0.6,0.1-0.9,0.3-0.9c0.6,0,1.1-0.5,1.7-1.3c0.6-0.9,0.9-1.8,1.1-2.8c0.1-0.4,0.1-0.7,0.2-0.8c0.1-0.1,0.3-0.2,0.5-0.2
	c0.4,0,0.6,0.1,0.6,0.3c0.1,0.2,0.1,0.8,0.1,1.8c0,0,0,0.1,0,0.2c0,0.8,0,1.2,0.1,1.4c0.1,0.3,0.2,0.5,0.4,0.6
	c0.2,0,0.5,0.1,1.1,0.1c0.1,0,0.2,0,0.3,0c0,0,0.1,0,0.2,0c0.7,0,1.2,0.1,1.3,0.2c0.1,0.1,0.1,0.5,0.1,1.3c0,0.1,0,0.2,0,0.2
	c0,0.4,0,0.7,0,0.8c0,0.1,0.2,0.1,0.5,0.2c0.3,0,0.5,0.1,0.5,0.2c0,0.1,0,0.2-0.2,0.5c-0.3,0.5-0.5,0.8-0.8,0.9s-0.8,0.1-1.7,0.1
	c-0.8,0-1.3,0-1.4,0c-0.2,0-0.3-0.1-0.4-0.3c-0.1-0.2-0.1-0.5,0-0.9c0.1-0.4,0.2-0.7,0.4-0.8c0.2-0.2,0.2-0.3,0-0.4
	c-0.2-0.1-0.7-0.2-1.4-0.3c-0.1,0-0.2,0-0.3,0c-0.4-0.1-0.7-0.1-0.8,0c-0.1,0.1-0.1,0.3-0.1,0.7c0,0.1,0,0.2,0,0.3
	c0,0.7-0.1,1.1-0.1,1.3c0,0.2-0.2,0.3-0.4,0.4c-0.1,0-0.9,0.1-2.1,0c-1.3,0-2.3-0.1-2.9-0.1c-0.3,0-0.4,0-0.5,0c0,0,0,0.2,0.2,0.5
	c0.1,0.3,0.2,0.5,0.3,0.6c0,0,0.3,0,0.8-0.1c1.6-0.2,2.7-0.3,3.3-0.2c0.7,0.1,1,0.3,0.9,0.6c-0.2,0.9-0.8,1.8-1.8,2.7
	c-1,0.9-2.2,1.7-3.6,2.3c-0.4,0.2-0.6,0.3-0.7,0.3c-0.1,0.1-0.1,0.1,0,0.2c0,0.1,0.1,0.1,0.2,0.1c0.1,0,0.3,0,0.6-0.1
	c2-0.6,3.6-1.3,4.8-2.1c1.2-0.8,2-1.8,2.5-3c0.2-0.4,0.4-0.7,0.5-0.6c0.1,0,0.3,0.2,0.5,0.7c0.9,2.2,2.4,3.8,4.4,4.9
	c0.3,0.2,0.5,0.2,0.6,0.2s0.1-0.1,0.2-0.3c0.2-0.8,0.6-1.3,1.3-1.5c0.6-0.2,0.5-0.4-0.2-0.5c-1.4-0.4-2.7-0.9-4-1.7
	c-1.3-0.8-1.9-1.4-1.9-1.9c0-0.1,0-0.2,0.1-0.2c0.1,0,0.4-0.1,0.8-0.1c0.3,0,1,0,2.1,0c1.4,0,2.3,0,2.7-0.1c0.5-0.1,0.7-0.3,0.5-0.6
	c-0.1-0.2-0.6-0.6-1.4-1.3c-0.3-0.2-0.4-0.4-0.5-0.4c0-0.1,0.1-0.2,0.2-0.4c0.1-0.1,0.2-0.2,0.2-0.4c0-0.1,0-0.5,0-1
	c-0.1-1.8-0.1-3-0.1-3.8c0-0.7,0.2-1.2,0.4-1.3c0.3-0.2,0.4-0.3,0.4-0.4c0-0.1-0.2-0.3-0.5-0.6c-0.3-0.3-0.7-0.6-1.1-0.9
	c-0.2-0.2-0.4-0.2-0.5-0.2c-0.1,0-0.3,0.2-0.5,0.6c-0.2,0.3-0.4,0.5-0.5,0.5c-0.1,0-0.6,0.1-1.3,0.1c-0.7,0-1.1,0-1.3,0
	c-0.2,0-0.2-0.1-0.2-0.2c0-0.1,0.3-0.5,1-1.1c0.7-0.6,1.1-0.9,1.3-0.9c0.4,0,0.5-0.1,0.5-0.3c0-0.2-0.3-0.5-0.8-1
	c-0.5-0.5-0.9-0.8-1.1-0.8c-0.2,0-0.4,0.1-0.7,0.5c-0.4,0.4-1,0.7-1.8,0.8s-1.1-0.1-1.1-0.5c0-0.2,0.1-0.4,0.3-0.7
	c0.2-0.3,0.4-0.5,0.5-0.5c0.7-0.1,0.1-0.4-1.5-0.8c-0.5-0.1-0.9-0.2-1-0.2c-0.1,0-0.2,0.1-0.2,0.2c-0.4,1.6-0.8,3-1.5,4.3
	c-0.4,0.7-0.6,1.1-0.8,1.2c-0.2,0-0.5-0.2-1-0.7c-0.5-0.5-0.7-0.8-0.8-0.7c0,0-0.1,0.1-0.3,0.4c0,0-0.1,0.1-0.1,0.1
	c-0.4,0.7-0.7,0.9-0.8,0.8c-0.1-0.2-0.2-0.8-0.2-2c0-0.9,0-1.4,0-1.6c0-0.2,0.1-0.4,0.3-0.5c0.2-0.2,0.2-0.3-0.1-0.5
	c-0.3-0.2-0.9-0.4-1.9-0.6c0,0,0,0-0.1,0c-0.3-0.1-0.4-0.1-0.5,0c0,0,0,0.2,0,0.5c0,0,0,0.1,0,0.1c0.1,0.9,0.2,1.9,0.2,2.9
	c0,1,0,1.6-0.1,1.8c-0.1,0.2-0.3,0.3-0.6,0.3c-0.3,0-0.8,0-1.6-0.1c0,0-0.1,0-0.1,0l-0.6,0c0,0,0.1,0.2,0.2,0.6
	c0.2,0.3,0.3,0.5,0.4,0.5l0.1,0c0.1,0,0.2-0.1,0.3-0.1c0.6-0.2,1-0.2,1.3-0.2c0.3,0,0.4,0.3,0.5,0.6c0.1,0.3,0.1,1,0.1,1.9
	c0,0.1,0,0.3,0,0.6c0,0.7,0,1.2,0,1.4c-0.1,0.3-0.2,0.5-0.4,0.6c-0.2,0.1-0.6,0.2-1.2,0.4c-0.2,0.1-0.4,0.1-0.5,0.1
	c-0.1,0-0.2,0-0.3,0.1c-0.4,0.1-0.5,0.2-0.6,0.3s0,0.4,0.2,0.8c0.1,0.2,0.1,0.3,0.1,0.4c0.3,0.7,0.4,1.1,0.5,1.2
	c0.1,0.1,0.2,0,0.3-0.1c0.2-0.3,0.5-0.6,0.9-0.8c0.4-0.2,0.7-0.3,0.8-0.1c0.1,0.1,0.1,0.3,0.1,0.6c0,0.3,0,1.1,0,2.4
	c0,0.1,0,0.3,0,0.6c0,1,0,1.7,0,1.9c-0.1,0.4-0.2,0.6-0.5,0.7c-0.2,0-0.6,0-1.2,0c-0.1,0-0.2,0-0.3,0c-0.5,0-0.7,0-0.8,0
	c-0.1,0.1,0,0.2,0.4,0.3c0.5,0.1,0.9,0.3,1.2,0.7c0.3,0.4,0.5,0.8,0.5,1.2C162.6,71,162.6,71.1,162.7,71.1z M171,59.6
	c-0.2,0.2-0.3,0.2-0.4,0.2c-0.1-0.1-0.2-0.2-0.2-0.5c0-0.3,0-0.9,0-1.9c0-1,0-1.6,0.1-1.7c0.1-0.2,0.3-0.3,0.6-0.3
	c0.4,0,0.6,0,0.8,0.1c0.3,0.2,0.3,0.9,0.1,1.9C171.7,58.4,171.4,59.1,171,59.6z M178.2,58.2c-0.2,0.1-0.5,0.2-0.9,0.1
	c-0.4,0-0.6-0.2-0.7-0.3c-0.1-0.2-0.2-0.6-0.1-1.3c0-0.7,0.1-1.1,0.2-1.2c0.1-0.1,0.3-0.1,0.7-0.1c0.4,0,0.7,0,0.8,0.1
	c0.2,0.2,0.3,0.6,0.3,1.4C178.6,57.6,178.4,58.1,178.2,58.2z M172.4,54.7c-0.9,0-1.4,0-1.6,0c-0.4-0.1-0.4-0.5,0.2-1.2l0,0
	c0.2-0.3,0.3-0.4,0.4-0.6c0.3-0.4,0.5-0.6,0.7-0.6c0.2-0.1,0.6-0.1,1.4-0.1c0.7,0,1.1,0,1.2,0.1c0.1,0,0.2,0.2,0.2,0.4
	c0,0.3-0.1,0.6-0.3,1.1c-0.2,0.4-0.4,0.7-0.6,0.8C173.8,54.6,173.3,54.6,172.4,54.7z M197.3,71c0.1,0.1,0.2,0.1,0.2,0.1
	c0.1,0,0.3-0.1,0.6-0.4c1.5-1,2.7-2.2,3.6-3.4c0.9-1.3,1.6-2.8,2.1-4.8c0.3-1,0.4-1.4,0.5-1.4c0.1,0.1,0.3,0.7,0.5,2
	c0.6,3.4,1.5,5.9,2.7,7.5c0.2,0.2,0.3,0.3,0.3,0.3c0.1,0,0.1-0.1,0.2-0.3c0.1-0.4,0.3-0.7,0.6-1.1c0.3-0.3,0.6-0.5,0.9-0.6
	c0.2-0.1,0.3-0.2,0.3-0.2c0-0.1-0.1-0.2-0.3-0.4c-1.5-1.2-2.6-2.7-3.4-4.6c-0.8-1.9-1.3-4.5-1.5-7.6c-0.1-0.8,0-1.2,0-1.4
	c0.1-0.1,0.4-0.2,1.1-0.2c0.4,0,0.7,0,0.8,0.1c0.1,0,0.2,0.2,0.2,0.3c0.1,0.3-0.2,1.3-0.8,3.1c-0.2,0.4-0.2,0.7-0.2,0.9
	c0,0.1,0.1,0.2,0.2,0.1c0.1-0.1,0.5-0.4,1-1.1c0.6-0.7,1-1.3,1.4-1.8c0.3-0.5,0.5-0.8,0.7-0.9c0.1-0.1,0.3-0.2,0.6-0.3
	c0.3-0.1,0.4-0.2,0.3-0.3c0-0.2-0.3-0.5-0.8-0.9c-0.5-0.6-0.9-0.9-1.1-0.9c-0.1,0-0.4,0.1-0.8,0.5c0,0-0.1,0.1-0.1,0.1
	c-0.3,0.3-0.5,0.4-0.7,0.5c-0.2,0-0.7,0-1.5,0c-0.2,0-0.3,0-0.4,0c-0.9,0-1.4,0-1.6,0c-0.3,0-0.5-0.1-0.5-0.3c0-0.1,0.1-0.4,0.3-0.8
	c0.2-0.5,0.5-1.1,0.7-1.9c0.2-0.5,0.4-0.8,0.6-0.9c0.3-0.1,0.2-0.3-0.1-0.5c-0.3-0.2-1-0.4-2.1-0.7c0,0-0.1,0-0.1,0
	c-0.3-0.1-0.4-0.1-0.5-0.1c0,0-0.1,0.2-0.1,0.4c0,0,0,0.1,0,0.1c-0.2,2.5-0.8,5-1.9,7.4c-0.2,0.4-0.3,0.6-0.5,0.7
	c-0.2,0-0.4,0-0.7-0.3c-0.4-0.4-1-0.7-1.7-1c-0.4-0.2-0.7-0.4-0.8-0.4c-0.1,0-0.2-0.1-0.2-0.2c0-0.1-0.1-0.2-0.1-0.2
	c0,0,0-0.1,0.1-0.1c0.1-0.1,0.1-0.2-0.2-0.4c-0.3-0.2-0.8-0.4-1.6-0.7c-0.4-0.2-0.7-0.2-0.8-0.3c-0.1,0-0.1,0-0.1,0.1
	c-0.3,1.4-0.8,2.9-1.6,4.3c-0.7,1.4-1.6,2.7-2.7,3.9c-0.2,0.3-0.4,0.5-0.4,0.5c0,0.3,0.5,0.1,1.4-0.6c0.3-0.3,0.6-0.4,0.7-0.5
	c0.1-0.1,0.3,0,0.3,0c0.1,0.1,0.1,0.9,0.1,2.5c0,1.6,0,3.1-0.1,4.7c0,0.7,0,1.1,0.1,1.3c0.1,0.2,0.5,0.2,1,0
	c0.5-0.1,0.8-0.3,0.9-0.4c0.1-0.2,0.2-0.4,0.2-0.8c0-0.6,0-0.9,0.2-1c0.1-0.1,0.6-0.2,1.4-0.2c0.8,0,1.2,0,1.4,0.1
	c0.2,0.1,0.2,0.3,0.2,0.7c0,0.4,0.1,0.6,0.4,0.7c0.3,0.1,0.7-0.1,1.3-0.4c0,0,0.1,0,0.2-0.1c0.2-0.1,0.4-0.2,0.4-0.4
	c0-0.1,0-0.6,0-1.4c0-0.2,0-0.3,0-0.5c-0.1-2-0.1-3.2,0-3.7s0.2-0.8,0.5-1c0.2-0.1,0.2-0.2,0.2-0.3c0-0.1,0-0.2-0.2-0.4
	c-0.3-0.4-0.3-0.6,0-0.7c0.3-0.1,0.5-0.3,0.6-0.6c0.1-0.3,0.1-0.6,0-1c0-0.1-0.1-0.3-0.1-0.5c0-0.2,0-0.3,0-0.4
	c0.1-0.1,0.2-0.3,0.5-0.6c0.5-0.6,1-1.2,1.5-1.8c0.4-0.6,0.7-0.8,0.9-0.8c0.2,0.1,0.3,0.5,0.3,1.3c0,3.6-0.4,6.6-1.1,8.7
	c-0.7,2.2-2,4.1-3.8,5.7c-0.2,0.1-0.3,0.2-0.3,0.3C197.2,70.9,197.2,70.9,197.3,71z M194,67c-0.5,0-0.8,0-0.9-0.1
	c-0.2-0.1-0.3-0.2-0.3-0.5c0-0.2,0-0.7,0-1.4c0-0.3,0-0.5,0-0.6c0-0.1,0-0.3,0-0.6c0-0.8,0-1.2,0-1.4c0-0.3,0.1-0.5,0.3-0.5
	c0.1,0,0.4-0.1,0.9-0.1c0.2,0,0.3,0,0.4,0s0.2,0,0.4,0c0.5,0,0.8,0,0.9,0.1c0.2,0.1,0.3,0.2,0.3,0.5c0,0.2,0,0.7,0,1.4
	c0,0.3,0,0.5,0,0.6c0,1.2,0,1.9,0,2.1c0,0.2-0.1,0.4-0.3,0.4c-0.1,0.1-0.5,0.1-1.3,0.1C194.3,67,194.2,67,194,67z M195.8,61
	c-0.2,0.1-0.6,0.1-1.5,0.1c-0.8,0-1.3-0.1-1.6-0.1c-0.6-0.2-0.9-0.4-1-0.6c-0.1-0.2,0-0.4,0.4-0.8c0.7-0.8,1.3-1.7,1.9-2.6
	c0.4-0.6,0.7-0.9,0.9-0.9c0.2,0,0.5,0.3,0.9,0.9c0.7,0.9,1.1,1.6,1.3,2.2c0.2,0.6,0.2,0.8-0.2,0.8c-0.1,0-0.2,0-0.3,0.1
	c-0.1,0.1-0.2,0.2-0.5,0.5C196,60.8,195.9,60.9,195.8,61z M188.8,55.9c0.1,0,0.3,0,0.7-0.3c1.4-0.9,2.6-2.1,3.6-3.5
	c0.3-0.4,0.5-0.6,0.6-0.7c0.1-0.1,0.3-0.2,0.4-0.3c0.2-0.1,0.3-0.1,0.2-0.2c-0.1-0.1-0.3-0.3-0.7-0.5c-0.1-0.1-0.4-0.2-0.7-0.4
	c-0.2-0.1-0.4-0.2-0.5-0.3c-0.3-0.2-0.6-0.3-0.6-0.3c-0.1,0-0.1,0-0.2,0.2c-0.1,0.7-0.5,1.7-1,2.9c-0.6,1.2-1.1,2.1-1.7,2.8
	C188.7,55.7,188.6,55.8,188.8,55.9z M197.9,54.5c0.5,0.2,0.8,0.1,1.1-0.2c0.2-0.3,0.2-0.7,0.1-1.3c-0.1-0.6-0.4-1.1-0.9-1.5
	c-0.4-0.4-1-0.8-1.7-1.1c-0.6-0.3-1.1-0.5-1.5-0.6c-0.4,0-0.4,0.1-0.1,0.5c0.5,0.5,1,1.2,1.5,1.9c0.5,0.7,0.8,1.3,1,1.8
	C197.4,54.2,197.6,54.4,197.9,54.5z M229.2,71.1c0.3,0.1,0.8,0,1.5-0.3c0,0,0.1,0,0.1,0c0.2-0.1,0.3-0.2,0.3-0.3c0-0.1,0-0.5,0-1.2
	c0-0.1,0-0.2,0-0.2c-0.1-1.6-0.1-2.7-0.1-3.3c0-0.7,0.1-1,0.2-1c0.1,0,0.4,0.3,0.7,0.8c1,1.8,2.2,3.2,3.7,4.2
	c0.2,0.2,0.4,0.2,0.4,0.2c0,0,0.1-0.1,0.2-0.3c0.1-0.3,0.3-0.6,0.6-1c0.3-0.3,0.5-0.5,0.7-0.6c0.2-0.1,0.3-0.2,0.3-0.2
	c0-0.1-0.1-0.2-0.3-0.2c-1.1-0.4-2.3-1-3.6-1.8c-1.3-0.9-1.8-1.5-1.7-1.8c0.1-0.1,0.2-0.2,0.4-0.2s1,0,2.3,0c1.2,0,2-0.1,2.3-0.1
	c0.4-0.1,0.5-0.2,0.3-0.5c-0.1-0.2-0.6-0.6-1.4-1.3c-0.4-0.3-0.6-0.4-0.7-0.4c-0.1,0-0.4,0.3-0.7,0.7c0,0,0,0.1-0.1,0.1
	c-0.3,0.4-0.5,0.6-0.7,0.7c-0.1,0.1-0.5,0.1-1.1,0.1c-0.1,0-0.1,0-0.2,0c-0.6,0-1,0-1.2,0c-0.2,0-0.3-0.1-0.3-0.3
	c-0.1-0.2-0.1-0.4,0-0.7s0.2-0.5,0.3-0.5c0.1,0,0.2-0.1,0.3-0.2c0.1-0.1,0.3-0.3,0.5-0.4c0.2-0.1,0.3-0.2,0.4-0.3
	c0.1-0.3,0.6-0.4,1.3-0.4c0.7,0,1.1,0.2,1.1,0.5c0,0.1,0.2,0.2,0.5,0.2c0.3,0,0.6-0.1,1-0.3c0.3-0.1,0.4-0.2,0.4-0.3
	c0-0.1,0.1-0.4,0-0.8c0-0.5,0-1,0-1.5c0-0.5,0-0.8,0.1-1c0.1-0.1,0.2-0.3,0.5-0.5c0.2-0.1,0.2-0.2,0.1-0.4c-0.1-0.2-0.3-0.4-0.7-0.7
	c-0.5-0.4-0.8-0.5-0.9-0.6c-0.1,0-0.3,0.1-0.6,0.3c-0.3,0.3-0.5,0.4-0.6,0.5c-0.1,0-0.5,0.1-0.9,0.1c-0.4,0-0.8,0-1-0.1
	c-0.2,0-0.6-0.2-1.2-0.5c0,0-0.1,0-0.1,0l0,0c-0.4-0.2-0.6-0.2-0.7-0.2c0,0-0.1,0.2,0,0.4v0c0.2,1.6,0.3,2.9,0.2,3.9
	c0,1-0.1,1.5-0.3,1.6c-0.3,0.1-0.6,0.1-0.9,0c-0.3-0.1-0.4-0.3-0.2-0.5c0-0.1,0.1-0.2,0.1-0.3c0-0.1,0-0.5,0-1.2c0-0.8,0-1.4,0-1.8
	c0-0.3,0.2-0.5,0.3-0.5c0.3,0,0.4-0.1,0.2-0.4c-0.1-0.3-0.5-0.6-1-1c-0.3-0.3-0.6-0.4-0.7-0.3c-0.1,0-0.4,0.2-0.7,0.6
	c-0.2,0.3-0.6,0.4-1.2,0.5c-0.6,0-1.1-0.1-1.7-0.4c-0.3-0.2-0.5-0.3-0.5-0.4c0-0.1,0-0.2,0.2-0.3c0.4-0.3,0.1-0.9-1-1.8
	c-0.3-0.3-0.5-0.4-0.6-0.4c-0.1,0-0.2,0.2-0.5,0.5c-0.3,0.4-0.5,0.6-0.6,0.7c-0.1,0.1-0.2,0.1-0.4,0c-0.2-0.2-0.2-0.8-0.2-1.9
	c0.1-1.1,0.2-1.7,0.4-1.9c0.2-0.2,0.2-0.3-0.1-0.5c-0.3-0.2-0.9-0.4-1.9-0.6c0,0,0,0-0.1,0c-0.3-0.1-0.5-0.1-0.6,0c0,0,0,0.2,0,0.6
	c0,0,0,0.1,0,0.1c0.1,0.9,0.2,1.8,0.2,2.7c0,1,0,1.5-0.1,1.6c-0.1,0.2-0.3,0.3-0.6,0.3c-0.3,0-0.9,0-1.7-0.1c0,0,0,0-0.1,0
	c-0.3,0-0.4,0-0.5,0c0,0,0,0.2,0.2,0.4c0,0,0,0.1,0,0.1c0,0,0,0,0,0.1c0.1,0.2,0.2,0.4,0.2,0.4c0.1,0,0.2,0,0.5-0.1c0,0,0.1,0,0.1,0
	c0.6-0.2,1.1-0.2,1.3-0.2c0.3,0.1,0.5,0.3,0.6,0.7c0.1,0.3,0.1,1,0.1,1.9c0,0.1,0,0.3,0,0.4c0,0.7,0,1.2-0.1,1.4
	c-0.1,0.3-0.2,0.5-0.6,0.6c-0.2,0.1-0.7,0.2-1.5,0.4c-0.2,0-0.4,0.1-0.5,0.1l0,0c-0.2,0-0.3,0.1-0.3,0.2s0.1,0.4,0.3,1
	c0,0.1,0.1,0.1,0.1,0.2c0.3,0.7,0.4,1.2,0.5,1.2c0.1,0.1,0.2,0,0.3-0.2c0.2-0.3,0.5-0.6,0.9-0.8c0.4-0.2,0.7-0.2,0.8,0
	c0.1,0.1,0.1,1,0.1,2.9c0,1.8,0,2.8,0,3.1c-0.1,0.3-0.2,0.4-0.5,0.5c-0.2,0.1-0.7,0.1-1.5,0c-0.5,0-0.7,0-0.8,0c0,0-0.1,0.1,0,0.2
	c0,0,0.1,0.1,0.2,0.1c0.6,0.1,1,0.3,1.3,0.6c0.3,0.3,0.5,0.7,0.6,1.3c0,0.2,0.1,0.2,0.1,0.3c0.1,0.1,0.4,0.1,1-0.1
	c0.6-0.2,0.9-0.4,1.2-0.6c0.2-0.2,0.3-0.4,0.4-0.6c0.1-0.3,0.1-0.7,0.1-1.4c0-0.5,0-1.6,0-3.4c0-0.3,0-0.8,0-1.3c0-1.2,0-2,0-2.4
	c0-0.5,0.1-0.8,0.2-1c0.1-0.1,0.3-0.3,0.7-0.6c0.1-0.1,0.3-0.2,0.3-0.2c0.6-0.4,0.9-0.5,1-0.4c0.1,0.1,0.1,0.7,0.1,1.6
	c0,0.4,0,0.6,0,0.7c0.1,0.1,0.2,0.1,0.5,0.1c0.3,0,0.6-0.1,0.9-0.2c0.3-0.1,0.4-0.3,0.5-0.4c0.1-0.3,0.4-0.5,0.9-0.5
	c0.5,0,0.8,0,1,0.1c0.2,0.1,0.3,0.2,0.3,0.4c0,0.1,0.1,0.2,0.2,0.2c0.1,0,0.4,0,0.8,0c0.2,0,0.4,0,0.4,0.1c0,0.1,0,0.3,0,0.8
	c0,0.1,0,0.1,0,0.1c0,0.1,0,0.2,0,0.3c0,0.3,0,0.6-0.1,0.6c-0.1,0.1-0.3,0.2-0.5,0.2c-0.2,0-0.7,0-1.4,0c-0.2,0-0.4,0-0.5,0
	c-1.5,0-2.4,0-2.9-0.1c0,0,0,0-0.1,0c-0.4,0-0.6,0-0.6,0c0,0,0,0.2,0.2,0.5c0,0,0,0,0,0.1c0.1,0.3,0.2,0.4,0.3,0.4
	c0.1,0,0.3,0,0.6,0c0,0,0.1,0,0.1,0c0.9-0.2,1.6-0.2,2.2-0.2c0.6,0,1,0.1,1,0.3c0.2,0.3-0.3,1.1-1.4,2.4c-1.1,1.3-2.2,2.3-3.3,3.1
	c-0.2,0.1-0.3,0.2-0.4,0.3c0,0,0,0.1,0,0.2c0.1,0.1,0.2,0.1,0.3,0c0.1,0,0.5-0.2,1-0.5c1.6-0.8,3.1-1.8,4.6-3.1
	c0.4-0.4,0.7-0.3,0.8,0.2c0.1,0.5,0.1,1.6,0,3.3C228.8,70.7,228.9,71,229.2,71.1z M234.6,59.6c-0.2,0.1-0.6,0.1-1.1,0.1
	c-0.5-0.1-0.7-0.2-0.8-0.3c-0.1-0.1-0.1-0.5-0.1-1.2c0-0.7,0.1-1.1,0.1-1.2c0.2-0.2,0.5-0.3,1.1-0.3c0.5,0,0.9,0.1,1.1,0.3
	c0.1,0.2,0.2,0.7,0.1,1.4S234.8,59.5,234.6,59.6z M226.4,59.6c-0.4,0-0.7,0-0.8-0.1c-0.2-0.1-0.3-0.5-0.3-1.2c0-0.7,0-1.2,0.1-1.4
	c0.2-0.2,0.5-0.3,1-0.3c0.5,0,0.8,0.1,1,0.3c0.1,0.2,0.2,0.6,0.1,1.4c0,0.7-0.1,1.1-0.3,1.2C227.1,59.6,226.8,59.6,226.4,59.6z
	 M222.6,58.6c-0.5,0.2-0.9,0.3-1,0.2c-0.2,0-0.3-0.2-0.4-0.4c0-0.2-0.1-0.7-0.1-1.5c0-0.7,0-1.2,0-1.4c0-0.3,0.1-0.5,0.3-0.5
	c0.1,0,0.4-0.1,0.8-0.1h0c0,0,0.1,0,0.1,0c0.5,0,0.8,0.1,0.9,0.2c0.1,0.1,0.2,0.5,0.2,1.1c0,0.1,0,0.1,0,0.1c0.1,1,0.1,1.6,0,1.8
	C223.4,58.3,223.1,58.5,222.6,58.6z M226.1,55c0.1,0.1,0.4,0.1,0.8,0c0.5-0.1,0.8-0.3,1.1-0.5c0.2-0.1,0.4-0.2,0.6-0.2
	c0.2,0,0.7,0,1.6,0s1.5,0,1.7,0.1c0.2,0,0.4,0.1,0.4,0.3c0,0.2,0.2,0.2,0.6,0.2c0.4-0.1,0.8-0.2,1.2-0.4c0.2-0.1,0.3-0.2,0.3-0.3
	c0-0.1,0-0.4,0-1c0-0.1,0-0.1,0-0.2c0-0.8,0-1.2,0-1.5c0-0.2,0.2-0.4,0.3-0.5c0.3-0.2,0.4-0.3,0.3-0.5c-0.1-0.2-0.4-0.5-1-1
	c-0.4-0.3-0.7-0.5-0.8-0.5c-0.1,0-0.3,0.1-0.5,0.4c0,0,0,0.1-0.1,0.1c-0.3,0.4-0.5,0.6-0.7,0.6c-0.2,0.1-0.7,0.1-1.5,0.1
	c-0.1,0-0.2,0-0.3,0c-0.1,0-0.2,0-0.4,0c-0.7,0-1.1,0-1.3,0c-0.2,0-0.6-0.2-1.1-0.4c-0.1,0-0.2-0.1-0.3-0.1c0,0-0.1,0-0.1,0
	c-0.5-0.2-0.7-0.3-0.8-0.3c-0.1,0-0.1,0.2-0.1,0.5c0,0.1,0,0.1,0,0.1c0,0.7,0.1,1.7,0.1,2.9C226,54.1,226,54.9,226.1,55z
	 M230.2,53.5c-1.1,0-1.7,0-1.8-0.1c-0.2-0.1-0.3-0.6-0.3-1.3s0.1-1.2,0.3-1.3c0.1-0.1,0.7-0.1,1.8-0.1c1.1,0,1.7,0.1,1.8,0.1
	c0.2,0.1,0.3,0.5,0.3,1.2c0,0.7-0.1,1.1-0.2,1.3C231.9,53.5,231.3,53.5,230.2,53.5z M247.2,71.1c0.2,0.1,0.6,0.1,1.1-0.1
	c0.5-0.1,0.9-0.3,1.1-0.6c0-0.1,0.1-0.1,0.1-0.2c0-0.1,0-0.4,0-0.8c-0.1-2-0.1-4.8-0.1-8.5c0-0.1,0-0.4,0-0.6c0-1.5,0-2.4,0-2.7
	c0-0.3,0.1-0.5,0.3-0.6l0,0c0.1-0.1,0.2-0.2,0.1-0.2c0-0.1-0.1-0.2-0.3-0.4c-0.3-0.3-0.4-0.5-0.4-0.7c0-0.2,0.2-0.6,0.6-1.2
	c0.6-1.1,1-2.1,1.5-3.1c0.3-0.6,0.5-1,0.8-1.1c0.3-0.1,0.3-0.2,0-0.4c-0.2-0.1-0.6-0.3-1.4-0.6s-1.2-0.4-1.4-0.5c-0.1,0-0.1,0-0.1,0
	c0,0,0,0.2-0.1,0.4c0,0.1,0,0.1,0,0.2c-0.2,1.6-0.8,3.5-1.7,5.7c-0.9,2.2-2,4.1-3.1,5.8c-0.3,0.4-0.3,0.6,0,0.6c0,0,0.3-0.2,0.6-0.5
	c0.4-0.4,0.7-0.7,1-0.9c0.5-0.6,0.9-0.9,1-1c0.1-0.1,0.2-0.1,0.3,0c0.1,0.1,0.2,1.5,0.1,4.2c0,2.7-0.1,4.8-0.2,6.5
	c0,0.7-0.1,1,0,1.2C247,70.9,247,71.1,247.2,71.1z M256.5,71.1c0.2,0,0.4,0,0.7,0c0.4-0.1,0.6-0.2,0.9-0.3c0,0,0,0,0.1,0
	c0.2-0.1,0.3-0.2,0.3-0.4c0-0.1,0-0.5,0-1.2c0-0.1,0-0.2,0-0.2c-0.1-2.4-0.1-3.7,0-3.9c0-0.1,0.2-0.2,0.5-0.2c0.3,0,1.2-0.1,2.7-0.1
	c1.6,0,2.5,0,2.8,0c0.3,0,0.4-0.1,0.5-0.3c0.1-0.3-0.4-0.8-1.4-1.6c0,0,0,0-0.1-0.1c-0.4-0.3-0.7-0.5-0.8-0.4
	c-0.1,0-0.3,0.2-0.6,0.7l0,0c0,0,0,0.1-0.1,0.1c-0.3,0.4-0.6,0.6-0.7,0.7c-0.1,0.1-0.5,0.1-1.1,0.1c0,0-0.1,0-0.1,0
	c-0.1,0-0.2,0-0.3,0c-0.5,0-0.8,0-0.9-0.1c-0.2-0.1-0.3-0.2-0.3-0.5c0-0.2,0-0.6,0-1.3c0-0.2,0-0.3,0-0.4c0-0.2,0-0.4,0-0.7
	c0-0.6,0-1,0-1.1c0.1-0.2,0.3-0.3,0.6-0.4c0.2,0,0.7,0,1.5,0c0.4,0,0.7,0,1,0c1.1,0,1.8,0,2.1,0c0.4,0,0.7,0,0.8-0.1
	c0.1,0,0.1-0.1,0.1-0.2s-0.2-0.4-0.7-0.9c-0.5-0.5-0.9-0.8-1.2-1c-0.2-0.1-0.3-0.1-0.4,0c-0.1,0-0.3,0.3-0.6,0.7v0
	c-0.3,0.4-0.6,0.7-0.7,0.8c-0.1,0.1-0.5,0.1-1.1,0.1c-0.1,0-0.1,0-0.2,0c-0.4,0-0.7,0-0.8-0.1c-0.2,0-0.3-0.2-0.3-0.5
	c0-0.2,0-0.6,0-1.2c0-0.2,0-0.3,0-0.4c0-0.2,0-0.4,0-0.6c0-0.6,0-1,0.1-1.1c0.1-0.2,0.3-0.4,0.6-0.4c0.3,0,0.9-0.1,1.8,0
	c0.4,0,0.8,0,1,0c1.6,0,2.6,0,2.9,0c0.3,0,0.5-0.1,0.6-0.2c0.1-0.2-0.3-0.7-1.3-1.5c0,0-0.1,0-0.1-0.1c-0.4-0.4-0.7-0.5-0.9-0.5
	c-0.1,0-0.4,0.2-0.7,0.7c0,0.1-0.1,0.1-0.1,0.2c0,0-0.1,0.1-0.2,0.2c-0.2,0.3-0.4,0.5-0.7,0.6c-0.2,0-0.8,0.1-1.9,0.1
	c-0.4,0-0.6,0-0.8,0c-1.4,0-2.3,0-2.5,0c-0.2,0-0.4-0.1-0.4-0.2c-0.1-0.2,0.1-0.8,0.6-1.8c0.5-1,0.9-1.5,1.1-1.5
	c0.6-0.1,0-0.5-1.8-1.2c-0.1,0-0.2-0.1-0.3-0.1c-0.4-0.1-0.6-0.2-0.7-0.2c-0.1,0-0.1,0.2-0.2,0.5c0,0.1,0,0.2,0,0.2
	c-0.3,1.5-0.8,3.2-1.6,4.9c-0.7,1.7-1.6,3.3-2.5,4.8c-0.2,0.3-0.3,0.5-0.3,0.6c0,0.1,0,0.1,0.1,0.2c0.2,0,0.8-0.5,1.7-1.6
	c1-1.1,1.8-2.1,2.5-3.1c0.4-0.5,0.7-0.8,1-0.9c0.3-0.1,0.6,0.1,0.6,0.5c0.1,0.3,0.1,2.4,0,6.2c0,3.8-0.1,6.5-0.2,7.9
	c0,0.9-0.1,1.4,0,1.6C256.1,71,256.3,71.1,256.5,71.1z M287.6,71.1c0.1,0.1,0.3,0.1,0.8,0s0.8-0.2,1.2-0.4c0.6-0.3,1.1-0.8,1.5-1.6
	c0.4-0.8,0.6-2.1,0.8-3.8c0.2-1.6,0.3-3.9,0.4-7c0-0.2,0-0.4,0-0.8c0-1.6,0.1-2.5,0.1-2.7c0-0.3,0.2-0.5,0.4-0.6c0,0,0.1,0,0.1,0
	c0.2-0.1,0.3-0.2,0.4-0.2c0-0.1,0-0.1,0-0.2c-0.1-0.2-0.4-0.5-0.8-0.9c-0.5-0.4-0.8-0.7-1-0.8c-0.1-0.1-0.2-0.1-0.3,0
	c-0.1,0-0.2,0.2-0.5,0.5c0,0-0.1,0.1-0.1,0.1c-0.3,0.3-0.5,0.5-0.7,0.6c-0.2,0-0.7,0.1-1.4,0.1c-0.2,0-0.3,0-0.4,0
	c-0.1,0-0.2,0-0.3,0c-0.7,0-1.2,0-1.3,0c-0.3,0-0.4-0.2-0.4-0.3c0-0.1,0.1-0.4,0.3-0.9c0-0.1,0.1-0.1,0.1-0.2
	c0.3-0.7,0.5-1.1,0.6-1.3c0.1-0.2,0.2-0.3,0.4-0.4c0.3-0.1,0.2-0.3-0.1-0.5c-0.4-0.2-1.1-0.5-2.2-0.8l0,0c-0.2-0.1-0.4-0.1-0.4,0
	c0,0-0.1,0.2-0.1,0.6c0,0,0,0.1,0,0.1c-0.3,2.3-1,4.8-2.2,7.6c-0.4,1-0.7,1.4-0.9,1.4c-0.1-0.1-0.2-0.7-0.2-2c0-1,0-1.6,0.1-1.8
	c0-0.2,0.2-0.4,0.5-0.6c0.2-0.1,0.3-0.3,0.2-0.5c-0.1-0.2-0.5-0.5-1.1-1c-0.4-0.4-0.7-0.5-0.9-0.5c-0.1,0-0.3,0.2-0.6,0.6
	c-0.3,0.4-0.8,0.6-1.5,0.7c-0.7,0.1-1-0.1-1-0.4c0-0.2,0.3-0.7,0.8-1.6c0.6-0.8,0.9-1.3,1.1-1.4c0.4-0.1,0.4-0.3,0.1-0.4
	c-0.3-0.2-0.9-0.4-2-0.6c0,0-0.1,0-0.2,0c-0.4-0.1-0.6-0.1-0.7-0.1c-0.1,0-0.1,0.2-0.1,0.6c0,0.1,0,0.2,0,0.2c0,0.5,0,1-0.1,1.5
	c-0.1,0.8-0.2,1.4-0.2,1.6c-0.1,0.3-0.3,0.4-0.5,0.4c-0.2,0-0.6-0.2-1.2-0.5c-0.6-0.3-0.9-0.4-1-0.4c0,0-0.1,0-0.1,0.1
	c0,0.1,0,0.3,0.1,0.8c0.1,1.1,0.2,3.5,0.2,7.1c0,3.8-0.1,6.6-0.2,8.4c-0.1,0.8,0,1.3,0.1,1.5c0.1,0.2,0.5,0.2,1.1,0
	c0.4-0.1,0.7-0.3,0.8-0.5c0.1-0.2,0.2-0.5,0.2-1v0c0-0.4,0-0.6,0-0.7c0.1-0.1,0.2-0.2,0.5-0.3c0.2,0,0.6,0,1.3,0c0,0,0.1,0,0.1,0
	s0.1,0,0.1,0c0.7,0,1.1,0,1.3,0c0.3,0,0.4,0.1,0.5,0.2c0,0.1,0.1,0.3,0.1,0.6v0.1c0,0.5,0.1,0.8,0.4,0.8c0.3,0.1,0.7,0,1.4-0.4
	c0,0,0.1,0,0.2-0.1c0.2-0.1,0.3-0.2,0.3-0.4c0-0.2,0-0.8,0-1.8c0-0.5,0-0.8,0-1.1c0-1.1,0-2.4,0-4.1c0-1.7,0-2.6,0.1-2.7
	c0-0.1,0.1-0.3,0.2-0.3c0.1-0.1,0.1-0.1,0,0c0,0.1,0,0.1,0.1,0.2c0.1,0,0.1,0,0.2,0c0.2-0.1,0.6-0.6,1.3-1.5
	c0.7-0.9,1.3-1.8,1.8-2.6c0,0,0,0,0-0.1c0.2-0.4,0.5-0.6,0.7-0.7c0.2-0.1,0.9-0.1,2-0.1c0.1,0,0.1,0,0.2,0c0.2,0,0.4,0,0.6,0
	c0.7,0,1.1,0,1.2,0c0.2,0,0.4,0.2,0.5,0.4c0,0.1,0.1,0.5,0,1c0,0.2,0,0.4,0,0.5c0,2.3-0.1,4.5-0.2,6.6c-0.1,2.1-0.3,3.5-0.5,4.4
	c-0.1,0.5-0.3,0.9-0.5,1.1c-0.2,0.2-0.6,0.4-1,0.4c-0.4,0-1.1,0-2.1-0.1c-0.5,0-0.8-0.1-0.9,0c-0.1,0-0.1,0.1-0.1,0.2
	c0,0.1,0.2,0.2,0.6,0.3c1.5,0.4,2.2,1,2.2,2.1C287.5,70.9,287.5,71,287.6,71.1z M276.4,67.1c-0.6,0-0.9,0-1.1-0.1
	c-0.2-0.1-0.3-0.3-0.4-0.6c0-0.2-0.1-0.8,0-1.7c0-0.4,0-0.7,0-0.9c0-0.2,0-0.5,0-0.8c0-0.8,0-1.4,0-1.6c0.1-0.3,0.2-0.5,0.4-0.6
	c0.1-0.1,0.5-0.1,1.1-0.1c0.2,0,0.4,0,0.6,0s0.3,0,0.6,0c0.6,0,0.9,0,1.1,0.1c0.2,0.1,0.3,0.3,0.4,0.6c0,0.2,0,0.8,0,1.6
	c0,0.4,0,0.6,0,0.8c0,1.5,0,2.3,0,2.6c0,0.3-0.1,0.4-0.2,0.5c-0.1,0.1-0.2,0.1-0.4,0.1c-0.1,0-0.6,0-1.4,0
	C276.8,67.1,276.6,67.1,276.4,67.1z M286,63.7c0.4,0.1,0.7,0.1,1-0.1c0.3-0.2,0.5-0.6,0.5-1c0-0.7-0.2-1.4-0.8-2
	c-0.5-0.7-1.3-1.3-2.4-1.8c-0.6-0.3-0.9-0.4-1-0.4c-0.1,0,0,0.3,0.3,0.7c1,1.5,1.6,2.9,1.8,4.1C285.5,63.4,285.7,63.5,286,63.7z
	 M276.4,60.1c-0.6,0-0.9,0-1.1-0.1c-0.2-0.1-0.3-0.3-0.4-0.6c0-0.2-0.1-0.7,0-1.6c0-0.4,0-0.7,0-0.9c0-0.2,0-0.4,0-0.8
	c0-0.8,0-1.3,0-1.5c0.1-0.3,0.2-0.5,0.4-0.6c0.1,0,0.5-0.1,1-0.1c0.2,0,0.4,0,0.6,0c0.1,0,0.3,0,0.6,0c0.6,0,0.9,0,1.1,0.1
	c0.2,0.1,0.3,0.2,0.4,0.6c0,0.2,0.1,0.7,0.1,1.5c0,0.3,0,0.6,0,0.7c0,1.4,0,2.2,0,2.5c0,0.3-0.1,0.4-0.2,0.5
	c-0.1,0.1-0.2,0.1-0.4,0.1c-0.1,0-0.6,0-1.4,0C276.8,60.1,276.6,60.1,276.4,60.1z M301.2,71.1c0.4,0.1,0.8,0,1.3-0.2
	c0.4-0.2,0.7-0.5,0.7-0.8c0-0.4,0.1-0.6,0.3-0.8c0.1-0.1,2.4-0.1,6.8-0.1c4.4,0,6.7,0,6.8,0.1c0.2,0.1,0.3,0.4,0.3,0.9
	c0,0.3,0,0.6,0.1,0.6c0.1,0.1,0.2,0.1,0.4,0.1c0.2,0,0.6-0.1,1-0.2c0.4-0.1,0.7-0.3,0.9-0.5c0.1-0.1,0.1-0.1,0.1-0.2
	c0,0,0-0.2,0-0.5c-0.1-1.5-0.1-4.3-0.1-8.4c0-0.2,0-0.5,0-0.9c0-1.7,0-2.8,0-3.3c0-0.6,0-1.1,0.1-1.2c0-0.1,0.1-0.2,0.2-0.3
	c0,0,0.1,0,0.1,0c0.3-0.2,0.4-0.3,0.4-0.3c0-0.1,0-0.2-0.1-0.4c-0.4-0.4-0.9-0.8-1.5-1.2c-0.2-0.2-0.4-0.3-0.5-0.2
	c-0.1,0-0.2,0.1-0.4,0.3c0,0-0.1,0.1-0.1,0.1c-0.3,0.4-0.6,0.6-0.7,0.6c-0.1,0.1-0.5,0.1-1.2,0.1c-0.1,0-0.2,0-0.2,0
	c-0.1,0-0.2,0-0.3,0c-0.7,0-1.1-0.1-1.2-0.2c-0.1-0.1-0.1-0.6-0.1-1.4c0-0.2,0-0.4,0-0.5c0-0.9,0-1.5,0.1-1.6c0-0.2,0.1-0.3,0.3-0.4
	c0.2-0.2,0.2-0.3-0.1-0.5c-0.3-0.2-0.9-0.4-1.9-0.6c0,0-0.1,0-0.1,0c-0.3-0.1-0.5-0.1-0.6-0.1s-0.1,0.2,0,0.4c0,0,0,0.1,0,0.1
	c0.1,0.7,0.2,1.8,0.2,3.1c0,0.1,0,0.2,0,0.3c0,0.8,0,1.2-0.1,1.3c-0.1,0.1-0.5,0.2-1.2,0.2c-0.1,0-0.2,0-0.2,0c-0.1,0-0.2,0-0.3,0
	c-0.7,0-1-0.1-1.2-0.2c-0.1-0.1-0.1-0.6-0.1-1.4c0-0.2,0-0.3,0-0.4c0-0.9,0-1.4,0-1.6c0-0.2,0.1-0.4,0.3-0.5c0.2-0.2,0.2-0.4,0-0.5
	c-0.2-0.1-0.9-0.3-1.9-0.6c0,0-0.1,0-0.2,0c-0.3-0.1-0.5-0.1-0.6,0c0,0-0.1,0.2,0,0.5c0,0.1,0,0.1,0,0.1c0.1,0.9,0.2,1.9,0.2,3.1
	c0,0,0,0.1,0,0.1c0,0.8,0,1.2-0.2,1.3c-0.1,0.1-0.6,0.2-1.4,0.2c-0.1,0-0.1,0-0.1,0c-0.1,0-0.2,0-0.3,0c-0.6,0-0.9,0-1.1,0
	c-0.2,0-0.6-0.2-1.2-0.5c-0.1,0-0.2-0.1-0.3-0.1c-0.7-0.3-1-0.4-1.1-0.4c0,0,0,0.1,0,0.2c0,0.1,0.1,0.6,0.1,1.3
	c0.1,0.9,0.1,3.2,0.1,6.8c0,3.6-0.1,6.2-0.2,7.7c0,0.6-0.1,1-0.1,1.2c0,0.1,0,0.2,0.1,0.3C301,71,301.1,71.1,301.2,71.1z M317,68.5
	c-0.1,0.1-0.6,0.1-1.3,0.1c-0.8,0-1.3,0-1.4-0.1c-0.1-0.1-0.2-0.3-0.3-0.5c0-0.3,0-1.2,0-2.7c0-0.2,0-0.5,0-0.8c0-0.9,0-1.5,0-1.8
	c0-0.4,0.1-0.6,0.3-0.6c0.1-0.1,0.4-0.1,0.9-0.1c0.2,0,0.3,0,0.4,0s0.3,0,0.4,0c0.5,0,0.8,0,0.9,0.1c0.2,0.1,0.3,0.3,0.3,0.6
	c0,0.2,0,0.8,0,1.8c0,0.4,0,0.6,0,0.8c0,0.1,0,0.3,0,0.6c0,1.3,0,2,0,2.2C317.3,68.2,317.2,68.4,317,68.5z M309.8,68.5
	c-0.4,0-0.7,0-0.9-0.1c-0.2-0.1-0.3-0.3-0.3-0.6c0-0.3,0-0.8,0-1.8c0-0.4,0-0.7,0-0.9s0-0.5,0-0.9c0-0.9,0-1.5,0-1.8
	c0-0.3,0.2-0.5,0.3-0.6c0.1-0.1,0.4-0.1,0.9-0.1c0.2,0,0.3,0,0.4,0s0.2,0,0.4,0c0.4,0,0.7,0,0.9,0.1c0.2,0.1,0.3,0.3,0.3,0.6
	c0,0.3,0,0.8,0,1.8c0,0.4,0,0.7,0,0.9c0,1.5,0,2.4,0,2.7c0,0.3-0.1,0.4-0.3,0.5c-0.1,0.1-0.5,0.1-1.3,0.1
	C310.1,68.5,310,68.5,309.8,68.5z M304.9,68.5c-0.8,0-1.2,0-1.3-0.1c-0.2-0.1-0.3-0.2-0.3-0.4c0-0.2,0-1,0-2.2c0-0.2,0-0.4,0-0.6
	c0-0.2,0-0.5,0-0.8c0-0.9,0-1.5,0-1.8c0-0.4,0.1-0.6,0.3-0.6c0.1-0.1,0.4-0.1,0.9-0.1c0.2,0,0.3,0,0.4,0s0.2,0,0.4,0
	c0.4,0,0.7,0,0.9,0.1c0.2,0.1,0.3,0.3,0.3,0.6c0,0.2,0,0.8,0,1.8c0,0.4,0,0.6,0,0.8c0,1.5,0,2.4,0,2.7c0,0.3-0.1,0.4-0.3,0.5
	C306.1,68.5,305.6,68.5,304.9,68.5z M304.9,61.3c-0.8,0-1.3,0-1.4-0.1c-0.1-0.1-0.2-0.2-0.3-0.5c0-0.3,0-1.1,0-2.5
	c0-0.2,0-0.4,0-0.6c0-0.8,0-1.4,0-1.6c0-0.3,0.2-0.5,0.3-0.6c0.1,0,0.4-0.1,0.9-0.1c0.2,0,0.3,0,0.4,0s0.2,0,0.4,0
	c0.5,0,0.8,0,0.9,0.1c0.2,0.1,0.3,0.3,0.3,0.6c0,0.2,0,0.8,0,1.6c0,0.3,0,0.5,0,0.6c0,1.4,0,2.2,0,2.5c0,0.3-0.1,0.4-0.2,0.5
	C306.2,61.2,305.7,61.3,304.9,61.3z M311.6,61.2c-0.1,0.1-0.5,0.1-1.3,0.1c-0.8,0-1.2-0.1-1.3-0.1c-0.1-0.1-0.2-0.2-0.3-0.5
	c0-0.2,0-1,0-2.4c0-0.2,0-0.4,0-0.7c0-0.9,0-1.4,0-1.7c0-0.3,0.1-0.5,0.3-0.6c0.1-0.1,0.4-0.1,0.9-0.1c0.2,0,0.3,0,0.4,0
	s0.2,0,0.4,0c0.5,0,0.8,0,0.9,0.1c0.2,0.1,0.3,0.3,0.3,0.6c0,0.2,0,0.8,0,1.7c0,0.3,0,0.5,0,0.7c0,1.4,0,2.2,0,2.4
	C311.8,60.9,311.7,61.1,311.6,61.2z M315.7,61.3c-0.8,0-1.3,0-1.4-0.1c-0.1-0.1-0.2-0.2-0.3-0.5c0-0.2,0-1,0-2.4c0-0.2,0-0.4,0-0.8
	c0-0.8,0-1.4,0-1.6c0-0.3,0.1-0.5,0.3-0.6c0.1-0.1,0.4-0.1,0.9-0.1c0.2,0,0.3,0,0.4,0c0.1,0,0.2,0,0.4,0c0.5,0,0.8,0,0.9,0.1
	c0.2,0.1,0.3,0.3,0.3,0.6c0,0.2,0,0.7,0,1.6c0,0.3,0,0.5,0,0.7c0,1.4,0,2.2,0,2.5c0,0.3-0.1,0.4-0.2,0.5
	C317,61.2,316.5,61.3,315.7,61.3z M36,95.2c0.2,0,0.6,0,1-0.1c0.4-0.1,0.7-0.2,0.9-0.4c0-0.1,0.1-0.5,0-1.4c0-0.2,0-0.5,0-0.8
	c0-1.1,0-1.8,0-2.1c0-0.4,0.2-0.6,0.5-0.7c0.2-0.1,0.7-0.1,1.5-0.1c0.2,0,0.4,0,0.6,0c1,0,1.7,0,2-0.1c0.4-0.1,0.5-0.2,0.3-0.5
	c-0.1-0.2-0.5-0.6-1.1-1.2c0,0,0,0-0.1-0.1c-0.5-0.4-0.8-0.6-0.9-0.6c-0.1,0-0.4,0.3-0.7,0.7c0,0,0,0.1,0,0.1
	c-0.3,0.4-0.5,0.7-0.6,0.8c-0.1,0.1-0.3,0.1-0.6,0.1c-0.4,0-0.6-0.1-0.7-0.2c-0.1-0.1-0.1-0.5-0.1-1.1c0-0.5,0-0.8,0-1
	c0-0.2,0.1-0.3,0.3-0.5c0.2-0.2,0.2-0.3,0-0.4c-0.1-0.1-0.6-0.3-1.3-0.5c-0.4-0.1-0.6-0.2-0.7-0.3c-0.1-0.1-0.1-0.2,0-0.4
	c0.1-0.2,0.4-0.4,1-0.4c0.5,0,1,0,1.5,0.1c0.5,0.1,0.7,0.3,0.7,0.6c0,0.3,0.4,0.4,1.1,0.1c0.5-0.2,0.9-0.3,1-0.5s0.1-0.5,0.1-1.1
	c0-1-0.1-2.2-0.1-3.5c0-0.1,0-0.3,0-0.5c0-1.2,0-2,0-2.2c0-0.2,0.2-0.4,0.4-0.5l0,0c0.3-0.2,0.4-0.3,0.4-0.4c0-0.1-0.1-0.3-0.4-0.6
	l0,0c-0.6-0.6-1.1-1-1.4-1.1c-0.1,0-0.4,0.1-0.7,0.6c0,0,0,0-0.1,0.1c-0.2,0.3-0.4,0.5-0.6,0.5c-0.1,0-0.6,0.1-1.3,0.1
	c-0.1,0-0.1,0-0.1,0c-0.8,0-1.3,0-1.5-0.1c-0.2-0.1-0.2-0.2,0-0.4c0-0.1,0.3-0.3,0.7-0.7c0.4-0.4,0.7-0.6,0.8-0.7
	c0.3-0.2,0.3-0.3,0.1-0.4c-0.2-0.1-0.9-0.3-1.8-0.5c-0.1,0-0.1,0-0.2,0c-0.4-0.1-0.7-0.1-0.7-0.1c-0.1,0-0.1,0.2-0.1,0.5
	c0,0.1,0,0.1,0,0.2c0,0.9-0.1,1.6-0.3,1.9c-0.2,0.4-0.5,0.5-1,0.5c-0.4,0-1.1-0.2-2-0.6c-0.1,0-0.2-0.1-0.3-0.1
	c-0.4-0.2-0.6-0.2-0.7-0.2c0,0-0.1,0.2,0,0.6c0,0.1,0,0.2,0,0.2c0.1,1.3,0.2,2.2,0.2,2.8c0,0.6-0.1,1-0.2,1.1
	c-0.1,0.1-0.4-0.1-0.7-0.4c0,0-0.1-0.1-0.1-0.1c-0.2-0.2-0.3-0.3-0.4-0.3c0,0-0.1,0-0.1,0.1c0,0,0,0.1,0,0.1
	c-0.1,0.3-0.3,0.4-0.5,0.3c-0.2,0-0.3-0.9-0.3-2.4c0-1.6,0.2-2.5,0.4-2.6c0.2-0.2,0.2-0.3-0.1-0.5c-0.2-0.1-0.8-0.3-1.7-0.6
	c-0.4-0.1-0.6-0.2-0.7-0.1c0,0-0.1,0.1,0,0.3c0.1,0.8,0.2,2,0.2,3.6c0,1.7,0,2.6,0,2.8c-0.1,0.2-0.3,0.3-0.8,0.3
	c-0.4,0-0.7,0-0.9-0.1c-0.3-0.2-0.4-1-0.3-2.6c0-1.6,0.2-2.4,0.5-2.6c0.4-0.3-0.2-0.7-2-1.1c-0.3-0.1-0.4-0.1-0.5,0c0,0,0,0.2,0,0.5
	c0.1,0.7,0.1,1.4,0.2,2.3c0,0.9,0,2.9,0,5.9c0,4,0,6.3-0.1,6.8c-0.2,2-0.5,3.7-0.9,5c0,0,0,0.1-0.1,0.2c-0.1,0.3-0.1,0.4-0.1,0.5
	c0,0.1,0,0.1,0,0.2c0.1,0.1,0.2,0.1,0.3,0c0.1-0.1,0.3-0.4,0.6-0.8c0.6-1,1.1-2,1.4-3.2c0.3-1.2,0.5-2.6,0.6-4.2
	c0-0.8,0.1-1.2,0.2-1.3c0.1-0.1,0.5-0.2,1.1-0.2c0.4,0,0.6,0,0.8,0.1c0.1,0,0.2,0.1,0.3,0.3c0.1,0.1,0.1,1.1,0.1,2.8
	c0,1.7-0.1,3.3-0.1,4.8c0,0.7-0.1,1.2-0.1,1.3c0,0.1,0.1,0.2,0.2,0.3c0.3,0.3,0.8,0.2,1.5-0.2c0,0,0,0,0.1,0
	c0.3-0.1,0.4-0.3,0.5-0.4c0-0.1,0.1-0.6,0-1.2c0-0.1,0-0.1,0-0.2c-0.1-2.6-0.1-4.4-0.1-5.5c0.1-1.1,0.2-1.7,0.5-1.7
	c0.2,0,0.3-0.1,0.4-0.2c0-0.2,0-0.3-0.2-0.5c-0.6-0.6-1-1-1.3-1.1c-0.3-0.1-0.6-0.1-0.8,0.2c-0.3,0.4-0.6,0.6-0.7,0.7
	c-0.1,0.1-0.4,0.1-0.9,0.1c-0.4,0-0.7,0-0.8-0.1c-0.2-0.1-0.3-0.2-0.3-0.5c0-0.2,0-0.6,0-1.3c0,0,0-0.1,0-0.1c0-0.1,0-0.3,0-0.4
	c0-0.5,0-0.8,0.1-0.9c0.1-0.2,0.3-0.3,0.6-0.3c0.2,0,0.8,0,1.7,0c0.3,0,0.6,0,0.8,0c0.2,0,0.4,0,0.7,0c0.9,0,1.5,0,1.8,0.1
	c0.3,0.1,0.5,0.3,0.6,0.6c0,0.2,0,0.8,0,1.7c0,0.3,0,0.5,0,0.7c0,0.7,0,1.2,0,1.3c0,0.1,0.1,0.2,0.1,0.3c0.2,0.2,0.6,0.2,1.1,0
	c0.6-0.2,0.9-0.4,0.9-0.6c0-0.2,0.1-0.4,0.4-0.5c0.3-0.1,0.6-0.1,0.8,0c0.4,0.2,0.3,0.7-0.4,1.5c-0.7,0.8-1.5,1.6-2.6,2.2
	c-0.2,0.1-0.4,0.2-0.4,0.3c0,0,0,0.1,0,0.2c0.1,0.1,0,0.1-0.2,0.2c-0.2,0-0.4,0.1-0.7,0h0c-0.2,0-0.3,0-0.4,0c0,0,0,0.2,0.1,0.4
	c0,0,0,0.1,0,0.1c0,0,0,0.1,0,0.1c0.1,0.2,0.2,0.4,0.3,0.4c0.1,0,0.3,0,0.6,0c0,0,0.1,0,0.1,0c0.8-0.1,1.8-0.2,3-0.2
	c1.2,0,1.9,0,2.1,0c0.2,0.1,0.3,0.5,0.3,1.2c0,0.7,0,1.9-0.1,3.6C35.6,94.9,35.7,95.1,36,95.2z M33.6,88.9c-1.2,0-1.9,0-2.1-0.1
	c-0.5-0.1-0.5-0.3,0-0.6c1.2-0.5,2.3-1.1,3.3-2c0.4-0.4,0.7-0.5,0.7-0.4c0.1,0.1,0.2,0.6,0.2,1.4c0,0.7,0,1.1,0,1.2
	c0,0.2-0.1,0.3-0.3,0.4C35.4,88.8,34.7,88.9,33.6,88.9z M34.4,83.5c-0.1,0.1-0.4,0.1-0.8,0.1c-0.4,0-0.6-0.1-0.7-0.1
	c-0.2-0.1-0.3-0.5-0.3-1.3c0-0.8,0-1.3,0.1-1.5c0.1-0.2,0.4-0.3,0.9-0.3c0.5-0.1,0.8,0,1.1,0.1c0.3,0.1,0.4,0.6,0.3,1.5
	C34.9,82.8,34.7,83.3,34.4,83.5z M38,83.5c-0.7,0-1.1,0-1.2-0.1c-0.1-0.1-0.1-0.4,0-0.9c0.1-0.4,0.1-0.8,0.1-1.1
	c0-0.5,0.1-0.8,0.2-0.9c0.1-0.1,0.5-0.2,1-0.2c0.6,0,1,0.1,1.1,0.2c0.1,0.1,0.2,0.6,0.2,1.3c0,0.6,0,1,0,1.2c0,0.2-0.1,0.3-0.2,0.4
	c-0.1,0.1-0.2,0.1-0.3,0.1C38.7,83.5,38.5,83.5,38,83.5z M34.7,79.6c-0.1,0.1-0.4,0.1-0.9,0.1c-0.5,0-0.8,0-0.9-0.1
	c-0.2-0.1-0.3-0.6-0.3-1.4c0-0.8,0.1-1.3,0.3-1.4c0.1-0.1,0.5-0.1,1-0.1c0.5,0,0.8,0.1,1,0.2c0.2,0.2,0.2,0.6,0.2,1.4
	S34.9,79.5,34.7,79.6z M38.2,79.6c-0.5,0-0.8,0-0.9-0.1c-0.2-0.1-0.3-0.6-0.3-1.5c0-0.8,0.1-1.3,0.3-1.4c0.1-0.1,0.4-0.1,1-0.1
	c0.5,0,0.8,0.1,0.9,0.1c0.2,0.1,0.3,0.6,0.3,1.4c0,0.8-0.1,1.3-0.3,1.4C39,79.6,38.7,79.6,38.2,79.6z M59.4,87.4
	c1.1,0.1,2-0.2,2.8-1c0.8-0.8,1.1-1.7,1-2.8c-0.1-0.9-0.5-1.6-1.2-2.2c-0.6-0.5-1.4-0.8-2.2-0.8c-0.9,0-1.6,0.3-2.3,0.9
	c-0.7,0.6-1,1.4-1.1,2.3c0,0.8,0.2,1.6,0.7,2.3C57.8,86.9,58.5,87.3,59.4,87.4z M60.7,86.4c-0.8,0.3-1.6,0.2-2.3-0.3
	c-0.7-0.5-1.1-1.2-1.1-2.1c0-0.7,0.2-1.3,0.7-1.8c0.5-0.5,1.1-0.7,1.7-0.7c0.7,0,1.3,0.2,1.8,0.7c0.7,0.6,0.9,1.4,0.7,2.3
	C62.1,85.5,61.6,86.1,60.7,86.4z"/>
</svg>
