<?xml version="1.0" encoding="utf-8"?>
<!-- Generator: Adobe Illustrator 24.2.3, SVG Export Plug-In . SVG Version: 6.00 Build 0)  -->
<svg version="1.1" id="Layer_1" xmlns="http://www.w3.org/2000/svg" xmlns:xlink="http://www.w3.org/1999/xlink" x="0px" y="0px"
	 viewBox="0 0 352 219" style="enable-background:new 0 0 352 219;" xml:space="preserve">
<style type="text/css">
	.st0{clip-path:url(#SVGID_2_);}
	.st1{fill:none;stroke:#D6D2C7;stroke-width:1.3;stroke-miterlimit:10;stroke-dasharray:9.31,9.31;}
	.st2{fill:#D6D2C7;}
</style>
<g>
	<defs>
		<rect id="SVGID_1_" width="351.3" height="218.1"/>
	</defs>
	<clipPath id="SVGID_2_">
		<use xlink:href="#SVGID_1_"  style="overflow:visible;"/>
	</clipPath>
	<g class="st0">
		<path class="st1" d="M350.6,0.6H0.7v216.8h350V0.6z"/>
	</g>
</g>
<path class="st2" d="M21.2,42.8c0.1,0.1,0.2,0.1,0.2,0c0.1,0,0.3-0.2,0.6-0.5c2.2-2.3,3.6-5.6,4.1-9.7c0-0.1,0-0.2,0-0.3
	c0.1-0.9,0.2-1.4,0.3-1.5c0.1-0.1,0.4-0.2,0.9-0.2c0.1,0,0.1,0,0.2,0c0,0,0.1,0,0.1,0c0.4,0,0.7,0,0.8,0.1c0.2,0.1,0.3,0.3,0.3,0.7
	c0,0.3,0,1,0,2c0,0.2,0,0.3,0,0.4c-0.1,2.1-0.2,3.6-0.3,4.4c-0.2,0.9-0.4,1.5-0.8,1.8c-0.3,0.2-0.9,0.3-1.7,0.3c0,0-0.1,0-0.2,0
	c-0.5,0-0.8,0-0.9,0c-0.1,0-0.1,0.1-0.1,0.2c0,0.1,0.1,0.1,0.2,0.2l0,0c0.6,0.2,1,0.4,1.3,0.7c0.3,0.3,0.4,0.7,0.4,1.1
	c0,0.2,0,0.3,0.1,0.3c0.1,0,0.2,0.1,0.4,0c0.9-0.1,1.6-0.4,2.1-0.9c0.5-0.5,0.8-1.5,1.1-2.9c0.2-1.3,0.4-3.3,0.5-6c0,0,0,0,0-0.1
	c0-1,0.1-1.6,0.1-1.6c0.1-0.2,0.3-0.3,0.5-0.5c0.2-0.1,0.3-0.2,0.2-0.3c0-0.1,0-0.2,0.1-0.3c0.1-0.1,0.4-0.5,0.9-0.9
	c1.6-1.6,2.9-3.4,3.8-5.3c0.3-0.6,0.5-0.9,0.6-1c0.1-0.1,0.3,0.1,0.4,0.4c0.9,3.2,2.1,5.6,3.7,7.3c0.2,0.2,0.3,0.3,0.3,0.2
	c0,0,0.1-0.1,0.2-0.3c0.1-0.3,0.3-0.6,0.5-0.9c0.3-0.3,0.5-0.5,0.8-0.6c0.2-0.1,0.3-0.2,0.3-0.3s-0.2-0.2-0.4-0.4
	c-0.9-0.6-1.8-1.4-2.8-2.5c-0.9-1-1.5-1.9-2-2.7c-0.4-0.9-0.5-1.4-0.1-1.5c0.2-0.1,0.2-0.2-0.1-0.4c-0.3-0.1-0.9-0.3-1.8-0.6
	c-0.1,0-0.2,0-0.3-0.1c-0.4-0.1-0.6-0.1-0.7-0.1c-0.1,0-0.1,0.1-0.1,0.4c0,0.1,0,0.1,0,0.1c-0.2,2.1-1.2,4.6-3,7.4
	c-0.4,0.6-0.7,1-0.9,1c-0.2,0.1-0.5-0.1-0.9-0.4c0,0-0.1-0.1-0.1-0.1c-0.2-0.1-0.3-0.2-0.3-0.2c0,0-0.2,0.1-0.4,0.3
	c-0.1,0.1-0.1,0.1-0.1,0.1c-0.3,0.3-0.5,0.5-0.7,0.6c-0.2,0.1-0.5,0.1-1,0.1c-0.4,0-0.7,0-0.8-0.1c-0.2-0.1-0.3-0.3-0.3-0.6
	c0-0.2,0-0.8,0-1.7c0-0.1,0-0.2,0-0.3c0-0.4,0.1-0.6,0.1-0.7c0.1-0.1,0.3-0.2,0.6-0.3c0.2,0,0.8,0,1.7,0c0.3,0,0.5,0,0.7,0
	c1.3,0,2.1-0.1,2.5-0.1c0.4-0.1,0.6-0.3,0.4-0.6c-0.2-0.2-0.7-0.7-1.5-1.4l0,0c-0.3-0.3-0.5-0.4-0.6-0.3c-0.1,0-0.3,0.3-0.6,0.8
	c-0.3,0.5-0.6,0.8-0.8,0.9c-0.2,0.1-0.5,0.1-0.8,0c-0.2-0.1-0.4-0.7-0.4-1.6c0-1,0.1-1.6,0.3-1.8c0.2-0.2,0.2-0.3,0-0.5
	c-0.2-0.1-0.8-0.3-1.8-0.6c-0.5-0.1-0.8-0.2-0.8-0.2c-0.1,0-0.1,0.1-0.1,0.2c0.1,0.7,0.1,1.5,0.2,2.4c0,1,0,1.5,0,1.6
	c-0.1,0.2-0.4,0.3-1,0.4c-0.5,0-1.6,0-3-0.1c-0.1,0-0.1,0-0.1,0.1c0,0.1,0.1,0.2,0.2,0.5c0.1,0.2,0.2,0.4,0.3,0.4c0.1,0,0.2,0,0.4,0
	c0.5-0.2,0.9-0.2,1.3-0.2c0.4,0,0.7,0.1,0.8,0.3c0.1,0.2,0.1,1.2,0.1,3.1c0,1.9-0.2,3.4-0.3,4.7c-0.4,3.1-1.2,5.7-2.6,7.8
	c-0.1,0.2-0.2,0.4-0.2,0.5S21.1,42.7,21.2,42.8z M33.9,42.7c0,0,0.1,0,0.2-0.1c0.1-0.1,0.2-0.2,0.2-0.3c0-0.1,0.7-0.6,2.2-1.6
	c2.7-1.8,4.6-3.1,5.5-3.9c1-0.8,0.9-1-0.2-0.4c-4.5,2.1-7.6,3.4-9.3,4c-0.1,0,0,0.3,0.4,0.9C33.2,41.8,33.6,42.3,33.9,42.7z
	 M37.1,34.4c0.3,0.1,0.6,0.2,0.9,0c0.3-0.1,0.5-0.3,0.6-0.6c0.2-0.8-0.1-1.6-0.9-2.3c-0.8-0.8-1.9-1.3-3.3-1.6
	c-0.4-0.1-0.6-0.1-0.6,0c0,0.1,0.2,0.3,0.6,0.6c1.1,1.1,1.9,2.2,2.4,3.4C36.9,34.2,37,34.4,37.1,34.4z M52.9,41c2.5,0,3.8,0,3.8-0.1
	c0.1,0,0.1-0.2,0.1-0.4c0-0.2,0-0.4-0.1-0.4l-0.2,0c-0.3,0-0.6-0.1-0.8-0.1c-0.1,0-0.2,0-0.4,0c-0.4,0-0.7-0.1-0.8-0.2
	c-0.1-0.1-0.2-0.4-0.3-0.8c0-0.3,0-1,0-2c0-0.4,0-0.7,0-0.9c0-0.3,0-0.7,0-1.2c0-0.9,0-1.5,0-1.8c0-0.4,0.2-0.6,0.4-0.6
	c0.1-0.1,0.5-0.1,1-0.1c0.3,0,0.5,0,0.6,0c0.1,0,0.2,0,0.3,0c0.8,0,1.3,0.1,1.5,0.2c0.1,0.1,0.3,0.5,0.4,1.1c0,0.1,0,0.2,0,0.3
	c0,0,0,0.1,0,0.2c0,0.5,0.1,0.8,0.1,0.8c0,0.1,0.2,0.1,0.4,0.1c0,0,0.1,0,0.1,0c0,0,0.1,0,0.2,0c0.1,0,0.2,0,0.3-0.1
	c0.1-0.1,0.1-0.2,0.1-0.6c0-0.2,0-0.7,0-1.6c0-0.4,0-0.7,0-0.9c0-0.2,0-0.4,0-0.7c0-0.9,0-1.5,0-1.8c0-0.3,0-0.5-0.1-0.6
	c0-0.1-0.1-0.1-0.3-0.1c-0.1,0-0.1,0-0.2,0h0c-0.2,0-0.4,0-0.4,0.1c0,0.1-0.1,0.4-0.1,0.8c0,0,0,0.1,0,0.1c0,0.1,0,0.2,0,0.3
	c-0.1,0.7-0.2,1-0.4,1.2c-0.1,0.1-0.6,0.1-1.5,0.1c-0.1,0-0.3,0-0.3,0c-0.1,0-0.3,0-0.6,0c-0.5,0-0.9,0-1-0.1
	c-0.2-0.1-0.3-0.3-0.4-0.6c0-0.2-0.1-0.8,0-1.8c0-0.4,0-0.8,0-1c0-0.3,0-0.7,0-1.2c0-0.9,0-1.5,0-1.8c0.1-0.3,0.2-0.5,0.5-0.6
	c0.2-0.1,0.7-0.1,1.4-0.1c0.4,0,0.7,0,0.9,0c0.2,0,0.5,0,0.9,0c0.8,0,1.4,0,1.6,0c0.3,0,0.5,0.2,0.7,0.4c0.1,0.1,0.2,0.5,0.3,1.1
	c0,0.3,0.1,0.5,0.1,0.6c0,0.1,0,0.2,0.1,0.3c0.1,0.6,0.2,0.9,0.3,1c0.1,0.1,0.2,0.1,0.5,0.1c0,0,0.1,0,0.1,0c0.3,0,0.5,0,0.6,0
	c0.1,0,0.1-0.1,0.1-0.3c0,0,0-0.3,0-0.8c0-0.6,0-1,0-1.4c0-1.4-0.1-2-0.1-2.1c0,0-2.2-0.1-6.6-0.1c-4.3,0-6.5,0-6.6,0
	c-0.1,0.2-0.2,0.3,0,0.5c0.1,0.2,0.3,0.3,0.5,0.3c0.7,0.1,1.2,0.1,1.4,0.2c0.2,0.1,0.4,0.2,0.5,0.4c0,0.1,0.1,2,0.1,5.7
	c0,3.7,0,6.3,0,7.7c0,0,0,0.1,0,0.1c0,0.8-0.1,1.2-0.2,1.4c-0.1,0.1-0.5,0.2-1.1,0.3c-0.1,0-0.1,0-0.1,0c-0.6,0.1-0.9,0.1-0.9,0.2
	c0,0-0.1,0.2-0.1,0.4c0,0.2,0,0.3,0.1,0.3C49.1,41,50.4,41,52.9,41z M77.1,41c0.3,0,0.9,0,2,0c0.4,0,0.8,0,1,0c0.2,0,0.6,0,1,0
	c1,0,1.7,0,2,0c0.4,0,0.6,0,0.7-0.1c0.1,0,0.1-0.1,0.1-0.2c0,0,0-0.1,0-0.1c0,0,0-0.1,0-0.1c0-0.1,0-0.2-0.1-0.3
	c-0.1,0-0.3-0.1-0.7-0.1c-0.1,0-0.2,0-0.2,0c0,0-0.1,0-0.2,0c-0.4,0-0.7-0.1-0.9-0.3c-0.3-0.3-0.7-0.9-1.3-1.8
	c-0.4-0.7-1.3-2.3-2.8-4.8c-0.3-0.5-0.5-0.9-0.6-1.2c-0.3-0.4-0.3-0.8-0.2-1.1c0-0.1,0.6-1,1.8-2.8c1.2-1.8,1.8-2.8,2-3.1
	c0.2-0.2,0.3-0.4,0.5-0.5c0.2-0.1,0.6-0.2,1.2-0.2c0,0,0.1,0,0.1,0c0.4-0.1,0.7-0.1,0.8-0.1c0.1,0,0.1-0.2,0.1-0.4c0,0,0,0,0-0.1
	c0-0.1,0-0.2-0.1-0.2c-0.1,0-0.3-0.1-0.7-0.1c-0.2,0-0.8,0-1.8,0c-0.2,0-0.4,0-0.5,0c-1.1,0-1.7,0-2,0c-0.4,0-0.7,0-0.8,0.1
	c-0.1,0-0.1,0.1-0.1,0.3v0c0,0.2,0,0.3,0.1,0.3c0.1,0,0.3,0.1,0.6,0.1c0,0,0.1,0,0.1,0c0,0,0.1,0,0.1,0c0.5,0.1,0.8,0.1,0.9,0.2
	c0.1,0.1,0.1,0.4-0.1,0.7c-0.1,0.3-0.5,0.9-1,1.8c-0.1,0.2-0.2,0.3-0.2,0.4c-0.6,0.9-0.9,1.5-1.1,1.8c-0.2,0.4-0.4,0.6-0.6,0.6
	c-0.1,0.1-0.2,0-0.3-0.1c-0.1,0-0.5-0.7-1.2-2c-0.8-1.3-1.3-2.2-1.5-2.7c-0.2-0.3-0.2-0.5,0-0.6c0.1-0.1,0.5-0.2,1.1-0.3
	c0,0,0.1,0,0.2,0c0.4,0,0.6-0.1,0.6-0.1c0.1,0,0.1-0.1,0.1-0.3v-0.1c0-0.1-0.1-0.2-0.1-0.3c-0.1-0.1-0.5-0.1-1-0.1
	c-0.4,0-1.2,0-2.6,0c-0.3,0-0.6,0-1.1,0c-1,0-1.7,0-2,0c-0.4,0-0.6,0-0.7,0.1c-0.1,0-0.1,0.1-0.1,0.2c0,0,0,0.1,0,0.1
	c0,0.2,0,0.3,0.1,0.4c0.1,0,0.3,0.1,0.6,0.1c0.6,0.1,1.1,0.1,1.2,0.2c0.2,0.1,0.4,0.2,0.5,0.5c0.2,0.3,0.9,1.5,2.1,3.7
	c1.3,2.2,1.9,3.4,2,3.6l0,0c0.1,0.2,0.1,0.3,0.1,0.4c0,0.2-0.2,0.5-0.5,0.9c-0.2,0.3-0.6,1-1.4,2.1c-0.1,0.2-0.2,0.4-0.3,0.5
	c-0.2,0.3-0.4,0.6-0.7,1c-0.6,1-1,1.6-1.2,1.9c-0.3,0.4-0.5,0.6-0.7,0.7c-0.1,0.1-0.4,0.1-0.7,0.2c-0.2,0-0.3,0-0.4,0
	c-0.6,0.1-0.9,0.1-0.9,0.2c0,0.1-0.1,0.2-0.1,0.4c0,0.2,0,0.3,0.1,0.3c0,0,1,0.1,2.9,0.1c0.1,0,0.3,0,0.5,0c0.9,0,1.5,0,1.8,0
	c0.3,0,0.6,0,0.6-0.1c0,0,0.1-0.1,0.1-0.2c0,0,0-0.1,0-0.1c0-0.2,0-0.3-0.1-0.4c-0.1,0-0.3-0.1-0.7-0.2c0,0-0.1,0-0.2,0
	c-0.5-0.1-0.7-0.1-0.8-0.2c-0.1-0.1-0.1-0.4,0.1-0.7c0.1-0.3,0.5-0.9,1.1-1.9c0.1-0.2,0.2-0.4,0.3-0.5c0.7-1.2,1.1-1.9,1.3-2.2
	c0.3-0.4,0.5-0.7,0.6-0.7c0.1,0,0.2,0,0.4,0.2c0.1,0.1,0.6,1,1.6,2.7c1,1.7,1.5,2.6,1.5,2.7c0.1,0.3,0,0.4-0.1,0.5
	c-0.1,0.1-0.5,0.2-1.2,0.2c-0.4,0-0.6,0.1-0.7,0.1c-0.1,0-0.1,0.2-0.1,0.4c0,0,0,0.1,0,0.1c0,0.1,0,0.2,0.1,0.2
	C76.5,40.9,76.7,41,77.1,41z M105.1,42.9c0.1,0.1,0.3,0.1,0.8,0s0.8-0.2,1.2-0.4c0.6-0.3,1.1-0.8,1.5-1.6c0.4-0.8,0.6-2.1,0.8-3.8
	c0.2-1.6,0.3-3.9,0.4-7c0-0.2,0-0.4,0-0.8c0-1.6,0.1-2.5,0.1-2.7c0-0.3,0.2-0.5,0.4-0.6c0,0,0.1,0,0.1,0c0.2-0.1,0.3-0.2,0.4-0.2
	c0-0.1,0-0.1,0-0.2c-0.1-0.2-0.4-0.5-0.8-0.9c-0.5-0.4-0.8-0.7-1-0.8c-0.1-0.1-0.2-0.1-0.3,0c-0.1,0-0.2,0.2-0.5,0.5
	c0,0-0.1,0.1-0.1,0.1c-0.3,0.3-0.5,0.5-0.7,0.6c-0.2,0-0.7,0.1-1.4,0.1c-0.2,0-0.3,0-0.4,0c-0.1,0-0.2,0-0.3,0c-0.7,0-1.2,0-1.3,0
	c-0.3,0-0.4-0.2-0.4-0.3c0-0.1,0.1-0.4,0.3-0.9c0-0.1,0.1-0.1,0.1-0.2c0.3-0.7,0.5-1.1,0.6-1.3c0.1-0.2,0.2-0.3,0.4-0.4
	c0.3-0.1,0.2-0.3-0.1-0.5c-0.4-0.2-1.1-0.5-2.2-0.8l0,0c-0.2-0.1-0.4-0.1-0.4,0c0,0-0.1,0.2-0.1,0.6c0,0,0,0.1,0,0.1
	c-0.3,2.3-1,4.8-2.2,7.6c-0.4,1-0.7,1.4-0.9,1.4c-0.1-0.1-0.2-0.7-0.2-2c0-1,0-1.6,0.1-1.8c0-0.2,0.2-0.4,0.5-0.6
	c0.2-0.1,0.3-0.3,0.2-0.5c-0.1-0.2-0.5-0.5-1.1-1c-0.4-0.4-0.7-0.5-0.9-0.5c-0.1,0-0.3,0.2-0.6,0.6c-0.3,0.4-0.8,0.6-1.5,0.7
	c-0.7,0.1-1-0.1-1-0.4c0-0.2,0.3-0.7,0.8-1.6c0.6-0.8,0.9-1.3,1.1-1.4c0.4-0.1,0.4-0.3,0.1-0.4c-0.3-0.2-0.9-0.4-2-0.6
	c0,0-0.1,0-0.2,0c-0.4-0.1-0.6-0.1-0.7-0.1c-0.1,0-0.1,0.2-0.1,0.6c0,0.1,0,0.2,0,0.2c0,0.5,0,1-0.1,1.5c-0.1,0.8-0.2,1.4-0.2,1.6
	c-0.1,0.3-0.3,0.4-0.5,0.4c-0.2,0-0.6-0.2-1.2-0.5c-0.6-0.3-0.9-0.4-1-0.4c0,0-0.1,0-0.1,0.1c0,0.1,0,0.3,0.1,0.8
	c0.1,1.1,0.2,3.5,0.2,7.1c0,3.8-0.1,6.6-0.2,8.4c-0.1,0.8,0,1.3,0.1,1.5c0.1,0.2,0.5,0.2,1.1,0c0.4-0.1,0.7-0.3,0.8-0.5
	c0.1-0.2,0.2-0.5,0.2-1v0c0-0.4,0-0.6,0-0.7c0.1-0.1,0.2-0.2,0.5-0.3c0.2,0,0.6,0,1.3,0c0,0,0.1,0,0.1,0c0,0,0.1,0,0.1,0
	c0.7,0,1.1,0,1.3,0c0.3,0,0.4,0.1,0.5,0.2c0,0.1,0.1,0.3,0.1,0.6v0.1c0,0.5,0.1,0.8,0.4,0.8c0.3,0.1,0.7,0,1.4-0.4
	c0,0,0.1,0,0.2-0.1c0.2-0.1,0.3-0.2,0.3-0.4c0-0.2,0-0.8,0-1.8c0-0.5,0-0.8,0-1.1c0-1.1,0-2.4,0-4.1c0-1.7,0-2.6,0.1-2.7
	c0-0.1,0.1-0.3,0.2-0.3c0.1-0.1,0.1-0.1,0,0c0,0.1,0,0.1,0.1,0.2c0.1,0,0.1,0,0.2,0c0.2-0.1,0.6-0.6,1.3-1.5
	c0.7-0.9,1.3-1.8,1.8-2.6c0,0,0,0,0-0.1c0.2-0.4,0.5-0.6,0.7-0.7c0.2-0.1,0.9-0.1,2-0.1c0.1,0,0.1,0,0.2,0c0.2,0,0.4,0,0.6,0
	c0.7,0,1.1,0,1.2,0c0.2,0,0.4,0.2,0.5,0.4c0,0.1,0.1,0.5,0,1c0,0.2,0,0.4,0,0.5c0,2.3-0.1,4.5-0.2,6.6c-0.1,2.1-0.3,3.5-0.5,4.4
	c-0.1,0.5-0.3,0.9-0.5,1.1c-0.2,0.2-0.6,0.4-1,0.4c-0.4,0-1.1,0-2.1-0.1c-0.5,0-0.8-0.1-0.9,0c-0.1,0-0.1,0.1-0.1,0.2
	c0,0.1,0.2,0.2,0.6,0.3c1.5,0.4,2.2,1,2.2,2.1C105,42.8,105,42.9,105.1,42.9z M93.9,38.9c-0.6,0-0.9,0-1.1-0.1
	c-0.2-0.1-0.3-0.3-0.4-0.6c0-0.2-0.1-0.8,0-1.7c0-0.4,0-0.7,0-0.9c0-0.2,0-0.5,0-0.8c0-0.8,0-1.4,0-1.6c0.1-0.3,0.2-0.5,0.4-0.6
	c0.1-0.1,0.5-0.1,1.1-0.1c0.2,0,0.4,0,0.6,0c0.1,0,0.3,0,0.6,0c0.6,0,0.9,0,1.1,0.1c0.2,0.1,0.3,0.3,0.4,0.6c0,0.2,0,0.8,0,1.6
	c0,0.4,0,0.6,0,0.8c0,1.5,0,2.3,0,2.6c0,0.3-0.1,0.4-0.2,0.5c-0.1,0.1-0.2,0.1-0.4,0.1c-0.1,0-0.6,0-1.4,0
	C94.3,38.9,94.1,38.9,93.9,38.9z M103.5,35.5c0.4,0.1,0.7,0.1,1-0.1c0.3-0.2,0.5-0.6,0.5-1c0-0.7-0.2-1.4-0.8-2
	c-0.5-0.7-1.3-1.3-2.4-1.8c-0.6-0.3-0.9-0.4-1-0.4c-0.1,0,0,0.3,0.3,0.7c1,1.5,1.6,2.9,1.8,4.1C103,35.2,103.2,35.4,103.5,35.5z
	 M93.9,31.9c-0.6,0-0.9,0-1.1-0.1c-0.2-0.1-0.3-0.3-0.4-0.6c0-0.2-0.1-0.7,0-1.6c0-0.4,0-0.7,0-0.9c0-0.2,0-0.4,0-0.8
	c0-0.8,0-1.3,0-1.5c0.1-0.3,0.2-0.5,0.4-0.6c0.1,0,0.5-0.1,1-0.1c0.2,0,0.4,0,0.6,0s0.3,0,0.6,0c0.6,0,0.9,0,1.1,0.1
	c0.2,0.1,0.3,0.2,0.4,0.6c0,0.2,0.1,0.7,0.1,1.5c0,0.3,0,0.6,0,0.7c0,1.4,0,2.2,0,2.5c0,0.3-0.1,0.4-0.2,0.5
	c-0.1,0.1-0.2,0.1-0.4,0.1c-0.1,0-0.6,0-1.4,0C94.3,31.9,94.1,31.9,93.9,31.9z M123.5,42.9c0.2,0.2,0.6,0.2,1.1,0
	c0.6-0.2,0.9-0.4,0.9-0.6c0-0.2,0.1-0.3,0.2-0.4c0.1-0.1,0.5-0.1,1-0.1c0.4,0,1.3,0,2.8,0c0.1,0,0.2,0,0.4,0c1.3,0,2.1,0,2.4,0
	c0.5,0,0.8,0.1,0.9,0.2c0.1,0.1,0.1,0.2,0.1,0.5c0,0,0,0.1,0,0.1c0,0.2,0.1,0.4,0.3,0.4c0.2,0,0.6,0,1-0.2c0.4-0.1,0.7-0.3,0.7-0.4
	c0.1-0.1,0.1-0.5,0.1-1.2c0,0,0-0.1,0-0.1c0-1.6,0-2.6,0-3c0-0.4,0.1-0.6,0.3-0.7c0.3-0.1,0.2-0.4-0.3-0.8c-0.4-0.3-0.5-0.5-0.6-0.7
	c0-0.1,0.2-0.3,0.5-0.5c0,0,0,0,0.1,0c0.2-0.1,0.3-0.2,0.3-0.3c0-0.1,0-0.5,0-1.2c0-0.1,0-0.2,0-0.2c0-1,0.1-1.6,0.1-1.7
	c0.1-0.2,0.3-0.2,0.6,0c0.1,0.1,0.2,0.1,0.2,0.1c0,0,0.1-0.1,0.2-0.3c0.1-0.3,0.3-0.5,0.6-0.8c0.2-0.3,0.5-0.4,0.7-0.5
	c0.2-0.1,0.3-0.2,0.2-0.3c0-0.1-0.3-0.1-0.7-0.2c-1-0.2-1.9-0.4-2.6-0.7c-0.7-0.3-1.2-0.6-1.4-0.8c-0.2-0.3-0.1-0.5,0.3-0.7
	c0.3-0.1,0.4-0.2,0.4-0.3c0-0.1-0.2-0.2-0.5-0.5c-0.6-0.4-0.9-0.7-0.9-0.8c0-0.2,0.2-0.2,0.7-0.3c0.7,0,1,0.2,1,0.6
	c0,0.2,0.1,0.3,0.2,0.3c0.2,0,0.4,0,0.9-0.1c0.5-0.2,0.9-0.3,1-0.5c0.1-0.2,0.1-0.6,0.1-1.2c0-0.8,0-1.3,0-1.5
	c0-0.2,0.2-0.4,0.5-0.6c0.3-0.2,0.4-0.3,0.4-0.4c0-0.1-0.3-0.4-0.8-0.8c-0.5-0.4-0.8-0.7-1.1-0.9c-0.1-0.1-0.3-0.1-0.4,0
	c-0.1,0.1-0.3,0.2-0.5,0.6c0,0-0.1,0.1-0.1,0.2c-0.1,0.2-0.3,0.3-0.4,0.4c-0.2,0.1-0.7,0.1-1.3,0.1c-0.5,0-1.6,0-3.5,0
	c-0.7,0-1.3,0-1.7,0c-3.1,0-4.9,0-5.5-0.1c-0.6,0-1.1-0.2-1.7-0.4c-0.7-0.3-1.1-0.4-1.2-0.5c-0.1,0-0.2-0.1-0.2,0c0,0,0,0.2,0,0.4
	c0.1,0.8,0.2,2.7,0.1,5.5c0,2.8,0,4.9-0.1,6.3c-0.3,3.5-0.9,6.4-2,8.8c-0.2,0.5-0.3,0.7-0.1,0.7c0.1,0,0.4-0.2,0.7-0.6
	c0.4-0.4,0.7-0.9,1.1-1.5c1.2-1.9,2-4.4,2.4-7.5c0.1-0.5,0.1-0.8,0.2-0.9c0.1-0.2,0.2-0.3,0.5-0.4c0.3-0.2,0.5-0.2,0.6-0.2
	c0.1,0,0.2,0.3,0.3,0.6c0,0.3,0,0.9,0,1.8c0,1.1,0,1.7,0,1.8c0,0.2,0.1,0.3,0.1,0.3c0.2,0,0.4,0.4,0.4,1.1c0.1,0.7,0,2-0.1,3.7
	c0,0.8-0.1,1.3-0.1,1.5C123.4,42.7,123.5,42.9,123.5,42.9z M133,41.1c-0.1,0.1-1.3,0.1-3.6,0.1c-2.3,0-3.5-0.1-3.6-0.1
	c-0.2-0.1-0.3-0.3-0.3-0.6s0.1-0.5,0.2-0.7c0.1-0.1,1.3-0.1,3.6-0.1c2.3,0,3.5,0,3.7,0.1c0.2,0.1,0.3,0.4,0.3,0.7
	C133.3,40.7,133.2,41,133,41.1z M129.5,38.9c-2.3,0-3.5,0-3.6,0c-0.2-0.1-0.3-0.3-0.4-0.6c0-0.4,0.1-0.6,0.3-0.7
	c0.1-0.1,1.3-0.1,3.6-0.1c2.3,0,3.5,0,3.6,0.1c0.2,0.1,0.3,0.3,0.3,0.7c0,0.3-0.1,0.6-0.3,0.7C132.9,38.8,131.8,38.9,129.5,38.9z
	 M129.4,36.7c-2.3,0-3.5,0-3.8-0.1c-0.5-0.1-0.8-0.3-1-0.6c-0.1-0.3,0-0.5,0.4-0.7c0.2-0.1,1.6-0.1,4.3-0.1c2.7,0,4.1,0.1,4.2,0.1
	c0.2,0.1,0.2,0.3,0.1,0.6c-0.1,0.3-0.4,0.5-0.7,0.6C132.9,36.6,131.7,36.7,129.4,36.7z M128.3,34.4c-0.2,0.2-0.5,0.2-1.1,0
	c-0.1,0-0.3,0-0.5,0c-0.2,0-0.4,0.1-0.8,0.1c-0.4,0-0.6,0-0.7-0.1c-0.2-0.1-0.3-0.2-0.3-0.4c0-0.2,0-0.6,0-1.4c0-0.1,0-0.2,0-0.4
	c0-0.7,0.1-1.2,0.2-1.3c0.1-0.1,0.6-0.2,1.3-0.2c0.2,0,0.3,0,0.4,0c0.1,0,0.2,0,0.3,0c0.8,0,1.2,0.1,1.3,0.2
	c0.1,0.1,0.2,0.6,0.2,1.4c0,0.2,0,0.3,0,0.4C128.5,33.7,128.5,34.2,128.3,34.4z M132.6,34.6c-0.5,0-0.8,0-0.9,0c0,0-0.2,0-0.6,0
	c-0.3,0-0.6,0-0.6-0.1c-0.1-0.1-0.2-0.2-0.2-0.5c0-0.2,0-0.6,0-1.3c0-0.9,0-1.4,0.1-1.6c0.1-0.2,0.3-0.3,0.7-0.2
	c0.3,0,0.4,0.1,0.5,0.1c0.1,0.1,0.1,0.2,0.1,0.4c-0.1,0.7-0.2,1.3-0.4,2c-0.1,0.5-0.1,0.7,0,0.7s0.5-0.3,1-0.9
	c0.4-0.4,0.7-0.7,0.9-0.8c0.1-0.1,0.3-0.2,0.4-0.1c0.3,0,0.4,0.4,0.4,1c0,0.6-0.1,1-0.4,1.1C133.5,34.5,133.2,34.5,132.6,34.6z
	 M127,34.2c0,0,0.1-0.1,0.3-0.2c0.3-0.2,0.5-0.5,0.5-0.9c0-0.3-0.2-0.7-0.5-1c-0.3-0.3-0.6-0.5-0.8-0.7c-0.3-0.2-0.5-0.2-0.6-0.2
	c-0.1,0-0.1,0.2,0,0.4c0.3,0.6,0.4,1.1,0.5,1.5c0,0,0,0.1,0,0.1c0,0.2,0,0.4,0.1,0.5c0,0,0.1,0.1,0.3,0.2
	C126.8,34.2,126.9,34.2,127,34.2z M133.7,31.5c-0.1,0.1-0.3,0.1-0.5,0c-0.3-0.1-0.5-0.2-0.6-0.4c-0.1-0.2,0-0.3,0.3-0.3
	c0.4-0.1,0.6,0,0.7,0.1c0.1,0.1,0.1,0.2,0.1,0.3C133.8,31.4,133.8,31.5,133.7,31.5z M122,30.7c-0.2,0.1-0.3,0.1-0.3,0.1
	c-0.1,0-0.1-0.2-0.1-0.6c0-0.3,0-0.8,0-1.8c0-0.2,0-0.5,0-0.9c0-0.7,0-1.1,0.1-1.2c0.1-0.2,0.4-0.4,0.9-0.5c0.4,0,1.2,0,2.6,0
	c0.8,0,1.4,0,1.9,0c0.2,0,0.4,0,0.8,0c1.9,0,3.1,0,3.6,0c0.7,0,1.1,0.1,1.1,0.2c0.1,0.1,0,0.3-0.3,0.6c0,0.1-0.1,0.1-0.1,0.1
	c-0.1,0.2-0.7,0.3-1.8,0.3c-1,0-2,0-2.8-0.2c-0.1,0-0.2,0-0.2,0.1c0,0.1,0.1,0.2,0.2,0.5c0,0,0,0.1,0.1,0.1c0.1,0.2,0.2,0.3,0.3,0.4
	c0.1,0,0.3,0,0.6,0c0.1,0,0.2,0,0.2,0c1.1-0.2,2-0.2,2.7-0.2c0.7,0,1.1,0.2,1.3,0.5c0,0,0.1,0.2,0.2,0.4c0.1,0.2,0.2,0.3,0.3,0.4
	c0.2,0.4,0.3,0.6,0.4,0.7c0,0.1-0.1,0.3-0.2,0.3c-0.1,0.1-1.5,0.1-4,0.1c-2.5,0-3.8,0-3.9-0.1c-0.3-0.1-0.2-0.3,0-0.6
	c0.9-0.8,1.4-1.2,1.5-1.2c0.3,0,0.4-0.1,0.2-0.2c-0.1-0.1-0.4-0.4-1-0.7c-0.7-0.4-1.1-0.6-1.2-0.7c-0.1,0-0.2,0-0.3,0.2
	c-0.2,0.5-0.6,1.3-1.3,2.3C122.8,30,122.3,30.6,122,30.7z M128.2,25.2c-4,0-6.1,0-6.3-0.1c-0.2-0.1-0.3-0.5-0.4-1.1
	c0-0.6,0.1-1,0.3-1.2c0.1-0.1,2.2-0.1,6.3-0.1c4.1,0,6.2,0,6.4,0.1c0.2,0.1,0.3,0.5,0.3,1.2c0,0.6-0.1,1-0.4,1.1
	C134.4,25.2,132.3,25.2,128.2,25.2z M148.6,42.9c0.2,0.1,0.4,0.1,0.8,0c0.4-0.1,0.7-0.2,1-0.4c0.2-0.1,0.3-0.2,0.3-0.3
	c0-0.1,0-0.4,0-1c-0.1-1.6-0.1-3.4-0.1-5.7c0-2.2,0-3.4,0.1-3.5c0.2-0.4,0.5-0.5,0.8-0.4c0.3,0.1,0.5,0.3,0.6,0.7
	c0,0.3,0.1,0.5,0.1,0.6c0,0.1,0.1,0.1,0.3,0.2c0.4,0.2,0.7,0.2,1,0c0.3-0.2,0.5-0.6,0.5-1.1c0-0.5-0.2-1.1-0.6-1.6
	c-0.4-0.5-1-1-1.7-1.5c-0.3-0.2-0.5-0.3-0.6-0.2c-0.1,0.1,0,0.3,0.2,0.6c0.3,0.7,0.4,1.1,0.3,1.3c-0.1,0.2-0.6,0.3-1.5,0.3
	c-0.7,0-1,0-1.1-0.1c-0.1-0.1,0-0.4,0.4-0.9c0.9-1.2,1.9-2.5,2.9-4c0.3-0.4,0.5-0.7,0.6-0.8c0.1-0.1,0.3-0.2,0.4-0.3
	c0.3-0.1,0.3-0.2,0-0.4c-0.3-0.2-0.9-0.5-1.9-1c-0.3-0.1-0.4-0.2-0.5-0.1c0,0-0.1,0.2-0.2,0.4c-0.3,1.3-1.1,3.3-2.4,6
	c-0.3,0.6-0.5,1-0.7,1.1c-0.2,0.1-0.6,0.2-1.3,0.2c0,0-0.1,0-0.1,0c-0.1,0-0.2,0-0.3,0c-0.4,0-0.6,0.1-0.7,0.1c0,0.1,0,0.3,0.1,0.6
	c0,0.1,0.1,0.2,0.1,0.3c0,0,0,0.1,0,0.1c0.2,0.6,0.3,0.9,0.4,1s0.2,0,0.4-0.2c0.2-0.2,0.6-0.4,1.3-0.5c0.5-0.1,0.8-0.1,0.9,0
	c0.1,0.1,0.2,0.4,0.2,0.9c0,0.7-0.1,1.1-0.2,1.2c-0.1,0.1-0.6,0.1-1.4-0.1c-0.1,0-0.2,0-0.3-0.1c-0.4-0.1-0.7-0.1-0.7-0.1
	c-0.1,0-0.1,0.2-0.1,0.5c0,0.1,0,0.2,0,0.2c0,1.7-0.2,3.4-0.7,5.1c-0.1,0.3-0.1,0.5-0.1,0.5c0,0.1,0,0.1,0.1,0.1
	c0.2,0.1,0.5-0.3,1.1-1.2c0.5-0.9,1-1.9,1.3-3c0.2-0.5,0.3-0.8,0.4-1c0.1-0.2,0.3-0.2,0.4-0.1c0.3,0.2,0.3,2.1,0.1,5.9
	c0,0.5,0,0.8,0,1C148.4,42.7,148.5,42.8,148.6,42.9z M154.6,42.9c0,0,0.1,0.1,0.1,0c0.1,0,0.2-0.1,0.5-0.2l0.1,0
	c1.6-0.7,3.1-1.6,4.5-2.7c0.4-0.4,0.7-0.5,0.9-0.6c0.2,0,0.4,0.2,0.7,0.5c0.8,0.9,1.7,1.7,2.8,2.4c0.4,0.3,0.7,0.4,0.7,0.4
	c0.1,0,0.2-0.1,0.3-0.3c0.1-0.3,0.3-0.5,0.6-0.8c0.3-0.3,0.6-0.4,0.8-0.5c0.4-0.1,0.4-0.3-0.1-0.5c-1.6-0.6-2.9-1.4-3.9-2.3
	c-0.3-0.3-0.5-0.5-0.5-0.6c0-0.2,0.1-0.5,0.4-0.9c1-1.4,1.8-3.2,2.4-5.2c0.2-0.6,0.3-0.9,0.4-1.1c0.1-0.2,0.2-0.3,0.4-0.3
	c0.3-0.1,0.4-0.2,0.3-0.5c-0.1-0.2-0.4-0.6-0.9-1c-0.4-0.4-0.7-0.6-0.9-0.6c-0.1,0-0.3,0.1-0.6,0.4c-0.4,0.4-0.6,0.5-0.8,0.5
	c-0.2,0-0.2-0.2-0.3-0.5c0-0.3,0.1-1.2,0.2-2.7c0,0,0,0,0-0.1c0.1-1.3,0.2-2.1,0.3-2.3c0.1-0.3,0.2-0.4,0.5-0.6
	c0.2-0.1,0.3-0.3,0.1-0.5c-0.1-0.2-0.5-0.6-1-1c-0.4-0.3-0.6-0.5-0.7-0.5c-0.1,0-0.3,0.1-0.5,0.4c0,0.1-0.1,0.1-0.2,0.2
	c-0.2,0.3-0.4,0.4-0.7,0.5c-0.3,0-1.1,0.1-2.4,0c-0.5,0-0.9,0-1.2,0c-2.4,0-3.7,0-3.8,0c-0.2,0-0.3,0-0.3,0c0,0,0.1,0.2,0.2,0.5
	c0.1,0.3,0.2,0.4,0.3,0.5c0.1,0,0.2,0,0.3,0c0.3-0.1,0.5-0.2,0.8-0.2c0.3,0,0.5,0.1,0.6,0.2c0.2,0.2,0.2,1.8,0.1,4.7
	c-0.1,2.9-0.3,5.1-0.6,6.8c-0.2,1.3-0.4,2.1-0.6,2.4c-0.2,0.3-0.3,0.2-0.6-0.4c-0.4-0.9-1-1.6-1.9-2.2c-0.4-0.3-0.6-0.3-0.6-0.2
	c0,0.1,0,0.4,0.2,0.9c0.4,1.3,0.6,2.3,0.6,3c0,0.2,0.1,0.4,0.4,0.5c0.3,0.1,0.5,0.1,0.7,0c0.4-0.2,0.6,0,0.4,0.6
	c-0.2,0.6-0.6,1.5-1.2,2.6c-0.2,0.3-0.3,0.5-0.3,0.6c0,0.1,0,0.1,0.1,0.2c0.1,0.1,0.2,0.1,0.2,0c0.1,0,0.2-0.2,0.4-0.4
	c1.1-1.2,2-2.6,2.7-4.1c0.7-1.5,1.2-3.3,1.6-5.4c0.2-1,0.3-1.6,0.5-1.7c0.1-0.1,0.3,0.2,0.4,0.9c0.4,1.8,0.9,3.5,1.6,5
	c0.2,0.4,0.3,0.8,0.3,1c0,0.2-0.2,0.5-0.5,0.9c-1.2,1.4-2.6,2.6-4.2,3.5c-0.2,0.1-0.4,0.2-0.4,0.3C154.5,42.7,154.5,42.8,154.6,42.9
	L154.6,42.9z M161,36c-0.3,0.3-0.8-0.1-1.4-1.1c-0.6-1-1.1-2.3-1.5-3.8c0,0,0,0,0-0.1c-0.1-0.4-0.1-0.6-0.1-0.7
	c0-0.1,0.2-0.2,0.6-0.2c0.2,0,0.8,0,1.7,0c0.1,0,0.1,0,0.2,0c0.9,0,1.5,0,1.8,0c0.4,0,0.6,0.1,0.6,0.1c0.1,0.1,0.1,0.2,0.1,0.4
	c0,0.4-0.3,1.4-0.8,2.8C161.7,34.9,161.3,35.8,161,36z M159,29.5c-0.7,0-1.1,0-1.2,0c-0.2-0.1-0.3-0.2-0.4-0.4c0-0.2,0-0.6,0-1.2
	c0-1.1,0.1-2,0.1-2.7c0-0.1,0-0.2,0-0.4c0-0.6,0-1,0.1-1.2c0.1-0.2,0.2-0.4,0.4-0.5c0.1,0,0.5,0,1.1,0c0.1,0,0.3,0,0.3,0
	c0.1,0,0.3,0,0.5,0c0.5,0,0.8,0,1,0.1c0.2,0.1,0.3,0.3,0.3,0.6c0,0.2,0,0.8-0.1,1.7c0,0.4-0.1,0.7-0.1,0.9c0,0.1,0,0.2,0,0.3
	c-0.1,1.3-0.2,2.1-0.3,2.4c0,0.2-0.2,0.4-0.3,0.4C160.1,29.4,159.7,29.5,159,29.5z M147.1,28.4c0.4,0.2,0.7,0.2,0.9-0.1
	c0.2-0.2,0.4-0.5,0.4-0.9c0-0.4-0.1-0.8-0.4-1.1c-0.2-0.3-0.3-0.5-0.3-0.6c0-0.2,0.3-0.5,0.7-1c0.4-0.5,0.7-0.9,0.9-1.2
	c0.7-0.9,1.1-1.4,1.3-1.5c0.3-0.1,0.3-0.2,0.2-0.4c-0.1-0.1-0.6-0.3-1.2-0.6c-0.8-0.3-1.2-0.5-1.3-0.5c-0.1,0-0.2,0.1-0.2,0.3
	c-0.1,0.7-0.2,1.6-0.5,2.5c-0.2,0.9-0.4,1.5-0.6,1.6c-0.1,0.2-0.4,0.2-0.8,0c-0.6-0.2-0.9-0.3-1.1-0.3c-0.1,0-0.1,0.2,0.2,0.5
	c0.7,0.8,1.1,1.6,1.4,2.4c0.1,0.3,0.1,0.4,0.2,0.5C146.9,28.3,147,28.4,147.1,28.4z M182.4,42.9c0.2,0.1,0.6,0.1,1,0
	c0.5-0.1,0.9-0.3,1.2-0.6l0,0c0.1-0.1,0.1-0.2,0.1-0.3c0-0.2,0-0.7,0-1.6c0-0.5,0-0.8,0-1.1c0-1,0-2.1,0-3.3c0-1.2,0-1.8,0.1-1.9
	c0.1-0.1,0.2-0.2,0.5-0.2c0.2,0,1,0,2.4,0c0.1,0,0.3,0,0.5,0c0.9,0,1.5,0,1.7,0c0.3,0,0.5,0.1,0.6,0.2c0,0.1,0.1,0.3,0,0.6
	c0,0.1,0,0.1,0,0.2c0,0.5,0,0.7,0.1,0.8c0.1,0.1,0.4,0.1,0.9,0c0.7-0.1,1.1-0.3,1.2-0.5c0.1-0.2,0.2-0.7,0.1-1.6
	c-0.1-2.6-0.1-4.4-0.1-5.2c0-0.8,0.2-1.3,0.4-1.4c0,0,0,0,0.1,0c0.3-0.2,0.4-0.3,0.4-0.4c0-0.1-0.3-0.5-1-1
	c-0.7-0.5-1.1-0.8-1.3-0.8c-0.1,0-0.3,0.2-0.7,0.7c0,0,0,0.1-0.1,0.1c-0.2,0.2-0.4,0.4-0.6,0.4c-0.2,0-0.8,0-1.9,0
	c-0.2,0-0.4,0-0.6,0c-0.2,0-0.5,0-0.8,0c-0.8,0-1.3,0-1.5,0c-0.3,0-0.5-0.2-0.6-0.4c0-0.1-0.1-0.5,0-1c0-0.2,0-0.4,0-0.5
	c0-0.8,0-1.4,0-1.5c0-0.2,0.1-0.3,0.3-0.5c0.2-0.2,0.2-0.4-0.1-0.5c-0.2-0.1-0.9-0.4-2-0.6c-0.4-0.1-0.7-0.2-0.8-0.1
	s-0.1,0.1-0.1,0.3c0.1,0.7,0.2,1.6,0.2,2.7c0,1.1,0,1.7,0,1.9l0,0c-0.1,0.1-0.2,0.2-0.5,0.3c-0.2,0-1,0-2.4,0c-0.2,0-0.4,0-0.7,0
	c-1,0-1.6,0-1.8,0c-0.3,0-0.7-0.2-1.2-0.4c-0.2-0.1-0.3-0.1-0.4-0.2c-0.1,0-0.1-0.1-0.2-0.1c-0.5-0.2-0.8-0.3-0.8-0.3
	c-0.1,0-0.1,0.2,0,0.5c0,0.1,0,0.1,0,0.1c0.1,1.1,0.2,2.6,0.2,4.5c0,1.8,0,3.5-0.1,4.9c0,0.5,0,0.9,0.1,1c0.1,0.1,0.4,0.1,0.9,0
	c0.5-0.1,0.9-0.3,1.1-0.4c0.2-0.2,0.3-0.5,0.3-0.8c0,0,0-0.1,0-0.2c0-0.3,0-0.5,0.1-0.6c0.1-0.1,0.3-0.2,0.6-0.2c0.2,0,0.8,0,1.7,0
	c0.2,0,0.4,0,0.6,0c1.3,0,2.1,0,2.4,0c0.2,0,0.4,0.1,0.5,0.3c0.1,0.1,0.1,1.1,0.1,2.7c0,1.7-0.1,3.2-0.1,4.5c0,0.7-0.1,1.2,0,1.3
	C182.2,42.7,182.3,42.9,182.4,42.9z M179.5,33c-1.6,0-2.5,0-2.6-0.1c-0.1-0.1-0.2-0.2-0.3-0.5c0-0.3,0-1.2,0-2.6c0-0.3,0-0.6,0-1
	c0-0.8,0-1.3,0-1.6c0.1-0.3,0.2-0.5,0.5-0.6c0.2,0,0.7-0.1,1.4,0c0.4,0,0.7,0,0.9,0c0.2,0,0.6,0,0.9,0c0.7,0,1.2,0,1.4,0
	c0.3,0.1,0.4,0.3,0.5,0.6c0,0.2,0.1,0.7,0,1.6c0,0.4,0,0.8,0,1c0,1.5,0,2.3,0,2.6c0,0.3-0.1,0.4-0.3,0.5C181.9,33,181.1,33,179.5,33
	z M190.2,33c-0.1,0.1-1,0.1-2.6,0.1c-1.6,0-2.4,0-2.6-0.1c-0.2-0.1-0.3-0.2-0.3-0.5c0-0.3,0-1.1,0-2.6c0-0.3,0-0.6,0-1
	c0-0.8,0-1.3,0-1.6c0.1-0.3,0.2-0.5,0.5-0.6c0.2,0,0.7-0.1,1.4,0c0.4,0,0.7,0,0.9,0c0.2,0,0.6,0,0.9,0c0.8,0,1.2,0,1.4,0
	c0.3,0.1,0.4,0.3,0.5,0.6c0,0.2,0.1,0.7,0,1.6c0,0.4,0,0.8,0,1c0,1.5,0,2.4,0,2.6C190.4,32.7,190.3,32.9,190.2,33z M209.6,34.8
	c0.1,0.2,0.2,0.3,0.4,0.3c0.2,0,0.5-0.2,0.9-0.6c0.9-0.7,1.6-1.6,2-2.8c0.4-1.1,0.4-2.1,0.1-2.9c-0.3-0.9-0.9-1.3-1.8-1.2
	c-0.6,0-1,0.3-1.3,0.7c-0.2,0.4-0.3,0.9-0.1,1.4c0.2,0.5,0.5,1,1.1,1.3c0.3,0.2,0.5,0.3,0.6,0.5c0.1,0.1,0.1,0.2,0.1,0.4
	c-0.1,0.4-0.3,0.8-0.6,1.3c-0.4,0.5-0.8,0.8-1.2,1.2c-0.2,0.1-0.3,0.2-0.3,0.3C209.5,34.5,209.5,34.6,209.6,34.8z M236.1,42.9
	c0.1,0.1,0.3,0,0.6-0.2c1.1-0.9,2.1-2,2.8-3.5c0.3-0.5,0.5-0.8,0.6-0.8c0.1,0,0.3,0.2,0.6,0.7c0.5,1.1,1.1,1.9,1.9,2.4
	c0.8,0.5,1.8,0.8,3.1,0.9c0.5,0,1.3,0,2.2,0c0.9,0,1.4,0,1.4,0c0,0,0.1-0.2,0.1-0.5c0.1-0.6,0.3-1,0.6-1.1c0.2-0.2,0.4-0.3,0.4-0.3
	c0,0-0.2-0.1-0.6-0.1c-0.3,0-0.9,0-2,0c-0.2,0-0.5,0-0.9,0c-0.8,0-1.3,0-1.5-0.1c-0.3-0.1-0.5-0.2-0.6-0.5c0-0.2-0.1-0.7,0-1.4
	c0-0.4,0-0.6,0-0.8s0-0.5,0-0.8c0-0.7,0-1.2,0-1.4c0-0.3,0.2-0.4,0.4-0.5c0.2,0,0.6-0.1,1.2-0.1c0.3,0,0.6,0,0.8,0c1.1,0,1.8,0,2,0
	c0.2,0,0.3-0.1,0.4-0.2c0.1-0.1,0-0.2,0-0.3c-0.1-0.1-0.3-0.4-0.6-0.7c-0.6-0.6-1-0.9-1.2-0.9c-0.2,0-0.4,0.2-0.7,0.6
	c-0.3,0.4-0.5,0.7-0.6,0.8c-0.2,0.1-0.4,0.1-0.7,0.1c-0.3,0-0.5,0-0.6-0.1c-0.1-0.1-0.2-0.3-0.2-0.6c0-0.3,0-0.9,0-1.8
	c0,0,0-0.1,0-0.2c0-0.9,0-1.4,0-1.7c0-0.3,0.1-0.5,0.3-0.6c0.1-0.1,0.3-0.1,0.7-0.1c0,0,0.1,0,0.1,0c0.5,0,0.8,0.1,0.9,0.3
	c0.1,0.2,0,0.7-0.3,1.5c-0.2,0.6-0.3,1-0.3,1.1c0,0.1,0.2,0.1,0.5-0.1c0.2-0.2,0.7-0.7,1.5-1.4c0.7-0.6,1.1-1,1.3-1
	c0.4,0,0.5-0.2,0.3-0.5c-0.2-0.4-0.6-0.8-1.2-1.3c-0.3-0.2-0.4-0.3-0.5-0.3c-0.1,0-0.3,0.2-0.6,0.5c0,0-0.1,0.1-0.1,0.1
	c-0.2,0.2-0.5,0.4-0.7,0.4c-0.2,0-1,0-2.2,0c-0.3,0-0.5,0-0.6,0c-1.7,0-2.8,0-3.3,0c-0.7,0-1-0.1-1.1-0.3c0-0.1,0.1-0.4,0.5-0.8
	c0.1-0.1,0.2-0.3,0.4-0.6c0.1-0.1,0.1-0.2,0.2-0.2c0.3-0.4,0.5-0.7,0.7-0.7c0.1,0,1.4-0.1,4-0.1c0.2,0,0.3,0,0.4,0
	c2.2,0,3.4,0,3.8,0c0.4,0,0.6-0.1,0.7-0.2c0.1-0.1,0-0.4-0.4-0.8c-0.3-0.4-0.8-0.8-1.3-1.2c-0.3-0.2-0.4-0.2-0.6-0.2
	c-0.1,0-0.3,0.3-0.6,0.8c0,0,0,0.1-0.1,0.1c-0.3,0.4-0.5,0.6-0.7,0.7c-0.2,0.1-0.8,0.1-1.9,0.1c-0.1,0-0.3,0-0.3,0s-0.2,0-0.4,0
	c-0.8,0-1.3,0-1.5,0c-0.3,0-0.4-0.2-0.4-0.3c0-0.1,0.1-0.4,0.3-0.8c0-0.1,0.1-0.1,0.1-0.2c0.1-0.1,0.1-0.3,0.2-0.5l0.1-0.3
	c0-0.1,0.1-0.2,0.2-0.3c0.1-0.2,0.3-0.3,0.4-0.3c0.3-0.1,0.3-0.3,0-0.4c-0.2-0.2-0.8-0.4-1.8-0.7c-0.5-0.2-0.8-0.3-0.9-0.3
	c-0.1,0-0.1,0.1-0.1,0.3c0,0.5-0.1,1.2-0.4,2.4c-0.3,1.1-0.5,1.8-0.6,2c-0.1,0.2-0.3,0.3-0.4,0.2c-0.2-0.1-0.5-0.4-1.1-0.9
	c0,0-0.1-0.1-0.2-0.2c-0.4-0.3-0.6-0.5-0.7-0.5c-0.1,0-0.2,0.1-0.4,0.4c0,0.1-0.1,0.1-0.1,0.2c-0.7,1.1-1.3,1.3-1.7,0.8
	c-0.1-0.2-0.2-0.8-0.1-1.7c0.1-0.9,0.2-1.4,0.3-1.6c0.2-0.2,0.2-0.3,0-0.5c-0.2-0.1-0.8-0.3-1.8-0.6c0,0-0.1,0-0.1,0
	c-0.4-0.1-0.6-0.2-0.7-0.1c0,0-0.1,0.2,0,0.5c0,0,0,0.1,0,0.1c0.1,0.8,0.2,1.6,0.2,2.4c0,0.8,0,1.3-0.1,1.4
	c-0.2,0.3-1.1,0.4-2.8,0.2c-0.5,0-0.7-0.1-0.8-0.1c-0.1,0-0.1,0.2,0.1,0.6c0.1,0.2,0.2,0.4,0.2,0.4c0.1,0,0.2,0,0.5-0.1
	c0,0,0.1,0,0.1,0c0.6-0.2,0.9-0.2,1.1-0.2c0.2,0,0.4,0.2,0.5,0.6c0.1,0.3,0.1,0.9,0.1,1.8c0,3.3-0.2,6-0.6,8.1s-1.1,4-2,5.5
	c-0.1,0.2-0.2,0.4-0.2,0.5c0,0.1,0,0.2,0.1,0.2c0.1,0.1,0.1,0.1,0.2,0.1c0.1,0,0.3-0.2,0.7-0.7c0.4-0.5,0.7-0.9,1-1.2
	c0.4-0.6,0.7-0.9,0.8-0.7c0,0,0.2,0.1,0.6,0.2c0.4,0.1,0.7,0.3,0.9,0.5c0.2,0.2,0.3,0.6,0.4,1c0,0.3,0.1,0.4,0.2,0.4
	c0.1,0,0.4,0,0.8-0.1c0.8-0.2,1.3-0.6,1.7-1.2c0.4-0.7,0.8-1.7,1-3.1c0.2-1.3,0.4-3.3,0.5-5.8c0-0.6,0.1-1,0.1-1.2
	c0.1-0.2,0.2-0.3,0.5-0.4c0.2-0.1,0.3-0.2,0.3-0.3c0-0.1-0.1-0.2-0.3-0.5c-0.1-0.1-0.3-0.3-0.4-0.5c-0.1-0.1-0.2-0.2-0.5-0.4
	c-0.1-0.1-0.3-0.2-0.6-0.3c-0.2-0.1-0.3-0.1-0.4-0.1s-0.2,0.2-0.5,0.5c-0.3,0.3-0.5,0.5-0.6,0.6c-0.1,0.1-0.4,0.1-0.7,0.1
	c-0.5,0-0.7-0.1-0.8-0.2c-0.1-0.1-0.1-0.6-0.1-1.3c0-0.1,0-0.3,0-0.5c0-0.6,0-1,0.1-1.1c0.1-0.2,0.3-0.4,0.6-0.4c0.2,0,0.7,0,1.5,0
	c0.2,0,0.4,0,0.6,0c1.1,0,1.8,0,2.1,0.1c0.4,0.1,0.5,0.3,0.4,0.6c0,0.2-0.3,0.7-0.8,1.5c-0.2,0.3-0.3,0.4-0.3,0.5c0,0.1,0,0.1,0,0.2
	c0.1,0,0.2,0,0.2,0c0.1,0,0.2-0.1,0.4-0.3c0.2-0.2,0.4-0.2,0.6-0.2c0.2,0,0.3,0.2,0.4,0.4c0.1,0.2,0.2,0.2,0.2,0.3
	c0.1,0,0.3,0,0.6-0.1c1.6-0.3,2.5-0.3,2.7,0.1c0,0.1,0.1,1.6,0.1,4.5c0,2.9,0,4.6,0,4.9c0,0.4-0.2,0.5-0.5,0.5c-0.3-0.1-0.6-0.4-1-1
	c-0.4-0.5-0.6-0.9-0.6-1.2c-0.1-0.3,0-0.8,0.1-1.4c0.1-0.3,0.2-0.9,0.3-1.6c0.1-0.5,0.1-0.8,0.2-1c0.1-0.2,0.2-0.3,0.3-0.4
	c0.4-0.3-0.2-0.5-1.9-0.6c-0.3,0-0.5,0-0.6,0c0,0-0.1,0.2-0.1,0.6c0,2.2-0.2,4-0.6,5.4c-0.4,1.4-1,2.8-1.9,4.1
	C236.1,42.6,236,42.8,236.1,42.9z M233,40.1c-0.4,0-0.6,0-0.7,0l-0.3,0c-0.1,0-0.3,0-0.3,0c-0.4,0-0.6-0.1-0.6-0.2
	c0-0.1,0.1-0.5,0.4-1.2c0.8-1.7,1.3-4,1.6-6.7c0.1-0.7,0.2-1.1,0.3-1.2c0.1-0.1,0.4-0.2,0.9-0.2c0.4,0,0.7,0,0.8,0.1
	c0.1,0.1,0.2,0.4,0.2,0.9c0,0.3,0,1.1-0.1,2.4c-0.1,2.1-0.3,3.5-0.5,4.4c-0.2,0.9-0.5,1.4-0.9,1.6C233.7,40,233.4,40,233,40.1z
	 M271.7,43.1c0,0.1,0.3,0.1,0.8,0c0.5-0.1,0.9-0.3,1.2-0.4c0.3-0.2,0.5-0.5,0.6-0.8c0.1-0.3,0.1-1.1,0.2-2.3c0-0.1,0-0.3,0-0.5
	c0-0.7,0-1.2,0.1-1.4c0-0.3,0.2-0.4,0.4-0.5c0.1,0,0.5-0.1,1-0.1c0.2,0,0.3,0,0.4,0c1,0,1.5,0,1.6-0.1c0.1-0.1-0.1-0.4-0.6-1
	c-0.4-0.4-0.6-0.7-0.6-0.8c0-0.1,0-0.3,0.2-0.4c0.3-0.3,0.4-0.6,0.3-1.1c-0.1-0.5-0.5-0.9-1-1.2c-0.3-0.2-0.5-0.4-0.5-0.5
	c0-0.1,0.1-0.3,0.3-0.4c0,0,0.1,0,0.1-0.1c0.2-0.1,0.3-0.2,0.3-0.4c0-0.2,0-0.6,0-1.5c0-0.2,0-0.4,0-0.5c0-1.2,0-2,0.1-2.3
	c0-0.3,0.2-0.5,0.4-0.6c0.2-0.1,0.2-0.2,0.2-0.3c0-0.1-0.2-0.4-0.6-0.7c-0.5-0.5-0.9-0.7-1.1-0.8c-0.2-0.1-0.4,0-0.6,0.3
	c-0.3,0.4-0.5,0.6-0.6,0.7c-0.1,0.1-0.4,0.1-0.9,0.1c-0.4,0-0.7-0.1-0.8-0.2c-0.1-0.1-0.2-0.3-0.2-0.7c0-0.3,0.1-0.5,0.1-0.5
	c0.1-0.1,0.3-0.2,0.7-0.2c0.3,0,0.9,0,1.8,0c1.7,0,2.6-0.1,2.7-0.3c0.2-0.2-0.3-0.7-1.4-1.5c-0.3-0.2-0.5-0.3-0.6-0.3
	c-0.1,0-0.3,0.3-0.6,0.7c-0.6,0.8-1.3,1-2.2,0.8c-0.3-0.1-0.4-0.2-0.4-0.5c0-0.3,0.1-0.5,0.3-0.7c0.2-0.2,0.2-0.3,0-0.5
	c-0.2-0.1-0.7-0.3-1.6-0.6c0,0-0.1,0-0.2,0c-0.4-0.1-0.6-0.1-0.6-0.1c0,0-0.1,0.1,0,0.4c0,0,0,0.1,0,0.1c0,0.7,0,1.2,0,1.4
	c-0.1,0.3-0.4,0.4-0.9,0.5c-0.4,0-1.3,0-2.6-0.1c-0.1,0-0.3,0-0.4,0c-0.3,0-0.5,0-0.5,0c0,0-0.1,0-0.1,0.1c0,0.2-0.3,0.1-0.8-0.2
	l0,0c-0.3-0.2-0.4-0.2-0.5-0.2c-0.1,0-0.3,0.3-0.6,0.8c-0.4,0.6-0.9,0.8-1.2,0.6c-0.2-0.1-0.3-0.5-0.3-1.1c0-0.6,0.1-0.9,0.3-1.1
	c0.5-0.3-0.1-0.6-1.9-1.1c-0.3-0.1-0.5-0.1-0.5-0.1c0,0,0,0.1,0,0.4c0.1,0.6,0.1,1.2,0.1,1.8c0,0.6,0,0.9-0.1,1
	c-0.2,0.3-1.2,0.3-3,0.1c0,0,0,0-0.1,0c-0.3,0-0.5,0-0.6,0c0,0,0,0.2,0.2,0.5l0,0c0,0,0,0,0,0.1c0.1,0.2,0.2,0.3,0.3,0.3
	c0.1,0,0.2,0,0.5-0.1c0.1,0,0.1,0,0.1,0c0.9-0.2,1.6-0.2,2-0.1c0.4,0.1,0.6,0.5,0.6,1c0,0.6-0.1,1-0.4,1.1c-0.3,0.1-0.9-0.1-1.8-0.5
	c-0.5-0.2-0.8-0.4-0.9-0.4s-0.1,0-0.1,0.1c0,0.1,0,0.3,0.1,0.7c0.1,0.9,0.2,2.2,0.2,4c0,1.8,0,3.1-0.1,3.9c0,0.4,0,0.7,0.1,0.9
	c0.1,0.1,0.3,0.2,0.6,0.1c0.8-0.1,1.2-0.4,1.2-0.7c0-0.3,0.1-0.4,0.3-0.6c0.2-0.1,0.4-0.2,0.6,0c0.2,0.2,0.3,0.6,0.3,1.4
	c0,0.8-0.2,1.2-0.4,1.3c-0.1,0.1-0.6,0.1-1.6,0c-0.9,0-1.5-0.1-1.8-0.1c-0.1,0-0.1,0-0.1,0.1c0,0.1,0.1,0.2,0.2,0.5c0,0,0,0,0,0.1
	c0.1,0.2,0.2,0.4,0.3,0.4s0.2,0,0.5,0c0,0,0.1,0,0.1,0c0.7-0.1,1.3-0.2,1.8-0.2c0.5,0,0.8,0.1,0.9,0.3c0,0.1,0.1,0.6,0,1.5
	c0,0.9,0,1.6-0.1,2.3c0,0.5,0.1,0.8,0.4,0.9c0.3,0.1,0.8,0,1.3-0.3c0.2-0.1,0.3-0.2,0.4-0.3c0-0.1,0.1-0.4,0-0.8c0-0.1,0-0.1,0-0.1
	c0-0.1,0-0.3,0-0.6c0-1-0.1-1.7,0-1.9c0-0.4,0.2-0.6,0.5-0.7c0.2-0.1,0.6-0.1,1.3-0.1c0.2,0,0.3,0,0.4,0c1,0,1.5,0,1.7,0
	s0.3-0.1,0.4-0.2c0-0.1,0-0.1,0-0.2c-0.1-0.1-0.1-0.3,0-0.4s0.3-0.2,0.5-0.1c0.2,0,0.4,0.1,0.4,0.2c0,0,0.1,0.2,0.2,0.4
	c0.2,0.3,0.4,0.7,0.5,1.2c0.2,0.5,0.3,0.9,0.3,1.1c0,0.3,0.3,0.5,0.9,0.7c0.1,0,0.2,0,0.3,0.1l0,0c0,0,0,0.1,0,0.1
	c0,0.1,0.2,0.2,0.4,0.2c0.5,0.1,0.9,0.3,1.1,0.5c0.2,0.2,0.4,0.6,0.5,1.1c0,0,0,0.1,0,0.1C271.7,43,271.7,43,271.7,43.1z
	 M272.1,40.7c-0.2,0.1-0.8,0.1-1.6,0c-0.2,0-0.3-0.1-0.3-0.2c0-0.1,0-0.3,0.1-0.6c0.3-0.7-0.1-1.4-1.1-2.1c-0.5-0.4-0.7-0.6-0.6-0.7
	c0.2-0.1,0.8-0.1,1.9-0.1c0.1,0,0.2,0,0.3,0c0.8,0,1.3,0.1,1.4,0.2s0.2,0.6,0.2,1.4c0,0.1,0,0.2,0,0.3c0,0.8,0,1.3,0,1.4
	C272.3,40.5,272.2,40.6,272.1,40.7z M263.2,37.2c-0.2,0.1-0.3,0.1-0.5,0.1c-0.2,0-0.3-0.1-0.4-0.2c-0.1-0.1-0.1-0.4-0.1-1
	c0-0.6,0-1,0-1.2c0.1-0.4,0.3-0.5,0.6-0.4c0.3,0.1,0.5,0.3,0.5,0.7c0,0.3,0.1,0.5,0.4,0.5c0.3,0,0.6-0.1,1-0.3c0,0,0,0,0.1-0.1
	c0.2-0.2,0.4-0.3,0.4-0.4c0-0.1,0.1-0.3,0-0.7c0,0,0-0.1,0-0.1c-0.1-2.2-0.1-3.7-0.1-4.3c0-0.9,0-1.5,0.1-1.7
	c0.1-0.2,0.2-0.4,0.5-0.5c0.2-0.1,0.3-0.2,0.2-0.4c-0.1-0.2-0.4-0.5-1-0.9c-0.4-0.3-0.6-0.4-0.7-0.4c-0.1,0-0.3,0.1-0.5,0.4
	c-0.4,0.5-0.8,0.7-1.1,0.6c-0.3-0.1-0.4-0.5-0.4-1.1v0c0-0.4,0-0.6,0.1-0.6c0.1-0.1,0.2-0.2,0.5-0.3c0.2,0,0.6,0,1.4,0
	c0.1,0,0.1,0,0.1,0c0.9,0,1.5,0,1.6,0c0.2,0,0.3,0.1,0.4,0.2c0.1,0.2,0.2,1,0.2,2.5c0,1.5,0,2.6,0,3.4c0,0.5,0,0.8,0,0.9
	c0.1,0.1,0.2,0.2,0.5,0.1c0.3,0,0.6-0.1,1-0.2c0.3-0.2,0.5-0.3,0.5-0.4c0-0.4,0.3-0.6,1-0.6c0.4,0,0.7,0.1,0.8,0.2s0.2,0.4,0.2,1
	c0,0,0,0.1,0,0.1c0,0.4,0,0.6-0.1,0.7c-0.1,0.1-0.4,0.2-0.8,0.3c-0.3,0-1,0.1-2.2,0.1c-0.1,0-0.3,0-0.3,0c-0.1,0-0.2,0-0.3,0
	c-0.4,0-0.6,0.1-0.6,0.1c0,0.1,0,0.3,0.2,0.7c0,0.1,0.1,0.2,0.1,0.3c0,0,0,0.1,0.1,0.2c0.2,0.5,0.4,0.8,0.4,0.9
	c0.1,0.1,0.2,0,0.3-0.1l0,0c0.2-0.1,0.4-0.3,0.6-0.3c0.3-0.1,0.9-0.3,1.9-0.5c0.1,0,0.3-0.1,0.5-0.1c0.8-0.2,1.2-0.3,1.4-0.3
	c0.3,0,0.5,0,0.5,0.1c0.1,0.1,0.1,0.3,0.1,0.7c0,0.1,0,0.2,0,0.2c0,0.1,0,0.2,0,0.3c0,0.4,0,0.6-0.1,0.7c-0.1,0.1-0.3,0.2-0.7,0.2
	c-0.3,0-0.9,0-1.8,0c-0.4,0-0.7,0-0.9,0c-1.5,0-2.4,0-2.7,0c-0.3,0-0.4,0-0.4,0.1c0,0.1-0.1,0.1-0.3,0.1c-0.2-0.1-0.4-0.2-0.7-0.4
	l0,0c-0.2-0.1-0.3-0.2-0.3-0.2c0,0-0.1,0.1-0.3,0.3c0,0-0.1,0.1-0.1,0.1C263.7,36.8,263.4,37.1,263.2,37.2z M275.1,36.2
	c-0.3,0.1-0.4,0-0.5-0.3c-0.1-0.3,0-0.6,0.3-0.7c0.2-0.1,0.2-0.2,0-0.3c-0.1-0.1-0.4-0.2-1-0.4c-0.6-0.2-1-0.4-1-0.6s0.3-0.3,1-0.5
	c0.5-0.1,0.8-0.1,1,0c0.2,0.1,0.4,0.4,0.7,0.8c0,0,0.1,0.1,0.1,0.2c0.1,0.2,0.2,0.3,0.2,0.3c0.1,0.1,0.1,0.4-0.1,0.8
	C275.5,35.9,275.3,36.1,275.1,36.2z M263.1,33.6c-0.7,0.5-1.1,0.1-1.1-1.3s0.4-1.8,1.1-1.3c0.2,0.1,0.3,0.6,0.3,1.3
	S263.3,33.5,263.1,33.6z M259.7,33.7c-0.3,0-0.5-0.1-0.6-0.3c-0.1-0.2-0.1-0.6-0.1-1.1c0-0.6,0.1-1.1,0.3-1.3c0.2-0.2,0.5-0.2,0.8,0
	c0.2,0.1,0.3,0.6,0.3,1.3s-0.1,1.1-0.3,1.3C260,33.7,259.9,33.7,259.7,33.7z M273.8,32.8c-0.2,0.1-0.4,0.2-0.8,0.1
	c-0.3,0-0.5-0.1-0.6-0.3c-0.3-0.4-0.3-0.8-0.1-1.2c0.2-0.4,0.6-0.6,1.1-0.6c0.5,0,0.8,0.1,0.9,0.4c0.1,0.2-0.1,0.3-0.6,0.3
	c-0.2,0-0.3,0-0.3,0.1c0,0,0.1,0.2,0.3,0.4C274,32.3,274.1,32.6,273.8,32.8z M263,30.2c-0.4,0.1-0.6,0.1-0.7-0.1s-0.2-0.6-0.2-1.2
	c0-1.3,0.4-1.7,1.1-1.2c0.2,0.2,0.3,0.6,0.3,1.3C263.4,29.7,263.3,30.1,263,30.2z M270.1,30.1c-0.4,0.2-0.7,0.2-1.1,0
	c-0.4-0.2-0.6-0.4-0.6-0.8c0-0.4,0.2-0.6,0.6-0.8c0.4-0.2,0.8-0.2,1.1,0c0.2,0.1,0.3,0.4,0.3,0.8C270.4,29.7,270.3,29.9,270.1,30.1z
	 M260.1,30.2c-0.2,0.1-0.3,0.1-0.6,0.1c-0.2,0-0.3-0.1-0.4-0.3c-0.1-0.1-0.1-0.4-0.1-0.9s0-0.9,0-1.1c0.1-0.3,0.3-0.5,0.6-0.5
	s0.5,0.2,0.6,0.5c0.1,0.3,0.1,0.7,0,1.3C260.3,29.8,260.2,30.1,260.1,30.2z M273.4,30.1c-0.4,0-0.7,0-0.9-0.1
	c-0.1-0.1-0.2-0.3-0.2-0.7c0-0.4,0.1-0.6,0.2-0.7c0.1-0.1,0.4-0.2,0.9-0.2s0.7,0.1,0.9,0.2c0.1,0.1,0.2,0.3,0.2,0.7
	c0,0.4-0.1,0.6-0.3,0.7C274.1,30.1,273.8,30.1,273.4,30.1z M274.1,27.7c-0.4,0.2-0.8,0.2-1.2,0c-0.4-0.1-0.6-0.4-0.6-0.7
	c0-0.4,0.1-0.8,0.6-1c0.4-0.2,0.9-0.2,1.3,0.1c0.2,0.1,0.3,0.4,0.3,0.8C274.4,27.4,274.3,27.6,274.1,27.7z M270,27.7
	c-0.2,0.1-0.5,0.1-0.9,0.1c-0.4,0-0.6-0.1-0.6-0.3c-0.3-0.5-0.2-0.9,0.2-1.2c0.4-0.4,0.8-0.4,1.3-0.1c0.2,0.1,0.3,0.4,0.3,0.8
	C270.4,27.3,270.2,27.6,270,27.7z M270.1,25.3c-0.1,0.1-0.4,0.1-0.8,0.1s-0.8-0.1-1-0.1c-1.5-0.5-2-0.9-1.4-1.2
	c0.2-0.1,0.8-0.2,1.6-0.2s1.4,0,1.6,0c0.2,0.1,0.3,0.4,0.3,0.7C270.4,24.9,270.3,25.2,270.1,25.3z M286.7,43c0.7,0.2,1.2-0.1,1.5-1
	c0.3-0.9,0.2-2-0.2-3.3c0,0,0,0,0-0.1c-0.2-0.8-0.3-1.3-0.3-1.7c0-0.5,0.2-1.4,0.5-2.4c0.2-0.8,0.8-2.5,1.7-5.3
	c0-0.1,0.1-0.2,0.1-0.2c0-0.1,0-0.2,0.1-0.3c0.3-0.9,0.5-1.5,0.6-1.8c0.1-0.4,0.2-0.6,0.1-0.6c0-0.1,0-0.1-0.1-0.1
	c-0.1,0-0.2,0.1-0.3,0.4c-0.1,0.3-0.5,1-1,2.1c-0.1,0.2-0.3,0.6-0.5,1c-1.1,2.4-1.7,3.8-2,4.5c-0.4,0.9-0.8,1.4-1,1.7
	c-0.2,0.2-0.4,0.2-0.7,0.3c0,0-0.1,0-0.1,0c-0.3,0-0.5,0-0.5,0.1c-0.1,0-0.1,0.1,0,0.2c0,0.1,0,0.1,0.1,0.1c0,0,0.1,0,0.3,0.1
	c1.1,0.2,1.5,1.8,1.1,4.6c-0.1,1,0.1,1.6,0.7,1.8C286.7,43,286.7,43,286.7,43z M295.8,42.9c0,0,0.2,0,0.4,0c0.1,0,0.1,0,0.1,0
	c0.7-0.1,1.1-0.3,1.5-0.5c0.3-0.2,0.6-0.6,0.7-1c0-0.2,0.1-0.4,0.1-0.7c0-0.3,0-1.4,0-3.2v0c0-0.3,0-0.7,0-1.2c0-1.1,0-1.8,0-2.1
	c0-0.4,0.1-0.7,0.2-0.8c0.1-0.1,0.3-0.1,0.6-0.1c0.1,0,0.3,0,0.3,0c0.6,0,1,0,1.1,0.1c0.1,0.1,0.2,0.3,0.2,0.6
	c0,0.3,0.2,0.4,0.5,0.5c0.4,0,0.8-0.1,1.3-0.3c0,0,0,0,0.1,0c0.2-0.1,0.3-0.2,0.3-0.3c0-0.1,0-0.5,0-1.1c0-0.1,0-0.2,0-0.2
	c-0.1-1.7-0.1-2.7,0-3.2c0-0.5,0.2-0.8,0.4-0.9c0.3-0.1,0.4-0.3,0.4-0.4c0-0.1-0.3-0.4-0.8-0.8c-0.5-0.5-0.8-0.7-1.1-0.8
	c-0.1,0-0.2,0-0.3,0c-0.1,0-0.2,0.2-0.4,0.5c0,0-0.1,0.1-0.1,0.2c-0.2,0.3-0.4,0.5-0.7,0.6c-0.3,0-1.1,0.1-2.4,0.1
	c-0.3,0-0.6,0-0.8,0c-0.2,0-0.5,0-0.8,0c-1.2,0-2,0-2.3,0c-0.3,0-0.7-0.1-1.1-0.3c-0.1,0-0.2-0.1-0.3-0.1c-0.3-0.1-0.7-0.3-1.1-0.5
	c-0.1,0-0.2,0-0.2,0c0,0,0,0.2,0,0.4c0.1,0.9,0.2,2,0.2,3.3c0,1.3,0,2.5-0.1,3.6c0,0.6,0.4,0.8,1.3,0.6c0.3-0.1,0.6-0.2,0.7-0.3
	c0.1-0.1,0.2-0.3,0.2-0.4c0-0.3,0.1-0.5,0.2-0.6c0.2-0.1,0.5-0.1,1.1-0.1c0.1,0,0.2,0,0.3,0c0.3,0,0.6,0,0.6,0.1
	c0.1,0.1,0.2,0.4,0.2,0.7c0,0.3,0,1,0,2c0,0.4,0,0.7,0,1c0,0.2,0,0.5,0,0.8c0,1.1,0,1.7-0.1,2c0,0.4-0.2,0.6-0.4,0.7
	c-0.2,0.1-0.5,0.1-1.2,0c-0.2,0-0.4,0-0.5,0c-0.7,0-1-0.1-1.1,0c-0.2,0.1,0,0.2,0.4,0.3c0.6,0.1,1.1,0.4,1.4,0.7
	c0.3,0.3,0.5,0.7,0.5,1.2C295.8,42.8,295.8,42.8,295.8,42.9z M289.2,41.5c0.2,0.2,0.8-0.2,2-1.1c1.2-0.9,2.1-1.8,2.8-2.6
	c0.6-0.7,0.9-1,1.1-1c0.5-0.1,0.4-0.3-0.3-0.6c-0.1-0.1-0.4-0.2-0.9-0.5c-0.1-0.1-0.2-0.1-0.3-0.2c-0.4-0.2-0.6-0.3-0.7-0.4
	c-0.1,0-0.2,0-0.2,0.1c0,0.5-0.3,1.4-1,2.6c-0.7,1.2-1.4,2.2-2.1,3c-0.2,0.2-0.3,0.3-0.4,0.4C289.2,41.4,289.2,41.5,289.2,41.5z
	 M304.1,41.3c0.4,0.1,0.8,0.1,1.1-0.2c0.3-0.3,0.4-0.7,0.3-1.2c-0.1-0.8-0.6-1.6-1.4-2.3c-0.8-0.7-1.8-1.3-3.1-1.7
	c-0.5-0.2-0.8-0.2-0.8-0.1c0,0.1,0.1,0.3,0.5,0.7c1.3,1.4,2.3,2.8,2.9,4.2C303.6,41,303.8,41.2,304.1,41.3z M301,32.4
	c-0.1,0.1-1.2,0.1-3.2,0.1c-2,0-3.1,0-3.2-0.1c-0.2-0.1-0.3-0.2-0.3-0.4c0-0.2,0-0.8,0-1.7c0-0.9,0-1.4,0-1.6c0-0.2,0.1-0.3,0.3-0.4
	c0.1-0.1,1.2-0.1,3.3-0.1c2.1,0,3.2,0.1,3.3,0.1c0.2,0.2,0.3,0.8,0.3,2C301.4,31.6,301.2,32.3,301,32.4z M286.7,29.9
	c0.5,0.2,0.9,0.1,1.1-0.3c0.2-0.3,0.3-0.7,0.2-1.2c-0.1-0.5-0.4-0.9-0.9-1.2c-0.4-0.3-0.8-0.5-1.4-0.6c-0.5-0.1-0.9-0.2-1.2-0.2
	c-0.3,0-0.3,0.2-0.1,0.4c0.8,0.8,1.4,1.6,1.7,2.5c0.1,0.2,0.2,0.4,0.2,0.4C286.4,29.8,286.5,29.9,286.7,29.9z M290.6,25.4
	c0.1,0,0.2,0,0.4,0c0,0,0.1,0,0.1,0c0.7-0.1,1.3-0.2,2-0.2c0.7,0,2.7,0,6,0c0.3,0,0.8,0,1.3,0c2,0,3.2,0,3.8,0c0.7,0,1.2,0,1.4-0.1
	c0.1,0,0.2-0.1,0.2-0.2v0c0-0.2-0.3-0.6-1-1.2c-0.7-0.6-1.1-0.9-1.3-0.8c-0.1,0.1-0.4,0.4-0.8,1c-0.2,0.3-0.4,0.5-0.6,0.6
	c-0.2,0.1-0.7,0.1-1.6,0.1c0,0-0.1,0-0.1,0c-0.6,0-1,0-1.2,0c-0.2,0-0.4-0.1-0.4-0.3c0-0.1-0.1-0.4-0.1-0.8v0c0-0.4,0-0.7,0.1-0.9
	c0-0.2,0.2-0.3,0.3-0.4c0.3-0.2,0.2-0.3,0-0.5c-0.3-0.2-0.9-0.4-1.9-0.6c-0.4-0.1-0.7-0.2-0.7-0.1c0,0-0.1,0.1,0,0.4v0
	c0.2,1.9,0.2,3-0.2,3.1c-0.1,0.1-1,0.1-2.7,0c-1.6,0-2.7-0.1-3.3-0.1c-0.1,0-0.2,0-0.2,0.1s0.1,0.3,0.2,0.6c0,0,0,0,0,0.1
	C290.5,25.2,290.6,25.3,290.6,25.4z M288.4,24.8c0.4,0.2,0.8,0.1,1.2-0.2c0.3-0.3,0.5-0.6,0.4-1c-0.1-0.4-0.4-0.8-0.8-1.2
	c-0.5-0.4-1-0.7-1.6-0.9c-0.8-0.2-1.4-0.3-1.6-0.2c-0.2,0-0.1,0.3,0.2,0.6c0.7,0.7,1.3,1.5,1.8,2.4c0.1,0.3,0.2,0.4,0.3,0.5
	C288.2,24.7,288.3,24.7,288.4,24.8z M31.1,66.9c0.2,0.1,0.5,0.1,0.9,0c0.4-0.1,0.8-0.3,1-0.5C33,66.3,33,66.2,33,66
	c0-0.1,0-0.6,0-1.4c0-0.2,0-0.4,0-0.7c0-0.6,0-0.9,0-1.1c0.1-0.2,0.4-0.4,0.9-0.4c0.3,0,1.1,0,2.4,0c0.7,0,1.2,0,1.6,0
	c0.2,0,0.5,0,0.8,0c1.5,0,2.4,0,2.8,0c0.5,0,0.9,0,1-0.1c0.1,0,0.2-0.1,0.2-0.2v0c0-0.2-0.2-0.5-0.8-1.1c-0.5-0.5-0.9-0.8-1.1-0.8
	c-0.1,0-0.4,0.3-0.7,0.8c-0.2,0.4-0.5,0.6-0.7,0.6c-0.1,0-1.2,0-3,0c-1.9,0-2.9,0-3-0.1c-0.2-0.1-0.3-0.2-0.3-0.4
	c0-0.2,0.2-0.4,0.5-0.5c0.6-0.4,1.3-0.9,2.1-1.5c0.3-0.3,0.5-0.4,0.7-0.5c0.1,0,0.3,0,0.5,0.1c0.2,0.1,0.4,0.4,0.7,0.7
	c0.3,0.4,0.5,0.7,0.7,1c0.2,0.3,0.4,0.5,0.7,0.5c0.3,0,0.6-0.1,0.7-0.4c0.2-0.4,0.1-0.9-0.2-1.4c-0.4-0.5-0.9-0.9-1.5-1.1
	c-0.4-0.1-0.6-0.3-0.6-0.4c0-0.2,0.1-0.5,0.3-0.9c0.2-0.3,0.3-0.4,0.4-0.4c0.4-0.1,0-0.4-1.2-0.9c0,0-0.1,0-0.1,0
	c-0.4-0.2-0.6-0.3-0.7-0.2c-0.1,0-0.1,0.1-0.2,0.4c0,0,0,0.1,0,0.1c-0.2,1-0.7,2.1-1.3,3.2c-0.7,1.1-1.1,1.5-1.4,1.2
	c-0.1-0.1-0.1-0.2-0.1-0.4c0-0.2,0-0.8,0-1.6c0-1,0-1.6,0-1.8c0-0.2,0.2-0.4,0.4-0.5c0.8-0.4,1.5-0.9,2.1-1.5
	c0.4-0.3,0.6-0.5,0.8-0.5s0.5,0.2,0.8,0.5c0.4,0.4,0.7,0.8,0.9,1.2c0.2,0.4,0.5,0.6,0.8,0.6c0.3,0,0.6-0.1,0.7-0.4
	c0.2-0.3,0.2-0.7,0-1.1c-0.3-0.6-0.9-1-1.8-1.3c-0.5-0.2-0.7-0.3-0.7-0.5c0-0.1,0.1-0.3,0.3-0.6c0.2-0.3,0.3-0.4,0.4-0.4
	c0.1,0,0.1,0,0.2-0.1c0.1-0.1,0.2-0.1,0.3,0c0.2,0,0.4,0.2,0.9,0.4c0.8,0.4,1.4,0.7,1.7,0.8c0.3,0.1,0.5,0,0.5-0.1
	c0.1-0.3,0.3-0.7,0.5-1c0.3-0.3,0.5-0.5,0.8-0.7c0.3-0.2,0.4-0.3,0.3-0.4c-0.1-0.1-0.4-0.2-0.9-0.4c-1.5-0.4-3-0.9-4.5-1.5
	c-1.4-0.6-2.5-1.2-3.3-1.7c-0.8-0.6-1-0.9-0.6-1.1c0.2-0.1,0.3-0.2,0.3-0.2c0-0.1-0.1-0.1-0.4-0.2c-0.2-0.1-0.6-0.2-1.3-0.4
	c0,0-0.1,0-0.1,0c-0.1,0-0.2-0.1-0.4-0.1c-0.7-0.2-1.1-0.3-1.2-0.3c-0.1,0-0.2,0.1-0.2,0.2l0,0c-0.4,1.2-1.4,2.6-3,4.2
	c-1.6,1.6-3.5,2.9-5.5,3.9c-0.3,0.1-0.4,0.2-0.5,0.3c0,0.1,0,0.1,0,0.2c0.1,0.1,0.6-0.1,1.4-0.4c0.9-0.4,1.7-0.8,2.6-1.2
	c0.8-0.4,1.2-0.6,1.3-0.5c0.2,0.2,0,0.7-0.7,1.7c-0.7,1-1.4,1.7-2.1,2.3c-0.2,0.2-0.3,0.3-0.4,0.3c0,0,0,0.1,0.1,0.2
	c0.1,0.1,0.5,0,1.2-0.4c0.7-0.4,1.3-0.8,1.9-1.2c0.3-0.3,0.5-0.4,0.6-0.5c0.1-0.1,0.2-0.1,0.3-0.1c0.4,0,0.8,0.5,1.3,1.4
	c0.2,0.4,0.5,0.6,0.8,0.6c0.3,0,0.5-0.1,0.7-0.4s0.2-0.6,0-1c-0.2-0.4-0.7-0.8-1.4-1.1c-0.4-0.1-0.5-0.3-0.6-0.4
	c0-0.2,0.1-0.4,0.3-0.7c0.1-0.2,0.2-0.2,0.3-0.2c0.2,0,0.3-0.1,0.2-0.2c-0.1-0.1-0.3-0.3-0.6-0.4c-0.4-0.2-0.6-0.4-0.6-0.5
	c0-0.1,0.2-0.4,0.6-0.6c1.7-1.2,2.9-2.2,3.5-2.9c0.2-0.3,0.5-0.4,0.7-0.4c0.1,0,0.2,0,0.2,0.1c0.1,0,0.2,0.2,0.4,0.5
	c0.1,0.1,0.1,0.2,0.2,0.2c0.5,0.7,1.2,1.4,2,2.1c0.4,0.3,0.5,0.5,0.6,0.7c0,0.1,0,0.2-0.3,0.2c-0.1,0-0.2,0-0.2,0.1
	c0,0-0.1,0.2-0.1,0.4c-0.2,1-0.6,2-1.2,2.9c-0.6,0.9-1,1.3-1.2,1c-0.2-0.2-0.2-1-0.2-2.3c0-1.4,0.1-2.1,0.3-2.2
	c0.2-0.1,0.2-0.3-0.1-0.5c-0.3-0.2-1-0.4-2-0.7h0c-0.2-0.1-0.3-0.1-0.4,0c0,0,0,0.3,0,0.6c0.1,1.2,0.2,2.9,0.2,5c0,1.2,0,2.4,0,3.6
	c0,1.5,0,2.4,0,2.7c0,0.3-0.1,0.4-0.3,0.5c-0.1,0.1-1.6,0.1-4.4,0.1s-4.4-0.1-4.7-0.1c-0.1,0-0.2,0-0.2,0.1c0,0.1,0.1,0.2,0.2,0.5
	c0,0,0,0.1,0.1,0.1c0.1,0.2,0.2,0.3,0.3,0.4c0.1,0,0.3,0,0.6,0c0.1,0,0.2,0,0.2,0c1.1-0.1,2.7-0.2,4.9-0.2c0.2,0,0.5,0,0.8,0
	c1,0,1.6,0,1.9,0.1c0.4,0.1,0.6,0.3,0.6,0.7c0,0.3,0,0.9,0,1.9c0,0.3,0,0.6,0,0.8c0,0.4,0,0.7,0,0.8C30.9,66.7,31,66.8,31.1,66.9z
	 M23.1,61.1c0.1,0.1,0.5-0.1,1.2-0.6c0.7-0.5,1.4-0.9,1.8-1.4c0.3-0.3,0.5-0.4,0.6-0.5c0.1-0.1,0.3-0.1,0.4,0
	c0.2,0.1,0.4,0.3,0.7,0.7c0.3,0.4,0.6,0.8,0.8,1.2c0.1,0.3,0.4,0.4,0.7,0.4c0.3,0,0.6-0.1,0.7-0.4c0.3-0.4,0.2-0.8-0.2-1.3
	c-0.4-0.5-0.9-0.9-1.6-1.1c-0.4-0.1-0.7-0.3-0.7-0.4c0-0.2,0.1-0.5,0.4-0.8c0.1-0.2,0.2-0.3,0.3-0.3c0.3,0,0.3-0.1,0.1-0.2
	c-0.2-0.2-0.6-0.4-1.2-0.7c0,0,0,0-0.1,0c-0.4-0.2-0.6-0.3-0.7-0.3c-0.1,0-0.1,0.2-0.2,0.4c0,0,0,0.1,0,0.1
	c-0.5,1.9-1.4,3.4-2.8,4.5c-0.3,0.2-0.4,0.4-0.5,0.4C22.9,60.9,23,61,23.1,61.1z M54.3,66.8c0,0.1,0.2,0.1,0.5,0
	c0.3-0.1,0.9-0.3,1.8-0.6c2.8-1.1,5.2-2.5,7.1-4.4c0.4-0.4,0.7-0.6,0.8-0.7c0.2-0.1,0.4-0.1,0.6,0.1c0.1,0.1,0.4,0.5,0.9,1.1
	c0.8,1.1,1.5,2.2,2,3.2c0.3,0.5,0.4,0.8,0.5,0.9c0.1,0.1,0.3,0.2,0.6,0.3c0.6,0.1,0.9-0.1,1.2-0.6c0.2-0.5,0.2-1.1-0.1-1.8
	c-0.5-1.3-1.8-2.6-3.8-3.6c-0.5-0.3-0.8-0.5-0.9-0.6c0-0.2,0-0.5,0.3-0.9c0.7-1.3,1.3-2.8,1.6-4.3c0.3-1.5,0.6-3.6,0.7-6.3
	c0-0.6,0-1,0.1-1.2c0.1-0.2,0.2-0.3,0.3-0.4c0.3-0.2,0.3-0.3,0-0.4c-0.3-0.1-1-0.2-2.1-0.4c-0.4,0-0.7-0.1-0.8,0
	c-0.1,0-0.1,0.1-0.1,0.1c0.1,0.3,0.1,1.4,0.1,3.2c-0.1,4.1-0.9,7.5-2.5,10.1c-1.6,2.6-4.3,4.8-8,6.6c-0.5,0.2-0.7,0.4-0.8,0.4
	C54.3,66.6,54.3,66.7,54.3,66.8z M50.1,65c0.1,0.1,0.2,0,0.3-0.1c0.2-0.2,0.4-0.4,0.6-0.5c0.2-0.1,0.8-0.4,1.6-0.9
	c1.8-0.9,3.5-1.8,5.1-2.7c1.6-1,2.5-1.5,2.5-1.6c0-0.1-0.1-0.1-0.3-0.1c-0.2,0-1,0.3-2.3,0.7c-1.4,0.4-2.2,0.7-2.5,0.8
	c-0.3,0.1-0.5,0.1-0.6,0c-0.1-0.1-0.2-0.5-0.2-1.1c0-0.7-0.1-2.7-0.1-5.9c0-0.3,0-0.8,0-1.4c0-1.9,0-3.2,0-3.7c0-0.7,0-1.2,0-1.4
	c0-0.1,0.1-0.3,0.2-0.3l0,0c0.2-0.2,0.2-0.3,0.1-0.4c-0.2-0.1-0.6-0.2-1.2-0.2c-0.9-0.1-1.3-0.1-1.3,0c0,0.1,0,2.6,0.1,7.3
	c0,0.3,0,0.6,0,1.1c0,3.3,0.1,5.3,0.1,5.9c0,0.6,0,0.9-0.1,1c-0.1,0.2-1,0.6-2.5,0.9c-0.4,0.1-0.5,0.1-0.5,0.2c0,0,0.2,0.4,0.5,1.2
	C49.9,64.5,50.1,64.9,50.1,65z M60.7,54.7c0.5,0.2,1,0,1.2-0.4c0.3-0.4,0.3-1,0-1.7c-0.5-1.4-1.9-2.6-4.2-3.5
	c-0.5-0.2-0.8-0.3-0.8-0.2c0,0.1,0.1,0.3,0.5,0.7c1.3,1.6,2.1,3,2.6,4.3C60.1,54.4,60.4,54.6,60.7,54.7z M83.1,66.9
	c0,0.1,0.1,0.1,0.2,0.1s0.3-0.1,0.6-0.2c2.7-0.9,5-2.2,6.9-3.9c0.3-0.3,0.6-0.4,0.7-0.4c0.1,0,0.4,0.3,0.7,0.7
	c1.1,1.4,2.4,2.6,4,3.5c0.2,0.1,0.4,0.2,0.4,0.2c0.1,0,0.1-0.1,0.2-0.3c0.1-0.3,0.3-0.6,0.6-0.9c0.3-0.3,0.6-0.5,0.9-0.6
	c0.2-0.1,0.3-0.2,0.3-0.2c0-0.1-0.2-0.2-0.5-0.3c-1.2-0.4-2.3-1.1-3.6-2c-1.2-0.9-1.8-1.5-1.8-1.9c0-0.1,0.2-0.5,0.6-1.2
	c1.2-2,2-4.4,2.5-7.2c0.1-0.7,0.3-1.1,0.4-1.2c0.1-0.1,0.5-0.2,1.1-0.2c0.7,0,1-0.1,0.9-0.4c-0.1-0.3-0.5-0.8-1.3-1.4
	c-0.4-0.3-0.7-0.5-0.8-0.5c-0.1,0-0.3,0.2-0.6,0.6c0,0-0.1,0.1-0.1,0.2c-0.3,0.4-0.6,0.7-0.8,0.7c-0.2,0.1-0.8,0.1-1.7,0.1
	c-0.2,0-0.3,0-0.4,0c-0.1,0-0.2,0-0.3,0c-0.8,0-1.3,0-1.5,0c-0.3,0-0.5-0.1-0.5-0.3c0-0.1,0.1-0.4,0.2-0.8c0,0,0-0.1,0-0.1
	c0-0.1,0.1-0.2,0.1-0.4c0.2-0.6,0.3-1,0.4-1.2c0.3-0.8,0.5-1.2,0.7-1.4c0.2-0.1,0.2-0.3-0.1-0.5c-0.3-0.2-0.9-0.4-2-0.6
	c0,0-0.1,0-0.1,0c-0.4-0.1-0.6-0.1-0.7-0.1C89,44.8,89,45,89,45.2c0,0,0,0.1,0,0.1c-0.1,1.3-0.4,2.8-0.8,4.5c-0.4,1.7-1,3.2-1.6,4.4
	c0,0,0,0.1-0.1,0.2c-0.2,0.4-0.3,0.6-0.3,0.7c0,0.1-0.2,0.4-0.4,0.8c-0.2,0.3-0.2,0.4-0.3,0.5c0,0.1,0,0.1,0.1,0.2
	c0.1,0.1,0.4-0.2,0.9-0.6c0.5-0.5,1-1.1,1.5-1.8c0.3-0.4,0.6-0.7,0.7-0.6c0.1,0,0.3,0.3,0.4,0.8c0.4,2,0.9,3.7,1.5,5.3
	c0.1,0.4,0.2,0.7,0.1,0.9c0,0.2-0.2,0.5-0.6,0.9c-0.7,0.9-1.6,1.8-2.8,2.7c-1.1,0.9-2.3,1.6-3.5,2.2c-0.3,0.2-0.5,0.3-0.6,0.3
	C83,66.8,83,66.8,83.1,66.9z M79.4,63.9c0.7,0.1,1.7,0.1,3.2,0c1.5-0.1,2.4-0.2,2.8-0.3c0.6-0.2,1.1-0.4,1.2-0.8
	c0.2-0.4,0.1-0.8-0.3-1.1c-0.2-0.2-0.3-0.4-0.4-0.7c0-0.3-0.1-1.1-0.1-2.5v0c0-0.1,0-0.1-0.1-0.2c0,0-0.1,0-0.1,0c0,0-0.1,0.4-0.3,1
	c0,0.1,0,0.2-0.1,0.3c-0.2,0.8-0.4,1.3-0.5,1.5c-0.2,0.3-0.4,0.5-0.7,0.6c-0.2,0-0.8,0.1-1.6,0.1c-0.1,0-0.3,0-0.3,0
	c-0.2,0-0.4,0-0.7,0c-0.6,0-1,0-1.2-0.1c-0.2-0.1-0.4-0.3-0.4-0.7c0-0.3-0.1-0.9,0-1.9c0-0.5,0-0.9,0-1.2c0-0.3,0-0.7,0-1.2
	c0-1,0-1.6,0-1.8c0-0.4,0.2-0.6,0.3-0.7c0.1-0.1,0.4-0.1,0.9-0.1c0.2,0,0.4,0,0.6,0c0.8,0,1.2,0,1.4,0.1c0.2,0,0.3,0.2,0.3,0.4v0.1
	c0,0.1,0,0.2,0,0.3c0,0.6,0.5,0.6,1.6,0.1c0,0,0.1,0,0.1-0.1c0.3-0.1,0.4-0.2,0.4-0.4c0-0.1,0.1-0.6,0-1.2c0-0.2,0-0.3,0-0.4
	c0-1.6-0.1-2.6-0.1-3.1c0-0.6,0.1-1.1,0.2-1.3c0.1-0.2,0.2-0.4,0.5-0.5c0.2-0.1,0.2-0.3,0-0.5c-0.2-0.2-0.5-0.6-1.1-1.1
	c-0.4-0.3-0.6-0.5-0.7-0.5c-0.1,0-0.3,0.2-0.5,0.5c0,0-0.1,0.1-0.1,0.2c-0.3,0.3-0.5,0.5-0.7,0.6c-0.2,0-0.8,0.1-1.8,0
	c-0.2,0-0.4,0-0.6,0c-1.2,0-2.2,0-2.8-0.1c-0.4,0-0.6,0-0.6,0c0,0,0,0.2,0.2,0.6l0,0c0.1,0.3,0.2,0.4,0.3,0.4c0.1,0,0.3,0,0.5,0
	c0.8-0.1,1.8-0.2,2.9-0.2c1.1,0,1.8,0,1.9,0.1c0.2,0.1,0.3,0.2,0.3,0.5c0,0.2,0,1,0,2.2c0,0.2,0,0.4,0,0.7c0,0.8,0,1.3,0,1.5
	c0,0.3-0.2,0.5-0.4,0.5c-0.1,0.1-0.5,0.1-1,0.1c-0.2,0-0.3,0-0.5,0c-0.1,0-0.2,0-0.3,0c-0.6,0-1.1,0-1.3-0.1c-0.2,0-0.6-0.2-1.3-0.5
	c-0.1,0-0.1-0.1-0.1-0.1c0,0-0.1,0-0.2-0.1c-0.5-0.2-0.8-0.3-0.8-0.3c-0.1,0-0.1,0.2,0,0.5c0,0.1,0,0.1,0,0.1
	c0.1,1.2,0.2,3.2,0.2,5.9c0,0.1,0,0.2,0,0.4c0,1.6,0,2.7,0.1,3.1c0,0.6,0.2,1,0.4,1.2C78.4,63.8,78.7,63.9,79.4,63.9
	C79.3,63.9,79.4,63.9,79.4,63.9z M91.7,58.6c-0.2,0.2-0.4,0.1-0.6-0.2c-0.2-0.3-0.5-0.9-0.9-1.8c-0.6-1.5-1-2.7-1.1-3.6
	c-0.1-0.9,0.1-1.5,0.6-2c0.2-0.2,0.9-0.3,2.1-0.3c1.1,0,1.7,0.1,1.8,0.3c0.2,0.4,0,1.6-0.6,3.7C92.6,57,92.1,58.2,91.7,58.6z
	 M104.9,67c0,0,0.5,0,1.2-0.1c3.3-0.4,6-1,8.2-1.9c0.4-0.1,0.6-0.2,0.8-0.2c0.2,0,0.4,0,0.7,0.1c2.4,1.1,5.1,1.8,8.2,2
	c0.3,0,0.5,0,0.6,0c0.1,0,0.1-0.1,0.2-0.2c0-0.2,0.2-0.5,0.4-0.8c0.2-0.3,0.4-0.5,0.6-0.6c0.3-0.1,0.4-0.2,0.3-0.3
	c0-0.1-0.3-0.1-0.7-0.1c-2.1-0.1-4-0.3-5.5-0.5c-1.5-0.2-2.3-0.5-2.4-0.7c0-0.1,0-0.2,0.1-0.3c0.1-0.1,0.3-0.3,0.6-0.5
	c0.5-0.4,1-0.8,1.6-1.4c0.1-0.1,0.2-0.2,0.3-0.3c0.4-0.4,0.6-0.6,0.8-0.6c0.2-0.1,0.7-0.1,1.4-0.1c0.2,0,0.4,0,0.6,0
	c1,0,1.6,0,1.8,0c0.2,0,0.3-0.1,0.4-0.2c0.1-0.2-0.3-0.8-1.4-1.6c-0.4-0.3-0.6-0.5-0.6-0.6c-0.1-0.1-0.1-0.5-0.1-1
	c-0.1-1.3-0.1-2.2,0-2.8c0-0.2,0-0.4,0-0.6c-0.1-0.7,0-1.2,0.3-1.3c0.3-0.1,0.5-0.1,0.7,0c0.2,0.1,0.3,0.4,0.4,0.7
	c0,0.3,0.2,0.4,0.5,0.5c0.3,0.1,0.6,0,0.8-0.2c0.4-0.4,0.4-0.9,0-1.5c-0.3-0.6-0.9-1-1.7-1.4c-0.7-0.3-0.9-0.2-0.6,0.2
	c0.3,0.4,0.2,0.7-0.1,0.9c-0.3,0.2-0.7,0.2-1.2,0c-0.2-0.1-0.2-0.3,0-0.5c0.2-0.3,0.5-0.5,0.9-0.7c0.2-0.1,0.4-0.2,0.5-0.5
	c0.1-0.3,0.3-0.6,0.7-0.9c0.4-0.4,0.6-0.6,0.8-0.6c0.3,0,0.4-0.2,0.2-0.3c-0.2-0.2-0.6-0.4-1.2-0.7c0,0,0,0-0.1,0
	c-0.4-0.2-0.7-0.3-0.7-0.3c-0.1,0-0.2,0.1-0.2,0.3c-0.2,0.6-0.4,1-0.6,1.5c-0.2,0.4-0.4,0.6-0.5,0.6c-0.1,0-0.1,0-0.2,0
	c-0.1-0.1-0.1-0.1-0.1-0.2c0,0-0.1-0.2-0.2-0.4c-0.2-0.3-0.2-0.5-0.1-0.7c0.1-0.2,0.4-0.5,0.9-0.9c0.7-0.7,1.2-1,1.3-1.1
	c0.2-0.1,0.3-0.2,0.1-0.4c-0.2-0.1-0.6-0.4-1.2-0.7c-0.4-0.2-0.7-0.3-0.8-0.3c-0.1,0-0.1,0-0.2,0.2c-0.3,1.1-0.6,1.9-0.8,2.2
	c-0.2,0.4-0.6,0.5-1,0.3c-0.4-0.1-0.7-0.1-0.7-0.1c-0.2,0.2-0.4,0.1-0.7-0.2c-0.2-0.2-0.1-0.4,0.2-0.6c0.1-0.1,0.1-0.3,0-0.5
	c-0.2-0.3-0.5-0.5-0.9-0.8c-0.3-0.2-0.5-0.3-0.6-0.2c-0.1,0-0.3,0.2-0.6,0.6c-0.4,0.5-1.4,0.6-3.1,0.4c0,0,0,0-0.1,0
	c-0.2,0-0.3,0-0.4,0l0.2,0.5c0.1,0.3,0.2,0.5,0.3,0.6c0,0,0.2,0,0.6-0.1c2.7-0.4,3.7-0.2,3,0.6c-0.3,0.3-1.1,0.5-2.6,0.4
	c-1.5,0-2.5-0.2-3.3-0.6c0,0-0.1,0-0.2-0.1c-0.4-0.2-0.7-0.3-0.8-0.3c-0.1,0-0.2,0.1-0.2,0.2l0,0.1c-0.4,1.3-0.7,2-1,2
	c-0.1,0-0.1,0-0.2,0C108,49.1,108,49,108,49c0,0,0-0.1-0.1-0.2c-0.2-0.3-0.2-0.5-0.2-0.6c0.1-0.2,0.3-0.4,0.7-0.8
	c0.1-0.1,0.2-0.2,0.3-0.3c0.3-0.3,0.5-0.5,0.6-0.6c0.2-0.2,0.4-0.4,0.6-0.5c0.2-0.1,0.3-0.2,0-0.4c-0.2-0.2-0.7-0.4-1.4-0.7
	c-0.3-0.1-0.4-0.2-0.5-0.2c-0.1,0-0.1,0-0.1,0.1c-0.1,0.4-0.3,1-0.5,1.8c-0.2,0.6-0.4,0.9-0.6,1.1c-0.1,0.1-0.4,0.1-0.9,0
	c-0.4-0.1-0.6-0.1-0.7-0.1c-0.1,0.1,0,0.2,0.2,0.5c0.5,0.6,0.8,1.2,1.1,1.8c0.1,0.3,0.3,0.4,0.7,0.4c0.5,0,0.6,0.3,0.2,0.9
	c-0.2,0.3-0.3,0.4-0.5,0.5c-0.2,0.1-0.5,0.1-1.1,0.1c-0.5,0-0.8,0.1-0.8,0.1c0,0,0.1,0.3,0.3,0.8s0.4,0.9,0.4,1
	c0.1,0.2,0.1,0.7,0,1.6c-0.1,0.9-0.3,1.7-0.6,2.4c-0.2,0.6-0.2,0.9-0.1,0.9c0.1,0,0.4-0.2,0.7-0.6c0.4-0.4,0.8-1,1.2-1.8
	c0.4-0.8,0.7-1.1,0.8-0.8c0.1,0.3,0.1,1.2,0,2.7c0,0.7,0.4,0.8,1.2,0.5c0.3-0.1,0.5-0.2,0.6-0.4c0-0.1,0.1-0.6,0-1.2
	c-0.1-1.5,0-2.4,0-2.7c0-0.2,0-0.4,0-0.6c-0.1-0.4-0.1-0.7,0-0.9c0.1-0.3,0.2-0.4,0.5-0.4c0.1,0,0.2,0,0.3,0.1
	c0.1,0.1,0.2,0.3,0.2,0.5c0.1,0.3,0.2,0.5,0.4,0.6c0.2,0.1,0.5,0,0.8-0.2c0.4-0.2,0.4-0.6,0.2-1.1c-0.2-0.5-0.5-1-1.1-1.3
	c-0.5-0.3-0.9-0.5-1.1-0.5c-0.2,0-0.2,0.1-0.1,0.5c0.2,0.3,0.2,0.5,0.2,0.7c-0.1,0.1-0.3,0.2-0.7,0.2c-0.5,0-0.7-0.1-0.7-0.4
	c0-0.3,0.3-0.6,0.8-0.8c0.2-0.1,0.4-0.3,0.5-0.5c0.3-0.5,0.6-0.9,1.1-1.2c0.4-0.3,0.8-0.4,1-0.2c0,0,0.8,0.1,2.2,0.1
	c1,0,1.6,0,1.8,0c0.4,0,0.5,0.1,0.6,0.2c0,0.1,0,0.2-0.2,0.5c-0.2,0.3-0.5,0.5-0.9,0.6c-0.3,0-1.1,0-2.4-0.1c-0.3,0-0.4,0-0.4,0
	c0,0,0.1,0.2,0.2,0.6c0,0,0,0.1,0.1,0.1c0.1,0.2,0.2,0.3,0.2,0.3c0,0,0.2,0,0.3-0.1c0,0,0.1,0,0.1,0c0.2-0.1,0.7-0.1,1.5-0.1
	c0.8,0,1.2,0,1.4,0.1c0.1,0.1,0.1,0.2-0.1,0.5c-0.3,0.3-0.6,0.5-0.9,0.6c-0.4,0.1-1,0-2,0c0,0-0.1,0-0.1,0l-0.6,0c0,0,0,0.2,0.2,0.5
	c0.2,0.3,0.3,0.5,0.3,0.6c0,0,0.3,0,0.7-0.1c1.1-0.1,1.9-0.2,2.6-0.2c0.9,0,1.5,0,1.7-0.1c0.2-0.1,0.4,0.1,0.7,0.6
	c0.3,0.5,0.4,1,0.3,1.4c0,0.1,0,0.2,0,0.3c0,0.3,0,0.4,0,0.5c0,0.7-0.2,1.6-0.6,2.6c-0.1,0.2-0.1,0.3-0.1,0.3c0,0,0.1,0.1,0.1,0.1
	c0.1,0.1,0.4-0.1,0.7-0.5c0.3-0.4,0.7-0.9,1.1-1.5c0.5-0.8,0.8-1.1,0.9-0.8c0.1,0.3,0.1,1.2,0,2.7c0,0.3,0,0.5,0.1,0.6
	c0.1,0.1,0.2,0.1,0.5,0.1c0.3,0,0.5,0.1,0.5,0.3c0,0.2-0.1,0.4-0.5,0.6c-0.1,0.1-1.5,0.1-4.1,0.1c-2.7,0-4,0-4.1-0.1
	c-0.2-0.1-0.2-0.3,0-0.6c0.2-0.3,0.4-0.4,0.6-0.5c0.2,0,0.3-0.1,0.3-0.1c0-0.1-0.1-0.2-0.2-0.2c-0.1-0.1-0.2-0.2-0.2-0.3
	s0.1-0.2,0.2-0.4c0.1-0.1,0.2-0.2,0.2-0.2c0-0.2,0.3-0.4,0.9-0.4c0.6,0,1,0,1.1,0.3c0.1,0.1,0.1,0.2,0.1,0.2c0,0,0.1,0,0.2,0
	c0.5,0,0.9-0.1,1.1-0.3c0.2-0.2,0.3-0.5,0.2-0.9c0-0.7,0-1.2,0-1.4c0-0.2,0.2-0.4,0.4-0.6c0.2-0.1,0.2-0.2,0.2-0.3
	c0-0.1-0.1-0.2-0.3-0.4c-0.4-0.4-0.8-0.6-1-0.7c-0.2-0.1-0.5,0-0.7,0.3c-0.3,0.3-0.7,0.5-1.2,0.5c-0.5,0-1-0.1-1.5-0.3
	c-0.8-0.4-1.2-0.5-1.3-0.5c-0.1,0-0.1,0.3,0,0.7c0,0.1,0.1,0.6,0.1,1.6c0,0.9,0.1,1.6,0,1.9c0,0.2-0.1,0.4-0.2,0.5
	c-0.1,0.1-0.3,0-0.4-0.1c-0.1-0.1-0.1-0.3,0-0.7c0.2-0.4,0.2-0.9,0-1.4c-0.3-0.5-0.7-1-1.4-1.5c-0.3-0.2-0.5-0.3-0.6-0.2
	c0,0.1,0,0.4,0.2,0.8c0.2,0.5,0.4,1.1,0.4,1.6c0.1,0.4,0.1,0.6,0.1,0.7c0,0.1,0.1,0.2,0.2,0.2c0.3,0.2,0.3,0.7-0.1,1.5
	c-0.4,0.8-1,1.6-1.8,2.5c-0.9,0.9-1.8,1.7-2.7,2.4c-0.3,0.2-0.5,0.4-0.6,0.4c-0.1,0.1-0.1,0.2,0,0.2c0.1,0.1,0.6-0.1,1.6-0.5
	c0.9-0.4,1.8-0.9,2.5-1.4c0,0,0.1-0.1,0.2-0.1c0.6-0.4,0.9-0.6,1.1-0.6c0.1,0,0.4,0.2,0.7,0.5c0,0,0.1,0.1,0.1,0.1
	c0.5,0.5,0.9,0.9,1.1,1c0.4,0.4,0.6,0.7,0.5,0.8c-0.1,0.2-0.5,0.4-1.2,0.7c-1.8,0.8-4,1.4-6.4,1.9c-0.5,0.1-0.8,0.2-0.9,0.2
	C104.8,66.8,104.8,66.9,104.9,67z M115.5,62.8c-0.2,0.1-0.5,0.1-0.9,0c-0.3-0.1-0.8-0.4-1.5-0.8c-0.6-0.4-1-0.7-1.2-1
	c-0.2-0.2-0.1-0.4,0.1-0.6c0.1-0.1,1-0.1,2.7-0.1c1.7,0,2.6,0,2.7,0.1c0.2,0.1,0,0.5-0.4,1C116.6,62.1,116.1,62.5,115.5,62.8z
	 M125,57.5c0,0,0.1,0,0.1,0c0.4,0,0.6-0.2,0.6-0.7c0-0.4-0.1-0.9-0.4-1.4c-0.3-0.6-0.7-1-1.2-1.3c-0.5-0.4-0.9-0.5-0.9-0.4
	c-0.1,0,0,0.3,0.3,0.9c0.4,0.8,0.6,1.5,0.7,2c0.1,0.3,0.1,0.5,0.1,0.6s0.1,0.1,0.2,0.2c0.1,0,0.2,0.1,0.3,0.1
	C124.9,57.5,125,57.5,125,57.5z M116,56.3c-0.2,0.1-0.5,0.1-0.9,0.1c-0.4-0.1-0.6-0.2-0.7-0.3c-0.2-0.4-0.2-0.8,0-1.2
	c0.2-0.4,0.5-0.6,1-0.6c0.3,0,0.6,0.1,0.8,0.4c0.2,0.3,0.3,0.6,0.3,0.9C116.4,55.9,116.3,56.2,116,56.3z M121,53.9
	c-0.1,0.1-0.4,0.1-0.9,0c-0.4-0.1-0.7-0.3-0.7-0.4c0-0.2,0.1-0.3,0.5-0.5c0.4-0.2,0.7-0.2,0.9-0.1c0.1,0.1,0.2,0.2,0.3,0.4
	C121.2,53.6,121.2,53.8,121,53.9z M107.9,53.8c-0.1,0.1-0.4,0.2-0.8,0.1c-0.4-0.1-0.6-0.3-0.6-0.4c0-0.2,0.2-0.4,0.6-0.5
	c0.4-0.1,0.7-0.1,0.8,0.1c0.1,0.1,0.1,0.2,0.1,0.4C108,53.6,108,53.8,107.9,53.8z M118.4,51.7c-0.1,0-0.2,0-0.3-0.1
	c-0.1-0.1-0.3-0.3-0.6-0.6c-0.3-0.3-0.4-0.4-0.4-0.5s0.2-0.2,0.6-0.2c0.4-0.1,0.6-0.2,0.6-0.3c0-0.1-0.2-0.4-0.6-0.7
	c-0.4-0.4-0.5-0.6-0.5-0.7c0-0.1,0.3-0.2,0.8-0.2c0.4,0,0.6-0.1,0.6-0.1c0.2-0.1,0.4,0,0.6,0.2c0.3,0.3,0.4,0.6,0.6,1.1
	c0.1,0.3,0.3,0.4,0.7,0.4s0.5,0.2,0.2,0.7c-0.2,0.3-0.4,0.6-0.6,0.7c-0.2,0.1-0.5,0.2-1,0.2c-0.1,0-0.2,0-0.4,0
	C118.6,51.7,118.5,51.7,118.4,51.7z M136.9,66.9c0.3,0.2,0.7,0.1,1.3-0.1c0.6-0.2,0.8-0.5,0.8-0.8c0,0,0-0.1,0-0.2
	c0-0.2,0-0.4,0.1-0.5c0.1-0.1,0.4-0.2,1-0.2c0.4,0,1.2,0,2.6,0c0.3,0,0.5,0,0.7,0c0.2,0,0.5,0,0.9,0c1.3,0,2.1,0,2.5,0
	c0.5,0,0.8,0.1,0.9,0.2c0.1,0.1,0.1,0.3,0.1,0.5c0,0.1,0,0.1,0,0.2c0,0.4,0,0.6,0.2,0.7c0.2,0.1,0.5,0.1,1-0.1
	c0.6-0.2,0.9-0.4,1-0.6c0.1-0.2,0.2-0.7,0.1-1.5c-0.2-4.8-0.1-7.2,0.4-7.2c0,0,0.1,0,0.3-0.1c0.1-0.1,0.2-0.2,0.2-0.2
	c0-0.1-0.2-0.3-0.7-0.7s-0.9-0.7-1.2-0.9c-0.1-0.1-0.3-0.1-0.4,0s-0.3,0.2-0.6,0.5c0,0-0.1,0.1-0.1,0.2c-0.2,0.2-0.5,0.4-0.7,0.4
	c-0.3,0-1.2,0-2.8,0c-0.5,0-0.9,0-1.2,0c-0.3,0-0.7,0-1.2,0c-1.5,0-2.4,0-2.7,0c-0.3,0-0.7-0.2-1.2-0.4c-0.2-0.1-0.3-0.1-0.5-0.2
	c0,0-0.1,0-0.2-0.1c-0.5-0.2-0.7-0.3-0.8-0.3s-0.1,0.2,0,0.5c0,0.1,0,0.1,0,0.1c0.1,1.1,0.2,2.6,0.2,4.5c0,1.9,0,3.6-0.1,5.1
	c0,0.4,0,0.7,0,0.8C136.7,66.8,136.8,66.9,136.9,66.9z M147.4,64.5c-0.1,0.1-1.5,0.1-4,0.1c-2.6,0-3.9,0-4-0.1
	c-0.2-0.1-0.3-0.2-0.3-0.4c0-0.2,0-0.6,0-1.2c0-0.1,0-0.3,0-0.5c0-0.4,0-0.7,0.1-0.9c0.1-0.2,0.4-0.3,0.8-0.3c0.3,0,1.1,0,2.3,0
	c0.5,0,0.9,0,1.2,0s0.7,0,1.2,0c1.2,0,1.9,0,2.3,0c0.4,0,0.7,0.2,0.8,0.3c0.1,0.1,0.1,0.4,0.1,0.9c0,0.2,0,0.4,0,0.5
	c0,0.7,0,1.1,0,1.3C147.7,64.3,147.6,64.4,147.4,64.5z M143.4,60.6c-2.6,0-4,0-4.1-0.1c-0.1-0.1-0.2-0.2-0.2-0.4c0-0.2,0-0.6,0-1.2
	c0-0.1,0-0.2,0-0.4c0-0.4,0-0.7,0.1-0.8c0.1-0.1,0.4-0.2,0.8-0.3c0.3,0,1.1,0,2.3,0c0.5,0,0.9,0,1.2,0s0.7,0,1.2,0
	c1.2,0,1.9,0,2.3,0c0.4,0,0.7,0.1,0.8,0.3c0.1,0.1,0.1,0.4,0.1,0.8c0,0.2,0,0.3,0,0.4c0,0.6,0,1,0,1.2c0,0.2-0.1,0.3-0.2,0.4
	C147.4,60.5,146,60.6,143.4,60.6z M133.4,54.3c0.1,0,0.1,0.1,0.2,0c0,0,0.1,0,0.2,0c0.7-0.1,1.2-0.2,1.5-0.2c0.3,0,3.4-0.1,9.4-0.1
	c0.4,0,0.9,0,1.6,0c2.8,0,4.6,0,5.3,0c1,0,1.7,0,2-0.1c0.2,0,0.3-0.1,0.3-0.2c0,0,0-0.1,0-0.1c0-0.1-0.1-0.3-0.5-0.6
	c-0.3-0.3-0.7-0.7-1.2-1l0,0c-0.4-0.3-0.6-0.4-0.7-0.4c-0.1,0-0.3,0.2-0.6,0.7c0,0-0.1,0.1-0.1,0.1c0,0-0.1,0.1-0.1,0.2
	c-0.3,0.4-0.5,0.6-0.7,0.6c-0.2,0.1-0.6,0.1-1.4,0.1c-0.2,0-0.3,0-0.4,0c-0.9,0-1.4,0-1.6,0c-0.3,0-0.4-0.2-0.3-0.3
	c0-0.1,0.3-0.4,0.7-0.8c0.2-0.2,0.6-0.6,1.2-1.3c0,0,0.1-0.1,0.1-0.1c0.4-0.5,0.6-0.7,0.7-0.8c0.1-0.1,0.2-0.2,0.3-0.2
	c0.2-0.1,0.3-0.1,0.3-0.2s-0.2-0.2-0.5-0.3c-0.6-0.3-0.8-0.5-0.6-0.6c0.2-0.1,1-0.1,2.4-0.1c1.1,0,1.8,0,2,0c0.2,0,0.3-0.1,0.4-0.2
	c0.1-0.2-0.3-0.7-1.3-1.4l0,0c-0.5-0.4-0.8-0.6-1-0.6c-0.1,0-0.4,0.3-0.7,0.7l0,0c0,0-0.1,0.1-0.1,0.2c-0.2,0.4-0.5,0.6-0.7,0.6
	c-0.2,0-0.8,0.1-1.8,0.1c-0.2,0-0.4,0-0.5,0c-1.1,0-1.7,0-1.9,0c-0.2,0-0.3-0.1-0.4-0.1c-0.2-0.2-0.2-0.5-0.2-0.9s0.2-0.7,0.4-0.9
	c0.2-0.2,0.2-0.3-0.1-0.4c-0.2-0.1-0.8-0.3-1.7-0.5c0,0-0.1,0-0.2,0c-0.4-0.1-0.7-0.2-0.7-0.1c-0.1,0-0.1,0.2-0.1,0.5
	c0,0.1,0,0.1,0,0.1c0,0.1,0,0.3,0,0.5c0,0.7,0,1.1,0,1.3c-0.1,0.3-0.3,0.4-0.6,0.5c-0.3,0-0.9,0-1.9,0c-0.3,0-0.5,0-0.7,0
	c-2.2,0-3.8,0-4.7-0.1c-0.2,0-0.3,0-0.4,0c0,0,0.1,0.2,0.2,0.5c0,0,0,0,0,0.1c0.1,0.2,0.2,0.4,0.3,0.4c0.1,0,0.3,0,0.5,0
	c0.1,0,0.1,0,0.2,0c2-0.3,2.9-0.3,2.9,0c0,0.1,0.1,0.3,0.2,0.6c0.4,0.8,0.7,1.6,0.9,2.4s0.3,1.4,0.1,1.5c-0.1,0.1-0.9,0.1-2.4,0.1
	c-1.5,0-2.7,0-3.6-0.1c-0.2,0-0.4,0-0.4,0c0,0,0.1,0.2,0.2,0.5S133.3,54.2,133.4,54.3z M144.8,53.3c-0.2,0.1-0.8,0.1-1.9,0.1
	c-1.1,0-1.6-0.1-1.7-0.1c-0.1-0.1-0.1-0.1-0.1-0.2c0-0.1,0-0.2,0.1-0.4c0.2-0.5,0.2-1.1-0.1-1.7c-0.3-0.6-0.7-1.1-1.4-1.6l0,0
	c-0.5-0.3-0.8-0.6-0.8-0.6c0-0.1,0.2-0.2,0.7-0.2c0.4,0,1.4,0,2.9,0c0.2,0,0.4,0,0.7,0c1.2,0,2,0,2.3,0c0.4,0,0.7,0.1,0.8,0.2
	c0,0.1,0,0.3,0,0.6c0,0.1,0,0.1,0,0.1c-0.3,1-0.5,1.8-0.8,2.6C145.2,52.8,145,53.2,144.8,53.3z M167,66.4c0.9,0.1,3.1,0.1,6.4,0
	s5.3-0.1,5.9-0.2c0.7-0.1,1.3-0.3,1.8-0.6c0.4-0.3,0.7-0.6,0.7-0.9c0-0.3-0.2-0.6-0.7-0.8c-0.4-0.2-0.6-0.4-0.6-0.6
	s-0.1-0.8-0.1-1.7s0-1.5-0.1-1.6c-0.1-0.1-0.2,0.1-0.4,0.7c0,0.1-0.1,0.3-0.1,0.5c-0.3,1.1-0.6,1.8-0.8,2.1
	c-0.3,0.4-0.9,0.7-1.8,0.8c-0.6,0.1-2,0.1-4.2,0.1c-0.4,0-0.7,0-0.9,0c-0.4,0-1,0-1.7,0c-1.9,0-3,0-3.5-0.1
	c-0.7-0.1-1.1-0.3-1.3-0.6c-0.1-0.3-0.2-0.8-0.1-1.8c0-0.4,0-0.7,0-0.9c0-0.1,0-0.2,0-0.4c0-1,0-1.6,0-1.8c0-0.2,0.1-0.3,0.3-0.4
	l0,0c0.1-0.1,1.9-0.1,5.2-0.1c3.4,0,5.2,0,5.3,0.1c0.1,0.1,0.2,0.1,0.3,0.2c0,0.1,0.1,0.2,0.1,0.5c0,0.4,0.1,0.6,0.2,0.7
	c0.1,0.1,0.4,0.1,0.8,0c0.5-0.1,0.8-0.2,1-0.3c0.2-0.1,0.3-0.3,0.3-0.6c0-0.2,0-0.6,0-1.3c-0.1-2-0.1-3.3,0-3.8c0-0.5,0.2-0.9,0.4-1
	c0.4-0.2,0.5-0.4,0.5-0.5c0-0.2-0.3-0.4-0.8-0.9c-0.6-0.5-1-0.8-1.2-0.8c-0.2,0-0.4,0.1-0.7,0.4c0,0-0.1,0.1-0.1,0.2
	c-0.3,0.3-0.5,0.5-0.7,0.5c-0.2,0-0.7,0.1-1.6,0.1c-0.2,0-0.3,0-0.4,0c-1,0-1.7,0-2,0c-0.4,0-0.5-0.2-0.5-0.3c0-0.1,0.3-0.4,0.7-0.7
	c0.6-0.5,1.1-1,1.3-1.2c0.6-0.6,1.1-0.9,1.4-1c0.3-0.1,0.4-0.2,0.4-0.3c0-0.1-0.3-0.4-0.7-0.8c-0.6-0.6-1-0.9-1.2-1
	c-0.2-0.1-0.5,0.1-0.8,0.5c0,0-0.1,0.1-0.1,0.1c-0.3,0.3-0.5,0.5-0.7,0.5c-0.2,0-0.7,0.1-1.5,0.1c-0.2,0-0.3,0-0.4,0
	c-1,0-1.6,0-1.8,0c-0.2,0-0.3-0.1-0.3-0.3c0-0.2,0.1-0.5,0.3-0.9s0.5-0.6,0.7-0.7c0.6-0.1-0.2-0.5-2.1-1.1c-0.4-0.1-0.6-0.2-0.7-0.1
	c-0.1,0-0.1,0.1-0.2,0.3c-0.3,1.4-1,3-2,4.8c-1,1.8-2.2,3.3-3.5,4.7c-0.3,0.3-0.5,0.5-0.5,0.6c0,0.1,0,0.1,0.2,0.1
	c0.2,0,0.8-0.4,1.9-1.2c0.3-0.2,0.5-0.3,0.6-0.4c0.1,0,0.2,0,0.3,0.1c0,0,0.1,0.3,0.1,0.8c0,0.4,0,1.9,0,4.3c0,0.1,0,0.1,0,0.1
	c0,2.7,0,4.2,0,4.7s0.1,0.9,0.2,1.2l0,0C164.1,65.7,165.2,66.3,167,66.4z M174.6,57.6c-1.2,0-1.9,0-2.1-0.1
	c-0.2-0.1-0.3-0.2-0.3-0.5c0-0.3,0-0.9,0-2.1c0-0.2,0-0.4,0-0.7c0-0.7,0-1.1,0-1.3c0-0.3,0.2-0.4,0.4-0.5c0.2,0,0.6-0.1,1.2-0.1
	c0.3,0,0.5,0,0.6,0c0.2,0,0.4,0,0.7,0c0.6,0,1,0,1.2,0c0.2,0.1,0.4,0.2,0.5,0.5c0,0.2,0.1,0.6,0,1.3c0,0.3,0,0.5,0,0.7
	c0,1.1,0,1.8,0,2c0,0.2-0.1,0.4-0.2,0.5C176.5,57.5,175.8,57.6,174.6,57.6z M167.9,57.6c-1.2,0-1.9,0-2-0.1c-0.2-0.2-0.3-1-0.3-2.5
	s0.1-2.3,0.3-2.5c0.1-0.1,0.8-0.1,2-0.1c1.2,0,1.9,0,2,0.1c0.2,0.2,0.3,1,0.3,2.4s-0.1,2.3-0.3,2.4
	C169.8,57.6,169.1,57.6,167.9,57.6z M168.2,51.7c-1.5,0-2.3,0-2.4-0.1c-0.4-0.1-0.5-0.3-0.5-0.4c0-0.2,0.3-0.6,0.7-1.1
	c0.2-0.2,0.5-0.6,0.9-1.1c0,0,0.1-0.1,0.1-0.2c0.2-0.3,0.4-0.5,0.6-0.6c0.2,0,0.7-0.1,1.6-0.1c0.2,0,0.4,0,0.5,0c1,0,1.6,0,1.9,0
	c0.4,0,0.6,0.2,0.6,0.3c0,0.1,0,0.4-0.2,0.8c-0.6,1.4-1.1,2.1-1.4,2.3C170.5,51.7,169.7,51.7,168.2,51.7z M197.9,66.9
	c0.2,0.1,0.6,0.1,1,0c0.5-0.1,0.9-0.3,1.2-0.6l0,0c0.1-0.1,0.1-0.2,0.1-0.3c0-0.2,0-0.7,0-1.6c0-0.5,0-0.8,0-1.1c0-1,0-2.1,0-3.3
	c0-1.2,0-1.8,0.1-1.9c0.1-0.1,0.2-0.2,0.5-0.2c0.2,0,1,0,2.4,0c0.1,0,0.3,0,0.5,0c0.9,0,1.5,0,1.7,0c0.3,0,0.5,0.1,0.6,0.2
	c0,0.1,0.1,0.3,0,0.6c0,0.1,0,0.1,0,0.2c0,0.5,0,0.7,0.1,0.8c0.1,0.1,0.4,0.1,0.9,0c0.7-0.1,1.1-0.3,1.2-0.5
	c0.1-0.2,0.2-0.7,0.1-1.6c-0.1-2.6-0.1-4.4-0.1-5.2c0-0.8,0.2-1.3,0.4-1.4c0,0,0,0,0.1,0c0.3-0.2,0.4-0.3,0.4-0.4c0-0.1-0.3-0.5-1-1
	c-0.7-0.5-1.1-0.8-1.3-0.8c-0.1,0-0.3,0.2-0.7,0.7c0,0,0,0.1-0.1,0.1c-0.2,0.2-0.4,0.4-0.6,0.4c-0.2,0-0.8,0-1.9,0
	c-0.2,0-0.4,0-0.6,0c-0.2,0-0.5,0-0.8,0c-0.8,0-1.3,0-1.5,0c-0.3,0-0.5-0.2-0.6-0.4c0-0.1-0.1-0.5,0-1c0-0.2,0-0.4,0-0.5
	c0-0.8,0-1.4,0-1.5c0-0.2,0.1-0.3,0.3-0.5c0.2-0.2,0.2-0.4-0.1-0.5c-0.2-0.1-0.9-0.4-2-0.6c-0.4-0.1-0.7-0.2-0.8-0.1
	s-0.1,0.1-0.1,0.3c0.1,0.7,0.2,1.6,0.2,2.7c0,1.1,0,1.7,0,1.9l0,0c-0.1,0.1-0.2,0.2-0.5,0.3c-0.2,0-1,0-2.4,0c-0.2,0-0.4,0-0.7,0
	c-1,0-1.6,0-1.8,0c-0.3,0-0.7-0.2-1.2-0.4c-0.2-0.1-0.3-0.1-0.4-0.2c-0.1,0-0.1-0.1-0.2-0.1c-0.5-0.2-0.8-0.3-0.8-0.3
	c-0.1,0-0.1,0.2,0,0.5c0,0.1,0,0.1,0,0.1c0.1,1.1,0.2,2.6,0.2,4.5c0,1.8,0,3.5-0.1,4.9c0,0.5,0,0.9,0.1,1c0.1,0.1,0.4,0.1,0.9,0
	c0.5-0.1,0.9-0.3,1.1-0.4c0.2-0.2,0.3-0.5,0.3-0.8c0,0,0-0.1,0-0.2c0-0.3,0-0.5,0.1-0.6c0.1-0.1,0.3-0.2,0.6-0.2c0.2,0,0.8,0,1.7,0
	c0.2,0,0.4,0,0.6,0c1.3,0,2.1,0,2.4,0c0.2,0,0.4,0.1,0.5,0.3c0.1,0.1,0.1,1.1,0.1,2.7c0,1.7-0.1,3.2-0.1,4.5c0,0.7-0.1,1.2,0,1.3
	C197.7,66.7,197.8,66.9,197.9,66.9z M194.9,57c-1.6,0-2.5,0-2.6-0.1c-0.1-0.1-0.2-0.2-0.3-0.5c0-0.3,0-1.2,0-2.6c0-0.3,0-0.6,0-1
	c0-0.8,0-1.3,0-1.6c0.1-0.3,0.2-0.5,0.5-0.6c0.2,0,0.7-0.1,1.4,0c0.4,0,0.7,0,0.9,0c0.2,0,0.6,0,0.9,0c0.7,0,1.2,0,1.4,0
	c0.3,0.1,0.4,0.3,0.5,0.6c0,0.2,0.1,0.7,0,1.6c0,0.4,0,0.8,0,1c0,1.5,0,2.3,0,2.6c0,0.3-0.1,0.4-0.3,0.5C197.4,57,196.5,57,194.9,57
	z M205.6,57c-0.1,0.1-1,0.1-2.6,0.1c-1.6,0-2.4,0-2.6-0.1c-0.2-0.1-0.3-0.2-0.3-0.5c0-0.3,0-1.1,0-2.6c0-0.3,0-0.6,0-1
	c0-0.8,0-1.3,0-1.6c0.1-0.3,0.2-0.5,0.5-0.6c0.2,0,0.7-0.1,1.4,0c0.4,0,0.7,0,0.9,0c0.2,0,0.6,0,0.9,0c0.8,0,1.2,0,1.4,0
	c0.3,0.1,0.4,0.3,0.5,0.6c0,0.2,0.1,0.7,0,1.6c0,0.4,0,0.8,0,1c0,1.5,0,2.4,0,2.6C205.9,56.7,205.8,56.9,205.6,57z M231.9,66.9
	c0.1,0.1,0.3,0.1,0.8,0s0.8-0.2,1.2-0.4c0.6-0.3,1.1-0.8,1.5-1.6c0.4-0.8,0.6-2.1,0.8-3.8c0.2-1.6,0.3-3.9,0.4-7c0-0.2,0-0.4,0-0.8
	c0-1.6,0.1-2.5,0.1-2.7c0-0.3,0.2-0.5,0.4-0.6c0,0,0.1,0,0.1,0c0.2-0.1,0.3-0.2,0.4-0.2c0-0.1,0-0.1,0-0.2c-0.1-0.2-0.4-0.5-0.8-0.9
	c-0.5-0.4-0.8-0.7-1-0.8c-0.1-0.1-0.2-0.1-0.3,0c-0.1,0-0.2,0.2-0.5,0.5c0,0-0.1,0.1-0.1,0.1c-0.3,0.3-0.5,0.5-0.7,0.6
	c-0.2,0-0.7,0.1-1.4,0.1c-0.2,0-0.3,0-0.4,0c-0.1,0-0.2,0-0.3,0c-0.7,0-1.2,0-1.3,0c-0.3,0-0.4-0.2-0.4-0.3c0-0.1,0.1-0.4,0.3-0.9
	c0-0.1,0.1-0.1,0.1-0.2c0.3-0.7,0.5-1.1,0.6-1.3c0.1-0.2,0.2-0.3,0.4-0.4c0.3-0.1,0.2-0.3-0.1-0.5c-0.4-0.2-1.1-0.5-2.2-0.8l0,0
	c-0.2-0.1-0.4-0.1-0.4,0c0,0-0.1,0.2-0.1,0.6c0,0,0,0.1,0,0.1c-0.3,2.3-1,4.8-2.2,7.6c-0.4,1-0.7,1.4-0.9,1.4
	c-0.1-0.1-0.2-0.7-0.2-2c0-1,0-1.6,0.1-1.8c0-0.2,0.2-0.4,0.5-0.6c0.2-0.1,0.3-0.3,0.2-0.5c-0.1-0.2-0.5-0.5-1.1-1
	c-0.4-0.4-0.7-0.5-0.9-0.5c-0.1,0-0.3,0.2-0.6,0.6c-0.3,0.4-0.8,0.6-1.5,0.7c-0.7,0.1-1-0.1-1-0.4c0-0.2,0.3-0.7,0.8-1.6
	c0.6-0.8,0.9-1.3,1.1-1.4c0.4-0.1,0.4-0.3,0.1-0.4c-0.3-0.2-0.9-0.4-2-0.6c0,0-0.1,0-0.2,0c-0.4-0.1-0.6-0.1-0.7-0.1
	c-0.1,0-0.1,0.2-0.1,0.6c0,0.1,0,0.2,0,0.2c0,0.5,0,1-0.1,1.5c-0.1,0.8-0.2,1.4-0.2,1.6c-0.1,0.3-0.3,0.4-0.5,0.4
	c-0.2,0-0.6-0.2-1.2-0.5c-0.6-0.3-0.9-0.4-1-0.4c0,0-0.1,0-0.1,0.1c0,0.1,0,0.3,0.1,0.8c0.1,1.1,0.2,3.5,0.2,7.1
	c0,3.8-0.1,6.6-0.2,8.4c-0.1,0.8,0,1.3,0.1,1.5c0.1,0.2,0.5,0.2,1.1,0c0.4-0.1,0.7-0.3,0.8-0.5c0.1-0.2,0.2-0.5,0.2-1v0
	c0-0.4,0-0.6,0-0.7c0.1-0.1,0.2-0.2,0.5-0.3c0.2,0,0.6,0,1.3,0c0,0,0.1,0,0.1,0c0,0,0.1,0,0.1,0c0.7,0,1.1,0,1.3,0
	c0.3,0,0.4,0.1,0.5,0.2c0,0.1,0.1,0.3,0.1,0.6v0.1c0,0.5,0.1,0.8,0.4,0.8c0.3,0.1,0.7,0,1.4-0.4c0,0,0.1,0,0.2-0.1
	c0.2-0.1,0.3-0.2,0.3-0.4c0-0.2,0-0.8,0-1.8c0-0.5,0-0.8,0-1.1c0-1.1,0-2.4,0-4.1c0-1.7,0-2.6,0.1-2.7c0-0.1,0.1-0.3,0.2-0.3
	c0.1-0.1,0.1-0.1,0,0c0,0.1,0,0.1,0.1,0.2c0.1,0,0.1,0,0.2,0c0.2-0.1,0.6-0.6,1.3-1.5c0.7-0.9,1.3-1.8,1.8-2.6c0,0,0,0,0-0.1
	c0.2-0.4,0.5-0.6,0.7-0.7c0.2-0.1,0.9-0.1,2-0.1c0.1,0,0.1,0,0.2,0c0.2,0,0.4,0,0.6,0c0.7,0,1.1,0,1.2,0c0.2,0,0.4,0.2,0.5,0.4
	c0,0.1,0.1,0.5,0,1c0,0.2,0,0.4,0,0.5c0,2.3-0.1,4.5-0.2,6.6c-0.1,2.1-0.3,3.5-0.5,4.4c-0.1,0.5-0.3,0.9-0.5,1.1
	c-0.2,0.2-0.6,0.4-1,0.4c-0.4,0-1.1,0-2.1-0.1c-0.5,0-0.8-0.1-0.9,0c-0.1,0-0.1,0.1-0.1,0.2c0,0.1,0.2,0.2,0.6,0.3
	c1.5,0.4,2.2,1,2.2,2.1C231.8,66.8,231.8,66.9,231.9,66.9z M220.7,62.9c-0.6,0-0.9,0-1.1-0.1c-0.2-0.1-0.3-0.3-0.4-0.6
	c0-0.2-0.1-0.8,0-1.7c0-0.4,0-0.7,0-0.9c0-0.2,0-0.5,0-0.8c0-0.8,0-1.4,0-1.6c0.1-0.3,0.2-0.5,0.4-0.6c0.1-0.1,0.5-0.1,1.1-0.1
	c0.2,0,0.4,0,0.6,0c0.1,0,0.3,0,0.6,0c0.6,0,0.9,0,1.1,0.1c0.2,0.1,0.3,0.3,0.4,0.6c0,0.2,0,0.8,0,1.6c0,0.4,0,0.6,0,0.8
	c0,1.5,0,2.3,0,2.6c0,0.3-0.1,0.4-0.2,0.5c-0.1,0.1-0.2,0.1-0.4,0.1c-0.1,0-0.6,0-1.4,0C221.1,62.9,220.9,62.9,220.7,62.9z
	 M230.4,59.5c0.4,0.1,0.7,0.1,1-0.1c0.3-0.2,0.5-0.6,0.5-1c0-0.7-0.2-1.4-0.8-2c-0.5-0.7-1.3-1.3-2.4-1.8c-0.6-0.3-0.9-0.4-1-0.4
	c-0.1,0,0,0.3,0.3,0.7c1,1.5,1.6,2.9,1.8,4.1C229.8,59.2,230,59.4,230.4,59.5z M220.7,55.9c-0.6,0-0.9,0-1.1-0.1
	c-0.2-0.1-0.3-0.3-0.4-0.6c0-0.2-0.1-0.7,0-1.6c0-0.4,0-0.7,0-0.9c0-0.2,0-0.4,0-0.8c0-0.8,0-1.3,0-1.5c0.1-0.3,0.2-0.5,0.4-0.6
	c0.1,0,0.5-0.1,1-0.1c0.2,0,0.4,0,0.6,0s0.3,0,0.6,0c0.6,0,0.9,0,1.1,0.1c0.2,0.1,0.3,0.2,0.4,0.6c0,0.2,0.1,0.7,0.1,1.5
	c0,0.3,0,0.6,0,0.7c0,1.4,0,2.2,0,2.5c0,0.3-0.1,0.4-0.2,0.5c-0.1,0.1-0.2,0.1-0.4,0.1c-0.1,0-0.6,0-1.4,0
	C221.1,55.9,220.9,55.9,220.7,55.9z M248.9,67c0.4,0.1,0.9,0,1.3-0.2c0.4-0.2,0.7-0.5,0.7-0.8c0,0,0-0.1,0-0.1
	c0-0.3,0.1-0.4,0.1-0.5c0.1-0.1,0.4-0.2,0.9-0.2c0.3,0,1.1,0,2.4,0c0.3,0,0.5,0,0.6,0c0.2,0,0.5,0,0.8,0c1.2,0,1.9,0,2.3,0
	c0.4,0,0.7,0.1,0.8,0.2c0.1,0.1,0.1,0.3,0.1,0.5c0,0.1,0,0.1,0,0.2c0,0.4,0.1,0.7,0.2,0.7c0.2,0.1,0.5,0,1.1-0.1
	c0.5-0.1,0.8-0.3,0.9-0.4c0.1-0.1,0.2-0.5,0.1-1c0-0.9-0.1-1.9-0.1-3c0-1.3,0-2.1,0-2.4c0-0.3,0.2-0.4,0.4-0.6
	c0.2-0.1,0.2-0.3,0-0.6c-0.3-0.4-0.4-0.6-0.3-0.6c0.1,0,0.6,0,1.4,0.3c0.5,0.1,0.8,0.2,0.9,0.2c0.1,0,0.2-0.1,0.2-0.2
	c0.1-0.4,0.4-0.8,0.7-1.2c0.2-0.2,0.5-0.4,0.9-0.6c0.1,0,0.2-0.1,0.2-0.1c0-0.1,0-0.1-0.1-0.1c-0.1,0-0.5-0.1-1.3-0.3
	c-1.9-0.4-3.7-0.9-5.3-1.5c-0.8-0.3-1.3-0.5-1.5-0.7c-0.3-0.2-0.3-0.3-0.2-0.6c0.1-0.2,0.4-0.5,0.9-1c0.8-0.8,1.6-1.7,2.3-2.6
	c0.3-0.4,0.5-0.6,0.6-0.7c0.1-0.1,0.3-0.2,0.6-0.2c0.4-0.1,0.5-0.2,0.4-0.5c-0.1-0.2-0.4-0.6-1-1.2c0,0-0.1-0.1-0.1-0.1
	c-0.4-0.4-0.7-0.7-0.9-0.7c-0.1,0-0.4,0.2-0.8,0.6c0,0-0.1,0.1-0.1,0.1c0,0-0.1,0.1-0.2,0.2c-0.3,0.3-0.5,0.4-0.7,0.5
	c-0.2,0-0.8,0-1.8,0c-0.3,0-0.5,0-0.7,0c-1.1,0-1.8,0-2.1,0c-0.4,0-0.6-0.1-0.6-0.3c0-0.1,0.1-0.3,0.3-0.6l0,0c0.4-0.7,0.7-1,0.9-1
	c0.4-0.1,0.4-0.2,0.1-0.3c-0.3-0.2-1-0.4-2.1-0.7c0,0-0.1,0-0.2-0.1c-0.3-0.1-0.5-0.1-0.6-0.1c-0.1,0-0.2,0.2-0.3,0.5
	c0,0.1,0,0.1,0,0.2c-0.5,1.5-1.3,3-2.3,4.6c-1.1,1.5-2.2,2.9-3.6,4c-0.4,0.3-0.5,0.5-0.5,0.6c0,0.1,0.3,0,0.7-0.2
	c1.5-0.8,3-2,4.6-3.6c0.5-0.5,0.8-0.7,1-0.7c0.2,0,0.3,0.1,0.6,0.5c0.5,0.9,1.1,1.7,1.7,2.3c0.3,0.3,0.4,0.6,0.4,0.7
	c0,0.2-0.2,0.4-0.5,0.6c-1,0.8-2.3,1.6-3.8,2.4c-1.5,0.8-3,1.5-4.5,2c-0.6,0.2-0.9,0.4-1.1,0.4c-0.1,0.1-0.1,0.1,0,0.2
	c0.2,0.1,1.3-0.1,3.3-0.7c0.5-0.2,0.9-0.2,1.1-0.2c0.2,0,0.3,0.1,0.3,0.4c0,0.2,0.1,1.1,0,2.6c0,1.5-0.1,2.9-0.1,4.1
	c0,0.7-0.1,1.2,0,1.3C248.6,66.8,248.7,66.9,248.9,67z M258.8,64.3c-0.1,0.1-1.4,0.1-3.8,0.1c-2.4,0-3.6-0.1-3.7-0.1
	c-0.1-0.1-0.2-0.2-0.2-0.5c0-0.2,0-1,0-2.1c0-0.2,0-0.5,0-0.8c0-0.7,0-1.1,0.1-1.2c0.1-0.2,0.3-0.4,0.7-0.4c0.3,0,1-0.1,2,0
	c0.5,0,1,0,1.3,0c0.3,0,0.8,0,1.3,0c1,0,1.7,0,1.9,0c0.4,0,0.6,0.2,0.7,0.5c0.1,0.2,0.1,0.6,0.1,1.3c0,0.4,0,0.6,0,0.9
	c0,1.2,0,1.9,0,2.1C259,64.1,258.9,64.3,258.8,64.3z M258.7,58.4c-0.2,0.1-1.5,0.1-3.9,0.1c-2.4,0-3.8-0.1-4-0.1
	c-0.9-0.3-1.1-0.6-0.5-1c0,0,0.1-0.1,0.2-0.1c0.2-0.1,0.4-0.2,0.5-0.2c1.2-0.5,2.3-1.1,3.2-1.7c0,0,0.1,0,0.1-0.1
	c0.5-0.3,0.8-0.5,1-0.5s0.5,0.2,0.9,0.5c0,0,0.1,0.1,0.1,0.1c0.8,0.5,1.6,1,2.3,1.3c0.5,0.2,0.7,0.5,0.7,0.8
	C259.5,57.9,259.2,58.2,258.7,58.4z M255.4,52.1c-0.2,0.1-0.4,0.2-0.6,0.1c-0.2,0-0.4-0.2-0.7-0.5c-0.6-0.5-1.2-1-1.7-1.5
	c-0.5-0.5-0.7-0.9-0.7-1.1c0-0.3,0-0.4,0.1-0.5c0.1-0.1,0.4-0.2,0.9-0.2c0.4,0,1.1,0,2.3,0c1.1,0,1.8,0,2.1,0c0.4,0,0.7,0,0.8,0.1
	c0.1,0,0.1,0.1,0.1,0.2c0,0.2-0.4,0.8-1.1,1.7C256.2,51.3,255.7,51.9,255.4,52.1z M291.2,66.7c0.8,0.3,1.3,0.2,1.6-0.1
	c0.3-0.3,0.3-0.9,0-1.6c-0.2-0.4-0.3-0.7-0.3-0.9c0-0.2,0.1-0.9,0.2-1.9c0.1-1.2,0.2-1.7,0.1-1.8c-0.1,0-0.2,0-0.2,0.1
	c-0.4,1.2-0.8,1.9-1,2.3c-0.2,0.4-0.5,0.6-0.7,0.6c-0.2,0-0.5-0.3-1-0.8c-2-2.1-3.3-5.4-3.8-10c0-0.1,0-0.3,0-0.5
	c-0.1-0.5-0.1-0.8,0-0.9c0.1-0.2,0.3-0.3,0.6-0.4c0.3,0,0.9,0,1.9,0c0.4,0,0.7,0,1,0c1.6,0,2.7,0,3,0c0.4,0,0.5-0.1,0.5-0.2
	c0,0,0-0.1,0-0.1c0,0-0.3-0.4-1.1-1c-0.5-0.4-0.8-0.7-0.9-0.8c-0.1-0.1-0.1-0.3,0-0.6c0.2-0.6,0-1.1-0.5-1.6
	c-0.5-0.4-1.3-0.7-2.2-0.9c-0.6-0.1-0.9-0.1-1.1,0c-0.2,0.1-0.1,0.2,0.1,0.4c0.3,0.2,0.7,0.6,1.1,1.1c0.4,0.5,0.7,0.9,0.9,1.2
	c0.1,0.2,0.2,0.3,0.3,0.4c0.2,0.1,0.3,0.3,0.3,0.5c0,0.2-0.2,0.5-0.5,0.7c-0.2,0.1-0.3,0.2-0.5,0.2c-0.2,0-0.6,0-1.3,0
	c-0.1,0-0.2,0-0.3,0c-0.5,0-0.9,0-1-0.1c-0.2-0.1-0.3-0.2-0.4-0.5c0-0.2,0-0.6,0-1.3c0-0.2,0-0.3,0-0.4c0-0.9,0-1.5,0-1.7
	c0-0.2,0.1-0.4,0.3-0.5c0.4-0.2,0.3-0.4-0.2-0.5c-0.3-0.1-0.7-0.1-1.3-0.2c-0.6-0.1-0.9-0.1-1,0c-0.1,0-0.1,1.1,0,3.1
	c0,0.9,0,1.4,0,1.6c0,0.2-0.1,0.3-0.3,0.4c-0.2,0.1-1.9,0.1-5.4,0.1c-3.4,0-5.3-0.1-5.8-0.2c-0.1,0-0.2,0-0.2,0.1
	c0,0.1,0.1,0.2,0.2,0.5c0,0,0,0,0,0.1c0.1,0.2,0.2,0.4,0.3,0.4c0.1,0,0.3,0,0.7,0c0.1,0,0.2,0,0.3,0c1-0.1,2.9-0.2,5.8-0.2
	c0.3,0,0.8,0,1.3,0c1.2,0,1.9,0,2.2,0c0.4,0,0.7,0.1,0.8,0.3c0.1,0.1,0.1,0.4,0.2,0.8c0,0.2,0,0.4,0,0.5c0.4,3.7,1.3,6.9,2.6,9.5
	C287.8,64.5,289.4,66.1,291.2,66.7z M273.7,66.4c0.1,0.1,0.2,0,0.4-0.2c0.1-0.1,0.3-0.3,0.6-0.4c0.2-0.1,0.8-0.3,1.5-0.6
	c1.8-0.7,3.7-1.5,5.4-2.2c1.8-0.8,2.7-1.2,2.7-1.3c0.1-0.2,0-0.2-0.1-0.2c-0.1,0-0.4,0-0.9,0.1c-1.4,0.3-2.3,0.6-2.7,0.6
	c-0.6,0.1-0.9,0.1-1.1,0.1c-0.1,0-0.2-0.2-0.2-0.4c0-0.1,0-1.1,0-2.9c0-1.8,0-2.8,0-2.9l0,0c0-0.2,0.1-0.3,0.3-0.3
	c0.2,0,0.7-0.1,1.6-0.1c0.1,0,0.2,0,0.3,0c1,0,1.6,0,1.8,0c0.2,0,0.3-0.1,0.4-0.2c0.1-0.2-0.2-0.6-0.9-1.2c0,0,0,0-0.1-0.1
	c-0.6-0.5-0.9-0.7-1.1-0.7c-0.1,0-0.4,0.2-0.8,0.7c0,0,0,0.1,0,0.1c0,0-0.1,0.1-0.1,0.2c-0.2,0.3-0.5,0.5-0.7,0.6
	c-0.2,0-0.8,0.1-1.7,0.1c-0.1,0-0.3,0-0.3,0c-2.2,0-3.7,0-4.7-0.1c-0.3,0-0.4,0-0.5,0c0,0,0,0.2,0.2,0.5c0.1,0.3,0.2,0.5,0.3,0.6
	c0,0,0.3,0,0.7-0.1c0.9-0.2,1.6-0.2,2.1-0.2c0.5,0.1,0.8,0.2,0.9,0.5c0.1,0.3,0.1,1.4,0,3.4c0,2-0.1,3.1-0.1,3.2
	c-0.1,0.1-0.3,0.3-0.5,0.4c-0.3,0.1-0.9,0.2-2,0.4c-1.3,0.3-2,0.4-2,0.5c0,0,0.2,0.4,0.6,1.2C273.4,66,273.6,66.4,273.7,66.4z
	 M302.2,67c0,0,0.5,0,1.3,0c0.2,0,0.4,0,0.5,0c2.6-0.3,4.9-0.7,6.8-1.4c2-0.7,3.8-1.6,5.4-2.8c0.8-0.6,1.2-0.8,1.4-0.8
	c0.4,0,0.5-0.1,0.5-0.2c0-0.1-0.2-0.3-0.7-0.6c-0.1-0.1-0.4-0.3-0.7-0.5c-0.2-0.1-0.3-0.2-0.4-0.3l0,0c-0.3-0.2-0.5-0.4-0.5-0.4
	s-0.2,0.1-0.3,0.2l0,0.1c-2.2,3-6.3,5.1-12.3,6.3c-0.6,0.1-1,0.2-1.1,0.3C302,66.7,302,66.8,302.2,67z M303.3,63.9
	c0.1,0,0.3,0,0.6-0.1c3.6-0.7,6.8-2,9.5-3.9c0.5-0.3,0.8-0.6,1-0.6c0.1-0.1,0.3-0.1,0.4-0.1c0.5,0,0.4-0.2-0.2-0.7
	c-0.2-0.1-0.5-0.4-1-0.8c0,0-0.1-0.1-0.1-0.1c-0.2-0.2-0.4-0.3-0.5-0.3s-0.2,0.1-0.4,0.3c0,0-0.1,0.1-0.1,0.1
	c-1.9,2.3-4.9,4.1-8.9,5.6c-0.3,0.1-0.5,0.2-0.5,0.2c-0.1,0-0.1,0.1,0,0.2C303.2,63.9,303.3,63.9,303.3,63.9z M302.7,61.3
	c0,0.1,0.1,0.1,0.2,0.1c0.1,0,0.4-0.1,0.8-0.3c2.7-0.9,5.2-2.2,7.3-3.8c0.5-0.4,0.9-0.6,1.2-0.6c0.2,0,0.3-0.1,0.2-0.2
	c0-0.1-0.2-0.2-0.5-0.4c-0.4-0.3-0.7-0.5-0.9-0.6c0,0-0.1,0-0.1-0.1c-0.3-0.3-0.5-0.4-0.6-0.4c0,0-0.1,0-0.2,0.1
	c-0.9,1.2-1.8,2.3-2.9,3.1c-1,0.9-2.3,1.7-3.8,2.5c-0.4,0.2-0.6,0.3-0.7,0.4C302.6,61.1,302.6,61.2,302.7,61.3z M299.8,59.9
	c0,0.1,0.1,0.1,0.2,0.1c0.1,0,0.3-0.1,0.6-0.2c1.8-0.7,3.5-1.5,5.1-2.6c1.6-1.1,3-2.2,4.1-3.5c0.4-0.5,0.7-0.7,0.9-0.7
	c0.2,0,0.3,0.2,0.6,0.5c0.8,1.2,1.9,2.4,3.3,3.4c1.4,1,2.9,1.9,4.5,2.6c0.3,0.1,0.5,0.2,0.6,0.2c0.1,0,0.1,0,0.2-0.2
	c0.1-0.3,0.2-0.6,0.5-0.9c0.2-0.3,0.5-0.6,0.7-0.7c0.3-0.2,0.4-0.3,0.3-0.4c-0.1-0.1-0.4-0.2-1-0.3c-1.2-0.3-2.5-0.7-3.6-1.2
	c-1.2-0.5-1.8-0.8-1.8-1.1c0-0.1,0.1-0.2,0.2-0.3c0.2-0.1,0.6-0.2,1.4-0.5c0.8-0.2,1.3-0.3,1.5-0.3c0.2,0,0.4,0.3,0.5,0.8
	c0.1,0.4,0.3,0.6,0.7,0.6c0.4,0,0.7-0.2,0.8-0.6c0.2-0.5,0-1.1-0.5-1.7c-0.5-0.6-1.2-1-2.2-1.3c-0.6-0.2-0.7-0.1-0.3,0.4
	c0.3,0.4,0.4,0.7,0.3,0.8c-0.1,0.1-0.5,0.2-1.1,0.2c-0.8,0-1.2,0-1.2-0.2c-0.1-0.1,0.2-0.5,0.6-1.1c0.5-0.6,0.9-1,1.1-1.1
	c0.1-0.1,0.2-0.1,0.2-0.2c0-0.1,0.2-0.2,0.4-0.3c0.5-0.2,0.7-0.6,0.5-1.2c-0.2-0.6-0.6-1.2-1.4-1.8c-0.6-0.4-1.5-0.7-2.8-1.1
	c-1.3-0.3-2-0.4-2.2-0.1c0,0,0,0.1,0,0.1c0,0,0.2,0.1,0.5,0.3c0.1,0,0.1,0.1,0.1,0.1c0.8,0.4,1.2,0.7,1.3,0.9c0.2,0.2,0,0.3-0.5,0.4
	c-0.4,0-1.2,0.1-2.5,0.1c0,0-0.1,0-0.2,0c-1.1,0-1.8,0-2.1,0c-0.4,0-0.6-0.1-0.5-0.3c0-0.1,0.2-0.4,0.6-0.8c0,0,0.1-0.1,0.1-0.1
	c0.7-0.7,1.1-1,1.2-1.1c0.3-0.1,0.3-0.3,0-0.4c-0.3-0.2-0.9-0.3-1.9-0.6c-0.3-0.1-0.6-0.1-0.6-0.1c-0.1,0-0.1,0-0.1,0.1
	c-0.3,1.4-0.6,2.3-0.8,2.8c-0.1,0.2-0.3,0.4-0.5,0.4c-0.2,0-0.8,0-1.8,0c-0.1,0-0.3,0-0.5,0c-0.7,0-1.1,0-1.2,0.1
	c-0.1,0.1,0,0.3,0.2,0.7c0.1,0.1,0.1,0.2,0.2,0.3c0.3,0.6,0.5,1.1,0.5,1.4c0,0.3-0.1,0.9-0.4,1.8c-0.2,0.5-0.3,0.9-0.5,1
	c-0.1,0.1-0.5,0.2-1.1,0.2c0,0-0.1,0-0.2,0c-0.3,0-0.5,0.1-0.5,0.1c0,0.1,0.1,0.3,0.2,0.6c0,0.1,0.1,0.2,0.1,0.3
	c0.3,0.6,0.4,0.9,0.5,1c0.1,0.1,0.2,0,0.4-0.1c0.2-0.2,0.7-0.4,1.6-0.7c0.7-0.2,1.3-0.4,1.7-0.5c0.5-0.2,0.8-0.2,1-0.2
	c0.2,0,0.3,0.2,0.4,0.5c0.1,0.4-0.5,1.2-1.9,2.3c-1.4,1.2-2.8,2.1-4.2,2.8C299.8,59.7,299.7,59.8,299.8,59.9z M312.7,53.3
	c0,0.1-0.1,0.1-0.4,0c-0.2-0.1-0.4-0.3-0.6-0.5c-0.2-0.2-0.3-0.3-0.3-0.5c0-0.1,0.1-0.2,0.3-0.4c0.3-0.2-0.3-0.5-1.7-0.9
	c0,0-0.1,0-0.1,0c-0.5-0.2-0.7-0.2-0.8-0.2c-0.1,0-0.2,0.1-0.2,0.2c-0.3,0.9-0.6,1.4-0.9,1.7c-0.3,0.2-0.6,0.2-0.9-0.1
	c-0.5-0.4-1-0.7-1.5-0.8c-0.5-0.1-0.6,0-0.4,0.3c0.4,0.7,0.4,1,0,1.2c-0.3,0.1-0.6,0.1-1,0c-0.4,0-0.6-0.1-0.7-0.2
	c0-0.1,0.2-0.5,0.7-1.2s0.9-1,1.1-1.1c0.3-0.1,0.3-0.3,0-0.4c-0.2-0.1-0.3-0.2-0.3-0.3c0-0.1,0.1-0.2,0.3-0.2c0,0,0.7-0.1,2.1-0.3
	c0.2,0,0.3,0,0.4,0c1.5-0.2,3.2-0.4,5-0.6c0.3,0,0.5-0.1,0.6-0.1c0.9-0.1,1.4-0.2,1.6-0.1c0.2,0,0.5,0.2,0.8,0.5
	c0.6,0.7,0.5,0.9-0.5,0.6c0,0,0,0-0.1,0c-0.3-0.1-0.4-0.1-0.5-0.1c0,0-0.1,0.2-0.1,0.5c0,0,0,0.1,0,0.1c-0.2,1.2-0.4,2-0.6,2.4
	c-0.2,0.4-0.5,0.6-1,0.6C312.7,53.2,312.7,53.2,312.7,53.3z M32,90.8c0.1,0.2,0.7-0.1,1.9-0.9c1.2-0.8,2.1-1.7,2.9-2.5
	c0.4-0.5,0.7-0.7,0.8-0.6c0.1,0,0.4,0.3,0.7,0.9c0.6,1,1.3,1.9,2.1,2.7c0,0,0,0,0.1,0.1c0.3,0.3,0.5,0.4,0.5,0.5
	c0.1,0,0.1,0,0.2-0.2c0.2-0.3,0.4-0.6,0.6-0.8c0.3-0.2,0.6-0.4,0.8-0.5c0.2,0,0.3-0.1,0.3-0.2c0-0.1-0.2-0.2-0.5-0.4
	c-0.7-0.4-1.4-1-2.1-1.8c-0.7-0.7-1.2-1.4-1.5-1.9c-0.1-0.2-0.1-0.3-0.1-0.5c0-0.2,0.1-0.4,0.3-0.8c1-2,1.7-4.5,2.1-7.5
	c0.1-0.8,0.2-1.2,0.3-1.4c0.1-0.1,0.4-0.2,0.8-0.3c0.5,0,0.7-0.2,0.6-0.4c-0.1-0.3-0.5-0.7-1.2-1.3c0,0,0,0-0.1-0.1
	c-0.4-0.4-0.7-0.5-0.8-0.5c-0.1,0-0.4,0.2-0.7,0.7c0,0.1-0.1,0.1-0.1,0.2l0,0c-0.3,0.4-0.5,0.6-0.6,0.6c-0.1,0.1-0.5,0.1-1.2,0.1
	c-0.7,0-1.1-0.1-1.2-0.2c-0.1-0.1-0.1-0.4,0.1-1c0.1-0.4,0.3-0.9,0.4-1.6c0.2-0.9,0.4-1.4,0.7-1.5c0.3-0.1,0.3-0.3,0-0.4
	c-0.3-0.1-0.8-0.3-1.7-0.5c-0.1,0-0.2,0-0.3-0.1c-0.4-0.1-0.6-0.1-0.6,0s-0.1,0.3-0.1,0.7c0,0.1,0,0.3,0,0.4c0,1.6-0.1,2.7-0.3,3
	c-0.2,0.4-0.5,0.3-0.9-0.1c-0.3-0.3-0.6-0.5-0.7-0.5c-0.1,0-0.3,0-0.4,0.2c-0.2,0.3-0.4,0.4-0.5,0.4c-0.1,0-0.2-0.1-0.2-0.4
	c0-0.3,0.1-0.6,0.4-0.7c0.2-0.1,0.3-0.3,0.1-0.4c-0.1-0.2-0.4-0.4-0.8-0.8c-0.4-0.3-0.7-0.4-0.8-0.4c-0.1,0-0.3,0.1-0.5,0.3
	C30,71,29.4,71.2,28.8,71c-0.2-0.1-0.3-0.2-0.4-0.5c0-0.2,0.1-0.4,0.3-0.6c0.2-0.2,0.2-0.3,0-0.4c-0.2-0.1-0.8-0.3-1.6-0.6
	c-0.4-0.1-0.6-0.1-0.6-0.1c-0.1,0-0.1,0.1-0.1,0.2c0,0.1,0,0.4,0,0.9c0,0.5,0,0.8,0,0.9c-0.2,0.3-0.5,0.4-0.9,0.4
	c-0.4,0-1.1-0.2-1.9-0.6c0,0-0.1,0-0.2-0.1c-0.4-0.2-0.6-0.2-0.7-0.2c0,0-0.1,0.2,0,0.5c0,0.1,0,0.1,0,0.1c0.1,1,0.1,1.6,0.1,1.9
	c0,0.4-0.2,0.6-0.4,0.7c-0.2,0.1-0.5,0-1.1-0.1c-0.1,0-0.1,0-0.1,0.1c0,0.1,0.1,0.2,0.2,0.5l0,0c0.1,0.2,0.2,0.3,0.2,0.3
	c0,0,0.2,0,0.4-0.1c0.3-0.1,0.5,0,0.7,0.2c0.1,0.2,0.1,0.7,0.1,1.6c0,0.8-0.1,1.3-0.2,1.3c0,0-0.1,0.4-0.1,1.2c0,0.1,0,0.2,0,0.2
	c0,0.6,0,1.4-0.1,2.4c0,0.5,0,0.9,0,1c0,0.1,0.1,0.2,0.2,0.3c0.2,0.1,0.5,0.1,0.9,0c0.4-0.1,0.7-0.3,0.8-0.5
	c0.2-0.3,0.4-0.5,0.9-0.4c0.4,0,0.6,0.2,0.6,0.6c-0.1,0.4-0.2,0.8-0.5,0.9c-0.2,0.1-0.7,0.2-1.3,0.2c-1.7,0-2.6,0-2.6,0.1
	c0,0,0.1,0.4,0.3,1c0.2,0.6,0.3,1,0.3,1c0.1,0.1,0.2,0,0.4-0.1c0.2-0.2,0.6-0.3,1.1-0.4s0.8,0,0.8,0.2c0.1,0.2-0.2,0.9-1,2.2
	c-0.2,0.3-0.2,0.5-0.1,0.6c0.1,0.1,0.5,0.2,1.1,0.2c0.3,0,0.4,0,0.5,0c0.1,0,0.2-0.2,0.3-0.4l0-0.1c0.2-0.3,0.4-0.4,0.7-0.4
	c0.3,0,0.6,0.2,0.9,0.5c0.3,0.3,0,0.8-0.9,1.4c-0.9,0.6-2.1,1.2-3.5,1.6c-0.4,0.1-0.6,0.2-0.6,0.2c-0.1,0.1,0,0.1,0,0.2
	c0.1,0,0.4,0,1.1-0.1c1.2-0.2,2.3-0.5,3.4-1c0.4-0.2,1-0.5,1.8-1c0.3-0.2,0.6-0.2,0.8-0.1c0.3,0.1,0.7,0.4,1.3,1
	c0.3,0.3,0.6,0.5,0.7,0.5c0.2,0.1,0.4,0,0.6-0.1c0.4-0.2,0.5-0.6,0.4-1.1c-0.2-0.5-0.5-1-1.2-1.4c-0.3-0.2-0.5-0.4-0.5-0.6
	c0-0.2,0.1-0.4,0.4-0.8c0.2-0.2,0.4-0.5,0.5-0.8c0.3-0.5,0.6-0.9,0.8-1c0.1,0,0.2-0.1,0.2-0.2c0-0.1,0-0.2-0.2-0.2
	c-0.1,0-0.1,0-0.1-0.1c0-0.1,0.1-0.2,0.1-0.2c0.1-0.1,0.5-0.2,1.2-0.3c0.4-0.1,0.7-0.1,0.8-0.2c0.1,0,0.1-0.1,0.1-0.2
	c0-0.1-0.7-0.1-2-0.1c-1.3,0-2.5,0-3.6,0.1c-0.5,0-0.8,0-1-0.3c-0.1-0.2,0.1-0.5,0.5-0.7c0.2-0.1,0.3-0.2,0.3-0.3
	c0-0.1,0.2-0.2,0.7-0.3c0.5-0.1,0.8-0.1,1.1,0c0.2,0.1,0.3,0.2,0.3,0.4c0,0.2,0.2,0.2,0.5,0.2c0.3,0,0.6-0.1,1-0.3c0,0,0,0,0.1,0
	c0.2-0.1,0.3-0.2,0.3-0.3c0-0.1,0-0.4,0-0.9c0-0.1,0-0.1,0-0.2c0-0.6,0-1,0-1.2c0-0.2,0.1-0.3,0.3-0.4c0.2-0.2,0.3-0.3,0.3-0.4
	s-0.2-0.4-0.6-0.7c-0.4-0.3-0.6-0.5-0.6-0.6c0-0.1,0-0.3,0.2-0.5c0.1-0.1,0.1-0.2,0.1-0.2c0-0.1,0-0.4,0-0.8c0-0.7,0-1.1,0.1-1.2
	c0.1-0.1,0.5-0.2,1.2-0.2c0.6,0,0.9,0,1,0.1s0.1,0.2,0.1,0.5c0,0.3-0.2,0.9-0.4,1.8c-0.2,0.9-0.5,1.7-0.8,2.5l0,0
	c-0.2,0.6-0.3,0.9-0.3,1c0.1,0.1,0.2,0.1,0.4-0.1c0.2-0.2,0.4-0.5,0.8-1.1c0.4-0.6,0.6-0.9,0.8-0.9s0.3,0.4,0.4,1.1
	c0.3,1.7,0.6,3.2,1,4.5c0.2,0.6,0.2,0.9,0.2,1.1c0,0.2-0.2,0.5-0.4,1c-1.1,1.9-2.4,3.4-3.9,4.7c0,0-0.1,0.1-0.1,0.1
	c-0.2,0.1-0.3,0.2-0.3,0.3C32,90.7,32,90.8,32,90.8z M28.3,86.4c-0.2,0.1-0.6,0.1-1.3,0c-0.6-0.1-0.9-0.3-1-0.4s0-0.5,0.2-0.8
	s0.4-0.6,0.6-0.7c0.2-0.1,0.6-0.2,1.2-0.2c0.6-0.1,1-0.1,1.1,0c0.2,0.1,0.2,0.4-0.1,1.1C28.9,85.8,28.6,86.2,28.3,86.4z M37.8,82.1
	c-0.2,0.3-0.6-0.1-1-1.2c-0.4-1.1-0.7-2.4-1-3.8c-0.1-0.7,0-1.4,0.5-2c0.2-0.3,0.6-0.4,1.4-0.4c0.8,0,1.2,0.1,1.3,0.4
	c0.2,0.3,0.1,1.5-0.3,3.5C38.4,80.6,38.1,81.8,37.8,82.1z M26.1,80.7c-0.2,0.1-0.5,0.1-1,0.1c-0.4,0-0.6-0.2-0.7-0.3
	c-0.3-0.4-0.3-0.8-0.1-1.2c0.2-0.4,0.6-0.6,1.1-0.6c0.4,0,0.7,0.1,0.9,0.4c0.2,0.3,0.3,0.6,0.3,0.9C26.6,80.3,26.4,80.6,26.1,80.7z
	 M29.5,80.8c-0.5,0-0.8-0.1-0.9-0.2c-0.1-0.1-0.2-0.4-0.2-0.9c0-0.5,0.1-0.8,0.2-0.9c0.1-0.1,0.4-0.2,0.9-0.2s0.8,0.1,0.9,0.2
	c0.1,0.1,0.2,0.4,0.2,0.9c0,0.3,0,0.5-0.1,0.7c0,0.1-0.1,0.2-0.3,0.3C30.1,80.8,29.8,80.8,29.5,80.8z M25.4,78c-0.4,0-0.8,0-1-0.1
	c-0.8-0.3-0.8-0.6-0.1-0.9c0.2-0.1,0.3-0.2,0.3-0.2c0.1-0.2,0.4-0.4,0.8-0.4c0.4,0,0.7,0,0.9,0.2c0.1,0.2,0.2,0.4,0.1,0.7
	c0,0.3-0.1,0.5-0.3,0.6C26.1,78,25.8,78,25.4,78z M29.5,78c-0.4,0-0.7,0-0.8-0.1c-0.2-0.1-0.3-0.3-0.3-0.7c0-0.4,0.1-0.6,0.4-0.7
	c0.2-0.1,0.6-0.1,1,0c0.4,0.1,0.6,0.2,0.6,0.3s0.1,0.2,0.3,0.2c0.2,0,0.3,0.1,0.2,0.4c0,0.2-0.2,0.4-0.4,0.5
	C30.2,78,29.9,78,29.5,78z M30,75.7c-0.2,0.1-0.5,0.1-0.9,0.1c-0.4-0.1-0.6-0.2-0.7-0.3c-0.2-0.5-0.2-0.9,0.2-1.2
	c0.4-0.3,0.8-0.4,1.3-0.1c0.2,0.1,0.3,0.4,0.3,0.8C30.3,75.3,30.2,75.6,30,75.7z M26.2,75.7c-0.2,0.1-0.5,0.2-0.8,0.1
	c-0.4,0-0.6-0.2-0.6-0.3c-0.2-0.5-0.2-0.9,0.2-1.2c0.4-0.3,0.8-0.4,1.2-0.2c0.2,0.1,0.3,0.4,0.4,0.8C26.5,75.3,26.4,75.5,26.2,75.7z
	 M26.1,73.4c-0.5,0.2-0.9,0.2-1.2-0.1c-0.3-0.3-0.4-0.7-0.2-1.2c0.1-0.2,0.3-0.3,0.6-0.3c0.4,0,0.6,0,0.8,0.1
	c0.2,0.1,0.3,0.4,0.3,0.8C26.4,73,26.3,73.3,26.1,73.4z M29.3,73.4c-0.4,0-0.7-0.1-0.9-0.4c-0.2-0.3-0.2-0.6,0-1
	c0.1-0.2,0.4-0.3,0.9-0.3s0.8,0.1,0.9,0.3c0.1,0.2,0.1,0.5,0.1,0.8c0,0.3-0.2,0.5-0.3,0.5C29.8,73.4,29.6,73.4,29.3,73.4z
	 M59.4,83.2c1.1,0.1,2-0.2,2.8-1c0.8-0.8,1.1-1.7,1-2.8c-0.1-0.9-0.5-1.6-1.2-2.2c-0.6-0.5-1.4-0.8-2.2-0.8c-0.9,0-1.6,0.3-2.3,0.9
	c-0.7,0.6-1,1.4-1.1,2.3c0,0.8,0.2,1.6,0.7,2.3C57.8,82.7,58.5,83.1,59.4,83.2z M60.7,82.2c-0.8,0.3-1.6,0.2-2.3-0.3
	c-0.7-0.5-1.1-1.2-1.1-2.1c0-0.7,0.2-1.3,0.7-1.8c0.5-0.5,1.1-0.7,1.7-0.7c0.7,0,1.3,0.2,1.8,0.7c0.7,0.6,0.9,1.4,0.7,2.3
	C62.1,81.3,61.6,81.9,60.7,82.2z"/>
</svg>
