<?xml version="1.0" encoding="utf-8"?>
<!-- Generator: Adobe Illustrator 24.2.3, SVG Export Plug-In . SVG Version: 6.00 Build 0)  -->
<svg version="1.1" id="Layer_1" xmlns="http://www.w3.org/2000/svg" xmlns:xlink="http://www.w3.org/1999/xlink" x="0px" y="0px"
	 viewBox="0 0 352 219" style="enable-background:new 0 0 352 219;" xml:space="preserve">
<style type="text/css">
	.st0{clip-path:url(#SVGID_2_);}
	.st1{fill:none;stroke:#D6D2C7;stroke-width:1.3;stroke-miterlimit:10;stroke-dasharray:9.31,9.31;}
	.st2{fill:#D6D2C7;}
</style>
<g>
	<defs>
		<rect id="SVGID_1_" width="351.3" height="218.1"/>
	</defs>
	<clipPath id="SVGID_2_">
		<use xlink:href="#SVGID_1_"  style="overflow:visible;"/>
	</clipPath>
	<g class="st0">
		<path class="st1" d="M350.6,0.6H0.7v216.8h350V0.6z"/>
	</g>
</g>
<path class="st2" d="M21.2,42.7c0.1,0.1,0.2,0.1,0.2,0c0.1,0,0.3-0.2,0.6-0.5c2.2-2.3,3.6-5.6,4.1-9.7c0-0.1,0-0.2,0-0.3
	c0.1-0.9,0.2-1.4,0.3-1.5c0.1-0.1,0.4-0.2,0.9-0.2c0.1,0,0.1,0,0.2,0c0,0,0.1,0,0.1,0c0.4,0,0.7,0,0.8,0.1c0.2,0.1,0.3,0.3,0.3,0.7
	c0,0.3,0,1,0,2c0,0.2,0,0.3,0,0.4c-0.1,2.1-0.2,3.6-0.3,4.4c-0.2,0.9-0.4,1.5-0.8,1.8c-0.3,0.2-0.9,0.3-1.7,0.3c0,0-0.1,0-0.2,0
	c-0.5,0-0.8,0-0.9,0c-0.1,0-0.1,0.1-0.1,0.2c0,0.1,0.1,0.1,0.2,0.2l0,0c0.6,0.2,1,0.4,1.3,0.7c0.3,0.3,0.4,0.7,0.4,1.1
	c0,0.2,0,0.3,0.1,0.3c0.1,0,0.2,0.1,0.4,0c0.9-0.1,1.6-0.4,2.1-0.9c0.5-0.5,0.8-1.5,1.1-2.9c0.2-1.3,0.4-3.3,0.5-6c0,0,0,0,0-0.1
	c0-1,0.1-1.6,0.1-1.6c0.1-0.2,0.3-0.3,0.5-0.5c0.2-0.1,0.3-0.2,0.2-0.3c0-0.1,0-0.2,0.1-0.3c0.1-0.1,0.4-0.5,0.9-0.9
	c1.6-1.6,2.9-3.4,3.8-5.3c0.3-0.6,0.5-0.9,0.6-1c0.1-0.1,0.3,0.1,0.4,0.4c0.9,3.2,2.1,5.6,3.7,7.3c0.2,0.2,0.3,0.3,0.3,0.2
	c0,0,0.1-0.1,0.2-0.3c0.1-0.3,0.3-0.6,0.5-0.9c0.3-0.3,0.5-0.5,0.8-0.6c0.2-0.1,0.3-0.2,0.3-0.3s-0.2-0.2-0.4-0.4
	c-0.9-0.6-1.8-1.4-2.8-2.5c-0.9-1-1.5-1.9-2-2.7c-0.4-0.9-0.5-1.4-0.1-1.5c0.2-0.1,0.2-0.2-0.1-0.4c-0.3-0.1-0.9-0.3-1.8-0.6
	c-0.1,0-0.2,0-0.3-0.1c-0.4-0.1-0.6-0.1-0.7-0.1c-0.1,0-0.1,0.1-0.1,0.4c0,0.1,0,0.1,0,0.1c-0.2,2.1-1.2,4.6-3,7.4
	c-0.4,0.6-0.7,1-0.9,1c-0.2,0.1-0.5-0.1-0.9-0.4c0,0-0.1-0.1-0.1-0.1c-0.2-0.1-0.3-0.2-0.3-0.2c0,0-0.2,0.1-0.4,0.3
	c-0.1,0.1-0.1,0.1-0.1,0.1c-0.3,0.3-0.5,0.5-0.7,0.6c-0.2,0.1-0.5,0.1-1,0.1c-0.4,0-0.7,0-0.8-0.1c-0.2-0.1-0.3-0.3-0.3-0.6
	c0-0.2,0-0.8,0-1.7c0-0.1,0-0.2,0-0.3c0-0.4,0.1-0.6,0.1-0.7c0.1-0.1,0.3-0.2,0.6-0.3c0.2,0,0.8,0,1.7,0c0.3,0,0.5,0,0.7,0
	c1.3,0,2.1-0.1,2.5-0.1c0.4-0.1,0.6-0.3,0.4-0.6c-0.2-0.2-0.7-0.7-1.5-1.4l0,0c-0.3-0.3-0.5-0.4-0.6-0.3c-0.1,0-0.3,0.3-0.6,0.8
	c-0.3,0.5-0.6,0.8-0.8,0.9c-0.2,0.1-0.5,0.1-0.8,0c-0.2-0.1-0.4-0.7-0.4-1.6c0-1,0.1-1.6,0.3-1.8c0.2-0.2,0.2-0.3,0-0.5
	c-0.2-0.1-0.8-0.3-1.8-0.6c-0.5-0.1-0.8-0.2-0.8-0.2c-0.1,0-0.1,0.1-0.1,0.2c0.1,0.7,0.1,1.5,0.2,2.4c0,1,0,1.5,0,1.6
	c-0.1,0.2-0.4,0.3-1,0.4c-0.5,0-1.6,0-3-0.1c-0.1,0-0.1,0-0.1,0.1c0,0.1,0.1,0.2,0.2,0.5c0.1,0.2,0.2,0.4,0.3,0.4c0.1,0,0.2,0,0.4,0
	c0.5-0.2,0.9-0.2,1.3-0.2c0.4,0,0.7,0.1,0.8,0.3c0.1,0.2,0.1,1.2,0.1,3.1c0,1.9-0.2,3.4-0.3,4.7c-0.4,3.1-1.2,5.7-2.6,7.8
	c-0.1,0.2-0.2,0.4-0.2,0.5S21.1,42.7,21.2,42.7z M33.9,42.7c0,0,0.1,0,0.2-0.1c0.1-0.1,0.2-0.2,0.2-0.3c0-0.1,0.7-0.6,2.2-1.6
	c2.7-1.8,4.6-3.1,5.5-3.9c1-0.8,0.9-1-0.2-0.4c-4.5,2.1-7.6,3.4-9.3,4c-0.1,0,0,0.3,0.4,0.9C33.2,41.8,33.6,42.3,33.9,42.7z
	 M37.1,34.4c0.3,0.1,0.6,0.2,0.9,0c0.3-0.1,0.5-0.3,0.6-0.6c0.2-0.8-0.1-1.6-0.9-2.3c-0.8-0.8-1.9-1.3-3.3-1.6
	c-0.4-0.1-0.6-0.1-0.6,0c0,0.1,0.2,0.3,0.6,0.6c1.1,1.1,1.9,2.2,2.4,3.4C36.9,34.1,37,34.3,37.1,34.4z M62.5,40.9c1,0,1.6,0,1.9,0
	c0.4,0,0.6,0,0.7-0.1c0.1,0,0.1-0.1,0.1-0.2c0,0,0-0.1,0-0.1c0-0.2,0-0.3-0.1-0.4c-0.1,0-0.3-0.1-0.7-0.1c-0.6-0.1-0.9-0.1-1.1-0.2
	c-0.2-0.1-0.3-0.3-0.4-0.6c-0.2-0.4-1.1-3.2-2.8-8.1c-0.2-0.7-0.5-1.5-0.9-2.6c-0.7-2-1.1-3.3-1.3-3.8c-0.3-0.7-0.5-1.2-0.6-1.4
	c-0.1-0.1-0.3-0.2-0.5-0.1c-0.1,0-0.2,0-0.3,0c-0.1,0-0.2,0-0.3,0c-0.2,0-0.3,0-0.5,0.1c-0.1,0.2-0.3,0.7-0.6,1.4
	c-0.2,0.5-0.6,1.8-1.3,3.9c-0.4,1.1-0.7,2-0.9,2.7c-0.2,0.7-0.5,1.5-0.9,2.6c-0.7,2.2-1.2,3.6-1.4,4.2c-0.3,0.8-0.5,1.4-0.7,1.6
	c-0.1,0.2-0.4,0.2-0.7,0.3c-0.1,0-0.3,0-0.4,0c-0.5,0.1-0.8,0.2-0.9,0.2c0,0.1,0,0.2,0,0.4c0,0.2,0,0.3,0.1,0.3c0,0,1,0.1,2.8,0.1
	c0.1,0,0.3,0,0.5,0c0.9,0,1.5,0,1.7,0c0.4,0,0.6,0,0.6-0.1c0,0,0.1-0.1,0.1-0.2c0,0,0-0.1,0-0.1c0-0.2,0-0.3-0.1-0.4
	c-0.1,0-0.3-0.1-0.8-0.2c0,0-0.1,0-0.2,0c-0.5-0.1-0.8-0.1-1-0.2c-0.2-0.1-0.2-0.3-0.2-0.6c0-0.2,0.2-0.7,0.4-1.4
	c0-0.1,0.1-0.3,0.1-0.3c0.1-0.2,0.1-0.4,0.2-0.7c0.2-0.6,0.3-1,0.4-1.2c0.1-0.2,0.4-0.4,0.7-0.4c0.2,0,0.7-0.1,1.5,0
	c0.4,0,0.7,0,0.9,0c0.2,0,0.5,0,0.9,0c0.8,0,1.3,0,1.5,0c0.3,0,0.5,0.2,0.7,0.4c0.1,0.2,0.2,0.5,0.4,1.1c0.1,0.3,0.2,0.5,0.2,0.7
	c0,0,0,0.1,0.1,0.2c0.3,0.8,0.4,1.3,0.5,1.5c0,0.3,0,0.5-0.2,0.6c-0.1,0.1-0.4,0.1-0.9,0.2c-0.1,0-0.1,0-0.2,0c-0.1,0-0.1,0-0.2,0
	c-0.4,0-0.6,0.1-0.6,0.1c0,0-0.1,0.1-0.1,0.3c0,0,0,0.1,0,0.1s0,0.1,0,0.1c0,0.1,0,0.2,0.1,0.2c0.1,0,0.3,0.1,0.7,0.1
	c0.3,0,0.9,0,1.9,0c0.4,0,0.7,0,1,0C61.8,40.9,62.1,40.9,62.5,40.9z M55.9,34.2c-1.3,0-2.1,0-2.3,0c-0.2,0-0.2-0.1-0.3-0.2
	c0-0.2,0-0.5,0.2-1c0.1-0.4,0.4-1.2,0.8-2.6c0.1-0.2,0.2-0.5,0.3-1c0.4-1.3,0.7-2.1,0.8-2.3c0.2-0.4,0.4-0.4,0.6,0
	c0.1,0.2,0.4,1,0.8,2.2c0.1,0.4,0.2,0.7,0.3,1c0.6,1.8,0.9,2.8,1,3.2c0.1,0.4,0,0.6-0.1,0.7C58,34.1,57.3,34.1,55.9,34.2z M73.9,41
	c2.3,0,3.8,0,4.4-0.1c2.6-0.2,4.7-1,6.2-2.6c1.5-1.6,2.2-3.6,2.2-6.2c0-2.5-0.6-4.6-2-6.1c-1.3-1.6-3.2-2.4-5.6-2.7
	c-0.4,0-1.9,0-4.6,0c-2.7,0-4.1,0-4.1,0c-0.1,0.2-0.2,0.3,0,0.5c0.1,0.2,0.3,0.3,0.5,0.3c0.7,0.1,1.2,0.1,1.4,0.2
	c0.2,0.1,0.4,0.2,0.5,0.4c0,0.1,0.1,2,0.1,5.7c0,3.7,0,6.3,0,7.7c0,0,0,0.1,0,0.2c0,0.7-0.1,1.2-0.2,1.3c-0.1,0.1-0.5,0.2-1.1,0.3
	c-0.1,0-0.1,0-0.1,0c-0.6,0.1-0.9,0.1-0.9,0.2c0,0-0.1,0.2-0.1,0.4c0,0.2,0,0.3,0.1,0.3C70.4,40.9,71.6,40.9,73.9,41z M78.5,39.9
	C77.8,40,77.2,40,76.6,40c-0.6-0.1-0.9-0.2-1-0.4c-0.1-0.1-0.1-2.6-0.1-7.5c0-4.9,0-7.4,0.1-7.5c0.1-0.3,0.8-0.4,1.9-0.4
	c1.1,0,2,0.2,2.7,0.6c2.3,1.1,3.5,3.5,3.5,7.3c0,2.3-0.4,4.1-1.3,5.4C81.5,38.8,80.2,39.6,78.5,39.9z M97.4,41.3c0.5,0,1,0,1.5,0
	c1.8-0.2,3.2-0.7,4.2-1.6c1-0.9,1.5-2.2,1.4-3.7c0-1.2-0.4-2.1-1.1-2.9c-0.7-0.7-2-1.5-3.8-2.3c-1.2-0.6-2.1-1-2.5-1.3
	c-0.4-0.3-0.8-0.7-1-1.2c-0.4-0.8-0.4-1.6-0.2-2.4c0.3-0.7,0.8-1.3,1.5-1.7c0.8-0.4,1.7-0.5,2.7-0.4c0.6,0.1,1,0.2,1.1,0.4
	c0.2,0.2,0.4,0.8,0.6,1.8c0,0.1,0.1,0.3,0.1,0.4c0.1,0.6,0.2,0.9,0.3,1s0.2,0.1,0.4,0.1c0.1,0,0.1,0,0.2,0c0,0,0.1,0,0.1,0
	c0.3,0,0.4,0,0.5-0.1c0-0.1,0.1-0.4,0.1-1c0-0.1,0-0.3,0-0.3c0,0,0,0,0-0.1c0-1,0.1-1.6,0-1.8c0-0.2-0.1-0.3-0.2-0.4l-0.1,0
	c-1.1-0.7-2.4-1.1-3.8-1.2c-1.4,0-2.6,0.2-3.7,0.8c-1.2,0.6-1.9,1.4-2.3,2.5c-0.5,1.6-0.4,2.9,0.4,4.1c0.8,1.2,2.4,2.2,4.7,3.2
	c1.3,0.6,2.1,1,2.6,1.4c0.4,0.4,0.7,0.9,0.9,1.5c0.2,0.9,0.1,1.6-0.4,2.3c-0.4,0.7-1.1,1.1-2,1.4c-0.9,0.3-1.9,0.3-3,0.1
	c-0.7-0.1-1.1-0.3-1.2-0.5c-0.2-0.2-0.4-0.8-0.6-1.9c0-0.1,0-0.2-0.1-0.4c-0.1-0.6-0.2-1-0.3-1.1c-0.1-0.1-0.2-0.1-0.5-0.1
	c-0.1,0-0.1,0-0.1,0s-0.1,0-0.2,0c-0.2,0-0.4,0.1-0.4,0.2c0,0.1-0.1,0.5-0.1,1.3c0,0.2,0,0.4,0,0.5s0,0.3,0,0.5c0,0.7,0,1.2,0,1.3
	c0,0.1,0.2,0.2,0.4,0.4c0.1,0,0.1,0.1,0.2,0.1C94.7,40.9,96,41.2,97.4,41.3z M123.6,41.2c0.4,0,0.9,0,1.5,0c0.6,0,1-0.1,1.2-0.2
	c0.1,0,0.1-0.1,0.1-0.1c0,0,0-0.2,0-0.4c0-0.2,0-0.3-0.1-0.4c-0.1,0-0.3-0.1-0.6-0.1c0,0-0.1,0-0.1,0s-0.1,0-0.1,0
	c-0.5,0-0.9-0.2-1-0.3c-0.1-0.2-0.3-0.7-0.6-1.7c0-0.1-0.1-0.2-0.1-0.2c-0.5-2-0.9-3.2-1.2-3.7c-0.2-0.5-0.7-0.9-1.4-1.3
	c-0.4-0.2-0.5-0.4-0.5-0.5c0-0.1,0.3-0.2,0.8-0.5c1.6-0.7,2.6-1.7,3-3c0.3-1.2,0-2.4-0.9-3.5c-1-1.1-2.4-1.8-4.2-2
	c-0.4,0-1.9,0-4.7,0c-2.7,0-4.1,0-4.2,0c-0.1,0.2-0.2,0.3,0,0.5c0.1,0.2,0.3,0.3,0.5,0.3c0.7,0.1,1.2,0.1,1.4,0.2
	c0.2,0.1,0.4,0.2,0.5,0.4c0,0.1,0.1,2,0.1,5.7c0,3.7,0,6.3,0,7.7c0,0,0,0.1,0,0.1c0,0.8-0.1,1.2-0.2,1.4c-0.1,0.1-0.5,0.2-1.1,0.3
	c-0.1,0-0.1,0-0.1,0c-0.5,0.1-0.8,0.1-0.9,0.2c-0.1,0-0.1,0.2-0.1,0.4c0,0,0,0.1,0,0.1c0,0.1,0,0.2,0.1,0.2c0.1,0,0.3,0.1,0.7,0.1
	c0.3,0,0.9,0,2,0c0.4,0,0.8,0,1,0s0.6,0,1,0c1,0,1.7,0,2,0c0.4,0,0.6,0,0.7-0.1c0.1,0,0.1-0.1,0.1-0.2c0,0,0-0.1,0-0.1
	c0-0.2,0-0.3-0.1-0.4c-0.1,0-0.4-0.1-0.9-0.2c-0.1,0-0.2,0-0.4,0c-0.4,0-0.6-0.1-0.7-0.2c-0.2-0.1-0.3-0.4-0.3-0.7
	c0-0.3,0-0.9,0-1.9c0-0.4,0-0.7,0-0.9c0-0.2,0-0.5,0-0.9c0-1,0-1.7,0-2c0-0.4,0.1-0.6,0.3-0.7c0.1-0.1,0.3-0.1,0.7-0.1
	c0.1,0,0.2,0,0.3,0c0.9,0,1.6,0.1,1.9,0.3c0.4,0.2,0.8,0.6,1.1,1.3c0.2,0.6,0.6,1.7,1,3.3c0.3,1.2,0.5,1.9,0.7,2.3
	c0.2,0.5,0.4,0.8,0.7,1C122.5,41,123,41.1,123.6,41.2z M118.2,31.7c-1.5,0.2-2.4,0.1-2.5-0.3c0-0.1-0.1-1.2-0.1-3.4
	c0-2.1,0-3.3,0.1-3.4c0.1-0.2,0.4-0.3,1-0.4c0.6-0.1,1.2-0.1,2,0c1.1,0.1,1.9,0.6,2.4,1.3c0.5,0.7,0.8,1.5,0.7,2.4
	c0,0.9-0.4,1.7-1,2.4C120.2,31.1,119.3,31.6,118.2,31.7z M147.6,42.9c0.1,0.1,0.3,0.1,0.8,0s0.8-0.2,1.2-0.4
	c0.6-0.3,1.1-0.8,1.5-1.6c0.4-0.8,0.6-2.1,0.8-3.8c0.2-1.6,0.3-3.9,0.4-7c0-0.2,0-0.4,0-0.8c0-1.6,0.1-2.5,0.1-2.7
	c0-0.3,0.2-0.5,0.4-0.6c0,0,0.1,0,0.1,0c0.2-0.1,0.3-0.2,0.4-0.2c0-0.1,0-0.1,0-0.2c-0.1-0.2-0.4-0.5-0.8-0.9
	c-0.5-0.4-0.8-0.7-1-0.8c-0.1-0.1-0.2-0.1-0.3,0c-0.1,0-0.2,0.2-0.5,0.5c0,0-0.1,0.1-0.1,0.1c-0.3,0.3-0.5,0.5-0.7,0.6
	c-0.2,0-0.7,0.1-1.4,0.1c-0.2,0-0.3,0-0.4,0c-0.1,0-0.2,0-0.3,0c-0.7,0-1.2,0-1.3,0c-0.3,0-0.4-0.2-0.4-0.3c0-0.1,0.1-0.4,0.3-0.9
	c0-0.1,0.1-0.1,0.1-0.2c0.3-0.7,0.5-1.1,0.6-1.3c0.1-0.2,0.2-0.3,0.4-0.4c0.3-0.1,0.2-0.3-0.1-0.5c-0.4-0.2-1.1-0.5-2.2-0.8l0,0
	c-0.2-0.1-0.4-0.1-0.4,0c0,0-0.1,0.2-0.1,0.6c0,0,0,0.1,0,0.1c-0.3,2.3-1,4.8-2.2,7.6c-0.4,1-0.7,1.4-0.9,1.4
	c-0.1-0.1-0.2-0.7-0.2-2c0-1,0-1.6,0.1-1.8c0-0.2,0.2-0.4,0.5-0.6c0.2-0.1,0.3-0.3,0.2-0.5c-0.1-0.2-0.5-0.5-1.1-1
	c-0.4-0.4-0.7-0.5-0.9-0.5c-0.1,0-0.3,0.2-0.6,0.6c-0.3,0.4-0.8,0.6-1.5,0.7c-0.7,0.1-1-0.1-1-0.4c0-0.2,0.3-0.7,0.8-1.6
	c0.6-0.8,0.9-1.3,1.1-1.4c0.4-0.1,0.4-0.3,0.1-0.4c-0.3-0.2-0.9-0.4-2-0.6c0,0-0.1,0-0.2,0c-0.4-0.1-0.6-0.1-0.7-0.1
	c-0.1,0-0.1,0.2-0.1,0.6c0,0.1,0,0.2,0,0.2c0,0.5,0,1-0.1,1.5c-0.1,0.8-0.2,1.4-0.2,1.6c-0.1,0.3-0.3,0.4-0.5,0.4
	c-0.2,0-0.6-0.2-1.2-0.5c-0.6-0.3-0.9-0.4-1-0.4c0,0-0.1,0-0.1,0.1c0,0.1,0,0.3,0.1,0.8c0.1,1.1,0.2,3.5,0.2,7.1
	c0,3.8-0.1,6.6-0.2,8.4c-0.1,0.8,0,1.3,0.1,1.5s0.5,0.2,1.1,0c0.4-0.1,0.7-0.3,0.8-0.5c0.1-0.2,0.2-0.5,0.2-1v0c0-0.4,0-0.6,0-0.7
	c0.1-0.1,0.2-0.2,0.5-0.3c0.2,0,0.6,0,1.3,0c0,0,0.1,0,0.1,0c0,0,0.1,0,0.1,0c0.7,0,1.1,0,1.3,0c0.3,0,0.4,0.1,0.5,0.2
	c0,0.1,0.1,0.3,0.1,0.6v0.1c0,0.5,0.1,0.8,0.4,0.8c0.3,0.1,0.7,0,1.4-0.4c0,0,0.1,0,0.2-0.1c0.2-0.1,0.3-0.2,0.3-0.4
	c0-0.2,0-0.8,0-1.8c0-0.5,0-0.8,0-1.1c0-1.1,0-2.4,0-4.1c0-1.7,0-2.6,0.1-2.7c0-0.1,0.1-0.3,0.2-0.3c0.1-0.1,0.1-0.1,0,0
	c0,0.1,0,0.1,0.1,0.2c0.1,0,0.1,0,0.2,0c0.2-0.1,0.6-0.6,1.3-1.5c0.7-0.9,1.3-1.8,1.8-2.6c0,0,0,0,0-0.1c0.2-0.4,0.5-0.6,0.7-0.7
	c0.2-0.1,0.9-0.1,2-0.1c0.1,0,0.1,0,0.2,0c0.2,0,0.4,0,0.6,0c0.7,0,1.1,0,1.2,0c0.2,0,0.4,0.2,0.5,0.4c0,0.1,0.1,0.5,0,1
	c0,0.2,0,0.4,0,0.5c0,2.3-0.1,4.5-0.2,6.6c-0.1,2.1-0.3,3.5-0.5,4.4c-0.1,0.5-0.3,0.9-0.5,1.1c-0.2,0.2-0.6,0.4-1,0.4
	c-0.4,0-1.1,0-2.1-0.1c-0.5,0-0.8-0.1-0.9,0c-0.1,0-0.1,0.1-0.1,0.2c0,0.1,0.2,0.2,0.6,0.3c1.5,0.4,2.2,1,2.2,2.1
	C147.6,42.7,147.6,42.8,147.6,42.9z M136.4,38.8c-0.6,0-0.9,0-1.1-0.1c-0.2-0.1-0.3-0.3-0.4-0.6c0-0.2-0.1-0.8,0-1.7
	c0-0.4,0-0.7,0-0.9c0-0.2,0-0.5,0-0.8c0-0.8,0-1.4,0-1.6c0.1-0.3,0.2-0.5,0.4-0.6c0.1-0.1,0.5-0.1,1.1-0.1c0.2,0,0.4,0,0.6,0
	c0.1,0,0.3,0,0.6,0c0.6,0,0.9,0,1.1,0.1c0.2,0.1,0.3,0.3,0.4,0.6c0,0.2,0,0.8,0,1.6c0,0.4,0,0.6,0,0.8c0,1.5,0,2.3,0,2.6
	c0,0.3-0.1,0.4-0.2,0.5c-0.1,0.1-0.2,0.1-0.4,0.1c-0.1,0-0.6,0-1.4,0C136.8,38.8,136.7,38.8,136.4,38.8z M146.1,35.4
	c0.4,0.1,0.7,0.1,1-0.1c0.3-0.2,0.5-0.6,0.5-1c0-0.7-0.2-1.4-0.8-2c-0.5-0.7-1.3-1.3-2.4-1.8c-0.6-0.3-0.9-0.4-1-0.4
	c-0.1,0,0,0.3,0.3,0.7c1,1.5,1.6,2.9,1.8,4.1C145.6,35.1,145.8,35.3,146.1,35.4z M136.4,31.8c-0.6,0-0.9,0-1.1-0.1
	c-0.2-0.1-0.3-0.3-0.4-0.6c0-0.2-0.1-0.7,0-1.6c0-0.4,0-0.7,0-0.9c0-0.2,0-0.4,0-0.8c0-0.8,0-1.3,0-1.5c0.1-0.3,0.2-0.5,0.4-0.6
	c0.1,0,0.5-0.1,1-0.1c0.2,0,0.4,0,0.6,0s0.3,0,0.6,0c0.6,0,0.9,0,1.1,0.1c0.2,0.1,0.3,0.2,0.4,0.6c0,0.2,0.1,0.7,0.1,1.5
	c0,0.3,0,0.6,0,0.7c0,1.4,0,2.2,0,2.5c0,0.3-0.1,0.4-0.2,0.5c-0.1,0.1-0.2,0.1-0.4,0.1c-0.1,0-0.6,0-1.4,0
	C136.8,31.8,136.7,31.8,136.4,31.8z M166.1,42.9c0.2,0.2,0.6,0.2,1.1,0c0.6-0.2,0.9-0.4,0.9-0.6c0-0.2,0.1-0.3,0.2-0.4
	c0.1-0.1,0.5-0.1,1-0.1c0.4,0,1.3,0,2.8,0c0.1,0,0.2,0,0.4,0c1.3,0,2.1,0,2.4,0c0.5,0,0.8,0.1,0.9,0.2c0.1,0.1,0.1,0.2,0.1,0.5
	c0,0,0,0.1,0,0.1c0,0.2,0.1,0.4,0.3,0.4c0.2,0,0.6,0,1-0.2c0.4-0.1,0.7-0.3,0.7-0.4c0.1-0.1,0.1-0.5,0.1-1.2c0,0,0-0.1,0-0.1
	c0-1.6,0-2.6,0-3c0-0.4,0.1-0.6,0.3-0.7c0.3-0.1,0.2-0.4-0.3-0.8c-0.4-0.3-0.5-0.5-0.6-0.7c0-0.1,0.2-0.3,0.5-0.5c0,0,0,0,0.1,0
	c0.2-0.1,0.3-0.2,0.3-0.3s0-0.5,0-1.2c0-0.1,0-0.2,0-0.2c0-1,0.1-1.6,0.1-1.7c0.1-0.2,0.3-0.2,0.6,0c0.1,0.1,0.2,0.1,0.2,0.1
	c0,0,0.1-0.1,0.2-0.3c0.1-0.3,0.3-0.5,0.6-0.8c0.2-0.3,0.5-0.4,0.7-0.5c0.2-0.1,0.3-0.2,0.2-0.3c0-0.1-0.3-0.1-0.7-0.2
	c-1-0.2-1.9-0.4-2.6-0.7c-0.7-0.3-1.2-0.6-1.4-0.8c-0.2-0.3-0.1-0.5,0.3-0.7c0.3-0.1,0.4-0.2,0.4-0.3c0-0.1-0.2-0.2-0.5-0.5
	c-0.6-0.4-0.9-0.7-0.9-0.8c0-0.2,0.2-0.2,0.7-0.3c0.7,0,1,0.2,1,0.6c0,0.2,0.1,0.3,0.2,0.3c0.2,0,0.4,0,0.9-0.1
	c0.5-0.2,0.9-0.3,1-0.5c0.1-0.2,0.1-0.6,0.1-1.2c0-0.8,0-1.3,0-1.5c0-0.2,0.2-0.4,0.5-0.6c0.3-0.2,0.4-0.3,0.4-0.4
	c0-0.1-0.3-0.4-0.8-0.8c-0.5-0.4-0.8-0.7-1.1-0.9c-0.1-0.1-0.3-0.1-0.4,0c-0.1,0.1-0.3,0.2-0.5,0.6c0,0-0.1,0.1-0.1,0.2
	c-0.1,0.2-0.3,0.3-0.4,0.4c-0.2,0.1-0.7,0.1-1.3,0.1c-0.5,0-1.6,0-3.5,0c-0.7,0-1.3,0-1.7,0c-3.1,0-4.9,0-5.5-0.1
	c-0.6,0-1.1-0.2-1.7-0.4c-0.7-0.3-1.1-0.4-1.2-0.5c-0.1,0-0.2-0.1-0.2,0c0,0,0,0.2,0,0.4c0.1,0.8,0.2,2.7,0.1,5.5
	c0,2.8,0,4.9-0.1,6.3c-0.3,3.5-0.9,6.4-2,8.8c-0.2,0.5-0.3,0.7-0.1,0.7c0.1,0,0.4-0.2,0.7-0.6c0.4-0.4,0.7-0.9,1.1-1.5
	c1.2-1.9,2-4.4,2.4-7.5c0.1-0.5,0.1-0.8,0.2-0.9c0.1-0.2,0.2-0.3,0.5-0.4c0.3-0.2,0.5-0.2,0.6-0.2c0.1,0,0.2,0.3,0.3,0.6
	c0,0.3,0,0.9,0,1.8c0,1.1,0,1.7,0,1.8c0,0.2,0.1,0.3,0.1,0.3c0.2,0,0.4,0.4,0.4,1.1c0.1,0.7,0,2-0.1,3.7c0,0.8-0.1,1.3-0.1,1.5
	C166,42.7,166,42.8,166.1,42.9z M175.6,41c-0.1,0.1-1.3,0.1-3.6,0.1c-2.3,0-3.5-0.1-3.6-0.1c-0.2-0.1-0.3-0.3-0.3-0.6
	c0-0.3,0.1-0.5,0.2-0.7c0.1-0.1,1.3-0.1,3.6-0.1c2.3,0,3.5,0,3.7,0.1c0.2,0.1,0.3,0.4,0.3,0.7C175.9,40.7,175.8,40.9,175.6,41z
	 M172,38.8c-2.3,0-3.5,0-3.6,0c-0.2-0.1-0.3-0.3-0.4-0.6c0-0.4,0.1-0.6,0.3-0.7c0.1-0.1,1.3-0.1,3.6-0.1c2.3,0,3.5,0,3.6,0.1
	c0.2,0.1,0.3,0.3,0.3,0.7c0,0.3-0.1,0.6-0.3,0.7C175.5,38.8,174.3,38.8,172,38.8z M172,36.6c-2.3,0-3.5,0-3.8-0.1
	c-0.5-0.1-0.8-0.3-1-0.6c-0.1-0.3,0-0.5,0.4-0.7c0.2-0.1,1.6-0.1,4.3-0.1c2.7,0,4.1,0.1,4.2,0.1c0.2,0.1,0.2,0.3,0.1,0.6
	c-0.1,0.3-0.4,0.5-0.7,0.6C175.5,36.6,174.2,36.6,172,36.6z M170.9,34.4c-0.2,0.2-0.5,0.2-1.1,0c-0.1,0-0.3,0-0.5,0
	c-0.2,0-0.4,0.1-0.8,0.1c-0.4,0-0.6,0-0.7-0.1c-0.2-0.1-0.3-0.2-0.3-0.4c0-0.2,0-0.6,0-1.4c0-0.1,0-0.2,0-0.4c0-0.7,0.1-1.2,0.2-1.3
	c0.1-0.1,0.6-0.2,1.3-0.2c0.2,0,0.3,0,0.4,0c0.1,0,0.2,0,0.3,0c0.8,0,1.2,0.1,1.3,0.2c0.1,0.1,0.2,0.6,0.2,1.4c0,0.2,0,0.3,0,0.4
	C171.1,33.7,171,34.2,170.9,34.4z M175.2,34.5c-0.5,0-0.8,0-0.9,0c0,0-0.2,0-0.6,0c-0.3,0-0.6,0-0.6-0.1c-0.1-0.1-0.2-0.2-0.2-0.5
	c0-0.2,0-0.6,0-1.3c0-0.9,0-1.4,0.1-1.6c0.1-0.2,0.3-0.3,0.7-0.2c0.3,0,0.4,0.1,0.5,0.1c0.1,0.1,0.1,0.2,0.1,0.4
	c-0.1,0.7-0.2,1.3-0.4,2c-0.1,0.5-0.1,0.7,0,0.7s0.5-0.3,1-0.9c0.4-0.4,0.7-0.7,0.9-0.8c0.1-0.1,0.3-0.2,0.4-0.1
	c0.3,0,0.4,0.4,0.4,1c0,0.6-0.1,1-0.4,1.1C176.1,34.5,175.7,34.5,175.2,34.5z M169.6,34.2c0,0,0.1-0.1,0.3-0.2
	c0.3-0.2,0.5-0.5,0.5-0.9c0-0.3-0.2-0.7-0.5-1c-0.3-0.3-0.6-0.5-0.8-0.7c-0.3-0.2-0.5-0.2-0.6-0.2c-0.1,0-0.1,0.2,0,0.4
	c0.3,0.6,0.4,1.1,0.5,1.5c0,0,0,0.1,0,0.1c0,0.2,0,0.4,0.1,0.5c0,0,0.1,0.1,0.3,0.2C169.4,34.1,169.5,34.2,169.6,34.2z M176.3,31.5
	c-0.1,0.1-0.3,0.1-0.5,0c-0.3-0.1-0.5-0.2-0.6-0.4c-0.1-0.2,0-0.3,0.3-0.3c0.4-0.1,0.6,0,0.7,0.1c0.1,0.1,0.1,0.2,0.1,0.3
	C176.4,31.3,176.4,31.4,176.3,31.5z M164.6,30.7c-0.2,0.1-0.3,0.1-0.3,0.1c-0.1,0-0.1-0.2-0.1-0.6c0-0.3,0-0.8,0-1.8
	c0-0.2,0-0.5,0-0.9c0-0.7,0-1.1,0.1-1.2c0.1-0.2,0.4-0.4,0.9-0.5c0.4,0,1.2,0,2.6,0c0.8,0,1.4,0,1.9,0c0.2,0,0.4,0,0.8,0
	c1.9,0,3.1,0,3.6,0c0.7,0,1.1,0.1,1.1,0.2c0.1,0.1,0,0.3-0.3,0.6c0,0.1-0.1,0.1-0.1,0.1c-0.1,0.2-0.7,0.3-1.8,0.3c-1,0-2,0-2.8-0.2
	c-0.1,0-0.2,0-0.2,0.1c0,0.1,0.1,0.2,0.2,0.5c0,0,0,0.1,0.1,0.1c0.1,0.2,0.2,0.3,0.3,0.4c0.1,0,0.3,0,0.6,0c0.1,0,0.2,0,0.2,0
	c1.1-0.2,2-0.2,2.7-0.2c0.7,0,1.1,0.2,1.3,0.5c0,0,0.1,0.2,0.2,0.4c0.1,0.2,0.2,0.3,0.3,0.4c0.2,0.4,0.3,0.6,0.4,0.7
	c0,0.1-0.1,0.3-0.2,0.3c-0.1,0.1-1.5,0.1-4,0.1c-2.5,0-3.8,0-3.9-0.1c-0.3-0.1-0.2-0.3,0-0.6c0.9-0.8,1.4-1.2,1.5-1.2
	c0.3,0,0.4-0.1,0.2-0.2c-0.1-0.1-0.4-0.4-1-0.7c-0.7-0.4-1.1-0.6-1.2-0.7c-0.1,0-0.2,0-0.3,0.2c-0.2,0.5-0.6,1.3-1.3,2.3
	C165.4,30,164.9,30.5,164.6,30.7z M170.7,25.2c-4,0-6.1,0-6.3-0.1c-0.2-0.1-0.3-0.5-0.4-1.1c0-0.6,0.1-1,0.3-1.2
	c0.1-0.1,2.2-0.1,6.3-0.1c4.1,0,6.2,0,6.4,0.1c0.2,0.1,0.3,0.5,0.3,1.2c0,0.6-0.1,1-0.4,1.1C176.9,25.1,174.8,25.2,170.7,25.2z
	 M191.2,42.9c0.2,0.1,0.4,0.1,0.8,0c0.4-0.1,0.7-0.2,1-0.4c0.2-0.1,0.3-0.2,0.3-0.3c0-0.1,0-0.4,0-1c-0.1-1.6-0.1-3.4-0.1-5.7
	c0-2.2,0-3.4,0.1-3.5c0.2-0.4,0.5-0.5,0.8-0.4c0.3,0.1,0.5,0.3,0.6,0.7c0,0.3,0.1,0.5,0.1,0.6c0,0.1,0.1,0.1,0.3,0.2
	c0.4,0.2,0.7,0.2,1,0c0.3-0.2,0.5-0.6,0.5-1.1c0-0.5-0.2-1.1-0.6-1.6c-0.4-0.5-1-1-1.7-1.5c-0.3-0.2-0.5-0.3-0.6-0.2
	c-0.1,0.1,0,0.3,0.2,0.6c0.3,0.7,0.4,1.1,0.3,1.3c-0.1,0.2-0.6,0.3-1.5,0.3c-0.7,0-1,0-1.1-0.1c-0.1-0.1,0-0.4,0.4-0.9
	c0.9-1.2,1.9-2.5,2.9-4c0.3-0.4,0.5-0.7,0.6-0.8c0.1-0.1,0.3-0.2,0.4-0.3c0.3-0.1,0.3-0.2,0-0.4c-0.3-0.2-0.9-0.5-1.9-1
	c-0.3-0.1-0.4-0.2-0.5-0.1c0,0-0.1,0.2-0.2,0.4c-0.3,1.3-1.1,3.3-2.4,6c-0.3,0.6-0.5,1-0.7,1.1c-0.2,0.1-0.6,0.2-1.3,0.2
	c0,0-0.1,0-0.1,0c-0.1,0-0.2,0-0.3,0c-0.4,0-0.6,0.1-0.7,0.1c0,0.1,0,0.3,0.1,0.6c0,0.1,0.1,0.2,0.1,0.3c0,0,0,0.1,0,0.1
	c0.2,0.6,0.3,0.9,0.4,1c0.1,0.1,0.2,0,0.4-0.2c0.2-0.2,0.6-0.4,1.3-0.5c0.5-0.1,0.8-0.1,0.9,0c0.1,0.1,0.2,0.4,0.2,0.9
	c0,0.7-0.1,1.1-0.2,1.2c-0.1,0.1-0.6,0.1-1.4-0.1c-0.1,0-0.2,0-0.3-0.1c-0.4-0.1-0.7-0.1-0.7-0.1c-0.1,0-0.1,0.2-0.1,0.5
	c0,0.1,0,0.2,0,0.2c0,1.7-0.2,3.4-0.7,5.1c-0.1,0.3-0.1,0.5-0.1,0.5c0,0.1,0,0.1,0.1,0.1c0.2,0.1,0.5-0.3,1.1-1.2
	c0.5-0.9,1-1.9,1.3-3c0.2-0.5,0.3-0.8,0.4-1c0.1-0.2,0.3-0.2,0.4-0.1c0.3,0.2,0.3,2.1,0.1,5.9c0,0.5,0,0.8,0,1
	C191,42.7,191,42.8,191.2,42.9z M197.1,42.8c0,0,0.1,0.1,0.1,0c0.1,0,0.2-0.1,0.5-0.2l0.1,0c1.6-0.7,3.1-1.6,4.5-2.7
	c0.4-0.4,0.7-0.5,0.9-0.6c0.2,0,0.4,0.2,0.7,0.5c0.8,0.9,1.7,1.7,2.8,2.4c0.4,0.3,0.7,0.4,0.7,0.4c0.1,0,0.2-0.1,0.3-0.3
	c0.1-0.3,0.3-0.5,0.6-0.8c0.3-0.3,0.6-0.4,0.8-0.5c0.4-0.1,0.4-0.3-0.1-0.5c-1.6-0.6-2.9-1.4-3.9-2.3c-0.3-0.3-0.5-0.5-0.5-0.6
	c0-0.2,0.1-0.5,0.4-0.9c1-1.4,1.8-3.2,2.4-5.2c0.2-0.6,0.3-0.9,0.4-1.1c0.1-0.2,0.2-0.3,0.4-0.3c0.3-0.1,0.4-0.2,0.3-0.5
	c-0.1-0.2-0.4-0.6-0.9-1c-0.4-0.4-0.7-0.6-0.9-0.6c-0.1,0-0.3,0.1-0.6,0.4c-0.4,0.4-0.6,0.5-0.8,0.5s-0.2-0.2-0.3-0.5
	c0-0.3,0.1-1.2,0.2-2.7c0,0,0,0,0-0.1c0.1-1.3,0.2-2.1,0.3-2.3c0.1-0.3,0.2-0.4,0.5-0.6c0.2-0.1,0.3-0.3,0.1-0.5
	c-0.1-0.2-0.5-0.6-1-1c-0.4-0.3-0.6-0.5-0.7-0.5c-0.1,0-0.3,0.1-0.5,0.4c0,0.1-0.1,0.1-0.2,0.2c-0.2,0.3-0.4,0.4-0.7,0.5
	c-0.3,0-1.1,0.1-2.4,0c-0.5,0-0.9,0-1.2,0c-2.4,0-3.7,0-3.8,0c-0.2,0-0.3,0-0.3,0c0,0,0.1,0.2,0.2,0.5c0.1,0.3,0.2,0.4,0.3,0.5
	c0.1,0,0.2,0,0.3,0c0.3-0.1,0.5-0.2,0.8-0.2c0.3,0,0.5,0.1,0.6,0.2c0.2,0.2,0.2,1.8,0.1,4.7c-0.1,2.9-0.3,5.1-0.6,6.8
	c-0.2,1.3-0.4,2.1-0.6,2.4c-0.2,0.3-0.3,0.2-0.6-0.4c-0.4-0.9-1-1.6-1.9-2.2c-0.4-0.3-0.6-0.3-0.6-0.2c0,0.1,0,0.4,0.2,0.9
	c0.4,1.3,0.6,2.3,0.6,3c0,0.2,0.1,0.4,0.4,0.5c0.3,0.1,0.5,0.1,0.7,0c0.4-0.2,0.6,0,0.4,0.6c-0.2,0.6-0.6,1.5-1.2,2.6
	c-0.2,0.3-0.3,0.5-0.3,0.6c0,0.1,0,0.1,0.1,0.2c0.1,0.1,0.2,0.1,0.2,0c0.1,0,0.2-0.2,0.4-0.4c1.1-1.2,2-2.6,2.7-4.1
	c0.7-1.5,1.2-3.3,1.6-5.4c0.2-1,0.3-1.6,0.5-1.7c0.1-0.1,0.3,0.2,0.4,0.9c0.4,1.8,0.9,3.5,1.6,5c0.2,0.4,0.3,0.8,0.3,1
	c0,0.2-0.2,0.5-0.5,0.9c-1.2,1.4-2.6,2.6-4.2,3.5c-0.2,0.1-0.4,0.2-0.4,0.3S197,42.7,197.1,42.8L197.1,42.8z M203.6,36
	c-0.3,0.3-0.8-0.1-1.4-1.1c-0.6-1-1.1-2.3-1.5-3.8c0,0,0,0,0-0.1c-0.1-0.4-0.1-0.6-0.1-0.7c0-0.1,0.2-0.2,0.6-0.2c0.2,0,0.8,0,1.7,0
	c0.1,0,0.1,0,0.2,0c0.9,0,1.5,0,1.8,0c0.4,0,0.6,0.1,0.6,0.1c0.1,0.1,0.1,0.2,0.1,0.4c0,0.4-0.3,1.4-0.8,2.8
	C204.2,34.9,203.8,35.7,203.6,36z M201.6,29.4c-0.7,0-1.1,0-1.2,0c-0.2-0.1-0.3-0.2-0.4-0.4c0-0.2,0-0.6,0-1.2c0-1.1,0.1-2,0.1-2.7
	c0-0.1,0-0.2,0-0.4c0-0.6,0-1,0.1-1.2c0.1-0.2,0.2-0.4,0.4-0.5c0.1,0,0.5,0,1.1,0c0.1,0,0.3,0,0.3,0c0.1,0,0.3,0,0.5,0
	c0.5,0,0.8,0,1,0.1c0.2,0.1,0.3,0.3,0.3,0.6c0,0.2,0,0.8-0.1,1.7c0,0.4-0.1,0.7-0.1,0.9c0,0.1,0,0.2,0,0.3c-0.1,1.3-0.2,2.1-0.3,2.4
	c0,0.2-0.2,0.4-0.3,0.4C202.7,29.4,202.3,29.4,201.6,29.4z M189.7,28.4c0.4,0.2,0.7,0.2,0.9-0.1c0.2-0.2,0.4-0.5,0.4-0.9
	c0-0.4-0.1-0.8-0.4-1.1c-0.2-0.3-0.3-0.5-0.3-0.6c0-0.2,0.3-0.5,0.7-1c0.4-0.5,0.7-0.9,0.9-1.2c0.7-0.9,1.1-1.4,1.3-1.5
	c0.3-0.1,0.3-0.2,0.2-0.4c-0.1-0.1-0.6-0.3-1.2-0.6c-0.8-0.3-1.2-0.5-1.3-0.5c-0.1,0-0.2,0.1-0.2,0.3c-0.1,0.7-0.2,1.6-0.5,2.5
	c-0.2,0.9-0.4,1.5-0.6,1.6c-0.1,0.2-0.4,0.2-0.8,0c-0.6-0.2-0.9-0.3-1.1-0.3c-0.1,0-0.1,0.2,0.2,0.5c0.7,0.8,1.1,1.6,1.4,2.4
	c0.1,0.3,0.1,0.4,0.2,0.5C189.5,28.2,189.5,28.3,189.7,28.4z M225,42.9c0.2,0.1,0.6,0.1,1,0c0.5-0.1,0.9-0.3,1.2-0.6l0,0
	c0.1-0.1,0.1-0.2,0.1-0.3c0-0.2,0-0.7,0-1.6c0-0.5,0-0.8,0-1.1c0-1,0-2.1,0-3.3c0-1.2,0-1.8,0.1-1.9c0.1-0.1,0.2-0.2,0.5-0.2
	c0.2,0,1,0,2.4,0c0.1,0,0.3,0,0.5,0c0.9,0,1.5,0,1.7,0c0.3,0,0.5,0.1,0.6,0.2c0,0.1,0.1,0.3,0,0.6c0,0.1,0,0.1,0,0.2
	c0,0.5,0,0.7,0.1,0.8c0.1,0.1,0.4,0.1,0.9,0c0.7-0.1,1.1-0.3,1.2-0.5c0.1-0.2,0.2-0.7,0.1-1.6c-0.1-2.6-0.1-4.4-0.1-5.2
	c0-0.8,0.2-1.3,0.4-1.4c0,0,0,0,0.1,0c0.3-0.2,0.4-0.3,0.4-0.4c0-0.1-0.3-0.5-1-1c-0.7-0.5-1.1-0.8-1.3-0.8c-0.1,0-0.3,0.2-0.7,0.7
	c0,0,0,0.1-0.1,0.1c-0.2,0.2-0.4,0.4-0.6,0.4c-0.2,0-0.8,0-1.9,0c-0.2,0-0.4,0-0.6,0c-0.2,0-0.5,0-0.8,0c-0.8,0-1.3,0-1.5,0
	c-0.3,0-0.5-0.2-0.6-0.4c0-0.1-0.1-0.5,0-1c0-0.2,0-0.4,0-0.5c0-0.8,0-1.4,0-1.5c0-0.2,0.1-0.3,0.3-0.5c0.2-0.2,0.2-0.4-0.1-0.5
	c-0.2-0.1-0.9-0.4-2-0.6c-0.4-0.1-0.7-0.2-0.8-0.1c-0.1,0-0.1,0.1-0.1,0.3c0.1,0.7,0.2,1.6,0.2,2.7c0,1.1,0,1.7,0,1.9l0,0
	c-0.1,0.1-0.2,0.2-0.5,0.3c-0.2,0-1,0-2.4,0c-0.2,0-0.4,0-0.7,0c-1,0-1.6,0-1.8,0c-0.3,0-0.7-0.2-1.2-0.4c-0.2-0.1-0.3-0.1-0.4-0.2
	c-0.1,0-0.1-0.1-0.2-0.1c-0.5-0.2-0.8-0.3-0.8-0.3c-0.1,0-0.1,0.2,0,0.5c0,0.1,0,0.1,0,0.1c0.1,1.1,0.2,2.6,0.2,4.5
	c0,1.8,0,3.5-0.1,4.9c0,0.5,0,0.9,0.1,1c0.1,0.1,0.4,0.1,0.9,0c0.5-0.1,0.9-0.3,1.1-0.4c0.2-0.2,0.3-0.5,0.3-0.8c0,0,0-0.1,0-0.2
	c0-0.3,0-0.5,0.1-0.6c0.1-0.1,0.3-0.2,0.6-0.2c0.2,0,0.8,0,1.7,0c0.2,0,0.4,0,0.6,0c1.3,0,2.1,0,2.4,0c0.2,0,0.4,0.1,0.5,0.3
	c0.1,0.1,0.1,1.1,0.1,2.7c0,1.7-0.1,3.2-0.1,4.5c0,0.7-0.1,1.2,0,1.3C224.8,42.7,224.9,42.8,225,42.9z M222,33c-1.6,0-2.5,0-2.6-0.1
	c-0.1-0.1-0.2-0.2-0.3-0.5c0-0.3,0-1.2,0-2.6c0-0.3,0-0.6,0-1c0-0.8,0-1.3,0-1.6c0.1-0.3,0.2-0.5,0.5-0.6c0.2,0,0.7-0.1,1.4,0
	c0.4,0,0.7,0,0.9,0c0.2,0,0.6,0,0.9,0c0.7,0,1.2,0,1.4,0c0.3,0.1,0.4,0.3,0.5,0.6c0,0.2,0.1,0.7,0,1.6c0,0.4,0,0.8,0,1
	c0,1.5,0,2.3,0,2.6c0,0.3-0.1,0.4-0.3,0.5C224.5,32.9,223.6,33,222,33z M232.7,32.9c-0.1,0.1-1,0.1-2.6,0.1c-1.6,0-2.4,0-2.6-0.1
	c-0.2-0.1-0.3-0.2-0.3-0.5c0-0.3,0-1.1,0-2.6c0-0.3,0-0.6,0-1c0-0.8,0-1.3,0-1.6c0.1-0.3,0.2-0.5,0.5-0.6c0.2,0,0.7-0.1,1.4,0
	c0.4,0,0.7,0,0.9,0c0.2,0,0.6,0,0.9,0c0.8,0,1.2,0,1.4,0c0.3,0.1,0.4,0.3,0.5,0.6c0,0.2,0.1,0.7,0,1.6c0,0.4,0,0.8,0,1
	c0,1.5,0,2.4,0,2.6C233,32.6,232.9,32.8,232.7,32.9z M252.2,34.7c0.1,0.2,0.2,0.3,0.4,0.3c0.2,0,0.5-0.2,0.9-0.6
	c0.9-0.7,1.6-1.6,2-2.8c0.4-1.1,0.4-2.1,0.1-2.9c-0.3-0.9-0.9-1.3-1.8-1.2c-0.6,0-1,0.3-1.3,0.7c-0.2,0.4-0.3,0.9-0.1,1.4
	c0.2,0.5,0.5,1,1.1,1.3c0.3,0.2,0.5,0.3,0.6,0.5c0.1,0.1,0.1,0.2,0.1,0.4c-0.1,0.4-0.3,0.8-0.6,1.3c-0.4,0.5-0.8,0.8-1.2,1.2
	c-0.2,0.1-0.3,0.2-0.3,0.3C252.1,34.4,252.1,34.5,252.2,34.7z M278.6,42.8c0.1,0.1,0.3,0,0.6-0.2c1.1-0.9,2.1-2,2.8-3.5
	c0.3-0.5,0.5-0.8,0.6-0.8c0.1,0,0.3,0.2,0.6,0.7c0.5,1.1,1.1,1.9,1.9,2.4c0.8,0.5,1.8,0.8,3.1,0.9c0.5,0,1.3,0,2.2,0s1.4,0,1.4,0
	c0,0,0.1-0.2,0.1-0.5c0.1-0.6,0.3-1,0.6-1.1c0.2-0.2,0.4-0.3,0.4-0.3c0,0-0.2-0.1-0.6-0.1c-0.3,0-0.9,0-2,0c-0.2,0-0.5,0-0.9,0
	c-0.8,0-1.3,0-1.5-0.1c-0.3-0.1-0.5-0.2-0.6-0.5c0-0.2-0.1-0.7,0-1.4c0-0.4,0-0.6,0-0.8s0-0.5,0-0.8c0-0.7,0-1.2,0-1.4
	c0-0.3,0.2-0.4,0.4-0.5c0.2,0,0.6-0.1,1.2-0.1c0.3,0,0.6,0,0.8,0c1.1,0,1.8,0,2,0c0.2,0,0.3-0.1,0.4-0.2c0.1-0.1,0-0.2,0-0.3
	c-0.1-0.1-0.3-0.4-0.6-0.7c-0.6-0.6-1-0.9-1.2-0.9c-0.2,0-0.4,0.2-0.7,0.6c-0.3,0.4-0.5,0.7-0.6,0.8c-0.2,0.1-0.4,0.1-0.7,0.1
	c-0.3,0-0.5,0-0.6-0.1c-0.1-0.1-0.2-0.3-0.2-0.6c0-0.3,0-0.9,0-1.8c0,0,0-0.1,0-0.2c0-0.9,0-1.4,0-1.7c0-0.3,0.1-0.5,0.3-0.6
	c0.1-0.1,0.3-0.1,0.7-0.1c0,0,0.1,0,0.1,0c0.5,0,0.8,0.1,0.9,0.3c0.1,0.2,0,0.7-0.3,1.5c-0.2,0.6-0.3,1-0.3,1.1
	c0,0.1,0.2,0.1,0.5-0.1c0.2-0.2,0.7-0.7,1.5-1.4c0.7-0.6,1.1-1,1.3-1c0.4,0,0.5-0.2,0.3-0.5c-0.2-0.4-0.6-0.8-1.2-1.3
	c-0.3-0.2-0.4-0.3-0.5-0.3c-0.1,0-0.3,0.2-0.6,0.5c0,0-0.1,0.1-0.1,0.1c-0.2,0.2-0.5,0.4-0.7,0.4c-0.2,0-1,0-2.2,0
	c-0.3,0-0.5,0-0.6,0c-1.7,0-2.8,0-3.3,0c-0.7,0-1-0.1-1.1-0.3c0-0.1,0.1-0.4,0.5-0.8c0.1-0.1,0.2-0.3,0.4-0.6
	c0.1-0.1,0.1-0.2,0.2-0.2c0.3-0.4,0.5-0.7,0.7-0.7c0.1,0,1.4-0.1,4-0.1c0.2,0,0.3,0,0.4,0c2.2,0,3.4,0,3.8,0c0.4,0,0.6-0.1,0.7-0.2
	c0.1-0.1,0-0.4-0.4-0.8c-0.3-0.4-0.8-0.8-1.3-1.2c-0.3-0.2-0.4-0.2-0.6-0.2c-0.1,0-0.3,0.3-0.6,0.8c0,0,0,0.1-0.1,0.1
	c-0.3,0.4-0.5,0.6-0.7,0.7c-0.2,0.1-0.8,0.1-1.9,0.1c-0.1,0-0.3,0-0.3,0c-0.1,0-0.2,0-0.4,0c-0.8,0-1.3,0-1.5,0
	c-0.3,0-0.4-0.2-0.4-0.3c0-0.1,0.1-0.4,0.3-0.8c0-0.1,0.1-0.1,0.1-0.2c0.1-0.1,0.1-0.3,0.2-0.5l0.1-0.3c0-0.1,0.1-0.2,0.2-0.3
	c0.1-0.2,0.3-0.3,0.4-0.3c0.3-0.1,0.3-0.3,0-0.4c-0.2-0.2-0.8-0.4-1.8-0.7c-0.5-0.2-0.8-0.3-0.9-0.3c-0.1,0-0.1,0.1-0.1,0.3
	c0,0.5-0.1,1.2-0.4,2.4c-0.3,1.1-0.5,1.8-0.6,2c-0.1,0.2-0.3,0.3-0.4,0.2c-0.2-0.1-0.5-0.4-1.1-0.9c0,0-0.1-0.1-0.2-0.2
	c-0.4-0.3-0.6-0.5-0.7-0.5c-0.1,0-0.2,0.1-0.4,0.4c0,0.1-0.1,0.1-0.1,0.2c-0.7,1.1-1.3,1.3-1.7,0.8c-0.1-0.2-0.2-0.8-0.1-1.7
	c0.1-0.9,0.2-1.4,0.3-1.6c0.2-0.2,0.2-0.3,0-0.5c-0.2-0.1-0.8-0.3-1.8-0.6c0,0-0.1,0-0.1,0c-0.4-0.1-0.6-0.2-0.7-0.1
	c0,0-0.1,0.2,0,0.5c0,0,0,0.1,0,0.1c0.1,0.8,0.2,1.6,0.2,2.4c0,0.8,0,1.3-0.1,1.4c-0.2,0.3-1.1,0.4-2.8,0.2c-0.5,0-0.7-0.1-0.8-0.1
	c-0.1,0-0.1,0.2,0.1,0.6c0.1,0.2,0.2,0.4,0.2,0.4c0.1,0,0.2,0,0.5-0.1c0,0,0.1,0,0.1,0c0.6-0.2,0.9-0.2,1.1-0.2
	c0.2,0,0.4,0.2,0.5,0.6c0.1,0.3,0.1,0.9,0.1,1.8c0,3.3-0.2,6-0.6,8.1c-0.4,2.1-1.1,4-2,5.5c-0.1,0.2-0.2,0.4-0.2,0.5
	c0,0.1,0,0.2,0.1,0.2c0.1,0.1,0.1,0.1,0.2,0.1c0.1,0,0.3-0.2,0.7-0.7c0.4-0.5,0.7-0.9,1-1.2c0.4-0.6,0.7-0.9,0.8-0.7
	c0,0,0.2,0.1,0.6,0.2c0.4,0.1,0.7,0.3,0.9,0.5c0.2,0.2,0.3,0.6,0.4,1c0,0.3,0.1,0.4,0.2,0.4c0.1,0,0.4,0,0.8-0.1
	c0.8-0.2,1.3-0.6,1.7-1.2c0.4-0.7,0.8-1.7,1-3.1c0.2-1.3,0.4-3.3,0.5-5.8c0-0.6,0.1-1,0.1-1.2s0.2-0.3,0.5-0.4
	c0.2-0.1,0.3-0.2,0.3-0.3c0-0.1-0.1-0.2-0.3-0.5c-0.1-0.1-0.3-0.3-0.4-0.5c-0.1-0.1-0.2-0.2-0.5-0.4c-0.1-0.1-0.3-0.2-0.6-0.3
	c-0.2-0.1-0.3-0.1-0.4-0.1c-0.1,0-0.2,0.2-0.5,0.5c-0.3,0.3-0.5,0.5-0.6,0.6c-0.1,0.1-0.4,0.1-0.7,0.1c-0.5,0-0.7-0.1-0.8-0.2
	c-0.1-0.1-0.1-0.6-0.1-1.3c0-0.1,0-0.3,0-0.5c0-0.6,0-1,0.1-1.1c0.1-0.2,0.3-0.4,0.6-0.4c0.2,0,0.7,0,1.5,0c0.2,0,0.4,0,0.6,0
	c1.1,0,1.8,0,2.1,0.1c0.4,0.1,0.5,0.3,0.4,0.6c0,0.2-0.3,0.7-0.8,1.5c-0.2,0.3-0.3,0.4-0.3,0.5c0,0.1,0,0.1,0,0.2c0.1,0,0.2,0,0.2,0
	c0.1,0,0.2-0.1,0.4-0.3c0.2-0.2,0.4-0.2,0.6-0.2c0.2,0,0.3,0.2,0.4,0.4c0.1,0.2,0.2,0.2,0.2,0.3c0.1,0,0.3,0,0.6-0.1
	c1.6-0.3,2.5-0.3,2.7,0.1c0,0.1,0.1,1.6,0.1,4.5c0,2.9,0,4.6,0,4.9c0,0.4-0.2,0.5-0.5,0.5c-0.3-0.1-0.6-0.4-1-1
	c-0.4-0.5-0.6-0.9-0.6-1.2s0-0.8,0.1-1.4c0.1-0.3,0.2-0.9,0.3-1.6c0.1-0.5,0.1-0.8,0.2-1c0.1-0.2,0.2-0.3,0.3-0.4
	c0.4-0.3-0.2-0.5-1.9-0.6c-0.3,0-0.5,0-0.6,0c0,0-0.1,0.2-0.1,0.6c0,2.2-0.2,4-0.6,5.4c-0.4,1.4-1,2.8-1.9,4.1
	C278.6,42.5,278.6,42.8,278.6,42.8z M275.6,40c-0.4,0-0.6,0-0.7,0l-0.3,0c-0.1,0-0.3,0-0.3,0c-0.4,0-0.6-0.1-0.6-0.2
	c0-0.1,0.1-0.5,0.4-1.2c0.8-1.7,1.3-4,1.6-6.7c0.1-0.7,0.2-1.1,0.3-1.2c0.1-0.1,0.4-0.2,0.9-0.2c0.4,0,0.7,0,0.8,0.1
	c0.1,0.1,0.2,0.4,0.2,0.9c0,0.3,0,1.1-0.1,2.4c-0.1,2.1-0.3,3.5-0.5,4.4c-0.2,0.9-0.5,1.4-0.9,1.6C276.2,39.9,276,40,275.6,40z
	 M314.3,43c0,0.1,0.3,0.1,0.8,0c0.5-0.1,0.9-0.3,1.2-0.4c0.3-0.2,0.5-0.5,0.6-0.8c0.1-0.3,0.1-1.1,0.2-2.3c0-0.1,0-0.3,0-0.5
	c0-0.7,0-1.2,0.1-1.4c0-0.3,0.2-0.4,0.4-0.5c0.1,0,0.5-0.1,1-0.1c0.2,0,0.3,0,0.4,0c1,0,1.5,0,1.6-0.1c0.1-0.1-0.1-0.4-0.6-1
	c-0.4-0.4-0.6-0.7-0.6-0.8c0-0.1,0-0.3,0.2-0.4c0.3-0.3,0.4-0.6,0.3-1.1c-0.1-0.5-0.5-0.9-1-1.2c-0.3-0.2-0.5-0.4-0.5-0.5
	c0-0.1,0.1-0.3,0.3-0.4c0,0,0.1,0,0.1-0.1c0.2-0.1,0.3-0.2,0.3-0.4c0-0.2,0-0.6,0-1.5c0-0.2,0-0.4,0-0.5c0-1.2,0-2,0.1-2.3
	c0-0.3,0.2-0.5,0.4-0.6c0.2-0.1,0.2-0.2,0.2-0.3c0-0.1-0.2-0.4-0.6-0.7c-0.5-0.5-0.9-0.7-1.1-0.8c-0.2-0.1-0.4,0-0.6,0.3
	c-0.3,0.4-0.5,0.6-0.6,0.7c-0.1,0.1-0.4,0.1-0.9,0.1c-0.4,0-0.7-0.1-0.8-0.2c-0.1-0.1-0.2-0.3-0.2-0.7c0-0.3,0.1-0.5,0.1-0.5
	c0.1-0.1,0.3-0.2,0.7-0.2c0.3,0,0.9,0,1.8,0c1.7,0,2.6-0.1,2.7-0.3s-0.3-0.7-1.4-1.5c-0.3-0.2-0.5-0.3-0.6-0.3
	c-0.1,0-0.3,0.3-0.6,0.7c-0.6,0.8-1.3,1-2.2,0.8c-0.3-0.1-0.4-0.2-0.4-0.5c0-0.3,0.1-0.5,0.3-0.7c0.2-0.2,0.2-0.3,0-0.5
	c-0.2-0.1-0.7-0.3-1.6-0.6c0,0-0.1,0-0.2,0c-0.4-0.1-0.6-0.1-0.6-0.1c0,0-0.1,0.1,0,0.4c0,0,0,0.1,0,0.1c0,0.7,0,1.2,0,1.4
	c-0.1,0.3-0.4,0.4-0.9,0.5c-0.4,0-1.3,0-2.6-0.1c-0.1,0-0.3,0-0.4,0c-0.3,0-0.5,0-0.5,0c0,0-0.1,0-0.1,0.1c0,0.2-0.3,0.1-0.8-0.2
	l0,0c-0.3-0.2-0.4-0.2-0.5-0.2c-0.1,0-0.3,0.3-0.6,0.8c-0.4,0.6-0.9,0.8-1.2,0.6c-0.2-0.1-0.3-0.5-0.3-1.1c0-0.6,0.1-0.9,0.3-1.1
	c0.5-0.3-0.1-0.6-1.9-1.1c-0.3-0.1-0.5-0.1-0.5-0.1c0,0,0,0.1,0,0.4c0.1,0.6,0.1,1.2,0.1,1.8c0,0.6,0,0.9-0.1,1
	c-0.2,0.3-1.2,0.3-3,0.1c0,0,0,0-0.1,0c-0.3,0-0.5,0-0.6,0c0,0,0,0.2,0.2,0.5l0,0c0,0,0,0,0,0.1c0.1,0.2,0.2,0.3,0.3,0.3
	c0.1,0,0.2,0,0.5-0.1c0.1,0,0.1,0,0.1,0c0.9-0.2,1.6-0.2,2-0.1c0.4,0.1,0.6,0.5,0.6,1c0,0.6-0.1,1-0.4,1.1c-0.3,0.1-0.9-0.1-1.8-0.5
	c-0.5-0.2-0.8-0.4-0.9-0.4s-0.1,0-0.1,0.1c0,0.1,0,0.3,0.1,0.7c0.1,0.9,0.2,2.2,0.2,4c0,1.8,0,3.1-0.1,3.9c0,0.4,0,0.7,0.1,0.9
	c0.1,0.1,0.3,0.2,0.6,0.1c0.8-0.1,1.2-0.4,1.2-0.7c0-0.3,0.1-0.4,0.3-0.6c0.2-0.1,0.4-0.2,0.6,0c0.2,0.2,0.3,0.6,0.3,1.4
	c0,0.8-0.2,1.2-0.4,1.3c-0.1,0.1-0.6,0.1-1.6,0c-0.9,0-1.5-0.1-1.8-0.1c-0.1,0-0.1,0-0.1,0.1c0,0.1,0.1,0.2,0.2,0.5c0,0,0,0,0,0.1
	c0.1,0.2,0.2,0.4,0.3,0.4s0.2,0,0.5,0c0,0,0.1,0,0.1,0c0.7-0.1,1.3-0.2,1.8-0.2c0.5,0,0.8,0.1,0.9,0.3c0,0.1,0.1,0.6,0,1.5
	c0,0.9,0,1.6-0.1,2.3c0,0.5,0.1,0.8,0.4,0.9c0.3,0.1,0.8,0,1.3-0.3c0.2-0.1,0.3-0.2,0.4-0.3c0-0.1,0.1-0.4,0-0.8c0-0.1,0-0.1,0-0.1
	c0-0.1,0-0.3,0-0.6c0-1-0.1-1.7,0-1.9c0-0.4,0.2-0.6,0.5-0.7c0.2-0.1,0.6-0.1,1.3-0.1c0.2,0,0.3,0,0.4,0c1,0,1.5,0,1.7,0
	c0.2,0,0.3-0.1,0.4-0.2c0-0.1,0-0.1,0-0.2c-0.1-0.1-0.1-0.3,0-0.4s0.3-0.2,0.5-0.1c0.2,0,0.4,0.1,0.4,0.2c0,0,0.1,0.2,0.2,0.4
	c0.2,0.3,0.4,0.7,0.5,1.2c0.2,0.5,0.3,0.9,0.3,1.1c0,0.3,0.3,0.5,0.9,0.7c0.1,0,0.2,0,0.3,0.1l0,0c0,0,0,0.1,0,0.1
	c0,0.1,0.2,0.2,0.4,0.2c0.5,0.1,0.9,0.3,1.1,0.5c0.2,0.2,0.4,0.6,0.5,1.1c0,0,0,0.1,0,0.1C314.3,42.9,314.3,43,314.3,43z
	 M314.6,40.6c-0.2,0.1-0.8,0.1-1.6,0c-0.2,0-0.3-0.1-0.3-0.2c0-0.1,0-0.3,0.1-0.6c0.3-0.7-0.1-1.4-1.1-2.1c-0.5-0.4-0.7-0.6-0.6-0.7
	c0.2-0.1,0.8-0.1,1.9-0.1c0.1,0,0.2,0,0.3,0c0.8,0,1.3,0.1,1.4,0.2s0.2,0.6,0.2,1.4c0,0.1,0,0.2,0,0.3c0,0.8,0,1.3,0,1.4
	C314.9,40.4,314.8,40.5,314.6,40.6z M305.8,37.2c-0.2,0.1-0.3,0.1-0.5,0.1c-0.2,0-0.3-0.1-0.4-0.2c-0.1-0.1-0.1-0.4-0.1-1s0-1,0-1.2
	c0.1-0.4,0.3-0.5,0.6-0.4c0.3,0.1,0.5,0.3,0.5,0.7c0,0.3,0.1,0.5,0.4,0.5c0.3,0,0.6-0.1,1-0.3c0,0,0,0,0.1-0.1
	c0.2-0.2,0.4-0.3,0.4-0.4c0-0.1,0.1-0.3,0-0.7c0,0,0-0.1,0-0.1c-0.1-2.2-0.1-3.7-0.1-4.3c0-0.9,0-1.5,0.1-1.7
	c0.1-0.2,0.2-0.4,0.5-0.5c0.2-0.1,0.3-0.2,0.2-0.4c-0.1-0.2-0.4-0.5-1-0.9c-0.4-0.3-0.6-0.4-0.7-0.4c-0.1,0-0.3,0.1-0.5,0.4
	c-0.4,0.5-0.8,0.7-1.1,0.6c-0.3-0.1-0.4-0.5-0.4-1.1v0c0-0.4,0-0.6,0.1-0.6c0.1-0.1,0.2-0.2,0.5-0.3c0.2,0,0.6,0,1.4,0
	c0.1,0,0.1,0,0.1,0c0.9,0,1.5,0,1.6,0c0.2,0,0.3,0.1,0.4,0.2c0.1,0.2,0.2,1,0.2,2.5c0,1.5,0,2.6,0,3.4c0,0.5,0,0.8,0,0.9
	c0.1,0.1,0.2,0.2,0.5,0.1c0.3,0,0.6-0.1,1-0.2c0.3-0.2,0.5-0.3,0.5-0.4c0-0.4,0.3-0.6,1-0.6c0.4,0,0.7,0.1,0.8,0.2s0.2,0.4,0.2,1
	c0,0,0,0.1,0,0.1c0,0.4,0,0.6-0.1,0.7c-0.1,0.1-0.4,0.2-0.8,0.3c-0.3,0-1,0.1-2.2,0.1c-0.1,0-0.3,0-0.3,0c-0.1,0-0.2,0-0.3,0
	c-0.4,0-0.6,0.1-0.6,0.1c0,0.1,0,0.3,0.2,0.7c0,0.1,0.1,0.2,0.1,0.3c0,0,0,0.1,0.1,0.2c0.2,0.5,0.4,0.8,0.4,0.9
	c0.1,0.1,0.2,0,0.3-0.1l0,0c0.2-0.1,0.4-0.3,0.6-0.3c0.3-0.1,0.9-0.3,1.9-0.5c0.1,0,0.3-0.1,0.5-0.1c0.8-0.2,1.2-0.3,1.4-0.3
	c0.3,0,0.5,0,0.5,0.1c0.1,0.1,0.1,0.3,0.1,0.7c0,0.1,0,0.2,0,0.2c0,0.1,0,0.2,0,0.3c0,0.4,0,0.6-0.1,0.7c-0.1,0.1-0.3,0.2-0.7,0.2
	c-0.3,0-0.9,0-1.8,0c-0.4,0-0.7,0-0.9,0c-1.5,0-2.4,0-2.7,0c-0.3,0-0.4,0-0.4,0.1c0,0.1-0.1,0.1-0.3,0.1c-0.2-0.1-0.4-0.2-0.7-0.4
	l0,0c-0.2-0.1-0.3-0.2-0.3-0.2c0,0-0.1,0.1-0.3,0.3c0,0-0.1,0.1-0.1,0.1C306.2,36.8,305.9,37.1,305.8,37.2z M317.6,36.2
	c-0.3,0.1-0.4,0-0.5-0.3c-0.1-0.3,0-0.6,0.3-0.7c0.2-0.1,0.2-0.2,0-0.3c-0.1-0.1-0.4-0.2-1-0.4c-0.6-0.2-1-0.4-1-0.6s0.3-0.3,1-0.5
	c0.5-0.1,0.8-0.1,1,0c0.2,0.1,0.4,0.4,0.7,0.8c0,0,0.1,0.1,0.1,0.2c0.1,0.2,0.2,0.3,0.2,0.3c0.1,0.1,0.1,0.4-0.1,0.8
	C318.1,35.9,317.9,36.1,317.6,36.2z M305.7,33.6c-0.7,0.5-1.1,0.1-1.1-1.3s0.4-1.8,1.1-1.3c0.2,0.1,0.3,0.6,0.3,1.3
	S305.9,33.4,305.7,33.6z M302.2,33.7c-0.3,0-0.5-0.1-0.6-0.3c-0.1-0.2-0.1-0.6-0.1-1.1c0-0.6,0.1-1.1,0.3-1.3c0.2-0.2,0.5-0.2,0.8,0
	c0.2,0.1,0.3,0.6,0.3,1.3s-0.1,1.1-0.3,1.3C302.5,33.6,302.4,33.7,302.2,33.7z M316.4,32.7c-0.2,0.1-0.4,0.2-0.8,0.1
	c-0.3,0-0.5-0.1-0.6-0.3c-0.3-0.4-0.3-0.8-0.1-1.2c0.2-0.4,0.6-0.6,1.1-0.6c0.5,0,0.8,0.1,0.9,0.4c0.1,0.2-0.1,0.3-0.6,0.3
	c-0.2,0-0.3,0-0.3,0.1c0,0,0.1,0.2,0.3,0.4C316.5,32.3,316.6,32.5,316.4,32.7z M305.6,30.2c-0.4,0.1-0.6,0.1-0.7-0.1
	c-0.1-0.2-0.2-0.6-0.2-1.2c0-1.3,0.4-1.7,1.1-1.2c0.2,0.2,0.3,0.6,0.3,1.3C306,29.7,305.8,30.1,305.6,30.2z M312.6,30
	c-0.4,0.2-0.7,0.2-1.1,0c-0.4-0.2-0.6-0.4-0.6-0.8c0-0.4,0.2-0.6,0.6-0.8c0.4-0.2,0.8-0.2,1.1,0c0.2,0.1,0.3,0.4,0.3,0.8
	C312.9,29.6,312.8,29.9,312.6,30z M302.6,30.1c-0.2,0.1-0.3,0.1-0.6,0.1c-0.2,0-0.3-0.1-0.4-0.3c-0.1-0.1-0.1-0.4-0.1-0.9
	s0-0.9,0-1.1c0.1-0.3,0.3-0.5,0.6-0.5s0.5,0.2,0.6,0.5c0.1,0.3,0.1,0.7,0,1.3C302.9,29.8,302.8,30.1,302.6,30.1z M315.9,30.1
	c-0.4,0-0.7,0-0.9-0.1c-0.1-0.1-0.2-0.3-0.2-0.7c0-0.4,0.1-0.6,0.2-0.7c0.1-0.1,0.4-0.2,0.9-0.2s0.7,0.1,0.9,0.2
	c0.1,0.1,0.2,0.3,0.2,0.7c0,0.4-0.1,0.6-0.3,0.7C316.6,30,316.3,30.1,315.9,30.1z M316.6,27.7c-0.4,0.2-0.8,0.2-1.2,0
	c-0.4-0.1-0.6-0.4-0.6-0.7c0-0.4,0.1-0.8,0.6-1c0.4-0.2,0.9-0.2,1.3,0.1c0.2,0.1,0.3,0.4,0.3,0.8C317,27.3,316.8,27.6,316.6,27.7z
	 M312.6,27.6c-0.2,0.1-0.5,0.1-0.9,0.1c-0.4,0-0.6-0.1-0.6-0.3c-0.3-0.5-0.2-0.9,0.2-1.2c0.4-0.4,0.8-0.4,1.3-0.1
	c0.2,0.1,0.3,0.4,0.3,0.8C312.9,27.3,312.8,27.5,312.6,27.6z M312.6,25.3c-0.1,0.1-0.4,0.1-0.8,0.1s-0.8-0.1-1-0.1
	c-1.5-0.5-2-0.9-1.4-1.2c0.2-0.1,0.8-0.2,1.6-0.2s1.4,0,1.6,0c0.2,0.1,0.3,0.4,0.3,0.7C312.9,24.9,312.8,25.1,312.6,25.3z M23.8,67
	c0.7,0.2,1.2-0.1,1.5-1c0.3-0.9,0.2-2-0.2-3.3c0,0,0,0,0-0.1c-0.2-0.8-0.3-1.3-0.3-1.7c0-0.5,0.2-1.4,0.5-2.4
	c0.2-0.8,0.8-2.5,1.7-5.3c0-0.1,0.1-0.2,0.1-0.2c0-0.1,0-0.2,0.1-0.3c0.3-0.9,0.5-1.5,0.6-1.8c0.1-0.4,0.2-0.6,0.1-0.6
	c0-0.1,0-0.1-0.1-0.1c-0.1,0-0.2,0.1-0.3,0.4c-0.1,0.3-0.5,1-1,2.1c-0.1,0.2-0.3,0.6-0.5,1c-1.1,2.4-1.7,3.8-2,4.5
	c-0.4,0.9-0.8,1.4-1,1.7c-0.2,0.2-0.4,0.2-0.7,0.3c0,0-0.1,0-0.1,0c-0.3,0-0.5,0-0.5,0.1c-0.1,0-0.1,0.1,0,0.2c0,0.1,0,0.1,0.1,0.1
	c0,0,0.1,0,0.3,0.1c1.1,0.2,1.5,1.8,1.1,4.6c-0.1,1,0.1,1.6,0.7,1.8C23.7,67,23.8,67,23.8,67z M32.9,66.9c0,0,0.2,0,0.4,0
	c0.1,0,0.1,0,0.1,0c0.7-0.1,1.1-0.3,1.5-0.5c0.3-0.2,0.6-0.6,0.7-1c0-0.2,0.1-0.4,0.1-0.7c0-0.3,0-1.4,0-3.2v0c0-0.3,0-0.7,0-1.2
	c0-1.1,0-1.8,0-2.1c0-0.4,0.1-0.7,0.2-0.8c0.1-0.1,0.3-0.1,0.6-0.1c0.1,0,0.3,0,0.3,0c0.6,0,1,0,1.1,0.1c0.1,0.1,0.2,0.3,0.2,0.6
	c0,0.3,0.2,0.4,0.5,0.5c0.4,0,0.8-0.1,1.3-0.3c0,0,0,0,0.1,0c0.2-0.1,0.3-0.2,0.3-0.3c0-0.1,0-0.5,0-1.1c0-0.1,0-0.2,0-0.2
	c-0.1-1.7-0.1-2.7,0-3.2c0-0.5,0.2-0.8,0.4-0.9c0.3-0.1,0.4-0.3,0.4-0.4c0-0.1-0.3-0.4-0.8-0.8c-0.5-0.5-0.8-0.7-1.1-0.8
	c-0.1,0-0.2,0-0.3,0c-0.1,0-0.2,0.2-0.4,0.5c0,0-0.1,0.1-0.1,0.2c-0.2,0.3-0.4,0.5-0.7,0.6c-0.3,0-1.1,0.1-2.4,0.1
	c-0.3,0-0.6,0-0.8,0c-0.2,0-0.5,0-0.8,0c-1.2,0-2,0-2.3,0c-0.3,0-0.7-0.1-1.1-0.3c-0.1,0-0.2-0.1-0.3-0.1c-0.3-0.1-0.7-0.3-1.1-0.5
	c-0.1,0-0.2,0-0.2,0c0,0,0,0.2,0,0.4c0.1,0.9,0.2,2,0.2,3.3c0,1.3,0,2.5-0.1,3.6c0,0.6,0.4,0.8,1.3,0.6c0.3-0.1,0.6-0.2,0.7-0.3
	c0.1-0.1,0.2-0.3,0.2-0.4c0-0.3,0.1-0.5,0.2-0.6c0.2-0.1,0.5-0.1,1.1-0.1c0.1,0,0.2,0,0.3,0c0.3,0,0.6,0,0.6,0.1
	c0.1,0.1,0.2,0.4,0.2,0.7c0,0.3,0,1,0,2c0,0.4,0,0.7,0,1c0,0.2,0,0.5,0,0.8c0,1.1,0,1.7-0.1,2c0,0.4-0.2,0.6-0.4,0.7
	c-0.2,0.1-0.5,0.1-1.2,0c-0.2,0-0.4,0-0.5,0c-0.7,0-1-0.1-1.1,0c-0.2,0.1,0,0.2,0.4,0.3c0.6,0.1,1.1,0.4,1.4,0.7
	c0.3,0.3,0.5,0.7,0.5,1.2C32.9,66.7,32.9,66.8,32.9,66.9z M26.3,65.5c0.2,0.2,0.8-0.2,2-1.1c1.2-0.9,2.1-1.8,2.8-2.6
	c0.6-0.7,0.9-1,1.1-1c0.5-0.1,0.4-0.3-0.3-0.6c-0.1-0.1-0.4-0.2-0.9-0.5c-0.1-0.1-0.2-0.1-0.3-0.2c-0.4-0.2-0.6-0.3-0.7-0.4
	c-0.1,0-0.2,0-0.2,0.1c0,0.5-0.3,1.4-1,2.6c-0.7,1.2-1.4,2.2-2.1,3c-0.2,0.2-0.3,0.3-0.4,0.4C26.2,65.3,26.2,65.4,26.3,65.5z
	 M41.1,65.2c0.4,0.1,0.8,0.1,1.1-0.2c0.3-0.3,0.4-0.7,0.3-1.2c-0.1-0.8-0.6-1.6-1.4-2.3c-0.8-0.7-1.8-1.3-3.1-1.7
	c-0.5-0.2-0.8-0.2-0.8-0.1c0,0.1,0.1,0.3,0.5,0.7c1.3,1.4,2.3,2.8,2.9,4.2C40.7,64.9,40.9,65.2,41.1,65.2z M38.1,56.4
	c-0.1,0.1-1.2,0.1-3.2,0.1c-2,0-3.1,0-3.2-0.1c-0.2-0.1-0.3-0.2-0.3-0.4c0-0.2,0-0.8,0-1.7c0-0.9,0-1.4,0-1.6c0-0.2,0.1-0.3,0.3-0.4
	c0.1-0.1,1.2-0.1,3.3-0.1c2.1,0,3.2,0.1,3.3,0.1c0.2,0.2,0.3,0.8,0.3,2C38.4,55.6,38.3,56.2,38.1,56.4z M23.8,53.8
	c0.5,0.2,0.9,0.1,1.1-0.3c0.2-0.3,0.3-0.7,0.2-1.2c-0.1-0.5-0.4-0.9-0.9-1.2c-0.4-0.3-0.8-0.5-1.4-0.6c-0.5-0.1-0.9-0.2-1.2-0.2
	s-0.3,0.2-0.1,0.4c0.8,0.8,1.4,1.6,1.7,2.5c0.1,0.2,0.2,0.4,0.2,0.4C23.5,53.7,23.6,53.8,23.8,53.8z M27.7,49.3c0.1,0,0.2,0,0.4,0
	c0,0,0.1,0,0.1,0c0.7-0.1,1.3-0.2,2-0.2c0.7,0,2.7,0,6,0c0.3,0,0.8,0,1.3,0c2,0,3.2,0,3.8,0c0.7,0,1.2,0,1.4-0.1
	c0.1,0,0.2-0.1,0.2-0.2v0c0-0.2-0.3-0.6-1-1.2c-0.7-0.6-1.1-0.9-1.3-0.8c-0.1,0.1-0.4,0.4-0.8,1c-0.2,0.3-0.4,0.5-0.6,0.6
	c-0.2,0.1-0.7,0.1-1.6,0.1c0,0-0.1,0-0.1,0c-0.6,0-1,0-1.2,0c-0.2,0-0.4-0.1-0.4-0.3c0-0.1-0.1-0.4-0.1-0.8v0c0-0.4,0-0.7,0.1-0.9
	c0-0.2,0.2-0.3,0.3-0.4c0.3-0.2,0.2-0.3,0-0.5c-0.3-0.2-0.9-0.4-1.9-0.6c-0.4-0.1-0.7-0.2-0.7-0.1c0,0-0.1,0.1,0,0.4v0
	c0.2,1.9,0.2,3-0.2,3.1c-0.1,0.1-1,0.1-2.7,0c-1.6,0-2.7-0.1-3.3-0.1c-0.1,0-0.2,0-0.2,0.1s0.1,0.3,0.2,0.6c0,0,0,0,0,0.1
	C27.5,49.2,27.6,49.3,27.7,49.3z M25.5,48.7c0.4,0.2,0.8,0.1,1.2-0.2c0.3-0.3,0.5-0.6,0.4-1c-0.1-0.4-0.4-0.8-0.8-1.2
	c-0.5-0.4-1-0.7-1.6-0.9c-0.8-0.2-1.4-0.3-1.6-0.2c-0.2,0-0.1,0.3,0.2,0.6c0.7,0.7,1.3,1.5,1.8,2.4c0.1,0.3,0.2,0.4,0.3,0.5
	C25.3,48.6,25.4,48.7,25.5,48.7z M58.9,66.8c0.2,0.1,0.5,0.1,0.9,0c0.4-0.1,0.8-0.3,1-0.5c0.1-0.1,0.1-0.2,0.1-0.3
	c0-0.1,0-0.6,0-1.4c0-0.2,0-0.4,0-0.7c0-0.6,0-0.9,0-1.1c0.1-0.2,0.4-0.4,0.9-0.4c0.3,0,1.1,0,2.4,0c0.7,0,1.2,0,1.6,0
	c0.2,0,0.5,0,0.8,0c1.5,0,2.4,0,2.8,0c0.5,0,0.9,0,1-0.1c0.1,0,0.2-0.1,0.2-0.2v0c0-0.2-0.2-0.5-0.8-1.1c-0.5-0.5-0.9-0.8-1.1-0.8
	c-0.1,0-0.4,0.3-0.7,0.8c-0.2,0.4-0.5,0.6-0.7,0.6c-0.1,0-1.2,0-3,0c-1.9,0-2.9,0-3-0.1c-0.2-0.1-0.3-0.2-0.3-0.4
	c0-0.2,0.2-0.4,0.5-0.5c0.6-0.4,1.3-0.9,2.1-1.5c0.3-0.3,0.5-0.4,0.7-0.5c0.1,0,0.3,0,0.5,0.1c0.2,0.1,0.4,0.4,0.7,0.7
	c0.3,0.4,0.5,0.7,0.7,1c0.2,0.3,0.4,0.5,0.7,0.5c0.3,0,0.6-0.1,0.7-0.4c0.2-0.4,0.1-0.9-0.2-1.4c-0.4-0.5-0.9-0.9-1.5-1.1
	c-0.4-0.1-0.6-0.3-0.6-0.4c0-0.2,0.1-0.5,0.3-0.9c0.2-0.3,0.3-0.4,0.4-0.4c0.4-0.1,0-0.4-1.2-0.9c0,0-0.1,0-0.1,0
	C64.2,55.1,64,55,63.9,55c-0.1,0-0.1,0.1-0.2,0.4c0,0,0,0.1,0,0.1c-0.2,1-0.7,2.1-1.3,3.2c-0.7,1.1-1.1,1.5-1.4,1.2
	c-0.1-0.1-0.1-0.2-0.1-0.4c0-0.2,0-0.8,0-1.6c0-1,0-1.6,0-1.8c0-0.2,0.2-0.4,0.4-0.5c0.8-0.4,1.5-0.9,2.1-1.5
	c0.4-0.3,0.6-0.5,0.8-0.5c0.2,0,0.5,0.2,0.8,0.5c0.4,0.4,0.7,0.8,0.9,1.2c0.2,0.4,0.5,0.6,0.8,0.6c0.3,0,0.6-0.1,0.7-0.4
	c0.2-0.3,0.2-0.7,0-1.1c-0.3-0.6-0.9-1-1.8-1.3c-0.5-0.2-0.7-0.3-0.7-0.5c0-0.1,0.1-0.3,0.3-0.6c0.2-0.3,0.3-0.4,0.4-0.4
	c0.1,0,0.1,0,0.2-0.1c0.1-0.1,0.2-0.1,0.3,0c0.2,0,0.4,0.2,0.9,0.4c0.8,0.4,1.4,0.7,1.7,0.8c0.3,0.1,0.5,0,0.5-0.1
	c0.1-0.3,0.3-0.7,0.5-1c0.3-0.3,0.5-0.5,0.8-0.7c0.3-0.2,0.4-0.3,0.3-0.4c-0.1-0.1-0.4-0.2-0.9-0.4c-1.5-0.4-3-0.9-4.5-1.5
	c-1.4-0.6-2.5-1.2-3.3-1.7c-0.8-0.6-1-0.9-0.6-1.1c0.2-0.1,0.3-0.2,0.3-0.2c0-0.1-0.1-0.1-0.4-0.2c-0.2-0.1-0.6-0.2-1.3-0.4
	c0,0-0.1,0-0.1,0c-0.1,0-0.2-0.1-0.4-0.1c-0.7-0.2-1.1-0.3-1.2-0.3c-0.1,0-0.2,0.1-0.2,0.2l0,0c-0.4,1.2-1.4,2.6-3,4.2
	c-1.6,1.6-3.5,2.9-5.5,3.9c-0.3,0.1-0.4,0.2-0.5,0.3c0,0.1,0,0.1,0,0.2c0.1,0.1,0.6-0.1,1.4-0.4c0.9-0.4,1.7-0.8,2.6-1.2
	c0.8-0.4,1.2-0.6,1.3-0.5c0.2,0.2,0,0.7-0.7,1.7c-0.7,1-1.4,1.7-2.1,2.3c-0.2,0.2-0.3,0.3-0.4,0.3c0,0,0,0.1,0.1,0.2
	c0.1,0.1,0.5,0,1.2-0.4c0.7-0.4,1.3-0.8,1.9-1.2c0.3-0.3,0.5-0.4,0.6-0.5c0.1-0.1,0.2-0.1,0.3-0.1c0.4,0,0.8,0.5,1.3,1.4
	c0.2,0.4,0.5,0.6,0.8,0.6c0.3,0,0.5-0.1,0.7-0.4c0.2-0.3,0.2-0.6,0-1c-0.2-0.4-0.7-0.8-1.4-1.1c-0.4-0.1-0.5-0.3-0.6-0.4
	c0-0.2,0.1-0.4,0.3-0.7c0.1-0.2,0.2-0.2,0.3-0.2c0.2,0,0.3-0.1,0.2-0.2c-0.1-0.1-0.3-0.3-0.6-0.4c-0.4-0.2-0.6-0.4-0.6-0.5
	c0-0.1,0.2-0.4,0.6-0.6c1.7-1.2,2.9-2.2,3.5-2.9c0.2-0.3,0.5-0.4,0.7-0.4c0.1,0,0.2,0,0.2,0.1c0.1,0,0.2,0.2,0.4,0.5
	c0.1,0.1,0.1,0.2,0.2,0.2c0.5,0.7,1.2,1.4,2,2.1c0.4,0.3,0.5,0.5,0.6,0.7c0,0.1,0,0.2-0.3,0.2c-0.1,0-0.2,0-0.2,0.1
	c0,0-0.1,0.2-0.1,0.4c-0.2,1-0.6,2-1.2,2.9c-0.6,0.9-1,1.3-1.2,1c-0.2-0.2-0.2-1-0.2-2.3c0-1.4,0.1-2.1,0.3-2.2
	c0.2-0.1,0.2-0.3-0.1-0.5c-0.3-0.2-1-0.4-2-0.7h0c-0.2-0.1-0.3-0.1-0.4,0c0,0,0,0.3,0,0.6c0.1,1.2,0.2,2.9,0.2,5c0,1.2,0,2.4,0,3.6
	c0,1.5,0,2.4,0,2.7c0,0.3-0.1,0.4-0.3,0.5c-0.1,0.1-1.6,0.1-4.4,0.1c-2.8,0-4.4-0.1-4.7-0.1c-0.1,0-0.2,0-0.2,0.1
	c0,0.1,0.1,0.2,0.2,0.5c0,0,0,0.1,0.1,0.1c0.1,0.2,0.2,0.3,0.3,0.4c0.1,0,0.3,0,0.6,0c0.1,0,0.2,0,0.2,0c1.1-0.1,2.7-0.2,4.9-0.2
	c0.2,0,0.5,0,0.8,0c1,0,1.6,0,1.9,0.1c0.4,0.1,0.6,0.3,0.6,0.7c0,0.3,0,0.9,0,1.9c0,0.3,0,0.6,0,0.8c0,0.4,0,0.7,0,0.8
	C58.7,66.7,58.8,66.7,58.9,66.8z M50.9,61c0.1,0.1,0.5-0.1,1.2-0.6c0.7-0.5,1.4-0.9,1.8-1.4c0.3-0.3,0.5-0.4,0.6-0.5
	c0.1-0.1,0.3-0.1,0.4,0c0.2,0.1,0.4,0.3,0.7,0.7c0.3,0.4,0.6,0.8,0.8,1.2c0.1,0.3,0.4,0.4,0.7,0.4c0.3,0,0.6-0.1,0.7-0.4
	c0.3-0.4,0.2-0.8-0.2-1.3c-0.4-0.5-0.9-0.9-1.6-1.1c-0.4-0.1-0.7-0.3-0.7-0.4c0-0.2,0.1-0.5,0.4-0.8c0.1-0.2,0.2-0.3,0.3-0.3
	c0.3,0,0.3-0.1,0.1-0.2c-0.2-0.2-0.6-0.4-1.2-0.7c0,0,0,0-0.1,0c-0.4-0.2-0.6-0.3-0.7-0.3c-0.1,0-0.1,0.2-0.2,0.4c0,0,0,0.1,0,0.1
	c-0.5,1.9-1.4,3.4-2.8,4.5c-0.3,0.2-0.4,0.4-0.5,0.4C50.8,60.8,50.8,60.9,50.9,61z M82.2,66.8c0,0.1,0.2,0.1,0.5,0
	c0.3-0.1,0.9-0.3,1.8-0.6c2.8-1.1,5.2-2.5,7.1-4.4c0.4-0.4,0.7-0.6,0.8-0.7c0.2-0.1,0.4-0.1,0.6,0.1c0.1,0.1,0.4,0.5,0.9,1.1
	c0.8,1.1,1.5,2.2,2,3.2c0.3,0.5,0.4,0.8,0.5,0.9c0.1,0.1,0.3,0.2,0.6,0.3c0.6,0.1,0.9-0.1,1.2-0.6c0.2-0.5,0.2-1.1-0.1-1.8
	c-0.5-1.3-1.8-2.6-3.8-3.6c-0.5-0.3-0.8-0.5-0.9-0.6c0-0.2,0-0.5,0.3-0.9c0.7-1.3,1.3-2.8,1.6-4.3c0.3-1.5,0.6-3.6,0.7-6.3
	c0-0.6,0-1,0.1-1.2c0.1-0.2,0.2-0.3,0.3-0.4c0.3-0.2,0.3-0.3,0-0.4c-0.3-0.1-1-0.2-2.1-0.4c-0.4,0-0.7-0.1-0.8,0
	c-0.1,0-0.1,0.1-0.1,0.1c0.1,0.3,0.1,1.4,0.1,3.2c-0.1,4.1-0.9,7.5-2.5,10.1c-1.6,2.6-4.3,4.8-8,6.6c-0.5,0.2-0.7,0.4-0.8,0.4
	C82.1,66.6,82.1,66.7,82.2,66.8z M78,64.9c0.1,0.1,0.2,0,0.3-0.1c0.2-0.2,0.4-0.4,0.6-0.5c0.2-0.1,0.8-0.4,1.6-0.9
	c1.8-0.9,3.5-1.8,5.1-2.7c1.6-1,2.5-1.5,2.5-1.6c0-0.1-0.1-0.1-0.3-0.1c-0.2,0-1,0.3-2.3,0.7c-1.4,0.4-2.2,0.7-2.5,0.8
	c-0.3,0.1-0.5,0.1-0.6,0c-0.1-0.1-0.2-0.5-0.2-1.1c0-0.7-0.1-2.7-0.1-5.9c0-0.3,0-0.8,0-1.4c0-1.9,0-3.2,0-3.7c0-0.7,0-1.2,0-1.4
	c0-0.1,0.1-0.3,0.2-0.3l0,0c0.2-0.2,0.2-0.3,0.1-0.4c-0.2-0.1-0.6-0.2-1.2-0.2c-0.9-0.1-1.3-0.1-1.3,0c0,0.1,0,2.6,0.1,7.3
	c0,0.3,0,0.6,0,1.1c0,3.3,0.1,5.3,0.1,5.9c0,0.6,0,0.9-0.1,1c-0.1,0.2-1,0.6-2.5,0.9c-0.4,0.1-0.5,0.1-0.5,0.2c0,0,0.2,0.4,0.5,1.2
	C77.7,64.4,77.9,64.9,78,64.9z M88.5,54.6c0.5,0.2,1,0,1.2-0.4c0.3-0.4,0.3-1,0-1.7c-0.5-1.4-1.9-2.6-4.2-3.5
	c-0.5-0.2-0.8-0.3-0.8-0.2c0,0.1,0.1,0.3,0.5,0.7c1.3,1.6,2.1,3,2.6,4.3C88,54.3,88.2,54.5,88.5,54.6z M110.9,66.8
	c0,0.1,0.1,0.1,0.2,0.1s0.3-0.1,0.6-0.2c2.7-0.9,5-2.2,6.9-3.9c0.3-0.3,0.6-0.4,0.7-0.4c0.1,0,0.4,0.3,0.7,0.7
	c1.1,1.4,2.4,2.6,4,3.5c0.2,0.1,0.4,0.2,0.4,0.2c0.1,0,0.1-0.1,0.2-0.3c0.1-0.3,0.3-0.6,0.6-0.9c0.3-0.3,0.6-0.5,0.9-0.6
	c0.2-0.1,0.3-0.2,0.3-0.2c0-0.1-0.2-0.2-0.5-0.3c-1.2-0.4-2.3-1.1-3.6-2c-1.2-0.9-1.8-1.5-1.8-1.9c0-0.1,0.2-0.5,0.6-1.2
	c1.2-2,2-4.4,2.5-7.2c0.1-0.7,0.3-1.1,0.4-1.2s0.5-0.2,1.1-0.2c0.7,0,1-0.1,0.9-0.4c-0.1-0.3-0.5-0.8-1.3-1.4
	c-0.4-0.3-0.7-0.5-0.8-0.5s-0.3,0.2-0.6,0.6c0,0-0.1,0.1-0.1,0.2c-0.3,0.4-0.6,0.7-0.8,0.7c-0.2,0.1-0.8,0.1-1.7,0.1
	c-0.2,0-0.3,0-0.4,0c-0.1,0-0.2,0-0.3,0c-0.8,0-1.3,0-1.5,0c-0.3,0-0.5-0.1-0.5-0.3c0-0.1,0.1-0.4,0.2-0.8c0,0,0-0.1,0-0.1
	c0-0.1,0.1-0.2,0.1-0.4c0.2-0.6,0.3-1,0.4-1.2c0.3-0.8,0.5-1.2,0.7-1.4c0.2-0.1,0.2-0.3-0.1-0.5c-0.3-0.2-0.9-0.4-2-0.6
	c0,0-0.1,0-0.1,0c-0.4-0.1-0.6-0.1-0.7-0.1c-0.1,0-0.1,0.2-0.1,0.5c0,0,0,0.1,0,0.1c-0.1,1.3-0.4,2.8-0.8,4.5
	c-0.4,1.7-1,3.2-1.6,4.4c0,0,0,0.1-0.1,0.2c-0.2,0.4-0.3,0.6-0.3,0.7c0,0.1-0.2,0.4-0.4,0.8c-0.2,0.3-0.2,0.4-0.3,0.5
	c0,0.1,0,0.1,0.1,0.2c0.1,0.1,0.4-0.2,0.9-0.6c0.5-0.5,1-1.1,1.5-1.8c0.3-0.4,0.6-0.7,0.7-0.6c0.1,0,0.3,0.3,0.4,0.8
	c0.4,2,0.9,3.7,1.5,5.3c0.1,0.4,0.2,0.7,0.1,0.9c0,0.2-0.2,0.5-0.6,0.9c-0.7,0.9-1.6,1.8-2.8,2.7c-1.1,0.9-2.3,1.6-3.5,2.2
	c-0.3,0.2-0.5,0.3-0.6,0.3C110.9,66.7,110.9,66.8,110.9,66.8z M107.2,63.9c0.7,0.1,1.7,0.1,3.2,0c1.5-0.1,2.4-0.2,2.8-0.3
	c0.6-0.2,1.1-0.4,1.2-0.8c0.2-0.4,0.1-0.8-0.3-1.1c-0.2-0.2-0.3-0.4-0.4-0.7c0-0.3-0.1-1.1-0.1-2.5v0c0-0.1,0-0.1-0.1-0.2
	c0,0-0.1,0-0.1,0c0,0-0.1,0.4-0.3,1c0,0.1,0,0.2-0.1,0.3c-0.2,0.8-0.4,1.3-0.5,1.5c-0.2,0.3-0.4,0.5-0.7,0.6c-0.2,0-0.8,0.1-1.6,0.1
	c-0.1,0-0.3,0-0.3,0c-0.2,0-0.4,0-0.7,0c-0.6,0-1,0-1.2-0.1c-0.2-0.1-0.4-0.3-0.4-0.7c0-0.3-0.1-0.9,0-1.9c0-0.5,0-0.9,0-1.2
	c0-0.3,0-0.7,0-1.2c0-1,0-1.6,0-1.8c0-0.4,0.2-0.6,0.3-0.7c0.1-0.1,0.4-0.1,0.9-0.1c0.2,0,0.4,0,0.6,0c0.8,0,1.2,0,1.4,0.1
	c0.2,0,0.3,0.2,0.3,0.4v0.1c0,0.1,0,0.2,0,0.3c0,0.6,0.5,0.6,1.6,0.1c0,0,0.1,0,0.1-0.1c0.3-0.1,0.4-0.2,0.4-0.4
	c0-0.1,0.1-0.6,0-1.2c0-0.2,0-0.3,0-0.4c0-1.6-0.1-2.6-0.1-3.1c0-0.6,0.1-1.1,0.2-1.3c0.1-0.2,0.2-0.4,0.5-0.5
	c0.2-0.1,0.2-0.3,0-0.5c-0.2-0.2-0.5-0.6-1.1-1.1c-0.4-0.3-0.6-0.5-0.7-0.5c-0.1,0-0.3,0.2-0.5,0.5c0,0-0.1,0.1-0.1,0.2
	c-0.3,0.3-0.5,0.5-0.7,0.6c-0.2,0-0.8,0.1-1.8,0c-0.2,0-0.4,0-0.6,0c-1.2,0-2.2,0-2.8-0.1c-0.4,0-0.6,0-0.6,0c0,0,0,0.2,0.2,0.6l0,0
	c0.1,0.3,0.2,0.4,0.3,0.4c0.1,0,0.3,0,0.5,0c0.8-0.1,1.8-0.2,2.9-0.2c1.1,0,1.8,0,1.9,0.1c0.2,0.1,0.3,0.2,0.3,0.5c0,0.2,0,1,0,2.2
	c0,0.2,0,0.4,0,0.7c0,0.8,0,1.3,0,1.5c0,0.3-0.2,0.5-0.4,0.5c-0.1,0.1-0.5,0.1-1,0.1c-0.2,0-0.3,0-0.5,0c-0.1,0-0.2,0-0.3,0
	c-0.6,0-1.1,0-1.3-0.1c-0.2,0-0.6-0.2-1.3-0.5c-0.1,0-0.1-0.1-0.1-0.1c0,0-0.1,0-0.2-0.1c-0.5-0.2-0.8-0.3-0.8-0.3
	c-0.1,0-0.1,0.2,0,0.5c0,0.1,0,0.1,0,0.1c0.1,1.2,0.2,3.2,0.2,5.9c0,0.1,0,0.2,0,0.4c0,1.6,0,2.7,0.1,3.1c0,0.6,0.2,1,0.4,1.2
	C106.2,63.7,106.6,63.8,107.2,63.9C107.2,63.9,107.2,63.9,107.2,63.9z M119.6,58.5c-0.2,0.2-0.4,0.1-0.6-0.2
	c-0.2-0.3-0.5-0.9-0.9-1.8c-0.6-1.5-1-2.7-1.1-3.6c-0.1-0.9,0.1-1.5,0.6-2c0.2-0.2,0.9-0.3,2.1-0.3c1.1,0,1.7,0.1,1.8,0.3
	c0.2,0.4,0,1.6-0.6,3.7C120.4,56.9,120,58.1,119.6,58.5z M132.8,66.9c0,0,0.5,0,1.2-0.1c3.3-0.4,6-1,8.2-1.9
	c0.4-0.1,0.6-0.2,0.8-0.2c0.2,0,0.4,0,0.7,0.1c2.4,1.1,5.1,1.8,8.2,2c0.3,0,0.5,0,0.6,0c0.1,0,0.1-0.1,0.2-0.2
	c0-0.2,0.2-0.5,0.4-0.8c0.2-0.3,0.4-0.5,0.6-0.6c0.3-0.1,0.4-0.2,0.3-0.3c0-0.1-0.3-0.1-0.7-0.1c-2.1-0.1-4-0.3-5.5-0.5
	c-1.5-0.2-2.3-0.5-2.4-0.7c0-0.1,0-0.2,0.1-0.3c0.1-0.1,0.3-0.3,0.6-0.5c0.5-0.4,1-0.8,1.6-1.4c0.1-0.1,0.2-0.2,0.3-0.3
	c0.4-0.4,0.6-0.6,0.8-0.6c0.2-0.1,0.7-0.1,1.4-0.1c0.2,0,0.4,0,0.6,0c1,0,1.6,0,1.8,0c0.2,0,0.3-0.1,0.4-0.2
	c0.1-0.2-0.3-0.8-1.4-1.6c-0.4-0.3-0.6-0.5-0.6-0.6c-0.1-0.1-0.1-0.5-0.1-1c-0.1-1.3-0.1-2.2,0-2.8c0-0.2,0-0.4,0-0.6
	c-0.1-0.7,0-1.2,0.3-1.3c0.3-0.1,0.5-0.1,0.7,0c0.2,0.1,0.3,0.4,0.4,0.7c0,0.3,0.2,0.4,0.5,0.5c0.3,0.1,0.6,0,0.8-0.2
	c0.4-0.4,0.4-0.9,0-1.5c-0.3-0.6-0.9-1-1.7-1.4c-0.7-0.3-0.9-0.2-0.6,0.2c0.3,0.4,0.2,0.7-0.1,0.9c-0.3,0.2-0.7,0.2-1.2,0
	c-0.2-0.1-0.2-0.3,0-0.5c0.2-0.3,0.5-0.5,0.9-0.7c0.2-0.1,0.4-0.2,0.5-0.5c0.1-0.3,0.3-0.6,0.7-0.9c0.4-0.4,0.6-0.6,0.8-0.6
	c0.3,0,0.4-0.2,0.2-0.3c-0.2-0.2-0.6-0.4-1.2-0.7c0,0,0,0-0.1,0c-0.4-0.2-0.7-0.3-0.7-0.3c-0.1,0-0.2,0.1-0.2,0.3
	c-0.2,0.6-0.4,1-0.6,1.5c-0.2,0.4-0.4,0.6-0.5,0.6c-0.1,0-0.1,0-0.2,0c-0.1-0.1-0.1-0.1-0.1-0.2c0,0-0.1-0.2-0.2-0.4
	c-0.2-0.3-0.2-0.5-0.1-0.7c0.1-0.2,0.4-0.5,0.9-0.9c0.7-0.7,1.2-1,1.3-1.1c0.2-0.1,0.3-0.2,0.1-0.4c-0.2-0.1-0.6-0.4-1.2-0.7
	c-0.4-0.2-0.7-0.3-0.8-0.3c-0.1,0-0.1,0-0.2,0.2c-0.3,1.1-0.6,1.9-0.8,2.2c-0.2,0.4-0.6,0.5-1,0.3c-0.4-0.1-0.7-0.1-0.7-0.1
	c-0.2,0.2-0.4,0.1-0.7-0.2c-0.2-0.2-0.1-0.4,0.2-0.6c0.1-0.1,0.1-0.3,0-0.5c-0.2-0.3-0.5-0.5-0.9-0.8c-0.3-0.2-0.5-0.3-0.6-0.2
	c-0.1,0-0.3,0.2-0.6,0.6c-0.4,0.5-1.4,0.6-3.1,0.4c0,0,0,0-0.1,0c-0.2,0-0.3,0-0.4,0l0.2,0.5c0.1,0.3,0.2,0.5,0.3,0.6
	c0,0,0.2,0,0.6-0.1c2.7-0.4,3.7-0.2,3,0.6c-0.3,0.3-1.1,0.5-2.6,0.4c-1.5,0-2.5-0.2-3.3-0.6c0,0-0.1,0-0.2-0.1
	c-0.4-0.2-0.7-0.3-0.8-0.3c-0.1,0-0.2,0.1-0.2,0.2l0,0.1c-0.4,1.3-0.7,2-1,2c-0.1,0-0.1,0-0.2,0c-0.1-0.1-0.1-0.1-0.1-0.2
	c0,0,0-0.1-0.1-0.2c-0.2-0.3-0.2-0.5-0.2-0.6c0.1-0.2,0.3-0.4,0.7-0.8c0.1-0.1,0.2-0.2,0.3-0.3c0.3-0.3,0.5-0.5,0.6-0.6
	c0.2-0.2,0.4-0.4,0.6-0.5c0.2-0.1,0.3-0.2,0-0.4c-0.2-0.2-0.7-0.4-1.4-0.7c-0.3-0.1-0.4-0.2-0.5-0.2c-0.1,0-0.1,0-0.1,0.1
	c-0.1,0.4-0.3,1-0.5,1.8c-0.2,0.6-0.4,0.9-0.6,1.1c-0.1,0.1-0.4,0.1-0.9,0c-0.4-0.1-0.6-0.1-0.7-0.1c-0.1,0.1,0,0.2,0.2,0.5
	c0.5,0.6,0.8,1.2,1.1,1.8c0.1,0.3,0.3,0.4,0.7,0.4c0.5,0,0.6,0.3,0.2,0.9c-0.2,0.3-0.3,0.4-0.5,0.5c-0.2,0.1-0.5,0.1-1.1,0.1
	c-0.5,0-0.8,0.1-0.8,0.1c0,0,0.1,0.3,0.3,0.8s0.4,0.9,0.4,1c0.1,0.2,0.1,0.7,0,1.6c-0.1,0.9-0.3,1.7-0.6,2.4
	c-0.2,0.6-0.2,0.9-0.1,0.9c0.1,0,0.4-0.2,0.7-0.6c0.4-0.4,0.8-1,1.2-1.8c0.4-0.8,0.7-1.1,0.8-0.8c0.1,0.3,0.1,1.2,0,2.7
	c0,0.7,0.4,0.8,1.2,0.5c0.3-0.1,0.5-0.2,0.6-0.4c0-0.1,0.1-0.6,0-1.2c-0.1-1.5,0-2.4,0-2.7c0-0.2,0-0.4,0-0.6
	c-0.1-0.4-0.1-0.7,0-0.9s0.2-0.4,0.5-0.4c0.1,0,0.2,0,0.3,0.1c0.1,0.1,0.2,0.3,0.2,0.5c0.1,0.3,0.2,0.5,0.4,0.6
	c0.2,0.1,0.5,0,0.8-0.2c0.4-0.2,0.4-0.6,0.2-1.1c-0.2-0.5-0.5-1-1.1-1.3c-0.5-0.3-0.9-0.5-1.1-0.5c-0.2,0-0.2,0.1-0.1,0.5
	c0.2,0.3,0.2,0.5,0.2,0.7c-0.1,0.1-0.3,0.2-0.7,0.2c-0.5,0-0.7-0.1-0.7-0.4c0-0.3,0.3-0.6,0.8-0.8c0.2-0.1,0.4-0.3,0.5-0.5
	c0.3-0.5,0.6-0.9,1.1-1.2c0.4-0.3,0.8-0.4,1-0.2c0,0,0.8,0.1,2.2,0.1c1,0,1.6,0,1.8,0c0.4,0,0.5,0.1,0.6,0.2c0,0.1,0,0.2-0.2,0.5
	c-0.2,0.3-0.5,0.5-0.9,0.6c-0.3,0-1.1,0-2.4-0.1c-0.3,0-0.4,0-0.4,0c0,0,0.1,0.2,0.2,0.6c0,0,0,0.1,0.1,0.1c0.1,0.2,0.2,0.3,0.2,0.3
	c0,0,0.2,0,0.3-0.1c0,0,0.1,0,0.1,0c0.2-0.1,0.7-0.1,1.5-0.1c0.8,0,1.2,0,1.4,0.1c0.1,0.1,0.1,0.2-0.1,0.5c-0.3,0.3-0.6,0.5-0.9,0.6
	c-0.4,0.1-1,0-2,0c0,0-0.1,0-0.1,0l-0.6,0c0,0,0,0.2,0.2,0.5c0.2,0.3,0.3,0.5,0.3,0.6c0,0,0.3,0,0.7-0.1c1.1-0.1,1.9-0.2,2.6-0.2
	c0.9,0,1.5,0,1.7-0.1c0.2-0.1,0.4,0.1,0.7,0.6c0.3,0.5,0.4,1,0.3,1.4c0,0.1,0,0.2,0,0.3c0,0.3,0,0.4,0,0.5c0,0.7-0.2,1.6-0.6,2.6
	c-0.1,0.2-0.1,0.3-0.1,0.3c0,0,0.1,0.1,0.1,0.1c0.1,0.1,0.4-0.1,0.7-0.5c0.3-0.4,0.7-0.9,1.1-1.5c0.5-0.8,0.8-1.1,0.9-0.8
	c0.1,0.3,0.1,1.2,0,2.7c0,0.3,0,0.5,0.1,0.6c0.1,0.1,0.2,0.1,0.5,0.1c0.3,0,0.5,0.1,0.5,0.3c0,0.2-0.1,0.4-0.5,0.6
	c-0.1,0.1-1.5,0.1-4.1,0.1c-2.7,0-4,0-4.1-0.1c-0.2-0.1-0.2-0.3,0-0.6c0.2-0.3,0.4-0.4,0.6-0.5c0.2,0,0.3-0.1,0.3-0.1
	c0-0.1-0.1-0.2-0.2-0.2c-0.1-0.1-0.2-0.2-0.2-0.3s0.1-0.2,0.2-0.4c0.1-0.1,0.2-0.2,0.2-0.2c0-0.2,0.3-0.4,0.9-0.4c0.6,0,1,0,1.1,0.3
	c0.1,0.1,0.1,0.2,0.1,0.2c0,0,0.1,0,0.2,0c0.5,0,0.9-0.1,1.1-0.3c0.2-0.2,0.3-0.5,0.2-0.9c0-0.7,0-1.2,0-1.4c0-0.2,0.2-0.4,0.4-0.6
	c0.2-0.1,0.2-0.2,0.2-0.3c0-0.1-0.1-0.2-0.3-0.4c-0.4-0.4-0.8-0.6-1-0.7c-0.2-0.1-0.5,0-0.7,0.3c-0.3,0.3-0.7,0.5-1.2,0.5
	c-0.5,0-1-0.1-1.5-0.3c-0.8-0.4-1.2-0.5-1.3-0.5c-0.1,0-0.1,0.3,0,0.7c0,0.1,0.1,0.6,0.1,1.6c0,0.9,0.1,1.6,0,1.9
	c0,0.2-0.1,0.4-0.2,0.5c-0.1,0.1-0.3,0-0.4-0.1c-0.1-0.1-0.1-0.3,0-0.7c0.2-0.4,0.2-0.9,0-1.4c-0.3-0.5-0.7-1-1.4-1.5
	c-0.3-0.2-0.5-0.3-0.6-0.2c0,0.1,0,0.4,0.2,0.8c0.2,0.5,0.4,1.1,0.4,1.6c0.1,0.4,0.1,0.6,0.1,0.7c0,0.1,0.1,0.2,0.2,0.2
	c0.3,0.2,0.3,0.7-0.1,1.5c-0.4,0.8-1,1.6-1.8,2.5c-0.9,0.9-1.8,1.7-2.7,2.4c-0.3,0.2-0.5,0.4-0.6,0.4c-0.1,0.1-0.1,0.2,0,0.2
	c0.1,0.1,0.6-0.1,1.6-0.5c0.9-0.4,1.8-0.9,2.5-1.4c0,0,0.1-0.1,0.2-0.1c0.6-0.4,0.9-0.6,1.1-0.6s0.4,0.2,0.7,0.5
	c0,0,0.1,0.1,0.1,0.1c0.5,0.5,0.9,0.9,1.1,1c0.4,0.4,0.6,0.7,0.5,0.8c-0.1,0.2-0.5,0.4-1.2,0.7c-1.8,0.8-4,1.4-6.4,1.9
	c-0.5,0.1-0.8,0.2-0.9,0.2C132.7,66.7,132.7,66.8,132.8,66.9z M143.4,62.8c-0.2,0.1-0.5,0.1-0.9,0c-0.3-0.1-0.8-0.4-1.5-0.8
	c-0.6-0.4-1-0.7-1.2-1s-0.1-0.4,0.1-0.6c0.1-0.1,1-0.1,2.7-0.1c1.7,0,2.6,0,2.7,0.1c0.2,0.1,0,0.5-0.4,1S143.9,62.5,143.4,62.8z
	 M152.9,57.4c0,0,0.1,0,0.1,0c0.4,0,0.6-0.2,0.6-0.7c0-0.4-0.1-0.9-0.4-1.4c-0.3-0.6-0.7-1-1.2-1.3c-0.5-0.4-0.9-0.5-0.9-0.4
	c-0.1,0,0,0.3,0.3,0.9c0.4,0.8,0.6,1.5,0.7,2c0.1,0.3,0.1,0.5,0.1,0.6s0.1,0.1,0.2,0.2c0.1,0,0.2,0.1,0.3,0.1
	C152.7,57.4,152.8,57.4,152.9,57.4z M143.8,56.3c-0.2,0.1-0.5,0.1-0.9,0.1c-0.4-0.1-0.6-0.2-0.7-0.3c-0.2-0.4-0.2-0.8,0-1.2
	c0.2-0.4,0.5-0.6,1-0.6c0.3,0,0.6,0.1,0.8,0.4c0.2,0.3,0.3,0.6,0.3,0.9C144.3,55.9,144.1,56.1,143.8,56.3z M148.9,53.9
	c-0.1,0.1-0.4,0.1-0.9,0c-0.4-0.1-0.7-0.3-0.7-0.4c0-0.2,0.1-0.3,0.5-0.5c0.4-0.2,0.7-0.2,0.9-0.1c0.1,0.1,0.2,0.2,0.3,0.4
	C149,53.6,149,53.7,148.9,53.9z M135.7,53.8c-0.1,0.1-0.4,0.2-0.8,0.1c-0.4-0.1-0.6-0.3-0.6-0.4c0-0.2,0.2-0.4,0.6-0.5
	c0.4-0.1,0.7-0.1,0.8,0.1c0.1,0.1,0.1,0.2,0.1,0.4C135.8,53.6,135.8,53.7,135.7,53.8z M146.3,51.7c-0.1,0-0.2,0-0.3-0.1
	c-0.1-0.1-0.3-0.3-0.6-0.6c-0.3-0.3-0.4-0.4-0.4-0.5c0-0.1,0.2-0.2,0.6-0.2c0.4-0.1,0.6-0.2,0.6-0.3c0-0.1-0.2-0.4-0.6-0.7
	c-0.4-0.4-0.5-0.6-0.5-0.7c0-0.1,0.3-0.2,0.8-0.2c0.4,0,0.6-0.1,0.6-0.1c0.2-0.1,0.4,0,0.6,0.2c0.3,0.3,0.4,0.6,0.6,1.1
	c0.1,0.3,0.3,0.4,0.7,0.4s0.5,0.2,0.2,0.7c-0.2,0.3-0.4,0.6-0.6,0.7c-0.2,0.1-0.5,0.2-1,0.2c-0.1,0-0.2,0-0.4,0
	C146.5,51.6,146.3,51.6,146.3,51.7z M164.7,66.9c0.3,0.2,0.7,0.1,1.3-0.1c0.6-0.2,0.8-0.5,0.8-0.8c0,0,0-0.1,0-0.2
	c0-0.2,0-0.4,0.1-0.5c0.1-0.1,0.4-0.2,1-0.2c0.4,0,1.2,0,2.6,0c0.3,0,0.5,0,0.7,0c0.2,0,0.5,0,0.9,0c1.3,0,2.1,0,2.5,0
	c0.5,0,0.8,0.1,0.9,0.2c0.1,0.1,0.1,0.3,0.1,0.5c0,0.1,0,0.1,0,0.2c0,0.4,0,0.6,0.2,0.7c0.2,0.1,0.5,0.1,1-0.1
	c0.6-0.2,0.9-0.4,1-0.6c0.1-0.2,0.2-0.7,0.1-1.5c-0.2-4.8-0.1-7.2,0.4-7.2c0,0,0.1,0,0.3-0.1c0.1-0.1,0.2-0.2,0.2-0.2
	c0-0.1-0.2-0.3-0.7-0.7c-0.5-0.4-0.9-0.7-1.2-0.9c-0.1-0.1-0.3-0.1-0.4,0c-0.1,0-0.3,0.2-0.6,0.5c0,0-0.1,0.1-0.1,0.2
	c-0.2,0.2-0.5,0.4-0.7,0.4c-0.3,0-1.2,0-2.8,0c-0.5,0-0.9,0-1.2,0s-0.7,0-1.2,0c-1.5,0-2.4,0-2.7,0c-0.3,0-0.7-0.2-1.2-0.4
	c-0.2-0.1-0.3-0.1-0.5-0.2c0,0-0.1,0-0.2-0.1c-0.5-0.2-0.7-0.3-0.8-0.3c-0.1,0-0.1,0.2,0,0.5c0,0.1,0,0.1,0,0.1
	c0.1,1.1,0.2,2.6,0.2,4.5c0,1.9,0,3.6-0.1,5.1c0,0.4,0,0.7,0,0.8C164.5,66.7,164.6,66.8,164.7,66.9z M175.3,64.4
	c-0.1,0.1-1.5,0.1-4,0.1c-2.6,0-3.9,0-4-0.1c-0.2-0.1-0.3-0.2-0.3-0.4c0-0.2,0-0.6,0-1.2c0-0.1,0-0.3,0-0.5c0-0.4,0-0.7,0.1-0.9
	c0.1-0.2,0.4-0.3,0.8-0.3c0.3,0,1.1,0,2.3,0c0.5,0,0.9,0,1.2,0s0.7,0,1.2,0c1.2,0,1.9,0,2.3,0c0.4,0,0.7,0.2,0.8,0.3
	c0.1,0.1,0.1,0.4,0.1,0.9c0,0.2,0,0.4,0,0.5c0,0.7,0,1.1,0,1.3C175.5,64.2,175.4,64.4,175.3,64.4z M171.2,60.5c-2.6,0-4,0-4.1-0.1
	c-0.1-0.1-0.2-0.2-0.2-0.4c0-0.2,0-0.6,0-1.2c0-0.1,0-0.2,0-0.4c0-0.4,0-0.7,0.1-0.8c0.1-0.1,0.4-0.2,0.8-0.3c0.3,0,1.1,0,2.3,0
	c0.5,0,0.9,0,1.2,0s0.7,0,1.2,0c1.2,0,1.9,0,2.3,0c0.4,0,0.7,0.1,0.8,0.3c0.1,0.1,0.1,0.4,0.1,0.8c0,0.2,0,0.3,0,0.4
	c0,0.6,0,1,0,1.2c0,0.2-0.1,0.3-0.2,0.4C175.2,60.5,173.8,60.5,171.2,60.5z M161.2,54.3c0.1,0,0.1,0.1,0.2,0c0,0,0.1,0,0.2,0
	c0.7-0.1,1.2-0.2,1.5-0.2c0.3,0,3.4-0.1,9.4-0.1c0.4,0,0.9,0,1.6,0c2.8,0,4.6,0,5.3,0c1,0,1.7,0,2-0.1c0.2,0,0.3-0.1,0.3-0.2
	c0,0,0-0.1,0-0.1c0-0.1-0.1-0.3-0.5-0.6c-0.3-0.3-0.7-0.7-1.2-1l0,0c-0.4-0.3-0.6-0.4-0.7-0.4c-0.1,0-0.3,0.2-0.6,0.7
	c0,0-0.1,0.1-0.1,0.1c0,0-0.1,0.1-0.1,0.2c-0.3,0.4-0.5,0.6-0.7,0.6c-0.2,0.1-0.6,0.1-1.4,0.1c-0.2,0-0.3,0-0.4,0
	c-0.9,0-1.4,0-1.6,0c-0.3,0-0.4-0.2-0.3-0.3c0-0.1,0.3-0.4,0.7-0.8c0.2-0.2,0.6-0.6,1.2-1.3c0,0,0.1-0.1,0.1-0.1
	c0.4-0.5,0.6-0.7,0.7-0.8c0.1-0.1,0.2-0.2,0.3-0.2c0.2-0.1,0.3-0.1,0.3-0.2s-0.2-0.2-0.5-0.3c-0.6-0.3-0.8-0.5-0.6-0.6
	c0.2-0.1,1-0.1,2.4-0.1c1.1,0,1.8,0,2,0c0.2,0,0.3-0.1,0.4-0.2c0.1-0.2-0.3-0.7-1.3-1.4l0,0c-0.5-0.4-0.8-0.6-1-0.6
	c-0.1,0-0.4,0.3-0.7,0.7l0,0c0,0-0.1,0.1-0.1,0.2c-0.2,0.4-0.5,0.6-0.7,0.6c-0.2,0-0.8,0.1-1.8,0.1c-0.2,0-0.4,0-0.5,0
	c-1.1,0-1.7,0-1.9,0c-0.2,0-0.3-0.1-0.4-0.1c-0.2-0.2-0.2-0.5-0.2-0.9c0-0.4,0.2-0.7,0.4-0.9c0.2-0.2,0.2-0.3-0.1-0.4
	c-0.2-0.1-0.8-0.3-1.7-0.5c0,0-0.1,0-0.2,0c-0.4-0.1-0.7-0.2-0.7-0.1c-0.1,0-0.1,0.2-0.1,0.5c0,0.1,0,0.1,0,0.1c0,0.1,0,0.3,0,0.5
	c0,0.7,0,1.1,0,1.3c-0.1,0.3-0.3,0.4-0.6,0.5c-0.3,0-0.9,0-1.9,0c-0.3,0-0.5,0-0.7,0c-2.2,0-3.8,0-4.7-0.1c-0.2,0-0.3,0-0.4,0
	c0,0,0.1,0.2,0.2,0.5c0,0,0,0,0,0.1c0.1,0.2,0.2,0.4,0.3,0.4c0.1,0,0.3,0,0.5,0c0.1,0,0.1,0,0.2,0c2-0.3,2.9-0.3,2.9,0
	c0,0.1,0.1,0.3,0.2,0.6c0.4,0.8,0.7,1.6,0.9,2.4s0.3,1.4,0.1,1.5c-0.1,0.1-0.9,0.1-2.4,0.1c-1.5,0-2.7,0-3.6-0.1c-0.2,0-0.4,0-0.4,0
	c0,0,0.1,0.2,0.2,0.5C161,54,161.2,54.2,161.2,54.3z M172.6,53.2c-0.2,0.1-0.8,0.1-1.9,0.1c-1.1,0-1.6-0.1-1.7-0.1
	c-0.1-0.1-0.1-0.1-0.1-0.2c0-0.1,0-0.2,0.1-0.4c0.2-0.5,0.2-1.1-0.1-1.7c-0.3-0.6-0.7-1.1-1.4-1.6l0,0c-0.5-0.3-0.8-0.6-0.8-0.6
	c0-0.1,0.2-0.2,0.7-0.2c0.4,0,1.4,0,2.9,0c0.2,0,0.4,0,0.7,0c1.2,0,2,0,2.3,0c0.4,0,0.7,0.1,0.8,0.2c0,0.1,0,0.3,0,0.6
	c0,0.1,0,0.1,0,0.1c-0.3,1-0.5,1.8-0.8,2.6C173,52.8,172.8,53.2,172.6,53.2z M194.8,66.4c0.9,0.1,3.1,0.1,6.4,0s5.3-0.1,5.9-0.2
	c0.7-0.1,1.3-0.3,1.8-0.6c0.4-0.3,0.7-0.6,0.7-0.9s-0.2-0.6-0.7-0.8c-0.4-0.2-0.6-0.4-0.6-0.6s-0.1-0.8-0.1-1.7s0-1.5-0.1-1.6
	c-0.1-0.1-0.2,0.1-0.4,0.7c0,0.1-0.1,0.3-0.1,0.5c-0.3,1.1-0.6,1.8-0.8,2.1c-0.3,0.4-0.9,0.7-1.8,0.8c-0.6,0.1-2,0.1-4.2,0.1
	c-0.4,0-0.7,0-0.9,0c-0.4,0-1,0-1.7,0c-1.9,0-3,0-3.5-0.1c-0.7-0.1-1.1-0.3-1.3-0.6c-0.1-0.3-0.2-0.8-0.1-1.8c0-0.4,0-0.7,0-0.9
	c0-0.1,0-0.2,0-0.4c0-1,0-1.6,0-1.8c0-0.2,0.1-0.3,0.3-0.4l0,0c0.1-0.1,1.9-0.1,5.2-0.1c3.4,0,5.2,0,5.3,0.1
	c0.1,0.1,0.2,0.1,0.3,0.2c0,0.1,0.1,0.2,0.1,0.5c0,0.4,0.1,0.6,0.2,0.7c0.1,0.1,0.4,0.1,0.8,0c0.5-0.1,0.8-0.2,1-0.3
	c0.2-0.1,0.3-0.3,0.3-0.6c0-0.2,0-0.6,0-1.3c-0.1-2-0.1-3.3,0-3.8c0-0.5,0.2-0.9,0.4-1c0.4-0.2,0.5-0.4,0.5-0.5
	c0-0.2-0.3-0.4-0.8-0.9c-0.6-0.5-1-0.8-1.2-0.8c-0.2,0-0.4,0.1-0.7,0.4c0,0-0.1,0.1-0.1,0.2c-0.3,0.3-0.5,0.5-0.7,0.5
	c-0.2,0-0.7,0.1-1.6,0.1c-0.2,0-0.3,0-0.4,0c-1,0-1.7,0-2,0c-0.4,0-0.5-0.2-0.5-0.3c0-0.1,0.3-0.4,0.7-0.7c0.6-0.5,1.1-1,1.3-1.2
	c0.6-0.6,1.1-0.9,1.4-1c0.3-0.1,0.4-0.2,0.4-0.3c0-0.1-0.3-0.4-0.7-0.8c-0.6-0.6-1-0.9-1.2-1c-0.2-0.1-0.5,0.1-0.8,0.5
	c0,0-0.1,0.1-0.1,0.1c-0.3,0.3-0.5,0.5-0.7,0.5c-0.2,0-0.7,0.1-1.5,0.1c-0.2,0-0.3,0-0.4,0c-1,0-1.6,0-1.8,0c-0.2,0-0.3-0.1-0.3-0.3
	c0-0.2,0.1-0.5,0.3-0.9s0.5-0.6,0.7-0.7c0.6-0.1-0.2-0.5-2.1-1.1c-0.4-0.1-0.6-0.2-0.7-0.1c-0.1,0-0.1,0.1-0.2,0.3
	c-0.3,1.4-1,3-2,4.8c-1,1.8-2.2,3.3-3.5,4.7c-0.3,0.3-0.5,0.5-0.5,0.6c0,0.1,0,0.1,0.2,0.1s0.8-0.4,1.9-1.2c0.3-0.2,0.5-0.3,0.6-0.4
	c0.1,0,0.2,0,0.3,0.1c0,0,0.1,0.3,0.1,0.8c0,0.4,0,1.9,0,4.3c0,0.1,0,0.1,0,0.1c0,2.7,0,4.2,0,4.7c0,0.5,0.1,0.9,0.2,1.2l0,0
	C191.9,65.7,193,66.3,194.8,66.4z M202.4,57.6c-1.2,0-1.9,0-2.1-0.1c-0.2-0.1-0.3-0.2-0.3-0.5c0-0.3,0-0.9,0-2.1c0-0.2,0-0.4,0-0.7
	c0-0.7,0-1.1,0-1.3c0-0.3,0.2-0.4,0.4-0.5c0.2,0,0.6-0.1,1.2-0.1c0.3,0,0.5,0,0.6,0s0.4,0,0.7,0c0.6,0,1,0,1.2,0
	c0.2,0.1,0.4,0.2,0.5,0.5c0,0.2,0.1,0.6,0,1.3c0,0.3,0,0.5,0,0.7c0,1.1,0,1.8,0,2c0,0.2-0.1,0.4-0.2,0.5
	C204.3,57.5,203.7,57.5,202.4,57.6z M195.7,57.6c-1.2,0-1.9,0-2-0.1c-0.2-0.2-0.3-1-0.3-2.5s0.1-2.3,0.3-2.5c0.1-0.1,0.8-0.1,2-0.1
	c1.2,0,1.9,0,2,0.1c0.2,0.2,0.3,1,0.3,2.4s-0.1,2.3-0.3,2.4C197.6,57.5,197,57.6,195.7,57.6z M196.1,51.7c-1.5,0-2.3,0-2.4-0.1
	c-0.4-0.1-0.5-0.3-0.5-0.4c0-0.2,0.3-0.6,0.7-1.1c0.2-0.2,0.5-0.6,0.9-1.1c0,0,0.1-0.1,0.1-0.2c0.2-0.3,0.4-0.5,0.6-0.6
	c0.2,0,0.7-0.1,1.6-0.1c0.2,0,0.4,0,0.5,0c1,0,1.6,0,1.9,0c0.4,0,0.6,0.2,0.6,0.3c0,0.1,0,0.4-0.2,0.8c-0.6,1.4-1.1,2.1-1.4,2.3
	C198.3,51.6,197.5,51.7,196.1,51.7z M225.8,66.9c0.2,0.1,0.6,0.1,1,0c0.5-0.1,0.9-0.3,1.2-0.6l0,0c0.1-0.1,0.1-0.2,0.1-0.3
	c0-0.2,0-0.7,0-1.6c0-0.5,0-0.8,0-1.1c0-1,0-2.1,0-3.3c0-1.2,0-1.8,0.1-1.9c0.1-0.1,0.2-0.2,0.5-0.2c0.2,0,1,0,2.4,0
	c0.1,0,0.3,0,0.5,0c0.9,0,1.5,0,1.7,0c0.3,0,0.5,0.1,0.6,0.2c0,0.1,0.1,0.3,0,0.6c0,0.1,0,0.1,0,0.2c0,0.5,0,0.7,0.1,0.8
	c0.1,0.1,0.4,0.1,0.9,0c0.7-0.1,1.1-0.3,1.2-0.5c0.1-0.2,0.2-0.7,0.1-1.6c-0.1-2.6-0.1-4.4-0.1-5.2c0-0.8,0.2-1.3,0.4-1.4
	c0,0,0,0,0.1,0c0.3-0.2,0.4-0.3,0.4-0.4c0-0.1-0.3-0.5-1-1c-0.7-0.5-1.1-0.8-1.3-0.8c-0.1,0-0.3,0.2-0.7,0.7c0,0,0,0.1-0.1,0.1
	c-0.2,0.2-0.4,0.4-0.6,0.4c-0.2,0-0.8,0-1.9,0c-0.2,0-0.4,0-0.6,0c-0.2,0-0.5,0-0.8,0c-0.8,0-1.3,0-1.5,0c-0.3,0-0.5-0.2-0.6-0.4
	c0-0.1-0.1-0.5,0-1c0-0.2,0-0.4,0-0.5c0-0.8,0-1.4,0-1.5c0-0.2,0.1-0.3,0.3-0.5c0.2-0.2,0.2-0.4-0.1-0.5c-0.2-0.1-0.9-0.4-2-0.6
	c-0.4-0.1-0.7-0.2-0.8-0.1c-0.1,0-0.1,0.1-0.1,0.3c0.1,0.7,0.2,1.6,0.2,2.7c0,1.1,0,1.7,0,1.9l0,0c-0.1,0.1-0.2,0.2-0.5,0.3
	c-0.2,0-1,0-2.4,0c-0.2,0-0.4,0-0.7,0c-1,0-1.6,0-1.8,0c-0.3,0-0.7-0.2-1.2-0.4c-0.2-0.1-0.3-0.1-0.4-0.2c-0.1,0-0.1-0.1-0.2-0.1
	c-0.5-0.2-0.8-0.3-0.8-0.3c-0.1,0-0.1,0.2,0,0.5c0,0.1,0,0.1,0,0.1c0.1,1.1,0.2,2.6,0.2,4.5c0,1.8,0,3.5-0.1,4.9c0,0.5,0,0.9,0.1,1
	c0.1,0.1,0.4,0.1,0.9,0c0.5-0.1,0.9-0.3,1.1-0.4c0.2-0.2,0.3-0.5,0.3-0.8c0,0,0-0.1,0-0.2c0-0.3,0-0.5,0.1-0.6
	c0.1-0.1,0.3-0.2,0.6-0.2c0.2,0,0.8,0,1.7,0c0.2,0,0.4,0,0.6,0c1.3,0,2.1,0,2.4,0c0.2,0,0.4,0.1,0.5,0.3c0.1,0.1,0.1,1.1,0.1,2.7
	c0,1.7-0.1,3.2-0.1,4.5c0,0.7-0.1,1.2,0,1.3C225.5,66.7,225.6,66.8,225.8,66.9z M222.8,57c-1.6,0-2.5,0-2.6-0.1
	c-0.1-0.1-0.2-0.2-0.3-0.5c0-0.3,0-1.2,0-2.6c0-0.3,0-0.6,0-1c0-0.8,0-1.3,0-1.6c0.1-0.3,0.2-0.5,0.5-0.6c0.2,0,0.7-0.1,1.4,0
	c0.4,0,0.7,0,0.9,0s0.6,0,0.9,0c0.7,0,1.2,0,1.4,0c0.3,0.1,0.4,0.3,0.5,0.6c0,0.2,0.1,0.7,0,1.6c0,0.4,0,0.8,0,1c0,1.5,0,2.3,0,2.6
	c0,0.3-0.1,0.4-0.3,0.5C225.2,56.9,224.4,57,222.8,57z M233.5,56.9c-0.1,0.1-1,0.1-2.6,0.1c-1.6,0-2.4,0-2.6-0.1
	c-0.2-0.1-0.3-0.2-0.3-0.5c0-0.3,0-1.1,0-2.6c0-0.3,0-0.6,0-1c0-0.8,0-1.3,0-1.6c0.1-0.3,0.2-0.5,0.5-0.6c0.2,0,0.7-0.1,1.4,0
	c0.4,0,0.7,0,0.9,0s0.6,0,0.9,0c0.8,0,1.2,0,1.4,0c0.3,0.1,0.4,0.3,0.5,0.6c0,0.2,0.1,0.7,0,1.6c0,0.4,0,0.8,0,1c0,1.5,0,2.4,0,2.6
	C233.8,56.6,233.7,56.8,233.5,56.9z M259.7,66.9c0.1,0.1,0.3,0.1,0.8,0s0.8-0.2,1.2-0.4c0.6-0.3,1.1-0.8,1.5-1.6
	c0.4-0.8,0.6-2.1,0.8-3.8c0.2-1.6,0.3-3.9,0.4-7c0-0.2,0-0.4,0-0.8c0-1.6,0.1-2.5,0.1-2.7c0-0.3,0.2-0.5,0.4-0.6c0,0,0.1,0,0.1,0
	c0.2-0.1,0.3-0.2,0.4-0.2c0-0.1,0-0.1,0-0.2c-0.1-0.2-0.4-0.5-0.8-0.9c-0.5-0.4-0.8-0.7-1-0.8c-0.1-0.1-0.2-0.1-0.3,0
	c-0.1,0-0.2,0.2-0.5,0.5c0,0-0.1,0.1-0.1,0.1c-0.3,0.3-0.5,0.5-0.7,0.6c-0.2,0-0.7,0.1-1.4,0.1c-0.2,0-0.3,0-0.4,0
	c-0.1,0-0.2,0-0.3,0c-0.7,0-1.2,0-1.3,0c-0.3,0-0.4-0.2-0.4-0.3c0-0.1,0.1-0.4,0.3-0.9c0-0.1,0.1-0.1,0.1-0.2
	c0.3-0.7,0.5-1.1,0.6-1.3c0.1-0.2,0.2-0.3,0.4-0.4c0.3-0.1,0.2-0.3-0.1-0.5c-0.4-0.2-1.1-0.5-2.2-0.8l0,0c-0.2-0.1-0.4-0.1-0.4,0
	c0,0-0.1,0.2-0.1,0.6c0,0,0,0.1,0,0.1c-0.3,2.3-1,4.8-2.2,7.6c-0.4,1-0.7,1.4-0.9,1.4c-0.1-0.1-0.2-0.7-0.2-2c0-1,0-1.6,0.1-1.8
	c0-0.2,0.2-0.4,0.5-0.6c0.2-0.1,0.3-0.3,0.2-0.5c-0.1-0.2-0.5-0.5-1.1-1c-0.4-0.4-0.7-0.5-0.9-0.5c-0.1,0-0.3,0.2-0.6,0.6
	c-0.3,0.4-0.8,0.6-1.5,0.7c-0.7,0.1-1-0.1-1-0.4c0-0.2,0.3-0.7,0.8-1.6c0.6-0.8,0.9-1.3,1.1-1.4c0.4-0.1,0.4-0.3,0.1-0.4
	c-0.3-0.2-0.9-0.4-2-0.6c0,0-0.1,0-0.2,0c-0.4-0.1-0.6-0.1-0.7-0.1c-0.1,0-0.1,0.2-0.1,0.6c0,0.1,0,0.2,0,0.2c0,0.5,0,1-0.1,1.5
	c-0.1,0.8-0.2,1.4-0.2,1.6c-0.1,0.3-0.3,0.4-0.5,0.4c-0.2,0-0.6-0.2-1.2-0.5c-0.6-0.3-0.9-0.4-1-0.4c0,0-0.1,0-0.1,0.1
	c0,0.1,0,0.3,0.1,0.8c0.1,1.1,0.2,3.5,0.2,7.1c0,3.8-0.1,6.6-0.2,8.4c-0.1,0.8,0,1.3,0.1,1.5s0.5,0.2,1.1,0c0.4-0.1,0.7-0.3,0.8-0.5
	c0.1-0.2,0.2-0.5,0.2-1v0c0-0.4,0-0.6,0-0.7c0.1-0.1,0.2-0.2,0.5-0.3c0.2,0,0.6,0,1.3,0c0,0,0.1,0,0.1,0s0.1,0,0.1,0
	c0.7,0,1.1,0,1.3,0c0.3,0,0.4,0.1,0.5,0.2c0,0.1,0.1,0.3,0.1,0.6v0.1c0,0.5,0.1,0.8,0.4,0.8c0.3,0.1,0.7,0,1.4-0.4
	c0,0,0.1,0,0.2-0.1c0.2-0.1,0.3-0.2,0.3-0.4c0-0.2,0-0.8,0-1.8c0-0.5,0-0.8,0-1.1c0-1.1,0-2.4,0-4.1c0-1.7,0-2.6,0.1-2.7
	c0-0.1,0.1-0.3,0.2-0.3c0.1-0.1,0.1-0.1,0,0c0,0.1,0,0.1,0.1,0.2c0.1,0,0.1,0,0.2,0c0.2-0.1,0.6-0.6,1.3-1.5
	c0.7-0.9,1.3-1.8,1.8-2.6c0,0,0,0,0-0.1c0.2-0.4,0.5-0.6,0.7-0.7c0.2-0.1,0.9-0.1,2-0.1c0.1,0,0.1,0,0.2,0c0.2,0,0.4,0,0.6,0
	c0.7,0,1.1,0,1.2,0c0.2,0,0.4,0.2,0.5,0.4c0,0.1,0.1,0.5,0,1c0,0.2,0,0.4,0,0.5c0,2.3-0.1,4.5-0.2,6.6c-0.1,2.1-0.3,3.5-0.5,4.4
	c-0.1,0.5-0.3,0.9-0.5,1.1c-0.2,0.2-0.6,0.4-1,0.4c-0.4,0-1.1,0-2.1-0.1c-0.5,0-0.8-0.1-0.9,0c-0.1,0-0.1,0.1-0.1,0.2
	c0,0.1,0.2,0.2,0.6,0.3c1.5,0.4,2.2,1,2.2,2.1C259.7,66.7,259.7,66.8,259.7,66.9z M248.5,62.8c-0.6,0-0.9,0-1.1-0.1
	c-0.2-0.1-0.3-0.3-0.4-0.6c0-0.2-0.1-0.8,0-1.7c0-0.4,0-0.7,0-0.9c0-0.2,0-0.5,0-0.8c0-0.8,0-1.4,0-1.6c0.1-0.3,0.2-0.5,0.4-0.6
	c0.1-0.1,0.5-0.1,1.1-0.1c0.2,0,0.4,0,0.6,0s0.3,0,0.6,0c0.6,0,0.9,0,1.1,0.1c0.2,0.1,0.3,0.3,0.4,0.6c0,0.2,0,0.8,0,1.6
	c0,0.4,0,0.6,0,0.8c0,1.5,0,2.3,0,2.6c0,0.3-0.1,0.4-0.2,0.5c-0.1,0.1-0.2,0.1-0.4,0.1c-0.1,0-0.6,0-1.4,0
	C249,62.8,248.8,62.8,248.5,62.8z M258.2,59.4c0.4,0.1,0.7,0.1,1-0.1c0.3-0.2,0.5-0.6,0.5-1c0-0.7-0.2-1.4-0.8-2
	c-0.5-0.7-1.3-1.3-2.4-1.8c-0.6-0.3-0.9-0.4-1-0.4c-0.1,0,0,0.3,0.3,0.7c1,1.5,1.6,2.9,1.8,4.1C257.7,59.1,257.9,59.3,258.2,59.4z
	 M248.6,55.8c-0.6,0-0.9,0-1.1-0.1c-0.2-0.1-0.3-0.3-0.4-0.6c0-0.2-0.1-0.7,0-1.6c0-0.4,0-0.7,0-0.9c0-0.2,0-0.4,0-0.8
	c0-0.8,0-1.3,0-1.5c0.1-0.3,0.2-0.5,0.4-0.6c0.1,0,0.5-0.1,1-0.1c0.2,0,0.4,0,0.6,0s0.3,0,0.6,0c0.6,0,0.9,0,1.1,0.1
	c0.2,0.1,0.3,0.2,0.4,0.6c0,0.2,0.1,0.7,0.1,1.5c0,0.3,0,0.6,0,0.7c0,1.4,0,2.2,0,2.5c0,0.3-0.1,0.4-0.2,0.5
	c-0.1,0.1-0.2,0.1-0.4,0.1c-0.1,0-0.6,0-1.4,0C249,55.8,248.8,55.8,248.6,55.8z M271.9,66.8c0.2,0.2,0.7-0.2,1.7-0.9
	c1-0.8,1.8-1.5,2.4-2.2c0.4-0.4,0.6-0.7,0.7-0.7c0.1,0,0.4,0.2,0.9,0.7c0.9,0.9,1.9,1.5,3.1,1.9c1.2,0.4,2.8,0.7,4.7,0.8
	c0.5,0,1.7,0,3.7,0c2,0,2.9,0,3,0c0,0,0-0.1,0.1-0.3c0-0.3,0.2-0.6,0.3-0.8c0.2-0.3,0.4-0.4,0.6-0.6c0.2-0.1,0.2-0.2,0.3-0.2
	c0-0.1,0-0.1-0.1-0.1c-0.1,0-0.4,0-0.8,0c-0.3,0-1.1,0-2.3,0c-3.5,0-6-0.1-7.6-0.3c-1.6-0.2-2.9-0.7-4-1.4c-0.5-0.4-0.9-0.6-0.9-0.8
	c-0.1-0.2,0-0.6,0.2-1.1c0.5-1.3,1-2.8,1.3-4.6c0.1-0.6,0.2-0.9,0.2-1.1c0.1-0.2,0.2-0.3,0.4-0.4c0.2-0.1,0.3-0.2,0.3-0.2
	c0-0.1,0-0.2,0-0.3c-0.1-0.2-0.4-0.5-0.9-1c-0.5-0.4-0.8-0.6-1-0.6c0,0-0.3,0.2-0.6,0.6c-0.3,0.3-0.5,0.5-0.7,0.6
	c-0.1,0.1-0.3,0.1-0.6,0.1c-0.4,0-0.6,0-0.6-0.1c-0.1-0.1-0.1-0.3,0-0.6c0.1-0.3,0.4-0.8,0.8-1.7c0.2-0.3,0.4-0.8,0.7-1.5
	c0.2-0.4,0.4-0.7,0.4-0.8c0.4-0.9,0.8-1.3,1.1-1.3c0.4,0,0.5-0.1,0.4-0.4c-0.1-0.3-0.4-0.6-1-1.1c-0.4-0.4-0.7-0.6-0.8-0.6
	c-0.1,0-0.3,0.2-0.7,0.5c-0.3,0.3-0.5,0.5-0.7,0.6c-0.1,0-0.5,0.1-1.2,0c-0.1,0-0.1,0-0.1,0c-1.3,0-2.1-0.1-2.4-0.1
	c-0.2,0-0.2,0.1,0.1,0.6c0,0,0,0.1,0.1,0.1c0.1,0.2,0.2,0.3,0.3,0.4c0.1,0,0.2,0,0.5,0c0.1,0,0.1,0,0.2,0c1.1-0.2,1.9-0.3,2.2-0.1
	c0.4,0.1,0.5,0.5,0.2,1c-0.7,1.7-1.6,3.6-2.5,5.5c0,0.1-0.1,0.1-0.1,0.2c-0.2,0.5-0.4,0.8-0.4,0.9c0,0.1,0.1,0.2,0.3,0.2l0,0
	c0.9,0.3,1.4,0.2,1.7-0.2c0.2-0.4,0.3-0.6,0.5-0.6c0.2-0.1,0.5-0.1,1-0.1c0.5,0,0.8,0,0.9,0.1c0.2,0.1,0.3,0.3,0.3,0.6
	c0,0.2,0,0.7-0.1,1.4c-0.2,1.6-0.5,2.6-0.7,3c-0.2,0.4-0.5,0.2-0.8-0.4c-0.4-0.8-0.6-1.3-0.6-1.5c0-0.3,0-0.6,0.2-0.9
	c0.1-0.2,0.2-0.4,0.2-0.4c0,0-0.1-0.1-0.3-0.1c-0.2,0-0.3-0.1-0.3-0.1c-0.1,0-0.2,0.1-0.2,0.5c0,0.3-0.1,0.6-0.3,0.7
	c-0.1,0.2-0.5,0.6-1.1,1.2c-0.8,0.7-1.1,1.1-1.1,1.2c0,0,0.2,0.3,0.6,0.7s0.7,0.7,0.7,0.7c0,0,0.1,0,0.1-0.1c0-0.1,0-0.2,0-0.3
	c0-0.1,0.1-0.5,0.4-1.1c0.3-0.6,0.5-1,0.6-1.1c0.1-0.1,0.2-0.2,0.3-0.1c0.1,0,0.1,0.2,0.2,0.5c0,0.1,0.1,0.4,0.3,0.9
	c0.1,0.2,0.1,0.4,0.2,0.5c0.2,0.5,0.3,0.9,0.3,1.1c0,0.2-0.1,0.4-0.2,0.8c-0.6,1.5-1.6,2.8-2.8,4C272,66.4,271.8,66.7,271.9,66.8z
	 M279.7,62c0.1,0,0.2,0,0.5-0.1c0.7-0.1,1.4-0.2,2.1-0.2c0.7,0,2.5,0,5.2,0c0.3,0,0.6,0,1.1,0c1.7,0,2.8,0,3.2,0c0.6,0,1,0,1.2-0.1
	c0.1,0,0.2-0.1,0.2-0.2v0c0-0.1-0.2-0.4-0.6-0.9c-0.4-0.5-0.8-0.8-1.2-1.1c-0.2-0.1-0.3-0.1-0.4,0c-0.1,0.1-0.3,0.4-0.7,0.9
	c-0.3,0.4-0.5,0.6-0.6,0.7c-0.1,0.1-0.4,0.1-0.9,0.1c-0.1,0-0.1,0-0.2,0c-0.3,0-0.5,0-0.6-0.1c-0.1-0.1-0.2-0.3-0.2-0.7
	c0-0.3,0-0.9,0-1.9c0-0.3,0-0.6,0-0.8c0-0.3,0-0.6,0-1.1c0-0.9,0-1.5,0-1.7c0-0.3,0.2-0.5,0.4-0.6c0.2,0,0.5-0.1,1.1,0
	c0.3,0,0.6,0,0.7,0c1.1,0,1.8,0,2.1-0.1c0.4-0.1,0.5-0.2,0.4-0.4c-0.1-0.2-0.4-0.6-0.9-1.1c-0.5-0.5-0.9-0.8-1-0.8
	c-0.1,0-0.4,0.2-0.6,0.7c-0.3,0.5-0.6,0.8-0.7,0.9c-0.1,0.1-0.4,0.2-0.7,0.2h0c-0.3,0-0.5,0-0.6-0.1c-0.1-0.1-0.2-0.3-0.2-0.7
	c0-0.3,0-0.9,0-1.9c0-0.1,0-0.2,0-0.2c0-0.2,0-0.4,0-0.7c0-0.8,0-1.3,0-1.5c0-0.3,0.1-0.5,0.3-0.6c0.1-0.1,0.3-0.1,0.7-0.2
	c0.1,0,0.2,0,0.3,0c0.7-0.2,1.2-0.3,1.4-0.3c0.5-0.1,1-0.2,1.4-0.1c0.2,0,0.3,0,0.5,0c0.1,0,0.2-0.1,0.2-0.1c0,0-0.4-0.4-1.1-1.1
	c-0.7-0.7-1.1-1-1.1-1c0,0-0.3,0.1-0.7,0.3c-1.1,0.5-2.5,1.1-4.2,1.6c-1.7,0.5-3.3,1-4.7,1.2c-0.4,0.1-0.6,0.1-0.6,0.2
	c-0.1,0-0.1,0.1-0.1,0.2c0,0.2,1.2,0.1,3.6-0.1c0.2,0,0.4,0,0.7-0.1c0.5-0.1,0.9-0.1,1,0c0.2,0.1,0.3,0.5,0.4,1.1c0,0.4,0,1.5,0,3.1
	c0,0.9,0,1.6,0,2.1c0,0.5,0,1.1,0,1.9c0,1.7,0,2.8,0,3.3c0,0.6-0.1,1-0.2,1.2c-0.1,0.1-0.3,0.2-0.6,0.1c-0.2,0-0.3,0-0.4,0
	c-0.1,0-0.2,0-0.3,0c-0.3,0-0.6,0-0.6-0.1c-0.1-0.1-0.2-0.4-0.2-0.9c0-0.3,0-1.1,0-2.4c0-0.5,0-0.9,0-1.1c0-0.2,0-0.4,0-0.7
	c0-1.6,0-2.6,0-2.9c0-0.3,0.1-0.5,0.3-0.6c0.2-0.2,0.2-0.3-0.1-0.5c-0.3-0.2-0.9-0.4-1.8-0.6c0,0-0.1,0-0.1,0
	c-0.3-0.1-0.5-0.1-0.5-0.1c0,0,0,0.2,0,0.4c0,0,0,0.1,0,0.1c0.1,1.2,0.2,3,0.2,5.4c0,0,0,0.1,0,0.2c0,1.5,0,2.5-0.1,2.9
	c0,0.5-0.2,0.9-0.4,0.9c-0.2,0.1-0.6,0-1.2-0.1c-0.2,0-0.2,0.1-0.2,0.3C279.3,61.5,279.4,61.7,279.7,62C279.7,62,279.7,62,279.7,62z
	 M300.8,66.8c0,0.1,0.1,0.1,0.2,0c0.1-0.1,0.1-0.2,0.1-0.3c0-0.1,0.2-0.3,0.3-0.5c0.4-0.5,1-1.2,1.7-2.1c0.4-0.5,0.6-0.7,0.8-0.7
	c0.2,0,0.4,0.2,0.7,0.6c0.6,0.8,1.1,1.4,1.7,1.7c0.7,0.4,1.6,0.6,2.9,0.7c1.1,0.1,3,0.2,5.7,0.2c0.3,0,0.6,0,1.1,0c1.9,0,3,0,3.3,0
	c0.3,0,0.5-0.1,0.5-0.2v0c0.2-0.7,0.5-1.1,1-1.4c0.3-0.1,0.4-0.2,0.4-0.3c0,0-0.1-0.1-0.5-0.1c-0.3,0-0.9,0-1.8,0
	c-4.8,0-8.1,0-9.6,0c-1.6-0.1-2.7-0.3-3.4-0.6c-0.4-0.2-0.5-0.3-0.6-0.5c0-0.2,0.1-0.4,0.4-0.7c1.4-1.7,2.3-4,2.6-7
	c0-0.2,0.1-0.5,0.1-1c0-0.1,0-0.2,0-0.2c0-0.3,0-1.1,0-2.4c0-1,0-1.7,0-1.9c0-0.2,0.1-0.3,0.2-0.4c0.1-0.1,0.9-0.1,2.3-0.1
	c1.4,0,2.1,0,2.3,0.1c0.2,0.1,0.3,0.2,0.1,0.2c-0.1,0-0.2,0.1-0.1,0.2c0,0.1,0.1,0.6,0.1,1.5c0,0.9,0,1.5,0,1.8c0,0.6,0,0.9,0.1,1.1
	s0.4,0.1,0.9,0c0.5-0.1,0.8-0.2,0.9-0.4c0.1-0.1,0.2-0.4,0.1-0.9c-0.1-1.3,0-2,0.2-2.2c0.2-0.1,0.2-0.2,0.1-0.3
	c-0.1-0.1-0.4-0.2-0.9-0.5c-0.7-0.3-1-0.5-0.9-0.6c0.1-0.1,0.8-0.1,2-0.1c0.9,0,1.5,0,1.8,0.1c0.2,0,0.3,0.1,0.3,0.3
	c0,0.2,0.1,0.2,0.3,0.2c0.3,0,0.3,0.2,0,0.7c-0.2,0.3-0.4,0.5-0.6,0.6c-0.2,0.1-0.6,0.1-1.1,0c0,0-0.1,0-0.1,0c-0.2,0-0.3,0-0.4,0
	c0,0,0,0.1,0.1,0.3c0,0,0,0.1,0,0.1c0.1,0.3,0.2,0.5,0.3,0.5c0.1,0,0.2,0,0.4,0c0.4-0.2,0.9-0.2,1.6-0.1c0.4,0,0.8,0,1.3-0.1
	c0.5-0.1,0.4-0.6-0.5-1.4c-0.2-0.2-0.3-0.4-0.3-0.5c0-0.1,0.2-0.2,0.6-0.4c0.2-0.1,0.4-0.2,0.4-0.3c0-0.1,0.1-0.4,0-0.8
	c0,0,0-0.1,0-0.1c0-0.7,0-1.1,0-1.3s0.2-0.4,0.4-0.5c0.3-0.2,0.4-0.3,0.3-0.5c-0.1-0.2-0.4-0.5-0.9-0.9c-0.5-0.4-0.9-0.7-1-0.7
	c-0.1,0-0.4,0.2-0.6,0.5c0,0-0.1,0.1-0.1,0.2c-0.1,0.2-0.3,0.3-0.4,0.4c-0.2,0.1-0.5,0.1-1,0.1c-0.3,0-1.1,0-2.3,0
	c-0.5,0-0.8,0-1.1,0c-0.2,0-0.6,0-1,0c-1.7,0-2.8,0-3.1,0c-0.4,0-0.8-0.2-1.3-0.4c-0.1,0-0.2-0.1-0.3-0.1c-0.1,0-0.2-0.1-0.3-0.1
	c-0.4-0.2-0.7-0.3-0.8-0.3c-0.1,0-0.1,0.1-0.1,0.3c0,0,0,0.1,0,0.1c0,0.1,0,0.3,0,0.6c0,0.2,0,0.3,0,0.4c0,0.4,0,1.8,0,4.2
	c0,2.4,0,3.9,0,4.5c-0.1,1.9-0.3,3.6-0.7,5.1c-0.4,1.5-0.7,2.3-1.1,2.3c-0.2,0-0.4-0.1-0.5-0.4c-0.1-0.3-0.1-1-0.1-2s0-1.7,0.1-1.9
	c0.1-0.2,0.2-0.4,0.6-0.5c0.4-0.2,0.5-0.3,0.4-0.6c-0.1-0.2-0.5-0.6-1.1-1.1c-0.5-0.4-0.8-0.6-1-0.6c-0.1,0-0.4,0.2-0.7,0.7
	c-0.3,0.4-0.6,0.6-1,0.7c-0.4,0.1-1,0-1.8-0.1c-0.1,0-0.2,0-0.2,0.1c0,0.1,0.1,0.2,0.2,0.5c0.1,0.3,0.2,0.4,0.3,0.5c0,0,0.1,0,0.3,0
	c0.5-0.2,0.9-0.2,1.3-0.2c0.4,0,0.6,0.2,0.6,0.4c0,0.1,0.1,0.9,0.1,2.4c0,1.4,0,2.2,0,2.4c0,0.2-0.2,0.4-0.5,0.6s-0.8,0.5-1.5,0.8
	c0,0-0.1,0-0.1,0.1c-0.3,0.1-0.4,0.2-0.4,0.3c0,0.1,0.1,0.4,0.3,0.8c0.1,0.1,0.1,0.2,0.1,0.3C300.6,66.4,300.8,66.8,300.8,66.8z
	 M313.7,63.9c0.2,0,0.5,0,0.9-0.1c0.4-0.1,0.6-0.2,0.8-0.4c0.1-0.1,0.1-0.4,0.1-1.1c0-0.1,0-0.2,0-0.3c0-0.4,0-0.7,0.1-0.8
	c0.1-0.2,0.3-0.3,0.6-0.3c0.2,0,0.8,0,1.6,0c0.3,0,0.5,0,0.6,0c1.2,0,1.9,0,2.2-0.1c0.4,0,0.6-0.2,0.6-0.3c0-0.1-0.3-0.4-0.7-0.8
	c-0.5-0.5-0.9-0.8-1.1-0.9c-0.2-0.1-0.4,0-0.6,0.3c0,0-0.1,0.1-0.2,0.2c-0.3,0.4-0.5,0.7-0.6,0.7c-0.1,0.1-0.4,0.1-0.9,0.1
	c-0.1,0-0.1,0-0.2,0c-0.7,0-1.1,0-1.2-0.1c-0.1-0.1-0.2-0.4-0.2-0.9c0,0,0-0.1,0-0.1c0-0.3,0-0.5,0.1-0.6c0.1-0.1,0.2-0.2,0.5-0.2
	c0.2,0,0.7,0,1.4,0c0.1,0,0.2,0,0.3,0c0,0,0.1,0,0.1,0c1.2,0,1.9-0.1,2-0.1c0.3-0.2,0.1-0.7-0.8-1.4c-0.4-0.4-0.7-0.5-0.8-0.5
	c-0.1,0-0.3,0.2-0.6,0.6c-0.3,0.4-0.5,0.6-0.6,0.7c-0.1,0.1-0.4,0.1-0.7,0.1c-0.4,0-0.7-0.1-0.9-0.3c-0.1-0.2,0-0.5,0.3-0.7
	c0.2-0.2,0.2-0.3,0.1-0.4c-0.1-0.1-0.4-0.2-1-0.4c-0.6-0.2-1.1-0.3-1.2-0.3c-0.2,0-0.2,0-0.2,0.1c0,0.1,0,0.4,0,0.9
	c0,0.5,0,0.8,0,0.8c-0.1,0.2-0.4,0.3-0.9,0.3c-0.5,0-0.8,0-0.9-0.2c-0.1-0.1-0.1-0.3,0-0.5c0.1-0.2,0.2-0.4,0.4-0.4
	c0.3-0.1,0.3-0.2,0.1-0.4c-0.2-0.1-0.6-0.3-1.4-0.6c-0.4-0.2-0.7-0.2-0.7-0.2c-0.1,0-0.1,0.1-0.1,0.3c-0.2,1.3-0.5,2.6-0.9,3.7
	c-0.1,0.3-0.2,0.5-0.1,0.6c0.1,0.1,0,0.1-0.1,0.2c-0.1,0-0.3,0.1-0.5,0c-0.2,0-0.3,0-0.3,0.1c0,0,0.1,0.2,0.2,0.6
	c0.1,0.3,0.2,0.4,0.3,0.5c0.1,0,0.2,0,0.5,0c0.7-0.1,1.7-0.2,2.9-0.2c0.7,0,1.1,0,1.3,0c0.3,0.1,0.4,0.2,0.5,0.5c0,0.2,0,0.6,0,1.3
	c0,0.6,0,0.9,0,1.1C313.4,63.7,313.5,63.8,313.7,63.9z M311.6,60.1c-1,0-1.6,0-1.8,0c-0.3-0.1-0.5-0.1-0.5-0.2s0-0.2,0.2-0.4
	c0.1-0.1,0.4-0.4,0.7-0.7c0.3-0.3,0.8-0.5,1.5-0.7c0.7-0.1,1.2-0.1,1.5,0.1c0.2,0.1,0.3,0.4,0.3,0.9c0,0.5-0.1,0.8-0.3,0.9
	C313.1,60,312.6,60.1,311.6,60.1z M309.4,54.6c0,0.1,0.4,0,0.9-0.1c0.3-0.1,0.8-0.1,1.3-0.1c0.7,0,1.1-0.1,1.2-0.2
	c0.1-0.1,0-0.4-0.4-0.8c-0.4-0.4-0.6-0.6-0.8-0.6c-0.2,0-0.4,0.1-0.6,0.4c-0.2,0.3-0.4,0.5-0.6,0.6c-0.2,0.1-0.6,0.1-1.1,0
	c-0.3-0.1-0.4-0.1-0.4,0c0,0,0,0.2,0.2,0.5C309.3,54.4,309.4,54.6,309.4,54.6z M316.4,54.6c0.1,0.1,0.3,0,0.6,0
	c0.6-0.1,1.4-0.2,2.1-0.2c0.6,0,1-0.1,1-0.2c0.1-0.2-0.1-0.5-0.6-1c-0.4-0.4-0.6-0.5-0.7-0.6c-0.1,0-0.3,0.2-0.5,0.5
	c-0.4,0.6-1.1,0.8-2.1,0.5c-0.1,0-0.2,0.1-0.2,0.3C316.2,54.1,316.3,54.4,316.4,54.6z M303,53.8c0.5,0.2,0.9,0.1,1.2-0.3
	c0.3-0.4,0.3-0.9,0.1-1.4c-0.4-0.9-1.4-1.4-2.9-1.8c-0.5-0.1-0.8-0.1-0.9,0c-0.1,0.1,0.1,0.3,0.4,0.6c0.8,0.8,1.4,1.6,1.8,2.4
	C302.7,53.6,302.8,53.8,303,53.8z M309.4,52.4c0,0,0.1,0,0.3,0c0,0,0.1,0,0.1,0c0.1-0.1,0.3-0.1,0.4-0.1c0.1,0,0.5,0,1.1,0
	c0.6,0,1,0,1.2,0c0.1,0,0.3-0.1,0.4-0.2c0.1-0.1,0.1-0.2,0-0.5c-0.1-0.2-0.3-0.5-0.6-0.7c-0.3-0.3-0.5-0.4-0.6-0.4s-0.2,0.1-0.4,0.3
	c-0.3,0.4-0.5,0.6-0.7,0.6c-0.2,0.1-0.5,0.1-1,0c-0.3-0.1-0.4-0.1-0.4,0c0,0,0,0.2,0.1,0.5C309.3,52.2,309.4,52.3,309.4,52.4z
	 M303.9,49c0.5,0.1,0.9,0,1-0.4c0.2-0.4,0.2-0.8,0-1.3c-0.2-0.5-0.6-1-1.1-1.3c-0.4-0.2-0.9-0.4-1.4-0.6c-0.5-0.1-0.8-0.2-1-0.1
	c-0.2,0-0.2,0.2,0,0.4c0.8,0.7,1.4,1.5,1.8,2.5c0.1,0.3,0.2,0.4,0.3,0.5C303.6,48.9,303.8,49,303.9,49z M313.3,48.9
	c-2.8,0-4.2,0-4.4-0.1c-0.1-0.1-0.2-0.2-0.3-0.3c0-0.1,0-0.4,0-0.7c0-0.4,0-0.6,0-0.7c0-0.1,0.1-0.2,0.3-0.3
	c0.1-0.1,1.6-0.1,4.4-0.1s4.2,0,4.4,0.1c0.3,0.1,0.4,0.5,0.4,1c0,0.6-0.1,0.9-0.4,1C317.5,48.9,316.1,48.9,313.3,48.9z M36.2,90.9
	c0.1,0.1,0.3,0,0.8,0c1-0.2,1.6-0.6,1.9-1.1c0.1-0.3,0.2-0.6,0.2-1c0-0.4,0.1-1.6,0.1-3.5c0-0.3,0-0.7,0-1.2c0-1.1,0-1.8,0-2
	c0-0.4,0.2-0.6,0.4-0.7c0.1-0.1,0.4-0.1,1-0.1c0.2,0,0.4,0,0.6,0c1.1,0,1.7-0.1,1.8-0.3c0.1-0.2-0.3-0.7-1.2-1.4
	c-0.4-0.3-0.7-0.5-0.8-0.5c-0.1,0-0.3,0.2-0.6,0.7c-0.4,0.5-0.7,0.8-0.9,0.7s-0.3-0.3-0.3-0.7s0.1-0.7,0.3-0.8
	c0.2-0.1,0.2-0.2,0.1-0.3c-0.1-0.1-0.5-0.3-1.2-0.5c-0.6-0.2-1-0.3-1.2-0.3c-0.2,0-0.3,0.1-0.3,0.2c0,0.1,0,0.5,0,1.2
	c0,0.5,0,0.9,0,1c0,0.1-0.1,0.2-0.2,0.3c-0.1,0-1,0.1-2.8,0.1c-1.8,0-3,0-3.6,0c-0.1,0-0.2,0-0.3,0c-0.4,0-0.7,0-0.8,0
	c-0.3,0-0.4-0.1-0.5-0.2c0-0.1-0.1-0.6-0.1-1.3c0-0.9,0.1-1.4,0.2-1.6c0.1,0,0.1,0,0.2,0c0.1,0,0.1,0.1,0.2,0.1
	c0,0.1,0.1,0.1,0.2,0.1c0.1,0,0.3,0,0.6,0c0.8-0.1,1.5-0.2,2.3-0.2c0.8,0,2.4,0,4.8,0c0.8,0,1.9,0,3.2,0c1.4,0,2.1-0.1,2.1-0.1
	c0.4-0.2-0.1-0.8-1.3-1.8c-0.4-0.3-0.6-0.4-0.7-0.4c-0.1,0-0.4,0.3-0.7,0.8l0,0c-0.3,0.4-0.5,0.7-0.7,0.7c-0.2,0.1-0.6,0.1-1.3,0.1
	c0,0-0.1,0-0.2,0c-0.7,0-1-0.1-1.2-0.2c-0.1-0.1-0.2-0.6-0.2-1.3c0-0.1,0-0.2,0-0.2c0-0.1,0-0.3,0-0.5c0-0.5,0-0.8,0.1-0.9
	c0.1-0.2,0.2-0.3,0.6-0.3c0.2,0,0.7,0,1.5,0c0.3,0,0.6,0,0.8,0c1.2,0,2-0.1,2.3-0.1c0.4-0.1,0.5-0.2,0.4-0.5
	c-0.1-0.2-0.6-0.6-1.3-1.2l0,0c-0.4-0.3-0.6-0.4-0.7-0.4c-0.1,0-0.3,0.3-0.7,0.8c-0.3,0.4-0.5,0.6-0.6,0.7c-0.1,0.1-0.4,0.1-0.9,0.1
	c0,0-0.1,0-0.1,0c-0.6,0-1,0-1.1-0.2c-0.1-0.1-0.2-0.5-0.1-1.2c0-0.4,0-0.6,0-0.8c0-0.1,0.2-0.3,0.3-0.4c0.2-0.2,0.2-0.3-0.1-0.5
	c-0.3-0.1-0.9-0.3-1.8-0.6c-0.4-0.1-0.6-0.1-0.7-0.1c0,0-0.1,0.1,0,0.4c0.1,0.9,0.2,1.7,0.1,2.3c0,0.6-0.1,0.9-0.3,1
	c-0.1,0-0.6,0.1-1.5,0c-0.9,0-1.7,0-2.2-0.1c-0.4,0-0.6,0-0.6,0c0,0,0,0.2,0.2,0.5c0.1,0.3,0.2,0.4,0.3,0.5c0.1,0,0.2,0.1,0.3,0
	c0.9-0.2,1.8-0.3,2.5-0.3s1.2,0.1,1.3,0.3c0.1,0.1,0.1,0.6,0.1,1.4c0,0.9,0,1.4-0.1,1.5c-0.2,0.4-1.6,0.4-4.3,0.2
	c-0.1,0-0.1,0-0.2,0c-0.4,0-0.7-0.1-0.8-0.3c-0.1-0.2-0.1-0.7-0.1-1.6c0-0.2,0-0.4,0-0.5c0-0.1,0-0.2,0-0.4c0-0.8,0-1.3,0.1-1.5
	s0.2-0.4,0.5-0.6c0,0,0.1-0.1,0.1-0.1c0.2-0.1,0.2-0.3,0.1-0.5c-0.1-0.2-0.4-0.5-0.9-0.8c-0.5-0.4-0.9-0.6-1-0.6
	c-0.1,0-0.4,0.2-0.7,0.6c-0.4,0.4-0.8,0.7-1.4,0.7c-0.6,0-1.4-0.2-2.4-0.6c-0.1,0-0.2-0.1-0.3-0.1c-0.5-0.2-0.8-0.3-0.9-0.3
	c-0.1,0-0.1,0.2-0.1,0.5c0,0.1,0,0.1,0,0.2c0.1,0.7,0.1,1.4,0.1,2.1c0,0.6,0,1.9,0,4.1c0,0.1,0,0.2,0,0.2c0,4.6,0,7.8-0.1,9.5
	c0,0.8-0.1,1.3-0.1,1.5c0,0.2,0,0.3,0.1,0.4c0.3,0.3,0.7,0.3,1.3,0c0.6-0.2,0.9-0.5,0.9-0.9c-0.1-0.8-0.1-1.2,0.1-1.4
	c0.1-0.2,0.5-0.3,1.2-0.3c0.6,0,0.9,0,1,0.1c0.1,0.1,0.2,0.3,0.2,0.7c0,0.4,0.1,0.7,0.4,0.8c0.3,0.1,0.7-0.1,1.4-0.4l0,0
	c0.3-0.1,0.4-0.2,0.4-0.3c0-0.1,0.1-0.3,0-0.7c0,0,0-0.1,0-0.1c-0.1-1.7-0.1-3-0.1-3.6c0-0.8,0-1.2,0.1-1.4c0.1-0.1,0.2-0.1,0.4,0.2
	c0,0,0,0,0,0.1c0.1,0.2,0.2,0.3,0.3,0.3c0,0,0.2,0,0.3,0c0.1,0,0.1,0,0.1,0c1-0.1,2.4-0.2,4.2-0.2c0.2,0,0.6,0,0.9,0
	c0.7,0,1.2,0,1.4,0c0.3,0.1,0.4,0.3,0.5,0.6c0,0.2,0.1,0.8,0,1.8c0,0.5,0,0.9,0,1.2c0,0.2,0,0.5,0,0.9c0,1,0,1.7,0,2
	c0,0.4-0.1,0.6-0.3,0.7c-0.1,0.1-0.4,0.1-0.8,0.1c-0.2,0-0.3,0-0.4,0c-1,0-1.5,0-1.7,0c-0.2,0-0.3,0.1-0.3,0.1
	c0,0.1,0.1,0.1,0.3,0.2c0.7,0.2,1.3,0.4,1.6,0.6c0.4,0.3,0.6,0.7,0.7,1.2C36.1,90.7,36.1,90.8,36.2,90.9z M33.1,86.7
	c0.4,0.1,0.7,0,1-0.2c0.3-0.3,0.4-0.6,0.4-1c0-1.2-0.9-2.3-2.8-3c-0.6-0.2-0.9-0.3-1-0.3c-0.1,0,0,0.2,0.3,0.6c0.7,1,1.1,2,1.4,3
	c0.1,0.3,0.2,0.5,0.2,0.6C32.7,86.5,32.9,86.6,33.1,86.7z M25.1,85.3c-0.4,0-0.6,0-0.7-0.1c-0.1-0.1-0.2-0.3-0.3-0.7
	c0-0.3,0-0.9,0-1.8c0-0.3,0-0.5,0-0.6s0-0.4,0-0.6c0-1,0-1.6,0-1.8c0-0.4,0.1-0.6,0.3-0.7c0.1-0.1,0.4-0.1,0.7-0.1
	c0.1,0,0.2,0,0.3,0c0.1,0,0.2,0,0.3,0c0.4,0,0.6,0,0.7,0.1c0.1,0.1,0.2,0.3,0.3,0.7c0,0.3,0,0.9,0,1.8c0,0.3,0,0.5,0,0.6
	c0,1.5,0,2.3,0,2.6c0,0.3-0.1,0.4-0.2,0.5c-0.1,0.1-0.1,0.1-0.2,0.1c-0.1,0-0.4,0-0.8,0C25.3,85.3,25.2,85.3,25.1,85.3z M25.4,78.1
	c-0.5,0-0.8,0-1-0.1c-0.2-0.1-0.3-0.2-0.3-0.5c0-0.3,0-1.1,0-2.5c0-0.2,0-0.4,0-0.6c0-1,0-1.6,0-1.9c0-0.4,0.1-0.6,0.3-0.7
	c0.1-0.1,0.3-0.1,0.7-0.1c0.1,0,0.2,0,0.2,0c0.1,0,0.1,0,0.2,0c0.4,0,0.6,0,0.7,0.1c0.1,0.1,0.2,0.3,0.3,0.7c0,0.3,0,0.9,0,1.9
	c0,0.3,0,0.5,0,0.6c0,1.4,0,2.3-0.1,2.5c0,0.3-0.1,0.4-0.3,0.5C26.2,78.1,25.9,78.1,25.4,78.1z M50.5,90.9c0.1,0.1,0.4,0.1,0.8,0
	c0.4-0.1,0.7-0.2,1-0.4l0,0c0.2-0.1,0.3-0.3,0.4-0.4c0-0.1,0-0.5,0-1.2c0-0.1,0-0.2,0-0.2c-0.1-1.2-0.1-3.3-0.1-6.4
	c0-3.1,0-4.7,0.1-4.8c0.1-0.2,0.2-0.3,0.4-0.3c0.2,0,0.7,0,1.6,0c0.9,0,1.5,0,1.7,0.1c0.2,0.1,0.3,0.3,0.3,0.6
	c0,0.3,0.1,0.4,0.4,0.5c0.3,0,0.7-0.1,1.2-0.3c0,0,0.1,0,0.1,0c0.2-0.1,0.4-0.2,0.4-0.3c0-0.1,0-0.5,0-1.2c0-0.2,0-0.3,0-0.4
	c0-1.5-0.1-2.5-0.1-3c0-0.7,0-1.1,0.1-1.3c0.1-0.2,0.2-0.4,0.5-0.5c0.2-0.1,0.2-0.3,0.1-0.5c-0.1-0.2-0.4-0.5-0.9-0.9
	c-0.5-0.4-0.8-0.6-0.9-0.6c-0.1,0-0.3,0.2-0.6,0.5c0,0,0,0,0,0.1c-0.2,0.3-0.4,0.5-0.6,0.6c-0.2,0-0.7,0.1-1.6,0.1
	c-0.1,0-0.1,0-0.2,0c-0.1,0-0.2,0-0.4,0c-0.7,0-1.2,0-1.4,0c-0.2,0-0.6-0.2-1.1-0.4c-0.1,0-0.2-0.1-0.3-0.1c0,0-0.1-0.1-0.2-0.1
	c-0.5-0.2-0.7-0.3-0.8-0.3c-0.1,0-0.1,0.2,0,0.5c0,0.1,0,0.1,0,0.1c0.1,0.8,0.1,1.6,0.2,2.3c0,0.8,0,2.7,0,5.6c0,5.5,0,9.2-0.1,11
	c-0.1,0.9-0.1,1.4-0.1,1.6C50.2,90.7,50.3,90.8,50.5,90.9z M66.3,90.9c0,0.1,0.3,0.1,0.7,0c0.4-0.1,0.8-0.2,1.1-0.3
	c0.5-0.3,0.9-0.7,1.1-1.3c0-0.1,0.1-0.6,0.1-1.5c0-0.8,0-3,0-6.9c0-0.2,0-0.4,0-0.5c0-0.7,0-1.7,0-2.8c0-2.2,0-3.6,0-4.2
	c0-0.8,0-1.4,0.1-1.6c0-0.2,0.1-0.3,0.3-0.3c0.1,0,0.1,0,0.1-0.1c0.3-0.2,0.3-0.3,0.2-0.5c-0.1-0.2-0.5-0.5-1.1-1
	c-0.5-0.4-0.8-0.5-0.9-0.6c-0.1,0-0.3,0.1-0.6,0.5c0,0-0.1,0.1-0.1,0.1c-0.2,0.3-0.4,0.5-0.6,0.5c-0.2,0-0.7,0.1-1.5,0.1
	c-0.1,0-0.3,0-0.3,0c-0.1,0-0.2,0-0.4,0c-0.7,0-1.2,0-1.4,0c-0.2,0-0.6-0.2-1.1-0.4c-0.1,0-0.2-0.1-0.3-0.1c0,0-0.1,0-0.2-0.1
	c-0.4-0.2-0.7-0.3-0.7-0.3c-0.1,0-0.1,0.1-0.1,0.3c0,0,0,0.1,0,0.1c0.2,2.7,0.3,5.3,0.1,7.8c0,0.3,0.1,0.5,0.4,0.6
	c0.3,0.1,0.6,0.1,1,0c0.4-0.1,0.6-0.4,0.8-0.7c0.1-0.2,0.2-0.3,0.4-0.4c0.2,0,0.8,0,1.7,0c0.2,0,0.4,0,0.7,0c0.5,0,0.9,0,1,0.1
	c0.2,0.1,0.3,0.5,0.4,1c0,0.4,0,1.3,0,2.7c0,0.8,0,1.4,0,1.8c0,0.2,0,0.5,0,1c0,1.7,0,2.7,0,3.2c0,0.6,0,1-0.1,1.2
	c0,0.1-0.1,0.2-0.2,0.2l0,0c-0.2,0.1-0.6,0.1-1.4,0s-1.2-0.1-1.1-0.2c0.1-0.1,0.1-1.2,0-3.3c0-1.8,0-2.8,0-3.3
	c0-0.4,0.2-0.7,0.4-0.8c0.3-0.1,0.3-0.3,0.2-0.6c-0.1-0.2-0.5-0.6-1.1-1.1c-0.4-0.3-0.6-0.5-0.7-0.5c-0.1,0-0.3,0.2-0.6,0.5
	c0,0-0.1,0.1-0.1,0.1c-0.2,0.3-0.4,0.5-0.6,0.5c-0.2,0-0.8,0.1-1.7,0.1c-0.2,0-0.3,0-0.4,0c-0.1,0-0.3,0-0.5,0c-0.8,0-1.4,0-1.6,0
	c-0.2,0-0.6-0.2-1.1-0.4c-0.1,0-0.2-0.1-0.3-0.1c-0.5-0.2-0.8-0.3-0.9-0.4c-0.1,0-0.1,0-0.1,0.2c0.1,0.8,0.2,2.1,0.2,3.8
	c0,1.8,0,3.3-0.1,4.6c0,0.6,0,1,0,1.1c0.1,0.1,0.3,0.2,0.6,0.1c0.4,0,0.8-0.1,1-0.3c0.3-0.2,0.4-0.4,0.4-0.6c0-0.2,0-0.4,0.1-0.5
	c0.1-0.1,0.3-0.2,0.6-0.2c0.2,0,0.8,0,1.6,0c0.8,0,1.4,0,1.6,0c0.3,0,0.5,0.1,0.6,0.2c0.1,0.1,0.1,0.3,0,0.6c0,0.3,0.1,0.5,0.2,0.6
	c0.2,0,0.5,0,1-0.1c0.3-0.1,0.6-0.2,0.7-0.2c0.1,0,0.1,0,0.1,0.1c0,0.1,0,0.1,0.1,0.2c0.1,0,0.2,0.1,0.5,0.1
	c0.5,0.1,0.9,0.3,1.2,0.6c0.3,0.3,0.4,0.7,0.5,1.2C66.3,90.7,66.3,90.8,66.3,90.9z M61.7,86.5c-0.1,0.1-0.8,0.1-2,0.1
	c-1.2,0-1.9-0.1-2-0.1c-0.3-0.1-0.4-0.6-0.4-1.3c0-0.8,0.1-1.2,0.4-1.3c0.1-0.1,0.8-0.1,2-0.1c1.2,0,1.9,0,2,0.1
	c0.3,0.1,0.4,0.6,0.4,1.3C62.1,85.9,62,86.4,61.7,86.5z M59.4,83.2c-0.8,0-1.2,0-1.4,0c-0.3,0-0.5-0.1-0.5-0.3
	c0-0.1-0.1-0.4-0.1-0.8c0-0.1,0-0.1,0-0.2s0-0.1,0-0.2c0-0.4,0-0.7,0.1-0.8c0.1-0.2,0.2-0.3,0.5-0.3c0.2,0,0.7,0,1.4,0
	c0.1,0,0.3,0,0.3,0c0.1,0,0.2,0,0.3,0c0.8,0,1.2,0,1.4,0c0.3,0,0.5,0.1,0.5,0.3c0,0.1,0.1,0.4,0.1,0.8c0,0.1,0,0.1,0,0.2
	c0,0.5,0,0.8,0,1c0,0.1-0.1,0.2-0.3,0.3c-0.1,0-0.8,0.1-2,0.1C59.7,83.2,59.6,83.2,59.4,83.2z M54.4,76.5c-0.7,0-1.2,0-1.3,0
	c-0.3,0-0.4-0.1-0.5-0.3c0-0.1-0.1-0.4-0.1-0.8c0,0,0-0.1,0-0.1c0,0,0-0.1,0-0.1c0-0.4,0-0.6,0.1-0.7c0-0.1,0.2-0.2,0.5-0.3
	c0.2,0,0.6,0,1.2,0c0.1,0,0.2,0,0.2,0s0.1,0,0.2,0c0.7,0,1.1,0,1.2,0c0.3,0,0.4,0.1,0.5,0.3c0,0.1,0.1,0.3,0.1,0.7
	c0,0.1,0,0.1,0,0.1c0,0.4,0,0.7-0.1,0.8c0,0.1-0.1,0.2-0.3,0.3c-0.1,0.1-0.7,0.1-1.7,0.1C54.5,76.5,54.5,76.5,54.4,76.5z M64.8,76.5
	c-0.7,0-1.2,0-1.4,0c-0.3,0-0.4-0.1-0.5-0.3c0-0.1-0.1-0.4-0.1-0.8c0,0,0-0.1,0-0.1c0,0,0-0.1,0-0.1c0-0.4,0-0.6,0.1-0.7
	c0.1-0.1,0.2-0.2,0.5-0.3c0.2,0,0.6,0,1.3,0c0.1,0,0.2,0,0.2,0c0,0,0.1,0,0.2,0c0.7,0,1.1,0,1.3,0c0.3,0,0.4,0.1,0.5,0.3
	c0,0.1,0.1,0.3,0.1,0.7c0,0.1,0,0.1,0,0.1c0,0.4,0,0.7-0.1,0.8c0,0.1-0.1,0.2-0.3,0.3c-0.1,0.1-0.7,0.1-1.8,0.1
	C64.9,76.5,64.9,76.5,64.8,76.5z M54.6,73.4c-1,0-1.6,0-1.7-0.1c-0.2-0.1-0.3-0.5-0.3-1.1c0-0.6,0.1-0.9,0.4-1.1
	c0.1-0.1,0.7-0.1,1.7-0.1c1,0,1.6,0,1.7,0.1c0.2,0.1,0.4,0.5,0.4,1.1c0,0.6-0.1,1-0.3,1.1C56.2,73.4,55.6,73.4,54.6,73.4z M65,73.4
	c-1.1,0-1.7,0-1.8-0.1c-0.2-0.1-0.3-0.5-0.3-1.1c0-0.6,0.1-0.9,0.4-1.1c0.1-0.1,0.7-0.1,1.8-0.1c1,0,1.6,0,1.8,0.1
	c0.2,0.1,0.4,0.5,0.4,1.1c0,0.6-0.1,1-0.3,1.1C66.6,73.4,66,73.4,65,73.4z M87.2,83.2c1.1,0.1,2-0.2,2.8-1c0.8-0.8,1.1-1.7,1-2.8
	c-0.1-0.9-0.5-1.6-1.2-2.2c-0.6-0.5-1.4-0.8-2.2-0.8c-0.9,0-1.6,0.3-2.3,0.9c-0.7,0.6-1,1.4-1.1,2.3c0,0.8,0.2,1.6,0.7,2.3
	C85.6,82.6,86.3,83,87.2,83.2z M88.6,82.2c-0.8,0.3-1.6,0.2-2.3-0.3c-0.7-0.5-1.1-1.2-1.1-2.1c0-0.7,0.2-1.3,0.7-1.8
	c0.5-0.5,1.1-0.7,1.7-0.7c0.7,0,1.3,0.2,1.8,0.7c0.7,0.6,0.9,1.4,0.7,2.3C90,81.3,89.4,81.9,88.6,82.2z"/>
</svg>
