<?xml version="1.0" encoding="utf-8"?>
<!-- Generator: Adobe Illustrator 24.2.3, SVG Export Plug-In . SVG Version: 6.00 Build 0)  -->
<svg version="1.1" id="Layer_1" xmlns="http://www.w3.org/2000/svg" xmlns:xlink="http://www.w3.org/1999/xlink" x="0px" y="0px"
	 viewBox="0 0 352 219" style="enable-background:new 0 0 352 219;" xml:space="preserve">
<style type="text/css">
	.st0{clip-path:url(#SVGID_2_);}
	.st1{fill:none;stroke:#D6D2C7;stroke-width:1.3;stroke-miterlimit:10;stroke-dasharray:9.31,9.31;}
	.st2{fill:#D6D2C7;}
</style>
<g>
	<defs>
		<rect id="SVGID_1_" width="351.3" height="218.1"/>
	</defs>
	<clipPath id="SVGID_2_">
		<use xlink:href="#SVGID_1_"  style="overflow:visible;"/>
	</clipPath>
	<g class="st0">
		<path class="st1" d="M350.6,0.6H0.7v216.8h350V0.6z"/>
	</g>
</g>
<path class="st2" d="M23.8,47.9c0,0,0.1,0,0.2,0c0.9-0.2,1.5-0.3,1.8-0.5c0.4-0.3,0.6-0.8,0.6-1.7c0.1-0.6,0.1-2.1,0.1-4.3
	c0-0.3,0-0.7,0-1.2c0-1.2,0-1.9,0-2.3c0-0.4,0.1-0.8,0.2-0.9c0.1-0.1,0.2-0.3,0.5-0.4c0.1-0.1,0.2-0.1,0.3-0.2
	c0.6-0.4,1-0.6,1.2-0.6c0.2,0,0.3,0.1,0.5,0.5c0.1,0.2,0.2,0.3,0.2,0.4c0,0,0.2,0,0.3,0c0.5-0.1,1-0.2,1.5-0.2s0.8,0.1,0.8,0.2
	c0.1,0.2-0.1,0.8-0.5,2c-0.4,1.2-0.9,2.4-1.4,3.5c-0.1,0.3-0.1,0.5,0,0.6c0.2,0.1,0.5,0.1,1.1,0.1c0.4,0,0.6,0,0.7-0.1
	c0.1-0.1,0.2-0.2,0.3-0.5c0.2-0.4,0.3-0.6,0.5-0.6s0.5,0.1,1,0.3c0.9,0.5,1.4,0.8,1.5,1c0.1,0.2-0.1,0.5-0.5,0.9
	c-1.4,1.3-3.3,2.4-5.9,3.2c-0.4,0.1-0.7,0.2-0.8,0.3c-0.1,0.1-0.1,0.1-0.1,0.2c0,0.1,0.1,0.1,0.3,0.1c0.1,0,0.5-0.1,1.1-0.2
	c3-0.6,5.4-1.6,7-2.9c0.4-0.3,0.7-0.4,0.9-0.4c0.3,0.1,0.7,0.5,1.5,1.2c0.7,0.7,1.3,1.3,1.6,1.8c0.2,0.3,0.5,0.5,0.9,0.4
	c0.4,0,0.7-0.2,0.8-0.6c0.2-0.6,0.1-1.3-0.4-2c-0.5-0.8-1.3-1.4-2.4-2.1c-0.4-0.3-0.7-0.5-0.7-0.6c0-0.1,0-0.4,0.2-0.7
	c0.6-1.2,1.1-2.6,1.4-4.4c0.1-0.5,0.2-0.8,0.4-0.9c0.1-0.1,0.5-0.2,1.2-0.2c0.6,0,0.9,0,1.1-0.1c0.2,0,0.2-0.2,0.2-0.3
	c0-0.1-0.3-0.4-0.8-0.9c-0.5-0.5-0.9-0.9-1.3-1.1c-0.2-0.1-0.3-0.2-0.4-0.1c-0.1,0.1-0.3,0.4-0.7,1c0,0,0,0.1-0.1,0.1
	c-0.2,0.3-0.5,0.5-0.6,0.6c-0.2,0-0.7,0.1-1.6,0.1c-0.1,0-0.3,0-0.3,0c-0.1,0-0.2,0-0.3,0c-0.8,0-1.4,0-1.6,0
	c-0.3,0-0.4-0.2-0.5-0.4c0-0.1,0.1-0.5,0.2-1c0-0.1,0.1-0.2,0.1-0.2c0.2-0.5,0.3-0.9,0.4-1.1c0.1-0.2,0.3-0.4,0.4-0.5
	c0.2-0.1,0.3-0.2,0.2-0.3c-0.1-0.1-0.3-0.2-0.7-0.3c-0.2-0.1-0.6-0.1-1-0.2c-0.5-0.1-0.7-0.1-0.8-0.1c0,0-0.1,0.3-0.2,0.9
	c-0.2,1-0.4,1.9-0.6,2.6c-0.1,0.3-0.2,0.5-0.4,0.6c-0.1,0.1-0.4,0.1-0.8,0.1c-0.8,0-1.4-0.1-1.8-0.2c-0.4-0.1-0.4-0.3-0.2-0.4
	c0.1-0.1,0.1-0.1,0.1-0.2c0-0.1,0-0.1,0-0.1c-0.1,0-0.4,0.1-1.2,0.3c-0.1,0-0.2,0-0.3,0.1c-0.6,0.2-1,0.3-1.1,0.3
	c-0.2,0-0.3-0.1-0.4-0.3c0-0.1,0-0.5,0-1.2c0-0.1,0-0.2,0-0.3c0-0.7,0-1.1,0-1.3c0-0.3,0.1-0.4,0.2-0.5c0.1,0,0.4-0.1,0.7-0.1
	c0.4,0,0.6,0,0.8,0.1c0.1,0.1,0.2,0.2,0.3,0.5c0.1,0.5,0.4,0.8,0.8,0.9c0.4,0,0.8-0.1,1.2-0.5c0.4-0.4,0.7-0.9,0.7-1.5
	c0-0.1,0-0.2,0-0.3c0-0.3,0.1-0.5,0.2-0.5c0.1-0.1,0.4-0.2,0.8-0.2c0.3,0,1,0,2.1,0c0.5,0,0.9,0,1.2,0c0.3,0,0.6,0,1.1,0
	c1.3,0,2.1,0,2.4,0.1c0.4,0.1,0.7,0.2,0.7,0.5c0,0.2-0.1,0.7-0.3,1.5c-0.1,0.3-0.1,0.5-0.2,0.6c0,0,0,0.1,0,0.2c0,0,0.1,0.1,0.1,0.1
	c0.1,0,0.3-0.2,0.8-0.6c0.5-0.4,0.9-0.8,1.4-1.2c0.5-0.4,0.8-0.7,1.2-0.8c0.3,0,0.4-0.2,0.3-0.3c-0.1-0.2-0.3-0.5-0.8-1
	c-0.5-0.5-0.9-0.8-1.1-0.9c-0.2,0-0.4,0.1-0.8,0.5l0,0c-0.3,0.3-0.5,0.5-0.7,0.6c-0.2,0-0.6,0.1-1.2,0.1c-0.1,0-0.1,0-0.1,0
	c0,0-0.1,0-0.2,0c-0.8,0-1.2,0-1.3-0.1c-0.1-0.1-0.2-0.4-0.2-1.1c0,0,0-0.1,0-0.1c0-0.5,0-0.8,0-0.9c0-0.2,0.1-0.3,0.3-0.5
	c0.2-0.2,0.2-0.3-0.1-0.5c-0.2-0.1-0.8-0.3-1.7-0.5c0,0-0.1,0-0.2,0c-0.4-0.1-0.6-0.1-0.6-0.1c0,0-0.1,0.1,0,0.4c0,0,0,0.1,0,0.1
	c0.2,2,0.2,3-0.1,3.3c-0.1,0.1-0.5,0.1-1.4,0.1c-0.8,0-1.3,0-1.4-0.1c-0.2-0.1-0.4-0.3-0.4-0.6c-0.1-0.4-0.2-0.6-0.3-0.6
	c-0.1,0-0.1,0-0.1,0c0,0.3-0.1,0.6-0.3,1.1c-0.2,0.4-0.4,0.7-0.5,0.9s-0.3,0.2-0.5,0.2c-0.1,0-0.4-0.3-0.8-0.6l0,0
	c-0.2-0.2-0.4-0.3-0.5-0.3c-0.1,0-0.2,0.2-0.4,0.5c-0.2,0.3-0.4,0.5-0.5,0.6s-0.2,0.1-0.3,0.1c-0.2,0-0.4-0.7-0.3-2
	c0-1.3,0.2-2,0.4-2.2c0.5-0.3-0.2-0.7-2.2-1.2l0,0c-0.3-0.1-0.4-0.1-0.4,0c0,0,0,0.3,0,0.6c0.1,0.9,0.2,1.9,0.2,2.9
	c0,1,0,1.6-0.1,1.8c-0.1,0.2-0.3,0.3-0.6,0.3c-0.3,0-0.9,0-1.8-0.1c0,0,0,0-0.1,0c-0.3,0-0.4,0-0.5,0c0,0,0,0.2,0.1,0.4
	c0,0,0,0.1,0,0.1c0,0,0,0,0,0.1c0.1,0.3,0.2,0.4,0.3,0.4c0.1,0,0.2,0,0.4,0c0,0,0.1,0,0.1,0c0.7-0.2,1.2-0.3,1.5-0.2
	c0.3,0,0.5,0.3,0.6,0.6c0.1,0.3,0.1,0.9,0.1,1.8c0,0.1,0,0.2,0,0.4c0,0.7,0,1.1-0.1,1.3c-0.1,0.3-0.3,0.5-0.6,0.6
	c-0.2,0.1-0.8,0.3-1.6,0.5c-0.2,0-0.4,0.1-0.5,0.1c-0.3,0.1-0.5,0.1-0.6,0.2c0,0,0,0.1,0,0.2c0,0.1,0.2,0.5,0.4,1.2
	c0.2,0.6,0.3,1,0.4,1c0.1,0.2,0.2,0.1,0.4,0c0.3-0.4,0.7-0.7,1.2-1c0.5-0.2,0.8-0.3,0.9,0c0,0.1,0.1,1.1,0.1,2.9c0,1.9,0,2.9,0,3.1
	c-0.1,0.3-0.2,0.4-0.5,0.5c-0.2,0.1-0.7,0.1-1.5,0c-0.5,0-0.8,0-0.8,0c-0.1,0.1,0,0.2,0.4,0.3c1,0.2,1.5,0.8,1.7,1.8
	C23.7,47.8,23.7,47.9,23.8,47.9z M36.2,41.8c-0.1,0-0.2,0.1-0.3,0.1c-0.1,0-0.2-0.1-0.5-0.1c-0.2,0-0.6-0.2-1.3-0.3
	c-0.6-0.2-1-0.3-1.1-0.4s-0.1-0.4,0.1-0.9c0.1-0.1,0.2-0.7,0.6-1.6c0-0.1,0.1-0.2,0.1-0.2c0-0.1,0.1-0.2,0.1-0.4
	c0.3-0.7,0.5-1.1,0.6-1.2c0.2-0.1,0.6-0.2,1.3-0.2c0.2,0,0.3,0,0.4,0c0.7,0,1.1,0,1.3,0c0.3,0,0.4,0.2,0.4,0.3c0,0.1,0,0.4-0.1,0.9
	c-0.2,1-0.5,2-0.8,2.7C36.7,41.2,36.4,41.7,36.2,41.8z M52,47.9c0.2,0.1,0.6,0.1,1,0c0.5-0.1,0.8-0.3,1.1-0.5
	c0.1-0.1,0.1-0.2,0.1-0.3c0-0.1,0-0.6,0-1.4c0-0.3,0-0.6,0-0.8c0-0.7-0.1-2.5-0.1-5.5c0-0.2,0-0.5,0-0.8c0-2,0-3.1,0-3.5
	c0-0.4,0.1-0.6,0.3-0.6l0,0c0.1-0.1,0.2-0.2,0.1-0.3c-0.1-0.1-0.3-0.3-0.6-0.6c-0.2-0.2-0.3-0.4-0.4-0.5c0-0.1,0.1-0.4,0.2-0.7
	c0.8-1.6,1.5-3,1.9-4.2c0.2-0.5,0.4-0.9,0.7-1c0.3-0.1,0.3-0.3,0-0.4c-0.3-0.2-0.9-0.4-1.9-0.7c-0.5-0.2-0.8-0.2-0.9-0.2
	c-0.1,0-0.1,0-0.1,0.1c0,0.2-0.1,0.7-0.2,1.4c-0.1,0.7-0.3,1.4-0.5,1.9c-0.4,1.3-0.9,2.7-1.6,4.2c-0.7,1.5-1.4,2.9-2.1,4.1
	c-0.2,0.3-0.3,0.5-0.3,0.6c0,0.1,0,0.1,0.1,0.1c0.2,0,0.8-0.5,1.9-1.7c0.3-0.4,0.5-0.6,0.7-0.6s0.3,0,0.3,0.2c0.1,0.2,0.1,1.6,0,4.3
	c0,2.7-0.1,4.7-0.2,6.1c0,0.7-0.1,1.1,0,1.2C51.8,47.7,51.9,47.8,52,47.9z M55.3,47.2c0,0.1,0.1,0.1,0.2,0.1
	c0.7-0.1,1.5-0.2,2.6-0.3c1.1,0,3.2,0,6.4,0c0.3,0,0.8,0,1.4,0c2.4,0,3.8,0,4.2,0c0.4,0,0.6-0.1,0.7-0.2c0.1-0.1-0.1-0.4-0.4-0.7
	c-0.3-0.4-0.8-0.8-1.4-1.2c-0.3-0.2-0.5-0.3-0.6-0.3c-0.1,0-0.3,0.3-0.7,0.8c0,0-0.1,0.1-0.1,0.2c-0.3,0.4-0.5,0.7-0.7,0.7
	c-0.1,0.1-0.5,0.1-1.2,0.1c-0.1,0-0.2,0-0.3,0c-0.1,0-0.3,0-0.5,0c-0.5,0-0.8,0-0.9-0.1c-0.2-0.1-0.3-0.3-0.3-0.7c0-0.3,0-0.9,0-1.8
	c0-0.5,0-0.9,0-1.1c0-0.3,0-0.7,0-1.3c0-0.9,0-1.5,0-1.8c0.1-0.3,0.2-0.5,0.5-0.6c0.2-0.1,0.7-0.1,1.5-0.1c0.4,0,0.8,0,1.1,0
	c1.5,0,2.3,0,2.5,0c0.3,0,0.4-0.1,0.5-0.2c0.1-0.2-0.3-0.7-1.2-1.5l0,0c-0.4-0.4-0.7-0.5-0.8-0.5c-0.1,0-0.3,0.2-0.6,0.6l0,0
	c-0.3,0.5-0.6,0.7-0.7,0.8c-0.2,0.1-0.6,0.1-1.2,0.1c-0.1,0-0.2,0-0.3,0c-0.4,0-0.7,0-0.8-0.1c-0.2-0.1-0.3-0.3-0.3-0.6
	c0-0.2,0-0.8,0-1.7c0-0.3,0-0.5,0-0.7c0-0.3,0-0.6,0-1c0-0.8,0-1.3,0-1.5c0.1-0.3,0.3-0.5,0.6-0.6c0.2,0,0.8-0.1,1.6,0
	c0.5,0,0.8,0,1.1,0c1.6,0,2.5,0,2.7,0c0.3,0,0.4-0.1,0.5-0.2c0.1-0.1-0.1-0.4-0.4-0.7c-0.3-0.3-0.7-0.7-1.3-1.1
	c-0.3-0.2-0.5-0.3-0.6-0.3c-0.1,0-0.3,0.2-0.6,0.6c-0.4,0.5-0.7,0.8-0.9,0.9c-0.1,0.1-1.7,0.1-4.8,0.1c-3.1,0-5,0-5.5-0.1
	c-0.4,0-0.5,0-0.6,0c0,0,0,0.2,0.1,0.5l0,0.1l0,0c0.1,0.3,0.2,0.4,0.3,0.4c0.1,0,0.2,0,0.5,0C57.1,32.1,58,32,59,32c1,0,1.6,0,1.8,0
	l0,0c0.2,0,0.3,0.2,0.3,0.4c0,0.2,0,0.9,0,2.1c0,0.2,0,0.3,0,0.5s0,0.3,0,0.5c0,1.2,0,1.9,0,2.1c0,0.2-0.1,0.3-0.3,0.4l0,0
	c-0.1,0.1-0.8,0.1-2,0.1c-1.2,0-2.1-0.1-2.6-0.2c-0.1,0-0.2,0-0.2,0.1c0,0.1,0.1,0.3,0.2,0.5c0,0,0,0,0,0.1c0.1,0.2,0.2,0.4,0.2,0.4
	s0.2,0,0.5,0c0,0,0.1,0,0.1,0c0.7-0.1,1.5-0.2,2.4-0.2c0.9,0,1.4,0,1.5,0.1c0.1,0.1,0.2,0.3,0.2,0.6c0,0.3,0,1.3,0,3
	c0,1.6,0,2.6,0,3c0,0.3-0.1,0.6-0.2,0.6c-0.1,0.1-0.9,0.1-2.3,0.1c-1.4,0-2.6,0-3.6-0.1c-0.2,0-0.3,0-0.3,0c0,0,0.1,0.2,0.2,0.5
	C55.2,46.9,55.3,47.1,55.3,47.2z M62.8,30.5c0.4,0.2,0.7,0.1,1,0c0.3-0.2,0.5-0.5,0.5-0.9c0-0.7-0.3-1.4-1.1-2
	c-0.8-0.6-1.8-1.1-3.2-1.4c-0.5-0.1-0.7-0.1-0.7,0c0,0.1,0.3,0.4,0.8,0.9c1.1,1.1,1.8,2.1,2.3,3C62.5,30.2,62.7,30.4,62.8,30.5z
	 M80.7,46c2.5,0,3.8,0,3.8-0.1c0.1,0,0.1-0.2,0.1-0.4c0-0.2,0-0.4-0.1-0.4l-0.2,0c-0.3,0-0.6-0.1-0.8-0.1c-0.1,0-0.2,0-0.4,0
	c-0.4,0-0.7-0.1-0.8-0.2c-0.1-0.1-0.2-0.4-0.3-0.8c0-0.3,0-1,0-2c0-0.4,0-0.7,0-0.9c0-0.3,0-0.7,0-1.2c0-0.9,0-1.5,0-1.8
	c0-0.4,0.2-0.6,0.4-0.6c0.1-0.1,0.5-0.1,1-0.1c0.3,0,0.5,0,0.6,0c0.1,0,0.2,0,0.3,0c0.8,0,1.3,0.1,1.5,0.2c0.1,0.1,0.3,0.5,0.4,1.1
	c0,0.1,0,0.2,0,0.3c0,0,0,0.1,0,0.2c0,0.5,0.1,0.8,0.1,0.8c0,0.1,0.2,0.1,0.4,0.1c0,0,0.1,0,0.1,0c0,0,0.1,0,0.2,0
	c0.1,0,0.2,0,0.3-0.1c0.1-0.1,0.1-0.2,0.1-0.6c0-0.2,0-0.7,0-1.6c0-0.4,0-0.7,0-0.9c0-0.2,0-0.4,0-0.7c0-0.9,0-1.5,0-1.8
	c0-0.3,0-0.5-0.1-0.6c0-0.1-0.1-0.1-0.3-0.1c-0.1,0-0.1,0-0.2,0h0c-0.2,0-0.4,0-0.4,0.1c0,0.1-0.1,0.4-0.1,0.8c0,0,0,0.1,0,0.1
	c0,0.1,0,0.2,0,0.3c-0.1,0.7-0.2,1-0.4,1.2c-0.1,0.1-0.6,0.1-1.5,0.1c-0.1,0-0.3,0-0.3,0c-0.1,0-0.3,0-0.6,0c-0.5,0-0.9,0-1-0.1
	c-0.2-0.1-0.3-0.3-0.4-0.6c0-0.2-0.1-0.8,0-1.8c0-0.4,0-0.8,0-1c0-0.3,0-0.7,0-1.2c0-0.9,0-1.5,0-1.8c0.1-0.3,0.2-0.5,0.5-0.6
	c0.2-0.1,0.7-0.1,1.4-0.1c0.4,0,0.7,0,0.9,0c0.2,0,0.5,0,0.9,0c0.8,0,1.4,0,1.6,0c0.3,0,0.5,0.2,0.7,0.4c0.1,0.1,0.2,0.5,0.3,1.1
	c0,0.3,0.1,0.5,0.1,0.6c0,0.1,0,0.2,0.1,0.3c0.1,0.6,0.2,0.9,0.3,1c0.1,0.1,0.2,0.1,0.5,0.1c0,0,0.1,0,0.1,0c0.3,0,0.5,0,0.6,0
	c0.1,0,0.1-0.1,0.1-0.3c0,0,0-0.3,0-0.8c0-0.6,0-1,0-1.4c0-1.4-0.1-2-0.1-2.1c0,0-2.2-0.1-6.6-0.1c-4.3,0-6.5,0-6.6,0
	c-0.1,0.2-0.2,0.3,0,0.5c0.1,0.2,0.3,0.3,0.5,0.3c0.7,0.1,1.2,0.1,1.4,0.2c0.2,0.1,0.4,0.2,0.5,0.4c0,0.1,0.1,2,0.1,5.7
	c0,3.7,0,6.3,0,7.7c0,0,0,0.1,0,0.1c0,0.8-0.1,1.2-0.2,1.4c-0.1,0.1-0.5,0.2-1.1,0.3c-0.1,0-0.1,0-0.1,0c-0.6,0.1-0.9,0.1-0.9,0.2
	c0,0-0.1,0.2-0.1,0.4c0,0.2,0,0.3,0.1,0.3C77,45.9,78.2,46,80.7,46z M101.8,46c3.2,0,4.8,0,4.9,0c0,0,0.1-0.2,0.1-0.4
	c0-0.2,0-0.3,0-0.3c-0.1,0-0.6-0.1-1.5-0.2c-0.2,0-0.4-0.1-0.7-0.1c-0.5,0-0.8-0.1-0.9-0.3c-0.2-0.2-0.3-0.7-0.3-1.4
	c0-0.6,0-1.9,0-3.9c0-1.2,0-2.3,0-3c0-4,0-6.3,0-7c0-0.7,0-1-0.1-1.1c0-0.1-0.2-0.1-0.3,0c-0.1,0-0.6,0.1-1.5,0.3
	c-0.4,0.1-0.8,0.2-1.1,0.3c-0.2,0-0.5,0.1-0.9,0.2c-1,0.2-1.6,0.4-1.8,0.5c-0.2,0.1-0.2,0.2-0.2,0.3c0,0,0,0.1,0,0.1c0,0,0,0,0,0.1
	c0,0.2,0,0.3,0.1,0.3c0.1,0,0.4,0,0.9,0c0.1,0,0.2,0,0.2,0c0.8-0.1,1.3-0.1,1.5-0.1c0.2,0,0.3,0.1,0.4,0.3c0.1,0.1,0.1,2.5,0.1,7
	c0,4.5,0,6.9-0.1,7c-0.1,0.2-0.2,0.3-0.4,0.4c-0.2,0-0.7,0.1-1.6,0.2c-1,0.1-1.5,0.2-1.5,0.2c0,0-0.1,0.1-0.1,0.3c0,0.2,0,0.3,0,0.4
	C97,45.9,98.6,46,101.8,46z M113.9,47.2c0,0.1,0.2,0.1,0.6,0c0,0,0.1,0,0.2,0c0.6-0.1,1.4-0.2,2.2-0.2c0.9,0,3.7,0,8.4,0
	c0.5,0,1.3,0,2.2,0c3.6,0,5.7,0,6.3,0c0.6,0,1-0.1,1-0.2l0,0c0.1-0.2-0.3-0.7-1.4-1.6c0,0-0.1,0-0.1-0.1c-0.5-0.4-0.8-0.6-0.9-0.6
	c-0.1,0-0.3,0.2-0.6,0.6c0,0-0.1,0.1-0.1,0.1c0,0,0,0,0,0.1c-0.4,0.5-0.7,0.9-0.8,0.9c-0.2,0.1-0.6,0.1-1.3,0.1c-0.1,0-0.1,0-0.2,0
	c-0.7,0-1.1,0-1.2,0c-0.2,0-0.3-0.1-0.4-0.3c0-0.1-0.1-2.3-0.1-6.5c0-4.3,0-6.5,0-6.8c0,0,0,0,0-0.1c0-0.1,0.1-0.2,0.1-0.3
	c0.1-0.1,0.4-0.1,0.7-0.1c0.3,0,0.9,0,1.9,0c0.2,0,0.3,0,0.4,0c1.6,0,2.5,0,2.7,0c0.3,0,0.4-0.1,0.5-0.2c0.2-0.3-0.4-0.9-1.8-1.8h0
	c-0.3-0.2-0.5-0.3-0.6-0.3c-0.1,0-0.3,0.2-0.6,0.6c0,0-0.1,0.1-0.1,0.1c0,0,0,0.1-0.1,0.1c-0.3,0.4-0.6,0.7-0.8,0.8
	c-0.2,0.1-0.7,0.1-1.5,0.1c0,0-0.1,0-0.1,0c-1,0-1.5-0.1-1.6-0.2c-0.1-0.1,0.1-0.5,0.7-1.1c0.6-0.6,1.2-1.4,1.8-2.2
	c0.5-0.7,0.8-1,0.9-1c0.4,0,0.4-0.1,0-0.4c-0.4-0.2-1.1-0.5-2-0.8c0,0-0.1,0-0.2,0c-0.4-0.1-0.6-0.2-0.6-0.1c-0.1,0-0.1,0.2-0.2,0.4
	c0,0,0,0.1,0,0.1c-0.1,0.8-0.3,1.8-0.7,2.9c-0.3,1.1-0.6,1.8-0.8,2.1c-0.1,0.2-0.6,0.3-1.5,0.4c-0.8,0-1.7,0-2.5-0.1
	c-0.3,0-0.6,0-0.9,0c-0.4,0-1.4,0.1-3.1,0c-1.7,0-2.8-0.1-3.3-0.1c-0.1,0-0.2,0-0.2,0.1c0,0.1,0.1,0.3,0.2,0.6c0,0,0,0.1,0.1,0.1
	c0.1,0.2,0.2,0.3,0.3,0.3s0.3,0,0.7-0.1c0.1,0,0.2,0,0.2,0c0.8-0.1,1.8-0.2,2.9-0.2c1.1,0,1.7,0,1.8,0.1c0.1,0.1,0.2,0.5,0.2,1.1
	c0,0.6,0,2.6,0,6c0,0.3,0,0.7,0,1.2c0,2,0,3.4,0,3.9c0,0.8,0,1.2-0.1,1.4c0,0.2-0.1,0.3-0.2,0.3c0,0-0.1,0-0.1,0
	c-0.1,0.1-1.1,0.1-2.7,0.1c-1.7,0-2.9-0.1-3.7-0.1c-0.3,0-0.4,0-0.4,0.2C113.5,46.5,113.6,46.7,113.9,47.2z M125.1,46.2
	c-0.1,0.1-0.4,0.1-0.9,0.1c-0.5,0-0.8,0-1-0.1l0,0c-0.1,0-0.2-0.1-0.2-0.3c0-0.2-0.1-0.7-0.1-1.5c0-0.5,0-1.8,0-3.9c0-0.6,0-1,0-1.3
	c0-0.5,0-1.3,0-2.2c0-1.8,0-3,0-3.5c0-0.7,0.1-1.1,0.2-1.3c0.1-0.1,0.3-0.2,0.6-0.1c0.2,0,0.3,0,0.4,0s0.2,0,0.4,0
	c0.3,0,0.5,0,0.6,0.1c0.1,0.2,0.2,0.6,0.2,1.3c0,0.5,0,1.6,0,3.5c0,1,0,1.7,0,2.3c0,0.3,0,0.7,0,1.2c0,2,0,3.4,0,3.9
	c0,0.8,0,1.2-0.1,1.4C125.3,46.1,125.3,46.2,125.1,46.2C125.1,46.2,125.1,46.2,125.1,46.2z M128.7,43.3c0.1,0,0.1,0,0.2,0
	c0,0,0.1-0.1,0.3-0.3c1-1.5,2-3.4,2.9-5.6c0,0,0-0.1,0-0.1c0.4-0.8,0.6-1.3,0.7-1.5c0.1-0.2,0.3-0.3,0.5-0.4
	c0.4-0.2,0.2-0.4-0.6-0.6c0,0-0.2,0-0.3-0.1c-0.5-0.1-0.8-0.2-1.1-0.3l0,0c-0.5-0.1-0.7-0.2-0.8-0.2s-0.1,0.1-0.1,0.3
	c0,0.7-0.1,1.7-0.4,3.1c-0.2,1.4-0.6,2.8-0.9,4.3c0,0,0,0.1,0,0.1c-0.2,0.6-0.2,1-0.3,1.1C128.6,43.2,128.6,43.2,128.7,43.3z
	 M117.8,42.7c0.5,0.3,0.9,0.2,1.2-0.2c0.3-0.4,0.4-1.1,0.4-2c-0.1-0.9-0.3-1.8-0.7-2.7c-0.3-0.6-0.7-1.3-1.2-1.9
	c-0.5-0.6-0.9-1.1-1.2-1.3c-0.3-0.2-0.4-0.1-0.3,0.4c0.4,1,0.7,2.2,0.9,3.4c0.3,1.2,0.4,2.3,0.4,3.2c0,0.5,0,0.7,0.1,0.8
	C117.5,42.5,117.6,42.6,117.8,42.7z M121.2,31.1c0.1,0,0.3,0,0.5-0.1c0.2-0.1,0.4-0.2,0.5-0.3c0.5-0.7,0.5-1.5-0.1-2.4
	c-0.5-0.9-1.5-1.6-2.7-2.2c-0.5-0.2-0.8-0.3-1-0.3c-0.1,0-0.1,0.2,0.1,0.4c0.4,0.5,0.8,1.2,1.1,1.9c0.4,0.8,0.6,1.4,0.7,2
	C120.5,30.7,120.8,30.9,121.2,31.1z M145.7,47.3c0,0,0.3,0,0.9,0c0.7-0.1,1.5-0.2,2.3-0.2c0.8,0,2.9,0,6.4,0c4.5,0,6.8,0,7,0
	c0.3-0.1,0.4-0.2,0.3-0.5c-0.1-0.2-0.5-0.6-1.1-1.1c0,0-0.1,0-0.1-0.1c-0.6-0.5-1-0.7-1.1-0.7c-0.2,0-0.4,0.2-0.8,0.7
	c0,0-0.1,0.1-0.1,0.1c0,0-0.1,0.1-0.1,0.2c-0.3,0.4-0.5,0.6-0.7,0.6c-0.2,0.1-0.6,0.1-1.4,0.1c-0.1,0-0.2,0-0.3,0
	c-0.2,0-0.4,0-0.6,0c-0.5,0-0.9,0-1-0.1c-0.2-0.1-0.3-0.4-0.4-0.8c0-0.3,0-1,0-2.1c0-0.5,0-1,0-1.3c0-0.4,0-0.9,0-1.5c0-1,0-1.7,0-2
	c0.1-0.4,0.2-0.6,0.5-0.7c0.2-0.1,0.7-0.1,1.4-0.1c0.4,0,0.8,0,1.1,0c1.3,0,2.2-0.1,2.5-0.1c0.4-0.1,0.6-0.3,0.4-0.5
	c-0.2-0.2-0.6-0.6-1.5-1.2c0,0-0.1,0-0.1-0.1c-0.4-0.3-0.6-0.4-0.7-0.3c-0.1,0-0.3,0.2-0.7,0.6c0,0-0.1,0.1-0.1,0.1
	c0,0.1-0.1,0.2-0.2,0.3c-0.2,0.2-0.3,0.4-0.4,0.5c-0.2,0.1-0.5,0.2-0.9,0.2c-0.3,0-1,0-2.1,0c-0.4,0-0.8,0-1.1,0c-0.2,0-0.5,0-0.9,0
	c-1.3,0-2.2,0-2.5,0c-0.5,0-0.8-0.1-0.9-0.2c0-0.1,0-0.3,0.1-0.6c0-0.1,0.1-0.1,0.1-0.2c0.5-1.4,0.8-2.5,1-3.1
	c0-0.1,0.1-0.3,0.1-0.5c0.1-0.4,0.2-0.6,0.3-0.7c0.2-0.1,0.6-0.2,1.1-0.3c0.4,0,1.4,0,2.9,0c0.8,0,1.5,0,2,0c3,0,4.7,0,5.2,0
	c0.5,0,0.8-0.1,0.9-0.2c0.1-0.1-0.1-0.4-0.4-0.7c-0.4-0.4-0.9-0.8-1.5-1.3c-0.3-0.2-0.4-0.2-0.6-0.2c-0.1,0-0.4,0.3-0.7,0.8
	c0,0.1-0.1,0.2-0.2,0.3c-0.2,0.2-0.3,0.4-0.4,0.5c-0.2,0.1-0.4,0.2-0.9,0.2c-0.3,0-1,0-2,0c-0.4,0-0.8,0-1,0c-0.3,0-0.7,0-1.2,0
	c-1.1,0-1.9,0-2.2,0c-0.4,0-0.7-0.2-0.7-0.3c0-0.1,0-0.4,0.1-0.9c0-0.2,0.1-0.4,0.1-0.5c0.1-0.6,0.2-1.1,0.3-1.6
	c0.1-0.4,0.2-0.6,0.2-0.7c0.1-0.1,0.2-0.2,0.4-0.3c0.2-0.1,0.3-0.1,0.4-0.2c0.1-0.1,0.1-0.2,0-0.2c0,0-0.6-0.1-1.8-0.3
	c-1.2-0.2-1.7-0.3-1.8-0.2c0,0,0,0.4,0,1.2c0,2.5-0.3,3.9-0.7,4.1c-0.2,0.1-1.1,0.1-2.9,0.1c-1.7,0-2.8-0.1-3.3-0.2
	c-0.1,0-0.2,0-0.2,0.1c0,0.1,0.1,0.2,0.2,0.5c0,0,0,0,0,0.1c0.1,0.2,0.2,0.4,0.3,0.4c0.1,0,0.3,0,0.7,0c0.1,0,0.2,0,0.3,0
	c0.9-0.1,1.9-0.2,3.1-0.2c0,0,0,0,0.1,0c0.7,0,1.1,0,1.2,0c0.2,0,0.4,0.2,0.4,0.3c0,0.1,0,0.4-0.1,0.9c0,0,0,0.1,0,0.1
	c-0.6,2.6-1.4,4.9-2.4,7.2c-1,2.2-2.2,4-3.5,5.5c0,0.1-0.1,0.2-0.2,0.3c-0.2,0.2-0.3,0.3-0.3,0.3c-0.1,0.1-0.1,0.2-0.1,0.3
	c0.1,0.1,0.1,0.1,0.2,0c0.1,0,0.3-0.2,0.6-0.4c2.3-1.8,4.2-4.3,5.7-7.4c0,0,0,0,0-0.1c0.2-0.5,0.4-0.7,0.6-0.8s0.7-0.1,1.6-0.1
	c0.1,0,0.2,0,0.3,0c0.2,0,0.4,0,0.7,0c0.5,0,0.9,0,1,0.1c0.2,0.1,0.3,0.3,0.4,0.7c0,0.3,0,0.9,0,2c0,0.6,0,1,0,1.4
	c0,0.2,0,0.4,0,0.7c0,1.6,0,2.6,0,2.9c0,0.3-0.1,0.4-0.2,0.5l0,0c-0.2,0.1-1.2,0.1-3.2,0c-2,0-3.2-0.1-3.6-0.1
	c-0.1,0-0.2,0.1-0.1,0.3C145.3,46.7,145.5,47,145.7,47.3z M174.8,47.9c0.2,0,0.5,0,0.8,0c0.4,0,0.6-0.1,0.8-0.2
	c0.2-0.1,0.3-0.2,0.3-0.3c0-0.1,0.1-0.3,0.1-0.6c0,0,0-0.1,0-0.2c0-0.3,0-0.4,0.1-0.5c0.1-0.1,0.4-0.2,0.9-0.2c0.3,0,1.1,0,2.3,0
	c0.4,0,0.8,0,1.1,0c0.3,0,0.6,0,1,0c1.3,0,2.1,0,2.4,0c0.5,0,0.8,0.1,0.9,0.2c0.1,0.1,0.1,0.3,0.1,0.6c0,0.1,0,0.2,0,0.2
	c0,0.5,0.1,0.8,0.2,0.9c0.2,0.1,0.6,0.1,1.2-0.1c0.5-0.1,0.8-0.3,0.9-0.5c0.1-0.1,0.1-0.5,0.1-1.1c-0.1-1.5-0.1-3.1-0.1-4.8
	c0-1.8,0-2.7,0.1-2.8c0.1-0.2,0.2-0.3,0.4-0.4c0.3-0.1,0.4-0.2,0.3-0.3c0-0.1-0.2-0.4-0.6-0.7c-0.7-0.7-1.1-1-1.3-1.1
	c-0.2,0-0.5,0.2-0.8,0.6c0,0-0.1,0.1-0.1,0.2c-0.1,0.2-0.3,0.3-0.4,0.4c-0.2,0.1-0.5,0.1-0.9,0.1c-0.3,0-1,0-2.2,0c-0.5,0-1,0-1.3,0
	c-2,0-3.2,0-3.6,0c-0.4,0-0.6-0.1-0.8-0.1c-0.5-0.2-0.8-0.3-0.9-0.5c-0.1-0.2,0-0.4,0.2-0.8c0.8-1.3,1.3-2.4,1.7-3.1
	c0.3-0.5,0.5-0.9,0.6-1c0.1,0,2.1-0.1,6-0.1c3,0,4.8,0,5.3,0c0.5,0,0.8-0.1,0.9-0.2c0.1-0.2-0.4-0.8-1.5-1.7l0,0
	c-0.4-0.4-0.7-0.5-0.9-0.5c-0.1,0-0.4,0.2-0.7,0.7c0,0-0.1,0.1-0.1,0.1c0,0.1-0.1,0.2-0.2,0.3c-0.2,0.3-0.4,0.5-0.5,0.6
	c-0.2,0.1-0.5,0.2-0.9,0.2c-0.3,0-1,0-2,0c-0.5,0-0.8,0-1.1,0c-0.2,0-0.5,0-0.9,0c-1.2,0-2,0-2.3,0c-0.4,0-0.7-0.1-0.8-0.3
	c0-0.1,0-0.4,0.2-0.8c0-0.1,0.1-0.2,0.1-0.3c0,0,0-0.1,0.1-0.3c0.2-0.5,0.3-0.9,0.3-1.1c0.2-0.6,0.3-0.9,0.4-1.1
	c0.1-0.2,0.2-0.3,0.4-0.4c0.3-0.1,0.3-0.3,0-0.4c-0.3-0.1-1-0.4-2.1-0.6c0,0-0.1,0-0.2,0c-0.4-0.1-0.6-0.1-0.6-0.1
	c-0.1,0-0.1,0.1-0.1,0.4c0,0.1,0,0.1,0,0.1c-0.1,1.2-0.2,2.3-0.5,3.3c-0.3,1-0.5,1.6-0.7,1.7c-0.2,0.1-1,0.1-2.5,0.1
	c-1.5,0-2.8,0-3.7-0.1c-0.3,0-0.4,0-0.5,0c0,0,0.1,0.2,0.2,0.5c0,0,0,0,0,0.1c0.1,0.2,0.2,0.4,0.3,0.4c0.1,0,0.3,0,0.6,0
	c0.1,0,0.1,0,0.2,0c0.8-0.1,1.7-0.2,2.9-0.2c1.2,0,1.8,0,2,0c0.3,0.2,0.2,0.8-0.3,2c-0.5,1.1-1.2,2.4-2.1,3.8
	c-1,1.5-1.9,2.7-2.9,3.6c-0.5,0.5-0.8,0.8-0.8,0.9c-0.1,0.1-0.1,0.2,0.1,0.2c0.2,0,0.7-0.3,1.5-0.9c0.8-0.7,1.6-1.3,2.3-2
	c0,0,0.1-0.1,0.1-0.1c0.5-0.4,0.8-0.7,0.9-0.8c0.2-0.1,0.3,0,0.3,0.3c0,0.2,0,0.8,0,1.6c0,0.1,0,0.2,0,0.3c0,1.9,0,3.6-0.1,5.3
	c0,0.8-0.1,1.4,0,1.5C174.5,47.8,174.6,47.9,174.8,47.9z M181.2,45.2c-2.6,0-4,0-4.2-0.1c-0.1-0.1-0.2-0.3-0.2-0.6
	c0-0.3,0-1.2,0-2.9c0-0.3,0-0.7,0-1.2c0-0.9,0-1.4,0.1-1.7c0.1-0.3,0.3-0.5,0.7-0.6c0.3-0.1,1-0.1,2.1-0.1c0.6,0,1.2,0,1.5,0
	c0.4,0,0.9,0,1.5,0c1.1,0,1.8,0,2.1,0.1c0.4,0.1,0.7,0.3,0.8,0.6c0.1,0.2,0.1,0.8,0.1,1.6c0,0.5,0,0.9,0,1.2c0,1.6,0,2.6,0,2.9
	c0,0.3-0.1,0.5-0.2,0.6C185.3,45.1,183.9,45.2,181.2,45.2z M203.5,47.9c0.1,0,0.3,0,0.8-0.1c0.8-0.2,1.3-0.6,1.5-1.2
	c0-0.2,0.1-1.5,0.1-4c0-0.2,0-0.5,0-0.8c0-1.2,0-1.9,0-2.3c0-0.4,0.1-0.8,0.1-0.9c0-0.1,0.2-0.2,0.3-0.3c0.1,0,0.1-0.1,0.1-0.1
	c0.3-0.2,0.5-0.3,0.6-0.2c0.1,0,0.2,0.3,0.3,0.6c0,0.4,0,1,0,1.9c0,0.8,0,1.2,0,1.4c0,0.1,0.1,0.2,0.2,0.3c0.2,0.1,0.5,0,0.8-0.1
	s0.5-0.2,0.5-0.4c0-0.2,0.1-0.3,0.4-0.4c0.3-0.1,0.5-0.1,0.7,0.1c0.2,0.1,0.3,0.5,0.3,1.1s-0.1,1-0.3,1.2c-0.1,0.1-0.6,0.2-1.4,0.3
	c-0.8,0.1-1.4,0.1-1.8,0.1c-0.1,0-0.2,0.1-0.1,0.2c0,0.1,0.2,0.4,0.4,0.9c0.3,0.6,0.4,0.9,0.5,1c0.1,0.1,0.2,0,0.4-0.1
	c0.1-0.1,0.3-0.2,0.5-0.3c0.2-0.1,0.6-0.2,1.2-0.4c0.2-0.1,0.6-0.2,1.1-0.3c0.5-0.2,0.9-0.3,1.1-0.4c0.7-0.2,1.2-0.4,1.4-0.3
	c0.2,0,0.3,0.2,0.5,0.5c0.1,0.2,0.2,0.4,0.5,0.5c0.3,0.1,0.5,0,0.6-0.2c0.3-0.3,0.4-0.6,0.2-1.1c-0.1-0.4-0.4-0.8-0.9-1.2
	c-0.2-0.2-0.4-0.3-0.5-0.4c-0.2-0.2-0.3-0.2-0.5-0.2c-0.1,0-0.3,0-0.4,0c-0.2,0-0.2,0.1,0,0.4c0.2,0.2,0.2,0.5,0.1,0.7
	c-0.1,0.2-0.2,0.3-0.4,0.4c-0.2,0-0.4-0.1-0.6-0.3c-0.2-0.3-0.3-0.6-0.2-0.9c0-0.4,0.2-0.6,0.4-0.9c0.2-0.2,0.5-0.3,0.7-0.1
	c0.1,0.1,0.3,0.2,0.4,0.5c0.1,0.1,0.2,0.1,0.6,0c0.5-0.1,0.7-0.2,0.8-0.4c0.1-0.1,0.1-0.5,0.1-1c-0.1-1-0.1-1.6,0-2
	c0.1-0.3,0.2-0.6,0.5-0.7c0.2-0.1,0.3-0.2,0.2-0.3c0-0.1-0.2-0.3-0.4-0.5c-0.4-0.4-0.7-0.6-0.9-0.6c-0.2,0-0.4,0.1-0.6,0.3
	c-0.5,0.5-1,0.7-1.4,0.4c-0.2-0.1-0.2-0.2-0.3-0.4c0-0.2,0.1-0.4,0.2-0.5c0.2-0.1,0.2-0.2,0.1-0.4c-0.1-0.1-0.5-0.3-1.1-0.6
	c-0.4-0.1-0.6-0.2-0.7-0.2c0,0-0.1,0.2,0,0.4c0.1,0.7,0,1.2-0.2,1.4c-0.2,0.2-0.5,0.3-1,0.1c-0.4-0.1-0.6-0.3-0.5-0.5
	c0-0.2,0.3-0.6,0.7-1.2c0,0,0.1-0.1,0.1-0.2c0.3-0.4,0.5-0.6,0.8-0.6c0.3-0.1,1-0.1,2.2-0.1c0.3,0,0.5,0,0.6,0c0.2,0,0.5,0,0.9,0
	c0.8,0,1.3,0,1.5,0c0.3,0.1,0.5,0.2,0.6,0.5c0,0.2,0,0.7,0,1.5c0,0.4,0,0.7,0,0.9c0,2.1-0.1,3.7-0.2,4.6c-0.1,0.9-0.2,1.6-0.4,2.3
	c-0.2,0.6-0.4,1-0.7,1.1c-0.3,0.1-0.9,0.1-2,0c-0.4,0-0.7,0-0.8,0c-0.1,0-0.2,0-0.2,0.1c0,0.1,0.2,0.2,0.6,0.3
	c1.1,0.3,1.7,0.8,1.7,1.6c0,0.1,0,0.2,0.1,0.2c0.1,0,0.3,0,0.6,0c0.9-0.1,1.5-0.4,1.9-0.9c0.4-0.6,0.7-1.6,0.9-3
	c0.2-1.3,0.3-3.4,0.4-6.4c0-1.2,0.1-1.9,0.1-2.2c0.1-0.3,0.2-0.5,0.4-0.5c0,0,0.1,0,0.2-0.1c0.1-0.1,0.2-0.2,0.2-0.2
	c0-0.1-0.2-0.3-0.5-0.6c-0.4-0.4-0.7-0.6-1-0.8c-0.3-0.2-0.4-0.3-0.4-0.3c0,0,0.1-0.1,0.2-0.2c0.1-0.1,0.2-0.2,0.3-0.2
	c0.2-0.1,0.3-0.2,0.3-0.3c0-0.1,0-0.4,0-1c-0.1-1.1-0.1-1.9,0-2.3c0-0.4,0.2-0.7,0.4-0.8c0.3-0.2,0.4-0.3,0.3-0.4
	c0-0.1-0.3-0.4-0.7-0.7c-0.4-0.4-0.7-0.6-0.9-0.6c-0.2-0.1-0.3,0.1-0.6,0.4c0,0-0.1,0.1-0.1,0.2c-0.2,0.3-0.4,0.5-0.7,0.5
	c-0.3,0-1,0.1-2.4,0.1c-0.4,0-0.6,0-0.8,0c-0.2,0-0.4,0-0.8,0c-1.3,0-2,0-2.3,0s-0.6-0.1-1.1-0.3c-0.1-0.1-0.3-0.1-0.4-0.1l0,0
	c-0.4-0.2-0.7-0.3-0.7-0.3c-0.1,0-0.1,0.1-0.1,0.3c0.1,0.9,0.1,1.9,0.1,3c0,1.1,0,1.7-0.1,1.9c-0.1,0.1-0.2,0.2-0.3,0.2
	c-0.1,0-0.3-0.1-0.6-0.3c-0.4-0.3-0.8-0.5-1-0.6c-0.2-0.1-0.3,0-0.5,0.1c-0.3,0.4-0.5,0.6-0.7,0.7c-0.2,0.1-0.4,0.1-0.6,0.1
	c-0.5-0.1-0.5-0.4,0-0.9c0.1-0.1,0.2-0.3,0.5-0.6c0.1-0.1,0.2-0.2,0.2-0.3c0.3-0.4,0.6-0.6,0.7-0.7s0.3-0.2,0.6-0.2
	c0.2-0.1,0.4-0.2,0.3-0.3s-0.2-0.3-0.5-0.6c-0.5-0.5-0.9-0.8-1.1-0.9c-0.2-0.1-0.4,0-0.6,0.3c-0.3,0.4-0.7,0.6-1.1,0.7
	c-0.4,0.1-0.6,0-0.7-0.2c-0.1-0.2,0-0.6,0.2-0.9c0.1-0.2,0.2-0.2,0.3-0.2c0.6-0.2,0.1-0.5-1.4-1.1c0,0-0.1,0-0.2-0.1
	c-0.4-0.1-0.6-0.2-0.6-0.1c-0.1,0-0.1,0.1-0.1,0.4c0,0,0,0.1,0,0.1c-0.1,1.1-0.4,2.3-0.8,3.6s-0.9,2.5-1.5,3.6
	c-0.2,0.3-0.3,0.6-0.3,0.6c0,0.1,0,0.1,0.1,0.1c0.1,0,0.2-0.1,0.4-0.3c0.3-0.3,0.6-0.4,0.7-0.2c0.1,0.1,0.1,1.2,0.1,3.4
	c0,2.2,0,3.6-0.1,4.4c-0.2,2.5-0.5,4.5-1.2,6c-0.1,0.2-0.1,0.4,0,0.4c0.1,0.1,0.2,0,0.4-0.2c0.5-0.6,1-1.4,1.4-2.4
	c0.4-1,0.7-2.2,0.9-3.4c0,0,0-0.1,0-0.2c0.1-0.5,0.2-0.8,0.3-0.9s0.6-0.1,1.4-0.1c0.2,0,0.3,0,0.4,0c0.1,0,0.3,0,0.6,0
	c0.6,0,1,0,1.1,0c0.2,0,0.4,0.2,0.4,0.5c0,0.2,0.1,0.6,0,1.3c0,0.3,0,0.5,0,0.7c0,0.1,0,0.2,0,0.3c0,0.9,0,1.5,0,1.7
	c0,0.3-0.2,0.5-0.4,0.6c-0.1,0-0.5,0-1,0c-0.1,0-0.2,0-0.2,0c-0.5,0-0.8,0-0.9,0c-0.1,0-0.1,0-0.1,0.1c0,0.1,0,0.1,0.1,0.1
	c0,0,0.2,0.1,0.5,0.1c0.8,0.2,1.3,0.7,1.5,1.4c0,0,0,0,0,0.1C203.5,47.9,203.5,47.9,203.5,47.9z M209.8,40.5c-0.7,0.3-1,0-1-1.1
	c0-0.6,0.1-1,0.2-1.3c0.2-0.2,0.5-0.3,0.8,0c0.2,0.1,0.3,0.6,0.3,1.2C210.2,40,210,40.4,209.8,40.5z M212.6,40.6
	c-0.4,0.2-0.7,0.1-1-0.3c-0.2-0.4-0.2-1-0.1-1.7c0.1-0.4,0.3-0.5,0.7-0.5c0.4,0,0.6,0.2,0.7,0.5c0.1,0.4,0.1,0.8,0,1.2
	C212.9,40.2,212.8,40.5,212.6,40.6z M203.9,39.8c-0.2,0.1-0.3,0.1-0.6,0.1c-0.2-0.1-0.3-0.2-0.4-0.3c-0.1-0.1-0.1-0.6-0.1-1.4
	c0-0.8,0.1-1.3,0.1-1.4c0.1-0.2,0.3-0.3,0.4-0.3c0.2,0,0.3,0,0.5,0.1c0.2,0.1,0.3,0.7,0.3,1.6C204.2,39.2,204.1,39.7,203.9,39.8z
	 M201.1,39.8c-0.2,0.1-0.4,0.1-0.6,0.1c-0.2-0.1-0.3-0.2-0.4-0.3c0-0.1,0-0.6,0-1.3c0-0.8,0-1.3,0.1-1.5c0.1-0.2,0.3-0.3,0.5-0.3
	c0.3,0,0.5,0.1,0.5,0.3c0.1,0.2,0.1,0.7,0.1,1.6c0,0.6,0,0.9-0.1,1.1C201.3,39.7,201.2,39.8,201.1,39.8z M206.5,37
	c-0.3,0.3-0.4,0.3-0.5,0.1c-0.1-0.1-0.1-0.8-0.1-2.1s0-2,0.1-2.1c0.1-0.2,0.3-0.3,0.5-0.4s0.4,0,0.5,0.1c0.1,0.1,0.2,0.1,0.3,0.1
	c0.1,0,0.4,0,0.8-0.1c0.3,0,0.4,0.1,0.4,0.4c0,0.3-0.3,0.9-0.8,1.9C207.2,36,206.8,36.7,206.5,37z M203.8,35.7
	c-0.4,0.2-0.6,0.2-0.8,0c-0.2-0.3-0.2-0.8-0.2-1.5c0-0.8,0.1-1.3,0.2-1.5c0.1-0.2,0.4-0.3,0.8-0.1c0.2,0.1,0.3,0.6,0.3,1.5
	C204.2,35,204.1,35.6,203.8,35.7z M200.7,35.8c-0.3,0-0.4-0.1-0.5-0.3c-0.1-0.2-0.1-0.7-0.1-1.3c0-0.8,0.1-1.2,0.2-1.5
	c0.2-0.2,0.4-0.2,0.7,0c0.2,0.1,0.3,0.6,0.3,1.5c0,0.9-0.1,1.4-0.3,1.5C200.9,35.7,200.8,35.8,200.7,35.8z M215.4,34
	c-0.1,0-0.9,0-2.4,0s-2.2,0-2.3-0.1c-0.2-0.1-0.3-0.3-0.1-0.6c0.1-0.3,0.3-0.5,0.6-0.6c0.3-0.1,0.4-0.2,0.1-0.4
	c-0.3-0.2-0.3-0.4,0-0.4c0.3-0.1,1-0.1,2.1-0.1c1.1,0,1.7,0,1.9,0.1c0.2,0,0.3,0.2,0.3,0.4c0,0.1,0,0.2,0,0.2c0,0,0.1,0,0.3,0
	c0.4,0.1,0.6,0.1,0.6,0.2c0,0.1-0.2,0.3-0.5,0.6C215.8,33.8,215.6,34,215.4,34z M201.4,31.8c-0.2,0-0.5,0.1-0.7,0
	c-0.3,0-0.5-0.1-0.6-0.2c-0.2-0.1-0.3-0.3-0.3-0.4c0-0.2,0.2-0.5,0.5-1.1c0.3-0.6,0.5-0.9,0.7-1c0.1-0.1,0.4-0.2,0.8-0.2
	c0.4,0,0.6,0,0.7,0.1c0.1,0.1,0.2,0.3,0.1,0.6c0,0.3-0.2,0.7-0.5,1.5C201.9,31.5,201.7,31.7,201.4,31.8z M215.4,31.1
	c-0.8,0.5-1.1,0-1.1-1.5c0-0.7,0-1.2,0.1-1.3c0.1-0.2,0.3-0.3,0.6-0.3c0.3,0,0.5,0.1,0.6,0.3c0.1,0.2,0.1,0.6,0.1,1.3
	c0,0.6,0,1,0,1.2C215.6,30.9,215.5,31.1,215.4,31.1z M209.8,31.1c-0.2,0.1-0.5,0.2-0.7,0s-0.4-0.3-0.4-0.6c-0.1-0.8-0.1-1.5,0-1.9
	c0.1-0.5,0.4-0.7,0.7-0.7c0.3,0,0.5,0.1,0.6,0.3s0.1,0.6,0.1,1.4c0,0.6,0,1,0,1.2C210,30.9,209.9,31,209.8,31.1z M212.5,31.1
	c-0.2,0.1-0.4,0.1-0.6,0.1c-0.2,0-0.4-0.1-0.5-0.3c-0.1-0.1-0.1-0.6-0.1-1.3c0-0.8,0.1-1.2,0.1-1.3c0.1-0.1,0.2-0.2,0.5-0.3
	c0.2,0,0.4,0,0.6,0.1c0.3,0.1,0.4,0.6,0.4,1.5C212.9,30.5,212.8,31,212.5,31.1z M227.3,47.9c0,0,0.1,0.1,0.3,0c0.1,0,0.1,0,0.2,0
	c1-0.2,1.7-0.6,1.9-1.1l0,0c0.1-0.3,0.2-0.6,0.2-1c0-0.4,0.1-1.7,0.1-3.8c0-2.7,0-4.1,0.1-4.2c0.1-0.2,0.5-0.5,1.2-0.9
	c1.1-0.7,1.6-1.1,1.6-1.2c0-0.1-0.1-0.1-0.2-0.1s-0.4,0.1-1,0.3c-0.1,0-0.1,0-0.2,0.1c-0.5,0.2-0.9,0.3-1,0.2
	c-0.2,0-0.3-0.1-0.4-0.4c0-0.2-0.1-0.6-0.1-1.3c0-0.2,0-0.3,0-0.4c0-0.1,0-0.3,0-0.6c0-0.7,0-1.1,0-1.2c0-0.2,0.2-0.4,0.3-0.5
	c0.1,0,0.5,0,1,0c0.2,0,0.3,0,0.4,0c0,0,0.1,0,0.1,0c0.7,0,1.2,0,1.3,0.1c0.1,0.1,0.2,0.3,0.3,0.7c0,0,0,0.1,0,0.1
	c0,0.3,0,1.4,0,3.2c0,1.8,0,2.9,0,3.3c0,0.5,0,0.8,0.1,0.9c0.1,0.1,0.4,0.1,0.9,0c0.7-0.2,1.1-0.4,1.1-0.7c0-0.4,0.3-0.6,0.8-0.7
	c0.6-0.1,1,0,1.1,0.4c0.1,0.3,0.1,0.7,0,1.3c-0.1,0.6-0.2,1-0.4,1.1c-0.1,0-0.8,0.1-2.2,0c-1.3,0-2.3,0-2.8-0.1c-0.4,0-0.6,0-0.6,0
	c0,0,0,0.2,0.2,0.5c0,0,0,0.1,0,0.1c0.1,0.3,0.2,0.4,0.3,0.4c0.1,0,0.2,0,0.4,0h0.1c0.6-0.1,1.4-0.2,2.3-0.2c1-0.1,1.6-0.1,1.8,0
	c0.5,0.1,0.5,0.6,0,1.5c-0.9,1.6-2.7,2.8-5.3,3.8c-0.4,0.2-0.7,0.3-0.8,0.3c0,0,0,0.1,0,0.2c0,0.1,0.2,0.1,0.4,0
	c0.2,0,0.7-0.1,1.4-0.3c1.8-0.5,3.2-1.1,4.2-1.8c1.1-0.7,1.9-1.6,2.4-2.6c0.2-0.4,0.4-0.6,0.5-0.6c0.1,0,0.3,0.2,0.4,0.6
	c0.9,2.2,2.4,3.7,4.5,4.4c0.2,0.1,0.4,0.1,0.4,0.1c0.1,0,0.1-0.1,0.1-0.3c0.1-0.8,0.6-1.4,1.4-1.7c0.3-0.1,0.4-0.2,0.3-0.3
	c0,0-0.3-0.1-0.8-0.2c-1.5-0.3-2.8-0.8-4-1.4c-1.2-0.6-1.7-1.2-1.7-1.7c0-0.1,0.1-0.2,0.1-0.2c0.1,0,0.4-0.1,0.8-0.1
	c0.3,0,1,0,2.1,0c1.3,0,2.2,0,2.5-0.1c0.5,0,0.7-0.2,0.6-0.3c0-0.1-0.3-0.4-0.8-0.9c-0.5-0.5-0.8-0.7-1-0.8
	c-0.2-0.1-0.4-0.2-0.5-0.1c-0.1,0.1-0.3,0.3-0.5,0.6c0,0-0.1,0.1-0.1,0.2c-0.3,0.4-0.5,0.7-0.7,0.7c-0.1,0.1-0.5,0.1-1.2,0.1
	c-0.1,0-0.2,0-0.3,0c0,0-0.1,0-0.2,0c-0.7,0-1.1-0.1-1.2-0.2c-0.1-0.1-0.1-0.5,0-1.1c0-0.1,0-0.1,0-0.2c0.1-0.6,0.2-1,0.3-1.1
	c0.1-0.1,0.4-0.2,1-0.2c0.5,0,0.8,0.1,1,0.2c0.2,0.1,0.3,0.3,0.3,0.6c0,0.2,0,0.3,0.1,0.3c0.1,0,0.2,0,0.4,0
	c0.8-0.1,1.2-0.3,1.4-0.5c0.2-0.2,0.3-0.7,0.3-1.4c-0.1-2-0.1-3.3,0-3.8c0.1-0.6,0.2-0.9,0.5-1.1c0.2-0.1,0.3-0.3,0.2-0.5
	c-0.1-0.2-0.4-0.4-0.9-0.8c-0.5-0.4-0.8-0.6-1-0.6c-0.1,0-0.3,0.1-0.6,0.4c0,0-0.1,0.1-0.1,0.2c-0.2,0.3-0.4,0.4-0.7,0.5
	c-0.2,0-1,0-2.2,0c-0.4,0-0.7,0-0.9,0c-1.5,0-2.4,0-2.7,0c-0.3,0-0.6,0-0.7-0.1c-0.8-0.3-1.5-0.6-1.9-0.8s-0.8-0.5-1.1-0.8
	c-0.5-0.5-0.8-0.7-0.9-0.7c-0.1,0-0.3,0.2-0.6,0.5c-0.2,0.4-0.4,0.6-0.6,0.7c-0.1,0.1-0.2,0.1-0.3,0c0,0-0.1-0.2-0.1-0.3
	c0-0.2,0-0.6,0-1.4c0-0.9,0-1.4,0-1.6c0-0.2,0.1-0.4,0.3-0.5c0.3-0.2,0.2-0.4-0.1-0.5c-0.3-0.2-1-0.4-2.1-0.6l0,0
	c-0.3-0.1-0.4-0.1-0.4,0c0,0,0,0.3,0,0.6c0.1,0.9,0.2,1.8,0.2,2.7c0,1,0,1.5-0.1,1.6c-0.1,0.2-0.3,0.3-0.6,0.3c-0.3,0-0.9,0-1.7-0.1
	c0,0,0,0-0.1,0c-0.3,0-0.4,0-0.5,0c0,0,0,0.2,0.1,0.4c0,0,0,0.1,0,0.1c0,0,0,0,0,0.1c0.1,0.2,0.2,0.4,0.2,0.4c0.1,0,0.2,0,0.5-0.1
	c0,0,0.1,0,0.1,0c0.7-0.2,1.1-0.2,1.3-0.2c0.3,0.1,0.5,0.3,0.6,0.7c0.1,0.3,0.1,1,0.1,2c0,0.1,0,0.3,0,0.6c0,0.8,0,1.3-0.1,1.5
	c-0.1,0.3-0.3,0.5-0.6,0.7c-0.2,0.1-0.8,0.3-1.6,0.5c-0.3,0.1-0.5,0.1-0.7,0.2c-0.1,0-0.2,0.1-0.2,0.2c0,0.1,0.1,0.5,0.3,1.1
	c0,0,0,0.1,0,0.1c0.3,0.8,0.4,1.2,0.5,1.3c0.1,0.1,0.2,0,0.3-0.2s0.4-0.5,0.9-0.7c0.4-0.2,0.7-0.3,0.9-0.2c0.1,0.1,0.2,0.2,0.2,0.5
	c0,0.2,0,1,0,2.4c0,0.1,0,0.3,0,0.6c0,1.1,0,1.8,0,2c-0.1,0.4-0.2,0.6-0.4,0.7c-0.2,0-0.6,0-1.2,0c-0.1,0-0.2,0-0.3,0
	c-0.5,0-0.7,0-0.8,0c-0.1,0.1,0,0.2,0.4,0.3c0.5,0.1,0.8,0.3,1.1,0.6c0.3,0.3,0.4,0.7,0.6,1.2C227.2,47.7,227.3,47.9,227.3,47.9z
	 M238.9,37.9c-2,0-3,0-3.1-0.1c-0.2-0.2-0.3-0.5-0.3-1.1c0-0.6,0.2-0.9,0.4-1c0.1-0.1,1.1-0.1,3-0.1c1.9,0,2.9,0,3,0.1
	c0.2,0.1,0.4,0.5,0.4,1c0,0.5-0.1,0.9-0.3,1.1C241.9,37.9,240.9,37.9,238.9,37.9z M238.9,34.9c-2,0-3,0-3.1-0.1
	c-0.2-0.2-0.3-0.5-0.3-1.1c0-0.6,0.2-0.9,0.4-1c0.1-0.1,1.1-0.1,3-0.1c1.9,0,2.9,0,3,0.1c0.2,0.1,0.4,0.5,0.4,1
	c0,0.5-0.1,0.9-0.3,1.1C241.9,34.9,240.9,34.9,238.9,34.9z M235.6,31.2c0.1,0.1,0.4,0,0.9-0.1c0.4-0.1,0.8-0.2,0.9-0.4
	c0.1-0.1,0.1-0.1,0.1-0.2c0,0,0-0.2,0-0.5c0-0.4,0.1-0.7,0.2-0.8c0.1-0.1,0.5-0.1,1.2-0.1c0.6,0,1,0,1.2,0.1s0.2,0.4,0.2,0.9
	c0,0.3,0,0.6,0,0.6s0.1,0.2,0.2,0.2c0.2,0.1,0.6,0,1-0.1c0.5-0.2,0.7-0.4,0.7-0.5v-0.1c0-0.2,0-0.3,0-0.4c0-0.4,0.1-0.6,0.3-0.6
	c0.2-0.1,0.8-0.1,1.8-0.1c1.2,0,1.8-0.1,1.9-0.3s-0.2-0.6-1-1.3c-0.4-0.4-0.7-0.6-0.9-0.6c-0.1,0-0.4,0.2-0.7,0.7l0,0
	c-0.4,0.6-0.8,0.8-1.1,0.6c-0.2-0.1-0.3-0.3-0.3-0.7c0-0.4,0.2-0.6,0.4-0.8c0.2-0.2,0.2-0.3,0-0.5c-0.2-0.1-0.8-0.3-1.7-0.6
	c-0.4-0.1-0.6-0.2-0.7-0.1c-0.1,0-0.1,0.1-0.1,0.4c0.2,1.3,0.1,2-0.1,2.2c-0.1,0.1-0.5,0.1-1.1,0.1c-0.6,0-1,0-1.1-0.1
	c-0.2-0.1-0.3-0.4-0.3-0.7c0-0.4,0.2-0.6,0.4-0.8c0.2-0.2,0.1-0.3-0.1-0.5c-0.3-0.1-0.8-0.3-1.7-0.6c0,0,0,0-0.1,0
	c-0.3-0.1-0.5-0.1-0.6-0.1c0,0-0.1,0.2,0,0.5v0.1c0.1,0.8,0.1,1.4,0,1.6c-0.1,0.3-0.4,0.5-0.8,0.6c-0.4,0-1.1,0-2.2-0.1
	c-0.2,0-0.2,0-0.3,0c0,0,0.1,0.2,0.2,0.6c0,0,0,0,0,0.1c0.1,0.2,0.2,0.4,0.3,0.4c0.1,0,0.3,0,0.6-0.1h0c0.8-0.2,1.4-0.2,1.7-0.1
	c0.3,0.1,0.4,0.4,0.4,1C235.4,30.8,235.5,31.1,235.6,31.2z M272.9,47.9c0.5,0.1,0.8-0.1,1.1-0.5c0.3-0.4,0.3-0.9,0.2-1.6
	c-0.3-1.7-1.7-3.1-4.1-4.3c-0.6-0.3-1-0.4-1.1-0.4c-0.1,0,0,0.2,0.3,0.6c0.8,1.1,1.3,1.8,1.4,2.1c0.1,0.3-0.2,0.5-0.7,0.6
	c-0.5,0-1.3,0.1-2.6,0.1c-1.3,0-2,0-2.1,0c-0.3,0-0.4-0.1-0.4-0.3c0-0.2,0.2-0.5,0.6-1c1.9-2.2,3.6-4.6,5.3-7.3
	c0.3-0.4,0.5-0.7,0.8-0.7c0.3-0.1,0.3-0.2,0-0.4c-0.3-0.2-0.9-0.5-1.9-1c0,0,0,0-0.1,0c-0.3-0.1-0.5-0.2-0.5-0.1
	c-0.1,0-0.1,0.2-0.2,0.5c0,0,0,0.1,0,0.1c-0.6,1.9-2.1,4.9-4.4,9.1c0,0-0.1,0.1-0.1,0.2c-0.3,0.5-0.6,0.8-0.7,0.9
	c-0.2,0.1-0.7,0.1-1.5,0.1c-0.1,0-0.2,0-0.3,0c-0.1,0-0.3,0-0.5,0c-0.6,0-1,0-1,0.1s0,0.4,0.2,0.8c0.1,0.2,0.1,0.3,0.2,0.4
	c0.3,0.8,0.5,1.3,0.6,1.4c0.1,0.1,0.2,0.1,0.4-0.1c0.1-0.1,0.3-0.2,0.6-0.3c0.3-0.1,0.9-0.2,1.8-0.4c1.3-0.3,2.8-0.6,4.5-1
	c0.4-0.1,0.6-0.1,0.8-0.2c0.8-0.2,1.3-0.3,1.5-0.3c0.3,0,0.6,0.1,0.7,0.4c0.1,0.2,0.3,0.7,0.5,1.5c0.1,0.3,0.2,0.6,0.3,0.7
	C272.4,47.8,272.6,47.9,272.9,47.9z M255.8,47.9c0.1,0.1,0.3,0.1,0.7,0c0.4-0.1,0.8-0.2,1.1-0.3c0.7-0.4,1.3-1.1,1.6-2.2
	c0.4-1.2,0.6-3,0.8-5.4c0-0.7,0.1-1.1,0.2-1.3c0.1-0.2,0.2-0.3,0.5-0.5c0.3-0.1,0.3-0.3,0.2-0.5c-0.1-0.2-0.5-0.5-1-1
	c-0.4-0.3-0.6-0.5-0.7-0.5s-0.3,0.2-0.6,0.5c-0.3,0.3-0.5,0.5-0.7,0.6c-0.2,0-0.6,0.1-1.2,0.1c0,0-0.1,0-0.2,0c-0.5,0-0.8,0-0.9-0.1
	c-0.2-0.1-0.3-0.2-0.3-0.5c0-0.2,0-0.6,0.1-1.3c0-0.1,0-0.2,0-0.2c0-0.1,0-0.2,0-0.3c0.1-0.7,0.1-1.2,0.1-1.3
	c0.1-0.3,0.2-0.4,0.3-0.5c0.1,0,0.4-0.1,0.8-0.1c0.1,0,0.1,0,0.2,0c0.5,0,0.9,0,1,0.1c0.2,0.1,0.2,0.3,0.2,0.6
	c0,0.2,0.2,0.3,0.5,0.3c0.3,0,0.7-0.1,1.2-0.3l0,0c0.2-0.1,0.3-0.2,0.4-0.3c0-0.1,0.1-0.4,0-1c0-0.1,0-0.1,0-0.2c0-0.9,0-1.4,0-1.7
	c0.1-0.2,0.3-0.2,0.5,0.2c0.1,0.1,0.1,0.2,0.2,0.2c0,0,0.2,0,0.4,0c0.1,0,0.1,0,0.1,0c0.9-0.1,1.8-0.2,2.5-0.2c0.6,0,0.9,0,1,0.1
	c0.2,0.1,0.3,0.3,0.2,0.6c0,0.2-0.2,0.7-0.5,1.5c-0.4,1-0.6,1.6-0.7,1.9c-0.2,0.4-0.3,0.6-0.5,0.6c-0.1,0-0.3,0-0.7-0.2
	c-1.7-0.7-2.3-0.7-1.5,0c1.2,1.2,2.1,2.5,2.5,3.8c0.1,0.3,0.2,0.5,0.3,0.6s0.3,0.2,0.6,0.2c0.6,0,1-0.4,1-1.1
	c0.1-0.7-0.2-1.4-0.8-2.1c-0.3-0.3-0.4-0.6-0.4-0.7c0-0.2,0.2-0.5,0.6-0.9c0.8-1,1.5-1.7,1.9-2.3c0.4-0.5,0.7-0.8,1-1
	c0.3-0.1,0.3-0.3,0-0.4c-0.3-0.1-0.4-0.3-0.3-0.4c0.1-0.1,0.3-0.1,0.6-0.2c0.4,0,1.3,0,2.7,0c1.4,0,2.3,0,2.7-0.1
	c0.5-0.1,0.6-0.2,0.5-0.5c-0.1-0.2-0.6-0.6-1.4-1.3l0,0c-0.4-0.4-0.7-0.6-0.9-0.6c-0.1,0-0.4,0.2-0.7,0.7l0,0
	c-0.4,0.5-0.6,0.8-0.8,0.9s-0.5,0.1-1.1,0.1c-0.6,0-1-0.1-1.1-0.2s-0.2-0.6-0.2-1.3c0-0.6,0-1,0-1.1c0-0.2,0.1-0.3,0.3-0.5
	c0.2-0.2,0.2-0.3,0.1-0.4s-0.5-0.2-1.1-0.4c-1.3-0.4-1.9-0.4-1.9-0.2c0.1,0.2,0.1,0.8,0.2,2c0,1.1,0,1.7,0,1.8
	c-0.1,0.2-0.6,0.3-1.5,0.3s-2,0-3.4-0.1c-0.3,0-0.4,0-0.5,0c-0.1,0-0.1,0-0.2-0.2c0-0.2-0.1-0.4-0.1-0.7c0-0.3,0-0.5,0.1-0.6
	c0.1-0.1,0.2-0.3,0.5-0.4c0.2-0.1,0.3-0.3,0.1-0.6c-0.2-0.3-0.6-0.6-1.2-1.1c-0.3-0.3-0.6-0.4-0.7-0.4c-0.1,0-0.3,0.2-0.5,0.6
	c-0.3,0.4-0.8,0.6-1.5,0.7c-0.7,0.1-1.8,0-3.4-0.1c-0.4,0-0.6,0-0.6,0c0,0,0,0.2,0.2,0.5c0,0,0,0.1,0.1,0.1c0.1,0.2,0.2,0.4,0.2,0.4
	c0.1,0,0.2,0,0.4,0c0,0,0.1,0,0.1,0c2.6-0.4,4-0.3,4.1,0.2c0.1,0.2,0.1,0.8,0.1,1.9c0,1.1-0.1,1.7-0.1,1.8c-0.2,0.3-0.5,0.4-1.1,0.4
	c-0.6,0-1.3-0.2-2.2-0.6c-0.1,0-0.2,0-0.3-0.1c-0.5-0.2-0.8-0.3-0.8-0.3c0,0-0.1,0.3,0,1c0,1.4-0.1,3.4-0.4,5.9c0,0,0,0.1,0,0.2
	c-0.1,0.5-0.1,0.8,0,0.9s0.2,0.1,0.6,0.1c0.1,0,0.1,0,0.2,0c0.5,0,0.8,0,0.9-0.1c0.2-0.1,0.3-0.3,0.3-0.6c0.1-0.4,0.2-0.6,0.3-0.7
	c0.2-0.1,0.6-0.1,1.2-0.1c0,0,0.1,0,0.1,0c0.5,0,0.9,0,1,0.1c0.2,0.1,0.3,0.3,0.3,0.6c0,0.2,0,0.7-0.1,1.6c0,0.1,0,0.2,0,0.2
	c-0.1,1.6-0.3,2.8-0.5,3.5c-0.2,0.8-0.4,1.3-0.8,1.5c-0.3,0.2-0.8,0.3-1.5,0.3c-0.1,0-0.2,0-0.4,0c-0.4,0-0.7,0-0.8,0
	c-0.3,0-0.5,0-0.5,0c0,0.1,0,0.1,0.1,0.2c0.1,0,0.3,0.1,0.5,0.2c1.1,0.3,1.6,0.9,1.6,1.7C255.7,47.8,255.7,47.9,255.8,47.9z
	 M39.8,71c0.9,0.7,1.3,0.9,1.3,0.6c0-0.3,0.2-0.6,0.6-1s0.7-0.7,1.1-0.9c0.3-0.1,0.4-0.2,0.4-0.3c0-0.1-0.2-0.2-0.5-0.3
	c-1.3-0.5-2.5-1.3-3.7-2.3c-0.4-0.3-0.6-0.6-0.6-0.7c0-0.2,0.1-0.5,0.3-0.9c1-1.7,1.7-3.6,2.3-5.7c0.1-0.6,0.3-1,0.4-1.1
	c0.1-0.2,0.2-0.3,0.5-0.3c0.3-0.1,0.4-0.2,0.3-0.4c-0.1-0.2-0.3-0.5-0.8-1c-0.5-0.5-0.8-0.8-1-0.8c-0.1,0-0.4,0.1-0.7,0.5
	c0,0-0.1,0.1-0.2,0.2c-0.3,0.3-0.5,0.4-0.7,0.5c-0.2,0-0.9,0.1-1.9,0.1c-0.3,0-0.5,0-0.7,0c-0.2,0-0.5,0-0.9,0c-0.8,0-1.3,0-1.6,0
	c-0.3,0-0.5-0.2-0.6-0.4c0-0.2-0.1-0.6,0-1.2c0-0.3,0-0.5,0-0.7c0-0.2,0-0.5,0-0.8c0-0.6,0-0.9,0.1-1.1c0.1-0.2,0.4-0.4,0.8-0.4
	c0.3,0,1.1,0,2.3,0c0.7,0,1.2,0,1.7,0c1.8,0,2.9,0,3.4,0c0.7,0,1.1,0,1.2-0.1c0.1,0,0.2-0.1,0.2-0.2c0.1-0.3-0.4-0.8-1.3-1.5
	c-0.4-0.3-0.7-0.5-0.8-0.5c-0.1,0-0.3,0.2-0.6,0.6l0,0c0,0-0.1,0.1-0.1,0.2c-0.2,0.4-0.5,0.6-0.7,0.7c-0.3,0.1-1,0.1-2.2,0.1
	c-0.3,0-0.5,0-0.6,0s-0.3,0-0.6,0c-1.1,0-1.8,0-2.1,0c-0.3,0-0.7-0.2-1.2-0.4c-0.1-0.1-0.3-0.1-0.4-0.1c0,0-0.1,0-0.2-0.1
	c-0.4-0.2-0.7-0.2-0.7-0.2c-0.1,0-0.1,0.2-0.1,0.5c0,0.1,0,0.1,0,0.1c0,0.6,0.1,1.3,0.1,2.2c0,0.9,0,1.4,0,1.5
	c-0.1,0.2-0.2,0.2-0.3,0.2c-0.1,0-0.4-0.3-0.8-0.7l0,0c-0.5-0.5-0.8-0.7-1-0.7c-0.1,0-0.3,0.2-0.6,0.6c-0.3,0.5-0.6,0.7-0.7,0.7
	c-0.2,0-0.3-0.7-0.3-2c0-1.4,0.1-2.1,0.4-2.3c0.3-0.2,0.2-0.4-0.1-0.5c-0.3-0.2-1-0.4-2-0.6c-0.3-0.1-0.4-0.1-0.5,0c0,0,0,0.2,0,0.5
	c0.2,1.3,0.2,2.5,0.2,3.5c0,1-0.1,1.5-0.3,1.7c-0.1,0.1-0.6,0.1-1.5,0.1c-0.8,0-1.4-0.1-1.8-0.2c-0.2,0-0.2,0.2,0.1,0.6l0,0
	c0.1,0.3,0.2,0.4,0.3,0.5c0,0,0.1,0,0.3,0h0c0.4-0.1,0.8-0.2,1.2-0.2c0.4,0,0.7,0,0.9,0c0.1,0.1,0.2,0.2,0.2,0.4
	c0,0.2,0,0.5-0.1,0.9c-0.7,3.3-1.7,6-3,8.1c-0.2,0.3-0.2,0.4-0.3,0.5c0,0.1,0,0.1,0.1,0.2c0.1,0.1,0.4-0.2,1-0.8
	c0.6-0.6,1.2-1.4,1.7-2.3c0.3-0.5,0.5-0.8,0.7-0.9c0.1-0.1,0.2,0,0.3,0.2c0.1,0.2,0.1,1.2,0.1,3c0,1.8-0.1,3.4-0.2,4.7
	c0,0.6-0.1,1-0.1,1.2c0,0.1,0,0.2,0.1,0.3c0.1,0.1,0.2,0.2,0.3,0.2c0.2,0.1,0.6,0,1-0.1c0.4-0.1,0.7-0.3,0.9-0.5
	c0.1-0.1,0.1-0.2,0.1-0.3c0-0.1,0-0.5,0-1.2c0-1-0.1-2.8-0.1-5.6c0-2.7,0-4.2,0-4.3c0.1-0.2,0.2-0.3,0.3-0.2
	c0.1,0.1,0.3,0.3,0.4,0.6c0.1,0.2,0.2,0.5,0.4,1c0.1,0.4,0.2,0.6,0.2,0.7c0,0.3,0.2,0.5,0.5,0.6c0.4,0.1,0.7,0,0.9-0.2
	c0.5-0.4,0.5-1.1,0.1-1.8c-0.4-0.8-1.1-1.4-2.1-2c-0.4-0.2-0.6-0.4-0.6-0.5c-0.1-0.1-0.1-0.4-0.1-0.9c0,0,0,0,0-0.1
	c0-0.5,0.1-0.8,0.2-0.9c0.1-0.1,0.6-0.1,1.5-0.1c0,0,0.1,0,0.1,0c0,0,0.1,0,0.1,0c0.9,0,1.4-0.1,1.5-0.1c0.1-0.1,0.2-0.1,0.2,0
	s0.1,0.1,0.1,0.3c0,0.1,0,0.9,0,2.2c0,1.3,0,2.2-0.1,2.4c0,0.3-0.1,0.7-0.1,1.2c-0.1,1.6-0.4,3.3-0.8,4.9c-0.4,1.6-1,3-1.7,4.2
	c-0.1,0.2-0.2,0.4-0.2,0.5c0,0.1,0,0.1,0.1,0.1c0.1,0.1,0.5-0.2,1.1-1c0.6-0.7,1.1-1.4,1.5-2.2c0.7-1.2,1.2-2.5,1.5-4
	c0.3-1.5,0.6-3.2,0.7-5.4v0c0-0.7,0.1-1,0.1-1.2c0-0.1,0.1-0.2,0.3-0.3c0.2-0.1,0.3,0,0.4,0.1c0.1,0.1,0.2,0.4,0.2,0.9
	c0.3,2.2,0.9,4.3,1.6,6.2c0.3,0.6,0.4,1,0.3,1.2c0,0.2-0.3,0.6-0.8,1.3c-1.2,1.5-2.6,2.7-4.2,3.7l0,0c-0.2,0.1-0.4,0.2-0.4,0.3
	c0,0,0,0.1,0,0.2c0.1,0.2,0.9,0,2.2-0.8c1.4-0.8,2.4-1.5,3.2-2.2c0.5-0.5,0.9-0.7,1-0.7c0.2,0,0.4,0.3,0.8,0.8
	C38.2,69.6,39,70.3,39.8,71z M37.1,64c-0.3,0.3-0.7,0-1.2-1c-0.5-1-1-2.3-1.4-3.8c0,0,0-0.1,0-0.1c-0.1-0.5-0.2-0.8-0.1-0.9
	c0-0.2,0.2-0.3,0.5-0.3c0.2,0,0.7,0,1.6,0c0.1,0,0.2,0,0.2,0c1.1,0,1.7,0,1.9,0c0.2,0,0.3,0.1,0.4,0.3c0.1,0.3-0.1,1.3-0.6,2.9
	C37.8,62.7,37.4,63.7,37.1,64z M58.1,63.7c0.1,0.2,0.2,0.3,0.4,0.3c0.2,0,0.5-0.2,0.9-0.6c0.9-0.7,1.6-1.6,2-2.8
	c0.4-1.1,0.4-2.1,0.1-2.9c-0.3-0.9-0.9-1.3-1.8-1.2c-0.6,0-1,0.3-1.3,0.7c-0.2,0.4-0.3,0.9-0.1,1.4c0.2,0.5,0.5,1,1.1,1.3
	c0.3,0.2,0.5,0.3,0.6,0.5c0.1,0.1,0.1,0.2,0.1,0.4c-0.1,0.4-0.3,0.8-0.6,1.3c-0.4,0.5-0.8,0.8-1.2,1.2c-0.2,0.1-0.3,0.2-0.3,0.3
	C57.9,63.4,58,63.5,58.1,63.7z M91.4,71.9c0,0.1,0.4,0.1,1.1-0.1c0.7-0.1,1.2-0.3,1.6-0.6c0.4-0.3,0.6-0.7,0.7-1.2
	c0.1-0.2,0.1-2.9,0.1-8.3c0-0.2,0-0.4,0-0.5c0-5.6,0-8.5,0.1-8.5c0.1-0.1,0.2-0.2,0.4-0.2c0.2,0,0.6-0.1,1.4-0.1
	c1.1,0,1.6-0.1,1.7-0.3c0-0.2-0.4-0.7-1.4-1.5c0,0,0,0-0.1-0.1c-0.5-0.4-0.8-0.6-1-0.6c-0.1,0-0.4,0.3-0.7,0.7c0,0-0.1,0.1-0.1,0.1
	c-0.4,0.5-0.7,0.8-0.9,0.9c-0.2,0-2.7,0-7.7,0c-5.2,0-8.3,0-9.3-0.1c-0.2,0-0.3,0-0.3,0c0,0,0.1,0.2,0.2,0.6c0,0,0,0.1,0,0.1
	c0.1,0.2,0.2,0.4,0.3,0.4c0.1,0,0.2,0,0.6,0c0.7-0.1,1.4-0.2,2.1-0.2c0.7,0,2.6,0,5.9,0c0.3,0,0.8,0,1.3,0c2.6,0,4.1,0,4.5,0
	c0.4,0,0.7,0.1,0.8,0.2l0,0c0.1,0.1,0.1,2.8,0.1,8.1c0,5.3,0,8-0.1,8.2c-0.1,0.2-0.3,0.3-0.6,0.4c-0.3,0-1.1,0-2.5-0.1
	c-0.8,0-1.3-0.1-1.4-0.1c-0.1,0-0.2,0.1-0.2,0.1c0,0.1,0.2,0.2,0.5,0.2c1.8,0.3,2.8,1,3,2.1l0,0C91.3,71.8,91.4,71.9,91.4,71.9z
	 M79.7,67.1c0.3,0.2,0.7,0.1,1.3-0.1c0.5-0.3,0.8-0.6,0.8-0.9c0,0,0,0,0-0.1c-0.1-0.6-0.1-1,0-1.2c0-0.2,0.2-0.4,0.6-0.4
	c0.2,0,0.8-0.1,1.7-0.1c0,0,0.1,0,0.1,0c0,0,0.1,0,0.2,0c0.8,0,1.3,0,1.5,0c0.3,0,0.5,0.1,0.6,0.3c0,0.1,0.1,0.3,0,0.6v0.1
	c0,0.5,0.1,0.8,0.4,0.9c0.3,0.1,0.8,0,1.4-0.4l0,0c0.3-0.1,0.4-0.2,0.4-0.4s0-0.4,0-1c0-0.6-0.1-1.8-0.1-3.6c0-1.8,0-2.8,0-2.9
	c0.1-0.3,0.2-0.5,0.5-0.6c0.3-0.1,0.4-0.2,0.3-0.4s-0.2-0.4-0.6-0.7c-0.7-0.6-1.1-1-1.3-1.1c-0.2-0.1-0.4,0.1-0.7,0.4
	c0,0-0.1,0.1-0.1,0.2c-0.2,0.3-0.5,0.5-0.6,0.6c-0.2,0-0.7,0.1-1.6,0.1c-0.2,0-0.4,0-0.5,0s-0.3,0-0.5,0c-0.8,0-1.4,0-1.6,0
	c-0.2,0-0.6-0.2-1.1-0.4c-0.1,0-0.2-0.1-0.2-0.1c0,0-0.1-0.1-0.2-0.1c-0.4-0.2-0.7-0.3-0.8-0.3c-0.1,0-0.1,0.2,0,0.5
	c0,0.1,0,0.1,0,0.1c0.1,1.1,0.2,2.7,0.2,4.6c0,1.9,0,3.6-0.1,5.2c0,0.4,0,0.7,0,0.8C79.5,66.9,79.6,67,79.7,67.1z M84.1,63.6
	c-1.3,0-2,0-2.1-0.1c-0.1-0.1-0.2-0.3-0.3-0.6c0-0.3,0-1.2,0-2.6c0-0.2,0-0.5,0-0.9c0-0.8,0-1.3,0-1.6c0.1-0.3,0.2-0.5,0.5-0.6
	c0.2,0,0.6-0.1,1.2,0c0.3,0,0.5,0,0.7,0s0.4,0,0.7,0c0.6,0,1,0,1.2,0c0.2,0.1,0.4,0.3,0.5,0.6c0,0.2,0,0.7,0,1.6c0,0.4,0,0.7,0,0.9
	c0,1.5,0,2.4,0,2.6c0,0.3-0.1,0.5-0.2,0.6C86,63.6,85.3,63.6,84.1,63.6z M110,71.8c0,0.1,0.2,0.1,0.5,0c0.3-0.1,0.9-0.3,1.8-0.6
	c2.8-1.1,5.2-2.5,7.1-4.4c0.4-0.4,0.7-0.6,0.8-0.7c0.2-0.1,0.4-0.1,0.6,0.1c0.1,0.1,0.4,0.5,0.9,1.1c0.8,1.1,1.5,2.2,2,3.2
	c0.3,0.5,0.4,0.8,0.5,0.9c0.1,0.1,0.3,0.2,0.6,0.3c0.6,0.1,0.9-0.1,1.2-0.6c0.2-0.5,0.2-1.1-0.1-1.8c-0.5-1.3-1.8-2.6-3.8-3.6
	c-0.5-0.3-0.8-0.5-0.9-0.6c0-0.2,0-0.5,0.3-0.9c0.7-1.3,1.3-2.8,1.6-4.3c0.3-1.5,0.6-3.6,0.7-6.3c0-0.6,0-1,0.1-1.2
	c0.1-0.2,0.2-0.3,0.3-0.4c0.3-0.2,0.3-0.3,0-0.4c-0.3-0.1-1-0.2-2.1-0.4c-0.4,0-0.7-0.1-0.8,0c-0.1,0-0.1,0.1-0.1,0.1
	c0.1,0.3,0.1,1.4,0.1,3.2c-0.1,4.1-0.9,7.5-2.5,10.1c-1.6,2.6-4.3,4.8-8,6.6c-0.5,0.2-0.7,0.4-0.8,0.4C110,71.6,110,71.7,110,71.8z
	 M105.8,70c0.1,0.1,0.2,0,0.3-0.1c0.2-0.2,0.4-0.4,0.6-0.5c0.2-0.1,0.8-0.4,1.6-0.9c1.8-0.9,3.5-1.8,5.1-2.7c1.6-1,2.5-1.5,2.5-1.6
	c0-0.1-0.1-0.1-0.3-0.1c-0.2,0-1,0.3-2.3,0.7c-1.4,0.4-2.2,0.7-2.5,0.8c-0.3,0.1-0.5,0.1-0.6,0c-0.1-0.1-0.2-0.5-0.2-1.1
	c0-0.7-0.1-2.7-0.1-5.9c0-0.3,0-0.8,0-1.4c0-1.9,0-3.2,0-3.7c0-0.7,0-1.2,0-1.4c0-0.1,0.1-0.3,0.2-0.3l0,0c0.2-0.2,0.2-0.3,0.1-0.4
	c-0.2-0.1-0.6-0.2-1.2-0.2c-0.9-0.1-1.3-0.1-1.3,0c0,0.1,0,2.6,0.1,7.3c0,0.3,0,0.6,0,1.1c0,3.3,0.1,5.3,0.1,5.9c0,0.6,0,0.9-0.1,1
	c-0.1,0.2-1,0.6-2.5,0.9c-0.4,0.1-0.5,0.1-0.5,0.2c0,0,0.2,0.4,0.5,1.2C105.6,69.5,105.8,69.9,105.8,70z M116.3,59.7
	c0.5,0.2,1,0,1.2-0.4c0.3-0.4,0.3-1,0-1.7c-0.5-1.4-1.9-2.6-4.2-3.5c-0.5-0.2-0.8-0.3-0.8-0.2c0,0.1,0.1,0.3,0.5,0.7
	c1.3,1.6,2.1,3,2.6,4.3C115.8,59.3,116,59.6,116.3,59.7z M136.9,71.9c0.1,0.1,0.1,0.1,0.2,0c0.1,0,0.4-0.1,0.8-0.3
	c2-0.8,3.7-1.8,4.9-3.1c1.2-1.3,2.2-3,2.9-5c0.7-2,1.1-4.6,1.3-7.8c0-0.2,0-0.6,0.1-1.1c0-0.2,0-0.4,0-0.5c0,0,0,0,0-0.1
	c0-0.4,0.1-0.6,0.1-0.7c0.1-0.1,0.2-0.2,0.5-0.2c0.2,0,0.6,0,1.3,0c0,0,0.1,0,0.1,0c0.1,0,0.3,0,0.5,0c0.6,0,1,0,1.2,0.1
	c0.2,0.1,0.3,0.4,0.4,0.9c0,0.3,0,1.1,0,2.3c0,0.4,0,0.7,0,1c-0.2,4.3-0.4,7.2-0.8,8.7c-0.3,1.5-0.8,2.4-1.5,2.5c-0.2,0-0.7,0-1.5,0
	c-0.8,0-1.4-0.1-1.6-0.1c-0.1,0-0.2,0-0.3,0.1s0,0.2,0.1,0.2c0,0,0.2,0,0.5,0.1c0.8,0.2,1.3,0.5,1.6,0.7c0.3,0.3,0.5,0.7,0.5,1.2
	c0,0.3,0.1,0.4,0.2,0.5c0.1,0,0.4,0,0.9-0.1c1-0.2,1.8-0.8,2.3-1.6c0.5-0.9,1-2.5,1.2-4.7c0.3-2,0.5-5.2,0.6-9.5
	c0-0.9,0.1-1.5,0.1-1.7c0.1-0.2,0.2-0.4,0.6-0.5c0.3-0.1,0.4-0.2,0.3-0.3c0-0.1-0.2-0.4-0.6-0.8c-0.8-0.8-1.2-1.1-1.4-1.1
	c-0.1,0-0.3,0.2-0.7,0.6c-0.4,0.4-0.7,0.7-0.8,0.7c-0.2,0.1-1.9,0.1-4.9,0c-3.1,0-4.8-0.1-5.2-0.2c-0.1,0-0.2,0-0.2,0
	c0,0,0.1,0.2,0.2,0.4c0.2,0.3,0.3,0.5,0.3,0.6c0.1,0.1,0.1,0.1,0.2,0.1c0,0,0.1,0,0.3,0c0.2,0,0.3-0.1,0.4-0.1
	c1.2-0.2,2-0.3,2.4-0.1c0.4,0.1,0.6,0.6,0.6,1.3c-0.1,4.7-0.8,8.3-2,11c-1.2,2.6-3,4.6-5.5,5.9c-0.3,0.1-0.4,0.2-0.5,0.3
	C136.8,71.7,136.8,71.8,136.9,71.9z M136.5,66.3c0.2,0,0.9,0.1,2.1,0c1.1,0,1.8-0.1,2.1-0.1c0.7-0.2,1.2-0.4,1.5-0.8
	c0.2-0.4,0.2-0.8-0.2-1.2c-0.2-0.2-0.3-0.4-0.3-0.5c0-0.2-0.1-0.6-0.1-1.4c0-0.9-0.1-1.4-0.1-1.4c-0.1-0.1-0.2,0.1-0.3,0.6
	c-0.2,1-0.4,1.6-0.5,1.9c-0.1,0.4-0.4,0.6-0.6,0.7c-0.2,0.1-0.6,0.1-1.3,0.1c-0.1,0-0.2,0-0.3,0c-0.4,0-0.6-0.1-0.7-0.1
	c-0.1-0.1-0.2-0.3-0.3-0.7c0-0.3,0-0.9,0-1.8c0-0.3,0-0.5,0-0.6c0-0.2,0-0.6,0-1c0-0.8,0-1.3,0-1.5c0.1-0.3,0.2-0.5,0.5-0.6
	c0.2-0.1,0.7-0.2,1.4-0.3c0.4-0.1,0.7-0.1,1-0.2c1.3-0.3,2.1-0.4,2.4-0.6c0.4-0.1,0.6-0.3,0.5-0.5c-0.1-0.1-0.5-0.4-1.1-0.9l0,0
	c-0.5-0.4-0.8-0.6-1-0.6c-0.2-0.1-0.4,0-0.5,0.1c-0.1,0.1-0.2,0.4-0.4,0.9l0,0c-0.2,0.5-0.3,0.8-0.5,0.9c-0.1,0.1-0.5,0.2-1,0.3
	c0,0-0.1,0-0.2,0c-0.4,0.1-0.7,0.1-0.8,0.1c-0.2-0.1-0.3-0.3-0.3-0.6c0-0.2,0-0.8,0-1.8c0-0.2,0-0.4,0-0.5c0-1.3,0-2,0-2.3
	c0-0.2,0.1-0.4,0.3-0.5c0.5-0.3-0.1-0.6-1.9-1.1c0,0,0,0-0.1,0c-0.3-0.1-0.4-0.1-0.5-0.1c0,0,0,0.2,0,0.5c0,0,0,0.1,0,0.1
	c0.1,0.8,0.1,2.1,0.1,3.8c0,1.7,0,2.6-0.1,2.8c-0.1,0.1-0.2,0.2-0.4,0.3c-0.2,0-0.6,0.1-1.2,0.3c0,0-0.1,0-0.2,0
	c-0.5,0.1-0.9,0.2-0.9,0.2c-0.1,0-0.1,0.2,0,0.3c0.1,0.1,0.2,0.2,0.2,0.2c0.1,0,0.4,0,0.8-0.1h0c0.1,0,0.2,0,0.4-0.1
	c0.5-0.1,0.8-0.1,0.9-0.1c0.2,0.1,0.3,0.3,0.3,0.7c0,0.3,0,1,0,2c0,0.4,0,0.7,0,0.9c0,1.5,0,2.5,0.1,2.9c0,0.6,0.2,1,0.3,1.2
	C135.8,66.1,136.1,66.2,136.5,66.3z M162.7,71.9c0,0,0.3,0,0.7,0c0.9-0.2,1.5-0.6,1.8-1.3c0.1-0.2,0.1-0.4,0.1-0.8
	c0-0.4,0-1.6,0-3.7c0-0.2,0-0.5,0-0.8c0-1.8,0-2.8,0-3.1c0-0.3,0.1-0.5,0.2-0.6l0.1,0c0,0,0.3-0.3,0.9-0.6c0.1-0.1,0.2-0.1,0.3-0.2
	c0.8-0.5,1.2-0.8,1.2-0.9c0-0.1-0.1-0.1-0.2-0.1c-0.1,0-0.4,0.1-0.9,0.2l0,0c-0.6,0.2-0.9,0.3-1.1,0.3c-0.2,0-0.3-0.1-0.4-0.4
	c0-0.2,0-0.7,0-1.5c0,0,0-0.1,0-0.1c0,0,0-0.1,0-0.1c0-0.7,0-1.2,0-1.4c0-0.3,0.1-0.5,0.3-0.5c0.1,0,0.4-0.1,0.8,0c0,0,0.1,0,0.1,0
	c0.7,0,1,0.1,1.1,0.3c0.1,0.2-0.1,0.5-0.6,1.1c-0.2,0.3-0.3,0.4-0.3,0.5c0.1,0.1,0.3,0,0.6-0.2c0.4-0.3,0.7-0.4,0.8-0.2
	c0.1,0.1,0.2,0.6,0.1,1.4c0,0.6,0,1.1,0,1.7c0,0.3,0,0.8,0,1.5c0,0.1,0,0.2,0,0.3c0,0.6,0,1,0.2,1.2c0.2,0.1,0.6,0.1,1.2-0.1
	c0.4-0.1,0.6-0.2,0.7-0.4c0.1-0.1,0.2-0.4,0.2-0.7c0-0.6,0.1-0.9,0.3-0.9c0.6,0,1.1-0.5,1.7-1.3c0.6-0.9,0.9-1.8,1.1-2.8
	c0.1-0.4,0.1-0.7,0.2-0.8c0.1-0.1,0.3-0.2,0.5-0.2c0.4,0,0.6,0.1,0.6,0.3c0.1,0.2,0.1,0.8,0.1,1.8c0,0,0,0.1,0,0.2
	c0,0.8,0,1.2,0.1,1.4c0.1,0.3,0.2,0.5,0.4,0.6c0.2,0,0.5,0.1,1.1,0.1c0.1,0,0.2,0,0.3,0c0,0,0.1,0,0.2,0c0.7,0,1.2,0.1,1.3,0.2
	c0.1,0.1,0.1,0.5,0.1,1.3c0,0.1,0,0.2,0,0.2c0,0.4,0,0.7,0,0.8c0,0.1,0.2,0.1,0.5,0.2c0.3,0,0.5,0.1,0.5,0.2c0,0.1,0,0.2-0.2,0.5
	c-0.3,0.5-0.5,0.8-0.8,0.9s-0.8,0.1-1.7,0.1c-0.8,0-1.3,0-1.4,0c-0.2,0-0.3-0.1-0.4-0.3c-0.1-0.2-0.1-0.5,0-0.9
	c0.1-0.4,0.2-0.7,0.4-0.8c0.2-0.2,0.2-0.3,0-0.4c-0.2-0.1-0.7-0.2-1.4-0.3c-0.1,0-0.2,0-0.3,0c-0.4-0.1-0.7-0.1-0.8,0
	c-0.1,0.1-0.1,0.3-0.1,0.7c0,0.1,0,0.2,0,0.3c0,0.7-0.1,1.1-0.1,1.3c0,0.2-0.2,0.3-0.4,0.4c-0.1,0-0.9,0.1-2.1,0
	c-1.3,0-2.3-0.1-2.9-0.1c-0.3,0-0.4,0-0.5,0c0,0,0,0.2,0.2,0.5c0.1,0.3,0.2,0.5,0.3,0.6c0,0,0.3,0,0.8-0.1c1.6-0.2,2.7-0.3,3.3-0.2
	c0.7,0.1,1,0.3,0.9,0.6c-0.2,0.9-0.8,1.8-1.8,2.7c-1,0.9-2.2,1.7-3.6,2.3c-0.4,0.2-0.6,0.3-0.7,0.3c-0.1,0.1-0.1,0.1,0,0.2
	c0,0.1,0.1,0.1,0.2,0.1c0.1,0,0.3,0,0.6-0.1c2-0.6,3.6-1.3,4.8-2.1c1.2-0.8,2-1.8,2.5-3c0.2-0.4,0.4-0.7,0.5-0.6
	c0.1,0,0.3,0.2,0.5,0.7c0.9,2.2,2.4,3.8,4.4,4.9c0.3,0.2,0.5,0.2,0.6,0.2s0.1-0.1,0.2-0.3c0.2-0.8,0.6-1.3,1.3-1.5
	c0.6-0.2,0.5-0.4-0.2-0.5c-1.4-0.4-2.7-0.9-4-1.7c-1.3-0.8-1.9-1.4-1.9-1.9c0-0.1,0-0.2,0.1-0.2c0.1,0,0.4-0.1,0.8-0.1
	c0.3,0,1,0,2.1,0c1.4,0,2.3,0,2.7-0.1c0.5-0.1,0.7-0.3,0.5-0.6c-0.1-0.2-0.6-0.6-1.4-1.3c-0.3-0.2-0.4-0.4-0.5-0.4
	c0-0.1,0.1-0.2,0.2-0.4c0.1-0.1,0.2-0.2,0.2-0.4c0-0.1,0-0.5,0-1c-0.1-1.8-0.1-3-0.1-3.8c0-0.7,0.2-1.2,0.4-1.3
	c0.3-0.2,0.4-0.3,0.4-0.4c0-0.1-0.2-0.3-0.5-0.6c-0.3-0.3-0.7-0.6-1.1-0.9c-0.2-0.2-0.4-0.2-0.5-0.2c-0.1,0-0.3,0.2-0.5,0.6
	c-0.2,0.3-0.4,0.5-0.5,0.5c-0.1,0-0.6,0.1-1.3,0.1c-0.7,0-1.1,0-1.3,0c-0.2,0-0.2-0.1-0.2-0.2c0-0.1,0.3-0.5,1-1.1
	c0.7-0.6,1.1-0.9,1.3-0.9c0.4,0,0.5-0.1,0.5-0.3c0-0.2-0.3-0.5-0.8-1c-0.5-0.5-0.9-0.8-1.1-0.8c-0.2,0-0.4,0.1-0.7,0.5
	c-0.4,0.4-1,0.7-1.8,0.8s-1.1-0.1-1.1-0.5c0-0.2,0.1-0.4,0.3-0.7c0.2-0.3,0.4-0.5,0.5-0.5c0.7-0.1,0.1-0.4-1.5-0.8
	c-0.5-0.1-0.9-0.2-1-0.2c-0.1,0-0.2,0.1-0.2,0.2c-0.4,1.6-0.8,3-1.5,4.3c-0.4,0.7-0.6,1.1-0.8,1.2c-0.2,0-0.5-0.2-1-0.7
	c-0.5-0.5-0.7-0.8-0.8-0.7c0,0-0.1,0.1-0.3,0.4c0,0-0.1,0.1-0.1,0.1c-0.4,0.7-0.7,0.9-0.8,0.8c-0.1-0.2-0.2-0.8-0.2-2
	c0-0.9,0-1.4,0-1.6c0-0.2,0.1-0.4,0.3-0.5c0.2-0.2,0.2-0.3-0.1-0.5c-0.3-0.2-0.9-0.4-1.9-0.6c0,0,0,0-0.1,0c-0.3-0.1-0.4-0.1-0.5,0
	c0,0,0,0.2,0,0.5c0,0,0,0.1,0,0.1c0.1,0.9,0.2,1.9,0.2,2.9c0,1,0,1.6-0.1,1.8c-0.1,0.2-0.3,0.3-0.6,0.3c-0.3,0-0.8,0-1.6-0.1
	c0,0-0.1,0-0.1,0l-0.6,0c0,0,0.1,0.2,0.2,0.6c0.2,0.3,0.3,0.5,0.4,0.5l0.1,0c0.1,0,0.2-0.1,0.3-0.1c0.6-0.2,1-0.2,1.3-0.2
	c0.3,0,0.4,0.3,0.5,0.6c0.1,0.3,0.1,1,0.1,1.9c0,0.1,0,0.3,0,0.6c0,0.7,0,1.2,0,1.4c-0.1,0.3-0.2,0.5-0.4,0.6
	c-0.2,0.1-0.6,0.2-1.2,0.4c-0.2,0.1-0.4,0.1-0.5,0.1c-0.1,0-0.2,0-0.3,0.1c-0.4,0.1-0.5,0.2-0.6,0.3s0,0.4,0.2,0.8
	c0.1,0.2,0.1,0.3,0.1,0.4c0.3,0.7,0.4,1.1,0.5,1.2c0.1,0.1,0.2,0,0.3-0.1c0.2-0.3,0.5-0.6,0.9-0.8c0.4-0.2,0.7-0.3,0.8-0.1
	c0.1,0.1,0.1,0.3,0.1,0.6c0,0.3,0,1.1,0,2.4c0,0.1,0,0.3,0,0.6c0,1,0,1.7,0,1.9c-0.1,0.4-0.2,0.6-0.5,0.7c-0.2,0-0.6,0-1.2,0
	c-0.1,0-0.2,0-0.3,0c-0.5,0-0.7,0-0.8,0c-0.1,0.1,0,0.2,0.4,0.3c0.5,0.1,0.9,0.3,1.2,0.7c0.3,0.4,0.5,0.8,0.5,1.2
	C162.6,71.8,162.6,71.9,162.7,71.9z M171,60.4c-0.2,0.2-0.3,0.2-0.4,0.2c-0.1-0.1-0.2-0.2-0.2-0.5c0-0.3,0-0.9,0-1.9
	c0-1,0-1.6,0.1-1.7c0.1-0.2,0.3-0.3,0.6-0.3c0.4,0,0.6,0,0.8,0.1c0.3,0.2,0.3,0.9,0.1,1.9C171.7,59.2,171.4,59.9,171,60.4z
	 M178.2,59c-0.2,0.1-0.5,0.2-0.9,0.1c-0.4,0-0.6-0.2-0.7-0.3c-0.1-0.2-0.2-0.6-0.1-1.3c0-0.7,0.1-1.1,0.2-1.2
	c0.1-0.1,0.3-0.1,0.7-0.1c0.4,0,0.7,0,0.8,0.1c0.2,0.2,0.3,0.6,0.3,1.4C178.6,58.4,178.4,58.9,178.2,59z M172.4,55.5
	c-0.9,0-1.4,0-1.6,0c-0.4-0.1-0.4-0.5,0.2-1.2l0,0c0.2-0.3,0.3-0.4,0.4-0.6c0.3-0.4,0.5-0.6,0.7-0.6c0.2-0.1,0.6-0.1,1.4-0.1
	c0.7,0,1.1,0,1.2,0.1c0.1,0,0.2,0.2,0.2,0.4c0,0.3-0.1,0.6-0.3,1.1c-0.2,0.4-0.4,0.7-0.6,0.8C173.8,55.4,173.3,55.4,172.4,55.5z
	 M197.3,71.8c0.1,0.1,0.2,0.1,0.2,0.1c0.1,0,0.3-0.1,0.6-0.4c1.5-1,2.7-2.2,3.6-3.4c0.9-1.3,1.6-2.8,2.1-4.8c0.3-1,0.4-1.4,0.5-1.4
	c0.1,0.1,0.3,0.7,0.5,2c0.6,3.4,1.5,5.9,2.7,7.5c0.2,0.2,0.3,0.3,0.3,0.3c0.1,0,0.1-0.1,0.2-0.3c0.1-0.4,0.3-0.7,0.6-1.1
	c0.3-0.3,0.6-0.5,0.9-0.6c0.2-0.1,0.3-0.2,0.3-0.2c0-0.1-0.1-0.2-0.3-0.4c-1.5-1.2-2.6-2.7-3.4-4.6c-0.8-1.9-1.3-4.5-1.5-7.6
	c-0.1-0.8,0-1.2,0-1.4c0.1-0.1,0.4-0.2,1.1-0.2c0.4,0,0.7,0,0.8,0.1c0.1,0,0.2,0.2,0.2,0.3c0.1,0.3-0.2,1.3-0.8,3.1
	c-0.2,0.4-0.2,0.7-0.2,0.9c0,0.1,0.1,0.2,0.2,0.1c0.1-0.1,0.5-0.4,1-1.1c0.6-0.7,1-1.3,1.4-1.8c0.3-0.5,0.5-0.8,0.7-0.9
	c0.1-0.1,0.3-0.2,0.6-0.3c0.3-0.1,0.4-0.2,0.3-0.3c0-0.2-0.3-0.5-0.8-0.9c-0.5-0.6-0.9-0.9-1.1-0.9c-0.1,0-0.4,0.1-0.8,0.5
	c0,0-0.1,0.1-0.1,0.1c-0.3,0.3-0.5,0.4-0.7,0.5c-0.2,0-0.7,0-1.5,0c-0.2,0-0.3,0-0.4,0c-0.9,0-1.4,0-1.6,0c-0.3,0-0.5-0.1-0.5-0.3
	c0-0.1,0.1-0.4,0.3-0.8c0.2-0.5,0.5-1.1,0.7-1.9c0.2-0.5,0.4-0.8,0.6-0.9c0.3-0.1,0.2-0.3-0.1-0.5c-0.3-0.2-1-0.4-2.1-0.7
	c0,0-0.1,0-0.1,0c-0.3-0.1-0.4-0.1-0.5-0.1c0,0-0.1,0.2-0.1,0.4c0,0,0,0.1,0,0.1c-0.2,2.5-0.8,5-1.9,7.4c-0.2,0.4-0.3,0.6-0.5,0.7
	c-0.2,0-0.4,0-0.7-0.3c-0.4-0.4-1-0.7-1.7-1c-0.4-0.2-0.7-0.4-0.8-0.4c-0.1,0-0.2-0.1-0.2-0.2c0-0.1-0.1-0.2-0.1-0.2
	c0,0,0-0.1,0.1-0.1c0.1-0.1,0.1-0.2-0.2-0.4c-0.3-0.2-0.8-0.4-1.6-0.7c-0.4-0.2-0.7-0.2-0.8-0.3c-0.1,0-0.1,0-0.1,0.1
	c-0.3,1.4-0.8,2.9-1.6,4.3c-0.7,1.4-1.6,2.7-2.7,3.9c-0.2,0.3-0.4,0.5-0.4,0.5c0,0.3,0.5,0.1,1.4-0.6c0.3-0.3,0.6-0.4,0.7-0.5
	c0.1-0.1,0.3,0,0.3,0c0.1,0.1,0.1,0.9,0.1,2.5c0,1.6,0,3.1-0.1,4.7c0,0.7,0,1.1,0.1,1.3c0.1,0.2,0.5,0.2,1,0
	c0.5-0.1,0.8-0.3,0.9-0.4c0.1-0.2,0.2-0.4,0.2-0.8c0-0.6,0-0.9,0.2-1c0.1-0.1,0.6-0.2,1.4-0.2c0.8,0,1.2,0,1.4,0.1
	c0.2,0.1,0.2,0.3,0.2,0.7c0,0.4,0.1,0.6,0.4,0.7c0.3,0.1,0.7-0.1,1.3-0.4c0,0,0.1,0,0.2-0.1c0.2-0.1,0.4-0.2,0.4-0.4
	c0-0.1,0-0.6,0-1.4c0-0.2,0-0.3,0-0.5c-0.1-2-0.1-3.2,0-3.7s0.2-0.8,0.5-1c0.2-0.1,0.2-0.2,0.2-0.3c0-0.1,0-0.2-0.2-0.4
	c-0.3-0.4-0.3-0.6,0-0.7c0.3-0.1,0.5-0.3,0.6-0.6c0.1-0.3,0.1-0.6,0-1c0-0.1-0.1-0.3-0.1-0.5c0-0.2,0-0.3,0-0.4
	c0.1-0.1,0.2-0.3,0.5-0.6c0.5-0.6,1-1.2,1.5-1.8c0.4-0.6,0.7-0.8,0.9-0.8c0.2,0.1,0.3,0.5,0.3,1.3c0,3.6-0.4,6.6-1.1,8.7
	c-0.7,2.2-2,4.1-3.8,5.7c-0.2,0.1-0.3,0.2-0.3,0.3C197.2,71.6,197.2,71.7,197.3,71.8z M194,67.8c-0.5,0-0.8,0-0.9-0.1
	c-0.2-0.1-0.3-0.2-0.3-0.5c0-0.2,0-0.7,0-1.4c0-0.3,0-0.5,0-0.6c0-0.1,0-0.3,0-0.6c0-0.8,0-1.2,0-1.4c0-0.3,0.1-0.5,0.3-0.5
	c0.1,0,0.4-0.1,0.9-0.1c0.2,0,0.3,0,0.4,0s0.2,0,0.4,0c0.5,0,0.8,0,0.9,0.1c0.2,0.1,0.3,0.2,0.3,0.5c0,0.2,0,0.7,0,1.4
	c0,0.3,0,0.5,0,0.6c0,1.2,0,1.9,0,2.1c0,0.2-0.1,0.4-0.3,0.4c-0.1,0.1-0.5,0.1-1.3,0.1C194.3,67.8,194.2,67.8,194,67.8z M195.8,61.8
	c-0.2,0.1-0.6,0.1-1.5,0.1c-0.8,0-1.3-0.1-1.6-0.1c-0.6-0.2-0.9-0.4-1-0.6c-0.1-0.2,0-0.4,0.4-0.8c0.7-0.8,1.3-1.7,1.9-2.6
	c0.4-0.6,0.7-0.9,0.9-0.9c0.2,0,0.5,0.3,0.9,0.9c0.7,0.9,1.1,1.6,1.3,2.2c0.2,0.6,0.2,0.8-0.2,0.8c-0.1,0-0.2,0-0.3,0.1
	c-0.1,0.1-0.2,0.2-0.5,0.5C196,61.6,195.9,61.7,195.8,61.8z M188.8,56.7c0.1,0,0.3,0,0.7-0.3c1.4-0.9,2.6-2.1,3.6-3.5
	c0.3-0.4,0.5-0.6,0.6-0.7c0.1-0.1,0.3-0.2,0.4-0.3c0.2-0.1,0.3-0.1,0.2-0.2c-0.1-0.1-0.3-0.3-0.7-0.5c-0.1-0.1-0.4-0.2-0.7-0.4
	c-0.2-0.1-0.4-0.2-0.5-0.3c-0.3-0.2-0.6-0.3-0.6-0.3c-0.1,0-0.1,0-0.2,0.2c-0.1,0.7-0.5,1.7-1,2.9c-0.6,1.2-1.1,2.1-1.7,2.8
	C188.7,56.5,188.6,56.6,188.8,56.7z M197.9,55.3c0.5,0.2,0.8,0.1,1.1-0.2c0.2-0.3,0.2-0.7,0.1-1.3c-0.1-0.6-0.4-1.1-0.9-1.5
	c-0.4-0.4-1-0.8-1.7-1.1c-0.6-0.3-1.1-0.5-1.5-0.6c-0.4,0-0.4,0.1-0.1,0.5c0.5,0.5,1,1.2,1.5,1.9c0.5,0.7,0.8,1.3,1,1.8
	C197.4,55,197.6,55.2,197.9,55.3z M219.6,71.8c0.2,0.2,0.5,0.2,1,0.1c0.5-0.1,0.8-0.3,1.1-0.5c0.1-0.1,0.1-0.1,0.1-0.2
	c0-0.1,0-0.4,0-0.9c-0.1-1.8-0.1-3.8-0.1-5.9c0-2.2,0-3.3,0.1-3.4c0.2-0.3,0.4-0.5,0.7-0.4c0.3,0.1,0.5,0.3,0.6,0.7
	c0.1,0.3,0.1,0.5,0.1,0.6c0,0.1,0.1,0.1,0.2,0.2c0.5,0.3,0.9,0.3,1.2,0c0.2-0.3,0.3-0.8,0.2-1.4c-0.1-0.7-0.5-1.2-1-1.7
	c-0.6-0.6-1-1-1.4-1.1c-0.4-0.1-0.4,0-0.2,0.5c0.3,0.7,0.4,1.2,0.3,1.4c-0.1,0.2-0.4,0.3-1.1,0.3c-0.7,0-1.2,0-1.3,0
	c-0.2,0-0.3-0.2-0.2-0.5c0.1-0.2,0.4-0.6,0.9-1.3c0.8-1,1.5-2,2.3-3c0.5-0.7,0.8-1,1-1.1c0.3,0,0.4-0.2,0.1-0.3
	c-0.2-0.2-0.7-0.5-1.5-0.8c0,0-0.1,0-0.2-0.1c-0.4-0.2-0.7-0.3-0.8-0.3c-0.1,0-0.2,0.2-0.3,0.5c0,0.1,0,0.1,0,0.2
	c-0.5,1.6-1.3,3.5-2.4,5.8c-0.3,0.5-0.5,0.8-0.6,0.9c-0.2,0.1-0.6,0.2-1.3,0.2c-0.4,0-0.7,0-0.8,0c-0.1,0-0.1,0-0.1,0.1
	c0,0,0.1,0.3,0.3,0.9c0.2,0.6,0.3,0.9,0.4,1.1c0,0.1,0.1,0.1,0.2,0.1c0.1,0,0.2-0.1,0.3-0.2c0.2-0.2,0.6-0.4,1.3-0.6
	c0.5-0.1,0.8-0.1,0.9,0c0.1,0.1,0.2,0.4,0.2,1c0,0.6-0.1,1-0.2,1c-0.1,0.1-0.6,0-1.3-0.1c-0.6-0.1-0.9-0.2-1-0.2
	c-0.1,0-0.1,0.4-0.1,1.2c0,1.6-0.2,3.1-0.6,4.5c0,0,0,0.1,0,0.1c-0.1,0.4-0.2,0.6-0.2,0.6c0,0.1,0,0.1,0.1,0.1
	c0.2,0.1,0.5-0.3,1-1.1c0.5-0.8,0.9-1.8,1.3-3c0.2-0.6,0.4-1,0.6-1.2c0.1-0.2,0.3-0.1,0.4,0.1c0,0.1,0.1,0.9,0,2.3
	c0,1.4,0,2.5-0.1,3.4c0,0,0,0.1,0,0.1c0,0.6-0.1,0.9-0.1,1C219.4,71.6,219.5,71.7,219.6,71.8z M226.5,71.9c0.2,0,0.4,0,0.8-0.1
	c0.3-0.1,0.6-0.2,0.7-0.4c0-0.1,0.1-0.2,0.1-0.4c0-0.2,0-0.7,0-1.7c0-1.2,0-2,0-2.3c0-0.3,0.2-0.5,0.4-0.5c0.3-0.1,0.5-0.1,0.6,0.1
	c0.1,0.2,0.2,0.5,0.2,1.1c0,0.5,0,1.4-0.1,2.7c0,0.6,0,1,0,1.2c0.1,0.1,0.3,0.2,0.6,0.1c0.4-0.1,0.7-0.2,0.8-0.4
	c0.1-0.2,0.2-0.5,0.1-1.2c-0.1-1.6-0.1-2.6,0-3c0.1-0.4,0.3-0.6,0.6-0.6c0.4,0,0.6,0.3,0.6,0.9s0.1,1.7-0.1,3.2c0,0.4,0,0.7,0,0.8
	c0,0.1,0.2,0.2,0.5,0.2c0.7,0,1.1-0.3,1.1-0.9c0-0.5,0.2-0.7,0.5-0.6c0.3,0.2,0.5,0.5,0.6,1.1c0,0.3,0.1,0.4,0.1,0.5
	c0,0,0.1,0.1,0.1,0.1c0.2,0,0.4-0.1,0.7-0.2c0.3-0.1,0.5-0.2,0.6-0.4c0.2-0.2,0.4-0.5,0.4-1c0-0.4,0.1-1.7,0.1-3.7
	c0-2.2,0-3.4,0-3.6c0-0.1,0.1-0.2,0.1-0.3c0.1-0.1,0.2-0.2,0.2-0.2c0.2,0,0.3-0.1,0.3-0.2c0-0.1,0-0.3-0.1-0.4
	c-0.5-0.5-0.9-0.8-1.2-1c-0.3-0.1-0.6,0-0.9,0.2c0,0-0.1,0.1-0.1,0.1c-0.2,0.2-0.4,0.4-0.7,0.4c-0.2,0-1,0-2.3,0c-0.3,0-0.5,0-0.7,0
	c-1.6,0-2.6,0-3,0c-0.6-0.1-1-0.2-1.1-0.4c-0.1-0.1-0.2-0.5-0.2-1c0,0,0-0.1,0-0.2c0-0.3,0.1-0.5,0.1-0.6c0.1-0.1,0.4-0.2,0.8-0.2
	c0.3,0,0.9,0,2,0c0.3,0,0.5,0,0.6,0c1.3,0,2.2,0,2.5,0c0.5,0,0.8,0.1,0.9,0.2c0.1,0.1,0.1,0.3,0.1,0.6c0,0.2,0.2,0.3,0.5,0.3
	c0.3,0,0.7-0.1,1.2-0.4c0.2-0.1,0.4-0.3,0.4-0.3c0-0.1,0.1-0.4,0-0.8c0,0,0-0.1,0-0.1c-0.1-1.3-0.1-2.1,0-2.5
	c0.1-0.4,0.2-0.7,0.5-0.8c0.3-0.1,0.4-0.2,0.3-0.4c0-0.1-0.3-0.4-0.9-0.9c-0.5-0.5-0.9-0.7-1.1-0.8c-0.1,0-0.4,0.1-0.7,0.6
	c0,0-0.1,0.1-0.1,0.2c-0.2,0.3-0.4,0.4-0.6,0.5c-0.2,0-0.9,0.1-2.1,0.1c-0.4,0-0.6,0-0.8,0c-0.2,0-0.4,0-0.7,0c-1.1,0-1.7,0-2,0
	c-0.4,0-0.6-0.1-0.7-0.2c-0.1-0.1-0.1-0.3-0.1-0.6c0-0.1,0-0.1,0-0.2c0-0.5,0.1-0.7,0.2-0.8c0.1-0.1,0.4-0.2,0.9-0.2
	c2-0.1,3.9-0.3,5.6-0.5c1-0.1,1.6-0.2,1.8-0.2c0.7,0.1,1,0.1,1,0s-0.3-0.5-1-1.2c-0.5-0.5-0.8-0.8-0.9-0.9c-0.1-0.1-0.2-0.1-0.3-0.1
	c-0.3,0.1-0.6,0.2-0.8,0.3c-1.4,0.6-3.2,1.1-5.1,1.6c-0.6,0.2-1,0.2-1.2,0.2c-0.2,0-0.6-0.2-1.2-0.4c0,0-0.1,0-0.2-0.1
	c-0.4-0.2-0.7-0.2-0.7-0.2c0,0-0.1,0.2,0,0.5c0,0.1,0,0.1,0,0.2c0,0.5,0.1,1.7,0.1,3.8c0,2,0,3.3,0,3.9c0,0,0,0.1,0,0.1
	c0,0.8-0.1,1.5-0.1,1.8c0,1-0.1,1.9-0.2,2.6c-0.1,0.7-0.2,1.1-0.4,1.2c-0.1,0-0.2-0.1-0.5-0.5c-0.2-0.4-0.5-0.8-0.9-1.1
	c-0.4-0.3-0.7-0.5-0.9-0.6c-0.2-0.1-0.3,0-0.2,0.3c0.4,1,0.6,1.9,0.6,3c0,0.3,0.1,0.5,0.3,0.6c0.2,0.1,0.5,0.1,0.8,0
	c0.4-0.1,0.5,0.1,0.4,0.7c-0.1,0.6-0.4,1.4-1,2.5C223,70.7,223,71,223,71c0.1,0.2,0.5-0.1,1-0.8c0.6-0.7,1.1-1.5,1.6-2.4
	c0.4-0.7,0.6-0.9,0.7-0.5c0.1,0.4,0.1,1.4,0,3c0,0.7-0.1,1.2,0,1.3C226.3,71.8,226.4,71.9,226.5,71.9z M234.8,69.6
	c-0.2,0.1-0.4,0.1-0.6,0.1s-0.4-0.2-0.5-0.3c-0.1-0.1-0.1-0.6-0.1-1.3c0-0.7,0.1-1.1,0.1-1.2c0.1-0.2,0.4-0.3,0.6-0.3
	s0.5,0.1,0.6,0.3c0.1,0.1,0.1,0.5,0.1,1.2c0,0.6,0,1,0,1.1C235,69.4,235,69.5,234.8,69.6z M231.9,65.8c-0.4,0.2-0.7,0.2-0.8,0
	c-0.2-0.3-0.2-0.8-0.2-1.6c0-0.8,0.1-1.4,0.2-1.6c0.1-0.2,0.4-0.3,0.8,0c0.2,0.1,0.4,0.7,0.4,1.6C232.3,65.1,232.2,65.7,231.9,65.8z
	 M228.7,65.9c-0.3,0-0.5-0.1-0.6-0.3c-0.1-0.2-0.1-0.7-0.1-1.5c0-0.7,0.1-1.2,0.1-1.3c0.1-0.2,0.2-0.3,0.5-0.3c0.3,0,0.5,0,0.6,0.2
	c0.1,0.2,0.2,0.6,0.2,1.4c0,0.7,0,1.1,0,1.3c0,0.2-0.1,0.3-0.2,0.4C229,65.8,228.9,65.9,228.7,65.9z M234.4,65.9
	c-0.3,0-0.5-0.1-0.6-0.3c-0.1-0.2-0.1-0.7-0.1-1.5c0-0.7,0.1-1.2,0.1-1.4c0.1-0.2,0.3-0.3,0.6-0.3c0.3,0,0.5,0.1,0.6,0.3
	c0.1,0.2,0.2,0.6,0.2,1.3c0,0.7,0,1.1,0,1.3s-0.1,0.3-0.2,0.4C234.8,65.8,234.6,65.9,234.4,65.9z M230.8,58.7c-2,0-3.1,0-3.2-0.1
	c-0.1-0.1-0.2-0.2-0.2-0.4c0-0.2,0-0.6,0-1.2c0-0.1,0-0.2,0-0.4c0-0.5,0-0.8,0.1-0.9c0.1-0.2,0.3-0.3,0.7-0.3c0.3,0,0.9,0,1.8,0
	c0.4,0,0.7,0,0.9,0c0.2,0,0.5,0,0.9,0c1,0,1.6,0,1.8,0c0.4,0,0.6,0.1,0.7,0.3c0.1,0.1,0.1,0.4,0.1,0.9c0,0.2,0,0.3,0,0.4
	c0,0.6,0,1,0,1.2c0,0.2-0.1,0.3-0.2,0.4C233.9,58.7,232.8,58.7,230.8,58.7z M218,57.2c0.4,0.2,0.7,0.2,0.9,0
	c0.3-0.2,0.4-0.5,0.4-0.9c0-0.4-0.1-0.8-0.4-1.2c-0.1-0.2-0.2-0.4-0.2-0.6c0-0.2,0.2-0.4,0.4-0.6c0.4-0.5,0.9-1.1,1.4-1.8
	c0.5-0.7,0.9-1.1,1-1.2c0.3-0.1,0.3-0.2,0.2-0.4c-0.1-0.1-0.5-0.3-1.1-0.6c0,0-0.1,0-0.1,0c-0.8-0.3-1.2-0.5-1.3-0.5
	c-0.1,0-0.2,0.1-0.2,0.4v0c-0.1,0.7-0.2,1.5-0.4,2.4c-0.2,0.8-0.4,1.3-0.5,1.4c-0.1,0.1-0.4,0.1-0.9-0.1c-0.5-0.2-0.7-0.2-0.8-0.2
	c-0.1,0,0,0.2,0.2,0.5c0.6,0.8,1,1.5,1.2,2.3c0.1,0.3,0.1,0.4,0.2,0.5S217.9,57.1,218,57.2z M248,71.8c0.1,0.2,0.4,0.2,0.9,0.1
	c0.5-0.1,0.8-0.3,1-0.5c0-0.1,0.1-0.2,0.1-0.3c0-0.1,0-0.6,0-1.5c0-0.1,0-0.3,0-0.6c0-0.8,0-1.3,0-1.5c0-0.3,0.2-0.5,0.5-0.6
	c0.2,0,0.6-0.1,1.4-0.1c0.2,0,0.4,0,0.5,0c0.9,0,1.5,0,1.8,0c0.3,0,0.5-0.2,0.4-0.3c0-0.1-0.2-0.4-0.6-0.8c-0.6-0.6-1.1-1-1.3-1
	c-0.2,0-0.4,0.1-0.7,0.5c-0.4,0.5-0.7,0.8-0.9,0.9c-0.2,0.1-0.5,0.1-0.7-0.1c-0.2-0.1-0.3-0.6-0.3-1.3s0.1-1.2,0.3-1.3
	c0.2-0.1,0.5-0.2,0.8,0c0.3,0.1,0.4,0.3,0.4,0.5c0,0.4,0.4,0.4,1.1,0.1c0,0,0,0,0.1,0c0.4-0.1,0.6-0.3,0.6-0.4
	c0.1-0.1,0.1-0.6,0-1.3c0-0.1,0-0.1,0-0.1c-0.1-1.7-0.1-2.7,0-3.2c0-0.5,0.2-0.7,0.4-0.5c0.1,0.1,0.2,0.1,0.3,0
	c0.3-0.2,0.6-0.2,0.8-0.1c0.2,0.1,0.4,0.3,0.4,0.5c0,0.4,0.1,1.8,0,4.4c0,2.6-0.1,4-0.1,4c-0.1,0.1-0.3,0.2-0.7,0.3
	c-0.4,0.1-0.8,0.1-1.3,0.1c-0.2,0-0.3,0.1-0.3,0.2c0,0.1,0.2,0.5,0.5,1.1c0,0,0,0.1,0.1,0.2c0.2,0.5,0.4,0.8,0.5,0.9
	c0.1,0.1,0.2,0,0.3-0.1c0.2-0.1,0.4-0.3,0.7-0.4c0.3-0.1,1-0.3,2.3-0.6c0.2,0,0.4-0.1,0.5-0.1c0.3-0.1,0.7-0.2,1.2-0.3
	c1.2-0.3,2-0.5,2.2-0.5c0.2,0,0.4,0,0.5,0.1l0,0c0.2,0.2,0.2,1.2,0,3.1c0,0.4,0.2,0.6,0.6,0.6c0.4,0,0.9-0.1,1.4-0.4h0
	c0.1-0.1,0.1-0.2,0.1-0.4c0-0.2,0-0.8,0-2c0,0,0-0.1,0-0.1c0,0,0-0.1,0-0.2c0-0.8,0-1.2,0.1-1.4c0.1-0.2,0.4-0.3,0.9-0.5
	c0,0,0.1,0,0.1,0c0.3-0.1,0.5-0.1,0.6-0.2c0.1,0,0.1-0.1,0.1-0.1c0-0.1,0-0.2-0.1-0.2c-0.1,0-0.2,0-0.5,0c-0.4,0.1-0.7,0.1-0.8,0
	c-0.1,0-0.2-0.1-0.3-0.3c-0.1-0.1-0.1-1.4-0.1-3.9c0-2.4,0.1-3.7,0.1-3.8c0.1-0.1,0.1-0.2,0.2-0.2c0.1,0,0.3-0.1,0.7-0.1
	c0.3,0,0.5,0,0.6,0c0.1,0,0.2-0.1,0.2-0.2c0.1-0.2-0.3-0.7-1.2-1.5c-0.3-0.3-0.5-0.5-0.6-0.6s0-0.2,0.2-0.4c0.1-0.1,0.1-0.2,0.1-0.3
	c0-0.1,0-0.5,0-1.2c0-0.9,0-1.5,0-1.7c0-0.3,0.1-0.4,0.3-0.6c0.3-0.1,0.4-0.3,0.4-0.3c0-0.1-0.3-0.4-0.8-0.9c-0.5-0.5-0.9-0.7-1-0.8
	c-0.1,0-0.4,0.2-0.7,0.6c0,0,0,0.1-0.1,0.1c-0.2,0.3-0.4,0.5-0.6,0.5c-0.2,0-0.8,0.1-1.7,0.1c-0.2,0-0.3,0-0.4,0c-0.1,0-0.3,0-0.5,0
	c-0.9,0-1.4,0-1.6,0c-0.2,0-0.6-0.2-1.1-0.4c-0.1-0.1-0.2-0.1-0.3-0.1c-0.1,0-0.1-0.1-0.2-0.1c-0.4-0.2-0.7-0.3-0.8-0.3
	c-0.1,0-0.1,0.1,0,0.4c0,0,0,0.1,0,0.1c0,0.3,0.1,1.1,0.1,2.3c0,1.2,0,2,0,2.4c0,0.5,0,0.8,0.1,1c0.1,0.1,0.3,0.1,0.7,0.1
	c0.9-0.1,1.3-0.3,1.3-0.7c0-0.2,0.1-0.4,0.3-0.4c0.2,0,0.9-0.1,2.1-0.1c1.2,0,1.8,0,2.1,0.1c0.2,0,0.3,0.2,0.3,0.4
	c0,0.1,0,0.2,0.1,0.3c0.1,0,0.2,0,0.4,0c0.4,0,0.6,0,0.6,0.2c0,0.1-0.1,0.4-0.4,0.8c0,0,0,0-0.1,0.1c-0.1,0.2-0.4,0.4-0.6,0.4
	c-0.3,0-1.1,0-2.6,0c-0.4,0-0.6,0-0.8,0c-2.2,0-3.5,0-4.1-0.1c-0.5,0-0.9-0.1-0.9-0.3c-0.1-0.2,0-0.4,0.4-0.7c0.2-0.2,0-0.5-0.8-1.1
	c-0.4-0.3-0.7-0.4-0.8-0.4c-0.1,0-0.3,0.1-0.5,0.4c-0.5,0.5-0.9,0.7-1.2,0.6c-0.4-0.1-0.5-0.6-0.5-1.3c0-0.4,0.1-0.6,0.1-0.7
	c0.1-0.1,0.2-0.2,0.6-0.3c0.2,0,0.7,0,1.5,0c0.1,0,0.1,0,0.1,0c1.2,0,1.9-0.1,2.1-0.2c0.1-0.1-0.1-0.5-0.8-1.1
	c-0.6-0.5-1-0.8-1.2-0.9c-0.2,0-0.4,0.1-0.6,0.5c-0.3,0.5-0.6,0.8-0.8,0.9c-0.2,0.1-0.4,0.1-0.6-0.1c-0.2-0.1-0.2-0.5-0.2-1
	c0-0.5,0.2-0.9,0.4-1c0.2-0.1,0.2-0.3,0-0.4c-0.2-0.1-0.7-0.3-1.6-0.6c-0.4-0.1-0.7-0.2-0.8-0.2c-0.1,0-0.1,0.1-0.1,0.3
	c0,0.3,0.1,0.7,0.1,1.4c0,0.6,0,1,0,1.1c-0.1,0.5-1.3,0.6-3.5,0.4c-0.3,0-0.5,0-0.6,0c0,0,0,0.2,0.1,0.5l0,0.1c0,0,0,0.1,0.1,0.1
	c0.1,0.2,0.2,0.3,0.2,0.4c0.1,0,0.3,0,0.6-0.1c0.1,0,0.2,0,0.3,0c1.1-0.2,1.8-0.2,2.1-0.1c0.4,0.1,0.6,0.5,0.6,1.1
	c0,0.7-0.2,1-0.5,1.1c-0.3,0.1-1-0.1-2.1-0.6c0,0,0,0-0.1,0c-0.4-0.2-0.7-0.3-0.8-0.2c-0.1,0-0.1,0.2,0,0.5c0,0,0,0.1,0,0.1
	c0.3,2.5,0.3,5.2,0.1,8.3c0,0.2,0,0.4,0,0.4c0,0,0.1,0.1,0.1,0.2c0.2,0.2,0.5,0.2,1,0c0.5-0.2,0.8-0.4,0.8-0.6
	c0-0.3,0.2-0.4,0.6-0.5c0.4,0,0.6,0.1,0.8,0.3c0,0.1,0.1,0.5,0.1,1.1s0,1-0.1,1.1c-0.2,0.4-1.4,0.4-3.8,0.2c-0.2,0-0.3,0-0.3,0
	c0,0,0.1,0.2,0.2,0.6c0.1,0.3,0.2,0.4,0.3,0.5c0.1,0,0.2,0,0.5,0c0.5-0.1,1.1-0.2,1.7-0.2c0.6,0,1,0,1.2,0.1
	c0.2,0.1,0.3,0.5,0.3,1.1c0,0.7,0,1.7-0.1,3.2c0,0.2,0,0.3,0,0.4C247.9,71.7,248,71.8,248,71.8z M259.3,67.2
	c-0.9,0.1-1.4,0.2-1.5,0.1c-0.2,0-0.3-0.1-0.4-0.3c0-0.2-0.1-0.5-0.1-1.1c0-0.1,0-0.1,0-0.2c0-0.4,0-0.7,0-0.8
	c0.1-0.2,0.2-0.3,0.5-0.3c0.2,0,0.6,0,1.2,0c0.2,0,0.3,0,0.4,0c0,0,0.1,0,0.1,0c0.7,0,1.2,0,1.4,0c0.3,0,0.5,0.1,0.5,0.3
	c0,0.1,0.1,0.4,0.1,0.7c0,0,0,0.1,0,0.1c0,0.4,0,0.7-0.1,0.8c-0.1,0.2-0.3,0.3-0.6,0.4c-0.2,0-0.7,0.1-1.5,0.2
	C259.5,67.1,259.4,67.2,259.3,67.2z M259.2,63.9c-0.7,0-1.2,0-1.3,0c-0.3,0-0.4-0.1-0.5-0.3c0-0.1-0.1-0.4-0.1-0.8c0,0,0-0.1,0-0.1
	c0,0,0-0.1,0-0.1c0-0.4,0-0.7,0.1-0.8c0.1-0.2,0.2-0.3,0.5-0.3c0.2,0,0.6,0,1.3,0c0.1,0,0.2,0,0.2,0c0,0,0.1,0,0.2,0
	c0.7,0,1.2,0,1.3,0c0.3,0,0.4,0.1,0.5,0.3c0,0.1,0.1,0.4,0.1,0.8c0,0.1,0,0.1,0,0.1c0,0.4,0,0.7-0.1,0.9c0,0.1-0.1,0.2-0.3,0.3
	c-0.1,0-0.7,0.1-1.8,0.1C259.4,63.9,259.3,63.9,259.2,63.9z M251.1,62.7c-0.8,0.4-1.2,0-1.2-1.3c0-0.6,0-0.9,0.1-1.1
	c0.1-0.2,0.3-0.3,0.6-0.3c0.3,0,0.5,0.2,0.7,0.6c0.2,0.4,0.2,0.8,0.2,1.2C251.5,62.3,251.4,62.6,251.1,62.7z M247.4,62.8
	c-0.3,0-0.5-0.1-0.6-0.2c-0.1-0.2-0.1-0.6-0.1-1.1c0-1.2,0.4-1.6,1.1-1.3c0.3,0.1,0.4,0.5,0.4,1.3c0,0.7-0.1,1.1-0.4,1.3
	C247.6,62.7,247.5,62.8,247.4,62.8z M259.3,60.8c-0.7,0-1.2,0-1.4,0c-0.3,0-0.4-0.1-0.5-0.3c0-0.1-0.1-0.4-0.1-0.8c0,0,0-0.1,0-0.1
	c0,0,0-0.1,0-0.1c0-0.4,0-0.7,0.1-0.8c0.1-0.2,0.2-0.3,0.5-0.3c0.2,0,0.6,0,1.4,0c0.1,0,0.2,0,0.2,0c0,0,0.1,0,0.2,0
	c0.7,0,1.2,0,1.4,0c0.3,0,0.4,0.1,0.5,0.3c0,0.1,0.1,0.4,0.1,0.8c0,0.1,0,0.1,0,0.2c0,0.4,0,0.7-0.1,0.9c0,0.1-0.1,0.2-0.3,0.3
	c-0.1,0-0.7,0.1-1.8,0.1C259.4,60.8,259.4,60.8,259.3,60.8z M247.8,59.3c-0.2,0.1-0.4,0.1-0.6,0.1c-0.2,0-0.4-0.2-0.5-0.3
	c-0.1-0.1-0.1-0.5-0.1-1.1c0-0.6,0.1-1,0.1-1.1c0.1-0.2,0.3-0.3,0.6-0.3c0.3,0,0.5,0.1,0.6,0.4c0.1,0.2,0.1,0.6,0.1,1.3
	C248,58.8,248,59.2,247.8,59.3z M251.2,59.2c-0.2,0.1-0.4,0.2-0.7,0.1c-0.3,0-0.4-0.2-0.5-0.3c-0.1-0.1-0.1-0.5-0.1-1.1
	c0-0.6,0.1-1,0.1-1.1c0.1-0.2,0.3-0.3,0.6-0.3s0.5,0.1,0.7,0.3c0.1,0.2,0.2,0.6,0.1,1.2C251.4,58.8,251.3,59.1,251.2,59.2z
	 M261.5,54.5c-0.1,0.1-0.8,0.1-2.1,0.1c-1.3,0-2-0.1-2.1-0.1c-0.2-0.1-0.3-0.6-0.3-1.3c0-0.7,0.1-1.2,0.3-1.3
	c0.1-0.1,0.8-0.1,2.1-0.1c1.3,0,2,0,2.1,0.1c0.2,0.1,0.3,0.6,0.3,1.3S261.8,54.4,261.5,54.5z M287.6,71.9c0.1,0.1,0.3,0.1,0.8,0
	s0.8-0.2,1.2-0.4c0.6-0.3,1.1-0.8,1.5-1.6c0.4-0.8,0.6-2.1,0.8-3.8c0.2-1.6,0.3-3.9,0.4-7c0-0.2,0-0.4,0-0.8c0-1.6,0.1-2.5,0.1-2.7
	c0-0.3,0.2-0.5,0.4-0.6c0,0,0.1,0,0.1,0c0.2-0.1,0.3-0.2,0.4-0.2c0-0.1,0-0.1,0-0.2c-0.1-0.2-0.4-0.5-0.8-0.9
	c-0.5-0.4-0.8-0.7-1-0.8c-0.1-0.1-0.2-0.1-0.3,0c-0.1,0-0.2,0.2-0.5,0.5c0,0-0.1,0.1-0.1,0.1c-0.3,0.3-0.5,0.5-0.7,0.6
	c-0.2,0-0.7,0.1-1.4,0.1c-0.2,0-0.3,0-0.4,0c-0.1,0-0.2,0-0.3,0c-0.7,0-1.2,0-1.3,0c-0.3,0-0.4-0.2-0.4-0.3c0-0.1,0.1-0.4,0.3-0.9
	c0-0.1,0.1-0.1,0.1-0.2c0.3-0.7,0.5-1.1,0.6-1.3c0.1-0.2,0.2-0.3,0.4-0.4c0.3-0.1,0.2-0.3-0.1-0.5c-0.4-0.2-1.1-0.5-2.2-0.8l0,0
	c-0.2-0.1-0.4-0.1-0.4,0c0,0-0.1,0.2-0.1,0.6c0,0,0,0.1,0,0.1c-0.3,2.3-1,4.8-2.2,7.6c-0.4,1-0.7,1.4-0.9,1.4
	c-0.1-0.1-0.2-0.7-0.2-2c0-1,0-1.6,0.1-1.8c0-0.2,0.2-0.4,0.5-0.6c0.2-0.1,0.3-0.3,0.2-0.5c-0.1-0.2-0.5-0.5-1.1-1
	c-0.4-0.4-0.7-0.5-0.9-0.5c-0.1,0-0.3,0.2-0.6,0.6c-0.3,0.4-0.8,0.6-1.5,0.7c-0.7,0.1-1-0.1-1-0.4c0-0.2,0.3-0.7,0.8-1.6
	c0.6-0.8,0.9-1.3,1.1-1.4c0.4-0.1,0.4-0.3,0.1-0.4c-0.3-0.2-0.9-0.4-2-0.6c0,0-0.1,0-0.2,0c-0.4-0.1-0.6-0.1-0.7-0.1
	c-0.1,0-0.1,0.2-0.1,0.6c0,0.1,0,0.2,0,0.2c0,0.5,0,1-0.1,1.5c-0.1,0.8-0.2,1.4-0.2,1.6c-0.1,0.3-0.3,0.4-0.5,0.4
	c-0.2,0-0.6-0.2-1.2-0.5c-0.6-0.3-0.9-0.4-1-0.4c0,0-0.1,0-0.1,0.1c0,0.1,0,0.3,0.1,0.8c0.1,1.1,0.2,3.5,0.2,7.1
	c0,3.8-0.1,6.6-0.2,8.4c-0.1,0.8,0,1.3,0.1,1.5c0.1,0.2,0.5,0.2,1.1,0c0.4-0.1,0.7-0.3,0.8-0.5c0.1-0.2,0.2-0.5,0.2-1v0
	c0-0.4,0-0.6,0-0.7c0.1-0.1,0.2-0.2,0.5-0.3c0.2,0,0.6,0,1.3,0c0,0,0.1,0,0.1,0s0.1,0,0.1,0c0.7,0,1.1,0,1.3,0
	c0.3,0,0.4,0.1,0.5,0.2c0,0.1,0.1,0.3,0.1,0.6v0.1c0,0.5,0.1,0.8,0.4,0.8c0.3,0.1,0.7,0,1.4-0.4c0,0,0.1,0,0.2-0.1
	c0.2-0.1,0.3-0.2,0.3-0.4c0-0.2,0-0.8,0-1.8c0-0.5,0-0.8,0-1.1c0-1.1,0-2.4,0-4.1c0-1.7,0-2.6,0.1-2.7c0-0.1,0.1-0.3,0.2-0.3
	c0.1-0.1,0.1-0.1,0,0c0,0.1,0,0.1,0.1,0.2c0.1,0,0.1,0,0.2,0c0.2-0.1,0.6-0.6,1.3-1.5c0.7-0.9,1.3-1.8,1.8-2.6c0,0,0,0,0-0.1
	c0.2-0.4,0.5-0.6,0.7-0.7c0.2-0.1,0.9-0.1,2-0.1c0.1,0,0.1,0,0.2,0c0.2,0,0.4,0,0.6,0c0.7,0,1.1,0,1.2,0c0.2,0,0.4,0.2,0.5,0.4
	c0,0.1,0.1,0.5,0,1c0,0.2,0,0.4,0,0.5c0,2.3-0.1,4.5-0.2,6.6c-0.1,2.1-0.3,3.5-0.5,4.4c-0.1,0.5-0.3,0.9-0.5,1.1
	c-0.2,0.2-0.6,0.4-1,0.4c-0.4,0-1.1,0-2.1-0.1c-0.5,0-0.8-0.1-0.9,0c-0.1,0-0.1,0.1-0.1,0.2c0,0.1,0.2,0.2,0.6,0.3
	c1.5,0.4,2.2,1,2.2,2.1C287.5,71.7,287.5,71.8,287.6,71.9z M276.4,67.9c-0.6,0-0.9,0-1.1-0.1c-0.2-0.1-0.3-0.3-0.4-0.6
	c0-0.2-0.1-0.8,0-1.7c0-0.4,0-0.7,0-0.9c0-0.2,0-0.5,0-0.8c0-0.8,0-1.4,0-1.6c0.1-0.3,0.2-0.5,0.4-0.6c0.1-0.1,0.5-0.1,1.1-0.1
	c0.2,0,0.4,0,0.6,0s0.3,0,0.6,0c0.6,0,0.9,0,1.1,0.1c0.2,0.1,0.3,0.3,0.4,0.6c0,0.2,0,0.8,0,1.6c0,0.4,0,0.6,0,0.8
	c0,1.5,0,2.3,0,2.6c0,0.3-0.1,0.4-0.2,0.5c-0.1,0.1-0.2,0.1-0.4,0.1c-0.1,0-0.6,0-1.4,0C276.8,67.9,276.6,67.9,276.4,67.9z
	 M286,64.5c0.4,0.1,0.7,0.1,1-0.1c0.3-0.2,0.5-0.6,0.5-1c0-0.7-0.2-1.4-0.8-2c-0.5-0.7-1.3-1.3-2.4-1.8c-0.6-0.3-0.9-0.4-1-0.4
	c-0.1,0,0,0.3,0.3,0.7c1,1.5,1.6,2.9,1.8,4.1C285.5,64.2,285.7,64.3,286,64.5z M276.4,60.8c-0.6,0-0.9,0-1.1-0.1
	c-0.2-0.1-0.3-0.3-0.4-0.6c0-0.2-0.1-0.7,0-1.6c0-0.4,0-0.7,0-0.9c0-0.2,0-0.4,0-0.8c0-0.8,0-1.3,0-1.5c0.1-0.3,0.2-0.5,0.4-0.6
	c0.1,0,0.5-0.1,1-0.1c0.2,0,0.4,0,0.6,0c0.1,0,0.3,0,0.6,0c0.6,0,0.9,0,1.1,0.1c0.2,0.1,0.3,0.2,0.4,0.6c0,0.2,0.1,0.7,0.1,1.5
	c0,0.3,0,0.6,0,0.7c0,1.4,0,2.2,0,2.5c0,0.3-0.1,0.4-0.2,0.5c-0.1,0.1-0.2,0.1-0.4,0.1c-0.1,0-0.6,0-1.4,0
	C276.8,60.8,276.6,60.8,276.4,60.8z M301.2,71.9c0.4,0.1,0.8,0,1.3-0.2c0.4-0.2,0.7-0.5,0.7-0.8c0-0.4,0.1-0.6,0.3-0.8
	c0.1-0.1,2.4-0.1,6.8-0.1c4.4,0,6.7,0,6.8,0.1c0.2,0.1,0.3,0.4,0.3,0.9c0,0.3,0,0.6,0.1,0.6c0.1,0.1,0.2,0.1,0.4,0.1
	c0.2,0,0.6-0.1,1-0.2c0.4-0.1,0.7-0.3,0.9-0.5c0.1-0.1,0.1-0.1,0.1-0.2c0,0,0-0.2,0-0.5c-0.1-1.5-0.1-4.3-0.1-8.4c0-0.2,0-0.5,0-0.9
	c0-1.7,0-2.8,0-3.3c0-0.6,0-1.1,0.1-1.2c0-0.1,0.1-0.2,0.2-0.3c0,0,0.1,0,0.1,0c0.3-0.2,0.4-0.3,0.4-0.3c0-0.1,0-0.2-0.1-0.4
	c-0.4-0.4-0.9-0.8-1.5-1.2c-0.2-0.2-0.4-0.3-0.5-0.2c-0.1,0-0.2,0.1-0.4,0.3c0,0-0.1,0.1-0.1,0.1c-0.3,0.4-0.6,0.6-0.7,0.6
	c-0.1,0.1-0.5,0.1-1.2,0.1c-0.1,0-0.2,0-0.2,0c-0.1,0-0.2,0-0.3,0c-0.7,0-1.1-0.1-1.2-0.2c-0.1-0.1-0.1-0.6-0.1-1.4
	c0-0.2,0-0.4,0-0.5c0-0.9,0-1.5,0.1-1.6c0-0.2,0.1-0.3,0.3-0.4c0.2-0.2,0.2-0.3-0.1-0.5c-0.3-0.2-0.9-0.4-1.9-0.6c0,0-0.1,0-0.1,0
	c-0.3-0.1-0.5-0.1-0.6-0.1s-0.1,0.2,0,0.4c0,0,0,0.1,0,0.1c0.1,0.7,0.2,1.8,0.2,3.1c0,0.1,0,0.2,0,0.3c0,0.8,0,1.2-0.1,1.3
	c-0.1,0.1-0.5,0.2-1.2,0.2c-0.1,0-0.2,0-0.2,0c-0.1,0-0.2,0-0.3,0c-0.7,0-1-0.1-1.2-0.2c-0.1-0.1-0.1-0.6-0.1-1.4c0-0.2,0-0.3,0-0.4
	c0-0.9,0-1.4,0-1.6c0-0.2,0.1-0.4,0.3-0.5c0.2-0.2,0.2-0.4,0-0.5c-0.2-0.1-0.9-0.3-1.9-0.6c0,0-0.1,0-0.2,0c-0.3-0.1-0.5-0.1-0.6,0
	c0,0-0.1,0.2,0,0.5c0,0.1,0,0.1,0,0.1c0.1,0.9,0.2,1.9,0.2,3.1c0,0,0,0.1,0,0.1c0,0.8,0,1.2-0.2,1.3c-0.1,0.1-0.6,0.2-1.4,0.2
	c-0.1,0-0.1,0-0.1,0c-0.1,0-0.2,0-0.3,0c-0.6,0-0.9,0-1.1,0c-0.2,0-0.6-0.2-1.2-0.5c-0.1,0-0.2-0.1-0.3-0.1c-0.7-0.3-1-0.4-1.1-0.4
	c0,0,0,0.1,0,0.2c0,0.1,0.1,0.6,0.1,1.3c0.1,0.9,0.1,3.2,0.1,6.8c0,3.6-0.1,6.2-0.2,7.7c0,0.6-0.1,1-0.1,1.2c0,0.1,0,0.2,0.1,0.3
	C301,71.8,301.1,71.9,301.2,71.9z M317,69.3c-0.1,0.1-0.6,0.1-1.3,0.1c-0.8,0-1.3,0-1.4-0.1c-0.1-0.1-0.2-0.3-0.3-0.5
	c0-0.3,0-1.2,0-2.7c0-0.2,0-0.5,0-0.8c0-0.9,0-1.5,0-1.8c0-0.4,0.1-0.6,0.3-0.6c0.1-0.1,0.4-0.1,0.9-0.1c0.2,0,0.3,0,0.4,0
	s0.3,0,0.4,0c0.5,0,0.8,0,0.9,0.1c0.2,0.1,0.3,0.3,0.3,0.6c0,0.2,0,0.8,0,1.8c0,0.4,0,0.6,0,0.8c0,0.1,0,0.3,0,0.6c0,1.3,0,2,0,2.2
	C317.3,69,317.2,69.2,317,69.3z M309.8,69.3c-0.4,0-0.7,0-0.9-0.1c-0.2-0.1-0.3-0.3-0.3-0.6c0-0.3,0-0.8,0-1.8c0-0.4,0-0.7,0-0.9
	s0-0.5,0-0.9c0-0.9,0-1.5,0-1.8c0-0.3,0.2-0.5,0.3-0.6c0.1-0.1,0.4-0.1,0.9-0.1c0.2,0,0.3,0,0.4,0s0.2,0,0.4,0c0.4,0,0.7,0,0.9,0.1
	c0.2,0.1,0.3,0.3,0.3,0.6c0,0.3,0,0.8,0,1.8c0,0.4,0,0.7,0,0.9c0,1.5,0,2.4,0,2.7c0,0.3-0.1,0.4-0.3,0.5c-0.1,0.1-0.5,0.1-1.3,0.1
	C310.1,69.3,310,69.3,309.8,69.3z M304.9,69.3c-0.8,0-1.2,0-1.3-0.1c-0.2-0.1-0.3-0.2-0.3-0.4c0-0.2,0-1,0-2.2c0-0.2,0-0.4,0-0.6
	c0-0.2,0-0.5,0-0.8c0-0.9,0-1.5,0-1.8c0-0.4,0.1-0.6,0.3-0.6c0.1-0.1,0.4-0.1,0.9-0.1c0.2,0,0.3,0,0.4,0s0.2,0,0.4,0
	c0.4,0,0.7,0,0.9,0.1c0.2,0.1,0.3,0.3,0.3,0.6c0,0.2,0,0.8,0,1.8c0,0.4,0,0.6,0,0.8c0,1.5,0,2.4,0,2.7c0,0.3-0.1,0.4-0.3,0.5
	C306.1,69.3,305.6,69.3,304.9,69.3z M304.9,62.1c-0.8,0-1.3,0-1.4-0.1c-0.1-0.1-0.2-0.2-0.3-0.5c0-0.3,0-1.1,0-2.5
	c0-0.2,0-0.4,0-0.6c0-0.8,0-1.4,0-1.6c0-0.3,0.2-0.5,0.3-0.6c0.1,0,0.4-0.1,0.9-0.1c0.2,0,0.3,0,0.4,0s0.2,0,0.4,0
	c0.5,0,0.8,0,0.9,0.1c0.2,0.1,0.3,0.3,0.3,0.6c0,0.2,0,0.8,0,1.6c0,0.3,0,0.5,0,0.6c0,1.4,0,2.2,0,2.5c0,0.3-0.1,0.4-0.2,0.5
	C306.2,62,305.7,62.1,304.9,62.1z M311.6,62c-0.1,0.1-0.5,0.1-1.3,0.1c-0.8,0-1.2-0.1-1.3-0.1c-0.1-0.1-0.2-0.2-0.3-0.5
	c0-0.2,0-1,0-2.4c0-0.2,0-0.4,0-0.7c0-0.9,0-1.4,0-1.7c0-0.3,0.1-0.5,0.3-0.6c0.1-0.1,0.4-0.1,0.9-0.1c0.2,0,0.3,0,0.4,0
	s0.2,0,0.4,0c0.5,0,0.8,0,0.9,0.1c0.2,0.1,0.3,0.3,0.3,0.6c0,0.2,0,0.8,0,1.7c0,0.3,0,0.5,0,0.7c0,1.4,0,2.2,0,2.4
	C311.8,61.7,311.7,61.9,311.6,62z M315.7,62c-0.8,0-1.3,0-1.4-0.1c-0.1-0.1-0.2-0.2-0.3-0.5c0-0.2,0-1,0-2.4c0-0.2,0-0.4,0-0.8
	c0-0.8,0-1.4,0-1.6c0-0.3,0.1-0.5,0.3-0.6c0.1-0.1,0.4-0.1,0.9-0.1c0.2,0,0.3,0,0.4,0c0.1,0,0.2,0,0.4,0c0.5,0,0.8,0,0.9,0.1
	c0.2,0.1,0.3,0.3,0.3,0.6c0,0.2,0,0.7,0,1.6c0,0.3,0,0.5,0,0.7c0,1.4,0,2.2,0,2.5c0,0.3-0.1,0.4-0.2,0.5C317,62,316.5,62,315.7,62z
	 M36,96c0.2,0,0.6,0,1-0.1c0.4-0.1,0.7-0.2,0.9-0.4c0-0.1,0.1-0.5,0-1.4c0-0.2,0-0.5,0-0.8c0-1.1,0-1.8,0-2.1c0-0.4,0.2-0.6,0.5-0.7
	c0.2-0.1,0.7-0.1,1.5-0.1c0.2,0,0.4,0,0.6,0c1,0,1.7,0,2-0.1c0.4-0.1,0.5-0.2,0.3-0.5c-0.1-0.2-0.5-0.6-1.1-1.2c0,0,0,0-0.1-0.1
	c-0.5-0.4-0.8-0.6-0.9-0.6c-0.1,0-0.4,0.3-0.7,0.7c0,0,0,0.1,0,0.1c-0.3,0.4-0.5,0.7-0.6,0.8c-0.1,0.1-0.3,0.1-0.6,0.1
	c-0.4,0-0.6-0.1-0.7-0.2c-0.1-0.1-0.1-0.5-0.1-1.1c0-0.5,0-0.8,0-1c0-0.2,0.1-0.3,0.3-0.5c0.2-0.2,0.2-0.3,0-0.4
	c-0.1-0.1-0.6-0.3-1.3-0.5c-0.4-0.1-0.6-0.2-0.7-0.3c-0.1-0.1-0.1-0.2,0-0.4c0.1-0.2,0.4-0.4,1-0.4c0.5,0,1,0,1.5,0.1
	c0.5,0.1,0.7,0.3,0.7,0.6c0,0.3,0.4,0.4,1.1,0.1c0.5-0.2,0.9-0.3,1-0.5s0.1-0.5,0.1-1.1c0-1-0.1-2.2-0.1-3.5c0-0.1,0-0.3,0-0.5
	c0-1.2,0-2,0-2.2c0-0.2,0.2-0.4,0.4-0.5l0,0c0.3-0.2,0.4-0.3,0.4-0.4c0-0.1-0.1-0.3-0.4-0.6l0,0c-0.6-0.6-1.1-1-1.4-1.1
	c-0.1,0-0.4,0.1-0.7,0.6c0,0,0,0-0.1,0.1c-0.2,0.3-0.4,0.5-0.6,0.5c-0.1,0-0.6,0.1-1.3,0.1c-0.1,0-0.1,0-0.1,0c-0.8,0-1.3,0-1.5-0.1
	c-0.2-0.1-0.2-0.2,0-0.4c0-0.1,0.3-0.3,0.7-0.7c0.4-0.4,0.7-0.6,0.8-0.7c0.3-0.2,0.3-0.3,0.1-0.4c-0.2-0.1-0.9-0.3-1.8-0.5
	c-0.1,0-0.1,0-0.2,0c-0.4-0.1-0.7-0.1-0.7-0.1c-0.1,0-0.1,0.2-0.1,0.5c0,0.1,0,0.1,0,0.2c0,0.9-0.1,1.6-0.3,1.9
	c-0.2,0.4-0.5,0.5-1,0.5c-0.4,0-1.1-0.2-2-0.6c-0.1,0-0.2-0.1-0.3-0.1c-0.4-0.2-0.6-0.2-0.7-0.2c0,0-0.1,0.2,0,0.6
	c0,0.1,0,0.2,0,0.2c0.1,1.3,0.2,2.2,0.2,2.8c0,0.6-0.1,1-0.2,1.1c-0.1,0.1-0.4-0.1-0.7-0.4c0,0-0.1-0.1-0.1-0.1
	c-0.2-0.2-0.3-0.3-0.4-0.3c0,0-0.1,0-0.1,0.1c0,0,0,0.1,0,0.1c-0.1,0.3-0.3,0.4-0.5,0.3c-0.2,0-0.3-0.9-0.3-2.4
	c0-1.6,0.2-2.5,0.4-2.6c0.2-0.2,0.2-0.3-0.1-0.5c-0.2-0.1-0.8-0.3-1.7-0.6c-0.4-0.1-0.6-0.2-0.7-0.1c0,0-0.1,0.1,0,0.3
	c0.1,0.8,0.2,2,0.2,3.6c0,1.7,0,2.6,0,2.8c-0.1,0.2-0.3,0.3-0.8,0.3c-0.4,0-0.7,0-0.9-0.1c-0.3-0.2-0.4-1-0.3-2.6
	c0-1.6,0.2-2.4,0.5-2.6c0.4-0.3-0.2-0.7-2-1.1c-0.3-0.1-0.4-0.1-0.5,0c0,0,0,0.2,0,0.5c0.1,0.7,0.1,1.4,0.2,2.3c0,0.9,0,2.9,0,5.9
	c0,4,0,6.3-0.1,6.8c-0.2,2-0.5,3.7-0.9,5c0,0,0,0.1-0.1,0.2c-0.1,0.3-0.1,0.4-0.1,0.5c0,0.1,0,0.1,0,0.2c0.1,0.1,0.2,0.1,0.3,0
	c0.1-0.1,0.3-0.4,0.6-0.8c0.6-1,1.1-2,1.4-3.2c0.3-1.2,0.5-2.6,0.6-4.2c0-0.8,0.1-1.2,0.2-1.3c0.1-0.1,0.5-0.2,1.1-0.2
	c0.4,0,0.6,0,0.8,0.1c0.1,0,0.2,0.1,0.3,0.3c0.1,0.1,0.1,1.1,0.1,2.8c0,1.7-0.1,3.3-0.1,4.8c0,0.7-0.1,1.2-0.1,1.3
	c0,0.1,0.1,0.2,0.2,0.3c0.3,0.3,0.8,0.2,1.5-0.2c0,0,0,0,0.1,0c0.3-0.1,0.4-0.3,0.5-0.4c0-0.1,0.1-0.6,0-1.2c0-0.1,0-0.1,0-0.2
	c-0.1-2.6-0.1-4.4-0.1-5.5c0.1-1.1,0.2-1.7,0.5-1.7c0.2,0,0.3-0.1,0.4-0.2c0-0.2,0-0.3-0.2-0.5c-0.6-0.6-1-1-1.3-1.1
	c-0.3-0.1-0.6-0.1-0.8,0.2c-0.3,0.4-0.6,0.6-0.7,0.7c-0.1,0.1-0.4,0.1-0.9,0.1c-0.4,0-0.7,0-0.8-0.1c-0.2-0.1-0.3-0.2-0.3-0.5
	c0-0.2,0-0.6,0-1.3c0,0,0-0.1,0-0.1c0-0.1,0-0.3,0-0.4c0-0.5,0-0.8,0.1-0.9c0.1-0.2,0.3-0.3,0.6-0.3c0.2,0,0.8,0,1.7,0
	c0.3,0,0.6,0,0.8,0c0.2,0,0.4,0,0.7,0c0.9,0,1.5,0,1.8,0.1c0.3,0.1,0.5,0.3,0.6,0.6c0,0.2,0,0.8,0,1.7c0,0.3,0,0.5,0,0.7
	c0,0.7,0,1.2,0,1.3c0,0.1,0.1,0.2,0.1,0.3c0.2,0.2,0.6,0.2,1.1,0c0.6-0.2,0.9-0.4,0.9-0.6c0-0.2,0.1-0.4,0.4-0.5
	c0.3-0.1,0.6-0.1,0.8,0c0.4,0.2,0.3,0.7-0.4,1.5c-0.7,0.8-1.5,1.6-2.6,2.2c-0.2,0.1-0.4,0.2-0.4,0.3c0,0,0,0.1,0,0.2
	c0.1,0.1,0,0.1-0.2,0.2c-0.2,0-0.4,0.1-0.7,0h0c-0.2,0-0.3,0-0.4,0c0,0,0,0.2,0.1,0.4c0,0,0,0.1,0,0.1c0,0,0,0.1,0,0.1
	c0.1,0.2,0.2,0.4,0.3,0.4c0.1,0,0.3,0,0.6,0c0,0,0.1,0,0.1,0c0.8-0.1,1.8-0.2,3-0.2c1.2,0,1.9,0,2.1,0c0.2,0.1,0.3,0.5,0.3,1.2
	c0,0.7,0,1.9-0.1,3.6C35.6,95.7,35.7,95.9,36,96z M33.6,89.6c-1.2,0-1.9,0-2.1-0.1c-0.5-0.1-0.5-0.3,0-0.6c1.2-0.5,2.3-1.1,3.3-2
	c0.4-0.4,0.7-0.5,0.7-0.4c0.1,0.1,0.2,0.6,0.2,1.4c0,0.7,0,1.1,0,1.2c0,0.2-0.1,0.3-0.3,0.4C35.4,89.6,34.7,89.6,33.6,89.6z
	 M34.4,84.2c-0.1,0.1-0.4,0.1-0.8,0.1c-0.4,0-0.6-0.1-0.7-0.1c-0.2-0.1-0.3-0.5-0.3-1.3c0-0.8,0-1.3,0.1-1.5
	c0.1-0.2,0.4-0.3,0.9-0.3c0.5-0.1,0.8,0,1.1,0.1c0.3,0.1,0.4,0.6,0.3,1.5C34.9,83.6,34.7,84.1,34.4,84.2z M38,84.3
	c-0.7,0-1.1,0-1.2-0.1c-0.1-0.1-0.1-0.4,0-0.9c0.1-0.4,0.1-0.8,0.1-1.1c0-0.5,0.1-0.8,0.2-0.9c0.1-0.1,0.5-0.2,1-0.2
	c0.6,0,1,0.1,1.1,0.2c0.1,0.1,0.2,0.6,0.2,1.3c0,0.6,0,1,0,1.2c0,0.2-0.1,0.3-0.2,0.4c-0.1,0.1-0.2,0.1-0.3,0.1
	C38.7,84.3,38.5,84.3,38,84.3z M34.7,80.4c-0.1,0.1-0.4,0.1-0.9,0.1c-0.5,0-0.8,0-0.9-0.1c-0.2-0.1-0.3-0.6-0.3-1.4
	c0-0.8,0.1-1.3,0.3-1.4c0.1-0.1,0.5-0.1,1-0.1c0.5,0,0.8,0.1,1,0.2c0.2,0.2,0.2,0.6,0.2,1.4S34.9,80.2,34.7,80.4z M38.2,80.4
	c-0.5,0-0.8,0-0.9-0.1c-0.2-0.1-0.3-0.6-0.3-1.5c0-0.8,0.1-1.3,0.3-1.4c0.1-0.1,0.4-0.1,1-0.1c0.5,0,0.8,0.1,0.9,0.1
	c0.2,0.1,0.3,0.6,0.3,1.4c0,0.8-0.1,1.3-0.3,1.4C39,80.4,38.7,80.4,38.2,80.4z M59.4,88.2c1.1,0.1,2-0.2,2.8-1
	c0.8-0.8,1.1-1.7,1-2.8c-0.1-0.9-0.5-1.6-1.2-2.2c-0.6-0.5-1.4-0.8-2.2-0.8c-0.9,0-1.6,0.3-2.3,0.9c-0.7,0.6-1,1.4-1.1,2.3
	c0,0.8,0.2,1.6,0.7,2.3C57.8,87.7,58.5,88.1,59.4,88.2z M60.7,87.2c-0.8,0.3-1.6,0.2-2.3-0.3c-0.7-0.5-1.1-1.2-1.1-2.1
	c0-0.7,0.2-1.3,0.7-1.8c0.5-0.5,1.1-0.7,1.7-0.7c0.7,0,1.3,0.2,1.8,0.7c0.7,0.6,0.9,1.4,0.7,2.3C62.1,86.3,61.6,86.9,60.7,87.2z"/>
</svg>
