<?xml version="1.0" encoding="utf-8"?>
<!-- Generator: Adobe Illustrator 24.2.3, SVG Export Plug-In . SVG Version: 6.00 Build 0)  -->
<svg version="1.1" id="Layer_1" xmlns="http://www.w3.org/2000/svg" xmlns:xlink="http://www.w3.org/1999/xlink" x="0px" y="0px"
	 viewBox="0 0 352 219" style="enable-background:new 0 0 352 219;" xml:space="preserve">
<style type="text/css">
	.st0{clip-path:url(#SVGID_2_);}
	.st1{fill:none;stroke:#D6D2C7;stroke-width:1.3;stroke-miterlimit:10;stroke-dasharray:9.31,9.31;}
	.st2{fill:#D6D2C7;}
</style>
<g>
	<defs>
		<rect id="SVGID_1_" width="351.3" height="218.1"/>
	</defs>
	<clipPath id="SVGID_2_">
		<use xlink:href="#SVGID_1_"  style="overflow:visible;"/>
	</clipPath>
	<g class="st0">
		<path class="st1" d="M350.6,0.6H0.6v216.8h350V0.6z"/>
	</g>
</g>
<path class="st2" d="M23.8,45.2c0,0,0.1,0,0.2,0c0.9-0.2,1.5-0.3,1.8-0.5c0.4-0.3,0.6-0.8,0.6-1.7c0.1-0.6,0.1-2.1,0.1-4.3
	c0-0.3,0-0.7,0-1.2c0-1.2,0-1.9,0-2.3c0-0.4,0.1-0.8,0.2-0.9c0.1-0.1,0.2-0.3,0.5-0.4c0.1-0.1,0.2-0.1,0.3-0.2
	c0.6-0.4,1-0.6,1.2-0.6c0.2,0,0.3,0.1,0.5,0.5c0.1,0.2,0.2,0.3,0.2,0.4c0,0,0.2,0,0.3,0c0.5-0.1,1-0.2,1.5-0.2s0.8,0.1,0.8,0.2
	c0.1,0.2-0.1,0.8-0.5,2c-0.4,1.2-0.9,2.4-1.4,3.5c-0.1,0.3-0.1,0.5,0,0.6c0.2,0.1,0.5,0.1,1.1,0.1c0.4,0,0.6,0,0.7-0.1
	c0.1-0.1,0.2-0.2,0.3-0.5c0.2-0.4,0.3-0.6,0.5-0.6s0.5,0.1,1,0.3c0.9,0.5,1.4,0.8,1.5,1c0.1,0.2-0.1,0.5-0.5,0.9
	c-1.4,1.3-3.3,2.4-5.9,3.2c-0.4,0.1-0.7,0.2-0.8,0.3c-0.1,0.1-0.1,0.1-0.1,0.2c0,0.1,0.1,0.1,0.3,0.1c0.1,0,0.5-0.1,1.1-0.2
	c3-0.6,5.4-1.6,7-2.9c0.4-0.3,0.7-0.4,0.9-0.4c0.3,0.1,0.7,0.5,1.5,1.2c0.7,0.7,1.3,1.3,1.6,1.8c0.2,0.3,0.5,0.5,0.9,0.4
	c0.4,0,0.7-0.2,0.8-0.6c0.2-0.6,0.1-1.3-0.4-2c-0.5-0.8-1.3-1.4-2.4-2.1c-0.4-0.3-0.7-0.5-0.7-0.6c0-0.1,0-0.4,0.2-0.7
	c0.6-1.2,1.1-2.6,1.4-4.4c0.1-0.5,0.2-0.8,0.4-0.9c0.1-0.1,0.5-0.2,1.2-0.2c0.6,0,0.9,0,1.1-0.1c0.2,0,0.2-0.2,0.2-0.3
	c0-0.1-0.3-0.4-0.8-0.9c-0.5-0.5-0.9-0.9-1.3-1.1c-0.2-0.1-0.3-0.2-0.4-0.1c-0.1,0.1-0.3,0.4-0.7,1c0,0,0,0.1-0.1,0.1
	c-0.2,0.3-0.5,0.5-0.6,0.6c-0.2,0-0.7,0.1-1.6,0.1c-0.1,0-0.3,0-0.3,0c-0.1,0-0.2,0-0.3,0c-0.8,0-1.4,0-1.6,0
	c-0.3,0-0.4-0.2-0.5-0.4c0-0.1,0.1-0.5,0.2-1c0-0.1,0.1-0.2,0.1-0.2c0.2-0.5,0.3-0.9,0.4-1.1c0.1-0.2,0.3-0.4,0.4-0.5
	c0.2-0.1,0.3-0.2,0.2-0.3c-0.1-0.1-0.3-0.2-0.7-0.3c-0.2-0.1-0.6-0.1-1-0.2c-0.5-0.1-0.7-0.1-0.8-0.1c0,0-0.1,0.3-0.2,0.9
	c-0.2,1-0.4,1.9-0.6,2.6c-0.1,0.3-0.2,0.5-0.4,0.6c-0.1,0.1-0.4,0.1-0.8,0.1c-0.8,0-1.4-0.1-1.8-0.2c-0.4-0.1-0.4-0.3-0.2-0.4
	c0.1-0.1,0.1-0.1,0.1-0.2c0-0.1,0-0.1,0-0.1c-0.1,0-0.4,0.1-1.2,0.3c-0.1,0-0.2,0-0.3,0.1c-0.6,0.2-1,0.3-1.1,0.3
	c-0.2,0-0.3-0.1-0.4-0.3c0-0.1,0-0.5,0-1.2c0-0.1,0-0.2,0-0.3c0-0.7,0-1.1,0-1.3c0-0.3,0.1-0.4,0.2-0.5c0.1,0,0.4-0.1,0.7-0.1
	c0.4,0,0.6,0,0.8,0.1c0.1,0.1,0.2,0.2,0.3,0.5c0.1,0.5,0.4,0.8,0.8,0.9c0.4,0,0.8-0.1,1.2-0.5c0.4-0.4,0.7-0.9,0.7-1.5
	c0-0.1,0-0.2,0-0.3c0-0.3,0.1-0.5,0.2-0.5c0.1-0.1,0.4-0.2,0.8-0.2c0.3,0,1,0,2.1,0c0.5,0,0.9,0,1.2,0c0.3,0,0.6,0,1.1,0
	c1.3,0,2.1,0,2.4,0.1c0.4,0.1,0.7,0.2,0.7,0.5c0,0.2-0.1,0.7-0.3,1.5c-0.1,0.3-0.1,0.5-0.2,0.6c0,0,0,0.1,0,0.2c0,0,0.1,0.1,0.1,0.1
	c0.1,0,0.3-0.2,0.8-0.6c0.5-0.4,0.9-0.8,1.4-1.2c0.5-0.4,0.8-0.7,1.2-0.8c0.3,0,0.4-0.2,0.3-0.3c-0.1-0.2-0.3-0.5-0.8-1
	c-0.5-0.5-0.9-0.8-1.1-0.9c-0.2,0-0.4,0.1-0.8,0.5l0,0c-0.3,0.3-0.5,0.5-0.7,0.6c-0.2,0-0.6,0.1-1.2,0.1c-0.1,0-0.1,0-0.1,0
	c0,0-0.1,0-0.2,0c-0.8,0-1.2,0-1.3-0.1c-0.1-0.1-0.2-0.4-0.2-1.1c0,0,0-0.1,0-0.1c0-0.5,0-0.8,0-0.9c0-0.2,0.1-0.3,0.3-0.5
	c0.2-0.2,0.2-0.3-0.1-0.5c-0.2-0.1-0.8-0.3-1.7-0.5c0,0-0.1,0-0.2,0c-0.4-0.1-0.6-0.1-0.6-0.1c0,0-0.1,0.1,0,0.4c0,0,0,0.1,0,0.1
	c0.2,2,0.2,3-0.1,3.3c-0.1,0.1-0.5,0.1-1.4,0.1c-0.8,0-1.3,0-1.4-0.1c-0.2-0.1-0.4-0.3-0.4-0.6c-0.1-0.4-0.2-0.6-0.3-0.6
	c-0.1,0-0.1,0-0.1,0c0,0.3-0.1,0.6-0.3,1.1c-0.2,0.4-0.4,0.7-0.5,0.9s-0.3,0.2-0.5,0.2c-0.1,0-0.4-0.3-0.8-0.6l0,0
	c-0.2-0.2-0.4-0.3-0.5-0.3c-0.1,0-0.2,0.2-0.4,0.5c-0.2,0.3-0.4,0.5-0.5,0.6s-0.2,0.1-0.3,0.1c-0.2,0-0.4-0.7-0.3-2
	c0-1.3,0.2-2,0.4-2.2c0.5-0.3-0.2-0.7-2.2-1.2l0,0c-0.3-0.1-0.4-0.1-0.4,0c0,0,0,0.3,0,0.6c0.1,0.9,0.2,1.9,0.2,2.9
	c0,1,0,1.6-0.1,1.8c-0.1,0.2-0.3,0.3-0.6,0.3c-0.3,0-0.9,0-1.8-0.1c0,0,0,0-0.1,0c-0.3,0-0.4,0-0.5,0c0,0,0,0.2,0.1,0.4
	c0,0,0,0.1,0,0.1c0,0,0,0,0,0.1c0.1,0.3,0.2,0.4,0.3,0.4c0.1,0,0.2,0,0.4,0c0,0,0.1,0,0.1,0c0.7-0.2,1.2-0.3,1.5-0.2
	c0.3,0,0.5,0.3,0.6,0.6c0.1,0.3,0.1,0.9,0.1,1.8c0,0.1,0,0.2,0,0.4c0,0.7,0,1.1-0.1,1.3c-0.1,0.3-0.3,0.5-0.6,0.6
	c-0.2,0.1-0.8,0.3-1.6,0.5c-0.2,0-0.4,0.1-0.5,0.1c-0.3,0.1-0.5,0.1-0.6,0.2c0,0,0,0.1,0,0.2c0,0.1,0.2,0.5,0.4,1.2
	c0.2,0.6,0.3,1,0.4,1c0.1,0.2,0.2,0.1,0.4,0c0.3-0.4,0.7-0.7,1.2-1c0.5-0.2,0.8-0.3,0.9,0c0,0.1,0.1,1.1,0.1,2.9c0,1.9,0,2.9,0,3.1
	c-0.1,0.3-0.2,0.4-0.5,0.5c-0.2,0.1-0.7,0.1-1.5,0c-0.5,0-0.8,0-0.8,0c-0.1,0.1,0,0.2,0.4,0.3c1,0.2,1.5,0.8,1.7,1.8
	C23.7,45.1,23.7,45.2,23.8,45.2z M36.2,39c-0.1,0-0.2,0.1-0.3,0.1c-0.1,0-0.2-0.1-0.5-0.1c-0.2,0-0.6-0.2-1.3-0.3
	c-0.6-0.2-1-0.3-1.1-0.4s-0.1-0.4,0.1-0.9c0.1-0.1,0.2-0.7,0.6-1.6c0-0.1,0.1-0.2,0.1-0.2c0-0.1,0.1-0.2,0.1-0.4
	c0.3-0.7,0.5-1.1,0.6-1.2c0.2-0.1,0.6-0.2,1.3-0.2c0.2,0,0.3,0,0.4,0c0.7,0,1.1,0,1.3,0c0.3,0,0.4,0.2,0.4,0.3c0,0.1,0,0.4-0.1,0.9
	c-0.2,1-0.5,2-0.8,2.7C36.7,38.5,36.4,39,36.2,39z M52,45.2c0.2,0.1,0.6,0.1,1,0c0.5-0.1,0.8-0.3,1.1-0.5c0.1-0.1,0.1-0.2,0.1-0.3
	c0-0.1,0-0.6,0-1.4c0-0.3,0-0.6,0-0.8c0-0.7-0.1-2.5-0.1-5.5c0-0.2,0-0.5,0-0.8c0-2,0-3.1,0-3.5c0-0.4,0.1-0.6,0.3-0.6l0,0
	c0.1-0.1,0.2-0.2,0.1-0.3c-0.1-0.1-0.3-0.3-0.6-0.6c-0.2-0.2-0.3-0.4-0.4-0.5c0-0.1,0.1-0.4,0.2-0.7c0.8-1.6,1.5-3,1.9-4.2
	c0.2-0.5,0.4-0.9,0.7-1c0.3-0.1,0.3-0.3,0-0.4c-0.3-0.2-0.9-0.4-1.9-0.7c-0.5-0.2-0.8-0.2-0.9-0.2c-0.1,0-0.1,0-0.1,0.1
	c0,0.2-0.1,0.7-0.2,1.4c-0.1,0.7-0.3,1.4-0.5,1.9c-0.4,1.3-0.9,2.7-1.6,4.2c-0.7,1.5-1.4,2.9-2.1,4.1c-0.2,0.3-0.3,0.5-0.3,0.6
	c0,0.1,0,0.1,0.1,0.1c0.2,0,0.8-0.5,1.9-1.7c0.3-0.4,0.5-0.6,0.7-0.6s0.3,0,0.3,0.2c0.1,0.2,0.1,1.6,0,4.3c0,2.7-0.1,4.7-0.2,6.1
	c0,0.7-0.1,1.1,0,1.2C51.8,45,51.9,45.1,52,45.2z M55.3,44.4c0,0.1,0.1,0.1,0.2,0.1c0.7-0.1,1.5-0.2,2.6-0.3c1.1,0,3.2,0,6.4,0
	c0.3,0,0.8,0,1.4,0c2.4,0,3.8,0,4.2,0c0.4,0,0.6-0.1,0.7-0.2c0.1-0.1-0.1-0.4-0.4-0.7c-0.3-0.4-0.8-0.8-1.4-1.2
	c-0.3-0.2-0.5-0.3-0.6-0.3c-0.1,0-0.3,0.3-0.7,0.8c0,0-0.1,0.1-0.1,0.2c-0.3,0.4-0.5,0.7-0.7,0.7c-0.1,0.1-0.5,0.1-1.2,0.1
	c-0.1,0-0.2,0-0.3,0c-0.1,0-0.3,0-0.5,0c-0.5,0-0.8,0-0.9-0.1c-0.2-0.1-0.3-0.3-0.3-0.7c0-0.3,0-0.9,0-1.8c0-0.5,0-0.9,0-1.1
	c0-0.3,0-0.7,0-1.3c0-0.9,0-1.5,0-1.8c0.1-0.3,0.2-0.5,0.5-0.6c0.2-0.1,0.7-0.1,1.5-0.1c0.4,0,0.8,0,1.1,0c1.5,0,2.3,0,2.5,0
	c0.3,0,0.4-0.1,0.5-0.2c0.1-0.2-0.3-0.7-1.2-1.5l0,0c-0.4-0.4-0.7-0.5-0.8-0.5c-0.1,0-0.3,0.2-0.6,0.6l0,0c-0.3,0.5-0.6,0.7-0.7,0.8
	c-0.2,0.1-0.6,0.1-1.2,0.1c-0.1,0-0.2,0-0.3,0c-0.4,0-0.7,0-0.8-0.1c-0.2-0.1-0.3-0.3-0.3-0.6c0-0.2,0-0.8,0-1.7c0-0.3,0-0.5,0-0.7
	c0-0.3,0-0.6,0-1c0-0.8,0-1.3,0-1.5c0.1-0.3,0.3-0.5,0.6-0.6c0.2,0,0.8-0.1,1.6,0c0.5,0,0.8,0,1.1,0c1.6,0,2.5,0,2.7,0
	c0.3,0,0.4-0.1,0.5-0.2c0.1-0.1-0.1-0.4-0.4-0.7c-0.3-0.3-0.7-0.7-1.3-1.1c-0.3-0.2-0.5-0.3-0.6-0.3c-0.1,0-0.3,0.2-0.6,0.6
	c-0.4,0.5-0.7,0.8-0.9,0.9c-0.1,0.1-1.7,0.1-4.8,0.1c-3.1,0-5,0-5.5-0.1c-0.4,0-0.5,0-0.6,0c0,0,0,0.2,0.1,0.5l0,0.1l0,0
	c0.1,0.3,0.2,0.4,0.3,0.4c0.1,0,0.2,0,0.5,0c0.7-0.1,1.6-0.2,2.6-0.2c1,0,1.6,0,1.8,0l0,0c0.2,0,0.3,0.2,0.3,0.4c0,0.2,0,0.9,0,2.1
	c0,0.2,0,0.3,0,0.5s0,0.3,0,0.5c0,1.2,0,1.9,0,2.1c0,0.2-0.1,0.3-0.3,0.4l0,0c-0.1,0.1-0.8,0.1-2,0.1c-1.2,0-2.1-0.1-2.6-0.2
	c-0.1,0-0.2,0-0.2,0.1c0,0.1,0.1,0.3,0.2,0.5c0,0,0,0,0,0.1c0.1,0.2,0.2,0.4,0.2,0.4s0.2,0,0.5,0c0,0,0.1,0,0.1,0
	c0.7-0.1,1.5-0.2,2.4-0.2c0.9,0,1.4,0,1.5,0.1c0.1,0.1,0.2,0.3,0.2,0.6c0,0.3,0,1.3,0,3c0,1.6,0,2.6,0,3c0,0.3-0.1,0.6-0.2,0.6
	c-0.1,0.1-0.9,0.1-2.3,0.1c-1.4,0-2.6,0-3.6-0.1c-0.2,0-0.3,0-0.3,0c0,0,0.1,0.2,0.2,0.5C55.2,44.2,55.3,44.4,55.3,44.4z M62.8,27.7
	c0.4,0.2,0.7,0.1,1,0c0.3-0.2,0.5-0.5,0.5-0.9c0-0.7-0.3-1.4-1.1-2c-0.8-0.6-1.8-1.1-3.2-1.4c-0.5-0.1-0.7-0.1-0.7,0
	c0,0.1,0.3,0.4,0.8,0.9c1.1,1.1,1.8,2.1,2.3,3C62.5,27.5,62.7,27.7,62.8,27.7z M80.7,43.3c2.5,0,3.8,0,3.8-0.1
	c0.1,0,0.1-0.2,0.1-0.4c0-0.2,0-0.4-0.1-0.4l-0.2,0c-0.3,0-0.6-0.1-0.8-0.1c-0.1,0-0.2,0-0.4,0c-0.4,0-0.7-0.1-0.8-0.2
	c-0.1-0.1-0.2-0.4-0.3-0.8c0-0.3,0-1,0-2c0-0.4,0-0.7,0-0.9c0-0.3,0-0.7,0-1.2c0-0.9,0-1.5,0-1.8c0-0.4,0.2-0.6,0.4-0.6
	c0.1-0.1,0.5-0.1,1-0.1c0.3,0,0.5,0,0.6,0c0.1,0,0.2,0,0.3,0c0.8,0,1.3,0.1,1.5,0.2c0.1,0.1,0.3,0.5,0.4,1.1c0,0.1,0,0.2,0,0.3
	c0,0,0,0.1,0,0.2c0,0.5,0.1,0.8,0.1,0.8c0,0.1,0.2,0.1,0.4,0.1c0,0,0.1,0,0.1,0c0,0,0.1,0,0.2,0c0.1,0,0.2,0,0.3-0.1
	c0.1-0.1,0.1-0.2,0.1-0.6c0-0.2,0-0.7,0-1.6c0-0.4,0-0.7,0-0.9c0-0.2,0-0.4,0-0.7c0-0.9,0-1.5,0-1.8c0-0.3,0-0.5-0.1-0.6
	c0-0.1-0.1-0.1-0.3-0.1c-0.1,0-0.1,0-0.2,0h0c-0.2,0-0.4,0-0.4,0.1c0,0.1-0.1,0.4-0.1,0.8c0,0,0,0.1,0,0.1c0,0.1,0,0.2,0,0.3
	c-0.1,0.7-0.2,1-0.4,1.2c-0.1,0.1-0.6,0.1-1.5,0.1c-0.1,0-0.3,0-0.3,0c-0.1,0-0.3,0-0.6,0c-0.5,0-0.9,0-1-0.1
	c-0.2-0.1-0.3-0.3-0.4-0.6c0-0.2-0.1-0.8,0-1.8c0-0.4,0-0.8,0-1c0-0.3,0-0.7,0-1.2c0-0.9,0-1.5,0-1.8c0.1-0.3,0.2-0.5,0.5-0.6
	c0.2-0.1,0.7-0.1,1.4-0.1c0.4,0,0.7,0,0.9,0c0.2,0,0.5,0,0.9,0c0.8,0,1.4,0,1.6,0c0.3,0,0.5,0.2,0.7,0.4c0.1,0.1,0.2,0.5,0.3,1.1
	c0,0.3,0.1,0.5,0.1,0.6c0,0.1,0,0.2,0.1,0.3c0.1,0.6,0.2,0.9,0.3,1c0.1,0.1,0.2,0.1,0.5,0.1c0,0,0.1,0,0.1,0c0.3,0,0.5,0,0.6,0
	c0.1,0,0.1-0.1,0.1-0.3c0,0,0-0.3,0-0.8c0-0.6,0-1,0-1.4c0-1.4-0.1-2-0.1-2.1c0,0-2.2-0.1-6.6-0.1c-4.3,0-6.5,0-6.6,0
	c-0.1,0.2-0.2,0.3,0,0.5c0.1,0.2,0.3,0.3,0.5,0.3c0.7,0.1,1.2,0.1,1.4,0.2c0.2,0.1,0.4,0.2,0.5,0.4c0,0.1,0.1,2,0.1,5.7
	c0,3.7,0,6.3,0,7.7c0,0,0,0.1,0,0.1c0,0.8-0.1,1.2-0.2,1.4c-0.1,0.1-0.5,0.2-1.1,0.3c-0.1,0-0.1,0-0.1,0c-0.6,0.1-0.9,0.1-0.9,0.2
	c0,0-0.1,0.2-0.1,0.4c0,0.2,0,0.3,0.1,0.3C77,43.2,78.2,43.3,80.7,43.3z M101.8,43.2c3.2,0,4.8,0,4.9,0c0,0,0.1-0.2,0.1-0.4
	c0-0.2,0-0.3,0-0.3c-0.1,0-0.6-0.1-1.5-0.2c-0.2,0-0.4-0.1-0.7-0.1c-0.5,0-0.8-0.1-0.9-0.3c-0.2-0.2-0.3-0.7-0.3-1.4
	c0-0.6,0-1.9,0-3.9c0-1.2,0-2.3,0-3c0-4,0-6.3,0-7c0-0.7,0-1-0.1-1.1c0-0.1-0.2-0.1-0.3,0c-0.1,0-0.6,0.1-1.5,0.3
	c-0.4,0.1-0.8,0.2-1.1,0.3c-0.2,0-0.5,0.1-0.9,0.2c-1,0.2-1.6,0.4-1.8,0.5c-0.2,0.1-0.2,0.2-0.2,0.3c0,0,0,0.1,0,0.1c0,0,0,0,0,0.1
	c0,0.2,0,0.3,0.1,0.3c0.1,0,0.4,0,0.9,0c0.1,0,0.2,0,0.2,0c0.8-0.1,1.3-0.1,1.5-0.1c0.2,0,0.3,0.1,0.4,0.3c0.1,0.1,0.1,2.5,0.1,7
	c0,4.5,0,6.9-0.1,7c-0.1,0.2-0.2,0.3-0.4,0.4c-0.2,0-0.7,0.1-1.6,0.2c-1,0.1-1.5,0.2-1.5,0.2c0,0-0.1,0.1-0.1,0.3c0,0.2,0,0.3,0,0.4
	C97,43.2,98.6,43.2,101.8,43.2z M113.9,44.4c0,0.1,0.2,0.1,0.6,0c0,0,0.1,0,0.2,0c0.6-0.1,1.4-0.2,2.2-0.2c0.9,0,3.7,0,8.4,0
	c0.5,0,1.3,0,2.2,0c3.6,0,5.7,0,6.3,0c0.6,0,1-0.1,1-0.2l0,0c0.1-0.2-0.3-0.7-1.4-1.6c0,0-0.1,0-0.1-0.1c-0.5-0.4-0.8-0.6-0.9-0.6
	c-0.1,0-0.3,0.2-0.6,0.6c0,0-0.1,0.1-0.1,0.1c0,0,0,0,0,0.1c-0.4,0.5-0.7,0.9-0.8,0.9c-0.2,0.1-0.6,0.1-1.3,0.1c-0.1,0-0.1,0-0.2,0
	c-0.7,0-1.1,0-1.2,0c-0.2,0-0.3-0.1-0.4-0.3c0-0.1-0.1-2.3-0.1-6.5c0-4.3,0-6.5,0-6.8c0,0,0,0,0-0.1c0-0.1,0.1-0.2,0.1-0.3
	c0.1-0.1,0.4-0.1,0.7-0.1c0.3,0,0.9,0,1.9,0c0.2,0,0.3,0,0.4,0c1.6,0,2.5,0,2.7,0c0.3,0,0.4-0.1,0.5-0.2c0.2-0.3-0.4-0.9-1.8-1.8h0
	c-0.3-0.2-0.5-0.3-0.6-0.3c-0.1,0-0.3,0.2-0.6,0.6c0,0-0.1,0.1-0.1,0.1c0,0,0,0.1-0.1,0.1c-0.3,0.4-0.6,0.7-0.8,0.8
	c-0.2,0.1-0.7,0.1-1.5,0.1c0,0-0.1,0-0.1,0c-1,0-1.5-0.1-1.6-0.2c-0.1-0.1,0.1-0.5,0.7-1.1c0.6-0.6,1.2-1.4,1.8-2.2
	c0.5-0.7,0.8-1,0.9-1c0.4,0,0.4-0.1,0-0.4c-0.4-0.2-1.1-0.5-2-0.8c0,0-0.1,0-0.2,0c-0.4-0.1-0.6-0.2-0.6-0.1c-0.1,0-0.1,0.2-0.2,0.4
	c0,0,0,0.1,0,0.1c-0.1,0.8-0.3,1.8-0.7,2.9c-0.3,1.1-0.6,1.8-0.8,2.1c-0.1,0.2-0.6,0.3-1.5,0.4c-0.8,0-1.7,0-2.5-0.1
	c-0.3,0-0.6,0-0.9,0c-0.4,0-1.4,0.1-3.1,0c-1.7,0-2.8-0.1-3.3-0.1c-0.1,0-0.2,0-0.2,0.1c0,0.1,0.1,0.3,0.2,0.6c0,0,0,0.1,0.1,0.1
	c0.1,0.2,0.2,0.3,0.3,0.3s0.3,0,0.7-0.1c0.1,0,0.2,0,0.2,0c0.8-0.1,1.8-0.2,2.9-0.2c1.1,0,1.7,0,1.8,0.1c0.1,0.1,0.2,0.5,0.2,1.1
	c0,0.6,0,2.6,0,6c0,0.3,0,0.7,0,1.2c0,2,0,3.4,0,3.9c0,0.8,0,1.2-0.1,1.4c0,0.2-0.1,0.3-0.2,0.3c0,0-0.1,0-0.1,0
	c-0.1,0.1-1.1,0.1-2.7,0.1c-1.7,0-2.9-0.1-3.7-0.1c-0.3,0-0.4,0-0.4,0.2C113.5,43.7,113.6,44,113.9,44.4z M125.1,43.5
	c-0.1,0.1-0.4,0.1-0.9,0.1c-0.5,0-0.8,0-1-0.1l0,0c-0.1,0-0.2-0.1-0.2-0.3c0-0.2-0.1-0.7-0.1-1.5c0-0.5,0-1.8,0-3.9c0-0.6,0-1,0-1.3
	c0-0.5,0-1.3,0-2.2c0-1.8,0-3,0-3.5c0-0.7,0.1-1.1,0.2-1.3c0.1-0.1,0.3-0.2,0.6-0.1c0.2,0,0.3,0,0.4,0s0.2,0,0.4,0
	c0.3,0,0.5,0,0.6,0.1c0.1,0.2,0.2,0.6,0.2,1.3c0,0.5,0,1.6,0,3.5c0,1,0,1.7,0,2.3c0,0.3,0,0.7,0,1.2c0,2,0,3.4,0,3.9
	c0,0.8,0,1.2-0.1,1.4C125.3,43.4,125.3,43.5,125.1,43.5C125.1,43.5,125.1,43.5,125.1,43.5z M128.7,40.6c0.1,0,0.1,0,0.2,0
	c0,0,0.1-0.1,0.3-0.3c1-1.5,2-3.4,2.9-5.6c0,0,0-0.1,0-0.1c0.4-0.8,0.6-1.3,0.7-1.5c0.1-0.2,0.3-0.3,0.5-0.4
	c0.4-0.2,0.2-0.4-0.6-0.6c0,0-0.2,0-0.3-0.1c-0.5-0.1-0.8-0.2-1.1-0.3l0,0c-0.5-0.1-0.7-0.2-0.8-0.2s-0.1,0.1-0.1,0.3
	c0,0.7-0.1,1.7-0.4,3.1c-0.2,1.4-0.6,2.8-0.9,4.3c0,0,0,0.1,0,0.1c-0.2,0.6-0.2,1-0.3,1.1C128.6,40.5,128.6,40.5,128.7,40.6z
	 M117.8,40c0.5,0.3,0.9,0.2,1.2-0.2c0.3-0.4,0.4-1.1,0.4-2c-0.1-0.9-0.3-1.8-0.7-2.7c-0.3-0.6-0.7-1.3-1.2-1.9
	c-0.5-0.6-0.9-1.1-1.2-1.3c-0.3-0.2-0.4-0.1-0.3,0.4c0.4,1,0.7,2.2,0.9,3.4c0.3,1.2,0.4,2.3,0.4,3.2c0,0.5,0,0.7,0.1,0.8
	C117.5,39.7,117.6,39.9,117.8,40z M121.2,28.4c0.1,0,0.3,0,0.5-0.1c0.2-0.1,0.4-0.2,0.5-0.3c0.5-0.7,0.5-1.5-0.1-2.4
	c-0.5-0.9-1.5-1.6-2.7-2.2c-0.5-0.2-0.8-0.3-1-0.3c-0.1,0-0.1,0.2,0.1,0.4c0.4,0.5,0.8,1.2,1.1,1.9c0.4,0.8,0.6,1.4,0.7,2
	C120.5,28,120.8,28.2,121.2,28.4z M145.7,44.5c0,0,0.3,0,0.9,0c0.7-0.1,1.5-0.2,2.3-0.2c0.8,0,2.9,0,6.4,0c4.5,0,6.8,0,7,0
	c0.3-0.1,0.4-0.2,0.3-0.5c-0.1-0.2-0.5-0.6-1.1-1.1c0,0-0.1,0-0.1-0.1c-0.6-0.5-1-0.7-1.1-0.7c-0.2,0-0.4,0.2-0.8,0.7
	c0,0-0.1,0.1-0.1,0.1c0,0-0.1,0.1-0.1,0.2c-0.3,0.4-0.5,0.6-0.7,0.6c-0.2,0.1-0.6,0.1-1.4,0.1c-0.1,0-0.2,0-0.3,0
	c-0.2,0-0.4,0-0.6,0c-0.5,0-0.9,0-1-0.1c-0.2-0.1-0.3-0.4-0.4-0.8c0-0.3,0-1,0-2.1c0-0.5,0-1,0-1.3c0-0.4,0-0.9,0-1.5c0-1,0-1.7,0-2
	c0.1-0.4,0.2-0.6,0.5-0.7c0.2-0.1,0.7-0.1,1.4-0.1c0.4,0,0.8,0,1.1,0c1.3,0,2.2-0.1,2.5-0.1c0.4-0.1,0.6-0.3,0.4-0.5
	c-0.2-0.2-0.6-0.6-1.5-1.2c0,0-0.1,0-0.1-0.1c-0.4-0.3-0.6-0.4-0.7-0.3c-0.1,0-0.3,0.2-0.7,0.6c0,0-0.1,0.1-0.1,0.1
	c0,0.1-0.1,0.2-0.2,0.3c-0.2,0.2-0.3,0.4-0.4,0.5c-0.2,0.1-0.5,0.2-0.9,0.2c-0.3,0-1,0-2.1,0c-0.4,0-0.8,0-1.1,0c-0.2,0-0.5,0-0.9,0
	c-1.3,0-2.2,0-2.5,0c-0.5,0-0.8-0.1-0.9-0.2c0-0.1,0-0.3,0.1-0.6c0-0.1,0.1-0.1,0.1-0.2c0.5-1.4,0.8-2.5,1-3.1
	c0-0.1,0.1-0.3,0.1-0.5c0.1-0.4,0.2-0.6,0.3-0.7c0.2-0.1,0.6-0.2,1.1-0.3c0.4,0,1.4,0,2.9,0c0.8,0,1.5,0,2,0c3,0,4.7,0,5.2,0
	c0.5,0,0.8-0.1,0.9-0.2c0.1-0.1-0.1-0.4-0.4-0.7c-0.4-0.4-0.9-0.8-1.5-1.3c-0.3-0.2-0.4-0.2-0.6-0.2c-0.1,0-0.4,0.3-0.7,0.8
	c0,0.1-0.1,0.2-0.2,0.3c-0.2,0.2-0.3,0.4-0.4,0.5c-0.2,0.1-0.4,0.2-0.9,0.2c-0.3,0-1,0-2,0c-0.4,0-0.8,0-1,0c-0.3,0-0.7,0-1.2,0
	c-1.1,0-1.9,0-2.2,0c-0.4,0-0.7-0.2-0.7-0.3c0-0.1,0-0.4,0.1-0.9c0-0.2,0.1-0.4,0.1-0.5c0.1-0.6,0.2-1.1,0.3-1.6
	c0.1-0.4,0.2-0.6,0.2-0.7c0.1-0.1,0.2-0.2,0.4-0.3c0.2-0.1,0.3-0.1,0.4-0.2c0.1-0.1,0.1-0.2,0-0.2c0,0-0.6-0.1-1.8-0.3
	c-1.2-0.2-1.7-0.3-1.8-0.2c0,0,0,0.4,0,1.2c0,2.5-0.3,3.9-0.7,4.1c-0.2,0.1-1.1,0.1-2.9,0.1c-1.7,0-2.8-0.1-3.3-0.2
	c-0.1,0-0.2,0-0.2,0.1c0,0.1,0.1,0.2,0.2,0.5c0,0,0,0,0,0.1c0.1,0.2,0.2,0.4,0.3,0.4c0.1,0,0.3,0,0.7,0c0.1,0,0.2,0,0.3,0
	C144,29,145,29,146.2,29c0,0,0,0,0.1,0c0.7,0,1.1,0,1.2,0c0.2,0,0.4,0.2,0.4,0.3c0,0.1,0,0.4-0.1,0.9c0,0,0,0.1,0,0.1
	c-0.6,2.6-1.4,4.9-2.4,7.2c-1,2.2-2.2,4-3.5,5.5c0,0.1-0.1,0.2-0.2,0.3c-0.2,0.2-0.3,0.3-0.3,0.3c-0.1,0.1-0.1,0.2-0.1,0.3
	c0.1,0.1,0.1,0.1,0.2,0c0.1,0,0.3-0.2,0.6-0.4c2.3-1.8,4.2-4.3,5.7-7.4c0,0,0,0,0-0.1c0.2-0.5,0.4-0.7,0.6-0.8s0.7-0.1,1.6-0.1
	c0.1,0,0.2,0,0.3,0c0.2,0,0.4,0,0.7,0c0.5,0,0.9,0,1,0.1c0.2,0.1,0.3,0.3,0.4,0.7c0,0.3,0,0.9,0,2c0,0.6,0,1,0,1.4
	c0,0.2,0,0.4,0,0.7c0,1.6,0,2.6,0,2.9c0,0.3-0.1,0.4-0.2,0.5l0,0c-0.2,0.1-1.2,0.1-3.2,0c-2,0-3.2-0.1-3.6-0.1
	c-0.1,0-0.2,0.1-0.1,0.3C145.3,44,145.5,44.3,145.7,44.5z M174.8,45.2c0.2,0,0.5,0,0.8,0c0.4,0,0.6-0.1,0.8-0.2
	c0.2-0.1,0.3-0.2,0.3-0.3c0-0.1,0.1-0.3,0.1-0.6c0,0,0-0.1,0-0.2c0-0.3,0-0.4,0.1-0.5c0.1-0.1,0.4-0.2,0.9-0.2c0.3,0,1.1,0,2.3,0
	c0.4,0,0.8,0,1.1,0c0.3,0,0.6,0,1,0c1.3,0,2.1,0,2.4,0c0.5,0,0.8,0.1,0.9,0.2c0.1,0.1,0.1,0.3,0.1,0.6c0,0.1,0,0.2,0,0.2
	c0,0.5,0.1,0.8,0.2,0.9c0.2,0.1,0.6,0.1,1.2-0.1c0.5-0.1,0.8-0.3,0.9-0.5c0.1-0.1,0.1-0.5,0.1-1.1c-0.1-1.5-0.1-3.1-0.1-4.8
	c0-1.8,0-2.7,0.1-2.8c0.1-0.2,0.2-0.3,0.4-0.4c0.3-0.1,0.4-0.2,0.3-0.3c0-0.1-0.2-0.4-0.6-0.7c-0.7-0.7-1.1-1-1.3-1.1
	c-0.2,0-0.5,0.2-0.8,0.6c0,0-0.1,0.1-0.1,0.2c-0.1,0.2-0.3,0.3-0.4,0.4c-0.2,0.1-0.5,0.1-0.9,0.1c-0.3,0-1,0-2.2,0c-0.5,0-1,0-1.3,0
	c-2,0-3.2,0-3.6,0c-0.4,0-0.6-0.1-0.8-0.1c-0.5-0.2-0.8-0.3-0.9-0.5c-0.1-0.2,0-0.4,0.2-0.8c0.8-1.3,1.3-2.4,1.7-3.1
	c0.3-0.5,0.5-0.9,0.6-1c0.1,0,2.1-0.1,6-0.1c3,0,4.8,0,5.3,0c0.5,0,0.8-0.1,0.9-0.2c0.1-0.2-0.4-0.8-1.5-1.7l0,0
	c-0.4-0.4-0.7-0.5-0.9-0.5c-0.1,0-0.4,0.2-0.7,0.7c0,0-0.1,0.1-0.1,0.1c0,0.1-0.1,0.2-0.2,0.3c-0.2,0.3-0.4,0.5-0.5,0.6
	c-0.2,0.1-0.5,0.2-0.9,0.2c-0.3,0-1,0-2,0c-0.5,0-0.8,0-1.1,0c-0.2,0-0.5,0-0.9,0c-1.2,0-2,0-2.3,0c-0.4,0-0.7-0.1-0.8-0.3
	c0-0.1,0-0.4,0.2-0.8c0-0.1,0.1-0.2,0.1-0.3c0,0,0-0.1,0.1-0.3c0.2-0.5,0.3-0.9,0.3-1.1c0.2-0.6,0.3-0.9,0.4-1.1
	c0.1-0.2,0.2-0.3,0.4-0.4c0.3-0.1,0.3-0.3,0-0.4c-0.3-0.1-1-0.4-2.1-0.6c0,0-0.1,0-0.2,0c-0.4-0.1-0.6-0.1-0.6-0.1
	c-0.1,0-0.1,0.1-0.1,0.4c0,0.1,0,0.1,0,0.1c-0.1,1.2-0.2,2.3-0.5,3.3c-0.3,1-0.5,1.6-0.7,1.7c-0.2,0.1-1,0.1-2.5,0.1
	c-1.5,0-2.8,0-3.7-0.1c-0.3,0-0.4,0-0.5,0c0,0,0.1,0.2,0.2,0.5c0,0,0,0,0,0.1c0.1,0.2,0.2,0.4,0.3,0.4c0.1,0,0.3,0,0.6,0
	c0.1,0,0.1,0,0.2,0c0.8-0.1,1.7-0.2,2.9-0.2c1.2,0,1.8,0,2,0c0.3,0.2,0.2,0.8-0.3,2c-0.5,1.1-1.2,2.4-2.1,3.8
	c-1,1.5-1.9,2.7-2.9,3.6c-0.5,0.5-0.8,0.8-0.8,0.9c-0.1,0.1-0.1,0.2,0.1,0.2c0.2,0,0.7-0.3,1.5-0.9c0.8-0.7,1.6-1.3,2.3-2
	c0,0,0.1-0.1,0.1-0.1c0.5-0.4,0.8-0.7,0.9-0.8c0.2-0.1,0.3,0,0.3,0.3c0,0.2,0,0.8,0,1.6c0,0.1,0,0.2,0,0.3c0,1.9,0,3.6-0.1,5.3
	c0,0.8-0.1,1.4,0,1.5C174.5,45.1,174.6,45.2,174.8,45.2z M181.2,42.5c-2.6,0-4,0-4.2-0.1c-0.1-0.1-0.2-0.3-0.2-0.6
	c0-0.3,0-1.2,0-2.9c0-0.3,0-0.7,0-1.2c0-0.9,0-1.4,0.1-1.7c0.1-0.3,0.3-0.5,0.7-0.6c0.3-0.1,1-0.1,2.1-0.1c0.6,0,1.2,0,1.5,0
	c0.4,0,0.9,0,1.5,0c1.1,0,1.8,0,2.1,0.1c0.4,0.1,0.7,0.3,0.8,0.6c0.1,0.2,0.1,0.8,0.1,1.6c0,0.5,0,0.9,0,1.2c0,1.6,0,2.6,0,2.9
	c0,0.3-0.1,0.5-0.2,0.6C185.3,42.4,183.9,42.4,181.2,42.5z M203.5,45.2c0.1,0,0.3,0,0.8-0.1c0.8-0.2,1.3-0.6,1.5-1.2
	c0-0.2,0.1-1.5,0.1-4c0-0.2,0-0.5,0-0.8c0-1.2,0-1.9,0-2.3c0-0.4,0.1-0.8,0.1-0.9c0-0.1,0.2-0.2,0.3-0.3c0.1,0,0.1-0.1,0.1-0.1
	c0.3-0.2,0.5-0.3,0.6-0.2c0.1,0,0.2,0.3,0.3,0.6c0,0.4,0,1,0,1.9c0,0.8,0,1.2,0,1.4c0,0.1,0.1,0.2,0.2,0.3c0.2,0.1,0.5,0,0.8-0.1
	s0.5-0.2,0.5-0.4c0-0.2,0.1-0.3,0.4-0.4c0.3-0.1,0.5-0.1,0.7,0.1c0.2,0.1,0.3,0.5,0.3,1.1s-0.1,1-0.3,1.2c-0.1,0.1-0.6,0.2-1.4,0.3
	c-0.8,0.1-1.4,0.1-1.8,0.1c-0.1,0-0.2,0.1-0.1,0.2c0,0.1,0.2,0.4,0.4,0.9c0.3,0.6,0.4,0.9,0.5,1c0.1,0.1,0.2,0,0.4-0.1
	c0.1-0.1,0.3-0.2,0.5-0.3c0.2-0.1,0.6-0.2,1.2-0.4c0.2-0.1,0.6-0.2,1.1-0.3c0.5-0.2,0.9-0.3,1.1-0.4c0.7-0.2,1.2-0.4,1.4-0.3
	c0.2,0,0.3,0.2,0.5,0.5c0.1,0.2,0.2,0.4,0.5,0.5c0.3,0.1,0.5,0,0.6-0.2c0.3-0.3,0.4-0.6,0.2-1.1c-0.1-0.4-0.4-0.8-0.9-1.2
	c-0.2-0.2-0.4-0.3-0.5-0.4c-0.2-0.2-0.3-0.2-0.5-0.2c-0.1,0-0.3,0-0.4,0c-0.2,0-0.2,0.1,0,0.4c0.2,0.2,0.2,0.5,0.1,0.7
	c-0.1,0.2-0.2,0.3-0.4,0.4c-0.2,0-0.4-0.1-0.6-0.3c-0.2-0.3-0.3-0.6-0.2-0.9c0-0.4,0.2-0.6,0.4-0.9c0.2-0.2,0.5-0.3,0.7-0.1
	c0.1,0.1,0.3,0.2,0.4,0.5c0.1,0.1,0.2,0.1,0.6,0c0.5-0.1,0.7-0.2,0.8-0.4c0.1-0.1,0.1-0.5,0.1-1c-0.1-1-0.1-1.6,0-2
	c0.1-0.3,0.2-0.6,0.5-0.7c0.2-0.1,0.3-0.2,0.2-0.3c0-0.1-0.2-0.3-0.4-0.5c-0.4-0.4-0.7-0.6-0.9-0.6c-0.2,0-0.4,0.1-0.6,0.3
	c-0.5,0.5-1,0.7-1.4,0.4c-0.2-0.1-0.2-0.2-0.3-0.4c0-0.2,0.1-0.4,0.2-0.5c0.2-0.1,0.2-0.2,0.1-0.4c-0.1-0.1-0.5-0.3-1.1-0.6
	c-0.4-0.1-0.6-0.2-0.7-0.2c0,0-0.1,0.2,0,0.4c0.1,0.7,0,1.2-0.2,1.4c-0.2,0.2-0.5,0.3-1,0.1c-0.4-0.1-0.6-0.3-0.5-0.5
	c0-0.2,0.3-0.6,0.7-1.2c0,0,0.1-0.1,0.1-0.2c0.3-0.4,0.5-0.6,0.8-0.6c0.3-0.1,1-0.1,2.2-0.1c0.3,0,0.5,0,0.6,0c0.2,0,0.5,0,0.9,0
	c0.8,0,1.3,0,1.5,0c0.3,0.1,0.5,0.2,0.6,0.5c0,0.2,0,0.7,0,1.5c0,0.4,0,0.7,0,0.9c0,2.1-0.1,3.7-0.2,4.6c-0.1,0.9-0.2,1.6-0.4,2.3
	c-0.2,0.6-0.4,1-0.7,1.1c-0.3,0.1-0.9,0.1-2,0c-0.4,0-0.7,0-0.8,0c-0.1,0-0.2,0-0.2,0.1c0,0.1,0.2,0.2,0.6,0.3
	c1.1,0.3,1.7,0.8,1.7,1.6c0,0.1,0,0.2,0.1,0.2c0.1,0,0.3,0,0.6,0c0.9-0.1,1.5-0.4,1.9-0.9c0.4-0.6,0.7-1.6,0.9-3
	c0.2-1.3,0.3-3.4,0.4-6.4c0-1.2,0.1-1.9,0.1-2.2c0.1-0.3,0.2-0.5,0.4-0.5c0,0,0.1,0,0.2-0.1c0.1-0.1,0.2-0.2,0.2-0.2
	c0-0.1-0.2-0.3-0.5-0.6c-0.4-0.4-0.7-0.6-1-0.8c-0.3-0.2-0.4-0.3-0.4-0.3c0,0,0.1-0.1,0.2-0.2c0.1-0.1,0.2-0.2,0.3-0.2
	c0.2-0.1,0.3-0.2,0.3-0.3c0-0.1,0-0.4,0-1c-0.1-1.1-0.1-1.9,0-2.3c0-0.4,0.2-0.7,0.4-0.8c0.3-0.2,0.4-0.3,0.3-0.4
	c0-0.1-0.3-0.4-0.7-0.7c-0.4-0.4-0.7-0.6-0.9-0.6c-0.2-0.1-0.3,0.1-0.6,0.4c0,0-0.1,0.1-0.1,0.2c-0.2,0.3-0.4,0.5-0.7,0.5
	c-0.3,0-1,0.1-2.4,0.1c-0.4,0-0.6,0-0.8,0c-0.2,0-0.4,0-0.8,0c-1.3,0-2,0-2.3,0s-0.6-0.1-1.1-0.3c-0.1-0.1-0.3-0.1-0.4-0.1l0,0
	c-0.4-0.2-0.7-0.3-0.7-0.3c-0.1,0-0.1,0.1-0.1,0.3c0.1,0.9,0.1,1.9,0.1,3c0,1.1,0,1.7-0.1,1.9c-0.1,0.1-0.2,0.2-0.3,0.2
	c-0.1,0-0.3-0.1-0.6-0.3c-0.4-0.3-0.8-0.5-1-0.6c-0.2-0.1-0.3,0-0.5,0.1c-0.3,0.4-0.5,0.6-0.7,0.7c-0.2,0.1-0.4,0.1-0.6,0.1
	c-0.5-0.1-0.5-0.4,0-0.9c0.1-0.1,0.2-0.3,0.5-0.6c0.1-0.1,0.2-0.2,0.2-0.3c0.3-0.4,0.6-0.6,0.7-0.7s0.3-0.2,0.6-0.2
	c0.2-0.1,0.4-0.2,0.3-0.3s-0.2-0.3-0.5-0.6c-0.5-0.5-0.9-0.8-1.1-0.9c-0.2-0.1-0.4,0-0.6,0.3c-0.3,0.4-0.7,0.6-1.1,0.7
	c-0.4,0.1-0.6,0-0.7-0.2c-0.1-0.2,0-0.6,0.2-0.9c0.1-0.2,0.2-0.2,0.3-0.2c0.6-0.2,0.1-0.5-1.4-1.1c0,0-0.1,0-0.2-0.1
	c-0.4-0.1-0.6-0.2-0.6-0.1c-0.1,0-0.1,0.1-0.1,0.4c0,0,0,0.1,0,0.1c-0.1,1.1-0.4,2.3-0.8,3.6s-0.9,2.5-1.5,3.6
	c-0.2,0.3-0.3,0.6-0.3,0.6c0,0.1,0,0.1,0.1,0.1c0.1,0,0.2-0.1,0.4-0.3c0.3-0.3,0.6-0.4,0.7-0.2c0.1,0.1,0.1,1.2,0.1,3.4
	c0,2.2,0,3.6-0.1,4.4c-0.2,2.5-0.5,4.5-1.2,6c-0.1,0.2-0.1,0.4,0,0.4c0.1,0.1,0.2,0,0.4-0.2c0.5-0.6,1-1.4,1.4-2.4
	c0.4-1,0.7-2.2,0.9-3.4c0,0,0-0.1,0-0.2c0.1-0.5,0.2-0.8,0.3-0.9s0.6-0.1,1.4-0.1c0.2,0,0.3,0,0.4,0c0.1,0,0.3,0,0.6,0
	c0.6,0,1,0,1.1,0c0.2,0,0.4,0.2,0.4,0.5c0,0.2,0.1,0.6,0,1.3c0,0.3,0,0.5,0,0.7c0,0.1,0,0.2,0,0.3c0,0.9,0,1.5,0,1.7
	c0,0.3-0.2,0.5-0.4,0.6c-0.1,0-0.5,0-1,0c-0.1,0-0.2,0-0.2,0c-0.5,0-0.8,0-0.9,0c-0.1,0-0.1,0-0.1,0.1c0,0.1,0,0.1,0.1,0.1
	c0,0,0.2,0.1,0.5,0.1c0.8,0.2,1.3,0.7,1.5,1.4c0,0,0,0,0,0.1C203.5,45.1,203.5,45.2,203.5,45.2z M209.8,37.8c-0.7,0.3-1,0-1-1.1
	c0-0.6,0.1-1,0.2-1.3c0.2-0.2,0.5-0.3,0.8,0c0.2,0.1,0.3,0.6,0.3,1.2C210.2,37.3,210,37.7,209.8,37.8z M212.6,37.8
	c-0.4,0.2-0.7,0.1-1-0.3c-0.2-0.4-0.2-1-0.1-1.7c0.1-0.4,0.3-0.5,0.7-0.5c0.4,0,0.6,0.2,0.7,0.5c0.1,0.4,0.1,0.8,0,1.2
	C212.9,37.5,212.8,37.8,212.6,37.8z M203.9,37.1c-0.2,0.1-0.3,0.1-0.6,0.1c-0.2-0.1-0.3-0.2-0.4-0.3c-0.1-0.1-0.1-0.6-0.1-1.4
	c0-0.8,0.1-1.3,0.1-1.4c0.1-0.2,0.3-0.3,0.4-0.3c0.2,0,0.3,0,0.5,0.1c0.2,0.1,0.3,0.7,0.3,1.6C204.2,36.5,204.1,37,203.9,37.1z
	 M201.1,37.1c-0.2,0.1-0.4,0.1-0.6,0.1c-0.2-0.1-0.3-0.2-0.4-0.3c0-0.1,0-0.6,0-1.3c0-0.8,0-1.3,0.1-1.5c0.1-0.2,0.3-0.3,0.5-0.3
	c0.3,0,0.5,0.1,0.5,0.3c0.1,0.2,0.1,0.7,0.1,1.6c0,0.6,0,0.9-0.1,1.1C201.3,36.9,201.2,37,201.1,37.1z M206.5,34.3
	c-0.3,0.3-0.4,0.3-0.5,0.1c-0.1-0.1-0.1-0.8-0.1-2.1c0-1.3,0-2,0.1-2.1c0.1-0.2,0.3-0.3,0.5-0.4s0.4,0,0.5,0.1
	c0.1,0.1,0.2,0.1,0.3,0.1c0.1,0,0.4,0,0.8-0.1c0.3,0,0.4,0.1,0.4,0.4c0,0.3-0.3,0.9-0.8,1.9C207.2,33.3,206.8,34,206.5,34.3z
	 M203.8,33c-0.4,0.2-0.6,0.2-0.8,0c-0.2-0.3-0.2-0.8-0.2-1.5c0-0.8,0.1-1.3,0.2-1.5c0.1-0.2,0.4-0.3,0.8-0.1
	c0.2,0.1,0.3,0.6,0.3,1.5C204.2,32.3,204.1,32.9,203.8,33z M200.7,33.1c-0.3,0-0.4-0.1-0.5-0.3c-0.1-0.2-0.1-0.7-0.1-1.3
	c0-0.8,0.1-1.2,0.2-1.5c0.2-0.2,0.4-0.2,0.7,0c0.2,0.1,0.3,0.6,0.3,1.5c0,0.9-0.1,1.4-0.3,1.5C200.9,33,200.8,33.1,200.7,33.1z
	 M215.4,31.3c-0.1,0-0.9,0-2.4,0s-2.2,0-2.3-0.1c-0.2-0.1-0.3-0.3-0.1-0.6c0.1-0.3,0.3-0.5,0.6-0.6c0.3-0.1,0.4-0.2,0.1-0.4
	c-0.3-0.2-0.3-0.4,0-0.4c0.3-0.1,1-0.1,2.1-0.1c1.1,0,1.7,0,1.9,0.1c0.2,0,0.3,0.2,0.3,0.4c0,0.1,0,0.2,0,0.2c0,0,0.1,0,0.3,0
	c0.4,0.1,0.6,0.1,0.6,0.2c0,0.1-0.2,0.3-0.5,0.6C215.8,31.1,215.6,31.2,215.4,31.3z M201.4,29.1c-0.2,0-0.5,0.1-0.7,0
	c-0.3,0-0.5-0.1-0.6-0.2c-0.2-0.1-0.3-0.3-0.3-0.4c0-0.2,0.2-0.5,0.5-1.1c0.3-0.6,0.5-0.9,0.7-1c0.1-0.1,0.4-0.2,0.8-0.2
	c0.4,0,0.6,0,0.7,0.1c0.1,0.1,0.2,0.3,0.1,0.6c0,0.3-0.2,0.7-0.5,1.5C201.9,28.8,201.7,29,201.4,29.1z M215.4,28.4
	c-0.8,0.5-1.1,0-1.1-1.5c0-0.7,0-1.2,0.1-1.3c0.1-0.2,0.3-0.3,0.6-0.3c0.3,0,0.5,0.1,0.6,0.3c0.1,0.2,0.1,0.6,0.1,1.3
	c0,0.6,0,1,0,1.2C215.6,28.2,215.5,28.3,215.4,28.4z M209.8,28.4c-0.2,0.1-0.5,0.2-0.7,0s-0.4-0.3-0.4-0.6c-0.1-0.8-0.1-1.5,0-1.9
	c0.1-0.5,0.4-0.7,0.7-0.7c0.3,0,0.5,0.1,0.6,0.3s0.1,0.6,0.1,1.4c0,0.6,0,1,0,1.2C210,28.2,209.9,28.3,209.8,28.4z M212.5,28.4
	c-0.2,0.1-0.4,0.1-0.6,0.1c-0.2,0-0.4-0.1-0.5-0.3c-0.1-0.1-0.1-0.6-0.1-1.3c0-0.8,0.1-1.2,0.1-1.3c0.1-0.1,0.2-0.2,0.5-0.3
	c0.2,0,0.4,0,0.6,0.1c0.3,0.1,0.4,0.6,0.4,1.5C212.9,27.8,212.8,28.3,212.5,28.4z M227.3,45.2c0,0,0.1,0.1,0.3,0c0.1,0,0.1,0,0.2,0
	c1-0.2,1.7-0.6,1.9-1.1l0,0c0.1-0.3,0.2-0.6,0.2-1c0-0.4,0.1-1.7,0.1-3.8c0-2.7,0-4.1,0.1-4.2c0.1-0.2,0.5-0.5,1.2-0.9
	c1.1-0.7,1.6-1.1,1.6-1.2c0-0.1-0.1-0.1-0.2-0.1s-0.4,0.1-1,0.3c-0.1,0-0.1,0-0.2,0.1c-0.5,0.2-0.9,0.3-1,0.2
	c-0.2,0-0.3-0.1-0.4-0.4c0-0.2-0.1-0.6-0.1-1.3c0-0.2,0-0.3,0-0.4c0-0.1,0-0.3,0-0.6c0-0.7,0-1.1,0-1.2c0-0.2,0.2-0.4,0.3-0.5
	c0.1,0,0.5,0,1,0c0.2,0,0.3,0,0.4,0c0,0,0.1,0,0.1,0c0.7,0,1.2,0,1.3,0.1c0.1,0.1,0.2,0.3,0.3,0.7c0,0,0,0.1,0,0.1
	c0,0.3,0,1.4,0,3.2c0,1.8,0,2.9,0,3.3c0,0.5,0,0.8,0.1,0.9c0.1,0.1,0.4,0.1,0.9,0c0.7-0.2,1.1-0.4,1.1-0.7c0-0.4,0.3-0.6,0.8-0.7
	c0.6-0.1,1,0,1.1,0.4c0.1,0.3,0.1,0.7,0,1.3c-0.1,0.6-0.2,1-0.4,1.1c-0.1,0-0.8,0.1-2.2,0c-1.3,0-2.3,0-2.8-0.1c-0.4,0-0.6,0-0.6,0
	c0,0,0,0.2,0.2,0.5c0,0,0,0.1,0,0.1c0.1,0.3,0.2,0.4,0.3,0.4c0.1,0,0.2,0,0.4,0h0.1c0.6-0.1,1.4-0.2,2.3-0.2c1-0.1,1.6-0.1,1.8,0
	c0.5,0.1,0.5,0.6,0,1.5c-0.9,1.6-2.7,2.8-5.3,3.8c-0.4,0.2-0.7,0.3-0.8,0.3c0,0,0,0.1,0,0.2c0,0.1,0.2,0.1,0.4,0
	c0.2,0,0.7-0.1,1.4-0.3c1.8-0.5,3.2-1.1,4.2-1.8c1.1-0.7,1.9-1.6,2.4-2.6c0.2-0.4,0.4-0.6,0.5-0.6c0.1,0,0.3,0.2,0.4,0.6
	c0.9,2.2,2.4,3.7,4.5,4.4c0.2,0.1,0.4,0.1,0.4,0.1c0.1,0,0.1-0.1,0.1-0.3c0.1-0.8,0.6-1.4,1.4-1.7c0.3-0.1,0.4-0.2,0.3-0.3
	c0,0-0.3-0.1-0.8-0.2c-1.5-0.3-2.8-0.8-4-1.4c-1.2-0.6-1.7-1.2-1.7-1.7c0-0.1,0.1-0.2,0.1-0.2c0.1,0,0.4-0.1,0.8-0.1
	c0.3,0,1,0,2.1,0c1.3,0,2.2,0,2.5-0.1c0.5,0,0.7-0.2,0.6-0.3c0-0.1-0.3-0.4-0.8-0.9c-0.5-0.5-0.8-0.7-1-0.8
	c-0.2-0.1-0.4-0.2-0.5-0.1c-0.1,0.1-0.3,0.3-0.5,0.6c0,0-0.1,0.1-0.1,0.2c-0.3,0.4-0.5,0.7-0.7,0.7c-0.1,0.1-0.5,0.1-1.2,0.1
	c-0.1,0-0.2,0-0.3,0c0,0-0.1,0-0.2,0c-0.7,0-1.1-0.1-1.2-0.2c-0.1-0.1-0.1-0.5,0-1.1c0-0.1,0-0.1,0-0.2c0.1-0.6,0.2-1,0.3-1.1
	c0.1-0.1,0.4-0.2,1-0.2c0.5,0,0.8,0.1,1,0.2c0.2,0.1,0.3,0.3,0.3,0.6c0,0.2,0,0.3,0.1,0.3c0.1,0,0.2,0,0.4,0
	c0.8-0.1,1.2-0.3,1.4-0.5c0.2-0.2,0.3-0.7,0.3-1.4c-0.1-2-0.1-3.3,0-3.8c0.1-0.6,0.2-0.9,0.5-1.1c0.2-0.1,0.3-0.3,0.2-0.5
	c-0.1-0.2-0.4-0.4-0.9-0.8c-0.5-0.4-0.8-0.6-1-0.6c-0.1,0-0.3,0.1-0.6,0.4c0,0-0.1,0.1-0.1,0.2c-0.2,0.3-0.4,0.4-0.7,0.5
	c-0.2,0-1,0-2.2,0c-0.4,0-0.7,0-0.9,0c-1.5,0-2.4,0-2.7,0c-0.3,0-0.6,0-0.7-0.1c-0.8-0.3-1.5-0.6-1.9-0.8s-0.8-0.5-1.1-0.8
	c-0.5-0.5-0.8-0.7-0.9-0.7c-0.1,0-0.3,0.2-0.6,0.5c-0.2,0.4-0.4,0.6-0.6,0.7c-0.1,0.1-0.2,0.1-0.3,0c0,0-0.1-0.2-0.1-0.3
	c0-0.2,0-0.6,0-1.4c0-0.9,0-1.4,0-1.6c0-0.2,0.1-0.4,0.3-0.5c0.3-0.2,0.2-0.4-0.1-0.5c-0.3-0.2-1-0.4-2.1-0.6l0,0
	c-0.3-0.1-0.4-0.1-0.4,0c0,0,0,0.3,0,0.6c0.1,0.9,0.2,1.8,0.2,2.7c0,1,0,1.5-0.1,1.6c-0.1,0.2-0.3,0.3-0.6,0.3c-0.3,0-0.9,0-1.7-0.1
	c0,0,0,0-0.1,0c-0.3,0-0.4,0-0.5,0c0,0,0,0.2,0.1,0.4c0,0,0,0.1,0,0.1c0,0,0,0,0,0.1c0.1,0.2,0.2,0.4,0.2,0.4c0.1,0,0.2,0,0.5-0.1
	c0,0,0.1,0,0.1,0c0.7-0.2,1.1-0.2,1.3-0.2c0.3,0.1,0.5,0.3,0.6,0.7c0.1,0.3,0.1,1,0.1,2c0,0.1,0,0.3,0,0.6c0,0.8,0,1.3-0.1,1.5
	c-0.1,0.3-0.3,0.5-0.6,0.7c-0.2,0.1-0.8,0.3-1.6,0.5c-0.3,0.1-0.5,0.1-0.7,0.2c-0.1,0-0.2,0.1-0.2,0.2c0,0.1,0.1,0.5,0.3,1.1
	c0,0,0,0.1,0,0.1c0.3,0.8,0.4,1.2,0.5,1.3c0.1,0.1,0.2,0,0.3-0.2s0.4-0.5,0.9-0.7c0.4-0.2,0.7-0.3,0.9-0.2c0.1,0.1,0.2,0.2,0.2,0.5
	c0,0.2,0,1,0,2.4c0,0.1,0,0.3,0,0.6c0,1.1,0,1.8,0,2c-0.1,0.4-0.2,0.6-0.4,0.7c-0.2,0-0.6,0-1.2,0c-0.1,0-0.2,0-0.3,0
	c-0.5,0-0.7,0-0.8,0c-0.1,0.1,0,0.2,0.4,0.3c0.5,0.1,0.8,0.3,1.1,0.6c0.3,0.3,0.4,0.7,0.6,1.2C227.2,45,227.3,45.2,227.3,45.2z
	 M238.9,35.2c-2,0-3,0-3.1-0.1c-0.2-0.2-0.3-0.5-0.3-1.1c0-0.6,0.2-0.9,0.4-1c0.1-0.1,1.1-0.1,3-0.1c1.9,0,2.9,0,3,0.1
	c0.2,0.1,0.4,0.5,0.4,1c0,0.5-0.1,0.9-0.3,1.1C241.9,35.2,240.9,35.2,238.9,35.2z M238.9,32.2c-2,0-3,0-3.1-0.1
	c-0.2-0.2-0.3-0.5-0.3-1.1c0-0.6,0.2-0.9,0.4-1c0.1-0.1,1.1-0.1,3-0.1c1.9,0,2.9,0,3,0.1c0.2,0.1,0.4,0.5,0.4,1
	c0,0.5-0.1,0.9-0.3,1.1C241.9,32.2,240.9,32.2,238.9,32.2z M235.6,28.5c0.1,0.1,0.4,0,0.9-0.1c0.4-0.1,0.8-0.2,0.9-0.4
	c0.1-0.1,0.1-0.1,0.1-0.2c0,0,0-0.2,0-0.5c0-0.4,0.1-0.7,0.2-0.8c0.1-0.1,0.5-0.1,1.2-0.1c0.6,0,1,0,1.2,0.1s0.2,0.4,0.2,0.9
	c0,0.3,0,0.6,0,0.6s0.1,0.2,0.2,0.2c0.2,0.1,0.6,0,1-0.1c0.5-0.2,0.7-0.4,0.7-0.5v-0.1c0-0.2,0-0.3,0-0.4c0-0.4,0.1-0.6,0.3-0.6
	c0.2-0.1,0.8-0.1,1.8-0.1c1.2,0,1.8-0.1,1.9-0.3s-0.2-0.6-1-1.3c-0.4-0.4-0.7-0.6-0.9-0.6c-0.1,0-0.4,0.2-0.7,0.7l0,0
	c-0.4,0.6-0.8,0.8-1.1,0.6c-0.2-0.1-0.3-0.3-0.3-0.7c0-0.4,0.2-0.6,0.4-0.8c0.2-0.2,0.2-0.3,0-0.5c-0.2-0.1-0.8-0.3-1.7-0.6
	c-0.4-0.1-0.6-0.2-0.7-0.1c-0.1,0-0.1,0.1-0.1,0.4c0.2,1.3,0.1,2-0.1,2.2c-0.1,0.1-0.5,0.1-1.1,0.1c-0.6,0-1,0-1.1-0.1
	c-0.2-0.1-0.3-0.4-0.3-0.7c0-0.4,0.2-0.6,0.4-0.8c0.2-0.2,0.1-0.3-0.1-0.5c-0.3-0.1-0.8-0.3-1.7-0.6c0,0,0,0-0.1,0
	c-0.3-0.1-0.5-0.1-0.6-0.1c0,0-0.1,0.2,0,0.5v0.1c0.1,0.8,0.1,1.4,0,1.6c-0.1,0.3-0.4,0.5-0.8,0.6c-0.4,0-1.1,0-2.2-0.1
	c-0.2,0-0.2,0-0.3,0c0,0,0.1,0.2,0.2,0.6c0,0,0,0,0,0.1c0.1,0.2,0.2,0.4,0.3,0.4c0.1,0,0.3,0,0.6-0.1h0c0.8-0.2,1.4-0.2,1.7-0.1
	c0.3,0.1,0.4,0.4,0.4,1C235.4,28.1,235.5,28.4,235.6,28.5z M272.9,45.2c0.5,0.1,0.8-0.1,1.1-0.5c0.3-0.4,0.3-0.9,0.2-1.6
	c-0.3-1.7-1.7-3.1-4.1-4.3c-0.6-0.3-1-0.4-1.1-0.4c-0.1,0,0,0.2,0.3,0.6c0.8,1.1,1.3,1.8,1.4,2.1c0.1,0.3-0.2,0.5-0.7,0.6
	c-0.5,0-1.3,0.1-2.6,0.1c-1.3,0-2,0-2.1,0c-0.3,0-0.4-0.1-0.4-0.3c0-0.2,0.2-0.5,0.6-1c1.9-2.2,3.6-4.6,5.3-7.3
	c0.3-0.4,0.5-0.7,0.8-0.7c0.3-0.1,0.3-0.2,0-0.4c-0.3-0.2-0.9-0.5-1.9-1c0,0,0,0-0.1,0c-0.3-0.1-0.5-0.2-0.5-0.1
	c-0.1,0-0.1,0.2-0.2,0.5c0,0,0,0.1,0,0.1c-0.6,1.9-2.1,4.9-4.4,9.1c0,0-0.1,0.1-0.1,0.2c-0.3,0.5-0.6,0.8-0.7,0.9
	c-0.2,0.1-0.7,0.1-1.5,0.1c-0.1,0-0.2,0-0.3,0c-0.1,0-0.3,0-0.5,0c-0.6,0-1,0-1,0.1s0,0.4,0.2,0.8c0.1,0.2,0.1,0.3,0.2,0.4
	c0.3,0.8,0.5,1.3,0.6,1.4c0.1,0.1,0.2,0.1,0.4-0.1c0.1-0.1,0.3-0.2,0.6-0.3c0.3-0.1,0.9-0.2,1.8-0.4c1.3-0.3,2.8-0.6,4.5-1
	c0.4-0.1,0.6-0.1,0.8-0.2c0.8-0.2,1.3-0.3,1.5-0.3c0.3,0,0.6,0.1,0.7,0.4c0.1,0.2,0.3,0.7,0.5,1.5c0.1,0.3,0.2,0.6,0.3,0.7
	C272.4,45.1,272.6,45.2,272.9,45.2z M255.8,45.2c0.1,0.1,0.3,0.1,0.7,0c0.4-0.1,0.8-0.2,1.1-0.3c0.7-0.4,1.3-1.1,1.6-2.2
	c0.4-1.2,0.6-3,0.8-5.4c0-0.7,0.1-1.1,0.2-1.3c0.1-0.2,0.2-0.3,0.5-0.5c0.3-0.1,0.3-0.3,0.2-0.5c-0.1-0.2-0.5-0.5-1-1
	c-0.4-0.3-0.6-0.5-0.7-0.5s-0.3,0.2-0.6,0.5c-0.3,0.3-0.5,0.5-0.7,0.6c-0.2,0-0.6,0.1-1.2,0.1c0,0-0.1,0-0.2,0c-0.5,0-0.8,0-0.9-0.1
	c-0.2-0.1-0.3-0.2-0.3-0.5c0-0.2,0-0.6,0.1-1.3c0-0.1,0-0.2,0-0.2c0-0.1,0-0.2,0-0.3c0.1-0.7,0.1-1.2,0.1-1.3
	c0.1-0.3,0.2-0.4,0.3-0.5c0.1,0,0.4-0.1,0.8-0.1c0.1,0,0.1,0,0.2,0c0.5,0,0.9,0,1,0.1c0.2,0.1,0.2,0.3,0.2,0.6
	c0,0.2,0.2,0.3,0.5,0.3c0.3,0,0.7-0.1,1.2-0.3l0,0c0.2-0.1,0.3-0.2,0.4-0.3c0-0.1,0.1-0.4,0-1c0-0.1,0-0.1,0-0.2c0-0.9,0-1.4,0-1.7
	c0.1-0.2,0.3-0.2,0.5,0.2c0.1,0.1,0.1,0.2,0.2,0.2c0,0,0.2,0,0.4,0c0.1,0,0.1,0,0.1,0c0.9-0.1,1.8-0.2,2.5-0.2c0.6,0,0.9,0,1,0.1
	c0.2,0.1,0.3,0.3,0.2,0.6c0,0.2-0.2,0.7-0.5,1.5c-0.4,1-0.6,1.6-0.7,1.9c-0.2,0.4-0.3,0.6-0.5,0.6c-0.1,0-0.3,0-0.7-0.2
	c-1.7-0.7-2.3-0.7-1.5,0c1.2,1.2,2.1,2.5,2.5,3.8c0.1,0.3,0.2,0.5,0.3,0.6s0.3,0.2,0.6,0.2c0.6,0,1-0.4,1-1.1
	c0.1-0.7-0.2-1.4-0.8-2.1c-0.3-0.3-0.4-0.6-0.4-0.7c0-0.2,0.2-0.5,0.6-0.9c0.8-1,1.5-1.7,1.9-2.3c0.4-0.5,0.7-0.8,1-1
	c0.3-0.1,0.3-0.3,0-0.4c-0.3-0.1-0.4-0.3-0.3-0.4c0.1-0.1,0.3-0.1,0.6-0.2c0.4,0,1.3,0,2.7,0c1.4,0,2.3,0,2.7-0.1
	c0.5-0.1,0.6-0.2,0.5-0.5c-0.1-0.2-0.6-0.6-1.4-1.3l0,0c-0.4-0.4-0.7-0.6-0.9-0.6c-0.1,0-0.4,0.2-0.7,0.7l0,0
	c-0.4,0.5-0.6,0.8-0.8,0.9s-0.5,0.1-1.1,0.1c-0.6,0-1-0.1-1.1-0.2s-0.2-0.6-0.2-1.3c0-0.6,0-1,0-1.1c0-0.2,0.1-0.3,0.3-0.5
	c0.2-0.2,0.2-0.3,0.1-0.4s-0.5-0.2-1.1-0.4c-1.3-0.4-1.9-0.4-1.9-0.2c0.1,0.2,0.1,0.8,0.2,2c0,1.1,0,1.7,0,1.8
	c-0.1,0.2-0.6,0.3-1.5,0.3s-2,0-3.4-0.1c-0.3,0-0.4,0-0.5,0c-0.1,0-0.1,0-0.2-0.2c0-0.2-0.1-0.4-0.1-0.7c0-0.3,0-0.5,0.1-0.6
	c0.1-0.1,0.2-0.3,0.5-0.4c0.2-0.1,0.3-0.3,0.1-0.6c-0.2-0.3-0.6-0.6-1.2-1.1c-0.3-0.3-0.6-0.4-0.7-0.4c-0.1,0-0.3,0.2-0.5,0.6
	c-0.3,0.4-0.8,0.6-1.5,0.7c-0.7,0.1-1.8,0-3.4-0.1c-0.4,0-0.6,0-0.6,0c0,0,0,0.2,0.2,0.5c0,0,0,0.1,0.1,0.1c0.1,0.2,0.2,0.4,0.2,0.4
	c0.1,0,0.2,0,0.4,0c0,0,0.1,0,0.1,0c2.6-0.4,4-0.3,4.1,0.2c0.1,0.2,0.1,0.8,0.1,1.9c0,1.1-0.1,1.7-0.1,1.8c-0.2,0.3-0.5,0.4-1.1,0.4
	c-0.6,0-1.3-0.2-2.2-0.6c-0.1,0-0.2,0-0.3-0.1c-0.5-0.2-0.8-0.3-0.8-0.3c0,0-0.1,0.3,0,1c0,1.4-0.1,3.4-0.4,5.9c0,0,0,0.1,0,0.2
	c-0.1,0.5-0.1,0.8,0,0.9s0.2,0.1,0.6,0.1c0.1,0,0.1,0,0.2,0c0.5,0,0.8,0,0.9-0.1c0.2-0.1,0.3-0.3,0.3-0.6c0.1-0.4,0.2-0.6,0.3-0.7
	c0.2-0.1,0.6-0.1,1.2-0.1c0,0,0.1,0,0.1,0c0.5,0,0.9,0,1,0.1c0.2,0.1,0.3,0.3,0.3,0.6c0,0.2,0,0.7-0.1,1.6c0,0.1,0,0.2,0,0.2
	c-0.1,1.6-0.3,2.8-0.5,3.5c-0.2,0.8-0.4,1.3-0.8,1.5c-0.3,0.2-0.8,0.3-1.5,0.3c-0.1,0-0.2,0-0.4,0c-0.4,0-0.7,0-0.8,0
	c-0.3,0-0.5,0-0.5,0c0,0.1,0,0.1,0.1,0.2c0.1,0,0.3,0.1,0.5,0.2c1.1,0.3,1.6,0.9,1.6,1.7C255.7,45.1,255.7,45.2,255.8,45.2z
	 M39.8,68.3c0.9,0.7,1.3,0.9,1.3,0.6c0-0.3,0.2-0.6,0.6-1s0.7-0.7,1.1-0.9c0.3-0.1,0.4-0.2,0.4-0.3c0-0.1-0.2-0.2-0.5-0.3
	c-1.3-0.5-2.5-1.3-3.7-2.3c-0.4-0.3-0.6-0.6-0.6-0.7c0-0.2,0.1-0.5,0.3-0.9c1-1.7,1.7-3.6,2.3-5.7c0.1-0.6,0.3-1,0.4-1.1
	c0.1-0.2,0.2-0.3,0.5-0.3c0.3-0.1,0.4-0.2,0.3-0.4c-0.1-0.2-0.3-0.5-0.8-1c-0.5-0.5-0.8-0.8-1-0.8c-0.1,0-0.4,0.1-0.7,0.5
	c0,0-0.1,0.1-0.2,0.2c-0.3,0.3-0.5,0.4-0.7,0.5c-0.2,0-0.9,0.1-1.9,0.1c-0.3,0-0.5,0-0.7,0c-0.2,0-0.5,0-0.9,0c-0.8,0-1.3,0-1.6,0
	c-0.3,0-0.5-0.2-0.6-0.4c0-0.2-0.1-0.6,0-1.2c0-0.3,0-0.5,0-0.7c0-0.2,0-0.5,0-0.8c0-0.6,0-0.9,0.1-1.1c0.1-0.2,0.4-0.4,0.8-0.4
	c0.3,0,1.1,0,2.3,0c0.7,0,1.2,0,1.7,0c1.8,0,2.9,0,3.4,0c0.7,0,1.1,0,1.2-0.1c0.1,0,0.2-0.1,0.2-0.2c0.1-0.3-0.4-0.8-1.3-1.5
	c-0.4-0.3-0.7-0.5-0.8-0.5c-0.1,0-0.3,0.2-0.6,0.6l0,0c0,0-0.1,0.1-0.1,0.2c-0.2,0.4-0.5,0.6-0.7,0.7C38.7,49,38,49,36.7,49
	c-0.3,0-0.5,0-0.6,0s-0.3,0-0.6,0c-1.1,0-1.8,0-2.1,0c-0.3,0-0.7-0.2-1.2-0.4c-0.1-0.1-0.3-0.1-0.4-0.1c0,0-0.1,0-0.2-0.1
	c-0.4-0.2-0.7-0.2-0.7-0.2c-0.1,0-0.1,0.2-0.1,0.5c0,0.1,0,0.1,0,0.1c0,0.6,0.1,1.3,0.1,2.2c0,0.9,0,1.4,0,1.5
	c-0.1,0.2-0.2,0.2-0.3,0.2c-0.1,0-0.4-0.3-0.8-0.7l0,0c-0.5-0.5-0.8-0.7-1-0.7c-0.1,0-0.3,0.2-0.6,0.6c-0.3,0.5-0.6,0.7-0.7,0.7
	c-0.2,0-0.3-0.7-0.3-2c0-1.4,0.1-2.1,0.4-2.3c0.3-0.2,0.2-0.4-0.1-0.5c-0.3-0.2-1-0.4-2-0.6c-0.3-0.1-0.4-0.1-0.5,0c0,0,0,0.2,0,0.5
	c0.2,1.3,0.2,2.5,0.2,3.5c0,1-0.1,1.5-0.3,1.7c-0.1,0.1-0.6,0.1-1.5,0.1c-0.8,0-1.4-0.1-1.8-0.2c-0.2,0-0.2,0.2,0.1,0.6l0,0
	c0.1,0.3,0.2,0.4,0.3,0.5c0,0,0.1,0,0.3,0h0c0.4-0.1,0.8-0.2,1.2-0.2c0.4,0,0.7,0,0.9,0c0.1,0.1,0.2,0.2,0.2,0.4
	c0,0.2,0,0.5-0.1,0.9c-0.7,3.3-1.7,6-3,8.1c-0.2,0.3-0.2,0.4-0.3,0.5c0,0.1,0,0.1,0.1,0.2c0.1,0.1,0.4-0.2,1-0.8
	c0.6-0.6,1.2-1.4,1.7-2.3c0.3-0.5,0.5-0.8,0.7-0.9c0.1-0.1,0.2,0,0.3,0.2c0.1,0.2,0.1,1.2,0.1,3c0,1.8-0.1,3.4-0.2,4.7
	c0,0.6-0.1,1-0.1,1.2c0,0.1,0,0.2,0.1,0.3c0.1,0.1,0.2,0.2,0.3,0.2c0.2,0.1,0.6,0,1-0.1c0.4-0.1,0.7-0.3,0.9-0.5
	c0.1-0.1,0.1-0.2,0.1-0.3c0-0.1,0-0.5,0-1.2c0-1-0.1-2.8-0.1-5.6c0-2.7,0-4.2,0-4.3c0.1-0.2,0.2-0.3,0.3-0.2
	c0.1,0.1,0.3,0.3,0.4,0.6c0.1,0.2,0.2,0.5,0.4,1c0.1,0.4,0.2,0.6,0.2,0.7c0,0.3,0.2,0.5,0.5,0.6c0.4,0.1,0.7,0,0.9-0.2
	c0.5-0.4,0.5-1.1,0.1-1.8c-0.4-0.8-1.1-1.4-2.1-2c-0.4-0.2-0.6-0.4-0.6-0.5c-0.1-0.1-0.1-0.4-0.1-0.9c0,0,0,0,0-0.1
	c0-0.5,0.1-0.8,0.2-0.9c0.1-0.1,0.6-0.1,1.5-0.1c0,0,0.1,0,0.1,0c0,0,0.1,0,0.1,0c0.9,0,1.4-0.1,1.5-0.1c0.1-0.1,0.2-0.1,0.2,0
	s0.1,0.1,0.1,0.3c0,0.1,0,0.9,0,2.2c0,1.3,0,2.2-0.1,2.4c0,0.3-0.1,0.7-0.1,1.2c-0.1,1.6-0.4,3.3-0.8,4.9c-0.4,1.6-1,3-1.7,4.2
	C28.1,68.8,28,69,28,69c0,0.1,0,0.1,0.1,0.1c0.1,0.1,0.5-0.2,1.1-1c0.6-0.7,1.1-1.4,1.5-2.2c0.7-1.2,1.2-2.5,1.5-4
	c0.3-1.5,0.6-3.2,0.7-5.4v0c0-0.7,0.1-1,0.1-1.2c0-0.1,0.1-0.2,0.3-0.3c0.2-0.1,0.3,0,0.4,0.1c0.1,0.1,0.2,0.4,0.2,0.9
	c0.3,2.2,0.9,4.3,1.6,6.2c0.3,0.6,0.4,1,0.3,1.2c0,0.2-0.3,0.6-0.8,1.3c-1.2,1.5-2.6,2.7-4.2,3.7l0,0c-0.2,0.1-0.4,0.2-0.4,0.3
	c0,0,0,0.1,0,0.2c0.1,0.2,0.9,0,2.2-0.8c1.4-0.8,2.4-1.5,3.2-2.2c0.5-0.5,0.9-0.7,1-0.7c0.2,0,0.4,0.3,0.8,0.8
	C38.2,66.9,39,67.6,39.8,68.3z M37.1,61.2c-0.3,0.3-0.7,0-1.2-1c-0.5-1-1-2.3-1.4-3.8c0,0,0-0.1,0-0.1c-0.1-0.5-0.2-0.8-0.1-0.9
	c0-0.2,0.2-0.3,0.5-0.3c0.2,0,0.7,0,1.6,0c0.1,0,0.2,0,0.2,0c1.1,0,1.7,0,1.9,0c0.2,0,0.3,0.1,0.4,0.3c0.1,0.3-0.1,1.3-0.6,2.9
	C37.8,60,37.4,60.9,37.1,61.2z M58.1,61c0.1,0.2,0.2,0.3,0.4,0.3c0.2,0,0.5-0.2,0.9-0.6c0.9-0.7,1.6-1.6,2-2.8
	c0.4-1.1,0.4-2.1,0.1-2.9c-0.3-0.9-0.9-1.3-1.8-1.2c-0.6,0-1,0.3-1.3,0.7c-0.2,0.4-0.3,0.9-0.1,1.4c0.2,0.5,0.5,1,1.1,1.3
	c0.3,0.2,0.5,0.3,0.6,0.5c0.1,0.1,0.1,0.2,0.1,0.4c-0.1,0.4-0.3,0.8-0.6,1.3c-0.4,0.5-0.8,0.8-1.2,1.2c-0.2,0.1-0.3,0.2-0.3,0.3
	C57.9,60.7,58,60.8,58.1,61z M91.4,69.2c0,0.1,0.4,0.1,1.1-0.1c0.7-0.1,1.2-0.3,1.6-0.6c0.4-0.3,0.6-0.7,0.7-1.2
	c0.1-0.2,0.1-2.9,0.1-8.3c0-0.2,0-0.4,0-0.5c0-5.6,0-8.5,0.1-8.5c0.1-0.1,0.2-0.2,0.4-0.2c0.2,0,0.6-0.1,1.4-0.1
	c1.1,0,1.6-0.1,1.7-0.3c0-0.2-0.4-0.7-1.4-1.5c0,0,0,0-0.1-0.1c-0.5-0.4-0.8-0.6-1-0.6c-0.1,0-0.4,0.3-0.7,0.7c0,0-0.1,0.1-0.1,0.1
	c-0.4,0.5-0.7,0.8-0.9,0.9c-0.2,0-2.7,0-7.7,0c-5.2,0-8.3,0-9.3-0.1c-0.2,0-0.3,0-0.3,0c0,0,0.1,0.2,0.2,0.6c0,0,0,0.1,0,0.1
	c0.1,0.2,0.2,0.4,0.3,0.4c0.1,0,0.2,0,0.6,0c0.7-0.1,1.4-0.2,2.1-0.2c0.7,0,2.6,0,5.9,0c0.3,0,0.8,0,1.3,0c2.6,0,4.1,0,4.5,0
	c0.4,0,0.7,0.1,0.8,0.2l0,0c0.1,0.1,0.1,2.8,0.1,8.1c0,5.3,0,8-0.1,8.2c-0.1,0.2-0.3,0.3-0.6,0.4c-0.3,0-1.1,0-2.5-0.1
	c-0.8,0-1.3-0.1-1.4-0.1c-0.1,0-0.2,0.1-0.2,0.1c0,0.1,0.2,0.2,0.5,0.2c1.8,0.3,2.8,1,3,2.1l0,0C91.3,69.1,91.4,69.2,91.4,69.2z
	 M79.7,64.3c0.3,0.2,0.7,0.1,1.3-0.1c0.5-0.3,0.8-0.6,0.8-0.9c0,0,0,0,0-0.1c-0.1-0.6-0.1-1,0-1.2c0-0.2,0.2-0.4,0.6-0.4
	c0.2,0,0.8-0.1,1.7-0.1c0,0,0.1,0,0.1,0c0,0,0.1,0,0.2,0c0.8,0,1.3,0,1.5,0c0.3,0,0.5,0.1,0.6,0.3c0,0.1,0.1,0.3,0,0.6v0.1
	c0,0.5,0.1,0.8,0.4,0.9c0.3,0.1,0.8,0,1.4-0.4l0,0c0.3-0.1,0.4-0.2,0.4-0.4s0-0.4,0-1c0-0.6-0.1-1.8-0.1-3.6c0-1.8,0-2.8,0-2.9
	c0.1-0.3,0.2-0.5,0.5-0.6c0.3-0.1,0.4-0.2,0.3-0.4s-0.2-0.4-0.6-0.7c-0.7-0.6-1.1-1-1.3-1.1c-0.2-0.1-0.4,0.1-0.7,0.4
	c0,0-0.1,0.1-0.1,0.2c-0.2,0.3-0.5,0.5-0.6,0.6c-0.2,0-0.7,0.1-1.6,0.1c-0.2,0-0.4,0-0.5,0s-0.3,0-0.5,0c-0.8,0-1.4,0-1.6,0
	c-0.2,0-0.6-0.2-1.1-0.4c-0.1,0-0.2-0.1-0.2-0.1c0,0-0.1-0.1-0.2-0.1c-0.4-0.2-0.7-0.3-0.8-0.3c-0.1,0-0.1,0.2,0,0.5
	c0,0.1,0,0.1,0,0.1c0.1,1.1,0.2,2.7,0.2,4.6c0,1.9,0,3.6-0.1,5.2c0,0.4,0,0.7,0,0.8C79.5,64.2,79.6,64.3,79.7,64.3z M84.1,60.9
	c-1.3,0-2,0-2.1-0.1c-0.1-0.1-0.2-0.3-0.3-0.6c0-0.3,0-1.2,0-2.6c0-0.2,0-0.5,0-0.9c0-0.8,0-1.3,0-1.6c0.1-0.3,0.2-0.5,0.5-0.6
	c0.2,0,0.6-0.1,1.2,0c0.3,0,0.5,0,0.7,0s0.4,0,0.7,0c0.6,0,1,0,1.2,0c0.2,0.1,0.4,0.3,0.5,0.6c0,0.2,0,0.7,0,1.6c0,0.4,0,0.7,0,0.9
	c0,1.5,0,2.4,0,2.6c0,0.3-0.1,0.5-0.2,0.6C86,60.8,85.3,60.9,84.1,60.9z M110,69.1c0,0.1,0.2,0.1,0.5,0c0.3-0.1,0.9-0.3,1.8-0.6
	c2.8-1.1,5.2-2.5,7.1-4.4c0.4-0.4,0.7-0.6,0.8-0.7c0.2-0.1,0.4-0.1,0.6,0.1c0.1,0.1,0.4,0.5,0.9,1.1c0.8,1.1,1.5,2.2,2,3.2
	c0.3,0.5,0.4,0.8,0.5,0.9c0.1,0.1,0.3,0.2,0.6,0.3c0.6,0.1,0.9-0.1,1.2-0.6c0.2-0.5,0.2-1.1-0.1-1.8c-0.5-1.3-1.8-2.6-3.8-3.6
	c-0.5-0.3-0.8-0.5-0.9-0.6c0-0.2,0-0.5,0.3-0.9c0.7-1.3,1.3-2.8,1.6-4.3c0.3-1.5,0.6-3.6,0.7-6.3c0-0.6,0-1,0.1-1.2
	c0.1-0.2,0.2-0.3,0.3-0.4c0.3-0.2,0.3-0.3,0-0.4c-0.3-0.1-1-0.2-2.1-0.4c-0.4,0-0.7-0.1-0.8,0c-0.1,0-0.1,0.1-0.1,0.1
	c0.1,0.3,0.1,1.4,0.1,3.2c-0.1,4.1-0.9,7.5-2.5,10.1c-1.6,2.6-4.3,4.8-8,6.6c-0.5,0.2-0.7,0.4-0.8,0.4C110,68.9,110,69,110,69.1z
	 M105.8,67.2c0.1,0.1,0.2,0,0.3-0.1c0.2-0.2,0.4-0.4,0.6-0.5c0.2-0.1,0.8-0.4,1.6-0.9c1.8-0.9,3.5-1.8,5.1-2.7
	c1.6-1,2.5-1.5,2.5-1.6c0-0.1-0.1-0.1-0.3-0.1c-0.2,0-1,0.3-2.3,0.7c-1.4,0.4-2.2,0.7-2.5,0.8c-0.3,0.1-0.5,0.1-0.6,0
	c-0.1-0.1-0.2-0.5-0.2-1.1c0-0.7-0.1-2.7-0.1-5.9c0-0.3,0-0.8,0-1.4c0-1.9,0-3.2,0-3.7c0-0.7,0-1.2,0-1.4c0-0.1,0.1-0.3,0.2-0.3l0,0
	c0.2-0.2,0.2-0.3,0.1-0.4c-0.2-0.1-0.6-0.2-1.2-0.2c-0.9-0.1-1.3-0.1-1.3,0c0,0.1,0,2.6,0.1,7.3c0,0.3,0,0.6,0,1.1
	c0,3.3,0.1,5.3,0.1,5.9c0,0.6,0,0.9-0.1,1c-0.1,0.2-1,0.6-2.5,0.9c-0.4,0.1-0.5,0.1-0.5,0.2c0,0,0.2,0.4,0.5,1.2
	C105.6,66.7,105.8,67.2,105.8,67.2z M116.3,57c0.5,0.2,1,0,1.2-0.4c0.3-0.4,0.3-1,0-1.7c-0.5-1.4-1.9-2.6-4.2-3.5
	c-0.5-0.2-0.8-0.3-0.8-0.2c0,0.1,0.1,0.3,0.5,0.7c1.3,1.6,2.1,3,2.6,4.3C115.8,56.6,116,56.9,116.3,57z M136.9,69.2
	c0.1,0.1,0.1,0.1,0.2,0c0.1,0,0.4-0.1,0.8-0.3c2-0.8,3.7-1.8,4.9-3.1c1.2-1.3,2.2-3,2.9-5c0.7-2,1.1-4.6,1.3-7.8
	c0-0.2,0-0.6,0.1-1.1c0-0.2,0-0.4,0-0.5c0,0,0,0,0-0.1c0-0.4,0.1-0.6,0.1-0.7c0.1-0.1,0.2-0.2,0.5-0.2c0.2,0,0.6,0,1.3,0
	c0,0,0.1,0,0.1,0c0.1,0,0.3,0,0.5,0c0.6,0,1,0,1.2,0.1c0.2,0.1,0.3,0.4,0.4,0.9c0,0.3,0,1.1,0,2.3c0,0.4,0,0.7,0,1
	c-0.2,4.3-0.4,7.2-0.8,8.7c-0.3,1.5-0.8,2.4-1.5,2.5c-0.2,0-0.7,0-1.5,0c-0.8,0-1.4-0.1-1.6-0.1c-0.1,0-0.2,0-0.3,0.1s0,0.2,0.1,0.2
	c0,0,0.2,0,0.5,0.1c0.8,0.2,1.3,0.5,1.6,0.7c0.3,0.3,0.5,0.7,0.5,1.2c0,0.3,0.1,0.4,0.2,0.5c0.1,0,0.4,0,0.9-0.1
	c1-0.2,1.8-0.8,2.3-1.6c0.5-0.9,1-2.5,1.2-4.7c0.3-2,0.5-5.2,0.6-9.5c0-0.9,0.1-1.5,0.1-1.7c0.1-0.2,0.2-0.4,0.6-0.5
	c0.3-0.1,0.4-0.2,0.3-0.3c0-0.1-0.2-0.4-0.6-0.8c-0.8-0.8-1.2-1.1-1.4-1.1c-0.1,0-0.3,0.2-0.7,0.6c-0.4,0.4-0.7,0.7-0.8,0.7
	c-0.2,0.1-1.9,0.1-4.9,0c-3.1,0-4.8-0.1-5.2-0.2c-0.1,0-0.2,0-0.2,0c0,0,0.1,0.2,0.2,0.4c0.2,0.3,0.3,0.5,0.3,0.6
	c0.1,0.1,0.1,0.1,0.2,0.1c0,0,0.1,0,0.3,0c0.2,0,0.3-0.1,0.4-0.1c1.2-0.2,2-0.3,2.4-0.1c0.4,0.1,0.6,0.6,0.6,1.3
	c-0.1,4.7-0.8,8.3-2,11c-1.2,2.6-3,4.6-5.5,5.9c-0.3,0.1-0.4,0.2-0.5,0.3C136.8,69,136.8,69.1,136.9,69.2z M136.5,63.6
	c0.2,0,0.9,0.1,2.1,0c1.1,0,1.8-0.1,2.1-0.1c0.7-0.2,1.2-0.4,1.5-0.8c0.2-0.4,0.2-0.8-0.2-1.2c-0.2-0.2-0.3-0.4-0.3-0.5
	c0-0.2-0.1-0.6-0.1-1.4c0-0.9-0.1-1.4-0.1-1.4c-0.1-0.1-0.2,0.1-0.3,0.6c-0.2,1-0.4,1.6-0.5,1.9c-0.1,0.4-0.4,0.6-0.6,0.7
	c-0.2,0.1-0.6,0.1-1.3,0.1c-0.1,0-0.2,0-0.3,0c-0.4,0-0.6-0.1-0.7-0.1c-0.1-0.1-0.2-0.3-0.3-0.7c0-0.3,0-0.9,0-1.8
	c0-0.3,0-0.5,0-0.6c0-0.2,0-0.6,0-1c0-0.8,0-1.3,0-1.5c0.1-0.3,0.2-0.5,0.5-0.6c0.2-0.1,0.7-0.2,1.4-0.3c0.4-0.1,0.7-0.1,1-0.2
	c1.3-0.3,2.1-0.4,2.4-0.6c0.4-0.1,0.6-0.3,0.5-0.5c-0.1-0.1-0.5-0.4-1.1-0.9l0,0c-0.5-0.4-0.8-0.6-1-0.6c-0.2-0.1-0.4,0-0.5,0.1
	c-0.1,0.1-0.2,0.4-0.4,0.9l0,0c-0.2,0.5-0.3,0.8-0.5,0.9c-0.1,0.1-0.5,0.2-1,0.3c0,0-0.1,0-0.2,0c-0.4,0.1-0.7,0.1-0.8,0.1
	c-0.2-0.1-0.3-0.3-0.3-0.6c0-0.2,0-0.8,0-1.8c0-0.2,0-0.4,0-0.5c0-1.3,0-2,0-2.3c0-0.2,0.1-0.4,0.3-0.5c0.5-0.3-0.1-0.6-1.9-1.1
	c0,0,0,0-0.1,0c-0.3-0.1-0.4-0.1-0.5-0.1c0,0,0,0.2,0,0.5c0,0,0,0.1,0,0.1c0.1,0.8,0.1,2.1,0.1,3.8c0,1.7,0,2.6-0.1,2.8
	c-0.1,0.1-0.2,0.2-0.4,0.3c-0.2,0-0.6,0.1-1.2,0.3c0,0-0.1,0-0.2,0c-0.5,0.1-0.9,0.2-0.9,0.2c-0.1,0-0.1,0.2,0,0.3
	c0.1,0.1,0.2,0.2,0.2,0.2c0.1,0,0.4,0,0.8-0.1h0c0.1,0,0.2,0,0.4-0.1c0.5-0.1,0.8-0.1,0.9-0.1c0.2,0.1,0.3,0.3,0.3,0.7
	c0,0.3,0,1,0,2c0,0.4,0,0.7,0,0.9c0,1.5,0,2.5,0.1,2.9c0,0.6,0.2,1,0.3,1.2C135.8,63.4,136.1,63.5,136.5,63.6z M162.7,69.2
	c0,0,0.3,0,0.7,0c0.9-0.2,1.5-0.6,1.8-1.3c0.1-0.2,0.1-0.4,0.1-0.8c0-0.4,0-1.6,0-3.7c0-0.2,0-0.5,0-0.8c0-1.8,0-2.8,0-3.1
	c0-0.3,0.1-0.5,0.2-0.6l0.1,0c0,0,0.3-0.3,0.9-0.6c0.1-0.1,0.2-0.1,0.3-0.2c0.8-0.5,1.2-0.8,1.2-0.9c0-0.1-0.1-0.1-0.2-0.1
	c-0.1,0-0.4,0.1-0.9,0.2l0,0c-0.6,0.2-0.9,0.3-1.1,0.3c-0.2,0-0.3-0.1-0.4-0.4c0-0.2,0-0.7,0-1.5c0,0,0-0.1,0-0.1c0,0,0-0.1,0-0.1
	c0-0.7,0-1.2,0-1.4c0-0.3,0.1-0.5,0.3-0.5c0.1,0,0.4-0.1,0.8,0c0,0,0.1,0,0.1,0c0.7,0,1,0.1,1.1,0.3c0.1,0.2-0.1,0.5-0.6,1.1
	c-0.2,0.3-0.3,0.4-0.3,0.5c0.1,0.1,0.3,0,0.6-0.2c0.4-0.3,0.7-0.4,0.8-0.2c0.1,0.1,0.2,0.6,0.1,1.4c0,0.6,0,1.1,0,1.7
	c0,0.3,0,0.8,0,1.5c0,0.1,0,0.2,0,0.3c0,0.6,0,1,0.2,1.2c0.2,0.1,0.6,0.1,1.2-0.1c0.4-0.1,0.6-0.2,0.7-0.4c0.1-0.1,0.2-0.4,0.2-0.7
	c0-0.6,0.1-0.9,0.3-0.9c0.6,0,1.1-0.5,1.7-1.3c0.6-0.9,0.9-1.8,1.1-2.8c0.1-0.4,0.1-0.7,0.2-0.8c0.1-0.1,0.3-0.2,0.5-0.2
	c0.4,0,0.6,0.1,0.6,0.3c0.1,0.2,0.1,0.8,0.1,1.8c0,0,0,0.1,0,0.2c0,0.8,0,1.2,0.1,1.4c0.1,0.3,0.2,0.5,0.4,0.6
	c0.2,0,0.5,0.1,1.1,0.1c0.1,0,0.2,0,0.3,0c0,0,0.1,0,0.2,0c0.7,0,1.2,0.1,1.3,0.2c0.1,0.1,0.1,0.5,0.1,1.3c0,0.1,0,0.2,0,0.2
	c0,0.4,0,0.7,0,0.8c0,0.1,0.2,0.1,0.5,0.2c0.3,0,0.5,0.1,0.5,0.2c0,0.1,0,0.2-0.2,0.5c-0.3,0.5-0.5,0.8-0.8,0.9s-0.8,0.1-1.7,0.1
	c-0.8,0-1.3,0-1.4,0c-0.2,0-0.3-0.1-0.4-0.3c-0.1-0.2-0.1-0.5,0-0.9c0.1-0.4,0.2-0.7,0.4-0.8c0.2-0.2,0.2-0.3,0-0.4
	c-0.2-0.1-0.7-0.2-1.4-0.3c-0.1,0-0.2,0-0.3,0c-0.4-0.1-0.7-0.1-0.8,0c-0.1,0.1-0.1,0.3-0.1,0.7c0,0.1,0,0.2,0,0.3
	c0,0.7-0.1,1.1-0.1,1.3c0,0.2-0.2,0.3-0.4,0.4c-0.1,0-0.9,0.1-2.1,0c-1.3,0-2.3-0.1-2.9-0.1c-0.3,0-0.4,0-0.5,0c0,0,0,0.2,0.2,0.5
	c0.1,0.3,0.2,0.5,0.3,0.6c0,0,0.3,0,0.8-0.1c1.6-0.2,2.7-0.3,3.3-0.2c0.7,0.1,1,0.3,0.9,0.6c-0.2,0.9-0.8,1.8-1.8,2.7
	c-1,0.9-2.2,1.7-3.6,2.3c-0.4,0.2-0.6,0.3-0.7,0.3c-0.1,0.1-0.1,0.1,0,0.2c0,0.1,0.1,0.1,0.2,0.1c0.1,0,0.3,0,0.6-0.1
	c2-0.6,3.6-1.3,4.8-2.1c1.2-0.8,2-1.8,2.5-3c0.2-0.4,0.4-0.7,0.5-0.6c0.1,0,0.3,0.2,0.5,0.7c0.9,2.2,2.4,3.8,4.4,4.9
	c0.3,0.2,0.5,0.2,0.6,0.2s0.1-0.1,0.2-0.3c0.2-0.8,0.6-1.3,1.3-1.5c0.6-0.2,0.5-0.4-0.2-0.5c-1.4-0.4-2.7-0.9-4-1.7
	c-1.3-0.8-1.9-1.4-1.9-1.9c0-0.1,0-0.2,0.1-0.2c0.1,0,0.4-0.1,0.8-0.1c0.3,0,1,0,2.1,0c1.4,0,2.3,0,2.7-0.1c0.5-0.1,0.7-0.3,0.5-0.6
	c-0.1-0.2-0.6-0.6-1.4-1.3c-0.3-0.2-0.4-0.4-0.5-0.4c0-0.1,0.1-0.2,0.2-0.4c0.1-0.1,0.2-0.2,0.2-0.4c0-0.1,0-0.5,0-1
	c-0.1-1.8-0.1-3-0.1-3.8c0-0.7,0.2-1.2,0.4-1.3c0.3-0.2,0.4-0.3,0.4-0.4c0-0.1-0.2-0.3-0.5-0.6c-0.3-0.3-0.7-0.6-1.1-0.9
	c-0.2-0.2-0.4-0.2-0.5-0.2c-0.1,0-0.3,0.2-0.5,0.6c-0.2,0.3-0.4,0.5-0.5,0.5c-0.1,0-0.6,0.1-1.3,0.1c-0.7,0-1.1,0-1.3,0
	c-0.2,0-0.2-0.1-0.2-0.2c0-0.1,0.3-0.5,1-1.1c0.7-0.6,1.1-0.9,1.3-0.9c0.4,0,0.5-0.1,0.5-0.3c0-0.2-0.3-0.5-0.8-1
	c-0.5-0.5-0.9-0.8-1.1-0.8c-0.2,0-0.4,0.1-0.7,0.5c-0.4,0.4-1,0.7-1.8,0.8s-1.1-0.1-1.1-0.5c0-0.2,0.1-0.4,0.3-0.7
	c0.2-0.3,0.4-0.5,0.5-0.5c0.7-0.1,0.1-0.4-1.5-0.8c-0.5-0.1-0.9-0.2-1-0.2c-0.1,0-0.2,0.1-0.2,0.2c-0.4,1.6-0.8,3-1.5,4.3
	c-0.4,0.7-0.6,1.1-0.8,1.2c-0.2,0-0.5-0.2-1-0.7c-0.5-0.5-0.7-0.8-0.8-0.7c0,0-0.1,0.1-0.3,0.4c0,0-0.1,0.1-0.1,0.1
	c-0.4,0.7-0.7,0.9-0.8,0.8c-0.1-0.2-0.2-0.8-0.2-2c0-0.9,0-1.4,0-1.6c0-0.2,0.1-0.4,0.3-0.5c0.2-0.2,0.2-0.3-0.1-0.5
	c-0.3-0.2-0.9-0.4-1.9-0.6c0,0,0,0-0.1,0c-0.3-0.1-0.4-0.1-0.5,0c0,0,0,0.2,0,0.5c0,0,0,0.1,0,0.1c0.1,0.9,0.2,1.9,0.2,2.9
	c0,1,0,1.6-0.1,1.8c-0.1,0.2-0.3,0.3-0.6,0.3c-0.3,0-0.8,0-1.6-0.1c0,0-0.1,0-0.1,0l-0.6,0c0,0,0.1,0.2,0.2,0.6
	c0.2,0.3,0.3,0.5,0.4,0.5l0.1,0c0.1,0,0.2-0.1,0.3-0.1c0.6-0.2,1-0.2,1.3-0.2c0.3,0,0.4,0.3,0.5,0.6c0.1,0.3,0.1,1,0.1,1.9
	c0,0.1,0,0.3,0,0.6c0,0.7,0,1.2,0,1.4c-0.1,0.3-0.2,0.5-0.4,0.6c-0.2,0.1-0.6,0.2-1.2,0.4c-0.2,0.1-0.4,0.1-0.5,0.1
	c-0.1,0-0.2,0-0.3,0.1c-0.4,0.1-0.5,0.2-0.6,0.3s0,0.4,0.2,0.8c0.1,0.2,0.1,0.3,0.1,0.4c0.3,0.7,0.4,1.1,0.5,1.2
	c0.1,0.1,0.2,0,0.3-0.1c0.2-0.3,0.5-0.6,0.9-0.8c0.4-0.2,0.7-0.3,0.8-0.1c0.1,0.1,0.1,0.3,0.1,0.6c0,0.3,0,1.1,0,2.4
	c0,0.1,0,0.3,0,0.6c0,1,0,1.7,0,1.9c-0.1,0.4-0.2,0.6-0.5,0.7c-0.2,0-0.6,0-1.2,0c-0.1,0-0.2,0-0.3,0c-0.5,0-0.7,0-0.8,0
	c-0.1,0.1,0,0.2,0.4,0.3c0.5,0.1,0.9,0.3,1.2,0.7c0.3,0.4,0.5,0.8,0.5,1.2C162.6,69.1,162.6,69.1,162.7,69.2z M171,57.6
	c-0.2,0.2-0.3,0.2-0.4,0.2c-0.1-0.1-0.2-0.2-0.2-0.5c0-0.3,0-0.9,0-1.9c0-1,0-1.6,0.1-1.7c0.1-0.2,0.3-0.3,0.6-0.3
	c0.4,0,0.6,0,0.8,0.1c0.3,0.2,0.3,0.9,0.1,1.9C171.7,56.5,171.4,57.2,171,57.6z M178.2,56.3c-0.2,0.1-0.5,0.2-0.9,0.1
	c-0.4,0-0.6-0.2-0.7-0.3c-0.1-0.2-0.2-0.6-0.1-1.3c0-0.7,0.1-1.1,0.2-1.2c0.1-0.1,0.3-0.1,0.7-0.1c0.4,0,0.7,0,0.8,0.1
	c0.2,0.2,0.3,0.6,0.3,1.4C178.6,55.7,178.4,56.2,178.2,56.3z M172.4,52.8c-0.9,0-1.4,0-1.6,0c-0.4-0.1-0.4-0.5,0.2-1.2l0,0
	c0.2-0.3,0.3-0.4,0.4-0.6c0.3-0.4,0.5-0.6,0.7-0.6c0.2-0.1,0.6-0.1,1.4-0.1c0.7,0,1.1,0,1.2,0.1c0.1,0,0.2,0.2,0.2,0.4
	c0,0.3-0.1,0.6-0.3,1.1c-0.2,0.4-0.4,0.7-0.6,0.8C173.8,52.7,173.3,52.7,172.4,52.8z M189.7,55.9c0.2,0,0.3-0.1,0.3-0.2
	s0.1-0.5,0.3-1.2c0,0,0-0.1,0-0.1c0.4-2,0.6-3.3,0.6-4.1c0.1-0.9,0.1-1.5,0-1.9c-0.1-0.3-0.4-0.5-0.8-0.6c-0.6-0.2-1-0.1-1.3,0.2
	s-0.5,0.8-0.5,1.4c0,0.5,0.2,1.7,0.5,3.5c0.3,1.8,0.5,2.8,0.6,2.9C189.3,55.9,189.4,55.9,189.7,55.9L189.7,55.9z M194.3,55.9
	c0.2,0,0.4-0.4,0.6-1.1c0.2-0.7,0.4-2.1,0.7-4.1c0.2-1.1,0.1-1.9-0.1-2.4c-0.2-0.5-0.6-0.7-1.3-0.6c-0.5,0-0.9,0.3-1.1,0.7
	c-0.2,0.4-0.2,1.1-0.1,2.1c0.1,0.6,0.2,1.7,0.5,3.1c0.3,1.4,0.4,2.2,0.4,2.2C194,55.9,194.1,55.9,194.3,55.9z M206.2,69.2
	c0.1,0.1,0.1,0.1,0.2,0c0.1,0,0.4-0.1,0.8-0.3c2-0.8,3.7-1.8,4.9-3.1c1.2-1.3,2.2-3,2.9-5c0.7-2,1.1-4.6,1.3-7.8
	c0-0.2,0-0.6,0.1-1.1c0-0.2,0-0.4,0-0.5c0,0,0,0,0-0.1c0-0.4,0.1-0.6,0.1-0.7c0.1-0.1,0.2-0.2,0.5-0.2c0.2,0,0.6,0,1.3,0
	c0,0,0.1,0,0.1,0c0.1,0,0.3,0,0.5,0c0.6,0,1,0,1.2,0.1c0.2,0.1,0.3,0.4,0.4,0.9c0,0.3,0,1.1,0,2.3c0,0.4,0,0.7,0,1
	c-0.2,4.3-0.4,7.2-0.8,8.7c-0.3,1.5-0.8,2.4-1.5,2.5c-0.2,0-0.7,0-1.5,0c-0.8,0-1.4-0.1-1.6-0.1c-0.1,0-0.2,0-0.3,0.1s0,0.2,0.1,0.2
	c0,0,0.2,0,0.5,0.1c0.8,0.2,1.3,0.5,1.6,0.7c0.3,0.3,0.5,0.7,0.5,1.2c0,0.3,0.1,0.4,0.2,0.5c0.1,0,0.4,0,0.9-0.1
	c1-0.2,1.8-0.8,2.3-1.6c0.5-0.9,1-2.5,1.2-4.7c0.3-2,0.5-5.2,0.6-9.5c0-0.9,0.1-1.5,0.1-1.7c0.1-0.2,0.2-0.4,0.6-0.5
	c0.3-0.1,0.4-0.2,0.3-0.3c0-0.1-0.2-0.4-0.6-0.8c-0.8-0.8-1.2-1.1-1.4-1.1c-0.1,0-0.3,0.2-0.7,0.6c-0.4,0.4-0.7,0.7-0.8,0.7
	c-0.2,0.1-1.9,0.1-4.9,0c-3.1,0-4.8-0.1-5.2-0.2c-0.1,0-0.2,0-0.2,0c0,0,0.1,0.2,0.2,0.4c0.2,0.3,0.3,0.5,0.3,0.6
	c0.1,0.1,0.1,0.1,0.2,0.1c0,0,0.1,0,0.3,0c0.2,0,0.3-0.1,0.4-0.1c1.2-0.2,2-0.3,2.4-0.1c0.4,0.1,0.6,0.6,0.6,1.3
	c-0.1,4.7-0.8,8.3-2,11c-1.2,2.6-3,4.6-5.5,5.9c-0.3,0.1-0.4,0.2-0.5,0.3C206.2,69,206.2,69.1,206.2,69.2z M205.9,63.6
	c0.2,0,0.9,0.1,2.1,0c1.1,0,1.8-0.1,2.1-0.1c0.7-0.2,1.2-0.4,1.5-0.8c0.2-0.4,0.2-0.8-0.2-1.2c-0.2-0.2-0.3-0.4-0.3-0.5
	c0-0.2-0.1-0.6-0.1-1.4c0-0.9-0.1-1.4-0.1-1.4c-0.1-0.1-0.2,0.1-0.3,0.6c-0.2,1-0.4,1.6-0.5,1.9c-0.1,0.4-0.4,0.6-0.6,0.7
	c-0.2,0.1-0.6,0.1-1.3,0.1c-0.1,0-0.2,0-0.3,0c-0.4,0-0.6-0.1-0.7-0.1c-0.1-0.1-0.2-0.3-0.3-0.7c0-0.3,0-0.9,0-1.8
	c0-0.3,0-0.5,0-0.6c0-0.2,0-0.6,0-1c0-0.8,0-1.3,0-1.5c0.1-0.3,0.2-0.5,0.5-0.6c0.2-0.1,0.7-0.2,1.4-0.3c0.4-0.1,0.7-0.1,1-0.2
	c1.3-0.3,2.1-0.4,2.4-0.6c0.4-0.1,0.6-0.3,0.5-0.5c-0.1-0.1-0.5-0.4-1.1-0.9l0,0c-0.5-0.4-0.8-0.6-1-0.6c-0.2-0.1-0.4,0-0.5,0.1
	c-0.1,0.1-0.2,0.4-0.4,0.9l0,0c-0.2,0.5-0.3,0.8-0.5,0.9c-0.1,0.1-0.5,0.2-1,0.3c0,0-0.1,0-0.2,0c-0.4,0.1-0.7,0.1-0.8,0.1
	c-0.2-0.1-0.3-0.3-0.3-0.6c0-0.2,0-0.8,0-1.8c0-0.2,0-0.4,0-0.5c0-1.3,0-2,0-2.3c0-0.2,0.1-0.4,0.3-0.5c0.5-0.3-0.1-0.6-1.9-1.1
	c0,0,0,0-0.1,0c-0.3-0.1-0.4-0.1-0.5-0.1c0,0,0,0.2,0,0.5c0,0,0,0.1,0,0.1c0.1,0.8,0.1,2.1,0.1,3.8c0,1.7,0,2.6-0.1,2.8
	c-0.1,0.1-0.2,0.2-0.4,0.3c-0.2,0-0.6,0.1-1.2,0.3c0,0-0.1,0-0.2,0c-0.5,0.1-0.9,0.2-0.9,0.2c-0.1,0-0.1,0.2,0,0.3
	c0.1,0.1,0.2,0.2,0.2,0.2c0.1,0,0.4,0,0.8-0.1h0c0.1,0,0.2,0,0.4-0.1c0.5-0.1,0.8-0.1,0.9-0.1c0.2,0.1,0.3,0.3,0.3,0.7
	c0,0.3,0,1,0,2c0,0.4,0,0.7,0,0.9c0,1.5,0,2.5,0.1,2.9c0,0.6,0.2,1,0.3,1.2C205.1,63.4,205.4,63.5,205.9,63.6z M232,69.2
	c0,0,0.3,0,0.7,0c0.9-0.2,1.5-0.6,1.8-1.3c0.1-0.2,0.1-0.4,0.1-0.8c0-0.4,0-1.6,0-3.7c0-0.2,0-0.5,0-0.8c0-1.8,0-2.8,0-3.1
	c0-0.3,0.1-0.5,0.2-0.6l0.1,0c0,0,0.3-0.3,0.9-0.6c0.1-0.1,0.2-0.1,0.3-0.2c0.8-0.5,1.2-0.8,1.2-0.9c0-0.1-0.1-0.1-0.2-0.1
	c-0.1,0-0.4,0.1-0.9,0.2l0,0c-0.6,0.2-0.9,0.3-1.1,0.3c-0.2,0-0.3-0.1-0.4-0.4c0-0.2,0-0.7,0-1.5c0,0,0-0.1,0-0.1c0,0,0-0.1,0-0.1
	c0-0.7,0-1.2,0-1.4c0-0.3,0.1-0.5,0.3-0.5c0.1,0,0.4-0.1,0.8,0c0,0,0.1,0,0.1,0c0.7,0,1,0.1,1.1,0.3c0.1,0.2-0.1,0.5-0.6,1.1
	c-0.2,0.3-0.3,0.4-0.3,0.5c0.1,0.1,0.3,0,0.6-0.2c0.4-0.3,0.7-0.4,0.8-0.2c0.1,0.1,0.2,0.6,0.1,1.4c0,0.6,0,1.1,0,1.7
	c0,0.3,0,0.8,0,1.5c0,0.1,0,0.2,0,0.3c0,0.6,0,1,0.2,1.2c0.2,0.1,0.6,0.1,1.2-0.1c0.4-0.1,0.6-0.2,0.7-0.4c0.1-0.1,0.2-0.4,0.2-0.7
	c0-0.6,0.1-0.9,0.3-0.9c0.6,0,1.1-0.5,1.7-1.3c0.6-0.9,0.9-1.8,1.1-2.8c0.1-0.4,0.1-0.7,0.2-0.8c0.1-0.1,0.3-0.2,0.5-0.2
	c0.4,0,0.6,0.1,0.6,0.3c0.1,0.2,0.1,0.8,0.1,1.8c0,0,0,0.1,0,0.2c0,0.8,0,1.2,0.1,1.4c0.1,0.3,0.2,0.5,0.4,0.6
	c0.2,0,0.5,0.1,1.1,0.1c0.1,0,0.2,0,0.3,0c0,0,0.1,0,0.2,0c0.7,0,1.2,0.1,1.3,0.2c0.1,0.1,0.1,0.5,0.1,1.3c0,0.1,0,0.2,0,0.2
	c0,0.4,0,0.7,0,0.8c0,0.1,0.2,0.1,0.5,0.2c0.3,0,0.5,0.1,0.5,0.2c0,0.1,0,0.2-0.2,0.5c-0.3,0.5-0.5,0.8-0.8,0.9s-0.8,0.1-1.7,0.1
	c-0.8,0-1.3,0-1.4,0c-0.2,0-0.3-0.1-0.4-0.3c-0.1-0.2-0.1-0.5,0-0.9c0.1-0.4,0.2-0.7,0.4-0.8c0.2-0.2,0.2-0.3,0-0.4
	c-0.2-0.1-0.7-0.2-1.4-0.3c-0.1,0-0.2,0-0.3,0c-0.4-0.1-0.7-0.1-0.8,0c-0.1,0.1-0.1,0.3-0.1,0.7c0,0.1,0,0.2,0,0.3
	c0,0.7-0.1,1.1-0.1,1.3c0,0.2-0.2,0.3-0.4,0.4c-0.1,0-0.9,0.1-2.1,0c-1.3,0-2.3-0.1-2.9-0.1c-0.3,0-0.4,0-0.5,0c0,0,0,0.2,0.2,0.5
	c0.1,0.3,0.2,0.5,0.3,0.6c0,0,0.3,0,0.8-0.1c1.6-0.2,2.7-0.3,3.3-0.2c0.7,0.1,1,0.3,0.9,0.6c-0.2,0.9-0.8,1.8-1.8,2.7
	c-1,0.9-2.2,1.7-3.6,2.3c-0.4,0.2-0.6,0.3-0.7,0.3c-0.1,0.1-0.1,0.1,0,0.2c0,0.1,0.1,0.1,0.2,0.1c0.1,0,0.3,0,0.6-0.1
	c2-0.6,3.6-1.3,4.8-2.1c1.2-0.8,2-1.8,2.5-3c0.2-0.4,0.4-0.7,0.5-0.6c0.1,0,0.3,0.2,0.5,0.7c0.9,2.2,2.4,3.8,4.4,4.9
	c0.3,0.2,0.5,0.2,0.6,0.2s0.1-0.1,0.2-0.3c0.2-0.8,0.6-1.3,1.3-1.5c0.6-0.2,0.5-0.4-0.2-0.5c-1.4-0.4-2.7-0.9-4-1.7
	c-1.3-0.8-1.9-1.4-1.9-1.9c0-0.1,0-0.2,0.1-0.2c0.1,0,0.4-0.1,0.8-0.1c0.3,0,1,0,2.1,0c1.4,0,2.3,0,2.7-0.1c0.5-0.1,0.7-0.3,0.5-0.6
	c-0.1-0.2-0.6-0.6-1.4-1.3c-0.3-0.2-0.4-0.4-0.5-0.4c0-0.1,0.1-0.2,0.2-0.4c0.1-0.1,0.2-0.2,0.2-0.4s0-0.5,0-1
	c-0.1-1.8-0.1-3-0.1-3.8c0-0.7,0.2-1.2,0.4-1.3c0.3-0.2,0.4-0.3,0.4-0.4c0-0.1-0.2-0.3-0.5-0.6c-0.3-0.3-0.7-0.6-1.1-0.9
	c-0.2-0.2-0.4-0.2-0.5-0.2s-0.3,0.2-0.5,0.6c-0.2,0.3-0.4,0.5-0.5,0.5c-0.1,0-0.6,0.1-1.3,0.1c-0.7,0-1.1,0-1.3,0
	c-0.2,0-0.2-0.1-0.2-0.2c0-0.1,0.3-0.5,1-1.1c0.7-0.6,1.1-0.9,1.3-0.9c0.4,0,0.5-0.1,0.5-0.3c0-0.2-0.3-0.5-0.8-1
	c-0.5-0.5-0.9-0.8-1.1-0.8c-0.2,0-0.4,0.1-0.7,0.5c-0.4,0.4-1,0.7-1.8,0.8s-1.1-0.1-1.1-0.5c0-0.2,0.1-0.4,0.3-0.7
	c0.2-0.3,0.4-0.5,0.5-0.5c0.7-0.1,0.1-0.4-1.5-0.8c-0.5-0.1-0.9-0.2-1-0.2c-0.1,0-0.2,0.1-0.2,0.2c-0.4,1.6-0.8,3-1.5,4.3
	c-0.4,0.7-0.6,1.1-0.8,1.2c-0.2,0-0.5-0.2-1-0.7c-0.5-0.5-0.7-0.8-0.8-0.7c0,0-0.1,0.1-0.3,0.4c0,0-0.1,0.1-0.1,0.1
	c-0.4,0.7-0.7,0.9-0.8,0.8c-0.1-0.2-0.2-0.8-0.2-2c0-0.9,0-1.4,0-1.6c0-0.2,0.1-0.4,0.3-0.5c0.2-0.2,0.2-0.3-0.1-0.5
	c-0.3-0.2-0.9-0.4-1.9-0.6c0,0,0,0-0.1,0c-0.3-0.1-0.4-0.1-0.5,0c0,0,0,0.2,0,0.5c0,0,0,0.1,0,0.1c0.1,0.9,0.2,1.9,0.2,2.9
	c0,1,0,1.6-0.1,1.8c-0.1,0.2-0.3,0.3-0.6,0.3c-0.3,0-0.8,0-1.6-0.1c0,0-0.1,0-0.1,0l-0.6,0c0,0,0.1,0.2,0.2,0.6
	c0.2,0.3,0.3,0.5,0.4,0.5l0.1,0c0.1,0,0.2-0.1,0.3-0.1c0.6-0.2,1-0.2,1.3-0.2c0.3,0,0.4,0.3,0.5,0.6c0.1,0.3,0.1,1,0.1,1.9
	c0,0.1,0,0.3,0,0.6c0,0.7,0,1.2,0,1.4c-0.1,0.3-0.2,0.5-0.4,0.6c-0.2,0.1-0.6,0.2-1.2,0.4c-0.2,0.1-0.4,0.1-0.5,0.1
	c-0.1,0-0.2,0-0.3,0.1c-0.4,0.1-0.5,0.2-0.6,0.3s0,0.4,0.2,0.8c0.1,0.2,0.1,0.3,0.1,0.4c0.3,0.7,0.4,1.1,0.5,1.2
	c0.1,0.1,0.2,0,0.3-0.1c0.2-0.3,0.5-0.6,0.9-0.8c0.4-0.2,0.7-0.3,0.8-0.1c0.1,0.1,0.1,0.3,0.1,0.6c0,0.3,0,1.1,0,2.4
	c0,0.1,0,0.3,0,0.6c0,1,0,1.7,0,1.9c-0.1,0.4-0.2,0.6-0.5,0.7c-0.2,0-0.6,0-1.2,0c-0.1,0-0.2,0-0.3,0c-0.5,0-0.7,0-0.8,0
	c-0.1,0.1,0,0.2,0.4,0.3c0.5,0.1,0.9,0.3,1.2,0.7c0.3,0.4,0.5,0.8,0.5,1.2C231.9,69.1,232,69.1,232,69.2z M240.3,57.6
	c-0.2,0.2-0.3,0.2-0.4,0.2c-0.1-0.1-0.2-0.2-0.2-0.5c0-0.3,0-0.9,0-1.9c0-1,0-1.6,0.1-1.7c0.1-0.2,0.3-0.3,0.6-0.3
	c0.4,0,0.6,0,0.8,0.1c0.3,0.2,0.3,0.9,0.1,1.9C241.1,56.5,240.8,57.2,240.3,57.6z M247.5,56.3c-0.2,0.1-0.5,0.2-0.9,0.1
	c-0.4,0-0.6-0.2-0.7-0.3c-0.1-0.2-0.2-0.6-0.1-1.3c0-0.7,0.1-1.1,0.2-1.2c0.1-0.1,0.3-0.1,0.7-0.1c0.4,0,0.7,0,0.8,0.1
	c0.2,0.2,0.3,0.6,0.3,1.4C247.9,55.7,247.8,56.2,247.5,56.3z M241.7,52.8c-0.9,0-1.4,0-1.6,0c-0.4-0.1-0.4-0.5,0.2-1.2l0,0
	c0.2-0.3,0.3-0.4,0.4-0.6c0.3-0.4,0.5-0.6,0.7-0.6c0.2-0.1,0.6-0.1,1.4-0.1c0.7,0,1.1,0,1.2,0.1c0.1,0,0.2,0.2,0.2,0.4
	c0,0.3-0.1,0.6-0.3,1.1c-0.2,0.4-0.4,0.7-0.6,0.8C243.1,52.7,242.6,52.7,241.7,52.8z M265.2,69.1c0.1,0.1,0.3,0,0.6-0.2
	c1.1-0.9,2.1-2,2.8-3.5c0.3-0.5,0.5-0.8,0.6-0.8c0.1,0,0.3,0.2,0.6,0.7c0.5,1.1,1.1,1.9,1.9,2.4c0.8,0.5,1.8,0.8,3.1,0.9
	c0.5,0,1.3,0,2.2,0s1.4,0,1.4,0c0,0,0.1-0.2,0.1-0.5c0.1-0.6,0.3-1,0.6-1.1c0.2-0.2,0.4-0.3,0.4-0.3c0,0-0.2-0.1-0.6-0.1
	c-0.3,0-0.9,0-2,0c-0.2,0-0.5,0-0.9,0c-0.8,0-1.3,0-1.5-0.1c-0.3-0.1-0.5-0.2-0.6-0.5c0-0.2-0.1-0.7,0-1.4c0-0.4,0-0.6,0-0.8
	s0-0.5,0-0.8c0-0.7,0-1.2,0-1.4c0-0.3,0.2-0.4,0.4-0.5c0.2,0,0.6-0.1,1.2-0.1c0.3,0,0.6,0,0.8,0c1.1,0,1.8,0,2,0
	c0.2,0,0.3-0.1,0.4-0.2c0.1-0.1,0-0.2,0-0.3c-0.1-0.1-0.3-0.4-0.6-0.7c-0.6-0.6-1-0.9-1.2-0.9c-0.2,0-0.4,0.2-0.7,0.6
	c-0.3,0.4-0.5,0.7-0.6,0.8c-0.2,0.1-0.4,0.1-0.7,0.1c-0.3,0-0.5,0-0.6-0.1c-0.1-0.1-0.2-0.3-0.2-0.6c0-0.3,0-0.9,0-1.8
	c0,0,0-0.1,0-0.2c0-0.9,0-1.4,0-1.7c0-0.3,0.1-0.5,0.3-0.6c0.1-0.1,0.3-0.1,0.7-0.1c0,0,0.1,0,0.1,0c0.5,0,0.8,0.1,0.9,0.3
	c0.1,0.2,0,0.7-0.3,1.5c-0.2,0.6-0.3,1-0.3,1.1c0,0.1,0.2,0.1,0.5-0.1c0.2-0.2,0.7-0.7,1.5-1.4c0.7-0.6,1.1-1,1.3-1
	c0.4,0,0.5-0.2,0.3-0.5c-0.2-0.4-0.6-0.8-1.2-1.3c-0.3-0.2-0.4-0.3-0.5-0.3c-0.1,0-0.3,0.2-0.6,0.5c0,0-0.1,0.1-0.1,0.1
	c-0.2,0.2-0.5,0.4-0.7,0.4c-0.2,0-1,0-2.2,0c-0.3,0-0.5,0-0.6,0c-1.7,0-2.8,0-3.3,0c-0.7,0-1-0.1-1.1-0.3c0-0.1,0.1-0.4,0.5-0.8
	c0.1-0.1,0.2-0.3,0.4-0.6c0.1-0.1,0.1-0.2,0.2-0.2c0.3-0.4,0.5-0.7,0.7-0.7c0.1,0,1.4-0.1,4-0.1c0.2,0,0.3,0,0.4,0
	c2.2,0,3.4,0,3.8,0c0.4,0,0.6-0.1,0.7-0.2c0.1-0.1,0-0.4-0.4-0.8c-0.3-0.4-0.8-0.8-1.3-1.2c-0.3-0.2-0.4-0.2-0.6-0.2
	c-0.1,0-0.3,0.3-0.6,0.8c0,0,0,0.1-0.1,0.1c-0.3,0.4-0.5,0.6-0.7,0.7c-0.2,0.1-0.8,0.1-1.9,0.1c-0.1,0-0.3,0-0.3,0
	c-0.1,0-0.2,0-0.4,0c-0.8,0-1.3,0-1.5,0c-0.3,0-0.4-0.2-0.4-0.3c0-0.1,0.1-0.4,0.3-0.8c0-0.1,0.1-0.1,0.1-0.2
	c0.1-0.1,0.1-0.3,0.2-0.5l0.1-0.3c0-0.1,0.1-0.2,0.2-0.3c0.1-0.2,0.3-0.3,0.4-0.3c0.3-0.1,0.3-0.3,0-0.4c-0.2-0.2-0.8-0.4-1.8-0.7
	c-0.5-0.2-0.8-0.3-0.9-0.3c-0.1,0-0.1,0.1-0.1,0.3c0,0.5-0.1,1.2-0.4,2.4c-0.3,1.1-0.5,1.8-0.6,2c-0.1,0.2-0.3,0.3-0.4,0.2
	c-0.2-0.1-0.5-0.4-1.1-0.9c0,0-0.1-0.1-0.2-0.2c-0.4-0.3-0.6-0.5-0.7-0.5c-0.1,0-0.2,0.1-0.4,0.4c0,0.1-0.1,0.1-0.1,0.2
	c-0.7,1.1-1.3,1.3-1.7,0.8c-0.1-0.2-0.2-0.8-0.1-1.7c0.1-0.9,0.2-1.4,0.3-1.6c0.2-0.2,0.2-0.3,0-0.5c-0.2-0.1-0.8-0.3-1.8-0.6
	c0,0-0.1,0-0.1,0c-0.4-0.1-0.6-0.2-0.7-0.1c0,0-0.1,0.2,0,0.5c0,0,0,0.1,0,0.1c0.1,0.8,0.2,1.6,0.2,2.4c0,0.8,0,1.3-0.1,1.4
	c-0.2,0.3-1.1,0.4-2.8,0.2c-0.5,0-0.7-0.1-0.8-0.1c-0.1,0-0.1,0.2,0.1,0.6c0.1,0.2,0.2,0.4,0.2,0.4c0.1,0,0.2,0,0.5-0.1
	c0,0,0.1,0,0.1,0c0.6-0.2,0.9-0.2,1.1-0.2c0.2,0,0.4,0.2,0.5,0.6c0.1,0.3,0.1,0.9,0.1,1.8c0,3.3-0.2,6-0.6,8.1c-0.4,2.1-1.1,4-2,5.5
	c-0.1,0.2-0.2,0.4-0.2,0.5c0,0.1,0,0.2,0.1,0.2c0.1,0.1,0.1,0.1,0.2,0.1c0.1,0,0.3-0.2,0.7-0.7c0.4-0.5,0.7-0.9,1-1.2
	c0.4-0.6,0.7-0.9,0.8-0.7c0,0,0.2,0.1,0.6,0.2c0.4,0.1,0.7,0.3,0.9,0.5c0.2,0.2,0.3,0.6,0.4,1c0,0.3,0.1,0.4,0.2,0.4
	c0.1,0,0.4,0,0.8-0.1c0.8-0.2,1.3-0.6,1.7-1.2c0.4-0.7,0.8-1.7,1-3.1c0.2-1.3,0.4-3.3,0.5-5.8c0-0.6,0.1-1,0.1-1.2s0.2-0.3,0.5-0.4
	c0.2-0.1,0.3-0.2,0.3-0.3c0-0.1-0.1-0.2-0.3-0.5c-0.1-0.1-0.3-0.3-0.4-0.5c-0.1-0.1-0.2-0.2-0.5-0.4c-0.1-0.1-0.3-0.2-0.6-0.3
	c-0.2-0.1-0.3-0.1-0.4-0.1c-0.1,0-0.2,0.2-0.5,0.5c-0.3,0.3-0.5,0.5-0.6,0.6c-0.1,0.1-0.4,0.1-0.7,0.1c-0.5,0-0.7-0.1-0.8-0.2
	c-0.1-0.1-0.1-0.6-0.1-1.3c0-0.1,0-0.3,0-0.5c0-0.6,0-1,0.1-1.1c0.1-0.2,0.3-0.4,0.6-0.4c0.2,0,0.7,0,1.5,0c0.2,0,0.4,0,0.6,0
	c1.1,0,1.8,0,2.1,0.1c0.4,0.1,0.5,0.3,0.4,0.6c0,0.2-0.3,0.7-0.8,1.5c-0.2,0.3-0.3,0.4-0.3,0.5c0,0.1,0,0.1,0,0.2c0.1,0,0.2,0,0.2,0
	s0.2-0.1,0.4-0.3c0.2-0.2,0.4-0.2,0.6-0.2c0.2,0,0.3,0.2,0.4,0.4c0.1,0.2,0.2,0.2,0.2,0.3c0.1,0,0.3,0,0.6-0.1
	c1.6-0.3,2.5-0.3,2.7,0.1c0,0.1,0.1,1.6,0.1,4.5c0,2.9,0,4.6,0,4.9c0,0.4-0.2,0.5-0.5,0.5c-0.3-0.1-0.6-0.4-1-1
	c-0.4-0.5-0.6-0.9-0.6-1.2s0-0.8,0.1-1.4c0.1-0.3,0.2-0.9,0.3-1.6c0.1-0.5,0.1-0.8,0.2-1c0.1-0.2,0.2-0.3,0.3-0.4
	c0.4-0.3-0.2-0.5-1.9-0.6c-0.3,0-0.5,0-0.6,0c0,0-0.1,0.2-0.1,0.6c0,2.2-0.2,4-0.6,5.4c-0.4,1.4-1,2.8-1.9,4.1
	C265.2,68.8,265.1,69.1,265.2,69.1z M262.2,66.3c-0.4,0-0.6,0-0.7,0l-0.3,0c-0.1,0-0.3,0-0.3,0c-0.4,0-0.6-0.1-0.6-0.2
	c0-0.1,0.1-0.5,0.4-1.2c0.8-1.7,1.3-4,1.6-6.7c0.1-0.7,0.2-1.1,0.3-1.2c0.1-0.1,0.4-0.2,0.9-0.2c0.4,0,0.7,0,0.8,0.1
	c0.1,0.1,0.2,0.4,0.2,0.9c0,0.3,0,1.1-0.1,2.4c-0.1,2.1-0.3,3.5-0.5,4.4c-0.2,0.9-0.5,1.4-0.9,1.6C262.8,66.2,262.5,66.3,262.2,66.3
	z M297.3,69.1c0.2,0.1,0.4,0.2,0.8,0.1c0.4-0.1,0.8-0.2,1.1-0.5c0.1-0.1,0.2-0.3,0.2-0.4c0-0.1,0-0.6,0-1.3c0-0.1,0-0.3,0-0.6
	c0-0.5,0-0.9,0-1c0.1-0.2,0.3-0.3,0.7-0.4c0.3,0,0.9,0,1.9,0c0.5,0,0.8,0,1.1,0c1.7,0,2.8,0,3.1,0c0.3,0,0.5-0.1,0.6-0.2
	c0.1-0.2-0.3-0.7-1.3-1.6c-0.4-0.4-0.7-0.5-0.9-0.5c-0.1,0-0.4,0.3-0.7,0.7l0,0c0,0,0,0.1-0.1,0.1c-0.3,0.4-0.5,0.6-0.7,0.6
	c-0.2,0.1-0.7,0.1-1.5,0.1c-0.1,0-0.2,0-0.3,0s-0.2,0-0.3,0c-0.7,0-1.1,0-1.2,0c-0.3,0-0.4-0.2-0.5-0.3c0-0.1-0.1-0.4-0.1-0.9
	c0-0.1,0-0.2,0-0.2c0-0.1,0-0.2,0-0.4c0-0.4,0-0.7,0.1-0.8c0.1-0.2,0.3-0.3,0.6-0.3c0.3,0,0.9,0,1.8,0c0.4,0,0.6,0,0.8,0
	c1.2,0,1.9,0,2.3,0c0.4,0,0.7,0,0.8-0.1c0.1,0,0.1-0.1,0.1-0.2c0-0.1-0.2-0.4-0.7-0.9c-0.5-0.5-0.9-0.8-1.2-0.9
	c-0.1-0.1-0.2-0.1-0.3,0c-0.1,0-0.3,0.3-0.5,0.6c0,0,0,0.1-0.1,0.1c-0.3,0.4-0.5,0.6-0.6,0.7c-0.1,0.1-0.5,0.1-1.1,0.1
	c-0.1,0-0.2,0-0.2,0c0,0,0,0-0.1,0c-0.8,0-1.3-0.1-1.5-0.2c-0.1-0.1-0.2-0.5-0.2-1.2v-0.1c0-0.6,0.1-1,0.2-1.1s0.5-0.2,1.2-0.2
	c0.6,0,1,0,1.2,0.1c0.2,0.1,0.3,0.2,0.3,0.4c0,0.1,0,0.2,0.1,0.3c0.1,0,0.3,0,0.6-0.1c0.6-0.1,1-0.3,1.2-0.5
	c0.2-0.2,0.2-0.6,0.2-1.2c-0.1-1-0.1-1.7,0-1.9c0-0.4,0.2-0.6,0.4-0.7c0.2-0.1,0.5-0.1,1.1-0.1c0.8,0,1.2-0.1,1.2-0.3
	c0.1-0.2-0.2-0.7-0.9-1.3c-0.3-0.3-0.5-0.4-0.6-0.4c-0.1,0-0.2,0.1-0.4,0.4c-0.3,0.4-0.5,0.6-0.7,0.6c-0.1-0.1-0.2-0.4-0.2-1
	c0-0.4,0-0.7,0.1-0.9c0.1-0.2,0.2-0.3,0.4-0.4c0.3-0.1,0.4-0.3,0.3-0.5c-0.1-0.2-0.3-0.5-0.8-0.9c-0.6-0.5-1-0.7-1.1-0.7
	c-0.2,0-0.4,0.1-0.7,0.5c-0.4,0.4-0.9,0.7-1.8,0.7c-0.8,0-1.3-0.1-1.4-0.5c-0.1-0.2-0.1-0.5,0-0.8c0.1-0.3,0.2-0.5,0.4-0.6
	c0.2-0.1,0.2-0.3,0-0.4c-0.2-0.2-0.8-0.4-1.6-0.6c-0.5-0.1-0.8-0.2-0.9-0.2s-0.1,0.1-0.1,0.2c0,0.2,0.1,0.6,0.1,1.2c0,0.6,0,1,0,1.1
	c-0.1,0.5-1.4,0.6-3.9,0.4c-0.4,0-0.6,0-0.6,0c0,0,0,0.2,0.2,0.5c0.1,0.3,0.2,0.4,0.3,0.5c0.1,0,0.2,0.1,0.3,0
	c0.6-0.1,1.4-0.2,2.4-0.3c0.7,0,1.1,0,1.2,0.2c0.1,0.1,0.2,0.5,0.2,1.3c0,0.1,0,0.2,0,0.3c0,0.4,0,0.7-0.1,0.8
	c0,0.2-0.2,0.3-0.5,0.3c-0.2,0-0.6,0-1.3,0c-0.2,0-0.3,0-0.4,0c-1,0-1.5,0-1.7,0c-0.2,0-0.3-0.1-0.4-0.2c-0.1-0.1-0.6-0.4-1.5-0.9
	c-0.9-0.5-1.4-0.7-1.4-0.7c-0.1,0-0.1,0.2-0.2,0.5c-0.3,1.2-0.8,2.4-1.5,3.8c-0.7,1.4-1.5,2.7-2.4,3.8c-0.2,0.3-0.4,0.5-0.4,0.6
	c0,0.1,0,0.2,0,0.2c0.1,0.1,0.7-0.3,1.7-1.2c0.4-0.4,0.7-0.6,0.8-0.6c0.1,0,0.2,0,0.3,0.2c0.1,0.2,0.1,1.3,0.1,3.4
	c0,2.1-0.1,3.8-0.2,5.2c0,0.6-0.1,1-0.1,1.2c0,0.1,0,0.2,0.1,0.3c0.1,0.1,0.2,0.2,0.3,0.2c0.3,0,0.6,0,1-0.1
	c0.4-0.1,0.7-0.3,0.9-0.5c0.1-0.1,0.1-0.2,0.1-0.2s0-0.3,0-0.7c-0.1-2.1-0.1-4.5-0.1-7.3c0-1.7,0-2.7,0-3c0-0.3,0.1-0.5,0.3-0.6
	c0.3-0.2,0.4-0.3,0.1-0.4c-0.3-0.1-0.4-0.2-0.3-0.4s0.3-0.5,0.6-1.1c0,0,0.1-0.1,0.1-0.1c0.2-0.3,0.4-0.4,0.6-0.5
	c0.2,0,0.9-0.1,2-0.1c0.2,0,0.4,0,0.5,0c0.2,0,0.4,0,0.7,0c0.8,0,1.4,0,1.6,0c0.3,0,0.5,0.1,0.6,0.3c0,0.1,0.1,0.4,0.1,0.8
	c0,0.1,0,0.3,0,0.3c0,0.1,0,0.1,0,0.2c0,0.5,0,0.8,0,0.9c-0.1,0.2-0.2,0.3-0.5,0.3c-0.2,0-0.6,0-1.2,0c-0.1,0-0.2,0-0.3,0
	c-0.7,0-1.4,0-2.1-0.1c-0.4,0-0.6,0-0.6,0c0,0,0,0.2,0.2,0.5c0,0,0,0,0,0.1c0.1,0.3,0.2,0.4,0.3,0.4c0.1,0,0.2,0,0.4,0
	c0.5-0.1,1.2-0.2,2-0.2c0.8,0,1.3,0,1.4,0c0.2,0.1,0.4,0.6,0.4,1.3c0,0.7-0.1,1.2-0.3,1.3c-0.1,0.1-0.7,0.1-1.8,0.1
	c-1.1,0-2.1-0.1-2.9-0.1c-0.2,0-0.3,0-0.3,0c0,0,0.1,0.2,0.2,0.6c0.1,0.3,0.2,0.4,0.3,0.4c0.1,0,0.2,0,0.4,0h0.1
	c0.7-0.1,1.5-0.2,2.4-0.2c0.9,0,1.5,0,1.6,0c0.2,0.1,0.3,0.5,0.4,1.2c0.1,0.7,0,1.1-0.1,1.4c-0.1,0.2-0.7,0.3-1.8,0.4
	c-1.1,0-2.3,0-3.7-0.2c-0.3,0-0.4,0-0.5,0c0,0,0.1,0.2,0.2,0.5c0,0,0,0,0,0.1c0.1,0.2,0.2,0.4,0.3,0.4c0.1,0,0.3,0,0.6,0
	c0.1,0,0.1,0,0.2,0c0.8-0.1,1.8-0.2,2.7-0.2c1,0,1.6,0,1.7,0.1c0.2,0.1,0.3,0.3,0.3,0.7c0,0.4,0,1.1,0,2.2c0,0.5,0,0.9,0,1
	C297.2,69,297.2,69.1,297.3,69.1z M300.9,57.2c-0.7,0-1,0-1.2-0.1c-0.2-0.1-0.3-0.5-0.3-1.2c0-0.7,0-1.2,0.1-1.3
	c0.2-0.2,0.6-0.3,1.3-0.3c0.7,0,1.2,0.1,1.3,0.3c0.1,0.2,0.2,0.6,0.1,1.3c0,0.7-0.1,1.1-0.3,1.2C301.9,57.1,301.5,57.2,300.9,57.2z
	 M285.5,53.7c0.1,0.1,0.8-0.2,1.8-1c1.1-0.8,2.1-1.8,3.2-2.8c0.5-0.5,0.9-0.9,1-1c0.1-0.1,0.2-0.2,0.4-0.2c0.3,0,0.3-0.1,0.3-0.2
	c-0.1-0.1-0.3-0.3-0.7-0.5c-0.1,0-0.3-0.1-0.5-0.3c-0.3-0.2-0.5-0.3-0.7-0.4c-0.4-0.2-0.6-0.3-0.7-0.4c-0.1,0-0.1,0-0.2,0.2
	c-0.2,0.8-0.7,1.7-1.3,2.9s-1.4,2.2-2.2,3.1C285.6,53.4,285.5,53.7,285.5,53.7z M300.9,53.5c-0.7,0-1,0-1.2-0.1
	c-0.2-0.1-0.3-0.5-0.3-1.2c0-0.7,0-1.1,0.1-1.3c0.2-0.2,0.6-0.3,1.3-0.3c0.7,0,1.2,0.1,1.3,0.3c0.1,0.2,0.2,0.6,0.1,1.3
	c0,0.7-0.1,1.1-0.3,1.2C301.9,53.5,301.5,53.5,300.9,53.5z M36.1,93.3c0.2,0.1,0.4,0.1,0.7,0c0.3,0,0.6-0.1,0.9-0.2l0,0
	c0.2-0.1,0.3-0.2,0.4-0.3c0-0.1,0-0.4,0-0.9c0-0.1,0-0.1,0-0.2c0-0.7,0-1.1,0.1-1.3c0.1-0.1,0.4-0.3,1-0.4h0
	c1.3-0.2,2.1-0.3,2.4-0.4c0.3-0.1,0.4-0.2,0.4-0.3c0-0.1-0.1-0.1-0.2-0.1c-0.1,0-0.6,0-1.5,0h0c-0.2,0-0.4,0-0.6,0c-0.6,0-1,0-1.2,0
	c-0.2-0.1-0.4-0.2-0.4-0.6c0-0.2-0.1-0.7,0-1.6c0-0.4,0-0.7,0-0.9c0-0.2,0-0.5,0-0.9c0-0.8,0-1.3,0-1.5c0-0.3,0.2-0.5,0.4-0.6
	c0.1,0,0.5-0.1,1-0.1c0.2,0,0.4,0,0.6,0c1,0,1.5,0,1.7-0.1c0.2-0.1,0.1-0.2-0.1-0.5c-0.3-0.3-0.3-0.7-0.1-1.2
	c0.2-0.5,0.5-0.9,0.9-1.1c0.4-0.2,0.4-0.4-0.2-0.4c-2.2-0.2-3.2-0.4-3.2-0.8c0-0.1,0.2-0.5,0.7-1c0.5-0.5,0.8-0.8,1-0.9
	c0.2,0,0.3-0.1,0.3-0.2c0-0.1-0.1-0.3-0.3-0.5c-0.2-0.2-0.3-0.4-0.2-0.5c0.1-0.1,0.3-0.2,0.6-0.2c0.4-0.1,0.7-0.1,0.8-0.2
	c0.2-0.1,0.3-0.2,0.4-0.3c0.1-0.2,0.1-0.3,0.1-0.5c0-0.2-0.1-0.3-0.2-0.4c-0.2-0.1-0.4-0.4-0.4-0.9c0-0.3-0.1-0.5-0.1-0.5
	c-0.1,0-0.2,0.1-0.3,0.4c-0.1,0.4-0.3,0.6-0.4,0.7c-0.2,0.1-0.4,0.2-0.7,0.2c-0.5,0-0.8-0.2-0.8-0.6c-0.1-0.4,0.1-0.7,0.6-1
	c0.3-0.2,0-0.6-0.8-1.3C39,71.2,38.7,71,38.6,71c-0.1,0-0.3,0.2-0.6,0.5c-0.4,0.4-0.8,0.7-1.3,0.7c-0.5,0-1.2-0.2-2.1-0.6
	c-0.1,0-0.2-0.1-0.3-0.1c-0.4-0.2-0.6-0.3-0.7-0.2c0,0-0.1,0.3-0.1,0.7c0,0.1,0,0.3,0,0.3c0,1-0.1,1.8-0.3,2.3
	c-0.2,0.5-0.5,1-1.1,1.4c-0.2,0.1-0.2,0.2-0.2,0.4s0.1,0.2,0.3,0.1c0.2,0,0.4,0.1,0.6,0.5c0.1,0.1,0.1,0.2,0.2,0.3
	c0,0,0.1,0,0.2-0.1c0.1-0.1,0.3-0.1,0.5,0c0.2,0.1,0.4,0.3,0.6,0.6c0.2,0.3,0.5,0.7,1,1.2c0.2,0.3,0.1,0.7-0.6,1.1
	c-0.6,0.4-1.5,0.8-2.8,1.2c-0.4,0.1-0.6,0.2-0.6,0.3c-0.1,0,0,0.1,0.1,0.2c0.1,0.1,0.7,0,1.8-0.3c1.1-0.3,2-0.6,2.7-0.9
	c0.4-0.2,0.7-0.3,0.9-0.3c0.2,0,0.6,0.2,1.2,0.4c0.6,0.3,1,0.5,1.1,0.7c0.1,0.2,0,0.4-0.3,0.7c-0.1,0.1-0.5,0.2-1.1,0.2
	c-0.6,0-2.6,0-6.1,0c-0.1,0-0.4,0-0.6,0c-2.5,0-4.1,0-4.9,0c-1.2,0-2,0-2.5-0.1c-0.4-0.1-0.7-0.2-0.7-0.3c0-0.1,0.1-0.2,0.3-0.5
	c0,0,0.1-0.1,0.1-0.1c0.3-0.4,0.5-0.6,0.6-0.8c0,0,0-0.1,0.1-0.1c0.2-0.3,0.4-0.5,0.6-0.6s0.9-0.1,1.9-0.1c0.2,0,0.3,0,0.5,0
	c0.9,0,1.5,0,1.8,0c0.4,0,0.6,0.1,0.7,0.1c0.1,0.1,0.1,0.2,0.1,0.4c0,0.2,0.1,0.3,0.2,0.3c0.2,0,0.4,0,0.9-0.2
	c0.4-0.1,0.6-0.2,0.7-0.4c0.1-0.1,0.1-0.5,0.1-1.1c0,0,0-0.1,0-0.1c0-0.7,0-1.1,0-1.2c0-0.1,0.1-0.3,0.3-0.4l0,0
	c0.2-0.1,0.3-0.3,0.3-0.4s-0.3-0.4-0.6-0.7c-0.5-0.5-0.6-0.8-0.1-0.8c0.3-0.1,0.5-0.2,0.4-0.4c0-0.2-0.2-0.5-0.6-0.9
	c-0.4-0.4-0.6-0.6-0.6-0.7c0-0.1,0.3-0.2,0.9-0.2c0.6,0,0.9-0.2,0.9-0.4c0-0.3-0.4-0.6-1.1-1.2c-0.3-0.3-0.5-0.4-0.6-0.4
	s-0.3,0.2-0.5,0.5c-0.3,0.4-0.5,0.6-0.7,0.7c-0.2,0.1-0.5,0.1-0.8,0c-0.2,0-0.3-0.1-0.4-0.2c0-0.1,0-0.3,0.1-0.4
	c0.2-0.1,0.1-0.3-0.1-0.4s-0.8-0.3-1.7-0.6c0,0-0.1,0-0.1,0C26.1,71,26,71,25.9,71c0,0,0,0.2,0,0.5c0,0.1,0,0.1,0,0.1
	c0,0.4,0,0.7-0.2,0.9c-0.1,0.2-0.5,0.2-0.9,0.3c-0.4,0-1.2,0-2.3-0.1c-0.4,0-0.7,0-0.8,0c-0.1,0-0.2,0-0.2,0.1
	c0,0.1,0.1,0.2,0.2,0.5c0,0,0,0.1,0.1,0.1c0.1,0.2,0.2,0.3,0.3,0.3c0.1,0,0.3,0,0.6-0.1c0.1,0,0.1,0,0.2,0c0.5-0.1,1-0.1,1.6-0.1
	c0.6,0,1,0,1.1,0.1c0.2,0.1,0.3,0.4,0.3,0.7c0,0.3-0.1,0.5-0.3,0.6c-0.1,0.1-0.6,0.1-1.5,0.1c-0.9,0-1.5-0.1-1.7-0.1
	c-0.2,0-0.1,0.1,0,0.5c0.4,0.8,0.4,2,0.2,3.6c-0.2,1.6-0.6,2.7-1.2,3.4c-0.1,0.2-0.2,0.3-0.2,0.4c0,0.1,0.2,0.1,0.4,0
	c0.3-0.1,0.5,0,0.7,0.4c0.1,0.2,0.2,0.3,0.3,0.3c0.1,0,0.2,0,0.5,0c0.6-0.2,1.2-0.2,1.8-0.2c0.5,0,0.9,0.1,1,0.3
	c0.1,0.1,0.1,1.1,0.1,3c0,1.9,0,2.9-0.1,3c-0.1,0.1-0.4,0.2-0.8,0.3c-0.4,0-1.3,0.1-2.7,0.1c0,0-0.1,0-0.2,0c-0.3,0-0.4,0-0.4,0.1
	c0,0.1,0.1,0.4,0.3,0.8c0,0.1,0.1,0.3,0.1,0.3c0,0.1,0.1,0.2,0.1,0.3c0.2,0.6,0.4,0.9,0.4,1c0.1,0.1,0.2,0.1,0.3,0
	c0,0,0.1-0.1,0.1-0.1c0.2-0.1,0.5-0.2,0.8-0.3c0.4-0.1,1.4-0.2,3.2-0.4c3-0.3,5.6-0.6,7.5-0.9c0.6-0.1,1,0,1.1,0.1
	c0.1,0.1,0.2,0.6,0.1,1.3c0,0.5,0,0.8,0,0.9C36,93.1,36,93.2,36.1,93.3z M29.4,89.6c-0.4,0-0.7,0-0.8,0c-0.1,0-0.1-0.1-0.2-0.1
	c-0.2,0-0.3-0.2-0.2-0.7c0.1-0.5,0.2-0.7,0.4-0.8c0.1-0.1,1.3-0.1,3.6-0.1s3.4,0,3.6,0.1c0.2,0.1,0.3,0.3,0.4,0.6s-0.1,0.5-0.3,0.7
	c-0.1,0.1-1.3,0.2-3.6,0.2c-0.4,0-0.9,0-1.7,0C29.9,89.6,29.5,89.6,29.4,89.6z M32.1,87.2c-2.3,0-3.5,0-3.7-0.1
	c-0.2-0.1-0.3-0.4-0.3-0.7c0-0.4,0.2-0.6,0.4-0.7c0.1,0,1.3-0.1,3.6-0.1c2.3,0,3.4,0,3.6,0.1c0.2,0.1,0.4,0.3,0.4,0.7
	c0,0.4-0.1,0.6-0.3,0.7C35.6,87.2,34.4,87.2,32.1,87.2z M32.1,84.9c-2.3,0-3.5,0-3.7-0.1c-0.2-0.1-0.3-0.4-0.3-0.8
	c0-0.4,0.2-0.7,0.4-0.8c0.1-0.1,1.3-0.1,3.6-0.1c2.3,0,3.5,0,3.6,0.1c0.2,0.1,0.3,0.4,0.3,0.8c0,0.4-0.1,0.6-0.3,0.8
	C35.6,84.9,34.4,84.9,32.1,84.9z M29.1,79.3c-0.4,0.2-0.7,0.2-1,0c-0.3-0.2-0.4-0.5-0.4-0.9s0.1-0.8,0.4-0.9c0.3-0.2,0.6-0.2,1,0
	c0.3,0.1,0.4,0.4,0.4,0.9C29.5,78.9,29.4,79.2,29.1,79.3z M25.8,79.3c-0.2,0.1-0.4,0.1-0.7,0.1c-0.3,0-0.5-0.1-0.5-0.3
	c0-0.1-0.1-0.3-0.1-0.6c0-0.4,0-0.6,0.1-0.7c0.1-0.2,0.2-0.3,0.5-0.3c0.3-0.1,0.5,0,0.7,0.1c0.2,0.1,0.4,0.4,0.4,0.9
	C26.1,78.9,26,79.2,25.8,79.3z M36.9,78.5c-0.3,0.1-0.7,0-1.2-0.4c-0.5-0.4-0.7-0.7-0.6-0.9c0.1-0.1,0.5-0.2,1.2-0.2
	c0.8,0,1.2,0,1.3,0.2c0.1,0.1,0.1,0.3,0,0.6C37.4,78.2,37.2,78.4,36.9,78.5z M27,76.8c-1.4,0-2.1,0-2.3-0.1
	c-0.6-0.2-0.9-0.4-0.9-0.6c0-0.2,0.2-0.3,0.7-0.4c0.3,0,1.2-0.1,2.6-0.1c1.5,0,2.3,0,2.4,0c0.2,0.1,0.3,0.2,0.2,0.5
	c-0.1,0.2-0.2,0.4-0.5,0.6C29.1,76.7,28.3,76.8,27,76.8z M36.3,76.4c-1.1,0-1.8,0-2,0c-0.3,0-0.5-0.1-0.5-0.3c0-0.1,0.1-0.3,0.4-0.6
	c0.7-0.6,1.2-1.3,1.3-2.1c0-0.3,0.2-0.5,0.3-0.6s0.5-0.1,0.9-0.1c0.5,0,0.8,0.1,0.9,0.2c0.1,0.1,0.2,0.5,0.2,1.1
	c0,0.6,0.1,0.9,0.1,1.1c0,0.2,0.1,0.3,0.3,0.5c0.4,0.4,0.3,0.6-0.1,0.8C38,76.4,37.4,76.4,36.3,76.4z M29,74.8
	c-0.3,0.2-0.6,0.2-0.8-0.1c-0.2-0.3-0.3-0.6-0.1-0.9c0.1-0.2,0.4-0.3,0.9-0.4c0.5,0,0.8,0,0.9,0.2c0,0.1,0,0.3-0.2,0.6
	C29.3,74.5,29.1,74.7,29,74.8z M53.4,93.2c0.3,0.2,0.7,0.1,1.3-0.1c0.6-0.2,0.8-0.5,0.8-0.8c0,0,0-0.1,0-0.2c0-0.2,0-0.4,0.1-0.5
	c0.1-0.1,0.4-0.2,1-0.2c0.4,0,1.2,0,2.6,0c0.3,0,0.5,0,0.7,0c0.2,0,0.5,0,0.9,0c1.3,0,2.1,0,2.5,0c0.5,0,0.8,0.1,0.9,0.2
	c0.1,0.1,0.1,0.3,0.1,0.5c0,0.1,0,0.1,0,0.2c0,0.4,0,0.6,0.2,0.7c0.2,0.1,0.5,0.1,1-0.1c0.6-0.2,0.9-0.4,1-0.6
	c0.1-0.2,0.2-0.7,0.1-1.5c-0.2-4.8-0.1-7.2,0.4-7.2c0,0,0.1,0,0.3-0.1c0.1-0.1,0.2-0.2,0.2-0.2c0-0.1-0.2-0.3-0.7-0.7
	c-0.5-0.4-0.9-0.7-1.2-0.9c-0.1-0.1-0.3-0.1-0.4,0s-0.3,0.2-0.6,0.5c0,0-0.1,0.1-0.1,0.2c-0.2,0.2-0.5,0.4-0.7,0.4
	c-0.3,0-1.2,0-2.8,0c-0.5,0-0.9,0-1.2,0c-0.3,0-0.7,0-1.2,0c-1.5,0-2.4,0-2.7,0c-0.3,0-0.7-0.2-1.2-0.4c-0.2-0.1-0.3-0.1-0.5-0.2
	c0,0-0.1,0-0.2-0.1c-0.5-0.2-0.7-0.3-0.8-0.3c-0.1,0-0.1,0.2,0,0.5c0,0.1,0,0.1,0,0.1c0.1,1.1,0.2,2.6,0.2,4.5c0,1.9,0,3.6-0.1,5.1
	c0,0.4,0,0.7,0,0.8C53.2,93,53.2,93.1,53.4,93.2z M63.9,90.7c-0.1,0.1-1.5,0.1-4,0.1c-2.6,0-3.9,0-4-0.1c-0.2-0.1-0.3-0.2-0.3-0.4
	c0-0.2,0-0.6,0-1.2c0-0.1,0-0.3,0-0.5c0-0.4,0-0.7,0.1-0.9c0.1-0.2,0.4-0.3,0.8-0.3c0.3,0,1.1,0,2.3,0c0.5,0,0.9,0,1.2,0
	c0.3,0,0.7,0,1.2,0c1.2,0,1.9,0,2.3,0c0.4,0,0.7,0.2,0.8,0.3c0.1,0.1,0.1,0.4,0.1,0.9c0,0.2,0,0.4,0,0.5c0,0.7,0,1.1,0,1.3
	C64.2,90.6,64.1,90.7,63.9,90.7z M59.9,86.8c-2.6,0-4,0-4.1-0.1c-0.1-0.1-0.2-0.2-0.2-0.4c0-0.2,0-0.6,0-1.2c0-0.1,0-0.2,0-0.4
	c0-0.4,0-0.7,0.1-0.8c0.1-0.1,0.4-0.2,0.8-0.3c0.3,0,1.1,0,2.3,0c0.5,0,0.9,0,1.2,0c0.3,0,0.7,0,1.2,0c1.2,0,1.9,0,2.3,0
	c0.4,0,0.7,0.1,0.8,0.3c0.1,0.1,0.1,0.4,0.1,0.8c0,0.2,0,0.3,0,0.4c0,0.6,0,1,0,1.2s-0.1,0.3-0.2,0.4C63.9,86.8,62.5,86.8,59.9,86.8
	z M49.9,80.6c0.1,0,0.1,0.1,0.2,0c0,0,0.1,0,0.2,0c0.7-0.1,1.2-0.2,1.5-0.2c0.3,0,3.4-0.1,9.4-0.1c0.4,0,0.9,0,1.6,0
	c2.8,0,4.6,0,5.3,0c1,0,1.7,0,2-0.1c0.2,0,0.3-0.1,0.3-0.2c0,0,0-0.1,0-0.1c0-0.1-0.1-0.3-0.5-0.6c-0.3-0.3-0.7-0.7-1.2-1l0,0
	c-0.4-0.3-0.6-0.4-0.7-0.4c-0.1,0-0.3,0.2-0.6,0.7c0,0-0.1,0.1-0.1,0.1c0,0-0.1,0.1-0.1,0.2c-0.3,0.4-0.5,0.6-0.7,0.6
	c-0.2,0.1-0.6,0.1-1.4,0.1c-0.2,0-0.3,0-0.4,0c-0.9,0-1.4,0-1.6,0c-0.3,0-0.4-0.2-0.3-0.3c0-0.1,0.3-0.4,0.7-0.8
	c0.2-0.2,0.6-0.6,1.2-1.3c0,0,0.1-0.1,0.1-0.1c0.4-0.5,0.6-0.7,0.7-0.8c0.1-0.1,0.2-0.2,0.3-0.2c0.2-0.1,0.3-0.1,0.3-0.2
	c0-0.1-0.2-0.2-0.5-0.3c-0.6-0.3-0.8-0.5-0.6-0.6c0.2-0.1,1-0.1,2.4-0.1c1.1,0,1.8,0,2,0c0.2,0,0.3-0.1,0.4-0.2
	c0.1-0.2-0.3-0.7-1.3-1.4l0,0c-0.5-0.4-0.8-0.6-1-0.6c-0.1,0-0.4,0.3-0.7,0.7l0,0c0,0-0.1,0.1-0.1,0.2c-0.2,0.4-0.5,0.6-0.7,0.6
	c-0.2,0-0.8,0.1-1.8,0.1c-0.2,0-0.4,0-0.5,0c-1.1,0-1.7,0-1.9,0c-0.2,0-0.3-0.1-0.4-0.1c-0.2-0.2-0.2-0.5-0.2-0.9
	c0-0.4,0.2-0.7,0.4-0.9c0.2-0.2,0.2-0.3-0.1-0.4c-0.2-0.1-0.8-0.3-1.7-0.5c0,0-0.1,0-0.2,0c-0.4-0.1-0.7-0.2-0.7-0.1
	c-0.1,0-0.1,0.2-0.1,0.5c0,0.1,0,0.1,0,0.1c0,0.1,0,0.3,0,0.5c0,0.7,0,1.1,0,1.3c-0.1,0.3-0.3,0.4-0.6,0.5c-0.3,0-0.9,0-1.9,0
	c-0.3,0-0.5,0-0.7,0c-2.2,0-3.8,0-4.7-0.1c-0.2,0-0.3,0-0.4,0c0,0,0.1,0.2,0.2,0.5c0,0,0,0,0,0.1c0.1,0.2,0.2,0.4,0.3,0.4
	c0.1,0,0.3,0,0.5,0c0.1,0,0.1,0,0.2,0c2-0.3,2.9-0.3,2.9,0c0,0.1,0.1,0.3,0.2,0.6c0.4,0.8,0.7,1.6,0.9,2.4c0.2,0.9,0.3,1.4,0.1,1.5
	c-0.1,0.1-0.9,0.1-2.4,0.1c-1.5,0-2.7,0-3.6-0.1c-0.2,0-0.4,0-0.4,0c0,0,0.1,0.2,0.2,0.5C49.7,80.3,49.8,80.5,49.9,80.6z M61.3,79.6
	c-0.2,0.1-0.8,0.1-1.9,0.1c-1.1,0-1.6-0.1-1.7-0.1c-0.1-0.1-0.1-0.1-0.1-0.2c0-0.1,0-0.2,0.1-0.4c0.2-0.5,0.2-1.1-0.1-1.7
	c-0.3-0.6-0.7-1.1-1.4-1.6l0,0c-0.5-0.3-0.8-0.6-0.8-0.6c0-0.1,0.2-0.2,0.7-0.2c0.4,0,1.4,0,2.9,0c0.2,0,0.4,0,0.7,0
	c1.2,0,2,0,2.3,0c0.4,0,0.7,0.1,0.8,0.2c0,0.1,0,0.3,0,0.6c0,0.1,0,0.1,0,0.1c-0.3,1-0.5,1.8-0.8,2.6C61.7,79.1,61.4,79.5,61.3,79.6
	z M78.3,79.9c0.2,0,0.3-0.1,0.3-0.2c0-0.1,0.1-0.5,0.3-1.2c0,0,0-0.1,0-0.1c0.4-2,0.6-3.3,0.6-4.1c0.1-0.9,0.1-1.5,0-1.9
	c-0.1-0.3-0.4-0.5-0.8-0.6c-0.6-0.2-1-0.1-1.3,0.2s-0.5,0.8-0.5,1.4c0,0.5,0.2,1.7,0.5,3.5c0.3,1.8,0.5,2.8,0.6,2.9
	C77.9,79.9,78.1,79.9,78.3,79.9L78.3,79.9z M83,79.9c0.2,0,0.4-0.4,0.6-1.1c0.2-0.7,0.4-2.1,0.7-4.1c0.2-1.1,0.1-1.9-0.1-2.4
	c-0.2-0.5-0.6-0.7-1.3-0.6c-0.5,0-0.9,0.3-1.1,0.7c-0.2,0.4-0.2,1.1-0.1,2.1c0.1,0.6,0.2,1.7,0.5,3.1c0.3,1.4,0.4,2.2,0.4,2.2
	C82.7,79.9,82.8,79.9,83,79.9z M100.2,93.2c0.2,0.1,0.6,0.1,1,0c0.5-0.1,0.9-0.3,1.2-0.6l0,0c0.1-0.1,0.1-0.2,0.1-0.3
	c0-0.2,0-0.7,0-1.6c0-0.5,0-0.8,0-1.1c0-1,0-2.1,0-3.3c0-1.2,0-1.8,0.1-1.9c0.1-0.1,0.2-0.2,0.5-0.2c0.2,0,1,0,2.4,0
	c0.1,0,0.3,0,0.5,0c0.9,0,1.5,0,1.7,0c0.3,0,0.5,0.1,0.6,0.2c0,0.1,0.1,0.3,0,0.6c0,0.1,0,0.1,0,0.2c0,0.5,0,0.7,0.1,0.8
	c0.1,0.1,0.4,0.1,0.9,0c0.7-0.1,1.1-0.3,1.2-0.5c0.1-0.2,0.2-0.7,0.1-1.6c-0.1-2.6-0.1-4.4-0.1-5.2c0-0.8,0.2-1.3,0.4-1.4
	c0,0,0,0,0.1,0c0.3-0.2,0.4-0.3,0.4-0.4c0-0.1-0.3-0.5-1-1c-0.7-0.5-1.1-0.8-1.3-0.8c-0.1,0-0.3,0.2-0.7,0.7c0,0,0,0.1-0.1,0.1
	c-0.2,0.2-0.4,0.4-0.6,0.4c-0.2,0-0.8,0-1.9,0c-0.2,0-0.4,0-0.6,0c-0.2,0-0.5,0-0.8,0c-0.8,0-1.3,0-1.5,0c-0.3,0-0.5-0.2-0.6-0.4
	c0-0.1-0.1-0.5,0-1c0-0.2,0-0.4,0-0.5c0-0.8,0-1.4,0-1.5c0-0.2,0.1-0.3,0.3-0.5c0.2-0.2,0.2-0.4-0.1-0.5c-0.2-0.1-0.9-0.4-2-0.6
	c-0.4-0.1-0.7-0.2-0.8-0.1c-0.1,0-0.1,0.1-0.1,0.3c0.1,0.7,0.2,1.6,0.2,2.7c0,1.1,0,1.7,0,1.9l0,0c-0.1,0.1-0.2,0.2-0.5,0.3
	c-0.2,0-1,0-2.4,0c-0.2,0-0.4,0-0.7,0c-1,0-1.6,0-1.8,0c-0.3,0-0.7-0.2-1.2-0.4c-0.2-0.1-0.3-0.1-0.4-0.2c-0.1,0-0.1-0.1-0.2-0.1
	c-0.5-0.2-0.8-0.3-0.8-0.3c-0.1,0-0.1,0.2,0,0.5c0,0.1,0,0.1,0,0.1c0.1,1.1,0.2,2.6,0.2,4.5c0,1.8,0,3.5-0.1,4.9c0,0.5,0,0.9,0.1,1
	c0.1,0.1,0.4,0.1,0.9,0c0.5-0.1,0.9-0.3,1.1-0.4c0.2-0.2,0.3-0.5,0.3-0.8c0,0,0-0.1,0-0.2c0-0.3,0-0.5,0.1-0.6
	c0.1-0.1,0.3-0.2,0.6-0.2c0.2,0,0.8,0,1.7,0c0.2,0,0.4,0,0.6,0c1.3,0,2.1,0,2.4,0c0.2,0,0.4,0.1,0.5,0.3c0.1,0.1,0.1,1.1,0.1,2.7
	c0,1.7-0.1,3.2-0.1,4.5c0,0.7-0.1,1.2,0,1.3C100,93,100.1,93.1,100.2,93.2z M97.2,83.3c-1.6,0-2.5,0-2.6-0.1
	c-0.1-0.1-0.2-0.2-0.3-0.5c0-0.3,0-1.2,0-2.6c0-0.3,0-0.6,0-1c0-0.8,0-1.3,0-1.6c0.1-0.3,0.2-0.5,0.5-0.6c0.2,0,0.7-0.1,1.4,0
	c0.4,0,0.7,0,0.9,0c0.2,0,0.6,0,0.9,0c0.7,0,1.2,0,1.4,0c0.3,0.1,0.4,0.3,0.5,0.6c0,0.2,0.1,0.7,0,1.6c0,0.4,0,0.8,0,1
	c0,1.5,0,2.3,0,2.6c0,0.3-0.1,0.4-0.3,0.5C99.7,83.2,98.8,83.3,97.2,83.3z M107.9,83.2c-0.1,0.1-1,0.1-2.6,0.1c-1.6,0-2.4,0-2.6-0.1
	c-0.2-0.1-0.3-0.2-0.3-0.5c0-0.3,0-1.1,0-2.6c0-0.3,0-0.6,0-1c0-0.8,0-1.3,0-1.6c0.1-0.3,0.2-0.5,0.5-0.6c0.2,0,0.7-0.1,1.4,0
	c0.4,0,0.7,0,0.9,0s0.6,0,0.9,0c0.8,0,1.2,0,1.4,0c0.3,0.1,0.4,0.3,0.5,0.6c0,0.2,0.1,0.7,0,1.6c0,0.4,0,0.8,0,1c0,1.5,0,2.4,0,2.6
	C108.2,83,108.1,83.1,107.9,83.2z M134.2,93.2c0.1,0.1,0.3,0.1,0.8,0s0.8-0.2,1.2-0.4c0.6-0.3,1.1-0.8,1.5-1.6
	c0.4-0.8,0.6-2.1,0.8-3.8c0.2-1.6,0.3-3.9,0.4-7c0-0.2,0-0.4,0-0.8c0-1.6,0.1-2.5,0.1-2.7c0-0.3,0.2-0.5,0.4-0.6c0,0,0.1,0,0.1,0
	c0.2-0.1,0.3-0.2,0.4-0.2c0-0.1,0-0.1,0-0.2c-0.1-0.2-0.4-0.5-0.8-0.9c-0.5-0.4-0.8-0.7-1-0.8c-0.1-0.1-0.2-0.1-0.3,0
	c-0.1,0-0.2,0.2-0.5,0.5c0,0-0.1,0.1-0.1,0.1c-0.3,0.3-0.5,0.5-0.7,0.6c-0.2,0-0.7,0.1-1.4,0.1c-0.2,0-0.3,0-0.4,0
	c-0.1,0-0.2,0-0.3,0c-0.7,0-1.2,0-1.3,0c-0.3,0-0.4-0.2-0.4-0.3c0-0.1,0.1-0.4,0.3-0.9c0-0.1,0.1-0.1,0.1-0.2
	c0.3-0.7,0.5-1.1,0.6-1.3c0.1-0.2,0.2-0.3,0.4-0.4c0.3-0.1,0.2-0.3-0.1-0.5c-0.4-0.2-1.1-0.5-2.2-0.8l0,0c-0.2-0.1-0.4-0.1-0.4,0
	c0,0-0.1,0.2-0.1,0.6c0,0,0,0.1,0,0.1c-0.3,2.3-1,4.8-2.2,7.6c-0.4,1-0.7,1.4-0.9,1.4c-0.1-0.1-0.2-0.7-0.2-2c0-1,0-1.6,0.1-1.8
	c0-0.2,0.2-0.4,0.5-0.6c0.2-0.1,0.3-0.3,0.2-0.5c-0.1-0.2-0.5-0.5-1.1-1c-0.4-0.4-0.7-0.5-0.9-0.5c-0.1,0-0.3,0.2-0.6,0.6
	c-0.3,0.4-0.8,0.6-1.5,0.7c-0.7,0.1-1-0.1-1-0.4c0-0.2,0.3-0.7,0.8-1.6c0.6-0.8,0.9-1.3,1.1-1.4c0.4-0.1,0.4-0.3,0.1-0.4
	c-0.3-0.2-0.9-0.4-2-0.6c0,0-0.1,0-0.2,0c-0.4-0.1-0.6-0.1-0.7-0.1c-0.1,0-0.1,0.2-0.1,0.6c0,0.1,0,0.2,0,0.2c0,0.5,0,1-0.1,1.5
	c-0.1,0.8-0.2,1.4-0.2,1.6c-0.1,0.3-0.3,0.4-0.5,0.4c-0.2,0-0.6-0.2-1.2-0.5c-0.6-0.3-0.9-0.4-1-0.4c0,0-0.1,0-0.1,0.1
	c0,0.1,0,0.3,0.1,0.8c0.1,1.1,0.2,3.5,0.2,7.1c0,3.8-0.1,6.6-0.2,8.4c-0.1,0.8,0,1.3,0.1,1.5c0.1,0.2,0.5,0.2,1.1,0
	c0.4-0.1,0.7-0.3,0.8-0.5c0.1-0.2,0.2-0.5,0.2-1v0c0-0.4,0-0.6,0-0.7c0.1-0.1,0.2-0.2,0.5-0.3c0.2,0,0.6,0,1.3,0c0,0,0.1,0,0.1,0
	c0,0,0.1,0,0.1,0c0.7,0,1.1,0,1.3,0c0.3,0,0.4,0.1,0.5,0.2c0,0.1,0.1,0.3,0.1,0.6v0.1c0,0.5,0.1,0.8,0.4,0.8c0.3,0.1,0.7,0,1.4-0.4
	c0,0,0.1,0,0.2-0.1c0.2-0.1,0.3-0.2,0.3-0.4c0-0.2,0-0.8,0-1.8c0-0.5,0-0.8,0-1.1c0-1.1,0-2.4,0-4.1c0-1.7,0-2.6,0.1-2.7
	c0-0.1,0.1-0.3,0.2-0.3c0.1-0.1,0.1-0.1,0,0c0,0.1,0,0.1,0.1,0.2c0.1,0,0.1,0,0.2,0c0.2-0.1,0.6-0.6,1.3-1.5
	c0.7-0.9,1.3-1.8,1.8-2.6c0,0,0,0,0-0.1c0.2-0.4,0.5-0.6,0.7-0.7c0.2-0.1,0.9-0.1,2-0.1c0.1,0,0.1,0,0.2,0c0.2,0,0.4,0,0.6,0
	c0.7,0,1.1,0,1.2,0c0.2,0,0.4,0.2,0.5,0.4c0,0.1,0.1,0.5,0,1c0,0.2,0,0.4,0,0.5c0,2.3-0.1,4.5-0.2,6.6c-0.1,2.1-0.3,3.5-0.5,4.4
	c-0.1,0.5-0.3,0.9-0.5,1.1c-0.2,0.2-0.6,0.4-1,0.4c-0.4,0-1.1,0-2.1-0.1c-0.5,0-0.8-0.1-0.9,0c-0.1,0-0.1,0.1-0.1,0.2
	c0,0.1,0.2,0.2,0.6,0.3c1.5,0.4,2.2,1,2.2,2.1C134.1,93,134.1,93.1,134.2,93.2z M123,89.1c-0.6,0-0.9,0-1.1-0.1
	c-0.2-0.1-0.3-0.3-0.4-0.6c0-0.2-0.1-0.8,0-1.7c0-0.4,0-0.7,0-0.9c0-0.2,0-0.5,0-0.8c0-0.8,0-1.4,0-1.6c0.1-0.3,0.2-0.5,0.4-0.6
	c0.1-0.1,0.5-0.1,1.1-0.1c0.2,0,0.4,0,0.6,0c0.1,0,0.3,0,0.6,0c0.6,0,0.9,0,1.1,0.1c0.2,0.1,0.3,0.3,0.4,0.6c0,0.2,0,0.8,0,1.6
	c0,0.4,0,0.6,0,0.8c0,1.5,0,2.3,0,2.6c0,0.3-0.1,0.4-0.2,0.5c-0.1,0.1-0.2,0.1-0.4,0.1c-0.1,0-0.6,0-1.4,0
	C123.4,89.1,123.2,89.1,123,89.1z M132.7,85.8c0.4,0.1,0.7,0.1,1-0.1c0.3-0.2,0.5-0.6,0.5-1c0-0.7-0.2-1.4-0.8-2
	c-0.5-0.7-1.3-1.3-2.4-1.8c-0.6-0.3-0.9-0.4-1-0.4c-0.1,0,0,0.3,0.3,0.7c1,1.5,1.6,2.9,1.8,4.1C132.1,85.5,132.3,85.6,132.7,85.8z
	 M123,82.1c-0.6,0-0.9,0-1.1-0.1c-0.2-0.1-0.3-0.3-0.4-0.6c0-0.2-0.1-0.7,0-1.6c0-0.4,0-0.7,0-0.9c0-0.2,0-0.4,0-0.8
	c0-0.8,0-1.3,0-1.5c0.1-0.3,0.2-0.5,0.4-0.6c0.1,0,0.5-0.1,1-0.1c0.2,0,0.4,0,0.6,0c0.1,0,0.3,0,0.6,0c0.6,0,0.9,0,1.1,0.1
	c0.2,0.1,0.3,0.2,0.4,0.6c0,0.2,0.1,0.7,0.1,1.5c0,0.3,0,0.6,0,0.7c0,1.4,0,2.2,0,2.5c0,0.3-0.1,0.4-0.2,0.5
	c-0.1,0.1-0.2,0.1-0.4,0.1c-0.1,0-0.6,0-1.4,0C123.4,82.1,123.2,82.1,123,82.1z M150.5,93.2c0.3,0.2,0.7,0.1,1.3-0.1
	c0.6-0.2,0.8-0.5,0.8-0.8c0,0,0-0.1,0-0.2c0-0.2,0-0.4,0.1-0.5c0.1-0.1,0.4-0.2,1-0.2c0.4,0,1.2,0,2.6,0c0.3,0,0.5,0,0.7,0
	c0.2,0,0.5,0,0.9,0c1.3,0,2.1,0,2.5,0c0.5,0,0.8,0.1,0.9,0.2c0.1,0.1,0.1,0.3,0.1,0.5c0,0.1,0,0.1,0,0.2c0,0.4,0,0.6,0.2,0.7
	c0.2,0.1,0.5,0.1,1-0.1c0.6-0.2,0.9-0.4,1-0.6c0.1-0.2,0.2-0.7,0.1-1.5c-0.2-4.8-0.1-7.2,0.4-7.2c0,0,0.1,0,0.3-0.1
	c0.1-0.1,0.2-0.2,0.2-0.2c0-0.1-0.2-0.3-0.7-0.7s-0.9-0.7-1.2-0.9c-0.1-0.1-0.3-0.1-0.4,0c-0.1,0-0.3,0.2-0.6,0.5
	c0,0-0.1,0.1-0.1,0.2c-0.2,0.2-0.5,0.4-0.7,0.4c-0.3,0-1.2,0-2.8,0c-0.5,0-0.9,0-1.2,0c-0.3,0-0.7,0-1.2,0c-1.5,0-2.4,0-2.7,0
	c-0.3,0-0.7-0.2-1.2-0.4c-0.2-0.1-0.3-0.1-0.5-0.2c0,0-0.1,0-0.2-0.1c-0.5-0.2-0.7-0.3-0.8-0.3c-0.1,0-0.1,0.2,0,0.5
	c0,0.1,0,0.1,0,0.1c0.1,1.1,0.2,2.6,0.2,4.5c0,1.9,0,3.6-0.1,5.1c0,0.4,0,0.7,0,0.8C150.4,93,150.4,93.1,150.5,93.2z M161.1,90.7
	c-0.1,0.1-1.5,0.1-4,0.1c-2.6,0-3.9,0-4-0.1c-0.2-0.1-0.3-0.2-0.3-0.4s0-0.6,0-1.2c0-0.1,0-0.3,0-0.5c0-0.4,0-0.7,0.1-0.9
	c0.1-0.2,0.4-0.3,0.8-0.3c0.3,0,1.1,0,2.3,0c0.5,0,0.9,0,1.2,0s0.7,0,1.2,0c1.2,0,1.9,0,2.3,0c0.4,0,0.7,0.2,0.8,0.3
	c0.1,0.1,0.1,0.4,0.1,0.9c0,0.2,0,0.4,0,0.5c0,0.7,0,1.1,0,1.3C161.3,90.6,161.2,90.7,161.1,90.7z M157,86.8c-2.6,0-4,0-4.1-0.1
	c-0.1-0.1-0.2-0.2-0.2-0.4s0-0.6,0-1.2c0-0.1,0-0.2,0-0.4c0-0.4,0-0.7,0.1-0.8c0.1-0.1,0.4-0.2,0.8-0.3c0.3,0,1.1,0,2.3,0
	c0.5,0,0.9,0,1.2,0s0.7,0,1.2,0c1.2,0,1.9,0,2.3,0c0.4,0,0.7,0.1,0.8,0.3c0.1,0.1,0.1,0.4,0.1,0.8c0,0.2,0,0.3,0,0.4
	c0,0.6,0,1,0,1.2s-0.1,0.3-0.2,0.4C161,86.8,159.7,86.8,157,86.8z M147,80.6c0.1,0,0.1,0.1,0.2,0c0,0,0.1,0,0.2,0
	c0.7-0.1,1.2-0.2,1.5-0.2c0.3,0,3.4-0.1,9.4-0.1c0.4,0,0.9,0,1.6,0c2.8,0,4.6,0,5.3,0c1,0,1.7,0,2-0.1c0.2,0,0.3-0.1,0.3-0.2
	c0,0,0-0.1,0-0.1c0-0.1-0.1-0.3-0.5-0.6c-0.3-0.3-0.7-0.7-1.2-1l0,0c-0.4-0.3-0.6-0.4-0.7-0.4c-0.1,0-0.3,0.2-0.6,0.7
	c0,0-0.1,0.1-0.1,0.1c0,0-0.1,0.1-0.1,0.2c-0.3,0.4-0.5,0.6-0.7,0.6c-0.2,0.1-0.6,0.1-1.4,0.1c-0.2,0-0.3,0-0.4,0
	c-0.9,0-1.4,0-1.6,0c-0.3,0-0.4-0.2-0.3-0.3c0-0.1,0.3-0.4,0.7-0.8c0.2-0.2,0.6-0.6,1.2-1.3c0,0,0.1-0.1,0.1-0.1
	c0.4-0.5,0.6-0.7,0.7-0.8c0.1-0.1,0.2-0.2,0.3-0.2c0.2-0.1,0.3-0.1,0.3-0.2c0-0.1-0.2-0.2-0.5-0.3c-0.6-0.3-0.8-0.5-0.6-0.6
	c0.2-0.1,1-0.1,2.4-0.1c1.1,0,1.8,0,2,0c0.2,0,0.3-0.1,0.4-0.2c0.1-0.2-0.3-0.7-1.3-1.4l0,0c-0.5-0.4-0.8-0.6-1-0.6
	c-0.1,0-0.4,0.3-0.7,0.7l0,0c0,0-0.1,0.1-0.1,0.2c-0.2,0.4-0.5,0.6-0.7,0.6c-0.2,0-0.8,0.1-1.8,0.1c-0.2,0-0.4,0-0.5,0
	c-1.1,0-1.7,0-1.9,0c-0.2,0-0.3-0.1-0.4-0.1c-0.2-0.2-0.2-0.5-0.2-0.9s0.2-0.7,0.4-0.9c0.2-0.2,0.2-0.3-0.1-0.4
	c-0.2-0.1-0.8-0.3-1.7-0.5c0,0-0.1,0-0.2,0c-0.4-0.1-0.7-0.2-0.7-0.1c-0.1,0-0.1,0.2-0.1,0.5c0,0.1,0,0.1,0,0.1c0,0.1,0,0.3,0,0.5
	c0,0.7,0,1.1,0,1.3c-0.1,0.3-0.3,0.4-0.6,0.5c-0.3,0-0.9,0-1.9,0c-0.3,0-0.5,0-0.7,0c-2.2,0-3.8,0-4.7-0.1c-0.2,0-0.3,0-0.4,0
	c0,0,0.1,0.2,0.2,0.5c0,0,0,0,0,0.1c0.1,0.2,0.2,0.4,0.3,0.4c0.1,0,0.3,0,0.5,0c0.1,0,0.1,0,0.2,0c2-0.3,2.9-0.3,2.9,0
	c0,0.1,0.1,0.3,0.2,0.6c0.4,0.8,0.7,1.6,0.9,2.4s0.3,1.4,0.1,1.5c-0.1,0.1-0.9,0.1-2.4,0.1c-1.5,0-2.7,0-3.6-0.1c-0.2,0-0.4,0-0.4,0
	c0,0,0.1,0.2,0.2,0.5C146.9,80.3,147,80.5,147,80.6z M158.4,79.6c-0.2,0.1-0.8,0.1-1.9,0.1c-1.1,0-1.6-0.1-1.7-0.1
	c-0.1-0.1-0.1-0.1-0.1-0.2c0-0.1,0-0.2,0.1-0.4c0.2-0.5,0.2-1.1-0.1-1.7c-0.3-0.6-0.7-1.1-1.4-1.6l0,0c-0.5-0.3-0.8-0.6-0.8-0.6
	c0-0.1,0.2-0.2,0.7-0.2c0.4,0,1.4,0,2.9,0c0.2,0,0.4,0,0.7,0c1.2,0,2,0,2.3,0c0.4,0,0.7,0.1,0.8,0.2c0,0.1,0,0.3,0,0.6
	c0,0.1,0,0.1,0,0.1c-0.3,1-0.5,1.8-0.8,2.6C158.8,79.1,158.6,79.5,158.4,79.6z M180.7,92.7c0.9,0.1,3.1,0.1,6.4,0
	c3.4,0,5.3-0.1,5.9-0.2c0.7-0.1,1.3-0.3,1.8-0.6c0.4-0.3,0.7-0.6,0.7-0.9c0-0.3-0.2-0.6-0.7-0.8c-0.4-0.2-0.6-0.4-0.6-0.6
	c-0.1-0.2-0.1-0.8-0.1-1.7s0-1.5-0.1-1.6c-0.1-0.1-0.2,0.1-0.4,0.7c0,0.1-0.1,0.3-0.1,0.5c-0.3,1.1-0.6,1.8-0.8,2.1
	c-0.3,0.4-0.9,0.7-1.8,0.8c-0.6,0.1-2,0.1-4.2,0.1c-0.4,0-0.7,0-0.9,0c-0.4,0-1,0-1.7,0c-1.9,0-3,0-3.5-0.1
	c-0.7-0.1-1.1-0.3-1.3-0.6c-0.1-0.3-0.2-0.8-0.1-1.8c0-0.4,0-0.7,0-0.9c0-0.1,0-0.2,0-0.4c0-1,0-1.6,0-1.8c0-0.2,0.1-0.3,0.3-0.4
	l0,0c0.1-0.1,1.9-0.1,5.2-0.1c3.4,0,5.2,0,5.3,0.1c0.1,0.1,0.2,0.1,0.3,0.2c0,0.1,0.1,0.2,0.1,0.5c0,0.4,0.1,0.6,0.2,0.7
	c0.1,0.1,0.4,0.1,0.8,0c0.5-0.1,0.8-0.2,1-0.3c0.2-0.1,0.3-0.3,0.3-0.6c0-0.2,0-0.6,0-1.3c-0.1-2-0.1-3.3,0-3.8c0-0.5,0.2-0.9,0.4-1
	c0.4-0.2,0.5-0.4,0.5-0.5c0-0.2-0.3-0.4-0.8-0.9c-0.6-0.5-1-0.8-1.2-0.8c-0.2,0-0.4,0.1-0.7,0.4c0,0-0.1,0.1-0.1,0.2
	c-0.3,0.3-0.5,0.5-0.7,0.5c-0.2,0-0.7,0.1-1.6,0.1c-0.2,0-0.3,0-0.4,0c-1,0-1.7,0-2,0c-0.4,0-0.5-0.2-0.5-0.3c0-0.1,0.3-0.4,0.7-0.7
	c0.6-0.5,1.1-1,1.3-1.2c0.6-0.6,1.1-0.9,1.4-1c0.3-0.1,0.4-0.2,0.4-0.3c0-0.1-0.3-0.4-0.7-0.8c-0.6-0.6-1-0.9-1.2-1
	c-0.2-0.1-0.5,0.1-0.8,0.5c0,0-0.1,0.1-0.1,0.1c-0.3,0.3-0.5,0.5-0.7,0.5c-0.2,0-0.7,0.1-1.5,0.1c-0.2,0-0.3,0-0.4,0
	c-1,0-1.6,0-1.8,0c-0.2,0-0.3-0.1-0.3-0.3c0-0.2,0.1-0.5,0.3-0.9c0.3-0.4,0.5-0.6,0.7-0.7c0.6-0.1-0.2-0.5-2.1-1.1
	c-0.4-0.1-0.6-0.2-0.7-0.1c-0.1,0-0.1,0.1-0.2,0.3c-0.3,1.4-1,3-2,4.8c-1,1.8-2.2,3.3-3.5,4.7c-0.3,0.3-0.5,0.5-0.5,0.6
	c0,0.1,0,0.1,0.2,0.1c0.2,0,0.8-0.4,1.9-1.2c0.3-0.2,0.5-0.3,0.6-0.4c0.1,0,0.2,0,0.3,0.1c0,0,0.1,0.3,0.1,0.8c0,0.4,0,1.9,0,4.3
	c0,0.1,0,0.1,0,0.1c0,2.7,0,4.2,0,4.7c0,0.5,0.1,0.9,0.2,1.2l0,0C177.7,92,178.8,92.6,180.7,92.7z M188.2,83.9c-1.2,0-1.9,0-2.1-0.1
	c-0.2-0.1-0.3-0.2-0.3-0.5c0-0.3,0-0.9,0-2.1c0-0.2,0-0.4,0-0.7c0-0.7,0-1.1,0-1.3c0-0.3,0.2-0.4,0.4-0.5c0.2,0,0.6-0.1,1.2-0.1
	c0.3,0,0.5,0,0.6,0c0.2,0,0.4,0,0.7,0c0.6,0,1,0,1.2,0c0.2,0.1,0.4,0.2,0.5,0.5c0,0.2,0.1,0.6,0,1.3c0,0.3,0,0.5,0,0.7
	c0,1.1,0,1.8,0,2c0,0.2-0.1,0.4-0.2,0.5C190.2,83.8,189.5,83.8,188.2,83.9z M181.5,83.9c-1.2,0-1.9,0-2-0.1c-0.2-0.2-0.3-1-0.3-2.5
	c0-1.5,0.1-2.3,0.3-2.5c0.1-0.1,0.8-0.1,2-0.1c1.2,0,1.9,0,2,0.1c0.2,0.2,0.3,1,0.3,2.4s-0.1,2.3-0.3,2.4
	C183.4,83.8,182.8,83.9,181.5,83.9z M181.9,78c-1.5,0-2.3,0-2.4-0.1c-0.4-0.1-0.5-0.3-0.5-0.4c0-0.2,0.3-0.6,0.7-1.1
	c0.2-0.2,0.5-0.6,0.9-1.1c0,0,0.1-0.1,0.1-0.2c0.2-0.3,0.4-0.5,0.6-0.6c0.2,0,0.7-0.1,1.6-0.1c0.2,0,0.4,0,0.5,0c1,0,1.6,0,1.9,0
	c0.4,0,0.6,0.2,0.6,0.3c0,0.1,0,0.4-0.2,0.8c-0.6,1.4-1.1,2.1-1.4,2.3C184.1,78,183.4,78,181.9,78z M212.3,85.5c1.1,0.1,2-0.2,2.8-1
	c0.8-0.8,1.1-1.7,1-2.8c-0.1-0.9-0.5-1.6-1.2-2.2c-0.6-0.5-1.4-0.8-2.2-0.8c-0.9,0-1.6,0.3-2.3,0.9c-0.7,0.6-1,1.4-1.1,2.3
	c0,0.8,0.2,1.6,0.7,2.3C210.6,84.9,211.4,85.4,212.3,85.5z M213.6,84.5c-0.8,0.3-1.6,0.2-2.3-0.3c-0.7-0.5-1.1-1.2-1.1-2.1
	c0-0.7,0.2-1.3,0.7-1.8c0.5-0.5,1.1-0.7,1.7-0.7c0.7,0,1.3,0.2,1.8,0.7c0.7,0.6,0.9,1.4,0.7,2.3C215,83.6,214.5,84.2,213.6,84.5z"/>
</svg>
