<?xml version="1.0" encoding="utf-8"?>
<!-- Generator: Adobe Illustrator 24.2.3, SVG Export Plug-In . SVG Version: 6.00 Build 0)  -->
<svg version="1.1" id="Layer_1" xmlns="http://www.w3.org/2000/svg" xmlns:xlink="http://www.w3.org/1999/xlink" x="0px" y="0px"
	 viewBox="0 0 352 219" style="enable-background:new 0 0 352 219;" xml:space="preserve">
<style type="text/css">
	.st0{clip-path:url(#SVGID_2_);}
	.st1{fill:none;stroke:#D6D2C7;stroke-width:1.3;stroke-miterlimit:10;stroke-dasharray:9.31,9.31;}
	.st2{fill:#D6D2C7;}
</style>
<g>
	<defs>
		<rect id="SVGID_1_" width="351.3" height="218.1"/>
	</defs>
	<clipPath id="SVGID_2_">
		<use xlink:href="#SVGID_1_"  style="overflow:visible;"/>
	</clipPath>
	<g class="st0">
		<path class="st1" d="M350.6,0.6H0.6v216.8h350V0.6z"/>
	</g>
</g>
<path class="st2" d="M34.6,45.9c0.3,0.2,0.7,0.2,1.2,0s0.7-0.5,0.7-0.8c0-0.3,0.1-0.5,0.2-0.6c0.2-0.1,0.6-0.1,1.2-0.1
	c0.6,0,1,0,1.2,0.1c0.2,0.1,0.3,0.3,0.3,0.6c0,0.3,0.2,0.4,0.5,0.4c0.3,0,0.8-0.1,1.3-0.4c0.2-0.1,0.3-0.2,0.4-0.3c0-0.1,0-0.4,0-1
	c-0.1-1.9-0.1-3.6-0.1-5.3c0-0.8,0-1.2,0.1-1.4c0.1-0.2,0.2-0.4,0.5-0.5c0.2-0.1,0.2-0.2,0.1-0.4c-0.1-0.2-0.3-0.4-0.7-0.7
	c-0.3-0.2-0.4-0.4-0.5-0.5c0-0.1,0-0.4,0-0.7c0.1-0.5-0.2-1-0.9-1.5c-0.4-0.3-0.5-0.4-0.3-0.5c0.1-0.1,0.7-0.1,1.6-0.1
	c1.1,0,1.7-0.1,1.8-0.3c0.1-0.2-0.3-0.6-1.1-1.4c-0.4-0.4-0.7-0.6-0.8-0.6c-0.1,0-0.4,0.3-0.7,0.7c-0.4,0.7-0.8,0.9-1,0.7
	c-0.1-0.1-0.1-0.2-0.1-0.3c0.1-0.1,0.2-0.4,0.5-0.9c0.7-1.1,1.3-2.1,1.7-2.9c0.2-0.5,0.4-0.8,0.5-0.9c0.1-0.2,0.3-0.3,0.4-0.3
	c0.4-0.1,0.6-0.3,0.5-0.5c-0.1-0.2-0.5-0.5-1.3-0.8c0,0-0.1,0-0.2-0.1c-0.6-0.2-0.9-0.3-1-0.3c-0.1,0-0.3,0.4-0.4,1
	c0,0.1,0,0.2,0,0.2c-0.1,0.5-0.3,0.8-0.5,0.9c-0.2,0.1-0.4,0-0.7-0.3c-0.1-0.1-0.2-0.2-0.3-0.2c-0.1,0-0.2,0.1-0.3,0.3
	c-0.6,0.8-0.9,0.8-0.9-0.1c0-0.6,0-1,0.3-1.2c0.2-0.1,0.2-0.3,0.1-0.4s-0.4-0.2-0.9-0.4c-0.8-0.2-1.2-0.4-1.4-0.4
	c-0.2,0-0.2,0.1-0.2,0.3c0,0.3,0.1,0.8,0.1,1.5c0,0.7,0,1.1,0,1.2c0,0.2-0.2,0.4-0.6,0.5c-0.3,0.1-0.8,0.1-1.3,0c-0.1,0-0.2,0-0.3,0
	c0,0,0,0.1,0,0.2c0.1,0.2,0.1,0.3-0.1,0.3c-0.2,0-0.5-0.2-0.9-0.5C32,27,31.8,26.9,31.7,27c-0.1,0-0.3,0.3-0.6,0.7
	c-0.4,0.5-0.6,0.7-0.8,0.8c-0.1,0-0.7,0-1.6,0c-0.9,0-1.6-0.1-1.9-0.1c-0.4,0-0.6,0-0.6,0c0,0,0,0.2,0.2,0.5c0,0,0,0,0,0.1
	c0.1,0.2,0.2,0.4,0.3,0.4c0.1,0,0.4,0,0.9-0.1c0.1,0,0.2,0,0.2,0s1,0,2.8-0.1c0.1,0,0.2,0,0.4,0c1,0,1.6,0,1.8,0
	c0.4,0,0.6-0.1,0.7-0.1c0.1,0,0.1-0.1,0.1-0.3c0,0,0-0.1,0-0.1c0-0.3,0.3-0.5,0.9-0.6c0.4,0,0.6,0.1,0.6,0.2
	c0.1,0.2,0.1,0.7,0.1,1.5c0,0.1,0,0.1,0,0.2c0,0.8-0.1,1.2-0.2,1.3c-0.1,0.1-0.4,0.2-1.1,0.2c-0.1,0-0.2,0-0.2,0c-0.6,0-1,0-1.1-0.1
	c-0.2-0.1-0.4-0.3-0.9-0.6l0,0c0,0-0.1-0.1-0.2-0.1c-0.2-0.2-0.4-0.3-0.5-0.3c-0.1,0-0.2,0.1-0.4,0.4c0,0-0.1,0.1-0.1,0.1
	c-0.3,0.4-0.7,0.7-1.2,0.8c-0.5,0.1-1.3,0-2.4-0.1c-0.2,0-0.2,0-0.2,0c0,0,0.1,0.2,0.2,0.6s0.3,0.5,0.3,0.5c0,0,0.2,0,0.4,0
	c0.1,0,0.2,0,0.3,0c0.8-0.1,2.4-0.2,4.8-0.2c0.1,0,0.3,0,0.6,0c1.2,0,2,0,2.3,0c0.4,0,0.6,0.2,0.6,0.4c0,0.2-0.3,0.5-0.8,1.2
	c-0.1,0.1-0.1,0.2-0.2,0.3c-1.1,1.5-1.9,2.4-2.3,2.8c-0.4,0.4-0.9,0.4-1.2,0.1c-0.2-0.1-0.3-0.2-0.4-0.2s-0.2,0.1-0.4,0.3
	c-0.4,0.4-0.8,0.6-1.3,0.6c-0.5,0-1.2-0.2-2.1-0.6c-0.1,0-0.2-0.1-0.3-0.1c-0.4-0.2-0.7-0.3-0.7-0.3c-0.1,0-0.1,0.1-0.1,0.2
	c0,0,0,0.1,0,0.1c0.1,1.5,0.2,3,0.2,4.5c0,1.5,0,2.5-0.1,3.1c0,0.6,0,1,0.1,1.1s0.3,0.2,0.7,0.1c0.4-0.1,0.8-0.2,0.9-0.3
	c0.2-0.2,0.3-0.4,0.3-0.9c0-0.4,0.1-0.7,0.2-0.8c0.1-0.1,0.4-0.1,0.8-0.1c0.7,0,1,0.2,1,0.7c0,0.2,0.1,0.3,0.4,0.3
	c0.3,0,0.6-0.1,1.1-0.3c0,0,0,0,0.1,0c0.2-0.1,0.3-0.2,0.4-0.3c0-0.1,0-0.5,0-1.2c0-0.1,0-0.2,0-0.2c-0.1-1.8-0.1-2.9,0-3.4
	c0.1-0.5,0.2-0.8,0.5-1c0.2-0.1,0.3-0.2,0.1-0.3c-0.3-0.2-0.2-0.6,0.4-1c0.2-0.2,0.4-0.3,0.5-0.3c0.1,0,0.2,0,0.3,0.1
	c0.1,0.1,0.1,1,0.1,2.6c0,1.7,0,3.3-0.1,5c0,0.6,0,0.9,0,1.1C34.4,45.7,34.5,45.8,34.6,45.9z M23.4,45.8c0.2,0.1,0.5,0.1,1-0.1
	c0.5-0.1,0.8-0.3,1-0.5c0-0.1,0.1-0.1,0.1-0.2c0-0.1,0-0.4,0-0.8c-0.1-2-0.1-4.9-0.1-8.7c0-0.2,0-0.4,0-0.7c0-1.6,0-2.5,0-2.8
	c0-0.3,0.1-0.5,0.3-0.6l0,0c0.1-0.1,0.2-0.2,0.1-0.2c0-0.1-0.1-0.2-0.4-0.5C25.2,30.4,25,30.2,25,30c0-0.2,0.1-0.6,0.4-1.2
	c0.3-0.8,0.6-1.4,0.7-1.9c0.2-0.7,0.4-1.2,0.6-1.5c0.1-0.3,0.3-0.5,0.5-0.6c0.2-0.1,0.2-0.2-0.1-0.4c-0.2-0.1-0.8-0.3-1.5-0.6
	c0,0-0.1,0-0.1,0c-0.5-0.2-0.8-0.3-0.9-0.2c-0.1,0-0.2,0.1-0.2,0.3c0,0,0,0.1,0,0.1c-0.1,1.6-0.4,3.4-1,5.3
	c-0.5,1.9-1.1,3.8-1.9,5.6c-0.2,0.4-0.2,0.6-0.3,0.7c0,0.1,0,0.2,0.1,0.2c0.1,0,0.4-0.4,1-1.1c0.3-0.4,0.5-0.6,0.6-0.7
	c0.1-0.1,0.2,0,0.3,0.2c0.1,0.2,0.1,1.6,0,4.2c0,2.6-0.1,4.6-0.1,6c0,0.7-0.1,1.1,0,1.2C23.1,45.7,23.2,45.8,23.4,45.8z M37.8,43.7
	c-0.6,0-1-0.1-1.1-0.2c-0.1-0.1-0.1-0.6-0.1-1.3c0-0.1,0-0.2,0-0.2c0,0,0-0.1,0-0.2c0-0.8,0-1.2,0.1-1.3c0.1-0.1,0.5-0.2,1.1-0.2
	c0.1,0,0.1,0,0.2,0c0,0,0.1,0,0.2,0c0.6,0,1,0.1,1.1,0.2c0.1,0.1,0.2,0.6,0.2,1.3c0,0.1,0,0.1,0,0.2c0,0.7,0,1.1,0,1.2
	c0,0.2-0.1,0.3-0.2,0.4c-0.1,0-0.5,0.1-1.1,0.1C37.9,43.7,37.8,43.7,37.8,43.7z M29.6,43.1c-0.4,0-0.6,0-0.7-0.1
	c-0.1-0.1-0.2-0.3-0.3-0.6c0-0.2,0-0.7,0-1.6c0-0.1,0-0.1,0-0.2s0-0.1,0-0.2c0-0.8,0-1.3,0-1.6c0-0.3,0.1-0.5,0.3-0.6
	c0.1,0,0.3-0.1,0.7-0.1h0.1h0c0.4,0,0.6,0,0.7,0.1c0.1,0.1,0.2,0.3,0.3,0.6c0,0.2,0,0.7,0,1.6c0,0.1,0,0.1,0,0.2c0,1,0,1.6,0,1.8
	s-0.1,0.4-0.2,0.5C30.4,43,30.1,43.1,29.6,43.1L29.6,43.1z M37.9,39.7c-0.7,0-1.1-0.1-1.2-0.2s-0.2-0.6-0.2-1.4c0,0,0-0.1,0-0.1
	c0,0,0-0.1,0-0.1c0-0.7,0-1.2,0.1-1.3c0.1-0.1,0.5-0.2,1.2-0.2c0,0,0.1,0,0.1,0c0,0,0.1,0,0.1,0c0.7,0,1,0.1,1.1,0.2
	c0.1,0.1,0.2,0.5,0.2,1.3c0,0.1,0,0.1,0,0.1c0,0.7,0,1.1,0,1.2c0,0.2-0.1,0.3-0.3,0.3C38.9,39.6,38.5,39.7,37.9,39.7L37.9,39.7z
	 M38.9,35.7c-0.2,0-0.5,0.1-1.1,0c-0.6,0-1,0-1.2-0.1c-0.4-0.1-0.6-0.3-0.6-0.5c0-0.2,0.3-0.5,0.7-1.1c0.6-0.7,1-1,1.2-1
	c0.2,0,0.5,0.2,0.8,0.8c0.4,0.6,0.6,1,0.6,1.3C39.4,35.4,39.2,35.6,38.9,35.7z M27.4,35.6c0,0,0.1,0,0.1,0l0,0
	c0.3-0.1,0.5-0.2,0.8-0.2c0.3,0,1,0,2.1,0c1.2,0,1.9,0,2.1,0c0.2,0,0.4-0.1,0.4-0.2c0.1-0.2-0.2-0.6-0.9-1.2
	c-0.4-0.4-0.7-0.5-0.8-0.5c-0.1,0-0.3,0.2-0.6,0.6c-0.3,0.4-0.5,0.6-0.6,0.7c-0.1,0.1-0.4,0.1-0.8,0.1c-0.9,0-1.6,0-2.2-0.1
	c-0.1,0-0.2,0-0.2,0c0,0,0.1,0.2,0.2,0.5C27.3,35.4,27.4,35.6,27.4,35.6z M37.9,30.2c-0.2,0.3-0.4,0.4-0.5,0.2
	c-0.1-0.1-0.1-0.6-0.1-1.2c0-0.5,0-0.9,0.1-1c0.1-0.1,0.3-0.2,0.7-0.2c0.4,0,0.6,0.2,0.6,0.6C38.6,29,38.4,29.5,37.9,30.2z
	 M27.7,26.3c0.1,0,0.2,0,0.4,0c0.7-0.1,1.7-0.2,3-0.2c0.9,0,1.5,0,1.7-0.1c0.2-0.1,0.3-0.2,0.2-0.4c0-0.1-0.2-0.3-0.6-0.6
	c-0.3-0.4-0.6-0.6-0.8-0.7c-0.2-0.2-0.4-0.2-0.5-0.2c-0.1,0-0.3,0.3-0.6,0.6c0,0-0.1,0.1-0.1,0.1c-0.3,0.4-0.5,0.6-0.8,0.6
	c-0.3,0-1.1,0-2.3-0.1h0c-0.2,0-0.3,0-0.3,0c0,0,0.1,0.2,0.2,0.5l0,0C27.5,26.1,27.6,26.2,27.7,26.3z M61.3,45.8
	c0.1,0.1,0.4,0.1,1-0.1c0.6-0.1,1-0.3,1.2-0.5c0.4-0.3,0.6-0.6,0.7-1.1c0.1-0.5,0.1-1.6,0.1-3.5c0-0.2,0-0.6,0-1c0-0.7,0-1.2,0-1.4
	c0.1-0.3,0.2-0.4,0.6-0.5c0.2,0,0.7,0,1.5,0c0.4,0,0.8,0,1.1,0c1.5,0,2.4,0,2.6,0c0.3,0,0.4-0.1,0.5-0.2c0-0.1-0.1-0.3-0.4-0.6
	c-0.3-0.3-0.6-0.6-1.1-1c0,0,0,0-0.1-0.1c-0.4-0.3-0.6-0.4-0.7-0.4c-0.1,0-0.3,0.3-0.7,0.7l0,0.1c0,0,0,0.1-0.1,0.1
	c-0.3,0.4-0.5,0.6-0.6,0.7c-0.1,0.1-0.5,0.1-1,0.1c0,0-0.1,0-0.1,0c-0.7,0-1.1,0-1.3-0.1c-0.1-0.1-0.2-0.4-0.2-0.8
	c0-0.5,0.1-0.8,0.4-1C64.9,35,65,35,65,34.8c0-0.1,0-0.2-0.1-0.2c-0.3,0-0.3-0.1-0.1-0.3c0.2-0.2,0.6-0.5,1.2-0.8
	c0.5-0.3,1-0.6,1.5-0.9c0.5-0.3,0.9-0.5,1.3-0.6c0.5-0.1,0.2-0.7-0.9-1.7c0,0-0.1,0-0.1-0.1c-0.3-0.3-0.6-0.5-0.7-0.5
	c-0.1,0-0.3,0.1-0.6,0.4c0,0-0.1,0.1-0.1,0.1c0,0-0.1,0.1-0.2,0.2c-0.3,0.3-0.5,0.5-0.8,0.5c-0.2,0-1,0-2.2,0c-0.4,0-0.6,0-0.8,0
	c-2.3,0-3.9,0-4.8-0.1c-0.2,0-0.3,0-0.4,0c0,0,0.1,0.2,0.2,0.5c0,0,0,0,0,0.1c0.1,0.2,0.2,0.4,0.3,0.4c0.1,0,0.3,0,0.5,0
	c0.1,0,0.1,0,0.2,0c0.9-0.1,2.2-0.2,3.9-0.2c1.1,0,1.8,0,2.1,0c0.4,0,0.6,0.2,0.5,0.4c0,0.2-0.3,0.5-0.8,1c-0.5,0.6-0.8,0.9-1,1
	c-0.2,0.1-0.5,0.2-0.8,0.2c0,0,0,0-0.1,0c-0.2,0-0.3,0-0.4,0.1c0,0.1,0,0.4,0,0.8c0,0.1,0,0.1,0,0.2c0,0,0,0.1,0,0.2
	c0,0.5,0,0.8-0.1,0.9c0,0.2-0.2,0.3-0.4,0.3c-0.2,0-0.6,0-1.2,0c-0.1,0-0.2,0-0.3,0c-1.7,0-3,0-3.9-0.1c-0.3,0-0.4,0-0.4,0
	c0,0,0.1,0.2,0.2,0.6c0,0,0,0,0,0.1c0.1,0.2,0.2,0.4,0.3,0.4c0.1,0,0.3,0,0.7,0c0.1,0,0.2,0,0.3,0c0.8-0.1,1.7-0.2,2.7-0.2
	c1,0,1.6,0,1.8,0.1c0.1,0.1,0.2,0.2,0.2,0.5c0,0.2,0,1,0,2.3c0,0.1,0,0.3,0,0.6c0,0.9,0,1.4,0,1.7c-0.1,0.3-0.2,0.5-0.5,0.6
	c-0.2,0-0.6,0-1.2,0c-0.2,0-0.3,0-0.4,0c-0.7,0-1.1-0.1-1.3-0.1c-0.1,0-0.2,0.1-0.2,0.1c0,0.1,0.1,0.1,0.3,0.2
	c0.8,0.2,1.3,0.4,1.7,0.7c0.4,0.3,0.6,0.8,0.7,1.4l0,0L61.3,45.8z M52.8,45.8c0.2,0.1,0.6,0.1,1,0c0.4-0.1,0.8-0.3,1-0.5l0,0
	c0.1,0,0.1-0.2,0.1-0.3c0-0.2,0-0.7,0-1.6c0-0.5,0-0.8,0-1.2c0-1.1-0.1-2.9,0-5.3c0-2.4,0-3.6,0.1-3.7c0.1-0.2,0.2-0.4,0.6-0.6
	c0.1-0.1,0.1-0.1,0.1-0.2c0-0.1,0.2-0.5,0.6-1.2c0.5-0.9,0.9-1.5,1-1.8c0.3-0.5,0.5-0.8,0.6-0.9c0.1,0,0.4-0.1,1-0.1
	c0.5,0,2.2,0,4.9,0c0.1,0,0.2,0,0.2,0c0.3,0,0.8,0,1.3,0c2.4,0,3.9,0,4.3,0s0.6-0.1,0.7-0.2l0,0c0.1-0.2-0.4-0.8-1.5-1.6
	c0,0-0.1,0-0.1-0.1c-0.5-0.3-0.8-0.5-0.9-0.4c-0.1,0-0.4,0.3-0.8,0.9c0,0.1-0.1,0.1-0.1,0.2c0,0-0.1,0.1-0.1,0.2
	c-0.2,0.2-0.4,0.4-0.7,0.4c-0.3,0-1.1,0-2.6,0c-0.4,0-0.8,0-1.1,0c-0.2,0-0.5,0-0.9,0c-1.3,0-2.1,0-2.4,0c-0.5,0-0.7-0.1-0.8-0.3
	c0-0.1,0-0.4,0.2-0.8c0.1-0.1,0.1-0.3,0.1-0.3c0.3-0.7,0.5-1.1,0.7-1.2c0.4-0.1,0.4-0.2,0.1-0.4c-0.3-0.2-0.9-0.5-2-0.8
	c0,0-0.1,0-0.2,0c-0.4-0.1-0.6-0.2-0.6-0.2c-0.1,0-0.1,0.1-0.1,0.3c-0.1,0.8-0.2,1.6-0.5,2.4c-0.2,0.8-0.5,1.2-0.7,1.3
	c-0.2,0.1-1,0.1-2.4,0.1c-1.4,0-2.5-0.1-3.3-0.1c-0.3,0-0.4,0-0.4,0c0,0,0.1,0.2,0.2,0.6v0c0.1,0.2,0.2,0.4,0.3,0.4
	c0.1,0,0.4,0,0.8,0c0.1,0,0.2,0,0.2,0c0.8-0.1,1.6-0.2,2.5-0.2c0.9,0,1.4,0,1.6,0.1c0.2,0.1,0.2,0.3,0.2,0.6
	c-0.1,0.3-0.3,0.8-0.7,1.7c-0.3,0.6-0.5,0.9-0.7,1.1c-0.2,0.1-0.4,0.2-0.7,0.1c-0.2,0-0.3,0-0.3,0.1c0,0.1,0,0.3,0,0.8
	c0,0.6-0.2,1.3-0.6,2c-0.4,0.7-1.2,1.6-2.3,2.7c-0.3,0.3-0.5,0.5-0.5,0.6c0,0.1,0,0.2,0,0.2c0.1,0,0.4-0.1,0.9-0.5
	c0.5-0.4,1-0.7,1.5-1.2c0.3-0.3,0.5-0.4,0.6-0.4c0.1,0,0.2,0,0.3,0.2c0.1,0.2,0.1,1.2,0.1,3.1c0,1.9-0.1,3.5-0.2,5
	c-0.1,1,0,1.5,0.1,1.5C52.6,45.8,52.7,45.8,52.8,45.8z M89.8,45.9c0,0,0.1,0.1,0.2,0c0.1,0,0.2,0,0.4,0c0.5-0.1,0.9-0.2,1.2-0.4
	c0.4-0.2,0.7-0.4,0.8-0.7l0,0c0.2-0.2,0.2-0.5,0.3-0.9c0-0.4,0.1-1.5,0.1-3.4c0-0.3,0-0.6,0-0.8c0-0.4,0-1,0-1.7c0-1.2,0-1.9,0-2.2
	c0.1-0.4,0.2-0.7,0.5-0.8c0.2-0.1,0.6-0.1,1.4-0.1c0.4,0,0.8,0,1,0c1.3,0,2.1,0,2.4,0c0.2,0,0.4-0.1,0.5-0.2c0.1-0.1,0-0.4-0.4-0.7
	c-0.3-0.4-0.7-0.7-1.2-1.1c-0.3-0.2-0.5-0.3-0.6-0.3c-0.1,0-0.3,0.3-0.6,0.8c-0.3,0.4-0.7,0.7-1.2,0.9c-0.5,0.2-1,0.1-1.4-0.1
	c-0.3-0.1-0.4-0.7-0.4-1.7c0-1,0.2-1.6,0.5-1.7c0.2-0.1,0.3-0.2,0.3-0.3c0-0.1,0-0.2-0.1-0.2c-0.2,0-0.2-0.2-0.1-0.3s0.4-0.5,1-0.9
	c0.8-0.6,1.5-1.2,2.3-1.8c0.4-0.3,0.7-0.5,1.1-0.6c0.3-0.1,0.4-0.2,0.4-0.3c0-0.2-0.3-0.5-0.8-1c-0.5-0.5-0.9-0.8-1-0.8
	c-0.2,0-0.4,0.1-0.7,0.5c0,0-0.1,0.1-0.2,0.2c-0.2,0.3-0.5,0.4-0.7,0.5c-0.2,0-0.9,0.1-2,0.1c-0.3,0-0.6,0-0.8,0
	c-2.8,0-4.6,0-5.5-0.1c-0.3,0-0.4,0-0.4,0s0.1,0.2,0.2,0.6v0c0.1,0.2,0.2,0.4,0.3,0.4c0.1,0,0.4,0,0.8,0c0.1,0,0.2,0,0.2,0
	c0.9-0.1,2.3-0.2,4.2-0.2c0.1,0,0.3,0,0.5,0c1,0,1.6,0,1.8,0c0.3,0.1,0.4,0.2,0.4,0.4c0,0.2-0.3,0.6-0.7,1.2
	c-0.1,0.1-0.2,0.3-0.3,0.4l0,0c-0.6,0.8-0.9,1.3-1.2,1.5c-0.2,0.1-0.6,0.1-1.2,0c0,0,0,0-0.1,0c-0.3,0-0.4,0-0.5,0c0,0,0,0.2,0,0.5
	c0,0,0,0.1,0,0.1c0.3,2.2,0.2,3.4-0.2,3.6c-0.2,0.1-1,0.1-2.5,0.1c-1.5,0-2.3-0.1-2.4-0.2c-0.1-0.1-0.1-0.6,0-1.5
	c0.1-0.9,0.2-1.4,0.3-1.6c0.1-0.2,0.2-0.3,0.4-0.5c0.3-0.1,0.4-0.3,0.3-0.5c0-0.2-0.3-0.4-0.8-0.9c-0.5-0.5-0.9-0.7-1-0.7
	c-0.2,0-0.4,0.1-0.7,0.4s-0.5,0.5-0.6,0.6c-0.1,0.1-0.4,0.1-0.7,0.1c-0.4,0-0.6,0-0.7-0.1c-0.1-0.1-0.2-0.3-0.1-0.6
	c0-0.3,0.1-0.8,0.3-1.7v0c0.2-1,0.4-1.6,0.5-1.9c0.1-0.2,0.2-0.4,0.4-0.5c0.2-0.1,0.3-0.2,0-0.4s-0.7-0.3-1.5-0.5c0,0-0.1,0-0.2,0
	c-0.4-0.1-0.7-0.2-0.8-0.1c-0.1,0-0.1,0.2-0.1,0.4c0,0,0,0.1,0,0.1c0,0.6-0.1,1.4-0.3,2.7c-0.2,1.2-0.3,2-0.5,2.2
	c-0.2,0.5-1.1,0.6-2.8,0.3c-0.1,0-0.2,0-0.2,0.1c0,0,0.1,0.2,0.2,0.5c0.1,0.3,0.2,0.4,0.3,0.4c0.1,0,0.2,0,0.4,0
	c0.5-0.2,0.9-0.2,1.2-0.1c0.3,0,0.5,0.2,0.5,0.5c0,0.2-0.2,1.3-0.7,3.3c-0.5,1.9-0.9,3.4-1.2,4.5c-0.1,0.4-0.2,0.6-0.1,0.6
	c0,0.1,0.1,0.1,0.3,0.1c0.5,0.1,1,0.1,1.2,0c0.3-0.1,0.5-0.3,0.6-0.7c0.2-0.4,0.3-0.7,0.6-0.6s0.6,0.3,1.1,0.8
	c0.3,0.3,0.4,0.6,0.4,0.7c0,0.2-0.2,0.6-0.5,1.1c-1,1.7-2.2,3.1-3.8,4.2c-0.2,0.2-0.4,0.3-0.4,0.4c0,0.1,0,0.1,0.1,0.2
	c0.1,0,0.3,0,0.6-0.2c1.9-0.9,3.4-2.1,4.6-3.6c0.3-0.4,0.6-0.6,0.7-0.6c0.2,0,0.4,0.2,0.6,0.6c0.2,0.2,0.3,0.6,0.6,1
	c0.2,0.4,0.4,0.7,0.4,0.9c0.1,0.3,0.3,0.5,0.7,0.5c0.4,0,0.7-0.1,0.9-0.4c0.3-0.5,0.3-1.1,0-1.8c-0.3-0.7-0.8-1.5-1.5-2.2
	c-0.4-0.3-0.5-0.6-0.6-0.7c0-0.1,0.1-0.5,0.3-1c0.2-0.6,0.5-1.4,0.7-2.2c0.2-0.7,0.3-1.1,0.4-1.2c0.1-0.1,0.3,0,0.5,0.4
	c0.1,0.1,0.2,0.2,0.3,0.2c0.1,0,0.4,0,0.9-0.1c0.5-0.1,1.1-0.1,1.9-0.1c0.8,0,1.3,0,1.4,0.1c0.1,0.1,0.2,0.2,0.2,0.5
	c0,0.3,0,1.2,0,2.8c0,0.3,0,0.6,0,0.8c0,0.3,0,0.6,0,1.1c0,1.2,0,1.9,0,2.2c0,0.4-0.2,0.7-0.3,0.8c-0.1,0.1-0.4,0.1-0.8,0.1
	c-0.2,0-0.3,0-0.4,0c-0.9,0-1.4,0-1.6,0c-0.2,0-0.3,0.1-0.3,0.1c0,0.1,0.1,0.1,0.3,0.2c0.7,0.2,1.3,0.4,1.6,0.7
	c0.3,0.3,0.5,0.7,0.6,1.3C89.8,45.7,89.8,45.8,89.8,45.9z M82.2,37.9c-0.2,0.1-0.6,0-1.2-0.2c0,0-0.1,0-0.2-0.1
	c-0.4-0.1-0.6-0.3-0.6-0.3C80,37.1,80,36.9,80,36.7c0-0.2,0.1-0.6,0.3-1.3c0-0.2,0.1-0.3,0.1-0.4c0.1-0.4,0.2-1,0.5-1.9
	c0.1-0.5,0.2-0.9,0.3-1.1c0,0,0,0,0-0.1c0.2-0.8,0.3-1.3,0.5-1.4c0.1-0.1,0.4-0.2,0.9-0.2h0c0.6,0,0.9,0.1,1,0.3s0.1,0.8,0,1.7
	c-0.2,1.4-0.4,2.7-0.6,3.8C82.6,37.1,82.4,37.7,82.2,37.9z M114.5,45.8c0.2,0.1,0.5,0.1,0.8,0c0.4-0.1,0.7-0.2,1-0.3c0,0,0,0,0.1,0
	c0.2-0.1,0.3-0.2,0.3-0.3c0-0.1,0-0.4,0-1c0-0.1,0-0.2,0-0.3c-0.1-1.3-0.1-3.7-0.1-7.2c0-3.5,0-5.3,0.1-5.4c0.1-0.1,0.1-0.2,0.2-0.3
	c0.2-0.1,0.3-0.1,0.3-0.2c0-0.1,0-0.2-0.2-0.2c-0.3-0.1-0.4-0.3-0.4-0.5c0-0.2,0.2-0.5,0.6-1c0.2-0.2,0.4-0.6,0.8-1.2
	c0.1-0.1,0.1-0.2,0.1-0.2c0-0.1,0.1-0.2,0.2-0.3c0.2-0.3,0.3-0.5,0.4-0.6c0.2-0.1,0.4-0.2,0.8-0.2c0.3,0,0.9,0,1.9,0
	c0.4,0,0.8,0,1,0c1.8,0,2.8,0,3.1,0c0.3,0,0.5-0.1,0.5-0.2c0.1-0.3-0.5-0.9-1.8-1.8c0,0,0,0-0.1-0.1c-0.4-0.3-0.6-0.4-0.7-0.3
	c-0.1,0-0.3,0.3-0.6,0.7l0,0.1c-0.5,0.7-0.8,1-1,1.1c-0.2,0-2.8,0-7.9,0c-5.2,0-7.9,0-8.2-0.1c-0.4,0-0.6,0-0.6,0c0,0,0,0.2,0.2,0.5
	c0,0,0,0.1,0,0.1c0.1,0.3,0.2,0.4,0.3,0.4c0.1,0,0.3,0,0.6,0c0,0,0.1,0,0.1,0c0.7-0.1,1.3-0.2,1.8-0.2c0.6,0,1.7,0,3.4,0
	c0.1,0,0.4,0,0.6,0c1.3,0,2.2,0,2.5,0c0.5,0,0.7,0.1,0.8,0.3c0,0.1-0.1,0.4-0.3,0.8c0,0.1-0.1,0.1-0.1,0.2c-0.9,1.8-2.2,3.6-4,5.4
	c-1.7,1.8-3.6,3.5-5.7,4.9c-0.3,0.2-0.5,0.4-0.5,0.5c0,0.1,0.2,0,0.5-0.1c1.2-0.5,2.5-1.3,3.9-2.2c1.5-1,2.7-1.9,3.9-3
	c0.4-0.3,0.6-0.5,0.8-0.6c0.1-0.1,0.3,0,0.3,0.1c0.1,0.1,0.1,1.6,0.1,4.4c0,2.8-0.1,4.9-0.2,6.5c-0.1,0.9-0.1,1.5-0.1,1.6
	C114.2,45.6,114.3,45.7,114.5,45.8z M124.7,38.3c0.3,0,0.5-0.1,0.7-0.3s0.3-0.5,0.3-0.8c0-0.9-0.5-1.8-1.6-2.7
	c-1.1-0.9-2.5-1.7-4.3-2.3c-1-0.4-1.7-0.5-2.1-0.6c-0.4,0-0.4,0.1,0,0.4c2.9,2.1,4.9,4,6.1,5.8c0.1,0.2,0.3,0.4,0.6,0.5
	C124.5,38.2,124.6,38.3,124.7,38.3z M134.3,45.8c0.4,0.2,0.9,0.1,1.5-0.2s0.8-0.7,0.7-1.2c-0.1-1.8-0.1-5.2-0.1-10.5
	c0-3.7,0-5.8,0-6.5c0-0.6,0.1-1,0.1-1.1l0,0c0.1-0.1,0.3-0.2,0.8-0.2c0.5,0,2,0,4.7,0c0.6,0,1,0,1.3,0c0.3,0,0.8,0,1.3,0
	c2.7,0,4.3,0,4.7,0c0.5,0,0.7,0.1,0.8,0.2l0,0.1c0.1,0.1,0.1,2.8,0.1,8.3s0,8.2-0.1,8.4c-0.1,0.2-0.3,0.3-0.6,0.3
	c-0.3,0-1.1,0-2.2,0c-0.9,0-1.4-0.1-1.4,0c-0.1,0.1,0.1,0.2,0.4,0.3c1.3,0.2,2.1,0.7,2.4,1.3c0.1,0.1,0.2,0.3,0.2,0.5
	c0,0.1,0,0.1,0,0.1c0,0.1,0.1,0.2,0.2,0.2s0.3,0,0.6-0.1c0.7-0.1,1.3-0.3,1.6-0.5c0.4-0.2,0.6-0.6,0.8-1c0-0.1,0.1-0.6,0.1-1.3
	c0-0.7,0-3.2,0-7.5c0-0.2,0-0.4,0-0.7c0-5.2,0-7.9,0.1-7.9c0.1-0.2,0.3-0.3,0.5-0.4c0.2-0.1,0.3-0.2,0.3-0.3c0-0.1,0-0.2-0.1-0.3
	c-0.2-0.2-0.5-0.5-1.1-0.9c-0.5-0.4-0.8-0.6-0.9-0.6c-0.1,0-0.3,0.2-0.8,0.7c0,0-0.1,0.1-0.1,0.1c-0.1,0.1-0.2,0.2-0.4,0.3
	c-0.2,0-0.7,0.1-1.4,0.1c-0.5,0-1.7,0-3.6,0c-0.7,0-1.3,0-1.7,0c-4.4,0-6.6,0-6.8,0c-0.1,0-0.5-0.2-1.3-0.5
	c-0.7-0.3-1.1-0.5-1.2-0.5s0,0.5,0.1,1.5c0.1,0.5,0.1,3,0.1,7.6c0,5.2,0,8.8-0.1,10.8c0,0.7-0.1,1,0,1.2
	C134,45.7,134.1,45.8,134.3,45.8z M139.2,41.6c0.2,0.1,0.5,0,0.9-0.1c0.4-0.1,0.7-0.3,0.9-0.5c0.1-0.1,0.1-0.1,0.1-0.2
	c0-0.1,0-0.3,0-0.7c0,0,0-0.1,0-0.2c0-0.4,0-0.6,0.1-0.7c0-0.1,0.2-0.2,0.5-0.3c0.2,0,0.6,0,1.2,0c0.2,0,0.3,0,0.5,0s0.3,0,0.5,0
	c0.8,0,1.3,0.1,1.4,0.1c0.1,0.1,0.2,0.3,0.2,0.7c0,0.1,0,0.2,0,0.3c0,0.5,0.1,0.9,0.2,1s0.5,0.1,1-0.1c0.5-0.2,0.9-0.3,0.9-0.5
	c0.1-0.2,0.1-0.6,0.1-1.3c-0.1-1.8-0.1-3.1-0.1-3.9c0-0.8,0.2-1.2,0.4-1.3c0.3-0.2,0.4-0.4,0.3-0.6c-0.1-0.3-0.5-0.6-1.2-1.1
	c-0.4-0.3-0.6-0.4-0.7-0.4c-0.1,0-0.3,0.2-0.5,0.5c0,0,0,0-0.1,0.1c-0.2,0.3-0.5,0.5-0.7,0.6c-0.2,0-0.8,0.1-1.7,0.1
	c-0.1,0-0.1,0-0.2,0s-0.1,0-0.2,0c-0.9,0-1.4,0-1.7,0c-0.2,0-0.6-0.2-1.2-0.4c-0.1,0-0.2-0.1-0.2-0.1c-0.5-0.2-0.8-0.3-1-0.4
	c-0.1,0-0.1,0-0.1,0.2c0.1,0.8,0.2,2,0.2,3.8c0,1.7,0,3.2-0.1,4.4c0,0.5,0,0.8,0,0.9S139.1,41.5,139.2,41.6z M143.3,38.3
	c-1.2,0-1.9,0-2-0.1c-0.1-0.1-0.2-0.2-0.3-0.4c0-0.2,0-0.8,0-1.8c0-0.2,0-0.4,0-0.6c0-0.6,0-1,0-1.2c0-0.2,0.2-0.4,0.4-0.4
	c0.2,0,0.5-0.1,1.2,0c0.2,0,0.4,0,0.6,0c0.1,0,0.3,0,0.5,0c0.6,0,1,0,1.2,0c0.2,0.1,0.4,0.2,0.4,0.5c0,0.2,0,0.6,0,1.2
	c0,0.2,0,0.4,0,0.6c0,0.9,0,1.4,0,1.7c0,0.2-0.1,0.4-0.2,0.5C145.2,38.2,144.5,38.3,143.3,38.3z M138.1,30.3c0,0,0.4,0,1.1-0.1
	c0.1,0,0.1,0,0.1,0c0.6-0.1,2.3-0.1,5.2-0.1c0.2,0,0.6,0,1,0c1.8,0,2.9,0,3.2,0c0.3,0,0.5-0.1,0.6-0.2l0,0c0.1-0.2-0.3-0.7-1.3-1.4
	c-0.5-0.4-0.8-0.5-0.9-0.5c-0.1,0-0.4,0.2-0.7,0.7c-0.3,0.5-0.6,0.8-0.9,0.8c-0.2,0.1-1.4,0.1-3.6,0c-2.2,0-3.6-0.1-4-0.2
	c-0.1,0-0.2,0.1-0.1,0.3S137.9,30,138.1,30.3z M164.7,45.8c0.3,0.2,0.7,0.1,1.3-0.1c0.6-0.2,0.8-0.5,0.8-0.8c0,0,0-0.1,0-0.2
	c0-0.2,0-0.4,0.1-0.5c0.1-0.1,0.4-0.2,1-0.2c0.4,0,1.2,0,2.6,0c0.3,0,0.5,0,0.7,0c0.2,0,0.5,0,0.9,0c1.3,0,2.1,0,2.5,0
	c0.5,0,0.8,0.1,0.9,0.2c0.1,0.1,0.1,0.3,0.1,0.5c0,0.1,0,0.1,0,0.2c0,0.4,0,0.6,0.2,0.7c0.2,0.1,0.5,0.1,1-0.1
	c0.6-0.2,0.9-0.4,1-0.6c0.1-0.2,0.2-0.7,0.1-1.5c-0.2-4.8-0.1-7.2,0.4-7.2c0,0,0.1,0,0.3-0.1c0.1-0.1,0.2-0.2,0.2-0.2
	c0-0.1-0.2-0.3-0.7-0.7c-0.5-0.4-0.9-0.7-1.2-0.9c-0.1-0.1-0.3-0.1-0.4,0c-0.1,0-0.3,0.2-0.6,0.5c0,0-0.1,0.1-0.1,0.2
	c-0.2,0.2-0.5,0.4-0.7,0.4c-0.3,0-1.2,0-2.8,0c-0.5,0-0.9,0-1.2,0s-0.7,0-1.2,0c-1.5,0-2.4,0-2.7,0c-0.3,0-0.7-0.2-1.2-0.4
	c-0.2-0.1-0.3-0.1-0.5-0.2c0,0-0.1,0-0.2-0.1c-0.5-0.2-0.7-0.3-0.8-0.3c-0.1,0-0.1,0.2,0,0.5c0,0.1,0,0.1,0,0.1
	c0.1,1.1,0.2,2.6,0.2,4.5c0,1.9,0,3.6-0.1,5.1c0,0.4,0,0.7,0,0.8C164.5,45.7,164.6,45.8,164.7,45.8z M175.3,43.4
	c-0.1,0.1-1.5,0.1-4,0.1c-2.6,0-3.9,0-4-0.1c-0.2-0.1-0.3-0.2-0.3-0.4c0-0.2,0-0.6,0-1.2c0-0.1,0-0.3,0-0.5c0-0.4,0-0.7,0.1-0.9
	c0.1-0.2,0.4-0.3,0.8-0.3c0.3,0,1.1,0,2.3,0c0.5,0,0.9,0,1.2,0s0.7,0,1.2,0c1.2,0,1.9,0,2.3,0c0.4,0,0.7,0.2,0.8,0.3
	c0.1,0.1,0.1,0.4,0.1,0.9c0,0.2,0,0.4,0,0.5c0,0.7,0,1.1,0,1.3C175.5,43.2,175.4,43.3,175.3,43.4z M171.2,39.4c-2.6,0-4,0-4.1-0.1
	c-0.1-0.1-0.2-0.2-0.2-0.4c0-0.2,0-0.6,0-1.2c0-0.1,0-0.2,0-0.4c0-0.4,0-0.7,0.1-0.8c0.1-0.1,0.4-0.2,0.8-0.3c0.3,0,1.1,0,2.3,0
	c0.5,0,0.9,0,1.2,0s0.7,0,1.2,0c1.2,0,1.9,0,2.3,0c0.4,0,0.7,0.1,0.8,0.3c0.1,0.1,0.1,0.4,0.1,0.8c0,0.2,0,0.3,0,0.4
	c0,0.6,0,1,0,1.2c0,0.2-0.1,0.3-0.2,0.4C175.2,39.4,173.8,39.4,171.2,39.4z M161.2,33.2c0.1,0,0.1,0.1,0.2,0c0,0,0.1,0,0.2,0
	c0.7-0.1,1.2-0.2,1.5-0.2c0.3,0,3.4-0.1,9.4-0.1c0.4,0,0.9,0,1.6,0c2.8,0,4.6,0,5.3,0c1,0,1.7,0,2-0.1c0.2,0,0.3-0.1,0.3-0.2
	c0,0,0-0.1,0-0.1c0-0.1-0.1-0.3-0.5-0.6c-0.3-0.3-0.7-0.7-1.2-1l0,0c-0.4-0.3-0.6-0.4-0.7-0.4c-0.1,0-0.3,0.2-0.6,0.7
	c0,0-0.1,0.1-0.1,0.1c0,0-0.1,0.1-0.1,0.2c-0.3,0.4-0.5,0.6-0.7,0.6c-0.2,0.1-0.6,0.1-1.4,0.1c-0.2,0-0.3,0-0.4,0
	c-0.9,0-1.4,0-1.6,0c-0.3,0-0.4-0.2-0.3-0.3c0-0.1,0.3-0.4,0.7-0.8c0.2-0.2,0.6-0.6,1.2-1.3c0,0,0.1-0.1,0.1-0.1
	c0.4-0.5,0.6-0.7,0.7-0.8c0.1-0.1,0.2-0.2,0.3-0.2c0.2-0.1,0.3-0.1,0.3-0.2s-0.2-0.2-0.5-0.3c-0.6-0.3-0.8-0.5-0.6-0.6
	c0.2-0.1,1-0.1,2.4-0.1c1.1,0,1.8,0,2,0c0.2,0,0.3-0.1,0.4-0.2c0.1-0.2-0.3-0.7-1.3-1.4l0,0c-0.5-0.4-0.8-0.6-1-0.6
	c-0.1,0-0.4,0.3-0.7,0.7l0,0c0,0-0.1,0.1-0.1,0.2c-0.2,0.4-0.5,0.6-0.7,0.6c-0.2,0-0.8,0.1-1.8,0.1c-0.2,0-0.4,0-0.5,0
	c-1.1,0-1.7,0-1.9,0c-0.2,0-0.3-0.1-0.4-0.1c-0.2-0.2-0.2-0.5-0.2-0.9c0-0.4,0.2-0.7,0.4-0.9c0.2-0.2,0.2-0.3-0.1-0.4
	c-0.2-0.1-0.8-0.3-1.7-0.5c0,0-0.1,0-0.2,0c-0.4-0.1-0.7-0.2-0.7-0.1c-0.1,0-0.1,0.2-0.1,0.5c0,0.1,0,0.1,0,0.1c0,0.1,0,0.3,0,0.5
	c0,0.7,0,1.1,0,1.3c-0.1,0.3-0.3,0.4-0.6,0.5c-0.3,0-0.9,0-1.9,0c-0.3,0-0.5,0-0.7,0c-2.2,0-3.8,0-4.7-0.1c-0.2,0-0.3,0-0.4,0
	c0,0,0.1,0.2,0.2,0.5c0,0,0,0,0,0.1c0.1,0.2,0.2,0.4,0.3,0.4c0.1,0,0.3,0,0.5,0c0.1,0,0.1,0,0.2,0c2-0.3,2.9-0.3,2.9,0
	c0,0.1,0.1,0.3,0.2,0.6c0.4,0.8,0.7,1.6,0.9,2.4s0.3,1.4,0.1,1.5c-0.1,0.1-0.9,0.1-2.4,0.1c-1.5,0-2.7,0-3.6-0.1c-0.2,0-0.4,0-0.4,0
	c0,0,0.1,0.2,0.2,0.5C161,33,161.2,33.1,161.2,33.2z M172.6,32.2c-0.2,0.1-0.8,0.1-1.9,0.1c-1.1,0-1.6-0.1-1.7-0.1
	c-0.1-0.1-0.1-0.1-0.1-0.2c0-0.1,0-0.2,0.1-0.4c0.2-0.5,0.2-1.1-0.1-1.7c-0.3-0.6-0.7-1.1-1.4-1.6l0,0c-0.5-0.3-0.8-0.6-0.8-0.6
	c0-0.1,0.2-0.2,0.7-0.2c0.4,0,1.4,0,2.9,0c0.2,0,0.4,0,0.7,0c1.2,0,2,0,2.3,0c0.4,0,0.7,0.1,0.8,0.2c0,0.1,0,0.3,0,0.6
	c0,0.1,0,0.1,0,0.1c-0.3,1-0.5,1.8-0.8,2.6C173,31.7,172.8,32.1,172.6,32.2z M194.8,45.3c0.9,0.1,3.1,0.1,6.4,0s5.3-0.1,5.9-0.2
	c0.7-0.1,1.3-0.3,1.8-0.6c0.4-0.3,0.7-0.6,0.7-0.9s-0.2-0.6-0.7-0.8c-0.4-0.2-0.6-0.4-0.6-0.6s-0.1-0.8-0.1-1.7s0-1.5-0.1-1.6
	c-0.1-0.1-0.2,0.1-0.4,0.7c0,0.1-0.1,0.3-0.1,0.5c-0.3,1.1-0.6,1.8-0.8,2.1c-0.3,0.4-0.9,0.7-1.8,0.8c-0.6,0.1-2,0.1-4.2,0.1
	c-0.4,0-0.7,0-0.9,0c-0.4,0-1,0-1.7,0c-1.9,0-3,0-3.5-0.1c-0.7-0.1-1.1-0.3-1.3-0.6c-0.1-0.3-0.2-0.8-0.1-1.8c0-0.4,0-0.7,0-0.9
	c0-0.1,0-0.2,0-0.4c0-1,0-1.6,0-1.8c0-0.2,0.1-0.3,0.3-0.4l0,0c0.1-0.1,1.9-0.1,5.2-0.1c3.4,0,5.2,0,5.3,0.1
	c0.1,0.1,0.2,0.1,0.3,0.2c0,0.1,0.1,0.2,0.1,0.5c0,0.4,0.1,0.6,0.2,0.7c0.1,0.1,0.4,0.1,0.8,0c0.5-0.1,0.8-0.2,1-0.3
	c0.2-0.1,0.3-0.3,0.3-0.6c0-0.2,0-0.6,0-1.3c-0.1-2-0.1-3.3,0-3.8c0-0.5,0.2-0.9,0.4-1c0.4-0.2,0.5-0.4,0.5-0.5
	c0-0.2-0.3-0.4-0.8-0.9c-0.6-0.5-1-0.8-1.2-0.8c-0.2,0-0.4,0.1-0.7,0.4c0,0-0.1,0.1-0.1,0.2c-0.3,0.3-0.5,0.5-0.7,0.5
	c-0.2,0-0.7,0.1-1.6,0.1c-0.2,0-0.3,0-0.4,0c-1,0-1.7,0-2,0c-0.4,0-0.5-0.2-0.5-0.3c0-0.1,0.3-0.4,0.7-0.7c0.6-0.5,1.1-1,1.3-1.2
	c0.6-0.6,1.1-0.9,1.4-1c0.3-0.1,0.4-0.2,0.4-0.3c0-0.1-0.3-0.4-0.7-0.8c-0.6-0.6-1-0.9-1.2-1c-0.2-0.1-0.5,0.1-0.8,0.5
	c0,0-0.1,0.1-0.1,0.1c-0.3,0.3-0.5,0.5-0.7,0.5c-0.2,0-0.7,0.1-1.5,0.1c-0.2,0-0.3,0-0.4,0c-1,0-1.6,0-1.8,0c-0.2,0-0.3-0.1-0.3-0.3
	c0-0.2,0.1-0.5,0.3-0.9s0.5-0.6,0.7-0.7c0.6-0.1-0.2-0.5-2.1-1.1c-0.4-0.1-0.6-0.2-0.7-0.1c-0.1,0-0.1,0.1-0.2,0.3
	c-0.3,1.4-1,3-2,4.8c-1,1.8-2.2,3.3-3.5,4.7c-0.3,0.3-0.5,0.5-0.5,0.6c0,0.1,0,0.1,0.2,0.1s0.8-0.4,1.9-1.2c0.3-0.2,0.5-0.3,0.6-0.4
	c0.1,0,0.2,0,0.3,0.1c0,0,0.1,0.3,0.1,0.8c0,0.4,0,1.9,0,4.3c0,0.1,0,0.1,0,0.1c0,2.7,0,4.2,0,4.7c0,0.5,0.1,0.9,0.2,1.2l0,0
	C191.9,44.6,193,45.2,194.8,45.3z M202.4,36.5c-1.2,0-1.9,0-2.1-0.1c-0.2-0.1-0.3-0.2-0.3-0.5c0-0.3,0-0.9,0-2.1c0-0.2,0-0.4,0-0.7
	c0-0.7,0-1.1,0-1.3c0-0.3,0.2-0.4,0.4-0.5c0.2,0,0.6-0.1,1.2-0.1c0.3,0,0.5,0,0.6,0s0.4,0,0.7,0c0.6,0,1,0,1.2,0
	c0.2,0.1,0.4,0.2,0.5,0.5c0,0.2,0.1,0.6,0,1.3c0,0.3,0,0.5,0,0.7c0,1.1,0,1.8,0,2c0,0.2-0.1,0.4-0.2,0.5
	C204.3,36.4,203.7,36.5,202.4,36.5z M195.7,36.5c-1.2,0-1.9,0-2-0.1c-0.2-0.2-0.3-1-0.3-2.5s0.1-2.3,0.3-2.5c0.1-0.1,0.8-0.1,2-0.1
	c1.2,0,1.9,0,2,0.1c0.2,0.2,0.3,1,0.3,2.4s-0.1,2.3-0.3,2.4C197.6,36.4,197,36.5,195.7,36.5z M196.1,30.6c-1.5,0-2.3,0-2.4-0.1
	c-0.4-0.1-0.5-0.3-0.5-0.4c0-0.2,0.3-0.6,0.7-1.1c0.2-0.2,0.5-0.6,0.9-1.1c0,0,0.1-0.1,0.1-0.2c0.2-0.3,0.4-0.5,0.6-0.6
	c0.2,0,0.7-0.1,1.6-0.1c0.2,0,0.4,0,0.5,0c1,0,1.6,0,1.9,0c0.4,0,0.6,0.2,0.6,0.3c0,0.1,0,0.4-0.2,0.8c-0.6,1.4-1.1,2.1-1.4,2.3
	C198.3,30.6,197.5,30.6,196.1,30.6z M219.2,45.9c0.2,0.1,0.4,0.1,0.8,0c0.4-0.1,0.7-0.2,1-0.5c0.2-0.1,0.3-0.2,0.3-0.4
	c0-0.1,0-0.6,0-1.3c-0.1-2.3-0.2-4.4-0.1-6.5c0-2,0.2-3.1,0.3-3.1c0.2,0,0.2-0.1,0.2-0.3c0-0.1-0.1-0.3-0.3-0.4
	c-0.3-0.2-0.4-0.4-0.4-0.6c0-0.2,0.2-0.5,0.5-0.9c0.1-0.1,0.2-0.2,0.3-0.4c0.3-0.3,0.4-0.6,0.5-0.7c0.4-0.5,0.7-0.8,0.9-0.8
	c0.3-0.1,0.3-0.2,0-0.4c-0.2-0.2-0.8-0.6-1.8-1.1c-0.4-0.2-0.6-0.3-0.6-0.3c-0.1,0-0.1,0-0.2,0.2c-0.3,1.2-0.9,2.5-1.7,4
	c-0.8,1.5-1.7,2.9-2.8,4.2c-0.1,0.2-0.2,0.3-0.2,0.3c0,0,0,0.1,0,0.1c0.1,0.1,0.2,0,0.4-0.1c0.2-0.2,0.7-0.5,1.4-1.1
	c0.4-0.3,0.6-0.5,0.8-0.6c0.1,0,0.3,0,0.3,0.2c0.1,0.1,0.1,1.2,0.1,3.3c0,2.1-0.1,3.8-0.1,5.1c-0.1,0.9-0.1,1.4-0.1,1.6
	C218.9,45.6,219,45.8,219.2,45.9z M235.6,45.7c0.3,0.1,0.4,0.1,0.5,0.1c0,0,0.1-0.1,0.2-0.2c0.3-0.8,0.7-1.4,1.3-1.6
	c0.3-0.2,0.4-0.3,0.4-0.3s-0.4-0.2-1.1-0.3c-1.6-0.3-3.1-0.8-4.2-1.3c-0.5-0.2-0.7-0.4-0.8-0.6c0-0.2,0.1-0.4,0.5-0.8
	c0.7-0.8,1.3-1.5,1.8-2.4c0.3-0.5,0.6-0.7,0.9-0.8c0.3-0.1,0.4-0.2,0.4-0.5c-0.1-0.2-0.4-0.6-0.9-1.1l0,0c-0.5-0.4-0.8-0.7-0.9-0.7
	c-0.1,0-0.4,0.2-0.8,0.5l0,0c-0.4,0.3-0.6,0.5-0.8,0.6c-0.2,0-0.6,0.1-1.2,0.1c-0.1,0-0.1,0-0.1,0c-0.7,0-1.1,0-1.2,0
	c-0.2,0-0.3-0.1-0.3-0.2c0-0.2,0-0.4,0.3-0.7s0.4-0.5,0.6-0.5c0.2,0,0.3-0.1,0.3-0.2c0-0.1-0.1-0.2-0.3-0.3c-0.1,0-0.2-0.1-0.2-0.2
	c-0.1-0.1-0.1-0.2-0.1-0.2c0-0.1,0.6-0.3,1.8-0.5c0.6-0.1,1.2-0.2,2.1-0.4c0.6-0.1,1-0.1,1.2,0.1c0.2,0.2,0.5,0.7,0.8,1.5
	c0.1,0.4,0.4,0.6,0.7,0.6c0.3,0,0.6,0,0.8-0.2c0.3-0.2,0.4-0.6,0.4-0.9c0-0.8-0.4-1.5-1.1-2.2c-0.7-0.7-1.6-1.3-2.9-1.8
	c-0.4-0.2-0.7-0.2-0.7-0.2c0,0.1,0.1,0.3,0.4,0.7c0.5,0.6,0.8,1,0.8,1.2c0.1,0.2,0,0.4-0.4,0.5c-0.2,0-0.9,0.1-1.9,0.1
	c-1,0-1.6,0-1.9,0c-0.4,0-0.6-0.1-0.5-0.3c0-0.1,0.3-0.3,0.7-0.7c0.8-0.7,1.9-1.6,3.1-2.8c0.7-0.6,1.1-1,1.2-1.2
	c0.2-0.1,0.3-0.2,0.6-0.3c0.2,0,0.1-0.2-0.1-0.4c-0.2-0.2-0.7-0.6-1.5-1.1c-0.4-0.3-0.6-0.4-0.7-0.4c-0.1,0-0.2,0.1-0.2,0.2l0,0
	c-0.3,0.6-0.7,1.4-1.2,2.3c-0.5,0.9-1.1,1.7-1.7,2.4c-0.1,0.1-0.3,0.3-0.5,0.6c-0.1,0.2-0.2,0.3-0.2,0.3c0,0-0.1,0.1-0.1,0.2
	c-0.3,0.4-0.6,0.7-0.8,0.8c-0.3,0.2-0.6,0.3-1.1,0.3c-0.4,0-1.2,0-2.5,0c-0.2,0-0.3,0-0.4,0c-0.3,0-0.5,0-0.6,0c0,0,0.1,0.5,0.3,1.2
	c0.2,0.8,0.4,1.2,0.4,1.2s0.1,0,0.3,0c0.1-0.1,0.2-0.1,0.2-0.2c0-0.1,0.4-0.3,1.3-0.4c0.9-0.1,1.4-0.2,1.5,0c0.3,0.3-0.1,1.1-1,2.6
	s-1.9,2.8-3,3.8c-0.4,0.3-0.6,0.6-0.6,0.6c0,0.1,0,0.2,0.1,0.2c0.1,0.1,0.7-0.2,1.6-0.8c0.9-0.6,1.7-1.2,2.4-1.9
	c0.4-0.4,0.6-0.5,0.8-0.5c0.1,0,0.3,0.2,0.6,0.7c0.2,0.4,0.4,0.8,0.6,1.1c0.3,0.4,0.4,0.8,0.4,0.9c0,0.2-0.2,0.4-0.5,0.7
	c-0.8,0.6-1.7,1.3-2.9,1.9c-1.2,0.6-2.2,1.1-3.1,1.4c-0.2,0.1-0.3,0.2-0.2,0.2c0.1,0.1,0.3,0.1,0.6,0c2.5-0.5,4.6-1.3,6.6-2.4
	c0.5-0.3,0.8-0.4,1-0.4c0.2,0,0.4,0.1,0.7,0.3c1.3,1,2.9,1.9,4.7,2.5C235.5,45.7,235.6,45.7,235.6,45.7z M230.1,40.2
	c-0.2,0.1-0.3,0.1-0.5,0.1c-0.2-0.1-0.4-0.2-0.7-0.6c-0.8-0.8-1.2-1.4-1.2-1.7c0-0.3,0.2-0.6,0.4-0.6s0.8-0.2,1.7-0.2
	c0.9,0,1.4,0,1.6,0.1c0.2,0,0.3,0.2,0.3,0.4c0,0.2-0.2,0.6-0.6,1.3C230.6,39.6,230.3,40,230.1,40.2z M226.8,31.1
	c0.4,0.2,0.7,0.2,1,0c0.3-0.2,0.5-0.5,0.5-0.9c0-0.2,0-0.4-0.1-0.6c-0.1-0.2-0.3-0.5-0.6-0.9c-0.1-0.2-0.2-0.3-0.1-0.4
	c0.1-0.1,0.3-0.4,0.7-0.7c0.5-0.5,1-0.9,1.4-1.3l0,0c0.6-0.6,0.9-0.9,1.1-0.9c0.3-0.1,0.3-0.2,0.1-0.3c-0.2-0.2-0.7-0.4-1.5-0.9
	c-0.1,0-0.2-0.1-0.3-0.1c-0.5-0.2-0.7-0.4-0.8-0.3c-0.1,0-0.2,0.1-0.2,0.4c0,0.1,0,0.2,0,0.2c-0.3,1.1-0.6,1.9-0.7,2.4
	c-0.2,0.5-0.4,0.8-0.7,0.9c-0.2,0.1-0.5,0.1-0.9-0.1c-0.9-0.4-1.4-0.5-1.7-0.5c-0.2,0-0.1,0.3,0.3,0.7c1,1.2,1.8,2.2,2.2,3
	C226.5,30.9,226.7,31,226.8,31.1z M216.4,30.1c0.2,0.1,0.8-0.3,2.1-1.2c1.2-0.9,2.3-1.8,3.2-2.6c0.4-0.4,0.6-0.6,0.7-0.7
	c0.1-0.1,0.3-0.2,0.4-0.2c0.2,0,0.3-0.1,0.2-0.2c-0.1-0.1-0.3-0.3-0.7-0.6c-0.1-0.1-0.4-0.3-0.8-0.5c-0.1-0.1-0.2-0.1-0.3-0.2
	c-0.4-0.3-0.6-0.4-0.6-0.4c-0.1,0-0.2,0.1-0.2,0.4c-0.3,0.8-0.8,1.8-1.5,2.8c-0.6,1-1.4,1.9-2.1,2.7c-0.2,0.2-0.4,0.4-0.4,0.5
	C216.3,30,216.3,30.1,216.4,30.1z M252.9,37.6c0.1,0.2,0.2,0.3,0.4,0.3c0.2,0,0.5-0.2,0.9-0.6c0.9-0.7,1.6-1.6,2-2.8
	c0.4-1.1,0.4-2.1,0.1-2.9c-0.3-0.9-0.9-1.3-1.8-1.2c-0.6,0-1,0.3-1.3,0.7c-0.2,0.4-0.3,0.9-0.1,1.4c0.2,0.5,0.5,1,1.1,1.3
	c0.3,0.2,0.5,0.3,0.6,0.5c0.1,0.1,0.1,0.2,0.1,0.4c-0.1,0.4-0.3,0.8-0.6,1.3c-0.4,0.5-0.8,0.8-1.2,1.2c-0.2,0.1-0.3,0.2-0.3,0.3
	C252.8,37.4,252.8,37.5,252.9,37.6z M289.2,45.7c0.2,0.2,0.6,0.1,1.3-0.2c0.7-0.3,1.2-0.6,1.3-1c0,0,0,0,0-0.1
	c0.1-0.2,0.2-0.6,0.2-1.3c0-0.7,0-2.9,0-6.6c0-0.8,0-1.4,0-1.9c0-0.4,0-0.9,0-1.6c0-2.8,0-4.6,0-5.4c0-1.1,0-1.8,0.1-2
	c0-0.2,0.1-0.3,0.2-0.4c0,0,0.1,0,0.1,0c0.2-0.2,0.2-0.3-0.1-0.5c-0.3-0.2-0.9-0.4-1.8-0.6c0,0-0.1,0-0.1,0
	c-0.4-0.1-0.6-0.1-0.6-0.1c0,0-0.1,0.2,0,0.5c0,0,0,0.1,0,0.1c0.1,0.8,0.2,1.7,0.2,2.7c0,0.9,0,3.4,0,7.5c0,3.9,0,6.2,0,6.9
	c0,0.7,0,1-0.1,1.1c-0.1,0.2-0.3,0.3-0.6,0.3s-0.9,0-1.8,0c-0.5,0-0.8,0-0.9,0c-0.1,0-0.2,0.1-0.2,0.1c0,0.1,0.1,0.2,0.4,0.2
	c0.7,0.1,1.2,0.4,1.6,0.8c0.4,0.4,0.6,0.8,0.6,1.3C289.1,45.6,289.2,45.7,289.2,45.7z M277.7,45.9c0.2,0.1,0.6,0,1-0.1
	c0.4-0.1,0.7-0.3,0.9-0.5c0.1-0.1,0.1-0.1,0.1-0.2c0,0,0-0.2,0-0.4c-0.1-1.3-0.1-3.2-0.1-5.8c0-2.5,0-3.8,0.1-4
	c0.2-0.2,0.5,0,0.9,0.6c0.5,0.7,0.8,1.4,1.2,2.3c0.2,0.6,0.5,0.9,0.9,1c0.4,0.1,0.7-0.1,1-0.6c0.3-0.6,0.2-1.4-0.4-2.2
	c-0.6-0.8-1.5-1.5-2.7-2.1c-0.4-0.2-0.7-0.4-0.8-0.5c-0.1-0.1-0.2-0.3-0.2-0.6v0c0-0.4,0-0.6,0-0.7c0.1-0.1,0.3-0.2,0.6-0.3
	c0.2,0,0.8,0,1.7,0c0.1,0,0.1,0,0.2,0c1.2,0,1.9,0,2.1,0c0.2,0,0.3-0.1,0.4-0.2c0.1-0.2-0.3-0.7-1.2-1.6l0,0
	c-0.4-0.4-0.7-0.6-0.8-0.6c-0.1,0-0.4,0.3-0.7,0.8c-0.3,0.4-0.5,0.7-0.6,0.8c-0.1,0.1-0.4,0.1-0.7,0.1c-0.4,0-0.6,0-0.6-0.1
	c-0.1-0.1-0.2-0.3-0.2-0.6c0-0.2,0-0.8,0-1.7c0-1,0-1.6,0.1-1.8c0.1-0.2,0.3-0.3,0.6-0.4c1.6-0.4,2.6-0.6,3.1-0.5
	c0.4,0.1,0.7,0.1,0.7,0c0-0.1-0.2-0.4-0.6-0.8c-0.1-0.1-0.3-0.2-0.4-0.4c-0.6-0.6-1-0.9-1.2-1c-0.2-0.1-0.5,0-0.9,0.2
	c-0.1,0.1-0.2,0.1-0.3,0.2c-2.5,1.3-5,2.2-7.5,2.9c-0.4,0.1-0.6,0.2-0.7,0.2c-0.1,0-0.1,0.1,0,0.2c0,0.1,1.2,0.1,3.6-0.2
	c0,0,0.1,0,0.2,0c0.5-0.1,0.9-0.1,1-0.1c0.2,0,0.3,0.2,0.4,0.4c0,0.2,0,0.6,0,1.3c0,0.1,0,0.2,0,0.2c0,0.1,0,0.3,0,0.4
	c0,0.6,0,1,0,1.1c-0.1,0.2-0.2,0.3-0.5,0.4c-0.2,0-0.6,0.1-1.2,0c-0.2,0-0.4,0-0.5,0c-0.9,0-1.8,0-2.4-0.1c-0.4,0-0.6,0-0.6,0
	c0,0,0,0.2,0.2,0.5c0.1,0.3,0.2,0.5,0.3,0.6c0,0,0.2,0,0.6-0.1c0.8-0.1,1.5-0.2,2.1-0.2c0.6,0,1,0,1.1,0.1c0.2,0.2,0.1,0.9-0.4,2
	c-0.4,1.1-1,2.3-1.8,3.6c-0.8,1.4-1.6,2.5-2.3,3.4c0,0-0.1,0.1-0.1,0.1c-0.2,0.2-0.3,0.3-0.3,0.4c0,0,0,0.1,0,0.1
	c0.1,0.1,0.2,0.1,0.2,0.1c0.1,0,0.3-0.2,0.6-0.4c1.4-1.1,2.7-2.4,3.9-4.1c0.3-0.4,0.5-0.7,0.7-0.8s0.2,0,0.3,0.1
	c0.1,0.1,0.1,1,0.1,2.5c0,1.5-0.1,3.1-0.1,4.8c0,0.8-0.1,1.3,0,1.4C277.3,45.7,277.4,45.8,277.7,45.9z M285.3,40.8
	c0.2,0,0.6,0,1-0.1c0.4-0.1,0.7-0.3,0.9-0.5c0.1-0.1,0.1-0.2,0.1-0.2c0-0.1,0-0.4,0-0.9c-0.1-2-0.1-4.8-0.1-8.3c0-0.1,0-0.3,0-0.6
	c0-1.5,0-2.4,0-2.7c0-0.3,0.1-0.5,0.3-0.6c0,0,0.1-0.1,0.1-0.1c0.2-0.2,0.2-0.3-0.1-0.5c-0.3-0.2-0.9-0.4-1.9-0.6c0,0-0.1,0-0.1,0
	c-0.3-0.1-0.5-0.1-0.5,0c0,0,0,0.2,0,0.5c0,0,0,0.1,0,0.1c0.1,0.8,0.1,1.5,0.2,2.3c0,0.8,0,2.2,0,4.5c0,3,0,4.8-0.1,5.3
	c-0.1,1.2-0.1,1.8-0.1,2C285,40.6,285.1,40.7,285.3,40.8z M299.8,45.7c0.1,0.1,0.2,0.1,0.4-0.1c2-1.7,3.3-4,3.9-6.9c0,0,0-0.1,0-0.2
	c0.1-0.3,0.1-0.6,0.2-0.6c0.1-0.1,0.3-0.2,0.6-0.2c0.2,0,0.7,0,1.4,0c0.2,0,0.3,0,0.4,0c0.1,0,0.3,0,0.5,0c0.8,0,1.3,0,1.5,0
	c0.3,0,0.5,0.1,0.6,0.3c0.1,0.1,0.1,0.4,0.1,0.8c0,0.1,0,0.2,0,0.2c0,1.9,0,3.6-0.1,5.1c0,0.6,0,1,0,1.1c0,0.1,0,0.2,0.1,0.3
	c0.2,0.2,0.4,0.2,0.9,0.2c0.4,0,0.8-0.2,1.1-0.4c0.2-0.1,0.3-0.2,0.3-0.3c0-0.1,0-0.4,0-0.9c0-0.9-0.1-2.2-0.1-3.7
	c0-1.5,0-2.4,0-2.4c0.1-0.2,0.2-0.3,0.5-0.3c0.2,0,0.9,0,2.1,0c0.2,0,0.4,0,0.8,0c0.7,0,1.1,0,1.3,0c0.3,0.1,0.4,0.2,0.5,0.5
	c0,0.2,0.1,0.7,0,1.4c0,0.3,0,0.6,0,0.8c0,0.1,0,0.3,0,0.6c0,0.9,0,1.5-0.1,1.7c-0.1,0.3-0.2,0.5-0.5,0.6c-0.2,0-0.6,0-1.3,0
	c-0.2,0-0.3,0-0.4,0c-0.6-0.1-0.9-0.1-1,0c-0.1,0.1,0.1,0.2,0.5,0.4c1.1,0.3,1.8,0.9,1.9,1.9c0,0.2,0,0.3,0.1,0.3c0.1,0,0.2,0,0.4,0
	c0.8-0.1,1.3-0.3,1.7-0.6c0.4-0.2,0.6-0.6,0.8-1.1c0-0.2,0.1-3.1,0.1-8.7c0,0,0-0.1,0-0.2c0-4,0-6.4,0-7.2c0-0.8,0-1.2,0.1-1.2
	c0.1-0.2,0.3-0.3,0.5-0.4c0.3-0.2,0.4-0.3,0.3-0.5c-0.1-0.2-0.5-0.6-1.2-1.1c-0.5-0.4-0.9-0.6-1-0.6c-0.1,0-0.3,0.1-0.6,0.5
	c-0.3,0.4-0.6,0.6-0.7,0.7c-0.1,0-2,0.1-5.6,0.1c-3.6,0-5.5,0-5.7,0c0,0-0.1-0.1-0.3-0.1c-0.4-0.2-0.8-0.3-1.1-0.4
	c-0.7-0.3-1.1-0.5-1.2-0.5c0,0,0,0.4,0,1.3c0,0.4,0.1,2.2,0.1,5.4c0,3.1,0,4.9-0.1,5.5c-0.3,3.7-1.1,6.6-2.4,8.6
	C299.8,45.5,299.7,45.6,299.8,45.7z M314.1,36.9c-1.4,0-2.2,0-2.3-0.1c-0.1-0.1-0.2-0.2-0.3-0.4c0-0.2,0-0.9,0-2c0-0.2,0-0.4,0-0.7
	c0-0.7,0-1.1,0-1.3c0.1-0.3,0.2-0.4,0.5-0.5c0.2,0,0.6-0.1,1.3,0c0.3,0,0.5,0,0.7,0s0.4,0,0.7,0c0.7,0,1.2,0,1.4,0
	c0.3,0.1,0.4,0.2,0.5,0.5c0,0.2,0.1,0.6,0.1,1.3c0,0.3,0,0.5,0,0.7c0,1.1,0,1.8,0,2c0,0.2-0.1,0.4-0.3,0.5
	C316.3,36.8,315.6,36.8,314.1,36.9z M306.5,36.8c-0.8,0-1.3,0-1.5,0c-0.3,0-0.5-0.1-0.5-0.3c0-0.1,0-0.3,0-0.7c0-0.1,0-0.1,0-0.2
	c0-0.2,0-0.7,0-1.6c0-0.2,0-0.4,0-0.5s0-0.3,0-0.4c0-0.5,0-0.9,0.1-1c0.1-0.2,0.2-0.3,0.5-0.4c0.2,0,0.6,0,1.3,0c0.2,0,0.4,0,0.6,0
	c0.2,0,0.4,0,0.6,0c0.7,0,1.1,0,1.2,0c0.2,0.1,0.4,0.2,0.5,0.5c0,0.2,0.1,0.6,0.1,1.3c0,0.3,0,0.5,0,0.6c0,1.1,0,1.8,0,2
	c0,0.2-0.1,0.4-0.3,0.5c-0.1,0.1-0.2,0.1-0.4,0.1c-0.2,0-0.8,0-1.8,0C306.8,36.8,306.7,36.8,306.5,36.8z M314.1,31.1
	c-1.4,0-2.2,0-2.3-0.1c-0.1-0.1-0.2-0.2-0.3-0.4c0-0.2,0-0.9,0-1.9c0-0.2,0-0.4,0-0.7c0-0.7,0-1.1,0-1.2c0.1-0.3,0.2-0.4,0.5-0.5
	c0.2,0,0.6-0.1,1.3,0c0.3,0,0.6,0,0.8,0c0.2,0,0.4,0,0.7,0c0.7,0,1.2,0,1.3,0c0.3,0.1,0.4,0.2,0.5,0.5c0,0.2,0.1,0.6,0,1.3
	c0,0.3,0,0.5,0,0.7c0,1,0,1.7,0,1.9c0,0.2-0.1,0.4-0.2,0.5C316.3,31,315.6,31.1,314.1,31.1z M307,31.1c-1.3,0-2,0-2.1-0.1
	c-0.1-0.1-0.2-0.2-0.3-0.4c0-0.2,0-0.9,0-1.9c0-0.2,0-0.4,0-0.7c0-0.7,0-1.1,0-1.2c0.1-0.2,0.2-0.4,0.5-0.5c0.2,0,0.6-0.1,1.2,0
	c0.3,0,0.5,0,0.7,0c0.2,0,0.4,0,0.7,0c0.6,0,1,0,1.2,0.1c0.2,0.1,0.4,0.2,0.4,0.5c0,0.2,0.1,0.6,0,1.3c0,0.3,0,0.5,0,0.7
	c0,1,0,1.6,0,1.9c0,0.2-0.1,0.4-0.2,0.5C309,31,308.3,31.1,307,31.1z M27.7,69.8c0.2,0.2,0.6,0.2,1.1,0c0.6-0.2,0.9-0.4,0.9-0.6
	c0-0.2,0.1-0.3,0.2-0.4c0.1-0.1,0.5-0.1,1-0.1c0.4,0,1.3,0,2.8,0c0.1,0,0.2,0,0.4,0c1.3,0,2.1,0,2.4,0c0.5,0,0.8,0.1,0.9,0.2
	c0.1,0.1,0.1,0.2,0.1,0.5c0,0,0,0.1,0,0.1c0,0.2,0.1,0.4,0.3,0.4c0.2,0,0.6,0,1-0.2c0.4-0.1,0.7-0.3,0.7-0.4s0.1-0.5,0.1-1.2
	c0,0,0-0.1,0-0.1c0-1.6,0-2.6,0-3c0-0.4,0.1-0.6,0.3-0.7c0.3-0.1,0.2-0.4-0.3-0.8c-0.4-0.3-0.5-0.5-0.6-0.7c0-0.1,0.2-0.3,0.5-0.5
	c0,0,0,0,0.1,0c0.2-0.1,0.3-0.2,0.3-0.3c0-0.1,0-0.5,0-1.2c0-0.1,0-0.2,0-0.2c0-1,0.1-1.6,0.1-1.7c0.1-0.2,0.3-0.2,0.6,0
	c0.1,0.1,0.2,0.1,0.2,0.1c0,0,0.1-0.1,0.2-0.3c0.1-0.3,0.3-0.5,0.6-0.8c0.2-0.3,0.5-0.4,0.7-0.5c0.2-0.1,0.3-0.2,0.2-0.3
	c0-0.1-0.3-0.1-0.7-0.2c-1-0.2-1.9-0.4-2.6-0.7c-0.7-0.3-1.2-0.6-1.4-0.8c-0.2-0.3-0.1-0.5,0.3-0.7c0.3-0.1,0.4-0.2,0.4-0.3
	c0-0.1-0.2-0.2-0.5-0.5c-0.6-0.4-0.9-0.7-0.9-0.8c0-0.2,0.2-0.2,0.7-0.3c0.7,0,1,0.2,1,0.6c0,0.2,0.1,0.3,0.2,0.3
	c0.2,0,0.4,0,0.9-0.1c0.5-0.2,0.9-0.3,1-0.5c0.1-0.2,0.1-0.6,0.1-1.2c0-0.8,0-1.3,0-1.5c0-0.2,0.2-0.4,0.5-0.6
	c0.3-0.2,0.4-0.3,0.4-0.4c0-0.1-0.3-0.4-0.8-0.8c-0.5-0.4-0.8-0.7-1.1-0.9c-0.1-0.1-0.3-0.1-0.4,0c-0.1,0.1-0.3,0.2-0.5,0.6
	c0,0-0.1,0.1-0.1,0.2c-0.1,0.2-0.3,0.3-0.4,0.4c-0.2,0.1-0.7,0.1-1.3,0.1c-0.5,0-1.6,0-3.5,0c-0.7,0-1.3,0-1.7,0
	c-3.1,0-4.9,0-5.5-0.1c-0.6,0-1.1-0.2-1.7-0.4c-0.7-0.3-1.1-0.4-1.2-0.5c-0.1,0-0.2-0.1-0.2,0c0,0,0,0.2,0,0.4
	c0.1,0.8,0.2,2.7,0.1,5.5c0,2.8,0,4.9-0.1,6.3c-0.3,3.5-0.9,6.4-2,8.8c-0.2,0.5-0.3,0.7-0.1,0.7c0.1,0,0.4-0.2,0.7-0.6
	c0.4-0.4,0.7-0.9,1.1-1.5c1.2-1.9,2-4.4,2.4-7.5c0.1-0.5,0.1-0.8,0.2-0.9c0.1-0.2,0.2-0.3,0.5-0.4c0.3-0.2,0.5-0.2,0.6-0.2
	c0.1,0,0.2,0.3,0.3,0.6c0,0.3,0,0.9,0,1.8c0,1.1,0,1.7,0,1.8c0,0.2,0.1,0.3,0.1,0.3c0.2,0,0.4,0.4,0.4,1.1c0.1,0.7,0,2-0.1,3.7
	c0,0.8-0.1,1.3-0.1,1.5C27.5,69.6,27.6,69.8,27.7,69.8z M37.1,68c-0.1,0.1-1.3,0.1-3.6,0.1c-2.3,0-3.5-0.1-3.6-0.1
	c-0.2-0.1-0.3-0.3-0.3-0.6c0-0.3,0.1-0.5,0.2-0.7c0.1-0.1,1.3-0.1,3.6-0.1c2.3,0,3.5,0,3.7,0.1c0.2,0.1,0.3,0.4,0.3,0.7
	C37.4,67.6,37.3,67.8,37.1,68z M33.6,65.8c-2.3,0-3.5,0-3.6,0c-0.2-0.1-0.3-0.3-0.4-0.6c0-0.4,0.1-0.6,0.3-0.7
	c0.1-0.1,1.3-0.1,3.6-0.1c2.3,0,3.5,0,3.6,0.1c0.2,0.1,0.3,0.3,0.3,0.7c0,0.3-0.1,0.6-0.3,0.7C37.1,65.7,35.9,65.8,33.6,65.8z
	 M33.5,63.6c-2.3,0-3.5,0-3.8-0.1c-0.5-0.1-0.8-0.3-1-0.6c-0.1-0.3,0-0.5,0.4-0.7c0.2-0.1,1.6-0.1,4.3-0.1c2.7,0,4.1,0.1,4.2,0.1
	c0.2,0.1,0.2,0.3,0.1,0.6c-0.1,0.3-0.4,0.5-0.7,0.6C37,63.5,35.8,63.6,33.5,63.6z M32.4,61.3c-0.2,0.2-0.5,0.2-1.1,0
	c-0.1,0-0.3,0-0.5,0c-0.2,0-0.4,0.1-0.8,0.1c-0.4,0-0.6,0-0.7-0.1c-0.2-0.1-0.3-0.2-0.3-0.4c0-0.2,0-0.6,0-1.4c0-0.1,0-0.2,0-0.4
	c0-0.7,0.1-1.2,0.2-1.3c0.1-0.1,0.6-0.2,1.3-0.2c0.2,0,0.3,0,0.4,0c0.1,0,0.2,0,0.3,0c0.8,0,1.2,0.1,1.3,0.2
	c0.1,0.1,0.2,0.6,0.2,1.4c0,0.2,0,0.3,0,0.4C32.7,60.6,32.6,61.1,32.4,61.3z M36.7,61.5c-0.5,0-0.8,0-0.9,0c0,0-0.2,0-0.6,0
	c-0.3,0-0.6,0-0.6-0.1c-0.1-0.1-0.2-0.2-0.2-0.5c0-0.2,0-0.6,0-1.3c0-0.9,0-1.4,0.1-1.6c0.1-0.2,0.3-0.3,0.7-0.2
	c0.3,0,0.4,0.1,0.5,0.1c0.1,0.1,0.1,0.2,0.1,0.4c-0.1,0.7-0.2,1.3-0.4,2c-0.1,0.5-0.1,0.7,0,0.7s0.5-0.3,1-0.9
	c0.4-0.4,0.7-0.7,0.9-0.8c0.1-0.1,0.3-0.2,0.4-0.1c0.3,0,0.4,0.4,0.4,1c0,0.6-0.1,1-0.4,1.1C37.6,61.4,37.3,61.4,36.7,61.5z
	 M31.1,61.1c0,0,0.1-0.1,0.3-0.2c0.3-0.2,0.5-0.5,0.5-0.9c0-0.3-0.2-0.7-0.5-1c-0.3-0.3-0.6-0.5-0.8-0.7c-0.3-0.2-0.5-0.2-0.6-0.2
	c-0.1,0-0.1,0.2,0,0.4c0.3,0.6,0.4,1.1,0.5,1.5c0,0,0,0.1,0,0.1c0,0.2,0,0.4,0.1,0.5c0,0,0.1,0.1,0.3,0.2
	C30.9,61.1,31,61.1,31.1,61.1z M37.9,58.4c-0.1,0.1-0.3,0.1-0.5,0c-0.3-0.1-0.5-0.2-0.6-0.4c-0.1-0.2,0-0.3,0.3-0.3
	c0.4-0.1,0.6,0,0.7,0.1c0.1,0.1,0.1,0.2,0.1,0.3S37.9,58.4,37.9,58.4z M26.1,57.6c-0.2,0.1-0.3,0.1-0.3,0.1c-0.1,0-0.1-0.2-0.1-0.6
	c0-0.3,0-0.8,0-1.8c0-0.2,0-0.5,0-0.9c0-0.7,0-1.1,0.1-1.2c0.1-0.2,0.4-0.4,0.9-0.5c0.4,0,1.2,0,2.6,0c0.8,0,1.4,0,1.9,0
	c0.2,0,0.4,0,0.8,0c1.9,0,3.1,0,3.6,0c0.7,0,1.1,0.1,1.1,0.2c0.1,0.1,0,0.3-0.3,0.6c0,0.1-0.1,0.1-0.1,0.1c-0.1,0.2-0.7,0.3-1.8,0.3
	c-1,0-2,0-2.8-0.2c-0.1,0-0.2,0-0.2,0.1c0,0.1,0.1,0.2,0.2,0.5c0,0,0,0.1,0.1,0.1c0.1,0.2,0.2,0.3,0.3,0.4c0.1,0,0.3,0,0.6,0
	c0.1,0,0.2,0,0.2,0c1.1-0.2,2-0.2,2.7-0.2c0.7,0,1.1,0.2,1.3,0.5c0,0,0.1,0.2,0.2,0.4c0.1,0.2,0.2,0.3,0.3,0.4
	c0.2,0.4,0.3,0.6,0.4,0.7s-0.1,0.3-0.2,0.3c-0.1,0.1-1.5,0.1-4,0.1c-2.5,0-3.8,0-3.9-0.1c-0.3-0.1-0.2-0.3,0-0.6
	c0.9-0.8,1.4-1.2,1.5-1.2c0.3,0,0.4-0.1,0.2-0.2c-0.1-0.1-0.4-0.4-1-0.7c-0.7-0.4-1.1-0.6-1.2-0.7c-0.1,0-0.2,0-0.3,0.2
	c-0.2,0.5-0.6,1.3-1.3,2.3C26.9,56.9,26.4,57.5,26.1,57.6z M32.3,52.1c-4,0-6.1,0-6.3-0.1c-0.2-0.1-0.3-0.5-0.4-1.1
	c0-0.6,0.1-1,0.3-1.2c0.1-0.1,2.2-0.1,6.3-0.1c4.1,0,6.2,0,6.4,0.1c0.2,0.1,0.3,0.5,0.3,1.2c0,0.6-0.1,1-0.4,1.1
	C38.5,52.1,36.4,52.1,32.3,52.1z M52.7,69.8c0.2,0.1,0.4,0.1,0.8,0c0.4-0.1,0.7-0.2,1-0.4c0.2-0.1,0.3-0.2,0.3-0.3c0-0.1,0-0.4,0-1
	c-0.1-1.6-0.1-3.4-0.1-5.7c0-2.2,0-3.4,0.1-3.5c0.2-0.4,0.5-0.5,0.8-0.4c0.3,0.1,0.5,0.3,0.6,0.7c0,0.3,0.1,0.5,0.1,0.6
	c0,0.1,0.1,0.1,0.3,0.2c0.4,0.2,0.7,0.2,1,0c0.3-0.2,0.5-0.6,0.5-1.1c0-0.5-0.2-1.1-0.6-1.6c-0.4-0.5-1-1-1.7-1.5
	c-0.3-0.2-0.5-0.3-0.6-0.2c-0.1,0.1,0,0.3,0.2,0.6c0.3,0.7,0.4,1.1,0.3,1.3c-0.1,0.2-0.6,0.3-1.5,0.3c-0.7,0-1,0-1.1-0.1
	c-0.1-0.1,0-0.4,0.4-0.9c0.9-1.2,1.9-2.5,2.9-4c0.3-0.4,0.5-0.7,0.6-0.8c0.1-0.1,0.3-0.2,0.4-0.3c0.3-0.1,0.3-0.2,0-0.4
	c-0.3-0.2-0.9-0.5-1.9-1c-0.3-0.1-0.4-0.2-0.5-0.1c0,0-0.1,0.2-0.2,0.4c-0.3,1.3-1.1,3.3-2.4,6c-0.3,0.6-0.5,1-0.7,1.1
	c-0.2,0.1-0.6,0.2-1.3,0.2c0,0-0.1,0-0.1,0c-0.1,0-0.2,0-0.3,0c-0.4,0-0.6,0.1-0.7,0.1c0,0.1,0,0.3,0.1,0.6c0,0.1,0.1,0.2,0.1,0.3
	c0,0,0,0.1,0,0.1c0.2,0.6,0.3,0.9,0.4,1s0.2,0,0.4-0.2c0.2-0.2,0.6-0.4,1.3-0.5c0.5-0.1,0.8-0.1,0.9,0c0.1,0.1,0.2,0.4,0.2,0.9
	c0,0.7-0.1,1.1-0.2,1.2c-0.1,0.1-0.6,0.1-1.4-0.1c-0.1,0-0.2,0-0.3-0.1c-0.4-0.1-0.7-0.1-0.7-0.1C50,61.5,50,61.6,50,62
	c0,0.1,0,0.2,0,0.2c0,1.7-0.2,3.4-0.7,5.1c-0.1,0.3-0.1,0.5-0.1,0.5c0,0.1,0,0.1,0.1,0.1c0.2,0.1,0.5-0.3,1.1-1.2
	c0.5-0.9,1-1.9,1.3-3c0.2-0.5,0.3-0.8,0.4-1c0.1-0.2,0.3-0.2,0.4-0.1c0.3,0.2,0.3,2.1,0.1,5.9c0,0.5,0,0.8,0,1
	C52.5,69.6,52.6,69.7,52.7,69.8z M58.7,69.8c0,0,0.1,0.1,0.1,0c0.1,0,0.2-0.1,0.5-0.2l0.1,0c1.6-0.7,3.1-1.6,4.5-2.7
	c0.4-0.4,0.7-0.5,0.9-0.6c0.2,0,0.4,0.2,0.7,0.5c0.8,0.9,1.7,1.7,2.8,2.4c0.4,0.3,0.7,0.4,0.7,0.4c0.1,0,0.2-0.1,0.3-0.3
	c0.1-0.3,0.3-0.5,0.6-0.8c0.3-0.3,0.6-0.4,0.8-0.5c0.4-0.1,0.4-0.3-0.1-0.5c-1.6-0.6-2.9-1.4-3.9-2.3c-0.3-0.3-0.5-0.5-0.5-0.6
	c0-0.2,0.1-0.5,0.4-0.9c1-1.4,1.8-3.2,2.4-5.2c0.2-0.6,0.3-0.9,0.4-1.1c0.1-0.2,0.2-0.3,0.4-0.3c0.3-0.1,0.4-0.2,0.3-0.5
	c-0.1-0.2-0.4-0.6-0.9-1c-0.4-0.4-0.7-0.6-0.9-0.6c-0.1,0-0.3,0.1-0.6,0.4c-0.4,0.4-0.6,0.5-0.8,0.5c-0.2,0-0.2-0.2-0.3-0.5
	c0-0.3,0.1-1.2,0.2-2.7c0,0,0,0,0-0.1c0.1-1.3,0.2-2.1,0.3-2.3c0.1-0.3,0.2-0.4,0.5-0.6c0.2-0.1,0.3-0.3,0.1-0.5
	c-0.1-0.2-0.5-0.6-1-1c-0.4-0.3-0.6-0.5-0.7-0.5c-0.1,0-0.3,0.1-0.5,0.4c0,0.1-0.1,0.1-0.2,0.2c-0.2,0.3-0.4,0.4-0.7,0.5
	c-0.3,0-1.1,0.1-2.4,0c-0.5,0-0.9,0-1.2,0c-2.4,0-3.7,0-3.8,0c-0.2,0-0.3,0-0.3,0c0,0,0.1,0.2,0.2,0.5c0.1,0.3,0.2,0.4,0.3,0.5
	c0.1,0,0.2,0,0.3,0c0.3-0.1,0.5-0.2,0.8-0.2c0.3,0,0.5,0.1,0.6,0.2c0.2,0.2,0.2,1.8,0.1,4.7c-0.1,2.9-0.3,5.1-0.6,6.8
	c-0.2,1.3-0.4,2.1-0.6,2.4c-0.2,0.3-0.3,0.2-0.6-0.4c-0.4-0.9-1-1.6-1.9-2.2c-0.4-0.3-0.6-0.3-0.6-0.2c0,0.1,0,0.4,0.2,0.9
	c0.4,1.3,0.6,2.3,0.6,3c0,0.2,0.1,0.4,0.4,0.5c0.3,0.1,0.5,0.1,0.7,0c0.4-0.2,0.6,0,0.4,0.6c-0.2,0.6-0.6,1.5-1.2,2.6
	c-0.2,0.3-0.3,0.5-0.3,0.6c0,0.1,0,0.1,0.1,0.2c0.1,0.1,0.2,0.1,0.2,0c0.1,0,0.2-0.2,0.4-0.4c1.1-1.2,2-2.6,2.7-4.1
	c0.7-1.5,1.2-3.3,1.6-5.4c0.2-1,0.3-1.6,0.5-1.7c0.1-0.1,0.3,0.2,0.4,0.9c0.4,1.8,0.9,3.5,1.6,5c0.2,0.4,0.3,0.8,0.3,1
	c0,0.2-0.2,0.5-0.5,0.9c-1.2,1.4-2.6,2.6-4.2,3.5c-0.2,0.1-0.4,0.2-0.4,0.3S58.6,69.7,58.7,69.8L58.7,69.8z M65.1,62.9
	c-0.3,0.3-0.8-0.1-1.4-1.1c-0.6-1-1.1-2.3-1.5-3.8c0,0,0,0,0-0.1c-0.1-0.4-0.1-0.6-0.1-0.7c0-0.1,0.2-0.2,0.6-0.2c0.2,0,0.8,0,1.7,0
	c0.1,0,0.1,0,0.2,0c0.9,0,1.5,0,1.8,0c0.4,0,0.6,0.1,0.6,0.1c0.1,0.1,0.1,0.2,0.1,0.4c0,0.4-0.3,1.4-0.8,2.8
	C65.8,61.8,65.4,62.7,65.1,62.9z M63.1,56.4c-0.7,0-1.1,0-1.2,0c-0.2-0.1-0.3-0.2-0.4-0.4c0-0.2,0-0.6,0-1.2c0-1.1,0.1-2,0.1-2.7
	c0-0.1,0-0.2,0-0.4c0-0.6,0-1,0.1-1.2c0.1-0.2,0.2-0.4,0.4-0.5c0.1,0,0.5,0,1.1,0c0.1,0,0.3,0,0.3,0c0.1,0,0.3,0,0.5,0
	c0.5,0,0.8,0,1,0.1c0.2,0.1,0.3,0.3,0.3,0.6c0,0.2,0,0.8-0.1,1.7c0,0.4-0.1,0.7-0.1,0.9c0,0.1,0,0.2,0,0.3c-0.1,1.3-0.2,2.1-0.3,2.4
	c0,0.2-0.2,0.4-0.3,0.4C64.2,56.3,63.8,56.4,63.1,56.4z M51.2,55.3c0.4,0.2,0.7,0.2,0.9-0.1c0.2-0.2,0.4-0.5,0.4-0.9
	c0-0.4-0.1-0.8-0.4-1.1c-0.2-0.3-0.3-0.5-0.3-0.6c0-0.2,0.3-0.5,0.7-1c0.4-0.5,0.7-0.9,0.9-1.2c0.7-0.9,1.1-1.4,1.3-1.5
	c0.3-0.1,0.3-0.2,0.2-0.4c-0.1-0.1-0.6-0.3-1.2-0.6c-0.8-0.3-1.2-0.5-1.3-0.5c-0.1,0-0.2,0.1-0.2,0.3c-0.1,0.7-0.2,1.6-0.5,2.5
	c-0.2,0.9-0.4,1.5-0.6,1.6c-0.1,0.2-0.4,0.2-0.8,0c-0.6-0.2-0.9-0.3-1.1-0.3c-0.1,0-0.1,0.2,0.2,0.5c0.7,0.8,1.1,1.6,1.4,2.4
	c0.1,0.3,0.1,0.4,0.2,0.5C51,55.2,51.1,55.2,51.2,55.3z M82.2,69.9c0.1,0.1,0.5-0.1,1.2-0.6c0.7-0.5,1.3-1,1.8-1.5
	c0.4-0.4,0.9-1,1.5-1.8c0.2-0.3,0.3-0.4,0.5-0.3c0.1,0,0.3,0.3,0.6,0.7c0.8,1.2,1.8,2,2.9,2.4c1.1,0.4,2.9,0.6,5.4,0.6
	c0.1,0,0.2,0,0.3,0c0.7,0,1.1,0,1.2,0c0.1,0,0.2-0.1,0.2-0.3c0-0.3,0.1-0.5,0.3-0.8c0.2-0.3,0.3-0.5,0.5-0.6
	c0.2-0.1,0.3-0.2,0.2-0.3c0,0-0.8-0.1-2.4-0.1c-0.2,0-0.3,0-0.4,0c-1.3,0-2.2,0-2.6,0c-0.4,0-0.7-0.1-0.9-0.2
	c-0.2-0.1-0.4-0.1-0.3-0.2c0-0.1,0.2-0.2,0.5-0.4c0.3-0.2,0.5-0.3,0.6-0.4c0.1-0.1,0.1-0.3,0.1-0.5c0,0,0-0.1,0-0.1
	c-0.1-0.7-0.1-1.1,0-1.3c0-0.3,0.2-0.4,0.5-0.5c0.2,0,0.8-0.1,1.6-0.1c0.1,0,0.1,0,0.2,0c0.9,0,1.5,0,1.8-0.1
	c0.3-0.1,0.4-0.2,0.3-0.4c-0.1-0.2-0.4-0.5-0.9-1c-0.4-0.4-0.7-0.6-0.9-0.6s-0.3,0.2-0.6,0.6c-0.2,0.4-0.4,0.6-0.6,0.7
	c-0.1,0.1-0.3,0.1-0.6,0.1c-0.4,0-0.6-0.1-0.7-0.2c-0.1-0.2-0.2-0.5-0.1-1.1c0,0,0-0.1,0-0.1c0-0.4,0-0.6,0.1-0.7
	c0.1-0.1,0.2-0.2,0.5-0.3c0.2,0,0.6,0,1.3,0c0,0,0.1,0,0.1,0c1.1,0,1.7-0.1,1.8-0.2c0.1-0.1-0.1-0.5-0.7-1.1
	c-0.4-0.4-0.7-0.7-0.9-0.7c-0.1,0-0.4,0.2-0.7,0.6c-0.5,0.7-0.9,0.9-1.3,0.6c-0.2-0.2-0.4-0.6-0.3-1.2c0-0.7,0.2-1,0.4-1.2
	c0.2-0.1,0.5-0.1,0.8,0c0.3,0.1,0.5,0.2,0.5,0.4c0,0.1,0.1,0.2,0.4,0.2c0.2,0,0.5-0.1,0.8-0.2c0.4-0.1,0.6-0.3,0.6-0.4
	c0.1-0.1,0.1-0.4,0-0.9c0-0.8-0.1-1.4,0-1.6c0-0.3,0.1-0.6,0.3-0.7c0.1-0.1,0.4-0.1,0.8-0.1c0.4,0,0.6,0,0.7-0.1
	c0.1,0,0.2-0.1,0.2-0.3c0-0.1-0.2-0.3-0.6-0.8c-0.4-0.5-0.6-0.7-0.6-0.7c0,0-0.1,0.1-0.2,0.2c-0.1,0.2-0.2,0.2-0.3,0.2
	c-0.1,0-0.2-0.1-0.2-0.3c-0.1-0.3-0.1-0.6,0-0.9c0.1-0.3,0.2-0.5,0.3-0.6c0.2-0.1,0.3-0.2,0.3-0.4c0-0.2-0.3-0.4-0.7-0.7
	c-0.4-0.4-0.8-0.6-0.9-0.6c-0.1,0-0.3,0.1-0.6,0.3c-0.5,0.6-1.1,0.8-1.6,0.5c-0.2-0.1-0.3-0.3-0.3-0.6c0-0.3,0.1-0.5,0.3-0.6
	c0.2-0.2,0.2-0.3,0-0.5c-0.2-0.2-0.8-0.4-1.6-0.6c0,0-0.1,0-0.1,0c-0.3-0.1-0.4-0.1-0.5,0c0,0-0.1,0.3,0,0.7c0,0.1,0,0.1,0,0.2
	c0,0.7,0,1.2-0.1,1.3s-0.4,0.2-0.9,0.2c-0.3,0-0.5,0-0.6,0c-0.1,0-0.1-0.1-0.2-0.1c-0.8-0.8-1.3-1.2-1.5-1.3
	c-0.3-0.1-0.5-0.1-0.7,0.1c-0.5,0.5-1.4,0.7-2.7,0.5c-0.2,0-0.3,0-0.3,0c0,0,0,0.1,0,0.2c0.2,0.5-0.1,0.5-0.9,0
	c-0.1,0-0.2-0.1-0.3-0.2c-0.2-0.1-0.3-0.2-0.4-0.2c-0.5-0.3-0.6-0.5-0.3-0.7c0.1-0.1,0.1-0.1,0.1-0.2c0,0-0.6-0.2-1.6-0.4
	c-1-0.2-1.6-0.3-1.6-0.2c0,0,0,0.2-0.1,0.4c-0.1,0.9-0.3,2.1-0.8,3.4c-0.4,1.3-1,2.4-1.6,3.4c-0.2,0.3-0.3,0.5-0.2,0.6
	c0.1,0,0.1,0,0.2,0c0.1-0.1,0.3-0.2,0.6-0.5c0.3-0.3,0.6-0.5,0.7-0.5c0.1-0.1,0.4-0.1,0.8-0.1c0.5,0,0.7,0.1,0.8,0.2S80,55.1,80,56
	v0c0,0.7,0,1.1-0.1,1.3c-0.1,0.2-0.3,0.4-0.6,0.4c-0.2,0-0.8,0-1.7-0.1c0,0,0,0-0.1,0c-0.3,0-0.4,0-0.5,0c0,0,0,0.2,0.2,0.4
	c0,0,0,0.1,0,0.1c0.1,0.3,0.2,0.4,0.3,0.5c0,0,0.1,0.1,0.2,0c0.3-0.1,0.6-0.2,1.1-0.2c0.4,0,0.7,0,0.9,0c0.1,0.1,0.2,0.2,0.2,0.4
	c0,0.2,0,0.7,0,1.6c0,1.1-0.1,1.7-0.1,1.8c0,0.1-0.2-0.1-0.5-0.6c-0.3-0.6-0.7-1.2-1.1-1.6c-0.4-0.5-0.6-0.7-0.8-0.6
	c-0.1,0-0.1,0.1-0.1,0.1c0,0.1,0.1,0.3,0.1,0.6c0.3,1,0.4,2,0.4,3c0,0.5,0.1,0.9,0.1,1c0,0.1,0.1,0.2,0.3,0.3
	c0.2,0.1,0.4,0.1,0.5,0.1c0.1-0.1,0.3-0.2,0.5-0.5c0.2-0.3,0.4-0.4,0.4-0.3c0.1,0.1,0.1,0.4,0.1,1c0,0.6,0,1-0.2,1.2
	c-0.1,0.1-0.6,0.3-1.4,0.5c-0.7,0.1-1,0.2-1.1,0.2c-0.1,0-0.1,0-0.2,0.1c0,0,0,0.1,0,0.3c0,0.2,0.2,0.7,0.5,1.5
	c0.1,0.4,0.2,0.6,0.3,0.6c0.1,0,0.2-0.1,0.4-0.3c0.1-0.1,0.3-0.3,0.5-0.4c0.2-0.1,0.8-0.4,1.7-0.9c3-1.5,4.6-2.4,4.6-2.5
	c0-0.1-0.1-0.1-0.2-0.1c-0.1,0-0.5,0.1-1.2,0.3c-0.9,0.2-1.4,0.3-1.6,0.2c-0.2-0.1-0.2-0.4-0.1-1.1c0-0.3,0-0.6,0-0.9
	c0-0.4-0.1-1.3-0.1-2.6c0-1.3,0-2,0.1-2.1c0.1-0.1,0.2-0.2,0.3-0.2c0.1,0,0.6-0.1,1.2-0.1c0.7,0,1.2-0.1,1.4-0.1
	c0.2-0.1,0.2-0.2,0.1-0.5c-0.2-0.4,0-0.6,0.5-0.6c0.2,0,0.4-0.1,0.5-0.1c0.2-0.2,0.5-0.3,0.8-0.3c0.3,0,0.5,0.1,0.6,0.3
	c0.1,0.2,0.1,0.8,0,1.8c-0.1,1-0.2,1.6-0.3,1.9c-0.1,0.2-0.2,0.3-0.3,0.2c-0.1-0.1-0.2-0.4-0.3-0.8c-0.1-0.5-0.2-0.8-0.1-0.9
	s0.1-0.3,0.3-0.6c0,0,0,0,0-0.1c0.2-0.3,0.2-0.4,0.2-0.5c0,0-0.1-0.1-0.3-0.1c0,0-0.1,0-0.1,0c-0.2,0-0.3,0-0.4,0
	c0,0-0.1,0.2-0.1,0.5c0,0.3-0.1,0.5-0.1,0.6c-0.1,0.1-0.2,0.3-0.4,0.4c-0.2,0.2-0.4,0.3-0.6,0.3c-0.2,0-0.6-0.1-1.2-0.3
	c0,0-0.1,0-0.1,0c-0.4-0.1-0.6-0.2-0.6-0.1c0,0-0.1,0.2,0,0.5c0,0.1,0,0.1,0,0.2c0,1,0,2-0.2,3.1c-0.2,1-0.1,1.4,0.2,1.3
	c0.1,0,0.3-0.3,0.5-0.8c0.3-0.5,0.5-1.1,0.7-1.6c0.2-0.5,0.4-0.8,0.5-0.8c0.2-0.1,0.4,0,0.6,0.2c0.3,0.3,0.4,0.3,0.3,0
	c0-0.2,0-0.3,0.2-0.5c0.1-0.2,0.3-0.2,0.4-0.1c0.1,0,0.2,0.4,0.3,1.1c0.1,0.7,0.2,1.2,0.2,1.3c-0.1,0.8-0.5,1.8-1.2,3.1
	c-0.8,1.3-1.6,2.3-2.4,3C82.3,69.6,82.2,69.8,82.2,69.9z M91.4,66.8c-0.1,0.2-0.5,0.1-1.1-0.2s-1.2-0.7-1.6-1.2
	c-0.4-0.4-0.7-0.8-0.8-1.1c-0.1-0.3,0-0.6,0.2-0.9c0.1-0.2,0.3-0.3,0.3-0.2c0.1,0,0.2,0.2,0.3,0.5c0.1,0.1,0.1,0.2,0.2,0.2
	c0.1,0,0.2,0,0.3,0c1-0.3,1.6-0.3,1.9-0.1c0.3,0.2,0.4,0.9,0.3,2c0,0.4,0,0.7,0,0.8C91.4,66.6,91.5,66.7,91.4,66.8z M91.1,62.9
	C91,62.9,90.7,63,90.2,63c-0.5,0-1-0.1-1.6-0.1c-0.2,0-0.3-0.1-0.3-0.3c0-0.2,0.1-0.6,0.2-1.2c0.2-0.8,0.4-1,0.7-0.7
	c0.1,0.1,0.1,0.1,0.2,0.1c0,0,0.1,0,0.3-0.1c0.8-0.3,1.3-0.3,1.6,0c0.1,0.2,0.2,0.5,0.1,1.1C91.4,62.5,91.3,62.8,91.1,62.9z
	 M91.1,59.8c-0.1,0.1-0.4,0.1-0.9,0.1c-0.5,0-0.8-0.1-1-0.2c-0.2-0.1-0.2-0.5-0.1-1.2c0.1-0.7,0.2-1.1,0.4-1.3
	c0.2-0.1,0.3-0.1,0.4,0c0,0,0.2,0.1,0.6,0.1c0.4,0,0.7,0.1,0.8,0.2c0.1,0.1,0.2,0.5,0.2,1.1c0,0.4,0,0.7,0,0.9
	C91.3,59.6,91.3,59.7,91.1,59.8z M82.3,57.3c-0.2,0.1-0.3,0.1-0.4-0.1c-0.1-0.2-0.1-0.7-0.1-1.4c0,0,0,0,0-0.1
	c0-0.7,0.1-1.1,0.2-1.2c0.1-0.1,0.5-0.2,1.1-0.2h0.1c0.5,0,0.8,0,0.9,0c0.1,0,0.2-0.1,0.3-0.2c0.1-0.1,0-0.3-0.3-0.7
	c-0.2-0.3-0.4-0.5-0.4-0.6c0-0.1,0.1-0.2,0.3-0.2c0.3,0,0.6-0.1,0.7-0.2c0.2-0.1,0.3-0.3,0.4-0.6c0.1-0.3,0-0.5-0.1-0.8
	c-0.1-0.3-0.1-0.5,0-0.6c0.1-0.1,0.4-0.2,1-0.3c0.4,0,0.6,0,0.6,0.2c0.1,0.2,0,0.6-0.2,1.3c-0.2,0.6-0.6,1.7-1.3,3.3
	c-0.4,1-0.7,1.5-0.8,1.7c-0.1,0.2-0.4,0.1-0.7-0.1c-0.2-0.1-0.3-0.2-0.4-0.1c-0.1,0-0.3,0.2-0.5,0.6C82.5,57.1,82.4,57.2,82.3,57.3z
	 M91.1,56.5c-0.3,0.2-0.6,0.2-0.9,0c-0.3-0.1-0.7-0.5-1.2-0.9c-0.4-0.4-0.7-0.6-0.8-0.7c-0.1-0.1-0.2,0-0.3,0.1
	c-0.2,0.4-0.5,0.6-0.7,0.8c-0.2,0.1-0.4,0.2-0.6,0c-0.1-0.1-0.1-0.3,0-0.5c0.1-0.3,0.3-0.8,0.6-1.6c0.1-0.2,0.2-0.4,0.3-0.8
	c0-0.1,0.1-0.2,0.1-0.3c0.3-0.9,0.6-1.5,0.7-1.8c0.2-0.3,0.3-0.5,0.5-0.5c0.3-0.1,0.5,0,0.6,0.2c0,0.1,0.1,0.2,0.2,0.2
	c0.1,0,0.2,0,0.6,0c0.5,0,0.9,0.1,1,0.2c0.1,0.1,0.2,0.5,0.2,1.1c0,0.5,0,0.8-0.1,1c-0.1,0.2-0.4,0.3-0.7,0.3c-0.3,0-0.9,0-1.9-0.1
	c0,0,0,0-0.1,0c-0.3,0-0.5,0-0.6,0c0,0,0,0.2,0.1,0.4c0,0,0,0.1,0,0.1c0.2,0.3,0.3,0.5,0.3,0.5c0.1,0,0.2,0,0.3,0
	c0.4-0.1,0.8-0.2,1.3-0.2c0.5,0,0.8,0,0.9,0.1c0.2,0.1,0.3,0.5,0.3,1.2C91.5,56,91.4,56.4,91.1,56.5z M94.1,56.6
	c-0.4,0-0.6-0.1-0.7-0.2c-0.1-0.2-0.1-0.5-0.1-1.1c0-0.6,0-0.9,0.1-1.1c0.1-0.2,0.3-0.2,0.7-0.2s0.6,0.1,0.7,0.2
	c0.1,0.1,0.1,0.5,0.1,1.1c0,0.4,0,0.7-0.1,0.9c0,0.1-0.1,0.2-0.2,0.3C94.5,56.6,94.4,56.6,94.1,56.6z M94.6,53.3
	c-0.8,0.4-1.2,0-1.2-1.2c0-0.5,0-0.9,0.1-1c0.1-0.2,0.3-0.2,0.6-0.2c0.3,0,0.5,0.2,0.7,0.6c0.2,0.4,0.2,0.7,0.2,1.1
	C95,52.9,94.8,53.1,94.6,53.3z M80.5,53.6c-0.5,0-0.9,0-1,0c-0.2-0.1-0.3-0.2-0.2-0.3c0-0.2,0.2-0.4,0.5-0.9
	c0.5-0.7,0.9-1.3,1.2-1.9c0.1-0.1,0.2-0.3,0.3-0.5c0-0.1,0.1-0.2,0.1-0.2c0.2-0.4,0.4-0.5,0.6-0.4c0.2,0.1,0.4,0.5,0.7,1.1
	c0.7,1.4,0.7,2,0.2,1.8c-0.2-0.1-0.4,0.1-0.6,0.4c-0.3,0.4-0.6,0.7-0.8,0.9C81.3,53.5,81,53.5,80.5,53.6z M119.7,69.8
	c0.1,0.1,0.4,0,1-0.1c0.6-0.1,1-0.3,1.3-0.5c0.3-0.2,0.5-0.4,0.6-0.6c0.1-0.2,0.2-0.6,0.2-1.3c0-0.5,0-1.5,0-3c0-0.3,0-0.7,0-1.2
	c0-1,0-1.6,0-1.9c0-0.4,0.2-0.6,0.3-0.7c0.1-0.1,0.4-0.1,0.9-0.1c0.2,0,0.4,0,0.6,0c1.1,0,1.7-0.1,1.8-0.2c0.1-0.1-0.1-0.5-0.7-1.2
	c-0.5-0.6-0.9-0.9-1.1-1c-0.2,0-0.4,0.2-0.7,0.7c-0.2,0.4-0.4,0.6-0.5,0.7c-0.1,0.1-0.2,0.1-0.3,0.1c-0.3,0-0.4-0.3-0.4-1
	s0.1-1.1,0.4-1.2c0.2-0.1,0.2-0.3-0.1-0.5c-0.3-0.2-0.9-0.4-1.8-0.6c0,0-0.1,0-0.1,0c-0.3-0.1-0.5-0.1-0.6-0.1c0,0,0,0.2,0,0.4v0.1
	c0,0.5,0.1,1,0.1,1.5c0,0.1,0,0.2,0,0.4c0,0.4,0,0.7,0,0.8c-0.1,0.2-0.3,0.3-0.6,0.3c-0.2,0-0.7,0-1.6,0c-0.3,0-0.5,0-0.7,0
	c-2.2,0-3.8,0-4.8-0.1c-0.3,0-0.4,0-0.4,0c0,0,0.1,0.2,0.2,0.6c0,0,0,0.1,0,0.1c0.1,0.2,0.2,0.4,0.3,0.4c0.1,0,0.4,0,0.9-0.1
	c0.1,0,0.2,0,0.2,0c0.7-0.1,1.8-0.1,3.5-0.1c1.6,0,2.5,0,2.6,0.1c0.1,0.1,0.2,0.3,0.2,0.6c0,0.3,0,1.2,0,2.7c0,0.2,0,0.5,0,0.8
	c0,1.1,0,1.7,0,2c-0.1,0.4-0.2,0.6-0.5,0.7c-0.2,0-0.6,0-1.3,0c-0.2,0-0.4,0-0.5,0c-0.8,0-1.3-0.1-1.5,0c-0.1,0-0.2,0.1-0.1,0.2
	c0,0,0.1,0.1,0.4,0.1c1.5,0.2,2.3,0.9,2.5,1.9C119.7,69.7,119.7,69.8,119.7,69.8z M110,69.8c0.2,0.1,0.4,0.1,0.8,0
	c0.4-0.1,0.7-0.2,1-0.4l0,0c0.2-0.1,0.3-0.3,0.4-0.4c0-0.1,0-0.5,0-1c-0.1-2.3-0.1-5.3-0.1-9.2c0-1.7,0-3.3,0-4.9
	c-0.1-3,0-4.7,0.4-4.9c0.2-0.1,0.2-0.3,0-0.4c-0.2-0.1-0.8-0.3-1.8-0.6c-0.5-0.1-0.8-0.2-0.9-0.2c-0.1,0-0.1,0.1-0.1,0.3
	c0.1,0.8,0.2,2,0.2,3.8c0,1.8,0,2.8,0,2.9c-0.1,0.2-0.4,0.3-0.8,0.4c-0.5,0-0.8,0-1-0.1c-0.3-0.2-0.4-1-0.3-2.5s0.2-2.3,0.5-2.5
	c0.2-0.1,0.2-0.3,0-0.4c-0.3-0.1-0.8-0.3-1.7-0.6c-0.4-0.1-0.7-0.2-0.7-0.1s-0.1,0.1,0,0.4v0c0.1,0.9,0.2,2.3,0.2,4.3
	c0,1.6,0,2.6,0,3c0,0.4,0,0.6,0,0.7c0.1,0.1,0.3,0.1,0.6,0.1c0.9,0,1.3-0.4,1.4-0.9c0-0.4,0.3-0.7,0.9-0.9c0.6-0.1,1,0,1.2,0.4
	c0.1,0.1,0.1,0.7,0.1,1.6c0,0.9,0,1.4-0.1,1.6c-0.1,0.2-0.6,0.3-1.5,0.3c-0.9,0-2,0-3.5-0.1c-0.2,0-0.3,0-0.3,0c0,0,0.1,0.2,0.2,0.5
	c0.1,0.3,0.2,0.4,0.3,0.5c0,0,0.1,0,0.2,0c0.3-0.2,0.5-0.2,0.6-0.1c0.2,0.1,0.3,0.3,0.3,0.6c0.1,1.2,0,2.7-0.3,4.3
	c-0.3,1.6-0.6,2.8-1,3.7c-0.1,0.3-0.2,0.5-0.2,0.6s0.1,0.2,0.2,0.2c0.1,0,0.4-0.2,0.7-0.6c0.4-0.4,0.7-0.9,1-1.3
	c0.5-0.8,0.8-1.7,1-2.7c0.2-1,0.4-2.3,0.5-3.9c0-0.4,0.2-0.7,0.4-0.9c0.3-0.2,0.6-0.2,0.9,0c0.4,0.2,0.5,2.8,0.2,8c0,0.6,0,1,0,1.1
	C109.8,69.6,109.9,69.7,110,69.8z M116.9,65.7c0.5,0.2,0.8,0.1,1.1-0.2c0.2-0.3,0.3-0.7,0.2-1.2c-0.1-0.5-0.4-1-0.8-1.4
	c-0.4-0.4-0.8-0.7-1.4-1c-0.5-0.3-0.9-0.4-1.2-0.4c-0.3,0-0.4,0.1-0.1,0.4c0.8,1,1.4,2.1,1.7,3.1c0.1,0.3,0.1,0.4,0.2,0.5
	C116.6,65.5,116.7,65.6,116.9,65.7z M112.5,59c0,0.1,0.5,0,1.4-0.3c4.4-1.3,7.9-3.4,10.4-6.6c0.3-0.4,0.5-0.7,0.7-0.8
	c0.2-0.1,0.4-0.2,0.6-0.3c0.4-0.1,0.5-0.2,0.5-0.4c0-0.2-0.3-0.5-0.9-0.9s-0.9-0.7-1-0.7c-0.1,0-0.4,0.1-0.6,0.4c0,0,0,0-0.1,0.1
	c-0.3,0.3-0.5,0.4-0.7,0.5c-0.2,0-0.6,0.1-1.4,0.1c-0.1,0-0.1,0-0.2,0c-0.8,0-1.4,0-1.6,0c-0.2,0-0.3-0.1-0.3-0.2
	c0-0.1,0-0.3,0.2-0.6c0.2-0.2,0.4-0.4,0.6-0.4c0.4-0.1,0.4-0.2,0.1-0.3c-0.2-0.2-0.9-0.4-1.8-0.8l0,0c-0.4-0.1-0.7-0.2-0.8-0.2
	c-0.1,0-0.2,0.1-0.2,0.3c-0.3,0.9-0.9,1.9-1.8,3.1c-0.9,1.2-1.8,2.1-2.6,2.8c-0.2,0.2-0.4,0.3-0.4,0.4c0,0.1,0,0.1,0,0.2
	c0.1,0,0.4-0.1,1.2-0.4c0.4-0.2,0.6-0.2,0.8-0.2c0.2,0,0.4,0.2,0.6,0.6c0.4,0.5,0.6,0.9,0.7,1.4c0,0.1,0.1,0.2,0.2,0.3
	c0.1,0.1,0.3,0.1,0.5,0.2c0.4,0.1,0.2,0.4-0.4,0.8c-0.6,0.4-1.6,0.9-3,1.5c-0.4,0.1-0.6,0.2-0.6,0.3C112.4,58.8,112.4,58.9,112.5,59
	z M117.8,55.8c-0.3,0.1-0.4,0.2-0.4,0.1c0,0,0-0.2,0-0.6c0-0.4-0.1-0.8-0.4-1.1c-0.3-0.3-0.7-0.5-1.4-0.8c-0.3-0.1-0.4-0.3-0.3-0.6
	c0.1-0.3,0.5-0.5,1.1-0.8c0.2-0.1,0.6-0.1,1,0.2c0.4,0.3,0.8,0.7,1.2,1.2c0.1,0.2,0.2,0.3,0.3,0.3c0.1,0,0.2,0,0.5,0
	s0.3,0.1,0.2,0.3c-0.1,0.2-0.3,0.5-0.6,0.8C118.6,55.3,118.2,55.6,117.8,55.8z M120.4,53.5c-0.2,0.1-0.3,0.2-0.3,0.1
	c0,0,0-0.2,0-0.4c0-0.4-0.1-0.7-0.4-1c-0.3-0.3-0.7-0.5-1.2-0.7c-0.3-0.1-0.5-0.2-0.6-0.2c-0.1-0.1-0.1-0.2,0-0.3
	c0.1-0.1,0.3-0.2,0.5-0.3c0.2,0,0.8,0,1.8,0c0.8,0,1.3,0,1.5,0c0.3,0,0.5,0,0.5,0.1c0,0,0.1,0.1,0,0.3c0,0.2-0.3,0.6-0.7,1.2
	C121,53,120.7,53.4,120.4,53.5z M139,69.8c0.2,0.2,0.6,0.2,1.1,0c0.6-0.2,0.9-0.4,0.9-0.6c0-0.2,0.1-0.3,0.2-0.4
	c0.1-0.1,0.5-0.1,1-0.1c0.4,0,1.3,0,2.8,0c0.1,0,0.2,0,0.4,0c1.3,0,2.1,0,2.4,0c0.5,0,0.8,0.1,0.9,0.2c0.1,0.1,0.1,0.2,0.1,0.5
	c0,0,0,0.1,0,0.1c0,0.2,0.1,0.4,0.3,0.4c0.2,0,0.6,0,1-0.2c0.4-0.1,0.7-0.3,0.7-0.4c0.1-0.1,0.1-0.5,0.1-1.2c0,0,0-0.1,0-0.1
	c0-1.6,0-2.6,0-3c0-0.4,0.1-0.6,0.3-0.7c0.3-0.1,0.2-0.4-0.3-0.8c-0.4-0.3-0.5-0.5-0.6-0.7c0-0.1,0.2-0.3,0.5-0.5c0,0,0,0,0.1,0
	c0.2-0.1,0.3-0.2,0.3-0.3s0-0.5,0-1.2c0-0.1,0-0.2,0-0.2c0-1,0.1-1.6,0.1-1.7c0.1-0.2,0.3-0.2,0.6,0c0.1,0.1,0.2,0.1,0.2,0.1
	c0,0,0.1-0.1,0.2-0.3c0.1-0.3,0.3-0.5,0.6-0.8c0.2-0.3,0.5-0.4,0.7-0.5c0.2-0.1,0.3-0.2,0.2-0.3c0-0.1-0.3-0.1-0.7-0.2
	c-1-0.2-1.9-0.4-2.6-0.7c-0.7-0.3-1.2-0.6-1.4-0.8c-0.2-0.3-0.1-0.5,0.3-0.7c0.3-0.1,0.4-0.2,0.4-0.3c0-0.1-0.2-0.2-0.5-0.5
	c-0.6-0.4-0.9-0.7-0.9-0.8c0-0.2,0.2-0.2,0.7-0.3c0.7,0,1,0.2,1,0.6c0,0.2,0.1,0.3,0.2,0.3c0.2,0,0.4,0,0.9-0.1
	c0.5-0.2,0.9-0.3,1-0.5c0.1-0.2,0.1-0.6,0.1-1.2c0-0.8,0-1.3,0-1.5c0-0.2,0.2-0.4,0.5-0.6c0.3-0.2,0.4-0.3,0.4-0.4
	c0-0.1-0.3-0.4-0.8-0.8c-0.5-0.4-0.8-0.7-1.1-0.9c-0.1-0.1-0.3-0.1-0.4,0c-0.1,0.1-0.3,0.2-0.5,0.6c0,0-0.1,0.1-0.1,0.2
	c-0.1,0.2-0.3,0.3-0.4,0.4c-0.2,0.1-0.7,0.1-1.3,0.1c-0.5,0-1.6,0-3.5,0c-0.7,0-1.3,0-1.7,0c-3.1,0-4.9,0-5.5-0.1
	c-0.6,0-1.1-0.2-1.7-0.4c-0.7-0.3-1.1-0.4-1.2-0.5c-0.1,0-0.2-0.1-0.2,0c0,0,0,0.2,0,0.4c0.1,0.8,0.2,2.7,0.1,5.5
	c0,2.8,0,4.9-0.1,6.3c-0.3,3.5-0.9,6.4-2,8.8c-0.2,0.5-0.3,0.7-0.1,0.7c0.1,0,0.4-0.2,0.7-0.6c0.4-0.4,0.7-0.9,1.1-1.5
	c1.2-1.9,2-4.4,2.4-7.5c0.1-0.5,0.1-0.8,0.2-0.9c0.1-0.2,0.2-0.3,0.5-0.4c0.3-0.2,0.5-0.2,0.6-0.2c0.1,0,0.2,0.3,0.3,0.6
	c0,0.3,0,0.9,0,1.8c0,1.1,0,1.7,0,1.8c0,0.2,0.1,0.3,0.1,0.3c0.2,0,0.4,0.4,0.4,1.1c0.1,0.7,0,2-0.1,3.7c0,0.8-0.1,1.3-0.1,1.5
	C138.9,69.6,138.9,69.8,139,69.8z M148.5,68c-0.1,0.1-1.3,0.1-3.6,0.1c-2.3,0-3.5-0.1-3.6-0.1c-0.2-0.1-0.3-0.3-0.3-0.6
	c0-0.3,0.1-0.5,0.2-0.7c0.1-0.1,1.3-0.1,3.6-0.1c2.3,0,3.5,0,3.7,0.1c0.2,0.1,0.3,0.4,0.3,0.7C148.8,67.6,148.7,67.8,148.5,68z
	 M144.9,65.8c-2.3,0-3.5,0-3.6,0c-0.2-0.1-0.3-0.3-0.4-0.6c0-0.4,0.1-0.6,0.3-0.7c0.1-0.1,1.3-0.1,3.6-0.1c2.3,0,3.5,0,3.6,0.1
	c0.2,0.1,0.3,0.3,0.3,0.7c0,0.3-0.1,0.6-0.3,0.7C148.4,65.7,147.2,65.8,144.9,65.8z M144.9,63.6c-2.3,0-3.5,0-3.8-0.1
	c-0.5-0.1-0.8-0.3-1-0.6c-0.1-0.3,0-0.5,0.4-0.7c0.2-0.1,1.6-0.1,4.3-0.1c2.7,0,4.1,0.1,4.2,0.1c0.2,0.1,0.2,0.3,0.1,0.6
	c-0.1,0.3-0.4,0.5-0.7,0.6C148.4,63.5,147.2,63.6,144.9,63.6z M143.8,61.3c-0.2,0.2-0.5,0.2-1.1,0c-0.1,0-0.3,0-0.5,0
	c-0.2,0-0.4,0.1-0.8,0.1c-0.4,0-0.6,0-0.7-0.1c-0.2-0.1-0.3-0.2-0.3-0.4c0-0.2,0-0.6,0-1.4c0-0.1,0-0.2,0-0.4c0-0.7,0.1-1.2,0.2-1.3
	c0.1-0.1,0.6-0.2,1.3-0.2c0.2,0,0.3,0,0.4,0c0.1,0,0.2,0,0.3,0c0.8,0,1.2,0.1,1.3,0.2c0.1,0.1,0.2,0.6,0.2,1.4c0,0.2,0,0.3,0,0.4
	C144,60.6,143.9,61.1,143.8,61.3z M148.1,61.5c-0.5,0-0.8,0-0.9,0c0,0-0.2,0-0.6,0c-0.3,0-0.6,0-0.6-0.1c-0.1-0.1-0.2-0.2-0.2-0.5
	c0-0.2,0-0.6,0-1.3c0-0.9,0-1.4,0.1-1.6c0.1-0.2,0.3-0.3,0.7-0.2c0.3,0,0.4,0.1,0.5,0.1c0.1,0.1,0.1,0.2,0.1,0.4
	c-0.1,0.7-0.2,1.3-0.4,2c-0.1,0.5-0.1,0.7,0,0.7s0.5-0.3,1-0.9c0.4-0.4,0.7-0.7,0.9-0.8c0.1-0.1,0.3-0.2,0.4-0.1
	c0.3,0,0.4,0.4,0.4,1c0,0.6-0.1,1-0.4,1.1C149,61.4,148.6,61.4,148.1,61.5z M142.5,61.1c0,0,0.1-0.1,0.3-0.2
	c0.3-0.2,0.5-0.5,0.5-0.9c0-0.3-0.2-0.7-0.5-1c-0.3-0.3-0.6-0.5-0.8-0.7c-0.3-0.2-0.5-0.2-0.6-0.2c-0.1,0-0.1,0.2,0,0.4
	c0.3,0.6,0.4,1.1,0.5,1.5c0,0,0,0.1,0,0.1c0,0.2,0,0.4,0.1,0.5c0,0,0.1,0.1,0.3,0.2C142.3,61.1,142.4,61.1,142.5,61.1z M149.2,58.4
	c-0.1,0.1-0.3,0.1-0.5,0c-0.3-0.1-0.5-0.2-0.6-0.4c-0.1-0.2,0-0.3,0.3-0.3c0.4-0.1,0.6,0,0.7,0.1c0.1,0.1,0.1,0.2,0.1,0.3
	C149.3,58.3,149.3,58.4,149.2,58.4z M137.5,57.6c-0.2,0.1-0.3,0.1-0.3,0.1c-0.1,0-0.1-0.2-0.1-0.6c0-0.3,0-0.8,0-1.8
	c0-0.2,0-0.5,0-0.9c0-0.7,0-1.1,0.1-1.2c0.1-0.2,0.4-0.4,0.9-0.5c0.4,0,1.2,0,2.6,0c0.8,0,1.4,0,1.9,0c0.2,0,0.4,0,0.8,0
	c1.9,0,3.1,0,3.6,0c0.7,0,1.1,0.1,1.1,0.2c0.1,0.1,0,0.3-0.3,0.6c0,0.1-0.1,0.1-0.1,0.1c-0.1,0.2-0.7,0.3-1.8,0.3c-1,0-2,0-2.8-0.2
	c-0.1,0-0.2,0-0.2,0.1c0,0.1,0.1,0.2,0.2,0.5c0,0,0,0.1,0.1,0.1c0.1,0.2,0.2,0.3,0.3,0.4c0.1,0,0.3,0,0.6,0c0.1,0,0.2,0,0.2,0
	c1.1-0.2,2-0.2,2.7-0.2c0.7,0,1.1,0.2,1.3,0.5c0,0,0.1,0.2,0.2,0.4c0.1,0.2,0.2,0.3,0.3,0.4c0.2,0.4,0.3,0.6,0.4,0.7
	c0,0.1-0.1,0.3-0.2,0.3c-0.1,0.1-1.5,0.1-4,0.1c-2.5,0-3.8,0-3.9-0.1c-0.3-0.1-0.2-0.3,0-0.6c0.9-0.8,1.4-1.2,1.5-1.2
	c0.3,0,0.4-0.1,0.2-0.2c-0.1-0.1-0.4-0.4-1-0.7c-0.7-0.4-1.1-0.6-1.2-0.7c-0.1,0-0.2,0-0.3,0.2c-0.2,0.5-0.6,1.3-1.3,2.3
	C138.3,56.9,137.8,57.5,137.5,57.6z M143.6,52.1c-4,0-6.1,0-6.3-0.1c-0.2-0.1-0.3-0.5-0.4-1.1c0-0.6,0.1-1,0.3-1.2
	c0.1-0.1,2.2-0.1,6.3-0.1c4.1,0,6.2,0,6.4,0.1c0.2,0.1,0.3,0.5,0.3,1.2c0,0.6-0.1,1-0.4,1.1C149.8,52.1,147.7,52.1,143.6,52.1z
	 M164.1,69.8c0.2,0.1,0.4,0.1,0.8,0c0.4-0.1,0.7-0.2,1-0.4c0.2-0.1,0.3-0.2,0.3-0.3c0-0.1,0-0.4,0-1c-0.1-1.6-0.1-3.4-0.1-5.7
	c0-2.2,0-3.4,0.1-3.5c0.2-0.4,0.5-0.5,0.8-0.4c0.3,0.1,0.5,0.3,0.6,0.7c0,0.3,0.1,0.5,0.1,0.6c0,0.1,0.1,0.1,0.3,0.2
	c0.4,0.2,0.7,0.2,1,0c0.3-0.2,0.5-0.6,0.5-1.1c0-0.5-0.2-1.1-0.6-1.6c-0.4-0.5-1-1-1.7-1.5c-0.3-0.2-0.5-0.3-0.6-0.2s0,0.3,0.2,0.6
	c0.3,0.7,0.4,1.1,0.3,1.3c-0.1,0.2-0.6,0.3-1.5,0.3c-0.7,0-1,0-1.1-0.1c-0.1-0.1,0-0.4,0.4-0.9c0.9-1.2,1.9-2.5,2.9-4
	c0.3-0.4,0.5-0.7,0.6-0.8c0.1-0.1,0.3-0.2,0.4-0.3c0.3-0.1,0.3-0.2,0-0.4c-0.3-0.2-0.9-0.5-1.9-1c-0.3-0.1-0.4-0.2-0.5-0.1
	c0,0-0.1,0.2-0.2,0.4c-0.3,1.3-1.1,3.3-2.4,6c-0.3,0.6-0.5,1-0.7,1.1c-0.2,0.1-0.6,0.2-1.3,0.2c0,0-0.1,0-0.1,0c-0.1,0-0.2,0-0.3,0
	c-0.4,0-0.6,0.1-0.7,0.1c0,0.1,0,0.3,0.1,0.6c0,0.1,0.1,0.2,0.1,0.3c0,0,0,0.1,0,0.1c0.2,0.6,0.3,0.9,0.4,1c0.1,0.1,0.2,0,0.4-0.2
	c0.2-0.2,0.6-0.4,1.3-0.5c0.5-0.1,0.8-0.1,0.9,0c0.1,0.1,0.2,0.4,0.2,0.9c0,0.7-0.1,1.1-0.2,1.2c-0.1,0.1-0.6,0.1-1.4-0.1
	c-0.1,0-0.2,0-0.3-0.1c-0.4-0.1-0.7-0.1-0.7-0.1c-0.1,0-0.1,0.2-0.1,0.5c0,0.1,0,0.2,0,0.2c0,1.7-0.2,3.4-0.7,5.1
	c-0.1,0.3-0.1,0.5-0.1,0.5c0,0.1,0,0.1,0.1,0.1c0.2,0.1,0.5-0.3,1.1-1.2c0.5-0.9,1-1.9,1.3-3c0.2-0.5,0.3-0.8,0.4-1
	c0.1-0.2,0.3-0.2,0.4-0.1c0.3,0.2,0.3,2.1,0.1,5.9c0,0.5,0,0.8,0,1C163.9,69.6,164,69.7,164.1,69.8z M170,69.8c0,0,0.1,0.1,0.1,0
	c0.1,0,0.2-0.1,0.5-0.2l0.1,0c1.6-0.7,3.1-1.6,4.5-2.7c0.4-0.4,0.7-0.5,0.9-0.6c0.2,0,0.4,0.2,0.7,0.5c0.8,0.9,1.7,1.7,2.8,2.4
	c0.4,0.3,0.7,0.4,0.7,0.4c0.1,0,0.2-0.1,0.3-0.3c0.1-0.3,0.3-0.5,0.6-0.8c0.3-0.3,0.6-0.4,0.8-0.5c0.4-0.1,0.4-0.3-0.1-0.5
	c-1.6-0.6-2.9-1.4-3.9-2.3c-0.3-0.3-0.5-0.5-0.5-0.6c0-0.2,0.1-0.5,0.4-0.9c1-1.4,1.8-3.2,2.4-5.2c0.2-0.6,0.3-0.9,0.4-1.1
	c0.1-0.2,0.2-0.3,0.4-0.3c0.3-0.1,0.4-0.2,0.3-0.5c-0.1-0.2-0.4-0.6-0.9-1c-0.4-0.4-0.7-0.6-0.9-0.6c-0.1,0-0.3,0.1-0.6,0.4
	c-0.4,0.4-0.6,0.5-0.8,0.5s-0.2-0.2-0.3-0.5c0-0.3,0.1-1.2,0.2-2.7c0,0,0,0,0-0.1c0.1-1.3,0.2-2.1,0.3-2.3c0.1-0.3,0.2-0.4,0.5-0.6
	c0.2-0.1,0.3-0.3,0.1-0.5c-0.1-0.2-0.5-0.6-1-1c-0.4-0.3-0.6-0.5-0.7-0.5c-0.1,0-0.3,0.1-0.5,0.4c0,0.1-0.1,0.1-0.2,0.2
	c-0.2,0.3-0.4,0.4-0.7,0.5c-0.3,0-1.1,0.1-2.4,0c-0.5,0-0.9,0-1.2,0c-2.4,0-3.7,0-3.8,0c-0.2,0-0.3,0-0.3,0c0,0,0.1,0.2,0.2,0.5
	c0.1,0.3,0.2,0.4,0.3,0.5c0.1,0,0.2,0,0.3,0c0.3-0.1,0.5-0.2,0.8-0.2c0.3,0,0.5,0.1,0.6,0.2c0.2,0.2,0.2,1.8,0.1,4.7
	c-0.1,2.9-0.3,5.1-0.6,6.8c-0.2,1.3-0.4,2.1-0.6,2.4c-0.2,0.3-0.3,0.2-0.6-0.4c-0.4-0.9-1-1.6-1.9-2.2c-0.4-0.3-0.6-0.3-0.6-0.2
	c0,0.1,0,0.4,0.2,0.9c0.4,1.3,0.6,2.3,0.6,3c0,0.2,0.1,0.4,0.4,0.5c0.3,0.1,0.5,0.1,0.7,0c0.4-0.2,0.6,0,0.4,0.6
	c-0.2,0.6-0.6,1.5-1.2,2.6c-0.2,0.3-0.3,0.5-0.3,0.6c0,0.1,0,0.1,0.1,0.2c0.1,0.1,0.2,0.1,0.2,0c0.1,0,0.2-0.2,0.4-0.4
	c1.1-1.2,2-2.6,2.7-4.1c0.7-1.5,1.2-3.3,1.6-5.4c0.2-1,0.3-1.6,0.5-1.7c0.1-0.1,0.3,0.2,0.4,0.9c0.4,1.8,0.9,3.5,1.6,5
	c0.2,0.4,0.3,0.8,0.3,1c0,0.2-0.2,0.5-0.5,0.9c-1.2,1.4-2.6,2.6-4.2,3.5c-0.2,0.1-0.4,0.2-0.4,0.3S170,69.7,170,69.8L170,69.8z
	 M176.5,62.9c-0.3,0.3-0.8-0.1-1.4-1.1c-0.6-1-1.1-2.3-1.5-3.8c0,0,0,0,0-0.1c-0.1-0.4-0.1-0.6-0.1-0.7c0-0.1,0.2-0.2,0.6-0.2
	c0.2,0,0.8,0,1.7,0c0.1,0,0.1,0,0.2,0c0.9,0,1.5,0,1.8,0c0.4,0,0.6,0.1,0.6,0.1c0.1,0.1,0.1,0.2,0.1,0.4c0,0.4-0.3,1.4-0.8,2.8
	C177.1,61.8,176.7,62.7,176.5,62.9z M174.5,56.4c-0.7,0-1.1,0-1.2,0c-0.2-0.1-0.3-0.2-0.4-0.4c0-0.2,0-0.6,0-1.2
	c0-1.1,0.1-2,0.1-2.7c0-0.1,0-0.2,0-0.4c0-0.6,0-1,0.1-1.2c0.1-0.2,0.2-0.4,0.4-0.5c0.1,0,0.5,0,1.1,0c0.1,0,0.3,0,0.3,0
	c0.1,0,0.3,0,0.5,0c0.5,0,0.8,0,1,0.1c0.2,0.1,0.3,0.3,0.3,0.6c0,0.2,0,0.8-0.1,1.7c0,0.4-0.1,0.7-0.1,0.9c0,0.1,0,0.2,0,0.3
	c-0.1,1.3-0.2,2.1-0.3,2.4c0,0.2-0.2,0.4-0.3,0.4C175.6,56.3,175.2,56.4,174.5,56.4z M162.6,55.3c0.4,0.2,0.7,0.2,0.9-0.1
	c0.2-0.2,0.4-0.5,0.4-0.9c0-0.4-0.1-0.8-0.4-1.1c-0.2-0.3-0.3-0.5-0.3-0.6c0-0.2,0.3-0.5,0.7-1c0.4-0.5,0.7-0.9,0.9-1.2
	c0.7-0.9,1.1-1.4,1.3-1.5c0.3-0.1,0.3-0.2,0.2-0.4c-0.1-0.1-0.6-0.3-1.2-0.6c-0.8-0.3-1.2-0.5-1.3-0.5c-0.1,0-0.2,0.1-0.2,0.3
	c-0.1,0.7-0.2,1.6-0.5,2.5c-0.2,0.9-0.4,1.5-0.6,1.6c-0.1,0.2-0.4,0.2-0.8,0c-0.6-0.2-0.9-0.3-1.1-0.3c-0.1,0-0.1,0.2,0.2,0.5
	c0.7,0.8,1.1,1.6,1.4,2.4c0.1,0.3,0.1,0.4,0.2,0.5C162.4,55.2,162.5,55.2,162.6,55.3z M192.1,69.9c0.2,0,0.5,0,0.8,0
	c0.4-0.1,0.7-0.2,0.9-0.3c0,0,0,0,0.1,0c0.2-0.1,0.2-0.2,0.3-0.3c0-0.1,0-0.5,0-1.1c0-0.1,0-0.2,0-0.3c0-1-0.1-2.6-0.1-4.9
	c0-2.2,0-3.4,0-3.5c0.1-0.3,0.3-0.3,0.6,0.1c0.3,0.4,0.5,0.9,0.7,1.7c0.1,0.4,0.2,0.6,0.4,0.8c0.1,0.1,0.4,0.2,0.7,0.1
	c0.4,0,0.6-0.2,0.7-0.5s0.2-0.7,0-1.2c-0.1-0.3-0.1-0.5-0.1-0.6c0-0.1,0.1-0.2,0.2-0.2c0.1,0,0.4-0.1,1-0.3c0.9-0.3,1.8-0.6,2.7-1
	c0.7-0.3,1-0.4,1.1-0.2c0,0.2-0.2,0.7-0.8,1.5c-1.3,1.7-2.7,3.2-4.2,4.2c-0.4,0.3-0.5,0.4-0.3,0.6c0.1,0,0.4-0.1,1.1-0.4
	c0.6-0.3,1.3-0.7,2-1.2c0.5-0.4,0.9-0.5,1.1-0.4s0.4,0.3,0.8,0.8c0.3,0.5,0.6,1,0.7,1.4c0.1,0.2,0.1,0.3,0.2,0.4
	c0,0,0.1,0.1,0.3,0.2c0.2,0.1,0.3,0.3,0.3,0.4c0,0.1-0.2,0.3-0.5,0.6c-1.6,1.3-3.8,2.3-6.3,3c-0.4,0.1-0.6,0.2-0.6,0.2
	c-0.1,0-0.1,0.1-0.1,0.2c0,0.1,0.1,0.1,0.2,0.1c0.1,0,0.4,0,0.7-0.1c3.1-0.6,5.6-1.5,7.6-2.8c2-1.3,3.6-3.1,4.8-5.3
	c0.2-0.3,0.3-0.5,0.4-0.6c0.1-0.1,0.3-0.2,0.5-0.3c0.4-0.1,0.5-0.3,0.4-0.5c-0.1-0.2-0.4-0.6-1-1.1c-0.4-0.4-0.7-0.6-0.8-0.6
	c-0.1,0-0.4,0.2-0.7,0.5c0,0,0,0-0.1,0.1c-0.3,0.3-0.5,0.4-0.6,0.5c-0.1,0-0.5,0.1-1,0.1c-0.1,0-0.2,0-0.2,0c-0.7,0-1.1,0-1.3,0
	s-0.3-0.1-0.3-0.2c0-0.2,0.1-0.5,0.5-0.9c0.4-0.4,0.6-0.7,0.7-0.7c0.5,0,0.4-0.2-0.4-0.7c-0.3-0.2-0.5-0.3-0.5-0.4
	c0-0.1,0.1-0.4,0.4-0.6c0.9-0.8,1.5-1.4,2-2c0.5-0.5,0.9-1.1,1.3-1.8c0.2-0.3,0.4-0.6,0.5-0.7c0.1-0.1,0.3-0.3,0.6-0.3
	c0.3-0.1,0.4-0.3,0.3-0.5c-0.1-0.2-0.5-0.6-1.1-1.2l0,0c-0.3-0.3-0.5-0.4-0.6-0.4c-0.1,0-0.4,0.2-0.7,0.6c-0.3,0.3-0.6,0.5-0.8,0.6
	c-0.2,0-0.6,0.1-1.3,0.1c-0.1,0-0.1,0-0.2,0c-0.7,0-1.1,0-1.2-0.1c-0.1,0-0.2-0.1-0.2-0.3c0-0.2,0.1-0.5,0.4-0.8
	c0.3-0.4,0.5-0.6,0.7-0.6c0.3-0.1,0.4-0.2,0.2-0.3c-0.2-0.1-0.8-0.4-1.8-0.7c0,0-0.1,0-0.1,0c-0.3-0.1-0.5-0.2-0.6-0.1
	c-0.1,0-0.1,0.1-0.2,0.3c-0.3,1-0.8,2.1-1.6,3.3c-0.7,1.2-1.5,2.1-2.4,2.9c-0.3,0.2-0.5,0.3-0.6,0.3c-0.1,0-0.4-0.2-0.7-0.4
	c-0.3-0.3-0.5-0.4-0.6-0.4c-0.1,0-0.2,0.2-0.5,0.5c-0.5,0.8-0.9,1.1-1,1c-0.1-0.1-0.2-0.8-0.2-2.1c0-0.1,0-0.1,0-0.2
	c0-0.9,0-1.4,0.1-1.6c0.1-0.2,0.4-0.3,0.8-0.5c0.1,0,0.1,0,0.1,0c0.4-0.1,0.7-0.2,0.8-0.2c0.2,0,0.5,0,0.9,0c0.4,0,0.6,0,0.6-0.2
	c0,0-0.4-0.4-1.2-1.1c-0.8-0.7-1.2-1-1.2-1c-0.1,0-0.2,0.1-0.4,0.2c-1.5,1.1-3.5,2.2-6.2,3.3c-0.1,0-0.1,0.1-0.1,0.1
	c0,0.1,0,0.1,0.1,0.2c0,0,0.7,0,2.1-0.2c0,0,0.1,0,0.1,0c0.5-0.1,0.8-0.1,0.9-0.1c0.2,0,0.3,0.2,0.3,0.4c0,0.2,0,0.6,0,1.2
	c0,0.1,0,0.1,0,0.2c0,0.7-0.1,1.2-0.2,1.4c-0.1,0.3-0.4,0.4-0.8,0.5c-0.4,0-1,0-2-0.1c-0.3,0-0.5,0-0.5,0c0,0,0,0.2,0.2,0.5l0,0
	c0.1,0.2,0.2,0.4,0.3,0.4c0.1,0,0.2,0,0.5,0c0.9-0.2,1.4-0.3,1.7-0.1c0.3,0.1,0.4,0.5,0.3,1c-0.3,1.3-0.7,2.7-1.2,4.2
	c-0.6,1.5-1.1,2.7-1.8,3.7c-0.2,0.3-0.3,0.4-0.3,0.5c0,0.1,0,0.2,0.1,0.2c0.1,0.1,0.1,0.1,0.2,0c0.1,0,0.2-0.2,0.5-0.5
	c0.7-0.8,1.5-1.7,2.3-2.8c0.2-0.3,0.4-0.5,0.5-0.6c0.1-0.1,0.2,0,0.3,0.2c0.1,0.1,0.1,0.9,0.1,2.4c0,1.5-0.1,2.8-0.1,4
	c0,0.7-0.1,1.2,0,1.4S191.9,69.9,192.1,69.9z M204.7,64.1c-0.1,0.1-0.2,0.1-0.3,0c-0.1,0-0.2-0.2-0.3-0.5c-0.3-0.6-0.9-1.1-1.8-1.4
	c-0.4-0.2-0.7-0.3-0.7-0.5c0-0.2,0.2-0.4,0.6-0.7c0,0,0.1,0,0.1-0.1c0.3-0.2,0.5-0.3,0.6-0.4c0.2,0,0.7-0.1,1.5-0.1
	c0.1,0,0.2,0,0.2,0c0.8,0,1.4,0,1.6,0c0.3,0,0.4,0.2,0.4,0.4c0,0.1-0.1,0.4-0.4,1c-0.3,0.5-0.5,1-0.9,1.5
	C205.1,63.8,204.9,64,204.7,64.1z M196.8,59.5c-0.1,0-0.3-0.1-0.6-0.3c-0.4-0.3-0.8-0.6-1.4-0.8c-0.4-0.2-0.6-0.3-0.7-0.5
	c-0.1-0.1-0.1-0.5-0.1-1.1v0c0-0.4,0-0.6,0.1-0.7c0.1-0.1,0.2-0.2,0.5-0.2c0.2,0,0.6,0,1.3,0c0.8,0,1.4,0,1.6-0.1
	c0.2-0.1,0.2-0.2,0.1-0.5c-0.1-0.2-0.2-0.4-0.1-0.5c0-0.1,0.2-0.3,0.6-0.5c0.5-0.3,0.9-0.5,1.2-0.7c0.5-0.3,0.9-0.5,1.1-0.4
	c0.2,0.1,0.6,0.4,1,1.1c0.1,0.1,0.2,0.4,0.4,0.7c0.2,0.3,0.2,0.5,0.2,0.5c0,0,0.1,0.1,0.2,0.2c0.2,0.1,0.3,0.3,0.3,0.4
	c0,0.1-0.2,0.3-0.5,0.6c-1.2,1-2.8,1.9-4.6,2.7C197,59.4,196.8,59.5,196.8,59.5z M204.2,54.2c-0.4,0.4-0.6,0.3-0.8-0.1
	c-0.1-0.6-0.8-1-2-1.3c-0.4-0.1-0.5-0.2-0.6-0.4c0-0.2,0.1-0.4,0.5-0.6l0,0c0.2-0.2,0.5-0.4,0.6-0.4c0.2,0,0.8-0.1,1.8-0.1
	c1,0,1.6,0,1.7,0c0.2,0,0.3,0.2,0.2,0.4c0,0.2-0.2,0.6-0.6,1.2C204.9,53.4,204.6,53.9,204.2,54.2z M225.5,69.8
	c0.2,0.2,0.7-0.1,1.6-0.8c0.9-0.7,1.6-1.5,2.2-2.3c0.9-1.3,1.6-2.7,2.1-4.4c0.4-1.7,0.7-3.9,0.9-6.7c0-0.7,0.1-1.1,0.2-1.2
	c0.1-0.1,0.5-0.2,1.1-0.2c0,0,0.1,0,0.2,0c0.4,0,0.7,0,0.8,0.1c0.2,0.1,0.2,0.4,0.3,1c0,0.4,0,1.2,0,2.6c0,0.2,0,0.4,0,0.5
	c-0.1,3.1-0.2,5.1-0.3,6c-0.1,1.2-0.4,2-0.9,2.3c-0.3,0.3-1,0.3-2,0.3c-0.6,0-0.9,0-0.9,0c0,0.1,0.1,0.2,0.4,0.3
	c0.6,0.2,1,0.4,1.2,0.6c0.3,0.3,0.4,0.7,0.5,1.2c0,0.2,0.1,0.3,0.2,0.3c0.1,0,0.4,0,0.8-0.1c0.8-0.2,1.4-0.6,1.8-1.3
	c0.4-0.7,0.7-1.9,0.9-3.6c0.2-1.5,0.3-4,0.4-7.4c0-1.3,0.1-2,0.1-2.3c0-0.2,0.2-0.4,0.4-0.5c0.3-0.1,0.4-0.2,0.4-0.3
	c0-0.1-0.1-0.3-0.4-0.6c-0.6-0.6-1.1-1-1.3-1.1c-0.2-0.1-0.5,0-0.8,0.3c-0.3,0.4-0.6,0.6-0.7,0.7c-0.2,0.1-0.5,0.1-1,0.1
	c0,0-0.1,0-0.1,0c-0.4,0-0.6,0-0.7-0.1c-0.1-0.1-0.2-0.3-0.3-0.5c0-0.2,0-0.7,0-1.5c0-0.2,0-0.3,0-0.4c0-1.1,0-1.8,0.1-2
	c0-0.2,0.2-0.4,0.3-0.6c0.2-0.2,0.1-0.3-0.4-0.5c-0.5-0.1-1.1-0.2-1.9-0.2c0,0,0,0-0.1,0c-0.1,0-0.2,0.1-0.2,0.2c0,0.2,0,0.8,0,1.8
	c0,0.3,0,0.5,0,0.6c0,0.1,0,0.3,0,0.5c0,1,0,1.6-0.1,1.8c-0.1,0.4-0.2,0.6-0.5,0.6c-0.2,0-0.6,0-1.4-0.1c-0.2,0-0.3,0-0.4,0
	c-0.1,0-0.2,0-0.2,0c0,0,0,0.1,0.1,0.3c0,0.1,0.1,0.2,0.1,0.4c0,0.1,0.1,0.2,0.1,0.2c0.1,0,0.1,0,0.1,0.1c0.1,0,0.2,0,0.4-0.1
	c0.7-0.3,1.2-0.3,1.4,0c0.2,0.2,0.3,0.9,0.2,2.1c-0.2,4.5-0.8,7.6-1.8,9.2c-0.1,0.1-0.2,0.3-0.4,0.6c0,0.1-0.1,0.2-0.1,0.2
	c-0.2,0.4-0.5,0.9-1,1.5c-0.4,0.6-0.8,1-1.2,1.3C225.4,69.5,225.4,69.7,225.5,69.8z M217.2,69.5c0.1,0.2,0.2,0.1,0.5-0.1
	c0.1-0.1,0.3-0.2,0.5-0.3c0.2-0.1,0.7-0.2,1.5-0.5c2.3-0.7,4.2-1.3,5.8-1.8c1.5-0.5,2.3-0.8,2.3-0.9c0-0.1,0-0.2-0.2-0.2
	c-0.2,0-0.8,0.1-1.8,0.2h0c-1,0.1-1.6,0.2-1.9,0.2c-0.4,0-0.6,0-0.7-0.2c-0.1-0.1-0.1-0.3-0.1-0.7c0,0,0-0.1,0-0.1v0
	c0-0.4,0-0.6,0.1-0.7c0.1-0.1,0.3-0.2,0.6-0.2c0.2,0,0.8,0,1.6,0c0.1,0,0.1,0,0.2,0c1.4,0,2.2-0.1,2.3-0.3c0.1-0.2-0.3-0.7-1.3-1.4
	c-0.3-0.2-0.5-0.4-0.5-0.5c0-0.1,0.2-0.2,0.6-0.4l0,0c0.3-0.1,0.5-0.3,0.6-0.3c0-0.1,0.1-0.3,0-0.7c0-0.1,0-0.3,0-0.7
	c0-0.8,0-1.4,0-1.9c0-1.2,0-1.9,0-2.1c0-0.2,0.2-0.4,0.5-0.6c0.2-0.1,0.3-0.2,0.2-0.4c0-0.1-0.1-0.2-0.1-0.3c0-0.1-0.1-0.2-0.2-0.3
	c-0.2-0.1-0.4-0.2-0.7-0.4c-0.4-0.2-0.6-0.4-0.7-0.3c-0.1,0-0.3,0.2-0.5,0.5c-0.2,0.3-0.4,0.5-0.6,0.5c-0.1,0.1-0.4,0.1-0.9,0.1
	c-0.6,0-0.9,0-1.1-0.1c-0.1-0.1-0.2-0.4-0.2-0.8c0,0,0,0,0-0.1c0-0.3,0-0.5,0.1-0.6c0.1-0.1,0.3-0.2,0.6-0.2c0.3,0,0.9,0,1.8,0
	c0.1,0,0.1,0,0.2,0c1.2,0,1.9,0,2.2-0.1c0.4-0.1,0.5-0.2,0.4-0.5c-0.1-0.2-0.5-0.6-1.2-1.1c-0.4-0.3-0.7-0.5-0.8-0.5
	c-0.1,0-0.3,0.2-0.6,0.6c-0.3,0.4-0.6,0.7-0.7,0.8c-0.1,0.1-0.4,0.1-0.9,0.1c-0.5,0-0.8,0-0.9-0.1c-0.1-0.1-0.2-0.4-0.2-0.8
	c0-0.6,0-0.9,0.2-1c0.2-0.1,0.6-0.3,1.4-0.4c0.2,0,0.4,0,0.8-0.1c0.4,0,0.6-0.1,0.7-0.1c0.4-0.1,0.7-0.1,1,0c0.4,0.1,0.5,0,0.5-0.1
	c0-0.2-0.4-0.6-1-1.2c0,0-0.1-0.1-0.1-0.1c-0.3-0.3-0.5-0.4-0.6-0.5c-0.1,0-0.2,0-0.4,0.1c0,0-0.1,0-0.1,0c-2.2,0.8-4.7,1.5-7.6,2.1
	c-0.7,0.1-1.1,0.2-1.2,0.3c-0.1,0-0.2,0.1-0.1,0.2c0,0.1,1,0.1,3,0c0.7,0,1.1,0,1.3,0c0.2,0,0.3,0.2,0.4,0.4c0.1,0.3,0.1,0.6,0,0.9
	c0,0.3-0.2,0.4-0.3,0.5c-0.1,0.1-0.8,0.1-1.9,0.1c-1.2,0-2-0.1-2.4-0.2c-0.1,0-0.2,0-0.2,0.1c0,0.1,0.1,0.2,0.2,0.5l0,0
	c0.1,0.3,0.2,0.4,0.3,0.5c0.1,0,0.3,0,0.7,0c1.4-0.2,2.4-0.3,2.9-0.2c0.5,0.1,0.8,0.4,0.8,0.9c0,0.6-0.3,0.9-0.8,1
	c-0.5,0-1.3-0.2-2.4-0.6c-0.5-0.2-0.8-0.3-0.9-0.3c-0.1,0-0.2,0-0.1,0.2c0.1,0.5,0.2,1.6,0.2,3.3c0,1.6,0,2.9-0.1,3.7
	c0,0.6,0,0.9,0.1,1.1c0.1,0.1,0.3,0.2,0.7,0.1c0.7-0.1,1.1-0.3,1.2-0.6c0.1-0.3,0.5-0.5,1.1-0.5c0.6,0,0.9,0.2,1,0.5
	c0.1,0.3,0.1,0.6,0,1c0,0.4-0.1,0.6-0.3,0.7c-0.1,0.1-0.6,0.1-1.4,0.1s-1.7,0-2.6-0.1c-0.2,0-0.3,0-0.3,0c0,0,0.1,0.2,0.2,0.6
	c0,0,0,0,0,0.1c0.1,0.2,0.2,0.3,0.2,0.4c0.1,0,0.2,0,0.5,0c0.1,0,0.1,0,0.2,0c1.4-0.3,2.3-0.3,2.7-0.2c0.4,0.1,0.7,0.5,0.7,1.1
	c0,0,0,0.1,0,0.2c0,0.4,0,0.6-0.1,0.7c-0.1,0.1-0.3,0.2-0.6,0.3c-0.2,0-0.8,0.1-1.6,0.2c-0.2,0-0.3,0-0.4,0c-0.1,0-0.3,0-0.6,0
	c-0.8,0.1-1.2,0.1-1.3,0.1c-0.1,0-0.2,0.1-0.2,0.1C216.3,67.2,216.6,68,217.2,69.5z M224.6,63.4c-0.1,0.1-0.4,0.1-0.7,0.1
	c-0.3,0-0.5-0.1-0.6-0.1c-0.2-0.1-0.3-0.5-0.3-1s0.1-0.9,0.3-1c0.2-0.1,0.6-0.2,1.1-0.1c0.6,0.1,0.8,0.2,0.8,0.3
	c0,0.2,0.1,0.2,0.3,0.2c0.1,0,0.1,0,0.2,0.1c0.1,0.1,0.1,0.1,0,0.1c-0.1,0.2-0.4,0.5-0.6,0.8C224.9,63.2,224.7,63.4,224.6,63.4z
	 M220.7,60.5c-0.1,0.1-0.4,0.1-0.7,0.1c-0.4,0-0.6,0-0.7-0.1c-0.2-0.1-0.3-0.5-0.4-1c0-0.6,0.1-0.9,0.3-1.1c0.1-0.1,0.4-0.1,0.8-0.1
	c0.4,0,0.7,0.1,0.8,0.1c0.2,0.1,0.3,0.5,0.3,1.1C221.1,60.1,220.9,60.4,220.7,60.5z M224.1,60.6c-0.4,0-0.7,0-0.8-0.1
	c-0.2-0.1-0.4-0.5-0.4-1c0-0.6,0.1-0.9,0.3-1.1c0.1-0.1,0.4-0.1,0.8-0.1c0.4,0,0.7,0,0.8,0.1c0.2,0.1,0.3,0.5,0.3,1.1
	c0,0.6-0.1,0.9-0.4,1C224.8,60.6,224.5,60.6,224.1,60.6z M220.7,57.6c-0.1,0.1-0.4,0.1-0.7,0.1c-0.4,0-0.6,0-0.7-0.1
	c-0.2-0.1-0.3-0.3-0.4-0.8c0-0.5,0-0.8,0.1-1.1c0.1-0.2,0.4-0.4,0.9-0.4c0.5,0,0.9,0.1,1,0.4c0.1,0.2,0.2,0.6,0.1,1.1
	C221,57.2,220.9,57.5,220.7,57.6z M224.1,57.7c-0.4,0-0.7,0-0.8-0.1c-0.3-0.1-0.4-0.5-0.4-1.1c0-0.6,0.1-1,0.4-1.1
	c0.1-0.1,0.4-0.1,0.8-0.1c0.4,0,0.7,0,0.8,0.1c0.3,0.1,0.4,0.5,0.4,1.1c0,0.6-0.1,0.9-0.4,1.1C224.8,57.6,224.5,57.7,224.1,57.7z
	 M244.5,69.1c0.1,0,0.2,0,0.4,0c0,0,0.1,0,0.1,0c0,0,0.1,0,0.1,0c0.6-0.1,1.4-0.2,2.3-0.2c0.9,0,3.7,0,8.4,0c0.5,0,1.2,0,2.2,0
	c3.6,0,5.7,0,6.3,0c0.6,0,1-0.1,1-0.2l0,0c0.1-0.2-0.3-0.7-1.4-1.6l0,0c-0.5-0.4-0.9-0.6-1-0.6c-0.1,0-0.4,0.2-0.7,0.7
	c0,0.1-0.1,0.2-0.2,0.3c-0.3,0.5-0.6,0.7-0.8,0.8c-0.2,0.1-0.8,0.1-1.8,0.1c-0.3,0-0.5,0-0.7,0c-0.2,0-0.5,0-0.8,0
	c-0.8,0-1.2,0-1.4,0c-0.3-0.1-0.5-0.2-0.5-0.5c0-0.2-0.1-0.7,0-1.4c0-0.4,0-0.6,0-0.8c0-0.2,0-0.6,0-1c0-0.7,0-1.1,0.1-1.3
	c0.1-0.3,0.3-0.4,0.7-0.5c0.3,0,0.9,0,1.9,0c0.5,0,1,0,1.3,0c1.4,0,2.3,0,2.7,0c0.5,0,0.9,0,1-0.1c0.1,0,0.2-0.1,0.2-0.2
	c0-0.1-0.3-0.5-1.1-1.2c-0.7-0.6-1.2-1-1.4-1c-0.1,0-0.4,0.3-0.9,0.9c0,0-0.1,0.1-0.1,0.2c-0.2,0.4-0.4,0.6-0.6,0.6
	c-0.2,0-0.6,0.1-1.3,0.1c-0.1,0-0.3,0-0.4,0c-0.9,0-1.4,0-1.6,0c-0.2,0-0.3-0.1-0.4-0.3c-0.1-0.2-0.1-0.7-0.1-1.4s0.1-1.1,0.3-1.1
	l0.1-0.1c0,0,0.1-0.1,0.1-0.1c0.2-0.2,0.1-0.3-0.2-0.5c-0.3-0.1-0.9-0.3-1.9-0.6c0,0-0.1,0-0.1,0c-0.4-0.1-0.6-0.1-0.7-0.1
	c0,0-0.1,0.1,0,0.3v0c0.3,2.2,0.2,3.3-0.1,3.6c-0.1,0.1-1.1,0.1-2.8,0.1c-1.7,0-3,0-3.8-0.1c-0.2,0-0.3,0-0.3,0c0,0,0,0.2,0.2,0.5
	c0,0,0,0.1,0,0.1c0.1,0.2,0.2,0.4,0.3,0.4c0.1,0,0.3,0,0.6,0c0,0,0.1,0,0.1,0c0.9-0.1,2.1-0.2,3.6-0.2c0.2,0,0.4,0,0.7,0
	c0.7,0,1.1,0,1.3,0c0.2,0.1,0.4,0.2,0.5,0.5c0,0.2,0.1,0.7,0,1.4c0,0.3,0,0.6,0,0.8c0,1.3,0,2,0,2.3c0,0.2-0.1,0.4-0.3,0.5
	c-0.2,0.1-1.5,0.1-3.9,0.1c-2.4,0-4-0.1-4.9-0.1h0c-0.3,0-0.4,0-0.4,0c0,0,0.1,0.2,0.2,0.5l0,0c0,0,0,0,0,0.1
	C244.4,68.9,244.4,69,244.5,69.1z M246.6,58.6c0.1,0.1,0.2,0,0.4-0.1c0.1-0.1,0.5-0.3,1-0.4c0.5-0.1,2-0.4,4.4-0.7
	c0.7-0.1,1.4-0.2,2.1-0.4c0.7-0.1,1.4-0.2,2.2-0.4c0.2,0,0.5-0.1,1-0.2c0.7-0.1,1.2-0.2,1.4-0.3c0.7-0.1,1.1-0.2,1.3-0.2
	c0.3,0,0.6,0.2,0.8,0.5c0.2,0.2,0.5,0.7,0.9,1.4c0.3,0.5,0.7,0.8,1.2,0.6c0.5-0.1,0.7-0.5,0.7-1.1c0-1-0.6-1.9-1.7-2.9
	c-1.2-1-2.7-1.7-4.5-2.3c-0.6-0.2-0.9-0.2-1-0.2c0,0.1,0.2,0.3,0.6,0.7c1.1,0.9,1.7,1.4,2,1.7c0.3,0.4,0.3,0.6,0,0.7
	c-0.2,0.1-0.9,0.2-1.9,0.2c-0.3,0-0.7,0-1.2,0.1c-2,0.1-3.3,0.2-3.8,0.2c-0.7,0-1.1-0.1-1.2-0.2c0-0.1,0.1-0.4,0.5-0.8
	c0.1-0.1,0.2-0.2,0.2-0.3c0.6-0.8,1.5-1.8,2.4-3.1c0-0.1,0.1-0.1,0.2-0.2c0.1-0.2,0.3-0.4,0.4-0.4c0.2-0.1,0.5-0.1,1-0.2
	c0.4,0,1.2,0,2.5,0c0.6,0,1,0,1.4,0c2.4,0,3.8,0,4.2,0c0.4,0,0.7-0.1,0.7-0.2c0.1-0.2-0.4-0.8-1.5-1.7c-0.4-0.3-0.7-0.5-0.9-0.5
	c-0.1,0-0.3,0.2-0.6,0.5c-0.5,0.7-0.9,1.1-1,1.2c-0.2,0.1-2.8,0.1-7.8,0.1c-5,0-7.7-0.1-8.2-0.2c-0.1,0-0.2,0-0.2,0.1
	c0,0.1,0.1,0.2,0.2,0.5c0,0,0,0,0,0.1c0.1,0.2,0.2,0.4,0.3,0.4c0.1,0,0.3,0,0.7,0c0.1,0,0.2,0,0.3,0c1.5-0.2,2.8-0.3,3.9-0.2
	c1.1,0,1.7,0.2,1.7,0.5c0,0.3-0.3,1.1-0.8,2.4c-0.5,1.3-0.9,2.1-1.1,2.3c-0.3,0.3-1.5,0.4-3.8,0.4c-0.5,0-0.7,0-0.7,0.1
	c0,0,0.2,0.5,0.6,1.3C246.3,58.2,246.5,58.6,246.6,58.6z M286.5,69.9c0.2,0,0.6,0,1-0.1c0.4-0.1,0.7-0.2,0.9-0.4
	c0-0.1,0.1-0.5,0-1.4c0-0.2,0-0.5,0-0.8c0-1.1,0-1.8,0-2.1c0-0.4,0.2-0.6,0.5-0.7c0.2-0.1,0.7-0.1,1.5-0.1c0.2,0,0.4,0,0.6,0
	c1,0,1.7,0,2-0.1c0.4-0.1,0.5-0.2,0.3-0.5c-0.1-0.2-0.5-0.6-1.1-1.2c0,0,0,0-0.1-0.1c-0.5-0.4-0.8-0.6-0.9-0.6
	c-0.1,0-0.4,0.3-0.7,0.7c0,0,0,0.1,0,0.1c-0.3,0.4-0.5,0.7-0.6,0.8c-0.1,0.1-0.3,0.1-0.6,0.1c-0.4,0-0.6-0.1-0.7-0.2
	c-0.1-0.1-0.1-0.5-0.1-1.1c0-0.5,0-0.8,0-1c0-0.2,0.1-0.3,0.3-0.5c0.2-0.2,0.2-0.3,0-0.4c-0.1-0.1-0.6-0.3-1.3-0.5
	c-0.4-0.1-0.6-0.2-0.7-0.3c-0.1-0.1-0.1-0.2,0-0.4c0.1-0.2,0.4-0.4,1-0.4c0.5,0,1,0,1.5,0.1c0.5,0.1,0.7,0.3,0.7,0.6
	c0,0.3,0.4,0.4,1.1,0.1c0.5-0.2,0.9-0.3,1-0.5c0.1-0.1,0.1-0.5,0.1-1.1c0-1-0.1-2.2-0.1-3.5c0-0.1,0-0.3,0-0.5c0-1.2,0-2,0-2.2
	c0-0.2,0.2-0.4,0.4-0.5l0,0c0.3-0.2,0.4-0.3,0.4-0.4c0-0.1-0.1-0.3-0.4-0.6l0,0c-0.6-0.6-1.1-1-1.4-1.1c-0.1,0-0.4,0.1-0.7,0.6
	c0,0,0,0-0.1,0.1c-0.2,0.3-0.4,0.5-0.6,0.5c-0.1,0-0.6,0.1-1.3,0.1c-0.1,0-0.1,0-0.1,0c-0.8,0-1.3,0-1.5-0.1c-0.2-0.1-0.2-0.2,0-0.4
	c0-0.1,0.3-0.3,0.7-0.7s0.7-0.6,0.8-0.7c0.3-0.2,0.3-0.3,0.1-0.4c-0.2-0.1-0.9-0.3-1.8-0.5c-0.1,0-0.1,0-0.2,0
	c-0.4-0.1-0.7-0.1-0.7-0.1c-0.1,0-0.1,0.2-0.1,0.5c0,0.1,0,0.1,0,0.2c0,0.9-0.1,1.6-0.3,1.9c-0.2,0.4-0.5,0.5-1,0.5
	c-0.4,0-1.1-0.2-2-0.6c-0.1,0-0.2-0.1-0.3-0.1c-0.4-0.2-0.6-0.2-0.7-0.2c0,0-0.1,0.2,0,0.6c0,0.1,0,0.2,0,0.2
	c0.1,1.3,0.2,2.2,0.2,2.8c0,0.6-0.1,1-0.2,1.1c-0.1,0.1-0.4-0.1-0.7-0.4c0,0-0.1-0.1-0.1-0.1c-0.2-0.2-0.3-0.3-0.4-0.3
	c0,0-0.1,0-0.1,0.1c0,0,0,0.1,0,0.1c-0.1,0.3-0.3,0.4-0.5,0.3c-0.2,0-0.3-0.9-0.3-2.4c0-1.6,0.2-2.5,0.4-2.6
	c0.2-0.2,0.2-0.3-0.1-0.5c-0.2-0.1-0.8-0.3-1.7-0.6c-0.4-0.1-0.6-0.2-0.7-0.1c0,0-0.1,0.1,0,0.3c0.1,0.8,0.2,2,0.2,3.6
	c0,1.7,0,2.6,0,2.8c-0.1,0.2-0.3,0.3-0.8,0.3c-0.4,0-0.7,0-0.9-0.1c-0.3-0.2-0.4-1-0.3-2.6s0.2-2.4,0.5-2.6c0.4-0.3-0.2-0.7-2-1.1
	c-0.3-0.1-0.4-0.1-0.5,0c0,0,0,0.2,0,0.5c0.1,0.7,0.1,1.4,0.2,2.3c0,0.9,0,2.9,0,5.9c0,4,0,6.3-0.1,6.8c-0.2,2-0.5,3.7-0.9,5
	c0,0,0,0.1-0.1,0.2c-0.1,0.3-0.1,0.4-0.1,0.5c0,0.1,0,0.1,0,0.2c0.1,0.1,0.2,0.1,0.3,0c0.1-0.1,0.3-0.4,0.6-0.8c0.6-1,1.1-2,1.4-3.2
	s0.5-2.6,0.6-4.2c0-0.8,0.1-1.2,0.2-1.3s0.5-0.2,1.1-0.2c0.4,0,0.6,0,0.8,0.1c0.1,0,0.2,0.1,0.3,0.3c0.1,0.1,0.1,1.1,0.1,2.8
	c0,1.7-0.1,3.3-0.1,4.8c0,0.7-0.1,1.2-0.1,1.3c0,0.1,0.1,0.2,0.2,0.3c0.3,0.3,0.8,0.2,1.5-0.2c0,0,0,0,0.1,0
	c0.3-0.1,0.4-0.3,0.5-0.4c0-0.1,0.1-0.6,0-1.2c0-0.1,0-0.1,0-0.2c-0.1-2.6-0.1-4.4-0.1-5.5c0.1-1.1,0.2-1.7,0.5-1.7
	c0.2,0,0.3-0.1,0.4-0.2c0-0.2,0-0.3-0.2-0.5c-0.6-0.6-1-1-1.3-1.1c-0.3-0.1-0.6-0.1-0.8,0.2c-0.3,0.4-0.6,0.6-0.7,0.7
	c-0.1,0.1-0.4,0.1-0.9,0.1c-0.4,0-0.7,0-0.8-0.1c-0.2-0.1-0.3-0.2-0.3-0.5c0-0.2,0-0.6,0-1.3c0,0,0-0.1,0-0.1c0-0.1,0-0.3,0-0.4
	c0-0.5,0-0.8,0.1-0.9c0.1-0.2,0.3-0.3,0.6-0.3c0.2,0,0.8,0,1.7,0c0.3,0,0.6,0,0.8,0c0.2,0,0.4,0,0.7,0c0.9,0,1.5,0,1.8,0.1
	c0.3,0.1,0.5,0.3,0.6,0.6c0,0.2,0,0.8,0,1.7c0,0.3,0,0.5,0,0.7c0,0.7,0,1.2,0,1.3c0,0.1,0.1,0.2,0.1,0.3c0.2,0.2,0.6,0.2,1.1,0
	c0.6-0.2,0.9-0.4,0.9-0.6c0-0.2,0.1-0.4,0.4-0.5c0.3-0.1,0.6-0.1,0.8,0c0.4,0.2,0.3,0.7-0.4,1.5c-0.7,0.8-1.5,1.6-2.6,2.2
	c-0.2,0.1-0.4,0.2-0.4,0.3c0,0,0,0.1,0,0.2c0.1,0.1,0,0.1-0.2,0.2c-0.2,0-0.4,0.1-0.7,0h0c-0.2,0-0.3,0-0.4,0c0,0,0,0.2,0.1,0.4
	c0,0,0,0.1,0,0.1c0,0,0,0.1,0,0.1c0.1,0.2,0.2,0.4,0.3,0.4c0.1,0,0.3,0,0.6,0c0,0,0.1,0,0.1,0c0.8-0.1,1.8-0.2,3-0.2
	c1.2,0,1.9,0,2.1,0c0.2,0.1,0.3,0.5,0.3,1.2c0,0.7,0,1.9-0.1,3.6C286.1,69.6,286.3,69.8,286.5,69.9z M284.1,63.6
	c-1.2,0-1.9,0-2.1-0.1c-0.5-0.1-0.5-0.3,0-0.6c1.2-0.5,2.3-1.1,3.3-2c0.4-0.4,0.7-0.5,0.7-0.4c0.1,0.1,0.2,0.6,0.2,1.4
	c0,0.7,0,1.1,0,1.2c0,0.2-0.1,0.3-0.3,0.4C285.9,63.5,285.3,63.6,284.1,63.6z M284.9,58.2c-0.1,0.1-0.4,0.1-0.8,0.1
	s-0.6-0.1-0.7-0.1c-0.2-0.1-0.3-0.5-0.3-1.3c0-0.8,0-1.3,0.1-1.5c0.1-0.2,0.4-0.3,0.9-0.3c0.5-0.1,0.8,0,1.1,0.1
	c0.3,0.1,0.4,0.6,0.3,1.5C285.5,57.5,285.2,58,284.9,58.2z M288.5,58.2c-0.7,0-1.1,0-1.2-0.1s-0.1-0.4,0-0.9
	c0.1-0.4,0.1-0.8,0.1-1.1c0-0.5,0.1-0.8,0.2-0.9c0.1-0.1,0.5-0.2,1-0.2c0.6,0,1,0.1,1.1,0.2c0.1,0.1,0.2,0.6,0.2,1.3
	c0,0.6,0,1,0,1.2c0,0.2-0.1,0.3-0.2,0.4c-0.1,0.1-0.2,0.1-0.3,0.1C289.3,58.2,289,58.2,288.5,58.2z M285.3,54.3
	c-0.1,0.1-0.4,0.1-0.9,0.1c-0.5,0-0.8,0-0.9-0.1c-0.2-0.1-0.3-0.6-0.3-1.4s0.1-1.3,0.3-1.4c0.1-0.1,0.5-0.1,1-0.1
	c0.5,0,0.8,0.1,1,0.2c0.2,0.2,0.2,0.6,0.2,1.4C285.6,53.7,285.5,54.2,285.3,54.3z M288.7,54.4c-0.5,0-0.8,0-0.9-0.1
	c-0.2-0.1-0.3-0.6-0.3-1.5s0.1-1.3,0.3-1.4c0.1-0.1,0.4-0.1,1-0.1c0.5,0,0.8,0.1,0.9,0.1c0.2,0.1,0.3,0.6,0.3,1.4s-0.1,1.3-0.3,1.4
	C289.6,54.3,289.2,54.4,288.7,54.4z M29.7,93.9c0,0,0.2,0,0.4,0c0.1,0,0.1,0,0.2,0c0.8-0.1,1.5-0.3,1.9-0.6c0.4-0.3,0.7-0.7,0.9-1.2
	c0.1-0.2,0.1-1.6,0.1-4.2c0-0.1,0-0.2,0-0.3v0c0-2,0-3.2,0-3.6c0-0.4,0.1-0.6,0.1-0.7v0c0.1-0.1,0.3-0.2,0.6-0.2c0.3,0,1.4,0,3.2,0
	c0.4,0,0.7,0,0.9,0c2.2,0,3.5,0,3.9,0c0.4,0,0.6-0.1,0.7-0.2c0.1-0.2-0.4-0.8-1.7-1.8l0,0c-0.4-0.3-0.7-0.5-0.8-0.5
	c-0.1,0-0.3,0.2-0.6,0.7c0,0-0.1,0.1-0.1,0.1c0,0.1-0.1,0.2-0.2,0.3c-0.3,0.4-0.5,0.7-0.7,0.7c-0.2,0.1-0.8,0.1-1.7,0.1
	c-0.3,0-0.5,0-0.7,0c-0.1,0-0.3,0-0.6,0c-0.8,0-1.3,0-1.5,0c-0.3,0-0.5-0.2-0.6-0.4c0-0.1-0.1-0.4,0-1c0-0.2,0-0.3,0-0.4
	c0-0.6,0-1,0.1-1.1c0-0.2,0.1-0.3,0.2-0.4c0.3-0.2,0.5-0.4,0.4-0.5c0-0.2,0.2-0.4,0.8-0.7c1.3-0.6,2.6-1.4,3.9-2.3
	c0.7-0.4,1.2-0.7,1.4-0.7c0.4-0.1,0.5-0.2,0.5-0.3c0-0.1-0.2-0.4-0.7-0.9c-0.5-0.5-0.8-0.8-1-0.9c-0.2-0.2-0.4-0.2-0.6-0.1
	c-0.1,0-0.3,0.2-0.6,0.5c-0.4,0.4-0.7,0.6-0.9,0.7c-0.3,0.1-2.3,0.1-6,0.1c-3.7,0-6-0.1-6.7-0.2c-0.3,0-0.4,0-0.4,0
	c0,0,0.1,0.2,0.2,0.6v0c0.1,0.2,0.2,0.4,0.3,0.4c0.1,0,0.4,0,0.8,0c0.1,0,0.2,0,0.2,0c1-0.1,3.1-0.2,6.3-0.2c0.2,0,0.5,0,0.9,0
	c1.4,0,2.4,0,2.7,0c0.5,0,0.9,0,1,0.1c0.1,0,0.1,0.1,0.1,0.2v0c0,0.1-0.3,0.5-0.8,1.1c-0.5,0.6-1.1,1.2-1.8,1.8
	c-0.4,0.4-0.7,0.6-0.9,0.6c-0.2,0-0.6,0-1.3-0.1c0,0-0.1,0-0.1,0c-0.4,0-0.6-0.1-0.6,0c0,0-0.1,0.2,0,0.4v0c0.1,0.7,0.1,1.4,0.1,2.1
	c0,0.7,0,1.2-0.1,1.3l0,0c-0.1,0.1-0.2,0.2-0.5,0.2c-0.3,0-1.1,0-2.6,0c-0.3,0-0.5,0-0.7,0c-2.6,0-4.4,0-5.3-0.1c-0.2,0-0.3,0-0.4,0
	c0,0,0.1,0.2,0.2,0.5c0,0,0,0.1,0.1,0.1c0.1,0.2,0.2,0.4,0.3,0.4c0.1,0,0.2,0,0.5,0c0,0,0.1,0,0.1,0c0.6-0.1,1.2-0.2,1.7-0.2
	c0.4,0,1.4,0,2.9,0c0.1,0,0.1,0,0.1,0c0.3,0,0.7,0,1.2,0c0.9,0,1.4,0,1.7,0c0.3,0.1,0.5,0.3,0.6,0.7c0,0.3,0.1,0.9,0.1,1.9
	c0,0.6,0,1,0,1.4c0,0.3,0,0.7,0,1.2c0,1.2,0,1.9-0.1,2.2c-0.1,0.4-0.3,0.7-0.6,0.8c-0.2,0-0.8,0-1.7,0c-0.4,0-0.7-0.1-0.9-0.1
	c-1,0-1.5-0.1-1.5,0c-0.1,0.1-0.1,0.2,0,0.2c0.1,0,0.3,0.1,0.7,0.2c0.8,0.2,1.4,0.4,1.8,0.7c0.4,0.3,0.7,0.8,0.8,1.3
	C29.6,93.7,29.7,93.8,29.7,93.9z M59.4,86.1c1.1,0.1,2-0.2,2.8-1c0.8-0.8,1.1-1.7,1-2.8c-0.1-0.9-0.5-1.6-1.2-2.2
	c-0.6-0.5-1.4-0.8-2.2-0.8c-0.9,0-1.6,0.3-2.3,0.9c-0.7,0.6-1,1.4-1.1,2.3c0,0.8,0.2,1.6,0.7,2.3C57.8,85.6,58.5,86,59.4,86.1z
	 M60.7,85.1c-0.8,0.3-1.6,0.2-2.3-0.3c-0.7-0.5-1.1-1.2-1.1-2.1c0-0.7,0.2-1.3,0.7-1.8c0.5-0.5,1.1-0.7,1.7-0.7
	c0.7,0,1.3,0.2,1.8,0.7c0.7,0.6,0.9,1.4,0.7,2.3C62.1,84.2,61.6,84.8,60.7,85.1z"/>
</svg>
