<?xml version="1.0" encoding="utf-8"?>
<!-- Generator: Adobe Illustrator 24.2.3, SVG Export Plug-In . SVG Version: 6.00 Build 0)  -->
<svg version="1.1" id="Layer_1" xmlns="http://www.w3.org/2000/svg" xmlns:xlink="http://www.w3.org/1999/xlink" x="0px" y="0px"
	 viewBox="0 0 352 219" style="enable-background:new 0 0 352 219;" xml:space="preserve">
<style type="text/css">
	.st0{clip-path:url(#SVGID_2_);}
	.st1{fill:none;stroke:#D6D2C7;stroke-width:1.3;stroke-miterlimit:10;stroke-dasharray:9.31,9.31;}
	.st2{fill:#D6D2C7;}
</style>
<g>
	<defs>
		<rect id="SVGID_1_" width="351.3" height="218.1"/>
	</defs>
	<clipPath id="SVGID_2_">
		<use xlink:href="#SVGID_1_"  style="overflow:visible;"/>
	</clipPath>
	<g class="st0">
		<path class="st1" d="M350.6,0.6H0.6v216.8h350V0.6z"/>
	</g>
</g>
<path class="st2" d="M27.7,47.2c0.1,0,0.3,0,0.8-0.1c0.8-0.2,1.3-0.6,1.5-1.2c0-0.2,0.1-1.5,0.1-4c0-0.2,0-0.5,0-0.8
	c0-1.2,0-1.9,0-2.3c0-0.4,0.1-0.8,0.1-0.9c0-0.1,0.2-0.2,0.3-0.3c0.1,0,0.1-0.1,0.1-0.1c0.3-0.2,0.5-0.3,0.6-0.2
	c0.1,0,0.2,0.3,0.3,0.6c0,0.4,0,1,0,1.9c0,0.8,0,1.2,0,1.4c0,0.1,0.1,0.2,0.2,0.3c0.2,0.1,0.5,0,0.8-0.1s0.5-0.2,0.5-0.4
	c0-0.2,0.1-0.3,0.4-0.4c0.3-0.1,0.5-0.1,0.7,0.1c0.2,0.1,0.3,0.5,0.3,1.1s-0.1,1-0.3,1.2c-0.1,0.1-0.6,0.2-1.4,0.3
	c-0.8,0.1-1.4,0.1-1.8,0.1c-0.1,0-0.2,0.1-0.1,0.2c0,0.1,0.2,0.4,0.4,0.9c0.3,0.6,0.4,0.9,0.5,1c0.1,0.1,0.2,0,0.4-0.1
	c0.1-0.1,0.3-0.2,0.5-0.3s0.6-0.2,1.2-0.4c0.2-0.1,0.6-0.2,1.1-0.3c0.5-0.2,0.9-0.3,1.1-0.4c0.7-0.2,1.2-0.4,1.4-0.3
	c0.2,0,0.3,0.2,0.5,0.5c0.1,0.2,0.2,0.4,0.5,0.5c0.3,0.1,0.5,0,0.6-0.2c0.3-0.3,0.4-0.6,0.2-1.1c-0.1-0.4-0.4-0.8-0.9-1.2
	c-0.2-0.2-0.4-0.3-0.5-0.4c-0.2-0.2-0.3-0.2-0.5-0.2c-0.1,0-0.3,0-0.4,0c-0.2,0-0.2,0.1,0,0.4c0.2,0.2,0.2,0.5,0.1,0.7
	c-0.1,0.2-0.2,0.3-0.4,0.4c-0.2,0-0.4-0.1-0.6-0.3c-0.2-0.3-0.3-0.6-0.2-0.9c0-0.4,0.2-0.6,0.4-0.9c0.2-0.2,0.5-0.3,0.7-0.1
	c0.1,0.1,0.3,0.2,0.4,0.5c0.1,0.1,0.2,0.1,0.6,0c0.5-0.1,0.7-0.2,0.8-0.4c0.1-0.1,0.1-0.5,0.1-1c-0.1-1-0.1-1.6,0-2
	c0.1-0.3,0.2-0.6,0.5-0.7c0.2-0.1,0.3-0.2,0.2-0.3c0-0.1-0.2-0.3-0.4-0.5c-0.4-0.4-0.7-0.6-0.9-0.6c-0.2,0-0.4,0.1-0.6,0.3
	c-0.5,0.5-1,0.7-1.4,0.4c-0.2-0.1-0.2-0.2-0.3-0.4c0-0.2,0.1-0.4,0.2-0.5c0.2-0.1,0.2-0.2,0.1-0.4C36,35.2,35.6,35,35,34.7
	c-0.4-0.1-0.6-0.2-0.7-0.2c0,0-0.1,0.2,0,0.4c0.1,0.7,0,1.2-0.2,1.4c-0.2,0.2-0.5,0.3-1,0.1c-0.4-0.1-0.6-0.3-0.5-0.5
	c0-0.2,0.3-0.6,0.7-1.2c0,0,0.1-0.1,0.1-0.2c0.3-0.4,0.5-0.6,0.8-0.6c0.3-0.1,1-0.1,2.2-0.1c0.3,0,0.5,0,0.6,0c0.2,0,0.5,0,0.9,0
	c0.8,0,1.3,0,1.5,0c0.3,0.1,0.5,0.2,0.6,0.5c0,0.2,0,0.7,0,1.5c0,0.4,0,0.7,0,0.9c0,2.1-0.1,3.7-0.2,4.6c-0.1,0.9-0.2,1.6-0.4,2.3
	c-0.2,0.6-0.4,1-0.7,1.1s-0.9,0.1-2,0c-0.4,0-0.7,0-0.8,0c-0.1,0-0.2,0-0.2,0.1c0,0.1,0.2,0.2,0.6,0.3c1.1,0.3,1.7,0.8,1.7,1.6
	c0,0.1,0,0.2,0.1,0.2c0.1,0,0.3,0,0.6,0c0.9-0.1,1.5-0.4,1.9-0.9c0.4-0.6,0.7-1.6,0.9-3c0.2-1.3,0.3-3.4,0.4-6.4
	c0-1.2,0.1-1.9,0.1-2.2c0.1-0.3,0.2-0.5,0.4-0.5c0,0,0.1,0,0.2-0.1c0.1-0.1,0.2-0.2,0.2-0.2c0-0.1-0.2-0.3-0.5-0.6
	c-0.4-0.4-0.7-0.6-1-0.8c-0.3-0.2-0.4-0.3-0.4-0.3c0,0,0.1-0.1,0.2-0.2c0.1-0.1,0.2-0.2,0.3-0.2c0.2-0.1,0.3-0.2,0.3-0.3s0-0.4,0-1
	c-0.1-1.1-0.1-1.9,0-2.3c0-0.4,0.2-0.7,0.4-0.8c0.3-0.2,0.4-0.3,0.3-0.4c0-0.1-0.3-0.4-0.7-0.7c-0.4-0.4-0.7-0.6-0.9-0.6
	c-0.2-0.1-0.3,0.1-0.6,0.4c0,0-0.1,0.1-0.1,0.2c-0.2,0.3-0.4,0.5-0.7,0.5c-0.3,0-1,0.1-2.4,0.1c-0.4,0-0.6,0-0.8,0
	c-0.2,0-0.4,0-0.8,0c-1.3,0-2,0-2.3,0c-0.3,0-0.6-0.1-1.1-0.3C32,26.1,31.9,26,31.8,26l0,0c-0.4-0.2-0.7-0.3-0.7-0.3
	c-0.1,0-0.1,0.1-0.1,0.3c0.1,0.9,0.1,1.9,0.1,3c0,1.1,0,1.7-0.1,1.9c-0.1,0.1-0.2,0.2-0.3,0.2c-0.1,0-0.3-0.1-0.6-0.3
	c-0.4-0.3-0.8-0.5-1-0.6c-0.2-0.1-0.3,0-0.5,0.1c-0.3,0.4-0.5,0.6-0.7,0.7c-0.2,0.1-0.4,0.1-0.6,0.1c-0.5-0.1-0.5-0.4,0-0.9
	c0.1-0.1,0.2-0.3,0.5-0.6c0.1-0.1,0.2-0.2,0.2-0.3c0.3-0.4,0.6-0.6,0.7-0.7c0.1-0.1,0.3-0.2,0.6-0.2c0.2-0.1,0.4-0.2,0.3-0.3
	c0-0.1-0.2-0.3-0.5-0.6c-0.5-0.5-0.9-0.8-1.1-0.9c-0.2-0.1-0.4,0-0.6,0.3c-0.3,0.4-0.7,0.6-1.1,0.7c-0.4,0.1-0.6,0-0.7-0.2
	c-0.1-0.2,0-0.6,0.2-0.9c0.1-0.2,0.2-0.2,0.3-0.2c0.6-0.2,0.1-0.5-1.4-1.1c0,0-0.1,0-0.2-0.1c-0.4-0.1-0.6-0.2-0.6-0.1
	c-0.1,0-0.1,0.1-0.1,0.4c0,0,0,0.1,0,0.1c-0.1,1.1-0.4,2.3-0.8,3.6s-0.9,2.5-1.5,3.6c-0.2,0.3-0.3,0.6-0.3,0.6c0,0.1,0,0.1,0.1,0.1
	c0.1,0,0.2-0.1,0.4-0.3c0.3-0.3,0.6-0.4,0.7-0.2c0.1,0.1,0.1,1.2,0.1,3.4c0,2.2,0,3.6-0.1,4.4c-0.2,2.5-0.5,4.5-1.2,6
	c-0.1,0.2-0.1,0.4,0,0.4c0.1,0.1,0.2,0,0.4-0.2c0.5-0.6,1-1.4,1.4-2.4c0.4-1,0.7-2.2,0.9-3.4c0,0,0-0.1,0-0.2
	c0.1-0.5,0.2-0.8,0.3-0.9c0.1-0.1,0.6-0.1,1.4-0.1c0.2,0,0.3,0,0.4,0c0.1,0,0.3,0,0.6,0c0.6,0,1,0,1.1,0c0.2,0,0.4,0.2,0.4,0.5
	c0,0.2,0.1,0.6,0,1.3c0,0.3,0,0.5,0,0.7c0,0.1,0,0.2,0,0.3c0,0.9,0,1.5,0,1.7c0,0.3-0.2,0.5-0.4,0.6c-0.1,0-0.5,0-1,0
	c-0.1,0-0.2,0-0.2,0c-0.5,0-0.8,0-0.9,0c-0.1,0-0.1,0-0.1,0.1c0,0.1,0,0.1,0.1,0.1c0,0,0.2,0.1,0.5,0.1c0.8,0.2,1.3,0.7,1.5,1.4
	c0,0,0,0,0,0.1C27.7,47.1,27.7,47.2,27.7,47.2z M34,39.8c-0.7,0.3-1,0-1-1.1c0-0.6,0.1-1,0.2-1.3c0.2-0.2,0.5-0.3,0.8,0
	c0.2,0.1,0.3,0.6,0.3,1.2C34.4,39.3,34.3,39.7,34,39.8z M36.8,39.8c-0.4,0.2-0.7,0.1-1-0.3c-0.2-0.4-0.2-1-0.1-1.7
	c0.1-0.4,0.3-0.5,0.7-0.5c0.4,0,0.6,0.2,0.7,0.5c0.1,0.4,0.1,0.8,0,1.2S37,39.7,36.8,39.8z M28.1,39.1c-0.2,0.1-0.3,0.1-0.6,0.1
	c-0.2-0.1-0.3-0.2-0.4-0.3c-0.1-0.1-0.1-0.6-0.1-1.4c0-0.8,0.1-1.3,0.1-1.4c0.1-0.2,0.3-0.3,0.4-0.3c0.2,0,0.3,0,0.5,0.1
	c0.2,0.1,0.3,0.7,0.3,1.6C28.4,38.4,28.3,39,28.1,39.1z M25.3,39.1c-0.2,0.1-0.4,0.1-0.6,0.1c-0.2-0.1-0.3-0.2-0.4-0.3
	c0-0.1,0-0.6,0-1.3c0-0.8,0-1.3,0.1-1.5c0.1-0.2,0.3-0.3,0.5-0.3c0.3,0,0.5,0.1,0.5,0.3c0.1,0.2,0.1,0.7,0.1,1.6
	c0,0.6,0,0.9-0.1,1.1C25.5,38.9,25.4,39,25.3,39.1z M30.7,36.3c-0.3,0.3-0.4,0.3-0.5,0.1c-0.1-0.1-0.1-0.8-0.1-2.1s0-2,0.1-2.1
	c0.1-0.2,0.3-0.3,0.5-0.4s0.4,0,0.5,0.1c0.1,0.1,0.2,0.1,0.3,0.1c0.1,0,0.4,0,0.8-0.1c0.3,0,0.4,0.1,0.4,0.4c0,0.3-0.3,0.9-0.8,1.9
	C31.4,35.3,31,35.9,30.7,36.3z M28.1,35c-0.4,0.2-0.6,0.2-0.8,0c-0.2-0.3-0.2-0.8-0.2-1.5c0-0.8,0.1-1.3,0.2-1.5
	c0.1-0.2,0.4-0.3,0.8-0.1c0.2,0.1,0.3,0.6,0.3,1.5C28.4,34.3,28.3,34.8,28.1,35z M24.9,35c-0.3,0-0.4-0.1-0.5-0.3
	c-0.1-0.2-0.1-0.7-0.1-1.3c0-0.8,0.1-1.2,0.2-1.5c0.2-0.2,0.4-0.2,0.7,0c0.2,0.1,0.3,0.6,0.3,1.5c0,0.9-0.1,1.4-0.3,1.5
	C25.2,35,25.1,35,24.9,35z M39.6,33.3c-0.1,0-0.9,0-2.4,0s-2.2,0-2.3-0.1c-0.2-0.1-0.3-0.3-0.1-0.6c0.1-0.3,0.3-0.5,0.6-0.6
	c0.3-0.1,0.4-0.2,0.1-0.4c-0.3-0.2-0.3-0.4,0-0.4c0.3-0.1,1-0.1,2.1-0.1c1.1,0,1.7,0,1.9,0.1c0.2,0,0.3,0.2,0.3,0.4
	c0,0.1,0,0.2,0,0.2c0,0,0.1,0,0.3,0c0.4,0.1,0.6,0.1,0.6,0.2c0,0.1-0.2,0.3-0.5,0.6C40,33,39.8,33.2,39.6,33.3z M25.6,31
	c-0.2,0-0.5,0.1-0.7,0c-0.3,0-0.5-0.1-0.6-0.2c-0.2-0.1-0.3-0.3-0.3-0.4c0-0.2,0.2-0.5,0.5-1.1c0.3-0.6,0.5-0.9,0.7-1
	c0.1-0.1,0.4-0.2,0.8-0.2c0.4,0,0.6,0,0.7,0.1c0.1,0.1,0.2,0.3,0.1,0.6c0,0.3-0.2,0.7-0.5,1.5C26.1,30.8,25.9,31,25.6,31z
	 M39.6,30.4c-0.8,0.5-1.1,0-1.1-1.5c0-0.7,0-1.2,0.1-1.3c0.1-0.2,0.3-0.3,0.6-0.3c0.3,0,0.5,0.1,0.6,0.3c0.1,0.2,0.1,0.6,0.1,1.3
	c0,0.6,0,1,0,1.2C39.8,30.2,39.7,30.3,39.6,30.4z M34,30.4c-0.2,0.1-0.5,0.2-0.7,0s-0.4-0.3-0.4-0.6c-0.1-0.8-0.1-1.5,0-1.9
	c0.1-0.5,0.4-0.7,0.7-0.7c0.3,0,0.5,0.1,0.6,0.3c0.1,0.2,0.1,0.6,0.1,1.4c0,0.6,0,1,0,1.2C34.2,30.2,34.1,30.3,34,30.4z M36.8,30.4
	c-0.2,0.1-0.4,0.1-0.6,0.1c-0.2,0-0.4-0.1-0.5-0.3c-0.1-0.1-0.1-0.6-0.1-1.3c0-0.8,0.1-1.2,0.1-1.3c0.1-0.1,0.2-0.2,0.5-0.3
	c0.2,0,0.4,0,0.6,0.1c0.3,0.1,0.4,0.6,0.4,1.5C37.1,29.7,37,30.2,36.8,30.4z M51.5,47.2c0,0,0.1,0.1,0.3,0c0.1,0,0.1,0,0.2,0
	c1-0.2,1.7-0.6,1.9-1.1l0,0c0.1-0.3,0.2-0.6,0.2-1c0-0.4,0.1-1.7,0.1-3.8c0-2.7,0-4.1,0.1-4.2c0.1-0.2,0.5-0.5,1.2-0.9
	c1.1-0.7,1.6-1.1,1.6-1.2c0-0.1-0.1-0.1-0.2-0.1s-0.4,0.1-1,0.3c-0.1,0-0.1,0-0.2,0.1c-0.5,0.2-0.9,0.3-1,0.2
	c-0.2,0-0.3-0.1-0.4-0.4c0-0.2-0.1-0.6-0.1-1.3c0-0.2,0-0.3,0-0.4c0-0.1,0-0.3,0-0.6c0-0.7,0-1.1,0-1.2c0-0.2,0.2-0.4,0.3-0.5
	c0.1,0,0.5,0,1,0c0.2,0,0.3,0,0.4,0c0,0,0.1,0,0.1,0c0.7,0,1.2,0,1.3,0.1c0.1,0.1,0.2,0.3,0.3,0.7c0,0,0,0.1,0,0.1
	c0,0.3,0,1.4,0,3.2c0,1.8,0,2.9,0,3.3c0,0.5,0,0.8,0.1,0.9c0.1,0.1,0.4,0.1,0.9,0c0.7-0.2,1.1-0.4,1.1-0.7c0-0.4,0.3-0.6,0.8-0.7
	c0.6-0.1,1,0,1.1,0.4c0.1,0.3,0.1,0.7,0,1.3c-0.1,0.6-0.2,1-0.4,1.1c-0.1,0-0.8,0.1-2.2,0c-1.3,0-2.3,0-2.8-0.1c-0.4,0-0.6,0-0.6,0
	c0,0,0,0.2,0.2,0.5c0,0,0,0.1,0,0.1c0.1,0.3,0.2,0.4,0.3,0.4c0.1,0,0.2,0,0.4,0h0.1c0.6-0.1,1.4-0.2,2.3-0.2c1-0.1,1.6-0.1,1.8,0
	c0.5,0.1,0.5,0.6,0,1.5c-0.9,1.6-2.7,2.8-5.3,3.8c-0.4,0.2-0.7,0.3-0.8,0.3c0,0,0,0.1,0,0.2c0,0.1,0.2,0.1,0.4,0
	c0.2,0,0.7-0.1,1.4-0.3c1.8-0.5,3.2-1.1,4.2-1.8c1.1-0.7,1.9-1.6,2.4-2.6c0.2-0.4,0.4-0.6,0.5-0.6c0.1,0,0.3,0.2,0.4,0.6
	c0.9,2.2,2.4,3.7,4.5,4.4c0.2,0.1,0.4,0.1,0.4,0.1c0.1,0,0.1-0.1,0.1-0.3c0.1-0.8,0.6-1.4,1.4-1.7c0.3-0.1,0.4-0.2,0.3-0.3
	c0,0-0.3-0.1-0.8-0.2c-1.5-0.3-2.8-0.8-4-1.4c-1.2-0.6-1.7-1.2-1.7-1.7c0-0.1,0.1-0.2,0.1-0.2c0.1,0,0.4-0.1,0.8-0.1
	c0.3,0,1,0,2.1,0c1.3,0,2.2,0,2.5-0.1c0.5,0,0.7-0.2,0.6-0.3c0-0.1-0.3-0.4-0.8-0.9c-0.5-0.5-0.8-0.7-1-0.8
	c-0.2-0.1-0.4-0.2-0.5-0.1c-0.1,0.1-0.3,0.3-0.5,0.6c0,0-0.1,0.1-0.1,0.2c-0.3,0.4-0.5,0.7-0.7,0.7c-0.1,0.1-0.5,0.1-1.2,0.1
	c-0.1,0-0.2,0-0.3,0c0,0-0.1,0-0.2,0c-0.7,0-1.1-0.1-1.2-0.2C64,40.3,64,40,64,39.3c0-0.1,0-0.1,0-0.2c0.1-0.6,0.2-1,0.3-1.1
	c0.1-0.1,0.4-0.2,1-0.2c0.5,0,0.8,0.1,1,0.2c0.2,0.1,0.3,0.3,0.3,0.6c0,0.2,0,0.3,0.1,0.3c0.1,0,0.2,0,0.4,0
	c0.8-0.1,1.2-0.3,1.4-0.5c0.2-0.2,0.3-0.7,0.3-1.4c-0.1-2-0.1-3.3,0-3.8c0.1-0.6,0.2-0.9,0.5-1.1c0.2-0.1,0.3-0.3,0.2-0.5
	c-0.1-0.2-0.4-0.4-0.9-0.8c-0.5-0.4-0.8-0.6-1-0.6c-0.1,0-0.3,0.1-0.6,0.4c0,0-0.1,0.1-0.1,0.2c-0.2,0.3-0.4,0.4-0.7,0.5
	c-0.2,0-1,0-2.2,0c-0.4,0-0.7,0-0.9,0c-1.5,0-2.4,0-2.7,0c-0.3,0-0.6,0-0.7-0.1c-0.8-0.3-1.5-0.6-1.9-0.8c-0.4-0.2-0.8-0.5-1.1-0.8
	c-0.5-0.5-0.8-0.7-0.9-0.7c-0.1,0-0.3,0.2-0.6,0.5c-0.2,0.4-0.4,0.6-0.6,0.7c-0.1,0.1-0.2,0.1-0.3,0c0,0-0.1-0.2-0.1-0.3
	c0-0.2,0-0.6,0-1.4c0-0.9,0-1.4,0-1.6c0-0.2,0.1-0.4,0.3-0.5c0.3-0.2,0.2-0.4-0.1-0.5c-0.3-0.2-1-0.4-2.1-0.6l0,0
	c-0.3-0.1-0.4-0.1-0.4,0c0,0,0,0.3,0,0.6c0.1,0.9,0.2,1.8,0.2,2.7c0,1,0,1.5-0.1,1.6c-0.1,0.2-0.3,0.3-0.6,0.3c-0.3,0-0.9,0-1.7-0.1
	c0,0,0,0-0.1,0c-0.3,0-0.4,0-0.5,0c0,0,0,0.2,0.1,0.4c0,0,0,0.1,0,0.1c0,0,0,0,0,0.1c0.1,0.2,0.2,0.4,0.2,0.4c0.1,0,0.2,0,0.5-0.1
	c0,0,0.1,0,0.1,0c0.7-0.2,1.1-0.2,1.3-0.2c0.3,0.1,0.5,0.3,0.6,0.7c0.1,0.3,0.1,1,0.1,2c0,0.1,0,0.3,0,0.6c0,0.8,0,1.3-0.1,1.5
	c-0.1,0.3-0.3,0.5-0.6,0.7c-0.2,0.1-0.8,0.3-1.6,0.5c-0.3,0.1-0.5,0.1-0.7,0.2C49,37,49,37.1,49,37.2c0,0.1,0.1,0.5,0.3,1.1
	c0,0,0,0.1,0,0.1c0.3,0.8,0.4,1.2,0.5,1.3c0.1,0.1,0.2,0,0.3-0.2s0.4-0.5,0.9-0.7c0.4-0.2,0.7-0.3,0.9-0.2c0.1,0.1,0.2,0.2,0.2,0.5
	c0,0.2,0,1,0,2.4c0,0.1,0,0.3,0,0.6c0,1.1,0,1.8,0,2c-0.1,0.4-0.2,0.6-0.4,0.7c-0.2,0-0.6,0-1.2,0c-0.1,0-0.2,0-0.3,0
	c-0.5,0-0.7,0-0.8,0c-0.1,0.1,0,0.2,0.4,0.3c0.5,0.1,0.8,0.3,1.1,0.6c0.3,0.3,0.4,0.7,0.6,1.2C51.5,47,51.5,47.1,51.5,47.2z
	 M63.2,37.2c-2,0-3,0-3.1-0.1c-0.2-0.2-0.3-0.5-0.3-1.1c0-0.6,0.2-0.9,0.4-1c0.1-0.1,1.1-0.1,3-0.1s2.9,0,3,0.1
	c0.2,0.1,0.4,0.5,0.4,1c0,0.5-0.1,0.9-0.3,1.1C66.2,37.1,65.1,37.2,63.2,37.2z M63.2,34.2c-2,0-3,0-3.1-0.1
	c-0.2-0.2-0.3-0.5-0.3-1.1c0-0.6,0.2-0.9,0.4-1c0.1-0.1,1.1-0.1,3-0.1s2.9,0,3,0.1c0.2,0.1,0.4,0.5,0.4,1c0,0.5-0.1,0.9-0.3,1.1
	C66.2,34.1,65.1,34.2,63.2,34.2z M59.8,30.4c0.1,0.1,0.4,0,0.9-0.1c0.4-0.1,0.8-0.2,0.9-0.4c0.1-0.1,0.1-0.1,0.1-0.2
	c0,0,0-0.2,0-0.5c0-0.4,0.1-0.7,0.2-0.8c0.1-0.1,0.5-0.1,1.2-0.1c0.6,0,1,0,1.2,0.1s0.2,0.4,0.2,0.9c0,0.3,0,0.6,0,0.6
	c0,0.1,0.1,0.2,0.2,0.2c0.2,0.1,0.6,0,1-0.1c0.5-0.2,0.7-0.4,0.7-0.5v-0.1c0-0.2,0-0.3,0-0.4c0-0.4,0.1-0.6,0.3-0.6
	c0.2-0.1,0.8-0.1,1.8-0.1c1.2,0,1.8-0.1,1.9-0.3s-0.2-0.6-1-1.3c-0.4-0.4-0.7-0.6-0.9-0.6s-0.4,0.2-0.7,0.7l0,0
	c-0.4,0.6-0.8,0.8-1.1,0.6c-0.2-0.1-0.3-0.3-0.3-0.7c0-0.4,0.2-0.6,0.4-0.8c0.2-0.2,0.2-0.3,0-0.5c-0.2-0.1-0.8-0.3-1.7-0.6
	c-0.4-0.1-0.6-0.2-0.7-0.1c-0.1,0-0.1,0.1-0.1,0.4c0.2,1.3,0.1,2-0.1,2.2c-0.1,0.1-0.5,0.1-1.1,0.1s-1,0-1.1-0.1
	c-0.2-0.1-0.3-0.4-0.3-0.7c0-0.4,0.2-0.6,0.4-0.8c0.2-0.2,0.1-0.3-0.1-0.5c-0.3-0.1-0.8-0.3-1.7-0.6c0,0,0,0-0.1,0
	c-0.3-0.1-0.5-0.1-0.6-0.1c0,0-0.1,0.2,0,0.5v0.1c0.1,0.8,0.1,1.4,0,1.6c-0.1,0.3-0.4,0.5-0.8,0.6c-0.4,0-1.1,0-2.2-0.1
	c-0.2,0-0.2,0-0.3,0c0,0,0.1,0.2,0.2,0.6c0,0,0,0,0,0.1c0.1,0.2,0.2,0.4,0.3,0.4c0.1,0,0.3,0,0.6-0.1h0c0.8-0.2,1.4-0.2,1.7-0.1
	c0.3,0.1,0.4,0.4,0.4,1C59.7,30.1,59.7,30.4,59.8,30.4z M97.1,47.2c0.5,0.1,0.8-0.1,1.1-0.5c0.3-0.4,0.3-0.9,0.2-1.6
	c-0.3-1.7-1.7-3.1-4.1-4.3c-0.6-0.3-1-0.4-1.1-0.4c-0.1,0,0,0.2,0.3,0.6c0.8,1.1,1.3,1.8,1.4,2.1s-0.2,0.5-0.7,0.6
	c-0.5,0-1.3,0.1-2.6,0.1c-1.3,0-2,0-2.1,0c-0.3,0-0.4-0.1-0.4-0.3s0.2-0.5,0.6-1c1.9-2.2,3.6-4.6,5.3-7.3c0.3-0.4,0.5-0.7,0.8-0.7
	c0.3-0.1,0.3-0.2,0-0.4c-0.3-0.2-0.9-0.5-1.9-1c0,0,0,0-0.1,0c-0.3-0.1-0.5-0.2-0.5-0.1c-0.1,0-0.1,0.2-0.2,0.5c0,0,0,0.1,0,0.1
	c-0.6,1.9-2.1,4.9-4.4,9.1c0,0-0.1,0.1-0.1,0.2c-0.3,0.5-0.6,0.8-0.7,0.9c-0.2,0.1-0.7,0.1-1.5,0.1c-0.1,0-0.2,0-0.3,0
	c-0.1,0-0.3,0-0.5,0c-0.6,0-1,0-1,0.1c-0.1,0.1,0,0.4,0.2,0.8c0.1,0.2,0.1,0.3,0.2,0.4c0.3,0.8,0.5,1.3,0.6,1.4
	c0.1,0.1,0.2,0.1,0.4-0.1c0.1-0.1,0.3-0.2,0.6-0.3c0.3-0.1,0.9-0.2,1.8-0.4c1.3-0.3,2.8-0.6,4.5-1c0.4-0.1,0.6-0.1,0.8-0.2
	c0.8-0.2,1.3-0.3,1.5-0.3c0.3,0,0.6,0.1,0.7,0.4c0.1,0.2,0.3,0.7,0.5,1.5c0.1,0.3,0.2,0.6,0.3,0.7S96.8,47.1,97.1,47.2z M80,47.1
	c0.1,0.1,0.3,0.1,0.7,0c0.4-0.1,0.8-0.2,1.1-0.3c0.7-0.4,1.3-1.1,1.6-2.2c0.4-1.2,0.6-3,0.8-5.4c0-0.7,0.1-1.1,0.2-1.3
	c0.1-0.2,0.2-0.3,0.5-0.5c0.3-0.1,0.3-0.3,0.2-0.5c-0.1-0.2-0.5-0.5-1-1c-0.4-0.3-0.6-0.5-0.7-0.5c-0.1,0-0.3,0.2-0.6,0.5
	c-0.3,0.3-0.5,0.5-0.7,0.6c-0.2,0-0.6,0.1-1.2,0.1c0,0-0.1,0-0.2,0c-0.5,0-0.8,0-0.9-0.1c-0.2-0.1-0.3-0.2-0.3-0.5
	c0-0.2,0-0.6,0.1-1.3c0-0.1,0-0.2,0-0.2c0-0.1,0-0.2,0-0.3c0.1-0.7,0.1-1.2,0.1-1.3c0.1-0.3,0.2-0.4,0.3-0.5c0.1,0,0.4-0.1,0.8-0.1
	c0.1,0,0.1,0,0.2,0c0.5,0,0.9,0,1,0.1c0.2,0.1,0.2,0.3,0.2,0.6c0,0.2,0.2,0.3,0.5,0.3c0.3,0,0.7-0.1,1.2-0.3l0,0
	c0.2-0.1,0.3-0.2,0.4-0.3c0-0.1,0.1-0.4,0-1c0-0.1,0-0.1,0-0.2c0-0.9,0-1.4,0-1.7c0.1-0.2,0.3-0.2,0.5,0.2c0.1,0.1,0.1,0.2,0.2,0.2
	c0,0,0.2,0,0.4,0c0.1,0,0.1,0,0.1,0c0.9-0.1,1.8-0.2,2.5-0.2c0.6,0,0.9,0,1,0.1c0.2,0.1,0.3,0.3,0.2,0.6c0,0.2-0.2,0.7-0.5,1.5
	c-0.4,1-0.6,1.6-0.7,1.9c-0.2,0.4-0.3,0.6-0.5,0.6c-0.1,0-0.3,0-0.7-0.2c-1.7-0.7-2.3-0.7-1.5,0c1.2,1.2,2.1,2.5,2.5,3.8
	c0.1,0.3,0.2,0.5,0.3,0.6s0.3,0.2,0.6,0.2c0.6,0,1-0.4,1-1.1c0.1-0.7-0.2-1.4-0.8-2.1c-0.3-0.3-0.4-0.6-0.4-0.7
	c0-0.2,0.2-0.5,0.6-0.9c0.8-1,1.5-1.7,1.9-2.3c0.4-0.5,0.7-0.8,1-1c0.3-0.1,0.3-0.3,0-0.4c-0.3-0.1-0.4-0.3-0.3-0.4
	c0.1-0.1,0.3-0.1,0.6-0.2c0.4,0,1.3,0,2.7,0c1.4,0,2.3,0,2.7-0.1c0.5-0.1,0.6-0.2,0.5-0.5c-0.1-0.2-0.6-0.6-1.4-1.3l0,0
	c-0.4-0.4-0.7-0.6-0.9-0.6c-0.1,0-0.4,0.2-0.7,0.7l0,0c-0.4,0.5-0.6,0.8-0.8,0.9c-0.2,0.1-0.5,0.1-1.1,0.1c-0.6,0-1-0.1-1.1-0.2
	c-0.1-0.1-0.2-0.6-0.2-1.3c0-0.6,0-1,0-1.1c0-0.2,0.1-0.3,0.3-0.5c0.2-0.2,0.2-0.3,0.1-0.4s-0.5-0.2-1.1-0.4
	c-1.3-0.4-1.9-0.4-1.9-0.2c0.1,0.2,0.1,0.8,0.2,2c0,1.1,0,1.7,0,1.8c-0.1,0.2-0.6,0.3-1.5,0.3c-0.9,0-2,0-3.4-0.1
	c-0.3,0-0.4,0-0.5,0c-0.1,0-0.1,0-0.2-0.2c0-0.2-0.1-0.4-0.1-0.7c0-0.3,0-0.5,0.1-0.6c0.1-0.1,0.2-0.3,0.5-0.4
	c0.2-0.1,0.3-0.3,0.1-0.6c-0.2-0.3-0.6-0.6-1.2-1.1c-0.3-0.3-0.6-0.4-0.7-0.4c-0.1,0-0.3,0.2-0.5,0.6c-0.3,0.4-0.8,0.6-1.5,0.7
	c-0.7,0.1-1.8,0-3.4-0.1c-0.4,0-0.6,0-0.6,0c0,0,0,0.2,0.2,0.5c0,0,0,0.1,0.1,0.1c0.1,0.2,0.2,0.4,0.2,0.4c0.1,0,0.2,0,0.4,0
	c0,0,0.1,0,0.1,0c2.6-0.4,4-0.3,4.1,0.2c0.1,0.2,0.1,0.8,0.1,1.9c0,1.1-0.1,1.7-0.1,1.8c-0.2,0.3-0.5,0.4-1.1,0.4
	c-0.6,0-1.3-0.2-2.2-0.6c-0.1,0-0.2,0-0.3-0.1c-0.5-0.2-0.8-0.3-0.8-0.3c0,0-0.1,0.3,0,1c0,1.4-0.1,3.4-0.4,5.9c0,0,0,0.1,0,0.2
	c-0.1,0.5-0.1,0.8,0,0.9c0,0.1,0.2,0.1,0.6,0.1c0.1,0,0.1,0,0.2,0c0.5,0,0.8,0,0.9-0.1c0.2-0.1,0.3-0.3,0.3-0.6
	c0.1-0.4,0.2-0.6,0.3-0.7c0.2-0.1,0.6-0.1,1.2-0.1c0,0,0.1,0,0.1,0c0.5,0,0.9,0,1,0.1c0.2,0.1,0.3,0.3,0.3,0.6c0,0.2,0,0.7-0.1,1.6
	c0,0.1,0,0.2,0,0.2c-0.1,1.6-0.3,2.8-0.5,3.5c-0.2,0.8-0.4,1.3-0.8,1.5c-0.3,0.2-0.8,0.3-1.5,0.3c-0.1,0-0.2,0-0.4,0
	c-0.4,0-0.7,0-0.8,0c-0.3,0-0.5,0-0.5,0c0,0.1,0,0.1,0.1,0.2c0.1,0,0.3,0.1,0.5,0.2c1.1,0.3,1.6,0.9,1.6,1.7
	C79.9,47,79.9,47.1,80,47.1z M123.3,46.3c0.9,0.7,1.3,0.9,1.3,0.6c0-0.3,0.2-0.6,0.6-1c0.4-0.4,0.7-0.7,1.1-0.9
	c0.3-0.1,0.4-0.2,0.4-0.3c0-0.1-0.2-0.2-0.5-0.3c-1.3-0.5-2.5-1.3-3.7-2.3c-0.4-0.3-0.6-0.6-0.6-0.7c0-0.2,0.1-0.5,0.3-0.9
	c1-1.7,1.7-3.6,2.3-5.7c0.1-0.6,0.3-1,0.4-1.1c0.1-0.2,0.2-0.3,0.5-0.3c0.3-0.1,0.4-0.2,0.3-0.4c-0.1-0.2-0.3-0.5-0.8-1
	c-0.5-0.5-0.8-0.8-1-0.8c-0.1,0-0.4,0.1-0.7,0.5c0,0-0.1,0.1-0.2,0.2c-0.3,0.3-0.5,0.4-0.7,0.5c-0.2,0-0.9,0.1-1.9,0.1
	c-0.3,0-0.5,0-0.7,0c-0.2,0-0.5,0-0.9,0c-0.8,0-1.3,0-1.6,0c-0.3,0-0.5-0.2-0.6-0.4c0-0.2-0.1-0.6,0-1.2c0-0.3,0-0.5,0-0.7
	c0-0.2,0-0.5,0-0.8c0-0.6,0-0.9,0.1-1.1c0.1-0.2,0.4-0.4,0.8-0.4c0.3,0,1.1,0,2.3,0c0.7,0,1.2,0,1.7,0c1.8,0,2.9,0,3.4,0
	c0.7,0,1.1,0,1.2-0.1c0.1,0,0.2-0.1,0.2-0.2c0.1-0.3-0.4-0.8-1.3-1.5c-0.4-0.3-0.7-0.5-0.8-0.5c-0.1,0-0.3,0.2-0.6,0.6l0,0
	c0,0-0.1,0.1-0.1,0.2c-0.2,0.4-0.5,0.6-0.7,0.7c-0.3,0.1-1,0.1-2.2,0.1c-0.3,0-0.5,0-0.6,0s-0.3,0-0.6,0c-1.1,0-1.8,0-2.1,0
	c-0.3,0-0.7-0.2-1.2-0.4c-0.1-0.1-0.3-0.1-0.4-0.1c0,0-0.1,0-0.2-0.1c-0.4-0.2-0.7-0.2-0.7-0.2c-0.1,0-0.1,0.2-0.1,0.5
	c0,0.1,0,0.1,0,0.1c0,0.6,0.1,1.3,0.1,2.2c0,0.9,0,1.4,0,1.5c-0.1,0.2-0.2,0.2-0.3,0.2c-0.1,0-0.4-0.3-0.8-0.7l0,0
	c-0.5-0.5-0.8-0.7-1-0.7c-0.1,0-0.3,0.2-0.6,0.6c-0.3,0.5-0.6,0.7-0.7,0.7c-0.2,0-0.3-0.7-0.3-2c0-1.4,0.1-2.1,0.4-2.3
	c0.3-0.2,0.2-0.4-0.1-0.5c-0.3-0.2-1-0.4-2-0.6c-0.3-0.1-0.4-0.1-0.5,0c0,0,0,0.2,0,0.5c0.2,1.3,0.2,2.5,0.2,3.5
	c0,1-0.1,1.5-0.3,1.7c-0.1,0.1-0.6,0.1-1.5,0.1c-0.8,0-1.4-0.1-1.8-0.2c-0.2,0-0.2,0.2,0.1,0.6l0,0c0.1,0.3,0.2,0.4,0.3,0.5
	c0,0,0.1,0,0.3,0h0c0.4-0.1,0.8-0.2,1.2-0.2c0.4,0,0.7,0,0.9,0c0.1,0.1,0.2,0.2,0.2,0.4c0,0.2,0,0.5-0.1,0.9c-0.7,3.3-1.7,6-3,8.1
	c-0.2,0.3-0.2,0.4-0.3,0.5c0,0.1,0,0.1,0.1,0.2c0.1,0.1,0.4-0.2,1-0.8c0.6-0.6,1.2-1.4,1.7-2.3c0.3-0.5,0.5-0.8,0.7-0.9
	c0.1-0.1,0.2,0,0.3,0.2c0.1,0.2,0.1,1.2,0.1,3c0,1.8-0.1,3.4-0.2,4.7c0,0.6-0.1,1-0.1,1.2c0,0.1,0,0.2,0.1,0.3s0.2,0.2,0.3,0.2
	c0.2,0.1,0.6,0,1-0.1c0.4-0.1,0.7-0.3,0.9-0.5c0.1-0.1,0.1-0.2,0.1-0.3c0-0.1,0-0.5,0-1.2c0-1-0.1-2.8-0.1-5.6c0-2.7,0-4.2,0-4.3
	c0.1-0.2,0.2-0.3,0.3-0.2c0.1,0.1,0.3,0.3,0.4,0.6c0.1,0.2,0.2,0.5,0.4,1c0.1,0.4,0.2,0.6,0.2,0.7c0,0.3,0.2,0.5,0.5,0.6
	c0.4,0.1,0.7,0,0.9-0.2c0.5-0.4,0.5-1.1,0.1-1.8s-1.1-1.4-2.1-2c-0.4-0.2-0.6-0.4-0.6-0.5c-0.1-0.1-0.1-0.4-0.1-0.9c0,0,0,0,0-0.1
	c0-0.5,0.1-0.8,0.2-0.9c0.1-0.1,0.6-0.1,1.5-0.1c0,0,0.1,0,0.1,0c0,0,0.1,0,0.1,0c0.9,0,1.4-0.1,1.5-0.1c0.1-0.1,0.2-0.1,0.2,0
	c0,0,0.1,0.1,0.1,0.3c0,0.1,0,0.9,0,2.2s0,2.2-0.1,2.4c0,0.3-0.1,0.7-0.1,1.2c-0.1,1.6-0.4,3.3-0.8,4.9c-0.4,1.6-1,3-1.7,4.2
	c-0.1,0.2-0.2,0.4-0.2,0.5c0,0.1,0,0.1,0.1,0.1c0.1,0.1,0.5-0.2,1.1-1c0.6-0.7,1.1-1.4,1.5-2.2c0.7-1.2,1.2-2.5,1.5-4
	c0.3-1.5,0.6-3.2,0.7-5.4v0c0-0.7,0.1-1,0.1-1.2c0-0.1,0.1-0.2,0.3-0.3c0.2-0.1,0.3,0,0.4,0.1c0.1,0.1,0.2,0.4,0.2,0.9
	c0.3,2.2,0.9,4.3,1.6,6.2c0.3,0.6,0.4,1,0.3,1.2c0,0.2-0.3,0.6-0.8,1.3c-1.2,1.5-2.6,2.7-4.2,3.7l0,0c-0.2,0.1-0.4,0.2-0.4,0.3
	c0,0,0,0.1,0,0.2c0.1,0.2,0.9,0,2.2-0.8c1.4-0.8,2.4-1.5,3.2-2.2c0.5-0.5,0.9-0.7,1-0.7c0.2,0,0.4,0.3,0.8,0.8
	C121.7,44.8,122.5,45.6,123.3,46.3z M120.6,39.2c-0.3,0.3-0.7,0-1.2-1c-0.5-1-1-2.3-1.4-3.8c0,0,0-0.1,0-0.1
	c-0.1-0.5-0.2-0.8-0.1-0.9c0-0.2,0.2-0.3,0.5-0.3c0.2,0,0.7,0,1.6,0c0.1,0,0.2,0,0.2,0c1.1,0,1.7,0,1.9,0c0.2,0,0.3,0.1,0.4,0.3
	c0.1,0.3-0.1,1.3-0.6,2.9C121.3,37.9,120.9,38.9,120.6,39.2z M141.6,39c0.1,0.2,0.2,0.3,0.4,0.3c0.2,0,0.5-0.2,0.9-0.6
	c0.9-0.7,1.6-1.6,2-2.8c0.4-1.1,0.4-2.1,0.1-2.9c-0.3-0.9-0.9-1.3-1.8-1.2c-0.6,0-1,0.3-1.3,0.7c-0.2,0.4-0.3,0.9-0.1,1.4
	c0.2,0.5,0.5,1,1.1,1.3c0.3,0.2,0.5,0.3,0.6,0.5c0.1,0.1,0.1,0.2,0.1,0.4c-0.1,0.4-0.3,0.8-0.6,1.3c-0.4,0.5-0.8,0.8-1.2,1.2
	c-0.2,0.1-0.3,0.2-0.3,0.3C141.4,38.7,141.5,38.8,141.6,39z M174.9,47.2c0,0.1,0.4,0.1,1.1-0.1c0.7-0.1,1.2-0.3,1.6-0.6
	c0.4-0.3,0.6-0.7,0.7-1.2c0.1-0.2,0.1-2.9,0.1-8.3c0-0.2,0-0.4,0-0.5c0-5.6,0-8.5,0.1-8.5c0.1-0.1,0.2-0.2,0.4-0.2
	c0.2,0,0.6-0.1,1.4-0.1c1.1,0,1.6-0.1,1.7-0.3c0-0.2-0.4-0.7-1.4-1.5c0,0,0,0-0.1-0.1c-0.5-0.4-0.8-0.6-1-0.6
	c-0.1,0-0.4,0.3-0.7,0.7c0,0-0.1,0.1-0.1,0.1c-0.4,0.5-0.7,0.8-0.9,0.9c-0.2,0-2.7,0-7.7,0c-5.2,0-8.3,0-9.3-0.1c-0.2,0-0.3,0-0.3,0
	c0,0,0.1,0.2,0.2,0.6c0,0,0,0.1,0,0.1c0.1,0.2,0.2,0.4,0.3,0.4c0.1,0,0.2,0,0.6,0c0.7-0.1,1.4-0.2,2.1-0.2c0.7,0,2.6,0,5.9,0
	c0.3,0,0.8,0,1.3,0c2.6,0,4.1,0,4.5,0c0.4,0,0.7,0.1,0.8,0.2l0,0c0.1,0.1,0.1,2.8,0.1,8.1c0,5.3,0,8-0.1,8.2
	c-0.1,0.2-0.3,0.3-0.6,0.4c-0.3,0-1.1,0-2.5-0.1c-0.8,0-1.3-0.1-1.4-0.1c-0.1,0-0.2,0.1-0.2,0.1c0,0.1,0.2,0.2,0.5,0.2
	c1.8,0.3,2.8,1,3,2.1l0,0C174.9,47,174.9,47.1,174.9,47.2z M163.2,42.3c0.3,0.2,0.7,0.1,1.3-0.1c0.5-0.3,0.8-0.6,0.8-0.9
	c0,0,0,0,0-0.1c-0.1-0.6-0.1-1,0-1.2c0-0.2,0.2-0.4,0.6-0.4c0.2,0,0.8-0.1,1.7-0.1c0,0,0.1,0,0.1,0c0,0,0.1,0,0.2,0
	c0.8,0,1.3,0,1.5,0c0.3,0,0.5,0.1,0.6,0.3c0,0.1,0.1,0.3,0,0.6v0.1c0,0.5,0.1,0.8,0.4,0.9c0.3,0.1,0.8,0,1.4-0.4l0,0
	c0.3-0.1,0.4-0.2,0.4-0.4s0-0.4,0-1c0-0.6-0.1-1.8-0.1-3.6c0-1.8,0-2.8,0-2.9c0.1-0.3,0.2-0.5,0.5-0.6c0.3-0.1,0.4-0.2,0.3-0.4
	s-0.2-0.4-0.6-0.7c-0.7-0.6-1.1-1-1.3-1.1c-0.2-0.1-0.4,0.1-0.7,0.4c0,0-0.1,0.1-0.1,0.2c-0.2,0.3-0.5,0.5-0.6,0.6
	c-0.2,0-0.7,0.1-1.6,0.1c-0.2,0-0.4,0-0.5,0s-0.3,0-0.5,0c-0.8,0-1.4,0-1.6,0c-0.2,0-0.6-0.2-1.1-0.4c-0.1,0-0.2-0.1-0.2-0.1
	c0,0-0.1-0.1-0.2-0.1c-0.4-0.2-0.7-0.3-0.8-0.3c-0.1,0-0.1,0.2,0,0.5c0,0.1,0,0.1,0,0.1c0.1,1.1,0.2,2.7,0.2,4.6
	c0,1.9,0,3.6-0.1,5.2c0,0.4,0,0.7,0,0.8C163,42.1,163.1,42.2,163.2,42.3z M167.6,38.8c-1.3,0-2,0-2.1-0.1c-0.1-0.1-0.2-0.3-0.3-0.6
	c0-0.3,0-1.2,0-2.6c0-0.2,0-0.5,0-0.9c0-0.8,0-1.3,0-1.6c0.1-0.3,0.2-0.5,0.5-0.6c0.2,0,0.6-0.1,1.2,0c0.3,0,0.5,0,0.7,0
	c0.2,0,0.4,0,0.7,0c0.6,0,1,0,1.2,0c0.2,0.1,0.4,0.3,0.5,0.6c0,0.2,0,0.7,0,1.6c0,0.4,0,0.7,0,0.9c0,1.5,0,2.4,0,2.6
	c0,0.3-0.1,0.5-0.2,0.6C169.6,38.8,168.9,38.8,167.6,38.8z M193.5,47c0,0.1,0.2,0.1,0.5,0c0.3-0.1,0.9-0.3,1.8-0.6
	c2.8-1.1,5.2-2.5,7.1-4.4c0.4-0.4,0.7-0.6,0.8-0.7c0.2-0.1,0.4-0.1,0.6,0.1c0.1,0.1,0.4,0.5,0.9,1.1c0.8,1.1,1.5,2.2,2,3.2
	c0.3,0.5,0.4,0.8,0.5,0.9c0.1,0.1,0.3,0.2,0.6,0.3c0.6,0.1,0.9-0.1,1.2-0.6c0.2-0.5,0.2-1.1-0.1-1.8c-0.5-1.3-1.8-2.6-3.8-3.6
	c-0.5-0.3-0.8-0.5-0.9-0.6c0-0.2,0-0.5,0.3-0.9c0.7-1.3,1.3-2.8,1.6-4.3c0.3-1.5,0.6-3.6,0.7-6.3c0-0.6,0-1,0.1-1.2
	c0.1-0.2,0.2-0.3,0.3-0.4c0.3-0.2,0.3-0.3,0-0.4c-0.3-0.1-1-0.2-2.1-0.4c-0.4,0-0.7-0.1-0.8,0c-0.1,0-0.1,0.1-0.1,0.1
	c0.1,0.3,0.1,1.4,0.1,3.2c-0.1,4.1-0.9,7.5-2.5,10.1c-1.6,2.6-4.3,4.8-8,6.6c-0.5,0.2-0.7,0.4-0.8,0.4
	C193.5,46.9,193.5,46.9,193.5,47z M189.3,45.2c0.1,0.1,0.2,0,0.3-0.1c0.2-0.2,0.4-0.4,0.6-0.5c0.2-0.1,0.8-0.4,1.6-0.9
	c1.8-0.9,3.5-1.8,5.1-2.7c1.6-1,2.5-1.5,2.5-1.6c0-0.1-0.1-0.1-0.3-0.1c-0.2,0-1,0.3-2.3,0.7c-1.4,0.4-2.2,0.7-2.5,0.8
	c-0.3,0.1-0.5,0.1-0.6,0c-0.1-0.1-0.2-0.5-0.2-1.1c0-0.7-0.1-2.7-0.1-5.9c0-0.3,0-0.8,0-1.4c0-1.9,0-3.2,0-3.7c0-0.7,0-1.2,0-1.4
	c0-0.1,0.1-0.3,0.2-0.3l0,0c0.2-0.2,0.2-0.3,0.1-0.4c-0.2-0.1-0.6-0.2-1.2-0.2c-0.9-0.1-1.3-0.1-1.3,0c0,0.1,0,2.6,0.1,7.3
	c0,0.3,0,0.6,0,1.1c0,3.3,0.1,5.3,0.1,5.9c0,0.6,0,0.9-0.1,1c-0.1,0.2-1,0.6-2.5,0.9c-0.4,0.1-0.5,0.1-0.5,0.2c0,0,0.2,0.4,0.5,1.2
	C189.1,44.7,189.3,45.1,189.3,45.2z M199.9,34.9c0.5,0.2,1,0,1.2-0.4c0.3-0.4,0.3-1,0-1.7c-0.5-1.4-1.9-2.6-4.2-3.5
	c-0.5-0.2-0.8-0.3-0.8-0.2c0,0.1,0.1,0.3,0.5,0.7c1.3,1.6,2.1,3,2.6,4.3C199.3,34.6,199.6,34.8,199.9,34.9z M220.8,47.2
	c0,0.1,0.3,0.1,0.8,0c0.5-0.1,0.9-0.2,1.2-0.4c0.5-0.3,0.9-0.8,1.2-1.6c0.3-0.8,0.5-2,0.6-3.5c0-0.4,0.1-0.6,0.2-0.7
	c0.1-0.2,0.2-0.3,0.5-0.4c0.3-0.1,0.4-0.3,0.3-0.4c0,0,0-0.1,0-0.1c0-0.1-0.3-0.3-0.8-0.7c-0.5-0.4-0.9-0.6-1-0.6
	c-0.1,0-0.3,0.2-0.5,0.5c-0.4,0.4-1,0.7-1.8,0.7c-0.7,0-1.1-0.2-1.2-0.6c0-0.1,0-0.5,0.1-1c0.1-0.5,0.2-0.8,0.3-0.9
	c0.2-0.2,0.7-0.3,1.3-0.2c0.7,0.1,1,0.2,1,0.5c0,0.3,0.4,0.4,1.2,0.1c0.4-0.1,0.6-0.2,0.7-0.3c0.1-0.1,0.1-0.4,0.1-0.8
	c-0.1-1.8,0-2.7,0.4-2.7c0.3,0,0.4-0.1,0.3-0.4c-0.1-0.3-0.3-0.6-0.7-1.1c-0.4-0.4-0.6-0.5-0.7-0.6s-0.3,0.1-0.5,0.4
	c-0.2,0.3-0.4,0.5-0.5,0.6c-0.1,0.1-0.4,0.1-0.6,0.1c-0.4,0-0.6-0.1-0.6-0.2s0.1-0.3,0.4-0.6c1.4-1.2,2.4-2.4,3.1-3.6
	c0.5-0.7,0.9-1.1,1-1.1c0.4,0,0.5-0.2,0.4-0.5c-0.2-0.3-0.6-0.8-1.3-1.3c-0.3-0.2-0.5-0.3-0.6-0.3c-0.1,0-0.3,0.2-0.7,0.5
	c-0.4,0.4-1,0.6-2,0.7c-0.9,0.1-2.2,0-3.9-0.1c-0.3,0-0.4,0-0.4,0c0,0,0.1,0.2,0.2,0.6c0,0,0,0.1,0,0.1c0.1,0.2,0.2,0.3,0.3,0.4
	c0.1,0,0.4,0,0.8,0c0.1,0,0.2,0,0.3,0c0.4,0,1-0.1,1.9-0.1c0.8,0,1.3,0,1.5,0c0.2,0.1,0.3,0.2,0.3,0.5c0,0.2-0.3,0.7-0.6,1.3
	c-0.4,0.6-0.6,0.9-0.8,1c-0.2,0.1-0.3,0-0.5-0.3c-0.3-0.6-0.9-1-1.8-1.3c-0.8-0.2-1.2-0.2-1.4-0.2c-0.2,0.1-0.1,0.3,0.3,0.6
	c0.3,0.3,0.6,0.7,0.8,1.1c0.3,0.4,0.4,0.7,0.4,0.8c0,0.1,0,0.1,0.1,0.2c0.1,0.1,0.2,0.1,0.3,0.1c0.3,0.1,0.4,0.2,0.4,0.4
	c0,0.2-0.3,0.5-0.7,0.8c-0.9,0.8-2,1.6-3.1,2.3c0,0-0.1,0-0.1,0.1c-0.2,0.1-0.4,0.2-0.4,0.3c0,0,0,0.1,0,0.1c0.1,0.2,1.1-0.1,3-1.1
	c0.7-0.3,1.4-0.5,2.2-0.6c0.8,0,1.3,0.1,1.4,0.4c0.1,0.1,0.1,0.5,0.1,1.1c0,0.6,0,1-0.1,1.1c-0.1,0.3-0.5,0.4-1,0.4
	c-0.5,0-1.2-0.3-2-0.7c-0.1,0-0.1-0.1-0.2-0.1c-0.4-0.2-0.7-0.3-0.8-0.3c-0.1,0-0.1,0.2-0.1,0.5c0,0,0,0.1,0,0.1
	c0,1.2-0.2,2.7-0.6,4.6c-0.1,0.4-0.1,0.6-0.1,0.6c0,0.1,0.2,0.1,0.4,0.1c0.4,0.1,0.8,0.1,1,0s0.4-0.2,0.5-0.4
	c0.1-0.3,0.2-0.4,0.4-0.5c0.2-0.1,0.6-0.1,1.2-0.1c0.7,0,1.1,0.1,1.2,0.2c0.1,0.1,0.1,0.6,0,1.4c-0.1,1-0.3,1.7-0.4,2.1
	c-0.2,0.4-0.5,0.7-0.8,0.8c-0.3,0.1-0.9,0.1-1.8,0c-0.6,0-0.9-0.1-1-0.1c-0.1,0-0.2,0-0.2,0.1c0,0.1,0.2,0.3,0.6,0.4
	c1.1,0.3,1.7,0.8,1.8,1.6C220.7,47,220.8,47.1,220.8,47.2z M223.9,47.1c0.2,0.1,0.8,0,2-0.4c1.2-0.4,2.3-0.8,3.2-1.2
	c0.1,0,0.2-0.1,0.3-0.1c0.5-0.2,0.8-0.4,0.9-0.3c0.2,0,0.5,0.2,1,0.5c0.1,0,0.1,0.1,0.2,0.1c1,0.6,2.1,1,3.5,1.4
	c0.3,0.1,0.5,0.1,0.6,0.1c0.1,0,0.1-0.1,0.2-0.3c0.3-0.8,0.7-1.3,1.3-1.7c0.3-0.1,0.4-0.2,0.3-0.3c-0.1-0.1-0.3-0.1-0.8-0.2
	c-1.1-0.1-2-0.3-2.8-0.5c-0.8-0.2-1.2-0.4-1.3-0.6c0-0.1,0-0.2,0-0.3c0.1-0.1,0.2-0.3,0.5-0.6c0.6-0.7,1-1.3,1.2-1.7
	c0.1-0.1,0.2-0.3,0.3-0.4c0.1-0.1,0.3-0.2,0.4-0.2c0.2-0.1,0.3-0.2,0.3-0.3c0-0.1-0.2-0.4-0.6-0.8c-0.4-0.4-0.6-0.7-0.6-0.8
	c0-0.1,0.3-0.2,0.9-0.3c0.6-0.1,1-0.2,1.2-0.3c0.2-0.1,0.4-0.3,0.4-0.6s0-0.5-0.2-0.7c-0.2-0.2-0.4-0.6-0.4-1c0-0.7-0.2-0.7-0.5,0
	c-0.2,0.4-0.5,0.8-0.9,1c-0.4,0.2-0.9,0.2-1.3-0.1c-0.2-0.1-0.3-0.5-0.4-1.1c0-0.7,0-1.1,0.1-1.3c0.2-0.3,0.4-0.4,0.6-0.4
	c0.2,0,0.7,0.2,1.2,0.6c0.8,0.4,1.2,0.6,1.3,0.6c0,0,0.1-0.1,0.2-0.3c0.1-0.3,0.3-0.6,0.6-0.9c0.3-0.3,0.5-0.5,0.8-0.6
	s0.4-0.2,0.3-0.3c-0.1-0.1-0.4-0.2-0.9-0.4c-1.6-0.6-2.6-1-3-1.3s-0.2-0.6,0.5-1c0.1,0,0.2-0.1,0.4-0.2c0.4-0.2,0.7-0.4,0.8-0.5
	c0.4-0.3,0.7-0.4,0.8-0.4c0.3,0,0.4-0.1,0.2-0.4c-0.2-0.2-0.7-0.6-1.5-1.2c0,0,0,0-0.1,0c-0.2-0.1-0.3-0.2-0.4-0.2
	c-0.1,0-0.2,0.2-0.3,0.5c0,0,0,0.1,0,0.1c-0.6,1.2-1.1,1.9-1.4,2.1s-0.8,0-1.4-0.5c-0.5-0.4-0.7-0.6-0.7-0.8c0-0.2,0.3-0.4,0.9-0.7
	c0.5-0.3,0.9-0.5,1.1-0.6c0.6-0.4,1-0.6,1.1-0.6c0.4,0,0.4-0.1,0.3-0.3c-0.2-0.2-0.6-0.6-1.4-1.2c-0.3-0.2-0.5-0.3-0.6-0.3
	c-0.1,0-0.2,0.2-0.3,0.5c-0.3,0.6-0.6,1.1-1,1.6c-0.4,0.5-0.7,0.7-0.8,0.7c-0.2,0-0.5-0.2-0.8-0.6c-0.4-0.4-0.7-1-1.1-1.7
	c-0.2-0.3-0.3-0.5-0.3-0.5c0,0-0.1-0.1-0.1,0c-0.3,0.1,0,1,0.7,2.5c0.8,1.5,1.5,2.7,2.3,3.5c0.4,0.4,0.5,0.7,0.6,0.9
	c0,0.2-0.1,0.4-0.5,0.7c-0.3,0.3-0.7,0.4-1.1,0.4c-0.4,0-1-0.2-1.7-0.6c-0.7-0.4-1.1-0.5-1.1-0.5c0,0,0,0.6,0,1.8
	c0,1.4-0.1,2.4-0.3,3c-0.2,0.6-0.5,1.2-1.1,1.8c-0.3,0.4-0.4,0.6-0.2,0.6c0.2,0,0.5-0.1,0.9-0.3c0.5-0.3,0.9-0.6,1.2-1
	c0.8-0.8,1.2-1.8,1.3-3.1c0-0.5,0.1-0.8,0.2-0.9c0.1-0.1,0.4-0.2,0.8-0.2c0.4,0,0.6,0,0.7,0.1c0.1,0.1,0.2,0.3,0.3,0.6
	c0,0.2,0,0.7,0,1.4c0,1.1,0.1,1.8,0.2,2.1c0.1,0.3,0.4,0.4,1,0.5c0.4,0.1,0.6,0.2,0.6,0.3c0.1,0.1,0,0.3-0.3,0.5
	c-0.3,0.2-1,0.4-2.2,0.4c-1.2,0-2.6,0-4.1-0.2c-0.2,0-0.3,0.1-0.2,0.2c0,0.1,0.1,0.2,0.1,0.3c0,0.1,0,0.2,0.1,0.2
	c0.1,0,0.1,0.1,0.2,0.2c0,0.1,0.1,0.1,0.1,0.1c0,0,0.1,0,0.1,0c0.5-0.3,0.8-0.1,1.2,0.6c0.3,0.7,0.7,1.4,1,1.9
	c0.2,0.3,0.4,0.6,0.4,0.7s0.1,0.2,0,0.3c-0.1,0.3-0.6,0.7-1.6,1.3c-0.9,0.6-1.9,1-2.9,1.4c-0.4,0.1-0.6,0.2-0.6,0.3
	C223.8,46.9,223.8,47,223.9,47.1z M230.4,42.5c-0.2,0.1-0.3,0.1-0.5,0c-0.2-0.1-0.4-0.3-0.8-0.7c-0.8-0.8-1.1-1.2-1-1.4
	c0.1-0.2,0.7-0.3,1.9-0.3c0.8,0,1.3,0,1.4,0.1c0.2,0,0.2,0.1,0.2,0.3c0,0.2-0.2,0.5-0.5,1C230.8,42.1,230.5,42.4,230.4,42.5z
	 M245.9,47.2c0.2,0.1,0.4,0.1,0.8,0c0.4-0.1,0.6-0.2,0.8-0.3c0.2-0.1,0.3-0.2,0.3-0.3c0-0.1,0.1-0.2,0-0.5c0-0.4,0-0.8,0.2-0.9
	c0.1-0.1,2.3-0.1,6.6-0.1c4.3,0,6.5,0,6.6,0.1c0.1,0.1,0.2,0.2,0.3,0.3c0,0.1,0,0.4,0,0.7c0,0.5,0.1,0.7,0.3,0.8
	c0.2,0.1,0.6,0.1,1.1-0.1c0.5-0.2,0.8-0.3,0.9-0.5c0.1-0.1,0.1-0.5,0.1-1.1c-0.2-4.4-0.2-6.8,0.2-7.1c0.2-0.2,0.2-0.3-0.1-0.5
	c-0.3-0.1-0.8-0.3-1.8-0.6c-0.4-0.1-0.7-0.2-0.8-0.2c-0.1,0-0.1,0.1-0.1,0.2c0.1,0.8,0.2,2.1,0.2,3.9c0,1.8,0,2.8-0.1,3
	c-0.1,0.1-0.3,0.2-0.5,0.3c-0.2,0-1,0-2.3,0c-0.3,0-0.6,0-1,0c-0.7,0-1.2,0-1.4-0.1c-0.3-0.1-0.4-0.4-0.5-0.8c0-0.3-0.1-1,0-2.2
	c0-0.7,0-1.2,0-1.6s0-0.9,0-1.6c0-1.2,0-2,0-2.3c0.1-0.4,0.2-0.7,0.4-0.8c0.2-0.1,0.5-0.1,1.2-0.1c0.3,0,0.6,0,0.8,0
	c0.9,0,1.4,0,1.7,0c0.3,0,0.5,0.1,0.6,0.2c0.1,0.1,0.1,0.2,0,0.5c0,0.4,0.2,0.5,0.6,0.6c0.4,0,0.9-0.1,1.4-0.4l0,0
	c0.1-0.1,0.2-0.2,0.2-0.3c0-0.1,0-0.6,0-1.4V34c-0.1-2.1-0.1-3.5-0.1-4.2c0-0.7,0.1-1.2,0.3-1.3c0.2-0.2,0.2-0.3-0.1-0.5
	c-0.3-0.1-0.9-0.3-1.8-0.6c0,0-0.1,0-0.1,0c-0.4-0.1-0.6-0.1-0.6-0.1c0,0-0.1,0.2,0,0.5c0,0,0,0.1,0,0.1c0.1,1,0.2,2.2,0.2,3.6
	c0,1.4,0,2.2-0.1,2.4c-0.1,0.1-0.2,0.2-0.4,0.3c-0.2,0-0.8,0-1.9,0c-0.2,0-0.4,0-0.8,0c-0.6,0-1,0-1.2-0.1c-0.2-0.1-0.4-0.3-0.4-0.7
	c0-0.3-0.1-0.9,0-1.9c0-0.5,0-0.9,0-1.2c0-1.9,0-3,0-3.4c0-0.3,0.1-0.6,0.3-0.7c0.2-0.1,0.2-0.3-0.1-0.5c-0.3-0.2-1-0.4-1.9-0.6
	c0,0-0.1,0-0.1,0c-0.4-0.1-0.6-0.1-0.6-0.1c0,0-0.1,0.2,0,0.5c0,0,0,0.1,0,0.1c0.1,1,0.2,2.5,0.2,4.7c0,2.2,0,3.3-0.1,3.5
	c-0.1,0.2-0.2,0.3-0.4,0.3c-0.2,0-0.8,0-1.8,0c-0.2,0-0.4,0-0.7,0c-0.6,0-1,0-1.2,0c-0.2-0.1-0.4-0.3-0.4-0.6c0-0.2-0.1-0.7,0-1.5
	c0-0.3,0-0.6,0-0.8c0-1.3,0-2.1,0-2.4c0-0.3,0.1-0.4,0.3-0.6c0.2-0.1,0.2-0.3-0.1-0.5c-0.3-0.2-0.9-0.4-1.9-0.6
	c-0.3-0.1-0.5-0.1-0.6-0.1c-0.1,0-0.1,0-0.1,0.1c0.1,0.4,0.2,1.5,0.2,3.4c0,1.9,0,3.5-0.1,4.8c0,0.4,0,0.6,0.2,0.7
	c0.2,0.1,0.5,0.1,0.9,0c0.7-0.1,1.1-0.4,1.1-0.8c0-0.2,0.1-0.4,0.3-0.5c0.1-0.1,0.8-0.1,2-0.1c1.2,0,1.9,0,2,0.1
	c0.1,0.1,0.2,0.3,0.2,0.7c0,0.4,0,1.7,0,4c0,0.4,0,0.9,0,1.6c0,1.2,0,1.9,0,2.2c-0.1,0.4-0.2,0.7-0.5,0.8c-0.2,0.1-0.6,0.1-1.3,0.1
	c-0.4,0-0.7,0-1,0c-0.2,0-0.5,0-0.9,0c-0.7,0-1.2,0-1.4,0c-0.3-0.1-0.4-0.2-0.5-0.6c0-0.2-0.1-0.7,0-1.5c0-0.4,0-0.8,0-1
	c0-1.4,0-2.3,0-2.5c0-0.3,0.1-0.4,0.3-0.5c0.3-0.1,0.2-0.3-0.1-0.5c-0.3-0.2-1-0.4-2-0.6c-0.3-0.1-0.5-0.1-0.5-0.1c0,0,0,0.2,0,0.4
	v0.1c0.1,0.8,0.2,2.2,0.2,4.2c0,2,0,3.4,0,4.3c0,0.4,0,0.7,0,0.8C245.6,47,245.7,47.1,245.9,47.2z M279.4,47.1
	c0.1,0.1,0.3,0,0.6-0.2c1.1-0.9,2.1-2,2.8-3.5c0.3-0.5,0.5-0.8,0.6-0.8c0.1,0,0.3,0.2,0.6,0.7c0.5,1.1,1.1,1.9,1.9,2.4
	c0.8,0.5,1.8,0.8,3.1,0.9c0.5,0,1.3,0,2.2,0s1.4,0,1.4,0c0,0,0.1-0.2,0.1-0.5c0.1-0.6,0.3-1,0.6-1.1c0.2-0.2,0.4-0.3,0.4-0.3
	c0,0-0.2-0.1-0.6-0.1c-0.3,0-0.9,0-2,0c-0.2,0-0.5,0-0.9,0c-0.8,0-1.3,0-1.5-0.1c-0.3-0.1-0.5-0.2-0.6-0.5c0-0.2-0.1-0.7,0-1.4
	c0-0.4,0-0.6,0-0.8s0-0.5,0-0.8c0-0.7,0-1.2,0-1.4c0-0.3,0.2-0.4,0.4-0.5c0.2,0,0.6-0.1,1.2-0.1c0.3,0,0.6,0,0.8,0c1.1,0,1.8,0,2,0
	c0.2,0,0.3-0.1,0.4-0.2c0.1-0.1,0-0.2,0-0.3c-0.1-0.1-0.3-0.4-0.6-0.7c-0.6-0.6-1-0.9-1.2-0.9c-0.2,0-0.4,0.2-0.7,0.6
	c-0.3,0.4-0.5,0.7-0.6,0.8c-0.2,0.1-0.4,0.1-0.7,0.1c-0.3,0-0.5,0-0.6-0.1c-0.1-0.1-0.2-0.3-0.2-0.6c0-0.3,0-0.9,0-1.8
	c0,0,0-0.1,0-0.2c0-0.9,0-1.4,0-1.7c0-0.3,0.1-0.5,0.3-0.6c0.1-0.1,0.3-0.1,0.7-0.1c0,0,0.1,0,0.1,0c0.5,0,0.8,0.1,0.9,0.3
	c0.1,0.2,0,0.7-0.3,1.5c-0.2,0.6-0.3,1-0.3,1.1c0,0.1,0.2,0.1,0.5-0.1c0.2-0.2,0.7-0.7,1.5-1.4c0.7-0.6,1.1-1,1.3-1
	c0.4,0,0.5-0.2,0.3-0.5c-0.2-0.4-0.6-0.8-1.2-1.3c-0.3-0.2-0.4-0.3-0.5-0.3c-0.1,0-0.3,0.2-0.6,0.5c0,0-0.1,0.1-0.1,0.1
	c-0.2,0.2-0.5,0.4-0.7,0.4c-0.2,0-1,0-2.2,0c-0.3,0-0.5,0-0.6,0c-1.7,0-2.8,0-3.3,0c-0.7,0-1-0.1-1.1-0.3c0-0.1,0.1-0.4,0.5-0.8
	c0.1-0.1,0.2-0.3,0.4-0.6c0.1-0.1,0.1-0.2,0.2-0.2c0.3-0.4,0.5-0.7,0.7-0.7c0.1,0,1.4-0.1,4-0.1c0.2,0,0.3,0,0.4,0
	c2.2,0,3.4,0,3.8,0c0.4,0,0.6-0.1,0.7-0.2c0.1-0.1,0-0.4-0.4-0.8c-0.3-0.4-0.8-0.8-1.3-1.2c-0.3-0.2-0.4-0.2-0.6-0.2
	c-0.1,0-0.3,0.3-0.6,0.8c0,0,0,0.1-0.1,0.1c-0.3,0.4-0.5,0.6-0.7,0.7c-0.2,0.1-0.8,0.1-1.9,0.1c-0.1,0-0.3,0-0.3,0
	c-0.1,0-0.2,0-0.4,0c-0.8,0-1.3,0-1.5,0c-0.3,0-0.4-0.2-0.4-0.3c0-0.1,0.1-0.4,0.3-0.8c0-0.1,0.1-0.1,0.1-0.2
	c0.1-0.1,0.1-0.3,0.2-0.5l0.1-0.3c0-0.1,0.1-0.2,0.2-0.3c0.1-0.2,0.3-0.3,0.4-0.3c0.3-0.1,0.3-0.3,0-0.4c-0.2-0.2-0.8-0.4-1.8-0.7
	c-0.5-0.2-0.8-0.3-0.9-0.3c-0.1,0-0.1,0.1-0.1,0.3c0,0.5-0.1,1.2-0.4,2.4c-0.3,1.1-0.5,1.8-0.6,2c-0.1,0.2-0.3,0.3-0.4,0.2
	c-0.2-0.1-0.5-0.4-1.1-0.9c0,0-0.1-0.1-0.2-0.2c-0.4-0.3-0.6-0.5-0.7-0.5c-0.1,0-0.2,0.1-0.4,0.4c0,0.1-0.1,0.1-0.1,0.2
	c-0.7,1.1-1.3,1.3-1.7,0.8c-0.1-0.2-0.2-0.8-0.1-1.7c0.1-0.9,0.2-1.4,0.3-1.6c0.2-0.2,0.2-0.3,0-0.5c-0.2-0.1-0.8-0.3-1.8-0.6
	c0,0-0.1,0-0.1,0c-0.4-0.1-0.6-0.2-0.7-0.1c0,0-0.1,0.2,0,0.5c0,0,0,0.1,0,0.1c0.1,0.8,0.2,1.6,0.2,2.4c0,0.8,0,1.3-0.1,1.4
	c-0.2,0.3-1.1,0.4-2.8,0.2c-0.5,0-0.7-0.1-0.8-0.1c-0.1,0-0.1,0.2,0.1,0.6c0.1,0.2,0.2,0.4,0.2,0.4c0.1,0,0.2,0,0.5-0.1
	c0,0,0.1,0,0.1,0c0.6-0.2,0.9-0.2,1.1-0.2c0.2,0,0.4,0.2,0.5,0.6c0.1,0.3,0.1,0.9,0.1,1.8c0,3.3-0.2,6-0.6,8.1c-0.4,2.1-1.1,4-2,5.5
	c-0.1,0.2-0.2,0.4-0.2,0.5c0,0.1,0,0.2,0.1,0.2c0.1,0.1,0.1,0.1,0.2,0.1c0.1,0,0.3-0.2,0.7-0.7c0.4-0.5,0.7-0.9,1-1.2
	c0.4-0.6,0.7-0.9,0.8-0.7c0,0,0.2,0.1,0.6,0.2c0.4,0.1,0.7,0.3,0.9,0.5c0.2,0.2,0.3,0.6,0.4,1c0,0.3,0.1,0.4,0.2,0.4
	c0.1,0,0.4,0,0.8-0.1c0.8-0.2,1.3-0.6,1.7-1.2c0.4-0.7,0.8-1.7,1-3.1c0.2-1.3,0.4-3.3,0.5-5.8c0-0.6,0.1-1,0.1-1.2s0.2-0.3,0.5-0.4
	c0.2-0.1,0.3-0.2,0.3-0.3c0-0.1-0.1-0.2-0.3-0.5c-0.1-0.1-0.3-0.3-0.4-0.5c-0.1-0.1-0.2-0.2-0.5-0.4c-0.1-0.1-0.3-0.2-0.6-0.3
	c-0.2-0.1-0.3-0.1-0.4-0.1c-0.1,0-0.2,0.2-0.5,0.5c-0.3,0.3-0.5,0.5-0.6,0.6c-0.1,0.1-0.4,0.1-0.7,0.1c-0.5,0-0.7-0.1-0.8-0.2
	c-0.1-0.1-0.1-0.6-0.1-1.3c0-0.1,0-0.3,0-0.5c0-0.6,0-1,0.1-1.1c0.1-0.2,0.3-0.4,0.6-0.4c0.2,0,0.7,0,1.5,0c0.2,0,0.4,0,0.6,0
	c1.1,0,1.8,0,2.1,0.1c0.4,0.1,0.5,0.3,0.4,0.6c0,0.2-0.3,0.7-0.8,1.5c-0.2,0.3-0.3,0.4-0.3,0.5c0,0.1,0,0.1,0,0.2c0.1,0,0.2,0,0.2,0
	c0.1,0,0.2-0.1,0.4-0.3c0.2-0.2,0.4-0.2,0.6-0.2c0.2,0,0.3,0.2,0.4,0.4c0.1,0.2,0.2,0.2,0.2,0.3c0.1,0,0.3,0,0.6-0.1
	c1.6-0.3,2.5-0.3,2.7,0.1c0,0.1,0.1,1.6,0.1,4.5c0,2.9,0,4.6,0,4.9c0,0.4-0.2,0.5-0.5,0.5c-0.3-0.1-0.6-0.4-1-1
	c-0.4-0.5-0.6-0.9-0.6-1.2s0-0.8,0.1-1.4c0.1-0.3,0.2-0.9,0.3-1.6c0.1-0.5,0.1-0.8,0.2-1c0.1-0.2,0.2-0.3,0.3-0.4
	c0.4-0.3-0.2-0.5-1.9-0.6c-0.3,0-0.5,0-0.6,0c0,0-0.1,0.2-0.1,0.6c0,2.2-0.2,4-0.6,5.4c-0.4,1.4-1,2.8-1.9,4.1
	C279.4,46.8,279.3,47,279.4,47.1z M276.3,44.3c-0.4,0-0.6,0-0.7,0l-0.3,0c-0.1,0-0.3,0-0.3,0c-0.4,0-0.6-0.1-0.6-0.2
	c0-0.1,0.1-0.5,0.4-1.2c0.8-1.7,1.3-4,1.6-6.7c0.1-0.7,0.2-1.1,0.3-1.2c0.1-0.1,0.4-0.2,0.9-0.2c0.4,0,0.7,0,0.8,0.1
	c0.1,0.1,0.2,0.4,0.2,0.9c0,0.3,0,1.1-0.1,2.4c-0.1,2.1-0.3,3.5-0.5,4.4c-0.2,0.9-0.5,1.4-0.9,1.6C277,44.2,276.7,44.2,276.3,44.3z
	 M311.5,47.1c0.2,0.1,0.4,0.2,0.8,0.1c0.4-0.1,0.8-0.2,1.1-0.5c0.1-0.1,0.2-0.3,0.2-0.4c0-0.1,0-0.6,0-1.3c0-0.1,0-0.3,0-0.6
	c0-0.5,0-0.9,0-1c0.1-0.2,0.3-0.3,0.7-0.4c0.3,0,0.9,0,1.9,0c0.5,0,0.8,0,1.1,0c1.7,0,2.8,0,3.1,0c0.3,0,0.5-0.1,0.6-0.2
	c0.1-0.2-0.3-0.7-1.3-1.6c-0.4-0.4-0.7-0.5-0.9-0.5c-0.1,0-0.4,0.3-0.7,0.7l0,0c0,0,0,0.1-0.1,0.1c-0.3,0.4-0.5,0.6-0.7,0.6
	c-0.2,0.1-0.7,0.1-1.5,0.1c-0.1,0-0.2,0-0.3,0c-0.1,0-0.2,0-0.3,0c-0.7,0-1.1,0-1.2,0c-0.3,0-0.4-0.2-0.5-0.3c0-0.1-0.1-0.4-0.1-0.9
	c0-0.1,0-0.2,0-0.2c0-0.1,0-0.2,0-0.4c0-0.4,0-0.7,0.1-0.8c0.1-0.2,0.3-0.3,0.6-0.3c0.3,0,0.9,0,1.8,0c0.4,0,0.6,0,0.8,0
	c1.2,0,1.9,0,2.3,0c0.4,0,0.7,0,0.8-0.1c0.1,0,0.1-0.1,0.1-0.2c0-0.1-0.2-0.4-0.7-0.9c-0.5-0.5-0.9-0.8-1.2-0.9
	c-0.1-0.1-0.2-0.1-0.3,0c-0.1,0-0.3,0.3-0.5,0.6c0,0,0,0.1-0.1,0.1c-0.3,0.4-0.5,0.6-0.6,0.7c-0.1,0.1-0.5,0.1-1.1,0.1
	c-0.1,0-0.2,0-0.2,0c0,0,0,0-0.1,0c-0.8,0-1.3-0.1-1.5-0.2c-0.1-0.1-0.2-0.5-0.2-1.2v-0.1c0-0.6,0.1-1,0.2-1.1s0.5-0.2,1.2-0.2
	c0.6,0,1,0,1.2,0.1c0.2,0.1,0.3,0.2,0.3,0.4c0,0.1,0,0.2,0.1,0.3c0.1,0,0.3,0,0.6-0.1c0.6-0.1,1-0.3,1.2-0.5
	c0.2-0.2,0.2-0.6,0.2-1.2c-0.1-1-0.1-1.7,0-1.9c0-0.4,0.2-0.6,0.4-0.7c0.2-0.1,0.5-0.1,1.1-0.1c0.8,0,1.2-0.1,1.2-0.3
	c0.1-0.2-0.2-0.7-0.9-1.3c-0.3-0.3-0.5-0.4-0.6-0.4c-0.1,0-0.2,0.1-0.4,0.4c-0.3,0.4-0.5,0.6-0.7,0.6c-0.1-0.1-0.2-0.4-0.2-1
	c0-0.4,0-0.7,0.1-0.9c0.1-0.2,0.2-0.3,0.4-0.4c0.3-0.1,0.4-0.3,0.3-0.5c-0.1-0.2-0.3-0.5-0.8-0.9c-0.6-0.5-1-0.7-1.1-0.7
	c-0.2,0-0.4,0.1-0.7,0.5c-0.4,0.4-0.9,0.7-1.8,0.7c-0.8,0-1.3-0.1-1.4-0.5c-0.1-0.2-0.1-0.5,0-0.8c0.1-0.3,0.2-0.5,0.4-0.6
	c0.2-0.1,0.2-0.3,0-0.4c-0.2-0.2-0.8-0.4-1.6-0.6c-0.5-0.1-0.8-0.2-0.9-0.2s-0.1,0.1-0.1,0.2c0,0.2,0.1,0.6,0.1,1.2c0,0.6,0,1,0,1.1
	c-0.1,0.5-1.4,0.6-3.9,0.4c-0.4,0-0.6,0-0.6,0c0,0,0,0.2,0.2,0.5c0.1,0.3,0.2,0.4,0.3,0.5c0.1,0,0.2,0.1,0.3,0
	c0.6-0.1,1.4-0.2,2.4-0.3c0.7,0,1.1,0,1.2,0.2c0.1,0.1,0.2,0.5,0.2,1.3c0,0.1,0,0.2,0,0.3c0,0.4,0,0.7-0.1,0.8
	c0,0.2-0.2,0.3-0.5,0.3c-0.2,0-0.6,0-1.3,0c-0.2,0-0.3,0-0.4,0c-1,0-1.5,0-1.7,0c-0.2,0-0.3-0.1-0.4-0.2c-0.1-0.1-0.6-0.4-1.5-0.9
	c-0.9-0.5-1.4-0.7-1.4-0.7c-0.1,0-0.1,0.2-0.2,0.5c-0.3,1.2-0.8,2.4-1.5,3.8c-0.7,1.4-1.5,2.7-2.4,3.8c-0.2,0.3-0.4,0.5-0.4,0.6
	c0,0.1,0,0.2,0,0.2c0.1,0.1,0.7-0.3,1.7-1.2c0.4-0.4,0.7-0.6,0.8-0.6c0.1,0,0.2,0,0.3,0.2c0.1,0.2,0.1,1.3,0.1,3.4
	c0,2.1-0.1,3.8-0.2,5.2c0,0.6-0.1,1-0.1,1.2c0,0.1,0,0.2,0.1,0.3c0.1,0.1,0.2,0.2,0.3,0.2c0.3,0,0.6,0,1-0.1
	c0.4-0.1,0.7-0.3,0.9-0.5c0.1-0.1,0.1-0.2,0.1-0.2s0-0.3,0-0.7c-0.1-2.1-0.1-4.5-0.1-7.3c0-1.7,0-2.7,0-3c0-0.3,0.1-0.5,0.3-0.6
	c0.3-0.2,0.4-0.3,0.1-0.4c-0.3-0.1-0.4-0.2-0.3-0.4s0.3-0.5,0.6-1.1c0,0,0.1-0.1,0.1-0.1c0.2-0.3,0.4-0.4,0.6-0.5
	c0.2,0,0.9-0.1,2-0.1c0.2,0,0.4,0,0.5,0c0.2,0,0.4,0,0.7,0c0.8,0,1.4,0,1.6,0c0.3,0,0.5,0.1,0.6,0.3c0,0.1,0.1,0.4,0.1,0.8
	c0,0.1,0,0.3,0,0.3c0,0.1,0,0.1,0,0.2c0,0.5,0,0.8,0,0.9c-0.1,0.2-0.2,0.3-0.5,0.3c-0.2,0-0.6,0-1.2,0c-0.1,0-0.2,0-0.3,0
	c-0.7,0-1.4,0-2.1-0.1c-0.4,0-0.6,0-0.6,0c0,0,0,0.2,0.2,0.5c0,0,0,0,0,0.1c0.1,0.3,0.2,0.4,0.3,0.4c0.1,0,0.2,0,0.4,0
	c0.5-0.1,1.2-0.2,2-0.2c0.8,0,1.3,0,1.4,0c0.2,0.1,0.4,0.6,0.4,1.3c0,0.7-0.1,1.2-0.3,1.3c-0.1,0.1-0.7,0.1-1.8,0.1
	c-1.1,0-2.1-0.1-2.9-0.1c-0.2,0-0.3,0-0.3,0c0,0,0.1,0.2,0.2,0.6c0.1,0.3,0.2,0.4,0.3,0.4c0.1,0,0.2,0,0.4,0h0.1
	c0.7-0.1,1.5-0.2,2.4-0.2c0.9,0,1.5,0,1.6,0c0.2,0.1,0.3,0.5,0.4,1.2c0.1,0.7,0,1.1-0.1,1.4c-0.1,0.2-0.7,0.3-1.8,0.4
	c-1.1,0-2.3,0-3.7-0.2c-0.3,0-0.4,0-0.5,0c0,0,0.1,0.2,0.2,0.5c0,0,0,0,0,0.1c0.1,0.2,0.2,0.4,0.3,0.4c0.1,0,0.3,0,0.6,0
	c0.1,0,0.1,0,0.2,0c0.8-0.1,1.8-0.2,2.7-0.2c1,0,1.6,0,1.7,0.1c0.2,0.1,0.3,0.3,0.3,0.7c0,0.4,0,1.1,0,2.2c0,0.5,0,0.9,0,1
	C311.4,46.9,311.4,47,311.5,47.1z M315,35.1c-0.7,0-1,0-1.2-0.1c-0.2-0.1-0.3-0.5-0.3-1.2c0-0.7,0-1.2,0.1-1.3
	c0.2-0.2,0.6-0.3,1.3-0.3c0.7,0,1.2,0.1,1.3,0.3c0.1,0.2,0.2,0.6,0.1,1.3c0,0.7-0.1,1.1-0.3,1.2C316.1,35.1,315.7,35.1,315,35.1z
	 M299.7,31.7c0.1,0.1,0.8-0.2,1.8-1c1.1-0.8,2.1-1.8,3.2-2.8c0.5-0.5,0.9-0.9,1-1c0.1-0.1,0.2-0.2,0.4-0.2c0.3,0,0.3-0.1,0.3-0.2
	c-0.1-0.1-0.3-0.3-0.7-0.5c-0.1,0-0.3-0.1-0.5-0.3c-0.3-0.2-0.5-0.3-0.7-0.4c-0.4-0.2-0.6-0.3-0.7-0.4c-0.1,0-0.1,0-0.2,0.2
	c-0.2,0.8-0.7,1.7-1.3,2.9c-0.7,1.2-1.4,2.2-2.2,3.1C299.8,31.4,299.7,31.6,299.7,31.7z M315,31.5c-0.7,0-1,0-1.2-0.1
	c-0.2-0.1-0.3-0.5-0.3-1.2c0-0.7,0-1.1,0.1-1.3c0.2-0.2,0.6-0.3,1.3-0.3c0.7,0,1.2,0.1,1.3,0.3c0.1,0.2,0.2,0.6,0.1,1.3
	c0,0.7-0.1,1.1-0.3,1.2C316.1,31.4,315.7,31.5,315,31.5z M36.1,71.2c0.2,0.1,0.4,0.1,0.7,0c0.3,0,0.6-0.1,0.9-0.2l0,0
	c0.2-0.1,0.3-0.2,0.4-0.3c0-0.1,0-0.4,0-0.9c0-0.1,0-0.1,0-0.2c0-0.7,0-1.1,0.1-1.3c0.1-0.1,0.4-0.3,1-0.4h0
	c1.3-0.2,2.1-0.3,2.4-0.4c0.3-0.1,0.4-0.2,0.4-0.3c0-0.1-0.1-0.1-0.2-0.1c-0.1,0-0.6,0-1.5,0h0c-0.2,0-0.4,0-0.6,0c-0.6,0-1,0-1.2,0
	c-0.2-0.1-0.4-0.2-0.4-0.6c0-0.2-0.1-0.7,0-1.6c0-0.4,0-0.7,0-0.9c0-0.2,0-0.5,0-0.9c0-0.8,0-1.3,0-1.5c0-0.3,0.2-0.5,0.4-0.6
	c0.1,0,0.5-0.1,1-0.1c0.2,0,0.4,0,0.6,0c1,0,1.5,0,1.7-0.1c0.2-0.1,0.1-0.2-0.1-0.5c-0.3-0.3-0.3-0.7-0.1-1.2
	c0.2-0.5,0.5-0.9,0.9-1.1c0.4-0.2,0.4-0.4-0.2-0.4c-2.2-0.2-3.2-0.4-3.2-0.8c0-0.1,0.2-0.5,0.7-1c0.5-0.5,0.8-0.8,1-0.9
	c0.2,0,0.3-0.1,0.3-0.2s-0.1-0.3-0.3-0.5c-0.2-0.2-0.3-0.4-0.2-0.5c0.1-0.1,0.3-0.2,0.6-0.2c0.4-0.1,0.7-0.1,0.8-0.2
	c0.2-0.1,0.3-0.2,0.4-0.3c0.1-0.2,0.1-0.3,0.1-0.5c0-0.2-0.1-0.3-0.2-0.4c-0.2-0.1-0.4-0.4-0.4-0.9c0-0.3-0.1-0.5-0.1-0.5
	c-0.1,0-0.2,0.1-0.3,0.4c-0.1,0.4-0.3,0.6-0.4,0.7c-0.2,0.1-0.4,0.2-0.7,0.2c-0.5,0-0.8-0.2-0.8-0.6c-0.1-0.4,0.1-0.7,0.6-1
	c0.3-0.2,0-0.6-0.8-1.3C39,49.1,38.7,49,38.6,49c-0.1,0-0.3,0.2-0.6,0.5c-0.4,0.4-0.8,0.7-1.3,0.7c-0.5,0-1.2-0.2-2.1-0.6
	c-0.1,0-0.2-0.1-0.3-0.1c-0.4-0.2-0.6-0.3-0.7-0.2c0,0-0.1,0.3-0.1,0.7c0,0.1,0,0.3,0,0.3c0,1-0.1,1.8-0.3,2.3
	c-0.2,0.5-0.5,1-1.1,1.4c-0.2,0.1-0.2,0.2-0.2,0.4s0.1,0.2,0.3,0.1c0.2,0,0.4,0.1,0.6,0.5c0.1,0.1,0.1,0.2,0.2,0.3
	c0,0,0.1,0,0.2-0.1c0.1-0.1,0.3-0.1,0.5,0c0.2,0.1,0.4,0.3,0.6,0.6c0.2,0.3,0.5,0.7,1,1.2c0.2,0.3,0.1,0.7-0.6,1.1
	c-0.6,0.4-1.5,0.8-2.8,1.2c-0.4,0.1-0.6,0.2-0.6,0.3c-0.1,0,0,0.1,0.1,0.2c0.1,0.1,0.7,0,1.8-0.3c1.1-0.3,2-0.6,2.7-0.9
	c0.4-0.2,0.7-0.3,0.9-0.3c0.2,0,0.6,0.2,1.2,0.4c0.6,0.3,1,0.5,1.1,0.7c0.1,0.2,0,0.4-0.3,0.7c-0.1,0.1-0.5,0.2-1.1,0.2
	s-2.6,0-6.1,0c-0.1,0-0.4,0-0.6,0c-2.5,0-4.1,0-4.9,0c-1.2,0-2,0-2.5-0.1c-0.4-0.1-0.7-0.2-0.7-0.3c0-0.1,0.1-0.2,0.3-0.5
	c0,0,0.1-0.1,0.1-0.1c0.3-0.4,0.5-0.6,0.6-0.8c0,0,0-0.1,0.1-0.1c0.2-0.3,0.4-0.5,0.6-0.6c0.2,0,0.9-0.1,1.9-0.1c0.2,0,0.3,0,0.5,0
	c0.9,0,1.5,0,1.8,0c0.4,0,0.6,0.1,0.7,0.1c0.1,0.1,0.1,0.2,0.1,0.4c0,0.2,0.1,0.3,0.2,0.3c0.2,0,0.4,0,0.9-0.2
	c0.4-0.1,0.6-0.2,0.7-0.4c0.1-0.1,0.1-0.5,0.1-1.1c0,0,0-0.1,0-0.1c0-0.7,0-1.1,0-1.2c0-0.1,0.1-0.3,0.3-0.4l0,0
	c0.2-0.1,0.3-0.3,0.3-0.4s-0.3-0.4-0.6-0.7c-0.5-0.5-0.6-0.8-0.1-0.8c0.3-0.1,0.5-0.2,0.4-0.4c0-0.2-0.2-0.5-0.6-0.9
	c-0.4-0.4-0.6-0.6-0.6-0.7c0-0.1,0.3-0.2,0.9-0.2c0.6,0,0.9-0.2,0.9-0.4c0-0.3-0.4-0.6-1.1-1.2c-0.3-0.3-0.5-0.4-0.6-0.4
	s-0.3,0.2-0.5,0.5c-0.3,0.4-0.5,0.6-0.7,0.7c-0.2,0.1-0.5,0.1-0.8,0c-0.2,0-0.3-0.1-0.4-0.2c0-0.1,0-0.3,0.1-0.4
	c0.2-0.1,0.1-0.3-0.1-0.4s-0.8-0.3-1.7-0.6c0,0-0.1,0-0.1,0c-0.3-0.1-0.4-0.1-0.5,0c0,0,0,0.2,0,0.5c0,0.1,0,0.1,0,0.1
	c0,0.4,0,0.7-0.2,0.9c-0.1,0.2-0.5,0.2-0.9,0.3c-0.4,0-1.2,0-2.3-0.1c-0.4,0-0.7,0-0.8,0c-0.1,0-0.2,0-0.2,0.1
	c0,0.1,0.1,0.2,0.2,0.5c0,0,0,0.1,0.1,0.1c0.1,0.2,0.2,0.3,0.3,0.3c0.1,0,0.3,0,0.6-0.1c0.1,0,0.1,0,0.2,0c0.5-0.1,1-0.1,1.6-0.1
	c0.6,0,1,0,1.1,0.1c0.2,0.1,0.3,0.4,0.3,0.7c0,0.3-0.1,0.5-0.3,0.6c-0.1,0.1-0.6,0.1-1.5,0.1c-0.9,0-1.5-0.1-1.7-0.1
	c-0.2,0-0.1,0.1,0,0.5c0.4,0.8,0.4,2,0.2,3.6c-0.2,1.6-0.6,2.7-1.2,3.4c-0.1,0.2-0.2,0.3-0.2,0.4c0,0.1,0.2,0.1,0.4,0
	c0.3-0.1,0.5,0,0.7,0.4c0.1,0.2,0.2,0.3,0.3,0.3c0.1,0,0.2,0,0.5,0c0.6-0.2,1.2-0.2,1.8-0.2c0.5,0,0.9,0.1,1,0.3
	c0.1,0.1,0.1,1.1,0.1,3c0,1.9,0,2.9-0.1,3c-0.1,0.1-0.4,0.2-0.8,0.3c-0.4,0-1.3,0.1-2.7,0.1c0,0-0.1,0-0.2,0c-0.3,0-0.4,0-0.4,0.1
	c0,0.1,0.1,0.4,0.3,0.8c0,0.1,0.1,0.3,0.1,0.3c0,0.1,0.1,0.2,0.1,0.3c0.2,0.6,0.4,0.9,0.4,1c0.1,0.1,0.2,0.1,0.3,0
	c0,0,0.1-0.1,0.1-0.1c0.2-0.1,0.5-0.2,0.8-0.3c0.4-0.1,1.4-0.2,3.2-0.4c3-0.3,5.6-0.6,7.5-0.9c0.6-0.1,1,0,1.1,0.1
	C36,68.8,36,69.3,36,70c0,0.5,0,0.8,0,0.9C36,71.1,36,71.2,36.1,71.2z M29.4,67.6c-0.4,0-0.7,0-0.8,0c-0.1,0-0.1-0.1-0.2-0.1
	c-0.2,0-0.3-0.2-0.2-0.7c0.1-0.5,0.2-0.7,0.4-0.8c0.1-0.1,1.3-0.1,3.6-0.1s3.4,0,3.6,0.1c0.2,0.1,0.3,0.3,0.4,0.6s-0.1,0.5-0.3,0.7
	c-0.1,0.1-1.3,0.2-3.6,0.2c-0.4,0-0.9,0-1.7,0C29.9,67.6,29.5,67.6,29.4,67.6z M32.1,65.2c-2.3,0-3.5,0-3.7-0.1
	c-0.2-0.1-0.3-0.4-0.3-0.7c0-0.4,0.2-0.6,0.4-0.7c0.1,0,1.3-0.1,3.6-0.1c2.3,0,3.4,0,3.6,0.1c0.2,0.1,0.4,0.3,0.4,0.7
	c0,0.4-0.1,0.6-0.3,0.7C35.6,65.2,34.4,65.2,32.1,65.2z M32.1,62.9c-2.3,0-3.5,0-3.7-0.1c-0.2-0.1-0.3-0.4-0.3-0.8
	c0-0.4,0.2-0.7,0.4-0.8c0.1-0.1,1.3-0.1,3.6-0.1c2.3,0,3.5,0,3.6,0.1c0.2,0.1,0.3,0.4,0.3,0.8c0,0.4-0.1,0.6-0.3,0.8
	C35.6,62.8,34.4,62.9,32.1,62.9z M29.1,57.3c-0.4,0.2-0.7,0.2-1,0c-0.3-0.2-0.4-0.5-0.4-0.9c0-0.4,0.1-0.8,0.4-0.9
	c0.3-0.2,0.6-0.2,1,0c0.3,0.1,0.4,0.4,0.4,0.9C29.5,56.9,29.4,57.2,29.1,57.3z M25.8,57.3c-0.2,0.1-0.4,0.1-0.7,0.1
	c-0.3,0-0.5-0.1-0.5-0.3c0-0.1-0.1-0.3-0.1-0.6c0-0.4,0-0.6,0.1-0.7c0.1-0.2,0.2-0.3,0.5-0.3c0.3-0.1,0.5,0,0.7,0.1
	c0.2,0.1,0.4,0.4,0.4,0.9C26.1,56.8,26,57.1,25.8,57.3z M36.9,56.5c-0.3,0.1-0.7,0-1.2-0.4c-0.5-0.4-0.7-0.7-0.6-0.9
	c0.1-0.1,0.5-0.2,1.2-0.2c0.8,0,1.2,0,1.3,0.2c0.1,0.1,0.1,0.3,0,0.6C37.4,56.2,37.2,56.4,36.9,56.5z M27,54.7c-1.4,0-2.1,0-2.3-0.1
	c-0.6-0.2-0.9-0.4-0.9-0.6c0-0.2,0.2-0.3,0.7-0.4c0.3,0,1.2-0.1,2.6-0.1s2.3,0,2.4,0c0.2,0.1,0.3,0.2,0.2,0.5
	c-0.1,0.2-0.2,0.4-0.5,0.6C29.1,54.7,28.3,54.7,27,54.7z M36.3,54.4c-1.1,0-1.8,0-2,0c-0.3,0-0.5-0.1-0.5-0.3c0-0.1,0.1-0.3,0.4-0.6
	c0.7-0.6,1.2-1.3,1.3-2.1c0-0.3,0.2-0.5,0.3-0.6s0.5-0.1,0.9-0.1c0.5,0,0.8,0.1,0.9,0.2c0.1,0.1,0.2,0.5,0.2,1.1
	c0,0.6,0.1,0.9,0.1,1.1c0,0.2,0.1,0.3,0.3,0.5c0.4,0.4,0.3,0.6-0.1,0.8C38,54.4,37.4,54.4,36.3,54.4z M29,52.7
	c-0.3,0.2-0.6,0.2-0.8-0.1c-0.2-0.3-0.3-0.6-0.1-0.9c0.1-0.2,0.4-0.3,0.9-0.4c0.5,0,0.8,0,0.9,0.2c0,0.1,0,0.3-0.2,0.6
	C29.3,52.5,29.1,52.7,29,52.7z M53.4,71.2c0.3,0.2,0.7,0.1,1.3-0.1c0.6-0.2,0.8-0.5,0.8-0.8c0,0,0-0.1,0-0.2c0-0.2,0-0.4,0.1-0.5
	c0.1-0.1,0.4-0.2,1-0.2c0.4,0,1.2,0,2.6,0c0.3,0,0.5,0,0.7,0c0.2,0,0.5,0,0.9,0c1.3,0,2.1,0,2.5,0c0.5,0,0.8,0.1,0.9,0.2
	c0.1,0.1,0.1,0.3,0.1,0.5c0,0.1,0,0.1,0,0.2c0,0.4,0,0.6,0.2,0.7c0.2,0.1,0.5,0.1,1-0.1c0.6-0.2,0.9-0.4,1-0.6
	c0.1-0.2,0.2-0.7,0.1-1.5c-0.2-4.8-0.1-7.2,0.4-7.2c0,0,0.1,0,0.3-0.1c0.1-0.1,0.2-0.2,0.2-0.2c0-0.1-0.2-0.3-0.7-0.7
	c-0.5-0.4-0.9-0.7-1.2-0.9c-0.1-0.1-0.3-0.1-0.4,0s-0.3,0.2-0.6,0.5c0,0-0.1,0.1-0.1,0.2c-0.2,0.2-0.5,0.4-0.7,0.4
	c-0.3,0-1.2,0-2.8,0c-0.5,0-0.9,0-1.2,0c-0.3,0-0.7,0-1.2,0c-1.5,0-2.4,0-2.7,0c-0.3,0-0.7-0.2-1.2-0.4c-0.2-0.1-0.3-0.1-0.5-0.2
	c0,0-0.1,0-0.2-0.1c-0.5-0.2-0.7-0.3-0.8-0.3s-0.1,0.2,0,0.5c0,0.1,0,0.1,0,0.1c0.1,1.1,0.2,2.6,0.2,4.5c0,1.9,0,3.6-0.1,5.1
	c0,0.4,0,0.7,0,0.8C53.2,71,53.2,71.1,53.4,71.2z M63.9,68.7c-0.1,0.1-1.5,0.1-4,0.1c-2.6,0-3.9,0-4-0.1c-0.2-0.1-0.3-0.2-0.3-0.4
	c0-0.2,0-0.6,0-1.2c0-0.1,0-0.3,0-0.5c0-0.4,0-0.7,0.1-0.9c0.1-0.2,0.4-0.3,0.8-0.3c0.3,0,1.1,0,2.3,0c0.5,0,0.9,0,1.2,0
	c0.3,0,0.7,0,1.2,0c1.2,0,1.9,0,2.3,0c0.4,0,0.7,0.2,0.8,0.3c0.1,0.1,0.1,0.4,0.1,0.9c0,0.2,0,0.4,0,0.5c0,0.7,0,1.1,0,1.3
	C64.2,68.5,64.1,68.6,63.9,68.7z M59.9,64.8c-2.6,0-4,0-4.1-0.1c-0.1-0.1-0.2-0.2-0.2-0.4c0-0.2,0-0.6,0-1.2c0-0.1,0-0.2,0-0.4
	c0-0.4,0-0.7,0.1-0.8c0.1-0.1,0.4-0.2,0.8-0.3c0.3,0,1.1,0,2.3,0c0.5,0,0.9,0,1.2,0c0.3,0,0.7,0,1.2,0c1.2,0,1.9,0,2.3,0
	c0.4,0,0.7,0.1,0.8,0.3c0.1,0.1,0.1,0.4,0.1,0.8c0,0.2,0,0.3,0,0.4c0,0.6,0,1,0,1.2c0,0.2-0.1,0.3-0.2,0.4
	C63.9,64.7,62.5,64.8,59.9,64.8z M49.9,58.5c0.1,0,0.1,0.1,0.2,0c0,0,0.1,0,0.2,0c0.7-0.1,1.2-0.2,1.5-0.2c0.3,0,3.4-0.1,9.4-0.1
	c0.4,0,0.9,0,1.6,0c2.8,0,4.6,0,5.3,0c1,0,1.7,0,2-0.1c0.2,0,0.3-0.1,0.3-0.2c0,0,0-0.1,0-0.1c0-0.1-0.1-0.3-0.5-0.6
	c-0.3-0.3-0.7-0.7-1.2-1l0,0c-0.4-0.3-0.6-0.4-0.7-0.4c-0.1,0-0.3,0.2-0.6,0.7c0,0-0.1,0.1-0.1,0.1c0,0-0.1,0.1-0.1,0.2
	c-0.3,0.4-0.5,0.6-0.7,0.6c-0.2,0.1-0.6,0.1-1.4,0.1c-0.2,0-0.3,0-0.4,0c-0.9,0-1.4,0-1.6,0c-0.3,0-0.4-0.2-0.3-0.3
	c0-0.1,0.3-0.4,0.7-0.8c0.2-0.2,0.6-0.6,1.2-1.3c0,0,0.1-0.1,0.1-0.1c0.4-0.5,0.6-0.7,0.7-0.8c0.1-0.1,0.2-0.2,0.3-0.2
	c0.2-0.1,0.3-0.1,0.3-0.2s-0.2-0.2-0.5-0.3c-0.6-0.3-0.8-0.5-0.6-0.6c0.2-0.1,1-0.1,2.4-0.1c1.1,0,1.8,0,2,0c0.2,0,0.3-0.1,0.4-0.2
	c0.1-0.2-0.3-0.7-1.3-1.4l0,0c-0.5-0.4-0.8-0.6-1-0.6c-0.1,0-0.4,0.3-0.7,0.7l0,0c0,0-0.1,0.1-0.1,0.2c-0.2,0.4-0.5,0.6-0.7,0.6
	c-0.2,0-0.8,0.1-1.8,0.1c-0.2,0-0.4,0-0.5,0c-1.1,0-1.7,0-1.9,0c-0.2,0-0.3-0.1-0.4-0.1c-0.2-0.2-0.2-0.5-0.2-0.9
	c0-0.4,0.2-0.7,0.4-0.9c0.2-0.2,0.2-0.3-0.1-0.4c-0.2-0.1-0.8-0.3-1.7-0.5c0,0-0.1,0-0.2,0C58.9,49,58.7,49,58.6,49
	c-0.1,0-0.1,0.2-0.1,0.5c0,0.1,0,0.1,0,0.1c0,0.1,0,0.3,0,0.5c0,0.7,0,1.1,0,1.3c-0.1,0.3-0.3,0.4-0.6,0.5c-0.3,0-0.9,0-1.9,0
	c-0.3,0-0.5,0-0.7,0c-2.2,0-3.8,0-4.7-0.1c-0.2,0-0.3,0-0.4,0c0,0,0.1,0.2,0.2,0.5c0,0,0,0,0,0.1c0.1,0.2,0.2,0.4,0.3,0.4
	c0.1,0,0.3,0,0.5,0c0.1,0,0.1,0,0.2,0c2-0.3,2.9-0.3,2.9,0c0,0.1,0.1,0.3,0.2,0.6c0.4,0.8,0.7,1.6,0.9,2.4c0.2,0.9,0.3,1.4,0.1,1.5
	c-0.1,0.1-0.9,0.1-2.4,0.1c-1.5,0-2.7,0-3.6-0.1c-0.2,0-0.4,0-0.4,0c0,0,0.1,0.2,0.2,0.5C49.7,58.3,49.8,58.4,49.9,58.5z M61.3,57.5
	c-0.2,0.1-0.8,0.1-1.9,0.1c-1.1,0-1.6-0.1-1.7-0.1c-0.1-0.1-0.1-0.1-0.1-0.2c0-0.1,0-0.2,0.1-0.4c0.2-0.5,0.2-1.1-0.1-1.7
	c-0.3-0.6-0.7-1.1-1.4-1.6l0,0c-0.5-0.3-0.8-0.6-0.8-0.6c0-0.1,0.2-0.2,0.7-0.2c0.4,0,1.4,0,2.9,0c0.2,0,0.4,0,0.7,0
	c1.2,0,2,0,2.3,0c0.4,0,0.7,0.1,0.8,0.2c0,0.1,0,0.3,0,0.6c0,0.1,0,0.1,0,0.1c-0.3,1-0.5,1.8-0.8,2.6C61.7,57,61.4,57.4,61.3,57.5z
	 M87.2,63.4c1.1,0.1,2-0.2,2.8-1c0.8-0.8,1.1-1.7,1-2.8c-0.1-0.9-0.5-1.6-1.2-2.2c-0.6-0.5-1.4-0.8-2.2-0.8c-0.9,0-1.6,0.3-2.3,0.9
	c-0.7,0.6-1,1.4-1.1,2.3c0,0.8,0.2,1.6,0.7,2.3C85.6,62.9,86.3,63.3,87.2,63.4z M88.6,62.5c-0.8,0.3-1.6,0.2-2.3-0.3
	s-1.1-1.2-1.1-2.1c0-0.7,0.2-1.3,0.7-1.8c0.5-0.5,1.1-0.7,1.7-0.7c0.7,0,1.3,0.2,1.8,0.7c0.7,0.6,0.9,1.4,0.7,2.3
	C90,61.5,89.4,62.1,88.6,62.5z"/>
</svg>
