<?xml version="1.0" encoding="utf-8"?>
<!-- Generator: Adobe Illustrator 24.2.3, SVG Export Plug-In . SVG Version: 6.00 Build 0)  -->
<svg version="1.1" id="Layer_1" xmlns="http://www.w3.org/2000/svg" xmlns:xlink="http://www.w3.org/1999/xlink" x="0px" y="0px"
	 viewBox="0 0 352 219" style="enable-background:new 0 0 352 219;" xml:space="preserve">
<style type="text/css">
	.st0{clip-path:url(#SVGID_2_);}
	.st1{fill:none;stroke:#D6D2C7;stroke-width:1.3;stroke-miterlimit:10;stroke-dasharray:9.31,9.31;}
	.st2{fill:#D6D2C7;}
</style>
<g>
	<defs>
		<rect id="SVGID_1_" width="351.3" height="218.1"/>
	</defs>
	<clipPath id="SVGID_2_">
		<use xlink:href="#SVGID_1_"  style="overflow:visible;"/>
	</clipPath>
	<g class="st0">
		<path class="st1" d="M350.6,0.6H0.6v216.8h350V0.6z"/>
	</g>
</g>
<path class="st2" d="M21.2,47.2c0.1,0.1,0.2,0.1,0.2,0c0.1,0,0.3-0.2,0.6-0.5c2.2-2.3,3.6-5.6,4.1-9.7c0-0.1,0-0.2,0-0.3
	c0.1-0.9,0.2-1.4,0.3-1.5c0.1-0.1,0.4-0.2,0.9-0.2c0.1,0,0.1,0,0.2,0c0,0,0.1,0,0.1,0c0.4,0,0.7,0,0.8,0.1c0.2,0.1,0.3,0.3,0.3,0.7
	c0,0.3,0,1,0,2c0,0.2,0,0.3,0,0.4c-0.1,2.1-0.2,3.6-0.3,4.4c-0.2,0.9-0.4,1.5-0.8,1.8c-0.3,0.2-0.9,0.3-1.7,0.3c0,0-0.1,0-0.2,0
	c-0.5,0-0.8,0-0.9,0c-0.1,0-0.1,0.1-0.1,0.2c0,0.1,0.1,0.1,0.2,0.2l0,0c0.6,0.2,1,0.4,1.3,0.7c0.3,0.3,0.4,0.7,0.4,1.1
	c0,0.2,0,0.3,0.1,0.3c0.1,0,0.2,0.1,0.4,0c0.9-0.1,1.6-0.4,2.1-0.9c0.5-0.5,0.8-1.5,1.1-2.9c0.2-1.3,0.4-3.3,0.5-6c0,0,0,0,0-0.1
	c0-1,0.1-1.6,0.1-1.6c0.1-0.2,0.3-0.3,0.5-0.5c0.2-0.1,0.3-0.2,0.2-0.3c0-0.1,0-0.2,0.1-0.3c0.1-0.1,0.4-0.5,0.9-0.9
	c1.6-1.6,2.9-3.4,3.8-5.3c0.3-0.6,0.5-0.9,0.6-1c0.1-0.1,0.3,0.1,0.4,0.4c0.9,3.2,2.1,5.6,3.7,7.3c0.2,0.2,0.3,0.3,0.3,0.2
	c0,0,0.1-0.1,0.2-0.3c0.1-0.3,0.3-0.6,0.5-0.9c0.3-0.3,0.5-0.5,0.8-0.6c0.2-0.1,0.3-0.2,0.3-0.3S43,33,42.7,32.8
	c-0.9-0.6-1.8-1.4-2.8-2.5c-0.9-1-1.5-1.9-2-2.7c-0.4-0.9-0.5-1.4-0.1-1.5c0.2-0.1,0.2-0.2-0.1-0.4c-0.3-0.1-0.9-0.3-1.8-0.6
	c-0.1,0-0.2,0-0.3-0.1c-0.4-0.1-0.6-0.1-0.7-0.1c-0.1,0-0.1,0.1-0.1,0.4c0,0.1,0,0.1,0,0.1c-0.2,2.1-1.2,4.6-3,7.4
	c-0.4,0.6-0.7,1-0.9,1c-0.2,0.1-0.5-0.1-0.9-0.4c0,0-0.1-0.1-0.1-0.1c-0.2-0.1-0.3-0.2-0.3-0.2c0,0-0.2,0.1-0.4,0.3
	c-0.1,0.1-0.1,0.1-0.1,0.1c-0.3,0.3-0.5,0.5-0.7,0.6c-0.2,0.1-0.5,0.1-1,0.1c-0.4,0-0.7,0-0.8-0.1c-0.2-0.1-0.3-0.3-0.3-0.6
	c0-0.2,0-0.8,0-1.7c0-0.1,0-0.2,0-0.3c0-0.4,0.1-0.6,0.1-0.7c0.1-0.1,0.3-0.2,0.6-0.3c0.2,0,0.8,0,1.7,0c0.3,0,0.5,0,0.7,0
	c1.3,0,2.1-0.1,2.5-0.1c0.4-0.1,0.6-0.3,0.4-0.6c-0.2-0.2-0.7-0.7-1.5-1.4l0,0c-0.3-0.3-0.5-0.4-0.6-0.3c-0.1,0-0.3,0.3-0.6,0.8
	c-0.3,0.5-0.6,0.8-0.8,0.9c-0.2,0.1-0.5,0.1-0.8,0c-0.2-0.1-0.4-0.7-0.4-1.6c0-1,0.1-1.6,0.3-1.8c0.2-0.2,0.2-0.3,0-0.5
	c-0.2-0.1-0.8-0.3-1.8-0.6c-0.5-0.1-0.8-0.2-0.8-0.2c-0.1,0-0.1,0.1-0.1,0.2c0.1,0.7,0.1,1.5,0.2,2.4c0,1,0,1.5,0,1.6
	c-0.1,0.2-0.4,0.3-1,0.4c-0.5,0-1.6,0-3-0.1c-0.1,0-0.1,0-0.1,0.1c0,0.1,0.1,0.2,0.2,0.5c0.1,0.2,0.2,0.4,0.3,0.4c0.1,0,0.2,0,0.4,0
	c0.5-0.2,0.9-0.2,1.3-0.2c0.4,0,0.7,0.1,0.8,0.3c0.1,0.2,0.1,1.2,0.1,3.1c0,1.9-0.2,3.4-0.3,4.7c-0.4,3.1-1.2,5.7-2.6,7.8
	c-0.1,0.2-0.2,0.4-0.2,0.5S21.1,47.1,21.2,47.2z M33.9,47.1c0,0,0.1,0,0.2-0.1c0.1-0.1,0.2-0.2,0.2-0.3c0-0.1,0.7-0.6,2.2-1.6
	c2.7-1.8,4.6-3.1,5.5-3.9c1-0.8,0.9-1-0.2-0.4c-4.5,2.1-7.6,3.4-9.3,4c-0.1,0,0,0.3,0.4,0.9C33.2,46.2,33.6,46.7,33.9,47.1z
	 M37.1,38.8c0.3,0.1,0.6,0.2,0.9,0c0.3-0.1,0.5-0.3,0.6-0.6c0.2-0.8-0.1-1.6-0.9-2.3c-0.8-0.8-1.9-1.3-3.3-1.6
	c-0.4-0.1-0.6-0.1-0.6,0c0,0.1,0.2,0.3,0.6,0.6c1.1,1.1,1.9,2.2,2.4,3.4C36.9,38.6,37,38.8,37.1,38.8z M52.9,45.4
	c2.5,0,3.8,0,3.8-0.1c0.1,0,0.1-0.2,0.1-0.4c0-0.2,0-0.4-0.1-0.4l-0.2,0c-0.3,0-0.6-0.1-0.8-0.1c-0.1,0-0.2,0-0.4,0
	c-0.4,0-0.7-0.1-0.8-0.2c-0.1-0.1-0.2-0.4-0.3-0.8c0-0.3,0-1,0-2c0-0.4,0-0.7,0-0.9c0-0.3,0-0.7,0-1.2c0-0.9,0-1.5,0-1.8
	c0-0.4,0.2-0.6,0.4-0.6c0.1-0.1,0.5-0.1,1-0.1c0.3,0,0.5,0,0.6,0c0.1,0,0.2,0,0.3,0c0.8,0,1.3,0.1,1.5,0.2c0.1,0.1,0.3,0.5,0.4,1.1
	c0,0.1,0,0.2,0,0.3c0,0,0,0.1,0,0.2c0,0.5,0.1,0.8,0.1,0.8c0,0.1,0.2,0.1,0.4,0.1c0,0,0.1,0,0.1,0c0,0,0.1,0,0.2,0
	c0.1,0,0.2,0,0.3-0.1c0.1-0.1,0.1-0.2,0.1-0.6c0-0.2,0-0.7,0-1.6c0-0.4,0-0.7,0-0.9c0-0.2,0-0.4,0-0.7c0-0.9,0-1.5,0-1.8
	c0-0.3,0-0.5-0.1-0.6c0-0.1-0.1-0.1-0.3-0.1c-0.1,0-0.1,0-0.2,0h0c-0.2,0-0.4,0-0.4,0.1c0,0.1-0.1,0.4-0.1,0.8c0,0,0,0.1,0,0.1
	c0,0.1,0,0.2,0,0.3c-0.1,0.7-0.2,1-0.4,1.2c-0.1,0.1-0.6,0.1-1.5,0.1c-0.1,0-0.3,0-0.3,0c-0.1,0-0.3,0-0.6,0c-0.5,0-0.9,0-1-0.1
	c-0.2-0.1-0.3-0.3-0.4-0.6c0-0.2-0.1-0.8,0-1.8c0-0.4,0-0.8,0-1c0-0.3,0-0.7,0-1.2c0-0.9,0-1.5,0-1.8c0.1-0.3,0.2-0.5,0.5-0.6
	c0.2-0.1,0.7-0.1,1.4-0.1c0.4,0,0.7,0,0.9,0c0.2,0,0.5,0,0.9,0c0.8,0,1.4,0,1.6,0c0.3,0,0.5,0.2,0.7,0.4c0.1,0.1,0.2,0.5,0.3,1.1
	c0,0.3,0.1,0.5,0.1,0.6c0,0.1,0,0.2,0.1,0.3c0.1,0.6,0.2,0.9,0.3,1c0.1,0.1,0.2,0.1,0.5,0.1c0,0,0.1,0,0.1,0c0.3,0,0.5,0,0.6,0
	c0.1,0,0.1-0.1,0.1-0.3c0,0,0-0.3,0-0.8c0-0.6,0-1,0-1.4c0-1.4-0.1-2-0.1-2.1c0,0-2.2-0.1-6.6-0.1c-4.3,0-6.5,0-6.6,0
	c-0.1,0.2-0.2,0.3,0,0.5c0.1,0.2,0.3,0.3,0.5,0.3c0.7,0.1,1.2,0.1,1.4,0.2c0.2,0.1,0.4,0.2,0.5,0.4c0,0.1,0.1,2,0.1,5.7
	c0,3.7,0,6.3,0,7.7c0,0,0,0.1,0,0.1c0,0.8-0.1,1.2-0.2,1.4c-0.1,0.1-0.5,0.2-1.1,0.3c-0.1,0-0.1,0-0.1,0c-0.6,0.1-0.9,0.1-0.9,0.2
	c0,0-0.1,0.2-0.1,0.4c0,0.2,0,0.3,0.1,0.3C49.1,45.4,50.4,45.4,52.9,45.4z M77.1,45.4c0.3,0,0.9,0,2,0c0.4,0,0.8,0,1,0
	c0.2,0,0.6,0,1,0c1,0,1.7,0,2,0c0.4,0,0.6,0,0.7-0.1c0.1,0,0.1-0.1,0.1-0.2c0,0,0-0.1,0-0.1c0,0,0-0.1,0-0.1c0-0.1,0-0.2-0.1-0.3
	c-0.1,0-0.3-0.1-0.7-0.1c-0.1,0-0.2,0-0.2,0c0,0-0.1,0-0.2,0c-0.4,0-0.7-0.1-0.9-0.3c-0.3-0.3-0.7-0.9-1.3-1.8
	c-0.4-0.7-1.3-2.3-2.8-4.8c-0.3-0.5-0.5-0.9-0.6-1.2c-0.3-0.4-0.3-0.8-0.2-1.1c0-0.1,0.6-1,1.8-2.8c1.2-1.8,1.8-2.8,2-3.1
	c0.2-0.2,0.3-0.4,0.5-0.5c0.2-0.1,0.6-0.2,1.2-0.2c0,0,0.1,0,0.1,0c0.4-0.1,0.7-0.1,0.8-0.1c0.1,0,0.1-0.2,0.1-0.4c0,0,0,0,0-0.1
	c0-0.1,0-0.2-0.1-0.2c-0.1,0-0.3-0.1-0.7-0.1c-0.2,0-0.8,0-1.8,0c-0.2,0-0.4,0-0.5,0c-1.1,0-1.7,0-2,0c-0.4,0-0.7,0-0.8,0.1
	c-0.1,0-0.1,0.1-0.1,0.3v0c0,0.2,0,0.3,0.1,0.3c0.1,0,0.3,0.1,0.6,0.1c0,0,0.1,0,0.1,0c0,0,0.1,0,0.1,0c0.5,0.1,0.8,0.1,0.9,0.2
	c0.1,0.1,0.1,0.4-0.1,0.7c-0.1,0.3-0.5,0.9-1,1.8c-0.1,0.2-0.2,0.3-0.2,0.4c-0.6,0.9-0.9,1.5-1.1,1.8c-0.2,0.4-0.4,0.6-0.6,0.6
	c-0.1,0.1-0.2,0-0.3-0.1c-0.1,0-0.5-0.7-1.2-2c-0.8-1.3-1.3-2.2-1.5-2.7c-0.2-0.3-0.2-0.5,0-0.6c0.1-0.1,0.5-0.2,1.1-0.3
	c0,0,0.1,0,0.2,0c0.4,0,0.6-0.1,0.6-0.1c0.1,0,0.1-0.1,0.1-0.3v-0.1c0-0.1-0.1-0.2-0.1-0.3c-0.1-0.1-0.5-0.1-1-0.1
	c-0.4,0-1.2,0-2.6,0c-0.3,0-0.6,0-1.1,0c-1,0-1.7,0-2,0c-0.4,0-0.6,0-0.7,0.1c-0.1,0-0.1,0.1-0.1,0.2c0,0,0,0.1,0,0.1
	c0,0.2,0,0.3,0.1,0.4c0.1,0,0.3,0.1,0.6,0.1c0.6,0.1,1.1,0.1,1.2,0.2c0.2,0.1,0.4,0.2,0.5,0.5c0.2,0.3,0.9,1.5,2.1,3.7
	c1.3,2.2,1.9,3.4,2,3.6l0,0c0.1,0.2,0.1,0.3,0.1,0.4c0,0.2-0.2,0.5-0.5,0.9c-0.2,0.3-0.6,1-1.4,2.1c-0.1,0.2-0.2,0.4-0.3,0.5
	c-0.2,0.3-0.4,0.6-0.7,1c-0.6,1-1,1.6-1.2,1.9c-0.3,0.4-0.5,0.6-0.7,0.7c-0.1,0.1-0.4,0.1-0.7,0.2c-0.2,0-0.3,0-0.4,0
	c-0.6,0.1-0.9,0.1-0.9,0.2c0,0.1-0.1,0.2-0.1,0.4c0,0.2,0,0.3,0.1,0.3c0,0,1,0.1,2.9,0.1c0.1,0,0.3,0,0.5,0c0.9,0,1.5,0,1.8,0
	c0.3,0,0.6,0,0.6-0.1c0,0,0.1-0.1,0.1-0.2c0,0,0-0.1,0-0.1c0-0.2,0-0.3-0.1-0.4c-0.1,0-0.3-0.1-0.7-0.2c0,0-0.1,0-0.2,0
	c-0.5-0.1-0.7-0.1-0.8-0.2c-0.1-0.1-0.1-0.4,0.1-0.7c0.1-0.3,0.5-0.9,1.1-1.9c0.1-0.2,0.2-0.4,0.3-0.5c0.7-1.2,1.1-1.9,1.3-2.2
	c0.3-0.4,0.5-0.7,0.6-0.7c0.1,0,0.2,0,0.4,0.2c0.1,0.1,0.6,1,1.6,2.7c1,1.7,1.5,2.6,1.5,2.7c0.1,0.3,0,0.4-0.1,0.5
	c-0.1,0.1-0.5,0.2-1.2,0.2c-0.4,0-0.6,0.1-0.7,0.1c-0.1,0-0.1,0.2-0.1,0.4c0,0,0,0.1,0,0.1c0,0.1,0,0.2,0.1,0.2
	C76.5,45.3,76.7,45.4,77.1,45.4z M105.1,47.3c0.1,0.1,0.3,0.1,0.8,0s0.8-0.2,1.2-0.4c0.6-0.3,1.1-0.8,1.5-1.6
	c0.4-0.8,0.6-2.1,0.8-3.8c0.2-1.6,0.3-3.9,0.4-7c0-0.2,0-0.4,0-0.8c0-1.6,0.1-2.5,0.1-2.7c0-0.3,0.2-0.5,0.4-0.6c0,0,0.1,0,0.1,0
	c0.2-0.1,0.3-0.2,0.4-0.2c0-0.1,0-0.1,0-0.2c-0.1-0.2-0.4-0.5-0.8-0.9c-0.5-0.4-0.8-0.7-1-0.8c-0.1-0.1-0.2-0.1-0.3,0
	c-0.1,0-0.2,0.2-0.5,0.5c0,0-0.1,0.1-0.1,0.1c-0.3,0.3-0.5,0.5-0.7,0.6c-0.2,0-0.7,0.1-1.4,0.1c-0.2,0-0.3,0-0.4,0
	c-0.1,0-0.2,0-0.3,0c-0.7,0-1.2,0-1.3,0c-0.3,0-0.4-0.2-0.4-0.3c0-0.1,0.1-0.4,0.3-0.9c0-0.1,0.1-0.1,0.1-0.2
	c0.3-0.7,0.5-1.1,0.6-1.3c0.1-0.2,0.2-0.3,0.4-0.4c0.3-0.1,0.2-0.3-0.1-0.5c-0.4-0.2-1.1-0.5-2.2-0.8l0,0c-0.2-0.1-0.4-0.1-0.4,0
	c0,0-0.1,0.2-0.1,0.6c0,0,0,0.1,0,0.1c-0.3,2.3-1,4.8-2.2,7.6c-0.4,1-0.7,1.4-0.9,1.4c-0.1-0.1-0.2-0.7-0.2-2c0-1,0-1.6,0.1-1.8
	c0-0.2,0.2-0.4,0.5-0.6c0.2-0.1,0.3-0.3,0.2-0.5c-0.1-0.2-0.5-0.5-1.1-1c-0.4-0.4-0.7-0.5-0.9-0.5c-0.1,0-0.3,0.2-0.6,0.6
	c-0.3,0.4-0.8,0.6-1.5,0.7c-0.7,0.1-1-0.1-1-0.4c0-0.2,0.3-0.7,0.8-1.6c0.6-0.8,0.9-1.3,1.1-1.4c0.4-0.1,0.4-0.3,0.1-0.4
	c-0.3-0.2-0.9-0.4-2-0.6c0,0-0.1,0-0.2,0c-0.4-0.1-0.6-0.1-0.7-0.1c-0.1,0-0.1,0.2-0.1,0.6c0,0.1,0,0.2,0,0.2c0,0.5,0,1-0.1,1.5
	c-0.1,0.8-0.2,1.4-0.2,1.6c-0.1,0.3-0.3,0.4-0.5,0.4c-0.2,0-0.6-0.2-1.2-0.5c-0.6-0.3-0.9-0.4-1-0.4c0,0-0.1,0-0.1,0.1
	c0,0.1,0,0.3,0.1,0.8c0.1,1.1,0.2,3.5,0.2,7.1c0,3.8-0.1,6.6-0.2,8.4c-0.1,0.8,0,1.3,0.1,1.5c0.1,0.2,0.5,0.2,1.1,0
	c0.4-0.1,0.7-0.3,0.8-0.5c0.1-0.2,0.2-0.5,0.2-1v0c0-0.4,0-0.6,0-0.7c0.1-0.1,0.2-0.2,0.5-0.3c0.2,0,0.6,0,1.3,0c0,0,0.1,0,0.1,0
	c0,0,0.1,0,0.1,0c0.7,0,1.1,0,1.3,0c0.3,0,0.4,0.1,0.5,0.2c0,0.1,0.1,0.3,0.1,0.6v0.1c0,0.5,0.1,0.8,0.4,0.8c0.3,0.1,0.7,0,1.4-0.4
	c0,0,0.1,0,0.2-0.1c0.2-0.1,0.3-0.2,0.3-0.4c0-0.2,0-0.8,0-1.8c0-0.5,0-0.8,0-1.1c0-1.1,0-2.4,0-4.1c0-1.7,0-2.6,0.1-2.7
	c0-0.1,0.1-0.3,0.2-0.3c0.1-0.1,0.1-0.1,0,0c0,0.1,0,0.1,0.1,0.2c0.1,0,0.1,0,0.2,0c0.2-0.1,0.6-0.6,1.3-1.5
	c0.7-0.9,1.3-1.8,1.8-2.6c0,0,0,0,0-0.1c0.2-0.4,0.5-0.6,0.7-0.7c0.2-0.1,0.9-0.1,2-0.1c0.1,0,0.1,0,0.2,0c0.2,0,0.4,0,0.6,0
	c0.7,0,1.1,0,1.2,0c0.2,0,0.4,0.2,0.5,0.4c0,0.1,0.1,0.5,0,1c0,0.2,0,0.4,0,0.5c0,2.3-0.1,4.5-0.2,6.6c-0.1,2.1-0.3,3.5-0.5,4.4
	c-0.1,0.5-0.3,0.9-0.5,1.1c-0.2,0.2-0.6,0.4-1,0.4c-0.4,0-1.1,0-2.1-0.1c-0.5,0-0.8-0.1-0.9,0c-0.1,0-0.1,0.1-0.1,0.2
	c0,0.1,0.2,0.2,0.6,0.3c1.5,0.4,2.2,1,2.2,2.1C105,47.2,105,47.3,105.1,47.3z M93.9,43.3c-0.6,0-0.9,0-1.1-0.1
	c-0.2-0.1-0.3-0.3-0.4-0.6c0-0.2-0.1-0.8,0-1.7c0-0.4,0-0.7,0-0.9c0-0.2,0-0.5,0-0.8c0-0.8,0-1.4,0-1.6c0.1-0.3,0.2-0.5,0.4-0.6
	c0.1-0.1,0.5-0.1,1.1-0.1c0.2,0,0.4,0,0.6,0c0.1,0,0.3,0,0.6,0c0.6,0,0.9,0,1.1,0.1c0.2,0.1,0.3,0.3,0.4,0.6c0,0.2,0,0.8,0,1.6
	c0,0.4,0,0.6,0,0.8c0,1.5,0,2.3,0,2.6c0,0.3-0.1,0.4-0.2,0.5c-0.1,0.1-0.2,0.1-0.4,0.1c-0.1,0-0.6,0-1.4,0
	C94.3,43.3,94.1,43.3,93.9,43.3z M103.5,39.9c0.4,0.1,0.7,0.1,1-0.1c0.3-0.2,0.5-0.6,0.5-1c0-0.7-0.2-1.4-0.8-2
	c-0.5-0.7-1.3-1.3-2.4-1.8c-0.6-0.3-0.9-0.4-1-0.4c-0.1,0,0,0.3,0.3,0.7c1,1.5,1.6,2.9,1.8,4.1C103,39.6,103.2,39.8,103.5,39.9z
	 M93.9,36.3c-0.6,0-0.9,0-1.1-0.1c-0.2-0.1-0.3-0.3-0.4-0.6c0-0.2-0.1-0.7,0-1.6c0-0.4,0-0.7,0-0.9c0-0.2,0-0.4,0-0.8
	c0-0.8,0-1.3,0-1.5c0.1-0.3,0.2-0.5,0.4-0.6c0.1,0,0.5-0.1,1-0.1c0.2,0,0.4,0,0.6,0s0.3,0,0.6,0c0.6,0,0.9,0,1.1,0.1
	c0.2,0.1,0.3,0.2,0.4,0.6c0,0.2,0.1,0.7,0.1,1.5c0,0.3,0,0.6,0,0.7c0,1.4,0,2.2,0,2.5c0,0.3-0.1,0.4-0.2,0.5
	c-0.1,0.1-0.2,0.1-0.4,0.1c-0.1,0-0.6,0-1.4,0C94.3,36.3,94.1,36.3,93.9,36.3z M123.5,47.3c0.2,0.2,0.6,0.2,1.1,0
	c0.6-0.2,0.9-0.4,0.9-0.6c0-0.2,0.1-0.3,0.2-0.4c0.1-0.1,0.5-0.1,1-0.1c0.4,0,1.3,0,2.8,0c0.1,0,0.2,0,0.4,0c1.3,0,2.1,0,2.4,0
	c0.5,0,0.8,0.1,0.9,0.2c0.1,0.1,0.1,0.2,0.1,0.5c0,0,0,0.1,0,0.1c0,0.2,0.1,0.4,0.3,0.4c0.2,0,0.6,0,1-0.2c0.4-0.1,0.7-0.3,0.7-0.4
	c0.1-0.1,0.1-0.5,0.1-1.2c0,0,0-0.1,0-0.1c0-1.6,0-2.6,0-3c0-0.4,0.1-0.6,0.3-0.7c0.3-0.1,0.2-0.4-0.3-0.8c-0.4-0.3-0.5-0.5-0.6-0.7
	c0-0.1,0.2-0.3,0.5-0.5c0,0,0,0,0.1,0c0.2-0.1,0.3-0.2,0.3-0.3c0-0.1,0-0.5,0-1.2c0-0.1,0-0.2,0-0.2c0-1,0.1-1.6,0.1-1.7
	c0.1-0.2,0.3-0.2,0.6,0c0.1,0.1,0.2,0.1,0.2,0.1c0,0,0.1-0.1,0.2-0.3c0.1-0.3,0.3-0.5,0.6-0.8c0.2-0.3,0.5-0.4,0.7-0.5
	c0.2-0.1,0.3-0.2,0.2-0.3c0-0.1-0.3-0.1-0.7-0.2c-1-0.2-1.9-0.4-2.6-0.7c-0.7-0.3-1.2-0.6-1.4-0.8c-0.2-0.3-0.1-0.5,0.3-0.7
	c0.3-0.1,0.4-0.2,0.4-0.3c0-0.1-0.2-0.2-0.5-0.5c-0.6-0.4-0.9-0.7-0.9-0.8c0-0.2,0.2-0.2,0.7-0.3c0.7,0,1,0.2,1,0.6
	c0,0.2,0.1,0.3,0.2,0.3c0.2,0,0.4,0,0.9-0.1c0.5-0.2,0.9-0.3,1-0.5c0.1-0.2,0.1-0.6,0.1-1.2c0-0.8,0-1.3,0-1.5
	c0-0.2,0.2-0.4,0.5-0.6c0.3-0.2,0.4-0.3,0.4-0.4c0-0.1-0.3-0.4-0.8-0.8c-0.5-0.4-0.8-0.7-1.1-0.9c-0.1-0.1-0.3-0.1-0.4,0
	c-0.1,0.1-0.3,0.2-0.5,0.6c0,0-0.1,0.1-0.1,0.2c-0.1,0.2-0.3,0.3-0.4,0.4c-0.2,0.1-0.7,0.1-1.3,0.1c-0.5,0-1.6,0-3.5,0
	c-0.7,0-1.3,0-1.7,0c-3.1,0-4.9,0-5.5-0.1c-0.6,0-1.1-0.2-1.7-0.4c-0.7-0.3-1.1-0.4-1.2-0.5c-0.1,0-0.2-0.1-0.2,0c0,0,0,0.2,0,0.4
	c0.1,0.8,0.2,2.7,0.1,5.5c0,2.8,0,4.9-0.1,6.3c-0.3,3.5-0.9,6.4-2,8.8c-0.2,0.5-0.3,0.7-0.1,0.7c0.1,0,0.4-0.2,0.7-0.6
	c0.4-0.4,0.7-0.9,1.1-1.5c1.2-1.9,2-4.4,2.4-7.5c0.1-0.5,0.1-0.8,0.2-0.9c0.1-0.2,0.2-0.3,0.5-0.4c0.3-0.2,0.5-0.2,0.6-0.2
	c0.1,0,0.2,0.3,0.3,0.6c0,0.3,0,0.9,0,1.8c0,1.1,0,1.7,0,1.8c0,0.2,0.1,0.3,0.1,0.3c0.2,0,0.4,0.4,0.4,1.1c0.1,0.7,0,2-0.1,3.7
	c0,0.8-0.1,1.3-0.1,1.5C123.4,47.1,123.5,47.3,123.5,47.3z M133,45.5c-0.1,0.1-1.3,0.1-3.6,0.1c-2.3,0-3.5-0.1-3.6-0.1
	c-0.2-0.1-0.3-0.3-0.3-0.6s0.1-0.5,0.2-0.7c0.1-0.1,1.3-0.1,3.6-0.1c2.3,0,3.5,0,3.7,0.1c0.2,0.1,0.3,0.4,0.3,0.7
	C133.3,45.1,133.2,45.4,133,45.5z M129.5,43.3c-2.3,0-3.5,0-3.6,0c-0.2-0.1-0.3-0.3-0.4-0.6c0-0.4,0.1-0.6,0.3-0.7
	c0.1-0.1,1.3-0.1,3.6-0.1c2.3,0,3.5,0,3.6,0.1c0.2,0.1,0.3,0.3,0.3,0.7c0,0.3-0.1,0.6-0.3,0.7C132.9,43.2,131.8,43.3,129.5,43.3z
	 M129.4,41.1c-2.3,0-3.5,0-3.8-0.1c-0.5-0.1-0.8-0.3-1-0.6c-0.1-0.3,0-0.5,0.4-0.7c0.2-0.1,1.6-0.1,4.3-0.1c2.7,0,4.1,0.1,4.2,0.1
	c0.2,0.1,0.2,0.3,0.1,0.6c-0.1,0.3-0.4,0.5-0.7,0.6C132.9,41,131.7,41.1,129.4,41.1z M128.3,38.8c-0.2,0.2-0.5,0.2-1.1,0
	c-0.1,0-0.3,0-0.5,0c-0.2,0-0.4,0.1-0.8,0.1c-0.4,0-0.6,0-0.7-0.1c-0.2-0.1-0.3-0.2-0.3-0.4c0-0.2,0-0.6,0-1.4c0-0.1,0-0.2,0-0.4
	c0-0.7,0.1-1.2,0.2-1.3c0.1-0.1,0.6-0.2,1.3-0.2c0.2,0,0.3,0,0.4,0c0.1,0,0.2,0,0.3,0c0.8,0,1.2,0.1,1.3,0.2
	c0.1,0.1,0.2,0.6,0.2,1.4c0,0.2,0,0.3,0,0.4C128.5,38.1,128.5,38.6,128.3,38.8z M132.6,39c-0.5,0-0.8,0-0.9,0c0,0-0.2,0-0.6,0
	c-0.3,0-0.6,0-0.6-0.1c-0.1-0.1-0.2-0.2-0.2-0.5c0-0.2,0-0.6,0-1.3c0-0.9,0-1.4,0.1-1.6c0.1-0.2,0.3-0.3,0.7-0.2
	c0.3,0,0.4,0.1,0.5,0.1c0.1,0.1,0.1,0.2,0.1,0.4c-0.1,0.7-0.2,1.3-0.4,2c-0.1,0.5-0.1,0.7,0,0.7s0.5-0.3,1-0.9
	c0.4-0.4,0.7-0.7,0.9-0.8c0.1-0.1,0.3-0.2,0.4-0.1c0.3,0,0.4,0.4,0.4,1c0,0.6-0.1,1-0.4,1.1C133.5,38.9,133.2,38.9,132.6,39z
	 M127,38.6c0,0,0.1-0.1,0.3-0.2c0.3-0.2,0.5-0.5,0.5-0.9c0-0.3-0.2-0.7-0.5-1c-0.3-0.3-0.6-0.5-0.8-0.7c-0.3-0.2-0.5-0.2-0.6-0.2
	c-0.1,0-0.1,0.2,0,0.4c0.3,0.6,0.4,1.1,0.5,1.5c0,0,0,0.1,0,0.1c0,0.2,0,0.4,0.1,0.5c0,0,0.1,0.1,0.3,0.2
	C126.8,38.6,126.9,38.6,127,38.6z M133.7,35.9c-0.1,0.1-0.3,0.1-0.5,0c-0.3-0.1-0.5-0.2-0.6-0.4c-0.1-0.2,0-0.3,0.3-0.3
	c0.4-0.1,0.6,0,0.7,0.1c0.1,0.1,0.1,0.2,0.1,0.3C133.8,35.8,133.8,35.9,133.7,35.9z M122,35.1c-0.2,0.1-0.3,0.1-0.3,0.1
	c-0.1,0-0.1-0.2-0.1-0.6c0-0.3,0-0.8,0-1.8c0-0.2,0-0.5,0-0.9c0-0.7,0-1.1,0.1-1.2c0.1-0.2,0.4-0.4,0.9-0.5c0.4,0,1.2,0,2.6,0
	c0.8,0,1.4,0,1.9,0c0.2,0,0.4,0,0.8,0c1.9,0,3.1,0,3.6,0c0.7,0,1.1,0.1,1.1,0.2c0.1,0.1,0,0.3-0.3,0.6c0,0.1-0.1,0.1-0.1,0.1
	c-0.1,0.2-0.7,0.3-1.8,0.3c-1,0-2,0-2.8-0.2c-0.1,0-0.2,0-0.2,0.1c0,0.1,0.1,0.2,0.2,0.5c0,0,0,0.1,0.1,0.1c0.1,0.2,0.2,0.3,0.3,0.4
	c0.1,0,0.3,0,0.6,0c0.1,0,0.2,0,0.2,0c1.1-0.2,2-0.2,2.7-0.2c0.7,0,1.1,0.2,1.3,0.5c0,0,0.1,0.2,0.2,0.4c0.1,0.2,0.2,0.3,0.3,0.4
	c0.2,0.4,0.3,0.6,0.4,0.7c0,0.1-0.1,0.3-0.2,0.3c-0.1,0.1-1.5,0.1-4,0.1c-2.5,0-3.8,0-3.9-0.1c-0.3-0.1-0.2-0.3,0-0.6
	c0.9-0.8,1.4-1.2,1.5-1.2c0.3,0,0.4-0.1,0.2-0.2c-0.1-0.1-0.4-0.4-1-0.7c-0.7-0.4-1.1-0.6-1.2-0.7c-0.1,0-0.2,0-0.3,0.2
	c-0.2,0.5-0.6,1.3-1.3,2.3C122.8,34.4,122.3,35,122,35.1z M128.2,29.6c-4,0-6.1,0-6.3-0.1c-0.2-0.1-0.3-0.5-0.4-1.1
	c0-0.6,0.1-1,0.3-1.2c0.1-0.1,2.2-0.1,6.3-0.1c4.1,0,6.2,0,6.4,0.1c0.2,0.1,0.3,0.5,0.3,1.2c0,0.6-0.1,1-0.4,1.1
	C134.4,29.6,132.3,29.6,128.2,29.6z M148.6,47.3c0.2,0.1,0.4,0.1,0.8,0c0.4-0.1,0.7-0.2,1-0.4c0.2-0.1,0.3-0.2,0.3-0.3
	c0-0.1,0-0.4,0-1c-0.1-1.6-0.1-3.4-0.1-5.7c0-2.2,0-3.4,0.1-3.5c0.2-0.4,0.5-0.5,0.8-0.4c0.3,0.1,0.5,0.3,0.6,0.7
	c0,0.3,0.1,0.5,0.1,0.6c0,0.1,0.1,0.1,0.3,0.2c0.4,0.2,0.7,0.2,1,0c0.3-0.2,0.5-0.6,0.5-1.1c0-0.5-0.2-1.1-0.6-1.6
	c-0.4-0.5-1-1-1.7-1.5c-0.3-0.2-0.5-0.3-0.6-0.2c-0.1,0.1,0,0.3,0.2,0.6c0.3,0.7,0.4,1.1,0.3,1.3c-0.1,0.2-0.6,0.3-1.5,0.3
	c-0.7,0-1,0-1.1-0.1c-0.1-0.1,0-0.4,0.4-0.9c0.9-1.2,1.9-2.5,2.9-4c0.3-0.4,0.5-0.7,0.6-0.8c0.1-0.1,0.3-0.2,0.4-0.3
	c0.3-0.1,0.3-0.2,0-0.4c-0.3-0.2-0.9-0.5-1.9-1c-0.3-0.1-0.4-0.2-0.5-0.1c0,0-0.1,0.2-0.2,0.4c-0.3,1.3-1.1,3.3-2.4,6
	c-0.3,0.6-0.5,1-0.7,1.1c-0.2,0.1-0.6,0.2-1.3,0.2c0,0-0.1,0-0.1,0c-0.1,0-0.2,0-0.3,0c-0.4,0-0.6,0.1-0.7,0.1c0,0.1,0,0.3,0.1,0.6
	c0,0.1,0.1,0.2,0.1,0.3c0,0,0,0.1,0,0.1c0.2,0.6,0.3,0.9,0.4,1s0.2,0,0.4-0.2c0.2-0.2,0.6-0.4,1.3-0.5c0.5-0.1,0.8-0.1,0.9,0
	c0.1,0.1,0.2,0.4,0.2,0.9c0,0.7-0.1,1.1-0.2,1.2c-0.1,0.1-0.6,0.1-1.4-0.1c-0.1,0-0.2,0-0.3-0.1c-0.4-0.1-0.7-0.1-0.7-0.1
	c-0.1,0-0.1,0.2-0.1,0.5c0,0.1,0,0.2,0,0.2c0,1.7-0.2,3.4-0.7,5.1c-0.1,0.3-0.1,0.5-0.1,0.5c0,0.1,0,0.1,0.1,0.1
	c0.2,0.1,0.5-0.3,1.1-1.2c0.5-0.9,1-1.9,1.3-3c0.2-0.5,0.3-0.8,0.4-1c0.1-0.2,0.3-0.2,0.4-0.1c0.3,0.2,0.3,2.1,0.1,5.9
	c0,0.5,0,0.8,0,1C148.4,47.1,148.5,47.2,148.6,47.3z M154.6,47.3c0,0,0.1,0.1,0.1,0c0.1,0,0.2-0.1,0.5-0.2l0.1,0
	c1.6-0.7,3.1-1.6,4.5-2.7c0.4-0.4,0.7-0.5,0.9-0.6c0.2,0,0.4,0.2,0.7,0.5c0.8,0.9,1.7,1.7,2.8,2.4c0.4,0.3,0.7,0.4,0.7,0.4
	c0.1,0,0.2-0.1,0.3-0.3c0.1-0.3,0.3-0.5,0.6-0.8c0.3-0.3,0.6-0.4,0.8-0.5c0.4-0.1,0.4-0.3-0.1-0.5c-1.6-0.6-2.9-1.4-3.9-2.3
	c-0.3-0.3-0.5-0.5-0.5-0.6c0-0.2,0.1-0.5,0.4-0.9c1-1.4,1.8-3.2,2.4-5.2c0.2-0.6,0.3-0.9,0.4-1.1c0.1-0.2,0.2-0.3,0.4-0.3
	c0.3-0.1,0.4-0.2,0.3-0.5c-0.1-0.2-0.4-0.6-0.9-1c-0.4-0.4-0.7-0.6-0.9-0.6c-0.1,0-0.3,0.1-0.6,0.4c-0.4,0.4-0.6,0.5-0.8,0.5
	c-0.2,0-0.2-0.2-0.3-0.5c0-0.3,0.1-1.2,0.2-2.7c0,0,0,0,0-0.1c0.1-1.3,0.2-2.1,0.3-2.3c0.1-0.3,0.2-0.4,0.5-0.6
	c0.2-0.1,0.3-0.3,0.1-0.5c-0.1-0.2-0.5-0.6-1-1c-0.4-0.3-0.6-0.5-0.7-0.5c-0.1,0-0.3,0.1-0.5,0.4c0,0.1-0.1,0.1-0.2,0.2
	c-0.2,0.3-0.4,0.4-0.7,0.5c-0.3,0-1.1,0.1-2.4,0c-0.5,0-0.9,0-1.2,0c-2.4,0-3.7,0-3.8,0c-0.2,0-0.3,0-0.3,0c0,0,0.1,0.2,0.2,0.5
	c0.1,0.3,0.2,0.4,0.3,0.5c0.1,0,0.2,0,0.3,0c0.3-0.1,0.5-0.2,0.8-0.2c0.3,0,0.5,0.1,0.6,0.2c0.2,0.2,0.2,1.8,0.1,4.7
	c-0.1,2.9-0.3,5.1-0.6,6.8c-0.2,1.3-0.4,2.1-0.6,2.4c-0.2,0.3-0.3,0.2-0.6-0.4c-0.4-0.9-1-1.6-1.9-2.2c-0.4-0.3-0.6-0.3-0.6-0.2
	c0,0.1,0,0.4,0.2,0.9c0.4,1.3,0.6,2.3,0.6,3c0,0.2,0.1,0.4,0.4,0.5c0.3,0.1,0.5,0.1,0.7,0c0.4-0.2,0.6,0,0.4,0.6
	c-0.2,0.6-0.6,1.5-1.2,2.6c-0.2,0.3-0.3,0.5-0.3,0.6c0,0.1,0,0.1,0.1,0.2c0.1,0.1,0.2,0.1,0.2,0c0.1,0,0.2-0.2,0.4-0.4
	c1.1-1.2,2-2.6,2.7-4.1c0.7-1.5,1.2-3.3,1.6-5.4c0.2-1,0.3-1.6,0.5-1.7c0.1-0.1,0.3,0.2,0.4,0.9c0.4,1.8,0.9,3.5,1.6,5
	c0.2,0.4,0.3,0.8,0.3,1c0,0.2-0.2,0.5-0.5,0.9c-1.2,1.4-2.6,2.6-4.2,3.5c-0.2,0.1-0.4,0.2-0.4,0.3C154.5,47.1,154.5,47.2,154.6,47.3
	L154.6,47.3z M161,40.4c-0.3,0.3-0.8-0.1-1.4-1.1c-0.6-1-1.1-2.3-1.5-3.8c0,0,0,0,0-0.1c-0.1-0.4-0.1-0.6-0.1-0.7
	c0-0.1,0.2-0.2,0.6-0.2c0.2,0,0.8,0,1.7,0c0.1,0,0.1,0,0.2,0c0.9,0,1.5,0,1.8,0c0.4,0,0.6,0.1,0.6,0.1c0.1,0.1,0.1,0.2,0.1,0.4
	c0,0.4-0.3,1.4-0.8,2.8C161.7,39.3,161.3,40.2,161,40.4z M159,33.9c-0.7,0-1.1,0-1.2,0c-0.2-0.1-0.3-0.2-0.4-0.4c0-0.2,0-0.6,0-1.2
	c0-1.1,0.1-2,0.1-2.7c0-0.1,0-0.2,0-0.4c0-0.6,0-1,0.1-1.2c0.1-0.2,0.2-0.4,0.4-0.5c0.1,0,0.5,0,1.1,0c0.1,0,0.3,0,0.3,0
	c0.1,0,0.3,0,0.5,0c0.5,0,0.8,0,1,0.1c0.2,0.1,0.3,0.3,0.3,0.6c0,0.2,0,0.8-0.1,1.7c0,0.4-0.1,0.7-0.1,0.9c0,0.1,0,0.2,0,0.3
	c-0.1,1.3-0.2,2.1-0.3,2.4c0,0.2-0.2,0.4-0.3,0.4C160.1,33.8,159.7,33.9,159,33.9z M147.1,32.8c0.4,0.2,0.7,0.2,0.9-0.1
	c0.2-0.2,0.4-0.5,0.4-0.9c0-0.4-0.1-0.8-0.4-1.1c-0.2-0.3-0.3-0.5-0.3-0.6c0-0.2,0.3-0.5,0.7-1c0.4-0.5,0.7-0.9,0.9-1.2
	c0.7-0.9,1.1-1.4,1.3-1.5c0.3-0.1,0.3-0.2,0.2-0.4c-0.1-0.1-0.6-0.3-1.2-0.6c-0.8-0.3-1.2-0.5-1.3-0.5c-0.1,0-0.2,0.1-0.2,0.3
	c-0.1,0.7-0.2,1.6-0.5,2.5c-0.2,0.9-0.4,1.5-0.6,1.6c-0.1,0.2-0.4,0.2-0.8,0c-0.6-0.2-0.9-0.3-1.1-0.3c-0.1,0-0.1,0.2,0.2,0.5
	c0.7,0.8,1.1,1.6,1.4,2.4c0.1,0.3,0.1,0.4,0.2,0.5C146.9,32.7,147,32.8,147.1,32.8z M182.4,47.3c0.2,0.1,0.6,0.1,1,0
	c0.5-0.1,0.9-0.3,1.2-0.6l0,0c0.1-0.1,0.1-0.2,0.1-0.3c0-0.2,0-0.7,0-1.6c0-0.5,0-0.8,0-1.1c0-1,0-2.1,0-3.3c0-1.2,0-1.8,0.1-1.9
	c0.1-0.1,0.2-0.2,0.5-0.2c0.2,0,1,0,2.4,0c0.1,0,0.3,0,0.5,0c0.9,0,1.5,0,1.7,0c0.3,0,0.5,0.1,0.6,0.2c0,0.1,0.1,0.3,0,0.6
	c0,0.1,0,0.1,0,0.2c0,0.5,0,0.7,0.1,0.8c0.1,0.1,0.4,0.1,0.9,0c0.7-0.1,1.1-0.3,1.2-0.5c0.1-0.2,0.2-0.7,0.1-1.6
	c-0.1-2.6-0.1-4.4-0.1-5.2c0-0.8,0.2-1.3,0.4-1.4c0,0,0,0,0.1,0c0.3-0.2,0.4-0.3,0.4-0.4c0-0.1-0.3-0.5-1-1
	c-0.7-0.5-1.1-0.8-1.3-0.8c-0.1,0-0.3,0.2-0.7,0.7c0,0,0,0.1-0.1,0.1c-0.2,0.2-0.4,0.4-0.6,0.4c-0.2,0-0.8,0-1.9,0
	c-0.2,0-0.4,0-0.6,0c-0.2,0-0.5,0-0.8,0c-0.8,0-1.3,0-1.5,0c-0.3,0-0.5-0.2-0.6-0.4c0-0.1-0.1-0.5,0-1c0-0.2,0-0.4,0-0.5
	c0-0.8,0-1.4,0-1.5c0-0.2,0.1-0.3,0.3-0.5c0.2-0.2,0.2-0.4-0.1-0.5c-0.2-0.1-0.9-0.4-2-0.6c-0.4-0.1-0.7-0.2-0.8-0.1
	s-0.1,0.1-0.1,0.3c0.1,0.7,0.2,1.6,0.2,2.7c0,1.1,0,1.7,0,1.9l0,0c-0.1,0.1-0.2,0.2-0.5,0.3c-0.2,0-1,0-2.4,0c-0.2,0-0.4,0-0.7,0
	c-1,0-1.6,0-1.8,0c-0.3,0-0.7-0.2-1.2-0.4c-0.2-0.1-0.3-0.1-0.4-0.2c-0.1,0-0.1-0.1-0.2-0.1c-0.5-0.2-0.8-0.3-0.8-0.3
	c-0.1,0-0.1,0.2,0,0.5c0,0.1,0,0.1,0,0.1c0.1,1.1,0.2,2.6,0.2,4.5c0,1.8,0,3.5-0.1,4.9c0,0.5,0,0.9,0.1,1c0.1,0.1,0.4,0.1,0.9,0
	c0.5-0.1,0.9-0.3,1.1-0.4c0.2-0.2,0.3-0.5,0.3-0.8c0,0,0-0.1,0-0.2c0-0.3,0-0.5,0.1-0.6c0.1-0.1,0.3-0.2,0.6-0.2c0.2,0,0.8,0,1.7,0
	c0.2,0,0.4,0,0.6,0c1.3,0,2.1,0,2.4,0c0.2,0,0.4,0.1,0.5,0.3c0.1,0.1,0.1,1.1,0.1,2.7c0,1.7-0.1,3.2-0.1,4.5c0,0.7-0.1,1.2,0,1.3
	C182.2,47.1,182.3,47.3,182.4,47.3z M179.5,37.4c-1.6,0-2.5,0-2.6-0.1c-0.1-0.1-0.2-0.2-0.3-0.5c0-0.3,0-1.2,0-2.6c0-0.3,0-0.6,0-1
	c0-0.8,0-1.3,0-1.6c0.1-0.3,0.2-0.5,0.5-0.6c0.2,0,0.7-0.1,1.4,0c0.4,0,0.7,0,0.9,0c0.2,0,0.6,0,0.9,0c0.7,0,1.2,0,1.4,0
	c0.3,0.1,0.4,0.3,0.5,0.6c0,0.2,0.1,0.7,0,1.6c0,0.4,0,0.8,0,1c0,1.5,0,2.3,0,2.6c0,0.3-0.1,0.4-0.3,0.5
	C181.9,37.4,181.1,37.4,179.5,37.4z M190.2,37.4c-0.1,0.1-1,0.1-2.6,0.1c-1.6,0-2.4,0-2.6-0.1c-0.2-0.1-0.3-0.2-0.3-0.5
	c0-0.3,0-1.1,0-2.6c0-0.3,0-0.6,0-1c0-0.8,0-1.3,0-1.6c0.1-0.3,0.2-0.5,0.5-0.6c0.2,0,0.7-0.1,1.4,0c0.4,0,0.7,0,0.9,0
	c0.2,0,0.6,0,0.9,0c0.8,0,1.2,0,1.4,0c0.3,0.1,0.4,0.3,0.5,0.6c0,0.2,0.1,0.7,0,1.6c0,0.4,0,0.8,0,1c0,1.5,0,2.4,0,2.6
	C190.4,37.1,190.3,37.3,190.2,37.4z M209.6,39.2c0.1,0.2,0.2,0.3,0.4,0.3c0.2,0,0.5-0.2,0.9-0.6c0.9-0.7,1.6-1.6,2-2.8
	c0.4-1.1,0.4-2.1,0.1-2.9c-0.3-0.9-0.9-1.3-1.8-1.2c-0.6,0-1,0.3-1.3,0.7c-0.2,0.4-0.3,0.9-0.1,1.4c0.2,0.5,0.5,1,1.1,1.3
	c0.3,0.2,0.5,0.3,0.6,0.5c0.1,0.1,0.1,0.2,0.1,0.4c-0.1,0.4-0.3,0.8-0.6,1.3c-0.4,0.5-0.8,0.8-1.2,1.2c-0.2,0.1-0.3,0.2-0.3,0.3
	C209.5,38.9,209.5,39,209.6,39.2z M236.1,47.3c0.1,0.1,0.3,0,0.6-0.2c1.1-0.9,2.1-2,2.8-3.5c0.3-0.5,0.5-0.8,0.6-0.8
	c0.1,0,0.3,0.2,0.6,0.7c0.5,1.1,1.1,1.9,1.9,2.4c0.8,0.5,1.8,0.8,3.1,0.9c0.5,0,1.3,0,2.2,0c0.9,0,1.4,0,1.4,0c0,0,0.1-0.2,0.1-0.5
	c0.1-0.6,0.3-1,0.6-1.1c0.2-0.2,0.4-0.3,0.4-0.3c0,0-0.2-0.1-0.6-0.1c-0.3,0-0.9,0-2,0c-0.2,0-0.5,0-0.9,0c-0.8,0-1.3,0-1.5-0.1
	c-0.3-0.1-0.5-0.2-0.6-0.5c0-0.2-0.1-0.7,0-1.4c0-0.4,0-0.6,0-0.8s0-0.5,0-0.8c0-0.7,0-1.2,0-1.4c0-0.3,0.2-0.4,0.4-0.5
	c0.2,0,0.6-0.1,1.2-0.1c0.3,0,0.6,0,0.8,0c1.1,0,1.8,0,2,0c0.2,0,0.3-0.1,0.4-0.2c0.1-0.1,0-0.2,0-0.3c-0.1-0.1-0.3-0.4-0.6-0.7
	c-0.6-0.6-1-0.9-1.2-0.9c-0.2,0-0.4,0.2-0.7,0.6c-0.3,0.4-0.5,0.7-0.6,0.8c-0.2,0.1-0.4,0.1-0.7,0.1c-0.3,0-0.5,0-0.6-0.1
	c-0.1-0.1-0.2-0.3-0.2-0.6c0-0.3,0-0.9,0-1.8c0,0,0-0.1,0-0.2c0-0.9,0-1.4,0-1.7c0-0.3,0.1-0.5,0.3-0.6c0.1-0.1,0.3-0.1,0.7-0.1
	c0,0,0.1,0,0.1,0c0.5,0,0.8,0.1,0.9,0.3c0.1,0.2,0,0.7-0.3,1.5c-0.2,0.6-0.3,1-0.3,1.1c0,0.1,0.2,0.1,0.5-0.1
	c0.2-0.2,0.7-0.7,1.5-1.4c0.7-0.6,1.1-1,1.3-1c0.4,0,0.5-0.2,0.3-0.5c-0.2-0.4-0.6-0.8-1.2-1.3c-0.3-0.2-0.4-0.3-0.5-0.3
	c-0.1,0-0.3,0.2-0.6,0.5c0,0-0.1,0.1-0.1,0.1c-0.2,0.2-0.5,0.4-0.7,0.4c-0.2,0-1,0-2.2,0c-0.3,0-0.5,0-0.6,0c-1.7,0-2.8,0-3.3,0
	c-0.7,0-1-0.1-1.1-0.3c0-0.1,0.1-0.4,0.5-0.8c0.1-0.1,0.2-0.3,0.4-0.6c0.1-0.1,0.1-0.2,0.2-0.2c0.3-0.4,0.5-0.7,0.7-0.7
	c0.1,0,1.4-0.1,4-0.1c0.2,0,0.3,0,0.4,0c2.2,0,3.4,0,3.8,0c0.4,0,0.6-0.1,0.7-0.2c0.1-0.1,0-0.4-0.4-0.8c-0.3-0.4-0.8-0.8-1.3-1.2
	c-0.3-0.2-0.4-0.2-0.6-0.2c-0.1,0-0.3,0.3-0.6,0.8c0,0,0,0.1-0.1,0.1c-0.3,0.4-0.5,0.6-0.7,0.7c-0.2,0.1-0.8,0.1-1.9,0.1
	c-0.1,0-0.3,0-0.3,0s-0.2,0-0.4,0c-0.8,0-1.3,0-1.5,0c-0.3,0-0.4-0.2-0.4-0.3c0-0.1,0.1-0.4,0.3-0.8c0-0.1,0.1-0.1,0.1-0.2
	c0.1-0.1,0.1-0.3,0.2-0.5l0.1-0.3c0-0.1,0.1-0.2,0.2-0.3c0.1-0.2,0.3-0.3,0.4-0.3c0.3-0.1,0.3-0.3,0-0.4c-0.2-0.2-0.8-0.4-1.8-0.7
	c-0.5-0.2-0.8-0.3-0.9-0.3c-0.1,0-0.1,0.1-0.1,0.3c0,0.5-0.1,1.2-0.4,2.4c-0.3,1.1-0.5,1.8-0.6,2c-0.1,0.2-0.3,0.3-0.4,0.2
	c-0.2-0.1-0.5-0.4-1.1-0.9c0,0-0.1-0.1-0.2-0.2c-0.4-0.3-0.6-0.5-0.7-0.5c-0.1,0-0.2,0.1-0.4,0.4c0,0.1-0.1,0.1-0.1,0.2
	c-0.7,1.1-1.3,1.3-1.7,0.8c-0.1-0.2-0.2-0.8-0.1-1.7c0.1-0.9,0.2-1.4,0.3-1.6c0.2-0.2,0.2-0.3,0-0.5c-0.2-0.1-0.8-0.3-1.8-0.6
	c0,0-0.1,0-0.1,0c-0.4-0.1-0.6-0.2-0.7-0.1c0,0-0.1,0.2,0,0.5c0,0,0,0.1,0,0.1c0.1,0.8,0.2,1.6,0.2,2.4c0,0.8,0,1.3-0.1,1.4
	c-0.2,0.3-1.1,0.4-2.8,0.2c-0.5,0-0.7-0.1-0.8-0.1c-0.1,0-0.1,0.2,0.1,0.6c0.1,0.2,0.2,0.4,0.2,0.4c0.1,0,0.2,0,0.5-0.1
	c0,0,0.1,0,0.1,0c0.6-0.2,0.9-0.2,1.1-0.2c0.2,0,0.4,0.2,0.5,0.6c0.1,0.3,0.1,0.9,0.1,1.8c0,3.3-0.2,6-0.6,8.1s-1.1,4-2,5.5
	c-0.1,0.2-0.2,0.4-0.2,0.5c0,0.1,0,0.2,0.1,0.2c0.1,0.1,0.1,0.1,0.2,0.1c0.1,0,0.3-0.2,0.7-0.7c0.4-0.5,0.7-0.9,1-1.2
	c0.4-0.6,0.7-0.9,0.8-0.7c0,0,0.2,0.1,0.6,0.2c0.4,0.1,0.7,0.3,0.9,0.5c0.2,0.2,0.3,0.6,0.4,1c0,0.3,0.1,0.4,0.2,0.4
	c0.1,0,0.4,0,0.8-0.1c0.8-0.2,1.3-0.6,1.7-1.2c0.4-0.7,0.8-1.7,1-3.1c0.2-1.3,0.4-3.3,0.5-5.8c0-0.6,0.1-1,0.1-1.2
	c0.1-0.2,0.2-0.3,0.5-0.4c0.2-0.1,0.3-0.2,0.3-0.3c0-0.1-0.1-0.2-0.3-0.5c-0.1-0.1-0.3-0.3-0.4-0.5c-0.1-0.1-0.2-0.2-0.5-0.4
	c-0.1-0.1-0.3-0.2-0.6-0.3c-0.2-0.1-0.3-0.1-0.4-0.1s-0.2,0.2-0.5,0.5c-0.3,0.3-0.5,0.5-0.6,0.6c-0.1,0.1-0.4,0.1-0.7,0.1
	c-0.5,0-0.7-0.1-0.8-0.2c-0.1-0.1-0.1-0.6-0.1-1.3c0-0.1,0-0.3,0-0.5c0-0.6,0-1,0.1-1.1c0.1-0.2,0.3-0.4,0.6-0.4c0.2,0,0.7,0,1.5,0
	c0.2,0,0.4,0,0.6,0c1.1,0,1.8,0,2.1,0.1c0.4,0.1,0.5,0.3,0.4,0.6c0,0.2-0.3,0.7-0.8,1.5c-0.2,0.3-0.3,0.4-0.3,0.5c0,0.1,0,0.1,0,0.2
	c0.1,0,0.2,0,0.2,0c0.1,0,0.2-0.1,0.4-0.3c0.2-0.2,0.4-0.2,0.6-0.2c0.2,0,0.3,0.2,0.4,0.4c0.1,0.2,0.2,0.2,0.2,0.3
	c0.1,0,0.3,0,0.6-0.1c1.6-0.3,2.5-0.3,2.7,0.1c0,0.1,0.1,1.6,0.1,4.5c0,2.9,0,4.6,0,4.9c0,0.4-0.2,0.5-0.5,0.5c-0.3-0.1-0.6-0.4-1-1
	c-0.4-0.5-0.6-0.9-0.6-1.2c-0.1-0.3,0-0.8,0.1-1.4c0.1-0.3,0.2-0.9,0.3-1.6c0.1-0.5,0.1-0.8,0.2-1c0.1-0.2,0.2-0.3,0.3-0.4
	c0.4-0.3-0.2-0.5-1.9-0.6c-0.3,0-0.5,0-0.6,0c0,0-0.1,0.2-0.1,0.6c0,2.2-0.2,4-0.6,5.4c-0.4,1.4-1,2.8-1.9,4.1
	C236.1,47,236,47.2,236.1,47.3z M233,44.5c-0.4,0-0.6,0-0.7,0l-0.3,0c-0.1,0-0.3,0-0.3,0c-0.4,0-0.6-0.1-0.6-0.2
	c0-0.1,0.1-0.5,0.4-1.2c0.8-1.7,1.3-4,1.6-6.7c0.1-0.7,0.2-1.1,0.3-1.2c0.1-0.1,0.4-0.2,0.9-0.2c0.4,0,0.7,0,0.8,0.1
	c0.1,0.1,0.2,0.4,0.2,0.9c0,0.3,0,1.1-0.1,2.4c-0.1,2.1-0.3,3.5-0.5,4.4c-0.2,0.9-0.5,1.4-0.9,1.6C233.7,44.4,233.4,44.4,233,44.5z
	 M271.7,47.5c0,0.1,0.3,0.1,0.8,0c0.5-0.1,0.9-0.3,1.2-0.4c0.3-0.2,0.5-0.5,0.6-0.8c0.1-0.3,0.1-1.1,0.2-2.3c0-0.1,0-0.3,0-0.5
	c0-0.7,0-1.2,0.1-1.4c0-0.3,0.2-0.4,0.4-0.5c0.1,0,0.5-0.1,1-0.1c0.2,0,0.3,0,0.4,0c1,0,1.5,0,1.6-0.1c0.1-0.1-0.1-0.4-0.6-1
	c-0.4-0.4-0.6-0.7-0.6-0.8c0-0.1,0-0.3,0.2-0.4c0.3-0.3,0.4-0.6,0.3-1.1c-0.1-0.5-0.5-0.9-1-1.2c-0.3-0.2-0.5-0.4-0.5-0.5
	c0-0.1,0.1-0.3,0.3-0.4c0,0,0.1,0,0.1-0.1c0.2-0.1,0.3-0.2,0.3-0.4c0-0.2,0-0.6,0-1.5c0-0.2,0-0.4,0-0.5c0-1.2,0-2,0.1-2.3
	c0-0.3,0.2-0.5,0.4-0.6c0.2-0.1,0.2-0.2,0.2-0.3c0-0.1-0.2-0.4-0.6-0.7c-0.5-0.5-0.9-0.7-1.1-0.8c-0.2-0.1-0.4,0-0.6,0.3
	c-0.3,0.4-0.5,0.6-0.6,0.7c-0.1,0.1-0.4,0.1-0.9,0.1c-0.4,0-0.7-0.1-0.8-0.2c-0.1-0.1-0.2-0.3-0.2-0.7c0-0.3,0.1-0.5,0.1-0.5
	c0.1-0.1,0.3-0.2,0.7-0.2c0.3,0,0.9,0,1.8,0c1.7,0,2.6-0.1,2.7-0.3c0.2-0.2-0.3-0.7-1.4-1.5c-0.3-0.2-0.5-0.3-0.6-0.3
	c-0.1,0-0.3,0.3-0.6,0.7c-0.6,0.8-1.3,1-2.2,0.8c-0.3-0.1-0.4-0.2-0.4-0.5c0-0.3,0.1-0.5,0.3-0.7c0.2-0.2,0.2-0.3,0-0.5
	c-0.2-0.1-0.7-0.3-1.6-0.6c0,0-0.1,0-0.2,0c-0.4-0.1-0.6-0.1-0.6-0.1c0,0-0.1,0.1,0,0.4c0,0,0,0.1,0,0.1c0,0.7,0,1.2,0,1.4
	c-0.1,0.3-0.4,0.4-0.9,0.5c-0.4,0-1.3,0-2.6-0.1c-0.1,0-0.3,0-0.4,0c-0.3,0-0.5,0-0.5,0c0,0-0.1,0-0.1,0.1c0,0.2-0.3,0.1-0.8-0.2
	l0,0c-0.3-0.2-0.4-0.2-0.5-0.2c-0.1,0-0.3,0.3-0.6,0.8c-0.4,0.6-0.9,0.8-1.2,0.6c-0.2-0.1-0.3-0.5-0.3-1.1c0-0.6,0.1-0.9,0.3-1.1
	c0.5-0.3-0.1-0.6-1.9-1.1c-0.3-0.1-0.5-0.1-0.5-0.1c0,0,0,0.1,0,0.4c0.1,0.6,0.1,1.2,0.1,1.8c0,0.6,0,0.9-0.1,1
	c-0.2,0.3-1.2,0.3-3,0.1c0,0,0,0-0.1,0c-0.3,0-0.5,0-0.6,0c0,0,0,0.2,0.2,0.5l0,0c0,0,0,0,0,0.1c0.1,0.2,0.2,0.3,0.3,0.3
	c0.1,0,0.2,0,0.5-0.1c0.1,0,0.1,0,0.1,0c0.9-0.2,1.6-0.2,2-0.1c0.4,0.1,0.6,0.5,0.6,1c0,0.6-0.1,1-0.4,1.1c-0.3,0.1-0.9-0.1-1.8-0.5
	c-0.5-0.2-0.8-0.4-0.9-0.4s-0.1,0-0.1,0.1c0,0.1,0,0.3,0.1,0.7c0.1,0.9,0.2,2.2,0.2,4c0,1.8,0,3.1-0.1,3.9c0,0.4,0,0.7,0.1,0.9
	c0.1,0.1,0.3,0.2,0.6,0.1c0.8-0.1,1.2-0.4,1.2-0.7c0-0.3,0.1-0.4,0.3-0.6c0.2-0.1,0.4-0.2,0.6,0c0.2,0.2,0.3,0.6,0.3,1.4
	c0,0.8-0.2,1.2-0.4,1.3c-0.1,0.1-0.6,0.1-1.6,0c-0.9,0-1.5-0.1-1.8-0.1c-0.1,0-0.1,0-0.1,0.1c0,0.1,0.1,0.2,0.2,0.5c0,0,0,0,0,0.1
	c0.1,0.2,0.2,0.4,0.3,0.4s0.2,0,0.5,0c0,0,0.1,0,0.1,0c0.7-0.1,1.3-0.2,1.8-0.2c0.5,0,0.8,0.1,0.9,0.3c0,0.1,0.1,0.6,0,1.5
	c0,0.9,0,1.6-0.1,2.3c0,0.5,0.1,0.8,0.4,0.9c0.3,0.1,0.8,0,1.3-0.3c0.2-0.1,0.3-0.2,0.4-0.3c0-0.1,0.1-0.4,0-0.8c0-0.1,0-0.1,0-0.1
	c0-0.1,0-0.3,0-0.6c0-1-0.1-1.7,0-1.9c0-0.4,0.2-0.6,0.5-0.7c0.2-0.1,0.6-0.1,1.3-0.1c0.2,0,0.3,0,0.4,0c1,0,1.5,0,1.7,0
	s0.3-0.1,0.4-0.2c0-0.1,0-0.1,0-0.2c-0.1-0.1-0.1-0.3,0-0.4s0.3-0.2,0.5-0.1c0.2,0,0.4,0.1,0.4,0.2c0,0,0.1,0.2,0.2,0.4
	c0.2,0.3,0.4,0.7,0.5,1.2c0.2,0.5,0.3,0.9,0.3,1.1c0,0.3,0.3,0.5,0.9,0.7c0.1,0,0.2,0,0.3,0.1l0,0c0,0,0,0.1,0,0.1
	c0,0.1,0.2,0.2,0.4,0.2c0.5,0.1,0.9,0.3,1.1,0.5c0.2,0.2,0.4,0.6,0.5,1.1c0,0,0,0.1,0,0.1C271.7,47.4,271.7,47.4,271.7,47.5z
	 M272.1,45.1c-0.2,0.1-0.8,0.1-1.6,0c-0.2,0-0.3-0.1-0.3-0.2c0-0.1,0-0.3,0.1-0.6c0.3-0.7-0.1-1.4-1.1-2.1c-0.5-0.4-0.7-0.6-0.6-0.7
	c0.2-0.1,0.8-0.1,1.9-0.1c0.1,0,0.2,0,0.3,0c0.8,0,1.3,0.1,1.4,0.2s0.2,0.6,0.2,1.4c0,0.1,0,0.2,0,0.3c0,0.8,0,1.3,0,1.4
	C272.3,44.9,272.2,45,272.1,45.1z M263.2,41.6c-0.2,0.1-0.3,0.1-0.5,0.1c-0.2,0-0.3-0.1-0.4-0.2c-0.1-0.1-0.1-0.4-0.1-1
	c0-0.6,0-1,0-1.2c0.1-0.4,0.3-0.5,0.6-0.4c0.3,0.1,0.5,0.3,0.5,0.7c0,0.3,0.1,0.5,0.4,0.5c0.3,0,0.6-0.1,1-0.3c0,0,0,0,0.1-0.1
	c0.2-0.2,0.4-0.3,0.4-0.4c0-0.1,0.1-0.3,0-0.7c0,0,0-0.1,0-0.1c-0.1-2.2-0.1-3.7-0.1-4.3c0-0.9,0-1.5,0.1-1.7
	c0.1-0.2,0.2-0.4,0.5-0.5c0.2-0.1,0.3-0.2,0.2-0.4c-0.1-0.2-0.4-0.5-1-0.9c-0.4-0.3-0.6-0.4-0.7-0.4c-0.1,0-0.3,0.1-0.5,0.4
	c-0.4,0.5-0.8,0.7-1.1,0.6c-0.3-0.1-0.4-0.5-0.4-1.1v0c0-0.4,0-0.6,0.1-0.6c0.1-0.1,0.2-0.2,0.5-0.3c0.2,0,0.6,0,1.4,0
	c0.1,0,0.1,0,0.1,0c0.9,0,1.5,0,1.6,0c0.2,0,0.3,0.1,0.4,0.2c0.1,0.2,0.2,1,0.2,2.5c0,1.5,0,2.6,0,3.4c0,0.5,0,0.8,0,0.9
	c0.1,0.1,0.2,0.2,0.5,0.1c0.3,0,0.6-0.1,1-0.2c0.3-0.2,0.5-0.3,0.5-0.4c0-0.4,0.3-0.6,1-0.6c0.4,0,0.7,0.1,0.8,0.2s0.2,0.4,0.2,1
	c0,0,0,0.1,0,0.1c0,0.4,0,0.6-0.1,0.7c-0.1,0.1-0.4,0.2-0.8,0.3c-0.3,0-1,0.1-2.2,0.1c-0.1,0-0.3,0-0.3,0c-0.1,0-0.2,0-0.3,0
	c-0.4,0-0.6,0.1-0.6,0.1c0,0.1,0,0.3,0.2,0.7c0,0.1,0.1,0.2,0.1,0.3c0,0,0,0.1,0.1,0.2c0.2,0.5,0.4,0.8,0.4,0.9
	c0.1,0.1,0.2,0,0.3-0.1l0,0c0.2-0.1,0.4-0.3,0.6-0.3c0.3-0.1,0.9-0.3,1.9-0.5c0.1,0,0.3-0.1,0.5-0.1c0.8-0.2,1.2-0.3,1.4-0.3
	c0.3,0,0.5,0,0.5,0.1c0.1,0.1,0.1,0.3,0.1,0.7c0,0.1,0,0.2,0,0.2c0,0.1,0,0.2,0,0.3c0,0.4,0,0.6-0.1,0.7c-0.1,0.1-0.3,0.2-0.7,0.2
	c-0.3,0-0.9,0-1.8,0c-0.4,0-0.7,0-0.9,0c-1.5,0-2.4,0-2.7,0c-0.3,0-0.4,0-0.4,0.1c0,0.1-0.1,0.1-0.3,0.1c-0.2-0.1-0.4-0.2-0.7-0.4
	l0,0c-0.2-0.1-0.3-0.2-0.3-0.2c0,0-0.1,0.1-0.3,0.3c0,0-0.1,0.1-0.1,0.1C263.7,41.2,263.4,41.5,263.2,41.6z M275.1,40.6
	c-0.3,0.1-0.4,0-0.5-0.3c-0.1-0.3,0-0.6,0.3-0.7c0.2-0.1,0.2-0.2,0-0.3c-0.1-0.1-0.4-0.2-1-0.4c-0.6-0.2-1-0.4-1-0.6s0.3-0.3,1-0.5
	c0.5-0.1,0.8-0.1,1,0c0.2,0.1,0.4,0.4,0.7,0.8c0,0,0.1,0.1,0.1,0.2c0.1,0.2,0.2,0.3,0.2,0.3c0.1,0.1,0.1,0.4-0.1,0.8
	C275.5,40.3,275.3,40.5,275.1,40.6z M263.1,38c-0.7,0.5-1.1,0.1-1.1-1.3s0.4-1.8,1.1-1.3c0.2,0.1,0.3,0.6,0.3,1.3
	S263.3,37.9,263.1,38z M259.7,38.1c-0.3,0-0.5-0.1-0.6-0.3c-0.1-0.2-0.1-0.6-0.1-1.1c0-0.6,0.1-1.1,0.3-1.3c0.2-0.2,0.5-0.2,0.8,0
	c0.2,0.1,0.3,0.6,0.3,1.3s-0.1,1.1-0.3,1.3C260,38.1,259.9,38.1,259.7,38.1z M273.8,37.2c-0.2,0.1-0.4,0.2-0.8,0.1
	c-0.3,0-0.5-0.1-0.6-0.3c-0.3-0.4-0.3-0.8-0.1-1.2c0.2-0.4,0.6-0.6,1.1-0.6c0.5,0,0.8,0.1,0.9,0.4c0.1,0.2-0.1,0.3-0.6,0.3
	c-0.2,0-0.3,0-0.3,0.1c0,0,0.1,0.2,0.3,0.4C274,36.7,274.1,37,273.8,37.2z M263,34.6c-0.4,0.1-0.6,0.1-0.7-0.1s-0.2-0.6-0.2-1.2
	c0-1.3,0.4-1.7,1.1-1.2c0.2,0.2,0.3,0.6,0.3,1.3C263.4,34.1,263.3,34.5,263,34.6z M270.1,34.5c-0.4,0.2-0.7,0.2-1.1,0
	c-0.4-0.2-0.6-0.4-0.6-0.8c0-0.4,0.2-0.6,0.6-0.8c0.4-0.2,0.8-0.2,1.1,0c0.2,0.1,0.3,0.4,0.3,0.8C270.4,34.1,270.3,34.3,270.1,34.5z
	 M260.1,34.6c-0.2,0.1-0.3,0.1-0.6,0.1c-0.2,0-0.3-0.1-0.4-0.3c-0.1-0.1-0.1-0.4-0.1-0.9s0-0.9,0-1.1c0.1-0.3,0.3-0.5,0.6-0.5
	s0.5,0.2,0.6,0.5c0.1,0.3,0.1,0.7,0,1.3C260.3,34.2,260.2,34.5,260.1,34.6z M273.4,34.5c-0.4,0-0.7,0-0.9-0.1
	c-0.1-0.1-0.2-0.3-0.2-0.7c0-0.4,0.1-0.6,0.2-0.7c0.1-0.1,0.4-0.2,0.9-0.2s0.7,0.1,0.9,0.2c0.1,0.1,0.2,0.3,0.2,0.7
	c0,0.4-0.1,0.6-0.3,0.7C274.1,34.5,273.8,34.5,273.4,34.5z M274.1,32.1c-0.4,0.2-0.8,0.2-1.2,0c-0.4-0.1-0.6-0.4-0.6-0.7
	c0-0.4,0.1-0.8,0.6-1c0.4-0.2,0.9-0.2,1.3,0.1c0.2,0.1,0.3,0.4,0.3,0.8C274.4,31.8,274.3,32,274.1,32.1z M270,32.1
	c-0.2,0.1-0.5,0.1-0.9,0.1c-0.4,0-0.6-0.1-0.6-0.3c-0.3-0.5-0.2-0.9,0.2-1.2c0.4-0.4,0.8-0.4,1.3-0.1c0.2,0.1,0.3,0.4,0.3,0.8
	C270.4,31.7,270.2,32,270,32.1z M270.1,29.7c-0.1,0.1-0.4,0.1-0.8,0.1s-0.8-0.1-1-0.1c-1.5-0.5-2-0.9-1.4-1.2
	c0.2-0.1,0.8-0.2,1.6-0.2s1.4,0,1.6,0c0.2,0.1,0.3,0.4,0.3,0.7C270.4,29.3,270.3,29.6,270.1,29.7z M286.7,47.4
	c0.7,0.2,1.2-0.1,1.5-1c0.3-0.9,0.2-2-0.2-3.3c0,0,0,0,0-0.1c-0.2-0.8-0.3-1.3-0.3-1.7c0-0.5,0.2-1.4,0.5-2.4
	c0.2-0.8,0.8-2.5,1.7-5.3c0-0.1,0.1-0.2,0.1-0.2c0-0.1,0-0.2,0.1-0.3c0.3-0.9,0.5-1.5,0.6-1.8c0.1-0.4,0.2-0.6,0.1-0.6
	c0-0.1,0-0.1-0.1-0.1c-0.1,0-0.2,0.1-0.3,0.4c-0.1,0.3-0.5,1-1,2.1c-0.1,0.2-0.3,0.6-0.5,1c-1.1,2.4-1.7,3.8-2,4.5
	c-0.4,0.9-0.8,1.4-1,1.7c-0.2,0.2-0.4,0.2-0.7,0.3c0,0-0.1,0-0.1,0c-0.3,0-0.5,0-0.5,0.1c-0.1,0-0.1,0.1,0,0.2c0,0.1,0,0.1,0.1,0.1
	c0,0,0.1,0,0.3,0.1c1.1,0.2,1.5,1.8,1.1,4.6c-0.1,1,0.1,1.6,0.7,1.8C286.7,47.4,286.7,47.4,286.7,47.4z M295.8,47.3c0,0,0.2,0,0.4,0
	c0.1,0,0.1,0,0.1,0c0.7-0.1,1.1-0.3,1.5-0.5c0.3-0.2,0.6-0.6,0.7-1c0-0.2,0.1-0.4,0.1-0.7c0-0.3,0-1.4,0-3.2v0c0-0.3,0-0.7,0-1.2
	c0-1.1,0-1.8,0-2.1c0-0.4,0.1-0.7,0.2-0.8c0.1-0.1,0.3-0.1,0.6-0.1c0.1,0,0.3,0,0.3,0c0.6,0,1,0,1.1,0.1c0.1,0.1,0.2,0.3,0.2,0.6
	c0,0.3,0.2,0.4,0.5,0.5c0.4,0,0.8-0.1,1.3-0.3c0,0,0,0,0.1,0c0.2-0.1,0.3-0.2,0.3-0.3c0-0.1,0-0.5,0-1.1c0-0.1,0-0.2,0-0.2
	c-0.1-1.7-0.1-2.7,0-3.2c0-0.5,0.2-0.8,0.4-0.9c0.3-0.1,0.4-0.3,0.4-0.4c0-0.1-0.3-0.4-0.8-0.8c-0.5-0.5-0.8-0.7-1.1-0.8
	c-0.1,0-0.2,0-0.3,0c-0.1,0-0.2,0.2-0.4,0.5c0,0-0.1,0.1-0.1,0.2c-0.2,0.3-0.4,0.5-0.7,0.6c-0.3,0-1.1,0.1-2.4,0.1
	c-0.3,0-0.6,0-0.8,0c-0.2,0-0.5,0-0.8,0c-1.2,0-2,0-2.3,0c-0.3,0-0.7-0.1-1.1-0.3c-0.1,0-0.2-0.1-0.3-0.1c-0.3-0.1-0.7-0.3-1.1-0.5
	c-0.1,0-0.2,0-0.2,0c0,0,0,0.2,0,0.4c0.1,0.9,0.2,2,0.2,3.3c0,1.3,0,2.5-0.1,3.6c0,0.6,0.4,0.8,1.3,0.6c0.3-0.1,0.6-0.2,0.7-0.3
	c0.1-0.1,0.2-0.3,0.2-0.4c0-0.3,0.1-0.5,0.2-0.6c0.2-0.1,0.5-0.1,1.1-0.1c0.1,0,0.2,0,0.3,0c0.3,0,0.6,0,0.6,0.1
	c0.1,0.1,0.2,0.4,0.2,0.7c0,0.3,0,1,0,2c0,0.4,0,0.7,0,1c0,0.2,0,0.5,0,0.8c0,1.1,0,1.7-0.1,2c0,0.4-0.2,0.6-0.4,0.7
	c-0.2,0.1-0.5,0.1-1.2,0c-0.2,0-0.4,0-0.5,0c-0.7,0-1-0.1-1.1,0c-0.2,0.1,0,0.2,0.4,0.3c0.6,0.1,1.1,0.4,1.4,0.7
	c0.3,0.3,0.5,0.7,0.5,1.2C295.8,47.2,295.8,47.2,295.8,47.3z M289.2,45.9c0.2,0.2,0.8-0.2,2-1.1c1.2-0.9,2.1-1.8,2.8-2.6
	c0.6-0.7,0.9-1,1.1-1c0.5-0.1,0.4-0.3-0.3-0.6c-0.1-0.1-0.4-0.2-0.9-0.5c-0.1-0.1-0.2-0.1-0.3-0.2c-0.4-0.2-0.6-0.3-0.7-0.4
	c-0.1,0-0.2,0-0.2,0.1c0,0.5-0.3,1.4-1,2.6c-0.7,1.2-1.4,2.2-2.1,3c-0.2,0.2-0.3,0.3-0.4,0.4C289.2,45.8,289.2,45.9,289.2,45.9z
	 M304.1,45.7c0.4,0.1,0.8,0.1,1.1-0.2c0.3-0.3,0.4-0.7,0.3-1.2c-0.1-0.8-0.6-1.6-1.4-2.3c-0.8-0.7-1.8-1.3-3.1-1.7
	c-0.5-0.2-0.8-0.2-0.8-0.1c0,0.1,0.1,0.3,0.5,0.7c1.3,1.4,2.3,2.8,2.9,4.2C303.6,45.4,303.8,45.6,304.1,45.7z M301,36.8
	c-0.1,0.1-1.2,0.1-3.2,0.1c-2,0-3.1,0-3.2-0.1c-0.2-0.1-0.3-0.2-0.3-0.4c0-0.2,0-0.8,0-1.7c0-0.9,0-1.4,0-1.6c0-0.2,0.1-0.3,0.3-0.4
	c0.1-0.1,1.2-0.1,3.3-0.1c2.1,0,3.2,0.1,3.3,0.1c0.2,0.2,0.3,0.8,0.3,2C301.4,36,301.2,36.7,301,36.8z M286.7,34.3
	c0.5,0.2,0.9,0.1,1.1-0.3c0.2-0.3,0.3-0.7,0.2-1.2c-0.1-0.5-0.4-0.9-0.9-1.2c-0.4-0.3-0.8-0.5-1.4-0.6c-0.5-0.1-0.9-0.2-1.2-0.2
	c-0.3,0-0.3,0.2-0.1,0.4c0.8,0.8,1.4,1.6,1.7,2.5c0.1,0.2,0.2,0.4,0.2,0.4C286.4,34.2,286.5,34.3,286.7,34.3z M290.6,29.8
	c0.1,0,0.2,0,0.4,0c0,0,0.1,0,0.1,0c0.7-0.1,1.3-0.2,2-0.2c0.7,0,2.7,0,6,0c0.3,0,0.8,0,1.3,0c2,0,3.2,0,3.8,0c0.7,0,1.2,0,1.4-0.1
	c0.1,0,0.2-0.1,0.2-0.2v0c0-0.2-0.3-0.6-1-1.2c-0.7-0.6-1.1-0.9-1.3-0.8c-0.1,0.1-0.4,0.4-0.8,1c-0.2,0.3-0.4,0.5-0.6,0.6
	c-0.2,0.1-0.7,0.1-1.6,0.1c0,0-0.1,0-0.1,0c-0.6,0-1,0-1.2,0c-0.2,0-0.4-0.1-0.4-0.3c0-0.1-0.1-0.4-0.1-0.8v0c0-0.4,0-0.7,0.1-0.9
	c0-0.2,0.2-0.3,0.3-0.4c0.3-0.2,0.2-0.3,0-0.5c-0.3-0.2-0.9-0.4-1.9-0.6c-0.4-0.1-0.7-0.2-0.7-0.1c0,0-0.1,0.1,0,0.4v0
	c0.2,1.9,0.2,3-0.2,3.1c-0.1,0.1-1,0.1-2.7,0c-1.6,0-2.7-0.1-3.3-0.1c-0.1,0-0.2,0-0.2,0.1s0.1,0.3,0.2,0.6c0,0,0,0,0,0.1
	C290.5,29.6,290.6,29.7,290.6,29.8z M288.4,29.2c0.4,0.2,0.8,0.1,1.2-0.2c0.3-0.3,0.5-0.6,0.4-1c-0.1-0.4-0.4-0.8-0.8-1.2
	c-0.5-0.4-1-0.7-1.6-0.9c-0.8-0.2-1.4-0.3-1.6-0.2c-0.2,0-0.1,0.3,0.2,0.6c0.7,0.7,1.3,1.5,1.8,2.4c0.1,0.3,0.2,0.4,0.3,0.5
	C288.2,29.1,288.3,29.1,288.4,29.2z M31.1,71.3c0.2,0.1,0.5,0.1,0.9,0c0.4-0.1,0.8-0.3,1-0.5c0.1-0.1,0.1-0.2,0.1-0.3
	c0-0.1,0-0.6,0-1.4c0-0.2,0-0.4,0-0.7c0-0.6,0-0.9,0-1.1c0.1-0.2,0.4-0.4,0.9-0.4c0.3,0,1.1,0,2.4,0c0.7,0,1.2,0,1.6,0
	c0.2,0,0.5,0,0.8,0c1.5,0,2.4,0,2.8,0c0.5,0,0.9,0,1-0.1c0.1,0,0.2-0.1,0.2-0.2v0c0-0.2-0.2-0.5-0.8-1.1c-0.5-0.5-0.9-0.8-1.1-0.8
	c-0.1,0-0.4,0.3-0.7,0.8c-0.2,0.4-0.5,0.6-0.7,0.6c-0.1,0-1.2,0-3,0c-1.9,0-2.9,0-3-0.1c-0.2-0.1-0.3-0.2-0.3-0.4
	c0-0.2,0.2-0.4,0.5-0.5c0.6-0.4,1.3-0.9,2.1-1.5c0.3-0.3,0.5-0.4,0.7-0.5c0.1,0,0.3,0,0.5,0.1c0.2,0.1,0.4,0.4,0.7,0.7
	c0.3,0.4,0.5,0.7,0.7,1c0.2,0.3,0.4,0.5,0.7,0.5c0.3,0,0.6-0.1,0.7-0.4c0.2-0.4,0.1-0.9-0.2-1.4c-0.4-0.5-0.9-0.9-1.5-1.1
	c-0.4-0.1-0.6-0.3-0.6-0.4c0-0.2,0.1-0.5,0.3-0.9c0.2-0.3,0.3-0.4,0.4-0.4c0.4-0.1,0-0.4-1.2-0.9c0,0-0.1,0-0.1,0
	c-0.4-0.2-0.6-0.3-0.7-0.2c-0.1,0-0.1,0.1-0.2,0.4c0,0,0,0.1,0,0.1c-0.2,1-0.7,2.1-1.3,3.2c-0.7,1.1-1.1,1.5-1.4,1.2
	c-0.1-0.1-0.1-0.2-0.1-0.4c0-0.2,0-0.8,0-1.6c0-1,0-1.6,0-1.8c0-0.2,0.2-0.4,0.4-0.5c0.8-0.4,1.5-0.9,2.1-1.5
	c0.4-0.3,0.6-0.5,0.8-0.5s0.5,0.2,0.8,0.5c0.4,0.4,0.7,0.8,0.9,1.2c0.2,0.4,0.5,0.6,0.8,0.6c0.3,0,0.6-0.1,0.7-0.4
	c0.2-0.3,0.2-0.7,0-1.1c-0.3-0.6-0.9-1-1.8-1.3c-0.5-0.2-0.7-0.3-0.7-0.5c0-0.1,0.1-0.3,0.3-0.6c0.2-0.3,0.3-0.4,0.4-0.4
	c0.1,0,0.1,0,0.2-0.1c0.1-0.1,0.2-0.1,0.3,0c0.2,0,0.4,0.2,0.9,0.4c0.8,0.4,1.4,0.7,1.7,0.8c0.3,0.1,0.5,0,0.5-0.1
	c0.1-0.3,0.3-0.7,0.5-1c0.3-0.3,0.5-0.5,0.8-0.7c0.3-0.2,0.4-0.3,0.3-0.4c-0.1-0.1-0.4-0.2-0.9-0.4c-1.5-0.4-3-0.9-4.5-1.5
	c-1.4-0.6-2.5-1.2-3.3-1.7c-0.8-0.6-1-0.9-0.6-1.1c0.2-0.1,0.3-0.2,0.3-0.2c0-0.1-0.1-0.1-0.4-0.2c-0.2-0.1-0.6-0.2-1.3-0.4
	c0,0-0.1,0-0.1,0c-0.1,0-0.2-0.1-0.4-0.1c-0.7-0.2-1.1-0.3-1.2-0.3c-0.1,0-0.2,0.1-0.2,0.2l0,0c-0.4,1.2-1.4,2.6-3,4.2
	c-1.6,1.6-3.5,2.9-5.5,3.9c-0.3,0.1-0.4,0.2-0.5,0.3c0,0.1,0,0.1,0,0.2c0.1,0.1,0.6-0.1,1.4-0.4c0.9-0.4,1.7-0.8,2.6-1.2
	c0.8-0.4,1.2-0.6,1.3-0.5c0.2,0.2,0,0.7-0.7,1.7c-0.7,1-1.4,1.7-2.1,2.3c-0.2,0.2-0.3,0.3-0.4,0.3c0,0,0,0.1,0.1,0.2
	c0.1,0.1,0.5,0,1.2-0.4c0.7-0.4,1.3-0.8,1.9-1.2c0.3-0.3,0.5-0.4,0.6-0.5c0.1-0.1,0.2-0.1,0.3-0.1c0.4,0,0.8,0.5,1.3,1.4
	c0.2,0.4,0.5,0.6,0.8,0.6c0.3,0,0.5-0.1,0.7-0.4s0.2-0.6,0-1c-0.2-0.4-0.7-0.8-1.4-1.1c-0.4-0.1-0.5-0.3-0.6-0.4
	c0-0.2,0.1-0.4,0.3-0.7c0.1-0.2,0.2-0.2,0.3-0.2c0.2,0,0.3-0.1,0.2-0.2c-0.1-0.1-0.3-0.3-0.6-0.4c-0.4-0.2-0.6-0.4-0.6-0.5
	c0-0.1,0.2-0.4,0.6-0.6c1.7-1.2,2.9-2.2,3.5-2.9c0.2-0.3,0.5-0.4,0.7-0.4c0.1,0,0.2,0,0.2,0.1c0.1,0,0.2,0.2,0.4,0.5
	c0.1,0.1,0.1,0.2,0.2,0.2c0.5,0.7,1.2,1.4,2,2.1c0.4,0.3,0.5,0.5,0.6,0.7c0,0.1,0,0.2-0.3,0.2c-0.1,0-0.2,0-0.2,0.1
	c0,0-0.1,0.2-0.1,0.4c-0.2,1-0.6,2-1.2,2.9c-0.6,0.9-1,1.3-1.2,1c-0.2-0.2-0.2-1-0.2-2.3c0-1.4,0.1-2.1,0.3-2.2
	c0.2-0.1,0.2-0.3-0.1-0.5c-0.3-0.2-1-0.4-2-0.7h0c-0.2-0.1-0.3-0.1-0.4,0c0,0,0,0.3,0,0.6c0.1,1.2,0.2,2.9,0.2,5c0,1.2,0,2.4,0,3.6
	c0,1.5,0,2.4,0,2.7c0,0.3-0.1,0.4-0.3,0.5c-0.1,0.1-1.6,0.1-4.4,0.1s-4.4-0.1-4.7-0.1c-0.1,0-0.2,0-0.2,0.1c0,0.1,0.1,0.2,0.2,0.5
	c0,0,0,0.1,0.1,0.1c0.1,0.2,0.2,0.3,0.3,0.4c0.1,0,0.3,0,0.6,0c0.1,0,0.2,0,0.2,0c1.1-0.1,2.7-0.2,4.9-0.2c0.2,0,0.5,0,0.8,0
	c1,0,1.6,0,1.9,0.1c0.4,0.1,0.6,0.3,0.6,0.7c0,0.3,0,0.9,0,1.9c0,0.3,0,0.6,0,0.8c0,0.4,0,0.7,0,0.8C30.9,71.1,31,71.2,31.1,71.3z
	 M23.1,65.5c0.1,0.1,0.5-0.1,1.2-0.6c0.7-0.5,1.4-0.9,1.8-1.4c0.3-0.3,0.5-0.4,0.6-0.5c0.1-0.1,0.3-0.1,0.4,0
	c0.2,0.1,0.4,0.3,0.7,0.7c0.3,0.4,0.6,0.8,0.8,1.2c0.1,0.3,0.4,0.4,0.7,0.4c0.3,0,0.6-0.1,0.7-0.4c0.3-0.4,0.2-0.8-0.2-1.3
	c-0.4-0.5-0.9-0.9-1.6-1.1c-0.4-0.1-0.7-0.3-0.7-0.4c0-0.2,0.1-0.5,0.4-0.8c0.1-0.2,0.2-0.3,0.3-0.3c0.3,0,0.3-0.1,0.1-0.2
	c-0.2-0.2-0.6-0.4-1.2-0.7c0,0,0,0-0.1,0c-0.4-0.2-0.6-0.3-0.7-0.3c-0.1,0-0.1,0.2-0.2,0.4c0,0,0,0.1,0,0.1
	c-0.5,1.9-1.4,3.4-2.8,4.5C23.2,65,23,65.1,23,65.2C22.9,65.3,23,65.4,23.1,65.5z M54.3,71.2c0,0.1,0.2,0.1,0.5,0
	c0.3-0.1,0.9-0.3,1.8-0.6c2.8-1.1,5.2-2.5,7.1-4.4c0.4-0.4,0.7-0.6,0.8-0.7c0.2-0.1,0.4-0.1,0.6,0.1c0.1,0.1,0.4,0.5,0.9,1.1
	c0.8,1.1,1.5,2.2,2,3.2c0.3,0.5,0.4,0.8,0.5,0.9c0.1,0.1,0.3,0.2,0.6,0.3c0.6,0.1,0.9-0.1,1.2-0.6c0.2-0.5,0.2-1.1-0.1-1.8
	c-0.5-1.3-1.8-2.6-3.8-3.6c-0.5-0.3-0.8-0.5-0.9-0.6c0-0.2,0-0.5,0.3-0.9c0.7-1.3,1.3-2.8,1.6-4.3c0.3-1.5,0.6-3.6,0.7-6.3
	c0-0.6,0-1,0.1-1.2c0.1-0.2,0.2-0.3,0.3-0.4c0.3-0.2,0.3-0.3,0-0.4c-0.3-0.1-1-0.2-2.1-0.4c-0.4,0-0.7-0.1-0.8,0
	c-0.1,0-0.1,0.1-0.1,0.1c0.1,0.3,0.1,1.4,0.1,3.2c-0.1,4.1-0.9,7.5-2.5,10.1c-1.6,2.6-4.3,4.8-8,6.6c-0.5,0.2-0.7,0.4-0.8,0.4
	C54.3,71,54.3,71.1,54.3,71.2z M50.1,69.4c0.1,0.1,0.2,0,0.3-0.1c0.2-0.2,0.4-0.4,0.6-0.5c0.2-0.1,0.8-0.4,1.6-0.9
	c1.8-0.9,3.5-1.8,5.1-2.7c1.6-1,2.5-1.5,2.5-1.6c0-0.1-0.1-0.1-0.3-0.1c-0.2,0-1,0.3-2.3,0.7c-1.4,0.4-2.2,0.7-2.5,0.8
	c-0.3,0.1-0.5,0.1-0.6,0c-0.1-0.1-0.2-0.5-0.2-1.1c0-0.7-0.1-2.7-0.1-5.9c0-0.3,0-0.8,0-1.4c0-1.9,0-3.2,0-3.7c0-0.7,0-1.2,0-1.4
	c0-0.1,0.1-0.3,0.2-0.3l0,0c0.2-0.2,0.2-0.3,0.1-0.4c-0.2-0.1-0.6-0.2-1.2-0.2c-0.9-0.1-1.3-0.1-1.3,0c0,0.1,0,2.6,0.1,7.3
	c0,0.3,0,0.6,0,1.1c0,3.3,0.1,5.3,0.1,5.9c0,0.6,0,0.9-0.1,1c-0.1,0.2-1,0.6-2.5,0.9c-0.4,0.1-0.5,0.1-0.5,0.2c0,0,0.2,0.4,0.5,1.2
	C49.9,68.9,50.1,69.3,50.1,69.4z M60.7,59.1c0.5,0.2,1,0,1.2-0.4c0.3-0.4,0.3-1,0-1.7c-0.5-1.4-1.9-2.6-4.2-3.5
	c-0.5-0.2-0.8-0.3-0.8-0.2c0,0.1,0.1,0.3,0.5,0.7c1.3,1.6,2.1,3,2.6,4.3C60.1,58.8,60.4,59,60.7,59.1z M83.1,71.3
	c0,0.1,0.1,0.1,0.2,0.1s0.3-0.1,0.6-0.2c2.7-0.9,5-2.2,6.9-3.9c0.3-0.3,0.6-0.4,0.7-0.4c0.1,0,0.4,0.3,0.7,0.7
	c1.1,1.4,2.4,2.6,4,3.5c0.2,0.1,0.4,0.2,0.4,0.2c0.1,0,0.1-0.1,0.2-0.3c0.1-0.3,0.3-0.6,0.6-0.9c0.3-0.3,0.6-0.5,0.9-0.6
	c0.2-0.1,0.3-0.2,0.3-0.2c0-0.1-0.2-0.2-0.5-0.3c-1.2-0.4-2.3-1.1-3.6-2c-1.2-0.9-1.8-1.5-1.8-1.9c0-0.1,0.2-0.5,0.6-1.2
	c1.2-2,2-4.4,2.5-7.2c0.1-0.7,0.3-1.1,0.4-1.2c0.1-0.1,0.5-0.2,1.1-0.2c0.7,0,1-0.1,0.9-0.4c-0.1-0.3-0.5-0.8-1.3-1.4
	c-0.4-0.3-0.7-0.5-0.8-0.5c-0.1,0-0.3,0.2-0.6,0.6c0,0-0.1,0.1-0.1,0.2c-0.3,0.4-0.6,0.7-0.8,0.7c-0.2,0.1-0.8,0.1-1.7,0.1
	c-0.2,0-0.3,0-0.4,0c-0.1,0-0.2,0-0.3,0c-0.8,0-1.3,0-1.5,0c-0.3,0-0.5-0.1-0.5-0.3c0-0.1,0.1-0.4,0.2-0.8c0,0,0-0.1,0-0.1
	c0-0.1,0.1-0.2,0.1-0.4c0.2-0.6,0.3-1,0.4-1.2c0.3-0.8,0.5-1.2,0.7-1.4c0.2-0.1,0.2-0.3-0.1-0.5c-0.3-0.2-0.9-0.4-2-0.6
	c0,0-0.1,0-0.1,0c-0.4-0.1-0.6-0.1-0.7-0.1c-0.1,0-0.1,0.2-0.1,0.5c0,0,0,0.1,0,0.1c-0.1,1.3-0.4,2.8-0.8,4.5
	c-0.4,1.7-1,3.2-1.6,4.4c0,0,0,0.1-0.1,0.2c-0.2,0.4-0.3,0.6-0.3,0.7c0,0.1-0.2,0.4-0.4,0.8c-0.2,0.3-0.2,0.4-0.3,0.5
	c0,0.1,0,0.1,0.1,0.2c0.1,0.1,0.4-0.2,0.9-0.6c0.5-0.5,1-1.1,1.5-1.8c0.3-0.4,0.6-0.7,0.7-0.6c0.1,0,0.3,0.3,0.4,0.8
	c0.4,2,0.9,3.7,1.5,5.3c0.1,0.4,0.2,0.7,0.1,0.9c0,0.2-0.2,0.5-0.6,0.9c-0.7,0.9-1.6,1.8-2.8,2.7c-1.1,0.9-2.3,1.6-3.5,2.2
	c-0.3,0.2-0.5,0.3-0.6,0.3C83,71.2,83,71.2,83.1,71.3z M79.4,68.3c0.7,0.1,1.7,0.1,3.2,0c1.5-0.1,2.4-0.2,2.8-0.3
	c0.6-0.2,1.1-0.4,1.2-0.8c0.2-0.4,0.1-0.8-0.3-1.1c-0.2-0.2-0.3-0.4-0.4-0.7c0-0.3-0.1-1.1-0.1-2.5v0c0-0.1,0-0.1-0.1-0.2
	c0,0-0.1,0-0.1,0c0,0-0.1,0.4-0.3,1c0,0.1,0,0.2-0.1,0.3c-0.2,0.8-0.4,1.3-0.5,1.5c-0.2,0.3-0.4,0.5-0.7,0.6c-0.2,0-0.8,0.1-1.6,0.1
	c-0.1,0-0.3,0-0.3,0c-0.2,0-0.4,0-0.7,0c-0.6,0-1,0-1.2-0.1c-0.2-0.1-0.4-0.3-0.4-0.7c0-0.3-0.1-0.9,0-1.9c0-0.5,0-0.9,0-1.2
	c0-0.3,0-0.7,0-1.2c0-1,0-1.6,0-1.8c0-0.4,0.2-0.6,0.3-0.7c0.1-0.1,0.4-0.1,0.9-0.1c0.2,0,0.4,0,0.6,0c0.8,0,1.2,0,1.4,0.1
	c0.2,0,0.3,0.2,0.3,0.4V59c0,0.1,0,0.2,0,0.3c0,0.6,0.5,0.6,1.6,0.1c0,0,0.1,0,0.1-0.1c0.3-0.1,0.4-0.2,0.4-0.4c0-0.1,0.1-0.6,0-1.2
	c0-0.2,0-0.3,0-0.4c0-1.6-0.1-2.6-0.1-3.1c0-0.6,0.1-1.1,0.2-1.3c0.1-0.2,0.2-0.4,0.5-0.5c0.2-0.1,0.2-0.3,0-0.5
	c-0.2-0.2-0.5-0.6-1.1-1.1c-0.4-0.3-0.6-0.5-0.7-0.5c-0.1,0-0.3,0.2-0.5,0.5c0,0-0.1,0.1-0.1,0.2c-0.3,0.3-0.5,0.5-0.7,0.6
	c-0.2,0-0.8,0.1-1.8,0c-0.2,0-0.4,0-0.6,0c-1.2,0-2.2,0-2.8-0.1c-0.4,0-0.6,0-0.6,0c0,0,0,0.2,0.2,0.6l0,0c0.1,0.3,0.2,0.4,0.3,0.4
	c0.1,0,0.3,0,0.5,0c0.8-0.1,1.8-0.2,2.9-0.2c1.1,0,1.8,0,1.9,0.1c0.2,0.1,0.3,0.2,0.3,0.5c0,0.2,0,1,0,2.2c0,0.2,0,0.4,0,0.7
	c0,0.8,0,1.3,0,1.5c0,0.3-0.2,0.5-0.4,0.5c-0.1,0.1-0.5,0.1-1,0.1c-0.2,0-0.3,0-0.5,0c-0.1,0-0.2,0-0.3,0c-0.6,0-1.1,0-1.3-0.1
	c-0.2,0-0.6-0.2-1.3-0.5c-0.1,0-0.1-0.1-0.1-0.1c0,0-0.1,0-0.2-0.1c-0.5-0.2-0.8-0.3-0.8-0.3c-0.1,0-0.1,0.2,0,0.5
	c0,0.1,0,0.1,0,0.1c0.1,1.2,0.2,3.2,0.2,5.9c0,0.1,0,0.2,0,0.4c0,1.6,0,2.7,0.1,3.1c0,0.6,0.2,1,0.4,1.2
	C78.4,68.2,78.7,68.3,79.4,68.3C79.3,68.3,79.4,68.3,79.4,68.3z M91.7,63c-0.2,0.2-0.4,0.1-0.6-0.2c-0.2-0.3-0.5-0.9-0.9-1.8
	c-0.6-1.5-1-2.7-1.1-3.6c-0.1-0.9,0.1-1.5,0.6-2c0.2-0.2,0.9-0.3,2.1-0.3c1.1,0,1.7,0.1,1.8,0.3c0.2,0.4,0,1.6-0.6,3.7
	C92.6,61.4,92.1,62.6,91.7,63z M104.9,71.4c0,0,0.5,0,1.2-0.1c3.3-0.4,6-1,8.2-1.9c0.4-0.1,0.6-0.2,0.8-0.2c0.2,0,0.4,0,0.7,0.1
	c2.4,1.1,5.1,1.8,8.2,2c0.3,0,0.5,0,0.6,0c0.1,0,0.1-0.1,0.2-0.2c0-0.2,0.2-0.5,0.4-0.8c0.2-0.3,0.4-0.5,0.6-0.6
	c0.3-0.1,0.4-0.2,0.3-0.3c0-0.1-0.3-0.1-0.7-0.1c-2.1-0.1-4-0.3-5.5-0.5c-1.5-0.2-2.3-0.5-2.4-0.7c0-0.1,0-0.2,0.1-0.3
	c0.1-0.1,0.3-0.3,0.6-0.5c0.5-0.4,1-0.8,1.6-1.4c0.1-0.1,0.2-0.2,0.3-0.3c0.4-0.4,0.6-0.6,0.8-0.6c0.2-0.1,0.7-0.1,1.4-0.1
	c0.2,0,0.4,0,0.6,0c1,0,1.6,0,1.8,0c0.2,0,0.3-0.1,0.4-0.2c0.1-0.2-0.3-0.8-1.4-1.6c-0.4-0.3-0.6-0.5-0.6-0.6
	c-0.1-0.1-0.1-0.5-0.1-1c-0.1-1.3-0.1-2.2,0-2.8c0-0.2,0-0.4,0-0.6c-0.1-0.7,0-1.2,0.3-1.3c0.3-0.1,0.5-0.1,0.7,0
	c0.2,0.1,0.3,0.4,0.4,0.7c0,0.3,0.2,0.4,0.5,0.5c0.3,0.1,0.6,0,0.8-0.2c0.4-0.4,0.4-0.9,0-1.5c-0.3-0.6-0.9-1-1.7-1.4
	c-0.7-0.3-0.9-0.2-0.6,0.2c0.3,0.4,0.2,0.7-0.1,0.9c-0.3,0.2-0.7,0.2-1.2,0c-0.2-0.1-0.2-0.3,0-0.5c0.2-0.3,0.5-0.5,0.9-0.7
	c0.2-0.1,0.4-0.2,0.5-0.5c0.1-0.3,0.3-0.6,0.7-0.9c0.4-0.4,0.6-0.6,0.8-0.6c0.3,0,0.4-0.2,0.2-0.3c-0.2-0.2-0.6-0.4-1.2-0.7
	c0,0,0,0-0.1,0c-0.4-0.2-0.7-0.3-0.7-0.3c-0.1,0-0.2,0.1-0.2,0.3c-0.2,0.6-0.4,1-0.6,1.5c-0.2,0.4-0.4,0.6-0.5,0.6
	c-0.1,0-0.1,0-0.2,0c-0.1-0.1-0.1-0.1-0.1-0.2c0,0-0.1-0.2-0.2-0.4c-0.2-0.3-0.2-0.5-0.1-0.7c0.1-0.2,0.4-0.5,0.9-0.9
	c0.7-0.7,1.2-1,1.3-1.1c0.2-0.1,0.3-0.2,0.1-0.4c-0.2-0.1-0.6-0.4-1.2-0.7c-0.4-0.2-0.7-0.3-0.8-0.3c-0.1,0-0.1,0-0.2,0.2
	c-0.3,1.1-0.6,1.9-0.8,2.2c-0.2,0.4-0.6,0.5-1,0.3c-0.4-0.1-0.7-0.1-0.7-0.1c-0.2,0.2-0.4,0.1-0.7-0.2c-0.2-0.2-0.1-0.4,0.2-0.6
	c0.1-0.1,0.1-0.3,0-0.5c-0.2-0.3-0.5-0.5-0.9-0.8c-0.3-0.2-0.5-0.3-0.6-0.2c-0.1,0-0.3,0.2-0.6,0.6c-0.4,0.5-1.4,0.6-3.1,0.4
	c0,0,0,0-0.1,0c-0.2,0-0.3,0-0.4,0l0.2,0.5c0.1,0.3,0.2,0.5,0.3,0.6c0,0,0.2,0,0.6-0.1c2.7-0.4,3.7-0.2,3,0.6
	c-0.3,0.3-1.1,0.5-2.6,0.4c-1.5,0-2.5-0.2-3.3-0.6c0,0-0.1,0-0.2-0.1c-0.4-0.2-0.7-0.3-0.8-0.3c-0.1,0-0.2,0.1-0.2,0.2l0,0.1
	c-0.4,1.3-0.7,2-1,2c-0.1,0-0.1,0-0.2,0c-0.1-0.1-0.1-0.1-0.1-0.2c0,0,0-0.1-0.1-0.2c-0.2-0.3-0.2-0.5-0.2-0.6
	c0.1-0.2,0.3-0.4,0.7-0.8c0.1-0.1,0.2-0.2,0.3-0.3c0.3-0.3,0.5-0.5,0.6-0.6c0.2-0.2,0.4-0.4,0.6-0.5c0.2-0.1,0.3-0.2,0-0.4
	c-0.2-0.2-0.7-0.4-1.4-0.7c-0.3-0.1-0.4-0.2-0.5-0.2c-0.1,0-0.1,0-0.1,0.1c-0.1,0.4-0.3,1-0.5,1.8c-0.2,0.6-0.4,0.9-0.6,1.1
	c-0.1,0.1-0.4,0.1-0.9,0c-0.4-0.1-0.6-0.1-0.7-0.1c-0.1,0.1,0,0.2,0.2,0.5c0.5,0.6,0.8,1.2,1.1,1.8c0.1,0.3,0.3,0.4,0.7,0.4
	c0.5,0,0.6,0.3,0.2,0.9c-0.2,0.3-0.3,0.4-0.5,0.5c-0.2,0.1-0.5,0.1-1.1,0.1c-0.5,0-0.8,0.1-0.8,0.1c0,0,0.1,0.3,0.3,0.8
	s0.4,0.9,0.4,1c0.1,0.2,0.1,0.7,0,1.6c-0.1,0.9-0.3,1.7-0.6,2.4c-0.2,0.6-0.2,0.9-0.1,0.9c0.1,0,0.4-0.2,0.7-0.6
	c0.4-0.4,0.8-1,1.2-1.8c0.4-0.8,0.7-1.1,0.8-0.8c0.1,0.3,0.1,1.2,0,2.7c0,0.7,0.4,0.8,1.2,0.5c0.3-0.1,0.5-0.2,0.6-0.4
	c0-0.1,0.1-0.6,0-1.2c-0.1-1.5,0-2.4,0-2.7c0-0.2,0-0.4,0-0.6c-0.1-0.4-0.1-0.7,0-0.9c0.1-0.3,0.2-0.4,0.5-0.4c0.1,0,0.2,0,0.3,0.1
	c0.1,0.1,0.2,0.3,0.2,0.5c0.1,0.3,0.2,0.5,0.4,0.6c0.2,0.1,0.5,0,0.8-0.2c0.4-0.2,0.4-0.6,0.2-1.1c-0.2-0.5-0.5-1-1.1-1.3
	c-0.5-0.3-0.9-0.5-1.1-0.5c-0.2,0-0.2,0.1-0.1,0.5c0.2,0.3,0.2,0.5,0.2,0.7c-0.1,0.1-0.3,0.2-0.7,0.2c-0.5,0-0.7-0.1-0.7-0.4
	c0-0.3,0.3-0.6,0.8-0.8c0.2-0.1,0.4-0.3,0.5-0.5c0.3-0.5,0.6-0.9,1.1-1.2c0.4-0.3,0.8-0.4,1-0.2c0,0,0.8,0.1,2.2,0.1
	c1,0,1.6,0,1.8,0c0.4,0,0.5,0.1,0.6,0.2c0,0.1,0,0.2-0.2,0.5c-0.2,0.3-0.5,0.5-0.9,0.6c-0.3,0-1.1,0-2.4-0.1c-0.3,0-0.4,0-0.4,0
	c0,0,0.1,0.2,0.2,0.6c0,0,0,0.1,0.1,0.1c0.1,0.2,0.2,0.3,0.2,0.3c0,0,0.2,0,0.3-0.1c0,0,0.1,0,0.1,0c0.2-0.1,0.7-0.1,1.5-0.1
	c0.8,0,1.2,0,1.4,0.1c0.1,0.1,0.1,0.2-0.1,0.5c-0.3,0.3-0.6,0.5-0.9,0.6c-0.4,0.1-1,0-2,0c0,0-0.1,0-0.1,0l-0.6,0c0,0,0,0.2,0.2,0.5
	c0.2,0.3,0.3,0.5,0.3,0.6c0,0,0.3,0,0.7-0.1c1.1-0.1,1.9-0.2,2.6-0.2c0.9,0,1.5,0,1.7-0.1c0.2-0.1,0.4,0.1,0.7,0.6
	c0.3,0.5,0.4,1,0.3,1.4c0,0.1,0,0.2,0,0.3c0,0.3,0,0.4,0,0.5c0,0.7-0.2,1.6-0.6,2.6c-0.1,0.2-0.1,0.3-0.1,0.3c0,0,0.1,0.1,0.1,0.1
	c0.1,0.1,0.4-0.1,0.7-0.5c0.3-0.4,0.7-0.9,1.1-1.5c0.5-0.8,0.8-1.1,0.9-0.8c0.1,0.3,0.1,1.2,0,2.7c0,0.3,0,0.5,0.1,0.6
	c0.1,0.1,0.2,0.1,0.5,0.1c0.3,0,0.5,0.1,0.5,0.3c0,0.2-0.1,0.4-0.5,0.6c-0.1,0.1-1.5,0.1-4.1,0.1c-2.7,0-4,0-4.1-0.1
	c-0.2-0.1-0.2-0.3,0-0.6c0.2-0.3,0.4-0.4,0.6-0.5c0.2,0,0.3-0.1,0.3-0.1c0-0.1-0.1-0.2-0.2-0.2c-0.1-0.1-0.2-0.2-0.2-0.3
	s0.1-0.2,0.2-0.4c0.1-0.1,0.2-0.2,0.2-0.2c0-0.2,0.3-0.4,0.9-0.4c0.6,0,1,0,1.1,0.3c0.1,0.1,0.1,0.2,0.1,0.2c0,0,0.1,0,0.2,0
	c0.5,0,0.9-0.1,1.1-0.3c0.2-0.2,0.3-0.5,0.2-0.9c0-0.7,0-1.2,0-1.4c0-0.2,0.2-0.4,0.4-0.6c0.2-0.1,0.2-0.2,0.2-0.3
	c0-0.1-0.1-0.2-0.3-0.4c-0.4-0.4-0.8-0.6-1-0.7c-0.2-0.1-0.5,0-0.7,0.3c-0.3,0.3-0.7,0.5-1.2,0.5c-0.5,0-1-0.1-1.5-0.3
	c-0.8-0.4-1.2-0.5-1.3-0.5c-0.1,0-0.1,0.3,0,0.7c0,0.1,0.1,0.6,0.1,1.6c0,0.9,0.1,1.6,0,1.9c0,0.2-0.1,0.4-0.2,0.5
	c-0.1,0.1-0.3,0-0.4-0.1c-0.1-0.1-0.1-0.3,0-0.7c0.2-0.4,0.2-0.9,0-1.4c-0.3-0.5-0.7-1-1.4-1.5c-0.3-0.2-0.5-0.3-0.6-0.2
	c0,0.1,0,0.4,0.2,0.8c0.2,0.5,0.4,1.1,0.4,1.6c0.1,0.4,0.1,0.6,0.1,0.7c0,0.1,0.1,0.2,0.2,0.2c0.3,0.2,0.3,0.7-0.1,1.5
	c-0.4,0.8-1,1.6-1.8,2.5c-0.9,0.9-1.8,1.7-2.7,2.4c-0.3,0.2-0.5,0.4-0.6,0.4c-0.1,0.1-0.1,0.2,0,0.2c0.1,0.1,0.6-0.1,1.6-0.5
	c0.9-0.4,1.8-0.9,2.5-1.4c0,0,0.1-0.1,0.2-0.1c0.6-0.4,0.9-0.6,1.1-0.6c0.1,0,0.4,0.2,0.7,0.5c0,0,0.1,0.1,0.1,0.1
	c0.5,0.5,0.9,0.9,1.1,1c0.4,0.4,0.6,0.7,0.5,0.8c-0.1,0.2-0.5,0.4-1.2,0.7c-1.8,0.8-4,1.4-6.4,1.9c-0.5,0.1-0.8,0.2-0.9,0.2
	C104.8,71.2,104.8,71.3,104.9,71.4z M115.5,67.2c-0.2,0.1-0.5,0.1-0.9,0c-0.3-0.1-0.8-0.4-1.5-0.8c-0.6-0.4-1-0.7-1.2-1
	c-0.2-0.2-0.1-0.4,0.1-0.6c0.1-0.1,1-0.1,2.7-0.1c1.7,0,2.6,0,2.7,0.1c0.2,0.1,0,0.5-0.4,1C116.6,66.5,116.1,66.9,115.5,67.2z
	 M125,61.9c0,0,0.1,0,0.1,0c0.4,0,0.6-0.2,0.6-0.7c0-0.4-0.1-0.9-0.4-1.4c-0.3-0.6-0.7-1-1.2-1.3c-0.5-0.4-0.9-0.5-0.9-0.4
	c-0.1,0,0,0.3,0.3,0.9c0.4,0.8,0.6,1.5,0.7,2c0.1,0.3,0.1,0.5,0.1,0.6s0.1,0.1,0.2,0.2c0.1,0,0.2,0.1,0.3,0.1
	C124.9,61.9,125,61.9,125,61.9z M116,60.7c-0.2,0.1-0.5,0.1-0.9,0.1c-0.4-0.1-0.6-0.2-0.7-0.3c-0.2-0.4-0.2-0.8,0-1.2
	c0.2-0.4,0.5-0.6,1-0.6c0.3,0,0.6,0.1,0.8,0.4c0.2,0.3,0.3,0.6,0.3,0.9C116.4,60.3,116.3,60.6,116,60.7z M121,58.3
	c-0.1,0.1-0.4,0.1-0.9,0c-0.4-0.1-0.7-0.3-0.7-0.4c0-0.2,0.1-0.3,0.5-0.5c0.4-0.2,0.7-0.2,0.9-0.1c0.1,0.1,0.2,0.2,0.3,0.4
	C121.2,58,121.2,58.2,121,58.3z M107.9,58.2c-0.1,0.1-0.4,0.2-0.8,0.1c-0.4-0.1-0.6-0.3-0.6-0.4c0-0.2,0.2-0.4,0.6-0.5
	c0.4-0.1,0.7-0.1,0.8,0.1c0.1,0.1,0.1,0.2,0.1,0.4C108,58,108,58.2,107.9,58.2z M118.4,56.1c-0.1,0-0.2,0-0.3-0.1
	c-0.1-0.1-0.3-0.3-0.6-0.6c-0.3-0.3-0.4-0.4-0.4-0.5s0.2-0.2,0.6-0.2c0.4-0.1,0.6-0.2,0.6-0.3c0-0.1-0.2-0.4-0.6-0.7
	c-0.4-0.4-0.5-0.6-0.5-0.7c0-0.1,0.3-0.2,0.8-0.2c0.4,0,0.6-0.1,0.6-0.1c0.2-0.1,0.4,0,0.6,0.2c0.3,0.3,0.4,0.6,0.6,1.1
	c0.1,0.3,0.3,0.4,0.7,0.4s0.5,0.2,0.2,0.7c-0.2,0.3-0.4,0.6-0.6,0.7c-0.2,0.1-0.5,0.2-1,0.2c-0.1,0-0.2,0-0.4,0
	C118.6,56.1,118.5,56.1,118.4,56.1z M136.9,71.3c0.3,0.2,0.7,0.1,1.3-0.1c0.6-0.2,0.8-0.5,0.8-0.8c0,0,0-0.1,0-0.2
	c0-0.2,0-0.4,0.1-0.5c0.1-0.1,0.4-0.2,1-0.2c0.4,0,1.2,0,2.6,0c0.3,0,0.5,0,0.7,0c0.2,0,0.5,0,0.9,0c1.3,0,2.1,0,2.5,0
	c0.5,0,0.8,0.1,0.9,0.2c0.1,0.1,0.1,0.3,0.1,0.5c0,0.1,0,0.1,0,0.2c0,0.4,0,0.6,0.2,0.7c0.2,0.1,0.5,0.1,1-0.1
	c0.6-0.2,0.9-0.4,1-0.6c0.1-0.2,0.2-0.7,0.1-1.5c-0.2-4.8-0.1-7.2,0.4-7.2c0,0,0.1,0,0.3-0.1c0.1-0.1,0.2-0.2,0.2-0.2
	c0-0.1-0.2-0.3-0.7-0.7s-0.9-0.7-1.2-0.9c-0.1-0.1-0.3-0.1-0.4,0s-0.3,0.2-0.6,0.5c0,0-0.1,0.1-0.1,0.2c-0.2,0.2-0.5,0.4-0.7,0.4
	c-0.3,0-1.2,0-2.8,0c-0.5,0-0.9,0-1.2,0c-0.3,0-0.7,0-1.2,0c-1.5,0-2.4,0-2.7,0c-0.3,0-0.7-0.2-1.2-0.4c-0.2-0.1-0.3-0.1-0.5-0.2
	c0,0-0.1,0-0.2-0.1c-0.5-0.2-0.7-0.3-0.8-0.3s-0.1,0.2,0,0.5c0,0.1,0,0.1,0,0.1c0.1,1.1,0.2,2.6,0.2,4.5c0,1.9,0,3.6-0.1,5.1
	c0,0.4,0,0.7,0,0.8C136.7,71.2,136.8,71.3,136.9,71.3z M147.4,68.9c-0.1,0.1-1.5,0.1-4,0.1c-2.6,0-3.9,0-4-0.1
	c-0.2-0.1-0.3-0.2-0.3-0.4c0-0.2,0-0.6,0-1.2c0-0.1,0-0.3,0-0.5c0-0.4,0-0.7,0.1-0.9c0.1-0.2,0.4-0.3,0.8-0.3c0.3,0,1.1,0,2.3,0
	c0.5,0,0.9,0,1.2,0s0.7,0,1.2,0c1.2,0,1.9,0,2.3,0c0.4,0,0.7,0.2,0.8,0.3c0.1,0.1,0.1,0.4,0.1,0.9c0,0.2,0,0.4,0,0.5
	c0,0.7,0,1.1,0,1.3C147.7,68.7,147.6,68.8,147.4,68.9z M143.4,65c-2.6,0-4,0-4.1-0.1c-0.1-0.1-0.2-0.2-0.2-0.4c0-0.2,0-0.6,0-1.2
	c0-0.1,0-0.2,0-0.4c0-0.4,0-0.7,0.1-0.8c0.1-0.1,0.4-0.2,0.8-0.3c0.3,0,1.1,0,2.3,0c0.5,0,0.9,0,1.2,0s0.7,0,1.2,0
	c1.2,0,1.9,0,2.3,0c0.4,0,0.7,0.1,0.8,0.3c0.1,0.1,0.1,0.4,0.1,0.8c0,0.2,0,0.3,0,0.4c0,0.6,0,1,0,1.2c0,0.2-0.1,0.3-0.2,0.4
	C147.4,64.9,146,65,143.4,65z M133.4,58.7c0.1,0,0.1,0.1,0.2,0c0,0,0.1,0,0.2,0c0.7-0.1,1.2-0.2,1.5-0.2c0.3,0,3.4-0.1,9.4-0.1
	c0.4,0,0.9,0,1.6,0c2.8,0,4.6,0,5.3,0c1,0,1.7,0,2-0.1c0.2,0,0.3-0.1,0.3-0.2c0,0,0-0.1,0-0.1c0-0.1-0.1-0.3-0.5-0.6
	c-0.3-0.3-0.7-0.7-1.2-1l0,0c-0.4-0.3-0.6-0.4-0.7-0.4c-0.1,0-0.3,0.2-0.6,0.7c0,0-0.1,0.1-0.1,0.1c0,0-0.1,0.1-0.1,0.2
	c-0.3,0.4-0.5,0.6-0.7,0.6c-0.2,0.1-0.6,0.1-1.4,0.1c-0.2,0-0.3,0-0.4,0c-0.9,0-1.4,0-1.6,0c-0.3,0-0.4-0.2-0.3-0.3
	c0-0.1,0.3-0.4,0.7-0.8c0.2-0.2,0.6-0.6,1.2-1.3c0,0,0.1-0.1,0.1-0.1c0.4-0.5,0.6-0.7,0.7-0.8c0.1-0.1,0.2-0.2,0.3-0.2
	c0.2-0.1,0.3-0.1,0.3-0.2s-0.2-0.2-0.5-0.3c-0.6-0.3-0.8-0.5-0.6-0.6c0.2-0.1,1-0.1,2.4-0.1c1.1,0,1.8,0,2,0c0.2,0,0.3-0.1,0.4-0.2
	c0.1-0.2-0.3-0.7-1.3-1.4l0,0c-0.5-0.4-0.8-0.6-1-0.6c-0.1,0-0.4,0.3-0.7,0.7l0,0c0,0-0.1,0.1-0.1,0.2c-0.2,0.4-0.5,0.6-0.7,0.6
	c-0.2,0-0.8,0.1-1.8,0.1c-0.2,0-0.4,0-0.5,0c-1.1,0-1.7,0-1.9,0c-0.2,0-0.3-0.1-0.4-0.1c-0.2-0.2-0.2-0.5-0.2-0.9s0.2-0.7,0.4-0.9
	c0.2-0.2,0.2-0.3-0.1-0.4c-0.2-0.1-0.8-0.3-1.7-0.5c0,0-0.1,0-0.2,0c-0.4-0.1-0.7-0.2-0.7-0.1c-0.1,0-0.1,0.2-0.1,0.5
	c0,0.1,0,0.1,0,0.1c0,0.1,0,0.3,0,0.5c0,0.7,0,1.1,0,1.3c-0.1,0.3-0.3,0.4-0.6,0.5c-0.3,0-0.9,0-1.9,0c-0.3,0-0.5,0-0.7,0
	c-2.2,0-3.8,0-4.7-0.1c-0.2,0-0.3,0-0.4,0c0,0,0.1,0.2,0.2,0.5c0,0,0,0,0,0.1c0.1,0.2,0.2,0.4,0.3,0.4c0.1,0,0.3,0,0.5,0
	c0.1,0,0.1,0,0.2,0c2-0.3,2.9-0.3,2.9,0c0,0.1,0.1,0.3,0.2,0.6c0.4,0.8,0.7,1.6,0.9,2.4s0.3,1.4,0.1,1.5c-0.1,0.1-0.9,0.1-2.4,0.1
	c-1.5,0-2.7,0-3.6-0.1c-0.2,0-0.4,0-0.4,0c0,0,0.1,0.2,0.2,0.5S133.3,58.6,133.4,58.7z M144.8,57.7c-0.2,0.1-0.8,0.1-1.9,0.1
	c-1.1,0-1.6-0.1-1.7-0.1c-0.1-0.1-0.1-0.1-0.1-0.2c0-0.1,0-0.2,0.1-0.4c0.2-0.5,0.2-1.1-0.1-1.7c-0.3-0.6-0.7-1.1-1.4-1.6l0,0
	c-0.5-0.3-0.8-0.6-0.8-0.6c0-0.1,0.2-0.2,0.7-0.2c0.4,0,1.4,0,2.9,0c0.2,0,0.4,0,0.7,0c1.2,0,2,0,2.3,0c0.4,0,0.7,0.1,0.8,0.2
	c0,0.1,0,0.3,0,0.6c0,0.1,0,0.1,0,0.1c-0.3,1-0.5,1.8-0.8,2.6C145.2,57.2,145,57.6,144.8,57.7z M167,70.8c0.9,0.1,3.1,0.1,6.4,0
	s5.3-0.1,5.9-0.2c0.7-0.1,1.3-0.3,1.8-0.6c0.4-0.3,0.7-0.6,0.7-0.9c0-0.3-0.2-0.6-0.7-0.8c-0.4-0.2-0.6-0.4-0.6-0.6
	s-0.1-0.8-0.1-1.7s0-1.5-0.1-1.6c-0.1-0.1-0.2,0.1-0.4,0.7c0,0.1-0.1,0.3-0.1,0.5c-0.3,1.1-0.6,1.8-0.8,2.1
	c-0.3,0.4-0.9,0.7-1.8,0.8c-0.6,0.1-2,0.1-4.2,0.1c-0.4,0-0.7,0-0.9,0c-0.4,0-1,0-1.7,0c-1.9,0-3,0-3.5-0.1
	c-0.7-0.1-1.1-0.3-1.3-0.6c-0.1-0.3-0.2-0.8-0.1-1.8c0-0.4,0-0.7,0-0.9c0-0.1,0-0.2,0-0.4c0-1,0-1.6,0-1.8c0-0.2,0.1-0.3,0.3-0.4
	l0,0c0.1-0.1,1.9-0.1,5.2-0.1c3.4,0,5.2,0,5.3,0.1c0.1,0.1,0.2,0.1,0.3,0.2c0,0.1,0.1,0.2,0.1,0.5c0,0.4,0.1,0.6,0.2,0.7
	c0.1,0.1,0.4,0.1,0.8,0c0.5-0.1,0.8-0.2,1-0.3c0.2-0.1,0.3-0.3,0.3-0.6c0-0.2,0-0.6,0-1.3c-0.1-2-0.1-3.3,0-3.8c0-0.5,0.2-0.9,0.4-1
	c0.4-0.2,0.5-0.4,0.5-0.5c0-0.2-0.3-0.4-0.8-0.9c-0.6-0.5-1-0.8-1.2-0.8c-0.2,0-0.4,0.1-0.7,0.4c0,0-0.1,0.1-0.1,0.2
	c-0.3,0.3-0.5,0.5-0.7,0.5c-0.2,0-0.7,0.1-1.6,0.1c-0.2,0-0.3,0-0.4,0c-1,0-1.7,0-2,0c-0.4,0-0.5-0.2-0.5-0.3c0-0.1,0.3-0.4,0.7-0.7
	c0.6-0.5,1.1-1,1.3-1.2c0.6-0.6,1.1-0.9,1.4-1c0.3-0.1,0.4-0.2,0.4-0.3c0-0.1-0.3-0.4-0.7-0.8c-0.6-0.6-1-0.9-1.2-1
	c-0.2-0.1-0.5,0.1-0.8,0.5c0,0-0.1,0.1-0.1,0.1c-0.3,0.3-0.5,0.5-0.7,0.5c-0.2,0-0.7,0.1-1.5,0.1c-0.2,0-0.3,0-0.4,0
	c-1,0-1.6,0-1.8,0c-0.2,0-0.3-0.1-0.3-0.3c0-0.2,0.1-0.5,0.3-0.9s0.5-0.6,0.7-0.7c0.6-0.1-0.2-0.5-2.1-1.1c-0.4-0.1-0.6-0.2-0.7-0.1
	c-0.1,0-0.1,0.1-0.2,0.3c-0.3,1.4-1,3-2,4.8c-1,1.8-2.2,3.3-3.5,4.7c-0.3,0.3-0.5,0.5-0.5,0.6c0,0.1,0,0.1,0.2,0.1
	c0.2,0,0.8-0.4,1.9-1.2c0.3-0.2,0.5-0.3,0.6-0.4c0.1,0,0.2,0,0.3,0.1c0,0,0.1,0.3,0.1,0.8c0,0.4,0,1.9,0,4.3c0,0.1,0,0.1,0,0.1
	c0,2.7,0,4.2,0,4.7s0.1,0.9,0.2,1.2l0,0C164.1,70.1,165.2,70.7,167,70.8z M174.6,62c-1.2,0-1.9,0-2.1-0.1c-0.2-0.1-0.3-0.2-0.3-0.5
	c0-0.3,0-0.9,0-2.1c0-0.2,0-0.4,0-0.7c0-0.7,0-1.1,0-1.3c0-0.3,0.2-0.4,0.4-0.5c0.2,0,0.6-0.1,1.2-0.1c0.3,0,0.5,0,0.6,0
	c0.2,0,0.4,0,0.7,0c0.6,0,1,0,1.2,0c0.2,0.1,0.4,0.2,0.5,0.5c0,0.2,0.1,0.6,0,1.3c0,0.3,0,0.5,0,0.7c0,1.1,0,1.8,0,2
	c0,0.2-0.1,0.4-0.2,0.5C176.5,61.9,175.8,62,174.6,62z M167.9,62c-1.2,0-1.9,0-2-0.1c-0.2-0.2-0.3-1-0.3-2.5s0.1-2.3,0.3-2.5
	c0.1-0.1,0.8-0.1,2-0.1c1.2,0,1.9,0,2,0.1c0.2,0.2,0.3,1,0.3,2.4s-0.1,2.3-0.3,2.4C169.8,62,169.1,62,167.9,62z M168.2,56.1
	c-1.5,0-2.3,0-2.4-0.1c-0.4-0.1-0.5-0.3-0.5-0.4c0-0.2,0.3-0.6,0.7-1.1c0.2-0.2,0.5-0.6,0.9-1.1c0,0,0.1-0.1,0.1-0.2
	c0.2-0.3,0.4-0.5,0.6-0.6c0.2,0,0.7-0.1,1.6-0.1c0.2,0,0.4,0,0.5,0c1,0,1.6,0,1.9,0c0.4,0,0.6,0.2,0.6,0.3c0,0.1,0,0.4-0.2,0.8
	c-0.6,1.4-1.1,2.1-1.4,2.3C170.5,56.1,169.7,56.1,168.2,56.1z M197.9,71.3c0.2,0.1,0.6,0.1,1,0c0.5-0.1,0.9-0.3,1.2-0.6l0,0
	c0.1-0.1,0.1-0.2,0.1-0.3c0-0.2,0-0.7,0-1.6c0-0.5,0-0.8,0-1.1c0-1,0-2.1,0-3.3c0-1.2,0-1.8,0.1-1.9c0.1-0.1,0.2-0.2,0.5-0.2
	c0.2,0,1,0,2.4,0c0.1,0,0.3,0,0.5,0c0.9,0,1.5,0,1.7,0c0.3,0,0.5,0.1,0.6,0.2c0,0.1,0.1,0.3,0,0.6c0,0.1,0,0.1,0,0.2
	c0,0.5,0,0.7,0.1,0.8c0.1,0.1,0.4,0.1,0.9,0c0.7-0.1,1.1-0.3,1.2-0.5c0.1-0.2,0.2-0.7,0.1-1.6c-0.1-2.6-0.1-4.4-0.1-5.2
	c0-0.8,0.2-1.3,0.4-1.4c0,0,0,0,0.1,0c0.3-0.2,0.4-0.3,0.4-0.4c0-0.1-0.3-0.5-1-1c-0.7-0.5-1.1-0.8-1.3-0.8c-0.1,0-0.3,0.2-0.7,0.7
	c0,0,0,0.1-0.1,0.1c-0.2,0.2-0.4,0.4-0.6,0.4c-0.2,0-0.8,0-1.9,0c-0.2,0-0.4,0-0.6,0c-0.2,0-0.5,0-0.8,0c-0.8,0-1.3,0-1.5,0
	c-0.3,0-0.5-0.2-0.6-0.4c0-0.1-0.1-0.5,0-1c0-0.2,0-0.4,0-0.5c0-0.8,0-1.4,0-1.5c0-0.2,0.1-0.3,0.3-0.5c0.2-0.2,0.2-0.4-0.1-0.5
	c-0.2-0.1-0.9-0.4-2-0.6c-0.4-0.1-0.7-0.2-0.8-0.1s-0.1,0.1-0.1,0.3c0.1,0.7,0.2,1.6,0.2,2.7c0,1.1,0,1.7,0,1.9l0,0
	c-0.1,0.1-0.2,0.2-0.5,0.3c-0.2,0-1,0-2.4,0c-0.2,0-0.4,0-0.7,0c-1,0-1.6,0-1.8,0c-0.3,0-0.7-0.2-1.2-0.4c-0.2-0.1-0.3-0.1-0.4-0.2
	c-0.1,0-0.1-0.1-0.2-0.1c-0.5-0.2-0.8-0.3-0.8-0.3c-0.1,0-0.1,0.2,0,0.5c0,0.1,0,0.1,0,0.1c0.1,1.1,0.2,2.6,0.2,4.5
	c0,1.8,0,3.5-0.1,4.9c0,0.5,0,0.9,0.1,1c0.1,0.1,0.4,0.1,0.9,0c0.5-0.1,0.9-0.3,1.1-0.4c0.2-0.2,0.3-0.5,0.3-0.8c0,0,0-0.1,0-0.2
	c0-0.3,0-0.5,0.1-0.6c0.1-0.1,0.3-0.2,0.6-0.2c0.2,0,0.8,0,1.7,0c0.2,0,0.4,0,0.6,0c1.3,0,2.1,0,2.4,0c0.2,0,0.4,0.1,0.5,0.3
	c0.1,0.1,0.1,1.1,0.1,2.7c0,1.7-0.1,3.2-0.1,4.5c0,0.7-0.1,1.2,0,1.3C197.7,71.1,197.8,71.3,197.9,71.3z M194.9,61.4
	c-1.6,0-2.5,0-2.6-0.1c-0.1-0.1-0.2-0.2-0.3-0.5c0-0.3,0-1.2,0-2.6c0-0.3,0-0.6,0-1c0-0.8,0-1.3,0-1.6c0.1-0.3,0.2-0.5,0.5-0.6
	c0.2,0,0.7-0.1,1.4,0c0.4,0,0.7,0,0.9,0c0.2,0,0.6,0,0.9,0c0.7,0,1.2,0,1.4,0c0.3,0.1,0.4,0.3,0.5,0.6c0,0.2,0.1,0.7,0,1.6
	c0,0.4,0,0.8,0,1c0,1.5,0,2.3,0,2.6c0,0.3-0.1,0.4-0.3,0.5C197.4,61.4,196.5,61.4,194.9,61.4z M205.6,61.4c-0.1,0.1-1,0.1-2.6,0.1
	c-1.6,0-2.4,0-2.6-0.1c-0.2-0.1-0.3-0.2-0.3-0.5c0-0.3,0-1.1,0-2.6c0-0.3,0-0.6,0-1c0-0.8,0-1.3,0-1.6c0.1-0.3,0.2-0.5,0.5-0.6
	c0.2,0,0.7-0.1,1.4,0c0.4,0,0.7,0,0.9,0c0.2,0,0.6,0,0.9,0c0.8,0,1.2,0,1.4,0c0.3,0.1,0.4,0.3,0.5,0.6c0,0.2,0.1,0.7,0,1.6
	c0,0.4,0,0.8,0,1c0,1.5,0,2.4,0,2.6C205.9,61.1,205.8,61.3,205.6,61.4z M231.9,71.3c0.1,0.1,0.3,0.1,0.8,0s0.8-0.2,1.2-0.4
	c0.6-0.3,1.1-0.8,1.5-1.6c0.4-0.8,0.6-2.1,0.8-3.8c0.2-1.6,0.3-3.9,0.4-7c0-0.2,0-0.4,0-0.8c0-1.6,0.1-2.5,0.1-2.7
	c0-0.3,0.2-0.5,0.4-0.6c0,0,0.1,0,0.1,0c0.2-0.1,0.3-0.2,0.4-0.2c0-0.1,0-0.1,0-0.2c-0.1-0.2-0.4-0.5-0.8-0.9
	c-0.5-0.4-0.8-0.7-1-0.8c-0.1-0.1-0.2-0.1-0.3,0c-0.1,0-0.2,0.2-0.5,0.5c0,0-0.1,0.1-0.1,0.1c-0.3,0.3-0.5,0.5-0.7,0.6
	c-0.2,0-0.7,0.1-1.4,0.1c-0.2,0-0.3,0-0.4,0c-0.1,0-0.2,0-0.3,0c-0.7,0-1.2,0-1.3,0c-0.3,0-0.4-0.2-0.4-0.3c0-0.1,0.1-0.4,0.3-0.9
	c0-0.1,0.1-0.1,0.1-0.2c0.3-0.7,0.5-1.1,0.6-1.3c0.1-0.2,0.2-0.3,0.4-0.4c0.3-0.1,0.2-0.3-0.1-0.5c-0.4-0.2-1.1-0.5-2.2-0.8l0,0
	c-0.2-0.1-0.4-0.1-0.4,0c0,0-0.1,0.2-0.1,0.6c0,0,0,0.1,0,0.1c-0.3,2.3-1,4.8-2.2,7.6c-0.4,1-0.7,1.4-0.9,1.4
	c-0.1-0.1-0.2-0.7-0.2-2c0-1,0-1.6,0.1-1.8c0-0.2,0.2-0.4,0.5-0.6c0.2-0.1,0.3-0.3,0.2-0.5c-0.1-0.2-0.5-0.5-1.1-1
	c-0.4-0.4-0.7-0.5-0.9-0.5c-0.1,0-0.3,0.2-0.6,0.6c-0.3,0.4-0.8,0.6-1.5,0.7c-0.7,0.1-1-0.1-1-0.4c0-0.2,0.3-0.7,0.8-1.6
	c0.6-0.8,0.9-1.3,1.1-1.4c0.4-0.1,0.4-0.3,0.1-0.4c-0.3-0.2-0.9-0.4-2-0.6c0,0-0.1,0-0.2,0c-0.4-0.1-0.6-0.1-0.7-0.1
	c-0.1,0-0.1,0.2-0.1,0.6c0,0.1,0,0.2,0,0.2c0,0.5,0,1-0.1,1.5c-0.1,0.8-0.2,1.4-0.2,1.6c-0.1,0.3-0.3,0.4-0.5,0.4
	c-0.2,0-0.6-0.2-1.2-0.5c-0.6-0.3-0.9-0.4-1-0.4c0,0-0.1,0-0.1,0.1c0,0.1,0,0.3,0.1,0.8c0.1,1.1,0.2,3.5,0.2,7.1
	c0,3.8-0.1,6.6-0.2,8.4c-0.1,0.8,0,1.3,0.1,1.5c0.1,0.2,0.5,0.2,1.1,0c0.4-0.1,0.7-0.3,0.8-0.5c0.1-0.2,0.2-0.5,0.2-1v0
	c0-0.4,0-0.6,0-0.7c0.1-0.1,0.2-0.2,0.5-0.3c0.2,0,0.6,0,1.3,0c0,0,0.1,0,0.1,0c0,0,0.1,0,0.1,0c0.7,0,1.1,0,1.3,0
	c0.3,0,0.4,0.1,0.5,0.2c0,0.1,0.1,0.3,0.1,0.6v0.1c0,0.5,0.1,0.8,0.4,0.8c0.3,0.1,0.7,0,1.4-0.4c0,0,0.1,0,0.2-0.1
	c0.2-0.1,0.3-0.2,0.3-0.4c0-0.2,0-0.8,0-1.8c0-0.5,0-0.8,0-1.1c0-1.1,0-2.4,0-4.1c0-1.7,0-2.6,0.1-2.7c0-0.1,0.1-0.3,0.2-0.3
	c0.1-0.1,0.1-0.1,0,0c0,0.1,0,0.1,0.1,0.2c0.1,0,0.1,0,0.2,0c0.2-0.1,0.6-0.6,1.3-1.5c0.7-0.9,1.3-1.8,1.8-2.6c0,0,0,0,0-0.1
	c0.2-0.4,0.5-0.6,0.7-0.7c0.2-0.1,0.9-0.1,2-0.1c0.1,0,0.1,0,0.2,0c0.2,0,0.4,0,0.6,0c0.7,0,1.1,0,1.2,0c0.2,0,0.4,0.2,0.5,0.4
	c0,0.1,0.1,0.5,0,1c0,0.2,0,0.4,0,0.5c0,2.3-0.1,4.5-0.2,6.6c-0.1,2.1-0.3,3.5-0.5,4.4c-0.1,0.5-0.3,0.9-0.5,1.1
	c-0.2,0.2-0.6,0.4-1,0.4c-0.4,0-1.1,0-2.1-0.1c-0.5,0-0.8-0.1-0.9,0c-0.1,0-0.1,0.1-0.1,0.2c0,0.1,0.2,0.2,0.6,0.3
	c1.5,0.4,2.2,1,2.2,2.1C231.8,71.2,231.8,71.3,231.9,71.3z M220.7,67.3c-0.6,0-0.9,0-1.1-0.1c-0.2-0.1-0.3-0.3-0.4-0.6
	c0-0.2-0.1-0.8,0-1.7c0-0.4,0-0.7,0-0.9c0-0.2,0-0.5,0-0.8c0-0.8,0-1.4,0-1.6c0.1-0.3,0.2-0.5,0.4-0.6c0.1-0.1,0.5-0.1,1.1-0.1
	c0.2,0,0.4,0,0.6,0c0.1,0,0.3,0,0.6,0c0.6,0,0.9,0,1.1,0.1c0.2,0.1,0.3,0.3,0.4,0.6c0,0.2,0,0.8,0,1.6c0,0.4,0,0.6,0,0.8
	c0,1.5,0,2.3,0,2.6c0,0.3-0.1,0.4-0.2,0.5c-0.1,0.1-0.2,0.1-0.4,0.1c-0.1,0-0.6,0-1.4,0C221.1,67.3,220.9,67.3,220.7,67.3z
	 M230.4,63.9c0.4,0.1,0.7,0.1,1-0.1c0.3-0.2,0.5-0.6,0.5-1c0-0.7-0.2-1.4-0.8-2c-0.5-0.7-1.3-1.3-2.4-1.8c-0.6-0.3-0.9-0.4-1-0.4
	c-0.1,0,0,0.3,0.3,0.7c1,1.5,1.6,2.9,1.8,4.1C229.8,63.6,230,63.8,230.4,63.9z M220.7,60.3c-0.6,0-0.9,0-1.1-0.1
	c-0.2-0.1-0.3-0.3-0.4-0.6c0-0.2-0.1-0.7,0-1.6c0-0.4,0-0.7,0-0.9c0-0.2,0-0.4,0-0.8c0-0.8,0-1.3,0-1.5c0.1-0.3,0.2-0.5,0.4-0.6
	c0.1,0,0.5-0.1,1-0.1c0.2,0,0.4,0,0.6,0s0.3,0,0.6,0c0.6,0,0.9,0,1.1,0.1c0.2,0.1,0.3,0.2,0.4,0.6c0,0.2,0.1,0.7,0.1,1.5
	c0,0.3,0,0.6,0,0.7c0,1.4,0,2.2,0,2.5c0,0.3-0.1,0.4-0.2,0.5c-0.1,0.1-0.2,0.1-0.4,0.1c-0.1,0-0.6,0-1.4,0
	C221.1,60.3,220.9,60.3,220.7,60.3z M248.9,71.4c0.4,0.1,0.9,0,1.3-0.2c0.4-0.2,0.7-0.5,0.7-0.8c0,0,0-0.1,0-0.1
	c0-0.3,0.1-0.4,0.1-0.5c0.1-0.1,0.4-0.2,0.9-0.2c0.3,0,1.1,0,2.4,0c0.3,0,0.5,0,0.6,0c0.2,0,0.5,0,0.8,0c1.2,0,1.9,0,2.3,0
	c0.4,0,0.7,0.1,0.8,0.2c0.1,0.1,0.1,0.3,0.1,0.5c0,0.1,0,0.1,0,0.2c0,0.4,0.1,0.7,0.2,0.7c0.2,0.1,0.5,0,1.1-0.1
	c0.5-0.1,0.8-0.3,0.9-0.4c0.1-0.1,0.2-0.5,0.1-1c0-0.9-0.1-1.9-0.1-3c0-1.3,0-2.1,0-2.4c0-0.3,0.2-0.4,0.4-0.6
	c0.2-0.1,0.2-0.3,0-0.6c-0.3-0.4-0.4-0.6-0.3-0.6c0.1,0,0.6,0,1.4,0.3c0.5,0.1,0.8,0.2,0.9,0.2c0.1,0,0.2-0.1,0.2-0.2
	c0.1-0.4,0.4-0.8,0.7-1.2c0.2-0.2,0.5-0.4,0.9-0.6c0.1,0,0.2-0.1,0.2-0.1c0-0.1,0-0.1-0.1-0.1c-0.1,0-0.5-0.1-1.3-0.3
	c-1.9-0.4-3.7-0.9-5.3-1.5c-0.8-0.3-1.3-0.5-1.5-0.7c-0.3-0.2-0.3-0.3-0.2-0.6c0.1-0.2,0.4-0.5,0.9-1c0.8-0.8,1.6-1.7,2.3-2.6
	c0.3-0.4,0.5-0.6,0.6-0.7c0.1-0.1,0.3-0.2,0.6-0.2c0.4-0.1,0.5-0.2,0.4-0.5c-0.1-0.2-0.4-0.6-1-1.2c0,0-0.1-0.1-0.1-0.1
	c-0.4-0.4-0.7-0.7-0.9-0.7c-0.1,0-0.4,0.2-0.8,0.6c0,0-0.1,0.1-0.1,0.1c0,0-0.1,0.1-0.2,0.2c-0.3,0.3-0.5,0.4-0.7,0.5
	c-0.2,0-0.8,0-1.8,0c-0.3,0-0.5,0-0.7,0c-1.1,0-1.8,0-2.1,0c-0.4,0-0.6-0.1-0.6-0.3c0-0.1,0.1-0.3,0.3-0.6l0,0c0.4-0.7,0.7-1,0.9-1
	c0.4-0.1,0.4-0.2,0.1-0.3c-0.3-0.2-1-0.4-2.1-0.7c0,0-0.1,0-0.2-0.1c-0.3-0.1-0.5-0.1-0.6-0.1c-0.1,0-0.2,0.2-0.3,0.5
	c0,0.1,0,0.1,0,0.2c-0.5,1.5-1.3,3-2.3,4.6c-1.1,1.5-2.2,2.9-3.6,4c-0.4,0.3-0.5,0.5-0.5,0.6c0,0.1,0.3,0,0.7-0.2
	c1.5-0.8,3-2,4.6-3.6c0.5-0.5,0.8-0.7,1-0.7c0.2,0,0.3,0.1,0.6,0.5c0.5,0.9,1.1,1.7,1.7,2.3c0.3,0.3,0.4,0.6,0.4,0.7
	c0,0.2-0.2,0.4-0.5,0.6c-1,0.8-2.3,1.6-3.8,2.4c-1.5,0.8-3,1.5-4.5,2c-0.6,0.2-0.9,0.4-1.1,0.4c-0.1,0.1-0.1,0.1,0,0.2
	c0.2,0.1,1.3-0.1,3.3-0.7c0.5-0.2,0.9-0.2,1.1-0.2c0.2,0,0.3,0.1,0.3,0.4c0,0.2,0.1,1.1,0,2.6c0,1.5-0.1,2.9-0.1,4.1
	c0,0.7-0.1,1.2,0,1.3C248.6,71.2,248.7,71.3,248.9,71.4z M258.8,68.7c-0.1,0.1-1.4,0.1-3.8,0.1c-2.4,0-3.6-0.1-3.7-0.1
	c-0.1-0.1-0.2-0.2-0.2-0.5c0-0.2,0-1,0-2.1c0-0.2,0-0.5,0-0.8c0-0.7,0-1.1,0.1-1.2c0.1-0.2,0.3-0.4,0.7-0.4c0.3,0,1-0.1,2,0
	c0.5,0,1,0,1.3,0c0.3,0,0.8,0,1.3,0c1,0,1.7,0,1.9,0c0.4,0,0.6,0.2,0.7,0.5c0.1,0.2,0.1,0.6,0.1,1.3c0,0.4,0,0.6,0,0.9
	c0,1.2,0,1.9,0,2.1C259,68.5,258.9,68.7,258.8,68.7z M258.7,62.8c-0.2,0.1-1.5,0.1-3.9,0.1c-2.4,0-3.8-0.1-4-0.1
	c-0.9-0.3-1.1-0.6-0.5-1c0,0,0.1-0.1,0.2-0.1c0.2-0.1,0.4-0.2,0.5-0.2c1.2-0.5,2.3-1.1,3.2-1.7c0,0,0.1,0,0.1-0.1
	c0.5-0.3,0.8-0.5,1-0.5s0.5,0.2,0.9,0.5c0,0,0.1,0.1,0.1,0.1c0.8,0.5,1.6,1,2.3,1.3c0.5,0.2,0.7,0.5,0.7,0.8
	C259.5,62.3,259.2,62.6,258.7,62.8z M255.4,56.5c-0.2,0.1-0.4,0.2-0.6,0.1c-0.2,0-0.4-0.2-0.7-0.5c-0.6-0.5-1.2-1-1.7-1.5
	c-0.5-0.5-0.7-0.9-0.7-1.1c0-0.3,0-0.4,0.1-0.5c0.1-0.1,0.4-0.2,0.9-0.2c0.4,0,1.1,0,2.3,0c1.1,0,1.8,0,2.1,0c0.4,0,0.7,0,0.8,0.1
	c0.1,0,0.1,0.1,0.1,0.2c0,0.2-0.4,0.8-1.1,1.7C256.2,55.7,255.7,56.3,255.4,56.5z M291.2,71.1c0.8,0.3,1.3,0.2,1.6-0.1
	c0.3-0.3,0.3-0.9,0-1.6c-0.2-0.4-0.3-0.7-0.3-0.9c0-0.2,0.1-0.9,0.2-1.9c0.1-1.2,0.2-1.7,0.1-1.8c-0.1,0-0.2,0-0.2,0.1
	c-0.4,1.2-0.8,1.9-1,2.3c-0.2,0.4-0.5,0.6-0.7,0.6c-0.2,0-0.5-0.3-1-0.8c-2-2.1-3.3-5.4-3.8-10c0-0.1,0-0.3,0-0.5
	c-0.1-0.5-0.1-0.8,0-0.9c0.1-0.2,0.3-0.3,0.6-0.4c0.3,0,0.9,0,1.9,0c0.4,0,0.7,0,1,0c1.6,0,2.7,0,3,0c0.4,0,0.5-0.1,0.5-0.2
	c0,0,0-0.1,0-0.1c0,0-0.3-0.4-1.1-1c-0.5-0.4-0.8-0.7-0.9-0.8c-0.1-0.1-0.1-0.3,0-0.6c0.2-0.6,0-1.1-0.5-1.6
	c-0.5-0.4-1.3-0.7-2.2-0.9c-0.6-0.1-0.9-0.1-1.1,0c-0.2,0.1-0.1,0.2,0.1,0.4c0.3,0.2,0.7,0.6,1.1,1.1c0.4,0.5,0.7,0.9,0.9,1.2
	c0.1,0.2,0.2,0.3,0.3,0.4c0.2,0.1,0.3,0.3,0.3,0.5c0,0.2-0.2,0.5-0.5,0.7c-0.2,0.1-0.3,0.2-0.5,0.2c-0.2,0-0.6,0-1.3,0
	c-0.1,0-0.2,0-0.3,0c-0.5,0-0.9,0-1-0.1c-0.2-0.1-0.3-0.2-0.4-0.5c0-0.2,0-0.6,0-1.3c0-0.2,0-0.3,0-0.4c0-0.9,0-1.5,0-1.7
	c0-0.2,0.1-0.4,0.3-0.5c0.4-0.2,0.3-0.4-0.2-0.5c-0.3-0.1-0.7-0.1-1.3-0.2c-0.6-0.1-0.9-0.1-1,0c-0.1,0-0.1,1.1,0,3.1
	c0,0.9,0,1.4,0,1.6c0,0.2-0.1,0.3-0.3,0.4c-0.2,0.1-1.9,0.1-5.4,0.1c-3.4,0-5.3-0.1-5.8-0.2c-0.1,0-0.2,0-0.2,0.1
	c0,0.1,0.1,0.2,0.2,0.5c0,0,0,0,0,0.1c0.1,0.2,0.2,0.4,0.3,0.4c0.1,0,0.3,0,0.7,0c0.1,0,0.2,0,0.3,0c1-0.1,2.9-0.2,5.8-0.2
	c0.3,0,0.8,0,1.3,0c1.2,0,1.9,0,2.2,0c0.4,0,0.7,0.1,0.8,0.3c0.1,0.1,0.1,0.4,0.2,0.8c0,0.2,0,0.4,0,0.5c0.4,3.7,1.3,6.9,2.6,9.5
	C287.8,68.9,289.4,70.5,291.2,71.1z M273.7,70.8c0.1,0.1,0.2,0,0.4-0.2c0.1-0.1,0.3-0.3,0.6-0.4c0.2-0.1,0.8-0.3,1.5-0.6
	c1.8-0.7,3.7-1.5,5.4-2.2c1.8-0.8,2.7-1.2,2.7-1.3c0.1-0.2,0-0.2-0.1-0.2c-0.1,0-0.4,0-0.9,0.1c-1.4,0.3-2.3,0.6-2.7,0.6
	c-0.6,0.1-0.9,0.1-1.1,0.1c-0.1,0-0.2-0.2-0.2-0.4c0-0.1,0-1.1,0-2.9c0-1.8,0-2.8,0-2.9l0,0c0-0.2,0.1-0.3,0.3-0.3
	c0.2,0,0.7-0.1,1.6-0.1c0.1,0,0.2,0,0.3,0c1,0,1.6,0,1.8,0c0.2,0,0.3-0.1,0.4-0.2c0.1-0.2-0.2-0.6-0.9-1.2c0,0,0,0-0.1-0.1
	c-0.6-0.5-0.9-0.7-1.1-0.7c-0.1,0-0.4,0.2-0.8,0.7c0,0,0,0.1,0,0.1c0,0-0.1,0.1-0.1,0.2c-0.2,0.3-0.5,0.5-0.7,0.6
	c-0.2,0-0.8,0.1-1.7,0.1c-0.1,0-0.3,0-0.3,0c-2.2,0-3.7,0-4.7-0.1c-0.3,0-0.4,0-0.5,0c0,0,0,0.2,0.2,0.5c0.1,0.3,0.2,0.5,0.3,0.6
	c0,0,0.3,0,0.7-0.1c0.9-0.2,1.6-0.2,2.1-0.2c0.5,0.1,0.8,0.2,0.9,0.5c0.1,0.3,0.1,1.4,0,3.4c0,2-0.1,3.1-0.1,3.2
	c-0.1,0.1-0.3,0.3-0.5,0.4c-0.3,0.1-0.9,0.2-2,0.4c-1.3,0.3-2,0.4-2,0.5c0,0,0.2,0.4,0.6,1.2C273.4,70.4,273.6,70.8,273.7,70.8z
	 M302.2,71.4c0,0,0.5,0,1.3,0c0.2,0,0.4,0,0.5,0c2.6-0.3,4.9-0.7,6.8-1.4c2-0.7,3.8-1.6,5.4-2.8c0.8-0.6,1.2-0.8,1.4-0.8
	c0.4,0,0.5-0.1,0.5-0.2c0-0.1-0.2-0.3-0.7-0.6c-0.1-0.1-0.4-0.3-0.7-0.5c-0.2-0.1-0.3-0.2-0.4-0.3l0,0c-0.3-0.2-0.5-0.4-0.5-0.4
	s-0.2,0.1-0.3,0.2l0,0.1c-2.2,3-6.3,5.1-12.3,6.3c-0.6,0.1-1,0.2-1.1,0.3C302,71.1,302,71.2,302.2,71.4z M303.3,68.3
	c0.1,0,0.3,0,0.6-0.1c3.6-0.7,6.8-2,9.5-3.9c0.5-0.3,0.8-0.6,1-0.6c0.1-0.1,0.3-0.1,0.4-0.1c0.5,0,0.4-0.2-0.2-0.7
	c-0.2-0.1-0.5-0.4-1-0.8c0,0-0.1-0.1-0.1-0.1c-0.2-0.2-0.4-0.3-0.5-0.3s-0.2,0.1-0.4,0.3c0,0-0.1,0.1-0.1,0.1
	c-1.9,2.3-4.9,4.1-8.9,5.6c-0.3,0.1-0.5,0.2-0.5,0.2c-0.1,0-0.1,0.1,0,0.2C303.2,68.3,303.3,68.3,303.3,68.3z M302.7,65.7
	c0,0.1,0.1,0.1,0.2,0.1c0.1,0,0.4-0.1,0.8-0.3c2.7-0.9,5.2-2.2,7.3-3.8c0.5-0.4,0.9-0.6,1.2-0.6c0.2,0,0.3-0.1,0.2-0.2
	c0-0.1-0.2-0.2-0.5-0.4c-0.4-0.3-0.7-0.5-0.9-0.6c0,0-0.1,0-0.1-0.1c-0.3-0.3-0.5-0.4-0.6-0.4c0,0-0.1,0-0.2,0.1
	c-0.9,1.2-1.8,2.3-2.9,3.1c-1,0.9-2.3,1.7-3.8,2.5c-0.4,0.2-0.6,0.3-0.7,0.4C302.6,65.5,302.6,65.6,302.7,65.7z M299.8,64.3
	c0,0.1,0.1,0.1,0.2,0.1c0.1,0,0.3-0.1,0.6-0.2c1.8-0.7,3.5-1.5,5.1-2.6c1.6-1.1,3-2.2,4.1-3.5c0.4-0.5,0.7-0.7,0.9-0.7
	c0.2,0,0.3,0.2,0.6,0.5c0.8,1.2,1.9,2.4,3.3,3.4c1.4,1,2.9,1.9,4.5,2.6c0.3,0.1,0.5,0.2,0.6,0.2c0.1,0,0.1,0,0.2-0.2
	c0.1-0.3,0.2-0.6,0.5-0.9c0.2-0.3,0.5-0.6,0.7-0.7c0.3-0.2,0.4-0.3,0.3-0.4c-0.1-0.1-0.4-0.2-1-0.3c-1.2-0.3-2.5-0.7-3.6-1.2
	c-1.2-0.5-1.8-0.8-1.8-1.1c0-0.1,0.1-0.2,0.2-0.3c0.2-0.1,0.6-0.2,1.4-0.5c0.8-0.2,1.3-0.3,1.5-0.3c0.2,0,0.4,0.3,0.5,0.8
	c0.1,0.4,0.3,0.6,0.7,0.6c0.4,0,0.7-0.2,0.8-0.6c0.2-0.5,0-1.1-0.5-1.7c-0.5-0.6-1.2-1-2.2-1.3c-0.6-0.2-0.7-0.1-0.3,0.4
	c0.3,0.4,0.4,0.7,0.3,0.8c-0.1,0.1-0.5,0.2-1.1,0.2c-0.8,0-1.2,0-1.2-0.2c-0.1-0.1,0.2-0.5,0.6-1.1c0.5-0.6,0.9-1,1.1-1.1
	c0.1-0.1,0.2-0.1,0.2-0.2c0-0.1,0.2-0.2,0.4-0.3c0.5-0.2,0.7-0.6,0.5-1.2c-0.2-0.6-0.6-1.2-1.4-1.8c-0.6-0.4-1.5-0.7-2.8-1.1
	c-1.3-0.3-2-0.4-2.2-0.1c0,0,0,0.1,0,0.1c0,0,0.2,0.1,0.5,0.3c0.1,0,0.1,0.1,0.1,0.1c0.8,0.4,1.2,0.7,1.3,0.9c0.2,0.2,0,0.3-0.5,0.4
	c-0.4,0-1.2,0.1-2.5,0.1c0,0-0.1,0-0.2,0c-1.1,0-1.8,0-2.1,0c-0.4,0-0.6-0.1-0.5-0.3c0-0.1,0.2-0.4,0.6-0.8c0,0,0.1-0.1,0.1-0.1
	c0.7-0.7,1.1-1,1.2-1.1c0.3-0.1,0.3-0.3,0-0.4c-0.3-0.2-0.9-0.3-1.9-0.6c-0.3-0.1-0.6-0.1-0.6-0.1c-0.1,0-0.1,0-0.1,0.1
	c-0.3,1.4-0.6,2.3-0.8,2.8c-0.1,0.2-0.3,0.4-0.5,0.4c-0.2,0-0.8,0-1.8,0c-0.1,0-0.3,0-0.5,0c-0.7,0-1.1,0-1.2,0.1
	c-0.1,0.1,0,0.3,0.2,0.7c0.1,0.1,0.1,0.2,0.2,0.3c0.3,0.6,0.5,1.1,0.5,1.4c0,0.3-0.1,0.9-0.4,1.8c-0.2,0.5-0.3,0.9-0.5,1
	c-0.1,0.1-0.5,0.2-1.1,0.2c0,0-0.1,0-0.2,0c-0.3,0-0.5,0.1-0.5,0.1c0,0.1,0.1,0.3,0.2,0.6c0,0.1,0.1,0.2,0.1,0.3
	c0.3,0.6,0.4,0.9,0.5,1c0.1,0.1,0.2,0,0.4-0.1c0.2-0.2,0.7-0.4,1.6-0.7c0.7-0.2,1.3-0.4,1.7-0.5c0.5-0.2,0.8-0.2,1-0.2
	c0.2,0,0.3,0.2,0.4,0.5c0.1,0.4-0.5,1.2-1.9,2.3c-1.4,1.2-2.8,2.1-4.2,2.8C299.8,64.1,299.7,64.2,299.8,64.3z M312.7,57.7
	c0,0.1-0.1,0.1-0.4,0c-0.2-0.1-0.4-0.3-0.6-0.5c-0.2-0.2-0.3-0.3-0.3-0.5c0-0.1,0.1-0.2,0.3-0.4c0.3-0.2-0.3-0.5-1.7-0.9
	c0,0-0.1,0-0.1,0c-0.5-0.2-0.7-0.2-0.8-0.2c-0.1,0-0.2,0.1-0.2,0.2c-0.3,0.9-0.6,1.4-0.9,1.7c-0.3,0.2-0.6,0.2-0.9-0.1
	c-0.5-0.4-1-0.7-1.5-0.8c-0.5-0.1-0.6,0-0.4,0.3c0.4,0.7,0.4,1,0,1.2c-0.3,0.1-0.6,0.1-1,0c-0.4,0-0.6-0.1-0.7-0.2
	c0-0.1,0.2-0.5,0.7-1.2s0.9-1,1.1-1.1c0.3-0.1,0.3-0.3,0-0.4c-0.2-0.1-0.3-0.2-0.3-0.3c0-0.1,0.1-0.2,0.3-0.2c0,0,0.7-0.1,2.1-0.3
	c0.2,0,0.3,0,0.4,0c1.5-0.2,3.2-0.4,5-0.6c0.3,0,0.5-0.1,0.6-0.1c0.9-0.1,1.4-0.2,1.6-0.1c0.2,0,0.5,0.2,0.8,0.5
	c0.6,0.7,0.5,0.9-0.5,0.6c0,0,0,0-0.1,0c-0.3-0.1-0.4-0.1-0.5-0.1c0,0-0.1,0.2-0.1,0.5c0,0,0,0.1,0,0.1c-0.2,1.2-0.4,2-0.6,2.4
	c-0.2,0.4-0.5,0.6-1,0.6C312.7,57.6,312.7,57.6,312.7,57.7z M32,95.2c0.1,0.2,0.7-0.1,1.9-0.9c1.2-0.8,2.1-1.7,2.9-2.5
	c0.4-0.5,0.7-0.7,0.8-0.6c0.1,0,0.4,0.3,0.7,0.9c0.6,1,1.3,1.9,2.1,2.7c0,0,0,0,0.1,0.1c0.3,0.3,0.5,0.4,0.5,0.5
	c0.1,0,0.1,0,0.2-0.2c0.2-0.3,0.4-0.6,0.6-0.8c0.3-0.2,0.6-0.4,0.8-0.5c0.2,0,0.3-0.1,0.3-0.2c0-0.1-0.2-0.2-0.5-0.4
	c-0.7-0.4-1.4-1-2.1-1.8c-0.7-0.7-1.2-1.4-1.5-1.9c-0.1-0.2-0.1-0.3-0.1-0.5c0-0.2,0.1-0.4,0.3-0.8c1-2,1.7-4.5,2.1-7.5
	c0.1-0.8,0.2-1.2,0.3-1.4c0.1-0.1,0.4-0.2,0.8-0.3c0.5,0,0.7-0.2,0.6-0.4c-0.1-0.3-0.5-0.7-1.2-1.3c0,0,0,0-0.1-0.1
	c-0.4-0.4-0.7-0.5-0.8-0.5c-0.1,0-0.4,0.2-0.7,0.7c0,0.1-0.1,0.1-0.1,0.2l0,0c-0.3,0.4-0.5,0.6-0.6,0.6c-0.1,0.1-0.5,0.1-1.2,0.1
	c-0.7,0-1.1-0.1-1.2-0.2c-0.1-0.1-0.1-0.4,0.1-1c0.1-0.4,0.3-0.9,0.4-1.6c0.2-0.9,0.4-1.4,0.7-1.5c0.3-0.1,0.3-0.3,0-0.4
	c-0.3-0.1-0.8-0.3-1.7-0.5c-0.1,0-0.2,0-0.3-0.1c-0.4-0.1-0.6-0.1-0.6,0s-0.1,0.3-0.1,0.7c0,0.1,0,0.3,0,0.4c0,1.6-0.1,2.7-0.3,3
	c-0.2,0.4-0.5,0.3-0.9-0.1c-0.3-0.3-0.6-0.5-0.7-0.5c-0.1,0-0.3,0-0.4,0.2c-0.2,0.3-0.4,0.4-0.5,0.4c-0.1,0-0.2-0.1-0.2-0.4
	c0-0.3,0.1-0.6,0.4-0.7c0.2-0.1,0.3-0.3,0.1-0.4c-0.1-0.2-0.4-0.4-0.8-0.8c-0.4-0.3-0.7-0.4-0.8-0.4c-0.1,0-0.3,0.1-0.5,0.3
	c-0.5,0.6-1.1,0.8-1.8,0.5c-0.2-0.1-0.3-0.2-0.4-0.5c0-0.2,0.1-0.4,0.3-0.6c0.2-0.2,0.2-0.3,0-0.4c-0.2-0.1-0.8-0.3-1.6-0.6
	c-0.4-0.1-0.6-0.1-0.6-0.1c-0.1,0-0.1,0.1-0.1,0.2c0,0.1,0,0.4,0,0.9c0,0.5,0,0.8,0,0.9c-0.2,0.3-0.5,0.4-0.9,0.4
	c-0.4,0-1.1-0.2-1.9-0.6c0,0-0.1,0-0.2-0.1c-0.4-0.2-0.6-0.2-0.7-0.2c0,0-0.1,0.2,0,0.5c0,0.1,0,0.1,0,0.1c0.1,1,0.1,1.6,0.1,1.9
	c0,0.4-0.2,0.6-0.4,0.7c-0.2,0.1-0.5,0-1.1-0.1c-0.1,0-0.1,0-0.1,0.1c0,0.1,0.1,0.2,0.2,0.5l0,0c0.1,0.2,0.2,0.3,0.2,0.3
	c0,0,0.2,0,0.4-0.1c0.3-0.1,0.5,0,0.7,0.2c0.1,0.2,0.1,0.7,0.1,1.6c0,0.8-0.1,1.3-0.2,1.3c0,0-0.1,0.4-0.1,1.2c0,0.1,0,0.2,0,0.2
	c0,0.6,0,1.4-0.1,2.4c0,0.5,0,0.9,0,1c0,0.1,0.1,0.2,0.2,0.3c0.2,0.1,0.5,0.1,0.9,0c0.4-0.1,0.7-0.3,0.8-0.5
	c0.2-0.3,0.4-0.5,0.9-0.4c0.4,0,0.6,0.2,0.6,0.6c-0.1,0.4-0.2,0.8-0.5,0.9c-0.2,0.1-0.7,0.2-1.3,0.2c-1.7,0-2.6,0-2.6,0.1
	c0,0,0.1,0.4,0.3,1c0.2,0.6,0.3,1,0.3,1c0.1,0.1,0.2,0,0.4-0.1c0.2-0.2,0.6-0.3,1.1-0.4s0.8,0,0.8,0.2c0.1,0.2-0.2,0.9-1,2.2
	c-0.2,0.3-0.2,0.5-0.1,0.6c0.1,0.1,0.5,0.2,1.1,0.2c0.3,0,0.4,0,0.5,0c0.1,0,0.2-0.2,0.3-0.4l0-0.1c0.2-0.3,0.4-0.4,0.7-0.4
	c0.3,0,0.6,0.2,0.9,0.5c0.3,0.3,0,0.8-0.9,1.4c-0.9,0.6-2.1,1.2-3.5,1.6C22,95,21.7,95,21.7,95.1c-0.1,0.1,0,0.1,0,0.2
	c0.1,0,0.4,0,1.1-0.1c1.2-0.2,2.3-0.5,3.4-1c0.4-0.2,1-0.5,1.8-1c0.3-0.2,0.6-0.2,0.8-0.1c0.3,0.1,0.7,0.4,1.3,1
	c0.3,0.3,0.6,0.5,0.7,0.5c0.2,0.1,0.4,0,0.6-0.1c0.4-0.2,0.5-0.6,0.4-1.1c-0.2-0.5-0.5-1-1.2-1.4c-0.3-0.2-0.5-0.4-0.5-0.6
	c0-0.2,0.1-0.4,0.4-0.8c0.2-0.2,0.4-0.5,0.5-0.8c0.3-0.5,0.6-0.9,0.8-1c0.1,0,0.2-0.1,0.2-0.2c0-0.1,0-0.2-0.2-0.2
	c-0.1,0-0.1,0-0.1-0.1c0-0.1,0.1-0.2,0.1-0.2c0.1-0.1,0.5-0.2,1.2-0.3c0.4-0.1,0.7-0.1,0.8-0.2c0.1,0,0.1-0.1,0.1-0.2
	c0-0.1-0.7-0.1-2-0.1c-1.3,0-2.5,0-3.6,0.1c-0.5,0-0.8,0-1-0.3c-0.1-0.2,0.1-0.5,0.5-0.7c0.2-0.1,0.3-0.2,0.3-0.3
	c0-0.1,0.2-0.2,0.7-0.3c0.5-0.1,0.8-0.1,1.1,0c0.2,0.1,0.3,0.2,0.3,0.4c0,0.2,0.2,0.2,0.5,0.2c0.3,0,0.6-0.1,1-0.3c0,0,0,0,0.1,0
	c0.2-0.1,0.3-0.2,0.3-0.3c0-0.1,0-0.4,0-0.9c0-0.1,0-0.1,0-0.2c0-0.6,0-1,0-1.2c0-0.2,0.1-0.3,0.3-0.4c0.2-0.2,0.3-0.3,0.3-0.4
	s-0.2-0.4-0.6-0.7c-0.4-0.3-0.6-0.5-0.6-0.6c0-0.1,0-0.3,0.2-0.5c0.1-0.1,0.1-0.2,0.1-0.2c0-0.1,0-0.4,0-0.8c0-0.7,0-1.1,0.1-1.2
	c0.1-0.1,0.5-0.2,1.2-0.2c0.6,0,0.9,0,1,0.1s0.1,0.2,0.1,0.5c0,0.3-0.2,0.9-0.4,1.8c-0.2,0.9-0.5,1.7-0.8,2.5l0,0
	c-0.2,0.6-0.3,0.9-0.3,1c0.1,0.1,0.2,0.1,0.4-0.1c0.2-0.2,0.4-0.5,0.8-1.1c0.4-0.6,0.6-0.9,0.8-0.9s0.3,0.4,0.4,1.1
	c0.3,1.7,0.6,3.2,1,4.5c0.2,0.6,0.2,0.9,0.2,1.1c0,0.2-0.2,0.5-0.4,1c-1.1,1.9-2.4,3.4-3.9,4.7c0,0-0.1,0.1-0.1,0.1
	C32.1,95,32,95,32,95.1C32,95.1,32,95.2,32,95.2z M28.3,90.8c-0.2,0.1-0.6,0.1-1.3,0c-0.6-0.1-0.9-0.3-1-0.4s0-0.5,0.2-0.8
	s0.4-0.6,0.6-0.7c0.2-0.1,0.6-0.2,1.2-0.2c0.6-0.1,1-0.1,1.1,0c0.2,0.1,0.2,0.4-0.1,1.1C28.9,90.2,28.6,90.6,28.3,90.8z M37.8,86.5
	c-0.2,0.3-0.6-0.1-1-1.2c-0.4-1.1-0.7-2.4-1-3.8c-0.1-0.7,0-1.4,0.5-2c0.2-0.3,0.6-0.4,1.4-0.4c0.8,0,1.2,0.1,1.3,0.4
	c0.2,0.3,0.1,1.5-0.3,3.5C38.4,85,38.1,86.2,37.8,86.5z M26.1,85.1c-0.2,0.1-0.5,0.1-1,0.1c-0.4,0-0.6-0.2-0.7-0.3
	c-0.3-0.4-0.3-0.8-0.1-1.2c0.2-0.4,0.6-0.6,1.1-0.6c0.4,0,0.7,0.1,0.9,0.4c0.2,0.3,0.3,0.6,0.3,0.9C26.6,84.7,26.4,85,26.1,85.1z
	 M29.5,85.2c-0.5,0-0.8-0.1-0.9-0.2c-0.1-0.1-0.2-0.4-0.2-0.9c0-0.5,0.1-0.8,0.2-0.9c0.1-0.1,0.4-0.2,0.9-0.2s0.8,0.1,0.9,0.2
	c0.1,0.1,0.2,0.4,0.2,0.9c0,0.3,0,0.5-0.1,0.7c0,0.1-0.1,0.2-0.3,0.3C30.1,85.2,29.8,85.2,29.5,85.2z M25.4,82.4c-0.4,0-0.8,0-1-0.1
	c-0.8-0.3-0.8-0.6-0.1-0.9c0.2-0.1,0.3-0.2,0.3-0.2c0.1-0.2,0.4-0.4,0.8-0.4c0.4,0,0.7,0,0.9,0.2c0.1,0.2,0.2,0.4,0.1,0.7
	c0,0.3-0.1,0.5-0.3,0.6C26.1,82.4,25.8,82.4,25.4,82.4z M29.5,82.4c-0.4,0-0.7,0-0.8-0.1c-0.2-0.1-0.3-0.3-0.3-0.7
	c0-0.4,0.1-0.6,0.4-0.7c0.2-0.1,0.6-0.1,1,0c0.4,0.1,0.6,0.2,0.6,0.3s0.1,0.2,0.3,0.2c0.2,0,0.3,0.1,0.2,0.4c0,0.2-0.2,0.4-0.4,0.5
	C30.2,82.4,29.9,82.4,29.5,82.4z M30,80.1c-0.2,0.1-0.5,0.1-0.9,0.1c-0.4-0.1-0.6-0.2-0.7-0.3c-0.2-0.5-0.2-0.9,0.2-1.2
	c0.4-0.3,0.8-0.4,1.3-0.1c0.2,0.1,0.3,0.4,0.3,0.8C30.3,79.7,30.2,80,30,80.1z M26.2,80.1c-0.2,0.1-0.5,0.2-0.8,0.1
	c-0.4,0-0.6-0.2-0.6-0.3c-0.2-0.5-0.2-0.9,0.2-1.2c0.4-0.3,0.8-0.4,1.2-0.2c0.2,0.1,0.3,0.4,0.4,0.8C26.5,79.7,26.4,79.9,26.2,80.1z
	 M26.1,77.8c-0.5,0.2-0.9,0.2-1.2-0.1c-0.3-0.3-0.4-0.7-0.2-1.2c0.1-0.2,0.3-0.3,0.6-0.3c0.4,0,0.6,0,0.8,0.1
	c0.2,0.1,0.3,0.4,0.3,0.8C26.4,77.4,26.3,77.7,26.1,77.8z M29.3,77.8c-0.4,0-0.7-0.1-0.9-0.4c-0.2-0.3-0.2-0.6,0-1
	c0.1-0.2,0.4-0.3,0.9-0.3s0.8,0.1,0.9,0.3c0.1,0.2,0.1,0.5,0.1,0.8c0,0.3-0.2,0.5-0.3,0.5C29.8,77.8,29.6,77.8,29.3,77.8z
	 M59.4,87.6c1.1,0.1,2-0.2,2.8-1c0.8-0.8,1.1-1.7,1-2.8c-0.1-0.9-0.5-1.6-1.2-2.2c-0.6-0.5-1.4-0.8-2.2-0.8c-0.9,0-1.6,0.3-2.3,0.9
	c-0.7,0.6-1,1.4-1.1,2.3c0,0.8,0.2,1.6,0.7,2.3C57.8,87.1,58.5,87.5,59.4,87.6z M60.7,86.6c-0.8,0.3-1.6,0.2-2.3-0.3
	c-0.7-0.5-1.1-1.2-1.1-2.1c0-0.7,0.2-1.3,0.7-1.8c0.5-0.5,1.1-0.7,1.7-0.7c0.7,0,1.3,0.2,1.8,0.7c0.7,0.6,0.9,1.4,0.7,2.3
	C62.1,85.7,61.6,86.3,60.7,86.6z"/>
</svg>
