<?xml version="1.0" encoding="utf-8"?>
<!-- Generator: Adobe Illustrator 24.2.3, SVG Export Plug-In . SVG Version: 6.00 Build 0)  -->
<svg version="1.1" id="Layer_1" xmlns="http://www.w3.org/2000/svg" xmlns:xlink="http://www.w3.org/1999/xlink" x="0px" y="0px"
	 viewBox="0 0 352 219" style="enable-background:new 0 0 352 219;" xml:space="preserve">
<style type="text/css">
	.st0{clip-path:url(#SVGID_2_);}
	.st1{fill:none;stroke:#D6D2C7;stroke-width:1.3;stroke-miterlimit:10;stroke-dasharray:9.31,9.31;}
	.st2{fill:#D6D2C7;}
</style>
<g>
	<defs>
		<rect id="SVGID_1_" width="351.3" height="218.1"/>
	</defs>
	<clipPath id="SVGID_2_">
		<use xlink:href="#SVGID_1_"  style="overflow:visible;"/>
	</clipPath>
	<g class="st0">
		<path class="st1" d="M350.6,0.6H0.6v216.8h350V0.6z"/>
	</g>
</g>
<path class="st2" d="M23.3,46.4c0,0,0.1,0.1,0.2,0c0,0,0.1,0,0.2,0c0.1,0,0.1,0,0.2,0c1-0.2,1.6-0.7,1.9-1.5c0-0.2,0.1-1.7,0.1-4.5
	c0-0.2,0-0.5,0-0.9c0-1.8,0-2.8,0-3.1c0-0.3,0.1-0.5,0.2-0.6l0,0c0,0,0.3-0.2,0.8-0.6c0.1-0.1,0.3-0.2,0.4-0.3l0,0
	c0.5-0.4,0.8-0.6,0.9-0.6c0.1-0.1,0.1-0.2,0.1-0.2c0,0-0.1-0.1-0.2,0c-0.1,0-0.4,0.1-0.8,0.2c0,0-0.1,0-0.1,0
	c-0.5,0.2-0.9,0.3-1,0.3c-0.2,0-0.3-0.1-0.4-0.4c0-0.2-0.1-0.7-0.1-1.4c0-0.1,0-0.1,0-0.2c0-0.1,0-0.3,0-0.5c0-0.8,0-1.3,0.1-1.5
	s0.4-0.2,1.1-0.2c0.1,0,0.3,0,0.3,0c0.9,0,1.4-0.1,1.5-0.2c0.1-0.1,0-0.5-0.5-1c-0.5-0.6-0.8-0.9-1-1c-0.2-0.1-0.4,0.1-0.6,0.5
	c-0.4,0.6-0.6,0.9-0.7,0.7s-0.2-0.7-0.2-1.8c0-0.8,0-1.3,0-1.5c0-0.2,0.1-0.3,0.3-0.5c0.2-0.2,0.2-0.4-0.1-0.5
	c-0.3-0.2-0.9-0.4-1.9-0.6c-0.3-0.1-0.5-0.1-0.6-0.1c0,0-0.1,0.2,0,0.5v0c0.1,0.8,0.2,1.7,0.2,2.8c0,1.1,0,1.6-0.1,1.8
	c-0.1,0.1-0.3,0.2-0.6,0.2c-0.3,0-0.9,0-1.7-0.1c-0.2,0-0.2,0-0.3,0c0,0,0.1,0.2,0.2,0.5c0.1,0.3,0.2,0.4,0.3,0.5c0.1,0,0.2,0,0.3,0
	c0.4-0.2,0.8-0.2,1.2-0.2c0.4,0,0.6,0.1,0.7,0.3c0.1,0.1,0.1,0.9,0.1,2.3c0,1.4,0,2.2-0.1,2.3c-0.1,0.3-0.8,0.6-2.2,1c0,0,0,0-0.1,0
	c-0.2,0-0.3,0.1-0.3,0.2s0.1,0.4,0.3,0.9c0,0.1,0.1,0.2,0.1,0.2c0.3,0.7,0.4,1.1,0.5,1.2c0.1,0.1,0.2,0,0.3-0.3
	c0.2-0.3,0.4-0.5,0.7-0.6c0.4-0.1,0.6-0.1,0.6,0.1c0,0.1,0,1.1,0,2.9s0,2.8-0.1,2.9c-0.1,0.2-0.2,0.3-0.5,0.3c-0.2,0-0.7,0-1.4,0
	c-0.4,0-0.6,0-0.6,0c-0.1,0.2-0.1,0.3,0.2,0.3c0.6,0.1,1,0.3,1.2,0.6c0.3,0.3,0.4,0.6,0.5,1.2C23.2,46.2,23.2,46.3,23.3,46.4z
	 M33.2,46.2c0.1,0.1,0.7,0,1.7-0.5c1-0.4,1.9-0.9,2.5-1.4c0.4-0.3,0.8-0.4,1.2-0.2c0.4,0.2,0.8,0.8,1.4,1.7c0.2,0.3,0.4,0.4,0.7,0.4
	c0.3,0,0.6-0.2,0.7-0.4c0.2-0.4,0.1-0.8-0.1-1.3c-0.2-0.5-0.6-1-1.2-1.5c-0.3-0.3-0.5-0.4-0.5-0.6c0-0.1,0-0.3,0.1-0.5
	c0.5-1,0.8-1.6,1-1.8c0.2-0.2,0.3-0.4,0.5-0.4c0.3-0.1,0.4-0.2,0.3-0.4s-0.4-0.5-0.9-0.9c-0.4-0.3-0.7-0.5-0.8-0.5
	c-0.1,0-0.3,0.1-0.6,0.4c-0.3,0.3-0.7,0.5-1.1,0.6c-0.4,0.1-1.2,0.1-2.4,0c-0.6,0-1-0.1-1.1-0.1s-0.2,0-0.2,0.1c0,0.1,0,0.2-0.1,0.1
	c-0.1,0-0.2-0.1-0.3-0.3c-0.1-0.2-0.3-0.3-0.5-0.4c-0.2-0.1-0.4-0.2-0.6-0.3c-0.2-0.1-0.3-0.2-0.4-0.1c-0.1,0-0.2,0.1-0.5,0.4
	c-0.3,0.3-0.6,0.5-1,0.6c-0.4,0.1-0.7,0.1-1-0.1c-0.2-0.1-0.3-0.5-0.2-1.1c0.1-0.6,0.2-0.9,0.5-1.1c0.3-0.1,0.6-0.2,0.9,0
	s0.5,0.3,0.5,0.5c0,0.4,0.4,0.4,1.2,0.1c0.4-0.1,0.6-0.2,0.6-0.4s0.1-0.4,0-0.8c-0.1-1-0.1-1.6,0-2c0-0.4,0.2-0.7,0.3-0.8
	c0.2-0.1,0.3-0.2,0.3-0.4c0-0.1-0.3-0.4-0.6-0.7c-0.5-0.4-0.8-0.6-1-0.6c-0.1,0-0.4,0.2-0.7,0.5c-0.2,0.2-0.3,0.3-0.5,0.4
	c-0.1,0-0.3,0.1-0.6,0.1c-0.6,0-0.9-0.1-0.9-0.2c0-0.1,0.2-0.4,0.8-0.8c1.4-1.1,2.6-2.5,3.4-4.2c0.3-0.6,0.6-1,0.9-1.1
	c0.3-0.1,0.4-0.2,0.4-0.3c0-0.1-0.2-0.3-0.5-0.6c-0.6-0.6-1-0.9-1.2-0.9c-0.2-0.1-0.5,0.1-0.8,0.4c-0.3,0.3-0.8,0.5-1.3,0.6
	c-0.6,0.1-1.4,0-2.6-0.1c-0.3,0-0.5,0-0.5,0c0,0,0,0.2,0.2,0.4c0,0,0,0.1,0,0.1c0.1,0.3,0.2,0.4,0.3,0.5c0.1,0,0.2,0,0.5,0
	c0.1,0,0.1,0,0.1,0c0.3-0.1,0.7-0.1,1.2-0.1c0.5,0,0.8,0,1,0c0.4,0.1,0.4,0.4,0.2,1c-0.2,0.4-0.3,0.7-0.5,0.8
	c-0.1,0.1-0.4,0-0.7-0.2c-0.3-0.2-0.6-0.3-1.1-0.4c-0.4-0.1-0.8-0.2-1.1-0.2c-0.1,0-0.2,0.1-0.2,0.1c0,0.1,0.1,0.2,0.3,0.4
	c0.4,0.5,0.8,1,1,1.5c0.1,0.2,0.2,0.4,0.3,0.4c0.4,0.2,0.3,0.6-0.2,1.2c-0.5,0.7-1.3,1.3-2.3,2c-0.2,0.2-0.4,0.3-0.4,0.3
	c0,0.1,0,0.1,0,0.2c0.1,0,0.3,0,0.8-0.2c0.3-0.1,0.4-0.2,0.5-0.2c0.1,0,0.2,0,0.3,0.1c0.1,0,0.1,0.1,0.1,0.1c0,0.1,0.1,0.1,0.2,0.1
	c0.2,0,0.5,0,1.1,0c0,0,0,0,0.1,0c0.7,0,1.2,0.1,1.3,0.2c0.1,0.1,0.2,0.5,0.2,1.1v0.1c0,0.8-0.2,1.2-0.5,1.3c-0.3,0.1-1-0.1-2-0.6
	c0,0-0.1,0-0.2-0.1c-0.3-0.2-0.5-0.2-0.6-0.2c-0.1,0-0.1,0.2-0.1,0.6c0,0.1,0,0.1,0,0.2c0,1.3-0.2,2.7-0.4,4.1c0,0,0,0.1,0,0.1
	c-0.1,0.4-0.1,0.6,0,0.7c0,0.1,0.2,0.1,0.6,0.1c0,0,0.1,0,0.1,0c0.4,0,0.6,0,0.8-0.1c0.2-0.1,0.2-0.3,0.2-0.5c0-0.3,0.2-0.4,0.6-0.6
	c0.4-0.1,0.7-0.1,1.1,0c0.4,0.1,0.6,0.2,0.6,0.5c0,0.6-0.1,1.4-0.2,2.2c-0.2,0.8-0.3,1.3-0.6,1.6c-0.2,0.2-0.4,0.3-0.6,0.3
	c-0.2,0-0.8,0-1.8,0c-0.3,0-0.5,0-0.6,0.1c0,0.1,0.1,0.2,0.4,0.2c0.5,0.1,0.8,0.3,1.1,0.6c0.3,0.3,0.4,0.6,0.4,0.9
	c0,0.1,0,0.2,0.1,0.3c0.1,0.1,0.3,0.1,0.6,0c0.4-0.1,0.7-0.2,1-0.3c0.5-0.3,1-0.7,1.2-1.4c0.3-0.7,0.5-1.8,0.7-3.3
	c0.1-0.6,0.1-1,0.2-1.1c0.1-0.2,0.2-0.3,0.4-0.4c0.1,0,0.3-0.1,0.3-0.2c0.1-0.1,0.1-0.1,0.2,0c0.1,0,0.2,0.2,0.3,0.3
	c0,0.1,0.1,0.1,0.1,0.1c0,0,0.2,0,0.6-0.1c0,0,0.1,0,0.1,0c2.2-0.4,3.1-0.2,2.8,0.7c-0.2,0.5-0.3,0.8-0.5,0.9
	c-0.2,0.1-0.4,0.1-0.8,0c-1.2-0.3-1.8-0.5-2.1-0.5c-0.2,0-0.4,0-0.4,0.1c0,0.1,0,0.2,0.2,0.3c0.4,0.3,0.9,0.6,1.3,0.9
	c0.4,0.3,0.6,0.5,0.7,0.7c0.1,0.3-0.2,0.8-1,1.4c-0.7,0.7-1.5,1.2-2.4,1.7C33.3,46,33.2,46.1,33.2,46.2z M33.9,38.4
	c0.1,0.1,0.4,0,0.9-0.4c0.5-0.4,0.9-0.7,1.1-1.1c0.4-0.6,0.7-1.6,0.8-2.8c0-0.4,0.1-0.6,0.2-0.7s0.3-0.2,0.6-0.2
	c0.4,0,0.6,0.1,0.7,0.3c0.1,0.2,0.1,0.7,0.1,1.6c0,1,0.1,1.6,0.1,1.8c0.1,0.2,0.4,0.3,0.9,0.4c0.3,0.1,0.8,0.1,1.3,0
	c0.6,0,1-0.1,1.2-0.2c0.3-0.1,0.5-0.3,0.6-0.6c0.1-0.3,0-0.5-0.2-0.7c-0.2-0.2-0.3-0.5-0.4-0.9c0-0.7-0.2-0.7-0.5,0
	c-0.1,0.4-0.3,0.6-0.6,0.8c-0.3,0.1-0.5,0.1-0.8,0c-0.2-0.2-0.3-0.5-0.3-1.2c0-0.6,0.2-1,0.5-1.1c0.3-0.1,0.3-0.3,0.2-0.4
	c-0.1-0.1,0-0.2,0.1-0.3c0.2-0.1,0.3,0,0.5,0.1c0.1,0.1,0.2,0.1,0.2,0.1c0,0,0.1-0.1,0.1-0.2c0.1-0.3,0.2-0.5,0.4-0.8
	c0.2-0.3,0.5-0.4,0.7-0.6c0.2-0.1,0.3-0.2,0.3-0.2c0-0.1-0.2-0.2-0.5-0.3c-0.7-0.3-1.3-0.6-1.8-0.9c-0.5-0.3-0.7-0.5-0.7-0.7
	c0-0.1,0.3-0.4,0.8-0.7c0.6-0.3,1-0.5,1.2-0.5c0.3,0,0.3-0.1,0.2-0.3c-0.1-0.2-0.5-0.5-1-0.9c0,0,0,0-0.1-0.1
	c-0.2-0.2-0.3-0.2-0.4-0.2c-0.1,0-0.2,0.1-0.3,0.4c0,0.1-0.1,0.1-0.1,0.1c-0.5,0.9-0.9,1.4-1.1,1.5c-0.2,0.1-0.6-0.1-1-0.5
	c-0.3-0.3-0.4-0.5-0.3-0.7c0.1-0.2,0.4-0.4,1-0.8c0.1,0,0.2-0.1,0.4-0.2c0.5-0.3,0.8-0.4,1-0.5c0.2,0,0.3-0.1,0.1-0.3
	c-0.1-0.2-0.4-0.4-1-0.8c0,0-0.1,0-0.1-0.1c-0.3-0.2-0.4-0.3-0.5-0.2c-0.1,0-0.2,0.2-0.4,0.6c0,0.1-0.1,0.2-0.1,0.2
	c-0.4,0.9-0.8,1.4-1,1.3c-0.2,0-0.6-0.6-1.2-1.6c-0.2-0.4-0.3-0.6-0.4-0.6c-0.1-0.1-0.1-0.1-0.2,0c0,0,0,0.2,0,0.4
	c0.6,2.2,1.5,4,2.7,5.5c0.4,0.5,0.6,0.8,0.7,0.9s0,0.2,0,0.4c-0.1,0-0.2,0.2-0.4,0.5c-0.3,0.4-0.6,0.6-1,0.6c-0.3,0-0.9-0.2-1.7-0.5
	c-0.1,0-0.1-0.1-0.2-0.1c-0.3-0.2-0.5-0.2-0.5-0.1c0,0.1-0.1,0.4-0.1,1c0,0.2,0,0.4,0,0.6c0,1.2-0.1,2.2-0.2,2.8
	c-0.1,0.6-0.4,1.1-0.8,1.6C33.8,38.1,33.8,38.3,33.9,38.4z M58.4,46.3c0.2,0.2,0.7-0.1,1.6-0.8c0.9-0.7,1.6-1.5,2.2-2.3
	c0.9-1.3,1.6-2.7,2.1-4.4c0.4-1.7,0.7-3.9,0.9-6.7c0-0.7,0.1-1.1,0.2-1.2c0.1-0.1,0.5-0.2,1.1-0.2c0,0,0.1,0,0.2,0
	c0.4,0,0.7,0,0.8,0.1c0.2,0.1,0.2,0.4,0.3,1c0,0.4,0,1.2,0,2.6c0,0.2,0,0.4,0,0.5c-0.1,3.1-0.2,5.1-0.3,6c-0.1,1.2-0.4,2-0.9,2.3
	c-0.3,0.3-1,0.3-2,0.3c-0.6,0-0.9,0-0.9,0c0,0.1,0.1,0.2,0.4,0.3c0.6,0.2,1,0.4,1.2,0.6c0.3,0.3,0.4,0.7,0.5,1.2
	c0,0.2,0.1,0.3,0.2,0.3c0.1,0,0.4,0,0.8-0.1c0.8-0.2,1.4-0.6,1.8-1.3c0.4-0.7,0.7-1.9,0.9-3.6c0.2-1.5,0.3-4,0.4-7.4
	c0-1.3,0.1-2,0.1-2.3c0-0.2,0.2-0.4,0.4-0.5c0.3-0.1,0.4-0.2,0.4-0.3c0-0.1-0.1-0.3-0.4-0.6c-0.6-0.6-1.1-1-1.3-1.1
	c-0.2-0.1-0.5,0-0.8,0.3c-0.3,0.4-0.6,0.6-0.7,0.7c-0.2,0.1-0.5,0.1-1,0.1c0,0-0.1,0-0.1,0c-0.4,0-0.6,0-0.7-0.1
	c-0.1-0.1-0.2-0.3-0.3-0.5c0-0.2,0-0.7,0-1.5c0-0.2,0-0.3,0-0.4c0-1.1,0-1.8,0.1-2c0-0.2,0.2-0.4,0.3-0.6c0.2-0.2,0.1-0.3-0.4-0.5
	c-0.5-0.1-1.1-0.2-1.9-0.2c0,0,0,0-0.1,0c-0.1,0-0.2,0.1-0.2,0.2c0,0.2,0,0.8,0,1.8c0,0.3,0,0.5,0,0.6c0,0.1,0,0.3,0,0.5
	c0,1,0,1.6-0.1,1.8c-0.1,0.4-0.2,0.6-0.5,0.6c-0.2,0-0.6,0-1.4-0.1c-0.2,0-0.3,0-0.4,0c-0.1,0-0.2,0-0.2,0c0,0,0,0.1,0.1,0.3
	c0,0.1,0.1,0.2,0.1,0.4c0,0.1,0.1,0.2,0.1,0.2c0.1,0,0.1,0,0.1,0.1c0.1,0,0.2,0,0.4-0.1c0.7-0.3,1.2-0.3,1.4,0
	c0.2,0.2,0.3,0.9,0.2,2.1c-0.2,4.5-0.8,7.6-1.8,9.2c-0.1,0.1-0.2,0.3-0.4,0.6c0,0.1-0.1,0.2-0.1,0.2c-0.2,0.4-0.5,0.9-1,1.5
	c-0.4,0.6-0.8,1-1.2,1.3C58.4,46,58.3,46.2,58.4,46.3z M50.1,46c0.1,0.2,0.2,0.1,0.5-0.1c0.1-0.1,0.3-0.2,0.5-0.3
	c0.2-0.1,0.7-0.2,1.5-0.5c2.3-0.7,4.2-1.3,5.8-1.8c1.5-0.5,2.3-0.8,2.3-0.9c0-0.1,0-0.2-0.2-0.2c-0.2,0-0.8,0.1-1.8,0.2h0
	c-1,0.1-1.6,0.2-1.9,0.2c-0.4,0-0.6,0-0.7-0.2C56,42.3,56,42.1,56,41.7c0,0,0-0.1,0-0.1v0c0-0.4,0-0.6,0.1-0.7
	c0.1-0.1,0.3-0.2,0.6-0.2c0.2,0,0.8,0,1.6,0c0.1,0,0.1,0,0.2,0c1.4,0,2.2-0.1,2.3-0.3c0.1-0.2-0.3-0.7-1.3-1.4
	c-0.3-0.2-0.5-0.4-0.5-0.5c0-0.1,0.2-0.2,0.6-0.4l0,0c0.3-0.1,0.5-0.3,0.6-0.3c0-0.1,0.1-0.3,0-0.7c0-0.1,0-0.3,0-0.7
	c0-0.8,0-1.4,0-1.9c0-1.2,0-1.9,0-2.1c0-0.2,0.2-0.4,0.5-0.6c0.2-0.1,0.3-0.2,0.2-0.4c0-0.1-0.1-0.2-0.1-0.3c0-0.1-0.1-0.2-0.2-0.3
	c-0.2-0.1-0.4-0.2-0.7-0.4c-0.4-0.2-0.6-0.4-0.7-0.3c-0.1,0-0.3,0.2-0.5,0.5c-0.2,0.3-0.4,0.5-0.6,0.5c-0.1,0.1-0.4,0.1-0.9,0.1
	c-0.6,0-0.9,0-1.1-0.1C56,31,56,30.7,56,30.3c0,0,0,0,0-0.1c0-0.3,0-0.5,0.1-0.6c0.1-0.1,0.3-0.2,0.6-0.2c0.3,0,0.9,0,1.8,0
	c0.1,0,0.1,0,0.2,0c1.2,0,1.9,0,2.2-0.1c0.4-0.1,0.5-0.2,0.4-0.5c-0.1-0.2-0.5-0.6-1.2-1.1c-0.4-0.3-0.7-0.5-0.8-0.5
	c-0.1,0-0.3,0.2-0.6,0.6c-0.3,0.4-0.6,0.7-0.7,0.8c-0.1,0.1-0.4,0.1-0.9,0.1c-0.5,0-0.8,0-0.9-0.1c-0.1-0.1-0.2-0.4-0.2-0.8
	c0-0.6,0-0.9,0.2-1c0.2-0.1,0.6-0.3,1.4-0.4c0.2,0,0.4,0,0.8-0.1c0.4,0,0.6-0.1,0.7-0.1c0.4-0.1,0.7-0.1,1,0c0.4,0.1,0.5,0,0.5-0.1
	c0-0.2-0.4-0.6-1-1.2c0,0-0.1-0.1-0.1-0.1c-0.3-0.3-0.5-0.4-0.6-0.5c-0.1,0-0.2,0-0.4,0.1c0,0-0.1,0-0.1,0c-2.2,0.8-4.7,1.5-7.6,2.1
	c-0.7,0.1-1.1,0.2-1.2,0.3s-0.2,0.1-0.1,0.2c0,0.1,1,0.1,3,0c0.7,0,1.1,0,1.3,0c0.2,0,0.3,0.2,0.4,0.4c0.1,0.3,0.1,0.6,0,0.9
	c0,0.3-0.2,0.4-0.3,0.5c-0.1,0.1-0.8,0.1-1.9,0.1c-1.2,0-2-0.1-2.4-0.2c-0.1,0-0.2,0-0.2,0.1c0,0.1,0.1,0.2,0.2,0.5l0,0
	c0.1,0.3,0.2,0.4,0.3,0.5c0.1,0,0.3,0,0.7,0c1.4-0.2,2.4-0.3,2.9-0.2c0.5,0.1,0.8,0.4,0.8,0.9c0,0.6-0.3,0.9-0.8,1
	c-0.5,0-1.3-0.2-2.4-0.6c-0.5-0.2-0.8-0.3-0.9-0.3c-0.1,0-0.2,0-0.1,0.2c0.1,0.5,0.2,1.6,0.2,3.3c0,1.6,0,2.9-0.1,3.7
	c0,0.6,0,0.9,0.1,1.1c0.1,0.1,0.3,0.2,0.7,0.1c0.7-0.1,1.1-0.3,1.2-0.6c0.1-0.3,0.5-0.5,1.1-0.5s0.9,0.2,1,0.5c0.1,0.3,0.1,0.6,0,1
	c0,0.4-0.1,0.6-0.3,0.7c-0.1,0.1-0.6,0.1-1.4,0.1s-1.7,0-2.6-0.1c-0.2,0-0.3,0-0.3,0c0,0,0.1,0.2,0.2,0.6c0,0,0,0,0,0.1
	c0.1,0.2,0.2,0.3,0.2,0.4c0.1,0,0.2,0,0.5,0c0.1,0,0.1,0,0.2,0c1.4-0.3,2.3-0.3,2.7-0.2c0.4,0.1,0.7,0.5,0.7,1.1c0,0,0,0.1,0,0.2
	c0,0.4,0,0.6-0.1,0.7c-0.1,0.1-0.3,0.2-0.6,0.3c-0.2,0-0.8,0.1-1.6,0.2c-0.2,0-0.3,0-0.4,0c-0.1,0-0.3,0-0.6,0
	c-0.8,0.1-1.2,0.1-1.3,0.1s-0.2,0.1-0.2,0.1C49.3,43.7,49.6,44.5,50.1,46z M57.6,39.9C57.4,40,57.2,40,56.9,40s-0.5-0.1-0.6-0.1
	c-0.2-0.1-0.3-0.5-0.3-1s0.1-0.9,0.3-1c0.2-0.1,0.6-0.2,1.1-0.1c0.6,0.1,0.8,0.2,0.8,0.3c0,0.2,0.1,0.2,0.3,0.2c0.1,0,0.1,0,0.2,0.1
	c0.1,0.1,0.1,0.1,0,0.1c-0.1,0.2-0.4,0.5-0.6,0.8C57.8,39.7,57.7,39.9,57.6,39.9z M53.7,37c-0.1,0.1-0.4,0.1-0.7,0.1
	c-0.4,0-0.6,0-0.7-0.1c-0.2-0.1-0.3-0.5-0.4-1c0-0.6,0.1-0.9,0.3-1.1c0.1-0.1,0.4-0.1,0.8-0.1c0.4,0,0.7,0.1,0.8,0.1
	c0.2,0.1,0.3,0.5,0.3,1.1C54,36.6,53.9,36.9,53.7,37z M57.1,37.1c-0.4,0-0.7,0-0.8-0.1c-0.2-0.1-0.4-0.5-0.4-1
	c0-0.6,0.1-0.9,0.3-1.1c0.1-0.1,0.4-0.1,0.8-0.1c0.4,0,0.7,0,0.8,0.1c0.2,0.1,0.3,0.5,0.3,1.1c0,0.6-0.1,0.9-0.4,1
	C57.8,37.1,57.5,37.1,57.1,37.1z M53.7,34.1c-0.1,0.1-0.4,0.1-0.7,0.1c-0.4,0-0.6,0-0.7-0.1c-0.2-0.1-0.3-0.3-0.4-0.8
	c0-0.5,0-0.8,0.1-1.1c0.1-0.2,0.4-0.4,0.9-0.4c0.5,0,0.9,0.1,1,0.4c0.1,0.2,0.2,0.6,0.1,1.1C54,33.7,53.8,34,53.7,34.1z M57.1,34.2
	c-0.4,0-0.7,0-0.8-0.1c-0.3-0.1-0.4-0.5-0.4-1.1c0-0.6,0.1-1,0.4-1.1c0.1-0.1,0.4-0.1,0.8-0.1c0.4,0,0.7,0,0.8,0.1
	c0.3,0.1,0.4,0.5,0.4,1.1c0,0.6-0.1,0.9-0.4,1.1C57.8,34.1,57.5,34.2,57.1,34.2z M77.5,46.1c0.1,0,0.2,0,0.4,0c0,0,0.1,0,0.1,0
	c0,0,0.1,0,0.1,0c0.6-0.1,1.4-0.2,2.3-0.2c0.9,0,3.7,0,8.4,0c0.5,0,1.2,0,2.2,0c3.6,0,5.7,0,6.3,0c0.6,0,1-0.1,1-0.2l0,0
	c0.1-0.1,0-0.3-0.3-0.7c-0.3-0.3-0.7-0.7-1.1-1c0,0,0,0-0.1-0.1c-0.3-0.3-0.6-0.4-0.7-0.3c-0.1,0-0.3,0.3-0.7,0.8c0,0,0,0.1,0,0.1
	c0,0-0.1,0.1-0.1,0.2c-0.2,0.3-0.4,0.5-0.6,0.5c-0.2,0-0.9,0.1-2,0.1c-0.3,0-0.5,0-0.6,0c-0.1,0-0.3,0-0.6,0c-0.9,0-1.5,0-1.8,0
	c-0.4,0-0.6-0.1-0.7-0.3c0-0.1-0.1-0.3-0.1-0.7c0-0.1,0-0.2,0-0.3c0-0.1,0-0.2,0-0.4c0-0.4,0-0.6,0.1-0.7c0.1-0.1,0.4-0.2,0.8-0.2
	c0.3,0,1,0,2.1,0c0.4,0,0.8,0,1.1,0c0,0,0.1,0,0.2,0c1.6,0,2.5,0,2.9-0.1c0.5,0,0.8-0.1,0.8-0.3c0-0.1-0.3-0.4-0.7-0.8
	c0,0-0.1-0.1-0.1-0.1c-0.7-0.6-1.1-1-1.3-1c-0.2,0-0.5,0.2-0.8,0.7c0,0-0.1,0.1-0.1,0.2c-0.3,0.4-0.5,0.6-0.6,0.6
	c-0.2,0-0.7,0.1-1.6,0.1c-0.2,0-0.3,0-0.4,0c-0.9,0-1.5,0-1.7,0c-0.2,0-0.3-0.1-0.4-0.1c-0.1-0.1-0.2-0.3-0.2-0.5s0.1-0.4,0.3-0.5
	c0.1-0.1,0.1-0.2,0.1-0.3c0-0.1-0.2-0.2-0.4-0.3c-0.3-0.2-0.5-0.3-0.6-0.4c0-0.1,0-0.3,0.2-0.5c0.1-0.1,0.1-0.3,0.1-0.5
	c0-0.2,0-0.9,0-2.2c0-1.3,0-2,0-2.3c0-0.2,0.1-0.4,0.2-0.5c0.1-0.1,0.2-0.2,0.3-0.2c0.2-0.1,0.3-0.2,0.2-0.4
	c-0.1-0.2-0.4-0.4-0.8-0.8c-0.3-0.2-0.4-0.4-0.5-0.5c0-0.1,0-0.3,0.1-0.4c0.1-0.1,0.1-0.2,0.1-0.3c0-0.1,0-0.6,0-1.2
	c0-0.8,0-1.2,0-1.4s0.1-0.3,0.3-0.4c0.3-0.2,0.3-0.3,0.3-0.5c-0.1-0.2-0.4-0.4-0.9-0.9c0,0-0.1,0-0.1-0.1c-0.3-0.2-0.5-0.4-0.6-0.4
	c-0.1,0-0.2,0.1-0.5,0.4c0,0-0.1,0.1-0.1,0.1c-0.3,0.3-0.9,0.5-1.7,0.5c-0.8,0-1.6-0.1-2.3-0.4c-0.7-0.3-1-0.4-1.2-0.5
	c-0.1,0-0.2,0-0.1,0.2c0.2,1.1,0.2,2.3,0.2,3.6c0,1.3-0.1,1.8-0.3,1.7c-0.1-0.1-0.1,0-0.2,0.2c0,0.2,0,0.8,0,1.7
	c0,1.6,0,3.2-0.1,4.8c0,0.6,0,1,0.1,1.1c0.1,0.1,0.5,0.1,1,0c0.4-0.1,0.6-0.2,0.7-0.4c0.1-0.2,0.2-0.5,0.1-0.9c0-0.5,0-0.9,0-1.1
	c0.1-0.2,0.2-0.3,0.5-0.4c0.2,0,0.7,0,1.4,0c0.8,0,1.3,0,1.5,0.1c0.2,0,0.3,0.2,0.3,0.5c0,0.5-0.4,0.6-1.2,0.6c-0.2,0-0.4,0-0.7,0
	c-0.1,0-0.1,0.1-0.1,0.2c0,0.1,0.1,0.1,0.2,0.1c0.3,0,0.6,0.1,0.9,0.4c0.3,0.3,0.5,0.5,0.5,0.8c0,0.1,0,0.2,0.1,0.2
	c0.2,0.2,0.2,0.6,0.2,1c0,0.4-0.1,0.7-0.3,0.8c-0.1,0-1.1,0.1-2.9,0c-1.9,0-3.1,0-3.6-0.1c-0.4,0-0.6,0-0.6,0c0,0,0,0.2,0.2,0.5
	c0,0,0,0.1,0,0.1c0.1,0.3,0.2,0.4,0.3,0.4c0.1,0,0.3,0,0.6,0c0,0,0.1,0,0.1,0c0.9-0.1,2.1-0.2,3.7-0.2c0.1,0,0.2,0,0.4,0
	c0.8,0,1.3,0,1.5,0c0.3,0,0.5,0.1,0.6,0.3c0,0.1,0.1,0.4,0.1,0.8c0,0.1,0,0.2,0,0.2c0,0.5,0,0.8-0.1,0.9c0,0.1-0.1,0.3-0.3,0.3
	s-1.6,0.1-4.3,0.1c-2.7,0-4.4-0.1-4.9-0.2C77,45,77,45,77,45.1c0,0.1,0.1,0.3,0.2,0.6c0,0,0,0,0,0.1C77.4,45.9,77.5,46.1,77.5,46.1z
	 M77,40.4c0.1,0.1,0.3,0,0.6-0.4c0.3-0.4,0.7-0.8,1-1.4c0.7-1.2,1.2-2.4,1.5-3.8c0.3-1.4,0.5-3.3,0.5-5.7c0-1.4,0-2.2,0-2.4
	c0-0.2,0.1-0.4,0.3-0.5c0.1-0.1,1.2-0.1,3.1-0.1c1.9,0,2.9,0,3.1,0.1c0.2,0.1,0.3,0.1,0.5,0c0.1,0,0.4-0.1,0.8-0.1
	c0.4,0,1.7,0,3.8,0c0.1,0,0.2,0,0.3,0c2.4,0,3.8,0,4.2,0s0.7-0.1,0.7-0.2c0.1-0.2-0.2-0.6-1.2-1.3c-0.4-0.3-0.7-0.5-0.8-0.5
	c-0.1,0-0.3,0.1-0.5,0.4c-0.1,0.1-0.1,0.2-0.2,0.3c-0.2,0.3-0.4,0.4-0.6,0.5c-0.2,0.1-0.7,0.2-1.4,0.2c-0.5,0-1.6,0-3.4,0
	c-0.8,0-1.5,0-2,0c-3.2,0-5.2,0-5.8-0.1c-0.6,0-1.2-0.2-1.8-0.4c-0.1,0-0.2-0.1-0.4-0.1c-0.4-0.2-0.7-0.3-0.8-0.3
	c-0.1,0-0.1,0.1-0.1,0.3c0,0.1,0,0.1,0,0.2c0,0.4,0,1.8,0,4c0,2.3,0,3.6,0,4.1c-0.2,2.7-0.7,4.9-1.4,6.5C77,40.1,77,40.3,77,40.4z
	 M96.1,39.5c0.2,0.2,0.3,0.3,0.4,0.3c0.1,0,0.1-0.1,0.2-0.3c0.1-0.3,0.2-0.6,0.5-0.8c0.2-0.3,0.5-0.4,0.7-0.5
	c0.2-0.1,0.3-0.2,0.3-0.2c0-0.1-0.2-0.2-0.5-0.4c-0.8-0.5-1.6-1.1-2.2-1.9c-0.6-0.8-1.1-1.6-1.4-2.5c-0.2-0.5-0.2-0.8-0.2-0.9
	c0-0.2,0.2-0.3,0.5-0.4c0.2,0,0.8,0,1.6,0c1.1,0,1.8,0,1.9-0.1c0.2-0.1,0-0.3-0.4-0.7c-0.3-0.3-0.5-0.5-0.6-0.7
	c-0.1-0.2,0-0.4,0.1-0.6c0.3-0.4,0.3-0.8,0-1.2s-0.8-0.7-1.6-0.9c-0.4-0.1-0.7-0.1-0.8-0.1c-0.1,0,0,0.2,0.2,0.4
	c0.3,0.4,0.5,0.8,0.6,1.2c0.1,0.4,0.1,0.7,0,1c-0.2,0.4-0.5,0.7-0.8,0.8c-0.3,0.1-0.5,0.1-0.7-0.1c-0.2-0.2-0.2-0.7-0.1-1.7
	c0.1-1,0.2-1.5,0.4-1.7c0.1-0.1,0.2-0.2,0.1-0.3c-0.1-0.1-0.3-0.2-0.8-0.2c-0.4-0.1-0.8-0.1-1.1-0.1c0,0-0.1,0-0.1,0
	c-0.2,0-0.4,0-0.4,0.1c0,0.1,0,0.3,0,0.7c0,0.1,0,0.1,0,0.2c0.2,1.9,0.2,2.9-0.1,3.2c-0.1,0.1-0.4,0.1-1,0.1c-0.5,0-1.1,0-1.6-0.1
	c-0.1,0-0.2,0-0.2,0.1c0,0.1,0.1,0.2,0.2,0.5c0.1,0.3,0.2,0.4,0.3,0.4c0.1,0,0.3,0,0.6-0.1c1.2-0.3,1.8-0.1,1.8,0.6
	c0,1.2-0.3,2.4-0.7,3.6c-0.5,1.2-1.1,2.1-1.8,2.9c-0.2,0.2-0.3,0.4-0.4,0.5c0,0.1,0,0.2,0,0.2c0.1,0.1,0.2,0.1,0.3,0
	c0.1,0,0.3-0.2,0.6-0.4c1.5-1,2.5-2.3,3.2-3.9c0.3-0.6,0.4-0.9,0.6-0.9c0.1,0,0.3,0.4,0.5,1.1C94.5,37.3,95.2,38.6,96.1,39.5z
	 M85.1,36.4c-0.9,0-1.4,0-1.6-0.1c-0.2-0.1-0.3-0.2-0.3-0.5c0-0.3,0.1-0.4,0.3-0.5c0.2-0.1,0.7-0.1,1.6-0.1c0.8,0,1.4,0,1.5,0.1
	c0.2,0,0.3,0.2,0.3,0.5c0,0.1-0.1,0.3-0.2,0.4c-0.1,0.1-0.2,0.1-0.3,0.1C86.3,36.4,85.8,36.4,85.1,36.4z M86.6,34.6
	c-0.1,0.1-0.7,0.1-1.6,0.1c-0.9,0-1.4,0-1.5-0.1c-0.2-0.1-0.3-0.3-0.3-0.5c0-0.2,0.1-0.4,0.3-0.5c0.2-0.1,0.7-0.1,1.7-0.1
	c0.9,0,1.5,0.1,1.6,0.2c0.1,0.1,0.2,0.3,0.2,0.5C86.9,34.4,86.8,34.5,86.6,34.6z M85,32.9c-0.9,0-1.5,0-1.7-0.1
	c-0.5-0.2-0.5-0.4,0.1-0.8c0,0,0.1,0,0.2-0.1c0.1,0,0.1-0.1,0.2-0.1c0.2-0.1,0.7-0.2,1.5-0.1c0.8,0,1.3,0.1,1.4,0.2
	c0.1,0.1,0.1,0.1,0.1,0.1c0.2,0,0.2,0.1,0.2,0.3c-0.1,0.2-0.2,0.4-0.4,0.4C86.5,32.8,85.9,32.9,85,32.9z M85.1,31
	c-0.7,0-1.1,0-1.2-0.1c-0.2-0.1-0.3-0.2-0.3-0.4c0-0.2,0-0.4,0.2-0.5c0.1-0.1,0.6-0.2,1.3-0.2c0.8,0,1.2,0.1,1.3,0.2
	c0.1,0.1,0.2,0.3,0.2,0.5s-0.1,0.3-0.3,0.4C86.2,31,85.8,31,85.1,31z M85.1,29.2c-0.7,0-1.1,0-1.2-0.1c-0.2-0.1-0.3-0.3-0.3-0.5
	c0-0.2,0.1-0.4,0.3-0.5c0.1,0,0.5-0.1,1.2-0.1c0.7,0,1.1,0,1.2,0.1c0.2,0.1,0.3,0.2,0.3,0.5s-0.1,0.4-0.3,0.5
	C86.2,29.2,85.8,29.2,85.1,29.2z M111.6,46.3c0.2,0.2,0.8-0.3,2-1.4c1.2-1.2,2-2.5,2.4-4.1c0.5-1.5,0.7-3.7,0.7-6.5c0-1,0-1.6,0-1.9
	c0-0.3,0.1-0.4,0.2-0.5c0.2-0.1,0.6,0.4,1.1,1.6c0.5,1.2,0.8,2.1,0.8,2.7c0,0.4,0.2,0.6,0.6,0.6c0.4,0,0.8-0.1,1.1-0.4
	c0,0,0,0,0.1-0.1c0.2-0.2,0.3-0.3,0.4-0.2c0.1,0.1,0.1,0.4,0.1,1c0,0.4,0,1.4,0,3c0,0.2,0,0.4,0,0.6c0,0.2,0,0.5,0,1
	c0,1.6,0,2.6,0.1,3c0.1,0.6,0.3,1,0.5,1.1c0.2,0.1,0.7,0.2,1.4,0.1c0.2,0,0.3,0,0.5,0c0.9,0,1.5,0,1.9-0.1c0.4-0.1,0.7-0.3,0.9-0.5
	c0.1-0.2,0.2-0.4,0.1-0.7c0-0.3-0.1-0.4-0.3-0.6c-0.2-0.1-0.3-0.3-0.3-0.5c-0.1-0.2-0.1-0.7-0.1-1.5c0-0.2,0-0.4,0-0.6
	c0-0.6-0.1-0.9-0.1-0.8c-0.1,0-0.1,0.1-0.1,0.2c0,0.1-0.1,0.4-0.2,1c-0.2,1-0.4,1.7-0.7,2c-0.3,0.3-0.6,0.3-1.1,0c0,0,0,0-0.1,0
	c-0.1,0-0.2-0.1-0.2-0.3c0-0.2-0.1-0.8-0.1-1.8c0-0.7,0-2.2,0-4.7c0-0.6,0-1.1,0-1.4c0-0.4,0-1,0-1.7c0-2.5,0-4.1,0-4.8
	c0-0.9,0.1-1.5,0.1-1.8c0-0.2,0.2-0.3,0.3-0.4c0.1,0,0.1,0,0.1,0c0.2-0.1,0.3-0.2,0.3-0.3c0-0.1-0.2-0.3-0.5-0.6
	c-0.6-0.6-1.1-1-1.3-1.1c-0.3-0.1-0.5,0-0.7,0.2c0,0-0.1,0.1-0.1,0.2c-0.3,0.4-0.6,0.6-0.8,0.7c-0.2,0.1-0.7,0.1-1.5,0.1
	c-0.2,0-0.3,0-0.4,0c-0.9,0-1.5,0-1.8-0.1c-0.2,0-0.7-0.2-1.3-0.5c-0.1,0-0.2-0.1-0.3-0.1c-0.5-0.2-0.8-0.3-0.9-0.3
	c-0.1,0-0.1,0.2-0.1,0.5c0,0.1,0,0.1,0,0.2c0.1,1.2,0.2,3.6,0.1,7.1c0,2.9,0,4.6-0.1,5c-0.2,1.9-0.5,3.5-0.9,4.7s-1.1,2.4-2.1,3.6
	c-0.1,0.1-0.1,0.1-0.1,0.1C111.6,46.2,111.6,46.2,111.6,46.3z M108.4,46.3c0.2,0.1,0.5,0.1,0.9,0c0.4-0.1,0.7-0.3,0.9-0.5
	c0.1-0.1,0.1-0.2,0.1-0.3c0-0.1,0-0.6,0-1.4c-0.1-2.7-0.1-4.1,0-4.3c0.1-0.3,0.3-0.3,0.5-0.1c0.2,0.2,0.3,0.6,0.4,1.1
	c0,0.3,0.1,0.4,0.1,0.5c0,0,0.2,0,0.4,0c0.6-0.1,0.9-0.2,1.1-0.4c0.2-0.3,0.3-0.8,0.4-1.8c0-0.7,0-2.2,0-4.6c0-0.3,0-0.7,0-1.2
	c0-1.4,0-2.3,0-2.7c0-0.5,0-0.9,0.1-1c0-0.1,0.1-0.2,0.3-0.3c0,0,0.1-0.1,0.1-0.1c0.3-0.2,0.4-0.4,0.2-0.6c-0.1-0.3-0.5-0.6-1.2-1.1
	c-0.3-0.2-0.5-0.3-0.6-0.3s-0.2,0.2-0.4,0.4c-0.2,0.4-0.4,0.6-0.6,0.7c-0.2,0.1-0.3,0.1-0.5,0c-0.2-0.1-0.4-0.6-0.3-1.4
	c0-0.8,0.2-1.3,0.4-1.5c0.2-0.2,0.2-0.3,0-0.5c-0.3-0.1-0.8-0.3-1.8-0.6c0,0-0.1,0-0.1,0c-0.4-0.1-0.6-0.1-0.6-0.1
	c0,0-0.1,0.1,0,0.4v0c0.2,1.3,0.2,2.2,0.2,2.7c0,0.6-0.2,0.9-0.6,0.9c-0.3,0-0.8-0.1-1.6-0.4c-0.5-0.2-0.8-0.3-0.9-0.4
	c-0.1,0-0.1,0-0.1,0.2c0.2,1.1,0.3,3,0.3,5.9c0,2.2-0.1,4.6-0.2,7.2c0,0.4,0,0.7,0.2,0.8c0.2,0.1,0.5,0.1,1-0.1
	c0.4-0.2,0.7-0.3,0.8-0.5c0.1-0.2,0.1-0.6,0.1-1.2c-0.1-1.3-0.1-3.3-0.1-6c0-2.6,0-4,0-4.3c0.1-0.3,0.3-0.5,0.6-0.5
	c0.3,0,0.5,0.2,0.6,0.5c0.1,0.3,0.1,2.5,0,6.7c0,4.1-0.1,6.8-0.2,8.1c-0.1,0.9-0.1,1.4-0.1,1.6C108.2,46.1,108.3,46.2,108.4,46.3z
	 M111.2,38.9c-0.2,0.1-0.3,0.1-0.5,0.1c-0.2,0-0.3-0.2-0.4-0.3c0-0.1-0.1-1.7-0.1-4.7c0-3,0-4.5,0.1-4.7c0.1-0.2,0.2-0.3,0.5-0.3
	c0.3,0,0.5,0.1,0.6,0.3c0,0.1,0.1,0.3,0.1,0.7c0,0.4,0,1.7,0,4c0,0.2,0,0.5,0,0.9c0,1.9,0,3,0,3.4C111.4,38.6,111.4,38.8,111.2,38.9
	L111.2,38.9z M121,34.3c-0.1,0.2-0.1,0.2-0.2,0.2c-0.1-0.1-0.3-0.4-0.6-1c-0.3-0.4-0.8-0.9-1.5-1.5c-0.7-0.6-1.3-0.9-1.6-1
	c-0.1,0-0.2-0.1-0.3-0.3c0-0.2,0-0.8,0-1.9c0-0.2,0-0.4,0-0.6c0-0.6,0-1,0-1.2c0-0.2,0.2-0.4,0.4-0.4c0.2,0,0.5,0,1.2,0
	c0.2,0,0.4,0,0.6,0c1,0,1.6,0,1.8,0c0.2,0,0.3,0.2,0.4,0.4c0.1,0.2,0.1,1.4,0.1,3.7C121.1,33,121.1,34.2,121,34.3z M140,46.1
	c0,0.3,0.8,0.2,2.3-0.5c1.5-0.6,2.8-1.3,3.7-2c0.5-0.4,0.8-0.6,1.1-0.6c0.3,0,0.4-0.1,0.3-0.2c0-0.1-0.3-0.3-0.7-0.5
	c-0.7-0.4-1-0.7-1.1-0.8c-0.1-0.2,0.2-0.3,0.9-0.3c0.5,0,1.7,0,3.5,0c2.1,0,3.3,0,3.7,0c0.4,0,0.6-0.1,0.7-0.2
	c0.1-0.2-0.2-0.7-1-1.5c-0.3-0.2-0.5-0.3-0.6-0.3c-0.1,0-0.2,0.2-0.4,0.5c-0.3,0.4-0.5,0.6-0.6,0.7c-0.2,0.1-0.3,0-0.4-0.1
	c0-0.1-0.1-0.3-0.1-0.6c0-0.3,0-1.4,0-3.2c0-0.3,0-0.6,0-1.1c0-1.1,0-1.9,0-2.2c0-0.4,0.1-0.7,0.3-0.8c0.1-0.1,0.3-0.1,0.7-0.1
	c0.2,0,0.3,0,0.4,0c0.6,0,1,0,1.1,0c0.1,0,0.2-0.2,0.2-0.3c0-0.1-0.2-0.4-0.5-0.7c-0.3-0.4-0.6-0.6-0.8-0.7c-0.1,0-0.2-0.1-0.3,0
	s-0.2,0.1-0.3,0.3c-0.2,0.3-0.4,0.4-0.5,0.5c-0.1,0-0.2-0.1-0.2-0.4c0-0.3,0.1-0.5,0.2-0.6c0.2-0.1,0.2-0.3-0.1-0.4
	c-0.2-0.1-0.7-0.3-1.5-0.5h0c-0.4-0.1-0.7-0.2-0.8-0.2c-0.1,0-0.1,0.1,0,0.4v0c0.1,1.2,0,1.8-0.2,2c-0.1,0.1-0.6,0.1-1.3,0.1
	c-0.8,0-1.2,0-1.3-0.1c-0.2-0.1-0.3-0.3-0.3-0.6c0-0.3,0.1-0.5,0.3-0.6c0.2-0.1,0.2-0.3,0-0.4c-0.2-0.1-0.7-0.3-1.5-0.6
	c-0.6-0.2-0.7-0.4-0.5-0.7l0,0c0.1-0.1,0.3-0.2,0.6-0.2c0.3,0,1.4,0,3.3,0c0.4,0,0.7,0,0.9,0c1.8,0,3,0,3.5,0c0.7,0,1.1,0,1.3-0.1
	c0.1,0,0.2-0.1,0.2-0.3c0-0.2-0.3-0.5-1-1.2c-0.7-0.6-1.1-0.9-1.2-0.9c-0.1,0-0.4,0.3-0.8,0.9c0,0-0.1,0.1-0.1,0.2
	c-0.2,0.3-0.5,0.5-0.7,0.6c-0.2,0-0.8,0.1-1.8,0.1c-0.2,0-0.4,0-0.5,0c-0.1,0-0.2,0-0.4,0c-0.8,0-1.3,0-1.6,0c-0.3,0-0.5,0-0.6-0.1
	c0,0-0.1-0.1-0.1-0.3c0-0.2,0.1-0.5,0.4-0.9c0.3-0.4,0.5-0.6,0.6-0.7c0.3-0.1,0.3-0.2,0-0.4c-0.3-0.2-1-0.5-2-0.9l0,0
	c-0.4-0.1-0.6-0.2-0.6-0.2c-0.1,0-0.1,0.1-0.1,0.4v0c-0.1,1.1-0.4,2.1-0.8,3.2c-0.2,0.6-0.4,0.9-0.6,0.9c-0.2,0-0.5-0.2-1.1-0.7
	c0,0-0.1-0.1-0.1-0.1c-0.3-0.3-0.5-0.4-0.6-0.4c-0.1,0-0.2,0.1-0.4,0.4c0,0-0.1,0.1-0.1,0.1c-0.3,0.4-0.5,0.7-0.7,0.8
	c-0.1,0.1-0.3,0.2-0.4,0.1c-0.3-0.1-0.4-0.6-0.4-1.6c0-1,0.1-1.7,0.4-1.8c0.2-0.1,0.2-0.3-0.1-0.4c-0.3-0.1-0.8-0.3-1.8-0.6
	c0,0-0.1,0-0.2,0c-0.4-0.1-0.6-0.1-0.6-0.1c0,0-0.1,0.2,0,0.6c0,0.1,0,0.1,0,0.2c0.1,1.3,0.2,2.3,0.1,2.9c0,0.5-0.1,0.9-0.3,1
	c-0.1,0-0.5,0-1.2,0c-0.7,0-1.2,0-1.5-0.1c-0.3,0-0.4,0-0.5,0c0,0,0,0.2,0.2,0.5c0.2,0.3,0.3,0.5,0.3,0.5c0,0,0.1,0,0.2-0.1
	c0.1,0,0.3-0.1,0.3-0.1c0.8-0.2,1.2-0.2,1.4,0c0.2,0.2,0.3,0.7,0.3,1.6c0,5.8-0.9,10.5-2.6,14.1c0,0,0,0.1-0.1,0.2
	c-0.1,0.3-0.2,0.5-0.3,0.6c0,0.1,0,0.1,0,0.2c0.1,0.1,0.2,0.1,0.3,0s0.4-0.4,0.7-0.9c1.9-2.5,3.1-5.9,3.6-10.2
	c0.1-0.7,0.2-1.1,0.3-1.3c0.1-0.2,0.4-0.2,0.8-0.2c0.4,0,0.6,0.1,0.7,0.2c0.1,0.2,0.2,0.6,0.2,1.2c0,0.5-0.1,1.5-0.2,3.2
	c-0.1,1.8-0.2,3-0.4,3.7c-0.2,0.8-0.4,1.3-0.8,1.6c-0.3,0.2-0.8,0.3-1.6,0.2c-0.4,0-0.7,0-0.8,0c-0.1,0-0.1,0.1-0.1,0.1
	c0,0.1,0,0.1,0,0.1c0,0,0.1,0.1,0.3,0.1c0.1,0,0.2,0.1,0.2,0.1c0.4,0.1,0.6,0.3,0.8,0.6c0.2,0.3,0.3,0.6,0.3,1c0,0.2,0,0.3,0.1,0.3
	c0.1,0,0.2,0,0.5,0c0.9-0.1,1.6-0.5,2-1c0.4-0.6,0.8-1.5,1-3c0.1-0.7,0.2-1,0.3-1.2s0.3,0,0.5,0.3c0.1,0.1,0.1,0.1,0.2,0.1
	c0.1,0,0.3,0,0.7-0.1h0.1c1.2-0.2,1.9-0.2,2.1,0c0.2,0.3-0.1,0.9-1,1.9c-0.9,1-1.9,1.9-3,2.6C140.2,45.9,140,46,140,46.1z
	 M152.6,46.2c0.6,0.2,1,0.1,1.2-0.3c0.2-0.4,0.1-0.8-0.1-1.4c-0.3-0.6-0.7-1.1-1.4-1.5c-0.6-0.4-1.4-0.8-2.4-1.1s-1.5-0.3-1.5-0.1
	c0,0,0.2,0.2,0.6,0.5c1.4,1.1,2.4,2.2,3.1,3.3c0.2,0.2,0.3,0.4,0.3,0.5C152.4,46.2,152.5,46.2,152.6,46.2z M143.6,40.3
	c-0.2,0.1-0.8,0.1-1.9,0c-0.4,0-0.6-0.1-0.6-0.3c0-0.1,0-0.6,0-1.3c0-0.5,0.1-1.2,0.1-2.1c0-0.1,0-0.2,0-0.3c0-1.1,0.1-1.8,0.1-1.9
	c0-0.2,0.2-0.4,0.4-0.5c0.3-0.2,0.4-0.3,0.3-0.6c-0.1-0.2-0.4-0.6-1.1-1c-0.4-0.3-0.6-0.5-0.7-0.5c-0.1,0-0.3,0.2-0.6,0.5
	c-0.3,0.3-0.5,0.5-0.6,0.6c-0.2,0.1-0.4,0.1-0.7,0.1c-0.5,0-0.7-0.1-0.8-0.2c-0.1-0.1-0.1-0.6,0-1.5c0-0.1,0-0.2,0-0.3
	c0-0.7,0.1-1.1,0.2-1.2c0.1-0.1,0.6-0.2,1.4-0.2c0.2,0,0.3,0,0.4,0c1,0,1.6,0.1,1.8,0.2c0.2,0.1,0.1,0.4-0.2,0.8
	c-0.2,0.3-0.3,0.5-0.2,0.6c0.1,0.1,0.3,0,0.6-0.2c0.3-0.2,0.7-0.6,1.4-1.2c0.3-0.3,0.5-0.4,0.7-0.3c0.1,0.1,0.2,0.4,0.2,0.9
	c0,0.5,0,0.9-0.2,1c-0.2,0.1-0.6,0.1-1.3,0c-0.3,0-0.4,0-0.5,0c0,0,0,0.2,0.2,0.5c0.1,0.3,0.2,0.4,0.3,0.5c0,0,0.1,0,0.3,0
	c0.1-0.1,0.3-0.1,0.5-0.1c0.2,0,0.4,0,0.5,0c0.1,0.1,0.2,0.3,0.2,0.6c0,0.3,0,1.5,0,3.4c0,1.9,0,3.1,0,3.4
	C143.8,40,143.8,40.2,143.6,40.3z M148.9,40.4c-0.1,0.1-0.6,0.1-1.3,0.1c-0.8,0-1.2-0.1-1.3-0.1c-0.2-0.1-0.3-0.4-0.4-0.8
	c0-0.5,0-0.9,0.1-1.1c0.1-0.3,0.6-0.4,1.5-0.4c0.9,0,1.4,0.1,1.6,0.4c0.1,0.2,0.2,0.6,0.1,1.1C149.2,40,149,40.3,148.9,40.4z
	 M147.6,37.4c-0.8,0-1.3,0-1.4-0.1c-0.2-0.1-0.3-0.5-0.3-1.1c0-0.6,0.1-0.9,0.4-1.1c0.1-0.1,0.6-0.1,1.3-0.1c0.8,0,1.2,0,1.3,0.1
	c0.2,0.1,0.4,0.5,0.4,1c0,0.5-0.1,0.9-0.3,1.1C148.8,37.3,148.4,37.4,147.6,37.4z M147.6,34.4c-0.8,0-1.3,0-1.4-0.1
	c-0.2-0.1-0.3-0.5-0.3-1c0-0.6,0.1-0.9,0.4-1c0.1-0.1,0.6-0.1,1.3-0.1c0.8,0,1.2,0,1.3,0.1c0.2,0.1,0.4,0.5,0.4,1
	c0,0.5-0.1,0.9-0.3,1C148.8,34.4,148.4,34.4,147.6,34.4z M165.7,46.2c0,0.1,0.2,0.1,0.5,0c0.3-0.1,0.9-0.3,1.8-0.6
	c2.8-1.1,5.2-2.5,7.1-4.4c0.4-0.4,0.7-0.6,0.8-0.7c0.2-0.1,0.4-0.1,0.6,0.1c0.1,0.1,0.4,0.5,0.9,1.1c0.8,1.1,1.5,2.2,2,3.2
	c0.3,0.5,0.4,0.8,0.5,0.9c0.1,0.1,0.3,0.2,0.6,0.3c0.6,0.1,0.9-0.1,1.2-0.6c0.2-0.5,0.2-1.1-0.1-1.8c-0.5-1.3-1.8-2.6-3.8-3.6
	c-0.5-0.3-0.8-0.5-0.9-0.6c0-0.2,0-0.5,0.3-0.9c0.7-1.3,1.3-2.8,1.6-4.3c0.3-1.5,0.6-3.6,0.7-6.3c0-0.6,0-1,0.1-1.2
	c0.1-0.2,0.2-0.3,0.3-0.4c0.3-0.2,0.3-0.3,0-0.4c-0.3-0.1-1-0.2-2.1-0.4c-0.4,0-0.7-0.1-0.8,0c-0.1,0-0.1,0.1-0.1,0.1
	c0.1,0.3,0.1,1.4,0.1,3.2c-0.1,4.1-0.9,7.5-2.5,10.1c-1.6,2.6-4.3,4.8-8,6.6c-0.5,0.2-0.7,0.4-0.8,0.4
	C165.7,46,165.6,46.1,165.7,46.2z M161.5,44.4c0.1,0.1,0.2,0,0.3-0.1c0.2-0.2,0.4-0.4,0.6-0.5c0.2-0.1,0.8-0.4,1.6-0.9
	c1.8-0.9,3.5-1.8,5.1-2.7c1.6-1,2.5-1.5,2.5-1.6c0-0.1-0.1-0.1-0.3-0.1c-0.2,0-1,0.3-2.3,0.7c-1.4,0.4-2.2,0.7-2.5,0.8
	c-0.3,0.1-0.5,0.1-0.6,0c-0.1-0.1-0.2-0.5-0.2-1.1c0-0.7-0.1-2.7-0.1-5.9c0-0.3,0-0.8,0-1.4c0-1.9,0-3.2,0-3.7c0-0.7,0-1.2,0-1.4
	c0-0.1,0.1-0.3,0.2-0.3l0,0c0.2-0.2,0.2-0.3,0.1-0.4c-0.2-0.1-0.6-0.2-1.2-0.2c-0.9-0.1-1.3-0.1-1.3,0c0,0.1,0,2.6,0.1,7.3
	c0,0.3,0,0.6,0,1.1c0,3.3,0.1,5.3,0.1,5.9c0,0.6,0,0.9-0.1,1c-0.1,0.2-1,0.6-2.5,0.9c-0.4,0.1-0.5,0.1-0.5,0.2c0,0,0.2,0.4,0.5,1.2
	C161.2,43.9,161.5,44.3,161.5,44.4z M172,34.1c0.5,0.2,1,0,1.2-0.4c0.3-0.4,0.3-1,0-1.7c-0.5-1.4-1.9-2.6-4.2-3.5
	c-0.5-0.2-0.8-0.3-0.8-0.2c0,0.1,0.1,0.3,0.5,0.7c1.3,1.6,2.1,3,2.6,4.3C171.5,33.8,171.7,34,172,34.1z M194.4,46.3
	c0,0.1,0.1,0.1,0.2,0.1c0.1,0,0.3-0.1,0.6-0.2c2.7-0.9,5-2.2,6.9-3.9c0.3-0.3,0.6-0.4,0.7-0.4c0.1,0,0.4,0.3,0.7,0.7
	c1.1,1.4,2.4,2.6,4,3.5c0.2,0.1,0.4,0.2,0.4,0.2c0.1,0,0.1-0.1,0.2-0.3c0.1-0.3,0.3-0.6,0.6-0.9c0.3-0.3,0.6-0.5,0.9-0.6
	c0.2-0.1,0.3-0.2,0.3-0.2c0-0.1-0.2-0.2-0.5-0.3c-1.2-0.4-2.3-1.1-3.6-2c-1.2-0.9-1.8-1.5-1.8-1.9c0-0.1,0.2-0.5,0.6-1.2
	c1.2-2,2-4.4,2.5-7.2c0.1-0.7,0.3-1.1,0.4-1.2c0.1-0.1,0.5-0.2,1.1-0.2c0.7,0,1-0.1,0.9-0.4c-0.1-0.3-0.5-0.8-1.3-1.4
	c-0.4-0.3-0.7-0.5-0.8-0.5c-0.1,0-0.3,0.2-0.6,0.6c0,0-0.1,0.1-0.1,0.2c-0.3,0.4-0.6,0.7-0.8,0.7c-0.2,0.1-0.8,0.1-1.7,0.1
	c-0.2,0-0.3,0-0.4,0c-0.1,0-0.2,0-0.3,0c-0.8,0-1.3,0-1.5,0c-0.3,0-0.5-0.1-0.5-0.3c0-0.1,0.1-0.4,0.2-0.8c0,0,0-0.1,0-0.1
	c0-0.1,0.1-0.2,0.1-0.4c0.2-0.6,0.3-1,0.4-1.2c0.3-0.8,0.5-1.2,0.7-1.4c0.2-0.1,0.2-0.3-0.1-0.5c-0.3-0.2-0.9-0.4-2-0.6
	c0,0-0.1,0-0.1,0c-0.4-0.1-0.6-0.1-0.7-0.1c-0.1,0-0.1,0.2-0.1,0.5c0,0,0,0.1,0,0.1c-0.1,1.3-0.4,2.8-0.8,4.5
	c-0.4,1.7-1,3.2-1.6,4.4c0,0,0,0.1-0.1,0.2c-0.2,0.4-0.3,0.6-0.3,0.7c0,0.1-0.2,0.4-0.4,0.8c-0.2,0.3-0.2,0.4-0.3,0.5
	c0,0.1,0,0.1,0.1,0.2c0.1,0.1,0.4-0.2,0.9-0.6c0.5-0.5,1-1.1,1.5-1.8c0.3-0.4,0.6-0.7,0.7-0.6c0.1,0,0.3,0.3,0.4,0.8
	c0.4,2,0.9,3.7,1.5,5.3c0.1,0.4,0.2,0.7,0.1,0.9c0,0.2-0.2,0.5-0.6,0.9c-0.7,0.9-1.6,1.8-2.8,2.7c-1.1,0.9-2.3,1.6-3.5,2.2
	c-0.3,0.2-0.5,0.3-0.6,0.3C194.4,46.2,194.4,46.2,194.4,46.3z M190.7,43.3c0.7,0.1,1.7,0.1,3.2,0c1.5-0.1,2.4-0.2,2.8-0.3
	c0.6-0.2,1.1-0.4,1.2-0.8c0.2-0.4,0.1-0.8-0.3-1.1c-0.2-0.2-0.3-0.4-0.4-0.7c0-0.3-0.1-1.1-0.1-2.5v0c0-0.1,0-0.1-0.1-0.2
	c0,0-0.1,0-0.1,0c0,0-0.1,0.4-0.3,1c0,0.1,0,0.2-0.1,0.3c-0.2,0.8-0.4,1.3-0.5,1.5c-0.2,0.3-0.4,0.5-0.7,0.6c-0.2,0-0.8,0.1-1.6,0.1
	c-0.1,0-0.3,0-0.3,0c-0.2,0-0.4,0-0.7,0c-0.6,0-1,0-1.2-0.1c-0.2-0.1-0.4-0.3-0.4-0.7c0-0.3-0.1-0.9,0-1.9c0-0.5,0-0.9,0-1.2
	c0-0.3,0-0.7,0-1.2c0-1,0-1.6,0-1.8c0-0.4,0.2-0.6,0.3-0.7c0.1-0.1,0.4-0.1,0.9-0.1c0.2,0,0.4,0,0.6,0c0.8,0,1.2,0,1.4,0.1
	c0.2,0,0.3,0.2,0.3,0.4V34c0,0.1,0,0.2,0,0.3c0,0.6,0.5,0.6,1.6,0.1c0,0,0.1,0,0.1-0.1c0.3-0.1,0.4-0.2,0.4-0.4c0-0.1,0.1-0.6,0-1.2
	c0-0.2,0-0.3,0-0.4c0-1.6-0.1-2.6-0.1-3.1c0-0.6,0.1-1.1,0.2-1.3c0.1-0.2,0.2-0.4,0.5-0.5c0.2-0.1,0.2-0.3,0-0.5
	c-0.2-0.2-0.5-0.6-1.1-1.1c-0.4-0.3-0.6-0.5-0.7-0.5c-0.1,0-0.3,0.2-0.5,0.5c0,0-0.1,0.1-0.1,0.2c-0.3,0.3-0.5,0.5-0.7,0.6
	c-0.2,0-0.8,0.1-1.8,0c-0.2,0-0.4,0-0.6,0c-1.2,0-2.2,0-2.8-0.1c-0.4,0-0.6,0-0.6,0c0,0,0,0.2,0.2,0.6l0,0c0.1,0.3,0.2,0.4,0.3,0.4
	c0.1,0,0.3,0,0.5,0c0.8-0.1,1.8-0.2,2.9-0.2c1.1,0,1.8,0,1.9,0.1c0.2,0.1,0.3,0.2,0.3,0.5c0,0.2,0,1,0,2.2c0,0.2,0,0.4,0,0.7
	c0,0.8,0,1.3,0,1.5c0,0.3-0.2,0.5-0.4,0.5c-0.1,0.1-0.5,0.1-1,0.1c-0.2,0-0.3,0-0.5,0c-0.1,0-0.2,0-0.3,0c-0.6,0-1.1,0-1.3-0.1
	c-0.2,0-0.6-0.2-1.3-0.5c-0.1,0-0.1-0.1-0.1-0.1c0,0-0.1,0-0.2-0.1c-0.5-0.2-0.8-0.3-0.8-0.3c-0.1,0-0.1,0.2,0,0.5
	c0,0.1,0,0.1,0,0.1c0.1,1.2,0.2,3.2,0.2,5.9c0,0.1,0,0.2,0,0.4c0,1.6,0,2.7,0.1,3.1c0,0.6,0.2,1,0.4,1.2
	C189.7,43.2,190.1,43.3,190.7,43.3C190.7,43.3,190.7,43.3,190.7,43.3z M203.1,38c-0.2,0.2-0.4,0.1-0.6-0.2c-0.2-0.3-0.5-0.9-0.9-1.8
	c-0.6-1.5-1-2.7-1.1-3.6c-0.1-0.9,0.1-1.5,0.6-2c0.2-0.2,0.9-0.3,2.1-0.3c1.1,0,1.7,0.1,1.8,0.3c0.2,0.4,0,1.6-0.6,3.7
	C204,36.4,203.5,37.6,203.1,38z M216.3,46.4c0,0,0.5,0,1.2-0.1c3.3-0.4,6-1,8.2-1.9c0.4-0.1,0.6-0.2,0.8-0.2c0.2,0,0.4,0,0.7,0.1
	c2.4,1.1,5.1,1.8,8.2,2c0.3,0,0.5,0,0.6,0c0.1,0,0.1-0.1,0.2-0.2c0-0.2,0.2-0.5,0.4-0.8c0.2-0.3,0.4-0.5,0.6-0.6
	c0.3-0.1,0.4-0.2,0.3-0.3c0-0.1-0.3-0.1-0.7-0.1c-2.1-0.1-4-0.3-5.5-0.5c-1.5-0.2-2.3-0.5-2.4-0.7c0-0.1,0-0.2,0.1-0.3
	c0.1-0.1,0.3-0.3,0.6-0.5c0.5-0.4,1-0.8,1.6-1.4c0.1-0.1,0.2-0.2,0.3-0.3c0.4-0.4,0.6-0.6,0.8-0.6c0.2-0.1,0.7-0.1,1.4-0.1
	c0.2,0,0.4,0,0.6,0c1,0,1.6,0,1.8,0c0.2,0,0.3-0.1,0.4-0.2c0.1-0.2-0.3-0.8-1.4-1.6c-0.4-0.3-0.6-0.5-0.6-0.6
	c-0.1-0.1-0.1-0.5-0.1-1c-0.1-1.3-0.1-2.2,0-2.8c0-0.2,0-0.4,0-0.6c-0.1-0.7,0-1.2,0.3-1.3c0.3-0.1,0.5-0.1,0.7,0
	c0.2,0.1,0.3,0.4,0.4,0.7c0,0.3,0.2,0.4,0.5,0.5c0.3,0.1,0.6,0,0.8-0.2c0.4-0.4,0.4-0.9,0-1.5c-0.3-0.6-0.9-1-1.7-1.4
	c-0.7-0.3-0.9-0.2-0.6,0.2c0.3,0.4,0.2,0.7-0.1,0.9c-0.3,0.2-0.7,0.2-1.2,0c-0.2-0.1-0.2-0.3,0-0.5c0.2-0.3,0.5-0.5,0.9-0.7
	c0.2-0.1,0.4-0.2,0.5-0.5c0.1-0.3,0.3-0.6,0.7-0.9c0.4-0.4,0.6-0.6,0.8-0.6c0.3,0,0.4-0.2,0.2-0.3c-0.2-0.2-0.6-0.4-1.2-0.7
	c0,0,0,0-0.1,0c-0.4-0.2-0.7-0.3-0.7-0.3c-0.1,0-0.2,0.1-0.2,0.3c-0.2,0.6-0.4,1-0.6,1.5c-0.2,0.4-0.4,0.6-0.5,0.6
	c-0.1,0-0.1,0-0.2,0c-0.1-0.1-0.1-0.1-0.1-0.2c0,0-0.1-0.2-0.2-0.4c-0.2-0.3-0.2-0.5-0.1-0.7c0.1-0.2,0.4-0.5,0.9-0.9
	c0.7-0.7,1.2-1,1.3-1.1c0.2-0.1,0.3-0.2,0.1-0.4c-0.2-0.1-0.6-0.4-1.2-0.7c-0.4-0.2-0.7-0.3-0.8-0.3c-0.1,0-0.1,0-0.2,0.2
	c-0.3,1.1-0.6,1.9-0.8,2.2c-0.2,0.4-0.6,0.5-1,0.3c-0.4-0.1-0.7-0.1-0.7-0.1c-0.2,0.2-0.4,0.1-0.7-0.2c-0.2-0.2-0.1-0.4,0.2-0.6
	c0.1-0.1,0.1-0.3,0-0.5c-0.2-0.3-0.5-0.5-0.9-0.8c-0.3-0.2-0.5-0.3-0.6-0.2c-0.1,0-0.3,0.2-0.6,0.6c-0.4,0.5-1.4,0.6-3.1,0.4
	c0,0,0,0-0.1,0c-0.2,0-0.3,0-0.4,0l0.2,0.5c0.1,0.3,0.2,0.5,0.3,0.6c0,0,0.2,0,0.6-0.1c2.7-0.4,3.7-0.2,3,0.6
	c-0.3,0.3-1.1,0.5-2.6,0.4c-1.5,0-2.5-0.2-3.3-0.6c0,0-0.1,0-0.2-0.1c-0.4-0.2-0.7-0.3-0.8-0.3c-0.1,0-0.2,0.1-0.2,0.2l0,0.1
	c-0.4,1.3-0.7,2-1,2c-0.1,0-0.1,0-0.2,0c-0.1-0.1-0.1-0.1-0.1-0.2c0,0,0-0.1-0.1-0.2c-0.2-0.3-0.2-0.5-0.2-0.6
	c0.1-0.2,0.3-0.4,0.7-0.8c0.1-0.1,0.2-0.2,0.3-0.3c0.3-0.3,0.5-0.5,0.6-0.6c0.2-0.2,0.4-0.4,0.6-0.5c0.2-0.1,0.3-0.2,0-0.4
	c-0.2-0.2-0.7-0.4-1.4-0.7c-0.3-0.1-0.4-0.2-0.5-0.2c-0.1,0-0.1,0-0.1,0.1c-0.1,0.4-0.3,1-0.5,1.8c-0.2,0.6-0.4,0.9-0.6,1.1
	c-0.1,0.1-0.4,0.1-0.9,0c-0.4-0.1-0.6-0.1-0.7-0.1c-0.1,0.1,0,0.2,0.2,0.5c0.5,0.6,0.8,1.2,1.1,1.8c0.1,0.3,0.3,0.4,0.7,0.4
	c0.5,0,0.6,0.3,0.2,0.9c-0.2,0.3-0.3,0.4-0.5,0.5s-0.5,0.1-1.1,0.1c-0.5,0-0.8,0.1-0.8,0.1c0,0,0.1,0.3,0.3,0.8s0.4,0.9,0.4,1
	c0.1,0.2,0.1,0.7,0,1.6c-0.1,0.9-0.3,1.7-0.6,2.4c-0.2,0.6-0.2,0.9-0.1,0.9c0.1,0,0.4-0.2,0.7-0.6c0.4-0.4,0.8-1,1.2-1.8
	c0.4-0.8,0.7-1.1,0.8-0.8c0.1,0.3,0.1,1.2,0,2.7c0,0.7,0.4,0.8,1.2,0.5c0.3-0.1,0.5-0.2,0.6-0.4c0-0.1,0.1-0.6,0-1.2
	c-0.1-1.5,0-2.4,0-2.7c0-0.2,0-0.4,0-0.6c-0.1-0.4-0.1-0.7,0-0.9c0.1-0.3,0.2-0.4,0.5-0.4c0.1,0,0.2,0,0.3,0.1
	c0.1,0.1,0.2,0.3,0.2,0.5c0.1,0.3,0.2,0.5,0.4,0.6c0.2,0.1,0.5,0,0.8-0.2c0.4-0.2,0.4-0.6,0.2-1.1c-0.2-0.5-0.5-1-1.1-1.3
	c-0.5-0.3-0.9-0.5-1.1-0.5s-0.2,0.1-0.1,0.5c0.2,0.3,0.2,0.5,0.2,0.7c-0.1,0.1-0.3,0.2-0.7,0.2c-0.5,0-0.7-0.1-0.7-0.4
	c0-0.3,0.3-0.6,0.8-0.8c0.2-0.1,0.4-0.3,0.5-0.5c0.3-0.5,0.6-0.9,1.1-1.2c0.4-0.3,0.8-0.4,1-0.2c0,0,0.8,0.1,2.2,0.1
	c1,0,1.6,0,1.8,0c0.4,0,0.5,0.1,0.6,0.2c0,0.1,0,0.2-0.2,0.5c-0.2,0.3-0.5,0.5-0.9,0.6c-0.3,0-1.1,0-2.4-0.1c-0.3,0-0.4,0-0.4,0
	c0,0,0.1,0.2,0.2,0.6c0,0,0,0.1,0.1,0.1c0.1,0.2,0.2,0.3,0.2,0.3c0,0,0.2,0,0.3-0.1c0,0,0.1,0,0.1,0c0.2-0.1,0.7-0.1,1.5-0.1
	c0.8,0,1.2,0,1.4,0.1c0.1,0.1,0.1,0.2-0.1,0.5c-0.3,0.3-0.6,0.5-0.9,0.6c-0.4,0.1-1,0-2,0c0,0-0.1,0-0.1,0l-0.6,0c0,0,0,0.2,0.2,0.5
	c0.2,0.3,0.3,0.5,0.3,0.6c0,0,0.3,0,0.7-0.1c1.1-0.1,1.9-0.2,2.6-0.2c0.9,0,1.5,0,1.7-0.1c0.2-0.1,0.4,0.1,0.7,0.6
	c0.3,0.5,0.4,1,0.3,1.4c0,0.1,0,0.2,0,0.3c0,0.3,0,0.4,0,0.5c0,0.7-0.2,1.6-0.6,2.6c-0.1,0.2-0.1,0.3-0.1,0.3c0,0,0.1,0.1,0.1,0.1
	c0.1,0.1,0.4-0.1,0.7-0.5c0.3-0.4,0.7-0.9,1.1-1.5c0.5-0.8,0.8-1.1,0.9-0.8c0.1,0.3,0.1,1.2,0,2.7c0,0.3,0,0.5,0.1,0.6
	c0.1,0.1,0.2,0.1,0.5,0.1c0.3,0,0.5,0.1,0.5,0.3c0,0.2-0.1,0.4-0.5,0.6c-0.1,0.1-1.5,0.1-4.1,0.1c-2.7,0-4,0-4.1-0.1
	c-0.2-0.1-0.2-0.3,0-0.6c0.2-0.3,0.4-0.4,0.6-0.5c0.2,0,0.3-0.1,0.3-0.1c0-0.1-0.1-0.2-0.2-0.2c-0.1-0.1-0.2-0.2-0.2-0.3
	s0.1-0.2,0.2-0.4c0.1-0.1,0.2-0.2,0.2-0.2c0-0.2,0.3-0.4,0.9-0.4c0.6,0,1,0,1.1,0.3c0.1,0.1,0.1,0.2,0.1,0.2c0,0,0.1,0,0.2,0
	c0.5,0,0.9-0.1,1.1-0.3s0.3-0.5,0.2-0.9c0-0.7,0-1.2,0-1.4c0-0.2,0.2-0.4,0.4-0.6c0.2-0.1,0.2-0.2,0.2-0.3c0-0.1-0.1-0.2-0.3-0.4
	c-0.4-0.4-0.8-0.6-1-0.7c-0.2-0.1-0.5,0-0.7,0.3c-0.3,0.3-0.7,0.5-1.2,0.5c-0.5,0-1-0.1-1.5-0.3c-0.8-0.4-1.2-0.5-1.3-0.5
	c-0.1,0-0.1,0.3,0,0.7c0,0.1,0.1,0.6,0.1,1.6c0,0.9,0.1,1.6,0,1.9c0,0.2-0.1,0.4-0.2,0.5c-0.1,0.1-0.3,0-0.4-0.1
	c-0.1-0.1-0.1-0.3,0-0.7c0.2-0.4,0.2-0.9,0-1.4c-0.3-0.5-0.7-1-1.4-1.5c-0.3-0.2-0.5-0.3-0.6-0.2c0,0.1,0,0.4,0.2,0.8
	c0.2,0.5,0.4,1.1,0.4,1.6c0.1,0.4,0.1,0.6,0.1,0.7c0,0.1,0.1,0.2,0.2,0.2c0.3,0.2,0.3,0.7-0.1,1.5c-0.4,0.8-1,1.6-1.8,2.5
	c-0.9,0.9-1.8,1.7-2.7,2.4c-0.3,0.2-0.5,0.4-0.6,0.4c-0.1,0.1-0.1,0.2,0,0.2c0.1,0.1,0.6-0.1,1.6-0.5c0.9-0.4,1.8-0.9,2.5-1.4
	c0,0,0.1-0.1,0.2-0.1c0.6-0.4,0.9-0.6,1.1-0.6s0.4,0.2,0.7,0.5c0,0,0.1,0.1,0.1,0.1c0.5,0.5,0.9,0.9,1.1,1c0.4,0.4,0.6,0.7,0.5,0.8
	c-0.1,0.2-0.5,0.4-1.2,0.7c-1.8,0.8-4,1.4-6.4,1.9c-0.5,0.1-0.8,0.2-0.9,0.2C216.2,46.2,216.2,46.3,216.3,46.4z M226.9,42.2
	c-0.2,0.1-0.5,0.1-0.9,0c-0.3-0.1-0.8-0.4-1.5-0.8c-0.6-0.4-1-0.7-1.2-1c-0.2-0.2-0.1-0.4,0.1-0.6c0.1-0.1,1-0.1,2.7-0.1
	c1.7,0,2.6,0,2.7,0.1c0.2,0.1,0,0.5-0.4,1S227.5,41.9,226.9,42.2z M236.4,36.9c0,0,0.1,0,0.1,0c0.4,0,0.6-0.2,0.6-0.7
	c0-0.4-0.1-0.9-0.4-1.4c-0.3-0.6-0.7-1-1.2-1.3c-0.5-0.4-0.9-0.5-0.9-0.4c-0.1,0,0,0.3,0.3,0.9c0.4,0.8,0.6,1.5,0.7,2
	c0.1,0.3,0.1,0.5,0.1,0.6c0,0.1,0.1,0.1,0.2,0.2c0.1,0,0.2,0.1,0.3,0.1C236.2,36.9,236.3,36.9,236.4,36.9z M227.3,35.7
	c-0.2,0.1-0.5,0.1-0.9,0.1c-0.4-0.1-0.6-0.2-0.7-0.3c-0.2-0.4-0.2-0.8,0-1.2c0.2-0.4,0.5-0.6,1-0.6c0.3,0,0.6,0.1,0.8,0.4
	c0.2,0.3,0.3,0.6,0.3,0.9C227.8,35.3,227.6,35.6,227.3,35.7z M232.4,33.3c-0.1,0.1-0.4,0.1-0.9,0c-0.4-0.1-0.7-0.3-0.7-0.4
	c0-0.2,0.1-0.3,0.5-0.5c0.4-0.2,0.7-0.2,0.9-0.1c0.1,0.1,0.2,0.2,0.3,0.4C232.5,33,232.5,33.2,232.4,33.3z M219.2,33.2
	c-0.1,0.1-0.4,0.2-0.8,0.1c-0.4-0.1-0.6-0.3-0.6-0.4c0-0.2,0.2-0.4,0.6-0.5c0.4-0.1,0.7-0.1,0.8,0.1c0.1,0.1,0.1,0.2,0.1,0.4
	C219.3,33,219.3,33.1,219.2,33.2z M229.8,31.1c-0.1,0-0.2,0-0.3-0.1c-0.1-0.1-0.3-0.3-0.6-0.6c-0.3-0.3-0.4-0.4-0.4-0.5
	c0-0.1,0.2-0.2,0.6-0.2c0.4-0.1,0.6-0.2,0.6-0.3c0-0.1-0.2-0.4-0.6-0.7c-0.4-0.4-0.5-0.6-0.5-0.7s0.3-0.2,0.8-0.2
	c0.4,0,0.6-0.1,0.6-0.1c0.2-0.1,0.4,0,0.6,0.2c0.3,0.3,0.4,0.6,0.6,1.1c0.1,0.3,0.3,0.4,0.7,0.4s0.5,0.2,0.2,0.7
	c-0.2,0.3-0.4,0.6-0.6,0.7c-0.2,0.1-0.5,0.2-1,0.2c-0.1,0-0.2,0-0.4,0C230,31.1,229.9,31.1,229.8,31.1z M248.2,46.3
	c0.3,0.2,0.7,0.1,1.3-0.1c0.6-0.2,0.8-0.5,0.8-0.8c0,0,0-0.1,0-0.2c0-0.2,0-0.4,0.1-0.5c0.1-0.1,0.4-0.2,1-0.2c0.4,0,1.2,0,2.6,0
	c0.3,0,0.5,0,0.7,0c0.2,0,0.5,0,0.9,0c1.3,0,2.1,0,2.5,0c0.5,0,0.8,0.1,0.9,0.2c0.1,0.1,0.1,0.3,0.1,0.5c0,0.1,0,0.1,0,0.2
	c0,0.4,0,0.6,0.2,0.7c0.2,0.1,0.5,0.1,1-0.1c0.6-0.2,0.9-0.4,1-0.6c0.1-0.2,0.2-0.7,0.1-1.5c-0.2-4.8-0.1-7.2,0.4-7.2
	c0,0,0.1,0,0.3-0.1c0.1-0.1,0.2-0.2,0.2-0.2c0-0.1-0.2-0.3-0.7-0.7c-0.5-0.4-0.9-0.7-1.2-0.9c-0.1-0.1-0.3-0.1-0.4,0
	s-0.3,0.2-0.6,0.5c0,0-0.1,0.1-0.1,0.2c-0.2,0.2-0.5,0.4-0.7,0.4c-0.3,0-1.2,0-2.8,0c-0.5,0-0.9,0-1.2,0c-0.3,0-0.7,0-1.2,0
	c-1.5,0-2.4,0-2.7,0c-0.3,0-0.7-0.2-1.2-0.4c-0.2-0.1-0.3-0.1-0.5-0.2c0,0-0.1,0-0.2-0.1c-0.5-0.2-0.7-0.3-0.8-0.3s-0.1,0.2,0,0.5
	c0,0.1,0,0.1,0,0.1c0.1,1.1,0.2,2.6,0.2,4.5c0,1.9,0,3.6-0.1,5.1c0,0.4,0,0.7,0,0.8C248.1,46.2,248.1,46.3,248.2,46.3z M258.8,43.9
	c-0.1,0.1-1.5,0.1-4,0.1c-2.6,0-3.9,0-4-0.1c-0.2-0.1-0.3-0.2-0.3-0.4c0-0.2,0-0.6,0-1.2c0-0.1,0-0.3,0-0.5c0-0.4,0-0.7,0.1-0.9
	c0.1-0.2,0.4-0.3,0.8-0.3c0.3,0,1.1,0,2.3,0c0.5,0,0.9,0,1.2,0s0.7,0,1.2,0c1.2,0,1.9,0,2.3,0c0.4,0,0.7,0.2,0.8,0.3
	c0.1,0.1,0.1,0.4,0.1,0.9c0,0.2,0,0.4,0,0.5c0,0.7,0,1.1,0,1.3C259,43.7,258.9,43.8,258.8,43.9z M254.7,39.9c-2.6,0-4,0-4.1-0.1
	c-0.1-0.1-0.2-0.2-0.2-0.4c0-0.2,0-0.6,0-1.2c0-0.1,0-0.2,0-0.4c0-0.4,0-0.7,0.1-0.8c0.1-0.1,0.4-0.2,0.8-0.3c0.3,0,1.1,0,2.3,0
	c0.5,0,0.9,0,1.2,0s0.7,0,1.2,0c1.2,0,1.9,0,2.3,0c0.4,0,0.7,0.1,0.8,0.3c0.1,0.1,0.1,0.4,0.1,0.8c0,0.2,0,0.3,0,0.4
	c0,0.6,0,1,0,1.2c0,0.2-0.1,0.3-0.2,0.4C258.7,39.9,257.4,39.9,254.7,39.9z M244.7,33.7c0.1,0,0.1,0.1,0.2,0c0,0,0.1,0,0.2,0
	c0.7-0.1,1.2-0.2,1.5-0.2c0.3,0,3.4-0.1,9.4-0.1c0.4,0,0.9,0,1.6,0c2.8,0,4.6,0,5.3,0c1,0,1.7,0,2-0.1c0.2,0,0.3-0.1,0.3-0.2
	c0,0,0-0.1,0-0.1c0-0.1-0.1-0.3-0.5-0.6c-0.3-0.3-0.7-0.7-1.2-1l0,0c-0.4-0.3-0.6-0.4-0.7-0.4c-0.1,0-0.3,0.2-0.6,0.7
	c0,0-0.1,0.1-0.1,0.1c0,0-0.1,0.1-0.1,0.2c-0.3,0.4-0.5,0.6-0.7,0.6c-0.2,0.1-0.6,0.1-1.4,0.1c-0.2,0-0.3,0-0.4,0
	c-0.9,0-1.4,0-1.6,0c-0.3,0-0.4-0.2-0.3-0.3c0-0.1,0.3-0.4,0.7-0.8c0.2-0.2,0.6-0.6,1.2-1.3c0,0,0.1-0.1,0.1-0.1
	c0.4-0.5,0.6-0.7,0.7-0.8c0.1-0.1,0.2-0.2,0.3-0.2c0.2-0.1,0.3-0.1,0.3-0.2c0-0.1-0.2-0.2-0.5-0.3c-0.6-0.3-0.8-0.5-0.6-0.6
	c0.2-0.1,1-0.1,2.4-0.1c1.1,0,1.8,0,2,0c0.2,0,0.3-0.1,0.4-0.2c0.1-0.2-0.3-0.7-1.3-1.4l0,0c-0.5-0.4-0.8-0.6-1-0.6
	c-0.1,0-0.4,0.3-0.7,0.7l0,0c0,0-0.1,0.1-0.1,0.2c-0.2,0.4-0.5,0.6-0.7,0.6c-0.2,0-0.8,0.1-1.8,0.1c-0.2,0-0.4,0-0.5,0
	c-1.1,0-1.7,0-1.9,0c-0.2,0-0.3-0.1-0.4-0.1c-0.2-0.2-0.2-0.5-0.2-0.9s0.2-0.7,0.4-0.9c0.2-0.2,0.2-0.3-0.1-0.4
	c-0.2-0.1-0.8-0.3-1.7-0.5c0,0-0.1,0-0.2,0c-0.4-0.1-0.7-0.2-0.7-0.1c-0.1,0-0.1,0.2-0.1,0.5c0,0.1,0,0.1,0,0.1c0,0.1,0,0.3,0,0.5
	c0,0.7,0,1.1,0,1.3c-0.1,0.3-0.3,0.4-0.6,0.5c-0.3,0-0.9,0-1.9,0c-0.3,0-0.5,0-0.7,0c-2.2,0-3.8,0-4.7-0.1c-0.2,0-0.3,0-0.4,0
	c0,0,0.1,0.2,0.2,0.5c0,0,0,0,0,0.1c0.1,0.2,0.2,0.4,0.3,0.4c0.1,0,0.3,0,0.5,0c0.1,0,0.1,0,0.2,0c2-0.3,2.9-0.3,2.9,0
	c0,0.1,0.1,0.3,0.2,0.6c0.4,0.8,0.7,1.6,0.9,2.4s0.3,1.4,0.1,1.5c-0.1,0.1-0.9,0.1-2.4,0.1c-1.5,0-2.7,0-3.6-0.1c-0.2,0-0.4,0-0.4,0
	c0,0,0.1,0.2,0.2,0.5S244.7,33.6,244.7,33.7z M256.1,32.7c-0.2,0.1-0.8,0.1-1.9,0.1c-1.1,0-1.6-0.1-1.7-0.1
	c-0.1-0.1-0.1-0.1-0.1-0.2c0-0.1,0-0.2,0.1-0.4c0.2-0.5,0.2-1.1-0.1-1.7c-0.3-0.6-0.7-1.1-1.4-1.6l0,0c-0.5-0.3-0.8-0.6-0.8-0.6
	c0-0.1,0.2-0.2,0.7-0.2c0.4,0,1.4,0,2.9,0c0.2,0,0.4,0,0.7,0c1.2,0,2,0,2.3,0c0.4,0,0.7,0.1,0.8,0.2c0,0.1,0,0.3,0,0.6
	c0,0.1,0,0.1,0,0.1c-0.3,1-0.5,1.8-0.8,2.6C256.5,32.2,256.3,32.6,256.1,32.7z M278.4,45.8c0.9,0.1,3.1,0.1,6.4,0
	c3.4,0,5.3-0.1,5.9-0.2c0.7-0.1,1.3-0.3,1.8-0.6c0.4-0.3,0.7-0.6,0.7-0.9c0-0.3-0.2-0.6-0.7-0.8c-0.4-0.2-0.6-0.4-0.6-0.6
	c-0.1-0.2-0.1-0.8-0.1-1.7s0-1.5-0.1-1.6c-0.1-0.1-0.2,0.1-0.4,0.7c0,0.1-0.1,0.3-0.1,0.5c-0.3,1.1-0.6,1.8-0.8,2.1
	c-0.3,0.4-0.9,0.7-1.8,0.8c-0.6,0.1-2,0.1-4.2,0.1c-0.4,0-0.7,0-0.9,0c-0.4,0-1,0-1.7,0c-1.9,0-3,0-3.5-0.1
	c-0.7-0.1-1.1-0.3-1.3-0.6c-0.1-0.3-0.2-0.8-0.1-1.8c0-0.4,0-0.7,0-0.9c0-0.1,0-0.2,0-0.4c0-1,0-1.6,0-1.8c0-0.2,0.1-0.3,0.3-0.4
	l0,0c0.1-0.1,1.9-0.1,5.2-0.1c3.4,0,5.2,0,5.3,0.1c0.1,0.1,0.2,0.1,0.3,0.2c0,0.1,0.1,0.2,0.1,0.5c0,0.4,0.1,0.6,0.2,0.7
	c0.1,0.1,0.4,0.1,0.8,0c0.5-0.1,0.8-0.2,1-0.3c0.2-0.1,0.3-0.3,0.3-0.6c0-0.2,0-0.6,0-1.3c-0.1-2-0.1-3.3,0-3.8c0-0.5,0.2-0.9,0.4-1
	c0.4-0.2,0.5-0.4,0.5-0.5c0-0.2-0.3-0.4-0.8-0.9c-0.6-0.5-1-0.8-1.2-0.8c-0.2,0-0.4,0.1-0.7,0.4c0,0-0.1,0.1-0.1,0.2
	c-0.3,0.3-0.5,0.5-0.7,0.5c-0.2,0-0.7,0.1-1.6,0.1c-0.2,0-0.3,0-0.4,0c-1,0-1.7,0-2,0c-0.4,0-0.5-0.2-0.5-0.3c0-0.1,0.3-0.4,0.7-0.7
	c0.6-0.5,1.1-1,1.3-1.2c0.6-0.6,1.1-0.9,1.4-1c0.3-0.1,0.4-0.2,0.4-0.3c0-0.1-0.3-0.4-0.7-0.8c-0.6-0.6-1-0.9-1.2-1
	c-0.2-0.1-0.5,0.1-0.8,0.5c0,0-0.1,0.1-0.1,0.1c-0.3,0.3-0.5,0.5-0.7,0.5c-0.2,0-0.7,0.1-1.5,0.1c-0.2,0-0.3,0-0.4,0
	c-1,0-1.6,0-1.8,0c-0.2,0-0.3-0.1-0.3-0.3c0-0.2,0.1-0.5,0.3-0.9c0.3-0.4,0.5-0.6,0.7-0.7c0.6-0.1-0.2-0.5-2.1-1.1
	c-0.4-0.1-0.6-0.2-0.7-0.1c-0.1,0-0.1,0.1-0.2,0.3c-0.3,1.4-1,3-2,4.8c-1,1.8-2.2,3.3-3.5,4.7c-0.3,0.3-0.5,0.5-0.5,0.6
	c0,0.1,0,0.1,0.2,0.1s0.8-0.4,1.9-1.2c0.3-0.2,0.5-0.3,0.6-0.4c0.1,0,0.2,0,0.3,0.1c0,0,0.1,0.3,0.1,0.8c0,0.4,0,1.9,0,4.3
	c0,0.1,0,0.1,0,0.1c0,2.7,0,4.2,0,4.7s0.1,0.9,0.2,1.2l0,0C275.4,45.1,276.5,45.7,278.4,45.8z M285.9,37c-1.2,0-1.9,0-2.1-0.1
	c-0.2-0.1-0.3-0.2-0.3-0.5c0-0.3,0-0.9,0-2.1c0-0.2,0-0.4,0-0.7c0-0.7,0-1.1,0-1.3c0-0.3,0.2-0.4,0.4-0.5c0.2,0,0.6-0.1,1.2-0.1
	c0.3,0,0.5,0,0.6,0s0.4,0,0.7,0c0.6,0,1,0,1.2,0c0.2,0.1,0.4,0.2,0.5,0.5c0,0.2,0.1,0.6,0,1.3c0,0.3,0,0.5,0,0.7c0,1.1,0,1.8,0,2
	c0,0.2-0.1,0.4-0.2,0.5C287.9,36.9,287.2,37,285.9,37z M279.2,37c-1.2,0-1.9,0-2-0.1c-0.2-0.2-0.3-1-0.3-2.5s0.1-2.3,0.3-2.5
	c0.1-0.1,0.8-0.1,2-0.1c1.2,0,1.9,0,2,0.1c0.2,0.2,0.3,1,0.3,2.4s-0.1,2.3-0.3,2.4C281.1,36.9,280.5,37,279.2,37z M279.6,31.1
	c-1.5,0-2.3,0-2.4-0.1c-0.4-0.1-0.5-0.3-0.5-0.4c0-0.2,0.3-0.6,0.7-1.1c0.2-0.2,0.5-0.6,0.9-1.1c0,0,0.1-0.1,0.1-0.2
	c0.2-0.3,0.4-0.5,0.6-0.6c0.2,0,0.7-0.1,1.6-0.1c0.2,0,0.4,0,0.5,0c1,0,1.6,0,1.9,0c0.4,0,0.6,0.2,0.6,0.3c0,0.1,0,0.4-0.2,0.8
	c-0.6,1.4-1.1,2.1-1.4,2.3C281.8,31.1,281.1,31.1,279.6,31.1z M315.4,46.3c0.1,0.1,0.3,0.1,0.8,0s0.8-0.2,1.2-0.4
	c0.6-0.3,1.1-0.8,1.5-1.6c0.4-0.8,0.6-2.1,0.8-3.8c0.2-1.6,0.3-3.9,0.4-7c0-0.2,0-0.4,0-0.8c0-1.6,0.1-2.5,0.1-2.7
	c0-0.3,0.2-0.5,0.4-0.6c0,0,0.1,0,0.1,0c0.2-0.1,0.3-0.2,0.4-0.2c0-0.1,0-0.1,0-0.2c-0.1-0.2-0.4-0.5-0.8-0.9
	c-0.5-0.4-0.8-0.7-1-0.8c-0.1-0.1-0.2-0.1-0.3,0c-0.1,0-0.2,0.2-0.5,0.5c0,0-0.1,0.1-0.1,0.1c-0.3,0.3-0.5,0.5-0.7,0.6
	c-0.2,0-0.7,0.1-1.4,0.1c-0.2,0-0.3,0-0.4,0c-0.1,0-0.2,0-0.3,0c-0.7,0-1.2,0-1.3,0c-0.3,0-0.4-0.2-0.4-0.3c0-0.1,0.1-0.4,0.3-0.9
	c0-0.1,0.1-0.1,0.1-0.2c0.3-0.7,0.5-1.1,0.6-1.3c0.1-0.2,0.2-0.3,0.4-0.4c0.3-0.1,0.2-0.3-0.1-0.5c-0.4-0.2-1.1-0.5-2.2-0.8l0,0
	c-0.2-0.1-0.4-0.1-0.4,0c0,0-0.1,0.2-0.1,0.6c0,0,0,0.1,0,0.1c-0.3,2.3-1,4.8-2.2,7.6c-0.4,1-0.7,1.4-0.9,1.4
	c-0.1-0.1-0.2-0.7-0.2-2c0-1,0-1.6,0.1-1.8c0-0.2,0.2-0.4,0.5-0.6c0.2-0.1,0.3-0.3,0.2-0.5c-0.1-0.2-0.5-0.5-1.1-1
	c-0.4-0.4-0.7-0.5-0.9-0.5c-0.1,0-0.3,0.2-0.6,0.6c-0.3,0.4-0.8,0.6-1.5,0.7c-0.7,0.1-1-0.1-1-0.4c0-0.2,0.3-0.7,0.8-1.6
	c0.6-0.8,0.9-1.3,1.1-1.4c0.4-0.1,0.4-0.3,0.1-0.4c-0.3-0.2-0.9-0.4-2-0.6c0,0-0.1,0-0.2,0c-0.4-0.1-0.6-0.1-0.7-0.1
	c-0.1,0-0.1,0.2-0.1,0.6c0,0.1,0,0.2,0,0.2c0,0.5,0,1-0.1,1.5c-0.1,0.8-0.2,1.4-0.2,1.6c-0.1,0.3-0.3,0.4-0.5,0.4
	c-0.2,0-0.6-0.2-1.2-0.5c-0.6-0.3-0.9-0.4-1-0.4c0,0-0.1,0-0.1,0.1c0,0.1,0,0.3,0.1,0.8c0.1,1.1,0.2,3.5,0.2,7.1
	c0,3.8-0.1,6.6-0.2,8.4c-0.1,0.8,0,1.3,0.1,1.5c0.1,0.2,0.5,0.2,1.1,0c0.4-0.1,0.7-0.3,0.8-0.5c0.1-0.2,0.2-0.5,0.2-1v0
	c0-0.4,0-0.6,0-0.7c0.1-0.1,0.2-0.2,0.5-0.3c0.2,0,0.6,0,1.3,0c0,0,0.1,0,0.1,0c0,0,0.1,0,0.1,0c0.7,0,1.1,0,1.3,0
	c0.3,0,0.4,0.1,0.5,0.2c0,0.1,0.1,0.3,0.1,0.6v0.1c0,0.5,0.1,0.8,0.4,0.8c0.3,0.1,0.7,0,1.4-0.4c0,0,0.1,0,0.2-0.1
	c0.2-0.1,0.3-0.2,0.3-0.4c0-0.2,0-0.8,0-1.8c0-0.5,0-0.8,0-1.1c0-1.1,0-2.4,0-4.1c0-1.7,0-2.6,0.1-2.7c0-0.1,0.1-0.3,0.2-0.3
	c0.1-0.1,0.1-0.1,0,0c0,0.1,0,0.1,0.1,0.2c0.1,0,0.1,0,0.2,0c0.2-0.1,0.6-0.6,1.3-1.5c0.7-0.9,1.3-1.8,1.8-2.6c0,0,0,0,0-0.1
	c0.2-0.4,0.5-0.6,0.7-0.7c0.2-0.1,0.9-0.1,2-0.1c0.1,0,0.1,0,0.2,0c0.2,0,0.4,0,0.6,0c0.7,0,1.1,0,1.2,0c0.2,0,0.4,0.2,0.5,0.4
	c0,0.1,0.1,0.5,0,1c0,0.2,0,0.4,0,0.5c0,2.3-0.1,4.5-0.2,6.6c-0.1,2.1-0.3,3.5-0.5,4.4c-0.1,0.5-0.3,0.9-0.5,1.1
	c-0.2,0.2-0.6,0.4-1,0.4c-0.4,0-1.1,0-2.1-0.1c-0.5,0-0.8-0.1-0.9,0c-0.1,0-0.1,0.1-0.1,0.2c0,0.1,0.2,0.2,0.6,0.3
	c1.5,0.4,2.2,1,2.2,2.1C315.3,46.2,315.4,46.3,315.4,46.3z M304.2,42.3c-0.6,0-0.9,0-1.1-0.1c-0.2-0.1-0.3-0.3-0.4-0.6
	c0-0.2-0.1-0.8,0-1.7c0-0.4,0-0.7,0-0.9c0-0.2,0-0.5,0-0.8c0-0.8,0-1.4,0-1.6c0.1-0.3,0.2-0.5,0.4-0.6c0.1-0.1,0.5-0.1,1.1-0.1
	c0.2,0,0.4,0,0.6,0c0.1,0,0.3,0,0.6,0c0.6,0,0.9,0,1.1,0.1c0.2,0.1,0.3,0.3,0.4,0.6c0,0.2,0,0.8,0,1.6c0,0.4,0,0.6,0,0.8
	c0,1.5,0,2.3,0,2.6c0,0.3-0.1,0.4-0.2,0.5c-0.1,0.1-0.2,0.1-0.4,0.1c-0.1,0-0.6,0-1.4,0C304.6,42.3,304.4,42.3,304.2,42.3z
	 M313.9,38.9c0.4,0.1,0.7,0.1,1-0.1c0.3-0.2,0.5-0.6,0.5-1c0-0.7-0.2-1.4-0.8-2c-0.5-0.7-1.3-1.3-2.4-1.8c-0.6-0.3-0.9-0.4-1-0.4
	c-0.1,0,0,0.3,0.3,0.7c1,1.5,1.6,2.9,1.8,4.1C313.4,38.6,313.5,38.8,313.9,38.9z M304.2,35.3c-0.6,0-0.9,0-1.1-0.1
	c-0.2-0.1-0.3-0.3-0.4-0.6c0-0.2-0.1-0.7,0-1.6c0-0.4,0-0.7,0-0.9c0-0.2,0-0.4,0-0.8c0-0.8,0-1.3,0-1.5c0.1-0.3,0.2-0.5,0.4-0.6
	c0.1,0,0.5-0.1,1-0.1c0.2,0,0.4,0,0.6,0c0.1,0,0.3,0,0.6,0c0.6,0,0.9,0,1.1,0.1c0.2,0.1,0.3,0.2,0.4,0.6c0,0.2,0.1,0.7,0.1,1.5
	c0,0.3,0,0.6,0,0.7c0,1.4,0,2.2,0,2.5c0,0.3-0.1,0.4-0.2,0.5c-0.1,0.1-0.2,0.1-0.4,0.1c-0.1,0-0.6,0-1.4,0
	C304.6,35.3,304.5,35.3,304.2,35.3z M25.5,70.3c0.3,0.2,0.7,0.1,1.3-0.1c0.6-0.2,0.8-0.5,0.8-0.8c0,0,0-0.1,0-0.2
	c0-0.2,0-0.4,0.1-0.5c0.1-0.1,0.4-0.2,1-0.2c0.4,0,1.2,0,2.6,0c0.3,0,0.5,0,0.7,0c0.2,0,0.5,0,0.9,0c1.3,0,2.1,0,2.5,0
	c0.5,0,0.8,0.1,0.9,0.2c0.1,0.1,0.1,0.3,0.1,0.5c0,0.1,0,0.1,0,0.2c0,0.4,0,0.6,0.2,0.7c0.2,0.1,0.5,0.1,1-0.1
	c0.6-0.2,0.9-0.4,1-0.6c0.1-0.2,0.2-0.7,0.1-1.5c-0.2-4.8-0.1-7.2,0.4-7.2c0,0,0.1,0,0.3-0.1c0.1-0.1,0.2-0.2,0.2-0.2
	c0-0.1-0.2-0.3-0.7-0.7c-0.5-0.4-0.9-0.7-1.2-0.9c-0.1-0.1-0.3-0.1-0.4,0s-0.3,0.2-0.6,0.5c0,0-0.1,0.1-0.1,0.2
	c-0.2,0.2-0.5,0.4-0.7,0.4c-0.3,0-1.2,0-2.8,0c-0.5,0-0.9,0-1.2,0s-0.7,0-1.2,0c-1.5,0-2.4,0-2.7,0c-0.3,0-0.7-0.2-1.2-0.4
	c-0.2-0.1-0.3-0.1-0.5-0.2c0,0-0.1,0-0.2-0.1c-0.5-0.2-0.7-0.3-0.8-0.3c-0.1,0-0.1,0.2,0,0.5c0,0.1,0,0.1,0,0.1
	c0.1,1.1,0.2,2.6,0.2,4.5c0,1.9,0,3.6-0.1,5.1c0,0.4,0,0.7,0,0.8C25.3,70.2,25.4,70.3,25.5,70.3z M36.1,67.9c-0.1,0.1-1.5,0.1-4,0.1
	c-2.6,0-3.9,0-4-0.1c-0.2-0.1-0.3-0.2-0.3-0.4c0-0.2,0-0.6,0-1.2c0-0.1,0-0.3,0-0.5c0-0.4,0-0.7,0.1-0.9c0.1-0.2,0.4-0.3,0.8-0.3
	c0.3,0,1.1,0,2.3,0c0.5,0,0.9,0,1.2,0c0.3,0,0.7,0,1.2,0c1.2,0,1.9,0,2.3,0c0.4,0,0.7,0.2,0.8,0.3c0.1,0.1,0.1,0.4,0.1,0.9
	c0,0.2,0,0.4,0,0.5c0,0.7,0,1.1,0,1.3C36.3,67.7,36.2,67.8,36.1,67.9z M32,63.9c-2.6,0-4,0-4.1-0.1c-0.1-0.1-0.2-0.2-0.2-0.4
	c0-0.2,0-0.6,0-1.2c0-0.1,0-0.2,0-0.4c0-0.4,0-0.7,0.1-0.8c0.1-0.1,0.4-0.2,0.8-0.3c0.3,0,1.1,0,2.3,0c0.5,0,0.9,0,1.2,0
	c0.3,0,0.7,0,1.2,0c1.2,0,1.9,0,2.3,0c0.4,0,0.7,0.1,0.8,0.3c0.1,0.1,0.1,0.4,0.1,0.8c0,0.2,0,0.3,0,0.4c0,0.6,0,1,0,1.2
	c0,0.2-0.1,0.3-0.2,0.4C36,63.9,34.6,63.9,32,63.9z M22,57.7c0.1,0,0.1,0.1,0.2,0c0,0,0.1,0,0.2,0c0.7-0.1,1.2-0.2,1.5-0.2
	c0.3,0,3.4-0.1,9.4-0.1c0.4,0,0.9,0,1.6,0c2.8,0,4.6,0,5.3,0c1,0,1.7,0,2-0.1c0.2,0,0.3-0.1,0.3-0.2c0,0,0-0.1,0-0.1
	c0-0.1-0.1-0.3-0.5-0.6c-0.3-0.3-0.7-0.7-1.2-1l0,0c-0.4-0.3-0.6-0.4-0.7-0.4c-0.1,0-0.3,0.2-0.6,0.7c0,0-0.1,0.1-0.1,0.1
	c0,0-0.1,0.1-0.1,0.2c-0.3,0.4-0.5,0.6-0.7,0.6c-0.2,0.1-0.6,0.1-1.4,0.1c-0.2,0-0.3,0-0.4,0c-0.9,0-1.4,0-1.6,0
	c-0.3,0-0.4-0.2-0.3-0.3c0-0.1,0.3-0.4,0.7-0.8c0.2-0.2,0.6-0.6,1.2-1.3c0,0,0.1-0.1,0.1-0.1c0.4-0.5,0.6-0.7,0.7-0.8
	c0.1-0.1,0.2-0.2,0.3-0.2C38,53.1,38.1,53,38,53s-0.2-0.2-0.5-0.3c-0.6-0.3-0.8-0.5-0.6-0.6c0.2-0.1,1-0.1,2.4-0.1c1.1,0,1.8,0,2,0
	c0.2,0,0.3-0.1,0.4-0.2c0.1-0.2-0.3-0.7-1.3-1.4l0,0c-0.5-0.4-0.8-0.6-1-0.6c-0.1,0-0.4,0.3-0.7,0.7l0,0c0,0-0.1,0.1-0.1,0.2
	c-0.2,0.4-0.5,0.6-0.7,0.6c-0.2,0-0.8,0.1-1.8,0.1c-0.2,0-0.4,0-0.5,0c-1.1,0-1.7,0-1.9,0c-0.2,0-0.3-0.1-0.4-0.1
	C33,50.9,33,50.6,33,50.2c0-0.4,0.2-0.7,0.4-0.9c0.2-0.2,0.2-0.3-0.1-0.4c-0.2-0.1-0.8-0.3-1.7-0.5c0,0-0.1,0-0.2,0
	c-0.4-0.1-0.7-0.2-0.7-0.1c-0.1,0-0.1,0.2-0.1,0.5c0,0.1,0,0.1,0,0.1c0,0.1,0,0.3,0,0.5c0,0.7,0,1.1,0,1.3c-0.1,0.3-0.3,0.4-0.6,0.5
	c-0.3,0-0.9,0-1.9,0c-0.3,0-0.5,0-0.7,0c-2.2,0-3.8,0-4.7-0.1c-0.2,0-0.3,0-0.4,0c0,0,0.1,0.2,0.2,0.5c0,0,0,0,0,0.1
	c0.1,0.2,0.2,0.4,0.3,0.4c0.1,0,0.3,0,0.5,0c0.1,0,0.1,0,0.2,0c2-0.3,2.9-0.3,2.9,0c0,0.1,0.1,0.3,0.2,0.6c0.4,0.8,0.7,1.6,0.9,2.4
	c0.2,0.9,0.3,1.4,0.1,1.5c-0.1,0.1-0.9,0.1-2.4,0.1c-1.5,0-2.7,0-3.6-0.1c-0.2,0-0.4,0-0.4,0c0,0,0.1,0.2,0.2,0.5
	C21.8,57.4,22,57.6,22,57.7z M33.4,56.7c-0.2,0.1-0.8,0.1-1.9,0.1c-1.1,0-1.6-0.1-1.7-0.1c-0.1-0.1-0.1-0.1-0.1-0.2
	c0-0.1,0-0.2,0.1-0.4c0.2-0.5,0.2-1.1-0.1-1.7c-0.3-0.6-0.7-1.1-1.4-1.6l0,0c-0.5-0.3-0.8-0.6-0.8-0.6c0-0.1,0.2-0.2,0.7-0.2
	c0.4,0,1.4,0,2.9,0c0.2,0,0.4,0,0.7,0c1.2,0,2,0,2.3,0c0.4,0,0.7,0.1,0.8,0.2c0,0.1,0,0.3,0,0.6c0,0.1,0,0.1,0,0.1
	c-0.3,1-0.5,1.8-0.8,2.6C33.8,56.2,33.6,56.6,33.4,56.7z M69.4,70.3c0.6,0.2,1,0.1,1.2-0.3c0.2-0.3,0.2-0.9-0.1-1.6
	c-0.1-0.2-0.1-0.5-0.1-0.8c0-0.3,0.1-0.9,0.2-1.9c0.1-0.9,0.1-1.4,0.1-1.5c0-0.1,0-0.2-0.1-0.2c0,0-0.1,0.2-0.3,0.6
	c-0.5,1.5-0.9,2.2-1.3,2.2c-0.4,0-1-0.7-1.7-2.1c-0.3-0.6-0.4-1-0.4-1.2s0.2-0.6,0.5-1.1c0.7-1.2,1.3-2.7,1.9-4.5
	c0.3-0.9,0.6-1.4,0.8-1.5c0.4-0.1,0.4-0.2,0.1-0.4s-0.9-0.4-1.8-0.8c-0.3-0.1-0.5-0.2-0.6-0.2c-0.1,0-0.1,0-0.1,0.1
	c-0.2,1.2-0.4,2.2-0.6,3.1c-0.2,0.9-0.5,1.4-0.7,1.8c-0.2,0.3-0.4,0.2-0.5-0.2c-0.1-0.4-0.2-1.2-0.4-2.3s-0.2-2.1-0.2-3
	c0,0,0-0.1,0-0.2c0-0.4,0-0.7,0-0.8c0.1-0.1,0.3-0.2,0.6-0.3c0.2,0,0.8,0,1.6,0c0.2,0,0.4,0,0.5,0c0,0,0.1,0,0.2,0c1,0,1.7,0,1.9,0
	c0.4,0,0.5-0.1,0.5-0.3c0-0.1-0.2-0.3-0.6-0.6c0,0-0.1-0.1-0.1-0.1c-0.4-0.4-0.6-0.6-0.7-0.7c-0.1-0.1-0.2-0.3-0.2-0.6
	c-0.1-0.8-0.7-1.3-1.8-1.6c-0.5-0.1-0.8-0.2-1-0.1c-0.2,0-0.1,0.2,0,0.4c0.2,0.2,0.4,0.5,0.6,0.9c0.2,0.4,0.3,0.7,0.4,1
	c0,0.1,0.1,0.2,0.2,0.3c0.2,0.2,0.2,0.4,0,0.6c-0.2,0.2-0.5,0.3-0.9,0.4c-0.4,0.1-0.8,0-1.1-0.1c-0.2-0.1-0.4-0.6-0.3-1.4
	c0-0.8,0.2-1.3,0.4-1.5c0.2-0.1,0.2-0.2,0.1-0.3c-0.1-0.1-0.4-0.2-0.9-0.4c-1-0.3-1.5-0.4-1.6-0.3c0,0,0,0.5,0,1.3
	c0,0.8,0,1.4,0,1.8c0,0.4-0.1,0.7-0.2,0.9c-0.1,0.1-1,0.1-2.7,0.1c-1.7,0-3.1,0-4.1-0.1c-0.2,0-0.3,0-0.3,0c0,0,0,0.2,0.2,0.5
	c0,0,0,0.1,0,0.1c0.1,0.2,0.2,0.3,0.3,0.4c0.1,0,0.2,0,0.6,0c0,0,0.1,0,0.1,0c0.9-0.1,2.1-0.2,3.7-0.2c0.1,0,0.2,0,0.3,0
	c0.8,0,1.4,0,1.6,0c0.3,0.1,0.5,0.2,0.6,0.5c0,0.2,0.1,0.7,0.1,1.5c0,0.1,0,0.2,0,0.3c0,0.5,0,0.8,0.1,1c0,0,0,0.1,0,0.2
	c0.1,0.4,0.1,0.8,0.2,1.1c0.2,1.6,0.5,3.1,0.8,4.6c0.1,0.5,0.2,0.9,0.1,1.1c0,0.2-0.2,0.5-0.5,1c-1.4,1.9-3.2,3.5-5.6,4.9
	c-0.4,0.2-0.6,0.3-0.6,0.4c0,0.1,0,0.1,0,0.2c0,0.1,0.1,0.1,0.2,0c0.1,0,0.5-0.2,1-0.4c2.1-0.9,3.9-2,5.4-3.5
	c0.5-0.4,0.8-0.6,0.9-0.6c0.1,0,0.4,0.3,0.6,0.8c0.5,1,1.1,1.8,1.7,2.5C68.4,69.7,68.9,70.1,69.4,70.3z M55.7,67.8
	c0.1,0.1,0.2,0,0.4-0.2c0.1-0.2,0.7-0.5,1.7-1c2.5-1.2,4.3-2.1,5.1-2.6c0.9-0.5,0.8-0.7-0.2-0.4c-3.2,0.9-5.6,1.5-7.2,1.9
	c-0.5,0.1-0.8,0.2-0.8,0.2c0,0,0.1,0.4,0.4,1C55.5,67.3,55.7,67.7,55.7,67.8z M50.1,67.7c0.1,0.1,0.2,0,0.4-0.2
	c0.1-0.2,0.6-0.6,1.4-1.2c1.1-0.8,2.2-1.7,3.3-2.5c0.5-0.4,0.8-0.6,1-0.7c0.1-0.1,0.3,0,0.5,0.1c0.2,0.1,0.4,0.1,0.7,0.1
	c0.3-0.1,0.6-0.2,0.8-0.4c0.1-0.1,0.1-0.1,0.1-0.2c0-0.1,0-0.2,0-0.5c0-0.4,0.1-0.6,0.2-0.7c0.1-0.1,0.4-0.1,0.9-0.1
	c0.5,0,0.8,0,0.9,0.1c0.1,0.1,0.2,0.3,0.2,0.6c0,0.3,0.2,0.5,0.4,0.5s0.5-0.1,1-0.3c0,0,0,0,0.1,0c0.2-0.1,0.3-0.2,0.4-0.3
	c0-0.1,0-0.5,0-1.1c0-0.1,0-0.2,0-0.2c-0.1-1.6-0.1-2.6,0-3.1c0-0.5,0.2-0.8,0.4-0.9c0.2-0.1,0.2-0.2,0.2-0.3c0-0.1-0.2-0.3-0.4-0.6
	c-0.5-0.5-0.8-0.7-1-0.7c-0.2,0-0.4,0.1-0.7,0.4c-0.3,0.3-0.5,0.5-0.6,0.5c-0.1,0-0.5,0.1-1,0c-0.7,0-1.3-0.2-1.8-0.4
	c-0.4-0.2-1-0.6-1.6-1.2c0,0-0.1-0.1-0.1-0.1c-0.4-0.4-0.7-0.6-0.8-0.7c-0.1,0-0.2,0.1-0.4,0.3c0,0,0,0.1,0,0.1
	c-0.4,0.6-0.7,0.9-0.8,0.7c-0.1-0.2-0.1-1-0.1-2.3c0-1.1,0-1.8,0-2s0.1-0.4,0.3-0.5c0.2-0.2,0.2-0.3,0-0.5c-0.3-0.2-0.9-0.4-1.8-0.6
	c0,0-0.1,0-0.2,0c-0.4-0.1-0.6-0.1-0.6-0.1c0,0-0.1,0.2,0,0.5c0,0,0,0.1,0,0.1c0.1,0.9,0.2,2,0.2,3.3c0,1.3,0,2.1-0.1,2.2
	c-0.1,0.2-0.3,0.3-0.6,0.3c-0.3,0-0.8,0-1.4-0.1c0,0,0,0-0.1,0c-0.3,0-0.4,0-0.5,0c0,0,0,0.2,0.1,0.4c0,0,0,0.1,0,0.1
	c0.1,0.3,0.2,0.5,0.3,0.5c0.1,0,0.2,0,0.5-0.1c0.6-0.2,1-0.3,1.2-0.2c0.2,0.1,0.4,0.4,0.4,1.1c0,0.4,0.1,1.5,0.1,3.2
	c0,0.1,0,0.1,0,0.2c0,0.3,0,0.8,0,1.3c0,1.1,0,1.7,0,2c0,0.4-0.2,0.7-0.3,0.9c-0.1,0.1-0.5,0.2-1,0.4c-0.3,0.1-0.5,0.2-0.6,0.2
	c-0.5,0.2-0.8,0.3-0.8,0.3c0,0,0.1,0.4,0.5,1.2C49.8,67.2,50.1,67.6,50.1,67.7z M55,63c-0.4,0.2-0.7,0.2-0.8,0.2
	c-0.2,0-0.3-0.3-0.3-0.7c0-0.3,0-1,0-2.1c0-0.4,0-0.7,0-0.9c0-0.3,0-0.6,0-1.1c0-1,0-1.6,0-1.8c0-0.4,0.1-0.6,0.2-0.7
	c0.1-0.1,0.3-0.1,0.7-0.1c0.2,0,0.3,0,0.4,0c0.1,0,0.2,0,0.3,0c0.5,0,0.8,0,0.9,0c0.2,0.1,0.3,0.3,0.3,0.6c0,0.2,0,0.7,0,1.5
	c0,0.2,0,0.4,0,0.6c0,0.1,0,0.3,0,0.6c0,1.2,0,2-0.1,2.3c0,0.5-0.1,0.8-0.3,1c-0.1,0.1-0.4,0.2-0.8,0.4c-0.1,0-0.1,0.1-0.2,0.1
	C55.3,62.9,55.2,62.9,55,63z M60.5,60.5c-0.3,0.2-0.6,0.2-1.2,0.1c-0.5-0.1-0.8-0.2-0.9-0.5c-0.1-0.2-0.1-0.8-0.1-1.7
	c0-1,0.1-1.5,0.1-1.6c0.1-0.2,0.5-0.4,1.1-0.4c0.6,0,0.9,0.1,1.1,0.4c0.1,0.2,0.2,0.8,0.1,1.9C60.7,59.9,60.6,60.4,60.5,60.5z
	 M87.2,62.6c1.1,0.1,2-0.2,2.8-1c0.8-0.8,1.1-1.7,1-2.8c-0.1-0.9-0.5-1.6-1.2-2.2c-0.6-0.5-1.4-0.8-2.2-0.8c-0.9,0-1.6,0.3-2.3,0.9
	c-0.7,0.6-1,1.4-1.1,2.3c0,0.8,0.2,1.6,0.7,2.3C85.6,62.1,86.3,62.5,87.2,62.6z M88.6,61.6c-0.8,0.3-1.6,0.2-2.3-0.3
	s-1.1-1.2-1.1-2.1c0-0.7,0.2-1.3,0.7-1.8c0.5-0.5,1.1-0.7,1.7-0.7c0.7,0,1.3,0.2,1.8,0.7c0.7,0.6,0.9,1.4,0.7,2.3
	C90,60.7,89.4,61.3,88.6,61.6z"/>
</svg>
