<?xml version="1.0" encoding="utf-8"?>
<!-- Generator: Adobe Illustrator 24.2.3, SVG Export Plug-In . SVG Version: 6.00 Build 0)  -->
<svg version="1.1" id="Layer_1" xmlns="http://www.w3.org/2000/svg" xmlns:xlink="http://www.w3.org/1999/xlink" x="0px" y="0px"
	 viewBox="0 0 352 219" style="enable-background:new 0 0 352 219;" xml:space="preserve">
<style type="text/css">
	.st0{clip-path:url(#SVGID_2_);}
	.st1{fill:none;stroke:#D6D2C7;stroke-width:1.3;stroke-miterlimit:10;stroke-dasharray:9.31,9.31;}
	.st2{fill:#D6D2C7;}
</style>
<g>
	<defs>
		<rect id="SVGID_1_" width="351.3" height="218.1"/>
	</defs>
	<clipPath id="SVGID_2_">
		<use xlink:href="#SVGID_1_"  style="overflow:visible;"/>
	</clipPath>
	<g class="st0">
		<path class="st1" d="M350.6,0.6H0.6v216.8h350V0.6z"/>
	</g>
</g>
<path class="st2" d="M23.8,42.6c0,0,0.1,0,0.2,0c0.9-0.2,1.5-0.3,1.8-0.5c0.4-0.3,0.6-0.8,0.6-1.7c0.1-0.6,0.1-2.1,0.1-4.3
	c0-0.3,0-0.7,0-1.2c0-1.2,0-1.9,0-2.3c0-0.4,0.1-0.8,0.2-0.9c0.1-0.1,0.2-0.3,0.5-0.4c0.1-0.1,0.2-0.1,0.3-0.2
	c0.6-0.4,1-0.6,1.2-0.6c0.2,0,0.3,0.1,0.5,0.5c0.1,0.2,0.2,0.3,0.2,0.4c0,0,0.2,0,0.3,0c0.5-0.1,1-0.2,1.5-0.2s0.8,0.1,0.8,0.2
	c0.1,0.2-0.1,0.8-0.5,2C31,34.6,30.5,35.8,30,37c-0.1,0.3-0.1,0.5,0,0.6c0.2,0.1,0.5,0.1,1.1,0.1c0.4,0,0.6,0,0.7-0.1
	c0.1-0.1,0.2-0.2,0.3-0.5c0.2-0.4,0.3-0.6,0.5-0.6s0.5,0.1,1,0.3c0.9,0.5,1.4,0.8,1.5,1c0.1,0.2-0.1,0.5-0.5,0.9
	c-1.4,1.3-3.3,2.4-5.9,3.2c-0.4,0.1-0.7,0.2-0.8,0.3c-0.1,0.1-0.1,0.1-0.1,0.2c0,0.1,0.1,0.1,0.3,0.1c0.1,0,0.5-0.1,1.1-0.2
	c3-0.6,5.4-1.6,7-2.9c0.4-0.3,0.7-0.4,0.9-0.4c0.3,0.1,0.7,0.5,1.5,1.2c0.7,0.7,1.3,1.3,1.6,1.8c0.2,0.3,0.5,0.5,0.9,0.4
	c0.4,0,0.7-0.2,0.8-0.6c0.2-0.6,0.1-1.3-0.4-2c-0.5-0.8-1.3-1.4-2.4-2.1c-0.4-0.3-0.7-0.5-0.7-0.6c0-0.1,0-0.4,0.2-0.7
	c0.6-1.2,1.1-2.6,1.4-4.4c0.1-0.5,0.2-0.8,0.4-0.9c0.1-0.1,0.5-0.2,1.2-0.2c0.6,0,0.9,0,1.1-0.1c0.2,0,0.2-0.2,0.2-0.3
	c0-0.1-0.3-0.4-0.8-0.9c-0.5-0.5-0.9-0.9-1.3-1.1c-0.2-0.1-0.3-0.2-0.4-0.1c-0.1,0.1-0.3,0.4-0.7,1c0,0,0,0.1-0.1,0.1
	c-0.2,0.3-0.5,0.5-0.6,0.6c-0.2,0-0.7,0.1-1.6,0.1c-0.1,0-0.3,0-0.3,0c-0.1,0-0.2,0-0.3,0c-0.8,0-1.4,0-1.6,0
	c-0.3,0-0.4-0.2-0.5-0.4c0-0.1,0.1-0.5,0.2-1c0-0.1,0.1-0.2,0.1-0.2c0.2-0.5,0.3-0.9,0.4-1.1c0.1-0.2,0.3-0.4,0.4-0.5
	c0.2-0.1,0.3-0.2,0.2-0.3c-0.1-0.1-0.3-0.2-0.7-0.3c-0.2-0.1-0.6-0.1-1-0.2c-0.5-0.1-0.7-0.1-0.8-0.1c0,0-0.1,0.3-0.2,0.9
	c-0.2,1-0.4,1.9-0.6,2.6c-0.1,0.3-0.2,0.5-0.4,0.6c-0.1,0.1-0.4,0.1-0.8,0.1c-0.8,0-1.4-0.1-1.8-0.2c-0.4-0.1-0.4-0.3-0.2-0.4
	c0.1-0.1,0.1-0.1,0.1-0.2c0-0.1,0-0.1,0-0.1c-0.1,0-0.4,0.1-1.2,0.3c-0.1,0-0.2,0-0.3,0.1c-0.6,0.2-1,0.3-1.1,0.3
	c-0.2,0-0.3-0.1-0.4-0.3c0-0.1,0-0.5,0-1.2c0-0.1,0-0.2,0-0.3c0-0.7,0-1.1,0-1.3c0-0.3,0.1-0.4,0.2-0.5c0.1,0,0.4-0.1,0.7-0.1
	c0.4,0,0.6,0,0.8,0.1c0.1,0.1,0.2,0.2,0.3,0.5c0.1,0.5,0.4,0.8,0.8,0.9c0.4,0,0.8-0.1,1.2-0.5c0.4-0.4,0.7-0.9,0.7-1.5
	c0-0.1,0-0.2,0-0.3c0-0.3,0.1-0.5,0.2-0.5c0.1-0.1,0.4-0.2,0.8-0.2c0.3,0,1,0,2.1,0c0.5,0,0.9,0,1.2,0c0.3,0,0.6,0,1.1,0
	c1.3,0,2.1,0,2.4,0.1c0.4,0.1,0.7,0.2,0.7,0.5c0,0.2-0.1,0.7-0.3,1.5c-0.1,0.3-0.1,0.5-0.2,0.6c0,0,0,0.1,0,0.2c0,0,0.1,0.1,0.1,0.1
	c0.1,0,0.3-0.2,0.8-0.6c0.5-0.4,0.9-0.8,1.4-1.2c0.5-0.4,0.8-0.7,1.2-0.8c0.3,0,0.4-0.2,0.3-0.3c-0.1-0.2-0.3-0.5-0.8-1
	c-0.5-0.5-0.9-0.8-1.1-0.9c-0.2,0-0.4,0.1-0.8,0.5l0,0c-0.3,0.3-0.5,0.5-0.7,0.6c-0.2,0-0.6,0.1-1.2,0.1c-0.1,0-0.1,0-0.1,0
	c0,0-0.1,0-0.2,0c-0.8,0-1.2,0-1.3-0.1c-0.1-0.1-0.2-0.4-0.2-1.1c0,0,0-0.1,0-0.1c0-0.5,0-0.8,0-0.9c0-0.2,0.1-0.3,0.3-0.5
	c0.2-0.2,0.2-0.3-0.1-0.5c-0.2-0.1-0.8-0.3-1.7-0.5c0,0-0.1,0-0.2,0c-0.4-0.1-0.6-0.1-0.6-0.1c0,0-0.1,0.1,0,0.4c0,0,0,0.1,0,0.1
	c0.2,2,0.2,3-0.1,3.3c-0.1,0.1-0.5,0.1-1.4,0.1c-0.8,0-1.3,0-1.4-0.1c-0.2-0.1-0.4-0.3-0.4-0.6c-0.1-0.4-0.2-0.6-0.3-0.6
	c-0.1,0-0.1,0-0.1,0c0,0.3-0.1,0.6-0.3,1.1c-0.2,0.4-0.4,0.7-0.5,0.9s-0.3,0.2-0.5,0.2c-0.1,0-0.4-0.3-0.8-0.6l0,0
	c-0.2-0.2-0.4-0.3-0.5-0.3c-0.1,0-0.2,0.2-0.4,0.5c-0.2,0.3-0.4,0.5-0.5,0.6s-0.2,0.1-0.3,0.1c-0.2,0-0.4-0.7-0.3-2
	c0-1.3,0.2-2,0.4-2.2c0.5-0.3-0.2-0.7-2.2-1.2l0,0c-0.3-0.1-0.4-0.1-0.4,0c0,0,0,0.3,0,0.6c0.1,0.9,0.2,1.9,0.2,2.9
	c0,1,0,1.6-0.1,1.8C24.2,25.9,24,26,23.6,26c-0.3,0-0.9,0-1.8-0.1c0,0,0,0-0.1,0c-0.3,0-0.4,0-0.5,0c0,0,0,0.2,0.1,0.4
	c0,0,0,0.1,0,0.1c0,0,0,0,0,0.1c0.1,0.3,0.2,0.4,0.3,0.4c0.1,0,0.2,0,0.4,0c0,0,0.1,0,0.1,0c0.7-0.2,1.2-0.3,1.5-0.2
	c0.3,0,0.5,0.3,0.6,0.6c0.1,0.3,0.1,0.9,0.1,1.8c0,0.1,0,0.2,0,0.4c0,0.7,0,1.1-0.1,1.3c-0.1,0.3-0.3,0.5-0.6,0.6
	c-0.2,0.1-0.8,0.3-1.6,0.5c-0.2,0-0.4,0.1-0.5,0.1c-0.3,0.1-0.5,0.1-0.6,0.2c0,0,0,0.1,0,0.2c0,0.1,0.2,0.5,0.4,1.2
	c0.2,0.6,0.3,1,0.4,1c0.1,0.2,0.2,0.1,0.4,0c0.3-0.4,0.7-0.7,1.2-1c0.5-0.2,0.8-0.3,0.9,0c0,0.1,0.1,1.1,0.1,2.9c0,1.9,0,2.9,0,3.1
	c-0.1,0.3-0.2,0.4-0.5,0.5c-0.2,0.1-0.7,0.1-1.5,0c-0.5,0-0.8,0-0.8,0c-0.1,0.1,0,0.2,0.4,0.3c1,0.2,1.5,0.8,1.7,1.8
	C23.7,42.5,23.7,42.6,23.8,42.6z M36.2,36.5c-0.1,0-0.2,0.1-0.3,0.1c-0.1,0-0.2-0.1-0.5-0.1c-0.2,0-0.6-0.2-1.3-0.3
	c-0.6-0.2-1-0.3-1.1-0.4s-0.1-0.4,0.1-0.9c0.1-0.1,0.2-0.7,0.6-1.6c0-0.1,0.1-0.2,0.1-0.2c0-0.1,0.1-0.2,0.1-0.4
	c0.3-0.7,0.5-1.1,0.6-1.2c0.2-0.1,0.6-0.2,1.3-0.2c0.2,0,0.3,0,0.4,0c0.7,0,1.1,0,1.3,0c0.3,0,0.4,0.2,0.4,0.3c0,0.1,0,0.4-0.1,0.9
	c-0.2,1-0.5,2-0.8,2.7C36.7,35.9,36.4,36.4,36.2,36.5z M58.3,42.6c0.3,0.1,0.6,0.1,1.1,0c0.5-0.1,0.9-0.3,1.1-0.5
	c0.1-0.1,0.1-0.2,0.1-0.3c0-0.1,0-0.3,0-0.8c0-0.2,0-0.6,0-1.2c0-0.4,0-0.7,0-0.8c0-1.1,0-3.1,0-6c0-2.9,0-4.5,0.1-4.6
	c0.1-0.3,0.7,0,1.8,0.8c1.1,0.9,2,1.8,2.9,3c0.2,0.3,0.4,0.5,0.5,0.5c0.1,0.1,0.3,0.1,0.5,0.1c0.6,0,1-0.3,1-0.9
	c0.1-0.6-0.1-1.2-0.7-1.8c-0.9-1.2-2.7-2.1-5.2-2.6c-0.4-0.1-0.7-0.2-0.8-0.4c-0.1-0.2-0.1-0.7-0.1-1.6c0-0.1,0-0.1,0-0.1
	c0-0.2,0-0.4,0-0.6c0-0.5,0-0.8,0.1-1c0.1-0.2,0.4-0.3,0.9-0.4c0.3,0,1.2,0,2.4,0c0.7,0,1.2,0,1.6,0c2.4,0,3.8,0,4.2,0
	c0.4,0,0.6-0.1,0.7-0.2c0.1-0.3-0.5-1-2.1-2.1c-0.3-0.2-0.5-0.3-0.6-0.2c-0.1,0-0.3,0.3-0.6,0.7c-0.4,0.6-0.7,0.9-0.9,1.1
	c-0.1,0-0.4,0.1-1,0.1c-0.6,0-2.8,0-6.5,0c-5.3,0-8.4,0-9.4-0.1c-0.2,0-0.3,0-0.3,0c0,0,0.1,0.2,0.2,0.5c0,0,0,0.1,0,0.1
	c0.1,0.2,0.2,0.4,0.3,0.4c0.1,0,0.3,0,0.6,0c0,0,0.1,0,0.1,0c0.6-0.1,1.1-0.2,1.7-0.2c0.4,0,1.3,0,2.8,0c0.1,0,0.1,0,0.2,0
	c1.9,0,2.9,0,3,0c0,0,0,0,0.1,0c0.1,0,0.2,0.1,0.2,0.3c0,0.2,0.1,0.7,0.1,1.5c0,0.6,0,1.9,0,4.1c0,0.6,0,1,0,1.3
	c0,5.1-0.1,8.5-0.2,10.4c0,0.7-0.1,1.1,0,1.2C58.1,42.5,58.2,42.6,58.3,42.6z M79.5,42.6c0,0,0.1,0.1,0.2,0c0,0,0.1,0,0.2,0
	c0.1,0,0.1,0,0.2,0c1-0.2,1.6-0.6,1.9-1.2c0.1-0.2,0.2-0.5,0.2-1s0-1.8,0-4v0c0-0.4,0-1,0-1.6c0-1.2,0-1.9,0-2.3
	c0-0.4,0.1-0.8,0.3-1c0.1-0.2,0.4-0.4,0.8-0.7c0.3-0.2,0.5-0.3,0.6-0.4c0.4-0.3,0.6-0.5,0.7-0.6s0.1-0.1,0-0.2c0-0.1-0.4,0-0.9,0.2
	c-0.6,0.2-1,0.3-1.1,0.3c-0.2,0-0.4-0.1-0.4-0.4c0-0.2,0-0.6,0-1.4c0-0.1,0-0.2,0-0.3c0-0.7,0.1-1.2,0.2-1.3
	c0.1-0.1,0.6-0.2,1.3-0.2c0.1,0,0.2,0,0.3,0c1,0,1.6-0.1,1.6-0.3c0.1-0.2-0.2-0.6-0.8-1.2c-0.5-0.5-0.8-0.7-0.9-0.7
	c-0.1,0-0.3,0.2-0.6,0.6c-0.4,0.6-0.7,0.8-0.8,0.6c-0.1-0.2-0.2-0.9-0.1-2.2c0-0.8,0-1.2,0.1-1.4c0-0.2,0.1-0.4,0.3-0.5
	c0.2-0.2,0.2-0.3-0.1-0.5c-0.3-0.2-0.9-0.4-1.9-0.6c0,0,0,0-0.1,0c-0.3-0.1-0.5-0.1-0.6,0c0,0,0,0.2,0,0.6c0,0,0,0.1,0,0.1
	c0.1,0.9,0.2,1.9,0.2,2.9c0,1,0,1.6-0.1,1.8c-0.1,0.2-0.3,0.3-0.7,0.3c-0.3,0-0.9,0-1.8-0.1c0,0,0,0-0.1,0c-0.3,0-0.5,0-0.5,0
	s0,0.2,0.1,0.4c0,0,0,0.1,0,0.1c0,0,0,0,0,0.1c0.1,0.3,0.2,0.4,0.3,0.4c0.1,0,0.2,0,0.4,0c0,0,0.1,0,0.1,0c0.6-0.2,1.1-0.2,1.5-0.2
	c0.4,0,0.6,0.2,0.7,0.4c0.1,0.2,0.1,0.8,0.1,2c0,1.1-0.1,1.7-0.1,1.8c-0.2,0.3-1.1,0.6-2.8,1.1c0,0-0.1,0-0.1,0
	c-0.2,0.1-0.4,0.2-0.4,0.3c0,0.1,0.1,0.4,0.3,0.9c0,0.1,0.1,0.2,0.1,0.3c0,0,0,0.1,0.1,0.2c0.2,0.6,0.4,1,0.5,1
	c0.1,0,0.2-0.1,0.5-0.4c0,0,0-0.1,0-0.1c0.2-0.2,0.4-0.4,0.9-0.6c0.4-0.3,0.7-0.4,0.8-0.3c0.1,0,0.2,0.2,0.2,0.5c0,0.3,0,1.1,0,2.6
	c0,0.2,0,0.4,0,0.7c0,1.1,0,1.8,0,2.1c-0.1,0.4-0.2,0.7-0.4,0.8c-0.2,0.1-0.5,0.1-1.2,0c-0.2,0-0.3,0-0.4,0c-0.4,0-0.6,0-0.7,0
	s-0.1,0.1-0.1,0.2c0,0.1,0.2,0.1,0.4,0.2c0.5,0.1,0.9,0.3,1.1,0.6c0.3,0.3,0.4,0.7,0.5,1.2C79.4,42.4,79.4,42.5,79.5,42.6z
	 M83.9,42.5c0.1,0.1,0.1,0.1,0.2,0.1c0,0,0.2-0.1,0.4-0.2c1.8-1.1,3.2-2.4,4.2-3.9c1-1.5,1.7-3.3,2-5.5c0-0.1,0-0.2,0-0.3
	c0.1-0.6,0.2-0.9,0.3-1c0.1-0.1,0.5-0.2,1.2-0.2c0.1,0,0.2,0,0.3,0c0.1,0,0.2,0,0.3,0c0.6,0,0.9,0,1.1,0.1c0.2,0.1,0.3,0.3,0.4,0.7
	c0,0.3,0,0.9-0.1,1.9c0,0.2,0,0.4,0,0.5c-0.1,1.8-0.3,3.1-0.4,3.7c-0.2,0.8-0.4,1.3-0.8,1.5c-0.3,0.2-1,0.2-1.9,0.1
	c-0.6,0-1-0.1-1.1,0c-0.1,0-0.2,0-0.1,0.1s0.2,0.2,0.5,0.3c1.2,0.4,1.8,1,1.8,1.8c0,0.2,0,0.3,0.1,0.3c0.1,0,0.2,0,0.5,0
	c0.9-0.1,1.6-0.4,2.1-0.9c0.5-0.5,0.9-1.4,1.1-2.7c0.2-1.2,0.4-3,0.5-5.5c0-0.7,0.1-1.1,0.1-1.2c0.1-0.2,0.2-0.3,0.5-0.4
	c0.2-0.1,0.3-0.2,0.2-0.4c0-0.1-0.3-0.4-0.6-0.8c-0.5-0.5-0.8-0.7-1.1-0.8c-0.2,0-0.5,0.1-0.8,0.4c0,0-0.1,0.1-0.2,0.2
	c-0.2,0.3-0.5,0.4-0.8,0.5s-1.1,0.1-2.5,0c-0.3,0-0.5,0-0.7,0c-2.5,0-4.1,0-4.6-0.1c-0.1,0-0.2,0-0.2,0.1c0,0,0.1,0.2,0.2,0.4
	c0.2,0.3,0.3,0.5,0.3,0.6c0.1,0,0.2,0,0.3,0c1.3-0.4,2-0.3,2,0.5c0,1.7-0.4,3.4-1.1,5.1c-0.7,1.6-1.6,3.1-2.9,4.3
	c-0.5,0.5-0.7,0.7-0.7,0.7C83.8,42.4,83.9,42.5,83.9,42.5z M84.3,31.3c0.1,0.1,0.3,0,0.6-0.2c0.2-0.1,0.4-0.3,0.6-0.4
	c0.2-0.1,0.3-0.2,0.5-0.4l0,0c0.3-0.3,0.5-0.6,0.6-0.7c1.1-1.1,2-2.6,2.8-4.4c0.2-0.5,0.4-0.8,0.7-0.9c0.4-0.2,0.3-0.4-0.5-0.6
	c-0.1,0-0.3-0.1-0.7-0.2c-0.5-0.2-0.8-0.3-1.1-0.4c-0.2-0.1-0.4-0.1-0.4-0.1c0,0-0.1,0.1-0.1,0.3c-0.1,1.1-0.4,2.4-0.9,3.7
	c-0.5,1.4-1,2.3-1.4,2.8c-0.2,0.2-0.4,0.4-0.4,0.6c0,0.2-0.1,0.4-0.2,0.5C84.2,31.1,84.2,31.3,84.3,31.3z M97,30.3
	c0,0,0.1-0.1,0.2-0.2c0.1-0.3,0.3-0.6,0.6-0.8c0.3-0.3,0.6-0.5,0.8-0.7c0.2-0.1,0.3-0.2,0.3-0.3c0-0.1-0.2-0.2-0.5-0.4
	c-0.9-0.5-1.7-1.2-2.4-2c-0.7-0.8-1.3-1.7-1.7-2.5c-0.1-0.3-0.2-0.5-0.1-0.6c0.1-0.1,0.3-0.3,0.6-0.3c0.6-0.2,0.9-0.3,0.8-0.5
	c0,0-0.3-0.2-0.9-0.6c-0.5-0.4-0.8-0.6-0.9-0.6c0,0-0.1,0-0.1,0c0,0-0.1,0.2-0.2,0.4c0,0-0.1,0.1-0.1,0.1c-0.2,0.3-0.7,0.5-1.3,0.6
	c-0.7,0.1-1.7,0-3.1-0.1c-0.4,0-0.6,0-0.6,0c0,0,0,0.2,0.2,0.5c0,0,0,0,0,0.1c0.1,0.2,0.2,0.4,0.3,0.4c0.1,0,0.3,0,0.6,0
	c0.1,0,0.1,0,0.2,0c1.3-0.2,2.3-0.3,3-0.2c0.7,0.1,1.1,0.3,1.1,0.6c0,0.9,0.4,2.1,1.1,3.6c0.7,1.6,1.4,2.7,2.1,3.3
	C96.8,30.2,97,30.3,97,30.3z M107.6,42.6c0.2,0.1,0.5,0,0.9-0.1c0.4-0.1,0.7-0.3,1-0.5c0.1-0.1,0.1-0.2,0.1-0.3c0-0.1,0-0.5,0-1.2
	c0-0.9-0.1-3-0.1-6.3c0-3.3,0-5,0-5.1c0-0.2,0.2-0.4,0.4-0.5c0.1-0.1,0.1-0.2,0-0.2c0-0.1-0.2-0.3-0.4-0.5c-0.3-0.3-0.4-0.5-0.4-0.6
	s0.2-0.5,0.5-1.1l0,0c0.5-1.1,1-2.2,1.4-3.1c0.2-0.5,0.4-0.8,0.5-1c0.1-0.2,0.2-0.3,0.4-0.3c0.3-0.1,0.3-0.2,0-0.4
	c-0.3-0.2-0.9-0.4-1.9-0.8c-0.4-0.2-0.7-0.2-0.8-0.3c-0.1,0-0.1,0.1-0.2,0.2c-0.2,1.7-0.7,3.6-1.4,5.6c-0.7,2-1.6,3.9-2.7,5.6
	c-0.3,0.4-0.4,0.7-0.4,0.8s0.1,0.2,0.2,0.2c0.1,0,0.6-0.5,1.5-1.5c0.4-0.4,0.6-0.6,0.7-0.7c0.1-0.1,0.2,0,0.3,0.2
	c0.1,0.2,0.1,1.6,0,4.3c0,2.7-0.1,4.7-0.2,6c0,0.6-0.1,1-0.1,1.2c0,0.1,0,0.2,0.1,0.3S107.5,42.6,107.6,42.6z M112.1,42.2
	c0.2,0.1,0.5,0.1,0.9,0s0.7-0.3,1-0.5c0.1-0.1,0.1-0.2,0.1-0.2c0-0.1,0-0.3,0-0.6c0-0.1,0-0.1,0-0.2c0-0.3,0-0.4,0.1-0.5
	c0.1-0.1,0.4-0.2,0.9-0.2c0.3,0,1.1,0,2.4,0c0.5,0,0.8,0,1.1,0c0.2,0,0.5,0,1,0c1.3,0,2.1,0,2.5,0c0.5,0,0.8,0.1,0.9,0.2
	c0.1,0.1,0.1,0.3,0.1,0.6c0,0.1,0,0.2,0,0.3c0,0.5,0.1,0.9,0.5,0.9c0.3,0.1,0.8,0,1.5-0.4c0,0,0,0,0.1,0c0.2-0.1,0.3-0.3,0.3-0.4
	c0-0.1,0-0.6,0-1.3c0-0.1,0-0.2,0-0.3c0-1.2-0.1-3.4-0.1-6.8c0-0.2,0-0.6,0-1c0-2.2,0-3.5,0-3.9c0-0.4,0.1-0.6,0.2-0.7l0.1,0
	c0.2-0.1,0.2-0.3-0.2-0.5c-0.3-0.2-1-0.4-2-0.6c0,0,0,0-0.1,0c-0.3-0.1-0.5-0.1-0.5-0.1c0,0-0.1,0.2,0,0.4v0.1
	c0.1,0.7,0.1,1.4,0.2,2.1c0,0.8,0,2.4,0,5c0,0.3,0,0.7,0,1.2c0,2.2,0,3.5,0,3.8c0,0.4-0.1,0.6-0.2,0.6l0,0c-0.1,0-0.6,0.1-1.4,0.1
	c-0.8,0-1.3,0-1.4-0.1l0,0c-0.1,0-0.2-0.1-0.2-0.3c0-0.2-0.1-0.8-0.1-1.7c0-0.6,0-2.2,0-4.6c0-0.8,0-1.3,0-1.8c0-0.4,0-0.8,0-1.5
	c0-2.5,0-4.1,0-4.8c0-0.9,0-1.6,0.1-1.8c0-0.2,0.1-0.3,0.2-0.4c0,0,0.1-0.1,0.1-0.1c0.2-0.2,0.2-0.4-0.1-0.5
	c-0.2-0.1-0.9-0.3-1.9-0.6c0,0-0.1,0-0.2,0c-0.3-0.1-0.5-0.1-0.6,0c0,0-0.1,0.2,0,0.6c0,0.1,0,0.2,0,0.2c0.1,0.8,0.1,1.8,0.1,2.8
	c0,1.1,0,3.4,0,6.9c0,0.7,0,1.5,0,2.6c0,1.9,0,3.2,0,3.7c0,0.7-0.1,1.2-0.3,1.3c-0.1,0.1-0.4,0.2-0.8,0.1c-0.2,0-0.4,0-0.6,0
	c-0.1,0-0.3,0-0.5,0c-0.4,0-0.7,0-0.8-0.1c-0.2-0.1-0.3-0.5-0.3-1.1c0-0.4,0-1.4,0-3c0-0.8,0-1.4,0-1.9c0-0.4,0-0.9,0-1.6
	c0-2,0-3.2,0-3.6c0-0.4,0.1-0.6,0.3-0.7c0,0,0.1-0.1,0.1-0.1c0.2-0.2,0.2-0.3,0-0.5c-0.2-0.1-0.8-0.4-1.8-0.6
	c-0.4-0.1-0.7-0.2-0.7-0.1c-0.1,0-0.1,0.1-0.1,0.3c0.1,0.6,0.2,1.3,0.2,2c0,0.7,0,2.1,0,4.3c0,3.7,0,6.4-0.1,8.3c0,0.6-0.1,1,0,1.2
	C111.9,42,111.9,42.1,112.1,42.2z M137.9,42.7c0.1,0.1,0.5-0.1,1.2-0.6c0.7-0.5,1.3-1,1.8-1.5c0.4-0.4,0.9-1,1.5-1.8
	c0.2-0.3,0.3-0.4,0.5-0.3c0.1,0,0.3,0.3,0.6,0.7c0.8,1.2,1.8,2,2.9,2.4s2.9,0.6,5.4,0.6c0.1,0,0.2,0,0.3,0c0.7,0,1.1,0,1.2,0
	c0.1,0,0.2-0.1,0.2-0.3c0-0.3,0.1-0.5,0.3-0.8c0.2-0.3,0.3-0.5,0.5-0.6c0.2-0.1,0.3-0.2,0.2-0.3c0,0-0.8-0.1-2.4-0.1
	c-0.2,0-0.3,0-0.4,0c-1.3,0-2.2,0-2.6,0c-0.4,0-0.7-0.1-0.9-0.2c-0.2-0.1-0.4-0.1-0.3-0.2c0-0.1,0.2-0.2,0.5-0.4
	c0.3-0.2,0.5-0.3,0.6-0.4c0.1-0.1,0.1-0.3,0.1-0.5c0,0,0-0.1,0-0.1c-0.1-0.7-0.1-1.1,0-1.3c0-0.3,0.2-0.4,0.5-0.5
	c0.2,0,0.8-0.1,1.6-0.1c0.1,0,0.1,0,0.2,0c0.9,0,1.5,0,1.8-0.1c0.3-0.1,0.4-0.2,0.3-0.4c-0.1-0.2-0.4-0.5-0.9-1
	c-0.4-0.4-0.7-0.6-0.9-0.6s-0.3,0.2-0.6,0.6c-0.2,0.4-0.4,0.6-0.6,0.7c-0.1,0.1-0.3,0.1-0.6,0.1c-0.4,0-0.6-0.1-0.7-0.2
	c-0.1-0.2-0.2-0.5-0.1-1.1c0,0,0-0.1,0-0.1c0-0.4,0-0.6,0.1-0.7c0.1-0.1,0.2-0.2,0.5-0.3c0.2,0,0.6,0,1.3,0c0,0,0.1,0,0.1,0
	c1.1,0,1.7-0.1,1.8-0.2c0.1-0.1-0.1-0.5-0.7-1.1c-0.4-0.4-0.7-0.7-0.9-0.7c-0.1,0-0.4,0.2-0.7,0.6c-0.5,0.7-0.9,0.9-1.3,0.6
	c-0.2-0.2-0.4-0.6-0.3-1.2c0-0.7,0.2-1,0.4-1.2c0.2-0.1,0.5-0.1,0.8,0c0.3,0.1,0.5,0.2,0.5,0.4c0,0.1,0.1,0.2,0.4,0.2
	c0.2,0,0.5-0.1,0.8-0.2c0.4-0.1,0.6-0.3,0.6-0.4c0.1-0.1,0.1-0.4,0-0.9c0-0.8-0.1-1.4,0-1.6c0-0.3,0.1-0.6,0.3-0.7
	c0.1-0.1,0.4-0.1,0.8-0.1s0.6,0,0.7-0.1c0.1,0,0.2-0.1,0.2-0.3c0-0.1-0.2-0.3-0.6-0.8c-0.4-0.5-0.6-0.7-0.6-0.7s-0.1,0.1-0.2,0.2
	c-0.1,0.2-0.2,0.2-0.3,0.2c-0.1,0-0.2-0.1-0.2-0.3c-0.1-0.3-0.1-0.6,0-0.9c0.1-0.3,0.2-0.5,0.3-0.6c0.2-0.1,0.3-0.2,0.3-0.4
	c0-0.2-0.3-0.4-0.7-0.7c-0.4-0.4-0.8-0.6-0.9-0.6c-0.1,0-0.3,0.1-0.6,0.3c-0.5,0.6-1.1,0.8-1.6,0.5c-0.2-0.1-0.3-0.3-0.3-0.6
	c0-0.3,0.1-0.5,0.3-0.6c0.2-0.2,0.2-0.3,0-0.5c-0.2-0.2-0.8-0.4-1.6-0.6c0,0-0.1,0-0.1,0c-0.3-0.1-0.4-0.1-0.5,0c0,0-0.1,0.3,0,0.7
	c0,0.1,0,0.1,0,0.2c0,0.7,0,1.2-0.1,1.3c-0.1,0.2-0.4,0.2-0.9,0.2c-0.3,0-0.5,0-0.6,0c-0.1,0-0.1-0.1-0.2-0.1
	c-0.8-0.8-1.3-1.2-1.5-1.3c-0.3-0.1-0.5-0.1-0.7,0.1c-0.5,0.5-1.4,0.7-2.7,0.5c-0.2,0-0.3,0-0.3,0c0,0,0,0.1,0,0.2
	c0.2,0.5-0.1,0.5-0.9,0c-0.1,0-0.2-0.1-0.3-0.2c-0.2-0.1-0.3-0.2-0.4-0.2c-0.5-0.3-0.6-0.5-0.3-0.7c0.1-0.1,0.1-0.1,0.1-0.2
	c0,0-0.6-0.2-1.6-0.4c-1-0.2-1.6-0.3-1.6-0.2c0,0,0,0.2-0.1,0.4c-0.1,0.9-0.3,2.1-0.8,3.4c-0.4,1.3-1,2.4-1.6,3.4
	c-0.2,0.3-0.3,0.5-0.2,0.6c0.1,0,0.1,0,0.2,0c0.1-0.1,0.3-0.2,0.6-0.5c0.3-0.3,0.6-0.5,0.7-0.5c0.1-0.1,0.4-0.1,0.8-0.1
	c0.5,0,0.7,0.1,0.8,0.2c0.1,0.1,0.1,0.7,0.1,1.5v0c0,0.7,0,1.1-0.1,1.3c-0.1,0.2-0.3,0.4-0.6,0.4c-0.2,0-0.8,0-1.7-0.1
	c0,0,0,0-0.1,0c-0.3,0-0.4,0-0.5,0c0,0,0,0.2,0.2,0.4c0,0,0,0.1,0,0.1c0.1,0.3,0.2,0.4,0.3,0.5c0,0,0.1,0.1,0.2,0
	c0.3-0.1,0.6-0.2,1.1-0.2c0.4,0,0.7,0,0.9,0c0.1,0.1,0.2,0.2,0.2,0.4c0,0.2,0,0.7,0,1.6c0,1.1-0.1,1.7-0.1,1.8
	c0,0.1-0.2-0.1-0.5-0.6c-0.3-0.6-0.7-1.2-1.1-1.6c-0.4-0.5-0.6-0.7-0.8-0.6c-0.1,0-0.1,0.1-0.1,0.1c0,0.1,0.1,0.3,0.1,0.6
	c0.3,1,0.4,2,0.4,3c0,0.5,0.1,0.9,0.1,1s0.1,0.2,0.3,0.3c0.2,0.1,0.4,0.1,0.5,0.1c0.1-0.1,0.3-0.2,0.5-0.5c0.2-0.3,0.4-0.4,0.4-0.3
	c0.1,0.1,0.1,0.4,0.1,1c0,0.6,0,1-0.2,1.2c-0.1,0.1-0.6,0.3-1.4,0.5c-0.7,0.1-1,0.2-1.1,0.2c-0.1,0-0.1,0-0.2,0.1c0,0,0,0.1,0,0.3
	c0,0.2,0.2,0.7,0.5,1.5c0.1,0.4,0.2,0.6,0.3,0.6c0.1,0,0.2-0.1,0.4-0.3c0.1-0.1,0.3-0.3,0.5-0.4c0.2-0.1,0.8-0.4,1.7-0.9
	c3-1.5,4.6-2.4,4.6-2.5c0-0.1-0.1-0.1-0.2-0.1c-0.1,0-0.5,0.1-1.2,0.3c-0.9,0.2-1.4,0.3-1.6,0.2c-0.2-0.1-0.2-0.4-0.1-1.1
	c0-0.3,0-0.6,0-0.9c0-0.4-0.1-1.3-0.1-2.6c0-1.3,0-2,0.1-2.1c0.1-0.1,0.2-0.2,0.3-0.2c0.1,0,0.6-0.1,1.2-0.1c0.7,0,1.2-0.1,1.4-0.1
	c0.2-0.1,0.2-0.2,0.1-0.5c-0.2-0.4,0-0.6,0.5-0.6c0.2,0,0.4-0.1,0.5-0.1c0.2-0.2,0.5-0.3,0.8-0.3c0.3,0,0.5,0.1,0.6,0.3
	c0.1,0.2,0.1,0.8,0,1.8c-0.1,1-0.2,1.6-0.3,1.9c-0.1,0.2-0.2,0.3-0.3,0.2c-0.1-0.1-0.2-0.4-0.3-0.8c-0.1-0.5-0.2-0.8-0.1-0.9
	c0-0.1,0.1-0.3,0.3-0.6c0,0,0,0,0-0.1c0.2-0.3,0.2-0.4,0.2-0.5c0,0-0.1-0.1-0.3-0.1c0,0-0.1,0-0.1,0c-0.2,0-0.3,0-0.4,0
	c0,0-0.1,0.2-0.1,0.5c0,0.3-0.1,0.5-0.1,0.6c-0.1,0.1-0.2,0.3-0.4,0.4c-0.2,0.2-0.4,0.3-0.6,0.3c-0.2,0-0.6-0.1-1.2-0.3
	c0,0-0.1,0-0.1,0c-0.4-0.1-0.6-0.2-0.6-0.1c0,0-0.1,0.2,0,0.5c0,0.1,0,0.1,0,0.2c0,1,0,2-0.2,3.1c-0.2,1-0.1,1.4,0.2,1.3
	c0.1,0,0.3-0.3,0.5-0.8c0.3-0.5,0.5-1.1,0.7-1.6c0.2-0.5,0.4-0.8,0.5-0.8c0.2-0.1,0.4,0,0.6,0.2c0.3,0.3,0.4,0.3,0.3,0
	c0-0.2,0-0.3,0.2-0.5c0.1-0.2,0.3-0.2,0.4-0.1c0.1,0,0.2,0.4,0.3,1.1c0.1,0.7,0.2,1.2,0.2,1.3c-0.1,0.8-0.5,1.8-1.2,3.1
	c-0.8,1.3-1.6,2.3-2.4,3C138,42.4,137.8,42.6,137.9,42.7z M147.1,39.5c-0.1,0.2-0.5,0.1-1.1-0.2c-0.6-0.3-1.2-0.7-1.6-1.2
	c-0.4-0.4-0.7-0.8-0.8-1.1c-0.1-0.3,0-0.6,0.2-0.9c0.1-0.2,0.3-0.3,0.3-0.2c0.1,0,0.2,0.2,0.3,0.5c0.1,0.1,0.1,0.2,0.2,0.2
	c0.1,0,0.2,0,0.3,0c1-0.3,1.6-0.3,1.9-0.1c0.3,0.2,0.4,0.9,0.3,2c0,0.4,0,0.7,0,0.8C147.1,39.4,147.1,39.5,147.1,39.5z M146.8,35.7
	c-0.1,0.1-0.4,0.1-0.9,0.1c-0.5,0-1-0.1-1.6-0.1c-0.2,0-0.3-0.1-0.3-0.3c0-0.2,0.1-0.6,0.2-1.2c0.2-0.8,0.4-1,0.7-0.7
	c0.1,0.1,0.1,0.1,0.2,0.1c0,0,0.1,0,0.3-0.1c0.8-0.3,1.3-0.3,1.6,0c0.1,0.2,0.2,0.5,0.1,1.1C147.1,35.2,147,35.6,146.8,35.7z
	 M146.8,32.6c-0.1,0.1-0.4,0.1-0.9,0.1c-0.5,0-0.8-0.1-1-0.2c-0.2-0.1-0.2-0.5-0.1-1.2c0.1-0.7,0.2-1.1,0.4-1.3
	c0.2-0.1,0.3-0.1,0.4,0c0,0,0.2,0.1,0.6,0.1c0.4,0,0.7,0.1,0.8,0.2c0.1,0.1,0.2,0.5,0.2,1.1c0,0.4,0,0.7,0,0.9
	C147,32.4,146.9,32.5,146.8,32.6z M138,30.1c-0.2,0.1-0.3,0.1-0.4-0.1c-0.1-0.2-0.1-0.7-0.1-1.4c0,0,0,0,0-0.1
	c0-0.7,0.1-1.1,0.2-1.2c0.1-0.1,0.5-0.2,1.1-0.2h0.1c0.5,0,0.8,0,0.9,0s0.2-0.1,0.3-0.2c0.1-0.1,0-0.3-0.3-0.7
	c-0.2-0.3-0.4-0.5-0.4-0.6c0-0.1,0.1-0.2,0.3-0.2c0.3,0,0.6-0.1,0.7-0.2c0.2-0.1,0.3-0.3,0.4-0.6c0.1-0.3,0-0.5-0.1-0.8
	c-0.1-0.3-0.1-0.5,0-0.6c0.1-0.1,0.4-0.2,1-0.3c0.4,0,0.6,0,0.6,0.2c0.1,0.2,0,0.6-0.2,1.3c-0.2,0.6-0.6,1.7-1.3,3.3
	c-0.4,1-0.7,1.5-0.8,1.7c-0.1,0.2-0.4,0.1-0.7-0.1c-0.2-0.1-0.3-0.2-0.4-0.1c-0.1,0-0.3,0.2-0.5,0.6C138.2,29.9,138,30,138,30.1z
	 M146.8,29.3c-0.3,0.2-0.6,0.2-0.9,0c-0.3-0.1-0.7-0.5-1.2-0.9c-0.4-0.4-0.7-0.6-0.8-0.7c-0.1-0.1-0.2,0-0.3,0.1
	c-0.2,0.4-0.5,0.6-0.7,0.8c-0.2,0.1-0.4,0.2-0.6,0c-0.1-0.1-0.1-0.3,0-0.5c0.1-0.3,0.3-0.8,0.6-1.6c0.1-0.2,0.2-0.4,0.3-0.8
	c0-0.1,0.1-0.2,0.1-0.3c0.3-0.9,0.6-1.5,0.7-1.8c0.2-0.3,0.3-0.5,0.5-0.5c0.3-0.1,0.5,0,0.6,0.2c0,0.1,0.1,0.2,0.2,0.2
	c0.1,0,0.2,0,0.6,0c0.5,0,0.9,0.1,1,0.2c0.1,0.1,0.2,0.5,0.2,1.1c0,0.5,0,0.8-0.1,1c-0.1,0.2-0.4,0.3-0.7,0.3c-0.3,0-0.9,0-1.9-0.1
	c0,0,0,0-0.1,0c-0.3,0-0.5,0-0.6,0s0,0.2,0.1,0.4c0,0,0,0.1,0,0.1c0.2,0.3,0.3,0.5,0.3,0.5c0.1,0,0.2,0,0.3,0
	c0.4-0.1,0.8-0.2,1.3-0.2c0.5,0,0.8,0,0.9,0.1c0.2,0.1,0.3,0.5,0.3,1.2C147.2,28.8,147,29.2,146.8,29.3z M149.8,29.4
	c-0.4,0-0.6-0.1-0.7-0.2c-0.1-0.2-0.1-0.5-0.1-1.1c0-0.6,0-0.9,0.1-1.1c0.1-0.2,0.3-0.2,0.7-0.2c0.4,0,0.6,0.1,0.7,0.2
	c0.1,0.1,0.1,0.5,0.1,1.1c0,0.4,0,0.7-0.1,0.9c0,0.1-0.1,0.2-0.2,0.3C150.2,29.4,150,29.4,149.8,29.4z M150.2,26.1
	c-0.8,0.4-1.2,0-1.2-1.2c0-0.5,0-0.9,0.1-1c0.1-0.2,0.3-0.2,0.6-0.2c0.3,0,0.5,0.2,0.7,0.6c0.2,0.4,0.2,0.7,0.2,1.1
	C150.6,25.7,150.5,25.9,150.2,26.1z M136.1,26.3c-0.5,0-0.9,0-1,0c-0.2-0.1-0.3-0.2-0.2-0.3c0-0.2,0.2-0.4,0.5-0.9
	c0.5-0.7,0.9-1.3,1.2-1.9c0.1-0.1,0.2-0.3,0.3-0.5c0-0.1,0.1-0.2,0.1-0.2c0.2-0.4,0.4-0.5,0.6-0.4c0.2,0.1,0.4,0.5,0.7,1.1
	c0.7,1.4,0.7,2,0.2,1.8c-0.2-0.1-0.4,0.1-0.6,0.4c-0.3,0.4-0.6,0.7-0.8,0.9C137,26.3,136.7,26.3,136.1,26.3z M169.4,34.4
	c0.1,0.2,0.2,0.3,0.4,0.3c0.2,0,0.5-0.2,0.9-0.6c0.9-0.7,1.6-1.6,2-2.8c0.4-1.1,0.4-2.1,0.1-2.9c-0.3-0.9-0.9-1.3-1.8-1.2
	c-0.6,0-1,0.3-1.3,0.7c-0.2,0.4-0.3,0.9-0.1,1.4c0.2,0.5,0.5,1,1.1,1.3c0.3,0.2,0.5,0.3,0.6,0.5c0.1,0.1,0.1,0.2,0.1,0.4
	c-0.1,0.4-0.3,0.8-0.6,1.3c-0.4,0.5-0.8,0.8-1.2,1.2c-0.2,0.1-0.3,0.2-0.3,0.3C169.3,34.1,169.3,34.3,169.4,34.4z M203.2,42.6
	c0.1,0.1,0.4,0,1-0.1c0.6-0.1,1-0.3,1.3-0.5c0.3-0.2,0.5-0.4,0.6-0.6c0.1-0.2,0.2-0.6,0.2-1.3c0-0.5,0-1.5,0-3c0-0.3,0-0.7,0-1.2
	c0-1,0-1.6,0-1.9c0-0.4,0.2-0.6,0.3-0.7c0.1-0.1,0.4-0.1,0.9-0.1c0.2,0,0.4,0,0.6,0c1.1,0,1.7-0.1,1.8-0.2c0.1-0.1-0.1-0.5-0.7-1.2
	c-0.5-0.6-0.9-0.9-1.1-1c-0.2,0-0.4,0.2-0.7,0.7c-0.2,0.4-0.4,0.6-0.5,0.7c-0.1,0.1-0.2,0.1-0.3,0.1c-0.3,0-0.4-0.3-0.4-1
	c0-0.7,0.1-1.1,0.4-1.2c0.2-0.1,0.2-0.3-0.1-0.5c-0.3-0.2-0.9-0.4-1.8-0.6c0,0-0.1,0-0.1,0c-0.3-0.1-0.5-0.1-0.6-0.1
	c0,0,0,0.2,0,0.4v0.1c0,0.5,0.1,1,0.1,1.5c0,0.1,0,0.2,0,0.4c0,0.4,0,0.7,0,0.8c-0.1,0.2-0.3,0.3-0.6,0.3c-0.2,0-0.7,0-1.6,0
	c-0.3,0-0.5,0-0.7,0c-2.2,0-3.8,0-4.8-0.1c-0.3,0-0.4,0-0.4,0c0,0,0.1,0.2,0.2,0.6c0,0,0,0.1,0,0.1c0.1,0.2,0.2,0.4,0.3,0.4
	c0.1,0,0.4,0,0.9-0.1c0.1,0,0.2,0,0.2,0c0.7-0.1,1.8-0.1,3.5-0.1s2.5,0,2.6,0.1c0.1,0.1,0.2,0.3,0.2,0.6c0,0.3,0,1.2,0,2.7
	c0,0.2,0,0.5,0,0.8c0,1.1,0,1.7,0,2c-0.1,0.4-0.2,0.6-0.5,0.7c-0.2,0-0.6,0-1.3,0c-0.2,0-0.4,0-0.5,0c-0.8,0-1.3-0.1-1.5,0
	c-0.1,0-0.2,0.1-0.1,0.2c0,0,0.1,0.1,0.4,0.1c1.5,0.2,2.3,0.9,2.5,1.9C203.2,42.5,203.2,42.6,203.2,42.6z M193.5,42.5
	c0.2,0.1,0.4,0.1,0.8,0c0.4-0.1,0.7-0.2,1-0.4l0,0c0.2-0.1,0.3-0.3,0.4-0.4c0-0.1,0-0.5,0-1c-0.1-2.3-0.1-5.3-0.1-9.2
	c0-1.7,0-3.3,0-4.9c-0.1-3,0-4.7,0.4-4.9c0.2-0.1,0.2-0.3,0-0.4c-0.2-0.1-0.8-0.3-1.8-0.6c-0.5-0.1-0.8-0.2-0.9-0.2
	c-0.1,0-0.1,0.1-0.1,0.3c0.1,0.8,0.2,2,0.2,3.8c0,1.8,0,2.8,0,2.9c-0.1,0.2-0.4,0.3-0.8,0.4c-0.5,0-0.8,0-1-0.1
	c-0.3-0.2-0.4-1-0.3-2.5s0.2-2.3,0.5-2.5c0.2-0.1,0.2-0.3,0-0.4c-0.3-0.1-0.8-0.3-1.7-0.6c-0.4-0.1-0.7-0.2-0.7-0.1
	c-0.1,0-0.1,0.1,0,0.4v0c0.1,0.9,0.2,2.3,0.2,4.3c0,1.6,0,2.6,0,3c0,0.4,0,0.6,0,0.7c0.1,0.1,0.3,0.1,0.6,0.1c0.9,0,1.3-0.4,1.4-0.9
	c0-0.4,0.3-0.7,0.9-0.9c0.6-0.1,1,0,1.2,0.4c0.1,0.1,0.1,0.7,0.1,1.6c0,0.9,0,1.4-0.1,1.6c-0.1,0.2-0.6,0.3-1.5,0.3
	c-0.9,0-2,0-3.5-0.1c-0.2,0-0.3,0-0.3,0c0,0,0.1,0.2,0.2,0.5c0.1,0.3,0.2,0.4,0.3,0.5c0,0,0.1,0,0.2,0c0.3-0.2,0.5-0.2,0.6-0.1
	c0.2,0.1,0.3,0.3,0.3,0.6c0.1,1.2,0,2.7-0.3,4.3c-0.3,1.6-0.6,2.8-1,3.7c-0.1,0.3-0.2,0.5-0.2,0.6s0.1,0.2,0.2,0.2
	c0.1,0,0.4-0.2,0.7-0.6c0.4-0.4,0.7-0.9,1-1.3c0.5-0.8,0.8-1.7,1-2.7c0.2-1,0.4-2.3,0.5-3.9c0-0.4,0.2-0.7,0.4-0.9
	c0.3-0.2,0.6-0.2,0.9,0c0.4,0.2,0.5,2.8,0.2,8c0,0.6,0,1,0,1.1C193.3,42.4,193.4,42.5,193.5,42.5z M200.4,38.4
	c0.5,0.2,0.8,0.1,1.1-0.2c0.2-0.3,0.3-0.7,0.2-1.2c-0.1-0.5-0.4-1-0.8-1.4c-0.4-0.4-0.8-0.7-1.4-1c-0.5-0.3-0.9-0.4-1.2-0.4
	c-0.3,0-0.4,0.1-0.1,0.4c0.8,1,1.4,2.1,1.7,3.1c0.1,0.3,0.1,0.4,0.2,0.5C200.1,38.3,200.2,38.4,200.4,38.4z M196,31.7
	c0,0.1,0.5,0,1.4-0.3c4.4-1.3,7.9-3.4,10.4-6.6c0.3-0.4,0.5-0.7,0.7-0.8c0.2-0.1,0.4-0.2,0.6-0.3c0.4-0.1,0.5-0.2,0.5-0.4
	c0-0.2-0.3-0.5-0.9-0.9s-0.9-0.7-1-0.7c-0.1,0-0.4,0.1-0.6,0.4c0,0,0,0-0.1,0.1c-0.3,0.3-0.5,0.4-0.7,0.5c-0.2,0-0.6,0.1-1.4,0.1
	c-0.1,0-0.1,0-0.2,0c-0.8,0-1.4,0-1.6,0c-0.2,0-0.3-0.1-0.3-0.2c0-0.1,0-0.3,0.2-0.6c0.2-0.2,0.4-0.4,0.6-0.4
	c0.4-0.1,0.4-0.2,0.1-0.3c-0.2-0.2-0.9-0.4-1.8-0.8l0,0c-0.4-0.1-0.7-0.2-0.8-0.2s-0.2,0.1-0.2,0.3c-0.3,0.9-0.9,1.9-1.8,3.1
	c-0.9,1.2-1.8,2.1-2.6,2.8c-0.2,0.2-0.4,0.3-0.4,0.4c0,0.1,0,0.1,0,0.2c0.1,0,0.4-0.1,1.2-0.4c0.4-0.2,0.6-0.2,0.8-0.2
	c0.2,0,0.4,0.2,0.6,0.6c0.4,0.5,0.6,0.9,0.7,1.4c0,0.1,0.1,0.2,0.2,0.3c0.1,0.1,0.3,0.1,0.5,0.2c0.4,0.1,0.2,0.4-0.4,0.8
	c-0.6,0.4-1.6,0.9-3,1.5c-0.4,0.1-0.6,0.2-0.6,0.3C196,31.6,196,31.7,196,31.7z M201.4,28.6c-0.3,0.1-0.4,0.2-0.4,0.1
	c0,0,0-0.2,0-0.6c0-0.4-0.1-0.8-0.4-1.1c-0.3-0.3-0.7-0.5-1.4-0.8c-0.3-0.1-0.4-0.3-0.3-0.6c0.1-0.3,0.5-0.5,1.1-0.8
	c0.2-0.1,0.6-0.1,1,0.2c0.4,0.3,0.8,0.7,1.2,1.2c0.1,0.2,0.2,0.3,0.3,0.3c0.1,0,0.2,0,0.5,0c0.2,0,0.3,0.1,0.2,0.3
	c-0.1,0.2-0.3,0.5-0.6,0.8C202.1,28.1,201.8,28.4,201.4,28.6z M203.9,26.3c-0.2,0.1-0.3,0.2-0.3,0.1c0,0,0-0.2,0-0.4
	c0-0.4-0.1-0.7-0.4-1c-0.3-0.3-0.7-0.5-1.2-0.7c-0.3-0.1-0.5-0.2-0.6-0.2c-0.1-0.1-0.1-0.2,0-0.3c0.1-0.1,0.3-0.2,0.5-0.3
	c0.2,0,0.8,0,1.8,0c0.8,0,1.3,0,1.5,0c0.3,0,0.5,0,0.5,0.1c0,0,0.1,0.1,0,0.3c0,0.2-0.3,0.6-0.7,1.2
	C204.6,25.8,204.2,26.2,203.9,26.3z M220.4,42.6c0.3,0.2,0.7,0.1,1.3-0.1c0.6-0.2,0.8-0.5,0.8-0.8c0,0,0-0.1,0-0.2
	c0-0.2,0-0.4,0.1-0.5c0.1-0.1,0.4-0.2,1-0.2c0.4,0,1.2,0,2.6,0c0.3,0,0.5,0,0.7,0c0.2,0,0.5,0,0.9,0c1.3,0,2.1,0,2.5,0
	c0.5,0,0.8,0.1,0.9,0.2c0.1,0.1,0.1,0.3,0.1,0.5c0,0.1,0,0.1,0,0.2c0,0.4,0,0.6,0.2,0.7c0.2,0.1,0.5,0.1,1-0.1
	c0.6-0.2,0.9-0.4,1-0.6c0.1-0.2,0.2-0.7,0.1-1.5c-0.2-4.8-0.1-7.2,0.4-7.2c0,0,0.1,0,0.3-0.1c0.1-0.1,0.2-0.2,0.2-0.2
	c0-0.1-0.2-0.3-0.7-0.7c-0.5-0.4-0.9-0.7-1.2-0.9c-0.1-0.1-0.3-0.1-0.4,0c-0.1,0-0.3,0.2-0.6,0.5c0,0-0.1,0.1-0.1,0.2
	c-0.2,0.2-0.5,0.4-0.7,0.4c-0.3,0-1.2,0-2.8,0c-0.5,0-0.9,0-1.2,0c-0.3,0-0.7,0-1.2,0c-1.5,0-2.4,0-2.7,0c-0.3,0-0.7-0.2-1.2-0.4
	c-0.2-0.1-0.3-0.1-0.5-0.2c0,0-0.1,0-0.2-0.1c-0.5-0.2-0.7-0.3-0.8-0.3c-0.1,0-0.1,0.2,0,0.5c0,0.1,0,0.1,0,0.1
	c0.1,1.1,0.2,2.6,0.2,4.5c0,1.9,0,3.6-0.1,5.1c0,0.4,0,0.7,0,0.8C220.2,42.5,220.3,42.6,220.4,42.6z M230.9,40.2
	c-0.1,0.1-1.5,0.1-4,0.1c-2.6,0-3.9,0-4-0.1c-0.2-0.1-0.3-0.2-0.3-0.4c0-0.2,0-0.6,0-1.2c0-0.1,0-0.3,0-0.5c0-0.4,0-0.7,0.1-0.9
	c0.1-0.2,0.4-0.3,0.8-0.3c0.3,0,1.1,0,2.3,0c0.5,0,0.9,0,1.2,0c0.3,0,0.7,0,1.2,0c1.2,0,1.9,0,2.3,0c0.4,0,0.7,0.2,0.8,0.3
	c0.1,0.1,0.1,0.4,0.1,0.9c0,0.2,0,0.4,0,0.5c0,0.7,0,1.1,0,1.3C231.2,40,231.1,40.1,230.9,40.2z M226.9,36.2c-2.6,0-4,0-4.1-0.1
	c-0.1-0.1-0.2-0.2-0.2-0.4c0-0.2,0-0.6,0-1.2c0-0.1,0-0.2,0-0.4c0-0.4,0-0.7,0.1-0.8c0.1-0.1,0.4-0.2,0.8-0.3c0.3,0,1.1,0,2.3,0
	c0.5,0,0.9,0,1.2,0c0.3,0,0.7,0,1.2,0c1.2,0,1.9,0,2.3,0c0.4,0,0.7,0.1,0.8,0.3c0.1,0.1,0.1,0.4,0.1,0.8c0,0.2,0,0.3,0,0.4
	c0,0.6,0,1,0,1.2c0,0.2-0.1,0.3-0.2,0.4C230.9,36.2,229.5,36.2,226.9,36.2z M216.9,30c0.1,0,0.1,0.1,0.2,0c0,0,0.1,0,0.2,0
	c0.7-0.1,1.2-0.2,1.5-0.2c0.3,0,3.4-0.1,9.4-0.1c0.4,0,0.9,0,1.6,0c2.8,0,4.6,0,5.3,0c1,0,1.7,0,2-0.1c0.2,0,0.3-0.1,0.3-0.2
	c0,0,0-0.1,0-0.1c0-0.1-0.1-0.3-0.5-0.6c-0.3-0.3-0.7-0.7-1.2-1l0,0c-0.4-0.3-0.6-0.4-0.7-0.4c-0.1,0-0.3,0.2-0.6,0.7
	c0,0-0.1,0.1-0.1,0.1c0,0-0.1,0.1-0.1,0.2c-0.3,0.4-0.5,0.6-0.7,0.6c-0.2,0.1-0.6,0.1-1.4,0.1c-0.2,0-0.3,0-0.4,0
	c-0.9,0-1.4,0-1.6,0c-0.3,0-0.4-0.2-0.3-0.3c0-0.1,0.3-0.4,0.7-0.8c0.2-0.2,0.6-0.6,1.2-1.3c0,0,0.1-0.1,0.1-0.1
	c0.4-0.5,0.6-0.7,0.7-0.8c0.1-0.1,0.2-0.2,0.3-0.2c0.2-0.1,0.3-0.1,0.3-0.2c0-0.1-0.2-0.2-0.5-0.3c-0.6-0.3-0.8-0.5-0.6-0.6
	c0.2-0.1,1-0.1,2.4-0.1c1.1,0,1.8,0,2,0c0.2,0,0.3-0.1,0.4-0.2c0.1-0.2-0.3-0.7-1.3-1.4l0,0c-0.5-0.4-0.8-0.6-1-0.6
	c-0.1,0-0.4,0.3-0.7,0.7l0,0c0,0-0.1,0.1-0.1,0.2c-0.2,0.4-0.5,0.6-0.7,0.6c-0.2,0-0.8,0.1-1.8,0.1c-0.2,0-0.4,0-0.5,0
	c-1.1,0-1.7,0-1.9,0c-0.2,0-0.3-0.1-0.4-0.1c-0.2-0.2-0.2-0.5-0.2-0.9s0.2-0.7,0.4-0.9c0.2-0.2,0.2-0.3-0.1-0.4
	c-0.2-0.1-0.8-0.3-1.7-0.5c0,0-0.1,0-0.2,0c-0.4-0.1-0.7-0.2-0.7-0.1c-0.1,0-0.1,0.2-0.1,0.5c0,0.1,0,0.1,0,0.1c0,0.1,0,0.3,0,0.5
	c0,0.7,0,1.1,0,1.3c-0.1,0.3-0.3,0.4-0.6,0.5c-0.3,0-0.9,0-1.9,0c-0.3,0-0.5,0-0.7,0c-2.2,0-3.8,0-4.7-0.1c-0.2,0-0.3,0-0.4,0
	c0,0,0.1,0.2,0.2,0.5c0,0,0,0,0,0.1c0.1,0.2,0.2,0.4,0.3,0.4c0.1,0,0.3,0,0.5,0c0.1,0,0.1,0,0.2,0c2-0.3,2.9-0.3,2.9,0
	c0,0.1,0.1,0.3,0.2,0.6c0.4,0.8,0.7,1.6,0.9,2.4s0.3,1.4,0.1,1.5c-0.1,0.1-0.9,0.1-2.4,0.1c-1.5,0-2.7,0-3.6-0.1c-0.2,0-0.4,0-0.4,0
	c0,0,0.1,0.2,0.2,0.5S216.8,29.9,216.9,30z M228.3,29c-0.2,0.1-0.8,0.1-1.9,0.1c-1.1,0-1.6-0.1-1.7-0.1c-0.1-0.1-0.1-0.1-0.1-0.2
	c0-0.1,0-0.2,0.1-0.4c0.2-0.5,0.2-1.1-0.1-1.7c-0.3-0.6-0.7-1.1-1.4-1.6l0,0c-0.5-0.3-0.8-0.6-0.8-0.6c0-0.1,0.2-0.2,0.7-0.2
	c0.4,0,1.4,0,2.9,0c0.2,0,0.4,0,0.7,0c1.2,0,2,0,2.3,0c0.4,0,0.7,0.1,0.8,0.2c0,0.1,0,0.3,0,0.6c0,0.1,0,0.1,0,0.1
	c-0.3,1-0.5,1.8-0.8,2.6C228.7,28.5,228.5,28.9,228.3,29z M250.5,42.1c0.9,0.1,3.1,0.1,6.4,0c3.4,0,5.3-0.1,5.9-0.2
	c0.7-0.1,1.3-0.3,1.8-0.6c0.4-0.3,0.7-0.6,0.7-0.9c0-0.3-0.2-0.6-0.7-0.8c-0.4-0.2-0.6-0.4-0.6-0.6s-0.1-0.8-0.1-1.7s0-1.5-0.1-1.6
	c-0.1-0.1-0.2,0.1-0.4,0.7c0,0.1-0.1,0.3-0.1,0.5c-0.3,1.1-0.6,1.8-0.8,2.1c-0.3,0.4-0.9,0.7-1.8,0.8c-0.6,0.1-2,0.1-4.2,0.1
	c-0.4,0-0.7,0-0.9,0c-0.4,0-1,0-1.7,0c-1.9,0-3,0-3.5-0.1c-0.7-0.1-1.1-0.3-1.3-0.6c-0.1-0.3-0.2-0.8-0.1-1.8c0-0.4,0-0.7,0-0.9
	c0-0.1,0-0.2,0-0.4c0-1,0-1.6,0-1.8c0-0.2,0.1-0.3,0.3-0.4l0,0c0.1-0.1,1.9-0.1,5.2-0.1c3.4,0,5.2,0,5.3,0.1
	c0.1,0.1,0.2,0.1,0.3,0.2c0,0.1,0.1,0.2,0.1,0.5c0,0.4,0.1,0.6,0.2,0.7c0.1,0.1,0.4,0.1,0.8,0c0.5-0.1,0.8-0.2,1-0.3
	c0.2-0.1,0.3-0.3,0.3-0.6c0-0.2,0-0.6,0-1.3c-0.1-2-0.1-3.3,0-3.8c0-0.5,0.2-0.9,0.4-1c0.4-0.2,0.5-0.4,0.5-0.5
	c0-0.2-0.3-0.4-0.8-0.9c-0.6-0.5-1-0.8-1.2-0.8c-0.2,0-0.4,0.1-0.7,0.4c0,0-0.1,0.1-0.1,0.2c-0.3,0.3-0.5,0.5-0.7,0.5
	c-0.2,0-0.7,0.1-1.6,0.1c-0.2,0-0.3,0-0.4,0c-1,0-1.7,0-2,0c-0.4,0-0.5-0.2-0.5-0.3c0-0.1,0.3-0.4,0.7-0.7c0.6-0.5,1.1-1,1.3-1.2
	c0.6-0.6,1.1-0.9,1.4-1c0.3-0.1,0.4-0.2,0.4-0.3c0-0.1-0.3-0.4-0.7-0.8c-0.6-0.6-1-0.9-1.2-1c-0.2-0.1-0.5,0.1-0.8,0.5
	c0,0-0.1,0.1-0.1,0.1c-0.3,0.3-0.5,0.5-0.7,0.5c-0.2,0-0.7,0.1-1.5,0.1c-0.2,0-0.3,0-0.4,0c-1,0-1.6,0-1.8,0c-0.2,0-0.3-0.1-0.3-0.3
	c0-0.2,0.1-0.5,0.3-0.9c0.3-0.4,0.5-0.6,0.7-0.7c0.6-0.1-0.2-0.5-2.1-1.1c-0.4-0.1-0.6-0.2-0.7-0.1c-0.1,0-0.1,0.1-0.2,0.3
	c-0.3,1.4-1,3-2,4.8c-1,1.8-2.2,3.3-3.5,4.7c-0.3,0.3-0.5,0.5-0.5,0.6c0,0.1,0,0.1,0.2,0.1c0.2,0,0.8-0.4,1.9-1.2
	c0.3-0.2,0.5-0.3,0.6-0.4c0.1,0,0.2,0,0.3,0.1c0,0,0.1,0.3,0.1,0.8c0,0.4,0,1.9,0,4.3c0,0.1,0,0.1,0,0.1c0,2.7,0,4.2,0,4.7
	c0,0.5,0.1,0.9,0.2,1.2l0,0C247.6,41.4,248.7,42,250.5,42.1z M258.1,33.3c-1.2,0-1.9,0-2.1-0.1c-0.2-0.1-0.3-0.2-0.3-0.5
	c0-0.3,0-0.9,0-2.1c0-0.2,0-0.4,0-0.7c0-0.7,0-1.1,0-1.3c0-0.3,0.2-0.4,0.4-0.5c0.2,0,0.6-0.1,1.2-0.1c0.3,0,0.5,0,0.6,0
	s0.4,0,0.7,0c0.6,0,1,0,1.2,0c0.2,0.1,0.4,0.2,0.5,0.5c0,0.2,0.1,0.6,0,1.3c0,0.3,0,0.5,0,0.7c0,1.1,0,1.8,0,2
	c0,0.2-0.1,0.4-0.2,0.5C260,33.2,259.4,33.3,258.1,33.3z M251.4,33.3c-1.2,0-1.9,0-2-0.1c-0.2-0.2-0.3-1-0.3-2.5
	c0-1.5,0.1-2.3,0.3-2.5c0.1-0.1,0.8-0.1,2-0.1c1.2,0,1.9,0,2,0.1c0.2,0.2,0.3,1,0.3,2.4c0,1.5-0.1,2.3-0.3,2.4
	C253.3,33.2,252.6,33.3,251.4,33.3z M251.7,27.4c-1.5,0-2.3,0-2.4-0.1c-0.4-0.1-0.5-0.3-0.5-0.4c0-0.2,0.3-0.6,0.7-1.1
	c0.2-0.2,0.5-0.6,0.9-1.1c0,0,0.1-0.1,0.1-0.2c0.2-0.3,0.4-0.5,0.6-0.6c0.2,0,0.7-0.1,1.6-0.1c0.2,0,0.4,0,0.5,0c1,0,1.6,0,1.9,0
	c0.4,0,0.6,0.2,0.6,0.3c0,0.1,0,0.4-0.2,0.8c-0.6,1.4-1.1,2.1-1.4,2.3C254,27.4,253.2,27.4,251.7,27.4z M285.2,42.6
	c0.3,0.2,0.7,0.2,1.2,0c0.5-0.2,0.7-0.5,0.7-0.8c0-0.3,0.1-0.5,0.2-0.6c0.2-0.1,0.6-0.1,1.2-0.1s1,0,1.2,0.1
	c0.2,0.1,0.3,0.3,0.3,0.6c0,0.3,0.2,0.4,0.5,0.4c0.3,0,0.8-0.1,1.3-0.4c0.2-0.1,0.3-0.2,0.4-0.3c0-0.1,0-0.4,0-1
	c-0.1-1.9-0.1-3.6-0.1-5.3c0-0.8,0-1.2,0.1-1.4c0.1-0.2,0.2-0.4,0.5-0.5c0.2-0.1,0.2-0.2,0.1-0.4c-0.1-0.2-0.3-0.4-0.7-0.7
	c-0.3-0.2-0.4-0.4-0.5-0.5c0-0.1,0-0.4,0-0.7c0.1-0.5-0.2-1-0.9-1.5c-0.4-0.3-0.5-0.4-0.3-0.5c0.1-0.1,0.7-0.1,1.6-0.1
	c1.1,0,1.7-0.1,1.8-0.3c0.1-0.2-0.3-0.6-1.1-1.4c-0.4-0.4-0.7-0.6-0.8-0.6c-0.1,0-0.4,0.3-0.7,0.7c-0.4,0.7-0.8,0.9-1,0.7
	c-0.1-0.1-0.1-0.2-0.1-0.3c0.1-0.1,0.2-0.4,0.5-0.9c0.7-1.1,1.3-2.1,1.7-2.9c0.2-0.5,0.4-0.8,0.5-0.9c0.1-0.2,0.3-0.3,0.4-0.3
	c0.4-0.1,0.6-0.3,0.5-0.5s-0.5-0.5-1.3-0.8c0,0-0.1,0-0.2-0.1c-0.6-0.2-0.9-0.3-1-0.3c-0.1,0-0.3,0.4-0.4,1c0,0.1,0,0.2,0,0.2
	c-0.1,0.5-0.3,0.8-0.5,0.9c-0.2,0.1-0.4,0-0.7-0.3c-0.1-0.1-0.2-0.2-0.3-0.2s-0.2,0.1-0.3,0.3c-0.6,0.8-0.9,0.8-0.9-0.1
	c0-0.6,0-1,0.3-1.2c0.2-0.1,0.2-0.3,0.1-0.4s-0.4-0.2-0.9-0.4c-0.8-0.2-1.2-0.4-1.4-0.4c-0.2,0-0.2,0.1-0.2,0.3
	c0,0.3,0.1,0.8,0.1,1.5c0,0.7,0,1.1,0,1.2c0,0.2-0.2,0.4-0.6,0.5c-0.3,0.1-0.8,0.1-1.3,0c-0.1,0-0.2,0-0.3,0c0,0,0,0.1,0,0.2
	c0.1,0.2,0.1,0.3-0.1,0.3c-0.2,0-0.5-0.2-0.9-0.5c-0.2-0.2-0.4-0.2-0.5-0.2c-0.1,0-0.3,0.3-0.6,0.7c-0.4,0.5-0.6,0.7-0.8,0.8
	c-0.1,0-0.7,0-1.6,0c-0.9,0-1.6-0.1-1.9-0.1c-0.4,0-0.6,0-0.6,0c0,0,0,0.2,0.2,0.5c0,0,0,0,0,0.1c0.1,0.2,0.2,0.4,0.3,0.4
	s0.4,0,0.9-0.1c0.1,0,0.2,0,0.2,0s1,0,2.8-0.1c0.1,0,0.2,0,0.4,0c1,0,1.6,0,1.8,0c0.4,0,0.6-0.1,0.7-0.1c0.1,0,0.1-0.1,0.1-0.3
	c0,0,0-0.1,0-0.1c0-0.3,0.3-0.5,0.9-0.6c0.4,0,0.6,0.1,0.6,0.2c0.1,0.2,0.1,0.7,0.1,1.5c0,0.1,0,0.1,0,0.2c0,0.8-0.1,1.2-0.2,1.3
	c-0.1,0.1-0.4,0.2-1.1,0.2c-0.1,0-0.2,0-0.2,0c-0.6,0-1,0-1.1-0.1c-0.2-0.1-0.4-0.3-0.9-0.6l0,0c0,0-0.1-0.1-0.2-0.1
	c-0.2-0.2-0.4-0.3-0.5-0.3c-0.1,0-0.2,0.1-0.4,0.4c0,0-0.1,0.1-0.1,0.1c-0.3,0.4-0.7,0.7-1.2,0.8c-0.5,0.1-1.3,0-2.4-0.1
	c-0.2,0-0.2,0-0.2,0c0,0,0.1,0.2,0.2,0.6s0.3,0.5,0.3,0.5c0,0,0.2,0,0.4,0c0.1,0,0.2,0,0.3,0c0.8-0.1,2.4-0.2,4.8-0.2
	c0.1,0,0.3,0,0.6,0c1.2,0,2,0,2.3,0c0.4,0,0.6,0.2,0.6,0.4c0,0.2-0.3,0.5-0.8,1.2c-0.1,0.1-0.1,0.2-0.2,0.3
	c-1.1,1.5-1.9,2.4-2.3,2.8c-0.4,0.4-0.9,0.4-1.2,0.1c-0.2-0.1-0.3-0.2-0.4-0.2s-0.2,0.1-0.4,0.3c-0.4,0.4-0.8,0.6-1.3,0.6
	c-0.5,0-1.2-0.2-2.1-0.6c-0.1,0-0.2-0.1-0.3-0.1c-0.4-0.2-0.7-0.3-0.7-0.3c-0.1,0-0.1,0.1-0.1,0.2c0,0,0,0.1,0,0.1
	c0.1,1.5,0.2,3,0.2,4.5c0,1.5,0,2.5-0.1,3.1c0,0.6,0,1,0.1,1.1c0.1,0.1,0.3,0.2,0.7,0.1c0.4-0.1,0.8-0.2,0.9-0.3
	c0.2-0.2,0.3-0.4,0.3-0.9c0-0.4,0.1-0.7,0.2-0.8c0.1-0.1,0.4-0.1,0.8-0.1c0.7,0,1,0.2,1,0.7c0,0.2,0.1,0.3,0.4,0.3
	c0.3,0,0.6-0.1,1.1-0.3c0,0,0,0,0.1,0c0.2-0.1,0.3-0.2,0.4-0.3c0-0.1,0-0.5,0-1.2c0-0.1,0-0.2,0-0.2c-0.1-1.8-0.1-2.9,0-3.4
	c0.1-0.5,0.2-0.8,0.5-1c0.2-0.1,0.3-0.2,0.1-0.3c-0.3-0.2-0.2-0.6,0.4-1c0.2-0.2,0.4-0.3,0.5-0.3c0.1,0,0.2,0,0.3,0.1
	c0.1,0.1,0.1,1,0.1,2.6c0,1.7,0,3.3-0.1,5c0,0.6,0,0.9,0,1.1C285,42.5,285.1,42.6,285.2,42.6z M273.9,42.6c0.2,0.1,0.5,0.1,1-0.1
	c0.5-0.1,0.8-0.3,1-0.5c0-0.1,0.1-0.1,0.1-0.2c0-0.1,0-0.4,0-0.8c-0.1-2-0.1-4.9-0.1-8.7c0-0.2,0-0.4,0-0.7c0-1.6,0-2.5,0-2.8
	c0-0.3,0.1-0.5,0.3-0.6l0,0c0.1-0.1,0.2-0.2,0.1-0.2c0-0.1-0.1-0.2-0.4-0.5c-0.3-0.3-0.4-0.5-0.4-0.7c0-0.2,0.1-0.6,0.4-1.2
	c0.3-0.8,0.6-1.4,0.7-1.9c0.2-0.7,0.4-1.2,0.6-1.5c0.1-0.3,0.3-0.5,0.5-0.6c0.2-0.1,0.2-0.2-0.1-0.4c-0.2-0.1-0.8-0.3-1.5-0.6
	c0,0-0.1,0-0.1,0c-0.5-0.2-0.8-0.3-0.9-0.2c-0.1,0-0.2,0.1-0.2,0.3c0,0,0,0.1,0,0.1c-0.1,1.6-0.4,3.4-1,5.3
	c-0.5,1.9-1.1,3.8-1.9,5.6c-0.2,0.4-0.2,0.6-0.3,0.7c0,0.1,0,0.2,0.1,0.2c0.1,0,0.4-0.4,1-1.1c0.3-0.4,0.5-0.6,0.6-0.7
	c0.1-0.1,0.2,0,0.3,0.2c0.1,0.2,0.1,1.6,0,4.2c0,2.6-0.1,4.6-0.1,6c0,0.7-0.1,1.1,0,1.2C273.7,42.5,273.8,42.6,273.9,42.6z
	 M288.3,40.5c-0.6,0-1-0.1-1.1-0.2c-0.1-0.1-0.1-0.6-0.1-1.3c0-0.1,0-0.2,0-0.2c0,0,0-0.1,0-0.2c0-0.8,0-1.2,0.1-1.3
	c0.1-0.1,0.5-0.2,1.1-0.2c0.1,0,0.1,0,0.2,0c0,0,0.1,0,0.2,0c0.6,0,1,0.1,1.1,0.2c0.1,0.1,0.2,0.6,0.2,1.3c0,0.1,0,0.1,0,0.2
	c0,0.7,0,1.1,0,1.2c0,0.2-0.1,0.3-0.2,0.4c-0.1,0-0.5,0.1-1.1,0.1C288.5,40.5,288.4,40.5,288.3,40.5z M280.2,39.9
	c-0.4,0-0.6,0-0.7-0.1c-0.1-0.1-0.2-0.3-0.3-0.6c0-0.2,0-0.7,0-1.6c0-0.1,0-0.1,0-0.2s0-0.1,0-0.2c0-0.8,0-1.3,0-1.6
	c0-0.3,0.1-0.5,0.3-0.6c0.1,0,0.3-0.1,0.7-0.1h0.1h0c0.4,0,0.6,0,0.7,0.1c0.1,0.1,0.2,0.3,0.3,0.6c0,0.2,0,0.7,0,1.6
	c0,0.1,0,0.1,0,0.2c0,1,0,1.6,0,1.8c0,0.2-0.1,0.4-0.2,0.5C280.9,39.8,280.7,39.9,280.2,39.9L280.2,39.9z M288.4,36.5
	c-0.7,0-1.1-0.1-1.2-0.2s-0.2-0.6-0.2-1.4c0,0,0-0.1,0-0.1c0,0,0-0.1,0-0.1c0-0.7,0-1.2,0.1-1.3c0.1-0.1,0.5-0.2,1.2-0.2
	c0,0,0.1,0,0.1,0c0,0,0.1,0,0.1,0c0.7,0,1,0.1,1.1,0.2c0.1,0.1,0.2,0.5,0.2,1.3c0,0.1,0,0.1,0,0.1c0,0.7,0,1.1,0,1.2
	c0,0.2-0.1,0.3-0.3,0.3C289.4,36.4,289.1,36.5,288.4,36.5L288.4,36.5z M289.5,32.5c-0.2,0-0.5,0.1-1.1,0c-0.6,0-1,0-1.2-0.1
	c-0.4-0.1-0.6-0.3-0.6-0.5c0-0.2,0.3-0.5,0.7-1.1c0.6-0.7,1-1,1.2-1c0.2,0,0.5,0.2,0.8,0.8c0.4,0.6,0.6,1,0.6,1.3
	C290,32.2,289.8,32.4,289.5,32.5z M278,32.4c0,0,0.1,0,0.1,0l0,0c0.3-0.1,0.5-0.2,0.8-0.2c0.3,0,1,0,2.1,0c1.2,0,1.9,0,2.1,0
	c0.2,0,0.4-0.1,0.4-0.2c0.1-0.2-0.2-0.6-0.9-1.2c-0.4-0.4-0.7-0.5-0.8-0.5c-0.1,0-0.3,0.2-0.6,0.6c-0.3,0.4-0.5,0.6-0.6,0.7
	c-0.1,0.1-0.4,0.1-0.8,0.1c-0.9,0-1.6,0-2.2-0.1c-0.1,0-0.2,0-0.2,0c0,0,0.1,0.2,0.2,0.5C277.8,32.2,277.9,32.3,278,32.4z M288.4,27
	c-0.2,0.3-0.4,0.4-0.5,0.2c-0.1-0.1-0.1-0.6-0.1-1.2c0-0.5,0-0.9,0.1-1c0.1-0.1,0.3-0.2,0.7-0.2c0.4,0,0.6,0.2,0.6,0.6
	C289.2,25.8,288.9,26.3,288.4,27z M278.2,23.1c0.1,0,0.2,0,0.4,0c0.7-0.1,1.7-0.2,3-0.2c0.9,0,1.5,0,1.7-0.1
	c0.2-0.1,0.3-0.2,0.2-0.4c0-0.1-0.2-0.3-0.6-0.6c-0.3-0.4-0.6-0.6-0.8-0.7c-0.2-0.2-0.4-0.2-0.5-0.2c-0.1,0-0.3,0.3-0.6,0.6
	c0,0-0.1,0.1-0.1,0.1c-0.3,0.4-0.5,0.6-0.8,0.6c-0.3,0-1.1,0-2.3-0.1h0c-0.2,0-0.3,0-0.3,0c0,0,0.1,0.2,0.2,0.5l0,0
	C278.1,22.9,278.2,23,278.2,23.1z M311.8,42.6c0.1,0.1,0.4,0.1,1-0.1c0.6-0.1,1-0.3,1.2-0.5c0.4-0.3,0.6-0.6,0.7-1.1
	c0.1-0.5,0.1-1.6,0.1-3.5c0-0.2,0-0.6,0-1c0-0.7,0-1.2,0-1.4c0.1-0.3,0.2-0.4,0.6-0.5c0.2,0,0.7,0,1.5,0c0.4,0,0.8,0,1.1,0
	c1.5,0,2.4,0,2.6,0c0.3,0,0.4-0.1,0.5-0.2c0-0.1-0.1-0.3-0.4-0.6c-0.3-0.3-0.6-0.6-1.1-1c0,0,0,0-0.1-0.1c-0.4-0.3-0.6-0.4-0.7-0.4
	c-0.1,0-0.3,0.3-0.7,0.7l0,0.1c0,0,0,0.1-0.1,0.1c-0.3,0.4-0.5,0.6-0.6,0.7c-0.1,0.1-0.5,0.1-1,0.1c0,0-0.1,0-0.1,0
	c-0.7,0-1.1,0-1.3-0.1c-0.1-0.1-0.2-0.4-0.2-0.8c0-0.5,0.1-0.8,0.4-1c0.2-0.1,0.3-0.2,0.3-0.3c0-0.1,0-0.2-0.1-0.2
	c-0.3,0-0.3-0.1-0.1-0.3c0.2-0.2,0.6-0.5,1.2-0.8c0.5-0.3,1-0.6,1.5-0.9c0.5-0.3,0.9-0.5,1.3-0.6c0.5-0.1,0.2-0.7-0.9-1.7
	c0,0-0.1,0-0.1-0.1c-0.3-0.3-0.6-0.5-0.7-0.5c-0.1,0-0.3,0.1-0.6,0.4c0,0-0.1,0.1-0.1,0.1c0,0-0.1,0.1-0.2,0.2
	c-0.3,0.3-0.5,0.5-0.8,0.5c-0.2,0-1,0-2.2,0c-0.4,0-0.6,0-0.8,0c-2.3,0-3.9,0-4.8-0.1c-0.2,0-0.3,0-0.4,0c0,0,0.1,0.2,0.2,0.5
	c0,0,0,0,0,0.1c0.1,0.2,0.2,0.4,0.3,0.4c0.1,0,0.3,0,0.5,0c0.1,0,0.1,0,0.2,0c0.9-0.1,2.2-0.2,3.9-0.2c1.1,0,1.8,0,2.1,0
	c0.4,0,0.6,0.2,0.5,0.4c0,0.2-0.3,0.5-0.8,1c-0.5,0.6-0.8,0.9-1,1c-0.2,0.1-0.5,0.2-0.8,0.2c0,0,0,0-0.1,0c-0.2,0-0.3,0-0.4,0.1
	c0,0.1,0,0.4,0,0.8c0,0.1,0,0.1,0,0.2c0,0,0,0.1,0,0.2c0,0.5,0,0.8-0.1,0.9c0,0.2-0.2,0.3-0.4,0.3c-0.2,0-0.6,0-1.2,0
	c-0.1,0-0.2,0-0.3,0c-1.7,0-3,0-3.9-0.1c-0.3,0-0.4,0-0.4,0c0,0,0.1,0.2,0.2,0.6c0,0,0,0,0,0.1c0.1,0.2,0.2,0.4,0.3,0.4
	c0.1,0,0.3,0,0.7,0c0.1,0,0.2,0,0.3,0c0.8-0.1,1.7-0.2,2.7-0.2c1,0,1.6,0,1.8,0.1c0.1,0.1,0.2,0.2,0.2,0.5c0,0.2,0,1,0,2.3
	c0,0.1,0,0.3,0,0.6c0,0.9,0,1.4,0,1.7c-0.1,0.3-0.2,0.5-0.5,0.6c-0.2,0-0.6,0-1.2,0c-0.2,0-0.3,0-0.4,0c-0.7,0-1.1-0.1-1.3-0.1
	c-0.1,0-0.2,0.1-0.2,0.1c0,0.1,0.1,0.1,0.3,0.2c0.8,0.2,1.3,0.4,1.7,0.7c0.4,0.3,0.6,0.8,0.7,1.4l0,0L311.8,42.6z M303.3,42.6
	c0.2,0.1,0.6,0.1,1,0c0.4-0.1,0.8-0.3,1-0.5l0,0c0.1,0,0.1-0.2,0.1-0.3c0-0.2,0-0.7,0-1.6c0-0.5,0-0.8,0-1.2c0-1.1-0.1-2.9,0-5.3
	c0-2.4,0-3.6,0.1-3.7c0.1-0.2,0.2-0.4,0.6-0.6c0.1-0.1,0.1-0.1,0.1-0.2c0-0.1,0.2-0.5,0.6-1.2c0.5-0.9,0.9-1.5,1-1.8
	c0.3-0.5,0.5-0.8,0.6-0.9c0.1,0,0.4-0.1,1-0.1c0.5,0,2.2,0,4.9,0c0.1,0,0.2,0,0.2,0c0.3,0,0.8,0,1.3,0c2.4,0,3.9,0,4.3,0
	c0.4,0,0.6-0.1,0.7-0.2l0,0c0.1-0.2-0.4-0.8-1.5-1.6c0,0-0.1,0-0.1-0.1c-0.5-0.3-0.8-0.5-0.9-0.4c-0.1,0-0.4,0.3-0.8,0.9
	c0,0.1-0.1,0.1-0.1,0.2c0,0-0.1,0.1-0.1,0.2c-0.2,0.2-0.4,0.4-0.7,0.4c-0.3,0-1.1,0-2.6,0c-0.4,0-0.8,0-1.1,0c-0.2,0-0.5,0-0.9,0
	c-1.3,0-2.1,0-2.4,0c-0.5,0-0.7-0.1-0.8-0.3c0-0.1,0-0.4,0.2-0.8c0.1-0.1,0.1-0.3,0.1-0.3c0.3-0.7,0.5-1.1,0.7-1.2
	c0.4-0.1,0.4-0.2,0.1-0.4c-0.3-0.2-0.9-0.5-2-0.8c0,0-0.1,0-0.2,0c-0.4-0.1-0.6-0.2-0.6-0.2c-0.1,0-0.1,0.1-0.1,0.3
	c-0.1,0.8-0.2,1.6-0.5,2.4c-0.2,0.8-0.5,1.2-0.7,1.3c-0.2,0.1-1,0.1-2.4,0.1c-1.4,0-2.5-0.1-3.3-0.1c-0.3,0-0.4,0-0.4,0
	c0,0,0.1,0.2,0.2,0.6v0c0.1,0.2,0.2,0.4,0.3,0.4c0.1,0,0.4,0,0.8,0c0.1,0,0.2,0,0.2,0c0.8-0.1,1.6-0.2,2.5-0.2c0.9,0,1.4,0,1.6,0.1
	c0.2,0.1,0.2,0.3,0.2,0.6c-0.1,0.3-0.3,0.8-0.7,1.7c-0.3,0.6-0.5,0.9-0.7,1.1c-0.2,0.1-0.4,0.2-0.7,0.1c-0.2,0-0.3,0-0.3,0.1
	c0,0.1,0,0.3,0,0.8c0,0.6-0.2,1.3-0.6,2c-0.4,0.7-1.2,1.6-2.3,2.7c-0.3,0.3-0.5,0.5-0.5,0.6c0,0.1,0,0.2,0,0.2
	c0.1,0,0.4-0.1,0.9-0.5c0.5-0.4,1-0.7,1.5-1.2c0.3-0.3,0.5-0.4,0.6-0.4c0.1,0,0.2,0,0.3,0.2c0.1,0.2,0.1,1.2,0.1,3.1
	c0,1.9-0.1,3.5-0.2,5c-0.1,1,0,1.5,0.1,1.5C303.2,42.6,303.3,42.6,303.3,42.6z M21.2,66.5c0.1,0.1,0.2,0.1,0.2,0
	c0.1,0,0.3-0.2,0.6-0.5c2.2-2.3,3.6-5.6,4.1-9.7c0-0.1,0-0.2,0-0.3c0.1-0.9,0.2-1.4,0.3-1.5c0.1-0.1,0.4-0.2,0.9-0.2
	c0.1,0,0.1,0,0.2,0c0,0,0.1,0,0.1,0c0.4,0,0.7,0,0.8,0.1c0.2,0.1,0.3,0.3,0.3,0.7c0,0.3,0,1,0,2c0,0.2,0,0.3,0,0.4
	c-0.1,2.1-0.2,3.6-0.3,4.4c-0.2,0.9-0.4,1.5-0.8,1.8c-0.3,0.2-0.9,0.3-1.7,0.3c0,0-0.1,0-0.2,0c-0.5,0-0.8,0-0.9,0
	c-0.1,0-0.1,0.1-0.1,0.2c0,0.1,0.1,0.1,0.2,0.2l0,0c0.6,0.2,1,0.4,1.3,0.7c0.3,0.3,0.4,0.7,0.4,1.1c0,0.2,0,0.3,0.1,0.3
	c0.1,0,0.2,0.1,0.4,0c0.9-0.1,1.6-0.4,2.1-0.9c0.5-0.5,0.8-1.5,1.1-2.9c0.2-1.3,0.4-3.3,0.5-6c0,0,0,0,0-0.1c0-1,0.1-1.6,0.1-1.6
	c0.1-0.2,0.3-0.3,0.5-0.5c0.2-0.1,0.3-0.2,0.2-0.3c0-0.1,0-0.2,0.1-0.3c0.1-0.1,0.4-0.5,0.9-0.9c1.6-1.6,2.9-3.4,3.8-5.3
	c0.3-0.6,0.5-0.9,0.6-1c0.1-0.1,0.3,0.1,0.4,0.4c0.9,3.2,2.1,5.6,3.7,7.3c0.2,0.2,0.3,0.3,0.3,0.2c0,0,0.1-0.1,0.2-0.3
	c0.1-0.3,0.3-0.6,0.5-0.9c0.3-0.3,0.5-0.5,0.8-0.6c0.2-0.1,0.3-0.2,0.3-0.3s-0.2-0.2-0.4-0.4c-0.9-0.6-1.8-1.4-2.8-2.5
	c-0.9-1-1.5-1.9-2-2.7c-0.4-0.9-0.5-1.4-0.1-1.5c0.2-0.1,0.2-0.2-0.1-0.4c-0.3-0.1-0.9-0.3-1.8-0.6c-0.1,0-0.2,0-0.3-0.1
	c-0.4-0.1-0.6-0.1-0.7-0.1c-0.1,0-0.1,0.1-0.1,0.4c0,0.1,0,0.1,0,0.1c-0.2,2.1-1.2,4.6-3,7.4c-0.4,0.6-0.7,1-0.9,1
	c-0.2,0.1-0.5-0.1-0.9-0.4c0,0-0.1-0.1-0.1-0.1c-0.2-0.1-0.3-0.2-0.3-0.2c0,0-0.2,0.1-0.4,0.3C29.2,53,29.1,53,29.1,53
	c-0.3,0.3-0.5,0.5-0.7,0.6c-0.2,0.1-0.5,0.1-1,0.1c-0.4,0-0.7,0-0.8-0.1c-0.2-0.1-0.3-0.3-0.3-0.6c0-0.2,0-0.8,0-1.7
	c0-0.1,0-0.2,0-0.3c0-0.4,0.1-0.6,0.1-0.7c0.1-0.1,0.3-0.2,0.6-0.3c0.2,0,0.8,0,1.7,0c0.3,0,0.5,0,0.7,0c1.3,0,2.1-0.1,2.5-0.1
	c0.4-0.1,0.6-0.3,0.4-0.6c-0.2-0.2-0.7-0.7-1.5-1.4l0,0c-0.3-0.3-0.5-0.4-0.6-0.3c-0.1,0-0.3,0.3-0.6,0.8c-0.3,0.5-0.6,0.8-0.8,0.9
	c-0.2,0.1-0.5,0.1-0.8,0c-0.2-0.1-0.4-0.7-0.4-1.6c0-1,0.1-1.6,0.3-1.8c0.2-0.2,0.2-0.3,0-0.5c-0.2-0.1-0.8-0.3-1.8-0.6
	c-0.5-0.1-0.8-0.2-0.8-0.2c-0.1,0-0.1,0.1-0.1,0.2c0.1,0.7,0.1,1.5,0.2,2.4c0,1,0,1.5,0,1.6c-0.1,0.2-0.4,0.3-1,0.4
	c-0.5,0-1.6,0-3-0.1c-0.1,0-0.1,0-0.1,0.1c0,0.1,0.1,0.2,0.2,0.5c0.1,0.2,0.2,0.4,0.3,0.4c0.1,0,0.2,0,0.4,0
	c0.5-0.2,0.9-0.2,1.3-0.2c0.4,0,0.7,0.1,0.8,0.3c0.1,0.2,0.1,1.2,0.1,3.1c0,1.9-0.2,3.4-0.3,4.7c-0.4,3.1-1.2,5.7-2.6,7.8
	c-0.1,0.2-0.2,0.4-0.2,0.5S21.1,66.4,21.2,66.5z M33.9,66.4c0,0,0.1,0,0.2-0.1c0.1-0.1,0.2-0.2,0.2-0.3c0-0.1,0.7-0.6,2.2-1.6
	c2.7-1.8,4.6-3.1,5.5-3.9c1-0.8,0.9-1-0.2-0.4c-4.5,2.1-7.6,3.4-9.3,4c-0.1,0,0,0.3,0.4,0.9C33.2,65.5,33.6,66,33.9,66.4z
	 M37.1,58.1c0.3,0.1,0.6,0.2,0.9,0c0.3-0.1,0.5-0.3,0.6-0.6c0.2-0.8-0.1-1.6-0.9-2.3c-0.8-0.8-1.9-1.3-3.3-1.6
	c-0.4-0.1-0.6-0.1-0.6,0c0,0.1,0.2,0.3,0.6,0.6c1.1,1.1,1.9,2.2,2.4,3.4C36.9,57.9,37,58,37.1,58.1z M51.7,66.6c0,0,0.1,0.1,0.2,0
	c0,0,0.1,0,0.2,0c0.1,0,0.1,0,0.2,0c1-0.2,1.6-0.6,1.9-1.2c0.1-0.2,0.2-0.5,0.2-1s0-1.8,0-4v0c0-0.4,0-1,0-1.6c0-1.2,0-1.9,0-2.3
	c0-0.4,0.1-0.8,0.3-1c0.1-0.2,0.4-0.4,0.8-0.7c0.3-0.2,0.5-0.3,0.6-0.4c0.4-0.3,0.6-0.5,0.7-0.6c0.1-0.1,0.1-0.1,0-0.2
	c0-0.1-0.4,0-0.9,0.2c-0.6,0.2-1,0.3-1.1,0.3c-0.2,0-0.4-0.1-0.4-0.4c0-0.2,0-0.6,0-1.4c0-0.1,0-0.2,0-0.3c0-0.7,0.1-1.2,0.2-1.3
	c0.1-0.1,0.6-0.2,1.3-0.2c0.1,0,0.2,0,0.3,0c1,0,1.6-0.1,1.6-0.3c0.1-0.2-0.2-0.6-0.8-1.2c-0.5-0.5-0.8-0.7-0.9-0.7
	c-0.1,0-0.3,0.2-0.6,0.6c-0.4,0.6-0.7,0.8-0.8,0.6c-0.1-0.2-0.2-0.9-0.1-2.2c0-0.8,0-1.2,0.1-1.4c0-0.2,0.1-0.4,0.3-0.5
	c0.2-0.2,0.2-0.3-0.1-0.5c-0.3-0.2-0.9-0.4-1.9-0.6c0,0,0,0-0.1,0c-0.3-0.1-0.5-0.1-0.6,0c0,0,0,0.2,0,0.6c0,0,0,0.1,0,0.1
	c0.1,0.9,0.2,1.9,0.2,2.9c0,1,0,1.6-0.1,1.8c-0.1,0.2-0.3,0.3-0.7,0.3c-0.3,0-0.9,0-1.8-0.1c0,0,0,0-0.1,0c-0.3,0-0.5,0-0.5,0
	c0,0,0,0.2,0.1,0.4c0,0,0,0.1,0,0.1c0,0,0,0,0,0.1c0.1,0.3,0.2,0.4,0.3,0.4c0.1,0,0.2,0,0.4,0c0,0,0.1,0,0.1,0
	c0.6-0.2,1.1-0.2,1.5-0.2c0.4,0,0.6,0.2,0.7,0.4c0.1,0.2,0.1,0.8,0.1,2c0,1.1-0.1,1.7-0.1,1.8c-0.2,0.3-1.1,0.6-2.8,1.1
	c0,0-0.1,0-0.1,0c-0.2,0.1-0.4,0.2-0.4,0.3c0,0.1,0.1,0.4,0.3,0.9c0,0.1,0.1,0.2,0.1,0.3c0,0,0,0.1,0.1,0.2c0.2,0.6,0.4,1,0.5,1
	c0.1,0,0.2-0.1,0.5-0.4c0,0,0-0.1,0-0.1c0.2-0.2,0.4-0.4,0.9-0.6c0.4-0.3,0.7-0.4,0.8-0.3c0.1,0,0.2,0.2,0.2,0.5c0,0.3,0,1.1,0,2.6
	c0,0.2,0,0.4,0,0.7c0,1.1,0,1.8,0,2.1c-0.1,0.4-0.2,0.7-0.4,0.8c-0.2,0.1-0.5,0.1-1.2,0c-0.2,0-0.3,0-0.4,0c-0.4,0-0.6,0-0.7,0
	c-0.1,0-0.1,0.1-0.1,0.2c0,0.1,0.2,0.1,0.4,0.2c0.5,0.1,0.9,0.3,1.1,0.6c0.3,0.3,0.4,0.7,0.5,1.2C51.6,66.4,51.6,66.5,51.7,66.6z
	 M56.1,66.5c0.1,0.1,0.1,0.1,0.2,0.1c0,0,0.2-0.1,0.4-0.2c1.8-1.1,3.2-2.4,4.2-3.9c1-1.5,1.7-3.3,2-5.5c0-0.1,0-0.2,0-0.3
	c0.1-0.6,0.2-0.9,0.3-1c0.1-0.1,0.5-0.2,1.2-0.2c0.1,0,0.2,0,0.3,0c0.1,0,0.2,0,0.3,0c0.6,0,0.9,0,1.1,0.1c0.2,0.1,0.3,0.3,0.4,0.7
	c0,0.3,0,0.9-0.1,1.9c0,0.2,0,0.4,0,0.5c-0.1,1.8-0.3,3.1-0.4,3.7c-0.2,0.8-0.4,1.3-0.8,1.5c-0.3,0.2-1,0.2-1.9,0.1
	c-0.6,0-1-0.1-1.1,0c-0.1,0-0.2,0-0.1,0.1s0.2,0.2,0.5,0.3c1.2,0.4,1.8,1,1.8,1.8c0,0.2,0,0.3,0.1,0.3c0.1,0,0.2,0,0.5,0
	c0.9-0.1,1.6-0.4,2.1-0.9c0.5-0.5,0.9-1.4,1.1-2.7c0.2-1.2,0.4-3,0.5-5.5c0-0.7,0.1-1.1,0.1-1.2c0.1-0.2,0.2-0.3,0.5-0.4
	c0.2-0.1,0.3-0.2,0.2-0.4s-0.3-0.4-0.6-0.8c-0.5-0.5-0.8-0.7-1.1-0.8c-0.2,0-0.5,0.1-0.8,0.4c0,0-0.1,0.1-0.2,0.2
	c-0.2,0.3-0.5,0.4-0.8,0.5c-0.3,0-1.1,0.1-2.5,0c-0.3,0-0.5,0-0.7,0c-2.5,0-4.1,0-4.6-0.1c-0.1,0-0.2,0-0.2,0.1c0,0,0.1,0.2,0.2,0.4
	c0.2,0.3,0.3,0.5,0.3,0.6c0.1,0,0.2,0,0.3,0c1.3-0.4,2-0.3,2,0.5c0,1.7-0.4,3.4-1.1,5.1c-0.7,1.6-1.6,3.1-2.9,4.3
	c-0.5,0.5-0.7,0.7-0.7,0.7C56,66.4,56,66.5,56.1,66.5z M56.4,55.3c0.1,0.1,0.3,0,0.6-0.2c0.2-0.1,0.4-0.3,0.6-0.4
	c0.2-0.1,0.3-0.2,0.5-0.4l0,0c0.3-0.3,0.5-0.6,0.6-0.7c1.1-1.1,2-2.6,2.8-4.4c0.2-0.5,0.4-0.8,0.7-0.9c0.4-0.2,0.3-0.4-0.5-0.6
	c-0.1,0-0.3-0.1-0.7-0.2c-0.5-0.2-0.8-0.3-1.1-0.4c-0.2-0.1-0.4-0.1-0.4-0.1c0,0-0.1,0.1-0.1,0.3c-0.1,1.1-0.4,2.4-0.9,3.7
	c-0.5,1.4-1,2.3-1.4,2.8c-0.2,0.2-0.4,0.4-0.4,0.6c0,0.2-0.1,0.4-0.2,0.5C56.3,55.1,56.3,55.3,56.4,55.3z M69.2,54.3
	c0,0,0.1-0.1,0.2-0.2c0.1-0.3,0.3-0.6,0.6-0.8c0.3-0.3,0.6-0.5,0.8-0.7c0.2-0.1,0.3-0.2,0.3-0.3c0-0.1-0.2-0.2-0.5-0.4
	c-0.9-0.5-1.7-1.2-2.4-2c-0.7-0.8-1.3-1.7-1.7-2.5c-0.1-0.3-0.2-0.5-0.1-0.6c0.1-0.1,0.3-0.3,0.6-0.3c0.6-0.2,0.9-0.3,0.8-0.5
	c0,0-0.3-0.2-0.9-0.6c-0.5-0.4-0.8-0.6-0.9-0.6c0,0-0.1,0-0.1,0c0,0-0.1,0.2-0.2,0.4c0,0-0.1,0.1-0.1,0.1c-0.2,0.3-0.7,0.5-1.3,0.6
	c-0.7,0.1-1.7,0-3.1-0.1c-0.4,0-0.6,0-0.6,0c0,0,0,0.2,0.2,0.5c0,0,0,0,0,0.1c0.1,0.2,0.2,0.4,0.3,0.4c0.1,0,0.3,0,0.6,0
	c0.1,0,0.1,0,0.2,0c1.3-0.2,2.3-0.3,3-0.2c0.7,0.1,1.1,0.3,1.1,0.6c0,0.9,0.4,2.1,1.1,3.6c0.7,1.6,1.4,2.7,2.1,3.3
	C69,54.2,69.1,54.3,69.2,54.3z M79.7,66.6c0.2,0.1,0.5,0,0.9-0.1c0.4-0.1,0.7-0.3,1-0.5c0.1-0.1,0.1-0.2,0.1-0.3c0-0.1,0-0.5,0-1.2
	c0-0.9-0.1-3-0.1-6.3c0-3.3,0-5,0-5.1c0-0.2,0.2-0.4,0.4-0.5c0.1-0.1,0.1-0.2,0-0.2c0-0.1-0.2-0.3-0.4-0.5c-0.3-0.3-0.4-0.5-0.4-0.6
	s0.2-0.5,0.5-1.1l0,0c0.5-1.1,1-2.2,1.4-3.1c0.2-0.5,0.4-0.8,0.5-1c0.1-0.2,0.2-0.3,0.4-0.3c0.3-0.1,0.3-0.2,0-0.4
	c-0.3-0.2-0.9-0.4-1.9-0.8c-0.4-0.2-0.7-0.2-0.8-0.3c-0.1,0-0.1,0.1-0.2,0.2c-0.2,1.7-0.7,3.6-1.4,5.6c-0.7,2-1.6,3.9-2.7,5.6
	c-0.3,0.4-0.4,0.7-0.4,0.8s0.1,0.2,0.2,0.2c0.1,0,0.6-0.5,1.5-1.5c0.4-0.4,0.6-0.6,0.7-0.7c0.1-0.1,0.2,0,0.3,0.2s0.1,1.6,0,4.3
	c0,2.7-0.1,4.7-0.2,6c0,0.6-0.1,1-0.1,1.2c0,0.1,0,0.2,0.1,0.3C79.5,66.5,79.6,66.6,79.7,66.6z M84.2,66.2c0.2,0.1,0.5,0.1,0.9,0
	s0.7-0.3,1-0.5c0.1-0.1,0.1-0.2,0.1-0.2c0-0.1,0-0.3,0-0.6c0-0.1,0-0.1,0-0.2c0-0.3,0-0.4,0.1-0.5c0.1-0.1,0.4-0.2,0.9-0.2
	c0.3,0,1.1,0,2.4,0c0.5,0,0.8,0,1.1,0c0.2,0,0.5,0,1,0c1.3,0,2.1,0,2.5,0c0.5,0,0.8,0.1,0.9,0.2c0.1,0.1,0.1,0.3,0.1,0.6
	c0,0.1,0,0.2,0,0.3c0,0.5,0.1,0.9,0.5,0.9c0.3,0.1,0.8,0,1.5-0.4c0,0,0,0,0.1,0c0.2-0.1,0.3-0.3,0.3-0.4c0-0.1,0-0.6,0-1.3
	c0-0.1,0-0.2,0-0.3c0-1.2-0.1-3.4-0.1-6.8c0-0.2,0-0.6,0-1c0-2.2,0-3.5,0-3.9c0-0.4,0.1-0.6,0.2-0.7l0.1,0c0.2-0.1,0.2-0.3-0.2-0.5
	c-0.3-0.2-1-0.4-2-0.6c0,0,0,0-0.1,0c-0.3-0.1-0.5-0.1-0.5-0.1c0,0-0.1,0.2,0,0.4v0.1c0.1,0.7,0.1,1.4,0.2,2.1c0,0.8,0,2.4,0,5
	c0,0.3,0,0.7,0,1.2c0,2.2,0,3.5,0,3.8c0,0.4-0.1,0.6-0.2,0.6l0,0c-0.1,0-0.6,0.1-1.4,0.1c-0.8,0-1.3,0-1.4-0.1l0,0
	c-0.1,0-0.2-0.1-0.2-0.3c0-0.2-0.1-0.8-0.1-1.7c0-0.6,0-2.2,0-4.6c0-0.8,0-1.3,0-1.8c0-0.4,0-0.8,0-1.5c0-2.5,0-4.1,0-4.8
	c0-0.9,0-1.6,0.1-1.8c0-0.2,0.1-0.3,0.2-0.4c0,0,0.1-0.1,0.1-0.1c0.2-0.2,0.2-0.4-0.1-0.5c-0.2-0.1-0.9-0.3-1.9-0.6c0,0-0.1,0-0.2,0
	c-0.3-0.1-0.5-0.1-0.6,0c0,0-0.1,0.2,0,0.6c0,0.1,0,0.2,0,0.2c0.1,0.8,0.1,1.8,0.1,2.8c0,1.1,0,3.4,0,6.9c0,0.7,0,1.5,0,2.6
	c0,1.9,0,3.2,0,3.7c0,0.7-0.1,1.2-0.3,1.3c-0.1,0.1-0.4,0.2-0.8,0.1c-0.2,0-0.4,0-0.6,0c-0.1,0-0.3,0-0.5,0c-0.4,0-0.7,0-0.8-0.1
	c-0.2-0.1-0.3-0.5-0.3-1.1c0-0.4,0-1.4,0-3c0-0.8,0-1.4,0-1.9c0-0.4,0-0.9,0-1.6c0-2,0-3.2,0-3.6c0-0.4,0.1-0.6,0.3-0.7
	c0,0,0.1-0.1,0.1-0.1c0.2-0.2,0.2-0.3,0-0.5c-0.2-0.1-0.8-0.4-1.8-0.6c-0.4-0.1-0.7-0.2-0.7-0.1c-0.1,0-0.1,0.1-0.1,0.3
	c0.1,0.6,0.2,1.3,0.2,2c0,0.7,0,2.1,0,4.3c0,3.7,0,6.4-0.1,8.3c0,0.6-0.1,1,0,1.2C84,66,84.1,66.1,84.2,66.2z M110.1,66.7
	c0.1,0.1,0.5-0.1,1.2-0.6c0.7-0.5,1.3-1,1.8-1.5c0.4-0.4,0.9-1,1.5-1.8c0.2-0.3,0.3-0.4,0.5-0.3c0.1,0,0.3,0.3,0.6,0.7
	c0.8,1.2,1.8,2,2.9,2.4c1.1,0.4,2.9,0.6,5.4,0.6c0.1,0,0.2,0,0.3,0c0.7,0,1.1,0,1.2,0c0.1,0,0.2-0.1,0.2-0.3c0-0.3,0.1-0.5,0.3-0.8
	c0.2-0.3,0.3-0.5,0.5-0.6c0.2-0.1,0.3-0.2,0.2-0.3c0,0-0.8-0.1-2.4-0.1c-0.2,0-0.3,0-0.4,0c-1.3,0-2.2,0-2.6,0
	c-0.4,0-0.7-0.1-0.9-0.2c-0.2-0.1-0.4-0.1-0.3-0.2c0-0.1,0.2-0.2,0.5-0.4c0.3-0.2,0.5-0.3,0.6-0.4c0.1-0.1,0.1-0.3,0.1-0.5
	c0,0,0-0.1,0-0.1c-0.1-0.7-0.1-1.1,0-1.3c0-0.3,0.2-0.4,0.5-0.5c0.2,0,0.8-0.1,1.6-0.1c0.1,0,0.1,0,0.2,0c0.9,0,1.5,0,1.8-0.1
	c0.3-0.1,0.4-0.2,0.3-0.4c-0.1-0.2-0.4-0.5-0.9-1c-0.4-0.4-0.7-0.6-0.9-0.6c-0.1,0-0.3,0.2-0.6,0.6c-0.2,0.4-0.4,0.6-0.6,0.7
	c-0.1,0.1-0.3,0.1-0.6,0.1c-0.4,0-0.6-0.1-0.7-0.2c-0.1-0.2-0.2-0.5-0.1-1.1c0,0,0-0.1,0-0.1c0-0.4,0-0.6,0.1-0.7
	c0.1-0.1,0.2-0.2,0.5-0.3c0.2,0,0.6,0,1.3,0c0,0,0.1,0,0.1,0c1.1,0,1.7-0.1,1.8-0.2c0.1-0.1-0.1-0.5-0.7-1.1
	c-0.4-0.4-0.7-0.7-0.9-0.7c-0.1,0-0.4,0.2-0.7,0.6c-0.5,0.7-0.9,0.9-1.3,0.6c-0.2-0.2-0.4-0.6-0.3-1.2c0-0.7,0.2-1,0.4-1.2
	c0.2-0.1,0.5-0.1,0.8,0c0.3,0.1,0.5,0.2,0.5,0.4c0,0.1,0.1,0.2,0.4,0.2c0.2,0,0.5-0.1,0.8-0.2c0.4-0.1,0.6-0.3,0.6-0.4
	c0.1-0.1,0.1-0.4,0-0.9c0-0.8-0.1-1.4,0-1.6c0-0.3,0.1-0.6,0.3-0.7c0.1-0.1,0.4-0.1,0.8-0.1s0.6,0,0.7-0.1c0.1,0,0.2-0.1,0.2-0.3
	c0-0.1-0.2-0.3-0.6-0.8c-0.4-0.5-0.6-0.7-0.6-0.7c0,0-0.1,0.1-0.2,0.2c-0.1,0.2-0.2,0.2-0.3,0.2c-0.1,0-0.2-0.1-0.2-0.3
	c-0.1-0.3-0.1-0.6,0-0.9c0.1-0.3,0.2-0.5,0.3-0.6c0.2-0.1,0.3-0.2,0.3-0.4c0-0.2-0.3-0.4-0.7-0.7c-0.4-0.4-0.8-0.6-0.9-0.6
	c-0.1,0-0.3,0.1-0.6,0.3c-0.5,0.6-1.1,0.8-1.6,0.5c-0.2-0.1-0.3-0.3-0.3-0.6c0-0.3,0.1-0.5,0.3-0.6c0.2-0.2,0.2-0.3,0-0.5
	c-0.2-0.2-0.8-0.4-1.6-0.6c0,0-0.1,0-0.1,0c-0.3-0.1-0.4-0.1-0.5,0c0,0-0.1,0.3,0,0.7c0,0.1,0,0.1,0,0.2c0,0.7,0,1.2-0.1,1.3
	s-0.4,0.2-0.9,0.2c-0.3,0-0.5,0-0.6,0c-0.1,0-0.1-0.1-0.2-0.1c-0.8-0.8-1.3-1.2-1.5-1.3c-0.3-0.1-0.5-0.1-0.7,0.1
	c-0.5,0.5-1.4,0.7-2.7,0.5c-0.2,0-0.3,0-0.3,0c0,0,0,0.1,0,0.2c0.2,0.5-0.1,0.5-0.9,0c-0.1,0-0.2-0.1-0.3-0.2
	c-0.2-0.1-0.3-0.2-0.4-0.2c-0.5-0.3-0.6-0.5-0.3-0.7c0.1-0.1,0.1-0.1,0.1-0.2c0,0-0.6-0.2-1.6-0.4c-1-0.2-1.6-0.3-1.6-0.2
	c0,0,0,0.2-0.1,0.4c-0.1,0.9-0.3,2.1-0.8,3.4c-0.4,1.3-1,2.4-1.6,3.4c-0.2,0.3-0.3,0.5-0.2,0.6c0.1,0,0.1,0,0.2,0
	c0.1-0.1,0.3-0.2,0.6-0.5c0.3-0.3,0.6-0.5,0.7-0.5c0.1-0.1,0.4-0.1,0.8-0.1c0.5,0,0.7,0.1,0.8,0.2c0.1,0.1,0.1,0.7,0.1,1.5v0
	c0,0.7,0,1.1-0.1,1.3c-0.1,0.2-0.3,0.4-0.6,0.4c-0.2,0-0.8,0-1.7-0.1c0,0,0,0-0.1,0c-0.3,0-0.4,0-0.5,0c0,0,0,0.2,0.2,0.4
	c0,0,0,0.1,0,0.1c0.1,0.3,0.2,0.4,0.3,0.5c0,0,0.1,0.1,0.2,0c0.3-0.1,0.6-0.2,1.1-0.2c0.4,0,0.7,0,0.9,0c0.1,0.1,0.2,0.2,0.2,0.4
	c0,0.2,0,0.7,0,1.6c0,1.1-0.1,1.7-0.1,1.8c0,0.1-0.2-0.1-0.5-0.6c-0.3-0.6-0.7-1.2-1.1-1.6c-0.4-0.5-0.6-0.7-0.8-0.6
	c-0.1,0-0.1,0.1-0.1,0.1c0,0.1,0.1,0.3,0.1,0.6c0.3,1,0.4,2,0.4,3c0,0.5,0.1,0.9,0.1,1s0.1,0.2,0.3,0.3c0.2,0.1,0.4,0.1,0.5,0.1
	c0.1-0.1,0.3-0.2,0.5-0.5c0.2-0.3,0.4-0.4,0.4-0.3c0.1,0.1,0.1,0.4,0.1,1c0,0.6,0,1-0.2,1.2c-0.1,0.1-0.6,0.3-1.4,0.5
	c-0.7,0.1-1,0.2-1.1,0.2c-0.1,0-0.1,0-0.2,0.1c0,0,0,0.1,0,0.3c0,0.2,0.2,0.7,0.5,1.5c0.1,0.4,0.2,0.6,0.3,0.6
	c0.1,0,0.2-0.1,0.4-0.3c0.1-0.1,0.3-0.3,0.5-0.4c0.2-0.1,0.8-0.4,1.7-0.9c3-1.5,4.6-2.4,4.6-2.5c0-0.1-0.1-0.1-0.2-0.1
	c-0.1,0-0.5,0.1-1.2,0.3c-0.9,0.2-1.4,0.3-1.6,0.2c-0.2-0.1-0.2-0.4-0.1-1.1c0-0.3,0-0.6,0-0.9c0-0.4-0.1-1.3-0.1-2.6
	c0-1.3,0-2,0.1-2.1c0.1-0.1,0.2-0.2,0.3-0.2c0.1,0,0.6-0.1,1.2-0.1c0.7,0,1.2-0.1,1.4-0.1c0.2-0.1,0.2-0.2,0.1-0.5
	c-0.2-0.4,0-0.6,0.5-0.6c0.2,0,0.4-0.1,0.5-0.1c0.2-0.2,0.5-0.3,0.8-0.3c0.3,0,0.5,0.1,0.6,0.3c0.1,0.2,0.1,0.8,0,1.8
	c-0.1,1-0.2,1.6-0.3,1.9c-0.1,0.2-0.2,0.3-0.3,0.2c-0.1-0.1-0.2-0.4-0.3-0.8c-0.1-0.5-0.2-0.8-0.1-0.9s0.1-0.3,0.3-0.6
	c0,0,0,0,0-0.1c0.2-0.3,0.2-0.4,0.2-0.5c0,0-0.1-0.1-0.3-0.1c0,0-0.1,0-0.1,0c-0.2,0-0.3,0-0.4,0c0,0-0.1,0.2-0.1,0.5
	c0,0.3-0.1,0.5-0.1,0.6c-0.1,0.1-0.2,0.3-0.4,0.4c-0.2,0.2-0.4,0.3-0.6,0.3c-0.2,0-0.6-0.1-1.2-0.3c0,0-0.1,0-0.1,0
	c-0.4-0.1-0.6-0.2-0.6-0.1c0,0-0.1,0.2,0,0.5c0,0.1,0,0.1,0,0.2c0,1,0,2-0.2,3.1c-0.2,1-0.1,1.4,0.2,1.3c0.1,0,0.3-0.3,0.5-0.8
	c0.3-0.5,0.5-1.1,0.7-1.6c0.2-0.5,0.4-0.8,0.5-0.8c0.2-0.1,0.4,0,0.6,0.2c0.3,0.3,0.4,0.3,0.3,0c0-0.2,0-0.3,0.2-0.5
	c0.1-0.2,0.3-0.2,0.4-0.1c0.1,0,0.2,0.4,0.3,1.1c0.1,0.7,0.2,1.2,0.2,1.3c-0.1,0.8-0.5,1.8-1.2,3.1c-0.8,1.3-1.6,2.3-2.4,3
	C110.1,66.4,110,66.6,110.1,66.7z M119.3,63.5c-0.1,0.2-0.5,0.1-1.1-0.2s-1.2-0.7-1.6-1.2c-0.4-0.4-0.7-0.8-0.8-1.1s0-0.6,0.2-0.9
	c0.1-0.2,0.3-0.3,0.3-0.2c0.1,0,0.2,0.2,0.3,0.5c0.1,0.1,0.1,0.2,0.2,0.2c0.1,0,0.2,0,0.3,0c1-0.3,1.6-0.3,1.9-0.1
	c0.3,0.2,0.4,0.9,0.3,2c0,0.4,0,0.7,0,0.8C119.3,63.4,119.3,63.5,119.3,63.5z M119,59.7c-0.1,0.1-0.4,0.1-0.9,0.1
	c-0.5,0-1-0.1-1.6-0.1c-0.2,0-0.3-0.1-0.3-0.3c0-0.2,0.1-0.6,0.2-1.2c0.2-0.8,0.4-1,0.7-0.7c0.1,0.1,0.1,0.1,0.2,0.1
	c0,0,0.1,0,0.3-0.1c0.8-0.3,1.3-0.3,1.6,0c0.1,0.2,0.2,0.5,0.1,1.1C119.2,59.2,119.1,59.6,119,59.7z M119,56.6
	c-0.1,0.1-0.4,0.1-0.9,0.1c-0.5,0-0.8-0.1-1-0.2c-0.2-0.1-0.2-0.5-0.1-1.2c0.1-0.7,0.2-1.1,0.4-1.3c0.2-0.1,0.3-0.1,0.4,0
	c0,0,0.2,0.1,0.6,0.1c0.4,0,0.7,0.1,0.8,0.2c0.1,0.1,0.2,0.5,0.2,1.1c0,0.4,0,0.7,0,0.9C119.2,56.4,119.1,56.5,119,56.6z
	 M110.1,54.1c-0.2,0.1-0.3,0.1-0.4-0.1c-0.1-0.2-0.1-0.7-0.1-1.4c0,0,0,0,0-0.1c0-0.7,0.1-1.1,0.2-1.2c0.1-0.1,0.5-0.2,1.1-0.2h0.1
	c0.5,0,0.8,0,0.9,0s0.2-0.1,0.3-0.2c0.1-0.1,0-0.3-0.3-0.7c-0.2-0.3-0.4-0.5-0.4-0.6c0-0.1,0.1-0.2,0.3-0.2c0.3,0,0.6-0.1,0.7-0.2
	c0.2-0.1,0.3-0.3,0.4-0.6s0-0.5-0.1-0.8c-0.1-0.3-0.1-0.5,0-0.6c0.1-0.1,0.4-0.2,1-0.3c0.4,0,0.6,0,0.6,0.2c0.1,0.2,0,0.6-0.2,1.3
	c-0.2,0.6-0.6,1.7-1.3,3.3c-0.4,1-0.7,1.5-0.8,1.7c-0.1,0.2-0.4,0.1-0.7-0.1c-0.2-0.1-0.3-0.2-0.4-0.1c-0.1,0-0.3,0.2-0.5,0.6
	C110.3,53.9,110.2,54,110.1,54.1z M119,53.3c-0.3,0.2-0.6,0.2-0.9,0c-0.3-0.1-0.7-0.5-1.2-0.9c-0.4-0.4-0.7-0.6-0.8-0.7
	c-0.1-0.1-0.2,0-0.3,0.1c-0.2,0.4-0.5,0.6-0.7,0.8c-0.2,0.1-0.4,0.2-0.6,0c-0.1-0.1-0.1-0.3,0-0.5c0.1-0.3,0.3-0.8,0.6-1.6
	c0.1-0.2,0.2-0.4,0.3-0.8c0-0.1,0.1-0.2,0.1-0.3c0.3-0.9,0.6-1.5,0.7-1.8c0.2-0.3,0.3-0.5,0.5-0.5c0.3-0.1,0.5,0,0.6,0.2
	c0,0.1,0.1,0.2,0.2,0.2c0.1,0,0.2,0,0.6,0c0.5,0,0.9,0.1,1,0.2c0.1,0.1,0.2,0.5,0.2,1.1c0,0.5,0,0.8-0.1,1c-0.1,0.2-0.4,0.3-0.7,0.3
	c-0.3,0-0.9,0-1.9-0.1c0,0,0,0-0.1,0c-0.3,0-0.5,0-0.6,0s0,0.2,0.1,0.4c0,0,0,0.1,0,0.1c0.2,0.3,0.3,0.5,0.3,0.5c0.1,0,0.2,0,0.3,0
	c0.4-0.1,0.8-0.2,1.3-0.2c0.5,0,0.8,0,0.9,0.1c0.2,0.1,0.3,0.5,0.3,1.2C119.3,52.8,119.2,53.2,119,53.3z M122,53.4
	c-0.4,0-0.6-0.1-0.7-0.2c-0.1-0.2-0.1-0.5-0.1-1.1c0-0.6,0-0.9,0.1-1.1c0.1-0.2,0.3-0.2,0.7-0.2c0.4,0,0.6,0.1,0.7,0.2
	c0.1,0.1,0.1,0.5,0.1,1.1c0,0.4,0,0.7-0.1,0.9c0,0.1-0.1,0.2-0.2,0.3C122.4,53.4,122.2,53.4,122,53.4z M122.4,50.1
	c-0.8,0.4-1.2,0-1.2-1.2c0-0.5,0-0.9,0.1-1c0.1-0.2,0.3-0.2,0.6-0.2c0.3,0,0.5,0.2,0.7,0.6c0.2,0.4,0.2,0.7,0.2,1.1
	C122.8,49.7,122.7,49.9,122.4,50.1z M108.3,50.3c-0.5,0-0.9,0-1,0c-0.2-0.1-0.3-0.2-0.2-0.3c0-0.2,0.2-0.4,0.5-0.9
	c0.5-0.7,0.9-1.3,1.2-1.9c0.1-0.1,0.2-0.3,0.3-0.5c0-0.1,0.1-0.2,0.1-0.2c0.2-0.4,0.4-0.5,0.6-0.4c0.2,0.1,0.4,0.5,0.7,1.1
	c0.7,1.4,0.7,2,0.2,1.8c-0.2-0.1-0.4,0.1-0.6,0.4c-0.3,0.4-0.6,0.7-0.8,0.9C109.2,50.3,108.9,50.3,108.3,50.3z M142.2,66.6
	c0.2,0.1,0.6,0.1,1,0c0.5-0.1,0.9-0.3,1.2-0.6l0,0c0.1-0.1,0.1-0.2,0.1-0.3c0-0.2,0-0.7,0-1.6c0-0.5,0-0.8,0-1.1c0-1,0-2.1,0-3.3
	c0-1.2,0-1.8,0.1-1.9c0.1-0.1,0.2-0.2,0.5-0.2c0.2,0,1,0,2.4,0c0.1,0,0.3,0,0.5,0c0.9,0,1.5,0,1.7,0c0.3,0,0.5,0.1,0.6,0.2
	c0,0.1,0.1,0.3,0,0.6c0,0.1,0,0.1,0,0.2c0,0.5,0,0.7,0.1,0.8c0.1,0.1,0.4,0.1,0.9,0c0.7-0.1,1.1-0.3,1.2-0.5
	c0.1-0.2,0.2-0.7,0.1-1.6c-0.1-2.6-0.1-4.4-0.1-5.2c0-0.8,0.2-1.3,0.4-1.4c0,0,0,0,0.1,0c0.3-0.2,0.4-0.3,0.4-0.4c0-0.1-0.3-0.5-1-1
	c-0.7-0.5-1.1-0.8-1.3-0.8c-0.1,0-0.3,0.2-0.7,0.7c0,0,0,0.1-0.1,0.1c-0.2,0.2-0.4,0.4-0.6,0.4c-0.2,0-0.8,0-1.9,0
	c-0.2,0-0.4,0-0.6,0c-0.2,0-0.5,0-0.8,0c-0.8,0-1.3,0-1.5,0c-0.3,0-0.5-0.2-0.6-0.4c0-0.1-0.1-0.5,0-1c0-0.2,0-0.4,0-0.5
	c0-0.8,0-1.4,0-1.5c0-0.2,0.1-0.3,0.3-0.5c0.2-0.2,0.2-0.4-0.1-0.5c-0.2-0.1-0.9-0.4-2-0.6c-0.4-0.1-0.7-0.2-0.8-0.1
	c-0.1,0-0.1,0.1-0.1,0.3c0.1,0.7,0.2,1.6,0.2,2.7c0,1.1,0,1.7,0,1.9l0,0c-0.1,0.1-0.2,0.2-0.5,0.3c-0.2,0-1,0-2.4,0
	c-0.2,0-0.4,0-0.7,0c-1,0-1.6,0-1.8,0c-0.3,0-0.7-0.2-1.2-0.4c-0.2-0.1-0.3-0.1-0.4-0.2c-0.1,0-0.1-0.1-0.2-0.1
	c-0.5-0.2-0.8-0.3-0.8-0.3c-0.1,0-0.1,0.2,0,0.5c0,0.1,0,0.1,0,0.1c0.1,1.1,0.2,2.6,0.2,4.5c0,1.8,0,3.5-0.1,4.9c0,0.5,0,0.9,0.1,1
	c0.1,0.1,0.4,0.1,0.9,0c0.5-0.1,0.9-0.3,1.1-0.4c0.2-0.2,0.3-0.5,0.3-0.8c0,0,0-0.1,0-0.2c0-0.3,0-0.5,0.1-0.6
	c0.1-0.1,0.3-0.2,0.6-0.2c0.2,0,0.8,0,1.7,0c0.2,0,0.4,0,0.6,0c1.3,0,2.1,0,2.4,0c0.2,0,0.4,0.1,0.5,0.3c0.1,0.1,0.1,1.1,0.1,2.7
	c0,1.7-0.1,3.2-0.1,4.5c0,0.7-0.1,1.2,0,1.3C142,66.4,142.1,66.5,142.2,66.6z M139.3,56.7c-1.6,0-2.5,0-2.6-0.1
	c-0.1-0.1-0.2-0.2-0.3-0.5c0-0.3,0-1.2,0-2.6c0-0.3,0-0.6,0-1c0-0.8,0-1.3,0-1.6c0.1-0.3,0.2-0.5,0.5-0.6c0.2,0,0.7-0.1,1.4,0
	c0.4,0,0.7,0,0.9,0c0.2,0,0.6,0,0.9,0c0.7,0,1.2,0,1.4,0c0.3,0.1,0.4,0.3,0.5,0.6c0,0.2,0.1,0.7,0,1.6c0,0.4,0,0.8,0,1
	c0,1.5,0,2.3,0,2.6c0,0.3-0.1,0.4-0.3,0.5C141.7,56.7,140.8,56.7,139.3,56.7z M150,56.6c-0.1,0.1-1,0.1-2.6,0.1
	c-1.6,0-2.4,0-2.6-0.1c-0.2-0.1-0.3-0.2-0.3-0.5c0-0.3,0-1.1,0-2.6c0-0.3,0-0.6,0-1c0-0.8,0-1.3,0-1.6c0.1-0.3,0.2-0.5,0.5-0.6
	c0.2,0,0.7-0.1,1.4,0c0.4,0,0.7,0,0.9,0c0.2,0,0.6,0,0.9,0c0.8,0,1.2,0,1.4,0c0.3,0.1,0.4,0.3,0.5,0.6c0,0.2,0.1,0.7,0,1.6
	c0,0.4,0,0.8,0,1c0,1.5,0,2.4,0,2.6C150.2,56.4,150.1,56.6,150,56.6z M170.8,58.9c1.1,0.1,2-0.2,2.8-1c0.8-0.8,1.1-1.7,1-2.8
	c-0.1-0.9-0.5-1.6-1.2-2.2c-0.6-0.5-1.4-0.8-2.2-0.8c-0.9,0-1.6,0.3-2.3,0.9c-0.7,0.6-1,1.4-1.1,2.3c0,0.8,0.2,1.6,0.7,2.3
	C169.1,58.4,169.9,58.8,170.8,58.9z M172.1,57.9c-0.8,0.3-1.6,0.2-2.3-0.3s-1.1-1.2-1.1-2.1c0-0.7,0.2-1.3,0.7-1.8
	c0.5-0.5,1.1-0.7,1.7-0.7c0.7,0,1.3,0.2,1.8,0.7c0.7,0.6,0.9,1.4,0.7,2.3C173.5,57,173,57.6,172.1,57.9z"/>
</svg>
