<?xml version="1.0" encoding="utf-8"?>
<!-- Generator: Adobe Illustrator 24.2.3, SVG Export Plug-In . SVG Version: 6.00 Build 0)  -->
<svg version="1.1" id="Layer_1" xmlns="http://www.w3.org/2000/svg" xmlns:xlink="http://www.w3.org/1999/xlink" x="0px" y="0px"
	 viewBox="0 0 352 219" style="enable-background:new 0 0 352 219;" xml:space="preserve">
<style type="text/css">
	.st0{clip-path:url(#SVGID_2_);}
	.st1{fill:none;stroke:#D6D2C7;stroke-width:1.3;stroke-miterlimit:10;stroke-dasharray:9.31,9.31;}
	.st2{fill:#D6D2C7;}
</style>
<g>
	<defs>
		<rect id="SVGID_1_" width="351.3" height="218.1"/>
	</defs>
	<clipPath id="SVGID_2_">
		<use xlink:href="#SVGID_1_"  style="overflow:visible;"/>
	</clipPath>
	<g class="st0">
		<path class="st1" d="M350.6,0.6H0.6v216.8h350V0.6z"/>
	</g>
</g>
<path class="st2" d="M28.8,48.1c0,0.1,0.3,0.1,0.7,0c0.5-0.1,0.9-0.3,1.1-0.4s0.4-0.3,0.5-0.5c0.1-0.2,0.2-0.7,0.2-1.3
	c0-0.5,0-1.5,0-3.2c0-2.1,0-3.3,0-3.6c0-0.4,0.1-0.6,0.3-0.7c0.2-0.1,0.2-0.3-0.1-0.5c-0.3-0.2-0.9-0.4-1.8-0.6
	C29.5,37,29.3,37,29.2,37c0,0-0.1,0.1,0,0.3c0.1,0.7,0.2,2.3,0.2,4.6c0,0.2,0,0.5,0,0.9c0,1.1,0,1.8,0,2.1c0,0.4-0.2,0.7-0.3,0.8
	c-0.1,0.1-0.4,0.1-0.9,0c-0.2,0-0.3,0-0.4,0c-0.7,0-1,0-1,0c0,0.1,0,0.1,0,0.2c0,0,0.2,0.1,0.4,0.1c0.5,0.1,0.8,0.3,1.1,0.5
	c0.2,0.3,0.4,0.6,0.5,1.1c0,0.1,0,0.2,0,0.3L28.8,48.1z M34.3,45.5c0.5,0.3,0.9,0.2,1.2-0.3c0.3-0.4,0.3-0.9,0.2-1.7
	c-0.1-0.8-0.4-1.5-0.8-2.1c-0.4-0.5-0.7-1-1-1.3c-0.3-0.3-0.6-0.4-0.7-0.4c-0.1,0-0.2,0.2,0,0.6c0.4,1.3,0.7,2.6,0.7,3.9
	c0,0.5,0.1,0.8,0.1,0.9C33.9,45.3,34.1,45.4,34.3,45.5z M39.2,45.5c0.4,0.1,0.7,0,1-0.3s0.3-0.7,0.3-1.2c0-0.8-0.4-1.6-1.2-2.4
	c-0.7-0.8-1.7-1.5-2.9-2.1c-0.4-0.2-0.7-0.3-0.7-0.2s0.1,0.3,0.4,0.7c1.1,1.6,1.9,3,2.3,4.2c0,0.1,0.1,0.3,0.2,0.6
	c0.1,0.2,0.1,0.3,0.1,0.3C38.7,45.3,38.9,45.4,39.2,45.5z M24.4,45.4c0.5,0.1,1.1,0,1.6-0.5c0.5-0.5,0.9-1.1,1.1-1.8
	c0.1-0.5,0.2-1.2,0.2-2.1s-0.1-1.3-0.2-1.4c-0.1,0-0.1,0-0.2,0c0,0-0.1,0.2-0.2,0.5c-0.4,1.3-1.2,2.4-2.2,3.1
	c-0.5,0.4-0.7,0.7-0.8,0.9c-0.1,0.3-0.1,0.6,0.1,0.8S24.1,45.3,24.4,45.4z M21.2,41.6c0,0,0.1,0.1,0.1,0c0.1,0,0.2-0.1,0.5-0.2
	c0.1,0,0.1-0.1,0.2-0.1c1.5-0.7,2.9-1.4,4.2-2.4c1.3-0.9,2.3-1.9,3-3c0.1-0.1,0.2-0.2,0.3-0.4c0.3-0.5,0.6-0.8,0.8-0.8
	c0.2-0.1,0.7-0.1,1.5-0.1c0.3,0,0.5,0,0.6,0c0.1,0,0.2,0,0.4,0c0.9,0,1.5,0.1,1.7,0.1c0.2,0,0.4,0.2,0.6,0.6c0,0,0.1,0.1,0.1,0.1
	c1.3,2.2,3.1,3.9,5.3,5c0.4,0.2,0.7,0.3,0.8,0.4c0.1,0,0.2,0,0.2-0.2c0.1-0.3,0.3-0.7,0.5-1c0.3-0.3,0.5-0.5,0.8-0.6
	c0.3-0.1,0.4-0.2,0.3-0.3c0-0.1-0.2-0.2-0.6-0.3c-1.1-0.3-2.3-0.7-3.5-1.3c-1.1-0.5-2-1-2.6-1.5c-0.6-0.5-0.7-0.8-0.4-1
	c0.1,0,1.2-0.1,3.3-0.1c1.3,0,2.1,0,2.5,0c0.5,0,0.8-0.1,0.9-0.1c0.1,0,0.1-0.1,0-0.3c0-0.1-0.3-0.5-0.9-1c-0.6-0.6-1-0.9-1.2-0.9
	c-0.1,0-0.2,0-0.3,0.1c-0.1,0.1-0.3,0.3-0.5,0.6c0,0,0,0.1-0.1,0.1c-0.3,0.4-0.6,0.7-0.8,0.8c-0.2,0.1-0.6,0.1-1.2,0.1
	c0,0-0.1,0-0.1,0c0,0-0.1,0-0.2,0c-0.7,0-1.1-0.1-1.2-0.2c-0.1-0.1-0.2-0.6-0.2-1.3c0-0.1,0-0.2,0-0.2c0-0.1,0-0.3,0-0.5
	c0-0.5,0-0.8,0-1c0.1-0.2,0.3-0.3,0.6-0.4c0.2,0,0.8,0,1.6,0c0.3,0,0.6,0,0.8,0c1.4,0,2.2,0,2.5,0c0.2,0,0.4-0.1,0.4-0.3
	c0-0.1-0.1-0.4-0.5-0.7c-0.3-0.4-0.7-0.7-1.1-1c-0.3-0.2-0.5-0.3-0.6-0.3c-0.1,0-0.3,0.3-0.6,0.8c-0.3,0.4-0.5,0.7-0.7,0.8
	c-0.2,0.1-0.5,0.1-1.1,0.1c-0.6,0-1-0.1-1.1-0.2C36,29.5,36,29.1,36,28.5c0-0.5,0-0.9,0-1c0-0.2,0.2-0.3,0.3-0.5
	c0.2-0.2,0.2-0.4-0.1-0.5c-0.2-0.1-0.9-0.3-2-0.6c-0.4-0.1-0.6-0.1-0.7-0.1c0,0-0.1,0.1,0,0.4v0c0.3,2.2,0.2,3.4-0.2,3.6
	c-0.1,0-0.7,0.1-1.6,0.1c-1,0-1.5,0-1.6-0.1c-0.3-0.1-0.4-0.5-0.4-1.3s0.1-1.2,0.4-1.5c0.2-0.2,0.2-0.3-0.1-0.5
	c-0.3-0.1-0.9-0.3-1.9-0.6c0,0-0.1,0-0.2,0c-0.3-0.1-0.5-0.1-0.5-0.1s-0.1,0.2,0,0.4c0,0.1,0,0.1,0,0.2c0.1,1.2,0.2,2,0.1,2.5
	c0,0.5-0.1,0.8-0.3,0.9c-0.1,0.1-0.8,0.1-2.1,0.1c-1.3,0-2.2-0.1-2.8-0.2c-0.1,0-0.2,0-0.2,0.1c0,0.1,0.1,0.3,0.2,0.5
	c0.2,0.3,0.3,0.5,0.3,0.5c0,0,0.2,0,0.4,0c0.1,0,0.2,0,0.3,0c0.8-0.1,1.8-0.2,2.7-0.2c0,0,0.1,0,0.2,0c0.6,0,0.9,0.1,1,0.2
	c0.1,0.1,0.2,0.6,0.2,1.4c0,0.1,0,0.2,0,0.2c0,0.1,0,0.3,0,0.4c0,0.5,0,0.9-0.1,1c-0.1,0.2-0.2,0.3-0.5,0.4c-0.2,0-0.7,0-1.4,0
	c-0.2,0-0.4,0-0.5,0c-1.9,0-3.1-0.1-3.5-0.1c-0.1,0-0.2,0-0.2,0.1c0,0.1,0.1,0.2,0.2,0.5c0,0,0,0.1,0,0.1c0.1,0.2,0.2,0.4,0.3,0.4
	c0.1,0,0.2,0,0.5,0c0.8-0.1,1.7-0.2,2.7-0.2c1,0,1.6,0,1.7,0c0.3,0.2,0.1,0.6-0.3,1.4c-0.4,0.7-1.1,1.5-2,2.4
	c-0.9,0.9-1.9,1.7-2.8,2.3c-0.3,0.2-0.5,0.4-0.6,0.4C21.1,41.4,21.1,41.5,21.2,41.6L21.2,41.6z M33.4,34.1c-0.3,0.1-0.9,0.2-1.9,0.1
	c-1-0.1-1.5-0.2-1.6-0.3c-0.1-0.2-0.2-0.8-0.1-1.7c0-0.9,0.2-1.4,0.3-1.5c0.1-0.1,0.7-0.1,1.7-0.1c1,0,1.6,0,1.7,0.1
	c0.2,0.2,0.3,0.7,0.3,1.8C33.7,33.4,33.6,33.9,33.4,34.1z M53.4,48.1c0,0,0.2,0,0.4,0c0.3,0,0.6-0.2,0.9-0.3
	c0.3-0.2,0.5-0.3,0.5-0.4c0-0.2,0.1-0.3,0.2-0.4c0.2-0.1,0.6-0.1,1.3-0.1c0.5,0,1.6,0,3.4,0c0.1,0,0.3,0,0.5,0c1.6,0,2.6,0,3,0
	c0.6,0,1,0.1,1.1,0.1c0.1,0.1,0.1,0.2,0.1,0.4c0,0,0,0.1,0,0.1c0,0.2,0.1,0.4,0.2,0.4c0.2,0,0.5,0,0.9-0.1c0.5-0.1,0.9-0.3,1-0.4
	c0.1-0.1,0.2-0.4,0.1-1c-0.1-2.1,0-3.1,0.4-3.1c0.3,0,0.4-0.1,0.3-0.4c-0.1-0.3-0.5-0.6-1.1-1.1c-0.4-0.3-0.7-0.5-0.9-0.5
	c-0.1,0-0.3,0.1-0.6,0.4c0,0-0.1,0.1-0.1,0.2c-0.2,0.2-0.4,0.4-0.7,0.4c-0.3,0-1.3,0.1-3,0.1c-0.5,0-0.9,0-1.2,0c-3,0-4.6,0-4.7-0.1
	c0,0-0.1-0.1-0.3-0.1c-0.4-0.2-0.7-0.3-0.9-0.4c0,0-0.1,0-0.2-0.1c-0.5-0.2-0.8-0.3-0.8-0.3c-0.1,0-0.1,0.1-0.1,0.3c0,0,0,0.1,0,0.1
	c0.1,1.1,0.1,2.1,0.1,3.1c0,0.9,0,1.6,0,2.1c0,0.4,0,0.6,0,0.7c0,0.1,0.1,0.2,0.2,0.2C53.2,48.1,53.2,48.1,53.4,48.1z M64.4,46.1
	c-0.1,0.1-1.6,0.1-4.5,0.1c-2.9,0-4.4-0.1-4.5-0.1c-0.2-0.2-0.4-0.6-0.3-1.5c0-0.8,0.2-1.3,0.4-1.4c0.1-0.1,1.6-0.1,4.4-0.1
	c2.8,0,4.3,0,4.4,0.1c0.2,0.1,0.4,0.6,0.4,1.4C64.7,45.5,64.6,46,64.4,46.1z M49.8,41.2c0.1,0,0.1,0,0.2,0c0.9-0.1,1.7-0.2,2.5-0.3
	c0.7,0,2.8,0,6.3,0c4.4,0,6.6,0,6.7,0c0.5,0,1.4,0,2.6,0c1.2,0,1.9-0.1,2-0.1c0.4-0.2-0.1-0.8-1.4-1.8c0,0,0,0-0.1,0
	c-0.4-0.3-0.6-0.4-0.7-0.4s-0.3,0.2-0.6,0.6c0,0.1-0.1,0.1-0.2,0.2c-0.3,0.4-0.6,0.7-0.7,0.7c-0.2,0.1-0.6,0.1-1.4,0.1
	c-0.2,0-0.3,0-0.5,0c-0.9,0-1.5,0-1.7,0c-0.2,0-0.3-0.1-0.3-0.2c0-0.1,0.2-0.4,0.7-0.8c0.5-0.4,0.8-0.6,1.1-0.7
	c0.2-0.1,0.3-0.1,0.4-0.2c0.1-0.2,0.4-0.3,0.9-0.5c0,0,0.1,0,0.1,0c0.3-0.1,0.5-0.2,0.6-0.3c0.1-0.1,0.1-0.4,0.1-1
	c0-0.1,0-0.2,0-0.3c0-0.8,0-1.3,0.1-1.5c0.1-0.2,0.2-0.4,0.5-0.5c0.2-0.1,0.3-0.2,0.2-0.3c0-0.1-0.2-0.3-0.6-0.6
	c-0.6-0.6-1.1-0.9-1.3-1.1c-0.1,0-0.2,0-0.3,0c-0.1,0.1-0.2,0.2-0.4,0.5c0,0-0.1,0.1-0.1,0.2c-0.2,0.2-0.3,0.4-0.4,0.4
	c-0.2,0.1-0.5,0.1-1,0.1c-0.3,0-1.1,0-2.4,0c-0.4,0-0.8,0-1.1,0c0,0-0.1,0-0.2,0c-2.6,0-3.9-0.1-4.1-0.1c-0.3-0.1-0.7-0.3-1.2-0.5
	c0,0-0.1,0-0.1,0c-0.5-0.2-0.8-0.3-0.8-0.3c-0.1,0-0.1,0.1-0.1,0.2c0.1,0.5,0.1,1.3,0.1,2.4c0,1.1,0,1.9,0,2.5c0,0.4,0,0.6,0,0.7
	c0,0.1,0.1,0.2,0.3,0.2c0.2,0,0.4,0,0.8-0.1c0.4-0.1,0.7-0.2,0.9-0.4c0.2-0.1,0.4-0.2,0.5-0.1c0.1,0,0.2,0.2,0.3,0.5
	c0.2,0.4,0.3,0.8,0.4,1.1c0.1,0.4,0,0.6,0,0.7c-0.1,0.1-1,0.1-2.7,0.1c-1.7,0-3,0-4-0.1c-0.2,0-0.3,0-0.3,0.1c0,0,0.1,0.2,0.2,0.5
	C49.6,41,49.7,41.1,49.8,41.2z M59.8,40.2c-0.7,0-1.1,0-1.2-0.1c-0.2-0.1-0.2-0.3-0.1-0.6c0.1-0.3,0.1-0.6-0.1-0.9s-0.5-0.5-0.9-0.8
	c-0.3-0.2-0.5-0.3-0.6-0.4c0-0.1,0.2-0.2,0.5-0.2c0.3,0,0.9,0,1.9,0c1.2,0,1.9,0,2.1,0c0.2,0,0.3,0.1,0.4,0.2
	c0.1,0.2,0.1,0.7-0.1,1.4c-0.2,0.7-0.4,1.1-0.6,1.2C60.9,40.2,60.5,40.2,59.8,40.2z M63.7,37.6c-0.1,0-0.1,0-0.2-0.1l-0.1-0.1l0.1,0
	c0.1,0,0.2,0,0.2,0c0.1,0,0.1,0.1,0.1,0.1C63.8,37.5,63.8,37.6,63.7,37.6z M59.8,36.5c-2.6,0-3.9,0-4.1-0.1
	c-0.3-0.1-0.4-0.5-0.4-1.2c0-0.7,0.1-1.1,0.3-1.2c0.1-0.1,1.5-0.1,4.1-0.1c2.6,0,4,0,4.1,0.1c0.2,0.1,0.3,0.6,0.3,1.2
	c0,0.7-0.1,1.1-0.4,1.2C63.7,36.5,62.4,36.5,59.8,36.5z M52.3,31.8c0.1,0.1,0.5,0.1,1.3,0c1.1-0.2,5-0.3,11.6-0.1
	c1.7,0,2.6-0.1,2.8-0.3c0.2-0.3-0.3-0.8-1.5-1.5l0,0c-0.3-0.2-0.6-0.3-0.7-0.3c-0.1,0-0.3,0.2-0.5,0.5c0,0-0.1,0.1-0.1,0.1
	c-0.3,0.4-0.6,0.7-0.8,0.8c-0.2,0.1-0.6,0.1-1.4,0.1c-0.1,0-0.2,0-0.2,0c-0.8,0-1.3,0-1.4,0c-0.2,0-0.3-0.1-0.3-0.3
	c0-0.1-0.1-0.4-0.1-0.7c0-0.4,0-0.6,0.1-0.8l0,0c0-0.1,0.2-0.2,0.5-0.2c0.3,0,1.3,0,2.9,0c0.4,0,0.6,0,0.8,0c2.1,0,3.3,0,3.6,0
	c0.4,0,0.6-0.1,0.7-0.2c0.1-0.2-0.3-0.7-1.4-1.5l0,0c-0.4-0.3-0.7-0.5-0.8-0.5c-0.1,0-0.4,0.2-0.7,0.6c0,0-0.1,0.1-0.1,0.1
	c0,0-0.1,0.1-0.1,0.2c-0.3,0.3-0.5,0.5-0.7,0.6c-0.2,0-0.8,0.1-1.7,0.1c-0.2,0-0.4,0-0.5,0c-1.1,0-1.7,0-1.9,0c-0.2,0-0.3,0-0.4-0.1
	c-0.2-0.1-0.2-0.3-0.2-0.5c0-0.2,0.1-0.4,0.3-0.5c0.2-0.2,0.2-0.3,0-0.5c-0.3-0.1-0.8-0.3-1.8-0.6c0,0-0.1,0-0.2,0
	c-0.4-0.1-0.6-0.1-0.7-0.1c0,0-0.1,0.2,0,0.6c0,0.1,0,0.1,0,0.2c0,0.5,0,0.8,0,0.9c0,0.2-0.1,0.3-0.2,0.4c-0.1,0.1-1.4,0.1-4,0.1
	s-4-0.1-4.3-0.1c-0.1,0-0.2,0-0.2,0.1c0,0,0.1,0.2,0.2,0.4c0,0,0,0.1,0.1,0.1c0.1,0.3,0.2,0.4,0.3,0.5c0.1,0,0.3,0,0.6,0
	c0.1,0,0.1,0,0.2,0c1-0.1,2.5-0.2,4.4-0.2c0.1,0,0.3,0,0.5,0c0.9,0,1.4,0,1.6,0c0.3,0,0.5,0.1,0.6,0.2c0,0.1,0.1,0.3,0.1,0.6
	c0,0.1,0,0.1,0,0.2c0,0.5-0.1,0.9-0.3,1c-0.1,0.1-1,0.1-2.6,0.1c-1.6,0-2.8-0.1-3.6-0.1c-0.2,0-0.4,0-0.4,0c0,0,0.1,0.2,0.2,0.5
	C52.2,31.6,52.2,31.7,52.3,31.8z M89.1,48c0.2,0.2,0.6,0.1,1.4-0.2c0.7-0.3,1.2-0.7,1.3-1c0,0,0,0,0-0.1c0.1-0.2,0.2-0.7,0.2-1.2
	c0-0.6,0-2.6,0-5.9c0-0.3,0-0.7,0-1.3c0-2.7,0-4.3,0-4.8c0-0.5,0.1-0.7,0.2-0.8l0.1,0c0.2-0.1,0.3-0.2,0.2-0.3
	c-0.1-0.1-0.3-0.2-0.8-0.4c-0.9-0.3-1.3-0.5-1.2-0.6c0.1-0.1,0.9-0.2,2.2-0.2c0.1,0,0.2,0,0.4,0c0.8,0,1.3,0,1.5,0
	c0.3,0.1,0.4,0.2,0.5,0.5c0,0.2-0.1,0.6-0.2,1.4c0,0.2-0.1,0.3-0.1,0.4c0,0.1-0.1,0.3-0.1,0.6c-0.1,0.3-0.1,0.5-0.1,0.5
	c-0.1,0.4,0.1,0.3,0.7-0.2c0.5-0.5,1.2-1.2,1.9-2.2c0.3-0.3,0.5-0.5,0.7-0.6c0.3-0.1,0.4-0.2,0.4-0.4s-0.4-0.5-0.9-1
	c-0.5-0.5-0.8-0.8-1-0.8c-0.1,0-0.4,0.1-0.7,0.5c0,0-0.1,0.1-0.2,0.2c-0.3,0.3-0.5,0.4-0.8,0.5c-0.3,0-1,0-2.3,0c-0.4,0-0.7,0-0.9,0
	c-2.1,0-3.2,0-3.3,0c-0.3-0.1-0.3-0.4-0.1-0.9c0.4-1,0.7-1.6,0.9-1.9c0.1-0.2,0.3-0.4,0.4-0.5c0.3-0.1,0.3-0.2,0.1-0.4
	c-0.2-0.2-0.8-0.4-1.7-0.8c-0.1,0-0.2-0.1-0.3-0.1c-0.4-0.2-0.7-0.2-0.7-0.2c-0.1,0-0.1,0.1-0.1,0.4c0,0,0,0.1,0,0.1
	c-0.2,1.4-0.6,2.9-1.1,4.5c-0.6,1.6-1.3,3.1-2.1,4.5c-0.2,0.4-0.3,0.6-0.4,0.7c0,0.1,0.1,0.1,0.2,0.1c0.2,0,0.6-0.4,1.4-1.3
	c0.8-0.9,1.4-1.7,1.9-2.4c0.3-0.5,0.5-0.8,0.6-0.9c0.1-0.1,0.2-0.2,0.3-0.2c0.3-0.1,0.7-0.1,1.4,0c0.6,0.1,0.9,0.2,0.7,0.3
	c0,0,0,0.1,0,0.3c0.1,0.7,0.2,1.4,0.2,2.1c0,0.8,0,2.6,0,5.4c0,0.4,0,1,0,1.8c0,1.7,0,2.8,0,3.2c0,0.6-0.2,1-0.4,1.2
	c-0.2,0.1-0.5,0.1-1.1,0c-0.3,0-0.5,0-0.6,0c-0.8,0-1.3-0.1-1.3,0c-0.2,0.1,0,0.2,0.5,0.4c0.6,0.2,1.1,0.4,1.5,0.8
	c0.4,0.4,0.6,0.8,0.6,1.3C89,47.9,89,48,89.1,48z M79.9,48c0.4,0.2,0.9,0.1,1.6-0.3c0.3-0.2,0.5-0.3,0.6-0.4c0-0.1,0.1-0.4,0-1
	C82.1,44.5,82,42,82,38.8c0-3.2,0-4.8,0.1-5c0-0.1,0.1-0.2,0.2-0.3c0.2-0.1,0.2-0.4-0.2-0.7c-0.3-0.2-0.4-0.4-0.4-0.6
	c0-0.2,0.2-0.6,0.5-1.2c0.4-0.8,0.8-1.7,1.2-2.7c0.3-0.7,0.5-1.1,0.8-1.2c0.3-0.1,0.2-0.2,0-0.4c-0.3-0.2-0.9-0.4-1.8-0.7
	c0,0-0.1,0-0.2,0c-0.4-0.1-0.7-0.2-0.7-0.2c-0.1,0-0.1,0.1-0.1,0.4c-0.1,1.5-0.6,3.3-1.4,5.4c-0.8,2.2-1.7,4.1-2.7,5.8
	c-0.2,0.4-0.3,0.6-0.4,0.7c0,0.1,0,0.1,0,0.2c0.1,0.1,0.7-0.4,1.7-1.5c0.4-0.4,0.6-0.7,0.8-0.8c0.1-0.1,0.3-0.1,0.4,0
	s0.1,1.5,0.1,4.2c0,2.7-0.1,4.8-0.2,6.5c0,0.7-0.1,1,0,1.2C79.7,47.8,79.8,47.9,79.9,48z M83.2,44c0.1,0.1,0.2,0.1,0.3,0
	c0.1-0.1,0.3-0.2,0.6-0.5c1.6-1.6,3-3.6,4-6.1c0.2-0.6,0.5-0.9,0.8-1.1c0.2-0.1,0.3-0.2,0.2-0.3c-0.1-0.1-0.3-0.2-0.8-0.4
	c0,0-0.1,0-0.2-0.1c-0.5-0.2-0.9-0.3-1.1-0.4c0,0-0.1,0-0.1,0c-0.3-0.1-0.5-0.2-0.6-0.1c0,0-0.1,0.1-0.1,0.4c0,0,0,0.1,0,0.1
	c-0.1,1.2-0.4,2.6-1,4c-0.5,1.5-1.1,2.8-1.8,3.9C83.2,43.8,83.1,43.9,83.2,44z M97.3,43.7c0.2,0,0.3-0.1,0.5-0.2
	c0.5-0.4,0.6-1.2,0.4-2.2s-0.8-2.1-1.6-3.1c-0.4-0.5-0.9-1-1.7-1.7c-0.8-0.7-1.2-1-1.3-1c-0.1,0-0.2,0.1-0.2,0.2
	c0,0.1,0.3,0.6,0.6,1.3c1.2,2.5,2,4.5,2.3,6c0.1,0.4,0.3,0.6,0.8,0.7C97.2,43.6,97.3,43.7,97.3,43.7z M104.9,48c0.1,0.1,0.8,0,2-0.5
	c2.2-0.8,3.8-1.8,4.8-3.1c1-1.2,1.7-3,2-5.2c0.1-0.6,0.2-0.9,0.3-1c0.1-0.1,0.5-0.1,1.2-0.1c0.1,0,0.3,0,0.4,0c0.4,0,0.6,0,0.7,0.1
	c0.1,0.1,0.2,0.4,0.2,0.8c0,0.3,0,1,0,2.1c0,0.5,0,0.9,0,1.2c0,2.6,0.1,3.9,0.1,4.2c0.2,0.5,0.5,0.8,0.9,0.9
	c0.4,0.1,1.4,0.2,2.9,0.2c2.4,0,4-0.1,4.8-0.3c0.8-0.2,1.1-0.7,1-1.3c0-0.2-0.2-0.4-0.4-0.6c-0.2-0.1-0.3-0.3-0.3-0.5
	c0-0.2-0.1-0.6-0.1-1.4c0-0.8-0.1-1.3-0.1-1.3c-0.1-0.1-0.2,0-0.3,0.4c0,0.1,0,0.2-0.1,0.3c-0.2,1-0.4,1.6-0.5,1.8
	c-0.2,0.4-0.5,0.6-0.8,0.7c-0.3,0.1-0.9,0.1-1.9,0.1c-0.1,0-0.3,0-0.3,0c-0.2,0-0.5,0-0.8,0c-0.7,0-1.2,0-1.3-0.1
	c-0.3-0.1-0.4-0.3-0.5-0.6c0-0.2-0.1-0.8-0.1-1.8c0-0.4,0-0.8,0-1.1c0-0.3,0-0.8,0-1.3c0-0.9,0-1.5,0-1.8c0.1-0.4,0.3-0.6,0.6-0.6
	c0.2-0.1,0.8-0.1,1.7-0.1c0.5,0,0.9,0,1.2,0c0.2,0,0.4,0,0.7,0c1.4,0,2.2,0,2.4,0c0.2,0,0.4-0.1,0.5-0.2l0,0
	c0.1-0.2-0.3-0.7-1.4-1.5l0,0c-0.4-0.3-0.7-0.4-0.8-0.4c-0.1,0-0.3,0.2-0.6,0.6c0,0-0.1,0.1-0.1,0.1c0,0.1-0.1,0.2-0.2,0.3
	c-0.1,0.2-0.3,0.4-0.5,0.4c-0.2,0.1-0.7,0.1-1.4,0.1c-0.5,0-1.8,0-3.7,0c-1.1,0-1.9,0-2.6,0c-5.2,0-8.3,0-9.3-0.1
	c-0.2,0-0.3,0-0.4,0c0,0,0.1,0.2,0.3,0.6c0,0,0,0,0,0.1c0.1,0.2,0.2,0.3,0.3,0.4c0.1,0,0.4,0,0.8,0c0.1,0,0.1,0,0.2,0
	c0.7-0.1,1.6-0.1,2.7-0.2s1.7,0,1.8,0c0.3,0.1,0.3,0.7,0.2,1.7c-0.3,1.8-0.9,3.2-1.8,4.4c-0.9,1.2-2.2,2.2-4,3.1
	c-0.4,0.2-0.6,0.3-0.7,0.4C104.8,47.8,104.8,47.9,104.9,48z M105.8,34.3c0.6,0.2,1.2,0,1.8-0.6c0.6-0.6,0.9-1.5,1-2.5
	c0.1-0.5,0.2-0.8,0.4-0.9c0.1-0.1,2.4-0.1,6.8-0.1c4.4,0,6.6,0,6.8,0.1c0.2,0.1,0.3,0.2,0.2,0.4c0,0.2-0.2,0.6-0.4,1.3
	c-0.2,0.5-0.3,0.9-0.2,1c0.1,0.1,0.3,0,0.7-0.2c0.4-0.2,1-0.7,2-1.5c0.5-0.4,0.9-0.6,1.1-0.7c0.3,0,0.4-0.2,0.3-0.4
	c-0.1-0.2-0.4-0.6-0.9-1.1c0,0-0.1-0.1-0.1-0.1c-0.5-0.5-0.8-0.7-0.9-0.7c-0.1,0-0.4,0.2-0.8,0.6c0,0-0.1,0.1-0.1,0.1
	c0,0,0,0-0.1,0.1c-0.2,0.2-0.4,0.4-0.7,0.4c-0.2,0-1,0-2.2,0c-0.3,0-0.5,0-0.7,0c-1.4,0-2.2,0-2.5,0c-0.2,0-0.4-0.1-0.5-0.1
	c-0.2-0.2-0.3-0.6-0.2-1.2c0.1-0.6,0.2-1,0.4-1.2c0.3-0.2,0.2-0.3,0-0.5c-0.3-0.1-0.9-0.3-1.8-0.6c0,0,0,0-0.1,0
	c-0.5-0.1-0.8-0.2-0.8-0.1s-0.1,0.1-0.1,0.3v0c0.1,0.6,0.1,1.2,0.1,1.8c0,0.7,0,1.1-0.1,1.2c-0.1,0.1-0.2,0.2-0.5,0.2
	c-0.2,0-1,0-2.4,0c-0.1,0-0.3,0-0.5,0c-0.9,0-1.5,0-1.7,0c-0.3,0-0.6-0.1-0.7-0.2c-0.1-0.1-0.1-0.2-0.2-0.5c0,0,0-0.1,0-0.1
	c-0.1-0.5-0.2-0.7-0.3-0.8c-0.1,0-0.2,0.1-0.2,0.6c-0.2,1.6-0.8,2.7-1.9,3.6c-0.5,0.4-0.8,0.8-0.8,1.3
	C105,33.8,105.3,34.1,105.8,34.3z M109.3,34.4c0.1,0,0.2,0,0.5,0l0.1,0c0.7-0.1,1.3-0.2,1.8-0.2c0.7,0,2.4,0,5,0c0.1,0,0.2,0,0.3,0
	c2.4,0,3.8,0,4.2,0c0.5,0,0.8,0,0.9-0.1c0.2-0.1,0.2-0.3,0.1-0.4c-0.1-0.1-0.1-0.2-0.1-0.3c0-0.1-0.2-0.3-0.4-0.3
	c-0.2-0.1-0.4-0.3-0.8-0.5l0,0c-0.4-0.3-0.7-0.5-0.8-0.5c-0.1,0-0.3,0.2-0.6,0.6l0,0c0,0.1-0.1,0.1-0.2,0.2
	c-0.2,0.3-0.4,0.4-0.5,0.5c-0.2,0.1-0.5,0.2-1,0.2c-0.4,0-1.2,0-2.4,0c-0.4,0-0.7,0-0.9,0c-2.8,0-4.6,0-5.3-0.1
	c-0.1,0-0.2,0-0.2,0.1c0,0.1,0.1,0.2,0.2,0.6l0,0C109.2,34.2,109.3,34.4,109.3,34.4z M132.5,48.1c0.1,0.2,0.5-0.1,1.2-0.8
	c0.7-0.8,1.2-1.6,1.7-2.4c1-1.9,1.5-4.4,1.6-7.3c0,0,0-0.1,0-0.2c0-0.7,0.1-1.1,0.2-1.2c0.1-0.1,0.6-0.2,1.4-0.2c0.1,0,0.2,0,0.2,0
	c0,0,0.1,0,0.2,0c0.6,0,0.9,0,1.1,0.1c0.2,0.1,0.3,0.3,0.4,0.6c0,0.2,0,0.8,0,1.7c0,0.1,0,0.3,0,0.3c-0.1,1.2-0.2,2.1-0.3,2.5
	c-0.1,0.5-0.3,0.9-0.6,1.1c-0.2,0.1-0.6,0.2-1.2,0.2c-0.6,0-0.9,0-1,0c-0.1,0-0.1,0.1-0.1,0.2c0,0.1,0.1,0.1,0.3,0.2
	c0.4,0.2,0.8,0.3,0.9,0.5c0.4,0.4,0.6,0.8,0.6,1.2c0,0.2,0.1,0.3,0.2,0.3c0.2,0,0.4,0,0.8-0.1c0.7-0.2,1.1-0.5,1.5-0.9
	c0.3-0.4,0.6-1.1,0.7-2c0.1-0.8,0.3-2.4,0.4-4.7c0-0.3,0.1-0.5,0.2-0.7c0.1-0.2,0.2-0.3,0.4-0.3c0.2,0,0.3-0.1,0.3-0.2
	c0-0.1-0.1-0.3-0.2-0.5c-0.6-0.6-1-1-1.3-1.1c-0.3-0.1-0.6,0-1,0.3c-0.3,0.3-0.5,0.5-0.7,0.6c-0.2,0-0.6,0.1-1.3,0.1
	c-0.1,0-0.1,0-0.1,0c-0.1,0-0.2,0-0.3,0c-0.7,0-1.1-0.1-1.2-0.2c-0.1-0.1-0.2-0.6-0.2-1.4c0-0.2,0-0.3,0-0.4c0-0.1,0-0.3,0-0.6
	c0-0.5,0-0.8,0.1-1c0.1-0.2,0.3-0.3,0.6-0.4c0.2,0,0.8,0,1.7,0c0.4,0,0.8,0,1.1,0c0.3,0,0.6,0,1.1,0c0.9,0,1.4,0,1.7,0
	c0.3,0,0.6,0.2,0.6,0.4c0.1,0.1,0.1,0.5,0.2,1c0,0.3,0.1,0.5,0.1,0.6c0.3,2.6,0.9,5,1.7,7.2c0.2,0.5,0.3,0.9,0.3,1.1
	c0,0.2-0.2,0.5-0.6,1c-1.4,1.8-3,3.3-4.8,4.5c-0.4,0.2-0.6,0.4-0.7,0.5c-0.1,0.1-0.1,0.1-0.1,0.2c0,0.1,0.3,0.1,0.6,0
	c2.1-0.9,3.9-2.1,5.5-3.6c0.5-0.4,0.8-0.7,0.9-0.7c0.2,0,0.4,0.1,0.6,0.5c1.1,1.5,2.3,2.6,3.5,3.3c1.3,0.7,2.1,0.8,2.6,0.2
	c0.1-0.2,0.2-0.3,0.1-0.5c0-0.2-0.1-0.5-0.3-0.9c-0.2-0.4-0.3-0.6-0.3-0.9s0-0.8,0.2-1.8c0.1-1.1,0.2-1.6,0.2-1.7
	c0,0-0.1-0.1-0.1-0.1c-0.1,0-0.1,0-0.1,0.1c-0.4,1.2-0.7,1.9-1,2.3c-0.3,0.4-0.6,0.6-0.9,0.5c-0.3-0.1-0.7-0.4-1.3-1
	c-0.7-0.7-1.2-1.3-1.3-1.6c-0.1-0.4-0.1-0.7,0.2-1.1c0.9-1.4,1.6-2.9,2.3-4.4c0.3-0.6,0.4-1,0.5-1.2c0.1-0.2,0.2-0.3,0.4-0.3
	c0.2,0,0.3-0.1,0.2-0.2c0-0.1-0.4-0.3-1.2-0.6c-0.8-0.3-1.3-0.5-1.6-0.6c-0.1,0-0.1,0-0.1,0c0,0-0.1,0.2-0.1,0.6c0,0.1,0,0.1,0,0.2
	c-0.1,0.9-0.4,1.9-0.7,2.9c-0.3,1-0.6,1.5-0.9,1.7c-0.2,0.1-0.5-0.3-0.8-1.2c-0.3-1-0.5-2.3-0.7-4.1c0-0.1,0-0.3-0.1-0.5
	c-0.1-0.6-0.1-0.9,0-1.1c0.1-0.2,0.3-0.3,0.7-0.4c0.3,0,1,0,2.1,0c0.4,0,0.8,0,1.1,0c1.4,0,2.3,0,2.7,0c0.5,0,0.9,0,1-0.1
	c0.1,0,0.2-0.1,0.2-0.2c0-0.1-0.2-0.5-0.8-1c-0.6-0.6-1-0.9-1.3-1c-0.2-0.1-0.3-0.3-0.3-0.6c-0.1-0.5-0.4-0.9-0.9-1.3
	c-0.5-0.4-1.2-0.6-2.1-0.7c-1.1-0.1-1.4,0-0.8,0.4c0.4,0.2,0.7,0.6,1.1,1s0.7,0.8,0.9,1.2c0.2,0.3,0.4,0.4,0.6,0.5
	c0.5,0.1,0.5,0.3,0.2,0.8c-0.2,0.2-0.3,0.3-0.5,0.4c-0.2,0-0.8,0-1.8,0c-0.1,0-0.3,0-0.5,0c-0.6,0-1,0-1.2,0c-0.2,0-0.4-0.2-0.4-0.4
	c0-0.2,0-0.5,0-1.2c0-0.2,0-0.3,0-0.5c0-0.9,0-1.4,0-1.6c0-0.2,0.1-0.4,0.3-0.5c0.5-0.3-0.1-0.5-1.7-0.6c0,0-0.1,0-0.2,0
	c-0.3,0-0.4,0-0.5,0c-0.1,0.1-0.2,0.3-0.2,0.7c0,0.3,0,0.9,0.1,1.9c0,0.2,0,0.4,0,0.6c0,0.1,0,0.2,0,0.4c0,0.4,0,0.7,0,0.8
	c-0.1,0.2-0.3,0.3-0.7,0.3c-0.3,0-0.9,0-1.8,0c-0.4,0-0.7,0-1,0c-1.6,0-2.5,0-2.9-0.1c-0.4,0-0.8-0.2-1.4-0.5
	c-0.1,0-0.2-0.1-0.4-0.2c-0.5-0.2-0.7-0.3-0.8-0.2c-0.1,0-0.1,0.2-0.1,0.5c0,0.1,0,0.2,0,0.2c0,0.5,0.1,1.9,0.1,4.2
	c0,2.3,0,3.8-0.1,4.4c-0.1,1.8-0.3,3.3-0.6,4.6c-0.3,1.3-0.8,2.5-1.3,3.6C132.6,47.8,132.5,48,132.5,48.1z M161,46.4
	c0.1,0,0.3,0,0.7-0.1c0,0,0,0,0.1,0c0.7-0.1,1.4-0.2,2.3-0.2c0.9,0,3.7,0,8.4,0c0.4,0,1,0,1.7,0c2.9,0,4.7,0,5.5,0
	c1.1,0,1.7,0,2-0.1c0.2,0,0.3-0.1,0.3-0.2c0,0,0-0.1,0-0.1c0-0.1-0.1-0.3-0.5-0.6c-0.3-0.3-0.7-0.6-1.1-1c0,0,0,0-0.1-0.1
	c-0.4-0.4-0.7-0.5-0.8-0.5s-0.3,0.2-0.6,0.6c0,0-0.1,0.1-0.1,0.1c0,0.1-0.1,0.2-0.2,0.3c-0.3,0.4-0.6,0.7-0.8,0.7
	c-0.2,0.1-0.8,0.1-1.8,0.1c-0.3,0-0.6,0-0.7,0c-0.1,0-0.2,0-0.3,0c-1.1,0-1.8,0-2-0.1s-0.3-0.2-0.3-0.4c0,0,0-0.1,0-0.1
	c-0.1-0.3-0.1-2.7-0.1-7.3c0-4.7,0.1-7,0.2-7.1c0.1-0.1,0.3-0.2,0.6-0.2c0.3,0,1.5-0.1,3.4-0.1c0.2,0,0.4,0,0.7,0c1.2,0,2,0,2.3,0
	c0.4,0,0.7,0,0.9-0.1c0.1,0,0.1-0.1,0.1-0.2v0c0-0.1-0.4-0.5-1.2-1.2c-0.8-0.7-1.2-1-1.4-1c-0.1,0-0.3,0.3-0.8,0.9
	c-0.4,0.6-0.7,0.9-0.9,1c-0.1,0-2.1,0-6.1,0c-4.2,0-6.8,0-7.8-0.1c-0.2,0-0.3,0-0.3,0c0,0,0.1,0.2,0.2,0.6c0,0,0,0.1,0,0.1
	c0.1,0.2,0.2,0.4,0.3,0.4c0.1,0,0.2,0,0.5,0c0.9-0.1,2.3-0.2,4.1-0.2c0.1,0,0.3,0,0.5,0c1,0,1.6,0,1.8,0c0.2,0,0.3,0.1,0.4,0.3
	c0.1,0.1,0.1,2.5,0.1,7.3c0,4.7,0,7.2-0.1,7.3l0,0c-0.1,0.1-0.2,0.2-0.5,0.2c-0.3,0-1.1,0-2.6,0c-0.3,0-0.5,0-0.7,0
	c-2.6,0-4.3,0-5.3-0.1c-0.2,0-0.4,0-0.4,0.1c0,0,0.1,0.2,0.2,0.5S160.9,46.4,161,46.4z M188.3,47.9c0.2,0.1,0.8-0.3,1.7-1.2
	c1.2-1.2,2.2-2.6,2.8-4.2c0.7-1.6,1.1-3.5,1.3-5.6c0,0,0-0.1,0-0.2c0-0.4,0.1-0.7,0.1-0.8c0.1-0.2,0.2-0.3,0.5-0.3
	c0.2,0,0.6,0,1.3,0c0.1,0,0.2,0,0.3,0c0,0,0.1,0,0.2,0c0.8,0,1.2,0,1.4,0c0.3,0,0.5,0.1,0.6,0.2c0.1,0.1,0.1,0.3,0.2,0.6
	c0,0,0,0.1,0,0.1c1,4.9,3.4,8.5,7.4,10.8c0.5,0.3,0.8,0.4,0.9,0.5c0.1,0,0.2,0,0.2-0.2c0.2-0.9,0.8-1.4,1.7-1.7
	c0.2-0.1,0.3-0.1,0.3-0.2s-0.1-0.2-0.3-0.2c-2.2-0.7-4.3-1.8-6.1-3.4c-1.8-1.6-3-3.4-3.7-5.4l0,0c-0.1-0.4-0.2-0.6-0.2-0.7
	c0-0.1,0.2-0.2,0.6-0.3c0.2,0,0.8,0,1.8,0c0.1,0,0.1,0,0.2,0c0,0,0.1,0,0.2,0c0.8,0,1.4,0,1.6,0c0.3,0,0.5,0.1,0.6,0.2
	c0.1,0.1,0.1,0.3,0.1,0.6v0c0,0.8,0.6,0.9,1.9,0.2c0,0,0,0,0.1,0c0.2-0.1,0.3-0.2,0.3-0.3c0-0.1,0-0.6,0-1.2c0-0.1,0-0.2,0-0.3
	c0-0.8-0.1-2-0.1-3.4c0-1.4,0-2.1,0-2.2c0.1-0.3,0.3-0.4,0.5-0.6c0.3-0.1,0.4-0.3,0.3-0.5c-0.1-0.2-0.5-0.5-1.1-1
	c-0.5-0.4-0.8-0.5-0.9-0.5c-0.1,0-0.3,0.2-0.6,0.5c0,0-0.1,0.1-0.2,0.2c-0.2,0.2-0.5,0.4-0.8,0.4c-0.3,0-1.3,0-3.1,0
	c-0.5,0-1,0-1.3,0c-0.3,0-0.8,0-1.3,0c-1.7,0-2.7,0-3,0c-0.4,0-0.8-0.2-1.3-0.4c-0.2-0.1-0.4-0.2-0.5-0.2c-0.6-0.2-0.9-0.3-1-0.3
	c-0.1,0-0.1,0.1-0.1,0.3c0.1,0.6,0.1,2.3,0.1,4.9c0,2.6,0,4.3-0.1,5.1c-0.2,2.4-0.6,4.3-1.1,5.9c-0.5,1.6-1.3,3.1-2.3,4.4
	c-0.1,0.2-0.2,0.3-0.3,0.4C188.3,47.8,188.3,47.9,188.3,47.9z M203.9,34.8c-0.1,0.1-1.7,0.1-4.8,0.1c-3,0-4.6-0.1-4.7-0.2
	c-0.1-0.1-0.2-1.1-0.2-2.9c0-1.8,0-2.9,0.2-3v0c0.1-0.1,0.3-0.2,0.6-0.2c0.3,0,1.4,0,3.3,0c0.4,0,0.7,0,0.9,0c0.4,0,1,0,1.7,0
	c1.2,0,2,0,2.3,0.1c0.4,0.1,0.7,0.2,0.8,0.5c0.1,0.2,0.1,0.7,0.1,1.5c0,0.5,0,0.9,0,1.2c0,1.5,0,2.3,0,2.6
	C204.2,34.5,204.1,34.7,203.9,34.8z M231.9,48c0.1,0.1,0.3,0.1,0.8,0s0.8-0.2,1.2-0.4c0.6-0.3,1.1-0.8,1.5-1.6
	c0.4-0.8,0.6-2.1,0.8-3.8c0.2-1.6,0.3-3.9,0.4-7c0-0.2,0-0.4,0-0.8c0-1.6,0.1-2.5,0.1-2.7c0-0.3,0.2-0.5,0.4-0.6c0,0,0.1,0,0.1,0
	c0.2-0.1,0.3-0.2,0.4-0.2c0-0.1,0-0.1,0-0.2c-0.1-0.2-0.4-0.5-0.8-0.9c-0.5-0.4-0.8-0.7-1-0.8c-0.1-0.1-0.2-0.1-0.3,0
	c-0.1,0-0.2,0.2-0.5,0.5c0,0-0.1,0.1-0.1,0.1c-0.3,0.3-0.5,0.5-0.7,0.6c-0.2,0-0.7,0.1-1.4,0.1c-0.2,0-0.3,0-0.4,0
	c-0.1,0-0.2,0-0.3,0c-0.7,0-1.2,0-1.3,0c-0.3,0-0.4-0.2-0.4-0.3c0-0.1,0.1-0.4,0.3-0.9c0-0.1,0.1-0.1,0.1-0.2
	c0.3-0.7,0.5-1.1,0.6-1.3c0.1-0.2,0.2-0.3,0.4-0.4c0.3-0.1,0.2-0.3-0.1-0.5c-0.4-0.2-1.1-0.5-2.2-0.8l0,0c-0.2-0.1-0.4-0.1-0.4,0
	c0,0-0.1,0.2-0.1,0.6c0,0,0,0.1,0,0.1c-0.3,2.3-1,4.8-2.2,7.6c-0.4,1-0.7,1.4-0.9,1.4c-0.1-0.1-0.2-0.7-0.2-2c0-1,0-1.6,0.1-1.8
	c0-0.2,0.2-0.4,0.5-0.6c0.2-0.1,0.3-0.3,0.2-0.5c-0.1-0.2-0.5-0.5-1.1-1c-0.4-0.4-0.7-0.5-0.9-0.5c-0.1,0-0.3,0.2-0.6,0.6
	c-0.3,0.4-0.8,0.6-1.5,0.7c-0.7,0.1-1-0.1-1-0.4c0-0.2,0.3-0.7,0.8-1.6c0.6-0.8,0.9-1.3,1.1-1.4c0.4-0.1,0.4-0.3,0.1-0.4
	c-0.3-0.2-0.9-0.4-2-0.6c0,0-0.1,0-0.2,0c-0.4-0.1-0.6-0.1-0.7-0.1c-0.1,0-0.1,0.2-0.1,0.6c0,0.1,0,0.2,0,0.2c0,0.5,0,1-0.1,1.5
	c-0.1,0.8-0.2,1.4-0.2,1.6c-0.1,0.3-0.3,0.4-0.5,0.4c-0.2,0-0.6-0.2-1.2-0.5c-0.6-0.3-0.9-0.4-1-0.4c0,0-0.1,0-0.1,0.1
	c0,0.1,0,0.3,0.1,0.8c0.1,1.1,0.2,3.5,0.2,7.1c0,3.8-0.1,6.6-0.2,8.4c-0.1,0.8,0,1.3,0.1,1.5c0.1,0.2,0.5,0.2,1.1,0
	c0.4-0.1,0.7-0.3,0.8-0.5c0.1-0.2,0.2-0.5,0.2-1v0c0-0.4,0-0.6,0-0.7c0.1-0.1,0.2-0.2,0.5-0.3c0.2,0,0.6,0,1.3,0c0,0,0.1,0,0.1,0
	c0,0,0.1,0,0.1,0c0.7,0,1.1,0,1.3,0c0.3,0,0.4,0.1,0.5,0.2c0,0.1,0.1,0.3,0.1,0.6v0.1c0,0.5,0.1,0.8,0.4,0.8c0.3,0.1,0.7,0,1.4-0.4
	c0,0,0.1,0,0.2-0.1c0.2-0.1,0.3-0.2,0.3-0.4c0-0.2,0-0.8,0-1.8c0-0.5,0-0.8,0-1.1c0-1.1,0-2.4,0-4.1c0-1.7,0-2.6,0.1-2.7
	c0-0.1,0.1-0.3,0.2-0.3c0.1-0.1,0.1-0.1,0,0c0,0.1,0,0.1,0.1,0.2c0.1,0,0.1,0,0.2,0c0.2-0.1,0.6-0.6,1.3-1.5
	c0.7-0.9,1.3-1.8,1.8-2.6c0,0,0,0,0-0.1c0.2-0.4,0.5-0.6,0.7-0.7c0.2-0.1,0.9-0.1,2-0.1c0.1,0,0.1,0,0.2,0c0.2,0,0.4,0,0.6,0
	c0.7,0,1.1,0,1.2,0c0.2,0,0.4,0.2,0.5,0.4c0,0.1,0.1,0.5,0,1c0,0.2,0,0.4,0,0.5c0,2.3-0.1,4.5-0.2,6.6c-0.1,2.1-0.3,3.5-0.5,4.4
	c-0.1,0.5-0.3,0.9-0.5,1.1c-0.2,0.2-0.6,0.4-1,0.4c-0.4,0-1.1,0-2.1-0.1c-0.5,0-0.8-0.1-0.9,0c-0.1,0-0.1,0.1-0.1,0.2
	c0,0.1,0.2,0.2,0.6,0.3c1.5,0.4,2.2,1,2.2,2.1C231.8,47.9,231.8,48,231.9,48z M220.7,44c-0.6,0-0.9,0-1.1-0.1
	c-0.2-0.1-0.3-0.3-0.4-0.6c0-0.2-0.1-0.8,0-1.7c0-0.4,0-0.7,0-0.9c0-0.2,0-0.5,0-0.8c0-0.8,0-1.4,0-1.6c0.1-0.3,0.2-0.5,0.4-0.6
	c0.1-0.1,0.5-0.1,1.1-0.1c0.2,0,0.4,0,0.6,0c0.1,0,0.3,0,0.6,0c0.6,0,0.9,0,1.1,0.1c0.2,0.1,0.3,0.3,0.4,0.6c0,0.2,0,0.8,0,1.6
	c0,0.4,0,0.6,0,0.8c0,1.5,0,2.3,0,2.6c0,0.3-0.1,0.4-0.2,0.5c-0.1,0.1-0.2,0.1-0.4,0.1c-0.1,0-0.6,0-1.4,0
	C221.1,44,220.9,44,220.7,44z M230.4,40.6c0.4,0.1,0.7,0.1,1-0.1c0.3-0.2,0.5-0.6,0.5-1c0-0.7-0.2-1.4-0.8-2
	c-0.5-0.7-1.3-1.3-2.4-1.8c-0.6-0.3-0.9-0.4-1-0.4c-0.1,0,0,0.3,0.3,0.7c1,1.5,1.6,2.9,1.8,4.1C229.8,40.3,230,40.5,230.4,40.6z
	 M220.7,37c-0.6,0-0.9,0-1.1-0.1c-0.2-0.1-0.3-0.3-0.4-0.6c0-0.2-0.1-0.7,0-1.6c0-0.4,0-0.7,0-0.9c0-0.2,0-0.4,0-0.8
	c0-0.8,0-1.3,0-1.5c0.1-0.3,0.2-0.5,0.4-0.6c0.1,0,0.5-0.1,1-0.1c0.2,0,0.4,0,0.6,0s0.3,0,0.6,0c0.6,0,0.9,0,1.1,0.1
	c0.2,0.1,0.3,0.2,0.4,0.6c0,0.2,0.1,0.7,0.1,1.5c0,0.3,0,0.6,0,0.7c0,1.4,0,2.2,0,2.5c0,0.3-0.1,0.4-0.2,0.5
	c-0.1,0.1-0.2,0.1-0.4,0.1c-0.1,0-0.6,0-1.4,0C221.1,37,220.9,37,220.7,37z M246.2,48.1c0.2,0.1,0.5,0.1,0.9-0.1
	c0.4-0.1,0.7-0.3,0.9-0.5c0.1-0.1,0.1-0.2,0.1-0.3c0-0.2,0-0.7,0-1.6c0,0,0-0.1,0-0.1c0-1,0-1.6,0-1.8c0-0.4,0.1-0.6,0.3-0.7
	c0.1-0.1,0.4-0.1,0.9-0.1c0,0,0.1,0,0.1,0c0.7,0,1,0.1,1.2,0.2c0.1,0.1,0.2,0.5,0.2,1.2c0,0.7-0.1,1.1-0.2,1.2
	c-0.1,0.1-0.4,0.2-0.9,0.2c-0.9,0-1,0.1-0.2,0.4c0.5,0.2,0.8,0.7,0.9,1.5v0c0,0.3,0.1,0.4,0.2,0.4c0.1,0,0.3,0,0.7-0.1
	c0.6-0.1,0.9-0.3,1.1-0.5c0.2-0.3,0.3-0.8,0.4-1.7c0-0.6,0.1-2.1,0.1-4.3c0-2.2,0-3.6,0-3.9c0-0.4,0.1-0.6,0.3-0.7l0,0
	c0.1,0,0.2-0.1,0.3-0.2c0.1-0.1,0.2-0.1,0.3,0c0.1,0,0.2,0.2,0.3,0.4c0.1,0.2,0.3,0.3,0.5,0.3c0.2,0,0.5,0,0.8-0.1
	c0.3-0.1,0.7-0.2,1.1-0.2c0.4,0,1.4,0,2.9,0c0.1,0,0.2,0,0.3,0c1.1,0,1.8,0,2.1,0c0.4,0,0.6,0.1,0.7,0.1c0,0.1,0,0.2-0.1,0.4
	l-0.1,0.1l0,0c-0.2,0.4-0.5,0.6-0.7,0.7c-0.2,0.1-0.9,0.1-2,0.1c-0.1,0-0.1,0-0.2,0c-0.1,0-0.2,0-0.3,0c-1,0-1.6,0-1.8,0
	c-0.2,0-0.6-0.2-1.1-0.4c0,0-0.1,0-0.1,0c0,0-0.1,0-0.2-0.1c-0.5-0.2-0.8-0.3-0.9-0.3c-0.1,0-0.1,0.2-0.1,0.5c0,0.1,0,0.1,0,0.2
	c0,0.7,0.1,1.7,0.1,3c0,0.2,0,0.4,0,0.7c0,0.9,0,1.4,0.1,1.5c0,0.1,0.2,0.2,0.4,0.2c0.1,0,0.1,0,0.1,0c0.4,0,0.6,0,0.7,0.2
	c0.1,0.1,0.3,0.4,0.4,0.9c0.3,1.1,0.4,1.7,0.1,1.9c-0.1,0.1-0.6,0.1-1.5,0.1c-0.9,0-1.6-0.1-2-0.1c-0.2,0-0.2,0.2,0.1,0.6
	c0,0,0,0.1,0.1,0.2c0.1,0.2,0.2,0.3,0.3,0.3s0.3,0,0.7-0.1c0.1,0,0.2,0,0.2,0c0.9-0.1,3-0.2,6.1-0.2c0.1,0,0.2,0,0.4,0
	c1.9,0,3.1,0,3.6,0c0.7,0,1-0.1,1.1-0.2c0-0.1-0.1-0.3-0.4-0.6l0,0c-0.6-0.6-1-1-1.3-1.1c-0.3-0.1-0.5,0-0.7,0.3
	c-0.4,0.5-0.7,0.8-0.8,0.9c-0.1,0.1-0.4,0.1-0.9,0.1c-0.6,0-0.9-0.1-1-0.2c0-0.2,0.3-0.6,0.8-1.2c0.6-0.6,0.9-1,1.1-1
	c0.2,0,0.3-0.1,0.3-0.2c0-0.1-0.1-0.2-0.2-0.2c-0.2-0.1-0.3-0.2-0.2-0.4c0.1-0.1,0.2-0.3,0.5-0.3c0.4-0.1,0.6-0.2,0.7-0.4
	c0.1-0.1,0.1-0.4,0.1-0.8c-0.1-1-0.1-1.6,0-1.9c0.1-0.3,0.2-0.6,0.5-0.7c0.3-0.2,0.4-0.3,0.4-0.5c-0.1-0.2-0.4-0.5-1-1
	c-0.4-0.4-0.6-0.6-0.6-0.7c0.1-0.1,0.5-0.2,1.2-0.2c0,0,0,0,0.1,0c0.6,0,0.9-0.1,1-0.1c0.1-0.1,0.2-0.2,0.1-0.3
	c0-0.1-0.3-0.3-0.6-0.7c-0.4-0.4-0.6-0.6-0.7-0.8c-0.1-0.2,0-0.3,0.1-0.4c0,0,0.1-0.8,0.1-2.4c0-0.1,0-0.2,0-0.2c0-1.1,0-1.8,0-2
	c0-0.4,0.1-0.7,0.1-0.8c0-0.1,0.2-0.2,0.3-0.2c0.3-0.1,0.4-0.3,0.3-0.6c-0.1-0.3-0.5-0.6-1.1-1.1c-0.4-0.3-0.6-0.4-0.7-0.4
	c-0.1,0-0.3,0.1-0.5,0.4c-0.4,0.6-0.9,0.8-1.2,0.6c-0.2-0.1-0.3-0.3-0.3-0.6c0-0.3,0.1-0.5,0.2-0.6c0.3-0.2-0.1-0.6-1.2-0.9
	c-0.3-0.1-0.4-0.1-0.4-0.1c0,0,0,0.1,0,0.4c0.2,1.5-0.1,2.2-0.9,1.8c-0.2-0.1-0.3-0.3-0.4-0.6c0-0.3,0-0.5,0.2-0.6
	c0.2-0.1,0.2-0.2,0-0.4c-0.1-0.1-0.5-0.3-1-0.5c-0.3-0.1-0.5-0.2-0.6-0.2c0,0-0.1,0.1,0,0.3c0.1,1.1,0,1.8-0.2,2
	c-0.3,0.2-0.9,0-2-0.4c-0.1,0-0.2-0.1-0.3-0.1c-0.4-0.2-0.6-0.2-0.6-0.2c0,0,0,0.2,0,0.6c0,0.1,0,0.2,0,0.3c0.2,1.7,0.2,2.9,0.1,3.7
	c-0.1,0.7-0.3,0.9-0.6,0.5c-0.1-0.1-0.2-0.1-0.3,0c-0.1,0.1-0.2,0.1-0.3,0.1c-0.1,0-0.2,0-0.3-0.1c0-0.1-0.1-0.7-0.1-1.9
	c0-1.2,0-1.9,0-2.1c0.1-0.3,0.3-0.5,0.5-0.6c0.4-0.1,0.5-0.3,0.4-0.5c-0.1-0.2-0.4-0.5-1-0.9c-0.5-0.3-0.8-0.5-0.9-0.5
	c-0.1,0-0.3,0.2-0.5,0.5c-0.2,0.3-0.4,0.5-0.6,0.5c-0.2,0-0.6,0.1-1.3,0.1c0,0-0.1,0-0.2,0c-0.6,0-1,0-1.2,0c-0.2,0-0.6-0.2-1.2-0.4
	l0,0c-0.5-0.2-0.8-0.3-0.9-0.3c-0.1,0-0.1,0-0.1,0.2c0.1,0.6,0.2,1.6,0.2,3.1c0.1,1.5,0.1,2.4,0,2.7c0,0.2-0.1,0.3-0.2,0.4
	c-0.1,0.1-0.1,0.1-0.2,0c-0.1-0.2-0.2-0.2-0.2-0.1c-0.1,0.1-0.1,0.2-0.1,0.4c-0.1,0.7-0.4,1.3-0.9,1.8c-0.3,0.3-0.5,0.7-0.4,1
	c0,0.3,0.2,0.5,0.5,0.6c0.3,0.1,0.7,0,1-0.3c0.3-0.2,0.5-0.1,0.6,0.3c0.1,0.5,0.1,2,0.1,4.4c0,2.5,0,4.5-0.1,6.1c0,0.5,0,0.8,0,0.9
	C246,48,246.1,48.1,246.2,48.1z M259.4,46.7c-0.3,0.1-0.6,0.2-0.8,0c-0.2-0.1-0.2-0.3-0.1-0.6c0.3-0.8-0.1-1.6-1.1-2.4
	c-0.3-0.2-0.5-0.5-0.6-0.7s0.1-0.4,0.4-0.6c0.1-0.1,0.9-0.1,2.2-0.1c1.3,0,2,0,2.1,0.1c0.4,0.2,0.4,0.4,0.2,0.6
	c-0.2,0.2-0.5,0.2-0.9,0c-0.2-0.1-0.3-0.1-0.3-0.1c0,0-0.1,0.1-0.1,0.2c0,0.5-0.1,1.4-0.4,2.7C259.8,46.3,259.7,46.6,259.4,46.7z
	 M249.4,42.3c-0.7,0-1-0.1-1.2-0.2c-0.1-0.1-0.2-0.5-0.2-1.1s0.1-1,0.2-1.1c0.1-0.1,0.5-0.2,1.2-0.2s1,0.1,1.2,0.2
	c0.1,0.1,0.2,0.5,0.2,1.1c0,0.4,0,0.7-0.1,0.8c0,0.1-0.1,0.2-0.2,0.3c-0.1,0.1-0.2,0.1-0.3,0.1C250.1,42.3,249.9,42.3,249.4,42.3z
	 M261.5,41.7c-0.1,0.1-0.9,0.1-2.2,0.1c-1.3,0-2-0.1-2.2-0.1c-0.2-0.1-0.3-0.5-0.3-1.2s0.1-1,0.3-1.2c0.1-0.1,0.8-0.1,2.2-0.1
	c1.3,0,2.1,0,2.2,0.1c0.2,0.1,0.3,0.5,0.3,1.2C261.8,41.2,261.7,41.6,261.5,41.7z M249.4,39.1c-0.6,0-0.9,0-1-0.1
	c-0.2-0.1-0.3-0.4-0.3-0.9c-0.1-0.6,0-1,0.1-1.2s0.5-0.3,1.2-0.3s1.1,0.1,1.3,0.3c0.1,0.2,0.2,0.6,0.1,1.2c-0.1,0.6-0.2,0.9-0.4,1
	C250.3,39.1,250,39.1,249.4,39.1z M253.6,36.3c0,0.1-0.1,0.1-0.4-0.1c-0.2-0.2-0.3-0.4-0.2-0.6c0-0.2,0.2-0.4,0.6-0.6
	c0.2-0.1,0.4-0.2,0.5-0.1c0.1,0,0.2,0.2,0.2,0.4c0,0.2,0.1,0.3,0.4,0.3c0.3,0,0.6,0,0.8-0.1c0.3-0.1,0.5-0.3,0.5-0.5
	c0-0.2,0.2-0.3,0.4-0.4c0.1,0,1-0.1,2.8-0.1c1.8,0,2.7,0,2.8,0c0.1,0,0.2,0.1,0.3,0.2c0.1,0.1,0.1,0.2,0.1,0.2
	c0,0.2,0.1,0.3,0.2,0.3c0.2,0,0.2,0.2,0.1,0.5c-0.1,0.3-0.3,0.5-0.6,0.6c-0.1,0-1.3,0.1-3.4,0c-2.2,0-3.4,0-3.8-0.1
	C254.1,36.2,253.6,36.2,253.6,36.3z M249.2,36c-0.7,0-1.1,0-1.3-0.1c-0.8-0.3-1.4-0.6-1.8-0.8c-0.3-0.3-0.4-0.6-0.2-0.8
	c0.1-0.1,0.3-0.2,0.6-0.2c0.3,0,1.2,0,2.7,0c1.2,0,1.9,0,2.2,0c0.4,0,0.7,0,0.8,0.1c0.1,0,0.2,0.1,0.2,0.2c0.1,0.3,0,0.5-0.2,0.6
	c-0.2,0.2-0.4,0.2-0.6,0c-0.1-0.1-0.2-0.1-0.2-0.1c0,0-0.1,0.1-0.2,0.2c-0.4,0.4-0.6,0.7-0.8,0.7C250.3,35.9,249.9,36,249.2,36z
	 M259.6,33.8c-0.7,0.3-1,0-1-1c0-0.5,0.1-0.8,0.3-1c0.2-0.2,0.4-0.2,0.7,0c0.3,0.1,0.4,0.5,0.4,1S259.9,33.7,259.6,33.8z
	 M262.2,33.8c-0.2,0.1-0.3,0.1-0.5,0.1c-0.2-0.1-0.3-0.2-0.4-0.3c0-0.1-0.1-0.4-0.1-0.8c0-0.5,0.1-0.8,0.3-1c0.2-0.2,0.4-0.2,0.7,0
	c0.2,0.1,0.3,0.4,0.3,1C262.5,33.3,262.4,33.6,262.2,33.8z M256.8,33.9c-0.1,0-0.2,0-0.3,0c-0.2-0.1-0.3-0.2-0.4-0.3
	c0-0.1-0.1-0.4-0.1-0.8c0-0.5,0.1-0.8,0.3-1c0.2-0.2,0.4-0.2,0.7,0c0.2,0.1,0.3,0.4,0.2,1c0,0.5-0.1,0.8-0.3,1
	C257,33.8,256.9,33.9,256.8,33.9z M250.8,33.2c-0.2,0.1-0.3,0.1-0.5,0.1c-0.2-0.1-0.3-0.2-0.4-0.3s-0.1-0.4-0.1-1
	c0-1.4,0.3-1.8,1-1.4c0.2,0.1,0.3,0.6,0.3,1.3S251,33.1,250.8,33.2z M248.1,33.3c-0.2,0-0.3,0-0.4-0.1c-0.1-0.1-0.1-0.3-0.1-0.7
	c0-0.3,0-0.9,0-1.9c0-0.2,0-0.4,0-0.7c0-0.8,0-1.3,0-1.5c0-0.3,0.1-0.5,0.3-0.5c0.1-0.1,0.4-0.1,0.9-0.1c0.2,0,0.3,0,0.4,0
	c0.8,0,1.4,0,1.5,0.1s0.2,0.4,0.2,0.9c0,0.6-0.1,0.9-0.4,1c-0.3,0.1-0.8-0.1-1.7-0.5c0,0,0,0-0.1,0c-0.3-0.1-0.4-0.2-0.4-0.1
	c0,0,0,0.2,0,0.5c0,0,0,0.1,0,0.1c0.1,1.2,0.2,2.1,0.1,2.6c0,0.5-0.1,0.8-0.2,0.9C248.3,33.3,248.2,33.3,248.1,33.3z M257.1,31
	c-0.4,0.2-0.6,0.1-0.9-0.3c-0.2-0.4-0.2-0.8-0.1-1.4c0-0.2,0.2-0.3,0.4-0.4c0.2-0.1,0.4-0.1,0.6,0c0.2,0.1,0.3,0.5,0.3,1
	S257.3,30.9,257.1,31z M259.7,30.9c-0.3,0.2-0.6,0.2-0.8,0c-0.2-0.2-0.3-0.5-0.3-1c0-0.5,0.1-0.8,0.3-1c0.2-0.2,0.5-0.2,0.8,0
	c0.2,0.1,0.3,0.4,0.3,0.9C260,30.5,259.9,30.8,259.7,30.9z M262.2,31c-0.3,0.1-0.5,0.1-0.7,0c-0.2-0.2-0.2-0.5-0.2-0.9
	s0.1-0.8,0.2-0.9c0.2-0.2,0.4-0.2,0.7-0.1c0.2,0.1,0.3,0.4,0.3,1S262.4,30.9,262.2,31z M285.3,47.9c0,0.3,0.5,0.1,1.2-0.4
	c0.8-0.6,1.5-1.2,2.1-2c0.4-0.4,0.6-0.6,0.8-0.6c0.2,0,0.5,0.3,0.9,0.8c0.4,0.5,0.8,1,1.1,1.6c0.3,0.4,0.6,0.7,0.9,0.7
	c0.4,0,0.6-0.2,0.8-0.5c0.2-0.4,0.2-0.8-0.1-1.3c-0.4-0.8-1.1-1.4-2.3-1.9c-0.4-0.2-0.7-0.3-0.7-0.5c0-0.1,0-0.4,0.2-0.9
	c0.3-0.6,0.5-0.9,0.7-1c0.3-0.1,0.2-0.2,0-0.4c-0.3-0.2-0.8-0.4-1.7-0.6c-0.4-0.1-0.6-0.2-0.6-0.2s-0.1,0.1-0.1,0.3
	c0,0.4-0.1,1-0.3,1.8c-0.2,0.8-0.4,1.4-0.6,1.8c-0.2,0.4-0.3,0.6-0.5,0.6c-0.1,0-0.3-0.1-0.4-0.4c-0.3-0.5-0.7-0.8-1.3-1.1
	c-0.3-0.1-0.5-0.2-0.6-0.4c-0.1-0.1-0.1-0.3,0-0.6c0.1-0.5,0.4-0.8,0.6-0.9c0.2-0.1,0.2-0.2,0-0.4c-0.2-0.2-0.7-0.4-1.6-0.7l0,0
	c-0.4-0.1-0.7-0.2-0.7-0.2c-0.1,0-0.1,0.1-0.1,0.3c-0.1,1.2-0.4,2.4-0.9,3.6c-0.5,1.1-1.1,2-1.9,2.8c-0.2,0.2-0.3,0.4-0.3,0.5
	c0.1,0.2,0.5,0,1.3-0.6s1.5-1.3,2-2c0.4-0.5,0.6-0.7,0.7-0.8c0.1-0.1,0.3-0.1,0.5,0c0.1,0.1,0.2,0.3,0.3,0.5
	c0.1,0.3,0.2,0.5,0.3,0.7c0.1,0.4,0.4,0.6,0.8,0.6c0.2,0,0.3,0.1,0.3,0.3s-0.2,0.4-0.5,0.7C285.4,47.7,285.3,47.8,285.3,47.9z
	 M277,48c0.1,0.1,0.3,0.1,0.6,0c0.4-0.1,0.7-0.2,1-0.3c0.7-0.3,1.2-1,1.4-2c0.3-1.1,0.5-3,0.7-5.8c0-0.6,0.2-1,0.3-1.1
	c0.3-0.1,0.4,0.2,0.4,0.9c0,0.4,0,0.7,0.1,0.8c0.1,0.1,0.3,0.1,0.6,0.1c0.6-0.1,0.9-0.3,0.9-0.5c0-0.3,0.2-0.5,0.6-0.5
	c0.4-0.1,0.8,0,0.9,0.3c0.1,0.1,0.1,0.2,0.1,0.3c0,0.2,0.1,0.2,0.3,0.3c0.2,0,0.5,0,0.8-0.2c0,0,0,0,0.1,0c0.2-0.1,0.3-0.2,0.3-0.3
	c0-0.2,0-0.6,0-1.4c0-0.1,0-0.2,0-0.3c0-1.2,0-1.9,0-2.1c0-0.3,0.2-0.5,0.4-0.6c0.5-0.3,0.7,1.1,0.5,4c0,0.6,0,0.9,0.1,1
	c0.1,0.1,0.3,0.1,0.7,0.1c0.5-0.1,0.8-0.3,0.8-0.6c0-0.3,0.2-0.4,0.6-0.5c0.4-0.1,0.8,0,0.9,0.3c0.1,0.1,0.1,0.2,0.1,0.3
	c0,0.2,0.1,0.3,0.4,0.3c0.2,0,0.5-0.1,0.9-0.2l0,0c0.2-0.1,0.3-0.2,0.3-0.3c0-0.1,0-0.4,0-0.9c0-0.1,0-0.1,0-0.2
	c-0.1-1.3-0.1-2.2,0-2.6c0.1-0.4,0.2-0.7,0.4-0.8c0.2-0.1,0.3-0.2,0.2-0.3c0-0.1-0.2-0.3-0.4-0.6c-0.4-0.4-0.8-0.7-1-0.7
	c-0.2-0.1-0.4,0-0.6,0.3c-0.3,0.5-0.7,0.7-1.1,0.7c-0.4,0-1-0.2-1.9-0.5c0,0,0,0-0.1,0c-0.4-0.1-0.6-0.2-0.6-0.2
	c-0.1,0-0.1,0.1-0.1,0.2c0,0.3-0.1,0.4-0.2,0.4c-0.1,0-0.4-0.2-0.7-0.5c-0.3-0.2-0.5-0.3-0.6-0.3c-0.1,0-0.3,0.1-0.4,0.3
	c-0.3,0.4-0.6,0.7-1,0.7c-0.4,0-1-0.1-1.8-0.4c-0.6-0.3-0.9-0.4-1-0.3c-0.1,0.1-0.1,0.1-0.2,0c-0.1,0-0.1-0.1-0.1-0.3
	c0-0.1,0.1-0.2,0.3-0.3c0,0,0.1,0,0.1,0c0.3-0.2,0.6-0.4,0.9-0.6c0.5-0.3,0.8-0.5,0.9-0.5c0.2,0,0.3,0.2,0.5,0.5
	c0.1,0.2,0.1,0.3,0.2,0.3c0,0,0.2,0,0.3,0c0.3-0.1,0.7-0.2,1-0.2c0.4,0,1.1,0,2.3,0c1.3,0,2.1,0,2.4,0c0.3,0,0.4-0.2,0.4-0.4
	s0.1-0.3,0.2-0.2c0.1,0,0.4,0.2,0.9,0.6c0.5,0.4,0.7,0.6,0.8,0.6c0.1,0,0.2-0.1,0.2-0.3c0.1-0.3,0.2-0.6,0.4-1
	c0.2-0.4,0.4-0.6,0.6-0.7s0.2-0.2,0.2-0.3c0-0.1-0.2-0.2-0.4-0.2c-1.5-0.5-2.8-1.2-4-2.1c-0.3-0.3-0.6-0.5-1-0.8
	c-0.3-0.3-0.5-0.5-0.5-0.6c0-0.2,0.1-0.3,0.2-0.4c0.4-0.2-0.3-0.6-2.1-1.1c0,0,0,0-0.1,0c-0.2-0.1-0.4-0.1-0.5-0.1
	c0,0-0.1,0.2-0.2,0.5c0,0,0,0.1,0,0.1c-0.4,1.2-0.9,2.4-1.6,3.6c-0.7,1.2-1.6,2.2-2.5,3.2c-0.2,0.2-0.4,0.3-0.5,0.3
	c-0.1,0-0.4-0.1-0.7-0.3c-0.1-0.1-0.3-0.1-0.3-0.1c-0.1,0-0.2,0.2-0.4,0.4c-0.4,0.6-0.7,0.8-0.9,0.7c-0.2-0.1-0.3-0.5-0.3-1.3v0
	c0-0.4,0-0.7,0.1-0.9c0-0.2,0.2-0.3,0.5-0.3c0.2,0,0.6,0,1.2,0c0.9,0,1.5-0.1,1.6-0.2c0.1-0.1-0.1-0.5-0.6-1
	c-0.5-0.4-0.8-0.7-0.9-0.7s-0.4,0.2-0.6,0.6c-0.4,0.5-0.7,0.7-0.9,0.6c-0.2-0.1-0.3-0.6-0.3-1.3c0,0,0-0.1,0-0.1
	c0-0.4,0-0.7,0.1-0.8c0.1-0.2,0.2-0.3,0.5-0.3c0.2,0,0.6,0,1.3,0c0.1,0,0.2,0,0.2,0c1.1,0,1.6-0.1,1.8-0.2c0.1-0.1-0.1-0.5-0.7-1
	c-0.6-0.5-1-0.8-1.1-0.8c-0.2,0-0.4,0.2-0.7,0.6c0,0,0,0.1-0.1,0.1c-0.2,0.3-0.4,0.5-0.6,0.5c-0.2,0-0.7,0.1-1.5,0.1
	c-0.1,0-0.3,0-0.3,0c-0.1,0-0.2,0-0.4,0c-0.7,0-1.2,0-1.4,0c-0.2,0-0.6-0.2-1.2-0.4c-0.1,0-0.2-0.1-0.2-0.1c0,0,0,0-0.1,0
	c-0.4-0.2-0.7-0.3-0.7-0.2c-0.1,0-0.1,0.2,0,0.5c0,0,0,0.1,0,0.1c0.1,1.1,0.2,2.8,0.2,5.1c0,2.3,0,4.2-0.1,5.7
	c-0.1,0.8-0.1,1.2,0,1.4c0.1,0.2,0.3,0.2,0.6,0.2c0.4,0,0.7-0.1,0.9-0.2s0.4-0.4,0.4-0.6c0-0.3,0.1-0.5,0.3-0.5
	c0.2-0.1,0.9-0.1,2-0.1c0,0,0.1,0,0.1,0c0.8,0,1.3,0,1.5,0c0.3,0,0.5,0.2,0.5,0.3c0,0.1,0,0.4,0,0.8v0c0,0.4-0.1,0.7-0.2,0.8
	c-0.1,0.1-0.3,0-0.7-0.2c-0.5-0.3-1-0.5-1.2-0.5c-0.3,0-0.3,0.1,0,0.4c0.4,0.4,0.8,1.1,1.2,2.1c0,0.1,0.1,0.2,0.3,0.2
	c0.2,0.1,0.3,0.3,0.3,0.6c0,0.3,0,0.7-0.1,1.3c-0.2,0.8-0.4,1.3-0.6,1.5c-0.3,0.2-0.8,0.2-1.7,0.2c-0.4,0-0.7,0-0.8,0
	c-0.1,0-0.1,0-0.1,0.1c0,0.1,0,0.1,0.1,0.2s0.2,0.1,0.5,0.2c0.3,0.1,0.6,0.3,0.8,0.6c0.2,0.3,0.3,0.6,0.3,0.8
	C276.9,47.8,277,47.9,277,48z M272,46c0.5,0.2,1-0.1,1.3-0.9c0.3-0.8,0.4-1.7,0.2-2.8c-0.2-1-0.3-1.6-0.4-1.6s-0.2,0.1-0.2,0.3
	c0,0.6-0.1,1.2-0.3,1.8c-0.2,0.6-0.4,1.1-0.7,1.5c-0.3,0.3-0.4,0.6-0.3,0.9C271.6,45.7,271.8,45.9,272,46z M274.5,45
	c0.3,0.2,0.6,0.1,0.8-0.3c0.2-0.4,0.3-0.9,0.2-1.5c-0.1-0.6-0.3-1.2-0.6-1.8c-0.3-0.6-0.6-0.9-0.8-0.9c-0.1,0-0.1,0.1-0.1,0.1
	c0,0.1,0,0.2,0.1,0.5c0.1,0.7,0.2,1.6,0.2,2.7c0,0.5,0,0.8,0,0.9C274.3,44.8,274.4,44.9,274.5,45z M276.6,44
	c0.4,0.2,0.6,0.1,0.8-0.1s0.2-0.7,0-1.2c-0.1-0.5-0.4-1-0.7-1.5c-0.4-0.6-0.8-0.9-1.1-1c-0.3-0.1-0.3,0.1-0.1,0.6
	c0.2,0.4,0.3,0.9,0.5,1.5s0.3,1.1,0.3,1.3C276.3,43.7,276.4,43.9,276.6,44z M284.3,38.8c-0.2,0.1-0.4,0.1-0.7,0.1
	c-0.3-0.1-0.4-0.2-0.5-0.3c-0.1-0.1-0.1-0.6-0.1-1.4s0-1.3,0.1-1.4c0.2-0.2,0.4-0.3,0.7-0.3s0.6,0.1,0.7,0.3
	c0.1,0.1,0.1,0.6,0.1,1.4c0,0.7,0,1.1,0,1.3C284.5,38.6,284.4,38.7,284.3,38.8z M290,38.8c-0.2,0.1-0.4,0.1-0.7,0.1
	c-0.3-0.1-0.4-0.2-0.5-0.3c-0.1-0.1-0.1-0.6-0.1-1.4s0-1.3,0.1-1.4c0.2-0.2,0.4-0.3,0.7-0.3s0.6,0.1,0.7,0.3
	c0.1,0.1,0.1,0.6,0.1,1.4c0,0.7,0,1.1,0,1.3C290.3,38.6,290.2,38.7,290,38.8z M278.7,37.6c-0.4,0.1-0.6,0-0.7-0.1
	c-0.1-0.2-0.2-0.6-0.2-1.3c0-0.5,0-0.8,0.1-0.9c0.1-0.2,0.2-0.3,0.5-0.3c0.2,0,0.6,0,1.2,0c0.8,0,1.2,0,1.3,0c0.2-0.1,0.3,0,0.4,0.2
	c0.1,0.2,0.1,0.7,0.1,1.3c0,0.8,0,1.2-0.2,1.2c-0.1,0.1-0.5-0.2-1.1-0.6c-0.2-0.2-0.3-0.2-0.4-0.2c-0.1,0-0.2,0.1-0.4,0.3l0,0
	C279,37.4,278.8,37.6,278.7,37.6z M275.8,37.6c-0.2,0.1-0.4,0.1-0.7,0.1c-0.3-0.1-0.4-0.2-0.5-0.3c-0.1-0.1-0.1-0.5-0.1-1
	c0-0.6,0.1-0.9,0.1-1.1c0.1-0.2,0.2-0.3,0.5-0.3c0.2-0.1,0.5,0,0.7,0.1c0.2,0.1,0.4,0.5,0.4,1.3C276.1,37.1,276,37.5,275.8,37.6z
	 M275.8,34.2c-0.2,0.1-0.4,0.1-0.7,0.1c-0.3,0-0.5-0.2-0.5-0.3c-0.1-0.1-0.1-0.4-0.1-1c0-0.5,0.1-0.9,0.1-1c0.1-0.2,0.2-0.3,0.5-0.3
	c0.2-0.1,0.5,0,0.7,0.1c0.2,0.1,0.4,0.5,0.4,1.2C276.1,33.6,276,34.1,275.8,34.2z M287.2,32.1c-0.2,0.1-0.7,0.1-1.7,0.1
	c-1,0-1.5-0.1-1.7-0.2c-0.1-0.1-0.2-0.2-0.1-0.3c0.1-0.1,0.3-0.4,0.7-0.8c0.7-0.7,1.4-1.5,1.9-2.3c0.4-0.5,0.6-0.8,0.7-0.8
	c0.1,0,0.3,0.2,0.6,0.6c0.1,0.3,0.4,0.7,0.8,1.3c0.4,0.6,0.6,0.9,0.6,1.1c0,0.2-0.1,0.2-0.4,0.1c-0.1,0-0.2,0-0.3,0
	c-0.1,0-0.2,0.2-0.4,0.4C287.7,31.8,287.4,32.1,287.2,32.1z M275.8,30.9c-0.2,0.1-0.4,0.1-0.7,0.1c-0.3,0-0.5-0.2-0.5-0.3
	c-0.1-0.1-0.1-0.4-0.1-1c0-0.5,0.1-0.9,0.1-1c0.1-0.2,0.2-0.3,0.5-0.3c0.2-0.1,0.5,0,0.7,0.1c0.2,0.1,0.4,0.5,0.4,1.2
	C276.1,30.3,276,30.8,275.8,30.9z M308.6,39.8c0.1,0.2,0.2,0.3,0.4,0.3c0.2,0,0.5-0.2,0.9-0.6c0.9-0.7,1.6-1.6,2-2.8
	c0.4-1.1,0.4-2.1,0.1-2.9c-0.3-0.9-0.9-1.3-1.8-1.2c-0.6,0-1,0.3-1.3,0.7c-0.2,0.4-0.3,0.9-0.1,1.4c0.2,0.5,0.5,1,1.1,1.3
	c0.3,0.2,0.5,0.3,0.6,0.5c0.1,0.1,0.1,0.2,0.1,0.4c-0.1,0.4-0.3,0.8-0.6,1.3c-0.4,0.5-0.8,0.8-1.2,1.2c-0.2,0.1-0.3,0.2-0.3,0.3
	C308.5,39.6,308.5,39.7,308.6,39.8z M35.7,72c0,0.1,0.4,0.1,1.1-0.1c0.7-0.1,1.2-0.3,1.6-0.6c0.4-0.3,0.6-0.7,0.7-1.2
	c0.1-0.2,0.1-2.9,0.1-8.3c0-0.2,0-0.4,0-0.5c0-5.6,0-8.5,0.1-8.5c0.1-0.1,0.2-0.2,0.4-0.2c0.2,0,0.6-0.1,1.4-0.1
	c1.1,0,1.6-0.1,1.7-0.3c0-0.2-0.4-0.7-1.4-1.5c0,0,0,0-0.1-0.1c-0.5-0.4-0.8-0.6-1-0.6c-0.1,0-0.4,0.3-0.7,0.7c0,0-0.1,0.1-0.1,0.1
	c-0.4,0.5-0.7,0.8-0.9,0.9c-0.2,0-2.7,0-7.7,0c-5.2,0-8.3,0-9.3-0.1c-0.2,0-0.3,0-0.3,0c0,0,0.1,0.2,0.2,0.6c0,0,0,0.1,0,0.1
	c0.1,0.2,0.2,0.4,0.3,0.4c0.1,0,0.2,0,0.6,0c0.7-0.1,1.4-0.2,2.1-0.2c0.7,0,2.6,0,5.9,0c0.3,0,0.8,0,1.3,0c2.6,0,4.1,0,4.5,0
	c0.4,0,0.7,0.1,0.8,0.2l0,0c0.1,0.1,0.1,2.8,0.1,8.1c0,5.3,0,8-0.1,8.2c-0.1,0.2-0.3,0.3-0.6,0.4c-0.3,0-1.1,0-2.5-0.1
	c-0.8,0-1.3-0.1-1.4-0.1c-0.1,0-0.2,0.1-0.2,0.1c0,0.1,0.2,0.2,0.5,0.2c1.8,0.3,2.8,1,3,2.1l0,0C35.7,71.9,35.7,72,35.7,72z
	 M24,67.2c0.3,0.2,0.7,0.1,1.3-0.1c0.5-0.3,0.8-0.6,0.8-0.9c0,0,0,0,0-0.1c-0.1-0.6-0.1-1,0-1.2c0-0.2,0.2-0.4,0.6-0.4
	c0.2,0,0.8-0.1,1.7-0.1c0,0,0.1,0,0.1,0c0,0,0.1,0,0.2,0c0.8,0,1.3,0,1.5,0c0.3,0,0.5,0.1,0.6,0.3c0,0.1,0.1,0.3,0,0.6v0.1
	c0,0.5,0.1,0.8,0.4,0.9c0.3,0.1,0.8,0,1.4-0.4l0,0c0.3-0.1,0.4-0.2,0.4-0.4c0-0.1,0-0.4,0-1c0-0.6-0.1-1.8-0.1-3.6
	c0-1.8,0-2.8,0-2.9c0.1-0.3,0.2-0.5,0.5-0.6c0.3-0.1,0.4-0.2,0.3-0.4c0-0.1-0.2-0.4-0.6-0.7c-0.7-0.6-1.1-1-1.3-1.1
	c-0.2-0.1-0.4,0.1-0.7,0.4c0,0-0.1,0.1-0.1,0.2c-0.2,0.3-0.5,0.5-0.6,0.6c-0.2,0-0.7,0.1-1.6,0.1c-0.2,0-0.4,0-0.5,0
	c-0.1,0-0.3,0-0.5,0c-0.8,0-1.4,0-1.6,0c-0.2,0-0.6-0.2-1.1-0.4c-0.1,0-0.2-0.1-0.2-0.1c0,0-0.1-0.1-0.2-0.1
	c-0.4-0.2-0.7-0.3-0.8-0.3c-0.1,0-0.1,0.2,0,0.5c0,0.1,0,0.1,0,0.1c0.1,1.1,0.2,2.7,0.2,4.6c0,1.9,0,3.6-0.1,5.2c0,0.4,0,0.7,0,0.8
	C23.8,67,23.9,67.1,24,67.2z M28.4,63.7c-1.3,0-2,0-2.1-0.1c-0.1-0.1-0.2-0.3-0.3-0.6c0-0.3,0-1.2,0-2.6c0-0.2,0-0.5,0-0.9
	c0-0.8,0-1.3,0-1.6c0.1-0.3,0.2-0.5,0.5-0.6c0.2,0,0.6-0.1,1.2,0c0.3,0,0.5,0,0.7,0c0.2,0,0.4,0,0.7,0c0.6,0,1,0,1.2,0
	c0.2,0.1,0.4,0.3,0.5,0.6c0,0.2,0,0.7,0,1.6c0,0.4,0,0.7,0,0.9c0,1.5,0,2.4,0,2.6c0,0.3-0.1,0.5-0.2,0.6
	C30.4,63.7,29.7,63.7,28.4,63.7z M54.3,71.9c0,0.1,0.2,0.1,0.5,0c0.3-0.1,0.9-0.3,1.8-0.6c2.8-1.1,5.2-2.5,7.1-4.4
	c0.4-0.4,0.7-0.6,0.8-0.7c0.2-0.1,0.4-0.1,0.6,0.1c0.1,0.1,0.4,0.5,0.9,1.1c0.8,1.1,1.5,2.2,2,3.2c0.3,0.5,0.4,0.8,0.5,0.9
	c0.1,0.1,0.3,0.2,0.6,0.3c0.6,0.1,0.9-0.1,1.2-0.6c0.2-0.5,0.2-1.1-0.1-1.8c-0.5-1.3-1.8-2.6-3.8-3.6c-0.5-0.3-0.8-0.5-0.9-0.6
	c0-0.2,0-0.5,0.3-0.9c0.7-1.3,1.3-2.8,1.6-4.3c0.3-1.5,0.6-3.6,0.7-6.3c0-0.6,0-1,0.1-1.2c0.1-0.2,0.2-0.3,0.3-0.4
	c0.3-0.2,0.3-0.3,0-0.4c-0.3-0.1-1-0.2-2.1-0.4c-0.4,0-0.7-0.1-0.8,0c-0.1,0-0.1,0.1-0.1,0.1c0.1,0.3,0.1,1.4,0.1,3.2
	c-0.1,4.1-0.9,7.5-2.5,10.1c-1.6,2.6-4.3,4.8-8,6.6c-0.5,0.2-0.7,0.4-0.8,0.4C54.3,71.7,54.3,71.8,54.3,71.9z M50.1,70.1
	c0.1,0.1,0.2,0,0.3-0.1c0.2-0.2,0.4-0.4,0.6-0.5c0.2-0.1,0.8-0.4,1.6-0.9c1.8-0.9,3.5-1.8,5.1-2.7c1.6-1,2.5-1.5,2.5-1.6
	c0-0.1-0.1-0.1-0.3-0.1c-0.2,0-1,0.3-2.3,0.7c-1.4,0.4-2.2,0.7-2.5,0.8c-0.3,0.1-0.5,0.1-0.6,0c-0.1-0.1-0.2-0.5-0.2-1.1
	c0-0.7-0.1-2.7-0.1-5.9c0-0.3,0-0.8,0-1.4c0-1.9,0-3.2,0-3.7c0-0.7,0-1.2,0-1.4c0-0.1,0.1-0.3,0.2-0.3l0,0c0.2-0.2,0.2-0.3,0.1-0.4
	c-0.2-0.1-0.6-0.2-1.2-0.2c-0.9-0.1-1.3-0.1-1.3,0c0,0.1,0,2.6,0.1,7.3c0,0.3,0,0.6,0,1.1c0,3.3,0.1,5.3,0.1,5.9c0,0.6,0,0.9-0.1,1
	c-0.1,0.2-1,0.6-2.5,0.9c-0.4,0.1-0.5,0.1-0.5,0.2c0,0,0.2,0.4,0.5,1.2C49.9,69.6,50.1,70,50.1,70.1z M60.7,59.8
	c0.5,0.2,1,0,1.2-0.4c0.3-0.4,0.3-1,0-1.7c-0.5-1.4-1.9-2.6-4.2-3.5c-0.5-0.2-0.8-0.3-0.8-0.2c0,0.1,0.1,0.3,0.5,0.7
	c1.3,1.6,2.1,3,2.6,4.3C60.1,59.5,60.4,59.7,60.7,59.8z M95.3,71c0,0.9,0.6,1.1,1.8,0.5c0,0,0.1,0,0.1,0c0.2-0.1,0.3-0.2,0.3-0.3
	c0-0.1,0-0.4,0-0.9c0-0.2,0-0.3,0-0.4c0-1-0.1-2.4-0.1-4.3c0-1.8,0-2.8,0-3c0.1-0.3,0.2-0.5,0.4-0.5c0.3,0,0.4-0.1,0.3-0.4
	c-0.1-0.3-0.4-0.6-0.9-0.9c-0.4-0.3-0.7-0.5-0.9-0.5s-0.4,0.2-0.6,0.5c-0.2,0.3-0.4,0.5-0.6,0.5c-0.1,0.1-0.3,0.1-0.7,0.1
	c-0.3,0-0.6,0-0.6-0.1c-0.1-0.1-0.2-0.3-0.2-0.6c0-0.2,0-0.8,0-1.7c0-0.2,0-0.4,0-0.7c0-0.6,0-1,0-1.2c0.1-0.2,0.2-0.4,0.4-0.5
	c0.2,0,0.6-0.1,1.2,0c0.3,0,0.5,0,0.6,0c1.5,0,2.3-0.1,2.5-0.4c0.1-0.2-0.3-0.8-1.4-1.6c-0.3-0.2-0.5-0.3-0.6-0.3
	c-0.1,0-0.3,0.3-0.6,0.7c-0.3,0.4-0.5,0.7-0.6,0.8c-0.1,0.1-0.4,0.1-0.7,0.1c-0.3,0-0.5,0-0.6-0.1c-0.1-0.1-0.2-0.3-0.2-0.6
	c0-0.2,0-0.8,0-1.7c0-1,0-1.6,0-1.9c0-0.2,0.1-0.4,0.3-0.6c0.2-0.2,0.2-0.3-0.1-0.5c-0.3-0.2-0.9-0.4-1.9-0.6c0,0-0.1,0-0.1,0
	C91.6,50,91.4,50,91.3,50c0,0-0.1,0.2,0,0.4v0.1c0.1,0.7,0.1,1.3,0.2,1.9c0,0.7,0,2.1,0,4.2c0,0.2,0,0.5,0,0.9c0,1.9,0,3,0,3.3
	c0,0.3-0.1,0.5-0.2,0.6l-0.1,0c-0.1,0.1-0.3,0.1-0.5,0c-0.2,0-0.7-0.2-1.3-0.5c-0.6-0.2-0.9-0.4-1-0.4s-0.1,0-0.1,0.2
	c0,0.3-0.1,0.4-0.2,0.3c-0.1,0-0.4-0.3-0.9-0.7c-0.4-0.4-0.6-0.6-0.6-0.7c0-0.1,0.2-0.3,0.6-0.4c0,0,0.1,0,0.1-0.1
	c0.2-0.1,0.4-0.2,0.4-0.3c0-0.1,0-0.4,0-1c0-0.1,0-0.2,0-0.3c-0.1-2.4-0.1-3.8-0.1-4.4c0-0.6,0.2-1,0.5-1.2c0.2-0.1,0.3-0.3,0.2-0.5
	c-0.1-0.2-0.4-0.4-0.9-0.8c-0.4-0.3-0.7-0.5-0.8-0.5c-0.1,0-0.3,0.1-0.6,0.4c0,0-0.1,0.1-0.1,0.1c-0.2,0.2-0.4,0.4-0.6,0.4
	c-0.2,0-0.9,0-2,0c-0.3,0-0.5,0-0.6,0c-0.2,0-0.4,0-0.7,0c-1.1,0-1.7,0-1.9,0c-0.2,0-0.6-0.1-1-0.3c-0.1-0.1-0.2-0.1-0.3-0.1
	c-0.6-0.2-0.9-0.4-0.9-0.4c0,0,0,0.4,0,1.2c0,0.1,0,0.2,0,0.3c0.1,0.5,0.1,1.5,0.1,3c0,1.5,0,2.6,0,3.4c0,0.7,0,1.2,0,1.3
	c0,0.1,0.1,0.2,0.1,0.3c0.2,0.2,0.5,0.2,1,0c0.5-0.2,0.7-0.4,0.8-0.6c0-0.3,0.1-0.4,0.2-0.5c0.1-0.1,0.4-0.1,0.8-0.1
	c0.5,0,0.7,0.1,0.8,0.2c0.1,0.1,0.1,0.4,0.1,1c0,0.6-0.1,1-0.2,1.1c-0.1,0.1-0.6,0.1-1.3,0.1c-1.3,0-2.1-0.1-2.4-0.1
	c-0.2,0-0.2,0.2,0.1,0.6l0,0C77.9,61.8,78,62,78,62c0.1,0,0.3,0,0.6-0.1c1.2-0.2,2-0.3,2.4-0.1c0.4,0.1,0.6,0.5,0.6,1.1v0
	c0,0.4,0,0.6-0.1,0.7c-0.1,0.2-0.4,0.3-0.9,0.3c-0.4,0-1.2,0.1-2.6,0.2c-0.1,0-0.1,0-0.2,0c0,0-0.1,0-0.1,0c-0.3,0-0.5,0.1-0.5,0.1
	c0,0.1,0.1,0.4,0.2,0.8c0,0.1,0.1,0.3,0.1,0.3c0.2,0.6,0.3,1,0.4,1c0.1,0.1,0.2,0,0.3-0.1c0.2-0.2,0.4-0.3,0.6-0.3
	c0.2-0.1,0.8-0.2,1.9-0.5c0.1,0,0.3-0.1,0.3-0.1c4.5-1.1,6.8-1.7,6.8-1.9c0-0.1-0.1-0.2-0.2-0.2c-0.1,0-0.6,0-1.4,0.1
	c-1,0.1-1.6,0.1-1.9,0.1c-0.4,0-0.6-0.1-0.7-0.2c-0.1-0.1-0.1-0.4,0-0.8c0-0.3,0.1-0.5,0.1-0.6c0.1-0.1,0.3-0.2,0.6-0.2
	c0.2,0,0.7,0,1.5,0c0.9,0,1.4,0,1.7,0c0.3,0,0.4-0.1,0.4-0.2s0-0.1,0.1,0c0.1,0,0.1,0.1,0.2,0.2c0.1,0.3,0.2,1.5,0.2,3.6
	c0,1.1,0,1.9,0,2.2c0,0.4-0.1,0.6-0.1,0.6c-0.1,0-0.2-0.2-0.4-0.5c-0.5-0.8-1.2-1.4-2.1-1.8c-0.4-0.2-0.6-0.3-0.7-0.2
	c-0.1,0,0,0.2,0.2,0.6c0.3,0.4,0.5,0.8,0.7,1.3c0.2,0.5,0.4,1,0.4,1.3c0.1,0.4,0.3,0.6,0.6,0.7c0.3,0,0.6-0.1,0.9-0.5
	c0.2-0.3,0.3-0.3,0.4-0.1c0.1,0.2,0.1,0.7,0,1.4c0,0.7-0.1,1.1,0,1.3c0,0.2,0.1,0.3,0.3,0.4c0.4,0.2,0.8,0.1,1.2-0.1
	c0.4-0.2,0.6-0.5,0.6-0.9c0,0,0,0,0-0.1c0-0.3,0-0.5,0.1-0.6c0.1-0.1,0.3-0.2,0.6-0.2c0.2,0,0.8,0,1.6,0c0.1,0,0.1,0,0.2,0
	c0.1,0,0.2,0,0.3,0c0.8,0,1.3,0,1.5,0c0.3,0,0.5,0.1,0.6,0.2C95.3,70.4,95.3,70.6,95.3,71C95.3,70.9,95.3,71,95.3,71z M77.5,72
	c0.7,0.2,1.2-0.2,1.6-1.1c0.4-0.9,0.5-1.9,0.2-3.2c-0.1-0.5-0.2-0.8-0.3-0.9c-0.1-0.1-0.2,0-0.3,0.4c-0.2,1.1-0.7,2.1-1.4,2.8
	c-0.4,0.4-0.5,0.8-0.5,1.2C76.9,71.7,77.1,71.9,77.5,72z M81,71.3c0.3,0.2,0.6,0.2,0.8,0c0.3-0.2,0.5-0.5,0.6-1
	c0.1-0.5,0.1-1-0.1-1.4c-0.1-0.5-0.4-1-0.8-1.5s-0.7-0.8-0.8-0.7c-0.1,0-0.1,0.1-0.1,0.1c0,0.1,0,0.2,0.1,0.6
	c0.1,0.3,0.1,0.8,0.1,1.7c0,0.8,0,1.3-0.1,1.6c0,0.2,0,0.3,0,0.4C80.7,71.1,80.8,71.2,81,71.3z M84.2,70.4c0.5,0.2,0.8-0.1,1-0.6
	c0.1-0.6,0-1.2-0.3-1.9c-0.2-0.3-0.5-0.7-0.9-1c-0.4-0.3-0.7-0.6-1-0.7c-0.3-0.1-0.3,0-0.2,0.3c0.5,1,0.8,2,0.9,3c0,0.1,0,0.2,0,0.4
	l0,0.1C83.8,70.2,83.9,70.3,84.2,70.4z M92.9,69.4c-1.4,0-2.1,0-2.3-0.1c-0.1-0.1-0.2-0.3-0.2-0.6c0-0.3,0-1.3,0-3
	c0-0.3,0-0.7,0-1.2c0-0.9,0-1.5,0-1.8c0-0.3,0.2-0.6,0.4-0.6c0.2,0,0.6-0.1,1.2,0c0.3,0,0.6,0,0.8,0c0.2,0,0.5,0,0.8,0
	c0.6,0,1,0,1.2,0c0.2,0.1,0.4,0.3,0.5,0.6c0,0.2,0,0.8,0,1.7c0,0.5,0,0.8,0,1.1c0,1.7,0,2.7,0,3c0,0.3-0.1,0.5-0.2,0.6
	C95,69.3,94.3,69.4,92.9,69.4z M84.9,61c-0.5,0.2-0.9,0.2-1.1-0.2c-0.3-0.4-0.3-0.9-0.1-1.6c0-0.2,0.2-0.4,0.6-0.5
	c0.3-0.1,0.7-0.1,1,0c0.3,0.1,0.5,0.3,0.5,0.5c0,0.2,0.1,0.3,0.2,0.3c0.1,0,0.1,0.2-0.2,0.6C85.3,60.6,85.1,60.9,84.9,61z
	 M81.6,57.9c-0.2,0.1-0.6,0.2-1,0.1c-0.5-0.1-0.7-0.2-0.8-0.4c0-0.1-0.1-0.7-0.1-1.8c0-1.1,0-1.7,0.1-1.8c0.1-0.3,0.2-0.2,0.4,0.2
	c0.2,0.5,0.3,1.1,0.3,1.8c0,0.4,0.1,0.7,0.3,0.8c0.2,0.1,0.4,0,0.6-0.2c0.2-0.2,0.3-0.2,0.4-0.1c0.1,0,0.1,0.2,0.2,0.5
	C81.9,57.5,81.8,57.8,81.6,57.9z M85.4,58c-0.1,0.1-0.4,0.1-0.9,0.1c-0.5,0-0.8-0.1-0.9-0.1c-0.1-0.1-0.2-0.3-0.2-0.6
	c0-0.3,0.1-0.5,0.2-0.6l0.1-0.1l0,0.1c0,0.1,0,0.1,0,0.2c0,0.1,0.1,0.1,0.1,0.1c0.1,0,0.4-0.6,1-1.9c0.3-0.8,0.5-1.1,0.7-0.9
	c0.1,0.1,0.2,0.8,0.2,1.9c0,0.8,0,1.3,0,1.5C85.6,57.8,85.5,57.9,85.4,58z M83.7,55.7c-0.1,0.3-0.2,0.3-0.2,0.1
	c0-0.3-0.1-0.9-0.1-1.9c0-0.7,0-1.2,0-1.4c0-0.3,0.2-0.4,0.3-0.5c0.1,0,0.4-0.1,0.8-0.1c0.5,0,0.8,0,0.9,0.1
	c0.1,0.1,0.2,0.2,0.2,0.4c0,0.4-0.4,0.5-1.1,0.3c0,0,0,0-0.1,0c-0.2-0.1-0.4-0.1-0.4,0c0,0-0.1,0.2-0.1,0.5c0,0,0,0.1,0,0.1
	C83.9,54.4,83.9,55.2,83.7,55.7z M81.8,54.7c-0.1,0.2-0.1,0.2-0.2,0.2c-0.1-0.1-0.2-0.3-0.5-0.7c-0.6-1.1-1-1.5-1.2-1.3
	c0,0-0.1,0-0.1-0.1c0-0.1-0.1-0.2-0.1-0.4c0-0.2,0.2-0.4,0.5-0.5c0.3-0.1,0.6-0.1,1,0c0.4,0.1,0.6,0.3,0.6,0.5c0,0.2,0,0.6,0,1.2
	C81.8,54.2,81.8,54.6,81.8,54.7z M113.6,72.1c0,0,0.1,0.1,0.2,0c0.1,0,0.2,0,0.4,0c0.9-0.1,1.6-0.4,1.9-0.8c0.4-0.4,0.6-1.1,0.6-2
	c0-0.5,0.1-0.9,0.1-1l0,0c0-0.1,0.2-0.2,0.5-0.2c0.3,0,1.4,0,3.2,0c0.4,0,0.7,0,0.9,0c2.2,0,3.5,0,3.9,0c0.4,0,0.6-0.1,0.7-0.2
	c0.1-0.2-0.3-0.7-1.2-1.4c-0.3-0.2-0.5-0.4-0.5-0.5c0-0.1,0-0.2,0.1-0.4c0.4-0.2-0.1-0.8-1.4-1.7c-0.3-0.2-0.5-0.3-0.6-0.3
	c-0.1,0-0.3,0.2-0.6,0.6c0,0,0,0-0.1,0.1c-0.3,0.3-0.5,0.5-0.7,0.6c-0.2,0-0.8,0.1-1.8,0.1c-0.1,0-0.1,0-0.2,0c-0.8,0-1.4,0-1.6,0
	c-0.3,0-0.5-0.1-0.6-0.2c-0.1-0.1-0.1-0.3-0.1-0.6c0-0.4,0.1-0.6,0.2-0.7c0.1-0.1,0.5-0.2,1.2-0.3c0.2,0,0.7-0.1,1.3-0.1
	c0.2,0,0.3,0,0.4,0c0.7-0.1,1.3-0.1,1.7-0.1c0.3,0,0.4,0,0.4-0.1c0-0.1-0.1-0.3-0.4-0.6c-0.7-0.9-1.2-1.3-1.3-1.3c0,0-0.1,0-0.2,0
	c-0.3,0.1-0.5,0.1-0.6,0.2c-1.2,0.3-2.2,0.6-3.2,0.7c-0.9,0.2-1.4,0.2-1.5,0.1c0,0-0.1-0.1-0.1-0.2c0-0.1,0-0.1,0-0.1
	c0,0,0-0.3,0-0.7c0-0.4,0-0.8,0-0.9c0-0.2,0.2-0.3,0.3-0.5l0,0l0.2-0.1c0,0-0.1-0.1-0.2-0.2c-0.2-0.1-0.2-0.2-0.1-0.3
	c0.1-0.1,0.4-0.2,0.7-0.2c0.5,0,0.7-0.1,0.7-0.2c0-0.1-0.1-0.3-0.5-0.6c0,0-0.1-0.1-0.1-0.1c-0.4-0.3-0.6-0.6-0.7-0.7
	c-0.1-0.2-0.1-0.6-0.1-1.3c0-0.1,0-0.2,0-0.2c0-0.7,0-1.2,0-1.3c0-0.2,0.2-0.3,0.3-0.5c0.2-0.1,0.2-0.2,0.2-0.3
	c0-0.1-0.1-0.2-0.2-0.4c-0.3-0.4-0.5-0.6-0.5-0.7c0-0.1,0.2-0.2,0.6-0.3c0.9-0.1,0.7-0.6-0.6-1.6c-0.3-0.2-0.6-0.3-0.7-0.3
	c-0.1,0-0.3,0.2-0.6,0.6c-0.3,0.3-0.5,0.5-0.8,0.6c-0.3,0.1-0.6,0.1-0.8,0c-0.2-0.1-0.3-0.2-0.3-0.4c0-0.2,0.1-0.3,0.2-0.5
	c0.2-0.1,0.2-0.3-0.1-0.4c-0.2-0.1-0.8-0.2-1.6-0.3c0,0-0.1,0-0.1,0c-0.2,0-0.4,0-0.4,0c0,0,0,0.2,0,0.6c0,0,0,0.1,0,0.1v0
	c0,0.4-0.1,0.7-0.2,0.8c-0.1,0.1-0.5,0.1-1.2,0.1c-0.5,0-1,0-1.7,0c-0.6,0-1-0.1-1.1-0.1c-0.1,0-0.2,0.1,0,0.4
	c0.1,0.3,0.3,0.5,0.5,0.7c0.4,0.4,0.5,1.9,0.3,4.5c0,0.5-0.1,0.8-0.1,0.9c-0.1,0.1-0.3,0.1-0.6,0.1c-0.3,0-0.4,0-0.4,0.1
	c0,0,0.1,0.2,0.2,0.6c0.1,0.2,0.2,0.4,0.2,0.4c0,0,0.1,0,0.2,0c0.3,0,0.5,0.1,0.6,0.3c0.1,0.2,0.1,0.7,0.1,1.6c0,0.2,0,0.4,0,0.7
	c0,0.6,0.1,0.9,0.1,1c0.2,0.1,0.6,0.1,1,0c0.5-0.1,0.7-0.3,0.7-0.5c0-0.1,0-0.1,0.1-0.2c0.1-0.1,0.2-0.2,0.3-0.2
	c0.1-0.1,0.8-0.1,2.1,0c1.3,0,2,0.1,2.1,0.1c0.2,0.1,0.3,0.2,0.3,0.3c0,0.1,0,0.3-0.1,0.3c-0.3,0.2-1.8,0.4-4.6,0.7
	c-0.3,0-0.5,0-0.6,0.1c-0.1,0-0.1,0.1-0.1,0.2c0.1,0.2,1.6,0.2,4.7,0.1c1.2,0,1.9,0,2,0c0.2,0.1,0.3,0.4,0.3,0.7
	c0,0.3-0.1,0.6-0.3,0.7C114,65,113,65,111,65c-2,0-3.3-0.1-4.1-0.2c-0.3,0-0.4,0-0.5,0c0,0,0.1,0.2,0.2,0.5c0,0,0,0,0,0.1
	c0.1,0.2,0.2,0.4,0.3,0.4c0.1,0,0.3,0,0.6,0c0.1,0,0.1,0,0.2,0c0.9-0.1,2.2-0.2,3.8-0.2c1.6,0,2.5,0,2.7,0.1
	c0.2,0.1,0.3,0.4,0.3,0.8c0,0.4-0.1,0.6-0.4,0.7c-0.1,0.1-1.6,0.1-4.2,0.1c-2.7,0-4.3-0.1-4.8-0.2c-0.1,0-0.2,0-0.2,0.1
	s0.1,0.2,0.2,0.5c0,0,0,0.1,0.1,0.1c0.1,0.2,0.2,0.3,0.3,0.4c0.1,0,0.3,0,0.6,0c0.1,0,0.2,0,0.2,0c1.1-0.1,2.7-0.2,4.9-0.2
	c0.1,0,0.1,0,0.2,0c1.2,0,2,0,2.3,0c0.4,0,0.7,0.1,0.8,0.2c0.1,0.1,0.1,0.3,0.1,0.6c0,0,0,0.1,0,0.1c0,0.3-0.1,0.5-0.1,0.6
	c-0.1,0.1-0.3,0.2-0.6,0.2c-0.3,0-0.8,0-1.6,0c-0.9-0.1-1.4-0.1-1.4,0c-0.1,0.1,0.1,0.2,0.5,0.3c0.7,0.1,1.2,0.3,1.6,0.6
	c0.4,0.3,0.6,0.7,0.7,1.2C113.5,72,113.6,72.1,113.6,72.1z M119.7,67.4c-1.7,0-2.6,0-2.7-0.1c-0.2-0.1-0.3-0.4-0.4-0.8
	c0-0.4,0.1-0.7,0.3-0.8c0.1-0.1,1.2-0.1,3.2-0.1c2,0,3.1,0.1,3.2,0.1c0.2,0.1,0.1,0.3-0.1,0.7c-0.2,0.4-0.5,0.7-0.8,0.8
	C122.3,67.3,121.4,67.4,119.7,67.4z M124.3,61.8c0.3,0.1,0.5,0.1,0.5,0.1c0,0,0.1-0.1,0.2-0.3c0.2-0.7,0.6-1.1,1.1-1.3
	c0.3-0.2,0.3-0.3-0.1-0.4c-1.5-0.2-2.5-0.4-3-0.5c-0.6-0.2-0.9-0.3-0.9-0.6c0-0.2,0.2-0.5,0.6-0.9c0.4-0.4,0.7-0.8,0.9-1
	c0.2-0.2,0.4-0.3,0.6-0.4c0.2-0.1,0.3-0.1,0.3-0.2c0-0.1-0.1-0.3-0.3-0.5c-0.3-0.3-0.4-0.5-0.4-0.6c0-0.1,0.3-0.2,0.7-0.3
	c0.6-0.1,1.1-0.3,1.3-0.6c0.2-0.3,0.2-0.6-0.1-1c-0.2-0.2-0.3-0.5-0.4-0.9c0-0.6-0.2-0.6-0.4,0c-0.1,0.4-0.4,0.7-0.7,0.8
	c-0.4,0.2-0.7,0.2-1,0c-0.2-0.1-0.3-0.4-0.3-0.8c0-0.4,0.2-0.7,0.4-0.8c0.2-0.1,0.3-0.2,0.2-0.3c-0.1-0.1-0.3-0.4-0.7-0.8
	c-0.4-0.4-0.7-0.6-0.8-0.6c-0.1,0-0.3,0.1-0.6,0.5c-0.4,0.5-0.8,0.7-1.2,0.7c-0.5,0-1.2-0.2-2.1-0.6c-0.1,0-0.2-0.1-0.3-0.1
	c-0.3-0.2-0.5-0.2-0.6-0.1c0,0.1-0.1,0.3-0.1,0.8c0,0.2,0,0.3,0,0.5c0,1-0.1,1.8-0.3,2.4c-0.2,0.5-0.5,1-1,1.4
	c-0.2,0.1-0.3,0.3-0.2,0.4c0,0.1,0.1,0.1,0.3,0.1c0.2,0,0.4,0.1,0.6,0.6c0.2,0.3,0.3,0.4,0.4,0.3c0.1-0.1,0.3-0.1,0.5,0
	c0.2,0.1,0.4,0.3,0.6,0.6c0.1,0.3,0.3,0.5,0.6,0.9c0.4,0.5,0.4,0.9,0,1.3c-0.3,0.3-1.1,0.7-2.4,1.2c-0.4,0.1-0.6,0.3-0.6,0.3
	c0,0.2,0.1,0.2,0.4,0.2c1.1-0.2,2.2-0.5,3.3-0.9c0.4-0.2,0.7-0.2,0.9-0.2c0.2,0,0.4,0.1,0.7,0.3c1,0.6,2.1,1.1,3.5,1.6
	C124.2,61.8,124.3,61.8,124.3,61.8z M112.6,60.8c-0.3,0.2-0.6,0.2-0.8,0c-0.2-0.2-0.4-0.6-0.4-1.1c0-0.5,0.1-0.8,0.3-1
	c0.2-0.2,0.5-0.2,0.8,0c0.2,0.1,0.3,0.4,0.3,1C112.9,60.3,112.8,60.7,112.6,60.8z M109.2,60.8c-0.2,0.1-0.5,0.1-0.7,0
	c-0.2-0.1-0.3-0.2-0.4-0.4c0-0.2,0.1-0.3,0.3-0.5c0.2-0.1,0.2-0.2,0.2-0.3c0-0.1-0.2-0.2-0.5-0.3c-0.9-0.4-0.8-0.7,0.4-0.7
	c0.5,0,0.8,0.1,0.9,0.2c0.1,0.1,0.2,0.5,0.1,1C109.6,60.5,109.4,60.8,109.2,60.8z M113.3,58c-0.5,0.2-0.9,0.2-1.4,0
	c-0.4-0.2-0.6-0.5-0.3-0.8c0.1-0.2,0.4-0.2,0.8-0.2c0.4,0,0.6,0.1,0.7,0.3c0,0.1,0.1,0.1,0.2,0.2c0.1,0,0.2,0.1,0.2,0.2
	C113.5,57.8,113.4,57.9,113.3,58z M109.3,57.9c-0.2,0.1-0.5,0.2-1,0.1c-0.5,0-0.8-0.1-0.8-0.3c0-0.1,0.1-0.2,0.3-0.4
	c0.2-0.2,0.4-0.3,0.5-0.4c0.3-0.1,0.6-0.1,0.8,0c0.3,0.1,0.4,0.2,0.5,0.4C109.6,57.6,109.5,57.8,109.3,57.9z M120.4,57.8
	c-0.2,0.1-0.4,0.2-0.5,0.1c-0.2,0-0.4-0.2-0.6-0.4c-0.7-0.5-0.9-0.9-0.6-1.1c0.1-0.1,0.4-0.1,1.1-0.1c0.7,0,1.1,0,1.2,0
	c0.2,0.1,0.2,0.3,0.1,0.6C121,57.3,120.7,57.6,120.4,57.8z M112.9,56.1c-0.2,0.2-0.5,0.2-0.8,0.2c-0.4-0.1-0.6-0.2-0.6-0.5
	c0-0.4,0.3-0.6,0.8-0.6c0.4,0,0.6,0.1,0.7,0.3C113.1,55.8,113.1,56,112.9,56.1z M109.2,56.2c-0.2,0.1-0.4,0.1-0.7,0.1
	c-0.3,0-0.5-0.1-0.5-0.2c-0.1-0.3-0.1-0.5,0.2-0.6c0.3-0.2,0.6-0.2,0.9-0.1c0.2,0.1,0.3,0.2,0.4,0.4C109.5,56,109.4,56.1,109.2,56.2
	z M120.1,55.7c-0.8,0-1.5,0-2,0c-0.5,0-0.9-0.1-1-0.2c-0.1-0.1,0-0.3,0.2-0.5c0.5-0.4,0.9-0.9,1.2-1.2c0.2-0.4,0.4-0.8,0.5-1.4
	c0.1-0.3,0.2-0.6,0.3-0.6c0.1-0.1,0.4-0.1,0.8-0.1c0.5,0,0.8,0.1,0.9,0.2c0.1,0.1,0.2,0.6,0.2,1.3c0,0.6,0,1,0.1,1.2
	c0.1,0.2,0.2,0.3,0.4,0.5c0.3,0.1,0.4,0.3,0.4,0.5c0,0.2-0.2,0.3-0.5,0.4C121.4,55.7,120.9,55.7,120.1,55.7z M112.8,54.6
	c-0.2,0.1-0.4,0.1-0.7,0c-0.3,0-0.4-0.1-0.5-0.3c-0.1-0.3-0.1-0.5,0.2-0.6c0.3-0.2,0.6-0.2,1-0.1c0.2,0.1,0.3,0.2,0.3,0.4
	C113.1,54.4,113,54.5,112.8,54.6z M109.3,54.5c-0.1,0.1-0.3,0.2-0.6,0.2c-0.3,0-0.5-0.1-0.6-0.2c-0.2-0.2-0.2-0.4,0-0.5
	c0.1-0.2,0.4-0.3,0.7-0.3c0.3,0,0.6,0.1,0.7,0.3S109.5,54.3,109.3,54.5z M112.8,53c-0.4,0.1-0.7,0.1-1,0c-0.3-0.2-0.4-0.4-0.2-0.6
	c0.1-0.2,0.4-0.3,0.8-0.3c0.5,0,0.7,0.1,0.8,0.2c0,0.1,0,0.2-0.1,0.4C113,52.8,112.9,52.9,112.8,53z M109.2,52.9
	c-0.3,0.1-0.7,0.1-1.3,0c-0.6-0.2-0.9-0.3-0.9-0.6c0-0.1,0.3-0.2,0.8-0.3c0.5-0.1,1-0.1,1.2,0c0.2,0.1,0.3,0.2,0.4,0.4
	C109.5,52.7,109.4,52.8,109.2,52.9z M133,71.2c0,0.1,0.1,0.1,0.2,0.1c0.5-0.1,1.3-0.2,2.4-0.3c0.6,0,3.7,0,9.4,0c0.4,0,0.9,0,1.6,0
	c2.8,0,4.5,0,5.2,0c1,0,1.7,0,1.9-0.1c0.2,0,0.3-0.1,0.3-0.2c0,0,0-0.1,0-0.1c0-0.2-0.3-0.6-1.1-1.1c-0.7-0.6-1.2-0.9-1.3-0.8
	c0,0-0.3,0.3-0.6,0.7c-0.1,0.1-0.1,0.2-0.2,0.3c-0.2,0.2-0.3,0.4-0.5,0.4c-0.2,0.1-0.7,0.1-1.5,0.1c-0.5,0-1.8,0-3.9,0
	c-1.1,0-1.9,0-2.6,0c-5.3,0-8.5,0-9.5-0.1c-0.2,0-0.4,0-0.4,0c0,0,0.1,0.2,0.2,0.5C132.9,71,133,71.2,133,71.2z M137.1,69.4
	c0.3,0.2,0.7,0.1,1.2-0.1c0.5-0.2,0.8-0.5,0.8-0.7c0,0,0-0.1,0-0.1c0-0.2,0.1-0.3,0.2-0.4c0.1-0.1,0.4-0.1,0.9-0.1
	c0.3,0,1.1,0,2.3,0c0.3,0,0.6,0,0.8,0c0.2,0,0.4,0,0.7,0c1.3,0,2.2,0,2.5,0c0.5,0,0.8,0.1,0.9,0.2c0.1,0.1,0.1,0.2,0.1,0.5
	c0,0,0,0.1,0,0.1c0,0.4,0.1,0.5,0.4,0.6c0.3,0,0.8-0.1,1.3-0.4c0.3-0.2,0.5-0.3,0.6-0.4c0-0.1,0-0.5,0-1c0-0.5,0-1.5,0-3
	c0-0.1,0-0.2,0-0.3c0-1,0-1.6,0-1.8c0-0.2,0.1-0.4,0.3-0.5c0,0,0.1,0,0.1,0c0.2-0.1,0.3-0.2,0.3-0.2c0-0.1-0.2-0.4-0.7-0.9
	c-0.5-0.5-0.9-0.8-1.3-1c-0.1,0-0.2,0-0.2,0c-0.1,0-0.2,0.2-0.4,0.5c0,0-0.1,0.1-0.1,0.2c-0.2,0.3-0.5,0.5-0.7,0.5
	c-0.3,0-1.2,0.1-2.7,0.1c-0.4,0-0.7,0-0.9,0c-0.3,0-0.7,0-1.2,0c-1.4,0-2.3,0-2.6,0c-0.3,0-0.7-0.2-1.3-0.4
	c-0.1-0.1-0.3-0.1-0.3-0.1c0,0-0.1,0-0.2-0.1c-0.5-0.2-0.8-0.3-0.9-0.3c-0.1,0-0.1,0.1-0.1,0.4c0,0,0,0.1,0,0.1
	c0.1,1.2,0.2,2.7,0.2,4.6c0,1.8,0,2.9,0,3.3C136.9,69.1,136.9,69.4,137.1,69.4z M147.2,67.2c-0.1,0.1-1.4,0.1-3.8,0.1
	c-2.4,0-3.7,0-3.8-0.1c-0.1-0.1-0.2-0.2-0.3-0.3c0-0.1,0-0.4,0-0.9c0-0.1,0-0.2,0-0.3c0-0.4,0-0.6,0.1-0.7c0.1-0.1,0.4-0.2,0.8-0.3
	c0.3,0,1.1,0,2.2,0c0.4,0,0.8,0,1,0s0.6,0,1,0c1.2,0,1.9,0,2.3,0c0.4,0,0.7,0.1,0.8,0.3c0.1,0.1,0.1,0.3,0.1,0.7c0,0.1,0,0.2,0,0.3
	c0,0.4,0,0.7-0.1,0.9C147.4,67,147.3,67.2,147.2,67.2z M143.4,64.2c-2.5,0-3.8,0-3.9-0.1c-0.2-0.1-0.3-0.5-0.3-1.1
	c0-0.6,0.1-1,0.3-1.1c0.1-0.1,1.4-0.1,3.9-0.1c2.5,0,3.8,0.1,3.9,0.1c0.2,0.1,0.3,0.5,0.3,1.1c0,0.6-0.1,0.9-0.3,1.1
	C147.1,64.1,145.8,64.1,143.4,64.2z M132.8,61.4c0.1,0,0.1,0.1,0.2,0c0.7-0.2,1.5-0.6,2.4-1c0.5-0.2,0.9-0.4,1.1-0.4
	c0.2-0.1,0.4-0.2,0.5-0.3c0.1-0.1,0.4-0.3,0.7-0.5c1.2-0.7,2.2-1.4,3.1-2.2c0.5-0.4,0.8-0.7,1-0.8c0.1-0.1,0.2-0.1,0.3,0
	c0.1,0.1,0.1,0.3,0.1,0.7c0,0.3,0,1-0.1,2.1c0,0.5,0,0.8,0,0.9c0,0.1,0.2,0.2,0.4,0.2c0.2,0,0.4,0,0.8-0.1s0.7-0.2,0.9-0.3l0,0
	c0.1-0.1,0.2-0.2,0.2-0.3c0-0.1,0-0.5,0-1.2v0c-0.1-1.8-0.1-3,0-3.4c0.1-0.4,0.4-0.3,0.7,0.3c1.3,2.2,3.5,4.2,6.5,5.8
	c0.3,0.1,0.4,0.2,0.5,0.2c0.1,0,0.1,0,0.1-0.1c0.1-0.3,0.2-0.6,0.5-1c0.3-0.4,0.6-0.6,0.8-0.7c0.3-0.1,0.4-0.2,0.3-0.3
	c-0.1-0.1-0.4-0.2-1-0.4c-1.3-0.4-2.5-1-3.8-1.6c-1.2-0.6-2.1-1.2-2.7-1.8c-0.7-0.6-0.8-0.9-0.5-1.1c0.1,0,1.3-0.1,3.8-0.1
	c0.2,0,0.4,0,0.7,0c1.2,0,2,0,2.3,0c0.4,0,0.7,0,0.9-0.1c0.1,0,0.1-0.1,0.1-0.2v0c0-0.1-0.1-0.3-0.4-0.6s-0.6-0.6-1-0.9
	c-0.5-0.4-0.8-0.6-0.9-0.6c-0.1,0-0.3,0.2-0.6,0.5c-0.1,0.1-0.1,0.2-0.2,0.3c-0.3,0.4-0.5,0.7-0.7,0.7c-0.2,0.1-0.8,0.1-1.8,0.1
	c-0.3,0-0.6,0-0.8,0c-0.1,0-0.3,0-0.5,0c-0.9,0-1.5,0-1.7,0c-0.3,0-0.6-0.1-0.6-0.2c0-0.1-0.1-0.3-0.1-0.6c0-0.1,0-0.2,0-0.2
	c0-0.4,0-0.7,0-0.8c0-0.1,0.1-0.3,0.3-0.4c0.2-0.2,0.2-0.4,0-0.5c-0.2-0.1-0.9-0.3-1.9-0.6c-0.4-0.1-0.6-0.2-0.7-0.1
	s-0.1,0.1-0.1,0.4c0.3,2,0.2,3.1-0.2,3.2c-0.1,0-1.4,0.1-3.9,0c-2.5,0-4,0-4.4-0.1c-0.4,0-0.6,0-0.6,0c0,0,0,0.2,0.2,0.5
	c0,0,0,0.1,0,0.1c0.1,0.3,0.2,0.4,0.3,0.4c0.1,0,0.2,0,0.5,0c0.1,0,0.1,0,0.2,0c1-0.1,2.2-0.2,3.6-0.2c1.4,0,2.2,0,2.3,0.2
	c0.3,0.3-0.3,1.2-1.8,2.7c-1.5,1.4-3.1,2.7-4.7,3.6c-0.4,0.2-0.6,0.4-0.7,0.5C132.7,61.3,132.7,61.4,132.8,61.4z M166.1,72
	c0.3,0.2,0.7,0.1,1.2,0c0.5-0.2,0.8-0.4,0.8-0.7c0,0,0-0.1,0-0.1c0-0.2,0-0.4,0.1-0.5c0.1-0.1,0.4-0.2,0.9-0.2c0.4,0,1.2,0,2.5,0
	c0.3,0,0.5,0,0.7,0c0.2,0,0.5,0,0.8,0c1.3,0,2.1,0,2.4,0c0.5,0,0.8,0.1,0.9,0.2c0.1,0.1,0.1,0.3,0.1,0.6c0,0.1,0,0.1,0,0.2
	c0,0.4,0.1,0.5,0.4,0.6c0.3,0,0.8-0.1,1.4-0.4c0,0,0.1,0,0.1,0c0.2-0.1,0.4-0.2,0.4-0.3s0-0.4,0-0.9c0-0.1,0-0.1,0-0.1
	c-0.1-1.3-0.1-2.9-0.1-4.9c0-2,0-3,0-3.2c0-0.2,0.2-0.4,0.5-0.6c0.2-0.1,0.3-0.2,0.2-0.4s-0.2-0.3-0.6-0.6c-0.6-0.5-1-0.8-1.2-0.9
	c-0.2,0-0.5,0.1-0.7,0.4c0,0-0.1,0.1-0.1,0.2c-0.2,0.3-0.5,0.4-0.8,0.5c-0.3,0-1.1,0-2.6,0c-0.4,0-0.8,0-1,0c-1.9,0-3.1,0-3.4,0
	s-0.6-0.1-0.7-0.2c-0.2-0.2-0.1-0.7,0.5-1.4c0,0,0,0,0.1-0.1c0.1-0.1,0.2-0.2,0.3-0.2c0.2,0,0.7-0.1,1.5-0.1c0.5,0,1.8,0,3.8,0
	c0.4,0,0.8,0,1,0c0.3,0,0.6,0,1.1,0c2,0,3.2,0,3.8,0c0.7,0,1.2,0,1.4-0.1c0.1,0,0.2-0.1,0.2-0.2v-0.1c0-0.1-0.3-0.5-1-1.1
	c-0.7-0.6-1.1-0.9-1.3-0.9c-0.1,0-0.4,0.3-0.9,1c0,0-0.1,0.1-0.1,0.2c-0.2,0.3-0.4,0.4-0.7,0.5c-0.3,0-1.2,0-2.8,0
	c-0.5,0-0.9,0-1.1,0c-0.2,0-0.5,0-0.9,0c-1.6,0-2.6,0-2.8,0s-0.4-0.1-0.5-0.2c0-0.1,0-0.4,0.2-0.9c0.2-0.5,0.4-0.8,0.5-0.9
	c0.1-0.1,0.4-0.2,0.8-0.2c0.4,0,1.8,0,4.1,0c2.4,0,3.8,0,4.2,0c0.4,0,0.6-0.1,0.7-0.2c0.1-0.2-0.4-0.7-1.4-1.5
	c-0.4-0.3-0.7-0.5-0.8-0.5c-0.1,0-0.3,0.2-0.6,0.5c0,0.1-0.1,0.2-0.2,0.3c-0.3,0.4-0.6,0.6-0.8,0.7c-0.2,0.1-0.9,0.1-1.9,0.1
	c-0.3,0-0.5,0-0.6,0c-0.1,0-0.3,0-0.5,0c-1,0-1.6,0-1.8,0c-0.3,0-0.5-0.1-0.6-0.3c0-0.1,0-0.4,0.2-0.9c0-0.1,0.1-0.2,0.1-0.3
	c0.1-0.5,0.3-0.7,0.4-0.8c0.1-0.1,0.6-0.2,1.3-0.2c1.4-0.1,2.7-0.3,4.1-0.5c1-0.1,1.6-0.2,1.9-0.1c0.2,0.1,0.4,0.1,0.6,0.1
	s0.3-0.1,0.3-0.1c0,0-0.3-0.4-1-1c-0.6-0.7-1-1-1-1c-0.1,0-0.3,0.1-0.8,0.2c-1.8,0.5-4,1-6.6,1.5c-2.6,0.4-5,0.8-7.3,1
	c-0.1,0-0.2,0-0.4,0c-0.4,0-0.7,0.1-0.8,0.1c-0.1,0-0.1,0.1-0.1,0.1c0,0.1,0.1,0.2,0.3,0.2c0.2,0,0.7,0.1,1.5,0c0.7,0,2-0.1,3.9-0.1
	c0.7,0,1.1,0,1.2,0.2c0.1,0.1,0.1,0.5-0.1,1.1c-0.2,0.5-0.3,0.7-0.5,0.8c-0.1,0.1-0.9,0.1-2.2,0.1c-1.3,0-2.4-0.1-3.2-0.1
	c-0.2,0-0.3,0-0.3,0c0,0,0.1,0.2,0.2,0.6c0,0,0,0,0,0.1c0.1,0.2,0.2,0.4,0.3,0.4c0.1,0,0.3,0,0.6,0c1.2-0.2,2.2-0.3,3.1-0.2
	c0.8,0,1.3,0.2,1.3,0.4c0,0.3-0.1,0.6-0.3,1.1c-0.2,0.4-0.5,0.7-0.7,0.8c-0.1,0-1,0-2.5,0s-2.6,0-3-0.1c-0.4,0-0.6,0-0.6,0
	c0,0,0,0.2,0.2,0.6l0,0c0.1,0.3,0.2,0.4,0.3,0.4c0.1,0,0.3,0,0.5,0c0.7-0.1,1.6-0.2,2.6-0.2c1.1,0,1.7,0,1.9,0
	c0.2,0.1,0.3,0.2,0.3,0.3c0,0.1-0.1,0.4-0.3,0.7c-1.4,2.4-3.2,4.4-5.3,6c-0.2,0.1-0.3,0.3-0.3,0.3c0,0.1,0,0.1,0.1,0.2
	c0.1,0.1,0.7-0.2,1.7-0.9c1-0.7,1.9-1.4,2.7-2c0.3-0.2,0.5-0.4,0.6-0.4c0.1,0,0.2,0,0.3,0.2c0.1,0.2,0.1,1,0.1,2.6
	c0,1.6-0.1,3.2-0.2,4.7c0,0.6,0,1,0,1.1C165.9,71.8,166,71.9,166.1,72z M172.4,69.8c-2.5,0-3.8,0-3.9-0.1c-0.2-0.1-0.4-0.5-0.4-1.1
	c0-0.6,0.1-1,0.3-1.1c0.1-0.1,1.4-0.1,3.9-0.1c2.5,0,3.8,0,3.9,0.1c0.2,0.1,0.3,0.5,0.3,1.2c0,0.6-0.1,1-0.4,1.1
	C176.1,69.8,174.8,69.8,172.4,69.8z M172.4,66.7c-2.5,0-3.8,0-3.9-0.1c-0.3-0.1-0.4-0.5-0.4-1.1c0-0.6,0.1-1,0.4-1.1
	c0.1-0.1,1.4-0.1,3.8-0.1c2.4,0,3.7,0,3.8,0.1c0.3,0.1,0.4,0.5,0.4,1.1c0,0.6-0.1,1-0.4,1.1C176.1,66.7,174.8,66.7,172.4,66.7z
	 M176.3,63.6c-0.1,0.1-1.4,0.1-3.9,0.1c-2.5,0-3.8-0.1-3.9-0.1c-0.2-0.1-0.3-0.5-0.3-1s0.1-0.9,0.3-1c0.1-0.1,1.4-0.1,3.9-0.1
	c2.5,0,3.8,0,3.9,0.1c0.2,0.1,0.3,0.5,0.3,1S176.5,63.5,176.3,63.6z M188.9,72c0.1,0.2,0.7,0,1.8-0.5c1.1-0.5,2-1.1,2.7-1.6
	c1.2-1,2.1-2.2,2.6-3.6c0.5-1.4,0.8-3.2,0.8-5.4c0-0.4,0-0.8,0-0.9c0-0.2,0.2-0.3,0.3-0.4c0.2-0.2,0.1-0.3-0.2-0.5
	c-0.3-0.2-1-0.4-2-0.6c-0.2-0.1-0.3-0.1-0.4,0c0,0,0,0.2,0,0.6c0.2,3.3-0.1,6-0.9,8c-0.8,2-2.3,3.5-4.3,4.7c0,0,0,0-0.1,0
	c-0.2,0.1-0.3,0.2-0.3,0.2C188.8,71.8,188.8,71.9,188.9,72z M201.2,72c0.1,0.1,0.4,0.1,0.7,0.1c0.3,0,0.6-0.2,1-0.3c0,0,0,0,0.1,0
	c0.3-0.1,0.5-0.3,0.5-0.4c0-0.1,0.1-0.5,0-1c-0.1-1.9-0.1-4.4-0.1-7.6c0-1.5,0-2.4,0.1-2.6c0-0.3,0.1-0.5,0.3-0.6
	c0.3-0.2,0.2-0.3-0.1-0.5c-0.3-0.2-1-0.4-1.9-0.6c0,0-0.1,0-0.2,0c-0.4-0.1-0.6-0.1-0.6-0.1c0,0-0.1,0.1,0,0.4c0,0.1,0,0.1,0,0.1
	c0.1,0.9,0.2,2.8,0.2,5.5c0,3.1,0,5.4-0.1,6.8c0,0.3,0,0.5,0,0.6C201,71.9,201.1,71.9,201.2,72z M188.3,61.5c0,0,0.1,0,0.3,0
	c0.1,0,0.4-0.2,1-0.5l0,0c1.2-0.6,2.5-1.4,3.8-2.3c0,0,0.1,0,0.1-0.1c0.4-0.2,0.6-0.4,0.6-0.4c0.2-0.1,0.3-0.2,0.4-0.3
	c0.4-0.4,0.7-0.6,0.9-0.9c1.3-1.2,2.5-2.5,3.5-4c0.3-0.4,0.5-0.7,0.6-0.8c0.1-0.1,0.2-0.2,0.3-0.1c0.1,0,0.2,0.1,0.2,0.2
	c0.1,0.1,0.2,0.4,0.5,1c0.7,1.4,1.6,2.7,2.8,4c1.2,1.2,2.6,2.3,4.2,3.2c0.3,0.2,0.5,0.2,0.6,0.3c0.1,0,0.1-0.1,0.2-0.2
	c0.1-0.3,0.3-0.7,0.6-1c0.3-0.3,0.6-0.6,0.9-0.7c0.3-0.1,0.4-0.3,0.4-0.4c0-0.1-0.2-0.2-0.6-0.4c-1.9-0.7-3.6-1.5-5.1-2.5
	c-1.6-1-2.7-2.1-3.6-3.3c-0.2-0.3-0.3-0.5-0.3-0.7s0.1-0.3,0.3-0.4c0.1,0,0.2-0.1,0.3-0.1c0.1-0.1,0.1-0.1,0.1-0.2
	c0,0-0.5-0.2-1.5-0.5c-1-0.3-1.6-0.4-1.8-0.4h0c-0.1,0-0.1,0-0.2,0c0,0-0.1,0.2-0.2,0.5c0,0.1-0.1,0.2-0.1,0.2
	c-0.6,1.7-1.8,3.6-3.4,5.5c-1.6,2-3.4,3.5-5.2,4.8c-0.3,0.2-0.4,0.3-0.5,0.4C188.2,61.4,188.2,61.5,188.3,61.5z M220,72
	c0.2,0.1,0.5,0.1,0.9,0c0.4-0.1,0.8-0.3,1.1-0.5c0,0,0.1-0.2,0.1-0.4c0-0.2,0-0.8-0.1-1.9c0-0.3,0-0.6,0-0.7c0-0.8,0-2.2,0-4.1
	c0-1.9,0-2.9,0-3c0.1-0.2,0.3-0.4,0.6-0.5c0.3-0.1,0.5-0.1,0.7,0.1c0.2,0.2,0.3,0.5,0.3,1c0,0.3,0.2,0.5,0.5,0.6
	c0.2,0.1,0.5,0,0.8-0.1c0.3-0.2,0.5-0.4,0.6-0.8c0.1-0.3,0.2-0.5,0.4-0.6c1.6-1,2.8-2.1,3.6-3.2c0.8-1.2,1.4-2.6,1.7-4.4
	c0,0,0,0,0-0.1c0.1-0.5,0.2-0.8,0.4-0.9c0.1-0.1,0.6-0.1,1.4-0.1c0,0,0.1,0,0.1,0c0,0,0.1,0,0.2,0c0.8,0,1.2,0.1,1.3,0.2
	c0.1,0.1,0.2,0.6,0.1,1.4c0,0.1,0,0.2,0,0.2c-0.1,1.5-0.2,2.5-0.3,3c-0.1,0.6-0.4,1-0.7,1.2c-0.3,0.1-0.8,0.1-1.7,0.1
	c-0.7,0-1.1,0-1.1,0c0,0.1,0,0.1,0,0.2c0.1,0,0.3,0.1,0.6,0.2c0.5,0.1,0.8,0.3,1,0.6c0.2,0.2,0.3,0.6,0.4,1c0,0.4,0.5,0.4,1.4,0.1
	c0.8-0.3,1.4-0.8,1.7-1.7s0.5-2.4,0.7-4.8c0-0.8,0.1-1.2,0.1-1.2c0-0.1,0.1-0.2,0.2-0.3c0.1-0.1,0.2-0.1,0.2-0.1
	c0.2,0,0.3-0.1,0.3-0.2c0-0.2-0.1-0.4-0.4-0.6c-0.6-0.6-1-1-1.3-1c-0.2-0.1-0.5,0-0.8,0.4c0,0-0.1,0.1-0.1,0.1
	c-0.2,0.2-0.4,0.4-0.7,0.4c-0.3,0-1.1,0-2.6,0c-0.5,0-0.9,0-1.2,0c-2.6,0-4.1,0-4.5-0.1c-0.4,0-0.6,0-0.6,0c0,0,0,0.2,0.2,0.5l0,0
	c0.1,0.3,0.2,0.4,0.3,0.4c0.1,0,0.3,0,0.6-0.1c1-0.2,1.7-0.3,2-0.1c0.3,0.1,0.5,0.5,0.4,1.2c-0.3,2.7-1.2,5-2.9,6.7
	c-0.2,0.3-0.4,0.4-0.6,0.4c-0.1,0-0.3-0.2-0.6-0.5c-0.3-0.5-0.8-0.9-1.5-1.4c-0.7-0.4-1-0.6-1.2-0.4c0,0,0.1,0.3,0.3,0.7
	c0.3,0.6,0.4,1,0.3,1.2c-0.1,0.1-0.6,0.2-1.5,0.2c-0.8,0-1.2,0-1.3-0.1c-0.1-0.1,0-0.4,0.3-0.8c0-0.1,0.2-0.2,0.4-0.5
	c0.2-0.2,0.3-0.4,0.4-0.5c0.9-1.1,1.7-2.2,2.4-3.3c0.4-0.7,0.8-1,1-1.1c0.2-0.1,0.3-0.2,0.2-0.3c-0.1-0.1-0.4-0.3-0.9-0.5
	c-1.2-0.6-1.8-0.8-1.8-0.6c0,0.2-0.2,0.7-0.6,1.7c-0.4,1-0.7,1.7-1,2.4c-0.1,0.2-0.3,0.5-0.5,0.9c-0.5,1-0.8,1.6-1,1.9
	c-0.2,0.4-0.4,0.6-0.6,0.7c-0.2,0.1-0.5,0.1-0.9,0.1c-0.2,0-0.3,0-0.4,0c-0.1,0-0.2,0-0.3,0c-0.4,0-0.6,0.1-0.6,0.1
	c0,0.1,0,0.3,0.2,0.7c0,0.1,0.1,0.2,0.1,0.3l0,0c0.2,0.6,0.3,0.9,0.4,0.9c0.1,0.1,0.2,0,0.4-0.1c0.2-0.2,0.6-0.3,1.2-0.5
	c0.6-0.2,1-0.2,1.2-0.1c0.2,0.1,0.3,0.5,0.3,1.2c0,0.7-0.1,1.1-0.3,1.2c-0.1,0-0.2,0-0.3,0c-0.1,0-0.5-0.1-1.1-0.3
	c-0.1,0-0.2,0-0.3-0.1c-0.4-0.1-0.7-0.2-0.7-0.1c-0.1,0-0.1,0.2-0.1,0.5c0,0.1,0,0.1,0,0.2c0,1.8-0.3,3.5-0.8,5.1
	c-0.1,0.4-0.2,0.6-0.2,0.7s0.1,0.1,0.2,0.1c0.2,0,0.6-0.4,1.1-1.4c0.5-0.9,1-1.9,1.3-2.9c0.2-0.6,0.4-1,0.6-1.1
	c0.2-0.2,0.4-0.1,0.5,0.2c0,0.1,0.1,0.9,0,2.3c0,1.4-0.1,2.6-0.1,3.6c0,0.4,0,0.7,0,0.8C219.7,71.9,219.8,72,220,72z M226.7,71.9
	c0.2,0,0.4,0,0.7,0c0.3,0,0.6-0.1,0.8-0.2c0.2-0.1,0.3-0.2,0.4-0.3s0.1-0.2,0.1-0.5v0c0-0.3,0-0.4,0.1-0.5c0.1-0.1,0.3-0.2,0.6-0.2
	c0.2,0,0.8,0,1.8,0c0.1,0,0.2,0,0.2,0c0.1,0,0.2,0,0.4,0c0.9,0,1.4,0,1.6,0c0.3,0,0.5,0.1,0.6,0.2c0,0.1,0.1,0.3,0.1,0.6
	c0,0,0,0.1,0,0.1c0,0.4,0.1,0.6,0.3,0.7c0.2,0.1,0.6,0,1.2-0.1c0,0,0.1,0,0.2,0c0.2-0.1,0.4-0.2,0.5-0.3c0.1-0.1,0.1-0.4,0.1-0.8
	c0-0.3,0-1,0-2.1c0-0.3,0-0.5,0-0.7c0-1.6-0.1-2.6,0-3c0-0.6,0-1,0.1-1.2c0.1-0.1,0.2-0.3,0.5-0.5c0.4-0.2,0-0.7-1.2-1.5
	c-0.3-0.2-0.5-0.3-0.6-0.3c-0.1,0-0.2,0.1-0.4,0.3c0,0-0.1,0.1-0.2,0.2c-0.3,0.4-0.5,0.6-0.8,0.6c-0.2,0-0.8,0.1-1.9,0.1
	c-0.3,0-0.5,0-0.7,0c-1.2,0-2,0-2.3-0.1c-0.3,0-0.8-0.2-1.4-0.4c-0.1,0-0.2-0.1-0.3-0.1c-0.5-0.2-0.8-0.3-0.9-0.3
	c-0.1,0-0.1,0.2-0.1,0.5c0,0.1,0,0.1,0,0.1c0.1,0.9,0.2,2.2,0.2,4c0,1.8,0,3.2-0.1,4.3c0,0.7-0.1,1.2,0,1.3
	C226.4,71.8,226.5,71.9,226.7,71.9z M233.8,69.4c-0.1,0.1-0.9,0.1-2.4,0.1c-1.5,0-2.4-0.1-2.5-0.1c-0.1-0.1-0.2-0.2-0.2-0.5
	c0-0.3,0-1.1,0-2.6c0-0.3,0-0.6,0-1c0-0.8,0-1.4,0-1.6c0.1-0.3,0.2-0.5,0.5-0.6c0.2,0,0.6-0.1,1.3,0c0.4,0,0.6,0,0.9,0s0.5,0,0.9,0
	c0.7,0,1.2,0,1.3,0c0.3,0.1,0.4,0.3,0.5,0.6c0,0.2,0.1,0.8,0,1.6c0,0.4,0,0.8,0,1c0,1.5,0,2.3,0,2.6C234,69.1,233.9,69.3,233.8,69.4
	z M224,68.3c0.5,0.3,0.9,0.2,1.2-0.2c0.2-0.4,0.2-1,0-1.7c-0.2-0.8-0.6-1.4-1.2-2c-0.7-0.7-1.1-1-1.3-1s-0.1,0.4,0.2,1.2
	c0.3,1,0.5,1.9,0.6,2.7c0,0.3,0.1,0.6,0.1,0.7C223.8,68.2,223.9,68.2,224,68.3z M218.4,57.5c0.4,0.2,0.7,0.2,0.9-0.1
	c0.2-0.2,0.4-0.5,0.4-0.9c0-0.4-0.1-0.8-0.4-1.1c-0.2-0.3-0.3-0.5-0.3-0.7c0-0.2,0.3-0.5,0.7-1c0.4-0.4,0.7-0.9,1.1-1.4
	c0.4-0.5,0.6-0.8,0.7-0.9c0.1-0.1,0.3-0.2,0.4-0.3c0.3-0.1,0.3-0.2,0-0.4c-0.2-0.2-0.8-0.4-1.7-0.8c0,0-0.1,0-0.1,0
	c-0.4-0.1-0.6-0.2-0.7-0.2s-0.1,0.2-0.2,0.5c0,0,0,0.1,0,0.1c-0.1,0.7-0.3,1.6-0.6,2.7c-0.2,0.7-0.3,1.1-0.5,1.2
	c-0.1,0.1-0.5,0.1-1-0.1c-0.9-0.3-1.2-0.3-0.9,0.1l0.1,0.1c0.1,0.1,0.2,0.2,0.2,0.3c0.7,0.8,1.1,1.6,1.4,2.4
	c0.1,0.2,0.1,0.3,0.2,0.4C218.2,57.4,218.3,57.4,218.4,57.5z M245.7,72c0.3,0.2,0.7,0.1,1.1-0.1c0.4-0.2,0.7-0.4,0.7-0.8
	c0-0.3,0.2-0.5,0.4-0.6c0.1,0,1.2-0.1,3.2-0.1c2,0,3.2,0,3.4,0c0.3,0,0.4,0.2,0.4,0.3c0,0.2-0.2,0.4-0.6,0.6
	c-0.4,0.3-0.5,0.4-0.4,0.6c0.1,0.1,0.6-0.1,1.5-0.6c1.2-0.6,2.1-1.5,2.8-2.4c0.6-1,1.1-2.3,1.3-3.8c0.1-0.5,0.1-0.8,0.2-0.9
	c0.1-0.1,0.2-0.2,0.4-0.2h0c0.2,0,0.3,0,0.3,0.1c0.1,0.1,0.1,0.4,0.1,0.8c0,0.3,0,1.1,0,2.3c0,0.2,0,0.3,0,0.4c0,0,0,0.1,0,0.2
	c0,1.6,0.1,2.5,0.1,2.9c0.1,0.6,0.4,0.9,0.8,1c0.3,0.1,1,0.1,2.2,0h0.1c0.8-0.1,1.4-0.3,1.8-0.7c0.4-0.4,0.4-0.8,0-1.2
	c-0.2-0.2-0.3-0.4-0.3-0.6c0-0.2-0.1-0.7-0.1-1.5c0,0,0-0.1,0-0.1c0-0.7,0-1-0.1-1c-0.1,0-0.1,0-0.2,0.1c0,0.1-0.1,0.5-0.3,1.1
	c-0.2,0.9-0.4,1.4-0.5,1.6c-0.1,0.2-0.4,0.3-0.8,0.3c-0.3,0-0.5,0-0.6-0.1c-0.1-0.1-0.2-0.3-0.2-0.6c0-0.3,0-0.9,0-1.8
	c0-0.1,0-0.2,0-0.4c0-1,0-1.6,0.1-1.8c0.1-0.2,0.3-0.3,0.6-0.4c0,0,0.1,0,0.1,0c0.5-0.1,0.8-0.2,0.9-0.4c0,0,0.1-0.3,0.1-0.8
	c0-0.5,0-2.1,0-4.9v-0.1c0-0.2,0-0.5,0-0.8c0-1.9,0-3.1,0-3.6c0-0.7,0-1.2,0.1-1.3c0-0.1,0.1-0.2,0.3-0.3c0,0,0.1,0,0.1,0
	c0.3-0.1,0.4-0.3,0.2-0.6c-0.1-0.3-0.5-0.7-1.2-1.2c-0.3-0.2-0.5-0.3-0.6-0.3c-0.1,0-0.3,0.2-0.5,0.5l0,0c0,0,0,0.1-0.1,0.1
	c-0.2,0.3-0.4,0.5-0.6,0.5c-0.2,0-0.7,0.1-1.5,0.1c-0.2,0-0.3,0-0.4,0c-0.1,0-0.2,0-0.4,0c-0.7,0-1.2,0-1.4,0c-0.2,0-0.5-0.2-1-0.4
	c-0.1,0-0.2-0.1-0.3-0.1c-0.5-0.2-0.8-0.3-0.9-0.3c-0.1,0-0.1,0.1-0.1,0.3c0,0.4,0,0.6-0.2,0.6c-0.2,0-0.5-0.1-0.8-0.5
	c-0.2-0.2-0.3-0.3-0.4-0.2c0,0-0.2,0.1-0.3,0.4c-0.2,0.3-0.4,0.5-0.5,0.6c-0.1,0.1-0.3,0.1-0.4,0.1c-0.3,0-0.4-0.1-0.5-0.4
	c0-0.3,0-0.5,0.3-0.7c0.2-0.1,0.2-0.3,0-0.4c-0.2-0.1-0.7-0.3-1.5-0.6c0,0-0.1,0-0.1,0c-0.3-0.1-0.5-0.1-0.6-0.1c0,0-0.1,0.2,0,0.4
	c0,0,0,0.1,0,0.1c0.1,0.8,0,1.3-0.1,1.5c-0.1,0.2-0.4,0.3-1.1,0.3c-0.6,0-1-0.1-1.1-0.2c-0.1-0.1-0.1-0.3-0.1-0.5
	c0-0.2,0.1-0.4,0.3-0.5c0.2-0.1,0.1-0.3-0.1-0.4c-0.2-0.1-0.7-0.3-1.4-0.5c0,0-0.1,0-0.1,0c-0.3-0.1-0.5-0.1-0.6-0.1
	c0,0-0.1,0.2,0,0.4c0,0,0,0.1,0,0.1c0,0.7,0,1.1,0,1.3c-0.1,0.3-0.3,0.4-0.6,0.5c-0.3,0-0.8,0-1.6-0.1c0,0,0,0-0.1,0
	c-0.2,0-0.4,0-0.4,0c0,0,0,0.2,0.1,0.4c0,0,0,0.1,0,0.1c0.1,0.3,0.2,0.4,0.3,0.5c0.1,0,0.2,0,0.3,0c0.4-0.1,0.8-0.2,1.2-0.2
	c0.3,0,0.5,0.1,0.6,0.2c0.1,0.1,0.1,0.4,0.1,0.7c0,0.2,0,0.4,0.1,0.4c0.1,0.1,0.3,0.1,0.6,0.1c0.4,0,0.6,0,0.6,0.1
	c0.1,0.1,0,0.2-0.1,0.4c-0.2,0.3-0.5,0.4-0.8,0.4s-0.9-0.2-1.6-0.5c0,0-0.1,0-0.2-0.1c-0.4-0.2-0.6-0.2-0.6-0.2c0,0-0.1,0.2,0,0.5
	c0,0,0,0.1,0,0.1c0,0.4,0.1,1,0.1,1.8c0,0.9,0,1.5,0,2c0,0.4,0,0.7,0,0.8c0,0.1,0.2,0.1,0.4,0.1c0.4,0,0.6,0,0.7,0.1
	c0.1,0,0.1,0.2,0.1,0.5c0,0.7-0.3,1.6-0.7,2.7c-0.4,1.1-0.9,2.1-1.4,3c0,0.1-0.1,0.1-0.1,0.2c0,0,0,0,0.1,0.1c0.1,0.1,0.2,0.1,0.2,0
	c0.1,0,0.2-0.2,0.5-0.4c0.4-0.4,0.6-0.5,0.8-0.4c0.2,0.1,0.2,0.6,0.3,1.4c0,0.7-0.1,2-0.2,3.9c0,0.4,0,0.7,0,0.9
	C245.6,71.8,245.6,71.9,245.7,72z M256,69.8c-0.2,0.1-0.3,0.1-0.5,0.1c-0.2-0.1-0.5-0.3-1-0.8c0,0,0,0-0.1-0.1
	c-0.3-0.3-0.5-0.4-0.6-0.4c-0.1,0-0.2,0.1-0.4,0.3c0,0-0.1,0.1-0.1,0.1c-0.3,0.4-0.5,0.6-0.6,0.7s-0.3,0.1-0.6,0.1
	c-0.3,0-0.5-0.1-0.6-0.2c-0.1-0.1-0.1-0.4-0.1-0.7c0-0.5,0.1-0.8,0.2-0.8c0.2-0.1,0.7-0.1,1.6-0.1c1.1,0,1.6-0.1,1.7-0.3
	c0.1-0.2-0.2-0.6-1-1.2c-0.3-0.3-0.5-0.4-0.6-0.4s-0.3,0.2-0.5,0.5c-0.4,0.5-0.7,0.7-1,0.7c-0.3-0.1-0.4-0.4-0.4-1
	c0-0.5,0.1-0.7,0.2-0.8c0.2-0.1,0.7-0.1,1.5-0.1c1,0,1.6-0.1,1.8-0.2c0.2-0.1,0-0.5-0.5-1c-0.4-0.4-0.8-0.7-0.9-0.7
	c-0.2,0-0.4,0.2-0.6,0.5c-0.4,0.5-0.7,0.7-1,0.7c-0.3-0.1-0.4-0.4-0.4-1v0c0-0.3,0-0.5,0.1-0.6c0.1-0.1,0.2-0.2,0.5-0.2
	c0.2,0,0.6,0,1.3,0c0.1,0,0.1,0,0.1,0c0,0,0,0,0.1,0c1,0,1.6-0.1,1.7-0.1c0.3-0.2,0-0.7-0.8-1.4c-0.4-0.3-0.6-0.4-0.7-0.4
	c-0.1,0-0.3,0.2-0.6,0.5c-0.3,0.4-0.8,0.7-1.3,0.8c-0.5,0.1-0.8-0.1-0.8-0.4c0-0.1,0.2-0.4,0.5-0.7c0.3-0.3,0.5-0.6,0.7-0.7
	c0.2-0.1,0.2-0.2,0.2-0.2c-0.1-0.1-0.3-0.2-0.6-0.3c-0.6-0.2-0.7-0.4-0.3-0.7c0.2-0.1,0.3-0.2,0.3-0.3c0.1-0.2,0.4-0.3,0.9-0.3
	c0.5,0,0.7,0.2,0.7,0.4c0,0.3,0.3,0.3,1,0c0.3-0.1,0.5-0.3,0.6-0.4s0.1-0.5,0-1.2c0-0.7,0-1.1,0-1.3c0-0.2,0.2-0.4,0.3-0.5
	c0,0,0.1-0.1,0.2-0.1l0.1,0c0-0.1,0.1-0.1,0.1-0.1c0.1,0.1,0.1,0.4,0.1,0.8c0,0.4,0,1.7,0,4c0,0.3,0,0.7,0,1.3c0,1.2,0,2,0,2.4
	c0,0.5,0,0.8,0.1,0.9c0,0.1,0.2,0.1,0.3,0.1c0.1,0,0.1,0,0.2,0c0.4,0,0.6,0,0.7,0.1c0.1,0.1,0.1,0.3,0.1,0.6c0,0.8-0.2,1.6-0.5,2.4
	C256.7,69,256.4,69.5,256,69.8z M248.7,69.8c-0.4,0-0.7,0-0.8-0.1c-0.1-0.1-0.2-0.3-0.3-0.7c0-0.4,0-0.6,0.1-0.8
	c0.1-0.2,0.4-0.3,0.9-0.4c0.5,0,0.8,0.1,1,0.3c0.1,0.1,0.1,0.4,0.1,0.8c0,0.4-0.1,0.6-0.2,0.7C249.4,69.7,249.1,69.8,248.7,69.8z
	 M248.6,67.2c-0.4,0-0.7,0-0.8-0.1c-0.2-0.1-0.3-0.4-0.3-0.8c0-0.5,0.1-0.8,0.3-0.9c0.1-0.1,0.4-0.1,0.8-0.1c0.4,0,0.7,0.1,0.8,0.1
	c0.2,0.2,0.2,0.4,0.2,0.8c0,0.4-0.1,0.7-0.3,0.8C249.3,67.2,249,67.2,248.6,67.2z M248.7,64.7c-0.4,0-0.7,0-0.8-0.1
	c-0.2-0.1-0.3-0.4-0.3-0.8c0-0.4,0.1-0.7,0.3-0.8c0.1-0.1,0.4-0.1,0.8-0.1c0.4,0,0.7,0.1,0.8,0.1c0.1,0.1,0.2,0.4,0.2,0.8
	c0,0.4-0.1,0.6-0.2,0.8C249.4,64.6,249.1,64.6,248.7,64.7z M259.8,63.2c-0.6,0-1,0-1.2,0c-0.2,0-0.4-0.2-0.5-0.3
	c0-0.1-0.1-0.4-0.1-0.9c0-0.1,0-0.2,0-0.3c0-0.1,0-0.2,0-0.3c0-0.5,0-0.8,0-1c0.1-0.2,0.2-0.3,0.5-0.4c0.2,0,0.6,0,1.2,0
	c0.1,0,0.3,0,0.3,0c0.1,0,0.2,0,0.3,0c0.7,0,1.1,0,1.2,0c0.3,0,0.4,0.2,0.5,0.4c0,0.1,0.1,0.5,0.1,1c0,0.1,0,0.2,0,0.2
	c0,0.7,0,1.1,0,1.2c0,0.1-0.1,0.2-0.2,0.3c-0.1,0.1-0.7,0.1-1.7,0.1C260.1,63.2,260,63.2,259.8,63.2z M248.8,62.2
	c-0.4,0-0.7,0-0.8-0.1c-0.3-0.1-0.3-0.4-0.2-0.7c0.1-0.4,0.4-0.7,0.7-0.8c0.1-0.1,0.1-0.2-0.1-0.5c-0.2-0.2-0.4-0.4-0.6-0.4
	c-0.3,0-0.7-0.1-1-0.3c-0.3-0.2-0.4-0.4-0.2-0.6c0.2-0.2,0.4-0.2,0.7-0.1c0.3,0.1,0.5,0.2,0.5,0.5c0,0.2,0.1,0.3,0.4,0.2
	c0.3,0,0.6-0.1,0.9-0.3c0.1-0.1,0.2-0.2,0.2-0.3c0-0.1,0-0.4,0-1c-0.1-1.5,0.2-2.1,0.6-2c0.1,0,0.2,0.5,0.2,1.5c0,1,0,1.7-0.1,2.3
	c0,0,0,0-0.1,0c-0.1,0-0.1,0.1-0.1,0.1c0,0.1,0,0.3,0,0.7c0,0.6-0.1,1-0.1,1.2c0,0.2-0.1,0.3-0.3,0.4
	C249.6,62.1,249.3,62.2,248.8,62.2z M260.1,59.4c-1.1,0-1.7,0-1.8-0.1c-0.2-0.1-0.3-0.6-0.3-1.5c0-0.9,0.1-1.4,0.3-1.5
	c0.1-0.1,0.7-0.1,1.8-0.1c1.1,0,1.7,0.1,1.8,0.1c0.2,0.1,0.3,0.6,0.3,1.5s-0.1,1.3-0.3,1.5C261.9,59.3,261.2,59.3,260.1,59.4z
	 M247.6,58c-0.2,0.1-0.4,0.1-0.7,0.1c-0.3,0-0.4-0.2-0.5-0.3c-0.2-0.4-0.2-0.8,0-1.2s0.4-0.6,0.7-0.6c0.4,0,0.7,0.3,0.8,0.9
	C248.1,57.4,248,57.8,247.6,58z M253.4,57.9c-0.2,0.1-0.4,0.2-0.7,0.2c-0.3,0-0.5-0.2-0.6-0.3c-0.2-0.4-0.2-0.8,0-1.2
	c0.2-0.4,0.4-0.6,0.7-0.6c0.4,0,0.7,0.3,0.8,0.8C253.7,57.2,253.7,57.6,253.4,57.9z M259.8,55.5c-0.7,0-1.1,0-1.2,0
	c-0.3,0-0.4-0.2-0.5-0.3c0-0.1-0.1-0.5-0.1-1c0-0.1,0-0.2,0-0.2c0-0.1,0-0.1,0-0.2c0-0.5,0-0.8,0.1-1c0-0.2,0.2-0.3,0.4-0.3
	c0.2,0,0.6,0,1.2,0c0.1,0,0.3,0,0.3,0c0.1,0,0.2,0,0.3,0c0.7,0,1.1,0,1.2,0c0.3,0,0.4,0.2,0.5,0.3c0,0.1,0.1,0.5,0.1,1
	c0,0.1,0,0.2,0,0.2c0,0.6,0,1,0,1.2c0,0.1-0.1,0.3-0.3,0.3c-0.1,0-0.7,0.1-1.8,0.1C260.1,55.5,260,55.5,259.8,55.5z M256,55.2
	c0,0.2-0.1,0.2-0.2,0.2c-0.1,0-0.2-0.1-0.4-0.4c-0.5-0.4-0.8-0.7-1-0.7c-0.2-0.1-0.4,0-0.6,0.3c-0.3,0.4-0.7,0.5-1,0.6
	c-0.3,0-0.7-0.1-1.2-0.4c-0.4-0.2-0.6-0.3-0.7-0.3c0,0-0.1,0-0.3-0.1c-0.2-0.1-0.3-0.1-0.3-0.1c0,0,0,0.1,0,0.3
	c0,0.3-0.1,0.5-0.2,0.5c-0.1,0-0.3-0.1-0.7-0.4c-0.3-0.2-0.5-0.4-0.6-0.5c-0.2-0.1-0.3-0.1-0.3-0.2c0,0,0-0.1,0-0.2
	c0-0.1,0.1-0.2,0.1-0.4c0-0.3,0.1-0.5,0.2-0.6c0.1-0.1,0.5-0.1,1-0.1c0.5,0,0.9,0,1,0.1c0.1,0.1,0.2,0.3,0.1,0.7
	c0,0.2,0,0.3,0.1,0.4c0.1,0.1,0.3,0.1,0.6,0.1c0.8,0,1.2-0.3,1.2-0.7c0-0.3,0.1-0.5,0.2-0.6c0.2-0.1,0.6-0.1,1.4-0.1
	c0.7,0,1.1,0,1.2,0c0.2,0,0.3,0.1,0.3,0.3c0.1,0.1,0.1,0.5,0.1,1C256.1,54.7,256.1,55,256,55.2z M277.5,72c0.3,0.2,0.7,0.1,1.2,0
	c0.5-0.2,0.8-0.4,0.8-0.7c0,0,0-0.1,0-0.1c0-0.2,0-0.4,0.1-0.5c0.1-0.1,0.4-0.2,0.9-0.2c0.4,0,1.2,0,2.5,0c0.3,0,0.5,0,0.7,0
	c0.2,0,0.5,0,0.8,0c1.3,0,2.1,0,2.4,0c0.5,0,0.8,0.1,0.9,0.2c0.1,0.1,0.1,0.3,0.1,0.6c0,0.1,0,0.1,0,0.2c0,0.4,0.1,0.5,0.4,0.6
	c0.3,0,0.8-0.1,1.4-0.4c0,0,0.1,0,0.1,0c0.2-0.1,0.4-0.2,0.4-0.3c0-0.1,0-0.4,0-0.9c0-0.1,0-0.1,0-0.1c-0.1-1.3-0.1-2.9-0.1-4.9
	c0-2,0-3,0-3.2c0-0.2,0.2-0.4,0.5-0.6c0.2-0.1,0.3-0.2,0.2-0.4c0-0.1-0.2-0.3-0.6-0.6c-0.6-0.5-1-0.8-1.2-0.9
	c-0.2,0-0.5,0.1-0.7,0.4c0,0-0.1,0.1-0.1,0.2c-0.2,0.3-0.5,0.4-0.8,0.5c-0.3,0-1.1,0-2.6,0c-0.4,0-0.8,0-1,0c-1.9,0-3.1,0-3.4,0
	c-0.4,0-0.6-0.1-0.7-0.2c-0.2-0.2-0.1-0.7,0.5-1.4c0,0,0,0,0.1-0.1c0.1-0.1,0.2-0.2,0.3-0.2c0.2,0,0.7-0.1,1.5-0.1
	c0.5,0,1.8,0,3.8,0c0.4,0,0.8,0,1,0c0.3,0,0.6,0,1.1,0c2,0,3.2,0,3.8,0c0.7,0,1.2,0,1.4-0.1c0.1,0,0.2-0.1,0.2-0.2v-0.1
	c0-0.1-0.3-0.5-1-1.1c-0.7-0.6-1.1-0.9-1.3-0.9c-0.1,0-0.4,0.3-0.9,1c0,0-0.1,0.1-0.1,0.2c-0.2,0.3-0.4,0.4-0.7,0.5
	c-0.3,0-1.2,0-2.8,0c-0.5,0-0.9,0-1.1,0c-0.2,0-0.5,0-0.9,0c-1.6,0-2.6,0-2.8,0s-0.4-0.1-0.5-0.2c0-0.1,0-0.4,0.2-0.9
	c0.2-0.5,0.4-0.8,0.5-0.9c0.1-0.1,0.4-0.2,0.8-0.2c0.4,0,1.8,0,4.1,0c2.4,0,3.8,0,4.2,0c0.4,0,0.6-0.1,0.7-0.2
	c0.1-0.2-0.4-0.7-1.4-1.5c-0.4-0.3-0.7-0.5-0.8-0.5c-0.1,0-0.3,0.2-0.6,0.5c0,0.1-0.1,0.2-0.2,0.3c-0.3,0.4-0.6,0.6-0.8,0.7
	c-0.2,0.1-0.9,0.1-1.9,0.1c-0.3,0-0.5,0-0.6,0c-0.1,0-0.3,0-0.5,0c-1,0-1.6,0-1.8,0c-0.3,0-0.5-0.1-0.6-0.3c0-0.1,0-0.4,0.2-0.9
	c0-0.1,0.1-0.2,0.1-0.3c0.1-0.5,0.3-0.7,0.4-0.8c0.1-0.1,0.6-0.2,1.3-0.2c1.4-0.1,2.7-0.3,4.1-0.5c1-0.1,1.6-0.2,1.9-0.1
	c0.2,0.1,0.4,0.1,0.6,0.1s0.3-0.1,0.3-0.1c0,0-0.3-0.4-1-1c-0.6-0.7-1-1-1-1c-0.1,0-0.3,0.1-0.8,0.2c-1.8,0.5-4,1-6.6,1.5
	c-2.6,0.4-5,0.8-7.3,1c-0.1,0-0.2,0-0.4,0c-0.4,0-0.7,0.1-0.8,0.1c-0.1,0-0.1,0.1-0.1,0.1c0,0.1,0.1,0.2,0.3,0.2
	c0.2,0,0.7,0.1,1.5,0c0.7,0,2-0.1,3.9-0.1c0.7,0,1.1,0,1.2,0.2c0.1,0.1,0.1,0.5-0.1,1.1c-0.2,0.5-0.3,0.7-0.5,0.8
	c-0.1,0.1-0.9,0.1-2.2,0.1c-1.3,0-2.4-0.1-3.2-0.1c-0.2,0-0.3,0-0.3,0c0,0,0.1,0.2,0.2,0.6c0,0,0,0,0,0.1c0.1,0.2,0.2,0.4,0.3,0.4
	c0.1,0,0.3,0,0.6,0c1.2-0.2,2.2-0.3,3.1-0.2c0.8,0,1.3,0.2,1.3,0.4c0,0.3-0.1,0.6-0.3,1.1c-0.2,0.4-0.5,0.7-0.7,0.8
	c-0.1,0-1,0-2.5,0c-1.6,0-2.6,0-3-0.1c-0.4,0-0.6,0-0.6,0c0,0,0,0.2,0.2,0.6l0,0c0.1,0.3,0.2,0.4,0.3,0.4c0.1,0,0.3,0,0.5,0
	c0.7-0.1,1.6-0.2,2.6-0.2c1.1,0,1.7,0,1.9,0c0.2,0.1,0.3,0.2,0.3,0.3c0,0.1-0.1,0.4-0.3,0.7c-1.4,2.4-3.2,4.4-5.3,6
	c-0.2,0.1-0.3,0.3-0.3,0.3c0,0.1,0,0.1,0.1,0.2c0.1,0.1,0.7-0.2,1.7-0.9c1-0.7,1.9-1.4,2.7-2c0.3-0.2,0.5-0.4,0.6-0.4
	c0.1,0,0.2,0,0.3,0.2c0.1,0.2,0.1,1,0.1,2.6c0,1.6-0.1,3.2-0.2,4.7c0,0.6,0,1,0,1.1C277.3,71.8,277.3,71.9,277.5,72z M283.8,69.8
	c-2.5,0-3.8,0-3.9-0.1c-0.2-0.1-0.4-0.5-0.4-1.1c0-0.6,0.1-1,0.3-1.1c0.1-0.1,1.4-0.1,3.9-0.1c2.5,0,3.8,0,3.9,0.1
	c0.2,0.1,0.3,0.5,0.3,1.2c0,0.6-0.1,1-0.4,1.1C287.5,69.8,286.2,69.8,283.8,69.8z M283.8,66.7c-2.5,0-3.8,0-3.9-0.1
	c-0.3-0.1-0.4-0.5-0.4-1.1c0-0.6,0.1-1,0.4-1.1c0.1-0.1,1.4-0.1,3.8-0.1c2.4,0,3.7,0,3.8,0.1c0.3,0.1,0.4,0.5,0.4,1.1
	c0,0.6-0.1,1-0.4,1.1C287.5,66.7,286.2,66.7,283.8,66.7z M287.6,63.6c-0.1,0.1-1.4,0.1-3.9,0.1c-2.5,0-3.8-0.1-3.9-0.1
	c-0.2-0.1-0.3-0.5-0.3-1s0.1-0.9,0.3-1c0.1-0.1,1.4-0.1,3.9-0.1c2.5,0,3.8,0,3.9,0.1c0.2,0.1,0.3,0.5,0.3,1S287.9,63.5,287.6,63.6z
	 M307.1,72c0.2,0.2,1,0,2.5-0.7c1.5-0.7,2.7-1.3,3.7-2c0.4-0.3,0.7-0.4,0.8-0.4c0.2,0,0.4,0.2,0.8,0.5c0.9,0.8,2.1,1.6,3.5,2.3
	c0,0,0.1,0,0.2,0.1c0.4,0.2,0.7,0.3,0.7,0.3c0.1,0,0.2-0.1,0.2-0.2c0.4-0.8,0.9-1.4,1.6-1.6c0.2-0.1,0.3-0.1,0.3-0.2
	c0-0.1-0.3-0.2-0.6-0.3c-1.6-0.5-3-1-4.2-1.7c-0.5-0.3-0.8-0.5-0.8-0.7c0-0.2,0.1-0.5,0.4-0.9c0.5-0.7,1-1.4,1.3-2
	c0.1-0.3,0.4-0.8,0.8-1.6c0.1-0.2,0.2-0.3,0.2-0.5c0.2-0.5,0.4-0.7,0.7-0.7c0.7,0,0.6-0.4-0.4-1.3c-0.6-0.5-0.9-0.8-1.1-0.9
	c-0.2,0-0.4,0.1-0.8,0.5c-0.4,0.4-0.6,0.6-0.7,0.6c-0.2,0.1-1.2,0.1-3.1,0.1c-1.9,0-3.3,0-4.2-0.1c-0.2,0-0.3,0-0.4,0
	c0,0,0.1,0.2,0.2,0.5c0.1,0.3,0.2,0.4,0.3,0.5c0,0,0.1,0,0.3,0c0.3-0.2,0.6-0.2,0.9-0.1c0.3,0.1,0.4,0.3,0.5,0.6
	c0.4,1.7,1,3.2,1.8,4.4c0.3,0.4,0.4,0.8,0.3,0.9c0,0.2-0.3,0.5-0.7,0.9c-1.2,1.2-2.7,2.2-4.4,3c-0.3,0.2-0.6,0.3-0.6,0.4
	C307,71.9,307,71.9,307.1,72z M300.9,71.9c0.2,0.1,0.5,0,0.9-0.1c0.4-0.1,0.7-0.3,0.8-0.4c0.1-0.1,0.1-0.3,0.1-0.7
	c0-0.5,0.1-0.7,0.2-0.8c0.1-0.1,0.6-0.1,1.3-0.1c0.7,0,1.1,0,1.3,0.1c0.2,0.1,0.2,0.3,0.2,0.7c0,0.7,0.5,0.8,1.6,0.2
	c0.3-0.1,0.5-0.3,0.5-0.4c0-0.1,0.1-0.5,0-1.1c-0.1-1.7-0.1-2.9-0.1-3.5c0.1-0.6,0.2-1,0.5-1.1s0.4-0.2,0.4-0.4
	c0-0.1-0.2-0.4-0.6-0.7c-0.6-0.6-1-0.9-1.2-0.9c-0.2-0.1-0.4,0-0.7,0.3l0,0c-0.3,0.4-0.6,0.7-0.7,0.7c-0.2,0.1-0.6,0.1-1.3,0.1
	c0,0-0.1,0-0.1,0s-0.1,0-0.1,0c-0.6,0-1,0-1.2,0c-0.2,0-0.6-0.2-1.2-0.5c-0.1,0-0.2-0.1-0.2-0.1c-0.5-0.2-0.8-0.3-0.8-0.3
	s-0.1,0.3,0,1c0.1,1,0.1,2.1,0.1,3.4c0,1.4,0,2.6-0.1,3.5c0,0.4,0,0.7,0,0.8C300.7,71.8,300.8,71.8,300.9,71.9z M304,69
	c-0.5,0-0.8,0-0.9-0.1c-0.2-0.1-0.3-0.2-0.3-0.5c0-0.2,0-0.6,0-1.3c0-0.2,0-0.4,0-0.5c0-0.1,0-0.2,0-0.4c0-0.7,0-1.1,0.1-1.3
	c0-0.3,0.1-0.4,0.3-0.5c0.1,0,0.4-0.1,0.9-0.1c0.1,0,0.2,0,0.3,0c0.1,0,0.2,0,0.3,0c0.5,0,0.8,0,0.9,0.1c0.2,0.1,0.3,0.2,0.3,0.5
	c0,0.2,0,0.6,0,1.4c0,0.2,0,0.3,0,0.4c0,1,0,1.6,0,1.8c0,0.2-0.1,0.3-0.2,0.4c-0.1,0-0.5,0.1-1.3,0.1C304.2,69,304.1,69,304,69z
	 M314.4,65.7c-0.3,0.3-0.7,0.1-1.2-0.5c-0.5-0.6-1.1-1.4-1.6-2.5c0,0,0,0,0-0.1c-0.2-0.5-0.3-0.8-0.3-0.9c0-0.2,0.2-0.3,0.5-0.3
	c0.3,0,0.9,0,1.9,0c0.1,0,0.1,0,0.1,0c0.9,0,1.5,0,1.8,0c0.4,0,0.6,0.1,0.6,0.1c0.1,0.1,0.1,0.2,0.1,0.4c0,0.3-0.3,1-0.8,2
	C315,64.9,314.7,65.5,314.4,65.7z M301.1,61.6c0,0,0.2,0,0.5,0c0.9-0.1,2.2-0.2,3.9-0.2c1.2,0,2,0,2.2,0c0.2,0,0.4-0.1,0.5-0.2
	c0.1-0.1,0-0.3-0.3-0.6c-0.3-0.3-0.6-0.6-1-0.9c-0.3-0.2-0.4-0.2-0.5-0.2c-0.1,0-0.2,0.2-0.5,0.6c-0.3,0.4-0.6,0.7-0.8,0.8
	c-0.1,0-0.8,0.1-1.9,0c-1.1,0-1.9-0.1-2.3-0.1c-0.1,0-0.2,0.1-0.1,0.3C300.8,61.1,300.9,61.3,301.1,61.6z M308.5,59.9
	c0,0.1,0.1,0.1,0.1,0.1c0.1,0,0.2-0.1,0.5-0.2c1.1-0.7,2-1.5,2.5-2.5c0.5-1,0.8-2.3,0.9-3.9c0-0.7,0.1-1.1,0.2-1.2
	c0.1-0.1,0.5-0.2,1.2-0.2c0.1,0,0.2,0,0.3,0c0.4,0,0.7,0,0.8,0.1c0.2,0.1,0.3,0.3,0.3,0.6c0,0.2,0,0.8,0,1.6c0,0.3,0,0.6,0,0.8
	c0,0.1,0,0.3,0,0.5c0,1.2,0.1,1.9,0.1,2.3c0.1,0.4,0.3,0.7,0.6,0.8c0.2,0.1,0.7,0.1,1.5,0.1c0.1,0,0.2,0,0.3,0c0.9,0,1.6,0,2-0.1
	c0.4-0.1,0.8-0.2,1-0.4c0.2-0.2,0.3-0.4,0.3-0.7c0-0.3-0.1-0.5-0.3-0.7c-0.1-0.1-0.2-0.3-0.3-0.6c0-0.3-0.1-0.9-0.1-1.6
	c0-0.4,0-0.7-0.1-0.7c-0.1-0.1-0.1,0-0.2,0.1c0,0.1-0.1,0.4-0.3,1c-0.2,0.9-0.4,1.5-0.6,1.7c-0.2,0.2-0.6,0.3-1.2,0.2
	c-0.3,0-0.5-0.1-0.6-0.1c-0.1-0.1-0.2-0.3-0.2-0.6c0-0.2,0-0.8,0-1.6c0-1.1,0-1.7,0-1.9c0-0.2,0.2-0.4,0.4-0.5
	c0.4-0.2,0.1-0.8-1-1.7c-0.3-0.2-0.5-0.3-0.6-0.3c-0.1,0-0.2,0.2-0.5,0.5c-0.3,0.4-0.5,0.6-0.7,0.7c-0.1,0.1-0.5,0.1-1.1,0.1
	c-0.5,0-0.9,0-1.1-0.1c-0.2,0-0.6-0.2-1.2-0.5c0,0-0.1,0-0.1,0c-0.7-0.3-1-0.4-1-0.4c0,0,0,0.8-0.1,2.3c0,1.2,0,2,0,2.4
	c0,0.4-0.1,0.8-0.2,1.4c-0.3,1.2-0.8,2.2-1.5,3c-0.1,0.2-0.2,0.3-0.2,0.3C308.5,59.8,308.5,59.8,308.5,59.9z M301.1,58.5
	c0.1,0,0.3,0,0.7,0c0.8-0.1,2.1-0.2,3.9-0.2c1.1,0,1.8-0.1,2.1-0.1c0.4-0.1,0.5-0.2,0.4-0.4c-0.1-0.2-0.4-0.5-1-1
	c-0.4-0.4-0.7-0.5-0.8-0.5c-0.1,0-0.3,0.2-0.6,0.5c-0.3,0.4-0.5,0.7-0.7,0.8s-0.5,0.1-1,0.1c-1.2,0-2.2,0-3.1-0.1
	c-0.3,0-0.4,0-0.5,0c0,0,0,0.2,0.2,0.5C301,58.3,301.1,58.5,301.1,58.5z M300,55.4c0,0,0.1,0,0.2,0c0.1,0,0.4-0.1,0.8-0.1
	c0.3-0.1,0.6-0.1,1.1-0.1c0.4,0,1.5,0,3.3,0c0,0,0.1,0,0.1,0c2,0,3.1,0,3.5,0c0.4,0,0.6-0.1,0.6-0.2c0.1-0.1,0-0.3-0.3-0.6
	c-0.3-0.3-0.6-0.6-1.1-0.9c-0.3-0.2-0.5-0.3-0.6-0.3c-0.1,0-0.3,0.2-0.6,0.6c0,0-0.1,0.1-0.1,0.2c-0.2,0.3-0.5,0.5-0.7,0.6
	c-0.2,0-0.9,0.1-2,0c-0.3,0-0.5,0-0.7,0c-1.8,0-2.9,0-3.3-0.1c0,0-0.1,0-0.1,0c-0.3,0-0.5,0-0.5,0c0,0,0,0.2,0.2,0.5
	C299.8,55.1,299.9,55.3,300,55.4z M301.4,52.4c1-0.2,2.5-0.3,4.4-0.3c1.5,0,2.3-0.1,2.5-0.3c0.1-0.2-0.3-0.7-1.3-1.5
	c-0.3-0.2-0.5-0.3-0.6-0.3c-0.1,0-0.2,0.2-0.5,0.5c-0.3,0.5-0.6,0.7-0.7,0.8c-0.1,0.1-0.5,0.1-1,0.1c-1.1,0-2.1,0-3-0.1
	c-0.3,0-0.4,0-0.5,0c0,0,0,0.2,0.2,0.5c0.2,0.3,0.3,0.5,0.3,0.5C301.3,52.4,301.3,52.4,301.4,52.4z M22.6,96
	c0.3,0.1,0.7,0.1,1.2-0.1c0.4-0.2,0.7-0.4,0.7-0.7c0-0.4,0.1-0.7,0.3-0.8c0.2-0.1,0.6-0.1,1.4-0.1c0.8,0,1.2,0,1.4,0.1
	c0.2,0.1,0.2,0.3,0.2,0.6c0,0.3,0.1,0.4,0.5,0.4c0.4,0,0.9-0.2,1.4-0.5c0.2-0.1,0.3-0.2,0.3-0.3c0-0.1,0-0.4,0-0.9
	c0-0.1,0-0.2,0-0.2c0-0.8-0.1-1.8-0.1-2.8s0-1.6,0.1-1.6c0.1-0.3,0.3-0.4,0.4-0.4c0.2,0,0.3-0.1,0.4-0.2c0-0.2,0-0.3-0.2-0.5
	c-0.6-0.6-1.1-1-1.4-1.2c-0.4-0.1-0.7,0-0.9,0.3c0,0,0,0-0.1,0.1c-0.2,0.3-0.4,0.5-0.6,0.5c-0.1,0-0.5,0.1-1.2,0.1
	c-0.1,0-0.2,0-0.3,0c-0.1,0-0.2,0-0.3,0c-0.6,0-1,0-1.2,0c-0.2,0-0.6-0.2-1.2-0.5c0,0-0.1,0-0.1,0c-0.1,0-0.1-0.1-0.2-0.1
	c-0.4-0.2-0.6-0.2-0.7-0.2c0,0-0.1,0.2,0,0.6c0,0.1,0,0.2,0,0.2c0.2,2.3,0.2,4.6,0.1,7c0,0.4,0,0.7,0,0.8C22.4,95.9,22.4,96,22.6,96
	z M35.7,96.1c0.2,0,0.5,0,0.9-0.1c0.4-0.1,0.7-0.2,0.9-0.5c0.2-0.1,0.3-0.3,0.3-0.4c0-0.1,0-0.5,0-1c-0.1-1.7-0.1-3.9-0.1-6.7
	c0-2.8,0-4.3,0.1-4.4c0.1-0.1,0.2-0.2,0.5-0.2c0.2,0,1,0,2.2,0c1.1,0,1.8,0,2.2-0.1c0.4-0.1,0.5-0.3,0.3-0.6
	c-0.1-0.2-0.6-0.7-1.4-1.3c-0.4-0.3-0.6-0.4-0.7-0.4c-0.1,0-0.3,0.2-0.6,0.7l0,0c-0.3,0.5-0.6,0.8-0.7,0.9c-0.1,0.1-0.4,0.1-0.8,0.1
	c0,0-0.1,0-0.2,0c-0.3,0-0.5,0-0.6-0.1c-0.1-0.1-0.2-0.3-0.2-0.7c0-0.3,0-0.9,0-1.9c0-0.3,0-0.5,0-0.6c0-1.6,0-2.6,0-2.9
	c0-0.3,0.2-0.5,0.4-0.7c0.3-0.2,0.2-0.3-0.1-0.5c-0.3-0.2-1-0.4-2-0.6c0,0-0.1,0-0.2,0c-0.3-0.1-0.5-0.1-0.6,0c0,0-0.1,0.2,0,0.5
	c0,0,0,0.1,0,0.1c0.1,0.9,0.2,2.3,0.2,4.2c0,1.9,0,2.9-0.1,3c-0.1,0.2-0.6,0.3-1.6,0.3c-1,0-1.9,0-2.7-0.2c-0.1,0-0.2,0-0.2,0.1
	c0,0,0.1,0.2,0.2,0.4c0.1,0.3,0.2,0.5,0.3,0.5c0.1,0,0.2,0.1,0.3,0c1-0.2,1.8-0.3,2.5-0.3c0.7,0,1.1,0.1,1.2,0.3
	c0.1,0.1,0.1,1.6,0.1,4.3c0,2.7-0.1,5-0.2,6.8c0,0.9-0.1,1.4,0,1.6C35.3,95.9,35.4,96,35.7,96.1z M25.7,93.6c-0.5,0-0.8,0-0.9-0.1
	c-0.2-0.1-0.3-0.2-0.3-0.5c0-0.2,0-0.6,0-1.4c0-0.2,0-0.4,0-0.6c0-0.1,0-0.3,0-0.6c0-0.7,0-1.2,0-1.4c0-0.3,0.2-0.4,0.3-0.5
	c0.1,0,0.5-0.1,1-0.1c0.1,0,0.3,0,0.3,0s0.2,0,0.3,0c0.5,0,0.8,0,0.9,0.1c0.2,0.1,0.3,0.2,0.3,0.5c0,0.2,0,0.6,0,1.4
	c0,0.2,0,0.4,0,0.6c0,1.1,0,1.8,0,2c0,0.2-0.1,0.3-0.3,0.4c-0.1,0.1-0.5,0.1-1.3,0.1C26,93.6,25.9,93.6,25.7,93.6z M22.8,85.7
	c0.1,0,0.2,0,0.5,0c0.9-0.1,2.3-0.2,4.2-0.2c1.4,0,2.3,0,2.5,0c0.3,0,0.4-0.1,0.4-0.3c0.1-0.3-0.3-0.7-1.2-1.3
	c-0.4-0.3-0.6-0.4-0.7-0.4c-0.1,0-0.3,0.2-0.5,0.5c-0.4,0.5-0.6,0.8-0.8,0.9c-0.1,0.1-0.8,0.1-1.8,0.1c-1.1,0-2-0.1-2.8-0.1
	c-0.2,0-0.3,0-0.3,0c0,0,0.1,0.2,0.2,0.6l0,0C22.6,85.5,22.7,85.7,22.8,85.7z M22.7,82.5c0.1,0.1,0.1,0.1,0.2,0.1c0,0,0.1,0,0.2,0
	c0.7-0.1,1.2-0.2,1.5-0.2c0.4,0,1.4-0.1,3-0.1c1.2,0,1.9,0,2.3-0.1c0.4-0.1,0.6-0.2,0.5-0.4c0-0.1-0.3-0.4-0.8-0.9
	c-0.5-0.5-0.9-0.7-1.1-0.7c-0.1,0-0.4,0.3-0.7,0.8c-0.2,0.3-0.4,0.5-0.6,0.6c-0.2,0-0.6,0.1-1.4,0.1c-0.1,0-0.1,0-0.2,0
	c-1.6,0-2.7,0-3.2-0.1c-0.1,0-0.2,0.1-0.1,0.3C22.4,82.1,22.5,82.3,22.7,82.5z M21.7,79.5c0,0,0.3,0,0.9-0.1c0.1,0,0.1,0,0.1,0
	c0.3-0.1,0.7-0.1,1.1-0.1c0.4,0,1.5,0,3.4,0c0,0,0.1,0,0.1,0c0.2,0,0.4,0,0.6,0c1.4,0,2.2,0,2.6,0c0.5,0,0.8,0,1-0.1
	c0.1,0,0.1-0.1,0.1-0.3v0c0-0.1-0.2-0.4-0.7-0.8s-0.8-0.7-1.1-0.8c-0.1-0.1-0.3-0.1-0.3,0c-0.1,0-0.2,0.2-0.5,0.6
	c0,0-0.1,0.1-0.1,0.2c-0.2,0.3-0.5,0.5-0.7,0.6c-0.2,0-0.9,0.1-2.1,0c-0.3,0-0.6,0-0.7,0c-2,0-3.1,0-3.5-0.1c0,0-0.1,0-0.1,0
	c-0.3,0-0.5,0-0.5,0c0,0,0,0.2,0.2,0.5C21.5,79.2,21.6,79.4,21.7,79.5z M22.8,76.5c0.1,0,0.3,0,0.7-0.1c0.1,0,0.2,0,0.2,0
	c0.9-0.1,2.1-0.2,3.8-0.2c1.1,0,1.8,0,2.1,0c0.4,0,0.6-0.2,0.6-0.3c0-0.1-0.2-0.4-0.6-0.7c-0.6-0.6-1-0.9-1.2-0.9
	c-0.2-0.1-0.4,0-0.7,0.3c0,0-0.1,0.1-0.1,0.2c-0.3,0.4-0.6,0.7-0.8,0.8c-0.2,0.1-0.6,0.1-1.3,0c-0.1,0-0.3,0-0.3,0
	c-1.5,0-2.5-0.1-2.9-0.1c-0.1,0-0.2,0-0.2,0.1c0,0.1,0.1,0.3,0.2,0.6c0,0,0,0.1,0.1,0.2C22.7,76.4,22.8,76.5,22.8,76.5z M55.6,95.6
	c0.1,0,0.2,0,0.4,0c0,0,0.1,0,0.1,0c0.7-0.1,1.3-0.2,2-0.2s2.7,0,6.1,0c3.3,0,5.2,0,5.8,0c0.6,0,0.9-0.1,1-0.2
	c0.1-0.1,0-0.4-0.4-0.8s-0.8-0.8-1.2-1.2c-0.3-0.2-0.5-0.3-0.6-0.3c-0.1,0-0.3,0.3-0.6,0.8c-0.3,0.5-0.6,0.8-0.8,0.9
	c-0.2,0.1-0.6,0.1-1.3,0.1c0,0-0.1,0-0.1,0c0,0-0.1,0-0.2,0c-0.5,0-0.8,0-0.9-0.1c-0.2,0-0.3-0.2-0.3-0.5c0-0.2,0-0.6,0-1.3
	c0-0.2,0-0.3,0-0.4c0-0.1,0-0.3,0-0.6c0-0.6,0-1,0-1.1c0.1-0.2,0.3-0.4,0.6-0.4c0.2,0,0.7-0.1,1.5,0c0.3,0,0.6,0,0.8,0
	c1.2,0,1.9,0,2.3,0c0.4,0,0.6-0.2,0.5-0.3c0-0.1-0.3-0.4-0.8-0.9c-0.6-0.6-1.1-1-1.2-1c-0.2,0-0.4,0.2-0.7,0.6
	c-0.3,0.5-0.6,0.8-0.7,0.9c-0.1,0.1-0.5,0.1-1,0.1c0,0-0.1,0-0.1,0c-0.5,0-0.9-0.1-1-0.2c-0.1-0.1-0.1-0.6-0.1-1.4
	c0-0.1,0-0.2,0-0.2c0,0,0-0.1,0-0.2c0-0.6,0-1,0-1.2c0-0.2,0.2-0.4,0.3-0.4c0.1,0,0.4-0.1,0.9-0.1c0.1,0,0.1,0,0.1,0
	c0.6,0,1,0,1.2,0.1c0.2,0.1,0.3,0.3,0.3,0.6c0,0.3,0.4,0.4,1.2,0.1c0.5-0.2,0.9-0.3,1-0.5c0.1-0.2,0.2-0.6,0.1-1.2
	c-0.1-2.2-0.1-4.4-0.1-6.5c0-0.9,0-1.4,0.1-1.5c0-0.2,0.1-0.3,0.3-0.4c0.4-0.2,0.5-0.4,0.5-0.5c0-0.1-0.2-0.4-0.7-0.7
	c-0.4-0.4-0.8-0.7-1.2-0.9c-0.2-0.1-0.3-0.1-0.4,0c-0.1,0-0.3,0.2-0.5,0.5c0,0-0.1,0.1-0.1,0.1c-0.2,0.3-0.5,0.4-0.8,0.5
	c-0.3,0-1.2,0-2.7,0c-0.3,0-0.5,0-0.7,0c-0.2,0-0.5,0-0.8,0c-1.4,0-2.3,0-2.6,0c-0.3,0-0.7-0.2-1.2-0.4c-0.1,0-0.2-0.1-0.3-0.1
	c-0.1,0-0.2-0.1-0.3-0.1c-0.4-0.2-0.6-0.3-0.7-0.2c-0.1,0-0.1,0.1-0.1,0.3c0,0.1,0,0.1,0,0.1c0,0.5-0.1,0.8-0.2,0.8
	c-0.2,0-0.5-0.2-1.1-0.7c0,0-0.1-0.1-0.2-0.2c-0.2-0.2-0.4-0.3-0.4-0.3c-0.1,0-0.2,0.1-0.3,0.2c0,0-0.1,0.1-0.1,0.1
	c0,0.1-0.1,0.2-0.2,0.3c-0.4,0.5-0.6,0.8-0.8,0.9c-0.2,0.1-0.6,0.1-1.2,0.1c-0.2,0-0.3,0-0.4,0c-1.6,0-2.6,0-3.1-0.1
	c-0.2,0-0.2,0.2,0,0.6c0.1,0.3,0.2,0.4,0.3,0.5c0.1,0,0.2,0,0.3,0c0.5-0.2,0.9-0.2,1.2-0.2s0.6,0.1,0.7,0.3c0.1,0.1,0.1,1,0.1,2.7
	c0,1.7,0,2.5-0.1,2.6c-0.1,0.1-0.3,0.2-0.6,0.2c-0.3,0-0.9,0-1.7-0.1c-0.2,0-0.2,0-0.3,0c0,0,0.1,0.2,0.2,0.5
	c0.1,0.3,0.2,0.4,0.3,0.5c0.1,0,0.2,0,0.3,0c0.4-0.2,0.8-0.2,1.2-0.2c0.4,0,0.6,0.1,0.7,0.3c0.1,0.1,0.1,1.2,0.1,3.1
	c0,1.9,0,3-0.1,3.1c-0.1,0.2-0.2,0.3-0.5,0.4c-0.3,0.1-0.8,0.3-1.7,0.5c0,0-0.1,0-0.1,0c-0.2,0-0.3,0.1-0.4,0.2c0,0.1,0,0.3,0,0.6
	c0.1,0.2,0.2,0.7,0.6,1.4c0.1,0.2,0.1,0.3,0.2,0.4c0,0.1,0.1,0.1,0.1,0.1c0.1,0,0.1-0.1,0.2-0.1c0.2-0.2,0.3-0.4,0.5-0.5
	c0.2-0.1,0.5-0.3,0.9-0.6c3.9-2.3,5.8-3.6,5.8-3.8c0-0.1-0.1-0.1-0.2-0.1c-0.1,0-0.5,0.2-1.2,0.4c-0.1,0-0.2,0.1-0.4,0.1
	c-0.6,0.2-0.9,0.3-1.1,0.3c-0.2,0-0.4-0.2-0.4-0.5c0-0.2,0-0.8,0-1.8c0-0.3,0-0.5,0-0.6c0-0.2,0-0.5,0-0.8c0-0.8,0-1.3,0-1.5
	c0-0.3,0.1-0.5,0.3-0.6c0.1,0,0.4-0.1,0.9-0.1c0.2,0,0.4,0,0.5,0c0.1,0,0.2,0,0.4,0c0.6,0,1,0,1.1,0.2c0.1,0.1,0.1,0.6,0,1.4
	c0,0.2,0,0.4,0,0.5c0,0.1,0,0.2,0,0.3c0,0.7,0,1,0,1.1c0.1,0.2,0.3,0.3,0.7,0.3c0.4,0,0.7-0.1,1.1-0.3c0.4-0.2,0.6-0.4,0.6-0.7
	c0-0.3,0.1-0.4,0.3-0.5c0.2-0.1,0.5-0.1,1.1-0.1c0,0,0,0,0.1,0c0.6,0,1,0.1,1.1,0.2c0.1,0.1,0.2,0.6,0.2,1.5c0,0,0,0.1,0,0.1
	c0,0.1,0,0.2,0,0.4c0,0.6,0,1,0,1.2c0,0.2-0.2,0.4-0.4,0.4c-0.2,0-0.6,0-1.2,0c-0.2,0-0.3,0-0.4,0c-0.8,0-1.6,0-2.3-0.1
	c-0.4,0-0.6,0-0.6,0c0,0,0,0.2,0.1,0.5l0,0.1l0,0c0.1,0.3,0.2,0.4,0.3,0.4c0.1,0,0.2,0,0.4,0c0.1,0,0.1,0,0.1,0
	c0.6-0.1,1.4-0.2,2.2-0.2c0.8,0,1.3,0,1.4,0.1c0.2,0.1,0.3,0.2,0.3,0.4c0,0.2,0,0.7,0,1.7s0,1.5,0,1.7c0,0.2-0.1,0.3-0.3,0.4
	c-0.1,0.1-1,0.1-2.7,0.1c-1.6,0-2.9-0.1-3.7-0.1h0c-0.3,0-0.4,0-0.4,0c0,0,0.1,0.2,0.2,0.5l0,0c0,0,0,0,0,0.1
	C55.4,95.4,55.5,95.5,55.6,95.6z M66.9,85.2c-0.3,0.1-0.7,0.2-1.4,0.1c-0.6-0.1-1-0.2-1.1-0.4c-0.1-0.1-0.1-0.7-0.1-1.8
	c0-1,0-1.6,0.1-1.7c0.1-0.2,0.5-0.3,1.2-0.3c0.7-0.1,1.2,0,1.4,0.1c0.2,0.2,0.3,0.8,0.3,2C67.3,84.4,67.2,85.1,66.9,85.2z
	 M61.9,85.2c-0.3,0.1-0.7,0.2-1.3,0.1c-0.6-0.1-0.9-0.2-1-0.4c-0.1-0.1-0.1-0.7-0.1-1.8c0-1,0-1.6,0.1-1.7c0.1-0.2,0.4-0.3,1.1-0.3
	c0.7-0.1,1.1,0,1.3,0.1c0.2,0.2,0.3,0.8,0.3,2C62.2,84.4,62.1,85.1,61.9,85.2z M57.2,82.5c-0.1,0.2-0.2,0.2-0.3,0.2
	c-0.1,0-0.3-0.2-0.6-0.6c-0.4-0.5-0.7-0.7-0.9-0.7c-0.1,0-0.3,0.1-0.5,0.5c-0.2,0.4-0.4,0.6-0.6,0.7c-0.1,0.1-0.2,0.1-0.3,0
	C54,82.5,54,81.6,53.9,80c0-1.6,0-2.5,0.1-2.6c0.1-0.3,0.7-0.4,1.7-0.4c1,0,1.6,0.1,1.6,0.4c0,0.2,0.1,1,0,2.6
	C57.3,81.5,57.3,82.4,57.2,82.5z M66.9,80.4c-0.3,0.1-0.7,0.2-1.4,0.1c-0.6-0.1-1-0.2-1.1-0.4c-0.1-0.1-0.1-0.7-0.1-1.7
	c0-1,0-1.6,0.1-1.8c0.1-0.2,0.5-0.3,1.2-0.3c0.7-0.1,1.2,0,1.4,0.1c0.2,0.2,0.3,0.8,0.3,2C67.3,79.6,67.2,80.3,66.9,80.4z
	 M60.7,80.5c-0.4,0-0.7,0-0.8-0.1c-0.2-0.1-0.3-0.2-0.3-0.5c0-0.2,0-0.6,0-1.3c0-0.1,0-0.2,0-0.2c0-0.1,0-0.2,0-0.3
	c0-0.7,0-1.1,0-1.2c0-0.3,0.1-0.4,0.3-0.5c0.1,0,0.4-0.1,0.8,0c0.1,0,0.2,0,0.2,0c0,0,0.1,0,0.2,0c0.4,0,0.7,0,0.8,0.1
	c0.2,0.1,0.3,0.2,0.3,0.5c0,0.2,0,0.7,0,1.4c0,0.1,0,0.2,0,0.2c0,0.8,0,1.3-0.1,1.5c0,0.2-0.1,0.3-0.3,0.4c-0.1,0-0.4,0.1-1,0.1
	C60.8,80.5,60.8,80.5,60.7,80.5z M84.8,95.5c0.9,0.1,2.3,0.1,4.2,0c1.8,0,3-0.1,3.6-0.2c0.6-0.1,1-0.4,1.2-0.8
	c0.2-0.4,0.1-0.7-0.4-1c-0.2-0.1-0.3-0.3-0.4-0.5c0-0.2-0.1-0.6-0.1-1.3v0c0-0.6-0.1-0.9-0.1-1.1c0-0.1,0-0.2-0.1-0.2
	c-0.1,0-0.2,0.3-0.4,0.9c0,0.1,0,0.2-0.1,0.3c-0.2,0.7-0.4,1.1-0.5,1.3c-0.2,0.3-0.5,0.4-0.9,0.5c-0.3,0-1,0.1-2.1,0.1
	c-0.2,0-0.4,0-0.5,0c-0.2,0-0.5,0-0.9,0c-0.8,0-1.4,0-1.6,0c-0.3,0-0.5-0.2-0.6-0.4c0-0.2-0.1-0.5-0.1-1.2c0-0.2,0-0.4,0-0.6
	c0-1,0-1.6,0-1.8c0-0.3,0.1-0.4,0.3-0.6c0.2-0.2,0.1-0.3-0.2-0.5c-0.3-0.2-0.9-0.4-1.8-0.6c-0.3-0.1-0.5-0.1-0.5-0.1
	c0,0-0.1,0.2,0,0.5c0,0.4,0.1,1.4,0.1,3.2c0,1.4,0.1,2.3,0.1,2.7c0.1,0.5,0.2,0.9,0.5,1.1C83.7,95.3,84.1,95.4,84.8,95.5z
	 M78.1,94.4c0.7,0.2,1.4-0.1,2-0.9c0.6-0.8,0.9-1.8,0.9-2.9c0-0.6,0-1.1-0.1-1.6c-0.1-0.4-0.2-0.7-0.3-0.8s-0.2,0.1-0.3,0.6
	c-0.2,1.4-0.9,2.6-2.2,3.4c-0.6,0.4-0.8,0.8-0.9,1.3C77.2,93.9,77.5,94.2,78.1,94.4z M96.6,94c0.7,0.3,1.1,0.1,1.4-0.3
	c0.2-0.4,0.2-1,0-1.8c-0.3-0.8-0.7-1.5-1.4-2c-0.5-0.4-1.1-0.8-1.8-1.2c-0.7-0.3-1.2-0.5-1.5-0.6c-0.4-0.1-0.4,0.1-0.1,0.4
	c0.7,0.7,1.3,1.5,1.8,2.4c0.5,0.9,0.9,1.7,1.1,2.4C96.1,93.7,96.3,93.9,96.6,94z M88.5,91.1c0.4,0.1,0.7,0.1,1-0.1
	c0.3-0.2,0.4-0.6,0.4-1c0-0.7-0.3-1.3-0.9-1.9c-0.6-0.6-1.5-1-2.6-1.4c-0.6-0.2-0.9-0.2-1-0.2c-0.1,0,0,0.2,0.3,0.6
	c1.2,1.4,2,2.6,2.3,3.6C88.1,90.9,88.2,91.1,88.5,91.1z M89.7,87.9c0.4,0.1,0.8,0.1,1,0.1c0.2-0.1,0.4-0.2,0.6-0.5
	c0.2-0.3,0.7-1.2,1.6-2.8c0.2-0.4,0.5-0.7,0.9-0.9c0.3-0.1,0.5-0.2,0.5-0.3c0-0.1-0.2-0.4-0.6-0.7c-0.6-0.6-1-0.9-1.2-1
	c-0.2-0.1-0.5,0.1-0.7,0.4c0,0-0.1,0.1-0.2,0.2c-0.2,0.2-0.4,0.4-0.8,0.4c-0.3,0-1.3,0-3,0c-0.6,0-1,0-1.3,0c-3,0-4.7,0-5.1-0.1
	c-0.4,0-0.5,0-0.6,0c0,0,0,0.2,0.2,0.6l0,0c0.1,0.3,0.2,0.4,0.3,0.4c0.1,0,0.3,0,0.5,0c0.7-0.1,1.3-0.2,1.8-0.2c0.5,0,1.7,0,3.4,0
	c0.2,0,0.5,0,0.9,0c1.2,0,2,0,2.3,0.1c0.4,0.1,0.6,0.3,0.5,0.7c-0.1,0.3-0.4,0.9-1,1.8c-0.2,0.3-0.3,0.6-0.4,0.7
	C89,87.2,89,87.5,89,87.6S89.3,87.8,89.7,87.9z M77,83c0.1,0.1,0.8-0.1,2.1-0.7c1.3-0.6,2.5-1.2,3.5-1.9c0.1-0.1,0.4-0.2,0.6-0.4
	c0.1-0.1,0.2-0.1,0.3-0.2c0.3-0.2,0.9-0.6,1.7-1.3c0.8-0.7,1.4-1.3,1.7-1.7c0.4-0.5,0.7-0.8,0.9-0.9c0.2-0.1,0.4-0.2,0.5-0.1
	c0.1,0,0.3,0.2,0.5,0.6c1.8,2.6,4.3,4.6,7.6,6c0.3,0.1,0.5,0.2,0.6,0.2c0.1,0,0.1-0.1,0.2-0.3c0.1-0.3,0.3-0.7,0.5-1
	c0.2-0.3,0.5-0.6,0.7-0.7c0.2-0.1,0.3-0.2,0.3-0.3c0.1-0.1,0-0.2,0-0.2c0,0-0.4-0.1-1.1-0.3c-3.3-0.8-6.1-2.1-8.2-3.9
	c-0.3-0.2-0.4-0.4-0.5-0.6c0-0.2,0.1-0.3,0.3-0.4c0.1-0.1,0.2-0.1,0.2-0.2c0-0.1-0.6-0.3-1.7-0.7c-1.1-0.4-1.7-0.6-1.8-0.5
	c0,0-0.1,0.2-0.1,0.4c-0.5,1.4-1.5,2.9-3,4.6c-1.5,1.6-3.3,2.9-5.2,4c-0.3,0.2-0.5,0.3-0.6,0.4C76.9,82.8,76.9,82.9,77,83z M84.3,81
	c0,0,0.3,0,0.7-0.1c0.5-0.1,1.7-0.2,3.6-0.2c1.3,0,2.1,0,2.3,0c0.2,0,0.4-0.1,0.4-0.2c0.1-0.1-0.1-0.4-0.5-0.8
	c-0.4-0.4-0.8-0.7-1.3-1c-0.2-0.1-0.3-0.1-0.4,0c-0.1,0-0.2,0.2-0.5,0.6c-0.4,0.5-0.8,0.7-1.3,0.8c-0.5,0.1-1.5,0-3.1-0.1
	c-0.2,0-0.3,0-0.3,0c0,0,0.1,0.2,0.2,0.5C84.2,80.8,84.2,81,84.3,81z M115.1,88.3c1.1,0.1,2-0.2,2.8-1c0.8-0.8,1.1-1.7,1-2.8
	c-0.1-0.9-0.5-1.6-1.2-2.2c-0.6-0.5-1.4-0.8-2.2-0.8c-0.9,0-1.6,0.3-2.3,0.9c-0.7,0.6-1,1.4-1.1,2.3c0,0.8,0.2,1.6,0.7,2.3
	C113.4,87.8,114.2,88.2,115.1,88.3z M116.4,87.3c-0.8,0.3-1.6,0.2-2.3-0.3c-0.7-0.5-1.1-1.2-1.1-2.1c0-0.7,0.2-1.3,0.7-1.8
	c0.5-0.5,1.1-0.7,1.7-0.7c0.7,0,1.3,0.2,1.8,0.7c0.7,0.6,0.9,1.4,0.7,2.3C117.8,86.4,117.3,87,116.4,87.3z"/>
</svg>
