<svg width="352" height="219" viewBox="0 0 352 219" fill="none" xmlns="http://www.w3.org/2000/svg">
<g clip-path="url(#clip0)">
<path d="M350.65 0.649902H0.650024V217.44H350.65V0.649902Z" stroke="#D6D2C7" stroke-width="1.3" stroke-miterlimit="10" stroke-dasharray="9.31 9.31"/>
</g>
<path d="M25.52 97.872C25.728 98.08 26.136 98.08 26.744 97.872C27.368 97.664 27.68 97.416 27.68 97.128C27.68 97.032 27.712 96.936 27.776 96.84C27.824 96.712 27.992 96.632 28.28 96.6C28.568 96.584 29.552 96.576 31.232 96.576C31.6 96.576 31.888 96.576 32.096 96.576C32.336 96.576 32.664 96.576 33.08 96.576C34.328 96.576 35.12 96.584 35.456 96.6C35.92 96.616 36.208 96.672 36.32 96.768C36.4 96.832 36.432 96.984 36.416 97.224C36.416 97.288 36.416 97.344 36.416 97.392C36.4 97.888 36.872 97.984 37.832 97.68L37.856 97.656C38.32 97.496 38.584 97.352 38.648 97.224C38.728 97.096 38.752 96.72 38.72 96.096C38.64 94.56 38.616 93.48 38.648 92.856C38.696 92.216 38.816 91.832 39.008 91.704C39.264 91.544 39.392 91.416 39.392 91.32C39.392 91.176 39.008 90.808 38.24 90.216C37.792 89.88 37.592 89.664 37.64 89.568C37.704 89.472 38.08 89.384 38.768 89.304C39.616 89.192 40.168 88.992 40.424 88.704C40.696 88.416 40.56 88.144 40.016 87.888C39.792 87.792 39.64 87.688 39.56 87.576C39.48 87.448 39.44 87.264 39.44 87.024C39.44 86.256 39.288 86.24 38.984 86.976C38.968 87.008 38.944 87.056 38.912 87.12C38.768 87.456 38.608 87.672 38.432 87.768C38.192 87.896 37.688 87.976 36.92 88.008C36.376 88.024 35.096 88.032 33.08 88.032C32.728 88.032 32.464 88.032 32.288 88.032C29.664 88.016 28.12 88 27.656 87.984C27.208 87.968 26.936 87.888 26.84 87.744C26.648 87.456 26.656 87.256 26.864 87.144C27.088 87.032 27.624 86.96 28.472 86.928C31.096 86.816 33.536 86.648 35.792 86.424C37.104 86.28 37.976 86.248 38.408 86.328C38.632 86.36 38.736 86.32 38.72 86.208C38.704 86.08 38.56 85.808 38.288 85.392C37.904 84.8 37.784 84.4 37.928 84.192C37.976 84.096 37.984 83.856 37.952 83.472C37.872 82.416 38.104 81.928 38.648 82.008C38.952 82.056 39.704 81.68 40.904 80.88C41.336 80.592 41.672 80.424 41.912 80.376C42.248 80.312 42.384 80.184 42.32 79.992C42.256 79.784 41.952 79.408 41.408 78.864C40.928 78.4 40.616 78.16 40.472 78.144C40.344 78.112 40.12 78.272 39.8 78.624C39.448 78.992 39.192 79.208 39.032 79.272C38.872 79.32 38.464 79.344 37.808 79.344C37.76 79.344 37.72 79.344 37.688 79.344C37 79.328 36.576 79.288 36.416 79.224C36.256 79.16 36.256 79.032 36.416 78.84C36.528 78.728 36.936 78.408 37.64 77.88C38.36 77.336 38.768 77.056 38.864 77.04C39.184 76.944 39.216 76.816 38.96 76.656C38.72 76.48 38.12 76.24 37.16 75.936C37.128 75.92 37.088 75.904 37.04 75.888C36.656 75.776 36.424 75.728 36.344 75.744C36.28 75.76 36.216 75.904 36.152 76.176C35.912 77.008 35.656 77.712 35.384 78.288C35.112 78.848 34.872 79.168 34.664 79.248C34.536 79.312 34.32 79.344 34.016 79.344C33.696 79.36 33.48 79.336 33.368 79.272C33.112 79.144 32.984 78.776 32.984 78.168C32.984 77.544 33.12 77.12 33.392 76.896C33.6 76.736 33.568 76.584 33.296 76.44C33.04 76.296 32.424 76.104 31.448 75.864C31.048 75.752 30.816 75.712 30.752 75.744C30.688 75.76 30.672 75.864 30.704 76.056V76.104C30.864 77.48 30.888 78.368 30.776 78.768C30.68 79.152 30.352 79.344 29.792 79.344C29.008 79.344 28.72 79.136 28.928 78.72C29.232 78.16 29.088 77.592 28.496 77.016C27.904 76.44 27.08 76.08 26.024 75.936C25.688 75.888 25.504 75.904 25.472 75.984C25.456 76.048 25.576 76.208 25.832 76.464C26.312 76.96 26.672 77.496 26.912 78.072C27.168 78.648 27.208 79.024 27.032 79.2C26.968 79.264 26.896 79.304 26.816 79.32C26.736 79.32 26.488 79.328 26.072 79.344C25.496 79.36 25.12 79.328 24.944 79.248C24.768 79.152 24.616 78.92 24.488 78.552C24.2 77.736 24.032 77.712 23.984 78.48C23.904 79.584 23.448 80.408 22.616 80.952C22.152 81.256 21.872 81.592 21.776 81.96C21.68 82.312 21.784 82.632 22.088 82.92C22.568 83.4 23.112 83.416 23.72 82.968C24.328 82.504 24.688 81.808 24.8 80.88C24.848 80.496 24.928 80.256 25.04 80.16C25.152 80.064 25.392 80.024 25.76 80.04C25.92 80.056 26.152 80.064 26.456 80.064C27.64 80.032 29.512 80.024 32.072 80.04C34.68 80.04 36.016 80.056 36.08 80.088C36.304 80.2 36.264 80.464 35.96 80.88L35.936 80.904C35.776 81.096 35.552 81.208 35.264 81.24C34.992 81.272 34.088 81.288 32.552 81.288C32.328 81.288 32.152 81.288 32.024 81.288C31.784 81.288 31.472 81.288 31.088 81.288C29.808 81.288 29.024 81.28 28.736 81.264C28.464 81.232 28.144 81.128 27.776 80.952C27.68 80.92 27.6 80.888 27.536 80.856C26.816 80.52 26.384 80.352 26.24 80.352C26.208 80.352 26.2 80.464 26.216 80.688C26.216 80.768 26.232 80.952 26.264 81.24C26.28 81.4 26.288 81.52 26.288 81.6C26.384 82.672 26.424 83.392 26.408 83.76C26.392 84.208 26.296 84.488 26.12 84.6C25.976 84.696 25.68 84.72 25.232 84.672C25.184 84.672 25.128 84.664 25.064 84.648C24.808 84.616 24.656 84.648 24.608 84.744C24.576 84.824 24.56 85.136 24.56 85.68C24.56 85.84 24.56 85.968 24.56 86.064C24.56 86.192 24.56 86.368 24.56 86.592C24.544 87.632 24.616 88.288 24.776 88.56C24.984 88.944 25.512 89.192 26.36 89.304C26.968 89.368 28.408 89.408 30.68 89.424C31.176 89.424 31.552 89.424 31.808 89.424C32.128 89.424 32.576 89.424 33.152 89.424C34.752 89.424 35.76 89.432 36.176 89.448C36.752 89.48 37.08 89.536 37.16 89.616C37.224 89.664 37.16 89.8 36.968 90.024C36.904 90.088 36.856 90.144 36.824 90.192C36.792 90.224 36.752 90.272 36.704 90.336C36.496 90.608 36.24 90.768 35.936 90.816C35.632 90.848 34.696 90.864 33.128 90.864C32.648 90.864 32.272 90.864 32 90.864C31.776 90.864 31.472 90.864 31.088 90.864C29.456 90.864 28.464 90.848 28.112 90.816C27.76 90.784 27.336 90.656 26.84 90.432C26.68 90.368 26.56 90.32 26.48 90.288C25.888 90.032 25.536 89.896 25.424 89.88C25.312 89.864 25.272 89.928 25.304 90.072C25.432 90.92 25.504 92.016 25.52 93.36C25.536 94.736 25.496 96.048 25.4 97.296C25.384 97.52 25.376 97.656 25.376 97.704C25.392 97.752 25.44 97.808 25.52 97.872ZM32.072 95.904C29.496 95.904 28.144 95.872 28.016 95.808C27.792 95.696 27.672 95.416 27.656 94.968C27.64 94.52 27.744 94.232 27.968 94.104C28.08 94.04 29.448 94.008 32.072 94.008C34.696 94.008 36.064 94.04 36.176 94.104C36.4 94.232 36.504 94.52 36.488 94.968C36.472 95.416 36.352 95.696 36.128 95.808C36 95.872 34.648 95.904 32.072 95.904ZM32.072 93.36C29.496 93.36 28.144 93.328 28.016 93.264C27.792 93.168 27.68 92.888 27.68 92.424C27.68 91.96 27.792 91.68 28.016 91.584C28.144 91.504 29.496 91.464 32.072 91.464C34.648 91.464 36 91.504 36.128 91.584C36.368 91.696 36.488 91.976 36.488 92.424C36.488 92.872 36.368 93.152 36.128 93.264C36 93.328 34.648 93.36 32.072 93.36ZM28.448 86.256C27.584 86.384 27.104 86.424 27.008 86.376C26.848 86.312 26.752 86.184 26.72 85.992C26.704 85.8 26.768 85.64 26.912 85.512C27.216 85.24 27.52 85.016 27.824 84.84C27.888 84.808 28.008 84.744 28.184 84.648C28.28 84.6 28.344 84.568 28.376 84.552C28.568 84.424 28.816 84.352 29.12 84.336C29.44 84.304 30.456 84.288 32.168 84.288H32.192C33.728 84.304 34.632 84.32 34.904 84.336C35.192 84.336 35.368 84.36 35.432 84.408C35.8 84.68 35.56 84.936 34.712 85.176C33.864 85.416 32.064 85.736 29.312 86.136C29.088 86.168 28.8 86.208 28.448 86.256ZM32.12 83.664C30.056 83.664 28.96 83.632 28.832 83.568C28.608 83.456 28.488 83.208 28.472 82.824C28.472 82.44 28.576 82.184 28.784 82.056C28.896 81.992 30.008 81.96 32.12 81.96C34.232 81.96 35.344 81.992 35.456 82.056C35.664 82.184 35.76 82.44 35.744 82.824C35.744 83.208 35.632 83.456 35.408 83.568C35.28 83.632 34.184 83.664 32.12 83.664ZM38.648 81.384C38.536 81.48 38.424 81.512 38.312 81.48C38.216 81.448 38.032 81.32 37.76 81.096C37.264 80.68 37.024 80.4 37.04 80.256C37.072 80.112 37.384 80.032 37.976 80.016C38.52 80 38.856 80.136 38.984 80.424C39.128 80.696 39.016 81.016 38.648 81.384ZM50.216 97.992C50.584 98.056 50.976 97.976 51.392 97.752C51.824 97.528 52.024 97.28 51.992 97.008C51.944 96.624 51.992 96.376 52.136 96.264C52.296 96.152 52.656 96.096 53.216 96.096C53.792 96.096 54.136 96.136 54.248 96.216C54.376 96.312 54.432 96.56 54.416 96.96C54.4 97.456 54.792 97.576 55.592 97.32C56.056 97.176 56.336 97.016 56.432 96.84C56.528 96.68 56.56 96.28 56.528 95.64C56.432 93.496 56.408 92.152 56.456 91.608C56.504 91.064 56.68 90.704 56.984 90.528C57.224 90.384 57.28 90.216 57.152 90.024C57.04 89.816 56.704 89.504 56.144 89.088C55.728 88.784 55.464 88.632 55.352 88.632C55.224 88.648 55.024 88.808 54.752 89.112C54.016 89.992 52.704 90.016 50.816 89.184C50.112 88.88 49.76 88.76 49.76 88.824C49.76 88.936 49.784 89.184 49.832 89.568C49.912 90.416 49.968 91.544 50 92.952C50.032 94.392 50.016 95.528 49.952 96.36C49.904 97.064 49.896 97.504 49.928 97.68C49.96 97.856 50.056 97.96 50.216 97.992ZM69.152 97.656C69.408 97.768 69.664 97.8 69.92 97.752C70.192 97.72 70.4 97.624 70.544 97.464C70.736 97.256 70.696 96.76 70.424 95.976C70.28 95.56 70.208 95.208 70.208 94.92C70.208 94.616 70.272 93.928 70.4 92.856C70.496 92.104 70.544 91.64 70.544 91.464C70.56 91.288 70.536 91.2 70.472 91.2C70.408 91.2 70.272 91.464 70.064 91.992C69.664 93.16 69.352 93.808 69.128 93.936C68.904 94.064 68.608 93.768 68.24 93.048C67.12 90.936 66.432 87.736 66.176 83.448C66.176 83.4 66.168 83.328 66.152 83.232C66.136 82.736 66.144 82.424 66.176 82.296C66.24 82.104 66.416 81.984 66.704 81.936C66.928 81.904 67.432 81.888 68.216 81.888C68.344 81.888 68.448 81.888 68.528 81.888C69.568 81.888 70.184 81.88 70.376 81.864C70.584 81.832 70.72 81.752 70.784 81.624C70.88 81.432 70.528 81.008 69.728 80.352C69.472 80.144 69.32 79.984 69.272 79.872C69.24 79.744 69.296 79.584 69.44 79.392C69.696 79.056 69.72 78.664 69.512 78.216C69.32 77.8 68.976 77.448 68.48 77.16C67.952 76.856 67.392 76.704 66.8 76.704C66.688 76.704 66.576 76.664 66.464 76.584C66.24 76.456 65.784 76.296 65.096 76.104C64.408 75.912 64.04 75.84 63.992 75.888C63.944 75.936 63.928 76.76 63.944 78.36C63.944 78.584 63.952 78.88 63.968 79.248C63.984 79.984 63.976 80.456 63.944 80.664C63.88 80.936 63.736 81.104 63.512 81.168C63.336 81.216 62.928 81.232 62.288 81.216C61.984 81.216 61.736 81.216 61.544 81.216C59.944 81.216 58.904 81.192 58.424 81.144C57.944 81.08 57.688 80.96 57.656 80.784C57.624 80.592 57.336 80.256 56.792 79.776C56.264 79.296 55.912 79.056 55.736 79.056C55.624 79.056 55.408 79.28 55.088 79.728C54.8 80.144 54.568 80.384 54.392 80.448C54.264 80.496 53.56 80.512 52.28 80.496C51.016 80.48 50.024 80.44 49.304 80.376C49.08 80.344 48.96 80.36 48.944 80.424C48.944 80.472 49.024 80.656 49.184 80.976C49.2 81.024 49.232 81.08 49.28 81.144C49.36 81.32 49.432 81.416 49.496 81.432C49.56 81.448 49.736 81.424 50.024 81.36C50.12 81.344 50.192 81.328 50.24 81.312C50.64 81.232 51.856 81.192 53.888 81.192C54.08 81.192 54.344 81.192 54.68 81.192C56.024 81.176 56.816 81.184 57.056 81.216C57.296 81.248 57.472 81.376 57.584 81.6C57.6 81.648 57.624 81.696 57.656 81.744V81.792C57.784 82 57.88 82.12 57.944 82.152C58.024 82.184 58.216 82.184 58.52 82.152C58.552 82.136 58.584 82.128 58.616 82.128C59.448 82.016 60.48 81.944 61.712 81.912C62.96 81.88 63.656 81.912 63.8 82.008C63.912 82.088 64.016 82.496 64.112 83.232C64.224 83.952 64.248 84.424 64.184 84.648C64.184 84.664 64.168 84.72 64.136 84.816C64.104 84.992 64.008 85.056 63.848 85.008C63.704 84.96 63.472 84.792 63.152 84.504C63.136 84.488 63.104 84.464 63.056 84.432C62.832 84.224 62.688 84.128 62.624 84.144C62.56 84.16 62.432 84.312 62.24 84.6C62.224 84.632 62.208 84.656 62.192 84.672C61.872 85.168 61.448 85.464 60.92 85.56C60.408 85.656 59.424 85.632 57.968 85.488C57.616 85.456 57.424 85.464 57.392 85.512C57.36 85.544 57.424 85.712 57.584 86.016C57.712 86.288 57.808 86.448 57.872 86.496C57.936 86.544 58.024 86.536 58.136 86.472C58.424 86.344 58.728 86.288 59.048 86.304C59.384 86.304 59.608 86.376 59.72 86.52C59.784 86.6 59.824 87.672 59.84 89.736C59.872 91.784 59.856 92.904 59.792 93.096C59.744 93.272 59.632 93.4 59.456 93.48C59.296 93.544 58.864 93.64 58.16 93.768C58.08 93.784 57.976 93.8 57.848 93.816C57.48 93.88 57.272 93.96 57.224 94.056C57.192 94.136 57.272 94.392 57.464 94.824C57.528 94.984 57.576 95.112 57.608 95.208C57.864 95.88 58.048 96.272 58.16 96.384C58.288 96.512 58.416 96.44 58.544 96.168C58.624 96.04 59.592 95.496 61.448 94.536C63.816 93.32 65.008 92.68 65.024 92.616C65.04 92.488 64.984 92.432 64.856 92.448C64.712 92.448 64.344 92.512 63.752 92.64C63.64 92.672 63.488 92.704 63.296 92.736C62.752 92.864 62.408 92.912 62.264 92.88C62.072 92.848 61.952 92.656 61.904 92.304C61.872 92.048 61.856 91.44 61.856 90.48C61.856 90.112 61.856 89.824 61.856 89.616C61.856 89.424 61.856 89.16 61.856 88.824C61.856 87.88 61.864 87.28 61.88 87.024C61.912 86.672 62 86.448 62.144 86.352C62.24 86.288 62.472 86.264 62.84 86.28C62.968 86.28 63.072 86.28 63.152 86.28H63.176C63.752 86.28 64.096 86.336 64.208 86.448C64.32 86.56 64.432 86.96 64.544 87.648C64.544 87.68 64.544 87.704 64.544 87.72C64.96 90.424 65.576 92.656 66.392 94.416C67.208 96.16 68.128 97.24 69.152 97.656ZM53.048 95.424C52.648 95.424 52.392 95.4 52.28 95.352C52.136 95.272 52.048 95.088 52.016 94.8C51.984 94.592 51.968 94.088 51.968 93.288C51.968 93.128 51.968 93 51.968 92.904C51.968 92.808 51.968 92.68 51.968 92.52C51.968 91.72 51.984 91.216 52.016 91.008C52.048 90.72 52.136 90.536 52.28 90.456C52.392 90.408 52.648 90.384 53.048 90.384C53.128 90.384 53.184 90.384 53.216 90.384C53.248 90.384 53.304 90.384 53.384 90.384C53.784 90.384 54.04 90.408 54.152 90.456C54.296 90.536 54.384 90.72 54.416 91.008C54.448 91.216 54.464 91.72 54.464 92.52C54.464 92.68 54.464 92.808 54.464 92.904C54.464 94.04 54.448 94.712 54.416 94.92C54.384 95.128 54.288 95.264 54.128 95.328C54 95.392 53.696 95.424 53.216 95.424C53.184 95.424 53.128 95.424 53.048 95.424ZM50.384 87.528C50.448 87.56 50.616 87.552 50.888 87.504C51.576 87.392 52.784 87.312 54.512 87.264C55.632 87.248 56.288 87.232 56.48 87.216C56.688 87.184 56.808 87.096 56.84 86.952C56.872 86.84 56.736 86.616 56.432 86.28C56.144 85.928 55.824 85.632 55.472 85.392C55.248 85.232 55.088 85.176 54.992 85.224C54.896 85.272 54.712 85.48 54.44 85.848C54.152 86.264 53.776 86.504 53.312 86.568C52.864 86.632 51.76 86.584 50 86.424C49.904 86.424 49.864 86.464 49.88 86.544C49.896 86.624 49.968 86.8 50.096 87.072L50.12 87.12C50.232 87.36 50.32 87.496 50.384 87.528ZM50.384 84.456C50.448 84.488 50.616 84.48 50.888 84.432C51.576 84.32 52.784 84.24 54.512 84.192C55.632 84.176 56.288 84.16 56.48 84.144C56.688 84.112 56.808 84.024 56.84 83.88C56.888 83.704 56.624 83.36 56.048 82.848C55.488 82.32 55.128 82.096 54.968 82.176C54.888 82.208 54.728 82.4 54.488 82.752C54.184 83.184 53.776 83.44 53.264 83.52C52.768 83.584 51.744 83.544 50.192 83.4C49.984 83.368 49.872 83.384 49.856 83.448C49.856 83.496 49.936 83.68 50.096 84L50.12 84.048C50.232 84.288 50.32 84.424 50.384 84.456ZM66.872 81.216C66.664 81.216 66.504 81.184 66.392 81.12C66.136 80.96 66.024 80.288 66.056 79.104C66.088 77.92 66.24 77.256 66.512 77.112C66.688 77.032 66.928 77.192 67.232 77.592C67.536 77.992 67.784 78.48 67.976 79.056C68.072 79.28 68.152 79.424 68.216 79.488C68.344 79.616 68.384 79.76 68.336 79.92C68.304 80.08 68.16 80.32 67.904 80.64C67.728 80.88 67.56 81.04 67.4 81.12C67.256 81.184 67.08 81.216 66.872 81.216ZM50.312 78.336C50.376 78.432 50.568 78.448 50.888 78.384C51.752 78.24 52.944 78.16 54.464 78.144C55.504 78.128 56.144 78.104 56.384 78.072C56.576 78.056 56.696 77.992 56.744 77.88C56.808 77.752 56.68 77.512 56.36 77.16C56.056 76.792 55.712 76.48 55.328 76.224C55.088 76.064 54.92 76.016 54.824 76.08C54.728 76.128 54.528 76.368 54.224 76.8C53.952 77.168 53.544 77.392 53 77.472C52.456 77.536 51.544 77.488 50.264 77.328C50.024 77.312 49.904 77.376 49.904 77.52C49.92 77.648 50.056 77.92 50.312 78.336ZM81.032 97.992C81.272 98.024 81.592 97.984 81.992 97.872C82.408 97.76 82.688 97.624 82.832 97.464C82.896 97.4 82.928 97.304 82.928 97.176C82.928 97.064 82.912 96.672 82.88 96C82.816 94.64 82.784 92.816 82.784 90.528C82.784 88.24 82.816 87.04 82.88 86.928C82.976 86.752 83.144 86.624 83.384 86.544C83.64 86.448 83.856 86.44 84.032 86.52C84.16 86.584 84.272 86.76 84.368 87.048C84.464 87.32 84.512 87.592 84.512 87.864C84.512 88.168 84.696 88.368 85.064 88.464C85.432 88.544 85.736 88.456 85.976 88.2C86.424 87.736 86.48 87.104 86.144 86.304C85.808 85.488 85.184 84.776 84.272 84.168C83.104 83.384 82.752 83.392 83.216 84.192C83.632 84.912 83.784 85.36 83.672 85.536C83.576 85.712 83.096 85.832 82.232 85.896C81.528 85.944 81.088 85.952 80.912 85.92C80.704 85.872 80.672 85.728 80.816 85.488C80.912 85.296 81.24 84.88 81.8 84.24C82.536 83.408 83.152 82.656 83.648 81.984C84.176 81.296 84.536 80.84 84.728 80.616C84.936 80.392 85.112 80.256 85.256 80.208C85.544 80.128 85.584 80 85.376 79.824C85.168 79.632 84.632 79.32 83.768 78.888C83.752 78.872 83.728 78.856 83.696 78.84C83.344 78.664 83.128 78.584 83.048 78.6C82.984 78.6 82.912 78.728 82.832 78.984C82.816 79.016 82.808 79.04 82.808 79.056C82.424 80.208 81.728 81.736 80.72 83.64C80.24 84.568 79.904 85.184 79.712 85.488C79.536 85.776 79.368 85.952 79.208 86.016C78.92 86.144 78.336 86.208 77.456 86.208H77.432C77.176 86.208 77.032 86.24 77 86.304C76.984 86.352 77.032 86.536 77.144 86.856C77.144 86.904 77.152 86.944 77.168 86.976C77.408 87.792 77.568 88.264 77.648 88.392C77.728 88.504 77.848 88.472 78.008 88.296C78.184 88.104 78.632 87.912 79.352 87.72C80.056 87.528 80.488 87.48 80.648 87.576C80.808 87.672 80.88 88.016 80.864 88.608C80.848 89.104 80.76 89.384 80.6 89.448C80.44 89.496 79.984 89.416 79.232 89.208C79.152 89.192 79.048 89.16 78.92 89.112C78.52 89 78.288 88.96 78.224 88.992C78.16 89.008 78.128 89.144 78.128 89.4C78.128 89.464 78.128 89.512 78.128 89.544C78.128 90.296 78.032 91.192 77.84 92.232C77.648 93.272 77.408 94.208 77.12 95.04C76.992 95.408 76.928 95.648 76.928 95.76C76.928 95.856 77 95.904 77.144 95.904C77.352 95.904 77.752 95.4 78.344 94.392C78.936 93.384 79.432 92.376 79.832 91.368C80.024 90.856 80.192 90.536 80.336 90.408C80.48 90.28 80.624 90.32 80.768 90.528C80.848 90.64 80.88 91.36 80.864 92.688C80.848 94.048 80.792 95.376 80.696 96.672C80.664 97.216 80.664 97.56 80.696 97.704C80.744 97.864 80.856 97.96 81.032 97.992ZM84.776 97.68C84.84 97.776 85.04 97.792 85.376 97.728C86.032 97.616 86.664 97.552 87.272 97.536C87.896 97.52 89.712 97.504 92.72 97.488C95.632 97.472 97.328 97.456 97.808 97.44C98.304 97.44 98.584 97.416 98.648 97.368C98.968 97.144 98.72 96.616 97.904 95.784C97.632 95.512 97.44 95.368 97.328 95.352C97.232 95.336 97.128 95.432 97.016 95.64C96.712 96.152 96.48 96.256 96.32 95.952C96.288 95.888 96.256 93.184 96.224 87.84C96.208 82.496 96.216 79.688 96.248 79.416C96.296 79.096 96.472 78.856 96.776 78.696C97.112 78.52 97.232 78.336 97.136 78.144C97.04 77.936 96.64 77.56 95.936 77.016C95.504 76.68 95.224 76.52 95.096 76.536C94.968 76.552 94.728 76.752 94.376 77.136L94.352 77.184C94.336 77.216 94.304 77.248 94.256 77.28C94.048 77.52 93.848 77.664 93.656 77.712C93.48 77.744 92.952 77.76 92.072 77.76C91.864 77.76 91.704 77.76 91.592 77.76C91.48 77.76 91.328 77.76 91.136 77.76C90.288 77.76 89.744 77.744 89.504 77.712C89.28 77.664 88.896 77.536 88.352 77.328C88.224 77.264 88.12 77.216 88.04 77.184C87.352 76.896 86.976 76.752 86.912 76.752C86.864 76.752 86.888 77.24 86.984 78.216C87.048 78.744 87.088 81.888 87.104 87.648C87.12 93.392 87.096 96.328 87.032 96.456C86.952 96.632 86.76 96.736 86.456 96.768C86.168 96.816 85.664 96.8 84.944 96.72C84.576 96.688 84.384 96.728 84.368 96.84C84.352 96.952 84.488 97.232 84.776 97.68ZM91.64 96.84C90.312 96.84 89.576 96.8 89.432 96.72C89.288 96.656 89.2 96.504 89.168 96.264C89.152 96.024 89.144 95.224 89.144 93.864C89.144 93.64 89.144 93.344 89.144 92.976C89.128 92.192 89.144 91.696 89.192 91.488C89.24 91.2 89.392 91.024 89.648 90.96C89.824 90.912 90.24 90.896 90.896 90.912C91.2 90.912 91.448 90.912 91.64 90.912C91.832 90.912 92.08 90.912 92.384 90.912C93.04 90.896 93.456 90.912 93.632 90.96C93.888 91.024 94.04 91.2 94.088 91.488C94.136 91.696 94.152 92.192 94.136 92.976C94.136 93.344 94.136 93.64 94.136 93.864C94.136 95.224 94.12 96.024 94.088 96.264C94.072 96.504 93.976 96.664 93.8 96.744C93.688 96.808 92.968 96.84 91.64 96.84ZM84.776 93.84C85.208 94.096 85.568 94.088 85.856 93.816C86.128 93.544 86.256 93.136 86.24 92.592C86.224 92 86.04 91.432 85.688 90.888C85.4 90.456 85.04 90.056 84.608 89.688C84.192 89.336 83.864 89.128 83.624 89.064C83.352 89.016 83.288 89.16 83.432 89.496C83.688 90.136 83.912 90.848 84.104 91.632C84.312 92.4 84.416 92.968 84.416 93.336C84.416 93.528 84.536 93.696 84.776 93.84ZM91.64 90.312C90.312 90.312 89.576 90.28 89.432 90.216C89.288 90.136 89.2 89.984 89.168 89.76C89.152 89.52 89.144 88.752 89.144 87.456C89.144 87.248 89.144 86.96 89.144 86.592C89.128 85.856 89.144 85.392 89.192 85.2C89.256 84.912 89.408 84.736 89.648 84.672C89.824 84.624 90.248 84.608 90.92 84.624C91.224 84.624 91.464 84.624 91.64 84.624C91.816 84.624 92.056 84.624 92.36 84.624C93.032 84.608 93.456 84.624 93.632 84.672C93.872 84.736 94.024 84.912 94.088 85.2C94.136 85.392 94.152 85.856 94.136 86.592C94.136 86.96 94.136 87.248 94.136 87.456C94.136 88.752 94.12 89.52 94.088 89.76C94.072 89.984 93.976 90.136 93.8 90.216C93.688 90.28 92.968 90.312 91.64 90.312ZM91.64 84.024C90.312 84.024 89.576 83.992 89.432 83.928C89.288 83.848 89.2 83.696 89.168 83.472C89.152 83.248 89.144 82.496 89.144 81.216C89.144 81.024 89.144 80.76 89.144 80.424C89.128 79.672 89.144 79.2 89.192 79.008C89.256 78.72 89.408 78.544 89.648 78.48C89.824 78.432 90.24 78.416 90.896 78.432C91.216 78.432 91.464 78.432 91.64 78.432C91.816 78.432 92.064 78.432 92.384 78.432C93.04 78.416 93.456 78.432 93.632 78.48C93.872 78.544 94.024 78.72 94.088 79.008C94.136 79.2 94.152 79.672 94.136 80.424C94.136 80.76 94.136 81.024 94.136 81.216C94.136 82.496 94.12 83.248 94.088 83.472C94.072 83.696 93.976 83.848 93.8 83.928C93.688 83.992 92.968 84.024 91.64 84.024ZM79.352 83.208C79.88 83.432 80.264 83.304 80.504 82.824C80.744 82.344 80.688 81.808 80.336 81.216C80.16 80.928 80.088 80.712 80.12 80.568C80.152 80.424 80.344 80.16 80.696 79.776C80.728 79.728 80.792 79.656 80.888 79.56C81.24 79.144 81.48 78.848 81.608 78.672C82.168 77.936 82.52 77.52 82.664 77.424C82.76 77.328 82.88 77.264 83.024 77.232C83.296 77.152 83.288 77.008 83 76.8C82.712 76.592 82.096 76.288 81.152 75.888C81.12 75.872 81.088 75.856 81.056 75.84C80.784 75.728 80.616 75.688 80.552 75.72C80.504 75.736 80.456 75.88 80.408 76.152C80.392 76.2 80.384 76.24 80.384 76.272C80.272 76.832 80.12 77.464 79.928 78.168C79.736 78.872 79.576 79.352 79.448 79.608C79.336 79.832 79.2 79.944 79.04 79.944C78.896 79.96 78.52 79.856 77.912 79.632C77.464 79.472 77.2 79.424 77.12 79.488C77.04 79.536 77.112 79.696 77.336 79.968C77.656 80.32 77.96 80.76 78.248 81.288C78.536 81.8 78.744 82.256 78.872 82.656C78.936 82.864 78.992 82.992 79.04 83.04C79.088 83.088 79.192 83.144 79.352 83.208ZM108.92 97.968C109.32 98.08 109.768 98.008 110.264 97.752C110.76 97.496 111.008 97.216 111.008 96.912C111.008 96.88 111.008 96.832 111.008 96.768C111.008 96.528 111.048 96.368 111.128 96.288C111.272 96.192 111.608 96.136 112.136 96.12C112.504 96.104 113.4 96.096 114.824 96.096C115.128 96.096 115.368 96.096 115.544 96.096C115.784 96.096 116.112 96.096 116.528 96.096C117.84 96.096 118.672 96.104 119.024 96.12C119.52 96.136 119.824 96.192 119.936 96.288C120.032 96.352 120.072 96.512 120.056 96.768C120.056 96.848 120.056 96.912 120.056 96.96C120.056 97.392 120.128 97.648 120.272 97.728C120.432 97.808 120.784 97.784 121.328 97.656H121.352C121.944 97.496 122.288 97.336 122.384 97.176C122.48 97.016 122.512 96.536 122.48 95.736C122.48 95.688 122.48 95.656 122.48 95.64C122.4 93.672 122.376 92.296 122.408 91.512C122.456 90.712 122.576 90.248 122.768 90.12C123.136 89.896 123.304 89.712 123.272 89.568C123.24 89.408 122.952 89.112 122.408 88.68C121.752 88.168 121.336 87.896 121.16 87.864C121 87.816 120.784 87.952 120.512 88.272C120.176 88.704 119.912 88.96 119.72 89.04C119.624 89.072 118.192 89.088 115.424 89.088C115.104 89.088 114.688 89.088 114.176 89.088C112.624 89.088 111.68 89.072 111.344 89.04C111.008 89.008 110.592 88.88 110.096 88.656C109.936 88.592 109.808 88.536 109.712 88.488C109.104 88.232 108.736 88.096 108.608 88.08C108.496 88.048 108.456 88.096 108.488 88.224C108.616 89.024 108.696 90.296 108.728 92.04C108.76 93.8 108.736 95.352 108.656 96.696C108.624 97.24 108.616 97.576 108.632 97.704C108.664 97.832 108.76 97.92 108.92 97.968ZM115.568 95.448C112.832 95.448 111.408 95.408 111.296 95.328C111.152 95.248 111.064 95.096 111.032 94.872C111.016 94.632 111.008 93.88 111.008 92.616C111.008 92.376 111 92.056 110.984 91.656C110.968 90.936 111 90.48 111.08 90.288C111.176 90.032 111.432 89.872 111.848 89.808C112.152 89.76 112.872 89.744 114.008 89.76C114.648 89.76 115.16 89.76 115.544 89.76C115.736 89.76 116.016 89.76 116.384 89.76C118.096 89.76 119.096 89.776 119.384 89.808C119.688 89.824 119.888 89.896 119.984 90.024L120.008 90.072C120.152 90.264 120.2 91.16 120.152 92.76C120.104 94.36 120 95.208 119.84 95.304C119.728 95.384 118.304 95.432 115.568 95.448ZM104.84 86.568C104.888 86.6 104.936 86.608 104.984 86.592C105.032 86.576 105.192 86.504 105.464 86.376C105.528 86.344 105.584 86.32 105.632 86.304C107.44 85.472 109.224 84.344 110.984 82.92C112.744 81.48 114.224 79.968 115.424 78.384C115.744 77.952 115.976 77.728 116.12 77.712C116.28 77.712 116.464 77.92 116.672 78.336C118.096 81.008 120.32 83.248 123.344 85.056C123.904 85.392 124.248 85.584 124.376 85.632C124.504 85.664 124.592 85.6 124.64 85.44C124.752 85.12 124.944 84.808 125.216 84.504C125.488 84.2 125.784 83.968 126.104 83.808C126.344 83.68 126.432 83.576 126.368 83.496C126.32 83.4 126.072 83.272 125.624 83.112C122.216 81.848 119.56 80.256 117.656 78.336C117.192 77.872 116.928 77.544 116.864 77.352C116.816 77.16 116.936 77 117.224 76.872C117.432 76.776 117.536 76.704 117.536 76.656C117.552 76.608 117.424 76.536 117.152 76.44C116.944 76.36 116.464 76.208 115.712 75.984C114.8 75.712 114.264 75.568 114.104 75.552C113.944 75.52 113.848 75.592 113.816 75.768C113.592 77.128 112.64 78.824 110.96 80.856C109.296 82.872 107.432 84.568 105.368 85.944C105.08 86.136 104.904 86.272 104.84 86.352C104.776 86.432 104.776 86.504 104.84 86.568ZM110.552 85.68C110.584 85.728 110.84 85.712 111.32 85.632C111.912 85.552 112.496 85.496 113.072 85.464C113.68 85.448 114.904 85.44 116.744 85.44C118.216 85.44 119.192 85.432 119.672 85.416C120.28 85.4 120.672 85.368 120.848 85.32C120.976 85.272 121.04 85.184 121.04 85.056C121.04 84.928 120.728 84.584 120.104 84.024C119.496 83.448 119.072 83.12 118.832 83.04C118.752 83.008 118.664 83.032 118.568 83.112C118.472 83.192 118.304 83.4 118.064 83.736C117.632 84.312 117.304 84.64 117.08 84.72C116.904 84.784 115.84 84.8 113.888 84.768C111.952 84.72 110.744 84.664 110.264 84.6C110.12 84.568 110.08 84.672 110.144 84.912C110.208 85.152 110.344 85.408 110.552 85.68ZM133.4 97.8C133.464 97.832 133.624 97.824 133.88 97.776C133.912 97.776 133.944 97.768 133.976 97.752C134.6 97.656 135.352 97.6 136.232 97.584C137.112 97.568 139.864 97.552 144.488 97.536C145 97.536 145.704 97.536 146.6 97.536C150.136 97.52 152.2 97.504 152.792 97.488C153.4 97.472 153.728 97.416 153.776 97.32L153.8 97.272C153.864 97.176 153.848 97.056 153.752 96.912C153.656 96.768 153.432 96.52 153.08 96.168C152.584 95.672 152.256 95.368 152.096 95.256C151.888 95.112 151.712 95.104 151.568 95.232C151.456 95.312 151.256 95.568 150.968 96C150.68 96.416 150.416 96.68 150.176 96.792C149.936 96.92 149.68 96.912 149.408 96.768C149.232 96.688 149.128 96.536 149.096 96.312C149.08 96.104 149.072 95.392 149.072 94.176C149.088 92.944 149.112 92.216 149.144 91.992C149.192 91.768 149.336 91.6 149.576 91.488C149.768 91.408 149.824 91.304 149.744 91.176C149.68 91.032 149.432 90.784 149 90.432C148.712 90.192 148.528 90.032 148.448 89.952C148.384 89.872 148.352 89.784 148.352 89.688C148.352 89.592 148.424 89.528 148.568 89.496C148.712 89.464 149.024 89.448 149.504 89.448C150.176 89.448 150.552 89.52 150.632 89.664C150.728 89.808 150.656 90.24 150.416 90.96C150.272 91.376 150.192 91.624 150.176 91.704C150.176 91.784 150.216 91.84 150.296 91.872C150.488 91.984 151.208 91.472 152.456 90.336C152.856 89.968 153.16 89.768 153.368 89.736C153.576 89.688 153.656 89.592 153.608 89.448C153.56 89.304 153.344 89.024 152.96 88.608C152.928 88.56 152.872 88.504 152.792 88.44C152.52 88.152 152.36 87.92 152.312 87.744C152.264 87.568 152.24 87.128 152.24 86.424C152.24 86.216 152.24 86.056 152.24 85.944C152.24 84.984 152.256 84.4 152.288 84.192C152.336 83.968 152.448 83.8 152.624 83.688C152.88 83.528 152.992 83.392 152.96 83.28C152.944 83.168 152.76 82.952 152.408 82.632C151.864 82.104 151.496 81.832 151.304 81.816C151.128 81.784 150.856 81.976 150.488 82.392C150.472 82.408 150.448 82.432 150.416 82.464C150.256 82.672 150.088 82.792 149.912 82.824C149.736 82.856 149.216 82.872 148.352 82.872C148.224 82.872 148.128 82.872 148.064 82.872C148 82.872 147.912 82.872 147.8 82.872C146.92 82.888 146.36 82.88 146.12 82.848C145.896 82.8 145.544 82.672 145.064 82.464C144.968 82.416 144.896 82.384 144.848 82.368C144.272 82.112 143.968 81.984 143.936 81.984C143.904 81.984 143.896 82.232 143.912 82.728C143.928 83.224 143.952 83.64 143.984 83.976C144.064 84.712 144.064 85.736 143.984 87.048C143.952 87.656 143.96 88.032 144.008 88.176C144.072 88.304 144.256 88.368 144.56 88.368C144.704 88.368 144.936 88.296 145.256 88.152C145.576 87.992 145.768 87.864 145.832 87.768C145.944 87.608 146.096 87.52 146.288 87.504C146.496 87.472 147.12 87.456 148.16 87.456C149.2 87.472 149.824 87.504 150.032 87.552C150.256 87.584 150.368 87.696 150.368 87.888C150.368 88.048 150.456 88.128 150.632 88.128C150.744 88.128 150.824 88.168 150.872 88.248C150.936 88.328 150.936 88.408 150.872 88.488C150.792 88.616 150.616 88.696 150.344 88.728C150.072 88.744 149.16 88.744 147.608 88.728C146.808 88.728 145.872 88.72 144.8 88.704C144.624 88.704 144.528 88.704 144.512 88.704C144.496 88.704 144.4 88.704 144.224 88.704C142.784 88.72 141.504 88.728 140.384 88.728C137.776 88.744 136.432 88.728 136.352 88.68C136.208 88.616 136.144 88.52 136.16 88.392C136.176 88.248 136.272 88.12 136.448 88.008C136.528 87.928 136.6 87.856 136.664 87.792C136.712 87.632 137.328 87.512 138.512 87.432C139.712 87.352 140.44 87.376 140.696 87.504C140.904 87.616 141.008 87.736 141.008 87.864C141.008 88.024 141.144 88.104 141.416 88.104C141.688 88.088 142.032 87.992 142.448 87.816L142.472 87.792C142.696 87.696 142.824 87.608 142.856 87.528C142.904 87.432 142.912 87.184 142.88 86.784C142.88 86.736 142.88 86.696 142.88 86.664C142.816 85.528 142.808 84.768 142.856 84.384C142.904 84 143.04 83.744 143.264 83.616C143.472 83.488 143.528 83.344 143.432 83.184C143.352 83.024 143.08 82.776 142.616 82.44C142.216 82.136 141.952 81.976 141.824 81.96C141.712 81.944 141.536 82.064 141.296 82.32C141.024 82.592 140.824 82.752 140.696 82.8C140.584 82.848 140.272 82.872 139.76 82.872C139.712 82.872 139.672 82.872 139.64 82.872C138.84 82.872 138.384 82.832 138.272 82.752C138.16 82.656 138.328 82.48 138.776 82.224C138.936 82.128 139.056 82.024 139.136 81.912C139.2 81.752 139.304 81.656 139.448 81.624C139.592 81.592 139.936 81.576 140.48 81.576C140.928 81.576 141.376 81.576 141.824 81.576C142.816 81.576 143.8 81.576 144.776 81.576C145.848 81.576 146.528 81.584 146.816 81.6C147.232 81.616 147.496 81.656 147.608 81.72C147.688 81.768 147.728 81.88 147.728 82.056C147.728 82.376 148.168 82.4 149.048 82.128C149.496 81.984 149.752 81.856 149.816 81.744C149.896 81.632 149.92 81.344 149.888 80.88C149.808 79.76 149.8 79.024 149.864 78.672C149.928 78.304 150.096 78.048 150.368 77.904C150.64 77.76 150.696 77.568 150.536 77.328C150.392 77.072 149.984 76.688 149.312 76.176C148.928 75.888 148.68 75.752 148.568 75.768C148.472 75.784 148.288 75.96 148.016 76.296L147.992 76.344C147.96 76.392 147.912 76.456 147.848 76.536C147.72 76.744 147.592 76.872 147.464 76.92C147.304 77 147.008 77.048 146.576 77.064C146.256 77.08 145.52 77.088 144.368 77.088C143.936 77.088 143.6 77.088 143.36 77.088C143.12 77.088 142.792 77.088 142.376 77.088C140.856 77.088 139.928 77.072 139.592 77.04C139.272 77.008 138.896 76.896 138.464 76.704C138.368 76.672 138.288 76.64 138.224 76.608C138.192 76.592 138.136 76.568 138.056 76.536C137.336 76.216 136.968 76.072 136.952 76.104C136.904 76.104 136.904 76.328 136.952 76.776C137.016 77.224 137.048 78 137.048 79.104C137.064 80.192 137.056 80.976 137.024 81.456C136.976 82.128 137.008 82.464 137.12 82.464C137.152 82.464 137.16 82.496 137.144 82.56C137.144 82.624 137.128 82.672 137.096 82.704C136.936 82.848 136.48 82.744 135.728 82.392C135.696 82.376 135.656 82.36 135.608 82.344C135.176 82.152 134.928 82.056 134.864 82.056C134.784 82.056 134.76 82.16 134.792 82.368V82.44C134.872 83.56 134.912 84.88 134.912 86.4C134.912 87.328 134.912 87.872 134.912 88.032C134.928 88.192 134.968 88.288 135.032 88.32C135.304 88.432 135.32 88.72 135.08 89.184C134.856 89.632 134.496 90.008 134 90.312C133.024 90.968 132.824 91.592 133.4 92.184C133.848 92.632 134.368 92.648 134.96 92.232C135.568 91.816 135.952 91.184 136.112 90.336C136.256 89.408 136.8 89.152 137.744 89.568C137.888 89.632 138.024 89.64 138.152 89.592C138.312 89.512 138.632 89.464 139.112 89.448C139.528 89.432 140.76 89.424 142.808 89.424C142.904 89.424 143.032 89.424 143.192 89.424C144.792 89.424 145.8 89.432 146.216 89.448C146.792 89.48 147.12 89.544 147.2 89.64C147.248 89.72 147.176 89.904 146.984 90.192L146.936 90.24C146.92 90.256 146.904 90.28 146.888 90.312C146.712 90.568 146.488 90.72 146.216 90.768C145.96 90.8 145.104 90.816 143.648 90.816C143.488 90.816 143.36 90.816 143.264 90.816C143.136 90.816 142.952 90.816 142.712 90.816C141.432 90.8 140.64 90.768 140.336 90.72C140.032 90.672 139.592 90.512 139.016 90.24C138.888 90.176 138.792 90.128 138.728 90.096C138.28 89.872 138.024 89.76 137.96 89.76C137.896 89.76 137.832 89.76 137.768 89.76C137.704 89.744 137.672 89.784 137.672 89.88C137.672 89.96 137.704 90.28 137.768 90.84C137.864 91.816 137.92 92.984 137.936 94.344C137.952 95.672 137.92 96.408 137.84 96.552C137.744 96.728 137.248 96.832 136.352 96.864C135.472 96.896 134.44 96.848 133.256 96.72C132.984 96.688 132.84 96.704 132.824 96.768C132.824 96.848 132.936 97.104 133.16 97.536C133.256 97.696 133.336 97.784 133.4 97.8ZM143.432 96.888C141.576 96.888 140.576 96.856 140.432 96.792C140.208 96.664 140.104 96.448 140.12 96.144C140.136 95.84 140.256 95.632 140.48 95.52C140.608 95.44 141.6 95.4 143.456 95.4C145.312 95.4 146.304 95.44 146.432 95.52C146.656 95.616 146.768 95.824 146.768 96.144C146.768 96.464 146.656 96.672 146.432 96.768C146.32 96.832 145.32 96.872 143.432 96.888ZM146.48 94.68C146.352 94.744 145.336 94.776 143.432 94.776C141.512 94.76 140.496 94.72 140.384 94.656C140.224 94.544 140.144 94.36 140.144 94.104C140.144 93.848 140.224 93.664 140.384 93.552C140.496 93.488 141.512 93.448 143.432 93.432C145.336 93.432 146.352 93.464 146.48 93.528C146.656 93.64 146.744 93.832 146.744 94.104C146.744 94.376 146.656 94.568 146.48 94.68ZM143.456 92.784C141.568 92.8 140.568 92.776 140.456 92.712C140.248 92.6 140.144 92.4 140.144 92.112C140.144 91.824 140.248 91.624 140.456 91.512C140.584 91.448 141.584 91.424 143.456 91.44C145.312 91.44 146.304 91.472 146.432 91.536C146.656 91.648 146.768 91.84 146.768 92.112C146.768 92.384 146.656 92.576 146.432 92.688C146.304 92.752 145.312 92.784 143.456 92.784ZM137.768 86.712C137.464 86.856 137.192 86.832 136.952 86.64C136.728 86.432 136.672 86.168 136.784 85.848C136.848 85.624 137.016 85.496 137.288 85.464C137.56 85.416 137.784 85.488 137.96 85.68C138.088 85.824 138.128 86.016 138.08 86.256C138.032 86.48 137.928 86.632 137.768 86.712ZM150.056 86.688C149.912 86.784 149.72 86.808 149.48 86.76C149.24 86.712 149.08 86.624 149 86.496C148.84 86.176 148.872 85.896 149.096 85.656C149.336 85.416 149.624 85.368 149.96 85.512C150.184 85.608 150.304 85.8 150.32 86.088C150.352 86.36 150.264 86.56 150.056 86.688ZM140.288 86.784C139.808 86.784 139.568 86.56 139.568 86.112C139.568 85.664 139.808 85.44 140.288 85.44C140.656 85.44 140.888 85.608 140.984 85.944C141.096 86.28 140.992 86.528 140.672 86.688C140.544 86.752 140.416 86.784 140.288 86.784ZM146.672 86.784C146.16 86.784 145.904 86.56 145.904 86.112C145.904 85.664 146.16 85.44 146.672 85.44C147.056 85.44 147.304 85.608 147.416 85.944C147.528 86.28 147.424 86.528 147.104 86.688C147.024 86.752 146.88 86.784 146.672 86.784ZM140.72 84.696C140.4 84.888 140.096 84.864 139.808 84.624C139.536 84.368 139.496 84.088 139.688 83.784C139.768 83.672 139.92 83.6 140.144 83.568C140.384 83.536 140.576 83.56 140.72 83.64C140.896 83.752 140.984 83.928 140.984 84.168C140.984 84.408 140.896 84.584 140.72 84.696ZM147.152 84.696C146.896 84.84 146.64 84.856 146.384 84.744C146.144 84.632 145.992 84.464 145.928 84.24C145.864 84 145.952 83.8 146.192 83.64C146.256 83.592 146.408 83.568 146.648 83.568C146.872 83.568 147.032 83.584 147.128 83.616C147.32 83.696 147.416 83.872 147.416 84.144C147.416 84.4 147.328 84.584 147.152 84.696ZM137.792 84.696C137.536 84.824 137.288 84.816 137.048 84.672C136.808 84.528 136.712 84.32 136.76 84.048C136.824 83.696 137.048 83.528 137.432 83.544C137.816 83.56 138.024 83.736 138.056 84.072C138.104 84.392 138.016 84.6 137.792 84.696ZM150.032 84.696C149.856 84.792 149.648 84.816 149.408 84.768C149.184 84.704 149.04 84.592 148.976 84.432C148.864 84.128 148.936 83.88 149.192 83.688C149.448 83.496 149.728 83.48 150.032 83.64C150.224 83.736 150.32 83.912 150.32 84.168C150.32 84.424 150.224 84.6 150.032 84.696ZM141.992 80.808C141.864 80.872 141.456 80.904 140.768 80.904C140.048 80.888 139.632 80.848 139.52 80.784C139.312 80.688 139.2 80.52 139.184 80.28C139.184 80.04 139.28 79.848 139.472 79.704C139.552 79.656 139.968 79.632 140.72 79.632C141.472 79.616 141.904 79.64 142.016 79.704C142.224 79.816 142.32 80.008 142.304 80.28C142.304 80.536 142.2 80.712 141.992 80.808ZM147.368 80.808C147.256 80.872 146.816 80.896 146.048 80.88C145.28 80.88 144.832 80.856 144.704 80.808C144.512 80.712 144.416 80.528 144.416 80.256C144.416 79.984 144.512 79.8 144.704 79.704C144.816 79.656 145.264 79.632 146.048 79.632C146.832 79.632 147.28 79.656 147.392 79.704C147.6 79.816 147.696 80.008 147.68 80.28C147.68 80.536 147.576 80.712 147.368 80.808ZM140.768 78.96C140.064 78.96 139.656 78.936 139.544 78.888C139.32 78.792 139.208 78.608 139.208 78.336C139.208 78.064 139.32 77.88 139.544 77.784C139.672 77.736 140.08 77.712 140.768 77.712C141.472 77.712 141.88 77.736 141.992 77.784C142.216 77.88 142.328 78.064 142.328 78.336C142.328 78.608 142.216 78.792 141.992 78.888C141.88 78.936 141.472 78.96 140.768 78.96ZM146.048 78.96C145.28 78.96 144.84 78.936 144.728 78.888C144.52 78.776 144.416 78.592 144.416 78.336C144.416 78.064 144.52 77.88 144.728 77.784C144.84 77.736 145.272 77.712 146.024 77.712C146.776 77.712 147.208 77.736 147.32 77.784C147.544 77.88 147.664 78.064 147.68 78.336C147.696 78.592 147.592 78.776 147.368 78.888C147.256 78.936 146.816 78.96 146.048 78.96ZM160.304 97.8C160.384 97.88 160.456 97.904 160.52 97.872C160.6 97.856 160.72 97.76 160.88 97.584C162.512 95.856 163.744 93.848 164.576 91.56C165.408 89.256 165.936 86.44 166.16 83.112C166.208 82.408 166.288 82 166.4 81.888C166.528 81.76 166.92 81.696 167.576 81.696C167.624 81.696 167.688 81.696 167.768 81.696C168.232 81.696 168.528 81.76 168.656 81.888C168.816 82.048 168.904 82.488 168.92 83.208C168.92 83.704 168.872 84.896 168.776 86.784C168.76 87.088 168.752 87.32 168.752 87.48C168.624 90.136 168.48 91.896 168.32 92.76C168.128 93.832 167.784 94.496 167.288 94.752C166.888 94.96 166.096 95 164.912 94.872C164.576 94.84 164.36 94.832 164.264 94.848C164.184 94.864 164.144 94.92 164.144 95.016C164.144 95.096 164.304 95.184 164.624 95.28C165.28 95.456 165.752 95.696 166.04 96C166.344 96.32 166.496 96.752 166.496 97.296C166.496 97.456 166.52 97.552 166.568 97.584C166.632 97.632 166.8 97.64 167.072 97.608C168.08 97.48 168.832 97.08 169.328 96.408C169.856 95.704 170.24 94.48 170.48 92.736C170.704 91.136 170.864 88.632 170.96 85.224C170.96 85.096 170.968 84.904 170.984 84.648C171.016 83.4 171.056 82.664 171.104 82.44C171.152 82.2 171.304 82.024 171.56 81.912C171.608 81.896 171.64 81.88 171.656 81.864C171.912 81.736 171.952 81.536 171.776 81.264C171.616 80.976 171.216 80.592 170.576 80.112C170.256 79.872 170.04 79.76 169.928 79.776C169.816 79.792 169.608 79.96 169.304 80.28L169.256 80.328C168.872 80.744 168.336 81 167.648 81.096C166.976 81.176 166.552 81.04 166.376 80.688C166.216 80.384 166.184 79.664 166.28 78.528C166.376 77.376 166.52 76.736 166.712 76.608C166.952 76.448 166.928 76.32 166.64 76.224C166.352 76.112 165.752 76 164.84 75.888C164.792 75.888 164.728 75.88 164.648 75.864C164.232 75.832 163.992 75.824 163.928 75.84C163.88 75.856 163.864 75.936 163.88 76.08C163.992 76.864 164.064 77.792 164.096 78.864C164.128 79.936 164.104 80.544 164.024 80.688C163.928 80.864 163.704 80.968 163.352 81C163 81.032 162.336 81.008 161.36 80.928C161.344 80.928 161.312 80.928 161.264 80.928C160.928 80.896 160.736 80.896 160.688 80.928C160.656 80.96 160.704 81.104 160.832 81.36C160.848 81.392 160.864 81.416 160.88 81.432C161.024 81.72 161.12 81.888 161.168 81.936C161.232 81.968 161.352 81.96 161.528 81.912C162.6 81.608 163.296 81.552 163.616 81.744C163.952 81.936 164.096 82.504 164.048 83.448C163.76 89.144 162.648 93.592 160.712 96.792C160.664 96.872 160.6 96.976 160.52 97.104C160.344 97.392 160.248 97.56 160.232 97.608C160.216 97.672 160.24 97.736 160.304 97.8ZM173.192 97.488C173.48 97.552 173.824 97.504 174.224 97.344C174.624 97.2 174.904 97.016 175.064 96.792C175.128 96.696 175.152 96.416 175.136 95.952C175.12 95.392 175.184 95.072 175.328 94.992C175.472 94.896 175.968 94.848 176.816 94.848C177.472 94.848 177.88 94.864 178.04 94.896C178.28 94.944 178.432 95.048 178.496 95.208C178.528 95.336 178.536 95.632 178.52 96.096C178.488 96.656 178.552 96.984 178.712 97.08C178.888 97.192 179.256 97.136 179.816 96.912C180.344 96.704 180.664 96.512 180.776 96.336C180.888 96.16 180.928 95.776 180.896 95.184C180.8 93.168 180.752 90.016 180.752 85.728C180.752 85.44 180.752 85.048 180.752 84.552C180.768 82.792 180.784 81.76 180.8 81.456C180.832 81.152 180.936 80.952 181.112 80.856C181.16 80.84 181.2 80.824 181.232 80.808C181.552 80.616 181.712 80.48 181.712 80.4C181.712 80.304 181.552 80.104 181.232 79.8C180.528 79.112 180.04 78.728 179.768 78.648C179.512 78.568 179.224 78.72 178.904 79.104L178.88 79.152C178.576 79.52 178.32 79.736 178.112 79.8C177.92 79.864 177.392 79.888 176.528 79.872C176.432 79.872 176.312 79.872 176.168 79.872C175.656 79.856 175.312 79.832 175.136 79.8C174.976 79.752 174.64 79.608 174.128 79.368C173.968 79.304 173.848 79.248 173.768 79.2C173.72 79.184 173.664 79.152 173.6 79.104C173.152 78.896 172.896 78.808 172.832 78.84C172.768 78.856 172.752 79.024 172.784 79.344C172.8 79.392 172.808 79.432 172.808 79.464C172.888 80.136 172.936 80.824 172.952 81.528C172.968 82.104 172.984 83.496 173 85.704C173 85.832 173 85.928 173 85.992C173.016 90.536 172.968 93.688 172.856 95.448C172.792 96.376 172.776 96.936 172.808 97.128C172.84 97.32 172.968 97.44 173.192 97.488ZM178.208 94.128C177.952 94.256 177.408 94.296 176.576 94.248C175.744 94.184 175.28 94.072 175.184 93.912C175.136 93.816 175.104 91.68 175.088 87.504C175.072 83.328 175.096 81.152 175.16 80.976C175.224 80.768 175.328 80.648 175.472 80.616C175.632 80.568 176.08 80.544 176.816 80.544C176.96 80.544 177.152 80.536 177.392 80.52C177.824 80.488 178.096 80.528 178.208 80.64C178.384 80.8 178.488 81.2 178.52 81.84C178.552 82.288 178.56 83.376 178.544 85.104C178.544 86.032 178.544 86.784 178.544 87.36C178.544 87.664 178.544 88.08 178.544 88.608C178.544 90.608 178.544 91.872 178.544 92.4C178.528 93.152 178.504 93.632 178.472 93.84C178.44 93.984 178.376 94.072 178.28 94.104L178.208 94.128ZM197.984 97.92C198.16 97.984 198.44 97.976 198.824 97.896C199.224 97.832 199.56 97.728 199.832 97.584C199.848 97.568 199.872 97.552 199.904 97.536C200.08 97.456 200.176 97.36 200.192 97.248C200.224 97.152 200.232 96.808 200.216 96.216C200.2 96.104 200.192 96.016 200.192 95.952C200.128 94.64 200.096 92.256 200.096 88.8C200.096 85.344 200.128 83.536 200.192 83.376C200.256 83.232 200.32 83.144 200.384 83.112C200.56 83.048 200.656 82.976 200.672 82.896C200.704 82.8 200.648 82.72 200.504 82.656C200.2 82.528 200.056 82.376 200.072 82.2C200.088 82.024 200.272 81.688 200.624 81.192C200.8 80.952 201.072 80.552 201.44 79.992C201.504 79.896 201.552 79.824 201.584 79.776C201.632 79.696 201.688 79.6 201.752 79.488C201.928 79.2 202.064 79.016 202.16 78.936C202.32 78.824 202.592 78.76 202.976 78.744C203.248 78.728 203.872 78.72 204.848 78.72C205.264 78.72 205.6 78.72 205.856 78.72C207.632 78.72 208.672 78.712 208.976 78.696C209.28 78.664 209.448 78.584 209.48 78.456C209.576 78.184 208.984 77.568 207.704 76.608C207.688 76.592 207.656 76.568 207.608 76.536C207.256 76.28 207.024 76.168 206.912 76.2C206.8 76.232 206.584 76.464 206.264 76.896L206.216 76.968C205.72 77.624 205.376 77.976 205.184 78.024C205.008 78.056 202.36 78.056 197.24 78.024C192.088 78.008 189.368 77.984 189.08 77.952C188.728 77.92 188.528 77.928 188.48 77.976C188.448 78.008 188.512 78.168 188.672 78.456C188.688 78.488 188.704 78.528 188.72 78.576C188.848 78.832 188.944 78.976 189.008 79.008C189.088 79.04 189.28 79.032 189.584 78.984C189.616 78.968 189.648 78.96 189.68 78.96C190.368 78.864 190.96 78.8 191.456 78.768C192.016 78.752 193.16 78.744 194.888 78.744C195.032 78.744 195.248 78.744 195.536 78.744C196.88 78.728 197.728 78.728 198.08 78.744C198.56 78.776 198.824 78.872 198.872 79.032C198.904 79.144 198.8 79.416 198.56 79.848C198.528 79.928 198.496 79.992 198.464 80.04C197.552 81.8 196.232 83.6 194.504 85.44C192.792 87.28 190.904 88.92 188.84 90.36C188.504 90.6 188.336 90.768 188.336 90.864C188.336 90.944 188.504 90.912 188.84 90.768C190.04 90.24 191.352 89.496 192.776 88.536C194.232 87.576 195.52 86.592 196.64 85.584C197.024 85.248 197.288 85.048 197.432 84.984C197.576 84.92 197.688 84.952 197.768 85.08C197.864 85.208 197.904 86.672 197.888 89.472C197.872 92.24 197.816 94.392 197.72 95.928C197.656 96.84 197.632 97.384 197.648 97.56C197.68 97.736 197.792 97.856 197.984 97.92ZM208.208 90.384C208.48 90.416 208.72 90.32 208.928 90.096C209.136 89.872 209.24 89.6 209.24 89.28C209.24 88.384 208.696 87.48 207.608 86.568C206.536 85.64 205.104 84.872 203.312 84.264C202.32 83.912 201.624 83.72 201.224 83.688C200.84 83.656 200.856 83.784 201.272 84.072C204.168 86.136 206.2 88.072 207.368 89.88C207.512 90.12 207.712 90.272 207.968 90.336C208.048 90.352 208.128 90.368 208.208 90.384ZM217.784 97.944C218.232 98.136 218.72 98.072 219.248 97.752C219.776 97.432 220.024 97.048 219.992 96.6C219.896 94.84 219.848 91.352 219.848 86.136C219.848 82.456 219.848 80.304 219.848 79.68C219.864 79.056 219.904 78.704 219.968 78.624L219.992 78.576C220.056 78.464 220.32 78.4 220.784 78.384C221.248 78.352 222.824 78.336 225.512 78.336C226.088 78.336 226.536 78.336 226.856 78.336C227.176 78.336 227.624 78.336 228.2 78.336C230.888 78.336 232.464 78.352 232.928 78.384C233.392 78.4 233.656 78.464 233.72 78.576L233.768 78.648C233.848 78.744 233.888 81.496 233.888 86.904C233.888 92.312 233.848 95.096 233.768 95.256C233.672 95.448 233.472 95.56 233.168 95.592C232.848 95.624 232.112 95.608 230.96 95.544C230.048 95.496 229.584 95.488 229.568 95.52C229.488 95.664 229.632 95.768 230 95.832C231.312 96.072 232.128 96.512 232.448 97.152C232.528 97.296 232.6 97.472 232.664 97.68C232.664 97.744 232.672 97.792 232.688 97.824C232.72 97.936 232.776 98 232.856 98.016C232.936 98.032 233.144 98.008 233.48 97.944C234.2 97.832 234.736 97.656 235.088 97.416C235.456 97.176 235.72 96.84 235.88 96.408C235.928 96.264 235.952 95.824 235.952 95.088C235.968 94.352 235.984 91.864 236 87.624C236 87.464 236 87.232 236 86.928C236.016 81.712 236.048 79.064 236.096 78.984C236.192 78.792 236.352 78.648 236.576 78.552C236.768 78.456 236.872 78.368 236.888 78.288C236.92 78.208 236.88 78.096 236.768 77.952C236.608 77.76 236.256 77.456 235.712 77.04C235.184 76.624 234.872 76.416 234.776 76.416C234.696 76.416 234.44 76.664 234.008 77.16C233.976 77.192 233.936 77.24 233.888 77.304C233.792 77.432 233.664 77.52 233.504 77.568C233.28 77.616 232.808 77.648 232.088 77.664C231.576 77.664 230.36 77.664 228.44 77.664C227.72 77.664 227.16 77.664 226.76 77.664C222.408 77.664 220.136 77.648 219.944 77.616C219.832 77.584 219.408 77.408 218.672 77.088C217.952 76.768 217.568 76.608 217.52 76.608C217.472 76.608 217.496 77.096 217.592 78.072C217.656 78.6 217.688 81.12 217.688 85.632C217.704 90.864 217.656 94.472 217.544 96.456C217.496 97.112 217.48 97.504 217.496 97.632C217.528 97.776 217.624 97.88 217.784 97.944ZM222.728 93.696C222.92 93.76 223.216 93.728 223.616 93.6C224.032 93.472 224.32 93.32 224.48 93.144C224.544 93.08 224.576 93.008 224.576 92.928C224.592 92.848 224.6 92.616 224.6 92.232C224.6 92.184 224.6 92.112 224.6 92.016C224.6 91.664 224.624 91.44 224.672 91.344C224.72 91.2 224.872 91.112 225.128 91.08C225.304 91.064 225.72 91.056 226.376 91.056C226.568 91.056 226.72 91.056 226.832 91.056C226.944 91.056 227.104 91.056 227.312 91.056C228.128 91.072 228.6 91.112 228.728 91.176C228.856 91.24 228.92 91.48 228.92 91.896C228.92 92.008 228.92 92.096 228.92 92.16C228.92 92.704 228.992 93.032 229.136 93.144C229.28 93.256 229.608 93.224 230.12 93.048C230.664 92.872 230.976 92.704 231.056 92.544C231.152 92.384 231.184 91.936 231.152 91.2C231.072 89.376 231.048 88.08 231.08 87.312C231.128 86.544 231.248 86.104 231.44 85.992C231.744 85.816 231.832 85.608 231.704 85.368C231.576 85.112 231.184 84.736 230.528 84.24C230.176 83.968 229.944 83.84 229.832 83.856C229.736 83.872 229.56 84.048 229.304 84.384C229.288 84.4 229.264 84.432 229.232 84.48C228.992 84.8 228.768 84.984 228.56 85.032C228.368 85.08 227.8 85.104 226.856 85.104C226.776 85.104 226.712 85.104 226.664 85.104C226.616 85.104 226.536 85.104 226.424 85.104C225.56 85.104 225.008 85.088 224.768 85.056C224.544 85.008 224.152 84.864 223.592 84.624C223.496 84.592 223.416 84.56 223.352 84.528C222.824 84.304 222.504 84.184 222.392 84.168C222.296 84.152 222.264 84.208 222.296 84.336C222.424 85.12 222.504 86.376 222.536 88.104C222.568 89.848 222.544 91.328 222.464 92.544C222.432 93.008 222.432 93.304 222.464 93.432C222.496 93.56 222.584 93.648 222.728 93.696ZM226.832 90.408C225.632 90.424 224.976 90.392 224.864 90.312C224.72 90.216 224.632 90.072 224.6 89.88C224.584 89.688 224.576 89.088 224.576 88.08C224.576 87.92 224.576 87.712 224.576 87.456C224.56 86.832 224.576 86.432 224.624 86.256C224.672 86.032 224.816 85.888 225.056 85.824C225.216 85.776 225.6 85.76 226.208 85.776C226.448 85.776 226.64 85.776 226.784 85.776C226.912 85.776 227.088 85.776 227.312 85.776C227.936 85.776 228.336 85.792 228.512 85.824C228.736 85.888 228.88 86.04 228.944 86.28C228.976 86.44 228.992 86.848 228.992 87.504C228.992 87.728 228.992 87.912 228.992 88.056C228.992 88.936 228.976 89.496 228.944 89.736C228.928 89.976 228.872 90.144 228.776 90.24C228.696 90.32 228.048 90.376 226.832 90.408ZM221.624 82.368C221.656 82.416 222.008 82.392 222.68 82.296C222.744 82.28 222.792 82.272 222.824 82.272C223.4 82.192 225.12 82.144 227.984 82.128C228.224 82.128 228.552 82.128 228.968 82.128C230.792 82.112 231.856 82.096 232.16 82.08C232.48 82.064 232.664 82 232.712 81.888L232.736 81.84C232.848 81.632 232.424 81.16 231.464 80.424C231 80.056 230.696 79.88 230.552 79.896C230.424 79.896 230.192 80.128 229.856 80.592C229.52 81.072 229.232 81.344 228.992 81.408C228.8 81.472 227.592 81.488 225.368 81.456C223.16 81.408 221.816 81.352 221.336 81.288C221.192 81.256 221.152 81.36 221.216 81.6C221.28 81.84 221.416 82.096 221.624 82.368ZM259.736 97.92C259.8 98 260.056 98 260.504 97.92C260.952 97.84 261.336 97.72 261.656 97.56C262.296 97.256 262.784 96.72 263.12 95.952C263.472 95.136 263.744 93.88 263.936 92.184C264.096 90.6 264.224 88.28 264.32 85.224C264.32 85.048 264.328 84.792 264.344 84.456C264.392 82.904 264.432 81.992 264.464 81.72C264.512 81.432 264.648 81.232 264.872 81.12C264.92 81.104 264.952 81.088 264.968 81.072C265.176 80.96 265.296 80.88 265.328 80.832C265.376 80.768 265.376 80.696 265.328 80.616C265.248 80.456 264.968 80.152 264.488 79.704C264.024 79.256 263.696 78.984 263.504 78.888C263.392 78.824 263.296 78.816 263.216 78.864C263.136 78.912 262.984 79.072 262.76 79.344C262.728 79.376 262.688 79.424 262.64 79.488C262.336 79.824 262.096 80.024 261.92 80.088C261.744 80.136 261.264 80.16 260.48 80.16C260.304 80.16 260.16 80.16 260.048 80.16C259.984 80.16 259.888 80.16 259.76 80.16C259.04 80.16 258.592 80.144 258.416 80.112C258.16 80.064 258.04 79.952 258.056 79.776C258.056 79.648 258.16 79.336 258.368 78.84C258.4 78.76 258.424 78.696 258.44 78.648C258.728 77.96 258.92 77.536 259.016 77.376C259.112 77.2 259.24 77.08 259.4 77.016C259.656 76.888 259.608 76.736 259.256 76.56C258.904 76.368 258.16 76.104 257.024 75.768L257 75.744C256.776 75.68 256.64 75.672 256.592 75.72C256.56 75.768 256.52 75.968 256.472 76.32C256.472 76.368 256.472 76.4 256.472 76.416C256.216 78.736 255.488 81.264 254.288 84C253.84 84.976 253.552 85.432 253.424 85.368C253.312 85.288 253.248 84.624 253.232 83.376C253.232 82.384 253.256 81.792 253.304 81.6C253.352 81.392 253.528 81.2 253.832 81.024C254.072 80.896 254.128 80.736 254 80.544C253.888 80.336 253.528 80 252.92 79.536C252.472 79.184 252.184 79.008 252.056 79.008C251.944 79.024 251.728 79.224 251.408 79.608C251.104 79.976 250.6 80.2 249.896 80.28C249.208 80.36 248.864 80.224 248.864 79.872C248.864 79.68 249.144 79.16 249.704 78.312C250.28 77.464 250.648 77.008 250.808 76.944C251.176 76.816 251.216 76.672 250.928 76.512C250.656 76.352 250 76.144 248.96 75.888C248.912 75.872 248.848 75.856 248.768 75.84C248.384 75.744 248.16 75.72 248.096 75.768C248.032 75.8 247.992 75.992 247.976 76.344C247.976 76.44 247.976 76.512 247.976 76.56C247.976 77.072 247.944 77.584 247.88 78.096C247.784 78.944 247.704 79.48 247.64 79.704C247.544 79.992 247.376 80.12 247.136 80.088C246.944 80.072 246.536 79.92 245.912 79.632C245.304 79.344 244.968 79.2 244.904 79.2C244.856 79.2 244.832 79.248 244.832 79.344C244.832 79.424 244.856 79.68 244.904 80.112C245.016 81.232 245.072 83.592 245.072 87.192C245.072 91.016 245.016 93.8 244.904 95.544C244.84 96.376 244.88 96.88 245.024 97.056C245.168 97.232 245.52 97.24 246.08 97.08C246.496 96.952 246.768 96.792 246.896 96.6C247.04 96.424 247.104 96.104 247.088 95.64V95.616C247.072 95.232 247.088 94.984 247.136 94.872C247.2 94.728 247.368 94.64 247.64 94.608C247.816 94.576 248.264 94.56 248.984 94.56C249.032 94.56 249.072 94.56 249.104 94.56C249.136 94.56 249.184 94.56 249.248 94.56C249.936 94.56 250.368 94.568 250.544 94.584C250.8 94.616 250.96 94.696 251.024 94.824C251.072 94.92 251.096 95.136 251.096 95.472V95.544C251.096 96.04 251.224 96.32 251.48 96.384C251.736 96.464 252.192 96.344 252.848 96.024C252.896 96.008 252.952 95.984 253.016 95.952C253.208 95.872 253.312 95.744 253.328 95.568C253.36 95.376 253.36 94.792 253.328 93.816C253.312 93.352 253.296 92.984 253.28 92.712C253.248 91.64 253.232 90.28 253.232 88.632C253.232 86.936 253.256 86.024 253.304 85.896C253.352 85.752 253.408 85.64 253.472 85.56C253.536 85.464 253.552 85.472 253.52 85.584C253.504 85.664 253.528 85.728 253.592 85.776C253.656 85.808 253.728 85.816 253.808 85.8C254 85.736 254.448 85.24 255.152 84.312C255.872 83.384 256.464 82.528 256.928 81.744C256.944 81.728 256.96 81.696 256.976 81.648C257.216 81.248 257.44 81.016 257.648 80.952C257.872 80.872 258.536 80.832 259.64 80.832C259.72 80.832 259.784 80.832 259.832 80.832C259.992 80.832 260.208 80.832 260.48 80.832C261.136 80.832 261.552 80.848 261.728 80.88C261.968 80.928 262.12 81.048 262.184 81.24C262.232 81.384 262.248 81.728 262.232 82.272C262.232 82.496 262.232 82.672 262.232 82.8C262.216 85.088 262.136 87.272 261.992 89.352C261.864 91.416 261.696 92.888 261.488 93.768C261.36 94.296 261.208 94.656 261.032 94.848C260.824 95.088 260.48 95.224 260 95.256C259.6 95.288 258.896 95.256 257.888 95.16C257.376 95.112 257.064 95.096 256.952 95.112C256.856 95.128 256.824 95.184 256.856 95.28C256.872 95.36 257.08 95.456 257.48 95.568C258.936 95.92 259.664 96.608 259.664 97.632C259.664 97.776 259.688 97.872 259.736 97.92ZM248.528 93.888C247.968 93.904 247.616 93.88 247.472 93.816C247.264 93.736 247.136 93.536 247.088 93.216C247.04 92.976 247.024 92.424 247.04 91.56C247.04 91.16 247.04 90.848 247.04 90.624C247.04 90.432 247.04 90.16 247.04 89.808C247.04 88.96 247.056 88.424 247.088 88.2C247.152 87.88 247.288 87.688 247.496 87.624C247.64 87.56 247.992 87.536 248.552 87.552C248.776 87.552 248.96 87.552 249.104 87.552C249.248 87.552 249.432 87.552 249.656 87.552C250.216 87.536 250.568 87.56 250.712 87.624C250.92 87.688 251.056 87.88 251.12 88.2C251.152 88.424 251.168 88.96 251.168 89.808C251.168 90.16 251.168 90.432 251.168 90.624C251.168 92.096 251.152 92.968 251.12 93.24C251.104 93.496 251.024 93.672 250.88 93.768C250.8 93.832 250.68 93.872 250.52 93.888C250.376 93.888 249.904 93.888 249.104 93.888C248.96 93.888 248.768 93.888 248.528 93.888ZM258.2 90.504C258.584 90.632 258.92 90.584 259.208 90.36C259.512 90.136 259.68 89.792 259.712 89.328C259.744 88.624 259.488 87.944 258.944 87.288C258.4 86.616 257.608 86.032 256.568 85.536C255.976 85.248 255.632 85.128 255.536 85.176C255.456 85.208 255.56 85.44 255.848 85.872C256.856 87.376 257.464 88.752 257.672 90C257.688 90.208 257.864 90.376 258.2 90.504ZM248.552 86.88C247.976 86.896 247.616 86.872 247.472 86.808C247.264 86.744 247.136 86.552 247.088 86.232C247.04 86.024 247.024 85.504 247.04 84.672C247.04 84.304 247.04 84.008 247.04 83.784C247.04 83.592 247.04 83.336 247.04 83.016C247.04 82.216 247.056 81.712 247.088 81.504C247.152 81.216 247.28 81.032 247.472 80.952C247.616 80.904 247.952 80.88 248.48 80.88C248.72 80.88 248.912 80.88 249.056 80.88C249.2 80.88 249.384 80.88 249.608 80.88C250.184 80.864 250.552 80.888 250.712 80.952C250.92 81.016 251.048 81.2 251.096 81.504C251.144 81.712 251.168 82.224 251.168 83.04C251.168 83.36 251.168 83.608 251.168 83.784C251.168 85.16 251.152 85.984 251.12 86.256C251.104 86.512 251.024 86.68 250.88 86.76C250.8 86.824 250.68 86.864 250.52 86.88C250.376 86.88 249.904 86.88 249.104 86.88C248.96 86.88 248.776 86.88 248.552 86.88ZM273.392 97.92C273.808 98.016 274.24 97.952 274.688 97.728C275.136 97.504 275.36 97.24 275.36 96.936C275.36 96.552 275.456 96.296 275.648 96.168C275.76 96.088 278.016 96.04 282.416 96.024C286.832 96.024 289.104 96.056 289.232 96.12C289.456 96.232 289.544 96.52 289.496 96.984C289.48 97.32 289.504 97.536 289.568 97.632C289.632 97.728 289.768 97.776 289.976 97.776C290.216 97.776 290.536 97.696 290.936 97.536C291.352 97.392 291.64 97.24 291.8 97.08C291.88 97.016 291.92 96.96 291.92 96.912C291.936 96.864 291.928 96.712 291.896 96.456C291.8 94.952 291.752 92.168 291.752 88.104C291.752 87.896 291.752 87.6 291.752 87.216C291.752 85.488 291.752 84.384 291.752 83.904C291.768 83.264 291.8 82.848 291.848 82.656C291.88 82.528 291.952 82.432 292.064 82.368C292.112 82.352 292.144 82.336 292.16 82.32C292.416 82.16 292.552 82.048 292.568 81.984C292.6 81.904 292.552 81.776 292.424 81.6C292.04 81.168 291.552 80.768 290.96 80.4C290.72 80.224 290.552 80.144 290.456 80.16C290.36 80.176 290.224 80.288 290.048 80.496C290.016 80.528 289.984 80.568 289.952 80.616C289.616 80.984 289.368 81.2 289.208 81.264C289.064 81.328 288.672 81.36 288.032 81.36C287.936 81.36 287.864 81.36 287.816 81.36C287.736 81.36 287.624 81.36 287.48 81.36C286.808 81.36 286.416 81.296 286.304 81.168C286.208 81.024 286.16 80.544 286.16 79.728C286.16 79.52 286.16 79.36 286.16 79.248C286.176 78.336 286.2 77.792 286.232 77.616C286.264 77.44 286.36 77.296 286.52 77.184C286.76 77.024 286.728 76.864 286.424 76.704C286.136 76.544 285.504 76.344 284.528 76.104C284.496 76.088 284.448 76.08 284.384 76.08C284.048 75.984 283.856 75.952 283.808 75.984C283.76 76.016 283.752 76.152 283.784 76.392C283.784 76.44 283.784 76.472 283.784 76.488C283.88 77.224 283.944 78.256 283.976 79.584C283.976 79.648 283.976 79.744 283.976 79.872C284.008 80.624 283.968 81.064 283.856 81.192C283.744 81.304 283.336 81.36 282.632 81.36C282.536 81.36 282.456 81.36 282.392 81.36C282.312 81.36 282.208 81.36 282.08 81.36C281.424 81.36 281.04 81.296 280.928 81.168C280.832 81.04 280.784 80.568 280.784 79.752C280.784 79.592 280.784 79.464 280.784 79.368C280.784 78.472 280.8 77.936 280.832 77.76C280.864 77.568 280.96 77.392 281.12 77.232C281.344 77.024 281.336 76.848 281.096 76.704C280.856 76.56 280.232 76.36 279.224 76.104C279.176 76.088 279.12 76.072 279.056 76.056C278.736 75.976 278.552 75.96 278.504 76.008C278.456 76.04 278.448 76.2 278.48 76.488C278.496 76.552 278.504 76.6 278.504 76.632C278.616 77.528 278.68 78.56 278.696 79.728C278.696 79.76 278.696 79.8 278.696 79.848C278.728 80.6 278.672 81.04 278.528 81.168C278.4 81.296 277.928 81.36 277.112 81.36C277.048 81.36 277 81.36 276.968 81.36C276.904 81.36 276.808 81.36 276.68 81.36C276.12 81.36 275.744 81.344 275.552 81.312C275.36 81.264 274.968 81.112 274.376 80.856C274.248 80.808 274.152 80.768 274.088 80.736C273.432 80.448 273.072 80.304 273.008 80.304C272.976 80.304 272.96 80.368 272.96 80.496C272.976 80.624 273.016 81.048 273.08 81.768C273.176 82.648 273.216 84.92 273.2 88.584C273.184 92.216 273.128 94.792 273.032 96.312C272.984 96.888 272.96 97.272 272.96 97.464C272.96 97.544 273.008 97.632 273.104 97.728C273.2 97.824 273.296 97.888 273.392 97.92ZM289.208 95.304C289.096 95.368 288.648 95.392 287.864 95.376C287.08 95.376 286.608 95.344 286.448 95.28C286.304 95.2 286.216 95.024 286.184 94.752C286.168 94.48 286.16 93.584 286.16 92.064C286.16 91.856 286.16 91.576 286.16 91.224C286.16 90.296 286.176 89.712 286.208 89.472C286.24 89.12 286.344 88.904 286.52 88.824C286.648 88.76 286.944 88.736 287.408 88.752C287.584 88.752 287.728 88.752 287.84 88.752C287.952 88.752 288.096 88.752 288.272 88.752C288.752 88.736 289.056 88.76 289.184 88.824C289.36 88.904 289.464 89.12 289.496 89.472C289.528 89.712 289.544 90.296 289.544 91.224C289.544 91.576 289.544 91.856 289.544 92.064C289.544 92.192 289.544 92.376 289.544 92.616C289.544 93.88 289.528 94.624 289.496 94.848C289.48 95.072 289.384 95.224 289.208 95.304ZM281.984 95.376C281.536 95.392 281.248 95.368 281.12 95.304C280.96 95.224 280.856 95.016 280.808 94.68C280.792 94.424 280.784 93.84 280.784 92.928C280.784 92.56 280.784 92.272 280.784 92.064C280.784 91.856 280.784 91.568 280.784 91.2C280.784 90.288 280.792 89.704 280.808 89.448C280.856 89.112 280.96 88.904 281.12 88.824C281.248 88.76 281.536 88.736 281.984 88.752C282.16 88.752 282.296 88.752 282.392 88.752C282.488 88.752 282.624 88.752 282.8 88.752C283.248 88.736 283.536 88.76 283.664 88.824C283.824 88.904 283.928 89.112 283.976 89.448C283.992 89.704 284 90.288 284 91.2C284 91.568 284 91.856 284 92.064C284 93.584 283.984 94.48 283.952 94.752C283.936 95.024 283.84 95.2 283.664 95.28C283.568 95.344 283.144 95.376 282.392 95.376C282.296 95.376 282.16 95.376 281.984 95.376ZM277.04 95.376C276.272 95.392 275.824 95.36 275.696 95.28C275.536 95.216 275.44 95.072 275.408 94.848C275.392 94.624 275.384 93.88 275.384 92.616C275.384 92.376 275.384 92.192 275.384 92.064C275.384 91.856 275.384 91.576 275.384 91.224C275.384 90.296 275.4 89.712 275.432 89.472C275.464 89.12 275.568 88.904 275.744 88.824C275.872 88.76 276.16 88.736 276.608 88.752C276.8 88.752 276.944 88.752 277.04 88.752C277.136 88.752 277.28 88.752 277.472 88.752C277.92 88.736 278.208 88.76 278.336 88.824C278.512 88.904 278.616 89.12 278.648 89.472C278.68 89.712 278.696 90.296 278.696 91.224C278.696 91.576 278.696 91.856 278.696 92.064C278.696 93.6 278.68 94.504 278.648 94.776C278.632 95.048 278.536 95.224 278.36 95.304C278.232 95.352 277.792 95.376 277.04 95.376ZM277.04 88.104C276.24 88.104 275.776 88.056 275.648 87.96C275.504 87.88 275.416 87.712 275.384 87.456C275.368 87.184 275.36 86.352 275.36 84.96C275.36 84.8 275.36 84.584 275.36 84.312C275.36 83.464 275.376 82.928 275.408 82.704C275.456 82.384 275.568 82.184 275.744 82.104C275.872 82.056 276.176 82.032 276.656 82.032C276.816 82.032 276.944 82.032 277.04 82.032C277.136 82.032 277.264 82.032 277.424 82.032C277.904 82.032 278.208 82.056 278.336 82.104C278.512 82.184 278.624 82.384 278.672 82.704C278.704 82.928 278.72 83.464 278.72 84.312C278.72 84.584 278.72 84.8 278.72 84.96C278.72 86.352 278.704 87.184 278.672 87.456C278.656 87.712 278.576 87.88 278.432 87.96C278.32 88.056 277.856 88.104 277.04 88.104ZM283.712 88.008C283.616 88.072 283.176 88.104 282.392 88.104C281.608 88.088 281.168 88.048 281.072 87.984C280.928 87.904 280.84 87.744 280.808 87.504C280.792 87.264 280.784 86.456 280.784 85.08C280.784 84.904 280.784 84.672 280.784 84.384C280.784 83.504 280.8 82.944 280.832 82.704C280.864 82.384 280.968 82.184 281.144 82.104C281.256 82.04 281.544 82.016 282.008 82.032C282.168 82.032 282.296 82.032 282.392 82.032C282.488 82.032 282.616 82.032 282.776 82.032C283.24 82.016 283.528 82.04 283.64 82.104C283.816 82.184 283.92 82.384 283.952 82.704C283.984 82.944 284 83.504 284 84.384C284 84.672 284 84.904 284 85.08C284 86.456 283.984 87.272 283.952 87.528C283.936 87.768 283.856 87.928 283.712 88.008ZM287.864 88.08C287.032 88.096 286.56 88.064 286.448 87.984C286.304 87.904 286.216 87.744 286.184 87.504C286.168 87.264 286.16 86.456 286.16 85.08C286.16 84.888 286.16 84.632 286.16 84.312C286.16 83.464 286.176 82.928 286.208 82.704C286.24 82.384 286.344 82.184 286.52 82.104C286.648 82.04 286.952 82.016 287.432 82.032C287.608 82.032 287.744 82.032 287.84 82.032C287.936 82.032 288.08 82.032 288.272 82.032C288.752 82.016 289.056 82.04 289.184 82.104C289.36 82.168 289.472 82.36 289.52 82.68C289.552 82.888 289.568 83.408 289.568 84.24C289.568 84.544 289.568 84.784 289.568 84.96C289.568 86.352 289.552 87.184 289.52 87.456C289.504 87.712 289.424 87.88 289.28 87.96C289.168 88.04 288.696 88.08 287.864 88.08ZM35.984 122.016C36.208 122.064 36.536 122.024 36.968 121.896C37.4 121.784 37.688 121.648 37.832 121.488C37.88 121.424 37.888 120.96 37.856 120.096C37.84 119.888 37.824 119.608 37.808 119.256C37.76 118.168 37.76 117.48 37.808 117.192C37.856 116.792 38.024 116.544 38.312 116.448C38.52 116.368 39.008 116.336 39.776 116.352C40.016 116.352 40.208 116.352 40.352 116.352C41.392 116.352 42.064 116.32 42.368 116.256C42.72 116.192 42.832 116.04 42.704 115.8C42.608 115.592 42.248 115.208 41.624 114.648C41.608 114.632 41.584 114.608 41.552 114.576C41.056 114.144 40.744 113.928 40.616 113.928C40.488 113.944 40.256 114.192 39.92 114.672C39.904 114.704 39.888 114.728 39.872 114.744C39.6 115.176 39.392 115.44 39.248 115.536C39.12 115.632 38.904 115.68 38.6 115.68C38.248 115.68 38.024 115.616 37.928 115.488C37.848 115.344 37.808 114.984 37.808 114.408C37.808 113.912 37.824 113.592 37.856 113.448C37.888 113.288 37.984 113.136 38.144 112.992C38.336 112.816 38.352 112.672 38.192 112.56C38.048 112.448 37.624 112.288 36.92 112.08C36.536 111.968 36.296 111.864 36.2 111.768C36.104 111.672 36.104 111.536 36.2 111.36C36.312 111.136 36.64 111.008 37.184 110.976C37.696 110.928 38.184 110.968 38.648 111.096C39.144 111.24 39.392 111.424 39.392 111.648C39.392 111.952 39.744 112 40.448 111.792C40.992 111.632 41.312 111.48 41.408 111.336C41.504 111.192 41.536 110.84 41.504 110.28C41.456 109.272 41.432 108.096 41.432 106.752C41.432 106.64 41.432 106.488 41.432 106.296C41.416 105.064 41.424 104.336 41.456 104.112C41.488 103.888 41.608 103.72 41.816 103.608L41.84 103.584C42.112 103.408 42.248 103.28 42.248 103.2C42.248 103.12 42.104 102.928 41.816 102.624L41.768 102.576C41.128 101.936 40.656 101.56 40.352 101.448C40.224 101.4 39.992 101.592 39.656 102.024C39.64 102.04 39.616 102.072 39.584 102.12C39.36 102.408 39.168 102.576 39.008 102.624C38.864 102.672 38.44 102.696 37.736 102.696C37.672 102.696 37.624 102.696 37.592 102.696C36.776 102.696 36.28 102.672 36.104 102.624C35.944 102.56 35.928 102.416 36.056 102.192C36.104 102.096 36.328 101.856 36.728 101.472C37.128 101.088 37.384 100.864 37.496 100.8C37.8 100.64 37.824 100.496 37.568 100.368C37.328 100.24 36.712 100.064 35.72 99.84C35.656 99.824 35.576 99.808 35.48 99.792C35.064 99.696 34.816 99.664 34.736 99.696C34.672 99.728 34.632 99.888 34.616 100.176C34.616 100.24 34.616 100.296 34.616 100.344C34.568 101.288 34.472 101.928 34.328 102.264C34.152 102.632 33.832 102.8 33.368 102.768C32.968 102.736 32.296 102.52 31.352 102.12C31.288 102.088 31.2 102.048 31.088 102C30.688 101.84 30.456 101.776 30.392 101.808C30.344 101.84 30.336 102.024 30.368 102.36C30.384 102.456 30.392 102.536 30.392 102.6C30.52 103.912 30.584 104.848 30.584 105.408C30.584 106.016 30.512 106.368 30.368 106.464C30.24 106.544 30.008 106.408 29.672 106.056C29.64 106.024 29.592 105.976 29.528 105.912C29.336 105.704 29.216 105.592 29.168 105.576C29.136 105.56 29.088 105.608 29.024 105.72C29.008 105.752 28.992 105.776 28.976 105.792C28.832 106.048 28.68 106.16 28.52 106.128C28.296 106.08 28.2 105.272 28.232 103.704C28.264 102.12 28.392 101.24 28.616 101.064C28.824 100.904 28.8 100.752 28.544 100.608C28.304 100.464 27.752 100.272 26.888 100.032C26.488 99.92 26.256 99.872 26.192 99.888C26.144 99.904 26.128 100.016 26.144 100.224C26.256 100.992 26.328 102.208 26.36 103.872C26.408 105.536 26.392 106.456 26.312 106.632C26.232 106.808 25.976 106.92 25.544 106.968C25.128 107.016 24.816 106.968 24.608 106.824C24.352 106.664 24.24 105.8 24.272 104.232C24.304 102.664 24.456 101.792 24.728 101.616C25.176 101.328 24.496 100.96 22.688 100.512C22.432 100.432 22.28 100.416 22.232 100.464C22.2 100.496 22.2 100.664 22.232 100.968C22.312 101.656 22.368 102.408 22.4 103.224C22.416 104.12 22.424 106.08 22.424 109.104C22.424 113.104 22.4 115.368 22.352 115.896C22.176 117.896 21.872 119.576 21.44 120.936C21.424 120.984 21.4 121.056 21.368 121.152C21.288 121.408 21.24 121.56 21.224 121.608C21.208 121.672 21.224 121.728 21.272 121.776C21.352 121.872 21.456 121.856 21.584 121.728C21.712 121.616 21.928 121.336 22.232 120.888C22.872 119.928 23.352 118.872 23.672 117.72C23.992 116.568 24.2 115.152 24.296 113.472C24.328 112.704 24.4 112.256 24.512 112.128C24.624 112 24.976 111.936 25.568 111.936C25.952 111.936 26.208 111.96 26.336 112.008C26.464 112.04 26.56 112.128 26.624 112.272C26.704 112.416 26.736 113.344 26.72 115.056C26.704 116.736 26.656 118.344 26.576 119.88C26.528 120.616 26.504 121.048 26.504 121.176C26.52 121.304 26.576 121.408 26.672 121.488C26.944 121.744 27.456 121.68 28.208 121.296C28.224 121.28 28.256 121.264 28.304 121.248C28.576 121.104 28.728 120.96 28.76 120.816C28.808 120.672 28.816 120.264 28.784 119.592C28.784 119.512 28.784 119.448 28.784 119.4C28.672 116.824 28.64 114.976 28.688 113.856C28.752 112.736 28.904 112.176 29.144 112.176C29.368 112.176 29.488 112.096 29.504 111.936C29.536 111.776 29.464 111.6 29.288 111.408C28.712 110.816 28.264 110.456 27.944 110.328C27.64 110.184 27.376 110.24 27.152 110.496C26.816 110.88 26.576 111.104 26.432 111.168C26.304 111.232 25.992 111.264 25.496 111.264C25.064 111.264 24.792 111.24 24.68 111.192C24.504 111.128 24.4 110.976 24.368 110.736C24.336 110.544 24.32 110.12 24.32 109.464C24.32 109.416 24.32 109.376 24.32 109.344C24.32 109.232 24.32 109.088 24.32 108.912C24.32 108.432 24.352 108.128 24.416 108C24.496 107.808 24.696 107.696 25.016 107.664C25.256 107.632 25.824 107.616 26.72 107.616C27.04 107.616 27.296 107.616 27.488 107.616C27.664 107.616 27.904 107.616 28.208 107.616C29.136 107.616 29.72 107.64 29.96 107.688C30.296 107.768 30.496 107.968 30.56 108.288C30.608 108.528 30.608 109.088 30.56 109.968C30.544 110.256 30.528 110.48 30.512 110.64C30.48 111.36 30.464 111.8 30.464 111.96C30.48 112.104 30.52 112.208 30.584 112.272C30.76 112.448 31.136 112.448 31.712 112.272C32.288 112.08 32.576 111.872 32.576 111.648C32.576 111.408 32.72 111.232 33.008 111.12C33.296 110.992 33.576 110.984 33.848 111.096C34.264 111.272 34.136 111.784 33.464 112.632C32.792 113.48 31.928 114.224 30.872 114.864C30.632 115.008 30.496 115.104 30.464 115.152C30.432 115.2 30.448 115.264 30.512 115.344C30.592 115.408 30.536 115.464 30.344 115.512C30.168 115.56 29.92 115.576 29.6 115.56H29.552C29.328 115.528 29.208 115.536 29.192 115.584C29.176 115.616 29.224 115.752 29.336 115.992C29.352 116.04 29.368 116.08 29.384 116.112C29.4 116.144 29.416 116.184 29.432 116.232C29.544 116.472 29.632 116.608 29.696 116.64C29.776 116.672 29.96 116.664 30.248 116.616C30.296 116.6 30.336 116.592 30.368 116.592C31.168 116.48 32.16 116.408 33.344 116.376C34.544 116.328 35.232 116.344 35.408 116.424C35.6 116.536 35.712 116.952 35.744 117.672C35.776 118.408 35.736 119.608 35.624 121.272C35.576 121.704 35.696 121.952 35.984 122.016ZM33.56 115.68C32.376 115.696 31.688 115.672 31.496 115.608C30.968 115.464 30.984 115.28 31.544 115.056C32.76 114.592 33.856 113.912 34.832 113.016C35.248 112.632 35.496 112.488 35.576 112.584C35.672 112.68 35.728 113.144 35.744 113.976C35.744 114.664 35.736 115.08 35.72 115.224C35.688 115.4 35.6 115.528 35.456 115.608C35.376 115.656 34.744 115.68 33.56 115.68ZM34.352 110.28C34.224 110.344 33.968 110.368 33.584 110.352C33.2 110.336 32.96 110.296 32.864 110.232C32.704 110.136 32.6 109.696 32.552 108.912C32.52 108.112 32.568 107.624 32.696 107.448C32.808 107.288 33.096 107.184 33.56 107.136C34.04 107.072 34.408 107.096 34.664 107.208C34.968 107.336 35.072 107.84 34.976 108.72C34.896 109.6 34.688 110.12 34.352 110.28ZM37.976 110.352C37.304 110.352 36.912 110.304 36.8 110.208C36.688 110.112 36.672 109.816 36.752 109.32C36.832 108.872 36.88 108.496 36.896 108.192C36.928 107.696 37.008 107.4 37.136 107.304C37.264 107.192 37.6 107.136 38.144 107.136C38.752 107.136 39.104 107.208 39.2 107.352C39.312 107.48 39.376 107.912 39.392 108.648C39.392 109.272 39.376 109.672 39.344 109.848C39.312 110.024 39.232 110.152 39.104 110.232C39.04 110.296 38.952 110.336 38.84 110.352C38.744 110.352 38.456 110.352 37.976 110.352ZM34.736 106.392C34.608 106.456 34.296 106.48 33.8 106.464C33.272 106.464 32.96 106.424 32.864 106.344C32.656 106.216 32.552 105.744 32.552 104.928C32.552 104.112 32.656 103.632 32.864 103.488C33.008 103.392 33.344 103.36 33.872 103.392C34.4 103.408 34.72 103.472 34.832 103.584C35.008 103.744 35.08 104.224 35.048 105.024C35.016 105.824 34.912 106.28 34.736 106.392ZM38.168 106.464C37.656 106.48 37.344 106.448 37.232 106.368C37.024 106.24 36.92 105.752 36.92 104.904C36.92 104.056 37.024 103.576 37.232 103.464C37.36 103.4 37.68 103.376 38.192 103.392C38.704 103.408 39.008 103.448 39.104 103.512C39.312 103.64 39.416 104.112 39.416 104.928C39.416 105.744 39.312 106.216 39.104 106.344C38.992 106.424 38.68 106.464 38.168 106.464ZM59.408 114.24C60.48 114.384 61.416 114.064 62.216 113.28C63.016 112.48 63.344 111.552 63.2 110.496C63.072 109.6 62.672 108.872 62 108.312C61.376 107.784 60.648 107.52 59.816 107.52C58.952 107.52 58.2 107.824 57.56 108.432C56.888 109.072 56.536 109.84 56.504 110.736C56.456 111.584 56.696 112.336 57.224 112.992C57.768 113.696 58.496 114.112 59.408 114.24ZM60.728 113.256C59.912 113.576 59.144 113.48 58.424 112.968C57.704 112.456 57.344 111.76 57.344 110.88C57.344 110.16 57.592 109.56 58.088 109.08C58.568 108.616 59.144 108.376 59.816 108.36C60.504 108.344 61.104 108.592 61.616 109.104C62.272 109.744 62.504 110.52 62.312 111.432C62.12 112.328 61.592 112.936 60.728 113.256Z" fill="#D6D2C7"/>
<defs>
<clipPath id="clip0">
<rect width="351.3" height="218.09" fill="white"/>
</clipPath>
</defs>
</svg>
