<?xml version="1.0" encoding="utf-8"?>
<!-- Generator: Adobe Illustrator 24.2.3, SVG Export Plug-In . SVG Version: 6.00 Build 0)  -->
<svg version="1.1" id="Layer_1" xmlns="http://www.w3.org/2000/svg" xmlns:xlink="http://www.w3.org/1999/xlink" x="0px" y="0px"
	 viewBox="0 0 352 219" style="enable-background:new 0 0 352 219;" xml:space="preserve">
<style type="text/css">
	.st0{clip-path:url(#SVGID_2_);}
	.st1{fill:none;stroke:#D6D2C7;stroke-width:1.3;stroke-miterlimit:10;stroke-dasharray:9.31,9.31;}
	.st2{fill:#D6D2C7;}
</style>
<g>
	<defs>
		<rect id="SVGID_1_" width="351.3" height="218.1"/>
	</defs>
	<clipPath id="SVGID_2_">
		<use xlink:href="#SVGID_1_"  style="overflow:visible;"/>
	</clipPath>
	<g class="st0">
		<path class="st1" d="M350.6,0.6H0.6v216.8h350V0.6z"/>
	</g>
</g>
<path class="st2" d="M24.9,45.8c0.3,0.1,0.6,0,1-0.1c0.4-0.1,0.7-0.3,0.9-0.5c0.1-0.1,0.2-0.2,0.2-0.3c0-0.1,0-0.3,0-0.6
	c-0.1-1.6-0.1-3.7-0.1-6.1c0-1.6,0-2.6,0-3.1c0-0.6,0-1,0.1-1.2c0-0.1,0.2-0.2,0.3-0.3c0.2,0,0.3-0.1,0.3-0.2s0-0.2-0.1-0.2
	c-0.2,0-0.2-0.2-0.1-0.4c0.1-0.2,0.3-0.6,0.6-1.2c0.3-0.5,0.6-1,0.8-1.3c0.2-0.3,0.3-0.6,0.5-0.9c0,0,0-0.1,0.1-0.1
	c0.1-0.1,0.2-0.2,0.3-0.2c0.2,0,0.6-0.1,1.3-0.1c0.5,0,1.6,0,3.4,0c0.7,0,1.3,0,1.7,0c3.2,0,5,0,5.6,0c0.5,0,0.9-0.1,0.9-0.2
	c0.1-0.2-0.4-0.8-1.5-1.7c0,0-0.1-0.1-0.1-0.1c-0.4-0.3-0.6-0.4-0.8-0.4c-0.1,0-0.3,0.2-0.6,0.7c0,0.1-0.1,0.1-0.1,0.1
	c0,0.1-0.1,0.2-0.2,0.3c-0.2,0.3-0.3,0.4-0.4,0.5c-0.2,0.1-0.5,0.2-0.9,0.2c-0.3,0-1,0-2.1,0c-0.5,0-1,0-1.3,0c-0.3,0-0.6,0-1.1,0
	c-1.3,0-2.1,0-2.4,0c-0.4,0-0.7-0.1-0.8-0.3c0-0.1,0-0.3,0.2-0.7c0.1-0.2,0.1-0.3,0.1-0.4c0-0.1,0.1-0.4,0.2-0.7
	c0.1-0.3,0.2-0.5,0.2-0.6c0.2-0.5,0.4-0.8,0.6-0.9c0.3-0.1,0.3-0.3,0-0.4c-0.3-0.2-1-0.4-2-0.7c0,0-0.1,0-0.2,0
	c-0.4-0.1-0.6-0.2-0.6-0.1c-0.1,0-0.1,0.1-0.1,0.4c0,0,0,0.1,0,0.1c-0.1,1.1-0.3,2.1-0.6,2.9c-0.2,0.8-0.5,1.3-0.7,1.4
	c-0.1,0.1-0.9,0.1-2.2,0.1s-2.4,0-3.3-0.1c-0.2,0-0.3,0-0.3,0c0,0,0.1,0.2,0.3,0.6c0,0,0,0.1,0,0.1c0.1,0.2,0.2,0.3,0.3,0.3
	c0.1,0,0.4,0,0.8-0.1c0.1,0,0.2,0,0.2,0c0.4-0.1,1-0.1,1.9-0.1c0.9,0,1.4,0,1.6,0c0.3,0.1,0.4,0.2,0.3,0.5c0,0.3-0.3,0.9-0.7,1.8
	c-0.3,0.5-0.5,0.9-0.6,1.1c-0.2,0.2-0.3,0.2-0.5,0.1c-0.1,0-0.2,0-0.2,0c0,0,0,0.2,0,0.6c0,0.4-0.1,0.7-0.1,0.8
	c-0.1,0.3-0.5,0.8-1.1,1.6s-1.1,1.4-1.7,2c-0.3,0.3-0.5,0.5-0.6,0.6c0,0.1,0,0.1,0.1,0.2c0.1,0,0.3-0.1,0.7-0.4
	c0.4-0.3,0.9-0.7,1.4-1.1c0.4-0.3,0.7-0.5,0.8-0.6c0.1-0.1,0.3,0,0.3,0.1c0.1,0.1,0.1,1,0.1,2.5c0,1.6-0.1,3.1-0.1,4.6
	c-0.1,1-0.1,1.6,0,1.8S24.7,45.8,24.9,45.8z M28.2,45.3c0,0,0.2,0,0.6,0c0.7-0.1,1.3-0.2,1.9-0.2c0.6,0,2.5,0,5.7,0
	c0.3,0,0.7,0,1.3,0c1.9,0,3,0,3.6,0c0.7,0,1.1,0,1.3-0.1c0.1,0,0.2-0.1,0.2-0.2v0c0-0.1-0.2-0.4-0.6-0.8c-0.4-0.4-0.9-0.8-1.4-1.1
	c-0.2-0.2-0.4-0.2-0.5-0.1c-0.1,0-0.3,0.3-0.6,0.8c0,0,0,0.1-0.1,0.1c-0.3,0.4-0.5,0.6-0.7,0.7c-0.2,0.1-0.6,0.1-1.2,0.1
	c-0.1,0-0.1,0-0.2,0c-0.1,0-0.3,0-0.5,0c-0.5,0-0.8,0-0.9-0.1c-0.2-0.1-0.3-0.3-0.3-0.7c0-0.3,0-1,0-2c0-0.5,0-0.9,0-1.2
	c0-0.3,0-0.8,0-1.3c0-1,0-1.6,0-1.9c0.1-0.4,0.2-0.6,0.5-0.7c0.2-0.1,0.7-0.1,1.4-0.1c0.4,0,0.8,0,1,0c1.2,0,2-0.1,2.4-0.1
	c0.4-0.1,0.5-0.2,0.4-0.5c-0.1-0.2-0.6-0.6-1.4-1.2c-0.4-0.3-0.7-0.5-0.8-0.5c-0.1,0-0.3,0.2-0.6,0.6c-0.4,0.5-0.6,0.8-0.8,0.9
	c-0.2,0.1-0.5,0.1-1,0.1c0,0-0.1,0-0.1,0c-0.4,0-0.7,0-0.8-0.1c-0.1-0.1-0.2-0.2-0.3-0.5c0-0.2,0-0.7,0-1.4c0-0.1,0-0.2,0-0.3
	c0-0.9,0-1.4,0-1.6c0-0.2,0.1-0.4,0.2-0.5c0.3-0.1,0.2-0.3,0-0.4c-0.3-0.2-0.8-0.4-1.7-0.6c-0.5-0.1-0.8-0.2-0.9-0.2
	c-0.1,0-0.1,0.1-0.1,0.3c0.1,0.7,0.2,1.7,0.2,2.9c0,1.2,0,1.9,0,2c-0.2,0.4-1.7,0.5-4.6,0.2c-0.2,0-0.3,0-0.3,0c0,0,0,0.2,0.2,0.6
	c0.1,0.3,0.2,0.4,0.3,0.5c0.1,0,0.2,0,0.5,0c0.7-0.1,1.4-0.2,2.2-0.2c0.8,0,1.3,0,1.5,0l0,0c0.1,0.1,0.2,0.3,0.2,0.5
	c0,0.3,0,1.1,0,2.7c0,0.3,0,0.5,0,0.7c0,0.2,0,0.4,0,0.7c0,1.5,0,2.4,0,2.7c0,0.3-0.1,0.4-0.2,0.5l0,0c-0.1,0.1-0.9,0.1-2.3,0.1
	c-1.4,0-2.4-0.1-3-0.2c-0.1,0-0.2,0.1-0.1,0.3C27.8,44.8,28,45.1,28.2,45.3z M62.3,45.7c0.1,0.1,0.4,0.1,0.9,0
	c0.6-0.2,1-0.4,1.2-0.6c0.3-0.3,0.5-0.6,0.5-1c0.1-0.4,0.1-1.3,0.1-2.8c0-1.2,0-2.1,0.1-2.5c0-0.5,0.1-0.7,0.2-0.6
	c0.1,0,0.2,0.4,0.4,0.9c0.4,1.2,0.8,2.1,1.2,2.9c0.4,0.8,1,1.5,1.6,2.1c0.2,0.2,0.3,0.3,0.3,0.2c0,0,0.1-0.1,0.2-0.4
	c0.3-0.7,0.7-1.2,1.2-1.5c0.2-0.1,0.3-0.2,0.2-0.2c0-0.1-0.1-0.1-0.3-0.2c-1.2-0.6-2.3-1.5-3.2-2.6c-0.4-0.5-0.6-0.8-0.6-1
	s0.2-0.4,0.6-0.7c0,0,0.1-0.1,0.1-0.1c0.4-0.3,0.8-0.6,1-0.7c0,0,0,0,0.1-0.1c0.8-0.6,1.2-0.9,1.3-0.9c0.3,0,0.5-0.1,0.4-0.2
	c-0.1-0.2-0.4-0.4-0.9-0.8C68.6,34.3,68.2,34,68,34c-0.2-0.1-0.3,0-0.3,0.1c-0.1,0.3-0.2,0.8-0.4,1.4c-0.2,0.6-0.4,1.1-0.6,1.3
	c-0.4,0.9-0.9,0.4-1.3-1.5c-0.2-0.7-0.2-1.1-0.2-1.3c0-0.3,0.3-0.4,0.6-0.5c0.3,0,1,0,2,0c1.5,0.1,2.4,0,2.6-0.3
	c0.2-0.2,0-0.8-0.8-1.6c-0.3-0.3-0.5-0.4-0.6-0.4c-0.1,0-0.3,0.2-0.5,0.5c-0.3,0.5-0.5,0.8-0.7,0.9c-0.2,0.1-0.4,0.1-0.5,0
	c-0.1-0.1-0.1-0.3-0.1-0.6c0-0.4,0.1-1.1,0.3-2.3c0.2-1.3,0.4-2.1,0.4-2.3c0.1-0.2,0.2-0.4,0.5-0.5c0.2-0.1,0.3-0.2,0.1-0.4
	c-0.1-0.2-0.4-0.5-0.9-0.8c-0.4-0.4-0.7-0.6-0.9-0.6c-0.1,0-0.3,0-0.4,0.2c-0.4,0.5-0.7,0.7-0.9,0.8c-0.2,0-0.7,0.1-1.5,0
	c-0.8,0-1.3,0-1.4-0.1c-0.2-0.1-0.3-0.4-0.2-0.7c0-0.4,0.2-0.6,0.5-0.8c0.3-0.2,0.3-0.3,0-0.4c-0.3-0.1-0.9-0.2-1.9-0.4
	c-0.4,0-0.6-0.1-0.6,0c0,0-0.1,0.1-0.1,0.3c0,1.6-0.4,3.9-1.2,7C59,31.3,59,31.5,59,31.6c0,0.1,0.2,0.1,0.5,0.1h0
	c0.5,0.1,0.9,0.1,1.1,0c0.2-0.1,0.4-0.3,0.5-0.6c0.1-0.4,0.3-0.7,0.4-0.7c0.2-0.1,0.7-0.1,1.6-0.1c0.1,0,0.1,0,0.1,0
	c0,0,0.1,0,0.1,0c0.7,0,1.2,0,1.4,0c0.3,0,0.4,0.2,0.5,0.3c0,0.1,0,0.4-0.1,0.9v0C65.1,32,65,32.3,65,32.4c0,0.1-0.1,0.2-0.2,0.3
	c-0.1,0.1-1,0.1-2.6,0.1s-2.8,0-3.7-0.1c-0.2,0-0.3,0-0.3,0c0,0,0.1,0.2,0.2,0.6c0.1,0.3,0.2,0.4,0.3,0.5c0.1,0,0.2,0,0.4,0h0
	c1-0.2,1.9-0.3,2.7-0.3c0.8,0,1.2,0.1,1.3,0.3c0.1,0.2,0.1,0.9,0.1,2.2c0,1.3,0,2-0.1,2.2c-0.1,0.1-0.6,0.5-1.6,1.2
	c-1,0.7-2,1.3-2.8,1.8c-0.1,0-0.2,0.1-0.4,0.2c-0.6,0.3-0.9,0.5-0.9,0.7c0,0.1,0.1,0.4,0.4,0.7c0.1,0.1,0.2,0.2,0.2,0.3
	c0,0,0.1,0.1,0.1,0.1c0.4,0.5,0.7,0.8,0.8,0.8c0.1,0,0.2,0,0.2-0.3l0,0c0.1-0.2,0.2-0.4,0.3-0.5c0.2-0.2,0.3-0.4,0.4-0.6
	c0.1-0.1,0.4-0.5,1-1.2c0.6-0.7,1.1-1.3,1.4-1.7c0.4-0.5,0.6-0.6,0.7-0.5c0.1,0.2,0.2,0.8,0.2,1.9c0,0,0,0.1,0,0.2
	c0,0.7,0,1.2-0.1,1.3c0,0.3-0.2,0.4-0.4,0.5c-0.2,0-0.6,0-1.2,0c-0.1,0-0.1,0-0.2,0c-0.6,0-1,0-1.1,0c-0.1,0-0.2,0-0.1,0.1
	c0,0.1,0.2,0.2,0.6,0.2c1.2,0.3,1.8,0.9,1.8,1.9C62.2,45.6,62.3,45.7,62.3,45.7z M50.4,45.4c0.1,0.2,0.3,0.2,0.5-0.1
	c0.1-0.2,0.5-0.5,1.1-0.8c4-2.4,6-3.6,6.2-3.8c0,0,0-0.1,0-0.2c0-0.1-0.4,0-1,0.2c-0.2,0-0.4,0.1-0.7,0.2c-0.7,0.2-1.1,0.4-1.3,0.4
	c-0.3,0-0.4-0.2-0.5-0.5c0-0.2-0.1-0.8-0.1-1.7c0-0.4,0-0.7,0-0.9c0-0.3,0-0.6,0-1c0-0.8,0-1.4,0-1.6c0-0.3,0.2-0.5,0.4-0.6
	c0.1,0,0.4-0.1,0.9-0.1c0.2,0,0.4,0,0.6,0c0.8,0,1.3,0,1.5,0c0.2,0,0.3-0.1,0.3-0.2c0.1-0.2-0.2-0.7-1-1.4c-0.4-0.4-0.6-0.5-0.7-0.5
	c-0.1,0-0.3,0.2-0.5,0.6c-0.9,1.5-1.4,1.3-1.4-0.6c0,0,0-0.1,0-0.2c0-0.6,0.1-1,0.2-1.1c0.1-0.1,0.5-0.2,1.2-0.2c0.1,0,0.1,0,0.2,0
	c0.9,0,1.4-0.1,1.5-0.3c0.1-0.1-0.1-0.5-0.7-1.1c-0.5-0.5-0.9-0.8-1-0.8c-0.2,0-0.4,0.2-0.7,0.6c-0.3,0.4-0.5,0.7-0.7,0.7
	c-0.2,0.1-0.7,0.1-1.5,0.1c-0.9,0-1.5-0.1-1.6-0.2c-0.1-0.1,0.1-0.4,0.5-1c0.7-1,1.4-2,1.9-3c0.3-0.5,0.6-0.7,0.9-0.4
	c0.2,0.2,0.5,0.5,0.8,1c0.4,0.5,0.6,1,0.8,1.4c0.2,0.5,0.5,0.8,0.9,0.8c0.3,0.1,0.6-0.1,0.9-0.5c0.3-0.5,0.2-1-0.2-1.6
	c-0.4-0.6-1.1-1.1-2-1.6c-0.8-0.4-1-0.6-0.8-0.8c0.3-0.2-0.4-0.6-2.2-1.2c-0.3-0.1-0.4-0.1-0.5-0.1c0,0-0.1,0.1-0.1,0.4
	c-0.2,1.2-0.6,2.5-1.2,4c-0.6,1.5-1.3,2.8-2.1,3.8c-0.2,0.3-0.2,0.5,0,0.5c0.1,0,0.5-0.3,1.1-0.8c0.3-0.3,0.5-0.4,0.7-0.5
	c0.2-0.1,0.3,0,0.3,0.1c0,0.1,0,0.1,0.1,0.1c0.1,0,0.3,0,0.6,0c0.5,0,0.8,0.1,0.9,0.3c0.1,0.1,0.1,0.6,0.1,1.4
	c0,0.5-0.1,0.9-0.1,1.1c-0.1,0.2-0.4,0.3-0.7,0.3c-0.3,0-0.9,0-1.9-0.1c0,0,0,0-0.1,0c-0.3,0-0.5,0-0.6,0c0,0,0,0.2,0.1,0.4
	c0,0,0,0.1,0,0.1c0.2,0.3,0.3,0.5,0.3,0.5c0.1,0,0.2,0,0.3,0c0.7-0.2,1.2-0.3,1.7-0.2c0.5,0,0.7,0.2,0.8,0.4
	c0.1,0.2,0.1,1.3,0.1,3.3c0,2-0.1,3.1-0.1,3.2c-0.1,0.2-0.3,0.3-0.6,0.4c-0.3,0.1-1,0.3-2,0.6c-0.6,0.2-0.8,0.3-0.8,0.3
	S49.5,44.1,50.4,45.4z M50.7,41.3c0.3,0.1,0.6,0.1,0.8-0.1c0.3-0.2,0.4-0.6,0.5-1.1c0.1-0.5,0-1.1-0.3-1.7c-0.3-0.7-0.6-1.3-1.2-1.8
	c-0.3-0.4-0.5-0.5-0.6-0.4c-0.1,0.1,0,0.4,0.1,1c0.2,1,0.3,1.9,0.3,2.9c0,0.5,0,0.9,0.1,1C50.5,41.1,50.6,41.2,50.7,41.3z
	 M55.1,40.7c0.1,0.1,0.3,0,0.6-0.3c0.3-0.4,0.7-1.3,1.4-2.7c0.2-0.4,0.4-0.6,0.6-0.7c0.4-0.2,0.3-0.4-0.2-0.5
	c-0.1,0-0.5-0.2-1.1-0.4c-0.1,0-0.1,0-0.2-0.1c-0.3-0.1-0.5-0.2-0.6-0.1c0,0-0.1,0.3-0.1,0.6c0,0.1,0,0.2,0,0.3
	c0,0.6-0.1,1.3-0.1,2.1c-0.1,0.8-0.2,1.3-0.2,1.6C55,40.6,55.1,40.7,55.1,40.7z M60.5,38.3c0.3,0.1,0.6,0.1,0.9,0
	c0.3-0.1,0.5-0.3,0.6-0.6c0.1-0.5,0-1.1-0.5-1.6c-0.4-0.6-1.1-1-2-1.4c-0.4-0.1-0.6-0.2-0.6-0.1c-0.1,0,0,0.2,0.2,0.5
	c0.6,1,1,1.9,1.1,2.7C60.1,38,60.2,38.2,60.5,38.3z M63.4,29.5c-0.7,0-1.1,0-1.3,0c-0.2,0-0.4-0.2-0.4-0.4c0-0.1,0-0.5,0.2-1
	c0,0,0-0.1,0-0.1c0,0,0-0.1,0-0.2c0.1-0.6,0.3-0.9,0.4-1c0.2-0.1,0.6-0.1,1.4-0.1c0.1,0,0.2,0,0.3,0c0,0,0.1,0,0.2,0
	c0.7,0,1.1,0,1.3,0c0.2,0,0.4,0.2,0.4,0.4c0,0.1,0,0.5-0.1,1c0,0,0,0.1,0,0.1c-0.1,0.7-0.3,1.1-0.5,1.2c-0.1,0.1-0.7,0.1-1.7,0.1
	C63.5,29.5,63.5,29.5,63.4,29.5z M80.6,45.8c0.1,0.1,0.2,0.1,0.4-0.1c0.2-0.2,0.7-0.4,1.3-0.6c1.4-0.4,3.1-0.9,5.1-1.6
	c2-0.6,3-1,3-1.1c0.1-0.1,0-0.2-0.1-0.3l-0.3,0c-0.2,0-0.4,0.1-0.6,0.1c-0.2,0-0.4,0.1-0.8,0.1c-1.3,0.2-2.1,0.3-2.5,0.3
	c-0.5,0-0.8,0-0.9-0.2c-0.1-0.1-0.1-0.4-0.1-1c0-0.1,0-0.2,0-0.3c0-0.7,0-1.1,0.1-1.3c0.1-0.2,0.4-0.4,0.8-0.6
	c0.4-0.2,0.8-0.4,0.9-0.6c0.5-0.3,0.8-0.5,0.9-0.4s0.3,0.3,0.6,0.8c0.3,0.6,0.7,1.3,1.2,1.9c0.3,0.4,0.5,0.6,0.6,0.8
	c0.1,0.2,0.2,0.3,0.4,0.4c0.2,0.1,0.4,0.3,0.6,0.5c1.2,1.1,2.7,2,4.5,2.7l0,0c0.4,0.2,0.7,0.2,0.7,0.2s0.2-0.1,0.2-0.3
	c0.3-0.7,0.7-1.2,1.3-1.5c0.4-0.2,0.4-0.3,0-0.4c-1.8-0.4-3.4-0.9-4.8-1.5c-0.6-0.3-0.9-0.5-0.9-0.7c0-0.2,0.2-0.4,0.8-0.6
	c0,0,0.1-0.1,0.3-0.1c0.5-0.2,0.8-0.4,1.1-0.5c0.6-0.3,1-0.4,1-0.4c0.3,0,0.4-0.1,0.3-0.2c0-0.1-0.3-0.3-0.6-0.6
	c-0.5-0.4-0.7-0.6-0.6-0.7c0.1-0.1,0.7-0.2,1.7-0.2c0.8,0,1.2,0,1.4,0c0.2,0,0.3-0.1,0.4-0.2c0-0.1,0-0.1,0-0.2
	c0-0.1-0.2-0.2-0.6-0.5c-0.6-0.5-1-0.9-1.1-1.1c-0.1-0.2-0.1-0.4,0.1-0.7c0,0,0,0,0-0.1c0.1-0.3,0.2-0.6,0.2-1
	c0-0.4,0.1-1.8,0.1-4.2c0-2.4,0-3.8,0-4.2c0-0.4,0.1-0.7,0.2-0.7l0,0c0.3-0.1,0.3-0.3,0-0.5c-0.3-0.2-0.9-0.4-1.9-0.6
	c0,0-0.1,0-0.1,0c-0.3-0.1-0.5-0.1-0.5,0c0,0,0,0.2,0,0.5c0,0.1,0,0.1,0,0.1c0.1,1.1,0.2,2.8,0.2,5.4c0,0.3,0,0.7,0,1.2
	c0,1.2,0,1.9,0,2.2c0,0.4-0.2,0.7-0.5,0.8c-0.2,0.1-0.6,0.1-1.3,0c-0.3,0-0.6,0-0.7,0c-0.5,0-0.8,0-0.8,0.1c0,0.1,0.2,0.2,0.7,0.3
	c0.6,0.1,1,0.3,1.3,0.6c0.3,0.2,0.5,0.6,0.6,1c0,0.1,0.1,0.2,0.1,0.2c0,0,0.2,0,0.4,0c0.4,0,0.7,0.1,0.7,0.2c0,0.1,0,0.2-0.2,0.4
	c-0.1,0.2-0.3,0.3-0.4,0.4c-0.2,0.1-1.1,0.1-2.7,0.1c-1.6,0-2.5-0.1-2.6-0.1c-0.2-0.2-0.2-0.4,0.1-0.7c0.2-0.2,0.2-0.3,0-0.4
	c-0.1-0.1-0.5-0.2-1.2-0.5c-0.4-0.1-0.7-0.3-0.7-0.4c0-0.1,0.1-0.3,0.4-0.4c0.3-0.1,0.4-0.3,0.6-0.6c0.1-0.3,0.2-0.7,0.2-1.2
	c0-0.4,0-0.7,0.1-0.9c0.1-0.1,0.2-0.3,0.4-0.4c0.3-0.1,0.4-0.3,0.3-0.4c0-0.1-0.3-0.4-0.7-0.7c-0.5-0.5-0.9-0.7-1.1-0.8
	c-0.2-0.1-0.4,0-0.6,0.2c-0.4,0.4-0.6,0.7-0.7,0.8c-0.1,0.1-0.4,0.1-0.8,0.1c-0.5,0-0.8-0.1-1-0.3c-0.2-0.2-0.2-0.5-0.1-1
	c0,0,0,0,0-0.1c0-0.2,0.2-0.3,0.3-0.3c0.2,0,0.8-0.1,1.9-0.1c0.1,0,0.3,0,0.3,0c1.2,0,1.9,0,2.1,0c0.2,0,0.4-0.1,0.5-0.2
	c0.1-0.1,0-0.3-0.3-0.5c-0.2-0.3-0.5-0.6-0.9-0.8c-0.4-0.3-0.6-0.4-0.7-0.4c-0.1,0-0.3,0.2-0.6,0.5c-0.3,0.4-0.6,0.7-0.7,0.8
	c-0.1,0.1-0.5,0.1-1,0.1c-0.5,0-0.8-0.1-0.9-0.2c-0.1-0.1-0.2-0.4-0.1-0.9c0-0.4,0.3-0.6,0.7-0.7c0.5-0.1,1.2-0.1,2.3,0
	c0.9,0.1,1.4,0,1.4-0.3c0.1-0.3-0.3-0.7-1-1.3c-0.4-0.3-0.6-0.5-0.7-0.5c-0.1,0-0.3,0.2-0.5,0.5c-0.3,0.4-0.5,0.6-0.7,0.7
	c-0.1,0.1-0.3,0.1-0.6,0.1c-0.4,0-0.6-0.1-0.7-0.3c-0.1-0.1-0.1-0.3,0-0.5c0-0.2,0.1-0.3,0.3-0.4c0.2-0.1,0.2-0.3-0.1-0.5
	c-0.3-0.2-0.9-0.4-1.8-0.6c0,0,0,0-0.1,0c-0.2-0.1-0.4-0.1-0.4,0c0,0,0,0.3,0,0.7c0,0,0,0.1,0,0.1c0,0.6,0,1-0.1,1.2
	c-0.1,0.2-0.3,0.2-0.7,0.2c-0.4,0-0.7-0.1-0.7-0.4c0-0.3,0.1-0.5,0.5-0.7c0.2-0.1,0.2-0.3,0-0.4c-0.3-0.2-0.8-0.4-1.7-0.7
	c-0.3-0.1-0.5-0.2-0.5-0.1c0,0-0.1,0.1-0.1,0.3c0,0.9-0.2,1.9-0.6,2.9c-0.4,1-0.7,1.5-1.1,1.5c-0.2,0-0.2,0-0.3,0.1
	c0,0,0.1,0.2,0.2,0.5c0,0,0,0.1,0.1,0.1c0.1,0.2,0.2,0.3,0.2,0.3c0.1,0,0.3,0,0.6,0c0.1,0,0.2,0,0.3,0c1.4-0.2,2.4-0.3,3-0.1
	c0.6,0.1,0.9,0.4,0.9,0.8c0,0.5-0.3,0.9-0.8,0.9c-0.5,0.1-1.3-0.1-2.2-0.5c-0.1,0-0.2-0.1-0.3-0.1c-0.4-0.2-0.6-0.3-0.6-0.2
	c-0.1,0-0.1,0.2-0.1,0.4c0,0.1,0,0.1,0,0.2c0,0.4,0,1.1,0,2.1c0,1,0,1.7,0,1.9c0,0.4,0,0.6,0.2,0.7c0.2,0.1,0.5,0.1,0.9-0.1l0,0
	c0.4-0.1,0.7-0.3,0.7-0.4c0.1-0.1,0.1-0.6,0-1.3c0,0,0-0.1,0-0.1c0-0.7,0-1.2,0-1.3c0-0.3,0.1-0.4,0.2-0.5c0.1,0,0.4-0.1,0.8-0.1
	s0.7,0.1,0.8,0.2c0.2,0.2,0.2,0.5,0.3,1.1c0,0.5,0,1.3-0.1,2.5c-0.1,1,0.5,1.2,1.6,0.6c0,0,0.1,0,0.1,0c0.2-0.1,0.3-0.2,0.3-0.4
	c0-0.1,0-0.6,0-1.3c0-0.1,0-0.2,0-0.3c0,0,0-0.1,0-0.1c0-0.8,0-1.3,0-1.6c0-0.3,0.1-0.5,0.3-0.6c0.1,0,0.4-0.1,0.8-0.1h0.1
	c0.5,0,0.8,0.1,1,0.2c0.1,0.1,0.2,0.4,0.2,0.8c0,0.4-0.1,0.6-0.2,0.7c-0.1,0.1-0.4,0.1-0.8,0.1c-0.4,0-0.6,0-0.7,0.1
	c-0.1,0.1,0.1,0.2,0.4,0.3c0.3,0.1,0.5,0.2,0.6,0.4c0.2,0.2,0.3,0.4,0.3,0.6c0,0.2,0.1,0.3,0.2,0.3c0.1,0,0.1,0,0.1,0.1
	c0,0.1,0,0.3,0.1,0.8v0c0,0.1,0,0.1,0,0.2c0,0.4,0,0.6-0.1,0.7c-0.1,0.1-0.4,0.2-0.8,0.2c-0.3,0-1.1,0-2.2,0c-0.4,0-0.6,0-0.8,0
	c-2.6,0-4.3,0-5.3-0.1c-0.2,0-0.3,0-0.4,0c0,0,0.1,0.2,0.2,0.6l0,0c0.1,0.3,0.2,0.4,0.3,0.4c0.1,0,0.3,0,0.5,0c0.1,0,0.1,0,0.1,0
	c1.2-0.2,2.5-0.2,3.8-0.2c1.3,0,2,0.1,2,0.3c0,0.3-0.7,0.8-2.1,1.6c-1.4,0.8-2.9,1.4-4.3,1.9C77.2,41.9,77,42,76.9,42
	c-0.1,0.1-0.1,0.1,0,0.2c0,0,0.5,0,1.3-0.2c1-0.2,2.1-0.5,3.2-0.8c0.8-0.2,1.2-0.3,1.3-0.2c0.1,0.1,0.2,0.4,0.2,1
	c0,0.4,0,0.7-0.1,0.8c-0.1,0.2-0.3,0.3-0.7,0.3c-0.3,0-0.9,0.1-1.8,0.2c-0.6,0-0.8,0.1-0.8,0.1c0,0,0.1,0.4,0.4,1.1
	C80.3,45.3,80.5,45.7,80.6,45.8z M91.5,40.5c-0.2,0.1-0.4,0.1-0.7,0c-0.2-0.1-0.6-0.4-1-0.9c-0.5-0.5-0.8-0.9-0.9-1.1
	c-0.1-0.2,0-0.4,0.4-0.5c0.3,0,0.9-0.1,1.8-0.1c0.8,0,1.4,0,1.7,0c0.3,0,0.5,0.1,0.6,0.2c0,0.1,0,0.3-0.1,0.5
	c-0.1,0.2-0.4,0.5-0.8,1C91.9,40.1,91.6,40.4,91.5,40.5z M90.4,33c0.1,0.1,0.3,0.2,0.6,0.1s0.6-0.1,0.9-0.3c0.2-0.1,0.4-0.2,0.4-0.3
	s0-0.4,0-0.9c-0.2-3.6-0.1-5.4,0.3-5.7c0.2-0.1,0.2-0.3-0.1-0.4c-0.3-0.2-0.8-0.4-1.7-0.6c0,0-0.1,0-0.1,0c-0.4-0.1-0.6-0.1-0.6-0.1
	c0,0-0.1,0.2,0,0.5v0.1c0.2,1.8,0.2,3.9,0.1,6.4c0,0.5,0,0.9,0,1C90.2,32.8,90.3,32.9,90.4,33z M82.2,28.4c-0.2,0.1-0.7,0.1-1.7,0.1
	c-1,0-1.5-0.1-1.6-0.2c-0.1-0.1,0-0.3,0.4-0.7c0.3-0.4,0.6-0.7,0.9-0.8c0.1-0.1,0.5-0.1,1-0.1c0.5,0,0.9,0,1,0.1
	c0.2,0.1,0.3,0.4,0.4,0.9C82.5,28,82.4,28.3,82.2,28.4z M122.5,45.7c0.2,0.2,0.6,0.1,1.3-0.2c0.7-0.3,1.1-0.6,1.3-1l0,0
	c0.1-0.2,0.2-0.7,0.2-1.5c0-0.8,0-3.4,0-7.8c0-0.1,0-0.3,0-0.5c0-5.4,0-8.1,0.1-8.2c0.1-0.2,0.3-0.3,0.5-0.4
	c0.3-0.1,0.3-0.3,0.2-0.5s-0.5-0.5-1.1-1c-0.4-0.4-0.7-0.5-0.9-0.5c-0.1,0-0.3,0.2-0.6,0.6c-0.4,0.4-1,0.7-1.9,0.7
	c-0.9,0-1.8-0.1-2.7-0.5c-1-0.4-1.4-0.6-1.5-0.5c0,0,0,0.3,0,0.9c0.1,1.1,0.1,1.8,0,2.2c0,0.2,0,0.3,0,0.5c0.1,0.3,0.1,1.7,0.1,4.3
	c0,2.6,0,4.2-0.1,4.9c-0.1,0.4-0.2,0.7-0.3,0.7c-0.2,0-0.5-0.2-0.9-0.7l0,0c-0.2-0.2-0.4-0.4-0.5-0.4c-0.1,0-0.1,0-0.2,0.2l0,0.1
	c-0.3,0.5-0.5,0.7-0.6,0.7c-0.1,0-0.2-0.4-0.2-1.1c0-0.5,0-1.8,0-3.7c0-0.3,0-0.8,0-1.4c0-1.3,0-2.1,0-2.4c0-0.5,0.1-0.8,0.3-0.9
	c0.1-0.1,0.4-0.1,0.7-0.1c0.2,0,0.3,0,0.4,0c0.8,0,1.2-0.1,1.2-0.3c0.1-0.2-0.2-0.5-0.7-1.1c-0.4-0.4-0.6-0.6-0.7-0.6
	c-0.1,0-0.3,0.1-0.4,0.3c-0.4,0.5-0.6,0.5-0.7,0c-0.1-0.7,0-1.1,0.4-1.4c0.2-0.2,0.1-0.3-0.2-0.5c-0.3-0.2-0.9-0.4-1.8-0.6
	c-0.4-0.1-0.6-0.1-0.6-0.1c0,0-0.1,0.1,0,0.4c0.1,0.8,0.1,1.4,0.1,2c0,0.6-0.1,0.9-0.2,1s-0.6,0.2-1.4,0.2s-1.4,0-1.5-0.1
	c-0.2-0.1-0.3-0.5-0.3-1.1c0-0.6,0.2-1,0.4-1.2c0.2-0.2,0.2-0.3-0.1-0.4c-0.2-0.1-0.8-0.4-1.7-0.6c0,0,0,0-0.1,0
	c-0.3-0.1-0.5-0.1-0.5-0.1c0,0-0.1,0.2,0,0.4v0.1c0.1,1,0.2,1.7,0.1,2.1c0,0.4-0.2,0.7-0.4,0.9c-0.2,0.1-0.6,0.1-1.2,0
	c-0.3,0-0.4,0-0.4,0c0,0,0,0.2,0.2,0.5c0.1,0.3,0.2,0.4,0.3,0.5c0.1,0,0.2,0,0.3,0c0.3-0.2,0.6-0.2,0.8-0.1c0.3,0.1,0.4,0.3,0.4,0.5
	c0,0.4,0.1,1.9,0,4.8c0,2.8-0.1,4.3-0.1,4.4c-0.1,0.2-0.3,0.3-0.6,0.3c-0.3,0-0.8,0-1.5-0.1c-0.2,0-0.2,0-0.3,0c0,0,0.1,0.2,0.2,0.5
	c0,0,0,0,0,0.1c0.1,0.2,0.2,0.4,0.3,0.4c0.1,0,0.3,0,0.6,0c0,0,0.1,0,0.1,0c0.5-0.1,1-0.1,1.6-0.1c0.7,0,1.1,0,1.2-0.1
	c0.2,0,1.5,0,4.1,0c2.5,0,3.9,0,4,0c0.3,0.1,0.4,0.2,0.4,0.6c0,0.4-0.1,1-0.4,1.8c-0.3,0.8-0.6,1.4-0.8,1.8
	c-0.1,0.2-0.3,0.5-0.4,0.7c-0.2,0.5-0.6,0.9-1,1.4c-0.1,0.1-0.2,0.2-0.1,0.3c0,0.1,0.2,0.1,0.3,0c1.1-0.6,2.1-1.6,2.9-3
	c0.9-1.4,1.4-3,1.8-4.8c0,0,0-0.1,0-0.1c0.1-0.6,0.2-0.9,0.4-1c0.2-0.1,0.6-0.1,1.5-0.1c0.1,0,0.1,0,0.2,0c0.1,0,0.3,0,0.5,0
	c0.5,0,0.9,0,1,0.1c0.2,0.1,0.3,0.3,0.4,0.6c0,0.2,0,0.8,0,1.7c0,0.4,0,0.7,0,0.9c0,0.2,0,0.5,0,0.8c0,1,0,1.6,0,1.8
	c-0.1,0.4-0.2,0.6-0.5,0.6c-0.2,0-0.6,0-1.2,0c-0.2,0-0.4,0-0.6,0c-0.5,0-0.8,0-0.8,0c-0.1,0.1,0.1,0.3,0.5,0.3
	c0.5,0.1,1,0.3,1.2,0.6c0.3,0.3,0.5,0.7,0.6,1.3l0,0L122.5,45.7z M104.8,45.8c0.1,0.1,0.1,0.1,0.2,0c0.1,0,0.2-0.1,0.6-0.3
	c1.5-0.9,2.9-2.2,4-3.8c0.3-0.5,0.6-0.7,0.8-0.8c0.5-0.2,0.3-0.4-0.4-0.7c-0.1,0-0.4-0.2-0.7-0.4c-0.2-0.1-0.3-0.1-0.4-0.2
	c-0.4-0.2-0.7-0.4-0.8-0.4c-0.1,0-0.1,0.1-0.2,0.3c-0.1,0.9-0.5,1.8-1,2.9c-0.5,1.1-1.1,2-1.8,2.7c-0.2,0.2-0.2,0.3-0.3,0.3
	C104.7,45.7,104.8,45.7,104.8,45.8z M113.8,43.7c0.4,0.2,0.7,0.2,1,0c0.3-0.2,0.5-0.4,0.6-0.8c0.1-0.6-0.1-1.2-0.7-1.8
	s-1.3-1-2.3-1.3c-0.4-0.1-0.7-0.2-0.7-0.1c-0.1,0,0,0.2,0.2,0.5c0.8,1,1.3,2.1,1.6,3.2C113.6,43.5,113.7,43.6,113.8,43.7z
	 M110.7,38.3c-0.8,0-1.3,0-1.4-0.1c-0.2-0.1-0.3-0.6-0.4-1.4c0-0.8,0.1-1.3,0.3-1.5c0.1-0.1,0.6-0.1,1.4-0.1c0.8,0,1.3,0,1.5,0.1
	c0.2,0.1,0.3,0.6,0.3,1.5c0,0.8-0.1,1.3-0.3,1.5C112,38.2,111.6,38.2,110.7,38.3z M120.9,36c-0.5,0-0.8,0-1,0
	c-0.2-0.1-0.3-0.2-0.4-0.4c0-0.2,0-0.6,0-1.2c0-0.2,0-0.4,0-0.5c0-0.1,0-0.3,0-0.5c0-0.8,0-1.3,0-1.5c0-0.3,0.2-0.5,0.4-0.6
	c0.1,0,0.5-0.1,1.1-0.1c0.2,0,0.3,0,0.4,0c0.1,0,0.2,0,0.4,0c0.5,0,0.9,0,1,0c0.2,0.1,0.3,0.2,0.4,0.5c0,0.2,0.1,0.6,0.1,1.3
	c0,0.2,0,0.4,0,0.5c0,1.1,0,1.7,0,1.9c0,0.2-0.1,0.4-0.3,0.5c-0.1,0.1-0.2,0.1-0.3,0.1c-0.1,0-0.6,0-1.3,0
	C121.3,36,121.1,36,120.9,36z M110.7,34.4c-0.8,0-1.3,0-1.4-0.1c-0.3-0.1-0.4-0.6-0.4-1.4c0-0.8,0.1-1.3,0.4-1.4
	c0.1-0.1,0.6-0.1,1.4-0.1c0.8,0,1.2,0,1.4,0.1c0.3,0.1,0.4,0.6,0.4,1.4c0,0.8-0.1,1.2-0.4,1.4C112,34.4,111.5,34.4,110.7,34.4z
	 M112.2,30.8c-0.1,0.1-0.6,0.1-1.5,0.1c-0.8,0-1.3-0.1-1.4-0.1c-0.2-0.2-0.4-0.6-0.3-1.3c0-0.7,0.2-1.1,0.4-1.2
	c0.1-0.1,0.6-0.1,1.4-0.1c0.8,0,1.2,0,1.4,0.1c0.2,0.1,0.4,0.5,0.4,1.2C112.5,30.2,112.4,30.6,112.2,30.8z M121.4,30.6
	c-0.9,0-1.4,0-1.6-0.1c-0.2-0.1-0.3-0.9-0.3-2.2c0-1.3,0.1-2,0.3-2.2c0.1-0.1,0.6-0.1,1.6-0.1c0.9,0,1.4,0,1.6,0.1
	c0.2,0.1,0.3,0.9,0.3,2.2c0,1.3-0.1,2-0.3,2.2C122.8,30.5,122.3,30.6,121.4,30.6z M134,45.8c0.1,0.1,0.4,0.1,0.8,0
	c0.4-0.1,0.7-0.2,1-0.4l0,0c0.2-0.1,0.3-0.3,0.4-0.4c0-0.1,0-0.5,0-1.2c0-0.1,0-0.2,0-0.2c-0.1-1.2-0.1-3.3-0.1-6.4
	c0-3.1,0-4.7,0.1-4.8c0.1-0.2,0.2-0.3,0.4-0.3c0.2,0,0.7,0,1.6,0c0.9,0,1.5,0,1.7,0.1c0.2,0.1,0.3,0.3,0.3,0.6
	c0,0.3,0.1,0.4,0.4,0.5c0.3,0,0.7-0.1,1.2-0.3c0,0,0.1,0,0.1,0c0.2-0.1,0.4-0.2,0.4-0.3c0-0.1,0-0.5,0-1.2c0-0.2,0-0.3,0-0.4
	c0-1.5-0.1-2.5-0.1-3c0-0.7,0-1.1,0.1-1.3c0.1-0.2,0.2-0.4,0.5-0.5c0.2-0.1,0.2-0.3,0.1-0.5c-0.1-0.2-0.4-0.5-0.9-0.9
	c-0.5-0.4-0.8-0.6-0.9-0.6c-0.1,0-0.3,0.2-0.6,0.5c0,0,0,0,0,0.1c-0.2,0.3-0.4,0.5-0.6,0.6c-0.2,0-0.7,0.1-1.6,0.1
	c-0.1,0-0.1,0-0.2,0c-0.1,0-0.2,0-0.4,0c-0.7,0-1.2,0-1.4,0c-0.2,0-0.6-0.2-1.1-0.4c-0.1,0-0.2-0.1-0.3-0.1c0,0-0.1-0.1-0.2-0.1
	c-0.5-0.2-0.7-0.3-0.8-0.3c-0.1,0-0.1,0.2,0,0.5c0,0.1,0,0.1,0,0.1c0.1,0.8,0.1,1.6,0.2,2.3c0,0.8,0,2.7,0,5.6c0,5.5,0,9.2-0.1,11
	c-0.1,0.9-0.1,1.4-0.1,1.6C133.7,45.6,133.8,45.7,134,45.8z M149.9,45.8c0,0.1,0.3,0.1,0.7,0c0.4-0.1,0.8-0.2,1.1-0.3
	c0.5-0.3,0.9-0.7,1.1-1.3c0-0.1,0.1-0.6,0.1-1.5c0-0.8,0-3,0-6.9c0-0.2,0-0.4,0-0.5c0-0.7,0-1.7,0-2.8c0-2.2,0-3.6,0-4.2
	c0-0.8,0-1.4,0.1-1.6c0-0.2,0.1-0.3,0.3-0.3c0.1,0,0.1,0,0.1-0.1c0.3-0.2,0.3-0.3,0.2-0.5c-0.1-0.2-0.5-0.5-1.1-1
	c-0.5-0.4-0.8-0.5-0.9-0.6c-0.1,0-0.3,0.1-0.6,0.5c0,0-0.1,0.1-0.1,0.1c-0.2,0.3-0.4,0.5-0.6,0.5c-0.2,0-0.7,0.1-1.5,0.1
	c-0.1,0-0.3,0-0.3,0c-0.1,0-0.2,0-0.4,0c-0.7,0-1.2,0-1.4,0c-0.2,0-0.6-0.2-1.1-0.4c-0.1,0-0.2-0.1-0.3-0.1c0,0-0.1,0-0.2-0.1
	c-0.4-0.2-0.7-0.3-0.7-0.3c-0.1,0-0.1,0.1-0.1,0.3c0,0,0,0.1,0,0.1c0.2,2.7,0.3,5.3,0.1,7.8c0,0.3,0.1,0.5,0.4,0.6
	c0.3,0.1,0.6,0.1,1,0c0.4-0.1,0.6-0.4,0.8-0.7c0.1-0.2,0.2-0.3,0.4-0.4c0.2,0,0.8,0,1.7,0c0.2,0,0.4,0,0.7,0c0.5,0,0.9,0,1,0.1
	c0.2,0.1,0.3,0.5,0.4,1c0,0.4,0,1.3,0,2.7c0,0.8,0,1.4,0,1.8c0,0.2,0,0.5,0,1c0,1.7,0,2.7,0,3.2c0,0.6,0,1-0.1,1.2
	c0,0.1-0.1,0.2-0.2,0.2l0,0c-0.2,0.1-0.6,0.1-1.4,0c-0.8,0-1.2-0.1-1.1-0.2c0.1-0.1,0.1-1.2,0-3.3c0-1.8,0-2.8,0-3.3
	c0-0.4,0.2-0.7,0.4-0.8c0.3-0.1,0.3-0.3,0.2-0.6c-0.1-0.2-0.5-0.6-1.1-1.1c-0.4-0.3-0.6-0.5-0.7-0.5c-0.1,0-0.3,0.2-0.6,0.5
	c0,0-0.1,0.1-0.1,0.1c-0.2,0.3-0.4,0.5-0.6,0.5c-0.2,0-0.8,0.1-1.7,0.1c-0.2,0-0.3,0-0.4,0c-0.1,0-0.3,0-0.5,0c-0.8,0-1.4,0-1.6,0
	s-0.6-0.2-1.1-0.4c-0.1,0-0.2-0.1-0.3-0.1c-0.5-0.2-0.8-0.3-0.9-0.4c-0.1,0-0.1,0-0.1,0.2c0.1,0.8,0.2,2.1,0.2,3.8
	c0,1.8,0,3.3-0.1,4.6c0,0.6,0,1,0,1.1c0.1,0.1,0.3,0.2,0.6,0.1c0.4,0,0.8-0.1,1-0.3c0.3-0.2,0.4-0.4,0.4-0.6c0-0.2,0-0.4,0.1-0.5
	c0.1-0.1,0.3-0.2,0.6-0.2c0.2,0,0.8,0,1.6,0c0.8,0,1.4,0,1.6,0c0.3,0,0.5,0.1,0.6,0.2c0.1,0.1,0.1,0.3,0,0.6c0,0.3,0.1,0.5,0.2,0.6
	c0.2,0,0.5,0,1-0.1c0.3-0.1,0.6-0.2,0.7-0.2c0.1,0,0.1,0,0.1,0.1c0,0.1,0,0.1,0.1,0.2s0.2,0.1,0.5,0.1c0.5,0.1,0.9,0.3,1.2,0.6
	c0.3,0.3,0.4,0.7,0.5,1.2C149.8,45.6,149.9,45.7,149.9,45.8z M145.3,41.4c-0.1,0.1-0.8,0.1-2,0.1c-1.2,0-1.9-0.1-2-0.1
	c-0.3-0.1-0.4-0.6-0.4-1.3c0-0.8,0.1-1.2,0.4-1.3c0.1-0.1,0.8-0.1,2-0.1c1.2,0,1.9,0,2,0.1c0.3,0.1,0.4,0.6,0.4,1.3
	C145.6,40.9,145.5,41.3,145.3,41.4z M142.9,38.1c-0.8,0-1.2,0-1.4,0c-0.3,0-0.5-0.1-0.5-0.3c0-0.1-0.1-0.4-0.1-0.8
	c0-0.1,0-0.1,0-0.2c0,0,0-0.1,0-0.2c0-0.4,0-0.7,0.1-0.8c0.1-0.2,0.2-0.3,0.5-0.3c0.2,0,0.7,0,1.4,0c0.1,0,0.3,0,0.3,0s0.2,0,0.3,0
	c0.8,0,1.2,0,1.4,0c0.3,0,0.5,0.1,0.5,0.3c0,0.1,0.1,0.4,0.1,0.8c0,0.1,0,0.1,0,0.2c0,0.5,0,0.8,0,1c0,0.1-0.1,0.2-0.3,0.3
	c-0.1,0-0.8,0.1-2,0.1C143.2,38.1,143.1,38.1,142.9,38.1z M138,31.4c-0.7,0-1.2,0-1.3,0c-0.3,0-0.4-0.1-0.5-0.3
	c0-0.1-0.1-0.4-0.1-0.8c0,0,0-0.1,0-0.1c0,0,0-0.1,0-0.1c0-0.4,0-0.6,0.1-0.7c0-0.1,0.2-0.2,0.5-0.3c0.2,0,0.6,0,1.2,0
	c0.1,0,0.2,0,0.2,0s0.1,0,0.2,0c0.7,0,1.1,0,1.2,0c0.3,0,0.4,0.1,0.5,0.3c0,0.1,0.1,0.3,0.1,0.7c0,0.1,0,0.1,0,0.1
	c0,0.4,0,0.7-0.1,0.8c0,0.1-0.1,0.2-0.3,0.3c-0.1,0.1-0.7,0.1-1.7,0.1C138,31.4,138,31.4,138,31.4z M148.4,31.4c-0.7,0-1.2,0-1.4,0
	c-0.3,0-0.4-0.1-0.5-0.3c0-0.1-0.1-0.4-0.1-0.8c0,0,0-0.1,0-0.1c0,0,0-0.1,0-0.1c0-0.4,0-0.6,0.1-0.7c0.1-0.1,0.2-0.2,0.5-0.3
	c0.2,0,0.6,0,1.3,0c0.1,0,0.2,0,0.2,0s0.1,0,0.2,0c0.7,0,1.1,0,1.3,0c0.3,0,0.4,0.1,0.5,0.3c0,0.1,0.1,0.3,0.1,0.7
	c0,0.1,0,0.1,0,0.1c0,0.4,0,0.7-0.1,0.8c0,0.1-0.1,0.2-0.3,0.3c-0.1,0.1-0.7,0.1-1.8,0.1C148.4,31.4,148.4,31.4,148.4,31.4z
	 M138.1,28.3c-1,0-1.6,0-1.7-0.1c-0.2-0.1-0.3-0.5-0.3-1.1c0-0.6,0.1-0.9,0.4-1.1c0.1-0.1,0.7-0.1,1.7-0.1s1.6,0,1.7,0.1
	c0.2,0.1,0.4,0.5,0.4,1.1c0,0.6-0.1,1-0.3,1.1C139.7,28.3,139.1,28.3,138.1,28.3z M148.5,28.3c-1.1,0-1.7,0-1.8-0.1
	c-0.2-0.1-0.3-0.5-0.3-1.1c0-0.6,0.1-0.9,0.4-1.1c0.1-0.1,0.7-0.1,1.8-0.1s1.6,0,1.8,0.1c0.2,0.1,0.4,0.5,0.4,1.1
	c0,0.6-0.1,1-0.3,1.1C150.1,28.3,149.5,28.3,148.5,28.3z M173.5,45.8c0.3,0.1,0.8,0,1.5-0.3c0,0,0.1,0,0.1,0
	c0.2-0.1,0.3-0.2,0.3-0.3c0-0.1,0-0.5,0-1.2c0-0.1,0-0.2,0-0.2c-0.1-1.6-0.1-2.7-0.1-3.3c0-0.7,0.1-1,0.2-1c0.1,0,0.4,0.3,0.7,0.8
	c1,1.8,2.2,3.2,3.7,4.2c0.2,0.2,0.4,0.2,0.4,0.2c0,0,0.1-0.1,0.2-0.3c0.1-0.3,0.3-0.6,0.6-1s0.5-0.5,0.7-0.6
	c0.2-0.1,0.3-0.2,0.3-0.2c0-0.1-0.1-0.2-0.3-0.2c-1.1-0.4-2.3-1-3.6-1.8c-1.3-0.9-1.8-1.5-1.7-1.8c0.1-0.1,0.2-0.2,0.4-0.2
	s1,0,2.3,0c1.2,0,2-0.1,2.3-0.1c0.4-0.1,0.5-0.2,0.3-0.5c-0.1-0.2-0.6-0.6-1.4-1.3c-0.4-0.3-0.6-0.4-0.7-0.4c-0.1,0-0.4,0.3-0.7,0.7
	c0,0,0,0.1-0.1,0.1c-0.3,0.4-0.5,0.6-0.7,0.7c-0.1,0.1-0.5,0.1-1.1,0.1c-0.1,0-0.1,0-0.2,0c-0.6,0-1,0-1.2,0c-0.2,0-0.3-0.1-0.3-0.3
	c-0.1-0.2-0.1-0.4,0-0.7c0.1-0.3,0.2-0.5,0.3-0.5c0.1,0,0.2-0.1,0.3-0.2c0.1-0.1,0.3-0.3,0.5-0.4c0.2-0.1,0.3-0.2,0.4-0.3
	c0.1-0.3,0.6-0.4,1.3-0.4c0.7,0,1.1,0.2,1.1,0.5c0,0.1,0.2,0.2,0.5,0.2c0.3,0,0.6-0.1,1-0.3c0.3-0.1,0.4-0.2,0.4-0.3
	c0-0.1,0.1-0.4,0-0.8c0-0.5,0-1,0-1.5c0-0.5,0-0.8,0.1-1c0.1-0.1,0.2-0.3,0.5-0.5c0.2-0.1,0.2-0.2,0.1-0.4c-0.1-0.2-0.3-0.4-0.7-0.7
	c-0.5-0.4-0.8-0.5-0.9-0.6c-0.1,0-0.3,0.1-0.6,0.3c-0.3,0.3-0.5,0.4-0.6,0.5c-0.1,0-0.5,0.1-0.9,0.1c-0.4,0-0.8,0-1-0.1
	c-0.2,0-0.6-0.2-1.2-0.5c0,0-0.1,0-0.1,0l0,0c-0.4-0.2-0.6-0.2-0.7-0.2c0,0-0.1,0.2,0,0.4v0c0.2,1.6,0.3,2.9,0.2,3.9
	c0,1-0.1,1.5-0.3,1.6c-0.3,0.1-0.6,0.1-0.9,0c-0.3-0.1-0.4-0.3-0.2-0.5c0-0.1,0.1-0.2,0.1-0.3c0-0.1,0-0.5,0-1.2c0-0.8,0-1.4,0-1.8
	s0.2-0.5,0.3-0.5c0.3,0,0.4-0.1,0.2-0.4c-0.1-0.3-0.5-0.6-1-1c-0.3-0.3-0.6-0.4-0.7-0.3c-0.1,0-0.4,0.2-0.7,0.6
	c-0.2,0.3-0.6,0.4-1.2,0.5c-0.6,0-1.1-0.1-1.7-0.4c-0.3-0.2-0.5-0.3-0.5-0.4c0-0.1,0-0.2,0.2-0.3c0.4-0.3,0.1-0.9-1-1.8
	c-0.3-0.3-0.5-0.4-0.6-0.4c-0.1,0-0.2,0.2-0.5,0.5c-0.3,0.4-0.5,0.6-0.6,0.7c-0.1,0.1-0.2,0.1-0.4,0c-0.2-0.2-0.2-0.8-0.2-1.9
	c0.1-1.1,0.2-1.7,0.4-1.9c0.2-0.2,0.2-0.3-0.1-0.5c-0.3-0.2-0.9-0.4-1.9-0.6c0,0,0,0-0.1,0c-0.3-0.1-0.5-0.1-0.6,0c0,0,0,0.2,0,0.6
	c0,0,0,0.1,0,0.1c0.1,0.9,0.2,1.8,0.2,2.7c0,1,0,1.5-0.1,1.6c-0.1,0.2-0.3,0.3-0.6,0.3c-0.3,0-0.9,0-1.7-0.1c0,0,0,0-0.1,0
	c-0.3,0-0.4,0-0.5,0c0,0,0,0.2,0.2,0.4c0,0,0,0.1,0,0.1s0,0,0,0.1c0.1,0.2,0.2,0.4,0.2,0.4c0.1,0,0.2,0,0.5-0.1c0,0,0.1,0,0.1,0
	c0.6-0.2,1.1-0.2,1.3-0.2c0.3,0.1,0.5,0.3,0.6,0.7c0.1,0.3,0.1,1,0.1,1.9c0,0.1,0,0.3,0,0.4c0,0.7,0,1.2-0.1,1.4
	c-0.1,0.3-0.2,0.5-0.6,0.6c-0.2,0.1-0.7,0.2-1.5,0.4c-0.2,0-0.4,0.1-0.5,0.1l0,0c-0.2,0-0.3,0.1-0.3,0.2s0.1,0.4,0.3,1
	c0,0.1,0.1,0.1,0.1,0.2c0.3,0.7,0.4,1.2,0.5,1.2c0.1,0.1,0.2,0,0.3-0.2c0.2-0.3,0.5-0.6,0.9-0.8c0.4-0.2,0.7-0.2,0.8,0
	c0.1,0.1,0.1,1,0.1,2.9c0,1.8,0,2.8,0,3.1c-0.1,0.3-0.2,0.4-0.5,0.5c-0.2,0.1-0.7,0.1-1.5,0c-0.5,0-0.7,0-0.8,0c0,0-0.1,0.1,0,0.2
	c0,0,0.1,0.1,0.2,0.1c0.6,0.1,1,0.3,1.3,0.6c0.3,0.3,0.5,0.7,0.6,1.3c0,0.2,0.1,0.2,0.1,0.3c0.1,0.1,0.4,0.1,1-0.1
	c0.6-0.2,0.9-0.4,1.2-0.6c0.2-0.2,0.3-0.4,0.4-0.6c0.1-0.3,0.1-0.7,0.1-1.4c0-0.5,0-1.6,0-3.4c0-0.3,0-0.8,0-1.3c0-1.2,0-2,0-2.4
	c0-0.5,0.1-0.8,0.2-1c0.1-0.1,0.3-0.3,0.7-0.6c0.1-0.1,0.3-0.2,0.3-0.2c0.6-0.4,0.9-0.5,1-0.4c0.1,0.1,0.1,0.7,0.1,1.6
	c0,0.4,0,0.6,0,0.7c0.1,0.1,0.2,0.1,0.5,0.1c0.3,0,0.6-0.1,0.9-0.2c0.3-0.1,0.4-0.3,0.5-0.4c0.1-0.3,0.4-0.5,0.9-0.5
	c0.5,0,0.8,0,1,0.1c0.2,0.1,0.3,0.2,0.3,0.4c0,0.1,0.1,0.2,0.2,0.2c0.1,0,0.4,0,0.8,0c0.2,0,0.4,0,0.4,0.1s0,0.3,0,0.8
	c0,0.1,0,0.1,0,0.1c0,0.1,0,0.2,0,0.3c0,0.3,0,0.6-0.1,0.6c-0.1,0.1-0.3,0.2-0.5,0.2c-0.2,0-0.7,0-1.4,0c-0.2,0-0.4,0-0.5,0
	c-1.5,0-2.4,0-2.9-0.1c0,0,0,0-0.1,0c-0.4,0-0.6,0-0.6,0c0,0,0,0.2,0.2,0.5c0,0,0,0,0,0.1c0.1,0.3,0.2,0.4,0.3,0.4
	c0.1,0,0.3,0,0.6,0c0,0,0.1,0,0.1,0c0.9-0.2,1.6-0.2,2.2-0.2c0.6,0,1,0.1,1,0.3c0.2,0.3-0.3,1.1-1.4,2.4c-1.1,1.3-2.2,2.3-3.3,3.1
	c-0.2,0.1-0.3,0.2-0.4,0.3c0,0,0,0.1,0,0.2c0.1,0.1,0.2,0.1,0.3,0c0.1,0,0.5-0.2,1-0.5c1.6-0.8,3.1-1.8,4.6-3.1
	c0.4-0.4,0.7-0.3,0.8,0.2c0.1,0.5,0.1,1.6,0,3.3C173.1,45.4,173.2,45.7,173.5,45.8z M178.9,34.3c-0.2,0.1-0.6,0.1-1.1,0.1
	c-0.5-0.1-0.7-0.2-0.8-0.3c-0.1-0.1-0.1-0.5-0.1-1.2c0-0.7,0.1-1.1,0.1-1.2c0.2-0.2,0.5-0.3,1.1-0.3c0.5,0,0.9,0.1,1.1,0.3
	c0.1,0.2,0.2,0.7,0.1,1.4C179.2,33.8,179.1,34.2,178.9,34.3z M170.7,34.3c-0.4,0-0.7,0-0.8-0.1c-0.2-0.1-0.3-0.5-0.3-1.2
	c0-0.7,0-1.2,0.1-1.4c0.2-0.2,0.5-0.3,1-0.3c0.5,0,0.8,0.1,1,0.3c0.1,0.2,0.2,0.6,0.1,1.4c0,0.7-0.1,1.1-0.3,1.2
	C171.4,34.3,171.2,34.3,170.7,34.3z M166.9,33.3c-0.5,0.2-0.9,0.3-1,0.2c-0.2,0-0.3-0.2-0.4-0.4c0-0.2-0.1-0.7-0.1-1.5
	c0-0.7,0-1.2,0-1.4c0-0.3,0.1-0.5,0.3-0.5c0.1,0,0.4-0.1,0.8-0.1h0c0,0,0.1,0,0.1,0c0.5,0,0.8,0.1,0.9,0.2c0.1,0.1,0.2,0.5,0.2,1.1
	c0,0.1,0,0.1,0,0.1c0.1,1,0.1,1.6,0,1.8C167.7,33,167.4,33.1,166.9,33.3z M170.4,29.6c0.1,0.1,0.4,0.1,0.8,0
	c0.5-0.1,0.8-0.3,1.1-0.5c0.2-0.1,0.4-0.2,0.6-0.2c0.2,0,0.7,0,1.6,0c0.9,0,1.5,0,1.7,0.1c0.2,0,0.4,0.1,0.4,0.3
	c0,0.2,0.2,0.2,0.6,0.2c0.4-0.1,0.8-0.2,1.2-0.4c0.2-0.1,0.3-0.2,0.3-0.3c0-0.1,0-0.4,0-1c0-0.1,0-0.1,0-0.2c0-0.8,0-1.2,0-1.5
	c0-0.2,0.2-0.4,0.3-0.5c0.3-0.2,0.4-0.3,0.3-0.5c-0.1-0.2-0.4-0.5-1-1c-0.4-0.3-0.7-0.5-0.8-0.5c-0.1,0-0.3,0.1-0.5,0.4
	c0,0,0,0.1-0.1,0.1c-0.3,0.4-0.5,0.6-0.7,0.6c-0.2,0.1-0.7,0.1-1.5,0.1c-0.1,0-0.2,0-0.3,0c-0.1,0-0.2,0-0.4,0c-0.7,0-1.1,0-1.3,0
	c-0.2,0-0.6-0.2-1.1-0.4c-0.1,0-0.2-0.1-0.3-0.1c0,0-0.1,0-0.1,0c-0.5-0.2-0.7-0.3-0.8-0.3c-0.1,0-0.1,0.2-0.1,0.5
	c0,0.1,0,0.1,0,0.1c0,0.7,0.1,1.7,0.1,2.9C170.3,28.8,170.4,29.6,170.4,29.6z M174.5,28.2c-1.1,0-1.7,0-1.8-0.1
	c-0.2-0.1-0.3-0.6-0.3-1.3s0.1-1.2,0.3-1.3c0.1-0.1,0.7-0.1,1.8-0.1c1.1,0,1.7,0.1,1.8,0.1c0.2,0.1,0.3,0.5,0.3,1.2
	c0,0.7-0.1,1.1-0.2,1.3C176.2,28.1,175.6,28.2,174.5,28.2z M191.5,45.8c0.2,0.1,0.6,0.1,1.1-0.1c0.5-0.1,0.9-0.3,1.1-0.6
	c0-0.1,0.1-0.1,0.1-0.2c0-0.1,0-0.4,0-0.8c-0.1-2-0.1-4.8-0.1-8.5c0-0.1,0-0.4,0-0.6c0-1.5,0-2.4,0-2.7c0-0.3,0.1-0.5,0.3-0.6l0,0
	c0.1-0.1,0.2-0.2,0.1-0.2c0-0.1-0.1-0.2-0.3-0.4c-0.3-0.3-0.4-0.5-0.4-0.7c0-0.2,0.2-0.6,0.6-1.2c0.6-1.1,1-2.1,1.5-3.1
	c0.3-0.6,0.5-1,0.8-1.1c0.3-0.1,0.3-0.2,0-0.4c-0.2-0.1-0.6-0.3-1.4-0.6s-1.2-0.4-1.4-0.5c-0.1,0-0.1,0-0.1,0c0,0,0,0.2-0.1,0.4
	c0,0.1,0,0.1,0,0.2c-0.2,1.6-0.8,3.5-1.7,5.7c-0.9,2.2-2,4.1-3.1,5.8c-0.3,0.4-0.3,0.6,0,0.6c0,0,0.3-0.2,0.6-0.5
	c0.4-0.4,0.7-0.7,1-0.9c0.5-0.6,0.9-0.9,1-1c0.1-0.1,0.2-0.1,0.3,0c0.1,0.1,0.2,1.5,0.1,4.2c0,2.7-0.1,4.8-0.2,6.5
	c0,0.7-0.1,1,0,1.2C191.3,45.6,191.4,45.7,191.5,45.8z M200.8,45.8c0.2,0,0.4,0,0.7,0c0.4-0.1,0.6-0.2,0.9-0.3c0,0,0,0,0.1,0
	c0.2-0.1,0.3-0.2,0.3-0.4c0-0.1,0-0.5,0-1.2c0-0.1,0-0.2,0-0.2c-0.1-2.4-0.1-3.7,0-3.9c0-0.1,0.2-0.2,0.5-0.2c0.3,0,1.2-0.1,2.7-0.1
	c1.6,0,2.5,0,2.8,0c0.3,0,0.4-0.1,0.5-0.3c0.1-0.3-0.4-0.8-1.4-1.6c0,0,0,0-0.1-0.1c-0.4-0.3-0.7-0.5-0.8-0.4
	c-0.1,0-0.3,0.2-0.6,0.7l0,0c0,0,0,0.1-0.1,0.1c-0.3,0.4-0.6,0.6-0.7,0.7c-0.1,0.1-0.5,0.1-1.1,0.1c0,0-0.1,0-0.1,0
	c-0.1,0-0.2,0-0.3,0c-0.5,0-0.8,0-0.9-0.1c-0.2-0.1-0.3-0.2-0.3-0.5c0-0.2,0-0.6,0-1.3c0-0.2,0-0.3,0-0.4c0-0.2,0-0.4,0-0.7
	c0-0.6,0-1,0-1.1c0.1-0.2,0.3-0.3,0.6-0.4c0.2,0,0.7,0,1.5,0c0.4,0,0.7,0,1,0c1.1,0,1.8,0,2.1,0c0.4,0,0.7,0,0.8-0.1
	c0.1,0,0.1-0.1,0.1-0.2s-0.2-0.4-0.7-0.9c-0.5-0.5-0.9-0.8-1.2-1c-0.2-0.1-0.3-0.1-0.4,0c-0.1,0-0.3,0.3-0.6,0.7v0
	c-0.3,0.4-0.6,0.7-0.7,0.8c-0.1,0.1-0.5,0.1-1.1,0.1c-0.1,0-0.1,0-0.2,0c-0.4,0-0.7,0-0.8-0.1c-0.2,0-0.3-0.2-0.3-0.5
	c0-0.2,0-0.6,0-1.2c0-0.2,0-0.3,0-0.4c0-0.2,0-0.4,0-0.6c0-0.6,0-1,0.1-1.1c0.1-0.2,0.3-0.4,0.6-0.4c0.3,0,0.9-0.1,1.8,0
	c0.4,0,0.8,0,1,0c1.6,0,2.6,0,2.9,0c0.3,0,0.5-0.1,0.6-0.2c0.1-0.2-0.3-0.7-1.3-1.5c0,0-0.1,0-0.1-0.1c-0.4-0.4-0.7-0.5-0.9-0.5
	c-0.1,0-0.4,0.2-0.7,0.7c0,0.1-0.1,0.1-0.1,0.2c0,0-0.1,0.1-0.2,0.2c-0.2,0.3-0.4,0.5-0.7,0.6c-0.2,0-0.8,0.1-1.9,0.1
	c-0.4,0-0.6,0-0.8,0c-1.4,0-2.3,0-2.5,0c-0.2,0-0.4-0.1-0.4-0.2c-0.1-0.2,0.1-0.8,0.6-1.8c0.5-1,0.9-1.5,1.1-1.5
	c0.6-0.1,0-0.5-1.8-1.2c-0.1,0-0.2-0.1-0.3-0.1c-0.4-0.1-0.6-0.2-0.7-0.2c-0.1,0-0.1,0.2-0.2,0.5c0,0.1,0,0.2,0,0.2
	c-0.3,1.5-0.8,3.2-1.6,4.9c-0.7,1.7-1.6,3.3-2.5,4.8c-0.2,0.3-0.3,0.5-0.3,0.6c0,0.1,0,0.1,0.1,0.2c0.2,0,0.8-0.5,1.7-1.6
	c1-1.1,1.8-2.1,2.5-3.1c0.4-0.5,0.7-0.8,1-0.9c0.3-0.1,0.6,0.1,0.6,0.5c0.1,0.3,0.1,2.4,0,6.2c0,3.8-0.1,6.5-0.2,7.9
	c0,0.9-0.1,1.4,0,1.6C200.5,45.6,200.6,45.8,200.8,45.8z M218.7,45.8c0,0,0.1,0.1,0.2,0c0,0,0.1,0,0.2,0c0.1,0,0.1,0,0.2,0
	c1-0.2,1.6-0.6,1.9-1.2c0.1-0.2,0.2-0.5,0.2-1c0-0.4,0-1.8,0-4v0c0-0.4,0-1,0-1.6c0-1.2,0-1.9,0-2.3c0-0.4,0.1-0.8,0.3-1
	c0.1-0.2,0.4-0.4,0.8-0.7c0.3-0.2,0.5-0.3,0.6-0.4c0.4-0.3,0.6-0.5,0.7-0.6s0.1-0.1,0-0.2c0-0.1-0.4,0-0.9,0.2
	c-0.6,0.2-1,0.3-1.1,0.3c-0.2,0-0.4-0.1-0.4-0.4c0-0.2,0-0.6,0-1.4c0-0.1,0-0.2,0-0.3c0-0.7,0.1-1.2,0.2-1.3
	c0.1-0.1,0.6-0.2,1.3-0.2c0.1,0,0.2,0,0.3,0c1,0,1.6-0.1,1.6-0.3c0.1-0.2-0.2-0.6-0.8-1.2c-0.5-0.5-0.8-0.7-0.9-0.7
	c-0.1,0-0.3,0.2-0.6,0.6c-0.4,0.6-0.7,0.8-0.8,0.6c-0.1-0.2-0.2-0.9-0.1-2.2c0-0.8,0-1.2,0.1-1.4c0-0.2,0.1-0.4,0.3-0.5
	c0.2-0.2,0.2-0.3-0.1-0.5c-0.3-0.2-0.9-0.4-1.9-0.6c0,0,0,0-0.1,0c-0.3-0.1-0.5-0.1-0.6,0c0,0,0,0.2,0,0.6c0,0,0,0.1,0,0.1
	c0.1,0.9,0.2,1.9,0.2,2.9c0,1,0,1.6-0.1,1.8c-0.1,0.2-0.3,0.3-0.7,0.3c-0.3,0-0.9,0-1.8-0.1c0,0,0,0-0.1,0c-0.3,0-0.5,0-0.5,0
	c0,0,0,0.2,0.1,0.4c0,0,0,0.1,0,0.1c0,0,0,0,0,0.1c0.1,0.3,0.2,0.4,0.3,0.4c0.1,0,0.2,0,0.4,0c0,0,0.1,0,0.1,0
	c0.6-0.2,1.1-0.2,1.5-0.2c0.4,0,0.6,0.2,0.7,0.4c0.1,0.2,0.1,0.8,0.1,2c0,1.1-0.1,1.7-0.1,1.8c-0.2,0.3-1.1,0.6-2.8,1.1
	c0,0-0.1,0-0.1,0c-0.2,0.1-0.4,0.2-0.4,0.3c0,0.1,0.1,0.4,0.3,0.9c0,0.1,0.1,0.2,0.1,0.3c0,0,0,0.1,0.1,0.2c0.2,0.6,0.4,1,0.5,1
	c0.1,0,0.2-0.1,0.5-0.4c0,0,0-0.1,0-0.1c0.2-0.2,0.4-0.4,0.9-0.6c0.4-0.3,0.7-0.4,0.8-0.3c0.1,0,0.2,0.2,0.2,0.5c0,0.3,0,1.1,0,2.6
	c0,0.2,0,0.4,0,0.7c0,1.1,0,1.8,0,2.1c-0.1,0.4-0.2,0.7-0.4,0.8c-0.2,0.1-0.5,0.1-1.2,0c-0.2,0-0.3,0-0.4,0c-0.4,0-0.6,0-0.7,0
	s-0.1,0.1-0.1,0.2c0,0.1,0.2,0.1,0.4,0.2c0.5,0.1,0.9,0.3,1.1,0.6c0.3,0.3,0.4,0.7,0.5,1.2C218.6,45.6,218.6,45.7,218.7,45.8z
	 M223.1,45.7c0.1,0.1,0.1,0.1,0.2,0.1c0,0,0.2-0.1,0.4-0.2c1.8-1.1,3.2-2.4,4.2-3.9c1-1.5,1.7-3.3,2-5.5c0-0.1,0-0.2,0-0.3
	c0.1-0.6,0.2-0.9,0.3-1c0.1-0.1,0.5-0.2,1.2-0.2c0.1,0,0.2,0,0.3,0c0.1,0,0.2,0,0.3,0c0.6,0,0.9,0,1.1,0.1c0.2,0.1,0.3,0.3,0.4,0.7
	c0,0.3,0,0.9-0.1,1.9c0,0.2,0,0.4,0,0.5c-0.1,1.8-0.3,3.1-0.4,3.7c-0.2,0.8-0.4,1.3-0.8,1.5c-0.3,0.2-1,0.2-1.9,0.1
	c-0.6,0-1-0.1-1.1,0c-0.1,0-0.2,0-0.1,0.1c0,0.1,0.2,0.2,0.5,0.3c1.2,0.4,1.8,1,1.8,1.8c0,0.2,0,0.3,0.1,0.3c0.1,0,0.2,0,0.5,0
	c0.9-0.1,1.6-0.4,2.1-0.9c0.5-0.5,0.9-1.4,1.1-2.7c0.2-1.2,0.4-3,0.5-5.5c0-0.7,0.1-1.1,0.1-1.2c0.1-0.2,0.2-0.3,0.5-0.4
	c0.2-0.1,0.3-0.2,0.2-0.4s-0.3-0.4-0.6-0.8c-0.5-0.5-0.8-0.7-1.1-0.8c-0.2,0-0.5,0.1-0.8,0.4c0,0-0.1,0.1-0.2,0.2
	c-0.2,0.3-0.5,0.4-0.8,0.5c-0.3,0-1.1,0.1-2.5,0c-0.3,0-0.5,0-0.7,0c-2.5,0-4.1,0-4.6-0.1c-0.1,0-0.2,0-0.2,0.1c0,0,0.1,0.2,0.2,0.4
	c0.2,0.3,0.3,0.5,0.3,0.6c0.1,0,0.2,0,0.3,0c1.3-0.4,2-0.3,2,0.5c0,1.7-0.4,3.4-1.1,5.1c-0.7,1.6-1.6,3.1-2.9,4.3
	c-0.5,0.5-0.7,0.7-0.7,0.7C223,45.6,223.1,45.6,223.1,45.7z M223.5,34.5c0.1,0.1,0.3,0,0.6-0.2c0.2-0.1,0.4-0.3,0.6-0.4
	c0.2-0.1,0.3-0.2,0.5-0.4l0,0c0.3-0.3,0.5-0.6,0.6-0.7c1.1-1.1,2-2.6,2.8-4.4c0.2-0.5,0.4-0.8,0.7-0.9c0.4-0.2,0.3-0.4-0.5-0.6
	c-0.1,0-0.3-0.1-0.7-0.2c-0.5-0.2-0.8-0.3-1.1-0.4c-0.2-0.1-0.4-0.1-0.4-0.1c0,0-0.1,0.1-0.1,0.3c-0.1,1.1-0.4,2.4-0.9,3.7
	c-0.5,1.4-1,2.3-1.4,2.8c-0.2,0.2-0.4,0.4-0.4,0.6c0,0.2-0.1,0.4-0.2,0.5C223.4,34.3,223.4,34.4,223.5,34.5z M236.2,33.5
	c0,0,0.1-0.1,0.2-0.2c0.1-0.3,0.3-0.6,0.6-0.8c0.3-0.3,0.6-0.5,0.8-0.7c0.2-0.1,0.3-0.2,0.3-0.3c0-0.1-0.2-0.2-0.5-0.4
	c-0.9-0.5-1.7-1.2-2.4-2c-0.7-0.8-1.3-1.7-1.7-2.5c-0.1-0.3-0.2-0.5-0.1-0.6c0.1-0.1,0.3-0.3,0.6-0.3c0.6-0.2,0.9-0.3,0.8-0.5
	c0,0-0.3-0.2-0.9-0.6c-0.5-0.4-0.8-0.6-0.9-0.6c0,0-0.1,0-0.1,0c0,0-0.1,0.2-0.2,0.4c0,0-0.1,0.1-0.1,0.1c-0.2,0.3-0.7,0.5-1.3,0.6
	c-0.7,0.1-1.7,0-3.1-0.1c-0.4,0-0.6,0-0.6,0c0,0,0,0.2,0.2,0.5c0,0,0,0,0,0.1c0.1,0.2,0.2,0.4,0.3,0.4c0.1,0,0.3,0,0.6,0
	c0.1,0,0.1,0,0.2,0c1.3-0.2,2.3-0.3,3-0.2c0.7,0.1,1.1,0.3,1.1,0.6c0,0.9,0.4,2.1,1.1,3.6c0.7,1.6,1.4,2.7,2.1,3.3
	C236,33.4,236.2,33.5,236.2,33.5z M246.8,45.8c0.2,0.1,0.5,0,0.9-0.1c0.4-0.1,0.7-0.3,1-0.5c0.1-0.1,0.1-0.2,0.1-0.3
	c0-0.1,0-0.5,0-1.2c0-0.9-0.1-3-0.1-6.3c0-3.3,0-5,0-5.1c0-0.2,0.2-0.4,0.4-0.5c0.1-0.1,0.1-0.2,0-0.2c0-0.1-0.2-0.3-0.4-0.5
	c-0.3-0.3-0.4-0.5-0.4-0.6s0.2-0.5,0.5-1.1l0,0c0.5-1.1,1-2.2,1.4-3.1c0.2-0.5,0.4-0.8,0.5-1c0.1-0.2,0.2-0.3,0.4-0.3
	c0.3-0.1,0.3-0.2,0-0.4c-0.3-0.2-0.9-0.4-1.9-0.8c-0.4-0.2-0.7-0.2-0.8-0.3c-0.1,0-0.1,0.1-0.2,0.2c-0.2,1.7-0.7,3.6-1.4,5.6
	c-0.7,2-1.6,3.9-2.7,5.6c-0.3,0.4-0.4,0.7-0.4,0.8c0,0.1,0.1,0.2,0.2,0.2c0.1,0,0.6-0.5,1.5-1.5c0.4-0.4,0.6-0.6,0.7-0.7
	c0.1-0.1,0.2,0,0.3,0.2c0.1,0.2,0.1,1.6,0,4.3c0,2.7-0.1,4.7-0.2,6c0,0.6-0.1,1-0.1,1.2c0,0.1,0,0.2,0.1,0.3
	C246.6,45.7,246.7,45.8,246.8,45.8z M251.3,45.3c0.2,0.1,0.5,0.1,0.9,0s0.7-0.3,1-0.5c0.1-0.1,0.1-0.2,0.1-0.2c0-0.1,0-0.3,0-0.6
	c0-0.1,0-0.1,0-0.2c0-0.3,0-0.4,0.1-0.5c0.1-0.1,0.4-0.2,0.9-0.2c0.3,0,1.1,0,2.4,0c0.5,0,0.8,0,1.1,0c0.2,0,0.5,0,1,0
	c1.3,0,2.1,0,2.5,0c0.5,0,0.8,0.1,0.9,0.2c0.1,0.1,0.1,0.3,0.1,0.6c0,0.1,0,0.2,0,0.3c0,0.5,0.1,0.9,0.5,0.9c0.3,0.1,0.8,0,1.5-0.4
	c0,0,0,0,0.1,0c0.2-0.1,0.3-0.3,0.3-0.4c0-0.1,0-0.6,0-1.3c0-0.1,0-0.2,0-0.3c0-1.2-0.1-3.4-0.1-6.8c0-0.2,0-0.6,0-1
	c0-2.2,0-3.5,0-3.9c0-0.4,0.1-0.6,0.2-0.7l0.1,0c0.2-0.1,0.2-0.3-0.2-0.5c-0.3-0.2-1-0.4-2-0.6c0,0,0,0-0.1,0
	c-0.3-0.1-0.5-0.1-0.5-0.1c0,0-0.1,0.2,0,0.4v0.1c0.1,0.7,0.1,1.4,0.2,2.1c0,0.8,0,2.4,0,5c0,0.3,0,0.7,0,1.2c0,2.2,0,3.5,0,3.8
	c0,0.4-0.1,0.6-0.2,0.6l0,0c-0.1,0-0.6,0.1-1.4,0.1c-0.8,0-1.3,0-1.4-0.1l0,0c-0.1,0-0.2-0.1-0.2-0.3c0-0.2-0.1-0.8-0.1-1.7
	c0-0.6,0-2.2,0-4.6c0-0.8,0-1.3,0-1.8c0-0.4,0-0.8,0-1.5c0-2.5,0-4.1,0-4.8c0-0.9,0-1.6,0.1-1.8c0-0.2,0.1-0.3,0.2-0.4
	c0,0,0.1-0.1,0.1-0.1c0.2-0.2,0.2-0.4-0.1-0.5c-0.2-0.1-0.9-0.3-1.9-0.6c0,0-0.1,0-0.2,0c-0.3-0.1-0.5-0.1-0.6,0c0,0-0.1,0.2,0,0.6
	c0,0.1,0,0.2,0,0.2c0.1,0.8,0.1,1.8,0.1,2.8c0,1.1,0,3.4,0,6.9c0,0.7,0,1.5,0,2.6c0,1.9,0,3.2,0,3.7c0,0.7-0.1,1.2-0.3,1.3
	c-0.1,0.1-0.4,0.2-0.8,0.1c-0.2,0-0.4,0-0.6,0c-0.1,0-0.3,0-0.5,0c-0.4,0-0.7,0-0.8-0.1c-0.2-0.1-0.3-0.5-0.3-1.1c0-0.4,0-1.4,0-3
	c0-0.8,0-1.4,0-1.9c0-0.4,0-0.9,0-1.6c0-2,0-3.2,0-3.6c0-0.4,0.1-0.6,0.3-0.7c0,0,0.1-0.1,0.1-0.1c0.2-0.2,0.2-0.3,0-0.5
	c-0.2-0.1-0.8-0.4-1.8-0.6c-0.4-0.1-0.7-0.2-0.7-0.1c-0.1,0-0.1,0.1-0.1,0.3c0.1,0.6,0.2,1.3,0.2,2c0,0.7,0,2.1,0,4.3
	c0,3.7,0,6.4-0.1,8.3c0,0.6-0.1,1,0,1.2C251.1,45.2,251.1,45.3,251.3,45.3z M277.1,45.9c0.1,0.1,0.5-0.1,1.2-0.6
	c0.7-0.5,1.3-1,1.8-1.5c0.4-0.4,0.9-1,1.5-1.8c0.2-0.3,0.3-0.4,0.5-0.3c0.1,0,0.3,0.3,0.6,0.7c0.8,1.2,1.8,2,2.9,2.4
	c1.1,0.4,2.9,0.6,5.4,0.6c0.1,0,0.2,0,0.3,0c0.7,0,1.1,0,1.2,0c0.1,0,0.2-0.1,0.2-0.3c0-0.3,0.1-0.5,0.3-0.8
	c0.2-0.3,0.3-0.5,0.5-0.6c0.2-0.1,0.3-0.2,0.2-0.3c0,0-0.8-0.1-2.4-0.1c-0.2,0-0.3,0-0.4,0c-1.3,0-2.2,0-2.6,0
	c-0.4,0-0.7-0.1-0.9-0.2c-0.2-0.1-0.4-0.1-0.3-0.2c0-0.1,0.2-0.2,0.5-0.4c0.3-0.2,0.5-0.3,0.6-0.4c0.1-0.1,0.1-0.3,0.1-0.5
	c0,0,0-0.1,0-0.1c-0.1-0.7-0.1-1.1,0-1.3c0-0.3,0.2-0.4,0.5-0.5c0.2,0,0.8-0.1,1.6-0.1c0.1,0,0.1,0,0.2,0c0.9,0,1.5,0,1.8-0.1
	c0.3-0.1,0.4-0.2,0.3-0.4c-0.1-0.2-0.4-0.5-0.9-1c-0.4-0.4-0.7-0.6-0.9-0.6c-0.1,0-0.3,0.2-0.6,0.6c-0.2,0.4-0.4,0.6-0.6,0.7
	c-0.1,0.1-0.3,0.1-0.6,0.1c-0.4,0-0.6-0.1-0.7-0.2c-0.1-0.2-0.2-0.5-0.1-1.1c0,0,0-0.1,0-0.1c0-0.4,0-0.6,0.1-0.7
	c0.1-0.1,0.2-0.2,0.5-0.3c0.2,0,0.6,0,1.3,0c0,0,0.1,0,0.1,0c1.1,0,1.7-0.1,1.8-0.2c0.1-0.1-0.1-0.5-0.7-1.1
	c-0.4-0.4-0.7-0.7-0.9-0.7c-0.1,0-0.4,0.2-0.7,0.6c-0.5,0.7-0.9,0.9-1.3,0.6c-0.2-0.2-0.4-0.6-0.3-1.2c0-0.7,0.2-1,0.4-1.2
	c0.2-0.1,0.5-0.1,0.8,0c0.3,0.1,0.5,0.2,0.5,0.4c0,0.1,0.1,0.2,0.4,0.2c0.2,0,0.5-0.1,0.8-0.2c0.4-0.1,0.6-0.3,0.6-0.4
	c0.1-0.1,0.1-0.4,0-0.9c0-0.8-0.1-1.4,0-1.6c0-0.3,0.1-0.6,0.3-0.7c0.1-0.1,0.4-0.1,0.8-0.1s0.6,0,0.7-0.1c0.1,0,0.2-0.1,0.2-0.3
	c0-0.1-0.2-0.3-0.6-0.8c-0.4-0.5-0.6-0.7-0.6-0.7c0,0-0.1,0.1-0.2,0.2c-0.1,0.2-0.2,0.2-0.3,0.2c-0.1,0-0.2-0.1-0.2-0.3
	c-0.1-0.3-0.1-0.6,0-0.9s0.2-0.5,0.3-0.6c0.2-0.1,0.3-0.2,0.3-0.4c0-0.2-0.3-0.4-0.7-0.7c-0.4-0.4-0.8-0.6-0.9-0.6
	c-0.1,0-0.3,0.1-0.6,0.3c-0.5,0.6-1.1,0.8-1.6,0.5c-0.2-0.1-0.3-0.3-0.3-0.6c0-0.3,0.1-0.5,0.3-0.6c0.2-0.2,0.2-0.3,0-0.5
	c-0.2-0.2-0.8-0.4-1.6-0.6c0,0-0.1,0-0.1,0c-0.3-0.1-0.4-0.1-0.5,0c0,0-0.1,0.3,0,0.7c0,0.1,0,0.1,0,0.2c0,0.7,0,1.2-0.1,1.3
	c-0.1,0.2-0.4,0.2-0.9,0.2c-0.3,0-0.5,0-0.6,0c-0.1,0-0.1-0.1-0.2-0.1c-0.8-0.8-1.3-1.2-1.5-1.3c-0.3-0.1-0.5-0.1-0.7,0.1
	c-0.5,0.5-1.4,0.7-2.7,0.5c-0.2,0-0.3,0-0.3,0c0,0,0,0.1,0,0.2c0.2,0.5-0.1,0.5-0.9,0c-0.1,0-0.2-0.1-0.3-0.2
	c-0.2-0.1-0.3-0.2-0.4-0.2c-0.5-0.3-0.6-0.5-0.3-0.7c0.1-0.1,0.1-0.1,0.1-0.2c0,0-0.6-0.2-1.6-0.4c-1-0.2-1.6-0.3-1.6-0.2
	c0,0,0,0.2-0.1,0.4c-0.1,0.9-0.3,2.1-0.8,3.4c-0.4,1.3-1,2.4-1.6,3.4c-0.2,0.3-0.3,0.5-0.2,0.6c0.1,0,0.1,0,0.2,0
	c0.1-0.1,0.3-0.2,0.6-0.5c0.3-0.3,0.6-0.5,0.7-0.5c0.1-0.1,0.4-0.1,0.8-0.1c0.5,0,0.7,0.1,0.8,0.2c0.1,0.1,0.1,0.7,0.1,1.5v0
	c0,0.7,0,1.1-0.1,1.3c-0.1,0.2-0.3,0.4-0.6,0.4c-0.2,0-0.8,0-1.7-0.1c0,0,0,0-0.1,0c-0.3,0-0.4,0-0.5,0c0,0,0,0.2,0.2,0.4
	c0,0,0,0.1,0,0.1c0.1,0.3,0.2,0.4,0.3,0.5c0,0,0.1,0.1,0.2,0c0.3-0.1,0.6-0.2,1.1-0.2c0.4,0,0.7,0,0.9,0c0.1,0.1,0.2,0.2,0.2,0.4
	c0,0.2,0,0.7,0,1.6c0,1.1-0.1,1.7-0.1,1.8c0,0.1-0.2-0.1-0.5-0.6c-0.3-0.6-0.7-1.2-1.1-1.6c-0.4-0.5-0.6-0.7-0.8-0.6
	c-0.1,0-0.1,0.1-0.1,0.1c0,0.1,0.1,0.3,0.1,0.6c0.3,1,0.4,2,0.4,3c0,0.5,0.1,0.9,0.1,1s0.1,0.2,0.3,0.3c0.2,0.1,0.4,0.1,0.5,0.1
	c0.1-0.1,0.3-0.2,0.5-0.5c0.2-0.3,0.4-0.4,0.4-0.3c0.1,0.1,0.1,0.4,0.1,1c0,0.6,0,1-0.2,1.2c-0.1,0.1-0.6,0.3-1.4,0.5
	c-0.7,0.1-1,0.2-1.1,0.2c-0.1,0-0.1,0-0.2,0.1c0,0,0,0.1,0,0.3c0,0.2,0.2,0.7,0.5,1.5c0.1,0.4,0.2,0.6,0.3,0.6
	c0.1,0,0.2-0.1,0.4-0.3c0.1-0.1,0.3-0.3,0.5-0.4c0.2-0.1,0.8-0.4,1.7-0.9c3-1.5,4.6-2.4,4.6-2.5c0-0.1-0.1-0.1-0.2-0.1
	c-0.1,0-0.5,0.1-1.2,0.3c-0.9,0.2-1.4,0.3-1.6,0.2c-0.2-0.1-0.2-0.4-0.1-1.1c0-0.3,0-0.6,0-0.9c0-0.4-0.1-1.3-0.1-2.6
	c0-1.3,0-2,0.1-2.1c0.1-0.1,0.2-0.2,0.3-0.2c0.1,0,0.6-0.1,1.2-0.1c0.7,0,1.2-0.1,1.4-0.1c0.2-0.1,0.2-0.2,0.1-0.5
	c-0.2-0.4,0-0.6,0.5-0.6c0.2,0,0.4-0.1,0.5-0.1c0.2-0.2,0.5-0.3,0.8-0.3c0.3,0,0.5,0.1,0.6,0.3c0.1,0.2,0.1,0.8,0,1.8
	c-0.1,1-0.2,1.6-0.3,1.9c-0.1,0.2-0.2,0.3-0.3,0.2c-0.1-0.1-0.2-0.4-0.3-0.8c-0.1-0.5-0.2-0.8-0.1-0.9s0.1-0.3,0.3-0.6
	c0,0,0,0,0-0.1c0.2-0.3,0.2-0.4,0.2-0.5c0,0-0.1-0.1-0.3-0.1c0,0-0.1,0-0.1,0c-0.2,0-0.3,0-0.4,0c0,0-0.1,0.2-0.1,0.5
	c0,0.3-0.1,0.5-0.1,0.6c-0.1,0.1-0.2,0.3-0.4,0.4c-0.2,0.2-0.4,0.3-0.6,0.3c-0.2,0-0.6-0.1-1.2-0.3c0,0-0.1,0-0.1,0
	c-0.4-0.1-0.6-0.2-0.6-0.1c0,0-0.1,0.2,0,0.5c0,0.1,0,0.1,0,0.2c0,1,0,2-0.2,3.1c-0.2,1-0.1,1.4,0.2,1.3c0.1,0,0.3-0.3,0.5-0.8
	c0.3-0.5,0.5-1.1,0.7-1.6c0.2-0.5,0.4-0.8,0.5-0.8c0.2-0.1,0.4,0,0.6,0.2c0.3,0.3,0.4,0.3,0.3,0c0-0.2,0-0.3,0.2-0.5
	c0.1-0.2,0.3-0.2,0.4-0.1c0.1,0,0.2,0.4,0.3,1.1c0.1,0.7,0.2,1.2,0.2,1.3c-0.1,0.8-0.5,1.8-1.2,3.1c-0.8,1.3-1.6,2.3-2.4,3
	C277.2,45.6,277,45.8,277.1,45.9z M286.3,42.7c-0.1,0.2-0.5,0.1-1.1-0.2s-1.2-0.7-1.6-1.2c-0.4-0.4-0.7-0.8-0.8-1.1s0-0.6,0.2-0.9
	c0.1-0.2,0.3-0.3,0.3-0.2c0.1,0,0.2,0.2,0.3,0.5c0.1,0.1,0.1,0.2,0.2,0.2c0.1,0,0.2,0,0.3,0c1-0.3,1.6-0.3,1.9-0.1
	c0.3,0.2,0.4,0.9,0.3,2c0,0.4,0,0.7,0,0.8C286.3,42.6,286.3,42.6,286.3,42.7z M286,38.8c-0.1,0.1-0.4,0.1-0.9,0.1
	c-0.5,0-1-0.1-1.6-0.1c-0.2,0-0.3-0.1-0.3-0.3c0-0.2,0.1-0.6,0.2-1.2c0.2-0.8,0.4-1,0.7-0.7c0.1,0.1,0.1,0.1,0.2,0.1
	c0,0,0.1,0,0.3-0.1c0.8-0.3,1.3-0.3,1.6,0c0.1,0.2,0.2,0.5,0.1,1.1C286.3,38.4,286.2,38.7,286,38.8z M286,35.8
	c-0.1,0.1-0.4,0.1-0.9,0.1c-0.5,0-0.8-0.1-1-0.2c-0.2-0.1-0.2-0.5-0.1-1.2c0.1-0.7,0.2-1.1,0.4-1.3c0.2-0.1,0.3-0.1,0.4,0
	c0,0,0.2,0.1,0.6,0.1c0.4,0,0.7,0.1,0.8,0.2c0.1,0.1,0.2,0.5,0.2,1.1c0,0.4,0,0.7,0,0.9C286.2,35.6,286.1,35.7,286,35.8z
	 M277.2,33.2c-0.2,0.1-0.3,0.1-0.4-0.1c-0.1-0.2-0.1-0.7-0.1-1.4c0,0,0,0,0-0.1c0-0.7,0.1-1.1,0.2-1.2c0.1-0.1,0.5-0.2,1.1-0.2h0.1
	c0.5,0,0.8,0,0.9,0s0.2-0.1,0.3-0.2c0.1-0.1,0-0.3-0.3-0.7c-0.2-0.3-0.4-0.5-0.4-0.6c0-0.1,0.1-0.2,0.3-0.2c0.3,0,0.6-0.1,0.7-0.2
	c0.2-0.1,0.3-0.3,0.4-0.6s0-0.5-0.1-0.8c-0.1-0.3-0.1-0.5,0-0.6c0.1-0.1,0.4-0.2,1-0.3c0.4,0,0.6,0,0.6,0.2c0.1,0.2,0,0.6-0.2,1.3
	c-0.2,0.6-0.6,1.7-1.3,3.3c-0.4,1-0.7,1.5-0.8,1.7c-0.1,0.2-0.4,0.1-0.7-0.1c-0.2-0.1-0.3-0.2-0.4-0.1c-0.1,0-0.3,0.2-0.5,0.6
	C277.4,33.1,277.2,33.2,277.2,33.2z M286,32.5c-0.3,0.2-0.6,0.2-0.9,0c-0.3-0.1-0.7-0.5-1.2-0.9c-0.4-0.4-0.7-0.6-0.8-0.7
	c-0.1-0.1-0.2,0-0.3,0.1c-0.2,0.4-0.5,0.6-0.7,0.8c-0.2,0.1-0.4,0.2-0.6,0c-0.1-0.1-0.1-0.3,0-0.5c0.1-0.3,0.3-0.8,0.6-1.6
	c0.1-0.2,0.2-0.4,0.3-0.8c0-0.1,0.1-0.2,0.1-0.3c0.3-0.9,0.6-1.5,0.7-1.8c0.2-0.3,0.3-0.5,0.5-0.5c0.3-0.1,0.5,0,0.6,0.2
	c0,0.1,0.1,0.2,0.2,0.2s0.2,0,0.6,0c0.5,0,0.9,0.1,1,0.2c0.1,0.1,0.2,0.5,0.2,1.1c0,0.5,0,0.8-0.1,1c-0.1,0.2-0.4,0.3-0.7,0.3
	c-0.3,0-0.9,0-1.9-0.1c0,0,0,0-0.1,0c-0.3,0-0.5,0-0.6,0s0,0.2,0.1,0.4c0,0,0,0.1,0,0.1c0.2,0.3,0.3,0.5,0.3,0.5c0.1,0,0.2,0,0.3,0
	c0.4-0.1,0.8-0.2,1.3-0.2c0.5,0,0.8,0,0.9,0.1c0.2,0.1,0.3,0.5,0.3,1.2C286.4,32,286.2,32.4,286,32.5z M289,32.6
	c-0.4,0-0.6-0.1-0.7-0.2c-0.1-0.2-0.1-0.5-0.1-1.1c0-0.6,0-0.9,0.1-1.1c0.1-0.2,0.3-0.2,0.7-0.2s0.6,0.1,0.7,0.2
	c0.1,0.1,0.1,0.5,0.1,1.1c0,0.4,0,0.7-0.1,0.9c0,0.1-0.1,0.2-0.2,0.3C289.4,32.5,289.2,32.6,289,32.6z M289.4,29.2
	c-0.8,0.4-1.2,0-1.2-1.2c0-0.5,0-0.9,0.1-1c0.1-0.2,0.3-0.2,0.6-0.2c0.3,0,0.5,0.2,0.7,0.6c0.2,0.4,0.2,0.7,0.2,1.1
	C289.8,28.8,289.7,29.1,289.4,29.2z M275.3,29.5c-0.5,0-0.9,0-1,0c-0.2-0.1-0.3-0.2-0.2-0.3c0-0.2,0.2-0.4,0.5-0.9
	c0.5-0.7,0.9-1.3,1.2-1.9c0.1-0.1,0.2-0.3,0.3-0.5c0-0.1,0.1-0.2,0.1-0.2c0.2-0.4,0.4-0.5,0.6-0.4c0.2,0.1,0.4,0.5,0.7,1.1
	c0.7,1.4,0.7,2,0.2,1.8c-0.2-0.1-0.4,0.1-0.6,0.4c-0.3,0.4-0.6,0.7-0.8,0.9C276.2,29.5,275.9,29.5,275.3,29.5z M318.5,45.7
	c0.5,0.2,0.9,0.2,1.2,0c0.4-0.2,0.5-0.6,0.5-1.1c-0.1-0.8-0.8-1.6-2.1-2.3c-1.3-0.7-3-1.2-5.2-1.7c-0.3-0.1-0.5-0.1-0.6-0.1
	c-0.1,0-0.2,0.1-0.2,0.1s0,0.1,0,0.2c0.1,0,0.3,0.2,0.6,0.3c2.1,1,3.8,2.3,5.1,3.9C318.1,45.4,318.3,45.6,318.5,45.7z M299.9,45.8
	c0,0.1,0.1,0.1,0.2,0.1c0.1,0,0.4-0.1,0.8-0.2c2.5-0.8,4.6-1.9,6.5-3.3c0.6-0.4,1-0.7,1.3-0.7c0.3-0.1,0.4-0.1,0.4-0.2
	c0-0.1-0.3-0.2-0.7-0.5c-1.2-0.6-1.6-1-1.2-1.2c0.2,0,2.5,0,7,0c3.5,0,5.6,0,6.2,0c0.6,0,1-0.1,1.1-0.2c0.1-0.2-0.2-0.7-1-1.5
	c-0.3-0.3-0.5-0.4-0.6-0.4c-0.1,0-0.2,0.1-0.5,0.4c-0.4,0.5-0.6,0.6-0.7,0.3c0-0.1,0-1.8,0-5c0.1-3.2,0.1-5.2,0.1-5.8
	c0-0.3,0.1-0.5,0.1-0.6c0.1-0.1,0.2-0.2,0.4-0.4c0.2-0.1,0.2-0.2,0.2-0.4c-0.1-0.2-0.3-0.4-0.7-0.7c-0.6-0.5-1-0.8-1.2-0.8
	c-0.2,0-0.4,0.1-0.7,0.5c-0.4,0.6-1.3,0.7-2.7,0.5c-0.2,0-0.4,0-0.4,0c0,0,0,0.2,0.2,0.5c0,0,0,0,0,0.1c0.1,0.2,0.2,0.4,0.2,0.4
	c0.1,0,0.2,0,0.5,0c0,0,0.1,0,0.1,0c1-0.2,1.6-0.2,1.8,0.2c0,0.1,0.1,0.6,0,1.6s-0.1,1.5-0.1,1.6c-0.1,0.2-0.3,0.3-0.6,0.3
	c-0.3,0-0.8,0-1.5-0.1h0c-0.2,0-0.4,0-0.4,0c0,0,0,0.2,0.2,0.4l0,0.1l0,0c0.1,0.3,0.2,0.4,0.3,0.5c0.1,0,0.2,0,0.4,0l0,0
	c0.8-0.3,1.2-0.3,1.4-0.1c0.2,0.2,0.3,0.8,0.3,1.8c0,0,0,0.1,0,0.2c0,0.7,0,1.2-0.1,1.3c-0.1,0.3-0.3,0.4-0.6,0.4
	c-0.2,0-0.7,0-1.5-0.1c-0.1,0-0.2,0-0.3,0c-0.2,0-0.3,0-0.3,0c0,0,0.1,0.2,0.2,0.6l0,0c0.1,0.2,0.2,0.4,0.2,0.4c0,0,0.1,0,0.3,0
	c0.8-0.3,1.3-0.3,1.6-0.2c0.3,0.1,0.4,0.6,0.4,1.3c0,0,0,0.1,0,0.2c0,0.8,0,1.3,0,1.5c-0.1,0.3-0.2,0.5-0.4,0.6
	c-0.2,0-0.5,0.1-1.1,0.1c-0.1,0-0.1,0-0.1,0c-0.1,0-0.3,0-0.5,0c-0.4,0-0.7,0-0.9-0.1c-0.2-0.1-0.3-0.3-0.3-0.7c0-0.3,0-1,0-2
	c0-0.4,0-0.8,0-1.1c0-0.1,0-0.3,0-0.5c0-1.3,0-2.1,0-2.4c0-0.5,0.1-0.8,0.1-1c0-0.1,0.2-0.3,0.3-0.4c0,0,0.1,0,0.1,0
	c0.3-0.2-0.1-0.6-1-1.2c-0.3-0.2-0.5-0.3-0.6-0.3c-0.1,0-0.3,0.1-0.5,0.4c-0.3,0.3-0.5,0.4-0.6,0.5c-0.1,0.1-0.3,0.1-0.6,0.1
	c-0.4,0-0.7-0.1-0.8-0.2c-0.1-0.1-0.1-0.6-0.1-1.3c0-0.1,0-0.2,0-0.3c0-0.5,0-0.8,0-0.9c0.1-0.2,0.2-0.3,0.5-0.3c0.2,0,0.6,0,1.2,0
	c0.2,0,0.3,0,0.5,0c1.2,0,1.9-0.1,2.1-0.2c0.2-0.1-0.1-0.5-0.7-1.1c-0.5-0.4-0.8-0.6-0.9-0.6c-0.1,0-0.4,0.2-0.6,0.6
	c-0.2,0.3-0.4,0.5-0.5,0.6c-0.1,0.1-0.4,0.1-0.7,0.1c-0.4,0-0.7-0.1-0.8-0.3c-0.1-0.2-0.1-0.4,0-0.7c0-0.3,0.1-0.5,0.3-0.6
	c0.2-0.1,0.2-0.3,0-0.4c-0.2-0.1-0.7-0.3-1.4-0.5c-0.4-0.1-0.6-0.2-0.6-0.1s-0.1,0.1-0.1,0.4v0c0,0.4-0.1,0.6-0.2,0.6
	c-0.1,0-0.4-0.2-0.9-0.6c0,0-0.1-0.1-0.2-0.2c-0.3-0.3-0.5-0.4-0.6-0.4c-0.1,0-0.2,0.1-0.3,0.2c0,0-0.1,0.1-0.1,0.1
	c-0.6,0.7-1,1.1-1.2,1.2c-0.3,0.2-0.5,0.4-0.8,0.4c-0.2,0-0.5-0.1-1-0.3c-0.4-0.1-0.7-0.2-0.8-0.2c-0.1,0-0.1,0-0.1,0.1
	c0,0.2,0.1,2.4,0.2,6.6c0,0.1,0,0.3,0,0.6c0.1,3.1,0.1,5,0.1,5.5c0,0.5-0.1,0.8-0.2,0.9c-0.2,0.1-0.7,0.1-1.8,0c-0.3,0-0.5,0-0.5,0
	c0,0,0.1,0.2,0.2,0.5c0,0,0,0.1,0.1,0.1c0.1,0.2,0.2,0.3,0.3,0.3c0.1,0,0.3,0,0.8-0.1c0.1,0,0.2,0,0.2,0c0.7-0.1,1.6-0.1,2.8-0.1
	c1.2,0,1.9,0,2,0c0.3,0.1,0.2,0.6-0.4,1.3c-0.5,0.7-1.2,1.4-2.2,2.3c-1,0.9-2,1.6-3,2.1c-0.2,0.1-0.4,0.2-0.4,0.3
	C299.9,45.7,299.9,45.7,299.9,45.8z M311.3,38.6c-0.1,0.2-0.4,0.3-0.9,0.3c-0.4,0-0.7-0.1-0.8-0.4c-0.1-0.2-0.2-1.1-0.1-2.5
	c0-1.5,0.1-2.2,0.3-2.4c0.1-0.1,0.1-0.3-0.1-0.4s-0.7-0.3-1.3-0.5h0c-0.4-0.1-0.6-0.2-0.7-0.2s-0.1,0.1,0,0.4v0
	c0,0.4,0.1,0.8,0.1,1.1c0,0.4,0,0.7,0.1,1.1c0,0.2,0.1,0.8,0.1,1.8c0,0.8,0,1.3,0,1.5c0,0.2-0.1,0.3-0.3,0.4c-0.1,0-0.6,0.1-1.5,0.1
	s-1.4,0-1.5,0c-0.2-0.1-0.3-0.2-0.4-0.4c0-0.2-0.1-0.7-0.1-1.5c0-0.1,0-0.2,0-0.3c0-0.8,0-1.2,0.1-1.3c0.1-0.1,0.6-0.2,1.3-0.2
	c0.1,0,0.2,0,0.2,0c1,0,1.5-0.1,1.6-0.3c0.1-0.2-0.2-0.6-0.8-1.2c-0.4-0.4-0.6-0.5-0.7-0.5c-0.1,0-0.3,0.2-0.6,0.6
	c-0.4,0.6-0.8,0.8-1.1,0.5c-0.1-0.1-0.2-0.2-0.2-0.4c0-0.2,0-0.7-0.1-1.4c0,0,0-0.1,0-0.2c0-0.8,0-1.3,0.1-1.4
	c0.1-0.1,0.5-0.2,1.2-0.2c0.1,0,0.1,0,0.2,0c0.9,0,1.5-0.1,1.6-0.2c0.1-0.2-0.1-0.5-0.6-1c-0.4-0.4-0.6-0.6-0.8-0.6
	c-0.1,0-0.3,0.1-0.5,0.5c-0.4,0.5-0.7,0.8-1,0.6c-0.1-0.1-0.2-0.2-0.3-0.4c0-0.2-0.1-0.6-0.1-1.3c0-0.8,0-1.3,0.1-1.5
	c0.1-0.2,0.4-0.4,0.9-0.5l0,0c0,0,0.1,0,0.2-0.1c0.5-0.2,0.8-0.3,1.1-0.4c0.7-0.2,1.1-0.3,1.2-0.2c0.2,0.1,0.4,0.5,0.4,1.3
	c0,0.5,0,1.8-0.1,3.7c0,0.6,0,0.9,0,1.1c0.1,0.1,0.3,0.2,0.6,0.2c0.3,0,0.6-0.1,0.8-0.2c0.3-0.1,0.4-0.2,0.5-0.4
	c0.1-0.2,0.4-0.4,0.8-0.4c0.4,0,0.7,0.1,0.9,0.3c0.1,0.1,0.1,1.3,0.1,3.7C311.4,37.3,311.4,38.5,311.3,38.6z M39.8,68.9
	c0.9,0.7,1.3,0.9,1.3,0.6c0-0.3,0.2-0.6,0.6-1s0.7-0.7,1.1-0.9c0.3-0.1,0.4-0.2,0.4-0.3c0-0.1-0.2-0.2-0.5-0.3
	c-1.3-0.5-2.5-1.3-3.7-2.3c-0.4-0.3-0.6-0.6-0.6-0.7c0-0.2,0.1-0.5,0.3-0.9c1-1.7,1.7-3.6,2.3-5.7c0.1-0.6,0.3-1,0.4-1.1
	c0.1-0.2,0.2-0.3,0.5-0.3c0.3-0.1,0.4-0.2,0.3-0.4c-0.1-0.2-0.3-0.5-0.8-1c-0.5-0.5-0.8-0.8-1-0.8c-0.1,0-0.4,0.1-0.7,0.5
	c0,0-0.1,0.1-0.2,0.2c-0.3,0.3-0.5,0.4-0.7,0.5c-0.2,0-0.9,0.1-1.9,0.1c-0.3,0-0.5,0-0.7,0c-0.2,0-0.5,0-0.9,0c-0.8,0-1.3,0-1.6,0
	c-0.3,0-0.5-0.2-0.6-0.4c0-0.2-0.1-0.6,0-1.2c0-0.3,0-0.5,0-0.7c0-0.2,0-0.5,0-0.8c0-0.6,0-0.9,0.1-1.1c0.1-0.2,0.4-0.4,0.8-0.4
	c0.3,0,1.1,0,2.3,0c0.7,0,1.2,0,1.7,0c1.8,0,2.9,0,3.4,0c0.7,0,1.1,0,1.2-0.1c0.1,0,0.2-0.1,0.2-0.2c0.1-0.3-0.4-0.8-1.3-1.5
	c-0.4-0.3-0.7-0.5-0.8-0.5c-0.1,0-0.3,0.2-0.6,0.6l0,0c0,0-0.1,0.1-0.1,0.2c-0.2,0.4-0.5,0.6-0.7,0.7c-0.3,0.1-1,0.1-2.2,0.1
	c-0.3,0-0.5,0-0.6,0s-0.3,0-0.6,0c-1.1,0-1.8,0-2.1,0c-0.3,0-0.7-0.2-1.2-0.4C32,49.1,31.9,49,31.8,49c0,0-0.1,0-0.2-0.1
	c-0.4-0.2-0.7-0.2-0.7-0.2c-0.1,0-0.1,0.2-0.1,0.5c0,0.1,0,0.1,0,0.1c0,0.6,0.1,1.3,0.1,2.2c0,0.9,0,1.4,0,1.5
	c-0.1,0.2-0.2,0.2-0.3,0.2c-0.1,0-0.4-0.3-0.8-0.7l0,0c-0.5-0.5-0.8-0.7-1-0.7c-0.1,0-0.3,0.2-0.6,0.6c-0.3,0.5-0.6,0.7-0.7,0.7
	c-0.2,0-0.3-0.7-0.3-2c0-1.4,0.1-2.1,0.4-2.3c0.3-0.2,0.2-0.4-0.1-0.5c-0.3-0.2-1-0.4-2-0.6c-0.3-0.1-0.4-0.1-0.5,0c0,0,0,0.2,0,0.5
	c0.2,1.3,0.2,2.5,0.2,3.5c0,1-0.1,1.5-0.3,1.7c-0.1,0.1-0.6,0.1-1.5,0.1c-0.8,0-1.4-0.1-1.8-0.2c-0.2,0-0.2,0.2,0.1,0.6l0,0
	c0.1,0.3,0.2,0.4,0.3,0.5c0,0,0.1,0,0.3,0h0c0.4-0.1,0.8-0.2,1.2-0.2c0.4,0,0.7,0,0.9,0c0.1,0.1,0.2,0.2,0.2,0.4
	c0,0.2,0,0.5-0.1,0.9c-0.7,3.3-1.7,6-3,8.1c-0.2,0.3-0.2,0.4-0.3,0.5c0,0.1,0,0.1,0.1,0.2c0.1,0.1,0.4-0.2,1-0.8
	c0.6-0.6,1.2-1.4,1.7-2.3c0.3-0.5,0.5-0.8,0.7-0.9c0.1-0.1,0.2,0,0.3,0.2c0.1,0.2,0.1,1.2,0.1,3c0,1.8-0.1,3.4-0.2,4.7
	c0,0.6-0.1,1-0.1,1.2c0,0.1,0,0.2,0.1,0.3c0.1,0.1,0.2,0.2,0.3,0.2c0.2,0.1,0.6,0,1-0.1c0.4-0.1,0.7-0.3,0.9-0.5
	c0.1-0.1,0.1-0.2,0.1-0.3c0-0.1,0-0.5,0-1.2c0-1-0.1-2.8-0.1-5.6c0-2.7,0-4.2,0-4.3c0.1-0.2,0.2-0.3,0.3-0.2
	c0.1,0.1,0.3,0.3,0.4,0.6c0.1,0.2,0.2,0.5,0.4,1c0.1,0.4,0.2,0.6,0.2,0.7c0,0.3,0.2,0.5,0.5,0.6c0.4,0.1,0.7,0,0.9-0.2
	c0.5-0.4,0.5-1.1,0.1-1.8c-0.4-0.8-1.1-1.4-2.1-2c-0.4-0.2-0.6-0.4-0.6-0.5c-0.1-0.1-0.1-0.4-0.1-0.9c0,0,0,0,0-0.1
	c0-0.5,0.1-0.8,0.2-0.9c0.1-0.1,0.6-0.1,1.5-0.1c0,0,0.1,0,0.1,0c0,0,0.1,0,0.1,0c0.9,0,1.4-0.1,1.5-0.1c0.1-0.1,0.2-0.1,0.2,0
	s0.1,0.1,0.1,0.3c0,0.1,0,0.9,0,2.2c0,1.3,0,2.2-0.1,2.4c0,0.3-0.1,0.7-0.1,1.2c-0.1,1.6-0.4,3.3-0.8,4.9c-0.4,1.6-1,3-1.7,4.2
	c-0.1,0.2-0.2,0.4-0.2,0.5c0,0.1,0,0.1,0.1,0.1c0.1,0.1,0.5-0.2,1.1-1c0.6-0.7,1.1-1.4,1.5-2.2c0.7-1.2,1.2-2.5,1.5-4
	c0.3-1.5,0.6-3.2,0.7-5.4v0c0-0.7,0.1-1,0.1-1.2c0-0.1,0.1-0.2,0.3-0.3c0.2-0.1,0.3,0,0.4,0.1c0.1,0.1,0.2,0.4,0.2,0.9
	c0.3,2.2,0.9,4.3,1.6,6.2c0.3,0.6,0.4,1,0.3,1.2c0,0.2-0.3,0.6-0.8,1.3c-1.2,1.5-2.6,2.7-4.2,3.7l0,0c-0.2,0.1-0.4,0.2-0.4,0.3
	c0,0,0,0.1,0,0.2c0.1,0.2,0.9,0,2.2-0.8c1.4-0.8,2.4-1.5,3.2-2.2c0.5-0.5,0.9-0.7,1-0.7c0.2,0,0.4,0.3,0.8,0.8
	C38.2,67.5,39,68.2,39.8,68.9z M37.1,61.9c-0.3,0.3-0.7,0-1.2-1c-0.5-1-1-2.3-1.4-3.8c0,0,0-0.1,0-0.1c-0.1-0.5-0.2-0.8-0.1-0.9
	c0-0.2,0.2-0.3,0.5-0.3c0.2,0,0.7,0,1.6,0c0.1,0,0.2,0,0.2,0c1.1,0,1.7,0,1.9,0c0.2,0,0.3,0.1,0.4,0.3c0.1,0.3-0.1,1.3-0.6,2.9
	C37.8,60.6,37.4,61.5,37.1,61.9z M56.5,69.7c0.1,0.3,1,0.1,2.7-0.6c1.7-0.7,3.1-1.4,4.2-2.2c0,0,0,0,0.1-0.1
	c0.4-0.3,0.7-0.4,0.8-0.4c0.2,0,0.5,0.3,1,0.8c0,0,0.1,0.1,0.1,0.1c0.9,0.9,1.8,1.7,3,2.3c0.3,0.2,0.4,0.3,0.5,0.3
	c0,0,0.1-0.1,0.2-0.2c0.4-0.8,0.9-1.3,1.7-1.6c0.2-0.1,0.3-0.2,0.3-0.2c0-0.1-0.3-0.2-0.7-0.4c-0.8-0.3-1.6-0.7-2.5-1.3
	c-0.9-0.6-1.5-1-1.7-1.2c-0.1-0.2-0.1-0.3-0.1-0.5c0.1-0.2,0.3-0.5,0.7-1c0.9-1.2,1.7-2.8,2.4-4.6c0.2-0.4,0.4-0.7,0.7-0.7
	c0.3-0.1,0.4-0.2,0.4-0.4c0-0.2-0.3-0.5-0.8-1c-0.5-0.5-0.9-0.8-1.1-0.8c-0.1,0-0.4,0.1-0.7,0.5c-0.3,0.3-0.5,0.5-0.7,0.6
	c-0.1,0.1-0.3,0.1-0.5,0.1c-0.3,0-0.5-0.1-0.6-0.3c-0.1-0.2-0.1-0.8-0.1-1.8c0-0.1,0-0.3,0-0.6c0-0.6,0-0.9,0-1.1
	c0.1-0.2,0.2-0.3,0.5-0.4c0.2,0,0.7,0,1.4,0c0.3,0,0.5,0,0.7,0c1.6,0,2.4-0.1,2.5-0.3c0.1-0.2-0.4-0.8-1.5-1.6
	c-0.3-0.2-0.5-0.4-0.6-0.3c-0.1,0-0.3,0.2-0.5,0.5l0,0c-0.4,0.5-0.6,0.8-0.7,0.9c-0.1,0.1-0.4,0.1-0.8,0.1c-0.4,0-0.7-0.1-0.8-0.2
	c-0.1-0.2-0.1-0.7-0.1-1.5c0-0.7,0-1.2,0-1.4c0-0.2,0.1-0.4,0.3-0.4c0.2-0.1,0.2-0.3-0.1-0.5c-0.3-0.2-0.9-0.4-1.8-0.6
	c-0.4-0.1-0.7-0.2-0.8-0.1c-0.1,0-0.1,0.1-0.1,0.2c0.2,1.2,0.2,2.2,0.2,3c0,0.8-0.1,1.3-0.3,1.4c-0.1,0.1-0.7,0.1-1.8,0
	c-1.1,0-1.8-0.1-2.1-0.1c-0.2,0-0.2,0-0.1,0.3c0.1,0.3,0.1,0.4,0,0.5c-0.1,0-0.3,0-0.6-0.2c-0.2-0.1-0.4-0.2-0.5-0.1
	c-0.1,0-0.3,0.2-0.5,0.6c-0.5,0.7-0.9,1-1.3,0.9s-0.5-0.6-0.5-1.4c0,0,0-0.1,0-0.2c0-0.4,0-0.7,0.1-0.8c0.1-0.2,0.2-0.3,0.5-0.3
	c0.2,0,0.7,0,1.4,0c0.2,0,0.3,0,0.4,0c1,0,1.6,0,1.9-0.1c0.4,0,0.5-0.2,0.5-0.3c0-0.1-0.2-0.4-0.6-0.8c-0.7-0.6-1.1-1-1.3-1
	c-0.2,0-0.4,0.2-0.7,0.6c-0.6,0.8-1.2,1.1-1.8,0.8c-0.3-0.1-0.4-0.4-0.4-0.8s0.1-0.8,0.3-1c0.2-0.2,0.2-0.3,0-0.4
	c-0.2-0.1-0.7-0.3-1.5-0.5c-0.2,0-0.4-0.1-0.7-0.2c-0.1,0-0.2,0-0.2,0c-0.1,0-0.2,0-0.2,0.1c0,0.1,0,0.3,0,0.6
	c0.1,0.8,0.1,1.4,0,1.7c0,0.3-0.1,0.5-0.3,0.6c-0.1,0.1-0.6,0.1-1.7,0c-1,0-1.7-0.1-2-0.1c-0.2,0-0.2,0.2,0.1,0.6
	c0.1,0.3,0.2,0.5,0.3,0.5c0.1,0,0.3,0,0.7-0.1c1.2-0.2,2-0.3,2.4-0.1c0.4,0.1,0.6,0.6,0.6,1.3c0,0.7-0.2,1.1-0.6,1.3
	c-0.4,0.1-1.3,0.1-2.7,0c-0.3,0-0.4,0-0.5,0c0,0,0,0.2,0.2,0.5l0,0c0.1,0.3,0.2,0.4,0.3,0.5c0.1,0,0.3,0,0.6,0
	c0.7-0.1,1.3-0.2,1.8-0.2c0.6,0,1.7,0,3.6,0c1.8,0,2.8,0,3.1,0c0.3,0,0.5-0.1,0.6-0.1c0.1-0.1,0.1-0.1,0.1-0.2c0,0,0-0.2-0.1-0.3
	c-0.2-0.3-0.2-0.6-0.1-0.7c0.2-0.1,0.7-0.2,1.6-0.3c0.8-0.1,1.3-0.1,1.5-0.1c0.3,0,0.5,0.2,0.6,0.5c0,0.2,0.1,0.8,0.1,1.6
	c0,0.1,0,0.3,0,0.5c0,0.6,0,1,0,1.2c-0.1,0.2-0.2,0.4-0.4,0.4c-0.2,0-0.5,0-1.1,0c-0.2,0-0.4,0-0.5,0c-0.8,0-1.3,0-1.5-0.1
	c-0.2-0.1-0.6-0.3-1.1-0.7c0,0-0.1-0.1-0.2-0.1c-0.5-0.4-0.8-0.6-0.9-0.6c-0.1,0-0.2,0-0.4,0.2c0,0-0.1,0.1-0.1,0.1c0,0,0,0-0.1,0.1
	c-0.2,0.3-0.5,0.4-0.7,0.5c-0.2,0-0.8,0.1-1.7,0.1c-0.1,0-0.2,0-0.2,0c-1,0-1.6,0-1.8,0c-0.2,0-0.6-0.2-1.2-0.4
	c-0.1,0-0.2-0.1-0.3-0.1c-0.4-0.2-0.7-0.3-0.8-0.3c-0.1,0-0.1,0.2,0,0.5c0,0.1,0,0.1,0,0.2c0,0.4,0.1,1.4,0.1,3.2c0,1,0,1.6,0,1.9
	c0,0.4,0,0.6,0.1,0.7c0,0,0.1,0.1,0.2,0h0c0.7-0.1,1.1,0.8,1.4,2.6c0.1,0.4,0.1,0.6,0.1,0.7c0,0.1,0.2,0.2,0.4,0.3
	c0.3,0.2,0.4,0.3,0.4,0.3c0,0.2-0.8,0.4-2.3,0.6c-0.2,0-0.4,0.1-0.7,0.1c-0.2,0-0.4,0-0.4,0c-0.1,0-0.2,0.1-0.1,0.3
	c0,0.1,0.2,0.5,0.5,1.2c0.3,0.8,0.6,1.2,0.6,1.3c0.1,0.1,0.2,0,0.4-0.2c0.1-0.2,0.8-0.5,2.1-1c2-0.8,3.7-1.4,5.1-2.1
	c1.4-0.6,2.2-1,2.2-1.1s-0.1-0.1-0.2-0.1c-0.1,0-0.6,0.1-1.4,0.2c-0.1,0-0.2,0-0.3,0.1c-1,0.2-1.6,0.2-1.7,0.2
	c-0.2,0-0.3-0.1-0.2-0.3c0-0.1,0.1-0.4,0.4-0.7c0.3-0.4,0.5-0.6,0.6-0.9c0.4-0.5,0.6-0.8,0.8-0.9c0.2-0.1,0.2-0.2,0.2-0.2
	c0-0.1-0.1-0.1-0.3-0.2c-0.5-0.2-0.4-0.5,0.2-0.8c0,0,0.1,0,0.1-0.1c0.2-0.1,0.4-0.2,0.4-0.4c0-0.1,0-0.6,0-1.2c0-0.1,0-0.2,0-0.2
	c0-0.8,0-1.4,0-1.6c0-0.2,0.1-0.4,0.2-0.6c0.3-0.3,0.6-0.3,0.6,0c0,0.1,0.1,0.2,0.2,0.3c0.1,0,0.2,0,0.5,0c0.4,0,0.6,0,0.7,0.1
	s0.2,0.4,0.3,0.8c0.4,2,0.9,3.7,1.6,5c0.2,0.4,0.3,0.7,0.3,0.9c0,0.2-0.1,0.4-0.3,0.6c-0.6,0.7-1.4,1.4-2.6,2.2s-2.2,1.4-3.3,1.8
	c0,0,0,0-0.1,0c-0.2,0.1-0.4,0.2-0.4,0.2C56.4,69.6,56.4,69.6,56.5,69.7z M54,66.1c-0.4,0-0.6,0-0.6,0c0,0,0-0.2,0.2-0.4
	c0.4-0.4,0.5-1,0.3-1.5c-0.2-0.6-0.6-1.1-1.3-1.6c-0.5-0.3-0.6-0.6-0.4-0.9c0.1-0.1,0.1-0.2,0.1-0.2c0-0.1,0.1-0.2,0.2-0.3
	c0.1-0.1,0.8-0.2,2-0.2s1.9,0,2,0.1c0.2,0.2,0.2,0.4,0.1,0.6c-0.1,0.2-0.3,0.2-0.6,0.1c-0.1,0-0.2,0-0.3,0c0,0,0,0.2,0,0.5
	c0,0.4,0,1-0.1,1.7c-0.1,0.7-0.2,1.2-0.3,1.5c-0.1,0.3-0.2,0.5-0.5,0.6C54.5,66.1,54.3,66.1,54,66.1z M64.6,63
	c-0.2,0.1-0.3,0.1-0.5,0c-0.4-0.3-0.9-1.1-1.6-2.5c-0.7-1.4-0.9-2.2-0.7-2.4c0.1-0.1,0.2-0.2,0.5-0.2c0.2,0,0.9,0,2,0
	c1.2,0,1.8,0,2,0c0.2,0,0.3,0.1,0.4,0.3c0.1,0.3-0.2,1.1-0.7,2.5C65.3,62,64.9,62.8,64.6,63z M54.5,60.3c-1.1,0-1.7,0-1.8-0.1
	c-0.2-0.1-0.4-0.6-0.4-1.4c0-0.8,0.1-1.3,0.3-1.5c0.1-0.1,0.7-0.1,1.8-0.1c1.1,0,1.8,0,1.9,0.1c0.2,0.1,0.4,0.6,0.3,1.5
	c0,0.8-0.1,1.3-0.4,1.4C56.2,60.2,55.6,60.3,54.5,60.3z M88.6,61.9c0.7,0.1,1.1,0,1.3-0.5c0.2-0.5,0.1-1.1-0.2-1.8
	c-0.4-0.7-0.9-1.4-1.6-1.9c-0.6-0.4-1.4-0.9-2.3-1.2c-0.9-0.4-1.4-0.5-1.6-0.4c-0.1,0.1-0.1,0.1-0.1,0.2c0,0,0.1,0.1,0.2,0.2
	c1.4,1.3,2.5,2.7,3.3,4.2C88,61.5,88.3,61.9,88.6,61.9z M124.9,69.8c0.5,0.1,0.8-0.1,1.1-0.5c0.3-0.4,0.3-0.9,0.2-1.6
	c-0.3-1.7-1.7-3.1-4.1-4.3c-0.6-0.3-1-0.4-1.1-0.4c-0.1,0,0,0.2,0.3,0.6c0.8,1.1,1.3,1.8,1.4,2.1c0.1,0.3-0.2,0.5-0.7,0.6
	c-0.5,0-1.3,0.1-2.6,0.1c-1.3,0-2,0-2.1,0c-0.3,0-0.4-0.1-0.4-0.3c0-0.2,0.2-0.5,0.6-1c1.9-2.2,3.6-4.6,5.3-7.3
	c0.3-0.4,0.5-0.7,0.8-0.7c0.3-0.1,0.3-0.2,0-0.4c-0.3-0.2-0.9-0.5-1.9-1c0,0,0,0-0.1,0c-0.3-0.1-0.5-0.2-0.5-0.1
	c-0.1,0-0.1,0.2-0.2,0.5c0,0,0,0.1,0,0.1c-0.6,1.9-2.1,4.9-4.4,9.1c0,0-0.1,0.1-0.1,0.2c-0.3,0.5-0.6,0.8-0.7,0.9
	c-0.2,0.1-0.7,0.1-1.5,0.1c-0.1,0-0.2,0-0.3,0c-0.1,0-0.3,0-0.5,0c-0.6,0-1,0-1,0.1c-0.1,0.1,0,0.4,0.2,0.8c0.1,0.2,0.1,0.3,0.2,0.4
	c0.3,0.8,0.5,1.3,0.6,1.4c0.1,0.1,0.2,0.1,0.4-0.1c0.1-0.1,0.3-0.2,0.6-0.3c0.3-0.1,0.9-0.2,1.8-0.4c1.3-0.3,2.8-0.6,4.5-1
	c0.4-0.1,0.6-0.1,0.8-0.2c0.8-0.2,1.3-0.3,1.5-0.3c0.3,0,0.6,0.1,0.7,0.4c0.1,0.2,0.3,0.7,0.5,1.5c0.1,0.3,0.2,0.6,0.3,0.7
	S124.7,69.8,124.9,69.8z M107.8,69.8c0.1,0.1,0.3,0.1,0.7,0c0.4-0.1,0.8-0.2,1.1-0.3c0.7-0.4,1.3-1.1,1.6-2.2c0.4-1.2,0.6-3,0.8-5.4
	c0-0.7,0.1-1.1,0.2-1.3c0.1-0.2,0.2-0.3,0.5-0.5c0.3-0.1,0.3-0.3,0.2-0.5c-0.1-0.2-0.5-0.5-1-1c-0.4-0.3-0.6-0.5-0.7-0.5
	s-0.3,0.2-0.6,0.5c-0.3,0.3-0.5,0.5-0.7,0.6c-0.2,0-0.6,0.1-1.2,0.1c0,0-0.1,0-0.2,0c-0.5,0-0.8,0-0.9-0.1c-0.2-0.1-0.3-0.2-0.3-0.5
	c0-0.2,0-0.6,0.1-1.3c0-0.1,0-0.2,0-0.2c0-0.1,0-0.2,0-0.3c0.1-0.7,0.1-1.2,0.1-1.3c0.1-0.3,0.2-0.4,0.3-0.5c0.1,0,0.4-0.1,0.8-0.1
	c0.1,0,0.1,0,0.2,0c0.5,0,0.9,0,1,0.1c0.2,0.1,0.2,0.3,0.2,0.6c0,0.2,0.2,0.3,0.5,0.3c0.3,0,0.7-0.1,1.2-0.3l0,0
	c0.2-0.1,0.3-0.2,0.4-0.3c0-0.1,0.1-0.4,0-1c0-0.1,0-0.1,0-0.2c0-0.9,0-1.4,0-1.7c0.1-0.2,0.3-0.2,0.5,0.2c0.1,0.1,0.1,0.2,0.2,0.2
	c0,0,0.2,0,0.4,0c0.1,0,0.1,0,0.1,0c0.9-0.1,1.8-0.2,2.5-0.2c0.6,0,0.9,0,1,0.1c0.2,0.1,0.3,0.3,0.2,0.6c0,0.2-0.2,0.7-0.5,1.5
	c-0.4,1-0.6,1.6-0.7,1.9c-0.2,0.4-0.3,0.6-0.5,0.6c-0.1,0-0.3,0-0.7-0.2c-1.7-0.7-2.3-0.7-1.5,0c1.2,1.2,2.1,2.5,2.5,3.8
	c0.1,0.3,0.2,0.5,0.3,0.6s0.3,0.2,0.6,0.2c0.6,0,1-0.4,1-1.1c0.1-0.7-0.2-1.4-0.8-2.1c-0.3-0.3-0.4-0.6-0.4-0.7
	c0-0.2,0.2-0.5,0.6-0.9c0.8-1,1.5-1.7,1.9-2.3c0.4-0.5,0.7-0.8,1-1c0.3-0.1,0.3-0.3,0-0.4c-0.3-0.1-0.4-0.3-0.3-0.4
	c0.1-0.1,0.3-0.1,0.6-0.2c0.4,0,1.3,0,2.7,0c1.4,0,2.3,0,2.7-0.1c0.5-0.1,0.6-0.2,0.5-0.5c-0.1-0.2-0.6-0.6-1.4-1.3l0,0
	c-0.4-0.4-0.7-0.6-0.9-0.6c-0.1,0-0.4,0.2-0.7,0.7l0,0c-0.4,0.5-0.6,0.8-0.8,0.9c-0.2,0.1-0.5,0.1-1.1,0.1c-0.6,0-1-0.1-1.1-0.2
	s-0.2-0.6-0.2-1.3c0-0.6,0-1,0-1.1c0-0.2,0.1-0.3,0.3-0.5c0.2-0.2,0.2-0.3,0.1-0.4s-0.5-0.2-1.1-0.4c-1.3-0.4-1.9-0.4-1.9-0.2
	c0.1,0.2,0.1,0.8,0.2,2c0,1.1,0,1.7,0,1.8c-0.1,0.2-0.6,0.3-1.5,0.3c-0.9,0-2,0-3.4-0.1c-0.3,0-0.4,0-0.5,0c-0.1,0-0.1,0-0.2-0.2
	c0-0.2-0.1-0.4-0.1-0.7c0-0.3,0-0.5,0.1-0.6c0.1-0.1,0.2-0.3,0.5-0.4c0.2-0.1,0.3-0.3,0.1-0.6c-0.2-0.3-0.6-0.6-1.2-1.1
	c-0.3-0.3-0.6-0.4-0.7-0.4c-0.1,0-0.3,0.2-0.5,0.6c-0.3,0.4-0.8,0.6-1.5,0.7c-0.7,0.1-1.8,0-3.4-0.1c-0.4,0-0.6,0-0.6,0
	c0,0,0,0.2,0.2,0.5c0,0,0,0.1,0.1,0.1c0.1,0.2,0.2,0.4,0.2,0.4c0.1,0,0.2,0,0.4,0c0,0,0.1,0,0.1,0c2.6-0.4,4-0.3,4.1,0.2
	c0.1,0.2,0.1,0.8,0.1,1.9c0,1.1-0.1,1.7-0.1,1.8c-0.2,0.3-0.5,0.4-1.1,0.4c-0.6,0-1.3-0.2-2.2-0.6c-0.1,0-0.2,0-0.3-0.1
	c-0.5-0.2-0.8-0.3-0.8-0.3c0,0-0.1,0.3,0,1c0,1.4-0.1,3.4-0.4,5.9c0,0,0,0.1,0,0.2c-0.1,0.5-0.1,0.8,0,0.9s0.2,0.1,0.6,0.1
	c0.1,0,0.1,0,0.2,0c0.5,0,0.8,0,0.9-0.1c0.2-0.1,0.3-0.3,0.3-0.6c0.1-0.4,0.2-0.6,0.3-0.7c0.2-0.1,0.6-0.1,1.2-0.1c0,0,0.1,0,0.1,0
	c0.5,0,0.9,0,1,0.1c0.2,0.1,0.3,0.3,0.3,0.6c0,0.2,0,0.7-0.1,1.6c0,0.1,0,0.2,0,0.2c-0.1,1.6-0.3,2.8-0.5,3.5
	c-0.2,0.8-0.4,1.3-0.8,1.5c-0.3,0.2-0.8,0.3-1.5,0.3c-0.1,0-0.2,0-0.4,0c-0.4,0-0.7,0-0.8,0c-0.3,0-0.5,0-0.5,0c0,0.1,0,0.1,0.1,0.2
	c0.1,0,0.3,0.1,0.5,0.2c1.1,0.3,1.6,0.9,1.6,1.7C107.7,69.7,107.8,69.8,107.8,69.8z M151.2,68.9c0.9,0.7,1.3,0.9,1.3,0.6
	c0-0.3,0.2-0.6,0.6-1s0.7-0.7,1.1-0.9c0.3-0.1,0.4-0.2,0.4-0.3c0-0.1-0.2-0.2-0.5-0.3c-1.3-0.5-2.5-1.3-3.7-2.3
	c-0.4-0.3-0.6-0.6-0.6-0.7c0-0.2,0.1-0.5,0.3-0.9c1-1.7,1.7-3.6,2.3-5.7c0.1-0.6,0.3-1,0.4-1.1c0.1-0.2,0.2-0.3,0.5-0.3
	c0.3-0.1,0.4-0.2,0.3-0.4c-0.1-0.2-0.3-0.5-0.8-1c-0.5-0.5-0.8-0.8-1-0.8c-0.1,0-0.4,0.1-0.7,0.5c0,0-0.1,0.1-0.2,0.2
	c-0.3,0.3-0.5,0.4-0.7,0.5c-0.2,0-0.9,0.1-1.9,0.1c-0.3,0-0.5,0-0.7,0c-0.2,0-0.5,0-0.9,0c-0.8,0-1.3,0-1.6,0
	c-0.3,0-0.5-0.2-0.6-0.4c0-0.2-0.1-0.6,0-1.2c0-0.3,0-0.5,0-0.7c0-0.2,0-0.5,0-0.8c0-0.6,0-0.9,0.1-1.1c0.1-0.2,0.4-0.4,0.8-0.4
	c0.3,0,1.1,0,2.3,0c0.7,0,1.2,0,1.7,0c1.8,0,2.9,0,3.4,0c0.7,0,1.1,0,1.2-0.1c0.1,0,0.2-0.1,0.2-0.2c0.1-0.3-0.4-0.8-1.3-1.5
	c-0.4-0.3-0.7-0.5-0.8-0.5c-0.1,0-0.3,0.2-0.6,0.6l0,0c0,0-0.1,0.1-0.1,0.2c-0.2,0.4-0.5,0.6-0.7,0.7c-0.3,0.1-1,0.1-2.2,0.1
	c-0.3,0-0.5,0-0.6,0s-0.3,0-0.6,0c-1.1,0-1.8,0-2.1,0c-0.3,0-0.7-0.2-1.2-0.4c-0.1-0.1-0.3-0.1-0.4-0.1c0,0-0.1,0-0.2-0.1
	c-0.4-0.2-0.7-0.2-0.7-0.2c-0.1,0-0.1,0.2-0.1,0.5c0,0.1,0,0.1,0,0.1c0,0.6,0.1,1.3,0.1,2.2c0,0.9,0,1.4,0,1.5
	c-0.1,0.2-0.2,0.2-0.3,0.2c-0.1,0-0.4-0.3-0.8-0.7l0,0c-0.5-0.5-0.8-0.7-1-0.7c-0.1,0-0.3,0.2-0.6,0.6c-0.3,0.5-0.6,0.7-0.7,0.7
	c-0.2,0-0.3-0.7-0.3-2c0-1.4,0.1-2.1,0.4-2.3c0.3-0.2,0.2-0.4-0.1-0.5c-0.3-0.2-1-0.4-2-0.6c-0.3-0.1-0.4-0.1-0.5,0c0,0,0,0.2,0,0.5
	c0.2,1.3,0.2,2.5,0.2,3.5c0,1-0.1,1.5-0.3,1.7c-0.1,0.1-0.6,0.1-1.5,0.1c-0.8,0-1.4-0.1-1.8-0.2c-0.2,0-0.2,0.2,0.1,0.6l0,0
	c0.1,0.3,0.2,0.4,0.3,0.5c0,0,0.1,0,0.3,0h0c0.4-0.1,0.8-0.2,1.2-0.2c0.4,0,0.7,0,0.9,0c0.1,0.1,0.2,0.2,0.2,0.4
	c0,0.2,0,0.5-0.1,0.9c-0.7,3.3-1.7,6-3,8.1c-0.2,0.3-0.2,0.4-0.3,0.5c0,0.1,0,0.1,0.1,0.2c0.1,0.1,0.4-0.2,1-0.8
	c0.6-0.6,1.2-1.4,1.7-2.3c0.3-0.5,0.5-0.8,0.7-0.9c0.1-0.1,0.2,0,0.3,0.2c0.1,0.2,0.1,1.2,0.1,3c0,1.8-0.1,3.4-0.2,4.7
	c0,0.6-0.1,1-0.1,1.2c0,0.1,0,0.2,0.1,0.3c0.1,0.1,0.2,0.2,0.3,0.2c0.2,0.1,0.6,0,1-0.1c0.4-0.1,0.7-0.3,0.9-0.5
	c0.1-0.1,0.1-0.2,0.1-0.3c0-0.1,0-0.5,0-1.2c0-1-0.1-2.8-0.1-5.6c0-2.7,0-4.2,0-4.3c0.1-0.2,0.2-0.3,0.3-0.2
	c0.1,0.1,0.3,0.3,0.4,0.6c0.1,0.2,0.2,0.5,0.4,1c0.1,0.4,0.2,0.6,0.2,0.7c0,0.3,0.2,0.5,0.5,0.6c0.4,0.1,0.7,0,0.9-0.2
	c0.5-0.4,0.5-1.1,0.1-1.8c-0.4-0.8-1.1-1.4-2.1-2c-0.4-0.2-0.6-0.4-0.6-0.5s-0.1-0.4-0.1-0.9c0,0,0,0,0-0.1c0-0.5,0.1-0.8,0.2-0.9
	c0.1-0.1,0.6-0.1,1.5-0.1c0,0,0.1,0,0.1,0c0,0,0.1,0,0.1,0c0.9,0,1.4-0.1,1.5-0.1c0.1-0.1,0.2-0.1,0.2,0c0,0,0.1,0.1,0.1,0.3
	c0,0.1,0,0.9,0,2.2c0,1.3,0,2.2-0.1,2.4c0,0.3-0.1,0.7-0.1,1.2c-0.1,1.6-0.4,3.3-0.8,4.9c-0.4,1.6-1,3-1.7,4.2
	c-0.1,0.2-0.2,0.4-0.2,0.5c0,0.1,0,0.1,0.1,0.1c0.1,0.1,0.5-0.2,1.1-1c0.6-0.7,1.1-1.4,1.5-2.2c0.7-1.2,1.2-2.5,1.5-4
	c0.3-1.5,0.6-3.2,0.7-5.4v0c0-0.7,0.1-1,0.1-1.2c0-0.1,0.1-0.2,0.3-0.3c0.2-0.1,0.3,0,0.4,0.1c0.1,0.1,0.2,0.4,0.2,0.9
	c0.3,2.2,0.9,4.3,1.6,6.2c0.3,0.6,0.4,1,0.3,1.2c0,0.2-0.3,0.6-0.8,1.3c-1.2,1.5-2.6,2.7-4.2,3.7l0,0c-0.2,0.1-0.4,0.2-0.4,0.3
	c0,0,0,0.1,0,0.2c0.1,0.2,0.9,0,2.2-0.8c1.4-0.8,2.4-1.5,3.2-2.2c0.5-0.5,0.9-0.7,1-0.7c0.2,0,0.4,0.3,0.8,0.8
	C149.6,67.5,150.3,68.2,151.2,68.9z M148.5,61.9c-0.3,0.3-0.7,0-1.2-1c-0.5-1-1-2.3-1.4-3.8c0,0,0-0.1,0-0.1
	c-0.1-0.5-0.2-0.8-0.1-0.9c0-0.2,0.2-0.3,0.5-0.3c0.2,0,0.7,0,1.6,0c0.1,0,0.2,0,0.2,0c1.1,0,1.7,0,1.9,0c0.2,0,0.3,0.1,0.4,0.3
	c0.1,0.3-0.1,1.3-0.6,2.9C149.1,60.6,148.8,61.5,148.5,61.9z M169.4,61.6c0.1,0.2,0.2,0.3,0.4,0.3c0.2,0,0.5-0.2,0.9-0.6
	c0.9-0.7,1.6-1.6,2-2.8c0.4-1.1,0.4-2.1,0.1-2.9c-0.3-0.9-0.9-1.3-1.8-1.2c-0.6,0-1,0.3-1.3,0.7c-0.2,0.4-0.3,0.9-0.1,1.4
	c0.2,0.5,0.5,1,1.1,1.3c0.3,0.2,0.5,0.3,0.6,0.5c0.1,0.1,0.1,0.2,0.1,0.4c-0.1,0.4-0.3,0.8-0.6,1.3c-0.4,0.5-0.8,0.8-1.2,1.2
	c-0.2,0.1-0.3,0.2-0.3,0.3C169.3,61.3,169.3,61.4,169.4,61.6z M203.2,69.8c0.1,0.1,0.4,0,1-0.1c0.6-0.1,1-0.3,1.3-0.5
	c0.3-0.2,0.5-0.4,0.6-0.6c0.1-0.2,0.2-0.6,0.2-1.3c0-0.5,0-1.5,0-3c0-0.3,0-0.7,0-1.2c0-1,0-1.6,0-1.9c0-0.4,0.2-0.6,0.3-0.7
	c0.1-0.1,0.4-0.1,0.9-0.1c0.2,0,0.4,0,0.6,0c1.1,0,1.7-0.1,1.8-0.2c0.1-0.1-0.1-0.5-0.7-1.2c-0.5-0.6-0.9-0.9-1.1-1
	c-0.2,0-0.4,0.2-0.7,0.7c-0.2,0.4-0.4,0.6-0.5,0.7c-0.1,0.1-0.2,0.1-0.3,0.1c-0.3,0-0.4-0.3-0.4-1s0.1-1.1,0.4-1.2
	c0.2-0.1,0.2-0.3-0.1-0.5c-0.3-0.2-0.9-0.4-1.8-0.6c0,0-0.1,0-0.1,0c-0.3-0.1-0.5-0.1-0.6-0.1c0,0,0,0.2,0,0.4v0.1
	c0,0.5,0.1,1,0.1,1.5c0,0.1,0,0.2,0,0.4c0,0.4,0,0.7,0,0.8c-0.1,0.2-0.3,0.3-0.6,0.3c-0.2,0-0.7,0-1.6,0c-0.3,0-0.5,0-0.7,0
	c-2.2,0-3.8,0-4.8-0.1c-0.3,0-0.4,0-0.4,0c0,0,0.1,0.2,0.2,0.6c0,0,0,0.1,0,0.1c0.1,0.2,0.2,0.4,0.3,0.4c0.1,0,0.4,0,0.9-0.1
	c0.1,0,0.2,0,0.2,0c0.7-0.1,1.8-0.1,3.5-0.1s2.5,0,2.6,0.1c0.1,0.1,0.2,0.3,0.2,0.6c0,0.3,0,1.2,0,2.7c0,0.2,0,0.5,0,0.8
	c0,1.1,0,1.7,0,2c-0.1,0.4-0.2,0.6-0.5,0.7c-0.2,0-0.6,0-1.3,0c-0.2,0-0.4,0-0.5,0c-0.8,0-1.3-0.1-1.5,0c-0.1,0-0.2,0.1-0.1,0.2
	c0,0,0.1,0.1,0.4,0.1c1.5,0.2,2.3,0.9,2.5,1.9C203.2,69.6,203.2,69.7,203.2,69.8z M193.5,69.7c0.2,0.1,0.4,0.1,0.8,0
	c0.4-0.1,0.7-0.2,1-0.4l0,0c0.2-0.1,0.3-0.3,0.4-0.4c0-0.1,0-0.5,0-1c-0.1-2.3-0.1-5.3-0.1-9.2c0-1.7,0-3.3,0-4.9
	c-0.1-3,0-4.7,0.4-4.9c0.2-0.1,0.2-0.3,0-0.4c-0.2-0.1-0.8-0.3-1.8-0.6c-0.5-0.1-0.8-0.2-0.9-0.2c-0.1,0-0.1,0.1-0.1,0.3
	c0.1,0.8,0.2,2,0.2,3.8c0,1.8,0,2.8,0,2.9c-0.1,0.2-0.4,0.3-0.8,0.4c-0.5,0-0.8,0-1-0.1c-0.3-0.2-0.4-1-0.3-2.5s0.2-2.3,0.5-2.5
	c0.2-0.1,0.2-0.3,0-0.4c-0.3-0.1-0.8-0.3-1.7-0.6c-0.4-0.1-0.7-0.2-0.7-0.1c-0.1,0-0.1,0.1,0,0.4v0c0.1,0.9,0.2,2.3,0.2,4.3
	c0,1.6,0,2.6,0,3c0,0.4,0,0.6,0,0.7c0.1,0.1,0.3,0.1,0.6,0.1c0.9,0,1.3-0.4,1.4-0.9c0-0.4,0.3-0.7,0.9-0.9c0.6-0.1,1,0,1.2,0.4
	c0.1,0.1,0.1,0.7,0.1,1.6c0,0.9,0,1.4-0.1,1.6c-0.1,0.2-0.6,0.3-1.5,0.3c-0.9,0-2,0-3.5-0.1c-0.2,0-0.3,0-0.3,0c0,0,0.1,0.2,0.2,0.5
	c0.1,0.3,0.2,0.4,0.3,0.5c0,0,0.1,0,0.2,0c0.3-0.2,0.5-0.2,0.6-0.1c0.2,0.1,0.3,0.3,0.3,0.6c0.1,1.2,0,2.7-0.3,4.3
	c-0.3,1.6-0.6,2.8-1,3.7c-0.1,0.3-0.2,0.5-0.2,0.6s0.1,0.2,0.2,0.2c0.1,0,0.4-0.2,0.7-0.6c0.4-0.4,0.7-0.9,1-1.3
	c0.5-0.8,0.8-1.7,1-2.7c0.2-1,0.4-2.3,0.5-3.9c0-0.4,0.2-0.7,0.4-0.9c0.3-0.2,0.6-0.2,0.9,0c0.4,0.2,0.5,2.8,0.2,8c0,0.6,0,1,0,1.1
	C193.3,69.6,193.4,69.7,193.5,69.7z M200.4,65.6c0.5,0.2,0.8,0.1,1.1-0.2c0.2-0.3,0.3-0.7,0.2-1.2c-0.1-0.5-0.4-1-0.8-1.4
	c-0.4-0.4-0.8-0.7-1.4-1c-0.5-0.3-0.9-0.4-1.2-0.4c-0.3,0-0.4,0.1-0.1,0.4c0.8,1,1.4,2.1,1.7,3.1c0.1,0.3,0.1,0.4,0.2,0.5
	C200.1,65.5,200.2,65.6,200.4,65.6z M196,58.9c0,0.1,0.5,0,1.4-0.3c4.4-1.3,7.9-3.4,10.4-6.6c0.3-0.4,0.5-0.7,0.7-0.8
	c0.2-0.1,0.4-0.2,0.6-0.3c0.4-0.1,0.5-0.2,0.5-0.4c0-0.2-0.3-0.5-0.9-0.9s-0.9-0.7-1-0.7c-0.1,0-0.4,0.1-0.6,0.4c0,0,0,0-0.1,0.1
	c-0.3,0.3-0.5,0.4-0.7,0.5c-0.2,0-0.6,0.1-1.4,0.1c-0.1,0-0.1,0-0.2,0c-0.8,0-1.4,0-1.6,0c-0.2,0-0.3-0.1-0.3-0.2
	c0-0.1,0-0.3,0.2-0.6c0.2-0.2,0.4-0.4,0.6-0.4c0.4-0.1,0.4-0.2,0.1-0.3c-0.2-0.2-0.9-0.4-1.8-0.8l0,0c-0.4-0.1-0.7-0.2-0.8-0.2
	s-0.2,0.1-0.2,0.3c-0.3,0.9-0.9,1.9-1.8,3.1c-0.9,1.2-1.8,2.1-2.6,2.8c-0.2,0.2-0.4,0.3-0.4,0.4c0,0.1,0,0.1,0,0.2
	c0.1,0,0.4-0.1,1.2-0.4c0.4-0.2,0.6-0.2,0.8-0.2c0.2,0,0.4,0.2,0.6,0.6c0.4,0.5,0.6,0.9,0.7,1.4c0,0.1,0.1,0.2,0.2,0.3
	c0.1,0.1,0.3,0.1,0.5,0.2c0.4,0.1,0.2,0.4-0.4,0.8c-0.6,0.4-1.6,0.9-3,1.5c-0.4,0.1-0.6,0.2-0.6,0.3C196,58.8,196,58.8,196,58.9z
	 M201.4,55.7c-0.3,0.1-0.4,0.2-0.4,0.1c0,0,0-0.2,0-0.6c0-0.4-0.1-0.8-0.4-1.1c-0.3-0.3-0.7-0.5-1.4-0.8c-0.3-0.1-0.4-0.3-0.3-0.6
	c0.1-0.3,0.5-0.5,1.1-0.8c0.2-0.1,0.6-0.1,1,0.2c0.4,0.3,0.8,0.7,1.2,1.2c0.1,0.2,0.2,0.3,0.3,0.3c0.1,0,0.2,0,0.5,0
	c0.2,0,0.3,0.1,0.2,0.3c-0.1,0.2-0.3,0.5-0.6,0.8C202.1,55.3,201.8,55.5,201.4,55.7z M203.9,53.5c-0.2,0.1-0.3,0.2-0.3,0.1
	c0,0,0-0.2,0-0.4c0-0.4-0.1-0.7-0.4-1c-0.3-0.3-0.7-0.5-1.2-0.7c-0.3-0.1-0.5-0.2-0.6-0.2c-0.1-0.1-0.1-0.2,0-0.3
	c0.1-0.1,0.3-0.2,0.5-0.3c0.2,0,0.8,0,1.8,0c0.8,0,1.3,0,1.5,0c0.3,0,0.5,0,0.5,0.1c0,0,0.1,0.1,0,0.3c0,0.2-0.3,0.6-0.7,1.2
	C204.6,53,204.2,53.3,203.9,53.5z M220.4,69.8c0.3,0.2,0.7,0.1,1.3-0.1c0.6-0.2,0.8-0.5,0.8-0.8c0,0,0-0.1,0-0.2
	c0-0.2,0-0.4,0.1-0.5c0.1-0.1,0.4-0.2,1-0.2c0.4,0,1.2,0,2.6,0c0.3,0,0.5,0,0.7,0c0.2,0,0.5,0,0.9,0c1.3,0,2.1,0,2.5,0
	c0.5,0,0.8,0.1,0.9,0.2c0.1,0.1,0.1,0.3,0.1,0.5c0,0.1,0,0.1,0,0.2c0,0.4,0,0.6,0.2,0.7c0.2,0.1,0.5,0.1,1-0.1
	c0.6-0.2,0.9-0.4,1-0.6c0.1-0.2,0.2-0.7,0.1-1.5c-0.2-4.8-0.1-7.2,0.4-7.2c0,0,0.1,0,0.3-0.1c0.1-0.1,0.2-0.2,0.2-0.2
	c0-0.1-0.2-0.3-0.7-0.7s-0.9-0.7-1.2-0.9c-0.1-0.1-0.3-0.1-0.4,0c-0.1,0-0.3,0.2-0.6,0.5c0,0-0.1,0.1-0.1,0.2
	c-0.2,0.2-0.5,0.4-0.7,0.4c-0.3,0-1.2,0-2.8,0c-0.5,0-0.9,0-1.2,0c-0.3,0-0.7,0-1.2,0c-1.5,0-2.4,0-2.7,0c-0.3,0-0.7-0.2-1.2-0.4
	c-0.2-0.1-0.3-0.1-0.5-0.2c0,0-0.1,0-0.2-0.1c-0.5-0.2-0.7-0.3-0.8-0.3c-0.1,0-0.1,0.2,0,0.5c0,0.1,0,0.1,0,0.1
	c0.1,1.1,0.2,2.6,0.2,4.5c0,1.9,0,3.6-0.1,5.1c0,0.4,0,0.7,0,0.8C220.2,69.6,220.3,69.7,220.4,69.8z M230.9,67.3
	c-0.1,0.1-1.5,0.1-4,0.1c-2.6,0-3.9,0-4-0.1c-0.2-0.1-0.3-0.2-0.3-0.4c0-0.2,0-0.6,0-1.2c0-0.1,0-0.3,0-0.5c0-0.4,0-0.7,0.1-0.9
	c0.1-0.2,0.4-0.3,0.8-0.3c0.3,0,1.1,0,2.3,0c0.5,0,0.9,0,1.2,0c0.3,0,0.7,0,1.2,0c1.2,0,1.9,0,2.3,0c0.4,0,0.7,0.2,0.8,0.3
	c0.1,0.1,0.1,0.4,0.1,0.9c0,0.2,0,0.4,0,0.5c0,0.7,0,1.1,0,1.3C231.2,67.2,231.1,67.3,230.9,67.3z M226.9,63.4c-2.6,0-4,0-4.1-0.1
	c-0.1-0.1-0.2-0.2-0.2-0.4c0-0.2,0-0.6,0-1.2c0-0.1,0-0.2,0-0.4c0-0.4,0-0.7,0.1-0.8c0.1-0.1,0.4-0.2,0.8-0.3c0.3,0,1.1,0,2.3,0
	c0.5,0,0.9,0,1.2,0c0.3,0,0.7,0,1.2,0c1.2,0,1.9,0,2.3,0c0.4,0,0.7,0.1,0.8,0.3c0.1,0.1,0.1,0.4,0.1,0.8c0,0.2,0,0.3,0,0.4
	c0,0.6,0,1,0,1.2c0,0.2-0.1,0.3-0.2,0.4C230.9,63.4,229.5,63.4,226.9,63.4z M216.9,57.2c0.1,0,0.1,0.1,0.2,0c0,0,0.1,0,0.2,0
	c0.7-0.1,1.2-0.2,1.5-0.2c0.3,0,3.4-0.1,9.4-0.1c0.4,0,0.9,0,1.6,0c2.8,0,4.6,0,5.3,0c1,0,1.7,0,2-0.1c0.2,0,0.3-0.1,0.3-0.2
	c0,0,0-0.1,0-0.1c0-0.1-0.1-0.3-0.5-0.6c-0.3-0.3-0.7-0.7-1.2-1l0,0c-0.4-0.3-0.6-0.4-0.7-0.4c-0.1,0-0.3,0.2-0.6,0.7
	c0,0-0.1,0.1-0.1,0.1c0,0-0.1,0.1-0.1,0.2c-0.3,0.4-0.5,0.6-0.7,0.6c-0.2,0.1-0.6,0.1-1.4,0.1c-0.2,0-0.3,0-0.4,0
	c-0.9,0-1.4,0-1.6,0c-0.3,0-0.4-0.2-0.3-0.3c0-0.1,0.3-0.4,0.7-0.8c0.2-0.2,0.6-0.6,1.2-1.3c0,0,0.1-0.1,0.1-0.1
	c0.4-0.5,0.6-0.7,0.7-0.8c0.1-0.1,0.2-0.2,0.3-0.2c0.2-0.1,0.3-0.1,0.3-0.2c0-0.1-0.2-0.2-0.5-0.3c-0.6-0.3-0.8-0.5-0.6-0.6
	c0.2-0.1,1-0.1,2.4-0.1c1.1,0,1.8,0,2,0c0.2,0,0.3-0.1,0.4-0.2c0.1-0.2-0.3-0.7-1.3-1.4l0,0c-0.5-0.4-0.8-0.6-1-0.6
	c-0.1,0-0.4,0.3-0.7,0.7l0,0c0,0-0.1,0.1-0.1,0.2c-0.2,0.4-0.5,0.6-0.7,0.6c-0.2,0-0.8,0.1-1.8,0.1c-0.2,0-0.4,0-0.5,0
	c-1.1,0-1.7,0-1.9,0c-0.2,0-0.3-0.1-0.4-0.1c-0.2-0.2-0.2-0.5-0.2-0.9s0.2-0.7,0.4-0.9c0.2-0.2,0.2-0.3-0.1-0.4
	c-0.2-0.1-0.8-0.3-1.7-0.5c0,0-0.1,0-0.2,0c-0.4-0.1-0.7-0.2-0.7-0.1c-0.1,0-0.1,0.2-0.1,0.5c0,0.1,0,0.1,0,0.1c0,0.1,0,0.3,0,0.5
	c0,0.7,0,1.1,0,1.3c-0.1,0.3-0.3,0.4-0.6,0.5c-0.3,0-0.9,0-1.9,0c-0.3,0-0.5,0-0.7,0c-2.2,0-3.8,0-4.7-0.1c-0.2,0-0.3,0-0.4,0
	c0,0,0.1,0.2,0.2,0.5c0,0,0,0,0,0.1c0.1,0.2,0.2,0.4,0.3,0.4c0.1,0,0.3,0,0.5,0c0.1,0,0.1,0,0.2,0c2-0.3,2.9-0.3,2.9,0
	c0,0.1,0.1,0.3,0.2,0.6c0.4,0.8,0.7,1.6,0.9,2.4s0.3,1.4,0.1,1.5c-0.1,0.1-0.9,0.1-2.4,0.1c-1.5,0-2.7,0-3.6-0.1c-0.2,0-0.4,0-0.4,0
	c0,0,0.1,0.2,0.2,0.5S216.8,57.1,216.9,57.2z M228.3,56.2c-0.2,0.1-0.8,0.1-1.9,0.1c-1.1,0-1.6-0.1-1.7-0.1
	c-0.1-0.1-0.1-0.1-0.1-0.2c0-0.1,0-0.2,0.1-0.4c0.2-0.5,0.2-1.1-0.1-1.7c-0.3-0.6-0.7-1.1-1.4-1.6l0,0c-0.5-0.3-0.8-0.6-0.8-0.6
	c0-0.1,0.2-0.2,0.7-0.2c0.4,0,1.4,0,2.9,0c0.2,0,0.4,0,0.7,0c1.2,0,2,0,2.3,0c0.4,0,0.7,0.1,0.8,0.2c0,0.1,0,0.3,0,0.6
	c0,0.1,0,0.1,0,0.1c-0.3,1-0.5,1.8-0.8,2.6C228.7,55.7,228.5,56.1,228.3,56.2z M250.5,69.3c0.9,0.1,3.1,0.1,6.4,0
	c3.4,0,5.3-0.1,5.9-0.2c0.7-0.1,1.3-0.3,1.8-0.6c0.4-0.3,0.7-0.6,0.7-0.9c0-0.3-0.2-0.6-0.7-0.8c-0.4-0.2-0.6-0.4-0.6-0.6
	s-0.1-0.8-0.1-1.7c0-0.9,0-1.5-0.1-1.6c-0.1-0.1-0.2,0.1-0.4,0.7c0,0.1-0.1,0.3-0.1,0.5c-0.3,1.1-0.6,1.8-0.8,2.1
	c-0.3,0.4-0.9,0.7-1.8,0.8c-0.6,0.1-2,0.1-4.2,0.1c-0.4,0-0.7,0-0.9,0c-0.4,0-1,0-1.7,0c-1.9,0-3,0-3.5-0.1
	c-0.7-0.1-1.1-0.3-1.3-0.6c-0.1-0.3-0.2-0.8-0.1-1.8c0-0.4,0-0.7,0-0.9c0-0.1,0-0.2,0-0.4c0-1,0-1.6,0-1.8c0-0.2,0.1-0.3,0.3-0.4
	l0,0c0.1-0.1,1.9-0.1,5.2-0.1c3.4,0,5.2,0,5.3,0.1c0.1,0.1,0.2,0.1,0.3,0.2c0,0.1,0.1,0.2,0.1,0.5c0,0.4,0.1,0.6,0.2,0.7
	c0.1,0.1,0.4,0.1,0.8,0c0.5-0.1,0.8-0.2,1-0.3c0.2-0.1,0.3-0.3,0.3-0.6c0-0.2,0-0.6,0-1.3c-0.1-2-0.1-3.3,0-3.8c0-0.5,0.2-0.9,0.4-1
	c0.4-0.2,0.5-0.4,0.5-0.5c0-0.2-0.3-0.4-0.8-0.9c-0.6-0.5-1-0.8-1.2-0.8c-0.2,0-0.4,0.1-0.7,0.4c0,0-0.1,0.1-0.1,0.2
	c-0.3,0.3-0.5,0.5-0.7,0.5c-0.2,0-0.7,0.1-1.6,0.1c-0.2,0-0.3,0-0.4,0c-1,0-1.7,0-2,0c-0.4,0-0.5-0.2-0.5-0.3c0-0.1,0.3-0.4,0.7-0.7
	c0.6-0.5,1.1-1,1.3-1.2c0.6-0.6,1.1-0.9,1.4-1c0.3-0.1,0.4-0.2,0.4-0.3c0-0.1-0.3-0.4-0.7-0.8c-0.6-0.6-1-0.9-1.2-1
	c-0.2-0.1-0.5,0.1-0.8,0.5c0,0-0.1,0.1-0.1,0.1c-0.3,0.3-0.5,0.5-0.7,0.5c-0.2,0-0.7,0.1-1.5,0.1c-0.2,0-0.3,0-0.4,0
	c-1,0-1.6,0-1.8,0c-0.2,0-0.3-0.1-0.3-0.3c0-0.2,0.1-0.5,0.3-0.9c0.3-0.4,0.5-0.6,0.7-0.7c0.6-0.1-0.2-0.5-2.1-1.1
	c-0.4-0.1-0.6-0.2-0.7-0.1c-0.1,0-0.1,0.1-0.2,0.3c-0.3,1.4-1,3-2,4.8c-1,1.8-2.2,3.3-3.5,4.7c-0.3,0.3-0.5,0.5-0.5,0.6
	c0,0.1,0,0.1,0.2,0.1c0.2,0,0.8-0.4,1.9-1.2c0.3-0.2,0.5-0.3,0.6-0.4c0.1,0,0.2,0,0.3,0.1c0,0,0.1,0.3,0.1,0.8c0,0.4,0,1.9,0,4.3
	c0,0.1,0,0.1,0,0.1c0,2.7,0,4.2,0,4.7c0,0.5,0.1,0.9,0.2,1.2l0,0C247.6,68.6,248.7,69.2,250.5,69.3z M258.1,60.5
	c-1.2,0-1.9,0-2.1-0.1c-0.2-0.1-0.3-0.2-0.3-0.5c0-0.3,0-0.9,0-2.1c0-0.2,0-0.4,0-0.7c0-0.7,0-1.1,0-1.3c0-0.3,0.2-0.4,0.4-0.5
	c0.2,0,0.6-0.1,1.2-0.1c0.3,0,0.5,0,0.6,0s0.4,0,0.7,0c0.6,0,1,0,1.2,0c0.2,0.1,0.4,0.2,0.5,0.5c0,0.2,0.1,0.6,0,1.3
	c0,0.3,0,0.5,0,0.7c0,1.1,0,1.8,0,2c0,0.2-0.1,0.4-0.2,0.5C260,60.4,259.4,60.5,258.1,60.5z M251.4,60.5c-1.2,0-1.9,0-2-0.1
	c-0.2-0.2-0.3-1-0.3-2.5s0.1-2.3,0.3-2.5c0.1-0.1,0.8-0.1,2-0.1c1.2,0,1.9,0,2,0.1c0.2,0.2,0.3,1,0.3,2.4s-0.1,2.3-0.3,2.4
	C253.3,60.4,252.6,60.5,251.4,60.5z M251.7,54.6c-1.5,0-2.3,0-2.4-0.1c-0.4-0.1-0.5-0.3-0.5-0.4c0-0.2,0.3-0.6,0.7-1.1
	c0.2-0.2,0.5-0.6,0.9-1.1c0,0,0.1-0.1,0.1-0.2c0.2-0.3,0.4-0.5,0.6-0.6c0.2,0,0.7-0.1,1.6-0.1c0.2,0,0.4,0,0.5,0c1,0,1.6,0,1.9,0
	c0.4,0,0.6,0.2,0.6,0.3c0,0.1,0,0.4-0.2,0.8c-0.6,1.4-1.1,2.1-1.4,2.3C254,54.6,253.2,54.6,251.7,54.6z M285,69.7
	c0.1,0.1,0.4,0.1,0.9,0c0.6-0.2,1-0.4,1.2-0.6c0.3-0.3,0.5-0.6,0.5-1c0.1-0.4,0.1-1.3,0.1-2.8c0-1.2,0-2.1,0.1-2.5
	c0-0.5,0.1-0.7,0.2-0.6c0.1,0,0.2,0.4,0.4,0.9c0.4,1.2,0.8,2.1,1.2,2.9c0.4,0.8,1,1.5,1.6,2.1c0.2,0.2,0.3,0.3,0.3,0.2
	c0,0,0.1-0.1,0.2-0.4c0.3-0.7,0.7-1.2,1.2-1.5c0.2-0.1,0.3-0.2,0.2-0.2c0-0.1-0.1-0.1-0.3-0.2c-1.2-0.6-2.3-1.5-3.2-2.6
	c-0.4-0.5-0.6-0.8-0.6-1s0.2-0.4,0.6-0.7c0,0,0.1-0.1,0.1-0.1c0.4-0.3,0.8-0.6,1-0.7c0,0,0,0,0.1-0.1c0.8-0.6,1.2-0.9,1.3-0.9
	c0.3,0,0.5-0.1,0.4-0.2c-0.1-0.2-0.4-0.4-0.9-0.8c-0.7-0.4-1.1-0.7-1.3-0.8c-0.2-0.1-0.3,0-0.3,0.1c-0.1,0.3-0.2,0.8-0.4,1.4
	c-0.2,0.6-0.4,1.1-0.6,1.3c-0.4,0.9-0.9,0.4-1.3-1.5c-0.2-0.7-0.2-1.1-0.2-1.3c0-0.3,0.3-0.4,0.6-0.5c0.3,0,1,0,2,0
	c1.5,0.1,2.4,0,2.6-0.3c0.2-0.2,0-0.8-0.8-1.6c-0.3-0.3-0.5-0.4-0.6-0.4c-0.1,0-0.3,0.2-0.5,0.5c-0.3,0.5-0.5,0.8-0.7,0.9
	c-0.2,0.1-0.4,0.1-0.5,0c-0.1-0.1-0.1-0.3-0.1-0.6c0-0.4,0.1-1.1,0.3-2.3c0.2-1.3,0.4-2.1,0.4-2.3c0.1-0.2,0.2-0.4,0.5-0.5
	c0.2-0.1,0.3-0.2,0.1-0.4c-0.1-0.2-0.4-0.5-0.9-0.8c-0.4-0.4-0.7-0.6-0.9-0.6c-0.1,0-0.3,0-0.4,0.2c-0.4,0.5-0.7,0.7-0.9,0.8
	c-0.2,0-0.7,0.1-1.5,0c-0.8,0-1.3,0-1.4-0.1c-0.2-0.1-0.3-0.4-0.2-0.7c0-0.4,0.2-0.6,0.5-0.8c0.3-0.2,0.3-0.3,0-0.4
	c-0.3-0.1-0.9-0.2-1.9-0.4c-0.4,0-0.6-0.1-0.6,0c0,0-0.1,0.1-0.1,0.3c0,1.6-0.4,3.9-1.2,7c-0.1,0.4-0.2,0.6-0.1,0.6
	c0,0.1,0.2,0.1,0.5,0.1h0c0.5,0.1,0.9,0.1,1.1,0c0.2-0.1,0.4-0.3,0.5-0.6c0.1-0.4,0.3-0.7,0.4-0.7c0.2-0.1,0.7-0.1,1.6-0.1
	c0.1,0,0.1,0,0.1,0c0,0,0.1,0,0.1,0c0.7,0,1.2,0,1.4,0c0.3,0,0.4,0.2,0.5,0.3c0,0.1,0,0.4-0.1,0.9v0c-0.1,0.4-0.2,0.7-0.2,0.9
	c0,0.1-0.1,0.2-0.2,0.3c-0.1,0.1-1,0.1-2.6,0.1c-1.6,0-2.8,0-3.7-0.1c-0.2,0-0.3,0-0.3,0c0,0,0.1,0.2,0.2,0.6
	c0.1,0.3,0.2,0.4,0.3,0.5c0.1,0,0.2,0,0.4,0h0c1-0.2,1.9-0.3,2.7-0.3c0.8,0,1.2,0.1,1.3,0.3c0.1,0.2,0.1,0.9,0.1,2.2
	c0,1.3,0,2-0.1,2.2c-0.1,0.1-0.6,0.5-1.6,1.2c-1,0.7-2,1.3-2.8,1.8c-0.1,0-0.2,0.1-0.4,0.2c-0.6,0.3-0.9,0.5-0.9,0.7
	c0,0.1,0.1,0.4,0.4,0.7c0.1,0.1,0.2,0.2,0.2,0.3c0,0,0.1,0.1,0.1,0.1c0.4,0.5,0.7,0.8,0.8,0.8c0.1,0,0.2,0,0.2-0.3l0,0
	c0.1-0.2,0.2-0.4,0.3-0.5c0.2-0.2,0.3-0.4,0.4-0.6c0.1-0.1,0.4-0.5,1-1.2c0.6-0.7,1.1-1.3,1.4-1.7c0.4-0.5,0.6-0.6,0.7-0.5
	c0.1,0.2,0.2,0.8,0.2,1.9c0,0,0,0.1,0,0.2c0,0.7,0,1.2-0.1,1.3c0,0.3-0.2,0.4-0.4,0.5c-0.2,0-0.6,0-1.2,0c-0.1,0-0.1,0-0.2,0
	c-0.6,0-1,0-1.1,0c-0.1,0-0.2,0-0.1,0.1c0,0.1,0.2,0.2,0.6,0.2c1.2,0.3,1.8,0.9,1.8,1.9C285,69.6,285,69.7,285,69.7z M273.1,69.4
	c0.1,0.2,0.3,0.2,0.5-0.1c0.1-0.2,0.5-0.5,1.1-0.8c4-2.4,6-3.6,6.2-3.8c0,0,0-0.1,0-0.2c0-0.1-0.4,0-1,0.2c-0.2,0-0.4,0.1-0.7,0.2
	c-0.7,0.2-1.1,0.4-1.3,0.4c-0.3,0-0.4-0.2-0.5-0.5c0-0.2-0.1-0.8-0.1-1.7c0-0.4,0-0.7,0-0.9c0-0.3,0-0.6,0-1c0-0.8,0-1.4,0-1.6
	c0-0.3,0.2-0.5,0.4-0.6c0.1,0,0.4-0.1,0.9-0.1c0.2,0,0.4,0,0.6,0c0.8,0,1.3,0,1.5,0c0.2,0,0.3-0.1,0.3-0.2c0.1-0.2-0.2-0.7-1-1.4
	c-0.4-0.4-0.6-0.5-0.7-0.5c-0.1,0-0.3,0.2-0.5,0.6c-0.9,1.5-1.4,1.3-1.4-0.6c0,0,0-0.1,0-0.2c0-0.6,0.1-1,0.2-1.1
	c0.1-0.1,0.5-0.2,1.2-0.2c0.1,0,0.1,0,0.2,0c0.9,0,1.4-0.1,1.5-0.3c0.1-0.1-0.1-0.5-0.7-1.1c-0.5-0.5-0.9-0.8-1-0.8
	c-0.2,0-0.4,0.2-0.7,0.6c-0.3,0.4-0.5,0.7-0.7,0.7c-0.2,0.1-0.7,0.1-1.5,0.1c-0.9,0-1.5-0.1-1.6-0.2c-0.1-0.1,0.1-0.4,0.5-1
	c0.7-1,1.4-2,1.9-3c0.3-0.5,0.6-0.7,0.9-0.4c0.2,0.2,0.5,0.5,0.8,1c0.4,0.5,0.6,1,0.8,1.4c0.2,0.5,0.5,0.8,0.9,0.8
	c0.3,0.1,0.6-0.1,0.9-0.5c0.3-0.5,0.2-1-0.2-1.6c-0.4-0.6-1.1-1.1-2-1.6c-0.8-0.4-1-0.6-0.8-0.8c0.3-0.2-0.4-0.6-2.2-1.2
	c-0.3-0.1-0.4-0.1-0.5-0.1c0,0-0.1,0.1-0.1,0.4c-0.2,1.2-0.6,2.5-1.2,4c-0.6,1.5-1.3,2.8-2.1,3.8c-0.2,0.3-0.2,0.5,0,0.5
	c0.1,0,0.5-0.3,1.1-0.8c0.3-0.3,0.5-0.4,0.7-0.5c0.2-0.1,0.3,0,0.3,0.1c0,0.1,0,0.1,0.1,0.1c0.1,0,0.3,0,0.6,0
	c0.5,0,0.8,0.1,0.9,0.3c0.1,0.1,0.1,0.6,0.1,1.4c0,0.5-0.1,0.9-0.1,1.1c-0.1,0.2-0.4,0.3-0.7,0.3c-0.3,0-0.9,0-1.9-0.1
	c0,0,0,0-0.1,0c-0.3,0-0.5,0-0.6,0c0,0,0,0.2,0.1,0.4c0,0,0,0.1,0,0.1c0.2,0.3,0.3,0.5,0.3,0.5c0.1,0,0.2,0,0.3,0
	c0.7-0.2,1.2-0.3,1.7-0.2c0.5,0,0.7,0.2,0.8,0.4c0.1,0.2,0.1,1.3,0.1,3.3c0,2-0.1,3.1-0.1,3.2c-0.1,0.2-0.3,0.3-0.6,0.4
	c-0.3,0.1-1,0.3-2,0.6c-0.6,0.2-0.8,0.3-0.8,0.3S272.3,68.1,273.1,69.4z M273.5,65.3c0.3,0.1,0.6,0.1,0.8-0.1
	c0.3-0.2,0.4-0.6,0.5-1.1c0.1-0.5,0-1.1-0.3-1.7c-0.3-0.7-0.6-1.3-1.2-1.8c-0.3-0.4-0.5-0.5-0.6-0.4c-0.1,0.1,0,0.4,0.1,1
	c0.2,1,0.3,1.9,0.3,2.9c0,0.5,0,0.9,0.1,1C273.2,65.1,273.3,65.2,273.5,65.3z M277.9,64.7c0.1,0.1,0.3,0,0.6-0.3
	c0.3-0.4,0.7-1.3,1.4-2.7c0.2-0.4,0.4-0.6,0.6-0.7c0.4-0.2,0.3-0.4-0.2-0.5c-0.1,0-0.5-0.2-1.1-0.4c-0.1,0-0.1,0-0.2-0.1
	c-0.3-0.1-0.5-0.2-0.6-0.1c0,0-0.1,0.3-0.1,0.6c0,0.1,0,0.2,0,0.3c0,0.6-0.1,1.3-0.1,2.1c-0.1,0.8-0.2,1.3-0.2,1.6
	C277.8,64.6,277.8,64.7,277.9,64.7z M283.2,62.3c0.3,0.1,0.6,0.1,0.9,0s0.5-0.3,0.6-0.6c0.1-0.5,0-1.1-0.5-1.6c-0.4-0.6-1.1-1-2-1.4
	c-0.4-0.1-0.6-0.2-0.6-0.1c-0.1,0,0,0.2,0.2,0.5c0.6,1,1,1.9,1.1,2.7C282.8,62,283,62.2,283.2,62.3z M286.1,53.5c-0.7,0-1.1,0-1.3,0
	c-0.2,0-0.4-0.2-0.4-0.4c0-0.1,0-0.5,0.2-1c0,0,0-0.1,0-0.1c0,0,0-0.1,0-0.2c0.1-0.6,0.3-0.9,0.4-1c0.2-0.1,0.6-0.1,1.4-0.1
	c0.1,0,0.2,0,0.3,0c0,0,0.1,0,0.2,0c0.7,0,1.1,0,1.3,0c0.2,0,0.4,0.2,0.4,0.4c0,0.1,0,0.5-0.1,1c0,0,0,0.1,0,0.1
	c-0.1,0.7-0.3,1.1-0.5,1.2c-0.1,0.1-0.7,0.1-1.7,0.1C286.3,53.5,286.2,53.5,286.1,53.5z M30.5,93.8c0.3,0.1,0.6,0.1,1.1,0
	c0.5-0.1,0.9-0.3,1.1-0.5c0.1-0.1,0.1-0.2,0.1-0.3c0-0.1,0-0.3,0-0.8c0-0.2,0-0.6,0-1.2c0-0.4,0-0.7,0-0.8c0-1.1,0-3.1,0-6
	c0-2.9,0-4.5,0.1-4.6c0.1-0.3,0.7,0,1.8,0.8c1.1,0.9,2,1.8,2.9,3c0.2,0.3,0.4,0.5,0.5,0.5c0.1,0.1,0.3,0.1,0.5,0.1
	c0.6,0,1-0.3,1-0.9c0.1-0.6-0.1-1.2-0.7-1.8c-0.9-1.2-2.7-2.1-5.2-2.6c-0.4-0.1-0.7-0.2-0.8-0.4c-0.1-0.2-0.1-0.7-0.1-1.6
	c0-0.1,0-0.1,0-0.1c0-0.2,0-0.4,0-0.6c0-0.5,0-0.8,0.1-1c0.1-0.2,0.4-0.3,0.9-0.4c0.3,0,1.2,0,2.4,0c0.7,0,1.2,0,1.6,0
	c2.4,0,3.8,0,4.2,0c0.4,0,0.6-0.1,0.7-0.2c0.1-0.3-0.5-1-2.1-2.1C40.3,72.1,40.1,72,40,72c-0.1,0-0.3,0.3-0.6,0.7
	c-0.4,0.6-0.7,0.9-0.9,1.1c-0.1,0-0.4,0.1-1,0.1c-0.6,0-2.8,0-6.5,0c-5.3,0-8.4,0-9.4-0.1c-0.2,0-0.3,0-0.3,0c0,0,0.1,0.2,0.2,0.5
	c0,0,0,0.1,0,0.1c0.1,0.2,0.2,0.4,0.3,0.4c0.1,0,0.3,0,0.6,0c0,0,0.1,0,0.1,0c0.6-0.1,1.1-0.2,1.7-0.2c0.4,0,1.3,0,2.8,0
	c0.1,0,0.1,0,0.2,0c1.9,0,2.9,0,3,0c0,0,0,0,0.1,0c0.1,0,0.2,0.1,0.2,0.3c0,0.2,0.1,0.7,0.1,1.5c0,0.6,0,1.9,0,4.1c0,0.6,0,1,0,1.3
	c0,5.1-0.1,8.5-0.2,10.4c0,0.7-0.1,1.1,0,1.2C30.2,93.6,30.3,93.7,30.5,93.8z M59.4,86.1c1.1,0.1,2-0.2,2.8-1c0.8-0.8,1.1-1.7,1-2.8
	c-0.1-0.9-0.5-1.6-1.2-2.2c-0.6-0.5-1.4-0.8-2.2-0.8c-0.9,0-1.6,0.3-2.3,0.9c-0.7,0.6-1,1.4-1.1,2.3c0,0.8,0.2,1.6,0.7,2.3
	C57.8,85.5,58.5,86,59.4,86.1z M60.7,85.1c-0.8,0.3-1.6,0.2-2.3-0.3c-0.7-0.5-1.1-1.2-1.1-2.1c0-0.7,0.2-1.3,0.7-1.8
	c0.5-0.5,1.1-0.7,1.7-0.7c0.7,0,1.3,0.2,1.8,0.7c0.7,0.6,0.9,1.4,0.7,2.3C62.1,84.2,61.6,84.8,60.7,85.1z"/>
</svg>
