<?xml version="1.0" encoding="utf-8"?>
<!-- Generator: Adobe Illustrator 24.2.3, SVG Export Plug-In . SVG Version: 6.00 Build 0)  -->
<svg version="1.1" id="Layer_1" xmlns="http://www.w3.org/2000/svg" xmlns:xlink="http://www.w3.org/1999/xlink" x="0px" y="0px"
	 viewBox="0 0 352 219" style="enable-background:new 0 0 352 219;" xml:space="preserve">
<style type="text/css">
	.st0{clip-path:url(#SVGID_2_);}
	.st1{fill:none;stroke:#D6D2C7;stroke-width:1.3;stroke-miterlimit:10;stroke-dasharray:9.31,9.31;}
	.st2{fill:#D6D2C7;}
</style>
<g>
	<defs>
		<rect id="SVGID_1_" width="351.3" height="218.1"/>
	</defs>
	<clipPath id="SVGID_2_">
		<use xlink:href="#SVGID_1_"  style="overflow:visible;"/>
	</clipPath>
	<g class="st0">
		<path class="st1" d="M350.6,0.6H0.7v216.8h350V0.6z"/>
	</g>
</g>
<path class="st2" d="M23.8,47.9c0,0,0.1,0,0.2,0c0.9-0.2,1.5-0.3,1.8-0.5c0.4-0.3,0.6-0.8,0.6-1.7c0.1-0.6,0.1-2.1,0.1-4.3
	c0-0.3,0-0.7,0-1.2c0-1.2,0-1.9,0-2.3c0-0.4,0.1-0.8,0.2-0.9c0.1-0.1,0.2-0.3,0.5-0.4c0.1-0.1,0.2-0.1,0.3-0.2
	c0.6-0.4,1-0.6,1.2-0.6c0.2,0,0.3,0.1,0.5,0.5c0.1,0.2,0.2,0.3,0.2,0.4c0,0,0.2,0,0.3,0c0.5-0.1,1-0.2,1.5-0.2s0.8,0.1,0.8,0.2
	c0.1,0.2-0.1,0.8-0.5,2C31,39.9,30.5,41,30,42.2c-0.1,0.3-0.1,0.5,0,0.6c0.2,0.1,0.5,0.1,1.1,0.1c0.4,0,0.6,0,0.7-0.1
	c0.1-0.1,0.2-0.2,0.3-0.5c0.2-0.4,0.3-0.6,0.5-0.6s0.5,0.1,1,0.3c0.9,0.5,1.4,0.8,1.5,1c0.1,0.2-0.1,0.5-0.5,0.9
	c-1.4,1.3-3.3,2.4-5.9,3.2c-0.4,0.1-0.7,0.2-0.8,0.3c-0.1,0.1-0.1,0.1-0.1,0.2c0,0.1,0.1,0.1,0.3,0.1c0.1,0,0.5-0.1,1.1-0.2
	c3-0.6,5.4-1.6,7-2.9c0.4-0.3,0.7-0.4,0.9-0.4c0.3,0.1,0.7,0.5,1.5,1.2c0.7,0.7,1.3,1.3,1.6,1.8c0.2,0.3,0.5,0.5,0.9,0.4
	c0.4,0,0.7-0.2,0.8-0.6c0.2-0.6,0.1-1.3-0.4-2c-0.5-0.8-1.3-1.4-2.4-2.1c-0.4-0.3-0.7-0.5-0.7-0.6c0-0.1,0-0.4,0.2-0.7
	c0.6-1.2,1.1-2.6,1.4-4.4c0.1-0.5,0.2-0.8,0.4-0.9c0.1-0.1,0.5-0.2,1.2-0.2c0.6,0,0.9,0,1.1-0.1c0.2,0,0.2-0.2,0.2-0.3
	c0-0.1-0.3-0.4-0.8-0.9c-0.5-0.5-0.9-0.9-1.3-1.1c-0.2-0.1-0.3-0.2-0.4-0.1c-0.1,0.1-0.3,0.4-0.7,1c0,0,0,0.1-0.1,0.1
	c-0.2,0.3-0.5,0.5-0.6,0.6c-0.2,0-0.7,0.1-1.6,0.1c-0.1,0-0.3,0-0.3,0c-0.1,0-0.2,0-0.3,0c-0.8,0-1.4,0-1.6,0
	c-0.3,0-0.4-0.2-0.5-0.4c0-0.1,0.1-0.5,0.2-1c0-0.1,0.1-0.2,0.1-0.2c0.2-0.5,0.3-0.9,0.4-1.1c0.1-0.2,0.3-0.4,0.4-0.5
	c0.2-0.1,0.3-0.2,0.2-0.3c-0.1-0.1-0.3-0.2-0.7-0.3c-0.2-0.1-0.6-0.1-1-0.2c-0.5-0.1-0.7-0.1-0.8-0.1c0,0-0.1,0.3-0.2,0.9
	c-0.2,1-0.4,1.9-0.6,2.6c-0.1,0.3-0.2,0.5-0.4,0.6c-0.1,0.1-0.4,0.1-0.8,0.1c-0.8,0-1.4-0.1-1.8-0.2c-0.4-0.1-0.4-0.3-0.2-0.4
	c0.1-0.1,0.1-0.1,0.1-0.2c0-0.1,0-0.1,0-0.1c-0.1,0-0.4,0.1-1.2,0.3c-0.1,0-0.2,0-0.3,0.1c-0.6,0.2-1,0.3-1.1,0.3
	c-0.2,0-0.3-0.1-0.4-0.3c0-0.1,0-0.5,0-1.2c0-0.1,0-0.2,0-0.3c0-0.7,0-1.1,0-1.3c0-0.3,0.1-0.4,0.2-0.5c0.1,0,0.4-0.1,0.7-0.1
	c0.4,0,0.6,0,0.8,0.1c0.1,0.1,0.2,0.2,0.3,0.5c0.1,0.5,0.4,0.8,0.8,0.9c0.4,0,0.8-0.1,1.2-0.5c0.4-0.4,0.7-0.9,0.7-1.5
	c0-0.1,0-0.2,0-0.3c0-0.3,0.1-0.5,0.2-0.5c0.1-0.1,0.4-0.2,0.8-0.2c0.3,0,1,0,2.1,0c0.5,0,0.9,0,1.2,0c0.3,0,0.6,0,1.1,0
	c1.3,0,2.1,0,2.4,0.1c0.4,0.1,0.7,0.2,0.7,0.5c0,0.2-0.1,0.7-0.3,1.5c-0.1,0.3-0.1,0.5-0.2,0.6c0,0,0,0.1,0,0.2c0,0,0.1,0.1,0.1,0.1
	c0.1,0,0.3-0.2,0.8-0.6c0.5-0.4,0.9-0.8,1.4-1.2c0.5-0.4,0.8-0.7,1.2-0.8c0.3,0,0.4-0.2,0.3-0.3c-0.1-0.2-0.3-0.5-0.8-1
	c-0.5-0.5-0.9-0.8-1.1-0.9c-0.2,0-0.4,0.1-0.8,0.5l0,0c-0.3,0.3-0.5,0.5-0.7,0.6c-0.2,0-0.6,0.1-1.2,0.1c-0.1,0-0.1,0-0.1,0
	c0,0-0.1,0-0.2,0c-0.8,0-1.2,0-1.3-0.1c-0.1-0.1-0.2-0.4-0.2-1.1c0,0,0-0.1,0-0.1c0-0.5,0-0.8,0-0.9c0-0.2,0.1-0.3,0.3-0.5
	c0.2-0.2,0.2-0.3-0.1-0.5c-0.2-0.1-0.8-0.3-1.7-0.5c0,0-0.1,0-0.2,0c-0.4-0.1-0.6-0.1-0.6-0.1c0,0-0.1,0.1,0,0.4c0,0,0,0.1,0,0.1
	c0.2,2,0.2,3-0.1,3.3c-0.1,0.1-0.5,0.1-1.4,0.1c-0.8,0-1.3,0-1.4-0.1c-0.2-0.1-0.4-0.3-0.4-0.6c-0.1-0.4-0.2-0.6-0.3-0.6
	c-0.1,0-0.1,0-0.1,0c0,0.3-0.1,0.6-0.3,1.1c-0.2,0.4-0.4,0.7-0.5,0.9s-0.3,0.2-0.5,0.2c-0.1,0-0.4-0.3-0.8-0.6l0,0
	c-0.2-0.2-0.4-0.3-0.5-0.3c-0.1,0-0.2,0.2-0.4,0.5c-0.2,0.3-0.4,0.5-0.5,0.6s-0.2,0.1-0.3,0.1c-0.2,0-0.4-0.7-0.3-2
	c0-1.3,0.2-2,0.4-2.2c0.5-0.3-0.2-0.7-2.2-1.2l0,0c-0.3-0.1-0.4-0.1-0.4,0c0,0,0,0.3,0,0.6c0.1,0.9,0.2,1.9,0.2,2.9
	c0,1,0,1.6-0.1,1.8c-0.1,0.2-0.3,0.3-0.6,0.3c-0.3,0-0.9,0-1.8-0.1c0,0,0,0-0.1,0c-0.3,0-0.4,0-0.5,0c0,0,0,0.2,0.1,0.4
	c0,0,0,0.1,0,0.1c0,0,0,0,0,0.1c0.1,0.3,0.2,0.4,0.3,0.4c0.1,0,0.2,0,0.4,0c0,0,0.1,0,0.1,0c0.7-0.2,1.2-0.3,1.5-0.2
	c0.3,0,0.5,0.3,0.6,0.6c0.1,0.3,0.1,0.9,0.1,1.8c0,0.1,0,0.2,0,0.4c0,0.7,0,1.1-0.1,1.3c-0.1,0.3-0.3,0.5-0.6,0.6
	c-0.2,0.1-0.8,0.3-1.6,0.5c-0.2,0-0.4,0.1-0.5,0.1c-0.3,0.1-0.5,0.1-0.6,0.2c0,0,0,0.1,0,0.2c0,0.1,0.2,0.5,0.4,1.2
	c0.2,0.6,0.3,1,0.4,1c0.1,0.2,0.2,0.1,0.4,0c0.3-0.4,0.7-0.7,1.2-1c0.5-0.2,0.8-0.3,0.9,0c0,0.1,0.1,1.1,0.1,2.9c0,1.9,0,2.9,0,3.1
	c-0.1,0.3-0.2,0.4-0.5,0.5c-0.2,0.1-0.7,0.1-1.5,0c-0.5,0-0.8,0-0.8,0c-0.1,0.1,0,0.2,0.4,0.3c1,0.2,1.5,0.8,1.7,1.8
	C23.7,47.7,23.7,47.9,23.8,47.9z M36.2,41.7c-0.1,0-0.2,0.1-0.3,0.1c-0.1,0-0.2-0.1-0.5-0.1c-0.2,0-0.6-0.2-1.3-0.3
	c-0.6-0.2-1-0.3-1.1-0.4S32.9,40.5,33,40c0.1-0.1,0.2-0.7,0.6-1.6c0-0.1,0.1-0.2,0.1-0.2c0-0.1,0.1-0.2,0.1-0.4
	c0.3-0.7,0.5-1.1,0.6-1.2c0.2-0.1,0.6-0.2,1.3-0.2c0.2,0,0.3,0,0.4,0c0.7,0,1.1,0,1.3,0c0.3,0,0.4,0.2,0.4,0.3c0,0.1,0,0.4-0.1,0.9
	c-0.2,1-0.5,2-0.8,2.7C36.7,41.2,36.4,41.6,36.2,41.7z M52,47.9c0.2,0.1,0.6,0.1,1,0c0.5-0.1,0.8-0.3,1.1-0.5
	c0.1-0.1,0.1-0.2,0.1-0.3c0-0.1,0-0.6,0-1.4c0-0.3,0-0.6,0-0.8c0-0.7-0.1-2.5-0.1-5.5c0-0.2,0-0.5,0-0.8c0-2,0-3.1,0-3.5
	c0-0.4,0.1-0.6,0.3-0.6l0,0c0.1-0.1,0.2-0.2,0.1-0.3c-0.1-0.1-0.3-0.3-0.6-0.6c-0.2-0.2-0.3-0.4-0.4-0.5c0-0.1,0.1-0.4,0.2-0.7
	c0.8-1.6,1.5-3,1.9-4.2c0.2-0.5,0.4-0.9,0.7-1c0.3-0.1,0.3-0.3,0-0.4c-0.3-0.2-0.9-0.4-1.9-0.7c-0.5-0.2-0.8-0.2-0.9-0.2
	c-0.1,0-0.1,0-0.1,0.1c0,0.2-0.1,0.7-0.2,1.4c-0.1,0.7-0.3,1.4-0.5,1.9c-0.4,1.3-0.9,2.7-1.6,4.2c-0.7,1.5-1.4,2.9-2.1,4.1
	c-0.2,0.3-0.3,0.5-0.3,0.6c0,0.1,0,0.1,0.1,0.1c0.2,0,0.8-0.5,1.9-1.7c0.3-0.4,0.5-0.6,0.7-0.6s0.3,0,0.3,0.2c0.1,0.2,0.1,1.6,0,4.3
	c0,2.7-0.1,4.7-0.2,6.1c0,0.7-0.1,1.1,0,1.2C51.8,47.7,51.9,47.8,52,47.9z M55.3,47.1c0,0.1,0.1,0.1,0.2,0.1
	c0.7-0.1,1.5-0.2,2.6-0.3c1.1,0,3.2,0,6.4,0c0.3,0,0.8,0,1.4,0c2.4,0,3.8,0,4.2,0c0.4,0,0.6-0.1,0.7-0.2c0.1-0.1-0.1-0.4-0.4-0.7
	c-0.3-0.4-0.8-0.8-1.4-1.2c-0.3-0.2-0.5-0.3-0.6-0.3c-0.1,0-0.3,0.3-0.7,0.8c0,0-0.1,0.1-0.1,0.2c-0.3,0.4-0.5,0.7-0.7,0.7
	c-0.1,0.1-0.5,0.1-1.2,0.1c-0.1,0-0.2,0-0.3,0c-0.1,0-0.3,0-0.5,0c-0.5,0-0.8,0-0.9-0.1c-0.2-0.1-0.3-0.3-0.3-0.7c0-0.3,0-0.9,0-1.8
	c0-0.5,0-0.9,0-1.1c0-0.3,0-0.7,0-1.3c0-0.9,0-1.5,0-1.8c0.1-0.3,0.2-0.5,0.5-0.6c0.2-0.1,0.7-0.1,1.5-0.1c0.4,0,0.8,0,1.1,0
	c1.5,0,2.3,0,2.5,0c0.3,0,0.4-0.1,0.5-0.2c0.1-0.2-0.3-0.7-1.2-1.5l0,0c-0.4-0.4-0.7-0.5-0.8-0.5c-0.1,0-0.3,0.2-0.6,0.6l0,0
	c-0.3,0.5-0.6,0.7-0.7,0.8c-0.2,0.1-0.6,0.1-1.2,0.1c-0.1,0-0.2,0-0.3,0c-0.4,0-0.7,0-0.8-0.1c-0.2-0.1-0.3-0.3-0.3-0.6
	c0-0.2,0-0.8,0-1.7c0-0.3,0-0.5,0-0.7c0-0.3,0-0.6,0-1c0-0.8,0-1.3,0-1.5c0.1-0.3,0.3-0.5,0.6-0.6c0.2,0,0.8-0.1,1.6,0
	c0.5,0,0.8,0,1.1,0c1.6,0,2.5,0,2.7,0c0.3,0,0.4-0.1,0.5-0.2c0.1-0.1-0.1-0.4-0.4-0.7c-0.3-0.3-0.7-0.7-1.3-1.1
	c-0.3-0.2-0.5-0.3-0.6-0.3c-0.1,0-0.3,0.2-0.6,0.6c-0.4,0.5-0.7,0.8-0.9,0.9c-0.1,0.1-1.7,0.1-4.8,0.1c-3.1,0-5,0-5.5-0.1
	c-0.4,0-0.5,0-0.6,0c0,0,0,0.2,0.1,0.5l0,0.1l0,0c0.1,0.3,0.2,0.4,0.3,0.4c0.1,0,0.2,0,0.5,0c0.7-0.1,1.6-0.2,2.6-0.2
	c1,0,1.6,0,1.8,0l0,0c0.2,0,0.3,0.2,0.3,0.4c0,0.2,0,0.9,0,2.1c0,0.2,0,0.3,0,0.5s0,0.3,0,0.5c0,1.2,0,1.9,0,2.1
	c0,0.2-0.1,0.3-0.3,0.4l0,0c-0.1,0.1-0.8,0.1-2,0.1c-1.2,0-2.1-0.1-2.6-0.2c-0.1,0-0.2,0-0.2,0.1c0,0.1,0.1,0.3,0.2,0.5
	c0,0,0,0,0,0.1c0.1,0.2,0.2,0.4,0.2,0.4s0.2,0,0.5,0c0,0,0.1,0,0.1,0c0.7-0.1,1.5-0.2,2.4-0.2c0.9,0,1.4,0,1.5,0.1
	c0.1,0.1,0.2,0.3,0.2,0.6c0,0.3,0,1.3,0,3c0,1.6,0,2.6,0,3c0,0.3-0.1,0.6-0.2,0.6c-0.1,0.1-0.9,0.1-2.3,0.1c-1.4,0-2.6,0-3.6-0.1
	c-0.2,0-0.3,0-0.3,0c0,0,0.1,0.2,0.2,0.5C55.2,46.9,55.3,47.1,55.3,47.1z M62.8,30.4c0.4,0.2,0.7,0.1,1,0c0.3-0.2,0.5-0.5,0.5-0.9
	c0-0.7-0.3-1.4-1.1-2c-0.8-0.6-1.8-1.1-3.2-1.4c-0.5-0.1-0.7-0.1-0.7,0c0,0.1,0.3,0.4,0.8,0.9c1.1,1.1,1.8,2.1,2.3,3
	C62.5,30.2,62.7,30.4,62.8,30.4z M80.7,46c2.5,0,3.8,0,3.8-0.1c0.1,0,0.1-0.2,0.1-0.4c0-0.2,0-0.4-0.1-0.4l-0.2,0
	C84,45,83.7,45,83.5,45c-0.1,0-0.2,0-0.4,0c-0.4,0-0.7-0.1-0.8-0.2c-0.1-0.1-0.2-0.4-0.3-0.8c0-0.3,0-1,0-2c0-0.4,0-0.7,0-0.9
	c0-0.3,0-0.7,0-1.2c0-0.9,0-1.5,0-1.8c0-0.4,0.2-0.6,0.4-0.6c0.1-0.1,0.5-0.1,1-0.1c0.3,0,0.5,0,0.6,0c0.1,0,0.2,0,0.3,0
	c0.8,0,1.3,0.1,1.5,0.2c0.1,0.1,0.3,0.5,0.4,1.1c0,0.1,0,0.2,0,0.3c0,0,0,0.1,0,0.2c0,0.5,0.1,0.8,0.1,0.8c0,0.1,0.2,0.1,0.4,0.1
	c0,0,0.1,0,0.1,0c0,0,0.1,0,0.2,0c0.1,0,0.2,0,0.3-0.1c0.1-0.1,0.1-0.2,0.1-0.6c0-0.2,0-0.7,0-1.6c0-0.4,0-0.7,0-0.9
	c0-0.2,0-0.4,0-0.7c0-0.9,0-1.5,0-1.8c0-0.3,0-0.5-0.1-0.6c0-0.1-0.1-0.1-0.3-0.1c-0.1,0-0.1,0-0.2,0h0c-0.2,0-0.4,0-0.4,0.1
	c0,0.1-0.1,0.4-0.1,0.8c0,0,0,0.1,0,0.1c0,0.1,0,0.2,0,0.3c-0.1,0.7-0.2,1-0.4,1.2c-0.1,0.1-0.6,0.1-1.5,0.1c-0.1,0-0.3,0-0.3,0
	c-0.1,0-0.3,0-0.6,0c-0.5,0-0.9,0-1-0.1c-0.2-0.1-0.3-0.3-0.4-0.6c0-0.2-0.1-0.8,0-1.8c0-0.4,0-0.8,0-1c0-0.3,0-0.7,0-1.2
	c0-0.9,0-1.5,0-1.8c0.1-0.3,0.2-0.5,0.5-0.6c0.2-0.1,0.7-0.1,1.4-0.1c0.4,0,0.7,0,0.9,0c0.2,0,0.5,0,0.9,0c0.8,0,1.4,0,1.6,0
	c0.3,0,0.5,0.2,0.7,0.4c0.1,0.1,0.2,0.5,0.3,1.1c0,0.3,0.1,0.5,0.1,0.6c0,0.1,0,0.2,0.1,0.3c0.1,0.6,0.2,0.9,0.3,1
	c0.1,0.1,0.2,0.1,0.5,0.1c0,0,0.1,0,0.1,0c0.3,0,0.5,0,0.6,0c0.1,0,0.1-0.1,0.1-0.3c0,0,0-0.3,0-0.8c0-0.6,0-1,0-1.4
	c0-1.4-0.1-2-0.1-2.1c0,0-2.2-0.1-6.6-0.1c-4.3,0-6.5,0-6.6,0c-0.1,0.2-0.2,0.3,0,0.5c0.1,0.2,0.3,0.3,0.5,0.3
	c0.7,0.1,1.2,0.1,1.4,0.2c0.2,0.1,0.4,0.2,0.5,0.4c0,0.1,0.1,2,0.1,5.7c0,3.7,0,6.3,0,7.7c0,0,0,0.1,0,0.1c0,0.8-0.1,1.2-0.2,1.4
	c-0.1,0.1-0.5,0.2-1.1,0.3c-0.1,0-0.1,0-0.1,0c-0.6,0.1-0.9,0.1-0.9,0.2c0,0-0.1,0.2-0.1,0.4c0,0.2,0,0.3,0.1,0.3
	C77,45.9,78.2,45.9,80.7,46z M101.8,45.9c3.2,0,4.8,0,4.9,0c0,0,0.1-0.2,0.1-0.4c0-0.2,0-0.3,0-0.3c-0.1,0-0.6-0.1-1.5-0.2
	c-0.2,0-0.4-0.1-0.7-0.1c-0.5,0-0.8-0.1-0.9-0.3c-0.2-0.2-0.3-0.7-0.3-1.4c0-0.6,0-1.9,0-3.9c0-1.2,0-2.3,0-3c0-4,0-6.3,0-7
	c0-0.7,0-1-0.1-1.1c0-0.1-0.2-0.1-0.3,0c-0.1,0-0.6,0.1-1.5,0.3c-0.4,0.1-0.8,0.2-1.1,0.3c-0.2,0-0.5,0.1-0.9,0.2
	c-1,0.2-1.6,0.4-1.8,0.5c-0.2,0.1-0.2,0.2-0.2,0.3c0,0,0,0.1,0,0.1c0,0,0,0,0,0.1c0,0.2,0,0.3,0.1,0.3c0.1,0,0.4,0,0.9,0
	c0.1,0,0.2,0,0.2,0c0.8-0.1,1.3-0.1,1.5-0.1c0.2,0,0.3,0.1,0.4,0.3c0.1,0.1,0.1,2.5,0.1,7c0,4.5,0,6.9-0.1,7
	c-0.1,0.2-0.2,0.3-0.4,0.4c-0.2,0-0.7,0.1-1.6,0.2c-1,0.1-1.5,0.2-1.5,0.2c0,0-0.1,0.1-0.1,0.3c0,0.2,0,0.3,0,0.4
	C97,45.9,98.6,45.9,101.8,45.9z M113.9,47.1c0,0.1,0.2,0.1,0.6,0c0,0,0.1,0,0.2,0c0.6-0.1,1.4-0.2,2.2-0.2c0.9,0,3.7,0,8.4,0
	c0.5,0,1.3,0,2.2,0c3.6,0,5.7,0,6.3,0c0.6,0,1-0.1,1-0.2l0,0c0.1-0.2-0.3-0.7-1.4-1.6c0,0-0.1,0-0.1-0.1c-0.5-0.4-0.8-0.6-0.9-0.6
	c-0.1,0-0.3,0.2-0.6,0.6c0,0-0.1,0.1-0.1,0.1c0,0,0,0,0,0.1c-0.4,0.5-0.7,0.9-0.8,0.9c-0.2,0.1-0.6,0.1-1.3,0.1c-0.1,0-0.1,0-0.2,0
	c-0.7,0-1.1,0-1.2,0c-0.2,0-0.3-0.1-0.4-0.3c0-0.1-0.1-2.3-0.1-6.5c0-4.3,0-6.5,0-6.8c0,0,0,0,0-0.1c0-0.1,0.1-0.2,0.1-0.3
	c0.1-0.1,0.4-0.1,0.7-0.1c0.3,0,0.9,0,1.9,0c0.2,0,0.3,0,0.4,0c1.6,0,2.5,0,2.7,0c0.3,0,0.4-0.1,0.5-0.2c0.2-0.3-0.4-0.9-1.8-1.8h0
	c-0.3-0.2-0.5-0.3-0.6-0.3c-0.1,0-0.3,0.2-0.6,0.6c0,0-0.1,0.1-0.1,0.1c0,0,0,0.1-0.1,0.1c-0.3,0.4-0.6,0.7-0.8,0.8
	c-0.2,0.1-0.7,0.1-1.5,0.1c0,0-0.1,0-0.1,0c-1,0-1.5-0.1-1.6-0.2c-0.1-0.1,0.1-0.5,0.7-1.1c0.6-0.6,1.2-1.4,1.8-2.2
	c0.5-0.7,0.8-1,0.9-1c0.4,0,0.4-0.1,0-0.4c-0.4-0.2-1.1-0.5-2-0.8c0,0-0.1,0-0.2,0c-0.4-0.1-0.6-0.2-0.6-0.1c-0.1,0-0.1,0.2-0.2,0.4
	c0,0,0,0.1,0,0.1c-0.1,0.8-0.3,1.8-0.7,2.9c-0.3,1.1-0.6,1.8-0.8,2.1c-0.1,0.2-0.6,0.3-1.5,0.4c-0.8,0-1.7,0-2.5-0.1
	c-0.3,0-0.6,0-0.9,0c-0.4,0-1.4,0.1-3.1,0c-1.7,0-2.8-0.1-3.3-0.1c-0.1,0-0.2,0-0.2,0.1c0,0.1,0.1,0.3,0.2,0.6c0,0,0,0.1,0.1,0.1
	c0.1,0.2,0.2,0.3,0.3,0.3s0.3,0,0.7-0.1c0.1,0,0.2,0,0.2,0c0.8-0.1,1.8-0.2,2.9-0.2c1.1,0,1.7,0,1.8,0.1c0.1,0.1,0.2,0.5,0.2,1.1
	c0,0.6,0,2.6,0,6c0,0.3,0,0.7,0,1.2c0,2,0,3.4,0,3.9c0,0.8,0,1.2-0.1,1.4c0,0.2-0.1,0.3-0.2,0.3c0,0-0.1,0-0.1,0
	c-0.1,0.1-1.1,0.1-2.7,0.1c-1.7,0-2.9-0.1-3.7-0.1c-0.3,0-0.4,0-0.4,0.2C113.5,46.4,113.6,46.7,113.9,47.1z M125.1,46.2
	c-0.1,0.1-0.4,0.1-0.9,0.1c-0.5,0-0.8,0-1-0.1l0,0c-0.1,0-0.2-0.1-0.2-0.3c0-0.2-0.1-0.7-0.1-1.5c0-0.5,0-1.8,0-3.9c0-0.6,0-1,0-1.3
	c0-0.5,0-1.3,0-2.2c0-1.8,0-3,0-3.5c0-0.7,0.1-1.1,0.2-1.3c0.1-0.1,0.3-0.2,0.6-0.1c0.2,0,0.3,0,0.4,0s0.2,0,0.4,0
	c0.3,0,0.5,0,0.6,0.1c0.1,0.2,0.2,0.6,0.2,1.3c0,0.5,0,1.6,0,3.5c0,1,0,1.7,0,2.3c0,0.3,0,0.7,0,1.2c0,2,0,3.4,0,3.9
	c0,0.8,0,1.2-0.1,1.4C125.3,46,125.3,46.1,125.1,46.2C125.1,46.2,125.1,46.2,125.1,46.2z M128.7,43.2c0.1,0,0.1,0,0.2,0
	c0,0,0.1-0.1,0.3-0.3c1-1.5,2-3.4,2.9-5.6c0,0,0-0.1,0-0.1c0.4-0.8,0.6-1.3,0.7-1.5c0.1-0.2,0.3-0.3,0.5-0.4
	c0.4-0.2,0.2-0.4-0.6-0.6c0,0-0.2,0-0.3-0.1c-0.5-0.1-0.8-0.2-1.1-0.3l0,0c-0.5-0.1-0.7-0.2-0.8-0.2s-0.1,0.1-0.1,0.3
	c0,0.7-0.1,1.7-0.4,3.1c-0.2,1.4-0.6,2.8-0.9,4.3c0,0,0,0.1,0,0.1c-0.2,0.6-0.2,1-0.3,1.1C128.6,43.1,128.6,43.2,128.7,43.2z
	 M117.8,42.7c0.5,0.3,0.9,0.2,1.2-0.2c0.3-0.4,0.4-1.1,0.4-2c-0.1-0.9-0.3-1.8-0.7-2.7c-0.3-0.6-0.7-1.3-1.2-1.9
	c-0.5-0.6-0.9-1.1-1.2-1.3c-0.3-0.2-0.4-0.1-0.3,0.4c0.4,1,0.7,2.2,0.9,3.4c0.3,1.2,0.4,2.3,0.4,3.2c0,0.5,0,0.7,0.1,0.8
	C117.5,42.4,117.6,42.5,117.8,42.7z M121.2,31c0.1,0,0.3,0,0.5-0.1c0.2-0.1,0.4-0.2,0.5-0.3c0.5-0.7,0.5-1.5-0.1-2.4
	c-0.5-0.9-1.5-1.6-2.7-2.2c-0.5-0.2-0.8-0.3-1-0.3c-0.1,0-0.1,0.2,0.1,0.4c0.4,0.5,0.8,1.2,1.1,1.9c0.4,0.8,0.6,1.4,0.7,2
	C120.5,30.6,120.8,30.9,121.2,31z M141.9,47.8c0.1,0.1,0.3,0.2,0.6,0.1c0.3,0,0.6-0.1,0.9-0.3c0,0,0,0,0.1,0
	c0.2-0.1,0.4-0.2,0.4-0.4c0-0.1,0-0.5,0-1c0-0.2,0-0.3,0-0.4c0-1.2-0.1-2.8-0.1-4.6c0-1.9,0-2.8,0.1-3c0.1-0.2,0.3-0.2,0.6-0.3
	c0.3,0,1.2,0,2.9,0c0.3,0,0.7,0,1.2,0c0.9,0,1.4,0,1.7,0.1c0.3,0.1,0.5,0.3,0.6,0.6c0,0.3,0.1,0.9,0.1,1.8c0,0.5,0,1,0,1.3
	c0,0.2,0,0.4,0,0.7c0,1.2,0,1.9,0,2.2c0,0.4-0.1,0.7-0.3,0.8c-0.1,0.1-0.4,0.1-0.8,0.1c-0.1,0-0.2,0-0.2,0c-0.2,0-0.4,0-0.6,0
	c-0.1,0-0.1,0.1-0.1,0.2c0,0.1,0.1,0.1,0.2,0.1c0.3,0,0.5,0.1,0.9,0.4c0.2,0.2,0.3,0.4,0.4,0.5c0.1,0.2,0.2,0.5,0.2,0.9
	c0,0.1,0.1,0.2,0.3,0.2c0.2,0,0.5-0.1,0.9-0.2c0,0,0,0,0.1,0c0.4-0.1,0.6-0.2,0.8-0.1c0,0,0,0,0,0.1c-0.1,0-0.1,0.1-0.1,0.2
	c0,0.1,0.1,0.1,0.1,0.1c0.2,0,0.8-0.3,1.6-0.9c0.8-0.6,1.6-1.2,2.2-1.7c0.5-0.5,0.8-0.7,1-0.7c0.2,0,0.4,0.2,0.7,0.5
	c0.7,0.9,1.5,1.7,2.5,2.4c0.3,0.2,0.4,0.3,0.5,0.3c0.1,0,0.1-0.1,0.2-0.2c0.2-0.3,0.4-0.6,0.7-0.9c0.3-0.3,0.6-0.4,0.9-0.5
	c0.4-0.1,0.4-0.3,0-0.5c-0.7-0.3-1.4-0.8-2.3-1.3c-0.8-0.6-1.4-1.1-1.6-1.4c-0.1-0.2-0.2-0.3-0.1-0.5c0-0.2,0.2-0.4,0.4-0.9
	c0.8-1.4,1.5-3,2-4.8c0.2-0.6,0.3-0.9,0.4-1.1c0.1-0.2,0.2-0.3,0.5-0.4c0.3-0.1,0.4-0.2,0.4-0.4c0-0.1-0.2-0.3-0.6-0.7
	c-0.6-0.6-1-1-1.2-1c-0.2-0.1-0.5,0.1-0.8,0.4c-0.3,0.4-0.6,0.6-0.8,0.7c-0.2,0.1-0.4,0.1-0.6,0c-0.2-0.1-0.3-0.2-0.3-0.4
	c0-0.2-0.1-0.6-0.1-1.3c0-0.1,0-0.3,0-0.5c0-0.6,0-0.9,0-1.1c0.1-0.2,0.2-0.3,0.5-0.4c0.2,0,0.6-0.1,1.4-0.1c0.3,0,0.5,0,0.6,0
	c1.2,0,1.9,0,2.1,0c0.2,0,0.3-0.1,0.4-0.3c0-0.1-0.1-0.3-0.4-0.6c-0.3-0.3-0.6-0.6-1-1c-0.3-0.3-0.5-0.4-0.6-0.3
	c-0.1,0-0.3,0.3-0.6,0.7c-0.3,0.4-0.7,0.7-1.1,0.9c-0.4,0.1-0.7,0.1-1-0.1c-0.2-0.2-0.3-0.7-0.2-1.6c0-0.9,0.1-1.4,0.3-1.5
	c0.5-0.3-0.1-0.6-1.7-1c0,0-0.1,0-0.2,0c-0.4-0.1-0.6-0.1-0.7-0.1c0,0-0.1,0.2,0,0.4c0,0,0,0.1,0,0.1c0.1,1,0.2,2.6,0.2,4.8
	c0,0.2,0,0.5,0,0.8c0,1.1,0,1.7,0,2c-0.1,0.4-0.2,0.6-0.5,0.7c-0.2,0-0.7,0-1.5,0c-0.2,0-0.4,0-0.6,0c0,0,0,0-0.1,0
	c-0.3,0-0.5,0-0.5,0s0,0.2,0.1,0.4c0,0,0,0.1,0,0.1c0,0,0,0,0,0.1c0.1,0.3,0.2,0.4,0.3,0.4s0.1,0,0.2,0c0.3-0.2,0.6-0.2,0.8-0.1
	c0.2,0.1,0.4,0.4,0.4,0.8c0.3,2.1,0.8,4,1.5,5.7c0.3,0.7,0.4,1.2,0.2,1.5c-0.1,0.3-0.5,1-1.3,1.9c-0.8,0.9-1.3,1.5-1.8,1.8
	c-0.4,0.3-0.6,0.1-0.4-0.5c0-0.1,0.1-1.5,0.1-4c0-0.1,0-0.2,0-0.4c0-2.3,0-3.5,0.1-3.6c0.1-0.2,0.3-0.3,0.5-0.4
	c0.3-0.1,0.4-0.3,0.3-0.5c-0.1-0.2-0.5-0.6-1.1-1.1c-0.4-0.4-0.7-0.5-0.9-0.6c-0.1,0-0.3,0.1-0.5,0.4c0,0-0.1,0.1-0.1,0.2
	c-0.2,0.4-0.5,0.6-0.7,0.6c-0.3,0-1.1,0.1-2.4,0.1c-0.3,0-0.5,0-0.7,0s-0.4,0-0.7,0c-1.3,0-2.1,0-2.4,0c-0.3,0-0.7-0.2-1.2-0.4
	c-0.1,0-0.2-0.1-0.3-0.1c-0.6-0.3-0.9-0.4-1-0.4c0,0-0.1,0-0.1,0.1c0,0.1,0,0.3,0.1,0.7c0.1,0.9,0.1,2.4,0.1,4.5
	c0,2.1,0,3.6-0.1,4.6c0,0.6-0.1,1,0,1.1C141.8,47.6,141.8,47.7,141.9,47.8z M145.1,45.2c0.1,0.1,0.4,0.1,0.7-0.1
	c0.3-0.2,0.5-0.4,0.5-0.6c0-0.3,0.1-0.5,0.2-0.6c0.1-0.1,0.4-0.1,0.8-0.1c0.4,0,0.6,0,0.8,0.1c0.1,0.1,0.2,0.3,0.2,0.5
	c0,0.2,0.1,0.3,0.2,0.4c0.1,0,0.3,0,0.6-0.2c0,0,0,0,0.1,0c0.3-0.1,0.4-0.2,0.4-0.4s0-0.6,0-1.3c0-0.1,0-0.2,0-0.2c0-1,0-1.7,0-2.1
	s0.1-0.5,0.3-0.6c0.2-0.1,0.1-0.4-0.5-0.9l0,0c-0.2-0.2-0.4-0.3-0.4-0.3c0,0-0.1,0-0.2,0.1l0,0c-0.7,0.6-1.7,0.6-3.1,0
	c-0.3-0.1-0.5-0.2-0.5-0.2c0,0-0.1,0.2,0,0.4c0.1,0.8,0.1,2.2,0.1,4.1C145,44.5,145.1,45.1,145.1,45.2z M147.3,43.1
	c-0.5,0-0.7-0.1-0.8-0.2c-0.1-0.2-0.1-0.6-0.1-1.3s0-1.2,0.1-1.3c0.1-0.2,0.4-0.2,0.8-0.2s0.7,0.1,0.8,0.2c0.1,0.1,0.1,0.6,0.1,1.3
	c0,0.6,0,1,0,1.1c0,0.1-0.1,0.2-0.3,0.3C147.8,43.1,147.6,43.1,147.3,43.1z M157.5,40.8c-0.3,0.2-0.7-0.2-1.2-1.1
	c-0.5-0.9-0.9-2.1-1.3-3.5c-0.1-0.4-0.1-0.6-0.1-0.7c0-0.1,0.2-0.2,0.5-0.2c0.2,0,0.8,0,1.6,0c0.8,0,1.3,0,1.5,0
	c0.3,0,0.5,0.1,0.6,0.2c0,0.1,0.1,0.2,0,0.5c0,0.5-0.3,1.4-0.7,2.7C157.9,39.9,157.6,40.6,157.5,40.8z M143.4,36
	c0.2,0.2,0.5,0.2,1,0.1c0.5-0.1,0.8-0.3,0.9-0.5c0.1-0.3,0.2-0.4,0.4-0.5c0.2,0,0.7-0.1,1.5-0.1c0.8,0,1.4,0,1.6,0.1
	c0.2,0.1,0.3,0.2,0.3,0.5c0,0.3,0.4,0.3,1.2,0.1c0.4-0.1,0.7-0.2,0.8-0.4c0.1-0.1,0.1-0.4,0.1-0.9c-0.1-1.1-0.1-1.9,0-2.2
	c0.1-0.4,0.2-0.6,0.6-0.8c0.3-0.2,0-0.7-1.1-1.5c-0.3-0.2-0.4-0.3-0.6-0.3c-0.1,0-0.3,0.2-0.5,0.5c-0.4,0.5-1.1,0.7-2.1,0.8
	c-1.1,0-2.1-0.1-3-0.6c0,0-0.1,0-0.1,0c-0.5-0.2-0.8-0.3-0.9-0.3c-0.1,0-0.1,0.2-0.1,0.4c0,0,0,0.1,0,0.1c0,0.3,0,1,0,2.3
	c0,1.2,0,2,0,2.4c0,0.3,0,0.4,0,0.5C143.3,35.9,143.3,36,143.4,36z M147.3,34.5c-1,0-1.5,0-1.6-0.1c-0.2-0.1-0.3-0.6-0.3-1.3
	c0-0.7,0.1-1.2,0.4-1.3c0.1-0.1,0.6-0.1,1.6-0.1c0.9,0,1.4,0,1.6,0.1c0.3,0.1,0.4,0.5,0.4,1.2c0,0.7-0.1,1.1-0.3,1.3
	C148.8,34.4,148.2,34.5,147.3,34.5z M141.9,29.7c0,0,0.1,0.1,0.2,0c0.7-0.1,2.1-0.2,4-0.3c2-0.1,3.2,0,3.7,0c0.2,0,0.4,0,0.6,0
	c0.1,0,0.7-0.1,1.5-0.1c1,0,1.5-0.1,1.6-0.2c0.1-0.1-0.1-0.5-0.7-1c-0.6-0.6-1.1-0.9-1.2-1s-0.4,0.2-0.8,0.6
	c-0.3,0.4-0.7,0.7-1.1,0.9c-0.4,0.1-0.8,0.1-1.2-0.1c-0.2-0.1-0.3-0.4-0.3-0.9c0-0.5,0.1-0.8,0.3-1c0.2-0.1,0.2-0.3,0-0.4
	c-0.2-0.1-0.7-0.3-1.6-0.6c-0.4-0.1-0.7-0.2-0.8-0.2c-0.1,0-0.1,0.1-0.1,0.3c0.1,0.7,0.1,1.3,0.1,1.8c0,0.5-0.1,0.8-0.3,0.9
	c-0.1,0-0.6,0.1-1.6,0c-0.9,0-1.7,0-2.3-0.1c0,0-0.1,0-0.1,0c-0.3,0-0.5,0-0.5,0c0,0,0,0.2,0.2,0.5
	C141.7,29.4,141.8,29.6,141.9,29.7z M178,47.9c0,0,0.1,0.1,0.2,0c0.1,0,0.2,0,0.4,0c0.9-0.1,1.6-0.4,1.9-0.8c0.4-0.4,0.6-1.1,0.6-2
	c0-0.5,0.1-0.9,0.1-1l0,0c0-0.1,0.2-0.2,0.5-0.2c0.3,0,1.4,0,3.2,0c0.4,0,0.7,0,0.9,0c2.2,0,3.5,0,3.9,0c0.4,0,0.6-0.1,0.7-0.2
	c0.1-0.2-0.3-0.7-1.2-1.4c-0.3-0.2-0.5-0.4-0.5-0.5c0-0.1,0-0.2,0.1-0.4c0.4-0.2-0.1-0.8-1.4-1.7c-0.3-0.2-0.5-0.3-0.6-0.3
	c-0.1,0-0.3,0.2-0.6,0.6c0,0,0,0-0.1,0.1c-0.3,0.3-0.5,0.5-0.7,0.6c-0.2,0-0.8,0.1-1.8,0.1c-0.1,0-0.1,0-0.2,0c-0.8,0-1.4,0-1.6,0
	c-0.3,0-0.5-0.1-0.6-0.2c-0.1-0.1-0.1-0.3-0.1-0.6c0-0.4,0.1-0.6,0.2-0.7c0.1-0.1,0.5-0.2,1.2-0.3c0.2,0,0.7-0.1,1.3-0.1
	c0.2,0,0.3,0,0.4,0c0.7-0.1,1.3-0.1,1.7-0.1c0.3,0,0.4,0,0.4-0.1c0-0.1-0.1-0.3-0.4-0.6c-0.7-0.9-1.2-1.3-1.3-1.3c0,0-0.1,0-0.2,0
	c-0.3,0.1-0.5,0.1-0.6,0.2c-1.2,0.3-2.2,0.6-3.2,0.7c-0.9,0.2-1.4,0.2-1.5,0.1c0,0-0.1-0.1-0.1-0.2c0-0.1,0-0.1,0-0.1s0-0.3,0-0.7
	c0-0.4,0-0.8,0-0.9c0-0.2,0.2-0.3,0.3-0.5l0,0l0.2-0.1c0,0-0.1-0.1-0.2-0.2c-0.2-0.1-0.2-0.2-0.1-0.3c0.1-0.1,0.4-0.2,0.7-0.2
	c0.5,0,0.7-0.1,0.7-0.2c0-0.1-0.1-0.3-0.5-0.6c0,0-0.1-0.1-0.1-0.1c-0.4-0.3-0.6-0.6-0.7-0.7c-0.1-0.2-0.1-0.6-0.1-1.3
	c0-0.1,0-0.2,0-0.2c0-0.7,0-1.2,0-1.3c0-0.2,0.2-0.3,0.3-0.5c0.2-0.1,0.2-0.2,0.2-0.3c0-0.1-0.1-0.2-0.2-0.4
	c-0.3-0.4-0.5-0.6-0.5-0.7c0-0.1,0.2-0.2,0.6-0.3c0.9-0.1,0.7-0.6-0.6-1.6c-0.3-0.2-0.6-0.3-0.7-0.3c-0.1,0-0.3,0.2-0.6,0.6
	c-0.3,0.3-0.5,0.5-0.8,0.6c-0.3,0.1-0.6,0.1-0.8,0c-0.2-0.1-0.3-0.2-0.3-0.4c0-0.2,0.1-0.3,0.2-0.5c0.2-0.1,0.2-0.3-0.1-0.4
	c-0.2-0.1-0.8-0.2-1.6-0.3c0,0-0.1,0-0.1,0c-0.2,0-0.4,0-0.4,0c0,0,0,0.2,0,0.6c0,0,0,0.1,0,0.1v0c0,0.4-0.1,0.7-0.2,0.8
	c-0.1,0.1-0.5,0.1-1.2,0.1c-0.5,0-1,0-1.7,0c-0.6,0-1-0.1-1.1-0.1c-0.1,0-0.2,0.1,0,0.4c0.1,0.3,0.3,0.5,0.5,0.7
	c0.4,0.4,0.5,1.9,0.3,4.5c0,0.5-0.1,0.8-0.1,0.9c-0.1,0.1-0.3,0.1-0.6,0.1c-0.3,0-0.4,0-0.4,0.1c0,0,0.1,0.2,0.2,0.6
	c0.1,0.2,0.2,0.4,0.2,0.4c0,0,0.1,0,0.2,0c0.3,0,0.5,0.1,0.6,0.3c0.1,0.2,0.1,0.7,0.1,1.6c0,0.2,0,0.4,0,0.7c0,0.6,0.1,0.9,0.1,1
	c0.2,0.1,0.6,0.1,1,0s0.7-0.3,0.7-0.5c0-0.1,0-0.1,0.1-0.2c0.1-0.1,0.2-0.2,0.3-0.2c0.1-0.1,0.8-0.1,2.1,0c1.3,0,2,0.1,2.1,0.1
	c0.2,0.1,0.3,0.2,0.3,0.3c0,0.1,0,0.3-0.1,0.3c-0.3,0.2-1.8,0.4-4.6,0.7c-0.3,0-0.5,0-0.6,0.1c-0.1,0-0.1,0.1-0.1,0.2
	c0.1,0.2,1.6,0.2,4.7,0.1c1.2,0,1.9,0,2,0c0.2,0.1,0.3,0.4,0.3,0.7c0,0.3-0.1,0.6-0.3,0.7c-0.2,0.1-1.2,0.1-3.2,0.1
	c-2,0-3.3-0.1-4.1-0.2c-0.3,0-0.4,0-0.5,0c0,0,0.1,0.2,0.2,0.5c0,0,0,0,0,0.1c0.1,0.2,0.2,0.4,0.3,0.4c0.1,0,0.3,0,0.6,0
	c0.1,0,0.1,0,0.2,0c0.9-0.1,2.2-0.2,3.8-0.2c1.6,0,2.5,0,2.7,0.1c0.2,0.1,0.3,0.4,0.3,0.8c0,0.4-0.1,0.6-0.4,0.7
	c-0.1,0.1-1.6,0.1-4.2,0.1c-2.7,0-4.3-0.1-4.8-0.2c-0.1,0-0.2,0-0.2,0.1s0.1,0.2,0.2,0.5c0,0,0,0.1,0.1,0.1c0.1,0.2,0.2,0.3,0.3,0.4
	c0.1,0,0.3,0,0.6,0c0.1,0,0.2,0,0.2,0c1.1-0.1,2.7-0.2,4.9-0.2c0.1,0,0.1,0,0.2,0c1.2,0,2,0,2.3,0c0.4,0,0.7,0.1,0.8,0.2
	c0.1,0.1,0.1,0.3,0.1,0.6c0,0,0,0.1,0,0.1c0,0.3-0.1,0.5-0.1,0.6c-0.1,0.1-0.3,0.2-0.6,0.2c-0.3,0-0.8,0-1.6,0
	c-0.9-0.1-1.4-0.1-1.4,0c-0.1,0.1,0.1,0.2,0.5,0.3c0.7,0.1,1.2,0.3,1.6,0.6c0.4,0.3,0.6,0.7,0.7,1.2C178,47.8,178,47.9,178,47.9z
	 M184.1,43.2c-1.7,0-2.6,0-2.7-0.1c-0.2-0.1-0.3-0.4-0.4-0.8c0-0.4,0.1-0.7,0.3-0.8c0.1-0.1,1.2-0.1,3.2-0.1c2,0,3.1,0.1,3.2,0.1
	c0.2,0.1,0.1,0.3-0.1,0.7c-0.2,0.4-0.5,0.7-0.8,0.8C186.7,43.2,185.8,43.2,184.1,43.2z M188.7,37.6c0.3,0.1,0.5,0.1,0.5,0.1
	c0,0,0.1-0.1,0.2-0.3c0.2-0.7,0.6-1.1,1.1-1.3c0.3-0.2,0.3-0.3-0.1-0.4c-1.5-0.2-2.5-0.4-3-0.5c-0.6-0.2-0.9-0.3-0.9-0.6
	c0-0.2,0.2-0.5,0.6-0.9c0.4-0.4,0.7-0.8,0.9-1c0.2-0.2,0.4-0.3,0.6-0.4c0.2-0.1,0.3-0.1,0.3-0.2c0-0.1-0.1-0.3-0.3-0.5
	c-0.3-0.3-0.4-0.5-0.4-0.6c0-0.1,0.3-0.2,0.7-0.3c0.6-0.1,1.1-0.3,1.3-0.6c0.2-0.3,0.2-0.6-0.1-1c-0.2-0.2-0.3-0.5-0.4-0.9
	c0-0.6-0.2-0.6-0.4,0c-0.1,0.4-0.4,0.7-0.7,0.8c-0.4,0.2-0.7,0.2-1,0c-0.2-0.1-0.3-0.4-0.3-0.8s0.2-0.7,0.4-0.8
	c0.2-0.1,0.3-0.2,0.2-0.3c-0.1-0.1-0.3-0.4-0.7-0.8c-0.4-0.4-0.7-0.6-0.8-0.6c-0.1,0-0.3,0.1-0.6,0.5c-0.4,0.5-0.8,0.7-1.2,0.7
	c-0.5,0-1.2-0.2-2.1-0.6c-0.1,0-0.2-0.1-0.3-0.1c-0.3-0.2-0.5-0.2-0.6-0.1c0,0.1-0.1,0.3-0.1,0.8c0,0.2,0,0.3,0,0.5
	c0,1-0.1,1.8-0.3,2.4c-0.2,0.5-0.5,1-1,1.4c-0.2,0.1-0.3,0.3-0.2,0.4c0,0.1,0.1,0.1,0.3,0.1c0.2,0,0.4,0.1,0.6,0.6
	c0.2,0.3,0.3,0.4,0.4,0.3c0.1-0.1,0.3-0.1,0.5,0c0.2,0.1,0.4,0.3,0.6,0.6c0.1,0.3,0.3,0.5,0.6,0.9c0.4,0.5,0.4,0.9,0,1.3
	c-0.3,0.3-1.1,0.7-2.4,1.2c-0.4,0.1-0.6,0.3-0.6,0.3c0,0.2,0.1,0.2,0.4,0.2c1.1-0.2,2.2-0.5,3.3-0.9c0.4-0.2,0.7-0.2,0.9-0.2
	c0.2,0,0.4,0.1,0.7,0.3c1,0.6,2.1,1.1,3.5,1.6C188.6,37.6,188.7,37.6,188.7,37.6z M177.1,36.6c-0.3,0.2-0.6,0.2-0.8,0
	c-0.2-0.2-0.4-0.6-0.4-1.1c0-0.5,0.1-0.8,0.3-1c0.2-0.2,0.5-0.2,0.8,0c0.2,0.1,0.3,0.4,0.3,1C177.3,36.2,177.2,36.5,177.1,36.6z
	 M173.6,36.7c-0.2,0.1-0.5,0.1-0.7,0c-0.2-0.1-0.3-0.2-0.4-0.4c0-0.2,0.1-0.3,0.3-0.5c0.2-0.1,0.2-0.2,0.2-0.3
	c0-0.1-0.2-0.2-0.5-0.3c-0.9-0.4-0.8-0.7,0.4-0.7c0.5,0,0.8,0.1,0.9,0.2c0.1,0.1,0.2,0.5,0.1,1C174,36.3,173.9,36.6,173.6,36.7z
	 M177.7,33.8c-0.5,0.2-0.9,0.2-1.4,0c-0.4-0.2-0.6-0.5-0.3-0.8c0.1-0.2,0.4-0.2,0.8-0.2c0.4,0,0.6,0.1,0.7,0.3
	c0,0.1,0.1,0.1,0.2,0.2c0.1,0,0.2,0.1,0.2,0.2C177.9,33.6,177.9,33.7,177.7,33.8z M173.7,33.8c-0.2,0.1-0.5,0.2-1,0.1
	c-0.5,0-0.8-0.1-0.8-0.3c0-0.1,0.1-0.2,0.3-0.4c0.2-0.2,0.4-0.3,0.5-0.4c0.3-0.1,0.6-0.1,0.8,0c0.3,0.1,0.4,0.2,0.5,0.4
	C174,33.5,173.9,33.6,173.7,33.8z M184.8,33.6c-0.2,0.1-0.4,0.2-0.5,0.1c-0.2,0-0.4-0.2-0.6-0.4c-0.7-0.5-0.9-0.9-0.6-1.1
	c0.1-0.1,0.4-0.1,1.1-0.1c0.7,0,1.1,0,1.2,0c0.2,0.1,0.2,0.3,0.1,0.6C185.4,33.2,185.2,33.4,184.8,33.6z M177.3,32
	c-0.2,0.2-0.5,0.2-0.8,0.2c-0.4-0.1-0.6-0.2-0.6-0.5c0-0.4,0.3-0.6,0.8-0.6c0.4,0,0.6,0.1,0.7,0.3C177.6,31.6,177.5,31.8,177.3,32z
	 M173.6,32.1c-0.2,0.1-0.4,0.1-0.7,0.1c-0.3,0-0.5-0.1-0.5-0.2c-0.1-0.3-0.1-0.5,0.2-0.6c0.3-0.2,0.6-0.2,0.9-0.1
	c0.2,0.1,0.3,0.2,0.4,0.4C173.9,31.8,173.8,32,173.6,32.1z M184.5,31.6c-0.8,0-1.5,0-2,0c-0.5,0-0.9-0.1-1-0.2
	c-0.1-0.1,0-0.3,0.2-0.5c0.5-0.4,0.9-0.9,1.2-1.2c0.2-0.4,0.4-0.8,0.5-1.4c0.1-0.3,0.2-0.6,0.3-0.6c0.1-0.1,0.4-0.1,0.8-0.1
	c0.5,0,0.8,0.1,0.9,0.2c0.1,0.1,0.2,0.6,0.2,1.3c0,0.6,0,1,0.1,1.2c0.1,0.2,0.2,0.3,0.4,0.5c0.3,0.1,0.4,0.3,0.4,0.5
	c0,0.2-0.2,0.3-0.5,0.4C185.8,31.5,185.3,31.6,184.5,31.6z M177.2,30.4c-0.2,0.1-0.4,0.1-0.7,0c-0.3,0-0.4-0.1-0.5-0.3
	c-0.1-0.3-0.1-0.5,0.2-0.6c0.3-0.2,0.6-0.2,1-0.1c0.2,0.1,0.3,0.2,0.3,0.4C177.5,30.2,177.4,30.4,177.2,30.4z M173.7,30.3
	c-0.1,0.1-0.3,0.2-0.6,0.2c-0.3,0-0.5-0.1-0.6-0.2c-0.2-0.2-0.2-0.4,0-0.5c0.1-0.2,0.4-0.3,0.7-0.3c0.3,0,0.6,0.1,0.7,0.3
	C173.9,30,173.9,30.1,173.7,30.3z M177.2,28.8c-0.4,0.1-0.7,0.1-1,0c-0.3-0.2-0.4-0.4-0.2-0.6c0.1-0.2,0.4-0.3,0.8-0.3
	c0.5,0,0.7,0.1,0.8,0.2c0,0.1,0,0.2-0.1,0.4C177.5,28.6,177.3,28.7,177.2,28.8z M173.6,28.8c-0.3,0.1-0.7,0.1-1.3,0
	c-0.6-0.2-0.9-0.3-0.9-0.6c0-0.1,0.3-0.2,0.8-0.3c0.5-0.1,1-0.1,1.2,0c0.2,0.1,0.3,0.2,0.4,0.4C173.9,28.5,173.8,28.7,173.6,28.8z
	 M215.6,47c0.9,0.7,1.3,0.9,1.3,0.6c0-0.3,0.2-0.6,0.6-1s0.7-0.7,1.1-0.9c0.3-0.1,0.4-0.2,0.4-0.3c0-0.1-0.2-0.2-0.5-0.3
	c-1.3-0.5-2.5-1.3-3.7-2.3c-0.4-0.3-0.6-0.6-0.6-0.7c0-0.2,0.1-0.5,0.3-0.9c1-1.7,1.7-3.6,2.3-5.7c0.1-0.6,0.3-1,0.4-1.1
	c0.1-0.2,0.2-0.3,0.5-0.3c0.3-0.1,0.4-0.2,0.3-0.4c-0.1-0.2-0.3-0.5-0.8-1c-0.5-0.5-0.8-0.8-1-0.8c-0.1,0-0.4,0.1-0.7,0.5
	c0,0-0.1,0.1-0.2,0.2c-0.3,0.3-0.5,0.4-0.7,0.5c-0.2,0-0.9,0.1-1.9,0.1c-0.3,0-0.5,0-0.7,0c-0.2,0-0.5,0-0.9,0c-0.8,0-1.3,0-1.6,0
	c-0.3,0-0.5-0.2-0.6-0.4c0-0.2-0.1-0.6,0-1.2c0-0.3,0-0.5,0-0.7c0-0.2,0-0.5,0-0.8c0-0.6,0-0.9,0.1-1.1c0.1-0.2,0.4-0.4,0.8-0.4
	c0.3,0,1.1,0,2.3,0c0.7,0,1.2,0,1.7,0c1.8,0,2.9,0,3.4,0c0.7,0,1.1,0,1.2-0.1c0.1,0,0.2-0.1,0.2-0.2c0.1-0.3-0.4-0.8-1.3-1.5
	c-0.4-0.3-0.7-0.5-0.8-0.5c-0.1,0-0.3,0.2-0.6,0.6l0,0c0,0-0.1,0.1-0.1,0.2c-0.2,0.4-0.5,0.6-0.7,0.7c-0.3,0.1-1,0.1-2.2,0.1
	c-0.3,0-0.5,0-0.6,0s-0.3,0-0.6,0c-1.1,0-1.8,0-2.1,0c-0.3,0-0.7-0.2-1.2-0.4c-0.1-0.1-0.3-0.1-0.4-0.1c0,0-0.1,0-0.2-0.1
	c-0.4-0.2-0.7-0.2-0.7-0.2c-0.1,0-0.1,0.2-0.1,0.5c0,0.1,0,0.1,0,0.1c0,0.6,0.1,1.3,0.1,2.2c0,0.9,0,1.4,0,1.5
	c-0.1,0.2-0.2,0.2-0.3,0.2c-0.1,0-0.4-0.3-0.8-0.7l0,0c-0.5-0.5-0.8-0.7-1-0.7c-0.1,0-0.3,0.2-0.6,0.6c-0.3,0.5-0.6,0.7-0.7,0.7
	c-0.2,0-0.3-0.7-0.3-2c0-1.4,0.1-2.1,0.4-2.3c0.3-0.2,0.2-0.4-0.1-0.5c-0.3-0.2-1-0.4-2-0.6c-0.3-0.1-0.4-0.1-0.5,0c0,0,0,0.2,0,0.5
	c0.2,1.3,0.2,2.5,0.2,3.5c0,1-0.1,1.5-0.3,1.7c-0.1,0.1-0.6,0.1-1.5,0.1c-0.8,0-1.4-0.1-1.8-0.2c-0.2,0-0.2,0.2,0.1,0.6l0,0
	c0.1,0.3,0.2,0.4,0.3,0.5c0,0,0.1,0,0.3,0h0c0.4-0.1,0.8-0.2,1.2-0.2c0.4,0,0.7,0,0.9,0c0.1,0.1,0.2,0.2,0.2,0.4
	c0,0.2,0,0.5-0.1,0.9c-0.7,3.3-1.7,6-3,8.1c-0.2,0.3-0.2,0.4-0.3,0.5c0,0.1,0,0.1,0.1,0.2c0.1,0.1,0.4-0.2,1-0.8
	c0.6-0.6,1.2-1.4,1.7-2.3c0.3-0.5,0.5-0.8,0.7-0.9c0.1-0.1,0.2,0,0.3,0.2c0.1,0.2,0.1,1.2,0.1,3c0,1.8-0.1,3.4-0.2,4.7
	c0,0.6-0.1,1-0.1,1.2c0,0.1,0,0.2,0.1,0.3c0.1,0.1,0.2,0.2,0.3,0.2c0.2,0.1,0.6,0,1-0.1c0.4-0.1,0.7-0.3,0.9-0.5
	c0.1-0.1,0.1-0.2,0.1-0.3c0-0.1,0-0.5,0-1.2c0-1-0.1-2.8-0.1-5.6c0-2.7,0-4.2,0-4.3c0.1-0.2,0.2-0.3,0.3-0.2
	c0.1,0.1,0.3,0.3,0.4,0.6c0.1,0.2,0.2,0.5,0.4,1c0.1,0.4,0.2,0.6,0.2,0.7c0,0.3,0.2,0.5,0.5,0.6c0.4,0.1,0.7,0,0.9-0.2
	c0.5-0.4,0.5-1.1,0.1-1.8c-0.4-0.8-1.1-1.4-2.1-2c-0.4-0.2-0.6-0.4-0.6-0.5s-0.1-0.4-0.1-0.9c0,0,0,0,0-0.1c0-0.5,0.1-0.8,0.2-0.9
	c0.1-0.1,0.6-0.1,1.5-0.1c0,0,0.1,0,0.1,0s0.1,0,0.1,0c0.9,0,1.4-0.1,1.5-0.1c0.1-0.1,0.2-0.1,0.2,0c0,0,0.1,0.1,0.1,0.3
	c0,0.1,0,0.9,0,2.2c0,1.3,0,2.2-0.1,2.4c0,0.3-0.1,0.7-0.1,1.2c-0.1,1.6-0.4,3.3-0.8,4.9c-0.4,1.6-1,3-1.7,4.2
	c-0.1,0.2-0.2,0.4-0.2,0.5c0,0.1,0,0.1,0.1,0.1c0.1,0.1,0.5-0.2,1.1-1c0.6-0.7,1.1-1.4,1.5-2.2c0.7-1.2,1.2-2.5,1.5-4
	s0.6-3.2,0.7-5.4v0c0-0.7,0.1-1,0.1-1.2c0-0.1,0.1-0.2,0.3-0.3c0.2-0.1,0.3,0,0.4,0.1c0.1,0.1,0.2,0.4,0.2,0.9
	c0.3,2.2,0.9,4.3,1.6,6.2c0.3,0.6,0.4,1,0.3,1.2c0,0.2-0.3,0.6-0.8,1.3c-1.2,1.5-2.6,2.7-4.2,3.7l0,0c-0.2,0.1-0.4,0.2-0.4,0.3
	c0,0,0,0.1,0,0.2c0.1,0.2,0.9,0,2.2-0.8c1.4-0.8,2.4-1.5,3.2-2.2c0.5-0.5,0.9-0.7,1-0.7c0.2,0,0.4,0.3,0.8,0.8
	C214,45.5,214.7,46.3,215.6,47z M212.9,39.9c-0.3,0.3-0.7,0-1.2-1c-0.5-1-1-2.3-1.4-3.8c0,0,0-0.1,0-0.1c-0.1-0.5-0.2-0.8-0.1-0.9
	c0-0.2,0.2-0.3,0.5-0.3c0.2,0,0.7,0,1.6,0c0.1,0,0.2,0,0.2,0c1.1,0,1.7,0,1.9,0c0.2,0,0.3,0.1,0.4,0.3c0.1,0.3-0.1,1.3-0.6,2.9
	C213.6,38.7,213.2,39.6,212.9,39.9z M232.2,47.8c0.1,0.3,1,0.1,2.7-0.6c1.7-0.7,3.1-1.4,4.2-2.2c0,0,0,0,0.1-0.1
	c0.4-0.3,0.7-0.4,0.8-0.4c0.2,0,0.5,0.3,1,0.8c0,0,0.1,0.1,0.1,0.1c0.9,0.9,1.8,1.7,3,2.3c0.3,0.2,0.4,0.3,0.5,0.3
	c0,0,0.1-0.1,0.2-0.2c0.4-0.8,0.9-1.3,1.7-1.6c0.2-0.1,0.3-0.2,0.3-0.2c0-0.1-0.3-0.2-0.7-0.4c-0.8-0.3-1.6-0.7-2.5-1.3
	c-0.9-0.6-1.5-1-1.7-1.2c-0.1-0.2-0.1-0.3-0.1-0.5c0.1-0.2,0.3-0.5,0.7-1c0.9-1.2,1.7-2.8,2.4-4.6c0.2-0.4,0.4-0.7,0.7-0.7
	c0.3-0.1,0.4-0.2,0.4-0.4c0-0.2-0.3-0.5-0.8-1c-0.5-0.5-0.9-0.8-1.1-0.8c-0.1,0-0.4,0.1-0.7,0.5c-0.3,0.3-0.5,0.5-0.7,0.6
	c-0.1,0.1-0.3,0.1-0.5,0.1c-0.3,0-0.5-0.1-0.6-0.3c-0.1-0.2-0.1-0.8-0.1-1.8c0-0.1,0-0.3,0-0.6c0-0.6,0-0.9,0-1.1
	c0.1-0.2,0.2-0.3,0.5-0.4c0.2,0,0.7,0,1.4,0c0.3,0,0.5,0,0.7,0c1.6,0,2.4-0.1,2.5-0.3c0.1-0.2-0.4-0.8-1.5-1.6
	c-0.3-0.2-0.5-0.4-0.6-0.3c-0.1,0-0.3,0.2-0.5,0.5l0,0c-0.4,0.5-0.6,0.8-0.7,0.9c-0.1,0.1-0.4,0.1-0.8,0.1c-0.4,0-0.7-0.1-0.8-0.2
	c-0.1-0.2-0.1-0.7-0.1-1.5c0-0.7,0-1.2,0-1.4c0-0.2,0.1-0.4,0.3-0.4c0.2-0.1,0.2-0.3-0.1-0.5c-0.3-0.2-0.9-0.4-1.8-0.6
	c-0.4-0.1-0.7-0.2-0.8-0.1c-0.1,0-0.1,0.1-0.1,0.2c0.2,1.2,0.2,2.2,0.2,3c0,0.8-0.1,1.3-0.3,1.4c-0.1,0.1-0.7,0.1-1.8,0
	c-1.1,0-1.8-0.1-2.1-0.1c-0.2,0-0.2,0-0.1,0.3c0.1,0.3,0.1,0.4,0,0.5c-0.1,0-0.3,0-0.6-0.2c-0.2-0.1-0.4-0.2-0.5-0.1
	c-0.1,0-0.3,0.2-0.5,0.6c-0.5,0.7-0.9,1-1.3,0.9c-0.4-0.1-0.5-0.6-0.5-1.4c0,0,0-0.1,0-0.2c0-0.4,0-0.7,0.1-0.8
	c0.1-0.2,0.2-0.3,0.5-0.3c0.2,0,0.7,0,1.4,0c0.2,0,0.3,0,0.4,0c1,0,1.6,0,1.9-0.1c0.4,0,0.5-0.2,0.5-0.3c0-0.1-0.2-0.4-0.6-0.8
	c-0.7-0.6-1.1-1-1.3-1c-0.2,0-0.4,0.2-0.7,0.6c-0.6,0.8-1.2,1.1-1.8,0.8c-0.3-0.1-0.4-0.4-0.4-0.8s0.1-0.8,0.3-1
	c0.2-0.2,0.2-0.3,0-0.4c-0.2-0.1-0.7-0.3-1.5-0.5c-0.2,0-0.4-0.1-0.7-0.2c-0.1,0-0.2,0-0.2,0c-0.1,0-0.2,0-0.2,0.1
	c0,0.1,0,0.3,0,0.6c0.1,0.8,0.1,1.4,0,1.7c0,0.3-0.1,0.5-0.3,0.6c-0.1,0.1-0.6,0.1-1.7,0c-1,0-1.7-0.1-2-0.1c-0.2,0-0.2,0.2,0.1,0.6
	c0.1,0.3,0.2,0.5,0.3,0.5c0.1,0,0.3,0,0.7-0.1c1.2-0.2,2-0.3,2.4-0.1c0.4,0.1,0.6,0.6,0.6,1.3c0,0.7-0.2,1.1-0.6,1.3
	c-0.4,0.1-1.3,0.1-2.7,0c-0.3,0-0.4,0-0.5,0c0,0,0,0.2,0.2,0.5l0,0c0.1,0.3,0.2,0.4,0.3,0.5c0.1,0,0.3,0,0.6,0
	c0.7-0.1,1.3-0.2,1.8-0.2c0.6,0,1.7,0,3.6,0c1.8,0,2.8,0,3.1,0s0.5-0.1,0.6-0.1c0.1-0.1,0.1-0.1,0.1-0.2c0,0,0-0.2-0.1-0.3
	c-0.2-0.3-0.2-0.6-0.1-0.7c0.2-0.1,0.7-0.2,1.6-0.3c0.8-0.1,1.3-0.1,1.5-0.1c0.3,0,0.5,0.2,0.6,0.5c0,0.2,0.1,0.8,0.1,1.6
	c0,0.1,0,0.3,0,0.5c0,0.6,0,1,0,1.2c-0.1,0.2-0.2,0.4-0.4,0.4c-0.2,0-0.5,0-1.1,0c-0.2,0-0.4,0-0.5,0c-0.8,0-1.3,0-1.5-0.1
	c-0.2-0.1-0.6-0.3-1.1-0.7c0,0-0.1-0.1-0.2-0.1c-0.5-0.4-0.8-0.6-0.9-0.6c-0.1,0-0.2,0-0.4,0.2c0,0-0.1,0.1-0.1,0.1c0,0,0,0-0.1,0.1
	c-0.2,0.3-0.5,0.4-0.7,0.5c-0.2,0-0.8,0.1-1.7,0.1c-0.1,0-0.2,0-0.2,0c-1,0-1.6,0-1.8,0c-0.2,0-0.6-0.2-1.2-0.4
	c-0.1,0-0.2-0.1-0.3-0.1c-0.4-0.2-0.7-0.3-0.8-0.3c-0.1,0-0.1,0.2,0,0.5c0,0.1,0,0.1,0,0.2c0,0.4,0.1,1.4,0.1,3.2c0,1,0,1.6,0,1.9
	c0,0.4,0,0.6,0.1,0.7c0,0,0.1,0.1,0.2,0h0c0.7-0.1,1.1,0.8,1.4,2.6c0.1,0.4,0.1,0.6,0.1,0.7c0,0.1,0.2,0.2,0.4,0.3
	c0.3,0.2,0.4,0.3,0.4,0.3c0,0.2-0.8,0.4-2.3,0.6c-0.2,0-0.4,0.1-0.7,0.1c-0.2,0-0.4,0-0.4,0c-0.1,0-0.2,0.1-0.1,0.3
	c0,0.1,0.2,0.5,0.5,1.2c0.3,0.8,0.6,1.2,0.6,1.3c0.1,0.1,0.2,0,0.4-0.2c0.1-0.2,0.8-0.5,2.1-1c2-0.8,3.7-1.4,5.1-2.1s2.2-1,2.2-1.1
	s-0.1-0.1-0.2-0.1c-0.1,0-0.6,0.1-1.4,0.2c-0.1,0-0.2,0-0.3,0.1c-1,0.2-1.6,0.2-1.7,0.2c-0.2,0-0.3-0.1-0.2-0.3
	c0-0.1,0.1-0.4,0.4-0.7c0.3-0.4,0.5-0.6,0.6-0.9c0.4-0.5,0.6-0.8,0.8-0.9c0.2-0.1,0.2-0.2,0.2-0.2c0-0.1-0.1-0.1-0.3-0.2
	c-0.5-0.2-0.4-0.5,0.2-0.8c0,0,0.1,0,0.1-0.1c0.2-0.1,0.4-0.2,0.4-0.4c0-0.1,0-0.6,0-1.2c0-0.1,0-0.2,0-0.2c0-0.8,0-1.4,0-1.6
	c0-0.2,0.1-0.4,0.2-0.6c0.3-0.3,0.6-0.3,0.6,0c0,0.1,0.1,0.2,0.2,0.3c0.1,0,0.2,0,0.5,0c0.4,0,0.6,0,0.7,0.1s0.2,0.4,0.3,0.8
	c0.4,2,0.9,3.7,1.6,5c0.2,0.4,0.3,0.7,0.3,0.9c0,0.2-0.1,0.4-0.3,0.6c-0.6,0.7-1.4,1.4-2.6,2.2c-1.1,0.8-2.2,1.4-3.3,1.8
	c0,0,0,0-0.1,0c-0.2,0.1-0.4,0.2-0.4,0.2S232.2,47.7,232.2,47.8z M229.8,44.2c-0.4,0-0.6,0-0.6,0c0,0,0-0.2,0.2-0.4
	c0.4-0.4,0.5-1,0.3-1.5c-0.2-0.6-0.6-1.1-1.3-1.6c-0.5-0.3-0.6-0.6-0.4-0.9c0.1-0.1,0.1-0.2,0.1-0.2c0-0.1,0.1-0.2,0.2-0.3
	c0.1-0.1,0.8-0.2,2-0.2c1.2,0,1.9,0,2,0.1c0.2,0.2,0.2,0.4,0.1,0.6c-0.1,0.2-0.3,0.2-0.6,0.1c-0.1,0-0.2,0-0.3,0c0,0,0,0.2,0,0.5
	c0,0.4,0,1-0.1,1.7c-0.1,0.7-0.2,1.2-0.3,1.5c-0.1,0.3-0.2,0.5-0.5,0.6C230.3,44.1,230.1,44.2,229.8,44.2z M240.3,41.1
	c-0.2,0.1-0.3,0.1-0.5,0c-0.4-0.3-0.9-1.1-1.6-2.5c-0.7-1.4-0.9-2.2-0.7-2.4c0.1-0.1,0.2-0.2,0.5-0.2c0.2,0,0.9,0,2,0
	c1.2,0,1.8,0,2,0c0.2,0,0.3,0.1,0.4,0.3c0.1,0.3-0.2,1.1-0.7,2.5C241.1,40,240.6,40.8,240.3,41.1z M230.3,38.3c-1.1,0-1.7,0-1.8-0.1
	c-0.2-0.1-0.4-0.6-0.4-1.4c0-0.8,0.1-1.3,0.3-1.5c0.1-0.1,0.7-0.1,1.8-0.1c1.1,0,1.8,0,1.9,0.1c0.2,0.1,0.4,0.6,0.3,1.5
	c0,0.8-0.1,1.3-0.4,1.4C232,38.3,231.4,38.3,230.3,38.3z M257,47.2c0,0,0.3,0,0.9,0c0.7-0.1,1.5-0.2,2.3-0.2c0.8,0,2.9,0,6.4,0
	c4.5,0,6.8,0,7,0c0.3-0.1,0.4-0.2,0.3-0.5c-0.1-0.2-0.5-0.6-1.1-1.1c0,0-0.1,0-0.1-0.1c-0.6-0.5-1-0.7-1.1-0.7s-0.4,0.2-0.8,0.7
	c0,0-0.1,0.1-0.1,0.1c0,0-0.1,0.1-0.1,0.2c-0.3,0.4-0.5,0.6-0.7,0.6c-0.2,0.1-0.6,0.1-1.4,0.1c-0.1,0-0.2,0-0.3,0
	c-0.2,0-0.4,0-0.6,0c-0.5,0-0.9,0-1-0.1c-0.2-0.1-0.3-0.4-0.4-0.8c0-0.3,0-1,0-2.1c0-0.5,0-1,0-1.3c0-0.4,0-0.9,0-1.5c0-1,0-1.7,0-2
	c0.1-0.4,0.2-0.6,0.5-0.7c0.2-0.1,0.7-0.1,1.4-0.1c0.4,0,0.8,0,1.1,0c1.3,0,2.2-0.1,2.5-0.1c0.4-0.1,0.6-0.3,0.4-0.5
	c-0.2-0.2-0.6-0.6-1.5-1.2c0,0-0.1,0-0.1-0.1c-0.4-0.3-0.6-0.4-0.7-0.3c-0.1,0-0.3,0.2-0.7,0.6c0,0-0.1,0.1-0.1,0.1
	c0,0.1-0.1,0.2-0.2,0.3c-0.2,0.2-0.3,0.4-0.4,0.5c-0.2,0.1-0.5,0.2-0.9,0.2c-0.3,0-1,0-2.1,0c-0.4,0-0.8,0-1.1,0c-0.2,0-0.5,0-0.9,0
	c-1.3,0-2.2,0-2.5,0c-0.5,0-0.8-0.1-0.9-0.2c0-0.1,0-0.3,0.1-0.6c0-0.1,0.1-0.1,0.1-0.2c0.5-1.4,0.8-2.5,1-3.1
	c0-0.1,0.1-0.3,0.1-0.5c0.1-0.4,0.2-0.6,0.3-0.7c0.2-0.1,0.6-0.2,1.1-0.3c0.4,0,1.4,0,2.9,0c0.8,0,1.5,0,2,0c3,0,4.7,0,5.2,0
	c0.5,0,0.8-0.1,0.9-0.2c0.1-0.1-0.1-0.4-0.4-0.7c-0.4-0.4-0.9-0.8-1.5-1.3c-0.3-0.2-0.4-0.2-0.6-0.2c-0.1,0-0.4,0.3-0.7,0.8
	c0,0.1-0.1,0.2-0.2,0.3c-0.2,0.2-0.3,0.4-0.4,0.5c-0.2,0.1-0.4,0.2-0.9,0.2c-0.3,0-1,0-2,0c-0.4,0-0.8,0-1,0c-0.3,0-0.7,0-1.2,0
	c-1.1,0-1.9,0-2.2,0c-0.4,0-0.7-0.2-0.7-0.3c0-0.1,0-0.4,0.1-0.9c0-0.2,0.1-0.4,0.1-0.5c0.1-0.6,0.2-1.1,0.3-1.6
	c0.1-0.4,0.2-0.6,0.2-0.7c0.1-0.1,0.2-0.2,0.4-0.3c0.2-0.1,0.3-0.1,0.4-0.2c0.1-0.1,0.1-0.2,0-0.2c0,0-0.6-0.1-1.8-0.3
	c-1.2-0.2-1.7-0.3-1.8-0.2c0,0,0,0.4,0,1.2c0,2.5-0.3,3.9-0.7,4.1c-0.2,0.1-1.1,0.1-2.9,0.1c-1.7,0-2.8-0.1-3.3-0.2
	c-0.1,0-0.2,0-0.2,0.1c0,0.1,0.1,0.2,0.2,0.5c0,0,0,0,0,0.1c0.1,0.2,0.2,0.4,0.3,0.4c0.1,0,0.3,0,0.7,0c0.1,0,0.2,0,0.3,0
	c0.9-0.1,1.9-0.2,3.1-0.2c0,0,0,0,0.1,0c0.7,0,1.1,0,1.2,0c0.2,0,0.4,0.2,0.4,0.3c0,0.1,0,0.4-0.1,0.9c0,0,0,0.1,0,0.1
	c-0.6,2.6-1.4,4.9-2.4,7.2c-1,2.2-2.2,4-3.5,5.5c0,0.1-0.1,0.2-0.2,0.3c-0.2,0.2-0.3,0.3-0.3,0.3c-0.1,0.1-0.1,0.2-0.1,0.3
	c0.1,0.1,0.1,0.1,0.2,0c0.1,0,0.3-0.2,0.6-0.4c2.3-1.8,4.2-4.3,5.7-7.4c0,0,0,0,0-0.1c0.2-0.5,0.4-0.7,0.6-0.8
	c0.2-0.1,0.7-0.1,1.6-0.1c0.1,0,0.2,0,0.3,0c0.2,0,0.4,0,0.7,0c0.5,0,0.9,0,1,0.1c0.2,0.1,0.3,0.3,0.4,0.7c0,0.3,0,0.9,0,2
	c0,0.6,0,1,0,1.4c0,0.2,0,0.4,0,0.7c0,1.6,0,2.6,0,2.9c0,0.3-0.1,0.4-0.2,0.5l0,0c-0.2,0.1-1.2,0.1-3.2,0c-2,0-3.2-0.1-3.6-0.1
	c-0.1,0-0.2,0.1-0.1,0.3C256.7,46.7,256.8,47,257,47.2z M26.9,71.9c0.2,0,0.5,0,0.8,0c0.4,0,0.6-0.1,0.8-0.2
	c0.2-0.1,0.3-0.2,0.3-0.3c0-0.1,0.1-0.3,0.1-0.6c0,0,0-0.1,0-0.2c0-0.3,0-0.4,0.1-0.5c0.1-0.1,0.4-0.2,0.9-0.2c0.3,0,1.1,0,2.3,0
	c0.4,0,0.8,0,1.1,0c0.3,0,0.6,0,1,0c1.3,0,2.1,0,2.4,0c0.5,0,0.8,0.1,0.9,0.2c0.1,0.1,0.1,0.3,0.1,0.6c0,0.1,0,0.2,0,0.2
	c0,0.5,0.1,0.8,0.2,0.9c0.2,0.1,0.6,0.1,1.2-0.1c0.5-0.1,0.8-0.3,0.9-0.5c0.1-0.1,0.1-0.5,0.1-1.1C40,68.6,40,67,40,65.3
	c0-1.8,0-2.7,0.1-2.8c0.1-0.2,0.2-0.3,0.4-0.4c0.3-0.1,0.4-0.2,0.3-0.3c0-0.1-0.2-0.4-0.6-0.7c-0.7-0.7-1.1-1-1.3-1.1
	c-0.2,0-0.5,0.2-0.8,0.6c0,0-0.1,0.1-0.1,0.2c-0.1,0.2-0.3,0.3-0.4,0.4c-0.2,0.1-0.5,0.1-0.9,0.1c-0.3,0-1,0-2.2,0c-0.5,0-1,0-1.3,0
	c-2,0-3.2,0-3.6,0c-0.4,0-0.6-0.1-0.8-0.1c-0.5-0.2-0.8-0.3-0.9-0.5c-0.1-0.2,0-0.4,0.2-0.8c0.8-1.3,1.3-2.4,1.7-3.1
	c0.3-0.5,0.5-0.9,0.6-1c0.1,0,2.1-0.1,6-0.1c3,0,4.8,0,5.3,0c0.5,0,0.8-0.1,0.9-0.2c0.1-0.2-0.4-0.8-1.5-1.7l0,0
	c-0.4-0.4-0.7-0.5-0.9-0.5c-0.1,0-0.4,0.2-0.7,0.7c0,0-0.1,0.1-0.1,0.1c0,0.1-0.1,0.2-0.2,0.3c-0.2,0.3-0.4,0.5-0.5,0.6
	c-0.2,0.1-0.5,0.2-0.9,0.2c-0.3,0-1,0-2,0c-0.5,0-0.8,0-1.1,0c-0.2,0-0.5,0-0.9,0c-1.2,0-2,0-2.3,0c-0.4,0-0.7-0.1-0.8-0.3
	c0-0.1,0-0.4,0.2-0.8c0-0.1,0.1-0.2,0.1-0.3c0,0,0-0.1,0.1-0.3c0.2-0.5,0.3-0.9,0.3-1.1c0.2-0.6,0.3-0.9,0.4-1.1
	c0.1-0.2,0.2-0.3,0.4-0.4c0.3-0.1,0.3-0.3,0-0.4c-0.3-0.1-1-0.4-2.1-0.6c0,0-0.1,0-0.2,0c-0.4-0.1-0.6-0.1-0.6-0.1s-0.1,0.1-0.1,0.4
	c0,0.1,0,0.1,0,0.1c-0.1,1.2-0.2,2.3-0.5,3.3c-0.3,1-0.5,1.6-0.7,1.7c-0.2,0.1-1,0.1-2.5,0.1c-1.5,0-2.8,0-3.7-0.1
	c-0.3,0-0.4,0-0.5,0c0,0,0.1,0.2,0.2,0.5c0,0,0,0,0,0.1c0.1,0.2,0.2,0.4,0.3,0.4c0.1,0,0.3,0,0.6,0c0.1,0,0.1,0,0.2,0
	c0.8-0.1,1.7-0.2,2.9-0.2c1.2,0,1.8,0,2,0c0.3,0.2,0.2,0.8-0.3,2c-0.5,1.1-1.2,2.4-2.1,3.8c-1,1.5-1.9,2.7-2.9,3.6
	c-0.5,0.5-0.8,0.8-0.8,0.9c-0.1,0.1-0.1,0.2,0.1,0.2c0.2,0,0.7-0.3,1.5-0.9c0.8-0.7,1.6-1.3,2.3-2c0,0,0.1-0.1,0.1-0.1
	c0.5-0.4,0.8-0.7,0.9-0.8c0.2-0.1,0.3,0,0.3,0.3c0,0.2,0,0.8,0,1.6c0,0.1,0,0.2,0,0.3c0,1.9,0,3.6-0.1,5.3c0,0.8-0.1,1.4,0,1.5
	C26.5,71.7,26.7,71.8,26.9,71.9z M33.3,69.1c-2.6,0-4,0-4.2-0.1c-0.1-0.1-0.2-0.3-0.2-0.6c0-0.3,0-1.2,0-2.9c0-0.3,0-0.7,0-1.2
	c0-0.9,0-1.4,0.1-1.7c0.1-0.3,0.3-0.5,0.7-0.6c0.3-0.1,1-0.1,2.1-0.1c0.6,0,1.2,0,1.5,0s0.9,0,1.5,0c1.1,0,1.8,0,2.1,0.1
	c0.4,0.1,0.7,0.3,0.8,0.6c0.1,0.2,0.1,0.8,0.1,1.6c0,0.5,0,0.9,0,1.2c0,1.6,0,2.6,0,2.9c0,0.3-0.1,0.5-0.2,0.6
	C37.3,69.1,35.9,69.1,33.3,69.1z M58.1,63.7c0.1,0.2,0.2,0.3,0.4,0.3c0.2,0,0.5-0.2,0.9-0.6c0.9-0.7,1.6-1.6,2-2.8
	c0.4-1.1,0.4-2.1,0.1-2.9c-0.3-0.9-0.9-1.3-1.8-1.2c-0.6,0-1,0.3-1.3,0.7c-0.2,0.4-0.3,0.9-0.1,1.4c0.2,0.5,0.5,1,1.1,1.3
	c0.3,0.2,0.5,0.3,0.6,0.5c0.1,0.1,0.1,0.2,0.1,0.4c-0.1,0.4-0.3,0.8-0.6,1.3c-0.4,0.5-0.8,0.8-1.2,1.2c-0.2,0.1-0.3,0.2-0.3,0.3
	C57.9,63.4,58,63.5,58.1,63.7z M91.4,71.9c0,0.1,0.4,0.1,1.1-0.1c0.7-0.1,1.2-0.3,1.6-0.6c0.4-0.3,0.6-0.7,0.7-1.2
	c0.1-0.2,0.1-2.9,0.1-8.3c0-0.2,0-0.4,0-0.5c0-5.6,0-8.5,0.1-8.5c0.1-0.1,0.2-0.2,0.4-0.2c0.2,0,0.6-0.1,1.4-0.1
	c1.1,0,1.6-0.1,1.7-0.3c0-0.2-0.4-0.7-1.4-1.5c0,0,0,0-0.1-0.1c-0.5-0.4-0.8-0.6-1-0.6c-0.1,0-0.4,0.3-0.7,0.7c0,0-0.1,0.1-0.1,0.1
	c-0.4,0.5-0.7,0.8-0.9,0.9c-0.2,0-2.7,0-7.7,0c-5.2,0-8.3,0-9.3-0.1c-0.2,0-0.3,0-0.3,0c0,0,0.1,0.2,0.2,0.6c0,0,0,0.1,0,0.1
	c0.1,0.2,0.2,0.4,0.3,0.4c0.1,0,0.2,0,0.6,0c0.7-0.1,1.4-0.2,2.1-0.2c0.7,0,2.6,0,5.9,0c0.3,0,0.8,0,1.3,0c2.6,0,4.1,0,4.5,0
	c0.4,0,0.7,0.1,0.8,0.2l0,0c0.1,0.1,0.1,2.8,0.1,8.1c0,5.3,0,8-0.1,8.2c-0.1,0.2-0.3,0.3-0.6,0.4c-0.3,0-1.1,0-2.5-0.1
	c-0.8,0-1.3-0.1-1.4-0.1c-0.1,0-0.2,0.1-0.2,0.1c0,0.1,0.2,0.2,0.5,0.2c1.8,0.3,2.8,1,3,2.1l0,0C91.3,71.8,91.4,71.8,91.4,71.9z
	 M79.7,67c0.3,0.2,0.7,0.1,1.3-0.1c0.5-0.3,0.8-0.6,0.8-0.9c0,0,0,0,0-0.1c-0.1-0.6-0.1-1,0-1.2c0-0.2,0.2-0.4,0.6-0.4
	c0.2,0,0.8-0.1,1.7-0.1c0,0,0.1,0,0.1,0c0,0,0.1,0,0.2,0c0.8,0,1.3,0,1.5,0c0.3,0,0.5,0.1,0.6,0.3c0,0.1,0.1,0.3,0,0.6v0.1
	c0,0.5,0.1,0.8,0.4,0.9c0.3,0.1,0.8,0,1.4-0.4l0,0c0.3-0.1,0.4-0.2,0.4-0.4s0-0.4,0-1c0-0.6-0.1-1.8-0.1-3.6c0-1.8,0-2.8,0-2.9
	c0.1-0.3,0.2-0.5,0.5-0.6c0.3-0.1,0.4-0.2,0.3-0.4s-0.2-0.4-0.6-0.7c-0.7-0.6-1.1-1-1.3-1.1c-0.2-0.1-0.4,0.1-0.7,0.4
	c0,0-0.1,0.1-0.1,0.2c-0.2,0.3-0.5,0.5-0.6,0.6c-0.2,0-0.7,0.1-1.6,0.1c-0.2,0-0.4,0-0.5,0s-0.3,0-0.5,0c-0.8,0-1.4,0-1.6,0
	c-0.2,0-0.6-0.2-1.1-0.4c-0.1,0-0.2-0.1-0.2-0.1c0,0-0.1-0.1-0.2-0.1c-0.4-0.2-0.7-0.3-0.8-0.3c-0.1,0-0.1,0.2,0,0.5
	c0,0.1,0,0.1,0,0.1c0.1,1.1,0.2,2.7,0.2,4.6c0,1.9,0,3.6-0.1,5.2c0,0.4,0,0.7,0,0.8C79.5,66.9,79.6,67,79.7,67z M84.1,63.6
	c-1.3,0-2,0-2.1-0.1c-0.1-0.1-0.2-0.3-0.3-0.6c0-0.3,0-1.2,0-2.6c0-0.2,0-0.5,0-0.9c0-0.8,0-1.3,0-1.6c0.1-0.3,0.2-0.5,0.5-0.6
	c0.2,0,0.6-0.1,1.2,0c0.3,0,0.5,0,0.7,0s0.4,0,0.7,0c0.6,0,1,0,1.2,0c0.2,0.1,0.4,0.3,0.5,0.6c0,0.2,0,0.7,0,1.6c0,0.4,0,0.7,0,0.9
	c0,1.5,0,2.4,0,2.6c0,0.3-0.1,0.5-0.2,0.6C86,63.5,85.3,63.6,84.1,63.6z M110,71.8c0,0.1,0.2,0.1,0.5,0c0.3-0.1,0.9-0.3,1.8-0.6
	c2.8-1.1,5.2-2.5,7.1-4.4c0.4-0.4,0.7-0.6,0.8-0.7c0.2-0.1,0.4-0.1,0.6,0.1c0.1,0.1,0.4,0.5,0.9,1.1c0.8,1.1,1.5,2.2,2,3.2
	c0.3,0.5,0.4,0.8,0.5,0.9c0.1,0.1,0.3,0.2,0.6,0.3c0.6,0.1,0.9-0.1,1.2-0.6c0.2-0.5,0.2-1.1-0.1-1.8c-0.5-1.3-1.8-2.6-3.8-3.6
	c-0.5-0.3-0.8-0.5-0.9-0.6c0-0.2,0-0.5,0.3-0.9c0.7-1.3,1.3-2.8,1.6-4.3c0.3-1.5,0.6-3.6,0.7-6.3c0-0.6,0-1,0.1-1.2
	c0.1-0.2,0.2-0.3,0.3-0.4c0.3-0.2,0.3-0.3,0-0.4c-0.3-0.1-1-0.2-2.1-0.4c-0.4,0-0.7-0.1-0.8,0c-0.1,0-0.1,0.1-0.1,0.1
	c0.1,0.3,0.1,1.4,0.1,3.2c-0.1,4.1-0.9,7.5-2.5,10.1c-1.6,2.6-4.3,4.8-8,6.6c-0.5,0.2-0.7,0.4-0.8,0.4C110,71.6,110,71.7,110,71.8z
	 M105.8,69.9c0.1,0.1,0.2,0,0.3-0.1c0.2-0.2,0.4-0.4,0.6-0.5c0.2-0.1,0.8-0.4,1.6-0.9c1.8-0.9,3.5-1.8,5.1-2.7
	c1.6-1,2.5-1.5,2.5-1.6c0-0.1-0.1-0.1-0.3-0.1c-0.2,0-1,0.3-2.3,0.7c-1.4,0.4-2.2,0.7-2.5,0.8c-0.3,0.1-0.5,0.1-0.6,0
	c-0.1-0.1-0.2-0.5-0.2-1.1c0-0.7-0.1-2.7-0.1-5.9c0-0.3,0-0.8,0-1.4c0-1.9,0-3.2,0-3.7c0-0.7,0-1.2,0-1.4c0-0.1,0.1-0.3,0.2-0.3l0,0
	c0.2-0.2,0.2-0.3,0.1-0.4c-0.2-0.1-0.6-0.2-1.2-0.2c-0.9-0.1-1.3-0.1-1.3,0c0,0.1,0,2.6,0.1,7.3c0,0.3,0,0.6,0,1.1
	c0,3.3,0.1,5.3,0.1,5.9c0,0.6,0,0.9-0.1,1c-0.1,0.2-1,0.6-2.5,0.9c-0.4,0.1-0.5,0.1-0.5,0.2c0,0,0.2,0.4,0.5,1.2
	C105.6,69.4,105.8,69.8,105.8,69.9z M116.3,59.6c0.5,0.2,1,0,1.2-0.4c0.3-0.4,0.3-1,0-1.7c-0.5-1.4-1.9-2.6-4.2-3.5
	c-0.5-0.2-0.8-0.3-0.8-0.2c0,0.1,0.1,0.3,0.5,0.7c1.3,1.6,2.1,3,2.6,4.3C115.8,59.3,116,59.5,116.3,59.6z M136.9,71.8
	c0.1,0.1,0.1,0.1,0.2,0c0.1,0,0.4-0.1,0.8-0.3c2-0.8,3.7-1.8,4.9-3.1c1.2-1.3,2.2-3,2.9-5c0.7-2,1.1-4.6,1.3-7.8
	c0-0.2,0-0.6,0.1-1.1c0-0.2,0-0.4,0-0.5c0,0,0,0,0-0.1c0-0.4,0.1-0.6,0.1-0.7c0.1-0.1,0.2-0.2,0.5-0.2c0.2,0,0.6,0,1.3,0
	c0,0,0.1,0,0.1,0c0.1,0,0.3,0,0.5,0c0.6,0,1,0,1.2,0.1c0.2,0.1,0.3,0.4,0.4,0.9c0,0.3,0,1.1,0,2.3c0,0.4,0,0.7,0,1
	c-0.2,4.3-0.4,7.2-0.8,8.7c-0.3,1.5-0.8,2.4-1.5,2.5c-0.2,0-0.7,0-1.5,0c-0.8,0-1.4-0.1-1.6-0.1c-0.1,0-0.2,0-0.3,0.1s0,0.2,0.1,0.2
	c0,0,0.2,0,0.5,0.1c0.8,0.2,1.3,0.5,1.6,0.7c0.3,0.3,0.5,0.7,0.5,1.2c0,0.3,0.1,0.4,0.2,0.5c0.1,0,0.4,0,0.9-0.1
	c1-0.2,1.8-0.8,2.3-1.6c0.5-0.9,1-2.5,1.2-4.7c0.3-2,0.5-5.2,0.6-9.5c0-0.9,0.1-1.5,0.1-1.7c0.1-0.2,0.2-0.4,0.6-0.5
	c0.3-0.1,0.4-0.2,0.3-0.3c0-0.1-0.2-0.4-0.6-0.8c-0.8-0.8-1.2-1.1-1.4-1.1c-0.1,0-0.3,0.2-0.7,0.6c-0.4,0.4-0.7,0.7-0.8,0.7
	c-0.2,0.1-1.9,0.1-4.9,0c-3.1,0-4.8-0.1-5.2-0.2c-0.1,0-0.2,0-0.2,0c0,0,0.1,0.2,0.2,0.4c0.2,0.3,0.3,0.5,0.3,0.6
	c0.1,0.1,0.1,0.1,0.2,0.1c0,0,0.1,0,0.3,0c0.2,0,0.3-0.1,0.4-0.1c1.2-0.2,2-0.3,2.4-0.1c0.4,0.1,0.6,0.6,0.6,1.3
	c-0.1,4.7-0.8,8.3-2,11c-1.2,2.6-3,4.6-5.5,5.9c-0.3,0.1-0.4,0.2-0.5,0.3C136.8,71.7,136.8,71.8,136.9,71.8z M136.5,66.3
	c0.2,0,0.9,0.1,2.1,0c1.1,0,1.8-0.1,2.1-0.1c0.7-0.2,1.2-0.4,1.5-0.8c0.2-0.4,0.2-0.8-0.2-1.2c-0.2-0.2-0.3-0.4-0.3-0.5
	c0-0.2-0.1-0.6-0.1-1.4c0-0.9-0.1-1.4-0.1-1.4c-0.1-0.1-0.2,0.1-0.3,0.6c-0.2,1-0.4,1.6-0.5,1.9c-0.1,0.4-0.4,0.6-0.6,0.7
	c-0.2,0.1-0.6,0.1-1.3,0.1c-0.1,0-0.2,0-0.3,0c-0.4,0-0.6-0.1-0.7-0.1c-0.1-0.1-0.2-0.3-0.3-0.7c0-0.3,0-0.9,0-1.8
	c0-0.3,0-0.5,0-0.6c0-0.2,0-0.6,0-1c0-0.8,0-1.3,0-1.5c0.1-0.3,0.2-0.5,0.5-0.6c0.2-0.1,0.7-0.2,1.4-0.3c0.4-0.1,0.7-0.1,1-0.2
	c1.3-0.3,2.1-0.4,2.4-0.6c0.4-0.1,0.6-0.3,0.5-0.5c-0.1-0.1-0.5-0.4-1.1-0.9l0,0c-0.5-0.4-0.8-0.6-1-0.6c-0.2-0.1-0.4,0-0.5,0.1
	c-0.1,0.1-0.2,0.4-0.4,0.9l0,0c-0.2,0.5-0.3,0.8-0.5,0.9c-0.1,0.1-0.5,0.2-1,0.3c0,0-0.1,0-0.2,0c-0.4,0.1-0.7,0.1-0.8,0.1
	c-0.2-0.1-0.3-0.3-0.3-0.6c0-0.2,0-0.8,0-1.8c0-0.2,0-0.4,0-0.5c0-1.3,0-2,0-2.3c0-0.2,0.1-0.4,0.3-0.5c0.5-0.3-0.1-0.6-1.9-1.1
	c0,0,0,0-0.1,0c-0.3-0.1-0.4-0.1-0.5-0.1c0,0,0,0.2,0,0.5c0,0,0,0.1,0,0.1c0.1,0.8,0.1,2.1,0.1,3.8c0,1.7,0,2.6-0.1,2.8
	c-0.1,0.1-0.2,0.2-0.4,0.3c-0.2,0-0.6,0.1-1.2,0.3c0,0-0.1,0-0.2,0c-0.5,0.1-0.9,0.2-0.9,0.2c-0.1,0-0.1,0.2,0,0.3
	c0.1,0.1,0.2,0.2,0.2,0.2c0.1,0,0.4,0,0.8-0.1h0c0.1,0,0.2,0,0.4-0.1c0.5-0.1,0.8-0.1,0.9-0.1c0.2,0.1,0.3,0.3,0.3,0.7
	c0,0.3,0,1,0,2c0,0.4,0,0.7,0,0.9c0,1.5,0,2.5,0.1,2.9c0,0.6,0.2,1,0.3,1.2C135.8,66.1,136.1,66.2,136.5,66.3z M162.7,71.9
	c0,0,0.3,0,0.7,0c0.9-0.2,1.5-0.6,1.8-1.3c0.1-0.2,0.1-0.4,0.1-0.8c0-0.4,0-1.6,0-3.7c0-0.2,0-0.5,0-0.8c0-1.8,0-2.8,0-3.1
	c0-0.3,0.1-0.5,0.2-0.6l0.1,0c0,0,0.3-0.3,0.9-0.6c0.1-0.1,0.2-0.1,0.3-0.2c0.8-0.5,1.2-0.8,1.2-0.9c0-0.1-0.1-0.1-0.2-0.1
	c-0.1,0-0.4,0.1-0.9,0.2l0,0c-0.6,0.2-0.9,0.3-1.1,0.3c-0.2,0-0.3-0.1-0.4-0.4c0-0.2,0-0.7,0-1.5c0,0,0-0.1,0-0.1c0,0,0-0.1,0-0.1
	c0-0.7,0-1.2,0-1.4c0-0.3,0.1-0.5,0.3-0.5c0.1,0,0.4-0.1,0.8,0c0,0,0.1,0,0.1,0c0.7,0,1,0.1,1.1,0.3c0.1,0.2-0.1,0.5-0.6,1.1
	c-0.2,0.3-0.3,0.4-0.3,0.5c0.1,0.1,0.3,0,0.6-0.2c0.4-0.3,0.7-0.4,0.8-0.2c0.1,0.1,0.2,0.6,0.1,1.4c0,0.6,0,1.1,0,1.7
	c0,0.3,0,0.8,0,1.5c0,0.1,0,0.2,0,0.3c0,0.6,0,1,0.2,1.2c0.2,0.1,0.6,0.1,1.2-0.1c0.4-0.1,0.6-0.2,0.7-0.4c0.1-0.1,0.2-0.4,0.2-0.7
	c0-0.6,0.1-0.9,0.3-0.9c0.6,0,1.1-0.5,1.7-1.3c0.6-0.9,0.9-1.8,1.1-2.8c0.1-0.4,0.1-0.7,0.2-0.8c0.1-0.1,0.3-0.2,0.5-0.2
	c0.4,0,0.6,0.1,0.6,0.3c0.1,0.2,0.1,0.8,0.1,1.8c0,0,0,0.1,0,0.2c0,0.8,0,1.2,0.1,1.4c0.1,0.3,0.2,0.5,0.4,0.6
	c0.2,0,0.5,0.1,1.1,0.1c0.1,0,0.2,0,0.3,0c0,0,0.1,0,0.2,0c0.7,0,1.2,0.1,1.3,0.2c0.1,0.1,0.1,0.5,0.1,1.3c0,0.1,0,0.2,0,0.2
	c0,0.4,0,0.7,0,0.8c0,0.1,0.2,0.1,0.5,0.2c0.3,0,0.5,0.1,0.5,0.2c0,0.1,0,0.2-0.2,0.5c-0.3,0.5-0.5,0.8-0.8,0.9s-0.8,0.1-1.7,0.1
	c-0.8,0-1.3,0-1.4,0c-0.2,0-0.3-0.1-0.4-0.3c-0.1-0.2-0.1-0.5,0-0.9c0.1-0.4,0.2-0.7,0.4-0.8c0.2-0.2,0.2-0.3,0-0.4
	c-0.2-0.1-0.7-0.2-1.4-0.3c-0.1,0-0.2,0-0.3,0c-0.4-0.1-0.7-0.1-0.8,0c-0.1,0.1-0.1,0.3-0.1,0.7c0,0.1,0,0.2,0,0.3
	c0,0.7-0.1,1.1-0.1,1.3c0,0.2-0.2,0.3-0.4,0.4c-0.1,0-0.9,0.1-2.1,0c-1.3,0-2.3-0.1-2.9-0.1c-0.3,0-0.4,0-0.5,0c0,0,0,0.2,0.2,0.5
	c0.1,0.3,0.2,0.5,0.3,0.6c0,0,0.3,0,0.8-0.1c1.6-0.2,2.7-0.3,3.3-0.2c0.7,0.1,1,0.3,0.9,0.6c-0.2,0.9-0.8,1.8-1.8,2.7
	c-1,0.9-2.2,1.7-3.6,2.3c-0.4,0.2-0.6,0.3-0.7,0.3c-0.1,0.1-0.1,0.1,0,0.2c0,0.1,0.1,0.1,0.2,0.1c0.1,0,0.3,0,0.6-0.1
	c2-0.6,3.6-1.3,4.8-2.1c1.2-0.8,2-1.8,2.5-3c0.2-0.4,0.4-0.7,0.5-0.6c0.1,0,0.3,0.2,0.5,0.7c0.9,2.2,2.4,3.8,4.4,4.9
	c0.3,0.2,0.5,0.2,0.6,0.2s0.1-0.1,0.2-0.3c0.2-0.8,0.6-1.3,1.3-1.5c0.6-0.2,0.5-0.4-0.2-0.5c-1.4-0.4-2.7-0.9-4-1.7
	c-1.3-0.8-1.9-1.4-1.9-1.9c0-0.1,0-0.2,0.1-0.2c0.1,0,0.4-0.1,0.8-0.1c0.3,0,1,0,2.1,0c1.4,0,2.3,0,2.7-0.1c0.5-0.1,0.7-0.3,0.5-0.6
	c-0.1-0.2-0.6-0.6-1.4-1.3c-0.3-0.2-0.4-0.4-0.5-0.4c0-0.1,0.1-0.2,0.2-0.4c0.1-0.1,0.2-0.2,0.2-0.4c0-0.1,0-0.5,0-1
	c-0.1-1.8-0.1-3-0.1-3.8c0-0.7,0.2-1.2,0.4-1.3c0.3-0.2,0.4-0.3,0.4-0.4c0-0.1-0.2-0.3-0.5-0.6c-0.3-0.3-0.7-0.6-1.1-0.9
	c-0.2-0.2-0.4-0.2-0.5-0.2c-0.1,0-0.3,0.2-0.5,0.6c-0.2,0.3-0.4,0.5-0.5,0.5c-0.1,0-0.6,0.1-1.3,0.1c-0.7,0-1.1,0-1.3,0
	c-0.2,0-0.2-0.1-0.2-0.2c0-0.1,0.3-0.5,1-1.1c0.7-0.6,1.1-0.9,1.3-0.9c0.4,0,0.5-0.1,0.5-0.3c0-0.2-0.3-0.5-0.8-1
	c-0.5-0.5-0.9-0.8-1.1-0.8c-0.2,0-0.4,0.1-0.7,0.5c-0.4,0.4-1,0.7-1.8,0.8s-1.1-0.1-1.1-0.5c0-0.2,0.1-0.4,0.3-0.7
	c0.2-0.3,0.4-0.5,0.5-0.5c0.7-0.1,0.1-0.4-1.5-0.8c-0.5-0.1-0.9-0.2-1-0.2c-0.1,0-0.2,0.1-0.2,0.2c-0.4,1.6-0.8,3-1.5,4.3
	c-0.4,0.7-0.6,1.1-0.8,1.2c-0.2,0-0.5-0.2-1-0.7c-0.5-0.5-0.7-0.8-0.8-0.7c0,0-0.1,0.1-0.3,0.4c0,0-0.1,0.1-0.1,0.1
	c-0.4,0.7-0.7,0.9-0.8,0.8c-0.1-0.2-0.2-0.8-0.2-2c0-0.9,0-1.4,0-1.6c0-0.2,0.1-0.4,0.3-0.5c0.2-0.2,0.2-0.3-0.1-0.5
	c-0.3-0.2-0.9-0.4-1.9-0.6c0,0,0,0-0.1,0c-0.3-0.1-0.4-0.1-0.5,0c0,0,0,0.2,0,0.5c0,0,0,0.1,0,0.1c0.1,0.9,0.2,1.9,0.2,2.9
	c0,1,0,1.6-0.1,1.8c-0.1,0.2-0.3,0.3-0.6,0.3c-0.3,0-0.8,0-1.6-0.1c0,0-0.1,0-0.1,0l-0.6,0c0,0,0.1,0.2,0.2,0.6
	c0.2,0.3,0.3,0.5,0.4,0.5l0.1,0c0.1,0,0.2-0.1,0.3-0.1c0.6-0.2,1-0.2,1.3-0.2c0.3,0,0.4,0.3,0.5,0.6c0.1,0.3,0.1,1,0.1,1.9
	c0,0.1,0,0.3,0,0.6c0,0.7,0,1.2,0,1.4c-0.1,0.3-0.2,0.5-0.4,0.6c-0.2,0.1-0.6,0.2-1.2,0.4c-0.2,0.1-0.4,0.1-0.5,0.1
	c-0.1,0-0.2,0-0.3,0.1c-0.4,0.1-0.5,0.2-0.6,0.3s0,0.4,0.2,0.8c0.1,0.2,0.1,0.3,0.1,0.4c0.3,0.7,0.4,1.1,0.5,1.2
	c0.1,0.1,0.2,0,0.3-0.1c0.2-0.3,0.5-0.6,0.9-0.8c0.4-0.2,0.7-0.3,0.8-0.1c0.1,0.1,0.1,0.3,0.1,0.6c0,0.3,0,1.1,0,2.4
	c0,0.1,0,0.3,0,0.6c0,1,0,1.7,0,1.9c-0.1,0.4-0.2,0.6-0.5,0.7c-0.2,0-0.6,0-1.2,0c-0.1,0-0.2,0-0.3,0c-0.5,0-0.7,0-0.8,0
	c-0.1,0.1,0,0.2,0.4,0.3c0.5,0.1,0.9,0.3,1.2,0.7c0.3,0.4,0.5,0.8,0.5,1.2C162.6,71.7,162.6,71.8,162.7,71.9z M171,60.3
	c-0.2,0.2-0.3,0.2-0.4,0.2c-0.1-0.1-0.2-0.2-0.2-0.5c0-0.3,0-0.9,0-1.9c0-1,0-1.6,0.1-1.7c0.1-0.2,0.3-0.3,0.6-0.3
	c0.4,0,0.6,0,0.8,0.1c0.3,0.2,0.3,0.9,0.1,1.9C171.7,59.2,171.4,59.9,171,60.3z M178.2,59c-0.2,0.1-0.5,0.2-0.9,0.1
	c-0.4,0-0.6-0.2-0.7-0.3c-0.1-0.2-0.2-0.6-0.1-1.3c0-0.7,0.1-1.1,0.2-1.2c0.1-0.1,0.3-0.1,0.7-0.1c0.4,0,0.7,0,0.8,0.1
	c0.2,0.2,0.3,0.6,0.3,1.4C178.6,58.4,178.4,58.8,178.2,59z M172.4,55.4c-0.9,0-1.4,0-1.6,0c-0.4-0.1-0.4-0.5,0.2-1.2l0,0
	c0.2-0.3,0.3-0.4,0.4-0.6c0.3-0.4,0.5-0.6,0.7-0.6c0.2-0.1,0.6-0.1,1.4-0.1c0.7,0,1.1,0,1.2,0.1c0.1,0,0.2,0.2,0.2,0.4
	c0,0.3-0.1,0.6-0.3,1.1c-0.2,0.4-0.4,0.7-0.6,0.8C173.8,55.4,173.3,55.4,172.4,55.4z M189.7,58.6c0.2,0,0.3-0.1,0.3-0.2
	s0.1-0.5,0.3-1.2c0,0,0-0.1,0-0.1c0.4-2,0.6-3.3,0.6-4.1c0.1-0.9,0.1-1.5,0-1.9c-0.1-0.3-0.4-0.5-0.8-0.6c-0.6-0.2-1-0.1-1.3,0.2
	s-0.5,0.8-0.5,1.4c0,0.5,0.2,1.7,0.5,3.5c0.3,1.8,0.5,2.8,0.6,2.9C189.3,58.6,189.4,58.6,189.7,58.6L189.7,58.6z M194.3,58.6
	c0.2,0,0.4-0.4,0.6-1.1c0.2-0.7,0.4-2.1,0.7-4.1c0.2-1.1,0.1-1.9-0.1-2.4c-0.2-0.5-0.6-0.7-1.3-0.6c-0.5,0-0.9,0.3-1.1,0.7
	c-0.2,0.4-0.2,1.1-0.1,2.1c0.1,0.6,0.2,1.7,0.5,3.1c0.3,1.4,0.4,2.2,0.4,2.2C194,58.6,194.1,58.6,194.3,58.6z M206.2,71.8
	c0.1,0.1,0.1,0.1,0.2,0c0.1,0,0.4-0.1,0.8-0.3c2-0.8,3.7-1.8,4.9-3.1c1.2-1.3,2.2-3,2.9-5c0.7-2,1.1-4.6,1.3-7.8
	c0-0.2,0-0.6,0.1-1.1c0-0.2,0-0.4,0-0.5c0,0,0,0,0-0.1c0-0.4,0.1-0.6,0.1-0.7c0.1-0.1,0.2-0.2,0.5-0.2c0.2,0,0.6,0,1.3,0
	c0,0,0.1,0,0.1,0c0.1,0,0.3,0,0.5,0c0.6,0,1,0,1.2,0.1c0.2,0.1,0.3,0.4,0.4,0.9c0,0.3,0,1.1,0,2.3c0,0.4,0,0.7,0,1
	c-0.2,4.3-0.4,7.2-0.8,8.7c-0.3,1.5-0.8,2.4-1.5,2.5c-0.2,0-0.7,0-1.5,0c-0.8,0-1.4-0.1-1.6-0.1c-0.1,0-0.2,0-0.3,0.1s0,0.2,0.1,0.2
	c0,0,0.2,0,0.5,0.1c0.8,0.2,1.3,0.5,1.6,0.7c0.3,0.3,0.5,0.7,0.5,1.2c0,0.3,0.1,0.4,0.2,0.5c0.1,0,0.4,0,0.9-0.1
	c1-0.2,1.8-0.8,2.3-1.6c0.5-0.9,1-2.5,1.2-4.7c0.3-2,0.5-5.2,0.6-9.5c0-0.9,0.1-1.5,0.1-1.7c0.1-0.2,0.2-0.4,0.6-0.5
	c0.3-0.1,0.4-0.2,0.3-0.3c0-0.1-0.2-0.4-0.6-0.8c-0.8-0.8-1.2-1.1-1.4-1.1c-0.1,0-0.3,0.2-0.7,0.6c-0.4,0.4-0.7,0.7-0.8,0.7
	c-0.2,0.1-1.9,0.1-4.9,0c-3.1,0-4.8-0.1-5.2-0.2c-0.1,0-0.2,0-0.2,0c0,0,0.1,0.2,0.2,0.4c0.2,0.3,0.3,0.5,0.3,0.6
	c0.1,0.1,0.1,0.1,0.2,0.1c0,0,0.1,0,0.3,0c0.2,0,0.3-0.1,0.4-0.1c1.2-0.2,2-0.3,2.4-0.1c0.4,0.1,0.6,0.6,0.6,1.3
	c-0.1,4.7-0.8,8.3-2,11c-1.2,2.6-3,4.6-5.5,5.9c-0.3,0.1-0.4,0.2-0.5,0.3C206.2,71.7,206.2,71.8,206.2,71.8z M205.9,66.3
	c0.2,0,0.9,0.1,2.1,0c1.1,0,1.8-0.1,2.1-0.1c0.7-0.2,1.2-0.4,1.5-0.8c0.2-0.4,0.2-0.8-0.2-1.2c-0.2-0.2-0.3-0.4-0.3-0.5
	c0-0.2-0.1-0.6-0.1-1.4c0-0.9-0.1-1.4-0.1-1.4c-0.1-0.1-0.2,0.1-0.3,0.6c-0.2,1-0.4,1.6-0.5,1.9c-0.1,0.4-0.4,0.6-0.6,0.7
	c-0.2,0.1-0.6,0.1-1.3,0.1c-0.1,0-0.2,0-0.3,0c-0.4,0-0.6-0.1-0.7-0.1c-0.1-0.1-0.2-0.3-0.3-0.7c0-0.3,0-0.9,0-1.8
	c0-0.3,0-0.5,0-0.6c0-0.2,0-0.6,0-1c0-0.8,0-1.3,0-1.5c0.1-0.3,0.2-0.5,0.5-0.6c0.2-0.1,0.7-0.2,1.4-0.3c0.4-0.1,0.7-0.1,1-0.2
	c1.3-0.3,2.1-0.4,2.4-0.6c0.4-0.1,0.6-0.3,0.5-0.5c-0.1-0.1-0.5-0.4-1.1-0.9l0,0c-0.5-0.4-0.8-0.6-1-0.6c-0.2-0.1-0.4,0-0.5,0.1
	c-0.1,0.1-0.2,0.4-0.4,0.9l0,0c-0.2,0.5-0.3,0.8-0.5,0.9c-0.1,0.1-0.5,0.2-1,0.3c0,0-0.1,0-0.2,0c-0.4,0.1-0.7,0.1-0.8,0.1
	c-0.2-0.1-0.3-0.3-0.3-0.6c0-0.2,0-0.8,0-1.8c0-0.2,0-0.4,0-0.5c0-1.3,0-2,0-2.3c0-0.2,0.1-0.4,0.3-0.5c0.5-0.3-0.1-0.6-1.9-1.1
	c0,0,0,0-0.1,0c-0.3-0.1-0.4-0.1-0.5-0.1c0,0,0,0.2,0,0.5c0,0,0,0.1,0,0.1c0.1,0.8,0.1,2.1,0.1,3.8c0,1.7,0,2.6-0.1,2.8
	c-0.1,0.1-0.2,0.2-0.4,0.3c-0.2,0-0.6,0.1-1.2,0.3c0,0-0.1,0-0.2,0c-0.5,0.1-0.9,0.2-0.9,0.2c-0.1,0-0.1,0.2,0,0.3
	c0.1,0.1,0.2,0.2,0.2,0.2c0.1,0,0.4,0,0.8-0.1h0c0.1,0,0.2,0,0.4-0.1c0.5-0.1,0.8-0.1,0.9-0.1c0.2,0.1,0.3,0.3,0.3,0.7
	c0,0.3,0,1,0,2c0,0.4,0,0.7,0,0.9c0,1.5,0,2.5,0.1,2.9c0,0.6,0.2,1,0.3,1.2C205.1,66.1,205.4,66.2,205.9,66.3z M232,71.9
	c0,0,0.3,0,0.7,0c0.9-0.2,1.5-0.6,1.8-1.3c0.1-0.2,0.1-0.4,0.1-0.8c0-0.4,0-1.6,0-3.7c0-0.2,0-0.5,0-0.8c0-1.8,0-2.8,0-3.1
	c0-0.3,0.1-0.5,0.2-0.6l0.1,0c0,0,0.3-0.3,0.9-0.6c0.1-0.1,0.2-0.1,0.3-0.2c0.8-0.5,1.2-0.8,1.2-0.9c0-0.1-0.1-0.1-0.2-0.1
	c-0.1,0-0.4,0.1-0.9,0.2l0,0c-0.6,0.2-0.9,0.3-1.1,0.3c-0.2,0-0.3-0.1-0.4-0.4c0-0.2,0-0.7,0-1.5c0,0,0-0.1,0-0.1c0,0,0-0.1,0-0.1
	c0-0.7,0-1.2,0-1.4c0-0.3,0.1-0.5,0.3-0.5c0.1,0,0.4-0.1,0.8,0c0,0,0.1,0,0.1,0c0.7,0,1,0.1,1.1,0.3c0.1,0.2-0.1,0.5-0.6,1.1
	c-0.2,0.3-0.3,0.4-0.3,0.5c0.1,0.1,0.3,0,0.6-0.2c0.4-0.3,0.7-0.4,0.8-0.2c0.1,0.1,0.2,0.6,0.1,1.4c0,0.6,0,1.1,0,1.7
	c0,0.3,0,0.8,0,1.5c0,0.1,0,0.2,0,0.3c0,0.6,0,1,0.2,1.2c0.2,0.1,0.6,0.1,1.2-0.1c0.4-0.1,0.6-0.2,0.7-0.4c0.1-0.1,0.2-0.4,0.2-0.7
	c0-0.6,0.1-0.9,0.3-0.9c0.6,0,1.1-0.5,1.7-1.3c0.6-0.9,0.9-1.8,1.1-2.8c0.1-0.4,0.1-0.7,0.2-0.8c0.1-0.1,0.3-0.2,0.5-0.2
	c0.4,0,0.6,0.1,0.6,0.3c0.1,0.2,0.1,0.8,0.1,1.8c0,0,0,0.1,0,0.2c0,0.8,0,1.2,0.1,1.4c0.1,0.3,0.2,0.5,0.4,0.6
	c0.2,0,0.5,0.1,1.1,0.1c0.1,0,0.2,0,0.3,0c0,0,0.1,0,0.2,0c0.7,0,1.2,0.1,1.3,0.2c0.1,0.1,0.1,0.5,0.1,1.3c0,0.1,0,0.2,0,0.2
	c0,0.4,0,0.7,0,0.8c0,0.1,0.2,0.1,0.5,0.2c0.3,0,0.5,0.1,0.5,0.2c0,0.1,0,0.2-0.2,0.5c-0.3,0.5-0.5,0.8-0.8,0.9s-0.8,0.1-1.7,0.1
	c-0.8,0-1.3,0-1.4,0c-0.2,0-0.3-0.1-0.4-0.3c-0.1-0.2-0.1-0.5,0-0.9c0.1-0.4,0.2-0.7,0.4-0.8c0.2-0.2,0.2-0.3,0-0.4
	c-0.2-0.1-0.7-0.2-1.4-0.3c-0.1,0-0.2,0-0.3,0c-0.4-0.1-0.7-0.1-0.8,0c-0.1,0.1-0.1,0.3-0.1,0.7c0,0.1,0,0.2,0,0.3
	c0,0.7-0.1,1.1-0.1,1.3c0,0.2-0.2,0.3-0.4,0.4c-0.1,0-0.9,0.1-2.1,0c-1.3,0-2.3-0.1-2.9-0.1c-0.3,0-0.4,0-0.5,0c0,0,0,0.2,0.2,0.5
	c0.1,0.3,0.2,0.5,0.3,0.6c0,0,0.3,0,0.8-0.1c1.6-0.2,2.7-0.3,3.3-0.2c0.7,0.1,1,0.3,0.9,0.6c-0.2,0.9-0.8,1.8-1.8,2.7
	c-1,0.9-2.2,1.7-3.6,2.3c-0.4,0.2-0.6,0.3-0.7,0.3c-0.1,0.1-0.1,0.1,0,0.2c0,0.1,0.1,0.1,0.2,0.1c0.1,0,0.3,0,0.6-0.1
	c2-0.6,3.6-1.3,4.8-2.1c1.2-0.8,2-1.8,2.5-3c0.2-0.4,0.4-0.7,0.5-0.6c0.1,0,0.3,0.2,0.5,0.7c0.9,2.2,2.4,3.8,4.4,4.9
	c0.3,0.2,0.5,0.2,0.6,0.2s0.1-0.1,0.2-0.3c0.2-0.8,0.6-1.3,1.3-1.5c0.6-0.2,0.5-0.4-0.2-0.5c-1.4-0.4-2.7-0.9-4-1.7
	c-1.3-0.8-1.9-1.4-1.9-1.9c0-0.1,0-0.2,0.1-0.2c0.1,0,0.4-0.1,0.8-0.1c0.3,0,1,0,2.1,0c1.4,0,2.3,0,2.7-0.1c0.5-0.1,0.7-0.3,0.5-0.6
	c-0.1-0.2-0.6-0.6-1.4-1.3c-0.3-0.2-0.4-0.4-0.5-0.4c0-0.1,0.1-0.2,0.2-0.4c0.1-0.1,0.2-0.2,0.2-0.4s0-0.5,0-1
	c-0.1-1.8-0.1-3-0.1-3.8c0-0.7,0.2-1.2,0.4-1.3c0.3-0.2,0.4-0.3,0.4-0.4c0-0.1-0.2-0.3-0.5-0.6c-0.3-0.3-0.7-0.6-1.1-0.9
	c-0.2-0.2-0.4-0.2-0.5-0.2s-0.3,0.2-0.5,0.6c-0.2,0.3-0.4,0.5-0.5,0.5c-0.1,0-0.6,0.1-1.3,0.1c-0.7,0-1.1,0-1.3,0
	c-0.2,0-0.2-0.1-0.2-0.2c0-0.1,0.3-0.5,1-1.1c0.7-0.6,1.1-0.9,1.3-0.9c0.4,0,0.5-0.1,0.5-0.3c0-0.2-0.3-0.5-0.8-1
	c-0.5-0.5-0.9-0.8-1.1-0.8c-0.2,0-0.4,0.1-0.7,0.5c-0.4,0.4-1,0.7-1.8,0.8s-1.1-0.1-1.1-0.5c0-0.2,0.1-0.4,0.3-0.7
	c0.2-0.3,0.4-0.5,0.5-0.5c0.7-0.1,0.1-0.4-1.5-0.8c-0.5-0.1-0.9-0.2-1-0.2c-0.1,0-0.2,0.1-0.2,0.2c-0.4,1.6-0.8,3-1.5,4.3
	c-0.4,0.7-0.6,1.1-0.8,1.2c-0.2,0-0.5-0.2-1-0.7c-0.5-0.5-0.7-0.8-0.8-0.7c0,0-0.1,0.1-0.3,0.4c0,0-0.1,0.1-0.1,0.1
	c-0.4,0.7-0.7,0.9-0.8,0.8c-0.1-0.2-0.2-0.8-0.2-2c0-0.9,0-1.4,0-1.6c0-0.2,0.1-0.4,0.3-0.5c0.2-0.2,0.2-0.3-0.1-0.5
	c-0.3-0.2-0.9-0.4-1.9-0.6c0,0,0,0-0.1,0c-0.3-0.1-0.4-0.1-0.5,0c0,0,0,0.2,0,0.5c0,0,0,0.1,0,0.1c0.1,0.9,0.2,1.9,0.2,2.9
	c0,1,0,1.6-0.1,1.8c-0.1,0.2-0.3,0.3-0.6,0.3c-0.3,0-0.8,0-1.6-0.1c0,0-0.1,0-0.1,0l-0.6,0c0,0,0.1,0.2,0.2,0.6
	c0.2,0.3,0.3,0.5,0.4,0.5l0.1,0c0.1,0,0.2-0.1,0.3-0.1c0.6-0.2,1-0.2,1.3-0.2c0.3,0,0.4,0.3,0.5,0.6c0.1,0.3,0.1,1,0.1,1.9
	c0,0.1,0,0.3,0,0.6c0,0.7,0,1.2,0,1.4c-0.1,0.3-0.2,0.5-0.4,0.6c-0.2,0.1-0.6,0.2-1.2,0.4c-0.2,0.1-0.4,0.1-0.5,0.1
	c-0.1,0-0.2,0-0.3,0.1c-0.4,0.1-0.5,0.2-0.6,0.3s0,0.4,0.2,0.8c0.1,0.2,0.1,0.3,0.1,0.4c0.3,0.7,0.4,1.1,0.5,1.2
	c0.1,0.1,0.2,0,0.3-0.1c0.2-0.3,0.5-0.6,0.9-0.8c0.4-0.2,0.7-0.3,0.8-0.1c0.1,0.1,0.1,0.3,0.1,0.6c0,0.3,0,1.1,0,2.4
	c0,0.1,0,0.3,0,0.6c0,1,0,1.7,0,1.9c-0.1,0.4-0.2,0.6-0.5,0.7c-0.2,0-0.6,0-1.2,0c-0.1,0-0.2,0-0.3,0c-0.5,0-0.7,0-0.8,0
	c-0.1,0.1,0,0.2,0.4,0.3c0.5,0.1,0.9,0.3,1.2,0.7c0.3,0.4,0.5,0.8,0.5,1.2C231.9,71.7,232,71.8,232,71.9z M240.3,60.3
	c-0.2,0.2-0.3,0.2-0.4,0.2c-0.1-0.1-0.2-0.2-0.2-0.5c0-0.3,0-0.9,0-1.9c0-1,0-1.6,0.1-1.7c0.1-0.2,0.3-0.3,0.6-0.3
	c0.4,0,0.6,0,0.8,0.1c0.3,0.2,0.3,0.9,0.1,1.9C241.1,59.2,240.8,59.9,240.3,60.3z M247.5,59c-0.2,0.1-0.5,0.2-0.9,0.1
	c-0.4,0-0.6-0.2-0.7-0.3c-0.1-0.2-0.2-0.6-0.1-1.3c0-0.7,0.1-1.1,0.2-1.2c0.1-0.1,0.3-0.1,0.7-0.1c0.4,0,0.7,0,0.8,0.1
	c0.2,0.2,0.3,0.6,0.3,1.4C247.9,58.4,247.8,58.8,247.5,59z M241.7,55.4c-0.9,0-1.4,0-1.6,0c-0.4-0.1-0.4-0.5,0.2-1.2l0,0
	c0.2-0.3,0.3-0.4,0.4-0.6c0.3-0.4,0.5-0.6,0.7-0.6c0.2-0.1,0.6-0.1,1.4-0.1c0.7,0,1.1,0,1.2,0.1c0.1,0,0.2,0.2,0.2,0.4
	c0,0.3-0.1,0.6-0.3,1.1c-0.2,0.4-0.4,0.7-0.6,0.8C243.1,55.4,242.6,55.4,241.7,55.4z M260.7,71.8c0,0.1,0.3,0.1,0.9-0.1
	c0.6-0.1,1-0.3,1.2-0.5c0.3-0.2,0.6-0.4,0.6-0.7c0.1-0.3,0.2-0.8,0.2-1.6c0-0.6,0-1.8,0-3.6c0-1.7,0-2.8,0-3.1c0-0.4,0-0.6,0.1-0.7
	c0.1-0.1,0.2-0.3,0.4-0.4c0.2-0.1,0.8-0.5,1.7-1c0,0,0.1,0,0.2-0.1c0.8-0.5,1.3-0.8,1.4-0.8c0.1-0.1,0.2-0.2,0.2-0.2
	c0-0.1-0.1-0.1-0.3-0.1c-0.2,0-0.6,0.2-1.4,0.4c-0.1,0-0.2,0.1-0.4,0.1c-0.7,0.2-1.2,0.3-1.3,0.4c-0.3,0-0.4-0.1-0.5-0.3
	c0-0.2-0.1-0.6-0.1-1.2c0-0.1,0-0.3,0-0.3c0-0.1,0-0.3,0-0.6c0-0.8,0-1.2,0.2-1.3s0.6-0.2,1.3-0.2c0.2,0,0.4,0,0.5,0
	c0.8,0,1.4,0,1.6-0.1c0.3-0.1,0.4-0.2,0.3-0.4c-0.1-0.2-0.3-0.5-0.8-1c-0.1-0.1-0.3-0.3-0.5-0.6l-0.1-0.1c-0.3-0.4-0.6-0.2-1.1,0.6
	c-0.2,0.4-0.4,0.6-0.6,0.7c-0.2,0.1-0.3,0.1-0.5,0.1c-0.2-0.1-0.3-0.2-0.3-0.4c0-0.2,0-0.8,0-1.7c0-1,0-1.5,0-1.8
	c0-0.2,0.1-0.4,0.3-0.5c0.3-0.2,0.3-0.3,0-0.5c-0.3-0.2-0.9-0.4-1.9-0.6c0,0-0.1,0-0.1,0c-0.4-0.1-0.6-0.1-0.6-0.1
	c0,0-0.1,0.2,0,0.5c0,0,0,0.1,0,0.1c0.3,3.1,0.3,4.7-0.2,4.9c-0.1,0.1-0.6,0.1-1.6,0c-0.9,0-1.5-0.1-1.8-0.1c-0.2,0-0.2,0.1,0.1,0.6
	c0,0,0,0.1,0.1,0.1c0.1,0.2,0.2,0.3,0.2,0.4c0.1,0,0.2,0,0.5,0c0.1,0,0.1,0,0.2,0c0.8-0.2,1.4-0.2,1.9-0.2c0.5,0,0.8,0.2,0.8,0.4
	c0,0.1,0,0.8,0,2c0,1.2,0,1.8,0,2c-0.1,0.2-0.3,0.4-0.7,0.6c-0.4,0.2-1.3,0.4-2.8,0.8l0,0c-0.3,0.1-0.5,0.1-0.6,0.2c0,0,0,0.1,0,0.2
	c0,0.1,0.2,0.5,0.4,1.2c0.2,0.6,0.3,1,0.4,1c0.1,0.2,0.2,0.1,0.4,0c0.2-0.2,0.4-0.4,0.6-0.6c0.2-0.2,0.7-0.4,1.3-0.7c0,0,0,0,0.1,0
	c0.4-0.2,0.7-0.3,0.8-0.2c0.1,0,0.2,0.3,0.3,0.7c0,0.3,0,1.1,0,2.3c0,0.1,0,0.2,0,0.2c0,0.2,0,0.4,0,0.7c0,0.9,0,1.5-0.1,1.7
	c-0.1,0.3-0.2,0.5-0.5,0.6c-0.2,0-0.6,0-1.4,0c-0.2,0-0.4,0-0.6,0c-0.7,0-1,0-1,0c0,0.1,0,0.1,0,0.2c0.1,0,0.2,0.1,0.5,0.2
	c0.6,0.2,1.1,0.4,1.4,0.7c0.3,0.3,0.5,0.8,0.6,1.4c0,0,0,0.1,0,0.1C260.7,71.8,260.7,71.8,260.7,71.8z M271.4,71.7c0,0,0.3,0,0.8,0
	c0.7-0.1,1.2-0.3,1.6-0.6c0.4-0.3,0.7-0.7,0.8-1.2c0.1-0.2,0.1-0.6,0.1-1.3c0-0.7,0-3,0-7c0-5.2,0-7.9,0.1-8
	c0.1-0.1,0.2-0.2,0.4-0.2c0.2,0,0.8-0.1,1.8-0.1s1.6,0,1.8-0.1c0.2,0,0.4-0.1,0.4-0.2c0-0.2-0.3-0.6-1-1.3c-0.7-0.7-1.2-0.9-1.3-0.9
	c-0.1,0-0.3,0.3-0.7,0.9c0,0.1-0.1,0.2-0.2,0.3c-0.2,0.2-0.3,0.4-0.4,0.4c-0.2,0.1-0.5,0.2-0.9,0.2c-0.3,0-1,0-2.2,0
	c-0.5,0-0.9,0-1.1,0c-3.3,0-5.2,0-5.6-0.1c-0.1,0-0.1,0.1,0,0.4c0.1,0.3,0.2,0.6,0.4,0.7c0,0,0.2,0,0.6-0.1c0.8-0.1,1.9-0.2,3.3-0.2
	c1.4,0,2.2,0,2.4,0.1c0.1,0.1,0.2,0.5,0.2,1.2c0,0.6,0,2.9,0,6.7c0,0.3,0,0.7,0,1.2c0,2.3,0,3.8,0,4.4c0,0.9,0,1.4-0.1,1.7
	c0,0.2-0.1,0.3-0.2,0.3c0,0-0.1,0-0.1,0c-0.2,0.1-1.2,0.1-3.1,0c-0.7,0-1,0-1.1,0c0,0,0,0.1,0,0.2c0,0.1,0.1,0.1,0.2,0.1
	c1.1,0.2,1.8,0.4,2.3,0.7c0.5,0.3,0.7,0.8,0.8,1.5C271.4,71.6,271.4,71.7,271.4,71.7z M294.3,71.9c0,0,0.1,0.1,0.2,0
	c0.1,0,0.2,0,0.4,0c0.9-0.1,1.6-0.4,1.9-0.8c0.4-0.4,0.6-1.1,0.6-2c0-0.5,0.1-0.9,0.1-1l0,0c0-0.1,0.2-0.2,0.5-0.2
	c0.3,0,1.4,0,3.2,0c0.4,0,0.7,0,0.9,0c2.2,0,3.5,0,3.9,0c0.4,0,0.6-0.1,0.7-0.2c0.1-0.2-0.3-0.7-1.2-1.4c-0.3-0.2-0.5-0.4-0.5-0.5
	c0-0.1,0-0.2,0.1-0.4c0.4-0.2-0.1-0.8-1.4-1.7c-0.3-0.2-0.5-0.3-0.6-0.3c-0.1,0-0.3,0.2-0.6,0.6c0,0,0,0-0.1,0.1
	c-0.3,0.3-0.5,0.5-0.7,0.6c-0.2,0-0.8,0.1-1.8,0.1c-0.1,0-0.1,0-0.2,0c-0.8,0-1.4,0-1.6,0c-0.3,0-0.5-0.1-0.6-0.2
	c-0.1-0.1-0.1-0.3-0.1-0.6c0-0.4,0.1-0.6,0.2-0.7c0.1-0.1,0.5-0.2,1.2-0.3c0.2,0,0.7-0.1,1.3-0.1c0.2,0,0.3,0,0.4,0
	c0.7-0.1,1.3-0.1,1.7-0.1c0.3,0,0.4,0,0.4-0.1c0-0.1-0.1-0.3-0.4-0.6c-0.7-0.9-1.2-1.3-1.3-1.3c0,0-0.1,0-0.2,0
	c-0.3,0.1-0.5,0.1-0.6,0.2c-1.2,0.3-2.2,0.6-3.2,0.7c-0.9,0.2-1.4,0.2-1.5,0.1c0,0-0.1-0.1-0.1-0.2c0-0.1,0-0.1,0-0.1
	c0,0,0-0.3,0-0.7c0-0.4,0-0.8,0-0.9c0-0.2,0.2-0.3,0.3-0.5l0,0l0.2-0.1c0,0-0.1-0.1-0.2-0.2c-0.2-0.1-0.2-0.2-0.1-0.3
	c0.1-0.1,0.4-0.2,0.7-0.2c0.5,0,0.7-0.1,0.7-0.2c0-0.1-0.1-0.3-0.5-0.6c0,0-0.1-0.1-0.1-0.1c-0.4-0.3-0.6-0.6-0.7-0.7
	c-0.1-0.2-0.1-0.6-0.1-1.3c0-0.1,0-0.2,0-0.2c0-0.7,0-1.2,0-1.3c0-0.2,0.2-0.3,0.3-0.5c0.2-0.1,0.2-0.2,0.2-0.3
	c0-0.1-0.1-0.2-0.2-0.4c-0.3-0.4-0.5-0.6-0.5-0.7c0-0.1,0.2-0.2,0.6-0.3c0.9-0.1,0.7-0.6-0.6-1.6c-0.3-0.2-0.6-0.3-0.7-0.3
	c-0.1,0-0.3,0.2-0.6,0.6c-0.3,0.3-0.5,0.5-0.8,0.6c-0.3,0.1-0.6,0.1-0.8,0c-0.2-0.1-0.3-0.2-0.3-0.4c0-0.2,0.1-0.3,0.2-0.5
	c0.2-0.1,0.2-0.3-0.1-0.4c-0.2-0.1-0.8-0.2-1.6-0.3c0,0-0.1,0-0.1,0c-0.2,0-0.4,0-0.4,0c0,0,0,0.2,0,0.6c0,0,0,0.1,0,0.1v0
	c0,0.4-0.1,0.7-0.2,0.8c-0.1,0.1-0.5,0.1-1.2,0.1c-0.5,0-1,0-1.7,0c-0.6,0-1-0.1-1.1-0.1c-0.1,0-0.2,0.1,0,0.4
	c0.1,0.3,0.3,0.5,0.5,0.7c0.4,0.4,0.5,1.9,0.3,4.5c0,0.5-0.1,0.8-0.1,0.9c-0.1,0.1-0.3,0.1-0.6,0.1c-0.3,0-0.4,0-0.4,0.1
	c0,0,0.1,0.2,0.2,0.6c0.1,0.2,0.2,0.4,0.2,0.4c0,0,0.1,0,0.2,0c0.3,0,0.5,0.1,0.6,0.3c0.1,0.2,0.1,0.7,0.1,1.6c0,0.2,0,0.4,0,0.7
	c0,0.6,0.1,0.9,0.1,1c0.2,0.1,0.6,0.1,1,0c0.5-0.1,0.7-0.3,0.7-0.5c0-0.1,0-0.1,0.1-0.2c0.1-0.1,0.2-0.2,0.3-0.2
	c0.1-0.1,0.8-0.1,2.1,0c1.3,0,2,0.1,2.1,0.1c0.2,0.1,0.3,0.2,0.3,0.3c0,0.1,0,0.3-0.1,0.3c-0.3,0.2-1.8,0.4-4.6,0.7
	c-0.3,0-0.5,0-0.6,0.1c-0.1,0-0.1,0.1-0.1,0.2c0.1,0.2,1.6,0.2,4.7,0.1c1.2,0,1.9,0,2,0c0.2,0.1,0.3,0.4,0.3,0.7
	c0,0.3-0.1,0.6-0.3,0.7c-0.2,0.1-1.2,0.1-3.2,0.1c-2,0-3.3-0.1-4.1-0.2c-0.3,0-0.4,0-0.5,0c0,0,0.1,0.2,0.2,0.5c0,0,0,0,0,0.1
	c0.1,0.2,0.2,0.4,0.3,0.4c0.1,0,0.3,0,0.6,0c0.1,0,0.1,0,0.2,0c0.9-0.1,2.2-0.2,3.8-0.2c1.6,0,2.5,0,2.7,0.1
	c0.2,0.1,0.3,0.4,0.3,0.8c0,0.4-0.1,0.6-0.4,0.7c-0.1,0.1-1.6,0.1-4.2,0.1c-2.7,0-4.3-0.1-4.8-0.2c-0.1,0-0.2,0-0.2,0.1
	s0.1,0.2,0.2,0.5c0,0,0,0.1,0.1,0.1c0.1,0.2,0.2,0.3,0.3,0.4c0.1,0,0.3,0,0.6,0c0.1,0,0.2,0,0.2,0c1.1-0.1,2.7-0.2,4.9-0.2
	c0.1,0,0.1,0,0.2,0c1.2,0,2,0,2.3,0c0.4,0,0.7,0.1,0.8,0.2c0.1,0.1,0.1,0.3,0.1,0.6c0,0,0,0.1,0,0.1c0,0.3-0.1,0.5-0.1,0.6
	c-0.1,0.1-0.3,0.2-0.6,0.2c-0.3,0-0.8,0-1.6,0c-0.9-0.1-1.4-0.1-1.4,0c-0.1,0.1,0.1,0.2,0.5,0.3c0.7,0.1,1.2,0.3,1.6,0.6
	c0.4,0.3,0.6,0.7,0.7,1.2C294.2,71.8,294.3,71.9,294.3,71.9z M300.4,67.2c-1.7,0-2.6,0-2.7-0.1c-0.2-0.1-0.3-0.4-0.4-0.8
	c0-0.4,0.1-0.7,0.3-0.8c0.1-0.1,1.2-0.1,3.2-0.1c2,0,3.1,0.1,3.2,0.1c0.2,0.1,0.1,0.3-0.1,0.7c-0.2,0.4-0.5,0.7-0.8,0.8
	C303,67.2,302.1,67.2,300.4,67.2z M305,61.6c0.3,0.1,0.5,0.1,0.5,0.1c0,0,0.1-0.1,0.2-0.3c0.2-0.7,0.6-1.1,1.1-1.3
	c0.3-0.2,0.3-0.3-0.1-0.4c-1.5-0.2-2.5-0.4-3-0.5c-0.6-0.2-0.9-0.3-0.9-0.6c0-0.2,0.2-0.5,0.6-0.9c0.4-0.4,0.7-0.8,0.9-1
	c0.2-0.2,0.4-0.3,0.6-0.4c0.2-0.1,0.3-0.1,0.3-0.2c0-0.1-0.1-0.3-0.3-0.5c-0.3-0.3-0.4-0.5-0.4-0.6s0.3-0.2,0.7-0.3
	c0.6-0.1,1.1-0.3,1.3-0.6c0.2-0.3,0.2-0.6-0.1-1c-0.2-0.2-0.3-0.5-0.4-0.9c0-0.6-0.2-0.6-0.4,0c-0.1,0.4-0.4,0.7-0.7,0.8
	c-0.4,0.2-0.7,0.2-1,0c-0.2-0.1-0.3-0.4-0.3-0.8c0-0.4,0.2-0.7,0.4-0.8c0.2-0.1,0.3-0.2,0.2-0.3c-0.1-0.1-0.3-0.4-0.7-0.8
	c-0.4-0.4-0.7-0.6-0.8-0.6c-0.1,0-0.3,0.1-0.6,0.5c-0.4,0.5-0.8,0.7-1.2,0.7c-0.5,0-1.2-0.2-2.1-0.6c-0.1,0-0.2-0.1-0.3-0.1
	c-0.3-0.2-0.5-0.2-0.6-0.1c0,0.1-0.1,0.3-0.1,0.8c0,0.2,0,0.3,0,0.5c0,1-0.1,1.8-0.3,2.4c-0.2,0.5-0.5,1-1,1.4
	c-0.2,0.1-0.3,0.3-0.2,0.4c0,0.1,0.1,0.1,0.3,0.1c0.2,0,0.4,0.1,0.6,0.6c0.2,0.3,0.3,0.4,0.4,0.3c0.1-0.1,0.3-0.1,0.5,0
	c0.2,0.1,0.4,0.3,0.6,0.6c0.1,0.3,0.3,0.5,0.6,0.9c0.4,0.5,0.4,0.9,0,1.3c-0.3,0.3-1.1,0.7-2.4,1.2c-0.4,0.1-0.6,0.3-0.6,0.3
	c0,0.2,0.1,0.2,0.4,0.2c1.1-0.2,2.2-0.5,3.3-0.9c0.4-0.2,0.7-0.2,0.9-0.2c0.2,0,0.4,0.1,0.7,0.3c1,0.6,2.1,1.1,3.5,1.6
	C304.9,61.6,305,61.6,305,61.6z M293.3,60.6c-0.3,0.2-0.6,0.2-0.8,0c-0.2-0.2-0.4-0.6-0.4-1.1c0-0.5,0.1-0.8,0.3-1
	c0.2-0.2,0.5-0.2,0.8,0c0.2,0.1,0.3,0.4,0.3,1C293.6,60.2,293.5,60.5,293.3,60.6z M289.9,60.7c-0.2,0.1-0.5,0.1-0.7,0
	c-0.2-0.1-0.3-0.2-0.4-0.4c0-0.2,0.1-0.3,0.3-0.5c0.2-0.1,0.2-0.2,0.2-0.3c0-0.1-0.2-0.2-0.5-0.3c-0.9-0.4-0.8-0.7,0.4-0.7
	c0.5,0,0.8,0.1,0.9,0.2c0.1,0.1,0.2,0.5,0.1,1C290.3,60.3,290.1,60.6,289.9,60.7z M294,57.8c-0.5,0.2-0.9,0.2-1.4,0
	c-0.4-0.2-0.6-0.5-0.3-0.8c0.1-0.2,0.4-0.2,0.8-0.2c0.4,0,0.6,0.1,0.7,0.3c0,0.1,0.1,0.1,0.2,0.2c0.1,0,0.2,0.1,0.2,0.2
	C294.2,57.6,294.1,57.7,294,57.8z M290,57.8c-0.2,0.1-0.5,0.2-1,0.1c-0.5,0-0.8-0.1-0.8-0.3c0-0.1,0.1-0.2,0.3-0.4
	c0.2-0.2,0.4-0.3,0.5-0.4c0.3-0.1,0.6-0.1,0.8,0c0.3,0.1,0.4,0.2,0.5,0.4S290.2,57.6,290,57.8z M301.1,57.6
	c-0.2,0.1-0.4,0.2-0.5,0.1c-0.2,0-0.4-0.2-0.6-0.4c-0.7-0.5-0.9-0.9-0.6-1.1c0.1-0.1,0.4-0.1,1.1-0.1c0.7,0,1.1,0,1.2,0
	c0.2,0.1,0.2,0.3,0.1,0.6C301.7,57.2,301.4,57.4,301.1,57.6z M293.6,56c-0.2,0.2-0.5,0.2-0.8,0.2s-0.6-0.2-0.6-0.5
	c0-0.4,0.3-0.6,0.8-0.6c0.4,0,0.6,0.1,0.7,0.3C293.8,55.6,293.8,55.8,293.6,56z M289.9,56.1c-0.2,0.1-0.4,0.1-0.7,0.1
	c-0.3,0-0.5-0.1-0.5-0.2c-0.1-0.3-0.1-0.5,0.2-0.6c0.3-0.2,0.6-0.2,0.9-0.1c0.2,0.1,0.3,0.2,0.4,0.4C290.2,55.8,290.1,56,289.9,56.1
	z M300.8,55.6c-0.8,0-1.5,0-2,0c-0.5,0-0.9-0.1-1-0.2c-0.1-0.1,0-0.3,0.2-0.5c0.5-0.4,0.9-0.9,1.2-1.2c0.2-0.4,0.4-0.8,0.5-1.4
	c0.1-0.3,0.2-0.6,0.3-0.6c0.1-0.1,0.4-0.1,0.8-0.1c0.5,0,0.8,0.1,0.9,0.2c0.1,0.1,0.2,0.6,0.2,1.3c0,0.6,0,1,0.1,1.2
	c0.1,0.2,0.2,0.3,0.4,0.5c0.3,0.1,0.4,0.3,0.4,0.5c0,0.2-0.2,0.3-0.5,0.4C302.1,55.5,301.6,55.6,300.8,55.6z M293.5,54.4
	c-0.2,0.1-0.4,0.1-0.7,0c-0.3,0-0.4-0.1-0.5-0.3c-0.1-0.3-0.1-0.5,0.2-0.6c0.3-0.2,0.6-0.2,1-0.1c0.2,0.1,0.3,0.2,0.3,0.4
	C293.8,54.2,293.7,54.4,293.5,54.4z M290,54.3c-0.1,0.1-0.3,0.2-0.6,0.2c-0.3,0-0.5-0.1-0.6-0.2c-0.2-0.2-0.2-0.4,0-0.5
	c0.1-0.2,0.4-0.3,0.7-0.3c0.3,0,0.6,0.1,0.7,0.3C290.2,54,290.2,54.1,290,54.3z M293.5,52.8c-0.4,0.1-0.7,0.1-1,0
	c-0.3-0.2-0.4-0.4-0.2-0.6c0.1-0.2,0.4-0.3,0.8-0.3c0.5,0,0.7,0.1,0.8,0.2c0,0.1,0,0.2-0.1,0.4C293.7,52.6,293.6,52.7,293.5,52.8z
	 M289.9,52.8c-0.3,0.1-0.7,0.1-1.3,0c-0.6-0.2-0.9-0.3-0.9-0.6c0-0.1,0.3-0.2,0.8-0.3c0.5-0.1,1-0.1,1.2,0c0.2,0.1,0.3,0.2,0.4,0.4
	C290.2,52.5,290.1,52.7,289.9,52.8z M36.1,95.9c0.2,0.1,0.4,0.1,0.7,0c0.3,0,0.6-0.1,0.9-0.2l0,0c0.2-0.1,0.3-0.2,0.4-0.3
	c0-0.1,0-0.4,0-0.9c0-0.1,0-0.1,0-0.2c0-0.7,0-1.1,0.1-1.3c0.1-0.1,0.4-0.3,1-0.4h0c1.3-0.2,2.1-0.3,2.4-0.4
	c0.3-0.1,0.4-0.2,0.4-0.3c0-0.1-0.1-0.1-0.2-0.1c-0.1,0-0.6,0-1.5,0h0c-0.2,0-0.4,0-0.6,0c-0.6,0-1,0-1.2,0
	c-0.2-0.1-0.4-0.2-0.4-0.6c0-0.2-0.1-0.7,0-1.6c0-0.4,0-0.7,0-0.9c0-0.2,0-0.5,0-0.9c0-0.8,0-1.3,0-1.5c0-0.3,0.2-0.5,0.4-0.6
	c0.1,0,0.5-0.1,1-0.1c0.2,0,0.4,0,0.6,0c1,0,1.5,0,1.7-0.1c0.2-0.1,0.1-0.2-0.1-0.5c-0.3-0.3-0.3-0.7-0.1-1.2
	c0.2-0.5,0.5-0.9,0.9-1.1c0.4-0.2,0.4-0.4-0.2-0.4c-2.2-0.2-3.2-0.4-3.2-0.8c0-0.1,0.2-0.5,0.7-1c0.5-0.5,0.8-0.8,1-0.9
	c0.2,0,0.3-0.1,0.3-0.2c0-0.1-0.1-0.3-0.3-0.5c-0.2-0.2-0.3-0.4-0.2-0.5c0.1-0.1,0.3-0.2,0.6-0.2c0.4-0.1,0.7-0.1,0.8-0.2
	c0.2-0.1,0.3-0.2,0.4-0.3c0.1-0.2,0.1-0.3,0.1-0.5c0-0.2-0.1-0.3-0.2-0.4c-0.2-0.1-0.4-0.4-0.4-0.9c0-0.3-0.1-0.5-0.1-0.5
	c-0.1,0-0.2,0.1-0.3,0.4c-0.1,0.4-0.3,0.6-0.4,0.7C40.9,77,40.7,77,40.4,77c-0.5,0-0.8-0.2-0.8-0.6c-0.1-0.4,0.1-0.7,0.6-1
	c0.3-0.2,0-0.6-0.8-1.3c-0.3-0.3-0.5-0.4-0.6-0.4c-0.1,0-0.3,0.2-0.6,0.5c-0.4,0.4-0.8,0.7-1.3,0.7c-0.5,0-1.2-0.2-2.1-0.6
	c-0.1,0-0.2-0.1-0.3-0.1c-0.4-0.2-0.6-0.3-0.7-0.2c0,0-0.1,0.3-0.1,0.7c0,0.1,0,0.3,0,0.3c0,1-0.1,1.8-0.3,2.3
	c-0.2,0.5-0.5,1-1.1,1.4C32.1,78.9,32,79,32,79.1s0.1,0.2,0.3,0.1c0.2,0,0.4,0.1,0.6,0.5c0.1,0.1,0.1,0.2,0.2,0.3c0,0,0.1,0,0.2-0.1
	c0.1-0.1,0.3-0.1,0.5,0c0.2,0.1,0.4,0.3,0.6,0.6c0.2,0.3,0.5,0.7,1,1.2c0.2,0.3,0.1,0.7-0.6,1.1c-0.6,0.4-1.5,0.8-2.8,1.2
	c-0.4,0.1-0.6,0.2-0.6,0.3c-0.1,0,0,0.1,0.1,0.2c0.1,0.1,0.7,0,1.8-0.3c1.1-0.3,2-0.6,2.7-0.9c0.4-0.2,0.7-0.3,0.9-0.3
	c0.2,0,0.6,0.2,1.2,0.4c0.6,0.3,1,0.5,1.1,0.7c0.1,0.2,0,0.4-0.3,0.7c-0.1,0.1-0.5,0.2-1.1,0.2c-0.6,0-2.6,0-6.1,0
	c-0.1,0-0.4,0-0.6,0c-2.5,0-4.1,0-4.9,0c-1.2,0-2,0-2.5-0.1c-0.4-0.1-0.7-0.2-0.7-0.3c0-0.1,0.1-0.2,0.3-0.5c0,0,0.1-0.1,0.1-0.1
	c0.3-0.4,0.5-0.6,0.6-0.8c0,0,0-0.1,0.1-0.1c0.2-0.3,0.4-0.5,0.6-0.6s0.9-0.1,1.9-0.1c0.2,0,0.3,0,0.5,0c0.9,0,1.5,0,1.8,0
	c0.4,0,0.6,0.1,0.7,0.1c0.1,0.1,0.1,0.2,0.1,0.4c0,0.2,0.1,0.3,0.2,0.3c0.2,0,0.4,0,0.9-0.2c0.4-0.1,0.6-0.2,0.7-0.4
	c0.1-0.1,0.1-0.5,0.1-1.1c0,0,0-0.1,0-0.1c0-0.7,0-1.1,0-1.2c0-0.1,0.1-0.3,0.3-0.4l0,0c0.2-0.1,0.3-0.3,0.3-0.4s-0.3-0.4-0.6-0.7
	c-0.5-0.5-0.6-0.8-0.1-0.8c0.3-0.1,0.5-0.2,0.4-0.4c0-0.2-0.2-0.5-0.6-0.9c-0.4-0.4-0.6-0.6-0.6-0.7c0-0.1,0.3-0.2,0.9-0.2
	c0.6,0,0.9-0.2,0.9-0.4c0-0.3-0.4-0.6-1.1-1.2c-0.3-0.3-0.5-0.4-0.6-0.4s-0.3,0.2-0.5,0.5c-0.3,0.4-0.5,0.6-0.7,0.7
	c-0.2,0.1-0.5,0.1-0.8,0c-0.2,0-0.3-0.1-0.4-0.2c0-0.1,0-0.3,0.1-0.4c0.2-0.1,0.1-0.3-0.1-0.4s-0.8-0.3-1.7-0.6c0,0-0.1,0-0.1,0
	c-0.3-0.1-0.4-0.1-0.5,0c0,0,0,0.2,0,0.5c0,0.1,0,0.1,0,0.1c0,0.4,0,0.7-0.2,0.9c-0.1,0.2-0.5,0.2-0.9,0.3c-0.4,0-1.2,0-2.3-0.1
	c-0.4,0-0.7,0-0.8,0c-0.1,0-0.2,0-0.2,0.1c0,0.1,0.1,0.2,0.2,0.5c0,0,0,0.1,0.1,0.1c0.1,0.2,0.2,0.3,0.3,0.3c0.1,0,0.3,0,0.6-0.1
	c0.1,0,0.1,0,0.2,0c0.5-0.1,1-0.1,1.6-0.1c0.6,0,1,0,1.1,0.1c0.2,0.1,0.3,0.4,0.3,0.7c0,0.3-0.1,0.5-0.3,0.6
	c-0.1,0.1-0.6,0.1-1.5,0.1c-0.9,0-1.5-0.1-1.7-0.1c-0.2,0-0.1,0.1,0,0.5c0.4,0.8,0.4,2,0.2,3.6c-0.2,1.6-0.6,2.7-1.2,3.4
	c-0.1,0.2-0.2,0.3-0.2,0.4c0,0.1,0.2,0.1,0.4,0c0.3-0.1,0.5,0,0.7,0.4c0.1,0.2,0.2,0.3,0.3,0.3c0.1,0,0.2,0,0.5,0
	c0.6-0.2,1.2-0.2,1.8-0.2c0.5,0,0.9,0.1,1,0.3c0.1,0.1,0.1,1.1,0.1,3c0,1.9,0,2.9-0.1,3c-0.1,0.1-0.4,0.2-0.8,0.3
	c-0.4,0-1.3,0.1-2.7,0.1c0,0-0.1,0-0.2,0c-0.3,0-0.4,0-0.4,0.1c0,0.1,0.1,0.4,0.3,0.8c0,0.1,0.1,0.3,0.1,0.3c0,0.1,0.1,0.2,0.1,0.3
	c0.2,0.6,0.4,0.9,0.4,1c0.1,0.1,0.2,0.1,0.3,0c0,0,0.1-0.1,0.1-0.1c0.2-0.1,0.5-0.2,0.8-0.3c0.4-0.1,1.4-0.2,3.2-0.4
	c3-0.3,5.6-0.6,7.5-0.9c0.6-0.1,1,0,1.1,0.1C36,93.6,36,94,36,94.8c0,0.5,0,0.8,0,0.9C36,95.8,36,95.9,36.1,95.9z M29.4,92.3
	c-0.4,0-0.7,0-0.8,0c-0.1,0-0.1-0.1-0.2-0.1c-0.2,0-0.3-0.2-0.2-0.7c0.1-0.5,0.2-0.7,0.4-0.8c0.1-0.1,1.3-0.1,3.6-0.1s3.4,0,3.6,0.1
	c0.2,0.1,0.3,0.3,0.4,0.6s-0.1,0.5-0.3,0.7c-0.1,0.1-1.3,0.2-3.6,0.2c-0.4,0-0.9,0-1.7,0C29.9,92.3,29.5,92.3,29.4,92.3z M32.1,89.9
	c-2.3,0-3.5,0-3.7-0.1c-0.2-0.1-0.3-0.4-0.3-0.7c0-0.4,0.2-0.6,0.4-0.7c0.1,0,1.3-0.1,3.6-0.1c2.3,0,3.4,0,3.6,0.1
	c0.2,0.1,0.4,0.3,0.4,0.7c0,0.4-0.1,0.6-0.3,0.7C35.6,89.9,34.4,89.9,32.1,89.9z M32.1,87.6c-2.3,0-3.5,0-3.7-0.1
	c-0.2-0.1-0.3-0.4-0.3-0.8c0-0.4,0.2-0.7,0.4-0.8c0.1-0.1,1.3-0.1,3.6-0.1c2.3,0,3.5,0,3.6,0.1c0.2,0.1,0.3,0.4,0.3,0.8
	c0,0.4-0.1,0.6-0.3,0.8C35.6,87.6,34.4,87.6,32.1,87.6z M29.1,82c-0.4,0.2-0.7,0.2-1,0c-0.3-0.2-0.4-0.5-0.4-0.9s0.1-0.8,0.4-0.9
	c0.3-0.2,0.6-0.2,1,0c0.3,0.1,0.4,0.4,0.4,0.9C29.5,81.6,29.4,81.9,29.1,82z M25.8,82c-0.2,0.1-0.4,0.1-0.7,0.1
	c-0.3,0-0.5-0.1-0.5-0.3c0-0.1-0.1-0.3-0.1-0.6c0-0.4,0-0.6,0.1-0.7c0.1-0.2,0.2-0.3,0.5-0.3c0.3-0.1,0.5,0,0.7,0.1
	c0.2,0.1,0.4,0.4,0.4,0.9C26.1,81.6,26,81.8,25.8,82z M36.9,81.2c-0.3,0.1-0.7,0-1.2-0.4c-0.5-0.4-0.7-0.7-0.6-0.9
	c0.1-0.1,0.5-0.2,1.2-0.2c0.8,0,1.2,0,1.3,0.2c0.1,0.1,0.1,0.3,0,0.6C37.4,80.9,37.2,81.1,36.9,81.2z M27,79.4c-1.4,0-2.1,0-2.3-0.1
	c-0.6-0.2-0.9-0.4-0.9-0.6c0-0.2,0.2-0.3,0.7-0.4c0.3,0,1.2-0.1,2.6-0.1c1.5,0,2.3,0,2.4,0c0.2,0.1,0.3,0.2,0.2,0.5
	c-0.1,0.2-0.2,0.4-0.5,0.6C29.1,79.4,28.3,79.4,27,79.4z M36.3,79.1c-1.1,0-1.8,0-2,0c-0.3,0-0.5-0.1-0.5-0.3c0-0.1,0.1-0.3,0.4-0.6
	c0.7-0.6,1.2-1.3,1.3-2.1c0-0.3,0.2-0.5,0.3-0.6s0.5-0.1,0.9-0.1c0.5,0,0.8,0.1,0.9,0.2c0.1,0.1,0.2,0.5,0.2,1.1
	c0,0.6,0.1,0.9,0.1,1.1c0,0.2,0.1,0.3,0.3,0.5c0.4,0.4,0.3,0.6-0.1,0.8C38,79.1,37.4,79.1,36.3,79.1z M29,77.5
	c-0.3,0.2-0.6,0.2-0.8-0.1c-0.2-0.3-0.3-0.6-0.1-0.9c0.1-0.2,0.4-0.3,0.9-0.4c0.5,0,0.8,0,0.9,0.2c0,0.1,0,0.3-0.2,0.6
	C29.3,77.2,29.1,77.4,29,77.5z M53.4,95.9c0.3,0.2,0.7,0.1,1.3-0.1c0.6-0.2,0.8-0.5,0.8-0.8c0,0,0-0.1,0-0.2c0-0.2,0-0.4,0.1-0.5
	c0.1-0.1,0.4-0.2,1-0.2c0.4,0,1.2,0,2.6,0c0.3,0,0.5,0,0.7,0c0.2,0,0.5,0,0.9,0c1.3,0,2.1,0,2.5,0c0.5,0,0.8,0.1,0.9,0.2
	c0.1,0.1,0.1,0.3,0.1,0.5c0,0.1,0,0.1,0,0.2c0,0.4,0,0.6,0.2,0.7c0.2,0.1,0.5,0.1,1-0.1c0.6-0.2,0.9-0.4,1-0.6
	c0.1-0.2,0.2-0.7,0.1-1.5c-0.2-4.8-0.1-7.2,0.4-7.2c0,0,0.1,0,0.3-0.1c0.1-0.1,0.2-0.2,0.2-0.2c0-0.1-0.2-0.3-0.7-0.7
	c-0.5-0.4-0.9-0.7-1.2-0.9c-0.1-0.1-0.3-0.1-0.4,0s-0.3,0.2-0.6,0.5c0,0-0.1,0.1-0.1,0.2c-0.2,0.2-0.5,0.4-0.7,0.4
	c-0.3,0-1.2,0-2.8,0c-0.5,0-0.9,0-1.2,0c-0.3,0-0.7,0-1.2,0c-1.5,0-2.4,0-2.7,0c-0.3,0-0.7-0.2-1.2-0.4c-0.2-0.1-0.3-0.1-0.5-0.2
	c0,0-0.1,0-0.2-0.1c-0.5-0.2-0.7-0.3-0.8-0.3c-0.1,0-0.1,0.2,0,0.5c0,0.1,0,0.1,0,0.1c0.1,1.1,0.2,2.6,0.2,4.5c0,1.9,0,3.6-0.1,5.1
	c0,0.4,0,0.7,0,0.8C53.2,95.7,53.2,95.8,53.4,95.9z M63.9,93.4c-0.1,0.1-1.5,0.1-4,0.1c-2.6,0-3.9,0-4-0.1c-0.2-0.1-0.3-0.2-0.3-0.4
	c0-0.2,0-0.6,0-1.2c0-0.1,0-0.3,0-0.5c0-0.4,0-0.7,0.1-0.9c0.1-0.2,0.4-0.3,0.8-0.3c0.3,0,1.1,0,2.3,0c0.5,0,0.9,0,1.2,0
	c0.3,0,0.7,0,1.2,0c1.2,0,1.9,0,2.3,0c0.4,0,0.7,0.2,0.8,0.3c0.1,0.1,0.1,0.4,0.1,0.9c0,0.2,0,0.4,0,0.5c0,0.7,0,1.1,0,1.3
	C64.2,93.2,64.1,93.3,63.9,93.4z M59.9,89.5c-2.6,0-4,0-4.1-0.1c-0.1-0.1-0.2-0.2-0.2-0.4c0-0.2,0-0.6,0-1.2c0-0.1,0-0.2,0-0.4
	c0-0.4,0-0.7,0.1-0.8c0.1-0.1,0.4-0.2,0.8-0.3c0.3,0,1.1,0,2.3,0c0.5,0,0.9,0,1.2,0c0.3,0,0.7,0,1.2,0c1.2,0,1.9,0,2.3,0
	c0.4,0,0.7,0.1,0.8,0.3c0.1,0.1,0.1,0.4,0.1,0.8c0,0.2,0,0.3,0,0.4c0,0.6,0,1,0,1.2s-0.1,0.3-0.2,0.4C63.9,89.4,62.5,89.5,59.9,89.5
	z M49.9,83.2c0.1,0,0.1,0.1,0.2,0c0,0,0.1,0,0.2,0c0.7-0.1,1.2-0.2,1.5-0.2c0.3,0,3.4-0.1,9.4-0.1c0.4,0,0.9,0,1.6,0
	c2.8,0,4.6,0,5.3,0c1,0,1.7,0,2-0.1c0.2,0,0.3-0.1,0.3-0.2c0,0,0-0.1,0-0.1c0-0.1-0.1-0.3-0.5-0.6c-0.3-0.3-0.7-0.7-1.2-1l0,0
	c-0.4-0.3-0.6-0.4-0.7-0.4c-0.1,0-0.3,0.2-0.6,0.7c0,0-0.1,0.1-0.1,0.1c0,0-0.1,0.1-0.1,0.2c-0.3,0.4-0.5,0.6-0.7,0.6
	c-0.2,0.1-0.6,0.1-1.4,0.1c-0.2,0-0.3,0-0.4,0c-0.9,0-1.4,0-1.6,0c-0.3,0-0.4-0.2-0.3-0.3c0-0.1,0.3-0.4,0.7-0.8
	c0.2-0.2,0.6-0.6,1.2-1.3c0,0,0.1-0.1,0.1-0.1c0.4-0.5,0.6-0.7,0.7-0.8c0.1-0.1,0.2-0.2,0.3-0.2c0.2-0.1,0.3-0.1,0.3-0.2
	c0-0.1-0.2-0.2-0.5-0.3c-0.6-0.3-0.8-0.5-0.6-0.6c0.2-0.1,1-0.1,2.4-0.1c1.1,0,1.8,0,2,0c0.2,0,0.3-0.1,0.4-0.2
	c0.1-0.2-0.3-0.7-1.3-1.4l0,0c-0.5-0.4-0.8-0.6-1-0.6c-0.1,0-0.4,0.3-0.7,0.7l0,0c0,0-0.1,0.1-0.1,0.2c-0.2,0.4-0.5,0.6-0.7,0.6
	c-0.2,0-0.8,0.1-1.8,0.1c-0.2,0-0.4,0-0.5,0c-1.1,0-1.7,0-1.9,0c-0.2,0-0.3-0.1-0.4-0.1c-0.2-0.2-0.2-0.5-0.2-0.9
	c0-0.4,0.2-0.7,0.4-0.9c0.2-0.2,0.2-0.3-0.1-0.4c-0.2-0.1-0.8-0.3-1.7-0.5c0,0-0.1,0-0.2,0c-0.4-0.1-0.7-0.2-0.7-0.1
	c-0.1,0-0.1,0.2-0.1,0.5c0,0.1,0,0.1,0,0.1c0,0.1,0,0.3,0,0.5c0,0.7,0,1.1,0,1.3c-0.1,0.3-0.3,0.4-0.6,0.5c-0.3,0-0.9,0-1.9,0
	c-0.3,0-0.5,0-0.7,0c-2.2,0-3.8,0-4.7-0.1c-0.2,0-0.3,0-0.4,0c0,0,0.1,0.2,0.2,0.5c0,0,0,0,0,0.1c0.1,0.2,0.2,0.4,0.3,0.4
	c0.1,0,0.3,0,0.5,0c0.1,0,0.1,0,0.2,0c2-0.3,2.9-0.3,2.9,0c0,0.1,0.1,0.3,0.2,0.6c0.4,0.8,0.7,1.6,0.9,2.4c0.2,0.9,0.3,1.4,0.1,1.5
	c-0.1,0.1-0.9,0.1-2.4,0.1c-1.5,0-2.7,0-3.6-0.1c-0.2,0-0.4,0-0.4,0c0,0,0.1,0.2,0.2,0.5C49.7,83,49.8,83.2,49.9,83.2z M61.3,82.2
	c-0.2,0.1-0.8,0.1-1.9,0.1c-1.1,0-1.6-0.1-1.7-0.1c-0.1-0.1-0.1-0.1-0.1-0.2c0-0.1,0-0.2,0.1-0.4c0.2-0.5,0.2-1.1-0.1-1.7
	c-0.3-0.6-0.7-1.1-1.4-1.6l0,0c-0.5-0.3-0.8-0.6-0.8-0.6c0-0.1,0.2-0.2,0.7-0.2c0.4,0,1.4,0,2.9,0c0.2,0,0.4,0,0.7,0
	c1.2,0,2,0,2.3,0c0.4,0,0.7,0.1,0.8,0.2c0,0.1,0,0.3,0,0.6c0,0.1,0,0.1,0,0.1c-0.3,1-0.5,1.8-0.8,2.6C61.7,81.8,61.4,82.2,61.3,82.2
	z M78.3,82.6c0.2,0,0.3-0.1,0.3-0.2c0-0.1,0.1-0.5,0.3-1.2c0,0,0-0.1,0-0.1c0.4-2,0.6-3.3,0.6-4.1c0.1-0.9,0.1-1.5,0-1.9
	c-0.1-0.3-0.4-0.5-0.8-0.6c-0.6-0.2-1-0.1-1.3,0.2s-0.5,0.8-0.5,1.4c0,0.5,0.2,1.7,0.5,3.5c0.3,1.8,0.5,2.8,0.6,2.9
	C77.9,82.6,78.1,82.6,78.3,82.6L78.3,82.6z M83,82.6c0.2,0,0.4-0.4,0.6-1.1c0.2-0.7,0.4-2.1,0.7-4.1c0.2-1.1,0.1-1.9-0.1-2.4
	c-0.2-0.5-0.6-0.7-1.3-0.6c-0.5,0-0.9,0.3-1.1,0.7c-0.2,0.4-0.2,1.1-0.1,2.1c0.1,0.6,0.2,1.7,0.5,3.1c0.3,1.4,0.4,2.2,0.4,2.2
	C82.7,82.6,82.8,82.6,83,82.6z M100.2,95.9c0.2,0.1,0.6,0.1,1,0c0.5-0.1,0.9-0.3,1.2-0.6l0,0c0.1-0.1,0.1-0.2,0.1-0.3
	c0-0.2,0-0.7,0-1.6c0-0.5,0-0.8,0-1.1c0-1,0-2.1,0-3.3c0-1.2,0-1.8,0.1-1.9c0.1-0.1,0.2-0.2,0.5-0.2c0.2,0,1,0,2.4,0
	c0.1,0,0.3,0,0.5,0c0.9,0,1.5,0,1.7,0c0.3,0,0.5,0.1,0.6,0.2c0,0.1,0.1,0.3,0,0.6c0,0.1,0,0.1,0,0.2c0,0.5,0,0.7,0.1,0.8
	c0.1,0.1,0.4,0.1,0.9,0c0.7-0.1,1.1-0.3,1.2-0.5c0.1-0.2,0.2-0.7,0.1-1.6c-0.1-2.6-0.1-4.4-0.1-5.2c0-0.8,0.2-1.3,0.4-1.4
	c0,0,0,0,0.1,0c0.3-0.2,0.4-0.3,0.4-0.4c0-0.1-0.3-0.5-1-1c-0.7-0.5-1.1-0.8-1.3-0.8c-0.1,0-0.3,0.2-0.7,0.7c0,0,0,0.1-0.1,0.1
	c-0.2,0.2-0.4,0.4-0.6,0.4c-0.2,0-0.8,0-1.9,0c-0.2,0-0.4,0-0.6,0c-0.2,0-0.5,0-0.8,0c-0.8,0-1.3,0-1.5,0c-0.3,0-0.5-0.2-0.6-0.4
	c0-0.1-0.1-0.5,0-1c0-0.2,0-0.4,0-0.5c0-0.8,0-1.4,0-1.5c0-0.2,0.1-0.3,0.3-0.5c0.2-0.2,0.2-0.4-0.1-0.5c-0.2-0.1-0.9-0.4-2-0.6
	c-0.4-0.1-0.7-0.2-0.8-0.1c-0.1,0-0.1,0.1-0.1,0.3c0.1,0.7,0.2,1.6,0.2,2.7c0,1.1,0,1.7,0,1.9l0,0c-0.1,0.1-0.2,0.2-0.5,0.3
	c-0.2,0-1,0-2.4,0c-0.2,0-0.4,0-0.7,0c-1,0-1.6,0-1.8,0c-0.3,0-0.7-0.2-1.2-0.4c-0.2-0.1-0.3-0.1-0.4-0.2c-0.1,0-0.1-0.1-0.2-0.1
	c-0.5-0.2-0.8-0.3-0.8-0.3c-0.1,0-0.1,0.2,0,0.5c0,0.1,0,0.1,0,0.1c0.1,1.1,0.2,2.6,0.2,4.5c0,1.8,0,3.5-0.1,4.9c0,0.5,0,0.9,0.1,1
	c0.1,0.1,0.4,0.1,0.9,0c0.5-0.1,0.9-0.3,1.1-0.4c0.2-0.2,0.3-0.5,0.3-0.8c0,0,0-0.1,0-0.2c0-0.3,0-0.5,0.1-0.6
	c0.1-0.1,0.3-0.2,0.6-0.2c0.2,0,0.8,0,1.7,0c0.2,0,0.4,0,0.6,0c1.3,0,2.1,0,2.4,0c0.2,0,0.4,0.1,0.5,0.3c0.1,0.1,0.1,1.1,0.1,2.7
	c0,1.7-0.1,3.2-0.1,4.5c0,0.7-0.1,1.2,0,1.3C100,95.7,100.1,95.8,100.2,95.9z M97.2,86c-1.6,0-2.5,0-2.6-0.1
	c-0.1-0.1-0.2-0.2-0.3-0.5c0-0.3,0-1.2,0-2.6c0-0.3,0-0.6,0-1c0-0.8,0-1.3,0-1.6c0.1-0.3,0.2-0.5,0.5-0.6c0.2,0,0.7-0.1,1.4,0
	c0.4,0,0.7,0,0.9,0c0.2,0,0.6,0,0.9,0c0.7,0,1.2,0,1.4,0c0.3,0.1,0.4,0.3,0.5,0.6c0,0.2,0.1,0.7,0,1.6c0,0.4,0,0.8,0,1
	c0,1.5,0,2.3,0,2.6c0,0.3-0.1,0.4-0.3,0.5C99.7,85.9,98.8,86,97.2,86z M107.9,85.9c-0.1,0.1-1,0.1-2.6,0.1c-1.6,0-2.4,0-2.6-0.1
	c-0.2-0.1-0.3-0.2-0.3-0.5c0-0.3,0-1.1,0-2.6c0-0.3,0-0.6,0-1c0-0.8,0-1.3,0-1.6c0.1-0.3,0.2-0.5,0.5-0.6c0.2,0,0.7-0.1,1.4,0
	c0.4,0,0.7,0,0.9,0s0.6,0,0.9,0c0.8,0,1.2,0,1.4,0c0.3,0.1,0.4,0.3,0.5,0.6c0,0.2,0.1,0.7,0,1.6c0,0.4,0,0.8,0,1c0,1.5,0,2.4,0,2.6
	C108.2,85.6,108.1,85.8,107.9,85.9z M134.2,95.8c0.1,0.1,0.3,0.1,0.8,0s0.8-0.2,1.2-0.4c0.6-0.3,1.1-0.8,1.5-1.6
	c0.4-0.8,0.6-2.1,0.8-3.8c0.2-1.6,0.3-3.9,0.4-7c0-0.2,0-0.4,0-0.8c0-1.6,0.1-2.5,0.1-2.7c0-0.3,0.2-0.5,0.4-0.6c0,0,0.1,0,0.1,0
	c0.2-0.1,0.3-0.2,0.4-0.2c0-0.1,0-0.1,0-0.2c-0.1-0.2-0.4-0.5-0.8-0.9c-0.5-0.4-0.8-0.7-1-0.8c-0.1-0.1-0.2-0.1-0.3,0
	c-0.1,0-0.2,0.2-0.5,0.5c0,0-0.1,0.1-0.1,0.1c-0.3,0.3-0.5,0.5-0.7,0.6c-0.2,0-0.7,0.1-1.4,0.1c-0.2,0-0.3,0-0.4,0
	c-0.1,0-0.2,0-0.3,0c-0.7,0-1.2,0-1.3,0c-0.3,0-0.4-0.2-0.4-0.3c0-0.1,0.1-0.4,0.3-0.9c0-0.1,0.1-0.1,0.1-0.2
	c0.3-0.7,0.5-1.1,0.6-1.3c0.1-0.2,0.2-0.3,0.4-0.4c0.3-0.1,0.2-0.3-0.1-0.5c-0.4-0.2-1.1-0.5-2.2-0.8l0,0c-0.2-0.1-0.4-0.1-0.4,0
	c0,0-0.1,0.2-0.1,0.6c0,0,0,0.1,0,0.1c-0.3,2.3-1,4.8-2.2,7.6c-0.4,1-0.7,1.4-0.9,1.4c-0.1-0.1-0.2-0.7-0.2-2c0-1,0-1.6,0.1-1.8
	c0-0.2,0.2-0.4,0.5-0.6c0.2-0.1,0.3-0.3,0.2-0.5c-0.1-0.2-0.5-0.5-1.1-1c-0.4-0.4-0.7-0.5-0.9-0.5c-0.1,0-0.3,0.2-0.6,0.6
	c-0.3,0.4-0.8,0.6-1.5,0.7c-0.7,0.1-1-0.1-1-0.4c0-0.2,0.3-0.7,0.8-1.6c0.6-0.8,0.9-1.3,1.1-1.4c0.4-0.1,0.4-0.3,0.1-0.4
	c-0.3-0.2-0.9-0.4-2-0.6c0,0-0.1,0-0.2,0c-0.4-0.1-0.6-0.1-0.7-0.1c-0.1,0-0.1,0.2-0.1,0.6c0,0.1,0,0.2,0,0.2c0,0.5,0,1-0.1,1.5
	c-0.1,0.8-0.2,1.4-0.2,1.6c-0.1,0.3-0.3,0.4-0.5,0.4c-0.2,0-0.6-0.2-1.2-0.5c-0.6-0.3-0.9-0.4-1-0.4c0,0-0.1,0-0.1,0.1
	c0,0.1,0,0.3,0.1,0.8c0.1,1.1,0.2,3.5,0.2,7.1c0,3.8-0.1,6.6-0.2,8.4c-0.1,0.8,0,1.3,0.1,1.5c0.1,0.2,0.5,0.2,1.1,0
	c0.4-0.1,0.7-0.3,0.8-0.5c0.1-0.2,0.2-0.5,0.2-1v0c0-0.4,0-0.6,0-0.7c0.1-0.1,0.2-0.2,0.5-0.3c0.2,0,0.6,0,1.3,0c0,0,0.1,0,0.1,0
	c0,0,0.1,0,0.1,0c0.7,0,1.1,0,1.3,0c0.3,0,0.4,0.1,0.5,0.2c0,0.1,0.1,0.3,0.1,0.6v0.1c0,0.5,0.1,0.8,0.4,0.8c0.3,0.1,0.7,0,1.4-0.4
	c0,0,0.1,0,0.2-0.1c0.2-0.1,0.3-0.2,0.3-0.4c0-0.2,0-0.8,0-1.8c0-0.5,0-0.8,0-1.1c0-1.1,0-2.4,0-4.1c0-1.7,0-2.6,0.1-2.7
	c0-0.1,0.1-0.3,0.2-0.3c0.1-0.1,0.1-0.1,0,0c0,0.1,0,0.1,0.1,0.2c0.1,0,0.1,0,0.2,0c0.2-0.1,0.6-0.6,1.3-1.5
	c0.7-0.9,1.3-1.8,1.8-2.6c0,0,0,0,0-0.1c0.2-0.4,0.5-0.6,0.7-0.7c0.2-0.1,0.9-0.1,2-0.1c0.1,0,0.1,0,0.2,0c0.2,0,0.4,0,0.6,0
	c0.7,0,1.1,0,1.2,0c0.2,0,0.4,0.2,0.5,0.4c0,0.1,0.1,0.5,0,1c0,0.2,0,0.4,0,0.5c0,2.3-0.1,4.5-0.2,6.6c-0.1,2.1-0.3,3.5-0.5,4.4
	c-0.1,0.5-0.3,0.9-0.5,1.1c-0.2,0.2-0.6,0.4-1,0.4c-0.4,0-1.1,0-2.1-0.1c-0.5,0-0.8-0.1-0.9,0c-0.1,0-0.1,0.1-0.1,0.2
	c0,0.1,0.2,0.2,0.6,0.3c1.5,0.4,2.2,1,2.2,2.1C134.1,95.7,134.1,95.8,134.2,95.8z M123,91.8c-0.6,0-0.9,0-1.1-0.1
	c-0.2-0.1-0.3-0.3-0.4-0.6c0-0.2-0.1-0.8,0-1.7c0-0.4,0-0.7,0-0.9c0-0.2,0-0.5,0-0.8c0-0.8,0-1.4,0-1.6c0.1-0.3,0.2-0.5,0.4-0.6
	c0.1-0.1,0.5-0.1,1.1-0.1c0.2,0,0.4,0,0.6,0c0.1,0,0.3,0,0.6,0c0.6,0,0.9,0,1.1,0.1c0.2,0.1,0.3,0.3,0.4,0.6c0,0.2,0,0.8,0,1.6
	c0,0.4,0,0.6,0,0.8c0,1.5,0,2.3,0,2.6c0,0.3-0.1,0.4-0.2,0.5c-0.1,0.1-0.2,0.1-0.4,0.1c-0.1,0-0.6,0-1.4,0
	C123.4,91.8,123.2,91.8,123,91.8z M132.7,88.4c0.4,0.1,0.7,0.1,1-0.1c0.3-0.2,0.5-0.6,0.5-1c0-0.7-0.2-1.4-0.8-2
	c-0.5-0.7-1.3-1.3-2.4-1.8c-0.6-0.3-0.9-0.4-1-0.4c-0.1,0,0,0.3,0.3,0.7c1,1.5,1.6,2.9,1.8,4.1C132.1,88.1,132.3,88.3,132.7,88.4z
	 M123,84.8c-0.6,0-0.9,0-1.1-0.1c-0.2-0.1-0.3-0.3-0.4-0.6c0-0.2-0.1-0.7,0-1.6c0-0.4,0-0.7,0-0.9c0-0.2,0-0.4,0-0.8
	c0-0.8,0-1.3,0-1.5c0.1-0.3,0.2-0.5,0.4-0.6c0.1,0,0.5-0.1,1-0.1c0.2,0,0.4,0,0.6,0c0.1,0,0.3,0,0.6,0c0.6,0,0.9,0,1.1,0.1
	c0.2,0.1,0.3,0.2,0.4,0.6c0,0.2,0.1,0.7,0.1,1.5c0,0.3,0,0.6,0,0.7c0,1.4,0,2.2,0,2.5c0,0.3-0.1,0.4-0.2,0.5
	c-0.1,0.1-0.2,0.1-0.4,0.1c-0.1,0-0.6,0-1.4,0C123.4,84.8,123.2,84.8,123,84.8z M150.5,95.9c0.3,0.2,0.7,0.1,1.3-0.1
	c0.6-0.2,0.8-0.5,0.8-0.8c0,0,0-0.1,0-0.2c0-0.2,0-0.4,0.1-0.5c0.1-0.1,0.4-0.2,1-0.2c0.4,0,1.2,0,2.6,0c0.3,0,0.5,0,0.7,0
	c0.2,0,0.5,0,0.9,0c1.3,0,2.1,0,2.5,0c0.5,0,0.8,0.1,0.9,0.2c0.1,0.1,0.1,0.3,0.1,0.5c0,0.1,0,0.1,0,0.2c0,0.4,0,0.6,0.2,0.7
	c0.2,0.1,0.5,0.1,1-0.1c0.6-0.2,0.9-0.4,1-0.6c0.1-0.2,0.2-0.7,0.1-1.5c-0.2-4.8-0.1-7.2,0.4-7.2c0,0,0.1,0,0.3-0.1
	c0.1-0.1,0.2-0.2,0.2-0.2c0-0.1-0.2-0.3-0.7-0.7s-0.9-0.7-1.2-0.9c-0.1-0.1-0.3-0.1-0.4,0c-0.1,0-0.3,0.2-0.6,0.5
	c0,0-0.1,0.1-0.1,0.2c-0.2,0.2-0.5,0.4-0.7,0.4c-0.3,0-1.2,0-2.8,0c-0.5,0-0.9,0-1.2,0c-0.3,0-0.7,0-1.2,0c-1.5,0-2.4,0-2.7,0
	c-0.3,0-0.7-0.2-1.2-0.4c-0.2-0.1-0.3-0.1-0.5-0.2c0,0-0.1,0-0.2-0.1c-0.5-0.2-0.7-0.3-0.8-0.3c-0.1,0-0.1,0.2,0,0.5
	c0,0.1,0,0.1,0,0.1c0.1,1.1,0.2,2.6,0.2,4.5c0,1.9,0,3.6-0.1,5.1c0,0.4,0,0.7,0,0.8C150.4,95.7,150.4,95.8,150.5,95.9z M161.1,93.4
	c-0.1,0.1-1.5,0.1-4,0.1c-2.6,0-3.9,0-4-0.1c-0.2-0.1-0.3-0.2-0.3-0.4s0-0.6,0-1.2c0-0.1,0-0.3,0-0.5c0-0.4,0-0.7,0.1-0.9
	c0.1-0.2,0.4-0.3,0.8-0.3c0.3,0,1.1,0,2.3,0c0.5,0,0.9,0,1.2,0s0.7,0,1.2,0c1.2,0,1.9,0,2.3,0c0.4,0,0.7,0.2,0.8,0.3
	c0.1,0.1,0.1,0.4,0.1,0.9c0,0.2,0,0.4,0,0.5c0,0.7,0,1.1,0,1.3C161.3,93.2,161.2,93.3,161.1,93.4z M157,89.5c-2.6,0-4,0-4.1-0.1
	c-0.1-0.1-0.2-0.2-0.2-0.4s0-0.6,0-1.2c0-0.1,0-0.2,0-0.4c0-0.4,0-0.7,0.1-0.8c0.1-0.1,0.4-0.2,0.8-0.3c0.3,0,1.1,0,2.3,0
	c0.5,0,0.9,0,1.2,0s0.7,0,1.2,0c1.2,0,1.9,0,2.3,0c0.4,0,0.7,0.1,0.8,0.3c0.1,0.1,0.1,0.4,0.1,0.8c0,0.2,0,0.3,0,0.4
	c0,0.6,0,1,0,1.2s-0.1,0.3-0.2,0.4C161,89.4,159.7,89.5,157,89.5z M147,83.2c0.1,0,0.1,0.1,0.2,0c0,0,0.1,0,0.2,0
	c0.7-0.1,1.2-0.2,1.5-0.2c0.3,0,3.4-0.1,9.4-0.1c0.4,0,0.9,0,1.6,0c2.8,0,4.6,0,5.3,0c1,0,1.7,0,2-0.1c0.2,0,0.3-0.1,0.3-0.2
	c0,0,0-0.1,0-0.1c0-0.1-0.1-0.3-0.5-0.6c-0.3-0.3-0.7-0.7-1.2-1l0,0c-0.4-0.3-0.6-0.4-0.7-0.4c-0.1,0-0.3,0.2-0.6,0.7
	c0,0-0.1,0.1-0.1,0.1c0,0-0.1,0.1-0.1,0.2c-0.3,0.4-0.5,0.6-0.7,0.6c-0.2,0.1-0.6,0.1-1.4,0.1c-0.2,0-0.3,0-0.4,0
	c-0.9,0-1.4,0-1.6,0c-0.3,0-0.4-0.2-0.3-0.3c0-0.1,0.3-0.4,0.7-0.8c0.2-0.2,0.6-0.6,1.2-1.3c0,0,0.1-0.1,0.1-0.1
	c0.4-0.5,0.6-0.7,0.7-0.8c0.1-0.1,0.2-0.2,0.3-0.2c0.2-0.1,0.3-0.1,0.3-0.2c0-0.1-0.2-0.2-0.5-0.3c-0.6-0.3-0.8-0.5-0.6-0.6
	c0.2-0.1,1-0.1,2.4-0.1c1.1,0,1.8,0,2,0c0.2,0,0.3-0.1,0.4-0.2c0.1-0.2-0.3-0.7-1.3-1.4l0,0c-0.5-0.4-0.8-0.6-1-0.6
	c-0.1,0-0.4,0.3-0.7,0.7l0,0c0,0-0.1,0.1-0.1,0.2c-0.2,0.4-0.5,0.6-0.7,0.6c-0.2,0-0.8,0.1-1.8,0.1c-0.2,0-0.4,0-0.5,0
	c-1.1,0-1.7,0-1.9,0c-0.2,0-0.3-0.1-0.4-0.1c-0.2-0.2-0.2-0.5-0.2-0.9s0.2-0.7,0.4-0.9c0.2-0.2,0.2-0.3-0.1-0.4
	c-0.2-0.1-0.8-0.3-1.7-0.5c0,0-0.1,0-0.2,0c-0.4-0.1-0.7-0.2-0.7-0.1c-0.1,0-0.1,0.2-0.1,0.5c0,0.1,0,0.1,0,0.1c0,0.1,0,0.3,0,0.5
	c0,0.7,0,1.1,0,1.3c-0.1,0.3-0.3,0.4-0.6,0.5c-0.3,0-0.9,0-1.9,0c-0.3,0-0.5,0-0.7,0c-2.2,0-3.8,0-4.7-0.1c-0.2,0-0.3,0-0.4,0
	c0,0,0.1,0.2,0.2,0.5c0,0,0,0,0,0.1c0.1,0.2,0.2,0.4,0.3,0.4c0.1,0,0.3,0,0.5,0c0.1,0,0.1,0,0.2,0c2-0.3,2.9-0.3,2.9,0
	c0,0.1,0.1,0.3,0.2,0.6c0.4,0.8,0.7,1.6,0.9,2.4s0.3,1.4,0.1,1.5c-0.1,0.1-0.9,0.1-2.4,0.1c-1.5,0-2.7,0-3.6-0.1c-0.2,0-0.4,0-0.4,0
	c0,0,0.1,0.2,0.2,0.5C146.9,83,147,83.2,147,83.2z M158.4,82.2c-0.2,0.1-0.8,0.1-1.9,0.1c-1.1,0-1.6-0.1-1.7-0.1
	c-0.1-0.1-0.1-0.1-0.1-0.2c0-0.1,0-0.2,0.1-0.4c0.2-0.5,0.2-1.1-0.1-1.7c-0.3-0.6-0.7-1.1-1.4-1.6l0,0c-0.5-0.3-0.8-0.6-0.8-0.6
	c0-0.1,0.2-0.2,0.7-0.2c0.4,0,1.4,0,2.9,0c0.2,0,0.4,0,0.7,0c1.2,0,2,0,2.3,0c0.4,0,0.7,0.1,0.8,0.2c0,0.1,0,0.3,0,0.6
	c0,0.1,0,0.1,0,0.1c-0.3,1-0.5,1.8-0.8,2.6C158.8,81.8,158.6,82.2,158.4,82.2z M180.7,95.4c0.9,0.1,3.1,0.1,6.4,0
	c3.4,0,5.3-0.1,5.9-0.2c0.7-0.1,1.3-0.3,1.8-0.6c0.4-0.3,0.7-0.6,0.7-0.9c0-0.3-0.2-0.6-0.7-0.8c-0.4-0.2-0.6-0.4-0.6-0.6
	c-0.1-0.2-0.1-0.8-0.1-1.7s0-1.5-0.1-1.6c-0.1-0.1-0.2,0.1-0.4,0.7c0,0.1-0.1,0.3-0.1,0.5c-0.3,1.1-0.6,1.8-0.8,2.1
	c-0.3,0.4-0.9,0.7-1.8,0.8c-0.6,0.1-2,0.1-4.2,0.1c-0.4,0-0.7,0-0.9,0c-0.4,0-1,0-1.7,0c-1.9,0-3,0-3.5-0.1
	c-0.7-0.1-1.1-0.3-1.3-0.6c-0.1-0.3-0.2-0.8-0.1-1.8c0-0.4,0-0.7,0-0.9c0-0.1,0-0.2,0-0.4c0-1,0-1.6,0-1.8c0-0.2,0.1-0.3,0.3-0.4
	l0,0c0.1-0.1,1.9-0.1,5.2-0.1c3.4,0,5.2,0,5.3,0.1c0.1,0.1,0.2,0.1,0.3,0.2c0,0.1,0.1,0.2,0.1,0.5c0,0.4,0.1,0.6,0.2,0.7
	c0.1,0.1,0.4,0.1,0.8,0c0.5-0.1,0.8-0.2,1-0.3c0.2-0.1,0.3-0.3,0.3-0.6c0-0.2,0-0.6,0-1.3c-0.1-2-0.1-3.3,0-3.8c0-0.5,0.2-0.9,0.4-1
	c0.4-0.2,0.5-0.4,0.5-0.5c0-0.2-0.3-0.4-0.8-0.9c-0.6-0.5-1-0.8-1.2-0.8c-0.2,0-0.4,0.1-0.7,0.4c0,0-0.1,0.1-0.1,0.2
	c-0.3,0.3-0.5,0.5-0.7,0.5c-0.2,0-0.7,0.1-1.6,0.1c-0.2,0-0.3,0-0.4,0c-1,0-1.7,0-2,0c-0.4,0-0.5-0.2-0.5-0.3c0-0.1,0.3-0.4,0.7-0.7
	c0.6-0.5,1.1-1,1.3-1.2c0.6-0.6,1.1-0.9,1.4-1c0.3-0.1,0.4-0.2,0.4-0.3c0-0.1-0.3-0.4-0.7-0.8c-0.6-0.6-1-0.9-1.2-1
	c-0.2-0.1-0.5,0.1-0.8,0.5c0,0-0.1,0.1-0.1,0.1c-0.3,0.3-0.5,0.5-0.7,0.5c-0.2,0-0.7,0.1-1.5,0.1c-0.2,0-0.3,0-0.4,0
	c-1,0-1.6,0-1.8,0c-0.2,0-0.3-0.1-0.3-0.3c0-0.2,0.1-0.5,0.3-0.9c0.3-0.4,0.5-0.6,0.7-0.7c0.6-0.1-0.2-0.5-2.1-1.1
	c-0.4-0.1-0.6-0.2-0.7-0.1c-0.1,0-0.1,0.1-0.2,0.3c-0.3,1.4-1,3-2,4.8c-1,1.8-2.2,3.3-3.5,4.7c-0.3,0.3-0.5,0.5-0.5,0.6
	c0,0.1,0,0.1,0.2,0.1c0.2,0,0.8-0.4,1.9-1.2c0.3-0.2,0.5-0.3,0.6-0.4c0.1,0,0.2,0,0.3,0.1c0,0,0.1,0.3,0.1,0.8c0,0.4,0,1.9,0,4.3
	c0,0.1,0,0.1,0,0.1c0,2.7,0,4.2,0,4.7c0,0.5,0.1,0.9,0.2,1.2l0,0C177.7,94.7,178.8,95.3,180.7,95.4z M188.2,86.6
	c-1.2,0-1.9,0-2.1-0.1c-0.2-0.1-0.3-0.2-0.3-0.5c0-0.3,0-0.9,0-2.1c0-0.2,0-0.4,0-0.7c0-0.7,0-1.1,0-1.3c0-0.3,0.2-0.4,0.4-0.5
	c0.2,0,0.6-0.1,1.2-0.1c0.3,0,0.5,0,0.6,0c0.2,0,0.4,0,0.7,0c0.6,0,1,0,1.2,0c0.2,0.1,0.4,0.2,0.5,0.5c0,0.2,0.1,0.6,0,1.3
	c0,0.3,0,0.5,0,0.7c0,1.1,0,1.8,0,2c0,0.2-0.1,0.4-0.2,0.5C190.2,86.5,189.5,86.5,188.2,86.6z M181.5,86.6c-1.2,0-1.9,0-2-0.1
	c-0.2-0.2-0.3-1-0.3-2.5c0-1.5,0.1-2.3,0.3-2.5c0.1-0.1,0.8-0.1,2-0.1c1.2,0,1.9,0,2,0.1c0.2,0.2,0.3,1,0.3,2.4s-0.1,2.3-0.3,2.4
	C183.4,86.5,182.8,86.5,181.5,86.6z M181.9,80.7c-1.5,0-2.3,0-2.4-0.1c-0.4-0.1-0.5-0.3-0.5-0.4c0-0.2,0.3-0.6,0.7-1.1
	c0.2-0.2,0.5-0.6,0.9-1.1c0,0,0.1-0.1,0.1-0.2c0.2-0.3,0.4-0.5,0.6-0.6c0.2,0,0.7-0.1,1.6-0.1c0.2,0,0.4,0,0.5,0c1,0,1.6,0,1.9,0
	c0.4,0,0.6,0.2,0.6,0.3c0,0.1,0,0.4-0.2,0.8c-0.6,1.4-1.1,2.1-1.4,2.3C184.1,80.6,183.4,80.7,181.9,80.7z M212.3,88.2
	c1.1,0.1,2-0.2,2.8-1c0.8-0.8,1.1-1.7,1-2.8c-0.1-0.9-0.5-1.6-1.2-2.2c-0.6-0.5-1.4-0.8-2.2-0.8c-0.9,0-1.6,0.3-2.3,0.9
	c-0.7,0.6-1,1.4-1.1,2.3c0,0.8,0.2,1.6,0.7,2.3C210.6,87.6,211.4,88,212.3,88.2z M213.6,87.2c-0.8,0.3-1.6,0.2-2.3-0.3
	c-0.7-0.5-1.1-1.2-1.1-2.1c0-0.7,0.2-1.3,0.7-1.8c0.5-0.5,1.1-0.7,1.7-0.7c0.7,0,1.3,0.2,1.8,0.7c0.7,0.6,0.9,1.4,0.7,2.3
	C215,86.3,214.5,86.9,213.6,87.2z"/>
</svg>
