<?xml version="1.0" encoding="utf-8"?>
<!-- Generator: Adobe Illustrator 24.2.3, SVG Export Plug-In . SVG Version: 6.00 Build 0)  -->
<svg version="1.1" id="Layer_1" xmlns="http://www.w3.org/2000/svg" xmlns:xlink="http://www.w3.org/1999/xlink" x="0px" y="0px"
	 viewBox="0 0 352 219" style="enable-background:new 0 0 352 219;" xml:space="preserve">
<style type="text/css">
	.st0{clip-path:url(#SVGID_2_);}
	.st1{fill:none;stroke:#D6D2C7;stroke-width:1.3;stroke-miterlimit:10;stroke-dasharray:9.31,9.31;}
	.st2{fill:#D6D2C7;}
</style>
<g>
	<g>
		<defs>
			<rect id="SVGID_1_" width="351.3" height="218.1"/>
		</defs>
		<clipPath id="SVGID_2_">
			<use xlink:href="#SVGID_1_"  style="overflow:visible;"/>
		</clipPath>
		<g class="st0">
			<path class="st1" d="M350.6,0.6H0.6v216.8h350V0.6z"/>
		</g>
	</g>
</g>
<path class="st2" d="M23.8,45.2c0,0,0.1,0,0.2,0c0.9-0.2,1.5-0.3,1.8-0.5c0.4-0.3,0.6-0.8,0.6-1.7c0.1-0.6,0.1-2.1,0.1-4.3
	c0-0.3,0-0.7,0-1.2c0-1.2,0-1.9,0-2.3c0-0.4,0.1-0.8,0.2-0.9c0.1-0.1,0.2-0.3,0.5-0.4c0.1-0.1,0.2-0.1,0.3-0.2
	c0.6-0.4,1-0.6,1.2-0.6s0.3,0.1,0.5,0.5c0.1,0.2,0.2,0.3,0.2,0.4c0,0,0.2,0,0.3,0c0.5-0.1,1-0.2,1.5-0.2S32,33.9,32,34
	c0.1,0.2-0.1,0.8-0.5,2s-0.9,2.4-1.4,3.5c-0.1,0.3-0.1,0.5,0,0.6c0.2,0.1,0.5,0.1,1.1,0.1c0.4,0,0.6,0,0.7-0.1
	c0.1-0.1,0.2-0.2,0.3-0.5c0.2-0.4,0.3-0.6,0.5-0.6s0.5,0.1,1,0.3c0.9,0.5,1.4,0.8,1.5,1s-0.1,0.5-0.5,0.9c-1.4,1.3-3.3,2.4-5.9,3.2
	c-0.4,0.1-0.7,0.2-0.8,0.3c-0.1,0.1-0.1,0.1-0.1,0.2c0,0.1,0.1,0.1,0.3,0.1c0.1,0,0.5-0.1,1.1-0.2c3-0.6,5.4-1.6,7-2.9
	c0.4-0.3,0.7-0.4,0.9-0.4c0.3,0.1,0.7,0.5,1.5,1.2c0.7,0.7,1.3,1.3,1.6,1.8c0.2,0.3,0.5,0.5,0.9,0.4c0.4,0,0.7-0.2,0.8-0.6
	c0.2-0.6,0.1-1.3-0.4-2c-0.5-0.8-1.3-1.4-2.4-2.1c-0.4-0.3-0.7-0.5-0.7-0.6s0-0.4,0.2-0.7c0.6-1.2,1.1-2.6,1.4-4.4
	c0.1-0.5,0.2-0.8,0.4-0.9c0.1-0.1,0.5-0.2,1.2-0.2c0.6,0,0.9,0,1.1-0.1c0.2,0,0.2-0.2,0.2-0.3s-0.3-0.4-0.8-0.9s-0.9-0.9-1.3-1.1
	c-0.2-0.1-0.3-0.2-0.4-0.1c-0.1,0.1-0.3,0.4-0.7,1c0,0,0,0.1-0.1,0.1c-0.2,0.3-0.5,0.5-0.6,0.6c-0.2,0-0.7,0.1-1.6,0.1
	c-0.1,0-0.3,0-0.3,0c-0.1,0-0.2,0-0.3,0c-0.8,0-1.4,0-1.6,0c-0.3,0-0.4-0.2-0.5-0.4c0-0.1,0.1-0.5,0.2-1c0-0.1,0.1-0.2,0.1-0.2
	c0.2-0.5,0.3-0.9,0.4-1.1c0.1-0.2,0.3-0.4,0.4-0.5c0.2-0.1,0.3-0.2,0.2-0.3c-0.1-0.1-0.3-0.2-0.7-0.3c-0.2-0.1-0.6-0.1-1-0.2
	c-0.5-0.1-0.7-0.1-0.8-0.1c0,0-0.1,0.3-0.2,0.9c-0.2,1-0.4,1.9-0.6,2.6c-0.1,0.3-0.2,0.5-0.4,0.6c-0.1,0.1-0.4,0.1-0.8,0.1
	c-0.8,0-1.4-0.1-1.8-0.2c-0.4-0.1-0.4-0.3-0.2-0.4c0.1-0.1,0.1-0.1,0.1-0.2c0-0.1,0-0.1,0-0.1c-0.1,0-0.4,0.1-1.2,0.3
	c-0.1,0-0.2,0-0.3,0.1c-0.6,0.2-1,0.3-1.1,0.3c-0.2,0-0.3-0.1-0.4-0.3c0-0.1,0-0.5,0-1.2c0-0.1,0-0.2,0-0.3c0-0.7,0-1.1,0-1.3
	c0-0.3,0.1-0.4,0.2-0.5c0.1,0,0.4-0.1,0.7-0.1c0.4,0,0.6,0,0.8,0.1c0.1,0.1,0.2,0.2,0.3,0.5c0.1,0.5,0.4,0.8,0.8,0.9
	c0.4,0,0.8-0.1,1.2-0.5c0.4-0.4,0.7-0.9,0.7-1.5c0-0.1,0-0.2,0-0.3c0-0.3,0.1-0.5,0.2-0.5c0.1-0.1,0.4-0.2,0.8-0.2c0.3,0,1,0,2.1,0
	c0.5,0,0.9,0,1.2,0s0.6,0,1.1,0c1.3,0,2.1,0,2.4,0.1c0.4,0.1,0.7,0.2,0.7,0.5c0,0.2-0.1,0.7-0.3,1.5c-0.1,0.3-0.1,0.5-0.2,0.6
	c0,0,0,0.1,0,0.2l0.1,0.1c0.1,0,0.3-0.2,0.8-0.6s0.9-0.8,1.4-1.2c0.5-0.4,0.8-0.7,1.2-0.8c0.3,0,0.4-0.2,0.3-0.3
	c-0.1-0.2-0.3-0.5-0.8-1s-0.9-0.8-1.1-0.9c-0.2,0-0.4,0.1-0.8,0.5l0,0c-0.3,0.3-0.5,0.5-0.7,0.6c-0.2,0-0.6,0.1-1.2,0.1
	c-0.1,0-0.1,0-0.1,0s-0.1,0-0.2,0c-0.8,0-1.2,0-1.3-0.1s-0.2-0.4-0.2-1.1v-0.1c0-0.5,0-0.8,0-0.9c0-0.2,0.1-0.3,0.3-0.5
	s0.2-0.3-0.1-0.5c-0.2-0.1-0.8-0.3-1.7-0.5c0,0-0.1,0-0.2,0C34.7,23,34.5,23,34.5,23s-0.1,0.1,0,0.4v0.1c0.2,2,0.2,3-0.1,3.3
	c-0.1,0.1-0.5,0.1-1.4,0.1c-0.8,0-1.3,0-1.4-0.1c-0.2-0.1-0.4-0.3-0.4-0.6c-0.1-0.4-0.2-0.6-0.3-0.6c-0.1,0-0.1,0-0.1,0
	c0,0.3-0.1,0.6-0.3,1.1c-0.2,0.4-0.4,0.7-0.5,0.9s-0.3,0.2-0.5,0.2c-0.1,0-0.4-0.3-0.8-0.6l0,0c-0.2-0.2-0.4-0.3-0.5-0.3
	s-0.2,0.2-0.4,0.5c-0.2,0.3-0.4,0.5-0.5,0.6s-0.2,0.1-0.3,0.1c-0.2,0-0.4-0.7-0.3-2c0-1.3,0.2-2,0.4-2.2c0.5-0.3-0.2-0.7-2.2-1.2
	l0,0c-0.3-0.1-0.4-0.1-0.4,0c0,0,0,0.3,0,0.6c0.1,0.9,0.2,1.9,0.2,2.9s0,1.6-0.1,1.8c-0.1,0.2-0.3,0.3-0.6,0.3c-0.3,0-0.9,0-1.8-0.1
	c0,0,0,0-0.1,0c-0.3,0-0.4,0-0.5,0c0,0,0,0.2,0.1,0.4v0.1c0,0,0,0,0,0.1c0.1,0.3,0.2,0.4,0.3,0.4c0.1,0,0.2,0,0.4,0h0.1
	c0.7-0.2,1.2-0.3,1.5-0.2c0.3,0,0.5,0.3,0.6,0.6c0.1,0.3,0.1,0.9,0.1,1.8c0,0.1,0,0.2,0,0.4c0,0.7,0,1.1-0.1,1.3
	c-0.1,0.3-0.3,0.5-0.6,0.6c-0.2,0.1-0.8,0.3-1.6,0.5c-0.2,0-0.4,0.1-0.5,0.1c-0.3,0.1-0.5,0.1-0.6,0.2c0,0,0,0.1,0,0.2
	c0,0.1,0.2,0.5,0.4,1.2c0.2,0.6,0.3,1,0.4,1c0.1,0.2,0.2,0.1,0.4,0c0.3-0.4,0.7-0.7,1.2-1c0.5-0.2,0.8-0.3,0.9,0
	c0,0.1,0.1,1.1,0.1,2.9c0,1.9,0,2.9,0,3.1c-0.1,0.3-0.2,0.4-0.5,0.5c-0.2,0.1-0.7,0.1-1.5,0c-0.5,0-0.8,0-0.8,0
	c-0.1,0.1,0,0.2,0.4,0.3c1,0.2,1.5,0.8,1.7,1.8C23.7,45.1,23.7,45.2,23.8,45.2z M36.2,39c-0.1,0-0.2,0.1-0.3,0.1S35.7,39,35.4,39
	c-0.2,0-0.6-0.2-1.3-0.3c-0.6-0.2-1-0.3-1.1-0.4s-0.1-0.4,0.1-0.9c0.1-0.1,0.2-0.7,0.6-1.6c0-0.1,0.1-0.2,0.1-0.2
	c0-0.1,0.1-0.2,0.1-0.4c0.3-0.7,0.5-1.1,0.6-1.2c0.2-0.1,0.6-0.2,1.3-0.2c0.2,0,0.3,0,0.4,0c0.7,0,1.1,0,1.3,0
	c0.3,0,0.4,0.2,0.4,0.3s0,0.4-0.1,0.9c-0.2,1-0.5,2-0.8,2.7C36.7,38.5,36.4,39,36.2,39z M52,45.2c0.2,0.1,0.6,0.1,1,0
	c0.5-0.1,0.8-0.3,1.1-0.5c0.1-0.1,0.1-0.2,0.1-0.3s0-0.6,0-1.4c0-0.3,0-0.6,0-0.8c0-0.7-0.1-2.5-0.1-5.5c0-0.2,0-0.5,0-0.8
	c0-2,0-3.1,0-3.5s0.1-0.6,0.3-0.6l0,0c0.1-0.1,0.2-0.2,0.1-0.3c-0.1-0.1-0.3-0.3-0.6-0.6c-0.2-0.2-0.3-0.4-0.4-0.5
	c0-0.1,0.1-0.4,0.2-0.7c0.8-1.6,1.5-3,1.9-4.2c0.2-0.5,0.4-0.9,0.7-1s0.3-0.3,0-0.4c-0.3-0.2-0.9-0.4-1.9-0.7
	c-0.5-0.2-0.8-0.2-0.9-0.2c-0.1,0-0.1,0-0.1,0.1c0,0.2-0.1,0.7-0.2,1.4c-0.1,0.7-0.3,1.4-0.5,1.9c-0.4,1.3-0.9,2.7-1.6,4.2
	c-0.7,1.5-1.4,2.9-2.1,4.1c-0.2,0.3-0.3,0.5-0.3,0.6s0,0.1,0.1,0.1c0.2,0,0.8-0.5,1.9-1.7c0.3-0.4,0.5-0.6,0.7-0.6s0.3,0,0.3,0.2
	c0.1,0.2,0.1,1.6,0,4.3c0,2.7-0.1,4.7-0.2,6.1c0,0.7-0.1,1.1,0,1.2C51.8,45,51.9,45.1,52,45.2z M55.3,44.4c0,0.1,0.1,0.1,0.2,0.1
	c0.7-0.1,1.5-0.2,2.6-0.3c1.1,0,3.2,0,6.4,0c0.3,0,0.8,0,1.4,0c2.4,0,3.8,0,4.2,0c0.4,0,0.6-0.1,0.7-0.2c0.1-0.1-0.1-0.4-0.4-0.7
	c-0.3-0.4-0.8-0.8-1.4-1.2c-0.3-0.2-0.5-0.3-0.6-0.3s-0.3,0.3-0.7,0.8c0,0-0.1,0.1-0.1,0.2c-0.3,0.4-0.5,0.7-0.7,0.7
	c-0.1,0.1-0.5,0.1-1.2,0.1c-0.1,0-0.2,0-0.3,0c-0.1,0-0.3,0-0.5,0c-0.5,0-0.8,0-0.9-0.1c-0.2-0.1-0.3-0.3-0.3-0.7c0-0.3,0-0.9,0-1.8
	c0-0.5,0-0.9,0-1.1c0-0.3,0-0.7,0-1.3c0-0.9,0-1.5,0-1.8c0.1-0.3,0.2-0.5,0.5-0.6c0.2-0.1,0.7-0.1,1.5-0.1c0.4,0,0.8,0,1.1,0
	c1.5,0,2.3,0,2.5,0c0.3,0,0.4-0.1,0.5-0.2c0.1-0.2-0.3-0.7-1.2-1.5l0,0c-0.4-0.4-0.7-0.5-0.8-0.5c-0.1,0-0.3,0.2-0.6,0.6l0,0
	c-0.3,0.5-0.6,0.7-0.7,0.8c-0.2,0.1-0.6,0.1-1.2,0.1c-0.1,0-0.2,0-0.3,0c-0.4,0-0.7,0-0.8-0.1c-0.2-0.1-0.3-0.3-0.3-0.6
	c0-0.2,0-0.8,0-1.7c0-0.3,0-0.5,0-0.7c0-0.3,0-0.6,0-1c0-0.8,0-1.3,0-1.5c0.1-0.3,0.3-0.5,0.6-0.6c0.2,0,0.8-0.1,1.6,0
	c0.5,0,0.8,0,1.1,0c1.6,0,2.5,0,2.7,0c0.3,0,0.4-0.1,0.5-0.2s-0.1-0.4-0.4-0.7c-0.3-0.3-0.7-0.7-1.3-1.1c-0.3-0.2-0.5-0.3-0.6-0.3
	s-0.3,0.2-0.6,0.6c-0.4,0.5-0.7,0.8-0.9,0.9c-0.1,0.1-1.7,0.1-4.8,0.1c-3.1,0-5,0-5.5-0.1c-0.4,0-0.5,0-0.6,0c0,0,0,0.2,0.1,0.5V29
	l0,0c0.1,0.3,0.2,0.4,0.3,0.4s0.2,0,0.5,0c0.7-0.1,1.6-0.2,2.6-0.2s1.6,0,1.8,0l0,0c0.2,0,0.3,0.2,0.3,0.4c0,0.2,0,0.9,0,2.1
	c0,0.2,0,0.3,0,0.5s0,0.3,0,0.5c0,1.2,0,1.9,0,2.1c0,0.2-0.1,0.3-0.3,0.4l0,0c-0.1,0.1-0.8,0.1-2,0.1s-2.1-0.1-2.6-0.2
	c-0.1,0-0.2,0-0.2,0.1s0.1,0.3,0.2,0.5c0,0,0,0,0,0.1c0.1,0.2,0.2,0.4,0.2,0.4s0.2,0,0.5,0h0.1c0.7-0.1,1.5-0.2,2.4-0.2
	s1.4,0,1.5,0.1s0.2,0.3,0.2,0.6s0,1.3,0,3c0,1.6,0,2.6,0,3c0,0.3-0.1,0.6-0.2,0.6c-0.1,0.1-0.9,0.1-2.3,0.1c-1.4,0-2.6,0-3.6-0.1
	c-0.2,0-0.3,0-0.3,0s0.1,0.2,0.2,0.5C55.2,44.2,55.3,44.4,55.3,44.4z M62.8,27.7c0.4,0.2,0.7,0.1,1,0c0.3-0.2,0.5-0.5,0.5-0.9
	c0-0.7-0.3-1.4-1.1-2c-0.8-0.6-1.8-1.1-3.2-1.4c-0.5-0.1-0.7-0.1-0.7,0s0.3,0.4,0.8,0.9c1.1,1.1,1.8,2.1,2.3,3
	C62.5,27.5,62.7,27.7,62.8,27.7z M80.7,43.3c2.5,0,3.8,0,3.8-0.1c0.1,0,0.1-0.2,0.1-0.4s0-0.4-0.1-0.4h-0.2c-0.3,0-0.6-0.1-0.8-0.1
	c-0.1,0-0.2,0-0.4,0c-0.4,0-0.7-0.1-0.8-0.2c-0.1-0.1-0.2-0.4-0.3-0.8c0-0.3,0-1,0-2c0-0.4,0-0.7,0-0.9c0-0.3,0-0.7,0-1.2
	c0-0.9,0-1.5,0-1.8c0-0.4,0.2-0.6,0.4-0.6c0.1-0.1,0.5-0.1,1-0.1c0.3,0,0.5,0,0.6,0s0.2,0,0.3,0c0.8,0,1.3,0.1,1.5,0.2
	c0.1,0.1,0.3,0.5,0.4,1.1c0,0.1,0,0.2,0,0.3c0,0,0,0.1,0,0.2c0,0.5,0.1,0.8,0.1,0.8c0,0.1,0.2,0.1,0.4,0.1h0.1c0,0,0.1,0,0.2,0
	s0.2,0,0.3-0.1c0.1-0.1,0.1-0.2,0.1-0.6c0-0.2,0-0.7,0-1.6c0-0.4,0-0.7,0-0.9s0-0.4,0-0.7c0-0.9,0-1.5,0-1.8s0-0.5-0.1-0.6
	c0-0.1-0.1-0.1-0.3-0.1c-0.1,0-0.1,0-0.2,0l0,0c-0.2,0-0.4,0-0.4,0.1s-0.1,0.4-0.1,0.8V32c0,0.1,0,0.2,0,0.3c-0.1,0.7-0.2,1-0.4,1.2
	c-0.1,0.1-0.6,0.1-1.5,0.1c-0.1,0-0.3,0-0.3,0c-0.1,0-0.3,0-0.6,0c-0.5,0-0.9,0-1-0.1c-0.2-0.1-0.3-0.3-0.4-0.6c0-0.2-0.1-0.8,0-1.8
	c0-0.4,0-0.8,0-1c0-0.3,0-0.7,0-1.2c0-0.9,0-1.5,0-1.8c0.1-0.3,0.2-0.5,0.5-0.6c0.2-0.1,0.7-0.1,1.4-0.1c0.4,0,0.7,0,0.9,0
	c0.2,0,0.5,0,0.9,0c0.8,0,1.4,0,1.6,0c0.3,0,0.5,0.2,0.7,0.4c0.1,0.1,0.2,0.5,0.3,1.1c0,0.3,0.1,0.5,0.1,0.6s0,0.2,0.1,0.3
	c0.1,0.6,0.2,0.9,0.3,1c0.1,0.1,0.2,0.1,0.5,0.1h0.1c0.3,0,0.5,0,0.6,0s0.1-0.1,0.1-0.3c0,0,0-0.3,0-0.8c0-0.6,0-1,0-1.4
	c0-1.4-0.1-2-0.1-2.1c0,0-2.2-0.1-6.6-0.1c-4.3,0-6.5,0-6.6,0c-0.1,0.2-0.2,0.3,0,0.5c0.1,0.2,0.3,0.3,0.5,0.3
	c0.7,0.1,1.2,0.1,1.4,0.2c0.2,0.1,0.4,0.2,0.5,0.4c0,0.1,0.1,2,0.1,5.7s0,6.3,0,7.7v0.1c0,0.8-0.1,1.2-0.2,1.4
	c-0.1,0.1-0.5,0.2-1.1,0.3c-0.1,0-0.1,0-0.1,0c-0.6,0.1-0.9,0.1-0.9,0.2c0,0-0.1,0.2-0.1,0.4s0,0.3,0.1,0.3
	C77,43.2,78.2,43.3,80.7,43.3z M101.8,43.2c3.2,0,4.8,0,4.9,0c0,0,0.1-0.2,0.1-0.4s0-0.3,0-0.3c-0.1,0-0.6-0.1-1.5-0.2
	c-0.2,0-0.4-0.1-0.7-0.1c-0.5,0-0.8-0.1-0.9-0.3c-0.2-0.2-0.3-0.7-0.3-1.4c0-0.6,0-1.9,0-3.9c0-1.2,0-2.3,0-3c0-4,0-6.3,0-7
	s0-1-0.1-1.1c0-0.1-0.2-0.1-0.3,0c-0.1,0-0.6,0.1-1.5,0.3c-0.4,0.1-0.8,0.2-1.1,0.3c-0.2,0-0.5,0.1-0.9,0.2c-1,0.2-1.6,0.4-1.8,0.5
	c-0.2,0.1-0.2,0.2-0.2,0.3v0.1c0,0,0,0,0,0.1c0,0.2,0,0.3,0.1,0.3s0.4,0,0.9,0c0.1,0,0.2,0,0.2,0c0.8-0.1,1.3-0.1,1.5-0.1
	s0.3,0.1,0.4,0.3c0.1,0.1,0.1,2.5,0.1,7s0,6.9-0.1,7c-0.1,0.2-0.2,0.3-0.4,0.4c-0.2,0-0.7,0.1-1.6,0.2c-1,0.1-1.5,0.2-1.5,0.2
	S97,42.7,97,42.9s0,0.3,0,0.4C97,43.2,98.6,43.2,101.8,43.2z M113.9,44.4c0,0.1,0.2,0.1,0.6,0c0,0,0.1,0,0.2,0
	c0.6-0.1,1.4-0.2,2.2-0.2c0.9,0,3.7,0,8.4,0c0.5,0,1.3,0,2.2,0c3.6,0,5.7,0,6.3,0c0.6,0,1-0.1,1-0.2l0,0c0.1-0.2-0.3-0.7-1.4-1.6
	c0,0-0.1,0-0.1-0.1c-0.5-0.4-0.8-0.6-0.9-0.6c-0.1,0-0.3,0.2-0.6,0.6l-0.1,0.1c0,0,0,0,0,0.1c-0.4,0.5-0.7,0.9-0.8,0.9
	c-0.2,0.1-0.6,0.1-1.3,0.1c-0.1,0-0.1,0-0.2,0c-0.7,0-1.1,0-1.2,0c-0.2,0-0.3-0.1-0.4-0.3c0-0.1-0.1-2.3-0.1-6.5c0-4.3,0-6.5,0-6.8
	c0,0,0,0,0-0.1s0.1-0.2,0.1-0.3c0.1-0.1,0.4-0.1,0.7-0.1s0.9,0,1.9,0c0.2,0,0.3,0,0.4,0c1.6,0,2.5,0,2.7,0c0.3,0,0.4-0.1,0.5-0.2
	c0.2-0.3-0.4-0.9-1.8-1.8l0,0c-0.3-0.2-0.5-0.3-0.6-0.3s-0.3,0.2-0.6,0.6l-0.1,0.1c0,0,0,0.1-0.1,0.1c-0.3,0.4-0.6,0.7-0.8,0.8
	c-0.2,0.1-0.7,0.1-1.5,0.1h-0.1c-1,0-1.5-0.1-1.6-0.2s0.1-0.5,0.7-1.1s1.2-1.4,1.8-2.2c0.5-0.7,0.8-1,0.9-1c0.4,0,0.4-0.1,0-0.4
	c-0.4-0.2-1.1-0.5-2-0.8c0,0-0.1,0-0.2,0c-0.4-0.1-0.6-0.2-0.6-0.1c-0.1,0-0.1,0.2-0.2,0.4v0.1c-0.1,0.8-0.3,1.8-0.7,2.9
	c-0.3,1.1-0.6,1.8-0.8,2.1c-0.1,0.2-0.6,0.3-1.5,0.4c-0.8,0-1.7,0-2.5-0.1c-0.3,0-0.6,0-0.9,0c-0.4,0-1.4,0.1-3.1,0
	c-1.7,0-2.8-0.1-3.3-0.1c-0.1,0-0.2,0-0.2,0.1s0.1,0.3,0.2,0.6c0,0,0,0.1,0.1,0.1c0.1,0.2,0.2,0.3,0.3,0.3s0.3,0,0.7-0.1
	c0.1,0,0.2,0,0.2,0c0.8-0.1,1.8-0.2,2.9-0.2s1.7,0,1.8,0.1c0.1,0.1,0.2,0.5,0.2,1.1s0,2.6,0,6c0,0.3,0,0.7,0,1.2c0,2,0,3.4,0,3.9
	c0,0.8,0,1.2-0.1,1.4c0,0.2-0.1,0.3-0.2,0.3h-0.1c-0.1,0.1-1.1,0.1-2.7,0.1c-1.7,0-2.9-0.1-3.7-0.1c-0.3,0-0.4,0-0.4,0.2
	C113.5,43.7,113.6,44,113.9,44.4z M125.1,43.5c-0.1,0.1-0.4,0.1-0.9,0.1s-0.8,0-1-0.1l0,0c-0.1,0-0.2-0.1-0.2-0.3s-0.1-0.7-0.1-1.5
	c0-0.5,0-1.8,0-3.9c0-0.6,0-1,0-1.3c0-0.5,0-1.3,0-2.2c0-1.8,0-3,0-3.5c0-0.7,0.1-1.1,0.2-1.3c0.1-0.1,0.3-0.2,0.6-0.1
	c0.2,0,0.3,0,0.4,0s0.2,0,0.4,0c0.3,0,0.5,0,0.6,0.1c0.1,0.2,0.2,0.6,0.2,1.3c0,0.5,0,1.6,0,3.5c0,1,0,1.7,0,2.3c0,0.3,0,0.7,0,1.2
	c0,2,0,3.4,0,3.9c0,0.8,0,1.2-0.1,1.4C125.3,43.4,125.3,43.5,125.1,43.5L125.1,43.5z M128.7,40.6c0.1,0,0.1,0,0.2,0
	c0,0,0.1-0.1,0.3-0.3c1-1.5,2-3.4,2.9-5.6v-0.1c0.4-0.8,0.6-1.3,0.7-1.5c0.1-0.2,0.3-0.3,0.5-0.4c0.4-0.2,0.2-0.4-0.6-0.6
	c0,0-0.2,0-0.3-0.1c-0.5-0.1-0.8-0.2-1.1-0.3l0,0c-0.5-0.1-0.7-0.2-0.8-0.2s-0.1,0.1-0.1,0.3c0,0.7-0.1,1.7-0.4,3.1
	c-0.2,1.4-0.6,2.8-0.9,4.3v0.1c-0.2,0.6-0.2,1-0.3,1.1C128.6,40.5,128.6,40.5,128.7,40.6z M117.8,40c0.5,0.3,0.9,0.2,1.2-0.2
	c0.3-0.4,0.4-1.1,0.4-2c-0.1-0.9-0.3-1.8-0.7-2.7c-0.3-0.6-0.7-1.3-1.2-1.9c-0.5-0.6-0.9-1.1-1.2-1.3c-0.3-0.2-0.4-0.1-0.3,0.4
	c0.4,1,0.7,2.2,0.9,3.4c0.3,1.2,0.4,2.3,0.4,3.2c0,0.5,0,0.7,0.1,0.8C117.5,39.7,117.6,39.9,117.8,40z M121.2,28.4
	c0.1,0,0.3,0,0.5-0.1s0.4-0.2,0.5-0.3c0.5-0.7,0.5-1.5-0.1-2.4c-0.5-0.9-1.5-1.6-2.7-2.2c-0.5-0.2-0.8-0.3-1-0.3
	c-0.1,0-0.1,0.2,0.1,0.4c0.4,0.5,0.8,1.2,1.1,1.9c0.4,0.8,0.6,1.4,0.7,2C120.5,28,120.8,28.2,121.2,28.4z M145.7,44.5
	c0,0,0.3,0,0.9,0c0.7-0.1,1.5-0.2,2.3-0.2s2.9,0,6.4,0c4.5,0,6.8,0,7,0c0.3-0.1,0.4-0.2,0.3-0.5c-0.1-0.2-0.5-0.6-1.1-1.1
	c0,0-0.1,0-0.1-0.1c-0.6-0.5-1-0.7-1.1-0.7c-0.2,0-0.4,0.2-0.8,0.7l-0.1,0.1c0,0-0.1,0.1-0.1,0.2c-0.3,0.4-0.5,0.6-0.7,0.6
	c-0.2,0.1-0.6,0.1-1.4,0.1c-0.1,0-0.2,0-0.3,0c-0.2,0-0.4,0-0.6,0c-0.5,0-0.9,0-1-0.1c-0.2-0.1-0.3-0.4-0.4-0.8c0-0.3,0-1,0-2.1
	c0-0.5,0-1,0-1.3c0-0.4,0-0.9,0-1.5c0-1,0-1.7,0-2c0.1-0.4,0.2-0.6,0.5-0.7c0.2-0.1,0.7-0.1,1.4-0.1c0.4,0,0.8,0,1.1,0
	c1.3,0,2.2-0.1,2.5-0.1c0.4-0.1,0.6-0.3,0.4-0.5c-0.2-0.2-0.6-0.6-1.5-1.2c0,0-0.1,0-0.1-0.1c-0.4-0.3-0.6-0.4-0.7-0.3
	c-0.1,0-0.3,0.2-0.7,0.6l-0.1,0.1c0,0.1-0.1,0.2-0.2,0.3c-0.2,0.2-0.3,0.4-0.4,0.5c-0.2,0.1-0.5,0.2-0.9,0.2c-0.3,0-1,0-2.1,0
	c-0.4,0-0.8,0-1.1,0c-0.2,0-0.5,0-0.9,0c-1.3,0-2.2,0-2.5,0c-0.5,0-0.8-0.1-0.9-0.2c0-0.1,0-0.3,0.1-0.6c0-0.1,0.1-0.1,0.1-0.2
	c0.5-1.4,0.8-2.5,1-3.1c0-0.1,0.1-0.3,0.1-0.5c0.1-0.4,0.2-0.6,0.3-0.7c0.2-0.1,0.6-0.2,1.1-0.3c0.4,0,1.4,0,2.9,0c0.8,0,1.5,0,2,0
	c3,0,4.7,0,5.2,0s0.8-0.1,0.9-0.2c0.1-0.1-0.1-0.4-0.4-0.7c-0.4-0.4-0.9-0.8-1.5-1.3c-0.3-0.2-0.4-0.2-0.6-0.2
	c-0.1,0-0.4,0.3-0.7,0.8c0,0.1-0.1,0.2-0.2,0.3c-0.2,0.2-0.3,0.4-0.4,0.5c-0.2,0.1-0.4,0.2-0.9,0.2c-0.3,0-1,0-2,0c-0.4,0-0.8,0-1,0
	c-0.3,0-0.7,0-1.2,0c-1.1,0-1.9,0-2.2,0c-0.4,0-0.7-0.2-0.7-0.3c0-0.1,0-0.4,0.1-0.9c0-0.2,0.1-0.4,0.1-0.5c0.1-0.6,0.2-1.1,0.3-1.6
	c0.1-0.4,0.2-0.6,0.2-0.7c0.1-0.1,0.2-0.2,0.4-0.3c0.2-0.1,0.3-0.1,0.4-0.2c0.1-0.1,0.1-0.2,0-0.2c0,0-0.6-0.1-1.8-0.3
	c-1.2-0.2-1.7-0.3-1.8-0.2c0,0,0,0.4,0,1.2c0,2.5-0.3,3.9-0.7,4.1c-0.2,0.1-1.1,0.1-2.9,0.1c-1.7,0-2.8-0.1-3.3-0.2
	c-0.1,0-0.2,0-0.2,0.1s0.1,0.2,0.2,0.5c0,0,0,0,0,0.1c0.1,0.2,0.2,0.4,0.3,0.4s0.3,0,0.7,0c0.1,0,0.2,0,0.3,0
	C144,29,145,29,146.2,29c0,0,0,0,0.1,0c0.7,0,1.1,0,1.2,0c0.2,0,0.4,0.2,0.4,0.3c0,0.1,0,0.4-0.1,0.9v0.1c-0.6,2.6-1.4,4.9-2.4,7.2
	c-1,2.2-2.2,4-3.5,5.5c0,0.1-0.1,0.2-0.2,0.3c-0.2,0.2-0.3,0.3-0.3,0.3c-0.1,0.1-0.1,0.2-0.1,0.3c0.1,0.1,0.1,0.1,0.2,0
	c0.1,0,0.3-0.2,0.6-0.4c2.3-1.8,4.2-4.3,5.7-7.4c0,0,0,0,0-0.1c0.2-0.5,0.4-0.7,0.6-0.8s0.7-0.1,1.6-0.1c0.1,0,0.2,0,0.3,0
	c0.2,0,0.4,0,0.7,0c0.5,0,0.9,0,1,0.1c0.2,0.1,0.3,0.3,0.4,0.7c0,0.3,0,0.9,0,2c0,0.6,0,1,0,1.4c0,0.2,0,0.4,0,0.7
	c0,1.6,0,2.6,0,2.9c0,0.3-0.1,0.4-0.2,0.5l0,0c-0.2,0.1-1.2,0.1-3.2,0c-2,0-3.2-0.1-3.6-0.1c-0.1,0-0.2,0.1-0.1,0.3
	C145.3,44,145.5,44.3,145.7,44.5z M174.8,45.2c0.2,0,0.5,0,0.8,0c0.4,0,0.6-0.1,0.8-0.2c0.2-0.1,0.3-0.2,0.3-0.3s0.1-0.3,0.1-0.6
	c0,0,0-0.1,0-0.2c0-0.3,0-0.4,0.1-0.5s0.4-0.2,0.9-0.2c0.3,0,1.1,0,2.3,0c0.4,0,0.8,0,1.1,0s0.6,0,1,0c1.3,0,2.1,0,2.4,0
	c0.5,0,0.8,0.1,0.9,0.2c0.1,0.1,0.1,0.3,0.1,0.6c0,0.1,0,0.2,0,0.2c0,0.5,0.1,0.8,0.2,0.9c0.2,0.1,0.6,0.1,1.2-0.1
	c0.5-0.1,0.8-0.3,0.9-0.5c0.1-0.1,0.1-0.5,0.1-1.1c-0.1-1.5-0.1-3.1-0.1-4.8c0-1.8,0-2.7,0.1-2.8c0.1-0.2,0.2-0.3,0.4-0.4
	c0.3-0.1,0.4-0.2,0.3-0.3c0-0.1-0.2-0.4-0.6-0.7c-0.7-0.7-1.1-1-1.3-1.1c-0.2,0-0.5,0.2-0.8,0.6c0,0-0.1,0.1-0.1,0.2
	c-0.1,0.2-0.3,0.3-0.4,0.4c-0.2,0.1-0.5,0.1-0.9,0.1c-0.3,0-1,0-2.2,0c-0.5,0-1,0-1.3,0c-2,0-3.2,0-3.6,0c-0.4,0-0.6-0.1-0.8-0.1
	c-0.5-0.2-0.8-0.3-0.9-0.5c-0.1-0.2,0-0.4,0.2-0.8c0.8-1.3,1.3-2.4,1.7-3.1c0.3-0.5,0.5-0.9,0.6-1c0.1,0,2.1-0.1,6-0.1
	c3,0,4.8,0,5.3,0s0.8-0.1,0.9-0.2c0.1-0.2-0.4-0.8-1.5-1.7l0,0c-0.4-0.4-0.7-0.5-0.9-0.5c-0.1,0-0.4,0.2-0.7,0.7l-0.1,0.1
	c0,0.1-0.1,0.2-0.2,0.3c-0.2,0.3-0.4,0.5-0.5,0.6c-0.2,0.1-0.5,0.2-0.9,0.2c-0.3,0-1,0-2,0c-0.5,0-0.8,0-1.1,0c-0.2,0-0.5,0-0.9,0
	c-1.2,0-2,0-2.3,0c-0.4,0-0.7-0.1-0.8-0.3c0-0.1,0-0.4,0.2-0.8c0-0.1,0.1-0.2,0.1-0.3c0,0,0-0.1,0.1-0.3c0.2-0.5,0.3-0.9,0.3-1.1
	c0.2-0.6,0.3-0.9,0.4-1.1c0.1-0.2,0.2-0.3,0.4-0.4c0.3-0.1,0.3-0.3,0-0.4s-1-0.4-2.1-0.6c0,0-0.1,0-0.2,0c-0.4-0.1-0.6-0.1-0.6-0.1
	c-0.1,0-0.1,0.1-0.1,0.4c0,0.1,0,0.1,0,0.1c-0.1,1.2-0.2,2.3-0.5,3.3s-0.5,1.6-0.7,1.7s-1,0.1-2.5,0.1s-2.8,0-3.7-0.1
	c-0.3,0-0.4,0-0.5,0c0,0,0.1,0.2,0.2,0.5c0,0,0,0,0,0.1c0.1,0.2,0.2,0.4,0.3,0.4s0.3,0,0.6,0c0.1,0,0.1,0,0.2,0
	c0.8-0.1,1.7-0.2,2.9-0.2s1.8,0,2,0c0.3,0.2,0.2,0.8-0.3,2c-0.5,1.1-1.2,2.4-2.1,3.8c-1,1.5-1.9,2.7-2.9,3.6
	c-0.5,0.5-0.8,0.8-0.8,0.9c-0.1,0.1-0.1,0.2,0.1,0.2c0.2,0,0.7-0.3,1.5-0.9c0.8-0.7,1.6-1.3,2.3-2l0.1-0.1c0.5-0.4,0.8-0.7,0.9-0.8
	c0.2-0.1,0.3,0,0.3,0.3c0,0.2,0,0.8,0,1.6c0,0.1,0,0.2,0,0.3c0,1.9,0,3.6-0.1,5.3c0,0.8-0.1,1.4,0,1.5
	C174.5,45.1,174.6,45.2,174.8,45.2z M181.2,42.5c-2.6,0-4,0-4.2-0.1c-0.1-0.1-0.2-0.3-0.2-0.6s0-1.2,0-2.9c0-0.3,0-0.7,0-1.2
	c0-0.9,0-1.4,0.1-1.7s0.3-0.5,0.7-0.6c0.3-0.1,1-0.1,2.1-0.1c0.6,0,1.2,0,1.5,0c0.4,0,0.9,0,1.5,0c1.1,0,1.8,0,2.1,0.1
	c0.4,0.1,0.7,0.3,0.8,0.6c0.1,0.2,0.1,0.8,0.1,1.6c0,0.5,0,0.9,0,1.2c0,1.6,0,2.6,0,2.9c0,0.3-0.1,0.5-0.2,0.6
	C185.3,42.4,183.9,42.4,181.2,42.5z M203.5,45.2c0.1,0,0.3,0,0.8-0.1c0.8-0.2,1.3-0.6,1.5-1.2c0-0.2,0.1-1.5,0.1-4
	c0-0.2,0-0.5,0-0.8c0-1.2,0-1.9,0-2.3c0-0.4,0.1-0.8,0.1-0.9c0-0.1,0.2-0.2,0.3-0.3c0.1,0,0.1-0.1,0.1-0.1c0.3-0.2,0.5-0.3,0.6-0.2
	c0.1,0,0.2,0.3,0.3,0.6c0,0.4,0,1,0,1.9c0,0.8,0,1.2,0,1.4c0,0.1,0.1,0.2,0.2,0.3c0.2,0.1,0.5,0,0.8-0.1s0.5-0.2,0.5-0.4
	s0.1-0.3,0.4-0.4c0.3-0.1,0.5-0.1,0.7,0.1c0.2,0.1,0.3,0.5,0.3,1.1s-0.1,1-0.3,1.2c-0.1,0.1-0.6,0.2-1.4,0.3
	c-0.8,0.1-1.4,0.1-1.8,0.1c-0.1,0-0.2,0.1-0.1,0.2c0,0.1,0.2,0.4,0.4,0.9c0.3,0.6,0.4,0.9,0.5,1s0.2,0,0.4-0.1
	c0.1-0.1,0.3-0.2,0.5-0.3s0.6-0.2,1.2-0.4c0.2-0.1,0.6-0.2,1.1-0.3c0.5-0.2,0.9-0.3,1.1-0.4c0.7-0.2,1.2-0.4,1.4-0.3
	c0.2,0,0.3,0.2,0.5,0.5c0.1,0.2,0.2,0.4,0.5,0.5s0.5,0,0.6-0.2c0.3-0.3,0.4-0.6,0.2-1.1c-0.1-0.4-0.4-0.8-0.9-1.2
	c-0.2-0.2-0.4-0.3-0.5-0.4c-0.2-0.2-0.3-0.2-0.5-0.2c-0.1,0-0.3,0-0.4,0c-0.2,0-0.2,0.1,0,0.4c0.2,0.2,0.2,0.5,0.1,0.7
	c-0.1,0.2-0.2,0.3-0.4,0.4c-0.2,0-0.4-0.1-0.6-0.3c-0.2-0.3-0.3-0.6-0.2-0.9c0-0.4,0.2-0.6,0.4-0.9c0.2-0.2,0.5-0.3,0.7-0.1
	c0.1,0.1,0.3,0.2,0.4,0.5c0.1,0.1,0.2,0.1,0.6,0c0.5-0.1,0.7-0.2,0.8-0.4c0.1-0.1,0.1-0.5,0.1-1c-0.1-1-0.1-1.6,0-2
	c0.1-0.3,0.2-0.6,0.5-0.7c0.2-0.1,0.3-0.2,0.2-0.3c0-0.1-0.2-0.3-0.4-0.5c-0.4-0.4-0.7-0.6-0.9-0.6s-0.4,0.1-0.6,0.3
	c-0.5,0.5-1,0.7-1.4,0.4c-0.2-0.1-0.2-0.2-0.3-0.4c0-0.2,0.1-0.4,0.2-0.5c0.2-0.1,0.2-0.2,0.1-0.4c-0.1-0.1-0.5-0.3-1.1-0.6
	c-0.4-0.1-0.6-0.2-0.7-0.2c0,0-0.1,0.2,0,0.4c0.1,0.7,0,1.2-0.2,1.4s-0.5,0.3-1,0.1c-0.4-0.1-0.6-0.3-0.5-0.5c0-0.2,0.3-0.6,0.7-1.2
	c0,0,0.1-0.1,0.1-0.2c0.3-0.4,0.5-0.6,0.8-0.6c0.3-0.1,1-0.1,2.2-0.1c0.3,0,0.5,0,0.6,0c0.2,0,0.5,0,0.9,0c0.8,0,1.3,0,1.5,0
	c0.3,0.1,0.5,0.2,0.6,0.5c0,0.2,0,0.7,0,1.5c0,0.4,0,0.7,0,0.9c0,2.1-0.1,3.7-0.2,4.6c-0.1,0.9-0.2,1.6-0.4,2.3
	c-0.2,0.6-0.4,1-0.7,1.1s-0.9,0.1-2,0c-0.4,0-0.7,0-0.8,0s-0.2,0-0.2,0.1s0.2,0.2,0.6,0.3c1.1,0.3,1.7,0.8,1.7,1.6
	c0,0.1,0,0.2,0.1,0.2s0.3,0,0.6,0c0.9-0.1,1.5-0.4,1.9-0.9c0.4-0.6,0.7-1.6,0.9-3c0.2-1.3,0.3-3.4,0.4-6.4c0-1.2,0.1-1.9,0.1-2.2
	c0.1-0.3,0.2-0.5,0.4-0.5c0,0,0.1,0,0.2-0.1c0.1-0.1,0.2-0.2,0.2-0.2c0-0.1-0.2-0.3-0.5-0.6c-0.4-0.4-0.7-0.6-1-0.8
	c-0.3-0.2-0.4-0.3-0.4-0.3s0.1-0.1,0.2-0.2c0.1-0.1,0.2-0.2,0.3-0.2c0.2-0.1,0.3-0.2,0.3-0.3c0-0.1,0-0.4,0-1
	c-0.1-1.1-0.1-1.9,0-2.3c0-0.4,0.2-0.7,0.4-0.8c0.3-0.2,0.4-0.3,0.3-0.4c0-0.1-0.3-0.4-0.7-0.7c-0.4-0.4-0.7-0.6-0.9-0.6
	c-0.2-0.1-0.3,0.1-0.6,0.4c0,0-0.1,0.1-0.1,0.2c-0.2,0.3-0.4,0.5-0.7,0.5s-1,0.1-2.4,0.1c-0.4,0-0.6,0-0.8,0s-0.4,0-0.8,0
	c-1.3,0-2,0-2.3,0s-0.6-0.1-1.1-0.3c-0.1-0.1-0.3-0.1-0.4-0.1l0,0c-0.4-0.2-0.7-0.3-0.7-0.3c-0.1,0-0.1,0.1-0.1,0.3
	c0.1,0.9,0.1,1.9,0.1,3s0,1.7-0.1,1.9c-0.1,0.1-0.2,0.2-0.3,0.2s-0.3-0.1-0.6-0.3c-0.4-0.3-0.8-0.5-1-0.6s-0.3,0-0.5,0.1
	c-0.3,0.4-0.5,0.6-0.7,0.7s-0.4,0.1-0.6,0.1c-0.5-0.1-0.5-0.4,0-0.9c0.1-0.1,0.2-0.3,0.5-0.6c0.1-0.1,0.2-0.2,0.2-0.3
	c0.3-0.4,0.6-0.6,0.7-0.7s0.3-0.2,0.6-0.2c0.2-0.1,0.4-0.2,0.3-0.3s-0.2-0.3-0.5-0.6c-0.5-0.5-0.9-0.8-1.1-0.9
	c-0.2-0.1-0.4,0-0.6,0.3c-0.3,0.4-0.7,0.6-1.1,0.7c-0.4,0.1-0.6,0-0.7-0.2c-0.1-0.2,0-0.6,0.2-0.9c0.1-0.2,0.2-0.2,0.3-0.2
	c0.6-0.2,0.1-0.5-1.4-1.1c0,0-0.1,0-0.2-0.1c-0.4-0.1-0.6-0.2-0.6-0.1c-0.1,0-0.1,0.1-0.1,0.4v0.1c-0.1,1.1-0.4,2.3-0.8,3.6
	s-0.9,2.5-1.5,3.6c-0.2,0.3-0.3,0.6-0.3,0.6c0,0.1,0,0.1,0.1,0.1s0.2-0.1,0.4-0.3c0.3-0.3,0.6-0.4,0.7-0.2c0.1,0.1,0.1,1.2,0.1,3.4
	s0,3.6-0.1,4.4c-0.2,2.5-0.5,4.5-1.2,6c-0.1,0.2-0.1,0.4,0,0.4c0.1,0.1,0.2,0,0.4-0.2c0.5-0.6,1-1.4,1.4-2.4s0.7-2.2,0.9-3.4
	c0,0,0-0.1,0-0.2c0.1-0.5,0.2-0.8,0.3-0.9s0.6-0.1,1.4-0.1c0.2,0,0.3,0,0.4,0c0.1,0,0.3,0,0.6,0c0.6,0,1,0,1.1,0
	c0.2,0,0.4,0.2,0.4,0.5c0,0.2,0.1,0.6,0,1.3c0,0.3,0,0.5,0,0.7c0,0.1,0,0.2,0,0.3c0,0.9,0,1.5,0,1.7c0,0.3-0.2,0.5-0.4,0.6
	c-0.1,0-0.5,0-1,0c-0.1,0-0.2,0-0.2,0c-0.5,0-0.8,0-0.9,0c-0.1,0-0.1,0-0.1,0.1s0,0.1,0.1,0.1c0,0,0.2,0.1,0.5,0.1
	c0.8,0.2,1.3,0.7,1.5,1.4c0,0,0,0,0,0.1C203.5,45.1,203.5,45.2,203.5,45.2z M209.8,37.8c-0.7,0.3-1,0-1-1.1c0-0.6,0.1-1,0.2-1.3
	c0.2-0.2,0.5-0.3,0.8,0c0.2,0.1,0.3,0.6,0.3,1.2C210.2,37.3,210,37.7,209.8,37.8z M212.6,37.8c-0.4,0.2-0.7,0.1-1-0.3
	c-0.2-0.4-0.2-1-0.1-1.7c0.1-0.4,0.3-0.5,0.7-0.5s0.6,0.2,0.7,0.5c0.1,0.4,0.1,0.8,0,1.2C212.9,37.5,212.8,37.8,212.6,37.8z
	 M203.9,37.1c-0.2,0.1-0.3,0.1-0.6,0.1c-0.2-0.1-0.3-0.2-0.4-0.3c-0.1-0.1-0.1-0.6-0.1-1.4c0-0.8,0.1-1.3,0.1-1.4
	c0.1-0.2,0.3-0.3,0.4-0.3c0.2,0,0.3,0,0.5,0.1s0.3,0.7,0.3,1.6C204.2,36.5,204.1,37,203.9,37.1z M201.1,37.1
	c-0.2,0.1-0.4,0.1-0.6,0.1c-0.2-0.1-0.3-0.2-0.4-0.3c0-0.1,0-0.6,0-1.3c0-0.8,0-1.3,0.1-1.5s0.3-0.3,0.5-0.3c0.3,0,0.5,0.1,0.5,0.3
	c0.1,0.2,0.1,0.7,0.1,1.6c0,0.6,0,0.9-0.1,1.1C201.3,36.9,201.2,37,201.1,37.1z M206.5,34.3c-0.3,0.3-0.4,0.3-0.5,0.1
	c-0.1-0.1-0.1-0.8-0.1-2.1s0-2,0.1-2.1c0.1-0.2,0.3-0.3,0.5-0.4s0.4,0,0.5,0.1s0.2,0.1,0.3,0.1s0.4,0,0.8-0.1c0.3,0,0.4,0.1,0.4,0.4
	s-0.3,0.9-0.8,1.9C207.2,33.3,206.8,34,206.5,34.3z M203.8,33c-0.4,0.2-0.6,0.2-0.8,0c-0.2-0.3-0.2-0.8-0.2-1.5
	c0-0.8,0.1-1.3,0.2-1.5c0.1-0.2,0.4-0.3,0.8-0.1c0.2,0.1,0.3,0.6,0.3,1.5C204.2,32.3,204.1,32.9,203.8,33z M200.7,33.1
	c-0.3,0-0.4-0.1-0.5-0.3s-0.1-0.7-0.1-1.3c0-0.8,0.1-1.2,0.2-1.5c0.2-0.2,0.4-0.2,0.7,0c0.2,0.1,0.3,0.6,0.3,1.5
	c0,0.9-0.1,1.4-0.3,1.5C200.9,33,200.8,33.1,200.7,33.1z M215.4,31.3c-0.1,0-0.9,0-2.4,0s-2.2,0-2.3-0.1c-0.2-0.1-0.3-0.3-0.1-0.6
	c0.1-0.3,0.3-0.5,0.6-0.6s0.4-0.2,0.1-0.4c-0.3-0.2-0.3-0.4,0-0.4c0.3-0.1,1-0.1,2.1-0.1s1.7,0,1.9,0.1c0.2,0,0.3,0.2,0.3,0.4
	c0,0.1,0,0.2,0,0.2s0.1,0,0.3,0c0.4,0.1,0.6,0.1,0.6,0.2s-0.2,0.3-0.5,0.6C215.8,31.1,215.6,31.2,215.4,31.3z M201.4,29.1
	c-0.2,0-0.5,0.1-0.7,0c-0.3,0-0.5-0.1-0.6-0.2c-0.2-0.1-0.3-0.3-0.3-0.4c0-0.2,0.2-0.5,0.5-1.1s0.5-0.9,0.7-1
	c0.1-0.1,0.4-0.2,0.8-0.2c0.4,0,0.6,0,0.7,0.1c0.1,0.1,0.2,0.3,0.1,0.6c0,0.3-0.2,0.7-0.5,1.5C201.9,28.8,201.7,29,201.4,29.1z
	 M215.4,28.4c-0.8,0.5-1.1,0-1.1-1.5c0-0.7,0-1.2,0.1-1.3c0.1-0.2,0.3-0.3,0.6-0.3s0.5,0.1,0.6,0.3c0.1,0.2,0.1,0.6,0.1,1.3
	c0,0.6,0,1,0,1.2C215.6,28.2,215.5,28.3,215.4,28.4z M209.8,28.4c-0.2,0.1-0.5,0.2-0.7,0s-0.4-0.3-0.4-0.6c-0.1-0.8-0.1-1.5,0-1.9
	c0.1-0.5,0.4-0.7,0.7-0.7s0.5,0.1,0.6,0.3s0.1,0.6,0.1,1.4c0,0.6,0,1,0,1.2C210,28.2,209.9,28.3,209.8,28.4z M212.5,28.4
	c-0.2,0.1-0.4,0.1-0.6,0.1c-0.2,0-0.4-0.1-0.5-0.3c-0.1-0.1-0.1-0.6-0.1-1.3c0-0.8,0.1-1.2,0.1-1.3c0.1-0.1,0.2-0.2,0.5-0.3
	c0.2,0,0.4,0,0.6,0.1c0.3,0.1,0.4,0.6,0.4,1.5C212.9,27.8,212.8,28.3,212.5,28.4z M227.3,45.2c0,0,0.1,0.1,0.3,0c0.1,0,0.1,0,0.2,0
	c1-0.2,1.7-0.6,1.9-1.1l0,0c0.1-0.3,0.2-0.6,0.2-1s0.1-1.7,0.1-3.8c0-2.7,0-4.1,0.1-4.2c0.1-0.2,0.5-0.5,1.2-0.9
	c1.1-0.7,1.6-1.1,1.6-1.2c0-0.1-0.1-0.1-0.2-0.1s-0.4,0.1-1,0.3c-0.1,0-0.1,0-0.2,0.1c-0.5,0.2-0.9,0.3-1,0.2
	c-0.2,0-0.3-0.1-0.4-0.4c0-0.2-0.1-0.6-0.1-1.3c0-0.2,0-0.3,0-0.4s0-0.3,0-0.6c0-0.7,0-1.1,0-1.2c0-0.2,0.2-0.4,0.3-0.5
	c0.1,0,0.5,0,1,0c0.2,0,0.3,0,0.4,0h0.1c0.7,0,1.2,0,1.3,0.1s0.2,0.3,0.3,0.7V30c0,0.3,0,1.4,0,3.2c0,1.8,0,2.9,0,3.3
	c0,0.5,0,0.8,0.1,0.9c0.1,0.1,0.4,0.1,0.9,0c0.7-0.2,1.1-0.4,1.1-0.7c0-0.4,0.3-0.6,0.8-0.7c0.6-0.1,1,0,1.1,0.4
	c0.1,0.3,0.1,0.7,0,1.3s-0.2,1-0.4,1.1c-0.1,0-0.8,0.1-2.2,0c-1.3,0-2.3,0-2.8-0.1c-0.4,0-0.6,0-0.6,0s0,0.2,0.2,0.5v0.1
	c0.1,0.3,0.2,0.4,0.3,0.4s0.2,0,0.4,0h0.1c0.6-0.1,1.4-0.2,2.3-0.2c1-0.1,1.6-0.1,1.8,0c0.5,0.1,0.5,0.6,0,1.5
	c-0.9,1.6-2.7,2.8-5.3,3.8c-0.4,0.2-0.7,0.3-0.8,0.3c0,0,0,0.1,0,0.2c0,0.1,0.2,0.1,0.4,0c0.2,0,0.7-0.1,1.4-0.3
	c1.8-0.5,3.2-1.1,4.2-1.8c1.1-0.7,1.9-1.6,2.4-2.6c0.2-0.4,0.4-0.6,0.5-0.6s0.3,0.2,0.4,0.6c0.9,2.2,2.4,3.7,4.5,4.4
	c0.2,0.1,0.4,0.1,0.4,0.1c0.1,0,0.1-0.1,0.1-0.3c0.1-0.8,0.6-1.4,1.4-1.7c0.3-0.1,0.4-0.2,0.3-0.3c0,0-0.3-0.1-0.8-0.2
	c-1.5-0.3-2.8-0.8-4-1.4c-1.2-0.6-1.7-1.2-1.7-1.7c0-0.1,0.1-0.2,0.1-0.2c0.1,0,0.4-0.1,0.8-0.1c0.3,0,1,0,2.1,0
	c1.3,0,2.2,0,2.5-0.1c0.5,0,0.7-0.2,0.6-0.3c0-0.1-0.3-0.4-0.8-0.9s-0.8-0.7-1-0.8s-0.4-0.2-0.5-0.1c-0.1,0.1-0.3,0.3-0.5,0.6
	c0,0-0.1,0.1-0.1,0.2c-0.3,0.4-0.5,0.7-0.7,0.7c-0.1,0.1-0.5,0.1-1.2,0.1c-0.1,0-0.2,0-0.3,0c0,0-0.1,0-0.2,0
	c-0.7,0-1.1-0.1-1.2-0.2c-0.1-0.1-0.1-0.5,0-1.1c0-0.1,0-0.1,0-0.2c0.1-0.6,0.2-1,0.3-1.1s0.4-0.2,1-0.2c0.5,0,0.8,0.1,1,0.2
	c0.2,0.1,0.3,0.3,0.3,0.6c0,0.2,0,0.3,0.1,0.3s0.2,0,0.4,0c0.8-0.1,1.2-0.3,1.4-0.5s0.3-0.7,0.3-1.4c-0.1-2-0.1-3.3,0-3.8
	c0.1-0.6,0.2-0.9,0.5-1.1c0.2-0.1,0.3-0.3,0.2-0.5s-0.4-0.4-0.9-0.8s-0.8-0.6-1-0.6c-0.1,0-0.3,0.1-0.6,0.4c0,0-0.1,0.1-0.1,0.2
	c-0.2,0.3-0.4,0.4-0.7,0.5c-0.2,0-1,0-2.2,0c-0.4,0-0.7,0-0.9,0c-1.5,0-2.4,0-2.7,0s-0.6,0-0.7-0.1c-0.8-0.3-1.5-0.6-1.9-0.8
	s-0.8-0.5-1.1-0.8c-0.5-0.5-0.8-0.7-0.9-0.7c-0.1,0-0.3,0.2-0.6,0.5c-0.2,0.4-0.4,0.6-0.6,0.7c-0.1,0.1-0.2,0.1-0.3,0
	c0,0-0.1-0.2-0.1-0.3c0-0.2,0-0.6,0-1.4c0-0.9,0-1.4,0-1.6s0.1-0.4,0.3-0.5c0.3-0.2,0.2-0.4-0.1-0.5c-0.3-0.2-1-0.4-2.1-0.6l0,0
	c-0.3-0.1-0.4-0.1-0.4,0c0,0,0,0.3,0,0.6c0.1,0.9,0.2,1.8,0.2,2.7c0,1,0,1.5-0.1,1.6c-0.1,0.2-0.3,0.3-0.6,0.3s-0.9,0-1.7-0.1
	c0,0,0,0-0.1,0c-0.3,0-0.4,0-0.5,0c0,0,0,0.2,0.1,0.4v0.1c0,0,0,0,0,0.1c0.1,0.2,0.2,0.4,0.2,0.4c0.1,0,0.2,0,0.5-0.1h0.1
	c0.7-0.2,1.1-0.2,1.3-0.2c0.3,0.1,0.5,0.3,0.6,0.7c0.1,0.3,0.1,1,0.1,2c0,0.1,0,0.3,0,0.6c0,0.8,0,1.3-0.1,1.5
	c-0.1,0.3-0.3,0.5-0.6,0.7c-0.2,0.1-0.8,0.3-1.6,0.5c-0.3,0.1-0.5,0.1-0.7,0.2c-0.1,0-0.2,0.1-0.2,0.2c0,0.1,0.1,0.5,0.3,1.1v0.1
	c0.3,0.8,0.4,1.2,0.5,1.3s0.2,0,0.3-0.2s0.4-0.5,0.9-0.7c0.4-0.2,0.7-0.3,0.9-0.2c0.1,0.1,0.2,0.2,0.2,0.5c0,0.2,0,1,0,2.4
	c0,0.1,0,0.3,0,0.6c0,1.1,0,1.8,0,2c-0.1,0.4-0.2,0.6-0.4,0.7c-0.2,0-0.6,0-1.2,0c-0.1,0-0.2,0-0.3,0c-0.5,0-0.7,0-0.8,0
	c-0.1,0.1,0,0.2,0.4,0.3c0.5,0.1,0.8,0.3,1.1,0.6s0.4,0.7,0.6,1.2C227.2,45,227.3,45.2,227.3,45.2z M238.9,35.2c-2,0-3,0-3.1-0.1
	c-0.2-0.2-0.3-0.5-0.3-1.1s0.2-0.9,0.4-1c0.1-0.1,1.1-0.1,3-0.1s2.9,0,3,0.1c0.2,0.1,0.4,0.5,0.4,1s-0.1,0.9-0.3,1.1
	C241.9,35.2,240.9,35.2,238.9,35.2z M238.9,32.2c-2,0-3,0-3.1-0.1c-0.2-0.2-0.3-0.5-0.3-1.1s0.2-0.9,0.4-1c0.1-0.1,1.1-0.1,3-0.1
	s2.9,0,3,0.1c0.2,0.1,0.4,0.5,0.4,1s-0.1,0.9-0.3,1.1C241.9,32.2,240.9,32.2,238.9,32.2z M235.6,28.5c0.1,0.1,0.4,0,0.9-0.1
	c0.4-0.1,0.8-0.2,0.9-0.4c0.1-0.1,0.1-0.1,0.1-0.2c0,0,0-0.2,0-0.5c0-0.4,0.1-0.7,0.2-0.8c0.1-0.1,0.5-0.1,1.2-0.1
	c0.6,0,1,0,1.2,0.1s0.2,0.4,0.2,0.9c0,0.3,0,0.6,0,0.6s0.1,0.2,0.2,0.2c0.2,0.1,0.6,0,1-0.1c0.5-0.2,0.7-0.4,0.7-0.5v-0.1
	c0-0.2,0-0.3,0-0.4c0-0.4,0.1-0.6,0.3-0.6c0.2-0.1,0.8-0.1,1.8-0.1c1.2,0,1.8-0.1,1.9-0.3s-0.2-0.6-1-1.3c-0.4-0.4-0.7-0.6-0.9-0.6
	c-0.1,0-0.4,0.2-0.7,0.7l0,0c-0.4,0.6-0.8,0.8-1.1,0.6c-0.2-0.1-0.3-0.3-0.3-0.7c0-0.4,0.2-0.6,0.4-0.8c0.2-0.2,0.2-0.3,0-0.5
	c-0.2-0.1-0.8-0.3-1.7-0.6c-0.4-0.1-0.6-0.2-0.7-0.1c-0.1,0-0.1,0.1-0.1,0.4c0.2,1.3,0.1,2-0.1,2.2c-0.1,0.1-0.5,0.1-1.1,0.1
	s-1,0-1.1-0.1c-0.2-0.1-0.3-0.4-0.3-0.7c0-0.4,0.2-0.6,0.4-0.8c0.2-0.2,0.1-0.3-0.1-0.5c-0.3-0.1-0.8-0.3-1.7-0.6c0,0,0,0-0.1,0
	c-0.3-0.1-0.5-0.1-0.6-0.1c0,0-0.1,0.2,0,0.5v0.1c0.1,0.8,0.1,1.4,0,1.6c-0.1,0.3-0.4,0.5-0.8,0.6c-0.4,0-1.1,0-2.2-0.1
	c-0.2,0-0.2,0-0.3,0c0,0,0.1,0.2,0.2,0.6c0,0,0,0,0,0.1c0.1,0.2,0.2,0.4,0.3,0.4s0.3,0,0.6-0.1l0,0c0.8-0.2,1.4-0.2,1.7-0.1
	s0.4,0.4,0.4,1C235.4,28.1,235.5,28.4,235.6,28.5z M272.9,45.2c0.5,0.1,0.8-0.1,1.1-0.5c0.3-0.4,0.3-0.9,0.2-1.6
	c-0.3-1.7-1.7-3.1-4.1-4.3c-0.6-0.3-1-0.4-1.1-0.4s0,0.2,0.3,0.6c0.8,1.1,1.3,1.8,1.4,2.1s-0.2,0.5-0.7,0.6c-0.5,0-1.3,0.1-2.6,0.1
	c-1.3,0-2,0-2.1,0c-0.3,0-0.4-0.1-0.4-0.3s0.2-0.5,0.6-1c1.9-2.2,3.6-4.6,5.3-7.3c0.3-0.4,0.5-0.7,0.8-0.7c0.3-0.1,0.3-0.2,0-0.4
	s-0.9-0.5-1.9-1c0,0,0,0-0.1,0c-0.3-0.1-0.5-0.2-0.5-0.1c-0.1,0-0.1,0.2-0.2,0.5v0.1c-0.6,1.9-2.1,4.9-4.4,9.1c0,0-0.1,0.1-0.1,0.2
	c-0.3,0.5-0.6,0.8-0.7,0.9c-0.2,0.1-0.7,0.1-1.5,0.1c-0.1,0-0.2,0-0.3,0c-0.1,0-0.3,0-0.5,0c-0.6,0-1,0-1,0.1s0,0.4,0.2,0.8
	c0.1,0.2,0.1,0.3,0.2,0.4c0.3,0.8,0.5,1.3,0.6,1.4c0.1,0.1,0.2,0.1,0.4-0.1c0.1-0.1,0.3-0.2,0.6-0.3c0.3-0.1,0.9-0.2,1.8-0.4
	c1.3-0.3,2.8-0.6,4.5-1c0.4-0.1,0.6-0.1,0.8-0.2c0.8-0.2,1.3-0.3,1.5-0.3c0.3,0,0.6,0.1,0.7,0.4c0.1,0.2,0.3,0.7,0.5,1.5
	c0.1,0.3,0.2,0.6,0.3,0.7C272.4,45.1,272.6,45.2,272.9,45.2z M255.8,45.2c0.1,0.1,0.3,0.1,0.7,0s0.8-0.2,1.1-0.3
	c0.7-0.4,1.3-1.1,1.6-2.2c0.4-1.2,0.6-3,0.8-5.4c0-0.7,0.1-1.1,0.2-1.3s0.2-0.3,0.5-0.5c0.3-0.1,0.3-0.3,0.2-0.5
	c-0.1-0.2-0.5-0.5-1-1c-0.4-0.3-0.6-0.5-0.7-0.5s-0.3,0.2-0.6,0.5c-0.3,0.3-0.5,0.5-0.7,0.6c-0.2,0-0.6,0.1-1.2,0.1c0,0-0.1,0-0.2,0
	c-0.5,0-0.8,0-0.9-0.1c-0.2-0.1-0.3-0.2-0.3-0.5c0-0.2,0-0.6,0.1-1.3c0-0.1,0-0.2,0-0.2c0-0.1,0-0.2,0-0.3c0.1-0.7,0.1-1.2,0.1-1.3
	c0.1-0.3,0.2-0.4,0.3-0.5c0.1,0,0.4-0.1,0.8-0.1c0.1,0,0.1,0,0.2,0c0.5,0,0.9,0,1,0.1c0.2,0.1,0.2,0.3,0.2,0.6
	c0,0.2,0.2,0.3,0.5,0.3s0.7-0.1,1.2-0.3l0,0c0.2-0.1,0.3-0.2,0.4-0.3c0-0.1,0.1-0.4,0-1c0-0.1,0-0.1,0-0.2c0-0.9,0-1.4,0-1.7
	c0.1-0.2,0.3-0.2,0.5,0.2c0.1,0.1,0.1,0.2,0.2,0.2c0,0,0.2,0,0.4,0c0.1,0,0.1,0,0.1,0c0.9-0.1,1.8-0.2,2.5-0.2c0.6,0,0.9,0,1,0.1
	c0.2,0.1,0.3,0.3,0.2,0.6c0,0.2-0.2,0.7-0.5,1.5c-0.4,1-0.6,1.6-0.7,1.9c-0.2,0.4-0.3,0.6-0.5,0.6c-0.1,0-0.3,0-0.7-0.2
	c-1.7-0.7-2.3-0.7-1.5,0c1.2,1.2,2.1,2.5,2.5,3.8c0.1,0.3,0.2,0.5,0.3,0.6s0.3,0.2,0.6,0.2c0.6,0,1-0.4,1-1.1
	c0.1-0.7-0.2-1.4-0.8-2.1c-0.3-0.3-0.4-0.6-0.4-0.7c0-0.2,0.2-0.5,0.6-0.9c0.8-1,1.5-1.7,1.9-2.3c0.4-0.5,0.7-0.8,1-1
	c0.3-0.1,0.3-0.3,0-0.4s-0.4-0.3-0.3-0.4s0.3-0.1,0.6-0.2c0.4,0,1.3,0,2.7,0c1.4,0,2.3,0,2.7-0.1c0.5-0.1,0.6-0.2,0.5-0.5
	c-0.1-0.2-0.6-0.6-1.4-1.3l0,0c-0.4-0.4-0.7-0.6-0.9-0.6c-0.1,0-0.4,0.2-0.7,0.7l0,0c-0.4,0.5-0.6,0.8-0.8,0.9s-0.5,0.1-1.1,0.1
	s-1-0.1-1.1-0.2s-0.2-0.6-0.2-1.3c0-0.6,0-1,0-1.1c0-0.2,0.1-0.3,0.3-0.5c0.2-0.2,0.2-0.3,0.1-0.4s-0.5-0.2-1.1-0.4
	c-1.3-0.4-1.9-0.4-1.9-0.2c0.1,0.2,0.1,0.8,0.2,2c0,1.1,0,1.7,0,1.8c-0.1,0.2-0.6,0.3-1.5,0.3s-2,0-3.4-0.1c-0.3,0-0.4,0-0.5,0
	s-0.1,0-0.2-0.2c0-0.2-0.1-0.4-0.1-0.7c0-0.3,0-0.5,0.1-0.6s0.2-0.3,0.5-0.4c0.2-0.1,0.3-0.3,0.1-0.6c-0.2-0.3-0.6-0.6-1.2-1.1
	c-0.3-0.3-0.6-0.4-0.7-0.4s-0.3,0.2-0.5,0.6c-0.3,0.4-0.8,0.6-1.5,0.7c-0.7,0.1-1.8,0-3.4-0.1c-0.4,0-0.6,0-0.6,0s0,0.2,0.2,0.5
	c0,0,0,0.1,0.1,0.1c0.1,0.2,0.2,0.4,0.2,0.4c0.1,0,0.2,0,0.4,0h0.1c2.6-0.4,4-0.3,4.1,0.2c0.1,0.2,0.1,0.8,0.1,1.9s-0.1,1.7-0.1,1.8
	c-0.2,0.3-0.5,0.4-1.1,0.4s-1.3-0.2-2.2-0.6c-0.1,0-0.2,0-0.3-0.1c-0.5-0.2-0.8-0.3-0.8-0.3s-0.1,0.3,0,1c0,1.4-0.1,3.4-0.4,5.9
	c0,0,0,0.1,0,0.2c-0.1,0.5-0.1,0.8,0,0.9s0.2,0.1,0.6,0.1c0.1,0,0.1,0,0.2,0c0.5,0,0.8,0,0.9-0.1c0.2-0.1,0.3-0.3,0.3-0.6
	c0.1-0.4,0.2-0.6,0.3-0.7c0.2-0.1,0.6-0.1,1.2-0.1h0.1c0.5,0,0.9,0,1,0.1c0.2,0.1,0.3,0.3,0.3,0.6c0,0.2,0,0.7-0.1,1.6
	c0,0.1,0,0.2,0,0.2c-0.1,1.6-0.3,2.8-0.5,3.5c-0.2,0.8-0.4,1.3-0.8,1.5c-0.3,0.2-0.8,0.3-1.5,0.3c-0.1,0-0.2,0-0.4,0
	c-0.4,0-0.7,0-0.8,0c-0.3,0-0.5,0-0.5,0c0,0.1,0,0.1,0.1,0.2c0.1,0,0.3,0.1,0.5,0.2c1.1,0.3,1.6,0.9,1.6,1.7
	C255.7,45.1,255.7,45.2,255.8,45.2z M39.8,68.3c0.9,0.7,1.3,0.9,1.3,0.6s0.2-0.6,0.6-1s0.7-0.7,1.1-0.9c0.3-0.1,0.4-0.2,0.4-0.3
	c0-0.1-0.2-0.2-0.5-0.3c-1.3-0.5-2.5-1.3-3.7-2.3c-0.4-0.3-0.6-0.6-0.6-0.7c0-0.2,0.1-0.5,0.3-0.9c1-1.7,1.7-3.6,2.3-5.7
	c0.1-0.6,0.3-1,0.4-1.1c0.1-0.2,0.2-0.3,0.5-0.3c0.3-0.1,0.4-0.2,0.3-0.4c-0.1-0.2-0.3-0.5-0.8-1s-0.8-0.8-1-0.8
	c-0.1,0-0.4,0.1-0.7,0.5c0,0-0.1,0.1-0.2,0.2c-0.3,0.3-0.5,0.4-0.7,0.5c-0.2,0-0.9,0.1-1.9,0.1c-0.3,0-0.5,0-0.7,0s-0.5,0-0.9,0
	c-0.8,0-1.3,0-1.6,0s-0.5-0.2-0.6-0.4c0-0.2-0.1-0.6,0-1.2c0-0.3,0-0.5,0-0.7s0-0.5,0-0.8c0-0.6,0-0.9,0.1-1.1
	c0.1-0.2,0.4-0.4,0.8-0.4c0.3,0,1.1,0,2.3,0c0.7,0,1.2,0,1.7,0c1.8,0,2.9,0,3.4,0c0.7,0,1.1,0,1.2-0.1c0.1,0,0.2-0.1,0.2-0.2
	c0.1-0.3-0.4-0.8-1.3-1.5c-0.4-0.3-0.7-0.5-0.8-0.5s-0.3,0.2-0.6,0.6l0,0c0,0-0.1,0.1-0.1,0.2c-0.2,0.4-0.5,0.6-0.7,0.7
	C38.7,49,38,49,36.7,49c-0.3,0-0.5,0-0.6,0s-0.3,0-0.6,0c-1.1,0-1.8,0-2.1,0s-0.7-0.2-1.2-0.4c-0.1-0.1-0.3-0.1-0.4-0.1
	c0,0-0.1,0-0.2-0.1c-0.4-0.2-0.7-0.2-0.7-0.2c-0.1,0-0.1,0.2-0.1,0.5c0,0.1,0,0.1,0,0.1c0,0.6,0.1,1.3,0.1,2.2s0,1.4,0,1.5
	c-0.1,0.2-0.2,0.2-0.3,0.2c-0.1,0-0.4-0.3-0.8-0.7l0,0c-0.5-0.5-0.8-0.7-1-0.7c-0.1,0-0.3,0.2-0.6,0.6c-0.3,0.5-0.6,0.7-0.7,0.7
	c-0.2,0-0.3-0.7-0.3-2c0-1.4,0.1-2.1,0.4-2.3s0.2-0.4-0.1-0.5c-0.3-0.2-1-0.4-2-0.6c-0.3-0.1-0.4-0.1-0.5,0c0,0,0,0.2,0,0.5
	c0.2,1.3,0.2,2.5,0.2,3.5s-0.1,1.5-0.3,1.7C24.8,53,24.3,53,23.4,53c-0.8,0-1.4-0.1-1.8-0.2c-0.2,0-0.2,0.2,0.1,0.6l0,0
	c0.1,0.3,0.2,0.4,0.3,0.5c0,0,0.1,0,0.3,0l0,0c0.4-0.1,0.8-0.2,1.2-0.2c0.4,0,0.7,0,0.9,0c0.1,0.1,0.2,0.2,0.2,0.4s0,0.5-0.1,0.9
	c-0.7,3.3-1.7,6-3,8.1c-0.2,0.3-0.2,0.4-0.3,0.5c0,0.1,0,0.1,0.1,0.2c0.1,0.1,0.4-0.2,1-0.8s1.2-1.4,1.7-2.3
	c0.3-0.5,0.5-0.8,0.7-0.9c0.1-0.1,0.2,0,0.3,0.2c0.1,0.2,0.1,1.2,0.1,3c0,1.8-0.1,3.4-0.2,4.7c0,0.6-0.1,1-0.1,1.2
	c0,0.1,0,0.2,0.1,0.3c0.1,0.1,0.2,0.2,0.3,0.2c0.2,0.1,0.6,0,1-0.1s0.7-0.3,0.9-0.5c0.1-0.1,0.1-0.2,0.1-0.3c0-0.1,0-0.5,0-1.2
	c0-1-0.1-2.8-0.1-5.6c0-2.7,0-4.2,0-4.3c0.1-0.2,0.2-0.3,0.3-0.2c0.1,0.1,0.3,0.3,0.4,0.6c0.1,0.2,0.2,0.5,0.4,1
	c0.1,0.4,0.2,0.6,0.2,0.7c0,0.3,0.2,0.5,0.5,0.6c0.4,0.1,0.7,0,0.9-0.2c0.5-0.4,0.5-1.1,0.1-1.8c-0.4-0.8-1.1-1.4-2.1-2
	c-0.4-0.2-0.6-0.4-0.6-0.5c-0.1-0.1-0.1-0.4-0.1-0.9c0,0,0,0,0-0.1c0-0.5,0.1-0.8,0.2-0.9c0.1-0.1,0.6-0.1,1.5-0.1h0.1H29
	c0.9,0,1.4-0.1,1.5-0.1c0.1-0.1,0.2-0.1,0.2,0s0.1,0.1,0.1,0.3c0,0.1,0,0.9,0,2.2s0,2.2-0.1,2.4c0,0.3-0.1,0.7-0.1,1.2
	c-0.1,1.6-0.4,3.3-0.8,4.9c-0.4,1.6-1,3-1.7,4.2c0,0.1-0.1,0.3-0.1,0.3c0,0.1,0,0.1,0.1,0.1c0.1,0.1,0.5-0.2,1.1-1
	c0.6-0.7,1.1-1.4,1.5-2.2c0.7-1.2,1.2-2.5,1.5-4s0.6-3.2,0.7-5.4l0,0c0-0.7,0.1-1,0.1-1.2c0-0.1,0.1-0.2,0.3-0.3s0.3,0,0.4,0.1
	c0.1,0.1,0.2,0.4,0.2,0.9c0.3,2.2,0.9,4.3,1.6,6.2c0.3,0.6,0.4,1,0.3,1.2c0,0.2-0.3,0.6-0.8,1.3c-1.2,1.5-2.6,2.7-4.2,3.7l0,0
	c-0.2,0.1-0.4,0.2-0.4,0.3c0,0,0,0.1,0,0.2c0.1,0.2,0.9,0,2.2-0.8c1.4-0.8,2.4-1.5,3.2-2.2c0.5-0.5,0.9-0.7,1-0.7
	c0.2,0,0.4,0.3,0.8,0.8C38.2,66.9,39,67.6,39.8,68.3z M37.1,61.2c-0.3,0.3-0.7,0-1.2-1s-1-2.3-1.4-3.8v-0.1
	c-0.1-0.5-0.2-0.8-0.1-0.9c0-0.2,0.2-0.3,0.5-0.3c0.2,0,0.7,0,1.6,0c0.1,0,0.2,0,0.2,0c1.1,0,1.7,0,1.9,0s0.3,0.1,0.4,0.3
	c0.1,0.3-0.1,1.3-0.6,2.9C37.8,60,37.4,60.9,37.1,61.2z M58.1,61c0.1,0.2,0.2,0.3,0.4,0.3s0.5-0.2,0.9-0.6c0.9-0.7,1.6-1.6,2-2.8
	c0.4-1.1,0.4-2.1,0.1-2.9c-0.3-0.9-0.9-1.3-1.8-1.2c-0.6,0-1,0.3-1.3,0.7c-0.2,0.4-0.3,0.9-0.1,1.4s0.5,1,1.1,1.3
	c0.3,0.2,0.5,0.3,0.6,0.5c0.1,0.1,0.1,0.2,0.1,0.4c-0.1,0.4-0.3,0.8-0.6,1.3c-0.4,0.5-0.8,0.8-1.2,1.2C58.1,60.7,58,60.8,58.1,61
	C57.9,60.7,58,60.8,58.1,61z M91.4,69.2c0,0.1,0.4,0.1,1.1-0.1c0.7-0.1,1.2-0.3,1.6-0.6c0.4-0.3,0.6-0.7,0.7-1.2
	c0.1-0.2,0.1-2.9,0.1-8.3c0-0.2,0-0.4,0-0.5c0-5.6,0-8.5,0.1-8.5c0.1-0.1,0.2-0.2,0.4-0.2c0.2,0,0.6-0.1,1.4-0.1
	c1.1,0,1.6-0.1,1.7-0.3c0-0.2-0.4-0.7-1.4-1.5c0,0,0,0-0.1-0.1c-0.5-0.4-0.8-0.6-1-0.6c-0.1,0-0.4,0.3-0.7,0.7L95.2,48
	c-0.4,0.5-0.7,0.8-0.9,0.9c-0.2,0-2.7,0-7.7,0c-5.2,0-8.3,0-9.3-0.1c-0.2,0-0.3,0-0.3,0s0.1,0.2,0.2,0.6v0.1
	c0.1,0.2,0.2,0.4,0.3,0.4c0.1,0,0.2,0,0.6,0c0.7-0.1,1.4-0.2,2.1-0.2s2.6,0,5.9,0c0.3,0,0.8,0,1.3,0c2.6,0,4.1,0,4.5,0
	s0.7,0.1,0.8,0.2l0,0c0.1,0.1,0.1,2.8,0.1,8.1s0,8-0.1,8.2s-0.3,0.3-0.6,0.4c-0.3,0-1.1,0-2.5-0.1c-0.8,0-1.3-0.1-1.4-0.1
	S88,66.5,88,66.5c0,0.1,0.2,0.2,0.5,0.2c1.8,0.3,2.8,1,3,2.1l0,0C91.3,69.1,91.4,69.2,91.4,69.2z M79.7,64.3
	c0.3,0.2,0.7,0.1,1.3-0.1c0.5-0.3,0.8-0.6,0.8-0.9c0,0,0,0,0-0.1c-0.1-0.6-0.1-1,0-1.2c0-0.2,0.2-0.4,0.6-0.4c0.2,0,0.8-0.1,1.7-0.1
	h0.1c0,0,0.1,0,0.2,0c0.8,0,1.3,0,1.5,0c0.3,0,0.5,0.1,0.6,0.3c0,0.1,0.1,0.3,0,0.6v0.1c0,0.5,0.1,0.8,0.4,0.9
	c0.3,0.1,0.8,0,1.4-0.4l0,0c0.3-0.1,0.4-0.2,0.4-0.4s0-0.4,0-1s-0.1-1.8-0.1-3.6s0-2.8,0-2.9c0.1-0.3,0.2-0.5,0.5-0.6
	s0.4-0.2,0.3-0.4s-0.2-0.4-0.6-0.7c-0.7-0.6-1.1-1-1.3-1.1c-0.2-0.1-0.4,0.1-0.7,0.4c0,0-0.1,0.1-0.1,0.2c-0.2,0.3-0.5,0.5-0.6,0.6
	c-0.2,0-0.7,0.1-1.6,0.1c-0.2,0-0.4,0-0.5,0s-0.3,0-0.5,0c-0.8,0-1.4,0-1.6,0s-0.6-0.2-1.1-0.4c-0.1,0-0.2-0.1-0.2-0.1
	S80.5,53,80.4,53c-0.4-0.2-0.7-0.3-0.8-0.3c-0.1,0-0.1,0.2,0,0.5c0,0.1,0,0.1,0,0.1c0.1,1.1,0.2,2.7,0.2,4.6c0,1.9,0,3.6-0.1,5.2
	c0,0.4,0,0.7,0,0.8C79.5,64.2,79.6,64.3,79.7,64.3z M84.1,60.9c-1.3,0-2,0-2.1-0.1s-0.2-0.3-0.3-0.6c0-0.3,0-1.2,0-2.6
	c0-0.2,0-0.5,0-0.9c0-0.8,0-1.3,0-1.6c0.1-0.3,0.2-0.5,0.5-0.6c0.2,0,0.6-0.1,1.2,0c0.3,0,0.5,0,0.7,0s0.4,0,0.7,0c0.6,0,1,0,1.2,0
	c0.2,0.1,0.4,0.3,0.5,0.6c0,0.2,0,0.7,0,1.6c0,0.4,0,0.7,0,0.9c0,1.5,0,2.4,0,2.6c0,0.3-0.1,0.5-0.2,0.6
	C86,60.8,85.3,60.9,84.1,60.9z M110,69.1c0,0.1,0.2,0.1,0.5,0s0.9-0.3,1.8-0.6c2.8-1.1,5.2-2.5,7.1-4.4c0.4-0.4,0.7-0.6,0.8-0.7
	c0.2-0.1,0.4-0.1,0.6,0.1c0.1,0.1,0.4,0.5,0.9,1.1c0.8,1.1,1.5,2.2,2,3.2c0.3,0.5,0.4,0.8,0.5,0.9s0.3,0.2,0.6,0.3
	c0.6,0.1,0.9-0.1,1.2-0.6c0.2-0.5,0.2-1.1-0.1-1.8c-0.5-1.3-1.8-2.6-3.8-3.6c-0.5-0.3-0.8-0.5-0.9-0.6c0-0.2,0-0.5,0.3-0.9
	c0.7-1.3,1.3-2.8,1.6-4.3c0.3-1.5,0.6-3.6,0.7-6.3c0-0.6,0-1,0.1-1.2s0.2-0.3,0.3-0.4c0.3-0.2,0.3-0.3,0-0.4c-0.3-0.1-1-0.2-2.1-0.4
	c-0.4,0-0.7-0.1-0.8,0c-0.1,0-0.1,0.1-0.1,0.1c0.1,0.3,0.1,1.4,0.1,3.2c-0.1,4.1-0.9,7.5-2.5,10.1s-4.3,4.8-8,6.6
	c-0.5,0.2-0.7,0.4-0.8,0.4C110,68.9,110,69,110,69.1z M105.8,67.2c0.1,0.1,0.2,0,0.3-0.1c0.2-0.2,0.4-0.4,0.6-0.5s0.8-0.4,1.6-0.9
	c1.8-0.9,3.5-1.8,5.1-2.7c1.6-1,2.5-1.5,2.5-1.6s-0.1-0.1-0.3-0.1c-0.2,0-1,0.3-2.3,0.7c-1.4,0.4-2.2,0.7-2.5,0.8s-0.5,0.1-0.6,0
	s-0.2-0.5-0.2-1.1c0-0.7-0.1-2.7-0.1-5.9c0-0.3,0-0.8,0-1.4c0-1.9,0-3.2,0-3.7c0-0.7,0-1.2,0-1.4c0-0.1,0.1-0.3,0.2-0.3l0,0
	c0.2-0.2,0.2-0.3,0.1-0.4c-0.2-0.1-0.6-0.2-1.2-0.2c-0.9-0.1-1.3-0.1-1.3,0s0,2.6,0.1,7.3c0,0.3,0,0.6,0,1.1c0,3.3,0.1,5.3,0.1,5.9
	c0,0.6,0,0.9-0.1,1c-0.1,0.2-1,0.6-2.5,0.9c-0.4,0.1-0.5,0.1-0.5,0.2c0,0,0.2,0.4,0.5,1.2C105.6,66.7,105.8,67.2,105.8,67.2z
	 M116.3,57c0.5,0.2,1,0,1.2-0.4c0.3-0.4,0.3-1,0-1.7c-0.5-1.4-1.9-2.6-4.2-3.5c-0.5-0.2-0.8-0.3-0.8-0.2s0.1,0.3,0.5,0.7
	c1.3,1.6,2.1,3,2.6,4.3C115.8,56.6,116,56.9,116.3,57z M136.9,69.2c0.1,0.1,0.1,0.1,0.2,0c0.1,0,0.4-0.1,0.8-0.3
	c2-0.8,3.7-1.8,4.9-3.1c1.2-1.3,2.2-3,2.9-5s1.1-4.6,1.3-7.8c0-0.2,0-0.6,0.1-1.1c0-0.2,0-0.4,0-0.5c0,0,0,0,0-0.1
	c0-0.4,0.1-0.6,0.1-0.7c0.1-0.1,0.2-0.2,0.5-0.2c0.2,0,0.6,0,1.3,0h0.1c0.1,0,0.3,0,0.5,0c0.6,0,1,0,1.2,0.1s0.3,0.4,0.4,0.9
	c0,0.3,0,1.1,0,2.3c0,0.4,0,0.7,0,1c-0.2,4.3-0.4,7.2-0.8,8.7c-0.3,1.5-0.8,2.4-1.5,2.5c-0.2,0-0.7,0-1.5,0s-1.4-0.1-1.6-0.1
	c-0.1,0-0.2,0-0.3,0.1s0,0.2,0.1,0.2c0,0,0.2,0,0.5,0.1c0.8,0.2,1.3,0.5,1.6,0.7c0.3,0.3,0.5,0.7,0.5,1.2c0,0.3,0.1,0.4,0.2,0.5
	c0.1,0,0.4,0,0.9-0.1c1-0.2,1.8-0.8,2.3-1.6c0.5-0.9,1-2.5,1.2-4.7c0.3-2,0.5-5.2,0.6-9.5c0-0.9,0.1-1.5,0.1-1.7
	c0.1-0.2,0.2-0.4,0.6-0.5c0.3-0.1,0.4-0.2,0.3-0.3c0-0.1-0.2-0.4-0.6-0.8c-0.8-0.8-1.2-1.1-1.4-1.1c-0.1,0-0.3,0.2-0.7,0.6
	c-0.4,0.4-0.7,0.7-0.8,0.7c-0.2,0.1-1.9,0.1-4.9,0c-3.1,0-4.8-0.1-5.2-0.2c-0.1,0-0.2,0-0.2,0s0.1,0.2,0.2,0.4
	c0.2,0.3,0.3,0.5,0.3,0.6c0.1,0.1,0.1,0.1,0.2,0.1c0,0,0.1,0,0.3,0s0.3-0.1,0.4-0.1c1.2-0.2,2-0.3,2.4-0.1c0.4,0.1,0.6,0.6,0.6,1.3
	c-0.1,4.7-0.8,8.3-2,11c-1.2,2.6-3,4.6-5.5,5.9c-0.3,0.1-0.4,0.2-0.5,0.3C136.8,69,136.8,69.1,136.9,69.2z M136.5,63.6
	c0.2,0,0.9,0.1,2.1,0c1.1,0,1.8-0.1,2.1-0.1c0.7-0.2,1.2-0.4,1.5-0.8c0.2-0.4,0.2-0.8-0.2-1.2c-0.2-0.2-0.3-0.4-0.3-0.5
	c0-0.2-0.1-0.6-0.1-1.4c0-0.9-0.1-1.4-0.1-1.4c-0.1-0.1-0.2,0.1-0.3,0.6c-0.2,1-0.4,1.6-0.5,1.9c-0.1,0.4-0.4,0.6-0.6,0.7
	c-0.2,0.1-0.6,0.1-1.3,0.1c-0.1,0-0.2,0-0.3,0c-0.4,0-0.6-0.1-0.7-0.1c-0.1-0.1-0.2-0.3-0.3-0.7c0-0.3,0-0.9,0-1.8
	c0-0.3,0-0.5,0-0.6c0-0.2,0-0.6,0-1c0-0.8,0-1.3,0-1.5c0.1-0.3,0.2-0.5,0.5-0.6c0.2-0.1,0.7-0.2,1.4-0.3c0.4-0.1,0.7-0.1,1-0.2
	c1.3-0.3,2.1-0.4,2.4-0.6c0.4-0.1,0.6-0.3,0.5-0.5c-0.1-0.1-0.5-0.4-1.1-0.9l0,0c-0.5-0.4-0.8-0.6-1-0.6c-0.2-0.1-0.4,0-0.5,0.1
	s-0.2,0.4-0.4,0.9l0,0c-0.2,0.5-0.3,0.8-0.5,0.9c-0.1,0.1-0.5,0.2-1,0.3c0,0-0.1,0-0.2,0c-0.4,0.1-0.7,0.1-0.8,0.1
	c-0.2-0.1-0.3-0.3-0.3-0.6c0-0.2,0-0.8,0-1.8c0-0.2,0-0.4,0-0.5c0-1.3,0-2,0-2.3c0-0.2,0.1-0.4,0.3-0.5c0.5-0.3-0.1-0.6-1.9-1.1
	c0,0,0,0-0.1,0c-0.3-0.1-0.4-0.1-0.5-0.1c0,0,0,0.2,0,0.5v0.1c0.1,0.8,0.1,2.1,0.1,3.8s0,2.6-0.1,2.8c-0.1,0.1-0.2,0.2-0.4,0.3
	c-0.2,0-0.6,0.1-1.2,0.3c0,0-0.1,0-0.2,0c-0.5,0.1-0.9,0.2-0.9,0.2c-0.1,0-0.1,0.2,0,0.3s0.2,0.2,0.2,0.2c0.1,0,0.4,0,0.8-0.1l0,0
	c0.1,0,0.2,0,0.4-0.1c0.5-0.1,0.8-0.1,0.9-0.1c0.2,0.1,0.3,0.3,0.3,0.7c0,0.3,0,1,0,2c0,0.4,0,0.7,0,0.9c0,1.5,0,2.5,0.1,2.9
	c0,0.6,0.2,1,0.3,1.2C135.8,63.4,136.1,63.5,136.5,63.6z M162.7,69.2c0,0,0.3,0,0.7,0c0.9-0.2,1.5-0.6,1.8-1.3
	c0.1-0.2,0.1-0.4,0.1-0.8s0-1.6,0-3.7c0-0.2,0-0.5,0-0.8c0-1.8,0-2.8,0-3.1s0.1-0.5,0.2-0.6h0.1c0,0,0.3-0.3,0.9-0.6
	c0.1-0.1,0.2-0.1,0.3-0.2c0.8-0.5,1.2-0.8,1.2-0.9c0-0.1-0.1-0.1-0.2-0.1c-0.1,0-0.4,0.1-0.9,0.2l0,0c-0.6,0.2-0.9,0.3-1.1,0.3
	c-0.2,0-0.3-0.1-0.4-0.4c0-0.2,0-0.7,0-1.5v-0.1v-0.1c0-0.7,0-1.2,0-1.4c0-0.3,0.1-0.5,0.3-0.5c0.1,0,0.4-0.1,0.8,0h0.1
	c0.7,0,1,0.1,1.1,0.3s-0.1,0.5-0.6,1.1c-0.2,0.3-0.3,0.4-0.3,0.5c0.1,0.1,0.3,0,0.6-0.2c0.4-0.3,0.7-0.4,0.8-0.2
	c0.1,0.1,0.2,0.6,0.1,1.4c0,0.6,0,1.1,0,1.7c0,0.3,0,0.8,0,1.5c0,0.1,0,0.2,0,0.3c0,0.6,0,1,0.2,1.2c0.2,0.1,0.6,0.1,1.2-0.1
	c0.4-0.1,0.6-0.2,0.7-0.4c0.1-0.1,0.2-0.4,0.2-0.7c0-0.6,0.1-0.9,0.3-0.9c0.6,0,1.1-0.5,1.7-1.3c0.6-0.9,0.9-1.8,1.1-2.8
	c0.1-0.4,0.1-0.7,0.2-0.8c0.1-0.1,0.3-0.2,0.5-0.2c0.4,0,0.6,0.1,0.6,0.3c0.1,0.2,0.1,0.8,0.1,1.8c0,0,0,0.1,0,0.2
	c0,0.8,0,1.2,0.1,1.4c0.1,0.3,0.2,0.5,0.4,0.6c0.2,0,0.5,0.1,1.1,0.1c0.1,0,0.2,0,0.3,0c0,0,0.1,0,0.2,0c0.7,0,1.2,0.1,1.3,0.2
	c0.1,0.1,0.1,0.5,0.1,1.3c0,0.1,0,0.2,0,0.2c0,0.4,0,0.7,0,0.8s0.2,0.1,0.5,0.2c0.3,0,0.5,0.1,0.5,0.2c0,0.1,0,0.2-0.2,0.5
	c-0.3,0.5-0.5,0.8-0.8,0.9s-0.8,0.1-1.7,0.1c-0.8,0-1.3,0-1.4,0c-0.2,0-0.3-0.1-0.4-0.3c-0.1-0.2-0.1-0.5,0-0.9s0.2-0.7,0.4-0.8
	c0.2-0.2,0.2-0.3,0-0.4c-0.2-0.1-0.7-0.2-1.4-0.3c-0.1,0-0.2,0-0.3,0c-0.4-0.1-0.7-0.1-0.8,0s-0.1,0.3-0.1,0.7c0,0.1,0,0.2,0,0.3
	c0,0.7-0.1,1.1-0.1,1.3s-0.2,0.3-0.4,0.4c-0.1,0-0.9,0.1-2.1,0c-1.3,0-2.3-0.1-2.9-0.1c-0.3,0-0.4,0-0.5,0c0,0,0,0.2,0.2,0.5
	c0.1,0.3,0.2,0.5,0.3,0.6c0,0,0.3,0,0.8-0.1c1.6-0.2,2.7-0.3,3.3-0.2c0.7,0.1,1,0.3,0.9,0.6c-0.2,0.9-0.8,1.8-1.8,2.7
	c-1,0.9-2.2,1.7-3.6,2.3c-0.4,0.2-0.6,0.3-0.7,0.3c-0.1,0.1-0.1,0.1,0,0.2c0,0.1,0.1,0.1,0.2,0.1c0.1,0,0.3,0,0.6-0.1
	c2-0.6,3.6-1.3,4.8-2.1c1.2-0.8,2-1.8,2.5-3c0.2-0.4,0.4-0.7,0.5-0.6c0.1,0,0.3,0.2,0.5,0.7c0.9,2.2,2.4,3.8,4.4,4.9
	c0.3,0.2,0.5,0.2,0.6,0.2s0.1-0.1,0.2-0.3c0.2-0.8,0.6-1.3,1.3-1.5c0.6-0.2,0.5-0.4-0.2-0.5c-1.4-0.4-2.7-0.9-4-1.7
	c-1.3-0.8-1.9-1.4-1.9-1.9c0-0.1,0-0.2,0.1-0.2s0.4-0.1,0.8-0.1c0.3,0,1,0,2.1,0c1.4,0,2.3,0,2.7-0.1c0.5-0.1,0.7-0.3,0.5-0.6
	c-0.1-0.2-0.6-0.6-1.4-1.3c-0.3-0.2-0.4-0.4-0.5-0.4c0-0.1,0.1-0.2,0.2-0.4c0.1-0.1,0.2-0.2,0.2-0.4c0-0.1,0-0.5,0-1
	c-0.1-1.8-0.1-3-0.1-3.8c0-0.7,0.2-1.2,0.4-1.3c0.3-0.2,0.4-0.3,0.4-0.4c0-0.1-0.2-0.3-0.5-0.6s-0.7-0.6-1.1-0.9
	c-0.2-0.2-0.4-0.2-0.5-0.2s-0.3,0.2-0.5,0.6c-0.2,0.3-0.4,0.5-0.5,0.5s-0.6,0.1-1.3,0.1s-1.1,0-1.3,0s-0.2-0.1-0.2-0.2
	c0-0.1,0.3-0.5,1-1.1s1.1-0.9,1.3-0.9c0.4,0,0.5-0.1,0.5-0.3s-0.3-0.5-0.8-1s-0.9-0.8-1.1-0.8c-0.2,0-0.4,0.1-0.7,0.5
	c-0.4,0.4-1,0.7-1.8,0.8s-1.1-0.1-1.1-0.5c0-0.2,0.1-0.4,0.3-0.7s0.4-0.5,0.5-0.5c0.7-0.1,0.1-0.4-1.5-0.8c-0.5-0.1-0.9-0.2-1-0.2
	s-0.2,0.1-0.2,0.2c-0.4,1.6-0.8,3-1.5,4.3c-0.4,0.7-0.6,1.1-0.8,1.2c-0.2,0-0.5-0.2-1-0.7s-0.7-0.8-0.8-0.7c0,0-0.1,0.1-0.3,0.4
	l-0.1,0.1c-0.4,0.7-0.7,0.9-0.8,0.8c-0.1-0.2-0.2-0.8-0.2-2c0-0.9,0-1.4,0-1.6c0-0.2,0.1-0.4,0.3-0.5c0.2-0.2,0.2-0.3-0.1-0.5
	s-0.9-0.4-1.9-0.6c0,0,0,0-0.1,0c-0.3-0.1-0.4-0.1-0.5,0c0,0,0,0.2,0,0.5v0.1c0.1,0.9,0.2,1.9,0.2,2.9s0,1.6-0.1,1.8
	s-0.3,0.3-0.6,0.3s-0.8,0-1.6-0.1h-0.1h-0.6c0,0,0.1,0.2,0.2,0.6c0.2,0.3,0.3,0.5,0.4,0.5h0.1c0.1,0,0.2-0.1,0.3-0.1
	c0.6-0.2,1-0.2,1.3-0.2s0.4,0.3,0.5,0.6s0.1,1,0.1,1.9c0,0.1,0,0.3,0,0.6c0,0.7,0,1.2,0,1.4c-0.1,0.3-0.2,0.5-0.4,0.6
	s-0.6,0.2-1.2,0.4c-0.2,0.1-0.4,0.1-0.5,0.1s-0.2,0-0.3,0.1c-0.4,0.1-0.5,0.2-0.6,0.3s0,0.4,0.2,0.8c0.1,0.2,0.1,0.3,0.1,0.4
	c0.3,0.7,0.4,1.1,0.5,1.2c0.1,0.1,0.2,0,0.3-0.1c0.2-0.3,0.5-0.6,0.9-0.8s0.7-0.3,0.8-0.1c0.1,0.1,0.1,0.3,0.1,0.6s0,1.1,0,2.4
	c0,0.1,0,0.3,0,0.6c0,1,0,1.7,0,1.9c-0.1,0.4-0.2,0.6-0.5,0.7c-0.2,0-0.6,0-1.2,0c-0.1,0-0.2,0-0.3,0c-0.5,0-0.7,0-0.8,0
	c-0.1,0.1,0,0.2,0.4,0.3c0.5,0.1,0.9,0.3,1.2,0.7c0.3,0.4,0.5,0.8,0.5,1.2C162.6,69.1,162.6,69.1,162.7,69.2z M171,57.6
	c-0.2,0.2-0.3,0.2-0.4,0.2c-0.1-0.1-0.2-0.2-0.2-0.5s0-0.9,0-1.9s0-1.6,0.1-1.7c0.1-0.2,0.3-0.3,0.6-0.3c0.4,0,0.6,0,0.8,0.1
	c0.3,0.2,0.3,0.9,0.1,1.9C171.7,56.5,171.4,57.2,171,57.6z M178.2,56.3c-0.2,0.1-0.5,0.2-0.9,0.1c-0.4,0-0.6-0.2-0.7-0.3
	c-0.1-0.2-0.2-0.6-0.1-1.3c0-0.7,0.1-1.1,0.2-1.2c0.1-0.1,0.3-0.1,0.7-0.1s0.7,0,0.8,0.1c0.2,0.2,0.3,0.6,0.3,1.4
	C178.6,55.7,178.4,56.2,178.2,56.3z M172.4,52.8c-0.9,0-1.4,0-1.6,0c-0.4-0.1-0.4-0.5,0.2-1.2l0,0c0.2-0.3,0.3-0.4,0.4-0.6
	c0.3-0.4,0.5-0.6,0.7-0.6c0.2-0.1,0.6-0.1,1.4-0.1c0.7,0,1.1,0,1.2,0.1c0.1,0,0.2,0.2,0.2,0.4c0,0.3-0.1,0.6-0.3,1.1
	c-0.2,0.4-0.4,0.7-0.6,0.8C173.8,52.7,173.3,52.7,172.4,52.8z M189.7,55.9c0.2,0,0.3-0.1,0.3-0.2s0.1-0.5,0.3-1.2v-0.1
	c0.4-2,0.6-3.3,0.6-4.1c0.1-0.9,0.1-1.5,0-1.9c-0.1-0.3-0.4-0.5-0.8-0.6c-0.6-0.2-1-0.1-1.3,0.2s-0.5,0.8-0.5,1.4
	c0,0.5,0.2,1.7,0.5,3.5s0.5,2.8,0.6,2.9C189.3,55.9,189.4,55.9,189.7,55.9L189.7,55.9z M194.3,55.9c0.2,0,0.4-0.4,0.6-1.1
	c0.2-0.7,0.4-2.1,0.7-4.1c0.2-1.1,0.1-1.9-0.1-2.4c-0.2-0.5-0.6-0.7-1.3-0.6c-0.5,0-0.9,0.3-1.1,0.7c-0.2,0.4-0.2,1.1-0.1,2.1
	c0.1,0.6,0.2,1.7,0.5,3.1c0.3,1.4,0.4,2.2,0.4,2.2C194,55.9,194.1,55.9,194.3,55.9z M207.9,69.1c0.1,0.1,0.3,0,0.6-0.2
	c1.1-0.9,2.1-2,2.8-3.5c0.3-0.5,0.5-0.8,0.6-0.8s0.3,0.2,0.6,0.7c0.5,1.1,1.1,1.9,1.9,2.4s1.8,0.8,3.1,0.9c0.5,0,1.3,0,2.2,0
	s1.4,0,1.4,0s0.1-0.2,0.1-0.5c0.1-0.6,0.3-1,0.6-1.1c0.2-0.2,0.4-0.3,0.4-0.3s-0.2-0.1-0.6-0.1c-0.3,0-0.9,0-2,0c-0.2,0-0.5,0-0.9,0
	c-0.8,0-1.3,0-1.5-0.1c-0.3-0.1-0.5-0.2-0.6-0.5c0-0.2-0.1-0.7,0-1.4c0-0.4,0-0.6,0-0.8s0-0.5,0-0.8c0-0.7,0-1.2,0-1.4
	c0-0.3,0.2-0.4,0.4-0.5c0.2,0,0.6-0.1,1.2-0.1c0.3,0,0.6,0,0.8,0c1.1,0,1.8,0,2,0s0.3-0.1,0.4-0.2c0.1-0.1,0-0.2,0-0.3
	c-0.1-0.1-0.3-0.4-0.6-0.7c-0.6-0.6-1-0.9-1.2-0.9s-0.4,0.2-0.7,0.6c-0.3,0.4-0.5,0.7-0.6,0.8c-0.2,0.1-0.4,0.1-0.7,0.1
	c-0.3,0-0.5,0-0.6-0.1s-0.2-0.3-0.2-0.6s0-0.9,0-1.8c0,0,0-0.1,0-0.2c0-0.9,0-1.4,0-1.7s0.1-0.5,0.3-0.6c0.1-0.1,0.3-0.1,0.7-0.1
	h0.1c0.5,0,0.8,0.1,0.9,0.3s0,0.7-0.3,1.5c-0.2,0.6-0.3,1-0.3,1.1s0.2,0.1,0.5-0.1c0.2-0.2,0.7-0.7,1.5-1.4c0.7-0.6,1.1-1,1.3-1
	c0.4,0,0.5-0.2,0.3-0.5c-0.2-0.4-0.6-0.8-1.2-1.3c-0.3-0.2-0.4-0.3-0.5-0.3s-0.3,0.2-0.6,0.5l-0.1,0.1c-0.2,0.2-0.5,0.4-0.7,0.4
	s-1,0-2.2,0c-0.3,0-0.5,0-0.6,0c-1.7,0-2.8,0-3.3,0c-0.7,0-1-0.1-1.1-0.3c0-0.1,0.1-0.4,0.5-0.8c0.1-0.1,0.2-0.3,0.4-0.6
	c0.1-0.1,0.1-0.2,0.2-0.2c0.3-0.4,0.5-0.7,0.7-0.7c0.1,0,1.4-0.1,4-0.1c0.2,0,0.3,0,0.4,0c2.2,0,3.4,0,3.8,0s0.6-0.1,0.7-0.2
	c0.1-0.1,0-0.4-0.4-0.8c-0.3-0.4-0.8-0.8-1.3-1.2c-0.3-0.2-0.4-0.2-0.6-0.2c-0.1,0-0.3,0.3-0.6,0.8c0,0,0,0.1-0.1,0.1
	c-0.3,0.4-0.5,0.6-0.7,0.7c-0.2,0.1-0.8,0.1-1.9,0.1c-0.1,0-0.3,0-0.3,0c-0.1,0-0.2,0-0.4,0c-0.8,0-1.3,0-1.5,0
	c-0.3,0-0.4-0.2-0.4-0.3s0.1-0.4,0.3-0.8c0-0.1,0.1-0.1,0.1-0.2c0.1-0.1,0.1-0.3,0.2-0.5l0.1-0.3c0-0.1,0.1-0.2,0.2-0.3
	c0.1-0.2,0.3-0.3,0.4-0.3c0.3-0.1,0.3-0.3,0-0.4c-0.2-0.2-0.8-0.4-1.8-0.7c-0.5-0.2-0.8-0.3-0.9-0.3s-0.1,0.1-0.1,0.3
	c0,0.5-0.1,1.2-0.4,2.4c-0.3,1.1-0.5,1.8-0.6,2s-0.3,0.3-0.4,0.2c-0.2-0.1-0.5-0.4-1.1-0.9c0,0-0.1-0.1-0.2-0.2
	c-0.4-0.3-0.6-0.5-0.7-0.5s-0.2,0.1-0.4,0.4c0,0.1-0.1,0.1-0.1,0.2c-0.7,1.1-1.3,1.3-1.7,0.8c-0.1-0.2-0.2-0.8-0.1-1.7
	s0.2-1.4,0.3-1.6c0.2-0.2,0.2-0.3,0-0.5c-0.2-0.1-0.8-0.3-1.8-0.6h-0.1c-0.4-0.1-0.6-0.2-0.7-0.1c0,0-0.1,0.2,0,0.5v0.1
	c0.1,0.8,0.2,1.6,0.2,2.4c0,0.8,0,1.3-0.1,1.4c-0.2,0.3-1.1,0.4-2.8,0.2c-0.5,0-0.7-0.1-0.8-0.1c-0.1,0-0.1,0.2,0.1,0.6
	c0.1,0.2,0.2,0.4,0.2,0.4c0.1,0,0.2,0,0.5-0.1h0.1c0.6-0.2,0.9-0.2,1.1-0.2s0.4,0.2,0.5,0.6c0.1,0.3,0.1,0.9,0.1,1.8
	c0,3.3-0.2,6-0.6,8.1c-0.4,2.1-1.1,4-2,5.5c-0.1,0.2-0.2,0.4-0.2,0.5s0,0.2,0.1,0.2c0.1,0.1,0.1,0.1,0.2,0.1s0.3-0.2,0.7-0.7
	c0.4-0.5,0.7-0.9,1-1.2c0.4-0.6,0.7-0.9,0.8-0.7c0,0,0.2,0.1,0.6,0.2s0.7,0.3,0.9,0.5c0.2,0.2,0.3,0.6,0.4,1c0,0.3,0.1,0.4,0.2,0.4
	s0.4,0,0.8-0.1c0.8-0.2,1.3-0.6,1.7-1.2c0.4-0.7,0.8-1.7,1-3.1c0.2-1.3,0.4-3.3,0.5-5.8c0-0.6,0.1-1,0.1-1.2s0.2-0.3,0.5-0.4
	c0.2-0.1,0.3-0.2,0.3-0.3s-0.1-0.2-0.3-0.5c-0.1-0.1-0.3-0.3-0.4-0.5c-0.1-0.1-0.2-0.2-0.5-0.4c-0.1-0.1-0.3-0.2-0.6-0.3
	c-0.2-0.1-0.3-0.1-0.4-0.1s-0.2,0.2-0.5,0.5s-0.5,0.5-0.6,0.6s-0.4,0.1-0.7,0.1c-0.5,0-0.7-0.1-0.8-0.2c-0.1-0.1-0.1-0.6-0.1-1.3
	c0-0.1,0-0.3,0-0.5c0-0.6,0-1,0.1-1.1c0.1-0.2,0.3-0.4,0.6-0.4c0.2,0,0.7,0,1.5,0c0.2,0,0.4,0,0.6,0c1.1,0,1.8,0,2.1,0.1
	c0.4,0.1,0.5,0.3,0.4,0.6c0,0.2-0.3,0.7-0.8,1.5c-0.2,0.3-0.3,0.4-0.3,0.5s0,0.1,0,0.2c0.1,0,0.2,0,0.2,0s0.2-0.1,0.4-0.3
	c0.2-0.2,0.4-0.2,0.6-0.2s0.3,0.2,0.4,0.4s0.2,0.2,0.2,0.3c0.1,0,0.3,0,0.6-0.1c1.6-0.3,2.5-0.3,2.7,0.1c0,0.1,0.1,1.6,0.1,4.5
	s0,4.6,0,4.9c0,0.4-0.2,0.5-0.5,0.5c-0.3-0.1-0.6-0.4-1-1c-0.4-0.5-0.6-0.9-0.6-1.2s0-0.8,0.1-1.4c0.1-0.3,0.2-0.9,0.3-1.6
	c0.1-0.5,0.1-0.8,0.2-1s0.2-0.3,0.3-0.4c0.4-0.3-0.2-0.5-1.9-0.6c-0.3,0-0.5,0-0.6,0c0,0-0.1,0.2-0.1,0.6c0,2.2-0.2,4-0.6,5.4
	c-0.4,1.4-1,2.8-1.9,4.1C207.9,68.8,207.8,69.1,207.9,69.1z M204.9,66.3c-0.4,0-0.6,0-0.7,0h-0.3c-0.1,0-0.3,0-0.3,0
	c-0.4,0-0.6-0.1-0.6-0.2s0.1-0.5,0.4-1.2c0.8-1.7,1.3-4,1.6-6.7c0.1-0.7,0.2-1.1,0.3-1.2c0.1-0.1,0.4-0.2,0.9-0.2
	c0.4,0,0.7,0,0.8,0.1c0.1,0.1,0.2,0.4,0.2,0.9c0,0.3,0,1.1-0.1,2.4c-0.1,2.1-0.3,3.5-0.5,4.4c-0.2,0.9-0.5,1.4-0.9,1.6
	C205.5,66.2,205.2,66.3,204.9,66.3z M240,69.1c0.2,0.1,0.4,0.2,0.8,0.1s0.8-0.2,1.1-0.5c0.1-0.1,0.2-0.3,0.2-0.4s0-0.6,0-1.3
	c0-0.1,0-0.3,0-0.6c0-0.5,0-0.9,0-1c0.1-0.2,0.3-0.3,0.7-0.4c0.3,0,0.9,0,1.9,0c0.5,0,0.8,0,1.1,0c1.7,0,2.8,0,3.1,0
	c0.3,0,0.5-0.1,0.6-0.2c0.1-0.2-0.3-0.7-1.3-1.6c-0.4-0.4-0.7-0.5-0.9-0.5c-0.1,0-0.4,0.3-0.7,0.7l0,0c0,0,0,0.1-0.1,0.1
	c-0.3,0.4-0.5,0.6-0.7,0.6c-0.2,0.1-0.7,0.1-1.5,0.1c-0.1,0-0.2,0-0.3,0s-0.2,0-0.3,0c-0.7,0-1.1,0-1.2,0c-0.3,0-0.4-0.2-0.5-0.3
	c0-0.1-0.1-0.4-0.1-0.9c0-0.1,0-0.2,0-0.2c0-0.1,0-0.2,0-0.4c0-0.4,0-0.7,0.1-0.8c0.1-0.2,0.3-0.3,0.6-0.3c0.3,0,0.9,0,1.8,0
	c0.4,0,0.6,0,0.8,0c1.2,0,1.9,0,2.3,0s0.7,0,0.8-0.1c0.1,0,0.1-0.1,0.1-0.2c0-0.1-0.2-0.4-0.7-0.9s-0.9-0.8-1.2-0.9
	c-0.1-0.1-0.2-0.1-0.3,0c-0.1,0-0.3,0.3-0.5,0.6c0,0,0,0.1-0.1,0.1c-0.3,0.4-0.5,0.6-0.6,0.7c-0.1,0.1-0.5,0.1-1.1,0.1
	c-0.1,0-0.2,0-0.2,0s0,0-0.1,0c-0.8,0-1.3-0.1-1.5-0.2c-0.1-0.1-0.2-0.5-0.2-1.2v-0.1c0-0.6,0.1-1,0.2-1.1s0.5-0.2,1.2-0.2
	c0.6,0,1,0,1.2,0.1s0.3,0.2,0.3,0.4c0,0.1,0,0.2,0.1,0.3c0.1,0,0.3,0,0.6-0.1c0.6-0.1,1-0.3,1.2-0.5s0.2-0.6,0.2-1.2
	c-0.1-1-0.1-1.7,0-1.9c0-0.4,0.2-0.6,0.4-0.7c0.2-0.1,0.5-0.1,1.1-0.1c0.8,0,1.2-0.1,1.2-0.3c0.1-0.2-0.2-0.7-0.9-1.3
	c-0.3-0.3-0.5-0.4-0.6-0.4s-0.2,0.1-0.4,0.4c-0.3,0.4-0.5,0.6-0.7,0.6c-0.1-0.1-0.2-0.4-0.2-1c0-0.4,0-0.7,0.1-0.9s0.2-0.3,0.4-0.4
	c0.3-0.1,0.4-0.3,0.3-0.5s-0.3-0.5-0.8-0.9c-0.6-0.5-1-0.7-1.1-0.7c-0.2,0-0.4,0.1-0.7,0.5c-0.4,0.4-0.9,0.7-1.8,0.7
	c-0.8,0-1.3-0.1-1.4-0.5c-0.1-0.2-0.1-0.5,0-0.8s0.2-0.5,0.4-0.6c0.2-0.1,0.2-0.3,0-0.4c-0.2-0.2-0.8-0.4-1.6-0.6
	c-0.5-0.1-0.8-0.2-0.9-0.2s-0.1,0.1-0.1,0.2c0,0.2,0.1,0.6,0.1,1.2c0,0.6,0,1,0,1.1c-0.1,0.5-1.4,0.6-3.9,0.4c-0.4,0-0.6,0-0.6,0
	s0,0.2,0.2,0.5c0.1,0.3,0.2,0.4,0.3,0.5c0.1,0,0.2,0.1,0.3,0c0.6-0.1,1.4-0.2,2.4-0.3c0.7,0,1.1,0,1.2,0.2c0.1,0.1,0.2,0.5,0.2,1.3
	c0,0.1,0,0.2,0,0.3c0,0.4,0,0.7-0.1,0.8c0,0.2-0.2,0.3-0.5,0.3c-0.2,0-0.6,0-1.3,0c-0.2,0-0.3,0-0.4,0c-1,0-1.5,0-1.7,0
	s-0.3-0.1-0.4-0.2c-0.1-0.1-0.6-0.4-1.5-0.9s-1.4-0.7-1.4-0.7c-0.1,0-0.1,0.2-0.2,0.5c-0.3,1.2-0.8,2.4-1.5,3.8
	c-0.7,1.4-1.5,2.7-2.4,3.8c-0.2,0.3-0.4,0.5-0.4,0.6s0,0.2,0,0.2c0.1,0.1,0.7-0.3,1.7-1.2c0.4-0.4,0.7-0.6,0.8-0.6
	c0.1,0,0.2,0,0.3,0.2c0.1,0.2,0.1,1.3,0.1,3.4s-0.1,3.8-0.2,5.2c0,0.6-0.1,1-0.1,1.2c0,0.1,0,0.2,0.1,0.3c0.1,0.1,0.2,0.2,0.3,0.2
	c0.3,0,0.6,0,1-0.1s0.7-0.3,0.9-0.5c0.1-0.1,0.1-0.2,0.1-0.2s0-0.3,0-0.7c-0.1-2.1-0.1-4.5-0.1-7.3c0-1.7,0-2.7,0-3s0.1-0.5,0.3-0.6
	c0.3-0.2,0.4-0.3,0.1-0.4c-0.3-0.1-0.4-0.2-0.3-0.4s0.3-0.5,0.6-1.1l0.1-0.1c0.2-0.3,0.4-0.4,0.6-0.5c0.2,0,0.9-0.1,2-0.1
	c0.2,0,0.4,0,0.5,0c0.2,0,0.4,0,0.7,0c0.8,0,1.4,0,1.6,0c0.3,0,0.5,0.1,0.6,0.3c0,0.1,0.1,0.4,0.1,0.8c0,0.1,0,0.3,0,0.3
	c0,0.1,0,0.1,0,0.2c0,0.5,0,0.8,0,0.9c-0.1,0.2-0.2,0.3-0.5,0.3c-0.2,0-0.6,0-1.2,0c-0.1,0-0.2,0-0.3,0c-0.7,0-1.4,0-2.1-0.1
	c-0.4,0-0.6,0-0.6,0s0,0.2,0.2,0.5c0,0,0,0,0,0.1c0.1,0.3,0.2,0.4,0.3,0.4c0.1,0,0.2,0,0.4,0c0.5-0.1,1.2-0.2,2-0.2s1.3,0,1.4,0
	c0.2,0.1,0.4,0.6,0.4,1.3s-0.1,1.2-0.3,1.3c-0.1,0.1-0.7,0.1-1.8,0.1c-1.1,0-2.1-0.1-2.9-0.1c-0.2,0-0.3,0-0.3,0s0.1,0.2,0.2,0.6
	c0.1,0.3,0.2,0.4,0.3,0.4c0.1,0,0.2,0,0.4,0h0.1c0.7-0.1,1.5-0.2,2.4-0.2s1.5,0,1.6,0c0.2,0.1,0.3,0.5,0.4,1.2s0,1.1-0.1,1.4
	c-0.1,0.2-0.7,0.3-1.8,0.4c-1.1,0-2.3,0-3.7-0.2c-0.3,0-0.4,0-0.5,0c0,0,0.1,0.2,0.2,0.5c0,0,0,0,0,0.1c0.1,0.2,0.2,0.4,0.3,0.4
	c0.1,0,0.3,0,0.6,0c0.1,0,0.1,0,0.2,0c0.8-0.1,1.8-0.2,2.7-0.2c1,0,1.6,0,1.7,0.1c0.2,0.1,0.3,0.3,0.3,0.7c0,0.4,0,1.1,0,2.2
	c0,0.5,0,0.9,0,1C239.9,69,239.9,69.1,240,69.1z M243.6,57.2c-0.7,0-1,0-1.2-0.1s-0.3-0.5-0.3-1.2s0-1.2,0.1-1.3
	c0.2-0.2,0.6-0.3,1.3-0.3c0.7,0,1.2,0.1,1.3,0.3c0.1,0.2,0.2,0.6,0.1,1.3c0,0.7-0.1,1.1-0.3,1.2C244.6,57.1,244.2,57.2,243.6,57.2z
	 M228.2,53.7c0.1,0.1,0.8-0.2,1.8-1c1.1-0.8,2.1-1.8,3.2-2.8c0.5-0.5,0.9-0.9,1-1s0.2-0.2,0.4-0.2c0.3,0,0.3-0.1,0.3-0.2
	c-0.1-0.1-0.3-0.3-0.7-0.5c-0.1,0-0.3-0.1-0.5-0.3c-0.3-0.2-0.5-0.3-0.7-0.4c-0.4-0.2-0.6-0.3-0.7-0.4c-0.1,0-0.1,0-0.2,0.2
	c-0.2,0.8-0.7,1.7-1.3,2.9s-1.4,2.2-2.2,3.1C228.3,53.4,228.2,53.7,228.2,53.7z M243.6,53.5c-0.7,0-1,0-1.2-0.1s-0.3-0.5-0.3-1.2
	s0-1.1,0.1-1.3c0.2-0.2,0.6-0.3,1.3-0.3c0.7,0,1.2,0.1,1.3,0.3c0.1,0.2,0.2,0.6,0.1,1.3c0,0.7-0.1,1.1-0.3,1.2
	C244.6,53.5,244.2,53.5,243.6,53.5z M271.4,69.7c0.2,0.1,0.4,0.1,0.7,0c0.3,0,0.6-0.1,0.9-0.2l0,0c0.2-0.1,0.3-0.2,0.4-0.3
	c0-0.1,0-0.4,0-0.9c0-0.1,0-0.1,0-0.2c0-0.7,0-1.1,0.1-1.3c0.1-0.1,0.4-0.3,1-0.4l0,0c1.3-0.2,2.1-0.3,2.4-0.4
	c0.3-0.1,0.4-0.2,0.4-0.3c0-0.1-0.1-0.1-0.2-0.1c-0.1,0-0.6,0-1.5,0l0,0c-0.2,0-0.4,0-0.6,0c-0.6,0-1,0-1.2,0
	c-0.2-0.1-0.4-0.2-0.4-0.6c0-0.2-0.1-0.7,0-1.6c0-0.4,0-0.7,0-0.9c0-0.2,0-0.5,0-0.9c0-0.8,0-1.3,0-1.5c0-0.3,0.2-0.5,0.4-0.6
	c0.1,0,0.5-0.1,1-0.1c0.2,0,0.4,0,0.6,0c1,0,1.5,0,1.7-0.1c0.2-0.1,0.1-0.2-0.1-0.5c-0.3-0.3-0.3-0.7-0.1-1.2s0.5-0.9,0.9-1.1
	c0.4-0.2,0.4-0.4-0.2-0.4c-2.2-0.2-3.2-0.4-3.2-0.8c0-0.1,0.2-0.5,0.7-1s0.8-0.8,1-0.9c0.2,0,0.3-0.1,0.3-0.2s-0.1-0.3-0.3-0.5
	c-0.2-0.2-0.3-0.4-0.2-0.5s0.3-0.2,0.6-0.2c0.4-0.1,0.7-0.1,0.8-0.2c0.2-0.1,0.3-0.2,0.4-0.3c0.1-0.2,0.1-0.3,0.1-0.5
	s-0.1-0.3-0.2-0.4c-0.2-0.1-0.4-0.4-0.4-0.9c0-0.3-0.1-0.5-0.1-0.5c-0.1,0-0.2,0.1-0.3,0.4c-0.1,0.4-0.3,0.6-0.4,0.7
	c-0.2,0.1-0.4,0.2-0.7,0.2c-0.5,0-0.8-0.2-0.8-0.6c-0.1-0.4,0.1-0.7,0.6-1c0.3-0.2,0-0.6-0.8-1.3c-0.4,0-0.7-0.2-0.8-0.2
	s-0.3,0.2-0.6,0.5c-0.4,0.4-0.8,0.7-1.3,0.7s-1.2-0.2-2.1-0.6c-0.1,0-0.2-0.1-0.3-0.1c-0.4-0.2-0.6-0.3-0.7-0.2c0,0-0.1,0.3-0.1,0.7
	c0,0.1,0,0.3,0,0.3c0,1-0.1,1.8-0.3,2.3c-0.2,0.5-0.5,1-1.1,1.4c-0.2,0.1-0.2,0.2-0.2,0.4s0.1,0.2,0.3,0.1c0.2,0,0.4,0.1,0.6,0.5
	c0.1,0.1,0.1,0.2,0.2,0.3c0,0,0.1,0,0.2-0.1s0.3-0.1,0.5,0c0.2,0.1,0.4,0.3,0.6,0.6c0.2,0.3,0.5,0.7,1,1.2c0.2,0.3,0.1,0.7-0.6,1.1
	c-0.6,0.4-1.5,0.8-2.8,1.2c-0.4,0.1-0.6,0.2-0.6,0.3c-0.1,0,0,0.1,0.1,0.2c0.1,0.1,0.7,0,1.8-0.3s2-0.6,2.7-0.9
	c0.4-0.2,0.7-0.3,0.9-0.3c0.2,0,0.6,0.2,1.2,0.4c0.6,0.3,1,0.5,1.1,0.7s0,0.4-0.3,0.7c-0.1,0.1-0.5,0.2-1.1,0.2s-2.6,0-6.1,0
	c-0.1,0-0.4,0-0.6,0c-2.5,0-4.1,0-4.9,0c-1.2,0-2,0-2.5-0.1c-0.4-0.1-0.7-0.2-0.7-0.3c0-0.1,0.1-0.2,0.3-0.5l0.1-0.1
	c0.3-0.4,0.5-0.6,0.6-0.8c0,0,0-0.1,0.1-0.1c0.2-0.3,0.4-0.5,0.6-0.6s0.9-0.1,1.9-0.1c0.2,0,0.3,0,0.5,0c0.9,0,1.5,0,1.8,0
	c0.4,0,0.6,0.1,0.7,0.1c0.1,0.1,0.1,0.2,0.1,0.4c0,0.2,0.1,0.3,0.2,0.3c0.2,0,0.4,0,0.9-0.2c0.4-0.1,0.6-0.2,0.7-0.4
	c0.1-0.1,0.1-0.5,0.1-1.1v-0.1c0-0.7,0-1.1,0-1.2s0.1-0.3,0.3-0.4l0,0c0.2-0.1,0.3-0.3,0.3-0.4s-0.3-0.4-0.6-0.7
	c-0.5-0.5-0.6-0.8-0.1-0.8c0.3-0.1,0.5-0.2,0.4-0.4c0-0.2-0.2-0.5-0.6-0.9s-0.6-0.6-0.6-0.7s0.3-0.2,0.9-0.2s0.9-0.2,0.9-0.4
	c0-0.3-0.4-0.6-1.1-1.2c-0.3-0.3-0.5-0.4-0.6-0.4s-0.3,0.2-0.5,0.5c-0.3,0.4-0.5,0.6-0.7,0.7c-0.2,0.1-0.5,0.1-0.8,0
	c-0.2,0-0.3-0.1-0.4-0.2c0-0.1,0-0.3,0.1-0.4c0.2-0.1,0.1-0.3-0.1-0.4c-0.2-0.1-0.8-0.3-1.7-0.6h-0.1c-0.4,0.4-0.5,0.4-0.6,0.4
	c0,0,0,0.2,0,0.5c0,0.1,0,0.1,0,0.1c0,0.4,0,0.7-0.2,0.9c-0.1,0.2-0.5,0.2-0.9,0.3c-0.4,0-1.2,0-2.3-0.1c-0.4,0-0.7,0-0.8,0
	c-0.1,0-0.2,0-0.2,0.1s0.1,0.2,0.2,0.5c0,0,0,0.1,0.1,0.1c0.1,0.2,0.2,0.3,0.3,0.3s0.3,0,0.6-0.1c0.1,0,0.1,0,0.2,0
	c0.5-0.1,1-0.1,1.6-0.1s1,0,1.1,0.1c0.2,0.1,0.3,0.4,0.3,0.7c0,0.3-0.1,0.5-0.3,0.6c-0.1,0.1-0.6,0.1-1.5,0.1s-1.5-0.1-1.7-0.1
	c-0.2,0-0.1,0.1,0,0.5c0.4,0.8,0.4,2,0.2,3.6c-0.2,1.6-0.6,2.7-1.2,3.4c-0.1,0.2-0.2,0.3-0.2,0.4s0.2,0.1,0.4,0
	c0.3-0.1,0.5,0,0.7,0.4c0.1,0.2,0.2,0.3,0.3,0.3s0.2,0,0.5,0c0.6-0.2,1.2-0.2,1.8-0.2c0.5,0,0.9,0.1,1,0.3c0.1,0.1,0.1,1.1,0.1,3
	s0,2.9-0.1,3s-0.4,0.2-0.8,0.3c-0.4,0-1.3,0.1-2.7,0.1c0,0-0.1,0-0.2,0c-0.3,0-0.4,0-0.4,0.1s0.1,0.4,0.3,0.8c0,0.1,0.1,0.3,0.1,0.3
	c0,0.1,0.1,0.2,0.1,0.3c0.2,0.6,0.4,0.9,0.4,1c0.1,0.1,0.2,0.1,0.3,0l0.1-0.1c0.2-0.1,0.5-0.2,0.8-0.3c0.4-0.1,1.4-0.2,3.2-0.4
	c3-0.3,5.6-0.6,7.5-0.9c0.6-0.1,1,0,1.1,0.1c0.1,0.1,0.2,0.6,0.1,1.3c0,0.5,0,0.8,0,0.9C271.3,69.5,271.3,69.6,271.4,69.7z
	 M264.7,66c-0.4,0-0.7,0-0.8,0s-0.1-0.1-0.2-0.1c-0.2,0-0.3-0.2-0.2-0.7c0.1-0.5,0.2-0.7,0.4-0.8c0.1-0.1,1.3-0.1,3.6-0.1
	c2.3,0,3.4,0,3.6,0.1c0.2,0.1,0.3,0.3,0.4,0.6c0.1,0.3-0.1,0.5-0.3,0.7c-0.1,0.1-1.3,0.2-3.6,0.2c-0.4,0-0.9,0-1.7,0
	C265.2,66,264.8,66,264.7,66z M267.4,63.6c-2.3,0-3.5,0-3.7-0.1c-0.2-0.1-0.3-0.4-0.3-0.7c0-0.4,0.2-0.6,0.4-0.7
	c0.1,0,1.3-0.1,3.6-0.1c2.3,0,3.4,0,3.6,0.1c0.2,0.1,0.4,0.3,0.4,0.7c0,0.4-0.1,0.6-0.3,0.7C270.9,63.6,269.7,63.6,267.4,63.6z
	 M267.4,61.3c-2.3,0-3.5,0-3.7-0.1c-0.2-0.1-0.3-0.4-0.3-0.8s0.2-0.7,0.4-0.8c0.1-0.1,1.3-0.1,3.6-0.1c2.3,0,3.5,0,3.6,0.1
	c0.2,0.1,0.3,0.4,0.3,0.8s-0.1,0.6-0.3,0.8C270.9,61.3,269.7,61.3,267.4,61.3z M264.4,55.7c-0.4,0.2-0.7,0.2-1,0
	c-0.3-0.2-0.4-0.5-0.4-0.9s0.1-0.8,0.4-0.9c0.3-0.2,0.6-0.2,1,0c0.3,0.1,0.4,0.4,0.4,0.9S264.7,55.6,264.4,55.7z M261.1,55.7
	c-0.2,0.1-0.4,0.1-0.7,0.1c-0.3,0-0.5-0.1-0.5-0.3c0-0.1-0.1-0.3-0.1-0.6c0-0.4,0-0.6,0.1-0.7c0.1-0.2,0.2-0.3,0.5-0.3
	c0.3-0.1,0.5,0,0.7,0.1c0.2,0.1,0.4,0.4,0.4,0.9C261.4,55.3,261.3,55.6,261.1,55.7z M272.2,54.9c-0.3,0.1-0.7,0-1.2-0.4
	s-0.7-0.7-0.6-0.9c0.1-0.1,0.5-0.2,1.2-0.2c0.8,0,1.2,0,1.3,0.2c0.1,0.1,0.1,0.3,0,0.6C272.7,54.6,272.5,54.8,272.2,54.9z
	 M262.3,53.2c-1.4,0-2.1,0-2.3-0.1c-0.6-0.2-0.9-0.4-0.9-0.6s0.2-0.3,0.7-0.4c0.3,0,1.2-0.1,2.6-0.1c1.5,0,2.3,0,2.4,0
	c0.2,0.1,0.3,0.2,0.2,0.5c-0.1,0.2-0.2,0.4-0.5,0.6C264.4,53.1,263.6,53.2,262.3,53.2z M271.6,52.8c-1.1,0-1.8,0-2,0
	c-0.3,0-0.5-0.1-0.5-0.3c0-0.1,0.1-0.3,0.4-0.6c0.7-0.6,1.2-1.3,1.3-2.1c0-0.3,0.2-0.5,0.3-0.6c0.1-0.1,0.5-0.1,0.9-0.1
	c0.5,0,0.8,0.1,0.9,0.2s0.2,0.5,0.2,1.1s0.1,0.9,0.1,1.1s0.1,0.3,0.3,0.5c0.4,0.4,0.3,0.6-0.1,0.8C273.3,52.8,272.7,52.8,271.6,52.8
	z M264.3,51.2c-0.3,0.2-0.6,0.2-0.8-0.1c-0.2-0.3-0.3-0.6-0.1-0.9c0.1-0.2,0.4-0.3,0.9-0.4c0.5,0,0.8,0,0.9,0.2c0,0.1,0,0.3-0.2,0.6
	C264.6,50.9,264.4,51.1,264.3,51.2z M26.1,93.2c0.3,0.2,0.7,0.1,1.3-0.1s0.8-0.5,0.8-0.8c0,0,0-0.1,0-0.2c0-0.2,0-0.4,0.1-0.5
	s0.4-0.2,1-0.2c0.4,0,1.2,0,2.6,0c0.3,0,0.5,0,0.7,0s0.5,0,0.9,0c1.3,0,2.1,0,2.5,0c0.5,0,0.8,0.1,0.9,0.2s0.1,0.3,0.1,0.5
	c0,0.1,0,0.1,0,0.2c0,0.4,0,0.6,0.2,0.7s0.5,0.1,1-0.1c0.6-0.2,0.9-0.4,1-0.6s0.2-0.7,0.1-1.5c-0.2-4.8-0.1-7.2,0.4-7.2
	c0,0,0.1,0,0.3-0.1c0.1-0.1,0.2-0.2,0.2-0.2c0-0.1-0.2-0.3-0.7-0.7c-0.5-0.4-0.9-0.7-1.2-0.9c-0.1-0.1-0.3-0.1-0.4,0
	s-0.3,0.2-0.6,0.5c0,0-0.1,0.1-0.1,0.2c-0.2,0.2-0.5,0.4-0.7,0.4c-0.3,0-1.2,0-2.8,0c-0.5,0-0.9,0-1.2,0s-0.7,0-1.2,0
	c-1.5,0-2.4,0-2.7,0s-0.7-0.2-1.2-0.4c-0.2-0.1-0.3-0.1-0.5-0.2c0,0-0.1,0-0.2-0.1c-0.5-0.2-0.7-0.3-0.8-0.3s-0.1,0.2,0,0.5
	c0,0.1,0,0.1,0,0.1c0.1,1.1,0.2,2.6,0.2,4.5s0,3.6-0.1,5.1c0,0.4,0,0.7,0,0.8C25.9,93,25.9,93.1,26.1,93.2z M36.6,90.7
	c-0.1,0.1-1.5,0.1-4,0.1c-2.6,0-3.9,0-4-0.1c-0.2-0.1-0.3-0.2-0.3-0.4c0-0.2,0-0.6,0-1.2c0-0.1,0-0.3,0-0.5c0-0.4,0-0.7,0.1-0.9
	c0.1-0.2,0.4-0.3,0.8-0.3c0.3,0,1.1,0,2.3,0c0.5,0,0.9,0,1.2,0s0.7,0,1.2,0c1.2,0,1.9,0,2.3,0c0.4,0,0.7,0.2,0.8,0.3
	c0.1,0.1,0.1,0.4,0.1,0.9c0,0.2,0,0.4,0,0.5c0,0.7,0,1.1,0,1.3C36.9,90.6,36.8,90.7,36.6,90.7z M32.6,86.8c-2.6,0-4,0-4.1-0.1
	s-0.2-0.2-0.2-0.4c0-0.2,0-0.6,0-1.2c0-0.1,0-0.2,0-0.4c0-0.4,0-0.7,0.1-0.8c0.1-0.1,0.4-0.2,0.8-0.3c0.3,0,1.1,0,2.3,0
	c0.5,0,0.9,0,1.2,0s0.7,0,1.2,0c1.2,0,1.9,0,2.3,0c0.4,0,0.7,0.1,0.8,0.3c0.1,0.1,0.1,0.4,0.1,0.8c0,0.2,0,0.3,0,0.4
	c0,0.6,0,1,0,1.2s-0.1,0.3-0.2,0.4C36.6,86.8,35.2,86.8,32.6,86.8z M22.6,80.6c0.1,0,0.1,0.1,0.2,0c0,0,0.1,0,0.2,0
	c0.7-0.1,1.2-0.2,1.5-0.2s3.4-0.1,9.4-0.1c0.4,0,0.9,0,1.6,0c2.8,0,4.6,0,5.3,0c1,0,1.7,0,2-0.1c0.2,0,0.3-0.1,0.3-0.2v-0.1
	c0-0.1-0.1-0.3-0.5-0.6c-0.3-0.3-0.7-0.7-1.2-1l0,0c-0.4-0.3-0.6-0.4-0.7-0.4s-0.3,0.2-0.6,0.7L40,78.7c0,0-0.1,0.1-0.1,0.2
	c-0.3,0.4-0.5,0.6-0.7,0.6c-0.2,0.1-0.6,0.1-1.4,0.1c-0.2,0-0.3,0-0.4,0c-0.9,0-1.4,0-1.6,0c-0.3,0-0.4-0.2-0.3-0.3
	c0-0.1,0.3-0.4,0.7-0.8c0.2-0.2,0.6-0.6,1.2-1.3l0.1-0.1c0.4-0.5,0.6-0.7,0.7-0.8c0.1-0.1,0.2-0.2,0.3-0.2c0.2-0.1,0.3-0.1,0.3-0.2
	s-0.2-0.2-0.5-0.3c-0.6-0.3-0.8-0.5-0.6-0.6c0.2-0.1,1-0.1,2.4-0.1c1.1,0,1.8,0,2,0s0.3-0.1,0.4-0.2c0.1-0.2-0.3-0.7-1.3-1.4l0,0
	c-0.5-0.4-0.8-0.6-1-0.6c-0.1,0-0.4,0.3-0.7,0.7l0,0c0,0-0.1,0.1-0.1,0.2c-0.2,0.4-0.5,0.6-0.7,0.6s-0.8,0.1-1.8,0.1
	c-0.2,0-0.4,0-0.5,0c-1.1,0-1.7,0-1.9,0s-0.3-0.1-0.4-0.1c-0.2-0.2-0.2-0.5-0.2-0.9s0.2-0.7,0.4-0.9c0.2-0.2,0.2-0.3-0.1-0.4
	c-0.2-0.1-0.8-0.3-1.7-0.5c0,0-0.1,0-0.2,0c-0.4-0.1-0.7-0.2-0.7-0.1c-0.1,0-0.1,0.2-0.1,0.5c0,0.1,0,0.1,0,0.1c0,0.1,0,0.3,0,0.5
	c0,0.7,0,1.1,0,1.3c-0.1,0.3-0.3,0.4-0.6,0.5c-0.3,0-0.9,0-1.9,0c-0.3,0-0.5,0-0.7,0c-2.2,0-3.8,0-4.7-0.1c-0.2,0-0.3,0-0.4,0
	c0,0,0.1,0.2,0.2,0.5c0,0,0,0,0,0.1c0.1,0.2,0.2,0.4,0.3,0.4s0.3,0,0.5,0c0.1,0,0.1,0,0.2,0c2-0.3,2.9-0.3,2.9,0
	c0,0.1,0.1,0.3,0.2,0.6c0.4,0.8,0.7,1.6,0.9,2.4c0.2,0.9,0.3,1.4,0.1,1.5c-0.1,0.1-0.9,0.1-2.4,0.1s-2.7,0-3.6-0.1
	c-0.2,0-0.4,0-0.4,0s0.1,0.2,0.2,0.5C22.4,80.3,22.5,80.5,22.6,80.6z M34,79.6c-0.2,0.1-0.8,0.1-1.9,0.1c-1.1,0-1.6-0.1-1.7-0.1
	c-0.1-0.1-0.1-0.1-0.1-0.2s0-0.2,0.1-0.4c0.2-0.5,0.2-1.1-0.1-1.7s-0.7-1.1-1.4-1.6l0,0c-0.5-0.3-0.8-0.6-0.8-0.6
	c0-0.1,0.2-0.2,0.7-0.2c0.4,0,1.4,0,2.9,0c0.2,0,0.4,0,0.7,0c1.2,0,2,0,2.3,0c0.4,0,0.7,0.1,0.8,0.2c0,0.1,0,0.3,0,0.6
	c0,0.1,0,0.1,0,0.1c-0.3,1-0.5,1.8-0.8,2.6C34.4,79.1,34.1,79.5,34,79.6z M51,79.9c0.2,0,0.3-0.1,0.3-0.2s0.1-0.5,0.3-1.2v-0.1
	c0.4-2,0.6-3.3,0.6-4.1c0.1-0.9,0.1-1.5,0-1.9c-0.1-0.3-0.4-0.5-0.8-0.6c-0.6-0.2-1-0.1-1.3,0.2s-0.5,0.8-0.5,1.4
	c0,0.5,0.2,1.7,0.5,3.5s0.5,2.8,0.6,2.9C50.6,79.9,50.8,79.9,51,79.9L51,79.9z M55.7,79.9c0.2,0,0.4-0.4,0.6-1.1s0.4-2.1,0.7-4.1
	c0.2-1.1,0.1-1.9-0.1-2.4s-0.6-0.7-1.3-0.6c-0.5,0-0.9,0.3-1.1,0.7c-0.2,0.4-0.2,1.1-0.1,2.1c0.1,0.6,0.2,1.7,0.5,3.1
	s0.4,2.2,0.4,2.2C55.4,79.9,55.5,79.9,55.7,79.9z M72.9,93.2c0.2,0.1,0.6,0.1,1,0c0.5-0.1,0.9-0.3,1.2-0.6l0,0
	c0.1-0.1,0.1-0.2,0.1-0.3c0-0.2,0-0.7,0-1.6c0-0.5,0-0.8,0-1.1c0-1,0-2.1,0-3.3c0-1.2,0-1.8,0.1-1.9s0.2-0.2,0.5-0.2
	c0.2,0,1,0,2.4,0c0.1,0,0.3,0,0.5,0c0.9,0,1.5,0,1.7,0c0.3,0,0.5,0.1,0.6,0.2c0,0.1,0.1,0.3,0,0.6c0,0.1,0,0.1,0,0.2
	c0,0.5,0,0.7,0.1,0.8c0.1,0.1,0.4,0.1,0.9,0c0.7-0.1,1.1-0.3,1.2-0.5s0.2-0.7,0.1-1.6c-0.1-2.6-0.1-4.4-0.1-5.2
	c0-0.8,0.2-1.3,0.4-1.4c0,0,0,0,0.1,0c0.3-0.2,0.4-0.3,0.4-0.4s-0.3-0.5-1-1s-1.1-0.8-1.3-0.8c-0.1,0-0.3,0.2-0.7,0.7
	c0,0,0,0.1-0.1,0.1c-0.2,0.2-0.4,0.4-0.6,0.4s-0.8,0-1.9,0c-0.2,0-0.4,0-0.6,0s-0.5,0-0.8,0c-0.8,0-1.3,0-1.5,0
	c-0.3,0-0.5-0.2-0.6-0.4c0-0.1-0.1-0.5,0-1c0-0.2,0-0.4,0-0.5c0-0.8,0-1.4,0-1.5c0-0.2,0.1-0.3,0.3-0.5c0.2-0.2,0.2-0.4-0.1-0.5
	c-0.2-0.1-0.9-0.4-2-0.6c-0.4-0.1-0.7-0.2-0.8-0.1c-0.1,0-0.1,0.1-0.1,0.3c0.1,0.7,0.2,1.6,0.2,2.7s0,1.7,0,1.9l0,0
	c-0.1,0.1-0.2,0.2-0.5,0.3c-0.2,0-1,0-2.4,0c-0.2,0-0.4,0-0.7,0c-1,0-1.6,0-1.8,0c-0.3,0-0.7-0.2-1.2-0.4c-0.2-0.1-0.3-0.1-0.4-0.2
	c-0.1,0-0.1-0.1-0.2-0.1c-0.5-0.2-0.8-0.3-0.8-0.3c-0.1,0-0.1,0.2,0,0.5c0,0.1,0,0.1,0,0.1c0.1,1.1,0.2,2.6,0.2,4.5
	c0,1.8,0,3.5-0.1,4.9c0,0.5,0,0.9,0.1,1s0.4,0.1,0.9,0s0.9-0.3,1.1-0.4c0.2-0.2,0.3-0.5,0.3-0.8c0,0,0-0.1,0-0.2
	c0-0.3,0-0.5,0.1-0.6s0.3-0.2,0.6-0.2c0.2,0,0.8,0,1.7,0c0.2,0,0.4,0,0.6,0c1.3,0,2.1,0,2.4,0c0.2,0,0.4,0.1,0.5,0.3
	c0.1,0.1,0.1,1.1,0.1,2.7c0,1.7-0.1,3.2-0.1,4.5c0,0.7-0.1,1.2,0,1.3C72.7,93,72.8,93.1,72.9,93.2z M69.9,83.3c-1.6,0-2.5,0-2.6-0.1
	S67.1,83,67,82.7c0-0.3,0-1.2,0-2.6c0-0.3,0-0.6,0-1c0-0.8,0-1.3,0-1.6c0.1-0.3,0.2-0.5,0.5-0.6c0.2,0,0.7-0.1,1.4,0
	c0.4,0,0.7,0,0.9,0c0.2,0,0.6,0,0.9,0c0.7,0,1.2,0,1.4,0c0.3,0.1,0.4,0.3,0.5,0.6c0,0.2,0.1,0.7,0,1.6c0,0.4,0,0.8,0,1
	c0,1.5,0,2.3,0,2.6c0,0.3-0.1,0.4-0.3,0.5C72.4,83.2,71.5,83.3,69.9,83.3z M80.6,83.2c-0.1,0.1-1,0.1-2.6,0.1s-2.4,0-2.6-0.1
	s-0.3-0.2-0.3-0.5s0-1.1,0-2.6c0-0.3,0-0.6,0-1c0-0.8,0-1.3,0-1.6c0.1-0.3,0.2-0.5,0.5-0.6c0.2,0,0.7-0.1,1.4,0c0.4,0,0.7,0,0.9,0
	s0.6,0,0.9,0c0.8,0,1.2,0,1.4,0c0.3,0.1,0.4,0.3,0.5,0.6c0,0.2,0.1,0.7,0,1.6c0,0.4,0,0.8,0,1c0,1.5,0,2.4,0,2.6
	C80.9,83,80.8,83.1,80.6,83.2z M106.9,93.2c0.1,0.1,0.3,0.1,0.8,0s0.8-0.2,1.2-0.4c0.6-0.3,1.1-0.8,1.5-1.6c0.4-0.8,0.6-2.1,0.8-3.8
	c0.2-1.6,0.3-3.9,0.4-7c0-0.2,0-0.4,0-0.8c0-1.6,0.1-2.5,0.1-2.7c0-0.3,0.2-0.5,0.4-0.6h0.1c0.2-0.1,0.3-0.2,0.4-0.2
	c0-0.1,0-0.1,0-0.2c-0.1-0.2-0.4-0.5-0.8-0.9c-0.5-0.4-0.8-0.7-1-0.8c-0.1-0.1-0.2-0.1-0.3,0c-0.1,0-0.2,0.2-0.5,0.5l-0.1,0.1
	c-0.3,0.3-0.5,0.5-0.7,0.6c-0.2,0-0.7,0.1-1.4,0.1c-0.2,0-0.3,0-0.4,0c-0.1,0-0.2,0-0.3,0c-0.7,0-1.2,0-1.3,0
	c-0.3,0-0.4-0.2-0.4-0.3c0-0.1,0.1-0.4,0.3-0.9c0-0.1,0.1-0.1,0.1-0.2c0.3-0.7,0.5-1.1,0.6-1.3c0.1-0.2,0.2-0.3,0.4-0.4
	c0.3-0.1,0.2-0.3-0.1-0.5c-0.4-0.2-1.1-0.5-2.2-0.8l0,0c-0.2-0.1-0.4-0.1-0.4,0c0,0-0.1,0.2-0.1,0.6v0.1c-0.3,2.3-1,4.8-2.2,7.6
	c-0.4,1-0.7,1.4-0.9,1.4c-0.1-0.1-0.2-0.7-0.2-2c0-1,0-1.6,0.1-1.8c0-0.2,0.2-0.4,0.5-0.6c0.2-0.1,0.3-0.3,0.2-0.5s-0.5-0.5-1.1-1
	c-0.4-0.4-0.7-0.5-0.9-0.5c-0.1,0-0.3,0.2-0.6,0.6c-0.3,0.4-0.8,0.6-1.5,0.7s-1-0.1-1-0.4c0-0.2,0.3-0.7,0.8-1.6
	c0.6-0.8,0.9-1.3,1.1-1.4c0.4-0.1,0.4-0.3,0.1-0.4c-0.3-0.2-0.9-0.4-2-0.6c0,0-0.1,0-0.2,0c-0.4-0.1-0.6-0.1-0.7-0.1
	s-0.1,0.2-0.1,0.6c0,0.1,0,0.2,0,0.2c0,0.5,0,1-0.1,1.5c-0.1,0.8-0.2,1.4-0.2,1.6c-0.1,0.3-0.3,0.4-0.5,0.4S94,75.3,93.4,75
	s-0.9-0.4-1-0.4c0,0-0.1,0-0.1,0.1s0,0.3,0.1,0.8c0.1,1.1,0.2,3.5,0.2,7.1c0,3.8-0.1,6.6-0.2,8.4c-0.1,0.8,0,1.3,0.1,1.5
	s0.5,0.2,1.1,0c0.4-0.1,0.7-0.3,0.8-0.5c0.1-0.2,0.2-0.5,0.2-1l0,0c0-0.4,0-0.6,0-0.7c0.1-0.1,0.2-0.2,0.5-0.3c0.2,0,0.6,0,1.3,0
	h0.1h0.1c0.7,0,1.1,0,1.3,0c0.3,0,0.4,0.1,0.5,0.2c0,0.1,0.1,0.3,0.1,0.6v0.1c0,0.5,0.1,0.8,0.4,0.8c0.3,0.1,0.7,0,1.4-0.4
	c0,0,0.1,0,0.2-0.1c0.2-0.1,0.3-0.2,0.3-0.4c0-0.2,0-0.8,0-1.8c0-0.5,0-0.8,0-1.1c0-1.1,0-2.4,0-4.1s0-2.6,0.1-2.7
	c0-0.1,0.1-0.3,0.2-0.3c0.1-0.1,0.1-0.1,0,0c0,0.1,0,0.1,0.1,0.2c0.1,0,0.1,0,0.2,0c0.2-0.1,0.6-0.6,1.3-1.5s1.3-1.8,1.8-2.6
	c0,0,0,0,0-0.1c0.2-0.4,0.5-0.6,0.7-0.7s0.9-0.1,2-0.1c0.1,0,0.1,0,0.2,0c0.2,0,0.4,0,0.6,0c0.7,0,1.1,0,1.2,0
	c0.2,0,0.4,0.2,0.5,0.4c0,0.1,0.1,0.5,0,1c0,0.2,0,0.4,0,0.5c0,2.3-0.1,4.5-0.2,6.6c-0.1,2.1-0.3,3.5-0.5,4.4
	c-0.1,0.5-0.3,0.9-0.5,1.1s-0.6,0.4-1,0.4s-1.1,0-2.1-0.1c-0.5,0-0.8-0.1-0.9,0c-0.1,0-0.1,0.1-0.1,0.2s0.2,0.2,0.6,0.3
	c1.5,0.4,2.2,1,2.2,2.1C106.8,93,106.8,93.1,106.9,93.2z M95.7,89.1c-0.6,0-0.9,0-1.1-0.1s-0.3-0.3-0.4-0.6c0-0.2-0.1-0.8,0-1.7
	c0-0.4,0-0.7,0-0.9c0-0.2,0-0.5,0-0.8c0-0.8,0-1.4,0-1.6c0.1-0.3,0.2-0.5,0.4-0.6c0.1-0.1,0.5-0.1,1.1-0.1c0.2,0,0.4,0,0.6,0
	c0.1,0,0.3,0,0.6,0c0.6,0,0.9,0,1.1,0.1s0.3,0.3,0.4,0.6c0,0.2,0,0.8,0,1.6c0,0.4,0,0.6,0,0.8c0,1.5,0,2.3,0,2.6
	c0,0.3-0.1,0.4-0.2,0.5S98,89,97.8,89c-0.1,0-0.6,0-1.4,0C96.1,89.1,95.9,89.1,95.7,89.1z M105.4,85.8c0.4,0.1,0.7,0.1,1-0.1
	s0.5-0.6,0.5-1c0-0.7-0.2-1.4-0.8-2c-0.5-0.7-1.3-1.3-2.4-1.8c-0.6-0.3-0.9-0.4-1-0.4s0,0.3,0.3,0.7c1,1.5,1.6,2.9,1.8,4.1
	C104.8,85.5,105,85.6,105.4,85.8z M95.7,82.1c-0.6,0-0.9,0-1.1-0.1s-0.3-0.3-0.4-0.6c0-0.2-0.1-0.7,0-1.6c0-0.4,0-0.7,0-0.9
	c0-0.2,0-0.4,0-0.8c0-0.8,0-1.3,0-1.5c0.1-0.3,0.2-0.5,0.4-0.6c0.1,0,0.5-0.1,1-0.1c0.2,0,0.4,0,0.6,0c0.1,0,0.3,0,0.6,0
	c0.6,0,0.9,0,1.1,0.1s0.3,0.2,0.4,0.6c0,0.2,0.1,0.7,0.1,1.5c0,0.3,0,0.6,0,0.7c0,1.4,0,2.2,0,2.5s-0.1,0.4-0.2,0.5
	s-0.2,0.1-0.4,0.1c-0.1,0-0.6,0-1.4,0C96.1,82.1,95.9,82.1,95.7,82.1z M123.2,93.2c0.3,0.2,0.7,0.1,1.3-0.1s0.8-0.5,0.8-0.8
	c0,0,0-0.1,0-0.2c0-0.2,0-0.4,0.1-0.5s0.4-0.2,1-0.2c0.4,0,1.2,0,2.6,0c0.3,0,0.5,0,0.7,0c0.2,0,0.5,0,0.9,0c1.3,0,2.1,0,2.5,0
	c0.5,0,0.8,0.1,0.9,0.2c0.1,0.1,0.1,0.3,0.1,0.5c0,0.1,0,0.1,0,0.2c0,0.4,0,0.6,0.2,0.7c0.2,0.1,0.5,0.1,1-0.1
	c0.6-0.2,0.9-0.4,1-0.6s0.2-0.7,0.1-1.5c-0.2-4.8-0.1-7.2,0.4-7.2c0,0,0.1,0,0.3-0.1c0.1-0.1,0.2-0.2,0.2-0.2c0-0.1-0.2-0.3-0.7-0.7
	s-0.9-0.7-1.2-0.9c-0.1-0.1-0.3-0.1-0.4,0c-0.1,0-0.3,0.2-0.6,0.5c0,0-0.1,0.1-0.1,0.2c-0.2,0.2-0.5,0.4-0.7,0.4c-0.3,0-1.2,0-2.8,0
	c-0.5,0-0.9,0-1.2,0c-0.3,0-0.7,0-1.2,0c-1.5,0-2.4,0-2.7,0s-0.7-0.2-1.2-0.4c-0.2-0.1-0.3-0.1-0.5-0.2c0,0-0.1,0-0.2-0.1
	c-0.5-0.2-0.7-0.3-0.8-0.3s-0.1,0.2,0,0.5c0,0.1,0,0.1,0,0.1c0.1,1.1,0.2,2.6,0.2,4.5s0,3.6-0.1,5.1c0,0.4,0,0.7,0,0.8
	C123.1,93,123.1,93.1,123.2,93.2z M133.8,90.7c-0.1,0.1-1.5,0.1-4,0.1c-2.6,0-3.9,0-4-0.1c-0.2-0.1-0.3-0.2-0.3-0.4s0-0.6,0-1.2
	c0-0.1,0-0.3,0-0.5c0-0.4,0-0.7,0.1-0.9c0.1-0.2,0.4-0.3,0.8-0.3c0.3,0,1.1,0,2.3,0c0.5,0,0.9,0,1.2,0c0.3,0,0.7,0,1.2,0
	c1.2,0,1.9,0,2.3,0c0.4,0,0.7,0.2,0.8,0.3c0.1,0.1,0.1,0.4,0.1,0.9c0,0.2,0,0.4,0,0.5c0,0.7,0,1.1,0,1.3
	C134,90.6,133.9,90.7,133.8,90.7z M129.7,86.8c-2.6,0-4,0-4.1-0.1s-0.2-0.2-0.2-0.4s0-0.6,0-1.2c0-0.1,0-0.2,0-0.4
	c0-0.4,0-0.7,0.1-0.8c0.1-0.1,0.4-0.2,0.8-0.3c0.3,0,1.1,0,2.3,0c0.5,0,0.9,0,1.2,0c0.3,0,0.7,0,1.2,0c1.2,0,1.9,0,2.3,0
	c0.4,0,0.7,0.1,0.8,0.3c0.1,0.1,0.1,0.4,0.1,0.8c0,0.2,0,0.3,0,0.4c0,0.6,0,1,0,1.2s-0.1,0.3-0.2,0.4
	C133.7,86.8,132.4,86.8,129.7,86.8z M119.7,80.6c0.1,0,0.1,0.1,0.2,0c0,0,0.1,0,0.2,0c0.7-0.1,1.2-0.2,1.5-0.2s3.4-0.1,9.4-0.1
	c0.4,0,0.9,0,1.6,0c2.8,0,4.6,0,5.3,0c1,0,1.7,0,2-0.1c0.2,0,0.3-0.1,0.3-0.2v-0.1c0-0.1-0.1-0.3-0.5-0.6c-0.3-0.3-0.7-0.7-1.2-1
	l0,0c-0.4-0.3-0.6-0.4-0.7-0.4c-0.1,0-0.3,0.2-0.6,0.7l-0.1,0.1c0,0-0.1,0.1-0.1,0.2c-0.3,0.4-0.5,0.6-0.7,0.6
	c-0.2,0.1-0.6,0.1-1.4,0.1c-0.2,0-0.3,0-0.4,0c-0.9,0-1.4,0-1.6,0c-0.3,0-0.4-0.2-0.3-0.3c0-0.1,0.3-0.4,0.7-0.8
	c0.2-0.2,0.6-0.6,1.2-1.3l0.1-0.1c0.4-0.5,0.6-0.7,0.7-0.8c0.1-0.1,0.2-0.2,0.3-0.2c0.2-0.1,0.3-0.1,0.3-0.2s-0.2-0.2-0.5-0.3
	c-0.6-0.3-0.8-0.5-0.6-0.6c0.2-0.1,1-0.1,2.4-0.1c1.1,0,1.8,0,2,0c0.2,0,0.3-0.1,0.4-0.2c0.1-0.2-0.3-0.7-1.3-1.4l0,0
	c-0.5-0.4-0.8-0.6-1-0.6c-0.1,0-0.4,0.3-0.7,0.7l0,0c0,0-0.1,0.1-0.1,0.2c-0.2,0.4-0.5,0.6-0.7,0.6c-0.2,0-0.8,0.1-1.8,0.1
	c-0.2,0-0.4,0-0.5,0c-1.1,0-1.7,0-1.9,0c-0.2,0-0.3-0.1-0.4-0.1c-0.2-0.2-0.2-0.5-0.2-0.9s0.2-0.7,0.4-0.9c0.2-0.2,0.2-0.3-0.1-0.4
	c-0.2-0.1-0.8-0.3-1.7-0.5c0,0-0.1,0-0.2,0c-0.4-0.1-0.7-0.2-0.7-0.1c-0.1,0-0.1,0.2-0.1,0.5c0,0.1,0,0.1,0,0.1c0,0.1,0,0.3,0,0.5
	c0,0.7,0,1.1,0,1.3c-0.1,0.3-0.3,0.4-0.6,0.5c-0.3,0-0.9,0-1.9,0c-0.3,0-0.5,0-0.7,0c-2.2,0-3.8,0-4.7-0.1c-0.2,0-0.3,0-0.4,0
	c0,0,0.1,0.2,0.2,0.5c0,0,0,0,0,0.1c0.1,0.2,0.2,0.4,0.3,0.4s0.3,0,0.5,0c0.1,0,0.1,0,0.2,0c2-0.3,2.9-0.3,2.9,0
	c0,0.1,0.1,0.3,0.2,0.6c0.4,0.8,0.7,1.6,0.9,2.4s0.3,1.4,0.1,1.5c-0.1,0.1-0.9,0.1-2.4,0.1s-2.7,0-3.6-0.1c-0.2,0-0.4,0-0.4,0
	s0.1,0.2,0.2,0.5C119.6,80.3,119.7,80.5,119.7,80.6z M131.1,79.6c-0.2,0.1-0.8,0.1-1.9,0.1c-1.1,0-1.6-0.1-1.7-0.1
	c-0.1-0.1-0.1-0.1-0.1-0.2s0-0.2,0.1-0.4c0.2-0.5,0.2-1.1-0.1-1.7s-0.7-1.1-1.4-1.6l0,0c-0.5-0.3-0.8-0.6-0.8-0.6
	c0-0.1,0.2-0.2,0.7-0.2c0.4,0,1.4,0,2.9,0c0.2,0,0.4,0,0.7,0c1.2,0,2,0,2.3,0c0.4,0,0.7,0.1,0.8,0.2c0,0.1,0,0.3,0,0.6
	c0,0.1,0,0.1,0,0.1c-0.3,1-0.5,1.8-0.8,2.6C131.5,79.1,131.3,79.5,131.1,79.6z M153.4,92.7c0.9,0.1,3.1,0.1,6.4,0
	c3.4,0,5.3-0.1,5.9-0.2c0.7-0.1,1.3-0.3,1.8-0.6c0.4-0.3,0.7-0.6,0.7-0.9s-0.2-0.6-0.7-0.8c-0.4-0.2-0.6-0.4-0.6-0.6
	c-0.1-0.2-0.1-0.8-0.1-1.7s0-1.5-0.1-1.6s-0.2,0.1-0.4,0.7c0,0.1-0.1,0.3-0.1,0.5c-0.3,1.1-0.6,1.8-0.8,2.1
	c-0.3,0.4-0.9,0.7-1.8,0.8c-0.6,0.1-2,0.1-4.2,0.1c-0.4,0-0.7,0-0.9,0c-0.4,0-1,0-1.7,0c-1.9,0-3,0-3.5-0.1
	c-0.7-0.1-1.1-0.3-1.3-0.6c-0.1-0.3-0.2-0.8-0.1-1.8c0-0.4,0-0.7,0-0.9c0-0.1,0-0.2,0-0.4c0-1,0-1.6,0-1.8c0-0.2,0.1-0.3,0.3-0.4
	l0,0c0.1-0.1,1.9-0.1,5.2-0.1c3.4,0,5.2,0,5.3,0.1s0.2,0.1,0.3,0.2c0,0.1,0.1,0.2,0.1,0.5c0,0.4,0.1,0.6,0.2,0.7s0.4,0.1,0.8,0
	c0.5-0.1,0.8-0.2,1-0.3c0.2-0.1,0.3-0.3,0.3-0.6c0-0.2,0-0.6,0-1.3c-0.1-2-0.1-3.3,0-3.8c0-0.5,0.2-0.9,0.4-1
	c0.4-0.2,0.5-0.4,0.5-0.5c0-0.2-0.3-0.4-0.8-0.9c-0.6-0.5-1-0.8-1.2-0.8c-0.2,0-0.4,0.1-0.7,0.4c0,0-0.1,0.1-0.1,0.2
	c-0.3,0.3-0.5,0.5-0.7,0.5c-0.2,0-0.7,0.1-1.6,0.1c-0.2,0-0.3,0-0.4,0c-1,0-1.7,0-2,0c-0.4,0-0.5-0.2-0.5-0.3c0-0.1,0.3-0.4,0.7-0.7
	c0.6-0.5,1.1-1,1.3-1.2c0.6-0.6,1.1-0.9,1.4-1s0.4-0.2,0.4-0.3c0-0.1-0.3-0.4-0.7-0.8c-0.6-0.6-1-0.9-1.2-1
	c-0.2-0.1-0.5,0.1-0.8,0.5l-0.1,0.1c-0.3,0.3-0.5,0.5-0.7,0.5c-0.2,0-0.7,0.1-1.5,0.1c-0.2,0-0.3,0-0.4,0c-1,0-1.6,0-1.8,0
	c-0.2,0-0.3-0.1-0.3-0.3c0-0.2,0.1-0.5,0.3-0.9c0.3-0.4,0.5-0.6,0.7-0.7c0.6-0.1-0.2-0.5-2.1-1.1c-0.4-0.1-0.6-0.2-0.7-0.1
	c-0.1,0-0.1,0.1-0.2,0.3c-0.3,1.4-1,3-2,4.8s-2.2,3.3-3.5,4.7c-0.3,0.3-0.5,0.5-0.5,0.6s0,0.1,0.2,0.1c0.2,0,0.8-0.4,1.9-1.2
	c0.3-0.2,0.5-0.3,0.6-0.4c0.1,0,0.2,0,0.3,0.1c0,0,0.1,0.3,0.1,0.8c0,0.4,0,1.9,0,4.3c0,0.1,0,0.1,0,0.1c0,2.7,0,4.2,0,4.7
	s0.1,0.9,0.2,1.2l0,0C150.4,92,151.5,92.6,153.4,92.7z M160.9,83.9c-1.2,0-1.9,0-2.1-0.1c-0.2-0.1-0.3-0.2-0.3-0.5s0-0.9,0-2.1
	c0-0.2,0-0.4,0-0.7c0-0.7,0-1.1,0-1.3c0-0.3,0.2-0.4,0.4-0.5c0.2,0,0.6-0.1,1.2-0.1c0.3,0,0.5,0,0.6,0c0.2,0,0.4,0,0.7,0
	c0.6,0,1,0,1.2,0c0.2,0.1,0.4,0.2,0.5,0.5c0,0.2,0.1,0.6,0,1.3c0,0.3,0,0.5,0,0.7c0,1.1,0,1.8,0,2s-0.1,0.4-0.2,0.5
	C162.9,83.8,162.2,83.8,160.9,83.9z M154.2,83.9c-1.2,0-1.9,0-2-0.1c-0.2-0.2-0.3-1-0.3-2.5s0.1-2.3,0.3-2.5c0.1-0.1,0.8-0.1,2-0.1
	c1.2,0,1.9,0,2,0.1c0.2,0.2,0.3,1,0.3,2.4s-0.1,2.3-0.3,2.4C156.1,83.8,155.5,83.9,154.2,83.9z M154.6,78c-1.5,0-2.3,0-2.4-0.1
	c-0.4-0.1-0.5-0.3-0.5-0.4c0-0.2,0.3-0.6,0.7-1.1c0.2-0.2,0.5-0.6,0.9-1.1c0,0,0.1-0.1,0.1-0.2c0.2-0.3,0.4-0.5,0.6-0.6
	c0.2,0,0.7-0.1,1.6-0.1c0.2,0,0.4,0,0.5,0c1,0,1.6,0,1.9,0c0.4,0,0.6,0.2,0.6,0.3c0,0.1,0,0.4-0.2,0.8c-0.6,1.4-1.1,2.1-1.4,2.3
	C156.8,78,156.1,78,154.6,78z M185,85.5c1.1,0.1,2-0.2,2.8-1c0.8-0.8,1.1-1.7,1-2.8c-0.1-0.9-0.5-1.6-1.2-2.2
	c-0.6-0.5-1.4-0.8-2.2-0.8c-0.9,0-1.6,0.3-2.3,0.9c-0.7,0.6-1,1.4-1.1,2.3c0,0.8,0.2,1.6,0.7,2.3C183.3,84.9,184.1,85.4,185,85.5z
	 M186.3,84.5c-0.8,0.3-1.6,0.2-2.3-0.3c-0.7-0.5-1.1-1.2-1.1-2.1c0-0.7,0.2-1.3,0.7-1.8s1.1-0.7,1.7-0.7c0.7,0,1.3,0.2,1.8,0.7
	c0.7,0.6,0.9,1.4,0.7,2.3C187.7,83.6,187.2,84.2,186.3,84.5z"/>
</svg>
