<?xml version="1.0" encoding="utf-8"?>
<!-- Generator: Adobe Illustrator 24.2.3, SVG Export Plug-In . SVG Version: 6.00 Build 0)  -->
<svg version="1.1" id="Layer_1" xmlns="http://www.w3.org/2000/svg" xmlns:xlink="http://www.w3.org/1999/xlink" x="0px" y="0px"
	 viewBox="0 0 352 219" style="enable-background:new 0 0 352 219;" xml:space="preserve">
<style type="text/css">
	.st0{clip-path:url(#SVGID_2_);}
	.st1{fill:none;stroke:#D6D2C7;stroke-width:1.3;stroke-miterlimit:10;stroke-dasharray:9.31,9.31;}
	.st2{fill:#D6D2C7;}
</style>
<g>
	<defs>
		<rect id="SVGID_1_" width="351.3" height="218.1"/>
	</defs>
	<clipPath id="SVGID_2_">
		<use xlink:href="#SVGID_1_"  style="overflow:visible;"/>
	</clipPath>
	<g class="st0">
		<path class="st1" d="M350.6,0.6H0.7v216.8h350V0.6z"/>
	</g>
</g>
<path class="st2" d="M21.8,47.4c0.1,0.1,0.3,0.2,0.6,0.1c0.3,0,0.6-0.1,0.9-0.3c0,0,0,0,0.1,0c0.2-0.1,0.4-0.2,0.4-0.4
	c0-0.1,0-0.5,0-1c0-0.2,0-0.3,0-0.4c0-1.2-0.1-2.8-0.1-4.6c0-1.9,0-2.8,0.1-3c0.1-0.2,0.3-0.2,0.6-0.3c0.3,0,1.2,0,2.9,0
	c0.3,0,0.7,0,1.2,0c0.9,0,1.4,0,1.7,0.1c0.3,0.1,0.5,0.3,0.6,0.6c0,0.3,0.1,0.9,0.1,1.8c0,0.5,0,1,0,1.3c0,0.2,0,0.4,0,0.7
	c0,1.2,0,1.9,0,2.2c0,0.4-0.1,0.7-0.3,0.8c-0.1,0.1-0.4,0.1-0.8,0.1c-0.1,0-0.2,0-0.2,0c-0.2,0-0.4,0-0.6,0c-0.1,0-0.1,0.1-0.1,0.2
	c0,0.1,0.1,0.1,0.2,0.1c0.3,0,0.5,0.1,0.9,0.4c0.2,0.2,0.3,0.4,0.4,0.5c0.1,0.2,0.2,0.5,0.2,0.9c0,0.1,0.1,0.2,0.3,0.2
	s0.5-0.1,0.9-0.2c0,0,0,0,0.1,0c0.4-0.1,0.6-0.2,0.8-0.1c0,0,0,0,0,0.1c-0.1,0-0.1,0.1-0.1,0.2c0,0.1,0.1,0.1,0.1,0.1
	c0.2,0,0.8-0.3,1.6-0.9c0.8-0.6,1.6-1.2,2.2-1.7c0.5-0.5,0.8-0.7,1-0.7c0.2,0,0.4,0.2,0.7,0.5c0.7,0.9,1.5,1.7,2.5,2.4
	c0.3,0.2,0.4,0.3,0.5,0.3c0.1,0,0.1-0.1,0.2-0.2c0.2-0.3,0.4-0.6,0.7-0.9c0.3-0.3,0.6-0.4,0.9-0.5c0.4-0.1,0.4-0.3,0-0.5
	C42,45,41.2,44.6,40.4,44c-0.8-0.6-1.4-1.1-1.6-1.4c-0.1-0.2-0.2-0.3-0.1-0.5c0-0.2,0.2-0.4,0.4-0.9c0.8-1.4,1.5-3,2-4.8
	c0.2-0.6,0.3-0.9,0.4-1.1c0.1-0.2,0.2-0.3,0.5-0.4c0.3-0.1,0.4-0.2,0.4-0.4c0-0.1-0.2-0.3-0.6-0.7c-0.6-0.6-1-1-1.2-1
	c-0.2-0.1-0.5,0.1-0.8,0.4c-0.3,0.4-0.6,0.6-0.8,0.7c-0.2,0.1-0.4,0.1-0.6,0c-0.2-0.1-0.3-0.2-0.3-0.4c0-0.2-0.1-0.6-0.1-1.3
	c0-0.1,0-0.3,0-0.5c0-0.6,0-0.9,0-1.1c0.1-0.2,0.2-0.3,0.5-0.4c0.2,0,0.6-0.1,1.4-0.1c0.3,0,0.5,0,0.6,0c1.2,0,1.9,0,2.1,0
	c0.2,0,0.3-0.1,0.4-0.3c0-0.1-0.1-0.3-0.4-0.6c-0.3-0.3-0.6-0.6-1-1c-0.3-0.3-0.5-0.4-0.6-0.3c-0.1,0-0.3,0.3-0.6,0.7
	c-0.3,0.4-0.7,0.7-1.1,0.9c-0.4,0.1-0.7,0.1-1-0.1c-0.2-0.2-0.3-0.7-0.2-1.6c0-0.9,0.1-1.4,0.3-1.5c0.5-0.3-0.1-0.6-1.7-1
	c0,0-0.1,0-0.2,0c-0.4-0.1-0.6-0.1-0.7-0.1c0,0-0.1,0.2,0,0.4c0,0,0,0.1,0,0.1c0.1,1,0.2,2.6,0.2,4.8c0,0.2,0,0.5,0,0.8
	c0,1.1,0,1.7,0,2c-0.1,0.4-0.2,0.6-0.5,0.7c-0.2,0-0.7,0-1.5,0c-0.2,0-0.4,0-0.6,0c0,0,0,0-0.1,0c-0.3,0-0.5,0-0.5,0
	c0,0,0,0.2,0.1,0.4c0,0,0,0.1,0,0.1c0,0,0,0,0,0.1c0.1,0.3,0.2,0.4,0.3,0.4s0.1,0,0.2,0c0.3-0.2,0.6-0.2,0.8-0.1
	c0.2,0.1,0.4,0.4,0.4,0.8c0.3,2.1,0.8,4,1.5,5.7c0.3,0.7,0.4,1.2,0.2,1.5c-0.1,0.3-0.5,1-1.3,1.9c-0.8,0.9-1.3,1.5-1.8,1.8
	c-0.4,0.3-0.6,0.1-0.4-0.5c0-0.1,0.1-1.5,0.1-4c0-0.1,0-0.2,0-0.4c0-2.3,0-3.5,0.1-3.6c0.1-0.2,0.3-0.3,0.5-0.4
	c0.3-0.1,0.4-0.3,0.3-0.5c-0.1-0.2-0.5-0.6-1.1-1.1c-0.4-0.4-0.7-0.5-0.9-0.6c-0.1,0-0.3,0.1-0.5,0.4c0,0-0.1,0.1-0.1,0.2
	c-0.2,0.4-0.5,0.6-0.7,0.6c-0.3,0-1.1,0.1-2.4,0.1c-0.3,0-0.5,0-0.7,0s-0.4,0-0.7,0c-1.3,0-2.1,0-2.4,0s-0.7-0.2-1.2-0.4
	c-0.1,0-0.2-0.1-0.3-0.1c-0.6-0.3-0.9-0.4-1-0.4c0,0-0.1,0-0.1,0.1c0,0.1,0,0.3,0.1,0.7c0.1,0.9,0.1,2.4,0.1,4.5
	c0,2.1,0,3.6-0.1,4.6c0,0.6-0.1,1,0,1.1C21.7,47.2,21.7,47.3,21.8,47.4z M25,44.8c0.1,0.1,0.4,0.1,0.7-0.1c0.3-0.2,0.5-0.4,0.5-0.6
	c0-0.3,0.1-0.5,0.2-0.6c0.1-0.1,0.4-0.1,0.8-0.1c0.4,0,0.6,0,0.8,0.1c0.1,0.1,0.2,0.3,0.2,0.5c0,0.2,0.1,0.3,0.2,0.4
	c0.1,0,0.3,0,0.6-0.2c0,0,0,0,0.1,0c0.3-0.1,0.4-0.2,0.4-0.4c0-0.1,0-0.6,0-1.3c0-0.1,0-0.2,0-0.2c0-1,0-1.7,0-2.1
	c0-0.3,0.1-0.5,0.3-0.6c0.2-0.1,0.1-0.4-0.5-0.9l0,0c-0.2-0.2-0.4-0.3-0.4-0.3c0,0-0.1,0-0.2,0.1l0,0c-0.7,0.6-1.7,0.6-3.1,0
	c-0.3-0.1-0.5-0.2-0.5-0.2c0,0-0.1,0.2,0,0.4c0.1,0.8,0.1,2.2,0.1,4.1C24.9,44.1,25,44.7,25,44.8z M27.2,42.7
	c-0.5,0-0.7-0.1-0.8-0.2c-0.1-0.2-0.1-0.6-0.1-1.3s0-1.2,0.1-1.3c0.1-0.2,0.4-0.2,0.8-0.2c0.5,0,0.7,0.1,0.8,0.2
	c0.1,0.1,0.1,0.6,0.1,1.3c0,0.6,0,1,0,1.1c0,0.1-0.1,0.2-0.3,0.3C27.7,42.7,27.5,42.7,27.2,42.7z M37.4,40.3
	c-0.3,0.2-0.7-0.2-1.2-1.1c-0.5-0.9-0.9-2.1-1.3-3.5c-0.1-0.4-0.1-0.6-0.1-0.7c0-0.1,0.2-0.2,0.5-0.2c0.2,0,0.8,0,1.6,0
	c0.8,0,1.3,0,1.5,0c0.3,0,0.5,0.1,0.6,0.2c0,0.1,0.1,0.2,0,0.5c0,0.5-0.3,1.4-0.7,2.7C37.8,39.5,37.6,40.2,37.4,40.3z M23.3,35.6
	c0.2,0.2,0.5,0.2,1,0.1c0.5-0.1,0.8-0.3,0.9-0.5c0.1-0.3,0.2-0.4,0.4-0.5c0.2,0,0.7-0.1,1.5-0.1s1.4,0,1.6,0.1
	c0.2,0.1,0.3,0.2,0.3,0.5c0,0.3,0.4,0.3,1.2,0.1c0.4-0.1,0.7-0.2,0.8-0.4c0.1-0.1,0.1-0.4,0.1-0.9c-0.1-1.1-0.1-1.9,0-2.2
	c0.1-0.4,0.2-0.6,0.6-0.8c0.3-0.2,0-0.7-1.1-1.5c-0.3-0.2-0.4-0.3-0.6-0.3c-0.1,0-0.3,0.2-0.5,0.5c-0.4,0.5-1.1,0.7-2.1,0.8
	c-1.1,0-2.1-0.1-3-0.6c0,0-0.1,0-0.1,0c-0.5-0.2-0.8-0.3-0.9-0.3c-0.1,0-0.1,0.2-0.1,0.4c0,0,0,0.1,0,0.1c0,0.3,0,1,0,2.3
	c0,1.2,0,2,0,2.4c0,0.3,0,0.4,0,0.5C23.2,35.5,23.2,35.5,23.3,35.6z M27.2,34.1c-1,0-1.5,0-1.6-0.1c-0.2-0.1-0.3-0.6-0.3-1.3
	c0-0.7,0.1-1.2,0.4-1.3c0.1-0.1,0.6-0.1,1.6-0.1c0.9,0,1.4,0,1.6,0.1c0.3,0.1,0.4,0.5,0.4,1.2c0,0.7-0.1,1.1-0.3,1.3
	C28.7,34,28.1,34,27.2,34.1z M21.8,29.3c0,0,0.1,0.1,0.2,0c0.7-0.1,2.1-0.2,4-0.3c2-0.1,3.2,0,3.7,0c0.2,0,0.4,0,0.6,0
	c0.1,0,0.7-0.1,1.5-0.1c1,0,1.5-0.1,1.6-0.2c0.1-0.1-0.1-0.5-0.7-1c-0.6-0.6-1.1-0.9-1.2-1S31,27,30.7,27.4
	c-0.3,0.4-0.7,0.7-1.1,0.9c-0.4,0.1-0.8,0.1-1.2-0.1c-0.2-0.1-0.3-0.4-0.3-0.9c0-0.5,0.1-0.8,0.3-1c0.2-0.1,0.2-0.3,0-0.4
	c-0.2-0.1-0.7-0.3-1.6-0.6c-0.4-0.1-0.7-0.2-0.8-0.2c-0.1,0-0.1,0.1-0.1,0.3c0.1,0.7,0.1,1.3,0.1,1.8c0,0.5-0.1,0.8-0.3,0.9
	c-0.1,0-0.6,0.1-1.6,0c-0.9,0-1.7,0-2.3-0.1c0,0-0.1,0-0.1,0c-0.3,0-0.5,0-0.5,0c0,0,0,0.2,0.2,0.5C21.6,29,21.7,29.2,21.8,29.3z
	 M57.9,47.5c0,0,0.1,0.1,0.2,0c0.1,0,0.2,0,0.4,0c0.9-0.1,1.6-0.4,1.9-0.8c0.4-0.4,0.6-1.1,0.6-2c0-0.5,0.1-0.9,0.1-1l0,0
	c0-0.1,0.2-0.2,0.5-0.2c0.3,0,1.4,0,3.2,0c0.4,0,0.7,0,0.9,0c2.2,0,3.5,0,3.9,0c0.4,0,0.6-0.1,0.7-0.2c0.1-0.2-0.3-0.7-1.2-1.4
	c-0.3-0.2-0.5-0.4-0.5-0.5c0-0.1,0-0.2,0.1-0.4c0.4-0.2-0.1-0.8-1.4-1.7C67,39,66.8,38.9,66.7,39c-0.1,0-0.3,0.2-0.6,0.6
	c0,0,0,0-0.1,0.1c-0.3,0.3-0.5,0.5-0.7,0.6c-0.2,0-0.8,0.1-1.8,0.1c-0.1,0-0.1,0-0.2,0c-0.8,0-1.4,0-1.6,0c-0.3,0-0.5-0.1-0.6-0.2
	C61,40,61,39.8,61,39.5c0-0.4,0.1-0.6,0.2-0.7c0.1-0.1,0.5-0.2,1.2-0.3c0.2,0,0.7-0.1,1.3-0.1c0.2,0,0.3,0,0.4,0
	c0.7-0.1,1.3-0.1,1.7-0.1c0.3,0,0.4,0,0.4-0.1c0-0.1-0.1-0.3-0.4-0.6c-0.7-0.9-1.2-1.3-1.3-1.3c0,0-0.1,0-0.2,0
	c-0.3,0.1-0.5,0.1-0.6,0.2c-1.2,0.3-2.2,0.6-3.2,0.7c-0.9,0.2-1.4,0.2-1.5,0.1c0,0-0.1-0.1-0.1-0.2c0-0.1,0-0.1,0-0.1
	c0,0,0-0.3,0-0.7c0-0.4,0-0.8,0-0.9c0-0.2,0.2-0.3,0.3-0.5l0,0l0.2-0.1c0,0-0.1-0.1-0.2-0.2c-0.2-0.1-0.2-0.2-0.1-0.3
	c0.1-0.1,0.4-0.2,0.7-0.2c0.5,0,0.7-0.1,0.7-0.2c0-0.1-0.1-0.3-0.5-0.6c0,0-0.1-0.1-0.1-0.1c-0.4-0.3-0.6-0.6-0.7-0.7
	c-0.1-0.2-0.1-0.6-0.1-1.3c0-0.1,0-0.2,0-0.2c0-0.7,0-1.2,0-1.3c0-0.2,0.2-0.3,0.3-0.5c0.2-0.1,0.2-0.2,0.2-0.3
	c0-0.1-0.1-0.2-0.2-0.4c-0.3-0.4-0.5-0.6-0.5-0.7c0-0.1,0.2-0.2,0.6-0.3c0.9-0.1,0.7-0.6-0.6-1.6c-0.3-0.2-0.6-0.3-0.7-0.3
	c-0.1,0-0.3,0.2-0.6,0.6c-0.3,0.3-0.5,0.5-0.8,0.6c-0.3,0.1-0.6,0.1-0.8,0c-0.2-0.1-0.3-0.2-0.3-0.4c0-0.2,0.1-0.3,0.2-0.5
	c0.2-0.1,0.2-0.3-0.1-0.4c-0.2-0.1-0.8-0.2-1.6-0.3c0,0-0.1,0-0.1,0c-0.2,0-0.4,0-0.4,0c0,0,0,0.2,0,0.6c0,0,0,0.1,0,0.1v0
	c0,0.4-0.1,0.7-0.2,0.8c-0.1,0.1-0.5,0.1-1.2,0.1c-0.5,0-1,0-1.7,0c-0.6,0-1-0.1-1.1-0.1c-0.1,0-0.2,0.1,0,0.4
	c0.1,0.3,0.3,0.5,0.5,0.7c0.4,0.4,0.5,1.9,0.3,4.5c0,0.5-0.1,0.8-0.1,0.9c-0.1,0.1-0.3,0.1-0.6,0.1c-0.3,0-0.4,0-0.4,0.1
	c0,0,0.1,0.2,0.2,0.6c0.1,0.2,0.2,0.4,0.2,0.4c0,0,0.1,0,0.2,0c0.3,0,0.5,0.1,0.6,0.3c0.1,0.2,0.1,0.7,0.1,1.6c0,0.2,0,0.4,0,0.7
	c0,0.6,0.1,0.9,0.1,1c0.2,0.1,0.6,0.1,1,0c0.5-0.1,0.7-0.3,0.7-0.5c0-0.1,0-0.1,0.1-0.2c0.1-0.1,0.2-0.2,0.3-0.2
	c0.1-0.1,0.8-0.1,2.1,0c1.3,0,2,0.1,2.1,0.1c0.2,0.1,0.3,0.2,0.3,0.3c0,0.1,0,0.3-0.1,0.3c-0.3,0.2-1.8,0.4-4.6,0.7
	c-0.3,0-0.5,0-0.6,0.1c-0.1,0-0.1,0.1-0.1,0.2c0.1,0.2,1.6,0.2,4.7,0.1c1.2,0,1.9,0,2,0c0.2,0.1,0.3,0.4,0.3,0.7
	c0,0.3-0.1,0.6-0.3,0.7c-0.2,0.1-1.2,0.1-3.2,0.1c-2,0-3.3-0.1-4.1-0.2c-0.3,0-0.4,0-0.5,0c0,0,0.1,0.2,0.2,0.5c0,0,0,0,0,0.1
	c0.1,0.2,0.2,0.4,0.3,0.4c0.1,0,0.3,0,0.6,0c0.1,0,0.1,0,0.2,0c0.9-0.1,2.2-0.2,3.8-0.2c1.6,0,2.5,0,2.7,0.1
	c0.2,0.1,0.3,0.4,0.3,0.8c0,0.4-0.1,0.6-0.4,0.7c-0.1,0.1-1.6,0.1-4.2,0.1s-4.3-0.1-4.8-0.2c-0.1,0-0.2,0-0.2,0.1s0.1,0.2,0.2,0.5
	c0,0,0,0.1,0.1,0.1c0.1,0.2,0.2,0.3,0.3,0.4c0.1,0,0.3,0,0.6,0c0.1,0,0.2,0,0.2,0c1.1-0.1,2.7-0.2,4.9-0.2c0.1,0,0.1,0,0.2,0
	c1.2,0,2,0,2.3,0c0.4,0,0.7,0.1,0.8,0.2c0.1,0.1,0.1,0.3,0.1,0.6c0,0,0,0.1,0,0.1c0,0.3-0.1,0.5-0.1,0.6c-0.1,0.1-0.3,0.2-0.6,0.2
	c-0.3,0-0.8,0-1.6,0c-0.9-0.1-1.4-0.1-1.4,0c-0.1,0.1,0.1,0.2,0.5,0.3c0.7,0.1,1.2,0.3,1.6,0.6c0.4,0.3,0.6,0.7,0.7,1.2
	C57.9,47.4,57.9,47.5,57.9,47.5z M64,42.8c-1.7,0-2.6,0-2.7-0.1c-0.2-0.1-0.3-0.4-0.4-0.8c0-0.4,0.1-0.7,0.3-0.8
	c0.1-0.1,1.2-0.1,3.2-0.1c2,0,3.1,0.1,3.2,0.1c0.2,0.1,0.1,0.3-0.1,0.7c-0.2,0.4-0.5,0.7-0.8,0.8C66.6,42.7,65.7,42.8,64,42.8z
	 M68.6,37.2c0.3,0.1,0.5,0.1,0.5,0.1c0,0,0.1-0.1,0.2-0.3c0.2-0.7,0.6-1.1,1.1-1.3c0.3-0.2,0.3-0.3-0.1-0.4c-1.5-0.2-2.5-0.4-3-0.5
	c-0.6-0.2-0.9-0.3-0.9-0.6c0-0.2,0.2-0.5,0.6-0.9c0.4-0.4,0.7-0.8,0.9-1c0.2-0.2,0.4-0.3,0.6-0.4c0.2-0.1,0.3-0.1,0.3-0.2
	c0-0.1-0.1-0.3-0.3-0.5c-0.3-0.3-0.4-0.5-0.4-0.6c0-0.1,0.3-0.2,0.7-0.3c0.6-0.1,1.1-0.3,1.3-0.6c0.2-0.3,0.2-0.6-0.1-1
	c-0.2-0.2-0.3-0.5-0.4-0.9c0-0.6-0.2-0.6-0.4,0c-0.1,0.4-0.4,0.7-0.7,0.8c-0.4,0.2-0.7,0.2-1,0c-0.2-0.1-0.3-0.4-0.3-0.8
	c0-0.4,0.2-0.7,0.4-0.8c0.2-0.1,0.3-0.2,0.2-0.3c-0.1-0.1-0.3-0.4-0.7-0.8c-0.4-0.4-0.7-0.6-0.8-0.6c-0.1,0-0.3,0.1-0.6,0.5
	c-0.4,0.5-0.8,0.7-1.2,0.7c-0.5,0-1.2-0.2-2.1-0.6c-0.1,0-0.2-0.1-0.3-0.1c-0.3-0.2-0.5-0.2-0.6-0.1c0,0.1-0.1,0.3-0.1,0.8
	c0,0.2,0,0.3,0,0.5c0,1-0.1,1.8-0.3,2.4c-0.2,0.5-0.5,1-1,1.4c-0.2,0.1-0.3,0.3-0.2,0.4c0,0.1,0.1,0.1,0.3,0.1
	c0.2,0,0.4,0.1,0.6,0.6c0.2,0.3,0.3,0.4,0.4,0.3c0.1-0.1,0.3-0.1,0.5,0c0.2,0.1,0.4,0.3,0.6,0.6c0.1,0.3,0.3,0.5,0.6,0.9
	c0.4,0.5,0.4,0.9,0,1.3c-0.3,0.3-1.1,0.7-2.4,1.2c-0.4,0.1-0.6,0.3-0.6,0.3c0,0.2,0.1,0.2,0.4,0.2c1.1-0.2,2.2-0.5,3.3-0.9
	c0.4-0.2,0.7-0.2,0.9-0.2c0.2,0,0.4,0.1,0.7,0.3c1,0.6,2.1,1.1,3.5,1.6C68.5,37.2,68.6,37.2,68.6,37.2z M57,36.2
	c-0.3,0.2-0.6,0.2-0.8,0c-0.2-0.2-0.4-0.6-0.4-1.1c0-0.5,0.1-0.8,0.3-1c0.2-0.2,0.5-0.2,0.8,0c0.2,0.1,0.3,0.4,0.3,1
	C57.2,35.7,57.1,36.1,57,36.2z M53.5,36.3c-0.2,0.1-0.5,0.1-0.7,0c-0.2-0.1-0.3-0.2-0.4-0.4c0-0.2,0.1-0.3,0.3-0.5
	c0.2-0.1,0.2-0.2,0.2-0.3c0-0.1-0.2-0.2-0.5-0.3c-0.9-0.4-0.8-0.7,0.4-0.7c0.5,0,0.8,0.1,0.9,0.2c0.1,0.1,0.2,0.5,0.1,1
	C53.9,35.9,53.8,36.2,53.5,36.3z M57.6,33.4c-0.5,0.2-0.9,0.2-1.4,0c-0.4-0.2-0.6-0.5-0.3-0.8c0.1-0.2,0.4-0.2,0.8-0.2
	c0.4,0,0.6,0.1,0.7,0.3c0,0.1,0.1,0.1,0.2,0.2c0.1,0,0.2,0.1,0.2,0.2C57.8,33.2,57.8,33.3,57.6,33.4z M53.6,33.4
	c-0.2,0.1-0.5,0.2-1,0.1c-0.5,0-0.8-0.1-0.8-0.3c0-0.1,0.1-0.2,0.3-0.4c0.2-0.2,0.4-0.3,0.5-0.4c0.3-0.1,0.6-0.1,0.8,0
	s0.4,0.2,0.5,0.4S53.8,33.2,53.6,33.4z M64.7,33.2c-0.2,0.1-0.4,0.2-0.5,0.1c-0.2,0-0.4-0.2-0.6-0.4c-0.7-0.5-0.9-0.9-0.6-1.1
	c0.1-0.1,0.4-0.1,1.1-0.1c0.7,0,1.1,0,1.2,0c0.2,0.1,0.2,0.3,0.1,0.6C65.3,32.8,65.1,33,64.7,33.2z M57.2,31.6
	c-0.2,0.2-0.5,0.2-0.8,0.2c-0.4-0.1-0.6-0.2-0.6-0.5c0-0.4,0.3-0.6,0.8-0.6c0.4,0,0.6,0.1,0.7,0.3C57.5,31.2,57.4,31.4,57.2,31.6z
	 M53.6,31.7c-0.2,0.1-0.4,0.1-0.7,0.1c-0.3,0-0.5-0.1-0.5-0.2c-0.1-0.3-0.1-0.5,0.2-0.6c0.3-0.2,0.6-0.2,0.9-0.1
	c0.2,0.1,0.3,0.2,0.4,0.4C53.8,31.4,53.7,31.6,53.6,31.7z M64.4,31.1c-0.8,0-1.5,0-2,0c-0.5,0-0.9-0.1-1-0.2c-0.1-0.1,0-0.3,0.2-0.5
	c0.5-0.4,0.9-0.9,1.2-1.2c0.2-0.4,0.4-0.8,0.5-1.4c0.1-0.3,0.2-0.6,0.3-0.6c0.1-0.1,0.4-0.1,0.8-0.1c0.5,0,0.8,0.1,0.9,0.2
	c0.1,0.1,0.2,0.6,0.2,1.3c0,0.6,0,1,0.1,1.2c0.1,0.2,0.2,0.3,0.4,0.5c0.3,0.1,0.4,0.3,0.4,0.5c0,0.2-0.2,0.3-0.5,0.4
	C65.7,31.1,65.2,31.1,64.4,31.1z M57.1,30c-0.2,0.1-0.4,0.1-0.7,0c-0.3,0-0.4-0.1-0.5-0.3c-0.1-0.3-0.1-0.5,0.2-0.6
	c0.3-0.2,0.6-0.2,1-0.1c0.2,0.1,0.3,0.2,0.3,0.4C57.4,29.8,57.3,29.9,57.1,30z M53.6,29.9c-0.1,0.1-0.3,0.2-0.6,0.2
	c-0.3,0-0.5-0.1-0.6-0.2c-0.2-0.2-0.2-0.4,0-0.5c0.1-0.2,0.4-0.3,0.7-0.3c0.3,0,0.6,0.1,0.7,0.3C53.8,29.5,53.8,29.7,53.6,29.9z
	 M57.1,28.4c-0.4,0.1-0.7,0.1-1,0c-0.3-0.2-0.4-0.4-0.2-0.6c0.1-0.2,0.4-0.3,0.8-0.3c0.5,0,0.7,0.1,0.8,0.2c0,0.1,0,0.2-0.1,0.4
	C57.4,28.2,57.2,28.3,57.1,28.4z M53.6,28.3c-0.3,0.1-0.7,0.1-1.3,0c-0.6-0.2-0.9-0.3-0.9-0.6c0-0.1,0.3-0.2,0.8-0.3
	c0.5-0.1,1-0.1,1.2,0c0.2,0.1,0.3,0.2,0.4,0.4C53.8,28.1,53.7,28.2,53.6,28.3z M95.5,46.6c0.9,0.7,1.3,0.9,1.3,0.6
	c0-0.3,0.2-0.6,0.6-1c0.4-0.4,0.7-0.7,1.1-0.9c0.3-0.1,0.4-0.2,0.4-0.3c0-0.1-0.2-0.2-0.5-0.3c-1.3-0.5-2.5-1.3-3.7-2.3
	c-0.4-0.3-0.6-0.6-0.6-0.7c0-0.2,0.1-0.5,0.3-0.9c1-1.7,1.7-3.6,2.3-5.7c0.1-0.6,0.3-1,0.4-1.1c0.1-0.2,0.2-0.3,0.5-0.3
	c0.3-0.1,0.4-0.2,0.3-0.4c-0.1-0.2-0.3-0.5-0.8-1c-0.5-0.5-0.8-0.8-1-0.8c-0.1,0-0.4,0.1-0.7,0.5c0,0-0.1,0.1-0.2,0.2
	c-0.3,0.3-0.5,0.4-0.7,0.5c-0.2,0-0.9,0.1-1.9,0.1c-0.3,0-0.5,0-0.7,0c-0.2,0-0.5,0-0.9,0c-0.8,0-1.3,0-1.6,0
	c-0.3,0-0.5-0.2-0.6-0.4c0-0.2-0.1-0.6,0-1.2c0-0.3,0-0.5,0-0.7c0-0.2,0-0.5,0-0.8c0-0.6,0-0.9,0.1-1.1c0.1-0.2,0.4-0.4,0.8-0.4
	c0.3,0,1.1,0,2.3,0c0.7,0,1.2,0,1.7,0c1.8,0,2.9,0,3.4,0c0.7,0,1.1,0,1.2-0.1c0.1,0,0.2-0.1,0.2-0.2c0.1-0.3-0.4-0.8-1.3-1.5
	c-0.4-0.3-0.7-0.5-0.8-0.5c-0.1,0-0.3,0.2-0.6,0.6l0,0c0,0-0.1,0.1-0.1,0.2c-0.2,0.4-0.5,0.6-0.7,0.7c-0.3,0.1-1,0.1-2.2,0.1
	c-0.3,0-0.5,0-0.6,0c-0.1,0-0.3,0-0.6,0c-1.1,0-1.8,0-2.1,0c-0.3,0-0.7-0.2-1.2-0.4c-0.1-0.1-0.3-0.1-0.4-0.1c0,0-0.1,0-0.2-0.1
	c-0.4-0.2-0.7-0.2-0.7-0.2c-0.1,0-0.1,0.2-0.1,0.5c0,0.1,0,0.1,0,0.1c0,0.6,0.1,1.3,0.1,2.2c0,0.9,0,1.4,0,1.5
	c-0.1,0.2-0.2,0.2-0.3,0.2c-0.1,0-0.4-0.3-0.8-0.7l0,0c-0.5-0.5-0.8-0.7-1-0.7c-0.1,0-0.3,0.2-0.6,0.6c-0.3,0.5-0.6,0.7-0.7,0.7
	c-0.2,0-0.3-0.7-0.3-2c0-1.4,0.1-2.1,0.4-2.3c0.3-0.2,0.2-0.4-0.1-0.5c-0.3-0.2-1-0.4-2-0.6c-0.3-0.1-0.4-0.1-0.5,0c0,0,0,0.2,0,0.5
	c0.2,1.3,0.2,2.5,0.2,3.5c0,1-0.1,1.5-0.3,1.7c-0.1,0.1-0.6,0.1-1.5,0.1c-0.8,0-1.4-0.1-1.8-0.2c-0.2,0-0.2,0.2,0.1,0.6l0,0
	c0.1,0.3,0.2,0.4,0.3,0.5c0,0,0.1,0,0.3,0h0c0.4-0.1,0.8-0.2,1.2-0.2c0.4,0,0.7,0,0.9,0c0.1,0.1,0.2,0.2,0.2,0.4
	c0,0.2,0,0.5-0.1,0.9c-0.7,3.3-1.7,6-3,8.1c-0.2,0.3-0.2,0.4-0.3,0.5c0,0.1,0,0.1,0.1,0.2c0.1,0.1,0.4-0.2,1-0.8
	c0.6-0.6,1.2-1.4,1.7-2.3c0.3-0.5,0.5-0.8,0.7-0.9c0.1-0.1,0.2,0,0.3,0.2c0.1,0.2,0.1,1.2,0.1,3c0,1.8-0.1,3.4-0.2,4.7
	c0,0.6-0.1,1-0.1,1.2c0,0.1,0,0.2,0.1,0.3s0.2,0.2,0.3,0.2c0.2,0.1,0.6,0,1-0.1c0.4-0.1,0.7-0.3,0.9-0.5c0.1-0.1,0.1-0.2,0.1-0.3
	c0-0.1,0-0.5,0-1.2c0-1-0.1-2.8-0.1-5.6c0-2.7,0-4.2,0-4.3c0.1-0.2,0.2-0.3,0.3-0.2c0.1,0.1,0.3,0.3,0.4,0.6c0.1,0.2,0.2,0.5,0.4,1
	c0.1,0.4,0.2,0.6,0.2,0.7c0,0.3,0.2,0.5,0.5,0.6c0.4,0.1,0.7,0,0.9-0.2c0.5-0.4,0.5-1.1,0.1-1.8s-1.1-1.4-2.1-2
	c-0.4-0.2-0.6-0.4-0.6-0.5s-0.1-0.4-0.1-0.9c0,0,0,0,0-0.1c0-0.5,0.1-0.8,0.2-0.9c0.1-0.1,0.6-0.1,1.5-0.1c0,0,0.1,0,0.1,0
	c0,0,0.1,0,0.1,0c0.9,0,1.4-0.1,1.5-0.1c0.1-0.1,0.2-0.1,0.2,0c0,0,0.1,0.1,0.1,0.3c0,0.1,0,0.9,0,2.2s0,2.2-0.1,2.4
	c0,0.3-0.1,0.7-0.1,1.2c-0.1,1.6-0.4,3.3-0.8,4.9c-0.4,1.6-1,3-1.7,4.2c-0.1,0.2-0.2,0.4-0.2,0.5c0,0.1,0,0.1,0.1,0.1
	c0.1,0.1,0.5-0.2,1.1-1c0.6-0.7,1.1-1.4,1.5-2.2c0.7-1.2,1.2-2.5,1.5-4s0.6-3.2,0.7-5.4v0c0-0.7,0.1-1,0.1-1.2
	c0-0.1,0.1-0.2,0.3-0.3c0.2-0.1,0.3,0,0.4,0.1c0.1,0.1,0.2,0.4,0.2,0.9c0.3,2.2,0.9,4.3,1.6,6.2c0.3,0.6,0.4,1,0.3,1.2
	c0,0.2-0.3,0.6-0.8,1.3c-1.2,1.5-2.6,2.7-4.2,3.7l0,0C86.2,47,86,47.1,86,47.1c0,0,0,0.1,0,0.2c0.1,0.2,0.9,0,2.2-0.8
	c1.4-0.8,2.4-1.5,3.2-2.2c0.5-0.5,0.9-0.7,1-0.7c0.2,0,0.4,0.3,0.8,0.8C93.9,45.1,94.6,45.9,95.5,46.6z M92.8,39.5
	c-0.3,0.3-0.7,0-1.2-1c-0.5-1-1-2.3-1.4-3.8c0,0,0-0.1,0-0.1C90,34.1,90,33.8,90,33.7c0-0.2,0.2-0.3,0.5-0.3c0.2,0,0.7,0,1.6,0
	c0.1,0,0.2,0,0.2,0c1.1,0,1.7,0,1.9,0c0.2,0,0.3,0.1,0.4,0.3c0.1,0.3-0.1,1.3-0.6,2.9C93.5,38.2,93.1,39.2,92.8,39.5z M112.1,47.3
	c0.1,0.3,1,0.1,2.7-0.6c1.7-0.7,3.1-1.4,4.2-2.2c0,0,0,0,0.1-0.1c0.4-0.3,0.7-0.4,0.8-0.4c0.2,0,0.5,0.3,1,0.8c0,0,0.1,0.1,0.1,0.1
	c0.9,0.9,1.8,1.7,3,2.3c0.3,0.2,0.4,0.3,0.5,0.3c0,0,0.1-0.1,0.2-0.2c0.4-0.8,0.9-1.3,1.7-1.6c0.2-0.1,0.3-0.2,0.3-0.2
	c0-0.1-0.3-0.2-0.7-0.4c-0.8-0.3-1.6-0.7-2.5-1.3c-0.9-0.6-1.5-1-1.7-1.2c-0.1-0.2-0.1-0.3-0.1-0.5c0.1-0.2,0.3-0.5,0.7-1
	c0.9-1.2,1.7-2.8,2.4-4.6c0.2-0.4,0.4-0.7,0.7-0.7c0.3-0.1,0.4-0.2,0.4-0.4c0-0.2-0.3-0.5-0.8-1c-0.5-0.5-0.9-0.8-1.1-0.8
	c-0.1,0-0.4,0.1-0.7,0.5c-0.3,0.3-0.5,0.5-0.7,0.6c-0.1,0.1-0.3,0.1-0.5,0.1c-0.3,0-0.5-0.1-0.6-0.3c-0.1-0.2-0.1-0.8-0.1-1.8
	c0-0.1,0-0.3,0-0.6c0-0.6,0-0.9,0-1.1c0.1-0.2,0.2-0.3,0.5-0.4c0.2,0,0.7,0,1.4,0c0.3,0,0.5,0,0.7,0c1.6,0,2.4-0.1,2.5-0.3
	c0.1-0.2-0.4-0.8-1.5-1.6c-0.3-0.2-0.5-0.4-0.6-0.3c-0.1,0-0.3,0.2-0.5,0.5l0,0c-0.4,0.5-0.6,0.8-0.7,0.9c-0.1,0.1-0.4,0.1-0.8,0.1
	c-0.4,0-0.7-0.1-0.8-0.2c-0.1-0.2-0.1-0.7-0.1-1.5c0-0.7,0-1.2,0-1.4c0-0.2,0.1-0.4,0.3-0.4c0.2-0.1,0.2-0.3-0.1-0.5
	c-0.3-0.2-0.9-0.4-1.8-0.6c-0.4-0.1-0.7-0.2-0.8-0.1c-0.1,0-0.1,0.1-0.1,0.2c0.2,1.2,0.2,2.2,0.2,3c0,0.8-0.1,1.3-0.3,1.4
	c-0.1,0.1-0.7,0.1-1.8,0c-1.1,0-1.8-0.1-2.1-0.1c-0.2,0-0.2,0-0.1,0.3c0.1,0.3,0.1,0.4,0,0.5c-0.1,0-0.3,0-0.6-0.2
	c-0.2-0.1-0.4-0.2-0.5-0.1c-0.1,0-0.3,0.2-0.5,0.6c-0.5,0.7-0.9,1-1.3,0.9s-0.5-0.6-0.5-1.4c0,0,0-0.1,0-0.2c0-0.4,0-0.7,0.1-0.8
	c0.1-0.2,0.2-0.3,0.5-0.3c0.2,0,0.7,0,1.4,0c0.2,0,0.3,0,0.4,0c1,0,1.6,0,1.9-0.1c0.4,0,0.5-0.2,0.5-0.3c0-0.1-0.2-0.4-0.6-0.8
	c-0.7-0.6-1.1-1-1.3-1c-0.2,0-0.4,0.2-0.7,0.6c-0.6,0.8-1.2,1.1-1.8,0.8c-0.3-0.1-0.4-0.4-0.4-0.8s0.1-0.8,0.3-1
	c0.2-0.2,0.2-0.3,0-0.4c-0.2-0.1-0.7-0.3-1.5-0.5c-0.2,0-0.4-0.1-0.7-0.2c-0.1,0-0.2,0-0.2,0c-0.1,0-0.2,0-0.2,0.1
	c0,0.1,0,0.3,0,0.6c0.1,0.8,0.1,1.4,0,1.7c0,0.3-0.1,0.5-0.3,0.6c-0.1,0.1-0.6,0.1-1.7,0c-1,0-1.7-0.1-2-0.1c-0.2,0-0.2,0.2,0.1,0.6
	c0.1,0.3,0.2,0.5,0.3,0.5c0.1,0,0.3,0,0.7-0.1c1.2-0.2,2-0.3,2.4-0.1c0.4,0.1,0.6,0.6,0.6,1.3c0,0.7-0.2,1.1-0.6,1.3
	c-0.4,0.1-1.3,0.1-2.7,0c-0.3,0-0.4,0-0.5,0c0,0,0,0.2,0.2,0.5l0,0c0.1,0.3,0.2,0.4,0.3,0.5c0.1,0,0.3,0,0.6,0
	c0.7-0.1,1.3-0.2,1.8-0.2c0.6,0,1.7,0,3.6,0c1.8,0,2.8,0,3.1,0c0.3,0,0.5-0.1,0.6-0.1c0.1-0.1,0.1-0.1,0.1-0.2c0,0,0-0.2-0.1-0.3
	c-0.2-0.3-0.2-0.6-0.1-0.7c0.2-0.1,0.7-0.2,1.6-0.3c0.8-0.1,1.3-0.1,1.5-0.1c0.3,0,0.5,0.2,0.6,0.5c0,0.2,0.1,0.8,0.1,1.6
	c0,0.1,0,0.3,0,0.5c0,0.6,0,1,0,1.2c-0.1,0.2-0.2,0.4-0.4,0.4c-0.2,0-0.5,0-1.1,0c-0.2,0-0.4,0-0.5,0c-0.8,0-1.3,0-1.5-0.1
	c-0.2-0.1-0.6-0.3-1.1-0.7c0,0-0.1-0.1-0.2-0.1c-0.5-0.4-0.8-0.6-0.9-0.6c-0.1,0-0.2,0-0.4,0.2c0,0-0.1,0.1-0.1,0.1s0,0-0.1,0.1
	c-0.2,0.3-0.5,0.4-0.7,0.5c-0.2,0-0.8,0.1-1.7,0.1c-0.1,0-0.2,0-0.2,0c-1,0-1.6,0-1.8,0c-0.2,0-0.6-0.2-1.2-0.4
	c-0.1,0-0.2-0.1-0.3-0.1c-0.4-0.2-0.7-0.3-0.8-0.3c-0.1,0-0.1,0.2,0,0.5c0,0.1,0,0.1,0,0.2c0,0.4,0.1,1.4,0.1,3.2c0,1,0,1.6,0,1.9
	c0,0.4,0,0.6,0.1,0.7c0,0,0.1,0.1,0.2,0h0c0.7-0.1,1.1,0.8,1.4,2.6c0.1,0.4,0.1,0.6,0.1,0.7c0,0.1,0.2,0.2,0.4,0.3
	c0.3,0.2,0.4,0.3,0.4,0.3c0,0.2-0.8,0.4-2.3,0.6c-0.2,0-0.4,0.1-0.7,0.1c-0.2,0-0.4,0-0.4,0c-0.1,0-0.2,0.1-0.1,0.3
	c0,0.1,0.2,0.5,0.5,1.2c0.3,0.8,0.6,1.2,0.6,1.3s0.2,0,0.4-0.2c0.1-0.2,0.8-0.5,2.1-1c2-0.8,3.7-1.4,5.1-2.1c1.4-0.6,2.2-1,2.2-1.1
	s-0.1-0.1-0.2-0.1c-0.1,0-0.6,0.1-1.4,0.2c-0.1,0-0.2,0-0.3,0.1c-1,0.2-1.6,0.2-1.7,0.2c-0.2,0-0.3-0.1-0.2-0.3
	c0-0.1,0.1-0.4,0.4-0.7c0.3-0.4,0.5-0.6,0.6-0.9c0.4-0.5,0.6-0.8,0.8-0.9c0.2-0.1,0.2-0.2,0.2-0.2c0-0.1-0.1-0.1-0.3-0.2
	c-0.5-0.2-0.4-0.5,0.2-0.8c0,0,0.1,0,0.1-0.1c0.2-0.1,0.4-0.2,0.4-0.4c0-0.1,0-0.6,0-1.2c0-0.1,0-0.2,0-0.2c0-0.8,0-1.4,0-1.6
	c0-0.2,0.1-0.4,0.2-0.6c0.3-0.3,0.6-0.3,0.6,0c0,0.1,0.1,0.2,0.2,0.3c0.1,0,0.2,0,0.5,0c0.4,0,0.6,0,0.7,0.1s0.2,0.4,0.3,0.8
	c0.4,2,0.9,3.7,1.6,5c0.2,0.4,0.3,0.7,0.3,0.9c0,0.2-0.1,0.4-0.3,0.6c-0.6,0.7-1.4,1.4-2.6,2.2c-1.1,0.8-2.2,1.4-3.3,1.8
	c0,0,0,0-0.1,0c-0.2,0.1-0.4,0.2-0.4,0.2C112.1,47.2,112.1,47.3,112.1,47.3z M109.7,43.8c-0.4,0-0.6,0-0.6,0c0,0,0-0.2,0.2-0.4
	c0.4-0.4,0.5-1,0.3-1.5c-0.2-0.6-0.6-1.1-1.3-1.6c-0.5-0.3-0.6-0.6-0.4-0.9c0.1-0.1,0.1-0.2,0.1-0.2c0-0.1,0.1-0.2,0.2-0.3
	c0.1-0.1,0.8-0.2,2-0.2s1.9,0,2,0.1c0.2,0.2,0.2,0.4,0.1,0.6c-0.1,0.2-0.3,0.2-0.6,0.1c-0.1,0-0.2,0-0.3,0c0,0,0,0.2,0,0.5
	c0,0.4,0,1-0.1,1.7c-0.1,0.7-0.2,1.2-0.3,1.5c-0.1,0.3-0.2,0.5-0.5,0.6C110.2,43.7,110,43.8,109.7,43.8z M120.2,40.7
	c-0.2,0.1-0.3,0.1-0.5,0c-0.4-0.3-0.9-1.1-1.6-2.5c-0.7-1.4-0.9-2.2-0.7-2.4c0.1-0.1,0.2-0.2,0.5-0.2c0.2,0,0.9,0,2,0
	c1.2,0,1.8,0,2,0c0.2,0,0.3,0.1,0.4,0.3c0.1,0.3-0.2,1.1-0.7,2.5C121,39.6,120.6,40.4,120.2,40.7z M110.2,37.9c-1.1,0-1.7,0-1.8-0.1
	c-0.2-0.1-0.4-0.6-0.4-1.4c0-0.8,0.1-1.3,0.3-1.5c0.1-0.1,0.7-0.1,1.8-0.1c1.1,0,1.8,0,1.9,0.1c0.2,0.1,0.4,0.6,0.3,1.5
	c0,0.8-0.1,1.3-0.4,1.4C111.9,37.9,111.3,37.9,110.2,37.9z M141.6,39.3c0.1,0.2,0.2,0.3,0.4,0.3c0.2,0,0.5-0.2,0.9-0.6
	c0.9-0.7,1.6-1.6,2-2.8c0.4-1.1,0.4-2.1,0.1-2.9c-0.3-0.9-0.9-1.3-1.8-1.2c-0.6,0-1,0.3-1.3,0.7c-0.2,0.4-0.3,0.9-0.1,1.4
	c0.2,0.5,0.5,1,1.1,1.3c0.3,0.2,0.5,0.3,0.6,0.5c0.1,0.1,0.1,0.2,0.1,0.4c-0.1,0.4-0.3,0.8-0.6,1.3c-0.4,0.5-0.8,0.8-1.2,1.2
	c-0.2,0.1-0.3,0.2-0.3,0.3C141.4,39,141.5,39.1,141.6,39.3z M174.9,47.4c0,0.1,0.4,0.1,1.1-0.1c0.7-0.1,1.2-0.3,1.6-0.6
	c0.4-0.3,0.6-0.7,0.7-1.2c0.1-0.2,0.1-2.9,0.1-8.3c0-0.2,0-0.4,0-0.5c0-5.6,0-8.5,0.1-8.5c0.1-0.1,0.2-0.2,0.4-0.2
	c0.2,0,0.6-0.1,1.4-0.1c1.1,0,1.6-0.1,1.7-0.3c0-0.2-0.4-0.7-1.4-1.5c0,0,0,0-0.1-0.1c-0.5-0.4-0.8-0.6-1-0.6
	c-0.1,0-0.4,0.3-0.7,0.7c0,0-0.1,0.1-0.1,0.1c-0.4,0.5-0.7,0.8-0.9,0.9c-0.2,0-2.7,0-7.7,0c-5.2,0-8.3,0-9.3-0.1c-0.2,0-0.3,0-0.3,0
	c0,0,0.1,0.2,0.2,0.6c0,0,0,0.1,0,0.1c0.1,0.2,0.2,0.4,0.3,0.4c0.1,0,0.2,0,0.6,0c0.7-0.1,1.4-0.2,2.1-0.2c0.7,0,2.6,0,5.9,0
	c0.3,0,0.8,0,1.3,0c2.6,0,4.1,0,4.5,0c0.4,0,0.7,0.1,0.8,0.2l0,0c0.1,0.1,0.1,2.8,0.1,8.1c0,5.3,0,8-0.1,8.2
	c-0.1,0.2-0.3,0.3-0.6,0.4c-0.3,0-1.1,0-2.5-0.1c-0.8,0-1.3-0.1-1.4-0.1c-0.1,0-0.2,0.1-0.2,0.1c0,0.1,0.2,0.2,0.5,0.2
	c1.8,0.3,2.8,1,3,2.1l0,0C174.9,47.3,174.9,47.4,174.9,47.4z M163.2,42.6c0.3,0.2,0.7,0.1,1.3-0.1c0.5-0.3,0.8-0.6,0.8-0.9
	c0,0,0,0,0-0.1c-0.1-0.6-0.1-1,0-1.2c0-0.2,0.2-0.4,0.6-0.4c0.2,0,0.8-0.1,1.7-0.1c0,0,0.1,0,0.1,0c0,0,0.1,0,0.2,0
	c0.8,0,1.3,0,1.5,0c0.3,0,0.5,0.1,0.6,0.3c0,0.1,0.1,0.3,0,0.6v0.1c0,0.5,0.1,0.8,0.4,0.9c0.3,0.1,0.8,0,1.4-0.4l0,0
	c0.3-0.1,0.4-0.2,0.4-0.4s0-0.4,0-1c0-0.6-0.1-1.8-0.1-3.6c0-1.8,0-2.8,0-2.9c0.1-0.3,0.2-0.5,0.5-0.6c0.3-0.1,0.4-0.2,0.3-0.4
	s-0.2-0.4-0.6-0.7c-0.7-0.6-1.1-1-1.3-1.1c-0.2-0.1-0.4,0.1-0.7,0.4c0,0-0.1,0.1-0.1,0.2c-0.2,0.3-0.5,0.5-0.6,0.6
	c-0.2,0-0.7,0.1-1.6,0.1c-0.2,0-0.4,0-0.5,0s-0.3,0-0.5,0c-0.8,0-1.4,0-1.6,0c-0.2,0-0.6-0.2-1.1-0.4c-0.1,0-0.2-0.1-0.2-0.1
	c0,0-0.1-0.1-0.2-0.1c-0.4-0.2-0.7-0.3-0.8-0.3c-0.1,0-0.1,0.2,0,0.5c0,0.1,0,0.1,0,0.1c0.1,1.1,0.2,2.7,0.2,4.6
	c0,1.9,0,3.6-0.1,5.2c0,0.4,0,0.7,0,0.8C163,42.4,163.1,42.5,163.2,42.6z M167.6,39.1c-1.3,0-2,0-2.1-0.1c-0.1-0.1-0.2-0.3-0.3-0.6
	c0-0.3,0-1.2,0-2.6c0-0.2,0-0.5,0-0.9c0-0.8,0-1.3,0-1.6c0.1-0.3,0.2-0.5,0.5-0.6c0.2,0,0.6-0.1,1.2,0c0.3,0,0.5,0,0.7,0
	c0.2,0,0.4,0,0.7,0c0.6,0,1,0,1.2,0c0.2,0.1,0.4,0.3,0.5,0.6c0,0.2,0,0.7,0,1.6c0,0.4,0,0.7,0,0.9c0,1.5,0,2.4,0,2.6
	c0,0.3-0.1,0.5-0.2,0.6C169.6,39.1,168.9,39.1,167.6,39.1z M193.5,47.3c0,0.1,0.2,0.1,0.5,0c0.3-0.1,0.9-0.3,1.8-0.6
	c2.8-1.1,5.2-2.5,7.1-4.4c0.4-0.4,0.7-0.6,0.8-0.7c0.2-0.1,0.4-0.1,0.6,0.1c0.1,0.1,0.4,0.5,0.9,1.1c0.8,1.1,1.5,2.2,2,3.2
	c0.3,0.5,0.4,0.8,0.5,0.9c0.1,0.1,0.3,0.2,0.6,0.3c0.6,0.1,0.9-0.1,1.2-0.6c0.2-0.5,0.2-1.1-0.1-1.8c-0.5-1.3-1.8-2.6-3.8-3.6
	c-0.5-0.3-0.8-0.5-0.9-0.6c0-0.2,0-0.5,0.3-0.9c0.7-1.3,1.3-2.8,1.6-4.3c0.3-1.5,0.6-3.6,0.7-6.3c0-0.6,0-1,0.1-1.2
	c0.1-0.2,0.2-0.3,0.3-0.4c0.3-0.2,0.3-0.3,0-0.4c-0.3-0.1-1-0.2-2.1-0.4c-0.4,0-0.7-0.1-0.8,0c-0.1,0-0.1,0.1-0.1,0.1
	c0.1,0.3,0.1,1.4,0.1,3.2c-0.1,4.1-0.9,7.5-2.5,10.1c-1.6,2.6-4.3,4.8-8,6.6c-0.5,0.2-0.7,0.4-0.8,0.4
	C193.5,47.2,193.5,47.2,193.5,47.3z M189.3,45.5c0.1,0.1,0.2,0,0.3-0.1c0.2-0.2,0.4-0.4,0.6-0.5c0.2-0.1,0.8-0.4,1.6-0.9
	c1.8-0.9,3.5-1.8,5.1-2.7c1.6-1,2.5-1.5,2.5-1.6c0-0.1-0.1-0.1-0.3-0.1c-0.2,0-1,0.3-2.3,0.7c-1.4,0.4-2.2,0.7-2.5,0.8
	c-0.3,0.1-0.5,0.1-0.6,0c-0.1-0.1-0.2-0.5-0.2-1.1c0-0.7-0.1-2.7-0.1-5.9c0-0.3,0-0.8,0-1.4c0-1.9,0-3.2,0-3.7c0-0.7,0-1.2,0-1.4
	c0-0.1,0.1-0.3,0.2-0.3l0,0c0.2-0.2,0.2-0.3,0.1-0.4c-0.2-0.1-0.6-0.2-1.2-0.2c-0.9-0.1-1.3-0.1-1.3,0c0,0.1,0,2.6,0.1,7.3
	c0,0.3,0,0.6,0,1.1c0,3.3,0.1,5.3,0.1,5.9c0,0.6,0,0.9-0.1,1c-0.1,0.2-1,0.6-2.5,0.9c-0.4,0.1-0.5,0.1-0.5,0.2c0,0,0.2,0.4,0.5,1.2
	C189.1,45,189.3,45.4,189.3,45.5z M199.9,35.2c0.5,0.2,1,0,1.2-0.4c0.3-0.4,0.3-1,0-1.7c-0.5-1.4-1.9-2.6-4.2-3.5
	c-0.5-0.2-0.8-0.3-0.8-0.2c0,0.1,0.1,0.3,0.5,0.7c1.3,1.6,2.1,3,2.6,4.3C199.3,34.9,199.6,35.1,199.9,35.2z M220.8,47.5
	c0,0.1,0.3,0.1,0.8,0c0.5-0.1,0.9-0.2,1.2-0.4c0.5-0.3,0.9-0.8,1.2-1.6c0.3-0.8,0.5-2,0.6-3.5c0-0.4,0.1-0.6,0.2-0.7
	c0.1-0.2,0.2-0.3,0.5-0.4c0.3-0.1,0.4-0.3,0.3-0.4c0,0,0-0.1,0-0.1c0-0.1-0.3-0.3-0.8-0.7c-0.5-0.4-0.9-0.6-1-0.6
	c-0.1,0-0.3,0.2-0.5,0.5c-0.4,0.4-1,0.7-1.8,0.7c-0.7,0-1.1-0.2-1.2-0.6c0-0.1,0-0.5,0.1-1c0.1-0.5,0.2-0.8,0.3-0.9
	c0.2-0.2,0.7-0.3,1.3-0.2c0.7,0.1,1,0.2,1,0.5c0,0.3,0.4,0.4,1.2,0.1c0.4-0.1,0.6-0.2,0.7-0.3c0.1-0.1,0.1-0.4,0.1-0.8
	c-0.1-1.8,0-2.7,0.4-2.7c0.3,0,0.4-0.1,0.3-0.4c-0.1-0.3-0.3-0.6-0.7-1.1c-0.4-0.4-0.6-0.5-0.7-0.6s-0.3,0.1-0.5,0.4
	c-0.2,0.3-0.4,0.5-0.5,0.6c-0.1,0.1-0.4,0.1-0.6,0.1c-0.4,0-0.6-0.1-0.6-0.2s0.1-0.3,0.4-0.6c1.4-1.2,2.4-2.4,3.1-3.6
	c0.5-0.7,0.9-1.1,1-1.1c0.4,0,0.5-0.2,0.4-0.5c-0.2-0.3-0.6-0.8-1.3-1.3c-0.3-0.2-0.5-0.3-0.6-0.3c-0.1,0-0.3,0.2-0.7,0.5
	c-0.4,0.4-1,0.6-2,0.7c-0.9,0.1-2.2,0-3.9-0.1c-0.3,0-0.4,0-0.4,0c0,0,0.1,0.2,0.2,0.6c0,0,0,0.1,0,0.1c0.1,0.2,0.2,0.3,0.3,0.4
	c0.1,0,0.4,0,0.8,0c0.1,0,0.2,0,0.3,0c0.4,0,1-0.1,1.9-0.1c0.8,0,1.3,0,1.5,0c0.2,0.1,0.3,0.2,0.3,0.5c0,0.2-0.3,0.7-0.6,1.3
	c-0.4,0.6-0.6,0.9-0.8,1c-0.2,0.1-0.3,0-0.5-0.3c-0.3-0.6-0.9-1-1.8-1.3c-0.8-0.2-1.2-0.2-1.4-0.2c-0.2,0.1-0.1,0.3,0.3,0.6
	c0.3,0.3,0.6,0.7,0.8,1.1c0.3,0.4,0.4,0.7,0.4,0.8c0,0.1,0,0.1,0.1,0.2c0.1,0.1,0.2,0.1,0.3,0.1c0.3,0.1,0.4,0.2,0.4,0.4
	c0,0.2-0.3,0.5-0.7,0.8c-0.9,0.8-2,1.6-3.1,2.3c0,0-0.1,0-0.1,0.1c-0.2,0.1-0.4,0.2-0.4,0.3c0,0,0,0.1,0,0.1c0.1,0.2,1.1-0.1,3-1.1
	c0.7-0.3,1.4-0.5,2.2-0.6c0.8,0,1.3,0.1,1.4,0.4c0.1,0.1,0.1,0.5,0.1,1.1c0,0.6,0,1-0.1,1.1c-0.1,0.3-0.5,0.4-1,0.4
	c-0.5,0-1.2-0.3-2-0.7c-0.1,0-0.1-0.1-0.2-0.1c-0.4-0.2-0.7-0.3-0.8-0.3c-0.1,0-0.1,0.2-0.1,0.5c0,0,0,0.1,0,0.1
	c0,1.2-0.2,2.7-0.6,4.6c-0.1,0.4-0.1,0.6-0.1,0.6c0,0.1,0.2,0.1,0.4,0.1c0.4,0.1,0.8,0.1,1,0s0.4-0.2,0.5-0.4
	c0.1-0.3,0.2-0.4,0.4-0.5c0.2-0.1,0.6-0.1,1.2-0.1c0.7,0,1.1,0.1,1.2,0.2c0.1,0.1,0.1,0.6,0,1.4c-0.1,1-0.3,1.7-0.4,2.1
	c-0.2,0.4-0.5,0.7-0.8,0.8c-0.3,0.1-0.9,0.1-1.8,0c-0.6,0-0.9-0.1-1-0.1c-0.1,0-0.2,0-0.2,0.1c0,0.1,0.2,0.3,0.6,0.4
	c1.1,0.3,1.7,0.8,1.8,1.6C220.7,47.3,220.8,47.4,220.8,47.5z M223.9,47.4c0.2,0.1,0.8,0,2-0.4c1.2-0.4,2.3-0.8,3.2-1.2
	c0.1,0,0.2-0.1,0.3-0.1c0.5-0.2,0.8-0.4,0.9-0.3c0.2,0,0.5,0.2,1,0.5c0.1,0,0.1,0.1,0.2,0.1c1,0.6,2.1,1,3.5,1.4
	c0.3,0.1,0.5,0.1,0.6,0.1c0.1,0,0.1-0.1,0.2-0.3c0.3-0.8,0.7-1.3,1.3-1.7c0.3-0.1,0.4-0.2,0.3-0.3c-0.1-0.1-0.3-0.1-0.8-0.2
	c-1.1-0.1-2-0.3-2.8-0.5c-0.8-0.2-1.2-0.4-1.3-0.6c0-0.1,0-0.2,0-0.3c0.1-0.1,0.2-0.3,0.5-0.6c0.6-0.7,1-1.3,1.2-1.7
	c0.1-0.1,0.2-0.3,0.3-0.4c0.1-0.1,0.3-0.2,0.4-0.2c0.2-0.1,0.3-0.2,0.3-0.3c0-0.1-0.2-0.4-0.6-0.8c-0.4-0.4-0.6-0.7-0.6-0.8
	c0-0.1,0.3-0.2,0.9-0.3c0.6-0.1,1-0.2,1.2-0.3c0.2-0.1,0.4-0.3,0.4-0.6s0-0.5-0.2-0.7c-0.2-0.2-0.4-0.6-0.4-1c0-0.7-0.2-0.7-0.5,0
	c-0.2,0.4-0.5,0.8-0.9,1c-0.4,0.2-0.9,0.2-1.3-0.1c-0.2-0.1-0.3-0.5-0.4-1.1c0-0.7,0-1.1,0.1-1.3c0.2-0.3,0.4-0.4,0.6-0.4
	c0.2,0,0.7,0.2,1.2,0.6c0.8,0.4,1.2,0.6,1.3,0.6c0,0,0.1-0.1,0.2-0.3c0.1-0.3,0.3-0.6,0.6-0.9c0.3-0.3,0.5-0.5,0.8-0.6
	s0.4-0.2,0.3-0.3c-0.1-0.1-0.4-0.2-0.9-0.4c-1.6-0.6-2.6-1-3-1.3s-0.2-0.6,0.5-1c0.1,0,0.2-0.1,0.4-0.2c0.4-0.2,0.7-0.4,0.8-0.5
	c0.4-0.3,0.7-0.4,0.8-0.4c0.3,0,0.4-0.1,0.2-0.4c-0.2-0.2-0.7-0.6-1.5-1.2c0,0,0,0-0.1,0c-0.2-0.1-0.3-0.2-0.4-0.2
	c-0.1,0-0.2,0.2-0.3,0.5c0,0,0,0.1,0,0.1c-0.6,1.2-1.1,1.9-1.4,2.1s-0.8,0-1.4-0.5c-0.5-0.4-0.7-0.6-0.7-0.8c0-0.2,0.3-0.4,0.9-0.7
	c0.5-0.3,0.9-0.5,1.1-0.6c0.6-0.4,1-0.6,1.1-0.6c0.4,0,0.4-0.1,0.3-0.3c-0.2-0.2-0.6-0.6-1.4-1.2c-0.3-0.2-0.5-0.3-0.6-0.3
	c-0.1,0-0.2,0.2-0.3,0.5c-0.3,0.6-0.6,1.1-1,1.6c-0.4,0.5-0.7,0.7-0.8,0.7c-0.2,0-0.5-0.2-0.8-0.6c-0.4-0.4-0.7-1-1.1-1.7
	c-0.2-0.3-0.3-0.5-0.3-0.5c0,0-0.1-0.1-0.1,0c-0.3,0.1,0,1,0.7,2.5c0.8,1.5,1.5,2.7,2.3,3.5c0.4,0.4,0.5,0.7,0.6,0.9
	c0,0.2-0.1,0.4-0.5,0.7c-0.3,0.3-0.7,0.4-1.1,0.4c-0.4,0-1-0.2-1.7-0.6c-0.7-0.4-1.1-0.5-1.1-0.5c0,0,0,0.6,0,1.8
	c0,1.4-0.1,2.4-0.3,3c-0.2,0.6-0.5,1.2-1.1,1.8c-0.3,0.4-0.4,0.6-0.2,0.6c0.2,0,0.5-0.1,0.9-0.3c0.5-0.3,0.9-0.6,1.2-1
	c0.8-0.8,1.2-1.8,1.3-3.1c0-0.5,0.1-0.8,0.2-0.9c0.1-0.1,0.4-0.2,0.8-0.2c0.4,0,0.6,0,0.7,0.1c0.1,0.1,0.2,0.3,0.3,0.6
	c0,0.2,0,0.7,0,1.4c0,1.1,0.1,1.8,0.2,2.1c0.1,0.3,0.4,0.4,1,0.5c0.4,0.1,0.6,0.2,0.6,0.3c0.1,0.1,0,0.3-0.3,0.5
	c-0.3,0.2-1,0.4-2.2,0.4c-1.2,0-2.6,0-4.1-0.2c-0.2,0-0.3,0.1-0.2,0.2c0,0.1,0.1,0.2,0.1,0.3c0,0.1,0,0.2,0.1,0.2
	c0.1,0,0.1,0.1,0.2,0.2c0,0.1,0.1,0.1,0.1,0.1c0,0,0.1,0,0.1,0c0.5-0.3,0.8-0.1,1.2,0.6c0.3,0.7,0.7,1.4,1,1.9
	c0.2,0.3,0.4,0.6,0.4,0.7s0.1,0.2,0,0.3c-0.1,0.3-0.6,0.7-1.6,1.3c-0.9,0.6-1.9,1-2.9,1.4c-0.4,0.1-0.6,0.2-0.6,0.3
	C223.8,47.2,223.8,47.3,223.9,47.4z M230.4,42.8c-0.2,0.1-0.3,0.1-0.5,0c-0.2-0.1-0.4-0.3-0.8-0.7c-0.8-0.8-1.1-1.2-1-1.4
	c0.1-0.2,0.7-0.3,1.9-0.3c0.8,0,1.3,0,1.4,0.1c0.2,0,0.2,0.1,0.2,0.3c0,0.2-0.2,0.5-0.5,1C230.8,42.4,230.5,42.7,230.4,42.8z
	 M245.9,47.4c0.2,0.1,0.4,0.1,0.8,0c0.4-0.1,0.6-0.2,0.8-0.3c0.2-0.1,0.3-0.2,0.3-0.3c0-0.1,0.1-0.2,0-0.5c0-0.4,0-0.8,0.2-0.9
	c0.1-0.1,2.3-0.1,6.6-0.1c4.3,0,6.5,0,6.6,0.1c0.1,0.1,0.2,0.2,0.3,0.3c0,0.1,0,0.4,0,0.7c0,0.5,0.1,0.7,0.3,0.8
	c0.2,0.1,0.6,0.1,1.1-0.1c0.5-0.2,0.8-0.3,0.9-0.5c0.1-0.1,0.1-0.5,0.1-1.1c-0.2-4.4-0.2-6.8,0.2-7.1c0.2-0.2,0.2-0.3-0.1-0.5
	c-0.3-0.1-0.8-0.3-1.8-0.6c-0.4-0.1-0.7-0.2-0.8-0.2c-0.1,0-0.1,0.1-0.1,0.2c0.1,0.8,0.2,2.1,0.2,3.9c0,1.8,0,2.8-0.1,3
	c-0.1,0.1-0.3,0.2-0.5,0.3c-0.2,0-1,0-2.3,0c-0.3,0-0.6,0-1,0c-0.7,0-1.2,0-1.4-0.1c-0.3-0.1-0.4-0.4-0.5-0.8c0-0.3-0.1-1,0-2.2
	c0-0.7,0-1.2,0-1.6s0-0.9,0-1.6c0-1.2,0-2,0-2.3c0.1-0.4,0.2-0.7,0.4-0.8c0.2-0.1,0.5-0.1,1.2-0.1c0.3,0,0.6,0,0.8,0
	c0.9,0,1.4,0,1.7,0c0.3,0,0.5,0.1,0.6,0.2c0.1,0.1,0.1,0.2,0,0.5c0,0.4,0.2,0.5,0.6,0.6c0.4,0,0.9-0.1,1.4-0.4l0,0
	c0.1-0.1,0.2-0.2,0.2-0.3c0-0.1,0-0.6,0-1.4v-0.1c-0.1-2.1-0.1-3.5-0.1-4.2c0-0.7,0.1-1.2,0.3-1.3c0.2-0.2,0.2-0.3-0.1-0.5
	c-0.3-0.1-0.9-0.3-1.8-0.6c0,0-0.1,0-0.1,0c-0.4-0.1-0.6-0.1-0.6-0.1c0,0-0.1,0.2,0,0.5c0,0,0,0.1,0,0.1c0.1,1,0.2,2.2,0.2,3.6
	c0,1.4,0,2.2-0.1,2.4c-0.1,0.1-0.2,0.2-0.4,0.3c-0.2,0-0.8,0-1.9,0c-0.2,0-0.4,0-0.8,0c-0.6,0-1,0-1.2-0.1c-0.2-0.1-0.4-0.3-0.4-0.7
	c0-0.3-0.1-0.9,0-1.9c0-0.5,0-0.9,0-1.2c0-1.9,0-3,0-3.4c0-0.3,0.1-0.6,0.3-0.7c0.2-0.1,0.2-0.3-0.1-0.5c-0.3-0.2-1-0.4-1.9-0.6
	c0,0-0.1,0-0.1,0c-0.4-0.1-0.6-0.1-0.6-0.1c0,0-0.1,0.2,0,0.5c0,0,0,0.1,0,0.1c0.1,1,0.2,2.5,0.2,4.7c0,2.2,0,3.3-0.1,3.5
	c-0.1,0.2-0.2,0.3-0.4,0.3c-0.2,0-0.8,0-1.8,0c-0.2,0-0.4,0-0.7,0c-0.6,0-1,0-1.2,0c-0.2-0.1-0.4-0.3-0.4-0.6c0-0.2-0.1-0.7,0-1.5
	c0-0.3,0-0.6,0-0.8c0-1.3,0-2.1,0-2.4c0-0.3,0.1-0.4,0.3-0.6c0.2-0.1,0.2-0.3-0.1-0.5c-0.3-0.2-0.9-0.4-1.9-0.6
	c-0.3-0.1-0.5-0.1-0.6-0.1c-0.1,0-0.1,0-0.1,0.1c0.1,0.4,0.2,1.5,0.2,3.4c0,1.9,0,3.5-0.1,4.8c0,0.4,0,0.6,0.2,0.7
	c0.2,0.1,0.5,0.1,0.9,0c0.7-0.1,1.1-0.4,1.1-0.8c0-0.2,0.1-0.4,0.3-0.5c0.1-0.1,0.8-0.1,2-0.1c1.2,0,1.9,0,2,0.1
	c0.1,0.1,0.2,0.3,0.2,0.7c0,0.4,0,1.7,0,4c0,0.4,0,0.9,0,1.6c0,1.2,0,1.9,0,2.2c-0.1,0.4-0.2,0.7-0.5,0.8c-0.2,0.1-0.6,0.1-1.3,0.1
	c-0.4,0-0.7,0-1,0c-0.2,0-0.5,0-0.9,0c-0.7,0-1.2,0-1.4,0c-0.3-0.1-0.4-0.2-0.5-0.6c0-0.2-0.1-0.7,0-1.5c0-0.4,0-0.8,0-1
	c0-1.4,0-2.3,0-2.5c0-0.3,0.1-0.4,0.3-0.5c0.3-0.1,0.2-0.3-0.1-0.5c-0.3-0.2-1-0.4-2-0.6c-0.3-0.1-0.5-0.1-0.5-0.1c0,0,0,0.2,0,0.4
	v0.1c0.1,0.8,0.2,2.2,0.2,4.2c0,2,0,3.4,0,4.3c0,0.4,0,0.7,0,0.8C245.6,47.3,245.7,47.4,245.9,47.4z M274.9,47.4
	c0,0.1,0.3,0.1,0.9-0.1c0.6-0.1,1-0.3,1.2-0.5c0.3-0.2,0.6-0.4,0.6-0.7c0.1-0.3,0.2-0.8,0.2-1.6c0-0.6,0-1.8,0-3.6
	c0-1.7,0-2.8,0-3.1c0-0.4,0-0.6,0.1-0.7c0.1-0.1,0.2-0.3,0.4-0.4c0.2-0.1,0.8-0.5,1.7-1c0,0,0.1,0,0.2-0.1c0.8-0.5,1.3-0.8,1.4-0.8
	c0.1-0.1,0.2-0.2,0.2-0.2c0-0.1-0.1-0.1-0.3-0.1c-0.2,0-0.6,0.2-1.4,0.4c-0.1,0-0.2,0.1-0.4,0.1c-0.7,0.2-1.2,0.3-1.3,0.4
	c-0.3,0-0.4-0.1-0.5-0.3c0-0.2-0.1-0.6-0.1-1.2c0-0.1,0-0.3,0-0.3c0-0.1,0-0.3,0-0.6c0-0.8,0-1.2,0.2-1.3c0.1-0.1,0.6-0.2,1.3-0.2
	c0.2,0,0.4,0,0.5,0c0.8,0,1.4,0,1.6-0.1c0.3-0.1,0.4-0.2,0.3-0.4c-0.1-0.2-0.3-0.5-0.8-1c-0.1-0.1-0.3-0.3-0.5-0.6l-0.1-0.1
	c-0.3-0.4-0.6-0.2-1.1,0.6c-0.2,0.4-0.4,0.6-0.6,0.7c-0.2,0.1-0.3,0.1-0.5,0.1c-0.2-0.1-0.3-0.2-0.3-0.4c0-0.2,0-0.8,0-1.7
	c0-1,0-1.5,0-1.8c0-0.2,0.1-0.4,0.3-0.5c0.3-0.2,0.3-0.3,0-0.5c-0.3-0.2-0.9-0.4-1.9-0.6c0,0-0.1,0-0.1,0c-0.4-0.1-0.6-0.1-0.6-0.1
	c0,0-0.1,0.2,0,0.5c0,0,0,0.1,0,0.1c0.3,3.1,0.3,4.7-0.2,4.9c-0.1,0.1-0.6,0.1-1.6,0c-0.9,0-1.5-0.1-1.8-0.1c-0.2,0-0.2,0.1,0.1,0.6
	c0,0,0,0.1,0.1,0.1c0.1,0.2,0.2,0.3,0.2,0.4c0.1,0,0.2,0,0.5,0c0.1,0,0.1,0,0.2,0c0.8-0.2,1.4-0.2,1.9-0.2c0.5,0,0.8,0.2,0.8,0.4
	c0,0.1,0,0.8,0,2c0,1.2,0,1.8,0,2c-0.1,0.2-0.3,0.4-0.7,0.6c-0.4,0.2-1.3,0.4-2.8,0.8l0,0c-0.3,0.1-0.5,0.1-0.6,0.2c0,0,0,0.1,0,0.2
	c0,0.1,0.2,0.5,0.4,1.2c0.2,0.6,0.3,1,0.4,1c0.1,0.2,0.2,0.1,0.4,0c0.2-0.2,0.4-0.4,0.6-0.6c0.2-0.2,0.7-0.4,1.3-0.7c0,0,0,0,0.1,0
	c0.4-0.2,0.7-0.3,0.8-0.2c0.1,0,0.2,0.3,0.3,0.7c0,0.3,0,1.1,0,2.3c0,0.1,0,0.2,0,0.2c0,0.2,0,0.4,0,0.7c0,0.9,0,1.5-0.1,1.7
	c-0.1,0.3-0.2,0.5-0.5,0.6c-0.2,0-0.6,0-1.4,0c-0.2,0-0.4,0-0.6,0c-0.7,0-1,0-1,0c0,0.1,0,0.1,0,0.2c0.1,0,0.2,0.1,0.5,0.2
	c0.6,0.2,1.1,0.4,1.4,0.7c0.3,0.3,0.5,0.8,0.6,1.4c0,0,0,0.1,0,0.1C274.8,47.3,274.9,47.4,274.9,47.4z M285.6,47.3c0,0,0.3,0,0.8,0
	c0.7-0.1,1.2-0.3,1.6-0.6c0.4-0.3,0.7-0.7,0.8-1.2c0.1-0.2,0.1-0.6,0.1-1.3c0-0.7,0-3,0-7c0-5.2,0-7.9,0.1-8
	c0.1-0.1,0.2-0.2,0.4-0.2c0.2,0,0.8-0.1,1.8-0.1c1,0,1.6,0,1.8-0.1c0.2,0,0.4-0.1,0.4-0.2c0-0.2-0.3-0.6-1-1.3
	c-0.7-0.7-1.2-0.9-1.3-0.9c-0.1,0-0.3,0.3-0.7,0.9c0,0.1-0.1,0.2-0.2,0.3c-0.2,0.2-0.3,0.4-0.4,0.4c-0.2,0.1-0.5,0.2-0.9,0.2
	c-0.3,0-1,0-2.2,0c-0.5,0-0.9,0-1.1,0c-3.3,0-5.2,0-5.6-0.1c-0.1,0-0.1,0.1,0,0.4c0.1,0.3,0.2,0.6,0.4,0.7c0,0,0.2,0,0.6-0.1
	c0.8-0.1,1.9-0.2,3.3-0.2c1.4,0,2.2,0,2.4,0.1c0.1,0.1,0.2,0.5,0.2,1.2c0,0.6,0,2.9,0,6.7c0,0.3,0,0.7,0,1.2c0,2.3,0,3.8,0,4.4
	c0,0.9,0,1.4-0.1,1.7c0,0.2-0.1,0.3-0.2,0.3c0,0-0.1,0-0.1,0c-0.2,0.1-1.2,0.1-3.1,0c-0.7,0-1,0-1.1,0c0,0,0,0.1,0,0.2
	c0,0.1,0.1,0.1,0.2,0.1c1.1,0.2,1.8,0.4,2.3,0.7c0.5,0.3,0.7,0.8,0.8,1.5C285.6,47.2,285.6,47.2,285.6,47.3z M308.5,47.5
	c0,0,0.1,0.1,0.2,0c0.1,0,0.2,0,0.4,0c0.9-0.1,1.6-0.4,1.9-0.8c0.4-0.4,0.6-1.1,0.6-2c0-0.5,0.1-0.9,0.1-1l0,0
	c0-0.1,0.2-0.2,0.5-0.2c0.3,0,1.4,0,3.2,0c0.4,0,0.7,0,0.9,0c2.2,0,3.5,0,3.9,0c0.4,0,0.6-0.1,0.7-0.2c0.1-0.2-0.3-0.7-1.2-1.4
	c-0.3-0.2-0.5-0.4-0.5-0.5c0-0.1,0-0.2,0.1-0.4c0.4-0.2-0.1-0.8-1.4-1.7c-0.3-0.2-0.5-0.3-0.6-0.3c-0.1,0-0.3,0.2-0.6,0.6
	c0,0,0,0-0.1,0.1c-0.3,0.3-0.5,0.5-0.7,0.6c-0.2,0-0.8,0.1-1.8,0.1c-0.1,0-0.1,0-0.2,0c-0.8,0-1.4,0-1.6,0c-0.3,0-0.5-0.1-0.6-0.2
	c-0.1-0.1-0.1-0.3-0.1-0.6c0-0.4,0.1-0.6,0.2-0.7c0.1-0.1,0.5-0.2,1.2-0.3c0.2,0,0.7-0.1,1.3-0.1c0.2,0,0.3,0,0.4,0
	c0.7-0.1,1.3-0.1,1.7-0.1c0.3,0,0.4,0,0.4-0.1c0-0.1-0.1-0.3-0.4-0.6c-0.7-0.9-1.2-1.3-1.3-1.3c0,0-0.1,0-0.2,0
	c-0.3,0.1-0.5,0.1-0.6,0.2c-1.2,0.3-2.2,0.6-3.2,0.7c-0.9,0.2-1.4,0.2-1.5,0.1c0,0-0.1-0.1-0.1-0.2c0-0.1,0-0.1,0-0.1
	c0,0,0-0.3,0-0.7c0-0.4,0-0.8,0-0.9c0-0.2,0.2-0.3,0.3-0.5l0,0l0.2-0.1c0,0-0.1-0.1-0.2-0.2c-0.2-0.1-0.2-0.2-0.1-0.3
	c0.1-0.1,0.4-0.2,0.7-0.2c0.5,0,0.7-0.1,0.7-0.2c0-0.1-0.1-0.3-0.5-0.6c0,0-0.1-0.1-0.1-0.1c-0.4-0.3-0.6-0.6-0.7-0.7
	c-0.1-0.2-0.1-0.6-0.1-1.3c0-0.1,0-0.2,0-0.2c0-0.7,0-1.2,0-1.3c0-0.2,0.2-0.3,0.3-0.5c0.2-0.1,0.2-0.2,0.2-0.3
	c0-0.1-0.1-0.2-0.2-0.4c-0.3-0.4-0.5-0.6-0.5-0.7c0-0.1,0.2-0.2,0.6-0.3c0.9-0.1,0.7-0.6-0.6-1.6c-0.3-0.2-0.6-0.3-0.7-0.3
	c-0.1,0-0.3,0.2-0.6,0.6c-0.3,0.3-0.5,0.5-0.8,0.6c-0.3,0.1-0.6,0.1-0.8,0c-0.2-0.1-0.3-0.2-0.3-0.4c0-0.2,0.1-0.3,0.2-0.5
	c0.2-0.1,0.2-0.3-0.1-0.4c-0.2-0.1-0.8-0.2-1.6-0.3c0,0-0.1,0-0.1,0c-0.2,0-0.4,0-0.4,0c0,0,0,0.2,0,0.6c0,0,0,0.1,0,0.1v0
	c0,0.4-0.1,0.7-0.2,0.8c-0.1,0.1-0.5,0.1-1.2,0.1c-0.5,0-1,0-1.7,0c-0.6,0-1-0.1-1.1-0.1c-0.1,0-0.2,0.1,0,0.4
	c0.1,0.3,0.3,0.5,0.5,0.7c0.4,0.4,0.5,1.9,0.3,4.5c0,0.5-0.1,0.8-0.1,0.9c-0.1,0.1-0.3,0.1-0.6,0.1c-0.3,0-0.4,0-0.4,0.1
	c0,0,0.1,0.2,0.2,0.6c0.1,0.2,0.2,0.4,0.2,0.4c0,0,0.1,0,0.2,0c0.3,0,0.5,0.1,0.6,0.3c0.1,0.2,0.1,0.7,0.1,1.6c0,0.2,0,0.4,0,0.7
	c0,0.6,0.1,0.9,0.1,1c0.2,0.1,0.6,0.1,1,0s0.7-0.3,0.7-0.5c0-0.1,0-0.1,0.1-0.2c0.1-0.1,0.2-0.2,0.3-0.2c0.1-0.1,0.8-0.1,2.1,0
	c1.3,0,2,0.1,2.1,0.1c0.2,0.1,0.3,0.2,0.3,0.3c0,0.1,0,0.3-0.1,0.3c-0.3,0.2-1.8,0.4-4.6,0.7c-0.3,0-0.5,0-0.6,0.1
	c-0.1,0-0.1,0.1-0.1,0.2c0.1,0.2,1.6,0.2,4.7,0.1c1.2,0,1.9,0,2,0c0.2,0.1,0.3,0.4,0.3,0.7c0,0.3-0.1,0.6-0.3,0.7
	c-0.2,0.1-1.2,0.1-3.2,0.1c-2,0-3.3-0.1-4.1-0.2c-0.3,0-0.4,0-0.5,0c0,0,0.1,0.2,0.2,0.5c0,0,0,0,0,0.1c0.1,0.2,0.2,0.4,0.3,0.4
	c0.1,0,0.3,0,0.6,0c0.1,0,0.1,0,0.2,0c0.9-0.1,2.2-0.2,3.8-0.2c1.6,0,2.5,0,2.7,0.1c0.2,0.1,0.3,0.4,0.3,0.8c0,0.4-0.1,0.6-0.4,0.7
	c-0.1,0.1-1.6,0.1-4.2,0.1c-2.7,0-4.3-0.1-4.8-0.2c-0.1,0-0.2,0-0.2,0.1s0.1,0.2,0.2,0.5c0,0,0,0.1,0.1,0.1c0.1,0.2,0.2,0.3,0.3,0.4
	c0.1,0,0.3,0,0.6,0c0.1,0,0.2,0,0.2,0c1.1-0.1,2.7-0.2,4.9-0.2c0.1,0,0.1,0,0.2,0c1.2,0,2,0,2.3,0c0.4,0,0.7,0.1,0.8,0.2
	c0.1,0.1,0.1,0.3,0.1,0.6c0,0,0,0.1,0,0.1c0,0.3-0.1,0.5-0.1,0.6c-0.1,0.1-0.3,0.2-0.6,0.2c-0.3,0-0.8,0-1.6,0
	c-0.9-0.1-1.4-0.1-1.4,0c-0.1,0.1,0.1,0.2,0.5,0.3c0.7,0.1,1.2,0.3,1.6,0.6c0.4,0.3,0.6,0.7,0.7,1.2
	C308.4,47.4,308.5,47.5,308.5,47.5z M314.6,42.8c-1.7,0-2.6,0-2.7-0.1c-0.2-0.1-0.3-0.4-0.4-0.8c0-0.4,0.1-0.7,0.3-0.8
	C312,41,313,41,315,41c2,0,3.1,0.1,3.2,0.1c0.2,0.1,0.1,0.3-0.1,0.7c-0.2,0.4-0.5,0.7-0.8,0.8C317.2,42.7,316.3,42.8,314.6,42.8z
	 M319.2,37.2c0.3,0.1,0.5,0.1,0.5,0.1c0,0,0.1-0.1,0.2-0.3c0.2-0.7,0.6-1.1,1.1-1.3c0.3-0.2,0.3-0.3-0.1-0.4c-1.5-0.2-2.5-0.4-3-0.5
	c-0.6-0.2-0.9-0.3-0.9-0.6c0-0.2,0.2-0.5,0.6-0.9c0.4-0.4,0.7-0.8,0.9-1c0.2-0.2,0.4-0.3,0.6-0.4c0.2-0.1,0.3-0.1,0.3-0.2
	c0-0.1-0.1-0.3-0.3-0.5c-0.3-0.3-0.4-0.5-0.4-0.6s0.3-0.2,0.7-0.3c0.6-0.1,1.1-0.3,1.3-0.6c0.2-0.3,0.2-0.6-0.1-1
	c-0.2-0.2-0.3-0.5-0.4-0.9c0-0.6-0.2-0.6-0.4,0c-0.1,0.4-0.4,0.7-0.7,0.8c-0.4,0.2-0.7,0.2-1,0c-0.2-0.1-0.3-0.4-0.3-0.8
	c0-0.4,0.2-0.7,0.4-0.8c0.2-0.1,0.3-0.2,0.2-0.3c-0.1-0.1-0.3-0.4-0.7-0.8c-0.4-0.4-0.7-0.6-0.8-0.6c-0.1,0-0.3,0.1-0.6,0.5
	c-0.4,0.5-0.8,0.7-1.2,0.7c-0.5,0-1.2-0.2-2.1-0.6c-0.1,0-0.2-0.1-0.3-0.1c-0.3-0.2-0.5-0.2-0.6-0.1c0,0.1-0.1,0.3-0.1,0.8
	c0,0.2,0,0.3,0,0.5c0,1-0.1,1.8-0.3,2.4c-0.2,0.5-0.5,1-1,1.4c-0.2,0.1-0.3,0.3-0.2,0.4c0,0.1,0.1,0.1,0.3,0.1
	c0.2,0,0.4,0.1,0.6,0.6c0.2,0.3,0.3,0.4,0.4,0.3c0.1-0.1,0.3-0.1,0.5,0c0.2,0.1,0.4,0.3,0.6,0.6c0.1,0.3,0.3,0.5,0.6,0.9
	c0.4,0.5,0.4,0.9,0,1.3c-0.3,0.3-1.1,0.7-2.4,1.2c-0.4,0.1-0.6,0.3-0.6,0.3c0,0.2,0.1,0.2,0.4,0.2c1.1-0.2,2.2-0.5,3.3-0.9
	c0.4-0.2,0.7-0.2,0.9-0.2c0.2,0,0.4,0.1,0.7,0.3c1,0.6,2.1,1.1,3.5,1.6C319.1,37.2,319.1,37.2,319.2,37.2z M307.5,36.2
	c-0.3,0.2-0.6,0.2-0.8,0c-0.2-0.2-0.4-0.6-0.4-1.1c0-0.5,0.1-0.8,0.3-1c0.2-0.2,0.5-0.2,0.8,0c0.2,0.1,0.3,0.4,0.3,1
	C307.8,35.7,307.7,36.1,307.5,36.2z M304.1,36.3c-0.2,0.1-0.5,0.1-0.7,0c-0.2-0.1-0.3-0.2-0.4-0.4c0-0.2,0.1-0.3,0.3-0.5
	c0.2-0.1,0.2-0.2,0.2-0.3c0-0.1-0.2-0.2-0.5-0.3c-0.9-0.4-0.8-0.7,0.4-0.7c0.5,0,0.8,0.1,0.9,0.2c0.1,0.1,0.2,0.5,0.1,1
	C304.4,35.9,304.3,36.2,304.1,36.3z M308.2,33.4c-0.5,0.2-0.9,0.2-1.4,0c-0.4-0.2-0.6-0.5-0.3-0.8c0.1-0.2,0.4-0.2,0.8-0.2
	c0.4,0,0.6,0.1,0.7,0.3c0,0.1,0.1,0.1,0.2,0.2c0.1,0,0.2,0.1,0.2,0.2C308.4,33.2,308.3,33.3,308.2,33.4z M304.1,33.4
	c-0.2,0.1-0.5,0.2-1,0.1c-0.5,0-0.8-0.1-0.8-0.3c0-0.1,0.1-0.2,0.3-0.4c0.2-0.2,0.4-0.3,0.5-0.4c0.3-0.1,0.6-0.1,0.8,0
	s0.4,0.2,0.5,0.4S304.4,33.2,304.1,33.4z M315.3,33.2c-0.2,0.1-0.4,0.2-0.5,0.1c-0.2,0-0.4-0.2-0.6-0.4c-0.7-0.5-0.9-0.9-0.6-1.1
	c0.1-0.1,0.4-0.1,1.1-0.1c0.7,0,1.1,0,1.2,0c0.2,0.1,0.2,0.3,0.1,0.6C315.8,32.8,315.6,33,315.3,33.2z M307.8,31.6
	c-0.2,0.2-0.5,0.2-0.8,0.2s-0.6-0.2-0.6-0.5c0-0.4,0.3-0.6,0.8-0.6c0.4,0,0.6,0.1,0.7,0.3C308,31.2,308,31.4,307.8,31.6z
	 M304.1,31.7c-0.2,0.1-0.4,0.1-0.7,0.1c-0.3,0-0.5-0.1-0.5-0.2c-0.1-0.3-0.1-0.5,0.2-0.6c0.3-0.2,0.6-0.2,0.9-0.1
	c0.2,0.1,0.3,0.2,0.4,0.4C304.4,31.4,304.3,31.6,304.1,31.7z M314.9,31.1c-0.8,0-1.5,0-2,0c-0.5,0-0.9-0.1-1-0.2
	c-0.1-0.1,0-0.3,0.2-0.5c0.5-0.4,0.9-0.9,1.2-1.2c0.2-0.4,0.4-0.8,0.5-1.4c0.1-0.3,0.2-0.6,0.3-0.6c0.1-0.1,0.4-0.1,0.8-0.1
	c0.5,0,0.8,0.1,0.9,0.2c0.1,0.1,0.2,0.6,0.2,1.3c0,0.6,0,1,0.1,1.2c0.1,0.2,0.2,0.3,0.4,0.5c0.3,0.1,0.4,0.3,0.4,0.5
	c0,0.2-0.2,0.3-0.5,0.4C316.3,31.1,315.8,31.1,314.9,31.1z M307.6,30c-0.2,0.1-0.4,0.1-0.7,0c-0.3,0-0.4-0.1-0.5-0.3
	c-0.1-0.3-0.1-0.5,0.2-0.6c0.3-0.2,0.6-0.2,1-0.1c0.2,0.1,0.3,0.2,0.3,0.4C307.9,29.8,307.8,29.9,307.6,30z M304.2,29.9
	c-0.1,0.1-0.3,0.2-0.6,0.2c-0.3,0-0.5-0.1-0.6-0.2c-0.2-0.2-0.2-0.4,0-0.5c0.1-0.2,0.4-0.3,0.7-0.3c0.3,0,0.6,0.1,0.7,0.3
	S304.4,29.7,304.2,29.9z M307.6,28.4c-0.4,0.1-0.7,0.1-1,0c-0.3-0.2-0.4-0.4-0.2-0.6c0.1-0.2,0.4-0.3,0.8-0.3c0.5,0,0.7,0.1,0.8,0.2
	c0,0.1,0,0.2-0.1,0.4C307.9,28.2,307.8,28.3,307.6,28.4z M304.1,28.3c-0.3,0.1-0.7,0.1-1.3,0c-0.6-0.2-0.9-0.3-0.9-0.6
	c0-0.1,0.3-0.2,0.8-0.3c0.5-0.1,1-0.1,1.2,0c0.2,0.1,0.3,0.2,0.4,0.4C304.4,28.1,304.3,28.2,304.1,28.3z M36.1,71.5
	c0.2,0.1,0.4,0.1,0.7,0c0.3,0,0.6-0.1,0.9-0.2l0,0c0.2-0.1,0.3-0.2,0.4-0.3c0-0.1,0-0.4,0-0.9c0-0.1,0-0.1,0-0.2
	c0-0.7,0-1.1,0.1-1.3c0.1-0.1,0.4-0.3,1-0.4h0c1.3-0.2,2.1-0.3,2.4-0.4c0.3-0.1,0.4-0.2,0.4-0.3c0-0.1-0.1-0.1-0.2-0.1
	c-0.1,0-0.6,0-1.5,0h0c-0.2,0-0.4,0-0.6,0c-0.6,0-1,0-1.2,0c-0.2-0.1-0.4-0.2-0.4-0.6c0-0.2-0.1-0.7,0-1.6c0-0.4,0-0.7,0-0.9
	c0-0.2,0-0.5,0-0.9c0-0.8,0-1.3,0-1.5c0-0.3,0.2-0.5,0.4-0.6c0.1,0,0.5-0.1,1-0.1c0.2,0,0.4,0,0.6,0c1,0,1.5,0,1.7-0.1
	c0.2-0.1,0.1-0.2-0.1-0.5c-0.3-0.3-0.3-0.7-0.1-1.2c0.2-0.5,0.5-0.9,0.9-1.1c0.4-0.2,0.4-0.4-0.2-0.4C40.1,58,39,57.8,39,57.4
	c0-0.1,0.2-0.5,0.7-1c0.5-0.5,0.8-0.8,1-0.9c0.2,0,0.3-0.1,0.3-0.2s-0.1-0.3-0.3-0.5c-0.2-0.2-0.3-0.4-0.2-0.5
	c0.1-0.1,0.3-0.2,0.6-0.2c0.4-0.1,0.7-0.1,0.8-0.2c0.2-0.1,0.3-0.2,0.4-0.3c0.1-0.2,0.1-0.3,0.1-0.5c0-0.2-0.1-0.3-0.2-0.4
	c-0.2-0.1-0.4-0.4-0.4-0.9c0-0.3-0.1-0.5-0.1-0.5c-0.1,0-0.2,0.1-0.3,0.4c-0.1,0.4-0.3,0.6-0.4,0.7c-0.2,0.1-0.4,0.2-0.7,0.2
	c-0.5,0-0.8-0.2-0.8-0.6c-0.1-0.4,0.1-0.7,0.6-1c0.3-0.2,0-0.6-0.8-1.3c-0.3-0.3-0.5-0.4-0.6-0.4c-0.1,0-0.3,0.2-0.6,0.5
	c-0.4,0.4-0.8,0.7-1.3,0.7c-0.5,0-1.2-0.2-2.1-0.6c-0.1,0-0.2-0.1-0.3-0.1c-0.4-0.2-0.6-0.3-0.7-0.2c0,0-0.1,0.3-0.1,0.7
	c0,0.1,0,0.3,0,0.3c0,1-0.1,1.8-0.3,2.3c-0.2,0.5-0.5,1-1.1,1.4c-0.2,0.1-0.2,0.2-0.2,0.4s0.1,0.2,0.3,0.1c0.2,0,0.4,0.1,0.6,0.5
	c0.1,0.1,0.1,0.2,0.2,0.3c0,0,0.1,0,0.2-0.1c0.1-0.1,0.3-0.1,0.5,0c0.2,0.1,0.4,0.3,0.6,0.6c0.2,0.3,0.5,0.7,1,1.2
	c0.2,0.3,0.1,0.7-0.6,1.1c-0.6,0.4-1.5,0.8-2.8,1.2c-0.4,0.1-0.6,0.2-0.6,0.3c-0.1,0,0,0.1,0.1,0.2c0.1,0.1,0.7,0,1.8-0.3
	c1.1-0.3,2-0.6,2.7-0.9c0.4-0.2,0.7-0.3,0.9-0.3c0.2,0,0.6,0.2,1.2,0.4c0.6,0.3,1,0.5,1.1,0.7c0.1,0.2,0,0.4-0.3,0.7
	c-0.1,0.1-0.5,0.2-1.1,0.2s-2.6,0-6.1,0c-0.1,0-0.4,0-0.6,0c-2.5,0-4.1,0-4.9,0c-1.2,0-2,0-2.5-0.1c-0.4-0.1-0.7-0.2-0.7-0.3
	c0-0.1,0.1-0.2,0.3-0.5c0,0,0.1-0.1,0.1-0.1c0.3-0.4,0.5-0.6,0.6-0.8c0,0,0-0.1,0.1-0.1c0.2-0.3,0.4-0.5,0.6-0.6
	c0.2,0,0.9-0.1,1.9-0.1c0.2,0,0.3,0,0.5,0c0.9,0,1.5,0,1.8,0c0.4,0,0.6,0.1,0.7,0.1c0.1,0.1,0.1,0.2,0.1,0.4c0,0.2,0.1,0.3,0.2,0.3
	c0.2,0,0.4,0,0.9-0.2c0.4-0.1,0.6-0.2,0.7-0.4c0.1-0.1,0.1-0.5,0.1-1.1c0,0,0-0.1,0-0.1c0-0.7,0-1.1,0-1.2c0-0.1,0.1-0.3,0.3-0.4
	l0,0c0.2-0.1,0.3-0.3,0.3-0.4s-0.3-0.4-0.6-0.7c-0.5-0.5-0.6-0.8-0.1-0.8c0.3-0.1,0.5-0.2,0.4-0.4c0-0.2-0.2-0.5-0.6-0.9
	c-0.4-0.4-0.6-0.6-0.6-0.7c0-0.1,0.3-0.2,0.9-0.2c0.6,0,0.9-0.2,0.9-0.4c0-0.3-0.4-0.6-1.1-1.2c-0.3-0.3-0.5-0.4-0.6-0.4
	s-0.3,0.2-0.5,0.5c-0.3,0.4-0.5,0.6-0.7,0.7c-0.2,0.1-0.5,0.1-0.8,0c-0.2,0-0.3-0.1-0.4-0.2c0-0.1,0-0.3,0.1-0.4
	c0.2-0.1,0.1-0.3-0.1-0.4s-0.8-0.3-1.7-0.6c0,0-0.1,0-0.1,0c-0.3-0.1-0.4-0.1-0.5,0c0,0,0,0.2,0,0.5c0,0.1,0,0.1,0,0.1
	c0,0.4,0,0.7-0.2,0.9c-0.1,0.2-0.5,0.2-0.9,0.3c-0.4,0-1.2,0-2.3-0.1c-0.4,0-0.7,0-0.8,0c-0.1,0-0.2,0-0.2,0.1
	c0,0.1,0.1,0.2,0.2,0.5c0,0,0,0.1,0.1,0.1c0.1,0.2,0.2,0.3,0.3,0.3c0.1,0,0.3,0,0.6-0.1c0.1,0,0.1,0,0.2,0c0.5-0.1,1-0.1,1.6-0.1
	c0.6,0,1,0,1.1,0.1c0.2,0.1,0.3,0.4,0.3,0.7c0,0.3-0.1,0.5-0.3,0.6c-0.1,0.1-0.6,0.1-1.5,0.1c-0.9,0-1.5-0.1-1.7-0.1
	c-0.2,0-0.1,0.1,0,0.5c0.4,0.8,0.4,2,0.2,3.6c-0.2,1.6-0.6,2.7-1.2,3.4c-0.1,0.2-0.2,0.3-0.2,0.4c0,0.1,0.2,0.1,0.4,0
	c0.3-0.1,0.5,0,0.7,0.4c0.1,0.2,0.2,0.3,0.3,0.3c0.1,0,0.2,0,0.5,0c0.6-0.2,1.2-0.2,1.8-0.2c0.5,0,0.9,0.1,1,0.3
	c0.1,0.1,0.1,1.1,0.1,3c0,1.9,0,2.9-0.1,3c-0.1,0.1-0.4,0.2-0.8,0.3c-0.4,0-1.3,0.1-2.7,0.1c0,0-0.1,0-0.2,0c-0.3,0-0.4,0-0.4,0.1
	c0,0.1,0.1,0.4,0.3,0.8c0,0.1,0.1,0.3,0.1,0.3c0,0.1,0.1,0.2,0.1,0.3c0.2,0.6,0.4,0.9,0.4,1c0.1,0.1,0.2,0.1,0.3,0
	c0,0,0.1-0.1,0.1-0.1c0.2-0.1,0.5-0.2,0.8-0.3c0.4-0.1,1.4-0.2,3.2-0.4c3-0.3,5.6-0.6,7.5-0.9c0.6-0.1,1,0,1.1,0.1
	c0.1,0.1,0.2,0.6,0.1,1.3c0,0.5,0,0.8,0,0.9C36,71.4,36,71.5,36.1,71.5z M29.4,67.9c-0.4,0-0.7,0-0.8,0c-0.1,0-0.1-0.1-0.2-0.1
	c-0.2,0-0.3-0.2-0.2-0.7c0.1-0.5,0.2-0.7,0.4-0.8c0.1-0.1,1.3-0.1,3.6-0.1s3.4,0,3.6,0.1c0.2,0.1,0.3,0.3,0.4,0.6s-0.1,0.5-0.3,0.7
	c-0.1,0.1-1.3,0.2-3.6,0.2c-0.4,0-0.9,0-1.7,0C29.9,67.9,29.5,67.9,29.4,67.9z M32.1,65.5c-2.3,0-3.5,0-3.7-0.1
	c-0.2-0.1-0.3-0.4-0.3-0.7c0-0.4,0.2-0.6,0.4-0.7c0.1,0,1.3-0.1,3.6-0.1c2.3,0,3.4,0,3.6,0.1c0.2,0.1,0.4,0.3,0.4,0.7
	c0,0.4-0.1,0.6-0.3,0.7C35.6,65.4,34.4,65.5,32.1,65.5z M32.1,63.2c-2.3,0-3.5,0-3.7-0.1c-0.2-0.1-0.3-0.4-0.3-0.8
	c0-0.4,0.2-0.7,0.4-0.8c0.1-0.1,1.3-0.1,3.6-0.1c2.3,0,3.5,0,3.6,0.1c0.2,0.1,0.3,0.4,0.3,0.8c0,0.4-0.1,0.6-0.3,0.8
	C35.6,63.1,34.4,63.2,32.1,63.2z M29.1,57.6c-0.4,0.2-0.7,0.2-1,0c-0.3-0.2-0.4-0.5-0.4-0.9c0-0.4,0.1-0.8,0.4-0.9
	c0.3-0.2,0.6-0.2,1,0c0.3,0.1,0.4,0.4,0.4,0.9C29.5,57.2,29.4,57.4,29.1,57.6z M25.8,57.6c-0.2,0.1-0.4,0.1-0.7,0.1
	c-0.3,0-0.5-0.1-0.5-0.3c0-0.1-0.1-0.3-0.1-0.6c0-0.4,0-0.6,0.1-0.7c0.1-0.2,0.2-0.3,0.5-0.3c0.3-0.1,0.5,0,0.7,0.1
	c0.2,0.1,0.4,0.4,0.4,0.9C26.1,57.1,26,57.4,25.8,57.6z M36.9,56.8c-0.3,0.1-0.7,0-1.2-0.4c-0.5-0.4-0.7-0.7-0.6-0.9
	c0.1-0.1,0.5-0.2,1.2-0.2c0.8,0,1.2,0,1.3,0.2c0.1,0.1,0.1,0.3,0,0.6C37.4,56.4,37.2,56.7,36.9,56.8z M27,55c-1.4,0-2.1,0-2.3-0.1
	c-0.6-0.2-0.9-0.4-0.9-0.6c0-0.2,0.2-0.3,0.7-0.4c0.3,0,1.2-0.1,2.6-0.1s2.3,0,2.4,0c0.2,0.1,0.3,0.2,0.2,0.5
	c-0.1,0.2-0.2,0.4-0.5,0.6C29.1,55,28.3,55,27,55z M36.3,54.7c-1.1,0-1.8,0-2,0c-0.3,0-0.5-0.1-0.5-0.3c0-0.1,0.1-0.3,0.4-0.6
	c0.7-0.6,1.2-1.3,1.3-2.1c0-0.3,0.2-0.5,0.3-0.6s0.5-0.1,0.9-0.1c0.5,0,0.8,0.1,0.9,0.2c0.1,0.1,0.2,0.5,0.2,1.1
	c0,0.6,0.1,0.9,0.1,1.1c0,0.2,0.1,0.3,0.3,0.5c0.4,0.4,0.3,0.6-0.1,0.8C38,54.7,37.4,54.7,36.3,54.7z M29,53
	c-0.3,0.2-0.6,0.2-0.8-0.1c-0.2-0.3-0.3-0.6-0.1-0.9c0.1-0.2,0.4-0.3,0.9-0.4c0.5,0,0.8,0,0.9,0.2c0,0.1,0,0.3-0.2,0.6
	C29.3,52.8,29.1,53,29,53z M53.4,71.4c0.3,0.2,0.7,0.1,1.3-0.1c0.6-0.2,0.8-0.5,0.8-0.8c0,0,0-0.1,0-0.2c0-0.2,0-0.4,0.1-0.5
	c0.1-0.1,0.4-0.2,1-0.2c0.4,0,1.2,0,2.6,0c0.3,0,0.5,0,0.7,0c0.2,0,0.5,0,0.9,0c1.3,0,2.1,0,2.5,0c0.5,0,0.8,0.1,0.9,0.2
	c0.1,0.1,0.1,0.3,0.1,0.5c0,0.1,0,0.1,0,0.2c0,0.4,0,0.6,0.2,0.7c0.2,0.1,0.5,0.1,1-0.1c0.6-0.2,0.9-0.4,1-0.6
	c0.1-0.2,0.2-0.7,0.1-1.5c-0.2-4.8-0.1-7.2,0.4-7.2c0,0,0.1,0,0.3-0.1c0.1-0.1,0.2-0.2,0.2-0.2c0-0.1-0.2-0.3-0.7-0.7
	c-0.5-0.4-0.9-0.7-1.2-0.9c-0.1-0.1-0.3-0.1-0.4,0s-0.3,0.2-0.6,0.5c0,0-0.1,0.1-0.1,0.2c-0.2,0.2-0.5,0.4-0.7,0.4
	c-0.3,0-1.2,0-2.8,0c-0.5,0-0.9,0-1.2,0c-0.3,0-0.7,0-1.2,0c-1.5,0-2.4,0-2.7,0c-0.3,0-0.7-0.2-1.2-0.4c-0.2-0.1-0.3-0.1-0.5-0.2
	c0,0-0.1,0-0.2-0.1c-0.5-0.2-0.7-0.3-0.8-0.3s-0.1,0.2,0,0.5c0,0.1,0,0.1,0,0.1c0.1,1.1,0.2,2.6,0.2,4.5c0,1.9,0,3.6-0.1,5.1
	c0,0.4,0,0.7,0,0.8C53.2,71.3,53.2,71.4,53.4,71.4z M63.9,69c-0.1,0.1-1.5,0.1-4,0.1c-2.6,0-3.9,0-4-0.1c-0.2-0.1-0.3-0.2-0.3-0.4
	c0-0.2,0-0.6,0-1.2c0-0.1,0-0.3,0-0.5c0-0.4,0-0.7,0.1-0.9c0.1-0.2,0.4-0.3,0.8-0.3c0.3,0,1.1,0,2.3,0c0.5,0,0.9,0,1.2,0
	c0.3,0,0.7,0,1.2,0c1.2,0,1.9,0,2.3,0c0.4,0,0.7,0.2,0.8,0.3c0.1,0.1,0.1,0.4,0.1,0.9c0,0.2,0,0.4,0,0.5c0,0.7,0,1.1,0,1.3
	C64.2,68.8,64.1,68.9,63.9,69z M59.9,65.1c-2.6,0-4,0-4.1-0.1c-0.1-0.1-0.2-0.2-0.2-0.4c0-0.2,0-0.6,0-1.2c0-0.1,0-0.2,0-0.4
	c0-0.4,0-0.7,0.1-0.8c0.1-0.1,0.4-0.2,0.8-0.3c0.3,0,1.1,0,2.3,0c0.5,0,0.9,0,1.2,0c0.3,0,0.7,0,1.2,0c1.2,0,1.9,0,2.3,0
	c0.4,0,0.7,0.1,0.8,0.3c0.1,0.1,0.1,0.4,0.1,0.8c0,0.2,0,0.3,0,0.4c0,0.6,0,1,0,1.2c0,0.2-0.1,0.3-0.2,0.4
	C63.9,65,62.5,65.1,59.9,65.1z M49.9,58.8c0.1,0,0.1,0.1,0.2,0c0,0,0.1,0,0.2,0c0.7-0.1,1.2-0.2,1.5-0.2c0.3,0,3.4-0.1,9.4-0.1
	c0.4,0,0.9,0,1.6,0c2.8,0,4.6,0,5.3,0c1,0,1.7,0,2-0.1c0.2,0,0.3-0.1,0.3-0.2c0,0,0-0.1,0-0.1c0-0.1-0.1-0.3-0.5-0.6
	c-0.3-0.3-0.7-0.7-1.2-1l0,0c-0.4-0.3-0.6-0.4-0.7-0.4c-0.1,0-0.3,0.2-0.6,0.7c0,0-0.1,0.1-0.1,0.1c0,0-0.1,0.1-0.1,0.2
	c-0.3,0.4-0.5,0.6-0.7,0.6c-0.2,0.1-0.6,0.1-1.4,0.1c-0.2,0-0.3,0-0.4,0c-0.9,0-1.4,0-1.6,0c-0.3,0-0.4-0.2-0.3-0.3
	c0-0.1,0.3-0.4,0.7-0.8c0.2-0.2,0.6-0.6,1.2-1.3c0,0,0.1-0.1,0.1-0.1c0.4-0.5,0.6-0.7,0.7-0.8c0.1-0.1,0.2-0.2,0.3-0.2
	c0.2-0.1,0.3-0.1,0.3-0.2s-0.2-0.2-0.5-0.3c-0.6-0.3-0.8-0.5-0.6-0.6c0.2-0.1,1-0.1,2.4-0.1c1.1,0,1.8,0,2,0c0.2,0,0.3-0.1,0.4-0.2
	c0.1-0.2-0.3-0.7-1.3-1.4l0,0c-0.5-0.4-0.8-0.6-1-0.6c-0.1,0-0.4,0.3-0.7,0.7l0,0c0,0-0.1,0.1-0.1,0.2c-0.2,0.4-0.5,0.6-0.7,0.6
	c-0.2,0-0.8,0.1-1.8,0.1c-0.2,0-0.4,0-0.5,0c-1.1,0-1.7,0-1.9,0c-0.2,0-0.3-0.1-0.4-0.1c-0.2-0.2-0.2-0.5-0.2-0.9
	c0-0.4,0.2-0.7,0.4-0.9c0.2-0.2,0.2-0.3-0.1-0.4c-0.2-0.1-0.8-0.3-1.7-0.5c0,0-0.1,0-0.2,0c-0.4-0.1-0.7-0.2-0.7-0.1
	c-0.1,0-0.1,0.2-0.1,0.5c0,0.1,0,0.1,0,0.1c0,0.1,0,0.3,0,0.5c0,0.7,0,1.1,0,1.3c-0.1,0.3-0.3,0.4-0.6,0.5c-0.3,0-0.9,0-1.9,0
	c-0.3,0-0.5,0-0.7,0c-2.2,0-3.8,0-4.7-0.1c-0.2,0-0.3,0-0.4,0c0,0,0.1,0.2,0.2,0.5c0,0,0,0,0,0.1c0.1,0.2,0.2,0.4,0.3,0.4
	c0.1,0,0.3,0,0.5,0c0.1,0,0.1,0,0.2,0c2-0.3,2.9-0.3,2.9,0c0,0.1,0.1,0.3,0.2,0.6c0.4,0.8,0.7,1.6,0.9,2.4c0.2,0.9,0.3,1.4,0.1,1.5
	c-0.1,0.1-0.9,0.1-2.4,0.1c-1.5,0-2.7,0-3.6-0.1c-0.2,0-0.4,0-0.4,0c0,0,0.1,0.2,0.2,0.5C49.7,58.6,49.8,58.7,49.9,58.8z M61.3,57.8
	c-0.2,0.1-0.8,0.1-1.9,0.1c-1.1,0-1.6-0.1-1.7-0.1c-0.1-0.1-0.1-0.1-0.1-0.2c0-0.1,0-0.2,0.1-0.4c0.2-0.5,0.2-1.1-0.1-1.7
	c-0.3-0.6-0.7-1.1-1.4-1.6l0,0c-0.5-0.3-0.8-0.6-0.8-0.6c0-0.1,0.2-0.2,0.7-0.2c0.4,0,1.4,0,2.9,0c0.2,0,0.4,0,0.7,0
	c1.2,0,2,0,2.3,0c0.4,0,0.7,0.1,0.8,0.2c0,0.1,0,0.3,0,0.6c0,0.1,0,0.1,0,0.1c-0.3,1-0.5,1.8-0.8,2.6C61.7,57.3,61.4,57.7,61.3,57.8
	z M87.2,63.7c1.1,0.1,2-0.2,2.8-1c0.8-0.8,1.1-1.7,1-2.8c-0.1-0.9-0.5-1.6-1.2-2.2c-0.6-0.5-1.4-0.8-2.2-0.8c-0.9,0-1.6,0.3-2.3,0.9
	c-0.7,0.6-1,1.4-1.1,2.3c0,0.8,0.2,1.6,0.7,2.3C85.6,63.2,86.3,63.6,87.2,63.7z M88.6,62.8c-0.8,0.3-1.6,0.2-2.3-0.3
	s-1.1-1.2-1.1-2.1c0-0.7,0.2-1.3,0.7-1.8c0.5-0.5,1.1-0.7,1.7-0.7c0.7,0,1.3,0.2,1.8,0.7c0.7,0.6,0.9,1.4,0.7,2.3
	C90,61.8,89.4,62.4,88.6,62.8z"/>
</svg>
