<?xml version="1.0" encoding="utf-8"?>
<!-- Generator: Adobe Illustrator 24.2.3, SVG Export Plug-In . SVG Version: 6.00 Build 0)  -->
<svg version="1.1" id="Layer_1" xmlns="http://www.w3.org/2000/svg" xmlns:xlink="http://www.w3.org/1999/xlink" x="0px" y="0px"
	 viewBox="0 0 352 219" style="enable-background:new 0 0 352 219;" xml:space="preserve">
<style type="text/css">
	.st0{clip-path:url(#SVGID_2_);}
	.st1{fill:none;stroke:#D6D2C7;stroke-width:1.3;stroke-miterlimit:10;stroke-dasharray:9.31,9.31;}
	.st2{fill:#D6D2C7;}
</style>
<g>
	<defs>
		<rect id="SVGID_1_" width="351.3" height="218.1"/>
	</defs>
	<clipPath id="SVGID_2_">
		<use xlink:href="#SVGID_1_"  style="overflow:visible;"/>
	</clipPath>
	<g class="st0">
		<path class="st1" d="M350.6,0.6H0.6v216.8h350V0.6z"/>
	</g>
</g>
<path class="st2" d="M23.8,46.1c0,0,0.1,0,0.2,0c0.9-0.2,1.5-0.3,1.8-0.5c0.4-0.3,0.6-0.8,0.6-1.7c0.1-0.6,0.1-2.1,0.1-4.3
	c0-0.3,0-0.7,0-1.2c0-1.2,0-1.9,0-2.3c0-0.4,0.1-0.8,0.2-0.9c0.1-0.1,0.2-0.3,0.5-0.4c0.1-0.1,0.2-0.1,0.3-0.2
	c0.6-0.4,1-0.6,1.2-0.6c0.2,0,0.3,0.1,0.5,0.5c0.1,0.2,0.2,0.3,0.2,0.4c0,0,0.2,0,0.3,0c0.5-0.1,1-0.2,1.5-0.2s0.8,0.1,0.8,0.2
	c0.1,0.2-0.1,0.8-0.5,2c-0.4,1.2-0.9,2.4-1.4,3.5c-0.1,0.3-0.1,0.5,0,0.6c0.2,0.1,0.5,0.1,1.1,0.1c0.4,0,0.6,0,0.7-0.1
	c0.1-0.1,0.2-0.2,0.3-0.5c0.2-0.4,0.3-0.6,0.5-0.6s0.5,0.1,1,0.3c0.9,0.5,1.4,0.8,1.5,1c0.1,0.2-0.1,0.5-0.5,0.9
	c-1.4,1.3-3.3,2.4-5.9,3.2c-0.4,0.1-0.7,0.2-0.8,0.3c-0.1,0.1-0.1,0.1-0.1,0.2c0,0.1,0.1,0.1,0.3,0.1c0.1,0,0.5-0.1,1.1-0.2
	c3-0.6,5.4-1.6,7-2.9c0.4-0.3,0.7-0.4,0.9-0.4c0.3,0.1,0.7,0.5,1.5,1.2c0.7,0.7,1.3,1.3,1.6,1.8c0.2,0.3,0.5,0.5,0.9,0.4
	c0.4,0,0.7-0.2,0.8-0.6c0.2-0.6,0.1-1.3-0.4-2c-0.5-0.8-1.3-1.4-2.4-2.1c-0.4-0.3-0.7-0.5-0.7-0.6c0-0.1,0-0.4,0.2-0.7
	c0.6-1.2,1.1-2.6,1.4-4.4c0.1-0.5,0.2-0.8,0.4-0.9c0.1-0.1,0.5-0.2,1.2-0.2c0.6,0,0.9,0,1.1-0.1c0.2,0,0.2-0.2,0.2-0.3
	c0-0.1-0.3-0.4-0.8-0.9c-0.5-0.5-0.9-0.9-1.3-1.1c-0.2-0.1-0.3-0.2-0.4-0.1c-0.1,0.1-0.3,0.4-0.7,1c0,0,0,0.1-0.1,0.1
	c-0.2,0.3-0.5,0.5-0.6,0.6c-0.2,0-0.7,0.1-1.6,0.1c-0.1,0-0.3,0-0.3,0c-0.1,0-0.2,0-0.3,0c-0.8,0-1.4,0-1.6,0
	c-0.3,0-0.4-0.2-0.5-0.4c0-0.1,0.1-0.5,0.2-1c0-0.1,0.1-0.2,0.1-0.2c0.2-0.5,0.3-0.9,0.4-1.1c0.1-0.2,0.3-0.4,0.4-0.5
	c0.2-0.1,0.3-0.2,0.2-0.3c-0.1-0.1-0.3-0.2-0.7-0.3c-0.2-0.1-0.6-0.1-1-0.2c-0.5-0.1-0.7-0.1-0.8-0.1c0,0-0.1,0.3-0.2,0.9
	c-0.2,1-0.4,1.9-0.6,2.6c-0.1,0.3-0.2,0.5-0.4,0.6c-0.1,0.1-0.4,0.1-0.8,0.1c-0.8,0-1.4-0.1-1.8-0.2c-0.4-0.1-0.4-0.3-0.2-0.4
	c0.1-0.1,0.1-0.1,0.1-0.2c0-0.1,0-0.1,0-0.1c-0.1,0-0.4,0.1-1.2,0.3c-0.1,0-0.2,0-0.3,0.1c-0.6,0.2-1,0.3-1.1,0.3
	c-0.2,0-0.3-0.1-0.4-0.3c0-0.1,0-0.5,0-1.2c0-0.1,0-0.2,0-0.3c0-0.7,0-1.1,0-1.3c0-0.3,0.1-0.4,0.2-0.5c0.1,0,0.4-0.1,0.7-0.1
	c0.4,0,0.6,0,0.8,0.1c0.1,0.1,0.2,0.2,0.3,0.5c0.1,0.5,0.4,0.8,0.8,0.9c0.4,0,0.8-0.1,1.2-0.5c0.4-0.4,0.7-0.9,0.7-1.5
	c0-0.1,0-0.2,0-0.3c0-0.3,0.1-0.5,0.2-0.5c0.1-0.1,0.4-0.2,0.8-0.2c0.3,0,1,0,2.1,0c0.5,0,0.9,0,1.2,0c0.3,0,0.6,0,1.1,0
	c1.3,0,2.1,0,2.4,0.1c0.4,0.1,0.7,0.2,0.7,0.5c0,0.2-0.1,0.7-0.3,1.5c-0.1,0.3-0.1,0.5-0.2,0.6c0,0,0,0.1,0,0.2c0,0,0.1,0.1,0.1,0.1
	c0.1,0,0.3-0.2,0.8-0.6c0.5-0.4,0.9-0.8,1.4-1.2c0.5-0.4,0.8-0.7,1.2-0.8c0.3,0,0.4-0.2,0.3-0.3c-0.1-0.2-0.3-0.5-0.8-1
	c-0.5-0.5-0.9-0.8-1.1-0.9c-0.2,0-0.4,0.1-0.8,0.5l0,0c-0.3,0.3-0.5,0.5-0.7,0.6c-0.2,0-0.6,0.1-1.2,0.1c-0.1,0-0.1,0-0.1,0
	c0,0-0.1,0-0.2,0c-0.8,0-1.2,0-1.3-0.1c-0.1-0.1-0.2-0.4-0.2-1.1c0,0,0-0.1,0-0.1c0-0.5,0-0.8,0-0.9c0-0.2,0.1-0.3,0.3-0.5
	c0.2-0.2,0.2-0.3-0.1-0.5c-0.2-0.1-0.8-0.3-1.7-0.5c0,0-0.1,0-0.2,0c-0.4-0.1-0.6-0.1-0.6-0.1c0,0-0.1,0.1,0,0.4c0,0,0,0.1,0,0.1
	c0.2,2,0.2,3-0.1,3.3c-0.1,0.1-0.5,0.1-1.4,0.1c-0.8,0-1.3,0-1.4-0.1c-0.2-0.1-0.4-0.3-0.4-0.6c-0.1-0.4-0.2-0.6-0.3-0.6
	c-0.1,0-0.1,0-0.1,0c0,0.3-0.1,0.6-0.3,1.1c-0.2,0.4-0.4,0.7-0.5,0.9c-0.2,0.2-0.3,0.2-0.5,0.2c-0.1,0-0.4-0.3-0.8-0.6l0,0
	C28.2,28.1,28,28,28,28c-0.1,0-0.2,0.2-0.4,0.5c-0.2,0.3-0.4,0.5-0.5,0.6s-0.2,0.1-0.3,0.1c-0.2,0-0.4-0.7-0.3-2
	c0-1.3,0.2-2,0.4-2.2c0.5-0.3-0.2-0.7-2.2-1.2l0,0c-0.3-0.1-0.4-0.1-0.4,0c0,0,0,0.3,0,0.6c0.1,0.9,0.2,1.9,0.2,2.9
	c0,1,0,1.6-0.1,1.8c-0.1,0.2-0.3,0.3-0.6,0.3c-0.3,0-0.9,0-1.8-0.1c0,0,0,0-0.1,0c-0.3,0-0.4,0-0.5,0c0,0,0,0.2,0.1,0.4
	c0,0,0,0.1,0,0.1c0,0,0,0,0,0.1c0.1,0.3,0.2,0.4,0.3,0.4c0.1,0,0.2,0,0.4,0c0,0,0.1,0,0.1,0c0.7-0.2,1.2-0.3,1.5-0.2
	c0.3,0,0.5,0.3,0.6,0.6c0.1,0.3,0.1,0.9,0.1,1.8c0,0.1,0,0.2,0,0.4c0,0.7,0,1.1-0.1,1.3c-0.1,0.3-0.3,0.5-0.6,0.6
	c-0.2,0.1-0.8,0.3-1.6,0.5c-0.2,0-0.4,0.1-0.5,0.1c-0.3,0.1-0.5,0.1-0.6,0.2c0,0,0,0.1,0,0.2c0,0.1,0.2,0.5,0.4,1.2
	c0.2,0.6,0.3,1,0.4,1c0.1,0.2,0.2,0.1,0.4,0c0.3-0.4,0.7-0.7,1.2-1c0.5-0.2,0.8-0.3,0.9,0c0,0.1,0.1,1.1,0.1,2.9c0,1.9,0,2.9,0,3.1
	c-0.1,0.3-0.2,0.4-0.5,0.5c-0.2,0.1-0.7,0.1-1.5,0c-0.5,0-0.8,0-0.8,0c-0.1,0.1,0,0.2,0.4,0.3c1,0.2,1.5,0.8,1.7,1.8
	C23.7,45.9,23.7,46.1,23.8,46.1z M36.2,39.9C36,40,36,40,35.9,40c-0.1,0-0.2-0.1-0.5-0.1c-0.2,0-0.6-0.2-1.3-0.3
	c-0.6-0.2-1-0.3-1.1-0.4s-0.1-0.4,0.1-0.9c0.1-0.1,0.2-0.7,0.6-1.6c0-0.1,0.1-0.2,0.1-0.2c0-0.1,0.1-0.2,0.1-0.4
	c0.3-0.7,0.5-1.1,0.6-1.2c0.2-0.1,0.6-0.2,1.3-0.2c0.2,0,0.3,0,0.4,0c0.7,0,1.1,0,1.3,0c0.3,0,0.4,0.2,0.4,0.3c0,0.1,0,0.4-0.1,0.9
	c-0.2,1-0.5,2-0.8,2.7C36.7,39.4,36.4,39.8,36.2,39.9z M52,46.1c0.2,0.1,0.6,0.1,1,0c0.5-0.1,0.8-0.3,1.1-0.5
	c0.1-0.1,0.1-0.2,0.1-0.3c0-0.1,0-0.6,0-1.4c0-0.3,0-0.6,0-0.8c0-0.7-0.1-2.5-0.1-5.5c0-0.2,0-0.5,0-0.8c0-2,0-3.1,0-3.5
	c0-0.4,0.1-0.6,0.3-0.6l0,0c0.1-0.1,0.2-0.2,0.1-0.3c-0.1-0.1-0.3-0.3-0.6-0.6c-0.2-0.2-0.3-0.4-0.4-0.5c0-0.1,0.1-0.4,0.2-0.7
	c0.8-1.6,1.5-3,1.9-4.2c0.2-0.5,0.4-0.9,0.7-1c0.3-0.1,0.3-0.3,0-0.4c-0.3-0.2-0.9-0.4-1.9-0.7c-0.5-0.2-0.8-0.2-0.9-0.2
	c-0.1,0-0.1,0-0.1,0.1c0,0.2-0.1,0.7-0.2,1.4c-0.1,0.7-0.3,1.4-0.5,1.9c-0.4,1.3-0.9,2.7-1.6,4.2c-0.7,1.5-1.4,2.9-2.1,4.1
	c-0.2,0.3-0.3,0.5-0.3,0.6c0,0.1,0,0.1,0.1,0.1c0.2,0,0.8-0.5,1.9-1.7c0.3-0.4,0.5-0.6,0.7-0.6s0.3,0,0.3,0.2c0.1,0.2,0.1,1.6,0,4.3
	c0,2.7-0.1,4.7-0.2,6.1c0,0.7-0.1,1.1,0,1.2C51.8,45.9,51.9,46,52,46.1z M55.3,45.3c0,0.1,0.1,0.1,0.2,0.1c0.7-0.1,1.5-0.2,2.6-0.3
	c1.1,0,3.2,0,6.4,0c0.3,0,0.8,0,1.4,0c2.4,0,3.8,0,4.2,0c0.4,0,0.6-0.1,0.7-0.2c0.1-0.1-0.1-0.4-0.4-0.7c-0.3-0.4-0.8-0.8-1.4-1.2
	c-0.3-0.2-0.5-0.3-0.6-0.3c-0.1,0-0.3,0.3-0.7,0.8c0,0-0.1,0.1-0.1,0.2c-0.3,0.4-0.5,0.7-0.7,0.7c-0.1,0.1-0.5,0.1-1.2,0.1
	c-0.1,0-0.2,0-0.3,0c-0.1,0-0.3,0-0.5,0c-0.5,0-0.8,0-0.9-0.1c-0.2-0.1-0.3-0.3-0.3-0.7c0-0.3,0-0.9,0-1.8c0-0.5,0-0.9,0-1.1
	c0-0.3,0-0.7,0-1.3c0-0.9,0-1.5,0-1.8c0.1-0.3,0.2-0.5,0.5-0.6c0.2-0.1,0.7-0.1,1.5-0.1c0.4,0,0.8,0,1.1,0c1.5,0,2.3,0,2.5,0
	c0.3,0,0.4-0.1,0.5-0.2c0.1-0.2-0.3-0.7-1.2-1.5l0,0c-0.4-0.4-0.7-0.5-0.8-0.5c-0.1,0-0.3,0.2-0.6,0.6l0,0c-0.3,0.5-0.6,0.7-0.7,0.8
	c-0.2,0.1-0.6,0.1-1.2,0.1c-0.1,0-0.2,0-0.3,0c-0.4,0-0.7,0-0.8-0.1c-0.2-0.1-0.3-0.3-0.3-0.6c0-0.2,0-0.8,0-1.7c0-0.3,0-0.5,0-0.7
	c0-0.3,0-0.6,0-1c0-0.8,0-1.3,0-1.5c0.1-0.3,0.3-0.5,0.6-0.6c0.2,0,0.8-0.1,1.6,0c0.5,0,0.8,0,1.1,0c1.6,0,2.5,0,2.7,0
	c0.3,0,0.4-0.1,0.5-0.2c0.1-0.1-0.1-0.4-0.4-0.7c-0.3-0.3-0.7-0.7-1.3-1.1c-0.3-0.2-0.5-0.3-0.6-0.3s-0.3,0.2-0.6,0.6
	c-0.4,0.5-0.7,0.8-0.9,0.9c-0.1,0.1-1.7,0.1-4.8,0.1c-3.1,0-5,0-5.5-0.1c-0.4,0-0.5,0-0.6,0c0,0,0,0.2,0.1,0.5l0,0.1l0,0
	c0.1,0.3,0.2,0.4,0.3,0.4c0.1,0,0.2,0,0.5,0c0.7-0.1,1.6-0.2,2.6-0.2c1,0,1.6,0,1.8,0l0,0c0.2,0,0.3,0.2,0.3,0.4c0,0.2,0,0.9,0,2.1
	c0,0.2,0,0.3,0,0.5c0,0.1,0,0.3,0,0.5c0,1.2,0,1.9,0,2.1c0,0.2-0.1,0.3-0.3,0.4l0,0c-0.1,0.1-0.8,0.1-2,0.1c-1.2,0-2.1-0.1-2.6-0.2
	c-0.1,0-0.2,0-0.2,0.1c0,0.1,0.1,0.3,0.2,0.5c0,0,0,0,0,0.1c0.1,0.2,0.2,0.4,0.2,0.4s0.2,0,0.5,0c0,0,0.1,0,0.1,0
	c0.7-0.1,1.5-0.2,2.4-0.2c0.9,0,1.4,0,1.5,0.1c0.1,0.1,0.2,0.3,0.2,0.6c0,0.3,0,1.3,0,3c0,1.6,0,2.6,0,3c0,0.3-0.1,0.6-0.2,0.6
	c-0.1,0.1-0.9,0.1-2.3,0.1c-1.4,0-2.6,0-3.6-0.1c-0.2,0-0.3,0-0.3,0c0,0,0.1,0.2,0.2,0.5C55.2,45.1,55.3,45.3,55.3,45.3z M62.8,28.6
	c0.4,0.2,0.7,0.1,1,0c0.3-0.2,0.5-0.5,0.5-0.9c0-0.7-0.3-1.4-1.1-2c-0.8-0.6-1.8-1.1-3.2-1.4c-0.5-0.1-0.7-0.1-0.7,0
	c0,0.1,0.3,0.4,0.8,0.9c1.1,1.1,1.8,2.1,2.3,3C62.5,28.4,62.7,28.6,62.8,28.6z M80.7,44.2c2.5,0,3.8,0,3.8-0.1
	c0.1,0,0.1-0.2,0.1-0.4c0-0.2,0-0.4-0.1-0.4l-0.2,0c-0.3,0-0.6-0.1-0.8-0.1c-0.1,0-0.2,0-0.4,0c-0.4,0-0.7-0.1-0.8-0.2
	c-0.1-0.1-0.2-0.4-0.3-0.8c0-0.3,0-1,0-2c0-0.4,0-0.7,0-0.9c0-0.3,0-0.7,0-1.2c0-0.9,0-1.5,0-1.8c0-0.4,0.2-0.6,0.4-0.6
	c0.1-0.1,0.5-0.1,1-0.1c0.3,0,0.5,0,0.6,0c0.1,0,0.2,0,0.3,0c0.8,0,1.3,0.1,1.5,0.2c0.1,0.1,0.3,0.5,0.4,1.1c0,0.1,0,0.2,0,0.3
	c0,0,0,0.1,0,0.2c0,0.5,0.1,0.8,0.1,0.8c0,0.1,0.2,0.1,0.4,0.1c0,0,0.1,0,0.1,0c0,0,0.1,0,0.2,0c0.1,0,0.2,0,0.3-0.1
	c0.1-0.1,0.1-0.2,0.1-0.6c0-0.2,0-0.7,0-1.6c0-0.4,0-0.7,0-0.9c0-0.2,0-0.4,0-0.7c0-0.9,0-1.5,0-1.8c0-0.3,0-0.5-0.1-0.6
	c0-0.1-0.1-0.1-0.3-0.1c-0.1,0-0.1,0-0.2,0h0c-0.2,0-0.4,0-0.4,0.1c0,0.1-0.1,0.4-0.1,0.8c0,0,0,0.1,0,0.1c0,0.1,0,0.2,0,0.3
	c-0.1,0.7-0.2,1-0.4,1.2c-0.1,0.1-0.6,0.1-1.5,0.1c-0.1,0-0.3,0-0.3,0c-0.1,0-0.3,0-0.6,0c-0.5,0-0.9,0-1-0.1
	c-0.2-0.1-0.3-0.3-0.4-0.6c0-0.2-0.1-0.8,0-1.8c0-0.4,0-0.8,0-1c0-0.3,0-0.7,0-1.2c0-0.9,0-1.5,0-1.8c0.1-0.3,0.2-0.5,0.5-0.6
	c0.2-0.1,0.7-0.1,1.4-0.1c0.4,0,0.7,0,0.9,0c0.2,0,0.5,0,0.9,0c0.8,0,1.4,0,1.6,0c0.3,0,0.5,0.2,0.7,0.4c0.1,0.1,0.2,0.5,0.3,1.1
	c0,0.3,0.1,0.5,0.1,0.6c0,0.1,0,0.2,0.1,0.3c0.1,0.6,0.2,0.9,0.3,1c0.1,0.1,0.2,0.1,0.5,0.1c0,0,0.1,0,0.1,0c0.3,0,0.5,0,0.6,0
	c0.1,0,0.1-0.1,0.1-0.3c0,0,0-0.3,0-0.8c0-0.6,0-1,0-1.4c0-1.4-0.1-2-0.1-2.1c0,0-2.2-0.1-6.6-0.1c-4.3,0-6.5,0-6.6,0
	c-0.1,0.2-0.2,0.3,0,0.5c0.1,0.2,0.3,0.3,0.5,0.3c0.7,0.1,1.2,0.1,1.4,0.2c0.2,0.1,0.4,0.2,0.5,0.4c0,0.1,0.1,2,0.1,5.7
	c0,3.7,0,6.3,0,7.7c0,0,0,0.1,0,0.1c0,0.8-0.1,1.2-0.2,1.4c-0.1,0.1-0.5,0.2-1.1,0.3c-0.1,0-0.1,0-0.1,0c-0.6,0.1-0.9,0.1-0.9,0.2
	c0,0-0.1,0.2-0.1,0.4c0,0.2,0,0.3,0.1,0.3C77,44.1,78.2,44.1,80.7,44.2z M101.8,44.2c3.6,0,5.5,0,5.5-0.1c0,0,0-0.4,0-1s0-1,0-1
	c-0.1,0-1.5,0-4.4,0c-2.3,0-3.6,0-4,0c-0.4,0-0.6-0.1-0.6-0.2c0-0.1,0-0.2,0.2-0.4c0.2-0.2,0.6-0.6,1.2-1.3c0.5-0.5,1.6-1.6,3.4-3.4
	c1.7-1.7,2.8-3.1,3.3-4.1c0.5-1,0.5-2.2,0.1-3.4c-0.4-1.2-1.3-2.1-2.7-2.6c-1.3-0.5-2.7-0.5-4.1-0.1c-1.5,0.4-2.6,1.3-3.2,2.5
	c-0.2,0.4-0.3,0.8-0.2,1c0.1,0.2,0.3,0.1,0.6-0.2c1-1.2,2.1-1.9,3.3-2.2c1.2-0.3,2.2,0,3,0.8c0.8,0.8,1.1,1.8,0.9,3.1
	c-0.2,1.3-0.8,2.7-1.9,4.2c-1,1.3-2.8,3.4-5.4,6.3c-0.3,0.3-0.4,0.5-0.5,0.6c0,0.1-0.1,0.3-0.1,0.8c0,0.4,0,0.7,0.1,0.7
	C96.3,44.1,98.2,44.1,101.8,44.2z M114.1,45.3c0,0.1,0.2,0.1,0.6,0c0,0,0.1,0,0.2,0c0.6-0.1,1.4-0.2,2.2-0.2c0.9,0,3.7,0,8.4,0
	c0.5,0,1.3,0,2.2,0c3.6,0,5.7,0,6.3,0c0.6,0,1-0.1,1-0.2l0,0c0.1-0.2-0.3-0.7-1.4-1.6c0,0-0.1,0-0.1-0.1c-0.5-0.4-0.8-0.6-0.9-0.6
	c-0.1,0-0.3,0.2-0.6,0.6c0,0-0.1,0.1-0.1,0.1c0,0,0,0,0,0.1c-0.4,0.5-0.7,0.9-0.8,0.9c-0.2,0.1-0.6,0.1-1.3,0.1c-0.1,0-0.1,0-0.2,0
	c-0.7,0-1.1,0-1.2,0c-0.2,0-0.3-0.1-0.4-0.3c0-0.1-0.1-2.3-0.1-6.5c0-4.3,0-6.5,0-6.8c0,0,0,0,0-0.1c0-0.1,0.1-0.2,0.1-0.3
	c0.1-0.1,0.4-0.1,0.7-0.1c0.3,0,0.9,0,1.9,0c0.2,0,0.3,0,0.4,0c1.6,0,2.5,0,2.7,0c0.3,0,0.4-0.1,0.5-0.2c0.2-0.3-0.4-0.9-1.8-1.8h0
	c-0.3-0.2-0.5-0.3-0.6-0.3c-0.1,0-0.3,0.2-0.6,0.6c0,0-0.1,0.1-0.1,0.1c0,0,0,0.1-0.1,0.1c-0.3,0.4-0.6,0.7-0.8,0.8
	c-0.2,0.1-0.7,0.1-1.5,0.1c0,0-0.1,0-0.1,0c-1,0-1.5-0.1-1.6-0.2c-0.1-0.1,0.1-0.5,0.7-1.1c0.6-0.6,1.2-1.4,1.8-2.2
	c0.5-0.7,0.8-1,0.9-1c0.4,0,0.4-0.1,0-0.4c-0.4-0.2-1.1-0.5-2-0.8c0,0-0.1,0-0.2,0c-0.4-0.1-0.6-0.2-0.6-0.1c-0.1,0-0.1,0.2-0.2,0.4
	c0,0,0,0.1,0,0.1c-0.1,0.8-0.3,1.8-0.7,2.9c-0.3,1.1-0.6,1.8-0.8,2.1c-0.1,0.2-0.6,0.3-1.5,0.4c-0.8,0-1.7,0-2.5-0.1
	c-0.3,0-0.6,0-0.9,0c-0.4,0-1.4,0.1-3.1,0c-1.7,0-2.8-0.1-3.3-0.1c-0.1,0-0.2,0-0.2,0.1c0,0.1,0.1,0.3,0.2,0.6c0,0,0,0.1,0.1,0.1
	c0.1,0.2,0.2,0.3,0.3,0.3c0.1,0,0.3,0,0.7-0.1c0.1,0,0.2,0,0.2,0c0.8-0.1,1.8-0.2,2.9-0.2c1.1,0,1.7,0,1.8,0.1s0.2,0.5,0.2,1.1
	c0,0.6,0,2.6,0,6c0,0.3,0,0.7,0,1.2c0,2,0,3.4,0,3.9c0,0.8,0,1.2-0.1,1.4c0,0.2-0.1,0.3-0.2,0.3c0,0-0.1,0-0.1,0
	c-0.1,0.1-1.1,0.1-2.7,0.1c-1.7,0-2.9-0.1-3.7-0.1c-0.3,0-0.4,0-0.4,0.2C113.7,44.6,113.8,44.9,114.1,45.3z M125.3,44.4
	c-0.1,0.1-0.4,0.1-0.9,0.1c-0.5,0-0.8,0-1-0.1l0,0c-0.1,0-0.2-0.1-0.2-0.3c0-0.2-0.1-0.7-0.1-1.5c0-0.5,0-1.8,0-3.9c0-0.6,0-1,0-1.3
	c0-0.5,0-1.3,0-2.2c0-1.8,0-3,0-3.5c0-0.7,0.1-1.1,0.2-1.3c0.1-0.1,0.3-0.2,0.6-0.1c0.2,0,0.3,0,0.4,0s0.2,0,0.4,0
	c0.3,0,0.5,0,0.6,0.1c0.1,0.2,0.2,0.6,0.2,1.3c0,0.5,0,1.6,0,3.5c0,1,0,1.7,0,2.3c0,0.3,0,0.7,0,1.2c0,2,0,3.4,0,3.9
	c0,0.8,0,1.2-0.1,1.4C125.5,44.2,125.4,44.3,125.3,44.4C125.3,44.4,125.3,44.4,125.3,44.4z M128.8,41.4c0.1,0,0.1,0,0.2,0
	c0,0,0.1-0.1,0.3-0.3c1-1.5,2-3.4,2.9-5.6c0,0,0-0.1,0-0.1c0.4-0.8,0.6-1.3,0.7-1.5c0.1-0.2,0.3-0.3,0.5-0.4
	c0.4-0.2,0.2-0.4-0.6-0.6c0,0-0.2,0-0.3-0.1c-0.5-0.1-0.8-0.2-1.1-0.3l0,0c-0.5-0.1-0.7-0.2-0.8-0.2s-0.1,0.1-0.1,0.3
	c0,0.7-0.1,1.7-0.4,3.1c-0.2,1.4-0.6,2.8-0.9,4.3c0,0,0,0.1,0,0.1c-0.2,0.6-0.2,1-0.3,1.1C128.8,41.3,128.8,41.4,128.8,41.4z
	 M118,40.9c0.5,0.3,0.9,0.2,1.2-0.2c0.3-0.4,0.4-1.1,0.4-2c-0.1-0.9-0.3-1.8-0.7-2.7c-0.3-0.6-0.7-1.3-1.2-1.9
	c-0.5-0.6-0.9-1.1-1.2-1.3c-0.3-0.2-0.4-0.1-0.3,0.4c0.4,1,0.7,2.2,0.9,3.4c0.3,1.2,0.4,2.3,0.4,3.2c0,0.5,0,0.7,0.1,0.8
	C117.7,40.6,117.8,40.7,118,40.9z M121.4,29.2c0.1,0,0.3,0,0.5-0.1c0.2-0.1,0.4-0.2,0.5-0.3c0.5-0.7,0.5-1.5-0.1-2.4
	c-0.5-0.9-1.5-1.6-2.7-2.2c-0.5-0.2-0.8-0.3-1-0.3c-0.1,0-0.1,0.2,0.1,0.4c0.4,0.5,0.8,1.2,1.1,1.9c0.4,0.8,0.6,1.4,0.7,2
	C120.6,28.8,120.9,29.1,121.4,29.2z M142.1,46c0.1,0.1,0.3,0.2,0.6,0.1c0.3,0,0.6-0.1,0.9-0.3c0,0,0,0,0.1,0
	c0.2-0.1,0.4-0.2,0.4-0.4c0-0.1,0-0.5,0-1c0-0.2,0-0.3,0-0.4c0-1.2-0.1-2.8-0.1-4.6c0-1.9,0-2.8,0.1-3c0.1-0.2,0.3-0.2,0.6-0.3
	c0.3,0,1.2,0,2.9,0c0.3,0,0.7,0,1.2,0c0.9,0,1.4,0,1.7,0.1c0.3,0.1,0.5,0.3,0.6,0.6c0,0.3,0.1,0.9,0.1,1.8c0,0.5,0,1,0,1.3
	c0,0.2,0,0.4,0,0.7c0,1.2,0,1.9,0,2.2c0,0.4-0.1,0.7-0.3,0.8c-0.1,0.1-0.4,0.1-0.8,0.1c-0.1,0-0.2,0-0.2,0c-0.2,0-0.4,0-0.6,0
	c-0.1,0-0.1,0.1-0.1,0.2c0,0.1,0.1,0.1,0.2,0.1c0.3,0,0.5,0.1,0.9,0.4c0.2,0.2,0.3,0.4,0.4,0.5c0.1,0.2,0.2,0.5,0.2,0.9
	c0,0.1,0.1,0.2,0.3,0.2c0.2,0,0.5-0.1,0.9-0.2c0,0,0,0,0.1,0c0.4-0.1,0.6-0.2,0.8-0.1c0,0,0,0,0,0.1c-0.1,0-0.1,0.1-0.1,0.2
	c0,0.1,0.1,0.1,0.1,0.1c0.2,0,0.8-0.3,1.6-0.9c0.8-0.6,1.6-1.2,2.2-1.7c0.5-0.5,0.8-0.7,1-0.7c0.2,0,0.4,0.2,0.7,0.5
	c0.7,0.9,1.5,1.7,2.5,2.4c0.3,0.2,0.4,0.3,0.5,0.3c0.1,0,0.1-0.1,0.2-0.2c0.2-0.3,0.4-0.6,0.7-0.9c0.3-0.3,0.6-0.4,0.9-0.5
	c0.4-0.1,0.4-0.3,0-0.5c-0.7-0.3-1.4-0.8-2.3-1.3c-0.8-0.6-1.4-1.1-1.6-1.4c-0.1-0.2-0.2-0.3-0.1-0.5c0-0.2,0.2-0.4,0.4-0.9
	c0.8-1.4,1.5-3,2-4.8c0.2-0.6,0.3-0.9,0.4-1.1c0.1-0.2,0.2-0.3,0.5-0.4c0.3-0.1,0.4-0.2,0.4-0.4c0-0.1-0.2-0.3-0.6-0.7
	c-0.6-0.6-1-1-1.2-1c-0.2-0.1-0.5,0.1-0.8,0.4c-0.3,0.4-0.6,0.6-0.8,0.7c-0.2,0.1-0.4,0.1-0.6,0c-0.2-0.1-0.3-0.2-0.3-0.4
	s-0.1-0.6-0.1-1.3c0-0.1,0-0.3,0-0.5c0-0.6,0-0.9,0-1.1c0.1-0.2,0.2-0.3,0.5-0.4c0.2,0,0.6-0.1,1.4-0.1c0.3,0,0.5,0,0.6,0
	c1.2,0,1.9,0,2.1,0c0.2,0,0.3-0.1,0.4-0.3c0-0.1-0.1-0.3-0.4-0.6c-0.3-0.3-0.6-0.6-1-1c-0.3-0.3-0.5-0.4-0.6-0.3
	c-0.1,0-0.3,0.3-0.6,0.7s-0.7,0.7-1.1,0.9c-0.4,0.1-0.7,0.1-1-0.1c-0.2-0.2-0.3-0.7-0.2-1.6c0-0.9,0.1-1.4,0.3-1.5
	c0.5-0.3-0.1-0.6-1.7-1c0,0-0.1,0-0.2,0c-0.4-0.1-0.6-0.1-0.7-0.1c0,0-0.1,0.2,0,0.4c0,0,0,0.1,0,0.1c0.1,1,0.2,2.6,0.2,4.8
	c0,0.2,0,0.5,0,0.8c0,1.1,0,1.7,0,2c-0.1,0.4-0.2,0.6-0.5,0.7c-0.2,0-0.7,0-1.5,0c-0.2,0-0.4,0-0.6,0c0,0,0,0-0.1,0
	c-0.3,0-0.5,0-0.5,0s0,0.2,0.1,0.4c0,0,0,0.1,0,0.1c0,0,0,0,0,0.1c0.1,0.3,0.2,0.4,0.3,0.4c0,0,0.1,0,0.2,0c0.3-0.2,0.6-0.2,0.8-0.1
	c0.2,0.1,0.4,0.4,0.4,0.8c0.3,2.1,0.8,4,1.5,5.7c0.3,0.7,0.4,1.2,0.2,1.5c-0.1,0.3-0.5,1-1.3,1.9c-0.8,0.9-1.3,1.5-1.8,1.8
	c-0.4,0.3-0.6,0.1-0.4-0.5c0-0.1,0.1-1.5,0.1-4c0-0.1,0-0.2,0-0.4c0-2.3,0-3.5,0.1-3.6c0.1-0.2,0.3-0.3,0.5-0.4
	c0.3-0.1,0.4-0.3,0.3-0.5c-0.1-0.2-0.5-0.6-1.1-1.1c-0.4-0.4-0.7-0.5-0.9-0.6c-0.1,0-0.3,0.1-0.5,0.4c0,0-0.1,0.1-0.1,0.2
	c-0.2,0.4-0.5,0.6-0.7,0.6c-0.3,0-1.1,0.1-2.4,0.1c-0.3,0-0.5,0-0.7,0s-0.4,0-0.7,0c-1.3,0-2.1,0-2.4,0c-0.3,0-0.7-0.2-1.2-0.4
	c-0.1,0-0.2-0.1-0.3-0.1c-0.6-0.3-0.9-0.4-1-0.4c0,0-0.1,0-0.1,0.1c0,0.1,0,0.3,0.1,0.7c0.1,0.9,0.1,2.4,0.1,4.5
	c0,2.1,0,3.6-0.1,4.6c0,0.6-0.1,1,0,1.1C142,45.8,142,45.9,142.1,46z M145.3,43.4c0.1,0.1,0.4,0.1,0.7-0.1c0.3-0.2,0.5-0.4,0.5-0.6
	c0-0.3,0.1-0.5,0.2-0.6c0.1-0.1,0.4-0.1,0.8-0.1c0.4,0,0.6,0,0.8,0.1c0.1,0.1,0.2,0.3,0.2,0.5c0,0.2,0.1,0.3,0.2,0.4
	c0.1,0,0.3,0,0.6-0.2c0,0,0,0,0.1,0c0.3-0.1,0.4-0.2,0.4-0.4s0-0.6,0-1.3c0-0.1,0-0.2,0-0.2c0-1,0-1.7,0-2.1s0.1-0.5,0.3-0.6
	c0.2-0.1,0.1-0.4-0.5-0.9l0,0c-0.2-0.2-0.4-0.3-0.4-0.3c0,0-0.1,0-0.2,0.1l0,0c-0.7,0.6-1.7,0.6-3.1,0c-0.3-0.1-0.5-0.2-0.5-0.2
	c0,0-0.1,0.2,0,0.4c0.1,0.8,0.1,2.2,0.1,4.1C145.2,42.7,145.2,43.3,145.3,43.4z M147.4,41.3c-0.5,0-0.7-0.1-0.8-0.2
	c-0.1-0.2-0.1-0.6-0.1-1.3s0-1.2,0.1-1.3c0.1-0.2,0.4-0.2,0.8-0.2c0.5,0,0.7,0.1,0.8,0.2c0.1,0.1,0.1,0.6,0.1,1.3c0,0.6,0,1,0,1.1
	c0,0.1-0.1,0.2-0.3,0.3C148,41.3,147.8,41.3,147.4,41.3z M157.6,39c-0.3,0.2-0.7-0.2-1.2-1.1c-0.5-0.9-0.9-2.1-1.3-3.5
	c-0.1-0.4-0.1-0.6-0.1-0.7c0-0.1,0.2-0.2,0.5-0.2c0.2,0,0.8,0,1.6,0c0.8,0,1.3,0,1.5,0c0.3,0,0.5,0.1,0.6,0.2c0,0.1,0.1,0.2,0,0.5
	c0,0.5-0.3,1.4-0.7,2.7C158.1,38.1,157.8,38.8,157.6,39z M143.6,34.2c0.2,0.2,0.5,0.2,1,0.1c0.5-0.1,0.8-0.3,0.9-0.5
	c0.1-0.3,0.2-0.4,0.4-0.5c0.2,0,0.7-0.1,1.5-0.1c0.8,0,1.4,0,1.6,0.1c0.2,0.1,0.3,0.2,0.3,0.5c0,0.3,0.4,0.3,1.2,0.1
	c0.4-0.1,0.7-0.2,0.8-0.4c0.1-0.1,0.1-0.4,0.1-0.9c-0.1-1.1-0.1-1.9,0-2.2c0.1-0.4,0.2-0.6,0.6-0.8c0.3-0.2,0-0.7-1.1-1.5
	c-0.3-0.2-0.4-0.3-0.6-0.3c-0.1,0-0.3,0.2-0.5,0.5c-0.4,0.5-1.1,0.7-2.1,0.8s-2.1-0.1-3-0.6c0,0-0.1,0-0.1,0
	c-0.5-0.2-0.8-0.3-0.9-0.3c-0.1,0-0.1,0.2-0.1,0.4c0,0,0,0.1,0,0.1c0,0.3,0,1,0,2.3c0,1.2,0,2,0,2.4c0,0.3,0,0.4,0,0.5
	C143.5,34.1,143.5,34.2,143.6,34.2z M147.4,32.7c-1,0-1.5,0-1.6-0.1c-0.2-0.1-0.3-0.6-0.3-1.3c0-0.7,0.1-1.2,0.4-1.3
	c0.1-0.1,0.6-0.1,1.6-0.1c0.9,0,1.4,0,1.6,0.1c0.3,0.1,0.4,0.5,0.4,1.2c0,0.7-0.1,1.1-0.3,1.3C148.9,32.6,148.4,32.7,147.4,32.7z
	 M142,27.9c0,0,0.1,0.1,0.2,0c0.7-0.1,2.1-0.2,4-0.3c2-0.1,3.2,0,3.7,0c0.2,0,0.4,0,0.6,0c0.1,0,0.7-0.1,1.5-0.1
	c1,0,1.5-0.1,1.6-0.2c0.1-0.1-0.1-0.5-0.7-1c-0.6-0.6-1.1-0.9-1.2-1c-0.2,0-0.4,0.2-0.8,0.6c-0.3,0.4-0.7,0.7-1.1,0.9
	c-0.4,0.1-0.8,0.1-1.2-0.1c-0.2-0.1-0.3-0.4-0.3-0.9s0.1-0.8,0.3-1c0.2-0.1,0.2-0.3,0-0.4c-0.2-0.1-0.7-0.3-1.6-0.6
	c-0.4-0.1-0.7-0.2-0.8-0.2c-0.1,0-0.1,0.1-0.1,0.3c0.1,0.7,0.1,1.3,0.1,1.8c0,0.5-0.1,0.8-0.3,0.9c-0.1,0-0.6,0.1-1.6,0
	c-0.9,0-1.7,0-2.3-0.1c0,0-0.1,0-0.1,0c-0.3,0-0.5,0-0.5,0c0,0,0,0.2,0.2,0.5C141.9,27.6,142,27.8,142,27.9z M178.2,46.1
	c0,0,0.1,0.1,0.2,0c0.1,0,0.2,0,0.4,0c0.9-0.1,1.6-0.4,1.9-0.8c0.4-0.4,0.6-1.1,0.6-2c0-0.5,0.1-0.9,0.1-1l0,0
	c0-0.1,0.2-0.2,0.5-0.2c0.3,0,1.4,0,3.2,0c0.4,0,0.7,0,0.9,0c2.2,0,3.5,0,3.9,0c0.4,0,0.6-0.1,0.7-0.2c0.1-0.2-0.3-0.7-1.2-1.4
	c-0.3-0.2-0.5-0.4-0.5-0.5c0-0.1,0-0.2,0.1-0.4c0.4-0.2-0.1-0.8-1.4-1.7c-0.3-0.2-0.5-0.3-0.6-0.3c-0.1,0-0.3,0.2-0.6,0.6
	c0,0,0,0-0.1,0.1c-0.3,0.3-0.5,0.5-0.7,0.6c-0.2,0-0.8,0.1-1.8,0.1c-0.1,0-0.1,0-0.2,0c-0.8,0-1.4,0-1.6,0c-0.3,0-0.5-0.1-0.6-0.2
	c-0.1-0.1-0.1-0.3-0.1-0.6c0-0.4,0.1-0.6,0.2-0.7c0.1-0.1,0.5-0.2,1.2-0.3c0.2,0,0.7-0.1,1.3-0.1c0.2,0,0.3,0,0.4,0
	c0.7-0.1,1.3-0.1,1.7-0.1c0.3,0,0.4,0,0.4-0.1c0-0.1-0.1-0.3-0.4-0.6c-0.7-0.9-1.2-1.3-1.3-1.3c0,0-0.1,0-0.2,0
	c-0.3,0.1-0.5,0.1-0.6,0.2c-1.2,0.3-2.2,0.6-3.2,0.7c-0.9,0.2-1.4,0.2-1.5,0.1c0,0-0.1-0.1-0.1-0.2c0-0.1,0-0.1,0-0.1
	c0,0,0-0.3,0-0.7c0-0.4,0-0.8,0-0.9c0-0.2,0.2-0.3,0.3-0.5l0,0l0.2-0.1c0,0-0.1-0.1-0.2-0.2c-0.2-0.1-0.2-0.2-0.1-0.3
	c0.1-0.1,0.4-0.2,0.7-0.2c0.5,0,0.7-0.1,0.7-0.2c0-0.1-0.1-0.3-0.5-0.6c0,0-0.1-0.1-0.1-0.1c-0.4-0.3-0.6-0.6-0.7-0.7
	c-0.1-0.2-0.1-0.6-0.1-1.3c0-0.1,0-0.2,0-0.2c0-0.7,0-1.2,0-1.3c0-0.2,0.2-0.3,0.3-0.5c0.2-0.1,0.2-0.2,0.2-0.3
	c0-0.1-0.1-0.2-0.2-0.4c-0.3-0.4-0.5-0.6-0.5-0.7c0-0.1,0.2-0.2,0.6-0.3c0.9-0.1,0.7-0.6-0.6-1.6c-0.3-0.2-0.6-0.3-0.7-0.3
	c-0.1,0-0.3,0.2-0.6,0.6c-0.3,0.3-0.5,0.5-0.8,0.6c-0.3,0.1-0.6,0.1-0.8,0c-0.2-0.1-0.3-0.2-0.3-0.4c0-0.2,0.1-0.3,0.2-0.5
	c0.2-0.1,0.2-0.3-0.1-0.4c-0.2-0.1-0.8-0.2-1.6-0.3c0,0-0.1,0-0.1,0c-0.2,0-0.4,0-0.4,0c0,0,0,0.2,0,0.6c0,0,0,0.1,0,0.1v0
	c0,0.4-0.1,0.7-0.2,0.8c-0.1,0.1-0.5,0.1-1.2,0.1c-0.5,0-1,0-1.7,0c-0.6,0-1-0.1-1.1-0.1c-0.1,0-0.2,0.1,0,0.4
	c0.1,0.3,0.3,0.5,0.5,0.7c0.4,0.4,0.5,1.9,0.3,4.5c0,0.5-0.1,0.8-0.1,0.9c-0.1,0.1-0.3,0.1-0.6,0.1c-0.3,0-0.4,0-0.4,0.1
	c0,0,0.1,0.2,0.2,0.6c0.1,0.2,0.2,0.4,0.2,0.4c0,0,0.1,0,0.2,0c0.3,0,0.5,0.1,0.6,0.3c0.1,0.2,0.1,0.7,0.1,1.6c0,0.2,0,0.4,0,0.7
	c0,0.6,0.1,0.9,0.1,1c0.2,0.1,0.6,0.1,1,0s0.7-0.3,0.7-0.5c0-0.1,0-0.1,0.1-0.2c0.1-0.1,0.2-0.2,0.3-0.2c0.1-0.1,0.8-0.1,2.1,0
	c1.3,0,2,0.1,2.1,0.1c0.2,0.1,0.3,0.2,0.3,0.3c0,0.1,0,0.3-0.1,0.3c-0.3,0.2-1.8,0.4-4.6,0.7c-0.3,0-0.5,0-0.6,0.1
	c-0.1,0-0.1,0.1-0.1,0.2c0.1,0.2,1.6,0.2,4.7,0.1c1.2,0,1.9,0,2,0c0.2,0.1,0.3,0.4,0.3,0.7c0,0.3-0.1,0.6-0.3,0.7
	c-0.2,0.1-1.2,0.1-3.2,0.1c-2,0-3.3-0.1-4.1-0.2c-0.3,0-0.4,0-0.5,0c0,0,0.1,0.2,0.2,0.5c0,0,0,0,0,0.1c0.1,0.2,0.2,0.4,0.3,0.4
	c0.1,0,0.3,0,0.6,0c0.1,0,0.1,0,0.2,0c0.9-0.1,2.2-0.2,3.8-0.2c1.6,0,2.5,0,2.7,0.1c0.2,0.1,0.3,0.4,0.3,0.8c0,0.4-0.1,0.6-0.4,0.7
	c-0.1,0.1-1.6,0.1-4.2,0.1c-2.7,0-4.3-0.1-4.8-0.2c-0.1,0-0.2,0-0.2,0.1s0.1,0.2,0.2,0.5c0,0,0,0.1,0.1,0.1c0.1,0.2,0.2,0.3,0.3,0.4
	c0.1,0,0.3,0,0.6,0c0.1,0,0.2,0,0.2,0c1.1-0.1,2.7-0.2,4.9-0.2c0.1,0,0.1,0,0.2,0c1.2,0,2,0,2.3,0c0.4,0,0.7,0.1,0.8,0.2
	c0.1,0.1,0.1,0.3,0.1,0.6c0,0,0,0.1,0,0.1c0,0.3-0.1,0.5-0.1,0.6c-0.1,0.1-0.3,0.2-0.6,0.2c-0.3,0-0.8,0-1.6,0
	c-0.9-0.1-1.4-0.1-1.4,0c-0.1,0.1,0.1,0.2,0.5,0.3c0.7,0.1,1.2,0.3,1.6,0.6c0.4,0.3,0.6,0.7,0.7,1.2C178.1,46,178.2,46.1,178.2,46.1
	z M184.3,41.4c-1.7,0-2.6,0-2.7-0.1c-0.2-0.1-0.3-0.4-0.4-0.8c0-0.4,0.1-0.7,0.3-0.8c0.1-0.1,1.2-0.1,3.2-0.1c2,0,3.1,0.1,3.2,0.1
	c0.2,0.1,0.1,0.3-0.1,0.7c-0.2,0.4-0.5,0.7-0.8,0.8C186.9,41.4,186,41.4,184.3,41.4z M188.9,35.8c0.3,0.1,0.5,0.1,0.5,0.1
	c0,0,0.1-0.1,0.2-0.3c0.2-0.7,0.6-1.1,1.1-1.3c0.3-0.2,0.3-0.3-0.1-0.4c-1.5-0.2-2.5-0.4-3-0.5c-0.6-0.2-0.9-0.3-0.9-0.6
	c0-0.2,0.2-0.5,0.6-0.9c0.4-0.4,0.7-0.8,0.9-1c0.2-0.2,0.4-0.3,0.6-0.4c0.2-0.1,0.3-0.1,0.3-0.2c0-0.1-0.1-0.3-0.3-0.5
	c-0.3-0.3-0.4-0.5-0.4-0.6c0-0.1,0.3-0.2,0.7-0.3c0.6-0.1,1.1-0.3,1.3-0.6c0.2-0.3,0.2-0.6-0.1-1c-0.2-0.2-0.3-0.5-0.4-0.9
	c0-0.6-0.2-0.6-0.4,0c-0.1,0.4-0.4,0.7-0.7,0.8c-0.4,0.2-0.7,0.2-1,0c-0.2-0.1-0.3-0.4-0.3-0.8c0-0.4,0.2-0.7,0.4-0.8
	c0.2-0.1,0.3-0.2,0.2-0.3c-0.1-0.1-0.3-0.4-0.7-0.8c-0.4-0.4-0.7-0.6-0.8-0.6c-0.1,0-0.3,0.1-0.6,0.5c-0.4,0.5-0.8,0.7-1.2,0.7
	c-0.5,0-1.2-0.2-2.1-0.6c-0.1,0-0.2-0.1-0.3-0.1c-0.3-0.2-0.5-0.2-0.6-0.1c0,0.1-0.1,0.3-0.1,0.8c0,0.2,0,0.3,0,0.5
	c0,1-0.1,1.8-0.3,2.4c-0.2,0.5-0.5,1-1,1.4c-0.2,0.1-0.3,0.3-0.2,0.4c0,0.1,0.1,0.1,0.3,0.1c0.2,0,0.4,0.1,0.6,0.6
	c0.2,0.3,0.3,0.4,0.4,0.3c0.1-0.1,0.3-0.1,0.5,0c0.2,0.1,0.4,0.3,0.6,0.6c0.1,0.3,0.3,0.5,0.6,0.9c0.4,0.5,0.4,0.9,0,1.3
	c-0.3,0.3-1.1,0.7-2.4,1.2c-0.4,0.1-0.6,0.3-0.6,0.3c0,0.2,0.1,0.2,0.4,0.2c1.1-0.2,2.2-0.5,3.3-0.9c0.4-0.2,0.7-0.2,0.9-0.2
	c0.2,0,0.4,0.1,0.7,0.3c1,0.6,2.1,1.1,3.5,1.6C188.8,35.8,188.8,35.8,188.9,35.8z M177.2,34.8c-0.3,0.2-0.6,0.2-0.8,0
	c-0.2-0.2-0.4-0.6-0.4-1.1c0-0.5,0.1-0.8,0.3-1c0.2-0.2,0.5-0.2,0.8,0c0.2,0.1,0.3,0.4,0.3,1C177.5,34.4,177.4,34.7,177.2,34.8z
	 M173.8,34.9c-0.2,0.1-0.5,0.1-0.7,0c-0.2-0.1-0.3-0.2-0.4-0.4c0-0.2,0.1-0.3,0.3-0.5c0.2-0.1,0.2-0.2,0.2-0.3
	c0-0.1-0.2-0.2-0.5-0.3c-0.9-0.4-0.8-0.7,0.4-0.7c0.5,0,0.8,0.1,0.9,0.2c0.1,0.1,0.2,0.5,0.1,1C174.1,34.5,174,34.8,173.8,34.9z
	 M177.9,32c-0.5,0.2-0.9,0.2-1.4,0c-0.4-0.2-0.6-0.5-0.3-0.8c0.1-0.2,0.4-0.2,0.8-0.2c0.4,0,0.6,0.1,0.7,0.3c0,0.1,0.1,0.1,0.2,0.2
	c0.1,0,0.2,0.1,0.2,0.2C178.1,31.8,178,31.9,177.9,32z M173.8,32c-0.2,0.1-0.5,0.2-1,0.1c-0.5,0-0.8-0.1-0.8-0.3
	c0-0.1,0.1-0.2,0.3-0.4c0.2-0.2,0.4-0.3,0.5-0.4c0.3-0.1,0.6-0.1,0.8,0c0.3,0.1,0.4,0.2,0.5,0.4C174.1,31.7,174.1,31.8,173.8,32z
	 M185,31.8c-0.2,0.1-0.4,0.2-0.5,0.1c-0.2,0-0.4-0.2-0.6-0.4c-0.7-0.5-0.9-0.9-0.6-1.1c0.1-0.1,0.4-0.1,1.1-0.1c0.7,0,1.1,0,1.2,0
	c0.2,0.1,0.2,0.3,0.1,0.6C185.5,31.4,185.3,31.6,185,31.8z M177.5,30.2c-0.2,0.2-0.5,0.2-0.8,0.2c-0.4-0.1-0.6-0.2-0.6-0.5
	c0-0.4,0.3-0.6,0.8-0.6c0.4,0,0.6,0.1,0.7,0.3C177.7,29.8,177.7,30,177.5,30.2z M173.8,30.3c-0.2,0.1-0.4,0.1-0.7,0.1
	c-0.3,0-0.5-0.1-0.5-0.2c-0.1-0.3-0.1-0.5,0.2-0.6c0.3-0.2,0.6-0.2,0.9-0.1c0.2,0.1,0.3,0.2,0.4,0.4C174.1,30,174,30.2,173.8,30.3z
	 M184.6,29.8c-0.8,0-1.5,0-2,0c-0.5,0-0.9-0.1-1-0.2c-0.1-0.1,0-0.3,0.2-0.5c0.5-0.4,0.9-0.9,1.2-1.2c0.2-0.4,0.4-0.8,0.5-1.4
	c0.1-0.3,0.2-0.6,0.3-0.6c0.1-0.1,0.4-0.1,0.8-0.1c0.5,0,0.8,0.1,0.9,0.2c0.1,0.1,0.2,0.6,0.2,1.3c0,0.6,0,1,0.1,1.2
	c0.1,0.2,0.2,0.3,0.4,0.5c0.3,0.1,0.4,0.3,0.4,0.5c0,0.2-0.2,0.3-0.5,0.4C186,29.7,185.5,29.8,184.6,29.8z M177.3,28.6
	c-0.2,0.1-0.4,0.1-0.7,0s-0.4-0.1-0.5-0.3c-0.1-0.3-0.1-0.5,0.2-0.6c0.3-0.2,0.6-0.2,1-0.1c0.2,0.1,0.3,0.2,0.3,0.4
	C177.6,28.4,177.6,28.6,177.3,28.6z M173.9,28.5c-0.1,0.1-0.3,0.2-0.6,0.2c-0.3,0-0.5-0.1-0.6-0.2c-0.2-0.2-0.2-0.4,0-0.5
	c0.1-0.2,0.4-0.3,0.7-0.3c0.3,0,0.6,0.1,0.7,0.3C174.1,28.2,174.1,28.3,173.9,28.5z M177.3,27c-0.4,0.1-0.7,0.1-1,0
	c-0.3-0.2-0.4-0.4-0.2-0.6c0.1-0.2,0.4-0.3,0.8-0.3c0.5,0,0.7,0.1,0.8,0.2c0,0.1,0,0.2-0.1,0.4C177.6,26.8,177.5,26.9,177.3,27z
	 M173.8,27c-0.3,0.1-0.7,0.1-1.3,0c-0.6-0.2-0.9-0.3-0.9-0.6c0-0.1,0.3-0.2,0.8-0.3c0.5-0.1,1-0.1,1.2,0c0.2,0.1,0.3,0.2,0.4,0.4
	C174.1,26.7,174,26.9,173.8,27z M215.8,45.2c0.9,0.7,1.3,0.9,1.3,0.6c0-0.3,0.2-0.6,0.6-1c0.4-0.4,0.7-0.7,1.1-0.9
	c0.3-0.1,0.4-0.2,0.4-0.3c0-0.1-0.2-0.2-0.5-0.3c-1.3-0.5-2.5-1.3-3.7-2.3c-0.4-0.3-0.6-0.6-0.6-0.7c0-0.2,0.1-0.5,0.3-0.9
	c1-1.7,1.7-3.6,2.3-5.7c0.1-0.6,0.3-1,0.4-1.1c0.1-0.2,0.2-0.3,0.5-0.3c0.3-0.1,0.4-0.2,0.3-0.4c-0.1-0.2-0.3-0.5-0.8-1
	c-0.5-0.5-0.8-0.8-1-0.8c-0.1,0-0.4,0.1-0.7,0.5c0,0-0.1,0.1-0.2,0.2c-0.3,0.3-0.5,0.4-0.7,0.5s-0.9,0.1-1.9,0.1c-0.3,0-0.5,0-0.7,0
	c-0.2,0-0.5,0-0.9,0c-0.8,0-1.3,0-1.6,0c-0.3,0-0.5-0.2-0.6-0.4c0-0.2-0.1-0.6,0-1.2c0-0.3,0-0.5,0-0.7c0-0.2,0-0.5,0-0.8
	c0-0.6,0-0.9,0.1-1.1c0.1-0.2,0.4-0.4,0.8-0.4c0.3,0,1.1,0,2.3,0c0.7,0,1.2,0,1.7,0c1.8,0,2.9,0,3.4,0c0.7,0,1.1,0,1.2-0.1
	c0.1,0,0.2-0.1,0.2-0.2c0.1-0.3-0.4-0.8-1.3-1.5c-0.4-0.3-0.7-0.5-0.8-0.5c-0.1,0-0.3,0.2-0.6,0.6l0,0c0,0-0.1,0.1-0.1,0.2
	c-0.2,0.4-0.5,0.6-0.7,0.7c-0.3,0.1-1,0.1-2.2,0.1c-0.3,0-0.5,0-0.6,0s-0.3,0-0.6,0c-1.1,0-1.8,0-2.1,0c-0.3,0-0.7-0.2-1.2-0.4
	c-0.1-0.1-0.3-0.1-0.4-0.1c0,0-0.1,0-0.2-0.1c-0.4-0.2-0.7-0.2-0.7-0.2c-0.1,0-0.1,0.2-0.1,0.5c0,0.1,0,0.1,0,0.1
	c0,0.6,0.1,1.3,0.1,2.2c0,0.9,0,1.4,0,1.5c-0.1,0.2-0.2,0.2-0.3,0.2c-0.1,0-0.4-0.3-0.8-0.7l0,0c-0.5-0.5-0.8-0.7-1-0.7
	c-0.1,0-0.3,0.2-0.6,0.6c-0.3,0.5-0.6,0.7-0.7,0.7c-0.2,0-0.3-0.7-0.3-2c0-1.4,0.1-2.1,0.4-2.3c0.3-0.2,0.2-0.4-0.1-0.5
	c-0.3-0.2-1-0.4-2-0.6c-0.3-0.1-0.4-0.1-0.5,0c0,0,0,0.2,0,0.5c0.2,1.3,0.2,2.5,0.2,3.5c0,1-0.1,1.5-0.3,1.7
	c-0.1,0.1-0.6,0.1-1.5,0.1c-0.8,0-1.4-0.1-1.8-0.2c-0.2,0-0.2,0.2,0.1,0.6l0,0c0.1,0.3,0.2,0.4,0.3,0.5c0,0,0.1,0,0.3,0h0
	c0.4-0.1,0.8-0.2,1.2-0.2c0.4,0,0.7,0,0.9,0s0.2,0.2,0.2,0.4c0,0.2,0,0.5-0.1,0.9c-0.7,3.3-1.7,6-3,8.1c-0.2,0.3-0.2,0.4-0.3,0.5
	c0,0.1,0,0.1,0.1,0.2c0.1,0.1,0.4-0.2,1-0.8c0.6-0.6,1.2-1.4,1.7-2.3c0.3-0.5,0.5-0.8,0.7-0.9c0.1-0.1,0.2,0,0.3,0.2
	c0.1,0.2,0.1,1.2,0.1,3c0,1.8-0.1,3.4-0.2,4.7c0,0.6-0.1,1-0.1,1.2c0,0.1,0,0.2,0.1,0.3c0.1,0.1,0.2,0.2,0.3,0.2
	c0.2,0.1,0.6,0,1-0.1c0.4-0.1,0.7-0.3,0.9-0.5c0.1-0.1,0.1-0.2,0.1-0.3c0-0.1,0-0.5,0-1.2c0-1-0.1-2.8-0.1-5.6c0-2.7,0-4.2,0-4.3
	c0.1-0.2,0.2-0.3,0.3-0.2s0.3,0.3,0.4,0.6c0.1,0.2,0.2,0.5,0.4,1c0.1,0.4,0.2,0.6,0.2,0.7c0,0.3,0.2,0.5,0.5,0.6
	c0.4,0.1,0.7,0,0.9-0.2c0.5-0.4,0.5-1.1,0.1-1.8c-0.4-0.8-1.1-1.4-2.1-2c-0.4-0.2-0.6-0.4-0.6-0.5c-0.1-0.1-0.1-0.4-0.1-0.9
	c0,0,0,0,0-0.1c0-0.5,0.1-0.8,0.2-0.9c0.1-0.1,0.6-0.1,1.5-0.1c0,0,0.1,0,0.1,0s0.1,0,0.1,0c0.9,0,1.4-0.1,1.5-0.1
	c0.1-0.1,0.2-0.1,0.2,0s0.1,0.1,0.1,0.3c0,0.1,0,0.9,0,2.2c0,1.3,0,2.2-0.1,2.4c0,0.3-0.1,0.7-0.1,1.2c-0.1,1.6-0.4,3.3-0.8,4.9
	c-0.4,1.6-1,3-1.7,4.2c-0.1,0.2-0.2,0.4-0.2,0.5c0,0.1,0,0.1,0.1,0.1c0.1,0.1,0.5-0.2,1.1-1c0.6-0.7,1.1-1.4,1.5-2.2
	c0.7-1.2,1.2-2.5,1.5-4c0.3-1.5,0.6-3.2,0.7-5.4v0c0-0.7,0.1-1,0.1-1.2c0-0.1,0.1-0.2,0.3-0.3c0.2-0.1,0.3,0,0.4,0.1
	c0.1,0.1,0.2,0.4,0.2,0.9c0.3,2.2,0.9,4.3,1.6,6.2c0.3,0.6,0.4,1,0.3,1.2c0,0.2-0.3,0.6-0.8,1.3c-1.2,1.5-2.6,2.7-4.2,3.7l0,0
	c-0.2,0.1-0.4,0.2-0.4,0.3c0,0,0,0.1,0,0.2c0.1,0.2,0.9,0,2.2-0.8c1.4-0.8,2.4-1.5,3.2-2.2c0.5-0.5,0.9-0.7,1-0.7
	c0.2,0,0.4,0.3,0.8,0.8C214.2,43.7,214.9,44.5,215.8,45.2z M213.1,38.1c-0.3,0.3-0.7,0-1.2-1c-0.5-1-1-2.3-1.4-3.8c0,0,0-0.1,0-0.1
	c-0.1-0.5-0.2-0.8-0.1-0.9c0-0.2,0.2-0.3,0.5-0.3c0.2,0,0.7,0,1.6,0c0.1,0,0.2,0,0.2,0c1.1,0,1.7,0,1.9,0c0.2,0,0.3,0.1,0.4,0.3
	c0.1,0.3-0.1,1.3-0.6,2.9C213.7,36.9,213.3,37.8,213.1,38.1z M232.4,46c0.1,0.3,1,0.1,2.7-0.6c1.7-0.7,3.1-1.4,4.2-2.2
	c0,0,0,0,0.1-0.1c0.4-0.3,0.7-0.4,0.8-0.4c0.2,0,0.5,0.3,1,0.8c0,0,0.1,0.1,0.1,0.1c0.9,0.9,1.8,1.7,3,2.3c0.3,0.2,0.4,0.3,0.5,0.3
	c0,0,0.1-0.1,0.2-0.2c0.4-0.8,0.9-1.3,1.7-1.6c0.2-0.1,0.3-0.2,0.3-0.2c0-0.1-0.3-0.2-0.7-0.4c-0.8-0.3-1.6-0.7-2.5-1.3
	c-0.9-0.6-1.5-1-1.7-1.2c-0.1-0.2-0.1-0.3-0.1-0.5c0.1-0.2,0.3-0.5,0.7-1c0.9-1.2,1.7-2.8,2.4-4.6c0.2-0.4,0.4-0.7,0.7-0.7
	c0.3-0.1,0.4-0.2,0.4-0.4c0-0.2-0.3-0.5-0.8-1c-0.5-0.5-0.9-0.8-1.1-0.8c-0.1,0-0.4,0.1-0.7,0.5c-0.3,0.3-0.5,0.5-0.7,0.6
	c-0.1,0.1-0.3,0.1-0.5,0.1c-0.3,0-0.5-0.1-0.6-0.3c-0.1-0.2-0.1-0.8-0.1-1.8c0-0.1,0-0.3,0-0.6c0-0.6,0-0.9,0-1.1
	c0.1-0.2,0.2-0.3,0.5-0.4c0.2,0,0.7,0,1.4,0c0.3,0,0.5,0,0.7,0c1.6,0,2.4-0.1,2.5-0.3c0.1-0.2-0.4-0.8-1.5-1.6
	c-0.3-0.2-0.5-0.4-0.6-0.3c-0.1,0-0.3,0.2-0.5,0.5l0,0c-0.4,0.5-0.6,0.8-0.7,0.9c-0.1,0.1-0.4,0.1-0.8,0.1c-0.4,0-0.7-0.1-0.8-0.2
	c-0.1-0.2-0.1-0.7-0.1-1.5c0-0.7,0-1.2,0-1.4c0-0.2,0.1-0.4,0.3-0.4c0.2-0.1,0.2-0.3-0.1-0.5c-0.3-0.2-0.9-0.4-1.8-0.6
	c-0.4-0.1-0.7-0.2-0.8-0.1c-0.1,0-0.1,0.1-0.1,0.2c0.2,1.2,0.2,2.2,0.2,3c0,0.8-0.1,1.3-0.3,1.4c-0.1,0.1-0.7,0.1-1.8,0
	c-1.1,0-1.8-0.1-2.1-0.1c-0.2,0-0.2,0-0.1,0.3c0.1,0.3,0.1,0.4,0,0.5c-0.1,0-0.3,0-0.6-0.2c-0.2-0.1-0.4-0.2-0.5-0.1
	c-0.1,0-0.3,0.2-0.5,0.6c-0.5,0.7-0.9,1-1.3,0.9c-0.4-0.1-0.5-0.6-0.5-1.4c0,0,0-0.1,0-0.2c0-0.4,0-0.7,0.1-0.8
	c0.1-0.2,0.2-0.3,0.5-0.3c0.2,0,0.7,0,1.4,0c0.2,0,0.3,0,0.4,0c1,0,1.6,0,1.9-0.1c0.4,0,0.5-0.2,0.5-0.3c0-0.1-0.2-0.4-0.6-0.8
	c-0.7-0.6-1.1-1-1.3-1c-0.2,0-0.4,0.2-0.7,0.6c-0.6,0.8-1.2,1.1-1.8,0.8c-0.3-0.1-0.4-0.4-0.4-0.8s0.1-0.8,0.3-1
	c0.2-0.2,0.2-0.3,0-0.4c-0.2-0.1-0.7-0.3-1.5-0.5c-0.2,0-0.4-0.1-0.7-0.2c-0.1,0-0.2,0-0.2,0c-0.1,0-0.2,0-0.2,0.1
	c0,0.1,0,0.3,0,0.6c0.1,0.8,0.1,1.4,0,1.7c0,0.3-0.1,0.5-0.3,0.6c-0.1,0.1-0.6,0.1-1.7,0c-1,0-1.7-0.1-2-0.1c-0.2,0-0.2,0.2,0.1,0.6
	c0.1,0.3,0.2,0.5,0.3,0.5c0.1,0,0.3,0,0.7-0.1c1.2-0.2,2-0.3,2.4-0.1c0.4,0.1,0.6,0.6,0.6,1.3c0,0.7-0.2,1.1-0.6,1.3
	c-0.4,0.1-1.3,0.1-2.7,0c-0.3,0-0.4,0-0.5,0c0,0,0,0.2,0.2,0.5l0,0c0.1,0.3,0.2,0.4,0.3,0.5c0.1,0,0.3,0,0.6,0
	c0.7-0.1,1.3-0.2,1.8-0.2c0.6,0,1.7,0,3.6,0c1.8,0,2.8,0,3.1,0c0.3,0,0.5-0.1,0.6-0.1c0.1-0.1,0.1-0.1,0.1-0.2c0,0,0-0.2-0.1-0.3
	c-0.2-0.3-0.2-0.6-0.1-0.7c0.2-0.1,0.7-0.2,1.6-0.3c0.8-0.1,1.3-0.1,1.5-0.1c0.3,0,0.5,0.2,0.6,0.5c0,0.2,0.1,0.8,0.1,1.6
	c0,0.1,0,0.3,0,0.5c0,0.6,0,1,0,1.2c-0.1,0.2-0.2,0.4-0.4,0.4c-0.2,0-0.5,0-1.1,0c-0.2,0-0.4,0-0.5,0c-0.8,0-1.3,0-1.5-0.1
	c-0.2-0.1-0.6-0.3-1.1-0.7c0,0-0.1-0.1-0.2-0.1c-0.5-0.4-0.8-0.6-0.9-0.6c-0.1,0-0.2,0-0.4,0.2c0,0-0.1,0.1-0.1,0.1c0,0,0,0-0.1,0.1
	c-0.2,0.3-0.5,0.4-0.7,0.5c-0.2,0-0.8,0.1-1.7,0.1c-0.1,0-0.2,0-0.2,0c-1,0-1.6,0-1.8,0c-0.2,0-0.6-0.2-1.2-0.4
	c-0.1,0-0.2-0.1-0.3-0.1c-0.4-0.2-0.7-0.3-0.8-0.3c-0.1,0-0.1,0.2,0,0.5c0,0.1,0,0.1,0,0.2c0,0.4,0.1,1.4,0.1,3.2c0,1,0,1.6,0,1.9
	c0,0.4,0,0.6,0.1,0.7c0,0,0.1,0.1,0.2,0h0c0.7-0.1,1.1,0.8,1.4,2.6c0.1,0.4,0.1,0.6,0.1,0.7c0,0.1,0.2,0.2,0.4,0.3
	c0.3,0.2,0.4,0.3,0.4,0.3c0,0.2-0.8,0.4-2.3,0.6c-0.2,0-0.4,0.1-0.7,0.1c-0.2,0-0.4,0-0.4,0c-0.1,0-0.2,0.1-0.1,0.3
	c0,0.1,0.2,0.5,0.5,1.2c0.3,0.8,0.6,1.2,0.6,1.3c0.1,0.1,0.2,0,0.4-0.2c0.1-0.2,0.8-0.5,2.1-1c2-0.8,3.7-1.4,5.1-2.1
	c1.4-0.6,2.2-1,2.2-1.1s-0.1-0.1-0.2-0.1c-0.1,0-0.6,0.1-1.4,0.2c-0.1,0-0.2,0-0.3,0.1c-1,0.2-1.6,0.2-1.7,0.2
	c-0.2,0-0.3-0.1-0.2-0.3c0-0.1,0.1-0.4,0.4-0.7c0.3-0.4,0.5-0.6,0.6-0.9c0.4-0.5,0.6-0.8,0.8-0.9c0.2-0.1,0.2-0.2,0.2-0.2
	c0-0.1-0.1-0.1-0.3-0.2c-0.5-0.2-0.4-0.5,0.2-0.8c0,0,0.1,0,0.1-0.1c0.2-0.1,0.4-0.2,0.4-0.4c0-0.1,0-0.6,0-1.2c0-0.1,0-0.2,0-0.2
	c0-0.8,0-1.4,0-1.6c0-0.2,0.1-0.4,0.2-0.6c0.3-0.3,0.6-0.3,0.6,0c0,0.1,0.1,0.2,0.2,0.3c0.1,0,0.2,0,0.5,0c0.4,0,0.6,0,0.7,0.1
	s0.2,0.4,0.3,0.8c0.4,2,0.9,3.7,1.6,5c0.2,0.4,0.3,0.7,0.3,0.9c0,0.2-0.1,0.4-0.3,0.6c-0.6,0.7-1.4,1.4-2.6,2.2
	c-1.1,0.8-2.2,1.4-3.3,1.8c0,0,0,0-0.1,0c-0.2,0.1-0.4,0.2-0.4,0.2S232.4,45.9,232.4,46z M230,42.4c-0.4,0-0.6,0-0.6,0
	c0,0,0-0.2,0.2-0.4c0.4-0.4,0.5-1,0.3-1.5c-0.2-0.6-0.6-1.1-1.3-1.6c-0.5-0.3-0.6-0.6-0.4-0.9c0.1-0.1,0.1-0.2,0.1-0.2
	c0-0.1,0.1-0.2,0.2-0.3c0.1-0.1,0.8-0.2,2-0.2s1.9,0,2,0.1c0.2,0.2,0.2,0.4,0.1,0.6c-0.1,0.2-0.3,0.2-0.6,0.1c-0.1,0-0.2,0-0.3,0
	c0,0,0,0.2,0,0.5c0,0.4,0,1-0.1,1.7c-0.1,0.7-0.2,1.2-0.3,1.5c-0.1,0.3-0.2,0.5-0.5,0.6C230.5,42.3,230.2,42.4,230,42.4z
	 M240.5,39.3c-0.2,0.1-0.3,0.1-0.5,0c-0.4-0.3-0.9-1.1-1.6-2.5c-0.7-1.4-0.9-2.2-0.7-2.4c0.1-0.1,0.2-0.2,0.5-0.2c0.2,0,0.9,0,2,0
	c1.2,0,1.8,0,2,0c0.2,0,0.3,0.1,0.4,0.3c0.1,0.3-0.2,1.1-0.7,2.5C241.2,38.2,240.8,39,240.5,39.3z M230.5,36.5c-1.1,0-1.7,0-1.8-0.1
	c-0.2-0.1-0.4-0.6-0.4-1.4c0-0.8,0.1-1.3,0.3-1.5c0.1-0.1,0.7-0.1,1.8-0.1c1.1,0,1.8,0,1.9,0.1c0.2,0.1,0.4,0.6,0.3,1.5
	c0,0.8-0.1,1.3-0.4,1.4C232.2,36.5,231.6,36.5,230.5,36.5z M257.2,45.4c0,0,0.3,0,0.9,0c0.7-0.1,1.5-0.2,2.3-0.2c0.8,0,2.9,0,6.4,0
	c4.5,0,6.8,0,7,0c0.3-0.1,0.4-0.2,0.3-0.5c-0.1-0.2-0.5-0.6-1.1-1.1c0,0-0.1,0-0.1-0.1c-0.6-0.5-1-0.7-1.1-0.7
	c-0.2,0-0.4,0.2-0.8,0.7c0,0-0.1,0.1-0.1,0.1c0,0-0.1,0.1-0.1,0.2c-0.3,0.4-0.5,0.6-0.7,0.6c-0.2,0.1-0.6,0.1-1.4,0.1
	c-0.1,0-0.2,0-0.3,0c-0.2,0-0.4,0-0.6,0c-0.5,0-0.9,0-1-0.1c-0.2-0.1-0.3-0.4-0.4-0.8c0-0.3,0-1,0-2.1c0-0.5,0-1,0-1.3
	c0-0.4,0-0.9,0-1.5c0-1,0-1.7,0-2c0.1-0.4,0.2-0.6,0.5-0.7c0.2-0.1,0.7-0.1,1.4-0.1c0.4,0,0.8,0,1.1,0c1.3,0,2.2-0.1,2.5-0.1
	c0.4-0.1,0.6-0.3,0.4-0.5c-0.2-0.2-0.6-0.6-1.5-1.2c0,0-0.1,0-0.1-0.1c-0.4-0.3-0.6-0.4-0.7-0.3c-0.1,0-0.3,0.2-0.7,0.6
	c0,0-0.1,0.1-0.1,0.1c0,0.1-0.1,0.2-0.2,0.3c-0.2,0.2-0.3,0.4-0.4,0.5c-0.2,0.1-0.5,0.2-0.9,0.2c-0.3,0-1,0-2.1,0
	c-0.4,0-0.8,0-1.1,0c-0.2,0-0.5,0-0.9,0c-1.3,0-2.2,0-2.5,0c-0.5,0-0.8-0.1-0.9-0.2c0-0.1,0-0.3,0.1-0.6c0-0.1,0.1-0.1,0.1-0.2
	c0.5-1.4,0.8-2.5,1-3.1c0-0.1,0.1-0.3,0.1-0.5c0.1-0.4,0.2-0.6,0.3-0.7c0.2-0.1,0.6-0.2,1.1-0.3c0.4,0,1.4,0,2.9,0c0.8,0,1.5,0,2,0
	c3,0,4.7,0,5.2,0c0.5,0,0.8-0.1,0.9-0.2c0.1-0.1-0.1-0.4-0.4-0.7c-0.4-0.4-0.9-0.8-1.5-1.3c-0.3-0.2-0.4-0.2-0.6-0.2
	c-0.1,0-0.4,0.3-0.7,0.8c0,0.1-0.1,0.2-0.2,0.3c-0.2,0.2-0.3,0.4-0.4,0.5c-0.2,0.1-0.4,0.2-0.9,0.2c-0.3,0-1,0-2,0c-0.4,0-0.8,0-1,0
	c-0.3,0-0.7,0-1.2,0c-1.1,0-1.9,0-2.2,0c-0.4,0-0.7-0.2-0.7-0.3c0-0.1,0-0.4,0.1-0.9c0-0.2,0.1-0.4,0.1-0.5c0.1-0.6,0.2-1.1,0.3-1.6
	c0.1-0.4,0.2-0.6,0.2-0.7c0.1-0.1,0.2-0.2,0.4-0.3c0.2-0.1,0.3-0.1,0.4-0.2c0.1-0.1,0.1-0.2,0-0.2c0,0-0.6-0.1-1.8-0.3
	c-1.2-0.2-1.7-0.3-1.8-0.2c0,0,0,0.4,0,1.2c0,2.5-0.3,3.9-0.7,4.1c-0.2,0.1-1.1,0.1-2.9,0.1c-1.7,0-2.8-0.1-3.3-0.2
	c-0.1,0-0.2,0-0.2,0.1c0,0.1,0.1,0.2,0.2,0.5c0,0,0,0,0,0.1c0.1,0.2,0.2,0.4,0.3,0.4c0.1,0,0.3,0,0.7,0c0.1,0,0.2,0,0.3,0
	c0.9-0.1,1.9-0.2,3.1-0.2c0,0,0,0,0.1,0c0.7,0,1.1,0,1.2,0c0.2,0,0.4,0.2,0.4,0.3c0,0.1,0,0.4-0.1,0.9c0,0,0,0.1,0,0.1
	c-0.6,2.6-1.4,4.9-2.4,7.2c-1,2.2-2.2,4-3.5,5.5c0,0.1-0.1,0.2-0.2,0.3c-0.2,0.2-0.3,0.3-0.3,0.3c-0.1,0.1-0.1,0.2-0.1,0.3
	c0.1,0.1,0.1,0.1,0.2,0c0.1,0,0.3-0.2,0.6-0.4c2.3-1.8,4.2-4.3,5.7-7.4c0,0,0,0,0-0.1c0.2-0.5,0.4-0.7,0.6-0.8
	c0.2-0.1,0.7-0.1,1.6-0.1c0.1,0,0.2,0,0.3,0c0.2,0,0.4,0,0.7,0c0.5,0,0.9,0,1,0.1c0.2,0.1,0.3,0.3,0.4,0.7c0,0.3,0,0.9,0,2
	c0,0.6,0,1,0,1.4c0,0.2,0,0.4,0,0.7c0,1.6,0,2.6,0,2.9c0,0.3-0.1,0.4-0.2,0.5l0,0c-0.2,0.1-1.2,0.1-3.2,0c-2,0-3.2-0.1-3.6-0.1
	c-0.1,0-0.2,0.1-0.1,0.3C256.9,44.9,257,45.2,257.2,45.4z M26.9,70.1c0.2,0,0.5,0,0.8,0c0.4,0,0.6-0.1,0.8-0.2
	c0.2-0.1,0.3-0.2,0.3-0.3c0-0.1,0.1-0.3,0.1-0.6c0,0,0-0.1,0-0.2c0-0.3,0-0.4,0.1-0.5c0.1-0.1,0.4-0.2,0.9-0.2c0.3,0,1.1,0,2.3,0
	c0.4,0,0.8,0,1.1,0c0.3,0,0.6,0,1,0c1.3,0,2.1,0,2.4,0c0.5,0,0.8,0.1,0.9,0.2c0.1,0.1,0.1,0.3,0.1,0.6c0,0.1,0,0.2,0,0.2
	c0,0.5,0.1,0.8,0.2,0.9c0.2,0.1,0.6,0.1,1.2-0.1c0.5-0.1,0.8-0.3,0.9-0.5c0.1-0.1,0.1-0.5,0.1-1.1C40,66.8,40,65.2,40,63.5
	c0-1.8,0-2.7,0.1-2.8c0.1-0.2,0.2-0.3,0.4-0.4c0.3-0.1,0.4-0.2,0.3-0.3c0-0.1-0.2-0.4-0.6-0.7c-0.7-0.7-1.1-1-1.3-1.1
	c-0.2,0-0.5,0.2-0.8,0.6c0,0-0.1,0.1-0.1,0.2c-0.1,0.2-0.3,0.3-0.4,0.4c-0.2,0.1-0.5,0.1-0.9,0.1c-0.3,0-1,0-2.2,0c-0.5,0-1,0-1.3,0
	c-2,0-3.2,0-3.6,0c-0.4,0-0.6-0.1-0.8-0.1c-0.5-0.2-0.8-0.3-0.9-0.5c-0.1-0.2,0-0.4,0.2-0.8c0.8-1.3,1.3-2.4,1.7-3.1
	c0.3-0.5,0.5-0.9,0.6-1c0.1,0,2.1-0.1,6-0.1c3,0,4.8,0,5.3,0c0.5,0,0.8-0.1,0.9-0.2c0.1-0.2-0.4-0.8-1.5-1.7l0,0
	c-0.4-0.4-0.7-0.5-0.9-0.5c-0.1,0-0.4,0.2-0.7,0.7c0,0-0.1,0.1-0.1,0.1c0,0.1-0.1,0.2-0.2,0.3c-0.2,0.3-0.4,0.5-0.5,0.6
	c-0.2,0.1-0.5,0.2-0.9,0.2c-0.3,0-1,0-2,0c-0.5,0-0.8,0-1.1,0c-0.2,0-0.5,0-0.9,0c-1.2,0-2,0-2.3,0c-0.4,0-0.7-0.1-0.8-0.3
	c0-0.1,0-0.4,0.2-0.8c0-0.1,0.1-0.2,0.1-0.3c0,0,0-0.1,0.1-0.3c0.2-0.5,0.3-0.9,0.3-1.1c0.2-0.6,0.3-0.9,0.4-1.1
	c0.1-0.2,0.2-0.3,0.4-0.4c0.3-0.1,0.3-0.3,0-0.4c-0.3-0.1-1-0.4-2.1-0.6c0,0-0.1,0-0.2,0c-0.4-0.1-0.6-0.1-0.6-0.1s-0.1,0.1-0.1,0.4
	c0,0.1,0,0.1,0,0.1c-0.1,1.2-0.2,2.3-0.5,3.3c-0.3,1-0.5,1.6-0.7,1.7c-0.2,0.1-1,0.1-2.5,0.1c-1.5,0-2.8,0-3.7-0.1
	c-0.3,0-0.4,0-0.5,0c0,0,0.1,0.2,0.2,0.5c0,0,0,0,0,0.1c0.1,0.2,0.2,0.4,0.3,0.4c0.1,0,0.3,0,0.6,0c0.1,0,0.1,0,0.2,0
	c0.8-0.1,1.7-0.2,2.9-0.2c1.2,0,1.8,0,2,0c0.3,0.2,0.2,0.8-0.3,2c-0.5,1.1-1.2,2.4-2.1,3.8c-1,1.5-1.9,2.7-2.9,3.6
	c-0.5,0.5-0.8,0.8-0.8,0.9c-0.1,0.1-0.1,0.2,0.1,0.2c0.2,0,0.7-0.3,1.5-0.9c0.8-0.7,1.6-1.3,2.3-2c0,0,0.1-0.1,0.1-0.1
	c0.5-0.4,0.8-0.7,0.9-0.8c0.2-0.1,0.3,0,0.3,0.3c0,0.2,0,0.8,0,1.6c0,0.1,0,0.2,0,0.3c0,1.9,0,3.6-0.1,5.3c0,0.8-0.1,1.4,0,1.5
	C26.5,69.9,26.7,70,26.9,70.1z M33.3,67.3c-2.6,0-4,0-4.2-0.1c-0.1-0.1-0.2-0.3-0.2-0.6c0-0.3,0-1.2,0-2.9c0-0.3,0-0.7,0-1.2
	c0-0.9,0-1.4,0.1-1.7c0.1-0.3,0.3-0.5,0.7-0.6c0.3-0.1,1-0.1,2.1-0.1c0.6,0,1.2,0,1.5,0s0.9,0,1.5,0c1.1,0,1.8,0,2.1,0.1
	c0.4,0.1,0.7,0.3,0.8,0.6c0.1,0.2,0.1,0.8,0.1,1.6c0,0.5,0,0.9,0,1.2c0,1.6,0,2.6,0,2.9c0,0.3-0.1,0.5-0.2,0.6
	C37.3,67.3,35.9,67.3,33.3,67.3z M58.1,61.9c0.1,0.2,0.2,0.3,0.4,0.3c0.2,0,0.5-0.2,0.9-0.6c0.9-0.7,1.6-1.6,2-2.8
	c0.4-1.1,0.4-2.1,0.1-2.9c-0.3-0.9-0.9-1.3-1.8-1.2c-0.6,0-1,0.3-1.3,0.7c-0.2,0.4-0.3,0.9-0.1,1.4c0.2,0.5,0.5,1,1.1,1.3
	c0.3,0.2,0.5,0.3,0.6,0.5c0.1,0.1,0.1,0.2,0.1,0.4c-0.1,0.4-0.3,0.8-0.6,1.3c-0.4,0.5-0.8,0.8-1.2,1.2c-0.2,0.1-0.3,0.2-0.3,0.3
	C57.9,61.6,58,61.7,58.1,61.9z M91.4,70.1c0,0.1,0.4,0.1,1.1-0.1c0.7-0.1,1.2-0.3,1.6-0.6c0.4-0.3,0.6-0.7,0.7-1.2
	c0.1-0.2,0.1-2.9,0.1-8.3c0-0.2,0-0.4,0-0.5c0-5.6,0-8.5,0.1-8.5c0.1-0.1,0.2-0.2,0.4-0.2c0.2,0,0.6-0.1,1.4-0.1
	c1.1,0,1.6-0.1,1.7-0.3c0-0.2-0.4-0.7-1.4-1.5c0,0,0,0-0.1-0.1c-0.5-0.4-0.8-0.6-1-0.6c-0.1,0-0.4,0.3-0.7,0.7c0,0-0.1,0.1-0.1,0.1
	c-0.4,0.5-0.7,0.8-0.9,0.9c-0.2,0-2.7,0-7.7,0c-5.2,0-8.3,0-9.3-0.1c-0.2,0-0.3,0-0.3,0c0,0,0.1,0.2,0.2,0.6c0,0,0,0.1,0,0.1
	c0.1,0.2,0.2,0.4,0.3,0.4c0.1,0,0.2,0,0.6,0c0.7-0.1,1.4-0.2,2.1-0.2c0.7,0,2.6,0,5.9,0c0.3,0,0.8,0,1.3,0c2.6,0,4.1,0,4.5,0
	c0.4,0,0.7,0.1,0.8,0.2l0,0c0.1,0.1,0.1,2.8,0.1,8.1s0,8-0.1,8.2c-0.1,0.2-0.3,0.3-0.6,0.4c-0.3,0-1.1,0-2.5-0.1
	c-0.8,0-1.3-0.1-1.4-0.1c-0.1,0-0.2,0.1-0.2,0.1c0,0.1,0.2,0.2,0.5,0.2c1.8,0.3,2.8,1,3,2.1l0,0C91.3,70,91.4,70,91.4,70.1z
	 M79.7,65.2c0.3,0.2,0.7,0.1,1.3-0.1c0.5-0.3,0.8-0.6,0.8-0.9c0,0,0,0,0-0.1c-0.1-0.6-0.1-1,0-1.2c0-0.2,0.2-0.4,0.6-0.4
	c0.2,0,0.8-0.1,1.7-0.1c0,0,0.1,0,0.1,0c0,0,0.1,0,0.2,0c0.8,0,1.3,0,1.5,0c0.3,0,0.5,0.1,0.6,0.3c0,0.1,0.1,0.3,0,0.6v0.1
	c0,0.5,0.1,0.8,0.4,0.9c0.3,0.1,0.8,0,1.4-0.4l0,0c0.3-0.1,0.4-0.2,0.4-0.4s0-0.4,0-1c0-0.6-0.1-1.8-0.1-3.6c0-1.8,0-2.8,0-2.9
	c0.1-0.3,0.2-0.5,0.5-0.6c0.3-0.1,0.4-0.2,0.3-0.4s-0.2-0.4-0.6-0.7c-0.7-0.6-1.1-1-1.3-1.1c-0.2-0.1-0.4,0.1-0.7,0.4
	c0,0-0.1,0.1-0.1,0.2c-0.2,0.3-0.5,0.5-0.6,0.6c-0.2,0-0.7,0.1-1.6,0.1c-0.2,0-0.4,0-0.5,0s-0.3,0-0.5,0c-0.8,0-1.4,0-1.6,0
	c-0.2,0-0.6-0.2-1.1-0.4c-0.1,0-0.2-0.1-0.2-0.1c0,0-0.1-0.1-0.2-0.1c-0.4-0.2-0.7-0.3-0.8-0.3c-0.1,0-0.1,0.2,0,0.5
	c0,0.1,0,0.1,0,0.1c0.1,1.1,0.2,2.7,0.2,4.6c0,1.9,0,3.6-0.1,5.2c0,0.4,0,0.7,0,0.8C79.5,65.1,79.6,65.2,79.7,65.2z M84.1,61.8
	c-1.3,0-2,0-2.1-0.1c-0.1-0.1-0.2-0.3-0.3-0.6c0-0.3,0-1.2,0-2.6c0-0.2,0-0.5,0-0.9c0-0.8,0-1.3,0-1.6c0.1-0.3,0.2-0.5,0.5-0.6
	c0.2,0,0.6-0.1,1.2,0c0.3,0,0.5,0,0.7,0s0.4,0,0.7,0c0.6,0,1,0,1.2,0c0.2,0.1,0.4,0.3,0.5,0.6c0,0.2,0,0.7,0,1.6c0,0.4,0,0.7,0,0.9
	c0,1.5,0,2.4,0,2.6c0,0.3-0.1,0.5-0.2,0.6C86,61.7,85.3,61.8,84.1,61.8z M110,70c0,0.1,0.2,0.1,0.5,0c0.3-0.1,0.9-0.3,1.8-0.6
	c2.8-1.1,5.2-2.5,7.1-4.4c0.4-0.4,0.7-0.6,0.8-0.7c0.2-0.1,0.4-0.1,0.6,0.1c0.1,0.1,0.4,0.5,0.9,1.1c0.8,1.1,1.5,2.2,2,3.2
	c0.3,0.5,0.4,0.8,0.5,0.9c0.1,0.1,0.3,0.2,0.6,0.3c0.6,0.1,0.9-0.1,1.2-0.6c0.2-0.5,0.2-1.1-0.1-1.8c-0.5-1.3-1.8-2.6-3.8-3.6
	c-0.5-0.3-0.8-0.5-0.9-0.6c0-0.2,0-0.5,0.3-0.9c0.7-1.3,1.3-2.8,1.6-4.3c0.3-1.5,0.6-3.6,0.7-6.3c0-0.6,0-1,0.1-1.2
	c0.1-0.2,0.2-0.3,0.3-0.4c0.3-0.2,0.3-0.3,0-0.4c-0.3-0.1-1-0.2-2.1-0.4c-0.4,0-0.7-0.1-0.8,0c-0.1,0-0.1,0.1-0.1,0.1
	c0.1,0.3,0.1,1.4,0.1,3.2c-0.1,4.1-0.9,7.5-2.5,10.1c-1.6,2.6-4.3,4.8-8,6.6c-0.5,0.2-0.7,0.4-0.8,0.4C110,69.8,110,69.9,110,70z
	 M105.8,68.1c0.1,0.1,0.2,0,0.3-0.1c0.2-0.2,0.4-0.4,0.6-0.5c0.2-0.1,0.8-0.4,1.6-0.9c1.8-0.9,3.5-1.8,5.1-2.7
	c1.6-1,2.5-1.5,2.5-1.6c0-0.1-0.1-0.1-0.3-0.1c-0.2,0-1,0.3-2.3,0.7c-1.4,0.4-2.2,0.7-2.5,0.8c-0.3,0.1-0.5,0.1-0.6,0
	c-0.1-0.1-0.2-0.5-0.2-1.1c0-0.7-0.1-2.7-0.1-5.9c0-0.3,0-0.8,0-1.4c0-1.9,0-3.2,0-3.7c0-0.7,0-1.2,0-1.4c0-0.1,0.1-0.3,0.2-0.3l0,0
	c0.2-0.2,0.2-0.3,0.1-0.4c-0.2-0.1-0.6-0.2-1.2-0.2c-0.9-0.1-1.3-0.1-1.3,0c0,0.1,0,2.6,0.1,7.3c0,0.3,0,0.6,0,1.1
	c0,3.3,0.1,5.3,0.1,5.9c0,0.6,0,0.9-0.1,1c-0.1,0.2-1,0.6-2.5,0.9c-0.4,0.1-0.5,0.1-0.5,0.2c0,0,0.2,0.4,0.5,1.2
	C105.6,67.6,105.8,68,105.8,68.1z M116.3,57.8c0.5,0.2,1,0,1.2-0.4c0.3-0.4,0.3-1,0-1.7c-0.5-1.4-1.9-2.6-4.2-3.5
	c-0.5-0.2-0.8-0.3-0.8-0.2c0,0.1,0.1,0.3,0.5,0.7c1.3,1.6,2.1,3,2.6,4.3C115.8,57.5,116,57.7,116.3,57.8z M136.9,70
	c0.1,0.1,0.1,0.1,0.2,0c0.1,0,0.4-0.1,0.8-0.3c2-0.8,3.7-1.8,4.9-3.1c1.2-1.3,2.2-3,2.9-5c0.7-2,1.1-4.6,1.3-7.8
	c0-0.2,0-0.6,0.1-1.1c0-0.2,0-0.4,0-0.5c0,0,0,0,0-0.1c0-0.4,0.1-0.6,0.1-0.7c0.1-0.1,0.2-0.2,0.5-0.2c0.2,0,0.6,0,1.3,0
	c0,0,0.1,0,0.1,0c0.1,0,0.3,0,0.5,0c0.6,0,1,0,1.2,0.1c0.2,0.1,0.3,0.4,0.4,0.9c0,0.3,0,1.1,0,2.3c0,0.4,0,0.7,0,1
	c-0.2,4.3-0.4,7.2-0.8,8.7c-0.3,1.5-0.8,2.4-1.5,2.5c-0.2,0-0.7,0-1.5,0s-1.4-0.1-1.6-0.1c-0.1,0-0.2,0-0.3,0.1s0,0.2,0.1,0.2
	c0,0,0.2,0,0.5,0.1c0.8,0.2,1.3,0.5,1.6,0.7c0.3,0.3,0.5,0.7,0.5,1.2c0,0.3,0.1,0.4,0.2,0.5c0.1,0,0.4,0,0.9-0.1
	c1-0.2,1.8-0.8,2.3-1.6c0.5-0.9,1-2.5,1.2-4.7c0.3-2,0.5-5.2,0.6-9.5c0-0.9,0.1-1.5,0.1-1.7c0.1-0.2,0.2-0.4,0.6-0.5
	c0.3-0.1,0.4-0.2,0.3-0.3c0-0.1-0.2-0.4-0.6-0.8c-0.8-0.8-1.2-1.1-1.4-1.1c-0.1,0-0.3,0.2-0.7,0.6c-0.4,0.4-0.7,0.7-0.8,0.7
	c-0.2,0.1-1.9,0.1-4.9,0c-3.1,0-4.8-0.1-5.2-0.2c-0.1,0-0.2,0-0.2,0c0,0,0.1,0.2,0.2,0.4c0.2,0.3,0.3,0.5,0.3,0.6
	c0.1,0.1,0.1,0.1,0.2,0.1c0,0,0.1,0,0.3,0c0.2,0,0.3-0.1,0.4-0.1c1.2-0.2,2-0.3,2.4-0.1c0.4,0.1,0.6,0.6,0.6,1.3
	c-0.1,4.7-0.8,8.3-2,11c-1.2,2.6-3,4.6-5.5,5.9c-0.3,0.1-0.4,0.2-0.5,0.3C136.8,69.9,136.8,70,136.9,70z M136.5,64.5
	c0.2,0,0.9,0.1,2.1,0c1.1,0,1.8-0.1,2.1-0.1c0.7-0.2,1.2-0.4,1.5-0.8c0.2-0.4,0.2-0.8-0.2-1.2c-0.2-0.2-0.3-0.4-0.3-0.5
	c0-0.2-0.1-0.6-0.1-1.4c0-0.9-0.1-1.4-0.1-1.4c-0.1-0.1-0.2,0.1-0.3,0.6c-0.2,1-0.4,1.6-0.5,1.9c-0.1,0.4-0.4,0.6-0.6,0.7
	c-0.2,0.1-0.6,0.1-1.3,0.1c-0.1,0-0.2,0-0.3,0c-0.4,0-0.6-0.1-0.7-0.1c-0.1-0.1-0.2-0.3-0.3-0.7c0-0.3,0-0.9,0-1.8
	c0-0.3,0-0.5,0-0.6c0-0.2,0-0.6,0-1c0-0.8,0-1.3,0-1.5c0.1-0.3,0.2-0.5,0.5-0.6c0.2-0.1,0.7-0.2,1.4-0.3c0.4-0.1,0.7-0.1,1-0.2
	c1.3-0.3,2.1-0.4,2.4-0.6c0.4-0.1,0.6-0.3,0.5-0.5c-0.1-0.1-0.5-0.4-1.1-0.9l0,0c-0.5-0.4-0.8-0.6-1-0.6c-0.2-0.1-0.4,0-0.5,0.1
	c-0.1,0.1-0.2,0.4-0.4,0.9l0,0c-0.2,0.5-0.3,0.8-0.5,0.9c-0.1,0.1-0.5,0.2-1,0.3c0,0-0.1,0-0.2,0c-0.4,0.1-0.7,0.1-0.8,0.1
	c-0.2-0.1-0.3-0.3-0.3-0.6c0-0.2,0-0.8,0-1.8c0-0.2,0-0.4,0-0.5c0-1.3,0-2,0-2.3c0-0.2,0.1-0.4,0.3-0.5c0.5-0.3-0.1-0.6-1.9-1.1
	c0,0,0,0-0.1,0c-0.3-0.1-0.4-0.1-0.5-0.1c0,0,0,0.2,0,0.5c0,0,0,0.1,0,0.1c0.1,0.8,0.1,2.1,0.1,3.8c0,1.7,0,2.6-0.1,2.8
	c-0.1,0.1-0.2,0.2-0.4,0.3c-0.2,0-0.6,0.1-1.2,0.3c0,0-0.1,0-0.2,0c-0.5,0.1-0.9,0.2-0.9,0.2c-0.1,0-0.1,0.2,0,0.3
	c0.1,0.1,0.2,0.2,0.2,0.2c0.1,0,0.4,0,0.8-0.1h0c0.1,0,0.2,0,0.4-0.1c0.5-0.1,0.8-0.1,0.9-0.1c0.2,0.1,0.3,0.3,0.3,0.7
	c0,0.3,0,1,0,2c0,0.4,0,0.7,0,0.9c0,1.5,0,2.5,0.1,2.9c0,0.6,0.2,1,0.3,1.2C135.8,64.3,136.1,64.4,136.5,64.5z M162.7,70.1
	c0,0,0.3,0,0.7,0c0.9-0.2,1.5-0.6,1.8-1.3c0.1-0.2,0.1-0.4,0.1-0.8c0-0.4,0-1.6,0-3.7c0-0.2,0-0.5,0-0.8c0-1.8,0-2.8,0-3.1
	c0-0.3,0.1-0.5,0.2-0.6l0.1,0c0,0,0.3-0.3,0.9-0.6c0.1-0.1,0.2-0.1,0.3-0.2c0.8-0.5,1.2-0.8,1.2-0.9c0-0.1-0.1-0.1-0.2-0.1
	c-0.1,0-0.4,0.1-0.9,0.2l0,0c-0.6,0.2-0.9,0.3-1.1,0.3c-0.2,0-0.3-0.1-0.4-0.4c0-0.2,0-0.7,0-1.5c0,0,0-0.1,0-0.1c0,0,0-0.1,0-0.1
	c0-0.7,0-1.2,0-1.4c0-0.3,0.1-0.5,0.3-0.5c0.1,0,0.4-0.1,0.8,0c0,0,0.1,0,0.1,0c0.7,0,1,0.1,1.1,0.3c0.1,0.2-0.1,0.5-0.6,1.1
	c-0.2,0.3-0.3,0.4-0.3,0.5c0.1,0.1,0.3,0,0.6-0.2c0.4-0.3,0.7-0.4,0.8-0.2c0.1,0.1,0.2,0.6,0.1,1.4c0,0.6,0,1.1,0,1.7
	c0,0.3,0,0.8,0,1.5c0,0.1,0,0.2,0,0.3c0,0.6,0,1,0.2,1.2c0.2,0.1,0.6,0.1,1.2-0.1c0.4-0.1,0.6-0.2,0.7-0.4c0.1-0.1,0.2-0.4,0.2-0.7
	c0-0.6,0.1-0.9,0.3-0.9c0.6,0,1.1-0.5,1.7-1.3c0.6-0.9,0.9-1.8,1.1-2.8c0.1-0.4,0.1-0.7,0.2-0.8c0.1-0.1,0.3-0.2,0.5-0.2
	c0.4,0,0.6,0.1,0.6,0.3c0.1,0.2,0.1,0.8,0.1,1.8c0,0,0,0.1,0,0.2c0,0.8,0,1.2,0.1,1.4c0.1,0.3,0.2,0.5,0.4,0.6
	c0.2,0,0.5,0.1,1.1,0.1c0.1,0,0.2,0,0.3,0c0,0,0.1,0,0.2,0c0.7,0,1.2,0.1,1.3,0.2c0.1,0.1,0.1,0.5,0.1,1.3c0,0.1,0,0.2,0,0.2
	c0,0.4,0,0.7,0,0.8c0,0.1,0.2,0.1,0.5,0.2c0.3,0,0.5,0.1,0.5,0.2c0,0.1,0,0.2-0.2,0.5c-0.3,0.5-0.5,0.8-0.8,0.9S177.9,63,177,63
	c-0.8,0-1.3,0-1.4,0c-0.2,0-0.3-0.1-0.4-0.3c-0.1-0.2-0.1-0.5,0-0.9c0.1-0.4,0.2-0.7,0.4-0.8c0.2-0.2,0.2-0.3,0-0.4
	c-0.2-0.1-0.7-0.2-1.4-0.3c-0.1,0-0.2,0-0.3,0c-0.4-0.1-0.7-0.1-0.8,0c-0.1,0.1-0.1,0.3-0.1,0.7c0,0.1,0,0.2,0,0.3
	c0,0.7-0.1,1.1-0.1,1.3c0,0.2-0.2,0.3-0.4,0.4c-0.1,0-0.9,0.1-2.1,0c-1.3,0-2.3-0.1-2.9-0.1c-0.3,0-0.4,0-0.5,0c0,0,0,0.2,0.2,0.5
	c0.1,0.3,0.2,0.5,0.3,0.6c0,0,0.3,0,0.8-0.1c1.6-0.2,2.7-0.3,3.3-0.2c0.7,0.1,1,0.3,0.9,0.6c-0.2,0.9-0.8,1.8-1.8,2.7
	c-1,0.9-2.2,1.7-3.6,2.3c-0.4,0.2-0.6,0.3-0.7,0.3c-0.1,0.1-0.1,0.1,0,0.2c0,0.1,0.1,0.1,0.2,0.1c0.1,0,0.3,0,0.6-0.1
	c2-0.6,3.6-1.3,4.8-2.1c1.2-0.8,2-1.8,2.5-3c0.2-0.4,0.4-0.7,0.5-0.6c0.1,0,0.3,0.2,0.5,0.7c0.9,2.2,2.4,3.8,4.4,4.9
	c0.3,0.2,0.5,0.2,0.6,0.2s0.1-0.1,0.2-0.3c0.2-0.8,0.6-1.3,1.3-1.5c0.6-0.2,0.5-0.4-0.2-0.5c-1.4-0.4-2.7-0.9-4-1.7
	c-1.3-0.8-1.9-1.4-1.9-1.9c0-0.1,0-0.2,0.1-0.2c0.1,0,0.4-0.1,0.8-0.1c0.3,0,1,0,2.1,0c1.4,0,2.3,0,2.7-0.1c0.5-0.1,0.7-0.3,0.5-0.6
	c-0.1-0.2-0.6-0.6-1.4-1.3c-0.3-0.2-0.4-0.4-0.5-0.4c0-0.1,0.1-0.2,0.2-0.4c0.1-0.1,0.2-0.2,0.2-0.4c0-0.1,0-0.5,0-1
	c-0.1-1.8-0.1-3-0.1-3.8c0-0.7,0.2-1.2,0.4-1.3c0.3-0.2,0.4-0.3,0.4-0.4c0-0.1-0.2-0.3-0.5-0.6c-0.3-0.3-0.7-0.6-1.1-0.9
	c-0.2-0.2-0.4-0.2-0.5-0.2c-0.1,0-0.3,0.2-0.5,0.6c-0.2,0.3-0.4,0.5-0.5,0.5c-0.1,0-0.6,0.1-1.3,0.1c-0.7,0-1.1,0-1.3,0
	c-0.2,0-0.2-0.1-0.2-0.2c0-0.1,0.3-0.5,1-1.1c0.7-0.6,1.1-0.9,1.3-0.9c0.4,0,0.5-0.1,0.5-0.3c0-0.2-0.3-0.5-0.8-1
	c-0.5-0.5-0.9-0.8-1.1-0.8c-0.2,0-0.4,0.1-0.7,0.5c-0.4,0.4-1,0.7-1.8,0.8s-1.1-0.1-1.1-0.5c0-0.2,0.1-0.4,0.3-0.7
	c0.2-0.3,0.4-0.5,0.5-0.5c0.7-0.1,0.1-0.4-1.5-0.8c-0.5-0.1-0.9-0.2-1-0.2c-0.1,0-0.2,0.1-0.2,0.2c-0.4,1.6-0.8,3-1.5,4.3
	c-0.4,0.7-0.6,1.1-0.8,1.2c-0.2,0-0.5-0.2-1-0.7c-0.5-0.5-0.7-0.8-0.8-0.7c0,0-0.1,0.1-0.3,0.4c0,0-0.1,0.1-0.1,0.1
	c-0.4,0.7-0.7,0.9-0.8,0.8c-0.1-0.2-0.2-0.8-0.2-2c0-0.9,0-1.4,0-1.6c0-0.2,0.1-0.4,0.3-0.5c0.2-0.2,0.2-0.3-0.1-0.5
	c-0.3-0.2-0.9-0.4-1.9-0.6c0,0,0,0-0.1,0c-0.3-0.1-0.4-0.1-0.5,0c0,0,0,0.2,0,0.5c0,0,0,0.1,0,0.1c0.1,0.9,0.2,1.9,0.2,2.9
	c0,1,0,1.6-0.1,1.8c-0.1,0.2-0.3,0.3-0.6,0.3c-0.3,0-0.8,0-1.6-0.1c0,0-0.1,0-0.1,0l-0.6,0c0,0,0.1,0.2,0.2,0.6
	c0.2,0.3,0.3,0.5,0.4,0.5l0.1,0c0.1,0,0.2-0.1,0.3-0.1c0.6-0.2,1-0.2,1.3-0.2c0.3,0,0.4,0.3,0.5,0.6c0.1,0.3,0.1,1,0.1,1.9
	c0,0.1,0,0.3,0,0.6c0,0.7,0,1.2,0,1.4c-0.1,0.3-0.2,0.5-0.4,0.6c-0.2,0.1-0.6,0.2-1.2,0.4c-0.2,0.1-0.4,0.1-0.5,0.1
	c-0.1,0-0.2,0-0.3,0.1c-0.4,0.1-0.5,0.2-0.6,0.3s0,0.4,0.2,0.8c0.1,0.2,0.1,0.3,0.1,0.4c0.3,0.7,0.4,1.1,0.5,1.2
	c0.1,0.1,0.2,0,0.3-0.1c0.2-0.3,0.5-0.6,0.9-0.8c0.4-0.2,0.7-0.3,0.8-0.1c0.1,0.1,0.1,0.3,0.1,0.6c0,0.3,0,1.1,0,2.4
	c0,0.1,0,0.3,0,0.6c0,1,0,1.7,0,1.9c-0.1,0.4-0.2,0.6-0.5,0.7c-0.2,0-0.6,0-1.2,0c-0.1,0-0.2,0-0.3,0c-0.5,0-0.7,0-0.8,0
	c-0.1,0.1,0,0.2,0.4,0.3c0.5,0.1,0.9,0.3,1.2,0.7c0.3,0.4,0.5,0.8,0.5,1.2C162.6,69.9,162.6,70,162.7,70.1z M171,58.5
	c-0.2,0.2-0.3,0.2-0.4,0.2c-0.1-0.1-0.2-0.2-0.2-0.5c0-0.3,0-0.9,0-1.9c0-1,0-1.6,0.1-1.7c0.1-0.2,0.3-0.3,0.6-0.3
	c0.4,0,0.6,0,0.8,0.1c0.3,0.2,0.3,0.9,0.1,1.9C171.7,57.4,171.4,58.1,171,58.5z M178.2,57.2c-0.2,0.1-0.5,0.2-0.9,0.1
	c-0.4,0-0.6-0.2-0.7-0.3c-0.1-0.2-0.2-0.6-0.1-1.3c0-0.7,0.1-1.1,0.2-1.2c0.1-0.1,0.3-0.1,0.7-0.1c0.4,0,0.7,0,0.8,0.1
	c0.2,0.2,0.3,0.6,0.3,1.4C178.6,56.6,178.4,57,178.2,57.2z M172.4,53.6c-0.9,0-1.4,0-1.6,0c-0.4-0.1-0.4-0.5,0.2-1.2l0,0
	c0.2-0.3,0.3-0.4,0.4-0.6c0.3-0.4,0.5-0.6,0.7-0.6c0.2-0.1,0.6-0.1,1.4-0.1c0.7,0,1.1,0,1.2,0.1c0.1,0,0.2,0.2,0.2,0.4
	c0,0.3-0.1,0.6-0.3,1.1c-0.2,0.4-0.4,0.7-0.6,0.8C173.8,53.6,173.3,53.6,172.4,53.6z M192.6,70.1c0.3,0.2,0.7,0.1,1.3-0.1
	c0.6-0.2,0.8-0.5,0.8-0.8c0,0,0-0.1,0-0.2c0-0.2,0-0.4,0.1-0.5c0.1-0.1,0.4-0.2,1-0.2c0.4,0,1.2,0,2.6,0c0.3,0,0.5,0,0.7,0
	c0.2,0,0.5,0,0.9,0c1.3,0,2.1,0,2.5,0c0.5,0,0.8,0.1,0.9,0.2c0.1,0.1,0.1,0.3,0.1,0.5c0,0.1,0,0.1,0,0.2c0,0.4,0,0.6,0.2,0.7
	c0.2,0.1,0.5,0.1,1-0.1c0.6-0.2,0.9-0.4,1-0.6c0.1-0.2,0.2-0.7,0.1-1.5c-0.2-4.8-0.1-7.2,0.4-7.2c0,0,0.1,0,0.3-0.1
	c0.1-0.1,0.2-0.2,0.2-0.2c0-0.1-0.2-0.3-0.7-0.7c-0.5-0.4-0.9-0.7-1.2-0.9c-0.1-0.1-0.3-0.1-0.4,0c-0.1,0-0.3,0.2-0.6,0.5
	c0,0-0.1,0.1-0.1,0.2c-0.2,0.2-0.5,0.4-0.7,0.4c-0.3,0-1.2,0-2.8,0c-0.5,0-0.9,0-1.2,0s-0.7,0-1.2,0c-1.5,0-2.4,0-2.7,0
	c-0.3,0-0.7-0.2-1.2-0.4c-0.2-0.1-0.3-0.1-0.5-0.2c0,0-0.1,0-0.2-0.1c-0.5-0.2-0.7-0.3-0.8-0.3c-0.1,0-0.1,0.2,0,0.5
	c0,0.1,0,0.1,0,0.1c0.1,1.1,0.2,2.6,0.2,4.5c0,1.9,0,3.6-0.1,5.1c0,0.4,0,0.7,0,0.8C192.4,69.9,192.4,70,192.6,70.1z M203.1,67.6
	c-0.1,0.1-1.5,0.1-4,0.1c-2.6,0-3.9,0-4-0.1c-0.2-0.1-0.3-0.2-0.3-0.4c0-0.2,0-0.6,0-1.2c0-0.1,0-0.3,0-0.5c0-0.4,0-0.7,0.1-0.9
	c0.1-0.2,0.4-0.3,0.8-0.3c0.3,0,1.1,0,2.3,0c0.5,0,0.9,0,1.2,0s0.7,0,1.2,0c1.2,0,1.9,0,2.3,0c0.4,0,0.7,0.2,0.8,0.3
	c0.1,0.1,0.1,0.4,0.1,0.9c0,0.2,0,0.4,0,0.5c0,0.7,0,1.1,0,1.3C203.4,67.4,203.3,67.5,203.1,67.6z M199.1,63.7c-2.6,0-4,0-4.1-0.1
	c-0.1-0.1-0.2-0.2-0.2-0.4c0-0.2,0-0.6,0-1.2c0-0.1,0-0.2,0-0.4c0-0.4,0-0.7,0.1-0.8c0.1-0.1,0.4-0.2,0.8-0.3c0.3,0,1.1,0,2.3,0
	c0.5,0,0.9,0,1.2,0s0.7,0,1.2,0c1.2,0,1.9,0,2.3,0c0.4,0,0.7,0.1,0.8,0.3c0.1,0.1,0.1,0.4,0.1,0.8c0,0.2,0,0.3,0,0.4
	c0,0.6,0,1,0,1.2c0,0.2-0.1,0.3-0.2,0.4C203.1,63.6,201.7,63.7,199.1,63.7z M189.1,57.4c0.1,0,0.1,0.1,0.2,0c0,0,0.1,0,0.2,0
	c0.7-0.1,1.2-0.2,1.5-0.2c0.3,0,3.4-0.1,9.4-0.1c0.4,0,0.9,0,1.6,0c2.8,0,4.6,0,5.3,0c1,0,1.7,0,2-0.1c0.2,0,0.3-0.1,0.3-0.2
	c0,0,0-0.1,0-0.1c0-0.1-0.1-0.3-0.5-0.6c-0.3-0.3-0.7-0.7-1.2-1l0,0c-0.4-0.3-0.6-0.4-0.7-0.4c-0.1,0-0.3,0.2-0.6,0.7
	c0,0-0.1,0.1-0.1,0.1c0,0-0.1,0.1-0.1,0.2c-0.3,0.4-0.5,0.6-0.7,0.6c-0.2,0.1-0.6,0.1-1.4,0.1c-0.2,0-0.3,0-0.4,0
	c-0.9,0-1.4,0-1.6,0c-0.3,0-0.4-0.2-0.3-0.3c0-0.1,0.3-0.4,0.7-0.8c0.2-0.2,0.6-0.6,1.2-1.3c0,0,0.1-0.1,0.1-0.1
	c0.4-0.5,0.6-0.7,0.7-0.8c0.1-0.1,0.2-0.2,0.3-0.2c0.2-0.1,0.3-0.1,0.3-0.2s-0.2-0.2-0.5-0.3c-0.6-0.3-0.8-0.5-0.6-0.6
	c0.2-0.1,1-0.1,2.4-0.1c1.1,0,1.8,0,2,0c0.2,0,0.3-0.1,0.4-0.2c0.1-0.2-0.3-0.7-1.3-1.4l0,0c-0.5-0.4-0.8-0.6-1-0.6
	c-0.1,0-0.4,0.3-0.7,0.7l0,0c0,0-0.1,0.1-0.1,0.2c-0.2,0.4-0.5,0.6-0.7,0.6c-0.2,0-0.8,0.1-1.8,0.1c-0.2,0-0.4,0-0.5,0
	c-1.1,0-1.7,0-1.9,0c-0.2,0-0.3-0.1-0.4-0.1c-0.2-0.2-0.2-0.5-0.2-0.9s0.2-0.7,0.4-0.9c0.2-0.2,0.2-0.3-0.1-0.4
	c-0.2-0.1-0.8-0.3-1.7-0.5c0,0-0.1,0-0.2,0c-0.4-0.1-0.7-0.2-0.7-0.1c-0.1,0-0.1,0.2-0.1,0.5c0,0.1,0,0.1,0,0.1c0,0.1,0,0.3,0,0.5
	c0,0.7,0,1.1,0,1.3c-0.1,0.3-0.3,0.4-0.6,0.5c-0.3,0-0.9,0-1.9,0c-0.3,0-0.5,0-0.7,0c-2.2,0-3.8,0-4.7-0.1c-0.2,0-0.3,0-0.4,0
	c0,0,0.1,0.2,0.2,0.5c0,0,0,0,0,0.1c0.1,0.2,0.2,0.4,0.3,0.4c0.1,0,0.3,0,0.5,0c0.1,0,0.1,0,0.2,0c2-0.3,2.9-0.3,2.9,0
	c0,0.1,0.1,0.3,0.2,0.6c0.4,0.8,0.7,1.6,0.9,2.4c0.2,0.9,0.3,1.4,0.1,1.5c-0.1,0.1-0.9,0.1-2.4,0.1c-1.5,0-2.7,0-3.6-0.1
	c-0.2,0-0.4,0-0.4,0c0,0,0.1,0.2,0.2,0.5S189,57.4,189.1,57.4z M200.5,56.4c-0.2,0.1-0.8,0.1-1.9,0.1c-1.1,0-1.6-0.1-1.7-0.1
	c-0.1-0.1-0.1-0.1-0.1-0.2c0-0.1,0-0.2,0.1-0.4c0.2-0.5,0.2-1.1-0.1-1.7c-0.3-0.6-0.7-1.1-1.4-1.6l0,0c-0.5-0.3-0.8-0.6-0.8-0.6
	c0-0.1,0.2-0.2,0.7-0.2c0.4,0,1.4,0,2.9,0c0.2,0,0.4,0,0.7,0c1.2,0,2,0,2.3,0c0.4,0,0.7,0.1,0.8,0.2c0,0.1,0,0.3,0,0.6
	c0,0.1,0,0.1,0,0.1c-0.3,1-0.5,1.8-0.8,2.6C200.9,56,200.6,56.4,200.5,56.4z M222.7,69.6c0.9,0.1,3.1,0.1,6.4,0s5.3-0.1,5.9-0.2
	c0.7-0.1,1.3-0.3,1.8-0.6c0.4-0.3,0.7-0.6,0.7-0.9c0-0.3-0.2-0.6-0.7-0.8c-0.4-0.2-0.6-0.4-0.6-0.6c-0.1-0.2-0.1-0.8-0.1-1.7
	c0-0.9,0-1.5-0.1-1.6c-0.1-0.1-0.2,0.1-0.4,0.7c0,0.1-0.1,0.3-0.1,0.5c-0.3,1.1-0.6,1.8-0.8,2.1c-0.3,0.4-0.9,0.7-1.8,0.8
	c-0.6,0.1-2,0.1-4.2,0.1c-0.4,0-0.7,0-0.9,0c-0.4,0-1,0-1.7,0c-1.9,0-3,0-3.5-0.1c-0.7-0.1-1.1-0.3-1.3-0.6
	c-0.1-0.3-0.2-0.8-0.1-1.8c0-0.4,0-0.7,0-0.9c0-0.1,0-0.2,0-0.4c0-1,0-1.6,0-1.8c0-0.2,0.1-0.3,0.3-0.4l0,0c0.1-0.1,1.9-0.1,5.2-0.1
	c3.4,0,5.2,0,5.3,0.1c0.1,0.1,0.2,0.1,0.3,0.2c0,0.1,0.1,0.2,0.1,0.5c0,0.4,0.1,0.6,0.2,0.7c0.1,0.1,0.4,0.1,0.8,0
	c0.5-0.1,0.8-0.2,1-0.3c0.2-0.1,0.3-0.3,0.3-0.6c0-0.2,0-0.6,0-1.3c-0.1-2-0.1-3.3,0-3.8c0-0.5,0.2-0.9,0.4-1
	c0.4-0.2,0.5-0.4,0.5-0.5c0-0.2-0.3-0.4-0.8-0.9c-0.6-0.5-1-0.8-1.2-0.8c-0.2,0-0.4,0.1-0.7,0.4c0,0-0.1,0.1-0.1,0.2
	c-0.3,0.3-0.5,0.5-0.7,0.5c-0.2,0-0.7,0.1-1.6,0.1c-0.2,0-0.3,0-0.4,0c-1,0-1.7,0-2,0c-0.4,0-0.5-0.2-0.5-0.3c0-0.1,0.3-0.4,0.7-0.7
	c0.6-0.5,1.1-1,1.3-1.2c0.6-0.6,1.1-0.9,1.4-1c0.3-0.1,0.4-0.2,0.4-0.3c0-0.1-0.3-0.4-0.7-0.8c-0.6-0.6-1-0.9-1.2-1
	c-0.2-0.1-0.5,0.1-0.8,0.5c0,0-0.1,0.1-0.1,0.1c-0.3,0.3-0.5,0.5-0.7,0.5c-0.2,0-0.7,0.1-1.5,0.1c-0.2,0-0.3,0-0.4,0
	c-1,0-1.6,0-1.8,0c-0.2,0-0.3-0.1-0.3-0.3c0-0.2,0.1-0.5,0.3-0.9s0.5-0.6,0.7-0.7c0.6-0.1-0.2-0.5-2.1-1.1c-0.4-0.1-0.6-0.2-0.7-0.1
	c-0.1,0-0.1,0.1-0.2,0.3c-0.3,1.4-1,3-2,4.8c-1,1.8-2.2,3.3-3.5,4.7c-0.3,0.3-0.5,0.5-0.5,0.6c0,0.1,0,0.1,0.2,0.1s0.8-0.4,1.9-1.2
	c0.3-0.2,0.5-0.3,0.6-0.4c0.1,0,0.2,0,0.3,0.1c0,0,0.1,0.3,0.1,0.8c0,0.4,0,1.9,0,4.3c0,0.1,0,0.1,0,0.1c0,2.7,0,4.2,0,4.7
	c0,0.5,0.1,0.9,0.2,1.2l0,0C219.8,68.9,220.9,69.5,222.7,69.6z M230.3,60.8c-1.2,0-1.9,0-2.1-0.1c-0.2-0.1-0.3-0.2-0.3-0.5
	c0-0.3,0-0.9,0-2.1c0-0.2,0-0.4,0-0.7c0-0.7,0-1.1,0-1.3c0-0.3,0.2-0.4,0.4-0.5c0.2,0,0.6-0.1,1.2-0.1c0.3,0,0.5,0,0.6,0
	s0.4,0,0.7,0c0.6,0,1,0,1.2,0c0.2,0.1,0.4,0.2,0.5,0.5c0,0.2,0.1,0.6,0,1.3c0,0.3,0,0.5,0,0.7c0,1.1,0,1.8,0,2
	c0,0.2-0.1,0.4-0.2,0.5C232.2,60.7,231.5,60.7,230.3,60.8z M223.5,60.8c-1.2,0-1.9,0-2-0.1c-0.2-0.2-0.3-1-0.3-2.5s0.1-2.3,0.3-2.5
	c0.1-0.1,0.8-0.1,2-0.1c1.2,0,1.9,0,2,0.1c0.2,0.2,0.3,1,0.3,2.4s-0.1,2.3-0.3,2.4C225.5,60.7,224.8,60.7,223.5,60.8z M223.9,54.9
	c-1.5,0-2.3,0-2.4-0.1c-0.4-0.1-0.5-0.3-0.5-0.4c0-0.2,0.3-0.6,0.7-1.1c0.2-0.2,0.5-0.6,0.9-1.1c0,0,0.1-0.1,0.1-0.2
	c0.2-0.3,0.4-0.5,0.6-0.6c0.2,0,0.7-0.1,1.6-0.1c0.2,0,0.4,0,0.5,0c1,0,1.6,0,1.9,0c0.4,0,0.6,0.2,0.6,0.3c0,0.1,0,0.4-0.2,0.8
	c-0.6,1.4-1.1,2.1-1.4,2.3C226.2,54.8,225.4,54.9,223.9,54.9z M259.7,70c0.1,0.1,0.3,0.1,0.8,0s0.8-0.2,1.2-0.4
	c0.6-0.3,1.1-0.8,1.5-1.6c0.4-0.8,0.6-2.1,0.8-3.8c0.2-1.6,0.3-3.9,0.4-7c0-0.2,0-0.4,0-0.8c0-1.6,0.1-2.5,0.1-2.7
	c0-0.3,0.2-0.5,0.4-0.6c0,0,0.1,0,0.1,0c0.2-0.1,0.3-0.2,0.4-0.2c0-0.1,0-0.1,0-0.2c-0.1-0.2-0.4-0.5-0.8-0.9
	c-0.5-0.4-0.8-0.7-1-0.8c-0.1-0.1-0.2-0.1-0.3,0c-0.1,0-0.2,0.2-0.5,0.5c0,0-0.1,0.1-0.1,0.1c-0.3,0.3-0.5,0.5-0.7,0.6
	c-0.2,0-0.7,0.1-1.4,0.1c-0.2,0-0.3,0-0.4,0c-0.1,0-0.2,0-0.3,0c-0.7,0-1.2,0-1.3,0c-0.3,0-0.4-0.2-0.4-0.3c0-0.1,0.1-0.4,0.3-0.9
	c0-0.1,0.1-0.1,0.1-0.2c0.3-0.7,0.5-1.1,0.6-1.3c0.1-0.2,0.2-0.3,0.4-0.4c0.3-0.1,0.2-0.3-0.1-0.5c-0.4-0.2-1.1-0.5-2.2-0.8l0,0
	c-0.2-0.1-0.4-0.1-0.4,0c0,0-0.1,0.2-0.1,0.6c0,0,0,0.1,0,0.1c-0.3,2.3-1,4.8-2.2,7.6c-0.4,1-0.7,1.4-0.9,1.4
	c-0.1-0.1-0.2-0.7-0.2-2c0-1,0-1.6,0.1-1.8c0-0.2,0.2-0.4,0.5-0.6c0.2-0.1,0.3-0.3,0.2-0.5c-0.1-0.2-0.5-0.5-1.1-1
	c-0.4-0.4-0.7-0.5-0.9-0.5c-0.1,0-0.3,0.2-0.6,0.6c-0.3,0.4-0.8,0.6-1.5,0.7c-0.7,0.1-1-0.1-1-0.4c0-0.2,0.3-0.7,0.8-1.6
	c0.6-0.8,0.9-1.3,1.1-1.4c0.4-0.1,0.4-0.3,0.1-0.4c-0.3-0.2-0.9-0.4-2-0.6c0,0-0.1,0-0.2,0c-0.4-0.1-0.6-0.1-0.7-0.1
	c-0.1,0-0.1,0.2-0.1,0.6c0,0.1,0,0.2,0,0.2c0,0.5,0,1-0.1,1.5c-0.1,0.8-0.2,1.4-0.2,1.6c-0.1,0.3-0.3,0.4-0.5,0.4
	c-0.2,0-0.6-0.2-1.2-0.5c-0.6-0.3-0.9-0.4-1-0.4c0,0-0.1,0-0.1,0.1c0,0.1,0,0.3,0.1,0.8c0.1,1.1,0.2,3.5,0.2,7.1
	c0,3.8-0.1,6.6-0.2,8.4c-0.1,0.8,0,1.3,0.1,1.5c0.1,0.2,0.5,0.2,1.1,0c0.4-0.1,0.7-0.3,0.8-0.5c0.1-0.2,0.2-0.5,0.2-1v0
	c0-0.4,0-0.6,0-0.7c0.1-0.1,0.2-0.2,0.5-0.3c0.2,0,0.6,0,1.3,0c0,0,0.1,0,0.1,0s0.1,0,0.1,0c0.7,0,1.1,0,1.3,0
	c0.3,0,0.4,0.1,0.5,0.2c0,0.1,0.1,0.3,0.1,0.6v0.1c0,0.5,0.1,0.8,0.4,0.8c0.3,0.1,0.7,0,1.4-0.4c0,0,0.1,0,0.2-0.1
	c0.2-0.1,0.3-0.2,0.3-0.4c0-0.2,0-0.8,0-1.8c0-0.5,0-0.8,0-1.1c0-1.1,0-2.4,0-4.1c0-1.7,0-2.6,0.1-2.7c0-0.1,0.1-0.3,0.2-0.3
	c0.1-0.1,0.1-0.1,0,0c0,0.1,0,0.1,0.1,0.2c0.1,0,0.1,0,0.2,0c0.2-0.1,0.6-0.6,1.3-1.5c0.7-0.9,1.3-1.8,1.8-2.6c0,0,0,0,0-0.1
	c0.2-0.4,0.5-0.6,0.7-0.7c0.2-0.1,0.9-0.1,2-0.1c0.1,0,0.1,0,0.2,0c0.2,0,0.4,0,0.6,0c0.7,0,1.1,0,1.2,0c0.2,0,0.4,0.2,0.5,0.4
	c0,0.1,0.1,0.5,0,1c0,0.2,0,0.4,0,0.5c0,2.3-0.1,4.5-0.2,6.6c-0.1,2.1-0.3,3.5-0.5,4.4c-0.1,0.5-0.3,0.9-0.5,1.1
	c-0.2,0.2-0.6,0.4-1,0.4c-0.4,0-1.1,0-2.1-0.1c-0.5,0-0.8-0.1-0.9,0c-0.1,0-0.1,0.1-0.1,0.2c0,0.1,0.2,0.2,0.6,0.3
	c1.5,0.4,2.2,1,2.2,2.1C259.7,69.9,259.7,70,259.7,70z M248.5,66c-0.6,0-0.9,0-1.1-0.1c-0.2-0.1-0.3-0.3-0.4-0.6
	c0-0.2-0.1-0.8,0-1.7c0-0.4,0-0.7,0-0.9c0-0.2,0-0.5,0-0.8c0-0.8,0-1.4,0-1.6c0.1-0.3,0.2-0.5,0.4-0.6c0.1-0.1,0.5-0.1,1.1-0.1
	c0.2,0,0.4,0,0.6,0s0.3,0,0.6,0c0.6,0,0.9,0,1.1,0.1c0.2,0.1,0.3,0.3,0.4,0.6c0,0.2,0,0.8,0,1.6c0,0.4,0,0.6,0,0.8
	c0,1.5,0,2.3,0,2.6c0,0.3-0.1,0.4-0.2,0.5c-0.1,0.1-0.2,0.1-0.4,0.1c-0.1,0-0.6,0-1.4,0C249,66,248.8,66,248.5,66z M258.2,62.6
	c0.4,0.1,0.7,0.1,1-0.1c0.3-0.2,0.5-0.6,0.5-1c0-0.7-0.2-1.4-0.8-2c-0.5-0.7-1.3-1.3-2.4-1.8c-0.6-0.3-0.9-0.4-1-0.4
	c-0.1,0,0,0.3,0.3,0.7c1,1.5,1.6,2.9,1.8,4.1C257.7,62.3,257.9,62.5,258.2,62.6z M248.6,59c-0.6,0-0.9,0-1.1-0.1
	c-0.2-0.1-0.3-0.3-0.4-0.6c0-0.2-0.1-0.7,0-1.6c0-0.4,0-0.7,0-0.9c0-0.2,0-0.4,0-0.8c0-0.8,0-1.3,0-1.5c0.1-0.3,0.2-0.5,0.4-0.6
	c0.1,0,0.5-0.1,1-0.1c0.2,0,0.4,0,0.6,0s0.3,0,0.6,0c0.6,0,0.9,0,1.1,0.1c0.2,0.1,0.3,0.2,0.4,0.6c0,0.2,0.1,0.7,0.1,1.5
	c0,0.3,0,0.6,0,0.7c0,1.4,0,2.2,0,2.5c0,0.3-0.1,0.4-0.2,0.5c-0.1,0.1-0.2,0.1-0.4,0.1c-0.1,0-0.6,0-1.4,0C249,59,248.8,59,248.6,59
	z M273.2,56.8c0.2,0,0.3-0.1,0.3-0.2s0.1-0.5,0.3-1.2c0,0,0-0.1,0-0.1c0.4-2,0.6-3.3,0.6-4.1c0.1-0.9,0.1-1.5,0-1.9
	c-0.1-0.3-0.4-0.5-0.8-0.6c-0.6-0.2-1-0.1-1.3,0.2s-0.5,0.8-0.5,1.4c0,0.5,0.2,1.7,0.5,3.5c0.3,1.8,0.5,2.8,0.6,2.9
	C272.8,56.8,272.9,56.8,273.2,56.8L273.2,56.8z M277.8,56.8c0.2,0,0.4-0.4,0.6-1.1c0.2-0.7,0.4-2.1,0.7-4.1c0.2-1.1,0.1-1.9-0.1-2.4
	c-0.2-0.5-0.6-0.7-1.3-0.6c-0.5,0-0.9,0.3-1.1,0.7c-0.2,0.4-0.2,1.1-0.1,2.1c0.1,0.6,0.2,1.7,0.5,3.1c0.3,1.4,0.4,2.2,0.4,2.2
	C277.5,56.8,277.7,56.8,277.8,56.8z M285.5,70c0.1,0.1,0.6-0.1,1.4-0.7c1.7-1.2,3.1-2.6,4.2-4.2c0.4-0.6,0.8-0.9,1.1-0.7
	c0.3,0.2,0.8,0.8,1.4,2c0.2,0.3,0.3,0.5,0.4,0.6c0.1,0.1,0.2,0.1,0.4,0.2c0.6,0.2,1,0,1.2-0.6c0.2-0.6,0.1-1.2-0.2-2
	c-0.4-0.7-0.9-1.4-1.6-1.9c-0.4-0.3-0.6-0.5-0.6-0.7c0-0.2,0-0.5,0.2-1c0.1-0.2,0.2-0.4,0.3-0.9c0.1-0.1,0.1-0.2,0.1-0.3
	c0.2-0.7,0.5-1,0.7-1.1c0.3-0.1,0.3-0.2,0.1-0.3c-0.2-0.2-0.7-0.4-1.4-0.6c0,0-0.1,0-0.2-0.1c-0.6-0.2-0.9-0.3-1-0.3
	c-0.1,0-0.2,0.1-0.2,0.4c0,0,0,0.1,0,0.1c-0.1,0.6-0.2,1.3-0.4,1.9c-0.1,0.5-0.3,0.8-0.5,0.9c-0.1,0.1-0.5,0-1.1-0.2
	c-1-0.4-1.7-0.6-2-0.6s-0.3,0.1,0.2,0.5c0.4,0.3,0.9,0.7,1.4,1.1c0.5,0.4,0.8,0.7,0.8,0.8c0.2,0.4-0.1,1.3-1,2.9
	c-0.9,1.5-1.9,2.9-3,4c-0.4,0.4-0.6,0.6-0.7,0.7C285.5,69.9,285.4,70,285.5,70z M294.9,70.1c0.1,0,0.4-0.1,0.8-0.3
	c1.6-0.8,3.2-1.9,4.6-3.3l0,0c0.5-0.5,0.8-0.7,1-0.7c0.1,0,0.4,0.3,0.7,0.8l0,0c0.8,1.3,1.8,2.4,2.9,3.3c0.2,0.1,0.3,0.2,0.3,0.2
	c0.1,0,0.1-0.1,0.2-0.3c0.1-0.3,0.4-0.6,0.6-0.8c0.3-0.2,0.6-0.4,0.9-0.5c0.2-0.1,0.3-0.1,0.3-0.2c0-0.1-0.1-0.2-0.4-0.3
	c-1.4-0.8-2.6-1.8-3.6-3.1c-0.4-0.5-0.6-0.8-0.7-1c0-0.2,0.1-0.6,0.4-1.2c0.5-1.1,1-2.2,1.3-3.3c0.3-1.1,0.6-2.4,0.9-4
	c0.1-0.7,0.2-1.1,0.3-1.3c0.1-0.1,0.4-0.2,0.8-0.2c0.5,0,0.8-0.2,0.8-0.4c0-0.2-0.3-0.6-0.9-1.1c-0.6-0.5-1-0.8-1.2-0.9
	c-0.2,0-0.4,0.1-0.6,0.5c0,0-0.1,0.1-0.1,0.2c-0.3,0.5-0.6,0.8-0.8,0.8c-0.2,0.1-0.6,0.1-1.3,0.1c-0.1,0-0.1,0-0.2,0
	c-0.7,0-1.1,0-1.2,0c-0.2,0-0.4-0.2-0.4-0.3c0-0.1,0.1-0.4,0.2-0.9c0.1-0.4,0.3-0.8,0.4-1.5c0.1-0.5,0.2-0.8,0.3-1
	c0.1-0.2,0.2-0.3,0.4-0.4c0.3-0.1,0.2-0.3,0-0.4c-0.3-0.1-0.9-0.3-1.9-0.6c-0.1,0-0.2,0-0.3-0.1c-0.4-0.1-0.6-0.1-0.6,0
	c-0.1,0-0.1,0.3-0.1,0.7c0,0.1,0,0.3,0,0.3c-0.1,1.6-0.3,3.2-0.7,5c-0.4,1.8-0.9,3.4-1.6,4.9c-0.1,0.2-0.1,0.3-0.1,0.4
	c0,0.1,0,0.1,0.1,0.1c0.2,0.1,0.7-0.4,1.4-1.5c0.4-0.6,0.7-1,0.9-0.9c0.1,0,0.3,0.4,0.4,1.1c0.3,1.5,0.6,3,1.1,4.4
	c0.2,0.6,0.3,1,0.2,1.2c0,0.2-0.3,0.7-0.8,1.3c-0.6,0.9-1.3,1.7-2.1,2.5c-0.8,0.8-1.6,1.5-2.4,2.1C294.8,69.8,294.7,70,294.9,70.1z
	 M301.4,61.2c-0.2,0.2-0.3,0.2-0.5-0.1c-0.2-0.2-0.4-0.7-0.7-1.5c-0.8-2.3-1.1-3.8-0.9-4.5c0.2-0.6,0.4-1,0.6-1.1
	c0.2-0.1,0.7-0.2,1.5-0.2c0.6,0,0.9,0,1,0.1c0.1,0,0.2,0.1,0.3,0.3c0.2,0.3,0,1.5-0.4,3.5S301.7,60.9,301.4,61.2z M285.7,59.3
	c0.2,0.2,0.8-0.2,1.8-1.1c1-0.9,1.9-1.9,2.7-2.9c0.2-0.3,0.5-0.5,0.7-0.5c0.4-0.1,0.2-0.3-0.6-0.7c-0.2-0.1-0.6-0.3-1.1-0.6
	c-0.4-0.2-0.6-0.3-0.6-0.3c-0.1,0-0.1,0.1-0.1,0.3c-0.1,0.8-0.4,1.6-0.9,2.7c-0.5,1-1,1.9-1.6,2.6C285.7,59.1,285.6,59.2,285.7,59.3
	z M295,57.5c0.5,0.3,0.9,0.2,1.2-0.3c0.3-0.4,0.3-1,0-1.6c-0.4-0.8-1.2-1.4-2.5-1.8c-0.7-0.2-1.1-0.3-1.2-0.3
	c-0.2,0-0.1,0.2,0.2,0.5c0.9,1,1.6,2,1.9,3l0,0c0.1,0.2,0.1,0.3,0.1,0.3C294.8,57.5,294.9,57.5,295,57.5z M286.1,53
	c0.1,0,0.2,0,0.5,0c0,0,0.1,0,0.1,0c0.7-0.1,2.9-0.2,6.5-0.2c2.2,0,3.4,0,3.8,0c0.4,0,0.6-0.1,0.7-0.2c0.1-0.1-0.1-0.3-0.4-0.6
	c-0.3-0.3-0.7-0.7-1.2-1.1c-0.3-0.3-0.6-0.4-0.7-0.3c-0.1,0-0.3,0.3-0.6,0.7c-0.6,0.9-1.3,1.2-2,0.9c-0.3-0.1-0.4-0.5-0.4-1.2
	c0-0.7,0.1-1.1,0.4-1.4c0.2-0.2,0.2-0.4-0.1-0.5c-0.2-0.1-0.8-0.3-1.8-0.6c0,0,0,0-0.1,0c-0.4-0.1-0.7-0.1-0.7-0.1
	c-0.1,0-0.1,0.1,0,0.3v0.1c0.3,2.1,0.2,3.2-0.2,3.4c-0.1,0.1-0.8,0.1-1.9,0.1c-1.2,0-1.9-0.1-2.4-0.2c-0.1,0-0.2,0-0.2,0.1
	c0,0.1,0.1,0.2,0.2,0.5c0,0,0,0.1,0,0.1C285.9,52.8,286,53,286.1,53z M30.9,94c0.2,0.1,0.6,0.1,1,0c0.5-0.1,0.8-0.3,1.1-0.5
	c0.1-0.1,0.1-0.2,0.1-0.4c0-0.1,0-0.6,0-1.5C33,89.8,33,88.4,33,87.6c0-0.9,0.1-1.4,0.2-1.5c0.1-0.1,0.3,0.1,0.6,0.6
	c0.7,1.3,1.6,2.5,2.7,3.6c1.1,1.1,2.4,2,3.7,2.7c0,0,0.1,0,0.1,0.1c0.3,0.1,0.4,0.2,0.5,0.2c0.1,0,0.2-0.1,0.3-0.4l0-0.1
	c0.3-0.6,0.7-1.1,1.2-1.3c0.3-0.1,0.4-0.2,0.4-0.3c0-0.1-0.1-0.2-0.4-0.2c-1.4-0.4-2.8-1-4.1-1.7c-1.3-0.8-2.5-1.6-3.4-2.5
	c-0.4-0.4-0.6-0.6-0.7-0.8c-0.1-0.2,0-0.3,0.1-0.4c0,0,1.4,0,4-0.1c1.6,0,2.5,0,3,0c0.6,0,0.9,0,1.1-0.1c0.1,0,0.2-0.1,0.2-0.2
	c0.1-0.2-0.5-0.8-1.6-1.7c0,0,0,0-0.1-0.1c-0.4-0.3-0.6-0.4-0.7-0.3c-0.1,0-0.3,0.3-0.7,0.7l0,0.1c0,0-0.1,0.1-0.2,0.2
	c-0.3,0.4-0.5,0.6-0.7,0.6c-0.2,0-0.8,0.1-1.9,0.1c-0.3,0-0.5,0-0.7,0s-0.4,0-0.7,0c-0.8,0-1.3,0-1.6,0c-0.3,0-0.5-0.1-0.6-0.3
	c0-0.1-0.1-0.4-0.1-0.8c0-0.1,0-0.3,0-0.3c0,0,0-0.1,0-0.2c0-0.5,0-0.8,0.1-0.9c0.1-0.2,0.2-0.3,0.5-0.3c0.2,0,0.6,0,1.4,0
	c0.1,0,0.2,0,0.3,0c0.8,0,1.3,0,1.5,0c0.3,0,0.5,0.1,0.6,0.2c0.1,0.1,0.1,0.2,0.1,0.5c0,0.2,0.2,0.3,0.5,0.3c0.3,0,0.7-0.1,1.2-0.4
	c0.4-0.2,0.6-0.3,0.6-0.4c0.1-0.1,0.1-0.3,0.1-0.5c-0.1-1.2-0.1-3-0.1-5.4c0-0.1,0-0.1,0-0.2c0-0.8,0-1.3,0.1-1.5
	c0-0.2,0.2-0.3,0.4-0.4c0,0,0.1,0,0.1,0c0.2-0.1,0.3-0.3,0.2-0.5c-0.1-0.2-0.4-0.5-0.9-0.8h0c-0.5-0.4-0.8-0.6-1-0.6
	c-0.1,0-0.4,0.1-0.7,0.5c0,0-0.1,0.1-0.1,0.2c-0.2,0.2-0.3,0.3-0.4,0.3c-0.2,0.1-0.6,0.1-1.1,0.1c-0.4,0-1.3,0-2.7,0
	c-0.6,0-1.1,0-1.5,0c-0.3,0-0.8,0-1.4,0c-1.9,0-3.1,0-3.5,0c-0.4,0-0.9-0.2-1.4-0.5c-0.2-0.1-0.3-0.1-0.4-0.2c0,0-0.1,0-0.2-0.1
	c-0.4-0.2-0.6-0.2-0.7-0.2c0,0-0.1,0.2,0,0.6c0,0.1,0,0.1,0,0.2c0.1,1,0.1,2.3,0.2,3.8c0,1.6,0,3,0,4.2c0,0.8-0.1,1.3-0.1,1.5
	c0,0.3,0,0.5,0.1,0.5c0,0.1,0.2,0.1,0.4,0.1c0.4,0,0.7,0,1.1-0.2c0.4-0.2,0.6-0.4,0.7-0.6c0.1-0.3,0.2-0.4,0.4-0.5
	c0.2,0,0.8-0.1,1.8-0.1c0.1,0,0.2,0,0.3,0c0.7,0,1.1,0,1.3,0c0.3,0,0.4,0.2,0.5,0.3c0,0.1,0.1,0.4,0.1,0.9c0,0.1,0,0.2,0,0.2
	c0,0.6,0,1-0.1,1.1c0,0.1-0.1,0.2-0.3,0.3c-0.2,0.1-1.6,0.1-4.3,0c-2.6,0-4.1-0.1-4.5-0.2c-0.1,0-0.2,0-0.2,0.1c0,0,0.1,0.2,0.2,0.4
	c0,0,0,0.1,0.1,0.1c0.1,0.3,0.2,0.4,0.3,0.5c0.1,0,0.3,0,0.6,0c0.1,0,0.1,0,0.2,0c1-0.1,2.2-0.2,3.6-0.2c1.4,0,2.2,0,2.3,0.1
	c0.2,0.2,0,0.8-0.7,1.7c-0.7,0.9-1.6,1.8-2.8,2.9c-1.3,1.1-2.5,2-3.7,2.7h0c-0.1,0.1-0.2,0.2-0.2,0.2c0,0,0,0.1,0.1,0.2
	c0,0.1,0.1,0.1,0.2,0c0.1,0,0.5-0.2,1.1-0.4c2.7-1.2,5.1-2.7,7.1-4.7c0.4-0.4,0.6-0.5,0.7-0.6c0.1,0,0.2,0.1,0.3,0.3
	c0,0.1,0,0.8,0,2c0,1.2,0,2.2-0.1,2.9c0,0.5,0,0.8,0,1C30.7,93.9,30.8,94,30.9,94z M30.5,81.2c-0.1,0.1-0.7,0.1-1.8,0.1
	c-1.1,0-1.8-0.1-1.8-0.1c-0.2-0.1-0.4-0.6-0.3-1.6c0-0.9,0.1-1.4,0.4-1.6c0.1-0.1,0.7-0.1,1.8-0.1s1.7,0,1.8,0.1
	c0.2,0.1,0.4,0.6,0.4,1.6C30.9,80.5,30.8,81.1,30.5,81.2z M34.8,81.3c-0.7,0-1.1,0-1.3,0c-0.3,0-0.4-0.2-0.5-0.4c0-0.1-0.1-0.5,0-1
	c0-0.1,0-0.2,0-0.3s0-0.2,0-0.3c0-0.5,0-0.8,0.1-0.9c0.1-0.2,0.2-0.3,0.5-0.3c0.2,0,0.6,0,1.3,0c0.2,0,0.3,0,0.4,0
	c0.1,0,0.2,0,0.4,0c0.7,0,1.1,0,1.3,0c0.3,0,0.4,0.2,0.5,0.3c0,0.1,0.1,0.4,0.1,0.9c0,0.1,0,0.2,0,0.3c0,0.6,0,1.1,0,1.2
	c0,0.2-0.1,0.3-0.2,0.4c-0.1,0.1-0.2,0.1-0.4,0.1c-0.2,0-0.7,0-1.6,0C35.1,81.3,35,81.3,34.8,81.3z M35.2,77.3c-1.2,0-1.8,0-2-0.1
	c-0.2-0.1-0.3-0.6-0.3-1.4c0-0.8,0.1-1.4,0.2-1.5c0.1-0.1,0.8-0.1,2-0.1c1.2,0,1.9,0,2,0.1c0.2,0.1,0.3,0.6,0.3,1.5
	s-0.1,1.4-0.3,1.5C37.1,77.3,36.4,77.3,35.2,77.3z M30.5,77.2c-0.1,0.1-0.7,0.1-1.8,0.1c-1.1,0-1.8-0.1-1.8-0.1
	c-0.2-0.1-0.3-0.6-0.3-1.5c0-0.9,0.1-1.4,0.3-1.5c0.1,0,0.7-0.1,1.8-0.1c1.1,0,1.7,0,1.8,0.1c0.2,0.1,0.3,0.6,0.3,1.5
	C30.8,76.6,30.7,77.1,30.5,77.2z M50.5,80.8c0.2,0,0.3-0.1,0.3-0.2s0.1-0.5,0.3-1.2c0,0,0-0.1,0-0.1c0.4-2,0.6-3.3,0.6-4.1
	c0.1-0.9,0.1-1.5,0-1.9c-0.1-0.3-0.4-0.5-0.8-0.6c-0.6-0.2-1-0.1-1.3,0.2c-0.3,0.3-0.5,0.8-0.5,1.4c0,0.5,0.2,1.7,0.5,3.5
	c0.3,1.8,0.5,2.8,0.6,2.9C50.1,80.8,50.2,80.8,50.5,80.8L50.5,80.8z M55.1,80.8c0.2,0,0.4-0.4,0.6-1.1c0.2-0.7,0.4-2.1,0.7-4.1
	c0.2-1.1,0.1-1.9-0.1-2.4c-0.2-0.5-0.6-0.7-1.3-0.6c-0.5,0-0.9,0.3-1.1,0.7c-0.2,0.4-0.2,1.1-0.1,2.1c0.1,0.6,0.2,1.7,0.5,3.1
	c0.3,1.4,0.4,2.2,0.4,2.2C54.8,80.8,54.9,80.8,55.1,80.8z M71.7,85.9c0.1,0.2,0.2,0.3,0.4,0.3c0.2,0,0.5-0.2,0.9-0.6
	c0.9-0.7,1.6-1.6,2-2.8c0.4-1.1,0.4-2.1,0.1-2.9c-0.3-0.9-0.9-1.3-1.8-1.2c-0.6,0-1,0.3-1.3,0.7c-0.2,0.4-0.3,0.9-0.1,1.4
	c0.2,0.5,0.5,1,1.1,1.3c0.3,0.2,0.5,0.3,0.6,0.5c0.1,0.1,0.1,0.2,0.1,0.4c-0.1,0.4-0.3,0.8-0.6,1.3c-0.4,0.5-0.8,0.8-1.2,1.2
	c-0.2,0.1-0.3,0.2-0.3,0.3S71.6,85.7,71.7,85.9z M96.9,93.7c0.4,0,2.3,0,5.8,0c3.5,0,5.5,0,5.9-0.1c1.2-0.1,2.1-0.2,2.6-0.4
	c0.5-0.2,0.7-0.5,0.8-0.9c0-0.2,0-0.4-0.2-0.6c-0.1-0.2-0.2-0.3-0.4-0.3c-0.4,0-0.6-0.5-0.6-1.4c0-1.5,0-2.4-0.1-2.6
	c-0.1-0.3-0.2,0-0.4,0.8c-0.4,1.3-0.7,2.2-0.9,2.6c-0.3,0.4-0.6,0.6-1.2,0.7c-0.4,0.1-2.2,0.1-5.6,0.1c-3.4,0-5.2,0-5.4-0.1
	c-0.3-0.1-0.4-0.2-0.5-0.3c-0.1-0.1-0.2-0.4-0.2-0.8c0-0.3,0-0.9,0-1.9c0-0.1,0-0.2,0-0.3c0-0.2,0-0.6,0-0.9c0-0.8,0-1.4,0-1.6
	c0.1-0.3,0.2-0.5,0.5-0.6c0.2,0,0.6-0.1,1.3,0c0.3,0,0.6,0,0.8,0c1,0,1.6,0,1.8,0c0.4,0,0.6,0.1,0.7,0.2c0,0.1,0.1,0.3,0,0.6
	c0,0.3,0,0.5,0.2,0.6c0.2,0,0.6,0,1.2-0.2c0.4-0.1,0.7-0.3,0.8-0.4c0.1-0.2,0.1-0.5,0.1-1.1c-0.1-1.7-0.1-2.9-0.1-3.5
	c0-0.6,0.2-0.9,0.4-1.1c0,0,0,0,0.1,0c0.2-0.2,0.4-0.3,0.4-0.3c0-0.1-0.3-0.5-0.9-1c-0.6-0.5-1-0.8-1.2-0.8c-0.1,0-0.1,0-0.2,0.1
	c-0.1,0-0.2,0.2-0.5,0.5c0,0,0,0-0.1,0.1c-0.2,0.2-0.4,0.4-0.6,0.4c-0.2,0-0.8,0-1.7,0c-0.2,0-0.4,0-0.5,0c-1.1,0-1.8,0-2.1,0
	c-0.2,0-0.5-0.1-0.9-0.2c0,0-0.1,0-0.1,0c-0.4-0.2-0.6-0.4-0.5-0.7c0.1-0.3,0.4-0.8,1-1.6c0,0,0,0,0-0.1c0.1-0.1,0.4-0.2,0.7-0.2
	c0.4,0,1.7-0.1,3.8-0.1c0.4,0,0.7,0,0.9,0c0.3,0,0.6,0,1.1,0c2.1,0,3.4,0,3.8,0c0.4,0,0.6,0.1,0.6,0.2l0,0c0.1,0.2,0.1,1.4,0,3.5
	c-0.1,2.1-0.3,3.7-0.5,4.6c-0.2,0.8-0.4,1.4-0.7,1.6c-0.3,0.2-0.8,0.3-1.5,0.3c-0.8-0.1-1.3-0.1-1.5,0c-0.2,0.1-0.1,0.2,0.4,0.3
	c0.6,0.2,1,0.4,1.2,0.7c0.3,0.3,0.4,0.7,0.4,1.2c0,0.2,0.1,0.3,0.3,0.4c0.2,0,0.5,0,0.9-0.1c0.8-0.2,1.4-0.6,1.8-1.2
	c0.4-0.7,0.8-1.7,1-3.2c0.2-1.4,0.3-3.4,0.5-6.2c0-0.8,0.1-1.3,0.1-1.5c0.1-0.2,0.2-0.4,0.5-0.4c0.3-0.1,0.4-0.2,0.3-0.5
	s-0.4-0.6-0.9-1c0,0-0.1,0-0.1-0.1c-0.5-0.4-0.8-0.6-0.9-0.6c-0.1,0-0.4,0.2-0.8,0.6c0,0-0.1,0.1-0.1,0.1c0,0,0,0.1-0.1,0.1
	c-0.2,0.2-0.4,0.3-0.8,0.3c-0.4,0-1.5,0-3.5,0c-0.5,0-0.9,0-1.2,0c-2.4,0-3.8,0-4.2,0c-0.4,0-0.6,0-0.7-0.1
	c-0.2-0.1-0.1-0.5,0.2-1.2c0.3-0.7,0.6-1,0.9-1.2c0.3-0.1,0.3-0.2,0-0.4c-0.2-0.2-0.8-0.4-1.8-0.8c0,0-0.1,0-0.2-0.1
	c-0.4-0.2-0.7-0.2-0.8-0.2c-0.1,0-0.1,0.2-0.2,0.5c0,0.1,0,0.1,0,0.1c-0.3,1.6-0.9,3.2-1.7,4.9c-0.8,1.6-1.7,3.2-2.8,4.5
	c0,0,0,0-0.1,0.1c-0.2,0.2-0.3,0.4-0.3,0.4c0,0.1,0,0.1,0,0.2c0.2,0.2,1-0.4,2.4-1.7c0,0,0.1-0.1,0.2-0.2c0.3-0.3,0.5-0.4,0.6-0.4
	c0.1,0.1,0.2,0.4,0.2,1.1c0,0.5,0,1.7,0,3.6c0,0.6,0,1.1,0,1.5v0c0,2.9,0,4.6,0,5.1c0,0.5,0,0.8,0.1,1c0.2,0.4,0.4,0.8,0.8,1
	C95.5,93.5,96.1,93.6,96.9,93.7z M98.9,84.5c-1.4,0-2.1,0-2.2-0.1c-0.2-0.1-0.3-0.2-0.3-0.4c0-0.2,0-0.8,0-1.8c0-0.1,0-0.3,0-0.6
	c0-0.6,0-1,0-1.2c0.1-0.2,0.2-0.4,0.5-0.4c0.2,0,0.6-0.1,1.3,0c0.3,0,0.5,0,0.7,0c0.2,0,0.4,0,0.7,0c0.7,0,1.2,0,1.3,0
	c0.3,0,0.4,0.2,0.5,0.4c0,0.2,0.1,0.6,0,1.2c0,0.3,0,0.5,0,0.6c0,1,0,1.6,0,1.8c0,0.2-0.1,0.3-0.3,0.4
	C101,84.5,100.3,84.5,98.9,84.5z M122.3,94.1c0.2,0.1,0.4,0.1,0.9,0s0.8-0.2,1-0.4c0.2-0.1,0.3-0.4,0.3-0.6c0-0.3,0.1-0.5,0.3-0.6
	c0.1-0.1,1.7-0.1,4.6-0.1c2.9,0,4.4,0.1,4.5,0.2c0.2,0.1,0.2,0.4,0.2,0.8c0,0.3,0.1,0.5,0.3,0.6c0.2,0.1,0.6,0,1.2-0.1
	c0.5-0.2,0.8-0.3,0.8-0.5c0.1-0.1,0.1-0.5,0.1-1.2c-0.1-1.8-0.1-3,0-3.7c0-0.7,0.2-1.1,0.4-1.2c0.3-0.2,0.5-0.3,0.5-0.4
	c0-0.1-0.2-0.3-0.7-0.7c-0.5-0.4-0.9-0.7-1.2-1c-0.2-0.1-0.3-0.1-0.4-0.1c-0.1,0-0.3,0.2-0.6,0.6c-0.3,0.3-0.6,0.5-0.9,0.6
	c-0.3,0.1-0.5,0.1-0.6,0c-0.1-0.1-0.1-0.3,0-0.6c0.4-0.8,0.8-1.6,1.3-2.3c0.5-0.7,0.9-1.1,1.1-1.2c0.3-0.1,0.5-0.2,0.5-0.3
	c0-0.1-0.2-0.3-0.5-0.6c-0.6-0.7-1.1-1.1-1.3-1.1c-0.2-0.1-0.5,0.1-0.9,0.4c-0.3,0.3-0.6,0.5-0.7,0.6c-0.2,0.1-2,0.1-5.2,0
	c-3.2,0-5-0.1-5.4-0.2c-0.1,0-0.2,0-0.2,0.1c0,0,0.1,0.2,0.2,0.4c0,0,0,0.1,0.1,0.1c0.1,0.3,0.2,0.4,0.3,0.5c0.1,0,0.3,0,0.6,0
	c0.1,0,0.1,0,0.2,0c0.7-0.1,1.3-0.1,1.9-0.2c0.6,0,1.8,0,3.6,0c0.3,0,0.6,0,1.1,0c1.1,0,1.8,0,2.1,0c0.4,0,0.6,0.2,0.6,0.4
	c0,0.2-0.2,0.5-0.5,1.2c-0.1,0.2-0.2,0.4-0.3,0.6c-0.1,0.2-0.2,0.4-0.3,0.7c-0.3,0.6-0.5,1-0.6,1.2c-0.2,0.2-0.4,0.4-0.8,0.4
	c-0.2,0-0.7,0.1-1.5,0c-0.4,0-0.6,0-0.8,0c-0.2,0-0.4,0-0.7,0c-1,0-1.6,0-1.9,0c-0.3,0-0.7-0.2-1.3-0.5c-0.1-0.1-0.2-0.1-0.3-0.1
	c0,0-0.1,0-0.1,0c-0.5-0.2-0.8-0.3-0.9-0.3s-0.1,0.1-0.1,0.3v0.1c0.1,0.9,0.2,2.4,0.2,4.4c0,1.7,0,2.7,0,3.1
	C122.1,93.7,122.1,94,122.3,94.1z M129.3,91.7c-2.8,0-4.3,0-4.5-0.1c-0.2-0.1-0.3-0.2-0.3-0.4c0-0.2,0-0.8,0-1.9c0-0.2,0-0.5,0-0.8
	c0-0.6,0-1,0.1-1.1c0.1-0.2,0.4-0.4,0.8-0.4c0.3,0,1.1,0,2.3,0c0.7,0,1.2,0,1.6,0s0.9,0,1.6,0c1.2,0,2,0,2.3,0
	c0.4,0.1,0.7,0.2,0.8,0.4c0.1,0.2,0.1,0.5,0.1,1.1c0,0.3,0,0.6,0,0.8c0,1.1,0,1.7,0,1.9c0,0.2-0.1,0.3-0.3,0.4
	C133.6,91.7,132.1,91.7,129.3,91.7z M118.4,81.9c0.1,0.1,0.3,0,0.7-0.2c1.5-0.7,3.1-1.6,4.8-2.7c0.6-0.4,0.9-0.6,1.1-0.6
	c0.2,0,0.3,0.1,0.5,0.5c0.1,0.2,0.2,0.3,0.3,0.3s0.4,0,0.8-0.1c0.3-0.1,0.6-0.1,0.9-0.1c0.3,0,1.2,0,2.6,0c0,0,0.1,0,0.1,0
	c0.1,0,0.4,0,0.6,0c1,0,1.7,0,1.9,0c0.4,0,0.6-0.1,0.7-0.1c0,0,0-0.2,0-0.4c0-0.1,0-0.1,0-0.1c-0.1-0.3,0.3-0.2,1.2,0.5
	c0.7,0.5,1.5,1,2.3,1.5c0.9,0.5,1.3,0.7,1.4,0.7c0,0,0.1-0.1,0.2-0.2c0.3-0.7,0.7-1.2,1.3-1.5c0.5-0.3,0.5-0.4,0.1-0.6
	c-0.3-0.1-0.5-0.2-0.8-0.3c-1.5-0.5-3-1.2-4.5-2c-1.4-0.8-2.5-1.5-3.3-2.2c-0.8-0.7-0.9-1.1-0.4-1.3c0.3-0.1,0.4-0.2,0.3-0.3
	c-0.1-0.1-0.7-0.3-1.7-0.6c-0.1,0-0.2-0.1-0.3-0.1c-0.7-0.2-1.2-0.3-1.3-0.4c-0.1,0-0.2,0.1-0.2,0.2l0,0c-0.3,1.3-1.4,3-3.1,4.9
	c-1.8,1.9-3.7,3.5-5.7,4.7C118.4,81.6,118.3,81.7,118.4,81.9z M128.4,78.3c-1.2,0-1.9,0-2.2-0.1c-0.4-0.1-0.6-0.2-0.5-0.4
	c0.1-0.1,0.4-0.5,1-1c0.9-0.8,1.7-1.6,2.4-2.4c0.3-0.4,0.6-0.6,0.7-0.7c0.2-0.1,0.3,0,0.4,0.2c0.5,0.8,0.9,1.4,1.4,2
	c0.5,0.7,0.8,1,0.8,1.2c0,0.1-0.2,0.1-0.6-0.1c0,0,0,0-0.1,0c-0.3-0.1-0.5-0.1-0.6-0.1c-0.1,0-0.3,0.2-0.6,0.6
	c0,0.1-0.1,0.1-0.1,0.1c-0.2,0.3-0.4,0.5-0.6,0.6C129.9,78.2,129.4,78.3,128.4,78.3z M154.7,94c0,0,0.3,0,0.6,0c0.4,0,0.7-0.1,1-0.2
	c0.8-0.2,1.3-0.6,1.5-1.1c0,0,0,0,0-0.1c0.1-0.2,0.2-0.6,0.2-1.2c0-0.6,0.1-2.4,0.1-5.4c0-0.3,0-0.6,0-1.1c0-1.9,0-3,0-3.6
	c0-0.7,0-1.1,0.1-1.3c0-0.1,0.1-0.2,0.2-0.3l0.1,0c0.1,0,0.2-0.1,0.3-0.2c0.1-0.1,0.1-0.2,0.1-0.2c0-0.1,0.3-0.4,1-0.7
	c1.5-0.8,3.1-1.8,4.8-2.9c0.4-0.3,0.7-0.4,0.8-0.5c0.1-0.1,0.4-0.1,0.7-0.2c0.3-0.1,0.4-0.2,0.3-0.4c-0.1-0.2-0.4-0.6-1-1.1
	c0,0-0.1-0.1-0.1-0.1c-0.5-0.4-0.8-0.7-0.9-0.7c-0.1,0-0.4,0.1-0.7,0.5c0,0-0.1,0.1-0.1,0.1c-0.1,0.1-0.1,0.1-0.2,0.2
	c-0.2,0.2-0.3,0.3-0.5,0.4c-0.2,0.1-0.7,0.1-1.3,0.1c-0.5,0-1.6,0-3.3,0c-0.8,0-1.5,0-2,0c-4.5,0-7.2,0-8.2-0.1c-0.2,0-0.3,0-0.3,0
	c0,0,0.1,0.2,0.2,0.6c0,0,0,0.1,0,0.1c0.1,0.2,0.2,0.4,0.3,0.4c0.1,0,0.2,0,0.5,0c0.7-0.1,1.4-0.2,2-0.2c0.6,0,2.4,0,5.3,0
	c0.4,0,0.8,0,1.5,0c1.9,0,3.1,0,3.5,0c0.7,0,1,0.2,1,0.3c0,0.1-0.3,0.4-0.8,0.9c-0.2,0.1-0.3,0.3-0.4,0.4c-1,1-1.7,1.7-2.1,1.9
	c-0.5,0.4-0.9,0.6-1.2,0.7c-0.3,0.1-0.7,0.1-1.2,0c0,0-0.1,0-0.2,0c-0.4-0.1-0.6-0.1-0.7,0c-0.1,0-0.1,0.2,0,0.5c0,0.1,0,0.1,0,0.1
	c0.1,0.8,0.1,1.6,0.2,2.3c0,0.8,0,2.3,0,4.5c0,0.4,0,0.9,0,1.6c0,1.4,0,2.2,0,2.6c-0.1,0.5-0.3,0.8-0.6,0.9c-0.2,0.1-0.8,0.1-1.6,0
	c-0.4,0-0.7-0.1-1-0.1c-0.1,0-0.3,0-0.5,0c-0.7,0-1.1,0-1.1,0c0,0,0,0.1,0,0.2c0,0.1,0.1,0.1,0.2,0.1c1,0.2,1.8,0.4,2.3,0.7
	c0.5,0.3,0.8,0.8,0.9,1.4C154.6,94,154.6,94,154.7,94z M187.5,92.1c1,0,1.6,0,1.9,0c0.4,0,0.6,0,0.7-0.1c0.1,0,0.1-0.1,0.1-0.2
	c0,0,0-0.1,0-0.1c0-0.2,0-0.3-0.1-0.4c-0.1,0-0.3-0.1-0.7-0.1c-0.6-0.1-0.9-0.1-1.1-0.2c-0.2-0.1-0.3-0.3-0.4-0.6
	c-0.2-0.4-1.1-3.2-2.8-8.1c-0.2-0.7-0.5-1.5-0.9-2.6c-0.7-2-1.1-3.3-1.3-3.8c-0.3-0.7-0.5-1.2-0.6-1.4c-0.1-0.1-0.3-0.2-0.5-0.1
	c-0.1,0-0.2,0-0.3,0s-0.2,0-0.3,0c-0.2,0-0.3,0-0.5,0.1c-0.1,0.2-0.3,0.7-0.6,1.4c-0.2,0.5-0.6,1.8-1.3,3.9c-0.4,1.1-0.7,2-0.9,2.7
	c-0.2,0.7-0.5,1.5-0.9,2.6c-0.7,2.2-1.2,3.6-1.4,4.2c-0.3,0.8-0.5,1.4-0.7,1.6c-0.1,0.2-0.4,0.2-0.7,0.3c-0.1,0-0.3,0-0.4,0
	c-0.5,0.1-0.8,0.2-0.9,0.2c0,0.1,0,0.2,0,0.4c0,0.2,0,0.3,0.1,0.3s1,0.1,2.8,0.1c0.1,0,0.3,0,0.5,0c0.9,0,1.5,0,1.7,0
	c0.4,0,0.6,0,0.6-0.1c0,0,0.1-0.1,0.1-0.2c0,0,0-0.1,0-0.1c0-0.2,0-0.3-0.1-0.4c-0.1,0-0.3-0.1-0.8-0.2c0,0-0.1,0-0.2,0
	c-0.5-0.1-0.8-0.1-1-0.2c-0.2-0.1-0.2-0.3-0.2-0.6c0-0.2,0.2-0.7,0.4-1.4c0-0.1,0.1-0.3,0.1-0.3c0.1-0.2,0.1-0.4,0.2-0.7
	c0.2-0.6,0.3-1,0.4-1.2c0.1-0.2,0.4-0.4,0.7-0.4c0.2,0,0.7-0.1,1.5,0c0.4,0,0.7,0,0.9,0s0.5,0,0.9,0c0.8,0,1.3,0,1.5,0
	c0.3,0,0.5,0.2,0.7,0.4c0.1,0.2,0.2,0.5,0.4,1.1c0.1,0.3,0.2,0.5,0.2,0.7c0,0,0,0.1,0.1,0.2c0.3,0.8,0.4,1.3,0.5,1.5
	c0,0.3,0,0.5-0.2,0.6c-0.1,0.1-0.4,0.1-0.9,0.2c-0.1,0-0.1,0-0.2,0c-0.1,0-0.1,0-0.2,0c-0.4,0-0.6,0.1-0.6,0.1c0,0-0.1,0.1-0.1,0.3
	c0,0,0,0.1,0,0.1s0,0.1,0,0.1c0,0.1,0,0.2,0.1,0.2c0.1,0,0.3,0.1,0.7,0.1c0.3,0,0.9,0,1.9,0c0.4,0,0.7,0,1,0
	C186.8,92.1,187.1,92.1,187.5,92.1z M180.9,85.4c-1.3,0-2.1,0-2.3,0c-0.2,0-0.2-0.1-0.3-0.2c0-0.2,0-0.5,0.2-1
	c0.1-0.4,0.4-1.2,0.8-2.6c0.1-0.2,0.2-0.5,0.3-1c0.4-1.3,0.7-2.1,0.8-2.3c0.2-0.4,0.4-0.4,0.6,0c0.1,0.2,0.4,1,0.8,2.2
	c0.1,0.4,0.2,0.7,0.3,1c0.6,1.8,0.9,2.8,1,3.2c0.1,0.4,0,0.6-0.1,0.7C183,85.3,182.3,85.3,180.9,85.4z M198.9,92.2
	c2.3,0,3.8,0,4.4-0.1c2.6-0.2,4.7-1,6.2-2.6c1.5-1.6,2.2-3.6,2.2-6.2c0-2.5-0.6-4.6-2-6.1c-1.3-1.6-3.2-2.4-5.6-2.7
	c-0.4,0-1.9,0-4.6,0c-2.7,0-4.1,0-4.1,0c-0.1,0.2-0.2,0.3,0,0.5c0.1,0.2,0.3,0.3,0.5,0.3c0.7,0.1,1.2,0.1,1.4,0.2
	c0.2,0.1,0.4,0.2,0.5,0.4c0,0.1,0.1,2,0.1,5.7c0,3.7,0,6.3,0,7.7c0,0,0,0.1,0,0.2c0,0.7-0.1,1.2-0.2,1.3c-0.1,0.1-0.5,0.2-1.1,0.3
	c-0.1,0-0.1,0-0.1,0c-0.6,0.1-0.9,0.1-0.9,0.2c0,0-0.1,0.2-0.1,0.4c0,0.2,0,0.3,0.1,0.3C195.4,92.1,196.6,92.1,198.9,92.2z
	 M203.5,91c-0.7,0.1-1.3,0.1-1.9,0.1c-0.6-0.1-0.9-0.2-1-0.4c-0.1-0.1-0.1-2.6-0.1-7.5s0-7.4,0.1-7.5c0.1-0.3,0.8-0.4,1.9-0.4
	c1.1,0,2,0.2,2.7,0.6c2.3,1.1,3.5,3.5,3.5,7.3c0,2.3-0.4,4.1-1.3,5.4C206.5,90,205.2,90.8,203.5,91z M222.4,92.5c0.5,0,1,0,1.5,0
	c1.8-0.2,3.2-0.7,4.2-1.6c1-0.9,1.5-2.2,1.4-3.7c0-1.2-0.4-2.1-1.1-2.9c-0.7-0.7-2-1.5-3.8-2.3c-1.2-0.6-2.1-1-2.5-1.3
	c-0.4-0.3-0.8-0.7-1-1.2c-0.4-0.8-0.4-1.6-0.2-2.4c0.3-0.7,0.8-1.3,1.5-1.7c0.8-0.4,1.7-0.5,2.7-0.4c0.6,0.1,1,0.2,1.1,0.4
	c0.2,0.2,0.4,0.8,0.6,1.8c0,0.1,0.1,0.3,0.1,0.4c0.1,0.6,0.2,0.9,0.3,1c0.1,0.1,0.2,0.1,0.4,0.1c0.1,0,0.1,0,0.2,0c0,0,0.1,0,0.1,0
	c0.3,0,0.4,0,0.5-0.1c0-0.1,0.1-0.4,0.1-1c0-0.1,0-0.3,0-0.3c0,0,0,0,0-0.1c0-1,0.1-1.6,0-1.8c0-0.2-0.1-0.3-0.2-0.4l-0.1,0
	c-1.1-0.7-2.4-1.1-3.8-1.2c-1.4,0-2.6,0.2-3.7,0.8c-1.2,0.6-1.9,1.4-2.3,2.5c-0.5,1.6-0.4,2.9,0.4,4.1c0.8,1.2,2.4,2.2,4.7,3.2
	c1.3,0.6,2.1,1,2.6,1.4c0.4,0.4,0.7,0.9,0.9,1.5c0.2,0.9,0.1,1.6-0.4,2.3c-0.4,0.7-1.1,1.1-2,1.4c-0.9,0.3-1.9,0.3-3,0.1
	c-0.7-0.1-1.1-0.3-1.2-0.5c-0.2-0.2-0.4-0.8-0.6-1.9c0-0.1,0-0.2-0.1-0.4c-0.1-0.6-0.2-1-0.3-1.1c-0.1-0.1-0.2-0.1-0.5-0.1
	c-0.1,0-0.1,0-0.1,0s-0.1,0-0.2,0c-0.2,0-0.4,0.1-0.4,0.2c0,0.1-0.1,0.5-0.1,1.3c0,0.2,0,0.4,0,0.5s0,0.3,0,0.5c0,0.7,0,1.2,0,1.3
	c0,0.1,0.2,0.2,0.4,0.4c0.1,0,0.1,0.1,0.2,0.1C219.8,92.1,221,92.4,222.4,92.5z M248.6,92.4c0.4,0,0.9,0,1.5,0c0.6,0,1-0.1,1.2-0.2
	c0.1,0,0.1-0.1,0.1-0.1c0,0,0-0.2,0-0.4c0-0.2,0-0.3-0.1-0.4c-0.1,0-0.3-0.1-0.6-0.1c0,0-0.1,0-0.1,0s-0.1,0-0.1,0
	c-0.5,0-0.9-0.2-1-0.3c-0.1-0.2-0.3-0.7-0.6-1.7c0-0.1-0.1-0.2-0.1-0.2c-0.5-2-0.9-3.2-1.2-3.7c-0.2-0.5-0.7-0.9-1.4-1.3
	c-0.4-0.2-0.5-0.4-0.5-0.5s0.3-0.2,0.8-0.5c1.6-0.7,2.6-1.7,3-3c0.3-1.2,0-2.4-0.9-3.5c-1-1.1-2.4-1.8-4.2-2c-0.4,0-1.9,0-4.7,0
	c-2.7,0-4.1,0-4.2,0c-0.1,0.2-0.2,0.3,0,0.5c0.1,0.2,0.3,0.3,0.5,0.3c0.7,0.1,1.2,0.1,1.4,0.2c0.2,0.1,0.4,0.2,0.5,0.4
	c0,0.1,0.1,2,0.1,5.7c0,3.7,0,6.3,0,7.7c0,0,0,0.1,0,0.1c0,0.8-0.1,1.2-0.2,1.4c-0.1,0.1-0.5,0.2-1.1,0.3c-0.1,0-0.1,0-0.1,0
	c-0.5,0.1-0.8,0.1-0.9,0.2c-0.1,0-0.1,0.2-0.1,0.4c0,0,0,0.1,0,0.1c0,0.1,0,0.2,0.1,0.2c0.1,0,0.3,0.1,0.7,0.1c0.3,0,0.9,0,2,0
	c0.4,0,0.8,0,1,0s0.6,0,1,0c1,0,1.7,0,2,0c0.4,0,0.6,0,0.7-0.1c0.1,0,0.1-0.1,0.1-0.2c0,0,0-0.1,0-0.1c0-0.2,0-0.3-0.1-0.4
	c-0.1,0-0.4-0.1-0.9-0.2c-0.1,0-0.2,0-0.4,0c-0.4,0-0.6-0.1-0.7-0.2c-0.2-0.1-0.3-0.4-0.3-0.7c0-0.3,0-0.9,0-1.9c0-0.4,0-0.7,0-0.9
	c0-0.2,0-0.5,0-0.9c0-1,0-1.7,0-2c0-0.4,0.1-0.6,0.3-0.7c0.1-0.1,0.3-0.1,0.7-0.1c0.1,0,0.2,0,0.3,0c0.9,0,1.6,0.1,1.9,0.3
	c0.4,0.2,0.8,0.6,1.1,1.3c0.2,0.6,0.6,1.7,1,3.3c0.3,1.2,0.5,1.9,0.7,2.3c0.2,0.5,0.4,0.8,0.7,1C247.6,92.2,248,92.3,248.6,92.4z
	 M243.3,82.9c-1.5,0.2-2.4,0.1-2.5-0.3c0-0.1-0.1-1.2-0.1-3.4s0-3.3,0.1-3.4c0.1-0.2,0.4-0.3,1-0.4c0.6-0.1,1.2-0.1,2,0
	c1.1,0.1,1.9,0.6,2.4,1.3c0.5,0.7,0.8,1.5,0.7,2.4s-0.4,1.7-1,2.4C245.2,82.3,244.3,82.8,243.3,82.9z M275.7,94
	c0.5,0.2,0.9,0.2,1.2,0c0.4-0.2,0.5-0.6,0.5-1.1c-0.1-0.8-0.8-1.6-2.1-2.3c-1.3-0.7-3-1.2-5.2-1.7c-0.3-0.1-0.5-0.1-0.6-0.1
	c-0.1,0-0.2,0.1-0.2,0.1c0,0.1,0,0.1,0,0.2c0.1,0,0.3,0.2,0.6,0.3c2.1,1,3.8,2.3,5.1,3.9C275.3,93.7,275.5,93.9,275.7,94z M257.2,94
	c0,0.1,0.1,0.1,0.2,0.1c0.1,0,0.4-0.1,0.8-0.2c2.5-0.8,4.6-1.9,6.5-3.3c0.6-0.4,1-0.7,1.3-0.7c0.3-0.1,0.4-0.1,0.4-0.2
	c0-0.1-0.3-0.2-0.7-0.5c-1.2-0.6-1.6-1-1.2-1.2c0.2,0,2.5,0,7,0c3.5,0,5.6,0,6.2,0c0.6,0,1-0.1,1.1-0.2c0.1-0.2-0.2-0.7-1-1.5
	c-0.3-0.3-0.5-0.4-0.6-0.4c-0.1,0-0.2,0.1-0.5,0.4c-0.4,0.5-0.6,0.6-0.7,0.3c0-0.1,0-1.8,0-5c0.1-3.2,0.1-5.2,0.1-5.8
	c0-0.3,0.1-0.5,0.1-0.6c0.1-0.1,0.2-0.2,0.4-0.4c0.2-0.1,0.2-0.2,0.2-0.4c-0.1-0.2-0.3-0.4-0.7-0.7c-0.6-0.5-1-0.8-1.2-0.8
	c-0.2,0-0.4,0.1-0.7,0.5c-0.4,0.6-1.3,0.7-2.7,0.5c-0.2,0-0.4,0-0.4,0s0,0.2,0.2,0.5c0,0,0,0,0,0.1c0.1,0.2,0.2,0.4,0.2,0.4
	c0.1,0,0.2,0,0.5,0c0,0,0.1,0,0.1,0c1-0.2,1.6-0.2,1.8,0.2c0,0.1,0.1,0.6,0,1.6s-0.1,1.5-0.1,1.6c-0.1,0.2-0.3,0.3-0.6,0.3
	c-0.3,0-0.8,0-1.5-0.1h0c-0.2,0-0.4,0-0.4,0c0,0,0,0.2,0.2,0.4l0,0.1l0,0c0.1,0.3,0.2,0.4,0.3,0.5c0.1,0,0.2,0,0.4,0l0,0
	c0.8-0.3,1.2-0.3,1.4-0.1c0.2,0.2,0.3,0.8,0.3,1.8c0,0,0,0.1,0,0.2c0,0.7,0,1.2-0.1,1.3c-0.1,0.3-0.3,0.4-0.6,0.4
	c-0.2,0-0.7,0-1.5-0.1c-0.1,0-0.2,0-0.3,0c-0.2,0-0.3,0-0.3,0c0,0,0.1,0.2,0.2,0.6l0,0c0.1,0.2,0.2,0.4,0.2,0.4c0,0,0.1,0,0.3,0
	c0.8-0.3,1.3-0.3,1.6-0.2c0.3,0.1,0.4,0.6,0.4,1.3c0,0,0,0.1,0,0.2c0,0.8,0,1.3,0,1.5c-0.1,0.3-0.2,0.5-0.4,0.6
	c-0.2,0-0.5,0.1-1.1,0.1c-0.1,0-0.1,0-0.1,0c-0.1,0-0.3,0-0.5,0c-0.4,0-0.7,0-0.9-0.1c-0.2-0.1-0.3-0.3-0.3-0.7c0-0.3,0-1,0-2
	c0-0.4,0-0.8,0-1.1c0-0.1,0-0.3,0-0.5c0-1.3,0-2.1,0-2.4c0-0.5,0.1-0.8,0.1-1c0-0.1,0.2-0.3,0.3-0.4c0,0,0.1,0,0.1,0
	c0.3-0.2-0.1-0.6-1-1.2c-0.3-0.2-0.5-0.3-0.6-0.3c-0.1,0-0.3,0.1-0.5,0.4c-0.3,0.3-0.5,0.4-0.6,0.5c-0.1,0.1-0.3,0.1-0.6,0.1
	c-0.4,0-0.7-0.1-0.8-0.2c-0.1-0.1-0.1-0.6-0.1-1.3c0-0.1,0-0.2,0-0.3c0-0.5,0-0.8,0-0.9c0.1-0.2,0.2-0.3,0.5-0.3c0.2,0,0.6,0,1.2,0
	c0.2,0,0.3,0,0.5,0c1.2,0,1.9-0.1,2.1-0.2c0.2-0.1-0.1-0.5-0.7-1.1c-0.5-0.4-0.8-0.6-0.9-0.6c-0.1,0-0.4,0.2-0.6,0.6
	c-0.2,0.3-0.4,0.5-0.5,0.6c-0.1,0.1-0.4,0.1-0.7,0.1c-0.4,0-0.7-0.1-0.8-0.3c-0.1-0.2-0.1-0.4,0-0.7s0.1-0.5,0.3-0.6
	c0.2-0.1,0.2-0.3,0-0.4c-0.2-0.1-0.7-0.3-1.4-0.5c-0.4-0.1-0.6-0.2-0.6-0.1c-0.1,0-0.1,0.1-0.1,0.4v0c0,0.4-0.1,0.6-0.2,0.6
	s-0.4-0.2-0.9-0.6c0,0-0.1-0.1-0.2-0.2c-0.3-0.3-0.5-0.4-0.6-0.4c-0.1,0-0.2,0.1-0.3,0.2c0,0-0.1,0.1-0.1,0.1
	c-0.6,0.7-1,1.1-1.2,1.2c-0.3,0.2-0.5,0.4-0.8,0.4c-0.2,0-0.5-0.1-1-0.3c-0.4-0.1-0.7-0.2-0.8-0.2c-0.1,0-0.1,0-0.1,0.1
	c0,0.2,0.1,2.4,0.2,6.6c0,0.1,0,0.3,0,0.6c0.1,3.1,0.1,5,0.1,5.5c0,0.5-0.1,0.8-0.2,0.9c-0.2,0.1-0.7,0.1-1.8,0c-0.3,0-0.5,0-0.5,0
	c0,0,0.1,0.2,0.2,0.5c0,0,0,0.1,0.1,0.1c0.1,0.2,0.2,0.3,0.3,0.3c0.1,0,0.3,0,0.8-0.1c0.1,0,0.2,0,0.2,0c0.7-0.1,1.6-0.1,2.8-0.1
	c1.2,0,1.9,0,2,0c0.3,0.1,0.2,0.6-0.4,1.3c-0.5,0.7-1.2,1.4-2.2,2.3c-1,0.9-2,1.6-3,2.1c-0.2,0.1-0.4,0.2-0.4,0.3
	C257.1,93.9,257.1,94,257.2,94z M268.5,86.9c-0.1,0.2-0.4,0.3-0.9,0.3c-0.4,0-0.7-0.1-0.8-0.4c-0.1-0.2-0.2-1.1-0.1-2.5
	c0-1.5,0.1-2.2,0.3-2.4c0.1-0.1,0.1-0.3-0.1-0.4c-0.2-0.1-0.7-0.3-1.3-0.5h0c-0.4-0.1-0.6-0.2-0.7-0.2c-0.1,0-0.1,0.1,0,0.4v0
	c0,0.4,0.1,0.8,0.1,1.1c0,0.4,0,0.7,0.1,1.1c0,0.2,0.1,0.8,0.1,1.8c0,0.8,0,1.3,0,1.5c0,0.2-0.1,0.3-0.3,0.4c-0.1,0-0.6,0.1-1.5,0.1
	c-0.9,0-1.4,0-1.5,0c-0.2-0.1-0.3-0.2-0.4-0.4c0-0.2-0.1-0.7-0.1-1.5c0-0.1,0-0.2,0-0.3c0-0.8,0-1.2,0.1-1.3
	c0.1-0.1,0.6-0.2,1.3-0.2c0.1,0,0.2,0,0.2,0c1,0,1.5-0.1,1.6-0.3c0.1-0.2-0.2-0.6-0.8-1.2c-0.4-0.4-0.6-0.5-0.7-0.5
	c-0.1,0-0.3,0.2-0.6,0.6c-0.4,0.6-0.8,0.8-1.1,0.5c-0.1-0.1-0.2-0.2-0.2-0.4c0-0.2,0-0.7-0.1-1.4c0,0,0-0.1,0-0.2
	c0-0.8,0-1.3,0.1-1.4c0.1-0.1,0.5-0.2,1.2-0.2c0.1,0,0.1,0,0.2,0c0.9,0,1.5-0.1,1.6-0.2c0.1-0.2-0.1-0.5-0.6-1
	c-0.4-0.4-0.6-0.6-0.8-0.6c-0.1,0-0.3,0.1-0.5,0.5c-0.4,0.5-0.7,0.8-1,0.6c-0.1-0.1-0.2-0.2-0.3-0.4c0-0.2-0.1-0.6-0.1-1.3
	c0-0.8,0-1.3,0.1-1.5c0.1-0.2,0.4-0.4,0.9-0.5l0,0c0,0,0.1,0,0.2-0.1c0.5-0.2,0.8-0.3,1.1-0.4c0.7-0.2,1.1-0.3,1.2-0.2
	c0.2,0.1,0.4,0.5,0.4,1.3c0,0.5,0,1.8-0.1,3.7c0,0.6,0,0.9,0,1.1c0.1,0.1,0.3,0.2,0.6,0.2c0.3,0,0.6-0.1,0.8-0.2
	c0.3-0.1,0.4-0.2,0.5-0.4c0.1-0.2,0.4-0.4,0.8-0.4c0.4,0,0.7,0.1,0.9,0.3c0.1,0.1,0.1,1.3,0.1,3.7C268.6,85.5,268.6,86.8,268.5,86.9
	z M25,116.2c2.5,0,3.8,0,3.8-0.1c0.1,0,0.1-0.2,0.1-0.4c0-0.2,0-0.4-0.1-0.4l-0.2,0c-0.3,0-0.6-0.1-0.8-0.1c-0.1,0-0.2,0-0.4,0
	c-0.4,0-0.7-0.1-0.8-0.2c-0.1-0.1-0.2-0.4-0.3-0.8c0-0.3,0-1,0-2c0-0.4,0-0.7,0-0.9c0-0.3,0-0.7,0-1.2c0-0.9,0-1.5,0-1.8
	c0-0.4,0.2-0.6,0.4-0.6c0.1-0.1,0.5-0.1,1-0.1c0.3,0,0.5,0,0.6,0c0.1,0,0.2,0,0.3,0c0.8,0,1.3,0.1,1.5,0.2c0.1,0.1,0.3,0.5,0.4,1.1
	c0,0.1,0,0.2,0,0.3c0,0,0,0.1,0,0.2c0,0.5,0.1,0.8,0.1,0.8c0,0.1,0.2,0.1,0.4,0.1c0,0,0.1,0,0.1,0s0.1,0,0.2,0c0.1,0,0.2,0,0.3-0.1
	c0.1-0.1,0.1-0.2,0.1-0.6c0-0.2,0-0.7,0-1.6c0-0.4,0-0.7,0-0.9c0-0.2,0-0.4,0-0.7c0-0.9,0-1.5,0-1.8c0-0.3,0-0.5-0.1-0.6
	c0-0.1-0.1-0.1-0.3-0.1c-0.1,0-0.1,0-0.2,0h0c-0.2,0-0.4,0-0.4,0.1c0,0.1-0.1,0.4-0.1,0.8c0,0,0,0.1,0,0.1c0,0.1,0,0.2,0,0.3
	c-0.1,0.7-0.2,1-0.4,1.2c-0.1,0.1-0.6,0.1-1.5,0.1c-0.1,0-0.3,0-0.3,0c-0.1,0-0.3,0-0.6,0c-0.5,0-0.9,0-1-0.1
	c-0.2-0.1-0.3-0.3-0.4-0.6c0-0.2-0.1-0.8,0-1.8c0-0.4,0-0.8,0-1c0-0.3,0-0.7,0-1.2c0-0.9,0-1.5,0-1.8c0.1-0.3,0.2-0.5,0.5-0.6
	c0.2-0.1,0.7-0.1,1.4-0.1c0.4,0,0.7,0,0.9,0c0.2,0,0.5,0,0.9,0c0.8,0,1.4,0,1.6,0c0.3,0,0.5,0.2,0.7,0.4c0.1,0.1,0.2,0.5,0.3,1.1
	c0,0.3,0.1,0.5,0.1,0.6c0,0.1,0,0.2,0.1,0.3c0.1,0.6,0.2,0.9,0.3,1c0.1,0.1,0.2,0.1,0.5,0.1c0,0,0.1,0,0.1,0c0.3,0,0.5,0,0.6,0
	c0.1,0,0.1-0.1,0.1-0.3c0,0,0-0.3,0-0.8c0-0.6,0-1,0-1.4c0-1.4-0.1-2-0.1-2.1c0,0-2.2-0.1-6.6-0.1c-4.3,0-6.5,0-6.6,0
	c-0.1,0.2-0.2,0.3,0,0.5c0.1,0.2,0.3,0.3,0.5,0.3c0.7,0.1,1.2,0.1,1.4,0.2c0.2,0.1,0.4,0.2,0.5,0.4c0,0.1,0.1,2,0.1,5.7
	c0,3.7,0,6.3,0,7.7c0,0,0,0.1,0,0.1c0,0.8-0.1,1.2-0.2,1.4c-0.1,0.1-0.5,0.2-1.1,0.3c-0.1,0-0.1,0-0.1,0c-0.6,0.1-0.9,0.1-0.9,0.2
	c0,0-0.1,0.2-0.1,0.4c0,0.2,0,0.3,0.1,0.3C21.3,116.1,22.5,116.1,25,116.2z M49.3,116.1c0.3,0,0.9,0,2,0c0.4,0,0.8,0,1,0
	c0.2,0,0.6,0,1,0c1,0,1.7,0,2,0c0.4,0,0.6,0,0.7-0.1c0.1,0,0.1-0.1,0.1-0.2c0,0,0-0.1,0-0.1c0,0,0-0.1,0-0.1c0-0.1,0-0.2-0.1-0.3
	c-0.1,0-0.3-0.1-0.7-0.1c-0.1,0-0.2,0-0.2,0c0,0-0.1,0-0.2,0c-0.4,0-0.7-0.1-0.9-0.3c-0.3-0.3-0.7-0.9-1.3-1.8
	c-0.4-0.7-1.3-2.3-2.8-4.8c-0.3-0.5-0.5-0.9-0.6-1.2c-0.3-0.4-0.3-0.8-0.2-1.1c0-0.1,0.6-1,1.8-2.8c1.2-1.8,1.8-2.8,2-3.1
	c0.2-0.2,0.3-0.4,0.5-0.5c0.2-0.1,0.6-0.2,1.2-0.2c0,0,0.1,0,0.1,0c0.4-0.1,0.7-0.1,0.8-0.1c0.1,0,0.1-0.2,0.1-0.4c0,0,0,0,0-0.1
	c0-0.1,0-0.2-0.1-0.2c-0.1,0-0.3-0.1-0.7-0.1c-0.2,0-0.8,0-1.8,0c-0.2,0-0.4,0-0.5,0c-1.1,0-1.7,0-2,0c-0.4,0-0.7,0-0.8,0.1
	c-0.1,0-0.1,0.1-0.1,0.3v0c0,0.2,0,0.3,0.1,0.3c0.1,0,0.3,0.1,0.6,0.1c0,0,0.1,0,0.1,0c0,0,0.1,0,0.1,0c0.5,0.1,0.8,0.1,0.9,0.2
	c0.1,0.1,0.1,0.4-0.1,0.7c-0.1,0.3-0.5,0.9-1,1.8c-0.1,0.2-0.2,0.3-0.2,0.4c-0.6,0.9-0.9,1.5-1.1,1.8c-0.2,0.4-0.4,0.6-0.6,0.6
	c-0.1,0.1-0.2,0-0.3-0.1c-0.1,0-0.5-0.7-1.2-2c-0.8-1.3-1.3-2.2-1.5-2.7c-0.2-0.3-0.2-0.5,0-0.6c0.1-0.1,0.5-0.2,1.1-0.3
	c0,0,0.1,0,0.2,0c0.4,0,0.6-0.1,0.6-0.1c0.1,0,0.1-0.1,0.1-0.3v-0.1c0-0.1-0.1-0.2-0.1-0.3c-0.1-0.1-0.5-0.1-1-0.1
	c-0.4,0-1.2,0-2.6,0c-0.3,0-0.6,0-1.1,0c-1,0-1.7,0-2,0c-0.4,0-0.6,0-0.7,0.1c-0.1,0-0.1,0.1-0.1,0.2c0,0,0,0.1,0,0.1
	c0,0.2,0,0.3,0.1,0.4c0.1,0,0.3,0.1,0.6,0.1c0.6,0.1,1.1,0.1,1.2,0.2c0.2,0.1,0.4,0.2,0.5,0.5c0.2,0.3,0.9,1.5,2.1,3.7
	c1.3,2.2,1.9,3.4,2,3.6l0,0c0.1,0.2,0.1,0.3,0.1,0.4c0,0.2-0.2,0.5-0.5,0.9c-0.2,0.3-0.6,1-1.4,2.1c-0.1,0.2-0.2,0.4-0.3,0.5
	c-0.2,0.3-0.4,0.6-0.7,1c-0.6,1-1,1.6-1.2,1.9c-0.3,0.4-0.5,0.6-0.7,0.7c-0.1,0.1-0.4,0.1-0.7,0.2c-0.2,0-0.3,0-0.4,0
	c-0.6,0.1-0.9,0.1-0.9,0.2c0,0.1-0.1,0.2-0.1,0.4c0,0.2,0,0.3,0.1,0.3c0,0,1,0.1,2.9,0.1c0.1,0,0.3,0,0.5,0c0.9,0,1.5,0,1.8,0
	c0.3,0,0.6,0,0.6-0.1c0,0,0.1-0.1,0.1-0.2c0,0,0-0.1,0-0.1c0-0.2,0-0.3-0.1-0.4c-0.1,0-0.3-0.1-0.7-0.2c0,0-0.1,0-0.2,0
	c-0.5-0.1-0.7-0.1-0.8-0.2c-0.1-0.1-0.1-0.4,0.1-0.7c0.1-0.3,0.5-0.9,1.1-1.9c0.1-0.2,0.2-0.4,0.3-0.5c0.7-1.2,1.1-1.9,1.3-2.2
	c0.3-0.4,0.5-0.7,0.6-0.7c0.1,0,0.2,0,0.4,0.2c0.1,0.1,0.6,1,1.6,2.7c1,1.7,1.5,2.6,1.5,2.7c0.1,0.3,0,0.4-0.1,0.5
	c-0.1,0.1-0.5,0.2-1.2,0.2c-0.4,0-0.6,0.1-0.7,0.1c-0.1,0-0.1,0.2-0.1,0.4c0,0,0,0.1,0,0.1c0,0.1,0,0.2,0.1,0.2
	C48.6,116.1,48.9,116.1,49.3,116.1z M71.8,110.4c1.1,0.1,2-0.2,2.8-1c0.8-0.8,1.1-1.7,1-2.8c-0.1-0.9-0.5-1.6-1.2-2.2
	c-0.6-0.5-1.4-0.8-2.2-0.8c-0.9,0-1.6,0.3-2.3,0.9c-0.7,0.6-1,1.4-1.1,2.3c0,0.8,0.2,1.6,0.7,2.3C70.1,109.8,70.9,110.2,71.8,110.4z
	 M73.1,109.4c-0.8,0.3-1.6,0.2-2.3-0.3c-0.7-0.5-1.1-1.2-1.1-2.1c0-0.7,0.2-1.3,0.7-1.8c0.5-0.5,1.1-0.7,1.7-0.7
	c0.7,0,1.3,0.2,1.8,0.7c0.7,0.6,0.9,1.4,0.7,2.3C74.5,108.5,74,109.1,73.1,109.4z"/>
</svg>
