<svg width="352" height="219" viewBox="0 0 352 219" fill="none" xmlns="http://www.w3.org/2000/svg">
<g clip-path="url(#clip0)">
<path d="M350.65 0.649902H0.649902V217.44H350.65V0.649902Z" stroke="#D6D2C7" stroke-width="1.3" stroke-miterlimit="10" stroke-dasharray="9.31 9.31"/>
</g>
<path d="M23.288 97.968C23.336 98.016 23.392 98.024 23.456 97.992C23.488 97.992 23.568 97.976 23.696 97.944C23.776 97.928 23.832 97.92 23.864 97.92C24.872 97.744 25.504 97.232 25.76 96.384C25.808 96.176 25.84 94.672 25.856 91.872C25.856 91.664 25.856 91.368 25.856 90.984C25.872 89.224 25.888 88.192 25.904 87.888C25.92 87.568 25.992 87.36 26.12 87.264L26.168 87.216C26.2 87.184 26.472 86.976 26.984 86.592C27.128 86.496 27.248 86.408 27.344 86.328L27.392 86.304C27.888 85.952 28.176 85.736 28.256 85.656C28.352 85.56 28.392 85.48 28.376 85.416C28.344 85.368 28.28 85.36 28.184 85.392C28.088 85.408 27.832 85.488 27.416 85.632C27.384 85.648 27.344 85.664 27.296 85.68C26.768 85.872 26.432 85.976 26.288 85.992C26.096 85.992 25.976 85.856 25.928 85.584C25.896 85.392 25.872 84.92 25.856 84.168C25.856 84.088 25.856 84.024 25.856 83.976C25.856 83.848 25.856 83.672 25.856 83.448C25.856 82.6 25.904 82.104 26 81.96C26.096 81.816 26.448 81.744 27.056 81.744C27.2 81.744 27.312 81.744 27.392 81.744C28.256 81.728 28.744 81.656 28.856 81.528C28.968 81.384 28.816 81.048 28.4 80.52C27.92 79.912 27.584 79.584 27.392 79.536C27.216 79.472 27.016 79.632 26.792 80.016C26.424 80.64 26.176 80.88 26.048 80.736C25.92 80.592 25.856 80 25.856 78.96C25.856 78.128 25.872 77.624 25.904 77.448C25.936 77.272 26.04 77.104 26.216 76.944C26.408 76.752 26.368 76.584 26.096 76.44C25.824 76.28 25.2 76.08 24.224 75.84C23.888 75.744 23.696 75.712 23.648 75.744C23.6 75.776 23.592 75.928 23.624 76.2V76.248C23.736 77.048 23.8 77.984 23.816 79.056C23.832 80.112 23.8 80.696 23.72 80.808C23.608 80.952 23.392 81.032 23.072 81.048C22.768 81.064 22.2 81.032 21.368 80.952C21.208 80.936 21.12 80.952 21.104 81C21.104 81.048 21.176 81.224 21.32 81.528C21.448 81.784 21.536 81.936 21.584 81.984C21.648 82.016 21.744 82.008 21.872 81.96C22.288 81.8 22.68 81.728 23.048 81.744C23.432 81.76 23.672 81.864 23.768 82.056C23.832 82.184 23.856 82.952 23.84 84.36C23.84 85.768 23.808 86.536 23.744 86.664C23.632 86.936 22.904 87.256 21.56 87.624C21.544 87.624 21.512 87.632 21.464 87.648C21.288 87.696 21.2 87.768 21.2 87.864C21.2 87.96 21.288 88.256 21.464 88.752C21.512 88.848 21.544 88.92 21.56 88.968C21.832 89.688 22.008 90.096 22.088 90.192C22.168 90.272 22.28 90.168 22.424 89.88C22.584 89.592 22.832 89.384 23.168 89.256C23.52 89.128 23.728 89.168 23.792 89.376C23.824 89.52 23.84 90.496 23.84 92.304C23.84 94.112 23.816 95.064 23.768 95.16C23.688 95.336 23.52 95.448 23.264 95.496C23.024 95.544 22.568 95.536 21.896 95.472C21.512 95.44 21.296 95.448 21.248 95.496C21.12 95.656 21.192 95.76 21.464 95.808C22.024 95.952 22.424 96.144 22.664 96.384C22.92 96.64 23.088 97.032 23.168 97.56C23.2 97.784 23.24 97.92 23.288 97.968ZM33.248 97.8C33.376 97.944 33.944 97.792 34.952 97.344C35.976 96.896 36.816 96.424 37.472 95.928C37.904 95.608 38.296 95.552 38.648 95.76C39.016 95.968 39.496 96.528 40.088 97.44C40.248 97.712 40.496 97.848 40.832 97.848C41.168 97.832 41.4 97.688 41.528 97.416C41.704 97.032 41.672 96.584 41.432 96.072C41.208 95.56 40.808 95.056 40.232 94.56C39.944 94.304 39.768 94.12 39.704 94.008C39.656 93.896 39.688 93.736 39.8 93.528C40.296 92.552 40.616 91.96 40.76 91.752C40.92 91.528 41.096 91.392 41.288 91.344C41.576 91.264 41.672 91.12 41.576 90.912C41.48 90.704 41.184 90.4 40.688 90C40.288 89.664 40.024 89.496 39.896 89.496C39.784 89.48 39.568 89.624 39.248 89.928C38.912 90.248 38.536 90.44 38.12 90.504C37.704 90.568 36.888 90.56 35.672 90.48C35.064 90.432 34.704 90.408 34.592 90.408C34.48 90.408 34.424 90.44 34.424 90.504C34.424 90.616 34.384 90.656 34.304 90.624C34.224 90.592 34.12 90.504 33.992 90.36C33.864 90.2 33.704 90.08 33.512 90C33.352 89.92 33.16 89.816 32.936 89.688C32.744 89.56 32.608 89.512 32.528 89.544C32.448 89.56 32.296 89.688 32.072 89.928C31.8 90.232 31.464 90.432 31.064 90.528C30.664 90.624 30.32 90.6 30.032 90.456C29.808 90.328 29.728 89.968 29.792 89.376C29.872 88.784 30.04 88.432 30.296 88.32C30.6 88.176 30.912 88.16 31.232 88.272C31.552 88.384 31.712 88.56 31.712 88.8C31.712 89.2 32.096 89.24 32.864 88.92C33.216 88.792 33.424 88.672 33.488 88.56C33.552 88.448 33.568 88.184 33.536 87.768C33.472 86.808 33.464 86.128 33.512 85.728C33.56 85.312 33.672 85.056 33.848 84.96C34.072 84.848 34.16 84.72 34.112 84.576C34.064 84.432 33.856 84.2 33.488 83.88C33.008 83.464 32.688 83.256 32.528 83.256C32.384 83.24 32.152 83.416 31.832 83.784C31.672 83.976 31.52 84.104 31.376 84.168C31.248 84.216 31.04 84.24 30.752 84.24C30.176 84.24 29.88 84.168 29.864 84.024C29.848 83.88 30.104 83.6 30.632 83.184C32.072 82.048 33.208 80.664 34.04 79.032C34.36 78.392 34.664 78.032 34.952 77.952C35.208 77.872 35.328 77.776 35.312 77.664C35.296 77.536 35.136 77.32 34.832 77.016C34.256 76.456 33.864 76.152 33.656 76.104C33.448 76.04 33.176 76.176 32.84 76.512C32.52 76.848 32.08 77.056 31.52 77.136C30.96 77.2 30.104 77.168 28.952 77.04C28.648 77.008 28.48 77.016 28.448 77.064C28.416 77.096 28.472 77.24 28.616 77.496C28.632 77.528 28.648 77.56 28.664 77.592C28.808 77.848 28.912 78 28.976 78.048C29.04 78.08 29.2 78.064 29.456 78C29.52 77.984 29.568 77.976 29.6 77.976C29.888 77.912 30.288 77.864 30.8 77.832C31.312 77.8 31.64 77.8 31.784 77.832C32.136 77.912 32.2 78.232 31.976 78.792C31.816 79.24 31.656 79.496 31.496 79.56C31.352 79.624 31.112 79.544 30.776 79.32C30.52 79.144 30.168 79 29.72 78.888C29.272 78.76 28.904 78.704 28.616 78.72C28.472 78.736 28.4 78.776 28.4 78.84C28.416 78.904 28.504 79.024 28.664 79.2C29.096 79.696 29.44 80.208 29.696 80.736C29.824 80.976 29.936 81.12 30.032 81.168C30.4 81.328 30.328 81.744 29.816 82.416C29.32 83.072 28.56 83.744 27.536 84.432C27.296 84.592 27.152 84.704 27.104 84.768C27.056 84.832 27.064 84.904 27.128 84.984C27.192 85.032 27.464 84.952 27.944 84.744C28.2 84.632 28.376 84.576 28.472 84.576C28.552 84.576 28.64 84.6 28.736 84.648C28.832 84.68 28.88 84.712 28.88 84.744C28.88 84.808 28.952 84.856 29.096 84.888C29.256 84.904 29.616 84.912 30.176 84.912C30.192 84.912 30.216 84.912 30.248 84.912C30.984 84.912 31.408 84.968 31.52 85.08C31.648 85.176 31.712 85.536 31.712 86.16V86.232C31.712 87.032 31.544 87.48 31.208 87.576C30.872 87.672 30.192 87.464 29.168 86.952C29.12 86.936 29.056 86.904 28.976 86.856C28.656 86.696 28.464 86.632 28.4 86.664C28.336 86.696 28.296 86.896 28.28 87.264C28.28 87.344 28.28 87.408 28.28 87.456C28.232 88.752 28.088 90.112 27.848 91.536C27.848 91.568 27.84 91.608 27.824 91.656C27.76 92.04 27.744 92.264 27.776 92.328C27.824 92.392 28.008 92.424 28.328 92.424C28.36 92.424 28.392 92.424 28.424 92.424C28.808 92.424 29.072 92.384 29.216 92.304C29.376 92.208 29.456 92.048 29.456 91.824C29.456 91.568 29.648 91.376 30.032 91.248C30.384 91.136 30.736 91.12 31.088 91.2C31.472 91.264 31.664 91.424 31.664 91.68C31.68 92.32 31.6 93.056 31.424 93.888C31.264 94.704 31.08 95.224 30.872 95.448C30.712 95.64 30.504 95.752 30.248 95.784C30.008 95.816 29.416 95.8 28.472 95.736C28.152 95.72 27.96 95.76 27.896 95.856C27.848 95.936 27.968 96.016 28.256 96.096C28.72 96.224 29.088 96.416 29.36 96.672C29.648 96.928 29.792 97.224 29.792 97.56C29.792 97.688 29.816 97.776 29.864 97.824C29.928 97.888 30.144 97.88 30.512 97.8C30.896 97.736 31.224 97.648 31.496 97.536C32.04 97.28 32.448 96.808 32.72 96.12C33.008 95.432 33.232 94.336 33.392 92.832C33.456 92.224 33.512 91.848 33.56 91.704C33.624 91.544 33.768 91.416 33.992 91.32C34.136 91.272 34.248 91.192 34.328 91.08C34.392 91 34.472 90.992 34.568 91.056C34.68 91.104 34.784 91.208 34.88 91.368C34.912 91.432 34.96 91.464 35.024 91.464C35.072 91.464 35.256 91.44 35.576 91.392C35.624 91.376 35.656 91.368 35.672 91.368C37.864 90.936 38.8 91.168 38.48 92.064C38.32 92.528 38.152 92.824 37.976 92.952C37.816 93.064 37.552 93.064 37.184 92.952C36.032 92.616 35.336 92.44 35.096 92.424C34.872 92.392 34.744 92.416 34.712 92.496C34.68 92.576 34.76 92.672 34.952 92.784C35.4 93.04 35.832 93.336 36.248 93.672C36.664 93.992 36.896 94.216 36.944 94.344C37.04 94.632 36.72 95.104 35.984 95.76C35.264 96.416 34.448 96.976 33.536 97.44C33.264 97.584 33.168 97.704 33.248 97.8ZM33.872 90.048C33.984 90.16 34.272 90.04 34.736 89.688C35.216 89.32 35.592 88.944 35.864 88.56C36.312 87.92 36.592 86.992 36.704 85.776C36.72 85.424 36.784 85.192 36.896 85.08C37.008 84.968 37.208 84.912 37.496 84.912C37.88 84.912 38.112 85.008 38.192 85.2C38.272 85.392 38.32 85.936 38.336 86.832C38.352 87.808 38.4 88.4 38.48 88.608C38.576 88.8 38.88 88.936 39.392 89.016C39.712 89.08 40.16 89.088 40.736 89.04C41.328 88.992 41.744 88.912 41.984 88.8C42.288 88.672 42.48 88.472 42.56 88.2C42.64 87.912 42.576 87.672 42.368 87.48C42.144 87.256 42.024 86.944 42.008 86.544C41.96 85.872 41.808 85.872 41.552 86.544C41.408 86.928 41.208 87.192 40.952 87.336C40.696 87.48 40.44 87.464 40.184 87.288C39.96 87.128 39.864 86.744 39.896 86.136C39.944 85.528 40.096 85.152 40.352 85.008C40.608 84.864 40.688 84.736 40.592 84.624C40.512 84.496 40.552 84.408 40.712 84.36C40.888 84.296 41.056 84.32 41.216 84.432C41.328 84.496 41.4 84.52 41.432 84.504C41.48 84.488 41.528 84.416 41.576 84.288C41.656 84.032 41.8 83.776 42.008 83.52C42.232 83.264 42.464 83.072 42.704 82.944C42.912 82.848 43 82.776 42.968 82.728C42.936 82.664 42.768 82.568 42.464 82.44C41.776 82.168 41.192 81.88 40.712 81.576C40.248 81.272 40.016 81.04 40.016 80.88C40.016 80.752 40.288 80.528 40.832 80.208C41.392 79.872 41.808 79.696 42.08 79.68C42.352 79.648 42.424 79.544 42.296 79.368C42.184 79.192 41.84 78.888 41.264 78.456C41.248 78.44 41.216 78.416 41.168 78.384C40.96 78.224 40.824 78.152 40.76 78.168C40.696 78.168 40.6 78.288 40.472 78.528C40.44 78.592 40.416 78.64 40.4 78.672C39.904 79.552 39.536 80.056 39.296 80.184C39.056 80.296 38.728 80.128 38.312 79.68C38.04 79.376 37.944 79.144 38.024 78.984C38.104 78.824 38.448 78.56 39.056 78.192C39.152 78.144 39.272 78.072 39.416 77.976C39.912 77.688 40.24 77.536 40.4 77.52C40.624 77.488 40.672 77.4 40.544 77.256C40.432 77.096 40.096 76.824 39.536 76.44C39.504 76.424 39.464 76.392 39.416 76.344C39.144 76.152 38.968 76.072 38.888 76.104C38.824 76.136 38.696 76.336 38.504 76.704C38.456 76.816 38.416 76.896 38.384 76.944C37.936 77.856 37.592 78.296 37.352 78.264C37.112 78.232 36.728 77.704 36.2 76.68C36.024 76.328 35.896 76.12 35.816 76.056C35.752 75.976 35.68 75.976 35.6 76.056C35.552 76.104 35.56 76.232 35.624 76.44C36.232 78.648 37.128 80.472 38.312 81.912C38.712 82.408 38.944 82.72 39.008 82.848C39.072 82.976 39.056 83.096 38.96 83.208C38.88 83.256 38.736 83.416 38.528 83.688C38.224 84.072 37.896 84.264 37.544 84.264C37.208 84.28 36.648 84.104 35.864 83.736C35.8 83.704 35.72 83.664 35.624 83.616C35.336 83.456 35.168 83.416 35.12 83.496C35.072 83.576 35.048 83.912 35.048 84.504C35.048 84.744 35.048 84.944 35.048 85.104C35.032 86.352 34.96 87.272 34.832 87.864C34.704 88.456 34.44 89 34.04 89.496C33.848 89.752 33.792 89.936 33.872 90.048ZM58.424 97.92C58.584 98.096 59.12 97.816 60.032 97.08C60.944 96.344 61.68 95.592 62.24 94.824C63.184 93.56 63.872 92.104 64.304 90.456C64.752 88.792 65.04 86.56 65.168 83.76C65.2 83.088 65.264 82.696 65.36 82.584C65.472 82.472 65.84 82.416 66.464 82.416C66.496 82.416 66.552 82.416 66.632 82.416C67.064 82.416 67.336 82.464 67.448 82.56C67.608 82.688 67.696 83.008 67.712 83.52C67.744 83.888 67.736 84.76 67.688 86.136C67.672 86.344 67.664 86.504 67.664 86.616C67.568 89.672 67.456 91.68 67.328 92.64C67.184 93.872 66.896 94.648 66.464 94.968C66.128 95.224 65.456 95.312 64.448 95.232C63.888 95.184 63.592 95.192 63.56 95.256C63.512 95.384 63.632 95.496 63.92 95.592C64.496 95.752 64.912 95.968 65.168 96.24C65.424 96.512 65.584 96.92 65.648 97.464C65.664 97.656 65.744 97.768 65.888 97.8C66.032 97.832 66.288 97.8 66.656 97.704C67.472 97.496 68.072 97.064 68.456 96.408C68.856 95.704 69.152 94.496 69.344 92.784C69.52 91.248 69.648 88.784 69.728 85.392C69.76 84.112 69.8 83.36 69.848 83.136C69.896 82.896 70.04 82.72 70.28 82.608C70.552 82.48 70.688 82.368 70.688 82.272C70.688 82.176 70.552 81.984 70.28 81.696C69.656 81.056 69.216 80.696 68.96 80.616C68.72 80.52 68.456 80.632 68.168 80.952C67.832 81.336 67.584 81.568 67.424 81.648C67.264 81.712 66.928 81.744 66.416 81.744C66.384 81.744 66.336 81.744 66.272 81.744C65.888 81.744 65.64 81.72 65.528 81.672C65.384 81.592 65.296 81.416 65.264 81.144C65.232 80.936 65.216 80.448 65.216 79.68C65.216 79.52 65.216 79.392 65.216 79.296C65.232 78.208 65.256 77.544 65.288 77.304C65.336 77.064 65.448 76.88 65.624 76.752C65.864 76.592 65.744 76.44 65.264 76.296C64.784 76.152 64.16 76.08 63.392 76.08C63.376 76.08 63.352 76.08 63.32 76.08C63.224 76.064 63.168 76.144 63.152 76.32C63.136 76.48 63.128 77.072 63.128 78.096C63.128 78.368 63.128 78.584 63.128 78.744C63.128 78.872 63.128 79.048 63.128 79.272C63.128 80.248 63.104 80.864 63.056 81.12C62.992 81.472 62.832 81.68 62.576 81.744C62.384 81.776 61.928 81.752 61.208 81.672C61.032 81.656 60.896 81.64 60.8 81.624C60.656 81.608 60.576 81.624 60.56 81.672C60.544 81.704 60.576 81.792 60.656 81.936C60.704 82.032 60.744 82.168 60.776 82.344C60.792 82.488 60.832 82.56 60.896 82.56C60.976 82.56 61.024 82.584 61.04 82.632C61.104 82.68 61.248 82.656 61.472 82.56C62.208 82.304 62.664 82.296 62.84 82.536C63.032 82.776 63.104 83.464 63.056 84.6C62.88 89.112 62.264 92.192 61.208 93.84C61.144 93.92 61.024 94.128 60.848 94.464C60.8 94.576 60.76 94.656 60.728 94.704C60.536 95.104 60.208 95.592 59.744 96.168C59.296 96.76 58.904 97.192 58.568 97.464C58.36 97.624 58.312 97.776 58.424 97.92ZM50.144 97.608C50.208 97.768 50.36 97.744 50.6 97.536C50.744 97.408 50.92 97.296 51.128 97.2C51.352 97.12 51.856 96.96 52.64 96.72C54.896 96.048 56.816 95.44 58.4 94.896C59.936 94.368 60.712 94.056 60.728 93.96C60.76 93.848 60.68 93.792 60.488 93.792C60.296 93.808 59.696 93.872 58.688 93.984H58.64C57.648 94.112 57.024 94.184 56.768 94.2C56.4 94.216 56.168 94.16 56.072 94.032C56.008 93.936 55.976 93.696 55.976 93.312C55.976 93.28 55.976 93.248 55.976 93.216V93.192C55.976 92.84 56.008 92.616 56.072 92.52C56.136 92.392 56.328 92.312 56.648 92.28C56.888 92.264 57.432 92.256 58.28 92.256C58.36 92.256 58.416 92.256 58.448 92.256C59.872 92.256 60.64 92.168 60.752 91.992C60.864 91.8 60.44 91.328 59.48 90.576C59.176 90.336 59.024 90.184 59.024 90.12C59.04 90.04 59.24 89.912 59.624 89.736L59.648 89.712C59.968 89.568 60.152 89.456 60.2 89.376C60.248 89.28 60.264 89.04 60.248 88.656C60.248 88.56 60.24 88.336 60.224 87.984C60.208 87.168 60.2 86.536 60.2 86.088C60.184 84.904 60.192 84.208 60.224 84C60.272 83.776 60.432 83.592 60.704 83.448C60.944 83.352 61.024 83.224 60.944 83.064C60.896 82.952 60.856 82.848 60.824 82.752C60.808 82.624 60.728 82.536 60.584 82.488C60.408 82.408 60.168 82.272 59.864 82.08C59.496 81.84 59.256 81.728 59.144 81.744C59.048 81.744 58.88 81.896 58.64 82.2C58.416 82.488 58.232 82.664 58.088 82.728C57.944 82.792 57.656 82.832 57.224 82.848C56.664 82.864 56.312 82.824 56.168 82.728C56.04 82.616 55.976 82.344 55.976 81.912C55.976 81.896 55.976 81.864 55.976 81.816C55.976 81.512 56.008 81.312 56.072 81.216C56.152 81.104 56.368 81.032 56.72 81C56.976 80.984 57.584 80.976 58.544 80.976C58.624 80.976 58.688 80.976 58.736 80.976C59.888 80.976 60.632 80.944 60.968 80.88C61.384 80.8 61.512 80.648 61.352 80.424C61.24 80.216 60.832 79.84 60.128 79.296C59.728 78.976 59.472 78.824 59.36 78.84C59.248 78.856 59.048 79.056 58.76 79.44C58.44 79.888 58.2 80.152 58.04 80.232C57.896 80.312 57.592 80.352 57.128 80.352C56.632 80.352 56.32 80.304 56.192 80.208C56.064 80.096 55.984 79.832 55.952 79.416C55.92 78.856 55.976 78.512 56.12 78.384C56.28 78.24 56.744 78.12 57.512 78.024C57.672 78.008 57.936 77.976 58.304 77.928C58.672 77.88 58.912 77.848 59.024 77.832C59.376 77.768 59.696 77.76 59.984 77.808C60.368 77.872 60.528 77.824 60.464 77.664C60.416 77.488 60.096 77.08 59.504 76.44C59.472 76.408 59.432 76.36 59.384 76.296C59.096 76.008 58.904 75.848 58.808 75.816C58.728 75.768 58.584 75.792 58.376 75.888C58.344 75.904 58.32 75.912 58.304 75.912C56.144 76.712 53.6 77.4 50.672 77.976C49.968 78.12 49.552 78.216 49.424 78.264C49.296 78.312 49.248 78.392 49.28 78.504C49.312 78.616 50.328 78.616 52.328 78.504C53.032 78.456 53.464 78.456 53.624 78.504C53.8 78.552 53.92 78.688 53.984 78.912C54.048 79.216 54.048 79.504 53.984 79.776C53.936 80.032 53.832 80.2 53.672 80.28C53.544 80.344 52.896 80.368 51.728 80.352C50.56 80.32 49.744 80.264 49.28 80.184C49.168 80.152 49.112 80.176 49.112 80.256C49.112 80.336 49.168 80.504 49.28 80.76L49.304 80.784C49.432 81.056 49.536 81.208 49.616 81.24C49.712 81.272 49.952 81.256 50.336 81.192C51.728 80.952 52.688 80.888 53.216 81C53.744 81.096 54.008 81.4 54.008 81.912C54.008 82.52 53.752 82.856 53.24 82.92C52.728 82.968 51.912 82.752 50.792 82.272C50.312 82.064 50.016 81.952 49.904 81.936C49.792 81.92 49.752 81.984 49.784 82.128C49.88 82.672 49.944 83.768 49.976 85.416C50.008 87.064 49.984 88.312 49.904 89.16C49.872 89.736 49.896 90.088 49.976 90.216C50.056 90.344 50.288 90.384 50.672 90.336C51.344 90.24 51.736 90.056 51.848 89.784C51.992 89.48 52.36 89.328 52.952 89.328C53.544 89.328 53.88 89.48 53.96 89.784C54.04 90.056 54.056 90.384 54.008 90.768C53.96 91.152 53.872 91.384 53.744 91.464C53.632 91.544 53.176 91.584 52.376 91.584C51.576 91.584 50.712 91.544 49.784 91.464C49.576 91.432 49.464 91.448 49.448 91.512C49.432 91.56 49.504 91.744 49.664 92.064C49.68 92.08 49.696 92.112 49.712 92.16C49.824 92.368 49.904 92.488 49.952 92.52C50.016 92.552 50.184 92.544 50.456 92.496C50.52 92.48 50.576 92.472 50.624 92.472C52 92.216 52.904 92.152 53.336 92.28C53.784 92.408 54.008 92.784 54.008 93.408C54.008 93.456 54.008 93.512 54.008 93.576C54.008 93.944 53.984 94.184 53.936 94.296C53.856 94.44 53.656 94.544 53.336 94.608C53.112 94.656 52.576 94.72 51.728 94.8C51.568 94.8 51.448 94.808 51.368 94.824C51.224 94.84 51.04 94.856 50.816 94.872C50.048 94.952 49.6 95 49.472 95.016C49.344 95.032 49.28 95.072 49.28 95.136C49.28 95.296 49.568 96.12 50.144 97.608ZM57.56 91.512C57.416 91.576 57.184 91.6 56.864 91.584C56.544 91.568 56.336 91.528 56.24 91.464C56.032 91.336 55.928 91.008 55.928 90.48C55.928 89.952 56.032 89.624 56.24 89.496C56.448 89.352 56.824 89.312 57.368 89.376C57.928 89.44 58.208 89.552 58.208 89.712C58.208 89.872 58.296 89.952 58.472 89.952C58.536 89.952 58.6 89.984 58.664 90.048C58.728 90.112 58.744 90.16 58.712 90.192C58.568 90.432 58.36 90.704 58.088 91.008C57.832 91.312 57.656 91.48 57.56 91.512ZM53.672 88.632C53.56 88.696 53.312 88.72 52.928 88.704C52.56 88.704 52.32 88.672 52.208 88.608C51.984 88.496 51.864 88.152 51.848 87.576C51.832 87 51.936 86.648 52.16 86.52C52.288 86.456 52.552 86.424 52.952 86.424C53.384 86.44 53.648 86.488 53.744 86.568C53.968 86.712 54.064 87.064 54.032 87.624C54.016 88.184 53.896 88.52 53.672 88.632ZM57.104 88.704C56.688 88.704 56.424 88.68 56.312 88.632C56.088 88.504 55.96 88.168 55.928 87.624C55.912 87.064 56.016 86.712 56.24 86.568C56.336 86.488 56.616 86.44 57.08 86.424C57.512 86.424 57.792 86.456 57.92 86.52C58.144 86.648 58.248 87 58.232 87.576C58.216 88.152 58.096 88.496 57.872 88.608C57.76 88.672 57.504 88.704 57.104 88.704ZM53.672 85.704C53.56 85.768 53.312 85.792 52.928 85.776C52.56 85.776 52.32 85.744 52.208 85.68C52.032 85.6 51.912 85.336 51.848 84.888C51.8 84.424 51.84 84.064 51.968 83.808C52.08 83.568 52.392 83.44 52.904 83.424C53.432 83.424 53.768 83.544 53.912 83.784C54.04 83.992 54.072 84.344 54.008 84.84C53.96 85.336 53.848 85.624 53.672 85.704ZM57.104 85.776C56.688 85.776 56.424 85.752 56.312 85.704C56.056 85.576 55.928 85.216 55.928 84.624C55.928 84.016 56.056 83.656 56.312 83.544C56.424 83.48 56.688 83.456 57.104 83.472C57.504 83.472 57.76 83.504 57.872 83.568C58.128 83.68 58.256 84.032 58.256 84.624C58.256 85.2 58.128 85.552 57.872 85.68C57.76 85.744 57.504 85.776 57.104 85.776ZM77.504 97.704C77.568 97.736 77.712 97.736 77.936 97.704C77.968 97.688 77.992 97.68 78.008 97.68C78.04 97.68 78.08 97.672 78.128 97.656C78.736 97.56 79.488 97.504 80.384 97.488C81.28 97.472 84.096 97.456 88.832 97.44C89.36 97.44 90.08 97.44 90.992 97.44C94.608 97.424 96.72 97.408 97.328 97.392C97.952 97.376 98.288 97.32 98.336 97.224L98.36 97.176C98.44 97.064 98.336 96.84 98.048 96.504C97.76 96.168 97.384 95.824 96.92 95.472C96.904 95.456 96.88 95.432 96.848 95.4C96.512 95.144 96.288 95.04 96.176 95.088C96.064 95.12 95.832 95.384 95.48 95.88C95.464 95.912 95.448 95.936 95.432 95.952C95.4 96 95.352 96.064 95.288 96.144C95.08 96.448 94.864 96.624 94.64 96.672C94.432 96.72 93.776 96.752 92.672 96.768C92.4 96.768 92.184 96.768 92.024 96.768C91.88 96.768 91.68 96.768 91.424 96.768C90.48 96.768 89.88 96.76 89.624 96.744C89.272 96.696 89.048 96.6 88.952 96.456C88.904 96.36 88.88 96.112 88.88 95.712C88.88 95.6 88.88 95.512 88.88 95.448C88.88 95.368 88.88 95.248 88.88 95.088C88.864 94.736 88.888 94.512 88.952 94.416C89.064 94.288 89.32 94.208 89.72 94.176C90.008 94.144 90.696 94.128 91.784 94.128C92.232 94.128 92.592 94.128 92.864 94.128C92.912 94.128 92.992 94.128 93.104 94.128C94.656 94.112 95.624 94.088 96.008 94.056C96.552 94.024 96.808 93.92 96.776 93.744C96.744 93.632 96.496 93.352 96.032 92.904C95.984 92.872 95.952 92.848 95.936 92.832C95.28 92.192 94.856 91.864 94.664 91.848C94.472 91.816 94.208 92.048 93.872 92.544C93.84 92.592 93.8 92.656 93.752 92.736C93.496 93.104 93.28 93.32 93.104 93.384C92.928 93.432 92.408 93.456 91.544 93.456C91.368 93.456 91.224 93.456 91.112 93.456C90.184 93.456 89.632 93.448 89.456 93.432C89.296 93.416 89.176 93.368 89.096 93.288C88.968 93.176 88.912 93.024 88.928 92.832C88.944 92.64 89.032 92.48 89.192 92.352C89.304 92.256 89.336 92.168 89.288 92.088C89.256 92.008 89.128 91.912 88.904 91.8C88.584 91.624 88.4 91.488 88.352 91.392C88.32 91.28 88.384 91.12 88.544 90.912C88.624 90.8 88.672 90.64 88.688 90.432C88.704 90.208 88.72 89.488 88.736 88.272C88.736 86.992 88.744 86.232 88.76 85.992C88.776 85.752 88.84 85.576 88.952 85.464C89.048 85.368 89.136 85.312 89.216 85.296C89.424 85.216 89.48 85.096 89.384 84.936C89.288 84.76 89.032 84.504 88.616 84.168C88.36 83.96 88.2 83.792 88.136 83.664C88.088 83.536 88.128 83.4 88.256 83.256C88.336 83.176 88.384 83.072 88.4 82.944C88.416 82.8 88.424 82.384 88.424 81.696C88.424 80.928 88.44 80.456 88.472 80.28C88.504 80.104 88.608 79.96 88.784 79.848C89.04 79.688 89.128 79.536 89.048 79.392C88.968 79.232 88.664 78.944 88.136 78.528C88.104 78.512 88.072 78.488 88.04 78.456C87.736 78.216 87.536 78.096 87.44 78.096C87.36 78.096 87.2 78.224 86.96 78.48C86.912 78.528 86.88 78.56 86.864 78.576C86.56 78.896 85.984 79.072 85.136 79.104C84.304 79.136 83.552 79.008 82.88 78.72C82.224 78.432 81.84 78.28 81.728 78.264C81.616 78.232 81.576 78.296 81.608 78.456C81.768 79.544 81.848 80.728 81.848 82.008C81.848 83.272 81.76 83.848 81.584 83.736C81.504 83.672 81.448 83.744 81.416 83.952C81.4 84.16 81.392 84.736 81.392 85.68C81.392 87.296 81.344 88.888 81.248 90.456C81.2 91.064 81.248 91.44 81.392 91.584C81.536 91.712 81.856 91.696 82.352 91.536C82.752 91.424 83 91.288 83.096 91.128C83.208 90.968 83.248 90.656 83.216 90.192C83.184 89.648 83.184 89.296 83.216 89.136C83.28 88.944 83.44 88.816 83.696 88.752C83.888 88.72 84.352 88.704 85.088 88.704C85.92 88.704 86.432 88.736 86.624 88.8C86.816 88.848 86.912 89 86.912 89.256C86.912 89.72 86.504 89.904 85.688 89.808C85.464 89.792 85.24 89.784 85.016 89.784C84.936 89.816 84.912 89.888 84.944 90C84.992 90.096 85.056 90.144 85.136 90.144C85.44 90.144 85.736 90.28 86.024 90.552C86.328 90.808 86.48 91.072 86.48 91.344C86.48 91.44 86.512 91.52 86.576 91.584C86.752 91.808 86.824 92.144 86.792 92.592C86.76 93.024 86.648 93.288 86.456 93.384C86.376 93.432 85.4 93.448 83.528 93.432C81.656 93.432 80.448 93.408 79.904 93.36C79.536 93.328 79.328 93.336 79.28 93.384C79.248 93.416 79.312 93.576 79.472 93.864C79.488 93.896 79.504 93.936 79.52 93.984C79.648 94.24 79.744 94.384 79.808 94.416C79.888 94.448 80.08 94.44 80.384 94.392C80.416 94.376 80.448 94.368 80.48 94.368C81.376 94.24 82.624 94.168 84.224 94.152C84.32 94.152 84.448 94.152 84.608 94.152C85.408 94.136 85.92 94.136 86.144 94.152C86.432 94.184 86.616 94.28 86.696 94.44C86.744 94.552 86.768 94.816 86.768 95.232C86.768 95.328 86.768 95.4 86.768 95.448C86.768 95.912 86.744 96.216 86.696 96.36C86.664 96.504 86.576 96.616 86.432 96.696C86.288 96.776 84.84 96.8 82.088 96.768C79.352 96.736 77.704 96.68 77.144 96.6C77.016 96.568 76.952 96.592 76.952 96.672C76.952 96.752 77.032 96.936 77.192 97.224C77.208 97.24 77.224 97.272 77.24 97.32C77.368 97.544 77.456 97.672 77.504 97.704ZM77.024 92.016C77.12 92.112 77.328 91.992 77.648 91.656C77.968 91.304 78.304 90.848 78.656 90.288C79.376 89.136 79.88 87.864 80.168 86.472C80.472 85.064 80.64 83.152 80.672 80.736C80.688 79.376 80.704 78.584 80.72 78.36C80.752 78.12 80.856 77.96 81.032 77.88C81.176 77.816 82.2 77.792 84.104 77.808C86.008 77.808 87.04 77.84 87.2 77.904C87.392 77.968 87.544 77.976 87.656 77.928C87.736 77.88 88.016 77.848 88.496 77.832C88.896 77.832 90.152 77.824 92.264 77.808C92.376 77.808 92.464 77.808 92.528 77.808C94.928 77.792 96.336 77.776 96.752 77.76C97.168 77.744 97.416 77.672 97.496 77.544C97.64 77.336 97.248 76.896 96.32 76.224C95.904 75.92 95.632 75.768 95.504 75.768C95.376 75.752 95.2 75.872 94.976 76.128C94.912 76.208 94.84 76.312 94.76 76.44C94.568 76.696 94.384 76.864 94.208 76.944C93.984 77.04 93.52 77.096 92.816 77.112C92.336 77.128 91.192 77.136 89.384 77.136C88.552 77.136 87.888 77.136 87.392 77.136C84.16 77.12 82.232 77.096 81.608 77.064C80.984 77.016 80.392 76.88 79.832 76.656C79.752 76.624 79.632 76.576 79.472 76.512C79.04 76.304 78.784 76.2 78.704 76.2C78.64 76.2 78.616 76.304 78.632 76.512C78.632 76.576 78.632 76.632 78.632 76.68C78.664 77.112 78.672 78.456 78.656 80.712C78.656 82.968 78.64 84.32 78.608 84.768C78.384 87.472 77.92 89.648 77.216 91.296C77.024 91.696 76.96 91.936 77.024 92.016ZM96.08 91.104C96.256 91.28 96.376 91.368 96.44 91.368C96.504 91.368 96.56 91.264 96.608 91.056C96.688 90.752 96.84 90.472 97.064 90.216C97.288 89.96 97.536 89.784 97.808 89.688C98.032 89.608 98.136 89.528 98.12 89.448C98.104 89.352 97.952 89.224 97.664 89.064C96.816 88.568 96.072 87.936 95.432 87.168C94.792 86.384 94.32 85.536 94.016 84.624C93.856 84.144 93.784 83.832 93.8 83.688C93.816 83.496 93.976 83.376 94.28 83.328C94.52 83.296 95.056 83.28 95.888 83.28C97.008 83.28 97.648 83.24 97.808 83.16C97.968 83.08 97.848 82.856 97.448 82.488C97.112 82.184 96.912 81.952 96.848 81.792C96.784 81.616 96.824 81.432 96.968 81.24C97.256 80.856 97.248 80.456 96.944 80.04C96.64 79.624 96.12 79.32 95.384 79.128C94.968 79.016 94.712 78.992 94.616 79.056C94.52 79.104 94.576 79.248 94.784 79.488C95.104 79.888 95.32 80.304 95.432 80.736C95.56 81.152 95.56 81.48 95.432 81.72C95.208 82.12 94.952 82.392 94.664 82.536C94.376 82.68 94.128 82.648 93.92 82.44C93.76 82.28 93.712 81.728 93.776 80.784C93.84 79.824 93.96 79.248 94.136 79.056C94.28 78.912 94.304 78.808 94.208 78.744C94.128 78.664 93.864 78.584 93.416 78.504C92.968 78.408 92.592 78.36 92.288 78.36C92.256 78.36 92.208 78.36 92.144 78.36C91.92 78.36 91.792 78.392 91.76 78.456C91.728 78.52 91.736 78.744 91.784 79.128C91.8 79.208 91.808 79.264 91.808 79.296C92 81.168 91.96 82.224 91.688 82.464C91.592 82.56 91.264 82.608 90.704 82.608C90.16 82.608 89.616 82.568 89.072 82.488C88.944 82.456 88.88 82.48 88.88 82.56C88.896 82.624 88.976 82.8 89.12 83.088C89.248 83.344 89.344 83.488 89.408 83.52C89.488 83.552 89.688 83.52 90.008 83.424C91.192 83.104 91.776 83.312 91.76 84.048C91.744 85.216 91.496 86.4 91.016 87.6C90.552 88.784 89.944 89.744 89.192 90.48C88.984 90.688 88.856 90.84 88.808 90.936C88.776 91.016 88.792 91.096 88.856 91.176C88.936 91.24 89.024 91.256 89.12 91.224C89.232 91.176 89.44 91.048 89.744 90.84C91.216 89.848 92.272 88.544 92.912 86.928C93.168 86.288 93.352 85.984 93.464 86.016C93.576 86.032 93.744 86.408 93.968 87.144C94.512 88.92 95.216 90.24 96.08 91.104ZM85.112 88.032C84.232 88.032 83.696 88.008 83.504 87.96C83.312 87.896 83.216 87.736 83.216 87.48C83.216 87.224 83.312 87.072 83.504 87.024C83.696 86.96 84.232 86.928 85.112 86.928C85.96 86.928 86.472 86.96 86.648 87.024C86.824 87.072 86.912 87.224 86.912 87.48C86.912 87.624 86.856 87.752 86.744 87.864C86.664 87.944 86.552 87.992 86.408 88.008C86.28 88.024 85.848 88.032 85.112 88.032ZM86.6 86.184C86.456 86.248 85.936 86.272 85.04 86.256C84.128 86.256 83.624 86.224 83.528 86.16C83.336 86.032 83.232 85.872 83.216 85.68C83.216 85.472 83.312 85.32 83.504 85.224C83.68 85.144 84.24 85.12 85.184 85.152C86.128 85.168 86.648 85.224 86.744 85.32C86.888 85.464 86.944 85.624 86.912 85.8C86.88 85.976 86.776 86.104 86.6 86.184ZM84.992 84.48C84.048 84.496 83.488 84.472 83.312 84.408C82.768 84.232 82.8 83.96 83.408 83.592C83.44 83.576 83.496 83.544 83.576 83.496C83.656 83.448 83.712 83.416 83.744 83.4C83.936 83.272 84.448 83.232 85.28 83.28C86.128 83.312 86.6 83.392 86.696 83.52C86.76 83.584 86.808 83.616 86.84 83.616C87.016 83.616 87.072 83.728 87.008 83.952C86.944 84.16 86.808 84.304 86.6 84.384C86.472 84.448 85.936 84.48 84.992 84.48ZM85.136 82.608C84.464 82.608 84.072 82.584 83.96 82.536C83.784 82.472 83.68 82.344 83.648 82.152C83.616 81.96 83.672 81.8 83.816 81.672C83.944 81.544 84.384 81.48 85.136 81.48C85.904 81.48 86.344 81.544 86.456 81.672C86.6 81.816 86.656 81.976 86.624 82.152C86.592 82.328 86.488 82.456 86.312 82.536C86.2 82.584 85.808 82.608 85.136 82.608ZM85.136 80.832C84.464 80.832 84.072 80.808 83.96 80.76C83.752 80.664 83.648 80.504 83.648 80.28C83.648 80.04 83.752 79.88 83.96 79.8C84.088 79.752 84.48 79.728 85.136 79.728C85.808 79.728 86.2 79.752 86.312 79.8C86.536 79.88 86.648 80.04 86.648 80.28C86.648 80.52 86.536 80.68 86.312 80.76C86.2 80.808 85.808 80.832 85.136 80.832ZM111.632 97.872C111.824 98.064 112.48 97.592 113.6 96.456C114.752 95.272 115.552 93.912 116 92.376C116.464 90.84 116.712 88.664 116.744 85.848C116.76 84.84 116.776 84.208 116.792 83.952C116.824 83.68 116.88 83.512 116.96 83.448C117.168 83.336 117.52 83.88 118.016 85.08C118.528 86.28 118.784 87.192 118.784 87.816C118.784 88.168 119 88.368 119.432 88.416C119.864 88.464 120.232 88.336 120.536 88.032C120.552 88.016 120.576 87.992 120.608 87.96C120.8 87.768 120.92 87.704 120.968 87.768C121.032 87.848 121.08 88.176 121.112 88.752C121.112 89.168 121.12 90.176 121.136 91.776C121.136 92.016 121.136 92.2 121.136 92.328C121.136 92.552 121.136 92.872 121.136 93.288C121.136 94.904 121.16 95.92 121.208 96.336C121.288 96.944 121.464 97.32 121.736 97.464C121.928 97.576 122.392 97.624 123.128 97.608C123.32 97.608 123.472 97.608 123.584 97.608C124.48 97.608 125.128 97.56 125.528 97.464C125.944 97.368 126.248 97.192 126.44 96.936C126.568 96.728 126.616 96.488 126.584 96.216C126.568 95.96 126.472 95.768 126.296 95.64C126.12 95.512 126.016 95.344 125.984 95.136C125.92 94.912 125.88 94.408 125.864 93.624C125.864 93.464 125.856 93.256 125.84 93C125.808 92.424 125.768 92.144 125.72 92.16C125.656 92.16 125.608 92.224 125.576 92.352C125.544 92.464 125.472 92.8 125.36 93.36C125.152 94.384 124.912 95.048 124.64 95.352C124.384 95.64 124.024 95.656 123.56 95.4C123.544 95.384 123.52 95.376 123.488 95.376C123.392 95.344 123.328 95.24 123.296 95.064C123.264 94.824 123.24 94.232 123.224 93.288C123.224 92.632 123.216 91.056 123.2 88.56C123.2 87.936 123.2 87.456 123.2 87.12C123.2 86.704 123.2 86.128 123.2 85.392C123.2 82.864 123.208 81.264 123.224 80.592C123.24 79.648 123.28 79.048 123.344 78.792C123.392 78.6 123.504 78.472 123.68 78.408C123.744 78.392 123.792 78.376 123.824 78.36C124.048 78.248 124.152 78.144 124.136 78.048C124.12 77.952 123.96 77.752 123.656 77.448C123.032 76.824 122.592 76.456 122.336 76.344C122.08 76.232 121.848 76.304 121.64 76.56C121.608 76.608 121.56 76.672 121.496 76.752C121.176 77.136 120.92 77.36 120.728 77.424C120.536 77.488 120.032 77.52 119.216 77.52C119.04 77.52 118.904 77.52 118.808 77.52C117.896 77.504 117.312 77.48 117.056 77.448C116.816 77.4 116.392 77.248 115.784 76.992C115.72 76.96 115.632 76.92 115.52 76.872C115.008 76.68 114.712 76.592 114.632 76.608C114.552 76.624 114.528 76.792 114.56 77.112C114.576 77.192 114.584 77.248 114.584 77.28C114.696 78.48 114.744 80.848 114.728 84.384C114.728 87.328 114.704 88.984 114.656 89.352C114.48 91.256 114.168 92.824 113.72 94.056C113.272 95.288 112.584 96.472 111.656 97.608C111.592 97.688 111.56 97.736 111.56 97.752C111.56 97.784 111.584 97.824 111.632 97.872ZM108.44 97.896C108.632 97.992 108.92 97.984 109.304 97.872C109.704 97.76 110.008 97.6 110.216 97.392C110.296 97.328 110.336 97.224 110.336 97.08C110.336 96.936 110.32 96.464 110.288 95.664C110.208 93.008 110.224 91.584 110.336 91.392C110.464 91.12 110.632 91.096 110.84 91.32C111.048 91.544 111.184 91.904 111.248 92.4C111.28 92.656 111.32 92.808 111.368 92.856C111.416 92.888 111.536 92.88 111.728 92.832C112.288 92.736 112.648 92.592 112.808 92.4C113.016 92.144 113.152 91.56 113.216 90.648C113.248 89.992 113.264 88.464 113.264 86.064C113.264 85.792 113.264 85.408 113.264 84.912C113.264 83.504 113.272 82.608 113.288 82.224C113.288 81.696 113.32 81.352 113.384 81.192C113.416 81.08 113.512 80.984 113.672 80.904C113.72 80.872 113.76 80.848 113.792 80.832C114.08 80.672 114.152 80.464 114.008 80.208C113.88 79.952 113.496 79.584 112.856 79.104C112.536 78.88 112.328 78.776 112.232 78.792C112.136 78.808 111.992 78.952 111.8 79.224C111.56 79.576 111.352 79.8 111.176 79.896C111.016 79.992 110.84 80 110.648 79.92C110.408 79.808 110.296 79.352 110.312 78.552C110.328 77.752 110.464 77.248 110.72 77.04C110.944 76.864 110.928 76.704 110.672 76.56C110.416 76.416 109.824 76.224 108.896 75.984C108.864 75.968 108.816 75.96 108.752 75.96C108.4 75.864 108.2 75.832 108.152 75.864C108.104 75.88 108.096 76 108.128 76.224V76.272C108.304 77.584 108.368 78.488 108.32 78.984C108.272 79.544 108.088 79.856 107.768 79.92C107.48 79.968 106.96 79.824 106.208 79.488C105.728 79.264 105.432 79.144 105.32 79.128C105.224 79.112 105.192 79.168 105.224 79.296C105.4 80.384 105.488 82.344 105.488 85.176C105.488 87.352 105.416 89.76 105.272 92.4C105.24 92.816 105.32 93.08 105.512 93.192C105.72 93.304 106.048 93.28 106.496 93.12C106.944 92.96 107.208 92.8 107.288 92.64C107.368 92.464 107.392 92.056 107.36 91.416C107.296 90.072 107.248 88.072 107.216 85.416C107.2 82.808 107.216 81.384 107.264 81.144C107.344 80.84 107.528 80.688 107.816 80.688C108.12 80.688 108.304 80.84 108.368 81.144C108.432 81.432 108.448 83.656 108.416 87.816C108.384 91.96 108.328 94.664 108.248 95.928C108.184 96.824 108.16 97.352 108.176 97.512C108.192 97.688 108.28 97.816 108.44 97.896ZM111.2 90.552C111.04 90.664 110.872 90.696 110.696 90.648C110.52 90.6 110.392 90.488 110.312 90.312C110.264 90.184 110.24 88.632 110.24 85.656C110.24 82.664 110.264 81.112 110.312 81C110.392 80.792 110.552 80.68 110.792 80.664C111.048 80.648 111.256 80.744 111.416 80.952C111.464 81.016 111.488 81.248 111.488 81.648C111.504 82.032 111.512 83.36 111.512 85.632C111.512 85.856 111.512 86.168 111.512 86.568C111.512 88.472 111.496 89.592 111.464 89.928C111.448 90.248 111.376 90.448 111.248 90.528L111.2 90.552ZM121.04 85.944C120.976 86.136 120.896 86.192 120.8 86.112C120.72 86.032 120.512 85.712 120.176 85.152C119.92 84.752 119.424 84.264 118.688 83.688C117.952 83.096 117.416 82.768 117.08 82.704C116.936 82.688 116.848 82.584 116.816 82.392C116.8 82.184 116.784 81.56 116.768 80.52C116.768 80.36 116.768 80.152 116.768 79.896C116.752 79.256 116.768 78.848 116.816 78.672C116.864 78.448 117 78.304 117.224 78.24C117.384 78.208 117.768 78.192 118.376 78.192C118.616 78.192 118.808 78.192 118.952 78.192C119.944 78.192 120.528 78.208 120.704 78.24C120.88 78.272 121 78.4 121.064 78.624C121.128 78.784 121.152 80.008 121.136 82.296C121.12 84.584 121.088 85.8 121.04 85.944ZM140.048 97.704C140.048 98.024 140.8 97.872 142.304 97.248C143.808 96.64 145.056 95.976 146.048 95.256C146.544 94.888 146.896 94.68 147.104 94.632C147.36 94.6 147.456 94.536 147.392 94.44C147.344 94.344 147.112 94.168 146.696 93.912C146.024 93.496 145.664 93.224 145.616 93.096C145.552 92.936 145.84 92.832 146.48 92.784C146.976 92.752 148.144 92.736 149.984 92.736C152.08 92.736 153.312 92.728 153.68 92.712C154.048 92.68 154.28 92.6 154.376 92.472C154.52 92.248 154.184 91.76 153.368 91.008C153.096 90.784 152.912 90.68 152.816 90.696C152.736 90.696 152.592 90.848 152.384 91.152C152.128 91.52 151.92 91.744 151.76 91.824C151.6 91.904 151.464 91.864 151.352 91.704C151.304 91.64 151.272 91.448 151.256 91.128C151.256 90.808 151.256 89.728 151.256 87.888C151.256 87.616 151.256 87.256 151.256 86.808C151.256 85.672 151.264 84.952 151.28 84.648C151.312 84.232 151.4 83.968 151.544 83.856C151.64 83.792 151.872 83.76 152.24 83.76C152.4 83.76 152.528 83.76 152.624 83.76C153.232 83.76 153.608 83.744 153.752 83.712C153.896 83.664 153.968 83.552 153.968 83.376C153.968 83.248 153.8 83.008 153.464 82.656C153.128 82.288 152.848 82.04 152.624 81.912C152.512 81.864 152.424 81.856 152.36 81.888C152.296 81.92 152.192 82.032 152.048 82.224C151.84 82.512 151.664 82.664 151.52 82.68C151.392 82.696 151.328 82.576 151.328 82.32C151.328 82.048 151.408 81.848 151.568 81.72C151.744 81.576 151.72 81.44 151.496 81.312C151.288 81.184 150.784 81.008 149.984 80.784H149.96C149.512 80.64 149.248 80.584 149.168 80.616C149.104 80.632 149.088 80.76 149.12 81V81.048C149.232 82.216 149.152 82.872 148.88 83.016C148.768 83.08 148.32 83.104 147.536 83.088C146.736 83.088 146.288 83.064 146.192 83.016C146 82.904 145.904 82.688 145.904 82.368C145.92 82.048 146.016 81.832 146.192 81.72C146.416 81.592 146.416 81.464 146.192 81.336C145.968 81.192 145.456 81 144.656 80.76C144.08 80.6 143.92 80.352 144.176 80.016L144.2 79.992C144.312 79.864 144.528 79.792 144.848 79.776C145.184 79.744 146.288 79.728 148.16 79.728C148.544 79.728 148.848 79.728 149.072 79.728C150.896 79.728 152.056 79.72 152.552 79.704C153.24 79.704 153.664 79.672 153.824 79.608C153.952 79.576 154.016 79.488 154.016 79.344C154.016 79.184 153.68 78.8 153.008 78.192C152.352 77.584 151.944 77.28 151.784 77.28C151.672 77.28 151.408 77.568 150.992 78.144C150.96 78.192 150.912 78.264 150.848 78.36C150.608 78.696 150.384 78.896 150.176 78.96C149.968 79.008 149.368 79.04 148.376 79.056C148.168 79.056 148 79.056 147.872 79.056C147.776 79.056 147.64 79.056 147.464 79.056C146.648 79.056 146.128 79.048 145.904 79.032C145.6 79.032 145.408 79 145.328 78.936C145.28 78.904 145.256 78.808 145.256 78.648C145.256 78.424 145.376 78.128 145.616 77.76C145.872 77.376 146.088 77.152 146.264 77.088C146.536 76.992 146.52 76.848 146.216 76.656C145.928 76.464 145.264 76.176 144.224 75.792L144.2 75.768C143.848 75.64 143.64 75.584 143.576 75.6C143.512 75.616 143.472 75.736 143.456 75.96V76.008C143.344 77.08 143.072 78.152 142.64 79.224C142.416 79.816 142.216 80.128 142.04 80.16C141.864 80.176 141.512 79.952 140.984 79.488C140.952 79.456 140.912 79.416 140.864 79.368C140.544 79.096 140.344 78.96 140.264 78.96C140.184 78.96 140.048 79.096 139.856 79.368C139.824 79.416 139.8 79.448 139.784 79.464C139.48 79.88 139.248 80.152 139.088 80.28C138.944 80.408 138.8 80.456 138.656 80.424C138.4 80.36 138.264 79.816 138.248 78.792C138.232 77.752 138.352 77.136 138.608 76.944C138.816 76.8 138.784 76.664 138.512 76.536C138.256 76.392 137.672 76.2 136.76 75.96C136.712 75.944 136.648 75.928 136.568 75.912C136.216 75.816 136.008 75.792 135.944 75.84C135.896 75.872 135.888 76.064 135.92 76.416C135.936 76.496 135.944 76.56 135.944 76.608C136.072 77.952 136.12 78.904 136.088 79.464C136.072 80.008 135.968 80.336 135.776 80.448C135.696 80.48 135.312 80.496 134.624 80.496C133.952 80.48 133.448 80.448 133.112 80.4C132.84 80.352 132.688 80.352 132.656 80.4C132.624 80.416 132.688 80.592 132.848 80.928C133.024 81.264 133.136 81.432 133.184 81.432C133.2 81.416 133.272 81.392 133.4 81.36C133.544 81.328 133.656 81.304 133.736 81.288C134.488 81.096 134.96 81.096 135.152 81.288C135.344 81.464 135.44 82 135.44 82.896C135.44 88.704 134.576 93.392 132.848 96.96C132.832 97.008 132.8 97.064 132.752 97.128C132.608 97.448 132.52 97.64 132.488 97.704C132.472 97.768 132.488 97.824 132.536 97.872C132.616 97.952 132.712 97.944 132.824 97.848C132.936 97.752 133.176 97.464 133.544 96.984C135.432 94.52 136.648 91.128 137.192 86.808C137.272 86.104 137.368 85.68 137.48 85.536C137.592 85.376 137.872 85.296 138.32 85.296C138.72 85.296 138.968 85.36 139.064 85.488C139.208 85.648 139.28 86.04 139.28 86.664C139.28 87.144 139.224 88.2 139.112 89.832C139 91.608 138.872 92.84 138.728 93.528C138.568 94.312 138.312 94.832 137.96 95.088C137.656 95.296 137.128 95.376 136.376 95.328C135.928 95.296 135.648 95.288 135.536 95.304C135.44 95.32 135.392 95.368 135.392 95.448C135.392 95.512 135.408 95.56 135.44 95.592C135.472 95.608 135.576 95.648 135.752 95.712C135.848 95.744 135.92 95.768 135.968 95.784C136.32 95.912 136.6 96.12 136.808 96.408C137.016 96.712 137.12 97.056 137.12 97.44C137.12 97.616 137.152 97.712 137.216 97.728C137.28 97.76 137.44 97.76 137.696 97.728C138.608 97.6 139.28 97.256 139.712 96.696C140.144 96.136 140.48 95.152 140.72 93.744C140.832 93.088 140.944 92.696 141.056 92.568C141.168 92.44 141.328 92.536 141.536 92.856C141.6 92.952 141.664 93 141.728 93C141.808 93.016 142.048 92.992 142.448 92.928H142.52C143.752 92.768 144.44 92.76 144.584 92.904C144.824 93.16 144.48 93.792 143.552 94.8C142.624 95.808 141.608 96.664 140.504 97.368C140.2 97.528 140.048 97.64 140.048 97.704ZM152.6 97.848C153.192 98.024 153.584 97.92 153.776 97.536C153.952 97.168 153.904 96.696 153.632 96.12C153.344 95.512 152.888 95 152.264 94.584C151.672 94.184 150.864 93.832 149.84 93.528C148.816 93.224 148.304 93.184 148.304 93.408C148.304 93.44 148.496 93.6 148.88 93.888C150.24 95.008 151.264 96.104 151.952 97.176C152.128 97.416 152.24 97.592 152.288 97.704C152.352 97.768 152.456 97.816 152.6 97.848ZM143.624 91.944C143.448 92.072 142.808 92.08 141.704 91.968C141.352 91.936 141.144 91.848 141.08 91.704C141.032 91.56 141.032 91.128 141.08 90.408C141.128 89.912 141.168 89.208 141.2 88.296C141.2 88.216 141.208 88.104 141.224 87.96C141.272 86.856 141.312 86.208 141.344 86.016C141.392 85.808 141.536 85.648 141.776 85.536C142.096 85.376 142.2 85.192 142.088 84.984C141.992 84.776 141.64 84.432 141.032 83.952C140.664 83.648 140.416 83.496 140.288 83.496C140.176 83.496 139.984 83.648 139.712 83.952C139.44 84.24 139.224 84.424 139.064 84.504C138.904 84.584 138.672 84.624 138.368 84.624C137.904 84.624 137.632 84.552 137.552 84.408C137.488 84.264 137.472 83.776 137.504 82.944C137.504 82.864 137.504 82.752 137.504 82.608C137.536 81.888 137.616 81.472 137.744 81.36C137.888 81.232 138.368 81.168 139.184 81.168C139.344 81.168 139.464 81.168 139.544 81.168C140.568 81.168 141.16 81.224 141.32 81.336C141.496 81.432 141.432 81.704 141.128 82.152C140.92 82.456 140.864 82.648 140.96 82.728C141.056 82.792 141.264 82.712 141.584 82.488C141.856 82.296 142.32 81.912 142.976 81.336C143.296 81.032 143.52 80.928 143.648 81.024C143.776 81.104 143.848 81.416 143.864 81.96C143.896 82.504 143.816 82.848 143.624 82.992C143.432 83.12 143.008 83.136 142.352 83.04C142.064 82.992 141.904 82.992 141.872 83.04C141.856 83.072 141.92 83.232 142.064 83.52C142.208 83.792 142.296 83.952 142.328 84C142.376 84.032 142.464 84.016 142.592 83.952C142.736 83.888 142.912 83.848 143.12 83.832C143.344 83.816 143.512 83.832 143.624 83.88C143.752 83.944 143.824 84.144 143.84 84.48C143.872 84.816 143.888 85.96 143.888 87.912C143.888 89.848 143.872 90.984 143.84 91.32C143.824 91.656 143.752 91.864 143.624 91.944ZM148.856 91.992C148.728 92.056 148.296 92.088 147.56 92.088C146.792 92.072 146.352 92.032 146.24 91.968C146.064 91.888 145.944 91.608 145.88 91.128C145.832 90.632 145.872 90.264 146 90.024C146.128 89.768 146.632 89.632 147.512 89.616C148.392 89.6 148.92 89.72 149.096 89.976C149.24 90.168 149.28 90.536 149.216 91.08C149.152 91.608 149.032 91.912 148.856 91.992ZM147.56 88.992C146.76 89.008 146.304 88.976 146.192 88.896C145.968 88.768 145.864 88.416 145.88 87.84C145.896 87.248 146.016 86.896 146.24 86.784C146.368 86.704 146.8 86.664 147.536 86.664C148.288 86.664 148.72 86.704 148.832 86.784C149.072 86.912 149.208 87.256 149.24 87.816C149.272 88.36 149.168 88.712 148.928 88.872C148.816 88.952 148.36 88.992 147.56 88.992ZM147.56 86.016C146.76 86.032 146.304 86 146.192 85.92C145.968 85.792 145.864 85.448 145.88 84.888C145.896 84.312 146.016 83.968 146.24 83.856C146.368 83.776 146.8 83.736 147.536 83.736C148.288 83.736 148.72 83.776 148.832 83.856C149.072 83.984 149.208 84.32 149.24 84.864C149.272 85.392 149.168 85.736 148.928 85.896C148.816 85.976 148.36 86.016 147.56 86.016ZM165.68 97.824C165.728 97.936 165.888 97.952 166.16 97.872C166.448 97.808 167.064 97.592 168.008 97.224C170.856 96.152 173.232 94.688 175.136 92.832C175.552 92.448 175.824 92.224 175.952 92.16C176.144 92.064 176.344 92.104 176.552 92.28C176.696 92.424 176.992 92.792 177.44 93.384C178.288 94.52 178.96 95.576 179.456 96.552C179.712 97.048 179.888 97.352 179.984 97.464C180.096 97.592 180.28 97.68 180.536 97.728C181.096 97.84 181.48 97.632 181.688 97.104C181.912 96.592 181.872 95.984 181.568 95.28C181.024 93.936 179.76 92.728 177.776 91.656C177.264 91.368 176.976 91.152 176.912 91.008C176.864 90.848 176.96 90.544 177.2 90.096C177.936 88.752 178.464 87.312 178.784 85.776C179.12 84.24 179.36 82.136 179.504 79.464C179.52 78.888 179.552 78.504 179.6 78.312C179.664 78.12 179.768 77.984 179.912 77.904C180.216 77.728 180.208 77.584 179.888 77.472C179.568 77.344 178.872 77.224 177.8 77.112C177.384 77.064 177.128 77.048 177.032 77.064C176.936 77.08 176.904 77.128 176.936 77.208C177.032 77.48 177.064 78.56 177.032 80.448C176.968 84.592 176.12 87.96 174.488 90.552C172.856 93.128 170.2 95.336 166.52 97.176C166.056 97.4 165.792 97.536 165.728 97.584C165.664 97.648 165.648 97.728 165.68 97.824ZM161.504 96C161.584 96.08 161.696 96.048 161.84 95.904C162.016 95.68 162.216 95.504 162.44 95.376C162.664 95.232 163.2 94.944 164.048 94.512C165.808 93.632 167.512 92.72 169.16 91.776C170.808 90.816 171.648 90.272 171.68 90.144C171.696 90.032 171.584 90.008 171.344 90.072C171.12 90.12 170.352 90.36 169.04 90.792C167.68 91.24 166.84 91.504 166.52 91.584C166.216 91.664 166.008 91.664 165.896 91.584C165.8 91.488 165.736 91.128 165.704 90.504C165.672 89.8 165.64 87.832 165.608 84.6C165.608 84.264 165.6 83.8 165.584 83.208C165.552 81.272 165.544 80.04 165.56 79.512C165.56 78.776 165.576 78.304 165.608 78.096C165.64 77.952 165.712 77.84 165.824 77.76L165.872 77.712C166.08 77.536 166.104 77.416 165.944 77.352C165.784 77.272 165.376 77.2 164.72 77.136C163.824 77.056 163.376 77.064 163.376 77.16C163.344 77.304 163.368 79.736 163.448 84.456C163.448 84.712 163.456 85.072 163.472 85.536C163.52 88.864 163.544 90.816 163.544 91.392C163.544 91.952 163.512 92.272 163.448 92.352C163.304 92.592 162.456 92.904 160.904 93.288C160.552 93.368 160.376 93.432 160.376 93.48C160.36 93.496 160.528 93.904 160.88 94.704C161.248 95.488 161.456 95.92 161.504 96ZM172.016 85.704C172.56 85.88 172.968 85.744 173.24 85.296C173.512 84.848 173.528 84.288 173.288 83.616C172.792 82.192 171.392 81.016 169.088 80.088C168.576 79.896 168.296 79.832 168.248 79.896C168.216 79.96 168.376 80.208 168.728 80.64C169.992 82.24 170.864 83.688 171.344 84.984C171.504 85.368 171.728 85.608 172.016 85.704ZM194.432 97.872C194.48 97.936 194.552 97.96 194.648 97.944C194.744 97.928 194.96 97.864 195.296 97.752C198 96.824 200.296 95.536 202.184 93.888C202.52 93.584 202.76 93.448 202.904 93.48C203.048 93.512 203.296 93.76 203.648 94.224C204.752 95.664 206.096 96.84 207.68 97.752C207.904 97.88 208.04 97.936 208.088 97.92C208.152 97.92 208.216 97.824 208.28 97.632C208.408 97.312 208.608 97.008 208.88 96.72C209.168 96.448 209.472 96.256 209.792 96.144C210.032 96.064 210.136 95.992 210.104 95.928C210.088 95.848 209.928 95.752 209.624 95.64C208.472 95.192 207.288 94.528 206.072 93.648C204.872 92.768 204.272 92.128 204.272 91.728C204.272 91.6 204.472 91.208 204.872 90.552C206.072 88.568 206.92 86.152 207.416 83.304C207.544 82.616 207.672 82.208 207.8 82.08C207.928 81.952 208.288 81.888 208.88 81.888C209.568 81.888 209.88 81.752 209.816 81.48C209.752 81.192 209.304 80.72 208.472 80.064C208.056 79.728 207.784 79.568 207.656 79.584C207.528 79.6 207.32 79.808 207.032 80.208C207 80.24 206.96 80.296 206.912 80.376C206.608 80.792 206.352 81.04 206.144 81.12C205.952 81.184 205.392 81.216 204.464 81.216C204.272 81.216 204.128 81.216 204.032 81.216C203.968 81.216 203.88 81.216 203.768 81.216C202.952 81.216 202.44 81.2 202.232 81.168C201.928 81.136 201.768 81.04 201.752 80.88C201.752 80.768 201.832 80.496 201.992 80.064C202.008 80.016 202.024 79.976 202.04 79.944C202.072 79.864 202.12 79.736 202.184 79.56C202.392 79 202.528 78.6 202.592 78.36C202.848 77.576 203.096 77.12 203.336 76.992C203.576 76.848 203.544 76.696 203.24 76.536C202.952 76.376 202.296 76.168 201.272 75.912C201.24 75.896 201.192 75.88 201.128 75.864C200.744 75.768 200.512 75.736 200.432 75.768C200.368 75.8 200.328 75.96 200.312 76.248C200.312 76.296 200.312 76.328 200.312 76.344C200.232 77.624 199.96 79.112 199.496 80.808C199.048 82.488 198.504 83.96 197.864 85.224C197.848 85.272 197.816 85.344 197.768 85.44C197.576 85.808 197.464 86.04 197.432 86.136C197.384 86.264 197.24 86.544 197 86.976C196.84 87.248 196.752 87.424 196.736 87.504C196.72 87.584 196.752 87.648 196.832 87.696C196.944 87.76 197.24 87.544 197.72 87.048C198.2 86.536 198.688 85.936 199.184 85.248C199.52 84.8 199.76 84.592 199.904 84.624C200.048 84.64 200.168 84.904 200.264 85.416C200.632 87.384 201.128 89.16 201.752 90.744C201.896 91.128 201.944 91.424 201.896 91.632C201.848 91.824 201.656 92.128 201.32 92.544C200.6 93.44 199.672 94.328 198.536 95.208C197.416 96.072 196.248 96.8 195.032 97.392C194.728 97.552 194.536 97.656 194.456 97.704C194.392 97.768 194.384 97.824 194.432 97.872ZM190.736 94.944C191.392 95.008 192.464 95.016 193.952 94.968C195.408 94.904 196.352 94.816 196.784 94.704C197.424 94.544 197.84 94.264 198.032 93.864C198.24 93.464 198.144 93.104 197.744 92.784C197.536 92.624 197.416 92.392 197.384 92.088C197.336 91.816 197.296 90.984 197.264 89.592V89.544C197.264 89.464 197.24 89.408 197.192 89.376C197.16 89.328 197.12 89.328 197.072 89.376C197.024 89.408 196.928 89.728 196.784 90.336C196.768 90.4 196.744 90.496 196.712 90.624C196.504 91.424 196.352 91.928 196.256 92.136C196.096 92.424 195.856 92.608 195.536 92.688C195.296 92.736 194.768 92.76 193.952 92.76C193.808 92.76 193.696 92.76 193.616 92.76C193.424 92.76 193.176 92.76 192.872 92.76C192.232 92.776 191.824 92.752 191.648 92.688C191.408 92.608 191.264 92.376 191.216 91.992C191.168 91.72 191.152 91.08 191.168 90.072C191.168 89.576 191.168 89.184 191.168 88.896C191.168 88.592 191.168 88.192 191.168 87.696C191.152 86.72 191.16 86.104 191.192 85.848C191.24 85.48 191.352 85.256 191.528 85.176C191.656 85.112 191.968 85.088 192.464 85.104C192.704 85.104 192.896 85.104 193.04 85.104C193.808 85.104 194.288 85.128 194.48 85.176C194.688 85.224 194.8 85.344 194.816 85.536V85.608C194.832 85.72 194.84 85.808 194.84 85.872C194.84 86.448 195.384 86.48 196.472 85.968C196.504 85.952 196.552 85.928 196.616 85.896C196.872 85.784 197.016 85.664 197.048 85.536C197.096 85.392 197.112 84.984 197.096 84.312C197.08 84.152 197.072 84.032 197.072 83.952C197.024 82.4 197 81.368 197 80.856C197.016 80.216 197.072 79.768 197.168 79.512C197.232 79.32 197.392 79.144 197.648 78.984C197.824 78.872 197.824 78.704 197.648 78.48C197.488 78.24 197.12 77.888 196.544 77.424C196.176 77.12 195.928 76.96 195.8 76.944C195.688 76.944 195.52 77.096 195.296 77.4C195.264 77.448 195.216 77.512 195.152 77.592C194.896 77.928 194.664 78.128 194.456 78.192C194.264 78.24 193.68 78.248 192.704 78.216C192.464 78.216 192.272 78.216 192.128 78.216C190.912 78.216 189.968 78.192 189.296 78.144C188.928 78.112 188.728 78.12 188.696 78.168C188.664 78.2 188.728 78.384 188.888 78.72L188.912 78.768C189.056 79.024 189.16 79.168 189.224 79.2C189.304 79.232 189.48 79.224 189.752 79.176C190.552 79.048 191.504 78.968 192.608 78.936C193.728 78.888 194.368 78.912 194.528 79.008C194.704 79.088 194.8 79.24 194.816 79.464C194.848 79.688 194.864 80.424 194.864 81.672C194.864 81.848 194.864 82.08 194.864 82.368C194.864 83.136 194.848 83.624 194.816 83.832C194.768 84.12 194.648 84.296 194.456 84.36C194.312 84.424 193.976 84.448 193.448 84.432C193.256 84.432 193.104 84.432 192.992 84.432C192.928 84.432 192.832 84.432 192.704 84.432C192.064 84.432 191.632 84.408 191.408 84.36C191.2 84.312 190.76 84.152 190.088 83.88C190.024 83.848 189.976 83.824 189.944 83.808C189.896 83.792 189.816 83.76 189.704 83.712C189.224 83.504 188.944 83.416 188.864 83.448C188.8 83.464 188.784 83.624 188.816 83.928C188.832 83.992 188.84 84.04 188.84 84.072C188.968 85.272 189.04 87.232 189.056 89.952C189.056 90.048 189.056 90.176 189.056 90.336C189.072 91.984 189.104 93.032 189.152 93.48C189.2 94.088 189.336 94.48 189.56 94.656C189.72 94.784 190.08 94.88 190.64 94.944C190.688 94.944 190.72 94.944 190.736 94.944ZM203.096 89.592C202.92 89.768 202.712 89.712 202.472 89.424C202.248 89.136 201.952 88.552 201.584 87.672C200.944 86.168 200.592 84.984 200.528 84.12C200.464 83.24 200.672 82.584 201.152 82.152C201.392 81.944 202.08 81.84 203.216 81.84C204.336 81.856 204.952 81.968 205.064 82.176C205.256 82.544 205.072 83.776 204.512 85.872C203.968 87.968 203.496 89.208 203.096 89.592ZM216.296 97.992C216.344 98.024 216.76 97.992 217.544 97.896C220.856 97.48 223.576 96.848 225.704 96C226.056 95.856 226.32 95.784 226.496 95.784C226.688 95.768 226.912 95.816 227.168 95.928C229.584 97 232.312 97.68 235.352 97.968C235.688 98 235.888 98 235.952 97.968C236.032 97.952 236.088 97.872 236.12 97.728C236.168 97.488 236.296 97.224 236.504 96.936C236.728 96.648 236.944 96.448 237.152 96.336C237.424 96.208 237.528 96.112 237.464 96.048C237.416 95.984 237.176 95.944 236.744 95.928C234.6 95.832 232.776 95.672 231.272 95.448C229.768 95.208 228.984 94.968 228.92 94.728C228.904 94.632 228.936 94.544 229.016 94.464C229.096 94.368 229.312 94.192 229.664 93.936C230.128 93.584 230.648 93.112 231.224 92.52C231.304 92.44 231.416 92.328 231.56 92.184C231.912 91.816 232.176 91.6 232.352 91.536C232.544 91.472 233.008 91.44 233.744 91.44C233.968 91.44 234.152 91.44 234.296 91.44C235.32 91.424 235.928 91.408 236.12 91.392C236.312 91.36 236.44 91.288 236.504 91.176C236.648 90.952 236.168 90.424 235.064 89.592C234.712 89.32 234.496 89.112 234.416 88.968C234.352 88.824 234.304 88.504 234.272 88.008C234.192 86.728 234.192 85.808 234.272 85.248C234.304 85.056 234.304 84.856 234.272 84.648C234.128 83.944 234.232 83.496 234.584 83.304C234.856 83.176 235.088 83.176 235.28 83.304C235.488 83.432 235.616 83.664 235.664 84C235.68 84.256 235.832 84.416 236.12 84.48C236.424 84.544 236.68 84.464 236.888 84.24C237.256 83.824 237.264 83.328 236.912 82.752C236.576 82.176 236 81.712 235.184 81.36C234.464 81.056 234.264 81.136 234.584 81.6C234.856 81.984 234.832 82.288 234.512 82.512C234.208 82.736 233.8 82.744 233.288 82.536C233.096 82.456 233.096 82.28 233.288 82.008C233.496 81.72 233.784 81.488 234.152 81.312C234.36 81.216 234.512 81.064 234.608 80.856C234.72 80.6 234.952 80.288 235.304 79.92C235.656 79.552 235.92 79.352 236.096 79.32C236.384 79.272 236.448 79.168 236.288 79.008C236.128 78.848 235.712 78.6 235.04 78.264C235.024 78.248 235 78.232 234.968 78.216C234.552 78.008 234.304 77.896 234.224 77.88C234.144 77.88 234.072 77.976 234.008 78.168C233.816 78.728 233.608 79.216 233.384 79.632C233.176 80.032 233.016 80.248 232.904 80.28C232.84 80.312 232.768 80.296 232.688 80.232C232.624 80.168 232.592 80.104 232.592 80.04C232.592 79.992 232.536 79.872 232.424 79.68C232.264 79.376 232.216 79.152 232.28 79.008C232.36 78.848 232.648 78.544 233.144 78.096C233.864 77.44 234.312 77.072 234.488 76.992C234.712 76.896 234.744 76.776 234.584 76.632C234.424 76.488 234.016 76.264 233.36 75.96C232.928 75.752 232.664 75.648 232.568 75.648C232.488 75.632 232.432 75.696 232.4 75.84C232.112 76.976 231.84 77.72 231.584 78.072C231.344 78.424 231.024 78.536 230.624 78.408C230.208 78.296 229.96 78.264 229.88 78.312C229.672 78.472 229.432 78.4 229.16 78.096C228.984 77.872 229.048 77.656 229.352 77.448C229.496 77.352 229.48 77.176 229.304 76.92C229.128 76.664 228.824 76.392 228.392 76.104C228.12 75.912 227.928 75.832 227.816 75.864C227.704 75.896 227.504 76.096 227.216 76.464C226.816 76.96 225.784 77.088 224.12 76.848C224.104 76.848 224.072 76.848 224.024 76.848C223.832 76.816 223.712 76.824 223.664 76.872L223.88 77.328C224.024 77.632 224.128 77.816 224.192 77.88C224.224 77.912 224.44 77.888 224.84 77.808C227.56 77.36 228.544 77.576 227.792 78.456C227.52 78.776 226.656 78.92 225.2 78.888C223.744 78.856 222.656 78.672 221.936 78.336C221.888 78.32 221.816 78.288 221.72 78.24C221.272 78.032 221.008 77.92 220.928 77.904C220.832 77.904 220.76 77.984 220.712 78.144L220.688 78.216C220.272 79.512 219.944 80.184 219.704 80.232C219.64 80.248 219.56 80.232 219.464 80.184C219.384 80.12 219.344 80.056 219.344 79.992C219.344 79.96 219.304 79.888 219.224 79.776C219.048 79.52 218.984 79.312 219.032 79.152C219.096 78.976 219.336 78.704 219.752 78.336C219.816 78.272 219.928 78.16 220.088 78C220.408 77.696 220.608 77.496 220.688 77.4C220.912 77.16 221.112 77 221.288 76.92C221.528 76.824 221.544 76.696 221.336 76.536C221.128 76.36 220.648 76.12 219.896 75.816C219.64 75.704 219.48 75.648 219.416 75.648C219.336 75.648 219.288 75.696 219.272 75.792C219.176 76.224 219.008 76.808 218.768 77.544C218.56 78.136 218.376 78.488 218.216 78.6C218.072 78.696 217.776 78.68 217.328 78.552C216.944 78.44 216.72 78.416 216.656 78.48C216.592 78.544 216.672 78.704 216.896 78.96C217.376 79.52 217.744 80.136 218 80.808C218.112 81.08 218.336 81.216 218.672 81.216C219.168 81.216 219.224 81.512 218.84 82.104C218.68 82.36 218.512 82.52 218.336 82.584C218.16 82.648 217.792 82.696 217.232 82.728C216.704 82.76 216.432 82.784 216.416 82.8C216.416 82.816 216.528 83.096 216.752 83.64C216.976 84.184 217.12 84.504 217.184 84.6C217.296 84.76 217.288 85.28 217.16 86.16C217.048 87.024 216.864 87.84 216.608 88.608C216.416 89.168 216.392 89.464 216.536 89.496C216.68 89.528 216.92 89.328 217.256 88.896C217.624 88.448 218.008 87.856 218.408 87.12C218.856 86.288 219.136 86.008 219.248 86.28C219.376 86.552 219.384 87.464 219.272 89.016C219.224 89.688 219.624 89.864 220.472 89.544C220.808 89.432 221 89.312 221.048 89.184C221.096 89.04 221.112 88.624 221.096 87.936C221.032 86.464 221.048 85.568 221.144 85.248C221.192 85.056 221.184 84.856 221.12 84.648C221.008 84.296 220.992 83.992 221.072 83.736C221.152 83.48 221.304 83.336 221.528 83.304C221.656 83.272 221.768 83.312 221.864 83.424C221.976 83.536 222.048 83.688 222.08 83.88C222.144 84.184 222.288 84.376 222.512 84.456C222.752 84.536 223.008 84.472 223.28 84.264C223.632 84.04 223.712 83.664 223.52 83.136C223.344 82.608 222.976 82.16 222.416 81.792C221.904 81.456 221.536 81.28 221.312 81.264C221.088 81.248 221.064 81.4 221.24 81.72C221.432 82.024 221.488 82.248 221.408 82.392C221.328 82.52 221.088 82.592 220.688 82.608C220.192 82.624 219.952 82.488 219.968 82.2C219.984 81.912 220.248 81.64 220.76 81.384C220.968 81.272 221.128 81.112 221.24 80.904C221.496 80.392 221.848 79.976 222.296 79.656C222.744 79.32 223.072 79.24 223.28 79.416C223.328 79.464 224.048 79.488 225.44 79.488C226.4 79.504 227.016 79.52 227.288 79.536C227.64 79.568 227.824 79.624 227.84 79.704C227.872 79.784 227.792 79.936 227.6 80.16C227.36 80.48 227.072 80.664 226.736 80.712C226.4 80.76 225.592 80.728 224.312 80.616C224.056 80.584 223.92 80.592 223.904 80.64C223.904 80.688 223.984 80.872 224.144 81.192C224.16 81.224 224.184 81.272 224.216 81.336C224.328 81.528 224.4 81.632 224.432 81.648C224.48 81.664 224.584 81.64 224.744 81.576C224.792 81.56 224.824 81.552 224.84 81.552C225.08 81.472 225.584 81.432 226.352 81.432C227.136 81.416 227.6 81.448 227.744 81.528C227.888 81.592 227.848 81.768 227.624 82.056C227.368 82.36 227.056 82.544 226.688 82.608C226.336 82.672 225.656 82.656 224.648 82.56C224.616 82.56 224.576 82.56 224.528 82.56L223.928 82.536C223.912 82.552 223.976 82.72 224.12 83.04C224.28 83.344 224.384 83.528 224.432 83.592C224.464 83.624 224.696 83.6 225.128 83.52C226.2 83.376 227.072 83.312 227.744 83.328C228.656 83.376 229.208 83.336 229.4 83.208C229.608 83.08 229.84 83.28 230.096 83.808C230.368 84.32 230.48 84.776 230.432 85.176C230.432 85.24 230.424 85.336 230.408 85.464C230.392 85.72 230.376 85.888 230.36 85.968C230.312 86.688 230.112 87.568 229.76 88.608C229.696 88.784 229.664 88.896 229.664 88.944C229.68 88.976 229.728 89.016 229.808 89.064C229.936 89.128 230.16 88.968 230.48 88.584C230.816 88.2 231.168 87.688 231.536 87.048C232 86.248 232.288 85.992 232.4 86.28C232.528 86.552 232.536 87.448 232.424 88.968C232.392 89.24 232.416 89.424 232.496 89.52C232.576 89.616 232.728 89.664 232.952 89.664C233.272 89.664 233.44 89.776 233.456 90C233.472 90.208 233.32 90.424 233 90.648C232.92 90.712 231.544 90.752 228.872 90.768C226.216 90.784 224.84 90.76 224.744 90.696C224.568 90.584 224.568 90.4 224.744 90.144C224.92 89.872 225.136 89.72 225.392 89.688C225.568 89.672 225.664 89.632 225.68 89.568C225.696 89.488 225.616 89.416 225.44 89.352C225.296 89.272 225.224 89.168 225.224 89.04C225.224 88.912 225.304 88.792 225.464 88.68C225.576 88.6 225.632 88.528 225.632 88.464C225.632 88.224 225.936 88.08 226.544 88.032C227.168 87.984 227.536 88.08 227.648 88.32C227.712 88.448 227.76 88.528 227.792 88.56C227.824 88.576 227.904 88.576 228.032 88.56C228.544 88.544 228.896 88.44 229.088 88.248C229.28 88.056 229.36 87.744 229.328 87.312C229.296 86.576 229.296 86.096 229.328 85.872C229.376 85.648 229.504 85.464 229.712 85.32C229.872 85.208 229.944 85.112 229.928 85.032C229.928 84.936 229.824 84.792 229.616 84.6C229.168 84.184 228.832 83.952 228.608 83.904C228.384 83.84 228.144 83.928 227.888 84.168C227.584 84.456 227.176 84.624 226.664 84.672C226.168 84.704 225.656 84.6 225.128 84.36C224.312 84.008 223.88 83.856 223.832 83.904C223.768 83.936 223.776 84.184 223.856 84.648C223.888 84.76 223.92 85.28 223.952 86.208C224 87.152 224.016 87.776 224 88.08C224 88.304 223.928 88.456 223.784 88.536C223.656 88.6 223.512 88.56 223.352 88.416C223.208 88.304 223.216 88.08 223.376 87.744C223.6 87.312 223.584 86.84 223.328 86.328C223.072 85.8 222.608 85.312 221.936 84.864C221.6 84.64 221.408 84.576 221.36 84.672C221.312 84.752 221.384 85.032 221.576 85.512C221.8 86.056 221.944 86.6 222.008 87.144C222.072 87.56 222.104 87.784 222.104 87.816C222.136 87.912 222.2 87.984 222.296 88.032C222.632 88.24 222.608 88.736 222.224 89.52C221.856 90.272 221.256 91.104 220.424 92.016C219.544 92.96 218.632 93.752 217.688 94.392C217.4 94.6 217.216 94.744 217.136 94.824C217.072 94.904 217.08 94.976 217.16 95.04C217.272 95.12 217.792 94.944 218.72 94.512C219.648 94.064 220.472 93.6 221.192 93.12C221.24 93.088 221.296 93.048 221.36 93C221.936 92.632 222.296 92.448 222.44 92.448C222.584 92.448 222.824 92.616 223.16 92.952C223.208 93 223.24 93.032 223.256 93.048C223.784 93.576 224.136 93.92 224.312 94.08C224.744 94.464 224.92 94.736 224.84 94.896C224.76 95.056 224.344 95.296 223.592 95.616C221.768 96.384 219.64 97.016 217.208 97.512C216.728 97.608 216.432 97.68 216.32 97.728C216.208 97.792 216.2 97.88 216.296 97.992ZM226.88 93.84C226.64 93.968 226.352 93.984 226.016 93.888C225.696 93.776 225.208 93.512 224.552 93.096C223.912 92.68 223.512 92.36 223.352 92.136C223.192 91.912 223.232 91.72 223.472 91.56C223.584 91.48 224.488 91.44 226.184 91.44C227.88 91.424 228.776 91.456 228.872 91.536C229.048 91.68 228.904 92.024 228.44 92.568C227.976 93.112 227.456 93.536 226.88 93.84ZM236.408 88.488C236.44 88.472 236.488 88.464 236.552 88.464C236.936 88.464 237.144 88.24 237.176 87.792C237.192 87.392 237.048 86.928 236.744 86.4C236.424 85.84 236.016 85.4 235.52 85.08C234.976 84.728 234.664 84.584 234.584 84.648C234.504 84.696 234.592 84.984 234.848 85.512C235.232 86.312 235.48 86.984 235.592 87.528C235.656 87.864 235.704 88.072 235.736 88.152C235.768 88.232 235.824 88.296 235.904 88.344C236 88.392 236.096 88.432 236.192 88.464C236.24 88.48 236.312 88.488 236.408 88.488ZM227.336 87.336C227.112 87.448 226.808 87.48 226.424 87.432C226.04 87.368 225.808 87.256 225.728 87.096C225.504 86.664 225.488 86.256 225.68 85.872C225.888 85.488 226.216 85.296 226.664 85.296C227 85.296 227.28 85.44 227.504 85.728C227.712 86 227.808 86.296 227.792 86.616C227.776 86.952 227.624 87.192 227.336 87.336ZM232.4 84.936C232.272 85.064 231.984 85.08 231.536 84.984C231.088 84.872 230.848 84.728 230.816 84.552C230.784 84.376 230.96 84.216 231.344 84.072C231.728 83.912 232.024 83.88 232.232 83.976C232.376 84.04 232.464 84.184 232.496 84.408C232.544 84.632 232.512 84.808 232.4 84.936ZM219.248 84.84C219.12 84.984 218.856 85.008 218.456 84.912C218.056 84.8 217.84 84.656 217.808 84.48C217.776 84.256 217.984 84.096 218.432 84C218.88 83.888 219.16 83.936 219.272 84.144C219.336 84.256 219.36 84.384 219.344 84.528C219.344 84.656 219.312 84.76 219.248 84.84ZM229.808 82.728C229.696 82.744 229.584 82.72 229.472 82.656C229.36 82.576 229.152 82.392 228.848 82.104C228.592 81.848 228.472 81.68 228.488 81.6C228.504 81.52 228.688 81.448 229.04 81.384C229.408 81.32 229.592 81.216 229.592 81.072C229.592 80.928 229.408 80.688 229.04 80.352C228.672 80 228.512 79.776 228.56 79.68C228.608 79.584 228.888 79.528 229.4 79.512C229.768 79.48 229.984 79.448 230.048 79.416C230.208 79.304 230.408 79.384 230.648 79.656C230.904 79.912 231.096 80.272 231.224 80.736C231.32 81.024 231.56 81.168 231.944 81.168C232.328 81.168 232.4 81.392 232.16 81.84C231.984 82.176 231.8 82.4 231.608 82.512C231.416 82.608 231.096 82.664 230.648 82.68C230.552 82.68 230.408 82.688 230.216 82.704C229.992 82.704 229.856 82.712 229.808 82.728ZM248.24 97.944C248.544 98.104 248.968 98.072 249.512 97.848C250.072 97.624 250.352 97.368 250.352 97.08C250.352 97.048 250.352 96.992 250.352 96.912C250.352 96.672 250.4 96.512 250.496 96.432C250.624 96.336 250.944 96.28 251.456 96.264C251.808 96.248 252.672 96.24 254.048 96.24C254.336 96.24 254.56 96.24 254.72 96.24C254.928 96.24 255.224 96.24 255.608 96.24C256.92 96.24 257.752 96.248 258.104 96.264C258.584 96.296 258.88 96.36 258.992 96.456C259.072 96.536 259.104 96.712 259.088 96.984C259.072 97.064 259.064 97.128 259.064 97.176C259.032 97.576 259.112 97.816 259.304 97.896C259.496 97.992 259.84 97.96 260.336 97.8C260.928 97.592 261.272 97.392 261.368 97.2C261.48 97.008 261.52 96.512 261.488 95.712C261.28 90.944 261.4 88.56 261.848 88.56C261.896 88.56 261.984 88.512 262.112 88.416C262.24 88.304 262.304 88.224 262.304 88.176C262.304 88.096 262.064 87.848 261.584 87.432C261.104 87.016 260.696 86.712 260.36 86.52C260.216 86.44 260.096 86.424 260 86.472C259.904 86.52 259.72 86.696 259.448 87C259.416 87.048 259.368 87.104 259.304 87.168C259.096 87.408 258.848 87.552 258.56 87.6C258.272 87.632 257.344 87.648 255.776 87.648C255.28 87.648 254.888 87.648 254.6 87.648C254.312 87.648 253.92 87.648 253.424 87.648C251.936 87.648 251.024 87.632 250.688 87.6C250.368 87.568 249.96 87.44 249.464 87.216C249.272 87.136 249.12 87.072 249.008 87.024C248.96 87.008 248.888 86.976 248.792 86.928C248.328 86.736 248.064 86.648 248 86.664C247.936 86.68 247.92 86.84 247.952 87.144C247.968 87.208 247.976 87.256 247.976 87.288C248.104 88.408 248.176 89.904 248.192 91.776C248.208 93.632 248.16 95.328 248.048 96.864C248.016 97.28 248.008 97.544 248.024 97.656C248.056 97.784 248.128 97.88 248.24 97.944ZM258.776 95.496C258.664 95.56 257.32 95.584 254.744 95.568C252.168 95.568 250.824 95.544 250.712 95.496C250.552 95.416 250.456 95.296 250.424 95.136C250.392 94.976 250.376 94.56 250.376 93.888C250.376 93.776 250.376 93.616 250.376 93.408C250.36 92.96 250.392 92.672 250.472 92.544C250.568 92.384 250.832 92.28 251.264 92.232C251.584 92.216 252.336 92.208 253.52 92.208C254.032 92.208 254.44 92.208 254.744 92.208C255.048 92.208 255.456 92.208 255.968 92.208C257.152 92.208 257.904 92.216 258.224 92.232C258.656 92.28 258.92 92.384 259.016 92.544C259.096 92.672 259.128 92.96 259.112 93.408C259.112 93.616 259.112 93.776 259.112 93.888C259.112 94.576 259.096 95 259.064 95.16C259.032 95.304 258.936 95.416 258.776 95.496ZM254.744 91.56C252.136 91.56 250.768 91.52 250.64 91.44C250.512 91.344 250.432 91.208 250.4 91.032C250.368 90.856 250.352 90.456 250.352 89.832C250.352 89.736 250.352 89.6 250.352 89.424C250.352 89.008 250.384 88.744 250.448 88.632C250.56 88.488 250.84 88.392 251.288 88.344C251.608 88.328 252.36 88.32 253.544 88.32C254.04 88.32 254.44 88.32 254.744 88.32C255.048 88.32 255.448 88.32 255.944 88.32C257.128 88.32 257.88 88.328 258.2 88.344C258.648 88.392 258.928 88.488 259.04 88.632C259.104 88.744 259.136 89.008 259.136 89.424C259.136 89.6 259.136 89.736 259.136 89.832C259.136 90.456 259.12 90.856 259.088 91.032C259.056 91.208 258.976 91.344 258.848 91.44C258.736 91.52 257.368 91.56 254.744 91.56ZM244.736 85.32C244.8 85.368 244.864 85.384 244.928 85.368C244.96 85.368 245.04 85.36 245.168 85.344C245.856 85.248 246.352 85.184 246.656 85.152C246.976 85.104 250.104 85.072 256.04 85.056C256.424 85.056 256.968 85.056 257.672 85.056C260.472 85.04 262.248 85.032 263 85.032C264.04 85.016 264.696 84.992 264.968 84.96C265.144 84.928 265.232 84.864 265.232 84.768C265.232 84.736 265.232 84.712 265.232 84.696C265.248 84.6 265.088 84.392 264.752 84.072C264.432 83.752 264.032 83.408 263.552 83.04L263.528 83.016C263.16 82.744 262.912 82.624 262.784 82.656C262.672 82.672 262.456 82.896 262.136 83.328C262.104 83.376 262.08 83.408 262.064 83.424C262.032 83.472 261.984 83.544 261.92 83.64C261.632 84.008 261.4 84.224 261.224 84.288C261.064 84.352 260.6 84.384 259.832 84.384C259.672 84.384 259.544 84.384 259.448 84.384C258.584 84.384 258.048 84.368 257.84 84.336C257.536 84.288 257.424 84.176 257.504 84C257.552 83.872 257.784 83.592 258.2 83.16C258.392 82.968 258.784 82.544 259.376 81.888C259.408 81.84 259.432 81.808 259.448 81.792C259.848 81.328 260.088 81.056 260.168 80.976C260.264 80.88 260.368 80.816 260.48 80.784C260.704 80.72 260.8 80.648 260.768 80.568C260.736 80.488 260.568 80.376 260.264 80.232C259.64 79.912 259.424 79.712 259.616 79.632C259.808 79.552 260.592 79.504 261.968 79.488C263.088 79.472 263.744 79.456 263.936 79.44C264.144 79.408 264.272 79.336 264.32 79.224C264.4 79.016 263.976 78.536 263.048 77.784L263.024 77.76C262.512 77.344 262.184 77.144 262.04 77.16C261.912 77.176 261.672 77.424 261.32 77.904L261.296 77.952C261.264 78 261.224 78.056 261.176 78.12C260.936 78.472 260.712 78.68 260.504 78.744C260.296 78.792 259.696 78.816 258.704 78.816C258.48 78.816 258.304 78.816 258.176 78.816C257.12 78.8 256.496 78.792 256.304 78.792C256.128 78.776 256.008 78.736 255.944 78.672C255.768 78.496 255.696 78.208 255.728 77.808C255.76 77.408 255.88 77.112 256.088 76.92C256.264 76.76 256.24 76.624 256.016 76.512C255.792 76.384 255.24 76.208 254.36 75.984C254.328 75.968 254.272 75.952 254.192 75.936C253.776 75.824 253.536 75.784 253.472 75.816C253.408 75.848 253.384 76.024 253.4 76.344C253.416 76.408 253.424 76.456 253.424 76.488C253.44 76.6 253.456 76.768 253.472 76.992C253.52 77.664 253.52 78.096 253.472 78.288C253.408 78.544 253.192 78.704 252.824 78.768C252.552 78.8 251.912 78.816 250.904 78.816C250.6 78.816 250.36 78.816 250.184 78.816C247.976 78.816 246.424 78.776 245.528 78.696C245.304 78.68 245.184 78.696 245.168 78.744C245.152 78.792 245.232 78.968 245.408 79.272C245.424 79.288 245.44 79.32 245.456 79.368C245.568 79.592 245.656 79.72 245.72 79.752C245.8 79.784 245.976 79.784 246.248 79.752C246.312 79.736 246.368 79.728 246.416 79.728C248.368 79.456 249.344 79.472 249.344 79.776C249.344 79.856 249.424 80.04 249.584 80.328C249.952 81.08 250.248 81.896 250.472 82.776C250.696 83.656 250.728 84.152 250.568 84.264C250.472 84.344 249.688 84.384 248.216 84.384C246.76 84.384 245.544 84.344 244.568 84.264C244.328 84.248 244.208 84.264 244.208 84.312C244.208 84.36 244.28 84.52 244.424 84.792C244.568 85.064 244.672 85.24 244.736 85.32ZM256.136 84.312C255.976 84.376 255.352 84.408 254.264 84.408C253.192 84.392 252.616 84.344 252.536 84.264C252.472 84.184 252.44 84.12 252.44 84.072C252.44 84.008 252.472 83.88 252.536 83.688C252.76 83.16 252.736 82.608 252.464 82.032C252.208 81.44 251.736 80.912 251.048 80.448L251.024 80.424C250.528 80.088 250.272 79.872 250.256 79.776C250.208 79.648 250.456 79.568 251 79.536C251.384 79.52 252.352 79.504 253.904 79.488C254.08 79.488 254.32 79.488 254.624 79.488C255.856 79.488 256.632 79.496 256.952 79.512C257.4 79.544 257.672 79.624 257.768 79.752C257.816 79.848 257.8 80.064 257.72 80.4C257.704 80.464 257.688 80.512 257.672 80.544C257.416 81.536 257.136 82.392 256.832 83.112C256.544 83.832 256.312 84.232 256.136 84.312ZM278.36 97.44C279.288 97.504 281.432 97.52 284.792 97.488C288.152 97.456 290.128 97.4 290.72 97.32C291.456 97.224 292.064 97.04 292.544 96.768C292.992 96.496 293.232 96.2 293.264 95.88C293.296 95.56 293.072 95.288 292.592 95.064C292.24 94.888 292.032 94.704 291.968 94.512C291.904 94.32 291.872 93.76 291.872 92.832C291.872 91.904 291.832 91.376 291.752 91.248C291.688 91.104 291.568 91.336 291.392 91.944C291.36 92.056 291.32 92.208 291.272 92.4C290.952 93.488 290.68 94.176 290.456 94.464C290.136 94.864 289.552 95.12 288.704 95.232C288.096 95.296 286.704 95.328 284.528 95.328C284.112 95.328 283.8 95.328 283.592 95.328C283.176 95.328 282.608 95.328 281.888 95.328C280.032 95.344 278.856 95.32 278.36 95.256C277.656 95.176 277.224 94.968 277.064 94.632C276.952 94.376 276.904 93.792 276.92 92.88C276.92 92.512 276.92 92.224 276.92 92.016C276.92 91.92 276.92 91.776 276.92 91.584C276.92 90.576 276.928 89.984 276.944 89.808C276.976 89.616 277.072 89.48 277.232 89.4L277.28 89.376C277.392 89.312 279.136 89.28 282.512 89.28C285.904 89.264 287.672 89.288 287.816 89.352C287.96 89.416 288.048 89.496 288.08 89.592C288.128 89.672 288.152 89.84 288.152 90.096C288.152 90.48 288.208 90.72 288.32 90.816C288.448 90.896 288.72 90.888 289.136 90.792C289.632 90.68 289.952 90.584 290.096 90.504C290.288 90.392 290.4 90.192 290.432 89.904C290.464 89.712 290.464 89.264 290.432 88.56C290.368 86.544 290.352 85.264 290.384 84.72C290.432 84.176 290.576 83.84 290.816 83.712C291.168 83.52 291.32 83.352 291.272 83.208C291.24 83.048 290.968 82.76 290.456 82.344C289.848 81.848 289.448 81.584 289.256 81.552C289.08 81.52 288.856 81.664 288.584 81.984C288.552 82.032 288.504 82.088 288.44 82.152C288.184 82.44 287.96 82.608 287.768 82.656C287.576 82.704 287.032 82.736 286.136 82.752C285.976 82.752 285.856 82.752 285.776 82.752C284.736 82.752 284.072 82.736 283.784 82.704C283.416 82.656 283.256 82.552 283.304 82.392C283.352 82.28 283.6 82.032 284.048 81.648C284.672 81.104 285.12 80.688 285.392 80.4C286 79.84 286.456 79.52 286.76 79.44C287.048 79.376 287.168 79.28 287.12 79.152C287.088 79.024 286.864 78.752 286.448 78.336C285.84 77.728 285.44 77.4 285.248 77.352C285.056 77.288 284.784 77.44 284.432 77.808C284.4 77.84 284.36 77.88 284.312 77.928C284.024 78.232 283.784 78.408 283.592 78.456C283.416 78.504 282.92 78.528 282.104 78.528C281.944 78.528 281.824 78.528 281.744 78.528C280.752 78.528 280.16 78.52 279.968 78.504C279.792 78.472 279.688 78.384 279.656 78.24C279.624 78.048 279.736 77.76 279.992 77.376C280.248 76.992 280.48 76.768 280.688 76.704C281.248 76.56 280.536 76.2 278.552 75.624C278.184 75.512 277.96 75.464 277.88 75.48C277.8 75.496 277.744 75.592 277.712 75.768C277.408 77.176 276.736 78.776 275.696 80.568C274.672 82.328 273.512 83.888 272.216 85.248C271.928 85.552 271.76 85.752 271.712 85.848C271.664 85.928 271.72 85.968 271.88 85.968C272.04 85.968 272.664 85.552 273.752 84.72C274.024 84.512 274.224 84.392 274.352 84.36C274.48 84.312 274.584 84.336 274.664 84.432C274.712 84.48 274.744 84.744 274.76 85.224C274.76 85.656 274.768 87.096 274.784 89.544C274.784 89.608 274.784 89.656 274.784 89.688C274.8 92.344 274.816 93.92 274.832 94.416C274.848 94.912 274.912 95.312 275.024 95.616L275.048 95.664C275.432 96.736 276.536 97.328 278.36 97.44ZM285.944 88.632C284.696 88.648 284.008 88.624 283.88 88.56C283.704 88.48 283.6 88.32 283.568 88.08C283.536 87.824 283.52 87.136 283.52 86.016C283.52 85.84 283.52 85.6 283.52 85.296C283.504 84.608 283.52 84.168 283.568 83.976C283.616 83.72 283.76 83.56 284 83.496C284.16 83.448 284.552 83.424 285.176 83.424C285.448 83.424 285.664 83.424 285.824 83.424C285.984 83.424 286.208 83.424 286.496 83.424C287.136 83.408 287.544 83.424 287.72 83.472C287.96 83.536 288.112 83.704 288.176 83.976C288.224 84.152 288.24 84.592 288.224 85.296C288.224 85.6 288.224 85.84 288.224 86.016C288.224 87.104 288.208 87.768 288.176 88.008C288.144 88.248 288.064 88.408 287.936 88.488C287.856 88.552 287.192 88.6 285.944 88.632ZM279.224 88.632C277.992 88.632 277.312 88.592 277.184 88.512C276.976 88.352 276.872 87.52 276.872 86.016C276.872 84.512 276.976 83.68 277.184 83.52C277.312 83.44 277.992 83.408 279.224 83.424C280.472 83.424 281.144 83.472 281.24 83.568C281.416 83.728 281.504 84.544 281.504 86.016C281.504 87.488 281.416 88.304 281.24 88.464C281.144 88.56 280.472 88.616 279.224 88.632ZM279.584 82.752C278.128 82.768 277.312 82.744 277.136 82.68C276.784 82.568 276.616 82.424 276.632 82.248C276.664 82.056 276.904 81.688 277.352 81.144C277.528 80.936 277.824 80.56 278.24 80.016C278.272 79.968 278.312 79.912 278.36 79.848C278.6 79.528 278.808 79.344 278.984 79.296C279.176 79.248 279.704 79.216 280.568 79.2C280.776 79.2 280.944 79.2 281.072 79.2C282.08 79.184 282.72 79.192 282.992 79.224C283.36 79.272 283.552 79.376 283.568 79.536C283.6 79.664 283.52 79.944 283.328 80.376C282.72 81.736 282.264 82.496 281.96 82.656C281.848 82.704 281.056 82.736 279.584 82.752ZM315.416 97.92C315.48 98 315.736 98 316.184 97.92C316.632 97.84 317.016 97.72 317.336 97.56C317.976 97.256 318.464 96.72 318.8 95.952C319.152 95.136 319.424 93.88 319.616 92.184C319.776 90.6 319.904 88.28 320 85.224C320 85.048 320.008 84.792 320.024 84.456C320.072 82.904 320.112 81.992 320.144 81.72C320.192 81.432 320.328 81.232 320.552 81.12C320.6 81.104 320.632 81.088 320.648 81.072C320.856 80.96 320.976 80.88 321.008 80.832C321.056 80.768 321.056 80.696 321.008 80.616C320.928 80.456 320.648 80.152 320.168 79.704C319.704 79.256 319.376 78.984 319.184 78.888C319.072 78.824 318.976 78.816 318.896 78.864C318.816 78.912 318.664 79.072 318.44 79.344C318.408 79.376 318.368 79.424 318.32 79.488C318.016 79.824 317.776 80.024 317.6 80.088C317.424 80.136 316.944 80.16 316.16 80.16C315.984 80.16 315.84 80.16 315.728 80.16C315.664 80.16 315.568 80.16 315.44 80.16C314.72 80.16 314.272 80.144 314.096 80.112C313.84 80.064 313.72 79.952 313.736 79.776C313.736 79.648 313.84 79.336 314.048 78.84C314.08 78.76 314.104 78.696 314.12 78.648C314.408 77.96 314.6 77.536 314.696 77.376C314.792 77.2 314.92 77.08 315.08 77.016C315.336 76.888 315.288 76.736 314.936 76.56C314.584 76.368 313.84 76.104 312.704 75.768L312.68 75.744C312.456 75.68 312.32 75.672 312.272 75.72C312.24 75.768 312.2 75.968 312.152 76.32C312.152 76.368 312.152 76.4 312.152 76.416C311.896 78.736 311.168 81.264 309.968 84C309.52 84.976 309.232 85.432 309.104 85.368C308.992 85.288 308.928 84.624 308.912 83.376C308.912 82.384 308.936 81.792 308.984 81.6C309.032 81.392 309.208 81.2 309.512 81.024C309.752 80.896 309.808 80.736 309.68 80.544C309.568 80.336 309.208 80 308.6 79.536C308.152 79.184 307.864 79.008 307.736 79.008C307.624 79.024 307.408 79.224 307.088 79.608C306.784 79.976 306.28 80.2 305.576 80.28C304.888 80.36 304.544 80.224 304.544 79.872C304.544 79.68 304.824 79.16 305.384 78.312C305.96 77.464 306.328 77.008 306.488 76.944C306.856 76.816 306.896 76.672 306.608 76.512C306.336 76.352 305.68 76.144 304.64 75.888C304.592 75.872 304.528 75.856 304.448 75.84C304.064 75.744 303.84 75.72 303.776 75.768C303.712 75.8 303.672 75.992 303.656 76.344C303.656 76.44 303.656 76.512 303.656 76.56C303.656 77.072 303.624 77.584 303.56 78.096C303.464 78.944 303.384 79.48 303.32 79.704C303.224 79.992 303.056 80.12 302.816 80.088C302.624 80.072 302.216 79.92 301.592 79.632C300.984 79.344 300.648 79.2 300.584 79.2C300.536 79.2 300.512 79.248 300.512 79.344C300.512 79.424 300.536 79.68 300.584 80.112C300.696 81.232 300.752 83.592 300.752 87.192C300.752 91.016 300.696 93.8 300.584 95.544C300.52 96.376 300.56 96.88 300.704 97.056C300.848 97.232 301.2 97.24 301.76 97.08C302.176 96.952 302.448 96.792 302.576 96.6C302.72 96.424 302.784 96.104 302.768 95.64V95.616C302.752 95.232 302.768 94.984 302.816 94.872C302.88 94.728 303.048 94.64 303.32 94.608C303.496 94.576 303.944 94.56 304.664 94.56C304.712 94.56 304.752 94.56 304.784 94.56C304.816 94.56 304.864 94.56 304.928 94.56C305.616 94.56 306.048 94.568 306.224 94.584C306.48 94.616 306.64 94.696 306.704 94.824C306.752 94.92 306.776 95.136 306.776 95.472V95.544C306.776 96.04 306.904 96.32 307.16 96.384C307.416 96.464 307.872 96.344 308.528 96.024C308.576 96.008 308.632 95.984 308.696 95.952C308.888 95.872 308.992 95.744 309.008 95.568C309.04 95.376 309.04 94.792 309.008 93.816C308.992 93.352 308.976 92.984 308.96 92.712C308.928 91.64 308.912 90.28 308.912 88.632C308.912 86.936 308.936 86.024 308.984 85.896C309.032 85.752 309.088 85.64 309.152 85.56C309.216 85.464 309.232 85.472 309.2 85.584C309.184 85.664 309.208 85.728 309.272 85.776C309.336 85.808 309.408 85.816 309.488 85.8C309.68 85.736 310.128 85.24 310.832 84.312C311.552 83.384 312.144 82.528 312.608 81.744C312.624 81.728 312.64 81.696 312.656 81.648C312.896 81.248 313.12 81.016 313.328 80.952C313.552 80.872 314.216 80.832 315.32 80.832C315.4 80.832 315.464 80.832 315.512 80.832C315.672 80.832 315.888 80.832 316.16 80.832C316.816 80.832 317.232 80.848 317.408 80.88C317.648 80.928 317.8 81.048 317.864 81.24C317.912 81.384 317.928 81.728 317.912 82.272C317.912 82.496 317.912 82.672 317.912 82.8C317.896 85.088 317.816 87.272 317.672 89.352C317.544 91.416 317.376 92.888 317.168 93.768C317.04 94.296 316.888 94.656 316.712 94.848C316.504 95.088 316.16 95.224 315.68 95.256C315.28 95.288 314.576 95.256 313.568 95.16C313.056 95.112 312.744 95.096 312.632 95.112C312.536 95.128 312.504 95.184 312.536 95.28C312.552 95.36 312.76 95.456 313.16 95.568C314.616 95.92 315.344 96.608 315.344 97.632C315.344 97.776 315.368 97.872 315.416 97.92ZM304.208 93.888C303.648 93.904 303.296 93.88 303.152 93.816C302.944 93.736 302.816 93.536 302.768 93.216C302.72 92.976 302.704 92.424 302.72 91.56C302.72 91.16 302.72 90.848 302.72 90.624C302.72 90.432 302.72 90.16 302.72 89.808C302.72 88.96 302.736 88.424 302.768 88.2C302.832 87.88 302.968 87.688 303.176 87.624C303.32 87.56 303.672 87.536 304.232 87.552C304.456 87.552 304.64 87.552 304.784 87.552C304.928 87.552 305.112 87.552 305.336 87.552C305.896 87.536 306.248 87.56 306.392 87.624C306.6 87.688 306.736 87.88 306.8 88.2C306.832 88.424 306.848 88.96 306.848 89.808C306.848 90.16 306.848 90.432 306.848 90.624C306.848 92.096 306.832 92.968 306.8 93.24C306.784 93.496 306.704 93.672 306.56 93.768C306.48 93.832 306.36 93.872 306.2 93.888C306.056 93.888 305.584 93.888 304.784 93.888C304.64 93.888 304.448 93.888 304.208 93.888ZM313.88 90.504C314.264 90.632 314.6 90.584 314.888 90.36C315.192 90.136 315.36 89.792 315.392 89.328C315.424 88.624 315.168 87.944 314.624 87.288C314.08 86.616 313.288 86.032 312.248 85.536C311.656 85.248 311.312 85.128 311.216 85.176C311.136 85.208 311.24 85.44 311.528 85.872C312.536 87.376 313.144 88.752 313.352 90C313.368 90.208 313.544 90.376 313.88 90.504ZM304.232 86.88C303.656 86.896 303.296 86.872 303.152 86.808C302.944 86.744 302.816 86.552 302.768 86.232C302.72 86.024 302.704 85.504 302.72 84.672C302.72 84.304 302.72 84.008 302.72 83.784C302.72 83.592 302.72 83.336 302.72 83.016C302.72 82.216 302.736 81.712 302.768 81.504C302.832 81.216 302.96 81.032 303.152 80.952C303.296 80.904 303.632 80.88 304.16 80.88C304.4 80.88 304.592 80.88 304.736 80.88C304.88 80.88 305.064 80.88 305.288 80.88C305.864 80.864 306.232 80.888 306.392 80.952C306.6 81.016 306.728 81.2 306.776 81.504C306.824 81.712 306.848 82.224 306.848 83.04C306.848 83.36 306.848 83.608 306.848 83.784C306.848 85.16 306.832 85.984 306.8 86.256C306.784 86.512 306.704 86.68 306.56 86.76C306.48 86.824 306.36 86.864 306.2 86.88C306.056 86.88 305.584 86.88 304.784 86.88C304.64 86.88 304.456 86.88 304.232 86.88ZM25.52 121.944C25.824 122.104 26.248 122.072 26.792 121.848C27.352 121.624 27.632 121.368 27.632 121.08C27.632 121.048 27.632 120.992 27.632 120.912C27.632 120.672 27.68 120.512 27.776 120.432C27.904 120.336 28.224 120.28 28.736 120.264C29.088 120.248 29.952 120.24 31.328 120.24C31.616 120.24 31.84 120.24 32 120.24C32.208 120.24 32.504 120.24 32.888 120.24C34.2 120.24 35.032 120.248 35.384 120.264C35.864 120.296 36.16 120.36 36.272 120.456C36.352 120.536 36.384 120.712 36.368 120.984C36.352 121.064 36.344 121.128 36.344 121.176C36.312 121.576 36.392 121.816 36.584 121.896C36.776 121.992 37.12 121.96 37.616 121.8C38.208 121.592 38.552 121.392 38.648 121.2C38.76 121.008 38.8 120.512 38.768 119.712C38.56 114.944 38.68 112.56 39.128 112.56C39.176 112.56 39.264 112.512 39.392 112.416C39.52 112.304 39.584 112.224 39.584 112.176C39.584 112.096 39.344 111.848 38.864 111.432C38.384 111.016 37.976 110.712 37.64 110.52C37.496 110.44 37.376 110.424 37.28 110.472C37.184 110.52 37 110.696 36.728 111C36.696 111.048 36.648 111.104 36.584 111.168C36.376 111.408 36.128 111.552 35.84 111.6C35.552 111.632 34.624 111.648 33.056 111.648C32.56 111.648 32.168 111.648 31.88 111.648C31.592 111.648 31.2 111.648 30.704 111.648C29.216 111.648 28.304 111.632 27.968 111.6C27.648 111.568 27.24 111.44 26.744 111.216C26.552 111.136 26.4 111.072 26.288 111.024C26.24 111.008 26.168 110.976 26.072 110.928C25.608 110.736 25.344 110.648 25.28 110.664C25.216 110.68 25.2 110.84 25.232 111.144C25.248 111.208 25.256 111.256 25.256 111.288C25.384 112.408 25.456 113.904 25.472 115.776C25.488 117.632 25.44 119.328 25.328 120.864C25.296 121.28 25.288 121.544 25.304 121.656C25.336 121.784 25.408 121.88 25.52 121.944ZM36.056 119.496C35.944 119.56 34.6 119.584 32.024 119.568C29.448 119.568 28.104 119.544 27.992 119.496C27.832 119.416 27.736 119.296 27.704 119.136C27.672 118.976 27.656 118.56 27.656 117.888C27.656 117.776 27.656 117.616 27.656 117.408C27.64 116.96 27.672 116.672 27.752 116.544C27.848 116.384 28.112 116.28 28.544 116.232C28.864 116.216 29.616 116.208 30.8 116.208C31.312 116.208 31.72 116.208 32.024 116.208C32.328 116.208 32.736 116.208 33.248 116.208C34.432 116.208 35.184 116.216 35.504 116.232C35.936 116.28 36.2 116.384 36.296 116.544C36.376 116.672 36.408 116.96 36.392 117.408C36.392 117.616 36.392 117.776 36.392 117.888C36.392 118.576 36.376 119 36.344 119.16C36.312 119.304 36.216 119.416 36.056 119.496ZM32.024 115.56C29.416 115.56 28.048 115.52 27.92 115.44C27.792 115.344 27.712 115.208 27.68 115.032C27.648 114.856 27.632 114.456 27.632 113.832C27.632 113.736 27.632 113.6 27.632 113.424C27.632 113.008 27.664 112.744 27.728 112.632C27.84 112.488 28.12 112.392 28.568 112.344C28.888 112.328 29.64 112.32 30.824 112.32C31.32 112.32 31.72 112.32 32.024 112.32C32.328 112.32 32.728 112.32 33.224 112.32C34.408 112.32 35.16 112.328 35.48 112.344C35.928 112.392 36.208 112.488 36.32 112.632C36.384 112.744 36.416 113.008 36.416 113.424C36.416 113.6 36.416 113.736 36.416 113.832C36.416 114.456 36.4 114.856 36.368 115.032C36.336 115.208 36.256 115.344 36.128 115.44C36.016 115.52 34.648 115.56 32.024 115.56ZM22.016 109.32C22.08 109.368 22.144 109.384 22.208 109.368C22.24 109.368 22.32 109.36 22.448 109.344C23.136 109.248 23.632 109.184 23.936 109.152C24.256 109.104 27.384 109.072 33.32 109.056C33.704 109.056 34.248 109.056 34.952 109.056C37.752 109.04 39.528 109.032 40.28 109.032C41.32 109.016 41.976 108.992 42.248 108.96C42.424 108.928 42.512 108.864 42.512 108.768C42.512 108.736 42.512 108.712 42.512 108.696C42.528 108.6 42.368 108.392 42.032 108.072C41.712 107.752 41.312 107.408 40.832 107.04L40.808 107.016C40.44 106.744 40.192 106.624 40.064 106.656C39.952 106.672 39.736 106.896 39.416 107.328C39.384 107.376 39.36 107.408 39.344 107.424C39.312 107.472 39.264 107.544 39.2 107.64C38.912 108.008 38.68 108.224 38.504 108.288C38.344 108.352 37.88 108.384 37.112 108.384C36.952 108.384 36.824 108.384 36.728 108.384C35.864 108.384 35.328 108.368 35.12 108.336C34.816 108.288 34.704 108.176 34.784 108C34.832 107.872 35.064 107.592 35.48 107.16C35.672 106.968 36.064 106.544 36.656 105.888C36.688 105.84 36.712 105.808 36.728 105.792C37.128 105.328 37.368 105.056 37.448 104.976C37.544 104.88 37.648 104.816 37.76 104.784C37.984 104.72 38.08 104.648 38.048 104.568C38.016 104.488 37.848 104.376 37.544 104.232C36.92 103.912 36.704 103.712 36.896 103.632C37.088 103.552 37.872 103.504 39.248 103.488C40.368 103.472 41.024 103.456 41.216 103.44C41.424 103.408 41.552 103.336 41.6 103.224C41.68 103.016 41.256 102.536 40.328 101.784L40.304 101.76C39.792 101.344 39.464 101.144 39.32 101.16C39.192 101.176 38.952 101.424 38.6 101.904L38.576 101.952C38.544 102 38.504 102.056 38.456 102.12C38.216 102.472 37.992 102.68 37.784 102.744C37.576 102.792 36.976 102.816 35.984 102.816C35.76 102.816 35.584 102.816 35.456 102.816C34.4 102.8 33.776 102.792 33.584 102.792C33.408 102.776 33.288 102.736 33.224 102.672C33.048 102.496 32.976 102.208 33.008 101.808C33.04 101.408 33.16 101.112 33.368 100.92C33.544 100.76 33.52 100.624 33.296 100.512C33.072 100.384 32.52 100.208 31.64 99.984C31.608 99.968 31.552 99.952 31.472 99.936C31.056 99.824 30.816 99.784 30.752 99.816C30.688 99.848 30.664 100.024 30.68 100.344C30.696 100.408 30.704 100.456 30.704 100.488C30.72 100.6 30.736 100.768 30.752 100.992C30.8 101.664 30.8 102.096 30.752 102.288C30.688 102.544 30.472 102.704 30.104 102.768C29.832 102.8 29.192 102.816 28.184 102.816C27.88 102.816 27.64 102.816 27.464 102.816C25.256 102.816 23.704 102.776 22.808 102.696C22.584 102.68 22.464 102.696 22.448 102.744C22.432 102.792 22.512 102.968 22.688 103.272C22.704 103.288 22.72 103.32 22.736 103.368C22.848 103.592 22.936 103.72 23 103.752C23.08 103.784 23.256 103.784 23.528 103.752C23.592 103.736 23.648 103.728 23.696 103.728C25.648 103.456 26.624 103.472 26.624 103.776C26.624 103.856 26.704 104.04 26.864 104.328C27.232 105.08 27.528 105.896 27.752 106.776C27.976 107.656 28.008 108.152 27.848 108.264C27.752 108.344 26.968 108.384 25.496 108.384C24.04 108.384 22.824 108.344 21.848 108.264C21.608 108.248 21.488 108.264 21.488 108.312C21.488 108.36 21.56 108.52 21.704 108.792C21.848 109.064 21.952 109.24 22.016 109.32ZM33.416 108.312C33.256 108.376 32.632 108.408 31.544 108.408C30.472 108.392 29.896 108.344 29.816 108.264C29.752 108.184 29.72 108.12 29.72 108.072C29.72 108.008 29.752 107.88 29.816 107.688C30.04 107.16 30.016 106.608 29.744 106.032C29.488 105.44 29.016 104.912 28.328 104.448L28.304 104.424C27.808 104.088 27.552 103.872 27.536 103.776C27.488 103.648 27.736 103.568 28.28 103.536C28.664 103.52 29.632 103.504 31.184 103.488C31.36 103.488 31.6 103.488 31.904 103.488C33.136 103.488 33.912 103.496 34.232 103.512C34.68 103.544 34.952 103.624 35.048 103.752C35.096 103.848 35.08 104.064 35 104.4C34.984 104.464 34.968 104.512 34.952 104.544C34.696 105.536 34.416 106.392 34.112 107.112C33.824 107.832 33.592 108.232 33.416 108.312ZM69.44 121.872C70.032 122.048 70.416 121.96 70.592 121.608C70.784 121.272 70.744 120.728 70.472 119.976C70.392 119.752 70.352 119.496 70.352 119.208C70.368 118.92 70.432 118.28 70.544 117.288C70.64 116.408 70.688 115.896 70.688 115.752C70.704 115.608 70.672 115.536 70.592 115.536C70.544 115.536 70.448 115.744 70.304 116.16C69.84 117.616 69.408 118.352 69.008 118.368C68.608 118.368 68.056 117.664 67.352 116.256C67.064 115.68 66.92 115.288 66.92 115.08C66.92 114.872 67.072 114.504 67.376 113.976C68.064 112.744 68.704 111.248 69.296 109.488C69.6 108.56 69.856 108.072 70.064 108.024C70.416 107.944 70.464 107.816 70.208 107.64C69.952 107.464 69.344 107.208 68.384 106.872C68.08 106.76 67.896 106.704 67.832 106.704C67.752 106.704 67.704 106.752 67.688 106.848C67.528 108.048 67.328 109.096 67.088 109.992C66.848 110.856 66.616 111.44 66.392 111.744C66.184 112.032 66.016 111.96 65.888 111.528C65.776 111.128 65.656 110.36 65.528 109.224C65.4 108.088 65.32 107.08 65.288 106.2C65.288 106.152 65.28 106.08 65.264 105.984C65.248 105.568 65.264 105.304 65.312 105.192C65.392 105.048 65.584 104.96 65.888 104.928C66.112 104.896 66.648 104.88 67.496 104.88C67.72 104.88 67.896 104.88 68.024 104.88C68.072 104.88 68.144 104.88 68.24 104.88C69.264 104.88 69.904 104.872 70.16 104.856C70.512 104.824 70.672 104.736 70.64 104.592C70.608 104.512 70.408 104.296 70.04 103.944C70.008 103.912 69.984 103.888 69.968 103.872C69.584 103.504 69.344 103.256 69.248 103.128C69.152 102.984 69.088 102.792 69.056 102.552C68.96 101.784 68.36 101.24 67.256 100.92C66.776 100.792 66.456 100.752 66.296 100.8C66.136 100.848 66.152 100.984 66.344 101.208C66.536 101.416 66.728 101.72 66.92 102.12C67.128 102.504 67.256 102.824 67.304 103.08C67.32 103.192 67.392 103.296 67.52 103.392C67.76 103.568 67.768 103.76 67.544 103.968C67.336 104.16 67.024 104.28 66.608 104.328C66.176 104.392 65.808 104.344 65.504 104.184C65.264 104.056 65.152 103.592 65.168 102.792C65.184 101.976 65.32 101.464 65.576 101.256C65.736 101.128 65.76 101.016 65.648 100.92C65.536 100.808 65.24 100.672 64.76 100.512C63.768 100.208 63.248 100.096 63.2 100.176C63.184 100.208 63.176 100.632 63.176 101.448C63.176 102.264 63.192 102.864 63.224 103.248C63.24 103.696 63.168 103.984 63.008 104.112C62.896 104.208 62 104.256 60.32 104.256C58.624 104.272 57.256 104.232 56.216 104.136C56.008 104.104 55.896 104.112 55.88 104.16C55.864 104.208 55.928 104.384 56.072 104.688C56.088 104.72 56.104 104.76 56.12 104.808C56.232 105.016 56.32 105.136 56.384 105.168C56.448 105.2 56.632 105.192 56.936 105.144C56.984 105.128 57.024 105.12 57.056 105.12C57.952 104.992 59.192 104.92 60.776 104.904C60.84 104.904 60.944 104.904 61.088 104.904C61.936 104.888 62.48 104.904 62.72 104.952C63.04 105.016 63.24 105.184 63.32 105.456C63.368 105.664 63.392 106.152 63.392 106.92C63.392 107.048 63.392 107.144 63.392 107.208C63.392 107.672 63.416 107.992 63.464 108.168C63.464 108.2 63.472 108.28 63.488 108.408C63.568 108.856 63.624 109.208 63.656 109.464C63.848 111.08 64.12 112.6 64.472 114.024C64.616 114.568 64.664 114.944 64.616 115.152C64.584 115.344 64.408 115.664 64.088 116.112C62.712 118 60.84 119.632 58.472 121.008C58.104 121.216 57.888 121.352 57.824 121.416C57.776 121.48 57.784 121.56 57.848 121.656C57.88 121.72 57.96 121.728 58.088 121.68C58.232 121.648 58.552 121.528 59.048 121.32C61.112 120.44 62.912 119.28 64.448 117.84C64.912 117.408 65.216 117.208 65.36 117.24C65.504 117.256 65.72 117.536 66.008 118.08C66.52 119.056 67.088 119.888 67.712 120.576C68.352 121.28 68.928 121.712 69.44 121.872ZM55.736 119.4C55.848 119.512 55.976 119.44 56.12 119.184C56.264 118.992 56.84 118.648 57.848 118.152C60.392 116.936 62.104 116.056 62.984 115.512C63.88 114.968 63.808 114.84 62.768 115.128C59.616 115.992 57.208 116.616 55.544 117C55.032 117.112 54.752 117.192 54.704 117.24C54.688 117.272 54.832 117.616 55.136 118.272C55.456 118.928 55.656 119.304 55.736 119.4ZM50.144 119.328C50.24 119.44 50.36 119.368 50.504 119.112C50.632 118.904 51.088 118.504 51.872 117.912C52.976 117.096 54.088 116.248 55.208 115.368C55.72 114.952 56.04 114.72 56.168 114.672C56.312 114.608 56.472 114.632 56.648 114.744C56.824 114.856 57.072 114.888 57.392 114.84C57.728 114.776 58 114.656 58.208 114.48C58.288 114.4 58.336 114.336 58.352 114.288C58.368 114.224 58.384 114.064 58.4 113.808C58.432 113.408 58.504 113.168 58.616 113.088C58.744 112.992 59.056 112.944 59.552 112.944C60.032 112.944 60.336 112.984 60.464 113.064C60.592 113.144 60.672 113.344 60.704 113.664C60.736 113.984 60.856 114.16 61.064 114.192C61.272 114.224 61.608 114.128 62.072 113.904C62.088 113.888 62.12 113.872 62.168 113.856C62.376 113.744 62.496 113.632 62.528 113.52C62.56 113.392 62.56 113.032 62.528 112.44C62.528 112.344 62.528 112.272 62.528 112.224C62.464 110.64 62.448 109.608 62.48 109.128C62.528 108.648 62.656 108.344 62.864 108.216C63.024 108.12 63.088 108.032 63.056 107.952C63.024 107.856 62.88 107.672 62.624 107.4C62.16 106.936 61.84 106.688 61.664 106.656C61.488 106.608 61.264 106.736 60.992 107.04C60.72 107.328 60.512 107.504 60.368 107.568C60.224 107.616 59.888 107.632 59.36 107.616C58.64 107.584 58.056 107.464 57.608 107.256C57.176 107.048 56.656 106.632 56.048 106.008C56.016 105.976 55.968 105.928 55.904 105.864C55.488 105.448 55.232 105.224 55.136 105.192C55.04 105.16 54.92 105.256 54.776 105.48C54.76 105.512 54.744 105.536 54.728 105.552C54.312 106.192 54.048 106.424 53.936 106.248C53.84 106.056 53.792 105.288 53.792 103.944C53.792 102.824 53.808 102.152 53.84 101.928C53.872 101.704 53.984 101.528 54.176 101.4C54.416 101.24 54.4 101.088 54.128 100.944C53.856 100.784 53.24 100.592 52.28 100.368C52.232 100.352 52.168 100.336 52.088 100.32C51.736 100.224 51.528 100.2 51.464 100.248C51.416 100.28 51.408 100.448 51.44 100.752C51.456 100.8 51.464 100.84 51.464 100.872C51.576 101.768 51.64 102.88 51.656 104.208C51.672 105.536 51.64 106.264 51.56 106.392C51.48 106.552 51.296 106.648 51.008 106.68C50.72 106.712 50.248 106.688 49.592 106.608C49.576 106.608 49.544 106.608 49.496 106.608C49.208 106.576 49.048 106.576 49.016 106.608C49 106.64 49.048 106.768 49.16 106.992C49.176 107.04 49.192 107.072 49.208 107.088C49.352 107.392 49.456 107.56 49.52 107.592C49.584 107.624 49.736 107.6 49.976 107.52C50.616 107.312 51.016 107.24 51.176 107.304C51.416 107.384 51.56 107.736 51.608 108.36C51.656 108.792 51.68 109.864 51.68 111.576C51.68 111.656 51.68 111.72 51.68 111.768C51.68 112.104 51.68 112.544 51.68 113.088C51.68 114.144 51.664 114.816 51.632 115.104C51.584 115.52 51.472 115.808 51.296 115.968C51.152 116.08 50.832 116.208 50.336 116.352C50.08 116.448 49.872 116.52 49.712 116.568C49.216 116.744 48.952 116.848 48.92 116.88C48.888 116.912 49.064 117.312 49.448 118.08C49.832 118.832 50.064 119.248 50.144 119.328ZM54.992 114.6C54.544 114.776 54.264 114.848 54.152 114.816C53.976 114.784 53.872 114.56 53.84 114.144C53.808 113.856 53.792 113.144 53.792 112.008C53.792 111.608 53.792 111.296 53.792 111.072C53.792 110.8 53.792 110.432 53.792 109.968C53.792 109.008 53.808 108.4 53.84 108.144C53.872 107.776 53.952 107.552 54.08 107.472C54.176 107.408 54.408 107.376 54.776 107.376C54.936 107.376 55.064 107.376 55.16 107.376C55.24 107.376 55.344 107.376 55.472 107.376C55.936 107.36 56.224 107.376 56.336 107.424C56.512 107.504 56.616 107.688 56.648 107.976C56.664 108.2 56.664 108.712 56.648 109.512C56.648 109.752 56.648 109.944 56.648 110.088C56.648 110.232 56.648 110.424 56.648 110.664C56.632 111.88 56.608 112.656 56.576 112.992C56.528 113.472 56.432 113.8 56.288 113.976C56.176 114.088 55.92 114.224 55.52 114.384C55.44 114.416 55.384 114.44 55.352 114.456C55.272 114.488 55.152 114.536 54.992 114.6ZM60.464 112.152C60.208 112.328 59.816 112.376 59.288 112.296C58.776 112.216 58.488 112.064 58.424 111.84C58.36 111.648 58.336 111.08 58.352 110.136C58.368 109.176 58.408 108.648 58.472 108.552C58.6 108.312 58.96 108.192 59.552 108.192C60.128 108.208 60.488 108.328 60.632 108.552C60.776 108.76 60.824 109.392 60.776 110.448C60.728 111.488 60.624 112.056 60.464 112.152ZM87.248 114.24C88.32 114.384 89.256 114.064 90.056 113.28C90.856 112.48 91.184 111.552 91.04 110.496C90.912 109.6 90.512 108.872 89.84 108.312C89.216 107.784 88.488 107.52 87.656 107.52C86.792 107.52 86.04 107.824 85.4 108.432C84.728 109.072 84.376 109.84 84.344 110.736C84.296 111.584 84.536 112.336 85.064 112.992C85.608 113.696 86.336 114.112 87.248 114.24ZM88.568 113.256C87.752 113.576 86.984 113.48 86.264 112.968C85.544 112.456 85.184 111.76 85.184 110.88C85.184 110.16 85.432 109.56 85.928 109.08C86.408 108.616 86.984 108.376 87.656 108.36C88.344 108.344 88.944 108.592 89.456 109.104C90.112 109.744 90.344 110.52 90.152 111.432C89.96 112.328 89.432 112.936 88.568 113.256Z" fill="#D6D2C7"/>
<defs>
<clipPath id="clip0">
<rect width="351.3" height="218.09" fill="white"/>
</clipPath>
</defs>
</svg>
