<?xml version="1.0" encoding="utf-8"?>
<!-- Generator: Adobe Illustrator 24.2.3, SVG Export Plug-In . SVG Version: 6.00 Build 0)  -->
<svg version="1.1" id="Layer_1" xmlns="http://www.w3.org/2000/svg" xmlns:xlink="http://www.w3.org/1999/xlink" x="0px" y="0px"
	 viewBox="0 0 352 219" style="enable-background:new 0 0 352 219;" xml:space="preserve">
<style type="text/css">
	.st0{clip-path:url(#SVGID_2_);}
	.st1{fill:none;stroke:#D6D2C7;stroke-width:1.3;stroke-miterlimit:10;stroke-dasharray:9.31,9.31;}
	.st2{fill:#D6D2C7;}
</style>
<g>
	<defs>
		<rect id="SVGID_1_" width="351.3" height="218.1"/>
	</defs>
	<clipPath id="SVGID_2_">
		<use xlink:href="#SVGID_1_"  style="overflow:visible;"/>
	</clipPath>
	<g class="st0">
		<path class="st1" d="M350.6,0.6H0.7v216.8h350V0.6z"/>
	</g>
</g>
<path class="st2" d="M24.9,46.4c0.3,0.1,0.6,0,1-0.1c0.4-0.1,0.7-0.3,0.9-0.5c0.1-0.1,0.2-0.2,0.2-0.3c0-0.1,0-0.3,0-0.6
	c-0.1-1.6-0.1-3.7-0.1-6.1c0-1.6,0-2.6,0-3.1c0-0.6,0-1,0.1-1.2c0-0.1,0.2-0.2,0.3-0.3c0.2,0,0.3-0.1,0.3-0.2s0-0.2-0.1-0.2
	c-0.2,0-0.2-0.2-0.1-0.4c0.1-0.2,0.3-0.6,0.6-1.2c0.3-0.5,0.6-1,0.8-1.3c0.2-0.3,0.3-0.6,0.5-0.9c0,0,0-0.1,0.1-0.1
	c0.1-0.1,0.2-0.2,0.3-0.2c0.2,0,0.6-0.1,1.3-0.1c0.5,0,1.6,0,3.4,0c0.7,0,1.3,0,1.7,0c3.2,0,5,0,5.6,0c0.5,0,0.9-0.1,0.9-0.2
	c0.1-0.2-0.4-0.8-1.5-1.7c0,0-0.1-0.1-0.1-0.1c-0.4-0.3-0.6-0.4-0.8-0.4c-0.1,0-0.3,0.2-0.6,0.7c0,0.1-0.1,0.1-0.1,0.1
	c0,0.1-0.1,0.2-0.2,0.3c-0.2,0.3-0.3,0.4-0.4,0.5c-0.2,0.1-0.5,0.2-0.9,0.2c-0.3,0-1,0-2.1,0c-0.5,0-1,0-1.3,0c-0.3,0-0.6,0-1.1,0
	c-1.3,0-2.1,0-2.4,0c-0.4,0-0.7-0.1-0.8-0.3c0-0.1,0-0.3,0.2-0.7c0.1-0.2,0.1-0.3,0.1-0.4c0-0.1,0.1-0.4,0.2-0.7
	c0.1-0.3,0.2-0.5,0.2-0.6c0.2-0.5,0.4-0.8,0.6-0.9c0.3-0.1,0.3-0.3,0-0.4c-0.3-0.2-1-0.4-2-0.7c0,0-0.1,0-0.2,0
	C29,24.1,28.8,24,28.7,24c-0.1,0-0.1,0.1-0.1,0.4c0,0,0,0.1,0,0.1c-0.1,1.1-0.3,2.1-0.6,2.9c-0.2,0.8-0.5,1.3-0.7,1.4
	c-0.1,0.1-0.9,0.1-2.2,0.1s-2.4,0-3.3-0.1c-0.2,0-0.3,0-0.3,0c0,0,0.1,0.2,0.3,0.6c0,0,0,0.1,0,0.1c0.1,0.2,0.2,0.3,0.3,0.3
	c0.1,0,0.4,0,0.8-0.1c0.1,0,0.2,0,0.2,0c0.4-0.1,1-0.1,1.9-0.1c0.9,0,1.4,0,1.6,0c0.3,0.1,0.4,0.2,0.3,0.5c0,0.3-0.3,0.9-0.7,1.8
	c-0.3,0.5-0.5,0.9-0.6,1.1c-0.2,0.2-0.3,0.2-0.5,0.1c-0.1,0-0.2,0-0.2,0c0,0,0,0.2,0,0.6c0,0.4-0.1,0.7-0.1,0.8
	c-0.1,0.3-0.5,0.8-1.1,1.6s-1.1,1.4-1.7,2c-0.3,0.3-0.5,0.5-0.6,0.6c0,0.1,0,0.1,0.1,0.2c0.1,0,0.3-0.1,0.7-0.4
	c0.4-0.3,0.9-0.7,1.4-1.1c0.4-0.3,0.7-0.5,0.8-0.6c0.1-0.1,0.3,0,0.3,0.1c0.1,0.1,0.1,1,0.1,2.5c0,1.6-0.1,3.1-0.1,4.6
	c-0.1,1-0.1,1.6,0,1.8S24.7,46.3,24.9,46.4z M28.2,45.9c0,0,0.2,0,0.6,0c0.7-0.1,1.3-0.2,1.9-0.2c0.6,0,2.5,0,5.7,0
	c0.3,0,0.7,0,1.3,0c1.9,0,3,0,3.6,0c0.7,0,1.1,0,1.3-0.1c0.1,0,0.2-0.1,0.2-0.2v0c0-0.1-0.2-0.4-0.6-0.8c-0.4-0.4-0.9-0.8-1.4-1.1
	c-0.2-0.2-0.4-0.2-0.5-0.1c-0.1,0-0.3,0.3-0.6,0.8c0,0,0,0.1-0.1,0.1c-0.3,0.4-0.5,0.6-0.7,0.7c-0.2,0.1-0.6,0.1-1.2,0.1
	c-0.1,0-0.1,0-0.2,0c-0.1,0-0.3,0-0.5,0c-0.5,0-0.8,0-0.9-0.1c-0.2-0.1-0.3-0.3-0.3-0.7c0-0.3,0-1,0-2c0-0.5,0-0.9,0-1.2
	c0-0.3,0-0.8,0-1.3c0-1,0-1.6,0-1.9c0.1-0.4,0.2-0.6,0.5-0.7c0.2-0.1,0.7-0.1,1.4-0.1c0.4,0,0.8,0,1,0c1.2,0,2-0.1,2.4-0.1
	c0.4-0.1,0.5-0.2,0.4-0.5c-0.1-0.2-0.6-0.6-1.4-1.2c-0.4-0.3-0.7-0.5-0.8-0.5c-0.1,0-0.3,0.2-0.6,0.6c-0.4,0.5-0.6,0.8-0.8,0.9
	c-0.2,0.1-0.5,0.1-1,0.1c0,0-0.1,0-0.1,0c-0.4,0-0.7,0-0.8-0.1c-0.1-0.1-0.2-0.2-0.3-0.5c0-0.2,0-0.7,0-1.4c0-0.1,0-0.2,0-0.3
	c0-0.9,0-1.4,0-1.6c0-0.2,0.1-0.4,0.2-0.5c0.3-0.1,0.2-0.3,0-0.4c-0.3-0.2-0.8-0.4-1.7-0.6c-0.5-0.1-0.8-0.2-0.9-0.2
	c-0.1,0-0.1,0.1-0.1,0.3c0.1,0.7,0.2,1.7,0.2,2.9c0,1.2,0,1.9,0,2c-0.2,0.4-1.7,0.5-4.6,0.2c-0.2,0-0.3,0-0.3,0c0,0,0,0.2,0.2,0.6
	c0.1,0.3,0.2,0.4,0.3,0.5c0.1,0,0.2,0,0.5,0c0.7-0.1,1.4-0.2,2.2-0.2c0.8,0,1.3,0,1.5,0l0,0c0.1,0.1,0.2,0.3,0.2,0.5
	c0,0.3,0,1.1,0,2.7c0,0.3,0,0.5,0,0.7c0,0.2,0,0.4,0,0.7c0,1.5,0,2.4,0,2.7c0,0.3-0.1,0.4-0.2,0.5l0,0C33,45,32.2,45,30.8,45
	c-1.4,0-2.4-0.1-3-0.2c-0.1,0-0.2,0.1-0.1,0.3C27.8,45.4,28,45.6,28.2,45.9z M50.7,46.3c0.4,0.1,0.8,0,1.3-0.2
	c0.4-0.2,0.7-0.5,0.7-0.8c0-0.4,0.1-0.6,0.3-0.8c0.1-0.1,2.4-0.1,6.8-0.1c4.4,0,6.7,0,6.8,0.1c0.2,0.1,0.3,0.4,0.3,0.9
	c0,0.3,0,0.6,0.1,0.6c0.1,0.1,0.2,0.1,0.4,0.1c0.2,0,0.6-0.1,1-0.2c0.4-0.1,0.7-0.3,0.9-0.5c0.1-0.1,0.1-0.1,0.1-0.2
	c0,0,0-0.2,0-0.5c-0.1-1.5-0.1-4.3-0.1-8.4c0-0.2,0-0.5,0-0.9c0-1.7,0-2.8,0-3.3c0-0.6,0-1.1,0.1-1.2c0-0.1,0.1-0.2,0.2-0.3
	c0,0,0.1,0,0.1,0c0.3-0.2,0.4-0.3,0.4-0.3c0-0.1,0-0.2-0.1-0.4c-0.4-0.4-0.9-0.8-1.5-1.2c-0.2-0.2-0.4-0.3-0.5-0.2
	c-0.1,0-0.2,0.1-0.4,0.3c0,0-0.1,0.1-0.1,0.1c-0.3,0.4-0.6,0.6-0.7,0.6c-0.1,0.1-0.5,0.1-1.2,0.1c-0.1,0-0.2,0-0.2,0
	c-0.1,0-0.2,0-0.3,0c-0.7,0-1.1-0.1-1.2-0.2c-0.1-0.1-0.1-0.6-0.1-1.4c0-0.2,0-0.4,0-0.5c0-0.9,0-1.5,0.1-1.6c0-0.2,0.1-0.3,0.3-0.4
	c0.2-0.2,0.2-0.3-0.1-0.5c-0.3-0.2-0.9-0.4-1.9-0.6c0,0-0.1,0-0.1,0c-0.3-0.1-0.5-0.1-0.6-0.1s-0.1,0.2,0,0.4c0,0,0,0.1,0,0.1
	c0.1,0.7,0.2,1.8,0.2,3.1c0,0.1,0,0.2,0,0.3c0,0.8,0,1.2-0.1,1.3c-0.1,0.1-0.5,0.2-1.2,0.2c-0.1,0-0.2,0-0.2,0c-0.1,0-0.2,0-0.3,0
	c-0.7,0-1-0.1-1.2-0.2c-0.1-0.1-0.1-0.6-0.1-1.4c0-0.2,0-0.3,0-0.4c0-0.9,0-1.4,0-1.6c0-0.2,0.1-0.4,0.3-0.5c0.2-0.2,0.2-0.4,0-0.5
	c-0.2-0.1-0.9-0.3-1.9-0.6c0,0-0.1,0-0.2,0c-0.3-0.1-0.5-0.1-0.6,0c0,0-0.1,0.2,0,0.5c0,0.1,0,0.1,0,0.1C55.9,26,56,27,56,28.2
	c0,0,0,0.1,0,0.1c0,0.8,0,1.2-0.2,1.3c-0.1,0.1-0.6,0.2-1.4,0.2c-0.1,0-0.1,0-0.1,0c-0.1,0-0.2,0-0.3,0c-0.6,0-0.9,0-1.1,0
	c-0.2,0-0.6-0.2-1.2-0.5c-0.1,0-0.2-0.1-0.3-0.1c-0.7-0.3-1-0.4-1.1-0.4c0,0,0,0.1,0,0.2c0,0.1,0.1,0.6,0.1,1.3
	c0.1,0.9,0.1,3.2,0.1,6.8c0,3.6-0.1,6.2-0.2,7.7c0,0.6-0.1,1-0.1,1.2c0,0.1,0,0.2,0.1,0.3C50.5,46.2,50.6,46.3,50.7,46.3z
	 M66.5,43.7c-0.1,0.1-0.6,0.1-1.3,0.1c-0.8,0-1.3,0-1.4-0.1c-0.1-0.1-0.2-0.3-0.3-0.5c0-0.3,0-1.2,0-2.7c0-0.2,0-0.5,0-0.8
	c0-0.9,0-1.5,0-1.8c0-0.4,0.1-0.6,0.3-0.6c0.1-0.1,0.4-0.1,0.9-0.1c0.2,0,0.3,0,0.4,0s0.3,0,0.4,0c0.5,0,0.8,0,0.9,0.1
	c0.2,0.1,0.3,0.3,0.3,0.6c0,0.2,0,0.8,0,1.8c0,0.4,0,0.6,0,0.8c0,0.1,0,0.3,0,0.6c0,1.3,0,2,0,2.2C66.8,43.5,66.7,43.6,66.5,43.7z
	 M59.3,43.8c-0.4,0-0.7,0-0.9-0.1c-0.2-0.1-0.3-0.3-0.3-0.6c0-0.3,0-0.8,0-1.8c0-0.4,0-0.7,0-0.9s0-0.5,0-0.9c0-0.9,0-1.5,0-1.8
	c0-0.3,0.2-0.5,0.3-0.6c0.1-0.1,0.4-0.1,0.9-0.1c0.2,0,0.3,0,0.4,0s0.2,0,0.4,0c0.4,0,0.7,0,0.9,0.1c0.2,0.1,0.3,0.3,0.3,0.6
	c0,0.3,0,0.8,0,1.8c0,0.4,0,0.7,0,0.9c0,1.5,0,2.4,0,2.7c0,0.3-0.1,0.4-0.3,0.5c-0.1,0.1-0.5,0.1-1.3,0.1
	C59.6,43.8,59.4,43.8,59.3,43.8z M54.3,43.8c-0.8,0-1.2,0-1.3-0.1c-0.2-0.1-0.3-0.2-0.3-0.4c0-0.2,0-1,0-2.2c0-0.2,0-0.4,0-0.6
	c0-0.2,0-0.5,0-0.8c0-0.9,0-1.5,0-1.8c0-0.4,0.1-0.6,0.3-0.6c0.1-0.1,0.4-0.1,0.9-0.1c0.2,0,0.3,0,0.4,0s0.2,0,0.4,0
	c0.4,0,0.7,0,0.9,0.1c0.2,0.1,0.3,0.3,0.3,0.6c0,0.2,0,0.8,0,1.8c0,0.4,0,0.6,0,0.8c0,1.5,0,2.4,0,2.7c0,0.3-0.1,0.4-0.3,0.5
	C55.5,43.8,55.1,43.8,54.3,43.8z M54.3,36.5c-0.8,0-1.3,0-1.4-0.1c-0.1-0.1-0.2-0.2-0.3-0.5c0-0.3,0-1.1,0-2.5c0-0.2,0-0.4,0-0.6
	c0-0.8,0-1.4,0-1.6c0-0.3,0.2-0.5,0.3-0.6c0.1,0,0.4-0.1,0.9-0.1c0.2,0,0.3,0,0.4,0s0.2,0,0.4,0c0.5,0,0.8,0,0.9,0.1
	c0.2,0.1,0.3,0.3,0.3,0.6c0,0.2,0,0.8,0,1.6c0,0.3,0,0.5,0,0.6c0,1.4,0,2.2,0,2.5c0,0.3-0.1,0.4-0.2,0.5
	C55.6,36.5,55.1,36.5,54.3,36.5z M61,36.4c-0.1,0.1-0.5,0.1-1.3,0.1c-0.8,0-1.2-0.1-1.3-0.1c-0.1-0.1-0.2-0.2-0.3-0.5
	c0-0.2,0-1,0-2.4c0-0.2,0-0.4,0-0.7c0-0.9,0-1.4,0-1.7c0-0.3,0.1-0.5,0.3-0.6c0.1-0.1,0.4-0.1,0.9-0.1c0.2,0,0.3,0,0.4,0
	s0.2,0,0.4,0c0.5,0,0.8,0,0.9,0.1c0.2,0.1,0.3,0.3,0.3,0.6c0,0.2,0,0.8,0,1.7c0,0.3,0,0.5,0,0.7c0,1.4,0,2.2,0,2.4
	C61.2,36.2,61.1,36.4,61,36.4z M65.1,36.5c-0.8,0-1.3,0-1.4-0.1c-0.1-0.1-0.2-0.2-0.3-0.5c0-0.2,0-1,0-2.4c0-0.2,0-0.4,0-0.8
	c0-0.8,0-1.4,0-1.6c0-0.3,0.1-0.5,0.3-0.6c0.1-0.1,0.4-0.1,0.9-0.1c0.2,0,0.3,0,0.4,0s0.2,0,0.4,0c0.5,0,0.8,0,0.9,0.1
	c0.2,0.1,0.3,0.3,0.3,0.6c0,0.2,0,0.7,0,1.6c0,0.3,0,0.5,0,0.7c0,1.4,0,2.2,0,2.5c0,0.3-0.1,0.4-0.2,0.5
	C66.4,36.5,66,36.5,65.1,36.5z M91.7,46.4c0.2,0,0.6,0,1-0.1c0.4-0.1,0.7-0.2,0.9-0.4c0-0.1,0.1-0.5,0-1.4c0-0.2,0-0.5,0-0.8
	c0-1.1,0-1.8,0-2.1c0-0.4,0.2-0.6,0.5-0.7c0.2-0.1,0.7-0.1,1.5-0.1c0.2,0,0.4,0,0.6,0c1,0,1.7,0,2-0.1c0.4-0.1,0.5-0.2,0.3-0.5
	c-0.1-0.2-0.5-0.6-1.1-1.2c0,0,0,0-0.1-0.1c-0.5-0.4-0.8-0.6-0.9-0.6c-0.1,0-0.4,0.3-0.7,0.7c0,0,0,0.1,0,0.1
	c-0.3,0.4-0.5,0.7-0.6,0.8c-0.1,0.1-0.3,0.1-0.6,0.1c-0.4,0-0.6-0.1-0.7-0.2c-0.1-0.1-0.1-0.5-0.1-1.1c0-0.5,0-0.8,0-1
	c0-0.2,0.1-0.3,0.3-0.5c0.2-0.2,0.2-0.3,0-0.4c-0.1-0.1-0.6-0.3-1.3-0.5c-0.4-0.1-0.6-0.2-0.7-0.3s-0.1-0.2,0-0.4
	c0.1-0.2,0.4-0.4,1-0.4c0.5,0,1,0,1.5,0.1c0.5,0.1,0.7,0.3,0.7,0.6c0,0.3,0.4,0.4,1.1,0.1c0.5-0.2,0.9-0.3,1-0.5
	c0.1-0.1,0.1-0.5,0.1-1.1c0-1-0.1-2.2-0.1-3.5c0-0.1,0-0.3,0-0.5c0-1.2,0-2,0-2.2c0-0.2,0.2-0.4,0.4-0.5l0,0
	c0.3-0.2,0.4-0.3,0.4-0.4c0-0.1-0.1-0.3-0.4-0.6l0,0c-0.6-0.6-1.1-1-1.4-1.1c-0.1,0-0.4,0.1-0.7,0.6c0,0,0,0-0.1,0.1
	C95,26.8,94.8,27,94.7,27c-0.1,0-0.6,0.1-1.3,0.1c-0.1,0-0.1,0-0.1,0c-0.8,0-1.3,0-1.5-0.1c-0.2-0.1-0.2-0.2,0-0.4
	c0-0.1,0.3-0.3,0.7-0.7c0.4-0.4,0.7-0.6,0.8-0.7c0.3-0.2,0.3-0.3,0.1-0.4c-0.2-0.1-0.9-0.3-1.8-0.5c-0.1,0-0.1,0-0.2,0
	c-0.4-0.1-0.7-0.1-0.7-0.1c-0.1,0-0.1,0.2-0.1,0.5c0,0.1,0,0.1,0,0.2c0,0.9-0.1,1.6-0.3,1.9c-0.2,0.4-0.5,0.5-1,0.5
	c-0.4,0-1.1-0.2-2-0.6c-0.1,0-0.2-0.1-0.3-0.1c-0.4-0.2-0.6-0.2-0.7-0.2c0,0-0.1,0.2,0,0.6c0,0.1,0,0.2,0,0.2
	c0.1,1.3,0.2,2.2,0.2,2.8c0,0.6-0.1,1-0.2,1.1c-0.1,0.1-0.4-0.1-0.7-0.4c0,0-0.1-0.1-0.1-0.1C85,30.1,84.9,30,84.8,30
	c0,0-0.1,0-0.1,0.1c0,0,0,0.1,0,0.1c-0.1,0.3-0.3,0.4-0.5,0.3c-0.2,0-0.3-0.9-0.3-2.4c0-1.6,0.2-2.5,0.4-2.6
	c0.2-0.2,0.2-0.3-0.1-0.5c-0.2-0.1-0.8-0.3-1.7-0.6c-0.4-0.1-0.6-0.2-0.7-0.1c0,0-0.1,0.1,0,0.3c0.1,0.8,0.2,2,0.2,3.6
	c0,1.7,0,2.6,0,2.8c-0.1,0.2-0.3,0.3-0.8,0.3c-0.4,0-0.7,0-0.9-0.1c-0.3-0.2-0.4-1-0.3-2.6c0-1.6,0.2-2.4,0.5-2.6
	c0.4-0.3-0.2-0.7-2-1.1c-0.3-0.1-0.4-0.1-0.5,0c0,0,0,0.2,0,0.5c0.1,0.7,0.1,1.4,0.2,2.3c0,0.9,0,2.9,0,5.9c0,4,0,6.3-0.1,6.8
	c-0.2,2-0.5,3.7-0.9,5c0,0,0,0.1-0.1,0.2C77,45.8,76.9,46,76.9,46c0,0.1,0,0.1,0,0.2c0.1,0.1,0.2,0.1,0.3,0c0.1-0.1,0.3-0.4,0.6-0.8
	c0.6-1,1.1-2,1.4-3.2s0.5-2.6,0.6-4.2c0-0.8,0.1-1.2,0.2-1.3s0.5-0.2,1.1-0.2c0.4,0,0.6,0,0.8,0.1c0.1,0,0.2,0.1,0.3,0.3
	c0.1,0.1,0.1,1.1,0.1,2.8c0,1.7-0.1,3.3-0.1,4.8c0,0.7-0.1,1.2-0.1,1.3c0,0.1,0.1,0.2,0.2,0.3c0.3,0.3,0.8,0.2,1.5-0.2
	c0,0,0,0,0.1,0c0.3-0.1,0.4-0.3,0.5-0.4c0-0.1,0.1-0.6,0-1.2c0-0.1,0-0.1,0-0.2c-0.1-2.6-0.1-4.4-0.1-5.5c0.1-1.1,0.2-1.7,0.5-1.7
	c0.2,0,0.3-0.1,0.4-0.2c0-0.2,0-0.3-0.2-0.5c-0.6-0.6-1-1-1.3-1.1c-0.3-0.1-0.6-0.1-0.8,0.2c-0.3,0.4-0.6,0.6-0.7,0.7
	c-0.1,0.1-0.4,0.1-0.9,0.1c-0.4,0-0.7,0-0.8-0.1c-0.2-0.1-0.3-0.2-0.3-0.5c0-0.2,0-0.6,0-1.3c0,0,0-0.1,0-0.1c0-0.1,0-0.3,0-0.4
	c0-0.5,0-0.8,0.1-0.9c0.1-0.2,0.3-0.3,0.6-0.3c0.2,0,0.8,0,1.7,0c0.3,0,0.6,0,0.8,0c0.2,0,0.4,0,0.7,0c0.9,0,1.5,0,1.8,0.1
	c0.3,0.1,0.5,0.3,0.6,0.6c0,0.2,0,0.8,0,1.7c0,0.3,0,0.5,0,0.7c0,0.7,0,1.2,0,1.3c0,0.1,0.1,0.2,0.1,0.3c0.2,0.2,0.6,0.2,1.1,0
	c0.6-0.2,0.9-0.4,0.9-0.6c0-0.2,0.1-0.4,0.4-0.5c0.3-0.1,0.6-0.1,0.8,0c0.4,0.2,0.3,0.7-0.4,1.5c-0.7,0.8-1.5,1.6-2.6,2.2
	c-0.2,0.1-0.4,0.2-0.4,0.3c0,0,0,0.1,0,0.2c0.1,0.1,0,0.1-0.2,0.2c-0.2,0-0.4,0.1-0.7,0h0c-0.2,0-0.3,0-0.4,0c0,0,0,0.2,0.1,0.4
	c0,0,0,0.1,0,0.1c0,0,0,0.1,0,0.1c0.1,0.2,0.2,0.4,0.3,0.4c0.1,0,0.3,0,0.6,0c0,0,0.1,0,0.1,0c0.8-0.1,1.8-0.2,3-0.2
	c1.2,0,1.9,0,2.1,0c0.2,0.1,0.3,0.5,0.3,1.2c0,0.7,0,1.9-0.1,3.6C91.3,46.1,91.4,46.4,91.7,46.4z M89.2,40.1c-1.2,0-1.9,0-2.1-0.1
	c-0.5-0.1-0.5-0.3,0-0.6c1.2-0.5,2.3-1.1,3.3-2c0.4-0.4,0.7-0.5,0.7-0.4c0.1,0.1,0.2,0.6,0.2,1.4c0,0.7,0,1.1,0,1.2
	c0,0.2-0.1,0.3-0.3,0.4C91.1,40.1,90.4,40.1,89.2,40.1z M90,34.7c-0.1,0.1-0.4,0.1-0.8,0.1s-0.6-0.1-0.7-0.1
	c-0.2-0.1-0.3-0.5-0.3-1.3c0-0.8,0-1.3,0.1-1.5c0.1-0.2,0.4-0.3,0.9-0.3c0.5-0.1,0.8,0,1.1,0.1c0.3,0.1,0.4,0.6,0.3,1.5
	C90.6,34,90.4,34.5,90,34.7z M93.7,34.8c-0.7,0-1.1,0-1.2-0.1c-0.1-0.1-0.1-0.4,0-0.9c0.1-0.4,0.1-0.8,0.1-1.1
	c0-0.5,0.1-0.8,0.2-0.9c0.1-0.1,0.5-0.2,1-0.2c0.6,0,1,0.1,1.1,0.2c0.1,0.1,0.2,0.6,0.2,1.3c0,0.6,0,1,0,1.2c0,0.2-0.1,0.3-0.2,0.4
	c-0.1,0.1-0.2,0.1-0.3,0.1C94.4,34.8,94.1,34.8,93.7,34.8z M90.4,30.8c-0.1,0.1-0.4,0.1-0.9,0.1c-0.5,0-0.8,0-0.9-0.1
	c-0.2-0.1-0.3-0.6-0.3-1.4s0.1-1.3,0.3-1.4c0.1-0.1,0.5-0.1,1-0.1c0.5,0,0.8,0.1,1,0.2c0.2,0.2,0.2,0.6,0.2,1.4
	C90.7,30.2,90.6,30.7,90.4,30.8z M93.8,30.9c-0.5,0-0.8,0-0.9-0.1c-0.2-0.1-0.3-0.6-0.3-1.5s0.1-1.3,0.3-1.4c0.1-0.1,0.4-0.1,1-0.1
	s0.8,0.1,0.9,0.1c0.2,0.1,0.3,0.6,0.3,1.4s-0.1,1.3-0.3,1.4C94.7,30.8,94.4,30.9,93.8,30.9z M107.3,46.4c0.8,0.2,1.4-0.2,1.6-1.1
	c0.3-0.9,0.2-2-0.3-3.6c-0.2-0.7-0.3-1.2-0.3-1.5c0-0.5,0.1-1.2,0.4-2.1c0.2-0.7,0.6-2.2,1.3-4.5c0.4-1.3,0.6-2,0.6-2.2
	c0-0.2,0-0.3-0.1-0.3c-0.1,0-0.2,0.1-0.3,0.3c-0.1,0.2-0.5,1-1,2.2c-0.1,0.3-0.2,0.5-0.3,0.6c-0.1,0.1-0.2,0.4-0.3,0.6
	c-0.8,1.7-1.3,2.7-1.5,3.2c-0.3,0.6-0.6,1-0.7,1.2c-0.1,0.1-0.3,0.2-0.6,0.2c0,0-0.1,0-0.1,0c-0.3,0-0.4,0-0.5,0.1
	c-0.1,0.1-0.1,0.2,0,0.3c0,0.1,0.1,0.1,0.3,0.2c0.6,0.1,1,0.5,1.2,1.3c0.2,0.8,0.2,1.9,0,3.4C106.5,45.6,106.7,46.2,107.3,46.4z
	 M124.4,46.4c0.4,0.1,0.8,0.1,1.1-0.1c0.4-0.2,0.6-0.5,0.6-0.9c0-0.9-1-1.7-2.9-2.3c-0.8-0.3-1.6-0.5-2.2-0.6c-0.6-0.1-1-0.1-1.2,0
	c-0.2,0.1,0,0.2,0.4,0.5c1.4,0.8,2.6,1.8,3.5,2.9C123.9,46.1,124.1,46.3,124.4,46.4z M109.7,46.4c0.1,0.1,0.1,0.1,0.2,0
	c0,0,0.2,0,0.5-0.1c2.1-0.4,4.1-1.2,5.9-2.2c0.6-0.3,1-0.5,1.3-0.5c0.6,0,0.4-0.3-0.5-0.8c-0.4-0.3-0.8-0.5-1.1-0.7
	c0,0-0.1,0-0.1-0.1c-0.3-0.2-0.5-0.3-0.6-0.3c0,0-0.1,0-0.1,0.1c-0.4,0.7-1,1.4-1.9,2.2s-1.8,1.4-2.7,1.8c-0.4,0.2-0.6,0.3-0.7,0.3
	C109.6,46.2,109.6,46.3,109.7,46.4z M112.4,42.3c0.3,0.1,0.7,0.1,1.1-0.1c0.4-0.2,0.7-0.4,0.7-0.6s0-0.4,0.1-0.4
	c0.1-0.1,0.5-0.1,1.1-0.1c0.4,0,1.4,0,2.9,0c0.1,0,0.2,0,0.4,0c1.4,0,2.2,0,2.6,0c0.5,0,0.8,0.1,0.9,0.2c0.1,0.1,0.1,0.2,0.1,0.5v0
	c0,0.2,0.1,0.3,0.4,0.3c0.3,0,0.6,0,1-0.2c0,0,0,0,0.1,0c0.4-0.1,0.6-0.3,0.6-0.4c0.1-0.1,0.1-0.5,0-1.2c0-0.1,0-0.2,0-0.2
	c-0.1-2.4-0.1-4-0.1-4.7c0-0.7,0.2-1.2,0.5-1.3c0.3-0.1,0.4-0.3,0.2-0.6c-0.1-0.3-0.5-0.6-1.1-1.1c-0.3-0.3-0.6-0.4-0.7-0.4
	c-0.1,0-0.3,0.2-0.5,0.4c-0.3,0.4-0.5,0.7-0.7,0.8c-0.2,0.1-0.6,0.1-1.3,0.1c-0.8,0-1.2,0-1.4-0.1c-0.1-0.1-0.2-0.4-0.2-0.8
	c0,0,0-0.1,0-0.2c0-0.4,0-0.6,0-0.7c0.1-0.1,0.3-0.2,0.6-0.3c0.2,0,0.8,0,1.8,0c0.1,0,0.2,0,0.3,0c1,0,1.7,0,2,0
	c0.4,0,0.6-0.1,0.7-0.2c0-0.1-0.1-0.2-0.3-0.4c-0.3-0.3-0.5-0.5-0.4-0.7c0-0.2,0.3-0.4,0.9-0.8c0.7-0.4,1.1-0.6,1.2-0.6
	c0.4,0,0.5-0.1,0.5-0.3c0-0.2-0.3-0.6-0.8-1.1c-0.5-0.5-0.9-0.8-1.1-0.9c-0.2,0-0.4,0.1-0.7,0.4c0,0,0,0-0.1,0.1
	c-0.3,0.3-0.5,0.5-0.7,0.6c-0.2,0-0.6,0.1-1.4,0.1c-0.1,0-0.2,0-0.3,0c-0.8,0-1.3,0-1.5,0c-0.3,0-0.5-0.1-0.6-0.2
	c0-0.1-0.1-0.3-0.1-0.6c0-0.5,0.1-0.9,0.4-1.1c0.2-0.1,0.2-0.3-0.1-0.4c-0.3-0.2-0.9-0.4-1.8-0.6c0,0-0.1,0-0.1,0
	c-0.4-0.1-0.6-0.1-0.6-0.1c0,0-0.1,0.2,0,0.4v0c0.1,0.9,0.2,1.6,0.1,1.8c0,0.4-0.2,0.6-0.5,0.7c-0.2,0.1-0.7,0.1-1.5,0.1
	c0,0-0.1,0-0.1,0c-0.9,0-1.4,0-1.6-0.1c-0.2-0.1-0.3-0.4-0.4-0.8l0-0.1c-0.1-0.3-0.2-0.5-0.3-0.6s-0.2-0.1-0.2,0.1
	c-0.1,0.7-0.3,1.2-0.5,1.6c-0.2,0.4-0.4,0.7-0.8,1.1c-0.4,0.4-0.6,0.8-0.7,1.2c-0.1,0.4,0,0.7,0.2,0.9c0.2,0.2,0.6,0.3,1,0.2
	c0.4-0.1,0.7,0.1,0.9,0.5l0,0c0,0.1,0.1,0.2,0.1,0.2c0.1,0,0.2,0,0.6-0.1c0.1,0,0.2,0,0.2,0c0.5-0.1,1.2-0.2,1.9-0.2
	c0.7,0,1.1,0,1.2,0.1c0.1,0.1,0.2,0.4,0.2,0.8c0,0.4,0,0.8-0.1,0.9c-0.2,0.3-0.6,0.4-1.4,0.3c-0.8,0-1.6-0.2-2.4-0.6
	c-0.1,0-0.2-0.1-0.3-0.1c-0.5-0.2-0.8-0.3-0.9-0.3c-0.1,0-0.1,0.2-0.1,0.5c0,0.1,0,0.1,0,0.2c0.1,0.9,0.2,2.2,0.2,3.7
	c0,1.6,0,3-0.1,4.1c0,0.6,0,1,0,1.2C112.2,42.2,112.3,42.3,112.4,42.3z M116.8,40.3c-0.3,0.1-0.7,0.2-1.4,0.1
	c-0.7-0.1-1-0.2-1.1-0.4c-0.1-0.1-0.1-0.5-0.1-1.2c0-0.7,0-1.1,0.1-1.2c0.1-0.2,0.6-0.4,1.3-0.4c0.8,0,1.2,0.1,1.4,0.4
	c0.1,0.2,0.2,0.7,0.1,1.4C117.1,39.8,117,40.2,116.8,40.3z M120.7,40.4c-0.7,0-1.1-0.1-1.3-0.2c-0.1-0.1-0.2-0.5-0.2-1.2
	c0,0,0-0.1,0-0.1v0c0-0.7,0.1-1.1,0.2-1.2c0.1-0.1,0.6-0.2,1.3-0.2c0,0,0.1,0,0.1,0s0,0,0.1,0c0.8,0,1.2,0.1,1.3,0.2
	c0.1,0.1,0.2,0.5,0.2,1.2v0.1c0,0.6,0,1,0,1.1c0,0.1-0.1,0.2-0.3,0.3c-0.1,0-0.5,0.1-1.2,0.1C120.8,40.4,120.7,40.4,120.7,40.4z
	 M115.7,36.7c-0.7,0-1.1,0-1.2-0.1c-0.2-0.1-0.3-0.5-0.3-1.2c0-0.7,0.1-1.1,0.3-1.2c0.1-0.1,0.5-0.1,1.2-0.1c0.7,0,1.1,0.1,1.2,0.1
	c0.2,0.1,0.3,0.5,0.3,1.2c0,0.7-0.1,1.1-0.3,1.2C116.8,36.7,116.4,36.7,115.7,36.7z M120.8,36.7c-0.8,0-1.3-0.1-1.4-0.2
	c-0.1-0.1-0.2-0.5-0.2-1.2c0-0.7,0.1-1,0.2-1.2c0.1-0.1,0.6-0.2,1.4-0.2c0.8,0,1.3,0.1,1.4,0.2c0.1,0.1,0.2,0.5,0.2,1.2
	c0,0.4,0,0.7-0.1,0.9c0,0.2-0.1,0.3-0.2,0.3c-0.1,0.1-0.2,0.1-0.3,0.1C121.7,36.7,121.4,36.7,120.8,36.7z M107.1,33.3
	c0.4,0.1,0.7,0.1,1-0.1c0.3-0.2,0.4-0.5,0.4-0.9c0-1-0.9-1.8-2.6-2.3c-0.5-0.1-0.9-0.2-1-0.1c-0.1,0,0,0.2,0.2,0.5
	c0.7,0.8,1.2,1.6,1.4,2.4c0.1,0.2,0.2,0.4,0.2,0.5C106.8,33.2,106.9,33.3,107.1,33.3z M117.9,30.5c-1.8,0-3,0-3.6,0
	c-0.7,0-1.1-0.1-1.2-0.2c-0.1-0.1-0.1-0.3,0-0.7c0-0.1,0.1-0.4,0.2-0.7c0.1-0.4,0.2-0.6,0.4-0.7c0.1-0.1,1.6-0.1,4.7-0.1
	c3,0,4.6,0,4.7,0.1c0.2,0.1,0.3,0.3,0.2,0.7c-0.1,0.3-0.3,0.4-0.5,0.4c-0.1,0-0.1-0.1-0.2-0.1c-0.1-0.1-0.1-0.1-0.2,0
	c-0.1,0.1-0.2,0.2-0.5,0.5c-0.3,0.4-0.6,0.7-0.7,0.7c-0.1,0.1-0.3,0.1-0.6,0.1C120.3,30.5,119.4,30.5,117.9,30.5z M109.1,28.1
	c0.5,0.2,0.9,0.1,1.2-0.3c0.3-0.4,0.4-0.9,0.1-1.4c-0.2-0.4-0.6-0.8-1.2-1.1c-0.6-0.3-1.2-0.6-2-0.7c-0.4-0.1-0.7-0.1-0.7,0
	c0,0.1,0.1,0.2,0.4,0.6c0.8,0.8,1.3,1.6,1.7,2.4c0.1,0.3,0.2,0.4,0.2,0.5C108.9,28,109,28.1,109.1,28.1z M150.2,46.4
	c0.4,0.1,0.7,0,1-0.2s0.4-0.5,0.4-0.8c0-0.7-0.6-1.4-1.7-2c-1.1-0.7-2.6-1.2-4.5-1.5c0,0-0.1,0-0.1,0c-0.6-0.1-1-0.2-1.1-0.2
	c-0.1,0-0.2-0.1-0.3-0.2c-0.2-0.2-0.1-0.5,0.1-0.9c0,0,0-0.1,0-0.1c0.1-0.2,0.2-0.3,0.5-0.3c0.2,0,1-0.1,2.3-0.1c0.3,0,0.6,0,0.8,0
	c1.6,0,2.6,0,2.9,0s0.5-0.1,0.6-0.2c0.1-0.1-0.1-0.4-0.5-0.8c-0.4-0.4-0.8-0.8-1.3-1.1c-0.2-0.1-0.4-0.2-0.5-0.1
	c-0.1,0-0.3,0.3-0.6,0.7c0,0,0,0.1-0.1,0.1c-0.3,0.4-0.5,0.6-0.7,0.6c-0.2,0.1-0.6,0.1-1.3,0.1c0,0-0.1,0-0.1,0c-0.6,0-1,0-1.2,0
	c-0.2,0-0.4-0.1-0.4-0.3c0-0.1,0-0.4,0-0.8c0,0,0-0.1,0-0.1c0.1-0.5,0.2-0.8,0.3-0.9c0.1-0.1,0.6-0.1,1.4-0.1c0.1,0,0.2,0,0.2,0
	c0.9,0,1.4-0.1,1.6-0.1c0.2-0.1,0.2-0.2,0.1-0.4c0,0-0.1-0.1-0.1-0.2c0-0.2-0.3-0.4-0.9-0.8c0,0-0.1-0.1-0.2-0.1
	c-0.4-0.3-0.7-0.4-0.8-0.4c-0.1,0-0.3,0.2-0.6,0.5c0,0.1-0.1,0.1-0.1,0.2c0,0-0.1,0.1-0.1,0.1c-0.2,0.3-0.4,0.5-0.6,0.5
	c-0.2,0-0.9,0.1-2,0.1c-0.3,0-0.5,0-0.7,0c-0.2,0-0.4,0-0.6,0c-1,0-1.6,0-1.8,0c-0.3,0-0.5-0.1-0.4-0.3c0-0.1,0.2-0.4,0.6-0.9
	c0.1-0.1,0.2-0.2,0.3-0.3c0,0,0.1-0.1,0.2-0.2c0.3-0.4,0.6-0.6,0.8-0.7c0.2-0.1,0.9-0.1,2-0.1c0.3,0,0.6,0,0.7,0c0.2,0,0.4,0,0.7,0
	c1.1,0,1.7,0,1.9,0.1c0.2,0.1,0.5,0.4,0.9,0.9c0.1,0.2,0.2,0.3,0.3,0.4c0.3,0.4,0.5,0.7,0.8,0.9c0.2,0.1,0.5,0.4,0.9,0.8
	c0.8,0.8,1.7,1.4,2.8,2c0.2,0.1,0.3,0.2,0.4,0.1c0,0,0.1-0.1,0.2-0.3c0.2-0.5,0.6-1,1.3-1.4c0.3-0.2,0.4-0.3,0.4-0.4
	c0-0.1-0.1-0.2-0.4-0.3c-1.1-0.4-2.2-0.8-3.3-1.4c-1.1-0.6-1.7-1.1-1.7-1.3c0-0.1,0.1-0.2,0.3-0.2c0.2,0,1-0.1,2.3-0.1
	c1.1,0,1.8,0,2.2-0.1c0.4-0.1,0.5-0.2,0.4-0.4c-0.1-0.2-0.5-0.5-1.2-1.1c0,0,0,0-0.1-0.1c-0.5-0.4-0.9-0.6-1.1-0.6
	c-0.1,0-0.4,0.2-0.8,0.7c0,0,0,0.1-0.1,0.1l0,0c-0.3,0.4-0.5,0.6-0.6,0.6c-0.1,0.1-0.5,0.1-1.2,0.1c-0.1,0-0.2,0-0.2,0
	c-0.7,0-1.1,0-1.3-0.1c-0.2,0-0.4-0.2-0.7-0.6c-0.8-0.8-1.1-1.4-0.8-1.6c0,0,0.2-0.1,0.5-0.1c0.3,0,1.1,0,2.5,0c0,0,0.1,0,0.1,0
	c1.6,0,2.5,0,2.7,0c0.3,0,0.4-0.1,0.5-0.2c0.1-0.2-0.3-0.7-1.3-1.4c-0.4-0.3-0.7-0.5-0.9-0.5c-0.1,0-0.3,0.2-0.6,0.6
	c0,0-0.1,0.1-0.1,0.2c-0.3,0.4-0.5,0.6-0.7,0.6c-0.2,0-0.9,0.1-2,0.1c-0.3,0-0.5,0-0.6,0c-0.1,0-0.2,0-0.4,0c-1,0-1.7,0-1.9,0
	c-0.4,0-0.6-0.1-0.6-0.3c0-0.1,0-0.3,0.1-0.7c0-0.1,0-0.1,0-0.1c0.2-0.5,0.3-0.9,0.5-1c0.1,0,0.3-0.1,0.7-0.1c0.4,0,1.6,0,3.6,0
	c0.1,0,0.2,0,0.2,0c0.2,0,0.6,0,1,0c1.8,0,2.8,0,3.1,0s0.5-0.1,0.5-0.2l0,0c0.1-0.2-0.4-0.7-1.5-1.6c-0.4-0.3-0.7-0.4-0.8-0.4
	c-0.1,0-0.3,0.2-0.6,0.6l0,0c0,0-0.1,0.1-0.2,0.2c-0.3,0.4-0.5,0.6-0.7,0.7c-0.2,0-0.8,0.1-1.8,0.1c-0.3,0-0.5,0-0.6,0
	c-1.2,0-2,0-2.2,0c-0.3,0-0.4-0.1-0.5-0.2c-0.1-0.2-0.1-0.5,0.1-1c0.1-0.4,0.3-0.7,0.5-0.8c0.3-0.1,0.3-0.3,0-0.4
	c-0.3-0.1-0.9-0.3-2-0.6c-0.5-0.1-0.7-0.2-0.8-0.1s-0.1,0.1-0.1,0.3c0,0.2,0,0.5-0.1,1c-0.1,0.5-0.1,0.8-0.2,1.1
	c-0.1,0.4-0.2,0.6-0.5,0.7c-0.2,0.1-1.2,0.1-3.1,0.1c-1.9,0-3.1-0.1-3.6-0.2c-0.1,0-0.2,0-0.2,0.1c0,0,0.1,0.2,0.2,0.4
	c0,0,0,0.1,0.1,0.1c0.1,0.3,0.2,0.4,0.3,0.5c0.1,0,0.3,0,0.6,0c0.1,0,0.1,0,0.2,0c1-0.1,2.1-0.2,3.3-0.2c1.2,0,1.9,0,2,0.1
	c0.2,0.1,0.2,0.4,0,1c-0.1,0.5-0.3,0.8-0.6,1c-0.1,0.1-0.9,0.1-2.4,0.1c-1.5,0-2.4-0.1-2.8-0.1c-0.2,0-0.2,0.2,0.1,0.6
	c0,0,0,0.1,0.1,0.2c0.1,0.2,0.2,0.3,0.2,0.3c0.1,0,0.3,0,0.6-0.1c0.1,0,0.2,0,0.2,0c1.2-0.2,2.1-0.2,2.7-0.2c0.6,0,0.9,0.2,0.9,0.5
	c0,0.2-0.1,0.5-0.4,0.9c-0.2,0.4-0.4,0.7-0.5,0.8c-0.1,0.1-0.8,0.2-2.2,0.2c-1.3,0-2.5,0-3.5-0.1c-0.2,0-0.3,0-0.3,0
	c0,0,0.1,0.2,0.2,0.6c0,0,0,0,0,0.1c0.1,0.2,0.2,0.4,0.3,0.4c0.1,0,0.2,0,0.5,0c0,0,0.1,0,0.1,0c1.2-0.2,2.2-0.2,3-0.2
	c0.8,0,1.2,0.1,1.2,0.4c0,0.4-0.6,1.2-1.8,2.4c-1.2,1.2-2.4,2.2-3.6,3.1c-0.1,0.1-0.2,0.2-0.2,0.2c0,0.1,0.1,0.1,0.2,0.1
	c0.2,0,0.9-0.3,2-1c1.1-0.7,2-1.3,2.6-1.8c0.6-0.5,1-0.6,1.2-0.4c0,0,0.1,0.1,0.2,0.1c0.1,0,0.5,0,1.2,0c0,0,0.1,0,0.1,0
	c0.9,0,1.4,0,1.5,0.1c0.1,0.1,0.2,0.4,0.2,0.9c0,0,0,0.1,0,0.1c0,0.4,0,0.7-0.1,0.9c0,0.2-0.1,0.3-0.3,0.3c-0.1,0-0.8,0.1-2.1,0
	c-1.3,0-2.2,0-2.8-0.1c-0.4,0-0.6,0-0.6,0c0,0,0,0.2,0.2,0.5c0,0,0,0.1,0,0.1c0.1,0.2,0.2,0.3,0.3,0.4c0.1,0,0.4,0,0.8,0
	c0.1,0,0.2,0,0.3,0c2.8-0.4,4-0.2,3.8,0.6c-0.6,2.2-2.8,3.9-6.6,5.1c-0.4,0.1-0.6,0.2-0.6,0.2c-0.1,0-0.1,0.1,0,0.2
	c0,0.1,0.1,0.1,0.3,0.1c0.2,0,0.6-0.1,1.3-0.3c1.7-0.4,3-0.9,4.1-1.4c1.1-0.5,2-1.1,2.6-1.9c0.4-0.4,0.6-0.6,0.8-0.6
	c0.2,0,0.6,0.1,1.3,0.5c1.8,0.9,3.2,1.9,4.4,3C149.5,46.1,149.9,46.3,150.2,46.4z M143.4,33.1c-0.8,0-1.3,0-1.5,0
	c-0.3,0-0.4-0.2-0.4-0.3c0-0.1,0.1-0.4,0.4-0.9c0,0,0.1-0.1,0.1-0.1c0.3-0.5,0.5-0.8,0.6-0.9c0.2-0.1,0.5-0.1,1.2-0.1
	c0.6,0,0.9,0,1.1,0.1c0.1,0.1,0.4,0.4,0.6,0.9l0,0.1c0.2,0.4,0.3,0.7,0.4,0.9c0,0.1,0,0.2-0.1,0.3c-0.1,0.1-0.2,0.1-0.4,0.1
	c-0.2,0-0.7,0-1.6,0C143.6,33.1,143.5,33.1,143.4,33.1z M161.7,46.3c0.1,0.1,0.2,0,0.3-0.2c0-0.1,0.2-0.4,0.6-0.8
	c0.1-0.2,0.4-0.5,0.8-0.9c0.2-0.2,0.3-0.4,0.4-0.4c0.6-0.8,1-1.2,1.1-1.2c0.1-0.1,0.2-0.1,0.3,0c0.1,0,0.2,0.2,0.4,0.4
	c0.6,0.9,1.2,1.5,1.8,1.8c0.7,0.4,1.7,0.7,3.1,0.8c1.2,0.1,3.2,0.2,6.1,0.2c0.2,0,0.4,0,0.7,0c1.2,0,2,0,2.3,0c0.4,0,0.7,0,0.9-0.1
	c0.1,0,0.1-0.1,0.1-0.2c0,0,0-0.1,0-0.1c0.1-0.3,0.2-0.6,0.5-0.9c0.2-0.3,0.4-0.5,0.6-0.5c0.1,0,0.2-0.1,0.3-0.1
	c0.1-0.1,0.1-0.1,0-0.2c-0.1,0-1-0.1-2.7,0c-3.3,0.1-5.8,0.1-7.3,0c-1.7,0-3-0.1-3.8-0.3c-0.8-0.2-1.4-0.4-2-0.8c0,0,0,0-0.1-0.1
	c-0.4-0.3-0.7-0.5-0.7-0.7c-0.1-0.2-0.1-0.9-0.1-1.9c0-0.1,0-0.1,0-0.2c0-0.1,0-0.2,0-0.3c0-1,0-1.6,0-1.8c0-0.2,0.2-0.4,0.5-0.5
	c0,0,0.1,0,0.1,0c0.2-0.1,0.4-0.2,0.4-0.2c0.1-0.1,0.1-0.1,0-0.2c0-0.1-0.3-0.4-0.9-0.9c-0.5-0.5-0.9-0.8-1.2-0.9
	c-0.1-0.1-0.2-0.1-0.3,0c-0.1,0-0.2,0.2-0.4,0.5c-0.3,0.5-0.7,0.8-1.1,0.9c-0.4,0.1-1.1,0.1-2-0.1c-0.1,0-0.2,0-0.1,0.1
	c0,0.1,0.1,0.2,0.2,0.5c0.1,0.3,0.2,0.4,0.3,0.4c0,0,0.2,0,0.3,0c0.5-0.2,0.9-0.2,1.3-0.2c0.4,0,0.6,0.1,0.8,0.3
	c0.1,0.1,0.1,0.9,0.1,2.5c0,1.6,0,2.4-0.1,2.5c-0.1,0.2-0.7,0.6-1.5,1c-0.8,0.4-1.2,0.6-1.2,0.6c0,0,0.2,0.4,0.6,1.2
	C161.4,45.8,161.6,46.2,161.7,46.3z M178.1,42.8c0.1,0.1,0.3,0.1,0.8,0c0.5-0.1,0.9-0.3,1.1-0.5c0.2-0.1,0.3-0.3,0.4-0.5
	c0.1-0.2,0.1-0.6,0.1-1.2c0-0.4,0-1.5,0-3.1c0-0.2,0-0.5,0-0.8c0-1.6,0-2.5,0-2.8c0-0.3,0.1-0.5,0.3-0.6c0.3-0.2,0.4-0.3,0.4-0.4
	c0-0.1-0.1-0.2-0.3-0.5c-0.9-1-1.6-1.4-1.8-1.1c-0.3,0.3-0.4,0.3-0.5,0c-0.1-0.3-0.1-1-0.1-2.2c0-1.3,0-2.1,0.1-2.3
	c0.1-0.3,0.2-0.5,0.5-0.6c0.3-0.1,0.5-0.3,0.4-0.5c-0.1-0.2-0.4-0.5-1-0.9c-0.5-0.4-0.9-0.6-1-0.6c-0.2,0-0.3,0.1-0.6,0.4
	c0,0,0,0.1-0.1,0.1c-0.2,0.4-0.5,0.6-0.7,0.6c-0.2,0-0.8,0.1-1.9,0.1c-0.2,0-0.3,0-0.4,0c-0.1,0-0.3,0-0.5,0c-0.9,0-1.5,0-1.8,0
	c-0.2,0-0.6-0.2-1.2-0.4c-0.1,0-0.2-0.1-0.3-0.1c-0.5-0.2-0.8-0.3-1-0.4c-0.1,0-0.1,0-0.1,0.2c0.1,0.8,0.2,2.2,0.2,4.1
	c0,1.9,0,2.9-0.1,3c-0.2,0.2-0.5,0.2-1.2-0.1c0,0-0.1,0-0.2-0.1c-0.2-0.1-0.4-0.1-0.4,0c0,0.1,0,0.6,0,1.4c0,0.3,0,0.5,0,0.7
	c0,2.6-0.1,4.8-0.2,6.7c-0.1,1.1,0,1.7,0.2,1.9c0.2,0.2,0.7,0.1,1.4-0.3c0,0,0,0,0.1,0c0.3-0.1,0.4-0.3,0.5-0.4c0-0.2,0.1-0.6,0-1.4
	c0-0.1,0-0.2,0-0.2c-0.1-1.7-0.1-3.2-0.1-4.6c0-1.4,0.1-2.1,0.2-2.2c0.1-0.1,1.6-0.2,4.4-0.2c2.8,0,4.3,0.1,4.4,0.2
	c0.1,0.1,0.1,0.2,0.1,0.6c0,0.3,0,1.3,0,3.1c0,0.2,0,0.4,0,0.7c0,1.2,0,2,0,2.3c0,0.4-0.1,0.7-0.2,0.8c-0.1,0.1-0.3,0.1-0.6,0.1
	c-0.1,0-0.1,0-0.2,0c-0.6,0-1,0-1.1,0c-0.1,0-0.1,0-0.1,0.1c0,0.1,0.1,0.1,0.2,0.2c0.5,0.1,0.9,0.3,1.1,0.5c0.3,0.2,0.4,0.5,0.4,0.8
	C178.1,42.7,178.1,42.8,178.1,42.8z M171.2,40.8c0.1,0.1,0.2,0.1,0.5,0.1c0.3,0,0.5-0.1,0.7-0.2c0.2-0.1,0.3-0.1,0.3-0.2
	c0-0.1,0.1-0.2,0.1-0.3c0-0.3,0.1-0.5,0.2-0.6c0.2-0.1,0.5-0.2,1-0.2c0.5,0,0.8,0,1,0.1c0.2,0.1,0.3,0.2,0.3,0.5
	c0,0.3,0.3,0.4,0.9,0.2c0.4-0.1,0.6-0.3,0.7-0.4c0.1-0.1,0.1-0.5,0.1-1c-0.1-1.2-0.1-2,0-2.4c0-0.4,0.2-0.7,0.4-0.8
	c0.2-0.1,0.2-0.2,0.2-0.4c0-0.1-0.2-0.4-0.6-0.7c-0.4-0.3-0.6-0.5-0.8-0.6c-0.2-0.1-0.3,0-0.5,0.2c-0.3,0.4-0.6,0.6-0.7,0.7
	c-0.2,0.1-0.6,0.1-1.2,0.1c0,0-0.1,0-0.1,0c-0.4,0-0.6,0-0.8-0.1s-0.4-0.2-0.9-0.4c-0.1,0-0.1-0.1-0.2-0.1l0,0
	c-0.4-0.2-0.6-0.3-0.6-0.2c-0.1,0-0.1,0.1,0,0.3v0c0.1,1.3,0.1,3.3,0,5.9C171.1,40.6,171.1,40.8,171.2,40.8z M174.9,38.7
	c-0.2,0.1-0.6,0.1-1.1,0.1c-0.5-0.1-0.8-0.2-0.9-0.3c0-0.1-0.1-0.5-0.1-1.1c0-0.7,0-1.1,0-1.2c0.1-0.3,0.5-0.5,1.2-0.5
	s1.1,0.2,1.2,0.5c0.1,0.4,0.1,0.9,0,1.5C175.2,38.2,175,38.6,174.9,38.7z M163.9,33.2c0.5,0.1,0.8,0,1.1-0.3
	c0.2-0.3,0.3-0.6,0.2-1.1c-0.1-0.4-0.4-0.8-0.8-1.2c-0.4-0.3-0.9-0.5-1.6-0.7c-0.7-0.2-1.2-0.3-1.6-0.3c-0.4,0-0.5,0.2-0.1,0.5
	c0.9,0.8,1.6,1.6,2.2,2.4c0.2,0.4,0.4,0.5,0.4,0.6C163.7,33.2,163.8,33.2,163.9,33.2z M176.3,32.4c-0.2,0.1-0.5,0.1-0.9,0.1
	c-0.4,0-0.6-0.2-0.6-0.3c-0.1-0.2-0.2-0.7-0.1-1.4c0-0.8,0.1-1.2,0.2-1.3c0.1-0.1,0.4-0.1,0.8-0.1s0.7,0,0.8,0.1
	c0.2,0.2,0.3,0.7,0.2,1.5C176.7,31.9,176.5,32.3,176.3,32.4z M172.7,32.4c-0.2,0.1-0.5,0.1-0.8,0.1c-0.3,0-0.5-0.2-0.6-0.3
	c-0.1-0.1-0.1-1.1-0.1-2.8c0-1.8,0.1-2.7,0.1-2.8c0.1-0.2,0.2-0.2,0.5-0.3c0.2,0,0.9,0,2.2,0c0.1,0,0.2,0,0.3,0c0.9,0,1.4,0,1.7,0
	c0.3,0,0.5,0.1,0.6,0.2c0.1,0.1,0.1,0.3,0.1,0.6c0,0,0,0.1,0,0.1c0,0.8-0.2,1.3-0.6,1.4s-1.2,0-2.3-0.5c-0.5-0.2-0.7-0.3-0.8-0.3
	c-0.1,0-0.1,0.1-0.1,0.2c0.2,1.1,0.2,2.1,0.2,3C173,31.9,172.9,32.3,172.7,32.4z M164.7,28.4c0.4,0.1,0.7,0.1,1-0.2
	c0.3-0.2,0.4-0.6,0.4-1c0-0.6-0.3-1.1-0.9-1.5c-0.6-0.4-1.3-0.7-2.2-0.9c-0.7-0.1-1.1-0.2-1.1-0.1c0,0.1,0.2,0.3,0.6,0.8
	c0.4,0.4,0.9,0.9,1.3,1.5c0.4,0.6,0.6,0.9,0.6,1.1C164.4,28.3,164.5,28.3,164.7,28.4z M191.9,46.3c0.2,0.1,0.6,0.1,1,0
	c0.5-0.1,0.8-0.3,1.1-0.5c0.1-0.1,0.1-0.1,0.1-0.2c0,0,0-0.2,0-0.4c-0.1-2-0.2-4.3-0.2-6.7c0-2.4,0.1-3.6,0.3-3.6s0.3,0.3,0.6,0.8
	c0.3,0.5,0.4,1,0.5,1.4c0.1,0.4,0.3,0.7,0.7,0.7c0.4,0,0.7-0.1,1-0.5l0,0c0.1-0.1,0.2-0.2,0.2-0.2c0.1,0,0.2-0.1,0.5-0.1
	c0,0,0.1,0,0.1,0c0.1,0,0.3,0,0.5,0c0.5,0,0.9-0.1,1.2-0.1c0.1,0,0.3,0,0.5,0c0.7-0.1,1.1-0.1,1.3-0.1c0.3,0,0.4,0.1,0.5,0.3
	c0,0.1,0,0.4,0,0.9c0,0.2,0,0.3,0,0.4c0,0.1,0,0.2,0,0.3c0,0.7-0.1,1-0.2,1.2c-0.1,0.1-0.6,0.2-1.4,0.1c-0.2,0-0.3,0-0.4,0
	c-0.8,0-1.5,0-2.2-0.1c-0.4,0-0.6,0-0.6,0c0,0,0,0.2,0.1,0.5l0,0c0,0,0,0,0,0.1c0.1,0.3,0.2,0.4,0.2,0.5c0.1,0,0.2,0,0.4,0
	c0.7-0.1,1.5-0.2,2.5-0.2c0,0,0.1,0,0.2,0c0.5,0,0.8,0,0.9,0c0.2,0.1,0.3,0.2,0.3,0.5c0,0.2,0,0.6,0,1.3c0,0.1,0,0.2,0,0.3
	c0,0.9,0,1.4,0,1.6c0,0.2-0.1,0.3-0.2,0.4c-0.1,0.1-0.9,0.1-2.3,0.1c-1.4,0-2.5-0.1-3.3-0.1c-0.2,0-0.3,0-0.3,0c0,0,0,0.2,0.2,0.5
	c0,0,0,0.1,0,0.1c0.1,0.2,0.2,0.4,0.3,0.4c0.1,0,0.2,0,0.5,0c0.1,0,0.1,0,0.2,0h0c0.7-0.1,1.4-0.2,2-0.2c0.8,0,2.5,0,5.3,0
	c0.3,0,0.8,0,1.3,0c2.2,0,3.6,0,3.9,0c0.4,0,0.6-0.1,0.6-0.2c0.1-0.2-0.3-0.8-1.3-1.6c-0.4-0.4-0.7-0.5-0.8-0.5
	c-0.1,0-0.3,0.2-0.6,0.6c0,0,0,0.1-0.1,0.1c-0.3,0.4-0.6,0.7-0.7,0.8c-0.1,0.1-0.5,0.1-1.1,0.1c-0.1,0-0.1,0-0.2,0c0,0-0.1,0-0.2,0
	c-0.4,0-0.7,0-0.8-0.1c-0.2-0.1-0.3-0.2-0.3-0.5c0-0.2,0-0.6,0-1.4c0-0.1,0-0.3,0-0.3c0-0.1,0-0.3,0-0.6c0-0.5,0-0.9,0.1-1
	c0.1-0.2,0.2-0.3,0.5-0.4c0.2,0,0.7,0,1.4,0c0.3,0,0.6,0,0.7,0c1.1,0,1.9-0.1,2.2-0.1c0.4-0.1,0.5-0.3,0.3-0.6
	c-0.2-0.2-0.7-0.6-1.5-1.3c-0.3-0.2-0.5-0.3-0.6-0.3c-0.1,0-0.3,0.2-0.6,0.6l0,0c-0.3,0.4-0.5,0.7-0.7,0.7c-0.1,0.1-0.4,0.1-0.8,0.1
	c-0.4,0-0.6,0-0.7-0.1c-0.1-0.1-0.2-0.2-0.3-0.5c0-0.2,0-0.6,0-1.3c0-0.1,0-0.2,0-0.3c0-0.7,0.1-1.1,0.2-1.2
	c0.1-0.1,0.6-0.3,1.3-0.4c0.1,0,0.2,0,0.3,0c0,0,0.1,0,0.1,0c0.6-0.1,1-0.2,1.1-0.2c0.2,0,0.5,0,1,0c0.4,0,0.6,0,0.6-0.1
	c0,0-0.3-0.3-0.8-0.8c-0.7-0.6-1.1-1-1.1-1.2c0-0.2,0.2-0.4,0.6-0.6l0,0c0.4-0.2,0.7-0.3,0.8-0.4c0.1-0.1,0.1-0.5,0-1.2
	c-0.1-1.6-0.1-2.7-0.1-3.4c0-0.7,0.2-1.1,0.4-1.2c0.3-0.2,0.5-0.3,0.5-0.4c0-0.1-0.3-0.5-0.9-1c-0.6-0.5-1-0.8-1.1-0.8
	c-0.1,0-0.3,0.2-0.6,0.5c0,0-0.1,0.1-0.1,0.1c-0.3,0.3-0.5,0.5-0.7,0.6c-0.2,0-1,0.1-2.2,0.1c-0.2,0-0.3,0-0.5,0c-0.1,0-0.3,0-0.6,0
	c-1,0-1.7,0-2,0c-0.3,0-0.6-0.2-1.2-0.4c-0.1,0-0.2-0.1-0.3-0.1c-0.6-0.3-1-0.4-1-0.3s-0.1,0.6,0,1.4c0.1,0.4,0.1,1.3,0.1,2.5
	c0,1.2,0,2-0.1,2.2c0,0.3-0.1,0.5,0,0.6c0,0.1,0,0.3,0,0.8c0,0.4,0,0.6,0,0.7c0,0.1,0.1,0.2,0.1,0.2c0.2,0.2,0.6,0.2,1.1,0
	s0.9-0.4,0.9-0.6c0-0.2,0.1-0.4,0.4-0.5c0.1,0,1-0.1,2.6-0.1c1.6,0,2.5,0,2.6,0.1c0.2,0.1,0.3,0.3,0.4,0.5c0.1,0.3,0,0.5-0.1,0.6
	c-0.2,0.3-1.3,0.8-3.3,1.5c-2,0.7-3.6,1.2-4.9,1.5c-0.3,0.1-0.5-0.1-0.6-0.4c-0.3-0.9-1-1.6-2.2-2.2c-0.4-0.2-0.6-0.4-0.7-0.6
	c-0.1-0.2-0.2-0.4-0.1-0.7c0-0.3,0.2-0.4,0.4-0.5c0.2-0.1,0.7-0.1,1.5-0.1c1,0,1.5-0.1,1.6-0.2c0.1-0.2-0.1-0.5-0.7-1.1
	c-0.5-0.5-0.9-0.8-1-0.8c-0.1,0-0.4,0.2-0.7,0.7c-0.2,0.4-0.4,0.6-0.6,0.6c-0.2,0-0.3-0.1-0.4-0.3c0-0.1-0.1-0.7-0.1-1.7
	c0-1,0-1.6,0-1.8c0.1-0.3,0.4-0.5,0.9-0.7c0.5-0.2,1.1-0.3,1.6-0.3c0.6,0,0.9,0,0.9-0.2c0,0-0.4-0.4-1.2-1c-0.8-0.7-1.2-1-1.2-1
	c-0.1,0-0.2,0-0.3,0.1c-0.6,0.4-1.4,1-2.5,1.6c-1.1,0.6-2.1,1.1-3,1.4c-0.4,0.2-0.7,0.3-0.7,0.3c-0.1,0-0.1,0.1-0.1,0.2
	c0,0.2,0.8,0.1,2.3-0.2c0.4-0.1,0.7-0.1,0.8-0.1c0.2,0,0.3,0.2,0.3,0.5c0,0.2,0,0.7,0,1.4c0,0.7-0.1,1.2-0.2,1.4
	c-0.1,0.3-0.5,0.4-0.9,0.5c-0.4,0-1.1,0-2.3-0.2c-0.1,0-0.2,0-0.2,0c0,0.1,0.1,0.2,0.2,0.6c0,0,0,0,0,0.1c0.1,0.2,0.2,0.4,0.3,0.4
	c0.1,0,0.3,0,0.7-0.1h0c0.5-0.1,1-0.1,1.3-0.1c0.4,0,0.6,0.1,0.6,0.3c0.1,0.4-0.2,1.6-0.9,3.5c-0.7,1.9-1.4,3.4-2,4.4
	c0,0,0,0.1-0.1,0.1c-0.2,0.3-0.3,0.5-0.3,0.6c0,0,0,0.1,0,0.2c0.1,0.1,0.1,0.1,0.2,0.1c0.1,0,0.4-0.3,1-1c0.6-0.7,1.1-1.3,1.6-1.9
	c0.3-0.4,0.4-0.6,0.6-0.6c0.1-0.1,0.2,0,0.3,0.2c0.1,0.2,0.1,1,0,2.5c0,1.5-0.1,3-0.1,4.4c0,0.6,0,0.9,0,1
	C191.7,46.2,191.8,46.3,191.9,46.3z M205.6,31.7c-0.1,0.1-1,0.1-2.7,0.1c-1.7,0-2.6-0.1-2.7-0.1c-0.1-0.1-0.2-0.2-0.2-0.5
	c0-0.2,0-0.9,0-1.9c0-0.2,0-0.4,0-0.7c0-0.7,0-1.1,0-1.3c0.1-0.2,0.3-0.4,0.6-0.5c0.2,0,0.7-0.1,1.5,0c0.4,0,0.7,0,0.9,0
	c0.2,0,0.6,0,1,0c0.8,0,1.2,0,1.4,0c0.3,0,0.5,0.2,0.5,0.4c0,0.2,0.1,0.6,0,1.2c0,0.3,0,0.6,0,0.8c0,1.1,0,1.8,0,2
	C205.8,31.5,205.8,31.6,205.6,31.7z M225.8,46.4c0.2,0.1,0.6,0.1,1,0c0.5-0.1,0.9-0.3,1.2-0.6l0,0c0.1-0.1,0.1-0.2,0.1-0.3
	c0-0.2,0-0.7,0-1.6c0-0.5,0-0.8,0-1.1c0-1,0-2.1,0-3.3c0-1.2,0-1.8,0.1-1.9c0.1-0.1,0.2-0.2,0.5-0.2c0.2,0,1,0,2.4,0
	c0.1,0,0.3,0,0.5,0c0.9,0,1.5,0,1.7,0c0.3,0,0.5,0.1,0.6,0.2c0,0.1,0.1,0.3,0,0.6c0,0.1,0,0.1,0,0.2c0,0.5,0,0.7,0.1,0.8
	c0.1,0.1,0.4,0.1,0.9,0c0.7-0.1,1.1-0.3,1.2-0.5c0.1-0.2,0.2-0.7,0.1-1.6c-0.1-2.6-0.1-4.4-0.1-5.2c0-0.8,0.2-1.3,0.4-1.4
	c0,0,0,0,0.1,0c0.3-0.2,0.4-0.3,0.4-0.4c0-0.1-0.3-0.5-1-1c-0.7-0.5-1.1-0.8-1.3-0.8c-0.1,0-0.3,0.2-0.7,0.7c0,0,0,0.1-0.1,0.1
	c-0.2,0.2-0.4,0.4-0.6,0.4c-0.2,0-0.8,0-1.9,0c-0.2,0-0.4,0-0.6,0c-0.2,0-0.5,0-0.8,0c-0.8,0-1.3,0-1.5,0c-0.3,0-0.5-0.2-0.6-0.4
	c0-0.1-0.1-0.5,0-1c0-0.2,0-0.4,0-0.5c0-0.8,0-1.4,0-1.5c0-0.2,0.1-0.3,0.3-0.5c0.2-0.2,0.2-0.4-0.1-0.5c-0.2-0.1-0.9-0.4-2-0.6
	c-0.4-0.1-0.7-0.2-0.8-0.1c-0.1,0-0.1,0.1-0.1,0.3c0.1,0.7,0.2,1.6,0.2,2.7c0,1.1,0,1.7,0,1.9l0,0c-0.1,0.1-0.2,0.2-0.5,0.3
	c-0.2,0-1,0-2.4,0c-0.2,0-0.4,0-0.7,0c-1,0-1.6,0-1.8,0c-0.3,0-0.7-0.2-1.2-0.4c-0.2-0.1-0.3-0.1-0.4-0.2c-0.1,0-0.1-0.1-0.2-0.1
	c-0.5-0.2-0.8-0.3-0.8-0.3c-0.1,0-0.1,0.2,0,0.5c0,0.1,0,0.1,0,0.1c0.1,1.1,0.2,2.6,0.2,4.5c0,1.8,0,3.5-0.1,4.9c0,0.5,0,0.9,0.1,1
	c0.1,0.1,0.4,0.1,0.9,0c0.5-0.1,0.9-0.3,1.1-0.4c0.2-0.2,0.3-0.5,0.3-0.8c0,0,0-0.1,0-0.2c0-0.3,0-0.5,0.1-0.6
	c0.1-0.1,0.3-0.2,0.6-0.2c0.2,0,0.8,0,1.7,0c0.2,0,0.4,0,0.6,0c1.3,0,2.1,0,2.4,0c0.2,0,0.4,0.1,0.5,0.3c0.1,0.1,0.1,1.1,0.1,2.7
	c0,1.7-0.1,3.2-0.1,4.5c0,0.7-0.1,1.2,0,1.3C225.5,46.2,225.6,46.3,225.8,46.4z M222.8,36.5c-1.6,0-2.5,0-2.6-0.1
	c-0.1-0.1-0.2-0.2-0.3-0.5c0-0.3,0-1.2,0-2.6c0-0.3,0-0.6,0-1c0-0.8,0-1.3,0-1.6c0.1-0.3,0.2-0.5,0.5-0.6c0.2,0,0.7-0.1,1.4,0
	c0.4,0,0.7,0,0.9,0s0.6,0,0.9,0c0.7,0,1.2,0,1.4,0c0.3,0.1,0.4,0.3,0.5,0.6c0,0.2,0.1,0.7,0,1.6c0,0.4,0,0.8,0,1c0,1.5,0,2.3,0,2.6
	c0,0.3-0.1,0.4-0.3,0.5C225.2,36.4,224.4,36.5,222.8,36.5z M233.5,36.4c-0.1,0.1-1,0.1-2.6,0.1c-1.6,0-2.4,0-2.6-0.1
	c-0.2-0.1-0.3-0.2-0.3-0.5c0-0.3,0-1.1,0-2.6c0-0.3,0-0.6,0-1c0-0.8,0-1.3,0-1.6c0.1-0.3,0.2-0.5,0.5-0.6c0.2,0,0.7-0.1,1.4,0
	c0.4,0,0.7,0,0.9,0s0.6,0,0.9,0c0.8,0,1.2,0,1.4,0c0.3,0.1,0.4,0.3,0.5,0.6c0,0.2,0.1,0.7,0,1.6c0,0.4,0,0.8,0,1c0,1.5,0,2.4,0,2.6
	C233.8,36.1,233.7,36.3,233.5,36.4z M245.3,46.3c0.1,0.1,0.2,0,0.3-0.3c0-0.1,0.2-0.3,0.3-0.5c0.2-0.2,0.4-0.5,0.7-0.8
	c0.5-0.6,0.9-1.1,1-1.3c0.4-0.5,0.7-0.8,0.8-0.8s0.4,0.3,0.8,0.8c0.5,0.7,1.1,1.2,1.8,1.6c0.7,0.4,1.6,0.6,2.7,0.8
	c0.8,0.1,2.7,0.2,5.8,0.1c3.1,0,4.6-0.1,4.7-0.2c0.2-0.8,0.6-1.3,1.1-1.6c0.3-0.2,0.4-0.3,0.2-0.3c-0.2,0-0.7-0.1-1.6,0
	c-1.4,0-3.5,0-6.3,0c-2.8,0-4.4,0-4.7-0.1c-0.9-0.1-1.6-0.3-2.2-0.5c-0.5-0.2-1-0.4-1.5-0.8c0,0,0,0-0.1-0.1
	c-0.3-0.2-0.4-0.4-0.5-0.6c0-0.2-0.1-0.8-0.1-1.8c0-0.1,0-0.2,0-0.2c0-0.1,0-0.2,0-0.3c0-1,0-1.6,0-1.8c0-0.2,0.2-0.4,0.5-0.5
	c0,0,0.1,0,0.1,0c0.4-0.2,0.5-0.4,0.4-0.6c-0.1-0.2-0.5-0.6-1.2-1.1c-0.5-0.4-0.9-0.6-1-0.6c-0.1,0-0.4,0.2-0.7,0.7
	c-0.3,0.4-0.5,0.6-0.8,0.7c-0.3,0.1-0.9,0-1.8-0.1c-0.2,0-0.2,0-0.2,0c0,0,0.1,0.2,0.2,0.5l0,0c0.1,0.3,0.2,0.4,0.2,0.5
	c0.1,0,0.2,0,0.4,0l0.1,0c0.6-0.2,1-0.2,1.2-0.2c0.3,0,0.4,0.3,0.5,0.7c0,0.3,0.1,1,0.1,2.1c0,0.2,0,0.4,0,0.7c0,0.8,0,1.3,0,1.5
	c0,0.3-0.1,0.5-0.3,0.7c-0.1,0.1-0.4,0.3-0.9,0.5c-0.2,0.1-0.3,0.1-0.4,0.2c-0.1,0-0.2,0.1-0.3,0.1c-0.4,0.2-0.5,0.3-0.6,0.4
	c0,0.1,0.1,0.4,0.3,0.8c0.1,0.2,0.1,0.3,0.2,0.4C245,45.8,245.2,46.2,245.3,46.3z M251.9,42.9c0.4,0.2,0.8,0.2,1.3,0
	c0.5-0.2,0.7-0.5,0.7-0.8c0-0.4,0.2-0.6,0.4-0.7c0.1,0,0.4-0.1,0.9-0.1c0.5,0,2,0,4.5,0c2.7,0,4.3,0,4.8,0c0.5,0,0.7-0.1,0.8-0.2
	c0.1-0.3-0.4-0.8-1.5-1.6c0,0,0,0-0.1,0c-0.4-0.3-0.6-0.4-0.7-0.4s-0.3,0.2-0.6,0.6c0,0,0,0-0.1,0.1c-0.3,0.4-0.6,0.7-0.7,0.8
	c-0.1,0.1-0.5,0.1-1,0.1c-0.1,0-0.1,0-0.2,0h0c-0.6,0-1-0.1-1.1-0.2c-0.1-0.1-0.1-0.6-0.1-1.5c0,0,0-0.1,0-0.1c0-0.1,0-0.2,0-0.3
	c0-0.4,0-0.7,0.1-0.8c0.1-0.2,0.2-0.3,0.5-0.3c0.2,0,0.7,0,1.5,0c0.2,0,0.4,0,0.6,0c1.1,0,1.8-0.1,2.1-0.1c0.4-0.1,0.5-0.2,0.3-0.5
	c-0.1-0.2-0.6-0.6-1.3-1.2c-0.4-0.3-0.6-0.4-0.7-0.4c-0.1,0-0.3,0.1-0.5,0.4c0,0-0.1,0.1-0.1,0.1c-0.2,0.2-0.3,0.4-0.3,0.5
	c-0.2,0.2-0.3,0.3-0.5,0.4c-0.1,0-0.4,0.1-0.7,0.1c-0.5,0-0.8-0.1-0.9-0.2c-0.1-0.2-0.1-0.6-0.1-1.4c0-0.1,0-0.2,0-0.4
	c0-0.5,0-0.8,0.1-0.9c0.1-0.2,0.2-0.3,0.5-0.3c0.2,0,0.7,0,1.4,0c0.2,0,0.4,0,0.6,0c0.9,0,1.5,0,1.8,0c0.4,0,0.6-0.1,0.7-0.1
	c0.1,0,0.1-0.1,0.1-0.3c0-0.1-0.2-0.4-0.7-0.8s-0.8-0.7-1.1-0.9c-0.2-0.1-0.3-0.1-0.4,0c-0.1,0-0.3,0.3-0.6,0.6
	c-0.3,0.4-0.5,0.7-0.6,0.7c-0.1,0.1-0.4,0.1-0.8,0.1c-0.5,0-0.7-0.1-0.8-0.3c-0.1-0.2-0.1-0.6-0.1-1.5c0-0.1,0-0.2,0-0.3
	c0-0.4,0-0.7,0.1-0.8c0.1-0.2,0.3-0.3,0.6-0.3c0.2,0,0.8,0,1.6,0c0.3,0,0.5,0,0.6,0c1.2,0,2,0,2.3-0.1c0.4-0.1,0.6-0.2,0.5-0.4
	c-0.1-0.2-0.5-0.5-1.1-1.1c-0.6-0.5-0.9-0.7-1.1-0.7c-0.2,0-0.4,0.2-0.8,0.7c-0.3,0.4-0.6,0.7-0.7,0.8c-0.2,0.1-0.6,0.1-1.3,0.1
	c-0.9,0-1.4-0.1-1.6-0.2c-0.1-0.1,0-0.4,0.4-0.8c0,0,0,0,0.1-0.1c0.4-0.4,0.7-0.8,0.9-1c0,0,0-0.1,0.1-0.1c0.3-0.4,0.6-0.6,0.6-0.7
	c0.1-0.1,0.2-0.2,0.4-0.2c0.2-0.1,0.2-0.2-0.1-0.4c-0.3-0.2-1-0.4-2-0.8l0,0c-0.4-0.1-0.7-0.2-0.8-0.2c-0.1,0-0.1,0.1-0.1,0.4
	c0,0.8-0.1,1.8-0.3,3.1c-0.1,0.5-0.2,0.8-0.4,0.9s-0.6,0.1-1.4,0.1c-0.9,0-1.4-0.1-1.5-0.2s0-0.5,0.4-1.1c0.1-0.2,0.2-0.4,0.4-0.8
	c0.1-0.1,0.1-0.2,0.1-0.3c0.3-0.6,0.6-0.9,0.8-1c0.3-0.1,0.3-0.2,0-0.4c-0.2-0.2-0.8-0.4-1.8-0.8c0,0-0.1,0-0.1,0
	c-0.5-0.2-0.7-0.3-0.8-0.3c-0.1,0-0.1,0.1-0.2,0.3v0c-0.2,1.2-0.6,2.6-1.3,4.2c-0.6,1.5-1.3,2.9-2.2,4.2c-0.2,0.3-0.3,0.5-0.4,0.6
	s0,0.2,0,0.2c0.1,0,0.4-0.2,1-0.7c0.5-0.5,0.9-0.7,1-0.8c0.1-0.1,0.3-0.1,0.4,0c0.1,0.1,0.1,1.3,0.1,3.5c0,2.2-0.1,4.1-0.2,5.8
	c0,0.7-0.1,1.1,0,1.2C251.6,42.8,251.7,42.8,251.9,42.9z M255.4,40.5c-0.8,0-1.2-0.1-1.3-0.2c-0.1-0.1-0.2-0.6-0.2-1.4
	c0-0.1,0-0.1,0-0.2v0c0-0.7,0.1-1.2,0.2-1.3c0.1-0.1,0.6-0.2,1.3-0.2c0.1,0,0.1,0,0.1,0s0.1,0,0.1,0c0.7,0,1.2,0.1,1.3,0.2
	c0.1,0.1,0.2,0.6,0.2,1.3c0,0.1,0,0.1,0,0.1c0,0.6,0,1,0,1.2c0,0.2-0.1,0.3-0.2,0.3c-0.1,0-0.6,0.1-1.3,0.1
	C255.5,40.5,255.5,40.5,255.4,40.5z M256.9,36.5c-0.1,0.1-0.6,0.1-1.4,0.1c-0.8,0-1.2-0.1-1.3-0.1c-0.2-0.1-0.3-0.6-0.3-1.4
	c0-0.8,0.1-1.4,0.2-1.5c0.1-0.1,0.5-0.1,1.3-0.1c0.8,0,1.3,0,1.4,0.1c0.2,0.1,0.3,0.6,0.3,1.5C257.2,35.9,257.1,36.4,256.9,36.5z
	 M247.1,33.2c0.4,0.2,0.8,0.1,1.1-0.2c0.3-0.3,0.4-0.7,0.2-1.2c-0.1-0.5-0.5-1-1.1-1.3c-0.6-0.4-1.3-0.6-2.2-0.7
	c-0.5-0.1-0.8-0.1-0.8,0c-0.1,0.1,0,0.2,0.3,0.5c0.8,0.7,1.5,1.5,1.9,2.3C246.8,32.9,247,33.1,247.1,33.2z M255.6,32.7
	c-0.8,0-1.2,0-1.3,0c-0.2-0.1-0.3-0.2-0.3-0.4c0-0.2-0.1-0.7,0-1.3v0c0-0.7,0.1-1.1,0.2-1.2c0.1-0.1,0.6-0.2,1.4-0.2
	c0,0,0.1,0,0.1,0c0,0,0.1,0,0.1,0c0.7,0,1.2,0.1,1.3,0.2c0.1,0.1,0.2,0.5,0.2,1.3c0,0.1,0,0.1,0,0.1c0,0.6,0,1,0,1.1
	c0,0.2-0.1,0.3-0.2,0.4C256.8,32.7,256.4,32.7,255.6,32.7z M247.9,28.3c0.4,0.2,0.7,0.1,1-0.1c0.3-0.2,0.5-0.5,0.5-1
	c0-0.6-0.4-1.2-1.1-1.7c-0.7-0.5-1.6-0.8-2.6-0.8c-0.3,0-0.4,0-0.4,0.1c0,0.1,0.2,0.3,0.5,0.6c0.8,0.8,1.3,1.6,1.7,2.3
	C247.7,28.1,247.8,28.3,247.9,28.3z M275.6,46.4c0.4,0.1,1,0,1.7-0.4c0,0,0,0,0.1,0c0.2-0.1,0.3-0.2,0.3-0.3c0-0.1,0-0.4,0-1
	c0-0.1,0-0.3,0-0.4c-0.1-2.3-0.2-4.6-0.1-6.8c0-2.2,0.2-3.4,0.3-3.4c0.2-0.1,0.3-0.1,0.3-0.2c0-0.1,0-0.2-0.2-0.2
	c-0.2-0.1-0.3-0.2-0.3-0.4c0.1-0.2,0.4-0.6,0.8-1.2c0.6-0.8,1-1.1,1.2-1.1c0.4,0,0.4-0.1,0.1-0.4c-0.3-0.3-0.9-0.7-1.9-1.3l0,0
	c-0.3-0.2-0.5-0.3-0.5-0.3c-0.1,0-0.1,0.1-0.2,0.3l0,0c-0.4,1.2-1.1,2.6-2.1,4.1c-1,1.5-2,2.9-3.1,4.1c0,0,0,0.1-0.1,0.1
	c-0.1,0.2-0.2,0.3-0.2,0.3c0,0,0,0.1,0.1,0.1c0.1,0.1,0.8-0.3,2.1-1.3c0.5-0.4,0.8-0.7,0.9-0.7c0.1-0.1,0.2-0.1,0.4-0.1
	c0.1,0.1,0.2,1,0.2,2.9c0,1.9,0,3.8-0.2,5.9c0,0.6-0.1,1-0.1,1.2c0,0.1,0,0.2,0.1,0.3C275.4,46.4,275.5,46.4,275.6,46.4z
	 M285.8,46.2c0,0,0.3,0,0.6,0c0.8-0.1,1.4-0.3,1.8-0.6c0.4-0.3,0.7-0.7,0.8-1.2c0.1-0.3,0.1-2.2,0.1-5.8c0,0,0-0.1,0-0.2
	c0-2.5,0-4.1,0-4.5c0-0.5,0-0.8,0.1-0.9c0.1-0.1,0.2-0.2,0.3-0.2c0.2,0,0.7,0,1.7,0s1.5,0,1.7,0c0.2,0,0.3-0.1,0.4-0.2
	c0-0.1-0.1-0.3-0.4-0.6c-0.3-0.4-0.7-0.7-1.2-1.1c-0.3-0.3-0.6-0.4-0.7-0.3s-0.3,0.2-0.6,0.6c-0.4,0.5-0.6,0.8-0.8,0.9
	c-0.1,0.1-1.6,0.1-4.3,0.1s-4.4,0-5-0.1c-0.4,0-0.6,0-0.6,0c0,0,0,0.2,0.2,0.5c0,0,0,0,0,0.1c0.1,0.2,0.2,0.4,0.3,0.4
	c0.1,0,0.3,0,0.6,0c0.1,0,0.2,0,0.2,0c1-0.1,2.1-0.2,3.5-0.2c1.4,0,2.1,0,2.2,0.1s0.2,0.4,0.2,0.9c0,0.4,0,2,0,4.6c0,0.4,0,1,0,1.7
	c0,1.5,0,2.4-0.1,2.8c-0.1,0.5-0.3,0.8-0.6,0.9c-0.2,0.1-0.8,0.1-1.7,0c-0.4,0-0.8-0.1-1.1-0.1c-0.6,0-1-0.1-1,0
	c-0.2,0.1,0,0.2,0.6,0.4c0.9,0.2,1.5,0.4,1.9,0.7c0.4,0.3,0.7,0.8,0.7,1.3C285.8,46.1,285.8,46.2,285.8,46.2z M272.2,31.2
	c0.2,0.2,1-0.3,2.4-1.2c1.4-1,2.7-2,3.7-3c0.3-0.3,0.6-0.6,0.7-0.7c0.1-0.1,0.3-0.2,0.5-0.2c0.4-0.1,0.3-0.3-0.3-0.6
	c-0.1-0.1-0.4-0.2-0.6-0.4c-0.5-0.3-0.8-0.5-1-0.7c-0.2-0.2-0.4-0.2-0.5-0.2c-0.1,0-0.1,0-0.2,0.2c-0.7,1.8-2.2,3.8-4.2,6
	c-0.3,0.3-0.5,0.5-0.6,0.6S272.1,31.1,272.2,31.2z M281.6,27.5c0.1,0,0.2,0,0.5,0c0.6-0.1,1.2-0.2,1.8-0.2c0.6,0,2,0,4.1,0
	c2.2,0,3.5,0,3.9,0s0.6-0.1,0.7-0.2c0.1-0.2-0.3-0.7-1.2-1.4l0,0c-0.4-0.4-0.7-0.5-0.9-0.5c-0.1,0-0.3,0.2-0.6,0.6l0,0
	c0,0-0.1,0.1-0.1,0.2c-0.3,0.4-0.5,0.6-0.7,0.6c-0.2,0-0.9,0.1-2.1,0.1c-0.3,0-0.6,0-0.8,0c-2.1,0-3.7,0-4.6-0.1c-0.2,0-0.3,0-0.3,0
	c0,0,0.1,0.2,0.2,0.6l0,0C281.4,27.3,281.5,27.4,281.6,27.5z M312.4,46.4c0.2,0.1,0.6,0,0.9-0.1c0.4-0.1,0.7-0.3,0.9-0.5
	c0.1-0.1,0.2-0.2,0.2-0.3c0-0.1,0-0.4,0-0.9c-0.1-1.8-0.2-5.2-0.2-10.1c0-4.9,0-7.4,0.1-7.5c0.1-0.1,0.2-0.2,0.4-0.3
	c0.2,0,0.6,0,1.3,0c0.1,0,0.3,0,0.6,0c0.4,0,0.7,0,0.9,0.1c0.2,0.1,0.3,0.5,0.3,1.2c0,0.4,0,1.5,0,3.2c0,0.9,0,1.6,0,2.1
	c0,0.5,0,1.1,0,2c0,1.8,0,2.9,0,3.4c0,0.7-0.1,1.1-0.3,1.2c-0.1,0.1-0.3,0.1-0.7,0.1c-0.2,0-0.3,0-0.4,0c0,0,0,0-0.1,0
	c-0.8,0-1.2,0-1.2,0c-0.1,0.1,0.1,0.2,0.5,0.3c0.5,0.1,0.9,0.4,1.1,0.7s0.4,0.8,0.5,1.5c0,0.3,0.4,0.3,1.1,0.1
	c0.7-0.2,1.1-0.5,1.4-0.9c0,0,0,0,0.1-0.1c0.2-0.2,0.3-0.6,0.3-1.2c0-0.5,0.1-2.3,0.1-5.4c0-0.4,0-0.8,0-1.1c0-0.4,0-0.9,0-1.5
	c0-2,0-3.2,0-3.7c0-0.8,0.1-1.2,0.1-1.4c0-0.1,0.1-0.3,0.3-0.3c0.1,0,0.1-0.1,0.1-0.1c0.3-0.1,0.3-0.3,0.2-0.5
	c-0.1-0.2-0.5-0.5-1.1-1c-0.5-0.4-0.8-0.6-1-0.6c-0.1,0-0.4,0.2-0.7,0.5c-0.2,0.3-0.4,0.5-0.6,0.6c-0.2,0-0.6,0.1-1.3,0.1
	c-0.1,0-0.1,0-0.2,0c-0.1,0-0.2,0-0.3,0c-0.6,0-1,0-1.2,0c-0.2,0-0.6-0.2-1.2-0.5c-0.1-0.1-0.2-0.1-0.3-0.1
	c-0.7-0.4-1.1-0.5-1.2-0.5c0,0,0,0.3,0,0.9c0,0.2,0,0.4,0,0.6c0.1,0.5,0.1,3.1,0.1,7.6c0,5.2,0,8.9-0.1,10.8c0,0.7-0.1,1.1,0,1.3
	C312,46.2,312.2,46.3,312.4,46.4z M302.5,45.6c0.5,0.1,1.6,0.1,3.5,0c1.9,0,3-0.1,3.6-0.1c0.8-0.1,1.2-0.4,1.5-0.7
	c0.2-0.4,0.1-0.7-0.3-1.1c-0.2-0.2-0.3-0.3-0.3-0.5c0-0.2-0.1-0.5-0.1-1.1c0-0.7-0.1-1-0.2-1.1c-0.1,0-0.2,0.2-0.4,0.8
	c0,0.1,0,0.2-0.1,0.3c-0.2,0.6-0.3,0.9-0.5,1.1c-0.1,0.2-0.4,0.3-0.8,0.4c-0.3,0-0.9,0-1.9,0c-0.2,0-0.3,0-0.4,0c-0.1,0-0.3,0-0.6,0
	c-0.9,0-1.4,0-1.6,0c-0.3,0-0.5-0.1-0.6-0.3c0-0.1-0.1-0.4-0.1-0.9c0-0.1,0-0.2,0-0.3c0,0,0-0.1,0-0.1c0-0.6,0-1,0.1-1.1
	c0.1-0.1,0.5-0.3,1.1-0.4c0.1,0,0.1,0,0.2,0c1.3-0.3,2.6-0.7,3.8-1.1c0.8-0.3,1.2-0.4,1.4-0.4c0.2,0,0.3,0,0.3-0.1
	c0-0.1-0.2-0.4-0.7-1c-0.5-0.6-0.8-0.9-0.8-0.9s-0.4,0.2-1,0.6c-1.4,0.9-2.5,1.6-3.1,1.9c-0.7,0.3-1.1,0.4-1.2,0.2
	c-0.1-0.2-0.2-0.5-0.1-1c0-0.5,0.2-0.8,0.3-1c0.1-0.1,0.2-0.2,0-0.3c-0.1-0.1-0.4-0.2-0.9-0.4c-0.6-0.2-0.9-0.4-0.9-0.4
	c0-0.1,0.1-0.2,0.5-0.4c0.5-0.2,0.7-0.4,0.7-0.5c0-0.1,0.1-0.2,0.3-0.3c0.1,0,0.9-0.1,2.4,0c1.5,0,2.3,0,2.4,0.1
	c0.2,0.1,0.3,0.3,0.3,0.6c0,0.2,0.2,0.3,0.5,0.3c0.3,0,0.7-0.2,1.2-0.4l0,0c0.2-0.1,0.4-0.2,0.4-0.3c0-0.1,0-0.4,0-0.9
	c-0.2-4.1-0.1-6.3,0.4-6.6c0.2-0.1,0.3-0.3,0.3-0.4c0-0.1-0.2-0.4-0.6-0.7c-0.5-0.5-0.9-0.7-1.2-0.8c-0.2-0.1-0.4,0-0.6,0.2
	c-0.4,0.4-0.7,0.7-0.8,0.8c-0.2,0.1-0.6,0.1-1.2,0.1c-0.5,0-0.8,0-1,0c-0.1,0-0.2-0.1-0.3-0.2c0-0.1,0.2-0.4,0.6-0.8
	c0.4-0.4,0.8-0.7,1-0.8c0.1-0.1,0.3-0.2,0.4-0.2c0.3-0.2,0.4-0.3,0.3-0.4c-0.1-0.1-0.7-0.2-1.6-0.4c-0.1,0-0.3-0.1-0.6-0.1
	c-0.6-0.1-1-0.2-1.1-0.2c-0.1,0-0.2,0.2-0.2,0.5c0,0.1,0,0.2,0,0.2c-0.1,1-0.2,1.6-0.3,1.9c-0.1,0.3-0.3,0.5-0.5,0.5
	c-0.1,0-0.3,0-0.4,0c-0.1,0-0.5-0.2-1.2-0.5c0,0-0.1,0-0.1,0c-0.1,0-0.1,0-0.2-0.1c-0.5-0.2-0.8-0.3-0.8-0.3c-0.1,0-0.1,0.2,0,0.5
	c0,0,0,0.1,0,0.1c0.1,0.9,0.2,2.2,0.2,3.8c0,1.6,0,3.1-0.1,4.2c0,0.6,0,0.9,0,1.1c0,0.1,0.1,0.2,0.1,0.3c0.2,0.2,0.3,0.3,0.2,0.4
	c0,0-0.1,0.1-0.1,0.1c0,0.1,0,0.3,0,0.6v0c0,0.4,0.1,1.7,0.1,3.7c0,1.6,0,2.6,0,3c0,0.3,0.1,0.6,0.2,0.8
	C301.5,45.3,301.9,45.5,302.5,45.6z M305.6,34.7c-1.4,0-2.2,0-2.3-0.1c-0.2-0.1-0.3-0.2-0.3-0.3c0-0.2,0-0.5,0-1.2
	c0-0.1,0-0.2,0-0.3c0-0.4,0-0.7,0.1-0.9c0.1-0.2,0.2-0.3,0.6-0.3c0.2,0,0.7,0,1.5,0c0.2,0,0.4,0,0.5,0s0.3,0,0.5,0
	c0.8,0,1.3,0,1.5,0c0.3,0,0.5,0.1,0.6,0.3c0,0.1,0.1,0.4,0.1,0.9c0,0.1,0,0.3,0,0.3c0,0.6,0,1,0,1.2c0,0.2-0.1,0.3-0.3,0.3
	C307.8,34.7,307,34.7,305.6,34.7z M305.6,30.9c-1.5,0-2.3,0-2.4-0.1c-0.2-0.1-0.3-0.6-0.3-1.3s0.1-1.2,0.3-1.3
	c0.1-0.1,0.9-0.1,2.4-0.1c1.5,0,2.3,0,2.4,0.1c0.2,0.1,0.3,0.6,0.3,1.3s-0.1,1.2-0.3,1.3C307.8,30.9,307,30.9,305.6,30.9z
	 M40.7,70.4c0.4,0.1,0.8,0,1.1-0.3s0.4-0.7,0.3-1.1c-0.2-0.7-0.9-1.4-2.2-2c-1.2-0.6-2.8-1.1-4.9-1.4c-0.3,0-0.5-0.1-0.5-0.1
	c-0.1,0-0.1,0-0.1,0.1c-0.1,0.1-0.1,0.2,0,0.2c0.1,0,0.2,0.1,0.5,0.3c2,0.9,3.5,2.1,4.7,3.5C40,70.1,40.4,70.3,40.7,70.4z
	 M21.4,70.4c0,0,0.2,0,0.4,0c0.1,0,0.2-0.1,0.3-0.1c2.6-0.7,4.9-1.6,6.8-2.9c0.6-0.4,1-0.6,1.2-0.6c0.8,0,0.7-0.3-0.3-0.8
	c-1-0.5-1.6-0.9-1.6-1.2c0-0.1,0.1-0.2,0.3-0.2c0.3,0,0.9-0.1,1.9-0.1c0.7,0,2.5,0,5.2,0c3.6,0,5.7,0,6.3,0c0.6,0,1-0.1,1.1-0.2
	c0.1-0.2-0.2-0.7-1-1.5c-0.3-0.3-0.5-0.4-0.6-0.4c-0.1,0-0.2,0.1-0.4,0.3c-0.3,0.4-0.4,0.5-0.5,0.5c-0.1-0.1-0.1-0.5-0.1-1.3
	c0-0.6,0-2,0-4.2c0-0.3,0-0.8,0-1.3c0-2,0.1-3.2,0.1-3.8c0-0.8,0.1-1.2,0.1-1.4c0-0.1,0.1-0.2,0.3-0.3c0,0,0.1,0,0.1,0
	c0.2-0.1,0.3-0.2,0.3-0.4c0-0.1-0.3-0.4-0.6-0.8c-0.5-0.5-0.9-0.8-1.1-0.9c-0.2,0-0.4,0.1-0.6,0.5c-0.2,0.3-0.4,0.5-0.5,0.6
	c-0.1,0.1-0.4,0.1-0.9,0.1c-0.4,0-0.6,0-0.7,0c-0.1,0.1-0.5-0.1-1.1-0.6l0,0c-0.3-0.2-0.4-0.3-0.5-0.3c-0.1,0-0.2,0.1-0.4,0.3
	c0,0,0,0-0.1,0.1c-0.2,0.2-0.4,0.4-0.6,0.4c-0.2,0-0.8,0.1-1.9,0.1c-0.1,0-0.2,0-0.3,0c-0.1,0-0.2,0-0.4,0c-1,0-1.7,0-1.9,0
	c-0.2,0-0.6-0.1-1-0.3c0,0-0.1,0-0.1,0c-0.5-0.2-0.8-0.3-0.9-0.3c-0.1,0.1-0.4-0.1-0.9-0.5c0,0-0.1-0.1-0.2-0.2
	c-0.2-0.2-0.3-0.3-0.4-0.3c0,0-0.2,0.1-0.3,0.4c0,0.1-0.1,0.1-0.1,0.2c-0.4,0.7-0.8,1.1-1,1.2c-0.2,0.1-0.6,0.1-1.1-0.1
	c-0.4-0.1-0.6-0.2-0.6-0.1c0,0,0,2.3,0.1,6.8c0,0.5,0,1.2,0,2.1c0,2,0.1,3.3,0,3.9c0,0.8-0.1,1.2-0.3,1.4c-0.1,0.1-0.5,0.1-1,0
	c-0.2,0-0.4-0.1-0.5-0.1c-0.3,0-0.4,0-0.5,0c0,0,0.1,0.2,0.2,0.5c0,0,0,0.1,0.1,0.1c0.1,0.2,0.2,0.3,0.3,0.3c0.1,0,0.3,0,0.8-0.1
	c0.1,0,0.2,0,0.2,0c0.8-0.1,1.7-0.2,2.9-0.2c1.2,0,1.8,0,1.9,0.1c0.3,0.2,0.1,0.6-0.5,1.3c-0.5,0.7-1.3,1.4-2.3,2.1
	c-1,0.8-2,1.4-3,1.9C21.4,70.1,21.3,70.2,21.4,70.4z M27.3,63.7c-0.2,0.1-0.5,0.1-1,0.1c-0.4,0-0.7-0.1-0.8-0.2
	c-0.2-0.2-0.2-0.8-0.3-1.8c0-1.1,0.1-1.7,0.2-1.8c0.1-0.1,0.4-0.1,0.9-0.1c0.6,0,0.9,0,1,0c0.2,0.1,0.3,0.8,0.3,2
	C27.7,63,27.6,63.6,27.3,63.7z M32,63.8c-1.4,0-2.2,0-2.3-0.1l0,0c-0.1-0.1-0.2-0.3-0.2-0.6c0-0.4,0-1.6,0-3.6c0-0.4,0-0.8,0-1
	c0-3.2,0-5,0.1-5.3c0-0.3,0-0.5,0-0.6c0-0.2-0.1-0.4-0.1-0.8c0-0.4,0-0.7,0-0.8c0.1-0.2,0.2-0.3,0.4-0.4c0.2,0,0.9,0,2.1,0
	c0,0,0.1,0,0.2,0c0.9,0,1.5,0,1.8,0c0.3,0,0.5,0.1,0.6,0.3c0.1,0.1,0.1,0.4,0,0.7c0,0,0,0.1,0,0.1c0,0.4-0.1,0.7-0.3,0.7
	c-0.2,0-0.4-0.1-0.6-0.4c-0.2-0.2-0.4-0.4-0.6-0.3c-0.1,0-0.3,0.1-0.5,0.4c-0.3,0.4-0.5,0.6-0.8,0.6c-0.3,0.1-0.8,0-1.7,0h0
	c-0.2,0-0.3,0-0.4,0c0,0,0,0.2,0.2,0.4l0,0c0,0,0,0,0,0.1c0.1,0.3,0.2,0.4,0.3,0.4c0.1,0,0.2,0,0.5,0c0,0,0.1,0,0.1,0
	c0.5-0.1,1.2-0.2,2-0.2c0.8,0,1.3,0,1.5,0c0.1,0.1,0.2,0.3,0.2,0.7c0,0.4,0,1.9,0,4.4c0,0.2,0,0.5,0,0.9c0,2.1,0,3.3,0,3.6
	c0,0.4-0.1,0.6-0.2,0.6l0,0C34.1,63.8,33.4,63.8,32,63.8z M38.2,63.7c-0.1,0.1-0.4,0.1-0.8,0.1c-0.4,0-0.7,0-0.8-0.1
	c-0.2-0.1-0.3-0.2-0.3-0.4s0-0.8,0-1.9c0-0.7,0-1.4,0-2.2c0-1.4,0-2.8,0-4.2c0-0.2,0-0.6,0-1c0-1.3,0-2.2,0-2.5
	c0-0.5,0.1-0.8,0.2-0.9c0.1-0.1,0.3-0.1,0.6-0.1c0.1,0,0.2,0,0.2,0c0,0,0.1,0,0.2,0c0.5,0,0.8,0.1,0.9,0.2c0.1,0.1,0.1,0.6,0.1,1.4
	c0,0.1,0,0.2,0,0.3c0,0.8,0,1.3-0.1,1.5c-0.1,0.3-0.2,0.5-0.4,0.5c-0.2,0-0.5,0-1.1-0.1c-0.3,0-0.4,0-0.4,0c0,0,0,0.2,0.2,0.5l0,0
	c0.1,0.3,0.2,0.4,0.2,0.4c0,0,0.1,0,0.2,0l0,0c0.5-0.2,0.9-0.2,1,0c0.1,0.2,0.2,0.8,0.2,1.9c0,0.8,0,1.3-0.1,1.5
	c-0.1,0.3-0.2,0.4-0.4,0.5c-0.2,0-0.5,0-1.1-0.1c-0.2,0-0.4,0-0.4,0c0,0,0,0.2,0.2,0.5c0.1,0.3,0.2,0.4,0.3,0.5c0.1,0,0.2,0,0.3,0
	c0.5-0.2,0.8-0.2,1,0c0.1,0.2,0.2,0.8,0.2,1.8c0,0.9,0,1.4-0.1,1.6C38.4,63.5,38.3,63.7,38.2,63.7z M30.2,62c0,0.1,0.2,0.1,0.5,0
	c0.3-0.1,0.5-0.2,0.6-0.3c0-0.1,0-0.2,0-0.3c0-0.4,0.1-0.7,0.4-0.8c0.2-0.1,0.3,0,0.5,0.1c0.1,0.1,0.2,0.3,0.2,0.5
	c0,0.2,0,0.3,0.1,0.4c0.1,0,0.3,0,0.5-0.1c0,0,0.1,0,0.1,0c0.2,0,0.3-0.2,0.4-0.3c0-0.2,0.1-0.8,0.1-1.8c0-0.2,0-0.4,0-0.6
	c0-1.3,0-2.1,0.1-2.4c0-0.3,0.1-0.4,0.2-0.5c0.3-0.1,0.1-0.4-0.6-0.9c-0.2-0.2-0.3-0.2-0.4-0.2c-0.1,0-0.2,0-0.3,0.2
	c-0.3,0.3-0.6,0.4-0.8,0.4c-0.3,0-0.7-0.2-1.2-0.4c0,0-0.1,0-0.2-0.1c-0.2-0.1-0.4-0.1-0.4-0.1c0,0,0,0.3,0,0.7c0,0.1,0,0.2,0,0.3
	c0.1,1,0.1,2.2,0.1,3.6c0,0.6,0,1.3,0,2.2V62z M32.2,59.8c-0.1,0.1-0.3,0.1-0.4,0c-0.1,0-0.2-0.1-0.3-0.3c0-0.1-0.1-0.6-0.1-1.5
	c0-0.9,0-1.5,0-1.7c0.1-0.2,0.2-0.3,0.4-0.4c0.2-0.1,0.3,0,0.5,0.1c0.2,0.2,0.2,0.8,0.2,1.9C32.5,59.1,32.4,59.7,32.2,59.8z
	 M26.1,58.2c-0.3,0.5-0.5,0.7-0.6,0.6c-0.2-0.1-0.2-0.4-0.3-0.9c0-1-0.1-1.6,0-1.9c0-0.4,0.1-0.6,0.3-0.7c0.1-0.1,0.4-0.1,0.9-0.1
	c0.5,0,0.8,0,0.9,0c0.1,0,0.2,0.1,0.3,0.3c0.1,0.1,0.1,0.7,0.1,1.6c0,0.9,0,1.5-0.1,1.6c-0.1,0.1-0.2,0.2-0.4,0.1
	c-0.2,0-0.3-0.2-0.4-0.3C26.6,57.9,26.3,57.8,26.1,58.2z M25.7,54c-0.2,0.2-0.4,0.2-0.5,0c-0.1-0.2-0.1-0.8-0.1-1.7c0,0,0-0.1,0-0.2
	c0-0.7,0-1.1,0.1-1.2s0.4-0.3,0.8-0.5c0.1,0,0.1-0.1,0.2-0.1l0,0c0.5-0.2,0.8-0.3,1-0.3c0.2,0,0.3,0.1,0.4,0.4c0,0.2,0,0.7,0,1.5
	c0,0,0,0.1,0,0.1c0,0.8,0,1.3,0,1.5c0,0.3-0.1,0.4-0.3,0.4c-0.1,0-0.3-0.2-0.6-0.5l0,0c-0.2-0.2-0.3-0.3-0.4-0.3
	c0,0-0.1,0.1-0.2,0.2c0,0,0,0.1,0,0.1C25.9,53.8,25.8,53.9,25.7,54z M51.6,70.4c0.8,0.2,1.4-0.2,1.6-1.1c0.3-0.9,0.2-2-0.3-3.6
	c-0.2-0.7-0.3-1.2-0.3-1.5c0-0.5,0.1-1.2,0.4-2.1c0.2-0.7,0.6-2.2,1.3-4.5c0.4-1.3,0.6-2,0.6-2.2c0-0.2,0-0.3-0.1-0.3
	c-0.1,0-0.2,0.1-0.3,0.3c-0.1,0.2-0.5,1-1,2.2c-0.1,0.3-0.2,0.5-0.3,0.6c-0.1,0.1-0.2,0.4-0.3,0.6c-0.8,1.7-1.3,2.7-1.5,3.2
	c-0.3,0.6-0.6,1-0.7,1.2c-0.1,0.1-0.3,0.2-0.6,0.2c0,0-0.1,0-0.1,0c-0.3,0-0.4,0-0.5,0.1c-0.1,0.1-0.1,0.2,0,0.3
	c0,0.1,0.1,0.1,0.3,0.2c0.6,0.1,1,0.5,1.2,1.3c0.2,0.8,0.2,1.9,0,3.4C50.8,69.6,51,70.2,51.6,70.4z M68.7,70.4
	c0.4,0.1,0.8,0.1,1.1-0.1c0.4-0.2,0.6-0.5,0.6-0.9c0-0.9-1-1.7-2.9-2.3c-0.8-0.3-1.6-0.5-2.2-0.6c-0.6-0.1-1-0.1-1.2,0
	c-0.2,0.1,0,0.2,0.4,0.5c1.4,0.8,2.6,1.8,3.5,2.9C68.2,70.1,68.5,70.3,68.7,70.4z M54,70.4c0.1,0.1,0.1,0.1,0.2,0c0,0,0.2,0,0.5-0.1
	c2.1-0.4,4.1-1.2,5.9-2.2c0.6-0.3,1-0.5,1.3-0.5c0.6,0,0.4-0.3-0.5-0.8c-0.4-0.3-0.8-0.5-1.1-0.7c0,0-0.1,0-0.1-0.1
	c-0.3-0.2-0.5-0.3-0.6-0.3c0,0-0.1,0-0.1,0.1c-0.4,0.7-1,1.4-1.9,2.2c-0.9,0.8-1.8,1.4-2.7,1.8c-0.4,0.2-0.6,0.3-0.7,0.3
	C53.9,70.2,53.9,70.3,54,70.4z M56.7,66.3c0.3,0.1,0.7,0.1,1.1-0.1c0.4-0.2,0.7-0.4,0.7-0.6s0-0.4,0.1-0.4c0.1-0.1,0.5-0.1,1.1-0.1
	c0.4,0,1.4,0,2.9,0c0.1,0,0.2,0,0.4,0c1.4,0,2.2,0,2.6,0c0.5,0,0.8,0.1,0.9,0.2c0.1,0.1,0.1,0.2,0.1,0.5v0c0,0.2,0.1,0.3,0.4,0.3
	c0.3,0,0.6,0,1-0.2c0,0,0,0,0.1,0c0.4-0.1,0.6-0.3,0.6-0.4c0.1-0.1,0.1-0.5,0-1.2c0-0.1,0-0.2,0-0.2c-0.1-2.4-0.1-4-0.1-4.7
	c0-0.7,0.2-1.2,0.5-1.3c0.3-0.1,0.4-0.3,0.2-0.6c-0.1-0.3-0.5-0.6-1.1-1.1c-0.3-0.3-0.6-0.4-0.7-0.4c-0.1,0-0.3,0.2-0.5,0.4
	c-0.3,0.4-0.5,0.7-0.7,0.8c-0.2,0.1-0.6,0.1-1.3,0.1c-0.8,0-1.2,0-1.4-0.1c-0.1-0.1-0.2-0.4-0.2-0.8c0,0,0-0.1,0-0.2
	c0-0.4,0-0.6,0-0.7c0.1-0.1,0.3-0.2,0.6-0.3c0.2,0,0.8,0,1.8,0c0.1,0,0.2,0,0.3,0c1,0,1.7,0,2,0c0.4,0,0.6-0.1,0.7-0.2
	c0-0.1-0.1-0.2-0.3-0.4c-0.3-0.3-0.5-0.5-0.4-0.7c0-0.2,0.3-0.4,0.9-0.8c0.7-0.4,1.1-0.6,1.2-0.6c0.4,0,0.5-0.1,0.5-0.3
	c0-0.2-0.3-0.6-0.8-1.1c-0.5-0.5-0.9-0.8-1.1-0.9c-0.2,0-0.4,0.1-0.7,0.4c0,0,0,0-0.1,0.1c-0.3,0.3-0.5,0.5-0.7,0.6
	c-0.2,0-0.6,0.1-1.4,0.1c-0.1,0-0.2,0-0.3,0c-0.8,0-1.3,0-1.5,0c-0.3,0-0.5-0.1-0.6-0.2c0-0.1-0.1-0.3-0.1-0.6
	c0-0.5,0.1-0.9,0.4-1.1c0.2-0.1,0.2-0.3-0.1-0.4c-0.3-0.2-0.9-0.4-1.8-0.6c0,0-0.1,0-0.1,0c-0.4-0.1-0.6-0.1-0.6-0.1
	c0,0-0.1,0.2,0,0.4v0c0.1,0.9,0.2,1.6,0.1,1.8c0,0.4-0.2,0.6-0.5,0.7c-0.2,0.1-0.7,0.1-1.5,0.1c0,0-0.1,0-0.1,0
	c-0.9,0-1.4,0-1.6-0.1c-0.2-0.1-0.3-0.4-0.4-0.8l0-0.1c-0.1-0.3-0.2-0.5-0.3-0.6c-0.1-0.1-0.2-0.1-0.2,0.1c-0.1,0.7-0.3,1.2-0.5,1.6
	c-0.2,0.4-0.4,0.7-0.8,1.1c-0.4,0.4-0.6,0.8-0.7,1.2c-0.1,0.4,0,0.7,0.2,0.9c0.2,0.2,0.6,0.3,1,0.2c0.4-0.1,0.7,0.1,0.9,0.5l0,0
	c0,0.1,0.1,0.2,0.1,0.2c0.1,0,0.2,0,0.6-0.1c0.1,0,0.2,0,0.2,0c0.5-0.1,1.2-0.2,1.9-0.2c0.7,0,1.1,0,1.2,0.1
	c0.1,0.1,0.2,0.4,0.2,0.8c0,0.4,0,0.8-0.1,0.9c-0.2,0.3-0.6,0.4-1.4,0.3c-0.8,0-1.6-0.2-2.4-0.6c-0.1,0-0.2-0.1-0.3-0.1
	c-0.5-0.2-0.8-0.3-0.9-0.3c-0.1,0-0.1,0.2-0.1,0.5c0,0.1,0,0.1,0,0.2c0.1,0.9,0.2,2.2,0.2,3.7c0,1.6,0,3-0.1,4.1c0,0.6,0,1,0,1.2
	C56.5,66.2,56.6,66.3,56.7,66.3z M61.2,64.3c-0.3,0.1-0.7,0.2-1.4,0.1c-0.7-0.1-1-0.2-1.1-0.4c-0.1-0.1-0.1-0.5-0.1-1.2
	c0-0.7,0-1.1,0.1-1.2c0.1-0.2,0.6-0.4,1.3-0.4c0.8,0,1.2,0.1,1.4,0.4c0.1,0.2,0.2,0.7,0.1,1.4C61.5,63.8,61.3,64.2,61.2,64.3z
	 M65,64.4c-0.7,0-1.1-0.1-1.3-0.2c-0.1-0.1-0.2-0.5-0.2-1.2c0,0,0-0.1,0-0.1v0c0-0.7,0.1-1.1,0.2-1.2c0.1-0.1,0.6-0.2,1.3-0.2
	c0,0,0.1,0,0.1,0c0,0,0,0,0.1,0c0.8,0,1.2,0.1,1.3,0.2c0.1,0.1,0.2,0.5,0.2,1.2v0.1c0,0.6,0,1,0,1.1c0,0.1-0.1,0.2-0.3,0.3
	c-0.1,0-0.5,0.1-1.2,0.1C65.1,64.4,65.1,64.4,65,64.4z M60,60.7c-0.7,0-1.1,0-1.2-0.1c-0.2-0.1-0.3-0.5-0.3-1.2
	c0-0.7,0.1-1.1,0.3-1.2C59,58,59.4,58,60,58c0.7,0,1.1,0.1,1.2,0.1c0.2,0.1,0.3,0.5,0.3,1.2c0,0.7-0.1,1.1-0.3,1.2
	C61.1,60.7,60.7,60.7,60,60.7z M65.1,60.7c-0.8,0-1.3-0.1-1.4-0.2c-0.1-0.1-0.2-0.5-0.2-1.2c0-0.7,0.1-1,0.2-1.2
	c0.1-0.1,0.6-0.2,1.4-0.2c0.8,0,1.3,0.1,1.4,0.2c0.1,0.1,0.2,0.5,0.2,1.2c0,0.4,0,0.7-0.1,0.9c0,0.2-0.1,0.3-0.2,0.3
	c-0.1,0.1-0.2,0.1-0.3,0.1C66.1,60.7,65.7,60.7,65.1,60.7z M51.4,57.3c0.4,0.1,0.7,0.1,1-0.1c0.3-0.2,0.4-0.5,0.4-0.9
	c0-1-0.9-1.8-2.6-2.3c-0.5-0.1-0.9-0.2-1-0.1c-0.1,0,0,0.2,0.2,0.5c0.7,0.8,1.2,1.6,1.4,2.4c0.1,0.2,0.2,0.4,0.2,0.5
	C51.1,57.2,51.2,57.3,51.4,57.3z M62.3,54.5c-1.8,0-3,0-3.6,0c-0.7,0-1.1-0.1-1.2-0.2c-0.1-0.1-0.1-0.3,0-0.7c0-0.1,0.1-0.4,0.2-0.7
	c0.1-0.4,0.2-0.6,0.4-0.7c0.1-0.1,1.6-0.1,4.7-0.1c3,0,4.6,0,4.7,0.1c0.2,0.1,0.3,0.3,0.2,0.7c-0.1,0.3-0.3,0.4-0.5,0.4
	c-0.1,0-0.1-0.1-0.2-0.1c-0.1-0.1-0.1-0.1-0.2,0c-0.1,0.1-0.2,0.2-0.5,0.5c-0.3,0.4-0.6,0.7-0.7,0.7c-0.1,0.1-0.3,0.1-0.6,0.1
	C64.6,54.5,63.8,54.5,62.3,54.5z M53.4,52.1c0.5,0.2,0.9,0.1,1.2-0.3c0.3-0.4,0.4-0.9,0.1-1.4c-0.2-0.4-0.6-0.8-1.2-1.1
	c-0.6-0.3-1.2-0.6-2-0.7c-0.4-0.1-0.7-0.1-0.7,0c0,0.1,0.1,0.2,0.4,0.6c0.8,0.8,1.3,1.6,1.7,2.4c0.1,0.3,0.2,0.4,0.2,0.5
	C53.2,52,53.3,52.1,53.4,52.1z M94.5,70.4c0.4,0.1,0.7,0,1-0.2c0.3-0.2,0.4-0.5,0.4-0.8c0-0.7-0.6-1.4-1.7-2
	c-1.1-0.7-2.6-1.2-4.5-1.5c0,0-0.1,0-0.1,0c-0.6-0.1-1-0.2-1.1-0.2c-0.1,0-0.2-0.1-0.3-0.2c-0.2-0.2-0.1-0.5,0.1-0.9
	c0,0,0-0.1,0-0.1c0.1-0.2,0.2-0.3,0.5-0.3c0.2,0,1-0.1,2.3-0.1c0.3,0,0.6,0,0.8,0c1.6,0,2.6,0,2.9,0s0.5-0.1,0.6-0.2
	c0.1-0.1-0.1-0.4-0.5-0.8c-0.4-0.4-0.8-0.8-1.3-1.1c-0.2-0.1-0.4-0.2-0.5-0.1c-0.1,0-0.3,0.3-0.6,0.7c0,0,0,0.1-0.1,0.1
	c-0.3,0.4-0.5,0.6-0.7,0.6c-0.2,0.1-0.6,0.1-1.3,0.1c0,0-0.1,0-0.1,0c-0.6,0-1,0-1.2,0c-0.2,0-0.4-0.1-0.4-0.3c0-0.1,0-0.4,0-0.8
	c0,0,0-0.1,0-0.1c0.1-0.5,0.2-0.8,0.3-0.9c0.1-0.1,0.6-0.1,1.4-0.1c0.1,0,0.2,0,0.2,0c0.9,0,1.4-0.1,1.6-0.1
	c0.2-0.1,0.2-0.2,0.1-0.4c0,0-0.1-0.1-0.1-0.2c0-0.2-0.3-0.4-0.9-0.8c0,0-0.1-0.1-0.2-0.1c-0.4-0.3-0.7-0.4-0.8-0.4
	c-0.1,0-0.3,0.2-0.6,0.5c0,0.1-0.1,0.1-0.1,0.2c0,0-0.1,0.1-0.1,0.1c-0.2,0.3-0.4,0.5-0.6,0.5c-0.2,0-0.9,0.1-2,0.1
	c-0.3,0-0.5,0-0.7,0c-0.2,0-0.4,0-0.6,0c-1,0-1.6,0-1.8,0c-0.3,0-0.5-0.1-0.4-0.3c0-0.1,0.2-0.4,0.6-0.9c0.1-0.1,0.2-0.2,0.3-0.3
	c0,0,0.1-0.1,0.2-0.2c0.3-0.4,0.6-0.6,0.8-0.7c0.2-0.1,0.9-0.1,2-0.1c0.3,0,0.6,0,0.7,0c0.2,0,0.4,0,0.7,0c1.1,0,1.7,0,1.9,0.1
	c0.2,0.1,0.5,0.4,0.9,0.9c0.1,0.2,0.2,0.3,0.3,0.4c0.3,0.4,0.5,0.7,0.8,0.9c0.2,0.1,0.5,0.4,0.9,0.8c0.8,0.8,1.7,1.4,2.8,2
	c0.2,0.1,0.3,0.2,0.4,0.1c0,0,0.1-0.1,0.2-0.3c0.2-0.5,0.6-1,1.3-1.4c0.3-0.2,0.4-0.3,0.4-0.4c0-0.1-0.1-0.2-0.4-0.3
	c-1.1-0.4-2.2-0.8-3.3-1.4c-1.1-0.6-1.7-1.1-1.7-1.3c0-0.1,0.1-0.2,0.3-0.2c0.2,0,1-0.1,2.3-0.1c1.1,0,1.8,0,2.2-0.1
	c0.4-0.1,0.5-0.2,0.4-0.4c-0.1-0.2-0.5-0.5-1.2-1.1c0,0,0,0-0.1-0.1c-0.5-0.4-0.9-0.6-1.1-0.6c-0.1,0-0.4,0.2-0.8,0.7
	c0,0,0,0.1-0.1,0.1l0,0c-0.3,0.4-0.5,0.6-0.6,0.6c-0.1,0.1-0.5,0.1-1.2,0.1c-0.1,0-0.2,0-0.2,0c-0.7,0-1.1,0-1.3-0.1
	c-0.2,0-0.4-0.2-0.7-0.6c-0.8-0.8-1.1-1.4-0.8-1.6c0,0,0.2-0.1,0.5-0.1c0.3,0,1.1,0,2.5,0c0,0,0.1,0,0.1,0c1.6,0,2.5,0,2.7,0
	c0.3,0,0.4-0.1,0.5-0.2c0.1-0.2-0.3-0.7-1.3-1.4c-0.4-0.3-0.7-0.5-0.9-0.5c-0.1,0-0.3,0.2-0.6,0.6c0,0-0.1,0.1-0.1,0.2
	c-0.3,0.4-0.5,0.6-0.7,0.6c-0.2,0-0.9,0.1-2,0.1c-0.3,0-0.5,0-0.6,0c-0.1,0-0.2,0-0.4,0c-1,0-1.7,0-1.9,0c-0.4,0-0.6-0.1-0.6-0.3
	c0-0.1,0-0.3,0.1-0.7c0-0.1,0-0.1,0-0.1c0.2-0.5,0.3-0.9,0.5-1c0.1,0,0.3-0.1,0.7-0.1c0.4,0,1.6,0,3.6,0c0.1,0,0.2,0,0.2,0
	c0.2,0,0.6,0,1,0c1.8,0,2.8,0,3.1,0c0.3,0,0.5-0.1,0.5-0.2l0,0c0.1-0.2-0.4-0.7-1.5-1.6c-0.4-0.3-0.7-0.4-0.8-0.4
	c-0.1,0-0.3,0.2-0.6,0.6l0,0c0,0-0.1,0.1-0.2,0.2c-0.3,0.4-0.5,0.6-0.7,0.7c-0.2,0-0.8,0.1-1.8,0.1c-0.3,0-0.5,0-0.6,0
	c-1.2,0-2,0-2.2,0c-0.3,0-0.4-0.1-0.5-0.2c-0.1-0.2-0.1-0.5,0.1-1c0.1-0.4,0.3-0.7,0.5-0.8c0.3-0.1,0.3-0.3,0-0.4
	c-0.3-0.1-0.9-0.3-2-0.6C86.4,48,86.2,48,86.1,48S86,48.1,86,48.3c0,0.2,0,0.5-0.1,1c-0.1,0.5-0.1,0.8-0.2,1.1
	c-0.1,0.4-0.2,0.6-0.5,0.7c-0.2,0.1-1.2,0.1-3.1,0.1c-1.9,0-3.1-0.1-3.6-0.2c-0.1,0-0.2,0-0.2,0.1c0,0,0.1,0.2,0.2,0.4
	c0,0,0,0.1,0.1,0.1c0.1,0.3,0.2,0.4,0.3,0.5c0.1,0,0.3,0,0.6,0c0.1,0,0.1,0,0.2,0c1-0.1,2.1-0.2,3.3-0.2c1.2,0,1.9,0,2,0.1
	c0.2,0.1,0.2,0.4,0,1c-0.1,0.5-0.3,0.8-0.6,1C84.3,54,83.5,54,82.1,54c-1.5,0-2.4-0.1-2.8-0.1c-0.2,0-0.2,0.2,0.1,0.6
	c0,0,0,0.1,0.1,0.2c0.1,0.2,0.2,0.3,0.2,0.3c0.1,0,0.3,0,0.6-0.1c0.1,0,0.2,0,0.2,0c1.2-0.2,2.1-0.2,2.7-0.2c0.6,0,0.9,0.2,0.9,0.5
	c0,0.2-0.1,0.5-0.4,0.9c-0.2,0.4-0.4,0.7-0.5,0.8c-0.1,0.1-0.8,0.2-2.2,0.2c-1.3,0-2.5,0-3.5-0.1c-0.2,0-0.3,0-0.3,0
	c0,0,0.1,0.2,0.2,0.6c0,0,0,0,0,0.1c0.1,0.2,0.2,0.4,0.3,0.4c0.1,0,0.2,0,0.5,0c0,0,0.1,0,0.1,0c1.2-0.2,2.2-0.2,3-0.2
	c0.8,0,1.2,0.1,1.2,0.4c0,0.4-0.6,1.2-1.8,2.4c-1.2,1.2-2.4,2.2-3.6,3.1c-0.1,0.1-0.2,0.2-0.2,0.2c0,0.1,0.1,0.1,0.2,0.1
	c0.2,0,0.9-0.3,2-1c1.1-0.7,2-1.3,2.6-1.8c0.6-0.5,1-0.6,1.2-0.4c0,0,0.1,0.1,0.2,0.1c0.1,0,0.5,0,1.2,0c0,0,0.1,0,0.1,0
	c0.9,0,1.4,0,1.5,0.1c0.1,0.1,0.2,0.4,0.2,0.9c0,0,0,0.1,0,0.1c0,0.4,0,0.7-0.1,0.9c0,0.2-0.1,0.3-0.3,0.3c-0.1,0-0.8,0.1-2.1,0
	c-1.3,0-2.2,0-2.8-0.1c-0.4,0-0.6,0-0.6,0c0,0,0,0.2,0.2,0.5c0,0,0,0.1,0,0.1c0.1,0.2,0.2,0.3,0.3,0.4c0.1,0,0.4,0,0.8,0
	c0.1,0,0.2,0,0.3,0c2.8-0.4,4-0.2,3.8,0.6c-0.6,2.2-2.8,3.9-6.6,5.1c-0.4,0.1-0.6,0.2-0.6,0.2c-0.1,0-0.1,0.1,0,0.2
	c0,0.1,0.1,0.1,0.3,0.1c0.2,0,0.6-0.1,1.3-0.3c1.7-0.4,3-0.9,4.1-1.4c1.1-0.5,2-1.1,2.6-1.9c0.4-0.4,0.6-0.6,0.8-0.6
	c0.2,0,0.6,0.1,1.3,0.5c1.8,0.9,3.2,1.9,4.4,3C93.8,70.1,94.2,70.3,94.5,70.4z M87.8,57.1c-0.8,0-1.3,0-1.5,0
	c-0.3,0-0.4-0.2-0.4-0.3c0-0.1,0.1-0.4,0.4-0.9c0,0,0.1-0.1,0.1-0.1c0.3-0.5,0.5-0.8,0.6-0.9c0.2-0.1,0.5-0.1,1.2-0.1
	c0.6,0,0.9,0,1.1,0.1c0.1,0.1,0.4,0.4,0.6,0.9l0,0.1c0.2,0.4,0.3,0.7,0.4,0.9c0,0.1,0,0.2-0.1,0.3c-0.1,0.1-0.2,0.1-0.4,0.1
	c-0.2,0-0.7,0-1.6,0C87.9,57.1,87.9,57.1,87.8,57.1z M115.1,62.7c1.1,0.1,2-0.2,2.8-1c0.8-0.8,1.1-1.7,1-2.8
	c-0.1-0.9-0.5-1.6-1.2-2.2c-0.6-0.5-1.4-0.8-2.2-0.8c-0.9,0-1.6,0.3-2.3,0.9c-0.7,0.6-1,1.4-1.1,2.3c0,0.8,0.2,1.6,0.7,2.3
	C113.4,62.1,114.2,62.5,115.1,62.7z M116.4,61.7c-0.8,0.3-1.6,0.2-2.3-0.3c-0.7-0.5-1.1-1.2-1.1-2.1c0-0.7,0.2-1.3,0.7-1.8
	c0.5-0.5,1.1-0.7,1.7-0.7c0.7,0,1.3,0.2,1.8,0.7c0.7,0.6,0.9,1.4,0.7,2.3C117.8,60.8,117.3,61.4,116.4,61.7z"/>
</svg>
