<svg width="352" height="219" viewBox="0 0 352 219" fill="none" xmlns="http://www.w3.org/2000/svg">
<g clip-path="url(#clip0)">
<path d="M350.65 0.649902H0.649902V217.44H350.65V0.649902Z" stroke="#D6D2C7" stroke-width="1.3" stroke-miterlimit="10" stroke-dasharray="9.31 9.31"/>
</g>
<path d="M27.728 97.968C27.792 98.016 28.056 97.984 28.52 97.872C29.304 97.696 29.792 97.288 29.984 96.648C30.032 96.472 30.064 95.136 30.08 92.64C30.08 92.448 30.08 92.184 30.08 91.848C30.096 90.664 30.104 89.904 30.104 89.568C30.136 89.12 30.184 88.816 30.248 88.656C30.296 88.544 30.408 88.432 30.584 88.32C30.648 88.272 30.696 88.24 30.728 88.224C31.032 88.016 31.24 87.936 31.352 87.984C31.496 88.032 31.584 88.248 31.616 88.632C31.632 88.984 31.616 89.616 31.568 90.528C31.536 91.296 31.528 91.76 31.544 91.92C31.56 92.064 31.624 92.152 31.736 92.184C31.944 92.248 32.208 92.224 32.528 92.112C32.848 92 33.008 91.872 33.008 91.728C33.008 91.552 33.144 91.432 33.416 91.368C33.704 91.288 33.936 91.312 34.112 91.44C34.288 91.552 34.376 91.928 34.376 92.568C34.376 93.208 34.288 93.592 34.112 93.72C34.016 93.784 33.56 93.872 32.744 93.984C31.928 94.08 31.32 94.128 30.92 94.128C30.808 94.128 30.76 94.192 30.776 94.32C30.808 94.448 30.928 94.736 31.136 95.184C31.392 95.76 31.552 96.08 31.616 96.144C31.696 96.224 31.816 96.176 31.976 96C32.104 95.872 32.272 95.76 32.48 95.664C32.688 95.568 33.088 95.424 33.68 95.232C33.888 95.168 34.248 95.056 34.76 94.896C35.288 94.72 35.648 94.6 35.84 94.536C36.56 94.296 37.016 94.184 37.208 94.2C37.4 94.216 37.552 94.384 37.664 94.704C37.728 94.944 37.88 95.104 38.12 95.184C38.376 95.248 38.592 95.192 38.768 95.016C39.056 94.744 39.128 94.392 38.984 93.96C38.856 93.528 38.552 93.144 38.072 92.808C37.832 92.616 37.672 92.48 37.592 92.4C37.432 92.24 37.272 92.16 37.112 92.16C36.984 92.16 36.848 92.16 36.704 92.16C36.48 92.144 36.48 92.288 36.704 92.592C36.864 92.832 36.904 93.056 36.824 93.264C36.76 93.472 36.624 93.592 36.416 93.624C36.224 93.656 36.04 93.56 35.864 93.336C35.672 93.08 35.608 92.768 35.672 92.4C35.72 92.048 35.856 91.76 36.08 91.536C36.32 91.312 36.568 91.264 36.824 91.392C36.952 91.456 37.088 91.632 37.232 91.92C37.296 92.048 37.48 92.064 37.784 91.968C38.248 91.84 38.52 91.72 38.6 91.608C38.68 91.48 38.704 91.152 38.672 90.624C38.608 89.632 38.6 88.976 38.648 88.656C38.712 88.32 38.872 88.096 39.128 87.984C39.32 87.888 39.4 87.792 39.368 87.696C39.352 87.6 39.208 87.432 38.936 87.192C38.536 86.824 38.248 86.624 38.072 86.592C37.912 86.56 37.72 86.664 37.496 86.904C37 87.416 36.528 87.56 36.08 87.336C35.92 87.256 35.832 87.112 35.816 86.904C35.816 86.68 35.896 86.528 36.056 86.448C36.264 86.336 36.288 86.216 36.128 86.088C35.984 85.944 35.624 85.76 35.048 85.536C34.648 85.392 34.416 85.336 34.352 85.368C34.304 85.384 34.288 85.528 34.304 85.8C34.384 86.52 34.328 87 34.136 87.24C33.96 87.48 33.632 87.504 33.152 87.312C32.768 87.168 32.592 87 32.624 86.808C32.656 86.616 32.904 86.232 33.368 85.656C33.4 85.608 33.448 85.552 33.512 85.488C33.784 85.12 34.04 84.912 34.28 84.864C34.536 84.8 35.264 84.768 36.464 84.768C36.736 84.768 36.944 84.768 37.088 84.768C37.312 84.768 37.616 84.768 38 84.768C38.784 84.752 39.28 84.768 39.488 84.816C39.792 84.88 39.976 85.056 40.04 85.344C40.072 85.552 40.072 86.04 40.04 86.808C40.024 87.176 40.016 87.472 40.016 87.696C39.968 89.84 39.904 91.384 39.824 92.328C39.76 93.192 39.64 93.96 39.464 94.632C39.288 95.24 39.064 95.6 38.792 95.712C38.52 95.824 37.856 95.832 36.8 95.736C36.352 95.704 36.072 95.696 35.96 95.712C35.848 95.712 35.792 95.76 35.792 95.856C35.792 95.936 36 96.032 36.416 96.144C37.536 96.448 38.096 96.976 38.096 97.728C38.096 97.872 38.128 97.952 38.192 97.968C38.272 98 38.456 98 38.744 97.968C39.624 97.872 40.264 97.584 40.664 97.104C41.096 96.544 41.4 95.544 41.576 94.104C41.736 92.824 41.856 90.68 41.936 87.672C41.968 86.488 42.016 85.744 42.08 85.44C42.144 85.12 42.28 84.96 42.488 84.96C42.536 84.96 42.616 84.92 42.728 84.84C42.84 84.744 42.896 84.672 42.896 84.624C42.896 84.528 42.72 84.312 42.368 83.976C42.016 83.624 41.68 83.344 41.36 83.136C41.104 82.96 40.976 82.864 40.976 82.848C40.976 82.816 41.04 82.752 41.168 82.656C41.296 82.544 41.408 82.464 41.504 82.416C41.664 82.336 41.76 82.24 41.792 82.128C41.824 82.016 41.824 81.688 41.792 81.144C41.728 80.008 41.72 79.24 41.768 78.84C41.816 78.424 41.944 78.144 42.152 78C42.408 77.824 42.52 77.696 42.488 77.616C42.456 77.488 42.232 77.24 41.816 76.872C41.4 76.504 41.104 76.288 40.928 76.224C40.768 76.16 40.584 76.28 40.376 76.584C40.344 76.616 40.304 76.672 40.256 76.752C40.048 77.04 39.816 77.208 39.56 77.256C39.304 77.304 38.512 77.328 37.184 77.328C36.832 77.328 36.552 77.328 36.344 77.328C36.152 77.328 35.896 77.328 35.576 77.328C34.312 77.328 33.536 77.312 33.248 77.28C32.96 77.248 32.608 77.136 32.192 76.944C32.048 76.88 31.928 76.832 31.832 76.8L31.784 76.776C31.352 76.584 31.104 76.488 31.04 76.488C30.96 76.488 30.936 76.6 30.968 76.824C31.048 77.752 31.088 78.752 31.088 79.824C31.088 80.928 31.048 81.552 30.968 81.696C30.904 81.824 30.808 81.88 30.68 81.864C30.568 81.832 30.384 81.72 30.128 81.528C29.68 81.192 29.36 81 29.168 80.952C28.992 80.888 28.84 80.936 28.712 81.096C28.424 81.448 28.192 81.672 28.016 81.768C27.856 81.864 27.664 81.896 27.44 81.864C26.976 81.768 26.968 81.472 27.416 80.976C27.48 80.912 27.648 80.72 27.92 80.4C28.016 80.288 28.088 80.2 28.136 80.136C28.472 79.736 28.704 79.488 28.832 79.392C28.96 79.296 29.144 79.216 29.384 79.152C29.624 79.088 29.736 79 29.72 78.888C29.704 78.776 29.544 78.56 29.24 78.24C28.728 77.712 28.376 77.416 28.184 77.352C28.008 77.288 27.792 77.392 27.536 77.664C27.2 78.032 26.832 78.256 26.432 78.336C26.08 78.4 25.848 78.32 25.736 78.096C25.608 77.856 25.688 77.544 25.976 77.16C26.104 77 26.2 76.92 26.264 76.92C26.856 76.76 26.376 76.408 24.824 75.864C24.776 75.848 24.712 75.824 24.632 75.792C24.28 75.664 24.072 75.616 24.008 75.648C23.944 75.664 23.904 75.792 23.888 76.032C23.872 76.08 23.864 76.12 23.864 76.152C23.736 77.24 23.464 78.424 23.048 79.704C22.632 80.984 22.128 82.192 21.536 83.328C21.36 83.664 21.256 83.88 21.224 83.976C21.208 84.056 21.256 84.104 21.368 84.12C21.464 84.136 21.608 84.048 21.8 83.856C22.136 83.536 22.376 83.48 22.52 83.688C22.584 83.768 22.616 84.896 22.616 87.072C22.632 89.248 22.608 90.72 22.544 91.488C22.384 94 22 96 21.392 97.488C21.312 97.712 21.312 97.856 21.392 97.92C21.488 97.984 21.616 97.928 21.776 97.752C22.304 97.16 22.768 96.352 23.168 95.328C23.584 94.288 23.88 93.16 24.056 91.944C24.056 91.896 24.064 91.824 24.08 91.728C24.16 91.2 24.272 90.896 24.416 90.816C24.56 90.736 25.032 90.688 25.832 90.672C25.992 90.672 26.12 90.672 26.216 90.672C26.344 90.672 26.528 90.672 26.768 90.672C27.36 90.656 27.736 90.672 27.896 90.72C28.12 90.768 28.256 90.928 28.304 91.2C28.352 91.392 28.368 91.84 28.352 92.544C28.352 92.848 28.352 93.088 28.352 93.264C28.352 93.344 28.352 93.456 28.352 93.6C28.352 94.496 28.336 95.064 28.304 95.304C28.256 95.64 28.128 95.84 27.92 95.904C27.776 95.952 27.432 95.952 26.888 95.904C26.792 95.888 26.712 95.88 26.648 95.88C26.152 95.848 25.856 95.84 25.76 95.856C25.664 95.856 25.616 95.896 25.616 95.976C25.616 96.056 25.64 96.104 25.688 96.12C25.736 96.152 25.896 96.2 26.168 96.264C27.016 96.472 27.512 96.952 27.656 97.704C27.656 97.72 27.664 97.744 27.68 97.776C27.696 97.888 27.712 97.952 27.728 97.968ZM34.016 90.576C33.36 90.912 33.024 90.544 33.008 89.472C32.992 88.848 33.072 88.424 33.248 88.2C33.44 87.96 33.712 87.944 34.064 88.152C34.288 88.296 34.392 88.712 34.376 89.4C34.376 90.072 34.256 90.464 34.016 90.576ZM36.824 90.6C36.408 90.792 36.088 90.68 35.864 90.264C35.656 89.832 35.632 89.272 35.792 88.584C35.872 88.232 36.096 88.056 36.464 88.056C36.848 88.056 37.072 88.232 37.136 88.584C37.216 88.968 37.224 89.384 37.16 89.832C37.096 90.28 36.984 90.536 36.824 90.6ZM28.088 89.88C27.928 89.992 27.744 90.024 27.536 89.976C27.344 89.912 27.216 89.8 27.152 89.64C27.088 89.512 27.056 89.032 27.056 88.2C27.072 87.352 27.112 86.888 27.176 86.808C27.288 86.648 27.432 86.552 27.608 86.52C27.784 86.488 27.952 86.52 28.112 86.616C28.304 86.744 28.392 87.288 28.376 88.248C28.376 89.208 28.28 89.752 28.088 89.88ZM25.304 89.88C25.128 89.976 24.944 90.008 24.752 89.976C24.544 89.896 24.416 89.792 24.368 89.664C24.336 89.52 24.32 89.096 24.32 88.392C24.32 87.576 24.352 87.064 24.416 86.856C24.496 86.648 24.672 86.544 24.944 86.544C25.232 86.544 25.408 86.656 25.472 86.88C25.552 87.088 25.584 87.616 25.568 88.464C25.552 89.04 25.528 89.4 25.496 89.544C25.48 89.688 25.416 89.8 25.304 89.88ZM30.704 87.048C30.448 87.304 30.272 87.344 30.176 87.168C30.112 87.056 30.08 86.368 30.08 85.104C30.08 83.84 30.104 83.152 30.152 83.04C30.264 82.848 30.416 82.728 30.608 82.68C30.8 82.632 30.96 82.672 31.088 82.8C31.184 82.88 31.28 82.928 31.376 82.944C31.472 82.944 31.744 82.92 32.192 82.872C32.496 82.824 32.64 82.944 32.624 83.232C32.592 83.536 32.336 84.168 31.856 85.128C31.376 86.072 30.992 86.712 30.704 87.048ZM28.064 85.752C27.712 85.96 27.456 85.944 27.296 85.704C27.136 85.448 27.056 84.952 27.056 84.216C27.056 83.448 27.128 82.952 27.272 82.728C27.416 82.488 27.672 82.456 28.04 82.632C28.264 82.744 28.376 83.256 28.376 84.168C28.392 85.08 28.288 85.608 28.064 85.752ZM24.944 85.824C24.688 85.824 24.52 85.728 24.44 85.536C24.36 85.328 24.32 84.88 24.32 84.192C24.32 83.44 24.392 82.944 24.536 82.704C24.696 82.464 24.944 82.456 25.28 82.68C25.504 82.808 25.616 83.312 25.616 84.192C25.616 85.072 25.504 85.576 25.28 85.704C25.168 85.784 25.056 85.824 24.944 85.824ZM39.632 84.048C39.488 84.08 38.704 84.096 37.28 84.096C35.856 84.096 35.096 84.072 35 84.024C34.792 83.944 34.744 83.744 34.856 83.424C34.968 83.088 35.152 82.888 35.408 82.824C35.712 82.744 35.76 82.624 35.552 82.464C35.296 82.24 35.296 82.096 35.552 82.032C35.824 81.968 36.536 81.936 37.688 81.936C38.76 81.952 39.392 81.984 39.584 82.032C39.776 82.064 39.888 82.208 39.92 82.464C39.936 82.576 39.952 82.64 39.968 82.656C40 82.672 40.088 82.688 40.232 82.704C40.6 82.768 40.784 82.848 40.784 82.944C40.784 83.024 40.624 83.216 40.304 83.52C40 83.824 39.776 84 39.632 84.048ZM25.64 81.84C25.432 81.888 25.184 81.896 24.896 81.864C24.608 81.832 24.392 81.768 24.248 81.672C24.056 81.544 23.968 81.4 23.984 81.24C24.016 81.064 24.184 80.712 24.488 80.184C24.792 79.608 25.016 79.272 25.16 79.176C25.304 79.064 25.584 79.008 26 79.008C26.352 79.008 26.576 79.048 26.672 79.128C26.8 79.224 26.824 79.424 26.744 79.728C26.696 79.984 26.536 80.472 26.264 81.192C26.136 81.544 25.928 81.76 25.64 81.84ZM39.608 81.168C38.856 81.632 38.48 81.12 38.48 79.632C38.48 78.912 38.52 78.464 38.6 78.288C38.68 78.096 38.872 78 39.176 78C39.496 78 39.696 78.096 39.776 78.288C39.856 78.464 39.896 78.912 39.896 79.632C39.896 80.256 39.88 80.648 39.848 80.808C39.816 80.968 39.736 81.088 39.608 81.168ZM33.992 81.144C33.768 81.288 33.528 81.304 33.272 81.192C33.016 81.08 32.872 80.896 32.84 80.64C32.728 79.824 32.736 79.184 32.864 78.72C32.992 78.24 33.216 78 33.536 78C33.872 78 34.08 78.088 34.16 78.264C34.24 78.44 34.28 78.896 34.28 79.632C34.28 80.272 34.264 80.664 34.232 80.808C34.216 80.952 34.136 81.064 33.992 81.144ZM36.752 81.168C36.576 81.264 36.376 81.288 36.152 81.24C35.928 81.192 35.776 81.096 35.696 80.952C35.632 80.824 35.6 80.384 35.6 79.632C35.616 78.864 35.656 78.424 35.72 78.312C35.8 78.168 35.952 78.072 36.176 78.024C36.4 77.976 36.592 78 36.752 78.096C37.008 78.208 37.136 78.72 37.136 79.632C37.136 80.528 37.008 81.04 36.752 81.168ZM51.512 97.968C51.528 98.016 51.616 98.024 51.776 97.992C51.856 97.976 51.92 97.96 51.968 97.944C52.992 97.752 53.632 97.376 53.888 96.816L53.912 96.792C54.024 96.536 54.088 96.208 54.104 95.808C54.136 95.408 54.16 94.136 54.176 91.992C54.192 89.288 54.216 87.888 54.248 87.792C54.344 87.616 54.728 87.304 55.4 86.856C56.472 86.168 57.008 85.784 57.008 85.704C57.008 85.608 56.952 85.568 56.84 85.584C56.728 85.6 56.408 85.688 55.88 85.848C55.816 85.864 55.736 85.888 55.64 85.92C55.096 86.096 54.752 86.176 54.608 86.16C54.416 86.16 54.296 86.032 54.248 85.776C54.2 85.6 54.176 85.152 54.176 84.432C54.176 84.272 54.176 84.152 54.176 84.072C54.176 83.928 54.176 83.736 54.176 83.496C54.176 82.84 54.192 82.424 54.224 82.248C54.272 82.008 54.384 81.856 54.56 81.792C54.704 81.76 55.024 81.744 55.52 81.744C55.68 81.744 55.808 81.744 55.904 81.744C55.936 81.744 55.976 81.744 56.024 81.744C56.76 81.744 57.192 81.784 57.32 81.864C57.448 81.928 57.544 82.176 57.608 82.608C57.608 82.64 57.608 82.664 57.608 82.68C57.64 83.016 57.656 84.072 57.656 85.848C57.656 87.672 57.64 88.768 57.608 89.136C57.56 89.616 57.6 89.912 57.728 90.024C57.872 90.136 58.176 90.128 58.64 90C59.376 89.824 59.744 89.584 59.744 89.28C59.744 88.912 60.024 88.68 60.584 88.584C61.16 88.488 61.536 88.608 61.712 88.944C61.84 89.2 61.848 89.64 61.736 90.264C61.64 90.872 61.496 91.224 61.304 91.32C61.192 91.368 60.464 91.384 59.12 91.368C57.792 91.368 56.848 91.344 56.288 91.296C55.92 91.264 55.712 91.272 55.664 91.32C55.632 91.352 55.696 91.512 55.856 91.8C55.872 91.832 55.888 91.864 55.904 91.896C56.032 92.152 56.12 92.296 56.168 92.328C56.232 92.36 56.368 92.36 56.576 92.328H56.648C57.24 92.232 58.016 92.16 58.976 92.112C59.936 92.048 60.536 92.04 60.776 92.088C61.304 92.184 61.304 92.672 60.776 93.552C59.848 95.12 58.096 96.4 55.52 97.392C55.072 97.568 54.816 97.672 54.752 97.704C54.704 97.752 54.72 97.824 54.8 97.92C54.848 97.984 54.984 98 55.208 97.968C55.432 97.936 55.896 97.824 56.6 97.632C58.392 97.152 59.808 96.568 60.848 95.88C61.904 95.176 62.704 94.304 63.248 93.264C63.456 92.88 63.624 92.696 63.752 92.712C63.88 92.712 64.024 92.928 64.184 93.36C65.048 95.552 66.56 97.032 68.72 97.8C68.944 97.88 69.08 97.904 69.128 97.872C69.192 97.856 69.24 97.76 69.272 97.584C69.352 96.784 69.832 96.232 70.712 95.928C71.016 95.832 71.112 95.728 71 95.616C70.968 95.584 70.712 95.52 70.232 95.424C68.744 95.12 67.408 94.664 66.224 94.056C65.056 93.432 64.496 92.88 64.544 92.4C64.56 92.288 64.608 92.216 64.688 92.184C64.8 92.136 65.064 92.104 65.48 92.088C65.784 92.088 66.496 92.08 67.616 92.064C68.944 92.048 69.768 92.024 70.088 91.992C70.552 91.944 70.752 91.832 70.688 91.656C70.64 91.528 70.36 91.216 69.848 90.72C69.368 90.256 69.048 89.976 68.888 89.88C68.664 89.736 68.488 89.704 68.36 89.784C68.248 89.848 68.072 90.048 67.832 90.384C67.8 90.416 67.76 90.472 67.712 90.552C67.408 90.968 67.176 91.216 67.016 91.296C66.872 91.36 66.48 91.392 65.84 91.392C65.712 91.392 65.616 91.392 65.552 91.392C65.504 91.392 65.432 91.392 65.336 91.392C64.616 91.376 64.2 91.32 64.088 91.224C63.992 91.112 63.976 90.744 64.04 90.12C64.056 90.04 64.064 89.976 64.064 89.928C64.128 89.288 64.216 88.912 64.328 88.8C64.44 88.672 64.768 88.608 65.312 88.608C65.808 88.608 66.136 88.664 66.296 88.776C66.472 88.872 66.56 89.064 66.56 89.352C66.56 89.512 66.592 89.608 66.656 89.64C66.72 89.656 66.864 89.648 67.088 89.616C67.84 89.504 68.304 89.344 68.48 89.136C68.672 88.912 68.76 88.432 68.744 87.696C68.664 85.696 68.648 84.424 68.696 83.88C68.76 83.32 68.928 82.952 69.2 82.776C69.408 82.632 69.464 82.48 69.368 82.32C69.272 82.144 68.976 81.872 68.48 81.504C67.984 81.136 67.656 80.944 67.496 80.928C67.352 80.896 67.16 81.016 66.92 81.288C66.888 81.336 66.84 81.392 66.776 81.456C66.568 81.712 66.344 81.864 66.104 81.912C65.864 81.944 65.128 81.96 63.896 81.96C63.528 81.96 63.24 81.96 63.032 81.96C61.512 81.96 60.6 81.952 60.296 81.936C59.96 81.936 59.736 81.912 59.624 81.864C58.776 81.56 58.152 81.296 57.752 81.072C57.352 80.848 56.984 80.568 56.648 80.232C56.184 79.768 55.888 79.528 55.76 79.512C55.632 79.496 55.44 79.672 55.184 80.04C54.944 80.408 54.76 80.64 54.632 80.736C54.52 80.816 54.408 80.8 54.296 80.688C54.248 80.64 54.224 80.536 54.224 80.376C54.208 80.216 54.2 79.76 54.2 79.008C54.2 78.144 54.216 77.616 54.248 77.424C54.28 77.216 54.368 77.064 54.512 76.968C54.784 76.792 54.752 76.616 54.416 76.44C54.08 76.264 53.384 76.048 52.328 75.792L52.304 75.768C52.048 75.704 51.904 75.704 51.872 75.768C51.84 75.816 51.848 76.024 51.896 76.392C51.992 77.256 52.048 78.168 52.064 79.128C52.096 80.088 52.072 80.632 51.992 80.76C51.896 80.936 51.696 81.04 51.392 81.072C51.104 81.088 50.528 81.056 49.664 80.976C49.648 80.976 49.616 80.976 49.568 80.976C49.28 80.944 49.12 80.944 49.088 80.976C49.056 81.008 49.104 81.152 49.232 81.408C49.248 81.456 49.264 81.488 49.28 81.504C49.296 81.52 49.312 81.544 49.328 81.576C49.44 81.816 49.52 81.952 49.568 81.984C49.632 82 49.784 81.976 50.024 81.912C50.072 81.896 50.104 81.888 50.12 81.888C50.776 81.712 51.224 81.64 51.464 81.672C51.736 81.736 51.92 81.968 52.016 82.368C52.08 82.688 52.112 83.352 52.112 84.36C52.112 84.504 52.112 84.696 52.112 84.936C52.112 85.72 52.088 86.224 52.04 86.448C51.96 86.752 51.76 86.984 51.44 87.144C51.216 87.256 50.672 87.416 49.808 87.624C49.536 87.704 49.312 87.76 49.136 87.792C49.008 87.824 48.952 87.896 48.968 88.008C48.984 88.12 49.096 88.488 49.304 89.112C49.32 89.16 49.328 89.192 49.328 89.208C49.584 89.96 49.752 90.384 49.832 90.48C49.912 90.576 50.024 90.504 50.168 90.264C50.312 90.024 50.6 89.784 51.032 89.544C51.48 89.304 51.768 89.232 51.896 89.328C51.992 89.392 52.048 89.544 52.064 89.784C52.08 90.024 52.096 90.808 52.112 92.136C52.112 92.264 52.112 92.448 52.112 92.688C52.112 93.76 52.096 94.44 52.064 94.728C52 95.128 51.856 95.368 51.632 95.448C51.456 95.496 51.064 95.496 50.456 95.448C50.328 95.432 50.224 95.424 50.144 95.424C49.68 95.392 49.424 95.4 49.376 95.448C49.248 95.576 49.376 95.688 49.76 95.784C50.24 95.912 50.6 96.104 50.84 96.36C51.096 96.632 51.28 97.016 51.392 97.512C51.456 97.768 51.496 97.92 51.512 97.968ZM63.152 87.96C61.2 87.96 60.16 87.912 60.032 87.816C59.792 87.656 59.688 87.304 59.72 86.76C59.752 86.2 59.888 85.856 60.128 85.728C60.256 85.648 61.264 85.608 63.152 85.608C65.04 85.608 66.048 85.648 66.176 85.728C66.416 85.856 66.552 86.2 66.584 86.76C66.616 87.304 66.512 87.656 66.272 87.816C66.16 87.912 65.12 87.96 63.152 87.96ZM63.152 84.984C61.2 84.984 60.16 84.936 60.032 84.84C59.792 84.68 59.688 84.328 59.72 83.784C59.752 83.224 59.888 82.88 60.128 82.752C60.256 82.672 61.264 82.632 63.152 82.632C65.04 82.632 66.048 82.672 66.176 82.752C66.416 82.88 66.552 83.224 66.584 83.784C66.616 84.328 66.512 84.68 66.272 84.84C66.16 84.936 65.12 84.984 63.152 84.984ZM59.84 81.24C59.984 81.304 60.272 81.28 60.704 81.168C61.152 81.056 61.456 80.928 61.616 80.784C61.696 80.72 61.744 80.664 61.76 80.616C61.776 80.568 61.784 80.416 61.784 80.16C61.784 79.744 61.848 79.488 61.976 79.392C62.12 79.296 62.504 79.248 63.128 79.248C63.768 79.248 64.152 79.296 64.28 79.392C64.408 79.488 64.472 79.784 64.472 80.28C64.456 80.616 64.464 80.832 64.496 80.928C64.528 81.024 64.6 81.088 64.712 81.12C64.936 81.184 65.28 81.136 65.744 80.976C66.208 80.8 66.456 80.624 66.488 80.448V80.376C66.504 80.216 66.512 80.088 66.512 79.992C66.544 79.624 66.648 79.408 66.824 79.344C67 79.28 67.584 79.248 68.576 79.248C69.744 79.248 70.384 79.152 70.496 78.96C70.608 78.768 70.264 78.336 69.464 77.664C69.016 77.28 68.728 77.096 68.6 77.112C68.472 77.128 68.24 77.36 67.904 77.808L67.88 77.856C67.464 78.448 67.088 78.656 66.752 78.48C66.56 78.368 66.472 78.136 66.488 77.784C66.52 77.432 66.64 77.176 66.848 77.016C67.056 76.84 67.048 76.688 66.824 76.56C66.6 76.416 66.048 76.224 65.168 75.984C64.768 75.872 64.536 75.832 64.472 75.864C64.408 75.88 64.384 76 64.4 76.224C64.576 77.488 64.528 78.232 64.256 78.456C64.16 78.536 63.8 78.584 63.176 78.6C62.552 78.616 62.176 78.584 62.048 78.504C61.824 78.376 61.72 78.144 61.736 77.808C61.768 77.456 61.904 77.176 62.144 76.968C62.32 76.808 62.272 76.656 62 76.512C61.744 76.368 61.184 76.184 60.32 75.96C60.304 75.96 60.272 75.952 60.224 75.936C59.904 75.856 59.72 75.832 59.672 75.864C59.624 75.896 59.616 76.056 59.648 76.344V76.416C59.728 77.232 59.728 77.776 59.648 78.048C59.536 78.368 59.256 78.552 58.808 78.6C58.456 78.632 57.736 78.584 56.648 78.456C56.488 78.44 56.4 78.456 56.384 78.504C56.384 78.552 56.464 78.736 56.624 79.056C56.64 79.072 56.656 79.096 56.672 79.128C56.768 79.352 56.856 79.48 56.936 79.512C57.016 79.528 57.232 79.488 57.584 79.392H57.632C58.464 79.216 59.016 79.192 59.288 79.32C59.576 79.432 59.704 79.76 59.672 80.304C59.656 80.864 59.712 81.176 59.84 81.24ZM97.088 97.968C97.552 98.048 97.912 97.88 98.168 97.464C98.424 97.064 98.488 96.544 98.36 95.904C98.024 94.224 96.664 92.792 94.28 91.608C93.672 91.304 93.32 91.168 93.224 91.2C93.128 91.232 93.232 91.448 93.536 91.848C94.384 92.92 94.848 93.624 94.928 93.96C95.008 94.296 94.768 94.48 94.208 94.512C93.744 94.544 92.88 94.576 91.616 94.608C90.352 94.64 89.664 94.648 89.552 94.632C89.264 94.6 89.136 94.496 89.168 94.32C89.2 94.144 89.416 93.824 89.816 93.36C91.672 91.152 93.448 88.728 95.144 86.088C95.416 85.672 95.672 85.424 95.912 85.344C96.216 85.248 96.232 85.104 95.96 84.912C95.688 84.704 95.04 84.384 94.016 83.952C94 83.936 93.968 83.92 93.92 83.904C93.632 83.776 93.456 83.728 93.392 83.76C93.328 83.792 93.248 83.968 93.152 84.288C93.136 84.32 93.128 84.352 93.128 84.384C92.504 86.272 91.024 89.296 88.688 93.456C88.656 93.504 88.616 93.576 88.568 93.672C88.264 94.2 88.016 94.512 87.824 94.608C87.648 94.688 87.144 94.736 86.312 94.752C86.184 94.752 86.088 94.752 86.024 94.752C85.896 94.752 85.728 94.752 85.52 94.752C84.896 94.752 84.552 94.792 84.488 94.872C84.424 94.952 84.496 95.232 84.704 95.712C84.768 95.888 84.824 96.024 84.872 96.12C85.192 96.92 85.4 97.376 85.496 97.488C85.608 97.616 85.744 97.576 85.904 97.368C85.984 97.256 86.168 97.152 86.456 97.056C86.76 96.976 87.368 96.84 88.28 96.648C89.624 96.36 91.128 96.016 92.792 95.616C93.16 95.536 93.44 95.472 93.632 95.424C94.4 95.232 94.896 95.144 95.12 95.16C95.44 95.16 95.672 95.296 95.816 95.568C95.928 95.776 96.088 96.272 96.296 97.056C96.376 97.392 96.464 97.616 96.56 97.728C96.656 97.84 96.832 97.92 97.088 97.968ZM79.976 97.92C80.056 98 80.304 98 80.72 97.92C81.136 97.856 81.504 97.744 81.824 97.584C82.544 97.232 83.08 96.488 83.432 95.352C83.8 94.2 84.072 92.384 84.248 89.904C84.296 89.2 84.352 88.76 84.416 88.584C84.496 88.392 84.648 88.24 84.872 88.128C85.144 88 85.216 87.832 85.088 87.624C84.976 87.416 84.632 87.088 84.056 86.64C83.672 86.336 83.424 86.184 83.312 86.184C83.2 86.184 83.008 86.336 82.736 86.64C82.432 86.976 82.192 87.176 82.016 87.24C81.856 87.288 81.448 87.312 80.792 87.312C80.744 87.312 80.68 87.312 80.6 87.312C80.136 87.312 79.848 87.288 79.736 87.24C79.576 87.16 79.48 87 79.448 86.76C79.432 86.568 79.456 86.136 79.52 85.464C79.536 85.352 79.544 85.272 79.544 85.224C79.544 85.16 79.552 85.056 79.568 84.912C79.632 84.192 79.68 83.744 79.712 83.568C79.776 83.296 79.88 83.128 80.024 83.064C80.136 83.016 80.392 82.992 80.792 82.992C80.856 82.992 80.912 82.992 80.96 82.992C81.488 82.992 81.824 83.04 81.968 83.136C82.128 83.232 82.208 83.44 82.208 83.76C82.208 83.984 82.36 84.088 82.664 84.072C82.952 84.072 83.344 83.96 83.84 83.736L83.888 83.712C84.096 83.616 84.216 83.52 84.248 83.424C84.296 83.312 84.304 82.984 84.272 82.44C84.272 82.376 84.272 82.32 84.272 82.272C84.224 81.392 84.24 80.84 84.32 80.616C84.416 80.392 84.584 80.464 84.824 80.832C84.904 80.96 84.968 81.032 85.016 81.048C85.064 81.048 85.192 81.032 85.4 81C85.464 80.984 85.512 80.976 85.544 80.976C86.456 80.832 87.304 80.76 88.088 80.76C88.648 80.76 88.992 80.784 89.12 80.832C89.312 80.912 89.376 81.096 89.312 81.384C89.28 81.608 89.12 82.112 88.832 82.896C88.464 83.904 88.224 84.536 88.112 84.792C87.936 85.16 87.768 85.36 87.608 85.392C87.496 85.424 87.264 85.368 86.912 85.224C85.168 84.488 84.656 84.488 85.376 85.224C86.608 86.456 87.432 87.728 87.848 89.04C87.944 89.328 88.056 89.52 88.184 89.616C88.312 89.712 88.512 89.768 88.784 89.784C89.424 89.784 89.768 89.432 89.816 88.728C89.88 88.024 89.616 87.328 89.024 86.64C88.752 86.32 88.632 86.088 88.664 85.944C88.696 85.784 88.912 85.48 89.312 85.032C90.16 84.072 90.8 83.296 91.232 82.704C91.648 82.176 91.976 81.856 92.216 81.744C92.488 81.6 92.488 81.472 92.216 81.36C91.944 81.232 91.848 81.088 91.928 80.928C91.992 80.848 92.192 80.792 92.528 80.76C92.896 80.744 93.792 80.736 95.216 80.736C96.624 80.736 97.512 80.712 97.88 80.664C98.344 80.584 98.496 80.416 98.336 80.16C98.224 79.968 97.768 79.536 96.968 78.864L96.944 78.84C96.496 78.456 96.208 78.272 96.08 78.288C95.952 78.288 95.72 78.52 95.384 78.984L95.36 79.032C94.992 79.56 94.728 79.872 94.568 79.968C94.408 80.064 94.032 80.112 93.44 80.112C92.8 80.112 92.424 80.048 92.312 79.92C92.2 79.792 92.144 79.36 92.144 78.624C92.144 78.032 92.16 77.656 92.192 77.496C92.224 77.336 92.32 77.184 92.48 77.04C92.672 76.864 92.712 76.72 92.6 76.608C92.488 76.496 92.136 76.36 91.544 76.2C90.232 75.832 89.608 75.752 89.672 75.96C89.736 76.152 89.792 76.808 89.84 77.928C89.888 79.032 89.88 79.648 89.816 79.776C89.704 79.968 89.2 80.08 88.304 80.112C87.408 80.144 86.28 80.096 84.92 79.968C84.648 79.936 84.496 79.936 84.464 79.968C84.384 80 84.32 79.936 84.272 79.776C84.224 79.6 84.2 79.376 84.2 79.104C84.2 78.8 84.232 78.584 84.296 78.456C84.376 78.328 84.544 78.184 84.8 78.024C85.04 77.896 85.072 77.704 84.896 77.448C84.72 77.176 84.312 76.8 83.672 76.32C83.336 76.048 83.112 75.92 83 75.936C82.904 75.952 82.728 76.136 82.472 76.488C82.184 76.888 81.696 77.136 81.008 77.232C80.32 77.312 79.184 77.28 77.6 77.136C77.232 77.104 77.024 77.112 76.976 77.16C76.944 77.192 77.008 77.352 77.168 77.64C77.184 77.672 77.208 77.712 77.24 77.76C77.352 77.984 77.432 78.112 77.48 78.144C77.544 78.176 77.68 78.176 77.888 78.144C77.936 78.128 77.976 78.12 78.008 78.12C80.616 77.704 81.992 77.776 82.136 78.336C82.2 78.528 82.224 79.168 82.208 80.256C82.192 81.328 82.152 81.912 82.088 82.008C81.928 82.28 81.552 82.4 80.96 82.368C80.384 82.32 79.664 82.12 78.8 81.768C78.736 81.752 78.648 81.72 78.536 81.672C78.024 81.464 77.752 81.36 77.72 81.36C77.672 81.36 77.656 81.696 77.672 82.368C77.72 83.776 77.584 85.736 77.264 88.248C77.264 88.296 77.256 88.376 77.24 88.488C77.176 89 77.168 89.296 77.216 89.376C77.264 89.456 77.464 89.496 77.816 89.496C77.88 89.496 77.936 89.496 77.984 89.496C78.448 89.496 78.76 89.456 78.92 89.376C79.08 89.28 79.184 89.08 79.232 88.776C79.296 88.376 79.4 88.136 79.544 88.056C79.704 87.976 80.12 87.936 80.792 87.936C80.824 87.936 80.872 87.936 80.936 87.936C81.48 87.936 81.816 87.96 81.944 88.008C82.152 88.088 82.264 88.28 82.28 88.584C82.296 88.808 82.272 89.328 82.208 90.144C82.192 90.256 82.184 90.336 82.184 90.384C82.04 92.016 81.888 93.168 81.728 93.84C81.552 94.608 81.288 95.112 80.936 95.352C80.616 95.576 80.104 95.664 79.4 95.616C79.32 95.616 79.192 95.608 79.016 95.592C78.6 95.56 78.328 95.544 78.2 95.544C77.864 95.528 77.688 95.544 77.672 95.592C77.64 95.656 77.664 95.72 77.744 95.784C77.824 95.832 78 95.896 78.272 95.976C79.36 96.296 79.904 96.864 79.904 97.68C79.904 97.824 79.928 97.904 79.976 97.92ZM123.344 97.08C124.208 97.784 124.64 97.984 124.64 97.68C124.64 97.424 124.824 97.088 125.192 96.672C125.56 96.256 125.928 95.96 126.296 95.784C126.568 95.656 126.696 95.552 126.68 95.472C126.68 95.376 126.528 95.264 126.224 95.136C124.944 94.624 123.704 93.872 122.504 92.88C122.12 92.56 121.904 92.312 121.856 92.136C121.824 91.944 121.92 91.648 122.144 91.248C123.12 89.584 123.88 87.68 124.424 85.536C124.568 84.96 124.688 84.584 124.784 84.408C124.88 84.232 125.032 84.12 125.24 84.072C125.528 83.992 125.64 83.864 125.576 83.688C125.512 83.496 125.232 83.168 124.736 82.704C124.24 82.208 123.92 81.952 123.776 81.936C123.632 81.904 123.384 82.064 123.032 82.416C122.984 82.464 122.928 82.52 122.864 82.584C122.608 82.856 122.368 83.016 122.144 83.064C121.92 83.112 121.272 83.136 120.2 83.136C119.896 83.136 119.656 83.136 119.48 83.136C119.256 83.136 118.952 83.136 118.568 83.136C117.752 83.152 117.232 83.136 117.008 83.088C116.704 83.04 116.512 82.896 116.432 82.656C116.384 82.496 116.368 82.096 116.384 81.456C116.384 81.168 116.384 80.944 116.384 80.784C116.384 80.592 116.376 80.328 116.36 79.992C116.344 79.416 116.376 79.048 116.456 78.888C116.568 78.664 116.848 78.528 117.296 78.48C117.616 78.448 118.392 78.432 119.624 78.432C120.312 78.432 120.864 78.432 121.28 78.432C123.04 78.416 124.16 78.408 124.64 78.408C125.296 78.392 125.712 78.368 125.888 78.336C126 78.304 126.072 78.232 126.104 78.12C126.184 77.864 125.744 77.36 124.784 76.608C124.368 76.272 124.104 76.112 123.992 76.128C123.88 76.128 123.672 76.344 123.368 76.776L123.344 76.824C123.312 76.872 123.272 76.928 123.224 76.992C122.984 77.376 122.736 77.6 122.48 77.664C122.224 77.728 121.48 77.76 120.248 77.76C119.976 77.76 119.768 77.76 119.624 77.76C119.48 77.76 119.28 77.76 119.024 77.76C117.904 77.76 117.2 77.744 116.912 77.712C116.64 77.664 116.232 77.528 115.688 77.304C115.544 77.24 115.424 77.192 115.328 77.16C115.28 77.144 115.208 77.112 115.112 77.064C114.68 76.888 114.432 76.816 114.368 76.848C114.304 76.864 114.28 77.024 114.296 77.328C114.312 77.392 114.32 77.44 114.32 77.472C114.368 78.064 114.392 78.808 114.392 79.704C114.408 80.6 114.392 81.112 114.344 81.24C114.28 81.416 114.192 81.48 114.08 81.432C113.984 81.384 113.728 81.16 113.312 80.76L113.288 80.736C112.792 80.256 112.472 80.016 112.328 80.016C112.2 80 111.984 80.216 111.68 80.664C111.344 81.128 111.096 81.36 110.936 81.36C110.712 81.36 110.6 80.68 110.6 79.32C110.6 77.944 110.72 77.176 110.96 77.016C111.232 76.84 111.2 76.664 110.864 76.488C110.544 76.312 109.872 76.096 108.848 75.84C108.592 75.76 108.44 75.744 108.392 75.792C108.36 75.824 108.36 75.992 108.392 76.296C108.568 77.64 108.64 78.816 108.608 79.824C108.592 80.816 108.48 81.368 108.272 81.48C108.16 81.544 107.672 81.568 106.808 81.552C105.96 81.52 105.376 81.464 105.056 81.384C104.88 81.336 104.904 81.536 105.128 81.984L105.152 82.008C105.296 82.28 105.384 82.432 105.416 82.464C105.464 82.496 105.552 82.488 105.68 82.44H105.728C106.112 82.344 106.528 82.28 106.976 82.248C107.424 82.2 107.72 82.208 107.864 82.272C108.008 82.336 108.088 82.464 108.104 82.656C108.12 82.832 108.088 83.136 108.008 83.568C107.32 86.848 106.32 89.544 105.008 91.656C104.848 91.928 104.76 92.104 104.744 92.184C104.728 92.248 104.752 92.312 104.816 92.376C104.928 92.472 105.264 92.208 105.824 91.584C106.4 90.944 106.976 90.192 107.552 89.328C107.872 88.832 108.096 88.536 108.224 88.44C108.368 88.344 108.472 88.4 108.536 88.608C108.6 88.8 108.624 89.808 108.608 91.632C108.576 93.44 108.52 95.008 108.44 96.336C108.392 96.944 108.368 97.336 108.368 97.512C108.368 97.592 108.416 97.68 108.512 97.776C108.608 97.872 108.704 97.936 108.8 97.968C109.04 98.032 109.36 98 109.76 97.872C110.176 97.744 110.472 97.584 110.648 97.392C110.728 97.328 110.768 97.232 110.768 97.104C110.768 96.976 110.752 96.56 110.72 95.856C110.672 94.88 110.64 93.008 110.624 90.24C110.624 87.52 110.64 86.088 110.672 85.944C110.752 85.736 110.848 85.664 110.96 85.728C111.072 85.792 111.216 86.008 111.392 86.376C111.504 86.6 111.624 86.92 111.752 87.336C111.896 87.736 111.968 87.984 111.968 88.08C111.968 88.352 112.144 88.544 112.496 88.656C112.864 88.752 113.16 88.696 113.384 88.488C113.864 88.04 113.904 87.432 113.504 86.664C113.104 85.896 112.4 85.232 111.392 84.672C111.04 84.48 110.824 84.312 110.744 84.168C110.664 84.024 110.624 83.736 110.624 83.304C110.624 83.288 110.624 83.264 110.624 83.232C110.624 82.736 110.688 82.448 110.816 82.368C110.96 82.288 111.448 82.24 112.28 82.224C112.328 82.224 112.368 82.224 112.4 82.224C112.432 82.224 112.472 82.224 112.52 82.224C113.4 82.208 113.888 82.168 113.984 82.104C114.096 82.04 114.176 82.024 114.224 82.056C114.272 82.088 114.32 82.184 114.368 82.344C114.4 82.472 114.408 83.208 114.392 84.552C114.376 85.896 114.352 86.712 114.32 87C114.288 87.32 114.256 87.72 114.224 88.2C114.128 89.848 113.856 91.48 113.408 93.096C112.976 94.712 112.416 96.12 111.728 97.32C111.584 97.56 111.504 97.712 111.488 97.776C111.488 97.84 111.528 97.888 111.608 97.92C111.752 98 112.112 97.68 112.688 96.96C113.28 96.256 113.784 95.528 114.2 94.776C114.856 93.576 115.352 92.248 115.688 90.792C116.024 89.336 116.248 87.552 116.36 85.44V85.392C116.392 84.736 116.424 84.344 116.456 84.216C116.504 84.072 116.6 83.976 116.744 83.928C116.92 83.864 117.056 83.904 117.152 84.048C117.248 84.192 117.328 84.48 117.392 84.912C117.712 87.136 118.256 89.216 119.024 91.152C119.28 91.744 119.384 92.152 119.336 92.376C119.288 92.584 119.008 93.008 118.496 93.648C117.312 95.12 115.912 96.344 114.296 97.32L114.272 97.344C114.032 97.488 113.888 97.576 113.84 97.608C113.808 97.656 113.808 97.712 113.84 97.776C113.968 98 114.704 97.728 116.048 96.96C117.408 96.208 118.48 95.472 119.264 94.752C119.792 94.256 120.136 94.008 120.296 94.008C120.456 94.024 120.72 94.28 121.088 94.776C121.728 95.608 122.48 96.376 123.344 97.08ZM120.632 90C120.36 90.304 119.952 89.968 119.408 88.992C118.88 88 118.416 86.728 118.016 85.176C118.016 85.144 118.008 85.104 117.992 85.056C117.864 84.592 117.816 84.296 117.848 84.168C117.88 84.008 118.04 83.904 118.328 83.856C118.552 83.824 119.072 83.808 119.888 83.808C120 83.808 120.08 83.808 120.128 83.808C121.184 83.808 121.808 83.824 122 83.856C122.192 83.888 122.32 83.992 122.384 84.168C122.48 84.472 122.28 85.448 121.784 87.096C121.304 88.728 120.92 89.696 120.632 90ZM141.584 89.76C141.696 89.968 141.832 90.056 141.992 90.024C142.152 89.976 142.448 89.784 142.88 89.448C143.792 88.744 144.448 87.808 144.848 86.64C145.232 85.536 145.28 84.576 144.992 83.76C144.704 82.88 144.12 82.464 143.24 82.512C142.648 82.544 142.216 82.768 141.944 83.184C141.704 83.584 141.664 84.04 141.824 84.552C142 85.08 142.368 85.512 142.928 85.848C143.248 86.04 143.44 86.192 143.504 86.304C143.584 86.4 143.608 86.544 143.576 86.736C143.512 87.104 143.304 87.528 142.952 88.008C142.6 88.472 142.2 88.856 141.752 89.16C141.576 89.288 141.48 89.376 141.464 89.424C141.448 89.472 141.488 89.584 141.584 89.76ZM174.896 97.944C174.928 98.024 175.28 98 175.952 97.872C176.64 97.744 177.168 97.528 177.536 97.224C177.904 96.936 178.152 96.528 178.28 96C178.344 95.808 178.384 93.056 178.4 87.744C178.4 87.52 178.4 87.352 178.4 87.24C178.416 81.608 178.448 78.76 178.496 78.696C178.576 78.568 178.696 78.488 178.856 78.456C179.032 78.424 179.488 78.4 180.224 78.384C181.296 78.368 181.848 78.256 181.88 78.048C181.912 77.824 181.44 77.336 180.464 76.584C180.448 76.568 180.416 76.544 180.368 76.512C179.872 76.112 179.552 75.92 179.408 75.936C179.264 75.952 179.016 76.2 178.664 76.68C178.616 76.728 178.584 76.768 178.568 76.8C178.168 77.312 177.872 77.6 177.68 77.664C177.52 77.696 174.968 77.712 170.024 77.712C164.824 77.712 161.736 77.672 160.76 77.592C160.552 77.56 160.44 77.576 160.424 77.64C160.408 77.688 160.48 77.872 160.64 78.192C160.656 78.224 160.672 78.256 160.688 78.288C160.8 78.512 160.888 78.64 160.952 78.672C161.016 78.704 161.2 78.696 161.504 78.648C162.24 78.52 162.936 78.448 163.592 78.432C164.264 78.416 166.216 78.408 169.448 78.408C169.768 78.408 170.216 78.408 170.792 78.408C173.352 78.392 174.848 78.4 175.28 78.432C175.728 78.448 175.984 78.52 176.048 78.648L176.072 78.696C176.152 78.808 176.192 81.52 176.192 86.832C176.192 92.144 176.152 94.872 176.072 95.016C175.96 95.224 175.744 95.344 175.424 95.376C175.12 95.392 174.296 95.36 172.952 95.28C172.152 95.232 171.688 95.208 171.56 95.208C171.416 95.224 171.344 95.264 171.344 95.328C171.344 95.424 171.504 95.504 171.824 95.568C173.664 95.872 174.664 96.568 174.824 97.656L174.848 97.704C174.864 97.832 174.88 97.912 174.896 97.944ZM163.232 93.096C163.552 93.272 163.976 93.232 164.504 92.976C165.048 92.704 165.304 92.4 165.272 92.064C165.272 92.048 165.272 92.016 165.272 91.968C165.208 91.344 165.2 90.952 165.248 90.792C165.296 90.552 165.488 90.408 165.824 90.36C166.048 90.312 166.6 90.288 167.48 90.288C167.528 90.288 167.56 90.288 167.576 90.288C167.608 90.288 167.664 90.288 167.744 90.288C168.544 90.288 169.056 90.296 169.28 90.312C169.584 90.344 169.768 90.432 169.832 90.576C169.88 90.672 169.896 90.888 169.88 91.224V91.296C169.848 91.808 169.968 92.112 170.24 92.208C170.512 92.288 170.992 92.168 171.68 91.848L171.728 91.824C171.984 91.696 172.128 91.576 172.16 91.464C172.192 91.352 172.192 91.024 172.16 90.48C172.128 89.904 172.104 88.704 172.088 86.88C172.056 85.072 172.056 84.104 172.088 83.976C172.152 83.704 172.328 83.504 172.616 83.376C172.872 83.248 172.984 83.128 172.952 83.016C172.92 82.904 172.72 82.664 172.352 82.296C171.696 81.656 171.264 81.304 171.056 81.24C170.848 81.176 170.608 81.32 170.336 81.672C170.304 81.72 170.256 81.784 170.192 81.864C169.952 82.184 169.736 82.376 169.544 82.44C169.352 82.488 168.824 82.512 167.96 82.512C167.736 82.512 167.568 82.512 167.456 82.512C167.344 82.512 167.184 82.512 166.976 82.512C166.144 82.512 165.616 82.496 165.392 82.464C165.168 82.416 164.792 82.28 164.264 82.056C164.168 82.024 164.088 81.992 164.024 81.96C163.976 81.928 163.896 81.896 163.784 81.864C163.336 81.656 163.072 81.56 162.992 81.576C162.928 81.592 162.912 81.752 162.944 82.056C162.96 82.12 162.968 82.168 162.968 82.2C163.096 83.336 163.168 84.864 163.184 86.784C163.2 88.688 163.152 90.424 163.04 91.992C163.008 92.408 163 92.68 163.016 92.808C163.048 92.936 163.12 93.032 163.232 93.096ZM167.576 89.64C166.312 89.64 165.616 89.592 165.488 89.496C165.344 89.4 165.256 89.216 165.224 88.944C165.208 88.672 165.2 87.792 165.2 86.304C165.2 86.08 165.2 85.768 165.2 85.368C165.2 84.552 165.216 84.032 165.248 83.808C165.312 83.504 165.464 83.312 165.704 83.232C165.864 83.184 166.256 83.168 166.88 83.184C167.168 83.184 167.4 83.184 167.576 83.184C167.752 83.184 167.984 83.184 168.272 83.184C168.896 83.168 169.288 83.184 169.448 83.232C169.688 83.312 169.84 83.504 169.904 83.808C169.936 84.032 169.952 84.552 169.952 85.368C169.952 85.768 169.952 86.08 169.952 86.304C169.952 87.792 169.936 88.672 169.904 88.944C169.888 89.216 169.808 89.4 169.664 89.496C169.552 89.592 168.856 89.64 167.576 89.64ZM193.52 97.824C193.568 97.936 193.728 97.952 194 97.872C194.288 97.808 194.904 97.592 195.848 97.224C198.696 96.152 201.072 94.688 202.976 92.832C203.392 92.448 203.664 92.224 203.792 92.16C203.984 92.064 204.184 92.104 204.392 92.28C204.536 92.424 204.832 92.792 205.28 93.384C206.128 94.52 206.8 95.576 207.296 96.552C207.552 97.048 207.728 97.352 207.824 97.464C207.936 97.592 208.12 97.68 208.376 97.728C208.936 97.84 209.32 97.632 209.528 97.104C209.752 96.592 209.712 95.984 209.408 95.28C208.864 93.936 207.6 92.728 205.616 91.656C205.104 91.368 204.816 91.152 204.752 91.008C204.704 90.848 204.8 90.544 205.04 90.096C205.776 88.752 206.304 87.312 206.624 85.776C206.96 84.24 207.2 82.136 207.344 79.464C207.36 78.888 207.392 78.504 207.44 78.312C207.504 78.12 207.608 77.984 207.752 77.904C208.056 77.728 208.048 77.584 207.728 77.472C207.408 77.344 206.712 77.224 205.64 77.112C205.224 77.064 204.968 77.048 204.872 77.064C204.776 77.08 204.744 77.128 204.776 77.208C204.872 77.48 204.904 78.56 204.872 80.448C204.808 84.592 203.96 87.96 202.328 90.552C200.696 93.128 198.04 95.336 194.36 97.176C193.896 97.4 193.632 97.536 193.568 97.584C193.504 97.648 193.488 97.728 193.52 97.824ZM189.344 96C189.424 96.08 189.536 96.048 189.68 95.904C189.856 95.68 190.056 95.504 190.28 95.376C190.504 95.232 191.04 94.944 191.888 94.512C193.648 93.632 195.352 92.72 197 91.776C198.648 90.816 199.488 90.272 199.52 90.144C199.536 90.032 199.424 90.008 199.184 90.072C198.96 90.12 198.192 90.36 196.88 90.792C195.52 91.24 194.68 91.504 194.36 91.584C194.056 91.664 193.848 91.664 193.736 91.584C193.64 91.488 193.576 91.128 193.544 90.504C193.512 89.8 193.48 87.832 193.448 84.6C193.448 84.264 193.44 83.8 193.424 83.208C193.392 81.272 193.384 80.04 193.4 79.512C193.4 78.776 193.416 78.304 193.448 78.096C193.48 77.952 193.552 77.84 193.664 77.76L193.712 77.712C193.92 77.536 193.944 77.416 193.784 77.352C193.624 77.272 193.216 77.2 192.56 77.136C191.664 77.056 191.216 77.064 191.216 77.16C191.184 77.304 191.208 79.736 191.288 84.456C191.288 84.712 191.296 85.072 191.312 85.536C191.36 88.864 191.384 90.816 191.384 91.392C191.384 91.952 191.352 92.272 191.288 92.352C191.144 92.592 190.296 92.904 188.744 93.288C188.392 93.368 188.216 93.432 188.216 93.48C188.2 93.496 188.368 93.904 188.72 94.704C189.088 95.488 189.296 95.92 189.344 96ZM199.856 85.704C200.4 85.88 200.808 85.744 201.08 85.296C201.352 84.848 201.368 84.288 201.128 83.616C200.632 82.192 199.232 81.016 196.928 80.088C196.416 79.896 196.136 79.832 196.088 79.896C196.056 79.96 196.216 80.208 196.568 80.64C197.832 82.24 198.704 83.688 199.184 84.984C199.344 85.368 199.568 85.608 199.856 85.704ZM220.76 97.968C220.792 98.064 221.064 98.064 221.576 97.968C222.088 97.872 222.496 97.744 222.8 97.584C223.328 97.312 223.744 96.768 224.048 95.952C224.352 95.12 224.568 93.952 224.696 92.448C224.728 92.096 224.784 91.848 224.864 91.704C224.96 91.544 225.112 91.416 225.32 91.32C225.624 91.192 225.712 91.064 225.584 90.936C225.552 90.904 225.536 90.856 225.536 90.792C225.536 90.696 225.264 90.448 224.72 90.048C224.192 89.632 223.864 89.424 223.736 89.424C223.656 89.424 223.48 89.576 223.208 89.88C222.776 90.328 222.192 90.576 221.456 90.624C220.736 90.656 220.328 90.464 220.232 90.048C220.2 89.904 220.232 89.576 220.328 89.064C220.44 88.536 220.536 88.224 220.616 88.128C220.84 87.888 221.272 87.808 221.912 87.888C222.568 87.952 222.896 88.112 222.896 88.368C222.896 88.672 223.304 88.72 224.12 88.512C224.52 88.4 224.76 88.296 224.84 88.2C224.92 88.088 224.944 87.824 224.912 87.408C224.8 85.584 224.92 84.672 225.272 84.672C225.576 84.672 225.688 84.544 225.608 84.288C225.528 84.032 225.28 83.672 224.864 83.208C224.512 82.856 224.28 82.672 224.168 82.656C224.056 82.64 223.896 82.768 223.688 83.04C223.48 83.344 223.304 83.544 223.16 83.64C223.016 83.72 222.808 83.76 222.536 83.76C222.168 83.76 221.968 83.696 221.936 83.568C221.904 83.44 222.048 83.232 222.368 82.944C223.728 81.696 224.776 80.512 225.512 79.392C226.024 78.656 226.368 78.288 226.544 78.288C226.96 78.272 227.08 78.104 226.904 77.784C226.744 77.464 226.304 77.024 225.584 76.464C225.296 76.24 225.096 76.144 224.984 76.176C224.888 76.192 224.664 76.368 224.312 76.704C223.928 77.072 223.272 77.296 222.344 77.376C221.432 77.456 220.136 77.408 218.456 77.232C218.2 77.2 218.056 77.208 218.024 77.256C218.008 77.304 218.08 77.488 218.24 77.808C218.256 77.84 218.272 77.88 218.288 77.928C218.4 78.136 218.504 78.256 218.6 78.288C218.696 78.32 218.96 78.304 219.392 78.24C219.52 78.224 219.624 78.208 219.704 78.192C220.12 78.144 220.744 78.104 221.576 78.072C222.424 78.04 222.92 78.04 223.064 78.072C223.304 78.136 223.4 78.296 223.352 78.552C223.304 78.792 223.088 79.216 222.704 79.824C222.352 80.416 222.08 80.76 221.888 80.856C221.712 80.952 221.552 80.84 221.408 80.52C221.104 79.896 220.504 79.472 219.608 79.248C218.84 79.056 218.368 79 218.192 79.08C218.016 79.144 218.112 79.352 218.48 79.704C218.768 80.008 219.048 80.368 219.32 80.784C219.592 81.184 219.728 81.464 219.728 81.624C219.728 81.688 219.768 81.76 219.848 81.84C219.944 81.92 220.04 81.968 220.136 81.984C220.44 82.08 220.568 82.224 220.52 82.416C220.488 82.592 220.264 82.872 219.848 83.256C218.92 84.104 217.872 84.864 216.704 85.536C216.672 85.552 216.632 85.576 216.584 85.608C216.344 85.736 216.208 85.824 216.176 85.872C216.144 85.904 216.136 85.952 216.152 86.016C216.232 86.256 217.24 85.904 219.176 84.96C219.88 84.624 220.624 84.432 221.408 84.384C222.208 84.336 222.68 84.456 222.824 84.744C222.888 84.872 222.912 85.24 222.896 85.848C222.896 86.456 222.864 86.816 222.8 86.928C222.656 87.232 222.312 87.36 221.768 87.312C221.224 87.264 220.544 87.04 219.728 86.64C219.664 86.608 219.584 86.568 219.488 86.52C219.056 86.312 218.8 86.216 218.72 86.232C218.656 86.232 218.624 86.384 218.624 86.688C218.624 86.736 218.624 86.776 218.624 86.808C218.624 88.008 218.44 89.544 218.072 91.416C218.008 91.768 217.984 91.984 218 92.064C218.032 92.128 218.152 92.176 218.36 92.208C218.776 92.288 219.12 92.288 219.392 92.208C219.664 92.128 219.832 91.984 219.896 91.776C219.976 91.504 220.104 91.336 220.28 91.272C220.456 91.192 220.84 91.152 221.432 91.152C222.12 91.152 222.52 91.232 222.632 91.392C222.76 91.536 222.776 92 222.68 92.784C222.552 93.824 222.416 94.52 222.272 94.872C222.096 95.304 221.816 95.576 221.432 95.688C221.112 95.768 220.512 95.768 219.632 95.688C219.04 95.64 218.696 95.616 218.6 95.616C218.504 95.616 218.44 95.64 218.408 95.688C218.376 95.816 218.56 95.944 218.96 96.072C220.064 96.344 220.648 96.88 220.712 97.68C220.744 97.84 220.76 97.936 220.76 97.968ZM223.856 97.872C224.016 98 224.696 97.88 225.896 97.512C227.096 97.144 228.152 96.736 229.064 96.288C229.128 96.256 229.216 96.216 229.328 96.168C229.792 95.928 230.104 95.816 230.264 95.832C230.424 95.832 230.744 95.984 231.224 96.288C231.304 96.336 231.368 96.376 231.416 96.408C232.376 96.984 233.544 97.456 234.92 97.824C235.24 97.904 235.424 97.936 235.472 97.92C235.536 97.92 235.592 97.832 235.64 97.656C235.912 96.872 236.336 96.32 236.912 96C237.184 95.856 237.288 95.76 237.224 95.712C237.16 95.648 236.896 95.584 236.432 95.52C235.344 95.376 234.4 95.2 233.6 94.992C232.8 94.768 232.352 94.576 232.256 94.416C232.208 94.32 232.208 94.216 232.256 94.104C232.32 93.992 232.472 93.792 232.712 93.504C233.32 92.768 233.72 92.208 233.912 91.824C233.992 91.68 234.104 91.536 234.248 91.392C234.392 91.248 234.52 91.168 234.632 91.152C234.856 91.088 234.944 90.992 234.896 90.864C234.864 90.72 234.664 90.464 234.296 90.096C233.88 89.68 233.688 89.416 233.72 89.304C233.768 89.176 234.064 89.08 234.608 89.016C235.168 88.952 235.56 88.864 235.784 88.752C236.008 88.624 236.144 88.424 236.192 88.152C236.24 87.88 236.168 87.648 235.976 87.456C235.752 87.248 235.616 86.904 235.568 86.424C235.52 85.704 235.368 85.688 235.112 86.376C234.952 86.824 234.648 87.144 234.2 87.336C233.768 87.512 233.344 87.488 232.928 87.264C232.752 87.184 232.632 86.808 232.568 86.136C232.52 85.448 232.568 85 232.712 84.792C232.904 84.52 233.112 84.4 233.336 84.432C233.576 84.448 233.992 84.632 234.584 84.984C235.352 85.416 235.776 85.632 235.856 85.632C235.888 85.632 235.944 85.544 236.024 85.368C236.168 85.032 236.368 84.728 236.624 84.456C236.896 84.168 237.168 83.968 237.44 83.856C237.712 83.744 237.816 83.656 237.752 83.592C237.688 83.512 237.4 83.384 236.888 83.208C235.256 82.648 234.272 82.216 233.936 81.912C233.6 81.608 233.76 81.288 234.416 80.952C234.48 80.92 234.6 80.856 234.776 80.76C235.176 80.552 235.456 80.4 235.616 80.304C236.064 80.048 236.344 79.92 236.456 79.92C236.776 79.92 236.832 79.8 236.624 79.56C236.416 79.32 235.912 78.928 235.112 78.384C235.096 78.368 235.072 78.352 235.04 78.336C234.832 78.192 234.696 78.136 234.632 78.168C234.568 78.184 234.464 78.344 234.32 78.648C234.304 78.696 234.288 78.736 234.272 78.768C233.68 79.952 233.216 80.64 232.88 80.832C232.544 81.024 232.064 80.872 231.44 80.376C230.976 80.008 230.752 79.744 230.768 79.584C230.8 79.424 231.096 79.192 231.656 78.888C232.2 78.6 232.568 78.392 232.76 78.264C233.368 77.896 233.728 77.712 233.84 77.712C234.192 77.712 234.28 77.608 234.104 77.4C233.928 77.176 233.456 76.792 232.688 76.248C232.384 76.04 232.192 75.944 232.112 75.96C232.048 75.976 231.944 76.128 231.8 76.416C231.544 76.976 231.216 77.512 230.816 78.024C230.432 78.52 230.16 78.768 230 78.768C229.792 78.768 229.512 78.552 229.16 78.12C228.808 77.688 228.456 77.12 228.104 76.416C227.944 76.128 227.84 75.96 227.792 75.912C227.76 75.864 227.712 75.856 227.648 75.888C227.392 76.032 227.64 76.856 228.392 78.36C229.16 79.864 229.92 81.032 230.672 81.864C231.024 82.248 231.208 82.536 231.224 82.728C231.24 82.92 231.088 83.152 230.768 83.424C230.464 83.696 230.104 83.824 229.688 83.808C229.272 83.776 228.712 83.584 228.008 83.232C227.304 82.88 226.936 82.704 226.904 82.704C226.872 82.704 226.856 83.288 226.856 84.456C226.856 85.816 226.768 86.816 226.592 87.456C226.416 88.08 226.056 88.68 225.512 89.256C225.176 89.624 225.096 89.824 225.272 89.856C225.448 89.888 225.752 89.784 226.184 89.544C226.648 89.288 227.064 88.968 227.432 88.584C228.216 87.816 228.656 86.784 228.752 85.488C228.784 84.992 228.848 84.696 228.944 84.6C229.056 84.488 229.32 84.432 229.736 84.432C230.088 84.432 230.312 84.456 230.408 84.504C230.552 84.584 230.64 84.768 230.672 85.056C230.704 85.28 230.72 85.76 230.72 86.496C230.72 87.6 230.776 88.288 230.888 88.56C231 88.816 231.32 88.976 231.848 89.04C232.232 89.104 232.448 89.2 232.496 89.328C232.56 89.44 232.464 89.616 232.208 89.856C231.952 90.096 231.224 90.24 230.024 90.288C228.84 90.336 227.472 90.28 225.92 90.12C225.696 90.104 225.624 90.176 225.704 90.336C225.752 90.4 225.776 90.488 225.776 90.6C225.776 90.68 225.824 90.76 225.92 90.84C226 90.888 226.064 90.96 226.112 91.056C226.16 91.12 226.192 91.152 226.208 91.152C226.24 91.152 226.288 91.136 226.352 91.104C226.816 90.832 227.2 91.048 227.504 91.752C227.824 92.472 228.16 93.112 228.512 93.672C228.736 94.008 228.872 94.232 228.92 94.344C228.968 94.456 228.976 94.568 228.944 94.68C228.848 94.984 228.328 95.424 227.384 96C226.44 96.56 225.48 97.024 224.504 97.392C224.152 97.52 223.936 97.608 223.856 97.656C223.776 97.72 223.776 97.792 223.856 97.872ZM230.36 93.264C230.2 93.376 230.024 93.392 229.832 93.312C229.656 93.216 229.384 92.992 229.016 92.64C228.232 91.888 227.888 91.408 227.984 91.2C228.096 90.992 228.728 90.896 229.88 90.912C230.664 90.928 231.136 90.96 231.296 91.008C231.456 91.04 231.536 91.152 231.536 91.344C231.536 91.52 231.384 91.856 231.08 92.352C230.776 92.848 230.536 93.152 230.36 93.264ZM245.864 97.944C246.04 98.008 246.304 98.008 246.656 97.944C247.024 97.88 247.304 97.784 247.496 97.656C247.656 97.56 247.752 97.472 247.784 97.392C247.832 97.312 247.848 97.144 247.832 96.888C247.784 96.44 247.856 96.136 248.048 95.976C248.144 95.896 250.328 95.856 254.6 95.856C258.888 95.84 261.096 95.872 261.224 95.952C261.368 96.016 261.456 96.104 261.488 96.216C261.52 96.344 261.528 96.568 261.512 96.888C261.496 97.352 261.584 97.632 261.776 97.728C261.968 97.84 262.344 97.808 262.904 97.632C263.4 97.472 263.688 97.32 263.768 97.176C263.848 97.048 263.872 96.696 263.84 96.12C263.616 91.672 263.688 89.304 264.056 89.016C264.264 88.856 264.232 88.704 263.96 88.56C263.704 88.416 263.112 88.224 262.184 87.984C261.752 87.872 261.496 87.816 261.416 87.816C261.336 87.832 261.304 87.904 261.32 88.032C261.448 88.832 261.528 90.136 261.56 91.944C261.608 93.736 261.576 94.72 261.464 94.896C261.368 95.04 261.2 95.128 260.96 95.16C260.736 95.176 259.96 95.184 258.632 95.184C258.376 95.184 258.04 95.192 257.624 95.208C256.888 95.224 256.424 95.192 256.232 95.112C255.96 95.016 255.792 94.752 255.728 94.32C255.68 94.016 255.664 93.296 255.68 92.16C255.68 91.488 255.68 90.952 255.68 90.552C255.68 90.152 255.68 89.616 255.68 88.944C255.664 87.728 255.672 86.96 255.704 86.64C255.768 86.192 255.912 85.912 256.136 85.8C256.296 85.72 256.68 85.688 257.288 85.704C257.608 85.72 257.864 85.728 258.056 85.728C258.92 85.728 259.48 85.736 259.736 85.752C260.072 85.784 260.28 85.856 260.36 85.968C260.424 86.048 260.44 86.216 260.408 86.472C260.376 86.824 260.576 87.016 261.008 87.048C261.44 87.08 261.912 86.936 262.424 86.616L262.448 86.592C262.576 86.512 262.648 86.4 262.664 86.256C262.68 86.112 262.672 85.64 262.64 84.84V84.768C262.56 82.688 262.536 81.296 262.568 80.592C262.6 79.872 262.712 79.424 262.904 79.248C263.112 79.072 263.088 78.92 262.832 78.792C262.576 78.648 261.976 78.448 261.032 78.192C261 78.192 260.96 78.184 260.912 78.168C260.544 78.072 260.328 78.04 260.264 78.072C260.216 78.104 260.208 78.28 260.24 78.6C260.256 78.648 260.264 78.688 260.264 78.72C260.376 79.696 260.44 80.912 260.456 82.368C260.488 83.808 260.456 84.608 260.36 84.768C260.28 84.912 260.144 85 259.952 85.032C259.76 85.048 259.136 85.056 258.08 85.056C257.888 85.056 257.632 85.056 257.312 85.056C256.704 85.072 256.32 85.048 256.16 84.984C255.936 84.904 255.8 84.672 255.752 84.288C255.704 84.032 255.688 83.4 255.704 82.392C255.704 81.864 255.704 81.448 255.704 81.144C255.704 79.24 255.72 78.12 255.752 77.784C255.784 77.448 255.896 77.216 256.088 77.088C256.312 76.944 256.272 76.792 255.968 76.632C255.664 76.472 255.016 76.264 254.024 76.008C253.992 76.008 253.952 76 253.904 75.984C253.552 75.888 253.352 75.864 253.304 75.912C253.256 75.944 253.248 76.104 253.28 76.392C253.296 76.44 253.304 76.48 253.304 76.512C253.416 77.472 253.48 79.048 253.496 81.24C253.528 83.416 253.496 84.584 253.4 84.744C253.32 84.904 253.184 85 252.992 85.032C252.8 85.048 252.208 85.056 251.216 85.056C251.056 85.056 250.832 85.056 250.544 85.056C249.936 85.072 249.552 85.056 249.392 85.008C249.152 84.928 249.008 84.744 248.96 84.456C248.912 84.248 248.896 83.76 248.912 82.992C248.912 82.656 248.912 82.384 248.912 82.176C248.912 80.832 248.928 80.04 248.96 79.8C248.992 79.544 249.096 79.36 249.272 79.248C249.512 79.104 249.488 78.952 249.2 78.792C248.912 78.632 248.28 78.424 247.304 78.168C246.984 78.088 246.776 78.048 246.68 78.048C246.6 78.048 246.568 78.096 246.584 78.192C246.712 78.592 246.792 79.712 246.824 81.552C246.856 83.424 246.824 85.04 246.728 86.4C246.696 86.768 246.752 87 246.896 87.096C247.056 87.192 247.368 87.192 247.832 87.096C248.552 86.952 248.912 86.696 248.912 86.328C248.912 86.088 249.008 85.912 249.2 85.8C249.312 85.736 249.984 85.712 251.216 85.728C252.464 85.728 253.144 85.768 253.256 85.848C253.384 85.944 253.456 86.192 253.472 86.592C253.504 86.976 253.52 88.296 253.52 90.552C253.52 90.952 253.52 91.48 253.52 92.136C253.52 93.288 253.504 94.016 253.472 94.32C253.408 94.752 253.24 95.016 252.968 95.112C252.792 95.192 252.352 95.224 251.648 95.208C251.232 95.192 250.904 95.184 250.664 95.184C250.44 95.184 250.136 95.184 249.752 95.184C249.016 95.2 248.552 95.184 248.36 95.136C248.088 95.072 247.92 94.888 247.856 94.584C247.808 94.376 247.792 93.872 247.808 93.072C247.808 92.656 247.808 92.32 247.808 92.064C247.824 90.624 247.84 89.776 247.856 89.52C247.888 89.264 247.976 89.104 248.12 89.04C248.392 88.896 248.36 88.736 248.024 88.56C247.704 88.384 247.032 88.168 246.008 87.912C245.704 87.832 245.528 87.808 245.48 87.84C245.448 87.872 245.448 88.016 245.48 88.272V88.344C245.576 89.128 245.632 90.512 245.648 92.496C245.68 94.464 245.664 95.912 245.6 96.84C245.568 97.288 245.56 97.568 245.576 97.68C245.608 97.792 245.704 97.88 245.864 97.944ZM279.392 97.896C279.472 97.992 279.672 97.92 279.992 97.68C281.128 96.8 282.064 95.632 282.8 94.176C283.056 93.632 283.256 93.36 283.4 93.36C283.544 93.344 283.728 93.592 283.952 94.104C284.448 95.224 285.072 96.04 285.824 96.552C286.592 97.064 287.616 97.36 288.896 97.44C289.44 97.472 290.16 97.488 291.056 97.488C291.952 97.488 292.408 97.472 292.424 97.44C292.44 97.408 292.48 97.248 292.544 96.96C292.672 96.368 292.856 95.992 293.096 95.832C293.336 95.672 293.456 95.568 293.456 95.52C293.44 95.472 293.248 95.432 292.88 95.4C292.624 95.4 291.968 95.392 290.912 95.376C290.704 95.376 290.416 95.376 290.048 95.376C289.248 95.376 288.744 95.352 288.536 95.304C288.248 95.24 288.064 95.064 287.984 94.776C287.936 94.584 287.92 94.112 287.936 93.36C287.936 93.008 287.936 92.728 287.936 92.52C287.936 92.312 287.936 92.032 287.936 91.68C287.92 90.96 287.936 90.504 287.984 90.312C288.032 90.056 288.176 89.896 288.416 89.832C288.576 89.784 288.976 89.76 289.616 89.76C289.936 89.76 290.192 89.76 290.384 89.76C291.488 89.744 292.144 89.728 292.352 89.712C292.56 89.68 292.696 89.608 292.76 89.496C292.824 89.4 292.808 89.288 292.712 89.16C292.632 89.016 292.416 88.776 292.064 88.44C291.456 87.848 291.064 87.544 290.888 87.528C290.712 87.496 290.464 87.712 290.144 88.176C289.872 88.576 289.656 88.832 289.496 88.944C289.336 89.04 289.096 89.088 288.776 89.088C288.472 89.088 288.272 89.056 288.176 88.992C288.064 88.912 287.992 88.696 287.96 88.344C287.944 88.088 287.936 87.488 287.936 86.544C287.936 86.512 287.936 86.456 287.936 86.376C287.936 85.496 287.944 84.936 287.96 84.696C288.008 84.376 288.096 84.176 288.224 84.096C288.32 84.032 288.544 84 288.896 84C288.944 84 288.976 84 288.992 84C289.536 84 289.84 84.096 289.904 84.288C289.984 84.464 289.888 84.952 289.616 85.752C289.424 86.344 289.336 86.704 289.352 86.832C289.368 86.976 289.528 86.928 289.832 86.688C290.072 86.496 290.576 86.032 291.344 85.296C292 84.656 292.432 84.336 292.64 84.336C293.008 84.336 293.104 84.16 292.928 83.808C292.752 83.44 292.36 83.008 291.752 82.512C291.496 82.32 291.32 82.232 291.224 82.248C291.144 82.264 290.952 82.416 290.648 82.704C290.616 82.736 290.568 82.784 290.504 82.848C290.264 83.088 290.024 83.232 289.784 83.28C289.544 83.312 288.816 83.328 287.6 83.328C287.328 83.328 287.12 83.328 286.976 83.328C285.248 83.328 284.144 83.312 283.664 83.28C283.008 83.232 282.656 83.136 282.608 82.992C282.576 82.864 282.728 82.6 283.064 82.2C283.144 82.104 283.288 81.92 283.496 81.648C283.576 81.552 283.632 81.48 283.664 81.432C283.968 81.016 284.2 80.768 284.36 80.688C284.44 80.64 285.76 80.608 288.32 80.592C288.496 80.592 288.632 80.592 288.728 80.592C290.904 80.576 292.176 80.56 292.544 80.544C292.928 80.528 293.16 80.464 293.24 80.352C293.32 80.224 293.192 79.968 292.856 79.584C292.52 79.184 292.088 78.784 291.56 78.384C291.304 78.208 291.12 78.152 291.008 78.216C290.896 78.264 290.68 78.52 290.36 78.984C290.344 79.016 290.312 79.064 290.264 79.128C289.992 79.528 289.744 79.76 289.52 79.824C289.312 79.888 288.672 79.92 287.6 79.92C287.456 79.92 287.344 79.92 287.264 79.92C287.184 79.92 287.064 79.92 286.904 79.92C286.104 79.904 285.608 79.888 285.416 79.872C285.128 79.824 284.992 79.712 285.008 79.536C285.008 79.424 285.12 79.144 285.344 78.696C285.376 78.616 285.4 78.56 285.416 78.528C285.48 78.384 285.56 78.208 285.656 78L285.776 77.736C285.776 77.672 285.848 77.56 285.992 77.4C286.136 77.224 286.256 77.112 286.352 77.064C286.608 76.936 286.608 76.8 286.352 76.656C286.112 76.496 285.504 76.248 284.528 75.912C284.032 75.736 283.744 75.648 283.664 75.648C283.568 75.648 283.52 75.736 283.52 75.912C283.52 76.376 283.384 77.16 283.112 78.264C282.856 79.352 282.648 80.016 282.488 80.256C282.36 80.464 282.216 80.536 282.056 80.472C281.896 80.392 281.536 80.104 280.976 79.608C280.928 79.576 280.872 79.52 280.808 79.44C280.424 79.104 280.184 78.936 280.088 78.936C279.992 78.92 279.848 79.056 279.656 79.344C279.608 79.408 279.568 79.464 279.536 79.512C278.816 80.584 278.264 80.856 277.88 80.328C277.736 80.12 277.688 79.568 277.736 78.672C277.8 77.76 277.912 77.224 278.072 77.064C278.264 76.872 278.248 76.72 278.024 76.608C277.8 76.48 277.192 76.288 276.2 76.032C276.168 76.032 276.128 76.024 276.08 76.008C275.696 75.896 275.472 75.856 275.408 75.888C275.36 75.92 275.352 76.088 275.384 76.392C275.384 76.424 275.384 76.456 275.384 76.488C275.48 77.256 275.536 78.056 275.552 78.888C275.584 79.704 275.56 80.168 275.48 80.28C275.288 80.584 274.344 80.656 272.648 80.496C272.168 80.464 271.912 80.44 271.88 80.424C271.736 80.424 271.784 80.64 272.024 81.072C272.12 81.296 272.2 81.424 272.264 81.456C272.328 81.472 272.488 81.448 272.744 81.384C272.792 81.368 272.824 81.36 272.84 81.36C273.4 81.2 273.776 81.144 273.968 81.192C274.208 81.24 274.36 81.44 274.424 81.792C274.488 82.08 274.52 82.664 274.52 83.544C274.504 86.808 274.288 89.496 273.872 91.608C273.456 93.72 272.784 95.56 271.856 97.128C271.728 97.352 271.656 97.504 271.64 97.584C271.624 97.664 271.648 97.736 271.712 97.8C271.792 97.88 271.848 97.92 271.88 97.92C271.944 97.92 272.176 97.688 272.576 97.224C272.992 96.76 273.32 96.344 273.56 95.976C273.976 95.352 274.248 95.104 274.376 95.232C274.392 95.28 274.576 95.36 274.928 95.472C275.36 95.616 275.672 95.792 275.864 96C276.056 96.224 276.184 96.552 276.248 96.984C276.28 97.24 276.36 97.384 276.488 97.416C276.616 97.464 276.888 97.44 277.304 97.344C278.056 97.152 278.632 96.752 279.032 96.144C279.464 95.488 279.792 94.456 280.016 93.048C280.224 91.72 280.376 89.776 280.472 87.216C280.504 86.608 280.552 86.216 280.616 86.04C280.68 85.864 280.84 85.72 281.096 85.608C281.32 85.496 281.432 85.4 281.432 85.32C281.448 85.24 281.352 85.088 281.144 84.864C281 84.72 280.88 84.568 280.784 84.408C280.688 84.28 280.536 84.16 280.328 84.048C280.2 83.984 280.016 83.88 279.776 83.736C279.616 83.656 279.496 83.632 279.416 83.664C279.336 83.696 279.176 83.848 278.936 84.12C278.664 84.424 278.456 84.608 278.312 84.672C278.168 84.736 277.92 84.768 277.568 84.768C277.104 84.768 276.832 84.704 276.752 84.576C276.672 84.448 276.632 84.024 276.632 83.304C276.632 83.192 276.632 83.032 276.632 82.824C276.648 82.232 276.68 81.856 276.728 81.696C276.808 81.472 276.992 81.328 277.28 81.264C277.488 81.232 277.984 81.216 278.768 81.216C279.008 81.216 279.192 81.216 279.32 81.216C280.456 81.216 281.152 81.24 281.408 81.288C281.792 81.368 281.936 81.56 281.84 81.864C281.792 82.072 281.512 82.584 281 83.4C280.84 83.656 280.744 83.832 280.712 83.928C280.68 84.008 280.696 84.064 280.76 84.096C280.84 84.128 280.912 84.128 280.976 84.096C281.04 84.064 281.176 83.968 281.384 83.808C281.624 83.632 281.816 83.56 281.96 83.592C282.12 83.608 282.264 83.744 282.392 84C282.472 84.16 282.544 84.248 282.608 84.264C282.688 84.28 282.88 84.256 283.184 84.192C284.752 83.888 285.64 83.928 285.848 84.312C285.896 84.392 285.936 85.904 285.968 88.848C286 91.776 285.992 93.424 285.944 93.792C285.896 94.176 285.736 94.328 285.464 94.248C285.208 94.152 284.88 93.832 284.48 93.288C284.112 92.792 283.896 92.392 283.832 92.088C283.768 91.784 283.8 91.312 283.928 90.672C283.992 90.352 284.088 89.808 284.216 89.04C284.28 88.56 284.344 88.232 284.408 88.056C284.488 87.864 284.592 87.728 284.72 87.648C285.136 87.344 284.504 87.16 282.824 87.096C282.504 87.064 282.312 87.08 282.248 87.144C282.2 87.192 282.176 87.384 282.176 87.72C282.176 89.912 281.984 91.728 281.6 93.168C281.216 94.592 280.568 95.952 279.656 97.248C279.4 97.6 279.312 97.816 279.392 97.896ZM276.344 95.064C275.976 95.096 275.744 95.096 275.648 95.064L275.384 95.04C275.24 95.024 275.128 95.016 275.048 95.016C274.664 95 274.464 94.928 274.448 94.8C274.432 94.672 274.568 94.28 274.856 93.624C275.624 91.896 276.144 89.648 276.416 86.88C276.496 86.192 276.584 85.784 276.68 85.656C276.792 85.512 277.08 85.44 277.544 85.44C277.96 85.44 278.224 85.488 278.336 85.584C278.48 85.696 278.56 85.992 278.576 86.472C278.576 86.808 278.536 87.608 278.456 88.872C278.328 90.936 278.16 92.416 277.952 93.312C277.744 94.208 277.448 94.752 277.064 94.944C276.968 94.992 276.728 95.032 276.344 95.064ZM311.504 97.872C311.664 98.016 311.944 98.048 312.344 97.968C312.744 97.888 313.104 97.728 313.424 97.488C313.552 97.36 313.624 97.224 313.64 97.08C313.656 96.936 313.648 96.488 313.616 95.736C313.616 95.592 313.608 95.392 313.592 95.136C313.544 94.608 313.552 94.272 313.616 94.128C313.696 93.92 313.928 93.792 314.312 93.744C314.584 93.712 315.232 93.696 316.256 93.696C316.72 93.696 317.088 93.696 317.36 93.696C319.104 93.68 320.128 93.664 320.432 93.648C320.752 93.632 320.952 93.56 321.032 93.432C321.176 93.224 320.744 92.704 319.736 91.872C319.288 91.504 319 91.328 318.872 91.344C318.744 91.36 318.504 91.608 318.152 92.088L318.128 92.136C318.112 92.168 318.08 92.216 318.032 92.28C317.76 92.648 317.536 92.864 317.36 92.928C317.184 92.992 316.696 93.024 315.896 93.024C315.784 93.024 315.696 93.024 315.632 93.024C315.568 93.024 315.48 93.024 315.368 93.024C314.712 93.024 314.296 93.008 314.12 92.976C313.864 92.928 313.712 92.824 313.664 92.664C313.616 92.536 313.592 92.24 313.592 91.776C313.592 91.664 313.592 91.584 313.592 91.536C313.592 91.44 313.592 91.312 313.592 91.152C313.576 90.752 313.6 90.496 313.664 90.384C313.744 90.224 313.96 90.128 314.312 90.096C314.568 90.064 315.168 90.048 316.112 90.048C316.464 90.048 316.744 90.048 316.952 90.048C318.136 90.032 318.888 90.024 319.208 90.024C319.64 90.008 319.912 89.976 320.024 89.928C320.104 89.896 320.144 89.816 320.144 89.688C320.144 89.544 319.896 89.24 319.4 88.776C318.92 88.312 318.512 88 318.176 87.84C318.048 87.776 317.936 87.776 317.84 87.84C317.76 87.888 317.584 88.104 317.312 88.488C317.296 88.52 317.272 88.552 317.24 88.584C316.968 88.968 316.76 89.192 316.616 89.256C316.472 89.32 316.096 89.36 315.488 89.376C315.392 89.376 315.32 89.376 315.272 89.376C315.256 89.376 315.232 89.376 315.2 89.376C314.368 89.376 313.88 89.32 313.736 89.208C313.608 89.08 313.552 88.664 313.568 87.96V87.888C313.584 87.248 313.656 86.872 313.784 86.76C313.912 86.648 314.32 86.592 315.008 86.592C315.6 86.592 315.992 86.632 316.184 86.712C316.392 86.776 316.496 86.92 316.496 87.144C316.496 87.288 316.544 87.376 316.64 87.408C316.736 87.424 316.952 87.4 317.288 87.336C317.928 87.224 318.328 87.072 318.488 86.88C318.664 86.688 318.736 86.304 318.704 85.728C318.64 84.72 318.624 84.072 318.656 83.784C318.688 83.4 318.816 83.16 319.04 83.064C319.2 82.984 319.576 82.944 320.168 82.944C320.952 82.944 321.368 82.84 321.416 82.632C321.48 82.408 321.184 81.968 320.528 81.312C320.24 81.024 320.04 80.88 319.928 80.88C319.832 80.864 319.696 80.984 319.52 81.24C319.216 81.688 318.992 81.88 318.848 81.816C318.72 81.752 318.656 81.432 318.656 80.856C318.656 80.44 318.688 80.152 318.752 79.992C318.816 79.832 318.952 79.704 319.16 79.608C319.432 79.464 319.528 79.312 319.448 79.152C319.384 78.976 319.104 78.688 318.608 78.288C318.016 77.824 317.64 77.584 317.48 77.568C317.32 77.536 317.08 77.704 316.76 78.072C316.408 78.504 315.824 78.752 315.008 78.816C314.208 78.864 313.744 78.688 313.616 78.288C313.552 78.048 313.552 77.792 313.616 77.52C313.696 77.248 313.816 77.056 313.976 76.944C314.2 76.816 314.184 76.68 313.928 76.536C313.688 76.376 313.152 76.176 312.32 75.936C311.84 75.792 311.552 75.72 311.456 75.72C311.36 75.72 311.32 75.792 311.336 75.936C311.368 76.176 311.4 76.584 311.432 77.16C311.448 77.784 311.448 78.136 311.432 78.216C311.336 78.712 310.032 78.848 307.52 78.624C307.152 78.592 306.944 78.6 306.896 78.648C306.864 78.68 306.928 78.848 307.088 79.152C307.216 79.424 307.312 79.592 307.376 79.656C307.44 79.704 307.544 79.712 307.688 79.68C308.28 79.536 309.064 79.448 310.04 79.416C310.744 79.4 311.152 79.456 311.264 79.584C311.392 79.696 311.456 80.12 311.456 80.856C311.456 80.92 311.456 81.016 311.456 81.144C311.456 81.56 311.432 81.824 311.384 81.936C311.336 82.096 311.184 82.192 310.928 82.224C310.736 82.256 310.304 82.272 309.632 82.272C309.456 82.272 309.32 82.272 309.224 82.272C308.264 82.272 307.696 82.264 307.52 82.248C307.344 82.216 307.2 82.144 307.088 82.032C306.992 81.92 306.48 81.624 305.552 81.144C304.64 80.648 304.168 80.424 304.136 80.472C304.072 80.504 304.016 80.656 303.968 80.928C303.664 82.096 303.152 83.376 302.432 84.768C301.712 86.192 300.896 87.472 299.984 88.608C299.76 88.88 299.624 89.064 299.576 89.16C299.544 89.256 299.56 89.328 299.624 89.376C299.736 89.472 300.304 89.072 301.328 88.176C301.728 87.824 302 87.624 302.144 87.576C302.288 87.528 302.392 87.592 302.456 87.768C302.52 87.928 302.544 89.064 302.528 91.176C302.496 93.24 302.44 94.976 302.36 96.384C302.312 96.992 302.288 97.384 302.288 97.56C302.288 97.656 302.336 97.744 302.432 97.824C302.528 97.92 302.632 97.984 302.744 98.016C303 98.064 303.32 98.024 303.704 97.896C304.104 97.768 304.416 97.6 304.64 97.392C304.72 97.312 304.768 97.232 304.784 97.152C304.8 97.072 304.792 96.84 304.76 96.456C304.68 94.36 304.64 91.912 304.64 89.112C304.656 87.416 304.672 86.424 304.688 86.136C304.72 85.832 304.816 85.64 304.976 85.56C305.312 85.384 305.336 85.24 305.048 85.128C304.792 85.032 304.688 84.888 304.736 84.696C304.784 84.504 304.992 84.152 305.36 83.64C305.392 83.608 305.424 83.56 305.456 83.496C305.664 83.224 305.872 83.072 306.08 83.04C306.304 82.992 306.96 82.96 308.048 82.944C308.256 82.944 308.416 82.944 308.528 82.944C308.704 82.944 308.936 82.944 309.224 82.944C310.056 82.944 310.584 82.96 310.808 82.992C311.112 83.024 311.304 83.12 311.384 83.28C311.432 83.408 311.456 83.688 311.456 84.12C311.456 84.264 311.456 84.376 311.456 84.456C311.456 84.52 311.456 84.6 311.456 84.696C311.456 85.16 311.44 85.456 311.408 85.584C311.344 85.744 311.192 85.848 310.952 85.896C310.792 85.912 310.392 85.912 309.752 85.896C309.64 85.896 309.552 85.896 309.488 85.896C308.752 85.896 308.048 85.872 307.376 85.824C307.008 85.792 306.808 85.8 306.776 85.848C306.744 85.88 306.808 86.056 306.968 86.376C306.984 86.392 307 86.416 307.016 86.448C307.144 86.704 307.232 86.848 307.28 86.88C307.344 86.912 307.48 86.904 307.688 86.856C308.232 86.744 308.896 86.664 309.68 86.616C310.48 86.568 310.96 86.584 311.12 86.664C311.36 86.792 311.48 87.232 311.48 87.984C311.496 88.72 311.392 89.16 311.168 89.304C311.056 89.368 310.448 89.392 309.344 89.376C308.256 89.36 307.288 89.32 306.44 89.256C306.232 89.224 306.12 89.24 306.104 89.304C306.088 89.352 306.168 89.544 306.344 89.88C306.472 90.136 306.56 90.28 306.608 90.312C306.672 90.344 306.808 90.344 307.016 90.312H307.088C307.744 90.2 308.544 90.12 309.488 90.072C310.416 90.024 310.96 90.04 311.12 90.12C311.296 90.216 311.416 90.608 311.48 91.296C311.544 91.968 311.504 92.432 311.36 92.688C311.264 92.88 310.664 93 309.56 93.048C308.472 93.08 307.232 93.024 305.84 92.88C305.568 92.848 305.416 92.856 305.384 92.904C305.368 92.952 305.44 93.128 305.6 93.432C305.616 93.448 305.632 93.48 305.648 93.528C305.76 93.768 305.848 93.904 305.912 93.936C305.992 93.968 306.2 93.96 306.536 93.912C306.616 93.896 306.68 93.888 306.728 93.888C307.576 93.776 308.488 93.712 309.464 93.696C310.456 93.664 311.024 93.696 311.168 93.792C311.328 93.872 311.424 94.096 311.456 94.464C311.488 94.816 311.472 95.544 311.408 96.648C311.376 97.192 311.36 97.512 311.36 97.608C311.376 97.72 311.424 97.808 311.504 97.872ZM315.032 85.92C314.376 85.92 313.984 85.88 313.856 85.8C313.696 85.704 313.592 85.304 313.544 84.6C313.512 83.88 313.56 83.432 313.688 83.256C313.864 83.032 314.312 82.92 315.032 82.92C315.768 82.92 316.216 83.032 316.376 83.256C316.504 83.432 316.544 83.88 316.496 84.6C316.464 85.304 316.368 85.704 316.208 85.8C316.096 85.88 315.704 85.92 315.032 85.92ZM299.72 82.488C299.864 82.616 300.472 82.272 301.544 81.456C302.616 80.624 303.672 79.688 304.712 78.648C305.256 78.104 305.6 77.768 305.744 77.64C305.872 77.544 305.992 77.48 306.104 77.448C306.36 77.4 306.448 77.32 306.368 77.208C306.304 77.096 306.056 76.928 305.624 76.704C305.528 76.656 305.352 76.56 305.096 76.416C304.776 76.224 304.552 76.096 304.424 76.032C304.072 75.808 303.848 75.688 303.752 75.672C303.672 75.656 303.616 75.72 303.584 75.864C303.376 76.632 302.928 77.6 302.24 78.768C301.552 79.936 300.816 80.968 300.032 81.864C299.76 82.2 299.656 82.408 299.72 82.488ZM315.032 82.272C314.376 82.272 313.984 82.232 313.856 82.152C313.696 82.056 313.592 81.672 313.544 81C313.512 80.312 313.56 79.88 313.688 79.704C313.864 79.48 314.312 79.368 315.032 79.368C315.768 79.368 316.216 79.48 316.376 79.704C316.504 79.88 316.544 80.312 316.496 81C316.464 81.672 316.368 82.056 316.208 82.152C316.096 82.232 315.704 82.272 315.032 82.272ZM36.128 122.016C36.288 122.08 36.528 122.088 36.848 122.04C37.168 121.992 37.464 121.912 37.736 121.8L37.76 121.776C37.968 121.68 38.088 121.584 38.12 121.488C38.152 121.392 38.168 121.08 38.168 120.552C38.168 120.472 38.168 120.416 38.168 120.384C38.168 119.664 38.216 119.24 38.312 119.112C38.408 118.968 38.736 118.848 39.296 118.752H39.344C40.656 118.544 41.456 118.408 41.744 118.344C42.032 118.28 42.176 118.184 42.176 118.056C42.176 117.976 42.104 117.936 41.96 117.936C41.816 117.92 41.32 117.928 40.472 117.96H40.424C40.264 117.96 40.048 117.968 39.776 117.984C39.168 118.016 38.784 118.008 38.624 117.96C38.384 117.896 38.24 117.712 38.192 117.408C38.144 117.2 38.128 116.68 38.144 115.848C38.144 115.48 38.144 115.192 38.144 114.984C38.144 114.76 38.144 114.464 38.144 114.096C38.128 113.296 38.144 112.784 38.192 112.56C38.224 112.272 38.344 112.088 38.552 112.008C38.696 111.96 39.032 111.936 39.56 111.936C39.8 111.936 39.992 111.936 40.136 111.936C41.112 111.92 41.68 111.888 41.84 111.84C42.016 111.776 41.968 111.616 41.696 111.36C41.44 111.088 41.4 110.704 41.576 110.208C41.752 109.696 42.048 109.328 42.464 109.104C42.896 108.88 42.824 108.744 42.248 108.696C40.088 108.536 39.008 108.264 39.008 107.88C39.008 107.736 39.256 107.408 39.752 106.896C40.248 106.368 40.584 106.08 40.76 106.032C40.968 105.984 41.072 105.912 41.072 105.816C41.072 105.72 40.976 105.56 40.784 105.336C40.576 105.096 40.496 104.92 40.544 104.808C40.608 104.696 40.824 104.616 41.192 104.568C41.592 104.504 41.872 104.44 42.032 104.376C42.208 104.296 42.336 104.184 42.416 104.04C42.496 103.88 42.52 103.712 42.488 103.536C42.472 103.344 42.408 103.224 42.296 103.176C42.072 103.096 41.944 102.8 41.912 102.288C41.88 101.952 41.832 101.784 41.768 101.784C41.704 101.768 41.616 101.912 41.504 102.216C41.376 102.568 41.232 102.808 41.072 102.936C40.912 103.048 40.68 103.104 40.376 103.104C39.88 103.104 39.6 102.904 39.536 102.504C39.472 102.088 39.664 101.76 40.112 101.52C40.384 101.36 40.104 100.92 39.272 100.2C38.952 99.912 38.736 99.768 38.624 99.768C38.512 99.784 38.328 99.952 38.072 100.272C37.72 100.72 37.288 100.944 36.776 100.944C36.264 100.944 35.552 100.736 34.64 100.32C34.576 100.288 34.488 100.248 34.376 100.2C33.992 100.008 33.768 99.936 33.704 99.984C33.656 100.032 33.632 100.272 33.632 100.704C33.632 100.848 33.632 100.96 33.632 101.04C33.632 102.048 33.536 102.824 33.344 103.368C33.152 103.896 32.8 104.376 32.288 104.808C32.128 104.936 32.048 105.056 32.048 105.168C32.048 105.28 32.136 105.32 32.312 105.288C32.52 105.256 32.736 105.432 32.96 105.816C33.04 105.96 33.096 106.048 33.128 106.08C33.176 106.096 33.24 106.072 33.32 106.008C33.464 105.896 33.632 105.896 33.824 106.008C34.032 106.12 34.224 106.32 34.4 106.608C34.56 106.864 34.88 107.28 35.36 107.856C35.6 108.176 35.416 108.552 34.808 108.984C34.216 109.416 33.296 109.832 32.048 110.232C31.68 110.344 31.464 110.432 31.4 110.496C31.336 110.544 31.36 110.624 31.472 110.736C31.6 110.832 32.2 110.744 33.272 110.472C34.344 110.184 35.256 109.872 36.008 109.536C36.424 109.344 36.72 109.256 36.896 109.272C37.088 109.288 37.472 109.432 38.048 109.704C38.672 109.992 39.032 110.224 39.128 110.4C39.224 110.56 39.112 110.784 38.792 111.072C38.648 111.2 38.28 111.272 37.688 111.288C37.096 111.304 35.072 111.312 31.616 111.312C31.472 111.312 31.256 111.312 30.968 111.312C28.472 111.312 26.824 111.304 26.024 111.288C24.824 111.288 24 111.264 23.552 111.216C23.104 111.152 22.872 111.056 22.856 110.928C22.84 110.848 22.944 110.68 23.168 110.424C23.2 110.376 23.224 110.344 23.24 110.328C23.544 109.96 23.728 109.704 23.792 109.56C23.808 109.528 23.832 109.488 23.864 109.44C24.056 109.12 24.256 108.936 24.464 108.888C24.672 108.84 25.32 108.816 26.408 108.816C26.6 108.816 26.752 108.816 26.864 108.816C27.792 108.832 28.4 108.848 28.688 108.864C29.056 108.88 29.288 108.928 29.384 109.008C29.464 109.072 29.504 109.2 29.504 109.392C29.504 109.552 29.576 109.648 29.72 109.68C29.88 109.696 30.168 109.64 30.584 109.512C30.968 109.384 31.192 109.264 31.256 109.152C31.32 109.024 31.352 108.656 31.352 108.048C31.352 108 31.352 107.96 31.352 107.928C31.352 107.256 31.368 106.856 31.4 106.728C31.432 106.584 31.544 106.44 31.736 106.296L31.784 106.272C32.008 106.128 32.096 105.992 32.048 105.864C32 105.736 31.784 105.496 31.4 105.144C30.872 104.664 30.848 104.392 31.328 104.328C31.648 104.264 31.792 104.144 31.76 103.968C31.728 103.792 31.512 103.504 31.112 103.104C30.712 102.736 30.528 102.504 30.56 102.408C30.608 102.296 30.904 102.224 31.448 102.192C32.088 102.16 32.392 102.016 32.36 101.76C32.328 101.504 31.968 101.12 31.28 100.608C30.96 100.352 30.744 100.232 30.632 100.248C30.52 100.264 30.344 100.432 30.104 100.752C29.848 101.104 29.6 101.336 29.36 101.448C29.136 101.544 28.864 101.56 28.544 101.496C28.352 101.464 28.232 101.384 28.184 101.256C28.136 101.112 28.176 100.976 28.304 100.848C28.48 100.704 28.44 100.56 28.184 100.416C27.928 100.272 27.376 100.08 26.528 99.84C26.496 99.824 26.448 99.808 26.384 99.792C26.128 99.728 25.976 99.712 25.928 99.744C25.896 99.776 25.888 99.944 25.904 100.248C25.904 100.312 25.904 100.36 25.904 100.392C25.92 100.824 25.864 101.112 25.736 101.256C25.592 101.416 25.28 101.504 24.8 101.52C24.4 101.536 23.632 101.504 22.496 101.424C22.048 101.392 21.792 101.376 21.728 101.376C21.6 101.36 21.536 101.392 21.536 101.472C21.552 101.536 21.632 101.704 21.776 101.976C21.792 102.008 21.816 102.048 21.848 102.096C21.96 102.288 22.048 102.4 22.112 102.432C22.192 102.448 22.4 102.424 22.736 102.36C22.816 102.344 22.872 102.336 22.904 102.336C23.368 102.256 23.912 102.208 24.536 102.192C25.16 102.176 25.536 102.208 25.664 102.288C25.856 102.416 25.944 102.64 25.928 102.96C25.928 103.28 25.832 103.488 25.64 103.584C25.528 103.648 25.024 103.672 24.128 103.656C23.232 103.624 22.664 103.576 22.424 103.512C22.264 103.464 22.28 103.632 22.472 104.016C22.84 104.816 22.92 106.016 22.712 107.616C22.504 109.2 22.112 110.336 21.536 111.024C21.392 111.2 21.336 111.336 21.368 111.432C21.416 111.512 21.536 111.512 21.728 111.432C22 111.304 22.248 111.448 22.472 111.864C22.584 112.056 22.672 112.168 22.736 112.2C22.816 112.232 22.968 112.216 23.192 112.152C23.832 111.992 24.424 111.92 24.968 111.936C25.512 111.952 25.84 112.056 25.952 112.248C26.016 112.36 26.04 113.352 26.024 115.224C26.024 117.096 25.992 118.088 25.928 118.2C25.832 118.344 25.576 118.44 25.16 118.488C24.76 118.52 23.872 118.544 22.496 118.56C22.448 118.56 22.392 118.56 22.328 118.56C22.056 118.56 21.912 118.6 21.896 118.68C21.896 118.76 21.992 119.04 22.184 119.52C22.232 119.664 22.272 119.776 22.304 119.856C22.336 119.92 22.368 120.008 22.4 120.12C22.624 120.696 22.76 121.016 22.808 121.08C22.872 121.16 22.984 121.144 23.144 121.032C23.176 121 23.2 120.976 23.216 120.96C23.408 120.816 23.68 120.712 24.032 120.648C24.416 120.584 25.48 120.456 27.224 120.264C30.264 119.944 32.776 119.648 34.76 119.376C35.368 119.296 35.736 119.336 35.864 119.496C35.992 119.64 36.032 120.088 35.984 120.84C35.952 121.32 35.944 121.624 35.96 121.752C35.976 121.896 36.032 121.984 36.128 122.016ZM29.36 118.392C28.96 118.408 28.68 118.392 28.52 118.344C28.456 118.312 28.392 118.288 28.328 118.272C28.136 118.256 28.064 118.024 28.112 117.576C28.176 117.112 28.304 116.832 28.496 116.736C28.624 116.656 29.816 116.616 32.072 116.616C34.328 116.616 35.52 116.656 35.648 116.736C35.872 116.864 35.992 117.08 36.008 117.384C36.024 117.688 35.928 117.912 35.72 118.056C35.592 118.136 34.4 118.216 32.144 118.296C31.76 118.312 31.2 118.328 30.464 118.344C29.856 118.36 29.488 118.376 29.36 118.392ZM32.072 115.992C29.752 115.992 28.528 115.944 28.4 115.848C28.176 115.704 28.08 115.456 28.112 115.104C28.144 114.736 28.28 114.504 28.52 114.408C28.648 114.36 29.832 114.336 32.072 114.336C34.328 114.336 35.512 114.36 35.624 114.408C35.864 114.504 36 114.736 36.032 115.104C36.064 115.456 35.968 115.704 35.744 115.848C35.616 115.944 34.392 115.992 32.072 115.992ZM32.072 113.688C29.752 113.688 28.528 113.64 28.4 113.544C28.192 113.416 28.096 113.16 28.112 112.776C28.144 112.376 28.264 112.12 28.472 112.008C28.6 111.944 29.8 111.912 32.072 111.912C34.36 111.912 35.56 111.944 35.672 112.008C35.88 112.12 35.992 112.376 36.008 112.776C36.04 113.16 35.952 113.416 35.744 113.544C35.632 113.64 34.408 113.688 32.072 113.688ZM29.144 108.072C28.744 108.248 28.408 108.256 28.136 108.096C27.88 107.92 27.752 107.608 27.752 107.16C27.752 106.712 27.888 106.408 28.16 106.248C28.432 106.072 28.752 106.08 29.12 106.272C29.376 106.4 29.504 106.704 29.504 107.184C29.52 107.648 29.4 107.944 29.144 108.072ZM25.76 108.048C25.568 108.144 25.328 108.176 25.04 108.144C24.752 108.096 24.576 108.008 24.512 107.88C24.464 107.784 24.44 107.568 24.44 107.232C24.456 106.88 24.488 106.64 24.536 106.512C24.616 106.352 24.784 106.248 25.04 106.2C25.312 106.136 25.552 106.16 25.76 106.272C26 106.384 26.12 106.68 26.12 107.16C26.12 107.624 26 107.92 25.76 108.048ZM36.944 107.28C36.688 107.392 36.28 107.272 35.72 106.92C35.176 106.552 34.976 106.264 35.12 106.056C35.2 105.944 35.608 105.88 36.344 105.864C37.096 105.848 37.528 105.904 37.64 106.032C37.768 106.144 37.752 106.352 37.592 106.656C37.432 106.944 37.216 107.152 36.944 107.28ZM26.96 105.504C25.6 105.504 24.824 105.472 24.632 105.408C24.072 105.2 23.776 105.008 23.744 104.832C23.728 104.656 23.976 104.528 24.488 104.448C24.776 104.416 25.656 104.392 27.128 104.376C28.6 104.36 29.392 104.368 29.504 104.4C29.728 104.464 29.8 104.616 29.72 104.856C29.656 105.08 29.488 105.264 29.216 105.408C29.072 105.472 28.32 105.504 26.96 105.504ZM36.272 105.192C35.136 105.192 34.472 105.184 34.28 105.168C33.944 105.12 33.768 105.032 33.752 104.904C33.736 104.776 33.88 104.592 34.184 104.352C34.92 103.76 35.352 103.048 35.48 102.216C35.528 101.944 35.632 101.76 35.792 101.664C35.952 101.568 36.248 101.52 36.68 101.52C37.208 101.52 37.52 101.584 37.616 101.712C37.712 101.824 37.776 102.192 37.808 102.816C37.84 103.376 37.872 103.736 37.904 103.896C37.936 104.056 38.032 104.208 38.192 104.352C38.56 104.72 38.52 104.992 38.072 105.168C38.008 105.184 37.408 105.192 36.272 105.192ZM28.952 103.536C28.632 103.728 28.352 103.696 28.112 103.44C27.872 103.184 27.832 102.88 27.992 102.528C28.088 102.32 28.376 102.2 28.856 102.168C29.352 102.136 29.64 102.216 29.72 102.408C29.752 102.488 29.672 102.68 29.48 102.984C29.288 103.272 29.112 103.456 28.952 103.536ZM53.36 121.944C53.664 122.104 54.088 122.072 54.632 121.848C55.192 121.624 55.472 121.368 55.472 121.08C55.472 121.048 55.472 120.992 55.472 120.912C55.472 120.672 55.52 120.512 55.616 120.432C55.744 120.336 56.064 120.28 56.576 120.264C56.928 120.248 57.792 120.24 59.168 120.24C59.456 120.24 59.68 120.24 59.84 120.24C60.048 120.24 60.344 120.24 60.728 120.24C62.04 120.24 62.872 120.248 63.224 120.264C63.704 120.296 64 120.36 64.112 120.456C64.192 120.536 64.224 120.712 64.208 120.984C64.192 121.064 64.184 121.128 64.184 121.176C64.152 121.576 64.232 121.816 64.424 121.896C64.616 121.992 64.96 121.96 65.456 121.8C66.048 121.592 66.392 121.392 66.488 121.2C66.6 121.008 66.64 120.512 66.608 119.712C66.4 114.944 66.52 112.56 66.968 112.56C67.016 112.56 67.104 112.512 67.232 112.416C67.36 112.304 67.424 112.224 67.424 112.176C67.424 112.096 67.184 111.848 66.704 111.432C66.224 111.016 65.816 110.712 65.48 110.52C65.336 110.44 65.216 110.424 65.12 110.472C65.024 110.52 64.84 110.696 64.568 111C64.536 111.048 64.488 111.104 64.424 111.168C64.216 111.408 63.968 111.552 63.68 111.6C63.392 111.632 62.464 111.648 60.896 111.648C60.4 111.648 60.008 111.648 59.72 111.648C59.432 111.648 59.04 111.648 58.544 111.648C57.056 111.648 56.144 111.632 55.808 111.6C55.488 111.568 55.08 111.44 54.584 111.216C54.392 111.136 54.24 111.072 54.128 111.024C54.08 111.008 54.008 110.976 53.912 110.928C53.448 110.736 53.184 110.648 53.12 110.664C53.056 110.68 53.04 110.84 53.072 111.144C53.088 111.208 53.096 111.256 53.096 111.288C53.224 112.408 53.296 113.904 53.312 115.776C53.328 117.632 53.28 119.328 53.168 120.864C53.136 121.28 53.128 121.544 53.144 121.656C53.176 121.784 53.248 121.88 53.36 121.944ZM63.896 119.496C63.784 119.56 62.44 119.584 59.864 119.568C57.288 119.568 55.944 119.544 55.832 119.496C55.672 119.416 55.576 119.296 55.544 119.136C55.512 118.976 55.496 118.56 55.496 117.888C55.496 117.776 55.496 117.616 55.496 117.408C55.48 116.96 55.512 116.672 55.592 116.544C55.688 116.384 55.952 116.28 56.384 116.232C56.704 116.216 57.456 116.208 58.64 116.208C59.152 116.208 59.56 116.208 59.864 116.208C60.168 116.208 60.576 116.208 61.088 116.208C62.272 116.208 63.024 116.216 63.344 116.232C63.776 116.28 64.04 116.384 64.136 116.544C64.216 116.672 64.248 116.96 64.232 117.408C64.232 117.616 64.232 117.776 64.232 117.888C64.232 118.576 64.216 119 64.184 119.16C64.152 119.304 64.056 119.416 63.896 119.496ZM59.864 115.56C57.256 115.56 55.888 115.52 55.76 115.44C55.632 115.344 55.552 115.208 55.52 115.032C55.488 114.856 55.472 114.456 55.472 113.832C55.472 113.736 55.472 113.6 55.472 113.424C55.472 113.008 55.504 112.744 55.568 112.632C55.68 112.488 55.96 112.392 56.408 112.344C56.728 112.328 57.48 112.32 58.664 112.32C59.16 112.32 59.56 112.32 59.864 112.32C60.168 112.32 60.568 112.32 61.064 112.32C62.248 112.32 63 112.328 63.32 112.344C63.768 112.392 64.048 112.488 64.16 112.632C64.224 112.744 64.256 113.008 64.256 113.424C64.256 113.6 64.256 113.736 64.256 113.832C64.256 114.456 64.24 114.856 64.208 115.032C64.176 115.208 64.096 115.344 63.968 115.44C63.856 115.52 62.488 115.56 59.864 115.56ZM49.856 109.32C49.92 109.368 49.984 109.384 50.048 109.368C50.08 109.368 50.16 109.36 50.288 109.344C50.976 109.248 51.472 109.184 51.776 109.152C52.096 109.104 55.224 109.072 61.16 109.056C61.544 109.056 62.088 109.056 62.792 109.056C65.592 109.04 67.368 109.032 68.12 109.032C69.16 109.016 69.816 108.992 70.088 108.96C70.264 108.928 70.352 108.864 70.352 108.768C70.352 108.736 70.352 108.712 70.352 108.696C70.368 108.6 70.208 108.392 69.872 108.072C69.552 107.752 69.152 107.408 68.672 107.04L68.648 107.016C68.28 106.744 68.032 106.624 67.904 106.656C67.792 106.672 67.576 106.896 67.256 107.328C67.224 107.376 67.2 107.408 67.184 107.424C67.152 107.472 67.104 107.544 67.04 107.64C66.752 108.008 66.52 108.224 66.344 108.288C66.184 108.352 65.72 108.384 64.952 108.384C64.792 108.384 64.664 108.384 64.568 108.384C63.704 108.384 63.168 108.368 62.96 108.336C62.656 108.288 62.544 108.176 62.624 108C62.672 107.872 62.904 107.592 63.32 107.16C63.512 106.968 63.904 106.544 64.496 105.888C64.528 105.84 64.552 105.808 64.568 105.792C64.968 105.328 65.208 105.056 65.288 104.976C65.384 104.88 65.488 104.816 65.6 104.784C65.824 104.72 65.92 104.648 65.888 104.568C65.856 104.488 65.688 104.376 65.384 104.232C64.76 103.912 64.544 103.712 64.736 103.632C64.928 103.552 65.712 103.504 67.088 103.488C68.208 103.472 68.864 103.456 69.056 103.44C69.264 103.408 69.392 103.336 69.44 103.224C69.52 103.016 69.096 102.536 68.168 101.784L68.144 101.76C67.632 101.344 67.304 101.144 67.16 101.16C67.032 101.176 66.792 101.424 66.44 101.904L66.416 101.952C66.384 102 66.344 102.056 66.296 102.12C66.056 102.472 65.832 102.68 65.624 102.744C65.416 102.792 64.816 102.816 63.824 102.816C63.6 102.816 63.424 102.816 63.296 102.816C62.24 102.8 61.616 102.792 61.424 102.792C61.248 102.776 61.128 102.736 61.064 102.672C60.888 102.496 60.816 102.208 60.848 101.808C60.88 101.408 61 101.112 61.208 100.92C61.384 100.76 61.36 100.624 61.136 100.512C60.912 100.384 60.36 100.208 59.48 99.984C59.448 99.968 59.392 99.952 59.312 99.936C58.896 99.824 58.656 99.784 58.592 99.816C58.528 99.848 58.504 100.024 58.52 100.344C58.536 100.408 58.544 100.456 58.544 100.488C58.56 100.6 58.576 100.768 58.592 100.992C58.64 101.664 58.64 102.096 58.592 102.288C58.528 102.544 58.312 102.704 57.944 102.768C57.672 102.8 57.032 102.816 56.024 102.816C55.72 102.816 55.48 102.816 55.304 102.816C53.096 102.816 51.544 102.776 50.648 102.696C50.424 102.68 50.304 102.696 50.288 102.744C50.272 102.792 50.352 102.968 50.528 103.272C50.544 103.288 50.56 103.32 50.576 103.368C50.688 103.592 50.776 103.72 50.84 103.752C50.92 103.784 51.096 103.784 51.368 103.752C51.432 103.736 51.488 103.728 51.536 103.728C53.488 103.456 54.464 103.472 54.464 103.776C54.464 103.856 54.544 104.04 54.704 104.328C55.072 105.08 55.368 105.896 55.592 106.776C55.816 107.656 55.848 108.152 55.688 108.264C55.592 108.344 54.808 108.384 53.336 108.384C51.88 108.384 50.664 108.344 49.688 108.264C49.448 108.248 49.328 108.264 49.328 108.312C49.328 108.36 49.4 108.52 49.544 108.792C49.688 109.064 49.792 109.24 49.856 109.32ZM61.256 108.312C61.096 108.376 60.472 108.408 59.384 108.408C58.312 108.392 57.736 108.344 57.656 108.264C57.592 108.184 57.56 108.12 57.56 108.072C57.56 108.008 57.592 107.88 57.656 107.688C57.88 107.16 57.856 106.608 57.584 106.032C57.328 105.44 56.856 104.912 56.168 104.448L56.144 104.424C55.648 104.088 55.392 103.872 55.376 103.776C55.328 103.648 55.576 103.568 56.12 103.536C56.504 103.52 57.472 103.504 59.024 103.488C59.2 103.488 59.44 103.488 59.744 103.488C60.976 103.488 61.752 103.496 62.072 103.512C62.52 103.544 62.792 103.624 62.888 103.752C62.936 103.848 62.92 104.064 62.84 104.4C62.824 104.464 62.808 104.512 62.792 104.544C62.536 105.536 62.256 106.392 61.952 107.112C61.664 107.832 61.432 108.232 61.256 108.312ZM87.248 114.24C88.32 114.384 89.256 114.064 90.056 113.28C90.856 112.48 91.184 111.552 91.04 110.496C90.912 109.6 90.512 108.872 89.84 108.312C89.216 107.784 88.488 107.52 87.656 107.52C86.792 107.52 86.04 107.824 85.4 108.432C84.728 109.072 84.376 109.84 84.344 110.736C84.296 111.584 84.536 112.336 85.064 112.992C85.608 113.696 86.336 114.112 87.248 114.24ZM88.568 113.256C87.752 113.576 86.984 113.48 86.264 112.968C85.544 112.456 85.184 111.76 85.184 110.88C85.184 110.16 85.432 109.56 85.928 109.08C86.408 108.616 86.984 108.376 87.656 108.36C88.344 108.344 88.944 108.592 89.456 109.104C90.112 109.744 90.344 110.52 90.152 111.432C89.96 112.328 89.432 112.936 88.568 113.256Z" fill="#D6D2C7"/>
<defs>
<clipPath id="clip0">
<rect width="351.3" height="218.09" fill="white"/>
</clipPath>
</defs>
</svg>
