<?xml version="1.0" encoding="utf-8"?>
<!-- Generator: Adobe Illustrator 24.2.3, SVG Export Plug-In . SVG Version: 6.00 Build 0)  -->
<svg version="1.1" id="Layer_1" xmlns="http://www.w3.org/2000/svg" xmlns:xlink="http://www.w3.org/1999/xlink" x="0px" y="0px"
	 viewBox="0 0 352 219" style="enable-background:new 0 0 352 219;" xml:space="preserve">
<style type="text/css">
	.st0{clip-path:url(#SVGID_2_);}
	.st1{fill:none;stroke:#D6D2C7;stroke-width:1.3;stroke-miterlimit:10;stroke-dasharray:9.31,9.31;}
	.st2{fill:#D6D2C7;}
</style>
<g>
	<defs>
		<rect id="SVGID_1_" width="351.3" height="218.1"/>
	</defs>
	<clipPath id="SVGID_2_">
		<use xlink:href="#SVGID_1_"  style="overflow:visible;"/>
	</clipPath>
	<g class="st0">
		<path class="st1" d="M350.6,0.6H0.7v216.8h350V0.6z"/>
	</g>
</g>
<path class="st2" d="M21.2,51.3c0.1,0.1,0.2,0.1,0.2,0c0.1,0,0.3-0.2,0.6-0.5c2.2-2.3,3.6-5.6,4.1-9.7c0-0.1,0-0.2,0-0.3
	c0.1-0.9,0.2-1.4,0.3-1.5c0.1-0.1,0.4-0.2,0.9-0.2c0.1,0,0.1,0,0.2,0c0,0,0.1,0,0.1,0c0.4,0,0.7,0,0.8,0.1c0.2,0.1,0.3,0.3,0.3,0.7
	c0,0.3,0,1,0,2c0,0.2,0,0.3,0,0.4c-0.1,2.1-0.2,3.6-0.3,4.4c-0.2,0.9-0.4,1.5-0.8,1.8c-0.3,0.2-0.9,0.3-1.7,0.3c0,0-0.1,0-0.2,0
	c-0.5,0-0.8,0-0.9,0c-0.1,0-0.1,0.1-0.1,0.2c0,0.1,0.1,0.1,0.2,0.2l0,0c0.6,0.2,1,0.4,1.3,0.7c0.3,0.3,0.4,0.7,0.4,1.1
	c0,0.2,0,0.3,0.1,0.3c0.1,0,0.2,0.1,0.4,0c0.9-0.1,1.6-0.4,2.1-0.9c0.5-0.5,0.8-1.5,1.1-2.9c0.2-1.3,0.4-3.3,0.5-6c0,0,0,0,0-0.1
	c0-1,0.1-1.6,0.1-1.6c0.1-0.2,0.3-0.3,0.5-0.5c0.2-0.1,0.3-0.2,0.2-0.3c0-0.1,0-0.2,0.1-0.3c0.1-0.1,0.4-0.5,0.9-0.9
	c1.6-1.6,2.9-3.4,3.8-5.3c0.3-0.6,0.5-0.9,0.6-1c0.1-0.1,0.3,0.1,0.4,0.4c0.9,3.2,2.1,5.6,3.7,7.3c0.2,0.2,0.3,0.3,0.3,0.2
	c0,0,0.1-0.1,0.2-0.3c0.1-0.3,0.3-0.6,0.5-0.9c0.3-0.3,0.5-0.5,0.8-0.6c0.2-0.1,0.3-0.2,0.3-0.3s-0.2-0.2-0.4-0.4
	c-0.9-0.6-1.8-1.4-2.8-2.5c-0.9-1-1.5-1.9-2-2.7c-0.4-0.9-0.5-1.4-0.1-1.5c0.2-0.1,0.2-0.2-0.1-0.4c-0.3-0.1-0.9-0.3-1.8-0.6
	c-0.1,0-0.2,0-0.3-0.1c-0.4-0.1-0.6-0.1-0.7-0.1c-0.1,0-0.1,0.1-0.1,0.4c0,0.1,0,0.1,0,0.1c-0.2,2.1-1.2,4.6-3,7.4
	c-0.4,0.6-0.7,1-0.9,1c-0.2,0.1-0.5-0.1-0.9-0.4c0,0-0.1-0.1-0.1-0.1c-0.2-0.1-0.3-0.2-0.3-0.2c0,0-0.2,0.1-0.4,0.3
	c-0.1,0.1-0.1,0.1-0.1,0.1c-0.3,0.3-0.5,0.5-0.7,0.6c-0.2,0.1-0.5,0.1-1,0.1c-0.4,0-0.7,0-0.8-0.1c-0.2-0.1-0.3-0.3-0.3-0.6
	c0-0.2,0-0.8,0-1.7c0-0.1,0-0.2,0-0.3c0-0.4,0.1-0.6,0.1-0.7c0.1-0.1,0.3-0.2,0.6-0.3c0.2,0,0.8,0,1.7,0c0.3,0,0.5,0,0.7,0
	c1.3,0,2.1-0.1,2.5-0.1c0.4-0.1,0.6-0.3,0.4-0.6c-0.2-0.2-0.7-0.7-1.5-1.4l0,0c-0.3-0.3-0.5-0.4-0.6-0.3c-0.1,0-0.3,0.3-0.6,0.8
	c-0.3,0.5-0.6,0.8-0.8,0.9c-0.2,0.1-0.5,0.1-0.8,0c-0.2-0.1-0.4-0.7-0.4-1.6c0-1,0.1-1.6,0.3-1.8c0.2-0.2,0.2-0.3,0-0.5
	c-0.2-0.1-0.8-0.3-1.8-0.6c-0.5-0.1-0.8-0.2-0.8-0.2c-0.1,0-0.1,0.1-0.1,0.2c0.1,0.7,0.1,1.5,0.2,2.4c0,1,0,1.5,0,1.6
	c-0.1,0.2-0.4,0.3-1,0.4c-0.5,0-1.6,0-3-0.1c-0.1,0-0.1,0-0.1,0.1c0,0.1,0.1,0.2,0.2,0.5c0.1,0.2,0.2,0.4,0.3,0.4c0.1,0,0.2,0,0.4,0
	c0.5-0.2,0.9-0.2,1.3-0.2c0.4,0,0.7,0.1,0.8,0.3c0.1,0.2,0.1,1.2,0.1,3.1c0,1.9-0.2,3.4-0.3,4.7c-0.4,3.1-1.2,5.7-2.6,7.8
	c-0.1,0.2-0.2,0.4-0.2,0.5S21.1,51.2,21.2,51.3z M33.9,51.2c0,0,0.1,0,0.2-0.1c0.1-0.1,0.2-0.2,0.2-0.3c0-0.1,0.7-0.6,2.2-1.6
	c2.7-1.8,4.6-3.1,5.5-3.9c1-0.8,0.9-1-0.2-0.4c-4.5,2.1-7.6,3.4-9.3,4c-0.1,0,0,0.3,0.4,0.9C33.2,50.3,33.6,50.8,33.9,51.2z
	 M37.1,42.9c0.3,0.1,0.6,0.2,0.9,0c0.3-0.1,0.5-0.3,0.6-0.6c0.2-0.8-0.1-1.6-0.9-2.3c-0.8-0.8-1.9-1.3-3.3-1.6
	c-0.4-0.1-0.6-0.1-0.6,0c0,0.1,0.2,0.3,0.6,0.6c1.1,1.1,1.9,2.2,2.4,3.4C36.9,42.7,37,42.8,37.1,42.9z M62.5,49.5c1,0,1.6,0,1.9,0
	c0.4,0,0.6,0,0.7-0.1c0.1,0,0.1-0.1,0.1-0.2c0,0,0-0.1,0-0.1c0-0.2,0-0.3-0.1-0.4c-0.1,0-0.3-0.1-0.7-0.1c-0.6-0.1-0.9-0.1-1.1-0.2
	c-0.2-0.1-0.3-0.3-0.4-0.6c-0.2-0.4-1.1-3.2-2.8-8.1c-0.2-0.7-0.5-1.5-0.9-2.6c-0.7-2-1.1-3.3-1.3-3.8c-0.3-0.7-0.5-1.2-0.6-1.4
	c-0.1-0.1-0.3-0.2-0.5-0.1c-0.1,0-0.2,0-0.3,0c-0.1,0-0.2,0-0.3,0c-0.2,0-0.3,0-0.5,0.1c-0.1,0.2-0.3,0.7-0.6,1.4
	c-0.2,0.5-0.6,1.8-1.3,3.9c-0.4,1.1-0.7,2-0.9,2.7c-0.2,0.7-0.5,1.5-0.9,2.6c-0.7,2.2-1.2,3.6-1.4,4.2c-0.3,0.8-0.5,1.4-0.7,1.6
	c-0.1,0.2-0.4,0.2-0.7,0.3c-0.1,0-0.3,0-0.4,0c-0.5,0.1-0.8,0.2-0.9,0.2c0,0.1,0,0.2,0,0.4c0,0.2,0,0.3,0.1,0.3c0,0,1,0.1,2.8,0.1
	c0.1,0,0.3,0,0.5,0c0.9,0,1.5,0,1.7,0c0.4,0,0.6,0,0.6-0.1c0,0,0.1-0.1,0.1-0.2c0,0,0-0.1,0-0.1c0-0.2,0-0.3-0.1-0.4
	c-0.1,0-0.3-0.1-0.8-0.2c0,0-0.1,0-0.2,0c-0.5-0.1-0.8-0.1-1-0.2c-0.2-0.1-0.2-0.3-0.2-0.6c0-0.2,0.2-0.7,0.4-1.4
	c0-0.1,0.1-0.3,0.1-0.3c0.1-0.2,0.1-0.4,0.2-0.7c0.2-0.6,0.3-1,0.4-1.2c0.1-0.2,0.4-0.4,0.7-0.4c0.2,0,0.7-0.1,1.5,0
	c0.4,0,0.7,0,0.9,0c0.2,0,0.5,0,0.9,0c0.8,0,1.3,0,1.5,0c0.3,0,0.5,0.2,0.7,0.4c0.1,0.2,0.2,0.5,0.4,1.1c0.1,0.3,0.2,0.5,0.2,0.7
	c0,0,0,0.1,0.1,0.2c0.3,0.8,0.4,1.3,0.5,1.5c0,0.3,0,0.5-0.2,0.6c-0.1,0.1-0.4,0.1-0.9,0.2c-0.1,0-0.1,0-0.2,0c-0.1,0-0.1,0-0.2,0
	c-0.4,0-0.6,0.1-0.6,0.1c0,0-0.1,0.1-0.1,0.3c0,0,0,0.1,0,0.1s0,0.1,0,0.1c0,0.1,0,0.2,0.1,0.2c0.1,0,0.3,0.1,0.7,0.1
	c0.3,0,0.9,0,1.9,0c0.4,0,0.7,0,1,0C61.8,49.5,62.1,49.5,62.5,49.5z M55.9,42.7c-1.3,0-2.1,0-2.3,0c-0.2,0-0.2-0.1-0.3-0.2
	c0-0.2,0-0.5,0.2-1c0.1-0.4,0.4-1.2,0.8-2.6c0.1-0.2,0.2-0.5,0.3-1c0.4-1.3,0.7-2.1,0.8-2.3c0.2-0.4,0.4-0.4,0.6,0
	c0.1,0.2,0.4,1,0.8,2.2c0.1,0.4,0.2,0.7,0.3,1c0.6,1.8,0.9,2.8,1,3.2c0.1,0.4,0,0.6-0.1,0.7C58,42.6,57.3,42.7,55.9,42.7z
	 M73.9,49.5c2.3,0,3.8,0,4.4-0.1c2.6-0.2,4.7-1,6.2-2.6c1.5-1.6,2.2-3.6,2.2-6.2c0-2.5-0.6-4.6-2-6.1c-1.3-1.6-3.2-2.4-5.6-2.7
	c-0.4,0-1.9,0-4.6,0c-2.7,0-4.1,0-4.1,0c-0.1,0.2-0.2,0.3,0,0.5c0.1,0.2,0.3,0.3,0.5,0.3c0.7,0.1,1.2,0.1,1.4,0.2
	c0.2,0.1,0.4,0.2,0.5,0.4c0,0.1,0.1,2,0.1,5.7c0,3.7,0,6.3,0,7.7c0,0,0,0.1,0,0.2c0,0.7-0.1,1.2-0.2,1.3c-0.1,0.1-0.5,0.2-1.1,0.3
	c-0.1,0-0.1,0-0.1,0c-0.6,0.1-0.9,0.1-0.9,0.2c0,0-0.1,0.2-0.1,0.4c0,0.2,0,0.3,0.1,0.3C70.4,49.4,71.6,49.5,73.9,49.5z M78.5,48.4
	c-0.7,0.1-1.3,0.1-1.9,0.1c-0.6-0.1-0.9-0.2-1-0.4c-0.1-0.1-0.1-2.6-0.1-7.5c0-4.9,0-7.4,0.1-7.5c0.1-0.3,0.8-0.4,1.9-0.4
	c1.1,0,2,0.2,2.7,0.6c2.3,1.1,3.5,3.5,3.5,7.3c0,2.3-0.4,4.1-1.3,5.4C81.5,47.3,80.2,48.1,78.5,48.4z M97.4,49.8c0.5,0,1,0,1.5,0
	c1.8-0.2,3.2-0.7,4.2-1.6c1-0.9,1.5-2.2,1.4-3.7c0-1.2-0.4-2.1-1.1-2.9c-0.7-0.7-2-1.5-3.8-2.3c-1.2-0.6-2.1-1-2.5-1.3
	c-0.4-0.3-0.8-0.7-1-1.2c-0.4-0.8-0.4-1.6-0.2-2.4c0.3-0.7,0.8-1.3,1.5-1.7c0.8-0.4,1.7-0.5,2.7-0.4c0.6,0.1,1,0.2,1.1,0.4
	c0.2,0.2,0.4,0.8,0.6,1.8c0,0.1,0.1,0.3,0.1,0.4c0.1,0.6,0.2,0.9,0.3,1s0.2,0.1,0.4,0.1c0.1,0,0.1,0,0.2,0c0,0,0.1,0,0.1,0
	c0.3,0,0.4,0,0.5-0.1c0-0.1,0.1-0.4,0.1-1c0-0.1,0-0.3,0-0.3c0,0,0,0,0-0.1c0-1,0.1-1.6,0-1.8c0-0.2-0.1-0.3-0.2-0.4l-0.1,0
	c-1.1-0.7-2.4-1.1-3.8-1.2c-1.4,0-2.6,0.2-3.7,0.8c-1.2,0.6-1.9,1.4-2.3,2.5c-0.5,1.6-0.4,2.9,0.4,4.1c0.8,1.2,2.4,2.2,4.7,3.2
	c1.3,0.6,2.1,1,2.6,1.4c0.4,0.4,0.7,0.9,0.9,1.5c0.2,0.9,0.1,1.6-0.4,2.3c-0.4,0.7-1.1,1.1-2,1.4c-0.9,0.3-1.9,0.3-3,0.1
	c-0.7-0.1-1.1-0.3-1.2-0.5c-0.2-0.2-0.4-0.8-0.6-1.9c0-0.1,0-0.2-0.1-0.4c-0.1-0.6-0.2-1-0.3-1.1c-0.1-0.1-0.2-0.1-0.5-0.1
	c-0.1,0-0.1,0-0.1,0s-0.1,0-0.2,0c-0.2,0-0.4,0.1-0.4,0.2c0,0.1-0.1,0.5-0.1,1.3c0,0.2,0,0.4,0,0.5s0,0.3,0,0.5c0,0.7,0,1.2,0,1.3
	c0,0.1,0.2,0.2,0.4,0.4c0.1,0,0.1,0.1,0.2,0.1C94.7,49.4,96,49.7,97.4,49.8z M123.6,49.7c0.4,0,0.9,0,1.5,0c0.6,0,1-0.1,1.2-0.2
	c0.1,0,0.1-0.1,0.1-0.1c0,0,0-0.2,0-0.4c0-0.2,0-0.3-0.1-0.4c-0.1,0-0.3-0.1-0.6-0.1c0,0-0.1,0-0.1,0s-0.1,0-0.1,0
	c-0.5,0-0.9-0.2-1-0.3c-0.1-0.2-0.3-0.7-0.6-1.7c0-0.1-0.1-0.2-0.1-0.2c-0.5-2-0.9-3.2-1.2-3.7c-0.2-0.5-0.7-0.9-1.4-1.3
	c-0.4-0.2-0.5-0.4-0.5-0.5c0-0.1,0.3-0.2,0.8-0.5c1.6-0.7,2.6-1.7,3-3c0.3-1.2,0-2.4-0.9-3.5c-1-1.1-2.4-1.8-4.2-2
	c-0.4,0-1.9,0-4.7,0c-2.7,0-4.1,0-4.2,0c-0.1,0.2-0.2,0.3,0,0.5c0.1,0.2,0.3,0.3,0.5,0.3c0.7,0.1,1.2,0.1,1.4,0.2
	c0.2,0.1,0.4,0.2,0.5,0.4c0,0.1,0.1,2,0.1,5.7c0,3.7,0,6.3,0,7.7c0,0,0,0.1,0,0.1c0,0.8-0.1,1.2-0.2,1.4c-0.1,0.1-0.5,0.2-1.1,0.3
	c-0.1,0-0.1,0-0.1,0c-0.5,0.1-0.8,0.1-0.9,0.2c-0.1,0-0.1,0.2-0.1,0.4c0,0,0,0.1,0,0.1c0,0.1,0,0.2,0.1,0.2c0.1,0,0.3,0.1,0.7,0.1
	c0.3,0,0.9,0,2,0c0.4,0,0.8,0,1,0s0.6,0,1,0c1,0,1.7,0,2,0c0.4,0,0.6,0,0.7-0.1c0.1,0,0.1-0.1,0.1-0.2c0,0,0-0.1,0-0.1
	c0-0.2,0-0.3-0.1-0.4c-0.1,0-0.4-0.1-0.9-0.2c-0.1,0-0.2,0-0.4,0c-0.4,0-0.6-0.1-0.7-0.2c-0.2-0.1-0.3-0.4-0.3-0.7
	c0-0.3,0-0.9,0-1.9c0-0.4,0-0.7,0-0.9c0-0.2,0-0.5,0-0.9c0-1,0-1.7,0-2c0-0.4,0.1-0.6,0.3-0.7c0.1-0.1,0.3-0.1,0.7-0.1
	c0.1,0,0.2,0,0.3,0c0.9,0,1.6,0.1,1.9,0.3c0.4,0.2,0.8,0.6,1.1,1.3c0.2,0.6,0.6,1.7,1,3.3c0.3,1.2,0.5,1.9,0.7,2.3
	c0.2,0.5,0.4,0.8,0.7,1C122.5,49.5,123,49.6,123.6,49.7z M118.2,40.2c-1.5,0.2-2.4,0.1-2.5-0.3c0-0.1-0.1-1.2-0.1-3.4
	c0-2.1,0-3.3,0.1-3.4c0.1-0.2,0.4-0.3,1-0.4c0.6-0.1,1.2-0.1,2,0c1.1,0.1,1.9,0.6,2.4,1.3c0.5,0.7,0.8,1.5,0.7,2.4
	c0,0.9-0.4,1.7-1,2.4C120.2,39.6,119.3,40.1,118.2,40.2z M147.6,51.4c0.1,0.1,0.3,0.1,0.8,0s0.8-0.2,1.2-0.4
	c0.6-0.3,1.1-0.8,1.5-1.6c0.4-0.8,0.6-2.1,0.8-3.8c0.2-1.6,0.3-3.9,0.4-7c0-0.2,0-0.4,0-0.8c0-1.6,0.1-2.5,0.1-2.7
	c0-0.3,0.2-0.5,0.4-0.6c0,0,0.1,0,0.1,0c0.2-0.1,0.3-0.2,0.4-0.2c0-0.1,0-0.1,0-0.2c-0.1-0.2-0.4-0.5-0.8-0.9
	c-0.5-0.4-0.8-0.7-1-0.8c-0.1-0.1-0.2-0.1-0.3,0c-0.1,0-0.2,0.2-0.5,0.5c0,0-0.1,0.1-0.1,0.1c-0.3,0.3-0.5,0.5-0.7,0.6
	c-0.2,0-0.7,0.1-1.4,0.1c-0.2,0-0.3,0-0.4,0c-0.1,0-0.2,0-0.3,0c-0.7,0-1.2,0-1.3,0c-0.3,0-0.4-0.2-0.4-0.3c0-0.1,0.1-0.4,0.3-0.9
	c0-0.1,0.1-0.1,0.1-0.2c0.3-0.7,0.5-1.1,0.6-1.3c0.1-0.2,0.2-0.3,0.4-0.4c0.3-0.1,0.2-0.3-0.1-0.5c-0.4-0.2-1.1-0.5-2.2-0.8l0,0
	c-0.2-0.1-0.4-0.1-0.4,0c0,0-0.1,0.2-0.1,0.6c0,0,0,0.1,0,0.1c-0.3,2.3-1,4.8-2.2,7.6c-0.4,1-0.7,1.4-0.9,1.4
	c-0.1-0.1-0.2-0.7-0.2-2c0-1,0-1.6,0.1-1.8c0-0.2,0.2-0.4,0.5-0.6c0.2-0.1,0.3-0.3,0.2-0.5c-0.1-0.2-0.5-0.5-1.1-1
	c-0.4-0.4-0.7-0.5-0.9-0.5c-0.1,0-0.3,0.2-0.6,0.6c-0.3,0.4-0.8,0.6-1.5,0.7c-0.7,0.1-1-0.1-1-0.4c0-0.2,0.3-0.7,0.8-1.6
	c0.6-0.8,0.9-1.3,1.1-1.4c0.4-0.1,0.4-0.3,0.1-0.4c-0.3-0.2-0.9-0.4-2-0.6c0,0-0.1,0-0.2,0c-0.4-0.1-0.6-0.1-0.7-0.1
	c-0.1,0-0.1,0.2-0.1,0.6c0,0.1,0,0.2,0,0.2c0,0.5,0,1-0.1,1.5c-0.1,0.8-0.2,1.4-0.2,1.6c-0.1,0.3-0.3,0.4-0.5,0.4
	c-0.2,0-0.6-0.2-1.2-0.5c-0.6-0.3-0.9-0.4-1-0.4c0,0-0.1,0-0.1,0.1c0,0.1,0,0.3,0.1,0.8c0.1,1.1,0.2,3.5,0.2,7.1
	c0,3.8-0.1,6.6-0.2,8.4c-0.1,0.8,0,1.3,0.1,1.5s0.5,0.2,1.1,0c0.4-0.1,0.7-0.3,0.8-0.5c0.1-0.2,0.2-0.5,0.2-1v0c0-0.4,0-0.6,0-0.7
	c0.1-0.1,0.2-0.2,0.5-0.3c0.2,0,0.6,0,1.3,0c0,0,0.1,0,0.1,0c0,0,0.1,0,0.1,0c0.7,0,1.1,0,1.3,0c0.3,0,0.4,0.1,0.5,0.2
	c0,0.1,0.1,0.3,0.1,0.6V49c0,0.5,0.1,0.8,0.4,0.8c0.3,0.1,0.7,0,1.4-0.4c0,0,0.1,0,0.2-0.1c0.2-0.1,0.3-0.2,0.3-0.4
	c0-0.2,0-0.8,0-1.8c0-0.5,0-0.8,0-1.1c0-1.1,0-2.4,0-4.1c0-1.7,0-2.6,0.1-2.7c0-0.1,0.1-0.3,0.2-0.3c0.1-0.1,0.1-0.1,0,0
	c0,0.1,0,0.1,0.1,0.2c0.1,0,0.1,0,0.2,0c0.2-0.1,0.6-0.6,1.3-1.5c0.7-0.9,1.3-1.8,1.8-2.6c0,0,0,0,0-0.1c0.2-0.4,0.5-0.6,0.7-0.7
	c0.2-0.1,0.9-0.1,2-0.1c0.1,0,0.1,0,0.2,0c0.2,0,0.4,0,0.6,0c0.7,0,1.1,0,1.2,0c0.2,0,0.4,0.2,0.5,0.4c0,0.1,0.1,0.5,0,1
	c0,0.2,0,0.4,0,0.5c0,2.3-0.1,4.5-0.2,6.6c-0.1,2.1-0.3,3.5-0.5,4.4c-0.1,0.5-0.3,0.9-0.5,1.1c-0.2,0.2-0.6,0.4-1,0.4
	c-0.4,0-1.1,0-2.1-0.1c-0.5,0-0.8-0.1-0.9,0c-0.1,0-0.1,0.1-0.1,0.2c0,0.1,0.2,0.2,0.6,0.3c1.5,0.4,2.2,1,2.2,2.1
	C147.6,51.2,147.6,51.3,147.6,51.4z M136.4,47.3c-0.6,0-0.9,0-1.1-0.1c-0.2-0.1-0.3-0.3-0.4-0.6c0-0.2-0.1-0.8,0-1.7
	c0-0.4,0-0.7,0-0.9c0-0.2,0-0.5,0-0.8c0-0.8,0-1.4,0-1.6c0.1-0.3,0.2-0.5,0.4-0.6c0.1-0.1,0.5-0.1,1.1-0.1c0.2,0,0.4,0,0.6,0
	c0.1,0,0.3,0,0.6,0c0.6,0,0.9,0,1.1,0.1c0.2,0.1,0.3,0.3,0.4,0.6c0,0.2,0,0.8,0,1.6c0,0.4,0,0.6,0,0.8c0,1.5,0,2.3,0,2.6
	c0,0.3-0.1,0.4-0.2,0.5c-0.1,0.1-0.2,0.1-0.4,0.1c-0.1,0-0.6,0-1.4,0C136.8,47.3,136.7,47.3,136.4,47.3z M146.1,44
	c0.4,0.1,0.7,0.1,1-0.1c0.3-0.2,0.5-0.6,0.5-1c0-0.7-0.2-1.4-0.8-2c-0.5-0.7-1.3-1.3-2.4-1.8c-0.6-0.3-0.9-0.4-1-0.4
	c-0.1,0,0,0.3,0.3,0.7c1,1.5,1.6,2.9,1.8,4.1C145.6,43.7,145.8,43.8,146.1,44z M136.4,40.3c-0.6,0-0.9,0-1.1-0.1
	c-0.2-0.1-0.3-0.3-0.4-0.6c0-0.2-0.1-0.7,0-1.6c0-0.4,0-0.7,0-0.9c0-0.2,0-0.4,0-0.8c0-0.8,0-1.3,0-1.5c0.1-0.3,0.2-0.5,0.4-0.6
	c0.1,0,0.5-0.1,1-0.1c0.2,0,0.4,0,0.6,0s0.3,0,0.6,0c0.6,0,0.9,0,1.1,0.1c0.2,0.1,0.3,0.2,0.4,0.6c0,0.2,0.1,0.7,0.1,1.5
	c0,0.3,0,0.6,0,0.7c0,1.4,0,2.2,0,2.5c0,0.3-0.1,0.4-0.2,0.5c-0.1,0.1-0.2,0.1-0.4,0.1c-0.1,0-0.6,0-1.4,0
	C136.8,40.3,136.7,40.3,136.4,40.3z M166.1,51.4c0.2,0.2,0.6,0.2,1.1,0c0.6-0.2,0.9-0.4,0.9-0.6c0-0.2,0.1-0.3,0.2-0.4
	c0.1-0.1,0.5-0.1,1-0.1c0.4,0,1.3,0,2.8,0c0.1,0,0.2,0,0.4,0c1.3,0,2.1,0,2.4,0c0.5,0,0.8,0.1,0.9,0.2c0.1,0.1,0.1,0.2,0.1,0.5
	c0,0,0,0.1,0,0.1c0,0.2,0.1,0.4,0.3,0.4c0.2,0,0.6,0,1-0.2c0.4-0.1,0.7-0.3,0.7-0.4c0.1-0.1,0.1-0.5,0.1-1.2c0,0,0-0.1,0-0.1
	c0-1.6,0-2.6,0-3c0-0.4,0.1-0.6,0.3-0.7c0.3-0.1,0.2-0.4-0.3-0.8c-0.4-0.3-0.5-0.5-0.6-0.7c0-0.1,0.2-0.3,0.5-0.5c0,0,0,0,0.1,0
	c0.2-0.1,0.3-0.2,0.3-0.3s0-0.5,0-1.2c0-0.1,0-0.2,0-0.2c0-1,0.1-1.6,0.1-1.7c0.1-0.2,0.3-0.2,0.6,0c0.1,0.1,0.2,0.1,0.2,0.1
	c0,0,0.1-0.1,0.2-0.3c0.1-0.3,0.3-0.5,0.6-0.8c0.2-0.3,0.5-0.4,0.7-0.5c0.2-0.1,0.3-0.2,0.2-0.3c0-0.1-0.3-0.1-0.7-0.2
	c-1-0.2-1.9-0.4-2.6-0.7c-0.7-0.3-1.2-0.6-1.4-0.8c-0.2-0.3-0.1-0.5,0.3-0.7c0.3-0.1,0.4-0.2,0.4-0.3c0-0.1-0.2-0.2-0.5-0.5
	c-0.6-0.4-0.9-0.7-0.9-0.8c0-0.2,0.2-0.2,0.7-0.3c0.7,0,1,0.2,1,0.6c0,0.2,0.1,0.3,0.2,0.3c0.2,0,0.4,0,0.9-0.1
	c0.5-0.2,0.9-0.3,1-0.5c0.1-0.2,0.1-0.6,0.1-1.2c0-0.8,0-1.3,0-1.5c0-0.2,0.2-0.4,0.5-0.6c0.3-0.2,0.4-0.3,0.4-0.4
	c0-0.1-0.3-0.4-0.8-0.8c-0.5-0.4-0.8-0.7-1.1-0.9c-0.1-0.1-0.3-0.1-0.4,0c-0.1,0.1-0.3,0.2-0.5,0.6c0,0-0.1,0.1-0.1,0.2
	c-0.1,0.2-0.3,0.3-0.4,0.4c-0.2,0.1-0.7,0.1-1.3,0.1c-0.5,0-1.6,0-3.5,0c-0.7,0-1.3,0-1.7,0c-3.1,0-4.9,0-5.5-0.1
	c-0.6,0-1.1-0.2-1.7-0.4c-0.7-0.3-1.1-0.4-1.2-0.5c-0.1,0-0.2-0.1-0.2,0c0,0,0,0.2,0,0.4c0.1,0.8,0.2,2.7,0.1,5.5
	c0,2.8,0,4.9-0.1,6.3c-0.3,3.5-0.9,6.4-2,8.8c-0.2,0.5-0.3,0.7-0.1,0.7c0.1,0,0.4-0.2,0.7-0.6c0.4-0.4,0.7-0.9,1.1-1.5
	c1.2-1.9,2-4.4,2.4-7.5c0.1-0.5,0.1-0.8,0.2-0.9c0.1-0.2,0.2-0.3,0.5-0.4c0.3-0.2,0.5-0.2,0.6-0.2c0.1,0,0.2,0.3,0.3,0.6
	c0,0.3,0,0.9,0,1.8c0,1.1,0,1.7,0,1.8c0,0.2,0.1,0.3,0.1,0.3c0.2,0,0.4,0.4,0.4,1.1c0.1,0.7,0,2-0.1,3.7c0,0.8-0.1,1.3-0.1,1.5
	C166,51.2,166,51.3,166.1,51.4z M175.6,49.5c-0.1,0.1-1.3,0.1-3.6,0.1c-2.3,0-3.5-0.1-3.6-0.1c-0.2-0.1-0.3-0.3-0.3-0.6
	c0-0.3,0.1-0.5,0.2-0.7c0.1-0.1,1.3-0.1,3.6-0.1c2.3,0,3.5,0,3.7,0.1c0.2,0.1,0.3,0.4,0.3,0.7C175.9,49.2,175.8,49.4,175.6,49.5z
	 M172,47.3c-2.3,0-3.5,0-3.6,0c-0.2-0.1-0.3-0.3-0.4-0.6c0-0.4,0.1-0.6,0.3-0.7c0.1-0.1,1.3-0.1,3.6-0.1c2.3,0,3.5,0,3.6,0.1
	c0.2,0.1,0.3,0.3,0.3,0.7c0,0.3-0.1,0.6-0.3,0.7C175.5,47.3,174.3,47.3,172,47.3z M172,45.2c-2.3,0-3.5,0-3.8-0.1
	c-0.5-0.1-0.8-0.3-1-0.6c-0.1-0.3,0-0.5,0.4-0.7c0.2-0.1,1.6-0.1,4.3-0.1c2.7,0,4.1,0.1,4.2,0.1c0.2,0.1,0.2,0.3,0.1,0.6
	c-0.1,0.3-0.4,0.5-0.7,0.6C175.5,45.1,174.2,45.1,172,45.2z M170.9,42.9c-0.2,0.2-0.5,0.2-1.1,0c-0.1,0-0.3,0-0.5,0
	c-0.2,0-0.4,0.1-0.8,0.1c-0.4,0-0.6,0-0.7-0.1c-0.2-0.1-0.3-0.2-0.3-0.4c0-0.2,0-0.6,0-1.4c0-0.1,0-0.2,0-0.4c0-0.7,0.1-1.2,0.2-1.3
	c0.1-0.1,0.6-0.2,1.3-0.2c0.2,0,0.3,0,0.4,0c0.1,0,0.2,0,0.3,0c0.8,0,1.2,0.1,1.3,0.2c0.1,0.1,0.2,0.6,0.2,1.4c0,0.2,0,0.3,0,0.4
	C171.1,42.2,171,42.7,170.9,42.9z M175.2,43c-0.5,0-0.8,0-0.9,0c0,0-0.2,0-0.6,0c-0.3,0-0.6,0-0.6-0.1c-0.1-0.1-0.2-0.2-0.2-0.5
	c0-0.2,0-0.6,0-1.3c0-0.9,0-1.4,0.1-1.6c0.1-0.2,0.3-0.3,0.7-0.2c0.3,0,0.4,0.1,0.5,0.1c0.1,0.1,0.1,0.2,0.1,0.4
	c-0.1,0.7-0.2,1.3-0.4,2c-0.1,0.5-0.1,0.7,0,0.7s0.5-0.3,1-0.9c0.4-0.4,0.7-0.7,0.9-0.8c0.1-0.1,0.3-0.2,0.4-0.1
	c0.3,0,0.4,0.4,0.4,1c0,0.6-0.1,1-0.4,1.1C176.1,43,175.7,43,175.2,43z M169.6,42.7c0,0,0.1-0.1,0.3-0.2c0.3-0.2,0.5-0.5,0.5-0.9
	c0-0.3-0.2-0.7-0.5-1c-0.3-0.3-0.6-0.5-0.8-0.7c-0.3-0.2-0.5-0.2-0.6-0.2c-0.1,0-0.1,0.2,0,0.4c0.3,0.6,0.4,1.1,0.5,1.5
	c0,0,0,0.1,0,0.1c0,0.2,0,0.4,0.1,0.5c0,0,0.1,0.1,0.3,0.2C169.4,42.7,169.5,42.7,169.6,42.7z M176.3,40c-0.1,0.1-0.3,0.1-0.5,0
	c-0.3-0.1-0.5-0.2-0.6-0.4c-0.1-0.2,0-0.3,0.3-0.3c0.4-0.1,0.6,0,0.7,0.1c0.1,0.1,0.1,0.2,0.1,0.3C176.4,39.8,176.4,39.9,176.3,40z
	 M164.6,39.2c-0.2,0.1-0.3,0.1-0.3,0.1c-0.1,0-0.1-0.2-0.1-0.6c0-0.3,0-0.8,0-1.8c0-0.2,0-0.5,0-0.9c0-0.7,0-1.1,0.1-1.2
	c0.1-0.2,0.4-0.4,0.9-0.5c0.4,0,1.2,0,2.6,0c0.8,0,1.4,0,1.9,0c0.2,0,0.4,0,0.8,0c1.9,0,3.1,0,3.6,0c0.7,0,1.1,0.1,1.1,0.2
	c0.1,0.1,0,0.3-0.3,0.6c0,0.1-0.1,0.1-0.1,0.1c-0.1,0.2-0.7,0.3-1.8,0.3c-1,0-2,0-2.8-0.2c-0.1,0-0.2,0-0.2,0.1
	c0,0.1,0.1,0.2,0.2,0.5c0,0,0,0.1,0.1,0.1c0.1,0.2,0.2,0.3,0.3,0.4c0.1,0,0.3,0,0.6,0c0.1,0,0.2,0,0.2,0c1.1-0.2,2-0.2,2.7-0.2
	c0.7,0,1.1,0.2,1.3,0.5c0,0,0.1,0.2,0.2,0.4c0.1,0.2,0.2,0.3,0.3,0.4c0.2,0.4,0.3,0.6,0.4,0.7c0,0.1-0.1,0.3-0.2,0.3
	c-0.1,0.1-1.5,0.1-4,0.1c-2.5,0-3.8,0-3.9-0.1c-0.3-0.1-0.2-0.3,0-0.6c0.9-0.8,1.4-1.2,1.5-1.2c0.3,0,0.4-0.1,0.2-0.2
	c-0.1-0.1-0.4-0.4-1-0.7c-0.7-0.4-1.1-0.6-1.2-0.7c-0.1,0-0.2,0-0.3,0.2c-0.2,0.5-0.6,1.3-1.3,2.3C165.4,38.5,164.9,39,164.6,39.2z
	 M170.7,33.7c-4,0-6.1,0-6.3-0.1c-0.2-0.1-0.3-0.5-0.4-1.1c0-0.6,0.1-1,0.3-1.2c0.1-0.1,2.2-0.1,6.3-0.1c4.1,0,6.2,0,6.4,0.1
	c0.2,0.1,0.3,0.5,0.3,1.2c0,0.6-0.1,1-0.4,1.1C176.9,33.6,174.8,33.7,170.7,33.7z M191.2,51.4c0.2,0.1,0.4,0.1,0.8,0
	c0.4-0.1,0.7-0.2,1-0.4c0.2-0.1,0.3-0.2,0.3-0.3c0-0.1,0-0.4,0-1c-0.1-1.6-0.1-3.4-0.1-5.7c0-2.2,0-3.4,0.1-3.5
	c0.2-0.4,0.5-0.5,0.8-0.4c0.3,0.1,0.5,0.3,0.6,0.7c0,0.3,0.1,0.5,0.1,0.6c0,0.1,0.1,0.1,0.3,0.2c0.4,0.2,0.7,0.2,1,0
	c0.3-0.2,0.5-0.6,0.5-1.1c0-0.5-0.2-1.1-0.6-1.6c-0.4-0.5-1-1-1.7-1.5c-0.3-0.2-0.5-0.3-0.6-0.2c-0.1,0.1,0,0.3,0.2,0.6
	c0.3,0.7,0.4,1.1,0.3,1.3c-0.1,0.2-0.6,0.3-1.5,0.3c-0.7,0-1,0-1.1-0.1c-0.1-0.1,0-0.4,0.4-0.9c0.9-1.2,1.9-2.5,2.9-4
	c0.3-0.4,0.5-0.7,0.6-0.8c0.1-0.1,0.3-0.2,0.4-0.3c0.3-0.1,0.3-0.2,0-0.4c-0.3-0.2-0.9-0.5-1.9-1c-0.3-0.1-0.4-0.2-0.5-0.1
	c0,0-0.1,0.2-0.2,0.4c-0.3,1.3-1.1,3.3-2.4,6c-0.3,0.6-0.5,1-0.7,1.1c-0.2,0.1-0.6,0.2-1.3,0.2c0,0-0.1,0-0.1,0c-0.1,0-0.2,0-0.3,0
	c-0.4,0-0.6,0.1-0.7,0.1c0,0.1,0,0.3,0.1,0.6c0,0.1,0.1,0.2,0.1,0.3c0,0,0,0.1,0,0.1c0.2,0.6,0.3,0.9,0.4,1c0.1,0.1,0.2,0,0.4-0.2
	c0.2-0.2,0.6-0.4,1.3-0.5c0.5-0.1,0.8-0.1,0.9,0c0.1,0.1,0.2,0.4,0.2,0.9c0,0.7-0.1,1.1-0.2,1.2c-0.1,0.1-0.6,0.1-1.4-0.1
	c-0.1,0-0.2,0-0.3-0.1c-0.4-0.1-0.7-0.1-0.7-0.1c-0.1,0-0.1,0.2-0.1,0.5c0,0.1,0,0.2,0,0.2c0,1.7-0.2,3.4-0.7,5.1
	c-0.1,0.3-0.1,0.5-0.1,0.5c0,0.1,0,0.1,0.1,0.1c0.2,0.1,0.5-0.3,1.1-1.2c0.5-0.9,1-1.9,1.3-3c0.2-0.5,0.3-0.8,0.4-1
	c0.1-0.2,0.3-0.2,0.4-0.1c0.3,0.2,0.3,2.1,0.1,5.9c0,0.5,0,0.8,0,1C191,51.2,191,51.3,191.2,51.4z M197.1,51.4c0,0,0.1,0.1,0.1,0
	c0.1,0,0.2-0.1,0.5-0.2l0.1,0c1.6-0.7,3.1-1.6,4.5-2.7c0.4-0.4,0.7-0.5,0.9-0.6c0.2,0,0.4,0.2,0.7,0.5c0.8,0.9,1.7,1.7,2.8,2.4
	c0.4,0.3,0.7,0.4,0.7,0.4c0.1,0,0.2-0.1,0.3-0.3c0.1-0.3,0.3-0.5,0.6-0.8c0.3-0.3,0.6-0.4,0.8-0.5c0.4-0.1,0.4-0.3-0.1-0.5
	c-1.6-0.6-2.9-1.4-3.9-2.3c-0.3-0.3-0.5-0.5-0.5-0.6c0-0.2,0.1-0.5,0.4-0.9c1-1.4,1.8-3.2,2.4-5.2c0.2-0.6,0.3-0.9,0.4-1.1
	c0.1-0.2,0.2-0.3,0.4-0.3c0.3-0.1,0.4-0.2,0.3-0.5c-0.1-0.2-0.4-0.6-0.9-1c-0.4-0.4-0.7-0.6-0.9-0.6c-0.1,0-0.3,0.1-0.6,0.4
	c-0.4,0.4-0.6,0.5-0.8,0.5s-0.2-0.2-0.3-0.5c0-0.3,0.1-1.2,0.2-2.7c0,0,0,0,0-0.1c0.1-1.3,0.2-2.1,0.3-2.3c0.1-0.3,0.2-0.4,0.5-0.6
	c0.2-0.1,0.3-0.3,0.1-0.5c-0.1-0.2-0.5-0.6-1-1c-0.4-0.3-0.6-0.5-0.7-0.5c-0.1,0-0.3,0.1-0.5,0.4c0,0.1-0.1,0.1-0.2,0.2
	c-0.2,0.3-0.4,0.4-0.7,0.5c-0.3,0-1.1,0.1-2.4,0c-0.5,0-0.9,0-1.2,0c-2.4,0-3.7,0-3.8,0c-0.2,0-0.3,0-0.3,0c0,0,0.1,0.2,0.2,0.5
	c0.1,0.3,0.2,0.4,0.3,0.5c0.1,0,0.2,0,0.3,0c0.3-0.1,0.5-0.2,0.8-0.2c0.3,0,0.5,0.1,0.6,0.2c0.2,0.2,0.2,1.8,0.1,4.7
	c-0.1,2.9-0.3,5.1-0.6,6.8c-0.2,1.3-0.4,2.1-0.6,2.4c-0.2,0.3-0.3,0.2-0.6-0.4c-0.4-0.9-1-1.6-1.9-2.2c-0.4-0.3-0.6-0.3-0.6-0.2
	c0,0.1,0,0.4,0.2,0.9c0.4,1.3,0.6,2.3,0.6,3c0,0.2,0.1,0.4,0.4,0.5c0.3,0.1,0.5,0.1,0.7,0c0.4-0.2,0.6,0,0.4,0.6
	c-0.2,0.6-0.6,1.5-1.2,2.6c-0.2,0.3-0.3,0.5-0.3,0.6c0,0.1,0,0.1,0.1,0.2c0.1,0.1,0.2,0.1,0.2,0c0.1,0,0.2-0.2,0.4-0.4
	c1.1-1.2,2-2.6,2.7-4.1c0.7-1.5,1.2-3.3,1.6-5.4c0.2-1,0.3-1.6,0.5-1.7c0.1-0.1,0.3,0.2,0.4,0.9c0.4,1.8,0.9,3.5,1.6,5
	c0.2,0.4,0.3,0.8,0.3,1c0,0.2-0.2,0.5-0.5,0.9c-1.2,1.4-2.6,2.6-4.2,3.5c-0.2,0.1-0.4,0.2-0.4,0.3S197,51.3,197.1,51.4L197.1,51.4z
	 M203.6,44.5c-0.3,0.3-0.8-0.1-1.4-1.1c-0.6-1-1.1-2.3-1.5-3.8c0,0,0,0,0-0.1c-0.1-0.4-0.1-0.6-0.1-0.7c0-0.1,0.2-0.2,0.6-0.2
	c0.2,0,0.8,0,1.7,0c0.1,0,0.1,0,0.2,0c0.9,0,1.5,0,1.8,0c0.4,0,0.6,0.1,0.6,0.1c0.1,0.1,0.1,0.2,0.1,0.4c0,0.4-0.3,1.4-0.8,2.8
	C204.2,43.4,203.8,44.3,203.6,44.5z M201.6,37.9c-0.7,0-1.1,0-1.2,0c-0.2-0.1-0.3-0.2-0.4-0.4c0-0.2,0-0.6,0-1.2
	c0-1.1,0.1-2,0.1-2.7c0-0.1,0-0.2,0-0.4c0-0.6,0-1,0.1-1.2c0.1-0.2,0.2-0.4,0.4-0.5c0.1,0,0.5,0,1.1,0c0.1,0,0.3,0,0.3,0
	c0.1,0,0.3,0,0.5,0c0.5,0,0.8,0,1,0.1c0.2,0.1,0.3,0.3,0.3,0.6c0,0.2,0,0.8-0.1,1.7c0,0.4-0.1,0.7-0.1,0.9c0,0.1,0,0.2,0,0.3
	c-0.1,1.3-0.2,2.1-0.3,2.4c0,0.2-0.2,0.4-0.3,0.4C202.7,37.9,202.3,37.9,201.6,37.9z M189.7,36.9c0.4,0.2,0.7,0.2,0.9-0.1
	c0.2-0.2,0.4-0.5,0.4-0.9c0-0.4-0.1-0.8-0.4-1.1c-0.2-0.3-0.3-0.5-0.3-0.6c0-0.2,0.3-0.5,0.7-1c0.4-0.5,0.7-0.9,0.9-1.2
	c0.7-0.9,1.1-1.4,1.3-1.5c0.3-0.1,0.3-0.2,0.2-0.4c-0.1-0.1-0.6-0.3-1.2-0.6c-0.8-0.3-1.2-0.5-1.3-0.5c-0.1,0-0.2,0.1-0.2,0.3
	c-0.1,0.7-0.2,1.6-0.5,2.5c-0.2,0.9-0.4,1.5-0.6,1.6c-0.1,0.2-0.4,0.2-0.8,0c-0.6-0.2-0.9-0.3-1.1-0.3c-0.1,0-0.1,0.2,0.2,0.5
	c0.7,0.8,1.1,1.6,1.4,2.4c0.1,0.3,0.1,0.4,0.2,0.5C189.5,36.8,189.5,36.8,189.7,36.9z M225,51.4c0.2,0.1,0.6,0.1,1,0
	c0.5-0.1,0.9-0.3,1.2-0.6l0,0c0.1-0.1,0.1-0.2,0.1-0.3c0-0.2,0-0.7,0-1.6c0-0.5,0-0.8,0-1.1c0-1,0-2.1,0-3.3c0-1.2,0-1.8,0.1-1.9
	c0.1-0.1,0.2-0.2,0.5-0.2c0.2,0,1,0,2.4,0c0.1,0,0.3,0,0.5,0c0.9,0,1.5,0,1.7,0c0.3,0,0.5,0.1,0.6,0.2c0,0.1,0.1,0.3,0,0.6
	c0,0.1,0,0.1,0,0.2c0,0.5,0,0.7,0.1,0.8c0.1,0.1,0.4,0.1,0.9,0c0.7-0.1,1.1-0.3,1.2-0.5c0.1-0.2,0.2-0.7,0.1-1.6
	c-0.1-2.6-0.1-4.4-0.1-5.2c0-0.8,0.2-1.3,0.4-1.4c0,0,0,0,0.1,0c0.3-0.2,0.4-0.3,0.4-0.4c0-0.1-0.3-0.5-1-1
	c-0.7-0.5-1.1-0.8-1.3-0.8c-0.1,0-0.3,0.2-0.7,0.7c0,0,0,0.1-0.1,0.1c-0.2,0.2-0.4,0.4-0.6,0.4c-0.2,0-0.8,0-1.9,0
	c-0.2,0-0.4,0-0.6,0c-0.2,0-0.5,0-0.8,0c-0.8,0-1.3,0-1.5,0c-0.3,0-0.5-0.2-0.6-0.4c0-0.1-0.1-0.5,0-1c0-0.2,0-0.4,0-0.5
	c0-0.8,0-1.4,0-1.5c0-0.2,0.1-0.3,0.3-0.5c0.2-0.2,0.2-0.4-0.1-0.5c-0.2-0.1-0.9-0.4-2-0.6c-0.4-0.1-0.7-0.2-0.8-0.1
	c-0.1,0-0.1,0.1-0.1,0.3c0.1,0.7,0.2,1.6,0.2,2.7c0,1.1,0,1.7,0,1.9l0,0c-0.1,0.1-0.2,0.2-0.5,0.3c-0.2,0-1,0-2.4,0
	c-0.2,0-0.4,0-0.7,0c-1,0-1.6,0-1.8,0c-0.3,0-0.7-0.2-1.2-0.4c-0.2-0.1-0.3-0.1-0.4-0.2c-0.1,0-0.1-0.1-0.2-0.1
	c-0.5-0.2-0.8-0.3-0.8-0.3c-0.1,0-0.1,0.2,0,0.5c0,0.1,0,0.1,0,0.1c0.1,1.1,0.2,2.6,0.2,4.5c0,1.8,0,3.5-0.1,4.9c0,0.5,0,0.9,0.1,1
	c0.1,0.1,0.4,0.1,0.9,0c0.5-0.1,0.9-0.3,1.1-0.4c0.2-0.2,0.3-0.5,0.3-0.8c0,0,0-0.1,0-0.2c0-0.3,0-0.5,0.1-0.6
	c0.1-0.1,0.3-0.2,0.6-0.2c0.2,0,0.8,0,1.7,0c0.2,0,0.4,0,0.6,0c1.3,0,2.1,0,2.4,0c0.2,0,0.4,0.1,0.5,0.3c0.1,0.1,0.1,1.1,0.1,2.7
	c0,1.7-0.1,3.2-0.1,4.5c0,0.7-0.1,1.2,0,1.3C224.8,51.2,224.9,51.3,225,51.4z M222,41.5c-1.6,0-2.5,0-2.6-0.1
	c-0.1-0.1-0.2-0.2-0.3-0.5c0-0.3,0-1.2,0-2.6c0-0.3,0-0.6,0-1c0-0.8,0-1.3,0-1.6c0.1-0.3,0.2-0.5,0.5-0.6c0.2,0,0.7-0.1,1.4,0
	c0.4,0,0.7,0,0.9,0c0.2,0,0.6,0,0.9,0c0.7,0,1.2,0,1.4,0c0.3,0.1,0.4,0.3,0.5,0.6c0,0.2,0.1,0.7,0,1.6c0,0.4,0,0.8,0,1
	c0,1.5,0,2.3,0,2.6c0,0.3-0.1,0.4-0.3,0.5C224.5,41.5,223.6,41.5,222,41.5z M232.7,41.4c-0.1,0.1-1,0.1-2.6,0.1
	c-1.6,0-2.4,0-2.6-0.1c-0.2-0.1-0.3-0.2-0.3-0.5c0-0.3,0-1.1,0-2.6c0-0.3,0-0.6,0-1c0-0.8,0-1.3,0-1.6c0.1-0.3,0.2-0.5,0.5-0.6
	c0.2,0,0.7-0.1,1.4,0c0.4,0,0.7,0,0.9,0c0.2,0,0.6,0,0.9,0c0.8,0,1.2,0,1.4,0c0.3,0.1,0.4,0.3,0.5,0.6c0,0.2,0.1,0.7,0,1.6
	c0,0.4,0,0.8,0,1c0,1.5,0,2.4,0,2.6C233,41.2,232.9,41.3,232.7,41.4z M252.2,43.2c0.1,0.2,0.2,0.3,0.4,0.3c0.2,0,0.5-0.2,0.9-0.6
	c0.9-0.7,1.6-1.6,2-2.8c0.4-1.1,0.4-2.1,0.1-2.9c-0.3-0.9-0.9-1.3-1.8-1.2c-0.6,0-1,0.3-1.3,0.7c-0.2,0.4-0.3,0.9-0.1,1.4
	c0.2,0.5,0.5,1,1.1,1.3c0.3,0.2,0.5,0.3,0.6,0.5c0.1,0.1,0.1,0.2,0.1,0.4c-0.1,0.4-0.3,0.8-0.6,1.3c-0.4,0.5-0.8,0.8-1.2,1.2
	c-0.2,0.1-0.3,0.2-0.3,0.3C252.1,42.9,252.1,43,252.2,43.2z M278.6,51.4c0.1,0.1,0.3,0,0.6-0.2c1.1-0.9,2.1-2,2.8-3.5
	c0.3-0.5,0.5-0.8,0.6-0.8c0.1,0,0.3,0.2,0.6,0.7c0.5,1.1,1.1,1.9,1.9,2.4c0.8,0.5,1.8,0.8,3.1,0.9c0.5,0,1.3,0,2.2,0s1.4,0,1.4,0
	c0,0,0.1-0.2,0.1-0.5c0.1-0.6,0.3-1,0.6-1.1c0.2-0.2,0.4-0.3,0.4-0.3c0,0-0.2-0.1-0.6-0.1c-0.3,0-0.9,0-2,0c-0.2,0-0.5,0-0.9,0
	c-0.8,0-1.3,0-1.5-0.1c-0.3-0.1-0.5-0.2-0.6-0.5c0-0.2-0.1-0.7,0-1.4c0-0.4,0-0.6,0-0.8s0-0.5,0-0.8c0-0.7,0-1.2,0-1.4
	c0-0.3,0.2-0.4,0.4-0.5c0.2,0,0.6-0.1,1.2-0.1c0.3,0,0.6,0,0.8,0c1.1,0,1.8,0,2,0c0.2,0,0.3-0.1,0.4-0.2c0.1-0.1,0-0.2,0-0.3
	c-0.1-0.1-0.3-0.4-0.6-0.7c-0.6-0.6-1-0.9-1.2-0.9c-0.2,0-0.4,0.2-0.7,0.6c-0.3,0.4-0.5,0.7-0.6,0.8c-0.2,0.1-0.4,0.1-0.7,0.1
	c-0.3,0-0.5,0-0.6-0.1c-0.1-0.1-0.2-0.3-0.2-0.6c0-0.3,0-0.9,0-1.8c0,0,0-0.1,0-0.2c0-0.9,0-1.4,0-1.7c0-0.3,0.1-0.5,0.3-0.6
	c0.1-0.1,0.3-0.1,0.7-0.1c0,0,0.1,0,0.1,0c0.5,0,0.8,0.1,0.9,0.3c0.1,0.2,0,0.7-0.3,1.5c-0.2,0.6-0.3,1-0.3,1.1
	c0,0.1,0.2,0.1,0.5-0.1c0.2-0.2,0.7-0.7,1.5-1.4c0.7-0.6,1.1-1,1.3-1c0.4,0,0.5-0.2,0.3-0.5c-0.2-0.4-0.6-0.8-1.2-1.3
	c-0.3-0.2-0.4-0.3-0.5-0.3c-0.1,0-0.3,0.2-0.6,0.5c0,0-0.1,0.1-0.1,0.1c-0.2,0.2-0.5,0.4-0.7,0.4c-0.2,0-1,0-2.2,0
	c-0.3,0-0.5,0-0.6,0c-1.7,0-2.8,0-3.3,0c-0.7,0-1-0.1-1.1-0.3c0-0.1,0.1-0.4,0.5-0.8c0.1-0.1,0.2-0.3,0.4-0.6
	c0.1-0.1,0.1-0.2,0.2-0.2c0.3-0.4,0.5-0.7,0.7-0.7c0.1,0,1.4-0.1,4-0.1c0.2,0,0.3,0,0.4,0c2.2,0,3.4,0,3.8,0c0.4,0,0.6-0.1,0.7-0.2
	c0.1-0.1,0-0.4-0.4-0.8c-0.3-0.4-0.8-0.8-1.3-1.2c-0.3-0.2-0.4-0.2-0.6-0.2c-0.1,0-0.3,0.3-0.6,0.8c0,0,0,0.1-0.1,0.1
	c-0.3,0.4-0.5,0.6-0.7,0.7c-0.2,0.1-0.8,0.1-1.9,0.1c-0.1,0-0.3,0-0.3,0c-0.1,0-0.2,0-0.4,0c-0.8,0-1.3,0-1.5,0
	c-0.3,0-0.4-0.2-0.4-0.3c0-0.1,0.1-0.4,0.3-0.8c0-0.1,0.1-0.1,0.1-0.2c0.1-0.1,0.1-0.3,0.2-0.5l0.1-0.3c0-0.1,0.1-0.2,0.2-0.3
	c0.1-0.2,0.3-0.3,0.4-0.3c0.3-0.1,0.3-0.3,0-0.4c-0.2-0.2-0.8-0.4-1.8-0.7c-0.5-0.2-0.8-0.3-0.9-0.3c-0.1,0-0.1,0.1-0.1,0.3
	c0,0.5-0.1,1.2-0.4,2.4c-0.3,1.1-0.5,1.8-0.6,2c-0.1,0.2-0.3,0.3-0.4,0.2c-0.2-0.1-0.5-0.4-1.1-0.9c0,0-0.1-0.1-0.2-0.2
	c-0.4-0.3-0.6-0.5-0.7-0.5c-0.1,0-0.2,0.1-0.4,0.4c0,0.1-0.1,0.1-0.1,0.2c-0.7,1.1-1.3,1.3-1.7,0.8c-0.1-0.2-0.2-0.8-0.1-1.7
	c0.1-0.9,0.2-1.4,0.3-1.6c0.2-0.2,0.2-0.3,0-0.5c-0.2-0.1-0.8-0.3-1.8-0.6c0,0-0.1,0-0.1,0c-0.4-0.1-0.6-0.2-0.7-0.1
	c0,0-0.1,0.2,0,0.5c0,0,0,0.1,0,0.1c0.1,0.8,0.2,1.6,0.2,2.4c0,0.8,0,1.3-0.1,1.4c-0.2,0.3-1.1,0.4-2.8,0.2c-0.5,0-0.7-0.1-0.8-0.1
	c-0.1,0-0.1,0.2,0.1,0.6c0.1,0.2,0.2,0.4,0.2,0.4c0.1,0,0.2,0,0.5-0.1c0,0,0.1,0,0.1,0c0.6-0.2,0.9-0.2,1.1-0.2
	c0.2,0,0.4,0.2,0.5,0.6c0.1,0.3,0.1,0.9,0.1,1.8c0,3.3-0.2,6-0.6,8.1c-0.4,2.1-1.1,4-2,5.5c-0.1,0.2-0.2,0.4-0.2,0.5
	c0,0.1,0,0.2,0.1,0.2c0.1,0.1,0.1,0.1,0.2,0.1c0.1,0,0.3-0.2,0.7-0.7c0.4-0.5,0.7-0.9,1-1.2c0.4-0.6,0.7-0.9,0.8-0.7
	c0,0,0.2,0.1,0.6,0.2c0.4,0.1,0.7,0.3,0.9,0.5c0.2,0.2,0.3,0.6,0.4,1c0,0.3,0.1,0.4,0.2,0.4c0.1,0,0.4,0,0.8-0.1
	c0.8-0.2,1.3-0.6,1.7-1.2c0.4-0.7,0.8-1.7,1-3.1c0.2-1.3,0.4-3.3,0.5-5.8c0-0.6,0.1-1,0.1-1.2s0.2-0.3,0.5-0.4
	c0.2-0.1,0.3-0.2,0.3-0.3c0-0.1-0.1-0.2-0.3-0.5c-0.1-0.1-0.3-0.3-0.4-0.5c-0.1-0.1-0.2-0.2-0.5-0.4c-0.1-0.1-0.3-0.2-0.6-0.3
	c-0.2-0.1-0.3-0.1-0.4-0.1c-0.1,0-0.2,0.2-0.5,0.5c-0.3,0.3-0.5,0.5-0.6,0.6c-0.1,0.1-0.4,0.1-0.7,0.1c-0.5,0-0.7-0.1-0.8-0.2
	c-0.1-0.1-0.1-0.6-0.1-1.3c0-0.1,0-0.3,0-0.5c0-0.6,0-1,0.1-1.1c0.1-0.2,0.3-0.4,0.6-0.4c0.2,0,0.7,0,1.5,0c0.2,0,0.4,0,0.6,0
	c1.1,0,1.8,0,2.1,0.1c0.4,0.1,0.5,0.3,0.4,0.6c0,0.2-0.3,0.7-0.8,1.5c-0.2,0.3-0.3,0.4-0.3,0.5c0,0.1,0,0.1,0,0.2c0.1,0,0.2,0,0.2,0
	c0.1,0,0.2-0.1,0.4-0.3c0.2-0.2,0.4-0.2,0.6-0.2c0.2,0,0.3,0.2,0.4,0.4c0.1,0.2,0.2,0.2,0.2,0.3c0.1,0,0.3,0,0.6-0.1
	c1.6-0.3,2.5-0.3,2.7,0.1c0,0.1,0.1,1.6,0.1,4.5c0,2.9,0,4.6,0,4.9c0,0.4-0.2,0.5-0.5,0.5c-0.3-0.1-0.6-0.4-1-1
	c-0.4-0.5-0.6-0.9-0.6-1.2s0-0.8,0.1-1.4c0.1-0.3,0.2-0.9,0.3-1.6c0.1-0.5,0.1-0.8,0.2-1c0.1-0.2,0.2-0.3,0.3-0.4
	c0.4-0.3-0.2-0.5-1.9-0.6c-0.3,0-0.5,0-0.6,0c0,0-0.1,0.2-0.1,0.6c0,2.2-0.2,4-0.6,5.4c-0.4,1.4-1,2.8-1.9,4.1
	C278.6,51.1,278.6,51.3,278.6,51.4z M275.6,48.5c-0.4,0-0.6,0-0.7,0l-0.3,0c-0.1,0-0.3,0-0.3,0c-0.4,0-0.6-0.1-0.6-0.2
	c0-0.1,0.1-0.5,0.4-1.2c0.8-1.7,1.3-4,1.6-6.7c0.1-0.7,0.2-1.1,0.3-1.2c0.1-0.1,0.4-0.2,0.9-0.2c0.4,0,0.7,0,0.8,0.1
	c0.1,0.1,0.2,0.4,0.2,0.9c0,0.3,0,1.1-0.1,2.4c-0.1,2.1-0.3,3.5-0.5,4.4c-0.2,0.9-0.5,1.4-0.9,1.6C276.2,48.4,276,48.5,275.6,48.5z
	 M314.3,51.5c0,0.1,0.3,0.1,0.8,0c0.5-0.1,0.9-0.3,1.2-0.4c0.3-0.2,0.5-0.5,0.6-0.8c0.1-0.3,0.1-1.1,0.2-2.3c0-0.1,0-0.3,0-0.5
	c0-0.7,0-1.2,0.1-1.4c0-0.3,0.2-0.4,0.4-0.5c0.1,0,0.5-0.1,1-0.1c0.2,0,0.3,0,0.4,0c1,0,1.5,0,1.6-0.1c0.1-0.1-0.1-0.4-0.6-1
	c-0.4-0.4-0.6-0.7-0.6-0.8c0-0.1,0-0.3,0.2-0.4c0.3-0.3,0.4-0.6,0.3-1.1c-0.1-0.5-0.5-0.9-1-1.2c-0.3-0.2-0.5-0.4-0.5-0.5
	c0-0.1,0.1-0.3,0.3-0.4c0,0,0.1,0,0.1-0.1c0.2-0.1,0.3-0.2,0.3-0.4c0-0.2,0-0.6,0-1.5c0-0.2,0-0.4,0-0.5c0-1.2,0-2,0.1-2.3
	c0-0.3,0.2-0.5,0.4-0.6c0.2-0.1,0.2-0.2,0.2-0.3c0-0.1-0.2-0.4-0.6-0.7c-0.5-0.5-0.9-0.7-1.1-0.8c-0.2-0.1-0.4,0-0.6,0.3
	c-0.3,0.4-0.5,0.6-0.6,0.7c-0.1,0.1-0.4,0.1-0.9,0.1c-0.4,0-0.7-0.1-0.8-0.2c-0.1-0.1-0.2-0.3-0.2-0.7c0-0.3,0.1-0.5,0.1-0.5
	c0.1-0.1,0.3-0.2,0.7-0.2c0.3,0,0.9,0,1.8,0c1.7,0,2.6-0.1,2.7-0.3s-0.3-0.7-1.4-1.5c-0.3-0.2-0.5-0.3-0.6-0.3
	c-0.1,0-0.3,0.3-0.6,0.7c-0.6,0.8-1.3,1-2.2,0.8c-0.3-0.1-0.4-0.2-0.4-0.5c0-0.3,0.1-0.5,0.3-0.7c0.2-0.2,0.2-0.3,0-0.5
	c-0.2-0.1-0.7-0.3-1.6-0.6c0,0-0.1,0-0.2,0c-0.4-0.1-0.6-0.1-0.6-0.1c0,0-0.1,0.1,0,0.4c0,0,0,0.1,0,0.1c0,0.7,0,1.2,0,1.4
	c-0.1,0.3-0.4,0.4-0.9,0.5c-0.4,0-1.3,0-2.6-0.1c-0.1,0-0.3,0-0.4,0c-0.3,0-0.5,0-0.5,0c0,0-0.1,0-0.1,0.1c0,0.2-0.3,0.1-0.8-0.2
	l0,0c-0.3-0.2-0.4-0.2-0.5-0.2c-0.1,0-0.3,0.3-0.6,0.8c-0.4,0.6-0.9,0.8-1.2,0.6c-0.2-0.1-0.3-0.5-0.3-1.1c0-0.6,0.1-0.9,0.3-1.1
	c0.5-0.3-0.1-0.6-1.9-1.1c-0.3-0.1-0.5-0.1-0.5-0.1c0,0,0,0.1,0,0.4c0.1,0.6,0.1,1.2,0.1,1.8c0,0.6,0,0.9-0.1,1
	c-0.2,0.3-1.2,0.3-3,0.1c0,0,0,0-0.1,0c-0.3,0-0.5,0-0.6,0c0,0,0,0.2,0.2,0.5l0,0c0,0,0,0,0,0.1c0.1,0.2,0.2,0.3,0.3,0.3
	c0.1,0,0.2,0,0.5-0.1c0.1,0,0.1,0,0.1,0c0.9-0.2,1.6-0.2,2-0.1c0.4,0.1,0.6,0.5,0.6,1c0,0.6-0.1,1-0.4,1.1c-0.3,0.1-0.9-0.1-1.8-0.5
	c-0.5-0.2-0.8-0.4-0.9-0.4s-0.1,0-0.1,0.1c0,0.1,0,0.3,0.1,0.7c0.1,0.9,0.2,2.2,0.2,4c0,1.8,0,3.1-0.1,3.9c0,0.4,0,0.7,0.1,0.9
	c0.1,0.1,0.3,0.2,0.6,0.1c0.8-0.1,1.2-0.4,1.2-0.7c0-0.3,0.1-0.4,0.3-0.6c0.2-0.1,0.4-0.2,0.6,0c0.2,0.2,0.3,0.6,0.3,1.4
	c0,0.8-0.2,1.2-0.4,1.3c-0.1,0.1-0.6,0.1-1.6,0c-0.9,0-1.5-0.1-1.8-0.1c-0.1,0-0.1,0-0.1,0.1c0,0.1,0.1,0.2,0.2,0.5c0,0,0,0,0,0.1
	c0.1,0.2,0.2,0.4,0.3,0.4s0.2,0,0.5,0c0,0,0.1,0,0.1,0c0.7-0.1,1.3-0.2,1.8-0.2c0.5,0,0.8,0.1,0.9,0.3c0,0.1,0.1,0.6,0,1.5
	c0,0.9,0,1.6-0.1,2.3c0,0.5,0.1,0.8,0.4,0.9c0.3,0.1,0.8,0,1.3-0.3c0.2-0.1,0.3-0.2,0.4-0.3c0-0.1,0.1-0.4,0-0.8c0-0.1,0-0.1,0-0.1
	c0-0.1,0-0.3,0-0.6c0-1-0.1-1.7,0-1.9c0-0.4,0.2-0.6,0.5-0.7c0.2-0.1,0.6-0.1,1.3-0.1c0.2,0,0.3,0,0.4,0c1,0,1.5,0,1.7,0
	c0.2,0,0.3-0.1,0.4-0.2c0-0.1,0-0.1,0-0.2c-0.1-0.1-0.1-0.3,0-0.4s0.3-0.2,0.5-0.1c0.2,0,0.4,0.1,0.4,0.2c0,0,0.1,0.2,0.2,0.4
	c0.2,0.3,0.4,0.7,0.5,1.2c0.2,0.5,0.3,0.9,0.3,1.1c0,0.3,0.3,0.5,0.9,0.7c0.1,0,0.2,0,0.3,0.1l0,0c0,0,0,0.1,0,0.1
	c0,0.1,0.2,0.2,0.4,0.2c0.5,0.1,0.9,0.3,1.1,0.5c0.2,0.2,0.4,0.6,0.5,1.1c0,0,0,0.1,0,0.1C314.3,51.4,314.3,51.5,314.3,51.5z
	 M314.6,49.1c-0.2,0.1-0.8,0.1-1.6,0c-0.2,0-0.3-0.1-0.3-0.2c0-0.1,0-0.3,0.1-0.6c0.3-0.7-0.1-1.4-1.1-2.1c-0.5-0.4-0.7-0.6-0.6-0.7
	c0.2-0.1,0.8-0.1,1.9-0.1c0.1,0,0.2,0,0.3,0c0.8,0,1.3,0.1,1.4,0.2s0.2,0.6,0.2,1.4c0,0.1,0,0.2,0,0.3c0,0.8,0,1.3,0,1.4
	C314.9,48.9,314.8,49.1,314.6,49.1z M305.8,45.7c-0.2,0.1-0.3,0.1-0.5,0.1c-0.2,0-0.3-0.1-0.4-0.2c-0.1-0.1-0.1-0.4-0.1-1s0-1,0-1.2
	c0.1-0.4,0.3-0.5,0.6-0.4c0.3,0.1,0.5,0.3,0.5,0.7c0,0.3,0.1,0.5,0.4,0.5c0.3,0,0.6-0.1,1-0.3c0,0,0,0,0.1-0.1
	c0.2-0.2,0.4-0.3,0.4-0.4c0-0.1,0.1-0.3,0-0.7c0,0,0-0.1,0-0.1c-0.1-2.2-0.1-3.7-0.1-4.3c0-0.9,0-1.5,0.1-1.7
	c0.1-0.2,0.2-0.4,0.5-0.5c0.2-0.1,0.3-0.2,0.2-0.4c-0.1-0.2-0.4-0.5-1-0.9c-0.4-0.3-0.6-0.4-0.7-0.4c-0.1,0-0.3,0.1-0.5,0.4
	c-0.4,0.5-0.8,0.7-1.1,0.6c-0.3-0.1-0.4-0.5-0.4-1.1v0c0-0.4,0-0.6,0.1-0.6c0.1-0.1,0.2-0.2,0.5-0.3c0.2,0,0.6,0,1.4,0
	c0.1,0,0.1,0,0.1,0c0.9,0,1.5,0,1.6,0c0.2,0,0.3,0.1,0.4,0.2c0.1,0.2,0.2,1,0.2,2.5c0,1.5,0,2.6,0,3.4c0,0.5,0,0.8,0,0.9
	c0.1,0.1,0.2,0.2,0.5,0.1c0.3,0,0.6-0.1,1-0.2c0.3-0.2,0.5-0.3,0.5-0.4c0-0.4,0.3-0.6,1-0.6c0.4,0,0.7,0.1,0.8,0.2s0.2,0.4,0.2,1
	c0,0,0,0.1,0,0.1c0,0.4,0,0.6-0.1,0.7c-0.1,0.1-0.4,0.2-0.8,0.3c-0.3,0-1,0.1-2.2,0.1c-0.1,0-0.3,0-0.3,0c-0.1,0-0.2,0-0.3,0
	c-0.4,0-0.6,0.1-0.6,0.1c0,0.1,0,0.3,0.2,0.7c0,0.1,0.1,0.2,0.1,0.3c0,0,0,0.1,0.1,0.2c0.2,0.5,0.4,0.8,0.4,0.9
	c0.1,0.1,0.2,0,0.3-0.1l0,0c0.2-0.1,0.4-0.3,0.6-0.3c0.3-0.1,0.9-0.3,1.9-0.5c0.1,0,0.3-0.1,0.5-0.1c0.8-0.2,1.2-0.3,1.4-0.3
	c0.3,0,0.5,0,0.5,0.1c0.1,0.1,0.1,0.3,0.1,0.7c0,0.1,0,0.2,0,0.2c0,0.1,0,0.2,0,0.3c0,0.4,0,0.6-0.1,0.7c-0.1,0.1-0.3,0.2-0.7,0.2
	c-0.3,0-0.9,0-1.8,0c-0.4,0-0.7,0-0.9,0c-1.5,0-2.4,0-2.7,0c-0.3,0-0.4,0-0.4,0.1c0,0.1-0.1,0.1-0.3,0.1c-0.2-0.1-0.4-0.2-0.7-0.4
	l0,0c-0.2-0.1-0.3-0.2-0.3-0.2c0,0-0.1,0.1-0.3,0.3c0,0-0.1,0.1-0.1,0.1C306.2,45.3,305.9,45.6,305.8,45.7z M317.6,44.7
	c-0.3,0.1-0.4,0-0.5-0.3c-0.1-0.3,0-0.6,0.3-0.7c0.2-0.1,0.2-0.2,0-0.3c-0.1-0.1-0.4-0.2-1-0.4c-0.6-0.2-1-0.4-1-0.6s0.3-0.3,1-0.5
	c0.5-0.1,0.8-0.1,1,0c0.2,0.1,0.4,0.4,0.7,0.8c0,0,0.1,0.1,0.1,0.2c0.1,0.2,0.2,0.3,0.2,0.3c0.1,0.1,0.1,0.4-0.1,0.8
	C318.1,44.4,317.9,44.6,317.6,44.7z M305.7,42.1c-0.7,0.5-1.1,0.1-1.1-1.3s0.4-1.8,1.1-1.3c0.2,0.1,0.3,0.6,0.3,1.3
	S305.9,42,305.7,42.1z M302.2,42.2c-0.3,0-0.5-0.1-0.6-0.3c-0.1-0.2-0.1-0.6-0.1-1.1c0-0.6,0.1-1.1,0.3-1.3c0.2-0.2,0.5-0.2,0.8,0
	c0.2,0.1,0.3,0.6,0.3,1.3s-0.1,1.1-0.3,1.3C302.5,42.2,302.4,42.2,302.2,42.2z M316.4,41.2c-0.2,0.1-0.4,0.2-0.8,0.1
	c-0.3,0-0.5-0.1-0.6-0.3c-0.3-0.4-0.3-0.8-0.1-1.2c0.2-0.4,0.6-0.6,1.1-0.6c0.5,0,0.8,0.1,0.9,0.4c0.1,0.2-0.1,0.3-0.6,0.3
	c-0.2,0-0.3,0-0.3,0.1c0,0,0.1,0.2,0.3,0.4C316.5,40.8,316.6,41,316.4,41.2z M305.6,38.7c-0.4,0.1-0.6,0.1-0.7-0.1
	c-0.1-0.2-0.2-0.6-0.2-1.2c0-1.3,0.4-1.7,1.1-1.2c0.2,0.2,0.3,0.6,0.3,1.3C306,38.2,305.8,38.6,305.6,38.7z M312.6,38.5
	c-0.4,0.2-0.7,0.2-1.1,0c-0.4-0.2-0.6-0.4-0.6-0.8c0-0.4,0.2-0.6,0.6-0.8c0.4-0.2,0.8-0.2,1.1,0c0.2,0.1,0.3,0.4,0.3,0.8
	C312.9,38.2,312.8,38.4,312.6,38.5z M302.6,38.7c-0.2,0.1-0.3,0.1-0.6,0.1c-0.2,0-0.3-0.1-0.4-0.3c-0.1-0.1-0.1-0.4-0.1-0.9
	s0-0.9,0-1.1c0.1-0.3,0.3-0.5,0.6-0.5s0.5,0.2,0.6,0.5c0.1,0.3,0.1,0.7,0,1.3C302.9,38.3,302.8,38.6,302.6,38.7z M315.9,38.6
	c-0.4,0-0.7,0-0.9-0.1c-0.1-0.1-0.2-0.3-0.2-0.7c0-0.4,0.1-0.6,0.2-0.7c0.1-0.1,0.4-0.2,0.9-0.2s0.7,0.1,0.9,0.2
	c0.1,0.1,0.2,0.3,0.2,0.7c0,0.4-0.1,0.6-0.3,0.7C316.6,38.6,316.3,38.6,315.9,38.6z M316.6,36.2c-0.4,0.2-0.8,0.2-1.2,0
	c-0.4-0.1-0.6-0.4-0.6-0.7c0-0.4,0.1-0.8,0.6-1c0.4-0.2,0.9-0.2,1.3,0.1c0.2,0.1,0.3,0.4,0.3,0.8C317,35.8,316.8,36.1,316.6,36.2z
	 M312.6,36.2c-0.2,0.1-0.5,0.1-0.9,0.1c-0.4,0-0.6-0.1-0.6-0.3c-0.3-0.5-0.2-0.9,0.2-1.2c0.4-0.4,0.8-0.4,1.3-0.1
	c0.2,0.1,0.3,0.4,0.3,0.8C312.9,35.8,312.8,36,312.6,36.2z M312.6,33.8c-0.1,0.1-0.4,0.1-0.8,0.1s-0.8-0.1-1-0.1
	c-1.5-0.5-2-0.9-1.4-1.2c0.2-0.1,0.8-0.2,1.6-0.2s1.4,0,1.6,0c0.2,0.1,0.3,0.4,0.3,0.7C312.9,33.4,312.8,33.7,312.6,33.8z
	 M23.8,75.5c0.7,0.2,1.2-0.1,1.5-1c0.3-0.9,0.2-2-0.2-3.3c0,0,0,0,0-0.1c-0.2-0.8-0.3-1.3-0.3-1.7c0-0.5,0.2-1.4,0.5-2.4
	c0.2-0.8,0.8-2.5,1.7-5.3c0-0.1,0.1-0.2,0.1-0.2c0-0.1,0-0.2,0.1-0.3c0.3-0.9,0.5-1.5,0.6-1.8c0.1-0.4,0.2-0.6,0.1-0.6
	c0-0.1,0-0.1-0.1-0.1c-0.1,0-0.2,0.1-0.3,0.4c-0.1,0.3-0.5,1-1,2.1c-0.1,0.2-0.3,0.6-0.5,1c-1.1,2.4-1.7,3.8-2,4.5
	c-0.4,0.9-0.8,1.4-1,1.7c-0.2,0.2-0.4,0.2-0.7,0.3c0,0-0.1,0-0.1,0c-0.3,0-0.5,0-0.5,0.1c-0.1,0-0.1,0.1,0,0.2c0,0.1,0,0.1,0.1,0.1
	c0,0,0.1,0,0.3,0.1c1.1,0.2,1.5,1.8,1.1,4.6c-0.1,1,0.1,1.6,0.7,1.8C23.7,75.5,23.8,75.5,23.8,75.5z M32.9,75.4c0,0,0.2,0,0.4,0
	c0.1,0,0.1,0,0.1,0c0.7-0.1,1.1-0.3,1.5-0.5c0.3-0.2,0.6-0.6,0.7-1c0-0.2,0.1-0.4,0.1-0.7c0-0.3,0-1.4,0-3.2v0c0-0.3,0-0.7,0-1.2
	c0-1.1,0-1.8,0-2.1c0-0.4,0.1-0.7,0.2-0.8c0.1-0.1,0.3-0.1,0.6-0.1c0.1,0,0.3,0,0.3,0c0.6,0,1,0,1.1,0.1c0.1,0.1,0.2,0.3,0.2,0.6
	c0,0.3,0.2,0.4,0.5,0.5c0.4,0,0.8-0.1,1.3-0.3c0,0,0,0,0.1,0c0.2-0.1,0.3-0.2,0.3-0.3c0-0.1,0-0.5,0-1.1c0-0.1,0-0.2,0-0.2
	c-0.1-1.7-0.1-2.7,0-3.2c0-0.5,0.2-0.8,0.4-0.9c0.3-0.1,0.4-0.3,0.4-0.4c0-0.1-0.3-0.4-0.8-0.8c-0.5-0.5-0.8-0.7-1.1-0.8
	c-0.1,0-0.2,0-0.3,0c-0.1,0-0.2,0.2-0.4,0.5c0,0-0.1,0.1-0.1,0.2c-0.2,0.3-0.4,0.5-0.7,0.6c-0.3,0-1.1,0.1-2.4,0.1
	c-0.3,0-0.6,0-0.8,0c-0.2,0-0.5,0-0.8,0c-1.2,0-2,0-2.3,0c-0.3,0-0.7-0.1-1.1-0.3c-0.1,0-0.2-0.1-0.3-0.1c-0.3-0.1-0.7-0.3-1.1-0.5
	c-0.1,0-0.2,0-0.2,0c0,0,0,0.2,0,0.4c0.1,0.9,0.2,2,0.2,3.3c0,1.3,0,2.5-0.1,3.6c0,0.6,0.4,0.8,1.3,0.6c0.3-0.1,0.6-0.2,0.7-0.3
	c0.1-0.1,0.2-0.3,0.2-0.4c0-0.3,0.1-0.5,0.2-0.6c0.2-0.1,0.5-0.1,1.1-0.1c0.1,0,0.2,0,0.3,0c0.3,0,0.6,0,0.6,0.1
	c0.1,0.1,0.2,0.4,0.2,0.7c0,0.3,0,1,0,2c0,0.4,0,0.7,0,1c0,0.2,0,0.5,0,0.8c0,1.1,0,1.7-0.1,2c0,0.4-0.2,0.6-0.4,0.7
	c-0.2,0.1-0.5,0.1-1.2,0c-0.2,0-0.4,0-0.5,0c-0.7,0-1-0.1-1.1,0c-0.2,0.1,0,0.2,0.4,0.3c0.6,0.1,1.1,0.4,1.4,0.7
	c0.3,0.3,0.5,0.7,0.5,1.2C32.9,75.2,32.9,75.3,32.9,75.4z M26.3,74c0.2,0.2,0.8-0.2,2-1.1c1.2-0.9,2.1-1.8,2.8-2.6
	c0.6-0.7,0.9-1,1.1-1c0.5-0.1,0.4-0.3-0.3-0.6c-0.1-0.1-0.4-0.2-0.9-0.5c-0.1-0.1-0.2-0.1-0.3-0.2c-0.4-0.2-0.6-0.3-0.7-0.4
	c-0.1,0-0.2,0-0.2,0.1c0,0.5-0.3,1.4-1,2.6c-0.7,1.2-1.4,2.2-2.1,3c-0.2,0.2-0.3,0.3-0.4,0.4C26.2,73.8,26.2,73.9,26.3,74z
	 M41.1,73.8c0.4,0.1,0.8,0.1,1.1-0.2c0.3-0.3,0.4-0.7,0.3-1.2c-0.1-0.8-0.6-1.6-1.4-2.3c-0.8-0.7-1.8-1.3-3.1-1.7
	c-0.5-0.2-0.8-0.2-0.8-0.1c0,0.1,0.1,0.3,0.5,0.7c1.3,1.4,2.3,2.8,2.9,4.2C40.7,73.5,40.9,73.7,41.1,73.8z M38.1,64.9
	C37.9,65,36.9,65,34.8,65c-2,0-3.1,0-3.2-0.1c-0.2-0.1-0.3-0.2-0.3-0.4c0-0.2,0-0.8,0-1.7c0-0.9,0-1.4,0-1.6c0-0.2,0.1-0.3,0.3-0.4
	c0.1-0.1,1.2-0.1,3.3-0.1c2.1,0,3.2,0.1,3.3,0.1c0.2,0.2,0.3,0.8,0.3,2C38.4,64.1,38.3,64.8,38.1,64.9z M23.8,62.4
	c0.5,0.2,0.9,0.1,1.1-0.3c0.2-0.3,0.3-0.7,0.2-1.2c-0.1-0.5-0.4-0.9-0.9-1.2c-0.4-0.3-0.8-0.5-1.4-0.6c-0.5-0.1-0.9-0.2-1.2-0.2
	s-0.3,0.2-0.1,0.4c0.8,0.8,1.4,1.6,1.7,2.5c0.1,0.2,0.2,0.4,0.2,0.4C23.5,62.3,23.6,62.3,23.8,62.4z M27.7,57.8c0.1,0,0.2,0,0.4,0
	c0,0,0.1,0,0.1,0c0.7-0.1,1.3-0.2,2-0.2c0.7,0,2.7,0,6,0c0.3,0,0.8,0,1.3,0c2,0,3.2,0,3.8,0c0.7,0,1.2,0,1.4-0.1
	c0.1,0,0.2-0.1,0.2-0.2v0c0-0.2-0.3-0.6-1-1.2c-0.7-0.6-1.1-0.9-1.3-0.8c-0.1,0.1-0.4,0.4-0.8,1c-0.2,0.3-0.4,0.5-0.6,0.6
	c-0.2,0.1-0.7,0.1-1.6,0.1c0,0-0.1,0-0.1,0c-0.6,0-1,0-1.2,0c-0.2,0-0.4-0.1-0.4-0.3c0-0.1-0.1-0.4-0.1-0.8v0c0-0.4,0-0.7,0.1-0.9
	c0-0.2,0.2-0.3,0.3-0.4c0.3-0.2,0.2-0.3,0-0.5c-0.3-0.2-0.9-0.4-1.9-0.6c-0.4-0.1-0.7-0.2-0.7-0.1c0,0-0.1,0.1,0,0.4v0
	c0.2,1.9,0.2,3-0.2,3.1c-0.1,0.1-1,0.1-2.7,0c-1.6,0-2.7-0.1-3.3-0.1c-0.1,0-0.2,0-0.2,0.1s0.1,0.3,0.2,0.6c0,0,0,0,0,0.1
	C27.5,57.7,27.6,57.8,27.7,57.8z M25.5,57.2c0.4,0.2,0.8,0.1,1.2-0.2c0.3-0.3,0.5-0.6,0.4-1c-0.1-0.4-0.4-0.8-0.8-1.2
	c-0.5-0.4-1-0.7-1.6-0.9c-0.8-0.2-1.4-0.3-1.6-0.2c-0.2,0-0.1,0.3,0.2,0.6c0.7,0.7,1.3,1.5,1.8,2.4c0.1,0.3,0.2,0.4,0.3,0.5
	C25.3,57.2,25.4,57.2,25.5,57.2z M58.9,75.3c0.2,0.1,0.5,0.1,0.9,0c0.4-0.1,0.8-0.3,1-0.5c0.1-0.1,0.1-0.2,0.1-0.3
	c0-0.1,0-0.6,0-1.4c0-0.2,0-0.4,0-0.7c0-0.6,0-0.9,0-1.1c0.1-0.2,0.4-0.4,0.9-0.4c0.3,0,1.1,0,2.4,0c0.7,0,1.2,0,1.6,0
	c0.2,0,0.5,0,0.8,0c1.5,0,2.4,0,2.8,0c0.5,0,0.9,0,1-0.1c0.1,0,0.2-0.1,0.2-0.2v0c0-0.2-0.2-0.5-0.8-1.1c-0.5-0.5-0.9-0.8-1.1-0.8
	c-0.1,0-0.4,0.3-0.7,0.8c-0.2,0.4-0.5,0.6-0.7,0.6c-0.1,0-1.2,0-3,0c-1.9,0-2.9,0-3-0.1c-0.2-0.1-0.3-0.2-0.3-0.4
	c0-0.2,0.2-0.4,0.5-0.5c0.6-0.4,1.3-0.9,2.1-1.5c0.3-0.3,0.5-0.4,0.7-0.5c0.1,0,0.3,0,0.5,0.1c0.2,0.1,0.4,0.4,0.7,0.7
	c0.3,0.4,0.5,0.7,0.7,1c0.2,0.3,0.4,0.5,0.7,0.5c0.3,0,0.6-0.1,0.7-0.4c0.2-0.4,0.1-0.9-0.2-1.4c-0.4-0.5-0.9-0.9-1.5-1.1
	c-0.4-0.1-0.6-0.3-0.6-0.4c0-0.2,0.1-0.5,0.3-0.9c0.2-0.3,0.3-0.4,0.4-0.4c0.4-0.1,0-0.4-1.2-0.9c0,0-0.1,0-0.1,0
	c-0.4-0.2-0.6-0.3-0.7-0.2c-0.1,0-0.1,0.1-0.2,0.4c0,0,0,0.1,0,0.1c-0.2,1-0.7,2.1-1.3,3.2c-0.7,1.1-1.1,1.5-1.4,1.2
	c-0.1-0.1-0.1-0.2-0.1-0.4c0-0.2,0-0.8,0-1.6c0-1,0-1.6,0-1.8c0-0.2,0.2-0.4,0.4-0.5c0.8-0.4,1.5-0.9,2.1-1.5
	c0.4-0.3,0.6-0.5,0.8-0.5c0.2,0,0.5,0.2,0.8,0.5c0.4,0.4,0.7,0.8,0.9,1.2c0.2,0.4,0.5,0.6,0.8,0.6c0.3,0,0.6-0.1,0.7-0.4
	c0.2-0.3,0.2-0.7,0-1.1c-0.3-0.6-0.9-1-1.8-1.3c-0.5-0.2-0.7-0.3-0.7-0.5c0-0.1,0.1-0.3,0.3-0.6c0.2-0.3,0.3-0.4,0.4-0.4
	c0.1,0,0.1,0,0.2-0.1c0.1-0.1,0.2-0.1,0.3,0c0.2,0,0.4,0.2,0.9,0.4c0.8,0.4,1.4,0.7,1.7,0.8c0.3,0.1,0.5,0,0.5-0.1
	c0.1-0.3,0.3-0.7,0.5-1c0.3-0.3,0.5-0.5,0.8-0.7c0.3-0.2,0.4-0.3,0.3-0.4c-0.1-0.1-0.4-0.2-0.9-0.4c-1.5-0.4-3-0.9-4.5-1.5
	c-1.4-0.6-2.5-1.2-3.3-1.7c-0.8-0.6-1-0.9-0.6-1.1c0.2-0.1,0.3-0.2,0.3-0.2c0-0.1-0.1-0.1-0.4-0.2c-0.2-0.1-0.6-0.2-1.3-0.4
	c0,0-0.1,0-0.1,0c-0.1,0-0.2-0.1-0.4-0.1c-0.7-0.2-1.1-0.3-1.2-0.3c-0.1,0-0.2,0.1-0.2,0.2l0,0c-0.4,1.2-1.4,2.6-3,4.2
	c-1.6,1.6-3.5,2.9-5.5,3.9c-0.3,0.1-0.4,0.2-0.5,0.3c0,0.1,0,0.1,0,0.2c0.1,0.1,0.6-0.1,1.4-0.4c0.9-0.4,1.7-0.8,2.6-1.2
	c0.8-0.4,1.2-0.6,1.3-0.5c0.2,0.2,0,0.7-0.7,1.7c-0.7,1-1.4,1.7-2.1,2.3c-0.2,0.2-0.3,0.3-0.4,0.3c0,0,0,0.1,0.1,0.2
	c0.1,0.1,0.5,0,1.2-0.4c0.7-0.4,1.3-0.8,1.9-1.2c0.3-0.3,0.5-0.4,0.6-0.5c0.1-0.1,0.2-0.1,0.3-0.1c0.4,0,0.8,0.5,1.3,1.4
	c0.2,0.4,0.5,0.6,0.8,0.6c0.3,0,0.5-0.1,0.7-0.4c0.2-0.3,0.2-0.6,0-1c-0.2-0.4-0.7-0.8-1.4-1.1c-0.4-0.1-0.5-0.3-0.6-0.4
	c0-0.2,0.1-0.4,0.3-0.7c0.1-0.2,0.2-0.2,0.3-0.2c0.2,0,0.3-0.1,0.2-0.2c-0.1-0.1-0.3-0.3-0.6-0.4c-0.4-0.2-0.6-0.4-0.6-0.5
	c0-0.1,0.2-0.4,0.6-0.6c1.7-1.2,2.9-2.2,3.5-2.9c0.2-0.3,0.5-0.4,0.7-0.4c0.1,0,0.2,0,0.2,0.1c0.1,0,0.2,0.2,0.4,0.5
	c0.1,0.1,0.1,0.2,0.2,0.2c0.5,0.7,1.2,1.4,2,2.1c0.4,0.3,0.5,0.5,0.6,0.7c0,0.1,0,0.2-0.3,0.2c-0.1,0-0.2,0-0.2,0.1
	c0,0-0.1,0.2-0.1,0.4c-0.2,1-0.6,2-1.2,2.9c-0.6,0.9-1,1.3-1.2,1c-0.2-0.2-0.2-1-0.2-2.3c0-1.4,0.1-2.1,0.3-2.2
	c0.2-0.1,0.2-0.3-0.1-0.5c-0.3-0.2-1-0.4-2-0.7h0c-0.2-0.1-0.3-0.1-0.4,0c0,0,0,0.3,0,0.6c0.1,1.2,0.2,2.9,0.2,5c0,1.2,0,2.4,0,3.6
	c0,1.5,0,2.4,0,2.7c0,0.3-0.1,0.4-0.3,0.5c-0.1,0.1-1.6,0.1-4.4,0.1c-2.8,0-4.4-0.1-4.7-0.1c-0.1,0-0.2,0-0.2,0.1
	c0,0.1,0.1,0.2,0.2,0.5c0,0,0,0.1,0.1,0.1c0.1,0.2,0.2,0.3,0.3,0.4c0.1,0,0.3,0,0.6,0c0.1,0,0.2,0,0.2,0c1.1-0.1,2.7-0.2,4.9-0.2
	c0.2,0,0.5,0,0.8,0c1,0,1.6,0,1.9,0.1c0.4,0.1,0.6,0.3,0.6,0.7c0,0.3,0,0.9,0,1.9c0,0.3,0,0.6,0,0.8c0,0.4,0,0.7,0,0.8
	C58.7,75.2,58.8,75.3,58.9,75.3z M50.9,69.5c0.1,0.1,0.5-0.1,1.2-0.6c0.7-0.5,1.4-0.9,1.8-1.4c0.3-0.3,0.5-0.4,0.6-0.5
	c0.1-0.1,0.3-0.1,0.4,0c0.2,0.1,0.4,0.3,0.7,0.7c0.3,0.4,0.6,0.8,0.8,1.2c0.1,0.3,0.4,0.4,0.7,0.4c0.3,0,0.6-0.1,0.7-0.4
	c0.3-0.4,0.2-0.8-0.2-1.3c-0.4-0.5-0.9-0.9-1.6-1.1c-0.4-0.1-0.7-0.3-0.7-0.4c0-0.2,0.1-0.5,0.4-0.8c0.1-0.2,0.2-0.3,0.3-0.3
	c0.3,0,0.3-0.1,0.1-0.2c-0.2-0.2-0.6-0.4-1.2-0.7c0,0,0,0-0.1,0c-0.4-0.2-0.6-0.3-0.7-0.3c-0.1,0-0.1,0.2-0.2,0.4c0,0,0,0.1,0,0.1
	c-0.5,1.9-1.4,3.4-2.8,4.5c-0.3,0.2-0.4,0.4-0.5,0.4C50.8,69.4,50.8,69.4,50.9,69.5z M82.2,75.3c0,0.1,0.2,0.1,0.5,0
	c0.3-0.1,0.9-0.3,1.8-0.6c2.8-1.1,5.2-2.5,7.1-4.4c0.4-0.4,0.7-0.6,0.8-0.7c0.2-0.1,0.4-0.1,0.6,0.1c0.1,0.1,0.4,0.5,0.9,1.1
	c0.8,1.1,1.5,2.2,2,3.2c0.3,0.5,0.4,0.8,0.5,0.9c0.1,0.1,0.3,0.2,0.6,0.3c0.6,0.1,0.9-0.1,1.2-0.6c0.2-0.5,0.2-1.1-0.1-1.8
	c-0.5-1.3-1.8-2.6-3.8-3.6c-0.5-0.3-0.8-0.5-0.9-0.6c0-0.2,0-0.5,0.3-0.9c0.7-1.3,1.3-2.8,1.6-4.3c0.3-1.5,0.6-3.6,0.7-6.3
	c0-0.6,0-1,0.1-1.2c0.1-0.2,0.2-0.3,0.3-0.4c0.3-0.2,0.3-0.3,0-0.4c-0.3-0.1-1-0.2-2.1-0.4c-0.4,0-0.7-0.1-0.8,0
	c-0.1,0-0.1,0.1-0.1,0.1c0.1,0.3,0.1,1.4,0.1,3.2C93.4,62,92.6,65.4,91,68c-1.6,2.6-4.3,4.8-8,6.6c-0.5,0.2-0.7,0.4-0.8,0.4
	C82.1,75.1,82.1,75.2,82.2,75.3z M78,73.5c0.1,0.1,0.2,0,0.3-0.1c0.2-0.2,0.4-0.4,0.6-0.5c0.2-0.1,0.8-0.4,1.6-0.9
	c1.8-0.9,3.5-1.8,5.1-2.7c1.6-1,2.5-1.5,2.5-1.6c0-0.1-0.1-0.1-0.3-0.1c-0.2,0-1,0.3-2.3,0.7C84.2,68.7,83.3,69,83,69
	c-0.3,0.1-0.5,0.1-0.6,0c-0.1-0.1-0.2-0.5-0.2-1.1c0-0.7-0.1-2.7-0.1-5.9c0-0.3,0-0.8,0-1.4c0-1.9,0-3.2,0-3.7c0-0.7,0-1.2,0-1.4
	c0-0.1,0.1-0.3,0.2-0.3l0,0c0.2-0.2,0.2-0.3,0.1-0.4c-0.2-0.1-0.6-0.2-1.2-0.2c-0.9-0.1-1.3-0.1-1.3,0c0,0.1,0,2.6,0.1,7.3
	c0,0.3,0,0.6,0,1.1c0,3.3,0.1,5.3,0.1,5.9c0,0.6,0,0.9-0.1,1c-0.1,0.2-1,0.6-2.5,0.9c-0.4,0.1-0.5,0.1-0.5,0.2c0,0,0.2,0.4,0.5,1.2
	C77.7,72.9,77.9,73.4,78,73.5z M88.5,63.2c0.5,0.2,1,0,1.2-0.4c0.3-0.4,0.3-1,0-1.7c-0.5-1.4-1.9-2.6-4.2-3.5
	c-0.5-0.2-0.8-0.3-0.8-0.2c0,0.1,0.1,0.3,0.5,0.7c1.3,1.6,2.1,3,2.6,4.3C88,62.8,88.2,63.1,88.5,63.2z M110.9,75.3
	c0,0.1,0.1,0.1,0.2,0.1s0.3-0.1,0.6-0.2c2.7-0.9,5-2.2,6.9-3.9c0.3-0.3,0.6-0.4,0.7-0.4c0.1,0,0.4,0.3,0.7,0.7
	c1.1,1.4,2.4,2.6,4,3.5c0.2,0.1,0.4,0.2,0.4,0.2c0.1,0,0.1-0.1,0.2-0.3c0.1-0.3,0.3-0.6,0.6-0.9c0.3-0.3,0.6-0.5,0.9-0.6
	c0.2-0.1,0.3-0.2,0.3-0.2c0-0.1-0.2-0.2-0.5-0.3c-1.2-0.4-2.3-1.1-3.6-2c-1.2-0.9-1.8-1.5-1.8-1.9c0-0.1,0.2-0.5,0.6-1.2
	c1.2-2,2-4.4,2.5-7.2c0.1-0.7,0.3-1.1,0.4-1.2s0.5-0.2,1.1-0.2c0.7,0,1-0.1,0.9-0.4c-0.1-0.3-0.5-0.8-1.3-1.4
	c-0.4-0.3-0.7-0.5-0.8-0.5s-0.3,0.2-0.6,0.6c0,0-0.1,0.1-0.1,0.2c-0.3,0.4-0.6,0.7-0.8,0.7c-0.2,0.1-0.8,0.1-1.7,0.1
	c-0.2,0-0.3,0-0.4,0c-0.1,0-0.2,0-0.3,0c-0.8,0-1.3,0-1.5,0c-0.3,0-0.5-0.1-0.5-0.3c0-0.1,0.1-0.4,0.2-0.8c0,0,0-0.1,0-0.1
	c0-0.1,0.1-0.2,0.1-0.4c0.2-0.6,0.3-1,0.4-1.2c0.3-0.8,0.5-1.2,0.7-1.4c0.2-0.1,0.2-0.3-0.1-0.5c-0.3-0.2-0.9-0.4-2-0.6
	c0,0-0.1,0-0.1,0c-0.4-0.1-0.6-0.1-0.7-0.1c-0.1,0-0.1,0.2-0.1,0.5c0,0,0,0.1,0,0.1c-0.1,1.3-0.4,2.8-0.8,4.5
	c-0.4,1.7-1,3.2-1.6,4.4c0,0,0,0.1-0.1,0.2c-0.2,0.4-0.3,0.6-0.3,0.7c0,0.1-0.2,0.4-0.4,0.8c-0.2,0.3-0.2,0.4-0.3,0.5
	c0,0.1,0,0.1,0.1,0.2c0.1,0.1,0.4-0.2,0.9-0.6c0.5-0.5,1-1.1,1.5-1.8c0.3-0.4,0.6-0.7,0.7-0.6c0.1,0,0.3,0.3,0.4,0.8
	c0.4,2,0.9,3.7,1.5,5.3c0.1,0.4,0.2,0.7,0.1,0.9c0,0.2-0.2,0.5-0.6,0.9c-0.7,0.9-1.6,1.8-2.8,2.7c-1.1,0.9-2.3,1.6-3.5,2.2
	c-0.3,0.2-0.5,0.3-0.6,0.3C110.9,75.2,110.9,75.3,110.9,75.3z M107.2,72.4c0.7,0.1,1.7,0.1,3.2,0c1.5-0.1,2.4-0.2,2.8-0.3
	c0.6-0.2,1.1-0.4,1.2-0.8c0.2-0.4,0.1-0.8-0.3-1.1c-0.2-0.2-0.3-0.4-0.4-0.7c0-0.3-0.1-1.1-0.1-2.5v0c0-0.1,0-0.1-0.1-0.2
	c0,0-0.1,0-0.1,0c0,0-0.1,0.4-0.3,1c0,0.1,0,0.2-0.1,0.3c-0.2,0.8-0.4,1.3-0.5,1.5c-0.2,0.3-0.4,0.5-0.7,0.6c-0.2,0-0.8,0.1-1.6,0.1
	c-0.1,0-0.3,0-0.3,0c-0.2,0-0.4,0-0.7,0c-0.6,0-1,0-1.2-0.1c-0.2-0.1-0.4-0.3-0.4-0.7c0-0.3-0.1-0.9,0-1.9c0-0.5,0-0.9,0-1.2
	c0-0.3,0-0.7,0-1.2c0-1,0-1.6,0-1.8c0-0.4,0.2-0.6,0.3-0.7c0.1-0.1,0.4-0.1,0.9-0.1c0.2,0,0.4,0,0.6,0c0.8,0,1.2,0,1.4,0.1
	c0.2,0,0.3,0.2,0.3,0.4v0.1c0,0.1,0,0.2,0,0.3c0,0.6,0.5,0.6,1.6,0.1c0,0,0.1,0,0.1-0.1c0.3-0.1,0.4-0.2,0.4-0.4
	c0-0.1,0.1-0.6,0-1.2c0-0.2,0-0.3,0-0.4c0-1.6-0.1-2.6-0.1-3.1c0-0.6,0.1-1.1,0.2-1.3c0.1-0.2,0.2-0.4,0.5-0.5
	c0.2-0.1,0.2-0.3,0-0.5c-0.2-0.2-0.5-0.6-1.1-1.1c-0.4-0.3-0.6-0.5-0.7-0.5c-0.1,0-0.3,0.2-0.5,0.5c0,0-0.1,0.1-0.1,0.2
	c-0.3,0.3-0.5,0.5-0.7,0.6c-0.2,0-0.8,0.1-1.8,0c-0.2,0-0.4,0-0.6,0c-1.2,0-2.2,0-2.8-0.1c-0.4,0-0.6,0-0.6,0c0,0,0,0.2,0.2,0.6l0,0
	c0.1,0.3,0.2,0.4,0.3,0.4c0.1,0,0.3,0,0.5,0c0.8-0.1,1.8-0.2,2.9-0.2c1.1,0,1.8,0,1.9,0.1c0.2,0.1,0.3,0.2,0.3,0.5c0,0.2,0,1,0,2.2
	c0,0.2,0,0.4,0,0.7c0,0.8,0,1.3,0,1.5c0,0.3-0.2,0.5-0.4,0.5c-0.1,0.1-0.5,0.1-1,0.1c-0.2,0-0.3,0-0.5,0c-0.1,0-0.2,0-0.3,0
	c-0.6,0-1.1,0-1.3-0.1c-0.2,0-0.6-0.2-1.3-0.5c-0.1,0-0.1-0.1-0.1-0.1c0,0-0.1,0-0.2-0.1c-0.5-0.2-0.8-0.3-0.8-0.3
	c-0.1,0-0.1,0.2,0,0.5c0,0.1,0,0.1,0,0.1c0.1,1.2,0.2,3.2,0.2,5.9c0,0.1,0,0.2,0,0.4c0,1.6,0,2.7,0.1,3.1c0,0.6,0.2,1,0.4,1.2
	C106.2,72.2,106.6,72.3,107.2,72.4C107.2,72.4,107.2,72.4,107.2,72.4z M119.6,67c-0.2,0.2-0.4,0.1-0.6-0.2c-0.2-0.3-0.5-0.9-0.9-1.8
	c-0.6-1.5-1-2.7-1.1-3.6c-0.1-0.9,0.1-1.5,0.6-2c0.2-0.2,0.9-0.3,2.1-0.3c1.1,0,1.7,0.1,1.8,0.3c0.2,0.4,0,1.6-0.6,3.7
	C120.4,65.4,120,66.7,119.6,67z M132.8,75.4c0,0,0.5,0,1.2-0.1c3.3-0.4,6-1,8.2-1.9c0.4-0.1,0.6-0.2,0.8-0.2c0.2,0,0.4,0,0.7,0.1
	c2.4,1.1,5.1,1.8,8.2,2c0.3,0,0.5,0,0.6,0c0.1,0,0.1-0.1,0.2-0.2c0-0.2,0.2-0.5,0.4-0.8c0.2-0.3,0.4-0.5,0.6-0.6
	c0.3-0.1,0.4-0.2,0.3-0.3c0-0.1-0.3-0.1-0.7-0.1c-2.1-0.1-4-0.3-5.5-0.5c-1.5-0.2-2.3-0.5-2.4-0.7c0-0.1,0-0.2,0.1-0.3
	c0.1-0.1,0.3-0.3,0.6-0.5c0.5-0.4,1-0.8,1.6-1.4c0.1-0.1,0.2-0.2,0.3-0.3c0.4-0.4,0.6-0.6,0.8-0.6c0.2-0.1,0.7-0.1,1.4-0.1
	c0.2,0,0.4,0,0.6,0c1,0,1.6,0,1.8,0c0.2,0,0.3-0.1,0.4-0.2c0.1-0.2-0.3-0.8-1.4-1.6c-0.4-0.3-0.6-0.5-0.6-0.6
	c-0.1-0.1-0.1-0.5-0.1-1c-0.1-1.3-0.1-2.2,0-2.8c0-0.2,0-0.4,0-0.6c-0.1-0.7,0-1.2,0.3-1.3c0.3-0.1,0.5-0.1,0.7,0
	c0.2,0.1,0.3,0.4,0.4,0.7c0,0.3,0.2,0.4,0.5,0.5c0.3,0.1,0.6,0,0.8-0.2c0.4-0.4,0.4-0.9,0-1.5c-0.3-0.6-0.9-1-1.7-1.4
	c-0.7-0.3-0.9-0.2-0.6,0.2c0.3,0.4,0.2,0.7-0.1,0.9c-0.3,0.2-0.7,0.2-1.2,0c-0.2-0.1-0.2-0.3,0-0.5c0.2-0.3,0.5-0.5,0.9-0.7
	c0.2-0.1,0.4-0.2,0.5-0.5c0.1-0.3,0.3-0.6,0.7-0.9c0.4-0.4,0.6-0.6,0.8-0.6c0.3,0,0.4-0.2,0.2-0.3c-0.2-0.2-0.6-0.4-1.2-0.7
	c0,0,0,0-0.1,0c-0.4-0.2-0.7-0.3-0.7-0.3c-0.1,0-0.2,0.1-0.2,0.3c-0.2,0.6-0.4,1-0.6,1.5c-0.2,0.4-0.4,0.6-0.5,0.6
	c-0.1,0-0.1,0-0.2,0c-0.1-0.1-0.1-0.1-0.1-0.2c0,0-0.1-0.2-0.2-0.4c-0.2-0.3-0.2-0.5-0.1-0.7c0.1-0.2,0.4-0.5,0.9-0.9
	c0.7-0.7,1.2-1,1.3-1.1c0.2-0.1,0.3-0.2,0.1-0.4c-0.2-0.1-0.6-0.4-1.2-0.7c-0.4-0.2-0.7-0.3-0.8-0.3c-0.1,0-0.1,0-0.2,0.2
	c-0.3,1.1-0.6,1.9-0.8,2.2c-0.2,0.4-0.6,0.5-1,0.3c-0.4-0.1-0.7-0.1-0.7-0.1c-0.2,0.2-0.4,0.1-0.7-0.2c-0.2-0.2-0.1-0.4,0.2-0.6
	c0.1-0.1,0.1-0.3,0-0.5c-0.2-0.3-0.5-0.5-0.9-0.8c-0.3-0.2-0.5-0.3-0.6-0.2c-0.1,0-0.3,0.2-0.6,0.6c-0.4,0.5-1.4,0.6-3.1,0.4
	c0,0,0,0-0.1,0c-0.2,0-0.3,0-0.4,0l0.2,0.5c0.1,0.3,0.2,0.5,0.3,0.6c0,0,0.2,0,0.6-0.1c2.7-0.4,3.7-0.2,3,0.6
	c-0.3,0.3-1.1,0.5-2.6,0.4c-1.5,0-2.5-0.2-3.3-0.6c0,0-0.1,0-0.2-0.1c-0.4-0.2-0.7-0.3-0.8-0.3c-0.1,0-0.2,0.1-0.2,0.2l0,0.1
	c-0.4,1.3-0.7,2-1,2c-0.1,0-0.1,0-0.2,0c-0.1-0.1-0.1-0.1-0.1-0.2c0,0,0-0.1-0.1-0.2c-0.2-0.3-0.2-0.5-0.2-0.6
	c0.1-0.2,0.3-0.4,0.7-0.8c0.1-0.1,0.2-0.2,0.3-0.3c0.3-0.3,0.5-0.5,0.6-0.6c0.2-0.2,0.4-0.4,0.6-0.5c0.2-0.1,0.3-0.2,0-0.4
	c-0.2-0.2-0.7-0.4-1.4-0.7c-0.3-0.1-0.4-0.2-0.5-0.2c-0.1,0-0.1,0-0.1,0.1c-0.1,0.4-0.3,1-0.5,1.8c-0.2,0.6-0.4,0.9-0.6,1.1
	c-0.1,0.1-0.4,0.1-0.9,0c-0.4-0.1-0.6-0.1-0.7-0.1c-0.1,0.1,0,0.2,0.2,0.5c0.5,0.6,0.8,1.2,1.1,1.8c0.1,0.3,0.3,0.4,0.7,0.4
	c0.5,0,0.6,0.3,0.2,0.9c-0.2,0.3-0.3,0.4-0.5,0.5c-0.2,0.1-0.5,0.1-1.1,0.1c-0.5,0-0.8,0.1-0.8,0.1c0,0,0.1,0.3,0.3,0.8
	s0.4,0.9,0.4,1c0.1,0.2,0.1,0.7,0,1.6c-0.1,0.9-0.3,1.7-0.6,2.4c-0.2,0.6-0.2,0.9-0.1,0.9c0.1,0,0.4-0.2,0.7-0.6
	c0.4-0.4,0.8-1,1.2-1.8c0.4-0.8,0.7-1.1,0.8-0.8c0.1,0.3,0.1,1.2,0,2.7c0,0.7,0.4,0.8,1.2,0.5c0.3-0.1,0.5-0.2,0.6-0.4
	c0-0.1,0.1-0.6,0-1.2c-0.1-1.5,0-2.4,0-2.7c0-0.2,0-0.4,0-0.6c-0.1-0.4-0.1-0.7,0-0.9s0.2-0.4,0.5-0.4c0.1,0,0.2,0,0.3,0.1
	c0.1,0.1,0.2,0.3,0.2,0.5c0.1,0.3,0.2,0.5,0.4,0.6c0.2,0.1,0.5,0,0.8-0.2c0.4-0.2,0.4-0.6,0.2-1.1c-0.2-0.5-0.5-1-1.1-1.3
	c-0.5-0.3-0.9-0.5-1.1-0.5c-0.2,0-0.2,0.1-0.1,0.5c0.2,0.3,0.2,0.5,0.2,0.7c-0.1,0.1-0.3,0.2-0.7,0.2c-0.5,0-0.7-0.1-0.7-0.4
	c0-0.3,0.3-0.6,0.8-0.8c0.2-0.1,0.4-0.3,0.5-0.5c0.3-0.5,0.6-0.9,1.1-1.2c0.4-0.3,0.8-0.4,1-0.2c0,0,0.8,0.1,2.2,0.1
	c1,0,1.6,0,1.8,0c0.4,0,0.5,0.1,0.6,0.2c0,0.1,0,0.2-0.2,0.5c-0.2,0.3-0.5,0.5-0.9,0.6c-0.3,0-1.1,0-2.4-0.1c-0.3,0-0.4,0-0.4,0
	c0,0,0.1,0.2,0.2,0.6c0,0,0,0.1,0.1,0.1c0.1,0.2,0.2,0.3,0.2,0.3c0,0,0.2,0,0.3-0.1c0,0,0.1,0,0.1,0c0.2-0.1,0.7-0.1,1.5-0.1
	c0.8,0,1.2,0,1.4,0.1c0.1,0.1,0.1,0.2-0.1,0.5c-0.3,0.3-0.6,0.5-0.9,0.6c-0.4,0.1-1,0-2,0c0,0-0.1,0-0.1,0l-0.6,0c0,0,0,0.2,0.2,0.5
	c0.2,0.3,0.3,0.5,0.3,0.6c0,0,0.3,0,0.7-0.1c1.1-0.1,1.9-0.2,2.6-0.2c0.9,0,1.5,0,1.7-0.1c0.2-0.1,0.4,0.1,0.7,0.6
	c0.3,0.5,0.4,1,0.3,1.4c0,0.1,0,0.2,0,0.3c0,0.3,0,0.4,0,0.5c0,0.7-0.2,1.6-0.6,2.6c-0.1,0.2-0.1,0.3-0.1,0.3c0,0,0.1,0.1,0.1,0.1
	c0.1,0.1,0.4-0.1,0.7-0.5c0.3-0.4,0.7-0.9,1.1-1.5c0.5-0.8,0.8-1.1,0.9-0.8c0.1,0.3,0.1,1.2,0,2.7c0,0.3,0,0.5,0.1,0.6
	c0.1,0.1,0.2,0.1,0.5,0.1c0.3,0,0.5,0.1,0.5,0.3c0,0.2-0.1,0.4-0.5,0.6c-0.1,0.1-1.5,0.1-4.1,0.1c-2.7,0-4,0-4.1-0.1
	c-0.2-0.1-0.2-0.3,0-0.6c0.2-0.3,0.4-0.4,0.6-0.5c0.2,0,0.3-0.1,0.3-0.1c0-0.1-0.1-0.2-0.2-0.2c-0.1-0.1-0.2-0.2-0.2-0.3
	s0.1-0.2,0.2-0.4c0.1-0.1,0.2-0.2,0.2-0.2c0-0.2,0.3-0.4,0.9-0.4c0.6,0,1,0,1.1,0.3c0.1,0.1,0.1,0.2,0.1,0.2c0,0,0.1,0,0.2,0
	c0.5,0,0.9-0.1,1.1-0.3c0.2-0.2,0.3-0.5,0.2-0.9c0-0.7,0-1.2,0-1.4c0-0.2,0.2-0.4,0.4-0.6c0.2-0.1,0.2-0.2,0.2-0.3
	c0-0.1-0.1-0.2-0.3-0.4c-0.4-0.4-0.8-0.6-1-0.7c-0.2-0.1-0.5,0-0.7,0.3c-0.3,0.3-0.7,0.5-1.2,0.5c-0.5,0-1-0.1-1.5-0.3
	c-0.8-0.4-1.2-0.5-1.3-0.5c-0.1,0-0.1,0.3,0,0.7c0,0.1,0.1,0.6,0.1,1.6c0,0.9,0.1,1.6,0,1.9c0,0.2-0.1,0.4-0.2,0.5
	c-0.1,0.1-0.3,0-0.4-0.1c-0.1-0.1-0.1-0.3,0-0.7c0.2-0.4,0.2-0.9,0-1.4c-0.3-0.5-0.7-1-1.4-1.5c-0.3-0.2-0.5-0.3-0.6-0.2
	c0,0.1,0,0.4,0.2,0.8c0.2,0.5,0.4,1.1,0.4,1.6c0.1,0.4,0.1,0.6,0.1,0.7c0,0.1,0.1,0.2,0.2,0.2c0.3,0.2,0.3,0.7-0.1,1.5
	c-0.4,0.8-1,1.6-1.8,2.5c-0.9,0.9-1.8,1.7-2.7,2.4c-0.3,0.2-0.5,0.4-0.6,0.4c-0.1,0.1-0.1,0.2,0,0.2c0.1,0.1,0.6-0.1,1.6-0.5
	c0.9-0.4,1.8-0.9,2.5-1.4c0,0,0.1-0.1,0.2-0.1c0.6-0.4,0.9-0.6,1.1-0.6s0.4,0.2,0.7,0.5c0,0,0.1,0.1,0.1,0.1c0.5,0.5,0.9,0.9,1.1,1
	c0.4,0.4,0.6,0.7,0.5,0.8c-0.1,0.2-0.5,0.4-1.2,0.7c-1.8,0.8-4,1.4-6.4,1.9c-0.5,0.1-0.8,0.2-0.9,0.2
	C132.7,75.2,132.7,75.3,132.8,75.4z M143.4,71.3c-0.2,0.1-0.5,0.1-0.9,0c-0.3-0.1-0.8-0.4-1.5-0.8c-0.6-0.4-1-0.7-1.2-1
	s-0.1-0.4,0.1-0.6c0.1-0.1,1-0.1,2.7-0.1c1.7,0,2.6,0,2.7,0.1c0.2,0.1,0,0.5-0.4,1S143.9,71,143.4,71.3z M152.9,65.9
	c0,0,0.1,0,0.1,0c0.4,0,0.6-0.2,0.6-0.7c0-0.4-0.1-0.9-0.4-1.4c-0.3-0.6-0.7-1-1.2-1.3c-0.5-0.4-0.9-0.5-0.9-0.4
	c-0.1,0,0,0.3,0.3,0.9c0.4,0.8,0.6,1.5,0.7,2c0.1,0.3,0.1,0.5,0.1,0.6s0.1,0.1,0.2,0.2c0.1,0,0.2,0.1,0.3,0.1
	C152.7,65.9,152.8,65.9,152.9,65.9z M143.8,64.8c-0.2,0.1-0.5,0.1-0.9,0.1c-0.4-0.1-0.6-0.2-0.7-0.3c-0.2-0.4-0.2-0.8,0-1.2
	c0.2-0.4,0.5-0.6,1-0.6c0.3,0,0.6,0.1,0.8,0.4c0.2,0.3,0.3,0.6,0.3,0.9C144.3,64.4,144.1,64.6,143.8,64.8z M148.9,62.4
	c-0.1,0.1-0.4,0.1-0.9,0c-0.4-0.1-0.7-0.3-0.7-0.4c0-0.2,0.1-0.3,0.5-0.5c0.4-0.2,0.7-0.2,0.9-0.1c0.1,0.1,0.2,0.2,0.3,0.4
	C149,62.1,149,62.3,148.9,62.4z M135.7,62.3c-0.1,0.1-0.4,0.2-0.8,0.1c-0.4-0.1-0.6-0.3-0.6-0.4c0-0.2,0.2-0.4,0.6-0.5
	c0.4-0.1,0.7-0.1,0.8,0.1c0.1,0.1,0.1,0.2,0.1,0.4C135.8,62.1,135.8,62.2,135.7,62.3z M146.3,60.2c-0.1,0-0.2,0-0.3-0.1
	c-0.1-0.1-0.3-0.3-0.6-0.6c-0.3-0.3-0.4-0.4-0.4-0.5c0-0.1,0.2-0.2,0.6-0.2c0.4-0.1,0.6-0.2,0.6-0.3c0-0.1-0.2-0.4-0.6-0.7
	c-0.4-0.4-0.5-0.6-0.5-0.7c0-0.1,0.3-0.2,0.8-0.2c0.4,0,0.6-0.1,0.6-0.1c0.2-0.1,0.4,0,0.6,0.2c0.3,0.3,0.4,0.6,0.6,1.1
	c0.1,0.3,0.3,0.4,0.7,0.4s0.5,0.2,0.2,0.7c-0.2,0.3-0.4,0.6-0.6,0.7c-0.2,0.1-0.5,0.2-1,0.2c-0.1,0-0.2,0-0.4,0
	C146.5,60.2,146.3,60.2,146.3,60.2z M164.7,75.4c0.3,0.2,0.7,0.1,1.3-0.1c0.6-0.2,0.8-0.5,0.8-0.8c0,0,0-0.1,0-0.2
	c0-0.2,0-0.4,0.1-0.5c0.1-0.1,0.4-0.2,1-0.2c0.4,0,1.2,0,2.6,0c0.3,0,0.5,0,0.7,0c0.2,0,0.5,0,0.9,0c1.3,0,2.1,0,2.5,0
	c0.5,0,0.8,0.1,0.9,0.2c0.1,0.1,0.1,0.3,0.1,0.5c0,0.1,0,0.1,0,0.2c0,0.4,0,0.6,0.2,0.7c0.2,0.1,0.5,0.1,1-0.1
	c0.6-0.2,0.9-0.4,1-0.6c0.1-0.2,0.2-0.7,0.1-1.5c-0.2-4.8-0.1-7.2,0.4-7.2c0,0,0.1,0,0.3-0.1c0.1-0.1,0.2-0.2,0.2-0.2
	c0-0.1-0.2-0.3-0.7-0.7c-0.5-0.4-0.9-0.7-1.2-0.9c-0.1-0.1-0.3-0.1-0.4,0c-0.1,0-0.3,0.2-0.6,0.5c0,0-0.1,0.1-0.1,0.2
	c-0.2,0.2-0.5,0.4-0.7,0.4c-0.3,0-1.2,0-2.8,0c-0.5,0-0.9,0-1.2,0s-0.7,0-1.2,0c-1.5,0-2.4,0-2.7,0c-0.3,0-0.7-0.2-1.2-0.4
	c-0.2-0.1-0.3-0.1-0.5-0.2c0,0-0.1,0-0.2-0.1c-0.5-0.2-0.7-0.3-0.8-0.3c-0.1,0-0.1,0.2,0,0.5c0,0.1,0,0.1,0,0.1
	c0.1,1.1,0.2,2.6,0.2,4.5c0,1.9,0,3.6-0.1,5.1c0,0.4,0,0.7,0,0.8C164.5,75.2,164.6,75.3,164.7,75.4z M175.3,73
	c-0.1,0.1-1.5,0.1-4,0.1c-2.6,0-3.9,0-4-0.1c-0.2-0.1-0.3-0.2-0.3-0.4c0-0.2,0-0.6,0-1.2c0-0.1,0-0.3,0-0.5c0-0.4,0-0.7,0.1-0.9
	c0.1-0.2,0.4-0.3,0.8-0.3c0.3,0,1.1,0,2.3,0c0.5,0,0.9,0,1.2,0s0.7,0,1.2,0c1.2,0,1.9,0,2.3,0c0.4,0,0.7,0.2,0.8,0.3
	c0.1,0.1,0.1,0.4,0.1,0.9c0,0.2,0,0.4,0,0.5c0,0.7,0,1.1,0,1.3C175.5,72.8,175.4,72.9,175.3,73z M171.2,69c-2.6,0-4,0-4.1-0.1
	c-0.1-0.1-0.2-0.2-0.2-0.4c0-0.2,0-0.6,0-1.2c0-0.1,0-0.2,0-0.4c0-0.4,0-0.7,0.1-0.8c0.1-0.1,0.4-0.2,0.8-0.3c0.3,0,1.1,0,2.3,0
	c0.5,0,0.9,0,1.2,0s0.7,0,1.2,0c1.2,0,1.9,0,2.3,0c0.4,0,0.7,0.1,0.8,0.3c0.1,0.1,0.1,0.4,0.1,0.8c0,0.2,0,0.3,0,0.4
	c0,0.6,0,1,0,1.2c0,0.2-0.1,0.3-0.2,0.4C175.2,69,173.8,69,171.2,69z M161.2,62.8c0.1,0,0.1,0.1,0.2,0c0,0,0.1,0,0.2,0
	c0.7-0.1,1.2-0.2,1.5-0.2c0.3,0,3.4-0.1,9.4-0.1c0.4,0,0.9,0,1.6,0c2.8,0,4.6,0,5.3,0c1,0,1.7,0,2-0.1c0.2,0,0.3-0.1,0.3-0.2
	c0,0,0-0.1,0-0.1c0-0.1-0.1-0.3-0.5-0.6c-0.3-0.3-0.7-0.7-1.2-1l0,0c-0.4-0.3-0.6-0.4-0.7-0.4c-0.1,0-0.3,0.2-0.6,0.7
	c0,0-0.1,0.1-0.1,0.1c0,0-0.1,0.1-0.1,0.2c-0.3,0.4-0.5,0.6-0.7,0.6c-0.2,0.1-0.6,0.1-1.4,0.1c-0.2,0-0.3,0-0.4,0
	c-0.9,0-1.4,0-1.6,0c-0.3,0-0.4-0.2-0.3-0.3c0-0.1,0.3-0.4,0.7-0.8c0.2-0.2,0.6-0.6,1.2-1.3c0,0,0.1-0.1,0.1-0.1
	c0.4-0.5,0.6-0.7,0.7-0.8c0.1-0.1,0.2-0.2,0.3-0.2c0.2-0.1,0.3-0.1,0.3-0.2s-0.2-0.2-0.5-0.3c-0.6-0.3-0.8-0.5-0.6-0.6
	c0.2-0.1,1-0.1,2.4-0.1c1.1,0,1.8,0,2,0c0.2,0,0.3-0.1,0.4-0.2c0.1-0.2-0.3-0.7-1.3-1.4l0,0c-0.5-0.4-0.8-0.6-1-0.6
	c-0.1,0-0.4,0.3-0.7,0.7l0,0c0,0-0.1,0.1-0.1,0.2c-0.2,0.4-0.5,0.6-0.7,0.6c-0.2,0-0.8,0.1-1.8,0.1c-0.2,0-0.4,0-0.5,0
	c-1.1,0-1.7,0-1.9,0c-0.2,0-0.3-0.1-0.4-0.1c-0.2-0.2-0.2-0.5-0.2-0.9c0-0.4,0.2-0.7,0.4-0.9c0.2-0.2,0.2-0.3-0.1-0.4
	c-0.2-0.1-0.8-0.3-1.7-0.5c0,0-0.1,0-0.2,0c-0.4-0.1-0.7-0.2-0.7-0.1c-0.1,0-0.1,0.2-0.1,0.5c0,0.1,0,0.1,0,0.1c0,0.1,0,0.3,0,0.5
	c0,0.7,0,1.1,0,1.3c-0.1,0.3-0.3,0.4-0.6,0.5c-0.3,0-0.9,0-1.9,0c-0.3,0-0.5,0-0.7,0c-2.2,0-3.8,0-4.7-0.1c-0.2,0-0.3,0-0.4,0
	c0,0,0.1,0.2,0.2,0.5c0,0,0,0,0,0.1c0.1,0.2,0.2,0.4,0.3,0.4c0.1,0,0.3,0,0.5,0c0.1,0,0.1,0,0.2,0c2-0.3,2.9-0.3,2.9,0
	c0,0.1,0.1,0.3,0.2,0.6c0.4,0.8,0.7,1.6,0.9,2.4s0.3,1.4,0.1,1.5c-0.1,0.1-0.9,0.1-2.4,0.1c-1.5,0-2.7,0-3.6-0.1c-0.2,0-0.4,0-0.4,0
	c0,0,0.1,0.2,0.2,0.5C161,62.5,161.2,62.7,161.2,62.8z M172.6,61.8c-0.2,0.1-0.8,0.1-1.9,0.1c-1.1,0-1.6-0.1-1.7-0.1
	c-0.1-0.1-0.1-0.1-0.1-0.2c0-0.1,0-0.2,0.1-0.4c0.2-0.5,0.2-1.1-0.1-1.7c-0.3-0.6-0.7-1.1-1.4-1.6l0,0c-0.5-0.3-0.8-0.6-0.8-0.6
	c0-0.1,0.2-0.2,0.7-0.2c0.4,0,1.4,0,2.9,0c0.2,0,0.4,0,0.7,0c1.2,0,2,0,2.3,0c0.4,0,0.7,0.1,0.8,0.2c0,0.1,0,0.3,0,0.6
	c0,0.1,0,0.1,0,0.1c-0.3,1-0.5,1.8-0.8,2.6C173,61.3,172.8,61.7,172.6,61.8z M194.8,74.9c0.9,0.1,3.1,0.1,6.4,0s5.3-0.1,5.9-0.2
	c0.7-0.1,1.3-0.3,1.8-0.6c0.4-0.3,0.7-0.6,0.7-0.9s-0.2-0.6-0.7-0.8c-0.4-0.2-0.6-0.4-0.6-0.6s-0.1-0.8-0.1-1.7s0-1.5-0.1-1.6
	c-0.1-0.1-0.2,0.1-0.4,0.7c0,0.1-0.1,0.3-0.1,0.5c-0.3,1.1-0.6,1.8-0.8,2.1c-0.3,0.4-0.9,0.7-1.8,0.8c-0.6,0.1-2,0.1-4.2,0.1
	c-0.4,0-0.7,0-0.9,0c-0.4,0-1,0-1.7,0c-1.9,0-3,0-3.5-0.1c-0.7-0.1-1.1-0.3-1.3-0.6c-0.1-0.3-0.2-0.8-0.1-1.8c0-0.4,0-0.7,0-0.9
	c0-0.1,0-0.2,0-0.4c0-1,0-1.6,0-1.8c0-0.2,0.1-0.3,0.3-0.4l0,0c0.1-0.1,1.9-0.1,5.2-0.1c3.4,0,5.2,0,5.3,0.1
	c0.1,0.1,0.2,0.1,0.3,0.2c0,0.1,0.1,0.2,0.1,0.5c0,0.4,0.1,0.6,0.2,0.7c0.1,0.1,0.4,0.1,0.8,0c0.5-0.1,0.8-0.2,1-0.3
	c0.2-0.1,0.3-0.3,0.3-0.6c0-0.2,0-0.6,0-1.3c-0.1-2-0.1-3.3,0-3.8c0-0.5,0.2-0.9,0.4-1c0.4-0.2,0.5-0.4,0.5-0.5
	c0-0.2-0.3-0.4-0.8-0.9c-0.6-0.5-1-0.8-1.2-0.8c-0.2,0-0.4,0.1-0.7,0.4c0,0-0.1,0.1-0.1,0.2c-0.3,0.3-0.5,0.5-0.7,0.5
	c-0.2,0-0.7,0.1-1.6,0.1c-0.2,0-0.3,0-0.4,0c-1,0-1.7,0-2,0c-0.4,0-0.5-0.2-0.5-0.3c0-0.1,0.3-0.4,0.7-0.7c0.6-0.5,1.1-1,1.3-1.2
	c0.6-0.6,1.1-0.9,1.4-1c0.3-0.1,0.4-0.2,0.4-0.3c0-0.1-0.3-0.4-0.7-0.8c-0.6-0.6-1-0.9-1.2-1c-0.2-0.1-0.5,0.1-0.8,0.5
	c0,0-0.1,0.1-0.1,0.1c-0.3,0.3-0.5,0.5-0.7,0.5c-0.2,0-0.7,0.1-1.5,0.1c-0.2,0-0.3,0-0.4,0c-1,0-1.6,0-1.8,0c-0.2,0-0.3-0.1-0.3-0.3
	c0-0.2,0.1-0.5,0.3-0.9s0.5-0.6,0.7-0.7c0.6-0.1-0.2-0.5-2.1-1.1c-0.4-0.1-0.6-0.2-0.7-0.1c-0.1,0-0.1,0.1-0.2,0.3
	c-0.3,1.4-1,3-2,4.8c-1,1.8-2.2,3.3-3.5,4.7c-0.3,0.3-0.5,0.5-0.5,0.6c0,0.1,0,0.1,0.2,0.1s0.8-0.4,1.9-1.2c0.3-0.2,0.5-0.3,0.6-0.4
	c0.1,0,0.2,0,0.3,0.1c0,0,0.1,0.3,0.1,0.8c0,0.4,0,1.9,0,4.3c0,0.1,0,0.1,0,0.1c0,2.7,0,4.2,0,4.7c0,0.5,0.1,0.9,0.2,1.2l0,0
	C191.9,74.2,193,74.8,194.8,74.9z M202.4,66.1c-1.2,0-1.9,0-2.1-0.1c-0.2-0.1-0.3-0.2-0.3-0.5c0-0.3,0-0.9,0-2.1c0-0.2,0-0.4,0-0.7
	c0-0.7,0-1.1,0-1.3c0-0.3,0.2-0.4,0.4-0.5c0.2,0,0.6-0.1,1.2-0.1c0.3,0,0.5,0,0.6,0s0.4,0,0.7,0c0.6,0,1,0,1.2,0
	c0.2,0.1,0.4,0.2,0.5,0.5c0,0.2,0.1,0.6,0,1.3c0,0.3,0,0.5,0,0.7c0,1.1,0,1.8,0,2c0,0.2-0.1,0.4-0.2,0.5
	C204.3,66,203.7,66.1,202.4,66.1z M195.7,66.1c-1.2,0-1.9,0-2-0.1c-0.2-0.2-0.3-1-0.3-2.5c0-1.5,0.1-2.3,0.3-2.5
	c0.1-0.1,0.8-0.1,2-0.1c1.2,0,1.9,0,2,0.1c0.2,0.2,0.3,1,0.3,2.4c0,1.5-0.1,2.3-0.3,2.4C197.6,66,197,66.1,195.7,66.1z M196.1,60.2
	c-1.5,0-2.3,0-2.4-0.1c-0.4-0.1-0.5-0.3-0.5-0.4c0-0.2,0.3-0.6,0.7-1.1c0.2-0.2,0.5-0.6,0.9-1.1c0,0,0.1-0.1,0.1-0.2
	c0.2-0.3,0.4-0.5,0.6-0.6c0.2,0,0.7-0.1,1.6-0.1c0.2,0,0.4,0,0.5,0c1,0,1.6,0,1.9,0c0.4,0,0.6,0.2,0.6,0.3c0,0.1,0,0.4-0.2,0.8
	c-0.6,1.4-1.1,2.1-1.4,2.3C198.3,60.2,197.5,60.2,196.1,60.2z M225.8,75.4c0.2,0.1,0.6,0.1,1,0c0.5-0.1,0.9-0.3,1.2-0.6l0,0
	c0.1-0.1,0.1-0.2,0.1-0.3c0-0.2,0-0.7,0-1.6c0-0.5,0-0.8,0-1.1c0-1,0-2.1,0-3.3c0-1.2,0-1.8,0.1-1.9c0.1-0.1,0.2-0.2,0.5-0.2
	c0.2,0,1,0,2.4,0c0.1,0,0.3,0,0.5,0c0.9,0,1.5,0,1.7,0c0.3,0,0.5,0.1,0.6,0.2c0,0.1,0.1,0.3,0,0.6c0,0.1,0,0.1,0,0.2
	c0,0.5,0,0.7,0.1,0.8c0.1,0.1,0.4,0.1,0.9,0c0.7-0.1,1.1-0.3,1.2-0.5c0.1-0.2,0.2-0.7,0.1-1.6c-0.1-2.6-0.1-4.4-0.1-5.2
	c0-0.8,0.2-1.3,0.4-1.4c0,0,0,0,0.1,0c0.3-0.2,0.4-0.3,0.4-0.4c0-0.1-0.3-0.5-1-1c-0.7-0.5-1.1-0.8-1.3-0.8c-0.1,0-0.3,0.2-0.7,0.7
	c0,0,0,0.1-0.1,0.1c-0.2,0.2-0.4,0.4-0.6,0.4c-0.2,0-0.8,0-1.9,0c-0.2,0-0.4,0-0.6,0c-0.2,0-0.5,0-0.8,0c-0.8,0-1.3,0-1.5,0
	c-0.3,0-0.5-0.2-0.6-0.4c0-0.1-0.1-0.5,0-1c0-0.2,0-0.4,0-0.5c0-0.8,0-1.4,0-1.5c0-0.2,0.1-0.3,0.3-0.5c0.2-0.2,0.2-0.4-0.1-0.5
	c-0.2-0.1-0.9-0.4-2-0.6c-0.4-0.1-0.7-0.2-0.8-0.1c-0.1,0-0.1,0.1-0.1,0.3c0.1,0.7,0.2,1.6,0.2,2.7c0,1.1,0,1.7,0,1.9l0,0
	c-0.1,0.1-0.2,0.2-0.5,0.3c-0.2,0-1,0-2.4,0c-0.2,0-0.4,0-0.7,0c-1,0-1.6,0-1.8,0c-0.3,0-0.7-0.2-1.2-0.4c-0.2-0.1-0.3-0.1-0.4-0.2
	c-0.1,0-0.1-0.1-0.2-0.1c-0.5-0.2-0.8-0.3-0.8-0.3c-0.1,0-0.1,0.2,0,0.5c0,0.1,0,0.1,0,0.1c0.1,1.1,0.2,2.6,0.2,4.5
	c0,1.8,0,3.5-0.1,4.9c0,0.5,0,0.9,0.1,1c0.1,0.1,0.4,0.1,0.9,0c0.5-0.1,0.9-0.3,1.1-0.4c0.2-0.2,0.3-0.5,0.3-0.8c0,0,0-0.1,0-0.2
	c0-0.3,0-0.5,0.1-0.6c0.1-0.1,0.3-0.2,0.6-0.2c0.2,0,0.8,0,1.7,0c0.2,0,0.4,0,0.6,0c1.3,0,2.1,0,2.4,0c0.2,0,0.4,0.1,0.5,0.3
	c0.1,0.1,0.1,1.1,0.1,2.7c0,1.7-0.1,3.2-0.1,4.5c0,0.7-0.1,1.2,0,1.3C225.5,75.2,225.6,75.3,225.8,75.4z M222.8,65.5
	c-1.6,0-2.5,0-2.6-0.1c-0.1-0.1-0.2-0.2-0.3-0.5c0-0.3,0-1.2,0-2.6c0-0.3,0-0.6,0-1c0-0.8,0-1.3,0-1.6c0.1-0.3,0.2-0.5,0.5-0.6
	c0.2,0,0.7-0.1,1.4,0c0.4,0,0.7,0,0.9,0s0.6,0,0.9,0c0.7,0,1.2,0,1.4,0c0.3,0.1,0.4,0.3,0.5,0.6c0,0.2,0.1,0.7,0,1.6
	c0,0.4,0,0.8,0,1c0,1.5,0,2.3,0,2.6c0,0.3-0.1,0.4-0.3,0.5C225.2,65.5,224.4,65.5,222.8,65.5z M233.5,65.4c-0.1,0.1-1,0.1-2.6,0.1
	c-1.6,0-2.4,0-2.6-0.1c-0.2-0.1-0.3-0.2-0.3-0.5c0-0.3,0-1.1,0-2.6c0-0.3,0-0.6,0-1c0-0.8,0-1.3,0-1.6c0.1-0.3,0.2-0.5,0.5-0.6
	c0.2,0,0.7-0.1,1.4,0c0.4,0,0.7,0,0.9,0s0.6,0,0.9,0c0.8,0,1.2,0,1.4,0c0.3,0.1,0.4,0.3,0.5,0.6c0,0.2,0.1,0.7,0,1.6
	c0,0.4,0,0.8,0,1c0,1.5,0,2.4,0,2.6C233.8,65.2,233.7,65.3,233.5,65.4z M259.7,75.4c0.1,0.1,0.3,0.1,0.8,0s0.8-0.2,1.2-0.4
	c0.6-0.3,1.1-0.8,1.5-1.6c0.4-0.8,0.6-2.1,0.8-3.8c0.2-1.6,0.3-3.9,0.4-7c0-0.2,0-0.4,0-0.8c0-1.6,0.1-2.5,0.1-2.7
	c0-0.3,0.2-0.5,0.4-0.6c0,0,0.1,0,0.1,0c0.2-0.1,0.3-0.2,0.4-0.2c0-0.1,0-0.1,0-0.2c-0.1-0.2-0.4-0.5-0.8-0.9
	c-0.5-0.4-0.8-0.7-1-0.8c-0.1-0.1-0.2-0.1-0.3,0c-0.1,0-0.2,0.2-0.5,0.5c0,0-0.1,0.1-0.1,0.1c-0.3,0.3-0.5,0.5-0.7,0.6
	c-0.2,0-0.7,0.1-1.4,0.1c-0.2,0-0.3,0-0.4,0c-0.1,0-0.2,0-0.3,0c-0.7,0-1.2,0-1.3,0c-0.3,0-0.4-0.2-0.4-0.3c0-0.1,0.1-0.4,0.3-0.9
	c0-0.1,0.1-0.1,0.1-0.2c0.3-0.7,0.5-1.1,0.6-1.3c0.1-0.2,0.2-0.3,0.4-0.4c0.3-0.1,0.2-0.3-0.1-0.5c-0.4-0.2-1.1-0.5-2.2-0.8l0,0
	c-0.2-0.1-0.4-0.1-0.4,0c0,0-0.1,0.2-0.1,0.6c0,0,0,0.1,0,0.1c-0.3,2.3-1,4.8-2.2,7.6c-0.4,1-0.7,1.4-0.9,1.4
	c-0.1-0.1-0.2-0.7-0.2-2c0-1,0-1.6,0.1-1.8c0-0.2,0.2-0.4,0.5-0.6c0.2-0.1,0.3-0.3,0.2-0.5c-0.1-0.2-0.5-0.5-1.1-1
	c-0.4-0.4-0.7-0.5-0.9-0.5c-0.1,0-0.3,0.2-0.6,0.6c-0.3,0.4-0.8,0.6-1.5,0.7c-0.7,0.1-1-0.1-1-0.4c0-0.2,0.3-0.7,0.8-1.6
	c0.6-0.8,0.9-1.3,1.1-1.4c0.4-0.1,0.4-0.3,0.1-0.4c-0.3-0.2-0.9-0.4-2-0.6c0,0-0.1,0-0.2,0c-0.4-0.1-0.6-0.1-0.7-0.1
	c-0.1,0-0.1,0.2-0.1,0.6c0,0.1,0,0.2,0,0.2c0,0.5,0,1-0.1,1.5c-0.1,0.8-0.2,1.4-0.2,1.6c-0.1,0.3-0.3,0.4-0.5,0.4
	c-0.2,0-0.6-0.2-1.2-0.5c-0.6-0.3-0.9-0.4-1-0.4c0,0-0.1,0-0.1,0.1c0,0.1,0,0.3,0.1,0.8c0.1,1.1,0.2,3.5,0.2,7.1
	c0,3.8-0.1,6.6-0.2,8.4c-0.1,0.8,0,1.3,0.1,1.5s0.5,0.2,1.1,0c0.4-0.1,0.7-0.3,0.8-0.5c0.1-0.2,0.2-0.5,0.2-1v0c0-0.4,0-0.6,0-0.7
	c0.1-0.1,0.2-0.2,0.5-0.3c0.2,0,0.6,0,1.3,0c0,0,0.1,0,0.1,0s0.1,0,0.1,0c0.7,0,1.1,0,1.3,0c0.3,0,0.4,0.1,0.5,0.2
	c0,0.1,0.1,0.3,0.1,0.6V73c0,0.5,0.1,0.8,0.4,0.8c0.3,0.1,0.7,0,1.4-0.4c0,0,0.1,0,0.2-0.1c0.2-0.1,0.3-0.2,0.3-0.4
	c0-0.2,0-0.8,0-1.8c0-0.5,0-0.8,0-1.1c0-1.1,0-2.4,0-4.1c0-1.7,0-2.6,0.1-2.7c0-0.1,0.1-0.3,0.2-0.3c0.1-0.1,0.1-0.1,0,0
	c0,0.1,0,0.1,0.1,0.2c0.1,0,0.1,0,0.2,0c0.2-0.1,0.6-0.6,1.3-1.5c0.7-0.9,1.3-1.8,1.8-2.6c0,0,0,0,0-0.1c0.2-0.4,0.5-0.6,0.7-0.7
	c0.2-0.1,0.9-0.1,2-0.1c0.1,0,0.1,0,0.2,0c0.2,0,0.4,0,0.6,0c0.7,0,1.1,0,1.2,0c0.2,0,0.4,0.2,0.5,0.4c0,0.1,0.1,0.5,0,1
	c0,0.2,0,0.4,0,0.5c0,2.3-0.1,4.5-0.2,6.6c-0.1,2.1-0.3,3.5-0.5,4.4c-0.1,0.5-0.3,0.9-0.5,1.1c-0.2,0.2-0.6,0.4-1,0.4
	c-0.4,0-1.1,0-2.1-0.1c-0.5,0-0.8-0.1-0.9,0c-0.1,0-0.1,0.1-0.1,0.2c0,0.1,0.2,0.2,0.6,0.3c1.5,0.4,2.2,1,2.2,2.1
	C259.7,75.2,259.7,75.3,259.7,75.4z M248.5,71.3c-0.6,0-0.9,0-1.1-0.1c-0.2-0.1-0.3-0.3-0.4-0.6c0-0.2-0.1-0.8,0-1.7
	c0-0.4,0-0.7,0-0.9c0-0.2,0-0.5,0-0.8c0-0.8,0-1.4,0-1.6c0.1-0.3,0.2-0.5,0.4-0.6c0.1-0.1,0.5-0.1,1.1-0.1c0.2,0,0.4,0,0.6,0
	s0.3,0,0.6,0c0.6,0,0.9,0,1.1,0.1c0.2,0.1,0.3,0.3,0.4,0.6c0,0.2,0,0.8,0,1.6c0,0.4,0,0.6,0,0.8c0,1.5,0,2.3,0,2.6
	c0,0.3-0.1,0.4-0.2,0.5c-0.1,0.1-0.2,0.1-0.4,0.1c-0.1,0-0.6,0-1.4,0C249,71.3,248.8,71.3,248.5,71.3z M258.2,68
	c0.4,0.1,0.7,0.1,1-0.1c0.3-0.2,0.5-0.6,0.5-1c0-0.7-0.2-1.4-0.8-2c-0.5-0.7-1.3-1.3-2.4-1.8c-0.6-0.3-0.9-0.4-1-0.4
	c-0.1,0,0,0.3,0.3,0.7c1,1.5,1.6,2.9,1.8,4.1C257.7,67.7,257.9,67.8,258.2,68z M248.6,64.3c-0.6,0-0.9,0-1.1-0.1
	c-0.2-0.1-0.3-0.3-0.4-0.6c0-0.2-0.1-0.7,0-1.6c0-0.4,0-0.7,0-0.9c0-0.2,0-0.4,0-0.8c0-0.8,0-1.3,0-1.5c0.1-0.3,0.2-0.5,0.4-0.6
	c0.1,0,0.5-0.1,1-0.1c0.2,0,0.4,0,0.6,0s0.3,0,0.6,0c0.6,0,0.9,0,1.1,0.1c0.2,0.1,0.3,0.2,0.4,0.6c0,0.2,0.1,0.7,0.1,1.5
	c0,0.3,0,0.6,0,0.7c0,1.4,0,2.2,0,2.5c0,0.3-0.1,0.4-0.2,0.5c-0.1,0.1-0.2,0.1-0.4,0.1c-0.1,0-0.6,0-1.4,0
	C249,64.3,248.8,64.3,248.6,64.3z M271.7,75.4c0.2,0.2,0.6-0.2,1.2-1.1c0.6-0.9,1.1-1.9,1.5-2.9c0.2-0.7,0.4-1,0.6-1.1
	c0.1,0,0.3,0.2,0.6,0.7c0.6,1.2,1.3,2.1,2.2,2.6c0.9,0.6,2,0.9,3.5,1.1c0.4,0,2.3,0.1,5.7,0.1c3.5,0,5.2,0,5.3,0
	c0,0,0.1-0.1,0.1-0.3c0.1-0.7,0.4-1.2,0.9-1.4c0.3-0.1,0.4-0.3,0.3-0.3c-0.1,0-2,0-5.8,0c-0.5,0-1.2,0-2.1,0c-2.4,0-3.9,0-4.6,0
	c-0.9-0.1-1.5-0.2-1.7-0.6c-0.2-0.2-0.2-0.7-0.2-1.5c0-0.3,0-0.5,0-0.7c0-0.2,0-0.4,0-0.7c0-0.8,0-1.2,0-1.4c0-0.3,0.2-0.4,0.4-0.5
	c0.2,0,0.5-0.1,1.1,0c0.2,0,0.4,0,0.5,0c1.3,0,2-0.1,2.1-0.3c0.1-0.2-0.2-0.6-1-1.4l0,0c-0.5-0.4-0.8-0.6-0.9-0.6
	c-0.1,0-0.3,0.2-0.6,0.6c-0.4,0.5-0.6,0.9-0.8,1c-0.2,0.1-0.4,0.1-0.6-0.1c-0.2-0.2-0.3-0.7-0.2-1.5s0.2-1.3,0.4-1.5
	c0.1-0.1,0.2-0.2,0.1-0.3s-0.3-0.2-0.6-0.4c-0.7-0.3-0.9-0.5-0.7-0.6c0.2-0.1,1.1-0.1,2.6-0.1c1.1,0,1.8,0,2,0
	c0.2,0,0.3-0.1,0.4-0.1c0.2-0.1,0.3-0.2,0.3-0.1c0,0.1,0.1,0.4,0.1,1c0,0.4,0,1.4,0,2.9c0,0.2,0,0.4,0,0.8c0,1.6,0,2.7,0.1,3.1
	c0.1,0.6,0.4,1,0.9,1.2c0.3,0.1,1.1,0.1,2.4,0.1c0.2,0,0.4,0,0.6,0c1.7,0,2.9,0,3.6-0.1c0.7-0.1,1.2-0.3,1.5-0.5
	c0.2-0.2,0.3-0.4,0.3-0.6c0-0.3-0.1-0.5-0.3-0.7c-0.2-0.2-0.3-0.3-0.4-0.5c0-0.2-0.1-0.6-0.1-1.4c0-0.9-0.1-1.4-0.1-1.4
	c-0.1,0-0.2,0.3-0.4,1.1c0,0.1,0,0.2-0.1,0.3c-0.2,0.8-0.3,1.2-0.5,1.4c-0.2,0.3-0.4,0.4-0.8,0.5c-0.3,0-0.9,0.1-1.9,0
	c-0.1,0-0.2,0-0.3,0c-0.2,0-0.4,0-0.7,0c-0.7,0-1.1,0-1.2-0.1c-0.2-0.1-0.4-0.3-0.5-0.6c0-0.2-0.1-0.8-0.1-1.7c0-0.4,0-0.7,0-0.9
	c0-0.2,0-0.6,0-0.9c0-0.9,0-1.5,0-1.8c0-0.3,0.2-0.5,0.4-0.6c0.1-0.1,0.5-0.1,1-0.1c0.2,0,0.4,0,0.6,0c0.8,0,1.2,0,1.4,0
	c0.3,0,0.4,0.1,0.5,0.2c0.1,0.1,0.1,0.3,0,0.6c0,0.4,0,0.6,0.1,0.6c0.1,0.1,0.4,0.1,0.8,0c0.6-0.1,1-0.3,1.2-0.5
	c0.1,0,0.1-0.1,0.1-0.2c0-0.1,0-0.5,0-1.1c-0.1-2.2-0.1-3.6-0.1-4.3c0-0.7,0.2-1.1,0.4-1.2c0.3-0.2,0.4-0.3,0.5-0.4
	c0-0.1,0-0.2-0.1-0.3c-0.1-0.2-0.4-0.4-0.9-0.8c-0.4-0.4-0.8-0.6-1-0.7c-0.1-0.1-0.2-0.1-0.3,0c-0.1,0-0.3,0.2-0.5,0.5
	c0,0,0,0-0.1,0.1c-0.2,0.3-0.4,0.5-0.6,0.5c-0.2,0-0.6,0.1-1.4,0.1c-0.1,0-0.1,0-0.2,0c-0.1,0-0.2,0-0.4,0c-0.7,0-1.1,0-1.3,0
	c-0.2,0-0.6-0.2-1.2-0.4c-0.1,0-0.2-0.1-0.2-0.1c0,0-0.1,0-0.2-0.1c-0.4-0.2-0.7-0.3-0.8-0.3c-0.1,0-0.1,0.2,0,0.5c0,0,0,0.1,0,0.1
	c0.1,1.2,0.2,2.7,0.2,4.3c0,0,0,0.1,0,0.2c0,0.9,0,1.5,0,1.7c0,0.3-0.1,0.4-0.2,0.4c-0.1,0-0.3-0.2-0.6-0.5l0,0
	c-0.6-0.6-1-0.9-1.3-1.1c-0.1-0.1-0.2,0-0.4,0c-0.1,0.1-0.3,0.3-0.6,0.7c-0.2,0.3-0.4,0.5-0.6,0.6c-0.1,0.1-0.3,0.1-0.6,0.1
	c-0.4,0-0.6-0.1-0.6-0.3c-0.1-0.2-0.1-0.7-0.1-1.5c0-0.1,0-0.2,0-0.4c0-0.6,0-0.9,0-1.1c0-0.2,0.2-0.4,0.4-0.4
	c0.2,0,0.6-0.1,1.2-0.1c0.2,0,0.4,0,0.5,0c1.2,0,1.9-0.1,2.1-0.3c0.1-0.2-0.2-0.6-0.9-1.2c-0.5-0.5-0.9-0.7-1.1-0.7
	c-0.1,0-0.4,0.2-0.7,0.7c-0.2,0.4-0.4,0.6-0.6,0.7s-0.4,0.1-0.6,0c-0.2-0.1-0.4-0.5-0.4-1.2c0-0.7,0.1-1.2,0.4-1.4
	c0.2-0.2,0.1-0.3-0.2-0.5c-0.3-0.2-0.9-0.4-1.9-0.6c-0.3-0.1-0.5-0.1-0.5-0.1c0,0,0,0.2,0,0.5c0.1,1.1,0.2,1.9,0.1,2.4
	c0,0.5-0.2,0.8-0.4,0.9c-0.1,0.1-0.6,0.1-1.6,0c-0.9,0-1.5-0.1-1.8-0.1c-0.2,0-0.2,0.1,0.1,0.6c0,0,0,0.1,0.1,0.1
	c0.1,0.2,0.2,0.3,0.2,0.4c0.1,0,0.2,0,0.5,0c0.1,0,0.1,0,0.2,0c0.7-0.1,1.3-0.2,1.8-0.2c0.5,0,0.9,0.1,0.9,0.3
	c0,0.1,0.1,0.6,0.1,1.5c0,0.9,0,1.4-0.1,1.5c-0.2,0.4-1.6,0.5-4.3,0.2c-0.3,0-0.4,0-0.5,0c0,0,0,0.2,0.2,0.5
	c0.1,0.3,0.2,0.5,0.3,0.5c0.1,0,0.3,0,0.5,0c2.4-0.4,3.8-0.4,4,0c0.1,0.3,0.2,1.7,0.3,4.3c0.1,2.6,0,4-0.1,4.2
	c-0.2,0.5-0.6,0.2-1.3-0.9c-0.3-0.5-0.5-0.8-0.6-1.1c0-0.3,0-0.7,0-1.2c0-0.2,0.1-0.6,0.1-1.2c0-0.2,0-0.3,0-0.3
	c0.1-0.6,0.1-1,0.2-1.1c0-0.2,0.2-0.3,0.3-0.4c0.2-0.1,0.2-0.3,0-0.4c-0.2-0.1-0.8-0.2-1.6-0.3c-0.1,0-0.2,0-0.3,0
	c-0.3,0-0.5,0-0.6,0.1c0,0.1-0.1,0.3,0,0.8c0,0.1,0,0.3,0,0.4c0.1,1.9,0,3.7-0.3,5.3c-0.3,1.6-0.7,3.1-1.3,4.2
	C271.7,75.1,271.6,75.3,271.7,75.4z M287.9,61.4c-1,0-1.6,0-1.7,0c-0.2-0.1-0.3-0.2-0.3-0.5c0-0.3,0-1,0-2.4c0-0.2,0-0.4,0-0.6
	c0-0.8,0-1.2,0.1-1.4c0-0.3,0.2-0.4,0.4-0.5c0.1,0,0.5-0.1,1,0c0.2,0,0.4,0,0.5,0s0.3,0,0.5,0c0.5,0,0.9,0,1,0
	c0.2,0.1,0.3,0.3,0.4,0.5c0,0.2,0.1,0.7,0.1,1.4c0,0.3,0,0.5,0,0.6c0,1.2,0,2,0,2.2c0,0.3-0.1,0.5-0.2,0.6
	C289.5,61.3,288.9,61.4,287.9,61.4z M310.3,75.3c0.2,0.1,0.5,0.1,1,0c0.5-0.1,0.8-0.2,1-0.4c0.1-0.1,0.1-0.3,0.1-0.6c0,0,0,0,0-0.1
	c0-0.4,0-0.6,0-0.7c0.1-0.1,0.3-0.2,0.6-0.2c0.3,0,0.8,0,1.8,0c0.1,0,0.1,0,0.2,0c0.1,0,0.2,0,0.4,0c0.9,0,1.4,0,1.7,0
	c0.3,0,0.5,0.1,0.6,0.2c0,0.1,0.1,0.3,0,0.6c0,0,0,0.1,0,0.1c0,0.3,0,0.5,0,0.6c0,0.1,0.1,0.2,0.2,0.2c0.1,0.1,0.4,0.1,0.7,0
	c0.4,0,0.7-0.1,0.9-0.3c0,0,0.1,0,0.1,0c0.2-0.1,0.3-0.2,0.4-0.3c0-0.1,0-0.5,0-1.2c0-0.1,0-0.2,0-0.2c0-0.8-0.1-2.1-0.1-3.9
	c0-1.3,0-2.1,0-2.3c0-0.2,0.2-0.4,0.4-0.5c0.6-0.2,0.2-0.8-1-1.6l0,0c-0.3-0.2-0.5-0.3-0.6-0.3c-0.1,0-0.3,0.2-0.6,0.6
	c0,0-0.1,0.1-0.1,0.1c0,0,0,0-0.1,0.1c-0.2,0.2-0.4,0.4-0.6,0.4c-0.2,0-0.8,0-1.8,0c-0.3,0-0.5,0-0.6,0c-1.2,0-2,0-2.3-0.1
	c-0.3,0-0.7-0.2-1.3-0.4c-0.1,0-0.2-0.1-0.4-0.1c-0.5-0.2-0.7-0.3-0.8-0.2c-0.1,0-0.1,0.2,0,0.5c0,0.1,0,0.2,0,0.2
	c0.1,1,0.2,2.4,0.2,4.4c0,2,0,3.4-0.1,4.3c0,0.4,0,0.7,0,0.8C310.2,75.2,310.2,75.3,310.3,75.3z M299.6,75c0,0.1,0.2,0.1,0.3,0
	c0.2,0,0.5-0.2,1-0.5c1.4-0.8,2.7-1.9,3.8-3.2c0.3-0.4,0.5-0.6,0.6-0.6c0.1-0.1,0.2,0,0.4,0.1c0.2,0.2,0.4,0.5,0.7,1
	c0.3,0.5,0.5,0.9,0.6,1.3c0.1,0.2,0.3,0.4,0.6,0.5c0.3,0.1,0.6,0,0.8-0.1c0.5-0.4,0.6-0.9,0.4-1.7c-0.2-0.8-0.7-1.6-1.5-2.4
	c-0.4-0.4-0.6-0.6-0.6-0.8c0-0.2,0.1-0.5,0.3-1c0,0,0-0.1,0-0.1c0.4-1.2,0.8-2.5,1.1-3.9c0.1-0.8,0.2-1.2,0.3-1.4
	c0.1-0.3,0.1-0.6,0.1-0.9s0-0.6,0.1-0.7c0.1-0.1,0.2-0.3,0.5-0.4c0.2-0.1,0.3-0.2,0.3-0.3c0-0.1-0.2-0.3-0.6-0.7
	c-0.6-0.6-1-0.9-1.2-1s-0.5,0.1-0.8,0.4c-0.4,0.4-0.9,0.7-1.5,0.7c-0.6,0-0.9-0.2-0.8-0.6c0-0.5,0.2-1.3,0.5-2.4
	c0.3-1.1,0.5-1.7,0.7-1.8c0.1-0.1,0.2-0.1,0.3-0.2c0.1-0.1,0-0.2-0.2-0.4c-0.3-0.1-0.8-0.3-1.7-0.5c-0.4-0.1-0.6-0.2-0.7-0.1
	c-0.1,0-0.1,0.2-0.1,0.5v0c0,0.6-0.1,1.5-0.3,2.8c-0.2,1.2-0.4,1.9-0.5,2.2c-0.1,0.2-0.4,0.3-0.8,0.4c-0.4,0-1,0-1.7-0.1
	c-0.2,0-0.4,0-0.4,0c0,0,0.1,0.2,0.2,0.5c0,0,0,0.1,0.1,0.1c0.1,0.2,0.2,0.3,0.2,0.3c0.1,0,0.2,0,0.4-0.1c0.1,0,0.1,0,0.1,0
	c0.8-0.2,1.3-0.2,1.5,0.2c0,0.1-0.2,1.1-0.6,3c-0.4,1.9-0.9,3.4-1.3,4.7c-0.2,0.5-0.2,0.9-0.2,1c0.1,0.1,0.4,0.2,0.9,0.2
	c0.4,0,0.7,0,0.8-0.1c0.1-0.1,0.3-0.3,0.3-0.6c0.1-0.4,0.3-0.7,0.5-0.6c0.2,0,0.6,0.2,1,0.7c0.4,0.4,0.6,0.6,0.6,0.8
	c0,0.2,0,0.5-0.3,0.9c-0.4,0.8-1,1.7-1.7,2.5c-0.7,0.8-1.5,1.5-2.2,2c-0.2,0.2-0.4,0.3-0.4,0.3C299.6,74.9,299.6,75,299.6,75z
	 M317.4,72.6c-0.1,0.1-0.9,0.1-2.4,0.1c-1.4,0-2.2,0-2.4-0.1c-0.2-0.1-0.3-0.2-0.3-0.5c0-0.3,0-1.1,0-2.5c0-0.2,0-0.6,0-1
	c0-0.8,0-1.3,0-1.6c0.1-0.3,0.2-0.5,0.5-0.6c0.2,0,0.6-0.1,1.3,0c0.4,0,0.6,0,0.8,0s0.5,0,0.8,0c0.7,0,1.2,0,1.3,0
	c0.3,0.1,0.4,0.3,0.5,0.6c0,0.2,0.1,0.7,0,1.6c0,0.4,0,0.7,0,1c0,1.5,0,2.3,0,2.6C317.7,72.4,317.6,72.5,317.4,72.6z M304.9,67.5
	c-0.1,0-0.2,0.1-0.3,0c-0.1,0-0.3-0.1-0.8-0.3c-0.1,0-0.2-0.1-0.3-0.1c0,0-0.1,0-0.2,0c-0.3-0.1-0.5-0.2-0.6-0.3
	c-0.1-0.1-0.1-0.3-0.1-0.7c0-0.2,0.2-0.8,0.4-1.7c0-0.2,0.1-0.4,0.1-0.5c0.4-1.6,0.6-2.6,0.7-3c0.1-0.5,0.2-0.8,0.4-0.9
	c0.1-0.1,0.4-0.2,0.9-0.2c0.4,0,0.7,0,0.9,0.1c0.2,0.1,0.2,0.3,0.3,0.6c0,0.3,0,0.8-0.1,1.6c-0.2,1.5-0.4,2.7-0.7,3.7
	C305.3,66.9,305.1,67.4,304.9,67.5z M319.9,63.9c0.4,0.1,0.7,0,1-0.3c0.3-0.3,0.4-0.8,0.3-1.3c-0.1-0.9-0.5-1.7-1.2-2.5
	c-0.7-0.8-1.7-1.6-3-2.2c-0.4-0.2-0.6-0.2-0.6-0.2c0,0,0,0.2,0.3,0.6c0.4,0.5,0.7,1,1,1.6c0.3,0.5,0.5,0.9,0.5,1
	c0,0.2,0,0.3-0.1,0.3c-0.1,0.1-0.4,0.1-0.8,0.1c-0.3,0-1,0.1-2,0.1h-0.1c-1,0-1.6,0.1-1.9,0c-0.4,0-0.6-0.1-0.6-0.2
	c0-0.1,0.1-0.3,0.3-0.7c0.9-1.6,1.7-3.1,2.3-4.5c0.3-0.7,0.6-1.1,0.8-1.2c0.3-0.1,0.3-0.3,0-0.4c-0.3-0.2-0.9-0.4-1.9-0.7
	c0,0-0.1,0-0.1,0c-0.5-0.1-0.7-0.2-0.8-0.2c-0.1,0-0.1,0.1-0.1,0.4c0,0,0,0.1,0,0.1c-0.1,1.8-0.5,3.9-1.2,6.4
	c-0.2,0.6-0.4,1-0.6,1.2c-0.2,0.1-0.8,0.2-1.8,0.2c0,0,0,0-0.1,0c-0.3,0-0.5,0-0.5,0.1c0,0.1,0.1,0.4,0.2,0.9c0,0.1,0,0.1,0,0.2
	c0,0.2,0.1,0.4,0.2,0.7c0,0.2,0.1,0.3,0.1,0.3c0.1,0.2,0.1,0.4,0.2,0.4c0.1,0,0.2-0.1,0.4-0.2c0.1-0.1,0.3-0.2,0.5-0.3
	c0.2-0.1,0.7-0.2,1.4-0.4c1.8-0.4,3.5-0.8,4.9-1.2c1-0.3,1.6-0.3,1.8-0.1c0.3,0.1,0.5,0.7,0.6,1.6C319.3,63.6,319.5,63.8,319.9,63.9
	z M36.2,99.4c0.1,0.1,0.3,0,0.8,0c1-0.2,1.6-0.6,1.9-1.1c0.1-0.3,0.2-0.6,0.2-1c0-0.4,0.1-1.6,0.1-3.5c0-0.3,0-0.7,0-1.2
	c0-1.1,0-1.8,0-2c0-0.4,0.2-0.6,0.4-0.7c0.1-0.1,0.4-0.1,1-0.1c0.2,0,0.4,0,0.6,0c1.1,0,1.7-0.1,1.8-0.3c0.1-0.2-0.3-0.7-1.2-1.4
	c-0.4-0.3-0.7-0.5-0.8-0.5c-0.1,0-0.3,0.2-0.6,0.7C40,88.8,39.7,89,39.5,89s-0.3-0.3-0.3-0.7s0.1-0.7,0.3-0.8
	c0.2-0.1,0.2-0.2,0.1-0.3c-0.1-0.1-0.5-0.3-1.2-0.5c-0.6-0.2-1-0.3-1.2-0.3c-0.2,0-0.3,0.1-0.3,0.2c0,0.1,0,0.5,0,1.2
	c0,0.5,0,0.9,0,1c0,0.1-0.1,0.2-0.2,0.3c-0.1,0-1,0.1-2.8,0.1c-1.8,0-3,0-3.6,0c-0.1,0-0.2,0-0.3,0c-0.4,0-0.7,0-0.8,0
	c-0.3,0-0.4-0.1-0.5-0.2c0-0.1-0.1-0.6-0.1-1.3c0-0.9,0.1-1.4,0.2-1.6c0.1,0,0.1,0,0.2,0c0.1,0,0.1,0.1,0.2,0.1
	c0,0.1,0.1,0.1,0.2,0.1c0.1,0,0.3,0,0.6,0c0.8-0.1,1.5-0.2,2.3-0.2c0.8,0,2.4,0,4.8,0c0.8,0,1.9,0,3.2,0c1.4,0,2.1-0.1,2.1-0.1
	c0.4-0.2-0.1-0.8-1.3-1.8c-0.4-0.3-0.6-0.4-0.7-0.4c-0.1,0-0.4,0.3-0.7,0.8l0,0c-0.3,0.4-0.5,0.7-0.7,0.7c-0.2,0.1-0.6,0.1-1.3,0.1
	c0,0-0.1,0-0.2,0c-0.7,0-1-0.1-1.2-0.2c-0.1-0.1-0.2-0.6-0.2-1.3c0-0.1,0-0.2,0-0.2c0-0.1,0-0.3,0-0.5c0-0.5,0-0.8,0.1-0.9
	c0.1-0.2,0.2-0.3,0.6-0.3c0.2,0,0.7,0,1.5,0c0.3,0,0.6,0,0.8,0c1.2,0,2-0.1,2.3-0.1c0.4-0.1,0.5-0.2,0.4-0.5
	c-0.1-0.2-0.6-0.6-1.3-1.2l0,0c-0.4-0.3-0.6-0.4-0.7-0.4c-0.1,0-0.3,0.3-0.7,0.8c-0.3,0.4-0.5,0.6-0.6,0.7C38.5,81,38.2,81,37.7,81
	c0,0-0.1,0-0.1,0c-0.6,0-1,0-1.1-0.2c-0.1-0.1-0.2-0.5-0.1-1.2c0-0.4,0-0.6,0-0.8c0-0.1,0.2-0.3,0.3-0.4c0.2-0.2,0.2-0.3-0.1-0.5
	c-0.3-0.1-0.9-0.3-1.8-0.6c-0.4-0.1-0.6-0.1-0.7-0.1c0,0-0.1,0.1,0,0.4c0.1,0.9,0.2,1.7,0.1,2.3c0,0.6-0.1,0.9-0.3,1
	c-0.1,0-0.6,0.1-1.5,0c-0.9,0-1.7,0-2.2-0.1c-0.4,0-0.6,0-0.6,0c0,0,0,0.2,0.2,0.5c0.1,0.3,0.2,0.4,0.3,0.5c0.1,0,0.2,0.1,0.3,0
	c0.9-0.2,1.8-0.3,2.5-0.3s1.2,0.1,1.3,0.3c0.1,0.1,0.1,0.6,0.1,1.4c0,0.9,0,1.4-0.1,1.5c-0.2,0.4-1.6,0.4-4.3,0.2
	c-0.1,0-0.1,0-0.2,0c-0.4,0-0.7-0.1-0.8-0.3c-0.1-0.2-0.1-0.7-0.1-1.6c0-0.2,0-0.4,0-0.5c0-0.1,0-0.2,0-0.4c0-0.8,0-1.3,0.1-1.5
	s0.2-0.4,0.5-0.6c0,0,0.1-0.1,0.1-0.1c0.2-0.1,0.2-0.3,0.1-0.5c-0.1-0.2-0.4-0.5-0.9-0.8c-0.5-0.4-0.9-0.6-1-0.6
	c-0.1,0-0.4,0.2-0.7,0.6c-0.4,0.4-0.8,0.7-1.4,0.7c-0.6,0-1.4-0.2-2.4-0.6c-0.1,0-0.2-0.1-0.3-0.1c-0.5-0.2-0.8-0.3-0.9-0.3
	c-0.1,0-0.1,0.2-0.1,0.5c0,0.1,0,0.1,0,0.2c0.1,0.7,0.1,1.4,0.1,2.1c0,0.6,0,1.9,0,4.1c0,0.1,0,0.2,0,0.2c0,4.6,0,7.8-0.1,9.5
	c0,0.8-0.1,1.3-0.1,1.5c0,0.2,0,0.3,0.1,0.4c0.3,0.3,0.7,0.3,1.3,0c0.6-0.2,0.9-0.5,0.9-0.9c-0.1-0.8-0.1-1.2,0.1-1.4
	c0.1-0.2,0.5-0.3,1.2-0.3c0.6,0,0.9,0,1,0.1c0.1,0.1,0.2,0.3,0.2,0.7c0,0.4,0.1,0.7,0.4,0.8c0.3,0.1,0.7-0.1,1.4-0.4l0,0
	c0.3-0.1,0.4-0.2,0.4-0.3c0-0.1,0.1-0.3,0-0.7c0,0,0-0.1,0-0.1c-0.1-1.7-0.1-3-0.1-3.6c0-0.8,0-1.2,0.1-1.4c0.1-0.1,0.2-0.1,0.4,0.2
	c0,0,0,0,0,0.1c0.1,0.2,0.2,0.3,0.3,0.3c0,0,0.2,0,0.3,0c0.1,0,0.1,0,0.1,0c1-0.1,2.4-0.2,4.2-0.2c0.2,0,0.6,0,0.9,0
	c0.7,0,1.2,0,1.4,0c0.3,0.1,0.4,0.3,0.5,0.6c0,0.2,0.1,0.8,0,1.8c0,0.5,0,0.9,0,1.2c0,0.2,0,0.5,0,0.9c0,1,0,1.7,0,2
	c0,0.4-0.1,0.6-0.3,0.7C36.6,97,36.3,97,35.9,97c-0.2,0-0.3,0-0.4,0c-1,0-1.5,0-1.7,0c-0.2,0-0.3,0.1-0.3,0.1c0,0.1,0.1,0.1,0.3,0.2
	c0.7,0.2,1.3,0.4,1.6,0.6c0.4,0.3,0.6,0.7,0.7,1.2C36.1,99.3,36.1,99.4,36.2,99.4z M33.1,95.2c0.4,0.1,0.7,0,1-0.2
	c0.3-0.3,0.4-0.6,0.4-1c0-1.2-0.9-2.3-2.8-3c-0.6-0.2-0.9-0.3-1-0.3c-0.1,0,0,0.2,0.3,0.6c0.7,1,1.1,2,1.4,3
	c0.1,0.3,0.2,0.5,0.2,0.6C32.7,95.1,32.9,95.1,33.1,95.2z M25.1,93.8c-0.4,0-0.6,0-0.7-0.1c-0.1-0.1-0.2-0.3-0.3-0.7
	c0-0.3,0-0.9,0-1.8c0-0.3,0-0.5,0-0.6s0-0.4,0-0.6c0-1,0-1.6,0-1.8c0-0.4,0.1-0.6,0.3-0.7c0.1-0.1,0.4-0.1,0.7-0.1
	c0.1,0,0.2,0,0.3,0c0.1,0,0.2,0,0.3,0c0.4,0,0.6,0,0.7,0.1c0.1,0.1,0.2,0.3,0.3,0.7c0,0.3,0,0.9,0,1.8c0,0.3,0,0.5,0,0.6
	c0,1.5,0,2.3,0,2.6c0,0.3-0.1,0.4-0.2,0.5c-0.1,0.1-0.1,0.1-0.2,0.1c-0.1,0-0.4,0-0.8,0C25.3,93.8,25.2,93.8,25.1,93.8z M25.4,86.6
	c-0.5,0-0.8,0-1-0.1c-0.2-0.1-0.3-0.2-0.3-0.5c0-0.3,0-1.1,0-2.5c0-0.2,0-0.4,0-0.6c0-1,0-1.6,0-1.9c0-0.4,0.1-0.6,0.3-0.7
	c0.1-0.1,0.3-0.1,0.7-0.1c0.1,0,0.2,0,0.2,0c0.1,0,0.1,0,0.2,0c0.4,0,0.6,0,0.7,0.1c0.1,0.1,0.2,0.3,0.3,0.7c0,0.3,0,0.9,0,1.9
	c0,0.3,0,0.5,0,0.6c0,1.4,0,2.3-0.1,2.5c0,0.3-0.1,0.4-0.3,0.5C26.2,86.6,25.9,86.6,25.4,86.6z M50.5,99.4c0.1,0.1,0.4,0.1,0.8,0
	c0.4-0.1,0.7-0.2,1-0.4l0,0c0.2-0.1,0.3-0.3,0.4-0.4c0-0.1,0-0.5,0-1.2c0-0.1,0-0.2,0-0.2c-0.1-1.2-0.1-3.3-0.1-6.4
	c0-3.1,0-4.7,0.1-4.8c0.1-0.2,0.2-0.3,0.4-0.3c0.2,0,0.7,0,1.6,0c0.9,0,1.5,0,1.7,0.1c0.2,0.1,0.3,0.3,0.3,0.6
	c0,0.3,0.1,0.4,0.4,0.5c0.3,0,0.7-0.1,1.2-0.3c0,0,0.1,0,0.1,0c0.2-0.1,0.4-0.2,0.4-0.3c0-0.1,0-0.5,0-1.2c0-0.2,0-0.3,0-0.4
	c0-1.5-0.1-2.5-0.1-3c0-0.7,0-1.1,0.1-1.3c0.1-0.2,0.2-0.4,0.5-0.5c0.2-0.1,0.2-0.3,0.1-0.5c-0.1-0.2-0.4-0.5-0.9-0.9
	c-0.5-0.4-0.8-0.6-0.9-0.6c-0.1,0-0.3,0.2-0.6,0.5c0,0,0,0,0,0.1c-0.2,0.3-0.4,0.5-0.6,0.6c-0.2,0-0.7,0.1-1.6,0.1
	c-0.1,0-0.1,0-0.2,0c-0.1,0-0.2,0-0.4,0c-0.7,0-1.2,0-1.4,0c-0.2,0-0.6-0.2-1.1-0.4c-0.1,0-0.2-0.1-0.3-0.1c0,0-0.1-0.1-0.2-0.1
	c-0.5-0.2-0.7-0.3-0.8-0.3c-0.1,0-0.1,0.2,0,0.5c0,0.1,0,0.1,0,0.1c0.1,0.8,0.1,1.6,0.2,2.3c0,0.8,0,2.7,0,5.6c0,5.5,0,9.2-0.1,11
	c-0.1,0.9-0.1,1.4-0.1,1.6C50.2,99.2,50.3,99.3,50.5,99.4z M66.3,99.4c0,0.1,0.3,0.1,0.7,0c0.4-0.1,0.8-0.2,1.1-0.3
	c0.5-0.3,0.9-0.7,1.1-1.3c0-0.1,0.1-0.6,0.1-1.5c0-0.8,0-3,0-6.9c0-0.2,0-0.4,0-0.5c0-0.7,0-1.7,0-2.8c0-2.2,0-3.6,0-4.2
	c0-0.8,0-1.4,0.1-1.6c0-0.2,0.1-0.3,0.3-0.3c0.1,0,0.1,0,0.1-0.1c0.3-0.2,0.3-0.3,0.2-0.5c-0.1-0.2-0.5-0.5-1.1-1
	c-0.5-0.4-0.8-0.5-0.9-0.6c-0.1,0-0.3,0.1-0.6,0.5c0,0-0.1,0.1-0.1,0.1c-0.2,0.3-0.4,0.5-0.6,0.5c-0.2,0-0.7,0.1-1.5,0.1
	c-0.1,0-0.3,0-0.3,0c-0.1,0-0.2,0-0.4,0c-0.7,0-1.2,0-1.4,0c-0.2,0-0.6-0.2-1.1-0.4c-0.1,0-0.2-0.1-0.3-0.1c0,0-0.1,0-0.2-0.1
	C61,78.1,60.7,78,60.7,78c-0.1,0-0.1,0.1-0.1,0.3c0,0,0,0.1,0,0.1c0.2,2.7,0.3,5.3,0.1,7.8c0,0.3,0.1,0.5,0.4,0.6
	c0.3,0.1,0.6,0.1,1,0c0.4-0.1,0.6-0.4,0.8-0.7c0.1-0.2,0.2-0.3,0.4-0.4c0.2,0,0.8,0,1.7,0c0.2,0,0.4,0,0.7,0c0.5,0,0.9,0,1,0.1
	c0.2,0.1,0.3,0.5,0.4,1c0,0.4,0,1.3,0,2.7c0,0.8,0,1.4,0,1.8c0,0.2,0,0.5,0,1c0,1.7,0,2.7,0,3.2c0,0.6,0,1-0.1,1.2
	c0,0.1-0.1,0.2-0.2,0.2l0,0c-0.2,0.1-0.6,0.1-1.4,0s-1.2-0.1-1.1-0.2c0.1-0.1,0.1-1.2,0-3.3c0-1.8,0-2.8,0-3.3
	c0-0.4,0.2-0.7,0.4-0.8c0.3-0.1,0.3-0.3,0.2-0.6c-0.1-0.2-0.5-0.6-1.1-1.1c-0.4-0.3-0.6-0.5-0.7-0.5c-0.1,0-0.3,0.2-0.6,0.5
	c0,0-0.1,0.1-0.1,0.1c-0.2,0.3-0.4,0.5-0.6,0.5c-0.2,0-0.8,0.1-1.7,0.1c-0.2,0-0.3,0-0.4,0c-0.1,0-0.3,0-0.5,0c-0.8,0-1.4,0-1.6,0
	c-0.2,0-0.6-0.2-1.1-0.4c-0.1,0-0.2-0.1-0.3-0.1c-0.5-0.2-0.8-0.3-0.9-0.4c-0.1,0-0.1,0-0.1,0.2c0.1,0.8,0.2,2.1,0.2,3.8
	c0,1.8,0,3.3-0.1,4.6c0,0.6,0,1,0,1.1c0.1,0.1,0.3,0.2,0.6,0.1c0.4,0,0.8-0.1,1-0.3c0.3-0.2,0.4-0.4,0.4-0.6c0-0.2,0-0.4,0.1-0.5
	c0.1-0.1,0.3-0.2,0.6-0.2c0.2,0,0.8,0,1.6,0c0.8,0,1.4,0,1.6,0c0.3,0,0.5,0.1,0.6,0.2c0.1,0.1,0.1,0.3,0,0.6c0,0.3,0.1,0.5,0.2,0.6
	c0.2,0,0.5,0,1-0.1c0.3-0.1,0.6-0.2,0.7-0.2c0.1,0,0.1,0,0.1,0.1c0,0.1,0,0.1,0.1,0.2c0.1,0,0.2,0.1,0.5,0.1
	c0.5,0.1,0.9,0.3,1.2,0.6c0.3,0.3,0.4,0.7,0.5,1.2C66.3,99.2,66.3,99.3,66.3,99.4z M61.7,95c-0.1,0.1-0.8,0.1-2,0.1
	c-1.2,0-1.9-0.1-2-0.1c-0.3-0.1-0.4-0.6-0.4-1.3c0-0.8,0.1-1.2,0.4-1.3c0.1-0.1,0.8-0.1,2-0.1c1.2,0,1.9,0,2,0.1
	c0.3,0.1,0.4,0.6,0.4,1.3C62.1,94.5,62,94.9,61.7,95z M59.4,91.7c-0.8,0-1.2,0-1.4,0c-0.3,0-0.5-0.1-0.5-0.3c0-0.1-0.1-0.4-0.1-0.8
	c0-0.1,0-0.1,0-0.2s0-0.1,0-0.2c0-0.4,0-0.7,0.1-0.8c0.1-0.2,0.2-0.3,0.5-0.3c0.2,0,0.7,0,1.4,0c0.1,0,0.3,0,0.3,0
	c0.1,0,0.2,0,0.3,0c0.8,0,1.2,0,1.4,0c0.3,0,0.5,0.1,0.5,0.3c0,0.1,0.1,0.4,0.1,0.8c0,0.1,0,0.1,0,0.2c0,0.5,0,0.8,0,1
	c0,0.1-0.1,0.2-0.3,0.3c-0.1,0-0.8,0.1-2,0.1C59.7,91.7,59.6,91.7,59.4,91.7z M54.4,85c-0.7,0-1.2,0-1.3,0c-0.3,0-0.4-0.1-0.5-0.3
	c0-0.1-0.1-0.4-0.1-0.8c0,0,0-0.1,0-0.1c0,0,0-0.1,0-0.1c0-0.4,0-0.6,0.1-0.7c0-0.1,0.2-0.2,0.5-0.3c0.2,0,0.6,0,1.2,0
	c0.1,0,0.2,0,0.2,0s0.1,0,0.2,0c0.7,0,1.1,0,1.2,0c0.3,0,0.4,0.1,0.5,0.3c0,0.1,0.1,0.3,0.1,0.7c0,0.1,0,0.1,0,0.1
	c0,0.4,0,0.7-0.1,0.8c0,0.1-0.1,0.2-0.3,0.3c-0.1,0.1-0.7,0.1-1.7,0.1C54.5,85,54.5,85,54.4,85z M64.8,85c-0.7,0-1.2,0-1.4,0
	c-0.3,0-0.4-0.1-0.5-0.3c0-0.1-0.1-0.4-0.1-0.8c0,0,0-0.1,0-0.1c0,0,0-0.1,0-0.1c0-0.4,0-0.6,0.1-0.7c0.1-0.1,0.2-0.2,0.5-0.3
	c0.2,0,0.6,0,1.3,0c0.1,0,0.2,0,0.2,0c0,0,0.1,0,0.2,0c0.7,0,1.1,0,1.3,0c0.3,0,0.4,0.1,0.5,0.3c0,0.1,0.1,0.3,0.1,0.7
	c0,0.1,0,0.1,0,0.1c0,0.4,0,0.7-0.1,0.8c0,0.1-0.1,0.2-0.3,0.3C66.6,84.9,66,85,65,85C64.9,85,64.9,85,64.8,85z M54.6,82
	c-1,0-1.6,0-1.7-0.1c-0.2-0.1-0.3-0.5-0.3-1.1c0-0.6,0.1-0.9,0.4-1.1c0.1-0.1,0.7-0.1,1.7-0.1c1,0,1.6,0,1.7,0.1
	c0.2,0.1,0.4,0.5,0.4,1.1c0,0.6-0.1,1-0.3,1.1C56.2,81.9,55.6,82,54.6,82z M65,82c-1.1,0-1.7,0-1.8-0.1c-0.2-0.1-0.3-0.5-0.3-1.1
	c0-0.6,0.1-0.9,0.4-1.1c0.1-0.1,0.7-0.1,1.8-0.1c1,0,1.6,0,1.8,0.1c0.2,0.1,0.4,0.5,0.4,1.1c0,0.6-0.1,1-0.3,1.1
	C66.6,81.9,66,82,65,82z M87.2,91.7c1.1,0.1,2-0.2,2.8-1c0.8-0.8,1.1-1.7,1-2.8c-0.1-0.9-0.5-1.6-1.2-2.2c-0.6-0.5-1.4-0.8-2.2-0.8
	c-0.9,0-1.6,0.3-2.3,0.9c-0.7,0.6-1,1.4-1.1,2.3c0,0.8,0.2,1.6,0.7,2.3C85.6,91.2,86.3,91.6,87.2,91.7z M88.6,90.7
	c-0.8,0.3-1.6,0.2-2.3-0.3c-0.7-0.5-1.1-1.2-1.1-2.1c0-0.7,0.2-1.3,0.7-1.8c0.5-0.5,1.1-0.7,1.7-0.7c0.7,0,1.3,0.2,1.8,0.7
	c0.7,0.6,0.9,1.4,0.7,2.3C90,89.8,89.4,90.4,88.6,90.7z"/>
</svg>
