<svg width="352" height="219" viewBox="0 0 352 219" fill="none" xmlns="http://www.w3.org/2000/svg">
<g clip-path="url(#clip0)">
<path d="M350.65 0.649902H0.649902V217.44H350.65V0.649902Z" stroke="#D6D2C7" stroke-width="1.3" stroke-miterlimit="10" stroke-dasharray="9.31 9.31"/>
</g>
<path d="M36.632 98.064C36.664 98.16 36.936 98.144 37.448 98.016C37.976 97.888 38.36 97.744 38.6 97.584C38.92 97.36 39.112 97.088 39.176 96.768C39.256 96.448 39.312 95.672 39.344 94.44C39.344 94.328 39.344 94.16 39.344 93.936C39.344 93.216 39.368 92.76 39.416 92.568C39.464 92.312 39.584 92.152 39.776 92.088C39.92 92.04 40.256 92.016 40.784 92.016C40.96 92.016 41.096 92.016 41.192 92.016C42.184 92.016 42.72 91.968 42.8 91.872C42.88 91.776 42.672 91.456 42.176 90.912C41.792 90.496 41.576 90.224 41.528 90.096C41.48 89.952 41.552 89.808 41.744 89.664C42.08 89.408 42.176 89.04 42.032 88.56C41.888 88.08 41.552 87.664 41.024 87.312C40.704 87.088 40.528 86.92 40.496 86.808C40.48 86.68 40.584 86.552 40.808 86.424C40.84 86.408 40.88 86.384 40.928 86.352C41.12 86.256 41.232 86.128 41.264 85.968C41.296 85.808 41.312 85.32 41.312 84.504C41.312 84.28 41.312 84.104 41.312 83.976C41.312 82.728 41.336 81.976 41.384 81.72C41.432 81.448 41.568 81.248 41.792 81.12C41.968 81.024 42.032 80.912 41.984 80.784C41.936 80.64 41.744 80.416 41.408 80.112C40.896 79.632 40.536 79.368 40.328 79.32C40.12 79.256 39.912 79.368 39.704 79.656C39.432 80.024 39.216 80.248 39.056 80.328C38.912 80.392 38.624 80.416 38.192 80.4C37.776 80.384 37.504 80.328 37.376 80.232C37.248 80.12 37.184 79.888 37.184 79.536C37.2 79.248 37.24 79.072 37.304 79.008C37.4 78.896 37.632 78.824 38 78.792C38.256 78.776 38.872 78.768 39.848 78.768C41.512 78.768 42.424 78.656 42.584 78.432C42.744 78.208 42.28 77.696 41.192 76.896C40.872 76.672 40.656 76.576 40.544 76.608C40.448 76.64 40.24 76.864 39.92 77.28C39.344 78.048 38.6 78.312 37.688 78.072C37.432 78.008 37.288 77.856 37.256 77.616C37.24 77.36 37.344 77.136 37.568 76.944C37.792 76.768 37.8 76.616 37.592 76.488C37.384 76.344 36.864 76.152 36.032 75.912C35.984 75.896 35.928 75.88 35.864 75.864C35.512 75.768 35.304 75.736 35.24 75.768C35.192 75.784 35.176 75.912 35.192 76.152C35.192 76.2 35.192 76.24 35.192 76.272C35.24 76.992 35.224 77.456 35.144 77.664C35.032 77.936 34.72 78.088 34.208 78.12C33.808 78.152 32.944 78.112 31.616 78C31.504 77.984 31.36 77.976 31.184 77.976C30.896 77.944 30.728 77.936 30.68 77.952C30.648 77.952 30.624 77.984 30.608 78.048C30.576 78.256 30.304 78.192 29.792 77.856L29.768 77.832C29.512 77.672 29.336 77.616 29.24 77.664C29.144 77.712 28.928 77.968 28.592 78.432C28.144 79.072 27.736 79.272 27.368 79.032C27.16 78.904 27.064 78.544 27.08 77.952C27.096 77.36 27.208 77.008 27.416 76.896C27.928 76.624 27.288 76.264 25.496 75.816C25.192 75.736 25.016 75.712 24.968 75.744C24.936 75.76 24.928 75.88 24.944 76.104C25.024 76.728 25.064 77.32 25.064 77.88C25.08 78.44 25.048 78.776 24.968 78.888C24.776 79.176 23.784 79.224 21.992 79.032C21.976 79.032 21.952 79.032 21.92 79.032C21.584 79 21.4 79.008 21.368 79.056C21.336 79.104 21.408 79.28 21.584 79.584L21.608 79.632C21.624 79.648 21.64 79.68 21.656 79.728C21.768 79.92 21.856 80.032 21.92 80.064C21.984 80.08 22.152 80.056 22.424 79.992C22.488 79.976 22.536 79.968 22.568 79.968C23.512 79.76 24.168 79.72 24.536 79.848C24.904 79.976 25.088 80.304 25.088 80.832C25.088 81.456 24.944 81.808 24.656 81.888C24.368 81.952 23.776 81.784 22.88 81.384C22.336 81.144 22.04 81.024 21.992 81.024C21.944 81.024 21.92 81.072 21.92 81.168C21.92 81.248 21.944 81.496 21.992 81.912C22.088 82.776 22.144 84.12 22.16 85.944C22.176 87.72 22.144 89.032 22.064 89.88C22.032 90.328 22.056 90.616 22.136 90.744C22.216 90.872 22.416 90.912 22.736 90.864C23.504 90.736 23.888 90.496 23.888 90.144C23.888 89.888 23.992 89.696 24.2 89.568C24.424 89.424 24.64 89.416 24.848 89.544C25.072 89.704 25.168 90.176 25.136 90.96C25.104 91.728 24.976 92.168 24.752 92.28C24.64 92.344 24.12 92.36 23.192 92.328C22.264 92.296 21.648 92.248 21.344 92.184C21.248 92.168 21.2 92.2 21.2 92.28C21.216 92.36 21.288 92.528 21.416 92.784C21.432 92.8 21.448 92.824 21.464 92.856C21.576 93.096 21.664 93.232 21.728 93.264C21.792 93.296 21.96 93.28 22.232 93.216C22.28 93.2 22.312 93.192 22.328 93.192C23 93.048 23.592 92.992 24.104 93.024C24.632 93.056 24.936 93.168 25.016 93.36C25.064 93.44 25.08 93.936 25.064 94.848C25.064 95.744 25.04 96.496 24.992 97.104C24.96 97.6 25.104 97.896 25.424 97.992C25.744 98.104 26.192 98.008 26.768 97.704C26.976 97.576 27.096 97.464 27.128 97.368C27.176 97.272 27.184 96.992 27.152 96.528C27.152 96.464 27.152 96.416 27.152 96.384C27.152 96.24 27.144 96.04 27.128 95.784C27.08 94.76 27.072 94.112 27.104 93.84C27.152 93.472 27.304 93.24 27.56 93.144C27.736 93.064 28.184 93.024 28.904 93.024C29.064 93.024 29.2 93.024 29.312 93.024C30.272 93.008 30.84 92.992 31.016 92.976C31.192 92.96 31.312 92.896 31.376 92.784C31.424 92.72 31.416 92.648 31.352 92.568C31.272 92.424 31.288 92.296 31.4 92.184C31.512 92.072 31.688 92.032 31.928 92.064C32.168 92.096 32.288 92.176 32.288 92.304C32.288 92.352 32.344 92.472 32.456 92.664C32.648 92.968 32.824 93.368 32.984 93.864C33.16 94.36 33.248 94.736 33.248 94.992C33.248 95.312 33.552 95.536 34.16 95.664C34.272 95.68 34.376 95.704 34.472 95.736L34.496 95.784C34.512 95.816 34.52 95.84 34.52 95.856C34.568 95.936 34.696 96.008 34.904 96.072C35.416 96.2 35.792 96.376 36.032 96.6C36.272 96.84 36.44 97.192 36.536 97.656C36.552 97.688 36.568 97.736 36.584 97.8C36.616 97.96 36.632 98.048 36.632 98.064ZM36.968 95.688C36.728 95.784 36.184 95.792 35.336 95.712C35.144 95.696 35.032 95.632 35 95.52C34.968 95.408 35.008 95.208 35.12 94.92C35.392 94.2 35.032 93.504 34.04 92.832C33.512 92.464 33.32 92.24 33.464 92.16C33.624 92.064 34.264 92.016 35.384 92.016C35.464 92.016 35.576 92.016 35.72 92.016C36.52 92.016 36.984 92.08 37.112 92.208C37.24 92.336 37.304 92.792 37.304 93.576C37.304 93.704 37.304 93.808 37.304 93.888C37.304 94.688 37.288 95.168 37.256 95.328C37.224 95.488 37.128 95.608 36.968 95.688ZM28.112 92.232C27.952 92.312 27.784 92.344 27.608 92.328C27.448 92.296 27.32 92.216 27.224 92.088C27.16 92.024 27.12 91.68 27.104 91.056C27.088 90.432 27.104 90.032 27.152 89.856C27.264 89.504 27.472 89.376 27.776 89.472C28.096 89.568 28.256 89.808 28.256 90.192C28.256 90.496 28.384 90.664 28.64 90.696C28.912 90.728 29.24 90.616 29.624 90.36C29.64 90.344 29.672 90.32 29.72 90.288C29.96 90.128 30.096 90.008 30.128 89.928C30.176 89.832 30.184 89.608 30.152 89.256C30.152 89.208 30.152 89.168 30.152 89.136C30.072 86.896 30.032 85.464 30.032 84.84C30.016 83.96 30.056 83.384 30.152 83.112C30.216 82.904 30.376 82.736 30.632 82.608C30.856 82.496 30.912 82.36 30.8 82.2C30.688 82.024 30.36 81.728 29.816 81.312C29.464 81.056 29.224 80.92 29.096 80.904C28.968 80.904 28.792 81.032 28.568 81.288C28.152 81.768 27.8 81.968 27.512 81.888C27.24 81.792 27.104 81.432 27.104 80.808V80.76C27.104 80.408 27.128 80.192 27.176 80.112C27.24 79.968 27.408 79.88 27.68 79.848C27.872 79.832 28.328 79.824 29.048 79.824C29.112 79.824 29.16 79.824 29.192 79.824C30.12 79.824 30.664 79.84 30.824 79.872C31 79.888 31.12 79.968 31.184 80.112C31.28 80.304 31.344 81.144 31.376 82.632C31.424 84.12 31.408 85.248 31.328 86.016C31.296 86.496 31.304 86.8 31.352 86.928C31.416 87.04 31.584 87.088 31.856 87.072C32.176 87.072 32.496 87 32.816 86.856C33.136 86.696 33.296 86.552 33.296 86.424C33.296 86.024 33.632 85.824 34.304 85.824C34.72 85.824 34.984 85.888 35.096 86.016C35.208 86.144 35.264 86.464 35.264 86.976C35.264 87.008 35.264 87.048 35.264 87.096C35.264 87.48 35.224 87.728 35.144 87.84C35.048 87.984 34.784 88.088 34.352 88.152C34.048 88.184 33.312 88.232 32.144 88.296C32 88.312 31.888 88.32 31.808 88.32C31.744 88.32 31.656 88.32 31.544 88.32C31.144 88.336 30.928 88.384 30.896 88.464C30.864 88.528 30.936 88.776 31.112 89.208C31.16 89.32 31.2 89.408 31.232 89.472C31.248 89.52 31.28 89.584 31.328 89.664C31.552 90.192 31.696 90.496 31.76 90.576C31.824 90.64 31.928 90.608 32.072 90.48L32.12 90.432C32.28 90.288 32.488 90.176 32.744 90.096C33.016 90 33.664 89.824 34.688 89.568C34.8 89.536 34.968 89.496 35.192 89.448C35.944 89.256 36.424 89.144 36.632 89.112C36.92 89.08 37.096 89.12 37.16 89.232C37.224 89.328 37.256 89.552 37.256 89.904C37.256 90 37.256 90.072 37.256 90.12C37.256 90.184 37.264 90.28 37.28 90.408C37.296 90.76 37.272 90.984 37.208 91.08C37.128 91.208 36.904 91.288 36.536 91.32C36.28 91.336 35.664 91.344 34.688 91.344C34.32 91.344 34.032 91.344 33.824 91.344C32.288 91.344 31.376 91.352 31.088 91.368C30.8 91.368 30.656 91.4 30.656 91.464C30.656 91.576 30.56 91.6 30.368 91.536C30.176 91.456 29.952 91.312 29.696 91.104L29.672 91.08C29.512 90.952 29.4 90.896 29.336 90.912C29.288 90.912 29.192 91 29.048 91.176C29.016 91.224 28.992 91.256 28.976 91.272C28.56 91.832 28.272 92.152 28.112 92.232ZM39.992 91.248C39.72 91.36 39.544 91.272 39.464 90.984C39.384 90.68 39.472 90.432 39.728 90.24C39.888 90.112 39.904 90 39.776 89.904C39.664 89.808 39.344 89.672 38.816 89.496C38.176 89.272 37.856 89.088 37.856 88.944C37.856 88.8 38.176 88.648 38.816 88.488C39.28 88.376 39.6 88.36 39.776 88.44C39.952 88.52 40.184 88.8 40.472 89.28C40.504 89.328 40.552 89.408 40.616 89.52C40.728 89.68 40.792 89.776 40.808 89.808C40.92 89.952 40.872 90.208 40.664 90.576C40.456 90.928 40.232 91.152 39.992 91.248ZM28.016 88.632C27.312 89.112 26.96 88.688 26.96 87.36C26.96 86.032 27.312 85.608 28.016 86.088C28.224 86.216 28.328 86.64 28.328 87.36C28.328 88.08 28.224 88.504 28.016 88.632ZM24.584 88.752C24.296 88.752 24.104 88.664 24.008 88.488C23.928 88.312 23.888 87.936 23.888 87.36C23.888 86.72 23.984 86.288 24.176 86.064C24.368 85.84 24.64 85.848 24.992 86.088C25.2 86.216 25.304 86.64 25.304 87.36C25.304 88.08 25.2 88.504 24.992 88.632C24.896 88.712 24.76 88.752 24.584 88.752ZM38.72 87.768C38.544 87.88 38.288 87.92 37.952 87.888C37.632 87.856 37.416 87.768 37.304 87.624C37.016 87.24 36.984 86.84 37.208 86.424C37.432 86.008 37.792 85.808 38.288 85.824C38.8 85.84 39.104 85.96 39.2 86.184C39.296 86.408 39.088 86.52 38.576 86.52C38.368 86.52 38.256 86.552 38.24 86.616C38.24 86.664 38.344 86.792 38.552 87C38.904 87.32 38.96 87.576 38.72 87.768ZM27.92 85.224C27.568 85.368 27.32 85.344 27.176 85.152C27.032 84.96 26.96 84.544 26.96 83.904C26.96 82.608 27.312 82.2 28.016 82.68C28.256 82.84 28.36 83.28 28.328 84C28.312 84.72 28.176 85.128 27.92 85.224ZM34.976 85.08C34.624 85.288 34.256 85.304 33.872 85.128C33.488 84.952 33.296 84.68 33.296 84.312C33.296 83.944 33.488 83.672 33.872 83.496C34.256 83.32 34.624 83.336 34.976 83.544C35.184 83.656 35.288 83.912 35.288 84.312C35.288 84.696 35.184 84.952 34.976 85.08ZM24.992 85.2C24.832 85.296 24.648 85.32 24.44 85.272C24.248 85.224 24.104 85.128 24.008 84.984C23.944 84.888 23.904 84.576 23.888 84.048C23.872 83.52 23.888 83.168 23.936 82.992C24.032 82.688 24.248 82.536 24.584 82.536C24.92 82.536 25.128 82.696 25.208 83.016C25.304 83.32 25.32 83.744 25.256 84.288C25.208 84.816 25.12 85.12 24.992 85.2ZM38.264 85.152C37.816 85.152 37.52 85.104 37.376 85.008C37.248 84.896 37.184 84.664 37.184 84.312C37.184 83.96 37.248 83.736 37.376 83.64C37.52 83.528 37.816 83.472 38.264 83.472C38.712 83.472 39 83.528 39.128 83.64C39.272 83.736 39.344 83.96 39.344 84.312C39.344 84.664 39.248 84.904 39.056 85.032C38.96 85.112 38.696 85.152 38.264 85.152ZM38.984 82.728C38.616 82.904 38.232 82.92 37.832 82.776C37.448 82.632 37.24 82.4 37.208 82.08C37.16 81.632 37.352 81.304 37.784 81.096C38.232 80.872 38.656 80.896 39.056 81.168C39.264 81.312 39.352 81.584 39.32 81.984C39.304 82.368 39.192 82.616 38.984 82.728ZM34.928 82.704C34.72 82.816 34.432 82.848 34.064 82.8C33.712 82.752 33.496 82.656 33.416 82.512C33.16 82.048 33.224 81.64 33.608 81.288C34.008 80.92 34.456 80.872 34.952 81.144C35.176 81.256 35.28 81.52 35.264 81.936C35.264 82.336 35.152 82.592 34.928 82.704ZM34.976 80.328C34.864 80.392 34.592 80.416 34.16 80.4C33.728 80.384 33.408 80.344 33.2 80.28C31.664 79.752 31.184 79.336 31.76 79.032C31.968 78.92 32.512 78.84 33.392 78.792C34.272 78.744 34.792 78.76 34.952 78.84C35.16 78.952 35.264 79.2 35.264 79.584C35.28 79.952 35.184 80.2 34.976 80.328ZM58.424 97.92C58.584 98.096 59.12 97.816 60.032 97.08C60.944 96.344 61.68 95.592 62.24 94.824C63.184 93.56 63.872 92.104 64.304 90.456C64.752 88.792 65.04 86.56 65.168 83.76C65.2 83.088 65.264 82.696 65.36 82.584C65.472 82.472 65.84 82.416 66.464 82.416C66.496 82.416 66.552 82.416 66.632 82.416C67.064 82.416 67.336 82.464 67.448 82.56C67.608 82.688 67.696 83.008 67.712 83.52C67.744 83.888 67.736 84.76 67.688 86.136C67.672 86.344 67.664 86.504 67.664 86.616C67.568 89.672 67.456 91.68 67.328 92.64C67.184 93.872 66.896 94.648 66.464 94.968C66.128 95.224 65.456 95.312 64.448 95.232C63.888 95.184 63.592 95.192 63.56 95.256C63.512 95.384 63.632 95.496 63.92 95.592C64.496 95.752 64.912 95.968 65.168 96.24C65.424 96.512 65.584 96.92 65.648 97.464C65.664 97.656 65.744 97.768 65.888 97.8C66.032 97.832 66.288 97.8 66.656 97.704C67.472 97.496 68.072 97.064 68.456 96.408C68.856 95.704 69.152 94.496 69.344 92.784C69.52 91.248 69.648 88.784 69.728 85.392C69.76 84.112 69.8 83.36 69.848 83.136C69.896 82.896 70.04 82.72 70.28 82.608C70.552 82.48 70.688 82.368 70.688 82.272C70.688 82.176 70.552 81.984 70.28 81.696C69.656 81.056 69.216 80.696 68.96 80.616C68.72 80.52 68.456 80.632 68.168 80.952C67.832 81.336 67.584 81.568 67.424 81.648C67.264 81.712 66.928 81.744 66.416 81.744C66.384 81.744 66.336 81.744 66.272 81.744C65.888 81.744 65.64 81.72 65.528 81.672C65.384 81.592 65.296 81.416 65.264 81.144C65.232 80.936 65.216 80.448 65.216 79.68C65.216 79.52 65.216 79.392 65.216 79.296C65.232 78.208 65.256 77.544 65.288 77.304C65.336 77.064 65.448 76.88 65.624 76.752C65.864 76.592 65.744 76.44 65.264 76.296C64.784 76.152 64.16 76.08 63.392 76.08C63.376 76.08 63.352 76.08 63.32 76.08C63.224 76.064 63.168 76.144 63.152 76.32C63.136 76.48 63.128 77.072 63.128 78.096C63.128 78.368 63.128 78.584 63.128 78.744C63.128 78.872 63.128 79.048 63.128 79.272C63.128 80.248 63.104 80.864 63.056 81.12C62.992 81.472 62.832 81.68 62.576 81.744C62.384 81.776 61.928 81.752 61.208 81.672C61.032 81.656 60.896 81.64 60.8 81.624C60.656 81.608 60.576 81.624 60.56 81.672C60.544 81.704 60.576 81.792 60.656 81.936C60.704 82.032 60.744 82.168 60.776 82.344C60.792 82.488 60.832 82.56 60.896 82.56C60.976 82.56 61.024 82.584 61.04 82.632C61.104 82.68 61.248 82.656 61.472 82.56C62.208 82.304 62.664 82.296 62.84 82.536C63.032 82.776 63.104 83.464 63.056 84.6C62.88 89.112 62.264 92.192 61.208 93.84C61.144 93.92 61.024 94.128 60.848 94.464C60.8 94.576 60.76 94.656 60.728 94.704C60.536 95.104 60.208 95.592 59.744 96.168C59.296 96.76 58.904 97.192 58.568 97.464C58.36 97.624 58.312 97.776 58.424 97.92ZM50.144 97.608C50.208 97.768 50.36 97.744 50.6 97.536C50.744 97.408 50.92 97.296 51.128 97.2C51.352 97.12 51.856 96.96 52.64 96.72C54.896 96.048 56.816 95.44 58.4 94.896C59.936 94.368 60.712 94.056 60.728 93.96C60.76 93.848 60.68 93.792 60.488 93.792C60.296 93.808 59.696 93.872 58.688 93.984H58.64C57.648 94.112 57.024 94.184 56.768 94.2C56.4 94.216 56.168 94.16 56.072 94.032C56.008 93.936 55.976 93.696 55.976 93.312C55.976 93.28 55.976 93.248 55.976 93.216V93.192C55.976 92.84 56.008 92.616 56.072 92.52C56.136 92.392 56.328 92.312 56.648 92.28C56.888 92.264 57.432 92.256 58.28 92.256C58.36 92.256 58.416 92.256 58.448 92.256C59.872 92.256 60.64 92.168 60.752 91.992C60.864 91.8 60.44 91.328 59.48 90.576C59.176 90.336 59.024 90.184 59.024 90.12C59.04 90.04 59.24 89.912 59.624 89.736L59.648 89.712C59.968 89.568 60.152 89.456 60.2 89.376C60.248 89.28 60.264 89.04 60.248 88.656C60.248 88.56 60.24 88.336 60.224 87.984C60.208 87.168 60.2 86.536 60.2 86.088C60.184 84.904 60.192 84.208 60.224 84C60.272 83.776 60.432 83.592 60.704 83.448C60.944 83.352 61.024 83.224 60.944 83.064C60.896 82.952 60.856 82.848 60.824 82.752C60.808 82.624 60.728 82.536 60.584 82.488C60.408 82.408 60.168 82.272 59.864 82.08C59.496 81.84 59.256 81.728 59.144 81.744C59.048 81.744 58.88 81.896 58.64 82.2C58.416 82.488 58.232 82.664 58.088 82.728C57.944 82.792 57.656 82.832 57.224 82.848C56.664 82.864 56.312 82.824 56.168 82.728C56.04 82.616 55.976 82.344 55.976 81.912C55.976 81.896 55.976 81.864 55.976 81.816C55.976 81.512 56.008 81.312 56.072 81.216C56.152 81.104 56.368 81.032 56.72 81C56.976 80.984 57.584 80.976 58.544 80.976C58.624 80.976 58.688 80.976 58.736 80.976C59.888 80.976 60.632 80.944 60.968 80.88C61.384 80.8 61.512 80.648 61.352 80.424C61.24 80.216 60.832 79.84 60.128 79.296C59.728 78.976 59.472 78.824 59.36 78.84C59.248 78.856 59.048 79.056 58.76 79.44C58.44 79.888 58.2 80.152 58.04 80.232C57.896 80.312 57.592 80.352 57.128 80.352C56.632 80.352 56.32 80.304 56.192 80.208C56.064 80.096 55.984 79.832 55.952 79.416C55.92 78.856 55.976 78.512 56.12 78.384C56.28 78.24 56.744 78.12 57.512 78.024C57.672 78.008 57.936 77.976 58.304 77.928C58.672 77.88 58.912 77.848 59.024 77.832C59.376 77.768 59.696 77.76 59.984 77.808C60.368 77.872 60.528 77.824 60.464 77.664C60.416 77.488 60.096 77.08 59.504 76.44C59.472 76.408 59.432 76.36 59.384 76.296C59.096 76.008 58.904 75.848 58.808 75.816C58.728 75.768 58.584 75.792 58.376 75.888C58.344 75.904 58.32 75.912 58.304 75.912C56.144 76.712 53.6 77.4 50.672 77.976C49.968 78.12 49.552 78.216 49.424 78.264C49.296 78.312 49.248 78.392 49.28 78.504C49.312 78.616 50.328 78.616 52.328 78.504C53.032 78.456 53.464 78.456 53.624 78.504C53.8 78.552 53.92 78.688 53.984 78.912C54.048 79.216 54.048 79.504 53.984 79.776C53.936 80.032 53.832 80.2 53.672 80.28C53.544 80.344 52.896 80.368 51.728 80.352C50.56 80.32 49.744 80.264 49.28 80.184C49.168 80.152 49.112 80.176 49.112 80.256C49.112 80.336 49.168 80.504 49.28 80.76L49.304 80.784C49.432 81.056 49.536 81.208 49.616 81.24C49.712 81.272 49.952 81.256 50.336 81.192C51.728 80.952 52.688 80.888 53.216 81C53.744 81.096 54.008 81.4 54.008 81.912C54.008 82.52 53.752 82.856 53.24 82.92C52.728 82.968 51.912 82.752 50.792 82.272C50.312 82.064 50.016 81.952 49.904 81.936C49.792 81.92 49.752 81.984 49.784 82.128C49.88 82.672 49.944 83.768 49.976 85.416C50.008 87.064 49.984 88.312 49.904 89.16C49.872 89.736 49.896 90.088 49.976 90.216C50.056 90.344 50.288 90.384 50.672 90.336C51.344 90.24 51.736 90.056 51.848 89.784C51.992 89.48 52.36 89.328 52.952 89.328C53.544 89.328 53.88 89.48 53.96 89.784C54.04 90.056 54.056 90.384 54.008 90.768C53.96 91.152 53.872 91.384 53.744 91.464C53.632 91.544 53.176 91.584 52.376 91.584C51.576 91.584 50.712 91.544 49.784 91.464C49.576 91.432 49.464 91.448 49.448 91.512C49.432 91.56 49.504 91.744 49.664 92.064C49.68 92.08 49.696 92.112 49.712 92.16C49.824 92.368 49.904 92.488 49.952 92.52C50.016 92.552 50.184 92.544 50.456 92.496C50.52 92.48 50.576 92.472 50.624 92.472C52 92.216 52.904 92.152 53.336 92.28C53.784 92.408 54.008 92.784 54.008 93.408C54.008 93.456 54.008 93.512 54.008 93.576C54.008 93.944 53.984 94.184 53.936 94.296C53.856 94.44 53.656 94.544 53.336 94.608C53.112 94.656 52.576 94.72 51.728 94.8C51.568 94.8 51.448 94.808 51.368 94.824C51.224 94.84 51.04 94.856 50.816 94.872C50.048 94.952 49.6 95 49.472 95.016C49.344 95.032 49.28 95.072 49.28 95.136C49.28 95.296 49.568 96.12 50.144 97.608ZM57.56 91.512C57.416 91.576 57.184 91.6 56.864 91.584C56.544 91.568 56.336 91.528 56.24 91.464C56.032 91.336 55.928 91.008 55.928 90.48C55.928 89.952 56.032 89.624 56.24 89.496C56.448 89.352 56.824 89.312 57.368 89.376C57.928 89.44 58.208 89.552 58.208 89.712C58.208 89.872 58.296 89.952 58.472 89.952C58.536 89.952 58.6 89.984 58.664 90.048C58.728 90.112 58.744 90.16 58.712 90.192C58.568 90.432 58.36 90.704 58.088 91.008C57.832 91.312 57.656 91.48 57.56 91.512ZM53.672 88.632C53.56 88.696 53.312 88.72 52.928 88.704C52.56 88.704 52.32 88.672 52.208 88.608C51.984 88.496 51.864 88.152 51.848 87.576C51.832 87 51.936 86.648 52.16 86.52C52.288 86.456 52.552 86.424 52.952 86.424C53.384 86.44 53.648 86.488 53.744 86.568C53.968 86.712 54.064 87.064 54.032 87.624C54.016 88.184 53.896 88.52 53.672 88.632ZM57.104 88.704C56.688 88.704 56.424 88.68 56.312 88.632C56.088 88.504 55.96 88.168 55.928 87.624C55.912 87.064 56.016 86.712 56.24 86.568C56.336 86.488 56.616 86.44 57.08 86.424C57.512 86.424 57.792 86.456 57.92 86.52C58.144 86.648 58.248 87 58.232 87.576C58.216 88.152 58.096 88.496 57.872 88.608C57.76 88.672 57.504 88.704 57.104 88.704ZM53.672 85.704C53.56 85.768 53.312 85.792 52.928 85.776C52.56 85.776 52.32 85.744 52.208 85.68C52.032 85.6 51.912 85.336 51.848 84.888C51.8 84.424 51.84 84.064 51.968 83.808C52.08 83.568 52.392 83.44 52.904 83.424C53.432 83.424 53.768 83.544 53.912 83.784C54.04 83.992 54.072 84.344 54.008 84.84C53.96 85.336 53.848 85.624 53.672 85.704ZM57.104 85.776C56.688 85.776 56.424 85.752 56.312 85.704C56.056 85.576 55.928 85.216 55.928 84.624C55.928 84.016 56.056 83.656 56.312 83.544C56.424 83.48 56.688 83.456 57.104 83.472C57.504 83.472 57.76 83.504 57.872 83.568C58.128 83.68 58.256 84.032 58.256 84.624C58.256 85.2 58.128 85.552 57.872 85.68C57.76 85.744 57.504 85.776 57.104 85.776ZM97.28 98.016C97.536 98.048 97.76 97.944 97.952 97.704C98.16 97.48 98.264 97.2 98.264 96.864C98.264 96.176 97.88 95.536 97.112 94.944C96.36 94.336 95.392 93.912 94.208 93.672C93.52 93.544 93.112 93.504 92.984 93.552C92.872 93.584 92.992 93.736 93.344 94.008C93.904 94.44 94.512 95.032 95.168 95.784C95.84 96.52 96.288 97.112 96.512 97.56C96.624 97.8 96.8 97.936 97.04 97.968C97.072 97.968 97.112 97.976 97.16 97.992L97.28 98.016ZM83.96 97.944C84.008 97.992 84.28 97.968 84.776 97.872C87.32 97.328 89.472 96.464 91.232 95.28C91.632 95.024 91.88 94.896 91.976 94.896C92.264 94.896 92.384 94.84 92.336 94.728C92.288 94.616 92.056 94.432 91.64 94.176C90.472 93.424 89.936 92.936 90.032 92.712C90.144 92.472 90.952 92.352 92.456 92.352C93.32 92.352 93.888 92.36 94.16 92.376C94.496 92.408 94.712 92.472 94.808 92.568C94.888 92.632 94.928 92.784 94.928 93.024C94.928 93.248 95.096 93.36 95.432 93.36C95.752 93.36 96.152 93.24 96.632 93C96.664 92.984 96.712 92.96 96.776 92.928C97.016 92.816 97.152 92.704 97.184 92.592C97.216 92.48 97.224 92.144 97.208 91.584C97.192 91.456 97.184 91.352 97.184 91.272C97.152 90.344 97.128 88.672 97.112 86.256C97.096 83.808 97.104 82.528 97.136 82.416C97.184 82.224 97.344 82.04 97.616 81.864C97.776 81.752 97.792 81.6 97.664 81.408C97.536 81.216 97.224 80.936 96.728 80.568C96.296 80.248 96.016 80.08 95.888 80.064C95.76 80.032 95.592 80.136 95.384 80.376C95.064 80.76 94.816 80.992 94.64 81.072C94.464 81.136 94.064 81.168 93.44 81.168C92.672 81.168 92.232 81.112 92.12 81C92.024 80.872 92.136 80.576 92.456 80.112C92.52 80.016 92.624 79.856 92.768 79.632C92.912 79.408 93.008 79.256 93.056 79.176C93.36 78.712 93.592 78.424 93.752 78.312C93.832 78.28 94.592 78.256 96.032 78.24C97.216 78.224 97.912 78.208 98.12 78.192C98.328 78.16 98.464 78.08 98.528 77.952C98.592 77.824 98.432 77.568 98.048 77.184C97.664 76.784 97.208 76.4 96.68 76.032C96.456 75.872 96.296 75.824 96.2 75.888C96.104 75.936 95.872 76.2 95.504 76.68C95.456 76.744 95.392 76.832 95.312 76.944C95.152 77.168 95.016 77.312 94.904 77.376C94.744 77.456 94.448 77.512 94.016 77.544C93.712 77.56 93.008 77.568 91.904 77.568C91.44 77.568 91.072 77.568 90.8 77.568C88.224 77.568 86.92 77.584 86.888 77.616C86.76 77.728 86.336 77.472 85.616 76.848C85.6 76.832 85.576 76.808 85.544 76.776C85.288 76.568 85.12 76.464 85.04 76.464C84.96 76.464 84.824 76.592 84.632 76.848C84.616 76.88 84.6 76.904 84.584 76.92C84.184 77.464 83.888 77.792 83.696 77.904C83.536 77.984 82.656 78.016 81.056 78C79.424 78 78.168 77.96 77.288 77.88C77.08 77.848 76.968 77.856 76.952 77.904C76.936 77.952 77 78.128 77.144 78.432C77.16 78.464 77.176 78.496 77.192 78.528C77.304 78.768 77.392 78.904 77.456 78.936C77.52 78.968 77.688 78.968 77.96 78.936C78.024 78.92 78.08 78.912 78.128 78.912C78.832 78.816 79.424 78.752 79.904 78.72C80.448 78.704 81.568 78.696 83.264 78.696C85.104 78.68 86.184 78.664 86.504 78.648C86.824 78.632 87.024 78.584 87.104 78.504C87.232 78.376 87.4 78.296 87.608 78.264C87.784 78.248 88.304 78.24 89.168 78.24C89.2 78.24 89.256 78.24 89.336 78.24C90.024 78.24 90.456 78.256 90.632 78.288C90.888 78.352 91.04 78.488 91.088 78.696C91.12 78.856 91.104 79.216 91.04 79.776C91.024 79.856 91.016 79.92 91.016 79.968C90.952 80.48 90.872 80.808 90.776 80.952C90.648 81.128 90.424 81.176 90.104 81.096C89.832 81.048 89.336 80.864 88.616 80.544C88.088 80.32 87.768 80.2 87.656 80.184C87.56 80.168 87.528 80.224 87.56 80.352C87.704 81.296 87.784 83.04 87.8 85.584C87.832 88.112 87.792 90.248 87.68 91.992C87.616 92.84 87.624 93.352 87.704 93.528C87.784 93.688 88.032 93.752 88.448 93.72C88.992 93.688 89.168 93.856 88.976 94.224C88.768 94.592 88.28 95.056 87.512 95.616C86.712 96.208 85.784 96.768 84.728 97.296C84.312 97.504 84.064 97.64 83.984 97.704C83.904 97.784 83.896 97.864 83.96 97.944ZM78.152 97.176C78.216 97.288 78.352 97.232 78.56 97.008C78.832 96.736 79.304 96.464 79.976 96.192C82.824 95.056 85.072 94.064 86.72 93.216C86.976 93.088 87.104 92.984 87.104 92.904C87.104 92.808 87.032 92.768 86.888 92.784C86.744 92.784 86.312 92.864 85.592 93.024C84.696 93.216 84.112 93.32 83.84 93.336C83.52 93.352 83.376 93.272 83.408 93.096C83.424 92.952 83.592 92.64 83.912 92.16C83.944 92.112 83.992 92.032 84.056 91.92C84.36 91.424 84.576 91.072 84.704 90.864C84.96 90.432 85.136 90.152 85.232 90.024C85.344 89.896 85.464 89.8 85.592 89.736C85.816 89.656 85.864 89.552 85.736 89.424C85.672 89.36 85.368 89.224 84.824 89.016C84.28 88.808 83.944 88.696 83.816 88.68C83.784 88.664 83.696 88.648 83.552 88.632C83.456 88.616 83.392 88.608 83.36 88.608C83.2 88.576 83.104 88.576 83.072 88.608C83.04 88.64 83.024 88.752 83.024 88.944C83.024 89.36 82.936 90.12 82.76 91.224C82.584 92.312 82.44 92.992 82.328 93.264C82.184 93.584 81.824 93.792 81.248 93.888C81.184 93.904 81 93.936 80.696 93.984C80.376 94.048 80.136 94.096 79.976 94.128C79.832 94.16 79.584 94.208 79.232 94.272C78.656 94.384 78.256 94.456 78.032 94.488C77.36 94.616 77.008 94.696 76.976 94.728L77.504 95.88C77.872 96.648 78.088 97.08 78.152 97.176ZM79.928 93.288C80.424 93.512 80.824 93.376 81.128 92.88C81.448 92.368 81.488 91.808 81.248 91.2C81.056 90.752 80.728 90.288 80.264 89.808C79.816 89.36 79.432 89.08 79.112 88.968C78.792 88.856 78.704 89.008 78.848 89.424C79.232 90.496 79.424 91.52 79.424 92.496C79.424 92.72 79.456 92.888 79.52 93C79.584 93.112 79.72 93.208 79.928 93.288ZM94.64 91.608C94.528 91.672 93.792 91.704 92.432 91.704C91.056 91.688 90.32 91.648 90.224 91.584C90.016 91.456 89.912 91.016 89.912 90.264C89.912 89.496 90.016 89.048 90.224 88.92C90.336 88.856 91.072 88.824 92.432 88.824C93.792 88.824 94.528 88.856 94.64 88.92C94.864 89.048 94.976 89.496 94.976 90.264C94.976 91.032 94.864 91.48 94.64 91.608ZM78.128 88.32C78.288 88.496 78.608 88.52 79.088 88.392C79.568 88.248 79.856 88.048 79.952 87.792C80.032 87.584 80.16 87.464 80.336 87.432C80.528 87.384 81.048 87.36 81.896 87.36C82.808 87.36 83.368 87.392 83.576 87.456C83.784 87.52 83.888 87.704 83.888 88.008C83.888 88.216 84.032 88.32 84.32 88.32C84.608 88.304 84.984 88.184 85.448 87.96L85.472 87.936C85.728 87.808 85.872 87.696 85.904 87.6C85.936 87.488 85.936 87.192 85.904 86.712C85.808 85.016 85.784 83.92 85.832 83.424C85.88 82.912 86.048 82.584 86.336 82.44C86.56 82.328 86.664 82.224 86.648 82.128C86.632 82.032 86.488 81.848 86.216 81.576C85.592 80.952 85.16 80.6 84.92 80.52C84.68 80.44 84.432 80.568 84.176 80.904C84.16 80.92 84.136 80.952 84.104 81C83.864 81.32 83.664 81.512 83.504 81.576C83.344 81.624 82.88 81.648 82.112 81.648C81.984 81.648 81.88 81.648 81.8 81.648C81.752 81.648 81.68 81.648 81.584 81.648C80.832 81.648 80.344 81.632 80.12 81.6C79.896 81.552 79.504 81.4 78.944 81.144L78.896 81.12C78.832 81.088 78.752 81.056 78.656 81.024C78.288 80.848 78.072 80.76 78.008 80.76C77.944 80.76 77.92 80.856 77.936 81.048C77.952 81.096 77.96 81.136 77.96 81.168C77.976 81.264 77.992 81.464 78.008 81.768C78.024 81.928 78.032 82.048 78.032 82.128C78.176 84.016 78.168 85.912 78.008 87.816C77.992 87.976 77.984 88.08 77.984 88.128C78 88.176 78.048 88.24 78.128 88.32ZM92 88.176C91.232 88.176 90.744 88.16 90.536 88.128C90.248 88.096 90.072 88 90.008 87.84C89.96 87.712 89.936 87.432 89.936 87C89.936 86.888 89.936 86.8 89.936 86.736C89.936 86.672 89.936 86.584 89.936 86.472C89.936 86.04 89.96 85.76 90.008 85.632C90.072 85.472 90.248 85.376 90.536 85.344C90.744 85.312 91.232 85.296 92 85.296C92.176 85.296 92.32 85.296 92.432 85.296C92.544 85.296 92.688 85.296 92.864 85.296C93.632 85.296 94.12 85.312 94.328 85.344C94.616 85.376 94.792 85.472 94.856 85.632C94.904 85.76 94.928 86.04 94.928 86.472C94.928 86.584 94.928 86.672 94.928 86.736C94.928 87.264 94.912 87.608 94.88 87.768C94.848 87.912 94.752 88.016 94.592 88.08C94.496 88.144 93.776 88.176 92.432 88.176C92.32 88.176 92.176 88.176 92 88.176ZM83.6 86.616C83.488 86.68 82.928 86.712 81.92 86.712C80.896 86.696 80.336 86.656 80.24 86.592C80.096 86.528 80.008 86.4 79.976 86.208C79.96 86.016 79.952 85.448 79.952 84.504C79.952 84.376 79.952 84.192 79.952 83.952C79.952 83.136 80.008 82.656 80.12 82.512C80.248 82.368 80.688 82.304 81.44 82.32C81.648 82.32 81.808 82.32 81.92 82.32C82.032 82.32 82.192 82.32 82.4 82.32C83.152 82.304 83.584 82.368 83.696 82.512C83.824 82.656 83.888 83.136 83.888 83.952C83.888 84.192 83.888 84.376 83.888 84.504C83.888 85.448 83.872 86.016 83.84 86.208C83.824 86.4 83.744 86.536 83.6 86.616ZM94.64 84.552C94.528 84.616 93.792 84.648 92.432 84.648C91.056 84.632 90.32 84.592 90.224 84.528C90.016 84.4 89.912 83.968 89.912 83.232C89.912 82.48 90.016 82.04 90.224 81.912C90.336 81.848 91.072 81.816 92.432 81.816C93.792 81.816 94.528 81.848 94.64 81.912C94.864 82.04 94.976 82.48 94.976 83.232C94.976 83.984 94.864 84.424 94.64 84.552ZM112.208 97.704C112.208 98.024 112.96 97.872 114.464 97.248C115.968 96.64 117.216 95.976 118.208 95.256C118.704 94.888 119.056 94.68 119.264 94.632C119.52 94.6 119.616 94.536 119.552 94.44C119.504 94.344 119.272 94.168 118.856 93.912C118.184 93.496 117.824 93.224 117.776 93.096C117.712 92.936 118 92.832 118.64 92.784C119.136 92.752 120.304 92.736 122.144 92.736C124.24 92.736 125.472 92.728 125.84 92.712C126.208 92.68 126.44 92.6 126.536 92.472C126.68 92.248 126.344 91.76 125.528 91.008C125.256 90.784 125.072 90.68 124.976 90.696C124.896 90.696 124.752 90.848 124.544 91.152C124.288 91.52 124.08 91.744 123.92 91.824C123.76 91.904 123.624 91.864 123.512 91.704C123.464 91.64 123.432 91.448 123.416 91.128C123.416 90.808 123.416 89.728 123.416 87.888C123.416 87.616 123.416 87.256 123.416 86.808C123.416 85.672 123.424 84.952 123.44 84.648C123.472 84.232 123.56 83.968 123.704 83.856C123.8 83.792 124.032 83.76 124.4 83.76C124.56 83.76 124.688 83.76 124.784 83.76C125.392 83.76 125.768 83.744 125.912 83.712C126.056 83.664 126.128 83.552 126.128 83.376C126.128 83.248 125.96 83.008 125.624 82.656C125.288 82.288 125.008 82.04 124.784 81.912C124.672 81.864 124.584 81.856 124.52 81.888C124.456 81.92 124.352 82.032 124.208 82.224C124 82.512 123.824 82.664 123.68 82.68C123.552 82.696 123.488 82.576 123.488 82.32C123.488 82.048 123.568 81.848 123.728 81.72C123.904 81.576 123.88 81.44 123.656 81.312C123.448 81.184 122.944 81.008 122.144 80.784H122.12C121.672 80.64 121.408 80.584 121.328 80.616C121.264 80.632 121.248 80.76 121.28 81V81.048C121.392 82.216 121.312 82.872 121.04 83.016C120.928 83.08 120.48 83.104 119.696 83.088C118.896 83.088 118.448 83.064 118.352 83.016C118.16 82.904 118.064 82.688 118.064 82.368C118.08 82.048 118.176 81.832 118.352 81.72C118.576 81.592 118.576 81.464 118.352 81.336C118.128 81.192 117.616 81 116.816 80.76C116.24 80.6 116.08 80.352 116.336 80.016L116.36 79.992C116.472 79.864 116.688 79.792 117.008 79.776C117.344 79.744 118.448 79.728 120.32 79.728C120.704 79.728 121.008 79.728 121.232 79.728C123.056 79.728 124.216 79.72 124.712 79.704C125.4 79.704 125.824 79.672 125.984 79.608C126.112 79.576 126.176 79.488 126.176 79.344C126.176 79.184 125.84 78.8 125.168 78.192C124.512 77.584 124.104 77.28 123.944 77.28C123.832 77.28 123.568 77.568 123.152 78.144C123.12 78.192 123.072 78.264 123.008 78.36C122.768 78.696 122.544 78.896 122.336 78.96C122.128 79.008 121.528 79.04 120.536 79.056C120.328 79.056 120.16 79.056 120.032 79.056C119.936 79.056 119.8 79.056 119.624 79.056C118.808 79.056 118.288 79.048 118.064 79.032C117.76 79.032 117.568 79 117.488 78.936C117.44 78.904 117.416 78.808 117.416 78.648C117.416 78.424 117.536 78.128 117.776 77.76C118.032 77.376 118.248 77.152 118.424 77.088C118.696 76.992 118.68 76.848 118.376 76.656C118.088 76.464 117.424 76.176 116.384 75.792L116.36 75.768C116.008 75.64 115.8 75.584 115.736 75.6C115.672 75.616 115.632 75.736 115.616 75.96V76.008C115.504 77.08 115.232 78.152 114.8 79.224C114.576 79.816 114.376 80.128 114.2 80.16C114.024 80.176 113.672 79.952 113.144 79.488C113.112 79.456 113.072 79.416 113.024 79.368C112.704 79.096 112.504 78.96 112.424 78.96C112.344 78.96 112.208 79.096 112.016 79.368C111.984 79.416 111.96 79.448 111.944 79.464C111.64 79.88 111.408 80.152 111.248 80.28C111.104 80.408 110.96 80.456 110.816 80.424C110.56 80.36 110.424 79.816 110.408 78.792C110.392 77.752 110.512 77.136 110.768 76.944C110.976 76.8 110.944 76.664 110.672 76.536C110.416 76.392 109.832 76.2 108.92 75.96C108.872 75.944 108.808 75.928 108.728 75.912C108.376 75.816 108.168 75.792 108.104 75.84C108.056 75.872 108.048 76.064 108.08 76.416C108.096 76.496 108.104 76.56 108.104 76.608C108.232 77.952 108.28 78.904 108.248 79.464C108.232 80.008 108.128 80.336 107.936 80.448C107.856 80.48 107.472 80.496 106.784 80.496C106.112 80.48 105.608 80.448 105.272 80.4C105 80.352 104.848 80.352 104.816 80.4C104.784 80.416 104.848 80.592 105.008 80.928C105.184 81.264 105.296 81.432 105.344 81.432C105.36 81.416 105.432 81.392 105.56 81.36C105.704 81.328 105.816 81.304 105.896 81.288C106.648 81.096 107.12 81.096 107.312 81.288C107.504 81.464 107.6 82 107.6 82.896C107.6 88.704 106.736 93.392 105.008 96.96C104.992 97.008 104.96 97.064 104.912 97.128C104.768 97.448 104.68 97.64 104.648 97.704C104.632 97.768 104.648 97.824 104.696 97.872C104.776 97.952 104.872 97.944 104.984 97.848C105.096 97.752 105.336 97.464 105.704 96.984C107.592 94.52 108.808 91.128 109.352 86.808C109.432 86.104 109.528 85.68 109.64 85.536C109.752 85.376 110.032 85.296 110.48 85.296C110.88 85.296 111.128 85.36 111.224 85.488C111.368 85.648 111.44 86.04 111.44 86.664C111.44 87.144 111.384 88.2 111.272 89.832C111.16 91.608 111.032 92.84 110.888 93.528C110.728 94.312 110.472 94.832 110.12 95.088C109.816 95.296 109.288 95.376 108.536 95.328C108.088 95.296 107.808 95.288 107.696 95.304C107.6 95.32 107.552 95.368 107.552 95.448C107.552 95.512 107.568 95.56 107.6 95.592C107.632 95.608 107.736 95.648 107.912 95.712C108.008 95.744 108.08 95.768 108.128 95.784C108.48 95.912 108.76 96.12 108.968 96.408C109.176 96.712 109.28 97.056 109.28 97.44C109.28 97.616 109.312 97.712 109.376 97.728C109.44 97.76 109.6 97.76 109.856 97.728C110.768 97.6 111.44 97.256 111.872 96.696C112.304 96.136 112.64 95.152 112.88 93.744C112.992 93.088 113.104 92.696 113.216 92.568C113.328 92.44 113.488 92.536 113.696 92.856C113.76 92.952 113.824 93 113.888 93C113.968 93.016 114.208 92.992 114.608 92.928H114.68C115.912 92.768 116.6 92.76 116.744 92.904C116.984 93.16 116.64 93.792 115.712 94.8C114.784 95.808 113.768 96.664 112.664 97.368C112.36 97.528 112.208 97.64 112.208 97.704ZM124.76 97.848C125.352 98.024 125.744 97.92 125.936 97.536C126.112 97.168 126.064 96.696 125.792 96.12C125.504 95.512 125.048 95 124.424 94.584C123.832 94.184 123.024 93.832 122 93.528C120.976 93.224 120.464 93.184 120.464 93.408C120.464 93.44 120.656 93.6 121.04 93.888C122.4 95.008 123.424 96.104 124.112 97.176C124.288 97.416 124.4 97.592 124.448 97.704C124.512 97.768 124.616 97.816 124.76 97.848ZM115.784 91.944C115.608 92.072 114.968 92.08 113.864 91.968C113.512 91.936 113.304 91.848 113.24 91.704C113.192 91.56 113.192 91.128 113.24 90.408C113.288 89.912 113.328 89.208 113.36 88.296C113.36 88.216 113.368 88.104 113.384 87.96C113.432 86.856 113.472 86.208 113.504 86.016C113.552 85.808 113.696 85.648 113.936 85.536C114.256 85.376 114.36 85.192 114.248 84.984C114.152 84.776 113.8 84.432 113.192 83.952C112.824 83.648 112.576 83.496 112.448 83.496C112.336 83.496 112.144 83.648 111.872 83.952C111.6 84.24 111.384 84.424 111.224 84.504C111.064 84.584 110.832 84.624 110.528 84.624C110.064 84.624 109.792 84.552 109.712 84.408C109.648 84.264 109.632 83.776 109.664 82.944C109.664 82.864 109.664 82.752 109.664 82.608C109.696 81.888 109.776 81.472 109.904 81.36C110.048 81.232 110.528 81.168 111.344 81.168C111.504 81.168 111.624 81.168 111.704 81.168C112.728 81.168 113.32 81.224 113.48 81.336C113.656 81.432 113.592 81.704 113.288 82.152C113.08 82.456 113.024 82.648 113.12 82.728C113.216 82.792 113.424 82.712 113.744 82.488C114.016 82.296 114.48 81.912 115.136 81.336C115.456 81.032 115.68 80.928 115.808 81.024C115.936 81.104 116.008 81.416 116.024 81.96C116.056 82.504 115.976 82.848 115.784 82.992C115.592 83.12 115.168 83.136 114.512 83.04C114.224 82.992 114.064 82.992 114.032 83.04C114.016 83.072 114.08 83.232 114.224 83.52C114.368 83.792 114.456 83.952 114.488 84C114.536 84.032 114.624 84.016 114.752 83.952C114.896 83.888 115.072 83.848 115.28 83.832C115.504 83.816 115.672 83.832 115.784 83.88C115.912 83.944 115.984 84.144 116 84.48C116.032 84.816 116.048 85.96 116.048 87.912C116.048 89.848 116.032 90.984 116 91.32C115.984 91.656 115.912 91.864 115.784 91.944ZM121.016 91.992C120.888 92.056 120.456 92.088 119.72 92.088C118.952 92.072 118.512 92.032 118.4 91.968C118.224 91.888 118.104 91.608 118.04 91.128C117.992 90.632 118.032 90.264 118.16 90.024C118.288 89.768 118.792 89.632 119.672 89.616C120.552 89.6 121.08 89.72 121.256 89.976C121.4 90.168 121.44 90.536 121.376 91.08C121.312 91.608 121.192 91.912 121.016 91.992ZM119.72 88.992C118.92 89.008 118.464 88.976 118.352 88.896C118.128 88.768 118.024 88.416 118.04 87.84C118.056 87.248 118.176 86.896 118.4 86.784C118.528 86.704 118.96 86.664 119.696 86.664C120.448 86.664 120.88 86.704 120.992 86.784C121.232 86.912 121.368 87.256 121.4 87.816C121.432 88.36 121.328 88.712 121.088 88.872C120.976 88.952 120.52 88.992 119.72 88.992ZM119.72 86.016C118.92 86.032 118.464 86 118.352 85.92C118.128 85.792 118.024 85.448 118.04 84.888C118.056 84.312 118.176 83.968 118.4 83.856C118.528 83.776 118.96 83.736 119.696 83.736C120.448 83.736 120.88 83.776 120.992 83.856C121.232 83.984 121.368 84.32 121.4 84.864C121.432 85.392 121.328 85.736 121.088 85.896C120.976 85.976 120.52 86.016 119.72 86.016ZM133.928 97.944C134.152 98.056 134.48 98.048 134.912 97.92C135.344 97.808 135.68 97.632 135.92 97.392C136.048 97.264 136.12 97.144 136.136 97.032C136.152 96.92 136.144 96.592 136.112 96.048C136.016 94.336 135.968 91.976 135.968 88.968C135.968 85.992 136.008 84.44 136.088 84.312C136.2 84.152 136.336 84.064 136.496 84.048C136.672 84.016 137.168 84 137.984 84C138.896 84 139.448 84.04 139.64 84.12C139.848 84.184 139.952 84.376 139.952 84.696C139.952 84.952 140.096 85.088 140.384 85.104C140.656 85.104 141.04 84.976 141.536 84.72C141.568 84.704 141.616 84.68 141.68 84.648C141.888 84.552 142 84.44 142.016 84.312C142.048 84.168 142.056 83.752 142.04 83.064C142.024 82.856 142.016 82.696 142.016 82.584C141.952 80.856 141.936 79.752 141.968 79.272C142.016 78.792 142.144 78.488 142.352 78.36C142.656 78.168 142.752 77.968 142.64 77.76C142.544 77.552 142.184 77.2 141.56 76.704C141.176 76.4 140.928 76.248 140.816 76.248C140.688 76.264 140.504 76.432 140.264 76.752C140.248 76.784 140.224 76.816 140.192 76.848C139.952 77.168 139.744 77.352 139.568 77.4C139.392 77.448 138.88 77.472 138.032 77.472C137.968 77.472 137.912 77.472 137.864 77.472C137.768 77.472 137.64 77.472 137.48 77.472C136.776 77.472 136.32 77.456 136.112 77.424C135.904 77.376 135.528 77.232 134.984 76.992C134.888 76.944 134.816 76.912 134.768 76.896C134.064 76.576 133.696 76.416 133.664 76.416C133.632 76.416 133.64 76.704 133.688 77.28C133.704 77.52 133.72 77.72 133.736 77.88C133.8 78.408 133.832 80.96 133.832 85.536C133.848 90.816 133.8 94.456 133.688 96.456C133.64 97.112 133.624 97.504 133.64 97.632C133.672 97.776 133.768 97.88 133.928 97.944ZM150.08 97.968C150.144 98.016 150.376 97.992 150.776 97.896C151.144 97.8 151.448 97.704 151.688 97.608C152.2 97.368 152.528 96.96 152.672 96.384C152.72 96.24 152.752 93.288 152.768 87.528C152.768 87.224 152.768 86.792 152.768 86.232C152.784 81.32 152.816 78.832 152.864 78.768C153.008 78.512 153.128 78.384 153.224 78.384C153.288 78.384 153.376 78.336 153.488 78.24C153.616 78.128 153.68 78.048 153.68 78C153.68 77.888 153.432 77.624 152.936 77.208C152.44 76.776 152.04 76.48 151.736 76.32C151.592 76.24 151.48 76.224 151.4 76.272C151.32 76.32 151.176 76.48 150.968 76.752C150.952 76.784 150.92 76.824 150.872 76.872C150.648 77.16 150.448 77.328 150.272 77.376C150.112 77.424 149.632 77.456 148.832 77.472C148.688 77.472 148.576 77.472 148.496 77.472C148.4 77.472 148.256 77.472 148.064 77.472C147.328 77.472 146.856 77.456 146.648 77.424C146.44 77.392 146.072 77.264 145.544 77.04C145.448 76.992 145.376 76.96 145.328 76.944C145.28 76.928 145.216 76.896 145.136 76.848C144.688 76.656 144.424 76.568 144.344 76.584C144.28 76.584 144.264 76.72 144.296 76.992C144.312 77.072 144.32 77.128 144.32 77.16C144.384 77.928 144.424 78.976 144.44 80.304C144.472 81.632 144.464 82.672 144.416 83.424C144.384 84 144.368 84.36 144.368 84.504C144.384 84.648 144.424 84.752 144.488 84.816C144.632 84.96 144.936 84.976 145.4 84.864C145.88 84.736 146.232 84.56 146.456 84.336C146.616 84.176 146.784 84.08 146.96 84.048C147.136 84.016 147.664 84 148.544 84C148.72 84 148.952 83.992 149.24 83.976C149.768 83.96 150.104 83.992 150.248 84.072C150.44 84.2 150.56 84.528 150.608 85.056C150.64 85.424 150.656 86.312 150.656 87.72C150.656 88.472 150.656 89.08 150.656 89.544C150.656 89.944 150.656 90.488 150.656 91.176C150.656 92.76 150.648 93.768 150.632 94.2C150.6 94.776 150.504 95.136 150.344 95.28C150.248 95.392 150 95.432 149.6 95.4C149.424 95.4 149.28 95.4 149.168 95.4C148.464 95.384 148.096 95.392 148.064 95.424C147.984 95.552 148.072 95.648 148.328 95.712C148.856 95.84 149.24 96.048 149.48 96.336C149.736 96.624 149.904 97.04 149.984 97.584C150.016 97.84 150.048 97.968 150.08 97.968ZM137.48 97.056C137.608 97.12 137.952 96.968 138.512 96.6C139.072 96.248 139.552 95.872 139.952 95.472C140.848 94.576 141.456 93.44 141.776 92.064C141.872 91.68 141.984 91.448 142.112 91.368C142.256 91.288 142.6 91.248 143.144 91.248C143.672 91.248 144.008 91.304 144.152 91.416C144.344 91.544 144.456 91.864 144.488 92.376C144.504 92.776 144.48 93.632 144.416 94.944C144.368 95.696 144.352 96.184 144.368 96.408C144.4 96.68 144.488 96.84 144.632 96.888C144.744 96.936 144.992 96.928 145.376 96.864C145.904 96.784 146.216 96.648 146.312 96.456C146.424 96.264 146.464 95.792 146.432 95.04C146.432 94.928 146.424 94.776 146.408 94.584C146.36 93.352 146.344 92.576 146.36 92.256C146.392 91.792 146.52 91.504 146.744 91.392C146.888 91.296 147.248 91.248 147.824 91.248C147.92 91.248 147.992 91.248 148.04 91.248C149.08 91.216 149.616 91.064 149.648 90.792C149.696 90.52 149.24 90.04 148.28 89.352L148.256 89.328C148.048 89.168 147.896 89.112 147.8 89.16C147.72 89.208 147.504 89.464 147.152 89.928C146.848 90.328 146.64 90.448 146.528 90.288C146.432 90.128 146.384 89.632 146.384 88.8C146.384 88.752 146.384 88.68 146.384 88.584C146.384 87.88 146.432 87.464 146.528 87.336C146.64 87.208 147.024 87.136 147.68 87.12C147.792 87.12 147.872 87.12 147.92 87.12C148.752 87.104 149.2 87.024 149.264 86.88C149.344 86.736 149.12 86.416 148.592 85.92C148.064 85.408 147.712 85.128 147.536 85.08C147.36 85.016 147.16 85.12 146.936 85.392C146.872 85.472 146.8 85.576 146.72 85.704C146.448 86.088 146.184 86.312 145.928 86.376C145.688 86.424 144.952 86.448 143.72 86.448C143.32 86.448 143 86.448 142.76 86.448C140.392 86.448 138.76 86.408 137.864 86.328C137.64 86.296 137.52 86.312 137.504 86.376C137.504 86.424 137.584 86.608 137.744 86.928C137.76 86.96 137.784 87.008 137.816 87.072C137.912 87.264 137.984 87.368 138.032 87.384C138.096 87.4 138.24 87.376 138.464 87.312C138.528 87.296 138.576 87.28 138.608 87.264C139.36 87.056 139.848 87.112 140.072 87.432C140.152 87.528 140.192 87.992 140.192 88.824C140.192 89.656 140.152 90.136 140.072 90.264C139.992 90.424 139.696 90.528 139.184 90.576C138.688 90.608 138.096 90.576 137.408 90.48C137.168 90.448 137.032 90.456 137 90.504C136.984 90.552 137.056 90.72 137.216 91.008C137.232 91.024 137.248 91.056 137.264 91.104C137.392 91.328 137.48 91.456 137.528 91.488C137.592 91.52 137.728 91.504 137.936 91.44C137.968 91.424 137.992 91.416 138.008 91.416C138.36 91.32 138.728 91.272 139.112 91.272C139.496 91.256 139.736 91.288 139.832 91.368C140.184 91.656 140.12 92.392 139.64 93.576C139.176 94.76 138.56 95.72 137.792 96.456C137.456 96.776 137.352 96.976 137.48 97.056ZM144.176 90.504C143.952 90.632 143.56 90.664 143 90.6C142.44 90.52 142.128 90.4 142.064 90.24C142.016 90.096 141.992 89.624 141.992 88.824C142.008 88.024 142.048 87.568 142.112 87.456C142.24 87.2 142.616 87.072 143.24 87.072C143.88 87.072 144.256 87.2 144.368 87.456C144.496 87.712 144.528 88.264 144.464 89.112C144.416 89.944 144.32 90.408 144.176 90.504ZM139.664 83.256C139.536 83.336 138.96 83.368 137.936 83.352C136.928 83.336 136.368 83.288 136.256 83.208C136.032 83.064 135.928 82.704 135.944 82.128C135.976 81.552 136.104 81.208 136.328 81.096C136.44 81.032 136.992 81.008 137.984 81.024C138.944 81.024 139.488 81.056 139.616 81.12C139.84 81.232 139.96 81.584 139.976 82.176C139.992 82.752 139.888 83.112 139.664 83.256ZM148.592 83.352C147.52 83.352 146.928 83.312 146.816 83.232C146.592 83.104 146.488 82.752 146.504 82.176C146.52 81.584 146.64 81.232 146.864 81.12C146.992 81.056 147.568 81.024 148.592 81.024C149.616 81.008 150.184 81.032 150.296 81.096C150.52 81.208 150.64 81.552 150.656 82.128C150.688 82.704 150.592 83.064 150.368 83.208C150.256 83.288 149.664 83.336 148.592 83.352ZM150.296 80.328C150.168 80.392 149.6 80.424 148.592 80.424C147.552 80.408 146.976 80.368 146.864 80.304C146.72 80.24 146.624 80.144 146.576 80.016C146.544 79.888 146.528 79.632 146.528 79.248V79.224C146.528 78.824 146.552 78.568 146.6 78.456C146.664 78.312 146.832 78.224 147.104 78.192C147.28 78.16 147.728 78.144 148.448 78.144C148.496 78.144 148.536 78.144 148.568 78.144C148.6 78.144 148.64 78.144 148.688 78.144C149.408 78.144 149.864 78.16 150.056 78.192C150.328 78.224 150.496 78.312 150.56 78.456C150.608 78.568 150.632 78.824 150.632 79.224V79.272C150.632 79.656 150.608 79.912 150.56 80.04C150.528 80.152 150.44 80.248 150.296 80.328ZM137.84 80.4C137.152 80.4 136.72 80.384 136.544 80.352C136.288 80.32 136.128 80.232 136.064 80.088C136.016 79.992 135.992 79.744 135.992 79.344C135.992 79.312 135.992 79.28 135.992 79.248V79.224C135.992 78.824 136.016 78.568 136.064 78.456C136.128 78.312 136.304 78.224 136.592 78.192C136.784 78.16 137.248 78.144 137.984 78.144C138.72 78.144 139.184 78.16 139.376 78.192C139.648 78.224 139.816 78.312 139.88 78.456C139.928 78.568 139.952 78.824 139.952 79.224V79.272C139.952 79.64 139.928 79.888 139.88 80.016C139.848 80.144 139.76 80.24 139.616 80.304C139.52 80.368 138.968 80.4 137.96 80.4C137.928 80.4 137.888 80.4 137.84 80.4ZM171.128 97.872C171.32 97.984 171.648 97.992 172.112 97.896C172.592 97.8 172.912 97.656 173.072 97.464C173.136 97.384 173.16 97.2 173.144 96.912C173.144 96.896 173.144 96.872 173.144 96.84C173.112 96.488 173.128 96.264 173.192 96.168C173.272 96.04 173.48 95.96 173.816 95.928C174.072 95.912 174.664 95.904 175.592 95.904C175.672 95.904 175.736 95.904 175.784 95.904C175.864 95.904 175.984 95.904 176.144 95.904C177.024 95.904 177.584 95.912 177.824 95.928C178.16 95.96 178.368 96.04 178.448 96.168C178.496 96.264 178.504 96.48 178.472 96.816C178.472 96.864 178.472 96.904 178.472 96.936C178.456 97.24 178.456 97.44 178.472 97.536C178.504 97.648 178.568 97.728 178.664 97.776C178.808 97.84 179.056 97.84 179.408 97.776C179.76 97.728 180.072 97.64 180.344 97.512C180.376 97.496 180.408 97.48 180.44 97.464C180.664 97.368 180.784 97.256 180.8 97.128C180.832 97 180.832 96.592 180.8 95.904C180.8 95.808 180.8 95.728 180.8 95.664C180.752 94.816 180.728 93.52 180.728 91.776C180.728 90.464 180.744 89.696 180.776 89.472C180.808 89.232 180.936 89.064 181.16 88.968C181.72 88.728 181.392 88.2 180.176 87.384L180.152 87.36C179.848 87.152 179.64 87.064 179.528 87.096C179.432 87.112 179.232 87.296 178.928 87.648C178.88 87.696 178.848 87.728 178.832 87.744C178.816 87.76 178.792 87.792 178.76 87.84C178.568 88.064 178.368 88.192 178.16 88.224C177.968 88.256 177.352 88.272 176.312 88.272C176.056 88.272 175.856 88.272 175.712 88.272C174.496 88.256 173.736 88.232 173.432 88.2C173.144 88.152 172.696 88.008 172.088 87.768C171.992 87.736 171.872 87.688 171.728 87.624C171.264 87.432 170.992 87.352 170.912 87.384C170.848 87.4 170.832 87.568 170.864 87.888C170.88 88 170.888 88.08 170.888 88.128C170.984 89.104 171.04 90.568 171.056 92.52C171.072 94.472 171.04 95.904 170.96 96.816C170.928 97.216 170.92 97.472 170.936 97.584C170.952 97.712 171.016 97.808 171.128 97.872ZM160.4 97.584C160.448 97.664 160.552 97.672 160.712 97.608C160.872 97.56 161.208 97.392 161.72 97.104C163.16 96.304 164.44 95.248 165.56 93.936C165.88 93.552 166.096 93.336 166.208 93.288C166.32 93.224 166.456 93.272 166.616 93.432C166.792 93.592 167.016 93.92 167.288 94.416C167.576 94.912 167.784 95.344 167.912 95.712C167.992 95.952 168.176 96.104 168.464 96.168C168.768 96.248 169.032 96.2 169.256 96.024C169.72 95.656 169.84 95.08 169.616 94.296C169.408 93.496 168.912 92.704 168.128 91.92C167.744 91.536 167.536 91.272 167.504 91.128C167.472 90.968 167.56 90.624 167.768 90.096C167.784 90.048 167.8 90.008 167.816 89.976C168.264 88.808 168.616 87.496 168.872 86.04C169.016 85.272 169.112 84.792 169.16 84.6C169.24 84.312 169.28 84 169.28 83.664C169.28 83.328 169.312 83.088 169.376 82.944C169.456 82.8 169.624 82.672 169.88 82.56C170.104 82.448 170.2 82.344 170.168 82.248C170.152 82.136 169.968 81.904 169.616 81.552C169.024 80.96 168.624 80.632 168.416 80.568C168.208 80.504 167.952 80.64 167.648 80.976C167.232 81.424 166.736 81.672 166.16 81.72C165.584 81.752 165.304 81.56 165.32 81.144C165.336 80.648 165.488 79.832 165.776 78.696C166.08 77.56 166.304 76.952 166.448 76.872C166.544 76.792 166.632 76.736 166.712 76.704C166.84 76.592 166.76 76.472 166.472 76.344C166.2 76.232 165.64 76.072 164.792 75.864C164.392 75.752 164.16 75.712 164.096 75.744C164.032 75.776 164 75.944 164 76.248V76.296C164 76.92 163.904 77.84 163.712 79.056C163.52 80.256 163.36 81 163.232 81.288C163.136 81.464 162.856 81.584 162.392 81.648C161.944 81.696 161.384 81.664 160.712 81.552C160.472 81.52 160.344 81.528 160.328 81.576C160.312 81.624 160.384 81.8 160.544 82.104C160.56 82.136 160.584 82.184 160.616 82.248C160.712 82.44 160.784 82.552 160.832 82.584C160.896 82.6 161.04 82.576 161.264 82.512C161.328 82.496 161.376 82.48 161.408 82.464C162.256 82.224 162.744 82.296 162.872 82.68C162.92 82.808 162.72 83.792 162.272 85.632C161.824 87.488 161.4 89.064 161 90.36C160.824 90.904 160.768 91.232 160.832 91.344C160.896 91.44 161.2 91.496 161.744 91.512C162.144 91.512 162.408 91.472 162.536 91.392C162.68 91.312 162.792 91.12 162.872 90.816C162.984 90.368 163.144 90.152 163.352 90.168C163.56 90.168 163.904 90.392 164.384 90.84C164.768 91.208 164.976 91.488 165.008 91.68C165.056 91.856 164.968 92.152 164.744 92.568C164.312 93.416 163.736 94.256 163.016 95.088C162.296 95.904 161.552 96.584 160.784 97.128C160.56 97.288 160.432 97.384 160.4 97.416C160.368 97.464 160.368 97.52 160.4 97.584ZM178.184 95.16C178.056 95.224 177.264 95.248 175.808 95.232C174.368 95.232 173.576 95.2 173.432 95.136C173.272 95.056 173.176 94.888 173.144 94.632C173.128 94.376 173.12 93.528 173.12 92.088C173.12 91.848 173.12 91.528 173.12 91.128C173.104 90.312 173.12 89.792 173.168 89.568C173.232 89.264 173.392 89.072 173.648 88.992C173.84 88.944 174.28 88.928 174.968 88.944C175.32 88.944 175.6 88.944 175.808 88.944C176.016 88.944 176.296 88.944 176.648 88.944C177.352 88.928 177.8 88.944 177.992 88.992C178.248 89.072 178.408 89.264 178.472 89.568C178.52 89.792 178.536 90.312 178.52 91.128C178.52 91.528 178.52 91.848 178.52 92.088C178.52 93.544 178.504 94.4 178.472 94.656C178.456 94.912 178.36 95.08 178.184 95.16ZM165.656 90.024C165.56 90.072 165.464 90.088 165.368 90.072C165.288 90.04 165.032 89.952 164.6 89.808C164.472 89.76 164.376 89.72 164.312 89.688C164.28 89.672 164.224 89.656 164.144 89.64C163.84 89.528 163.656 89.424 163.592 89.328C163.496 89.216 163.472 88.992 163.52 88.656C163.552 88.416 163.68 87.864 163.904 87C163.952 86.776 163.992 86.608 164.024 86.496C164.392 84.912 164.64 83.896 164.768 83.448C164.88 82.92 165 82.608 165.128 82.512C165.256 82.4 165.56 82.336 166.04 82.32C166.472 82.304 166.76 82.336 166.904 82.416C167.064 82.512 167.152 82.728 167.168 83.064C167.168 83.336 167.12 83.88 167.024 84.696C166.848 86.152 166.624 87.384 166.352 88.392C166.096 89.4 165.864 89.944 165.656 90.024ZM180.656 86.448C181.04 86.576 181.368 86.48 181.64 86.16C181.912 85.824 182.024 85.392 181.976 84.864C181.912 84 181.504 83.152 180.752 82.32C180.016 81.472 179.032 80.728 177.8 80.088C177.432 79.912 177.216 79.856 177.152 79.92C177.104 79.968 177.192 80.152 177.416 80.472C177.768 80.984 178.096 81.512 178.4 82.056C178.72 82.584 178.88 82.912 178.88 83.04C178.88 83.2 178.84 83.304 178.76 83.352C178.648 83.416 178.392 83.464 177.992 83.496C177.688 83.528 177.008 83.568 175.952 83.616H175.88C174.888 83.664 174.24 83.68 173.936 83.664C173.552 83.648 173.344 83.576 173.312 83.448C173.28 83.336 173.368 83.112 173.576 82.776C174.472 81.208 175.248 79.712 175.904 78.288C176.24 77.568 176.512 77.152 176.72 77.04C176.992 76.912 176.984 76.768 176.696 76.608C176.424 76.432 175.792 76.2 174.8 75.912C174.768 75.896 174.728 75.888 174.68 75.888C174.216 75.744 173.944 75.68 173.864 75.696C173.784 75.712 173.736 75.832 173.72 76.056C173.72 76.104 173.72 76.136 173.72 76.152C173.608 77.96 173.224 80.088 172.568 82.536C172.408 83.176 172.216 83.56 171.992 83.688C171.768 83.8 171.168 83.856 170.192 83.856C170.176 83.856 170.152 83.856 170.12 83.856C169.8 83.856 169.624 83.896 169.592 83.976C169.576 84.056 169.648 84.352 169.808 84.864C169.824 84.928 169.84 84.984 169.856 85.032C169.904 85.192 169.976 85.416 170.072 85.704C170.12 85.88 170.152 85.992 170.168 86.04C170.248 86.28 170.312 86.416 170.36 86.448C170.424 86.464 170.544 86.392 170.72 86.232C170.864 86.104 171.04 86.008 171.248 85.944C171.472 85.864 171.944 85.744 172.664 85.584C174.488 85.184 176.12 84.8 177.56 84.432C178.52 84.176 179.128 84.128 179.384 84.288C179.64 84.432 179.848 84.952 180.008 85.848C180.056 86.12 180.272 86.32 180.656 86.448ZM190.328 97.968C190.376 98.016 190.432 98.024 190.496 97.992C190.528 97.992 190.608 97.976 190.736 97.944C190.816 97.928 190.872 97.92 190.904 97.92C191.912 97.744 192.544 97.232 192.8 96.384C192.848 96.176 192.88 94.672 192.896 91.872C192.896 91.664 192.896 91.368 192.896 90.984C192.912 89.224 192.928 88.192 192.944 87.888C192.96 87.568 193.032 87.36 193.16 87.264L193.208 87.216C193.24 87.184 193.512 86.976 194.024 86.592C194.168 86.496 194.288 86.408 194.384 86.328L194.432 86.304C194.928 85.952 195.216 85.736 195.296 85.656C195.392 85.56 195.432 85.48 195.416 85.416C195.384 85.368 195.32 85.36 195.224 85.392C195.128 85.408 194.872 85.488 194.456 85.632C194.424 85.648 194.384 85.664 194.336 85.68C193.808 85.872 193.472 85.976 193.328 85.992C193.136 85.992 193.016 85.856 192.968 85.584C192.936 85.392 192.912 84.92 192.896 84.168C192.896 84.088 192.896 84.024 192.896 83.976C192.896 83.848 192.896 83.672 192.896 83.448C192.896 82.6 192.944 82.104 193.04 81.96C193.136 81.816 193.488 81.744 194.096 81.744C194.24 81.744 194.352 81.744 194.432 81.744C195.296 81.728 195.784 81.656 195.896 81.528C196.008 81.384 195.856 81.048 195.44 80.52C194.96 79.912 194.624 79.584 194.432 79.536C194.256 79.472 194.056 79.632 193.832 80.016C193.464 80.64 193.216 80.88 193.088 80.736C192.96 80.592 192.896 80 192.896 78.96C192.896 78.128 192.912 77.624 192.944 77.448C192.976 77.272 193.08 77.104 193.256 76.944C193.448 76.752 193.408 76.584 193.136 76.44C192.864 76.28 192.24 76.08 191.264 75.84C190.928 75.744 190.736 75.712 190.688 75.744C190.64 75.776 190.632 75.928 190.664 76.2V76.248C190.776 77.048 190.84 77.984 190.856 79.056C190.872 80.112 190.84 80.696 190.76 80.808C190.648 80.952 190.432 81.032 190.112 81.048C189.808 81.064 189.24 81.032 188.408 80.952C188.248 80.936 188.16 80.952 188.144 81C188.144 81.048 188.216 81.224 188.36 81.528C188.488 81.784 188.576 81.936 188.624 81.984C188.688 82.016 188.784 82.008 188.912 81.96C189.328 81.8 189.72 81.728 190.088 81.744C190.472 81.76 190.712 81.864 190.808 82.056C190.872 82.184 190.896 82.952 190.88 84.36C190.88 85.768 190.848 86.536 190.784 86.664C190.672 86.936 189.944 87.256 188.6 87.624C188.584 87.624 188.552 87.632 188.504 87.648C188.328 87.696 188.24 87.768 188.24 87.864C188.24 87.96 188.328 88.256 188.504 88.752C188.552 88.848 188.584 88.92 188.6 88.968C188.872 89.688 189.048 90.096 189.128 90.192C189.208 90.272 189.32 90.168 189.464 89.88C189.624 89.592 189.872 89.384 190.208 89.256C190.56 89.128 190.768 89.168 190.832 89.376C190.864 89.52 190.88 90.496 190.88 92.304C190.88 94.112 190.856 95.064 190.808 95.16C190.728 95.336 190.56 95.448 190.304 95.496C190.064 95.544 189.608 95.536 188.936 95.472C188.552 95.44 188.336 95.448 188.288 95.496C188.16 95.656 188.232 95.76 188.504 95.808C189.064 95.952 189.464 96.144 189.704 96.384C189.96 96.64 190.128 97.032 190.208 97.56C190.24 97.784 190.28 97.92 190.328 97.968ZM200.288 97.8C200.416 97.944 200.984 97.792 201.992 97.344C203.016 96.896 203.856 96.424 204.512 95.928C204.944 95.608 205.336 95.552 205.688 95.76C206.056 95.968 206.536 96.528 207.128 97.44C207.288 97.712 207.536 97.848 207.872 97.848C208.208 97.832 208.44 97.688 208.568 97.416C208.744 97.032 208.712 96.584 208.472 96.072C208.248 95.56 207.848 95.056 207.272 94.56C206.984 94.304 206.808 94.12 206.744 94.008C206.696 93.896 206.728 93.736 206.84 93.528C207.336 92.552 207.656 91.96 207.8 91.752C207.96 91.528 208.136 91.392 208.328 91.344C208.616 91.264 208.712 91.12 208.616 90.912C208.52 90.704 208.224 90.4 207.728 90C207.328 89.664 207.064 89.496 206.936 89.496C206.824 89.48 206.608 89.624 206.288 89.928C205.952 90.248 205.576 90.44 205.16 90.504C204.744 90.568 203.928 90.56 202.712 90.48C202.104 90.432 201.744 90.408 201.632 90.408C201.52 90.408 201.464 90.44 201.464 90.504C201.464 90.616 201.424 90.656 201.344 90.624C201.264 90.592 201.16 90.504 201.032 90.36C200.904 90.2 200.744 90.08 200.552 90C200.392 89.92 200.2 89.816 199.976 89.688C199.784 89.56 199.648 89.512 199.568 89.544C199.488 89.56 199.336 89.688 199.112 89.928C198.84 90.232 198.504 90.432 198.104 90.528C197.704 90.624 197.36 90.6 197.072 90.456C196.848 90.328 196.768 89.968 196.832 89.376C196.912 88.784 197.08 88.432 197.336 88.32C197.64 88.176 197.952 88.16 198.272 88.272C198.592 88.384 198.752 88.56 198.752 88.8C198.752 89.2 199.136 89.24 199.904 88.92C200.256 88.792 200.464 88.672 200.528 88.56C200.592 88.448 200.608 88.184 200.576 87.768C200.512 86.808 200.504 86.128 200.552 85.728C200.6 85.312 200.712 85.056 200.888 84.96C201.112 84.848 201.2 84.72 201.152 84.576C201.104 84.432 200.896 84.2 200.528 83.88C200.048 83.464 199.728 83.256 199.568 83.256C199.424 83.24 199.192 83.416 198.872 83.784C198.712 83.976 198.56 84.104 198.416 84.168C198.288 84.216 198.08 84.24 197.792 84.24C197.216 84.24 196.92 84.168 196.904 84.024C196.888 83.88 197.144 83.6 197.672 83.184C199.112 82.048 200.248 80.664 201.08 79.032C201.4 78.392 201.704 78.032 201.992 77.952C202.248 77.872 202.368 77.776 202.352 77.664C202.336 77.536 202.176 77.32 201.872 77.016C201.296 76.456 200.904 76.152 200.696 76.104C200.488 76.04 200.216 76.176 199.88 76.512C199.56 76.848 199.12 77.056 198.56 77.136C198 77.2 197.144 77.168 195.992 77.04C195.688 77.008 195.52 77.016 195.488 77.064C195.456 77.096 195.512 77.24 195.656 77.496C195.672 77.528 195.688 77.56 195.704 77.592C195.848 77.848 195.952 78 196.016 78.048C196.08 78.08 196.24 78.064 196.496 78C196.56 77.984 196.608 77.976 196.64 77.976C196.928 77.912 197.328 77.864 197.84 77.832C198.352 77.8 198.68 77.8 198.824 77.832C199.176 77.912 199.24 78.232 199.016 78.792C198.856 79.24 198.696 79.496 198.536 79.56C198.392 79.624 198.152 79.544 197.816 79.32C197.56 79.144 197.208 79 196.76 78.888C196.312 78.76 195.944 78.704 195.656 78.72C195.512 78.736 195.44 78.776 195.44 78.84C195.456 78.904 195.544 79.024 195.704 79.2C196.136 79.696 196.48 80.208 196.736 80.736C196.864 80.976 196.976 81.12 197.072 81.168C197.44 81.328 197.368 81.744 196.856 82.416C196.36 83.072 195.6 83.744 194.576 84.432C194.336 84.592 194.192 84.704 194.144 84.768C194.096 84.832 194.104 84.904 194.168 84.984C194.232 85.032 194.504 84.952 194.984 84.744C195.24 84.632 195.416 84.576 195.512 84.576C195.592 84.576 195.68 84.6 195.776 84.648C195.872 84.68 195.92 84.712 195.92 84.744C195.92 84.808 195.992 84.856 196.136 84.888C196.296 84.904 196.656 84.912 197.216 84.912C197.232 84.912 197.256 84.912 197.288 84.912C198.024 84.912 198.448 84.968 198.56 85.08C198.688 85.176 198.752 85.536 198.752 86.16V86.232C198.752 87.032 198.584 87.48 198.248 87.576C197.912 87.672 197.232 87.464 196.208 86.952C196.16 86.936 196.096 86.904 196.016 86.856C195.696 86.696 195.504 86.632 195.44 86.664C195.376 86.696 195.336 86.896 195.32 87.264C195.32 87.344 195.32 87.408 195.32 87.456C195.272 88.752 195.128 90.112 194.888 91.536C194.888 91.568 194.88 91.608 194.864 91.656C194.8 92.04 194.784 92.264 194.816 92.328C194.864 92.392 195.048 92.424 195.368 92.424C195.4 92.424 195.432 92.424 195.464 92.424C195.848 92.424 196.112 92.384 196.256 92.304C196.416 92.208 196.496 92.048 196.496 91.824C196.496 91.568 196.688 91.376 197.072 91.248C197.424 91.136 197.776 91.12 198.128 91.2C198.512 91.264 198.704 91.424 198.704 91.68C198.72 92.32 198.64 93.056 198.464 93.888C198.304 94.704 198.12 95.224 197.912 95.448C197.752 95.64 197.544 95.752 197.288 95.784C197.048 95.816 196.456 95.8 195.512 95.736C195.192 95.72 195 95.76 194.936 95.856C194.888 95.936 195.008 96.016 195.296 96.096C195.76 96.224 196.128 96.416 196.4 96.672C196.688 96.928 196.832 97.224 196.832 97.56C196.832 97.688 196.856 97.776 196.904 97.824C196.968 97.888 197.184 97.88 197.552 97.8C197.936 97.736 198.264 97.648 198.536 97.536C199.08 97.28 199.488 96.808 199.76 96.12C200.048 95.432 200.272 94.336 200.432 92.832C200.496 92.224 200.552 91.848 200.6 91.704C200.664 91.544 200.808 91.416 201.032 91.32C201.176 91.272 201.288 91.192 201.368 91.08C201.432 91 201.512 90.992 201.608 91.056C201.72 91.104 201.824 91.208 201.92 91.368C201.952 91.432 202 91.464 202.064 91.464C202.112 91.464 202.296 91.44 202.616 91.392C202.664 91.376 202.696 91.368 202.712 91.368C204.904 90.936 205.84 91.168 205.52 92.064C205.36 92.528 205.192 92.824 205.016 92.952C204.856 93.064 204.592 93.064 204.224 92.952C203.072 92.616 202.376 92.44 202.136 92.424C201.912 92.392 201.784 92.416 201.752 92.496C201.72 92.576 201.8 92.672 201.992 92.784C202.44 93.04 202.872 93.336 203.288 93.672C203.704 93.992 203.936 94.216 203.984 94.344C204.08 94.632 203.76 95.104 203.024 95.76C202.304 96.416 201.488 96.976 200.576 97.44C200.304 97.584 200.208 97.704 200.288 97.8ZM200.912 90.048C201.024 90.16 201.312 90.04 201.776 89.688C202.256 89.32 202.632 88.944 202.904 88.56C203.352 87.92 203.632 86.992 203.744 85.776C203.76 85.424 203.824 85.192 203.936 85.08C204.048 84.968 204.248 84.912 204.536 84.912C204.92 84.912 205.152 85.008 205.232 85.2C205.312 85.392 205.36 85.936 205.376 86.832C205.392 87.808 205.44 88.4 205.52 88.608C205.616 88.8 205.92 88.936 206.432 89.016C206.752 89.08 207.2 89.088 207.776 89.04C208.368 88.992 208.784 88.912 209.024 88.8C209.328 88.672 209.52 88.472 209.6 88.2C209.68 87.912 209.616 87.672 209.408 87.48C209.184 87.256 209.064 86.944 209.048 86.544C209 85.872 208.848 85.872 208.592 86.544C208.448 86.928 208.248 87.192 207.992 87.336C207.736 87.48 207.48 87.464 207.224 87.288C207 87.128 206.904 86.744 206.936 86.136C206.984 85.528 207.136 85.152 207.392 85.008C207.648 84.864 207.728 84.736 207.632 84.624C207.552 84.496 207.592 84.408 207.752 84.36C207.928 84.296 208.096 84.32 208.256 84.432C208.368 84.496 208.44 84.52 208.472 84.504C208.52 84.488 208.568 84.416 208.616 84.288C208.696 84.032 208.84 83.776 209.048 83.52C209.272 83.264 209.504 83.072 209.744 82.944C209.952 82.848 210.04 82.776 210.008 82.728C209.976 82.664 209.808 82.568 209.504 82.44C208.816 82.168 208.232 81.88 207.752 81.576C207.288 81.272 207.056 81.04 207.056 80.88C207.056 80.752 207.328 80.528 207.872 80.208C208.432 79.872 208.848 79.696 209.12 79.68C209.392 79.648 209.464 79.544 209.336 79.368C209.224 79.192 208.88 78.888 208.304 78.456C208.288 78.44 208.256 78.416 208.208 78.384C208 78.224 207.864 78.152 207.8 78.168C207.736 78.168 207.64 78.288 207.512 78.528C207.48 78.592 207.456 78.64 207.44 78.672C206.944 79.552 206.576 80.056 206.336 80.184C206.096 80.296 205.768 80.128 205.352 79.68C205.08 79.376 204.984 79.144 205.064 78.984C205.144 78.824 205.488 78.56 206.096 78.192C206.192 78.144 206.312 78.072 206.456 77.976C206.952 77.688 207.28 77.536 207.44 77.52C207.664 77.488 207.712 77.4 207.584 77.256C207.472 77.096 207.136 76.824 206.576 76.44C206.544 76.424 206.504 76.392 206.456 76.344C206.184 76.152 206.008 76.072 205.928 76.104C205.864 76.136 205.736 76.336 205.544 76.704C205.496 76.816 205.456 76.896 205.424 76.944C204.976 77.856 204.632 78.296 204.392 78.264C204.152 78.232 203.768 77.704 203.24 76.68C203.064 76.328 202.936 76.12 202.856 76.056C202.792 75.976 202.72 75.976 202.64 76.056C202.592 76.104 202.6 76.232 202.664 76.44C203.272 78.648 204.168 80.472 205.352 81.912C205.752 82.408 205.984 82.72 206.048 82.848C206.112 82.976 206.096 83.096 206 83.208C205.92 83.256 205.776 83.416 205.568 83.688C205.264 84.072 204.936 84.264 204.584 84.264C204.248 84.28 203.688 84.104 202.904 83.736C202.84 83.704 202.76 83.664 202.664 83.616C202.376 83.456 202.208 83.416 202.16 83.496C202.112 83.576 202.088 83.912 202.088 84.504C202.088 84.744 202.088 84.944 202.088 85.104C202.072 86.352 202 87.272 201.872 87.864C201.744 88.456 201.48 89 201.08 89.496C200.888 89.752 200.832 89.936 200.912 90.048ZM234.536 97.104C235.32 97.824 235.776 98.024 235.904 97.704C236.032 97.384 236.24 97.088 236.528 96.816C236.816 96.56 237.128 96.376 237.464 96.264C237.672 96.2 237.76 96.136 237.728 96.072C237.712 96.008 237.544 95.88 237.224 95.688C235.768 94.872 234.488 93.84 233.384 92.592C233 92.16 232.8 91.856 232.784 91.68C232.768 91.488 232.904 91.12 233.192 90.576C234.232 88.656 234.984 86.464 235.448 84C235.496 83.76 235.568 83.376 235.664 82.848C235.728 82.432 235.824 82.176 235.952 82.08C236.08 81.984 236.376 81.92 236.84 81.888C237.448 81.856 237.744 81.736 237.728 81.528C237.712 81.32 237.368 80.928 236.696 80.352C236.104 79.84 235.728 79.584 235.568 79.584C235.408 79.568 235.168 79.792 234.848 80.256C234.816 80.304 234.776 80.36 234.728 80.424C234.44 80.824 234.2 81.056 234.008 81.12C233.832 81.184 233.328 81.216 232.496 81.216C232.384 81.216 232.296 81.216 232.232 81.216C232.168 81.216 232.08 81.216 231.968 81.216C231.296 81.216 230.872 81.2 230.696 81.168C230.456 81.12 230.336 81 230.336 80.808C230.336 80.664 230.424 80.328 230.6 79.8C230.632 79.72 230.656 79.656 230.672 79.608C230.704 79.496 230.76 79.304 230.84 79.032C231.016 78.504 231.12 78.168 231.152 78.024C231.312 77.384 231.512 76.992 231.752 76.848C232.024 76.688 232.024 76.544 231.752 76.416C231.496 76.288 230.816 76.096 229.712 75.84C229.648 75.824 229.56 75.8 229.448 75.768C229.096 75.688 228.888 75.68 228.824 75.744C228.776 75.808 228.744 76.056 228.728 76.488C228.712 76.632 228.704 76.752 228.704 76.848C228.608 78.912 228.216 81.072 227.528 83.328C227.288 84.08 227.12 84.576 227.024 84.816C226.896 85.104 226.768 85.24 226.64 85.224C226.544 85.224 226.384 85.112 226.16 84.888C225.52 84.248 225.056 83.864 224.768 83.736C224.656 83.672 224.552 83.672 224.456 83.736C224.376 83.784 224.192 83.952 223.904 84.24C223.6 84.544 223.384 84.728 223.256 84.792C223.128 84.84 222.832 84.864 222.368 84.864C221.952 84.864 221.688 84.84 221.576 84.792C221.432 84.712 221.344 84.52 221.312 84.216C221.296 84.008 221.312 83.504 221.36 82.704C221.36 82.64 221.36 82.592 221.36 82.56C221.36 82.48 221.368 82.376 221.384 82.248C221.384 81.88 221.416 81.648 221.48 81.552C221.56 81.424 221.76 81.344 222.08 81.312C222.32 81.28 222.864 81.264 223.712 81.264C224.016 81.264 224.256 81.264 224.432 81.264C225.872 81.248 226.712 81.232 226.952 81.216C227.208 81.184 227.352 81.096 227.384 80.952C227.416 80.84 227.296 80.632 227.024 80.328C226.768 80.024 226.416 79.696 225.968 79.344C225.616 79.072 225.384 78.952 225.272 78.984C225.176 79 224.984 79.216 224.696 79.632L224.648 79.68C224.328 80.144 224.04 80.44 223.784 80.568C223.528 80.696 223.24 80.696 222.92 80.568C222.648 80.456 222.52 79.864 222.536 78.792C222.552 77.72 222.696 77.088 222.968 76.896C223.192 76.752 223.152 76.6 222.848 76.44C222.56 76.28 221.944 76.088 221 75.864C220.968 75.848 220.92 75.84 220.856 75.84C220.504 75.744 220.304 75.712 220.256 75.744C220.208 75.776 220.2 75.912 220.232 76.152C220.232 76.2 220.232 76.232 220.232 76.248C220.344 77.048 220.408 77.912 220.424 78.84C220.44 79.752 220.408 80.264 220.328 80.376C220.216 80.52 219.688 80.608 218.744 80.64C217.8 80.656 216.968 80.6 216.248 80.472C216.136 80.456 216.08 80.488 216.08 80.568C216.096 80.648 216.168 80.808 216.296 81.048C216.424 81.304 216.512 81.456 216.56 81.504C216.608 81.536 216.712 81.528 216.872 81.48C217.4 81.32 217.864 81.248 218.264 81.264C218.664 81.28 218.904 81.384 218.984 81.576C219.096 81.832 219.12 82.8 219.056 84.48C219.008 86.144 218.912 87.6 218.768 88.848C218.56 90.512 218.224 92.096 217.76 93.6C217.296 95.12 216.76 96.36 216.152 97.32C215.944 97.656 215.92 97.824 216.08 97.824C216.224 97.824 216.448 97.664 216.752 97.344C217.952 96.032 218.888 94.552 219.56 92.904C220.248 91.24 220.736 89.256 221.024 86.952C221.104 86.248 221.2 85.84 221.312 85.728C221.424 85.6 221.784 85.536 222.392 85.536H222.416C223.008 85.536 223.352 85.6 223.448 85.728C223.544 85.856 223.576 86.312 223.544 87.096C223.544 87.144 223.544 87.176 223.544 87.192C223.448 91.24 223.152 93.744 222.656 94.704C222.496 95.008 222.28 95.2 222.008 95.28C221.752 95.344 221.216 95.352 220.4 95.304C219.888 95.288 219.624 95.304 219.608 95.352C219.544 95.464 219.688 95.584 220.04 95.712C220.952 96.032 221.408 96.608 221.408 97.44C221.408 97.6 221.432 97.696 221.48 97.728C221.544 97.76 221.68 97.768 221.888 97.752C222.72 97.672 223.36 97.4 223.808 96.936C224.288 96.456 224.656 95.664 224.912 94.56C225.136 93.52 225.312 92 225.44 90C225.456 89.824 225.472 89.512 225.488 89.064C225.52 88.728 225.536 88.496 225.536 88.368C225.552 88.192 225.576 87.872 225.608 87.408C225.624 87.152 225.632 86.976 225.632 86.88C225.648 86.48 225.68 86.224 225.728 86.112C225.776 85.984 225.896 85.872 226.088 85.776C226.328 85.664 226.456 85.704 226.472 85.896C226.504 86.088 226.424 86.392 226.232 86.808C226.12 87.064 226.056 87.232 226.04 87.312C226.04 87.392 226.08 87.448 226.16 87.48C226.384 87.528 226.968 86.856 227.912 85.464C228.36 84.824 228.648 84.52 228.776 84.552C228.92 84.568 229.056 84.936 229.184 85.656C229.456 87.224 229.816 88.72 230.264 90.144C230.456 90.72 230.536 91.112 230.504 91.32C230.488 91.528 230.328 91.872 230.024 92.352C228.744 94.256 227.08 95.896 225.032 97.272C224.712 97.48 224.504 97.624 224.408 97.704C224.328 97.8 224.312 97.88 224.36 97.944C224.424 97.992 224.656 97.928 225.056 97.752C227.216 96.808 229.072 95.568 230.624 94.032C231.04 93.616 231.32 93.424 231.464 93.456C231.608 93.488 231.872 93.8 232.256 94.392C232.992 95.48 233.752 96.384 234.536 97.104ZM231.632 89.112C231.248 89.512 230.704 88.552 230 86.232C229.6 84.936 229.392 84 229.376 83.424C229.36 82.832 229.52 82.392 229.856 82.104C230.064 81.928 230.64 81.848 231.584 81.864C232.528 81.88 233.064 81.976 233.192 82.152C233.368 82.424 233.232 83.568 232.784 85.584C232.336 87.6 231.952 88.776 231.632 89.112ZM264.08 97.944C264.4 98.04 264.688 97.968 264.944 97.728C265.216 97.488 265.352 97.144 265.352 96.696C265.336 96.056 265.048 95.424 264.488 94.8C263.944 94.16 263.192 93.6 262.232 93.12C261.72 92.848 261.448 92.64 261.416 92.496C261.4 92.336 261.6 92.032 262.016 91.584C262.608 90.896 263.216 90.12 263.84 89.256C264.384 88.472 264.744 88.08 264.92 88.08C265.288 88.08 265.352 87.976 265.112 87.768C264.888 87.544 264.312 87.168 263.384 86.64C262.984 86.416 262.752 86.304 262.688 86.304C262.608 86.304 262.536 86.4 262.472 86.592C261.8 88.608 260.584 90.544 258.824 92.4C257.08 94.256 254.96 95.856 252.464 97.2C252.4 97.232 252.32 97.272 252.224 97.32C251.888 97.512 251.696 97.624 251.648 97.656C251.616 97.704 251.624 97.768 251.672 97.848L251.696 97.896C251.728 97.928 251.76 97.944 251.792 97.944C251.824 97.944 251.92 97.92 252.08 97.872C252.192 97.824 252.28 97.792 252.344 97.776C254.904 96.896 257.152 95.72 259.088 94.248C259.216 94.152 259.4 94.008 259.64 93.816C259.8 93.704 259.896 93.632 259.928 93.6C260.28 93.344 260.776 93.56 261.416 94.248C262.056 94.92 262.68 95.896 263.288 97.176C263.48 97.592 263.744 97.848 264.08 97.944ZM245.096 97.968C245.288 98.032 245.592 97.992 246.008 97.848C246.44 97.72 246.72 97.576 246.848 97.416C246.912 97.304 246.936 97.104 246.92 96.816C246.888 96.32 246.936 96.024 247.064 95.928C247.208 95.816 247.616 95.76 248.288 95.76C248.944 95.76 249.336 95.8 249.464 95.88C249.592 95.944 249.656 96.16 249.656 96.528C249.656 97.2 250.152 97.296 251.144 96.816C251.176 96.8 251.216 96.784 251.264 96.768C251.52 96.64 251.664 96.504 251.696 96.36C251.728 96.232 251.728 95.84 251.696 95.184C251.696 95.104 251.696 95.04 251.696 94.992C251.632 93.184 251.624 92.056 251.672 91.608C251.72 91.16 251.888 90.848 252.176 90.672C252.432 90.528 252.512 90.368 252.416 90.192C252.336 90 252.032 89.688 251.504 89.256C251.008 88.84 250.688 88.632 250.544 88.632C250.4 88.632 250.168 88.848 249.848 89.28C249.656 89.552 249.48 89.72 249.32 89.784C249.16 89.832 248.76 89.856 248.12 89.856C248.088 89.856 248.04 89.856 247.976 89.856C247.464 89.856 247.12 89.84 246.944 89.808C246.784 89.76 246.44 89.624 245.912 89.4C245.832 89.368 245.768 89.344 245.72 89.328C245.64 89.296 245.544 89.256 245.432 89.208C245.032 89.032 244.8 88.968 244.736 89.016C244.688 89.048 244.688 89.264 244.736 89.664C244.752 89.776 244.76 89.864 244.76 89.928C244.968 92.296 244.992 94.6 244.832 96.84C244.8 97.272 244.8 97.552 244.832 97.68C244.864 97.824 244.952 97.92 245.096 97.968ZM248.12 95.088C247.656 95.088 247.368 95.064 247.256 95.016C247.08 94.952 246.976 94.784 246.944 94.512C246.912 94.32 246.896 93.856 246.896 93.12C246.896 92.992 246.896 92.888 246.896 92.808C246.896 92.728 246.896 92.624 246.896 92.496C246.896 91.76 246.912 91.296 246.944 91.104C246.976 90.832 247.08 90.664 247.256 90.6C247.368 90.552 247.648 90.528 248.096 90.528C248.176 90.528 248.24 90.528 248.288 90.528C248.336 90.528 248.4 90.528 248.48 90.528C248.944 90.528 249.232 90.552 249.344 90.6C249.52 90.664 249.624 90.832 249.656 91.104C249.688 91.296 249.704 91.76 249.704 92.496C249.704 92.624 249.704 92.728 249.704 92.808C249.704 93.832 249.688 94.44 249.656 94.632C249.64 94.808 249.544 94.936 249.368 95.016C249.256 95.064 248.904 95.088 248.312 95.088C248.264 95.088 248.2 95.088 248.12 95.088ZM252.776 92.592C252.824 92.672 252.896 92.696 252.992 92.664C253.104 92.632 253.352 92.512 253.736 92.304C257.16 90.528 260.024 88.024 262.328 84.792C262.76 84.168 263.048 83.856 263.192 83.856C263.512 83.856 263.64 83.784 263.576 83.64C263.528 83.496 263.304 83.32 262.904 83.112C262.84 83.08 262.736 83.016 262.592 82.92C262.192 82.696 261.912 82.536 261.752 82.44C261.432 82.232 261.232 82.112 261.152 82.08C261.072 82.032 261.016 82.048 260.984 82.128C260.376 83.904 259.352 85.704 257.912 87.528C256.488 89.352 254.888 90.88 253.112 92.112C252.92 92.24 252.808 92.336 252.776 92.4C252.744 92.448 252.744 92.512 252.776 92.592ZM255.752 87.528C256.2 87.688 256.552 87.656 256.808 87.432C257.08 87.192 257.2 86.848 257.168 86.4C257.152 85.936 256.96 85.472 256.592 85.008L256.568 84.96C256.392 84.736 256.344 84.552 256.424 84.408C256.52 84.248 256.92 83.816 257.624 83.112C257.736 83 257.816 82.92 257.864 82.872C258.856 81.896 259.408 81.392 259.52 81.36C259.92 81.248 259.92 81.08 259.52 80.856C259.168 80.664 258.992 80.512 258.992 80.4C258.992 80.288 259.136 80.224 259.424 80.208C259.712 80.192 260.664 80.176 262.28 80.16C263.88 80.144 264.816 80.128 265.088 80.112C265.36 80.08 265.536 80 265.616 79.872C265.728 79.664 265.304 79.168 264.344 78.384C263.912 78.016 263.632 77.84 263.504 77.856C263.376 77.872 263.152 78.112 262.832 78.576C262.528 79.008 262.288 79.272 262.112 79.368C261.952 79.448 261.616 79.488 261.104 79.488C260.512 79.488 260.16 79.432 260.048 79.32C259.936 79.208 259.88 78.872 259.88 78.312C259.88 77.896 259.896 77.624 259.928 77.496C259.976 77.368 260.088 77.224 260.264 77.064C260.472 76.888 260.448 76.728 260.192 76.584C259.936 76.44 259.312 76.24 258.32 75.984C257.936 75.888 257.712 75.856 257.648 75.888C257.584 75.904 257.568 76.008 257.6 76.2V76.248C257.68 76.904 257.72 77.544 257.72 78.168C257.72 78.792 257.68 79.16 257.6 79.272C257.488 79.4 256.952 79.472 255.992 79.488C255.032 79.504 253.984 79.456 252.848 79.344C252.624 79.312 252.48 79.312 252.416 79.344C252.368 79.36 252.368 79.416 252.416 79.512C252.48 79.64 252.44 79.712 252.296 79.728C252.136 79.728 251.96 79.656 251.768 79.512L251.744 79.488C251.344 79.2 251.08 79.072 250.952 79.104C250.824 79.12 250.6 79.36 250.28 79.824C250.248 79.872 250.224 79.904 250.208 79.92C250.192 79.936 250.176 79.96 250.16 79.992C249.968 80.264 249.76 80.424 249.536 80.472C249.328 80.504 248.672 80.504 247.568 80.472C247.424 80.472 247.32 80.472 247.256 80.472C246.024 80.472 245.072 80.448 244.4 80.4C244.032 80.368 243.824 80.376 243.776 80.424C243.744 80.456 243.808 80.608 243.968 80.88L243.992 80.928C244.008 80.944 244.024 80.976 244.04 81.024C244.152 81.248 244.248 81.376 244.328 81.408C244.408 81.424 244.624 81.4 244.976 81.336C245.04 81.32 245.088 81.312 245.12 81.312C245.408 81.248 245.728 81.216 246.08 81.216C246.416 81.2 247.416 81.184 249.08 81.168H249.128C251.384 81.152 252.56 81.12 252.656 81.072C252.72 81.04 252.776 80.984 252.824 80.904C252.888 80.824 252.904 80.768 252.872 80.736C252.776 80.592 253 80.464 253.544 80.352C254.104 80.24 254.808 80.184 255.656 80.184H255.68C256.272 80.184 256.632 80.216 256.76 80.28C256.936 80.376 256.976 80.6 256.88 80.952C256.8 81.208 256.552 81.824 256.136 82.8L256.112 82.848C255.856 83.424 255.648 83.76 255.488 83.856C255.328 83.936 255 83.888 254.504 83.712C253.64 83.408 253.072 83.272 252.8 83.304C252.528 83.32 252.592 83.504 252.992 83.856C253.888 84.624 254.616 85.576 255.176 86.712C255.352 87.064 255.464 87.28 255.512 87.36C255.576 87.44 255.656 87.496 255.752 87.528ZM245.36 87.624C245.424 87.64 245.464 87.648 245.48 87.648C245.496 87.632 245.528 87.616 245.576 87.6C245.96 87.488 246.296 87.424 246.584 87.408C246.872 87.392 247.696 87.376 249.056 87.36C250.48 87.344 251.312 87.328 251.552 87.312C251.808 87.28 251.968 87.192 252.032 87.048C252.08 86.952 251.984 86.768 251.744 86.496C251.52 86.224 251.224 85.936 250.856 85.632C250.568 85.408 250.368 85.312 250.256 85.344C250.144 85.36 249.976 85.528 249.752 85.848C249.432 86.312 249.176 86.576 248.984 86.64C248.872 86.688 248.376 86.704 247.496 86.688C246.616 86.672 245.84 86.632 245.168 86.568C244.944 86.552 244.832 86.568 244.832 86.616C244.832 86.664 244.904 86.84 245.048 87.144C245.208 87.432 245.304 87.592 245.336 87.624H245.36ZM245.36 84.504C245.424 84.52 245.464 84.528 245.48 84.528C245.496 84.512 245.528 84.496 245.576 84.48C245.96 84.368 246.296 84.304 246.584 84.288C246.872 84.272 247.696 84.256 249.056 84.24C250.48 84.224 251.312 84.208 251.552 84.192C251.808 84.16 251.968 84.088 252.032 83.976C252.096 83.864 251.976 83.64 251.672 83.304C251.368 82.952 251.04 82.656 250.688 82.416C250.464 82.272 250.296 82.224 250.184 82.272C250.088 82.304 249.912 82.496 249.656 82.848C249.4 83.216 249.176 83.44 248.984 83.52C248.872 83.568 248.376 83.584 247.496 83.568C246.616 83.552 245.84 83.512 245.168 83.448C244.944 83.432 244.832 83.448 244.832 83.496C244.832 83.544 244.904 83.72 245.048 84.024C245.208 84.312 245.304 84.472 245.336 84.504H245.36ZM245.408 78.408C245.488 78.424 245.736 78.4 246.152 78.336C246.248 78.336 246.328 78.328 246.392 78.312C247.24 78.2 248.376 78.144 249.8 78.144C251.112 78.144 251.824 78.048 251.936 77.856C252.064 77.648 251.688 77.192 250.808 76.488C250.44 76.184 250.192 76.04 250.064 76.056C249.952 76.056 249.776 76.224 249.536 76.56C249.184 77.056 248.808 77.344 248.408 77.424C248.024 77.504 247.128 77.488 245.72 77.376C245.704 77.376 245.68 77.376 245.648 77.376C245.264 77.344 245.048 77.32 245 77.304C244.888 77.304 244.84 77.344 244.856 77.424C244.872 77.488 244.944 77.664 245.072 77.952C245.088 77.984 245.112 78.04 245.144 78.12C245.24 78.296 245.328 78.392 245.408 78.408ZM273.392 97.92C273.808 98.016 274.24 97.952 274.688 97.728C275.136 97.504 275.36 97.24 275.36 96.936C275.36 96.552 275.456 96.296 275.648 96.168C275.76 96.088 278.016 96.04 282.416 96.024C286.832 96.024 289.104 96.056 289.232 96.12C289.456 96.232 289.544 96.52 289.496 96.984C289.48 97.32 289.504 97.536 289.568 97.632C289.632 97.728 289.768 97.776 289.976 97.776C290.216 97.776 290.536 97.696 290.936 97.536C291.352 97.392 291.64 97.24 291.8 97.08C291.88 97.016 291.92 96.96 291.92 96.912C291.936 96.864 291.928 96.712 291.896 96.456C291.8 94.952 291.752 92.168 291.752 88.104C291.752 87.896 291.752 87.6 291.752 87.216C291.752 85.488 291.752 84.384 291.752 83.904C291.768 83.264 291.8 82.848 291.848 82.656C291.88 82.528 291.952 82.432 292.064 82.368C292.112 82.352 292.144 82.336 292.16 82.32C292.416 82.16 292.552 82.048 292.568 81.984C292.6 81.904 292.552 81.776 292.424 81.6C292.04 81.168 291.552 80.768 290.96 80.4C290.72 80.224 290.552 80.144 290.456 80.16C290.36 80.176 290.224 80.288 290.048 80.496C290.016 80.528 289.984 80.568 289.952 80.616C289.616 80.984 289.368 81.2 289.208 81.264C289.064 81.328 288.672 81.36 288.032 81.36C287.936 81.36 287.864 81.36 287.816 81.36C287.736 81.36 287.624 81.36 287.48 81.36C286.808 81.36 286.416 81.296 286.304 81.168C286.208 81.024 286.16 80.544 286.16 79.728C286.16 79.52 286.16 79.36 286.16 79.248C286.176 78.336 286.2 77.792 286.232 77.616C286.264 77.44 286.36 77.296 286.52 77.184C286.76 77.024 286.728 76.864 286.424 76.704C286.136 76.544 285.504 76.344 284.528 76.104C284.496 76.088 284.448 76.08 284.384 76.08C284.048 75.984 283.856 75.952 283.808 75.984C283.76 76.016 283.752 76.152 283.784 76.392C283.784 76.44 283.784 76.472 283.784 76.488C283.88 77.224 283.944 78.256 283.976 79.584C283.976 79.648 283.976 79.744 283.976 79.872C284.008 80.624 283.968 81.064 283.856 81.192C283.744 81.304 283.336 81.36 282.632 81.36C282.536 81.36 282.456 81.36 282.392 81.36C282.312 81.36 282.208 81.36 282.08 81.36C281.424 81.36 281.04 81.296 280.928 81.168C280.832 81.04 280.784 80.568 280.784 79.752C280.784 79.592 280.784 79.464 280.784 79.368C280.784 78.472 280.8 77.936 280.832 77.76C280.864 77.568 280.96 77.392 281.12 77.232C281.344 77.024 281.336 76.848 281.096 76.704C280.856 76.56 280.232 76.36 279.224 76.104C279.176 76.088 279.12 76.072 279.056 76.056C278.736 75.976 278.552 75.96 278.504 76.008C278.456 76.04 278.448 76.2 278.48 76.488C278.496 76.552 278.504 76.6 278.504 76.632C278.616 77.528 278.68 78.56 278.696 79.728C278.696 79.76 278.696 79.8 278.696 79.848C278.728 80.6 278.672 81.04 278.528 81.168C278.4 81.296 277.928 81.36 277.112 81.36C277.048 81.36 277 81.36 276.968 81.36C276.904 81.36 276.808 81.36 276.68 81.36C276.12 81.36 275.744 81.344 275.552 81.312C275.36 81.264 274.968 81.112 274.376 80.856C274.248 80.808 274.152 80.768 274.088 80.736C273.432 80.448 273.072 80.304 273.008 80.304C272.976 80.304 272.96 80.368 272.96 80.496C272.976 80.624 273.016 81.048 273.08 81.768C273.176 82.648 273.216 84.92 273.2 88.584C273.184 92.216 273.128 94.792 273.032 96.312C272.984 96.888 272.96 97.272 272.96 97.464C272.96 97.544 273.008 97.632 273.104 97.728C273.2 97.824 273.296 97.888 273.392 97.92ZM289.208 95.304C289.096 95.368 288.648 95.392 287.864 95.376C287.08 95.376 286.608 95.344 286.448 95.28C286.304 95.2 286.216 95.024 286.184 94.752C286.168 94.48 286.16 93.584 286.16 92.064C286.16 91.856 286.16 91.576 286.16 91.224C286.16 90.296 286.176 89.712 286.208 89.472C286.24 89.12 286.344 88.904 286.52 88.824C286.648 88.76 286.944 88.736 287.408 88.752C287.584 88.752 287.728 88.752 287.84 88.752C287.952 88.752 288.096 88.752 288.272 88.752C288.752 88.736 289.056 88.76 289.184 88.824C289.36 88.904 289.464 89.12 289.496 89.472C289.528 89.712 289.544 90.296 289.544 91.224C289.544 91.576 289.544 91.856 289.544 92.064C289.544 92.192 289.544 92.376 289.544 92.616C289.544 93.88 289.528 94.624 289.496 94.848C289.48 95.072 289.384 95.224 289.208 95.304ZM281.984 95.376C281.536 95.392 281.248 95.368 281.12 95.304C280.96 95.224 280.856 95.016 280.808 94.68C280.792 94.424 280.784 93.84 280.784 92.928C280.784 92.56 280.784 92.272 280.784 92.064C280.784 91.856 280.784 91.568 280.784 91.2C280.784 90.288 280.792 89.704 280.808 89.448C280.856 89.112 280.96 88.904 281.12 88.824C281.248 88.76 281.536 88.736 281.984 88.752C282.16 88.752 282.296 88.752 282.392 88.752C282.488 88.752 282.624 88.752 282.8 88.752C283.248 88.736 283.536 88.76 283.664 88.824C283.824 88.904 283.928 89.112 283.976 89.448C283.992 89.704 284 90.288 284 91.2C284 91.568 284 91.856 284 92.064C284 93.584 283.984 94.48 283.952 94.752C283.936 95.024 283.84 95.2 283.664 95.28C283.568 95.344 283.144 95.376 282.392 95.376C282.296 95.376 282.16 95.376 281.984 95.376ZM277.04 95.376C276.272 95.392 275.824 95.36 275.696 95.28C275.536 95.216 275.44 95.072 275.408 94.848C275.392 94.624 275.384 93.88 275.384 92.616C275.384 92.376 275.384 92.192 275.384 92.064C275.384 91.856 275.384 91.576 275.384 91.224C275.384 90.296 275.4 89.712 275.432 89.472C275.464 89.12 275.568 88.904 275.744 88.824C275.872 88.76 276.16 88.736 276.608 88.752C276.8 88.752 276.944 88.752 277.04 88.752C277.136 88.752 277.28 88.752 277.472 88.752C277.92 88.736 278.208 88.76 278.336 88.824C278.512 88.904 278.616 89.12 278.648 89.472C278.68 89.712 278.696 90.296 278.696 91.224C278.696 91.576 278.696 91.856 278.696 92.064C278.696 93.6 278.68 94.504 278.648 94.776C278.632 95.048 278.536 95.224 278.36 95.304C278.232 95.352 277.792 95.376 277.04 95.376ZM277.04 88.104C276.24 88.104 275.776 88.056 275.648 87.96C275.504 87.88 275.416 87.712 275.384 87.456C275.368 87.184 275.36 86.352 275.36 84.96C275.36 84.8 275.36 84.584 275.36 84.312C275.36 83.464 275.376 82.928 275.408 82.704C275.456 82.384 275.568 82.184 275.744 82.104C275.872 82.056 276.176 82.032 276.656 82.032C276.816 82.032 276.944 82.032 277.04 82.032C277.136 82.032 277.264 82.032 277.424 82.032C277.904 82.032 278.208 82.056 278.336 82.104C278.512 82.184 278.624 82.384 278.672 82.704C278.704 82.928 278.72 83.464 278.72 84.312C278.72 84.584 278.72 84.8 278.72 84.96C278.72 86.352 278.704 87.184 278.672 87.456C278.656 87.712 278.576 87.88 278.432 87.96C278.32 88.056 277.856 88.104 277.04 88.104ZM283.712 88.008C283.616 88.072 283.176 88.104 282.392 88.104C281.608 88.088 281.168 88.048 281.072 87.984C280.928 87.904 280.84 87.744 280.808 87.504C280.792 87.264 280.784 86.456 280.784 85.08C280.784 84.904 280.784 84.672 280.784 84.384C280.784 83.504 280.8 82.944 280.832 82.704C280.864 82.384 280.968 82.184 281.144 82.104C281.256 82.04 281.544 82.016 282.008 82.032C282.168 82.032 282.296 82.032 282.392 82.032C282.488 82.032 282.616 82.032 282.776 82.032C283.24 82.016 283.528 82.04 283.64 82.104C283.816 82.184 283.92 82.384 283.952 82.704C283.984 82.944 284 83.504 284 84.384C284 84.672 284 84.904 284 85.08C284 86.456 283.984 87.272 283.952 87.528C283.936 87.768 283.856 87.928 283.712 88.008ZM287.864 88.08C287.032 88.096 286.56 88.064 286.448 87.984C286.304 87.904 286.216 87.744 286.184 87.504C286.168 87.264 286.16 86.456 286.16 85.08C286.16 84.888 286.16 84.632 286.16 84.312C286.16 83.464 286.176 82.928 286.208 82.704C286.24 82.384 286.344 82.184 286.52 82.104C286.648 82.04 286.952 82.016 287.432 82.032C287.608 82.032 287.744 82.032 287.84 82.032C287.936 82.032 288.08 82.032 288.272 82.032C288.752 82.016 289.056 82.04 289.184 82.104C289.36 82.168 289.472 82.36 289.52 82.68C289.552 82.888 289.568 83.408 289.568 84.24C289.568 84.544 289.568 84.784 289.568 84.96C289.568 86.352 289.552 87.184 289.52 87.456C289.504 87.712 289.424 87.88 289.28 87.96C289.168 88.04 288.696 88.08 287.864 88.08ZM35.984 122.016C36.208 122.064 36.536 122.024 36.968 121.896C37.4 121.784 37.688 121.648 37.832 121.488C37.88 121.424 37.888 120.96 37.856 120.096C37.84 119.888 37.824 119.608 37.808 119.256C37.76 118.168 37.76 117.48 37.808 117.192C37.856 116.792 38.024 116.544 38.312 116.448C38.52 116.368 39.008 116.336 39.776 116.352C40.016 116.352 40.208 116.352 40.352 116.352C41.392 116.352 42.064 116.32 42.368 116.256C42.72 116.192 42.832 116.04 42.704 115.8C42.608 115.592 42.248 115.208 41.624 114.648C41.608 114.632 41.584 114.608 41.552 114.576C41.056 114.144 40.744 113.928 40.616 113.928C40.488 113.944 40.256 114.192 39.92 114.672C39.904 114.704 39.888 114.728 39.872 114.744C39.6 115.176 39.392 115.44 39.248 115.536C39.12 115.632 38.904 115.68 38.6 115.68C38.248 115.68 38.024 115.616 37.928 115.488C37.848 115.344 37.808 114.984 37.808 114.408C37.808 113.912 37.824 113.592 37.856 113.448C37.888 113.288 37.984 113.136 38.144 112.992C38.336 112.816 38.352 112.672 38.192 112.56C38.048 112.448 37.624 112.288 36.92 112.08C36.536 111.968 36.296 111.864 36.2 111.768C36.104 111.672 36.104 111.536 36.2 111.36C36.312 111.136 36.64 111.008 37.184 110.976C37.696 110.928 38.184 110.968 38.648 111.096C39.144 111.24 39.392 111.424 39.392 111.648C39.392 111.952 39.744 112 40.448 111.792C40.992 111.632 41.312 111.48 41.408 111.336C41.504 111.192 41.536 110.84 41.504 110.28C41.456 109.272 41.432 108.096 41.432 106.752C41.432 106.64 41.432 106.488 41.432 106.296C41.416 105.064 41.424 104.336 41.456 104.112C41.488 103.888 41.608 103.72 41.816 103.608L41.84 103.584C42.112 103.408 42.248 103.28 42.248 103.2C42.248 103.12 42.104 102.928 41.816 102.624L41.768 102.576C41.128 101.936 40.656 101.56 40.352 101.448C40.224 101.4 39.992 101.592 39.656 102.024C39.64 102.04 39.616 102.072 39.584 102.12C39.36 102.408 39.168 102.576 39.008 102.624C38.864 102.672 38.44 102.696 37.736 102.696C37.672 102.696 37.624 102.696 37.592 102.696C36.776 102.696 36.28 102.672 36.104 102.624C35.944 102.56 35.928 102.416 36.056 102.192C36.104 102.096 36.328 101.856 36.728 101.472C37.128 101.088 37.384 100.864 37.496 100.8C37.8 100.64 37.824 100.496 37.568 100.368C37.328 100.24 36.712 100.064 35.72 99.84C35.656 99.824 35.576 99.808 35.48 99.792C35.064 99.696 34.816 99.664 34.736 99.696C34.672 99.728 34.632 99.888 34.616 100.176C34.616 100.24 34.616 100.296 34.616 100.344C34.568 101.288 34.472 101.928 34.328 102.264C34.152 102.632 33.832 102.8 33.368 102.768C32.968 102.736 32.296 102.52 31.352 102.12C31.288 102.088 31.2 102.048 31.088 102C30.688 101.84 30.456 101.776 30.392 101.808C30.344 101.84 30.336 102.024 30.368 102.36C30.384 102.456 30.392 102.536 30.392 102.6C30.52 103.912 30.584 104.848 30.584 105.408C30.584 106.016 30.512 106.368 30.368 106.464C30.24 106.544 30.008 106.408 29.672 106.056C29.64 106.024 29.592 105.976 29.528 105.912C29.336 105.704 29.216 105.592 29.168 105.576C29.136 105.56 29.088 105.608 29.024 105.72C29.008 105.752 28.992 105.776 28.976 105.792C28.832 106.048 28.68 106.16 28.52 106.128C28.296 106.08 28.2 105.272 28.232 103.704C28.264 102.12 28.392 101.24 28.616 101.064C28.824 100.904 28.8 100.752 28.544 100.608C28.304 100.464 27.752 100.272 26.888 100.032C26.488 99.92 26.256 99.872 26.192 99.888C26.144 99.904 26.128 100.016 26.144 100.224C26.256 100.992 26.328 102.208 26.36 103.872C26.408 105.536 26.392 106.456 26.312 106.632C26.232 106.808 25.976 106.92 25.544 106.968C25.128 107.016 24.816 106.968 24.608 106.824C24.352 106.664 24.24 105.8 24.272 104.232C24.304 102.664 24.456 101.792 24.728 101.616C25.176 101.328 24.496 100.96 22.688 100.512C22.432 100.432 22.28 100.416 22.232 100.464C22.2 100.496 22.2 100.664 22.232 100.968C22.312 101.656 22.368 102.408 22.4 103.224C22.416 104.12 22.424 106.08 22.424 109.104C22.424 113.104 22.4 115.368 22.352 115.896C22.176 117.896 21.872 119.576 21.44 120.936C21.424 120.984 21.4 121.056 21.368 121.152C21.288 121.408 21.24 121.56 21.224 121.608C21.208 121.672 21.224 121.728 21.272 121.776C21.352 121.872 21.456 121.856 21.584 121.728C21.712 121.616 21.928 121.336 22.232 120.888C22.872 119.928 23.352 118.872 23.672 117.72C23.992 116.568 24.2 115.152 24.296 113.472C24.328 112.704 24.4 112.256 24.512 112.128C24.624 112 24.976 111.936 25.568 111.936C25.952 111.936 26.208 111.96 26.336 112.008C26.464 112.04 26.56 112.128 26.624 112.272C26.704 112.416 26.736 113.344 26.72 115.056C26.704 116.736 26.656 118.344 26.576 119.88C26.528 120.616 26.504 121.048 26.504 121.176C26.52 121.304 26.576 121.408 26.672 121.488C26.944 121.744 27.456 121.68 28.208 121.296C28.224 121.28 28.256 121.264 28.304 121.248C28.576 121.104 28.728 120.96 28.76 120.816C28.808 120.672 28.816 120.264 28.784 119.592C28.784 119.512 28.784 119.448 28.784 119.4C28.672 116.824 28.64 114.976 28.688 113.856C28.752 112.736 28.904 112.176 29.144 112.176C29.368 112.176 29.488 112.096 29.504 111.936C29.536 111.776 29.464 111.6 29.288 111.408C28.712 110.816 28.264 110.456 27.944 110.328C27.64 110.184 27.376 110.24 27.152 110.496C26.816 110.88 26.576 111.104 26.432 111.168C26.304 111.232 25.992 111.264 25.496 111.264C25.064 111.264 24.792 111.24 24.68 111.192C24.504 111.128 24.4 110.976 24.368 110.736C24.336 110.544 24.32 110.12 24.32 109.464C24.32 109.416 24.32 109.376 24.32 109.344C24.32 109.232 24.32 109.088 24.32 108.912C24.32 108.432 24.352 108.128 24.416 108C24.496 107.808 24.696 107.696 25.016 107.664C25.256 107.632 25.824 107.616 26.72 107.616C27.04 107.616 27.296 107.616 27.488 107.616C27.664 107.616 27.904 107.616 28.208 107.616C29.136 107.616 29.72 107.64 29.96 107.688C30.296 107.768 30.496 107.968 30.56 108.288C30.608 108.528 30.608 109.088 30.56 109.968C30.544 110.256 30.528 110.48 30.512 110.64C30.48 111.36 30.464 111.8 30.464 111.96C30.48 112.104 30.52 112.208 30.584 112.272C30.76 112.448 31.136 112.448 31.712 112.272C32.288 112.08 32.576 111.872 32.576 111.648C32.576 111.408 32.72 111.232 33.008 111.12C33.296 110.992 33.576 110.984 33.848 111.096C34.264 111.272 34.136 111.784 33.464 112.632C32.792 113.48 31.928 114.224 30.872 114.864C30.632 115.008 30.496 115.104 30.464 115.152C30.432 115.2 30.448 115.264 30.512 115.344C30.592 115.408 30.536 115.464 30.344 115.512C30.168 115.56 29.92 115.576 29.6 115.56H29.552C29.328 115.528 29.208 115.536 29.192 115.584C29.176 115.616 29.224 115.752 29.336 115.992C29.352 116.04 29.368 116.08 29.384 116.112C29.4 116.144 29.416 116.184 29.432 116.232C29.544 116.472 29.632 116.608 29.696 116.64C29.776 116.672 29.96 116.664 30.248 116.616C30.296 116.6 30.336 116.592 30.368 116.592C31.168 116.48 32.16 116.408 33.344 116.376C34.544 116.328 35.232 116.344 35.408 116.424C35.6 116.536 35.712 116.952 35.744 117.672C35.776 118.408 35.736 119.608 35.624 121.272C35.576 121.704 35.696 121.952 35.984 122.016ZM33.56 115.68C32.376 115.696 31.688 115.672 31.496 115.608C30.968 115.464 30.984 115.28 31.544 115.056C32.76 114.592 33.856 113.912 34.832 113.016C35.248 112.632 35.496 112.488 35.576 112.584C35.672 112.68 35.728 113.144 35.744 113.976C35.744 114.664 35.736 115.08 35.72 115.224C35.688 115.4 35.6 115.528 35.456 115.608C35.376 115.656 34.744 115.68 33.56 115.68ZM34.352 110.28C34.224 110.344 33.968 110.368 33.584 110.352C33.2 110.336 32.96 110.296 32.864 110.232C32.704 110.136 32.6 109.696 32.552 108.912C32.52 108.112 32.568 107.624 32.696 107.448C32.808 107.288 33.096 107.184 33.56 107.136C34.04 107.072 34.408 107.096 34.664 107.208C34.968 107.336 35.072 107.84 34.976 108.72C34.896 109.6 34.688 110.12 34.352 110.28ZM37.976 110.352C37.304 110.352 36.912 110.304 36.8 110.208C36.688 110.112 36.672 109.816 36.752 109.32C36.832 108.872 36.88 108.496 36.896 108.192C36.928 107.696 37.008 107.4 37.136 107.304C37.264 107.192 37.6 107.136 38.144 107.136C38.752 107.136 39.104 107.208 39.2 107.352C39.312 107.48 39.376 107.912 39.392 108.648C39.392 109.272 39.376 109.672 39.344 109.848C39.312 110.024 39.232 110.152 39.104 110.232C39.04 110.296 38.952 110.336 38.84 110.352C38.744 110.352 38.456 110.352 37.976 110.352ZM34.736 106.392C34.608 106.456 34.296 106.48 33.8 106.464C33.272 106.464 32.96 106.424 32.864 106.344C32.656 106.216 32.552 105.744 32.552 104.928C32.552 104.112 32.656 103.632 32.864 103.488C33.008 103.392 33.344 103.36 33.872 103.392C34.4 103.408 34.72 103.472 34.832 103.584C35.008 103.744 35.08 104.224 35.048 105.024C35.016 105.824 34.912 106.28 34.736 106.392ZM38.168 106.464C37.656 106.48 37.344 106.448 37.232 106.368C37.024 106.24 36.92 105.752 36.92 104.904C36.92 104.056 37.024 103.576 37.232 103.464C37.36 103.4 37.68 103.376 38.192 103.392C38.704 103.408 39.008 103.448 39.104 103.512C39.312 103.64 39.416 104.112 39.416 104.928C39.416 105.744 39.312 106.216 39.104 106.344C38.992 106.424 38.68 106.464 38.168 106.464ZM59.408 114.24C60.48 114.384 61.416 114.064 62.216 113.28C63.016 112.48 63.344 111.552 63.2 110.496C63.072 109.6 62.672 108.872 62 108.312C61.376 107.784 60.648 107.52 59.816 107.52C58.952 107.52 58.2 107.824 57.56 108.432C56.888 109.072 56.536 109.84 56.504 110.736C56.456 111.584 56.696 112.336 57.224 112.992C57.768 113.696 58.496 114.112 59.408 114.24ZM60.728 113.256C59.912 113.576 59.144 113.48 58.424 112.968C57.704 112.456 57.344 111.76 57.344 110.88C57.344 110.16 57.592 109.56 58.088 109.08C58.568 108.616 59.144 108.376 59.816 108.36C60.504 108.344 61.104 108.592 61.616 109.104C62.272 109.744 62.504 110.52 62.312 111.432C62.12 112.328 61.592 112.936 60.728 113.256Z" fill="#D6D2C7"/>
<defs>
<clipPath id="clip0">
<rect width="351.3" height="218.09" fill="white"/>
</clipPath>
</defs>
</svg>
