<?xml version="1.0" encoding="utf-8"?>
<!-- Generator: Adobe Illustrator 24.2.3, SVG Export Plug-In . SVG Version: 6.00 Build 0)  -->
<svg version="1.1" id="Layer_1" xmlns="http://www.w3.org/2000/svg" xmlns:xlink="http://www.w3.org/1999/xlink" x="0px" y="0px"
	 viewBox="0 0 352 219" style="enable-background:new 0 0 352 219;" xml:space="preserve">
<style type="text/css">
	.st0{clip-path:url(#SVGID_2_);}
	.st1{fill:none;stroke:#D6D2C7;stroke-width:1.3;stroke-miterlimit:10;stroke-dasharray:9.31,9.31;}
	.st2{fill:#D6D2C7;}
</style>
<g>
	<defs>
		<rect id="SVGID_1_" width="351.3" height="218.1"/>
	</defs>
	<clipPath id="SVGID_2_">
		<use xlink:href="#SVGID_1_"  style="overflow:visible;"/>
	</clipPath>
	<g class="st0">
		<path class="st1" d="M350.6,0.6H0.6v216.8h350V0.6z"/>
	</g>
</g>
<path class="st2" d="M34.6,43.8c0.3,0.2,0.7,0.2,1.2,0s0.7-0.5,0.7-0.8c0-0.3,0.1-0.5,0.2-0.6c0.2-0.1,0.6-0.1,1.2-0.1
	c0.6,0,1,0,1.2,0.1c0.2,0.1,0.3,0.3,0.3,0.6c0,0.3,0.2,0.4,0.5,0.4c0.3,0,0.8-0.1,1.3-0.4c0.2-0.1,0.3-0.2,0.4-0.3c0-0.1,0-0.4,0-1
	c-0.1-1.9-0.1-3.6-0.1-5.3c0-0.8,0-1.2,0.1-1.4c0.1-0.2,0.2-0.4,0.5-0.5c0.2-0.1,0.2-0.2,0.1-0.4c-0.1-0.2-0.3-0.4-0.7-0.7
	c-0.3-0.2-0.4-0.4-0.5-0.5c0-0.1,0-0.4,0-0.7c0.1-0.5-0.2-1-0.9-1.5c-0.4-0.3-0.5-0.4-0.3-0.5c0.1-0.1,0.7-0.1,1.6-0.1
	c1.1,0,1.7-0.1,1.8-0.3c0.1-0.2-0.3-0.6-1.1-1.4c-0.4-0.4-0.7-0.6-0.8-0.6c-0.1,0-0.4,0.3-0.7,0.7c-0.4,0.7-0.8,0.9-1,0.7
	c-0.1-0.1-0.1-0.2-0.1-0.3c0.1-0.1,0.2-0.4,0.5-0.9c0.7-1.1,1.3-2.1,1.7-2.9c0.2-0.5,0.4-0.8,0.5-0.9c0.1-0.2,0.3-0.3,0.4-0.3
	c0.4-0.1,0.6-0.3,0.5-0.5c-0.1-0.2-0.5-0.5-1.3-0.8c0,0-0.1,0-0.2-0.1c-0.6-0.2-0.9-0.3-1-0.3c-0.1,0-0.3,0.4-0.4,1
	c0,0.1,0,0.2,0,0.2c-0.1,0.5-0.3,0.8-0.5,0.9c-0.2,0.1-0.4,0-0.7-0.3c-0.1-0.1-0.2-0.2-0.3-0.2c-0.1,0-0.2,0.1-0.3,0.3
	c-0.6,0.8-0.9,0.8-0.9-0.1c0-0.6,0-1,0.3-1.2c0.2-0.1,0.2-0.3,0.1-0.4s-0.4-0.2-0.9-0.4c-0.8-0.2-1.2-0.4-1.4-0.4
	c-0.2,0-0.2,0.1-0.2,0.3c0,0.3,0.1,0.8,0.1,1.5c0,0.7,0,1.1,0,1.2c0,0.2-0.2,0.4-0.6,0.5c-0.3,0.1-0.8,0.1-1.3,0c-0.1,0-0.2,0-0.3,0
	c0,0,0,0.1,0,0.2c0.1,0.2,0.1,0.3-0.1,0.3c-0.2,0-0.5-0.2-0.9-0.5c-0.2-0.2-0.4-0.2-0.5-0.2c-0.1,0-0.3,0.3-0.6,0.7
	c-0.4,0.5-0.6,0.7-0.8,0.8c-0.1,0-0.7,0-1.6,0c-0.9,0-1.6-0.1-1.9-0.1c-0.4,0-0.6,0-0.6,0c0,0,0,0.2,0.2,0.5c0,0,0,0,0,0.1
	c0.1,0.2,0.2,0.4,0.3,0.4c0.1,0,0.4,0,0.9-0.1c0.1,0,0.2,0,0.2,0s1,0,2.8-0.1c0.1,0,0.2,0,0.4,0c1,0,1.6,0,1.8,0
	c0.4,0,0.6-0.1,0.7-0.1c0.1,0,0.1-0.1,0.1-0.3c0,0,0-0.1,0-0.1c0-0.3,0.3-0.5,0.9-0.6c0.4,0,0.6,0.1,0.6,0.2
	c0.1,0.2,0.1,0.7,0.1,1.5c0,0.1,0,0.1,0,0.2c0,0.8-0.1,1.2-0.2,1.3c-0.1,0.1-0.4,0.2-1.1,0.2c-0.1,0-0.2,0-0.2,0c-0.6,0-1,0-1.1-0.1
	c-0.2-0.1-0.4-0.3-0.9-0.6l0,0c0,0-0.1-0.1-0.2-0.1c-0.2-0.2-0.4-0.3-0.5-0.3c-0.1,0-0.2,0.1-0.4,0.4c0,0-0.1,0.1-0.1,0.1
	c-0.3,0.4-0.7,0.7-1.2,0.8c-0.5,0.1-1.3,0-2.4-0.1c-0.2,0-0.2,0-0.2,0c0,0,0.1,0.2,0.2,0.6s0.3,0.5,0.3,0.5c0,0,0.2,0,0.4,0
	c0.1,0,0.2,0,0.3,0c0.8-0.1,2.4-0.2,4.8-0.2c0.1,0,0.3,0,0.6,0c1.2,0,2,0,2.3,0c0.4,0,0.6,0.2,0.6,0.4c0,0.2-0.3,0.5-0.8,1.2
	c-0.1,0.1-0.1,0.2-0.2,0.3c-1.1,1.5-1.9,2.4-2.3,2.8c-0.4,0.4-0.9,0.4-1.2,0.1c-0.2-0.1-0.3-0.2-0.4-0.2s-0.2,0.1-0.4,0.3
	c-0.4,0.4-0.8,0.6-1.3,0.6c-0.5,0-1.2-0.2-2.1-0.6c-0.1,0-0.2-0.1-0.3-0.1c-0.4-0.2-0.7-0.3-0.7-0.3c-0.1,0-0.1,0.1-0.1,0.2
	c0,0,0,0.1,0,0.1c0.1,1.5,0.2,3,0.2,4.5c0,1.5,0,2.5-0.1,3.1c0,0.6,0,1,0.1,1.1s0.3,0.2,0.7,0.1c0.4-0.1,0.8-0.2,0.9-0.3
	c0.2-0.2,0.3-0.4,0.3-0.9c0-0.4,0.1-0.7,0.2-0.8c0.1-0.1,0.4-0.1,0.8-0.1c0.7,0,1,0.2,1,0.7c0,0.2,0.1,0.3,0.4,0.3
	c0.3,0,0.6-0.1,1.1-0.3c0,0,0,0,0.1,0c0.2-0.1,0.3-0.2,0.4-0.3c0-0.1,0-0.5,0-1.2c0-0.1,0-0.2,0-0.2c-0.1-1.8-0.1-2.9,0-3.4
	c0.1-0.5,0.2-0.8,0.5-1c0.2-0.1,0.3-0.2,0.1-0.3c-0.3-0.2-0.2-0.6,0.4-1c0.2-0.2,0.4-0.3,0.5-0.3c0.1,0,0.2,0,0.3,0.1
	c0.1,0.1,0.1,1,0.1,2.6c0,1.7,0,3.3-0.1,5c0,0.6,0,0.9,0,1.1C34.4,43.6,34.5,43.7,34.6,43.8z M23.4,43.8c0.2,0.1,0.5,0.1,1-0.1
	c0.5-0.1,0.8-0.3,1-0.5c0-0.1,0.1-0.1,0.1-0.2c0-0.1,0-0.4,0-0.8c-0.1-2-0.1-4.9-0.1-8.7c0-0.2,0-0.4,0-0.7c0-1.6,0-2.5,0-2.8
	c0-0.3,0.1-0.5,0.3-0.6l0,0c0.1-0.1,0.2-0.2,0.1-0.2c0-0.1-0.1-0.2-0.4-0.5c-0.3-0.3-0.4-0.5-0.4-0.7c0-0.2,0.1-0.6,0.4-1.2
	c0.3-0.8,0.6-1.4,0.7-1.9c0.2-0.7,0.4-1.2,0.6-1.5c0.1-0.3,0.3-0.5,0.5-0.6c0.2-0.1,0.2-0.2-0.1-0.4c-0.2-0.1-0.8-0.3-1.5-0.6
	c0,0-0.1,0-0.1,0c-0.5-0.2-0.8-0.3-0.9-0.2c-0.1,0-0.2,0.1-0.2,0.3c0,0,0,0.1,0,0.1c-0.1,1.6-0.4,3.4-1,5.3
	c-0.5,1.9-1.1,3.8-1.9,5.6c-0.2,0.4-0.2,0.6-0.3,0.7c0,0.1,0,0.2,0.1,0.2c0.1,0,0.4-0.4,1-1.1c0.3-0.4,0.5-0.6,0.6-0.7
	c0.1-0.1,0.2,0,0.3,0.2c0.1,0.2,0.1,1.6,0,4.2c0,2.6-0.1,4.6-0.1,6c0,0.7-0.1,1.1,0,1.2C23.1,43.6,23.2,43.7,23.4,43.8z M37.8,41.6
	c-0.6,0-1-0.1-1.1-0.2c-0.1-0.1-0.1-0.6-0.1-1.3c0-0.1,0-0.2,0-0.2c0,0,0-0.1,0-0.2c0-0.8,0-1.2,0.1-1.3c0.1-0.1,0.5-0.2,1.1-0.2
	c0.1,0,0.1,0,0.2,0c0,0,0.1,0,0.2,0c0.6,0,1,0.1,1.1,0.2c0.1,0.1,0.2,0.6,0.2,1.3c0,0.1,0,0.1,0,0.2c0,0.7,0,1.1,0,1.2
	c0,0.2-0.1,0.3-0.2,0.4c-0.1,0-0.5,0.1-1.1,0.1C37.9,41.6,37.8,41.6,37.8,41.6z M29.6,41c-0.4,0-0.6,0-0.7-0.1
	c-0.1-0.1-0.2-0.3-0.3-0.6c0-0.2,0-0.7,0-1.6c0-0.1,0-0.1,0-0.2s0-0.1,0-0.2c0-0.8,0-1.3,0-1.6c0-0.3,0.1-0.5,0.3-0.6
	c0.1,0,0.3-0.1,0.7-0.1h0.1h0c0.4,0,0.6,0,0.7,0.1c0.1,0.1,0.2,0.3,0.3,0.6c0,0.2,0,0.7,0,1.6c0,0.1,0,0.1,0,0.2c0,1,0,1.6,0,1.8
	s-0.1,0.4-0.2,0.5C30.4,41,30.1,41,29.6,41L29.6,41z M37.9,37.6c-0.7,0-1.1-0.1-1.2-0.2s-0.2-0.6-0.2-1.4c0,0,0-0.1,0-0.1
	c0,0,0-0.1,0-0.1c0-0.7,0-1.2,0.1-1.3c0.1-0.1,0.5-0.2,1.2-0.2c0,0,0.1,0,0.1,0c0,0,0.1,0,0.1,0c0.7,0,1,0.1,1.1,0.2
	c0.1,0.1,0.2,0.5,0.2,1.3c0,0.1,0,0.1,0,0.1c0,0.7,0,1.1,0,1.2c0,0.2-0.1,0.3-0.3,0.3C38.9,37.6,38.5,37.6,37.9,37.6L37.9,37.6z
	 M38.9,33.6c-0.2,0-0.5,0.1-1.1,0c-0.6,0-1,0-1.2-0.1c-0.4-0.1-0.6-0.3-0.6-0.5c0-0.2,0.3-0.5,0.7-1.1c0.6-0.7,1-1,1.2-1
	c0.2,0,0.5,0.2,0.8,0.8c0.4,0.6,0.6,1,0.6,1.3C39.4,33.3,39.2,33.5,38.9,33.6z M27.4,33.5c0,0,0.1,0,0.1,0l0,0
	c0.3-0.1,0.5-0.2,0.8-0.2c0.3,0,1,0,2.1,0c1.2,0,1.9,0,2.1,0c0.2,0,0.4-0.1,0.4-0.2c0.1-0.2-0.2-0.6-0.9-1.2
	c-0.4-0.4-0.7-0.5-0.8-0.5c-0.1,0-0.3,0.2-0.6,0.6c-0.3,0.4-0.5,0.6-0.6,0.7c-0.1,0.1-0.4,0.1-0.8,0.1c-0.9,0-1.6,0-2.2-0.1
	c-0.1,0-0.2,0-0.2,0c0,0,0.1,0.2,0.2,0.5C27.3,33.3,27.4,33.5,27.4,33.5z M37.9,28.1c-0.2,0.3-0.4,0.4-0.5,0.2
	c-0.1-0.1-0.1-0.6-0.1-1.2c0-0.5,0-0.9,0.1-1c0.1-0.1,0.3-0.2,0.7-0.2c0.4,0,0.6,0.2,0.6,0.6C38.6,26.9,38.4,27.4,37.9,28.1z
	 M27.7,24.2c0.1,0,0.2,0,0.4,0c0.7-0.1,1.7-0.2,3-0.2c0.9,0,1.5,0,1.7-0.1c0.2-0.1,0.3-0.2,0.2-0.4c0-0.1-0.2-0.3-0.6-0.6
	c-0.3-0.4-0.6-0.6-0.8-0.7c-0.2-0.2-0.4-0.2-0.5-0.2c-0.1,0-0.3,0.3-0.6,0.6c0,0-0.1,0.1-0.1,0.1c-0.3,0.4-0.5,0.6-0.8,0.6
	c-0.3,0-1.1,0-2.3-0.1h0c-0.2,0-0.3,0-0.3,0c0,0,0.1,0.2,0.2,0.5l0,0C27.5,24,27.6,24.2,27.7,24.2z M61.3,43.8
	c0.1,0.1,0.4,0.1,1-0.1c0.6-0.1,1-0.3,1.2-0.5c0.4-0.3,0.6-0.6,0.7-1.1c0.1-0.5,0.1-1.6,0.1-3.5c0-0.2,0-0.6,0-1c0-0.7,0-1.2,0-1.4
	c0.1-0.3,0.2-0.4,0.6-0.5c0.2,0,0.7,0,1.5,0c0.4,0,0.8,0,1.1,0c1.5,0,2.4,0,2.6,0c0.3,0,0.4-0.1,0.5-0.2c0-0.1-0.1-0.3-0.4-0.6
	c-0.3-0.3-0.6-0.6-1.1-1c0,0,0,0-0.1-0.1c-0.4-0.3-0.6-0.4-0.7-0.4c-0.1,0-0.3,0.3-0.7,0.7l0,0.1c0,0,0,0.1-0.1,0.1
	c-0.3,0.4-0.5,0.6-0.6,0.7c-0.1,0.1-0.5,0.1-1,0.1c0,0-0.1,0-0.1,0c-0.7,0-1.1,0-1.3-0.1c-0.1-0.1-0.2-0.4-0.2-0.8
	c0-0.5,0.1-0.8,0.4-1c0.2-0.1,0.3-0.2,0.3-0.3c0-0.1,0-0.2-0.1-0.2c-0.3,0-0.3-0.1-0.1-0.3c0.2-0.2,0.6-0.5,1.2-0.8
	c0.5-0.3,1-0.6,1.5-0.9c0.5-0.3,0.9-0.5,1.3-0.6c0.5-0.1,0.2-0.7-0.9-1.7c0,0-0.1,0-0.1-0.1c-0.3-0.3-0.6-0.5-0.7-0.5
	c-0.1,0-0.3,0.1-0.6,0.4c0,0-0.1,0.1-0.1,0.1c0,0-0.1,0.1-0.2,0.2C66,28.8,65.8,29,65.5,29c-0.2,0-1,0-2.2,0c-0.4,0-0.6,0-0.8,0
	c-2.3,0-3.9,0-4.8-0.1c-0.2,0-0.3,0-0.4,0c0,0,0.1,0.2,0.2,0.5c0,0,0,0,0,0.1c0.1,0.2,0.2,0.4,0.3,0.4c0.1,0,0.3,0,0.5,0
	c0.1,0,0.1,0,0.2,0c0.9-0.1,2.2-0.2,3.9-0.2c1.1,0,1.8,0,2.1,0c0.4,0,0.6,0.2,0.5,0.4c0,0.2-0.3,0.5-0.8,1c-0.5,0.6-0.8,0.9-1,1
	c-0.2,0.1-0.5,0.2-0.8,0.2c0,0,0,0-0.1,0c-0.2,0-0.3,0-0.4,0.1c0,0.1,0,0.4,0,0.8c0,0.1,0,0.1,0,0.2c0,0,0,0.1,0,0.2
	c0,0.5,0,0.8-0.1,0.9c0,0.2-0.2,0.3-0.4,0.3c-0.2,0-0.6,0-1.2,0c-0.1,0-0.2,0-0.3,0c-1.7,0-3,0-3.9-0.1c-0.3,0-0.4,0-0.4,0
	c0,0,0.1,0.2,0.2,0.6c0,0,0,0,0,0.1c0.1,0.2,0.2,0.4,0.3,0.4c0.1,0,0.3,0,0.7,0c0.1,0,0.2,0,0.3,0c0.8-0.1,1.7-0.2,2.7-0.2
	c1,0,1.6,0,1.8,0.1c0.1,0.1,0.2,0.2,0.2,0.5c0,0.2,0,1,0,2.3c0,0.1,0,0.3,0,0.6c0,0.9,0,1.4,0,1.7c-0.1,0.3-0.2,0.5-0.5,0.6
	c-0.2,0-0.6,0-1.2,0c-0.2,0-0.3,0-0.4,0c-0.7,0-1.1-0.1-1.3-0.1c-0.1,0-0.2,0.1-0.2,0.1c0,0.1,0.1,0.1,0.3,0.2
	c0.8,0.2,1.3,0.4,1.7,0.7c0.4,0.3,0.6,0.8,0.7,1.4l0,0L61.3,43.8z M52.8,43.8c0.2,0.1,0.6,0.1,1,0c0.4-0.1,0.8-0.3,1-0.5l0,0
	c0.1,0,0.1-0.2,0.1-0.3c0-0.2,0-0.7,0-1.6c0-0.5,0-0.8,0-1.2c0-1.1-0.1-2.9,0-5.3c0-2.4,0-3.6,0.1-3.7c0.1-0.2,0.2-0.4,0.6-0.6
	c0.1-0.1,0.1-0.1,0.1-0.2c0-0.1,0.2-0.5,0.6-1.2c0.5-0.9,0.9-1.5,1-1.8c0.3-0.5,0.5-0.8,0.6-0.9c0.1,0,0.4-0.1,1-0.1
	c0.5,0,2.2,0,4.9,0c0.1,0,0.2,0,0.2,0c0.3,0,0.8,0,1.3,0c2.4,0,3.9,0,4.3,0s0.6-0.1,0.7-0.2l0,0c0.1-0.2-0.4-0.8-1.5-1.6
	c0,0-0.1,0-0.1-0.1c-0.5-0.3-0.8-0.5-0.9-0.4c-0.1,0-0.4,0.3-0.8,0.9c0,0.1-0.1,0.1-0.1,0.2c0,0-0.1,0.1-0.1,0.2
	c-0.2,0.2-0.4,0.4-0.7,0.4c-0.3,0-1.1,0-2.6,0c-0.4,0-0.8,0-1.1,0c-0.2,0-0.5,0-0.9,0c-1.3,0-2.1,0-2.4,0c-0.5,0-0.7-0.1-0.8-0.3
	c0-0.1,0-0.4,0.2-0.8c0.1-0.1,0.1-0.3,0.1-0.3c0.3-0.7,0.5-1.1,0.7-1.2c0.4-0.1,0.4-0.2,0.1-0.4c-0.3-0.2-0.9-0.5-2-0.8
	c0,0-0.1,0-0.2,0c-0.4-0.1-0.6-0.2-0.6-0.2c-0.1,0-0.1,0.1-0.1,0.3c-0.1,0.8-0.2,1.6-0.5,2.4c-0.2,0.8-0.5,1.2-0.7,1.3
	c-0.2,0.1-1,0.1-2.4,0.1c-1.4,0-2.5-0.1-3.3-0.1c-0.3,0-0.4,0-0.4,0c0,0,0.1,0.2,0.2,0.6v0c0.1,0.2,0.2,0.4,0.3,0.4
	c0.1,0,0.4,0,0.8,0c0.1,0,0.2,0,0.2,0c0.8-0.1,1.6-0.2,2.5-0.2c0.9,0,1.4,0,1.6,0.1c0.2,0.1,0.2,0.3,0.2,0.6
	c-0.1,0.3-0.3,0.8-0.7,1.7c-0.3,0.6-0.5,0.9-0.7,1.1c-0.2,0.1-0.4,0.2-0.7,0.1c-0.2,0-0.3,0-0.3,0.1c0,0.1,0,0.3,0,0.8
	c0,0.6-0.2,1.3-0.6,2c-0.4,0.7-1.2,1.6-2.3,2.7c-0.3,0.3-0.5,0.5-0.5,0.6c0,0.1,0,0.2,0,0.2c0.1,0,0.4-0.1,0.9-0.5
	c0.5-0.4,1-0.7,1.5-1.2c0.3-0.3,0.5-0.4,0.6-0.4c0.1,0,0.2,0,0.3,0.2c0.1,0.2,0.1,1.2,0.1,3.1c0,1.9-0.1,3.5-0.2,5
	c-0.1,1,0,1.5,0.1,1.5C52.6,43.7,52.7,43.7,52.8,43.8z M89.8,43.8c0,0,0.1,0.1,0.2,0c0.1,0,0.2,0,0.4,0c0.5-0.1,0.9-0.2,1.2-0.4
	c0.4-0.2,0.7-0.4,0.8-0.7l0,0c0.2-0.2,0.2-0.5,0.3-0.9c0-0.4,0.1-1.5,0.1-3.4c0-0.3,0-0.6,0-0.8c0-0.4,0-1,0-1.7c0-1.2,0-1.9,0-2.2
	c0.1-0.4,0.2-0.7,0.5-0.8c0.2-0.1,0.6-0.1,1.4-0.1c0.4,0,0.8,0,1,0c1.3,0,2.1,0,2.4,0c0.2,0,0.4-0.1,0.5-0.2c0.1-0.1,0-0.4-0.4-0.7
	c-0.3-0.4-0.7-0.7-1.2-1.1c-0.3-0.2-0.5-0.3-0.6-0.3c-0.1,0-0.3,0.3-0.6,0.8c-0.3,0.4-0.7,0.7-1.2,0.9c-0.5,0.2-1,0.1-1.4-0.1
	c-0.3-0.1-0.4-0.7-0.4-1.7c0-1,0.2-1.6,0.5-1.7c0.2-0.1,0.3-0.2,0.3-0.3c0-0.1,0-0.2-0.1-0.2c-0.2,0-0.2-0.2-0.1-0.3s0.4-0.5,1-0.9
	c0.8-0.6,1.5-1.2,2.3-1.8c0.4-0.3,0.7-0.5,1.1-0.6c0.3-0.1,0.4-0.2,0.4-0.3c0-0.2-0.3-0.5-0.8-1c-0.5-0.5-0.9-0.8-1-0.8
	c-0.2,0-0.4,0.1-0.7,0.5c0,0-0.1,0.1-0.2,0.2c-0.2,0.3-0.5,0.4-0.7,0.5c-0.2,0-0.9,0.1-2,0.1c-0.3,0-0.6,0-0.8,0
	c-2.8,0-4.6,0-5.5-0.1c-0.3,0-0.4,0-0.4,0s0.1,0.2,0.2,0.6v0c0.1,0.2,0.2,0.4,0.3,0.4c0.1,0,0.4,0,0.8,0c0.1,0,0.2,0,0.2,0
	c0.9-0.1,2.3-0.2,4.2-0.2c0.1,0,0.3,0,0.5,0c1,0,1.6,0,1.8,0c0.3,0.1,0.4,0.2,0.4,0.4c0,0.2-0.3,0.6-0.7,1.2
	c-0.1,0.1-0.2,0.3-0.3,0.4l0,0c-0.6,0.8-0.9,1.3-1.2,1.5C92,28,91.6,28,91,27.9c0,0,0,0-0.1,0c-0.3,0-0.4,0-0.5,0c0,0,0,0.2,0,0.5
	c0,0,0,0.1,0,0.1c0.3,2.2,0.2,3.4-0.2,3.6c-0.2,0.1-1,0.1-2.5,0.1c-1.5,0-2.3-0.1-2.4-0.2c-0.1-0.1-0.1-0.6,0-1.5
	c0.1-0.9,0.2-1.4,0.3-1.6c0.1-0.2,0.2-0.3,0.4-0.5c0.3-0.1,0.4-0.3,0.3-0.5c0-0.2-0.3-0.4-0.8-0.9c-0.5-0.5-0.9-0.7-1-0.7
	c-0.2,0-0.4,0.1-0.7,0.4s-0.5,0.5-0.6,0.6c-0.1,0.1-0.4,0.1-0.7,0.1c-0.4,0-0.6,0-0.7-0.1c-0.1-0.1-0.2-0.3-0.1-0.6
	c0-0.3,0.1-0.8,0.3-1.7v0c0.2-1,0.4-1.6,0.5-1.9c0.1-0.2,0.2-0.4,0.4-0.5c0.2-0.1,0.3-0.2,0-0.4s-0.7-0.3-1.5-0.5c0,0-0.1,0-0.2,0
	c-0.4-0.1-0.7-0.2-0.8-0.1c-0.1,0-0.1,0.2-0.1,0.4c0,0,0,0.1,0,0.1c0,0.6-0.1,1.4-0.3,2.7c-0.2,1.2-0.3,2-0.5,2.2
	c-0.2,0.5-1.1,0.6-2.8,0.3c-0.1,0-0.2,0-0.2,0.1c0,0,0.1,0.2,0.2,0.5c0.1,0.3,0.2,0.4,0.3,0.4c0.1,0,0.2,0,0.4,0
	c0.5-0.2,0.9-0.2,1.2-0.1c0.3,0,0.5,0.2,0.5,0.5c0,0.2-0.2,1.3-0.7,3.3c-0.5,1.9-0.9,3.4-1.2,4.5c-0.1,0.4-0.2,0.6-0.1,0.6
	c0,0.1,0.1,0.1,0.3,0.1c0.5,0.1,1,0.1,1.2,0c0.3-0.1,0.5-0.3,0.6-0.7c0.2-0.4,0.3-0.7,0.6-0.6s0.6,0.3,1.1,0.8
	c0.3,0.3,0.4,0.6,0.4,0.7c0,0.2-0.2,0.6-0.5,1.1c-1,1.7-2.2,3.1-3.8,4.2c-0.2,0.2-0.4,0.3-0.4,0.4c0,0.1,0,0.1,0.1,0.2
	c0.1,0,0.3,0,0.6-0.2c1.9-0.9,3.4-2.1,4.6-3.6c0.3-0.4,0.6-0.6,0.7-0.6c0.2,0,0.4,0.2,0.6,0.6c0.2,0.2,0.3,0.6,0.6,1
	c0.2,0.4,0.4,0.7,0.4,0.9c0.1,0.3,0.3,0.5,0.7,0.5c0.4,0,0.7-0.1,0.9-0.4c0.3-0.5,0.3-1.1,0-1.8c-0.3-0.7-0.8-1.5-1.5-2.2
	c-0.4-0.3-0.5-0.6-0.6-0.7c0-0.1,0.1-0.5,0.3-1c0.2-0.6,0.5-1.4,0.7-2.2c0.2-0.7,0.3-1.1,0.4-1.2c0.1-0.1,0.3,0,0.5,0.4
	c0.1,0.1,0.2,0.2,0.3,0.2c0.1,0,0.4,0,0.9-0.1c0.5-0.1,1.1-0.1,1.9-0.1c0.8,0,1.3,0,1.4,0.1c0.1,0.1,0.2,0.2,0.2,0.5
	c0,0.3,0,1.2,0,2.8c0,0.3,0,0.6,0,0.8c0,0.3,0,0.6,0,1.1c0,1.2,0,1.9,0,2.2c0,0.4-0.2,0.7-0.3,0.8c-0.1,0.1-0.4,0.1-0.8,0.1
	c-0.2,0-0.3,0-0.4,0c-0.9,0-1.4,0-1.6,0c-0.2,0-0.3,0.1-0.3,0.1c0,0.1,0.1,0.1,0.3,0.2c0.7,0.2,1.3,0.4,1.6,0.7
	c0.3,0.3,0.5,0.7,0.6,1.3C89.8,43.6,89.8,43.8,89.8,43.8z M82.2,35.8c-0.2,0.1-0.6,0-1.2-0.2c0,0-0.1,0-0.2-0.1
	c-0.4-0.1-0.6-0.3-0.6-0.3C80,35.1,80,34.9,80,34.6c0-0.2,0.1-0.6,0.3-1.3c0-0.2,0.1-0.3,0.1-0.4c0.1-0.4,0.2-1,0.5-1.9
	c0.1-0.5,0.2-0.9,0.3-1.1c0,0,0,0,0-0.1c0.2-0.8,0.3-1.3,0.5-1.4c0.1-0.1,0.4-0.2,0.9-0.2h0c0.6,0,0.9,0.1,1,0.3s0.1,0.8,0,1.7
	c-0.2,1.4-0.4,2.7-0.6,3.8C82.6,35,82.4,35.7,82.2,35.8z M114.5,43.7c0.2,0.1,0.5,0.1,0.8,0c0.4-0.1,0.7-0.2,1-0.3c0,0,0,0,0.1,0
	c0.2-0.1,0.3-0.2,0.3-0.3c0-0.1,0-0.4,0-1c0-0.1,0-0.2,0-0.3c-0.1-1.3-0.1-3.7-0.1-7.2c0-3.5,0-5.3,0.1-5.4c0.1-0.1,0.1-0.2,0.2-0.3
	c0.2-0.1,0.3-0.1,0.3-0.2c0-0.1,0-0.2-0.2-0.2c-0.3-0.1-0.4-0.3-0.4-0.5c0-0.2,0.2-0.5,0.6-1c0.2-0.2,0.4-0.6,0.8-1.2
	c0.1-0.1,0.1-0.2,0.1-0.2c0-0.1,0.1-0.2,0.2-0.3c0.2-0.3,0.3-0.5,0.4-0.6c0.2-0.1,0.4-0.2,0.8-0.2c0.3,0,0.9,0,1.9,0
	c0.4,0,0.8,0,1,0c1.8,0,2.8,0,3.1,0c0.3,0,0.5-0.1,0.5-0.2c0.1-0.3-0.5-0.9-1.8-1.8c0,0,0,0-0.1-0.1c-0.4-0.3-0.6-0.4-0.7-0.3
	c-0.1,0-0.3,0.3-0.6,0.7l0,0.1c-0.5,0.7-0.8,1-1,1.1c-0.2,0-2.8,0-7.9,0c-5.2,0-7.9,0-8.2-0.1c-0.4,0-0.6,0-0.6,0c0,0,0,0.2,0.2,0.5
	c0,0,0,0.1,0,0.1c0.1,0.3,0.2,0.4,0.3,0.4c0.1,0,0.3,0,0.6,0c0,0,0.1,0,0.1,0c0.7-0.1,1.3-0.2,1.8-0.2c0.6,0,1.7,0,3.4,0
	c0.1,0,0.4,0,0.6,0c1.3,0,2.2,0,2.5,0c0.5,0,0.7,0.1,0.8,0.3c0,0.1-0.1,0.4-0.3,0.8c0,0.1-0.1,0.1-0.1,0.2c-0.9,1.8-2.2,3.6-4,5.4
	c-1.7,1.8-3.6,3.5-5.7,4.9c-0.3,0.2-0.5,0.4-0.5,0.5c0,0.1,0.2,0,0.5-0.1c1.2-0.5,2.5-1.3,3.9-2.2c1.5-1,2.7-1.9,3.9-3
	c0.4-0.3,0.6-0.5,0.8-0.6c0.1-0.1,0.3,0,0.3,0.1c0.1,0.1,0.1,1.6,0.1,4.4c0,2.8-0.1,4.9-0.2,6.5c-0.1,0.9-0.1,1.5-0.1,1.6
	C114.2,43.6,114.3,43.7,114.5,43.7z M124.7,36.2c0.3,0,0.5-0.1,0.7-0.3s0.3-0.5,0.3-0.8c0-0.9-0.5-1.8-1.6-2.7
	c-1.1-0.9-2.5-1.7-4.3-2.3c-1-0.4-1.7-0.5-2.1-0.6c-0.4,0-0.4,0.1,0,0.4c2.9,2.1,4.9,4,6.1,5.8c0.1,0.2,0.3,0.4,0.6,0.5
	C124.5,36.2,124.6,36.2,124.7,36.2z M134.3,43.8c0.4,0.2,0.9,0.1,1.5-0.2s0.8-0.7,0.7-1.2c-0.1-1.8-0.1-5.2-0.1-10.5
	c0-3.7,0-5.8,0-6.5c0-0.6,0.1-1,0.1-1.1l0,0c0.1-0.1,0.3-0.2,0.8-0.2c0.5,0,2,0,4.7,0c0.6,0,1,0,1.3,0c0.3,0,0.8,0,1.3,0
	c2.7,0,4.3,0,4.7,0c0.5,0,0.7,0.1,0.8,0.2l0,0.1c0.1,0.1,0.1,2.8,0.1,8.3s0,8.2-0.1,8.4c-0.1,0.2-0.3,0.3-0.6,0.3
	c-0.3,0-1.1,0-2.2,0c-0.9,0-1.4-0.1-1.4,0c-0.1,0.1,0.1,0.2,0.4,0.3c1.3,0.2,2.1,0.7,2.4,1.3c0.1,0.1,0.2,0.3,0.2,0.5
	c0,0.1,0,0.1,0,0.1c0,0.1,0.1,0.2,0.2,0.2s0.3,0,0.6-0.1c0.7-0.1,1.3-0.3,1.6-0.5c0.4-0.2,0.6-0.6,0.8-1c0-0.1,0.1-0.6,0.1-1.3
	c0-0.7,0-3.2,0-7.5c0-0.2,0-0.4,0-0.7c0-5.2,0-7.9,0.1-7.9c0.1-0.2,0.3-0.3,0.5-0.4c0.2-0.1,0.3-0.2,0.3-0.3c0-0.1,0-0.2-0.1-0.3
	c-0.2-0.2-0.5-0.5-1.1-0.9c-0.5-0.4-0.8-0.6-0.9-0.6c-0.1,0-0.3,0.2-0.8,0.7c0,0-0.1,0.1-0.1,0.1c-0.1,0.1-0.2,0.2-0.4,0.3
	c-0.2,0-0.7,0.1-1.4,0.1c-0.5,0-1.7,0-3.6,0c-0.7,0-1.3,0-1.7,0c-4.4,0-6.6,0-6.8,0c-0.1,0-0.5-0.2-1.3-0.5
	c-0.7-0.3-1.1-0.5-1.2-0.5s0,0.5,0.1,1.5c0.1,0.5,0.1,3,0.1,7.6c0,5.2,0,8.8-0.1,10.8c0,0.7-0.1,1,0,1.2
	C134,43.6,134.1,43.7,134.3,43.8z M139.2,39.5c0.2,0.1,0.5,0,0.9-0.1c0.4-0.1,0.7-0.3,0.9-0.5c0.1-0.1,0.1-0.1,0.1-0.2
	c0-0.1,0-0.3,0-0.7c0,0,0-0.1,0-0.2c0-0.4,0-0.6,0.1-0.7c0-0.1,0.2-0.2,0.5-0.3c0.2,0,0.6,0,1.2,0c0.2,0,0.3,0,0.5,0s0.3,0,0.5,0
	c0.8,0,1.3,0.1,1.4,0.1c0.1,0.1,0.2,0.3,0.2,0.7c0,0.1,0,0.2,0,0.3c0,0.5,0.1,0.9,0.2,1s0.5,0.1,1-0.1c0.5-0.2,0.9-0.3,0.9-0.5
	c0.1-0.2,0.1-0.6,0.1-1.3c-0.1-1.8-0.1-3.1-0.1-3.9c0-0.8,0.2-1.2,0.4-1.3c0.3-0.2,0.4-0.4,0.3-0.6c-0.1-0.3-0.5-0.6-1.2-1.1
	c-0.4-0.3-0.6-0.4-0.7-0.4c-0.1,0-0.3,0.2-0.5,0.5c0,0,0,0-0.1,0.1c-0.2,0.3-0.5,0.5-0.7,0.6c-0.2,0-0.8,0.1-1.7,0.1
	c-0.1,0-0.1,0-0.2,0s-0.1,0-0.2,0c-0.9,0-1.4,0-1.7,0c-0.2,0-0.6-0.2-1.2-0.4c-0.1,0-0.2-0.1-0.2-0.1c-0.5-0.2-0.8-0.3-1-0.4
	c-0.1,0-0.1,0-0.1,0.2c0.1,0.8,0.2,2,0.2,3.8c0,1.7,0,3.2-0.1,4.4c0,0.5,0,0.8,0,0.9S139.1,39.5,139.2,39.5z M143.3,36.2
	c-1.2,0-1.9,0-2-0.1c-0.1-0.1-0.2-0.2-0.3-0.4c0-0.2,0-0.8,0-1.8c0-0.2,0-0.4,0-0.6c0-0.6,0-1,0-1.2c0-0.2,0.2-0.4,0.4-0.4
	c0.2,0,0.5-0.1,1.2,0c0.2,0,0.4,0,0.6,0c0.1,0,0.3,0,0.5,0c0.6,0,1,0,1.2,0c0.2,0.1,0.4,0.2,0.4,0.5c0,0.2,0,0.6,0,1.2
	c0,0.2,0,0.4,0,0.6c0,0.9,0,1.4,0,1.7c0,0.2-0.1,0.4-0.2,0.5C145.2,36.1,144.5,36.2,143.3,36.2z M138.1,28.2c0,0,0.4,0,1.1-0.1
	c0.1,0,0.1,0,0.1,0c0.6-0.1,2.3-0.1,5.2-0.1c0.2,0,0.6,0,1,0c1.8,0,2.9,0,3.2,0c0.3,0,0.5-0.1,0.6-0.2l0,0c0.1-0.2-0.3-0.7-1.3-1.4
	c-0.5-0.4-0.8-0.5-0.9-0.5c-0.1,0-0.4,0.2-0.7,0.7c-0.3,0.5-0.6,0.8-0.9,0.8c-0.2,0.1-1.4,0.1-3.6,0c-2.2,0-3.6-0.1-4-0.2
	c-0.1,0-0.2,0.1-0.1,0.3S137.9,27.9,138.1,28.2z M164.7,43.8c0.3,0.2,0.7,0.1,1.3-0.1c0.6-0.2,0.8-0.5,0.8-0.8c0,0,0-0.1,0-0.2
	c0-0.2,0-0.4,0.1-0.5c0.1-0.1,0.4-0.2,1-0.2c0.4,0,1.2,0,2.6,0c0.3,0,0.5,0,0.7,0c0.2,0,0.5,0,0.9,0c1.3,0,2.1,0,2.5,0
	c0.5,0,0.8,0.1,0.9,0.2c0.1,0.1,0.1,0.3,0.1,0.5c0,0.1,0,0.1,0,0.2c0,0.4,0,0.6,0.2,0.7c0.2,0.1,0.5,0.1,1-0.1
	c0.6-0.2,0.9-0.4,1-0.6c0.1-0.2,0.2-0.7,0.1-1.5c-0.2-4.8-0.1-7.2,0.4-7.2c0,0,0.1,0,0.3-0.1c0.1-0.1,0.2-0.2,0.2-0.2
	c0-0.1-0.2-0.3-0.7-0.7c-0.5-0.4-0.9-0.7-1.2-0.9c-0.1-0.1-0.3-0.1-0.4,0c-0.1,0-0.3,0.2-0.6,0.5c0,0-0.1,0.1-0.1,0.2
	c-0.2,0.2-0.5,0.4-0.7,0.4c-0.3,0-1.2,0-2.8,0c-0.5,0-0.9,0-1.2,0s-0.7,0-1.2,0c-1.5,0-2.4,0-2.7,0c-0.3,0-0.7-0.2-1.2-0.4
	c-0.2-0.1-0.3-0.1-0.5-0.2c0,0-0.1,0-0.2-0.1c-0.5-0.2-0.7-0.3-0.8-0.3c-0.1,0-0.1,0.2,0,0.5c0,0.1,0,0.1,0,0.1
	c0.1,1.1,0.2,2.6,0.2,4.5c0,1.9,0,3.6-0.1,5.1c0,0.4,0,0.7,0,0.8C164.5,43.6,164.6,43.7,164.7,43.8z M175.3,41.3
	c-0.1,0.1-1.5,0.1-4,0.1c-2.6,0-3.9,0-4-0.1c-0.2-0.1-0.3-0.2-0.3-0.4c0-0.2,0-0.6,0-1.2c0-0.1,0-0.3,0-0.5c0-0.4,0-0.7,0.1-0.9
	c0.1-0.2,0.4-0.3,0.8-0.3c0.3,0,1.1,0,2.3,0c0.5,0,0.9,0,1.2,0s0.7,0,1.2,0c1.2,0,1.9,0,2.3,0c0.4,0,0.7,0.2,0.8,0.3
	c0.1,0.1,0.1,0.4,0.1,0.9c0,0.2,0,0.4,0,0.5c0,0.7,0,1.1,0,1.3C175.5,41.1,175.4,41.2,175.3,41.3z M171.2,37.4c-2.6,0-4,0-4.1-0.1
	c-0.1-0.1-0.2-0.2-0.2-0.4c0-0.2,0-0.6,0-1.2c0-0.1,0-0.2,0-0.4c0-0.4,0-0.7,0.1-0.8c0.1-0.1,0.4-0.2,0.8-0.3c0.3,0,1.1,0,2.3,0
	c0.5,0,0.9,0,1.2,0s0.7,0,1.2,0c1.2,0,1.9,0,2.3,0c0.4,0,0.7,0.1,0.8,0.3c0.1,0.1,0.1,0.4,0.1,0.8c0,0.2,0,0.3,0,0.4
	c0,0.6,0,1,0,1.2c0,0.2-0.1,0.3-0.2,0.4C175.2,37.3,173.8,37.4,171.2,37.4z M161.2,31.1c0.1,0,0.1,0.1,0.2,0c0,0,0.1,0,0.2,0
	c0.7-0.1,1.2-0.2,1.5-0.2c0.3,0,3.4-0.1,9.4-0.1c0.4,0,0.9,0,1.6,0c2.8,0,4.6,0,5.3,0c1,0,1.7,0,2-0.1c0.2,0,0.3-0.1,0.3-0.2
	c0,0,0-0.1,0-0.1c0-0.1-0.1-0.3-0.5-0.6c-0.3-0.3-0.7-0.7-1.2-1l0,0c-0.4-0.3-0.6-0.4-0.7-0.4c-0.1,0-0.3,0.2-0.6,0.7
	c0,0-0.1,0.1-0.1,0.1c0,0-0.1,0.1-0.1,0.2c-0.3,0.4-0.5,0.6-0.7,0.6c-0.2,0.1-0.6,0.1-1.4,0.1c-0.2,0-0.3,0-0.4,0
	c-0.9,0-1.4,0-1.6,0c-0.3,0-0.4-0.2-0.3-0.3c0-0.1,0.3-0.4,0.7-0.8c0.2-0.2,0.6-0.6,1.2-1.3c0,0,0.1-0.1,0.1-0.1
	c0.4-0.5,0.6-0.7,0.7-0.8c0.1-0.1,0.2-0.2,0.3-0.2c0.2-0.1,0.3-0.1,0.3-0.2s-0.2-0.2-0.5-0.3c-0.6-0.3-0.8-0.5-0.6-0.6
	c0.2-0.1,1-0.1,2.4-0.1c1.1,0,1.8,0,2,0c0.2,0,0.3-0.1,0.4-0.2c0.1-0.2-0.3-0.7-1.3-1.4l0,0c-0.5-0.4-0.8-0.6-1-0.6
	c-0.1,0-0.4,0.3-0.7,0.7l0,0c0,0-0.1,0.1-0.1,0.2c-0.2,0.4-0.5,0.6-0.7,0.6c-0.2,0-0.8,0.1-1.8,0.1c-0.2,0-0.4,0-0.5,0
	c-1.1,0-1.7,0-1.9,0c-0.2,0-0.3-0.1-0.4-0.1c-0.2-0.2-0.2-0.5-0.2-0.9c0-0.4,0.2-0.7,0.4-0.9c0.2-0.2,0.2-0.3-0.1-0.4
	c-0.2-0.1-0.8-0.3-1.7-0.5c0,0-0.1,0-0.2,0c-0.4-0.1-0.7-0.2-0.7-0.1c-0.1,0-0.1,0.2-0.1,0.5c0,0.1,0,0.1,0,0.1c0,0.1,0,0.3,0,0.5
	c0,0.7,0,1.1,0,1.3c-0.1,0.3-0.3,0.4-0.6,0.5c-0.3,0-0.9,0-1.9,0c-0.3,0-0.5,0-0.7,0c-2.2,0-3.8,0-4.7-0.1c-0.2,0-0.3,0-0.4,0
	c0,0,0.1,0.2,0.2,0.5c0,0,0,0,0,0.1c0.1,0.2,0.2,0.4,0.3,0.4c0.1,0,0.3,0,0.5,0c0.1,0,0.1,0,0.2,0c2-0.3,2.9-0.3,2.9,0
	c0,0.1,0.1,0.3,0.2,0.6c0.4,0.8,0.7,1.6,0.9,2.4s0.3,1.4,0.1,1.5c-0.1,0.1-0.9,0.1-2.4,0.1c-1.5,0-2.7,0-3.6-0.1c-0.2,0-0.4,0-0.4,0
	c0,0,0.1,0.2,0.2,0.5C161,30.9,161.2,31.1,161.2,31.1z M172.6,30.1c-0.2,0.1-0.8,0.1-1.9,0.1c-1.1,0-1.6-0.1-1.7-0.1
	c-0.1-0.1-0.1-0.1-0.1-0.2c0-0.1,0-0.2,0.1-0.4c0.2-0.5,0.2-1.1-0.1-1.7c-0.3-0.6-0.7-1.1-1.4-1.6l0,0c-0.5-0.3-0.8-0.6-0.8-0.6
	c0-0.1,0.2-0.2,0.7-0.2c0.4,0,1.4,0,2.9,0c0.2,0,0.4,0,0.7,0c1.2,0,2,0,2.3,0c0.4,0,0.7,0.1,0.8,0.2c0,0.1,0,0.3,0,0.6
	c0,0.1,0,0.1,0,0.1c-0.3,1-0.5,1.8-0.8,2.6C173,29.6,172.8,30,172.6,30.1z M194.8,43.3c0.9,0.1,3.1,0.1,6.4,0s5.3-0.1,5.9-0.2
	c0.7-0.1,1.3-0.3,1.8-0.6c0.4-0.3,0.7-0.6,0.7-0.9s-0.2-0.6-0.7-0.8c-0.4-0.2-0.6-0.4-0.6-0.6s-0.1-0.8-0.1-1.7s0-1.5-0.1-1.6
	c-0.1-0.1-0.2,0.1-0.4,0.7c0,0.1-0.1,0.3-0.1,0.5c-0.3,1.1-0.6,1.8-0.8,2.1c-0.3,0.4-0.9,0.7-1.8,0.8c-0.6,0.1-2,0.1-4.2,0.1
	c-0.4,0-0.7,0-0.9,0c-0.4,0-1,0-1.7,0c-1.9,0-3,0-3.5-0.1c-0.7-0.1-1.1-0.3-1.3-0.6c-0.1-0.3-0.2-0.8-0.1-1.8c0-0.4,0-0.7,0-0.9
	c0-0.1,0-0.2,0-0.4c0-1,0-1.6,0-1.8c0-0.2,0.1-0.3,0.3-0.4l0,0c0.1-0.1,1.9-0.1,5.2-0.1c3.4,0,5.2,0,5.3,0.1
	c0.1,0.1,0.2,0.1,0.3,0.2c0,0.1,0.1,0.2,0.1,0.5c0,0.4,0.1,0.6,0.2,0.7c0.1,0.1,0.4,0.1,0.8,0c0.5-0.1,0.8-0.2,1-0.3
	c0.2-0.1,0.3-0.3,0.3-0.6c0-0.2,0-0.6,0-1.3c-0.1-2-0.1-3.3,0-3.8c0-0.5,0.2-0.9,0.4-1c0.4-0.2,0.5-0.4,0.5-0.5
	c0-0.2-0.3-0.4-0.8-0.9c-0.6-0.5-1-0.8-1.2-0.8c-0.2,0-0.4,0.1-0.7,0.4c0,0-0.1,0.1-0.1,0.2c-0.3,0.3-0.5,0.5-0.7,0.5
	c-0.2,0-0.7,0.1-1.6,0.1c-0.2,0-0.3,0-0.4,0c-1,0-1.7,0-2,0c-0.4,0-0.5-0.2-0.5-0.3c0-0.1,0.3-0.4,0.7-0.7c0.6-0.5,1.1-1,1.3-1.2
	c0.6-0.6,1.1-0.9,1.4-1c0.3-0.1,0.4-0.2,0.4-0.3c0-0.1-0.3-0.4-0.7-0.8c-0.6-0.6-1-0.9-1.2-1c-0.2-0.1-0.5,0.1-0.8,0.5
	c0,0-0.1,0.1-0.1,0.1c-0.3,0.3-0.5,0.5-0.7,0.5c-0.2,0-0.7,0.1-1.5,0.1c-0.2,0-0.3,0-0.4,0c-1,0-1.6,0-1.8,0c-0.2,0-0.3-0.1-0.3-0.3
	c0-0.2,0.1-0.5,0.3-0.9s0.5-0.6,0.7-0.7c0.6-0.1-0.2-0.5-2.1-1.1c-0.4-0.1-0.6-0.2-0.7-0.1c-0.1,0-0.1,0.1-0.2,0.3
	c-0.3,1.4-1,3-2,4.8c-1,1.8-2.2,3.3-3.5,4.7c-0.3,0.3-0.5,0.5-0.5,0.6c0,0.1,0,0.1,0.2,0.1s0.8-0.4,1.9-1.2c0.3-0.2,0.5-0.3,0.6-0.4
	c0.1,0,0.2,0,0.3,0.1c0,0,0.1,0.3,0.1,0.8c0,0.4,0,1.9,0,4.3c0,0.1,0,0.1,0,0.1c0,2.7,0,4.2,0,4.7c0,0.5,0.1,0.9,0.2,1.2l0,0
	C191.9,42.6,193,43.1,194.8,43.3z M202.4,34.4c-1.2,0-1.9,0-2.1-0.1c-0.2-0.1-0.3-0.2-0.3-0.5c0-0.3,0-0.9,0-2.1c0-0.2,0-0.4,0-0.7
	c0-0.7,0-1.1,0-1.3c0-0.3,0.2-0.4,0.4-0.5c0.2,0,0.6-0.1,1.2-0.1c0.3,0,0.5,0,0.6,0s0.4,0,0.7,0c0.6,0,1,0,1.2,0
	c0.2,0.1,0.4,0.2,0.5,0.5c0,0.2,0.1,0.6,0,1.3c0,0.3,0,0.5,0,0.7c0,1.1,0,1.8,0,2c0,0.2-0.1,0.4-0.2,0.5
	C204.3,34.4,203.7,34.4,202.4,34.4z M195.7,34.4c-1.2,0-1.9,0-2-0.1c-0.2-0.2-0.3-1-0.3-2.5s0.1-2.3,0.3-2.5c0.1-0.1,0.8-0.1,2-0.1
	c1.2,0,1.9,0,2,0.1c0.2,0.2,0.3,1,0.3,2.4s-0.1,2.3-0.3,2.4C197.6,34.4,197,34.4,195.7,34.4z M196.1,28.6c-1.5,0-2.3,0-2.4-0.1
	c-0.4-0.1-0.5-0.3-0.5-0.4c0-0.2,0.3-0.6,0.7-1.1c0.2-0.2,0.5-0.6,0.9-1.1c0,0,0.1-0.1,0.1-0.2c0.2-0.3,0.4-0.5,0.6-0.6
	c0.2,0,0.7-0.1,1.6-0.1c0.2,0,0.4,0,0.5,0c1,0,1.6,0,1.9,0c0.4,0,0.6,0.2,0.6,0.3c0,0.1,0,0.4-0.2,0.8c-0.6,1.4-1.1,2.1-1.4,2.3
	C198.3,28.5,197.5,28.6,196.1,28.6z M219.2,43.8c0.2,0.1,0.4,0.1,0.8,0c0.4-0.1,0.7-0.2,1-0.5c0.2-0.1,0.3-0.2,0.3-0.4
	c0-0.1,0-0.6,0-1.3c-0.1-2.3-0.2-4.4-0.1-6.5c0-2,0.2-3.1,0.3-3.1c0.2,0,0.2-0.1,0.2-0.3c0-0.1-0.1-0.3-0.3-0.4
	c-0.3-0.2-0.4-0.4-0.4-0.6c0-0.2,0.2-0.5,0.5-0.9c0.1-0.1,0.2-0.2,0.3-0.4c0.3-0.3,0.4-0.6,0.5-0.7c0.4-0.5,0.7-0.8,0.9-0.8
	c0.3-0.1,0.3-0.2,0-0.4c-0.2-0.2-0.8-0.6-1.8-1.1c-0.4-0.2-0.6-0.3-0.6-0.3c-0.1,0-0.1,0-0.2,0.2c-0.3,1.2-0.9,2.5-1.7,4
	c-0.8,1.5-1.7,2.9-2.8,4.2c-0.1,0.2-0.2,0.3-0.2,0.3c0,0,0,0.1,0,0.1c0.1,0.1,0.2,0,0.4-0.1c0.2-0.2,0.7-0.5,1.4-1.1
	c0.4-0.3,0.6-0.5,0.8-0.6c0.1,0,0.3,0,0.3,0.2c0.1,0.1,0.1,1.2,0.1,3.3c0,2.1-0.1,3.8-0.1,5.1c-0.1,0.9-0.1,1.4-0.1,1.6
	C218.9,43.6,219,43.7,219.2,43.8z M235.6,43.6c0.3,0.1,0.4,0.1,0.5,0.1c0,0,0.1-0.1,0.2-0.2c0.3-0.8,0.7-1.4,1.3-1.6
	c0.3-0.2,0.4-0.3,0.4-0.3s-0.4-0.2-1.1-0.3c-1.6-0.3-3.1-0.8-4.2-1.3c-0.5-0.2-0.7-0.4-0.8-0.6c0-0.2,0.1-0.4,0.5-0.8
	c0.7-0.8,1.3-1.5,1.8-2.4c0.3-0.5,0.6-0.7,0.9-0.8c0.3-0.1,0.4-0.2,0.4-0.5c-0.1-0.2-0.4-0.6-0.9-1.1l0,0c-0.5-0.4-0.8-0.7-0.9-0.7
	c-0.1,0-0.4,0.2-0.8,0.5l0,0c-0.4,0.3-0.6,0.5-0.8,0.6c-0.2,0-0.6,0.1-1.2,0.1c-0.1,0-0.1,0-0.1,0c-0.7,0-1.1,0-1.2,0
	c-0.2,0-0.3-0.1-0.3-0.2c0-0.2,0-0.4,0.3-0.7s0.4-0.5,0.6-0.5c0.2,0,0.3-0.1,0.3-0.2c0-0.1-0.1-0.2-0.3-0.3c-0.1,0-0.2-0.1-0.2-0.2
	c-0.1-0.1-0.1-0.2-0.1-0.2c0-0.1,0.6-0.3,1.8-0.5c0.6-0.1,1.2-0.2,2.1-0.4c0.6-0.1,1-0.1,1.2,0.1c0.2,0.2,0.5,0.7,0.8,1.5
	c0.1,0.4,0.4,0.6,0.7,0.6c0.3,0,0.6,0,0.8-0.2c0.3-0.2,0.4-0.6,0.4-0.9c0-0.8-0.4-1.5-1.1-2.2c-0.7-0.7-1.6-1.3-2.9-1.8
	c-0.4-0.2-0.7-0.2-0.7-0.2c0,0.1,0.1,0.3,0.4,0.7c0.5,0.6,0.8,1,0.8,1.2c0.1,0.2,0,0.4-0.4,0.5c-0.2,0-0.9,0.1-1.9,0.1
	c-1,0-1.6,0-1.9,0c-0.4,0-0.6-0.1-0.5-0.3c0-0.1,0.3-0.3,0.7-0.7c0.8-0.7,1.9-1.6,3.1-2.8c0.7-0.6,1.1-1,1.2-1.2
	c0.2-0.1,0.3-0.2,0.6-0.3c0.2,0,0.1-0.2-0.1-0.4c-0.2-0.2-0.7-0.6-1.5-1.1c-0.4-0.3-0.6-0.4-0.7-0.4c-0.1,0-0.2,0.1-0.2,0.2l0,0
	c-0.3,0.6-0.7,1.4-1.2,2.3c-0.5,0.9-1.1,1.7-1.7,2.4c-0.1,0.1-0.3,0.3-0.5,0.6c-0.1,0.2-0.2,0.3-0.2,0.3c0,0-0.1,0.1-0.1,0.2
	c-0.3,0.4-0.6,0.7-0.8,0.8c-0.3,0.2-0.6,0.3-1.1,0.3c-0.4,0-1.2,0-2.5,0c-0.2,0-0.3,0-0.4,0c-0.3,0-0.5,0-0.6,0c0,0,0.1,0.5,0.3,1.2
	c0.2,0.8,0.4,1.2,0.4,1.2s0.1,0,0.3,0c0.1-0.1,0.2-0.1,0.2-0.2c0-0.1,0.4-0.3,1.3-0.4c0.9-0.1,1.4-0.2,1.5,0c0.3,0.3-0.1,1.1-1,2.6
	s-1.9,2.8-3,3.8c-0.4,0.3-0.6,0.6-0.6,0.6c0,0.1,0,0.2,0.1,0.2c0.1,0.1,0.7-0.2,1.6-0.8c0.9-0.6,1.7-1.2,2.4-1.9
	c0.4-0.4,0.6-0.5,0.8-0.5c0.1,0,0.3,0.2,0.6,0.7c0.2,0.4,0.4,0.8,0.6,1.1c0.3,0.4,0.4,0.8,0.4,0.9c0,0.2-0.2,0.4-0.5,0.7
	c-0.8,0.6-1.7,1.3-2.9,1.9c-1.2,0.6-2.2,1.1-3.1,1.4c-0.2,0.1-0.3,0.2-0.2,0.2c0.1,0.1,0.3,0.1,0.6,0c2.5-0.5,4.6-1.3,6.6-2.4
	c0.5-0.3,0.8-0.4,1-0.4c0.2,0,0.4,0.1,0.7,0.3c1.3,1,2.9,1.9,4.7,2.5C235.5,43.6,235.6,43.6,235.6,43.6z M230.1,38.1
	c-0.2,0.1-0.3,0.1-0.5,0.1c-0.2-0.1-0.4-0.2-0.7-0.6c-0.8-0.8-1.2-1.4-1.2-1.7c0-0.3,0.2-0.6,0.4-0.6s0.8-0.2,1.7-0.2
	c0.9,0,1.4,0,1.6,0.1c0.2,0,0.3,0.2,0.3,0.4c0,0.2-0.2,0.6-0.6,1.3C230.6,37.6,230.3,38,230.1,38.1z M226.8,29c0.4,0.2,0.7,0.2,1,0
	c0.3-0.2,0.5-0.5,0.5-0.9c0-0.2,0-0.4-0.1-0.6c-0.1-0.2-0.3-0.5-0.6-0.9c-0.1-0.2-0.2-0.3-0.1-0.4c0.1-0.1,0.3-0.4,0.7-0.7
	c0.5-0.5,1-0.9,1.4-1.3l0,0c0.6-0.6,0.9-0.9,1.1-0.9c0.3-0.1,0.3-0.2,0.1-0.3c-0.2-0.2-0.7-0.4-1.5-0.9c-0.1,0-0.2-0.1-0.3-0.1
	c-0.5-0.2-0.7-0.4-0.8-0.3c-0.1,0-0.2,0.1-0.2,0.4c0,0.1,0,0.2,0,0.2c-0.3,1.1-0.6,1.9-0.7,2.4c-0.2,0.5-0.4,0.8-0.7,0.9
	c-0.2,0.1-0.5,0.1-0.9-0.1c-0.9-0.4-1.4-0.5-1.7-0.5c-0.2,0-0.1,0.3,0.3,0.7c1,1.2,1.8,2.2,2.2,3C226.5,28.8,226.7,28.9,226.8,29z
	 M216.4,28c0.2,0.1,0.8-0.3,2.1-1.2c1.2-0.9,2.3-1.8,3.2-2.6c0.4-0.4,0.6-0.6,0.7-0.7c0.1-0.1,0.3-0.2,0.4-0.2
	c0.2,0,0.3-0.1,0.2-0.2c-0.1-0.1-0.3-0.3-0.7-0.6c-0.1-0.1-0.4-0.3-0.8-0.5c-0.1-0.1-0.2-0.1-0.3-0.2c-0.4-0.3-0.6-0.4-0.6-0.4
	c-0.1,0-0.2,0.1-0.2,0.4c-0.3,0.8-0.8,1.8-1.5,2.8c-0.6,1-1.4,1.9-2.1,2.7c-0.2,0.2-0.4,0.4-0.4,0.5C216.3,27.9,216.3,28,216.4,28z
	 M252.9,35.6c0.1,0.2,0.2,0.3,0.4,0.3c0.2,0,0.5-0.2,0.9-0.6c0.9-0.7,1.6-1.6,2-2.8c0.4-1.1,0.4-2.1,0.1-2.9
	c-0.3-0.9-0.9-1.3-1.8-1.2c-0.6,0-1,0.3-1.3,0.7c-0.2,0.4-0.3,0.9-0.1,1.4c0.2,0.5,0.5,1,1.1,1.3c0.3,0.2,0.5,0.3,0.6,0.5
	c0.1,0.1,0.1,0.2,0.1,0.4c-0.1,0.4-0.3,0.8-0.6,1.3c-0.4,0.5-0.8,0.8-1.2,1.2c-0.2,0.1-0.3,0.2-0.3,0.3
	C252.8,35.3,252.8,35.4,252.9,35.6z M289.2,43.6c0.2,0.2,0.6,0.1,1.3-0.2c0.7-0.3,1.2-0.6,1.3-1c0,0,0,0,0-0.1
	c0.1-0.2,0.2-0.6,0.2-1.3c0-0.7,0-2.9,0-6.6c0-0.8,0-1.4,0-1.9c0-0.4,0-0.9,0-1.6c0-2.8,0-4.6,0-5.4c0-1.1,0-1.8,0.1-2
	c0-0.2,0.1-0.3,0.2-0.4c0,0,0.1,0,0.1,0c0.2-0.2,0.2-0.3-0.1-0.5c-0.3-0.2-0.9-0.4-1.8-0.6c0,0-0.1,0-0.1,0
	c-0.4-0.1-0.6-0.1-0.6-0.1c0,0-0.1,0.2,0,0.5c0,0,0,0.1,0,0.1c0.1,0.8,0.2,1.7,0.2,2.7c0,0.9,0,3.4,0,7.5c0,3.9,0,6.2,0,6.9
	c0,0.7,0,1-0.1,1.1c-0.1,0.2-0.3,0.3-0.6,0.3s-0.9,0-1.8,0c-0.5,0-0.8,0-0.9,0c-0.1,0-0.2,0.1-0.2,0.1c0,0.1,0.1,0.2,0.4,0.2
	c0.7,0.1,1.2,0.4,1.6,0.8c0.4,0.4,0.6,0.8,0.6,1.3C289.1,43.5,289.2,43.6,289.2,43.6z M277.7,43.8c0.2,0.1,0.6,0,1-0.1
	c0.4-0.1,0.7-0.3,0.9-0.5c0.1-0.1,0.1-0.1,0.1-0.2c0,0,0-0.2,0-0.4c-0.1-1.3-0.1-3.2-0.1-5.8c0-2.5,0-3.8,0.1-4
	c0.2-0.2,0.5,0,0.9,0.6c0.5,0.7,0.8,1.4,1.2,2.3c0.2,0.6,0.5,0.9,0.9,1c0.4,0.1,0.7-0.1,1-0.6c0.3-0.6,0.2-1.4-0.4-2.2
	c-0.6-0.8-1.5-1.5-2.7-2.1c-0.4-0.2-0.7-0.4-0.8-0.5c-0.1-0.1-0.2-0.3-0.2-0.6v0c0-0.4,0-0.6,0-0.7c0.1-0.1,0.3-0.2,0.6-0.3
	c0.2,0,0.8,0,1.7,0c0.1,0,0.1,0,0.2,0c1.2,0,1.9,0,2.1,0c0.2,0,0.3-0.1,0.4-0.2c0.1-0.2-0.3-0.7-1.2-1.6l0,0
	c-0.4-0.4-0.7-0.6-0.8-0.6c-0.1,0-0.4,0.3-0.7,0.8c-0.3,0.4-0.5,0.7-0.6,0.8c-0.1,0.1-0.4,0.1-0.7,0.1c-0.4,0-0.6,0-0.6-0.1
	c-0.1-0.1-0.2-0.3-0.2-0.6c0-0.2,0-0.8,0-1.7c0-1,0-1.6,0.1-1.8c0.1-0.2,0.3-0.3,0.6-0.4c1.6-0.4,2.6-0.6,3.1-0.5
	c0.4,0.1,0.7,0.1,0.7,0c0-0.1-0.2-0.4-0.6-0.8c-0.1-0.1-0.3-0.2-0.4-0.4c-0.6-0.6-1-0.9-1.2-1c-0.2-0.1-0.5,0-0.9,0.2
	c-0.1,0.1-0.2,0.1-0.3,0.2c-2.5,1.3-5,2.2-7.5,2.9c-0.4,0.1-0.6,0.2-0.7,0.2c-0.1,0-0.1,0.1,0,0.2c0,0.1,1.2,0.1,3.6-0.2
	c0,0,0.1,0,0.2,0c0.5-0.1,0.9-0.1,1-0.1c0.2,0,0.3,0.2,0.4,0.4c0,0.2,0,0.6,0,1.3c0,0.1,0,0.2,0,0.2c0,0.1,0,0.3,0,0.4
	c0,0.6,0,1,0,1.1c-0.1,0.2-0.2,0.3-0.5,0.4c-0.2,0-0.6,0.1-1.2,0c-0.2,0-0.4,0-0.5,0c-0.9,0-1.8,0-2.4-0.1c-0.4,0-0.6,0-0.6,0
	c0,0,0,0.2,0.2,0.5c0.1,0.3,0.2,0.5,0.3,0.6c0,0,0.2,0,0.6-0.1c0.8-0.1,1.5-0.2,2.1-0.2c0.6,0,1,0,1.1,0.1c0.2,0.2,0.1,0.9-0.4,2
	c-0.4,1.1-1,2.3-1.8,3.6c-0.8,1.4-1.6,2.5-2.3,3.4c0,0-0.1,0.1-0.1,0.1c-0.2,0.2-0.3,0.3-0.3,0.4c0,0,0,0.1,0,0.1
	c0.1,0.1,0.2,0.1,0.2,0.1c0.1,0,0.3-0.2,0.6-0.4c1.4-1.1,2.7-2.4,3.9-4.1c0.3-0.4,0.5-0.7,0.7-0.8s0.2,0,0.3,0.1
	c0.1,0.1,0.1,1,0.1,2.5c0,1.5-0.1,3.1-0.1,4.8c0,0.8-0.1,1.3,0,1.4C277.3,43.6,277.4,43.7,277.7,43.8z M285.3,38.7
	c0.2,0,0.6,0,1-0.1c0.4-0.1,0.7-0.3,0.9-0.5c0.1-0.1,0.1-0.2,0.1-0.2c0-0.1,0-0.4,0-0.9c-0.1-2-0.1-4.8-0.1-8.3c0-0.1,0-0.3,0-0.6
	c0-1.5,0-2.4,0-2.7c0-0.3,0.1-0.5,0.3-0.6c0,0,0.1-0.1,0.1-0.1c0.2-0.2,0.2-0.3-0.1-0.5c-0.3-0.2-0.9-0.4-1.9-0.6c0,0-0.1,0-0.1,0
	c-0.3-0.1-0.5-0.1-0.5,0c0,0,0,0.2,0,0.5c0,0,0,0.1,0,0.1c0.1,0.8,0.1,1.5,0.2,2.3c0,0.8,0,2.2,0,4.5c0,3,0,4.8-0.1,5.3
	c-0.1,1.2-0.1,1.8-0.1,2C285,38.5,285.1,38.6,285.3,38.7z M299.8,43.6c0.1,0.1,0.2,0.1,0.4-0.1c2-1.7,3.3-4,3.9-6.9c0,0,0-0.1,0-0.2
	c0.1-0.3,0.1-0.6,0.2-0.6c0.1-0.1,0.3-0.2,0.6-0.2c0.2,0,0.7,0,1.4,0c0.2,0,0.3,0,0.4,0c0.1,0,0.3,0,0.5,0c0.8,0,1.3,0,1.5,0
	c0.3,0,0.5,0.1,0.6,0.3c0.1,0.1,0.1,0.4,0.1,0.8c0,0.1,0,0.2,0,0.2c0,1.9,0,3.6-0.1,5.1c0,0.6,0,1,0,1.1c0,0.1,0,0.2,0.1,0.3
	c0.2,0.2,0.4,0.2,0.9,0.2c0.4,0,0.8-0.2,1.1-0.4c0.2-0.1,0.3-0.2,0.3-0.3c0-0.1,0-0.4,0-0.9c0-0.9-0.1-2.2-0.1-3.7
	c0-1.5,0-2.4,0-2.4c0.1-0.2,0.2-0.3,0.5-0.3c0.2,0,0.9,0,2.1,0c0.2,0,0.4,0,0.8,0c0.7,0,1.1,0,1.3,0c0.3,0.1,0.4,0.2,0.5,0.5
	c0,0.2,0.1,0.7,0,1.4c0,0.3,0,0.6,0,0.8c0,0.1,0,0.3,0,0.6c0,0.9,0,1.5-0.1,1.7c-0.1,0.3-0.2,0.5-0.5,0.6c-0.2,0-0.6,0-1.3,0
	c-0.2,0-0.3,0-0.4,0c-0.6-0.1-0.9-0.1-1,0c-0.1,0.1,0.1,0.2,0.5,0.4c1.1,0.3,1.8,0.9,1.9,1.9c0,0.2,0,0.3,0.1,0.3c0.1,0,0.2,0,0.4,0
	c0.8-0.1,1.3-0.3,1.7-0.6c0.4-0.2,0.6-0.6,0.8-1.1c0-0.2,0.1-3.1,0.1-8.7c0,0,0-0.1,0-0.2c0-4,0-6.4,0-7.2c0-0.8,0-1.2,0.1-1.2
	c0.1-0.2,0.3-0.3,0.5-0.4c0.3-0.2,0.4-0.3,0.3-0.5c-0.1-0.2-0.5-0.6-1.2-1.1c-0.5-0.4-0.9-0.6-1-0.6c-0.1,0-0.3,0.1-0.6,0.5
	c-0.3,0.4-0.6,0.6-0.7,0.7c-0.1,0-2,0.1-5.6,0.1c-3.6,0-5.5,0-5.7,0c0,0-0.1-0.1-0.3-0.1c-0.4-0.2-0.8-0.3-1.1-0.4
	c-0.7-0.3-1.1-0.5-1.2-0.5c0,0,0,0.4,0,1.3c0,0.4,0.1,2.2,0.1,5.4c0,3.1,0,4.9-0.1,5.5c-0.3,3.7-1.1,6.6-2.4,8.6
	C299.8,43.4,299.7,43.6,299.8,43.6z M314.1,34.8c-1.4,0-2.2,0-2.3-0.1c-0.1-0.1-0.2-0.2-0.3-0.4c0-0.2,0-0.9,0-2c0-0.2,0-0.4,0-0.7
	c0-0.7,0-1.1,0-1.3c0.1-0.3,0.2-0.4,0.5-0.5c0.2,0,0.6-0.1,1.3,0c0.3,0,0.5,0,0.7,0s0.4,0,0.7,0c0.7,0,1.2,0,1.4,0
	c0.3,0.1,0.4,0.2,0.5,0.5c0,0.2,0.1,0.6,0.1,1.3c0,0.3,0,0.5,0,0.7c0,1.1,0,1.8,0,2c0,0.2-0.1,0.4-0.3,0.5
	C316.3,34.7,315.6,34.8,314.1,34.8z M306.5,34.8c-0.8,0-1.3,0-1.5,0c-0.3,0-0.5-0.1-0.5-0.3c0-0.1,0-0.3,0-0.7c0-0.1,0-0.1,0-0.2
	c0-0.2,0-0.7,0-1.6c0-0.2,0-0.4,0-0.5s0-0.3,0-0.4c0-0.5,0-0.9,0.1-1c0.1-0.2,0.2-0.3,0.5-0.4c0.2,0,0.6,0,1.3,0c0.2,0,0.4,0,0.6,0
	c0.2,0,0.4,0,0.6,0c0.7,0,1.1,0,1.2,0c0.2,0.1,0.4,0.2,0.5,0.5c0,0.2,0.1,0.6,0.1,1.3c0,0.3,0,0.5,0,0.6c0,1.1,0,1.8,0,2
	c0,0.2-0.1,0.4-0.3,0.5c-0.1,0.1-0.2,0.1-0.4,0.1c-0.2,0-0.8,0-1.8,0C306.8,34.8,306.7,34.8,306.5,34.8z M314.1,29
	c-1.4,0-2.2,0-2.3-0.1c-0.1-0.1-0.2-0.2-0.3-0.4c0-0.2,0-0.9,0-1.9c0-0.2,0-0.4,0-0.7c0-0.7,0-1.1,0-1.2c0.1-0.3,0.2-0.4,0.5-0.5
	c0.2,0,0.6-0.1,1.3,0c0.3,0,0.6,0,0.8,0c0.2,0,0.4,0,0.7,0c0.7,0,1.2,0,1.3,0c0.3,0.1,0.4,0.2,0.5,0.5c0,0.2,0.1,0.6,0,1.3
	c0,0.3,0,0.5,0,0.7c0,1,0,1.7,0,1.9c0,0.2-0.1,0.4-0.2,0.5C316.3,29,315.6,29,314.1,29z M307,29c-1.3,0-2,0-2.1-0.1
	c-0.1-0.1-0.2-0.2-0.3-0.4c0-0.2,0-0.9,0-1.9c0-0.2,0-0.4,0-0.7c0-0.7,0-1.1,0-1.2c0.1-0.2,0.2-0.4,0.5-0.5c0.2,0,0.6-0.1,1.2,0
	c0.3,0,0.5,0,0.7,0c0.2,0,0.4,0,0.7,0c0.6,0,1,0,1.2,0.1c0.2,0.1,0.4,0.2,0.4,0.5c0,0.2,0.1,0.6,0,1.3c0,0.3,0,0.5,0,0.7
	c0,1,0,1.6,0,1.9c0,0.2-0.1,0.4-0.2,0.5C309,29,308.3,29,307,29z M27.7,67.8c0.2,0.2,0.6,0.2,1.1,0c0.6-0.2,0.9-0.4,0.9-0.6
	c0-0.2,0.1-0.3,0.2-0.4c0.1-0.1,0.5-0.1,1-0.1c0.4,0,1.3,0,2.8,0c0.1,0,0.2,0,0.4,0c1.3,0,2.1,0,2.4,0c0.5,0,0.8,0.1,0.9,0.2
	c0.1,0.1,0.1,0.2,0.1,0.5c0,0,0,0.1,0,0.1c0,0.2,0.1,0.4,0.3,0.4c0.2,0,0.6,0,1-0.2c0.4-0.1,0.7-0.3,0.7-0.4s0.1-0.5,0.1-1.2
	c0,0,0-0.1,0-0.1c0-1.6,0-2.6,0-3c0-0.4,0.1-0.6,0.3-0.7c0.3-0.1,0.2-0.4-0.3-0.8c-0.4-0.3-0.5-0.5-0.6-0.7c0-0.1,0.2-0.3,0.5-0.5
	c0,0,0,0,0.1,0c0.2-0.1,0.3-0.2,0.3-0.3c0-0.1,0-0.5,0-1.2c0-0.1,0-0.2,0-0.2c0-1,0.1-1.6,0.1-1.7c0.1-0.2,0.3-0.2,0.6,0
	c0.1,0.1,0.2,0.1,0.2,0.1c0,0,0.1-0.1,0.2-0.3c0.1-0.3,0.3-0.5,0.6-0.8c0.2-0.3,0.5-0.4,0.7-0.5c0.2-0.1,0.3-0.2,0.2-0.3
	c0-0.1-0.3-0.1-0.7-0.2c-1-0.2-1.9-0.4-2.6-0.7c-0.7-0.3-1.2-0.6-1.4-0.8c-0.2-0.3-0.1-0.5,0.3-0.7c0.3-0.1,0.4-0.2,0.4-0.3
	c0-0.1-0.2-0.2-0.5-0.5c-0.6-0.4-0.9-0.7-0.9-0.8c0-0.2,0.2-0.2,0.7-0.3c0.7,0,1,0.2,1,0.6c0,0.2,0.1,0.3,0.2,0.3
	c0.2,0,0.4,0,0.9-0.1c0.5-0.2,0.9-0.3,1-0.5c0.1-0.2,0.1-0.6,0.1-1.2c0-0.8,0-1.3,0-1.5c0-0.2,0.2-0.4,0.5-0.6
	c0.3-0.2,0.4-0.3,0.4-0.4c0-0.1-0.3-0.4-0.8-0.8c-0.5-0.4-0.8-0.7-1.1-0.9c-0.1-0.1-0.3-0.1-0.4,0c-0.1,0.1-0.3,0.2-0.5,0.6
	c0,0-0.1,0.1-0.1,0.2c-0.1,0.2-0.3,0.3-0.4,0.4c-0.2,0.1-0.7,0.1-1.3,0.1c-0.5,0-1.6,0-3.5,0c-0.7,0-1.3,0-1.7,0
	c-3.1,0-4.9,0-5.5-0.1c-0.6,0-1.1-0.2-1.7-0.4c-0.7-0.3-1.1-0.4-1.2-0.5c-0.1,0-0.2-0.1-0.2,0c0,0,0,0.2,0,0.4
	c0.1,0.8,0.2,2.7,0.1,5.5c0,2.8,0,4.9-0.1,6.3c-0.3,3.5-0.9,6.4-2,8.8c-0.2,0.5-0.3,0.7-0.1,0.7c0.1,0,0.4-0.2,0.7-0.6
	c0.4-0.4,0.7-0.9,1.1-1.5c1.2-1.9,2-4.4,2.4-7.5c0.1-0.5,0.1-0.8,0.2-0.9c0.1-0.2,0.2-0.3,0.5-0.4c0.3-0.2,0.5-0.2,0.6-0.2
	c0.1,0,0.2,0.3,0.3,0.6c0,0.3,0,0.9,0,1.8c0,1.1,0,1.7,0,1.8c0,0.2,0.1,0.3,0.1,0.3c0.2,0,0.4,0.4,0.4,1.1c0.1,0.7,0,2-0.1,3.7
	c0,0.8-0.1,1.3-0.1,1.5C27.5,67.6,27.6,67.7,27.7,67.8z M37.1,65.9C37,66,35.8,66,33.5,66c-2.3,0-3.5-0.1-3.6-0.1
	c-0.2-0.1-0.3-0.3-0.3-0.6c0-0.3,0.1-0.5,0.2-0.7c0.1-0.1,1.3-0.1,3.6-0.1c2.3,0,3.5,0,3.7,0.1c0.2,0.1,0.3,0.4,0.3,0.7
	C37.4,65.5,37.3,65.8,37.1,65.9z M33.6,63.7c-2.3,0-3.5,0-3.6,0c-0.2-0.1-0.3-0.3-0.4-0.6c0-0.4,0.1-0.6,0.3-0.7
	c0.1-0.1,1.3-0.1,3.6-0.1c2.3,0,3.5,0,3.6,0.1c0.2,0.1,0.3,0.3,0.3,0.7c0,0.3-0.1,0.6-0.3,0.7C37.1,63.7,35.9,63.7,33.6,63.7z
	 M33.5,61.5c-2.3,0-3.5,0-3.8-0.1c-0.5-0.1-0.8-0.3-1-0.6c-0.1-0.3,0-0.5,0.4-0.7c0.2-0.1,1.6-0.1,4.3-0.1c2.7,0,4.1,0.1,4.2,0.1
	c0.2,0.1,0.2,0.3,0.1,0.6c-0.1,0.3-0.4,0.5-0.7,0.6C37,61.5,35.8,61.5,33.5,61.5z M32.4,59.3c-0.2,0.2-0.5,0.2-1.1,0
	c-0.1,0-0.3,0-0.5,0c-0.2,0-0.4,0.1-0.8,0.1c-0.4,0-0.6,0-0.7-0.1c-0.2-0.1-0.3-0.2-0.3-0.4c0-0.2,0-0.6,0-1.4c0-0.1,0-0.2,0-0.4
	c0-0.7,0.1-1.2,0.2-1.3c0.1-0.1,0.6-0.2,1.3-0.2c0.2,0,0.3,0,0.4,0c0.1,0,0.2,0,0.3,0c0.8,0,1.2,0.1,1.3,0.2
	c0.1,0.1,0.2,0.6,0.2,1.4c0,0.2,0,0.3,0,0.4C32.7,58.5,32.6,59.1,32.4,59.3z M36.7,59.4c-0.5,0-0.8,0-0.9,0c0,0-0.2,0-0.6,0
	c-0.3,0-0.6,0-0.6-0.1c-0.1-0.1-0.2-0.2-0.2-0.5c0-0.2,0-0.6,0-1.3c0-0.9,0-1.4,0.1-1.6c0.1-0.2,0.3-0.3,0.7-0.2
	c0.3,0,0.4,0.1,0.5,0.1c0.1,0.1,0.1,0.2,0.1,0.4c-0.1,0.7-0.2,1.3-0.4,2c-0.1,0.5-0.1,0.7,0,0.7s0.5-0.3,1-0.9
	c0.4-0.4,0.7-0.7,0.9-0.8c0.1-0.1,0.3-0.2,0.4-0.1c0.3,0,0.4,0.4,0.4,1c0,0.6-0.1,1-0.4,1.1C37.6,59.3,37.3,59.4,36.7,59.4z
	 M31.1,59.1c0,0,0.1-0.1,0.3-0.2c0.3-0.2,0.5-0.5,0.5-0.9c0-0.3-0.2-0.7-0.5-1c-0.3-0.3-0.6-0.5-0.8-0.7c-0.3-0.2-0.5-0.2-0.6-0.2
	c-0.1,0-0.1,0.2,0,0.4c0.3,0.6,0.4,1.1,0.5,1.5c0,0,0,0.1,0,0.1c0,0.2,0,0.4,0.1,0.5c0,0,0.1,0.1,0.3,0.2C30.9,59,31,59.1,31.1,59.1
	z M37.9,56.3c-0.1,0.1-0.3,0.1-0.5,0c-0.3-0.1-0.5-0.2-0.6-0.4c-0.1-0.2,0-0.3,0.3-0.3c0.4-0.1,0.6,0,0.7,0.1
	c0.1,0.1,0.1,0.2,0.1,0.3S37.9,56.3,37.9,56.3z M26.1,55.6c-0.2,0.1-0.3,0.1-0.3,0.1c-0.1,0-0.1-0.2-0.1-0.6c0-0.3,0-0.8,0-1.8
	c0-0.2,0-0.5,0-0.9c0-0.7,0-1.1,0.1-1.2c0.1-0.2,0.4-0.4,0.9-0.5c0.4,0,1.2,0,2.6,0c0.8,0,1.4,0,1.9,0c0.2,0,0.4,0,0.8,0
	c1.9,0,3.1,0,3.6,0c0.7,0,1.1,0.1,1.1,0.2c0.1,0.1,0,0.3-0.3,0.6c0,0.1-0.1,0.1-0.1,0.1c-0.1,0.2-0.7,0.3-1.8,0.3c-1,0-2,0-2.8-0.2
	c-0.1,0-0.2,0-0.2,0.1c0,0.1,0.1,0.2,0.2,0.5c0,0,0,0.1,0.1,0.1c0.1,0.2,0.2,0.3,0.3,0.4c0.1,0,0.3,0,0.6,0c0.1,0,0.2,0,0.2,0
	c1.1-0.2,2-0.2,2.7-0.2c0.7,0,1.1,0.2,1.3,0.5c0,0,0.1,0.2,0.2,0.4c0.1,0.2,0.2,0.3,0.3,0.4c0.2,0.4,0.3,0.6,0.4,0.7
	s-0.1,0.3-0.2,0.3c-0.1,0.1-1.5,0.1-4,0.1c-2.5,0-3.8,0-3.9-0.1c-0.3-0.1-0.2-0.3,0-0.6c0.9-0.8,1.4-1.2,1.5-1.2
	c0.3,0,0.4-0.1,0.2-0.2c-0.1-0.1-0.4-0.4-1-0.7c-0.7-0.4-1.1-0.6-1.2-0.7c-0.1,0-0.2,0-0.3,0.2c-0.2,0.5-0.6,1.3-1.3,2.3
	C26.9,54.8,26.4,55.4,26.1,55.6z M32.3,50c-4,0-6.1,0-6.3-0.1c-0.2-0.1-0.3-0.5-0.4-1.1c0-0.6,0.1-1,0.3-1.2
	c0.1-0.1,2.2-0.1,6.3-0.1c4.1,0,6.2,0,6.4,0.1c0.2,0.1,0.3,0.5,0.3,1.2c0,0.6-0.1,1-0.4,1.1C38.5,50,36.4,50,32.3,50z M52.7,67.7
	c0.2,0.1,0.4,0.1,0.8,0c0.4-0.1,0.7-0.2,1-0.4c0.2-0.1,0.3-0.2,0.3-0.3c0-0.1,0-0.4,0-1c-0.1-1.6-0.1-3.4-0.1-5.7
	c0-2.2,0-3.4,0.1-3.5c0.2-0.4,0.5-0.5,0.8-0.4c0.3,0.1,0.5,0.3,0.6,0.7c0,0.3,0.1,0.5,0.1,0.6c0,0.1,0.1,0.1,0.3,0.2
	c0.4,0.2,0.7,0.2,1,0c0.3-0.2,0.5-0.6,0.5-1.1c0-0.5-0.2-1.1-0.6-1.6c-0.4-0.5-1-1-1.7-1.5c-0.3-0.2-0.5-0.3-0.6-0.2
	c-0.1,0.1,0,0.3,0.2,0.6c0.3,0.7,0.4,1.1,0.3,1.3c-0.1,0.2-0.6,0.3-1.5,0.3c-0.7,0-1,0-1.1-0.1c-0.1-0.1,0-0.4,0.4-0.9
	c0.9-1.2,1.9-2.5,2.9-4c0.3-0.4,0.5-0.7,0.6-0.8c0.1-0.1,0.3-0.2,0.4-0.3c0.3-0.1,0.3-0.2,0-0.4c-0.3-0.2-0.9-0.5-1.9-1
	c-0.3-0.1-0.4-0.2-0.5-0.1c0,0-0.1,0.2-0.2,0.4c-0.3,1.3-1.1,3.3-2.4,6c-0.3,0.6-0.5,1-0.7,1.1C51.4,56,51,56,50.3,56.1
	c0,0-0.1,0-0.1,0c-0.1,0-0.2,0-0.3,0c-0.4,0-0.6,0.1-0.7,0.1c0,0.1,0,0.3,0.1,0.6c0,0.1,0.1,0.2,0.1,0.3c0,0,0,0.1,0,0.1
	c0.2,0.6,0.3,0.9,0.4,1s0.2,0,0.4-0.2c0.2-0.2,0.6-0.4,1.3-0.5c0.5-0.1,0.8-0.1,0.9,0c0.1,0.1,0.2,0.4,0.2,0.9
	c0,0.7-0.1,1.1-0.2,1.2c-0.1,0.1-0.6,0.1-1.4-0.1c-0.1,0-0.2,0-0.3-0.1c-0.4-0.1-0.7-0.1-0.7-0.1c-0.1,0-0.1,0.2-0.1,0.5
	c0,0.1,0,0.2,0,0.2c0,1.7-0.2,3.4-0.7,5.1c-0.1,0.3-0.1,0.5-0.1,0.5c0,0.1,0,0.1,0.1,0.1c0.2,0.1,0.5-0.3,1.1-1.2
	c0.5-0.9,1-1.9,1.3-3c0.2-0.5,0.3-0.8,0.4-1c0.1-0.2,0.3-0.2,0.4-0.1c0.3,0.2,0.3,2.1,0.1,5.9c0,0.5,0,0.8,0,1
	C52.5,67.5,52.6,67.7,52.7,67.7z M58.7,67.7c0,0,0.1,0.1,0.1,0c0.1,0,0.2-0.1,0.5-0.2l0.1,0c1.6-0.7,3.1-1.6,4.5-2.7
	c0.4-0.4,0.7-0.5,0.9-0.6c0.2,0,0.4,0.2,0.7,0.5c0.8,0.9,1.7,1.7,2.8,2.4c0.4,0.3,0.7,0.4,0.7,0.4c0.1,0,0.2-0.1,0.3-0.3
	c0.1-0.3,0.3-0.5,0.6-0.8c0.3-0.3,0.6-0.4,0.8-0.5c0.4-0.1,0.4-0.3-0.1-0.5c-1.6-0.6-2.9-1.4-3.9-2.3c-0.3-0.3-0.5-0.5-0.5-0.6
	c0-0.2,0.1-0.5,0.4-0.9c1-1.4,1.8-3.2,2.4-5.2c0.2-0.6,0.3-0.9,0.4-1.1c0.1-0.2,0.2-0.3,0.4-0.3c0.3-0.1,0.4-0.2,0.3-0.5
	c-0.1-0.2-0.4-0.6-0.9-1c-0.4-0.4-0.7-0.6-0.9-0.6c-0.1,0-0.3,0.1-0.6,0.4c-0.4,0.4-0.6,0.5-0.8,0.5c-0.2,0-0.2-0.2-0.3-0.5
	c0-0.3,0.1-1.2,0.2-2.7c0,0,0,0,0-0.1c0.1-1.3,0.2-2.1,0.3-2.3c0.1-0.3,0.2-0.4,0.5-0.6c0.2-0.1,0.3-0.3,0.1-0.5
	c-0.1-0.2-0.5-0.6-1-1c-0.4-0.3-0.6-0.5-0.7-0.5c-0.1,0-0.3,0.1-0.5,0.4c0,0.1-0.1,0.1-0.2,0.2c-0.2,0.3-0.4,0.4-0.7,0.5
	c-0.3,0-1.1,0.1-2.4,0c-0.5,0-0.9,0-1.2,0c-2.4,0-3.7,0-3.8,0c-0.2,0-0.3,0-0.3,0c0,0,0.1,0.2,0.2,0.5c0.1,0.3,0.2,0.4,0.3,0.5
	c0.1,0,0.2,0,0.3,0c0.3-0.1,0.5-0.2,0.8-0.2c0.3,0,0.5,0.1,0.6,0.2c0.2,0.2,0.2,1.8,0.1,4.7c-0.1,2.9-0.3,5.1-0.6,6.8
	c-0.2,1.3-0.4,2.1-0.6,2.4c-0.2,0.3-0.3,0.2-0.6-0.4c-0.4-0.9-1-1.6-1.9-2.2c-0.4-0.3-0.6-0.3-0.6-0.2c0,0.1,0,0.4,0.2,0.9
	c0.4,1.3,0.6,2.3,0.6,3c0,0.2,0.1,0.4,0.4,0.5c0.3,0.1,0.5,0.1,0.7,0c0.4-0.2,0.6,0,0.4,0.6c-0.2,0.6-0.6,1.5-1.2,2.6
	c-0.2,0.3-0.3,0.5-0.3,0.6c0,0.1,0,0.1,0.1,0.2c0.1,0.1,0.2,0.1,0.2,0c0.1,0,0.2-0.2,0.4-0.4c1.1-1.2,2-2.6,2.7-4.1
	c0.7-1.5,1.2-3.3,1.6-5.4c0.2-1,0.3-1.6,0.5-1.7c0.1-0.1,0.3,0.2,0.4,0.9c0.4,1.8,0.9,3.5,1.6,5c0.2,0.4,0.3,0.8,0.3,1
	c0,0.2-0.2,0.5-0.5,0.9c-1.2,1.4-2.6,2.6-4.2,3.5c-0.2,0.1-0.4,0.2-0.4,0.3S58.6,67.6,58.7,67.7L58.7,67.7z M65.1,60.9
	c-0.3,0.3-0.8-0.1-1.4-1.1c-0.6-1-1.1-2.3-1.5-3.8c0,0,0,0,0-0.1c-0.1-0.4-0.1-0.6-0.1-0.7c0-0.1,0.2-0.2,0.6-0.2c0.2,0,0.8,0,1.7,0
	c0.1,0,0.1,0,0.2,0c0.9,0,1.5,0,1.8,0c0.4,0,0.6,0.1,0.6,0.1c0.1,0.1,0.1,0.2,0.1,0.4c0,0.4-0.3,1.4-0.8,2.8
	C65.8,59.8,65.4,60.6,65.1,60.9z M63.1,54.3c-0.7,0-1.1,0-1.2,0c-0.2-0.1-0.3-0.2-0.4-0.4c0-0.2,0-0.6,0-1.2c0-1.1,0.1-2,0.1-2.7
	c0-0.1,0-0.2,0-0.4c0-0.6,0-1,0.1-1.2c0.1-0.2,0.2-0.4,0.4-0.5c0.1,0,0.5,0,1.1,0c0.1,0,0.3,0,0.3,0c0.1,0,0.3,0,0.5,0
	c0.5,0,0.8,0,1,0.1c0.2,0.1,0.3,0.3,0.3,0.6c0,0.2,0,0.8-0.1,1.7c0,0.4-0.1,0.7-0.1,0.9c0,0.1,0,0.2,0,0.3c-0.1,1.3-0.2,2.1-0.3,2.4
	c0,0.2-0.2,0.4-0.3,0.4C64.2,54.3,63.8,54.3,63.1,54.3z M51.2,53.2c0.4,0.2,0.7,0.2,0.9-0.1c0.2-0.2,0.4-0.5,0.4-0.9
	c0-0.4-0.1-0.8-0.4-1.1c-0.2-0.3-0.3-0.5-0.3-0.6c0-0.2,0.3-0.5,0.7-1c0.4-0.5,0.7-0.9,0.9-1.2c0.7-0.9,1.1-1.4,1.3-1.5
	c0.3-0.1,0.3-0.2,0.2-0.4c-0.1-0.1-0.6-0.3-1.2-0.6c-0.8-0.3-1.2-0.5-1.3-0.5c-0.1,0-0.2,0.1-0.2,0.3c-0.1,0.7-0.2,1.6-0.5,2.5
	c-0.2,0.9-0.4,1.5-0.6,1.6c-0.1,0.2-0.4,0.2-0.8,0c-0.6-0.2-0.9-0.3-1.1-0.3c-0.1,0-0.1,0.2,0.2,0.5c0.7,0.8,1.1,1.6,1.4,2.4
	c0.1,0.3,0.1,0.4,0.2,0.5C51,53.1,51.1,53.2,51.2,53.2z M82.2,67.9c0.1,0.1,0.5-0.1,1.2-0.6c0.7-0.5,1.3-1,1.8-1.5
	c0.4-0.4,0.9-1,1.5-1.8c0.2-0.3,0.3-0.4,0.5-0.3c0.1,0,0.3,0.3,0.6,0.7c0.8,1.2,1.8,2,2.9,2.4c1.1,0.4,2.9,0.6,5.4,0.6
	c0.1,0,0.2,0,0.3,0c0.7,0,1.1,0,1.2,0c0.1,0,0.2-0.1,0.2-0.3c0-0.3,0.1-0.5,0.3-0.8c0.2-0.3,0.3-0.5,0.5-0.6
	c0.2-0.1,0.3-0.2,0.2-0.3c0,0-0.8-0.1-2.4-0.1c-0.2,0-0.3,0-0.4,0c-1.3,0-2.2,0-2.6,0c-0.4,0-0.7-0.1-0.9-0.2
	c-0.2-0.1-0.4-0.1-0.3-0.2c0-0.1,0.2-0.2,0.5-0.4c0.3-0.2,0.5-0.3,0.6-0.4c0.1-0.1,0.1-0.3,0.1-0.5c0,0,0-0.1,0-0.1
	c-0.1-0.7-0.1-1.1,0-1.3c0-0.3,0.2-0.4,0.5-0.5c0.2,0,0.8-0.1,1.6-0.1c0.1,0,0.1,0,0.2,0c0.9,0,1.5,0,1.8-0.1
	c0.3-0.1,0.4-0.2,0.3-0.4c-0.1-0.2-0.4-0.5-0.9-1c-0.4-0.4-0.7-0.6-0.9-0.6s-0.3,0.2-0.6,0.6c-0.2,0.4-0.4,0.6-0.6,0.7
	c-0.1,0.1-0.3,0.1-0.6,0.1c-0.4,0-0.6-0.1-0.7-0.2c-0.1-0.2-0.2-0.5-0.1-1.1c0,0,0-0.1,0-0.1c0-0.4,0-0.6,0.1-0.7
	c0.1-0.1,0.2-0.2,0.5-0.3c0.2,0,0.6,0,1.3,0c0,0,0.1,0,0.1,0c1.1,0,1.7-0.1,1.8-0.2c0.1-0.1-0.1-0.5-0.7-1.1
	c-0.4-0.4-0.7-0.7-0.9-0.7c-0.1,0-0.4,0.2-0.7,0.6c-0.5,0.7-0.9,0.9-1.3,0.6c-0.2-0.2-0.4-0.6-0.3-1.2c0-0.7,0.2-1,0.4-1.2
	c0.2-0.1,0.5-0.1,0.8,0c0.3,0.1,0.5,0.2,0.5,0.4c0,0.1,0.1,0.2,0.4,0.2c0.2,0,0.5-0.1,0.8-0.2c0.4-0.1,0.6-0.3,0.6-0.4
	c0.1-0.1,0.1-0.4,0-0.9c0-0.8-0.1-1.4,0-1.6c0-0.3,0.1-0.6,0.3-0.7c0.1-0.1,0.4-0.1,0.8-0.1c0.4,0,0.6,0,0.7-0.1
	c0.1,0,0.2-0.1,0.2-0.3c0-0.1-0.2-0.3-0.6-0.8c-0.4-0.5-0.6-0.7-0.6-0.7c0,0-0.1,0.1-0.2,0.2c-0.1,0.2-0.2,0.2-0.3,0.2
	c-0.1,0-0.2-0.1-0.2-0.3c-0.1-0.3-0.1-0.6,0-0.9c0.1-0.3,0.2-0.5,0.3-0.6c0.2-0.1,0.3-0.2,0.3-0.4c0-0.2-0.3-0.4-0.7-0.7
	c-0.4-0.4-0.8-0.6-0.9-0.6c-0.1,0-0.3,0.1-0.6,0.3c-0.5,0.6-1.1,0.8-1.6,0.5c-0.2-0.1-0.3-0.3-0.3-0.6c0-0.3,0.1-0.5,0.3-0.6
	c0.2-0.2,0.2-0.3,0-0.5c-0.2-0.2-0.8-0.4-1.6-0.6c0,0-0.1,0-0.1,0c-0.3-0.1-0.4-0.1-0.5,0c0,0-0.1,0.3,0,0.7c0,0.1,0,0.1,0,0.2
	c0,0.7,0,1.2-0.1,1.3s-0.4,0.2-0.9,0.2c-0.3,0-0.5,0-0.6,0c-0.1,0-0.1-0.1-0.2-0.1c-0.8-0.8-1.3-1.2-1.5-1.3
	c-0.3-0.1-0.5-0.1-0.7,0.1c-0.5,0.5-1.4,0.7-2.7,0.5c-0.2,0-0.3,0-0.3,0c0,0,0,0.1,0,0.2c0.2,0.5-0.1,0.5-0.9,0
	c-0.1,0-0.2-0.1-0.3-0.2C83,47.1,82.9,47,82.8,47c-0.5-0.3-0.6-0.5-0.3-0.7c0.1-0.1,0.1-0.1,0.1-0.2c0,0-0.6-0.2-1.6-0.4
	c-1-0.2-1.6-0.3-1.6-0.2c0,0,0,0.2-0.1,0.4c-0.1,0.9-0.3,2.1-0.8,3.4c-0.4,1.3-1,2.4-1.6,3.4c-0.2,0.3-0.3,0.5-0.2,0.6
	c0.1,0,0.1,0,0.2,0c0.1-0.1,0.3-0.2,0.6-0.5c0.3-0.3,0.6-0.5,0.7-0.5c0.1-0.1,0.4-0.1,0.8-0.1c0.5,0,0.7,0.1,0.8,0.2
	s0.1,0.7,0.1,1.5v0c0,0.7,0,1.1-0.1,1.3c-0.1,0.2-0.3,0.4-0.6,0.4c-0.2,0-0.8,0-1.7-0.1c0,0,0,0-0.1,0c-0.3,0-0.4,0-0.5,0
	c0,0,0,0.2,0.2,0.4c0,0,0,0.1,0,0.1c0.1,0.3,0.2,0.4,0.3,0.5c0,0,0.1,0.1,0.2,0c0.3-0.1,0.6-0.2,1.1-0.2c0.4,0,0.7,0,0.9,0
	c0.1,0.1,0.2,0.2,0.2,0.4c0,0.2,0,0.7,0,1.6c0,1.1-0.1,1.7-0.1,1.8c0,0.1-0.2-0.1-0.5-0.6C79,59,78.7,58.5,78.3,58
	c-0.4-0.5-0.6-0.7-0.8-0.6c-0.1,0-0.1,0.1-0.1,0.1c0,0.1,0.1,0.3,0.1,0.6c0.3,1,0.4,2,0.4,3c0,0.5,0.1,0.9,0.1,1
	c0,0.1,0.1,0.2,0.3,0.3c0.2,0.1,0.4,0.1,0.5,0.1c0.1-0.1,0.3-0.2,0.5-0.5c0.2-0.3,0.4-0.4,0.4-0.3c0.1,0.1,0.1,0.4,0.1,1
	c0,0.6,0,1-0.2,1.2c-0.1,0.1-0.6,0.3-1.4,0.5c-0.7,0.1-1,0.2-1.1,0.2c-0.1,0-0.1,0-0.2,0.1c0,0,0,0.1,0,0.3c0,0.2,0.2,0.7,0.5,1.5
	c0.1,0.4,0.2,0.6,0.3,0.6c0.1,0,0.2-0.1,0.4-0.3c0.1-0.1,0.3-0.3,0.5-0.4c0.2-0.1,0.8-0.4,1.7-0.9c3-1.5,4.6-2.4,4.6-2.5
	c0-0.1-0.1-0.1-0.2-0.1c-0.1,0-0.5,0.1-1.2,0.3c-0.9,0.2-1.4,0.3-1.6,0.2c-0.2-0.1-0.2-0.4-0.1-1.1c0-0.3,0-0.6,0-0.9
	c0-0.4-0.1-1.3-0.1-2.6c0-1.3,0-2,0.1-2.1c0.1-0.1,0.2-0.2,0.3-0.2c0.1,0,0.6-0.1,1.2-0.1c0.7,0,1.2-0.1,1.4-0.1
	c0.2-0.1,0.2-0.2,0.1-0.5c-0.2-0.4,0-0.6,0.5-0.6c0.2,0,0.4-0.1,0.5-0.1c0.2-0.2,0.5-0.3,0.8-0.3c0.3,0,0.5,0.1,0.6,0.3
	c0.1,0.2,0.1,0.8,0,1.8c-0.1,1-0.2,1.6-0.3,1.9c-0.1,0.2-0.2,0.3-0.3,0.2c-0.1-0.1-0.2-0.4-0.3-0.8c-0.1-0.5-0.2-0.8-0.1-0.9
	s0.1-0.3,0.3-0.6c0,0,0,0,0-0.1c0.2-0.3,0.2-0.4,0.2-0.5c0,0-0.1-0.1-0.3-0.1c0,0-0.1,0-0.1,0c-0.2,0-0.3,0-0.4,0
	c0,0-0.1,0.2-0.1,0.5c0,0.3-0.1,0.5-0.1,0.6c-0.1,0.1-0.2,0.3-0.4,0.4c-0.2,0.2-0.4,0.3-0.6,0.3c-0.2,0-0.6-0.1-1.2-0.3
	c0,0-0.1,0-0.1,0c-0.4-0.1-0.6-0.2-0.6-0.1c0,0-0.1,0.2,0,0.5c0,0.1,0,0.1,0,0.2c0,1,0,2-0.2,3.1c-0.2,1-0.1,1.4,0.2,1.3
	c0.1,0,0.3-0.3,0.5-0.8c0.3-0.5,0.5-1.1,0.7-1.6c0.2-0.5,0.4-0.8,0.5-0.8c0.2-0.1,0.4,0,0.6,0.2c0.3,0.3,0.4,0.3,0.3,0
	c0-0.2,0-0.3,0.2-0.5c0.1-0.2,0.3-0.2,0.4-0.1c0.1,0,0.2,0.4,0.3,1.1c0.1,0.7,0.2,1.2,0.2,1.3c-0.1,0.8-0.5,1.8-1.2,3.1
	c-0.8,1.3-1.6,2.3-2.4,3C82.3,67.5,82.2,67.8,82.2,67.9z M91.4,64.7c-0.1,0.2-0.5,0.1-1.1-0.2s-1.2-0.7-1.6-1.2
	c-0.4-0.4-0.7-0.8-0.8-1.1c-0.1-0.3,0-0.6,0.2-0.9c0.1-0.2,0.3-0.3,0.3-0.2c0.1,0,0.2,0.2,0.3,0.5c0.1,0.1,0.1,0.2,0.2,0.2
	c0.1,0,0.2,0,0.3,0c1-0.3,1.6-0.3,1.9-0.1c0.3,0.2,0.4,0.9,0.3,2c0,0.4,0,0.7,0,0.8C91.4,64.5,91.5,64.6,91.4,64.7z M91.1,60.8
	c-0.1,0.1-0.4,0.1-0.9,0.1c-0.5,0-1-0.1-1.6-0.1c-0.2,0-0.3-0.1-0.3-0.3c0-0.2,0.1-0.6,0.2-1.2c0.2-0.8,0.4-1,0.7-0.7
	c0.1,0.1,0.1,0.1,0.2,0.1c0,0,0.1,0,0.3-0.1c0.8-0.3,1.3-0.3,1.6,0c0.1,0.2,0.2,0.5,0.1,1.1C91.4,60.4,91.3,60.7,91.1,60.8z
	 M91.1,57.7c-0.1,0.1-0.4,0.1-0.9,0.1c-0.5,0-0.8-0.1-1-0.2c-0.2-0.1-0.2-0.5-0.1-1.2c0.1-0.7,0.2-1.1,0.4-1.3
	c0.2-0.1,0.3-0.1,0.4,0c0,0,0.2,0.1,0.6,0.1c0.4,0,0.7,0.1,0.8,0.2c0.1,0.1,0.2,0.5,0.2,1.1c0,0.4,0,0.7,0,0.9
	C91.3,57.5,91.3,57.6,91.1,57.7z M82.3,55.2c-0.2,0.1-0.3,0.1-0.4-0.1c-0.1-0.2-0.1-0.7-0.1-1.4c0,0,0,0,0-0.1
	c0-0.7,0.1-1.1,0.2-1.2c0.1-0.1,0.5-0.2,1.1-0.2h0.1c0.5,0,0.8,0,0.9,0c0.1,0,0.2-0.1,0.3-0.2c0.1-0.1,0-0.3-0.3-0.7
	c-0.2-0.3-0.4-0.5-0.4-0.6c0-0.1,0.1-0.2,0.3-0.2c0.3,0,0.6-0.1,0.7-0.2c0.2-0.1,0.3-0.3,0.4-0.6c0.1-0.3,0-0.5-0.1-0.8
	c-0.1-0.3-0.1-0.5,0-0.6c0.1-0.1,0.4-0.2,1-0.3c0.4,0,0.6,0,0.6,0.2c0.1,0.2,0,0.6-0.2,1.3c-0.2,0.6-0.6,1.7-1.3,3.3
	c-0.4,1-0.7,1.5-0.8,1.7c-0.1,0.2-0.4,0.1-0.7-0.1c-0.2-0.1-0.3-0.2-0.4-0.1c-0.1,0-0.3,0.2-0.5,0.6C82.5,55,82.4,55.2,82.3,55.2z
	 M91.1,54.5c-0.3,0.2-0.6,0.2-0.9,0c-0.3-0.1-0.7-0.5-1.2-0.9c-0.4-0.4-0.7-0.6-0.8-0.7c-0.1-0.1-0.2,0-0.3,0.1
	c-0.2,0.4-0.5,0.6-0.7,0.8c-0.2,0.1-0.4,0.2-0.6,0c-0.1-0.1-0.1-0.3,0-0.5c0.1-0.3,0.3-0.8,0.6-1.6c0.1-0.2,0.2-0.4,0.3-0.8
	c0-0.1,0.1-0.2,0.1-0.3c0.3-0.9,0.6-1.5,0.7-1.8c0.2-0.3,0.3-0.5,0.5-0.5c0.3-0.1,0.5,0,0.6,0.2c0,0.1,0.1,0.2,0.2,0.2
	c0.1,0,0.2,0,0.6,0c0.5,0,0.9,0.1,1,0.2c0.1,0.1,0.2,0.5,0.2,1.1c0,0.5,0,0.8-0.1,1c-0.1,0.2-0.4,0.3-0.7,0.3c-0.3,0-0.9,0-1.9-0.1
	c0,0,0,0-0.1,0c-0.3,0-0.5,0-0.6,0c0,0,0,0.2,0.1,0.4c0,0,0,0.1,0,0.1c0.2,0.3,0.3,0.5,0.3,0.5c0.1,0,0.2,0,0.3,0
	c0.4-0.1,0.8-0.2,1.3-0.2c0.5,0,0.8,0,0.9,0.1c0.2,0.1,0.3,0.5,0.3,1.2C91.5,53.9,91.4,54.3,91.1,54.5z M94.1,54.5
	c-0.4,0-0.6-0.1-0.7-0.2c-0.1-0.2-0.1-0.5-0.1-1.1c0-0.6,0-0.9,0.1-1.1c0.1-0.2,0.3-0.2,0.7-0.2s0.6,0.1,0.7,0.2
	c0.1,0.1,0.1,0.5,0.1,1.1c0,0.4,0,0.7-0.1,0.9c0,0.1-0.1,0.2-0.2,0.3C94.5,54.5,94.4,54.5,94.1,54.5z M94.6,51.2
	c-0.8,0.4-1.2,0-1.2-1.2c0-0.5,0-0.9,0.1-1c0.1-0.2,0.3-0.2,0.6-0.2c0.3,0,0.5,0.2,0.7,0.6C95,49.6,95,50,95,50.4
	C95,50.8,94.8,51.1,94.6,51.2z M80.5,51.5c-0.5,0-0.9,0-1,0c-0.2-0.1-0.3-0.2-0.2-0.3c0-0.2,0.2-0.4,0.5-0.9
	c0.5-0.7,0.9-1.3,1.2-1.9c0.1-0.1,0.2-0.3,0.3-0.5c0-0.1,0.1-0.2,0.1-0.2c0.2-0.4,0.4-0.5,0.6-0.4c0.2,0.1,0.4,0.5,0.7,1.1
	c0.7,1.4,0.7,2,0.2,1.8c-0.2-0.1-0.4,0.1-0.6,0.4c-0.3,0.4-0.6,0.7-0.8,0.9C81.3,51.4,81,51.5,80.5,51.5z M119.7,67.7
	c0.1,0.1,0.4,0,1-0.1c0.6-0.1,1-0.3,1.3-0.5c0.3-0.2,0.5-0.4,0.6-0.6c0.1-0.2,0.2-0.6,0.2-1.3c0-0.5,0-1.5,0-3c0-0.3,0-0.7,0-1.2
	c0-1,0-1.6,0-1.9c0-0.4,0.2-0.6,0.3-0.7c0.1-0.1,0.4-0.1,0.9-0.1c0.2,0,0.4,0,0.6,0c1.1,0,1.7-0.1,1.8-0.2c0.1-0.1-0.1-0.5-0.7-1.2
	c-0.5-0.6-0.9-0.9-1.1-1c-0.2,0-0.4,0.2-0.7,0.7c-0.2,0.4-0.4,0.6-0.5,0.7c-0.1,0.1-0.2,0.1-0.3,0.1c-0.3,0-0.4-0.3-0.4-1
	s0.1-1.1,0.4-1.2c0.2-0.1,0.2-0.3-0.1-0.5c-0.3-0.2-0.9-0.4-1.8-0.6c0,0-0.1,0-0.1,0c-0.3-0.1-0.5-0.1-0.6-0.1c0,0,0,0.2,0,0.4v0.1
	c0,0.5,0.1,1,0.1,1.5c0,0.1,0,0.2,0,0.4c0,0.4,0,0.7,0,0.8c-0.1,0.2-0.3,0.3-0.6,0.3c-0.2,0-0.7,0-1.6,0c-0.3,0-0.5,0-0.7,0
	c-2.2,0-3.8,0-4.8-0.1c-0.3,0-0.4,0-0.4,0c0,0,0.1,0.2,0.2,0.6c0,0,0,0.1,0,0.1c0.1,0.2,0.2,0.4,0.3,0.4c0.1,0,0.4,0,0.9-0.1
	c0.1,0,0.2,0,0.2,0c0.7-0.1,1.8-0.1,3.5-0.1c1.6,0,2.5,0,2.6,0.1c0.1,0.1,0.2,0.3,0.2,0.6c0,0.3,0,1.2,0,2.7c0,0.2,0,0.5,0,0.8
	c0,1.1,0,1.7,0,2c-0.1,0.4-0.2,0.6-0.5,0.7c-0.2,0-0.6,0-1.3,0c-0.2,0-0.4,0-0.5,0c-0.8,0-1.3-0.1-1.5,0c-0.1,0-0.2,0.1-0.1,0.2
	c0,0,0.1,0.1,0.4,0.1c1.5,0.2,2.3,0.9,2.5,1.9C119.7,67.6,119.7,67.7,119.7,67.7z M110,67.7c0.2,0.1,0.4,0.1,0.8,0
	c0.4-0.1,0.7-0.2,1-0.4l0,0c0.2-0.1,0.3-0.3,0.4-0.4c0-0.1,0-0.5,0-1c-0.1-2.3-0.1-5.3-0.1-9.2c0-1.7,0-3.3,0-4.9
	c-0.1-3,0-4.7,0.4-4.9c0.2-0.1,0.2-0.3,0-0.4c-0.2-0.1-0.8-0.3-1.8-0.6c-0.5-0.1-0.8-0.2-0.9-0.2c-0.1,0-0.1,0.1-0.1,0.3
	c0.1,0.8,0.2,2,0.2,3.8c0,1.8,0,2.8,0,2.9c-0.1,0.2-0.4,0.3-0.8,0.4c-0.5,0-0.8,0-1-0.1c-0.3-0.2-0.4-1-0.3-2.5s0.2-2.3,0.5-2.5
	c0.2-0.1,0.2-0.3,0-0.4c-0.3-0.1-0.8-0.3-1.7-0.6c-0.4-0.1-0.7-0.2-0.7-0.1s-0.1,0.1,0,0.4v0c0.1,0.9,0.2,2.3,0.2,4.3
	c0,1.6,0,2.6,0,3c0,0.4,0,0.6,0,0.7c0.1,0.1,0.3,0.1,0.6,0.1c0.9,0,1.3-0.4,1.4-0.9c0-0.4,0.3-0.7,0.9-0.9c0.6-0.1,1,0,1.2,0.4
	c0.1,0.1,0.1,0.7,0.1,1.6c0,0.9,0,1.4-0.1,1.6c-0.1,0.2-0.6,0.3-1.5,0.3c-0.9,0-2,0-3.5-0.1c-0.2,0-0.3,0-0.3,0c0,0,0.1,0.2,0.2,0.5
	c0.1,0.3,0.2,0.4,0.3,0.5c0,0,0.1,0,0.2,0c0.3-0.2,0.5-0.2,0.6-0.1c0.2,0.1,0.3,0.3,0.3,0.6c0.1,1.2,0,2.7-0.3,4.3
	c-0.3,1.6-0.6,2.8-1,3.7c-0.1,0.3-0.2,0.5-0.2,0.6s0.1,0.2,0.2,0.2c0.1,0,0.4-0.2,0.7-0.6c0.4-0.4,0.7-0.9,1-1.3
	c0.5-0.8,0.8-1.7,1-2.7c0.2-1,0.4-2.3,0.5-3.9c0-0.4,0.2-0.7,0.4-0.9c0.3-0.2,0.6-0.2,0.9,0c0.4,0.2,0.5,2.8,0.2,8c0,0.6,0,1,0,1.1
	C109.8,67.5,109.9,67.6,110,67.7z M116.9,63.6c0.5,0.2,0.8,0.1,1.1-0.2c0.2-0.3,0.3-0.7,0.2-1.2c-0.1-0.5-0.4-1-0.8-1.4
	c-0.4-0.4-0.8-0.7-1.4-1c-0.5-0.3-0.9-0.4-1.2-0.4c-0.3,0-0.4,0.1-0.1,0.4c0.8,1,1.4,2.1,1.7,3.1c0.1,0.3,0.1,0.4,0.2,0.5
	C116.6,63.5,116.7,63.5,116.9,63.6z M112.5,56.9c0,0.1,0.5,0,1.4-0.3c4.4-1.3,7.9-3.4,10.4-6.6c0.3-0.4,0.5-0.7,0.7-0.8
	c0.2-0.1,0.4-0.2,0.6-0.3c0.4-0.1,0.5-0.2,0.5-0.4c0-0.2-0.3-0.5-0.9-0.9s-0.9-0.7-1-0.7c-0.1,0-0.4,0.1-0.6,0.4c0,0,0,0-0.1,0.1
	c-0.3,0.3-0.5,0.4-0.7,0.5c-0.2,0-0.6,0.1-1.4,0.1c-0.1,0-0.1,0-0.2,0c-0.8,0-1.4,0-1.6,0c-0.2,0-0.3-0.1-0.3-0.2
	c0-0.1,0-0.3,0.2-0.6c0.2-0.2,0.4-0.4,0.6-0.4c0.4-0.1,0.4-0.2,0.1-0.3c-0.2-0.2-0.9-0.4-1.8-0.8l0,0c-0.4-0.1-0.7-0.2-0.8-0.2
	c-0.1,0-0.2,0.1-0.2,0.3c-0.3,0.9-0.9,1.9-1.8,3.1c-0.9,1.2-1.8,2.1-2.6,2.8c-0.2,0.2-0.4,0.3-0.4,0.4c0,0.1,0,0.1,0,0.2
	c0.1,0,0.4-0.1,1.2-0.4c0.4-0.2,0.6-0.2,0.8-0.2c0.2,0,0.4,0.2,0.6,0.6c0.4,0.5,0.6,0.9,0.7,1.4c0,0.1,0.1,0.2,0.2,0.3
	c0.1,0.1,0.3,0.1,0.5,0.2c0.4,0.1,0.2,0.4-0.4,0.8c-0.6,0.4-1.6,0.9-3,1.5c-0.4,0.1-0.6,0.2-0.6,0.3
	C112.4,56.7,112.4,56.8,112.5,56.9z M117.8,53.7c-0.3,0.1-0.4,0.2-0.4,0.1c0,0,0-0.2,0-0.6c0-0.4-0.1-0.8-0.4-1.1
	c-0.3-0.3-0.7-0.5-1.4-0.8c-0.3-0.1-0.4-0.3-0.3-0.6c0.1-0.3,0.5-0.5,1.1-0.8c0.2-0.1,0.6-0.1,1,0.2c0.4,0.3,0.8,0.7,1.2,1.2
	c0.1,0.2,0.2,0.3,0.3,0.3c0.1,0,0.2,0,0.5,0s0.3,0.1,0.2,0.3c-0.1,0.2-0.3,0.5-0.6,0.8C118.6,53.3,118.2,53.5,117.8,53.7z
	 M120.4,51.5c-0.2,0.1-0.3,0.2-0.3,0.1c0,0,0-0.2,0-0.4c0-0.4-0.1-0.7-0.4-1c-0.3-0.3-0.7-0.5-1.2-0.7c-0.3-0.1-0.5-0.2-0.6-0.2
	c-0.1-0.1-0.1-0.2,0-0.3c0.1-0.1,0.3-0.2,0.5-0.3c0.2,0,0.8,0,1.8,0c0.8,0,1.3,0,1.5,0c0.3,0,0.5,0,0.5,0.1c0,0,0.1,0.1,0,0.3
	c0,0.2-0.3,0.6-0.7,1.2C121,50.9,120.7,51.3,120.4,51.5z M139,67.8c0.2,0.2,0.6,0.2,1.1,0c0.6-0.2,0.9-0.4,0.9-0.6
	c0-0.2,0.1-0.3,0.2-0.4c0.1-0.1,0.5-0.1,1-0.1c0.4,0,1.3,0,2.8,0c0.1,0,0.2,0,0.4,0c1.3,0,2.1,0,2.4,0c0.5,0,0.8,0.1,0.9,0.2
	c0.1,0.1,0.1,0.2,0.1,0.5c0,0,0,0.1,0,0.1c0,0.2,0.1,0.4,0.3,0.4c0.2,0,0.6,0,1-0.2c0.4-0.1,0.7-0.3,0.7-0.4
	c0.1-0.1,0.1-0.5,0.1-1.2c0,0,0-0.1,0-0.1c0-1.6,0-2.6,0-3c0-0.4,0.1-0.6,0.3-0.7c0.3-0.1,0.2-0.4-0.3-0.8c-0.4-0.3-0.5-0.5-0.6-0.7
	c0-0.1,0.2-0.3,0.5-0.5c0,0,0,0,0.1,0c0.2-0.1,0.3-0.2,0.3-0.3s0-0.5,0-1.2c0-0.1,0-0.2,0-0.2c0-1,0.1-1.6,0.1-1.7
	c0.1-0.2,0.3-0.2,0.6,0c0.1,0.1,0.2,0.1,0.2,0.1c0,0,0.1-0.1,0.2-0.3c0.1-0.3,0.3-0.5,0.6-0.8c0.2-0.3,0.5-0.4,0.7-0.5
	c0.2-0.1,0.3-0.2,0.2-0.3c0-0.1-0.3-0.1-0.7-0.2c-1-0.2-1.9-0.4-2.6-0.7c-0.7-0.3-1.2-0.6-1.4-0.8c-0.2-0.3-0.1-0.5,0.3-0.7
	c0.3-0.1,0.4-0.2,0.4-0.3c0-0.1-0.2-0.2-0.5-0.5c-0.6-0.4-0.9-0.7-0.9-0.8c0-0.2,0.2-0.2,0.7-0.3c0.7,0,1,0.2,1,0.6
	c0,0.2,0.1,0.3,0.2,0.3c0.2,0,0.4,0,0.9-0.1c0.5-0.2,0.9-0.3,1-0.5c0.1-0.2,0.1-0.6,0.1-1.2c0-0.8,0-1.3,0-1.5
	c0-0.2,0.2-0.4,0.5-0.6c0.3-0.2,0.4-0.3,0.4-0.4c0-0.1-0.3-0.4-0.8-0.8c-0.5-0.4-0.8-0.7-1.1-0.9c-0.1-0.1-0.3-0.1-0.4,0
	c-0.1,0.1-0.3,0.2-0.5,0.6c0,0-0.1,0.1-0.1,0.2c-0.1,0.2-0.3,0.3-0.4,0.4c-0.2,0.1-0.7,0.1-1.3,0.1c-0.5,0-1.6,0-3.5,0
	c-0.7,0-1.3,0-1.7,0c-3.1,0-4.9,0-5.5-0.1c-0.6,0-1.1-0.2-1.7-0.4c-0.7-0.3-1.1-0.4-1.2-0.5c-0.1,0-0.2-0.1-0.2,0c0,0,0,0.2,0,0.4
	c0.1,0.8,0.2,2.7,0.1,5.5c0,2.8,0,4.9-0.1,6.3c-0.3,3.5-0.9,6.4-2,8.8c-0.2,0.5-0.3,0.7-0.1,0.7c0.1,0,0.4-0.2,0.7-0.6
	c0.4-0.4,0.7-0.9,1.1-1.5c1.2-1.9,2-4.4,2.4-7.5c0.1-0.5,0.1-0.8,0.2-0.9c0.1-0.2,0.2-0.3,0.5-0.4c0.3-0.2,0.5-0.2,0.6-0.2
	c0.1,0,0.2,0.3,0.3,0.6c0,0.3,0,0.9,0,1.8c0,1.1,0,1.7,0,1.8c0,0.2,0.1,0.3,0.1,0.3c0.2,0,0.4,0.4,0.4,1.1c0.1,0.7,0,2-0.1,3.7
	c0,0.8-0.1,1.3-0.1,1.5C138.9,67.6,138.9,67.7,139,67.8z M148.5,65.9c-0.1,0.1-1.3,0.1-3.6,0.1c-2.3,0-3.5-0.1-3.6-0.1
	c-0.2-0.1-0.3-0.3-0.3-0.6c0-0.3,0.1-0.5,0.2-0.7c0.1-0.1,1.3-0.1,3.6-0.1c2.3,0,3.5,0,3.7,0.1c0.2,0.1,0.3,0.4,0.3,0.7
	C148.8,65.5,148.7,65.8,148.5,65.9z M144.9,63.7c-2.3,0-3.5,0-3.6,0c-0.2-0.1-0.3-0.3-0.4-0.6c0-0.4,0.1-0.6,0.3-0.7
	c0.1-0.1,1.3-0.1,3.6-0.1c2.3,0,3.5,0,3.6,0.1c0.2,0.1,0.3,0.3,0.3,0.7c0,0.3-0.1,0.6-0.3,0.7C148.4,63.7,147.2,63.7,144.9,63.7z
	 M144.9,61.5c-2.3,0-3.5,0-3.8-0.1c-0.5-0.1-0.8-0.3-1-0.6c-0.1-0.3,0-0.5,0.4-0.7c0.2-0.1,1.6-0.1,4.3-0.1c2.7,0,4.1,0.1,4.2,0.1
	c0.2,0.1,0.2,0.3,0.1,0.6c-0.1,0.3-0.4,0.5-0.7,0.6C148.4,61.5,147.2,61.5,144.9,61.5z M143.8,59.3c-0.2,0.2-0.5,0.2-1.1,0
	c-0.1,0-0.3,0-0.5,0c-0.2,0-0.4,0.1-0.8,0.1c-0.4,0-0.6,0-0.7-0.1c-0.2-0.1-0.3-0.2-0.3-0.4c0-0.2,0-0.6,0-1.4c0-0.1,0-0.2,0-0.4
	c0-0.7,0.1-1.2,0.2-1.3c0.1-0.1,0.6-0.2,1.3-0.2c0.2,0,0.3,0,0.4,0c0.1,0,0.2,0,0.3,0c0.8,0,1.2,0.1,1.3,0.2
	c0.1,0.1,0.2,0.6,0.2,1.4c0,0.2,0,0.3,0,0.4C144,58.5,143.9,59.1,143.8,59.3z M148.1,59.4c-0.5,0-0.8,0-0.9,0c0,0-0.2,0-0.6,0
	c-0.3,0-0.6,0-0.6-0.1c-0.1-0.1-0.2-0.2-0.2-0.5c0-0.2,0-0.6,0-1.3c0-0.9,0-1.4,0.1-1.6c0.1-0.2,0.3-0.3,0.7-0.2
	c0.3,0,0.4,0.1,0.5,0.1c0.1,0.1,0.1,0.2,0.1,0.4c-0.1,0.7-0.2,1.3-0.4,2c-0.1,0.5-0.1,0.7,0,0.7s0.5-0.3,1-0.9
	c0.4-0.4,0.7-0.7,0.9-0.8c0.1-0.1,0.3-0.2,0.4-0.1c0.3,0,0.4,0.4,0.4,1c0,0.6-0.1,1-0.4,1.1C149,59.3,148.6,59.4,148.1,59.4z
	 M142.5,59.1c0,0,0.1-0.1,0.3-0.2c0.3-0.2,0.5-0.5,0.5-0.9c0-0.3-0.2-0.7-0.5-1c-0.3-0.3-0.6-0.5-0.8-0.7c-0.3-0.2-0.5-0.2-0.6-0.2
	c-0.1,0-0.1,0.2,0,0.4c0.3,0.6,0.4,1.1,0.5,1.5c0,0,0,0.1,0,0.1c0,0.2,0,0.4,0.1,0.5c0,0,0.1,0.1,0.3,0.2
	C142.3,59,142.4,59.1,142.5,59.1z M149.2,56.3c-0.1,0.1-0.3,0.1-0.5,0c-0.3-0.1-0.5-0.2-0.6-0.4c-0.1-0.2,0-0.3,0.3-0.3
	c0.4-0.1,0.6,0,0.7,0.1c0.1,0.1,0.1,0.2,0.1,0.3C149.3,56.2,149.3,56.3,149.2,56.3z M137.5,55.6c-0.2,0.1-0.3,0.1-0.3,0.1
	c-0.1,0-0.1-0.2-0.1-0.6c0-0.3,0-0.8,0-1.8c0-0.2,0-0.5,0-0.9c0-0.7,0-1.1,0.1-1.2c0.1-0.2,0.4-0.4,0.9-0.5c0.4,0,1.2,0,2.6,0
	c0.8,0,1.4,0,1.9,0c0.2,0,0.4,0,0.8,0c1.9,0,3.1,0,3.6,0c0.7,0,1.1,0.1,1.1,0.2c0.1,0.1,0,0.3-0.3,0.6c0,0.1-0.1,0.1-0.1,0.1
	c-0.1,0.2-0.7,0.3-1.8,0.3c-1,0-2,0-2.8-0.2c-0.1,0-0.2,0-0.2,0.1c0,0.1,0.1,0.2,0.2,0.5c0,0,0,0.1,0.1,0.1c0.1,0.2,0.2,0.3,0.3,0.4
	c0.1,0,0.3,0,0.6,0c0.1,0,0.2,0,0.2,0c1.1-0.2,2-0.2,2.7-0.2c0.7,0,1.1,0.2,1.3,0.5c0,0,0.1,0.2,0.2,0.4c0.1,0.2,0.2,0.3,0.3,0.4
	c0.2,0.4,0.3,0.6,0.4,0.7c0,0.1-0.1,0.3-0.2,0.3c-0.1,0.1-1.5,0.1-4,0.1c-2.5,0-3.8,0-3.9-0.1c-0.3-0.1-0.2-0.3,0-0.6
	c0.9-0.8,1.4-1.2,1.5-1.2c0.3,0,0.4-0.1,0.2-0.2c-0.1-0.1-0.4-0.4-1-0.7c-0.7-0.4-1.1-0.6-1.2-0.7c-0.1,0-0.2,0-0.3,0.2
	c-0.2,0.5-0.6,1.3-1.3,2.3C138.3,54.8,137.8,55.4,137.5,55.6z M143.6,50c-4,0-6.1,0-6.3-0.1c-0.2-0.1-0.3-0.5-0.4-1.1
	c0-0.6,0.1-1,0.3-1.2c0.1-0.1,2.2-0.1,6.3-0.1c4.1,0,6.2,0,6.4,0.1c0.2,0.1,0.3,0.5,0.3,1.2c0,0.6-0.1,1-0.4,1.1
	C149.8,50,147.7,50,143.6,50z M164.1,67.7c0.2,0.1,0.4,0.1,0.8,0c0.4-0.1,0.7-0.2,1-0.4c0.2-0.1,0.3-0.2,0.3-0.3c0-0.1,0-0.4,0-1
	c-0.1-1.6-0.1-3.4-0.1-5.7c0-2.2,0-3.4,0.1-3.5c0.2-0.4,0.5-0.5,0.8-0.4c0.3,0.1,0.5,0.3,0.6,0.7c0,0.3,0.1,0.5,0.1,0.6
	c0,0.1,0.1,0.1,0.3,0.2c0.4,0.2,0.7,0.2,1,0c0.3-0.2,0.5-0.6,0.5-1.1c0-0.5-0.2-1.1-0.6-1.6c-0.4-0.5-1-1-1.7-1.5
	c-0.3-0.2-0.5-0.3-0.6-0.2s0,0.3,0.2,0.6c0.3,0.7,0.4,1.1,0.3,1.3c-0.1,0.2-0.6,0.3-1.5,0.3c-0.7,0-1,0-1.1-0.1
	c-0.1-0.1,0-0.4,0.4-0.9c0.9-1.2,1.9-2.5,2.9-4c0.3-0.4,0.5-0.7,0.6-0.8c0.1-0.1,0.3-0.2,0.4-0.3c0.3-0.1,0.3-0.2,0-0.4
	c-0.3-0.2-0.9-0.5-1.9-1c-0.3-0.1-0.4-0.2-0.5-0.1c0,0-0.1,0.2-0.2,0.4c-0.3,1.3-1.1,3.3-2.4,6c-0.3,0.6-0.5,1-0.7,1.1
	c-0.2,0.1-0.6,0.2-1.3,0.2c0,0-0.1,0-0.1,0c-0.1,0-0.2,0-0.3,0c-0.4,0-0.6,0.1-0.7,0.1c0,0.1,0,0.3,0.1,0.6c0,0.1,0.1,0.2,0.1,0.3
	c0,0,0,0.1,0,0.1c0.2,0.6,0.3,0.9,0.4,1c0.1,0.1,0.2,0,0.4-0.2c0.2-0.2,0.6-0.4,1.3-0.5c0.5-0.1,0.8-0.1,0.9,0
	c0.1,0.1,0.2,0.4,0.2,0.9c0,0.7-0.1,1.1-0.2,1.2c-0.1,0.1-0.6,0.1-1.4-0.1c-0.1,0-0.2,0-0.3-0.1c-0.4-0.1-0.7-0.1-0.7-0.1
	c-0.1,0-0.1,0.2-0.1,0.5c0,0.1,0,0.2,0,0.2c0,1.7-0.2,3.4-0.7,5.1c-0.1,0.3-0.1,0.5-0.1,0.5c0,0.1,0,0.1,0.1,0.1
	c0.2,0.1,0.5-0.3,1.1-1.2c0.5-0.9,1-1.9,1.3-3c0.2-0.5,0.3-0.8,0.4-1c0.1-0.2,0.3-0.2,0.4-0.1c0.3,0.2,0.3,2.1,0.1,5.9
	c0,0.5,0,0.8,0,1C163.9,67.5,164,67.7,164.1,67.7z M170,67.7c0,0,0.1,0.1,0.1,0c0.1,0,0.2-0.1,0.5-0.2l0.1,0
	c1.6-0.7,3.1-1.6,4.5-2.7c0.4-0.4,0.7-0.5,0.9-0.6c0.2,0,0.4,0.2,0.7,0.5c0.8,0.9,1.7,1.7,2.8,2.4c0.4,0.3,0.7,0.4,0.7,0.4
	c0.1,0,0.2-0.1,0.3-0.3c0.1-0.3,0.3-0.5,0.6-0.8c0.3-0.3,0.6-0.4,0.8-0.5c0.4-0.1,0.4-0.3-0.1-0.5c-1.6-0.6-2.9-1.4-3.9-2.3
	c-0.3-0.3-0.5-0.5-0.5-0.6c0-0.2,0.1-0.5,0.4-0.9c1-1.4,1.8-3.2,2.4-5.2c0.2-0.6,0.3-0.9,0.4-1.1c0.1-0.2,0.2-0.3,0.4-0.3
	c0.3-0.1,0.4-0.2,0.3-0.5c-0.1-0.2-0.4-0.6-0.9-1c-0.4-0.4-0.7-0.6-0.9-0.6c-0.1,0-0.3,0.1-0.6,0.4c-0.4,0.4-0.6,0.5-0.8,0.5
	s-0.2-0.2-0.3-0.5c0-0.3,0.1-1.2,0.2-2.7c0,0,0,0,0-0.1c0.1-1.3,0.2-2.1,0.3-2.3c0.1-0.3,0.2-0.4,0.5-0.6c0.2-0.1,0.3-0.3,0.1-0.5
	c-0.1-0.2-0.5-0.6-1-1c-0.4-0.3-0.6-0.5-0.7-0.5c-0.1,0-0.3,0.1-0.5,0.4c0,0.1-0.1,0.1-0.2,0.2c-0.2,0.3-0.4,0.4-0.7,0.5
	c-0.3,0-1.1,0.1-2.4,0c-0.5,0-0.9,0-1.2,0c-2.4,0-3.7,0-3.8,0c-0.2,0-0.3,0-0.3,0c0,0,0.1,0.2,0.2,0.5c0.1,0.3,0.2,0.4,0.3,0.5
	c0.1,0,0.2,0,0.3,0c0.3-0.1,0.5-0.2,0.8-0.2c0.3,0,0.5,0.1,0.6,0.2c0.2,0.2,0.2,1.8,0.1,4.7c-0.1,2.9-0.3,5.1-0.6,6.8
	c-0.2,1.3-0.4,2.1-0.6,2.4c-0.2,0.3-0.3,0.2-0.6-0.4c-0.4-0.9-1-1.6-1.9-2.2c-0.4-0.3-0.6-0.3-0.6-0.2c0,0.1,0,0.4,0.2,0.9
	c0.4,1.3,0.6,2.3,0.6,3c0,0.2,0.1,0.4,0.4,0.5c0.3,0.1,0.5,0.1,0.7,0c0.4-0.2,0.6,0,0.4,0.6c-0.2,0.6-0.6,1.5-1.2,2.6
	c-0.2,0.3-0.3,0.5-0.3,0.6c0,0.1,0,0.1,0.1,0.2c0.1,0.1,0.2,0.1,0.2,0c0.1,0,0.2-0.2,0.4-0.4c1.1-1.2,2-2.6,2.7-4.1
	c0.7-1.5,1.2-3.3,1.6-5.4c0.2-1,0.3-1.6,0.5-1.7c0.1-0.1,0.3,0.2,0.4,0.9c0.4,1.8,0.9,3.5,1.6,5c0.2,0.4,0.3,0.8,0.3,1
	c0,0.2-0.2,0.5-0.5,0.9c-1.2,1.4-2.6,2.6-4.2,3.5c-0.2,0.1-0.4,0.2-0.4,0.3S170,67.6,170,67.7L170,67.7z M176.5,60.9
	c-0.3,0.3-0.8-0.1-1.4-1.1c-0.6-1-1.1-2.3-1.5-3.8c0,0,0,0,0-0.1c-0.1-0.4-0.1-0.6-0.1-0.7c0-0.1,0.2-0.2,0.6-0.2c0.2,0,0.8,0,1.7,0
	c0.1,0,0.1,0,0.2,0c0.9,0,1.5,0,1.8,0c0.4,0,0.6,0.1,0.6,0.1c0.1,0.1,0.1,0.2,0.1,0.4c0,0.4-0.3,1.4-0.8,2.8
	C177.1,59.8,176.7,60.6,176.5,60.9z M174.5,54.3c-0.7,0-1.1,0-1.2,0c-0.2-0.1-0.3-0.2-0.4-0.4c0-0.2,0-0.6,0-1.2
	c0-1.1,0.1-2,0.1-2.7c0-0.1,0-0.2,0-0.4c0-0.6,0-1,0.1-1.2c0.1-0.2,0.2-0.4,0.4-0.5c0.1,0,0.5,0,1.1,0c0.1,0,0.3,0,0.3,0
	c0.1,0,0.3,0,0.5,0c0.5,0,0.8,0,1,0.1c0.2,0.1,0.3,0.3,0.3,0.6c0,0.2,0,0.8-0.1,1.7c0,0.4-0.1,0.7-0.1,0.9c0,0.1,0,0.2,0,0.3
	c-0.1,1.3-0.2,2.1-0.3,2.4c0,0.2-0.2,0.4-0.3,0.4C175.6,54.3,175.2,54.3,174.5,54.3z M162.6,53.2c0.4,0.2,0.7,0.2,0.9-0.1
	c0.2-0.2,0.4-0.5,0.4-0.9c0-0.4-0.1-0.8-0.4-1.1c-0.2-0.3-0.3-0.5-0.3-0.6c0-0.2,0.3-0.5,0.7-1c0.4-0.5,0.7-0.9,0.9-1.2
	c0.7-0.9,1.1-1.4,1.3-1.5c0.3-0.1,0.3-0.2,0.2-0.4c-0.1-0.1-0.6-0.3-1.2-0.6c-0.8-0.3-1.2-0.5-1.3-0.5c-0.1,0-0.2,0.1-0.2,0.3
	c-0.1,0.7-0.2,1.6-0.5,2.5c-0.2,0.9-0.4,1.5-0.6,1.6c-0.1,0.2-0.4,0.2-0.8,0c-0.6-0.2-0.9-0.3-1.1-0.3c-0.1,0-0.1,0.2,0.2,0.5
	c0.7,0.8,1.1,1.6,1.4,2.4c0.1,0.3,0.1,0.4,0.2,0.5C162.4,53.1,162.5,53.2,162.6,53.2z M192.1,67.8c0.2,0,0.5,0,0.8,0
	c0.4-0.1,0.7-0.2,0.9-0.3c0,0,0,0,0.1,0c0.2-0.1,0.2-0.2,0.3-0.3c0-0.1,0-0.5,0-1.1c0-0.1,0-0.2,0-0.3c0-1-0.1-2.6-0.1-4.9
	c0-2.2,0-3.4,0-3.5c0.1-0.3,0.3-0.3,0.6,0.1c0.3,0.4,0.5,0.9,0.7,1.7c0.1,0.4,0.2,0.6,0.4,0.8c0.1,0.1,0.4,0.2,0.7,0.1
	c0.4,0,0.6-0.2,0.7-0.5s0.2-0.7,0-1.2c-0.1-0.3-0.1-0.5-0.1-0.6c0-0.1,0.1-0.2,0.2-0.2c0.1,0,0.4-0.1,1-0.3c0.9-0.3,1.8-0.6,2.7-1
	c0.7-0.3,1-0.4,1.1-0.2c0,0.2-0.2,0.7-0.8,1.5c-1.3,1.7-2.7,3.2-4.2,4.2c-0.4,0.3-0.5,0.4-0.3,0.6c0.1,0,0.4-0.1,1.1-0.4
	c0.6-0.3,1.3-0.7,2-1.2c0.5-0.4,0.9-0.5,1.1-0.4s0.4,0.3,0.8,0.8c0.3,0.5,0.6,1,0.7,1.4c0.1,0.2,0.1,0.3,0.2,0.4
	c0,0,0.1,0.1,0.3,0.2c0.2,0.1,0.3,0.3,0.3,0.4c0,0.1-0.2,0.3-0.5,0.6c-1.6,1.3-3.8,2.3-6.3,3c-0.4,0.1-0.6,0.2-0.6,0.2
	c-0.1,0-0.1,0.1-0.1,0.2c0,0.1,0.1,0.1,0.2,0.1c0.1,0,0.4,0,0.7-0.1c3.1-0.6,5.6-1.5,7.6-2.8c2-1.3,3.6-3.1,4.8-5.3
	c0.2-0.3,0.3-0.5,0.4-0.6c0.1-0.1,0.3-0.2,0.5-0.3c0.4-0.1,0.5-0.3,0.4-0.5c-0.1-0.2-0.4-0.6-1-1.1c-0.4-0.4-0.7-0.6-0.8-0.6
	c-0.1,0-0.4,0.2-0.7,0.5c0,0,0,0-0.1,0.1c-0.3,0.3-0.5,0.4-0.6,0.5c-0.1,0-0.5,0.1-1,0.1c-0.1,0-0.2,0-0.2,0c-0.7,0-1.1,0-1.3,0
	s-0.3-0.1-0.3-0.2c0-0.2,0.1-0.5,0.5-0.9c0.4-0.4,0.6-0.7,0.7-0.7c0.5,0,0.4-0.2-0.4-0.7c-0.3-0.2-0.5-0.3-0.5-0.4
	c0-0.1,0.1-0.4,0.4-0.6c0.9-0.8,1.5-1.4,2-2c0.5-0.5,0.9-1.1,1.3-1.8c0.2-0.3,0.4-0.6,0.5-0.7c0.1-0.1,0.3-0.3,0.6-0.3
	c0.3-0.1,0.4-0.3,0.3-0.5c-0.1-0.2-0.5-0.6-1.1-1.2l0,0c-0.3-0.3-0.5-0.4-0.6-0.4c-0.1,0-0.4,0.2-0.7,0.6c-0.3,0.3-0.6,0.5-0.8,0.6
	c-0.2,0-0.6,0.1-1.3,0.1c-0.1,0-0.1,0-0.2,0c-0.7,0-1.1,0-1.2-0.1c-0.1,0-0.2-0.1-0.2-0.3c0-0.2,0.1-0.5,0.4-0.8
	c0.3-0.4,0.5-0.6,0.7-0.6c0.3-0.1,0.4-0.2,0.2-0.3c-0.2-0.1-0.8-0.4-1.8-0.7c0,0-0.1,0-0.1,0c-0.3-0.1-0.5-0.2-0.6-0.1
	c-0.1,0-0.1,0.1-0.2,0.3c-0.3,1-0.8,2.1-1.6,3.3c-0.7,1.2-1.5,2.1-2.4,2.9c-0.3,0.2-0.5,0.3-0.6,0.3c-0.1,0-0.4-0.2-0.7-0.4
	c-0.3-0.3-0.5-0.4-0.6-0.4c-0.1,0-0.2,0.2-0.5,0.5c-0.5,0.8-0.9,1.1-1,1c-0.1-0.1-0.2-0.8-0.2-2.1c0-0.1,0-0.1,0-0.2
	c0-0.9,0-1.4,0.1-1.6c0.1-0.2,0.4-0.3,0.8-0.5c0.1,0,0.1,0,0.1,0c0.4-0.1,0.7-0.2,0.8-0.2c0.2,0,0.5,0,0.9,0c0.4,0,0.6,0,0.6-0.2
	c0,0-0.4-0.4-1.2-1.1c-0.8-0.7-1.2-1-1.2-1c-0.1,0-0.2,0.1-0.4,0.2c-1.5,1.1-3.5,2.2-6.2,3.3c-0.1,0-0.1,0.1-0.1,0.1
	c0,0.1,0,0.1,0.1,0.2c0,0,0.7,0,2.1-0.2c0,0,0.1,0,0.1,0c0.5-0.1,0.8-0.1,0.9-0.1c0.2,0,0.3,0.2,0.3,0.4c0,0.2,0,0.6,0,1.2
	c0,0.1,0,0.1,0,0.2c0,0.7-0.1,1.2-0.2,1.4c-0.1,0.3-0.4,0.4-0.8,0.5c-0.4,0-1,0-2-0.1c-0.3,0-0.5,0-0.5,0c0,0,0,0.2,0.2,0.5l0,0
	c0.1,0.2,0.2,0.4,0.3,0.4c0.1,0,0.2,0,0.5,0c0.9-0.2,1.4-0.3,1.7-0.1c0.3,0.1,0.4,0.5,0.3,1c-0.3,1.3-0.7,2.7-1.2,4.2
	c-0.6,1.5-1.1,2.7-1.8,3.7c-0.2,0.3-0.3,0.4-0.3,0.5c0,0.1,0,0.2,0.1,0.2c0.1,0.1,0.1,0.1,0.2,0c0.1,0,0.2-0.2,0.5-0.5
	c0.7-0.8,1.5-1.7,2.3-2.8c0.2-0.3,0.4-0.5,0.5-0.6c0.1-0.1,0.2,0,0.3,0.2c0.1,0.1,0.1,0.9,0.1,2.4c0,1.5-0.1,2.8-0.1,4
	c0,0.7-0.1,1.2,0,1.4S191.9,67.8,192.1,67.8z M204.7,62.1c-0.1,0.1-0.2,0.1-0.3,0c-0.1,0-0.2-0.2-0.3-0.5c-0.3-0.6-0.9-1.1-1.8-1.4
	c-0.4-0.2-0.7-0.3-0.7-0.5c0-0.2,0.2-0.4,0.6-0.7c0,0,0.1,0,0.1-0.1c0.3-0.2,0.5-0.3,0.6-0.4c0.2,0,0.7-0.1,1.5-0.1
	c0.1,0,0.2,0,0.2,0c0.8,0,1.4,0,1.6,0c0.3,0,0.4,0.2,0.4,0.4c0,0.1-0.1,0.4-0.4,1c-0.3,0.5-0.5,1-0.9,1.5
	C205.1,61.7,204.9,62,204.7,62.1z M196.8,57.4c-0.1,0-0.3-0.1-0.6-0.3c-0.4-0.3-0.8-0.6-1.4-0.8c-0.4-0.2-0.6-0.3-0.7-0.5
	c-0.1-0.1-0.1-0.5-0.1-1.1v0c0-0.4,0-0.6,0.1-0.7c0.1-0.1,0.2-0.2,0.5-0.2c0.2,0,0.6,0,1.3,0c0.8,0,1.4,0,1.6-0.1
	c0.2-0.1,0.2-0.2,0.1-0.5c-0.1-0.2-0.2-0.4-0.1-0.5c0-0.1,0.2-0.3,0.6-0.5c0.5-0.3,0.9-0.5,1.2-0.7c0.5-0.3,0.9-0.5,1.1-0.4
	c0.2,0.1,0.6,0.4,1,1.1c0.1,0.1,0.2,0.4,0.4,0.7c0.2,0.3,0.2,0.5,0.2,0.5c0,0,0.1,0.1,0.2,0.2c0.2,0.1,0.3,0.3,0.3,0.4
	c0,0.1-0.2,0.3-0.5,0.6c-1.2,1-2.8,1.9-4.6,2.7C197,57.3,196.8,57.4,196.8,57.4z M204.2,52.1c-0.4,0.4-0.6,0.3-0.8-0.1
	c-0.1-0.6-0.8-1-2-1.3c-0.4-0.1-0.5-0.2-0.6-0.4c0-0.2,0.1-0.4,0.5-0.6l0,0c0.2-0.2,0.5-0.4,0.6-0.4c0.2,0,0.8-0.1,1.8-0.1
	c1,0,1.6,0,1.7,0c0.2,0,0.3,0.2,0.2,0.4c0,0.2-0.2,0.6-0.6,1.2C204.9,51.4,204.6,51.8,204.2,52.1z M225.5,67.7
	c0.2,0.2,0.7-0.1,1.6-0.8c0.9-0.7,1.6-1.5,2.2-2.3c0.9-1.3,1.6-2.7,2.1-4.4c0.4-1.7,0.7-3.9,0.9-6.7c0-0.7,0.1-1.1,0.2-1.2
	c0.1-0.1,0.5-0.2,1.1-0.2c0,0,0.1,0,0.2,0c0.4,0,0.7,0,0.8,0.1c0.2,0.1,0.2,0.4,0.3,1c0,0.4,0,1.2,0,2.6c0,0.2,0,0.4,0,0.5
	c-0.1,3.1-0.2,5.1-0.3,6c-0.1,1.2-0.4,2-0.9,2.3c-0.3,0.3-1,0.3-2,0.3c-0.6,0-0.9,0-0.9,0c0,0.1,0.1,0.2,0.4,0.3
	c0.6,0.2,1,0.4,1.2,0.6c0.3,0.3,0.4,0.7,0.5,1.2c0,0.2,0.1,0.3,0.2,0.3c0.1,0,0.4,0,0.8-0.1c0.8-0.2,1.4-0.6,1.8-1.3
	c0.4-0.7,0.7-1.9,0.9-3.6c0.2-1.5,0.3-4,0.4-7.4c0-1.3,0.1-2,0.1-2.3c0-0.2,0.2-0.4,0.4-0.5c0.3-0.1,0.4-0.2,0.4-0.3
	c0-0.1-0.1-0.3-0.4-0.6c-0.6-0.6-1.1-1-1.3-1.1c-0.2-0.1-0.5,0-0.8,0.3c-0.3,0.4-0.6,0.6-0.7,0.7c-0.2,0.1-0.5,0.1-1,0.1
	c0,0-0.1,0-0.1,0c-0.4,0-0.6,0-0.7-0.1c-0.1-0.1-0.2-0.3-0.3-0.5c0-0.2,0-0.7,0-1.5c0-0.2,0-0.3,0-0.4c0-1.1,0-1.8,0.1-2
	c0-0.2,0.2-0.4,0.3-0.6c0.2-0.2,0.1-0.3-0.4-0.5c-0.5-0.1-1.1-0.2-1.9-0.2c0,0,0,0-0.1,0c-0.1,0-0.2,0.1-0.2,0.2c0,0.2,0,0.8,0,1.8
	c0,0.3,0,0.5,0,0.6c0,0.1,0,0.3,0,0.5c0,1,0,1.6-0.1,1.8c-0.1,0.4-0.2,0.6-0.5,0.6c-0.2,0-0.6,0-1.4-0.1c-0.2,0-0.3,0-0.4,0
	c-0.1,0-0.2,0-0.2,0c0,0,0,0.1,0.1,0.3c0,0.1,0.1,0.2,0.1,0.4c0,0.1,0.1,0.2,0.1,0.2c0.1,0,0.1,0,0.1,0.1c0.1,0,0.2,0,0.4-0.1
	c0.7-0.3,1.2-0.3,1.4,0c0.2,0.2,0.3,0.9,0.2,2.1c-0.2,4.5-0.8,7.6-1.8,9.2c-0.1,0.1-0.2,0.3-0.4,0.6c0,0.1-0.1,0.2-0.1,0.2
	c-0.2,0.4-0.5,0.9-1,1.5c-0.4,0.6-0.8,1-1.2,1.3C225.4,67.4,225.4,67.6,225.5,67.7z M217.2,67.4c0.1,0.2,0.2,0.1,0.5-0.1
	c0.1-0.1,0.3-0.2,0.5-0.3c0.2-0.1,0.7-0.2,1.5-0.5c2.3-0.7,4.2-1.3,5.8-1.8c1.5-0.5,2.3-0.8,2.3-0.9c0-0.1,0-0.2-0.2-0.2
	c-0.2,0-0.8,0.1-1.8,0.2h0c-1,0.1-1.6,0.2-1.9,0.2c-0.4,0-0.6,0-0.7-0.2c-0.1-0.1-0.1-0.3-0.1-0.7c0,0,0-0.1,0-0.1v0
	c0-0.4,0-0.6,0.1-0.7c0.1-0.1,0.3-0.2,0.6-0.2c0.2,0,0.8,0,1.6,0c0.1,0,0.1,0,0.2,0c1.4,0,2.2-0.1,2.3-0.3c0.1-0.2-0.3-0.7-1.3-1.4
	c-0.3-0.2-0.5-0.4-0.5-0.5c0-0.1,0.2-0.2,0.6-0.4l0,0c0.3-0.1,0.5-0.3,0.6-0.3c0-0.1,0.1-0.3,0-0.7c0-0.1,0-0.3,0-0.7
	c0-0.8,0-1.4,0-1.9c0-1.2,0-1.9,0-2.1c0-0.2,0.2-0.4,0.5-0.6c0.2-0.1,0.3-0.2,0.2-0.4c0-0.1-0.1-0.2-0.1-0.3c0-0.1-0.1-0.2-0.2-0.3
	c-0.2-0.1-0.4-0.2-0.7-0.4c-0.4-0.2-0.6-0.4-0.7-0.3c-0.1,0-0.3,0.2-0.5,0.5c-0.2,0.3-0.4,0.5-0.6,0.5c-0.1,0.1-0.4,0.1-0.9,0.1
	c-0.6,0-0.9,0-1.1-0.1c-0.1-0.1-0.2-0.4-0.2-0.8c0,0,0,0,0-0.1c0-0.3,0-0.5,0.1-0.6c0.1-0.1,0.3-0.2,0.6-0.2c0.3,0,0.9,0,1.8,0
	c0.1,0,0.1,0,0.2,0c1.2,0,1.9,0,2.2-0.1c0.4-0.1,0.5-0.2,0.4-0.5c-0.1-0.2-0.5-0.6-1.2-1.1c-0.4-0.3-0.7-0.5-0.8-0.5
	c-0.1,0-0.3,0.2-0.6,0.6c-0.3,0.4-0.6,0.7-0.7,0.8c-0.1,0.1-0.4,0.1-0.9,0.1c-0.5,0-0.8,0-0.9-0.1c-0.1-0.1-0.2-0.4-0.2-0.8
	c0-0.6,0-0.9,0.2-1c0.2-0.1,0.6-0.3,1.4-0.4c0.2,0,0.4,0,0.8-0.1c0.4,0,0.6-0.1,0.7-0.1c0.4-0.1,0.7-0.1,1,0c0.4,0.1,0.5,0,0.5-0.1
	c0-0.2-0.4-0.6-1-1.2c0,0-0.1-0.1-0.1-0.1c-0.3-0.3-0.5-0.4-0.6-0.5c-0.1,0-0.2,0-0.4,0.1c0,0-0.1,0-0.1,0c-2.2,0.8-4.7,1.5-7.6,2.1
	c-0.7,0.1-1.1,0.2-1.2,0.3c-0.1,0-0.2,0.1-0.1,0.2c0,0.1,1,0.1,3,0c0.7,0,1.1,0,1.3,0c0.2,0,0.3,0.2,0.4,0.4c0.1,0.3,0.1,0.6,0,0.9
	c0,0.3-0.2,0.4-0.3,0.5c-0.1,0.1-0.8,0.1-1.9,0.1c-1.2,0-2-0.1-2.4-0.2c-0.1,0-0.2,0-0.2,0.1c0,0.1,0.1,0.2,0.2,0.5l0,0
	c0.1,0.3,0.2,0.4,0.3,0.5c0.1,0,0.3,0,0.7,0c1.4-0.2,2.4-0.3,2.9-0.2c0.5,0.1,0.8,0.4,0.8,0.9c0,0.6-0.3,0.9-0.8,1
	c-0.5,0-1.3-0.2-2.4-0.6c-0.5-0.2-0.8-0.3-0.9-0.3c-0.1,0-0.2,0-0.1,0.2c0.1,0.5,0.2,1.6,0.2,3.3c0,1.6,0,2.9-0.1,3.7
	c0,0.6,0,0.9,0.1,1.1c0.1,0.1,0.3,0.2,0.7,0.1c0.7-0.1,1.1-0.3,1.2-0.6c0.1-0.3,0.5-0.5,1.1-0.5c0.6,0,0.9,0.2,1,0.5
	c0.1,0.3,0.1,0.6,0,1c0,0.4-0.1,0.6-0.3,0.7c-0.1,0.1-0.6,0.1-1.4,0.1s-1.7,0-2.6-0.1c-0.2,0-0.3,0-0.3,0c0,0,0.1,0.2,0.2,0.6
	c0,0,0,0,0,0.1c0.1,0.2,0.2,0.3,0.2,0.4c0.1,0,0.2,0,0.5,0c0.1,0,0.1,0,0.2,0c1.4-0.3,2.3-0.3,2.7-0.2c0.4,0.1,0.7,0.5,0.7,1.1
	c0,0,0,0.1,0,0.2c0,0.4,0,0.6-0.1,0.7c-0.1,0.1-0.3,0.2-0.6,0.3c-0.2,0-0.8,0.1-1.6,0.2c-0.2,0-0.3,0-0.4,0c-0.1,0-0.3,0-0.6,0
	c-0.8,0.1-1.2,0.1-1.3,0.1c-0.1,0-0.2,0.1-0.2,0.1C216.3,65.1,216.6,65.9,217.2,67.4z M224.6,61.3c-0.1,0.1-0.4,0.1-0.7,0.1
	c-0.3,0-0.5-0.1-0.6-0.1c-0.2-0.1-0.3-0.5-0.3-1s0.1-0.9,0.3-1c0.2-0.1,0.6-0.2,1.1-0.1c0.6,0.1,0.8,0.2,0.8,0.3
	c0,0.2,0.1,0.2,0.3,0.2c0.1,0,0.1,0,0.2,0.1c0.1,0.1,0.1,0.1,0,0.1c-0.1,0.2-0.4,0.5-0.6,0.8C224.9,61.1,224.7,61.3,224.6,61.3z
	 M220.7,58.4c-0.1,0.1-0.4,0.1-0.7,0.1c-0.4,0-0.6,0-0.7-0.1c-0.2-0.1-0.3-0.5-0.4-1c0-0.6,0.1-0.9,0.3-1.1c0.1-0.1,0.4-0.1,0.8-0.1
	c0.4,0,0.7,0.1,0.8,0.1c0.2,0.1,0.3,0.5,0.3,1.1C221.1,58,220.9,58.3,220.7,58.4z M224.1,58.5c-0.4,0-0.7,0-0.8-0.1
	c-0.2-0.1-0.4-0.5-0.4-1c0-0.6,0.1-0.9,0.3-1.1c0.1-0.1,0.4-0.1,0.8-0.1c0.4,0,0.7,0,0.8,0.1c0.2,0.1,0.3,0.5,0.3,1.1
	c0,0.6-0.1,0.9-0.4,1C224.8,58.5,224.5,58.5,224.1,58.5z M220.7,55.5c-0.1,0.1-0.4,0.1-0.7,0.1c-0.4,0-0.6,0-0.7-0.1
	c-0.2-0.1-0.3-0.3-0.4-0.8c0-0.5,0-0.8,0.1-1.1c0.1-0.2,0.4-0.4,0.9-0.4c0.5,0,0.9,0.1,1,0.4c0.1,0.2,0.2,0.6,0.1,1.1
	C221,55.2,220.9,55.4,220.7,55.5z M224.1,55.6c-0.4,0-0.7,0-0.8-0.1c-0.3-0.1-0.4-0.5-0.4-1.1c0-0.6,0.1-1,0.4-1.1
	c0.1-0.1,0.4-0.1,0.8-0.1c0.4,0,0.7,0,0.8,0.1c0.3,0.1,0.4,0.5,0.4,1.1c0,0.6-0.1,0.9-0.4,1.1C224.8,55.6,224.5,55.6,224.1,55.6z
	 M244.5,67c0.1,0,0.2,0,0.4,0c0,0,0.1,0,0.1,0c0,0,0.1,0,0.1,0c0.6-0.1,1.4-0.2,2.3-0.2c0.9,0,3.7,0,8.4,0c0.5,0,1.2,0,2.2,0
	c3.6,0,5.7,0,6.3,0c0.6,0,1-0.1,1-0.2l0,0c0.1-0.2-0.3-0.7-1.4-1.6l0,0c-0.5-0.4-0.9-0.6-1-0.6c-0.1,0-0.4,0.2-0.7,0.7
	c0,0.1-0.1,0.2-0.2,0.3c-0.3,0.5-0.6,0.7-0.8,0.8c-0.2,0.1-0.8,0.1-1.8,0.1c-0.3,0-0.5,0-0.7,0c-0.2,0-0.5,0-0.8,0
	c-0.8,0-1.2,0-1.4,0c-0.3-0.1-0.5-0.2-0.5-0.5c0-0.2-0.1-0.7,0-1.4c0-0.4,0-0.6,0-0.8c0-0.2,0-0.6,0-1c0-0.7,0-1.1,0.1-1.3
	c0.1-0.3,0.3-0.4,0.7-0.5c0.3,0,0.9,0,1.9,0c0.5,0,1,0,1.3,0c1.4,0,2.3,0,2.7,0c0.5,0,0.9,0,1-0.1c0.1,0,0.2-0.1,0.2-0.2
	c0-0.1-0.3-0.5-1.1-1.2c-0.7-0.6-1.2-1-1.4-1c-0.1,0-0.4,0.3-0.9,0.9c0,0-0.1,0.1-0.1,0.2c-0.2,0.4-0.4,0.6-0.6,0.6
	c-0.2,0-0.6,0.1-1.3,0.1c-0.1,0-0.3,0-0.4,0c-0.9,0-1.4,0-1.6,0c-0.2,0-0.3-0.1-0.4-0.3c-0.1-0.2-0.1-0.7-0.1-1.4s0.1-1.1,0.3-1.1
	l0.1-0.1c0,0,0.1-0.1,0.1-0.1c0.2-0.2,0.1-0.3-0.2-0.5c-0.3-0.1-0.9-0.3-1.9-0.6c0,0-0.1,0-0.1,0c-0.4-0.1-0.6-0.1-0.7-0.1
	c0,0-0.1,0.1,0,0.3v0c0.3,2.2,0.2,3.3-0.1,3.6c-0.1,0.1-1.1,0.1-2.8,0.1c-1.7,0-3,0-3.8-0.1c-0.2,0-0.3,0-0.3,0c0,0,0,0.2,0.2,0.5
	c0,0,0,0.1,0,0.1c0.1,0.2,0.2,0.4,0.3,0.4c0.1,0,0.3,0,0.6,0c0,0,0.1,0,0.1,0c0.9-0.1,2.1-0.2,3.6-0.2c0.2,0,0.4,0,0.7,0
	c0.7,0,1.1,0,1.3,0c0.2,0.1,0.4,0.2,0.5,0.5c0,0.2,0.1,0.7,0,1.4c0,0.3,0,0.6,0,0.8c0,1.3,0,2,0,2.3c0,0.2-0.1,0.4-0.3,0.5
	c-0.2,0.1-1.5,0.1-3.9,0.1c-2.4,0-4-0.1-4.9-0.1h0c-0.3,0-0.4,0-0.4,0c0,0,0.1,0.2,0.2,0.5l0,0c0,0,0,0,0,0.1
	C244.4,66.8,244.4,67,244.5,67z M246.6,56.6c0.1,0.1,0.2,0,0.4-0.1c0.1-0.1,0.5-0.3,1-0.4c0.5-0.1,2-0.4,4.4-0.7
	c0.7-0.1,1.4-0.2,2.1-0.4c0.7-0.1,1.4-0.2,2.2-0.4c0.2,0,0.5-0.1,1-0.2c0.7-0.1,1.2-0.2,1.4-0.3c0.7-0.1,1.1-0.2,1.3-0.2
	c0.3,0,0.6,0.2,0.8,0.5c0.2,0.2,0.5,0.7,0.9,1.4c0.3,0.5,0.7,0.8,1.2,0.6c0.5-0.1,0.7-0.5,0.7-1.1c0-1-0.6-1.9-1.7-2.9
	c-1.2-1-2.7-1.7-4.5-2.3c-0.6-0.2-0.9-0.2-1-0.2c0,0.1,0.2,0.3,0.6,0.7c1.1,0.9,1.7,1.4,2,1.7c0.3,0.4,0.3,0.6,0,0.7
	c-0.2,0.1-0.9,0.2-1.9,0.2c-0.3,0-0.7,0-1.2,0.1c-2,0.1-3.3,0.2-3.8,0.2c-0.7,0-1.1-0.1-1.2-0.2c0-0.1,0.1-0.4,0.5-0.8
	c0.1-0.1,0.2-0.2,0.2-0.3c0.6-0.8,1.5-1.8,2.4-3.1c0-0.1,0.1-0.1,0.2-0.2c0.1-0.2,0.3-0.4,0.4-0.4c0.2-0.1,0.5-0.1,1-0.2
	c0.4,0,1.2,0,2.5,0c0.6,0,1,0,1.4,0c2.4,0,3.8,0,4.2,0c0.4,0,0.7-0.1,0.7-0.2c0.1-0.2-0.4-0.8-1.5-1.7c-0.4-0.3-0.7-0.5-0.9-0.5
	c-0.1,0-0.3,0.2-0.6,0.5c-0.5,0.7-0.9,1.1-1,1.2c-0.2,0.1-2.8,0.1-7.8,0.1c-5,0-7.7-0.1-8.2-0.2c-0.1,0-0.2,0-0.2,0.1
	c0,0.1,0.1,0.2,0.2,0.5c0,0,0,0,0,0.1c0.1,0.2,0.2,0.4,0.3,0.4c0.1,0,0.3,0,0.7,0c0.1,0,0.2,0,0.3,0c1.5-0.2,2.8-0.3,3.9-0.2
	c1.1,0,1.7,0.2,1.7,0.5c0,0.3-0.3,1.1-0.8,2.4c-0.5,1.3-0.9,2.1-1.1,2.3c-0.3,0.3-1.5,0.4-3.8,0.4c-0.5,0-0.7,0-0.7,0.1
	c0,0,0.2,0.5,0.6,1.3C246.3,56.1,246.5,56.5,246.6,56.6z M271.7,67.6c0.1,0.1,0.2,0.1,0.2,0.1c0.1,0,0.2-0.1,0.4-0.3
	c1.6-1.7,2.9-3.7,3.7-6c0.8-2.3,1.4-5.1,1.6-8.4c0-0.7,0.1-1.1,0.2-1.2c0.1-0.1,0.5-0.2,1.2-0.2c0,0,0.1,0,0.2,0
	c0.5,0,0.8,0.1,0.9,0.2c0.2,0.2,0.2,0.6,0.3,1.3c0,0.5,0,1.7-0.1,3.6c0,0.3,0,0.5,0,0.7c-0.1,2.7-0.3,4.4-0.4,5.3
	c-0.2,1.1-0.5,1.7-1,2c-0.4,0.2-1.2,0.2-2.4,0.1c-0.3,0-0.6,0-0.6,0c-0.1,0-0.1,0.1-0.1,0.2c0,0.1,0.2,0.2,0.5,0.3
	c0.7,0.2,1.1,0.4,1.4,0.7c0.3,0.3,0.5,0.8,0.5,1.3c0,0.2,0,0.3,0.1,0.3c0.1,0,0.2,0.1,0.5,0c1-0.1,1.8-0.5,2.3-1.2
	c0.5-0.7,0.9-1.9,1.2-3.7c0.2-1.6,0.4-4.1,0.5-7.5c0-0.1,0-0.3,0-0.6c0-1.2,0.1-2,0.1-2.2c0-0.2,0.2-0.4,0.5-0.5c0,0,0.1,0,0.1,0
	c0.3-0.1,0.3-0.3,0.1-0.6c-0.2-0.3-0.6-0.7-1.2-1.2c-0.3-0.2-0.5-0.4-0.6-0.3s-0.3,0.2-0.6,0.5l0,0c-0.4,0.4-0.9,0.7-1.6,0.8
	c-0.7,0.1-1.1-0.1-1.3-0.4c-0.2-0.3-0.2-1-0.1-2.2c0.1-1.2,0.2-1.8,0.4-1.9c0.2-0.2,0.2-0.3-0.1-0.4c-0.3-0.1-0.9-0.2-1.8-0.3
	c0,0-0.1,0-0.2,0c-0.4,0-0.7,0-0.7,0c0,0-0.1,0.1,0,0.2c0.1,0.8,0.2,1.7,0.2,2.8c0,1.1,0,1.7-0.1,1.8c-0.1,0.2-0.3,0.3-0.7,0.3
	c-0.4,0-1,0-2-0.1c0,0,0,0-0.1,0c-0.3,0-0.5,0-0.6,0c0,0,0,0.2,0.1,0.4c0,0,0,0.1,0,0.1c0.1,0.3,0.2,0.5,0.3,0.5c0.1,0,0.2,0,0.4,0
	c1.1-0.3,1.8-0.4,2.1-0.2c0.3,0.2,0.5,0.8,0.4,1.7c-0.3,5.7-1.4,10.1-3.3,13.3c0,0.1-0.1,0.2-0.2,0.3c-0.2,0.3-0.3,0.5-0.3,0.5
	C271.6,67.5,271.6,67.6,271.7,67.6z M284.6,67.3c0.3,0.1,0.6,0,1-0.1c0.4-0.1,0.7-0.3,0.8-0.6c0.1-0.1,0.1-0.4,0.1-0.8
	c0-0.6,0-0.9,0.2-1c0.1-0.1,0.6-0.1,1.5-0.1c0.7,0,1.1,0,1.2,0c0.2,0,0.4,0.2,0.5,0.3c0,0.1,0,0.4,0,0.9c0,0.6,0,0.9,0.2,1
	c0.2,0.1,0.5,0.1,1.1-0.2c0.5-0.2,0.8-0.4,1-0.6c0.1-0.2,0.2-0.6,0.1-1.2c-0.1-2-0.1-5.2-0.1-9.5c0-0.3,0-0.7,0-1.2
	c0-1.8,0-2.8,0-3.1c0-0.3,0.1-0.5,0.3-0.6c0,0,0.1,0,0.1,0c0.3-0.2,0.5-0.3,0.5-0.4c0-0.1-0.2-0.3-0.5-0.6c-0.7-0.7-1.2-1.1-1.5-1.2
	c-0.3-0.1-0.5,0.1-0.9,0.5l0,0c-0.3,0.4-0.6,0.6-0.8,0.6c-0.2,0.1-0.7,0.1-1.6,0.1c-0.1,0-0.2,0-0.4,0c-0.5,0-0.9,0-1-0.1
	c-0.2,0-0.5-0.2-1-0.4c-0.2-0.1-0.3-0.1-0.4-0.2c0,0-0.1,0-0.2-0.1c-0.4-0.2-0.7-0.3-0.8-0.3c-0.1,0-0.1,0.2,0,0.5c0,0,0,0.1,0,0.1
	c0.1,0.7,0.1,1.4,0.1,2.1c0,0.6,0,2,0,4.2c0,0.1,0,0.2,0,0.3c0,4.5,0,7.7-0.1,9.5c-0.1,0.9-0.1,1.5,0,1.7S284.3,67.3,284.6,67.3z
	 M289.6,63.9c-0.3,0.1-0.8,0.2-1.6,0.1c-0.8-0.1-1.3-0.2-1.4-0.3c0-0.1-0.1-2.2-0.1-6.4c0-4.2,0-6.4,0.1-6.5
	c0.1-0.2,0.2-0.3,0.3-0.4c0.2,0,0.6-0.1,1.3-0.1c0.1,0,0.3,0,0.6,0c0.4,0,0.7,0,0.8,0.1c0.2,0.2,0.3,0.6,0.3,1.2c0,0.4,0,1.5,0,3.3
	c0,0.9,0,1.7,0,2.3c0,0.3,0,0.7,0,1.2c0,2,0,3.3,0,3.8c0,0.8,0,1.2-0.1,1.4C289.8,63.8,289.7,63.9,289.6,63.9L289.6,63.9z
	 M25.9,91.7c0.2,0.1,0.4,0.1,0.8,0c0.4,0,0.8-0.2,1.1-0.3l0,0c0.2-0.1,0.2-0.2,0.3-0.3c0-0.1,0-0.5,0-1.1c0-0.1,0-0.2,0-0.3
	C28,87.4,28,85.5,28,84c0-1.5,0.2-2.3,0.3-2.4c0.1-0.1,0.2-0.2,0.1-0.3c-0.1-0.1-0.3-0.3-0.6-0.6c-0.3-0.2-0.4-0.4-0.4-0.6
	c0-0.2,0.2-0.6,0.6-1.1c0.4-0.6,0.7-1,0.7-1.1c0.2-0.3,0.4-0.6,0.7-0.6c0.2-0.1,0.2-0.2,0.2-0.3c-0.1-0.1-0.3-0.3-0.7-0.5
	c-0.5-0.3-0.8-0.5-0.8-0.6c0-0.1,0.2-0.2,0.7-0.4c0.4-0.1,0.7-0.2,0.7-0.3c0.1-0.1,0.1-0.4,0.1-0.9c0,0,0-0.1,0-0.2
	c0-0.4,0-0.6,0.1-0.7c0.1-0.1,0.2-0.2,0.5-0.3c0.2,0,0.6,0,1.3,0c0.2,0,0.3,0,0.4,0c0,0,0.1,0,0.2,0c0.8,0,1.3,0,1.5,0
	c0.3,0,0.5,0.2,0.5,0.3c0,0.1,0,0.4,0,0.9c0,0,0,0.1,0,0.1c0,0.5,0,0.9,0.2,1c0.2,0.1,0.5,0.1,1.1-0.1c0.4-0.1,0.7-0.2,0.8-0.4
	c0.1-0.1,0.2-0.4,0.1-0.8c0-0.1,0-0.1,0-0.2c0-0.3,0-0.5,0.1-0.6c0.1-0.1,0.3-0.2,0.6-0.2c0.2,0,0.8,0,1.8,0c0.3,0,0.5,0,0.7,0
	c1.1,0,1.8,0,2.1,0c0.4,0,0.7,0,0.8-0.1c0.1,0,0.1-0.1,0.1-0.2c0-0.1-0.1-0.4-0.5-0.7c-0.3-0.4-0.7-0.7-1.2-1
	c-0.3-0.2-0.5-0.3-0.6-0.2c-0.1,0-0.3,0.3-0.6,0.7c-0.4,0.5-0.6,0.8-0.9,0.9c-0.1,0-0.5,0-1.2,0c-0.6,0-1,0-1.1-0.1
	c-0.2-0.1-0.4-0.4-0.4-0.8c0-0.4,0.1-0.7,0.4-0.9c0.2-0.2,0.2-0.4-0.1-0.5c-0.3-0.1-0.9-0.3-1.8-0.6c0,0-0.1,0-0.1,0
	c-0.3-0.1-0.5-0.1-0.5,0c0,0,0,0.2,0,0.5c0,0.1,0,0.1,0,0.1c0.1,0.8,0.1,1.3,0,1.6c0,0.3-0.1,0.5-0.3,0.6c-0.1,0.1-0.8,0.1-1.9,0.1
	c-1.2,0-1.8,0-2-0.1c-0.2-0.1-0.4-0.4-0.4-0.8c0-0.4,0.1-0.7,0.4-0.9c0.3-0.1,0.2-0.3-0.1-0.5c-0.3-0.2-1-0.4-2-0.6l0,0
	c-0.2,0-0.4,0-0.4,0c0,0,0,0.2,0,0.6c0,0,0,0.1,0,0.1c0.1,0.8,0.1,1.3,0,1.6c0,0.3-0.1,0.5-0.3,0.6c-0.1,0.1-1,0.1-2.5,0.1
	c-1.5,0-2.6-0.1-3.2-0.2c-0.1,0-0.2,0-0.2,0.1s0.1,0.2,0.2,0.5c0,0,0,0.1,0,0.1c0.1,0.2,0.2,0.4,0.3,0.4c0.1,0,0.3,0,0.6,0
	c0.1,0,0.2,0,0.2,0c1.1-0.1,2.2-0.2,3.2-0.2c0,0,0,0,0.1,0c0.6,0,1,0,1.2,0c0.2,0,0.4,0.2,0.4,0.4c0,0.1,0,0.5,0,1v0.1
	c0,0.5-0.1,0.8-0.1,0.9c0,0.1-0.2,0.1-0.4,0c-0.1,0-0.1,0-0.1,0c0,0,0,0.1-0.1,0.2c-0.4,1.5-1,3-1.9,4.6c-0.9,1.6-2,3.1-3.3,4.4
	c-0.4,0.4-0.4,0.6-0.1,0.6c0.1,0,0.6-0.3,1.3-0.8c0.8-0.5,1.4-1.1,2.1-1.7c0.4-0.3,0.6-0.5,0.7-0.5c0.1,0,0.2,0,0.3,0.2
	c0.1,0.2,0.1,1.1,0.1,2.8c0,1.7-0.1,3.3-0.2,4.8c0,0.6,0,1,0,1.1C25.7,91.5,25.8,91.6,25.9,91.7z M34.4,91.3c0.8,0.1,2.2,0.1,3.9,0
	c1.8-0.1,2.9-0.2,3.3-0.3c0.6-0.2,1-0.4,1.2-0.8c0.2-0.4,0.1-0.7-0.4-1.1c-0.2-0.2-0.4-0.3-0.4-0.5c0-0.2-0.1-0.8-0.1-1.7
	c0-1-0.1-1.6-0.1-1.6c0,0-0.1,0-0.1,0c0,0-0.1,0.1-0.1,0.2c0,0,0,0.1,0,0.2c-0.3,1.3-0.5,2.1-0.6,2.4c-0.2,0.5-0.5,0.8-1,0.9
	c-0.3,0.1-1.1,0.1-2.3,0.1c-0.1,0-0.1,0-0.2,0c-0.2,0-0.5,0-0.8,0c-0.8,0-1.4,0-1.6-0.1c-0.3-0.1-0.5-0.2-0.6-0.6
	c-0.1-0.2-0.1-0.7-0.1-1.6c0-0.3,0-0.6,0-0.8c0-0.2,0-0.4,0-0.7c0-1,0-1.6,0.1-1.8c0.1-0.2,0.3-0.4,0.7-0.6c0.1-0.1,0.3-0.1,0.3-0.2
	c1.6-0.8,3.1-1.8,4.5-3c0.5-0.4,0.9-0.6,1.1-0.6c0.4,0,0.4-0.1,0.2-0.3c-0.2-0.2-0.7-0.7-1.6-1.3c0,0-0.1-0.1-0.2-0.1
	c-0.2-0.2-0.3-0.2-0.4-0.2c-0.1,0-0.2,0.1-0.3,0.4c-0.1,0.1-0.1,0.1-0.1,0.2c-0.8,1.1-1.7,2.2-2.6,3.1c-0.8,0.9-1.4,1.3-1.6,1.3
	c-0.2,0-0.3-0.9-0.3-2.5c0-1.6,0.2-2.5,0.4-2.7c0.2-0.2,0.2-0.3-0.1-0.5c-0.3-0.1-0.9-0.4-1.8-0.6c-0.4-0.1-0.7-0.2-0.7-0.1
	c-0.1,0-0.1,0.1-0.1,0.3c0.1,0.7,0.2,1.4,0.2,2.2c0,0.8,0,2.7,0,5.6c0,3.8,0,5.8,0.1,6c0.1,0.4,0.3,0.7,0.6,0.9
	C33.3,91.1,33.7,91.2,34.4,91.3z M59.4,84.1c1.1,0.1,2-0.2,2.8-1c0.8-0.8,1.1-1.7,1-2.8c-0.1-0.9-0.5-1.6-1.2-2.2
	c-0.6-0.5-1.4-0.8-2.2-0.8c-0.9,0-1.6,0.3-2.3,0.9c-0.7,0.6-1,1.4-1.1,2.3c0,0.8,0.2,1.6,0.7,2.3C57.8,83.5,58.5,83.9,59.4,84.1z
	 M60.7,83.1c-0.8,0.3-1.6,0.2-2.3-0.3c-0.7-0.5-1.1-1.2-1.1-2.1c0-0.7,0.2-1.3,0.7-1.8c0.5-0.5,1.1-0.7,1.7-0.7
	c0.7,0,1.3,0.2,1.8,0.7c0.7,0.6,0.9,1.4,0.7,2.3C62.1,82.1,61.6,82.8,60.7,83.1z"/>
</svg>
