<?xml version="1.0" encoding="utf-8"?>
<!-- Generator: Adobe Illustrator 24.2.3, SVG Export Plug-In . SVG Version: 6.00 Build 0)  -->
<svg version="1.1" id="Layer_1" xmlns="http://www.w3.org/2000/svg" xmlns:xlink="http://www.w3.org/1999/xlink" x="0px" y="0px"
	 viewBox="0 0 352 219" style="enable-background:new 0 0 352 219;" xml:space="preserve">
<style type="text/css">
	.st0{clip-path:url(#SVGID_2_);}
	.st1{fill:none;stroke:#D6D2C7;stroke-width:1.3;stroke-miterlimit:10;stroke-dasharray:9.31,9.31;}
	.st2{fill:#D6D2C7;}
</style>
<g>
	<defs>
		<rect id="SVGID_1_" width="351.3" height="218.1"/>
	</defs>
	<clipPath id="SVGID_2_">
		<use xlink:href="#SVGID_1_"  style="overflow:visible;"/>
	</clipPath>
	<g class="st0">
		<path class="st1" d="M350.6,0.6H0.6v216.8h350V0.6z"/>
	</g>
</g>
<path class="st2" d="M25,47c0.2,0,0.5,0,0.8,0c0.4-0.1,0.7-0.2,0.9-0.3c0,0,0,0,0.1,0c0.2-0.1,0.2-0.2,0.3-0.3s0-0.5,0-1.1
	c0-0.1,0-0.2,0-0.3c0-1-0.1-2.6-0.1-4.9c0-2.2,0-3.4,0-3.5c0.1-0.3,0.3-0.3,0.6,0.1c0.3,0.4,0.5,0.9,0.7,1.7
	c0.1,0.4,0.2,0.6,0.4,0.8c0.1,0.1,0.4,0.2,0.7,0.1c0.4,0,0.6-0.2,0.7-0.5c0.1-0.3,0.2-0.7,0-1.2C30.1,37.3,30,37.1,30,37
	c0-0.1,0.1-0.2,0.2-0.2c0.1,0,0.4-0.1,1-0.3c0.9-0.3,1.8-0.6,2.7-1c0.7-0.3,1-0.4,1.1-0.2c0,0.2-0.2,0.7-0.8,1.5
	c-1.3,1.7-2.7,3.2-4.2,4.2c-0.4,0.3-0.5,0.4-0.3,0.6c0.1,0,0.4-0.1,1.1-0.4c0.6-0.3,1.3-0.7,2-1.2c0.5-0.4,0.9-0.5,1.1-0.4
	c0.2,0.1,0.4,0.3,0.8,0.8c0.3,0.5,0.6,1,0.7,1.4c0.1,0.2,0.1,0.3,0.2,0.4c0,0,0.1,0.1,0.3,0.2c0.2,0.1,0.3,0.3,0.3,0.4
	c0,0.1-0.2,0.3-0.5,0.6c-1.6,1.3-3.8,2.3-6.3,3c-0.4,0.1-0.6,0.2-0.6,0.2c-0.1,0-0.1,0.1-0.1,0.2c0,0.1,0.1,0.1,0.2,0.1
	c0.1,0,0.4,0,0.7-0.1c3.1-0.6,5.6-1.5,7.6-2.8c2-1.3,3.6-3.1,4.8-5.3c0.2-0.3,0.3-0.5,0.4-0.6c0.1-0.1,0.3-0.2,0.5-0.3
	c0.4-0.1,0.5-0.3,0.4-0.5c-0.1-0.2-0.4-0.6-1-1.1c-0.4-0.4-0.7-0.6-0.8-0.6c-0.1,0-0.4,0.2-0.7,0.5c0,0,0,0-0.1,0.1
	c-0.3,0.3-0.5,0.4-0.6,0.5c-0.1,0-0.5,0.1-1,0.1c-0.1,0-0.2,0-0.2,0c-0.7,0-1.1,0-1.3,0c-0.2,0-0.3-0.1-0.3-0.2
	c0-0.2,0.1-0.5,0.5-0.9c0.4-0.4,0.6-0.7,0.7-0.7c0.5,0,0.4-0.2-0.4-0.7c-0.3-0.2-0.5-0.3-0.5-0.4c0-0.1,0.1-0.4,0.4-0.6
	c0.9-0.8,1.5-1.4,2-2c0.5-0.5,0.9-1.1,1.3-1.8c0.2-0.3,0.4-0.6,0.5-0.7c0.1-0.1,0.3-0.3,0.6-0.3c0.3-0.1,0.4-0.3,0.3-0.5
	c-0.1-0.2-0.5-0.6-1.1-1.2l0,0c-0.3-0.3-0.5-0.4-0.6-0.4c-0.1,0-0.4,0.2-0.7,0.6c-0.3,0.3-0.6,0.5-0.8,0.6c-0.2,0-0.6,0.1-1.3,0.1
	c-0.1,0-0.1,0-0.2,0c-0.7,0-1.1,0-1.2-0.1c-0.1,0-0.2-0.1-0.2-0.3c0-0.2,0.1-0.5,0.4-0.8c0.3-0.4,0.5-0.6,0.7-0.6
	c0.3-0.1,0.4-0.2,0.2-0.3c-0.2-0.1-0.8-0.4-1.8-0.7c0,0-0.1,0-0.1,0c-0.3-0.1-0.5-0.2-0.6-0.1c-0.1,0-0.1,0.1-0.2,0.3
	c-0.3,1-0.8,2.1-1.6,3.3c-0.7,1.2-1.5,2.1-2.4,2.9c-0.3,0.2-0.5,0.3-0.6,0.3c-0.1,0-0.4-0.2-0.7-0.4c-0.3-0.3-0.5-0.4-0.6-0.4
	c-0.1,0-0.2,0.2-0.5,0.5c-0.5,0.8-0.9,1.1-1,1C27,31.9,27,31.2,27,30c0-0.1,0-0.1,0-0.2c0-0.9,0-1.4,0.1-1.6
	c0.1-0.2,0.4-0.3,0.8-0.5c0.1,0,0.1,0,0.1,0c0.4-0.1,0.7-0.2,0.8-0.2c0.2,0,0.5,0,0.9,0c0.4,0,0.6,0,0.6-0.2c0,0-0.4-0.4-1.2-1.1
	c-0.8-0.7-1.2-1-1.2-1c-0.1,0-0.2,0.1-0.4,0.2c-1.5,1.1-3.5,2.2-6.2,3.3c-0.1,0-0.1,0.1-0.1,0.1c0,0.1,0,0.1,0.1,0.2
	c0,0,0.7,0,2.1-0.2c0,0,0.1,0,0.1,0c0.5-0.1,0.8-0.1,0.9-0.1c0.2,0,0.3,0.2,0.3,0.4c0,0.2,0,0.6,0,1.2c0,0.1,0,0.1,0,0.2
	c0,0.7-0.1,1.2-0.2,1.4c-0.1,0.3-0.4,0.4-0.8,0.5c-0.4,0-1,0-2-0.1c-0.3,0-0.5,0-0.5,0c0,0,0,0.2,0.2,0.5l0,0
	c0.1,0.2,0.2,0.4,0.3,0.4c0.1,0,0.2,0,0.5,0c0.9-0.2,1.4-0.3,1.7-0.1c0.3,0.1,0.4,0.5,0.3,1c-0.3,1.3-0.7,2.7-1.2,4.2
	c-0.6,1.5-1.1,2.7-1.8,3.7c-0.2,0.3-0.3,0.4-0.3,0.5c0,0.1,0,0.2,0.1,0.2c0.1,0.1,0.1,0.1,0.2,0c0.1,0,0.2-0.2,0.5-0.5
	c0.7-0.8,1.5-1.7,2.3-2.8c0.2-0.3,0.4-0.5,0.5-0.6c0.1-0.1,0.2,0,0.3,0.2c0.1,0.1,0.1,0.9,0.1,2.4c0,1.5-0.1,2.8-0.1,4
	c0,0.7-0.1,1.2,0,1.4S24.8,47,25,47z M37.7,41.2c-0.1,0.1-0.2,0.1-0.3,0c-0.1,0-0.2-0.2-0.3-0.5c-0.3-0.6-0.9-1.1-1.8-1.4
	c-0.4-0.2-0.7-0.3-0.7-0.5c0-0.2,0.2-0.4,0.6-0.7c0,0,0.1,0,0.1-0.1c0.3-0.2,0.5-0.3,0.6-0.4c0.2,0,0.7-0.1,1.5-0.1
	c0.1,0,0.2,0,0.2,0c0.8,0,1.4,0,1.6,0c0.3,0,0.4,0.2,0.4,0.4c0,0.1-0.1,0.4-0.4,1s-0.5,1-0.9,1.5C38.1,40.9,37.8,41.2,37.7,41.2z
	 M29.8,36.6c-0.1,0-0.3-0.1-0.6-0.3c-0.4-0.3-0.8-0.6-1.4-0.8c-0.4-0.2-0.6-0.3-0.7-0.5c-0.1-0.1-0.1-0.5-0.1-1.1v0
	c0-0.4,0-0.6,0.1-0.7c0.1-0.1,0.2-0.2,0.5-0.2c0.2,0,0.6,0,1.3,0c0.8,0,1.4,0,1.6-0.1c0.2-0.1,0.2-0.2,0.1-0.5
	c-0.1-0.2-0.2-0.4-0.1-0.5s0.2-0.3,0.6-0.5c0.5-0.3,0.9-0.5,1.2-0.7c0.5-0.3,0.9-0.5,1.1-0.4c0.2,0.1,0.6,0.4,1,1.1
	c0.1,0.1,0.2,0.4,0.4,0.7c0.2,0.3,0.2,0.5,0.2,0.5c0,0,0.1,0.1,0.2,0.2c0.2,0.1,0.3,0.3,0.3,0.4c0,0.1-0.2,0.3-0.5,0.6
	c-1.2,1-2.8,1.9-4.6,2.7C30,36.5,29.8,36.6,29.8,36.6z M37.2,31.3c-0.4,0.4-0.6,0.3-0.8-0.1c-0.1-0.6-0.8-1-2-1.3
	c-0.4-0.1-0.5-0.2-0.6-0.4c0-0.2,0.1-0.4,0.5-0.6l0,0c0.2-0.2,0.5-0.4,0.6-0.4c0.2,0,0.8-0.1,1.8-0.1c1,0,1.6,0,1.7,0
	c0.2,0,0.3,0.2,0.2,0.4c0,0.2-0.2,0.6-0.6,1.2C37.8,30.5,37.5,31,37.2,31.3z M58.4,46.9c0.2,0.2,0.7-0.1,1.6-0.8
	c0.9-0.7,1.6-1.5,2.2-2.3c0.9-1.3,1.6-2.7,2.1-4.4c0.4-1.7,0.7-3.9,0.9-6.7c0-0.7,0.1-1.1,0.2-1.2c0.1-0.1,0.5-0.2,1.1-0.2
	c0,0,0.1,0,0.2,0c0.4,0,0.7,0,0.8,0.1c0.2,0.1,0.2,0.4,0.3,1c0,0.4,0,1.2,0,2.6c0,0.2,0,0.4,0,0.5c-0.1,3.1-0.2,5.1-0.3,6
	c-0.1,1.2-0.4,2-0.9,2.3c-0.3,0.3-1,0.3-2,0.3c-0.6,0-0.9,0-0.9,0c0,0.1,0.1,0.2,0.4,0.3c0.6,0.2,1,0.4,1.2,0.6
	c0.3,0.3,0.4,0.7,0.5,1.2c0,0.2,0.1,0.3,0.2,0.3c0.1,0,0.4,0,0.8-0.1c0.8-0.2,1.4-0.6,1.8-1.3c0.4-0.7,0.7-1.9,0.9-3.6
	c0.2-1.5,0.3-4,0.4-7.4c0-1.3,0.1-2,0.1-2.3c0-0.2,0.2-0.4,0.4-0.5c0.3-0.1,0.4-0.2,0.4-0.3c0-0.1-0.1-0.3-0.4-0.6
	c-0.6-0.6-1.1-1-1.3-1.1c-0.2-0.1-0.5,0-0.8,0.3c-0.3,0.4-0.6,0.6-0.7,0.7c-0.2,0.1-0.5,0.1-1,0.1c0,0-0.1,0-0.1,0
	c-0.4,0-0.6,0-0.7-0.1c-0.1-0.1-0.2-0.3-0.3-0.5c0-0.2,0-0.7,0-1.5c0-0.2,0-0.3,0-0.4c0-1.1,0-1.8,0.1-2c0-0.2,0.2-0.4,0.3-0.6
	c0.2-0.2,0.1-0.3-0.4-0.5c-0.5-0.1-1.1-0.2-1.9-0.2c0,0,0,0-0.1,0c-0.1,0-0.2,0.1-0.2,0.2c0,0.2,0,0.8,0,1.8c0,0.3,0,0.5,0,0.6
	c0,0.1,0,0.3,0,0.5c0,1,0,1.6-0.1,1.8c-0.1,0.4-0.2,0.6-0.5,0.6c-0.2,0-0.6,0-1.4-0.1c-0.2,0-0.3,0-0.4,0c-0.1,0-0.2,0-0.2,0
	c0,0,0,0.1,0.1,0.3c0,0.1,0.1,0.2,0.1,0.4c0,0.1,0.1,0.2,0.1,0.2c0.1,0,0.1,0,0.1,0.1c0.1,0,0.2,0,0.4-0.1c0.7-0.3,1.2-0.3,1.4,0
	c0.2,0.2,0.3,0.9,0.2,2.1c-0.2,4.5-0.8,7.6-1.8,9.2c-0.1,0.1-0.2,0.3-0.4,0.6c0,0.1-0.1,0.2-0.1,0.2c-0.2,0.4-0.5,0.9-1,1.5
	c-0.4,0.6-0.8,1-1.2,1.3C58.4,46.6,58.3,46.8,58.4,46.9z M50.1,46.6c0.1,0.2,0.2,0.1,0.5-0.1c0.1-0.1,0.3-0.2,0.5-0.3
	c0.2-0.1,0.7-0.2,1.5-0.5c2.3-0.7,4.2-1.3,5.8-1.8c1.5-0.5,2.3-0.8,2.3-0.9c0-0.1,0-0.2-0.2-0.2c-0.2,0-0.8,0.1-1.8,0.2h0
	c-1,0.1-1.6,0.2-1.9,0.2c-0.4,0-0.6,0-0.7-0.2C56,42.9,56,42.7,56,42.3c0,0,0-0.1,0-0.1v0c0-0.4,0-0.6,0.1-0.7
	c0.1-0.1,0.3-0.2,0.6-0.2c0.2,0,0.8,0,1.6,0c0.1,0,0.1,0,0.2,0c1.4,0,2.2-0.1,2.3-0.3c0.1-0.2-0.3-0.7-1.3-1.4
	c-0.3-0.2-0.5-0.4-0.5-0.5c0-0.1,0.2-0.2,0.6-0.4l0,0c0.3-0.1,0.5-0.3,0.6-0.3c0-0.1,0.1-0.3,0-0.7c0-0.1,0-0.3,0-0.7
	c0-0.8,0-1.4,0-1.9c0-1.2,0-1.9,0-2.1c0-0.2,0.2-0.4,0.5-0.6c0.2-0.1,0.3-0.2,0.2-0.4c0-0.1-0.1-0.2-0.1-0.3c0-0.1-0.1-0.2-0.2-0.3
	c-0.2-0.1-0.4-0.2-0.7-0.4c-0.4-0.2-0.6-0.4-0.7-0.3c-0.1,0-0.3,0.2-0.5,0.5c-0.2,0.3-0.4,0.5-0.6,0.5c-0.1,0.1-0.4,0.1-0.9,0.1
	c-0.6,0-0.9,0-1.1-0.1C56,31.6,56,31.3,56,30.9c0,0,0,0,0-0.1c0-0.3,0-0.5,0.1-0.6c0.1-0.1,0.3-0.2,0.6-0.2c0.3,0,0.9,0,1.8,0
	c0.1,0,0.1,0,0.2,0c1.2,0,1.9,0,2.2-0.1c0.4-0.1,0.5-0.2,0.4-0.5c-0.1-0.2-0.5-0.6-1.2-1.1c-0.4-0.3-0.7-0.5-0.8-0.5
	c-0.1,0-0.3,0.2-0.6,0.6c-0.3,0.4-0.6,0.7-0.7,0.8c-0.1,0.1-0.4,0.1-0.9,0.1c-0.5,0-0.8,0-0.9-0.1c-0.1-0.1-0.2-0.4-0.2-0.8
	c0-0.6,0-0.9,0.2-1c0.2-0.1,0.6-0.3,1.4-0.4c0.2,0,0.4,0,0.8-0.1c0.4,0,0.6-0.1,0.7-0.1c0.4-0.1,0.7-0.1,1,0c0.4,0.1,0.5,0,0.5-0.1
	c0-0.2-0.4-0.6-1-1.2c0,0-0.1-0.1-0.1-0.1c-0.3-0.3-0.5-0.4-0.6-0.5c-0.1,0-0.2,0-0.4,0.1c0,0-0.1,0-0.1,0c-2.2,0.8-4.7,1.5-7.6,2.1
	c-0.7,0.1-1.1,0.2-1.2,0.3s-0.2,0.1-0.1,0.2c0,0.1,1,0.1,3,0c0.7,0,1.1,0,1.3,0c0.2,0,0.3,0.2,0.4,0.4c0.1,0.3,0.1,0.6,0,0.9
	c0,0.3-0.2,0.4-0.3,0.5c-0.1,0.1-0.8,0.1-1.9,0.1c-1.2,0-2-0.1-2.4-0.2c-0.1,0-0.2,0-0.2,0.1c0,0.1,0.1,0.2,0.2,0.5l0,0
	c0.1,0.3,0.2,0.4,0.3,0.5c0.1,0,0.3,0,0.7,0c1.4-0.2,2.4-0.3,2.9-0.2c0.5,0.1,0.8,0.4,0.8,0.9c0,0.6-0.3,0.9-0.8,1
	c-0.5,0-1.3-0.2-2.4-0.6c-0.5-0.2-0.8-0.3-0.9-0.3c-0.1,0-0.2,0-0.1,0.2c0.1,0.5,0.2,1.6,0.2,3.3c0,1.6,0,2.9-0.1,3.7
	c0,0.6,0,0.9,0.1,1.1c0.1,0.1,0.3,0.2,0.7,0.1c0.7-0.1,1.1-0.3,1.2-0.6c0.1-0.3,0.5-0.5,1.1-0.5s0.9,0.2,1,0.5c0.1,0.3,0.1,0.6,0,1
	c0,0.4-0.1,0.6-0.3,0.7c-0.1,0.1-0.6,0.1-1.4,0.1s-1.7,0-2.6-0.1c-0.2,0-0.3,0-0.3,0c0,0,0.1,0.2,0.2,0.6c0,0,0,0,0,0.1
	c0.1,0.2,0.2,0.3,0.2,0.4c0.1,0,0.2,0,0.5,0c0.1,0,0.1,0,0.2,0c1.4-0.3,2.3-0.3,2.7-0.2c0.4,0.1,0.7,0.5,0.7,1.1c0,0,0,0.1,0,0.2
	c0,0.4,0,0.6-0.1,0.7c-0.1,0.1-0.3,0.2-0.6,0.3c-0.2,0-0.8,0.1-1.6,0.2c-0.2,0-0.3,0-0.4,0c-0.1,0-0.3,0-0.6,0
	C50,43.9,49.6,44,49.5,44s-0.2,0.1-0.2,0.1C49.3,44.3,49.6,45.1,50.1,46.6z M57.6,40.5c-0.1,0.1-0.4,0.1-0.7,0.1s-0.5-0.1-0.6-0.1
	c-0.2-0.1-0.3-0.5-0.3-1s0.1-0.9,0.3-1c0.2-0.1,0.6-0.2,1.1-0.1c0.6,0.1,0.8,0.2,0.8,0.3c0,0.2,0.1,0.2,0.3,0.2c0.1,0,0.1,0,0.2,0.1
	c0.1,0.1,0.1,0.1,0,0.1c-0.1,0.2-0.4,0.5-0.6,0.8C57.8,40.3,57.7,40.5,57.6,40.5z M53.7,37.6c-0.1,0.1-0.4,0.1-0.7,0.1
	c-0.4,0-0.6,0-0.7-0.1c-0.2-0.1-0.3-0.5-0.4-1c0-0.6,0.1-0.9,0.3-1.1c0.1-0.1,0.4-0.1,0.8-0.1c0.4,0,0.7,0.1,0.8,0.1
	c0.2,0.1,0.3,0.5,0.3,1.1C54,37.2,53.9,37.5,53.7,37.6z M57.1,37.7c-0.4,0-0.7,0-0.8-0.1c-0.2-0.1-0.4-0.5-0.4-1
	c0-0.6,0.1-0.9,0.3-1.1c0.1-0.1,0.4-0.1,0.8-0.1c0.4,0,0.7,0,0.8,0.1c0.2,0.1,0.3,0.5,0.3,1.1c0,0.6-0.1,0.9-0.4,1
	C57.8,37.7,57.5,37.7,57.1,37.7z M53.7,34.7c-0.1,0.1-0.4,0.1-0.7,0.1c-0.4,0-0.6,0-0.7-0.1c-0.2-0.1-0.3-0.3-0.4-0.8
	c0-0.5,0-0.8,0.1-1.1c0.1-0.2,0.4-0.4,0.9-0.4c0.5,0,0.9,0.1,1,0.4c0.1,0.2,0.2,0.6,0.1,1.1C54,34.3,53.8,34.6,53.7,34.7z
	 M57.1,34.8c-0.4,0-0.7,0-0.8-0.1c-0.3-0.1-0.4-0.5-0.4-1.1c0-0.6,0.1-1,0.4-1.1c0.1-0.1,0.4-0.1,0.8-0.1c0.4,0,0.7,0,0.8,0.1
	c0.3,0.1,0.4,0.5,0.4,1.1c0,0.6-0.1,0.9-0.4,1.1C57.8,34.7,57.5,34.8,57.1,34.8z M86.9,47.1c0.1,0,0.3,0,0.7-0.1
	c0.4-0.1,0.7-0.2,0.9-0.3l0,0c0.1-0.1,0.2-0.2,0.2-0.3c0-0.1,0-0.6,0-1.3v0c-0.1-1.7-0.1-2.9-0.1-3.6c0-0.7,0.1-1.1,0.3-1.2
	c0.1-0.1,0.4,0.2,0.7,0.6c1.6,2.3,3.6,4.1,6.1,5.3c0.4,0.2,0.6,0.2,0.6,0.2c0.1,0,0.1-0.1,0.2-0.2c0.1-0.4,0.3-0.7,0.5-1
	c0.3-0.3,0.6-0.6,0.9-0.7c0.4-0.2,0.4-0.3,0.1-0.4c-0.3,0-0.5-0.1-0.8-0.2c-2.3-0.6-4.4-1.5-6.2-2.8c-0.9-0.6-1.2-1-0.9-1.2
	c0,0,0.2-0.1,0.6-0.1c0.3,0,1.4,0,3.1,0c0,0,0.1,0,0.1,0c2,0,3.1,0,3.4,0c0.3,0,0.5-0.1,0.6-0.2c0-0.1-0.1-0.4-0.5-0.7
	c-0.3-0.4-0.7-0.7-1.2-1.1c-0.3-0.2-0.5-0.3-0.6-0.3c-0.1,0-0.3,0.2-0.6,0.6l0,0c-0.4,0.6-0.7,0.9-0.9,1c-0.1,0.1-1,0.1-2.6,0.1
	c-1.6,0-2.5,0-2.6-0.1c-0.2-0.1-0.3-0.3-0.3-0.6c0-0.3,0.1-0.5,0.3-0.7c0.2-0.2,0.2-0.3,0-0.4c-0.1-0.1-0.4-0.2-1-0.4
	c-0.5-0.2-0.9-0.3-1-0.3c0,0-0.1,0-0.2,0c-0.2,0-0.3,0-0.3,0c-0.1,0-0.2,0-0.2,0c0,0,0,0.1,0,0.3c0.1,0.8,0.1,1.3,0,1.6
	c0,0.3-0.1,0.4-0.3,0.5c-0.1,0.1-1.4,0.1-3.7,0.1c-2.3,0-3.9-0.1-4.9-0.1c-0.2,0-0.3,0-0.3,0c0,0,0.1,0.2,0.2,0.6c0,0,0,0.1,0,0.1
	c0.1,0.2,0.2,0.4,0.3,0.4c0.1,0,0.2,0,0.5,0c1.3-0.2,2.6-0.3,3.9-0.3c1.3,0,2,0.1,2.1,0.3c0,0.5-0.7,1.4-2.3,2.8
	c-1.6,1.4-3,2.4-4.4,3.1c-0.3,0.1-0.4,0.2-0.5,0.3c0,0.1,0,0.1,0,0.2c0,0.1,0.1,0.1,0.1,0.1c0.1,0,0.2-0.1,0.6-0.2
	c2.9-1,5.4-2.3,7.3-3.9c0.4-0.3,0.6-0.5,0.8-0.6c0.2-0.1,0.3-0.1,0.4,0c0.1,0.1,0.1,0.6,0.1,1.6c0,0.9,0,2-0.1,3
	c0,0.4,0.1,0.6,0.4,0.7C86.8,47,86.8,47,86.9,47.1z M78.3,37.5c0.1,0.1,0.6-0.1,1.3-0.7c0.8-0.6,1.4-1.3,2-2c0.3-0.3,0.7-1,1.4-2.1
	c0.2-0.2,0.5-0.4,1-0.5c0.5-0.1,1-0.1,1.3,0c0.2,0.1,0.4,0.4,0.7,1.1c0.3,0.7,0.5,1.3,0.6,1.9c0.1,0.4,0.2,0.7,0.5,0.9
	c0.2,0.1,0.5,0.1,0.9,0c0.6-0.3,0.8-0.7,0.6-1.4c-0.1-0.7-0.6-1.2-1.3-1.7c-0.4-0.3-0.6-0.5-0.7-0.6c0-0.1,0.1-0.2,0.5-0.3
	c0.3-0.1,0.9-0.1,1.9-0.2c0.9-0.1,1.6-0.1,1.9-0.1c0.3,0,0.5,0,0.4,0.1c0,0,0,0.1,0,0.2c0.1,0.1,0.2,0.3,0.5,0.6
	c1.2,1.2,2,2.4,2.4,3.6c0.1,0.4,0.4,0.6,0.8,0.6s0.7-0.2,0.9-0.6c0.3-0.7,0.2-1.4-0.4-2.1c-0.6-0.8-1.5-1.4-2.8-1.9
	c-0.6-0.2-0.9-0.4-0.8-0.5c0.1-0.2,0.5-0.3,1.3-0.4c0.8-0.1,1.3-0.1,1.7,0c0.1,0,0.3,0,0.4,0c0.2,0,0.2-0.1,0.2-0.1
	c0-0.1-0.3-0.4-1-1c-0.6-0.6-0.9-0.9-1-0.9c0,0-0.2,0-0.4,0.1c-0.1,0-0.2,0.1-0.3,0.1c-0.5,0.1-0.9,0.2-1.2,0.3
	c-0.5,0.1-0.9,0.2-1.2,0.3c-1.1,0.4-2.8,0.8-5.3,1.2c0,0-0.1,0-0.2,0c-0.6,0.1-1,0.1-1.2,0.1c-0.2,0-0.7-0.2-1.3-0.5
	c-0.1,0-0.2-0.1-0.3-0.1c0,0-0.1,0-0.2-0.1c-0.5-0.2-0.8-0.3-0.9-0.3c-0.1,0-0.2,0.1-0.2,0.3c0,0,0,0.1,0,0.1c-0.1,0.9-0.4,2-1,3.3
	c-0.5,1.3-1.1,2.3-1.7,3C78.3,37.2,78.3,37.4,78.3,37.5z M83.5,30c0.2,0,0.5,0,1-0.1c0.5-0.1,0.8-0.2,0.8-0.4c0-0.1,0.1-0.3,0-0.6
	c0,0,0-0.1,0-0.1c0-0.3,0-0.6,0-0.6c0.1-0.1,0.2-0.2,0.5-0.2c0.2,0,0.7,0,1.4,0c0.1,0,0.2,0,0.3,0c0,0,0.1,0,0.1,0
	c0.8,0,1.3,0,1.5,0c0.3,0,0.5,0.1,0.5,0.3c0,0.1,0.1,0.3,0,0.7c0,0.4,0,0.6,0.1,0.6c0.1,0.1,0.4,0.1,0.8,0.1c0.4,0,0.7-0.1,0.9-0.3
	c0.2-0.2,0.4-0.4,0.3-0.6c0,0,0,0,0-0.1c0-0.3,0-0.5,0-0.6c0.1-0.1,0.3-0.2,0.7-0.2c0.3,0,1,0,2.1,0c0.1,0,0.2,0,0.2,0
	c1.6,0,2.5,0,2.7,0c0.3,0,0.4-0.1,0.5-0.2c0-0.1-0.2-0.4-0.6-0.8c-0.4-0.4-0.8-0.8-1.3-1.1c-0.2-0.2-0.4-0.2-0.5-0.1
	c-0.1,0-0.3,0.3-0.6,0.7C95,26.7,94.8,27,94.6,27c-0.2,0.1-0.6,0.1-1.2,0.1c-0.6,0-1,0-1.1-0.1C92.1,27,92,26.8,92,26.6
	c0-0.3,0.1-0.5,0.4-0.6s0.2-0.3-0.1-0.5c-0.3-0.2-0.9-0.4-1.8-0.6c0,0-0.1,0-0.2,0c-0.3-0.1-0.4-0.1-0.5,0c0,0-0.1,0.2,0,0.6
	c0,0.1,0,0.2,0,0.3c0,0,0,0.1,0,0.2c0,0.5,0,0.8,0,0.9c-0.1,0.2-0.2,0.3-0.5,0.3c-0.2,0-0.7,0.1-1.4,0.1c-0.1,0-0.2,0-0.3,0
	c-1,0-1.6,0-1.8,0c-0.2,0-0.3-0.1-0.4-0.3c-0.1-0.1-0.1-0.3,0-0.5c0.1-0.2,0.2-0.3,0.3-0.4c0.3-0.2,0.2-0.3,0-0.5
	c-0.3-0.2-0.9-0.4-1.8-0.6c0,0-0.1,0-0.1,0c-0.3-0.1-0.5-0.1-0.6-0.1c0,0-0.1,0.2,0,0.4v0c0.1,1.1,0,1.7-0.4,1.8
	c-0.2,0.1-1,0.1-2.6,0c-1.6,0-2.6-0.1-3.1-0.2c-0.1,0-0.2,0-0.2,0.1c0,0.1,0.1,0.3,0.2,0.6c0,0,0,0.1,0.1,0.2
	c0.1,0.2,0.2,0.3,0.3,0.3c0.1,0,0.3,0,0.7-0.1c0.1,0,0.2,0,0.2,0c1-0.1,2-0.2,3-0.2c0,0,0,0,0.1,0c0.8,0,1.3,0,1.4,0.1
	c0.1,0.1,0.2,0.4,0.2,0.9c0,0,0,0.1,0,0.1c0,0.4,0,0.7,0,0.8C83.3,29.9,83.4,30,83.5,30z M105,46.8c0,0.1,0.1,0.1,0.3,0
	c0.2-0.1,0.5-0.3,1.1-0.6c3-1.8,5.2-3.9,6.6-6.4c1.4-2.5,2.2-5.9,2.4-10.1c0-0.1,0-0.2,0-0.3c0-0.4,0-0.6,0.1-0.7
	c0.1-0.1,0.3-0.2,0.7-0.3c0.2,0,0.8,0,1.8,0c0.3,0,0.6,0,0.8,0c0.2,0,0.6,0,1,0c0.9,0,1.4,0,1.7,0c0.3,0,0.5,0.2,0.6,0.4
	c0,0.2,0.1,0.6,0,1.2c0,0.3,0,0.5,0,0.7c-0.2,7.3-0.7,11.5-1.3,12.5c-0.2,0.3-0.5,0.5-0.9,0.6c-0.4,0-1.3,0-2.7-0.1
	c-0.7-0.1-1-0.1-1.2-0.1c-0.1,0-0.2,0-0.2,0.1c0,0.1,0.1,0.1,0.2,0.2c1.2,0.3,2,0.6,2.4,0.9s0.6,0.8,0.6,1.4c0,0.2,0.1,0.3,0.1,0.4
	c0,0,0.1,0.1,0.3,0.1c1.3,0,2.2-0.4,2.8-1.2c0.7-0.8,1.2-2.3,1.5-4.5c0.3-2,0.5-5.1,0.6-9.4c0-1.4,0.1-2.2,0.1-2.4
	c0.1-0.3,0.2-0.4,0.5-0.6c0.3-0.2,0.5-0.3,0.4-0.5c0-0.2-0.4-0.5-0.9-1.1h0c-0.5-0.5-0.9-0.8-1.1-0.8c-0.2,0-0.5,0.3-0.9,0.8l0,0
	c0,0-0.1,0.1-0.1,0.1c-0.1,0.1-0.2,0.2-0.4,0.3c-0.2,0.1-0.7,0.1-1.5,0.1c-0.5,0-1.8,0-3.8,0c-0.7,0-1.3,0-1.7,0
	c-4.7,0-7.6,0-8.5-0.1c-0.2,0-0.3,0-0.4,0c0,0,0.1,0.2,0.2,0.6c0,0,0,0.1,0.1,0.1c0.1,0.2,0.2,0.3,0.3,0.3c0.1,0,0.3,0,0.6,0
	c0.1,0,0.1,0,0.1,0c0.7-0.1,1.8-0.2,3.1-0.2c1.4,0,2.1,0,2.3,0c0.1,0,0.2,0.1,0.2,0.3c0,0.1,0.1,0.5,0.1,0.9c0,3.7-0.6,6.9-1.8,9.5
	c-1.2,2.6-3.1,5-5.7,7c-0.3,0.2-0.4,0.3-0.5,0.4C104.9,46.7,104.9,46.7,105,46.8z M140,46.7c0,0.3,0.8,0.2,2.3-0.5
	c1.5-0.6,2.8-1.3,3.7-2c0.5-0.4,0.8-0.6,1.1-0.6c0.3,0,0.4-0.1,0.3-0.2c0-0.1-0.3-0.3-0.7-0.5c-0.7-0.4-1-0.7-1.1-0.8
	c-0.1-0.2,0.2-0.3,0.9-0.3c0.5,0,1.7,0,3.5,0c2.1,0,3.3,0,3.7,0c0.4,0,0.6-0.1,0.7-0.2c0.1-0.2-0.2-0.7-1-1.5
	c-0.3-0.2-0.5-0.3-0.6-0.3c-0.1,0-0.2,0.2-0.4,0.5c-0.3,0.4-0.5,0.6-0.6,0.7c-0.2,0.1-0.3,0-0.4-0.1c0-0.1-0.1-0.3-0.1-0.6
	c0-0.3,0-1.4,0-3.2c0-0.3,0-0.6,0-1.1c0-1.1,0-1.9,0-2.2c0-0.4,0.1-0.7,0.3-0.8c0.1-0.1,0.3-0.1,0.7-0.1c0.2,0,0.3,0,0.4,0
	c0.6,0,1,0,1.1,0c0.1,0,0.2-0.2,0.2-0.3c0-0.1-0.2-0.4-0.5-0.7c-0.3-0.4-0.6-0.6-0.8-0.7c-0.1,0-0.2-0.1-0.3,0s-0.2,0.1-0.3,0.3
	c-0.2,0.3-0.4,0.4-0.5,0.5c-0.1,0-0.2-0.1-0.2-0.4c0-0.3,0.1-0.5,0.2-0.6c0.2-0.1,0.2-0.3-0.1-0.4c-0.2-0.1-0.7-0.3-1.5-0.5h0
	c-0.4-0.1-0.7-0.2-0.8-0.2c-0.1,0-0.1,0.1,0,0.4v0c0.1,1.2,0,1.8-0.2,2c-0.1,0.1-0.6,0.1-1.3,0.1c-0.8,0-1.2,0-1.3-0.1
	c-0.2-0.1-0.3-0.3-0.3-0.6c0-0.3,0.1-0.5,0.3-0.6c0.2-0.1,0.2-0.3,0-0.4c-0.2-0.1-0.7-0.3-1.5-0.6c-0.6-0.2-0.7-0.4-0.5-0.7l0,0
	c0.1-0.1,0.3-0.2,0.6-0.2c0.3,0,1.4,0,3.3,0c0.4,0,0.7,0,0.9,0c1.8,0,3,0,3.5,0c0.7,0,1.1,0,1.3-0.1c0.1,0,0.2-0.1,0.2-0.3
	c0-0.2-0.3-0.5-1-1.2c-0.7-0.6-1.1-0.9-1.2-0.9c-0.1,0-0.4,0.3-0.8,0.9c0,0-0.1,0.1-0.1,0.2c-0.2,0.3-0.5,0.5-0.7,0.6
	c-0.2,0-0.8,0.1-1.8,0.1c-0.2,0-0.4,0-0.5,0c-0.1,0-0.2,0-0.4,0c-0.8,0-1.3,0-1.6,0c-0.3,0-0.5,0-0.6-0.1c0,0-0.1-0.1-0.1-0.3
	c0-0.2,0.1-0.5,0.4-0.9c0.3-0.4,0.5-0.6,0.6-0.7c0.3-0.1,0.3-0.2,0-0.4c-0.3-0.2-1-0.5-2-0.9l0,0c-0.4-0.1-0.6-0.2-0.6-0.2
	c-0.1,0-0.1,0.1-0.1,0.4v0c-0.1,1.1-0.4,2.1-0.8,3.2c-0.2,0.6-0.4,0.9-0.6,0.9c-0.2,0-0.5-0.2-1.1-0.7c0,0-0.1-0.1-0.1-0.1
	c-0.3-0.3-0.5-0.4-0.6-0.4c-0.1,0-0.2,0.1-0.4,0.4c0,0-0.1,0.1-0.1,0.1c-0.3,0.4-0.5,0.7-0.7,0.8c-0.1,0.1-0.3,0.2-0.4,0.1
	c-0.3-0.1-0.4-0.6-0.4-1.6c0-1,0.1-1.7,0.4-1.8c0.2-0.1,0.2-0.3-0.1-0.4c-0.3-0.1-0.8-0.3-1.8-0.6c0,0-0.1,0-0.2,0
	c-0.4-0.1-0.6-0.1-0.6-0.1c0,0-0.1,0.2,0,0.6c0,0.1,0,0.1,0,0.2c0.1,1.3,0.2,2.3,0.1,2.9c0,0.5-0.1,0.9-0.3,1c-0.1,0-0.5,0-1.2,0
	c-0.7,0-1.2,0-1.5-0.1c-0.3,0-0.4,0-0.5,0c0,0,0,0.2,0.2,0.5c0.2,0.3,0.3,0.5,0.3,0.5c0,0,0.1,0,0.2-0.1c0.1,0,0.3-0.1,0.3-0.1
	c0.8-0.2,1.2-0.2,1.4,0c0.2,0.2,0.3,0.7,0.3,1.6c0,5.8-0.9,10.5-2.6,14.1c0,0,0,0.1-0.1,0.2c-0.1,0.3-0.2,0.5-0.3,0.6
	c0,0.1,0,0.1,0,0.2c0.1,0.1,0.2,0.1,0.3,0s0.4-0.4,0.7-0.9c1.9-2.5,3.1-5.9,3.6-10.2c0.1-0.7,0.2-1.1,0.3-1.3
	c0.1-0.2,0.4-0.2,0.8-0.2c0.4,0,0.6,0.1,0.7,0.2c0.1,0.2,0.2,0.6,0.2,1.2c0,0.5-0.1,1.5-0.2,3.2c-0.1,1.8-0.2,3-0.4,3.7
	c-0.2,0.8-0.4,1.3-0.8,1.6c-0.3,0.2-0.8,0.3-1.6,0.2c-0.4,0-0.7,0-0.8,0c-0.1,0-0.1,0.1-0.1,0.1c0,0.1,0,0.1,0,0.1
	c0,0,0.1,0.1,0.3,0.1c0.1,0,0.2,0.1,0.2,0.1c0.4,0.1,0.6,0.3,0.8,0.6c0.2,0.3,0.3,0.6,0.3,1c0,0.2,0,0.3,0.1,0.3c0.1,0,0.2,0,0.5,0
	c0.9-0.1,1.6-0.5,2-1c0.4-0.6,0.8-1.5,1-3c0.1-0.7,0.2-1,0.3-1.2s0.3,0,0.5,0.3c0.1,0.1,0.1,0.1,0.2,0.1c0.1,0,0.3,0,0.7-0.1h0.1
	c1.2-0.2,1.9-0.2,2.1,0c0.2,0.3-0.1,0.9-1,1.9c-0.9,1-1.9,1.9-3,2.6C140.2,46.5,140,46.6,140,46.7z M152.6,46.8
	c0.6,0.2,1,0.1,1.2-0.3c0.2-0.4,0.1-0.8-0.1-1.4c-0.3-0.6-0.7-1.1-1.4-1.5c-0.6-0.4-1.4-0.8-2.4-1.1s-1.5-0.3-1.5-0.1
	c0,0,0.2,0.2,0.6,0.5c1.4,1.1,2.4,2.2,3.1,3.3c0.2,0.2,0.3,0.4,0.3,0.5C152.4,46.8,152.5,46.8,152.6,46.8z M143.6,40.9
	c-0.2,0.1-0.8,0.1-1.9,0c-0.4,0-0.6-0.1-0.6-0.3c0-0.1,0-0.6,0-1.3c0-0.5,0.1-1.2,0.1-2.1c0-0.1,0-0.2,0-0.3c0-1.1,0.1-1.8,0.1-1.9
	c0-0.2,0.2-0.4,0.4-0.5c0.3-0.2,0.4-0.3,0.3-0.6c-0.1-0.2-0.4-0.6-1.1-1c-0.4-0.3-0.6-0.5-0.7-0.5c-0.1,0-0.3,0.2-0.6,0.5
	c-0.3,0.3-0.5,0.5-0.6,0.6c-0.2,0.1-0.4,0.1-0.7,0.1c-0.5,0-0.7-0.1-0.8-0.2c-0.1-0.1-0.1-0.6,0-1.5c0-0.1,0-0.2,0-0.3
	c0-0.7,0.1-1.1,0.2-1.2c0.1-0.1,0.6-0.2,1.4-0.2c0.2,0,0.3,0,0.4,0c1,0,1.6,0.1,1.8,0.2c0.2,0.1,0.1,0.4-0.2,0.8
	c-0.2,0.3-0.3,0.5-0.2,0.6c0.1,0.1,0.3,0,0.6-0.2c0.3-0.2,0.7-0.6,1.4-1.2c0.3-0.3,0.5-0.4,0.7-0.3c0.1,0.1,0.2,0.4,0.2,0.9
	c0,0.5,0,0.9-0.2,1c-0.2,0.1-0.6,0.1-1.3,0c-0.3,0-0.4,0-0.5,0c0,0,0,0.2,0.2,0.5c0.1,0.3,0.2,0.4,0.3,0.5c0,0,0.1,0,0.3,0
	c0.1-0.1,0.3-0.1,0.5-0.1c0.2,0,0.4,0,0.5,0c0.1,0.1,0.2,0.3,0.2,0.6c0,0.3,0,1.5,0,3.4c0,1.9,0,3.1,0,3.4
	C143.8,40.6,143.8,40.9,143.6,40.9z M148.9,41c-0.1,0.1-0.6,0.1-1.3,0.1c-0.8,0-1.2-0.1-1.3-0.1c-0.2-0.1-0.3-0.4-0.4-0.8
	c0-0.5,0-0.9,0.1-1.1c0.1-0.3,0.6-0.4,1.5-0.4c0.9,0,1.4,0.1,1.6,0.4c0.1,0.2,0.2,0.6,0.1,1.1C149.2,40.6,149,40.9,148.9,41z
	 M147.6,38c-0.8,0-1.3,0-1.4-0.1c-0.2-0.1-0.3-0.5-0.3-1.1c0-0.6,0.1-0.9,0.4-1.1c0.1-0.1,0.6-0.1,1.3-0.1c0.8,0,1.2,0,1.3,0.1
	c0.2,0.1,0.4,0.5,0.4,1c0,0.5-0.1,0.9-0.3,1.1C148.8,37.9,148.4,38,147.6,38z M147.6,35c-0.8,0-1.3,0-1.4-0.1
	c-0.2-0.1-0.3-0.5-0.3-1c0-0.6,0.1-0.9,0.4-1c0.1-0.1,0.6-0.1,1.3-0.1c0.8,0,1.2,0,1.3,0.1c0.2,0.1,0.4,0.5,0.4,1
	c0,0.5-0.1,0.9-0.3,1C148.8,35,148.4,35,147.6,35z M165.7,46.8c0,0.1,0.2,0.1,0.5,0c0.3-0.1,0.9-0.3,1.8-0.6
	c2.8-1.1,5.2-2.5,7.1-4.4c0.4-0.4,0.7-0.6,0.8-0.7c0.2-0.1,0.4-0.1,0.6,0.1c0.1,0.1,0.4,0.5,0.9,1.1c0.8,1.1,1.5,2.2,2,3.2
	c0.3,0.5,0.4,0.8,0.5,0.9c0.1,0.1,0.3,0.2,0.6,0.3c0.6,0.1,0.9-0.1,1.2-0.6c0.2-0.5,0.2-1.1-0.1-1.8c-0.5-1.3-1.8-2.6-3.8-3.6
	c-0.5-0.3-0.8-0.5-0.9-0.6c0-0.2,0-0.5,0.3-0.9c0.7-1.3,1.3-2.8,1.6-4.3c0.3-1.5,0.6-3.6,0.7-6.3c0-0.6,0-1,0.1-1.2
	c0.1-0.2,0.2-0.3,0.3-0.4c0.3-0.2,0.3-0.3,0-0.4c-0.3-0.1-1-0.2-2.1-0.4c-0.4,0-0.7-0.1-0.8,0c-0.1,0-0.1,0.1-0.1,0.1
	c0.1,0.3,0.1,1.4,0.1,3.2c-0.1,4.1-0.9,7.5-2.5,10.1c-1.6,2.6-4.3,4.8-8,6.6c-0.5,0.2-0.7,0.4-0.8,0.4
	C165.7,46.6,165.6,46.7,165.7,46.8z M161.5,45c0.1,0.1,0.2,0,0.3-0.1c0.2-0.2,0.4-0.4,0.6-0.5c0.2-0.1,0.8-0.4,1.6-0.9
	c1.8-0.9,3.5-1.8,5.1-2.7c1.6-1,2.5-1.5,2.5-1.6c0-0.1-0.1-0.1-0.3-0.1c-0.2,0-1,0.3-2.3,0.7c-1.4,0.4-2.2,0.7-2.5,0.8
	c-0.3,0.1-0.5,0.1-0.6,0c-0.1-0.1-0.2-0.5-0.2-1.1c0-0.7-0.1-2.7-0.1-5.9c0-0.3,0-0.8,0-1.4c0-1.9,0-3.2,0-3.7c0-0.7,0-1.2,0-1.4
	c0-0.1,0.1-0.3,0.2-0.3l0,0c0.2-0.2,0.2-0.3,0.1-0.4c-0.2-0.1-0.6-0.2-1.2-0.2c-0.9-0.1-1.3-0.1-1.3,0c0,0.1,0,2.6,0.1,7.3
	c0,0.3,0,0.6,0,1.1c0,3.3,0.1,5.3,0.1,5.9c0,0.6,0,0.9-0.1,1c-0.1,0.2-1,0.6-2.5,0.9c-0.4,0.1-0.5,0.1-0.5,0.2c0,0,0.2,0.4,0.5,1.2
	C161.2,44.5,161.5,44.9,161.5,45z M172,34.7c0.5,0.2,1,0,1.2-0.4c0.3-0.4,0.3-1,0-1.7c-0.5-1.4-1.9-2.6-4.2-3.5
	c-0.5-0.2-0.8-0.3-0.8-0.2c0,0.1,0.1,0.3,0.5,0.7c1.3,1.6,2.1,3,2.6,4.3C171.5,34.4,171.7,34.6,172,34.7z M194.4,46.9
	c0,0.1,0.1,0.1,0.2,0.1c0.1,0,0.3-0.1,0.6-0.2c2.7-0.9,5-2.2,6.9-3.9c0.3-0.3,0.6-0.4,0.7-0.4c0.1,0,0.4,0.3,0.7,0.7
	c1.1,1.4,2.4,2.6,4,3.5c0.2,0.1,0.4,0.2,0.4,0.2c0.1,0,0.1-0.1,0.2-0.3c0.1-0.3,0.3-0.6,0.6-0.9c0.3-0.3,0.6-0.5,0.9-0.6
	c0.2-0.1,0.3-0.2,0.3-0.2c0-0.1-0.2-0.2-0.5-0.3c-1.2-0.4-2.3-1.1-3.6-2c-1.2-0.9-1.8-1.5-1.8-1.9c0-0.1,0.2-0.5,0.6-1.2
	c1.2-2,2-4.4,2.5-7.2c0.1-0.7,0.3-1.1,0.4-1.2c0.1-0.1,0.5-0.2,1.1-0.2c0.7,0,1-0.1,0.9-0.4c-0.1-0.3-0.5-0.8-1.3-1.4
	c-0.4-0.3-0.7-0.5-0.8-0.5c-0.1,0-0.3,0.2-0.6,0.6c0,0-0.1,0.1-0.1,0.2c-0.3,0.4-0.6,0.7-0.8,0.7c-0.2,0.1-0.8,0.1-1.7,0.1
	c-0.2,0-0.3,0-0.4,0c-0.1,0-0.2,0-0.3,0c-0.8,0-1.3,0-1.5,0c-0.3,0-0.5-0.1-0.5-0.3c0-0.1,0.1-0.4,0.2-0.8c0,0,0-0.1,0-0.1
	c0-0.1,0.1-0.2,0.1-0.4c0.2-0.6,0.3-1,0.4-1.2c0.3-0.8,0.5-1.2,0.7-1.4c0.2-0.1,0.2-0.3-0.1-0.5c-0.3-0.2-0.9-0.4-2-0.6
	c0,0-0.1,0-0.1,0c-0.4-0.1-0.6-0.1-0.7-0.1c-0.1,0-0.1,0.2-0.1,0.5c0,0,0,0.1,0,0.1c-0.1,1.3-0.4,2.8-0.8,4.5
	c-0.4,1.7-1,3.2-1.6,4.4c0,0,0,0.1-0.1,0.2c-0.2,0.4-0.3,0.6-0.3,0.7c0,0.1-0.2,0.4-0.4,0.8c-0.2,0.3-0.2,0.4-0.3,0.5
	c0,0.1,0,0.1,0.1,0.2c0.1,0.1,0.4-0.2,0.9-0.6c0.5-0.5,1-1.1,1.5-1.8c0.3-0.4,0.6-0.7,0.7-0.6c0.1,0,0.3,0.3,0.4,0.8
	c0.4,2,0.9,3.7,1.5,5.3c0.1,0.4,0.2,0.7,0.1,0.9c0,0.2-0.2,0.5-0.6,0.9c-0.7,0.9-1.6,1.8-2.8,2.7c-1.1,0.9-2.3,1.6-3.5,2.2
	c-0.3,0.2-0.5,0.3-0.6,0.3C194.4,46.8,194.4,46.8,194.4,46.9z M190.7,43.9c0.7,0.1,1.7,0.1,3.2,0c1.5-0.1,2.4-0.2,2.8-0.3
	c0.6-0.2,1.1-0.4,1.2-0.8c0.2-0.4,0.1-0.8-0.3-1.1c-0.2-0.2-0.3-0.4-0.4-0.7c0-0.3-0.1-1.1-0.1-2.5v0c0-0.1,0-0.1-0.1-0.2
	c0,0-0.1,0-0.1,0c0,0-0.1,0.4-0.3,1c0,0.1,0,0.2-0.1,0.3c-0.2,0.8-0.4,1.3-0.5,1.5c-0.2,0.3-0.4,0.5-0.7,0.6c-0.2,0-0.8,0.1-1.6,0.1
	c-0.1,0-0.3,0-0.3,0c-0.2,0-0.4,0-0.7,0c-0.6,0-1,0-1.2-0.1c-0.2-0.1-0.4-0.3-0.4-0.7c0-0.3-0.1-0.9,0-1.9c0-0.5,0-0.9,0-1.2
	c0-0.3,0-0.7,0-1.2c0-1,0-1.6,0-1.8c0-0.4,0.2-0.6,0.3-0.7c0.1-0.1,0.4-0.1,0.9-0.1c0.2,0,0.4,0,0.6,0c0.8,0,1.2,0,1.4,0.1
	c0.2,0,0.3,0.2,0.3,0.4v0.1c0,0.1,0,0.2,0,0.3c0,0.6,0.5,0.6,1.6,0.1c0,0,0.1,0,0.1-0.1c0.3-0.1,0.4-0.2,0.4-0.4
	c0-0.1,0.1-0.6,0-1.2c0-0.2,0-0.3,0-0.4c0-1.6-0.1-2.6-0.1-3.1c0-0.6,0.1-1.1,0.2-1.3c0.1-0.2,0.2-0.4,0.5-0.5
	c0.2-0.1,0.2-0.3,0-0.5c-0.2-0.2-0.5-0.6-1.1-1.1c-0.4-0.3-0.6-0.5-0.7-0.5c-0.1,0-0.3,0.2-0.5,0.5c0,0-0.1,0.1-0.1,0.2
	c-0.3,0.3-0.5,0.5-0.7,0.6c-0.2,0-0.8,0.1-1.8,0c-0.2,0-0.4,0-0.6,0c-1.2,0-2.2,0-2.8-0.1c-0.4,0-0.6,0-0.6,0c0,0,0,0.2,0.2,0.6l0,0
	c0.1,0.3,0.2,0.4,0.3,0.4c0.1,0,0.3,0,0.5,0c0.8-0.1,1.8-0.2,2.9-0.2c1.1,0,1.8,0,1.9,0.1c0.2,0.1,0.3,0.2,0.3,0.5c0,0.2,0,1,0,2.2
	c0,0.2,0,0.4,0,0.7c0,0.8,0,1.3,0,1.5c0,0.3-0.2,0.5-0.4,0.5c-0.1,0.1-0.5,0.1-1,0.1c-0.2,0-0.3,0-0.5,0c-0.1,0-0.2,0-0.3,0
	c-0.6,0-1.1,0-1.3-0.1c-0.2,0-0.6-0.2-1.3-0.5c-0.1,0-0.1-0.1-0.1-0.1c0,0-0.1,0-0.2-0.1c-0.5-0.2-0.8-0.3-0.8-0.3
	c-0.1,0-0.1,0.2,0,0.5c0,0.1,0,0.1,0,0.1c0.1,1.2,0.2,3.2,0.2,5.9c0,0.1,0,0.2,0,0.4c0,1.6,0,2.7,0.1,3.1c0,0.6,0.2,1,0.4,1.2
	C189.7,43.8,190.1,43.9,190.7,43.9C190.7,43.9,190.7,43.9,190.7,43.9z M203.1,38.6c-0.2,0.2-0.4,0.1-0.6-0.2
	c-0.2-0.3-0.5-0.9-0.9-1.8c-0.6-1.5-1-2.7-1.1-3.6c-0.1-0.9,0.1-1.5,0.6-2c0.2-0.2,0.9-0.3,2.1-0.3c1.1,0,1.7,0.1,1.8,0.3
	c0.2,0.4,0,1.6-0.6,3.7C204,37,203.5,38.2,203.1,38.6z M216.3,47c0,0,0.5,0,1.2-0.1c3.3-0.4,6-1,8.2-1.9c0.4-0.1,0.6-0.2,0.8-0.2
	c0.2,0,0.4,0,0.7,0.1c2.4,1.1,5.1,1.8,8.2,2c0.3,0,0.5,0,0.6,0c0.1,0,0.1-0.1,0.2-0.2c0-0.2,0.2-0.5,0.4-0.8
	c0.2-0.3,0.4-0.5,0.6-0.6c0.3-0.1,0.4-0.2,0.3-0.3c0-0.1-0.3-0.1-0.7-0.1c-2.1-0.1-4-0.3-5.5-0.5c-1.5-0.2-2.3-0.5-2.4-0.7
	c0-0.1,0-0.2,0.1-0.3c0.1-0.1,0.3-0.3,0.6-0.5c0.5-0.4,1-0.8,1.6-1.4c0.1-0.1,0.2-0.2,0.3-0.3c0.4-0.4,0.6-0.6,0.8-0.6
	c0.2-0.1,0.7-0.1,1.4-0.1c0.2,0,0.4,0,0.6,0c1,0,1.6,0,1.8,0c0.2,0,0.3-0.1,0.4-0.2c0.1-0.2-0.3-0.8-1.4-1.6
	c-0.4-0.3-0.6-0.5-0.6-0.6c-0.1-0.1-0.1-0.5-0.1-1c-0.1-1.3-0.1-2.2,0-2.8c0-0.2,0-0.4,0-0.6c-0.1-0.7,0-1.2,0.3-1.3
	c0.3-0.1,0.5-0.1,0.7,0c0.2,0.1,0.3,0.4,0.4,0.7c0,0.3,0.2,0.4,0.5,0.5c0.3,0.1,0.6,0,0.8-0.2c0.4-0.4,0.4-0.9,0-1.5
	c-0.3-0.6-0.9-1-1.7-1.4c-0.7-0.3-0.9-0.2-0.6,0.2c0.3,0.4,0.2,0.7-0.1,0.9c-0.3,0.2-0.7,0.2-1.2,0c-0.2-0.1-0.2-0.3,0-0.5
	c0.2-0.3,0.5-0.5,0.9-0.7c0.2-0.1,0.4-0.2,0.5-0.5c0.1-0.3,0.3-0.6,0.7-0.9c0.4-0.4,0.6-0.6,0.8-0.6c0.3,0,0.4-0.2,0.2-0.3
	c-0.2-0.2-0.6-0.4-1.2-0.7c0,0,0,0-0.1,0c-0.4-0.2-0.7-0.3-0.7-0.3c-0.1,0-0.2,0.1-0.2,0.3c-0.2,0.6-0.4,1-0.6,1.5
	c-0.2,0.4-0.4,0.6-0.5,0.6c-0.1,0-0.1,0-0.2,0c-0.1-0.1-0.1-0.1-0.1-0.2c0,0-0.1-0.2-0.2-0.4c-0.2-0.3-0.2-0.5-0.1-0.7
	c0.1-0.2,0.4-0.5,0.9-0.9c0.7-0.7,1.2-1,1.3-1.1c0.2-0.1,0.3-0.2,0.1-0.4c-0.2-0.1-0.6-0.4-1.2-0.7c-0.4-0.2-0.7-0.3-0.8-0.3
	c-0.1,0-0.1,0-0.2,0.2c-0.3,1.1-0.6,1.9-0.8,2.2c-0.2,0.4-0.6,0.5-1,0.3c-0.4-0.1-0.7-0.1-0.7-0.1c-0.2,0.2-0.4,0.1-0.7-0.2
	c-0.2-0.2-0.1-0.4,0.2-0.6c0.1-0.1,0.1-0.3,0-0.5c-0.2-0.3-0.5-0.5-0.9-0.8c-0.3-0.2-0.5-0.3-0.6-0.2c-0.1,0-0.3,0.2-0.6,0.6
	c-0.4,0.5-1.4,0.6-3.1,0.4c0,0,0,0-0.1,0c-0.2,0-0.3,0-0.4,0l0.2,0.5c0.1,0.3,0.2,0.5,0.3,0.6c0,0,0.2,0,0.6-0.1
	c2.7-0.4,3.7-0.2,3,0.6c-0.3,0.3-1.1,0.5-2.6,0.4c-1.5,0-2.5-0.2-3.3-0.6c0,0-0.1,0-0.2-0.1c-0.4-0.2-0.7-0.3-0.8-0.3
	c-0.1,0-0.2,0.1-0.2,0.2l0,0.1c-0.4,1.3-0.7,2-1,2c-0.1,0-0.1,0-0.2,0c-0.1-0.1-0.1-0.1-0.1-0.2c0,0,0-0.1-0.1-0.2
	c-0.2-0.3-0.2-0.5-0.2-0.6c0.1-0.2,0.3-0.4,0.7-0.8c0.1-0.1,0.2-0.2,0.3-0.3c0.3-0.3,0.5-0.5,0.6-0.6c0.2-0.2,0.4-0.4,0.6-0.5
	c0.2-0.1,0.3-0.2,0-0.4c-0.2-0.2-0.7-0.4-1.4-0.7c-0.3-0.1-0.4-0.2-0.5-0.2c-0.1,0-0.1,0-0.1,0.1c-0.1,0.4-0.3,1-0.5,1.8
	c-0.2,0.6-0.4,0.9-0.6,1.1c-0.1,0.1-0.4,0.1-0.9,0c-0.4-0.1-0.6-0.1-0.7-0.1c-0.1,0.1,0,0.2,0.2,0.5c0.5,0.6,0.8,1.2,1.1,1.8
	c0.1,0.3,0.3,0.4,0.7,0.4c0.5,0,0.6,0.3,0.2,0.9c-0.2,0.3-0.3,0.4-0.5,0.5s-0.5,0.1-1.1,0.1c-0.5,0-0.8,0.1-0.8,0.1
	c0,0,0.1,0.3,0.3,0.8s0.4,0.9,0.4,1c0.1,0.2,0.1,0.7,0,1.6c-0.1,0.9-0.3,1.7-0.6,2.4c-0.2,0.6-0.2,0.9-0.1,0.9
	c0.1,0,0.4-0.2,0.7-0.6c0.4-0.4,0.8-1,1.2-1.8c0.4-0.8,0.7-1.1,0.8-0.8c0.1,0.3,0.1,1.2,0,2.7c0,0.7,0.4,0.8,1.2,0.5
	c0.3-0.1,0.5-0.2,0.6-0.4c0-0.1,0.1-0.6,0-1.2c-0.1-1.5,0-2.4,0-2.7c0-0.2,0-0.4,0-0.6c-0.1-0.4-0.1-0.7,0-0.9
	c0.1-0.3,0.2-0.4,0.5-0.4c0.1,0,0.2,0,0.3,0.1c0.1,0.1,0.2,0.3,0.2,0.5c0.1,0.3,0.2,0.5,0.4,0.6c0.2,0.1,0.5,0,0.8-0.2
	c0.4-0.2,0.4-0.6,0.2-1.1c-0.2-0.5-0.5-1-1.1-1.3c-0.5-0.3-0.9-0.5-1.1-0.5s-0.2,0.1-0.1,0.5c0.2,0.3,0.2,0.5,0.2,0.7
	c-0.1,0.1-0.3,0.2-0.7,0.2c-0.5,0-0.7-0.1-0.7-0.4c0-0.3,0.3-0.6,0.8-0.8c0.2-0.1,0.4-0.3,0.5-0.5c0.3-0.5,0.6-0.9,1.1-1.2
	c0.4-0.3,0.8-0.4,1-0.2c0,0,0.8,0.1,2.2,0.1c1,0,1.6,0,1.8,0c0.4,0,0.5,0.1,0.6,0.2c0,0.1,0,0.2-0.2,0.5c-0.2,0.3-0.5,0.5-0.9,0.6
	c-0.3,0-1.1,0-2.4-0.1c-0.3,0-0.4,0-0.4,0c0,0,0.1,0.2,0.2,0.6c0,0,0,0.1,0.1,0.1c0.1,0.2,0.2,0.3,0.2,0.3c0,0,0.2,0,0.3-0.1
	c0,0,0.1,0,0.1,0c0.2-0.1,0.7-0.1,1.5-0.1c0.8,0,1.2,0,1.4,0.1c0.1,0.1,0.1,0.2-0.1,0.5c-0.3,0.3-0.6,0.5-0.9,0.6c-0.4,0.1-1,0-2,0
	c0,0-0.1,0-0.1,0l-0.6,0c0,0,0,0.2,0.2,0.5c0.2,0.3,0.3,0.5,0.3,0.6c0,0,0.3,0,0.7-0.1c1.1-0.1,1.9-0.2,2.6-0.2c0.9,0,1.5,0,1.7-0.1
	c0.2-0.1,0.4,0.1,0.7,0.6c0.3,0.5,0.4,1,0.3,1.4c0,0.1,0,0.2,0,0.3c0,0.3,0,0.4,0,0.5c0,0.7-0.2,1.6-0.6,2.6
	c-0.1,0.2-0.1,0.3-0.1,0.3c0,0,0.1,0.1,0.1,0.1c0.1,0.1,0.4-0.1,0.7-0.5c0.3-0.4,0.7-0.9,1.1-1.5c0.5-0.8,0.8-1.1,0.9-0.8
	c0.1,0.3,0.1,1.2,0,2.7c0,0.3,0,0.5,0.1,0.6c0.1,0.1,0.2,0.1,0.5,0.1c0.3,0,0.5,0.1,0.5,0.3c0,0.2-0.1,0.4-0.5,0.6
	c-0.1,0.1-1.5,0.1-4.1,0.1c-2.7,0-4,0-4.1-0.1c-0.2-0.1-0.2-0.3,0-0.6c0.2-0.3,0.4-0.4,0.6-0.5c0.2,0,0.3-0.1,0.3-0.1
	c0-0.1-0.1-0.2-0.2-0.2c-0.1-0.1-0.2-0.2-0.2-0.3s0.1-0.2,0.2-0.4c0.1-0.1,0.2-0.2,0.2-0.2c0-0.2,0.3-0.4,0.9-0.4c0.6,0,1,0,1.1,0.3
	c0.1,0.1,0.1,0.2,0.1,0.2c0,0,0.1,0,0.2,0c0.5,0,0.9-0.1,1.1-0.3s0.3-0.5,0.2-0.9c0-0.7,0-1.2,0-1.4c0-0.2,0.2-0.4,0.4-0.6
	c0.2-0.1,0.2-0.2,0.2-0.3c0-0.1-0.1-0.2-0.3-0.4c-0.4-0.4-0.8-0.6-1-0.7c-0.2-0.1-0.5,0-0.7,0.3c-0.3,0.3-0.7,0.5-1.2,0.5
	c-0.5,0-1-0.1-1.5-0.3c-0.8-0.4-1.2-0.5-1.3-0.5c-0.1,0-0.1,0.3,0,0.7c0,0.1,0.1,0.6,0.1,1.6c0,0.9,0.1,1.6,0,1.9
	c0,0.2-0.1,0.4-0.2,0.5c-0.1,0.1-0.3,0-0.4-0.1c-0.1-0.1-0.1-0.3,0-0.7c0.2-0.4,0.2-0.9,0-1.4c-0.3-0.5-0.7-1-1.4-1.5
	c-0.3-0.2-0.5-0.3-0.6-0.2c0,0.1,0,0.4,0.2,0.8c0.2,0.5,0.4,1.1,0.4,1.6c0.1,0.4,0.1,0.6,0.1,0.7c0,0.1,0.1,0.2,0.2,0.2
	c0.3,0.2,0.3,0.7-0.1,1.5c-0.4,0.8-1,1.6-1.8,2.5c-0.9,0.9-1.8,1.7-2.7,2.4c-0.3,0.2-0.5,0.4-0.6,0.4c-0.1,0.1-0.1,0.2,0,0.2
	c0.1,0.1,0.6-0.1,1.6-0.5c0.9-0.4,1.8-0.9,2.5-1.4c0,0,0.1-0.1,0.2-0.1c0.6-0.4,0.9-0.6,1.1-0.6s0.4,0.2,0.7,0.5
	c0,0,0.1,0.1,0.1,0.1c0.5,0.5,0.9,0.9,1.1,1c0.4,0.4,0.6,0.7,0.5,0.8c-0.1,0.2-0.5,0.4-1.2,0.7c-1.8,0.8-4,1.4-6.4,1.9
	c-0.5,0.1-0.8,0.2-0.9,0.2C216.2,46.8,216.2,46.9,216.3,47z M226.9,42.8c-0.2,0.1-0.5,0.1-0.9,0c-0.3-0.1-0.8-0.4-1.5-0.8
	c-0.6-0.4-1-0.7-1.2-1c-0.2-0.2-0.1-0.4,0.1-0.6c0.1-0.1,1-0.1,2.7-0.1c1.7,0,2.6,0,2.7,0.1c0.2,0.1,0,0.5-0.4,1
	S227.5,42.5,226.9,42.8z M236.4,37.5c0,0,0.1,0,0.1,0c0.4,0,0.6-0.2,0.6-0.7c0-0.4-0.1-0.9-0.4-1.4c-0.3-0.6-0.7-1-1.2-1.3
	c-0.5-0.4-0.9-0.5-0.9-0.4c-0.1,0,0,0.3,0.3,0.9c0.4,0.8,0.6,1.5,0.7,2c0.1,0.3,0.1,0.5,0.1,0.6c0,0.1,0.1,0.1,0.2,0.2
	c0.1,0,0.2,0.1,0.3,0.1C236.2,37.5,236.3,37.5,236.4,37.5z M227.3,36.3c-0.2,0.1-0.5,0.1-0.9,0.1c-0.4-0.1-0.6-0.2-0.7-0.3
	c-0.2-0.4-0.2-0.8,0-1.2c0.2-0.4,0.5-0.6,1-0.6c0.3,0,0.6,0.1,0.8,0.4c0.2,0.3,0.3,0.6,0.3,0.9C227.8,35.9,227.6,36.2,227.3,36.3z
	 M232.4,33.9c-0.1,0.1-0.4,0.1-0.9,0c-0.4-0.1-0.7-0.3-0.7-0.4c0-0.2,0.1-0.3,0.5-0.5c0.4-0.2,0.7-0.2,0.9-0.1
	c0.1,0.1,0.2,0.2,0.3,0.4C232.5,33.6,232.5,33.8,232.4,33.9z M219.2,33.8c-0.1,0.1-0.4,0.2-0.8,0.1c-0.4-0.1-0.6-0.3-0.6-0.4
	c0-0.2,0.2-0.4,0.6-0.5c0.4-0.1,0.7-0.1,0.8,0.1c0.1,0.1,0.1,0.2,0.1,0.4C219.3,33.6,219.3,33.8,219.2,33.8z M229.8,31.7
	c-0.1,0-0.2,0-0.3-0.1c-0.1-0.1-0.3-0.3-0.6-0.6c-0.3-0.3-0.4-0.4-0.4-0.5c0-0.1,0.2-0.2,0.6-0.2c0.4-0.1,0.6-0.2,0.6-0.3
	c0-0.1-0.2-0.4-0.6-0.7c-0.4-0.4-0.5-0.6-0.5-0.7s0.3-0.2,0.8-0.2c0.4,0,0.6-0.1,0.6-0.1c0.2-0.1,0.4,0,0.6,0.2
	c0.3,0.3,0.4,0.6,0.6,1.1c0.1,0.3,0.3,0.4,0.7,0.4s0.5,0.2,0.2,0.7c-0.2,0.3-0.4,0.6-0.6,0.7c-0.2,0.1-0.5,0.2-1,0.2
	c-0.1,0-0.2,0-0.4,0C230,31.7,229.9,31.7,229.8,31.7z M248.2,46.9c0.3,0.2,0.7,0.1,1.3-0.1c0.6-0.2,0.8-0.5,0.8-0.8c0,0,0-0.1,0-0.2
	c0-0.2,0-0.4,0.1-0.5c0.1-0.1,0.4-0.2,1-0.2c0.4,0,1.2,0,2.6,0c0.3,0,0.5,0,0.7,0c0.2,0,0.5,0,0.9,0c1.3,0,2.1,0,2.5,0
	c0.5,0,0.8,0.1,0.9,0.2c0.1,0.1,0.1,0.3,0.1,0.5c0,0.1,0,0.1,0,0.2c0,0.4,0,0.6,0.2,0.7c0.2,0.1,0.5,0.1,1-0.1
	c0.6-0.2,0.9-0.4,1-0.6c0.1-0.2,0.2-0.7,0.1-1.5c-0.2-4.8-0.1-7.2,0.4-7.2c0,0,0.1,0,0.3-0.1c0.1-0.1,0.2-0.2,0.2-0.2
	c0-0.1-0.2-0.3-0.7-0.7c-0.5-0.4-0.9-0.7-1.2-0.9c-0.1-0.1-0.3-0.1-0.4,0s-0.3,0.2-0.6,0.5c0,0-0.1,0.1-0.1,0.2
	c-0.2,0.2-0.5,0.4-0.7,0.4c-0.3,0-1.2,0-2.8,0c-0.5,0-0.9,0-1.2,0c-0.3,0-0.7,0-1.2,0c-1.5,0-2.4,0-2.7,0c-0.3,0-0.7-0.2-1.2-0.4
	c-0.2-0.1-0.3-0.1-0.5-0.2c0,0-0.1,0-0.2-0.1c-0.5-0.2-0.7-0.3-0.8-0.3s-0.1,0.2,0,0.5c0,0.1,0,0.1,0,0.1c0.1,1.1,0.2,2.6,0.2,4.5
	c0,1.9,0,3.6-0.1,5.1c0,0.4,0,0.7,0,0.8C248.1,46.8,248.1,46.9,248.2,46.9z M258.8,44.5c-0.1,0.1-1.5,0.1-4,0.1c-2.6,0-3.9,0-4-0.1
	c-0.2-0.1-0.3-0.2-0.3-0.4c0-0.2,0-0.6,0-1.2c0-0.1,0-0.3,0-0.5c0-0.4,0-0.7,0.1-0.9c0.1-0.2,0.4-0.3,0.8-0.3c0.3,0,1.1,0,2.3,0
	c0.5,0,0.9,0,1.2,0s0.7,0,1.2,0c1.2,0,1.9,0,2.3,0c0.4,0,0.7,0.2,0.8,0.3c0.1,0.1,0.1,0.4,0.1,0.9c0,0.2,0,0.4,0,0.5
	c0,0.7,0,1.1,0,1.3C259,44.3,258.9,44.4,258.8,44.5z M254.7,40.6c-2.6,0-4,0-4.1-0.1c-0.1-0.1-0.2-0.2-0.2-0.4c0-0.2,0-0.6,0-1.2
	c0-0.1,0-0.2,0-0.4c0-0.4,0-0.7,0.1-0.8c0.1-0.1,0.4-0.2,0.8-0.3c0.3,0,1.1,0,2.3,0c0.5,0,0.9,0,1.2,0s0.7,0,1.2,0
	c1.2,0,1.9,0,2.3,0c0.4,0,0.7,0.1,0.8,0.3c0.1,0.1,0.1,0.4,0.1,0.8c0,0.2,0,0.3,0,0.4c0,0.6,0,1,0,1.2c0,0.2-0.1,0.3-0.2,0.4
	C258.7,40.5,257.4,40.6,254.7,40.6z M244.7,34.3c0.1,0,0.1,0.1,0.2,0c0,0,0.1,0,0.2,0c0.7-0.1,1.2-0.2,1.5-0.2
	c0.3,0,3.4-0.1,9.4-0.1c0.4,0,0.9,0,1.6,0c2.8,0,4.6,0,5.3,0c1,0,1.7,0,2-0.1c0.2,0,0.3-0.1,0.3-0.2c0,0,0-0.1,0-0.1
	c0-0.1-0.1-0.3-0.5-0.6c-0.3-0.3-0.7-0.7-1.2-1l0,0c-0.4-0.3-0.6-0.4-0.7-0.4c-0.1,0-0.3,0.2-0.6,0.7c0,0-0.1,0.1-0.1,0.1
	c0,0-0.1,0.1-0.1,0.2c-0.3,0.4-0.5,0.6-0.7,0.6c-0.2,0.1-0.6,0.1-1.4,0.1c-0.2,0-0.3,0-0.4,0c-0.9,0-1.4,0-1.6,0
	c-0.3,0-0.4-0.2-0.3-0.3c0-0.1,0.3-0.4,0.7-0.8c0.2-0.2,0.6-0.6,1.2-1.3c0,0,0.1-0.1,0.1-0.1c0.4-0.5,0.6-0.7,0.7-0.8
	c0.1-0.1,0.2-0.2,0.3-0.2c0.2-0.1,0.3-0.1,0.3-0.2c0-0.1-0.2-0.2-0.5-0.3c-0.6-0.3-0.8-0.5-0.6-0.6c0.2-0.1,1-0.1,2.4-0.1
	c1.1,0,1.8,0,2,0c0.2,0,0.3-0.1,0.4-0.2c0.1-0.2-0.3-0.7-1.3-1.4l0,0c-0.5-0.4-0.8-0.6-1-0.6c-0.1,0-0.4,0.3-0.7,0.7l0,0
	c0,0-0.1,0.1-0.1,0.2c-0.2,0.4-0.5,0.6-0.7,0.6c-0.2,0-0.8,0.1-1.8,0.1c-0.2,0-0.4,0-0.5,0c-1.1,0-1.7,0-1.9,0
	c-0.2,0-0.3-0.1-0.4-0.1c-0.2-0.2-0.2-0.5-0.2-0.9s0.2-0.7,0.4-0.9c0.2-0.2,0.2-0.3-0.1-0.4c-0.2-0.1-0.8-0.3-1.7-0.5
	c0,0-0.1,0-0.2,0c-0.4-0.1-0.7-0.2-0.7-0.1c-0.1,0-0.1,0.2-0.1,0.5c0,0.1,0,0.1,0,0.1c0,0.1,0,0.3,0,0.5c0,0.7,0,1.1,0,1.3
	c-0.1,0.3-0.3,0.4-0.6,0.5c-0.3,0-0.9,0-1.9,0c-0.3,0-0.5,0-0.7,0c-2.2,0-3.8,0-4.7-0.1c-0.2,0-0.3,0-0.4,0c0,0,0.1,0.2,0.2,0.5
	c0,0,0,0,0,0.1c0.1,0.2,0.2,0.4,0.3,0.4c0.1,0,0.3,0,0.5,0c0.1,0,0.1,0,0.2,0c2-0.3,2.9-0.3,2.9,0c0,0.1,0.1,0.3,0.2,0.6
	c0.4,0.8,0.7,1.6,0.9,2.4s0.3,1.4,0.1,1.5c-0.1,0.1-0.9,0.1-2.4,0.1c-1.5,0-2.7,0-3.6-0.1c-0.2,0-0.4,0-0.4,0c0,0,0.1,0.2,0.2,0.5
	S244.7,34.2,244.7,34.3z M256.1,33.3c-0.2,0.1-0.8,0.1-1.9,0.1c-1.1,0-1.6-0.1-1.7-0.1c-0.1-0.1-0.1-0.1-0.1-0.2
	c0-0.1,0-0.2,0.1-0.4c0.2-0.5,0.2-1.1-0.1-1.7c-0.3-0.6-0.7-1.1-1.4-1.6l0,0c-0.5-0.3-0.8-0.6-0.8-0.6c0-0.1,0.2-0.2,0.7-0.2
	c0.4,0,1.4,0,2.9,0c0.2,0,0.4,0,0.7,0c1.2,0,2,0,2.3,0c0.4,0,0.7,0.1,0.8,0.2c0,0.1,0,0.3,0,0.6c0,0.1,0,0.1,0,0.1
	c-0.3,1-0.5,1.8-0.8,2.6C256.5,32.8,256.3,33.2,256.1,33.3z M278.4,46.4c0.9,0.1,3.1,0.1,6.4,0c3.4,0,5.3-0.1,5.9-0.2
	c0.7-0.1,1.3-0.3,1.8-0.6c0.4-0.3,0.7-0.6,0.7-0.9c0-0.3-0.2-0.6-0.7-0.8c-0.4-0.2-0.6-0.4-0.6-0.6c-0.1-0.2-0.1-0.8-0.1-1.7
	s0-1.5-0.1-1.6c-0.1-0.1-0.2,0.1-0.4,0.7c0,0.1-0.1,0.3-0.1,0.5c-0.3,1.1-0.6,1.8-0.8,2.1c-0.3,0.4-0.9,0.7-1.8,0.8
	c-0.6,0.1-2,0.1-4.2,0.1c-0.4,0-0.7,0-0.9,0c-0.4,0-1,0-1.7,0c-1.9,0-3,0-3.5-0.1c-0.7-0.1-1.1-0.3-1.3-0.6
	c-0.1-0.3-0.2-0.8-0.1-1.8c0-0.4,0-0.7,0-0.9c0-0.1,0-0.2,0-0.4c0-1,0-1.6,0-1.8c0-0.2,0.1-0.3,0.3-0.4l0,0c0.1-0.1,1.9-0.1,5.2-0.1
	c3.4,0,5.2,0,5.3,0.1c0.1,0.1,0.2,0.1,0.3,0.2c0,0.1,0.1,0.2,0.1,0.5c0,0.4,0.1,0.6,0.2,0.7c0.1,0.1,0.4,0.1,0.8,0
	c0.5-0.1,0.8-0.2,1-0.3c0.2-0.1,0.3-0.3,0.3-0.6c0-0.2,0-0.6,0-1.3c-0.1-2-0.1-3.3,0-3.8c0-0.5,0.2-0.9,0.4-1
	c0.4-0.2,0.5-0.4,0.5-0.5c0-0.2-0.3-0.4-0.8-0.9c-0.6-0.5-1-0.8-1.2-0.8c-0.2,0-0.4,0.1-0.7,0.4c0,0-0.1,0.1-0.1,0.2
	c-0.3,0.3-0.5,0.5-0.7,0.5c-0.2,0-0.7,0.1-1.6,0.1c-0.2,0-0.3,0-0.4,0c-1,0-1.7,0-2,0c-0.4,0-0.5-0.2-0.5-0.3c0-0.1,0.3-0.4,0.7-0.7
	c0.6-0.5,1.1-1,1.3-1.2c0.6-0.6,1.1-0.9,1.4-1c0.3-0.1,0.4-0.2,0.4-0.3c0-0.1-0.3-0.4-0.7-0.8c-0.6-0.6-1-0.9-1.2-1
	c-0.2-0.1-0.5,0.1-0.8,0.5c0,0-0.1,0.1-0.1,0.1c-0.3,0.3-0.5,0.5-0.7,0.5c-0.2,0-0.7,0.1-1.5,0.1c-0.2,0-0.3,0-0.4,0
	c-1,0-1.6,0-1.8,0c-0.2,0-0.3-0.1-0.3-0.3c0-0.2,0.1-0.5,0.3-0.9c0.3-0.4,0.5-0.6,0.7-0.7c0.6-0.1-0.2-0.5-2.1-1.1
	c-0.4-0.1-0.6-0.2-0.7-0.1c-0.1,0-0.1,0.1-0.2,0.3c-0.3,1.4-1,3-2,4.8c-1,1.8-2.2,3.3-3.5,4.7c-0.3,0.3-0.5,0.5-0.5,0.6
	c0,0.1,0,0.1,0.2,0.1s0.8-0.4,1.9-1.2c0.3-0.2,0.5-0.3,0.6-0.4c0.1,0,0.2,0,0.3,0.1c0,0,0.1,0.3,0.1,0.8c0,0.4,0,1.9,0,4.3
	c0,0.1,0,0.1,0,0.1c0,2.7,0,4.2,0,4.7s0.1,0.9,0.2,1.2l0,0C275.4,45.7,276.5,46.3,278.4,46.4z M285.9,37.6c-1.2,0-1.9,0-2.1-0.1
	c-0.2-0.1-0.3-0.2-0.3-0.5c0-0.3,0-0.9,0-2.1c0-0.2,0-0.4,0-0.7c0-0.7,0-1.1,0-1.3c0-0.3,0.2-0.4,0.4-0.5c0.2,0,0.6-0.1,1.2-0.1
	c0.3,0,0.5,0,0.6,0s0.4,0,0.7,0c0.6,0,1,0,1.2,0c0.2,0.1,0.4,0.2,0.5,0.5c0,0.2,0.1,0.6,0,1.3c0,0.3,0,0.5,0,0.7c0,1.1,0,1.8,0,2
	c0,0.2-0.1,0.4-0.2,0.5C287.9,37.5,287.2,37.6,285.9,37.6z M279.2,37.6c-1.2,0-1.9,0-2-0.1c-0.2-0.2-0.3-1-0.3-2.5s0.1-2.3,0.3-2.5
	c0.1-0.1,0.8-0.1,2-0.1c1.2,0,1.9,0,2,0.1c0.2,0.2,0.3,1,0.3,2.4s-0.1,2.3-0.3,2.4C281.1,37.6,280.5,37.6,279.2,37.6z M279.6,31.7
	c-1.5,0-2.3,0-2.4-0.1c-0.4-0.1-0.5-0.3-0.5-0.4c0-0.2,0.3-0.6,0.7-1.1c0.2-0.2,0.5-0.6,0.9-1.1c0,0,0.1-0.1,0.1-0.2
	c0.2-0.3,0.4-0.5,0.6-0.6c0.2,0,0.7-0.1,1.6-0.1c0.2,0,0.4,0,0.5,0c1,0,1.6,0,1.9,0c0.4,0,0.6,0.2,0.6,0.3c0,0.1,0,0.4-0.2,0.8
	c-0.6,1.4-1.1,2.1-1.4,2.3C281.8,31.7,281.1,31.7,279.6,31.7z M309.3,46.9c0.2,0.1,0.6,0.1,1,0c0.5-0.1,0.9-0.3,1.2-0.6l0,0
	c0.1-0.1,0.1-0.2,0.1-0.3c0-0.2,0-0.7,0-1.6c0-0.5,0-0.8,0-1.1c0-1,0-2.1,0-3.3c0-1.2,0-1.8,0.1-1.9c0.1-0.1,0.2-0.2,0.5-0.2
	c0.2,0,1,0,2.4,0c0.1,0,0.3,0,0.5,0c0.9,0,1.5,0,1.7,0c0.3,0,0.5,0.1,0.6,0.2c0,0.1,0.1,0.3,0,0.6c0,0.1,0,0.1,0,0.2
	c0,0.5,0,0.7,0.1,0.8c0.1,0.1,0.4,0.1,0.9,0c0.7-0.1,1.1-0.3,1.2-0.5c0.1-0.2,0.2-0.7,0.1-1.6c-0.1-2.6-0.1-4.4-0.1-5.2
	c0-0.8,0.2-1.3,0.4-1.4c0,0,0,0,0.1,0c0.3-0.2,0.4-0.3,0.4-0.4c0-0.1-0.3-0.5-1-1c-0.7-0.5-1.1-0.8-1.3-0.8c-0.1,0-0.3,0.2-0.7,0.7
	c0,0,0,0.1-0.1,0.1c-0.2,0.2-0.4,0.4-0.6,0.4c-0.2,0-0.8,0-1.9,0c-0.2,0-0.4,0-0.6,0c-0.2,0-0.5,0-0.8,0c-0.8,0-1.3,0-1.5,0
	c-0.3,0-0.5-0.2-0.6-0.4c0-0.1-0.1-0.5,0-1c0-0.2,0-0.4,0-0.5c0-0.8,0-1.4,0-1.5c0-0.2,0.1-0.3,0.3-0.5c0.2-0.2,0.2-0.4-0.1-0.5
	c-0.2-0.1-0.9-0.4-2-0.6c-0.4-0.1-0.7-0.2-0.8-0.1c-0.1,0-0.1,0.1-0.1,0.3c0.1,0.7,0.2,1.6,0.2,2.7c0,1.1,0,1.7,0,1.9l0,0
	c-0.1,0.1-0.2,0.2-0.5,0.3c-0.2,0-1,0-2.4,0c-0.2,0-0.4,0-0.7,0c-1,0-1.6,0-1.8,0c-0.3,0-0.7-0.2-1.2-0.4c-0.2-0.1-0.3-0.1-0.4-0.2
	c-0.1,0-0.1-0.1-0.2-0.1c-0.5-0.2-0.8-0.3-0.8-0.3c-0.1,0-0.1,0.2,0,0.5c0,0.1,0,0.1,0,0.1c0.1,1.1,0.2,2.6,0.2,4.5
	c0,1.8,0,3.5-0.1,4.9c0,0.5,0,0.9,0.1,1c0.1,0.1,0.4,0.1,0.9,0c0.5-0.1,0.9-0.3,1.1-0.4c0.2-0.2,0.3-0.5,0.3-0.8c0,0,0-0.1,0-0.2
	c0-0.3,0-0.5,0.1-0.6c0.1-0.1,0.3-0.2,0.6-0.2c0.2,0,0.8,0,1.7,0c0.2,0,0.4,0,0.6,0c1.3,0,2.1,0,2.4,0c0.2,0,0.4,0.1,0.5,0.3
	c0.1,0.1,0.1,1.1,0.1,2.7c0,1.7-0.1,3.2-0.1,4.5c0,0.7-0.1,1.2,0,1.3C309,46.7,309.1,46.9,309.3,46.9z M306.3,37
	c-1.6,0-2.5,0-2.6-0.1c-0.1-0.1-0.2-0.2-0.3-0.5c0-0.3,0-1.2,0-2.6c0-0.3,0-0.6,0-1c0-0.8,0-1.3,0-1.6c0.1-0.3,0.2-0.5,0.5-0.6
	c0.2,0,0.7-0.1,1.4,0c0.4,0,0.7,0,0.9,0c0.2,0,0.6,0,0.9,0c0.7,0,1.2,0,1.4,0c0.3,0.1,0.4,0.3,0.5,0.6c0,0.2,0.1,0.7,0,1.6
	c0,0.4,0,0.8,0,1c0,1.5,0,2.3,0,2.6c0,0.3-0.1,0.4-0.3,0.5C308.7,37,307.9,37,306.3,37z M317,37c-0.1,0.1-1,0.1-2.6,0.1
	c-1.6,0-2.4,0-2.6-0.1c-0.2-0.1-0.3-0.2-0.3-0.5c0-0.3,0-1.1,0-2.6c0-0.3,0-0.6,0-1c0-0.8,0-1.3,0-1.6c0.1-0.3,0.2-0.5,0.5-0.6
	c0.2,0,0.7-0.1,1.4,0c0.4,0,0.7,0,0.9,0c0.2,0,0.6,0,0.9,0c0.8,0,1.2,0,1.4,0c0.3,0.1,0.4,0.3,0.5,0.6c0,0.2,0.1,0.7,0,1.6
	c0,0.4,0,0.8,0,1c0,1.5,0,2.4,0,2.6C317.3,36.7,317.2,36.9,317,37z M22.9,70.9c0.2,0.1,0.6,0,1-0.1c0.5-0.1,0.8-0.3,1-0.5
	c0.1-0.1,0.1-0.2,0.1-0.2c0,0,0-0.2,0-0.4c-0.1-1.3-0.1-3-0.1-5c0-2,0-3.1,0.1-3.2l0,0c0.1-0.1,0.3-0.2,0.8-0.2c0.5,0,2.1,0,4.8,0
	c0.6,0,1,0,1.4,0s0.8,0,1.4,0c2.7,0,4.3,0,4.8,0c0.5,0,0.8,0.1,0.8,0.2l0,0.1c0.1,0.1,0.1,1.2,0.1,3.4c0,2.1,0,3.3-0.1,3.4
	c-0.1,0.2-0.3,0.3-0.6,0.4c-0.3,0-0.8,0-1.6,0c-0.4,0-0.7,0-0.7,0c-0.2,0.1,0,0.2,0.5,0.4c1,0.2,1.6,0.8,1.8,1.8
	c0,0.2,0.1,0.3,0.1,0.3c0.1,0,0.2,0,0.5,0c0.6-0.1,1.1-0.3,1.5-0.5c0.3-0.2,0.6-0.5,0.7-0.9c0.1-0.2,0.1-0.4,0.1-0.7
	c0-0.3,0-1.4,0-3.2c0-2.4,0-3.7,0.1-3.8c0.1-0.3,0.3-0.4,0.4-0.4c0,0,0.1,0,0.3-0.1c0.1-0.1,0.2-0.2,0.2-0.2c0-0.1-0.3-0.5-1-1
	c-0.6-0.5-1-0.8-1.2-0.8c-0.1,0-0.3,0.2-0.6,0.5c-0.1,0.1-0.1,0.1-0.1,0.2c0,0-0.1,0.1-0.1,0.1c-0.1,0.1-0.2,0.2-0.4,0.3
	c-0.2,0-0.6,0.1-1.3,0.1c-0.5,0-1.6,0-3.4,0c-0.9,0-1.7,0-2.3,0c-3.4,0-5.5,0-6.1-0.1c-0.7,0-1.3-0.2-1.9-0.5
	c-0.6-0.3-1-0.4-1.2-0.4c-0.1,0-0.2,0-0.1,0.2c0.1,0.9,0.2,2.4,0.3,4.4c0,2.1,0,4-0.1,5.7c0,0.5,0,0.8,0,0.9
	C22.6,70.8,22.7,70.9,22.9,70.9z M27.7,69c0.1,0.1,0.2,0.1,0.3,0c0.1,0,0.2,0,0.3,0c0.8-0.1,1.2-0.4,1.2-0.8c0-0.3,0.1-0.4,0.1-0.5
	c0.1-0.1,0.3-0.2,0.6-0.2c0.2,0,0.8,0,1.7,0c0.9,0,1.4,0,1.7,0c0.3,0,0.6,0.1,0.6,0.2c0.1,0.1,0.1,0.2,0.1,0.5
	c0,0.3,0.1,0.4,0.2,0.4c0.1,0,0.4,0,0.9-0.1c0.1,0,0.2,0,0.4-0.1c0.1,0,0.1,0,0.2,0c0.2,0,0.3-0.1,0.4-0.3c0.1-0.2,0.1-0.5,0.1-1
	c-0.1-1.2-0.1-2,0-2.4s0.2-0.6,0.5-0.8c0.2-0.1,0.3-0.2,0.3-0.3s-0.2-0.3-0.4-0.6c-0.6-0.6-1.1-1-1.3-1.1c-0.2-0.1-0.5,0-0.8,0.4
	c0,0,0,0.1-0.1,0.1c-0.2,0.3-0.4,0.5-0.6,0.6c-0.2,0-0.8,0.1-1.8,0.1c-0.2,0-0.3,0-0.4,0c-0.1,0-0.2,0-0.3,0c-1,0-1.6,0-1.8,0
	s-0.6-0.2-1.1-0.4c-0.1,0-0.1-0.1-0.2-0.1c-0.6-0.3-0.9-0.4-1-0.4c-0.1,0-0.1,0.1-0.1,0.2c0.2,1.4,0.2,3.1,0.1,5c0,0.6,0,1,0,1.2
	C27.5,68.8,27.5,68.9,27.7,69z M31.4,66.8c-0.7,0-1.2,0-1.4,0c-0.3,0-0.4-0.1-0.5-0.3c0-0.1-0.1-0.4-0.1-0.9c0-0.1,0-0.2,0-0.3
	c0-0.1,0-0.2,0-0.3c0-0.4,0-0.7,0.1-0.8c0.1-0.2,0.2-0.3,0.5-0.3c0.2,0,0.6,0,1.4,0c0.2,0,0.4,0,0.5,0c0.1,0,0.3,0,0.5,0
	c0.7,0,1.2,0,1.4,0c0.3,0,0.4,0.1,0.5,0.3c0,0.1,0.1,0.4,0.1,0.8c0,0.1,0,0.3,0,0.3c0,0.6,0,1,0,1.1c0,0.1-0.1,0.2-0.3,0.3
	c-0.1,0.1-0.8,0.1-2.1,0.1C31.8,66.8,31.7,66.8,31.4,66.8z M26.4,59.6c0.3,0.1,0.7,0,1.2-0.2c0.5-0.2,0.8-0.4,0.8-0.7
	c0,0,0-0.1,0.1-0.2c0.1-0.1,0.2-0.2,0.3-0.2c0.1,0,1.2-0.1,3.2-0.1c2,0,3.1,0,3.2,0.1c0.2,0.1,0.3,0.3,0.4,0.7
	c0,0.2,0.2,0.3,0.5,0.3c0.4,0,0.8-0.1,1.3-0.3c0,0,0,0,0.1,0c0.2-0.1,0.3-0.2,0.3-0.3c0-0.1,0-0.5,0-1.1c0-0.1,0-0.2,0-0.2
	c0-1,0-1.6,0-1.9c0.1-0.2,0.3-0.4,0.6-0.6c0.2-0.1,0.2-0.3,0.1-0.5c-0.1-0.2-0.5-0.5-1-1c-0.5-0.4-0.8-0.6-1-0.6
	c-0.2,0-0.4,0.2-0.6,0.5c0,0-0.1,0.1-0.1,0.2c-0.2,0.3-0.4,0.4-0.7,0.5c-0.3,0-1.1,0.1-2.4,0.1c-0.4,0-0.7,0-0.9,0c-1.7,0-2.7,0-3,0
	c-0.3,0-0.7-0.1-1.1-0.3c-0.1,0-0.3-0.1-0.5-0.2c-0.6-0.2-0.9-0.4-1-0.4c-0.1,0-0.1,0.2-0.1,0.4c0,0.1,0,0.2,0,0.2
	c0,0.5,0.1,1.2,0.1,2.4c0,1.1,0,1.9,0,2.4c0,0.4,0,0.7,0,0.8C26.2,59.5,26.3,59.6,26.4,59.6z M32,57.7c-2.1,0-3.2,0-3.3-0.1
	c-0.1-0.1-0.2-0.2-0.2-0.3c0-0.2,0-0.5,0-1c0-0.1,0-0.2,0-0.4c0-0.4,0-0.7,0.1-0.8c0.1-0.1,0.3-0.2,0.7-0.3c0.3,0,0.9,0,1.9,0
	c0.4,0,0.7,0,0.9,0c0.2,0,0.5,0,0.8,0c1.1,0,1.7,0,2,0c0.4,0,0.6,0.1,0.7,0.3c0.1,0.1,0.1,0.3,0.1,0.7c0,0.1,0,0.2,0,0.3
	c0,0.5,0,0.9,0,1.1c0,0.2-0.1,0.3-0.2,0.4C35.2,57.6,34.1,57.7,32,57.7z M22.1,52.5c0,0,0.1,0.1,0.2,0c0,0,0.1,0,0.2,0
	c0.8-0.1,1.6-0.2,2.5-0.2c0.9,0,3.7-0.1,8.3-0.1c0.4,0,0.9,0,1.6,0c2.8,0,4.6,0,5.3,0c1,0,1.7,0,2-0.1c0.2,0,0.3-0.1,0.3-0.2
	c0,0,0-0.1,0-0.1c0-0.1-0.2-0.4-0.6-0.7c-0.4-0.4-0.9-0.7-1.4-1.1c-0.3-0.2-0.5-0.3-0.6-0.2c-0.1,0-0.4,0.3-0.7,0.8c0,0,0,0.1,0,0.1
	c0,0-0.1,0.1-0.2,0.2c-0.2,0.3-0.5,0.5-0.7,0.6c-0.2,0-0.8,0.1-1.8,0.1c-0.2,0-0.4,0-0.6,0c-1.3,0-2.1,0-2.3,0
	c-0.2,0-0.4-0.1-0.5-0.3C33,51,33,50.8,33,50.6c0.1-0.3,0.2-0.5,0.4-0.6c0.2-0.2,0.2-0.4,0-0.5c-0.2-0.1-0.8-0.3-1.7-0.6
	c0,0-0.1,0-0.1,0c-0.4-0.1-0.6-0.2-0.7-0.1c0,0-0.1,0.2,0,0.5c0,0,0,0.1,0,0.1c0.1,1.3,0,2-0.2,2.1c-0.1,0-1.4,0.1-3.9,0
	c-2.5,0-4,0-4.5-0.1c-0.4,0-0.6,0-0.6,0c0,0,0,0.2,0.2,0.5C21.9,52.2,22,52.4,22.1,52.5z M52,70.9c0.2,0.1,0.6,0.1,1,0
	c0.5-0.1,0.8-0.3,1-0.5c0.1-0.1,0.1-0.2,0.1-0.3c0-0.1,0-0.4,0-0.8c-0.1-2.8-0.2-5.6-0.1-8.4c0-2.8,0.1-4.3,0.3-4.3
	c0.3-0.1,0.3-0.3-0.1-0.7c-0.3-0.3-0.4-0.5-0.4-0.6s0.1-0.5,0.4-1c0.4-0.9,0.9-1.8,1.3-2.8c0.3-0.7,0.5-1.1,0.8-1.2
	c0.3-0.1,0.3-0.2,0-0.4c-0.2-0.1-0.8-0.4-1.6-0.7c-0.6-0.2-1-0.3-1.1-0.3c-0.1,0-0.2,0-0.2,0.2c-0.2,1.7-0.7,3.6-1.4,5.6
	c-0.7,2.1-1.6,4-2.6,5.6c-0.2,0.4-0.4,0.7-0.4,0.8c0,0.1,0.1,0.2,0.2,0.2c0.1,0,0.7-0.5,1.6-1.6c0.4-0.5,0.7-0.7,0.9-0.8
	c0.1-0.1,0.2,0,0.3,0.2c0.1,0.2,0.1,1.7,0,4.4c0,2.7-0.1,4.8-0.2,6.1c0,0.7-0.1,1.1,0,1.2C51.7,70.8,51.8,70.9,52,70.9z M56.6,70.3
	c0,0,0.2,0,0.4,0c0.1,0,0.2,0,0.2,0c0.5-0.1,1.1-0.1,1.6-0.2c0.5,0,1.7,0,3.4,0c1.5,0,2.4,0,2.8,0c0.6,0,0.9,0,1.1-0.1
	c0.1,0,0.2-0.1,0.2-0.3c0-0.1-0.3-0.5-1-1.1c-0.7-0.6-1.1-0.9-1.2-0.9c-0.1,0-0.4,0.3-0.8,0.8c-0.4,0.5-0.6,0.8-0.9,0.9
	c-0.2,0.1-1.1,0.1-2.9,0c-1.7,0-2.9-0.1-3.3-0.2c-0.1,0-0.2,0-0.2,0.1c0,0.1,0.1,0.3,0.2,0.6C56.5,70.1,56.6,70.3,56.6,70.3z
	 M69.2,69.9c0.6,0.1,1,0,1.2-0.3c0.2-0.4,0.2-0.9-0.1-1.5c-0.1-0.3-0.2-0.6-0.2-0.9c0-0.3,0.1-0.9,0.2-1.8c0.1-0.8,0.1-1.2,0.1-1.3
	c0,0-0.1,0-0.1,0c-0.1,0-0.1,0-0.1,0.1c-0.5,1.4-0.9,2.2-1.1,2.4c-0.3,0.2-0.7,0-1.2-0.6c-0.5-0.6-0.9-1.4-1.4-2.4
	c-0.5-1.1-0.8-2.2-1.1-3.4c0-0.1,0-0.2-0.1-0.3c-0.1-0.5-0.1-0.8-0.1-0.9c0-0.2,0.2-0.3,0.5-0.3c0.2,0,0.8-0.1,1.6-0.1
	c0.2,0,0.4,0,0.6,0c1.2,0,1.9-0.1,2.2-0.1c0.4-0.1,0.5-0.3,0.3-0.5c-0.1-0.2-0.6-0.6-1.4-1.2c-0.4-0.4-0.7-0.5-0.8-0.5
	c-0.1,0-0.4,0.3-0.7,0.7c-0.3,0.5-0.6,0.7-0.7,0.8c-0.2,0.1-0.5,0.1-0.9,0.1c-0.4,0-0.6-0.1-0.7-0.2c-0.2-0.1-0.3-0.5-0.3-1
	c0-0.4-0.1-1.2-0.1-2.4c0,0,0-0.1,0-0.2c0-0.8,0-1.3,0-1.5c0-0.3,0.2-0.5,0.4-0.6c0.2-0.1,0.5-0.2,1.1-0.3c0.1,0,0.1,0,0.2,0
	c0.7-0.2,1.2-0.3,1.4-0.3c0.2,0,0.4,0,0.6,0c0.6,0.1,0.9,0.1,0.9-0.1c0,0-0.3-0.4-1-1c-0.7-0.6-1.1-1-1.2-1.1c0,0-0.1,0-0.2,0
	c-0.1,0-0.3,0.1-0.7,0.3c-0.9,0.4-1.9,0.9-3.2,1.4s-2.2,0.8-2.8,1c-0.3,0.1-0.5,0.1-0.7,0c-0.2,0-0.7-0.2-1.4-0.5
	c-0.7-0.3-1.1-0.4-1.2-0.4c-0.1,0-0.2,0.1-0.1,0.2c0.1,1.1,0.2,3.6,0.3,7.6c0,4,0,6.1-0.1,6.3c-0.1,0.1-0.2,0.2-0.4,0.3
	c-0.2,0.1-0.6,0.2-1.3,0.3c-0.1,0-0.2,0.1-0.1,0.2c0,0.1,0.2,0.5,0.5,1.2c0.3,0.7,0.5,1.1,0.6,1.2c0.1,0.1,0.2,0,0.4-0.2
	c0.1-0.2,0.7-0.6,1.9-1.1c1.1-0.5,2.2-1.1,3.3-1.7s1.8-0.9,1.8-1c0.1-0.1,0-0.2-0.2-0.2c-0.2,0-0.7,0.1-1.7,0.3
	c-0.2,0-0.4,0.1-0.7,0.1c-0.7,0.2-1.1,0.2-1.3,0.2c-0.3,0-0.4-0.2-0.5-0.5c0-0.2-0.1-0.8,0-1.7c0-0.4,0-0.7,0-0.9c0-0.2,0-0.5,0-0.9
	c0-0.9,0-1.4,0-1.7c0-0.3,0.2-0.5,0.4-0.6c0.2-0.1,0.5-0.1,1.1-0.1c0.2,0,0.4,0,0.6,0c0.1,0,0.2,0,0.3,0c0.8,0,1.4,0.1,1.5,0.2
	c0.2,0.1,0.3,0.4,0.4,1.1c0,0.1,0,0.1,0,0.2c0.5,2.7,1.3,5,2.4,6.9C66.8,68.6,68,69.6,69.2,69.9z M62.7,57.6
	c-0.1,0.1-0.7,0.1-1.7,0.1c-1,0-1.6,0-1.6-0.1c-0.1-0.1-0.2-0.2-0.3-0.4c0-0.2,0-0.9,0-2.1c0-0.1,0-0.4,0-0.6c0-0.7,0-1.1,0-1.3
	c0-0.3,0.2-0.4,0.3-0.5c0.1,0,0.4-0.1,0.9-0.2c0.2,0,0.3,0,0.5,0c0,0,0.1,0,0.2,0c0.6-0.1,1-0.1,1.2-0.1c0.2,0,0.4,0.1,0.5,0.3
	c0,0.1,0.1,0.5,0.1,1c0,0.1,0,0.1,0,0.2c0,0.8,0.1,1.5,0.1,2c0.1,0.8,0.1,1.3,0.1,1.5C62.9,57.4,62.8,57.6,62.7,57.6z M81.2,70.9
	c0.3,0.2,0.7,0.1,1.3-0.1c0.6-0.2,0.8-0.5,0.8-0.8c0,0,0-0.1,0-0.2c0-0.2,0-0.4,0.1-0.5c0.1-0.1,0.4-0.2,1-0.2c0.4,0,1.2,0,2.6,0
	c0.3,0,0.5,0,0.7,0c0.2,0,0.5,0,0.9,0c1.3,0,2.1,0,2.5,0c0.5,0,0.8,0.1,0.9,0.2c0.1,0.1,0.1,0.3,0.1,0.5c0,0.1,0,0.1,0,0.2
	c0,0.4,0,0.6,0.2,0.7c0.2,0.1,0.5,0.1,1-0.1c0.6-0.2,0.9-0.4,1-0.6c0.1-0.2,0.2-0.7,0.1-1.5c-0.2-4.8-0.1-7.2,0.4-7.2
	c0,0,0.1,0,0.3-0.1c0.1-0.1,0.2-0.2,0.2-0.2c0-0.1-0.2-0.3-0.7-0.7c-0.5-0.4-0.9-0.7-1.2-0.9c-0.1-0.1-0.3-0.1-0.4,0
	s-0.3,0.2-0.6,0.5c0,0-0.1,0.1-0.1,0.2c-0.2,0.2-0.5,0.4-0.7,0.4c-0.3,0-1.2,0-2.8,0c-0.5,0-0.9,0-1.2,0c-0.3,0-0.7,0-1.2,0
	c-1.5,0-2.4,0-2.7,0c-0.3,0-0.7-0.2-1.2-0.4c-0.2-0.1-0.3-0.1-0.5-0.2c0,0-0.1,0-0.2-0.1c-0.5-0.2-0.7-0.3-0.8-0.3
	c-0.1,0-0.1,0.2,0,0.5c0,0.1,0,0.1,0,0.1c0.1,1.1,0.2,2.6,0.2,4.5c0,1.9,0,3.6-0.1,5.1c0,0.4,0,0.7,0,0.8
	C81,70.8,81.1,70.9,81.2,70.9z M91.7,68.5c-0.1,0.1-1.5,0.1-4,0.1c-2.6,0-3.9,0-4-0.1c-0.2-0.1-0.3-0.2-0.3-0.4c0-0.2,0-0.6,0-1.2
	c0-0.1,0-0.3,0-0.5c0-0.4,0-0.7,0.1-0.9c0.1-0.2,0.4-0.3,0.8-0.3c0.3,0,1.1,0,2.3,0c0.5,0,0.9,0,1.2,0s0.7,0,1.2,0
	c1.2,0,1.9,0,2.3,0c0.4,0,0.7,0.2,0.8,0.3c0.1,0.1,0.1,0.4,0.1,0.9c0,0.2,0,0.4,0,0.5c0,0.7,0,1.1,0,1.3
	C92,68.3,91.9,68.4,91.7,68.5z M87.7,64.6c-2.6,0-4,0-4.1-0.1c-0.1-0.1-0.2-0.2-0.2-0.4c0-0.2,0-0.6,0-1.2c0-0.1,0-0.2,0-0.4
	c0-0.4,0-0.7,0.1-0.8c0.1-0.1,0.4-0.2,0.8-0.3c0.3,0,1.1,0,2.3,0c0.5,0,0.9,0,1.2,0s0.7,0,1.2,0c1.2,0,1.9,0,2.3,0
	c0.4,0,0.7,0.1,0.8,0.3c0.1,0.1,0.1,0.4,0.1,0.8c0,0.2,0,0.3,0,0.4c0,0.6,0,1,0,1.2c0,0.2-0.1,0.3-0.2,0.4
	C91.7,64.5,90.3,64.6,87.7,64.6z M77.7,58.3c0.1,0,0.1,0.1,0.2,0c0,0,0.1,0,0.2,0c0.7-0.1,1.2-0.2,1.5-0.2c0.3,0,3.4-0.1,9.4-0.1
	c0.4,0,0.9,0,1.6,0c2.8,0,4.6,0,5.3,0c1,0,1.7,0,2-0.1c0.2,0,0.3-0.1,0.3-0.2c0,0,0-0.1,0-0.1c0-0.1-0.1-0.3-0.5-0.6
	c-0.3-0.3-0.7-0.7-1.2-1l0,0c-0.4-0.3-0.6-0.4-0.7-0.4c-0.1,0-0.3,0.2-0.6,0.7c0,0-0.1,0.1-0.1,0.1c0,0-0.1,0.1-0.1,0.2
	c-0.3,0.4-0.5,0.6-0.7,0.6c-0.2,0.1-0.6,0.1-1.4,0.1c-0.2,0-0.3,0-0.4,0c-0.9,0-1.4,0-1.6,0c-0.3,0-0.4-0.2-0.3-0.3
	c0-0.1,0.3-0.4,0.7-0.8c0.2-0.2,0.6-0.6,1.2-1.3c0,0,0.1-0.1,0.1-0.1c0.4-0.5,0.6-0.7,0.7-0.8c0.1-0.1,0.2-0.2,0.3-0.2
	c0.2-0.1,0.3-0.1,0.3-0.2c0-0.1-0.2-0.2-0.5-0.3c-0.6-0.3-0.8-0.5-0.6-0.6c0.2-0.1,1-0.1,2.4-0.1c1.1,0,1.8,0,2,0
	c0.2,0,0.3-0.1,0.4-0.2c0.1-0.2-0.3-0.7-1.3-1.4l0,0c-0.5-0.4-0.8-0.6-1-0.6c-0.1,0-0.4,0.3-0.7,0.7l0,0c0,0-0.1,0.1-0.1,0.2
	c-0.2,0.4-0.5,0.6-0.7,0.6c-0.2,0-0.8,0.1-1.8,0.1c-0.2,0-0.4,0-0.5,0c-1.1,0-1.7,0-1.9,0c-0.2,0-0.3-0.1-0.4-0.1
	c-0.2-0.2-0.2-0.5-0.2-0.9c0-0.4,0.2-0.7,0.4-0.9c0.2-0.2,0.2-0.3-0.1-0.4c-0.2-0.1-0.8-0.3-1.7-0.5c0,0-0.1,0-0.2,0
	c-0.4-0.1-0.7-0.2-0.7-0.1c-0.1,0-0.1,0.2-0.1,0.5c0,0.1,0,0.1,0,0.1c0,0.1,0,0.3,0,0.5c0,0.7,0,1.1,0,1.3c-0.1,0.3-0.3,0.4-0.6,0.5
	c-0.3,0-0.9,0-1.9,0c-0.3,0-0.5,0-0.7,0c-2.2,0-3.8,0-4.7-0.1c-0.2,0-0.3,0-0.4,0c0,0,0.1,0.2,0.2,0.5c0,0,0,0,0,0.1
	c0.1,0.2,0.2,0.4,0.3,0.4c0.1,0,0.3,0,0.5,0c0.1,0,0.1,0,0.2,0c2-0.3,2.9-0.3,2.9,0c0,0.1,0.1,0.3,0.2,0.6c0.4,0.8,0.7,1.6,0.9,2.4
	s0.3,1.4,0.1,1.5c-0.1,0.1-0.9,0.1-2.4,0.1c-1.5,0-2.7,0-3.6-0.1c-0.2,0-0.4,0-0.4,0c0,0,0.1,0.2,0.2,0.5
	C77.5,58.1,77.6,58.2,77.7,58.3z M89.1,57.3c-0.2,0.1-0.8,0.1-1.9,0.1c-1.1,0-1.6-0.1-1.7-0.1c-0.1-0.1-0.1-0.1-0.1-0.2
	c0-0.1,0-0.2,0.1-0.4c0.2-0.5,0.2-1.1-0.1-1.7c-0.3-0.6-0.7-1.1-1.4-1.6l0,0c-0.5-0.3-0.8-0.6-0.8-0.6c0-0.1,0.2-0.2,0.7-0.2
	c0.4,0,1.4,0,2.9,0c0.2,0,0.4,0,0.7,0c1.2,0,2,0,2.3,0c0.4,0,0.7,0.1,0.8,0.2c0,0.1,0,0.3,0,0.6c0,0.1,0,0.1,0,0.1
	c-0.3,1-0.5,1.8-0.8,2.6C89.5,56.8,89.3,57.2,89.1,57.3z M120.5,70.9c0.1,0.1,0.3,0.1,0.8,0s0.8-0.2,1.2-0.4
	c0.6-0.3,1.1-0.8,1.5-1.6c0.4-0.8,0.6-2.1,0.8-3.8c0.2-1.6,0.3-3.9,0.4-7c0-0.2,0-0.4,0-0.8c0-1.6,0.1-2.5,0.1-2.7
	c0-0.3,0.2-0.5,0.4-0.6c0,0,0.1,0,0.1,0c0.2-0.1,0.3-0.2,0.4-0.2c0-0.1,0-0.1,0-0.2c-0.1-0.2-0.4-0.5-0.8-0.9
	c-0.5-0.4-0.8-0.7-1-0.8c-0.1-0.1-0.2-0.1-0.3,0c-0.1,0-0.2,0.2-0.5,0.5c0,0-0.1,0.1-0.1,0.1c-0.3,0.3-0.5,0.5-0.7,0.6
	c-0.2,0-0.7,0.1-1.4,0.1c-0.2,0-0.3,0-0.4,0c-0.1,0-0.2,0-0.3,0c-0.7,0-1.2,0-1.3,0c-0.3,0-0.4-0.2-0.4-0.3c0-0.1,0.1-0.4,0.3-0.9
	c0-0.1,0.1-0.1,0.1-0.2c0.3-0.7,0.5-1.1,0.6-1.3c0.1-0.2,0.2-0.3,0.4-0.4c0.3-0.1,0.2-0.3-0.1-0.5c-0.4-0.2-1.1-0.5-2.2-0.8l0,0
	c-0.2-0.1-0.4-0.1-0.4,0c0,0-0.1,0.2-0.1,0.6c0,0,0,0.1,0,0.1c-0.3,2.3-1,4.8-2.2,7.6c-0.4,1-0.7,1.4-0.9,1.4
	c-0.1-0.1-0.2-0.7-0.2-2c0-1,0-1.6,0.1-1.8c0-0.2,0.2-0.4,0.5-0.6c0.2-0.1,0.3-0.3,0.2-0.5c-0.1-0.2-0.5-0.5-1.1-1
	c-0.4-0.4-0.7-0.5-0.9-0.5c-0.1,0-0.3,0.2-0.6,0.6c-0.3,0.4-0.8,0.6-1.5,0.7c-0.7,0.1-1-0.1-1-0.4c0-0.2,0.3-0.7,0.8-1.6
	c0.6-0.8,0.9-1.3,1.1-1.4c0.4-0.1,0.4-0.3,0.1-0.4c-0.3-0.2-0.9-0.4-2-0.6c0,0-0.1,0-0.2,0c-0.4-0.1-0.6-0.1-0.7-0.1
	c-0.1,0-0.1,0.2-0.1,0.6c0,0.1,0,0.2,0,0.2c0,0.5,0,1-0.1,1.5c-0.1,0.8-0.2,1.4-0.2,1.6c-0.1,0.3-0.3,0.4-0.5,0.4
	c-0.2,0-0.6-0.2-1.2-0.5c-0.6-0.3-0.9-0.4-1-0.4c0,0-0.1,0-0.1,0.1c0,0.1,0,0.3,0.1,0.8c0.1,1.1,0.2,3.5,0.2,7.1
	c0,3.8-0.1,6.6-0.2,8.4c-0.1,0.8,0,1.3,0.1,1.5c0.1,0.2,0.5,0.2,1.1,0c0.4-0.1,0.7-0.3,0.8-0.5c0.1-0.2,0.2-0.5,0.2-1v0
	c0-0.4,0-0.6,0-0.7c0.1-0.1,0.2-0.2,0.5-0.3c0.2,0,0.6,0,1.3,0c0,0,0.1,0,0.1,0s0.1,0,0.1,0c0.7,0,1.1,0,1.3,0
	c0.3,0,0.4,0.1,0.5,0.2c0,0.1,0.1,0.3,0.1,0.6v0.1c0,0.5,0.1,0.8,0.4,0.8c0.3,0.1,0.7,0,1.4-0.4c0,0,0.1,0,0.2-0.1
	c0.2-0.1,0.3-0.2,0.3-0.4c0-0.2,0-0.8,0-1.8c0-0.5,0-0.8,0-1.1c0-1.1,0-2.4,0-4.1c0-1.7,0-2.6,0.1-2.7c0-0.1,0.1-0.3,0.2-0.3
	c0.1-0.1,0.1-0.1,0,0c0,0.1,0,0.1,0.1,0.2c0.1,0,0.1,0,0.2,0c0.2-0.1,0.6-0.6,1.3-1.5c0.7-0.9,1.3-1.8,1.8-2.6c0,0,0,0,0-0.1
	c0.2-0.4,0.5-0.6,0.7-0.7c0.2-0.1,0.9-0.1,2-0.1c0.1,0,0.1,0,0.2,0c0.2,0,0.4,0,0.6,0c0.7,0,1.1,0,1.2,0c0.2,0,0.4,0.2,0.5,0.4
	c0,0.1,0.1,0.5,0,1c0,0.2,0,0.4,0,0.5c0,2.3-0.1,4.5-0.2,6.6c-0.1,2.1-0.3,3.5-0.5,4.4c-0.1,0.5-0.3,0.9-0.5,1.1
	c-0.2,0.2-0.6,0.4-1,0.4c-0.4,0-1.1,0-2.1-0.1c-0.5,0-0.8-0.1-0.9,0c-0.1,0-0.1,0.1-0.1,0.2c0,0.1,0.2,0.2,0.6,0.3
	c1.5,0.4,2.2,1,2.2,2.1C120.5,70.8,120.5,70.9,120.5,70.9z M109.3,66.9c-0.6,0-0.9,0-1.1-0.1c-0.2-0.1-0.3-0.3-0.4-0.6
	c0-0.2-0.1-0.8,0-1.7c0-0.4,0-0.7,0-0.9c0-0.2,0-0.5,0-0.8c0-0.8,0-1.4,0-1.6c0.1-0.3,0.2-0.5,0.4-0.6c0.1-0.1,0.5-0.1,1.1-0.1
	c0.2,0,0.4,0,0.6,0s0.3,0,0.6,0c0.6,0,0.9,0,1.1,0.1c0.2,0.1,0.3,0.3,0.4,0.6c0,0.2,0,0.8,0,1.6c0,0.4,0,0.6,0,0.8
	c0,1.5,0,2.3,0,2.6c0,0.3-0.1,0.4-0.2,0.5c-0.1,0.1-0.2,0.1-0.4,0.1c-0.1,0-0.6,0-1.4,0C109.8,66.9,109.6,66.9,109.3,66.9z
	 M119,63.5c0.4,0.1,0.7,0.1,1-0.1c0.3-0.2,0.5-0.6,0.5-1c0-0.7-0.2-1.4-0.8-2c-0.5-0.7-1.3-1.3-2.4-1.8c-0.6-0.3-0.9-0.4-1-0.4
	c-0.1,0,0,0.3,0.3,0.7c1,1.5,1.6,2.9,1.8,4.1C118.5,63.2,118.7,63.4,119,63.5z M109.4,59.9c-0.6,0-0.9,0-1.1-0.1
	c-0.2-0.1-0.3-0.3-0.4-0.6c0-0.2-0.1-0.7,0-1.6c0-0.4,0-0.7,0-0.9c0-0.2,0-0.4,0-0.8c0-0.8,0-1.3,0-1.5c0.1-0.3,0.2-0.5,0.4-0.6
	c0.1,0,0.5-0.1,1-0.1c0.2,0,0.4,0,0.6,0c0.1,0,0.3,0,0.6,0c0.6,0,0.9,0,1.1,0.1c0.2,0.1,0.3,0.2,0.4,0.6c0,0.2,0.1,0.7,0.1,1.5
	c0,0.3,0,0.6,0,0.7c0,1.4,0,2.2,0,2.5c0,0.3-0.1,0.4-0.2,0.5c-0.1,0.1-0.2,0.1-0.4,0.1c-0.1,0-0.6,0-1.4,0
	C109.8,59.9,109.6,59.9,109.4,59.9z M134.1,70.6c0.1,0.1,0.2,0,0.4-0.1l0,0c0.1-0.1,0.4-0.3,0.6-0.4c0.3-0.1,0.9-0.4,2-0.9
	c1.7-0.8,3.4-1.6,5-2.4c0.8-0.4,1.2-0.6,1.4-0.7c0.1-0.1,0.2-0.2,0.2-0.2c0-0.1-0.1-0.1-0.2-0.1c-0.2,0-0.7,0.1-1.6,0.3
	c-0.1,0-0.1,0-0.2,0c-0.1,0-0.2,0-0.4,0.1c-1.3,0.3-2.1,0.5-2.4,0.6c-0.5,0.1-0.8,0.1-0.9,0c-0.1,0-0.2-0.2-0.2-0.4v0
	c0-0.4,0-1.8,0-4.3c0-2.6,0.1-3.9,0.1-4l0,0c0.1-0.1,0.2-0.2,0.5-0.2c0.3,0,1.1-0.1,2.6-0.1c1.4,0,2.2,0,2.6-0.1
	c0.4-0.1,0.6-0.2,0.5-0.4c-0.1-0.2-0.4-0.6-1.1-1.2l0,0c-0.5-0.5-0.8-0.7-0.9-0.8c-0.2-0.1-0.4-0.2-0.5,0c-0.1,0.1-0.3,0.3-0.6,0.7
	l0,0c-0.4,0.6-0.6,0.9-0.8,1C140,57,139.6,57,139,57c-0.1,0-0.2,0-0.3,0c-0.4,0-0.6,0-0.7-0.1c-0.1-0.1-0.2-0.3-0.3-0.7
	c0-0.2,0-0.8,0-1.8c0-0.3,0-0.6,0-0.8c0-1.6,0-2.5,0-2.8c0-0.3,0.1-0.5,0.3-0.7c0.2-0.2,0.2-0.3-0.1-0.5c-0.3-0.1-0.9-0.3-1.9-0.6
	c0,0-0.1,0-0.1,0c-0.4-0.1-0.6-0.1-0.6-0.1c0,0-0.1,0.2,0,0.5c0,0,0,0.1,0,0.1c0.1,0.8,0.2,1.7,0.2,2.6c0,0.9,0,3.3,0,7.2
	c0,3.7,0,5.9,0,6.6c0,0.6,0,1-0.1,1.1c-0.1,0.1-0.2,0.2-0.3,0.3c-0.2,0-0.5,0.1-1.2,0.3c-0.1,0-0.2,0-0.4,0.1
	c-0.5,0.1-0.7,0.2-0.8,0.3c0,0.1,0.1,0.4,0.4,1c0.1,0.1,0.1,0.3,0.2,0.4c0,0,0,0.1,0.1,0.2C133.8,70.2,134,70.6,134.1,70.6z
	 M146.6,70.4c0.9,0.1,2.1,0.1,3.6,0c1.5-0.1,2.5-0.2,2.9-0.3c0.5-0.2,0.9-0.4,1-0.8c0.1-0.4,0-0.7-0.4-1.1c-0.2-0.2-0.3-0.3-0.4-0.5
	c0-0.2-0.1-0.6-0.1-1.4c0-1.4-0.1-2.2-0.2-2.3c0-0.1-0.2,0.3-0.4,1.3c0,0.1,0,0.2,0,0.3c-0.2,0.9-0.4,1.5-0.5,1.8
	c-0.2,0.4-0.4,0.6-0.8,0.6c-0.3,0.1-0.8,0.1-1.8,0.1c-0.1,0-0.3,0-0.3,0c-0.2,0-0.5,0-0.8,0c-0.7,0-1.1,0-1.2-0.1
	c-0.3-0.1-0.4-0.4-0.5-0.9c0-0.3-0.1-1.1-0.1-2.4c0-0.6,0-1,0-1.4c0-0.3,0-0.7,0-1.2c0-1.2,0-2,0-2.4c0-0.5,0.1-0.8,0.2-1
	c0.1-0.1,0.3-0.2,0.6-0.3c0.1,0,0.2-0.1,0.3-0.1c1.4-0.5,2.8-1.2,4.1-1.9c0.4-0.3,0.7-0.4,0.9-0.5c0.2-0.1,0.4-0.1,0.5-0.1
	c0.4,0,0.5,0,0.5-0.2c0,0-0.4-0.4-1.1-1.2c-0.4-0.4-0.6-0.6-0.8-0.7c-0.2-0.1-0.4-0.1-0.6,0.1c-0.1,0.1-0.5,0.4-1,0.9
	c-1.8,1.8-2.9,2.7-3.2,2.8c-0.2,0-0.3,0-0.3-0.1c0-0.1-0.1-0.4-0.1-1c0-0.4,0-1.3,0-2.7c0-1.8,0-2.8,0-3.1c0-0.3,0.1-0.5,0.3-0.6
	c0.3-0.2,0.2-0.3-0.1-0.5c-0.3-0.2-1-0.4-2-0.7c0,0,0,0-0.1,0c-0.3-0.1-0.5-0.1-0.6,0c0,0,0,0.2,0,0.6c0,0,0,0.1,0,0.1
	c0.1,0.8,0.1,1.7,0.2,2.7c0,1.1,0,3.8,0,7.9c0,0.2,0,0.4,0,0.7c0,5.2,0,7.9,0.1,8.1C145,69.9,145.6,70.3,146.6,70.4z M177.9,71
	c0.2,0.2,0.6,0.1,1.3-0.2c0.7-0.3,1.2-0.6,1.3-1l0,0c0.1-0.2,0.2-0.7,0.2-1.5c0-0.8,0-3.6,0-8.3c0-0.4,0-0.9,0-1.6
	c0-2.9,0-4.8,0-5.6c0-1.1,0-1.8,0.1-2.1c0-0.2,0.1-0.4,0.2-0.4c0,0,0.1,0,0.1,0c0.2-0.2,0.2-0.3,0-0.4c-0.2-0.1-0.8-0.3-1.7-0.6
	c-0.4-0.1-0.7-0.2-0.8-0.2c-0.1,0-0.1,0.1-0.1,0.2c0.1,0.7,0.2,1.8,0.2,3.2c0,1.4,0,4.1,0,8c0,0.6,0,1.4,0,2.5c0,2.2,0,3.5,0,4.1
	c0,0.8-0.2,1.3-0.4,1.5c-0.1,0.1-0.5,0.2-1.1,0.1c-0.3,0-0.5-0.1-0.6-0.1c-0.7,0-1.1-0.1-1.3,0c-0.1,0-0.2,0-0.2,0.1
	c0,0.1,0.1,0.2,0.2,0.2c1.6,0.3,2.4,1,2.4,2C177.9,70.8,177.9,70.9,177.9,71z M162.6,70.9c0.2,0.1,0.5,0.1,1-0.1
	c0.5-0.1,0.8-0.3,1-0.5c0-0.1,0.1-0.1,0.1-0.2c0-0.1,0-0.4,0-0.8c0-0.9-0.1-2.1-0.1-3.6c0-1.5,0-2.3,0-2.6c0-0.3,0.1-0.6,0-1
	c0-0.3,0-1.3,0-2.8c0-1.3,0-2.1,0-2.3c0-0.2,0.1-0.4,0.3-0.6c0.1-0.1,0.2-0.2,0.1-0.2c0-0.1-0.1-0.2-0.4-0.5
	c-0.3-0.3-0.4-0.5-0.4-0.6c0-0.1,0.1-0.5,0.3-1.1c0.1-0.2,0.2-0.6,0.4-1.2c0.1-0.2,0.1-0.4,0.2-0.5c0.2-0.7,0.4-1.1,0.5-1.4
	c0.1-0.2,0.2-0.3,0.2-0.5c0-0.3,0.2-0.5,0.4-0.6c0.2-0.1,0.2-0.2,0-0.4c-0.2-0.2-0.8-0.4-1.6-0.7c-0.1,0-0.2,0-0.3-0.1
	c-0.4-0.1-0.6-0.2-0.7-0.1c-0.1,0-0.1,0.2-0.1,0.5c0,0.1,0,0.1,0,0.2c-0.1,1.6-0.5,3.4-1,5.4c-0.5,2-1.2,3.8-1.9,5.5
	c0,0,0,0.1,0,0.1c-0.1,0.3-0.2,0.4-0.2,0.5c0,0,0,0.1,0.1,0.1c0.1,0,0.2,0,0.3,0c0.1-0.1,0.3-0.4,0.7-0.9c0.4-0.5,0.6-0.8,0.8-0.9
	c0.1-0.1,0.2,0,0.3,0.2s0.1,1.6,0,4.2c0,2.6-0.1,4.6-0.1,6c0,0.7-0.1,1.1,0,1.2C162.3,70.8,162.4,70.9,162.6,70.9z M165.6,70.7
	c0.1,0.1,0.5-0.1,1.2-0.6c1.9-1.2,3.4-2.9,4.5-4.9c1.1-2,1.9-4.6,2.4-7.6c0.1-0.6,0.2-1,0.2-1.1c0.1-0.2,0.2-0.3,0.5-0.4
	c0.2-0.1,0.3-0.1,0.3,0c0.1,0,0.1,0.1,0.1,0.2c0,0.1,0.1,1.3,0,3.6c0,2.3,0,3.8-0.1,4.4c0,0.7,0,1.1,0.1,1.2c0.1,0.1,0.4,0.2,0.9,0
	c0.6-0.1,0.9-0.3,1-0.5c0.1-0.2,0.2-0.6,0.1-1.2c-0.1-2-0.1-4.5-0.1-7.7c0-1.5,0-2.4,0-2.7c0-0.3,0.1-0.5,0.3-0.6
	c0.2-0.1,0.2-0.2,0-0.3c-0.1-0.1-0.5-0.3-1.1-0.5c-0.6-0.2-0.9-0.3-1-0.4c-0.1-0.1-0.1-0.2,0.1-0.4c0.1-0.1,0.1-0.3,0-0.4
	c-0.1-0.1-0.3-0.4-0.6-0.7c-0.5-0.5-0.9-0.8-1-0.9c-0.2-0.1-0.4-0.2-0.6-0.1c-0.1,0.1-0.3,0.3-0.6,0.7c0,0,0,0-0.1,0.1
	c-0.3,0.4-0.5,0.6-0.7,0.7c-0.2,0.1-0.6,0.1-1.4,0.1c0,0-0.1,0-0.1,0c-1.4,0-2.6,0-3.6-0.1c-0.3,0-0.4,0-0.5,0c0,0,0.1,0.2,0.2,0.5
	c0.1,0.3,0.2,0.4,0.3,0.5c0.1,0,0.2,0,0.4,0c0.6-0.2,1-0.2,1.1,0s0.2,0.7,0.1,1.4c-0.5,3.6-1.5,6.6-2.8,8.9
	c-0.2,0.4-0.3,0.6-0.4,0.7c0,0.1,0,0.2,0.1,0.2c0.1,0,0.3-0.2,0.6-0.6c0.4-0.4,0.7-0.9,1.1-1.4c0.5-0.7,0.9-1,1.2-0.9
	c0.3,0.1,0.6,0.7,1,1.7c0.1,0.3,0.2,0.4,0.3,0.6c0.1,0.1,0.3,0.2,0.6,0.2c0.4,0.1,0.5,0.6,0.2,1.5c-0.3,0.9-0.8,1.9-1.6,3.1
	c-0.8,1.2-1.6,2.2-2.5,3C165.6,70.5,165.5,70.7,165.6,70.7z M171,60.3c-0.1,0.2-0.4,0.1-0.7-0.1c-0.4-0.3-0.8-0.6-1.3-0.8
	c-0.4-0.2-0.6-0.3-0.7-0.5c0-0.1,0.1-0.4,0.3-0.9c0,0,0-0.1,0.1-0.2c0.2-0.4,0.3-0.6,0.3-0.8c0.2-0.4,0.3-0.7,0.5-0.8
	c0.1-0.1,0.5-0.1,1-0.1c0.6,0,1,0.1,1,0.3c0.1,0.2,0.1,0.7,0,1.5C171.3,59.3,171.1,60.1,171,60.3z M174.7,55.4
	c-0.1,0.1-0.2,0.2-0.3,0.1c-0.1-0.1-0.4-0.3-0.8-0.7c-0.4-0.4-0.7-0.7-0.9-0.7s-0.4,0.2-0.7,0.5c-0.3,0.3-0.5,0.5-0.6,0.6
	c-0.1,0-0.4,0.1-0.7,0.1c-0.5,0-0.7-0.1-0.8-0.2c-0.1-0.2,0-0.6,0.1-1.3c0.1-0.6,0.2-1,0.3-1.2c0.1-0.5,0.2-0.8,0.4-0.9
	c0.1-0.1,0.7-0.1,1.8-0.1c1.1,0,1.8,0,2,0c0.2,0.1,0.3,0.1,0.3,0.2c0,0-0.1,0.1,0,0.3c0.1,0.6,0.1,1.3,0.2,2S174.8,55.3,174.7,55.4z
	 M198.6,63.2c1.1,0.1,2-0.2,2.8-1c0.8-0.8,1.1-1.7,1-2.8c-0.1-0.9-0.5-1.6-1.2-2.2c-0.6-0.5-1.4-0.8-2.2-0.8c-0.9,0-1.6,0.3-2.3,0.9
	c-0.7,0.6-1,1.4-1.1,2.3c0,0.8,0.2,1.6,0.7,2.3C197,62.7,197.7,63.1,198.6,63.2z M199.9,62.2c-0.8,0.3-1.6,0.2-2.3-0.3
	c-0.7-0.5-1.1-1.2-1.1-2.1c0-0.7,0.2-1.3,0.7-1.8c0.5-0.5,1.1-0.7,1.7-0.7c0.7,0,1.3,0.2,1.8,0.7c0.7,0.6,0.9,1.4,0.7,2.3
	C201.3,61.3,200.8,61.9,199.9,62.2z"/>
</svg>
