<?xml version="1.0" encoding="utf-8"?>
<!-- Generator: Adobe Illustrator 24.2.3, SVG Export Plug-In . SVG Version: 6.00 Build 0)  -->
<svg version="1.1" id="Layer_1" xmlns="http://www.w3.org/2000/svg" xmlns:xlink="http://www.w3.org/1999/xlink" x="0px" y="0px"
	 viewBox="0 0 352 219" style="enable-background:new 0 0 352 219;" xml:space="preserve">
<style type="text/css">
	.st0{clip-path:url(#SVGID_2_);}
	.st1{fill:none;stroke:#D6D2C7;stroke-width:1.3;stroke-miterlimit:10;stroke-dasharray:9.31,9.31;}
	.st2{fill:#D6D2C7;}
</style>
<g>
	<defs>
		<rect id="SVGID_1_" width="351.3" height="218.1"/>
	</defs>
	<clipPath id="SVGID_2_">
		<use xlink:href="#SVGID_1_"  style="overflow:visible;"/>
	</clipPath>
	<g class="st0">
		<path class="st1" d="M350.6,0.6H0.7v216.8h350V0.6z"/>
	</g>
</g>
<path class="st2" d="M25.5,44.4c0.2,0.2,0.6,0.2,1.2,0c0.6-0.2,0.9-0.5,0.9-0.7c0-0.1,0-0.2,0.1-0.3c0-0.1,0.2-0.2,0.5-0.2
	c0.3,0,1.3,0,3,0c0.4,0,0.7,0,0.9,0c0.2,0,0.6,0,1,0c1.2,0,2,0,2.4,0c0.5,0,0.8,0.1,0.9,0.2c0.1,0.1,0.1,0.2,0.1,0.5
	c0,0.1,0,0.1,0,0.2c0,0.5,0.5,0.6,1.4,0.3l0,0c0.5-0.2,0.7-0.3,0.8-0.4c0.1-0.1,0.1-0.5,0.1-1.1c-0.1-1.5-0.1-2.6-0.1-3.2
	c0-0.6,0.2-1,0.4-1.2c0.3-0.2,0.4-0.3,0.4-0.4c0-0.1-0.4-0.5-1.2-1.1c-0.4-0.3-0.6-0.6-0.6-0.6c0.1-0.1,0.4-0.2,1.1-0.3
	c0.8-0.1,1.4-0.3,1.7-0.6c0.3-0.3,0.1-0.6-0.4-0.8c-0.2-0.1-0.4-0.2-0.5-0.3c-0.1-0.1-0.1-0.3-0.1-0.6c0-0.8-0.2-0.8-0.5,0
	c0,0,0,0.1-0.1,0.1c-0.1,0.3-0.3,0.6-0.5,0.6c-0.2,0.1-0.7,0.2-1.5,0.2c-0.5,0-1.8,0-3.8,0c-0.4,0-0.6,0-0.8,0c-2.6,0-4.2,0-4.6,0
	c-0.4,0-0.7-0.1-0.8-0.2c-0.2-0.3-0.2-0.5,0-0.6c0.2-0.1,0.8-0.2,1.6-0.2c2.6-0.1,5.1-0.3,7.3-0.5c1.3-0.1,2.2-0.2,2.6-0.1
	c0.2,0,0.3,0,0.3-0.1c0-0.1-0.2-0.4-0.4-0.8c-0.4-0.6-0.5-1-0.4-1.2c0-0.1,0.1-0.3,0-0.7c-0.1-1.1,0.2-1.5,0.7-1.5
	c0.3,0,1.1-0.3,2.3-1.1c0.4-0.3,0.8-0.5,1-0.5c0.3-0.1,0.5-0.2,0.4-0.4c-0.1-0.2-0.4-0.6-0.9-1.1c-0.5-0.5-0.8-0.7-0.9-0.7
	c-0.1,0-0.4,0.1-0.7,0.5c-0.4,0.4-0.6,0.6-0.8,0.6c-0.2,0-0.6,0.1-1.2,0.1c0,0-0.1,0-0.1,0c-0.7,0-1.1-0.1-1.3-0.1
	c-0.2-0.1-0.2-0.2,0-0.4c0.1-0.1,0.5-0.4,1.2-1c0.7-0.5,1.1-0.8,1.2-0.8c0.3-0.1,0.4-0.2,0.1-0.4c-0.2-0.2-0.8-0.4-1.8-0.7
	c0,0-0.1,0-0.1,0c-0.4-0.1-0.6-0.2-0.7-0.1c-0.1,0-0.1,0.2-0.2,0.4c-0.2,0.8-0.5,1.5-0.8,2.1c-0.3,0.6-0.5,0.9-0.7,1
	c-0.1,0.1-0.3,0.1-0.6,0.1c-0.3,0-0.5,0-0.6-0.1c-0.3-0.1-0.4-0.5-0.4-1.1c0-0.6,0.1-1,0.4-1.3c0.2-0.2,0.2-0.3-0.1-0.5
	c-0.3-0.1-0.9-0.3-1.8-0.6c-0.4-0.1-0.6-0.2-0.7-0.1c-0.1,0-0.1,0.1,0,0.3v0c0.2,1.4,0.2,2.3,0.1,2.7c-0.1,0.4-0.4,0.6-1,0.6
	c-0.8,0-1.1-0.2-0.9-0.6c0.3-0.6,0.2-1.1-0.4-1.7c-0.6-0.6-1.4-0.9-2.5-1.1c-0.3,0-0.5,0-0.6,0c0,0.1,0.1,0.2,0.4,0.5
	c0.5,0.5,0.8,1,1.1,1.6c0.3,0.6,0.3,1,0.1,1.1c-0.1,0.1-0.1,0.1-0.2,0.1c-0.1,0-0.3,0-0.7,0c-0.6,0-1,0-1.1-0.1
	c-0.2-0.1-0.3-0.3-0.5-0.7C24.2,24.2,24,24.2,24,25c-0.1,1.1-0.5,1.9-1.4,2.5c-0.5,0.3-0.7,0.6-0.8,1c-0.1,0.4,0,0.7,0.3,1
	c0.5,0.5,1,0.5,1.6,0c0.6-0.5,1-1.2,1.1-2.1c0-0.4,0.1-0.6,0.2-0.7c0.1-0.1,0.4-0.1,0.7-0.1c0.2,0,0.4,0,0.7,0c1.2,0,3.1,0,5.6,0
	c2.6,0,3.9,0,4,0c0.2,0.1,0.2,0.4-0.1,0.8l0,0c-0.2,0.2-0.4,0.3-0.7,0.3c-0.3,0-1.2,0-2.7,0c-0.2,0-0.4,0-0.5,0c-0.2,0-0.6,0-0.9,0
	c-1.3,0-2.1,0-2.4,0c-0.3,0-0.6-0.1-1-0.3c-0.1,0-0.2-0.1-0.2-0.1c-0.7-0.3-1.2-0.5-1.3-0.5c0,0,0,0.1,0,0.3c0,0.1,0,0.3,0,0.6
	c0,0.2,0,0.3,0,0.4c0.1,1.1,0.1,1.8,0.1,2.2c0,0.4-0.1,0.7-0.3,0.8c-0.1,0.1-0.4,0.1-0.9,0.1c0,0-0.1,0-0.2,0c-0.3,0-0.4,0-0.5,0.1
	c0,0.1,0,0.4,0,0.9c0,0.2,0,0.3,0,0.4c0,0.1,0,0.3,0,0.5c0,1,0.1,1.7,0.2,2c0.2,0.4,0.7,0.6,1.6,0.7c0.6,0.1,2,0.1,4.3,0.1
	c0.5,0,0.9,0,1.1,0c0.3,0,0.8,0,1.3,0c1.6,0,2.6,0,3,0c0.6,0,0.9,0.1,1,0.2c0.1,0,0,0.2-0.2,0.4c-0.1,0.1-0.1,0.1-0.1,0.2
	c0,0-0.1,0.1-0.1,0.1c-0.2,0.3-0.5,0.4-0.8,0.5c-0.3,0-1.2,0-2.8,0c-0.5,0-0.9,0-1.1,0c-0.2,0-0.5,0-0.9,0c-1.6,0-2.6,0-3,0
	c-0.4,0-0.8-0.2-1.3-0.4c-0.2-0.1-0.3-0.1-0.4-0.1c-0.6-0.3-0.9-0.4-1.1-0.4c-0.1,0-0.2,0-0.1,0.2c0.1,0.8,0.2,1.9,0.2,3.3
	c0,1.4,0,2.7-0.1,3.9c0,0.2,0,0.4,0,0.4C25.4,44.3,25.4,44.3,25.5,44.4z M32.1,42.4c-2.6,0-3.9,0-4.1-0.1c-0.2-0.1-0.3-0.4-0.4-0.8
	c0-0.4,0.1-0.7,0.3-0.9c0.1-0.1,1.5-0.1,4.1-0.1s4,0,4.1,0.1c0.2,0.1,0.3,0.4,0.3,0.9c0,0.4-0.1,0.7-0.4,0.8
	C36,42.4,34.6,42.4,32.1,42.4z M32.1,39.9c-2.6,0-3.9,0-4.1-0.1c-0.2-0.1-0.3-0.4-0.3-0.8c0-0.5,0.1-0.7,0.3-0.8
	c0.1-0.1,1.5-0.1,4.1-0.1s3.9,0,4.1,0.1c0.2,0.1,0.4,0.4,0.4,0.8c0,0.4-0.1,0.7-0.4,0.8C36,39.8,34.6,39.9,32.1,39.9z M28.4,32.8
	c-0.9,0.1-1.3,0.2-1.4,0.1c-0.2-0.1-0.3-0.2-0.3-0.4c0-0.2,0-0.4,0.2-0.5c0.3-0.3,0.6-0.5,0.9-0.7c0.1,0,0.2-0.1,0.4-0.2
	c0.1,0,0.2-0.1,0.2-0.1c0.2-0.1,0.4-0.2,0.7-0.2c0.3,0,1.3,0,3,0h0c1.5,0,2.4,0,2.7,0c0.3,0,0.5,0,0.5,0.1c0.4,0.3,0.1,0.5-0.7,0.8
	c-0.8,0.2-2.6,0.6-5.4,1C29.1,32.7,28.8,32.7,28.4,32.8z M32.1,30.2c-2.1,0-3.2,0-3.3-0.1c-0.2-0.1-0.3-0.4-0.4-0.7
	c0-0.4,0.1-0.6,0.3-0.8c0.1-0.1,1.2-0.1,3.3-0.1s3.2,0,3.3,0.1c0.2,0.1,0.3,0.4,0.3,0.8c0,0.4-0.1,0.6-0.3,0.7
	C35.3,30.1,34.2,30.2,32.1,30.2z M38.6,27.9C38.5,28,38.4,28,38.3,28c-0.1,0-0.3-0.2-0.6-0.4c-0.5-0.4-0.7-0.7-0.7-0.8
	c0-0.1,0.3-0.2,0.9-0.2c0.5,0,0.9,0.1,1,0.4C39.1,27.2,39,27.5,38.6,27.9z M50.2,44.5c0.4,0.1,0.8,0,1.2-0.2
	c0.4-0.2,0.6-0.5,0.6-0.7c0-0.4,0-0.6,0.1-0.7c0.2-0.1,0.5-0.2,1.1-0.2c0.6,0,0.9,0,1,0.1c0.1,0.1,0.2,0.3,0.2,0.7
	c0,0.5,0.4,0.6,1.2,0.4c0.5-0.1,0.7-0.3,0.8-0.5c0.1-0.2,0.1-0.6,0.1-1.2c-0.1-2.1-0.1-3.5-0.1-4s0.2-0.9,0.5-1.1
	c0.2-0.1,0.3-0.3,0.2-0.5c-0.1-0.2-0.4-0.5-1-0.9c-0.4-0.3-0.7-0.5-0.8-0.5c-0.1,0-0.3,0.2-0.6,0.5c-0.7,0.9-2,0.9-3.9,0.1
	c-0.7-0.3-1.1-0.4-1.1-0.4c0,0.1,0,0.4,0.1,0.7c0.1,0.8,0.1,2,0.2,3.4c0,1.4,0,2.6,0,3.4c0,0.7-0.1,1.1,0,1.3
	C50,44.4,50.1,44.5,50.2,44.5z M69.2,44.2c0.3,0.1,0.5,0.1,0.8,0.1c0.3,0,0.5-0.1,0.6-0.3c0.2-0.2,0.2-0.7-0.1-1.5
	c-0.1-0.4-0.2-0.8-0.2-1.1c0-0.3,0.1-1,0.2-2.1c0.1-0.8,0.1-1.2,0.1-1.4c0-0.2,0-0.3-0.1-0.3s-0.2,0.3-0.4,0.8
	c-0.4,1.2-0.7,1.8-0.9,1.9c-0.2,0.1-0.5-0.2-0.9-0.9c-1.1-2.1-1.8-5.3-2.1-9.6c0,0,0-0.1,0-0.2c0-0.5,0-0.8,0-0.9
	c0.1-0.2,0.2-0.3,0.5-0.4c0.2,0,0.7,0,1.5,0c0.1,0,0.2,0,0.3,0c1,0,1.7,0,1.8,0c0.2,0,0.3-0.1,0.4-0.2c0.1-0.2-0.3-0.6-1.1-1.3
	c-0.3-0.2-0.4-0.4-0.5-0.5c0-0.1,0-0.3,0.2-0.5c0.3-0.3,0.3-0.7,0.1-1.2c-0.2-0.4-0.5-0.8-1-1.1c-0.5-0.3-1.1-0.5-1.7-0.5
	c-0.1,0-0.2,0-0.3-0.1c-0.2-0.1-0.7-0.3-1.4-0.5c-0.7-0.2-1.1-0.3-1.1-0.2c0,0-0.1,0.9,0,2.5c0,0.2,0,0.5,0,0.9c0,0.7,0,1.2,0,1.4
	c-0.1,0.3-0.2,0.4-0.4,0.5c-0.2,0-0.6,0.1-1.2,0c-0.3,0-0.6,0-0.7,0c-1.6,0-2.6,0-3.1-0.1c-0.5-0.1-0.7-0.2-0.8-0.4
	c0-0.2-0.3-0.5-0.9-1c-0.5-0.5-0.9-0.7-1.1-0.7c-0.1,0-0.3,0.2-0.6,0.7c-0.3,0.4-0.5,0.7-0.7,0.7c-0.1,0-0.8,0.1-2.1,0
	c-1.3,0-2.3-0.1-3-0.1c-0.2,0-0.3,0-0.4,0c0,0,0.1,0.2,0.2,0.6c0,0,0,0.1,0.1,0.2c0.1,0.2,0.2,0.3,0.2,0.3c0.1,0,0.2,0,0.5-0.1
	c0.1,0,0.2,0,0.2,0c0.4-0.1,1.6-0.1,3.6-0.1c0.2,0,0.5,0,0.8,0c1.3,0,2.1,0,2.4,0c0.2,0,0.4,0.2,0.5,0.4c0,0,0,0.1,0.1,0.1v0
	c0.1,0.2,0.2,0.3,0.3,0.4c0.1,0,0.3,0,0.6,0c0,0,0.1,0,0.1,0c0.8-0.1,1.9-0.2,3.1-0.2c1.2,0,1.9,0,2.1,0.1c0.1,0.1,0.2,0.5,0.3,1.2
	c0.1,0.7,0.1,1.2,0.1,1.4c0,0,0,0.1,0,0.2c0,0.2-0.1,0.2-0.3,0.2c-0.1,0-0.4-0.2-0.7-0.5c0,0,0,0-0.1-0.1c-0.2-0.2-0.4-0.3-0.4-0.3
	c-0.1,0-0.2,0.2-0.4,0.5c0,0,0,0.1,0,0.1c-0.3,0.5-0.7,0.8-1.3,0.9c-0.5,0.1-1.5,0.1-3-0.1c-0.4,0-0.5,0-0.6,0c0,0,0,0.2,0.2,0.5
	c0.1,0.3,0.2,0.4,0.3,0.5c0.1,0,0.2,0,0.3,0c0.3-0.1,0.6-0.2,0.9-0.2c0.3,0,0.6,0.1,0.7,0.2c0.1,0.1,0.1,1.2,0.1,3.2
	c0,2,0,3.2,0,3.4c0,0.2-0.2,0.3-0.3,0.4c-0.2,0.1-0.6,0.2-1.3,0.3c-0.1,0-0.2,0-0.3,0c-0.4,0.1-0.6,0.1-0.6,0.2c0,0.1,0,0.3,0.2,0.8
	c0.1,0.2,0.1,0.3,0.1,0.4c0.3,0.7,0.4,1.1,0.6,1.2c0.1,0.1,0.3,0.1,0.4-0.2c0.1-0.1,1-0.7,2.9-1.6c2.4-1.2,3.6-1.9,3.6-1.9
	c0-0.1,0-0.2-0.2-0.2c-0.1,0-0.5,0.1-1.1,0.2c-0.1,0-0.3,0.1-0.5,0.1c-0.5,0.1-0.9,0.2-1,0.1c-0.2,0-0.3-0.2-0.4-0.6
	c0-0.3,0-0.9,0-1.8c0-0.4,0-0.7,0-0.9c0-0.2,0-0.5,0-0.8c0-0.9,0-1.5,0-1.8c0-0.4,0.1-0.6,0.3-0.7c0.1-0.1,0.3-0.1,0.7-0.1
	c0.1,0,0.2,0,0.3,0h0c0.6,0,0.9,0.1,1,0.2s0.2,0.5,0.3,1.2c0,0,0,0.1,0,0.1c0.4,2.7,1,4.9,1.8,6.7C67.2,42.7,68.1,43.7,69.2,44.2z
	 M53,41.9c-0.4,0-0.7,0-0.8-0.1c-0.1-0.1-0.2-0.3-0.3-0.6c0-0.2,0-0.7,0-1.5c0-0.2,0-0.3,0-0.4s0-0.2,0-0.4c0-0.8,0-1.3,0-1.5
	c0-0.3,0.1-0.5,0.3-0.6c0.1,0,0.4-0.1,0.8-0.1c0.1,0,0.1,0,0.2,0s0.1,0,0.2,0c0.4,0,0.7,0,0.8,0.1c0.1,0.1,0.2,0.3,0.3,0.6
	c0,0.2,0,0.7,0,1.5c0,0.2,0,0.3,0,0.4c0,1.1,0,1.8,0,2s-0.1,0.3-0.3,0.4c-0.1,0.1-0.4,0.1-0.9,0.1C53.2,41.9,53.1,41.9,53,41.9z
	 M50.4,34c0.1,0,0.2,0,0.5,0c0.7-0.1,1.9-0.2,3.6-0.2c1.1,0,1.8,0,2,0c0.2,0,0.3-0.1,0.4-0.3c0-0.1-0.1-0.3-0.4-0.7
	c-0.3-0.4-0.6-0.6-1-0.9c-0.2-0.2-0.4-0.2-0.5-0.2c-0.1,0-0.3,0.3-0.6,0.6c-0.3,0.4-0.7,0.7-1.1,0.7c-0.4,0.1-1.6,0-3.3-0.1
	c-0.1,0-0.1,0-0.1,0.1c0,0.1,0.1,0.3,0.2,0.5l0,0C50.2,33.9,50.3,34,50.4,34z M50.4,31c0.1,0,0.2,0,0.5,0c0.7-0.1,1.9-0.2,3.6-0.2
	c1.1,0,1.8,0,2,0c0.2,0,0.3-0.1,0.4-0.3c0-0.2-0.2-0.5-0.8-1c-0.6-0.5-0.9-0.8-1.1-0.7c-0.1,0-0.2,0.2-0.5,0.6
	c-0.3,0.4-0.7,0.7-1.2,0.8c-0.5,0.1-1.5,0-3.1-0.1c-0.2,0-0.3,0-0.3,0c0,0,0.1,0.2,0.2,0.6l0,0C50.2,30.8,50.3,30.9,50.4,31z
	 M66.9,27.7c-0.2,0-0.4,0-0.5-0.1c-0.3-0.2-0.4-0.8-0.3-2c0-1.2,0.2-1.8,0.5-2c0.2-0.1,0.4,0.1,0.7,0.5c0.3,0.4,0.6,0.9,0.7,1.5
	c0.1,0.2,0.2,0.4,0.2,0.4c0.1,0.1,0.2,0.3,0.1,0.4c0,0.2-0.2,0.4-0.4,0.7c-0.2,0.2-0.3,0.4-0.5,0.5C67.3,27.7,67.1,27.7,66.9,27.7z
	 M50.3,24.8c0.1,0.1,0.3,0.1,0.6,0c0.9-0.1,2.1-0.2,3.6-0.2c1,0,1.7,0,1.9-0.1c0.2,0,0.3-0.1,0.4-0.2c0.1-0.1-0.1-0.4-0.4-0.7
	c-0.3-0.4-0.6-0.7-1-0.9c-0.2-0.2-0.4-0.2-0.5-0.1c-0.1,0-0.3,0.3-0.6,0.7C54,23.7,53.5,23.9,53,24c-0.5,0.1-1.5,0-2.7-0.1
	c-0.2,0-0.4,0-0.4,0.2C49.9,24.2,50.1,24.4,50.3,24.8z M81,44.5c0.2,0,0.6,0,1-0.1c0.4-0.1,0.7-0.2,0.8-0.4c0.1-0.1,0.1-0.2,0.1-0.3
	c0-0.1,0-0.5,0-1.2c-0.1-1.4-0.1-3.2-0.1-5.5s0-3.5,0.1-3.6c0.1-0.2,0.3-0.3,0.5-0.4c0.3-0.1,0.5-0.1,0.6,0c0.1,0.1,0.2,0.2,0.3,0.5
	c0.1,0.3,0.1,0.5,0.1,0.8c0,0.3,0.2,0.5,0.6,0.6c0.4,0.1,0.7,0,0.9-0.3c0.4-0.5,0.5-1.1,0.2-1.9c-0.3-0.8-1-1.5-1.9-2.1
	c-1.2-0.8-1.5-0.8-1.1,0c0.4,0.7,0.6,1.2,0.5,1.3c-0.1,0.2-0.6,0.3-1.4,0.4c-0.7,0-1.1,0.1-1.3,0c-0.2,0-0.2-0.2-0.1-0.4
	c0.1-0.2,0.4-0.6,1-1.2c0.7-0.8,1.4-1.6,1.8-2.3c0.5-0.7,0.9-1.1,1.1-1.4c0.2-0.2,0.4-0.4,0.5-0.4c0.3-0.1,0.3-0.2,0.1-0.4
	c-0.2-0.2-0.7-0.5-1.6-0.9c0,0,0,0-0.1,0c-0.4-0.2-0.6-0.3-0.6-0.2c-0.1,0-0.1,0.1-0.2,0.4c0,0,0,0.1,0,0.1
	c-0.4,1.2-1.1,2.7-2.1,4.6c-0.5,0.9-0.8,1.5-1,1.8c-0.2,0.3-0.3,0.5-0.5,0.5c-0.3,0.1-0.9,0.2-1.8,0.2h0c-0.3,0-0.4,0-0.4,0.1
	c0,0,0,0.2,0.1,0.6c0,0,0,0.1,0,0.1c0.2,0.8,0.4,1.3,0.5,1.4c0.1,0.1,0.2,0.1,0.4-0.1c0.2-0.2,0.6-0.4,1.3-0.6
	c0.7-0.2,1.1-0.2,1.3-0.1c0.2,0.1,0.2,0.4,0.2,1c0,0.5-0.1,0.8-0.3,0.8c-0.2,0-0.6,0-1.4-0.2c-0.1,0-0.2,0-0.3-0.1
	c-0.4-0.1-0.6-0.2-0.7-0.1c-0.1,0-0.1,0.2-0.1,0.4c0,0.1,0,0.1,0,0.1c0,0.8-0.1,1.6-0.3,2.7c-0.2,1-0.4,2-0.7,2.8
	c-0.1,0.4-0.2,0.6-0.2,0.7c0,0.1,0.1,0.1,0.2,0.1c0.2,0,0.6-0.5,1.2-1.5c0.6-1,1.1-2,1.5-3c0.2-0.5,0.4-0.8,0.5-1
	c0.1-0.1,0.3-0.1,0.4,0.1c0.1,0.1,0.1,0.8,0.1,2.2c0,1.4-0.1,2.7-0.2,4c0,0.5,0,0.9,0,1C80.7,44.4,80.9,44.5,81,44.5z M84.8,44.2
	c0.1,0.1,0.3,0.1,0.6,0c0.7-0.1,1.3-0.2,1.9-0.2c0.6,0,2.4,0,5.4,0c2.9,0,4.6,0,5.1,0c0.5,0,0.8,0,0.8-0.1c0.3-0.2,0.1-0.8-0.7-1.6
	c-0.3-0.3-0.5-0.4-0.6-0.4c-0.1,0-0.2,0.1-0.3,0.3c-0.3,0.5-0.5,0.6-0.7,0.3c0-0.1-0.1-2.8-0.1-8.1c0-5.3,0-8.2,0-8.4
	c0-0.3,0.2-0.6,0.5-0.7c0.3-0.2,0.5-0.4,0.4-0.6c-0.1-0.2-0.5-0.6-1.2-1.1c-0.4-0.3-0.7-0.5-0.8-0.5c-0.1,0-0.4,0.2-0.7,0.6l0,0
	c0,0,0,0.1-0.1,0.1c-0.2,0.2-0.4,0.4-0.6,0.4c-0.2,0-0.7,0-1.6,0c-0.2,0-0.4,0-0.5,0s-0.3,0-0.5,0c-0.8,0-1.4,0-1.6,0
	c-0.2,0-0.6-0.2-1.2-0.4c-0.1-0.1-0.2-0.1-0.3-0.1c-0.7-0.3-1.1-0.4-1.1-0.4c0,0,0,0.5,0.1,1.5c0.1,0.5,0.1,3.7,0.1,9.4
	c0,5.7,0,8.7-0.1,8.8c-0.1,0.2-0.3,0.3-0.6,0.3c-0.3,0-0.8,0-1.5,0c-0.4,0-0.6,0-0.6,0.1C84.4,43.5,84.5,43.7,84.8,44.2z M91.6,43.3
	c-1.3,0-2.1,0-2.2-0.1c-0.1-0.1-0.2-0.2-0.3-0.5c0-0.2,0-1,0-2.4c0-0.2,0-0.5,0-0.9c0-0.8,0-1.3,0-1.5c0-0.3,0.2-0.5,0.5-0.5
	c0.2,0,0.6-0.1,1.2,0c0.3,0,0.6,0,0.7,0s0.4,0,0.7,0c0.7,0,1.1,0,1.2,0c0.3,0.1,0.4,0.2,0.5,0.5c0,0.2,0.1,0.7,0,1.5
	c0,0.4,0,0.7,0,0.9c0,1.4,0,2.2,0,2.4c0,0.2-0.1,0.4-0.3,0.5C93.7,43.3,93,43.3,91.6,43.3z M84.8,40.3c0.4,0.3,0.8,0.2,1.1,0
	c0.3-0.3,0.4-0.7,0.4-1.2c0-0.6-0.2-1.2-0.6-1.7c-0.3-0.4-0.6-0.8-1.1-1.2c-0.4-0.4-0.7-0.6-1-0.6c-0.3,0-0.3,0.1-0.2,0.4
	c0.3,0.6,0.5,1.4,0.7,2.1c0.2,0.8,0.3,1.3,0.3,1.7C84.4,40,84.5,40.2,84.8,40.3z M91.6,36.8c-1.3,0-2.1,0-2.2-0.1
	c-0.1-0.1-0.2-0.2-0.3-0.5c0-0.2,0-1,0-2.3c0-0.2,0-0.5,0-0.9c0-0.7,0-1.2,0-1.4c0.1-0.3,0.2-0.5,0.5-0.5c0.2,0,0.6-0.1,1.3,0
	c0.3,0,0.5,0,0.7,0s0.4,0,0.7,0c0.7,0,1.1,0,1.3,0c0.2,0.1,0.4,0.2,0.5,0.5c0,0.2,0.1,0.7,0,1.4c0,0.4,0,0.7,0,0.9
	c0,1.3,0,2.1,0,2.3c0,0.2-0.1,0.4-0.3,0.5C93.7,36.8,93,36.8,91.6,36.8z M91.6,30.5c-1.3,0-2.1,0-2.2-0.1c-0.1-0.1-0.2-0.2-0.3-0.5
	c0-0.2,0-1,0-2.3c0-0.2,0-0.5,0-0.8c0-0.8,0-1.2,0-1.4c0.1-0.3,0.2-0.5,0.5-0.5c0.2,0,0.6-0.1,1.2,0c0.3,0,0.6,0,0.7,0s0.4,0,0.7,0
	c0.7,0,1.1,0,1.2,0c0.2,0.1,0.4,0.2,0.5,0.5c0,0.2,0.1,0.7,0,1.4c0,0.3,0,0.6,0,0.8c0,1.3,0,2,0,2.3c0,0.2-0.1,0.4-0.3,0.5
	C93.7,30.5,93,30.5,91.6,30.5z M79.4,29.7c0.5,0.2,0.9,0.1,1.2-0.4c0.2-0.5,0.2-1-0.2-1.6c-0.2-0.3-0.2-0.5-0.2-0.6
	c0-0.1,0.2-0.4,0.6-0.8c0,0,0.1-0.1,0.2-0.2c0.4-0.4,0.6-0.7,0.7-0.9c0.6-0.7,0.9-1.2,1.1-1.2c0.1-0.1,0.2-0.2,0.4-0.2
	c0.3-0.1,0.3-0.2,0-0.4s-0.9-0.5-1.8-0.9c0,0-0.1,0-0.1,0c-0.3-0.1-0.4-0.2-0.5-0.1c0,0-0.1,0.2-0.1,0.4c0,0,0,0.1,0,0.1
	c-0.1,0.6-0.3,1.2-0.5,1.9s-0.4,1.2-0.5,1.4c-0.1,0.2-0.2,0.3-0.4,0.3c-0.1,0-0.5-0.1-1.1-0.3c-0.4-0.2-0.7-0.2-0.8-0.1
	c-0.1,0,0,0.2,0.2,0.5c0.3,0.4,0.6,0.8,0.9,1.3c0.3,0.5,0.5,1,0.6,1.4c0.1,0.2,0.1,0.3,0.2,0.4C79.1,29.6,79.2,29.7,79.4,29.7z
	 M108.9,44.5c0.4,0.1,0.8,0,1.3-0.2c0.5-0.3,0.7-0.5,0.7-0.8c0,0,0-0.1,0-0.1c0-0.2,0-0.4,0.1-0.5c0.1-0.1,0.5-0.2,1-0.2
	c0.4,0,1.3,0,2.7,0c0.3,0,0.5,0,0.7,0c0.2,0,0.6,0,1,0c1.3,0,2.1,0,2.5,0c0.5,0,0.8,0.1,0.9,0.2c0.1,0.1,0.1,0.2,0.1,0.5
	c0,0.1,0,0.1,0,0.2c0,0.4,0.1,0.7,0.2,0.8c0.2,0.1,0.5,0.1,1.1-0.1h0c0.6-0.2,0.9-0.3,1-0.5c0.1-0.2,0.1-0.6,0.1-1.4
	c0,0,0-0.1,0-0.1c-0.1-2-0.1-3.3-0.1-4.1c0-0.8,0.2-1.3,0.4-1.4c0.4-0.2,0.5-0.4,0.5-0.6c0-0.2-0.3-0.5-0.9-0.9
	c-0.7-0.5-1.1-0.8-1.2-0.8c-0.2,0-0.4,0.1-0.6,0.4c-0.3,0.4-0.6,0.7-0.8,0.8c-0.1,0-1.5,0-4.3,0c-0.3,0-0.7,0-1.2,0
	c-1.6,0-2.5,0-2.8,0s-0.8-0.2-1.2-0.4c-0.2-0.1-0.3-0.1-0.4-0.2c-0.6-0.3-1-0.4-1.1-0.4c-0.1,0-0.2,0-0.1,0.1
	c0.1,0.8,0.2,2.1,0.2,3.8c0,1.8,0,3.3-0.1,4.7c0,0.5,0,0.9,0,1C108.7,44.3,108.8,44.4,108.9,44.5z M115.6,42c-2.7,0-4.2,0-4.3-0.1
	c-0.1-0.1-0.2-0.2-0.3-0.5c0-0.2,0-1,0-2.3c0-0.2,0-0.6,0-1c0-0.7,0-1.2,0.1-1.4c0.1-0.3,0.4-0.4,0.8-0.5c0.3,0,1-0.1,2.2,0
	c0.6,0,1.2,0,1.5,0c0.2,0,0.5,0,0.8,0c1.7,0,2.7,0,3,0c0.3,0,0.5,0.1,0.6,0.2l0,0c0.1,0.2,0.2,1.1,0.1,2.7c0,1.6-0.2,2.4-0.3,2.5
	C119.7,41.9,118.3,41.9,115.6,42z M104.8,33.1c0,0,0.1,0,0.1,0c0,0,0.2-0.1,0.5-0.2c0.1,0,0.1-0.1,0.2-0.1c1.8-0.8,3.6-2,5.4-3.4
	c1.8-1.4,3.2-3,4.4-4.5c0.3-0.4,0.6-0.7,0.7-0.7c0.2,0,0.3,0.2,0.6,0.6c1.4,2.7,3.6,4.9,6.7,6.7c0.6,0.3,0.9,0.5,1,0.6
	c0.1,0,0.2,0,0.3-0.2c0.1-0.3,0.3-0.6,0.6-0.9c0.3-0.3,0.6-0.5,0.9-0.7c0.2-0.1,0.3-0.2,0.3-0.3c0-0.1-0.3-0.2-0.7-0.4
	c-3.4-1.3-6.1-2.9-8-4.8c-0.5-0.5-0.7-0.8-0.8-1c0-0.2,0.1-0.4,0.4-0.5c0.2-0.1,0.3-0.2,0.3-0.2c0,0-0.1-0.1-0.4-0.2
	c-0.2-0.1-0.7-0.2-1.4-0.5c-0.9-0.3-1.4-0.4-1.6-0.4c-0.2,0-0.3,0-0.3,0.2c-0.2,1.4-1.2,3.1-2.9,5.1c-1.7,2-3.5,3.7-5.6,5.1
	c-0.3,0.2-0.5,0.3-0.5,0.4C104.8,32.9,104.8,33,104.8,33.1z M110.6,32.2c0,0,0.3,0,0.8,0c0.6-0.1,1.2-0.1,1.8-0.2c0.6,0,1.8,0,3.7,0
	c1.5,0,2.4,0,2.9,0c0.6,0,1,0,1.2-0.1c0.1,0,0.2-0.1,0.2-0.3s-0.3-0.5-0.9-1c-0.6-0.6-1-0.9-1.3-1c-0.1,0-0.2,0-0.3,0.1
	s-0.3,0.3-0.5,0.6c-0.4,0.6-0.8,0.9-1,1c-0.2,0.1-1.2,0.1-3.2,0c-1.9,0-3.1-0.1-3.6-0.2c-0.1,0-0.2,0.1-0.1,0.3
	C110.2,31.7,110.3,31.9,110.6,32.2z M133.4,44.3c0.1,0,0.2,0,0.5,0c0,0,0.1,0,0.1,0c0.6-0.1,1.4-0.2,2.3-0.2c0.9,0,3.6,0,8.3,0
	c0.5,0,1.2,0,2.1,0c3.5,0,5.6,0,6.2,0c0.6,0,0.9-0.1,1-0.2l0,0c0.1-0.1,0-0.2,0-0.4c-0.1-0.1-0.3-0.4-0.7-0.7
	c-0.5-0.5-0.8-0.8-1-0.9c-0.2-0.1-0.4-0.2-0.5,0c-0.1,0.1-0.3,0.3-0.6,0.8c-0.3,0.4-0.6,0.7-0.8,0.8c-0.2,0.1-0.5,0.1-0.8,0
	c-0.2-0.1-0.3-0.2-0.3-0.5c0-0.2,0-0.9,0-2.1c0-1.2,0-2,0.1-2.2c0-0.2,0.2-0.4,0.4-0.5c0.2-0.1,0.2-0.2,0.2-0.3
	c-0.1-0.1-0.3-0.4-0.7-0.7c-0.3-0.2-0.5-0.4-0.6-0.5c-0.1-0.1-0.1-0.2-0.1-0.3c0-0.1,0.1-0.2,0.2-0.2c0.1,0,0.5,0,0.9,0
	c0.7,0,1,0.1,1.1,0.2c0.1,0.1,0,0.6-0.2,1.3c-0.1,0.4-0.2,0.7-0.2,0.7c0,0.1,0,0.1,0.1,0.2c0.2,0.1,0.9-0.4,2.2-1.5
	c0.4-0.4,0.7-0.6,0.9-0.6c0.2,0,0.3-0.1,0.2-0.3c0-0.1-0.3-0.4-0.6-0.8c0,0-0.1-0.1-0.2-0.2c-0.3-0.3-0.4-0.5-0.5-0.7
	c0-0.2-0.1-0.6-0.1-1.3c0-0.2,0-0.4,0-0.5c0-1,0-1.5,0-1.8c0-0.2,0.2-0.4,0.3-0.5c0.3-0.2,0.4-0.3,0.3-0.4c0-0.1-0.2-0.3-0.6-0.6
	c-0.5-0.5-0.9-0.8-1.1-0.8c-0.2,0-0.4,0.2-0.8,0.6c0,0,0,0-0.1,0.1c-0.2,0.2-0.3,0.3-0.5,0.4c-0.2,0-0.7,0-1.6,0c-0.1,0-0.2,0-0.3,0
	c-0.1,0-0.2,0-0.3,0c-0.9,0-1.4,0-1.7,0c-0.2,0-0.6-0.2-1.1-0.4c-0.1,0-0.2-0.1-0.2-0.1c-0.6-0.3-0.9-0.4-0.9-0.4s0,0.2,0,0.7
	c0,0.5,0,0.9,0.1,1.2c0.1,0.7,0.1,1.8,0,3.1c0,0.6,0,1,0,1.1c0.1,0.1,0.2,0.2,0.6,0.2c0.1,0,0.4-0.1,0.7-0.2
	c0.3-0.2,0.5-0.3,0.6-0.4c0.1-0.2,0.3-0.2,0.5-0.3c0.2,0,0.8,0,1.9,0c1,0,1.7,0,1.9,0.1c0.2,0,0.3,0.1,0.3,0.3
	c0,0.2,0.1,0.2,0.3,0.2c0.1,0,0.2,0,0.2,0.1c0.1,0.1,0.1,0.2,0,0.2c-0.1,0.1-0.3,0.2-0.5,0.2c-0.3,0-1.2,0-2.7,0c-0.8,0-1.7,0-2.8,0
	c-0.2,0-0.3,0-0.3,0c0,0-0.1,0-0.3,0c-1.4,0-2.7,0-3.8,0c-2.6,0-4,0-4,0c-0.1-0.1-0.2-0.2-0.2-0.3c0-0.1,0.1-0.3,0.3-0.4
	c0.1-0.1,0.2-0.2,0.2-0.2c0-0.2,0.7-0.3,1.8-0.4c1.2-0.1,1.9-0.1,2.2,0.1c0.2,0.1,0.3,0.2,0.3,0.4c0,0.2,0.1,0.2,0.4,0.2
	c0.3,0,0.6-0.1,1-0.3l0,0c0.2-0.1,0.4-0.2,0.4-0.3c0-0.1,0.1-0.3,0-0.7c0,0,0-0.1,0-0.1c-0.1-1.1-0.1-1.9,0-2.3
	c0-0.4,0.2-0.6,0.4-0.8c0.2-0.1,0.3-0.3,0.2-0.4c-0.1-0.2-0.4-0.4-0.8-0.7c-0.4-0.3-0.7-0.5-0.8-0.5c-0.1,0-0.3,0.1-0.5,0.4
	c-0.3,0.3-0.5,0.4-0.6,0.5c-0.1,0-0.4,0.1-0.9,0.1c0,0-0.1,0-0.1,0c-0.8,0-1.3,0-1.4-0.1c-0.1-0.1,0.1-0.3,0.5-0.5
	c0.2-0.1,0.3-0.2,0.4-0.3c0.1-0.2,0.2-0.3,0.3-0.3s0.5,0,1,0c0.4,0,0.9,0,1.3,0c1,0,2,0,3,0c1.1,0,1.8,0,2,0c0.4,0,0.7,0.1,0.8,0.1
	c0.1,0,0.1,0.2,0.1,0.3c0,0.3,0.4,0.3,1.3,0.1c0.4-0.1,0.7-0.3,0.8-0.4c0.1-0.1,0.1-0.4,0.1-0.9c-0.1-1.1-0.1-1.9,0-2.2
	c0.1-0.4,0.2-0.6,0.5-0.8s0.3-0.3,0.2-0.6c-0.1-0.3-0.6-0.6-1.2-1.2c-0.4-0.3-0.6-0.4-0.7-0.4c-0.1,0-0.3,0.2-0.6,0.5l0,0
	c0,0-0.1,0.1-0.1,0.2c-0.1,0.2-0.3,0.3-0.4,0.4c-0.2,0.1-0.5,0.1-0.9,0.1c-0.3,0-1.1,0-2.2,0c-0.4,0-0.8,0-1,0s-0.6,0-1,0
	c-1.5,0-2.4,0-2.8,0c-0.3,0-0.7-0.1-1.1-0.3c-0.1,0-0.2-0.1-0.2-0.1c0,0-0.1,0-0.2-0.1c-0.7-0.3-1.1-0.5-1.1-0.4c0,0,0,0.2,0,0.7
	c0.1,0.4,0.1,1.2,0.1,2.3c0,1.1,0,1.9,0,2.4c0,0.7,0,1,0.1,1c0,0,0,0,0,0.1c0,0.1,0,0.1,0,0.1c-0.2,0.1-0.6,0-1.4-0.3
	c0,0-0.1,0-0.1,0c-0.4-0.2-0.7-0.3-0.7-0.3c-0.1,0-0.1,0.1-0.1,0.3v0.1c0.1,1.1,0.1,2.4,0.1,4c0,0.9,0,1.5,0,1.6
	c0,0.2,0.1,0.3,0.1,0.3c0.3,0.1,0.3,0.4,0,0.9c-0.2,0.4-0.6,0.8-1.1,1.1c-1,0.7-1.2,1.3-0.6,1.9c0.4,0.4,1,0.5,1.6,0
	c0.6-0.4,1-1,1.2-1.9c0.1-0.9,0.7-1.2,1.6-0.8c0.1,0.1,0.3,0.1,0.4,0c0.2-0.1,0.5-0.1,1-0.1c0.4,0,1.6,0,3.7,0c0.1,0,0.2,0,0.4,0
	c1.6,0,2.6,0,3,0c0.6,0,0.9,0.1,1,0.2c0,0.1,0,0.3-0.2,0.6l0,0c0,0,0,0,0,0.1c-0.2,0.3-0.4,0.4-0.7,0.5c-0.3,0-1.1,0-2.6,0
	c-0.2,0-0.3,0-0.4,0c-0.1,0-0.3,0-0.6,0c-1.3,0-2.1,0-2.4-0.1c-0.3,0-0.7-0.2-1.3-0.5c-0.1-0.1-0.2-0.1-0.3-0.1
	c-0.4-0.2-0.7-0.3-0.8-0.3c-0.1,0-0.1,0-0.2,0c-0.1,0-0.1,0-0.1,0.1c0,0.1,0,0.4,0.1,1c0.1,1,0.2,2.1,0.2,3.5c0,1.3,0,2.1-0.1,2.2
	c-0.1,0.2-0.6,0.3-1.5,0.3c-0.9,0-1.9,0-3.1-0.1c-0.3,0-0.4,0-0.4,0c0,0.1,0.1,0.3,0.3,0.8C133.3,44.2,133.3,44.3,133.4,44.3z
	 M143.4,43.4c-1.9,0-2.9,0-3-0.1c-0.2-0.1-0.3-0.3-0.3-0.6c0-0.3,0.1-0.5,0.4-0.6c0.1-0.1,1.1-0.1,3-0.1c1.9,0,2.8,0,3,0.1
	c0.2,0.1,0.3,0.3,0.3,0.6s-0.1,0.5-0.3,0.6C146.3,43.3,145.3,43.4,143.4,43.4z M146.5,41.2c-0.1,0.1-1.1,0.1-3,0.1
	c-1.9,0-2.9-0.1-3-0.1c-0.2-0.1-0.2-0.3-0.2-0.6c0-0.3,0.1-0.4,0.2-0.6c0.1-0.1,1.1-0.1,3-0.1c1.9,0,2.9,0,3,0.1
	c0.2,0.1,0.3,0.3,0.3,0.6C146.7,40.9,146.7,41.1,146.5,41.2z M143.5,39.3c-1.9,0-2.9,0-3-0.1c-0.2-0.1-0.3-0.3-0.3-0.6
	s0.1-0.5,0.3-0.6c0.1-0.1,1.1-0.1,3-0.1c1.9,0,2.8,0,3,0.1c0.2,0.1,0.3,0.3,0.3,0.6s-0.1,0.5-0.3,0.6
	C146.3,39.3,145.3,39.3,143.5,39.3z M137.8,33.2c-0.3,0.1-0.6,0.1-0.8-0.1c-0.2-0.2-0.3-0.5-0.2-0.8c0.1-0.2,0.2-0.4,0.5-0.4
	c0.3,0,0.5,0,0.7,0.2c0.1,0.1,0.2,0.3,0.1,0.6C138,33,137.9,33.1,137.8,33.2z M150.1,33.2c-0.1,0.1-0.3,0.1-0.6,0.1
	c-0.2,0-0.4-0.1-0.5-0.3c-0.2-0.3-0.1-0.6,0.1-0.8c0.2-0.2,0.5-0.3,0.9-0.1c0.2,0.1,0.3,0.3,0.4,0.6
	C150.4,32.9,150.3,33.1,150.1,33.2z M140.3,33.3c-0.5,0-0.7-0.2-0.7-0.7s0.2-0.7,0.7-0.7c0.4,0,0.6,0.2,0.7,0.5
	c0.1,0.3,0,0.6-0.3,0.7C140.5,33.3,140.4,33.3,140.3,33.3z M146.7,33.3c-0.5,0-0.8-0.2-0.8-0.7s0.3-0.7,0.8-0.7
	c0.4,0,0.6,0.2,0.7,0.5s0,0.6-0.3,0.7C147,33.3,146.9,33.3,146.7,33.3z M140.7,31.2c-0.3,0.2-0.6,0.2-0.9-0.1
	c-0.3-0.3-0.3-0.5-0.1-0.8c0.1-0.1,0.2-0.2,0.5-0.2c0.2,0,0.4,0,0.6,0.1c0.2,0.1,0.3,0.3,0.3,0.5S140.9,31.1,140.7,31.2z
	 M147.2,31.2c-0.3,0.1-0.5,0.2-0.8,0c-0.2-0.1-0.4-0.3-0.5-0.5c-0.1-0.2,0-0.4,0.3-0.6c0.1,0,0.2-0.1,0.5-0.1c0.2,0,0.4,0,0.5,0
	c0.2,0.1,0.3,0.3,0.3,0.5C147.4,30.9,147.3,31.1,147.2,31.2z M137.8,31.2c-0.3,0.1-0.5,0.1-0.7,0c-0.2-0.1-0.3-0.4-0.3-0.6
	c0.1-0.4,0.3-0.5,0.7-0.5c0.4,0,0.6,0.2,0.6,0.5C138.1,30.9,138,31.1,137.8,31.2z M150,31.2c-0.2,0.1-0.4,0.1-0.6,0.1
	c-0.2-0.1-0.4-0.2-0.4-0.3c-0.1-0.3,0-0.6,0.2-0.7c0.3-0.2,0.5-0.2,0.8,0c0.2,0.1,0.3,0.3,0.3,0.5C150.3,30.9,150.2,31.1,150,31.2z
	 M142,27.3c-0.1,0.1-0.5,0.1-1.2,0.1c-0.7,0-1.1-0.1-1.2-0.1c-0.2-0.1-0.3-0.3-0.3-0.5c0-0.2,0.1-0.4,0.3-0.6c0.1,0,0.5-0.1,1.2-0.1
	c0.8,0,1.2,0,1.3,0.1c0.2,0.1,0.3,0.3,0.3,0.6C142.3,27,142.2,27.2,142,27.3z M147.4,27.3c-0.1,0.1-0.6,0.1-1.3,0.1
	c-0.8,0-1.2,0-1.3-0.1c-0.2-0.1-0.3-0.3-0.3-0.6c0-0.3,0.1-0.5,0.3-0.6c0.1,0,0.6-0.1,1.3-0.1s1.2,0,1.3,0.1
	c0.2,0.1,0.3,0.3,0.3,0.6C147.7,27,147.6,27.2,147.4,27.3z M140.8,25.5c-0.7,0-1.1,0-1.2-0.1c-0.2-0.1-0.3-0.3-0.3-0.6
	c0-0.3,0.1-0.5,0.3-0.6c0.1,0,0.5-0.1,1.2-0.1c0.7,0,1.1,0,1.2,0.1c0.2,0.1,0.3,0.3,0.3,0.6c0,0.3-0.1,0.5-0.3,0.6
	C141.9,25.4,141.5,25.5,140.8,25.5z M146,25.5c-0.8,0-1.2,0-1.3-0.1c-0.2-0.1-0.3-0.3-0.3-0.6c0-0.3,0.1-0.5,0.3-0.6
	c0.1,0,0.5-0.1,1.3-0.1s1.2,0,1.3,0.1c0.2,0.1,0.3,0.3,0.4,0.6c0,0.3-0.1,0.4-0.3,0.6C147.3,25.4,146.8,25.5,146,25.5z M160.3,44.3
	c0.1,0.1,0.2,0.1,0.2,0.1c0.1,0,0.2-0.1,0.4-0.3c1.6-1.7,2.9-3.7,3.7-6c0.8-2.3,1.4-5.1,1.6-8.4c0-0.7,0.1-1.1,0.2-1.2
	c0.1-0.1,0.5-0.2,1.2-0.2c0,0,0.1,0,0.2,0c0.5,0,0.8,0.1,0.9,0.2c0.2,0.2,0.2,0.6,0.3,1.3c0,0.5,0,1.7-0.1,3.6c0,0.3,0,0.5,0,0.7
	c-0.1,2.7-0.3,4.4-0.4,5.3c-0.2,1.1-0.5,1.7-1,2c-0.4,0.2-1.2,0.2-2.4,0.1c-0.3,0-0.6,0-0.6,0c-0.1,0-0.1,0.1-0.1,0.2
	c0,0.1,0.2,0.2,0.5,0.3c0.7,0.2,1.1,0.4,1.4,0.7c0.3,0.3,0.5,0.8,0.5,1.3c0,0.2,0,0.3,0.1,0.3c0.1,0,0.2,0.1,0.5,0
	c1-0.1,1.8-0.5,2.3-1.2c0.5-0.7,0.9-1.9,1.2-3.7c0.2-1.6,0.4-4.1,0.5-7.5c0-0.1,0-0.3,0-0.6c0-1.2,0.1-2,0.1-2.2
	c0-0.2,0.2-0.4,0.5-0.5c0,0,0.1,0,0.1,0c0.3-0.1,0.3-0.3,0.1-0.6c-0.2-0.3-0.6-0.7-1.2-1.2c-0.3-0.2-0.5-0.4-0.6-0.3
	s-0.3,0.2-0.6,0.5l0,0c-0.4,0.4-0.9,0.7-1.6,0.8c-0.7,0.1-1.1-0.1-1.3-0.4c-0.2-0.3-0.2-1-0.1-2.2c0.1-1.2,0.2-1.8,0.4-1.9
	c0.2-0.2,0.2-0.3-0.1-0.4c-0.3-0.1-0.9-0.2-1.8-0.3c0,0-0.1,0-0.2,0c-0.4,0-0.7,0-0.7,0c0,0-0.1,0.1,0,0.2c0.1,0.8,0.2,1.7,0.2,2.8
	c0,1.1,0,1.7-0.1,1.8c-0.1,0.2-0.3,0.3-0.7,0.3c-0.4,0-1,0-2-0.1c0,0,0,0-0.1,0c-0.3,0-0.5,0-0.6,0c0,0,0,0.2,0.1,0.4
	c0,0,0,0.1,0,0.1c0.1,0.3,0.2,0.5,0.3,0.5c0.1,0,0.2,0,0.4,0c1.1-0.3,1.8-0.4,2.1-0.2c0.3,0.2,0.5,0.8,0.4,1.7
	c-0.3,5.7-1.4,10.1-3.3,13.3c0,0.1-0.1,0.2-0.2,0.3c-0.2,0.3-0.3,0.5-0.3,0.5C160.2,44.2,160.2,44.2,160.3,44.3z M173.2,44
	c0.3,0.1,0.6,0,1-0.1c0.4-0.1,0.7-0.3,0.8-0.6c0.1-0.1,0.1-0.4,0.1-0.8c0-0.6,0-0.9,0.2-1c0.1-0.1,0.6-0.1,1.5-0.1
	c0.7,0,1.1,0,1.2,0c0.2,0,0.4,0.2,0.5,0.3c0,0.1,0,0.4,0,0.9c0,0.6,0,0.9,0.2,1c0.2,0.1,0.5,0.1,1.1-0.2c0.5-0.2,0.8-0.4,1-0.6
	c0.1-0.2,0.2-0.6,0.1-1.2c-0.1-2-0.1-5.2-0.1-9.5c0-0.3,0-0.7,0-1.2c0-1.8,0-2.8,0-3.1c0-0.3,0.1-0.5,0.3-0.6c0,0,0.1,0,0.1,0
	c0.3-0.2,0.5-0.3,0.5-0.4c0-0.1-0.2-0.3-0.5-0.6c-0.7-0.7-1.2-1.1-1.5-1.2c-0.3-0.1-0.5,0.1-0.9,0.5l0,0c-0.3,0.4-0.6,0.6-0.8,0.6
	c-0.2,0.1-0.7,0.1-1.6,0.1c-0.1,0-0.2,0-0.4,0c-0.5,0-0.9,0-1-0.1c-0.2,0-0.5-0.2-1-0.4c-0.2-0.1-0.3-0.1-0.4-0.2c0,0-0.1,0-0.2-0.1
	c-0.4-0.2-0.7-0.3-0.8-0.3c-0.1,0-0.1,0.2,0,0.5c0,0,0,0.1,0,0.1c0.1,0.7,0.1,1.4,0.1,2.1c0,0.6,0,2,0,4.2c0,0.1,0,0.2,0,0.3
	c0,4.5,0,7.7-0.1,9.5c-0.1,0.9-0.1,1.5,0,1.7S173,43.9,173.2,44z M178.2,40.6c-0.3,0.1-0.8,0.2-1.6,0.1c-0.8-0.1-1.3-0.2-1.4-0.3
	c0-0.1-0.1-2.2-0.1-6.4c0-4.2,0-6.4,0.1-6.5c0.1-0.2,0.2-0.3,0.3-0.4c0.2,0,0.6-0.1,1.3-0.1c0.1,0,0.3,0,0.6,0c0.4,0,0.7,0,0.8,0.1
	c0.2,0.2,0.3,0.6,0.3,1.2c0,0.4,0,1.5,0,3.3c0,0.9,0,1.7,0,2.3c0,0.3,0,0.7,0,1.2c0,2,0,3.3,0,3.8c0,0.8,0,1.2-0.1,1.4
	C178.4,40.5,178.4,40.6,178.2,40.6L178.2,40.6z M198,44.4c0.2,0.1,0.5,0.1,0.8,0c0.4-0.1,0.7-0.2,1-0.3c0,0,0,0,0.1,0
	c0.2-0.1,0.3-0.2,0.3-0.3c0-0.1,0-0.4,0-1c0-0.1,0-0.2,0-0.3c-0.1-1.3-0.1-3.7-0.1-7.2c0-3.5,0-5.3,0.1-5.4c0.1-0.1,0.1-0.2,0.2-0.3
	c0.2-0.1,0.3-0.1,0.3-0.2c0-0.1,0-0.2-0.2-0.2c-0.3-0.1-0.4-0.3-0.4-0.5c0-0.2,0.2-0.5,0.6-1c0.2-0.2,0.4-0.6,0.8-1.2
	c0.1-0.1,0.1-0.2,0.1-0.2c0-0.1,0.1-0.2,0.2-0.3c0.2-0.3,0.3-0.5,0.4-0.6c0.2-0.1,0.4-0.2,0.8-0.2c0.3,0,0.9,0,1.9,0
	c0.4,0,0.8,0,1,0c1.8,0,2.8,0,3.1,0c0.3,0,0.5-0.1,0.5-0.2c0.1-0.3-0.5-0.9-1.8-1.8c0,0,0,0-0.1-0.1c-0.4-0.3-0.6-0.4-0.7-0.3
	c-0.1,0-0.3,0.3-0.6,0.7l0,0.1c-0.5,0.7-0.8,1-1,1.1c-0.2,0-2.8,0-7.9,0c-5.2,0-7.9,0-8.2-0.1c-0.4,0-0.6,0-0.6,0c0,0,0,0.2,0.2,0.5
	c0,0,0,0.1,0,0.1c0.1,0.3,0.2,0.4,0.3,0.4c0.1,0,0.3,0,0.6,0c0,0,0.1,0,0.1,0c0.7-0.1,1.3-0.2,1.8-0.2c0.6,0,1.7,0,3.4,0
	c0.1,0,0.4,0,0.6,0c1.3,0,2.2,0,2.5,0c0.5,0,0.7,0.1,0.8,0.3c0,0.1-0.1,0.4-0.3,0.8c0,0.1-0.1,0.1-0.1,0.2c-0.9,1.8-2.2,3.6-4,5.4
	c-1.7,1.8-3.6,3.5-5.7,4.9c-0.3,0.2-0.5,0.4-0.5,0.5c0,0.1,0.2,0,0.5-0.1c1.2-0.5,2.5-1.3,3.9-2.2c1.5-1,2.7-1.9,3.9-3
	c0.4-0.3,0.6-0.5,0.8-0.6c0.1-0.1,0.3,0,0.3,0.1c0.1,0.1,0.1,1.6,0.1,4.4c0,2.8-0.1,4.9-0.2,6.5c-0.1,0.9-0.1,1.5-0.1,1.6
	C197.7,44.2,197.8,44.4,198,44.4z M208.2,36.9c0.3,0,0.5-0.1,0.7-0.3c0.2-0.2,0.3-0.5,0.3-0.8c0-0.9-0.5-1.8-1.6-2.7
	c-1.1-0.9-2.5-1.7-4.3-2.3c-1-0.4-1.7-0.5-2.1-0.6c-0.4,0-0.4,0.1,0,0.4c2.9,2.1,4.9,4,6.1,5.8c0.1,0.2,0.3,0.4,0.6,0.5
	C208,36.9,208.1,36.9,208.2,36.9z M217.8,44.5c0.4,0.2,0.9,0.1,1.5-0.2s0.8-0.7,0.7-1.2c-0.1-1.8-0.1-5.2-0.1-10.5
	c0-3.7,0-5.8,0-6.5c0-0.6,0.1-1,0.1-1.1l0,0c0.1-0.1,0.3-0.2,0.8-0.2c0.5,0,2,0,4.7,0c0.6,0,1,0,1.3,0c0.3,0,0.8,0,1.3,0
	c2.7,0,4.3,0,4.7,0c0.5,0,0.7,0.1,0.8,0.2l0,0.1c0.1,0.1,0.1,2.8,0.1,8.3s0,8.2-0.1,8.4c-0.1,0.2-0.3,0.3-0.6,0.3
	c-0.3,0-1.1,0-2.2,0c-0.9,0-1.4-0.1-1.4,0c-0.1,0.1,0.1,0.2,0.4,0.3c1.3,0.2,2.1,0.7,2.4,1.3c0.1,0.1,0.2,0.3,0.2,0.5
	c0,0.1,0,0.1,0,0.1c0,0.1,0.1,0.2,0.2,0.2s0.3,0,0.6-0.1c0.7-0.1,1.3-0.3,1.6-0.5c0.4-0.2,0.6-0.6,0.8-1c0-0.1,0.1-0.6,0.1-1.3
	c0-0.7,0-3.2,0-7.5c0-0.2,0-0.4,0-0.7c0-5.2,0-7.9,0.1-7.9c0.1-0.2,0.3-0.3,0.5-0.4c0.2-0.1,0.3-0.2,0.3-0.3c0-0.1,0-0.2-0.1-0.3
	c-0.2-0.2-0.5-0.5-1.1-0.9c-0.5-0.4-0.8-0.6-0.9-0.6c-0.1,0-0.3,0.2-0.8,0.7c0,0-0.1,0.1-0.1,0.1c-0.1,0.1-0.2,0.2-0.4,0.3
	c-0.2,0-0.7,0.1-1.4,0.1c-0.5,0-1.7,0-3.6,0c-0.7,0-1.3,0-1.7,0c-4.4,0-6.6,0-6.8,0c-0.1,0-0.5-0.2-1.3-0.5
	c-0.7-0.3-1.1-0.5-1.2-0.5c0,0,0,0.5,0.1,1.5c0.1,0.5,0.1,3,0.1,7.6c0,5.2,0,8.8-0.1,10.8c0,0.7-0.1,1,0,1.2
	C217.5,44.3,217.6,44.4,217.8,44.5z M222.7,40.2c0.2,0.1,0.5,0,0.9-0.1c0.4-0.1,0.7-0.3,0.9-0.5c0.1-0.1,0.1-0.1,0.1-0.2
	c0-0.1,0-0.3,0-0.7c0,0,0-0.1,0-0.2c0-0.4,0-0.6,0.1-0.7c0-0.1,0.2-0.2,0.5-0.3c0.2,0,0.6,0,1.2,0c0.2,0,0.3,0,0.5,0s0.3,0,0.5,0
	c0.8,0,1.3,0.1,1.4,0.1c0.1,0.1,0.2,0.3,0.2,0.7c0,0.1,0,0.2,0,0.3c0,0.5,0.1,0.9,0.2,1s0.5,0.1,1-0.1c0.5-0.2,0.9-0.3,0.9-0.5
	c0.1-0.2,0.1-0.6,0.1-1.3c-0.1-1.8-0.1-3.1-0.1-3.9c0-0.8,0.2-1.2,0.4-1.3c0.3-0.2,0.4-0.4,0.3-0.6c-0.1-0.3-0.5-0.6-1.2-1.1
	c-0.4-0.3-0.6-0.4-0.7-0.4c-0.1,0-0.3,0.2-0.5,0.5c0,0,0,0-0.1,0.1c-0.2,0.3-0.5,0.5-0.7,0.6c-0.2,0-0.8,0.1-1.7,0.1
	c-0.1,0-0.1,0-0.2,0s-0.1,0-0.2,0c-0.9,0-1.4,0-1.7,0c-0.2,0-0.6-0.2-1.2-0.4c-0.1,0-0.2-0.1-0.2-0.1c-0.5-0.2-0.8-0.3-1-0.4
	c-0.1,0-0.1,0-0.1,0.2c0.1,0.8,0.2,2,0.2,3.8c0,1.7,0,3.2-0.1,4.4c0,0.5,0,0.8,0,0.9S222.6,40.2,222.7,40.2z M226.8,36.9
	c-1.2,0-1.9,0-2-0.1c-0.1-0.1-0.2-0.2-0.3-0.4c0-0.2,0-0.8,0-1.8c0-0.2,0-0.4,0-0.6c0-0.6,0-1,0-1.2c0-0.2,0.2-0.4,0.4-0.4
	c0.2,0,0.5-0.1,1.2,0c0.2,0,0.4,0,0.6,0c0.1,0,0.3,0,0.5,0c0.6,0,1,0,1.2,0c0.2,0.1,0.4,0.2,0.4,0.5c0,0.2,0,0.6,0,1.2
	c0,0.2,0,0.4,0,0.6c0,0.9,0,1.4,0,1.7c0,0.2-0.1,0.4-0.2,0.5C228.7,36.8,228,36.9,226.8,36.9z M221.6,28.9c0,0,0.4,0,1.1-0.1
	c0.1,0,0.1,0,0.1,0c0.6-0.1,2.3-0.1,5.2-0.1c0.2,0,0.6,0,1,0c1.8,0,2.9,0,3.2,0c0.3,0,0.5-0.1,0.6-0.2l0,0c0.1-0.2-0.3-0.7-1.3-1.4
	c-0.5-0.4-0.8-0.5-0.9-0.5c-0.1,0-0.4,0.2-0.7,0.7c-0.3,0.5-0.6,0.8-0.9,0.8c-0.2,0.1-1.4,0.1-3.6,0c-2.2,0-3.6-0.1-4-0.2
	c-0.1,0-0.2,0.1-0.1,0.3C221.3,28.3,221.4,28.6,221.6,28.9z M259.7,44.4c0.1,0.1,0.3,0.1,0.8,0s0.8-0.2,1.2-0.4
	c0.6-0.3,1.1-0.8,1.5-1.6c0.4-0.8,0.6-2.1,0.8-3.8c0.2-1.6,0.3-3.9,0.4-7c0-0.2,0-0.4,0-0.8c0-1.6,0.1-2.5,0.1-2.7
	c0-0.3,0.2-0.5,0.4-0.6c0,0,0.1,0,0.1,0c0.2-0.1,0.3-0.2,0.4-0.2c0-0.1,0-0.1,0-0.2c-0.1-0.2-0.4-0.5-0.8-0.9
	c-0.5-0.4-0.8-0.7-1-0.8c-0.1-0.1-0.2-0.1-0.3,0c-0.1,0-0.2,0.2-0.5,0.5c0,0-0.1,0.1-0.1,0.1c-0.3,0.3-0.5,0.5-0.7,0.6
	c-0.2,0-0.7,0.1-1.4,0.1c-0.2,0-0.3,0-0.4,0c-0.1,0-0.2,0-0.3,0c-0.7,0-1.2,0-1.3,0c-0.3,0-0.4-0.2-0.4-0.3c0-0.1,0.1-0.4,0.3-0.9
	c0-0.1,0.1-0.1,0.1-0.2c0.3-0.7,0.5-1.1,0.6-1.3c0.1-0.2,0.2-0.3,0.4-0.4c0.3-0.1,0.2-0.3-0.1-0.5c-0.4-0.2-1.1-0.5-2.2-0.8l0,0
	c-0.2-0.1-0.4-0.1-0.4,0c0,0-0.1,0.2-0.1,0.6c0,0,0,0.1,0,0.1c-0.3,2.3-1,4.8-2.2,7.6c-0.4,1-0.7,1.4-0.9,1.4
	c-0.1-0.1-0.2-0.7-0.2-2c0-1,0-1.6,0.1-1.8c0-0.2,0.2-0.4,0.5-0.6c0.2-0.1,0.3-0.3,0.2-0.5c-0.1-0.2-0.5-0.5-1.1-1
	c-0.4-0.4-0.7-0.5-0.9-0.5c-0.1,0-0.3,0.2-0.6,0.6c-0.3,0.4-0.8,0.6-1.5,0.7c-0.7,0.1-1-0.1-1-0.4c0-0.2,0.3-0.7,0.8-1.6
	c0.6-0.8,0.9-1.3,1.1-1.4c0.4-0.1,0.4-0.3,0.1-0.4c-0.3-0.2-0.9-0.4-2-0.6c0,0-0.1,0-0.2,0c-0.4-0.1-0.6-0.1-0.7-0.1
	c-0.1,0-0.1,0.2-0.1,0.6c0,0.1,0,0.2,0,0.2c0,0.5,0,1-0.1,1.5c-0.1,0.8-0.2,1.4-0.2,1.6c-0.1,0.3-0.3,0.4-0.5,0.4
	c-0.2,0-0.6-0.2-1.2-0.5c-0.6-0.3-0.9-0.4-1-0.4c0,0-0.1,0-0.1,0.1c0,0.1,0,0.3,0.1,0.8c0.1,1.1,0.2,3.5,0.2,7.1
	c0,3.8-0.1,6.6-0.2,8.4c-0.1,0.8,0,1.3,0.1,1.5s0.5,0.2,1.1,0c0.4-0.1,0.7-0.3,0.8-0.5c0.1-0.2,0.2-0.5,0.2-1v0c0-0.4,0-0.6,0-0.7
	c0.1-0.1,0.2-0.2,0.5-0.3c0.2,0,0.6,0,1.3,0c0,0,0.1,0,0.1,0s0.1,0,0.1,0c0.7,0,1.1,0,1.3,0c0.3,0,0.4,0.1,0.5,0.2
	c0,0.1,0.1,0.3,0.1,0.6v0.1c0,0.5,0.1,0.8,0.4,0.8c0.3,0.1,0.7,0,1.4-0.4c0,0,0.1,0,0.2-0.1c0.2-0.1,0.3-0.2,0.3-0.4
	c0-0.2,0-0.8,0-1.8c0-0.5,0-0.8,0-1.1c0-1.1,0-2.4,0-4.1c0-1.7,0-2.6,0.1-2.7c0-0.1,0.1-0.3,0.2-0.3c0.1-0.1,0.1-0.1,0,0
	c0,0.1,0,0.1,0.1,0.2c0.1,0,0.1,0,0.2,0c0.2-0.1,0.6-0.6,1.3-1.5c0.7-0.9,1.3-1.8,1.8-2.6c0,0,0,0,0-0.1c0.2-0.4,0.5-0.6,0.7-0.7
	c0.2-0.1,0.9-0.1,2-0.1c0.1,0,0.1,0,0.2,0c0.2,0,0.4,0,0.6,0c0.7,0,1.1,0,1.2,0c0.2,0,0.4,0.2,0.5,0.4c0,0.1,0.1,0.5,0,1
	c0,0.2,0,0.4,0,0.5c0,2.3-0.1,4.5-0.2,6.6c-0.1,2.1-0.3,3.5-0.5,4.4c-0.1,0.5-0.3,0.9-0.5,1.1c-0.2,0.2-0.6,0.4-1,0.4
	c-0.4,0-1.1,0-2.1-0.1c-0.5,0-0.8-0.1-0.9,0c-0.1,0-0.1,0.1-0.1,0.2c0,0.1,0.2,0.2,0.6,0.3c1.5,0.4,2.2,1,2.2,2.1
	C259.7,44.3,259.7,44.4,259.7,44.4z M248.5,40.4c-0.6,0-0.9,0-1.1-0.1c-0.2-0.1-0.3-0.3-0.4-0.6c0-0.2-0.1-0.8,0-1.7
	c0-0.4,0-0.7,0-0.9c0-0.2,0-0.5,0-0.8c0-0.8,0-1.4,0-1.6c0.1-0.3,0.2-0.5,0.4-0.6c0.1-0.1,0.5-0.1,1.1-0.1c0.2,0,0.4,0,0.6,0
	s0.3,0,0.6,0c0.6,0,0.9,0,1.1,0.1c0.2,0.1,0.3,0.3,0.4,0.6c0,0.2,0,0.8,0,1.6c0,0.4,0,0.6,0,0.8c0,1.5,0,2.3,0,2.6
	c0,0.3-0.1,0.4-0.2,0.5c-0.1,0.1-0.2,0.1-0.4,0.1c-0.1,0-0.6,0-1.4,0C249,40.4,248.8,40.4,248.5,40.4z M258.2,37
	c0.4,0.1,0.7,0.1,1-0.1c0.3-0.2,0.5-0.6,0.5-1c0-0.7-0.2-1.4-0.8-2c-0.5-0.7-1.3-1.3-2.4-1.8c-0.6-0.3-0.9-0.4-1-0.4
	c-0.1,0,0,0.3,0.3,0.7c1,1.5,1.6,2.9,1.8,4.1C257.7,36.7,257.9,36.9,258.2,37z M248.6,33.4c-0.6,0-0.9,0-1.1-0.1
	c-0.2-0.1-0.3-0.3-0.4-0.6c0-0.2-0.1-0.7,0-1.6c0-0.4,0-0.7,0-0.9c0-0.2,0-0.4,0-0.8c0-0.8,0-1.3,0-1.5c0.1-0.3,0.2-0.5,0.4-0.6
	c0.1,0,0.5-0.1,1-0.1c0.2,0,0.4,0,0.6,0s0.3,0,0.6,0c0.6,0,0.9,0,1.1,0.1c0.2,0.1,0.3,0.2,0.4,0.6c0,0.2,0.1,0.7,0.1,1.5
	c0,0.3,0,0.6,0,0.7c0,1.4,0,2.2,0,2.5c0,0.3-0.1,0.4-0.2,0.5c-0.1,0.1-0.2,0.1-0.4,0.1c-0.1,0-0.6,0-1.4,0
	C249,33.4,248.8,33.4,248.6,33.4z M273.4,44.4c0.4,0.1,0.8,0,1.3-0.2c0.4-0.2,0.7-0.5,0.7-0.8c0-0.4,0.1-0.6,0.3-0.8
	c0.1-0.1,2.4-0.1,6.8-0.1c4.4,0,6.7,0,6.8,0.1c0.2,0.1,0.3,0.4,0.3,0.9c0,0.3,0,0.6,0.1,0.6c0.1,0.1,0.2,0.1,0.4,0.1
	c0.2,0,0.6-0.1,1-0.2c0.4-0.1,0.7-0.3,0.9-0.5c0.1-0.1,0.1-0.1,0.1-0.2c0,0,0-0.2,0-0.5c-0.1-1.5-0.1-4.3-0.1-8.4c0-0.2,0-0.5,0-0.9
	c0-1.7,0-2.8,0-3.3c0-0.6,0-1.1,0.1-1.2c0-0.1,0.1-0.2,0.2-0.3c0,0,0.1,0,0.1,0c0.3-0.2,0.4-0.3,0.4-0.3c0-0.1,0-0.2-0.1-0.4
	c-0.4-0.4-0.9-0.8-1.5-1.2c-0.2-0.2-0.4-0.3-0.5-0.2c-0.1,0-0.2,0.1-0.4,0.3c0,0-0.1,0.1-0.1,0.1c-0.3,0.4-0.6,0.6-0.7,0.6
	c-0.1,0.1-0.5,0.1-1.2,0.1c-0.1,0-0.2,0-0.2,0c-0.1,0-0.2,0-0.3,0c-0.7,0-1.1-0.1-1.2-0.2c-0.1-0.1-0.1-0.6-0.1-1.4
	c0-0.2,0-0.4,0-0.5c0-0.9,0-1.5,0.1-1.6c0-0.2,0.1-0.3,0.3-0.4c0.2-0.2,0.2-0.3-0.1-0.5c-0.3-0.2-0.9-0.4-1.9-0.6c0,0-0.1,0-0.1,0
	c-0.3-0.1-0.5-0.1-0.6-0.1c0,0-0.1,0.2,0,0.4c0,0,0,0.1,0,0.1c0.1,0.7,0.2,1.8,0.2,3.1c0,0.1,0,0.2,0,0.3c0,0.8,0,1.2-0.1,1.3
	c-0.1,0.1-0.5,0.2-1.2,0.2c-0.1,0-0.2,0-0.2,0c-0.1,0-0.2,0-0.3,0c-0.7,0-1-0.1-1.2-0.2c-0.1-0.1-0.1-0.6-0.1-1.4c0-0.2,0-0.3,0-0.4
	c0-0.9,0-1.4,0-1.6c0-0.2,0.1-0.4,0.3-0.5c0.2-0.2,0.2-0.4,0-0.5c-0.2-0.1-0.9-0.3-1.9-0.6c0,0-0.1,0-0.2,0c-0.3-0.1-0.5-0.1-0.6,0
	c0,0-0.1,0.2,0,0.5c0,0.1,0,0.1,0,0.1c0.1,0.9,0.2,1.9,0.2,3.1c0,0,0,0.1,0,0.1c0,0.8,0,1.2-0.2,1.3c-0.1,0.1-0.6,0.2-1.4,0.2
	c-0.1,0-0.1,0-0.1,0c-0.1,0-0.2,0-0.3,0c-0.6,0-0.9,0-1.1,0c-0.2,0-0.6-0.2-1.2-0.5c-0.1,0-0.2-0.1-0.3-0.1c-0.7-0.3-1-0.4-1.1-0.4
	c0,0,0,0.1,0,0.2c0,0.1,0.1,0.6,0.1,1.3c0.1,0.9,0.1,3.2,0.1,6.8c0,3.6-0.1,6.2-0.2,7.7c0,0.6-0.1,1-0.1,1.2c0,0.1,0,0.2,0.1,0.3
	C273.2,44.3,273.3,44.4,273.4,44.4z M289.2,41.8c-0.1,0.1-0.6,0.1-1.3,0.1c-0.8,0-1.3,0-1.4-0.1c-0.1-0.1-0.2-0.3-0.3-0.5
	c0-0.3,0-1.2,0-2.7c0-0.2,0-0.5,0-0.8c0-0.9,0-1.5,0-1.8c0-0.4,0.1-0.6,0.3-0.6c0.1-0.1,0.4-0.1,0.9-0.1c0.2,0,0.3,0,0.4,0
	s0.3,0,0.4,0c0.5,0,0.8,0,0.9,0.1c0.2,0.1,0.3,0.3,0.3,0.6c0,0.2,0,0.8,0,1.8c0,0.4,0,0.6,0,0.8c0,0.1,0,0.3,0,0.6c0,1.3,0,2,0,2.2
	C289.5,41.6,289.4,41.7,289.2,41.8z M282,41.9c-0.4,0-0.7,0-0.9-0.1c-0.2-0.1-0.3-0.3-0.3-0.6c0-0.3,0-0.8,0-1.8c0-0.4,0-0.7,0-0.9
	s0-0.5,0-0.9c0-0.9,0-1.5,0-1.8c0-0.3,0.2-0.5,0.3-0.6c0.1-0.1,0.4-0.1,0.9-0.1c0.2,0,0.3,0,0.4,0s0.2,0,0.4,0c0.4,0,0.7,0,0.9,0.1
	c0.2,0.1,0.3,0.3,0.3,0.6c0,0.3,0,0.8,0,1.8c0,0.4,0,0.7,0,0.9c0,1.5,0,2.4,0,2.7c0,0.3-0.1,0.4-0.3,0.5c-0.1,0.1-0.5,0.1-1.3,0.1
	C282.3,41.9,282.2,41.9,282,41.9z M277,41.9c-0.8,0-1.2,0-1.3-0.1c-0.2-0.1-0.3-0.2-0.3-0.4c0-0.2,0-1,0-2.2c0-0.2,0-0.4,0-0.6
	c0-0.2,0-0.5,0-0.8c0-0.9,0-1.5,0-1.8c0-0.4,0.1-0.6,0.3-0.6c0.1-0.1,0.4-0.1,0.9-0.1c0.2,0,0.3,0,0.4,0c0.1,0,0.2,0,0.4,0
	c0.4,0,0.7,0,0.9,0.1c0.2,0.1,0.3,0.3,0.3,0.6c0,0.2,0,0.8,0,1.8c0,0.4,0,0.6,0,0.8c0,1.5,0,2.4,0,2.7c0,0.3-0.1,0.4-0.3,0.5
	C278.2,41.9,277.8,41.9,277,41.9z M277,34.6c-0.8,0-1.3,0-1.4-0.1c-0.1-0.1-0.2-0.2-0.3-0.5c0-0.3,0-1.1,0-2.5c0-0.2,0-0.4,0-0.6
	c0-0.8,0-1.4,0-1.6c0-0.3,0.2-0.5,0.3-0.6c0.1,0,0.4-0.1,0.9-0.1c0.2,0,0.3,0,0.4,0c0.1,0,0.2,0,0.4,0c0.5,0,0.8,0,0.9,0.1
	c0.2,0.1,0.3,0.3,0.3,0.6c0,0.2,0,0.8,0,1.6c0,0.3,0,0.5,0,0.6c0,1.4,0,2.2,0,2.5c0,0.3-0.1,0.4-0.2,0.5
	C278.3,34.6,277.9,34.6,277,34.6z M283.7,34.5c-0.1,0.1-0.5,0.1-1.3,0.1c-0.8,0-1.2-0.1-1.3-0.1c-0.1-0.1-0.2-0.2-0.3-0.5
	c0-0.2,0-1,0-2.4c0-0.2,0-0.4,0-0.7c0-0.9,0-1.4,0-1.7c0-0.3,0.1-0.5,0.3-0.6c0.1-0.1,0.4-0.1,0.9-0.1c0.2,0,0.3,0,0.4,0
	s0.2,0,0.4,0c0.5,0,0.8,0,0.9,0.1c0.2,0.1,0.3,0.3,0.3,0.6c0,0.2,0,0.8,0,1.7c0,0.3,0,0.5,0,0.7c0,1.4,0,2.2,0,2.4
	C283.9,34.3,283.9,34.4,283.7,34.5z M287.9,34.6c-0.8,0-1.3,0-1.4-0.1c-0.1-0.1-0.2-0.2-0.3-0.5c0-0.2,0-1,0-2.4c0-0.2,0-0.4,0-0.8
	c0-0.8,0-1.4,0-1.6c0-0.3,0.1-0.5,0.3-0.6c0.1-0.1,0.4-0.1,0.9-0.1c0.2,0,0.3,0,0.4,0s0.2,0,0.4,0c0.5,0,0.8,0,0.9,0.1
	c0.2,0.1,0.3,0.3,0.3,0.6c0,0.2,0,0.7,0,1.6c0,0.3,0,0.5,0,0.7c0,1.4,0,2.2,0,2.5c0,0.3-0.1,0.4-0.2,0.5
	C289.2,34.5,288.7,34.6,287.9,34.6z M36,68.5c0.2,0,0.6,0,1-0.1c0.4-0.1,0.7-0.2,0.9-0.4c0-0.1,0.1-0.5,0-1.4c0-0.2,0-0.5,0-0.8
	c0-1.1,0-1.8,0-2.1c0-0.4,0.2-0.6,0.5-0.7c0.2-0.1,0.7-0.1,1.5-0.1c0.2,0,0.4,0,0.6,0c1,0,1.7,0,2-0.1c0.4-0.1,0.5-0.2,0.3-0.5
	c-0.1-0.2-0.5-0.6-1.1-1.2c0,0,0,0-0.1-0.1c-0.5-0.4-0.8-0.6-0.9-0.6c-0.1,0-0.4,0.3-0.7,0.7c0,0,0,0.1,0,0.1
	c-0.3,0.4-0.5,0.7-0.6,0.8c-0.1,0.1-0.3,0.1-0.6,0.1c-0.4,0-0.6-0.1-0.7-0.2c-0.1-0.1-0.1-0.5-0.1-1.1c0-0.5,0-0.8,0-1
	c0-0.2,0.1-0.3,0.3-0.5c0.2-0.2,0.2-0.3,0-0.4c-0.1-0.1-0.6-0.3-1.3-0.5c-0.4-0.1-0.6-0.2-0.7-0.3s-0.1-0.2,0-0.4
	c0.1-0.2,0.4-0.4,1-0.4c0.5,0,1,0,1.5,0.1c0.5,0.1,0.7,0.3,0.7,0.6c0,0.3,0.4,0.4,1.1,0.1c0.5-0.2,0.9-0.3,1-0.5
	c0.1-0.1,0.1-0.5,0.1-1.1c0-1-0.1-2.2-0.1-3.5c0-0.1,0-0.3,0-0.5c0-1.2,0-2,0-2.2c0-0.2,0.2-0.4,0.4-0.5l0,0
	c0.3-0.2,0.4-0.3,0.4-0.4c0-0.1-0.1-0.3-0.4-0.6l0,0c-0.6-0.6-1.1-1-1.4-1.1c-0.1,0-0.4,0.1-0.7,0.6c0,0,0,0-0.1,0.1
	c-0.2,0.3-0.4,0.5-0.6,0.5c-0.1,0-0.6,0.1-1.3,0.1c-0.1,0-0.1,0-0.1,0c-0.8,0-1.3,0-1.5-0.1c-0.2-0.1-0.2-0.2,0-0.4
	c0-0.1,0.3-0.3,0.7-0.7c0.4-0.4,0.7-0.6,0.8-0.7c0.3-0.2,0.3-0.3,0.1-0.4c-0.2-0.1-0.9-0.3-1.8-0.5c-0.1,0-0.1,0-0.2,0
	c-0.4-0.1-0.7-0.1-0.7-0.1c-0.1,0-0.1,0.2-0.1,0.5c0,0.1,0,0.1,0,0.2c0,0.9-0.1,1.6-0.3,1.9c-0.2,0.4-0.5,0.5-1,0.5
	c-0.4,0-1.1-0.2-2-0.6c-0.1,0-0.2-0.1-0.3-0.1c-0.4-0.2-0.6-0.2-0.7-0.2c0,0-0.1,0.2,0,0.6c0,0.1,0,0.2,0,0.2
	c0.1,1.3,0.2,2.2,0.2,2.8c0,0.6-0.1,1-0.2,1.1c-0.1,0.1-0.4-0.1-0.7-0.4c0,0-0.1-0.1-0.1-0.1c-0.2-0.2-0.3-0.3-0.4-0.3
	c0,0-0.1,0-0.1,0.1c0,0,0,0.1,0,0.1c-0.1,0.3-0.3,0.4-0.5,0.3c-0.2,0-0.3-0.9-0.3-2.4c0-1.6,0.2-2.5,0.4-2.6
	c0.2-0.2,0.2-0.3-0.1-0.5c-0.2-0.1-0.8-0.3-1.7-0.6c-0.4-0.1-0.6-0.2-0.7-0.1c0,0-0.1,0.1,0,0.3c0.1,0.8,0.2,2,0.2,3.6
	c0,1.7,0,2.6,0,2.8c-0.1,0.2-0.3,0.3-0.8,0.3c-0.4,0-0.7,0-0.9-0.1c-0.3-0.2-0.4-1-0.3-2.6c0-1.6,0.2-2.4,0.5-2.6
	c0.4-0.3-0.2-0.7-2-1.1c-0.3-0.1-0.4-0.1-0.5,0c0,0,0,0.2,0,0.5c0.1,0.7,0.1,1.4,0.2,2.3c0,0.9,0,2.9,0,5.9c0,4,0,6.3-0.1,6.8
	c-0.2,2-0.5,3.7-0.9,5c0,0,0,0.1-0.1,0.2c-0.1,0.3-0.1,0.4-0.1,0.5c0,0.1,0,0.1,0,0.2c0.1,0.1,0.2,0.1,0.3,0
	c0.1-0.1,0.3-0.4,0.6-0.8c0.6-1,1.1-2,1.4-3.2c0.3-1.2,0.5-2.6,0.6-4.2c0-0.8,0.1-1.2,0.2-1.3c0.1-0.1,0.5-0.2,1.1-0.2
	c0.4,0,0.6,0,0.8,0.1c0.1,0,0.2,0.1,0.3,0.3c0.1,0.1,0.1,1.1,0.1,2.8c0,1.7-0.1,3.3-0.1,4.8c0,0.7-0.1,1.2-0.1,1.3
	c0,0.1,0.1,0.2,0.2,0.3c0.3,0.3,0.8,0.2,1.5-0.2c0,0,0,0,0.1,0c0.3-0.1,0.4-0.3,0.5-0.4c0-0.1,0.1-0.6,0-1.2c0-0.1,0-0.1,0-0.2
	c-0.1-2.6-0.1-4.4-0.1-5.5c0.1-1.1,0.2-1.7,0.5-1.7c0.2,0,0.3-0.1,0.4-0.2c0-0.2,0-0.3-0.2-0.5c-0.6-0.6-1-1-1.3-1.1
	c-0.3-0.1-0.6-0.1-0.8,0.2c-0.3,0.4-0.6,0.6-0.7,0.7c-0.1,0.1-0.4,0.1-0.9,0.1c-0.4,0-0.7,0-0.8-0.1c-0.2-0.1-0.3-0.2-0.3-0.5
	c0-0.2,0-0.6,0-1.3c0,0,0-0.1,0-0.1c0-0.1,0-0.3,0-0.4c0-0.5,0-0.8,0.1-0.9c0.1-0.2,0.3-0.3,0.6-0.3c0.2,0,0.8,0,1.7,0
	c0.3,0,0.6,0,0.8,0c0.2,0,0.4,0,0.7,0c0.9,0,1.5,0,1.8,0.1c0.3,0.1,0.5,0.3,0.6,0.6c0,0.2,0,0.8,0,1.7c0,0.3,0,0.5,0,0.7
	c0,0.7,0,1.2,0,1.3c0,0.1,0.1,0.2,0.1,0.3c0.2,0.2,0.6,0.2,1.1,0c0.6-0.2,0.9-0.4,0.9-0.6c0-0.2,0.1-0.4,0.4-0.5
	c0.3-0.1,0.6-0.1,0.8,0c0.4,0.2,0.3,0.7-0.4,1.5c-0.7,0.8-1.5,1.6-2.6,2.2c-0.2,0.1-0.4,0.2-0.4,0.3c0,0,0,0.1,0,0.2
	c0.1,0.1,0,0.1-0.2,0.2c-0.2,0-0.4,0.1-0.7,0h0c-0.2,0-0.3,0-0.4,0c0,0,0,0.2,0.1,0.4c0,0,0,0.1,0,0.1c0,0,0,0.1,0,0.1
	c0.1,0.2,0.2,0.4,0.3,0.4c0.1,0,0.3,0,0.6,0c0,0,0.1,0,0.1,0c0.8-0.1,1.8-0.2,3-0.2c1.2,0,1.9,0,2.1,0c0.2,0.1,0.3,0.5,0.3,1.2
	c0,0.7,0,1.9-0.1,3.6C35.6,68.2,35.7,68.5,36,68.5z M33.6,62.2c-1.2,0-1.9,0-2.1-0.1c-0.5-0.1-0.5-0.3,0-0.6c1.2-0.5,2.3-1.1,3.3-2
	c0.4-0.4,0.7-0.5,0.7-0.4c0.1,0.1,0.2,0.6,0.2,1.4c0,0.7,0,1.1,0,1.2c0,0.2-0.1,0.3-0.3,0.4C35.4,62.2,34.7,62.2,33.6,62.2z
	 M34.4,56.8c-0.1,0.1-0.4,0.1-0.8,0.1s-0.6-0.1-0.7-0.1c-0.2-0.1-0.3-0.5-0.3-1.3c0-0.8,0-1.3,0.1-1.5c0.1-0.2,0.4-0.3,0.9-0.3
	c0.5-0.1,0.8,0,1.1,0.1c0.3,0.1,0.4,0.6,0.3,1.5C34.9,56.1,34.7,56.6,34.4,56.8z M38,56.9c-0.7,0-1.1,0-1.2-0.1s-0.1-0.4,0-0.9
	c0.1-0.4,0.1-0.8,0.1-1.1c0-0.5,0.1-0.8,0.2-0.9c0.1-0.1,0.5-0.2,1-0.2c0.6,0,1,0.1,1.1,0.2c0.1,0.1,0.2,0.6,0.2,1.3
	c0,0.6,0,1,0,1.2c0,0.2-0.1,0.3-0.2,0.4c-0.1,0.1-0.2,0.1-0.3,0.1C38.7,56.9,38.5,56.9,38,56.9z M34.7,52.9C34.6,53,34.3,53,33.8,53
	c-0.5,0-0.8,0-0.9-0.1c-0.2-0.1-0.3-0.6-0.3-1.4s0.1-1.3,0.3-1.4c0.1-0.1,0.5-0.1,1-0.1c0.5,0,0.8,0.1,1,0.2
	c0.2,0.2,0.2,0.6,0.2,1.4C35,52.3,34.9,52.8,34.7,52.9z M38.2,53c-0.5,0-0.8,0-0.9-0.1c-0.2-0.1-0.3-0.6-0.3-1.5s0.1-1.3,0.3-1.4
	c0.1-0.1,0.4-0.1,1-0.1c0.5,0,0.8,0.1,0.9,0.1c0.2,0.1,0.3,0.6,0.3,1.4s-0.1,1.3-0.3,1.4C39,52.9,38.7,53,38.2,53z M59.4,60.7
	c1.1,0.1,2-0.2,2.8-1c0.8-0.8,1.1-1.7,1-2.8c-0.1-0.9-0.5-1.6-1.2-2.2c-0.6-0.5-1.4-0.8-2.2-0.8c-0.9,0-1.6,0.3-2.3,0.9
	c-0.7,0.6-1,1.4-1.1,2.3c0,0.8,0.2,1.6,0.7,2.3C57.8,60.2,58.5,60.6,59.4,60.7z M60.7,59.8c-0.8,0.3-1.6,0.2-2.3-0.3
	s-1.1-1.2-1.1-2.1c0-0.7,0.2-1.3,0.7-1.8c0.5-0.5,1.1-0.7,1.7-0.7c0.7,0,1.3,0.2,1.8,0.7c0.7,0.6,0.9,1.4,0.7,2.3
	C62.1,58.8,61.6,59.4,60.7,59.8z"/>
</svg>
