<svg width="352" height="219" viewBox="0 0 352 219" fill="none" xmlns="http://www.w3.org/2000/svg">
<g clip-path="url(#clip0)">
<path d="M350.65 0.649902H0.650024V217.44H350.65V0.649902Z" stroke="#D6D2C7" stroke-width="1.3" stroke-miterlimit="10" stroke-dasharray="9.31 9.31"/>
</g>
<path d="M21.824 97.872C21.936 97.984 22.128 98.024 22.4 97.992C22.688 97.976 22.992 97.88 23.312 97.704C23.328 97.688 23.36 97.672 23.408 97.656C23.632 97.544 23.76 97.424 23.792 97.296C23.824 97.184 23.832 96.84 23.816 96.264C23.8 96.104 23.792 95.984 23.792 95.904C23.744 94.656 23.72 93.12 23.72 91.296C23.704 89.44 23.728 88.456 23.792 88.344C23.872 88.184 24.056 88.096 24.344 88.08C24.632 88.048 25.592 88.032 27.224 88.032C27.528 88.032 27.936 88.024 28.448 88.008C29.312 87.992 29.864 88.016 30.104 88.08C30.424 88.16 30.624 88.376 30.704 88.728C30.752 88.984 30.776 89.584 30.776 90.528C30.76 91.072 30.752 91.504 30.752 91.824C30.752 92 30.752 92.248 30.752 92.568C30.752 93.72 30.744 94.456 30.728 94.776C30.68 95.208 30.584 95.472 30.44 95.568C30.328 95.632 30.072 95.656 29.672 95.64C29.576 95.624 29.496 95.616 29.432 95.616C29.224 95.6 29.008 95.592 28.784 95.592C28.704 95.608 28.672 95.664 28.688 95.76C28.72 95.856 28.776 95.904 28.856 95.904C29.112 95.904 29.4 96.048 29.72 96.336C29.896 96.512 30.016 96.688 30.08 96.864C30.16 97.056 30.232 97.36 30.296 97.776C30.328 97.92 30.424 97.992 30.584 97.992C30.744 97.992 31.056 97.912 31.52 97.752C31.536 97.752 31.56 97.744 31.592 97.728C31.96 97.616 32.216 97.568 32.36 97.584C32.408 97.584 32.4 97.616 32.336 97.68C32.272 97.728 32.24 97.792 32.24 97.872C32.256 97.968 32.304 98.016 32.384 98.016C32.608 98.016 33.144 97.72 33.992 97.128C34.84 96.552 35.576 95.976 36.2 95.4C36.696 94.92 37.016 94.672 37.16 94.656C37.32 94.64 37.552 94.816 37.856 95.184C38.56 96.096 39.392 96.912 40.352 97.632C40.624 97.84 40.792 97.944 40.856 97.944C40.92 97.96 40.984 97.888 41.048 97.728C41.224 97.392 41.464 97.08 41.768 96.792C42.088 96.52 42.384 96.352 42.656 96.288C43.088 96.176 43.08 96.016 42.632 95.808C41.96 95.504 41.2 95.056 40.352 94.464C39.52 93.856 38.992 93.392 38.768 93.072C38.656 92.912 38.616 92.76 38.648 92.616C38.68 92.456 38.816 92.168 39.056 91.752C39.872 90.36 40.536 88.768 41.048 86.976C41.208 86.416 41.328 86.064 41.408 85.92C41.504 85.76 41.656 85.632 41.864 85.536C42.12 85.408 42.24 85.288 42.224 85.176C42.208 85.064 42.024 84.832 41.672 84.48C41.064 83.856 40.656 83.52 40.448 83.472C40.256 83.408 39.984 83.552 39.632 83.904C39.296 84.256 39.024 84.48 38.816 84.576C38.608 84.656 38.392 84.648 38.168 84.552C38.008 84.472 37.912 84.352 37.88 84.192C37.848 84.032 37.824 83.592 37.808 82.872C37.808 82.76 37.808 82.6 37.808 82.392C37.792 81.816 37.808 81.448 37.856 81.288C37.92 81.08 38.08 80.952 38.336 80.904C38.528 80.856 38.984 80.832 39.704 80.832C39.96 80.832 40.16 80.832 40.304 80.832C41.488 80.816 42.176 80.8 42.368 80.784C42.576 80.752 42.696 80.664 42.728 80.52C42.76 80.408 42.64 80.2 42.368 79.896C42.112 79.576 41.768 79.248 41.336 78.912C41.016 78.656 40.8 78.544 40.688 78.576C40.592 78.608 40.392 78.84 40.088 79.272C39.784 79.704 39.424 80 39.008 80.16C38.608 80.304 38.28 80.256 38.024 80.016C37.848 79.84 37.768 79.312 37.784 78.432C37.816 77.552 37.928 77.056 38.12 76.944C38.616 76.688 38.048 76.352 36.416 75.936C36.384 75.92 36.328 75.904 36.248 75.888C35.848 75.792 35.616 75.76 35.552 75.792C35.504 75.808 35.496 75.944 35.528 76.2C35.528 76.248 35.528 76.28 35.528 76.296C35.656 77.336 35.72 78.936 35.72 81.096C35.72 81.304 35.72 81.584 35.72 81.936C35.736 82.992 35.72 83.664 35.672 83.952C35.608 84.336 35.432 84.56 35.144 84.624C34.936 84.672 34.44 84.656 33.656 84.576C33.416 84.56 33.224 84.544 33.08 84.528C33.064 84.528 33.032 84.528 32.984 84.528C32.68 84.496 32.512 84.496 32.48 84.528C32.448 84.56 32.488 84.688 32.6 84.912C32.616 84.944 32.632 84.968 32.648 84.984C32.664 85 32.68 85.024 32.696 85.056C32.824 85.312 32.912 85.456 32.96 85.488C33.008 85.52 33.08 85.504 33.176 85.44C33.496 85.248 33.768 85.216 33.992 85.344C34.216 85.456 34.36 85.712 34.424 86.112C34.744 88.256 35.232 90.144 35.888 91.776C36.16 92.448 36.24 92.952 36.128 93.288C36.032 93.608 35.608 94.248 34.856 95.208C34.104 96.152 33.512 96.752 33.08 97.008C32.648 97.28 32.512 97.128 32.672 96.552C32.72 96.424 32.752 95.096 32.768 92.568C32.768 92.488 32.768 92.36 32.768 92.184C32.784 89.896 32.816 88.712 32.864 88.632C32.992 88.424 33.144 88.288 33.32 88.224C33.624 88.112 33.712 87.952 33.584 87.744C33.472 87.52 33.104 87.16 32.48 86.664C32.032 86.312 31.744 86.128 31.616 86.112C31.488 86.096 31.328 86.224 31.136 86.496C31.104 86.544 31.056 86.616 30.992 86.712C30.768 87.064 30.52 87.272 30.248 87.336C29.992 87.384 29.192 87.408 27.848 87.408C27.544 87.408 27.304 87.408 27.128 87.408C26.952 87.408 26.712 87.408 26.408 87.408C25.128 87.408 24.344 87.392 24.056 87.36C23.768 87.328 23.384 87.2 22.904 86.976C22.776 86.928 22.68 86.888 22.616 86.856C22.008 86.584 21.688 86.448 21.656 86.448C21.608 86.448 21.584 86.496 21.584 86.592C21.584 86.672 21.608 86.92 21.656 87.336C21.736 88.216 21.784 89.712 21.8 91.824C21.816 93.936 21.792 95.464 21.728 96.408C21.68 96.984 21.664 97.36 21.68 97.536C21.696 97.68 21.744 97.792 21.824 97.872ZM24.992 95.28C25.136 95.408 25.368 95.384 25.688 95.208C26.024 95.016 26.192 94.816 26.192 94.608C26.192 94.32 26.256 94.128 26.384 94.032C26.512 93.936 26.776 93.888 27.176 93.888C27.56 93.888 27.816 93.936 27.944 94.032C28.088 94.128 28.16 94.304 28.16 94.56C28.16 94.768 28.216 94.888 28.328 94.92C28.44 94.936 28.648 94.88 28.952 94.752C28.968 94.736 28.992 94.72 29.024 94.704C29.28 94.592 29.424 94.464 29.456 94.32C29.488 94.176 29.488 93.728 29.456 92.976C29.456 92.88 29.456 92.808 29.456 92.76C29.424 91.72 29.424 91.032 29.456 90.696C29.488 90.36 29.576 90.16 29.72 90.096C29.96 89.984 29.784 89.688 29.192 89.208L29.168 89.184C28.944 88.992 28.8 88.888 28.736 88.872C28.688 88.856 28.608 88.904 28.496 89.016L28.448 89.064C27.76 89.704 26.728 89.696 25.352 89.04C25.048 88.896 24.872 88.84 24.824 88.872C24.776 88.888 24.768 89.032 24.8 89.304C24.896 90.12 24.944 91.488 24.944 93.408C24.944 94.592 24.96 95.216 24.992 95.28ZM27.176 93.216C26.712 93.216 26.432 93.144 26.336 93C26.24 92.84 26.192 92.4 26.192 91.68C26.192 90.96 26.24 90.528 26.336 90.384C26.432 90.224 26.712 90.144 27.176 90.144C27.64 90.144 27.92 90.224 28.016 90.384C28.112 90.528 28.16 90.96 28.16 91.68C28.16 92.272 28.144 92.648 28.112 92.808C28.08 92.952 27.984 93.056 27.824 93.12C27.712 93.184 27.496 93.216 27.176 93.216ZM37.376 90.84C37.104 91.032 36.712 90.656 36.2 89.712C35.704 88.768 35.272 87.608 34.904 86.232C34.808 85.864 34.776 85.632 34.808 85.536C34.84 85.408 35.008 85.328 35.312 85.296C35.536 85.264 36.064 85.248 36.896 85.248C37.664 85.248 38.152 85.256 38.36 85.272C38.664 85.304 38.848 85.368 38.912 85.464C38.96 85.528 38.968 85.696 38.936 85.968C38.904 86.496 38.68 87.408 38.264 88.704C37.848 90 37.552 90.712 37.376 90.84ZM23.312 86.112C23.472 86.272 23.808 86.304 24.32 86.208C24.832 86.096 25.12 85.936 25.184 85.728C25.28 85.472 25.416 85.32 25.592 85.272C25.768 85.224 26.28 85.2 27.128 85.2C27.976 85.2 28.512 85.24 28.736 85.32C28.96 85.384 29.072 85.544 29.072 85.8C29.072 86.088 29.472 86.136 30.272 85.944C30.688 85.832 30.944 85.712 31.04 85.584C31.136 85.44 31.168 85.136 31.136 84.672C31.072 83.536 31.064 82.8 31.112 82.464C31.176 82.112 31.36 81.856 31.664 81.696C32 81.504 31.624 80.992 30.536 80.16C30.28 79.952 30.096 79.864 29.984 79.896C29.888 79.928 29.712 80.104 29.456 80.424C29.088 80.888 28.376 81.144 27.32 81.192C26.264 81.24 25.248 81.056 24.272 80.64C24.24 80.624 24.2 80.608 24.152 80.592C23.624 80.368 23.32 80.256 23.24 80.256C23.16 80.272 23.136 80.416 23.168 80.688C23.168 80.72 23.168 80.744 23.168 80.76C23.2 81.048 23.216 81.808 23.216 83.04C23.232 84.272 23.224 85.08 23.192 85.464C23.176 85.72 23.176 85.872 23.192 85.92C23.208 85.968 23.248 86.032 23.312 86.112ZM27.152 84.552C26.176 84.552 25.632 84.512 25.52 84.432C25.296 84.304 25.192 83.88 25.208 83.16C25.224 82.424 25.344 82 25.568 81.888C25.696 81.808 26.216 81.768 27.128 81.768C28.056 81.768 28.576 81.808 28.688 81.888C28.944 82 29.08 82.408 29.096 83.112C29.128 83.816 29.024 84.248 28.784 84.408C28.672 84.488 28.128 84.536 27.152 84.552ZM21.776 79.752C21.824 79.8 21.904 79.816 22.016 79.8C22.736 79.672 24.072 79.576 26.024 79.512C27.992 79.448 29.224 79.464 29.72 79.56C29.96 79.592 30.152 79.6 30.296 79.584C30.44 79.552 30.952 79.52 31.832 79.488C32.808 79.472 33.344 79.4 33.44 79.272C33.536 79.128 33.304 78.784 32.744 78.24C32.104 77.632 31.688 77.312 31.496 77.28C31.304 77.248 31.048 77.464 30.728 77.928C30.424 78.36 30.048 78.656 29.6 78.816C29.168 78.96 28.768 78.936 28.4 78.744C28.192 78.632 28.088 78.336 28.088 77.856C28.088 77.376 28.2 77.048 28.424 76.872C28.616 76.728 28.6 76.592 28.376 76.464C28.152 76.32 27.632 76.136 26.816 75.912C26.368 75.784 26.104 75.728 26.024 75.744C25.96 75.76 25.936 75.864 25.952 76.056C26.048 76.76 26.072 77.368 26.024 77.88C25.992 78.376 25.904 78.664 25.76 78.744C25.664 78.792 25.136 78.808 24.176 78.792C23.232 78.792 22.48 78.768 21.92 78.72C21.888 78.72 21.84 78.72 21.776 78.72C21.472 78.688 21.312 78.688 21.296 78.72C21.28 78.736 21.336 78.896 21.464 79.2C21.592 79.488 21.696 79.672 21.776 79.752ZM57.944 98.016C57.992 98.064 58.048 98.072 58.112 98.04C58.192 98.04 58.312 98.024 58.472 97.992C59.384 97.864 60.024 97.6 60.392 97.2C60.76 96.8 60.952 96.128 60.968 95.184C61 94.64 61.032 94.32 61.064 94.224L61.088 94.2C61.136 94.072 61.312 94 61.616 93.984C61.936 93.968 62.992 93.952 64.784 93.936C65.184 93.936 65.488 93.936 65.696 93.936C67.92 93.92 69.224 93.904 69.608 93.888C70.008 93.872 70.248 93.8 70.328 93.672C70.456 93.464 70.048 92.992 69.104 92.256C68.816 92.032 68.64 91.864 68.576 91.752C68.528 91.624 68.576 91.504 68.72 91.392C69.088 91.152 68.616 90.592 67.304 89.712C67 89.504 66.792 89.416 66.68 89.448C66.568 89.48 66.36 89.696 66.056 90.096C66.04 90.112 66.016 90.144 65.984 90.192C65.712 90.528 65.472 90.728 65.264 90.792C65.056 90.84 64.472 90.864 63.512 90.864C63.432 90.864 63.368 90.864 63.32 90.864C62.472 90.864 61.928 90.856 61.688 90.84C61.368 90.808 61.168 90.728 61.088 90.6C61.024 90.504 60.992 90.296 60.992 89.976C60.992 89.592 61.064 89.352 61.208 89.256C61.352 89.16 61.752 89.072 62.408 88.992C62.648 88.976 63.072 88.928 63.68 88.848C63.856 88.832 63.984 88.816 64.064 88.8C64.768 88.704 65.344 88.68 65.792 88.728C66.064 88.76 66.2 88.728 66.2 88.632C66.2 88.536 66.064 88.336 65.792 88.032C65.072 87.136 64.64 86.704 64.496 86.736C64.48 86.736 64.424 86.752 64.328 86.784C64.056 86.864 63.84 86.928 63.68 86.976C62.496 87.296 61.44 87.544 60.512 87.72C59.6 87.88 59.096 87.92 59 87.84C58.968 87.808 58.944 87.752 58.928 87.672C58.928 87.592 58.944 87.544 58.976 87.528C59.008 87.512 59.016 87.272 59 86.808C58.984 86.36 58.992 86.048 59.024 85.872C59.072 85.696 59.184 85.544 59.36 85.416L59.384 85.392L59.552 85.248C59.552 85.2 59.496 85.136 59.384 85.056C59.208 84.976 59.184 84.888 59.312 84.792C59.44 84.696 59.664 84.64 59.984 84.624C60.448 84.592 60.696 84.52 60.728 84.408C60.776 84.28 60.624 84.072 60.272 83.784C60.24 83.752 60.192 83.712 60.128 83.664C59.728 83.344 59.488 83.104 59.408 82.944C59.344 82.768 59.312 82.344 59.312 81.672C59.312 81.576 59.312 81.504 59.312 81.456C59.312 80.72 59.328 80.272 59.36 80.112C59.408 79.936 59.52 79.784 59.696 79.656C59.856 79.544 59.928 79.448 59.912 79.368C59.912 79.272 59.832 79.136 59.672 78.96C59.336 78.592 59.168 78.344 59.168 78.216C59.184 78.088 59.368 78 59.72 77.952C60.6 77.824 60.392 77.304 59.096 76.392C58.76 76.152 58.536 76.048 58.424 76.08C58.328 76.096 58.128 76.288 57.824 76.656C57.568 76.976 57.288 77.192 56.984 77.304C56.696 77.4 56.416 77.384 56.144 77.256C55.968 77.176 55.872 77.048 55.856 76.872C55.84 76.68 55.912 76.528 56.072 76.416C56.28 76.272 56.256 76.152 56 76.056C55.76 75.944 55.232 75.832 54.416 75.72C54.384 75.72 54.344 75.712 54.296 75.696C54.056 75.68 53.912 75.696 53.864 75.744C53.832 75.792 53.816 75.976 53.816 76.296C53.816 76.328 53.816 76.36 53.816 76.392V76.416C53.816 76.864 53.752 77.128 53.624 77.208C53.512 77.272 53.096 77.304 52.376 77.304C51.912 77.304 51.344 77.288 50.672 77.256C50.032 77.224 49.664 77.192 49.568 77.16C49.424 77.128 49.408 77.264 49.52 77.568C49.632 77.856 49.784 78.088 49.976 78.264C50.376 78.616 50.488 80.12 50.312 82.776C50.28 83.304 50.232 83.616 50.168 83.712C50.104 83.792 49.904 83.824 49.568 83.808C49.312 83.808 49.176 83.832 49.16 83.88C49.144 83.928 49.224 84.112 49.4 84.432C49.528 84.656 49.608 84.792 49.64 84.84C49.672 84.872 49.744 84.888 49.856 84.888C50.16 84.888 50.344 84.992 50.408 85.2C50.472 85.392 50.504 85.936 50.504 86.832C50.504 87.008 50.504 87.232 50.504 87.504C50.52 88.112 50.56 88.432 50.624 88.464C50.848 88.576 51.192 88.56 51.656 88.416C52.12 88.272 52.352 88.104 52.352 87.912C52.352 87.848 52.392 87.776 52.472 87.696C52.568 87.6 52.664 87.536 52.76 87.504C52.904 87.44 53.6 87.424 54.848 87.456C56.112 87.472 56.8 87.512 56.912 87.576C57.088 87.656 57.2 87.768 57.248 87.912C57.296 88.056 57.256 88.168 57.128 88.248C56.872 88.424 55.344 88.656 52.544 88.944C52.256 88.96 52.072 88.992 51.992 89.04C51.912 89.088 51.888 89.16 51.92 89.256C52 89.432 53.56 89.472 56.6 89.376C57.832 89.344 58.488 89.352 58.568 89.4C58.776 89.528 58.872 89.768 58.856 90.12C58.856 90.456 58.744 90.68 58.52 90.792C58.36 90.872 57.288 90.904 55.304 90.888C53.336 90.856 51.968 90.8 51.2 90.72C50.928 90.688 50.776 90.696 50.744 90.744C50.728 90.792 50.8 90.968 50.96 91.272C50.976 91.288 50.992 91.32 51.008 91.368C51.12 91.608 51.208 91.744 51.272 91.776C51.352 91.808 51.56 91.8 51.896 91.752C51.976 91.736 52.04 91.728 52.088 91.728C53.016 91.616 54.288 91.552 55.904 91.536C57.536 91.504 58.432 91.544 58.592 91.656C58.8 91.784 58.888 92.048 58.856 92.448C58.84 92.832 58.72 93.08 58.496 93.192C58.352 93.272 56.936 93.296 54.248 93.264C51.56 93.232 49.944 93.176 49.4 93.096C49.272 93.064 49.208 93.088 49.208 93.168C49.208 93.248 49.272 93.416 49.4 93.672C49.416 93.704 49.44 93.752 49.472 93.816C49.584 94.024 49.672 94.144 49.736 94.176C49.816 94.208 50.016 94.2 50.336 94.152C50.432 94.136 50.504 94.128 50.552 94.128C51.608 94 53.248 93.936 55.472 93.936C55.536 93.936 55.616 93.936 55.712 93.936C56.912 93.936 57.664 93.944 57.968 93.96C58.416 93.992 58.688 94.072 58.784 94.2C58.864 94.28 58.888 94.48 58.856 94.8C58.856 94.848 58.856 94.88 58.856 94.896C58.84 95.2 58.792 95.4 58.712 95.496C58.616 95.608 58.4 95.672 58.064 95.688C57.808 95.704 57.28 95.688 56.48 95.64C55.568 95.576 55.104 95.568 55.088 95.616C55.008 95.728 55.168 95.832 55.568 95.928C56.272 96.056 56.8 96.256 57.152 96.528C57.504 96.816 57.728 97.208 57.824 97.704C57.856 97.912 57.896 98.016 57.944 98.016ZM64.04 93.264C62.36 93.264 61.456 93.232 61.328 93.168C61.104 93.056 60.984 92.8 60.968 92.4C60.968 92 61.072 91.736 61.28 91.608C61.392 91.544 62.448 91.512 64.448 91.512C66.464 91.528 67.536 91.568 67.664 91.632C67.84 91.712 67.808 91.952 67.568 92.352C67.344 92.752 67.08 93.024 66.776 93.168C66.632 93.232 65.72 93.264 64.04 93.264ZM68.648 87.72C68.936 87.784 69.104 87.816 69.152 87.816C69.2 87.8 69.256 87.704 69.32 87.528C69.56 86.872 69.912 86.424 70.376 86.184C70.712 86.008 70.688 85.88 70.304 85.8C68.816 85.576 67.824 85.4 67.328 85.272C66.736 85.112 66.432 84.928 66.416 84.72C66.416 84.528 66.632 84.216 67.064 83.784C67.496 83.352 67.808 83.024 68 82.8C68.176 82.624 68.36 82.504 68.552 82.44C68.776 82.376 68.888 82.304 68.888 82.224C68.888 82.128 68.776 81.96 68.552 81.72C68.248 81.416 68.12 81.2 68.168 81.072C68.216 80.944 68.456 80.848 68.888 80.784C69.528 80.704 69.952 80.52 70.16 80.232C70.384 79.944 70.336 79.624 70.016 79.272C69.808 79.048 69.688 78.76 69.656 78.408C69.608 77.784 69.472 77.768 69.248 78.36C69.104 78.744 68.856 79.016 68.504 79.176C68.152 79.336 67.816 79.328 67.496 79.152C67.256 79.024 67.152 78.76 67.184 78.36C67.216 77.96 67.36 77.704 67.616 77.592C67.808 77.512 67.872 77.4 67.808 77.256C67.744 77.112 67.512 76.84 67.112 76.44C66.696 76.024 66.424 75.808 66.296 75.792C66.184 75.776 65.992 75.928 65.72 76.248C65.352 76.712 64.936 76.944 64.472 76.944C63.992 76.96 63.28 76.744 62.336 76.296C62.272 76.264 62.184 76.224 62.072 76.176C61.752 76.016 61.56 75.968 61.496 76.032C61.448 76.096 61.416 76.376 61.4 76.872C61.4 77.064 61.4 77.216 61.4 77.328C61.384 78.336 61.28 79.12 61.088 79.68C60.896 80.224 60.56 80.704 60.08 81.12C59.904 81.264 59.824 81.384 59.84 81.48C59.856 81.576 59.96 81.608 60.152 81.576C60.36 81.528 60.568 81.72 60.776 82.152C60.952 82.472 61.088 82.568 61.184 82.44C61.296 82.312 61.456 82.312 61.664 82.44C61.872 82.552 62.056 82.76 62.216 83.064C62.344 83.32 62.528 83.608 62.768 83.928C63.12 84.44 63.136 84.864 62.816 85.2C62.496 85.536 61.688 85.928 60.392 86.376C59.96 86.52 59.744 86.632 59.744 86.712C59.744 86.888 59.864 86.952 60.104 86.904C61.192 86.728 62.288 86.432 63.392 86.016C63.824 85.856 64.112 85.784 64.256 85.8C64.416 85.8 64.664 85.904 65 86.112C65.96 86.736 67.128 87.256 68.504 87.672C68.536 87.688 68.584 87.704 68.648 87.72ZM56.96 86.712C56.64 86.936 56.36 86.952 56.12 86.76C55.88 86.552 55.76 86.2 55.76 85.704C55.76 85.208 55.856 84.872 56.048 84.696C56.256 84.52 56.528 84.52 56.864 84.696C57.072 84.808 57.184 85.136 57.2 85.68C57.216 86.224 57.136 86.568 56.96 86.712ZM53.528 86.76C53.288 86.872 53.056 86.888 52.832 86.808C52.624 86.712 52.496 86.576 52.448 86.4C52.416 86.224 52.504 86.064 52.712 85.92C52.872 85.824 52.928 85.736 52.88 85.656C52.848 85.56 52.696 85.448 52.424 85.32C51.528 84.872 51.656 84.648 52.808 84.648C53.32 84.648 53.632 84.72 53.744 84.864C53.856 84.992 53.904 85.328 53.888 85.872C53.872 86.368 53.752 86.664 53.528 86.76ZM57.608 83.88C57.144 84.072 56.688 84.072 56.24 83.88C55.792 83.672 55.68 83.416 55.904 83.112C56.048 82.952 56.32 82.888 56.72 82.92C57.12 82.936 57.36 83.032 57.44 83.208C57.488 83.288 57.552 83.344 57.632 83.376C57.776 83.392 57.848 83.464 57.848 83.592C57.848 83.72 57.768 83.816 57.608 83.88ZM53.576 83.856C53.4 83.968 53.056 84.008 52.544 83.976C52.032 83.928 51.76 83.84 51.728 83.712C51.712 83.632 51.816 83.496 52.04 83.304C52.264 83.096 52.44 82.976 52.568 82.944C52.856 82.864 53.128 82.872 53.384 82.968C53.64 83.064 53.792 83.2 53.84 83.376C53.888 83.552 53.8 83.712 53.576 83.856ZM64.736 83.712C64.56 83.84 64.384 83.888 64.208 83.856C64.048 83.824 63.84 83.704 63.584 83.496C62.912 83 62.712 82.64 62.984 82.416C63.048 82.352 63.424 82.32 64.112 82.32C64.816 82.304 65.224 82.32 65.336 82.368C65.512 82.464 65.536 82.664 65.408 82.968C65.28 83.256 65.056 83.504 64.736 83.712ZM57.224 82.056C57.048 82.248 56.768 82.304 56.384 82.224C56 82.144 55.808 81.992 55.808 81.768C55.808 81.4 56.072 81.216 56.6 81.216C56.952 81.216 57.192 81.312 57.32 81.504C57.464 81.68 57.432 81.864 57.224 82.056ZM53.552 82.152C53.376 82.232 53.136 82.256 52.832 82.224C52.544 82.176 52.368 82.096 52.304 81.984C52.176 81.728 52.248 81.512 52.52 81.336C52.792 81.16 53.096 81.136 53.432 81.264C53.656 81.344 53.776 81.488 53.792 81.696C53.824 81.904 53.744 82.056 53.552 82.152ZM64.376 81.624C63.544 81.624 62.872 81.616 62.36 81.6C61.816 81.568 61.488 81.504 61.376 81.408C61.264 81.296 61.336 81.128 61.592 80.904C62.136 80.456 62.528 80.048 62.768 79.68C63.008 79.296 63.176 78.84 63.272 78.312C63.336 77.976 63.432 77.76 63.56 77.664C63.704 77.568 63.984 77.52 64.4 77.52C64.896 77.52 65.184 77.592 65.264 77.736C65.36 77.864 65.424 78.296 65.456 79.032C65.472 79.672 65.504 80.08 65.552 80.256C65.616 80.432 65.76 80.584 65.984 80.712C66.256 80.856 66.376 81.024 66.344 81.216C66.312 81.392 66.136 81.52 65.816 81.6C65.704 81.616 65.224 81.624 64.376 81.624ZM57.08 80.52C56.872 80.6 56.64 80.616 56.384 80.568C56.128 80.52 55.96 80.432 55.88 80.304C55.752 80.048 55.808 79.848 56.048 79.704C56.304 79.544 56.632 79.52 57.032 79.632C57.256 79.696 57.368 79.84 57.368 80.064C57.384 80.288 57.288 80.44 57.08 80.52ZM53.648 80.4C53.536 80.544 53.32 80.608 53 80.592C52.696 80.592 52.48 80.52 52.352 80.376C52.192 80.184 52.184 80.008 52.328 79.848C52.472 79.672 52.704 79.584 53.024 79.584C53.36 79.584 53.592 79.672 53.72 79.848C53.848 80.024 53.824 80.208 53.648 80.4ZM57.08 78.864C56.728 78.992 56.408 78.984 56.12 78.84C55.832 78.68 55.752 78.48 55.88 78.24C55.976 78.048 56.248 77.952 56.696 77.952C57.16 77.936 57.44 78.016 57.536 78.192C57.584 78.288 57.56 78.408 57.464 78.552C57.368 78.696 57.24 78.8 57.08 78.864ZM53.552 78.84C53.28 78.984 52.848 78.984 52.256 78.84C51.68 78.68 51.392 78.496 51.392 78.288C51.392 78.16 51.664 78.064 52.208 78C52.752 77.92 53.16 77.92 53.432 78C53.64 78.08 53.76 78.216 53.792 78.408C53.824 78.6 53.744 78.744 53.552 78.84ZM95.504 97.08C96.368 97.784 96.8 97.984 96.8 97.68C96.8 97.424 96.984 97.088 97.352 96.672C97.72 96.256 98.088 95.96 98.456 95.784C98.728 95.656 98.856 95.552 98.84 95.472C98.84 95.376 98.688 95.264 98.384 95.136C97.104 94.624 95.864 93.872 94.664 92.88C94.28 92.56 94.064 92.312 94.016 92.136C93.984 91.944 94.08 91.648 94.304 91.248C95.28 89.584 96.04 87.68 96.584 85.536C96.728 84.96 96.848 84.584 96.944 84.408C97.04 84.232 97.192 84.12 97.4 84.072C97.688 83.992 97.8 83.864 97.736 83.688C97.672 83.496 97.392 83.168 96.896 82.704C96.4 82.208 96.08 81.952 95.936 81.936C95.792 81.904 95.544 82.064 95.192 82.416C95.144 82.464 95.088 82.52 95.024 82.584C94.768 82.856 94.528 83.016 94.304 83.064C94.08 83.112 93.432 83.136 92.36 83.136C92.056 83.136 91.816 83.136 91.64 83.136C91.416 83.136 91.112 83.136 90.728 83.136C89.912 83.152 89.392 83.136 89.168 83.088C88.864 83.04 88.672 82.896 88.592 82.656C88.544 82.496 88.528 82.096 88.544 81.456C88.544 81.168 88.544 80.944 88.544 80.784C88.544 80.592 88.536 80.328 88.52 79.992C88.504 79.416 88.536 79.048 88.616 78.888C88.728 78.664 89.008 78.528 89.456 78.48C89.776 78.448 90.552 78.432 91.784 78.432C92.472 78.432 93.024 78.432 93.44 78.432C95.2 78.416 96.32 78.408 96.8 78.408C97.456 78.392 97.872 78.368 98.048 78.336C98.16 78.304 98.232 78.232 98.264 78.12C98.344 77.864 97.904 77.36 96.944 76.608C96.528 76.272 96.264 76.112 96.152 76.128C96.04 76.128 95.832 76.344 95.528 76.776L95.504 76.824C95.472 76.872 95.432 76.928 95.384 76.992C95.144 77.376 94.896 77.6 94.64 77.664C94.384 77.728 93.64 77.76 92.408 77.76C92.136 77.76 91.928 77.76 91.784 77.76C91.64 77.76 91.44 77.76 91.184 77.76C90.064 77.76 89.36 77.744 89.072 77.712C88.8 77.664 88.392 77.528 87.848 77.304C87.704 77.24 87.584 77.192 87.488 77.16C87.44 77.144 87.368 77.112 87.272 77.064C86.84 76.888 86.592 76.816 86.528 76.848C86.464 76.864 86.44 77.024 86.456 77.328C86.472 77.392 86.48 77.44 86.48 77.472C86.528 78.064 86.552 78.808 86.552 79.704C86.568 80.6 86.552 81.112 86.504 81.24C86.44 81.416 86.352 81.48 86.24 81.432C86.144 81.384 85.888 81.16 85.472 80.76L85.448 80.736C84.952 80.256 84.632 80.016 84.488 80.016C84.36 80 84.144 80.216 83.84 80.664C83.504 81.128 83.256 81.36 83.096 81.36C82.872 81.36 82.76 80.68 82.76 79.32C82.76 77.944 82.88 77.176 83.12 77.016C83.392 76.84 83.36 76.664 83.024 76.488C82.704 76.312 82.032 76.096 81.008 75.84C80.752 75.76 80.6 75.744 80.552 75.792C80.52 75.824 80.52 75.992 80.552 76.296C80.728 77.64 80.8 78.816 80.768 79.824C80.752 80.816 80.64 81.368 80.432 81.48C80.32 81.544 79.832 81.568 78.968 81.552C78.12 81.52 77.536 81.464 77.216 81.384C77.04 81.336 77.064 81.536 77.288 81.984L77.312 82.008C77.456 82.28 77.544 82.432 77.576 82.464C77.624 82.496 77.712 82.488 77.84 82.44H77.888C78.272 82.344 78.688 82.28 79.136 82.248C79.584 82.2 79.88 82.208 80.024 82.272C80.168 82.336 80.248 82.464 80.264 82.656C80.28 82.832 80.248 83.136 80.168 83.568C79.48 86.848 78.48 89.544 77.168 91.656C77.008 91.928 76.92 92.104 76.904 92.184C76.888 92.248 76.912 92.312 76.976 92.376C77.088 92.472 77.424 92.208 77.984 91.584C78.56 90.944 79.136 90.192 79.712 89.328C80.032 88.832 80.256 88.536 80.384 88.44C80.528 88.344 80.632 88.4 80.696 88.608C80.76 88.8 80.784 89.808 80.768 91.632C80.736 93.44 80.68 95.008 80.6 96.336C80.552 96.944 80.528 97.336 80.528 97.512C80.528 97.592 80.576 97.68 80.672 97.776C80.768 97.872 80.864 97.936 80.96 97.968C81.2 98.032 81.52 98 81.92 97.872C82.336 97.744 82.632 97.584 82.808 97.392C82.888 97.328 82.928 97.232 82.928 97.104C82.928 96.976 82.912 96.56 82.88 95.856C82.832 94.88 82.8 93.008 82.784 90.24C82.784 87.52 82.8 86.088 82.832 85.944C82.912 85.736 83.008 85.664 83.12 85.728C83.232 85.792 83.376 86.008 83.552 86.376C83.664 86.6 83.784 86.92 83.912 87.336C84.056 87.736 84.128 87.984 84.128 88.08C84.128 88.352 84.304 88.544 84.656 88.656C85.024 88.752 85.32 88.696 85.544 88.488C86.024 88.04 86.064 87.432 85.664 86.664C85.264 85.896 84.56 85.232 83.552 84.672C83.2 84.48 82.984 84.312 82.904 84.168C82.824 84.024 82.784 83.736 82.784 83.304C82.784 83.288 82.784 83.264 82.784 83.232C82.784 82.736 82.848 82.448 82.976 82.368C83.12 82.288 83.608 82.24 84.44 82.224C84.488 82.224 84.528 82.224 84.56 82.224C84.592 82.224 84.632 82.224 84.68 82.224C85.56 82.208 86.048 82.168 86.144 82.104C86.256 82.04 86.336 82.024 86.384 82.056C86.432 82.088 86.48 82.184 86.528 82.344C86.56 82.472 86.568 83.208 86.552 84.552C86.536 85.896 86.512 86.712 86.48 87C86.448 87.32 86.416 87.72 86.384 88.2C86.288 89.848 86.016 91.48 85.568 93.096C85.136 94.712 84.576 96.12 83.888 97.32C83.744 97.56 83.664 97.712 83.648 97.776C83.648 97.84 83.688 97.888 83.768 97.92C83.912 98 84.272 97.68 84.848 96.96C85.44 96.256 85.944 95.528 86.36 94.776C87.016 93.576 87.512 92.248 87.848 90.792C88.184 89.336 88.408 87.552 88.52 85.44V85.392C88.552 84.736 88.584 84.344 88.616 84.216C88.664 84.072 88.76 83.976 88.904 83.928C89.08 83.864 89.216 83.904 89.312 84.048C89.408 84.192 89.488 84.48 89.552 84.912C89.872 87.136 90.416 89.216 91.184 91.152C91.44 91.744 91.544 92.152 91.496 92.376C91.448 92.584 91.168 93.008 90.656 93.648C89.472 95.12 88.072 96.344 86.456 97.32L86.432 97.344C86.192 97.488 86.048 97.576 86 97.608C85.968 97.656 85.968 97.712 86 97.776C86.128 98 86.864 97.728 88.208 96.96C89.568 96.208 90.64 95.472 91.424 94.752C91.952 94.256 92.296 94.008 92.456 94.008C92.616 94.024 92.88 94.28 93.248 94.776C93.888 95.608 94.64 96.376 95.504 97.08ZM92.792 90C92.52 90.304 92.112 89.968 91.568 88.992C91.04 88 90.576 86.728 90.176 85.176C90.176 85.144 90.168 85.104 90.152 85.056C90.024 84.592 89.976 84.296 90.008 84.168C90.04 84.008 90.2 83.904 90.488 83.856C90.712 83.824 91.232 83.808 92.048 83.808C92.16 83.808 92.24 83.808 92.288 83.808C93.344 83.808 93.968 83.824 94.16 83.856C94.352 83.888 94.48 83.992 94.544 84.168C94.64 84.472 94.44 85.448 93.944 87.096C93.464 88.728 93.08 89.696 92.792 90ZM112.136 97.824C112.232 98.112 113.12 97.904 114.8 97.2C116.48 96.496 117.864 95.752 118.952 94.968C118.968 94.952 119 94.928 119.048 94.896C119.464 94.592 119.744 94.456 119.888 94.488C120.048 94.52 120.376 94.792 120.872 95.304C120.92 95.352 120.952 95.384 120.968 95.4C121.832 96.28 122.816 97.056 123.92 97.728C124.192 97.904 124.36 97.992 124.424 97.992C124.472 97.992 124.528 97.928 124.592 97.8C124.944 97.032 125.496 96.504 126.248 96.216C126.488 96.136 126.584 96.064 126.536 96C126.488 95.92 126.256 95.8 125.84 95.64C125.088 95.352 124.24 94.928 123.296 94.368C122.368 93.808 121.816 93.392 121.64 93.12C121.528 92.96 121.504 92.808 121.568 92.664C121.632 92.504 121.856 92.16 122.24 91.632C123.136 90.416 123.92 88.872 124.592 87C124.752 86.584 124.984 86.336 125.288 86.256C125.592 86.176 125.72 86.056 125.672 85.896C125.624 85.72 125.352 85.392 124.856 84.912C124.312 84.384 123.96 84.104 123.8 84.072C123.656 84.04 123.416 84.2 123.08 84.552C122.776 84.856 122.544 85.056 122.384 85.152C122.24 85.232 122.064 85.272 121.856 85.272C121.52 85.272 121.32 85.176 121.256 84.984C121.192 84.792 121.16 84.184 121.16 83.16C121.16 83.016 121.16 82.824 121.16 82.584C121.144 82.024 121.16 81.664 121.208 81.504C121.272 81.296 121.44 81.168 121.712 81.12C121.92 81.088 122.384 81.072 123.104 81.072C123.392 81.072 123.624 81.072 123.8 81.072C125.352 81.072 126.184 80.968 126.296 80.76C126.408 80.536 125.904 79.992 124.784 79.128C124.464 78.888 124.256 78.776 124.16 78.792C124.064 78.808 123.888 78.984 123.632 79.32L123.608 79.368C123.256 79.88 123.008 80.192 122.864 80.304C122.72 80.4 122.464 80.448 122.096 80.448C121.648 80.448 121.376 80.376 121.28 80.232C121.2 80.072 121.16 79.568 121.16 78.72C121.16 78.016 121.176 77.56 121.208 77.352C121.256 77.144 121.344 77 121.472 76.92C121.712 76.776 121.688 76.624 121.4 76.464C121.112 76.304 120.512 76.112 119.6 75.888C119.152 75.776 118.896 75.728 118.832 75.744C118.768 75.744 118.744 75.824 118.76 75.984C118.92 77.2 118.984 78.208 118.952 79.008C118.936 79.808 118.832 80.264 118.64 80.376C118.528 80.44 117.92 80.456 116.816 80.424C115.728 80.392 115.032 80.344 114.728 80.28C114.536 80.232 114.488 80.32 114.584 80.544C114.696 80.8 114.688 80.952 114.56 81C114.448 81.032 114.24 80.96 113.936 80.784C113.728 80.656 113.576 80.616 113.48 80.664C113.4 80.696 113.224 80.896 112.952 81.264C112.456 81.952 112.032 82.248 111.68 82.152C111.328 82.056 111.152 81.584 111.152 80.736C111.152 80.688 111.152 80.632 111.152 80.568C111.152 80.152 111.176 79.888 111.224 79.776C111.288 79.616 111.464 79.52 111.752 79.488C111.944 79.456 112.416 79.44 113.168 79.44C113.328 79.44 113.448 79.44 113.528 79.44C114.504 79.44 115.152 79.416 115.472 79.368C115.84 79.32 116 79.208 115.952 79.032C115.92 78.904 115.704 78.64 115.304 78.24C114.648 77.6 114.224 77.264 114.032 77.232C113.856 77.2 113.608 77.416 113.288 77.88C112.712 78.712 112.128 78.984 111.536 78.696C111.28 78.584 111.152 78.312 111.152 77.88C111.152 77.448 111.264 77.12 111.488 76.896C111.664 76.736 111.648 76.6 111.44 76.488C111.232 76.36 110.744 76.192 109.976 75.984C109.8 75.936 109.568 75.872 109.28 75.792C109.184 75.76 109.128 75.744 109.112 75.744C109 75.712 108.936 75.736 108.92 75.816C108.904 75.88 108.912 76.088 108.944 76.44C109.008 77.272 109.016 77.832 108.968 78.12C108.936 78.408 108.824 78.6 108.632 78.696C108.536 78.76 107.984 78.776 106.976 78.744C105.968 78.712 105.288 78.664 104.936 78.6C104.728 78.552 104.752 78.76 105.008 79.224C105.152 79.56 105.248 79.728 105.296 79.728C105.392 79.728 105.624 79.688 105.992 79.608C107.208 79.368 108.016 79.328 108.416 79.488C108.832 79.632 109.04 80.056 109.04 80.76C109.04 81.448 108.84 81.872 108.44 82.032C108.056 82.176 107.152 82.16 105.728 81.984C105.44 81.952 105.28 81.96 105.248 82.008C105.232 82.04 105.296 82.216 105.44 82.536L105.464 82.584C105.576 82.84 105.664 82.992 105.728 83.04C105.808 83.072 105.992 83.064 106.28 83.016C106.968 82.904 107.584 82.832 108.128 82.8C108.688 82.784 109.872 82.768 111.68 82.752C113.456 82.736 114.496 82.72 114.8 82.704C115.104 82.688 115.288 82.648 115.352 82.584C115.432 82.504 115.464 82.44 115.448 82.392C115.448 82.344 115.4 82.24 115.304 82.08C115.08 81.744 115.056 81.52 115.232 81.408C115.424 81.296 115.968 81.2 116.864 81.12C117.648 81.04 118.144 81.016 118.352 81.048C118.64 81.096 118.824 81.272 118.904 81.576C118.952 81.8 118.976 82.336 118.976 83.184C118.976 83.296 118.976 83.448 118.976 83.64C118.976 84.248 118.96 84.64 118.928 84.816C118.864 85.04 118.72 85.184 118.496 85.248C118.336 85.28 117.96 85.296 117.368 85.296C117.16 85.296 117 85.296 116.888 85.296C116.104 85.296 115.6 85.264 115.376 85.2C115.152 85.136 114.784 84.904 114.272 84.504C114.224 84.472 114.16 84.424 114.08 84.36C113.616 83.992 113.328 83.8 113.216 83.784C113.12 83.752 112.992 83.824 112.832 84C112.8 84.032 112.776 84.056 112.76 84.072C112.744 84.088 112.72 84.112 112.688 84.144C112.448 84.416 112.224 84.576 112.016 84.624C111.824 84.672 111.256 84.696 110.312 84.696C110.2 84.696 110.12 84.696 110.072 84.696C109.112 84.696 108.504 84.68 108.248 84.648C108.008 84.6 107.608 84.464 107.048 84.24C106.968 84.208 106.864 84.168 106.736 84.12C106.288 83.928 106.024 83.84 105.944 83.856C105.88 83.872 105.864 84.024 105.896 84.312C105.912 84.392 105.92 84.456 105.92 84.504C105.968 84.888 105.992 85.944 105.992 87.672C106.008 88.664 106.016 89.296 106.016 89.568C106.032 89.936 106.064 90.168 106.112 90.264C106.144 90.312 106.216 90.328 106.328 90.312H106.376C107.048 90.216 107.512 91.096 107.768 92.952C107.832 93.368 107.864 93.592 107.864 93.624C107.896 93.72 108.032 93.832 108.272 93.96C108.528 94.136 108.648 94.232 108.632 94.248C108.584 94.424 107.808 94.624 106.304 94.848C106.112 94.88 105.864 94.92 105.56 94.968C105.32 95 105.184 95.016 105.152 95.016C105.024 95.048 104.976 95.136 105.008 95.28C105.04 95.408 105.2 95.792 105.488 96.432C105.824 97.184 106.04 97.608 106.136 97.704C106.232 97.8 106.368 97.728 106.544 97.488C106.672 97.328 107.376 97 108.656 96.504C110.624 95.752 112.328 95.064 113.768 94.44C115.208 93.816 115.928 93.456 115.928 93.36C115.928 93.264 115.848 93.224 115.688 93.24C115.544 93.256 115.072 93.336 114.272 93.48C114.192 93.496 114.08 93.52 113.936 93.552C112.928 93.728 112.36 93.8 112.232 93.768C112.056 93.736 111.976 93.648 111.992 93.504C112.008 93.36 112.136 93.12 112.376 92.784C112.632 92.432 112.832 92.136 112.976 91.896C113.328 91.4 113.608 91.104 113.816 91.008C113.976 90.928 114.048 90.856 114.032 90.792C114.032 90.728 113.936 90.648 113.744 90.552C113.28 90.312 113.344 90.048 113.936 89.76C113.968 89.744 114.016 89.72 114.08 89.688C114.304 89.576 114.432 89.456 114.464 89.328C114.496 89.184 114.496 88.776 114.464 88.104C114.464 87.992 114.464 87.912 114.464 87.864C114.432 87.016 114.424 86.48 114.44 86.256C114.472 86.016 114.552 85.832 114.68 85.704C115.016 85.384 115.232 85.368 115.328 85.656C115.376 85.8 115.432 85.888 115.496 85.92C115.56 85.952 115.72 85.968 115.976 85.968C116.344 85.968 116.584 86.016 116.696 86.112C116.808 86.208 116.904 86.48 116.984 86.928C117.384 88.912 117.92 90.592 118.592 91.968C118.784 92.384 118.872 92.672 118.856 92.832C118.856 92.992 118.744 93.2 118.52 93.456C117.928 94.16 117.072 94.888 115.952 95.64C114.832 96.392 113.72 97 112.616 97.464C112.6 97.48 112.576 97.488 112.544 97.488C112.32 97.584 112.192 97.648 112.16 97.68C112.128 97.712 112.12 97.76 112.136 97.824ZM109.688 94.248C109.32 94.264 109.112 94.256 109.064 94.224C109.016 94.176 109.08 94.056 109.256 93.864C109.656 93.416 109.76 92.904 109.568 92.328C109.392 91.752 108.96 91.208 108.272 90.696C107.808 90.376 107.688 90.088 107.912 89.832C107.992 89.752 108.032 89.68 108.032 89.616C108.032 89.536 108.088 89.424 108.2 89.28C108.312 89.168 108.968 89.104 110.168 89.088C111.368 89.072 112.024 89.12 112.136 89.232C112.312 89.424 112.336 89.608 112.208 89.784C112.08 89.944 111.88 89.984 111.608 89.904C111.464 89.872 111.376 89.888 111.344 89.952C111.312 90 111.296 90.168 111.296 90.456C111.296 90.856 111.248 91.408 111.152 92.112C111.072 92.8 110.984 93.288 110.888 93.576C110.824 93.848 110.648 94.04 110.36 94.152C110.2 94.216 109.976 94.248 109.688 94.248ZM120.248 91.152C120.088 91.264 119.92 91.272 119.744 91.176C119.36 90.904 118.832 90.064 118.16 88.656C117.504 87.232 117.256 86.416 117.416 86.208C117.512 86.08 117.664 86.008 117.872 85.992C118.08 85.976 118.744 85.968 119.864 85.968C121.032 85.968 121.712 85.984 121.904 86.016C122.112 86.032 122.24 86.12 122.288 86.28C122.368 86.552 122.12 87.376 121.544 88.752C120.984 90.112 120.552 90.912 120.248 91.152ZM110.216 88.416C109.112 88.432 108.504 88.408 108.392 88.344C108.152 88.232 108.024 87.776 108.008 86.976C107.992 86.16 108.096 85.672 108.32 85.512C108.432 85.432 109.048 85.384 110.168 85.368C111.304 85.352 111.936 85.384 112.064 85.464C112.304 85.608 112.416 86.096 112.4 86.928C112.384 87.744 112.256 88.208 112.016 88.32C111.888 88.384 111.288 88.416 110.216 88.416ZM141.584 89.76C141.696 89.968 141.832 90.056 141.992 90.024C142.152 89.976 142.448 89.784 142.88 89.448C143.792 88.744 144.448 87.808 144.848 86.64C145.232 85.536 145.28 84.576 144.992 83.76C144.704 82.88 144.12 82.464 143.24 82.512C142.648 82.544 142.216 82.768 141.944 83.184C141.704 83.584 141.664 84.04 141.824 84.552C142 85.08 142.368 85.512 142.928 85.848C143.248 86.04 143.44 86.192 143.504 86.304C143.584 86.4 143.608 86.544 143.576 86.736C143.512 87.104 143.304 87.528 142.952 88.008C142.6 88.472 142.2 88.856 141.752 89.16C141.576 89.288 141.48 89.376 141.464 89.424C141.448 89.472 141.488 89.584 141.584 89.76ZM174.896 97.944C174.928 98.024 175.28 98 175.952 97.872C176.64 97.744 177.168 97.528 177.536 97.224C177.904 96.936 178.152 96.528 178.28 96C178.344 95.808 178.384 93.056 178.4 87.744C178.4 87.52 178.4 87.352 178.4 87.24C178.416 81.608 178.448 78.76 178.496 78.696C178.576 78.568 178.696 78.488 178.856 78.456C179.032 78.424 179.488 78.4 180.224 78.384C181.296 78.368 181.848 78.256 181.88 78.048C181.912 77.824 181.44 77.336 180.464 76.584C180.448 76.568 180.416 76.544 180.368 76.512C179.872 76.112 179.552 75.92 179.408 75.936C179.264 75.952 179.016 76.2 178.664 76.68C178.616 76.728 178.584 76.768 178.568 76.8C178.168 77.312 177.872 77.6 177.68 77.664C177.52 77.696 174.968 77.712 170.024 77.712C164.824 77.712 161.736 77.672 160.76 77.592C160.552 77.56 160.44 77.576 160.424 77.64C160.408 77.688 160.48 77.872 160.64 78.192C160.656 78.224 160.672 78.256 160.688 78.288C160.8 78.512 160.888 78.64 160.952 78.672C161.016 78.704 161.2 78.696 161.504 78.648C162.24 78.52 162.936 78.448 163.592 78.432C164.264 78.416 166.216 78.408 169.448 78.408C169.768 78.408 170.216 78.408 170.792 78.408C173.352 78.392 174.848 78.4 175.28 78.432C175.728 78.448 175.984 78.52 176.048 78.648L176.072 78.696C176.152 78.808 176.192 81.52 176.192 86.832C176.192 92.144 176.152 94.872 176.072 95.016C175.96 95.224 175.744 95.344 175.424 95.376C175.12 95.392 174.296 95.36 172.952 95.28C172.152 95.232 171.688 95.208 171.56 95.208C171.416 95.224 171.344 95.264 171.344 95.328C171.344 95.424 171.504 95.504 171.824 95.568C173.664 95.872 174.664 96.568 174.824 97.656L174.848 97.704C174.864 97.832 174.88 97.912 174.896 97.944ZM163.232 93.096C163.552 93.272 163.976 93.232 164.504 92.976C165.048 92.704 165.304 92.4 165.272 92.064C165.272 92.048 165.272 92.016 165.272 91.968C165.208 91.344 165.2 90.952 165.248 90.792C165.296 90.552 165.488 90.408 165.824 90.36C166.048 90.312 166.6 90.288 167.48 90.288C167.528 90.288 167.56 90.288 167.576 90.288C167.608 90.288 167.664 90.288 167.744 90.288C168.544 90.288 169.056 90.296 169.28 90.312C169.584 90.344 169.768 90.432 169.832 90.576C169.88 90.672 169.896 90.888 169.88 91.224V91.296C169.848 91.808 169.968 92.112 170.24 92.208C170.512 92.288 170.992 92.168 171.68 91.848L171.728 91.824C171.984 91.696 172.128 91.576 172.16 91.464C172.192 91.352 172.192 91.024 172.16 90.48C172.128 89.904 172.104 88.704 172.088 86.88C172.056 85.072 172.056 84.104 172.088 83.976C172.152 83.704 172.328 83.504 172.616 83.376C172.872 83.248 172.984 83.128 172.952 83.016C172.92 82.904 172.72 82.664 172.352 82.296C171.696 81.656 171.264 81.304 171.056 81.24C170.848 81.176 170.608 81.32 170.336 81.672C170.304 81.72 170.256 81.784 170.192 81.864C169.952 82.184 169.736 82.376 169.544 82.44C169.352 82.488 168.824 82.512 167.96 82.512C167.736 82.512 167.568 82.512 167.456 82.512C167.344 82.512 167.184 82.512 166.976 82.512C166.144 82.512 165.616 82.496 165.392 82.464C165.168 82.416 164.792 82.28 164.264 82.056C164.168 82.024 164.088 81.992 164.024 81.96C163.976 81.928 163.896 81.896 163.784 81.864C163.336 81.656 163.072 81.56 162.992 81.576C162.928 81.592 162.912 81.752 162.944 82.056C162.96 82.12 162.968 82.168 162.968 82.2C163.096 83.336 163.168 84.864 163.184 86.784C163.2 88.688 163.152 90.424 163.04 91.992C163.008 92.408 163 92.68 163.016 92.808C163.048 92.936 163.12 93.032 163.232 93.096ZM167.576 89.64C166.312 89.64 165.616 89.592 165.488 89.496C165.344 89.4 165.256 89.216 165.224 88.944C165.208 88.672 165.2 87.792 165.2 86.304C165.2 86.08 165.2 85.768 165.2 85.368C165.2 84.552 165.216 84.032 165.248 83.808C165.312 83.504 165.464 83.312 165.704 83.232C165.864 83.184 166.256 83.168 166.88 83.184C167.168 83.184 167.4 83.184 167.576 83.184C167.752 83.184 167.984 83.184 168.272 83.184C168.896 83.168 169.288 83.184 169.448 83.232C169.688 83.312 169.84 83.504 169.904 83.808C169.936 84.032 169.952 84.552 169.952 85.368C169.952 85.768 169.952 86.08 169.952 86.304C169.952 87.792 169.936 88.672 169.904 88.944C169.888 89.216 169.808 89.4 169.664 89.496C169.552 89.592 168.856 89.64 167.576 89.64ZM193.52 97.824C193.568 97.936 193.728 97.952 194 97.872C194.288 97.808 194.904 97.592 195.848 97.224C198.696 96.152 201.072 94.688 202.976 92.832C203.392 92.448 203.664 92.224 203.792 92.16C203.984 92.064 204.184 92.104 204.392 92.28C204.536 92.424 204.832 92.792 205.28 93.384C206.128 94.52 206.8 95.576 207.296 96.552C207.552 97.048 207.728 97.352 207.824 97.464C207.936 97.592 208.12 97.68 208.376 97.728C208.936 97.84 209.32 97.632 209.528 97.104C209.752 96.592 209.712 95.984 209.408 95.28C208.864 93.936 207.6 92.728 205.616 91.656C205.104 91.368 204.816 91.152 204.752 91.008C204.704 90.848 204.8 90.544 205.04 90.096C205.776 88.752 206.304 87.312 206.624 85.776C206.96 84.24 207.2 82.136 207.344 79.464C207.36 78.888 207.392 78.504 207.44 78.312C207.504 78.12 207.608 77.984 207.752 77.904C208.056 77.728 208.048 77.584 207.728 77.472C207.408 77.344 206.712 77.224 205.64 77.112C205.224 77.064 204.968 77.048 204.872 77.064C204.776 77.08 204.744 77.128 204.776 77.208C204.872 77.48 204.904 78.56 204.872 80.448C204.808 84.592 203.96 87.96 202.328 90.552C200.696 93.128 198.04 95.336 194.36 97.176C193.896 97.4 193.632 97.536 193.568 97.584C193.504 97.648 193.488 97.728 193.52 97.824ZM189.344 96C189.424 96.08 189.536 96.048 189.68 95.904C189.856 95.68 190.056 95.504 190.28 95.376C190.504 95.232 191.04 94.944 191.888 94.512C193.648 93.632 195.352 92.72 197 91.776C198.648 90.816 199.488 90.272 199.52 90.144C199.536 90.032 199.424 90.008 199.184 90.072C198.96 90.12 198.192 90.36 196.88 90.792C195.52 91.24 194.68 91.504 194.36 91.584C194.056 91.664 193.848 91.664 193.736 91.584C193.64 91.488 193.576 91.128 193.544 90.504C193.512 89.8 193.48 87.832 193.448 84.6C193.448 84.264 193.44 83.8 193.424 83.208C193.392 81.272 193.384 80.04 193.4 79.512C193.4 78.776 193.416 78.304 193.448 78.096C193.48 77.952 193.552 77.84 193.664 77.76L193.712 77.712C193.92 77.536 193.944 77.416 193.784 77.352C193.624 77.272 193.216 77.2 192.56 77.136C191.664 77.056 191.216 77.064 191.216 77.16C191.184 77.304 191.208 79.736 191.288 84.456C191.288 84.712 191.296 85.072 191.312 85.536C191.36 88.864 191.384 90.816 191.384 91.392C191.384 91.952 191.352 92.272 191.288 92.352C191.144 92.592 190.296 92.904 188.744 93.288C188.392 93.368 188.216 93.432 188.216 93.48C188.2 93.496 188.368 93.904 188.72 94.704C189.088 95.488 189.296 95.92 189.344 96ZM199.856 85.704C200.4 85.88 200.808 85.744 201.08 85.296C201.352 84.848 201.368 84.288 201.128 83.616C200.632 82.192 199.232 81.016 196.928 80.088C196.416 79.896 196.136 79.832 196.088 79.896C196.056 79.96 196.216 80.208 196.568 80.64C197.832 82.24 198.704 83.688 199.184 84.984C199.344 85.368 199.568 85.608 199.856 85.704ZM220.76 97.968C220.792 98.064 221.064 98.064 221.576 97.968C222.088 97.872 222.496 97.744 222.8 97.584C223.328 97.312 223.744 96.768 224.048 95.952C224.352 95.12 224.568 93.952 224.696 92.448C224.728 92.096 224.784 91.848 224.864 91.704C224.96 91.544 225.112 91.416 225.32 91.32C225.624 91.192 225.712 91.064 225.584 90.936C225.552 90.904 225.536 90.856 225.536 90.792C225.536 90.696 225.264 90.448 224.72 90.048C224.192 89.632 223.864 89.424 223.736 89.424C223.656 89.424 223.48 89.576 223.208 89.88C222.776 90.328 222.192 90.576 221.456 90.624C220.736 90.656 220.328 90.464 220.232 90.048C220.2 89.904 220.232 89.576 220.328 89.064C220.44 88.536 220.536 88.224 220.616 88.128C220.84 87.888 221.272 87.808 221.912 87.888C222.568 87.952 222.896 88.112 222.896 88.368C222.896 88.672 223.304 88.72 224.12 88.512C224.52 88.4 224.76 88.296 224.84 88.2C224.92 88.088 224.944 87.824 224.912 87.408C224.8 85.584 224.92 84.672 225.272 84.672C225.576 84.672 225.688 84.544 225.608 84.288C225.528 84.032 225.28 83.672 224.864 83.208C224.512 82.856 224.28 82.672 224.168 82.656C224.056 82.64 223.896 82.768 223.688 83.04C223.48 83.344 223.304 83.544 223.16 83.64C223.016 83.72 222.808 83.76 222.536 83.76C222.168 83.76 221.968 83.696 221.936 83.568C221.904 83.44 222.048 83.232 222.368 82.944C223.728 81.696 224.776 80.512 225.512 79.392C226.024 78.656 226.368 78.288 226.544 78.288C226.96 78.272 227.08 78.104 226.904 77.784C226.744 77.464 226.304 77.024 225.584 76.464C225.296 76.24 225.096 76.144 224.984 76.176C224.888 76.192 224.664 76.368 224.312 76.704C223.928 77.072 223.272 77.296 222.344 77.376C221.432 77.456 220.136 77.408 218.456 77.232C218.2 77.2 218.056 77.208 218.024 77.256C218.008 77.304 218.08 77.488 218.24 77.808C218.256 77.84 218.272 77.88 218.288 77.928C218.4 78.136 218.504 78.256 218.6 78.288C218.696 78.32 218.96 78.304 219.392 78.24C219.52 78.224 219.624 78.208 219.704 78.192C220.12 78.144 220.744 78.104 221.576 78.072C222.424 78.04 222.92 78.04 223.064 78.072C223.304 78.136 223.4 78.296 223.352 78.552C223.304 78.792 223.088 79.216 222.704 79.824C222.352 80.416 222.08 80.76 221.888 80.856C221.712 80.952 221.552 80.84 221.408 80.52C221.104 79.896 220.504 79.472 219.608 79.248C218.84 79.056 218.368 79 218.192 79.08C218.016 79.144 218.112 79.352 218.48 79.704C218.768 80.008 219.048 80.368 219.32 80.784C219.592 81.184 219.728 81.464 219.728 81.624C219.728 81.688 219.768 81.76 219.848 81.84C219.944 81.92 220.04 81.968 220.136 81.984C220.44 82.08 220.568 82.224 220.52 82.416C220.488 82.592 220.264 82.872 219.848 83.256C218.92 84.104 217.872 84.864 216.704 85.536C216.672 85.552 216.632 85.576 216.584 85.608C216.344 85.736 216.208 85.824 216.176 85.872C216.144 85.904 216.136 85.952 216.152 86.016C216.232 86.256 217.24 85.904 219.176 84.96C219.88 84.624 220.624 84.432 221.408 84.384C222.208 84.336 222.68 84.456 222.824 84.744C222.888 84.872 222.912 85.24 222.896 85.848C222.896 86.456 222.864 86.816 222.8 86.928C222.656 87.232 222.312 87.36 221.768 87.312C221.224 87.264 220.544 87.04 219.728 86.64C219.664 86.608 219.584 86.568 219.488 86.52C219.056 86.312 218.8 86.216 218.72 86.232C218.656 86.232 218.624 86.384 218.624 86.688C218.624 86.736 218.624 86.776 218.624 86.808C218.624 88.008 218.44 89.544 218.072 91.416C218.008 91.768 217.984 91.984 218 92.064C218.032 92.128 218.152 92.176 218.36 92.208C218.776 92.288 219.12 92.288 219.392 92.208C219.664 92.128 219.832 91.984 219.896 91.776C219.976 91.504 220.104 91.336 220.28 91.272C220.456 91.192 220.84 91.152 221.432 91.152C222.12 91.152 222.52 91.232 222.632 91.392C222.76 91.536 222.776 92 222.68 92.784C222.552 93.824 222.416 94.52 222.272 94.872C222.096 95.304 221.816 95.576 221.432 95.688C221.112 95.768 220.512 95.768 219.632 95.688C219.04 95.64 218.696 95.616 218.6 95.616C218.504 95.616 218.44 95.64 218.408 95.688C218.376 95.816 218.56 95.944 218.96 96.072C220.064 96.344 220.648 96.88 220.712 97.68C220.744 97.84 220.76 97.936 220.76 97.968ZM223.856 97.872C224.016 98 224.696 97.88 225.896 97.512C227.096 97.144 228.152 96.736 229.064 96.288C229.128 96.256 229.216 96.216 229.328 96.168C229.792 95.928 230.104 95.816 230.264 95.832C230.424 95.832 230.744 95.984 231.224 96.288C231.304 96.336 231.368 96.376 231.416 96.408C232.376 96.984 233.544 97.456 234.92 97.824C235.24 97.904 235.424 97.936 235.472 97.92C235.536 97.92 235.592 97.832 235.64 97.656C235.912 96.872 236.336 96.32 236.912 96C237.184 95.856 237.288 95.76 237.224 95.712C237.16 95.648 236.896 95.584 236.432 95.52C235.344 95.376 234.4 95.2 233.6 94.992C232.8 94.768 232.352 94.576 232.256 94.416C232.208 94.32 232.208 94.216 232.256 94.104C232.32 93.992 232.472 93.792 232.712 93.504C233.32 92.768 233.72 92.208 233.912 91.824C233.992 91.68 234.104 91.536 234.248 91.392C234.392 91.248 234.52 91.168 234.632 91.152C234.856 91.088 234.944 90.992 234.896 90.864C234.864 90.72 234.664 90.464 234.296 90.096C233.88 89.68 233.688 89.416 233.72 89.304C233.768 89.176 234.064 89.08 234.608 89.016C235.168 88.952 235.56 88.864 235.784 88.752C236.008 88.624 236.144 88.424 236.192 88.152C236.24 87.88 236.168 87.648 235.976 87.456C235.752 87.248 235.616 86.904 235.568 86.424C235.52 85.704 235.368 85.688 235.112 86.376C234.952 86.824 234.648 87.144 234.2 87.336C233.768 87.512 233.344 87.488 232.928 87.264C232.752 87.184 232.632 86.808 232.568 86.136C232.52 85.448 232.568 85 232.712 84.792C232.904 84.52 233.112 84.4 233.336 84.432C233.576 84.448 233.992 84.632 234.584 84.984C235.352 85.416 235.776 85.632 235.856 85.632C235.888 85.632 235.944 85.544 236.024 85.368C236.168 85.032 236.368 84.728 236.624 84.456C236.896 84.168 237.168 83.968 237.44 83.856C237.712 83.744 237.816 83.656 237.752 83.592C237.688 83.512 237.4 83.384 236.888 83.208C235.256 82.648 234.272 82.216 233.936 81.912C233.6 81.608 233.76 81.288 234.416 80.952C234.48 80.92 234.6 80.856 234.776 80.76C235.176 80.552 235.456 80.4 235.616 80.304C236.064 80.048 236.344 79.92 236.456 79.92C236.776 79.92 236.832 79.8 236.624 79.56C236.416 79.32 235.912 78.928 235.112 78.384C235.096 78.368 235.072 78.352 235.04 78.336C234.832 78.192 234.696 78.136 234.632 78.168C234.568 78.184 234.464 78.344 234.32 78.648C234.304 78.696 234.288 78.736 234.272 78.768C233.68 79.952 233.216 80.64 232.88 80.832C232.544 81.024 232.064 80.872 231.44 80.376C230.976 80.008 230.752 79.744 230.768 79.584C230.8 79.424 231.096 79.192 231.656 78.888C232.2 78.6 232.568 78.392 232.76 78.264C233.368 77.896 233.728 77.712 233.84 77.712C234.192 77.712 234.28 77.608 234.104 77.4C233.928 77.176 233.456 76.792 232.688 76.248C232.384 76.04 232.192 75.944 232.112 75.96C232.048 75.976 231.944 76.128 231.8 76.416C231.544 76.976 231.216 77.512 230.816 78.024C230.432 78.52 230.16 78.768 230 78.768C229.792 78.768 229.512 78.552 229.16 78.12C228.808 77.688 228.456 77.12 228.104 76.416C227.944 76.128 227.84 75.96 227.792 75.912C227.76 75.864 227.712 75.856 227.648 75.888C227.392 76.032 227.64 76.856 228.392 78.36C229.16 79.864 229.92 81.032 230.672 81.864C231.024 82.248 231.208 82.536 231.224 82.728C231.24 82.92 231.088 83.152 230.768 83.424C230.464 83.696 230.104 83.824 229.688 83.808C229.272 83.776 228.712 83.584 228.008 83.232C227.304 82.88 226.936 82.704 226.904 82.704C226.872 82.704 226.856 83.288 226.856 84.456C226.856 85.816 226.768 86.816 226.592 87.456C226.416 88.08 226.056 88.68 225.512 89.256C225.176 89.624 225.096 89.824 225.272 89.856C225.448 89.888 225.752 89.784 226.184 89.544C226.648 89.288 227.064 88.968 227.432 88.584C228.216 87.816 228.656 86.784 228.752 85.488C228.784 84.992 228.848 84.696 228.944 84.6C229.056 84.488 229.32 84.432 229.736 84.432C230.088 84.432 230.312 84.456 230.408 84.504C230.552 84.584 230.64 84.768 230.672 85.056C230.704 85.28 230.72 85.76 230.72 86.496C230.72 87.6 230.776 88.288 230.888 88.56C231 88.816 231.32 88.976 231.848 89.04C232.232 89.104 232.448 89.2 232.496 89.328C232.56 89.44 232.464 89.616 232.208 89.856C231.952 90.096 231.224 90.24 230.024 90.288C228.84 90.336 227.472 90.28 225.92 90.12C225.696 90.104 225.624 90.176 225.704 90.336C225.752 90.4 225.776 90.488 225.776 90.6C225.776 90.68 225.824 90.76 225.92 90.84C226 90.888 226.064 90.96 226.112 91.056C226.16 91.12 226.192 91.152 226.208 91.152C226.24 91.152 226.288 91.136 226.352 91.104C226.816 90.832 227.2 91.048 227.504 91.752C227.824 92.472 228.16 93.112 228.512 93.672C228.736 94.008 228.872 94.232 228.92 94.344C228.968 94.456 228.976 94.568 228.944 94.68C228.848 94.984 228.328 95.424 227.384 96C226.44 96.56 225.48 97.024 224.504 97.392C224.152 97.52 223.936 97.608 223.856 97.656C223.776 97.72 223.776 97.792 223.856 97.872ZM230.36 93.264C230.2 93.376 230.024 93.392 229.832 93.312C229.656 93.216 229.384 92.992 229.016 92.64C228.232 91.888 227.888 91.408 227.984 91.2C228.096 90.992 228.728 90.896 229.88 90.912C230.664 90.928 231.136 90.96 231.296 91.008C231.456 91.04 231.536 91.152 231.536 91.344C231.536 91.52 231.384 91.856 231.08 92.352C230.776 92.848 230.536 93.152 230.36 93.264ZM245.864 97.944C246.04 98.008 246.304 98.008 246.656 97.944C247.024 97.88 247.304 97.784 247.496 97.656C247.656 97.56 247.752 97.472 247.784 97.392C247.832 97.312 247.848 97.144 247.832 96.888C247.784 96.44 247.856 96.136 248.048 95.976C248.144 95.896 250.328 95.856 254.6 95.856C258.888 95.84 261.096 95.872 261.224 95.952C261.368 96.016 261.456 96.104 261.488 96.216C261.52 96.344 261.528 96.568 261.512 96.888C261.496 97.352 261.584 97.632 261.776 97.728C261.968 97.84 262.344 97.808 262.904 97.632C263.4 97.472 263.688 97.32 263.768 97.176C263.848 97.048 263.872 96.696 263.84 96.12C263.616 91.672 263.688 89.304 264.056 89.016C264.264 88.856 264.232 88.704 263.96 88.56C263.704 88.416 263.112 88.224 262.184 87.984C261.752 87.872 261.496 87.816 261.416 87.816C261.336 87.832 261.304 87.904 261.32 88.032C261.448 88.832 261.528 90.136 261.56 91.944C261.608 93.736 261.576 94.72 261.464 94.896C261.368 95.04 261.2 95.128 260.96 95.16C260.736 95.176 259.96 95.184 258.632 95.184C258.376 95.184 258.04 95.192 257.624 95.208C256.888 95.224 256.424 95.192 256.232 95.112C255.96 95.016 255.792 94.752 255.728 94.32C255.68 94.016 255.664 93.296 255.68 92.16C255.68 91.488 255.68 90.952 255.68 90.552C255.68 90.152 255.68 89.616 255.68 88.944C255.664 87.728 255.672 86.96 255.704 86.64C255.768 86.192 255.912 85.912 256.136 85.8C256.296 85.72 256.68 85.688 257.288 85.704C257.608 85.72 257.864 85.728 258.056 85.728C258.92 85.728 259.48 85.736 259.736 85.752C260.072 85.784 260.28 85.856 260.36 85.968C260.424 86.048 260.44 86.216 260.408 86.472C260.376 86.824 260.576 87.016 261.008 87.048C261.44 87.08 261.912 86.936 262.424 86.616L262.448 86.592C262.576 86.512 262.648 86.4 262.664 86.256C262.68 86.112 262.672 85.64 262.64 84.84V84.768C262.56 82.688 262.536 81.296 262.568 80.592C262.6 79.872 262.712 79.424 262.904 79.248C263.112 79.072 263.088 78.92 262.832 78.792C262.576 78.648 261.976 78.448 261.032 78.192C261 78.192 260.96 78.184 260.912 78.168C260.544 78.072 260.328 78.04 260.264 78.072C260.216 78.104 260.208 78.28 260.24 78.6C260.256 78.648 260.264 78.688 260.264 78.72C260.376 79.696 260.44 80.912 260.456 82.368C260.488 83.808 260.456 84.608 260.36 84.768C260.28 84.912 260.144 85 259.952 85.032C259.76 85.048 259.136 85.056 258.08 85.056C257.888 85.056 257.632 85.056 257.312 85.056C256.704 85.072 256.32 85.048 256.16 84.984C255.936 84.904 255.8 84.672 255.752 84.288C255.704 84.032 255.688 83.4 255.704 82.392C255.704 81.864 255.704 81.448 255.704 81.144C255.704 79.24 255.72 78.12 255.752 77.784C255.784 77.448 255.896 77.216 256.088 77.088C256.312 76.944 256.272 76.792 255.968 76.632C255.664 76.472 255.016 76.264 254.024 76.008C253.992 76.008 253.952 76 253.904 75.984C253.552 75.888 253.352 75.864 253.304 75.912C253.256 75.944 253.248 76.104 253.28 76.392C253.296 76.44 253.304 76.48 253.304 76.512C253.416 77.472 253.48 79.048 253.496 81.24C253.528 83.416 253.496 84.584 253.4 84.744C253.32 84.904 253.184 85 252.992 85.032C252.8 85.048 252.208 85.056 251.216 85.056C251.056 85.056 250.832 85.056 250.544 85.056C249.936 85.072 249.552 85.056 249.392 85.008C249.152 84.928 249.008 84.744 248.96 84.456C248.912 84.248 248.896 83.76 248.912 82.992C248.912 82.656 248.912 82.384 248.912 82.176C248.912 80.832 248.928 80.04 248.96 79.8C248.992 79.544 249.096 79.36 249.272 79.248C249.512 79.104 249.488 78.952 249.2 78.792C248.912 78.632 248.28 78.424 247.304 78.168C246.984 78.088 246.776 78.048 246.68 78.048C246.6 78.048 246.568 78.096 246.584 78.192C246.712 78.592 246.792 79.712 246.824 81.552C246.856 83.424 246.824 85.04 246.728 86.4C246.696 86.768 246.752 87 246.896 87.096C247.056 87.192 247.368 87.192 247.832 87.096C248.552 86.952 248.912 86.696 248.912 86.328C248.912 86.088 249.008 85.912 249.2 85.8C249.312 85.736 249.984 85.712 251.216 85.728C252.464 85.728 253.144 85.768 253.256 85.848C253.384 85.944 253.456 86.192 253.472 86.592C253.504 86.976 253.52 88.296 253.52 90.552C253.52 90.952 253.52 91.48 253.52 92.136C253.52 93.288 253.504 94.016 253.472 94.32C253.408 94.752 253.24 95.016 252.968 95.112C252.792 95.192 252.352 95.224 251.648 95.208C251.232 95.192 250.904 95.184 250.664 95.184C250.44 95.184 250.136 95.184 249.752 95.184C249.016 95.2 248.552 95.184 248.36 95.136C248.088 95.072 247.92 94.888 247.856 94.584C247.808 94.376 247.792 93.872 247.808 93.072C247.808 92.656 247.808 92.32 247.808 92.064C247.824 90.624 247.84 89.776 247.856 89.52C247.888 89.264 247.976 89.104 248.12 89.04C248.392 88.896 248.36 88.736 248.024 88.56C247.704 88.384 247.032 88.168 246.008 87.912C245.704 87.832 245.528 87.808 245.48 87.84C245.448 87.872 245.448 88.016 245.48 88.272V88.344C245.576 89.128 245.632 90.512 245.648 92.496C245.68 94.464 245.664 95.912 245.6 96.84C245.568 97.288 245.56 97.568 245.576 97.68C245.608 97.792 245.704 97.88 245.864 97.944ZM274.856 97.92C274.888 98.016 275.176 97.992 275.72 97.848C276.28 97.72 276.696 97.56 276.968 97.368C277.304 97.144 277.52 96.92 277.616 96.696C277.744 96.424 277.824 95.904 277.856 95.136C277.888 94.56 277.904 93.344 277.904 91.488C277.904 89.744 277.912 88.704 277.928 88.368C277.928 88 277.952 87.768 278 87.672C278.064 87.544 278.184 87.416 278.36 87.288C278.568 87.144 279.136 86.808 280.064 86.28C280.096 86.264 280.152 86.232 280.232 86.184C281.048 85.704 281.528 85.424 281.672 85.344C281.816 85.248 281.888 85.168 281.888 85.104C281.888 85.008 281.8 84.976 281.624 85.008C281.464 85.056 281.008 85.2 280.256 85.44C280.16 85.472 280.016 85.52 279.824 85.584C279.12 85.808 278.672 85.928 278.48 85.944C278.224 85.976 278.056 85.88 277.976 85.656C277.928 85.496 277.904 85.096 277.904 84.456C277.904 84.312 277.904 84.2 277.904 84.12C277.904 83.976 277.904 83.792 277.904 83.568C277.888 82.8 277.944 82.352 278.072 82.224C278.2 82.096 278.64 82.032 279.392 82.032C279.6 82.032 279.76 82.032 279.872 82.032C280.72 82.016 281.264 81.984 281.504 81.936C281.792 81.872 281.896 81.736 281.816 81.528C281.752 81.368 281.488 81.048 281.024 80.568C280.88 80.424 280.712 80.24 280.52 80.016L280.424 79.92C280.152 79.552 279.792 79.736 279.344 80.472C279.12 80.84 278.928 81.088 278.768 81.216C278.608 81.328 278.44 81.352 278.264 81.288C278.104 81.224 278.008 81.104 277.976 80.928C277.944 80.752 277.928 80.176 277.928 79.2C277.928 78.24 277.944 77.656 277.976 77.448C278.008 77.224 278.096 77.064 278.24 76.968C278.512 76.792 278.496 76.624 278.192 76.464C277.904 76.304 277.272 76.104 276.296 75.864C276.264 75.864 276.224 75.856 276.176 75.84C275.824 75.744 275.624 75.72 275.576 75.768C275.528 75.8 275.52 75.968 275.552 76.272C275.568 76.32 275.576 76.36 275.576 76.392C275.912 79.464 275.856 81.096 275.408 81.288C275.296 81.352 274.776 81.368 273.848 81.336C272.936 81.304 272.32 81.256 272 81.192C271.824 81.144 271.848 81.336 272.072 81.768C272.088 81.8 272.112 81.848 272.144 81.912C272.256 82.12 272.336 82.24 272.384 82.272C272.448 82.304 272.6 82.296 272.84 82.248C272.904 82.232 272.96 82.216 273.008 82.2C273.76 82.04 274.384 81.984 274.88 82.032C275.376 82.08 275.656 82.216 275.72 82.44C275.752 82.568 275.768 83.232 275.768 84.432C275.784 85.616 275.776 86.28 275.744 86.424C275.68 86.664 275.44 86.872 275.024 87.048C274.608 87.224 273.688 87.496 272.264 87.864L272.24 87.888C271.904 87.968 271.704 88.032 271.64 88.08C271.592 88.112 271.592 88.192 271.64 88.32C271.672 88.4 271.816 88.8 272.072 89.52C272.296 90.16 272.416 90.504 272.432 90.552C272.496 90.712 272.624 90.696 272.816 90.504C272.976 90.28 273.168 90.096 273.392 89.952C273.632 89.792 274.056 89.568 274.664 89.28C274.68 89.264 274.704 89.248 274.736 89.232C275.136 89.04 275.392 88.96 275.504 88.992C275.648 89.04 275.736 89.28 275.768 89.712C275.8 90.016 275.808 90.776 275.792 91.992C275.792 92.088 275.792 92.16 275.792 92.208C275.792 92.368 275.792 92.592 275.792 92.88C275.792 93.776 275.768 94.344 275.72 94.584C275.656 94.904 275.488 95.096 275.216 95.16C275.024 95.208 274.568 95.208 273.848 95.16C273.608 95.144 273.416 95.136 273.272 95.136C272.6 95.104 272.256 95.104 272.24 95.136C272.192 95.216 272.2 95.28 272.264 95.328C272.328 95.376 272.496 95.432 272.768 95.496C273.408 95.656 273.888 95.896 274.208 96.216C274.528 96.552 274.728 97.016 274.808 97.608C274.808 97.64 274.816 97.68 274.832 97.728C274.848 97.84 274.856 97.904 274.856 97.92ZM285.608 97.752C285.656 97.8 285.928 97.784 286.424 97.704C287.128 97.576 287.672 97.368 288.056 97.08C288.456 96.808 288.736 96.424 288.896 95.928C288.96 95.752 288.992 95.328 288.992 94.656C289.008 93.968 289.024 91.648 289.04 87.696C289.056 82.464 289.08 79.784 289.112 79.656C289.192 79.512 289.32 79.432 289.496 79.416C289.672 79.384 290.256 79.36 291.248 79.344C292.24 79.328 292.84 79.304 293.048 79.272C293.272 79.24 293.4 79.16 293.432 79.032C293.48 78.84 293.136 78.416 292.4 77.76C291.68 77.104 291.24 76.816 291.08 76.896C291 76.944 290.776 77.232 290.408 77.76C290.36 77.824 290.304 77.912 290.24 78.024C290.08 78.248 289.936 78.392 289.808 78.456C289.648 78.552 289.352 78.608 288.92 78.624C288.6 78.64 287.88 78.648 286.76 78.648C286.28 78.648 285.904 78.648 285.632 78.648C282.336 78.648 280.472 78.6 280.04 78.504C279.928 78.472 279.912 78.616 279.992 78.936C280.088 79.256 280.208 79.496 280.352 79.656C280.384 79.688 280.584 79.664 280.952 79.584C281.72 79.456 282.824 79.384 284.264 79.368C285.704 79.336 286.488 79.376 286.616 79.488C286.728 79.6 286.792 79.984 286.808 80.64C286.824 81.28 286.832 83.504 286.832 87.312C286.832 87.616 286.832 88.032 286.832 88.56C286.816 90.896 286.808 92.376 286.808 93C286.792 93.864 286.768 94.416 286.736 94.656C286.704 94.832 286.632 94.936 286.52 94.968C286.488 94.984 286.464 95 286.448 95.016C286.256 95.112 285.208 95.096 283.304 94.968C282.632 94.92 282.272 94.92 282.224 94.968C282.176 95.016 282.176 95.072 282.224 95.136C282.272 95.2 282.352 95.24 282.464 95.256C283.52 95.432 284.272 95.68 284.72 96C285.184 96.336 285.464 96.832 285.56 97.488C285.592 97.648 285.608 97.736 285.608 97.752ZM308.504 98.016C308.552 98.064 308.608 98.072 308.672 98.04C308.752 98.04 308.872 98.024 309.032 97.992C309.944 97.864 310.584 97.6 310.952 97.2C311.32 96.8 311.512 96.128 311.528 95.184C311.56 94.64 311.592 94.32 311.624 94.224L311.648 94.2C311.696 94.072 311.872 94 312.176 93.984C312.496 93.968 313.552 93.952 315.344 93.936C315.744 93.936 316.048 93.936 316.256 93.936C318.48 93.92 319.784 93.904 320.168 93.888C320.568 93.872 320.808 93.8 320.888 93.672C321.016 93.464 320.608 92.992 319.664 92.256C319.376 92.032 319.2 91.864 319.136 91.752C319.088 91.624 319.136 91.504 319.28 91.392C319.648 91.152 319.176 90.592 317.864 89.712C317.56 89.504 317.352 89.416 317.24 89.448C317.128 89.48 316.92 89.696 316.616 90.096C316.6 90.112 316.576 90.144 316.544 90.192C316.272 90.528 316.032 90.728 315.824 90.792C315.616 90.84 315.032 90.864 314.072 90.864C313.992 90.864 313.928 90.864 313.88 90.864C313.032 90.864 312.488 90.856 312.248 90.84C311.928 90.808 311.728 90.728 311.648 90.6C311.584 90.504 311.552 90.296 311.552 89.976C311.552 89.592 311.624 89.352 311.768 89.256C311.912 89.16 312.312 89.072 312.968 88.992C313.208 88.976 313.632 88.928 314.24 88.848C314.416 88.832 314.544 88.816 314.624 88.8C315.328 88.704 315.904 88.68 316.352 88.728C316.624 88.76 316.76 88.728 316.76 88.632C316.76 88.536 316.624 88.336 316.352 88.032C315.632 87.136 315.2 86.704 315.056 86.736C315.04 86.736 314.984 86.752 314.888 86.784C314.616 86.864 314.4 86.928 314.24 86.976C313.056 87.296 312 87.544 311.072 87.72C310.16 87.88 309.656 87.92 309.56 87.84C309.528 87.808 309.504 87.752 309.488 87.672C309.488 87.592 309.504 87.544 309.536 87.528C309.568 87.512 309.576 87.272 309.56 86.808C309.544 86.36 309.552 86.048 309.584 85.872C309.632 85.696 309.744 85.544 309.92 85.416L309.944 85.392L310.112 85.248C310.112 85.2 310.056 85.136 309.944 85.056C309.768 84.976 309.744 84.888 309.872 84.792C310 84.696 310.224 84.64 310.544 84.624C311.008 84.592 311.256 84.52 311.288 84.408C311.336 84.28 311.184 84.072 310.832 83.784C310.8 83.752 310.752 83.712 310.688 83.664C310.288 83.344 310.048 83.104 309.968 82.944C309.904 82.768 309.872 82.344 309.872 81.672C309.872 81.576 309.872 81.504 309.872 81.456C309.872 80.72 309.888 80.272 309.92 80.112C309.968 79.936 310.08 79.784 310.256 79.656C310.416 79.544 310.488 79.448 310.472 79.368C310.472 79.272 310.392 79.136 310.232 78.96C309.896 78.592 309.728 78.344 309.728 78.216C309.744 78.088 309.928 78 310.28 77.952C311.16 77.824 310.952 77.304 309.656 76.392C309.32 76.152 309.096 76.048 308.984 76.08C308.888 76.096 308.688 76.288 308.384 76.656C308.128 76.976 307.848 77.192 307.544 77.304C307.256 77.4 306.976 77.384 306.704 77.256C306.528 77.176 306.432 77.048 306.416 76.872C306.4 76.68 306.472 76.528 306.632 76.416C306.84 76.272 306.816 76.152 306.56 76.056C306.32 75.944 305.792 75.832 304.976 75.72C304.944 75.72 304.904 75.712 304.856 75.696C304.616 75.68 304.472 75.696 304.424 75.744C304.392 75.792 304.376 75.976 304.376 76.296C304.376 76.328 304.376 76.36 304.376 76.392V76.416C304.376 76.864 304.312 77.128 304.184 77.208C304.072 77.272 303.656 77.304 302.936 77.304C302.472 77.304 301.904 77.288 301.232 77.256C300.592 77.224 300.224 77.192 300.128 77.16C299.984 77.128 299.968 77.264 300.08 77.568C300.192 77.856 300.344 78.088 300.536 78.264C300.936 78.616 301.048 80.12 300.872 82.776C300.84 83.304 300.792 83.616 300.728 83.712C300.664 83.792 300.464 83.824 300.128 83.808C299.872 83.808 299.736 83.832 299.72 83.88C299.704 83.928 299.784 84.112 299.96 84.432C300.088 84.656 300.168 84.792 300.2 84.84C300.232 84.872 300.304 84.888 300.416 84.888C300.72 84.888 300.904 84.992 300.968 85.2C301.032 85.392 301.064 85.936 301.064 86.832C301.064 87.008 301.064 87.232 301.064 87.504C301.08 88.112 301.12 88.432 301.184 88.464C301.408 88.576 301.752 88.56 302.216 88.416C302.68 88.272 302.912 88.104 302.912 87.912C302.912 87.848 302.952 87.776 303.032 87.696C303.128 87.6 303.224 87.536 303.32 87.504C303.464 87.44 304.16 87.424 305.408 87.456C306.672 87.472 307.36 87.512 307.472 87.576C307.648 87.656 307.76 87.768 307.808 87.912C307.856 88.056 307.816 88.168 307.688 88.248C307.432 88.424 305.904 88.656 303.104 88.944C302.816 88.96 302.632 88.992 302.552 89.04C302.472 89.088 302.448 89.16 302.48 89.256C302.56 89.432 304.12 89.472 307.16 89.376C308.392 89.344 309.048 89.352 309.128 89.4C309.336 89.528 309.432 89.768 309.416 90.12C309.416 90.456 309.304 90.68 309.08 90.792C308.92 90.872 307.848 90.904 305.864 90.888C303.896 90.856 302.528 90.8 301.76 90.72C301.488 90.688 301.336 90.696 301.304 90.744C301.288 90.792 301.36 90.968 301.52 91.272C301.536 91.288 301.552 91.32 301.568 91.368C301.68 91.608 301.768 91.744 301.832 91.776C301.912 91.808 302.12 91.8 302.456 91.752C302.536 91.736 302.6 91.728 302.648 91.728C303.576 91.616 304.848 91.552 306.464 91.536C308.096 91.504 308.992 91.544 309.152 91.656C309.36 91.784 309.448 92.048 309.416 92.448C309.4 92.832 309.28 93.08 309.056 93.192C308.912 93.272 307.496 93.296 304.808 93.264C302.12 93.232 300.504 93.176 299.96 93.096C299.832 93.064 299.768 93.088 299.768 93.168C299.768 93.248 299.832 93.416 299.96 93.672C299.976 93.704 300 93.752 300.032 93.816C300.144 94.024 300.232 94.144 300.296 94.176C300.376 94.208 300.576 94.2 300.896 94.152C300.992 94.136 301.064 94.128 301.112 94.128C302.168 94 303.808 93.936 306.032 93.936C306.096 93.936 306.176 93.936 306.272 93.936C307.472 93.936 308.224 93.944 308.528 93.96C308.976 93.992 309.248 94.072 309.344 94.2C309.424 94.28 309.448 94.48 309.416 94.8C309.416 94.848 309.416 94.88 309.416 94.896C309.4 95.2 309.352 95.4 309.272 95.496C309.176 95.608 308.96 95.672 308.624 95.688C308.368 95.704 307.84 95.688 307.04 95.64C306.128 95.576 305.664 95.568 305.648 95.616C305.568 95.728 305.728 95.832 306.128 95.928C306.832 96.056 307.36 96.256 307.712 96.528C308.064 96.816 308.288 97.208 308.384 97.704C308.416 97.912 308.456 98.016 308.504 98.016ZM314.6 93.264C312.92 93.264 312.016 93.232 311.888 93.168C311.664 93.056 311.544 92.8 311.528 92.4C311.528 92 311.632 91.736 311.84 91.608C311.952 91.544 313.008 91.512 315.008 91.512C317.024 91.528 318.096 91.568 318.224 91.632C318.4 91.712 318.368 91.952 318.128 92.352C317.904 92.752 317.64 93.024 317.336 93.168C317.192 93.232 316.28 93.264 314.6 93.264ZM319.208 87.72C319.496 87.784 319.664 87.816 319.712 87.816C319.76 87.8 319.816 87.704 319.88 87.528C320.12 86.872 320.472 86.424 320.936 86.184C321.272 86.008 321.248 85.88 320.864 85.8C319.376 85.576 318.384 85.4 317.888 85.272C317.296 85.112 316.992 84.928 316.976 84.72C316.976 84.528 317.192 84.216 317.624 83.784C318.056 83.352 318.368 83.024 318.56 82.8C318.736 82.624 318.92 82.504 319.112 82.44C319.336 82.376 319.448 82.304 319.448 82.224C319.448 82.128 319.336 81.96 319.112 81.72C318.808 81.416 318.68 81.2 318.728 81.072C318.776 80.944 319.016 80.848 319.448 80.784C320.088 80.704 320.512 80.52 320.72 80.232C320.944 79.944 320.896 79.624 320.576 79.272C320.368 79.048 320.248 78.76 320.216 78.408C320.168 77.784 320.032 77.768 319.808 78.36C319.664 78.744 319.416 79.016 319.064 79.176C318.712 79.336 318.376 79.328 318.056 79.152C317.816 79.024 317.712 78.76 317.744 78.36C317.776 77.96 317.92 77.704 318.176 77.592C318.368 77.512 318.432 77.4 318.368 77.256C318.304 77.112 318.072 76.84 317.672 76.44C317.256 76.024 316.984 75.808 316.856 75.792C316.744 75.776 316.552 75.928 316.28 76.248C315.912 76.712 315.496 76.944 315.032 76.944C314.552 76.96 313.84 76.744 312.896 76.296C312.832 76.264 312.744 76.224 312.632 76.176C312.312 76.016 312.12 75.968 312.056 76.032C312.008 76.096 311.976 76.376 311.96 76.872C311.96 77.064 311.96 77.216 311.96 77.328C311.944 78.336 311.84 79.12 311.648 79.68C311.456 80.224 311.12 80.704 310.64 81.12C310.464 81.264 310.384 81.384 310.4 81.48C310.416 81.576 310.52 81.608 310.712 81.576C310.92 81.528 311.128 81.72 311.336 82.152C311.512 82.472 311.648 82.568 311.744 82.44C311.856 82.312 312.016 82.312 312.224 82.44C312.432 82.552 312.616 82.76 312.776 83.064C312.904 83.32 313.088 83.608 313.328 83.928C313.68 84.44 313.696 84.864 313.376 85.2C313.056 85.536 312.248 85.928 310.952 86.376C310.52 86.52 310.304 86.632 310.304 86.712C310.304 86.888 310.424 86.952 310.664 86.904C311.752 86.728 312.848 86.432 313.952 86.016C314.384 85.856 314.672 85.784 314.816 85.8C314.976 85.8 315.224 85.904 315.56 86.112C316.52 86.736 317.688 87.256 319.064 87.672C319.096 87.688 319.144 87.704 319.208 87.72ZM307.52 86.712C307.2 86.936 306.92 86.952 306.68 86.76C306.44 86.552 306.32 86.2 306.32 85.704C306.32 85.208 306.416 84.872 306.608 84.696C306.816 84.52 307.088 84.52 307.424 84.696C307.632 84.808 307.744 85.136 307.76 85.68C307.776 86.224 307.696 86.568 307.52 86.712ZM304.088 86.76C303.848 86.872 303.616 86.888 303.392 86.808C303.184 86.712 303.056 86.576 303.008 86.4C302.976 86.224 303.064 86.064 303.272 85.92C303.432 85.824 303.488 85.736 303.44 85.656C303.408 85.56 303.256 85.448 302.984 85.32C302.088 84.872 302.216 84.648 303.368 84.648C303.88 84.648 304.192 84.72 304.304 84.864C304.416 84.992 304.464 85.328 304.448 85.872C304.432 86.368 304.312 86.664 304.088 86.76ZM308.168 83.88C307.704 84.072 307.248 84.072 306.8 83.88C306.352 83.672 306.24 83.416 306.464 83.112C306.608 82.952 306.88 82.888 307.28 82.92C307.68 82.936 307.92 83.032 308 83.208C308.048 83.288 308.112 83.344 308.192 83.376C308.336 83.392 308.408 83.464 308.408 83.592C308.408 83.72 308.328 83.816 308.168 83.88ZM304.136 83.856C303.96 83.968 303.616 84.008 303.104 83.976C302.592 83.928 302.32 83.84 302.288 83.712C302.272 83.632 302.376 83.496 302.6 83.304C302.824 83.096 303 82.976 303.128 82.944C303.416 82.864 303.688 82.872 303.944 82.968C304.2 83.064 304.352 83.2 304.4 83.376C304.448 83.552 304.36 83.712 304.136 83.856ZM315.296 83.712C315.12 83.84 314.944 83.888 314.768 83.856C314.608 83.824 314.4 83.704 314.144 83.496C313.472 83 313.272 82.64 313.544 82.416C313.608 82.352 313.984 82.32 314.672 82.32C315.376 82.304 315.784 82.32 315.896 82.368C316.072 82.464 316.096 82.664 315.968 82.968C315.84 83.256 315.616 83.504 315.296 83.712ZM307.784 82.056C307.608 82.248 307.328 82.304 306.944 82.224C306.56 82.144 306.368 81.992 306.368 81.768C306.368 81.4 306.632 81.216 307.16 81.216C307.512 81.216 307.752 81.312 307.88 81.504C308.024 81.68 307.992 81.864 307.784 82.056ZM304.112 82.152C303.936 82.232 303.696 82.256 303.392 82.224C303.104 82.176 302.928 82.096 302.864 81.984C302.736 81.728 302.808 81.512 303.08 81.336C303.352 81.16 303.656 81.136 303.992 81.264C304.216 81.344 304.336 81.488 304.352 81.696C304.384 81.904 304.304 82.056 304.112 82.152ZM314.936 81.624C314.104 81.624 313.432 81.616 312.92 81.6C312.376 81.568 312.048 81.504 311.936 81.408C311.824 81.296 311.896 81.128 312.152 80.904C312.696 80.456 313.088 80.048 313.328 79.68C313.568 79.296 313.736 78.84 313.832 78.312C313.896 77.976 313.992 77.76 314.12 77.664C314.264 77.568 314.544 77.52 314.96 77.52C315.456 77.52 315.744 77.592 315.824 77.736C315.92 77.864 315.984 78.296 316.016 79.032C316.032 79.672 316.064 80.08 316.112 80.256C316.176 80.432 316.32 80.584 316.544 80.712C316.816 80.856 316.936 81.024 316.904 81.216C316.872 81.392 316.696 81.52 316.376 81.6C316.264 81.616 315.784 81.624 314.936 81.624ZM307.64 80.52C307.432 80.6 307.2 80.616 306.944 80.568C306.688 80.52 306.52 80.432 306.44 80.304C306.312 80.048 306.368 79.848 306.608 79.704C306.864 79.544 307.192 79.52 307.592 79.632C307.816 79.696 307.928 79.84 307.928 80.064C307.944 80.288 307.848 80.44 307.64 80.52ZM304.208 80.4C304.096 80.544 303.88 80.608 303.56 80.592C303.256 80.592 303.04 80.52 302.912 80.376C302.752 80.184 302.744 80.008 302.888 79.848C303.032 79.672 303.264 79.584 303.584 79.584C303.92 79.584 304.152 79.672 304.28 79.848C304.408 80.024 304.384 80.208 304.208 80.4ZM307.64 78.864C307.288 78.992 306.968 78.984 306.68 78.84C306.392 78.68 306.312 78.48 306.44 78.24C306.536 78.048 306.808 77.952 307.256 77.952C307.72 77.936 308 78.016 308.096 78.192C308.144 78.288 308.12 78.408 308.024 78.552C307.928 78.696 307.8 78.8 307.64 78.864ZM304.112 78.84C303.84 78.984 303.408 78.984 302.816 78.84C302.24 78.68 301.952 78.496 301.952 78.288C301.952 78.16 302.224 78.064 302.768 78C303.312 77.92 303.72 77.92 303.992 78C304.2 78.08 304.32 78.216 304.352 78.408C304.384 78.6 304.304 78.744 304.112 78.84ZM36.128 122.016C36.288 122.08 36.528 122.088 36.848 122.04C37.168 121.992 37.464 121.912 37.736 121.8L37.76 121.776C37.968 121.68 38.088 121.584 38.12 121.488C38.152 121.392 38.168 121.08 38.168 120.552C38.168 120.472 38.168 120.416 38.168 120.384C38.168 119.664 38.216 119.24 38.312 119.112C38.408 118.968 38.736 118.848 39.296 118.752H39.344C40.656 118.544 41.456 118.408 41.744 118.344C42.032 118.28 42.176 118.184 42.176 118.056C42.176 117.976 42.104 117.936 41.96 117.936C41.816 117.92 41.32 117.928 40.472 117.96H40.424C40.264 117.96 40.048 117.968 39.776 117.984C39.168 118.016 38.784 118.008 38.624 117.96C38.384 117.896 38.24 117.712 38.192 117.408C38.144 117.2 38.128 116.68 38.144 115.848C38.144 115.48 38.144 115.192 38.144 114.984C38.144 114.76 38.144 114.464 38.144 114.096C38.128 113.296 38.144 112.784 38.192 112.56C38.224 112.272 38.344 112.088 38.552 112.008C38.696 111.96 39.032 111.936 39.56 111.936C39.8 111.936 39.992 111.936 40.136 111.936C41.112 111.92 41.68 111.888 41.84 111.84C42.016 111.776 41.968 111.616 41.696 111.36C41.44 111.088 41.4 110.704 41.576 110.208C41.752 109.696 42.048 109.328 42.464 109.104C42.896 108.88 42.824 108.744 42.248 108.696C40.088 108.536 39.008 108.264 39.008 107.88C39.008 107.736 39.256 107.408 39.752 106.896C40.248 106.368 40.584 106.08 40.76 106.032C40.968 105.984 41.072 105.912 41.072 105.816C41.072 105.72 40.976 105.56 40.784 105.336C40.576 105.096 40.496 104.92 40.544 104.808C40.608 104.696 40.824 104.616 41.192 104.568C41.592 104.504 41.872 104.44 42.032 104.376C42.208 104.296 42.336 104.184 42.416 104.04C42.496 103.88 42.52 103.712 42.488 103.536C42.472 103.344 42.408 103.224 42.296 103.176C42.072 103.096 41.944 102.8 41.912 102.288C41.88 101.952 41.832 101.784 41.768 101.784C41.704 101.768 41.616 101.912 41.504 102.216C41.376 102.568 41.232 102.808 41.072 102.936C40.912 103.048 40.68 103.104 40.376 103.104C39.88 103.104 39.6 102.904 39.536 102.504C39.472 102.088 39.664 101.76 40.112 101.52C40.384 101.36 40.104 100.92 39.272 100.2C38.952 99.912 38.736 99.768 38.624 99.768C38.512 99.784 38.328 99.952 38.072 100.272C37.72 100.72 37.288 100.944 36.776 100.944C36.264 100.944 35.552 100.736 34.64 100.32C34.576 100.288 34.488 100.248 34.376 100.2C33.992 100.008 33.768 99.936 33.704 99.984C33.656 100.032 33.632 100.272 33.632 100.704C33.632 100.848 33.632 100.96 33.632 101.04C33.632 102.048 33.536 102.824 33.344 103.368C33.152 103.896 32.8 104.376 32.288 104.808C32.128 104.936 32.048 105.056 32.048 105.168C32.048 105.28 32.136 105.32 32.312 105.288C32.52 105.256 32.736 105.432 32.96 105.816C33.04 105.96 33.096 106.048 33.128 106.08C33.176 106.096 33.24 106.072 33.32 106.008C33.464 105.896 33.632 105.896 33.824 106.008C34.032 106.12 34.224 106.32 34.4 106.608C34.56 106.864 34.88 107.28 35.36 107.856C35.6 108.176 35.416 108.552 34.808 108.984C34.216 109.416 33.296 109.832 32.048 110.232C31.68 110.344 31.464 110.432 31.4 110.496C31.336 110.544 31.36 110.624 31.472 110.736C31.6 110.832 32.2 110.744 33.272 110.472C34.344 110.184 35.256 109.872 36.008 109.536C36.424 109.344 36.72 109.256 36.896 109.272C37.088 109.288 37.472 109.432 38.048 109.704C38.672 109.992 39.032 110.224 39.128 110.4C39.224 110.56 39.112 110.784 38.792 111.072C38.648 111.2 38.28 111.272 37.688 111.288C37.096 111.304 35.072 111.312 31.616 111.312C31.472 111.312 31.256 111.312 30.968 111.312C28.472 111.312 26.824 111.304 26.024 111.288C24.824 111.288 24 111.264 23.552 111.216C23.104 111.152 22.872 111.056 22.856 110.928C22.84 110.848 22.944 110.68 23.168 110.424C23.2 110.376 23.224 110.344 23.24 110.328C23.544 109.96 23.728 109.704 23.792 109.56C23.808 109.528 23.832 109.488 23.864 109.44C24.056 109.12 24.256 108.936 24.464 108.888C24.672 108.84 25.32 108.816 26.408 108.816C26.6 108.816 26.752 108.816 26.864 108.816C27.792 108.832 28.4 108.848 28.688 108.864C29.056 108.88 29.288 108.928 29.384 109.008C29.464 109.072 29.504 109.2 29.504 109.392C29.504 109.552 29.576 109.648 29.72 109.68C29.88 109.696 30.168 109.64 30.584 109.512C30.968 109.384 31.192 109.264 31.256 109.152C31.32 109.024 31.352 108.656 31.352 108.048C31.352 108 31.352 107.96 31.352 107.928C31.352 107.256 31.368 106.856 31.4 106.728C31.432 106.584 31.544 106.44 31.736 106.296L31.784 106.272C32.008 106.128 32.096 105.992 32.048 105.864C32 105.736 31.784 105.496 31.4 105.144C30.872 104.664 30.848 104.392 31.328 104.328C31.648 104.264 31.792 104.144 31.76 103.968C31.728 103.792 31.512 103.504 31.112 103.104C30.712 102.736 30.528 102.504 30.56 102.408C30.608 102.296 30.904 102.224 31.448 102.192C32.088 102.16 32.392 102.016 32.36 101.76C32.328 101.504 31.968 101.12 31.28 100.608C30.96 100.352 30.744 100.232 30.632 100.248C30.52 100.264 30.344 100.432 30.104 100.752C29.848 101.104 29.6 101.336 29.36 101.448C29.136 101.544 28.864 101.56 28.544 101.496C28.352 101.464 28.232 101.384 28.184 101.256C28.136 101.112 28.176 100.976 28.304 100.848C28.48 100.704 28.44 100.56 28.184 100.416C27.928 100.272 27.376 100.08 26.528 99.84C26.496 99.824 26.448 99.808 26.384 99.792C26.128 99.728 25.976 99.712 25.928 99.744C25.896 99.776 25.888 99.944 25.904 100.248C25.904 100.312 25.904 100.36 25.904 100.392C25.92 100.824 25.864 101.112 25.736 101.256C25.592 101.416 25.28 101.504 24.8 101.52C24.4 101.536 23.632 101.504 22.496 101.424C22.048 101.392 21.792 101.376 21.728 101.376C21.6 101.36 21.536 101.392 21.536 101.472C21.552 101.536 21.632 101.704 21.776 101.976C21.792 102.008 21.816 102.048 21.848 102.096C21.96 102.288 22.048 102.4 22.112 102.432C22.192 102.448 22.4 102.424 22.736 102.36C22.816 102.344 22.872 102.336 22.904 102.336C23.368 102.256 23.912 102.208 24.536 102.192C25.16 102.176 25.536 102.208 25.664 102.288C25.856 102.416 25.944 102.64 25.928 102.96C25.928 103.28 25.832 103.488 25.64 103.584C25.528 103.648 25.024 103.672 24.128 103.656C23.232 103.624 22.664 103.576 22.424 103.512C22.264 103.464 22.28 103.632 22.472 104.016C22.84 104.816 22.92 106.016 22.712 107.616C22.504 109.2 22.112 110.336 21.536 111.024C21.392 111.2 21.336 111.336 21.368 111.432C21.416 111.512 21.536 111.512 21.728 111.432C22 111.304 22.248 111.448 22.472 111.864C22.584 112.056 22.672 112.168 22.736 112.2C22.816 112.232 22.968 112.216 23.192 112.152C23.832 111.992 24.424 111.92 24.968 111.936C25.512 111.952 25.84 112.056 25.952 112.248C26.016 112.36 26.04 113.352 26.024 115.224C26.024 117.096 25.992 118.088 25.928 118.2C25.832 118.344 25.576 118.44 25.16 118.488C24.76 118.52 23.872 118.544 22.496 118.56C22.448 118.56 22.392 118.56 22.328 118.56C22.056 118.56 21.912 118.6 21.896 118.68C21.896 118.76 21.992 119.04 22.184 119.52C22.232 119.664 22.272 119.776 22.304 119.856C22.336 119.92 22.368 120.008 22.4 120.12C22.624 120.696 22.76 121.016 22.808 121.08C22.872 121.16 22.984 121.144 23.144 121.032C23.176 121 23.2 120.976 23.216 120.96C23.408 120.816 23.68 120.712 24.032 120.648C24.416 120.584 25.48 120.456 27.224 120.264C30.264 119.944 32.776 119.648 34.76 119.376C35.368 119.296 35.736 119.336 35.864 119.496C35.992 119.64 36.032 120.088 35.984 120.84C35.952 121.32 35.944 121.624 35.96 121.752C35.976 121.896 36.032 121.984 36.128 122.016ZM29.36 118.392C28.96 118.408 28.68 118.392 28.52 118.344C28.456 118.312 28.392 118.288 28.328 118.272C28.136 118.256 28.064 118.024 28.112 117.576C28.176 117.112 28.304 116.832 28.496 116.736C28.624 116.656 29.816 116.616 32.072 116.616C34.328 116.616 35.52 116.656 35.648 116.736C35.872 116.864 35.992 117.08 36.008 117.384C36.024 117.688 35.928 117.912 35.72 118.056C35.592 118.136 34.4 118.216 32.144 118.296C31.76 118.312 31.2 118.328 30.464 118.344C29.856 118.36 29.488 118.376 29.36 118.392ZM32.072 115.992C29.752 115.992 28.528 115.944 28.4 115.848C28.176 115.704 28.08 115.456 28.112 115.104C28.144 114.736 28.28 114.504 28.52 114.408C28.648 114.36 29.832 114.336 32.072 114.336C34.328 114.336 35.512 114.36 35.624 114.408C35.864 114.504 36 114.736 36.032 115.104C36.064 115.456 35.968 115.704 35.744 115.848C35.616 115.944 34.392 115.992 32.072 115.992ZM32.072 113.688C29.752 113.688 28.528 113.64 28.4 113.544C28.192 113.416 28.096 113.16 28.112 112.776C28.144 112.376 28.264 112.12 28.472 112.008C28.6 111.944 29.8 111.912 32.072 111.912C34.36 111.912 35.56 111.944 35.672 112.008C35.88 112.12 35.992 112.376 36.008 112.776C36.04 113.16 35.952 113.416 35.744 113.544C35.632 113.64 34.408 113.688 32.072 113.688ZM29.144 108.072C28.744 108.248 28.408 108.256 28.136 108.096C27.88 107.92 27.752 107.608 27.752 107.16C27.752 106.712 27.888 106.408 28.16 106.248C28.432 106.072 28.752 106.08 29.12 106.272C29.376 106.4 29.504 106.704 29.504 107.184C29.52 107.648 29.4 107.944 29.144 108.072ZM25.76 108.048C25.568 108.144 25.328 108.176 25.04 108.144C24.752 108.096 24.576 108.008 24.512 107.88C24.464 107.784 24.44 107.568 24.44 107.232C24.456 106.88 24.488 106.64 24.536 106.512C24.616 106.352 24.784 106.248 25.04 106.2C25.312 106.136 25.552 106.16 25.76 106.272C26 106.384 26.12 106.68 26.12 107.16C26.12 107.624 26 107.92 25.76 108.048ZM36.944 107.28C36.688 107.392 36.28 107.272 35.72 106.92C35.176 106.552 34.976 106.264 35.12 106.056C35.2 105.944 35.608 105.88 36.344 105.864C37.096 105.848 37.528 105.904 37.64 106.032C37.768 106.144 37.752 106.352 37.592 106.656C37.432 106.944 37.216 107.152 36.944 107.28ZM26.96 105.504C25.6 105.504 24.824 105.472 24.632 105.408C24.072 105.2 23.776 105.008 23.744 104.832C23.728 104.656 23.976 104.528 24.488 104.448C24.776 104.416 25.656 104.392 27.128 104.376C28.6 104.36 29.392 104.368 29.504 104.4C29.728 104.464 29.8 104.616 29.72 104.856C29.656 105.08 29.488 105.264 29.216 105.408C29.072 105.472 28.32 105.504 26.96 105.504ZM36.272 105.192C35.136 105.192 34.472 105.184 34.28 105.168C33.944 105.12 33.768 105.032 33.752 104.904C33.736 104.776 33.88 104.592 34.184 104.352C34.92 103.76 35.352 103.048 35.48 102.216C35.528 101.944 35.632 101.76 35.792 101.664C35.952 101.568 36.248 101.52 36.68 101.52C37.208 101.52 37.52 101.584 37.616 101.712C37.712 101.824 37.776 102.192 37.808 102.816C37.84 103.376 37.872 103.736 37.904 103.896C37.936 104.056 38.032 104.208 38.192 104.352C38.56 104.72 38.52 104.992 38.072 105.168C38.008 105.184 37.408 105.192 36.272 105.192ZM28.952 103.536C28.632 103.728 28.352 103.696 28.112 103.44C27.872 103.184 27.832 102.88 27.992 102.528C28.088 102.32 28.376 102.2 28.856 102.168C29.352 102.136 29.64 102.216 29.72 102.408C29.752 102.488 29.672 102.68 29.48 102.984C29.288 103.272 29.112 103.456 28.952 103.536ZM53.36 121.944C53.664 122.104 54.088 122.072 54.632 121.848C55.192 121.624 55.472 121.368 55.472 121.08C55.472 121.048 55.472 120.992 55.472 120.912C55.472 120.672 55.52 120.512 55.616 120.432C55.744 120.336 56.064 120.28 56.576 120.264C56.928 120.248 57.792 120.24 59.168 120.24C59.456 120.24 59.68 120.24 59.84 120.24C60.048 120.24 60.344 120.24 60.728 120.24C62.04 120.24 62.872 120.248 63.224 120.264C63.704 120.296 64 120.36 64.112 120.456C64.192 120.536 64.224 120.712 64.208 120.984C64.192 121.064 64.184 121.128 64.184 121.176C64.152 121.576 64.232 121.816 64.424 121.896C64.616 121.992 64.96 121.96 65.456 121.8C66.048 121.592 66.392 121.392 66.488 121.2C66.6 121.008 66.64 120.512 66.608 119.712C66.4 114.944 66.52 112.56 66.968 112.56C67.016 112.56 67.104 112.512 67.232 112.416C67.36 112.304 67.424 112.224 67.424 112.176C67.424 112.096 67.184 111.848 66.704 111.432C66.224 111.016 65.816 110.712 65.48 110.52C65.336 110.44 65.216 110.424 65.12 110.472C65.024 110.52 64.84 110.696 64.568 111C64.536 111.048 64.488 111.104 64.424 111.168C64.216 111.408 63.968 111.552 63.68 111.6C63.392 111.632 62.464 111.648 60.896 111.648C60.4 111.648 60.008 111.648 59.72 111.648C59.432 111.648 59.04 111.648 58.544 111.648C57.056 111.648 56.144 111.632 55.808 111.6C55.488 111.568 55.08 111.44 54.584 111.216C54.392 111.136 54.24 111.072 54.128 111.024C54.08 111.008 54.008 110.976 53.912 110.928C53.448 110.736 53.184 110.648 53.12 110.664C53.056 110.68 53.04 110.84 53.072 111.144C53.088 111.208 53.096 111.256 53.096 111.288C53.224 112.408 53.296 113.904 53.312 115.776C53.328 117.632 53.28 119.328 53.168 120.864C53.136 121.28 53.128 121.544 53.144 121.656C53.176 121.784 53.248 121.88 53.36 121.944ZM63.896 119.496C63.784 119.56 62.44 119.584 59.864 119.568C57.288 119.568 55.944 119.544 55.832 119.496C55.672 119.416 55.576 119.296 55.544 119.136C55.512 118.976 55.496 118.56 55.496 117.888C55.496 117.776 55.496 117.616 55.496 117.408C55.48 116.96 55.512 116.672 55.592 116.544C55.688 116.384 55.952 116.28 56.384 116.232C56.704 116.216 57.456 116.208 58.64 116.208C59.152 116.208 59.56 116.208 59.864 116.208C60.168 116.208 60.576 116.208 61.088 116.208C62.272 116.208 63.024 116.216 63.344 116.232C63.776 116.28 64.04 116.384 64.136 116.544C64.216 116.672 64.248 116.96 64.232 117.408C64.232 117.616 64.232 117.776 64.232 117.888C64.232 118.576 64.216 119 64.184 119.16C64.152 119.304 64.056 119.416 63.896 119.496ZM59.864 115.56C57.256 115.56 55.888 115.52 55.76 115.44C55.632 115.344 55.552 115.208 55.52 115.032C55.488 114.856 55.472 114.456 55.472 113.832C55.472 113.736 55.472 113.6 55.472 113.424C55.472 113.008 55.504 112.744 55.568 112.632C55.68 112.488 55.96 112.392 56.408 112.344C56.728 112.328 57.48 112.32 58.664 112.32C59.16 112.32 59.56 112.32 59.864 112.32C60.168 112.32 60.568 112.32 61.064 112.32C62.248 112.32 63 112.328 63.32 112.344C63.768 112.392 64.048 112.488 64.16 112.632C64.224 112.744 64.256 113.008 64.256 113.424C64.256 113.6 64.256 113.736 64.256 113.832C64.256 114.456 64.24 114.856 64.208 115.032C64.176 115.208 64.096 115.344 63.968 115.44C63.856 115.52 62.488 115.56 59.864 115.56ZM49.856 109.32C49.92 109.368 49.984 109.384 50.048 109.368C50.08 109.368 50.16 109.36 50.288 109.344C50.976 109.248 51.472 109.184 51.776 109.152C52.096 109.104 55.224 109.072 61.16 109.056C61.544 109.056 62.088 109.056 62.792 109.056C65.592 109.04 67.368 109.032 68.12 109.032C69.16 109.016 69.816 108.992 70.088 108.96C70.264 108.928 70.352 108.864 70.352 108.768C70.352 108.736 70.352 108.712 70.352 108.696C70.368 108.6 70.208 108.392 69.872 108.072C69.552 107.752 69.152 107.408 68.672 107.04L68.648 107.016C68.28 106.744 68.032 106.624 67.904 106.656C67.792 106.672 67.576 106.896 67.256 107.328C67.224 107.376 67.2 107.408 67.184 107.424C67.152 107.472 67.104 107.544 67.04 107.64C66.752 108.008 66.52 108.224 66.344 108.288C66.184 108.352 65.72 108.384 64.952 108.384C64.792 108.384 64.664 108.384 64.568 108.384C63.704 108.384 63.168 108.368 62.96 108.336C62.656 108.288 62.544 108.176 62.624 108C62.672 107.872 62.904 107.592 63.32 107.16C63.512 106.968 63.904 106.544 64.496 105.888C64.528 105.84 64.552 105.808 64.568 105.792C64.968 105.328 65.208 105.056 65.288 104.976C65.384 104.88 65.488 104.816 65.6 104.784C65.824 104.72 65.92 104.648 65.888 104.568C65.856 104.488 65.688 104.376 65.384 104.232C64.76 103.912 64.544 103.712 64.736 103.632C64.928 103.552 65.712 103.504 67.088 103.488C68.208 103.472 68.864 103.456 69.056 103.44C69.264 103.408 69.392 103.336 69.44 103.224C69.52 103.016 69.096 102.536 68.168 101.784L68.144 101.76C67.632 101.344 67.304 101.144 67.16 101.16C67.032 101.176 66.792 101.424 66.44 101.904L66.416 101.952C66.384 102 66.344 102.056 66.296 102.12C66.056 102.472 65.832 102.68 65.624 102.744C65.416 102.792 64.816 102.816 63.824 102.816C63.6 102.816 63.424 102.816 63.296 102.816C62.24 102.8 61.616 102.792 61.424 102.792C61.248 102.776 61.128 102.736 61.064 102.672C60.888 102.496 60.816 102.208 60.848 101.808C60.88 101.408 61 101.112 61.208 100.92C61.384 100.76 61.36 100.624 61.136 100.512C60.912 100.384 60.36 100.208 59.48 99.984C59.448 99.968 59.392 99.952 59.312 99.936C58.896 99.824 58.656 99.784 58.592 99.816C58.528 99.848 58.504 100.024 58.52 100.344C58.536 100.408 58.544 100.456 58.544 100.488C58.56 100.6 58.576 100.768 58.592 100.992C58.64 101.664 58.64 102.096 58.592 102.288C58.528 102.544 58.312 102.704 57.944 102.768C57.672 102.8 57.032 102.816 56.024 102.816C55.72 102.816 55.48 102.816 55.304 102.816C53.096 102.816 51.544 102.776 50.648 102.696C50.424 102.68 50.304 102.696 50.288 102.744C50.272 102.792 50.352 102.968 50.528 103.272C50.544 103.288 50.56 103.32 50.576 103.368C50.688 103.592 50.776 103.72 50.84 103.752C50.92 103.784 51.096 103.784 51.368 103.752C51.432 103.736 51.488 103.728 51.536 103.728C53.488 103.456 54.464 103.472 54.464 103.776C54.464 103.856 54.544 104.04 54.704 104.328C55.072 105.08 55.368 105.896 55.592 106.776C55.816 107.656 55.848 108.152 55.688 108.264C55.592 108.344 54.808 108.384 53.336 108.384C51.88 108.384 50.664 108.344 49.688 108.264C49.448 108.248 49.328 108.264 49.328 108.312C49.328 108.36 49.4 108.52 49.544 108.792C49.688 109.064 49.792 109.24 49.856 109.32ZM61.256 108.312C61.096 108.376 60.472 108.408 59.384 108.408C58.312 108.392 57.736 108.344 57.656 108.264C57.592 108.184 57.56 108.12 57.56 108.072C57.56 108.008 57.592 107.88 57.656 107.688C57.88 107.16 57.856 106.608 57.584 106.032C57.328 105.44 56.856 104.912 56.168 104.448L56.144 104.424C55.648 104.088 55.392 103.872 55.376 103.776C55.328 103.648 55.576 103.568 56.12 103.536C56.504 103.52 57.472 103.504 59.024 103.488C59.2 103.488 59.44 103.488 59.744 103.488C60.976 103.488 61.752 103.496 62.072 103.512C62.52 103.544 62.792 103.624 62.888 103.752C62.936 103.848 62.92 104.064 62.84 104.4C62.824 104.464 62.808 104.512 62.792 104.544C62.536 105.536 62.256 106.392 61.952 107.112C61.664 107.832 61.432 108.232 61.256 108.312ZM87.248 114.24C88.32 114.384 89.256 114.064 90.056 113.28C90.856 112.48 91.184 111.552 91.04 110.496C90.912 109.6 90.512 108.872 89.84 108.312C89.216 107.784 88.488 107.52 87.656 107.52C86.792 107.52 86.04 107.824 85.4 108.432C84.728 109.072 84.376 109.84 84.344 110.736C84.296 111.584 84.536 112.336 85.064 112.992C85.608 113.696 86.336 114.112 87.248 114.24ZM88.568 113.256C87.752 113.576 86.984 113.48 86.264 112.968C85.544 112.456 85.184 111.76 85.184 110.88C85.184 110.16 85.432 109.56 85.928 109.08C86.408 108.616 86.984 108.376 87.656 108.36C88.344 108.344 88.944 108.592 89.456 109.104C90.112 109.744 90.344 110.52 90.152 111.432C89.96 112.328 89.432 112.936 88.568 113.256Z" fill="#D6D2C7"/>
<defs>
<clipPath id="clip0">
<rect width="351.3" height="218.09" fill="white"/>
</clipPath>
</defs>
</svg>
