<?xml version="1.0" encoding="utf-8"?>
<!-- Generator: Adobe Illustrator 24.2.3, SVG Export Plug-In . SVG Version: 6.00 Build 0)  -->
<svg version="1.1" id="Layer_1" xmlns="http://www.w3.org/2000/svg" xmlns:xlink="http://www.w3.org/1999/xlink" x="0px" y="0px"
	 viewBox="0 0 352 219" style="enable-background:new 0 0 352 219;" xml:space="preserve">
<style type="text/css">
	.st0{clip-path:url(#SVGID_2_);}
	.st1{fill:none;stroke:#D6D2C7;stroke-width:1.3;stroke-miterlimit:10;stroke-dasharray:9.31,9.31;}
	.st2{fill:#D6D2C7;}
</style>
<g>
	<defs>
		<rect id="SVGID_1_" width="351.3" height="218.1"/>
	</defs>
	<clipPath id="SVGID_2_">
		<use xlink:href="#SVGID_1_"  style="overflow:visible;"/>
	</clipPath>
	<g class="st0">
		<path class="st1" d="M350.6,0.6H0.7v216.8h350V0.6z"/>
	</g>
</g>
<path class="st2" d="M22.3,47.4c0.3,0,0.8-0.1,1.2-0.3c0.3-0.1,0.4-0.2,0.5-0.3c0-0.1,0.1-0.2,0.1-0.6c0-0.4,0.1-0.6,0.2-0.7
	c0.1-0.1,0.5-0.1,1-0.1c0.5,0,0.9,0,1,0.1c0.1,0.1,0.2,0.4,0.2,0.8c0,0.4,0.1,0.7,0.2,0.7s0.4,0.1,0.8,0c0.5-0.1,0.8-0.3,0.9-0.5
	c0.1-0.2,0.2-0.5,0.1-1.2c0-0.8,0-1.2,0.1-1.3c0.1-0.1,0.4-0.3,0.9-0.5c0.3-0.1,0.8-0.3,1.4-0.5c0.7-0.3,1.1-0.3,1.2-0.3
	c0.1,0.1,0.2,0.4,0.2,0.9c0,0.5-0.1,0.8-0.2,0.9c-0.1,0.1-0.5,0.2-1.1,0.3c-0.1,0-0.2,0-0.4,0c-0.3,0-0.4,0.1-0.5,0.1
	s-0.1,0-0.1,0.1c0,0,0.1,0.4,0.4,1c0.3,0.6,0.4,1,0.5,1.1c0,0.1,0.1,0.1,0.1,0.1c0,0,0.1-0.1,0.3-0.2c0.2-0.2,0.3-0.3,0.5-0.4
	c0.2-0.1,0.7-0.3,1.4-0.6c2.8-1.2,4.2-1.8,4.3-1.9c0-0.1,0.2,0,0.6,0.4c1,1.1,1.9,1.9,2.8,2.4c0.2,0.1,0.4,0.2,0.4,0.1
	s0.1-0.1,0.1-0.3c0.2-0.7,0.6-1.2,1.2-1.4c0.3-0.1,0.4-0.2,0.4-0.3c0-0.1-0.2-0.2-0.5-0.3c-1.2-0.4-2.2-0.8-3-1.3
	C39.2,43.4,39,43.2,39,43c0-0.1,0.3-0.3,0.8-0.6c0.2-0.1,0.6-0.3,1.2-0.6c0.4-0.2,0.7-0.3,0.8-0.3c0.4,0,0.4-0.2-0.1-0.5
	c-0.4-0.3-0.6-0.5-0.6-0.6c0-0.1,0.3-0.2,0.9-0.2c0.6,0,1-0.1,1-0.3c0-0.2-0.3-0.5-0.9-1.1c-0.4-0.3-0.6-0.5-0.6-0.6
	c0-0.1,0-0.2,0.2-0.3c0.2-0.1,0.3-0.2,0.3-0.4c0-0.2-0.2-0.4-0.6-0.8c-0.4-0.4-0.5-0.6-0.5-0.7c0-0.1,0.3-0.2,0.7-0.2
	c0.5,0,0.8-0.1,0.9-0.3c0-0.2-0.2-0.5-0.6-0.9c-0.5-0.5-0.8-0.7-1-0.7c-0.2,0-0.4,0.2-0.7,0.6c-0.4,0.5-0.7,0.7-1.1,0.5
	c-0.1-0.1-0.2-0.2-0.2-0.3c0-0.1,0-0.2,0.1-0.3c0.1-0.1,0.1-0.2,0.1-0.2c-0.1-0.1-0.2-0.2-0.5-0.3c-0.4-0.2-0.7-0.3-0.7-0.4
	c-0.1-0.1,0-0.2,0.1-0.4c0.1-0.1,0.2-0.2,0.3-0.3c0.2-0.3,0.5-0.4,1-0.4c0.5,0,0.8,0.2,0.8,0.6c0,0.1,0.1,0.2,0.1,0.3
	c0.1,0,0.2,0,0.5,0c0.6-0.1,0.9-0.2,1-0.4c0.1-0.1,0.2-0.5,0.1-1.2c0-0.6,0-1,0-1.2c0-0.2,0.2-0.3,0.4-0.4c0.2-0.1,0.3-0.3,0.2-0.4
	c-0.1-0.2-0.3-0.4-0.7-0.7c-0.4-0.3-0.7-0.5-0.8-0.5c-0.1,0-0.3,0.1-0.5,0.3c-0.4,0.4-0.7,0.6-1.1,0.6c-0.4,0-1-0.1-1.7-0.5
	c-0.1,0-0.2-0.1-0.4-0.2c-0.4-0.2-0.7-0.3-0.7-0.3c0,0,0,0.3,0,0.9c0,0.9,0.1,1.7,0.1,2.5c0,0.8,0,1.3,0,1.4c0,0.1,0.1,0.2,0.1,0.2
	c0.2,0.1,0.2,0.3,0.2,0.8c0,0.4-0.1,0.7-0.3,0.8c-0.2,0.1-0.5,0.2-0.9,0.1c-0.4,0-0.6-0.1-0.8-0.3c-0.2-0.2-0.2-0.3,0-0.5
	c0.1-0.1,0.1-0.1,0.1-0.2c0-0.1-0.2-0.2-0.6-0.4c-0.4-0.2-0.7-0.3-0.9-0.4c-0.2,0-0.4-0.1-0.5-0.1c-0.2,0-0.3,0-0.3,0
	c0,0,0,0.2,0,0.6c0,0.6-0.1,1-0.5,1.1c-0.4,0.1-1.1,0.1-2.3,0c-0.3,0-0.4,0-0.4,0c0,0,0,0.2,0.2,0.5c0,0,0,0.1,0.1,0.1
	c0.1,0.2,0.2,0.3,0.2,0.4c0.1,0,0.2,0,0.5-0.1c0.1,0,0.2,0,0.2,0c0.8-0.2,1.4-0.2,1.7,0c0.4,0.2,0.4,0.5,0.2,1
	c-0.2,0.4-0.9,0.4-2.2,0.2c-0.2,0-0.3,0-0.3,0c0,0,0,0.2,0.2,0.6s0.3,0.5,0.3,0.5c0.1,0,0.2,0,0.5-0.1c1.1-0.3,1.7-0.1,1.7,0.6
	c0,0.4-0.1,0.6-0.3,0.7c-0.2,0.1-0.8,0.1-1.7,0.1c-0.1,0-0.2,0-0.3,0c-0.7,0-1.1,0-1.3-0.1c-0.2,0-0.4-0.2-0.8-0.5
	c-0.1-0.1-0.1-0.1-0.2-0.1c0,0-0.1-0.1-0.2-0.2c-0.3-0.2-0.4-0.4-0.5-0.4c0,0-0.2,0.1-0.5,0.4c-0.4,0.4-0.9,0.7-1.6,0.7
	c-0.6,0-1.4-0.2-2.3-0.6c-0.5-0.2-0.8-0.3-0.9-0.4s-0.1,0.1-0.1,0.2c0.1,0.7,0.2,1.9,0.2,3.4c0,1.5,0,2.8,0,3.8c0,0.8,0,1.2,0,1.4
	C22,47.3,22.1,47.4,22.3,47.4z M26.1,44.6c-0.1,0.1-0.4,0.1-0.9,0.1c-0.5,0-0.8-0.1-0.9-0.1c-0.1-0.1-0.2-0.2-0.3-0.4
	c0-0.2,0-0.8,0-1.8c0-0.1,0-0.2,0-0.3c0-0.8,0-1.3,0-1.5c0-0.3,0.1-0.5,0.3-0.6c0.1,0,0.4-0.1,0.7-0.1c0.1,0,0.1,0,0.1,0
	s0.1,0,0.1,0c0.4,0,0.6,0,0.7,0.1c0.1,0.1,0.2,0.3,0.3,0.6c0,0.2,0,0.7,0,1.5c0,0.1,0,0.2,0,0.3c0,1,0,1.7,0,1.9
	C26.4,44.4,26.3,44.5,26.1,44.6z M35.9,44.2c-0.7,0.1-1.1,0.2-1.3,0.2c-0.2,0-0.4-0.1-0.5-0.3c0-0.1-0.1-0.5-0.1-1
	c0-0.1,0-0.1,0-0.2c0,0,0-0.1,0-0.1c0-0.6,0-1,0.1-1.2c0.1-0.2,0.3-0.4,0.6-0.6l0,0c0.5-0.4,0.9-0.6,1.1-0.6c0.2,0,0.3,0.2,0.5,0.7
	c0.2,0.7,0.4,1.3,0.7,2c0.2,0.5,0.3,0.8,0.3,1c0,0-0.4,0.1-1.2,0.3C36.1,44.2,36,44.2,35.9,44.2z M29.6,42.8c-0.5,0.3-0.9,0.5-1,0.4
	c-0.1-0.1-0.2-0.5-0.2-1.3c0-0.1,0-0.2,0-0.3c0-0.5,0-0.8,0-0.9c0.1-0.2,0.2-0.3,0.5-0.3c0.2,0,0.6,0,1.2,0c0.1,0,0.3,0,0.3,0
	c0.9,0,1.4,0,1.6,0c0.2,0,0.3,0.1,0.3,0.2c0,0.2-0.3,0.5-0.8,0.9S30.4,42.3,29.6,42.8z M38.6,42.2c-0.2,0.2-0.4,0.2-0.6,0.2
	c-0.2-0.1-0.4-0.3-0.6-0.6c-0.5-0.7-0.7-1.1-0.6-1.2c0.1-0.2,0.6-0.3,1.5-0.3c0.9,0,1.4,0.1,1.4,0.4C39.8,40.9,39.4,41.4,38.6,42.2z
	 M39.9,39.5c-0.4,0.2-0.7,0.2-0.9,0c-0.3-0.1-0.4-0.4-0.4-0.7c0-0.4,0.2-0.6,0.7-0.8c0.5-0.1,1-0.1,1.5,0.1c0.2,0.1,0.1,0.3-0.1,0.6
	C40.5,39.1,40.2,39.3,39.9,39.5z M35.6,39.6c-0.4,0-0.7,0-0.8,0c-0.3-0.1-0.4-0.3-0.5-0.7c0-0.4,0.1-0.6,0.4-0.8
	c0.1-0.1,0.4-0.1,0.8-0.1c0.4,0,0.7,0,0.8,0.1c0.2,0.1,0.4,0.4,0.3,0.7c0,0.4-0.1,0.6-0.4,0.7C36.3,39.5,36.1,39.5,35.6,39.6z
	 M36.5,37.2c-0.4,0.2-0.9,0.3-1.4,0s-0.8-0.5-0.7-0.9c0.1-0.3,0.4-0.5,1.1-0.6c0.6-0.1,1,0.1,1.2,0.4c0.1,0.2,0.1,0.4,0.1,0.6
	C36.7,37,36.7,37.1,36.5,37.2z M39.5,37.1c-0.2,0.2-0.4,0.2-0.6,0.1s-0.2-0.3-0.2-0.6c0-0.3,0.2-0.5,0.5-0.6
	c0.4-0.1,0.6-0.1,0.9,0.1c0.1,0.1,0,0.2-0.1,0.5C39.8,36.7,39.7,36.9,39.5,37.1z M22.6,37c0,0,0.1,0,0.2,0c0.3-0.1,0.5-0.2,0.9-0.2
	c0.3,0,1.1,0,2.4,0h0c1.2,0,1.9,0,2.1,0c0.2,0,0.4,0,0.4-0.1c0.2-0.1,0.2-0.2,0.1-0.4c-0.1-0.2-0.3-0.4-0.6-0.8
	c-0.5-0.4-0.8-0.7-0.9-0.7c-0.1,0-0.4,0.1-0.6,0.5C26.2,35.7,26,36,25.8,36c-0.1,0.1-0.6,0.1-1.3,0.1c-0.8,0-1.5-0.1-2.1-0.1
	c-0.2,0-0.3,0-0.3,0c0,0,0.1,0.2,0.2,0.5C22.4,36.8,22.5,37,22.6,37z M22.6,33.9c0,0,0.1,0,0.2,0c0.3-0.1,0.5-0.2,0.9-0.2
	c0.3,0,1.1,0,2.4,0c1.3,0,2.1,0,2.3,0c0.2,0,0.4-0.1,0.4-0.2c0.1-0.2-0.2-0.6-0.9-1.2c-0.4-0.3-0.7-0.5-0.8-0.5
	c-0.1,0-0.3,0.2-0.6,0.5c-0.4,0.4-0.6,0.7-0.8,0.8c-0.1,0-0.6,0.1-1.3,0c-0.8,0-1.5-0.1-2.1-0.1c-0.2,0-0.3,0-0.3,0
	c0,0,0.1,0.2,0.2,0.5C22.4,33.7,22.5,33.9,22.6,33.9z M30.2,33.6c0.2,0.1,0.5,0.1,1-0.1c0.4-0.1,0.6-0.3,0.6-0.5
	c0-0.2,0.1-0.4,0.4-0.5c0.3-0.1,0.5-0.1,0.8,0c0.3,0.1,0.5,0.2,0.5,0.5c0,0.2,0.1,0.2,0.4,0.2c0.3,0,0.6-0.1,1-0.3
	c0.2-0.1,0.3-0.2,0.4-0.3c0-0.1,0.1-0.4,0-0.8c0-0.1,0-0.1,0-0.1c0-0.6,0-1,0-1.2c0.1-0.2,0.2-0.4,0.5-0.5c0.1-0.1,0.2-0.2,0.1-0.3
	c0-0.1-0.2-0.3-0.6-0.7c-0.4-0.4-0.6-0.6-0.6-0.7c-0.1-0.1,0-0.2,0.3-0.3c0.2,0,0.7,0,1.5,0c0.7,0,1.4,0,2.1,0c1.2,0,1.9,0,2.1,0
	c1.3,0,2,0,2.2-0.2c0.2-0.2,0-0.5-0.6-1.1s-1-0.8-1.2-0.9c-0.2,0-0.4,0.2-0.7,0.6l0,0c-0.3,0.4-0.5,0.6-0.7,0.7
	c-0.2,0.1-0.6,0.1-1.3,0.1c0,0-0.1,0-0.1,0c-0.8,0-1.3,0-1.4-0.1c-0.1-0.1-0.2-0.2-0.2-0.4s0.1-0.3,0.2-0.5c0.2-0.2,0.2-0.3,0-0.5
	c-0.2-0.1-0.7-0.3-1.6-0.6c0,0-0.1,0-0.1,0c-0.4-0.1-0.6-0.1-0.6-0.1c0,0-0.1,0.1,0,0.4v0c0,0,0,0.1,0,0.1c0,0.6,0,1,0,1.1
	c0,0.2-0.2,0.4-0.6,0.4c-0.2,0-0.8,0-1.7,0c-0.1,0-0.2,0-0.2,0c-1.3,0-2.1,0-2.5-0.1c-0.4,0-0.6-0.1-0.7-0.2
	c-0.1-0.2-0.4-0.4-0.7-0.7c-0.4-0.4-0.6-0.6-0.8-0.7c-0.2-0.2-0.4-0.2-0.5-0.1c-0.1,0-0.3,0.3-0.6,0.7c-0.3,0.4-0.6,0.6-1,0.6
	c-0.4,0-1.3,0-2.9-0.1c-0.3,0-0.4,0-0.4,0c0,0,0.1,0.2,0.2,0.6c0,0,0,0.1,0.1,0.1c0.1,0.2,0.2,0.3,0.3,0.3c0.1,0,0.3,0,0.7-0.1
	c0.1,0,0.2,0,0.2,0c0.6-0.1,1.6-0.1,3-0.2c1.4,0,2.2,0,2.3,0c0,0,0.1,0.2,0.2,0.4c0.2,0.3,0.3,0.4,0.4,0.4c0.1,0,0.2,0,0.3,0.1
	c0.1,0.1,0.1,0.3,0.1,0.5c0,0.4,0,0.7-0.2,0.7c-0.1,0-0.4-0.2-0.9-0.6c-0.4-0.4-0.7-0.5-0.8-0.5c-0.1,0-0.3,0.2-0.6,0.6
	c0,0-0.1,0.1-0.1,0.2c-0.2,0.3-0.5,0.5-0.7,0.6c-0.2,0-0.8,0.1-1.8,0c-0.2,0-0.3,0-0.4,0c-1.2,0-2.1,0-2.7-0.1c-0.4,0-0.6,0-0.6,0
	c0,0,0,0.2,0.2,0.5c0.1,0.3,0.2,0.5,0.3,0.6c0,0,0.4,0,1-0.2c0.3,0,1.5-0.1,3.7-0.1c0.7,0,1.6,0,2.7,0c0.5,0,0.8,0,0.8,0
	c0.4,0,0.5,0.7,0.3,2.2C30,33.2,30,33.5,30.2,33.6z M39.7,31.8c-0.5,0.2-0.9,0.2-1.2-0.2c-0.3-0.4-0.4-0.8-0.2-1.2
	c0.1-0.2,0.3-0.3,0.6-0.3c0.4,0,0.6,0,0.8,0.1c0.2,0.1,0.3,0.4,0.3,0.8C40,31.4,39.9,31.7,39.7,31.8z M33.2,31.8
	c-0.4,0.2-0.7,0.2-1,0c-0.3-0.2-0.4-0.5-0.4-0.9c0-0.4,0.1-0.7,0.4-0.9c0.3-0.2,0.6-0.2,0.9,0c0.3,0.1,0.4,0.4,0.4,0.9
	C33.6,31.4,33.4,31.7,33.2,31.8z M33.3,29.2c-0.4,0.3-1.1,0.2-1.9-0.2c-0.6-0.3-0.8-0.5-0.7-0.6c0.1-0.1,0.6-0.2,1.4-0.3
	c0.8-0.1,1.3-0.1,1.6,0c0.3,0,0.4,0.2,0.4,0.3c0,0.1-0.1,0.2-0.3,0.4C33.5,29,33.4,29.1,33.3,29.2z M53.7,47.4
	c0.1,0.1,0.4,0.1,1-0.1c0.6-0.2,1-0.4,1.2-0.6c0.3-0.3,0.5-0.7,0.6-1.2c0.1-0.5,0.1-1.7,0.1-3.7c0-0.2,0-0.5,0-0.9
	c0-0.8,0-1.4,0-1.7c0-0.3,0.2-0.6,0.3-0.7c0.1-0.1,0.4-0.2,0.9-0.4c0.2-0.1,0.4-0.2,0.5-0.2c1.2-0.5,2-0.8,2.3-1
	c0.3-0.1,0.4-0.3,0.3-0.4c0,0-0.1-0.1-0.2,0s-0.5,0.1-1.1,0.2c-0.3,0-0.5,0.1-0.6,0.1c-0.1,0-0.2,0-0.4,0.1
	c-0.7,0.2-1.2,0.2-1.4,0.2c-0.3,0-0.4-0.1-0.5-0.3c0-0.1-0.1-0.5-0.1-1.1c0-0.1,0-0.2,0-0.3c0-0.1,0-0.2,0-0.4c0-0.5,0-0.8,0.1-1
	c0.1-0.2,0.2-0.3,0.5-0.4c0.2,0,0.6,0,1.4,0c0.2,0,0.4,0,0.5,0c0.1,0,0.2,0,0.4,0c0.7,0,1.2,0,1.4,0c0.3,0,0.5,0.1,0.6,0.3
	c0.1,0.1,0.1,0.4,0.2,0.7c0,0.1,0,0.2,0,0.2c0.3,1.9,0.7,3.7,1.3,5.3c0.1,0.4,0.2,0.6,0.1,0.8c0,0.2-0.2,0.4-0.4,0.7
	c-0.7,0.8-1.5,1.7-2.4,2.5c-1,0.8-1.9,1.5-2.8,2.1c-0.2,0.1-0.3,0.2-0.3,0.2c0,0.3,0.7,0.1,2.1-0.6c1.4-0.7,2.7-1.6,3.7-2.5
	c0.5-0.4,0.8-0.6,1-0.6c0.2,0,0.4,0.2,0.6,0.6c0.8,1.2,1.8,2.2,2.8,3c1.1,0.8,1.9,1,2.6,0.8c0.4-0.1,0.6-0.3,0.6-0.6
	c0.1-0.3,0-0.6-0.3-1.1C70.1,45,70,44.7,70,44.5c0-0.2,0-0.9,0.1-1.8c0.1-1.1,0.2-1.7,0.1-1.7c-0.1-0.1-0.2,0.1-0.5,0.7
	c-0.4,1-0.7,1.6-0.9,1.9c-0.3,0.3-0.6,0.4-1,0.2c-0.3-0.2-0.8-0.6-1.4-1.4c-0.5-0.6-0.8-1-0.8-1.3c0-0.3,0.1-0.6,0.5-1.1
	c0.7-0.9,1.3-1.8,1.8-2.8c0.4-0.8,0.7-1.2,0.9-1.2c0.7,0,0.2-0.4-1.3-1.2c-0.5-0.3-0.9-0.4-1-0.4c-0.1,0-0.2,0-0.2,0.1
	c-0.1,0.5-0.3,1.2-0.6,2c-0.5,1.3-0.9,1.9-1.1,1.8s-0.5-0.9-0.8-2.4c0-0.1,0-0.3-0.1-0.5c-0.1-0.6-0.2-1-0.1-1.2
	c0-0.2,0.3-0.4,0.6-0.5c0.3,0,1-0.1,2-0.1c0.4,0,0.6,0,0.8,0c1.5,0,2.5,0,2.9-0.1c0.5-0.1,0.7-0.2,0.5-0.5c-0.1-0.2-0.6-0.6-1.5-1.2
	c-0.4-0.3-0.7-0.4-0.8-0.4c-0.1,0-0.3,0.2-0.6,0.6l0,0c0,0-0.1,0.1-0.1,0.2c-0.3,0.4-0.6,0.7-0.7,0.7c-0.2,0.1-0.6,0.1-1.3,0.1
	c-0.1,0-0.2,0-0.2,0c-0.1,0-0.2,0-0.3,0c-0.6,0-1,0-1.1-0.1c-0.2-0.1-0.4-0.2-0.4-0.5c0-0.2-0.1-0.7-0.1-1.4c0-0.1,0-0.2,0-0.3
	c-0.1-1.5-0.1-2.5,0-3.2c0-0.7,0.2-1.1,0.4-1.2c0.3-0.2,0.2-0.3-0.2-0.5c-0.3-0.1-0.7-0.1-1.2-0.2c-0.6-0.1-0.9-0.1-1,0
	c-0.1,0-0.1,0.7-0.1,2c0,1.3,0.1,2.7,0.2,4.1c0,0,0,0.1,0,0.2c0,0.4,0,0.7,0,0.8c-0.1,0.2-0.2,0.3-0.5,0.3c-0.2,0-0.7,0-1.4,0
	c-0.1,0-0.3,0-0.3,0c-0.1,0-0.3,0-0.6,0c-0.6,0-1,0-1.2,0c-0.2-0.1-0.4-0.2-0.5-0.5c0-0.2,0-0.6,0-1.2c0-0.3,0-0.5,0-0.6
	c0-1,0-1.6,0-1.8c0-0.2,0.1-0.3,0.3-0.4c0.3-0.1,0.7-0.3,1.3-0.5c0.7-0.2,1.1-0.3,1.4-0.3c0.4,0,0.6-0.1,0.5-0.3
	c-0.1-0.2-0.5-0.6-1.3-1.2c0,0-0.1-0.1-0.1-0.1c-0.3-0.3-0.5-0.4-0.6-0.4c-0.1,0-0.2,0-0.5,0.2c-1,0.6-2.2,1.2-3.7,1.9
	c-1.5,0.7-2.9,1.2-4.3,1.6c-0.2,0.1-0.4,0.1-0.4,0.2c0,0-0.1,0.1,0,0.1c0.1,0.2,1.4,0,4-0.5h0c0.4-0.1,0.7-0.1,0.8-0.1
	c0.1,0,0.2,0.2,0.3,0.4c0,0.2,0,0.6,0,1.3c0,0,0,0.1,0,0.1c0,0.1,0,0.2,0,0.3c0,0.6,0,1,0,1.2c0,0.2-0.2,0.4-0.3,0.5
	c-0.1,0-0.4,0-0.9,0c-0.1,0-0.2,0-0.2,0c-1.3,0-2.4,0-3.4-0.1c-0.3,0-0.4,0-0.5,0c0,0,0,0.2,0.2,0.5c0.1,0.3,0.2,0.5,0.3,0.5
	c0.1,0,0.2,0,0.5,0c1.1-0.2,2.1-0.3,2.9-0.3c0.9,0,1.3,0.1,1.4,0.3c0.1,0.1,0.1,0.7,0.1,1.8s0,1.6-0.1,1.8c-0.1,0.2-0.4,0.3-0.9,0.5
	C53,38,52,38.2,50.5,38.5c-0.1,0-0.3,0-0.5,0.1l-0.7,0.1c0,0,0.1,0.5,0.4,1.3c0.3,0.8,0.5,1.3,0.6,1.3c0,0,0.2-0.1,0.3-0.2
	c0.2-0.2,0.4-0.3,0.5-0.4c0.2-0.1,0.7-0.3,1.4-0.6c0.1,0,0.3-0.1,0.4-0.2c0.6-0.2,0.9-0.3,1.1-0.3c0.2,0,0.4,0.1,0.4,0.4
	c0,0.2,0,0.7,0,1.5c0,0.3,0,0.5,0,0.6c0,0.1,0,0.3,0,0.5c0,0.8,0,1.4,0,1.6c-0.1,0.3-0.2,0.5-0.5,0.6c-0.2,0-0.6,0-1.2,0
	c-0.2,0-0.3,0-0.4,0c-0.9-0.1-1.4-0.1-1.4,0c-0.1,0.1,0,0.2,0.3,0.3c0.7,0.1,1.3,0.3,1.6,0.6c0.4,0.3,0.6,0.8,0.7,1.3
	c0,0,0,0.1,0,0.2L53.7,47.4z M67.2,30.7c0.5,0.2,0.9,0,1.2-0.4c0.3-0.4,0.3-1,0-1.5c-0.4-0.9-1.5-1.6-3.2-2.1
	c-0.4-0.1-0.5-0.1-0.6,0c0,0.1,0.1,0.3,0.4,0.6c0.8,0.9,1.3,1.8,1.6,2.7c0.1,0.3,0.2,0.5,0.2,0.6C66.9,30.6,67,30.7,67.2,30.7z
	 M79.1,47.4c0.2,0.1,0.5,0.1,1-0.1c0.5-0.1,0.8-0.3,1-0.5c0-0.1,0.1-0.1,0.1-0.2c0-0.1,0-0.4,0-0.8c-0.1-2-0.1-4.9-0.1-8.7
	c0-0.2,0-0.4,0-0.7c0-1.6,0-2.5,0-2.8c0-0.3,0.1-0.5,0.3-0.6l0,0c0.1-0.1,0.2-0.2,0.1-0.2c0-0.1-0.2-0.2-0.4-0.5l0,0
	c-0.2-0.3-0.4-0.5-0.4-0.6c0-0.2,0.2-0.6,0.4-1.3c0-0.1,0.1-0.2,0.1-0.2c0-0.1,0.1-0.4,0.3-0.9c0.1-0.4,0.2-0.7,0.3-0.9
	c0.3-0.8,0.5-1.4,0.7-1.6c0.2-0.2,0.4-0.2,0.6,0.1c0.1,0.2,0.1,2.9,0.1,8.3c0,5.4-0.1,8.8-0.2,10.3c0,0.7-0.1,1.2,0,1.4
	c0,0.3,0.1,0.5,0.2,0.6c0.1,0,0.3,0.1,0.6,0c1.1-0.1,1.6-0.6,1.6-1.4c-0.1-1.6-0.1-3.8-0.1-6.5c0-2.8,0-4.2,0.1-4.3
	c0.1-0.1,0.2-0.2,0.3-0.2c0.1,0,0.4-0.1,0.8-0.1c0.5,0,0.9,0,1,0.1c0.1,0.1,0.2,0.3,0.2,0.6c0,0.4,0.1,0.6,0.3,0.6
	c0.2,0,0.6-0.1,1.1-0.3c0,0,0.1,0,0.1,0c0.2-0.1,0.3-0.2,0.3-0.3c0-0.1,0-0.5,0-1.2c0-0.2,0-0.3,0-0.4c-0.1-2.5-0.1-4.1-0.1-4.9
	c0.1-0.8,0.2-1.2,0.5-1.4c0.2-0.1,0.3-0.3,0.3-0.4c0-0.1-0.3-0.3-0.6-0.6c-0.5-0.4-0.8-0.6-1-0.6c-0.2,0-0.4,0.1-0.6,0.3
	c-0.8,0.8-2,0.9-3.8,0.1c-0.6-0.3-0.9-0.4-1-0.4c-0.1,0-0.5-0.1-1.2-0.4c-0.2,0-0.3-0.1-0.4-0.1c-0.1,0-0.2-0.1-0.4-0.1
	c-0.6-0.2-0.9-0.3-1-0.3S80,25.3,80,25.6c0,0.1,0,0.1,0,0.2c-0.1,1.6-0.5,3.5-1.1,5.5c-0.6,2.1-1.2,3.9-2,5.5
	c-0.1,0.2-0.2,0.4-0.2,0.5c0,0.1,0,0.1,0.1,0.1c0.1,0,0.2,0,0.3,0c0.1-0.1,0.3-0.4,0.7-0.9c0.4-0.5,0.6-0.8,0.8-0.9
	c0.1-0.1,0.2,0,0.3,0.2c0.1,0.2,0.1,1.6,0,4.2c0,2.6-0.1,4.6-0.1,6c0,0.7-0.1,1.1,0,1.2C78.8,47.2,78.9,47.3,79.1,47.4z M94.4,47.4
	c0,0,0.3,0,0.7-0.1c1.2-0.2,1.9-0.8,2.1-1.7c0-0.1,0.1-3.1,0.1-8.8c0-5.7,0-8.6,0.1-8.6c0.1-0.2,0.3-0.3,0.5-0.5
	c0.3-0.1,0.3-0.3,0.2-0.5c-0.1-0.2-0.5-0.6-1.1-1c-0.4-0.3-0.7-0.5-0.9-0.5c-0.1,0-0.3,0.2-0.6,0.5c-0.7,0.9-2,0.9-3.8,0.2
	c-0.5-0.2-0.8-0.3-0.9-0.3c-0.1,0-0.1,0.1-0.1,0.2c0,0.1,0,0.3,0,0.6c0,0.1,0,0.2,0,0.3c0,0.2,0,0.4,0,0.5c0.1,0.5,0.1,1.4,0.1,2.7
	c0,1.3,0,2.4,0,3.3c0,0.1,0,0.3,0,0.6c0,0.8-0.1,1.3-0.1,1.5c0,0.1,0,0.2,0.1,0.3l0,0c0.2,0.2,0.5,0.2,1,0c0.5-0.2,0.7-0.4,0.7-0.6
	c0-0.4,0.4-0.6,1.1-0.6c0.7-0.1,1.2,0,1.4,0.3c0.1,0.1,0.1,1.6,0.1,4.7c0,3,0,4.6-0.1,4.7c-0.1,0.2-0.3,0.3-0.6,0.3
	c-0.3,0-1,0-2.1,0c-0.4,0-0.5,0-0.6,0c-0.1,0.1,0.1,0.3,0.6,0.3c1.1,0.3,1.8,0.9,1.9,1.8C94.3,47.2,94.4,47.3,94.4,47.4z M86.4,34.2
	c-0.5,0-0.8,0-1-0.1c-0.2-0.1-0.3-0.5-0.3-1.2c0-0.7,0-1.2,0.1-1.4c0.2-0.2,0.6-0.3,1.1-0.3c0.6,0,1,0.1,1.1,0.3
	c0.1,0.2,0.2,0.6,0.1,1.4c0,0.7-0.1,1.1-0.3,1.2C87.3,34.1,87,34.2,86.4,34.2z M93.9,34.2c-0.7,0-1-0.1-1.2-0.2
	c-0.1-0.1-0.2-0.6-0.1-1.4c0-0.7,0.1-1.1,0.2-1.2c0.1-0.1,0.5-0.2,1.1-0.2s1,0.1,1.1,0.2c0.1,0.1,0.2,0.5,0.2,1.2c0,0.6,0,1,0,1.1
	c0,0.2-0.1,0.3-0.2,0.4c-0.1,0.1-0.1,0.1-0.2,0.1C94.6,34.2,94.3,34.2,93.9,34.2z M86.4,30.5c-0.5,0-0.8,0-1-0.1
	c-0.2-0.1-0.3-0.6-0.3-1.3c0-0.8,0.1-1.2,0.3-1.3c0.1-0.1,0.4-0.1,1-0.1c0.5,0,0.8,0,1,0.1c0.2,0.1,0.3,0.6,0.3,1.3
	c0,0.8-0.1,1.2-0.3,1.3C87.3,30.4,87,30.5,86.4,30.5z M93.9,30.5c-0.5,0-0.9,0-1-0.1c-0.2-0.1-0.3-0.6-0.3-1.3
	c0-0.8,0.1-1.2,0.3-1.3c0.1-0.1,0.5-0.1,1-0.1c0.6,0,0.9,0,1,0.1c0.2,0.1,0.3,0.6,0.3,1.3c0,0.8-0.1,1.2-0.3,1.3
	C94.8,30.4,94.5,30.5,93.9,30.5z M110.4,47.2c0.2,0.3,0.7-0.1,1.6-1.2c0.9-1.1,1.6-2.2,2.1-3.3c0.3-0.6,0.4-0.9,0.6-0.9
	c0.1,0,0.3,0.2,0.6,0.8c0.8,1.7,1.7,2.9,3,3.5c1.2,0.6,3.2,0.9,5.8,0.9c0.8,0,1.3,0,1.4-0.1c0.1,0,0.2-0.1,0.2-0.3
	c0.1-0.7,0.4-1.2,0.7-1.4c0.2-0.1,0.3-0.2,0.3-0.3c0,0-0.2-0.1-0.6-0.1c-0.3,0-1,0-2.1,0c-0.2,0-0.6,0-1,0c-1,0-1.7,0-2-0.1
	c-0.4-0.1-0.6-0.3-0.7-0.6c-0.1-0.2-0.1-0.7-0.1-1.5c0-0.3,0-0.6,0-0.8c0-0.2,0-0.5,0-0.9c0-0.7,0-1.1,0-1.3
	c0.1-0.3,0.2-0.4,0.5-0.5c0.2,0,0.7-0.1,1.4-0.1c0.4,0,0.7,0,0.9,0c1.3,0,2.1,0,2.3,0c0.2,0,0.4-0.1,0.5-0.2
	c0.1-0.2-0.2-0.7-1.2-1.4l0,0c-0.4-0.4-0.7-0.6-0.9-0.6s-0.4,0.2-0.7,0.7l0,0c-0.3,0.4-0.5,0.6-0.7,0.7c-0.1,0.1-0.5,0.1-1,0.1
	c-0.6,0-0.9-0.1-1-0.2s-0.1-0.6-0.1-1.4c0-0.6,0-1,0.1-1.2c0-0.2,0.1-0.3,0.3-0.4c0.4-0.2,0.1-0.5-0.9-0.8c-0.6-0.2-0.9-0.3-0.9-0.5
	c0-0.1,0.2-0.4,0.6-0.9c0.6-0.6,1.2-1.3,1.7-2c0.3-0.5,0.6-0.7,0.7-0.8c0.1-0.1,0.3-0.1,0.4,0c0.2,0.1,0.6,0.5,1,1.2
	c0.4,0.6,0.8,1.2,1.1,1.7c0.2,0.4,0.4,0.6,0.7,0.6c0.3,0,0.6,0,0.8-0.3c0.2-0.2,0.4-0.5,0.4-0.9c0-1.2-1-2.2-3-3
	c-0.4-0.2-0.6-0.3-0.6-0.4c0-0.1,0.1-0.5,0.3-1c0.3-0.5,0.4-0.9,0.4-0.9c0.1-0.4,0.3-0.6,0.6-0.7c0.2-0.1,0.2-0.2,0-0.4
	c-0.2-0.1-0.7-0.3-1.4-0.6c-0.8-0.3-1.2-0.4-1.4-0.4c-0.1,0-0.2,0.1-0.2,0.3c0,0.6-0.1,1.4-0.4,2.4c-0.2,1-0.5,1.9-0.8,2.7
	c-0.2,0.5-0.4,0.8-0.5,0.9c-0.1,0.1-0.3-0.1-0.4-0.4c-0.3-0.6-0.9-1.1-1.6-1.5c-0.4-0.2-0.7-0.4-0.7-0.6c0-0.2,0.1-0.5,0.3-1.2
	c0.2-0.5,0.4-0.8,0.4-1c0.1-0.1,0.2-0.2,0.4-0.3c0.3-0.1,0.3-0.2,0-0.4c-0.2-0.1-0.8-0.4-1.8-0.7c0,0-0.1,0-0.1,0
	c-0.5-0.2-0.8-0.3-0.8-0.2c-0.1,0-0.2,0.1-0.2,0.3c0,0,0,0.1,0,0.1c-0.1,1.4-0.4,2.9-0.9,4.5c-0.5,1.5-1.1,2.9-1.9,4
	c-0.2,0.4-0.3,0.6-0.3,0.7s0.3,0,0.6-0.3c1-0.8,1.9-1.9,2.8-3.3c0.4-0.7,0.8-1,1.1-0.9c0.3,0.1,0.6,0.6,0.9,1.6
	c0.1,0.3,0.2,0.5,0.3,0.6c0.1,0.1,0.4,0.1,0.7,0.1c0.3,0,0.5,0.1,0.5,0.2c0,0.1-0.1,0.4-0.3,0.7c-0.1,0.2-0.2,0.3-0.2,0.4
	c0,0,0,0.1,0.1,0.2s0.1,1.6,0.1,4.6c0,3,0,4.5-0.1,4.7c-0.2,0.3-0.6,0.2-1.1-0.3c-0.5-0.4-1-1-1.4-1.8c-0.2-0.4-0.3-0.7-0.4-0.9
	c0-0.2,0-0.6,0.1-1.1c0.1-0.4,0.2-0.9,0.3-1.6c0.1-0.8,0.3-1.2,0.5-1.4c0.2-0.1,0.2-0.3-0.1-0.4c-0.3-0.1-0.9-0.3-1.8-0.4
	c0,0-0.1,0-0.2,0c-0.4-0.1-0.7-0.1-0.7-0.1c-0.1,0-0.1,0.1-0.1,0.4c0,0,0,0.1,0,0.1c0.2,1.9,0,3.9-0.4,5.8c-0.4,2-1.1,3.6-2,5
	C110.4,47,110.4,47.2,110.4,47.2z M107.8,47.4c0.2,0.1,0.5,0.1,0.8,0c0.4-0.1,0.7-0.2,1.1-0.4l0,0c0.2-0.1,0.2-0.2,0.3-0.3
	c0-0.1,0-0.4,0-1c-0.1-1.8-0.1-4.3-0.1-7.5c0-1.4,0-2.2,0.1-2.5c0-0.3,0.1-0.4,0.3-0.5c0.3-0.2,0.3-0.3,0-0.4
	c-0.4-0.2-0.4-0.5-0.1-0.9c0.7-0.9,1.1-1.5,1.4-1.8c0.3-0.3,0.5-0.5,0.6-0.5c0.1,0,0.2-0.1,0.2-0.2c0-0.1-0.5-0.4-1.3-0.9
	c-0.8-0.5-1.3-0.7-1.4-0.7c0,0-0.1,0.2-0.2,0.5c-0.3,1.1-0.9,2.4-1.7,3.8c-0.8,1.4-1.6,2.7-2.6,4c-0.4,0.4-0.4,0.6-0.1,0.6
	c0.1,0,0.8-0.5,1.9-1.5c0.5-0.4,0.8-0.5,0.9-0.2c0.1,0.2,0.1,1.3,0.1,3.4c0,2.1-0.1,3.9-0.2,5.3c0,0.7-0.1,1.1,0,1.2
	C107.6,47.2,107.7,47.3,107.8,47.4z M105,31.9c0,0.1,0.1,0.1,0.3,0c0.2-0.1,0.5-0.3,1-0.6c0.7-0.5,1.6-1.1,2.5-1.9
	c1-0.8,1.6-1.4,1.9-1.8c0.3-0.4,0.6-0.6,0.9-0.6c0.3,0,0.4-0.1,0.3-0.2c-0.1-0.1-0.3-0.3-0.8-0.6c-0.5-0.3-0.8-0.5-1.1-0.7
	c0,0-0.1,0-0.1-0.1c-0.4-0.2-0.5-0.3-0.6-0.3c-0.1,0-0.2,0.2-0.3,0.6c-0.7,1.7-1.9,3.6-3.6,5.6c0,0-0.1,0.1-0.1,0.2
	c-0.2,0.2-0.3,0.4-0.3,0.4C104.9,31.8,104.9,31.8,105,31.9z M137.5,47.3c0.3,0.2,0.7,0.1,1.3,0c0.5-0.2,0.8-0.4,0.9-0.7
	c0,0,0-0.1,0-0.1c0-0.2,0.1-0.3,0.2-0.4c0.1-0.1,0.4-0.1,0.9-0.1c0.4,0,1.2,0,2.5,0c0.4,0,0.7,0,0.9,0c0.2,0,0.4,0,0.8,0
	c1.4,0,2.3,0,2.6,0c0.5,0,0.8,0.1,1,0.2c0.1,0.1,0.1,0.2,0.1,0.5c0,0,0,0.1,0,0.1c0,0.3,0.2,0.5,0.5,0.6c0.3,0,0.8-0.1,1.3-0.3
	c0,0,0.1,0,0.1,0c0.2-0.1,0.3-0.2,0.3-0.3c0-0.1,0-0.6,0-1.3c0-0.2,0-0.4,0-0.5c0-1.2,0-1.9,0-2.1c0-0.3,0.2-0.5,0.5-0.6
	c0.2-0.1,0.3-0.2,0.1-0.4c-0.1-0.2-0.4-0.5-0.9-0.8c-0.5-0.4-0.8-0.6-1-0.6c-0.1,0-0.4,0.1-0.6,0.4c0,0-0.1,0.1-0.1,0.2
	c-0.2,0.2-0.4,0.4-0.7,0.4c-0.3,0-1.2,0-2.8,0c-0.5,0-0.9,0-1.2,0c-0.3,0-0.6,0-1.1,0c-1.3,0-2.1,0-2.4,0c-0.5,0-0.8-0.1-0.9-0.2
	c-0.1-0.1-0.1-0.2-0.1-0.6c0-0.1,0-0.2,0-0.3c0-0.3,0-0.6,0-0.7c0-0.1,0.1-0.2,0.2-0.3c0.1,0,1.3-0.1,3.7-0.1c2.4,0,3.6,0,3.7,0.1
	c0.2,0.1,0.3,0.3,0.3,0.5s0.2,0.3,0.6,0.3c0.4,0,0.9-0.2,1.3-0.4l0,0c0.2-0.1,0.3-0.2,0.3-0.2c0-0.1,0-0.3,0-0.6c0-0.1,0-0.1,0-0.1
	c-0.1-1-0.1-1.7,0-2c0.1-0.4,0.2-0.6,0.5-0.8c0.2-0.1,0.3-0.2,0.3-0.3c0-0.1,0.2-0.3,0.5-0.4c0.5-0.3,1-0.6,1.6-1.1
	c0.5-0.4,0.8-0.6,1-0.6c0.4,0,0.5-0.1,0.4-0.3c-0.1-0.2-0.4-0.6-0.9-1.2l0,0c-0.4-0.5-0.7-0.7-0.9-0.7c-0.1,0-0.4,0.2-0.7,0.6
	c0,0-0.1,0.1-0.1,0.1c-0.2,0.3-0.5,0.4-0.7,0.5c-0.2,0-0.9,0-2.2,0c-0.2,0-0.4,0-0.6,0c-1.8,0-2.8,0-2.9-0.1
	c-0.2-0.1-0.3-0.3-0.2-0.5s0.1-0.4,0.3-0.6c0.1-0.1,0.1-0.2,0.1-0.3c0-0.1-0.2-0.2-0.4-0.3c-0.3-0.2-0.5-0.3-0.6-0.4
	c0-0.1,0-0.3,0.2-0.4c1-1,1.8-1.4,2.3-1.2c0.6,0.1,1,0.9,1.3,2.2c0.1,0.5,0.4,0.7,1,0.7c0.5,0,0.8-0.3,0.9-0.7
	c0.1-0.5,0-0.9-0.4-1.4c-0.2-0.2-0.3-0.4-0.3-0.5c0-0.1,0.2-0.2,0.5-0.2c0.3,0,0.8,0,1.6,0c1.5,0,2.3-0.1,2.4-0.3
	c0.1-0.2-0.3-0.7-1.4-1.5c-0.4-0.3-0.6-0.4-0.7-0.4c-0.1,0-0.3,0.2-0.6,0.7l0,0c0,0-0.1,0.1-0.1,0.2c-0.2,0.3-0.4,0.5-0.6,0.6
	c-0.2,0-0.6,0.1-1.3,0.1c-0.1,0-0.2,0-0.3,0c-0.9,0-1.4,0-1.5,0c-0.2,0-0.2-0.1-0.2-0.3c0-0.1,0.1-0.3,0.2-0.5
	c0.2-0.2,0.3-0.3,0.4-0.3c0.4,0,0.5-0.1,0.1-0.4c-0.3-0.3-1-0.6-1.9-1c-0.3-0.1-0.4-0.2-0.5-0.1c0,0-0.1,0.2-0.2,0.4l0,0.1
	c-0.4,1.1-0.6,1.7-0.9,1.9s-0.5,0.1-0.9-0.3c-0.6-0.6-1-0.9-1.1-0.9c-0.2,0-0.4,0.1-0.6,0.5c-0.3,0.4-0.6,0.7-0.7,0.8
	c-0.2,0.1-0.6,0.1-1.3,0.1c-0.8,0-1.3-0.1-1.4-0.2c-0.1-0.1-0.1-0.3,0-0.5c0.1-0.2,0.3-0.4,0.5-0.4c0.3-0.1,0.3-0.2,0.1-0.3
	c-0.2-0.2-0.7-0.4-1.5-0.8c-0.5-0.2-0.8-0.3-0.9-0.4c-0.1,0-0.2,0-0.2,0c-0.5,2.4-1.5,4.4-2.9,6c-0.2,0.2-0.3,0.3-0.3,0.4
	c0,0,0,0.1,0.1,0.1c0.1,0,0.2,0,0.3,0c0.5-0.3,1.1-0.6,1.7-1.1c0.6-0.5,1.1-1,1.6-1.5c1.1-1.2,1.8-0.9,2.2,1.2
	c0.1,0.3,0.1,0.5,0.1,0.6c0,0.2,0.2,0.3,0.6,0.4c0.4,0,0.6,0,0.8-0.1c0.3-0.2,0.4-0.5,0.4-0.9c0-0.4-0.1-0.7-0.4-1.1
	c-0.1-0.2-0.2-0.3-0.2-0.4c0-0.1,0.1-0.2,0.2-0.2c0.1,0,0.6,0,1.6,0c1,0,1.5,0,1.6,0.1c0.2,0.1,0.2,0.3-0.1,0.7
	c-0.2,0.4-0.6,0.9-1.1,1.3c-0.2,0.2-0.2,0.3-0.2,0.4c0,0.1,0.2,0.1,0.3,0c0.2-0.1,0.3,0,0.4,0.3c0.1,0.3,0.1,0.5,0,0.7
	c-0.1,0.1-0.2,0.2-0.5,0.2c-0.3,0-1.1,0-2.5,0c-0.1,0-0.4,0-0.6,0c-0.9,0-1.5,0-1.7,0c-0.3,0-0.6-0.1-0.7-0.2
	c-0.1-0.1-0.1-0.2-0.2-0.5c0-0.1,0-0.2,0-0.2c-0.1-0.4-0.2-0.6-0.3-0.6c-0.1,0-0.2,0.1-0.2,0.4c0,0.5-0.1,1-0.4,1.5
	c-0.3,0.5-0.6,1-1,1.4c-0.5,0.5-0.8,0.9-0.7,1.4c0,0.5,0.3,0.8,0.8,0.9c0.5,0.1,1-0.1,1.4-0.5c0.4-0.5,0.6-1.1,0.8-2
	c0.1-0.5,0.2-0.8,0.4-0.9c0.1,0,2.4-0.1,6.9-0.1c4.5,0,6.8,0,6.9,0.1c0.3,0.1,0.3,0.5,0.1,1.1c-0.1,0.4-0.2,0.6-0.4,0.6
	c-0.1,0-0.3,0-0.6-0.2c0,0-0.1-0.1-0.2-0.1c-0.5-0.4-0.9-0.6-1-0.6c-0.1,0-0.3,0.1-0.6,0.4c0,0-0.1,0.1-0.1,0.1c0,0-0.1,0.1-0.1,0.1
	c-0.2,0.3-0.4,0.4-0.7,0.5c-0.3,0-1.1,0-2.6,0c-0.5,0-0.8,0-1.1,0c-1.9,0-3,0-3.5,0c-0.4,0-0.9-0.2-1.5-0.4c-0.1,0-0.2-0.1-0.3-0.1
	c-0.5-0.2-0.8-0.3-0.9-0.3s-0.1,0.2-0.1,0.5c0,0.1,0,0.1,0,0.1c0.1,1.1,0.2,2.8,0.2,5.1c0,2.3,0,4.4-0.1,6.3c0,0.6,0,0.9,0,1
	C137.3,47.1,137.3,47.2,137.5,47.3z M148.4,45.1c-0.1,0.1-1.5,0.1-4.2,0.1c-2.7,0-4.2-0.1-4.2-0.1c-0.2-0.1-0.4-0.6-0.3-1.6
	c0-0.9,0.1-1.4,0.4-1.6c0.1-0.1,1.5-0.1,4.2-0.1c2.7,0,4.1,0,4.2,0.1c0.2,0.1,0.4,0.6,0.4,1.6C148.8,44.5,148.6,45,148.4,45.1z
	 M143.6,38.4c-2.3,0-3.5,0-3.7-0.1c-0.3-0.1-0.4-0.6-0.4-1.4c0-0.8,0.1-1.3,0.4-1.4c0.1-0.1,1.4-0.1,3.7-0.1c2.3,0,3.5,0,3.7,0.1
	c0.3,0.1,0.4,0.6,0.4,1.4c0,0.8-0.1,1.2-0.4,1.4C147.2,38.4,145.9,38.4,143.6,38.4z M161.8,47.4c0.5,0.2,1,0.1,1.5-0.2
	c0.5-0.3,0.8-0.8,0.7-1.2c-0.1-1.5-0.1-3.7-0.1-6.6c0-0.4,0-0.8,0-1.4c0-1.2,0-2,0-2.3c0-0.5,0.2-0.8,0.4-0.9c0.1-0.1,0.4-0.1,1-0.1
	c0.3,0,0.5,0,0.6,0c0.7,0,1.2,0,1.3,0c0.3,0,0.4,0.1,0.5,0.2c0,0.1,0.1,0.3,0.1,0.6c0,0.3,0.1,0.5,0.2,0.5c0.1,0.1,0.4,0,0.8-0.1
	c0.6-0.2,1-0.3,1.1-0.5c0.1-0.2,0.2-0.6,0.1-1.2c0-0.6-0.1-1.7-0.1-3.5c0-0.2,0-0.4,0-0.6c0-1,0-1.6,0-1.8c0-0.2,0.1-0.4,0.3-0.5
	c0,0,0.1-0.1,0.1-0.1c0.2-0.2,0.3-0.3,0.1-0.6c-0.1-0.2-0.5-0.5-1.1-1c-0.4-0.3-0.6-0.4-0.7-0.4c-0.1,0-0.3,0.2-0.6,0.5l0,0
	c-0.2,0.3-0.4,0.4-0.6,0.5c-0.2,0-0.7,0.1-1.5,0.1c-0.1,0-0.2,0-0.2,0c-0.1,0-0.2,0-0.4,0c-0.7,0-1.2,0-1.4,0
	c-0.2,0-0.6-0.2-1.2-0.5c-0.1,0-0.2-0.1-0.2-0.1c-0.5-0.3-0.9-0.4-1-0.4s-0.2,0-0.1,0.2c0.2,1,0.2,3.9,0.3,8.6c0,4.8,0,8.3-0.2,10.7
	c-0.1,0.9-0.1,1.5-0.1,1.6C161.5,47.2,161.6,47.3,161.8,47.4z M177.3,47.4c0,0,0.3,0,0.7,0c1.2-0.2,2-0.6,2.3-1.3c0,0,0,0,0-0.1
	c0.1-0.2,0.2-0.7,0.2-1.5c0-0.8,0-3.3,0-7.7c0-5.6,0-8.5,0.1-8.6c0.1-0.2,0.3-0.3,0.6-0.5c0.2-0.1,0.2-0.3,0.1-0.4
	c-0.1-0.2-0.4-0.5-0.9-0.9c-0.6-0.4-1-0.7-1.1-0.7c-0.2,0-0.4,0.2-0.8,0.7c-0.3,0.4-1,0.6-2.2,0.6c-1.2,0-2.2-0.2-3.1-0.6
	c-0.7-0.3-1.1-0.4-1.2-0.5c0,0-0.1,0-0.1,0.1c0,0.1,0,0.4,0.1,0.9c0,0.2,0,0.3,0,0.4c0.1,0.8,0.1,2,0.1,3.8c0,1.7,0,3-0.1,4
	c-0.1,0.6,0.4,0.8,1.3,0.5c0.5-0.2,0.8-0.4,0.9-0.6c0.1-0.2,0.2-0.4,0.4-0.4c0.2,0,0.7-0.1,1.6-0.1c0.9,0,1.4,0,1.6,0
	c0.2,0,0.3,0.1,0.4,0.3c0.1,0.1,0.1,1.8,0.1,4.8c0,3.1-0.1,4.6-0.1,4.7c-0.1,0.2-0.4,0.3-0.7,0.3c-0.3,0-1,0-2-0.1
	c-1-0.1-1.5-0.1-1.6,0c0,0.1,0.2,0.2,0.6,0.3c0.8,0.2,1.4,0.4,1.8,0.7c0.4,0.3,0.6,0.7,0.8,1.3C177.2,47.2,177.3,47.3,177.3,47.4z
	 M176.4,33.9c-1,0-1.6,0-1.7-0.1c-0.2-0.1-0.4-0.6-0.4-1.3c0-0.8,0.1-1.2,0.3-1.4c0.1-0.1,0.7-0.1,1.7-0.1c1,0,1.6,0,1.7,0.1
	c0.2,0.1,0.3,0.6,0.3,1.4c0,0.8-0.1,1.2-0.4,1.3C177.9,33.9,177.4,33.9,176.4,33.9z M165.9,33.9c-1,0-1.5,0-1.6-0.1
	c-0.2-0.1-0.4-0.6-0.4-1.3c0-0.8,0.1-1.2,0.3-1.4c0.1-0.1,0.7-0.1,1.7-0.1c1,0,1.6,0,1.7,0.1c0.2,0.2,0.3,0.6,0.3,1.4
	c0,0.8-0.1,1.2-0.4,1.3C167.4,33.9,166.8,33.9,165.9,33.9z M176.2,30.4c-0.7,0-1.1,0-1.3,0c-0.2,0-0.4-0.2-0.5-0.3
	c0-0.1-0.1-0.4-0.1-0.9c0-0.1,0-0.1,0-0.1s0-0.1,0-0.1c0-0.5,0-0.8,0.1-0.9c0.1-0.2,0.2-0.3,0.5-0.3c0.2,0,0.6,0,1.3,0
	c0.1,0,0.1,0,0.2,0s0.1,0,0.2,0c0.7,0,1.1,0,1.3,0c0.2,0,0.4,0.2,0.5,0.3c0,0.1,0.1,0.4,0.1,0.9c0,0.1,0,0.1,0,0.1
	c0,0.5,0,0.8-0.1,1c0,0.1-0.1,0.3-0.3,0.3c-0.1,0.1-0.7,0.1-1.7,0.1C176.3,30.4,176.3,30.4,176.2,30.4z M165.9,30.4
	c-1,0-1.5,0-1.6-0.1c-0.2-0.1-0.3-0.4-0.4-1.1c-0.1-0.7,0-1.1,0.1-1.3c0.1-0.2,0.8-0.4,1.8-0.4c1.1,0,1.7,0.1,1.9,0.4
	c0.1,0.2,0.2,0.6,0.1,1.3c-0.1,0.7-0.2,1-0.4,1.1C167.4,30.4,166.8,30.4,165.9,30.4z M189.6,47.4c0.2,0.1,0.6,0.1,1,0
	c0.4-0.1,0.8-0.3,1-0.5c0.1-0.1,0.2-0.2,0.2-0.4c0-0.1,0-0.4,0-1c-0.1-1.7-0.1-4.1-0.1-7.1c0-3,0-4.5,0.1-4.7
	c0.1-0.2,0.2-0.2,0.4-0.3c0.2,0,0.7,0,1.5,0c0.9,0,1.5,0,1.7,0.1c0.2,0.1,0.3,0.3,0.3,0.6c0,0.3,0.1,0.4,0.4,0.4
	c0.3,0,0.7-0.1,1.2-0.4c0,0,0.1,0,0.1-0.1c0.2-0.1,0.3-0.2,0.3-0.3c0-0.1,0-0.6,0-1.2c0-0.2,0-0.4,0-0.5c-0.1-1.7-0.1-2.8,0-3.3
	c0-0.5,0.2-0.8,0.4-0.9c0.3-0.2,0.4-0.4,0.3-0.6c-0.1-0.2-0.5-0.6-1.1-1.1c-0.4-0.3-0.6-0.5-0.7-0.5c-0.1,0-0.3,0.2-0.6,0.5
	c0,0,0,0.1-0.1,0.1c-0.2,0.3-0.4,0.5-0.6,0.6c-0.2,0-0.7,0.1-1.5,0.1c-0.1,0-0.1,0-0.2,0c-0.1,0-0.2,0-0.4,0c-0.7,0-1.2,0-1.4,0
	c-0.2,0-0.6-0.2-1.1-0.4c-0.1,0-0.2-0.1-0.2-0.1c-0.7-0.3-1.1-0.5-1.1-0.5c0,0,0,0.3,0,0.9c0,0.2,0,0.4,0,0.6
	c0.1,0.5,0.1,3.1,0.1,7.7c0,5.3,0,8.9-0.1,10.9c0,0.7-0.1,1,0,1.2C189.4,47.2,189.4,47.3,189.6,47.4z M205.8,47.4
	c0.1,0,0.3,0,0.7-0.1c0.4-0.1,0.7-0.2,0.9-0.3c0.5-0.2,0.8-0.6,1-1.2c0-0.1,0.1-3.1,0.1-8.9c0-0.3,0-0.7,0-1.3c0-4.9,0-7.4,0.1-7.5
	c0.1-0.3,0.3-0.4,0.4-0.4c0.1,0,0.2,0,0.3-0.1c0.1-0.1,0.2-0.2,0.2-0.2c0-0.1-0.2-0.4-0.7-0.8c-0.5-0.4-0.9-0.7-1.2-0.9
	c-0.1-0.1-0.3-0.1-0.3,0c-0.1,0-0.2,0.2-0.4,0.5c0,0,0,0.1-0.1,0.1c-0.2,0.3-0.4,0.5-0.6,0.5c-0.2,0-0.6,0.1-1.4,0.1
	c-0.1,0-0.3,0-0.3,0c-0.1,0-0.2,0-0.4,0c-0.7,0-1.2,0-1.4,0c-0.2,0-0.6-0.2-1.1-0.4c-0.1,0-0.2-0.1-0.2-0.1c0,0-0.1,0-0.2-0.1
	c-0.4-0.2-0.7-0.3-0.8-0.3c-0.1,0-0.1,0.1,0,0.4c0,0.1,0,0.1,0,0.2c0.1,0.8,0.1,1.8,0.1,3.1c0,1.3,0,2.4,0,3.1c0,0.6,0,0.9,0,1.1
	c0,0.1,0.1,0.2,0.1,0.3c0.1,0.1,0.4,0.2,0.9,0c0.5-0.1,0.8-0.3,1.1-0.5c0.2-0.2,0.3-0.3,0.5-0.3c0.2,0,0.7,0,1.6,0
	c0.2,0,0.4,0,0.7,0c0.5,0,0.9,0,1,0.1c0.2,0.1,0.3,0.5,0.4,1c0,0.4,0,1.3,0,2.7c0,0.8,0,1.4,0,1.8c0,0.4,0,0.9,0,1.6
	c0,1.6,0,2.6,0,3c0,0.6-0.1,0.9-0.3,1.1c-0.1,0.1-0.3,0.2-0.7,0.1c-0.2,0-0.3,0-0.4,0c-0.7,0-1.1,0-1.1,0c-0.1,0.1,0,0.2,0.3,0.3
	c0.5,0.1,0.9,0.3,1.2,0.6c0.3,0.3,0.4,0.7,0.5,1.2C205.7,47.2,205.7,47.4,205.8,47.4z M193.2,46.5c0.1,0.1,0.5-0.1,1-0.5
	c0.6-0.4,1-0.7,1.4-1.1c0.9-0.9,1.5-2,1.8-3.4c0.1-0.4,0.2-0.6,0.3-0.7c0.1-0.1,0.5-0.1,1-0.1c0.5,0,0.9,0.1,1,0.2
	c0.2,0.1,0.3,0.4,0.3,1c0,0.4,0,1.3-0.1,2.6c0,0.8-0.1,1.2,0,1.5c0,0.3,0.1,0.4,0.3,0.5c0.1,0,0.4,0,0.7,0c0.5-0.1,0.8-0.2,0.9-0.4
	c0.1-0.2,0.2-0.7,0.1-1.4c0-0.1,0-0.3,0-0.5c0-1.2-0.1-2,0-2.3c0-0.5,0.2-0.8,0.4-0.9c0.1-0.1,0.5-0.1,1.1-0.1c0.1,0,0.2,0,0.2,0
	c1,0,1.6-0.2,1.6-0.5c0-0.3-0.4-0.8-1.4-1.4l0,0c-0.2-0.2-0.4-0.2-0.5-0.2c-0.1,0-0.3,0.3-0.6,0.8c-0.3,0.4-0.5,0.5-0.6,0.4
	c-0.1-0.2-0.1-0.7-0.1-1.5c0,0,0-0.1,0-0.2c0-0.7,0-1.1,0.1-1.2c0.1-0.1,0.5-0.2,1.2-0.2c0.1,0,0.2,0,0.2,0c0.8,0,1.3-0.1,1.3-0.2
	c0.1-0.1-0.1-0.5-0.7-1c-0.5-0.5-0.9-0.8-1.1-0.8c-0.2-0.1-0.4,0-0.6,0.3c-0.1,0.1-0.1,0.2-0.2,0.3c-0.3,0.4-0.5,0.6-0.8,0.7
	c-0.2,0-1,0.1-2.2,0.1c-0.4,0-0.7,0-1,0c-2.4,0-4,0-4.9-0.1c-0.2,0-0.3,0-0.4,0c0,0,0.1,0.2,0.2,0.6c0,0,0,0.1,0.1,0.1
	c0.1,0.2,0.2,0.3,0.2,0.3c0.1,0,0.2,0,0.4-0.1c0.1,0,0.1,0,0.1,0c0.8-0.2,1.2-0.2,1.5,0.2c0.1,0.1,0.1,0.6,0.1,1.4s0,1.3-0.1,1.4
	c-0.1,0.2-0.4,0.3-0.9,0.3c-0.5,0-1.1,0-1.8-0.1c-0.2,0-0.4,0-0.4,0c0,0,0.1,0.2,0.2,0.5c0,0,0,0,0,0.1c0.1,0.2,0.2,0.4,0.3,0.4
	c0.1,0,0.2,0,0.4,0c0,0,0.1,0,0.1,0c0.4-0.1,0.7-0.1,1.1-0.1c0.4,0,0.6,0,0.7,0.1c0.4,0.3,0.3,1-0.2,2.2c-0.5,1.2-1.1,2.1-1.8,2.9
	C193.1,46.2,193,46.4,193.2,46.5z M199.9,39.9c-0.2,0.1-0.6,0.2-1.2,0.1c-0.6-0.1-0.9-0.2-0.9-0.4c0-0.1-0.1-0.6-0.1-1.4
	c0-0.8,0.1-1.3,0.1-1.4c0.1-0.3,0.5-0.4,1.1-0.4c0.6,0,1,0.1,1.1,0.4c0.1,0.3,0.2,0.8,0.1,1.7C200.1,39.4,200,39.8,199.9,39.9z
	 M195.3,32.7c-0.1,0.1-0.7,0.1-1.7,0.1c-1,0-1.6-0.1-1.7-0.1c-0.2-0.1-0.3-0.5-0.3-1.1c0-0.6,0.2-0.9,0.4-1c0.1-0.1,0.7-0.1,1.7-0.1
	c1,0,1.5,0,1.6,0.1c0.2,0.1,0.3,0.5,0.4,1.1C195.7,32.2,195.6,32.5,195.3,32.7z M204.3,32.8c-1.1,0-1.7,0-1.8-0.1
	c-0.2-0.1-0.3-0.5-0.3-1.1c0-0.6,0.1-0.9,0.4-1.1c0.1-0.1,0.7-0.1,1.7-0.1c1,0,1.6,0,1.7,0.1c0.2,0.1,0.3,0.5,0.4,1
	c0,0.6-0.1,0.9-0.3,1.1C205.9,32.7,205.3,32.7,204.3,32.8z M206,29.7c-0.1,0.1-0.7,0.1-1.7,0.1c-1,0-1.6-0.1-1.7-0.1
	c-0.1-0.1-0.2-0.2-0.3-0.3c0-0.1,0-0.4,0-0.8v0c0-0.4,0-0.7,0.1-0.8c0.1-0.1,0.2-0.2,0.5-0.3c0.2,0,0.6,0,1.3,0c0,0,0.1,0,0.1,0
	s0.1,0,0.1,0c0.7,0,1.2,0,1.4,0c0.3,0,0.4,0.1,0.5,0.3c0,0.1,0.1,0.4,0.1,0.8v0c0,0.4,0,0.6-0.1,0.8C206.2,29.6,206.1,29.7,206,29.7
	z M193.5,29.8c-0.7,0-1.1,0-1.3,0c-0.3,0-0.4-0.1-0.5-0.3c0-0.1-0.1-0.3-0.1-0.7c0,0,0-0.1,0-0.1v0c0-0.4,0-0.7,0.1-0.8
	c0.1-0.1,0.2-0.2,0.5-0.3c0.2,0,0.7,0,1.4,0c0.7,0,1.2,0,1.4,0c0.3,0,0.4,0.1,0.5,0.3c0,0.1,0.1,0.4,0.1,0.8v0c0,0.4,0,0.6-0.1,0.7
	c0,0.1-0.1,0.2-0.3,0.3c-0.1,0.1-0.6,0.1-1.7,0.1C193.6,29.8,193.6,29.8,193.5,29.8z M226.8,47.3c0.2,0.1,0.5,0.1,1,0
	c0.5-0.1,0.8-0.2,1-0.4c0.1-0.1,0.1-0.3,0.1-0.6c0,0,0,0,0-0.1c0-0.4,0-0.6,0-0.7c0.1-0.1,0.3-0.2,0.6-0.2c0.3,0,0.8,0,1.8,0
	c0.1,0,0.1,0,0.2,0c0.1,0,0.2,0,0.4,0c0.9,0,1.4,0,1.7,0c0.3,0,0.5,0.1,0.6,0.2c0,0.1,0.1,0.3,0,0.6c0,0,0,0.1,0,0.1
	c0,0.3,0,0.5,0,0.6c0,0.1,0.1,0.2,0.2,0.2c0.1,0.1,0.4,0.1,0.7,0c0.4,0,0.7-0.1,0.9-0.3c0,0,0.1,0,0.1,0c0.2-0.1,0.3-0.2,0.4-0.3
	c0-0.1,0-0.5,0-1.2c0-0.1,0-0.2,0-0.2c0-0.8-0.1-2.1-0.1-3.9c0-1.3,0-2.1,0-2.3c0-0.2,0.2-0.4,0.4-0.5c0.6-0.2,0.2-0.8-1-1.6l0,0
	c-0.3-0.2-0.5-0.3-0.6-0.3c-0.1,0-0.3,0.2-0.6,0.6c0,0-0.1,0.1-0.1,0.1c0,0,0,0-0.1,0.1c-0.2,0.2-0.4,0.4-0.6,0.4
	c-0.2,0-0.8,0-1.8,0c-0.3,0-0.5,0-0.6,0c-1.2,0-2,0-2.3-0.1c-0.3,0-0.7-0.2-1.3-0.4c-0.1,0-0.2-0.1-0.4-0.1
	c-0.5-0.2-0.7-0.3-0.8-0.2c-0.1,0-0.1,0.2,0,0.5c0,0.1,0,0.2,0,0.2c0.1,1,0.2,2.4,0.2,4.4c0,2,0,3.4-0.1,4.3c0,0.4,0,0.7,0,0.8
	C226.6,47.1,226.7,47.2,226.8,47.3z M216.1,47c0,0.1,0.2,0.1,0.3,0c0.2,0,0.5-0.2,1-0.5c1.4-0.8,2.7-1.9,3.8-3.2
	c0.3-0.4,0.5-0.6,0.6-0.6c0.1-0.1,0.2,0,0.4,0.1c0.2,0.2,0.4,0.5,0.7,1c0.3,0.5,0.5,0.9,0.6,1.3c0.1,0.2,0.3,0.4,0.6,0.5
	c0.3,0.1,0.6,0,0.8-0.1c0.5-0.4,0.6-0.9,0.4-1.7c-0.2-0.8-0.7-1.6-1.5-2.4c-0.4-0.4-0.6-0.6-0.6-0.8c0-0.2,0.1-0.5,0.3-1
	c0,0,0-0.1,0-0.1c0.4-1.2,0.8-2.5,1.1-3.9c0.1-0.8,0.2-1.2,0.3-1.4c0.1-0.3,0.1-0.6,0.1-0.9s0-0.6,0.1-0.7c0.1-0.1,0.2-0.3,0.5-0.4
	c0.2-0.1,0.3-0.2,0.3-0.3c0-0.1-0.2-0.3-0.6-0.7c-0.6-0.6-1-0.9-1.2-1c-0.2-0.1-0.5,0.1-0.8,0.4c-0.4,0.4-0.9,0.7-1.5,0.7
	c-0.6,0-0.9-0.2-0.8-0.6c0-0.5,0.2-1.3,0.5-2.4c0.3-1.1,0.5-1.7,0.7-1.8c0.1-0.1,0.2-0.1,0.3-0.2c0.1-0.1,0-0.2-0.2-0.4
	c-0.3-0.1-0.8-0.3-1.7-0.5c-0.4-0.1-0.6-0.2-0.7-0.1c-0.1,0-0.1,0.2-0.1,0.5v0c0,0.6-0.1,1.5-0.3,2.8c-0.2,1.2-0.4,1.9-0.5,2.2
	c-0.1,0.2-0.4,0.3-0.8,0.4c-0.4,0-1,0-1.7-0.1c-0.2,0-0.4,0-0.4,0c0,0,0.1,0.2,0.2,0.5c0,0,0,0.1,0.1,0.1c0.1,0.2,0.2,0.3,0.2,0.3
	c0.1,0,0.2,0,0.4-0.1c0.1,0,0.1,0,0.1,0c0.8-0.2,1.3-0.2,1.5,0.2c0,0.1-0.2,1.1-0.6,3c-0.4,1.9-0.9,3.4-1.3,4.7
	c-0.2,0.5-0.2,0.9-0.2,1c0.1,0.1,0.4,0.2,0.9,0.2c0.4,0,0.7,0,0.8-0.1c0.1-0.1,0.3-0.3,0.3-0.6c0.1-0.4,0.3-0.7,0.5-0.6
	c0.2,0,0.6,0.2,1,0.7c0.4,0.4,0.6,0.6,0.6,0.8c0,0.2,0,0.5-0.3,0.9c-0.4,0.8-1,1.7-1.7,2.5c-0.7,0.8-1.5,1.5-2.2,2
	c-0.2,0.2-0.4,0.3-0.4,0.3C216,46.9,216,46.9,216.1,47z M233.9,44.6c-0.1,0.1-0.9,0.1-2.4,0.1c-1.4,0-2.2,0-2.4-0.1
	c-0.2-0.1-0.3-0.2-0.3-0.5c0-0.3,0-1.1,0-2.5c0-0.2,0-0.6,0-1c0-0.8,0-1.3,0-1.6c0.1-0.3,0.2-0.5,0.5-0.6c0.2,0,0.6-0.1,1.3,0
	c0.4,0,0.6,0,0.8,0c0.2,0,0.5,0,0.8,0c0.7,0,1.2,0,1.3,0c0.3,0.1,0.4,0.3,0.5,0.6c0,0.2,0.1,0.7,0,1.6c0,0.4,0,0.7,0,1
	c0,1.5,0,2.3,0,2.6C234.1,44.3,234,44.5,233.9,44.6z M221.3,39.4c-0.1,0-0.2,0.1-0.3,0c-0.1,0-0.3-0.1-0.8-0.3
	c-0.1,0-0.2-0.1-0.3-0.1c0,0-0.1,0-0.2,0c-0.3-0.1-0.5-0.2-0.6-0.3c-0.1-0.1-0.1-0.3-0.1-0.7c0-0.2,0.2-0.8,0.4-1.7
	c0-0.2,0.1-0.4,0.1-0.5c0.4-1.6,0.6-2.6,0.7-3c0.1-0.5,0.2-0.8,0.4-0.9c0.1-0.1,0.4-0.2,0.9-0.2c0.4,0,0.7,0,0.9,0.1
	c0.2,0.1,0.2,0.3,0.3,0.6c0,0.3,0,0.8-0.1,1.6c-0.2,1.5-0.4,2.7-0.7,3.7C221.8,38.8,221.5,39.4,221.3,39.4z M236.3,35.9
	c0.4,0.1,0.7,0,1-0.3c0.3-0.3,0.4-0.8,0.3-1.3c-0.1-0.9-0.5-1.7-1.2-2.5c-0.7-0.8-1.7-1.6-3-2.2c-0.4-0.2-0.6-0.2-0.6-0.2
	c0,0,0,0.2,0.3,0.6c0.4,0.5,0.7,1,1,1.6c0.3,0.5,0.5,0.9,0.5,1c0,0.2,0,0.3-0.1,0.3c-0.1,0.1-0.4,0.1-0.8,0.1c-0.3,0-1,0.1-2,0.1
	h-0.1c-1,0-1.6,0.1-1.9,0c-0.4,0-0.6-0.1-0.6-0.2c0-0.1,0.1-0.3,0.3-0.7c0.9-1.6,1.7-3.1,2.3-4.5c0.3-0.7,0.6-1.1,0.8-1.2
	c0.3-0.1,0.3-0.3,0-0.4c-0.3-0.2-0.9-0.4-1.9-0.7c0,0-0.1,0-0.1,0c-0.5-0.1-0.7-0.2-0.8-0.2c-0.1,0-0.1,0.1-0.1,0.4c0,0,0,0.1,0,0.1
	c-0.1,1.8-0.5,3.9-1.2,6.4c-0.2,0.6-0.4,1-0.6,1.2c-0.2,0.1-0.8,0.2-1.8,0.2c0,0,0,0-0.1,0c-0.3,0-0.5,0-0.5,0.1
	c0,0.1,0.1,0.4,0.2,0.9c0,0.1,0,0.1,0,0.2c0,0.2,0.1,0.4,0.2,0.7c0,0.2,0.1,0.3,0.1,0.3c0.1,0.2,0.1,0.4,0.2,0.4
	c0.1,0,0.2-0.1,0.4-0.2c0.1-0.1,0.3-0.2,0.5-0.3c0.2-0.1,0.7-0.2,1.4-0.4c1.8-0.4,3.5-0.8,4.9-1.2c1-0.3,1.6-0.3,1.8-0.1
	c0.3,0.1,0.5,0.7,0.6,1.6C235.7,35.5,236,35.7,236.3,35.9z M252.4,47.3c0,0,0.3,0,0.6,0c0.4,0,0.7-0.1,1-0.2
	c0.8-0.2,1.3-0.6,1.5-1.1c0,0,0,0,0-0.1c0.1-0.2,0.2-0.6,0.2-1.2c0-0.6,0.1-2.4,0.1-5.4c0-0.3,0-0.6,0-1.1c0-1.9,0-3,0-3.6
	c0-0.7,0-1.1,0.1-1.3c0-0.1,0.1-0.2,0.2-0.3l0.1,0c0.1,0,0.2-0.1,0.3-0.2c0.1-0.1,0.1-0.2,0.1-0.2c0-0.1,0.3-0.4,1-0.7
	c1.5-0.8,3.1-1.8,4.8-2.9c0.4-0.3,0.7-0.4,0.8-0.5c0.1-0.1,0.4-0.1,0.7-0.2c0.3-0.1,0.4-0.2,0.3-0.4s-0.4-0.6-1-1.1
	c0,0-0.1-0.1-0.1-0.1c-0.5-0.4-0.8-0.7-0.9-0.7c-0.1,0-0.4,0.1-0.7,0.5c0,0-0.1,0.1-0.1,0.1c-0.1,0.1-0.1,0.1-0.2,0.2
	c-0.2,0.2-0.3,0.3-0.5,0.4c-0.2,0.1-0.7,0.1-1.3,0.1c-0.5,0-1.6,0-3.3,0c-0.8,0-1.5,0-2,0c-4.5,0-7.2,0-8.2-0.1c-0.2,0-0.3,0-0.3,0
	c0,0,0.1,0.2,0.2,0.6c0,0,0,0.1,0,0.1c0.1,0.2,0.2,0.4,0.3,0.4c0.1,0,0.2,0,0.5,0c0.7-0.1,1.4-0.2,2-0.2c0.6,0,2.4,0,5.3,0
	c0.4,0,0.8,0,1.5,0c1.9,0,3.1,0,3.5,0c0.7,0,1,0.2,1,0.3c0,0.1-0.3,0.4-0.8,0.9c-0.2,0.1-0.3,0.3-0.4,0.4c-1,1-1.7,1.7-2.1,1.9
	c-0.5,0.4-0.9,0.6-1.2,0.7c-0.3,0.1-0.7,0.1-1.2,0c0,0-0.1,0-0.2,0c-0.4-0.1-0.6-0.1-0.7,0c-0.1,0-0.1,0.2,0,0.5c0,0.1,0,0.1,0,0.1
	c0.1,0.8,0.1,1.6,0.2,2.3c0,0.8,0,2.3,0,4.5c0,0.4,0,0.9,0,1.6c0,1.4,0,2.2,0,2.6c-0.1,0.5-0.3,0.8-0.6,0.9c-0.2,0.1-0.8,0.1-1.6,0
	c-0.4,0-0.7-0.1-1-0.1c-0.1,0-0.3,0-0.5,0c-0.7,0-1.1,0-1.1,0s0,0.1,0,0.2s0.1,0.1,0.2,0.1c1,0.2,1.8,0.4,2.3,0.7
	c0.5,0.3,0.8,0.8,0.9,1.4C252.3,47.2,252.3,47.3,252.4,47.3z M286.8,47.4c0.2,0.1,0.5,0,0.9-0.1c0.4-0.1,0.8-0.3,0.9-0.4
	c0-0.1,0.1-0.2,0.1-0.3c0-0.2,0-0.7,0-1.6c0-0.2,0-0.4,0-0.6c0-0.7,0-1.1,0-1.3c0.1-0.3,0.2-0.4,0.5-0.5c0.2,0,0.6-0.1,1.3-0.1
	c0.3,0,0.5,0,0.7,0c1.2,0,1.8,0,2,0c0.2,0,0.3-0.1,0.4-0.2c0.1-0.1-0.1-0.3-0.4-0.7c-0.3-0.4-0.7-0.7-1.1-0.9
	c-0.3-0.2-0.5-0.3-0.6-0.2c-0.1,0-0.3,0.2-0.5,0.6c-0.3,0.4-0.5,0.7-0.7,0.8c-0.1,0.1-0.4,0.1-0.8,0.1c-0.5,0-0.7-0.1-0.8-0.2
	c-0.1-0.2-0.1-0.6-0.1-1.4c0-0.1,0-0.2,0-0.3c0-0.6,0-0.9,0-1.1c0-0.2,0.2-0.4,0.5-0.4c0.2,0,0.6,0,1.2,0c0.2,0,0.3,0,0.4,0
	c1.3,0,2.1-0.1,2.2-0.2c0.2-0.2-0.1-0.5-0.8-1.1c-0.5-0.4-0.8-0.7-1-0.7c-0.1,0-0.4,0.2-0.6,0.5c-0.6,0.8-1.1,1-1.6,0.7
	c-0.3-0.1-0.4-0.5-0.4-1c0-0.6,0.1-1,0.4-1.2c0.2-0.2,0.2-0.3,0-0.4c-0.2-0.1-0.6-0.3-1.2-0.5c-1-0.3-1.4-0.4-1.3-0.2
	c0.1,0.1,0.1,0.6,0.1,1.6c0,0.9,0,1.4-0.1,1.5c-0.1,0.2-0.4,0.3-0.8,0.3c-0.4,0-0.7,0-0.9-0.2c-0.1-0.1-0.1-0.5,0.1-1
	c0.2-0.5,0.4-0.8,0.7-1c0.2-0.1,0.3-0.3,0-0.4c-0.2-0.1-0.7-0.4-1.5-0.6c0,0-0.1,0-0.1,0c-0.3-0.1-0.5-0.1-0.6-0.1
	c0,0-0.1,0.1-0.1,0.4c0,0,0,0.1,0,0.1c-0.1,0.8-0.2,1.7-0.4,2.5c-0.2,0.8-0.4,1.5-0.6,1.9c-0.2,0.5-0.4,0.6-0.5,0.4
	c-0.1-0.3-0.2-1.2-0.1-2.8c0.1-1.6,0.2-2.4,0.3-2.4c0.2,0,0.6-0.1,1.2-0.5c0.6-0.4,1.2-0.7,1.7-1.2c1.2-1.1,2.1-2.5,2.5-4.2
	c0.1-0.5,0.3-0.8,0.5-0.9s0.6-0.1,1.2-0.1c0.5,0,0.8,0.1,1,0.1c0.2,0.1,0.3,0.3,0.3,0.6c0,0.2,0,0.7-0.1,1.4c-0.1,1-0.3,1.6-0.5,1.8
	c-0.2,0.2-0.8,0.3-1.7,0.2c-0.5,0-0.8,0-0.8,0c-0.1,0.1,0,0.2,0.4,0.4c0.9,0.3,1.4,0.8,1.4,1.6c0,0.2,0.1,0.3,0.2,0.3
	c0.1,0,0.4,0,0.8-0.1c0.8-0.2,1.4-0.6,1.7-1.2s0.5-1.8,0.6-3.4c0-0.6,0.1-0.9,0.1-1.1c0.1-0.2,0.2-0.3,0.5-0.4
	c0.2-0.1,0.3-0.3,0.1-0.5c-0.1-0.2-0.5-0.6-1-1.1c-0.3-0.3-0.5-0.4-0.7-0.4c-0.1,0-0.3,0.2-0.6,0.5c0,0-0.1,0.1-0.1,0.1
	c-0.2,0.3-0.4,0.4-0.7,0.5c-0.2,0-1,0-2.3,0c-0.3,0-0.5,0-0.6,0c-2.2,0-3.8,0-4.7-0.1c-0.2,0-0.3,0-0.4,0c0,0,0.1,0.2,0.3,0.6
	c0,0,0,0,0,0.1c0.1,0.2,0.2,0.4,0.3,0.4c0.1,0,0.3,0,0.6-0.1h0c0.8-0.2,1.3-0.2,1.6-0.1c0.3,0.1,0.4,0.4,0.4,0.8
	c-0.3,2.1-1.2,3.8-2.7,5.2c-0.2,0.2-0.3,0.3-0.4,0.3c-0.1,0-0.1-0.1-0.2-0.2c-0.2-0.3-0.2-0.6-0.1-0.9c0.1-0.3,0.3-0.5,0.6-0.7
	c0.3-0.1,0.4-0.3,0.3-0.6c-0.1-0.2-0.5-0.6-1.1-1c-0.4-0.3-0.7-0.5-0.8-0.5s-0.3,0.2-0.6,0.5c-0.2,0.3-0.4,0.5-0.6,0.6
	c-0.1,0.1-0.4,0.1-0.7,0.1c-0.4,0-0.7-0.1-0.7-0.2c0-0.1,0.2-0.4,0.5-0.8c0.1-0.1,0.3-0.4,0.6-0.7c0.1-0.1,0.2-0.2,0.2-0.3
	c0.4-0.5,0.8-0.7,1-0.8c0.4-0.1,0.5-0.2,0.4-0.4c0-0.2-0.3-0.6-0.9-1.1c-0.4-0.4-0.7-0.7-0.9-0.6c-0.1,0-0.4,0.3-0.8,0.8
	c-0.2,0.3-0.6,0.5-1,0.5c-0.4,0-0.6-0.1-0.6-0.4c0-0.2,0.1-0.4,0.2-0.6c0.1-0.2,0.3-0.4,0.5-0.4c0.3-0.1,0.3-0.3,0-0.4
	c-0.2-0.2-0.8-0.4-1.7-0.7c0,0-0.1,0-0.1,0c-0.3-0.1-0.5-0.2-0.6-0.1c-0.1,0-0.1,0.2-0.2,0.5c0,0.1,0,0.1,0,0.1
	c-0.4,2.5-1.4,5-2.9,7.3c0,0.1,0,0.1,0,0.2c0.1,0.1,0.3,0,0.6-0.2c0.3-0.3,0.6-0.4,0.6-0.4c0.1,0,0.2,0.3,0.2,0.7c0,0.4,0,1.2,0,2.6
	c0,2.8-0.1,5-0.3,6.6c-0.2,1.5-0.6,2.9-1.1,4.1c-0.2,0.6-0.2,0.8,0.1,0.7c0.4-0.2,0.9-0.9,1.5-2.1c0.6-1.2,1-2.5,1.3-3.7
	c0-0.1,0-0.2,0-0.3c0.1-0.5,0.2-0.8,0.4-0.9c0.2-0.1,0.7-0.1,1.7-0.1c0.2,0,0.3,0,0.5,0c0.2,0,0.4,0,0.6,0c0.7,0,1.1,0,1.3,0
	c0.2,0.1,0.4,0.2,0.5,0.5c0,0.2,0.1,0.6,0,1.3c0,0.3,0,0.5,0,0.7c0,0.1,0,0.2,0,0.3c0,0.8,0,1.3-0.1,1.5c-0.1,0.3-0.2,0.5-0.5,0.5
	c-0.2,0-0.6,0-1.2,0c-0.1,0-0.2,0-0.2,0c-0.7,0-1,0-1.1,0c-0.1,0.1,0,0.2,0.4,0.4c1.1,0.3,1.7,0.8,1.8,1.6c0,0.2,0.1,0.3,0.2,0.3
	c0.1,0,0.4,0,0.8-0.1c0.7-0.2,1.1-0.5,1.3-0.8c0.2-0.4,0.3-1.1,0.3-2.4c0-0.8,0-1.3,0-1.5c0-0.2,0.1-0.3,0.2-0.3
	c0.1,0,0.3,0.1,0.4,0.4c0,0.1,0.1,0.1,0.1,0.1c0.1,0,0.2,0,0.5-0.1c0.6-0.1,1.2-0.2,2-0.2c0.8,0,1.2,0,1.4,0.1
	c0.3,0.2,0.4,1.5,0.2,3.9c0,0.4,0,0.6,0,0.7C286.6,47.2,286.7,47.3,286.8,47.4z M286.3,41.6c-0.2,0.1-0.9,0.1-2.2,0.1
	c-0.1,0-0.4,0-1.1-0.1c-0.6,0-1-0.1-1.1-0.1c-0.1,0-0.2-0.1-0.2-0.2c0-0.1,0-0.3,0-0.5c0-0.1,0.1-0.2,0.1-0.3c0,0,0.1-0.1,0.2,0
	c0.2,0.1,0.8-0.5,1.6-1.7c0.2-0.3,0.3-0.4,0.5-0.5c0.1,0,0.5-0.1,1.1-0.1c0,0,0.1,0,0.1,0c0.7,0,1,0,1.1,0.2
	c0.1,0.1,0.2,0.6,0.2,1.3c0,0.1,0,0.1,0,0.2c0,0.7,0,1.1,0,1.3C286.6,41.4,286.5,41.6,286.3,41.6z M276.4,39.5
	c-0.2,0.1-0.4,0.1-0.6,0c-0.2,0-0.4-0.2-0.4-0.3c0-0.1,0-0.6,0-1.4c0-0.8,0.1-1.3,0.1-1.4c0.1-0.1,0.2-0.2,0.5-0.3
	c0.2,0,0.4,0,0.6,0.1c0.2,0.2,0.3,0.7,0.3,1.7C276.8,38.8,276.6,39.4,276.4,39.5z M279.5,39.5c-0.2,0.1-0.4,0.1-0.6,0
	c-0.2,0-0.4-0.2-0.4-0.3c-0.1-0.1-0.1-0.6-0.1-1.4c0-0.8,0-1.3,0.1-1.4c0.1-0.2,0.2-0.3,0.5-0.3c0.3,0,0.5,0,0.7,0.1
	c0.2,0.2,0.3,0.7,0.3,1.7C279.9,38.8,279.8,39.4,279.5,39.5z M279.5,35.4c-0.4,0.2-0.7,0.2-0.9,0c-0.2-0.2-0.3-0.8-0.3-1.5
	c0-0.8,0-1.2,0.1-1.4c0.1-0.2,0.3-0.3,0.6-0.3c0.4,0,0.6,0.1,0.6,0.3c0.1,0.2,0.1,0.6,0.1,1.4c0,0.7,0,1.1,0,1.2
	C279.8,35.2,279.7,35.3,279.5,35.4z M276.5,35.3c-0.2,0.1-0.4,0.1-0.6,0.1c-0.2,0-0.4-0.1-0.5-0.3c-0.1-0.1-0.1-0.6-0.1-1.3
	c0-0.8,0-1.2,0.1-1.3c0.1-0.1,0.2-0.2,0.4-0.3c0.2,0,0.4,0,0.5,0c0.3,0.1,0.4,0.6,0.4,1.5C276.8,34.6,276.7,35.2,276.5,35.3z
	 M276.8,31.3c-0.3,0.1-0.6,0.2-1.1,0.1c-0.5-0.1-0.8-0.2-0.9-0.5c-0.1-0.1-0.1-0.2,0-0.3c0-0.1,0.2-0.4,0.4-0.7
	c0.1-0.1,0.2-0.3,0.4-0.6c0.1-0.2,0.2-0.3,0.2-0.3c0.2-0.3,0.3-0.5,0.5-0.6c0.2-0.1,0.4-0.1,0.8-0.1c0.5,0,0.8,0.1,0.8,0.3
	c0.1,0.2-0.1,0.7-0.4,1.4C277.3,30.8,277.1,31.2,276.8,31.3z M308.6,39.2c0.1,0.2,0.2,0.3,0.4,0.3c0.2,0,0.5-0.2,0.9-0.6
	c0.9-0.7,1.6-1.6,2-2.8c0.4-1.1,0.4-2.1,0.1-2.9c-0.3-0.9-0.9-1.3-1.8-1.2c-0.6,0-1,0.3-1.3,0.7c-0.2,0.4-0.3,0.9-0.1,1.4
	c0.2,0.5,0.5,1,1.1,1.3c0.3,0.2,0.5,0.3,0.6,0.5c0.1,0.1,0.1,0.2,0.1,0.4c-0.1,0.4-0.3,0.8-0.6,1.3c-0.4,0.5-0.8,0.8-1.2,1.2
	c-0.2,0.1-0.3,0.2-0.3,0.3C308.5,38.9,308.5,39,308.6,39.2z M21.8,69.8c0.1,0,0.3,0,0.7-0.1c0,0,0,0,0.1,0c0.7-0.1,1.4-0.2,2.3-0.2
	s3.7,0,8.4,0c0.4,0,1,0,1.7,0c2.9,0,4.7,0,5.5,0c1.1,0,1.7,0,2-0.1c0.2,0,0.3-0.1,0.3-0.2c0,0,0-0.1,0-0.1c0-0.1-0.1-0.3-0.5-0.6
	c-0.3-0.3-0.7-0.6-1.1-1c0,0,0,0-0.1-0.1c-0.4-0.4-0.7-0.5-0.8-0.5s-0.3,0.2-0.6,0.6c0,0-0.1,0.1-0.1,0.1c0,0.1-0.1,0.2-0.2,0.3
	c-0.3,0.4-0.6,0.7-0.8,0.7c-0.2,0.1-0.8,0.1-1.8,0.1c-0.3,0-0.6,0-0.7,0c-0.1,0-0.2,0-0.3,0c-1.1,0-1.8,0-2-0.1
	c-0.2,0-0.3-0.2-0.3-0.4c0,0,0-0.1,0-0.1c-0.1-0.3-0.1-2.7-0.1-7.3c0-4.7,0.1-7,0.2-7.1c0.1-0.1,0.3-0.2,0.6-0.2
	c0.3,0,1.5-0.1,3.4-0.1c0.2,0,0.4,0,0.7,0c1.2,0,2,0,2.3,0c0.4,0,0.7,0,0.9-0.1c0.1,0,0.1-0.1,0.1-0.2v0c0-0.1-0.4-0.5-1.2-1.2
	c-0.8-0.7-1.2-1-1.4-1c-0.1,0-0.3,0.3-0.8,0.9c-0.4,0.6-0.7,0.9-0.9,1c-0.1,0-2.1,0-6.1,0c-4.2,0-6.8,0-7.8-0.1c-0.2,0-0.3,0-0.3,0
	c0,0,0.1,0.2,0.2,0.6c0,0,0,0.1,0,0.1c0.1,0.2,0.2,0.4,0.3,0.4c0.1,0,0.2,0,0.5,0c0.9-0.1,2.3-0.2,4.1-0.2c0.1,0,0.3,0,0.5,0
	c1,0,1.6,0,1.8,0c0.2,0,0.3,0.1,0.4,0.3c0.1,0.1,0.1,2.5,0.1,7.3c0,4.7,0,7.2-0.1,7.3l0,0c-0.1,0.1-0.2,0.2-0.5,0.2
	c-0.3,0-1.1,0-2.6,0c-0.3,0-0.5,0-0.7,0c-2.6,0-4.3,0-5.3-0.1c-0.2,0-0.4,0-0.4,0.1c0,0,0.1,0.2,0.2,0.5
	C21.6,69.6,21.7,69.7,21.8,69.8z M49.1,71.2c0.2,0.1,0.8-0.3,1.7-1.2c1.2-1.2,2.2-2.6,2.8-4.2c0.7-1.6,1.1-3.5,1.3-5.6
	c0,0,0-0.1,0-0.2c0-0.4,0.1-0.7,0.1-0.8c0.1-0.2,0.2-0.3,0.5-0.3c0.2,0,0.6,0,1.3,0c0.1,0,0.2,0,0.3,0c0,0,0.1,0,0.2,0
	c0.8,0,1.2,0,1.4,0c0.3,0,0.5,0.1,0.6,0.2c0.1,0.1,0.1,0.3,0.2,0.6c0,0,0,0.1,0,0.1c1,4.9,3.4,8.5,7.4,10.8c0.5,0.3,0.8,0.4,0.9,0.5
	c0.1,0,0.2,0,0.2-0.2c0.2-0.9,0.8-1.4,1.7-1.7c0.2-0.1,0.3-0.1,0.3-0.2s-0.1-0.2-0.3-0.2c-2.2-0.7-4.3-1.8-6.1-3.4
	c-1.8-1.6-3-3.4-3.7-5.4l0,0c-0.1-0.4-0.2-0.6-0.2-0.7c0-0.1,0.2-0.2,0.6-0.3c0.2,0,0.8,0,1.8,0c0.1,0,0.1,0,0.2,0c0,0,0.1,0,0.2,0
	c0.8,0,1.4,0,1.6,0c0.3,0,0.5,0.1,0.6,0.2c0.1,0.1,0.1,0.3,0.1,0.6v0c0,0.8,0.6,0.9,1.9,0.2c0,0,0,0,0.1,0c0.2-0.1,0.3-0.2,0.3-0.3
	c0-0.1,0-0.6,0-1.2c0-0.1,0-0.2,0-0.3c0-0.8-0.1-2-0.1-3.4c0-1.4,0-2.1,0-2.2c0.1-0.3,0.3-0.4,0.5-0.6c0.3-0.1,0.4-0.3,0.3-0.5
	c-0.1-0.2-0.5-0.5-1.1-1c-0.5-0.4-0.8-0.5-0.9-0.5c-0.1,0-0.3,0.2-0.6,0.5c0,0-0.1,0.1-0.2,0.2C65,50.8,64.7,51,64.4,51
	c-0.3,0-1.3,0-3.1,0c-0.5,0-1,0-1.3,0s-0.8,0-1.3,0c-1.7,0-2.7,0-3,0c-0.4,0-0.8-0.2-1.3-0.4c-0.2-0.1-0.4-0.2-0.5-0.2
	c-0.6-0.2-0.9-0.3-1-0.3c-0.1,0-0.1,0.1-0.1,0.3c0.1,0.6,0.1,2.3,0.1,4.9c0,2.6,0,4.3-0.1,5.1c-0.2,2.4-0.6,4.3-1.1,5.9
	c-0.5,1.6-1.3,3.1-2.3,4.4c-0.1,0.2-0.2,0.3-0.3,0.4C49.1,71.1,49.1,71.2,49.1,71.2z M64.7,58.1c-0.1,0.1-1.7,0.1-4.8,0.1
	c-3,0-4.6-0.1-4.7-0.2c-0.1-0.1-0.2-1.1-0.2-2.9c0-1.8,0-2.9,0.2-3v0c0.1-0.1,0.3-0.2,0.6-0.2c0.3,0,1.4,0,3.3,0c0.4,0,0.7,0,0.9,0
	c0.4,0,1,0,1.7,0c1.2,0,2,0,2.3,0.1c0.4,0.1,0.7,0.2,0.8,0.5c0.1,0.2,0.1,0.7,0.1,1.5c0,0.5,0,0.9,0,1.2c0,1.5,0,2.3,0,2.6
	C65,57.8,64.9,58,64.7,58.1z M92.7,71.3c0.1,0.1,0.3,0.1,0.8,0c0.4-0.1,0.8-0.2,1.2-0.4c0.6-0.3,1.1-0.8,1.5-1.6
	c0.4-0.8,0.6-2.1,0.8-3.8c0.2-1.6,0.3-3.9,0.4-7c0-0.2,0-0.4,0-0.8c0-1.6,0.1-2.5,0.1-2.7c0-0.3,0.2-0.5,0.4-0.6c0,0,0.1,0,0.1,0
	c0.2-0.1,0.3-0.2,0.4-0.2c0-0.1,0-0.1,0-0.2c-0.1-0.2-0.4-0.5-0.8-0.9c-0.5-0.4-0.8-0.7-1-0.8c-0.1-0.1-0.2-0.1-0.3,0
	c-0.1,0-0.2,0.2-0.5,0.5c0,0-0.1,0.1-0.1,0.1c-0.3,0.3-0.5,0.5-0.7,0.6c-0.2,0-0.7,0.1-1.4,0.1c-0.2,0-0.3,0-0.4,0
	c-0.1,0-0.2,0-0.3,0c-0.7,0-1.2,0-1.3,0c-0.3,0-0.4-0.2-0.4-0.3c0-0.1,0.1-0.4,0.3-0.9c0-0.1,0.1-0.1,0.1-0.2
	c0.3-0.7,0.5-1.1,0.6-1.3c0.1-0.2,0.2-0.3,0.4-0.4c0.3-0.1,0.2-0.3-0.1-0.5c-0.4-0.2-1.1-0.5-2.2-0.8l0,0c-0.2-0.1-0.4-0.1-0.4,0
	c0,0-0.1,0.2-0.1,0.6c0,0,0,0.1,0,0.1c-0.3,2.3-1,4.8-2.2,7.6c-0.4,1-0.7,1.4-0.9,1.4c-0.1-0.1-0.2-0.7-0.2-2c0-1,0-1.6,0.1-1.8
	c0-0.2,0.2-0.4,0.5-0.6c0.2-0.1,0.3-0.3,0.2-0.5c-0.1-0.2-0.5-0.5-1.1-1c-0.4-0.4-0.7-0.5-0.9-0.5c-0.1,0-0.3,0.2-0.6,0.6
	c-0.3,0.4-0.8,0.6-1.5,0.7c-0.7,0.1-1-0.1-1-0.4c0-0.2,0.3-0.7,0.8-1.6c0.6-0.8,0.9-1.3,1.1-1.4c0.4-0.1,0.4-0.3,0.1-0.4
	c-0.3-0.2-0.9-0.4-2-0.6c0,0-0.1,0-0.2,0c-0.4-0.1-0.6-0.1-0.7-0.1c-0.1,0-0.1,0.2-0.1,0.6c0,0.1,0,0.2,0,0.2c0,0.5,0,1-0.1,1.5
	c-0.1,0.8-0.2,1.4-0.2,1.6c-0.1,0.3-0.3,0.4-0.5,0.4c-0.2,0-0.6-0.2-1.2-0.5c-0.6-0.3-0.9-0.4-1-0.4c0,0-0.1,0-0.1,0.1
	c0,0.1,0,0.3,0.1,0.8C78,54.6,78,57,78,60.6c0,3.8-0.1,6.6-0.2,8.4c-0.1,0.8,0,1.3,0.1,1.5c0.1,0.2,0.5,0.2,1.1,0
	c0.4-0.1,0.7-0.3,0.8-0.5c0.1-0.2,0.2-0.5,0.2-1v0c0-0.4,0-0.6,0-0.7c0.1-0.1,0.2-0.2,0.5-0.3c0.2,0,0.6,0,1.3,0c0,0,0.1,0,0.1,0
	c0,0,0.1,0,0.1,0c0.7,0,1.1,0,1.3,0c0.3,0,0.4,0.1,0.5,0.2c0,0.1,0.1,0.3,0.1,0.6V69c0,0.5,0.1,0.8,0.4,0.8c0.3,0.1,0.7,0,1.4-0.4
	c0,0,0.1,0,0.2-0.1c0.2-0.1,0.3-0.2,0.3-0.4c0-0.2,0-0.8,0-1.8c0-0.5,0-0.8,0-1.1c0-1.1,0-2.4,0-4.1c0-1.7,0-2.6,0.1-2.7
	c0-0.1,0.1-0.3,0.2-0.3c0.1-0.1,0.1-0.1,0,0c0,0.1,0,0.1,0.1,0.2c0.1,0,0.1,0,0.2,0c0.2-0.1,0.6-0.6,1.3-1.5
	c0.7-0.9,1.3-1.8,1.8-2.6c0,0,0,0,0-0.1c0.2-0.4,0.5-0.6,0.7-0.7c0.2-0.1,0.9-0.1,2-0.1c0.1,0,0.1,0,0.2,0c0.2,0,0.4,0,0.6,0
	c0.7,0,1.1,0,1.2,0c0.2,0,0.4,0.2,0.5,0.4c0,0.1,0.1,0.5,0,1c0,0.2,0,0.4,0,0.5c0,2.3-0.1,4.5-0.2,6.6c-0.1,2.1-0.3,3.5-0.5,4.4
	c-0.1,0.5-0.3,0.9-0.5,1.1c-0.2,0.2-0.6,0.4-1,0.4c-0.4,0-1.1,0-2.1-0.1c-0.5,0-0.8-0.1-0.9,0c-0.1,0-0.1,0.1-0.1,0.2
	c0,0.1,0.2,0.2,0.6,0.3c1.5,0.4,2.2,1,2.2,2.1C92.6,71.2,92.6,71.3,92.7,71.3z M81.5,67.3c-0.6,0-0.9,0-1.1-0.1
	c-0.2-0.1-0.3-0.3-0.4-0.6c0-0.2-0.1-0.8,0-1.7c0-0.4,0-0.7,0-0.9c0-0.2,0-0.5,0-0.8c0-0.8,0-1.4,0-1.6c0.1-0.3,0.2-0.5,0.4-0.6
	c0.1-0.1,0.5-0.1,1.1-0.1c0.2,0,0.4,0,0.6,0c0.1,0,0.3,0,0.6,0c0.6,0,0.9,0,1.1,0.1c0.2,0.1,0.3,0.3,0.4,0.6c0,0.2,0,0.8,0,1.6
	c0,0.4,0,0.6,0,0.8c0,1.5,0,2.3,0,2.6c0,0.3-0.1,0.4-0.2,0.5c-0.1,0.1-0.2,0.1-0.4,0.1c-0.1,0-0.6,0-1.4,0
	C81.9,67.3,81.7,67.3,81.5,67.3z M91.2,63.9c0.4,0.1,0.7,0.1,1-0.1c0.3-0.2,0.5-0.6,0.5-1c0-0.7-0.2-1.4-0.8-2
	c-0.5-0.7-1.3-1.3-2.4-1.8c-0.6-0.3-0.9-0.4-1-0.4c-0.1,0,0,0.3,0.3,0.7c1,1.5,1.6,2.9,1.8,4.1C90.6,63.6,90.8,63.8,91.2,63.9z
	 M81.5,60.3c-0.6,0-0.9,0-1.1-0.1c-0.2-0.1-0.3-0.3-0.4-0.6c0-0.2-0.1-0.7,0-1.6c0-0.4,0-0.7,0-0.9c0-0.2,0-0.4,0-0.8
	c0-0.8,0-1.3,0-1.5c0.1-0.3,0.2-0.5,0.4-0.6c0.1,0,0.5-0.1,1-0.1c0.2,0,0.4,0,0.6,0c0.1,0,0.3,0,0.6,0c0.6,0,0.9,0,1.1,0.1
	c0.2,0.1,0.3,0.2,0.4,0.6c0,0.2,0.1,0.7,0.1,1.5c0,0.3,0,0.6,0,0.7c0,1.4,0,2.2,0,2.5c0,0.3-0.1,0.4-0.2,0.5
	c-0.1,0.1-0.2,0.1-0.4,0.1c-0.1,0-0.6,0-1.4,0C81.9,60.3,81.7,60.3,81.5,60.3z M117.8,71.4c0.3,0.1,0.8,0,1.5-0.3c0,0,0.1,0,0.1,0
	c0.2-0.1,0.3-0.2,0.3-0.3c0-0.1,0-0.5,0-1.2c0-0.1,0-0.2,0-0.2c-0.1-1.6-0.1-2.7-0.1-3.3c0-0.7,0.1-1,0.2-1c0.1,0,0.4,0.3,0.7,0.8
	c1,1.8,2.2,3.2,3.7,4.2c0.2,0.2,0.4,0.2,0.4,0.2c0,0,0.1-0.1,0.2-0.3c0.1-0.3,0.3-0.6,0.6-1c0.3-0.3,0.5-0.5,0.7-0.6
	c0.2-0.1,0.3-0.2,0.3-0.2c0-0.1-0.1-0.2-0.3-0.2c-1.1-0.4-2.3-1-3.6-1.8c-1.3-0.9-1.8-1.5-1.7-1.8c0.1-0.1,0.2-0.2,0.4-0.2
	s1,0,2.3,0c1.2,0,2-0.1,2.3-0.1c0.4-0.1,0.5-0.2,0.3-0.5c-0.1-0.2-0.6-0.6-1.4-1.3c-0.4-0.3-0.6-0.4-0.7-0.4c-0.1,0-0.4,0.3-0.7,0.7
	c0,0,0,0.1-0.1,0.1c-0.3,0.4-0.5,0.6-0.7,0.7c-0.1,0.1-0.5,0.1-1.1,0.1c-0.1,0-0.1,0-0.2,0c-0.6,0-1,0-1.2,0c-0.2,0-0.3-0.1-0.3-0.3
	c-0.1-0.2-0.1-0.4,0-0.7c0.1-0.3,0.2-0.5,0.3-0.5c0.1,0,0.2-0.1,0.3-0.2c0.1-0.1,0.3-0.3,0.5-0.4c0.2-0.1,0.3-0.2,0.4-0.3
	c0.1-0.3,0.6-0.4,1.3-0.4c0.7,0,1.1,0.2,1.1,0.5c0,0.1,0.2,0.2,0.5,0.2c0.3,0,0.6-0.1,1-0.3c0.3-0.1,0.4-0.2,0.4-0.3
	c0-0.1,0.1-0.4,0-0.8c0-0.5,0-1,0-1.5c0-0.5,0-0.8,0.1-1c0.1-0.1,0.2-0.3,0.5-0.5c0.2-0.1,0.2-0.2,0.1-0.4c-0.1-0.2-0.3-0.4-0.7-0.7
	c-0.5-0.4-0.8-0.5-0.9-0.6c-0.1,0-0.3,0.1-0.6,0.3c-0.3,0.3-0.5,0.4-0.6,0.5c-0.1,0-0.5,0.1-0.9,0.1c-0.4,0-0.8,0-1-0.1
	c-0.2,0-0.6-0.2-1.2-0.5c0,0-0.1,0-0.1,0l0,0c-0.4-0.2-0.6-0.2-0.7-0.2c0,0-0.1,0.2,0,0.4v0c0.2,1.6,0.3,2.9,0.2,3.9
	c0,1-0.1,1.5-0.3,1.6c-0.3,0.1-0.6,0.1-0.9,0c-0.3-0.1-0.4-0.3-0.2-0.5c0-0.1,0.1-0.2,0.1-0.3c0-0.1,0-0.5,0-1.2c0-0.8,0-1.4,0-1.8
	c0-0.3,0.2-0.5,0.3-0.5c0.3,0,0.4-0.1,0.2-0.4c-0.1-0.3-0.5-0.6-1-1c-0.3-0.3-0.6-0.4-0.7-0.3c-0.1,0-0.4,0.2-0.7,0.6
	c-0.2,0.3-0.6,0.4-1.2,0.5c-0.6,0-1.1-0.1-1.7-0.4c-0.3-0.2-0.5-0.3-0.5-0.4c0-0.1,0-0.2,0.2-0.3c0.4-0.3,0.1-0.9-1-1.8
	c-0.3-0.3-0.5-0.4-0.6-0.4s-0.2,0.2-0.5,0.5c-0.3,0.4-0.5,0.6-0.6,0.7c-0.1,0.1-0.2,0.1-0.4,0c-0.2-0.2-0.2-0.8-0.2-1.9
	c0.1-1.1,0.2-1.7,0.4-1.9c0.2-0.2,0.2-0.3-0.1-0.5c-0.3-0.2-0.9-0.4-1.9-0.6c0,0,0,0-0.1,0c-0.3-0.1-0.5-0.1-0.6,0c0,0,0,0.2,0,0.6
	c0,0,0,0.1,0,0.1c0.1,0.9,0.2,1.8,0.2,2.7c0,1,0,1.5-0.1,1.6c-0.1,0.2-0.3,0.3-0.6,0.3c-0.3,0-0.9,0-1.7-0.1c0,0,0,0-0.1,0
	c-0.3,0-0.4,0-0.5,0c0,0,0,0.2,0.2,0.4c0,0,0,0.1,0,0.1s0,0,0,0.1c0.1,0.2,0.2,0.4,0.2,0.4c0.1,0,0.2,0,0.5-0.1c0,0,0.1,0,0.1,0
	c0.6-0.2,1.1-0.2,1.3-0.2c0.3,0.1,0.5,0.3,0.6,0.7c0.1,0.3,0.1,1,0.1,1.9c0,0.1,0,0.3,0,0.4c0,0.7,0,1.2-0.1,1.4
	c-0.1,0.3-0.2,0.5-0.6,0.6c-0.2,0.1-0.7,0.2-1.5,0.4c-0.2,0-0.4,0.1-0.5,0.1l0,0c-0.2,0-0.3,0.1-0.3,0.2s0.1,0.4,0.3,1
	c0,0.1,0.1,0.1,0.1,0.2c0.3,0.7,0.4,1.2,0.5,1.2c0.1,0.1,0.2,0,0.3-0.2c0.2-0.3,0.5-0.6,0.9-0.8c0.4-0.2,0.7-0.2,0.8,0
	c0.1,0.1,0.1,1,0.1,2.9c0,1.8,0,2.8,0,3.1c-0.1,0.3-0.2,0.4-0.5,0.5c-0.2,0.1-0.7,0.1-1.5,0c-0.5,0-0.7,0-0.8,0c0,0-0.1,0.1,0,0.2
	c0,0,0.1,0.1,0.2,0.1c0.6,0.1,1,0.3,1.3,0.6c0.3,0.3,0.5,0.7,0.6,1.3c0,0.2,0.1,0.2,0.1,0.3c0.1,0.1,0.4,0.1,1-0.1
	c0.6-0.2,0.9-0.4,1.2-0.6c0.2-0.2,0.3-0.4,0.4-0.6c0.1-0.3,0.1-0.7,0.1-1.4c0-0.5,0-1.6,0-3.4c0-0.3,0-0.8,0-1.3c0-1.2,0-2,0-2.4
	c0-0.5,0.1-0.8,0.2-1c0.1-0.1,0.3-0.3,0.7-0.6c0.1-0.1,0.3-0.2,0.3-0.2c0.6-0.4,0.9-0.5,1-0.4c0.1,0.1,0.1,0.7,0.1,1.6
	c0,0.4,0,0.6,0,0.7c0.1,0.1,0.2,0.1,0.5,0.1c0.3,0,0.6-0.1,0.9-0.2c0.3-0.1,0.4-0.3,0.5-0.4c0.1-0.3,0.4-0.5,0.9-0.5
	c0.5,0,0.8,0,1,0.1c0.2,0.1,0.3,0.2,0.3,0.4c0,0.1,0.1,0.2,0.2,0.2c0.1,0,0.4,0,0.8,0c0.2,0,0.4,0,0.4,0.1s0,0.3,0,0.8
	c0,0.1,0,0.1,0,0.1c0,0.1,0,0.2,0,0.3c0,0.3,0,0.6-0.1,0.6c-0.1,0.1-0.3,0.2-0.5,0.2c-0.2,0-0.7,0-1.4,0c-0.2,0-0.4,0-0.5,0
	c-1.5,0-2.4,0-2.9-0.1c0,0,0,0-0.1,0c-0.4,0-0.6,0-0.6,0c0,0,0,0.2,0.2,0.5c0,0,0,0,0,0.1c0.1,0.3,0.2,0.4,0.3,0.4
	c0.1,0,0.3,0,0.6,0c0,0,0.1,0,0.1,0c0.9-0.2,1.6-0.2,2.2-0.2c0.6,0,1,0.1,1,0.3c0.2,0.3-0.3,1.1-1.4,2.4c-1.1,1.3-2.2,2.3-3.3,3.1
	c-0.2,0.1-0.3,0.2-0.4,0.3c0,0,0,0.1,0,0.2c0.1,0.1,0.2,0.1,0.3,0c0.1,0,0.5-0.2,1-0.5c1.6-0.8,3.1-1.8,4.6-3.1
	c0.4-0.4,0.7-0.3,0.8,0.2c0.1,0.5,0.1,1.6,0,3.3C117.4,70.9,117.5,71.3,117.8,71.4z M123.2,59.8c-0.2,0.1-0.6,0.1-1.1,0.1
	c-0.5-0.1-0.7-0.2-0.8-0.3c-0.1-0.1-0.1-0.5-0.1-1.2c0-0.7,0.1-1.1,0.1-1.2c0.2-0.2,0.5-0.3,1.1-0.3c0.5,0,0.9,0.1,1.1,0.3
	c0.1,0.2,0.2,0.7,0.1,1.4S123.4,59.8,123.2,59.8z M115,59.9c-0.4,0-0.7,0-0.8-0.1c-0.2-0.1-0.3-0.5-0.3-1.2c0-0.7,0-1.2,0.1-1.4
	c0.2-0.2,0.5-0.3,1-0.3c0.5,0,0.8,0.1,1,0.3c0.1,0.2,0.2,0.6,0.1,1.4c0,0.7-0.1,1.1-0.3,1.2C115.7,59.8,115.5,59.9,115,59.9z
	 M111.2,58.8c-0.5,0.2-0.9,0.3-1,0.2c-0.2,0-0.3-0.2-0.4-0.4c0-0.2-0.1-0.7-0.1-1.5c0-0.7,0-1.2,0-1.4c0-0.3,0.1-0.5,0.3-0.5
	c0.1,0,0.4-0.1,0.8-0.1h0c0,0,0.1,0,0.1,0c0.5,0,0.8,0.1,0.9,0.2c0.1,0.1,0.2,0.5,0.2,1.1c0,0.1,0,0.1,0,0.1c0.1,1,0.1,1.6,0,1.8
	C112,58.5,111.7,58.7,111.2,58.8z M114.7,55.2c0.1,0.1,0.4,0.1,0.8,0c0.5-0.1,0.8-0.3,1.1-0.5c0.2-0.1,0.4-0.2,0.6-0.2
	c0.2,0,0.7,0,1.6,0c0.9,0,1.5,0,1.7,0.1c0.2,0,0.4,0.1,0.4,0.3c0,0.2,0.2,0.2,0.6,0.2c0.4-0.1,0.8-0.2,1.2-0.4
	c0.2-0.1,0.3-0.2,0.3-0.3c0-0.1,0-0.4,0-1c0-0.1,0-0.1,0-0.2c0-0.8,0-1.2,0-1.5c0-0.2,0.2-0.4,0.3-0.5c0.3-0.2,0.4-0.3,0.3-0.5
	c-0.1-0.2-0.4-0.5-1-1c-0.4-0.3-0.7-0.5-0.8-0.5c-0.1,0-0.3,0.1-0.5,0.4c0,0,0,0.1-0.1,0.1c-0.3,0.4-0.5,0.6-0.7,0.6
	c-0.2,0.1-0.7,0.1-1.5,0.1c-0.1,0-0.2,0-0.3,0c-0.1,0-0.2,0-0.4,0c-0.7,0-1.1,0-1.3,0c-0.2,0-0.6-0.2-1.1-0.4
	c-0.1,0-0.2-0.1-0.3-0.1c0,0-0.1,0-0.1,0c-0.5-0.2-0.7-0.3-0.8-0.3c-0.1,0-0.1,0.2-0.1,0.5c0,0.1,0,0.1,0,0.1c0,0.7,0.1,1.7,0.1,2.9
	C114.7,54.4,114.7,55.2,114.7,55.2z M118.8,53.8c-1.1,0-1.7,0-1.8-0.1c-0.2-0.1-0.3-0.6-0.3-1.3s0.1-1.2,0.3-1.3
	c0.1-0.1,0.7-0.1,1.8-0.1c1.1,0,1.7,0.1,1.8,0.1c0.2,0.1,0.3,0.5,0.3,1.2c0,0.7-0.1,1.1-0.2,1.3C120.6,53.7,119.9,53.7,118.8,53.8z
	 M135.8,71.4c0.2,0.1,0.6,0.1,1.1-0.1c0.5-0.1,0.9-0.3,1.1-0.6c0-0.1,0.1-0.1,0.1-0.2c0-0.1,0-0.4,0-0.8c-0.1-2-0.1-4.8-0.1-8.5
	c0-0.1,0-0.4,0-0.6c0-1.5,0-2.4,0-2.7c0-0.3,0.1-0.5,0.3-0.6l0,0c0.1-0.1,0.2-0.2,0.1-0.2c0-0.1-0.1-0.2-0.3-0.4
	c-0.3-0.3-0.4-0.5-0.4-0.7c0-0.2,0.2-0.6,0.6-1.2c0.6-1.1,1-2.1,1.5-3.1c0.3-0.6,0.5-1,0.8-1.1c0.3-0.1,0.3-0.2,0-0.4
	c-0.2-0.1-0.6-0.3-1.4-0.6s-1.2-0.4-1.4-0.5c-0.1,0-0.1,0-0.1,0c0,0,0,0.2-0.1,0.4c0,0.1,0,0.1,0,0.2c-0.2,1.6-0.8,3.5-1.7,5.7
	c-0.9,2.2-2,4.1-3.1,5.8c-0.3,0.4-0.3,0.6,0,0.6c0,0,0.3-0.2,0.6-0.5c0.4-0.4,0.7-0.7,1-0.9c0.5-0.6,0.9-0.9,1-1
	c0.1-0.1,0.2-0.1,0.3,0c0.1,0.1,0.2,1.5,0.1,4.2c0,2.7-0.1,4.8-0.2,6.5c0,0.7-0.1,1,0,1.2C135.6,71.2,135.7,71.3,135.8,71.4z
	 M145.2,71.4c0.2,0,0.4,0,0.7,0c0.4-0.1,0.6-0.2,0.9-0.3c0,0,0,0,0.1,0c0.2-0.1,0.3-0.2,0.3-0.4c0-0.1,0-0.5,0-1.2
	c0-0.1,0-0.2,0-0.2c-0.1-2.4-0.1-3.7,0-3.9c0-0.1,0.2-0.2,0.5-0.2c0.3,0,1.2-0.1,2.7-0.1c1.6,0,2.5,0,2.8,0c0.3,0,0.4-0.1,0.5-0.3
	c0.1-0.3-0.4-0.8-1.4-1.6c0,0,0,0-0.1-0.1c-0.4-0.3-0.7-0.5-0.8-0.4c-0.1,0-0.3,0.2-0.6,0.7l0,0c0,0,0,0.1-0.1,0.1
	c-0.3,0.4-0.6,0.6-0.7,0.7c-0.1,0.1-0.5,0.1-1.1,0.1c0,0-0.1,0-0.1,0c-0.1,0-0.2,0-0.3,0c-0.5,0-0.8,0-0.9-0.1
	c-0.2-0.1-0.3-0.2-0.3-0.5c0-0.2,0-0.6,0-1.3c0-0.2,0-0.3,0-0.4c0-0.2,0-0.4,0-0.7c0-0.6,0-1,0-1.1c0.1-0.2,0.3-0.3,0.6-0.4
	c0.2,0,0.7,0,1.5,0c0.4,0,0.7,0,1,0c1.1,0,1.8,0,2.1,0c0.4,0,0.7,0,0.8-0.1c0.1,0,0.1-0.1,0.1-0.2s-0.2-0.4-0.7-0.9
	c-0.5-0.5-0.9-0.8-1.2-1c-0.2-0.1-0.3-0.1-0.4,0c-0.1,0-0.3,0.3-0.6,0.7v0c-0.3,0.4-0.6,0.7-0.7,0.8c-0.1,0.1-0.5,0.1-1.1,0.1
	c-0.1,0-0.1,0-0.2,0c-0.4,0-0.7,0-0.8-0.1c-0.2,0-0.3-0.2-0.3-0.5c0-0.2,0-0.6,0-1.2c0-0.2,0-0.3,0-0.4c0-0.2,0-0.4,0-0.6
	c0-0.6,0-1,0.1-1.1c0.1-0.2,0.3-0.4,0.6-0.4c0.3,0,0.9-0.1,1.8,0c0.4,0,0.8,0,1,0c1.6,0,2.6,0,2.9,0c0.3,0,0.5-0.1,0.6-0.2
	c0.1-0.2-0.3-0.7-1.3-1.5c0,0-0.1,0-0.1-0.1c-0.4-0.4-0.7-0.5-0.9-0.5c-0.1,0-0.4,0.2-0.7,0.7c0,0.1-0.1,0.1-0.1,0.2
	c0,0-0.1,0.1-0.2,0.2c-0.2,0.3-0.4,0.5-0.7,0.6c-0.2,0-0.8,0.1-1.9,0.1c-0.4,0-0.6,0-0.8,0c-1.4,0-2.3,0-2.5,0
	c-0.2,0-0.4-0.1-0.4-0.2c-0.1-0.2,0.1-0.8,0.6-1.8c0.5-1,0.9-1.5,1.1-1.5c0.6-0.1,0-0.5-1.8-1.2c-0.1,0-0.2-0.1-0.3-0.1
	c-0.4-0.1-0.6-0.2-0.7-0.2c-0.1,0-0.1,0.2-0.2,0.5c0,0.1,0,0.2,0,0.2c-0.3,1.5-0.8,3.2-1.6,4.9c-0.7,1.7-1.6,3.3-2.5,4.8
	c-0.2,0.3-0.3,0.5-0.3,0.6c0,0.1,0,0.1,0.1,0.2c0.2,0,0.8-0.5,1.7-1.6c1-1.1,1.8-2.1,2.5-3.1c0.4-0.5,0.7-0.8,1-0.9
	c0.3-0.1,0.6,0.1,0.6,0.5c0.1,0.3,0.1,2.4,0,6.2c0,3.8-0.1,6.5-0.2,7.9c0,0.9-0.1,1.4,0,1.6C144.8,71.2,144.9,71.3,145.2,71.4z
	 M179,70.1c0.9,0.9,1.4,1.2,1.5,0.9c0.3-0.7,0.8-1.1,1.5-1.4c0.2-0.1,0.3-0.2,0.3-0.2c0-0.1-0.2-0.2-0.6-0.4
	c-1.5-0.9-2.8-1.9-3.8-3.2c-0.4-0.4-0.5-0.7-0.6-0.9c0-0.2,0.1-0.6,0.4-1.1c0.6-1.1,1-2.2,1.3-3.2c0.3-1,0.6-2.3,0.8-3.8
	c0.1-0.7,0.2-1.2,0.4-1.3c0.1-0.1,0.4-0.2,0.9-0.2c0.6,0,0.9-0.1,0.9-0.3s-0.3-0.5-0.8-1.1c-0.5-0.4-0.8-0.7-1-0.8
	c-0.2-0.1-0.4-0.2-0.5-0.1c-0.1,0.1-0.3,0.3-0.5,0.6l0,0c-0.3,0.5-0.6,0.7-0.7,0.8c-0.2,0.1-0.6,0.1-1.3,0.1c0,0-0.1,0-0.1,0
	c-0.8,0-1.3-0.1-1.4-0.2c-0.1-0.1-0.1-0.5,0.1-1.1c0-0.1,0.1-0.2,0.1-0.5c0.1-0.4,0.2-0.8,0.3-1c0.1-0.5,0.3-0.8,0.3-1
	c0.1-0.2,0.2-0.3,0.3-0.4c0.3-0.2,0.2-0.3,0-0.5c-0.3-0.1-1-0.4-2.1-0.6c0,0-0.1,0-0.2,0c-0.3-0.1-0.5-0.1-0.6-0.1
	c0,0-0.1,0.1-0.1,0.3c0,0,0,0.1,0,0.1c0,1.6-0.3,3.3-0.8,5.3c-0.2,0.7-0.3,1.1-0.5,1.2c-0.2,0-0.5-0.2-1.1-0.7c0,0-0.1-0.1-0.1-0.1
	c-0.3-0.3-0.5-0.4-0.6-0.4c-0.1,0-0.2,0.1-0.3,0.2l0,0c-0.5,0.6-0.8,0.9-1,0.8c-0.2,0-0.1-0.4,0.3-1c0.7-1.1,1.2-2,1.7-2.9
	c0.4-0.7,0.7-1,0.9-1.1c0.3,0,0.4-0.2,0.2-0.3c-0.2-0.2-0.6-0.4-1.4-0.8c0,0-0.1,0-0.1-0.1c-0.4-0.2-0.7-0.3-0.8-0.3
	c-0.1,0-0.1,0.1-0.2,0.3l0,0c-0.3,1-0.5,1.6-0.8,1.8c-0.2,0.2-0.6,0.1-1.1-0.4c-0.2-0.2-0.3-0.3-0.4-0.3c-0.1,0-0.2,0.1-0.3,0.3
	c-0.3,0.4-0.5,0.6-0.6,0.6c-0.2,0-0.3-0.2-0.3-0.7c0-0.5,0.1-0.8,0.4-0.9c0.5-0.3-0.1-0.6-2-1.1c-0.3-0.1-0.5-0.1-0.6-0.1
	s-0.1,0.1,0,0.4c0,0.2,0.1,0.6,0.1,1.2c0,0.6,0,0.9,0,1.1c0,0.3-0.2,0.5-0.5,0.6c-0.3,0-1.1,0-2.3-0.1c-0.3,0-0.4,0-0.4,0
	c0,0,0.1,0.2,0.2,0.6l0,0c0.1,0.2,0.2,0.4,0.2,0.4c0,0,0.1,0,0.3,0l0,0c1-0.3,1.6-0.3,2-0.2c0.3,0.2,0.5,0.6,0.5,1.5
	c0,0.6-0.1,1-0.2,1.2c-0.2,0.2-0.5,0.4-1.1,0.4c-0.5,0-1.4,0-2.7-0.2c-0.2,0-0.3,0-0.3,0c0,0,0.1,0.2,0.2,0.5c0,0,0,0.1,0,0.1
	c0.1,0.2,0.2,0.4,0.3,0.4c0.1,0,0.2,0,0.6,0c0,0,0.1,0,0.1,0c0.9-0.1,1.9-0.2,2.9-0.2c1,0,1.6,0,1.7,0.1c0.2,0.2-0.1,0.9-1.1,1.9
	c-0.3,0.3-0.6,0.4-1.1,0.5c-0.5,0-1.2,0-2.3-0.1c-0.2,0-0.2,0-0.3,0.1c0,0,0.1,0.2,0.2,0.5c0.1,0.3,0.2,0.4,0.3,0.5c0,0,0.2,0,0.3,0
	l0,0c0.7-0.2,1.1-0.3,1.2-0.1c0.1,0.2-0.1,0.6-0.6,1.1c-0.5,0.5-1.2,1.2-2.2,1.9c-0.2,0.1-0.3,0.2-0.4,0.3c0,0,0,0.1,0,0.1
	c0.1,0.1,0.1,0.1,0.2,0.1c0.1,0,0.2-0.1,0.5-0.2c1.4-0.8,2.8-1.8,4-2.9c0.3-0.2,0.7-0.4,1.2-0.5c0.4-0.1,0.8-0.1,1.2,0
	s0.5,0.3,0.4,0.5c-0.1,0.4-0.3,0.7-0.6,0.9c-0.3,0.2-0.6,0.2-1,0.2c0,0,0,0-0.1,0c-0.1,0-0.2,0-0.3,0.1c0,0,0,0.3,0,0.7
	c0,0.1,0,0.2,0,0.3c0,0,0,0.1,0,0.2c0,0.5,0,0.8-0.1,0.9c-0.1,0.2-0.5,0.3-1,0.4c-0.4,0.1-1.2,0.2-2.6,0.3c-0.3,0-0.5,0.1-0.6,0.1
	c0,0-0.1,0-0.1,0c-0.2,0-0.4,0.1-0.4,0.2c0,0.1,0.1,0.4,0.3,0.9c0,0.1,0.1,0.2,0.1,0.2c0,0,0,0.1,0.1,0.2c0.2,0.6,0.4,0.9,0.4,0.9
	c0.1,0.1,0.2,0,0.4-0.2c0.2-0.2,0.8-0.4,1.8-0.7c0,0,0.1,0,0.1,0c0.6-0.2,1-0.3,1.2-0.3c0.2,0,0.4,0.1,0.4,0.3
	c0,0.1,0.1,0.5,0.1,1.1c0,0,0,0.1,0,0.1c0,0,0,0,0,0.1c0,0.6,0,1-0.1,1.2c-0.1,0.2-0.3,0.4-0.6,0.4c-0.2,0-0.7,0-1.6,0
	c-0.1,0-0.1,0-0.2,0c-0.5,0-0.8,0-0.8,0c-0.2,0.1,0,0.2,0.5,0.4c0.6,0.1,1,0.3,1.3,0.6c0.3,0.3,0.5,0.7,0.6,1.2
	c0,0.2,0.1,0.3,0.1,0.4c0,0,0.1,0,0.2,0c0,0,0.1,0,0.3,0c0.5-0.1,0.9-0.2,1.3-0.4c0.4-0.2,0.6-0.4,0.8-0.7c0.1-0.2,0.2-0.5,0.2-0.7
	c0-0.3,0.1-1,0.1-2.1c0-0.2,0-0.4,0-0.7c0-0.9,0.1-1.4,0.2-1.6c0.1-0.2,0.6-0.4,1.5-0.7c0.3-0.1,0.5-0.2,0.7-0.2
	c1-0.3,1.6-0.5,1.8-0.6c0.2-0.1,0.3-0.2,0.2-0.3c0-0.1-0.1-0.1-0.2-0.1c-0.1,0-0.5,0.1-1.1,0.2c-0.3,0-0.6,0.1-0.7,0.1
	c-1.2,0.2-1.9,0.3-2.1,0.2c-0.2-0.1-0.3-0.2-0.3-0.5c0-0.3,0.1-0.5,0.3-0.6c0.4-0.2,0.5-0.4,0.3-0.5c-0.1-0.1-0.1-0.2,0-0.3
	c0.2-0.2,0.5-0.4,1-0.7c0.8-0.5,1.3-0.7,1.6-0.7c0.2,0,0.2,0.4,0,1c-0.1,0.3-0.2,0.4-0.2,0.5c0,0.1,0.1,0.1,0.2,0.2
	c0.1,0,0.3-0.2,0.7-0.6c0.4-0.4,0.8-1,1.2-1.6c0.4-0.6,0.7-0.9,0.8-0.9s0.3,0.3,0.4,0.9c0.2,1.2,0.5,2.4,0.9,3.6
	c0.2,0.5,0.2,0.9,0.2,1.1c0,0.2-0.2,0.5-0.5,1c-1.6,2.3-3.7,4.2-6.3,5.6c-0.4,0.2-0.4,0.3-0.2,0.4c0.1,0,0.7-0.2,1.8-0.7
	c1.1-0.5,2-1,2.6-1.4c0.4-0.3,1-0.7,1.7-1.2c0.7-0.6,1.1-0.9,1.2-1.1c0.1-0.3,0.3-0.4,0.5-0.3c0.2,0,0.4,0.2,0.6,0.5
	C177.3,68.2,178,69.2,179,70.1z M176.2,62.2c-0.2,0.2-0.4,0.2-0.5-0.1c-0.2-0.2-0.4-0.8-0.7-1.6c-0.5-1.4-0.8-2.3-0.8-2.8
	c0-0.5,0.2-1.2,0.6-2.1c0.1-0.3,0.6-0.4,1.3-0.5c0.8-0.1,1.2,0,1.4,0.3c0.2,0.3,0.1,1.4-0.3,3.4C176.9,60.8,176.5,61.9,176.2,62.2z
	 M171.6,59.7c-0.1,0.1-0.2,0.1-0.3,0.1c-0.1,0-0.3-0.2-0.6-0.5c-0.6-0.6-1-0.9-1.2-1c-0.2,0-0.4,0.1-0.7,0.4c-0.3,0.3-0.6,0.5-1,0.6
	c-0.4,0.1-0.7,0.1-0.9,0c-0.2-0.1-0.2-0.3-0.1-0.5c0.1-0.1,0.3-0.5,0.8-1c0.5-0.5,0.8-0.8,0.9-0.9c0.2-0.1,0.8-0.2,1.9-0.2
	c1.1,0,1.7,0.1,1.8,0.2c0.1,0.1,0.1,0.5-0.1,1.3C172,58.9,171.8,59.4,171.6,59.7z M167.3,55.7c-0.2,0.2-0.4,0.2-0.5,0.1
	c-0.1-0.2-0.1-0.6-0.1-1.3c0,0,0,0,0-0.1c0-0.7,0-1.1,0.1-1.2s0.3-0.2,0.8-0.2h0c0.6,0,0.9,0.1,0.9,0.3c0,0.2-0.2,0.8-0.8,1.7
	C167.6,55.3,167.4,55.6,167.3,55.7z M197.1,71.4c0,0.1,0.3,0,0.7,0c0.5-0.1,0.8-0.2,1.1-0.3c0.5-0.2,0.8-0.5,0.9-0.9
	c0.1-0.4,0.2-1.1,0.2-2.3c0-0.2,0-0.4,0-0.7c0-0.5,0-0.8,0.1-1c0.1-0.2,0.4-0.3,0.8-0.4c0.3,0,1,0,2.2,0c0.6,0,1.1,0,1.5,0
	c0.2,0,0.5,0,0.9,0c1.8,0,2.8,0,3.1,0c0.3,0,0.5-0.1,0.5-0.2v0c0.1-0.2-0.4-0.7-1.3-1.5c0,0,0,0-0.1-0.1c-0.4-0.4-0.7-0.5-0.8-0.5
	c-0.1,0-0.4,0.3-0.7,0.8l0,0.1c0,0-0.1,0.1-0.1,0.2c-0.2,0.3-0.4,0.5-0.6,0.5c-0.2,0-0.8,0.1-1.8,0.1c-0.2,0-0.4,0-0.6,0
	c-1.6,0-2.4,0-2.5,0c-0.3-0.1-0.4-0.2-0.4-0.5c0-0.2,0.1-0.4,0.4-0.6c0.1-0.1,0.2-0.2,0.2-0.2c0.1-0.1,0.6-0.4,1.4-0.7
	c0.6-0.2,1.2-0.4,1.7-0.7c0.4-0.2,0.7-0.3,1.1-0.4c0.4-0.1,0.6-0.2,0.5-0.3c0-0.1-0.3-0.4-0.7-0.9c-0.6-0.6-1-0.9-1.2-0.9
	c-0.2,0-0.5,0.2-0.9,0.6c0,0-0.1,0.1-0.1,0.1c-0.2,0.2-0.4,0.3-0.7,0.4c-0.3,0-1.1,0.1-2.5,0.1c-0.3,0-0.6,0-0.8,0
	c-2.7,0-4.5,0-5.4-0.1c-0.2,0-0.3,0-0.3,0c0,0,0.1,0.2,0.2,0.6c0,0,0,0,0,0.1c0.1,0.2,0.2,0.4,0.3,0.4c0.1,0,0.3,0,0.6,0
	c0,0,0.1,0,0.1,0c1-0.1,2.5-0.2,4.4-0.2c1.1,0,1.9,0,2.2,0c0.4,0,0.6,0.1,0.6,0.2c0,0.1-0.2,0.3-0.6,0.6c-0.4,0.4-0.7,0.6-0.9,0.6
	c-0.2,0.1-0.6,0.1-1.1,0c0,0-0.1,0-0.2,0c-0.3,0-0.5,0-0.5,0c0,0-0.1,0.2,0,0.5c0,0.1,0,0.1,0,0.2c0,0.1,0,0.2,0,0.3
	c0,0.4,0,0.6-0.1,0.7c-0.1,0.1-0.4,0.2-0.8,0.2c-0.3,0-1.1,0-2.3,0c-0.4,0-0.7,0-0.9,0c-2.8,0-4.4-0.1-5-0.1c-0.1,0-0.2,0-0.2,0.1
	c0,0.1,0.1,0.3,0.2,0.6c0,0,0,0.1,0.1,0.2c0.1,0.2,0.2,0.3,0.3,0.3s0.3,0,0.7-0.1c0.1,0,0.2,0,0.2,0c0.9-0.1,2.4-0.2,4.5-0.2
	c0.2,0,0.5,0,0.8,0c0.9,0,1.5,0,1.7,0c0.4,0,0.6,0.1,0.6,0.3c0,0.1,0.1,0.4,0,0.9c0,0.2,0,0.3,0,0.4c0,0.6-0.1,1-0.1,1.2
	c-0.1,0.2-0.4,0.3-0.8,0.4c-0.3,0-1,0-2.2-0.1c-0.2,0-0.3,0-0.4,0c0,0.1,0,0.1,0,0.2c0.1,0,0.3,0.1,0.6,0.2c0.6,0.2,1.1,0.4,1.3,0.6
	c0.3,0.3,0.5,0.7,0.6,1.2C197.1,71.2,197.1,71.3,197.1,71.4z M189,61.8c0.5,0.1,1,0,1.5-0.4c0.4-0.4,0.7-1,0.8-1.8
	c0-0.4,0.2-0.6,0.3-0.7c0.1,0,2.5-0.1,7.2-0.1c4.7,0,7.1,0,7.2,0.1c0.2,0.1,0.2,0.2,0.2,0.4c0,0.2-0.1,0.5-0.3,1
	c-0.1,0.4-0.2,0.6-0.1,0.7c0.1,0.1,0.3,0,0.7-0.2c0.3-0.2,0.9-0.5,1.7-1.1c0.4-0.3,0.8-0.4,1.2-0.5c0.2,0,0.3-0.2,0.2-0.4
	c-0.1-0.2-0.4-0.5-0.8-1c-0.5-0.5-0.8-0.8-1-0.8c-0.1,0-0.3,0-0.6,0.3c-0.3,0.3-0.6,0.5-0.6,0.5c-0.1,0-0.2-0.2-0.2-0.7
	c0-0.3,0-1.1,0.1-2.3c0-0.1,0-0.2,0-0.3c0.1-1.4,0.1-2.3,0.2-2.5c0.1-0.3,0.2-0.5,0.5-0.6l0.1,0c0.1-0.1,0.2-0.2,0.1-0.4
	c-0.1-0.2-0.3-0.4-0.7-0.8c-0.5-0.5-0.8-0.7-1-0.7c-0.1,0-0.4,0.2-0.6,0.6c-0.2,0.3-0.4,0.5-0.6,0.6c-0.1,0-0.5,0.1-1,0
	c-0.9,0-1.4-0.1-1.6-0.2c-0.1-0.1-0.4-0.3-1-0.6c-0.6-0.3-0.9-0.5-0.9-0.5c-0.1,0.1-0.1,0.2-0.2,0.5c-0.2,0.4-0.4,0.7-0.6,0.8
	c-0.2,0.1-0.5,0.1-1,0c-0.5-0.1-0.8-0.1-0.9,0c0,0.1-0.1,0.1,0,0.2c0,0,0.1,0.1,0.3,0.2c0.4,0.3,0.7,0.5,0.7,0.7
	c0,0.2-0.1,0.5-0.5,0.8l0,0c-0.5,0.5-0.8,0.7-1,0.8c-0.1,0-0.4-0.2-0.9-0.5l0,0c-0.3-0.2-0.4-0.4-0.5-0.4c-0.1,0-0.2,0.1-0.3,0.2
	c0,0,0,0.1,0,0.1c-0.3,0.4-0.6,0.6-0.9,0.6c-0.3,0-0.5-0.2-0.5-0.6c-0.1-0.4,0-0.8,0-0.9c0.1-0.2,0.3-0.3,0.7-0.4h0
	c0.5-0.1,0.9-0.2,1.2-0.3c0.4-0.1,0.8-0.2,1.2-0.2c0.2,0,0.3-0.1,0.2-0.2c-0.1-0.1-0.4-0.4-0.9-0.9c0,0-0.1-0.1-0.1-0.1
	c-0.2-0.2-0.3-0.3-0.4-0.3c0,0-0.1,0-0.3,0.2l0,0c-0.6,0.6-1.1,1-1.4,1.1c-0.3,0.1-0.7,0.1-1.2,0c-0.1,0-0.2,0-0.3-0.1
	c-0.2-0.1-0.4-0.1-0.5,0c-0.1,0.1-0.2,0.3-0.2,0.6c0,0.2,0,0.8,0,1.7c0,0.5,0,0.9,0,1.2c0.1,2.6,0.1,3.9,0,4.1
	c-0.1,0.1-0.2,0.2-0.3,0.1c-0.1-0.1-0.2-0.2-0.3-0.4c-0.1-0.3-0.2-0.5-0.3-0.6c-0.1-0.1-0.2,0-0.2,0.3c0,0.4-0.1,0.8-0.4,1.3
	c-0.3,0.5-0.6,0.8-0.9,1.1c-0.5,0.4-0.8,0.8-0.8,1.3C188.3,61.4,188.5,61.7,189,61.8z M200.8,58.2c-2.1,0-3.2,0-3.4-0.1
	c-0.3-0.1-0.2-0.3,0.3-0.6c0.1,0,0.4-0.2,0.8-0.4c0.4-0.2,0.7-0.3,0.9-0.3c0.2,0,0.3,0.2,0.6,0.5c0.2,0.3,0.5,0.5,0.7,0.5
	c0.2,0,0.4-0.2,0.5-0.5c0.1-0.3,0-0.7-0.2-1.1c-0.1-0.3-0.2-0.5-0.2-0.6c0-0.1,0.2-0.4,0.5-0.6c0.2-0.2,0.4-0.3,0.4-0.3
	c0.3,0,0.3-0.1,0.3-0.2c-0.1-0.1-0.3-0.3-0.7-0.5c-0.3-0.2-0.5-0.3-0.6-0.5c0-0.1,0-0.2,0.1-0.4c0.3-0.3,0.2-0.7,0-1.2
	c-0.1-0.2-0.2-0.4-0.2-0.6c0-0.2,0.2-0.3,0.4-0.5c0.2-0.2,0.4-0.3,0.6-0.3c0.2,0,0.3,0.2,0.4,0.4c0.3,0.4,0.4,0.7,0.5,0.6
	c0.6-0.3,1.1-0.3,1.5-0.3c0.4,0.1,0.6,0.3,0.6,0.7c0,0.6-0.1,1-0.4,1.1c-0.3,0.1-0.9,0.1-2,0c-0.2,0-0.2,0-0.3,0
	c0,0,0.1,0.2,0.2,0.5c0,0,0,0.1,0.1,0.1c0.1,0.2,0.2,0.3,0.2,0.3c0,0,0.2,0,0.3,0c0,0,0.1,0,0.1,0c1.2-0.4,1.7-0.1,1.5,1
	c0,0.4-0.2,0.6-0.5,0.7c-0.2,0.1-0.8,0.1-1.6,0c-0.3,0-0.4,0-0.4,0c0,0,0,0.2,0.2,0.5c0,0,0,0,0,0.1c0.1,0.2,0.2,0.4,0.2,0.4
	s0.2,0,0.3,0c0,0,0.1,0,0.1,0c0.3-0.1,0.6-0.2,0.9-0.1c0.3,0,0.4,0.1,0.5,0.2c0.1,0.2,0.1,0.4,0.1,0.7c0,0.3-0.1,0.5-0.2,0.7
	C204,58.1,202.9,58.2,200.8,58.2z M195.2,58.2c-0.8,0-1.2,0-1.2-0.1c-0.2-0.1-0.3-0.4-0.3-0.7c0-0.4,0.1-0.7,0.2-0.8
	c0.1-0.1,0.2-0.1,0.3-0.1c0.1,0,0.5,0,1,0c0.9,0,1.4-0.1,1.6-0.2c0.1-0.2,0-0.5-0.5-1c-0.4-0.4-0.6-0.5-0.7-0.6s-0.3,0.1-0.6,0.4
	c-0.4,0.5-0.7,0.7-1,0.6c-0.3-0.1-0.4-0.4-0.4-1c0-0.4,0.1-0.6,0.2-0.7c0.1-0.1,0.6-0.1,1.3-0.1c0.6,0,0.9,0,1.1,0
	c0.2,0,0.3-0.1,0.4-0.2c0,0,0.1-0.1,0.2-0.1c0.1,0,0.7-0.2,1.6-0.8c0.4-0.2,0.7-0.4,0.8-0.3c0.2,0,0.4,0.2,0.6,0.5
	c0.2,0.2,0.3,0.4,0.3,0.5c0,0.1,0,0.3-0.2,0.6c-0.2,0.4-0.4,0.6-0.6,0.7c-0.2,0.1-0.5,0.1-0.9,0c-0.7-0.2-1.1-0.2-1.2-0.1
	c-0.1,0-0.1,0.1,0,0.1c0,0,0.1,0.1,0.3,0.3c0.6,0.4,0.8,0.7,0.7,1c-0.1,0.3-0.5,0.7-1.3,1.3c-0.3,0.2-0.5,0.3-0.5,0.4
	c0,0.1,0,0.1,0.1,0.2c0.1,0.1,0.1,0.2-0.1,0.2C196.4,58.2,195.9,58.2,195.2,58.2z M226.4,63.6c1.1,0.1,2-0.2,2.8-1
	c0.8-0.8,1.1-1.7,1-2.8c-0.1-0.9-0.5-1.6-1.2-2.2c-0.6-0.5-1.4-0.8-2.2-0.8c-0.9,0-1.6,0.3-2.3,0.9c-0.7,0.6-1,1.4-1.1,2.3
	c0,0.8,0.2,1.6,0.7,2.3C224.8,63.1,225.5,63.5,226.4,63.6z M227.8,62.7c-0.8,0.3-1.6,0.2-2.3-0.3s-1.1-1.2-1.1-2.1
	c0-0.7,0.2-1.3,0.7-1.8c0.5-0.5,1.1-0.7,1.7-0.7c0.7,0,1.3,0.2,1.8,0.7c0.7,0.6,0.9,1.4,0.7,2.3C229.2,61.7,228.6,62.3,227.8,62.7z"
	/>
</svg>
