<?xml version="1.0" encoding="utf-8"?>
<!-- Generator: Adobe Illustrator 24.2.3, SVG Export Plug-In . SVG Version: 6.00 Build 0)  -->
<svg version="1.1" id="Layer_1" xmlns="http://www.w3.org/2000/svg" xmlns:xlink="http://www.w3.org/1999/xlink" x="0px" y="0px"
	 viewBox="0 0 352 219" style="enable-background:new 0 0 352 219;" xml:space="preserve">
<style type="text/css">
	.st0{clip-path:url(#SVGID_2_);}
	.st1{fill:none;stroke:#D6D2C7;stroke-width:1.3;stroke-miterlimit:10;stroke-dasharray:9.31,9.31;}
	.st2{fill:#D6D2C7;}
</style>
<g>
	<defs>
		<rect id="SVGID_1_" width="351.3" height="218.1"/>
	</defs>
	<clipPath id="SVGID_2_">
		<use xlink:href="#SVGID_1_"  style="overflow:visible;"/>
	</clipPath>
	<g class="st0">
		<path class="st1" d="M350.6,0.6H0.6v216.8h350V0.6z"/>
	</g>
</g>
<path class="st2" d="M36.6,47.5c0,0.1,0.3,0.1,0.8,0c0.5-0.1,0.9-0.3,1.2-0.4c0.3-0.2,0.5-0.5,0.6-0.8c0.1-0.3,0.1-1.1,0.2-2.3
	c0-0.1,0-0.3,0-0.5c0-0.7,0-1.2,0.1-1.4c0-0.3,0.2-0.4,0.4-0.5c0.1,0,0.5-0.1,1-0.1c0.2,0,0.3,0,0.4,0c1,0,1.5,0,1.6-0.1
	c0.1-0.1-0.1-0.4-0.6-1c-0.4-0.4-0.6-0.7-0.6-0.8c0-0.1,0-0.3,0.2-0.4c0.3-0.3,0.4-0.6,0.3-1.1c-0.1-0.5-0.5-0.9-1-1.2
	c-0.3-0.2-0.5-0.4-0.5-0.5c0-0.1,0.1-0.3,0.3-0.4c0,0,0.1,0,0.1-0.1c0.2-0.1,0.3-0.2,0.3-0.4c0-0.2,0-0.6,0-1.5c0-0.2,0-0.4,0-0.5
	c0-1.2,0-2,0.1-2.3c0-0.3,0.2-0.5,0.4-0.6c0.2-0.1,0.2-0.2,0.2-0.3c0-0.1-0.2-0.4-0.6-0.7c-0.5-0.5-0.9-0.7-1.1-0.8
	c-0.2-0.1-0.4,0-0.6,0.3c-0.3,0.4-0.5,0.6-0.6,0.7c-0.1,0.1-0.4,0.1-0.9,0.1c-0.4,0-0.7-0.1-0.8-0.2c-0.1-0.1-0.2-0.3-0.2-0.7
	c0-0.3,0.1-0.5,0.1-0.5c0.1-0.1,0.3-0.2,0.7-0.2c0.3,0,0.9,0,1.8,0c1.7,0,2.6-0.1,2.7-0.3s-0.3-0.7-1.4-1.5
	c-0.3-0.2-0.5-0.3-0.6-0.3c-0.1,0-0.3,0.3-0.6,0.7c-0.6,0.8-1.3,1-2.2,0.8c-0.3-0.1-0.4-0.2-0.4-0.5c0-0.3,0.1-0.5,0.3-0.7
	c0.2-0.2,0.2-0.3,0-0.5c-0.2-0.1-0.7-0.3-1.6-0.6c0,0-0.1,0-0.2,0c-0.4-0.1-0.6-0.1-0.6-0.1c0,0-0.1,0.1,0,0.4c0,0,0,0.1,0,0.1
	c0,0.7,0,1.2,0,1.4c-0.1,0.3-0.4,0.4-0.9,0.5c-0.4,0-1.3,0-2.6-0.1c-0.1,0-0.3,0-0.4,0c-0.3,0-0.5,0-0.5,0c0,0-0.1,0-0.1,0.1
	c0,0.2-0.3,0.1-0.8-0.2l0,0c-0.3-0.2-0.4-0.2-0.5-0.2c-0.1,0-0.3,0.3-0.6,0.8c-0.4,0.6-0.9,0.8-1.2,0.6c-0.2-0.1-0.3-0.5-0.3-1.1
	c0-0.6,0.1-0.9,0.3-1.1c0.5-0.3-0.1-0.6-1.9-1.1c-0.3-0.1-0.5-0.1-0.5-0.1c0,0,0,0.1,0,0.4c0.1,0.6,0.1,1.2,0.1,1.8
	c0,0.6,0,0.9-0.1,1c-0.2,0.3-1.2,0.3-3,0.1c0,0,0,0-0.1,0c-0.3,0-0.5,0-0.6,0s0,0.2,0.2,0.5l0,0c0,0,0,0,0,0.1
	c0.1,0.2,0.2,0.3,0.3,0.3c0.1,0,0.2,0,0.5-0.1c0.1,0,0.1,0,0.1,0c0.9-0.2,1.6-0.2,2-0.1s0.6,0.5,0.6,1c0,0.6-0.1,1-0.4,1.1
	c-0.3,0.1-0.9-0.1-1.8-0.5c-0.5-0.2-0.8-0.4-0.9-0.4s-0.1,0-0.1,0.1c0,0.1,0,0.3,0.1,0.7c0.1,0.9,0.2,2.2,0.2,4c0,1.8,0,3.1-0.1,3.9
	c0,0.4,0,0.7,0.1,0.9c0.1,0.1,0.3,0.2,0.6,0.1c0.8-0.1,1.2-0.4,1.2-0.7c0-0.3,0.1-0.4,0.3-0.6c0.2-0.1,0.4-0.2,0.6,0
	c0.2,0.2,0.3,0.6,0.3,1.4c0,0.8-0.2,1.2-0.4,1.3c-0.1,0.1-0.6,0.1-1.6,0c-0.9,0-1.5-0.1-1.8-0.1c-0.1,0-0.1,0-0.1,0.1
	c0,0.1,0.1,0.2,0.2,0.5c0,0,0,0,0,0.1c0.1,0.2,0.2,0.4,0.3,0.4c0.1,0,0.2,0,0.5,0c0,0,0.1,0,0.1,0c0.7-0.1,1.3-0.2,1.8-0.2
	c0.5,0,0.8,0.1,0.9,0.3c0,0.1,0.1,0.6,0,1.5c0,0.9,0,1.6-0.1,2.3c0,0.5,0.1,0.8,0.4,0.9c0.3,0.1,0.8,0,1.3-0.3
	c0.2-0.1,0.3-0.2,0.4-0.3c0-0.1,0.1-0.4,0-0.8c0-0.1,0-0.1,0-0.1c0-0.1,0-0.3,0-0.6c0-1-0.1-1.7,0-1.9c0-0.4,0.2-0.6,0.5-0.7
	c0.2-0.1,0.6-0.1,1.3-0.1c0.2,0,0.3,0,0.4,0c1,0,1.5,0,1.7,0c0.2,0,0.3-0.1,0.4-0.2c0-0.1,0-0.1,0-0.2c-0.1-0.1-0.1-0.3,0-0.4
	s0.3-0.2,0.5-0.1c0.2,0,0.4,0.1,0.4,0.2c0,0,0.1,0.2,0.2,0.4c0.2,0.3,0.4,0.7,0.5,1.2c0.2,0.5,0.3,0.9,0.3,1.1
	c0,0.3,0.3,0.5,0.9,0.7c0.1,0,0.2,0,0.3,0.1l0,0c0,0,0,0.1,0,0.1c0,0.1,0.2,0.2,0.4,0.2c0.5,0.1,0.9,0.3,1.1,0.5
	c0.2,0.2,0.4,0.6,0.5,1.1c0,0,0,0.1,0,0.1C36.6,47.4,36.6,47.5,36.6,47.5z M37,45.2c-0.2,0.1-0.8,0.1-1.6,0c-0.2,0-0.3-0.1-0.3-0.2
	c0-0.1,0-0.3,0.1-0.6c0.3-0.7-0.1-1.4-1.1-2.1c-0.5-0.4-0.7-0.6-0.6-0.7c0.2-0.1,0.8-0.1,1.9-0.1c0.1,0,0.2,0,0.3,0
	c0.8,0,1.3,0.1,1.4,0.2c0.1,0.1,0.2,0.6,0.2,1.4c0,0.1,0,0.2,0,0.3c0,0.8,0,1.3,0,1.4C37.2,45,37.1,45.1,37,45.2z M28.1,41.7
	c-0.2,0.1-0.3,0.1-0.5,0.1c-0.2,0-0.3-0.1-0.4-0.2c-0.1-0.1-0.1-0.4-0.1-1s0-1,0-1.2c0.1-0.4,0.3-0.5,0.6-0.4
	c0.3,0.1,0.5,0.3,0.5,0.7c0,0.3,0.1,0.5,0.4,0.5c0.3,0,0.6-0.1,1-0.3c0,0,0,0,0.1-0.1c0.2-0.2,0.4-0.3,0.4-0.4c0-0.1,0.1-0.3,0-0.7
	c0,0,0-0.1,0-0.1c-0.1-2.2-0.1-3.7-0.1-4.3c0-0.9,0-1.5,0.1-1.7c0.1-0.2,0.2-0.4,0.5-0.5c0.2-0.1,0.3-0.2,0.2-0.4
	c-0.1-0.2-0.4-0.5-1-0.9c-0.4-0.3-0.6-0.4-0.7-0.4c-0.1,0-0.3,0.1-0.5,0.4c-0.4,0.5-0.8,0.7-1.1,0.6c-0.3-0.1-0.4-0.5-0.4-1.1v0
	c0-0.4,0-0.6,0.1-0.6c0.1-0.1,0.2-0.2,0.5-0.3c0.2,0,0.6,0,1.4,0c0.1,0,0.1,0,0.1,0c0.9,0,1.5,0,1.6,0c0.2,0,0.3,0.1,0.4,0.2
	c0.1,0.2,0.2,1,0.2,2.5c0,1.5,0,2.6,0,3.4c0,0.5,0,0.8,0,0.9c0.1,0.1,0.2,0.2,0.5,0.1c0.3,0,0.6-0.1,1-0.2c0.3-0.2,0.5-0.3,0.5-0.4
	c0-0.4,0.3-0.6,1-0.6c0.4,0,0.7,0.1,0.8,0.2s0.2,0.4,0.2,1c0,0,0,0.1,0,0.1c0,0.4,0,0.6-0.1,0.7c-0.1,0.1-0.4,0.2-0.8,0.3
	c-0.3,0-1,0.1-2.2,0.1c-0.1,0-0.3,0-0.3,0c-0.1,0-0.2,0-0.3,0c-0.4,0-0.6,0.1-0.6,0.1c0,0.1,0,0.3,0.2,0.7c0,0.1,0.1,0.2,0.1,0.3
	c0,0,0,0.1,0.1,0.2c0.2,0.5,0.4,0.8,0.4,0.9c0.1,0.1,0.2,0,0.3-0.1l0,0c0.2-0.1,0.4-0.3,0.6-0.3c0.3-0.1,0.9-0.3,1.9-0.5
	c0.1,0,0.3-0.1,0.5-0.1c0.8-0.2,1.2-0.3,1.4-0.3c0.3,0,0.5,0,0.5,0.1c0.1,0.1,0.1,0.3,0.1,0.7c0,0.1,0,0.2,0,0.2c0,0.1,0,0.2,0,0.3
	c0,0.4,0,0.6-0.1,0.7c-0.1,0.1-0.3,0.2-0.7,0.2c-0.3,0-0.9,0-1.8,0c-0.4,0-0.7,0-0.9,0c-1.5,0-2.4,0-2.7,0c-0.3,0-0.4,0-0.4,0.1
	c0,0.1-0.1,0.1-0.3,0.1c-0.2-0.1-0.4-0.2-0.7-0.4l0,0c-0.2-0.1-0.3-0.2-0.3-0.2c0,0-0.1,0.1-0.3,0.3c0,0-0.1,0.1-0.1,0.1
	C28.6,41.3,28.3,41.6,28.1,41.7z M40,40.7c-0.3,0.1-0.4,0-0.5-0.3c-0.1-0.3,0-0.6,0.3-0.7c0.2-0.1,0.2-0.2,0-0.3
	c-0.1-0.1-0.4-0.2-1-0.4c-0.6-0.2-1-0.4-1-0.6s0.3-0.3,1-0.5c0.5-0.1,0.8-0.1,1,0c0.2,0.1,0.4,0.4,0.7,0.8c0,0,0.1,0.1,0.1,0.2
	c0.1,0.2,0.2,0.3,0.2,0.3c0.1,0.1,0.1,0.4-0.1,0.8C40.5,40.4,40.2,40.6,40,40.7z M28,38.1c-0.7,0.5-1.1,0.1-1.1-1.3s0.4-1.8,1.1-1.3
	c0.2,0.1,0.3,0.6,0.3,1.3S28.2,38,28,38.1z M24.6,38.2c-0.3,0-0.5-0.1-0.6-0.3c-0.1-0.2-0.1-0.6-0.1-1.1c0-0.6,0.1-1.1,0.3-1.3
	c0.2-0.2,0.5-0.2,0.8,0c0.2,0.1,0.3,0.6,0.3,1.3S25.2,38,25,38.1C24.9,38.2,24.8,38.2,24.6,38.2z M38.7,37.2
	c-0.2,0.1-0.4,0.2-0.8,0.1c-0.3,0-0.5-0.1-0.6-0.3c-0.3-0.4-0.3-0.8-0.1-1.2c0.2-0.4,0.6-0.6,1.1-0.6c0.5,0,0.8,0.1,0.9,0.4
	S39.1,36,38.6,36c-0.2,0-0.3,0-0.3,0.1c0,0,0.1,0.2,0.3,0.4C38.9,36.8,39,37,38.7,37.2z M27.9,34.7c-0.4,0.1-0.6,0.1-0.7-0.1
	C27,34.4,27,34,27,33.4c0-1.3,0.4-1.7,1.1-1.2c0.2,0.2,0.3,0.6,0.3,1.3C28.3,34.2,28.2,34.6,27.9,34.7z M35,34.5
	c-0.4,0.2-0.7,0.2-1.1,0c-0.4-0.2-0.6-0.4-0.6-0.8c0-0.4,0.2-0.6,0.6-0.8c0.4-0.2,0.8-0.2,1.1,0c0.2,0.1,0.3,0.4,0.3,0.8
	C35.3,34.2,35.2,34.4,35,34.5z M25,34.7c-0.2,0.1-0.3,0.1-0.6,0.1c-0.2,0-0.3-0.1-0.4-0.3c-0.1-0.1-0.1-0.4-0.1-0.9
	c0-0.5,0-0.9,0-1.1c0.1-0.3,0.3-0.5,0.6-0.5s0.5,0.2,0.6,0.5c0.1,0.3,0.1,0.7,0,1.3C25.2,34.3,25.1,34.6,25,34.7z M38.3,34.6
	c-0.4,0-0.7,0-0.9-0.1c-0.1-0.1-0.2-0.3-0.2-0.7c0-0.4,0.1-0.6,0.2-0.7c0.1-0.1,0.4-0.2,0.9-0.2c0.4,0,0.7,0.1,0.9,0.2
	c0.1,0.1,0.2,0.3,0.2,0.7c0,0.4-0.1,0.6-0.3,0.7C39,34.6,38.7,34.6,38.3,34.6z M39,32.2c-0.4,0.2-0.8,0.2-1.2,0
	c-0.4-0.1-0.6-0.4-0.6-0.7c0-0.4,0.1-0.8,0.6-1c0.4-0.2,0.9-0.2,1.3,0.1c0.2,0.1,0.3,0.4,0.3,0.8C39.3,31.8,39.2,32.1,39,32.2z
	 M34.9,32.2c-0.2,0.1-0.5,0.1-0.9,0.1c-0.4,0-0.6-0.1-0.6-0.3c-0.3-0.5-0.2-0.9,0.2-1.2c0.4-0.4,0.8-0.4,1.3-0.1
	c0.2,0.1,0.3,0.4,0.3,0.8C35.3,31.8,35.2,32.1,34.9,32.2z M35,29.8c-0.1,0.1-0.4,0.1-0.8,0.1s-0.8-0.1-1-0.1c-1.5-0.5-2-0.9-1.4-1.2
	c0.2-0.1,0.8-0.2,1.6-0.2c0.9,0,1.4,0,1.6,0c0.2,0.1,0.3,0.4,0.3,0.7C35.3,29.4,35.2,29.7,35,29.8z M58.4,47.4
	c0.2,0.2,0.7-0.1,1.6-0.8c0.9-0.7,1.6-1.5,2.2-2.3c0.9-1.3,1.6-2.7,2.1-4.4c0.4-1.7,0.7-3.9,0.9-6.7c0-0.7,0.1-1.1,0.2-1.2
	c0.1-0.1,0.5-0.2,1.1-0.2c0,0,0.1,0,0.2,0c0.4,0,0.7,0,0.8,0.1c0.2,0.1,0.2,0.4,0.3,1c0,0.4,0,1.2,0,2.6c0,0.2,0,0.4,0,0.5
	c-0.1,3.1-0.2,5.1-0.3,6c-0.1,1.2-0.4,2-0.9,2.3c-0.3,0.3-1,0.3-2,0.3c-0.6,0-0.9,0-0.9,0c0,0.1,0.1,0.2,0.4,0.3
	c0.6,0.2,1,0.4,1.2,0.6c0.3,0.3,0.4,0.7,0.5,1.2c0,0.2,0.1,0.3,0.2,0.3c0.1,0,0.4,0,0.8-0.1c0.8-0.2,1.4-0.6,1.8-1.3
	c0.4-0.7,0.7-1.9,0.9-3.6c0.2-1.5,0.3-4,0.4-7.4c0-1.3,0.1-2,0.1-2.3c0-0.2,0.2-0.4,0.4-0.5c0.3-0.1,0.4-0.2,0.4-0.3
	c0-0.1-0.1-0.3-0.4-0.6c-0.6-0.6-1.1-1-1.3-1.1c-0.2-0.1-0.5,0-0.8,0.3c-0.3,0.4-0.6,0.6-0.7,0.7c-0.2,0.1-0.5,0.1-1,0.1
	c0,0-0.1,0-0.1,0c-0.4,0-0.6,0-0.7-0.1c-0.1-0.1-0.2-0.3-0.3-0.5c0-0.2,0-0.7,0-1.5c0-0.2,0-0.3,0-0.4c0-1.1,0-1.8,0.1-2
	c0-0.2,0.2-0.4,0.3-0.6c0.2-0.2,0.1-0.3-0.4-0.5c-0.5-0.1-1.1-0.2-1.9-0.2c0,0,0,0-0.1,0c-0.1,0-0.2,0.1-0.2,0.2c0,0.2,0,0.8,0,1.8
	c0,0.3,0,0.5,0,0.6c0,0.1,0,0.3,0,0.5c0,1,0,1.6-0.1,1.8c-0.1,0.4-0.2,0.6-0.5,0.6c-0.2,0-0.6,0-1.4-0.1c-0.2,0-0.3,0-0.4,0
	c-0.1,0-0.2,0-0.2,0c0,0,0,0.1,0.1,0.3c0,0.1,0.1,0.2,0.1,0.4c0,0.1,0.1,0.2,0.1,0.2c0.1,0,0.1,0,0.1,0.1c0.1,0,0.2,0,0.4-0.1
	c0.7-0.3,1.2-0.3,1.4,0c0.2,0.2,0.3,0.9,0.2,2.1c-0.2,4.5-0.8,7.6-1.8,9.2c-0.1,0.1-0.2,0.3-0.4,0.6c0,0.1-0.1,0.2-0.1,0.2
	c-0.2,0.4-0.5,0.9-1,1.5c-0.4,0.6-0.8,1-1.2,1.3C58.4,47.1,58.3,47.2,58.4,47.4z M50.1,47.1c0.1,0.2,0.2,0.1,0.5-0.1
	c0.1-0.1,0.3-0.2,0.5-0.3c0.2-0.1,0.7-0.2,1.5-0.5c2.3-0.7,4.2-1.3,5.8-1.8c1.5-0.5,2.3-0.8,2.3-0.9c0-0.1,0-0.2-0.2-0.2
	c-0.2,0-0.8,0.1-1.8,0.2h0c-1,0.1-1.6,0.2-1.9,0.2c-0.4,0-0.6,0-0.7-0.2C56,43.4,56,43.2,56,42.8c0,0,0-0.1,0-0.1v0
	c0-0.4,0-0.6,0.1-0.7c0.1-0.1,0.3-0.2,0.6-0.2c0.2,0,0.8,0,1.6,0c0.1,0,0.1,0,0.2,0c1.4,0,2.2-0.1,2.3-0.3c0.1-0.2-0.3-0.7-1.3-1.4
	c-0.3-0.2-0.5-0.4-0.5-0.5c0-0.1,0.2-0.2,0.6-0.4l0,0c0.3-0.1,0.5-0.3,0.6-0.3c0-0.1,0.1-0.3,0-0.7c0-0.1,0-0.3,0-0.7
	c0-0.8,0-1.4,0-1.9c0-1.2,0-1.9,0-2.1c0-0.2,0.2-0.4,0.5-0.6c0.2-0.1,0.3-0.2,0.2-0.4c0-0.1-0.1-0.2-0.1-0.3c0-0.1-0.1-0.2-0.2-0.3
	c-0.2-0.1-0.4-0.2-0.7-0.4c-0.4-0.2-0.6-0.4-0.7-0.3c-0.1,0-0.3,0.2-0.5,0.5c-0.2,0.3-0.4,0.5-0.6,0.5c-0.1,0.1-0.4,0.1-0.9,0.1
	c-0.6,0-0.9,0-1.1-0.1C56,32.1,56,31.8,56,31.4c0,0,0,0,0-0.1c0-0.3,0-0.5,0.1-0.6c0.1-0.1,0.3-0.2,0.6-0.2c0.3,0,0.9,0,1.8,0
	c0.1,0,0.1,0,0.2,0c1.2,0,1.9,0,2.2-0.1c0.4-0.1,0.5-0.2,0.4-0.5c-0.1-0.2-0.5-0.6-1.2-1.1c-0.4-0.3-0.7-0.5-0.8-0.5
	c-0.1,0-0.3,0.2-0.6,0.6c-0.3,0.4-0.6,0.7-0.7,0.8c-0.1,0.1-0.4,0.1-0.9,0.1c-0.5,0-0.8,0-0.9-0.1c-0.1-0.1-0.2-0.4-0.2-0.8
	c0-0.6,0-0.9,0.2-1c0.2-0.1,0.6-0.3,1.4-0.4c0.2,0,0.4,0,0.8-0.1c0.4,0,0.6-0.1,0.7-0.1c0.4-0.1,0.7-0.1,1,0c0.4,0.1,0.5,0,0.5-0.1
	c0-0.2-0.4-0.6-1-1.2c0,0-0.1-0.1-0.1-0.1c-0.3-0.3-0.5-0.4-0.6-0.5c-0.1,0-0.2,0-0.4,0.1c0,0-0.1,0-0.1,0c-2.2,0.8-4.7,1.5-7.6,2.1
	c-0.7,0.1-1.1,0.2-1.2,0.3s-0.2,0.1-0.1,0.2c0,0.1,1,0.1,3,0c0.7,0,1.1,0,1.3,0c0.2,0,0.3,0.2,0.4,0.4c0.1,0.3,0.1,0.6,0,0.9
	c0,0.3-0.2,0.4-0.3,0.5c-0.1,0.1-0.8,0.1-1.9,0.1c-1.2,0-2-0.1-2.4-0.2c-0.1,0-0.2,0-0.2,0.1c0,0.1,0.1,0.2,0.2,0.5l0,0
	c0.1,0.3,0.2,0.4,0.3,0.5c0.1,0,0.3,0,0.7,0c1.4-0.2,2.4-0.3,2.9-0.2c0.5,0.1,0.8,0.4,0.8,0.9c0,0.6-0.3,0.9-0.8,1
	c-0.5,0-1.3-0.2-2.4-0.6c-0.5-0.2-0.8-0.3-0.9-0.3c-0.1,0-0.2,0-0.1,0.2c0.1,0.5,0.2,1.6,0.2,3.3c0,1.6,0,2.9-0.1,3.7
	c0,0.6,0,0.9,0.1,1.1c0.1,0.1,0.3,0.2,0.7,0.1c0.7-0.1,1.1-0.3,1.2-0.6c0.1-0.3,0.5-0.5,1.1-0.5s0.9,0.2,1,0.5c0.1,0.3,0.1,0.6,0,1
	c0,0.4-0.1,0.6-0.3,0.7C53.6,41,53.2,41,52.4,41s-1.7,0-2.6-0.1c-0.2,0-0.3,0-0.3,0c0,0,0.1,0.2,0.2,0.6c0,0,0,0,0,0.1
	c0.1,0.2,0.2,0.3,0.2,0.4c0.1,0,0.2,0,0.5,0c0.1,0,0.1,0,0.2,0c1.4-0.3,2.3-0.3,2.7-0.2c0.4,0.1,0.7,0.5,0.7,1.1c0,0,0,0.1,0,0.2
	c0,0.4,0,0.6-0.1,0.7c-0.1,0.1-0.3,0.2-0.6,0.3c-0.2,0-0.8,0.1-1.6,0.2c-0.2,0-0.3,0-0.4,0c-0.1,0-0.3,0-0.6,0
	c-0.8,0.1-1.2,0.1-1.3,0.1s-0.2,0.1-0.2,0.1C49.3,44.8,49.6,45.6,50.1,47.1z M57.6,41c-0.1,0.1-0.4,0.1-0.7,0.1s-0.5-0.1-0.6-0.1
	c-0.2-0.1-0.3-0.5-0.3-1s0.1-0.9,0.3-1c0.2-0.1,0.6-0.2,1.1-0.1c0.6,0.1,0.8,0.2,0.8,0.3c0,0.2,0.1,0.2,0.3,0.2c0.1,0,0.1,0,0.2,0.1
	c0.1,0.1,0.1,0.1,0,0.1c-0.1,0.2-0.4,0.5-0.6,0.8C57.8,40.8,57.7,40.9,57.6,41z M53.7,38.1c-0.1,0.1-0.4,0.1-0.7,0.1
	c-0.4,0-0.6,0-0.7-0.1c-0.2-0.1-0.3-0.5-0.4-1c0-0.6,0.1-0.9,0.3-1.1c0.1-0.1,0.4-0.1,0.8-0.1c0.4,0,0.7,0.1,0.8,0.1
	c0.2,0.1,0.3,0.5,0.3,1.1C54,37.6,53.9,38,53.7,38.1z M57.1,38.2c-0.4,0-0.7,0-0.8-0.1c-0.2-0.1-0.4-0.5-0.4-1
	c0-0.6,0.1-0.9,0.3-1.1c0.1-0.1,0.4-0.1,0.8-0.1c0.4,0,0.7,0,0.8,0.1c0.2,0.1,0.3,0.5,0.3,1.1c0,0.6-0.1,0.9-0.4,1
	C57.8,38.1,57.5,38.2,57.1,38.2z M53.7,35.2c-0.1,0.1-0.4,0.1-0.7,0.1c-0.4,0-0.6,0-0.7-0.1c-0.2-0.1-0.3-0.3-0.4-0.8
	c0-0.5,0-0.8,0.1-1.1c0.1-0.2,0.4-0.4,0.9-0.4c0.5,0,0.9,0.1,1,0.4c0.1,0.2,0.2,0.6,0.1,1.1C54,34.8,53.8,35.1,53.7,35.2z
	 M57.1,35.2c-0.4,0-0.7,0-0.8-0.1c-0.3-0.1-0.4-0.5-0.4-1.1c0-0.6,0.1-1,0.4-1.1c0.1-0.1,0.4-0.1,0.8-0.1c0.4,0,0.7,0,0.8,0.1
	c0.3,0.1,0.4,0.5,0.4,1.1c0,0.6-0.1,0.9-0.4,1.1C57.8,35.2,57.5,35.2,57.1,35.2z M97.3,47.5c0.3,0,0.5-0.1,0.7-0.3
	c0.2-0.2,0.3-0.5,0.3-0.8c0-0.7-0.4-1.3-1.2-1.9c-0.8-0.6-1.7-1-2.9-1.3C93.5,43,93.1,43,93,43c-0.1,0,0,0.2,0.4,0.5
	c0.6,0.4,1.2,1,1.8,1.8c0.7,0.7,1.1,1.3,1.3,1.8c0.1,0.2,0.3,0.4,0.5,0.4c0,0,0.1,0,0.1,0L97.3,47.5z M84,47.4c0,0,0.3,0,0.8-0.1
	c2.5-0.5,4.7-1.4,6.5-2.6c0.4-0.3,0.6-0.4,0.7-0.4c0.3,0,0.4-0.1,0.4-0.2c0-0.1-0.3-0.3-0.7-0.6c-1.2-0.8-1.7-1.2-1.6-1.5
	c0.1-0.2,0.9-0.4,2.4-0.4c0.9,0,1.4,0,1.7,0c0.3,0,0.6,0.1,0.6,0.2c0.1,0.1,0.1,0.2,0.1,0.5c0,0.2,0.2,0.3,0.5,0.3
	c0.3,0,0.7-0.1,1.2-0.4c0,0,0.1,0,0.1-0.1c0.2-0.1,0.4-0.2,0.4-0.3c0-0.1,0-0.4,0-1c0-0.1,0-0.2,0-0.3c0-0.9-0.1-2.6-0.1-5
	c0-2.4,0-3.7,0-3.8c0-0.2,0.2-0.4,0.5-0.6c0.2-0.1,0.2-0.3,0-0.5c-0.1-0.2-0.4-0.5-0.9-0.8c-0.4-0.3-0.7-0.5-0.8-0.5
	c-0.1,0-0.3,0.1-0.5,0.3c-0.3,0.4-0.6,0.6-0.7,0.7c-0.2,0.1-0.6,0.1-1.2,0.1c-0.8,0-1.2-0.1-1.3-0.2c-0.1-0.1,0-0.4,0.3-0.9
	c0.1-0.1,0.2-0.3,0.3-0.5c0.1-0.2,0.2-0.4,0.3-0.5c0.3-0.5,0.5-0.8,0.7-0.9c0.1,0,0.8-0.1,2.3-0.1c1.2,0,1.9,0,2.1,0
	c0.2,0,0.3-0.1,0.4-0.2c0.1-0.1-0.1-0.4-0.5-0.8c-0.4-0.4-0.8-0.8-1.4-1.2c-0.2-0.2-0.4-0.2-0.5-0.1c-0.1,0-0.3,0.3-0.7,0.8
	c0,0.1-0.1,0.2-0.2,0.3c-0.2,0.2-0.3,0.4-0.4,0.4C94.7,26.9,94.4,27,94,27c-0.3,0-1,0-2.1,0c-0.5,0-0.8,0-1.1,0c-2.6,0-3.9,0-3.9,0
	c-0.1,0.1-0.6-0.1-1.3-0.8c0,0,0,0-0.1-0.1c-0.3-0.2-0.4-0.3-0.5-0.3s-0.2,0.1-0.4,0.4c0,0,0,0.1,0,0.1c-0.4,0.5-0.7,0.9-0.9,1
	c-0.2,0.1-1,0.1-2.6,0.1c-1.6,0-2.9,0-3.8-0.1c-0.2,0-0.3,0-0.3,0c0,0,0,0.2,0.2,0.5c0,0,0,0.1,0,0.1c0.1,0.2,0.2,0.4,0.3,0.4
	c0.1,0,0.2,0,0.5,0c0.1,0,0.1,0,0.2,0c0.7-0.1,1.3-0.2,1.8-0.2c0.5,0,1.7,0,3.4,0c1.8,0,2.9,0,3.2,0S87,28,87.1,28
	c0.1-0.1,0.3-0.2,0.5-0.2c0.2,0,0.7,0,1.6,0c0,0,0.1,0,0.2,0c0.7,0,1.1,0,1.3,0c0.3,0.1,0.4,0.2,0.5,0.4c0,0.2,0,0.5,0,1.1
	c0,0.1,0,0.1,0,0.2c-0.1,0.5-0.1,0.8-0.2,1c-0.1,0.2-0.4,0.2-0.7,0.1c-0.3,0-0.8-0.2-1.5-0.6c-0.5-0.2-0.8-0.3-1-0.4
	c-0.1,0-0.1,0-0.1,0.2c0.1,0.9,0.2,2.7,0.2,5.2c0,2.5,0,4.7-0.1,6.4c-0.1,0.8-0.1,1.4,0,1.5c0.1,0.2,0.3,0.2,0.7,0.2
	c0.5,0,0.7,0.1,0.5,0.5c-0.2,0.4-0.7,0.8-1.5,1.4c-0.8,0.6-1.7,1.2-2.8,1.7c-0.4,0.2-0.7,0.3-0.7,0.4C83.9,47.2,83.9,47.3,84,47.4z
	 M78.2,46.6c0.1,0.1,0.2,0.1,0.4-0.2c0.3-0.3,0.7-0.5,1.4-0.8c2.8-1.1,5.1-2.1,6.7-3c0.3-0.1,0.4-0.2,0.4-0.3c0-0.1-0.1-0.1-0.2-0.1
	c-0.1,0-0.6,0.1-1.3,0.2c-0.9,0.2-1.5,0.3-1.8,0.3c-0.3,0-0.5-0.1-0.4-0.2c0-0.1,0.2-0.5,0.5-0.9c0,0,0.1-0.1,0.1-0.2
	c0.3-0.5,0.5-0.8,0.6-1.1c0.3-0.4,0.4-0.7,0.5-0.8c0.1-0.1,0.2-0.2,0.4-0.3c0.2-0.1,0.3-0.2,0.1-0.3c-0.1-0.1-0.4-0.2-0.9-0.4
	s-0.9-0.3-1-0.3c0,0-0.1,0-0.3,0c-0.1,0-0.2,0-0.2,0c-0.2,0-0.3,0-0.3,0c0,0,0,0.1,0,0.3c0,0.4-0.1,1.2-0.3,2.3
	c-0.2,1.1-0.3,1.8-0.4,2c-0.1,0.3-0.5,0.5-1.1,0.6c-0.1,0-0.2,0-0.6,0.1c-0.3,0.1-0.6,0.1-0.7,0.1c-0.1,0-0.4,0.1-0.7,0.1
	c-0.6,0.1-1,0.2-1.2,0.2c-0.7,0.1-1,0.2-1.1,0.2l0.5,1.2C77.9,46.1,78.1,46.5,78.2,46.6z M79.9,42.8c0.5,0.2,0.9,0.1,1.2-0.4
	c0.3-0.5,0.4-1.1,0.1-1.7c-0.2-0.4-0.5-0.9-1-1.4c-0.4-0.4-0.8-0.7-1.2-0.8s-0.4,0-0.3,0.5c0.4,1.1,0.6,2.1,0.6,3.1
	c0,0.2,0,0.4,0.1,0.5C79.6,42.6,79.7,42.7,79.9,42.8z M94.6,41.1c-0.1,0.1-0.8,0.1-2.2,0.1c-1.4,0-2.1-0.1-2.2-0.1
	c-0.2-0.1-0.3-0.6-0.3-1.3c0-0.8,0.1-1.2,0.3-1.3c0.1-0.1,0.8-0.1,2.2-0.1s2.1,0,2.2,0.1c0.2,0.1,0.3,0.6,0.3,1.3
	S94.9,40.9,94.6,41.1z M78.1,37.8c0.2,0.2,0.5,0.2,1,0.1c0.5-0.1,0.8-0.3,0.9-0.6c0.1-0.2,0.2-0.3,0.4-0.4c0.2,0,0.7-0.1,1.6-0.1
	c0.9,0,1.5,0,1.7,0.1c0.2,0.1,0.3,0.2,0.3,0.6c0,0.2,0.1,0.3,0.4,0.3c0.3,0,0.7-0.1,1.1-0.4l0,0c0.3-0.1,0.4-0.2,0.4-0.3
	c0-0.1,0-0.4,0-0.9c-0.1-1.7-0.1-2.8-0.1-3.3c0-0.5,0.2-0.8,0.5-1c0.2-0.1,0.3-0.2,0.3-0.3s-0.2-0.3-0.4-0.6c-0.6-0.6-1.1-1-1.3-1.1
	c-0.2-0.1-0.5,0-0.7,0.4c0,0,0,0-0.1,0.1c-0.2,0.3-0.4,0.5-0.6,0.6c-0.2,0-0.6,0.1-1.4,0.1c-0.1,0-0.2,0-0.3,0c0,0-0.1,0-0.2,0
	c-0.8,0-1.2,0-1.5,0c-0.2,0-0.6-0.2-1.2-0.5l0,0c-0.1,0-0.1-0.1-0.2-0.1c-0.4-0.2-0.6-0.3-0.6-0.3c-0.1,0-0.1,0.1-0.1,0.3
	c0,0,0,0.1,0,0.1c0,0.1,0,0.3,0,0.6c0,0.2,0,0.3,0,0.4c0.1,1.9,0.1,3.8,0,5.7c0,0.2,0,0.3,0,0.3C78,37.6,78,37.7,78.1,37.8z
	 M92,37.6c-0.8,0-1.3,0-1.5,0c-0.3,0-0.5-0.1-0.5-0.3c0-0.1-0.1-0.4-0.1-0.8c0-0.1,0-0.2,0-0.3s0-0.2,0-0.3c0-0.4,0-0.7,0.1-0.8
	c0.1-0.2,0.2-0.3,0.5-0.3c0.2,0,0.7,0,1.5,0c0.2,0,0.3,0,0.4,0s0.3,0,0.4,0c0.8,0,1.3,0,1.5,0c0.3,0,0.5,0.1,0.5,0.3
	c0,0.1,0.1,0.4,0.1,0.8c0,0.1,0,0.2,0,0.3c0,0.5,0,0.9,0,1c0,0.1-0.1,0.2-0.3,0.3c-0.1,0.1-0.8,0.1-2.2,0.1
	C92.3,37.6,92.2,37.6,92,37.6z M83.6,36.1c-0.1,0.1-0.7,0.1-1.7,0.1c-1,0-1.6-0.1-1.7-0.1C80.1,36,80,35.9,80,35.7
	c0-0.2,0-0.8,0-1.7c0-0.1,0-0.3,0-0.6c0-0.8,0.1-1.3,0.2-1.4c0.1-0.1,0.6-0.2,1.3-0.2c0.2,0,0.4,0,0.5,0s0.3,0,0.5,0
	c0.8,0,1.2,0,1.3,0.2c0.1,0.1,0.2,0.6,0.2,1.4c0,0.2,0,0.4,0,0.6c0,0.9,0,1.5,0,1.7C83.8,35.9,83.7,36,83.6,36.1z M94.6,34
	c-0.1,0.1-0.8,0.1-2.2,0.1c-1.4,0-2.1-0.1-2.2-0.1c-0.2-0.1-0.3-0.6-0.3-1.3c0-0.8,0.1-1.2,0.3-1.3c0.1-0.1,0.8-0.1,2.2-0.1
	s2.1,0,2.2,0.1c0.2,0.1,0.3,0.6,0.3,1.3S94.9,33.9,94.6,34z M112.2,47.2c0,0.3,0.8,0.2,2.3-0.5c1.5-0.6,2.8-1.3,3.7-2
	c0.5-0.4,0.8-0.6,1.1-0.6c0.3,0,0.4-0.1,0.3-0.2c0-0.1-0.3-0.3-0.7-0.5c-0.7-0.4-1-0.7-1.1-0.8c-0.1-0.2,0.2-0.3,0.9-0.3
	c0.5,0,1.7,0,3.5,0c2.1,0,3.3,0,3.7,0c0.4,0,0.6-0.1,0.7-0.2c0.1-0.2-0.2-0.7-1-1.5c-0.3-0.2-0.5-0.3-0.6-0.3
	c-0.1,0-0.2,0.2-0.4,0.5c-0.3,0.4-0.5,0.6-0.6,0.7c-0.2,0.1-0.3,0-0.4-0.1c0-0.1-0.1-0.3-0.1-0.6c0-0.3,0-1.4,0-3.2
	c0-0.3,0-0.6,0-1.1c0-1.1,0-1.9,0-2.2c0-0.4,0.1-0.7,0.3-0.8c0.1-0.1,0.3-0.1,0.7-0.1c0.2,0,0.3,0,0.4,0c0.6,0,1,0,1.1,0
	c0.1,0,0.2-0.2,0.2-0.3c0-0.1-0.2-0.4-0.5-0.7c-0.3-0.4-0.6-0.6-0.8-0.7c-0.1,0-0.2-0.1-0.3,0c-0.1,0-0.2,0.1-0.3,0.3
	c-0.2,0.3-0.4,0.4-0.5,0.5c-0.1,0-0.2-0.1-0.2-0.4c0-0.3,0.1-0.5,0.2-0.6c0.2-0.1,0.2-0.3-0.1-0.4c-0.2-0.1-0.7-0.3-1.5-0.5h0
	c-0.4-0.1-0.7-0.2-0.8-0.2c-0.1,0-0.1,0.1,0,0.4v0c0.1,1.2,0,1.8-0.2,2c-0.1,0.1-0.6,0.1-1.3,0.1c-0.8,0-1.2,0-1.3-0.1
	c-0.2-0.1-0.3-0.3-0.3-0.6c0-0.3,0.1-0.5,0.3-0.6c0.2-0.1,0.2-0.3,0-0.4c-0.2-0.1-0.7-0.3-1.5-0.6c-0.6-0.2-0.7-0.4-0.5-0.7l0,0
	c0.1-0.1,0.3-0.2,0.6-0.2c0.3,0,1.4,0,3.3,0c0.4,0,0.7,0,0.9,0c1.8,0,3,0,3.5,0c0.7,0,1.1,0,1.3-0.1c0.1,0,0.2-0.1,0.2-0.3
	c0-0.2-0.3-0.5-1-1.2c-0.7-0.6-1.1-0.9-1.2-0.9c-0.1,0-0.4,0.3-0.8,0.9c0,0-0.1,0.1-0.1,0.2c-0.2,0.3-0.5,0.5-0.7,0.6
	c-0.2,0-0.8,0.1-1.8,0.1c-0.2,0-0.4,0-0.5,0c-0.1,0-0.2,0-0.4,0c-0.8,0-1.3,0-1.6,0c-0.3,0-0.5,0-0.6-0.1c0,0-0.1-0.1-0.1-0.3
	c0-0.2,0.1-0.5,0.4-0.9c0.3-0.4,0.5-0.6,0.6-0.7c0.3-0.1,0.3-0.2,0-0.4c-0.3-0.2-1-0.5-2-0.9l0,0c-0.4-0.1-0.6-0.2-0.6-0.2
	s-0.1,0.1-0.1,0.4v0c-0.1,1.1-0.4,2.1-0.8,3.2c-0.2,0.6-0.4,0.9-0.6,0.9c-0.2,0-0.5-0.2-1.1-0.7c0,0-0.1-0.1-0.1-0.1
	c-0.3-0.3-0.5-0.4-0.6-0.4c-0.1,0-0.2,0.1-0.4,0.4c0,0-0.1,0.1-0.1,0.1c-0.3,0.4-0.5,0.7-0.7,0.8c-0.1,0.1-0.3,0.2-0.4,0.1
	c-0.3-0.1-0.4-0.6-0.4-1.6c0-1,0.1-1.7,0.4-1.8c0.2-0.1,0.2-0.3-0.1-0.4c-0.3-0.1-0.8-0.3-1.8-0.6c0,0-0.1,0-0.2,0
	c-0.4-0.1-0.6-0.1-0.6-0.1c0,0-0.1,0.2,0,0.6c0,0.1,0,0.1,0,0.2c0.1,1.3,0.2,2.3,0.1,2.9c0,0.5-0.1,0.9-0.3,1c-0.1,0-0.5,0-1.2,0
	c-0.7,0-1.2,0-1.5-0.1c-0.3,0-0.4,0-0.5,0c0,0,0,0.2,0.2,0.5c0.2,0.3,0.3,0.5,0.3,0.5c0,0,0.1,0,0.2-0.1c0.1,0,0.3-0.1,0.3-0.1
	c0.8-0.2,1.2-0.2,1.4,0c0.2,0.2,0.3,0.7,0.3,1.6c0,5.8-0.9,10.5-2.6,14.1c0,0,0,0.1-0.1,0.2c-0.1,0.3-0.2,0.5-0.3,0.6
	c0,0.1,0,0.1,0,0.2c0.1,0.1,0.2,0.1,0.3,0s0.4-0.4,0.7-0.9c1.9-2.5,3.1-5.9,3.6-10.2c0.1-0.7,0.2-1.1,0.3-1.3
	c0.1-0.2,0.4-0.2,0.8-0.2c0.4,0,0.6,0.1,0.7,0.2c0.1,0.2,0.2,0.6,0.2,1.2c0,0.5-0.1,1.5-0.2,3.2c-0.1,1.8-0.2,3-0.4,3.7
	c-0.2,0.8-0.4,1.3-0.8,1.6c-0.3,0.2-0.8,0.3-1.6,0.2c-0.4,0-0.7,0-0.8,0c-0.1,0-0.1,0.1-0.1,0.1c0,0.1,0,0.1,0,0.1
	c0,0,0.1,0.1,0.3,0.1c0.1,0,0.2,0.1,0.2,0.1c0.4,0.1,0.6,0.3,0.8,0.6c0.2,0.3,0.3,0.6,0.3,1c0,0.2,0,0.3,0.1,0.3c0.1,0,0.2,0,0.5,0
	c0.9-0.1,1.6-0.5,2-1s0.8-1.5,1-3c0.1-0.7,0.2-1,0.3-1.2c0.1-0.1,0.3,0,0.5,0.3c0.1,0.1,0.1,0.1,0.2,0.1c0.1,0,0.3,0,0.7-0.1h0.1
	c1.2-0.2,1.9-0.2,2.1,0c0.2,0.3-0.1,0.9-1,1.9c-0.9,1-1.9,1.9-3,2.6C112.4,47,112.2,47.1,112.2,47.2z M124.8,47.3
	c0.6,0.2,1,0.1,1.2-0.3c0.2-0.4,0.1-0.8-0.1-1.4c-0.3-0.6-0.7-1.1-1.4-1.5c-0.6-0.4-1.4-0.8-2.4-1.1s-1.5-0.3-1.5-0.1
	c0,0,0.2,0.2,0.6,0.5c1.4,1.1,2.4,2.2,3.1,3.3c0.2,0.2,0.3,0.4,0.3,0.5C124.5,47.2,124.6,47.3,124.8,47.3z M115.8,41.4
	c-0.2,0.1-0.8,0.1-1.9,0c-0.4,0-0.6-0.1-0.6-0.3c0-0.1,0-0.6,0-1.3c0-0.5,0.1-1.2,0.1-2.1c0-0.1,0-0.2,0-0.3c0-1.1,0.1-1.8,0.1-1.9
	c0-0.2,0.2-0.4,0.4-0.5c0.3-0.2,0.4-0.3,0.3-0.6c-0.1-0.2-0.4-0.6-1.1-1c-0.4-0.3-0.6-0.5-0.7-0.5c-0.1,0-0.3,0.2-0.6,0.5
	c-0.3,0.3-0.5,0.5-0.6,0.6c-0.2,0.1-0.4,0.1-0.7,0.1c-0.5,0-0.7-0.1-0.8-0.2c-0.1-0.1-0.1-0.6,0-1.5c0-0.1,0-0.2,0-0.3
	c0-0.7,0.1-1.1,0.2-1.2c0.1-0.1,0.6-0.2,1.4-0.2c0.2,0,0.3,0,0.4,0c1,0,1.6,0.1,1.8,0.2c0.2,0.1,0.1,0.4-0.2,0.8
	c-0.2,0.3-0.3,0.5-0.2,0.6c0.1,0.1,0.3,0,0.6-0.2c0.3-0.2,0.7-0.6,1.4-1.2c0.3-0.3,0.5-0.4,0.7-0.3c0.1,0.1,0.2,0.4,0.2,0.9
	c0,0.5,0,0.9-0.2,1c-0.2,0.1-0.6,0.1-1.3,0c-0.3,0-0.4,0-0.5,0c0,0,0,0.2,0.2,0.5c0.1,0.3,0.2,0.4,0.3,0.5c0,0,0.1,0,0.3,0
	c0.1-0.1,0.3-0.1,0.5-0.1c0.2,0,0.4,0,0.5,0c0.1,0.1,0.2,0.3,0.2,0.6c0,0.3,0,1.5,0,3.4c0,1.9,0,3.1,0,3.4
	C116,41.1,115.9,41.3,115.8,41.4z M121,41.5c-0.1,0.1-0.6,0.1-1.3,0.1c-0.8,0-1.2-0.1-1.3-0.1c-0.2-0.1-0.3-0.4-0.4-0.8
	c0-0.5,0-0.9,0.1-1.1c0.1-0.3,0.6-0.4,1.5-0.4c0.9,0,1.4,0.1,1.6,0.4c0.1,0.2,0.2,0.6,0.1,1.1C121.3,41.1,121.2,41.4,121,41.5z
	 M119.7,38.5c-0.8,0-1.3,0-1.4-0.1c-0.2-0.1-0.3-0.5-0.3-1.1c0-0.6,0.1-0.9,0.4-1.1c0.1-0.1,0.6-0.1,1.3-0.1c0.8,0,1.2,0,1.3,0.1
	c0.2,0.1,0.4,0.5,0.4,1c0,0.5-0.1,0.9-0.3,1.1C121,38.4,120.5,38.5,119.7,38.5z M119.7,35.5c-0.8,0-1.3,0-1.4-0.1
	c-0.2-0.1-0.3-0.5-0.3-1c0-0.6,0.1-0.9,0.4-1c0.1-0.1,0.6-0.1,1.3-0.1c0.8,0,1.2,0,1.3,0.1c0.2,0.1,0.4,0.5,0.4,1
	c0,0.5-0.1,0.9-0.3,1C121,35.4,120.5,35.5,119.7,35.5z M133.9,47.4c0.2,0.1,0.6,0.1,1,0c0.4-0.1,0.8-0.3,1-0.5
	c0.1-0.1,0.2-0.2,0.2-0.4c0-0.1,0-0.4,0-1c-0.1-1.7-0.1-4.1-0.1-7.1c0-3,0-4.5,0.1-4.7c0.1-0.2,0.2-0.2,0.4-0.3c0.2,0,0.7,0,1.5,0
	c0.9,0,1.5,0,1.7,0.1c0.2,0.1,0.3,0.3,0.3,0.6c0,0.3,0.1,0.4,0.4,0.4c0.3,0,0.7-0.1,1.2-0.4c0,0,0.1,0,0.1-0.1
	c0.2-0.1,0.3-0.2,0.3-0.3c0-0.1,0-0.6,0-1.2c0-0.2,0-0.4,0-0.5c-0.1-1.7-0.1-2.8,0-3.3c0-0.5,0.2-0.8,0.4-0.9
	c0.3-0.2,0.4-0.4,0.3-0.6c-0.1-0.2-0.5-0.6-1.1-1.1c-0.4-0.3-0.6-0.5-0.7-0.5c-0.1,0-0.3,0.2-0.6,0.5c0,0,0,0.1-0.1,0.1
	c-0.2,0.3-0.4,0.5-0.6,0.6c-0.2,0-0.7,0.1-1.5,0.1c-0.1,0-0.1,0-0.2,0c-0.1,0-0.2,0-0.4,0c-0.7,0-1.2,0-1.4,0
	c-0.2,0-0.6-0.2-1.1-0.4c-0.1,0-0.2-0.1-0.2-0.1c-0.7-0.3-1.1-0.5-1.1-0.5s0,0.3,0,0.9c0,0.2,0,0.4,0,0.6c0.1,0.5,0.1,3.1,0.1,7.7
	c0,5.3,0,8.9-0.1,10.9c0,0.7-0.1,1,0,1.2C133.7,47.2,133.8,47.3,133.9,47.4z M150.1,47.4c0.1,0,0.3,0,0.7-0.1
	c0.4-0.1,0.7-0.2,0.9-0.3c0.5-0.2,0.8-0.6,1-1.2c0-0.1,0.1-3.1,0.1-8.9c0-0.3,0-0.7,0-1.3c0-4.9,0-7.4,0.1-7.5
	c0.1-0.3,0.3-0.4,0.4-0.4c0.1,0,0.2,0,0.3-0.1c0.1-0.1,0.2-0.2,0.2-0.2c0-0.1-0.2-0.4-0.7-0.8c-0.5-0.4-0.9-0.7-1.2-0.9
	c-0.1-0.1-0.3-0.1-0.3,0c-0.1,0-0.2,0.2-0.4,0.5c0,0,0,0.1-0.1,0.1c-0.2,0.3-0.4,0.5-0.6,0.5c-0.2,0-0.6,0.1-1.4,0.1
	c-0.1,0-0.3,0-0.3,0c-0.1,0-0.2,0-0.4,0c-0.7,0-1.2,0-1.4,0c-0.2,0-0.6-0.2-1.1-0.4c-0.1,0-0.2-0.1-0.2-0.1s-0.1,0-0.2-0.1
	c-0.4-0.2-0.7-0.3-0.8-0.3c-0.1,0-0.1,0.1,0,0.4c0,0.1,0,0.1,0,0.2c0.1,0.8,0.1,1.8,0.1,3.1c0,1.3,0,2.4,0,3.1c0,0.6,0,0.9,0,1.1
	c0,0.1,0.1,0.2,0.1,0.3c0.1,0.1,0.4,0.2,0.9,0c0.5-0.1,0.8-0.3,1.1-0.5c0.2-0.2,0.3-0.3,0.5-0.3c0.2,0,0.7,0,1.6,0
	c0.2,0,0.4,0,0.7,0c0.5,0,0.9,0,1,0.1c0.2,0.1,0.3,0.5,0.4,1c0,0.4,0,1.3,0,2.7c0,0.8,0,1.4,0,1.8c0,0.4,0,0.9,0,1.6
	c0,1.6,0,2.6,0,3c0,0.6-0.1,0.9-0.3,1.1c-0.1,0.1-0.3,0.2-0.7,0.1c-0.2,0-0.3,0-0.4,0c-0.7,0-1.1,0-1.1,0c-0.1,0.1,0,0.2,0.3,0.3
	c0.5,0.1,0.9,0.3,1.2,0.6c0.3,0.3,0.4,0.7,0.5,1.2C150,47.3,150,47.4,150.1,47.4z M137.5,46.5c0.1,0.1,0.5-0.1,1-0.5
	c0.6-0.4,1-0.7,1.4-1.1c0.9-0.9,1.5-2,1.8-3.4c0.1-0.4,0.2-0.6,0.3-0.7c0.1-0.1,0.5-0.1,1-0.1c0.5,0,0.9,0.1,1,0.2
	c0.2,0.1,0.3,0.4,0.3,1c0,0.4,0,1.3-0.1,2.6c0,0.8-0.1,1.2,0,1.5c0,0.3,0.1,0.4,0.3,0.5c0.1,0,0.4,0,0.7,0c0.5-0.1,0.8-0.2,0.9-0.4
	c0.1-0.2,0.2-0.7,0.1-1.4c0-0.1,0-0.3,0-0.5c0-1.2-0.1-2,0-2.3c0-0.5,0.2-0.8,0.4-0.9c0.1-0.1,0.5-0.1,1.1-0.1c0.1,0,0.2,0,0.2,0
	c1,0,1.6-0.2,1.6-0.5c0-0.3-0.4-0.8-1.4-1.4l0,0c-0.2-0.2-0.4-0.2-0.5-0.2c-0.1,0-0.3,0.3-0.6,0.8c-0.3,0.4-0.5,0.5-0.6,0.4
	c-0.1-0.2-0.1-0.7-0.1-1.5c0,0,0-0.1,0-0.2c0-0.7,0-1.1,0.1-1.2c0.1-0.1,0.5-0.2,1.2-0.2c0.1,0,0.2,0,0.2,0c0.8,0,1.3-0.1,1.3-0.2
	c0.1-0.1-0.1-0.5-0.7-1c-0.5-0.5-0.9-0.8-1.1-0.8c-0.2-0.1-0.4,0-0.6,0.3c-0.1,0.1-0.1,0.2-0.2,0.3c-0.3,0.4-0.5,0.6-0.8,0.7
	c-0.2,0-1,0.1-2.2,0.1c-0.4,0-0.7,0-1,0c-2.4,0-4,0-4.9-0.1c-0.2,0-0.3,0-0.4,0c0,0,0.1,0.2,0.2,0.6c0,0,0,0.1,0.1,0.1
	c0.1,0.2,0.2,0.3,0.2,0.3c0.1,0,0.2,0,0.4-0.1c0.1,0,0.1,0,0.1,0c0.8-0.2,1.2-0.2,1.5,0.2c0.1,0.1,0.1,0.6,0.1,1.4s0,1.3-0.1,1.4
	c-0.1,0.2-0.4,0.3-0.9,0.3c-0.5,0-1.1,0-1.8-0.1c-0.2,0-0.4,0-0.4,0c0,0,0.1,0.2,0.2,0.5c0,0,0,0,0,0.1c0.1,0.2,0.2,0.4,0.3,0.4
	c0.1,0,0.2,0,0.4,0c0,0,0.1,0,0.1,0c0.4-0.1,0.7-0.1,1.1-0.1c0.4,0,0.6,0,0.7,0.1c0.4,0.3,0.3,1-0.2,2.2c-0.5,1.2-1.1,2.1-1.8,2.9
	C137.5,46.2,137.4,46.4,137.5,46.5z M144.2,40c-0.2,0.1-0.6,0.2-1.2,0.1c-0.6-0.1-0.9-0.2-0.9-0.4c0-0.1-0.1-0.6-0.1-1.4
	c0-0.8,0.1-1.3,0.1-1.4c0.1-0.3,0.5-0.4,1.1-0.4c0.6,0,1,0.1,1.1,0.4c0.1,0.3,0.2,0.8,0.1,1.7C144.4,39.4,144.3,39.9,144.2,40z
	 M139.7,32.7c-0.1,0.1-0.7,0.1-1.7,0.1c-1,0-1.6-0.1-1.7-0.1c-0.2-0.1-0.3-0.5-0.3-1.1c0-0.6,0.2-0.9,0.4-1c0.1-0.1,0.7-0.1,1.7-0.1
	c1,0,1.5,0,1.6,0.1c0.2,0.1,0.3,0.5,0.4,1.1C140,32.2,139.9,32.6,139.7,32.7z M148.6,32.8c-1.1,0-1.7,0-1.8-0.1
	c-0.2-0.1-0.3-0.5-0.3-1.1c0-0.6,0.1-0.9,0.4-1.1c0.1-0.1,0.7-0.1,1.7-0.1c1,0,1.6,0,1.7,0.1c0.2,0.1,0.3,0.5,0.4,1
	c0,0.6-0.1,0.9-0.3,1.1C150.3,32.8,149.7,32.8,148.6,32.8z M150.3,29.8c-0.1,0.1-0.7,0.1-1.7,0.1c-1,0-1.6-0.1-1.7-0.1
	c-0.1-0.1-0.2-0.2-0.3-0.3c0-0.1,0-0.4,0-0.8v0c0-0.4,0-0.7,0.1-0.8c0.1-0.1,0.2-0.2,0.5-0.3c0.2,0,0.6,0,1.3,0c0,0,0.1,0,0.1,0
	c0,0,0.1,0,0.1,0c0.7,0,1.2,0,1.4,0c0.3,0,0.4,0.1,0.5,0.3c0,0.1,0.1,0.4,0.1,0.8v0c0,0.4,0,0.6-0.1,0.8
	C150.5,29.6,150.4,29.7,150.3,29.8z M137.8,29.9c-0.7,0-1.1,0-1.3,0c-0.3,0-0.4-0.1-0.5-0.3c0-0.1-0.1-0.3-0.1-0.7c0,0,0-0.1,0-0.1
	v0c0-0.4,0-0.7,0.1-0.8c0.1-0.1,0.2-0.2,0.5-0.3c0.2,0,0.7,0,1.4,0c0.7,0,1.2,0,1.4,0c0.3,0,0.4,0.1,0.5,0.3c0,0.1,0.1,0.4,0.1,0.8
	v0c0,0.4,0,0.6-0.1,0.7c0,0.1-0.1,0.2-0.3,0.3c-0.1,0.1-0.6,0.1-1.7,0.1C137.9,29.9,137.9,29.9,137.8,29.9z M171.1,47.3
	c0.2,0.1,0.5,0.1,1,0c0.5-0.1,0.8-0.2,1-0.4c0.1-0.1,0.1-0.3,0.1-0.6c0,0,0,0,0-0.1c0-0.4,0-0.6,0-0.7c0.1-0.1,0.3-0.2,0.6-0.2
	c0.3,0,0.8,0,1.8,0c0.1,0,0.1,0,0.2,0c0.1,0,0.2,0,0.4,0c0.9,0,1.4,0,1.7,0c0.3,0,0.5,0.1,0.6,0.2c0,0.1,0.1,0.3,0,0.6
	c0,0,0,0.1,0,0.1c0,0.3,0,0.5,0,0.6c0,0.1,0.1,0.2,0.2,0.2c0.1,0.1,0.4,0.1,0.7,0c0.4,0,0.7-0.1,0.9-0.3c0,0,0.1,0,0.1,0
	c0.2-0.1,0.3-0.2,0.4-0.3c0-0.1,0-0.5,0-1.2c0-0.1,0-0.2,0-0.2c0-0.8-0.1-2.1-0.1-3.9c0-1.3,0-2.1,0-2.3c0-0.2,0.2-0.4,0.4-0.5
	c0.6-0.2,0.2-0.8-1-1.6l0,0c-0.3-0.2-0.5-0.3-0.6-0.3c-0.1,0-0.3,0.2-0.6,0.6c0,0-0.1,0.1-0.1,0.1c0,0,0,0-0.1,0.1
	c-0.2,0.2-0.4,0.4-0.6,0.4c-0.2,0-0.8,0-1.8,0c-0.3,0-0.5,0-0.6,0c-1.2,0-2,0-2.3-0.1c-0.3,0-0.7-0.2-1.3-0.4
	c-0.1,0-0.2-0.1-0.4-0.1c-0.5-0.2-0.7-0.3-0.8-0.2c-0.1,0-0.1,0.2,0,0.5c0,0.1,0,0.2,0,0.2c0.1,1,0.2,2.4,0.2,4.4c0,2,0,3.4-0.1,4.3
	c0,0.4,0,0.7,0,0.8C171,47.2,171,47.3,171.1,47.3z M160.4,47c0,0.1,0.2,0.1,0.3,0c0.2,0,0.5-0.2,1-0.5c1.4-0.8,2.7-1.9,3.8-3.2
	c0.3-0.4,0.5-0.6,0.6-0.6c0.1-0.1,0.2,0,0.4,0.1c0.2,0.2,0.4,0.5,0.7,1c0.3,0.5,0.5,0.9,0.6,1.3c0.1,0.2,0.3,0.4,0.6,0.5
	c0.3,0.1,0.6,0,0.8-0.1c0.5-0.4,0.6-0.9,0.4-1.7c-0.2-0.8-0.7-1.6-1.5-2.4c-0.4-0.4-0.6-0.6-0.6-0.8c0-0.2,0.1-0.5,0.3-1
	c0,0,0-0.1,0-0.1c0.4-1.2,0.8-2.5,1.1-3.9c0.1-0.8,0.2-1.2,0.3-1.4c0.1-0.3,0.1-0.6,0.1-0.9s0-0.6,0.1-0.7c0.1-0.1,0.2-0.3,0.5-0.4
	c0.2-0.1,0.3-0.2,0.3-0.3c0-0.1-0.2-0.3-0.6-0.7c-0.6-0.6-1-0.9-1.2-1c-0.2-0.1-0.5,0.1-0.8,0.4c-0.4,0.4-0.9,0.7-1.5,0.7
	c-0.6,0-0.9-0.2-0.8-0.6c0-0.5,0.2-1.3,0.5-2.4c0.3-1.1,0.5-1.7,0.7-1.8c0.1-0.1,0.2-0.1,0.3-0.2c0.1-0.1,0-0.2-0.2-0.4
	c-0.3-0.1-0.8-0.3-1.7-0.5c-0.4-0.1-0.6-0.2-0.7-0.1c-0.1,0-0.1,0.2-0.1,0.5v0c0,0.6-0.1,1.5-0.3,2.8c-0.2,1.2-0.4,1.9-0.5,2.2
	c-0.1,0.2-0.4,0.3-0.8,0.4c-0.4,0-1,0-1.7-0.1c-0.2,0-0.4,0-0.4,0c0,0,0.1,0.2,0.2,0.5c0,0,0,0.1,0.1,0.1c0.1,0.2,0.2,0.3,0.2,0.3
	c0.1,0,0.2,0,0.4-0.1c0.1,0,0.1,0,0.1,0c0.8-0.2,1.3-0.2,1.5,0.2c0,0.1-0.2,1.1-0.6,3c-0.4,1.9-0.9,3.4-1.3,4.7
	c-0.2,0.5-0.2,0.9-0.2,1c0.1,0.1,0.4,0.2,0.9,0.2c0.4,0,0.7,0,0.8-0.1c0.1-0.1,0.3-0.3,0.3-0.6c0.1-0.4,0.3-0.7,0.5-0.6
	c0.2,0,0.6,0.2,1,0.7c0.4,0.4,0.6,0.6,0.6,0.8c0,0.2,0,0.5-0.3,0.9c-0.4,0.8-1,1.7-1.7,2.5c-0.7,0.8-1.5,1.5-2.2,2
	c-0.2,0.2-0.4,0.3-0.4,0.3C160.4,46.9,160.4,47,160.4,47z M178.2,44.6c-0.1,0.1-0.9,0.1-2.4,0.1c-1.4,0-2.2,0-2.4-0.1
	c-0.2-0.1-0.3-0.2-0.3-0.5c0-0.3,0-1.1,0-2.5c0-0.2,0-0.6,0-1c0-0.8,0-1.3,0-1.6c0.1-0.3,0.2-0.5,0.5-0.6c0.2,0,0.6-0.1,1.3,0
	c0.4,0,0.6,0,0.8,0c0.2,0,0.5,0,0.8,0c0.7,0,1.2,0,1.3,0c0.3,0.1,0.4,0.3,0.5,0.6c0,0.2,0.1,0.7,0,1.6c0,0.4,0,0.7,0,1
	c0,1.5,0,2.3,0,2.6C178.5,44.4,178.4,44.5,178.2,44.6z M165.7,39.5c-0.1,0-0.2,0.1-0.3,0c-0.1,0-0.3-0.1-0.8-0.3
	c-0.1,0-0.2-0.1-0.3-0.1c0,0-0.1,0-0.2,0c-0.3-0.1-0.5-0.2-0.6-0.3c-0.1-0.1-0.1-0.3-0.1-0.7c0-0.2,0.2-0.8,0.4-1.7
	c0-0.2,0.1-0.4,0.1-0.5c0.4-1.6,0.6-2.6,0.7-3c0.1-0.5,0.2-0.8,0.4-0.9c0.1-0.1,0.4-0.2,0.9-0.2c0.4,0,0.7,0,0.9,0.1
	c0.2,0.1,0.2,0.3,0.3,0.6c0,0.3,0,0.8-0.1,1.6c-0.2,1.5-0.4,2.7-0.7,3.7C166.1,38.9,165.9,39.4,165.7,39.5z M180.7,35.9
	c0.4,0.1,0.7,0,1-0.3c0.3-0.3,0.4-0.8,0.3-1.3c-0.1-0.9-0.5-1.7-1.2-2.5c-0.7-0.8-1.7-1.6-3-2.2c-0.4-0.2-0.6-0.2-0.6-0.2
	c0,0,0,0.2,0.3,0.6c0.4,0.5,0.7,1,1,1.6c0.3,0.5,0.5,0.9,0.5,1c0,0.2,0,0.3-0.1,0.3c-0.1,0.1-0.4,0.1-0.8,0.1c-0.3,0-1,0.1-2,0.1
	h-0.1c-1,0-1.6,0.1-1.9,0c-0.4,0-0.6-0.1-0.6-0.2c0-0.1,0.1-0.3,0.3-0.7c0.9-1.6,1.7-3.1,2.3-4.5c0.3-0.7,0.6-1.1,0.8-1.2
	c0.3-0.1,0.3-0.3,0-0.4c-0.3-0.2-0.9-0.4-1.9-0.7c0,0-0.1,0-0.1,0c-0.5-0.1-0.7-0.2-0.8-0.2s-0.1,0.1-0.1,0.4c0,0,0,0.1,0,0.1
	c-0.1,1.8-0.5,3.9-1.2,6.4c-0.2,0.6-0.4,1-0.6,1.2c-0.2,0.1-0.8,0.2-1.8,0.2c0,0,0,0-0.1,0c-0.3,0-0.5,0-0.5,0.1
	c0,0.1,0.1,0.4,0.2,0.9c0,0.1,0,0.1,0,0.2c0,0.2,0.1,0.4,0.2,0.7c0,0.2,0.1,0.3,0.1,0.3c0.1,0.2,0.1,0.4,0.2,0.4
	c0.1,0,0.2-0.1,0.4-0.2c0.1-0.1,0.3-0.2,0.5-0.3c0.2-0.1,0.7-0.2,1.4-0.4c1.8-0.4,3.5-0.8,4.9-1.2c1-0.3,1.6-0.3,1.8-0.1
	c0.3,0.1,0.5,0.7,0.6,1.6C180.1,35.6,180.3,35.8,180.7,35.9z M190.3,47.4c0,0,0.1,0.1,0.2,0c0,0,0.1,0,0.2,0c0.1,0,0.1,0,0.2,0
	c1-0.2,1.6-0.7,1.9-1.5c0-0.2,0.1-1.7,0.1-4.5c0-0.2,0-0.5,0-0.9c0-1.8,0-2.8,0-3.1c0-0.3,0.1-0.5,0.2-0.6l0,0c0,0,0.3-0.2,0.8-0.6
	c0.1-0.1,0.3-0.2,0.4-0.3l0,0c0.5-0.4,0.8-0.6,0.9-0.6c0.1-0.1,0.1-0.2,0.1-0.2c0,0-0.1-0.1-0.2,0c-0.1,0-0.4,0.1-0.8,0.2
	c0,0-0.1,0-0.1,0c-0.5,0.2-0.9,0.3-1,0.3c-0.2,0-0.3-0.1-0.4-0.4c0-0.2-0.1-0.7-0.1-1.4c0-0.1,0-0.1,0-0.2c0-0.1,0-0.3,0-0.5
	c0-0.8,0-1.3,0.1-1.5c0.1-0.1,0.4-0.2,1.1-0.2c0.1,0,0.3,0,0.3,0c0.9,0,1.4-0.1,1.5-0.2c0.1-0.1,0-0.5-0.5-1c-0.5-0.6-0.8-0.9-1-1
	c-0.2-0.1-0.4,0.1-0.6,0.5c-0.4,0.6-0.6,0.9-0.7,0.7c-0.1-0.1-0.2-0.7-0.2-1.8c0-0.8,0-1.3,0-1.5c0-0.2,0.1-0.3,0.3-0.5
	c0.2-0.2,0.2-0.4-0.1-0.5c-0.3-0.2-0.9-0.4-1.9-0.6c-0.3-0.1-0.5-0.1-0.6-0.1c0,0-0.1,0.2,0,0.5v0c0.1,0.8,0.2,1.7,0.2,2.8
	c0,1.1,0,1.6-0.1,1.8c-0.1,0.1-0.3,0.2-0.6,0.2c-0.3,0-0.9,0-1.7-0.1c-0.2,0-0.2,0-0.3,0c0,0,0.1,0.2,0.2,0.5
	c0.1,0.3,0.2,0.4,0.3,0.5c0.1,0,0.2,0,0.3,0c0.4-0.2,0.8-0.2,1.2-0.2c0.4,0,0.6,0.1,0.7,0.3c0.1,0.1,0.1,0.9,0.1,2.3
	c0,1.4,0,2.2-0.1,2.3c-0.1,0.3-0.8,0.6-2.2,1c0,0,0,0-0.1,0c-0.2,0-0.3,0.1-0.3,0.2s0.1,0.4,0.3,0.9c0,0.1,0.1,0.2,0.1,0.2
	c0.3,0.7,0.4,1.1,0.5,1.2c0.1,0.1,0.2,0,0.3-0.3c0.2-0.3,0.4-0.5,0.7-0.6c0.4-0.1,0.6-0.1,0.6,0.1c0,0.1,0,1.1,0,2.9s0,2.8-0.1,2.9
	c-0.1,0.2-0.2,0.3-0.5,0.3c-0.2,0-0.7,0-1.4,0c-0.4,0-0.6,0-0.6,0c-0.1,0.2-0.1,0.3,0.2,0.3c0.6,0.1,1,0.3,1.2,0.6
	c0.3,0.3,0.4,0.6,0.5,1.2C190.2,47.2,190.3,47.4,190.3,47.4z M200.3,47.3c0.1,0.1,0.7,0,1.7-0.5c1-0.4,1.9-0.9,2.5-1.4
	c0.4-0.3,0.8-0.4,1.2-0.2c0.4,0.2,0.8,0.8,1.4,1.7c0.2,0.3,0.4,0.4,0.7,0.4c0.3,0,0.6-0.2,0.7-0.4c0.2-0.4,0.1-0.8-0.1-1.3
	c-0.2-0.5-0.6-1-1.2-1.5c-0.3-0.3-0.5-0.4-0.5-0.6c0-0.1,0-0.3,0.1-0.5c0.5-1,0.8-1.6,1-1.8c0.2-0.2,0.3-0.4,0.5-0.4
	c0.3-0.1,0.4-0.2,0.3-0.4c-0.1-0.2-0.4-0.5-0.9-0.9c-0.4-0.3-0.7-0.5-0.8-0.5c-0.1,0-0.3,0.1-0.6,0.4c-0.3,0.3-0.7,0.5-1.1,0.6
	c-0.4,0.1-1.2,0.1-2.4,0c-0.6,0-1-0.1-1.1-0.1s-0.2,0-0.2,0.1c0,0.1,0,0.2-0.1,0.1c-0.1,0-0.2-0.1-0.3-0.3c-0.1-0.2-0.3-0.3-0.5-0.4
	c-0.2-0.1-0.4-0.2-0.6-0.3c-0.2-0.1-0.3-0.2-0.4-0.1c-0.1,0-0.2,0.1-0.5,0.4c-0.3,0.3-0.6,0.5-1,0.6c-0.4,0.1-0.7,0.1-1-0.1
	c-0.2-0.1-0.3-0.5-0.2-1.1c0.1-0.6,0.2-0.9,0.5-1.1c0.3-0.1,0.6-0.2,0.9,0c0.3,0.1,0.5,0.3,0.5,0.5c0,0.4,0.4,0.4,1.2,0.1
	c0.4-0.1,0.6-0.2,0.6-0.4s0.1-0.4,0-0.8c-0.1-1-0.1-1.6,0-2c0-0.4,0.2-0.7,0.3-0.8c0.2-0.1,0.3-0.2,0.3-0.4c0-0.1-0.3-0.4-0.6-0.7
	c-0.5-0.4-0.8-0.6-1-0.6c-0.1,0-0.4,0.2-0.7,0.5c-0.2,0.2-0.3,0.3-0.5,0.4c-0.1,0-0.3,0.1-0.6,0.1c-0.6,0-0.9-0.1-0.9-0.2
	c0-0.1,0.2-0.4,0.8-0.8c1.4-1.1,2.6-2.5,3.4-4.2c0.3-0.6,0.6-1,0.9-1.1c0.3-0.1,0.4-0.2,0.4-0.3c0-0.1-0.2-0.3-0.5-0.6
	c-0.6-0.6-1-0.9-1.2-0.9c-0.2-0.1-0.5,0.1-0.8,0.4c-0.3,0.3-0.8,0.5-1.3,0.6c-0.6,0.1-1.4,0-2.6-0.1c-0.3,0-0.5,0-0.5,0
	c0,0,0,0.2,0.2,0.4c0,0,0,0.1,0,0.1c0.1,0.3,0.2,0.4,0.3,0.5c0.1,0,0.2,0,0.5,0c0.1,0,0.1,0,0.1,0c0.3-0.1,0.7-0.1,1.2-0.1
	c0.5,0,0.8,0,1,0c0.4,0.1,0.4,0.4,0.2,1c-0.2,0.4-0.3,0.7-0.5,0.8c-0.1,0.1-0.4,0-0.7-0.2c-0.3-0.2-0.6-0.3-1.1-0.4
	c-0.4-0.1-0.8-0.2-1.1-0.2c-0.1,0-0.2,0.1-0.2,0.1c0,0.1,0.1,0.2,0.3,0.4c0.4,0.5,0.8,1,1,1.5c0.1,0.2,0.2,0.4,0.3,0.4
	c0.4,0.2,0.3,0.6-0.2,1.2c-0.5,0.7-1.3,1.3-2.3,2c-0.2,0.2-0.4,0.3-0.4,0.3c0,0.1,0,0.1,0,0.2c0.1,0,0.3,0,0.8-0.2
	c0.3-0.1,0.4-0.2,0.5-0.2c0.1,0,0.2,0,0.3,0.1c0.1,0,0.1,0.1,0.1,0.1c0,0.1,0.1,0.1,0.2,0.1c0.2,0,0.5,0,1.1,0c0,0,0,0,0.1,0
	c0.7,0,1.2,0.1,1.3,0.2c0.1,0.1,0.2,0.5,0.2,1.1v0.1c0,0.8-0.2,1.2-0.5,1.3c-0.3,0.1-1-0.1-2-0.6c0,0-0.1,0-0.2-0.1
	c-0.3-0.2-0.5-0.2-0.6-0.2s-0.1,0.2-0.1,0.6c0,0.1,0,0.1,0,0.2c0,1.3-0.2,2.7-0.4,4.1c0,0,0,0.1,0,0.1c-0.1,0.4-0.1,0.6,0,0.7
	c0,0.1,0.2,0.1,0.6,0.1c0,0,0.1,0,0.1,0c0.4,0,0.6,0,0.8-0.1c0.2-0.1,0.2-0.3,0.2-0.5c0-0.3,0.2-0.4,0.6-0.6c0.4-0.1,0.7-0.1,1.1,0
	c0.4,0.1,0.6,0.2,0.6,0.5c0,0.6-0.1,1.4-0.2,2.2c-0.2,0.8-0.3,1.3-0.6,1.6c-0.2,0.2-0.4,0.3-0.6,0.3c-0.2,0-0.8,0-1.8,0
	c-0.3,0-0.5,0-0.6,0.1c0,0.1,0.1,0.2,0.4,0.2c0.5,0.1,0.8,0.3,1.1,0.6c0.3,0.3,0.4,0.6,0.4,0.9c0,0.1,0,0.2,0.1,0.3
	c0.1,0.1,0.3,0.1,0.6,0c0.4-0.1,0.7-0.2,1-0.3c0.5-0.3,1-0.7,1.2-1.4c0.3-0.7,0.5-1.8,0.7-3.3c0.1-0.6,0.1-1,0.2-1.1
	c0.1-0.2,0.2-0.3,0.4-0.4c0.1,0,0.3-0.1,0.3-0.2c0.1-0.1,0.1-0.1,0.2,0c0.1,0,0.2,0.2,0.3,0.3c0,0.1,0.1,0.1,0.1,0.1
	c0,0,0.2,0,0.6-0.1c0,0,0.1,0,0.1,0c2.2-0.4,3.1-0.2,2.8,0.7c-0.2,0.5-0.3,0.8-0.5,0.9c-0.2,0.1-0.4,0.1-0.8,0
	c-1.2-0.3-1.8-0.5-2.1-0.5c-0.2,0-0.4,0-0.4,0.1c0,0.1,0,0.2,0.2,0.3c0.4,0.3,0.9,0.6,1.3,0.9c0.4,0.3,0.6,0.5,0.7,0.7
	c0.1,0.3-0.2,0.8-1,1.4c-0.7,0.7-1.5,1.2-2.4,1.7C200.3,47,200.2,47.2,200.3,47.3z M200.9,39.5c0.1,0.1,0.4,0,0.9-0.4
	c0.5-0.4,0.9-0.7,1.1-1.1c0.4-0.6,0.7-1.6,0.8-2.8c0-0.4,0.1-0.6,0.2-0.7s0.3-0.2,0.6-0.2c0.4,0,0.6,0.1,0.7,0.3
	c0.1,0.2,0.1,0.7,0.1,1.6c0,1,0.1,1.6,0.1,1.8c0.1,0.2,0.4,0.3,0.9,0.4c0.3,0.1,0.8,0.1,1.3,0c0.6,0,1-0.1,1.2-0.2
	c0.3-0.1,0.5-0.3,0.6-0.6c0.1-0.3,0-0.5-0.2-0.7c-0.2-0.2-0.3-0.5-0.4-0.9c0-0.7-0.2-0.7-0.5,0c-0.1,0.4-0.3,0.6-0.6,0.8
	c-0.3,0.1-0.5,0.1-0.8,0c-0.2-0.2-0.3-0.5-0.3-1.2c0-0.6,0.2-1,0.5-1.1c0.3-0.1,0.3-0.3,0.2-0.4c-0.1-0.1,0-0.2,0.1-0.3
	c0.2-0.1,0.3,0,0.5,0.1c0.1,0.1,0.2,0.1,0.2,0.1c0,0,0.1-0.1,0.1-0.2c0.1-0.3,0.2-0.5,0.4-0.8c0.2-0.3,0.5-0.4,0.7-0.6
	c0.2-0.1,0.3-0.2,0.3-0.2c0-0.1-0.2-0.2-0.5-0.3c-0.7-0.3-1.3-0.6-1.8-0.9c-0.5-0.3-0.7-0.5-0.7-0.7c0-0.1,0.3-0.4,0.8-0.7
	c0.6-0.3,1-0.5,1.2-0.5c0.3,0,0.3-0.1,0.2-0.3c-0.1-0.2-0.5-0.5-1-0.9c0,0,0,0-0.1-0.1c-0.2-0.2-0.3-0.2-0.4-0.2
	c-0.1,0-0.2,0.1-0.3,0.4c0,0.1-0.1,0.1-0.1,0.1c-0.5,0.9-0.9,1.4-1.1,1.5c-0.2,0.1-0.6-0.1-1-0.5c-0.3-0.3-0.4-0.5-0.3-0.7
	c0.1-0.2,0.4-0.4,1-0.8c0.1,0,0.2-0.1,0.4-0.2c0.5-0.3,0.8-0.4,1-0.5c0.2,0,0.3-0.1,0.1-0.3c-0.1-0.2-0.4-0.4-1-0.8
	c0,0-0.1,0-0.1-0.1c-0.3-0.2-0.4-0.3-0.5-0.2c-0.1,0-0.2,0.2-0.4,0.6c0,0.1-0.1,0.2-0.1,0.2c-0.4,0.9-0.8,1.4-1,1.3
	s-0.6-0.6-1.2-1.6c-0.2-0.4-0.3-0.6-0.4-0.6c-0.1-0.1-0.1-0.1-0.2,0c0,0,0,0.2,0,0.4c0.6,2.2,1.5,4,2.7,5.5c0.4,0.5,0.6,0.8,0.7,0.9
	c0.1,0.1,0,0.2,0,0.4c-0.1,0-0.2,0.2-0.4,0.5c-0.3,0.4-0.6,0.6-1,0.6c-0.3,0-0.9-0.2-1.7-0.5c-0.1,0-0.1-0.1-0.2-0.1
	c-0.3-0.2-0.5-0.2-0.5-0.1c0,0.1-0.1,0.4-0.1,1c0,0.2,0,0.4,0,0.6c0,1.2-0.1,2.2-0.2,2.8c-0.1,0.6-0.4,1.1-0.8,1.6
	C200.9,39.2,200.8,39.4,200.9,39.5z M234.5,46.6c0.8,0.7,1.2,0.9,1.4,0.6c0.1-0.3,0.3-0.6,0.6-0.9c0.3-0.3,0.6-0.4,0.9-0.6
	c0.2-0.1,0.3-0.1,0.3-0.2c0-0.1-0.2-0.2-0.5-0.4c-1.5-0.8-2.7-1.8-3.8-3.1c-0.4-0.4-0.6-0.7-0.6-0.9c0-0.2,0.1-0.6,0.4-1.1
	c1-1.9,1.8-4.1,2.3-6.6c0-0.2,0.1-0.6,0.2-1.2c0.1-0.4,0.2-0.7,0.3-0.8c0.1-0.1,0.4-0.2,0.9-0.2c0.6,0,0.9-0.2,0.9-0.4
	c0-0.2-0.4-0.6-1-1.2c-0.6-0.5-1-0.8-1.1-0.8c-0.2,0-0.4,0.2-0.7,0.7c0,0-0.1,0.1-0.1,0.2c-0.3,0.4-0.5,0.6-0.7,0.7
	c-0.2,0.1-0.7,0.1-1.5,0.1c-0.1,0-0.2,0-0.3,0c-0.1,0-0.2,0-0.3,0c-0.7,0-1.1,0-1.3,0c-0.2,0-0.4-0.2-0.4-0.4c0-0.1,0.1-0.5,0.3-1
	c0-0.1,0.1-0.1,0.1-0.2c0-0.1,0.1-0.3,0.2-0.6c0.2-0.5,0.3-0.9,0.3-1c0.2-0.6,0.4-1,0.6-1.2c0.3-0.2,0.3-0.3,0-0.4
	c-0.3-0.1-0.9-0.3-2-0.6c-0.1,0-0.2,0-0.3-0.1c-0.4-0.1-0.6-0.1-0.6,0c0,0.1-0.1,0.3-0.1,0.7c0,0.1,0,0.3,0,0.4
	c-0.1,2.1-0.5,4.2-1.2,6.5c-0.2,0.8-0.4,1.2-0.5,1.5c-0.1,0.3-0.3,0.4-0.4,0.4c-0.1,0-0.3-0.1-0.5-0.3c-0.6-0.6-1.1-1-1.4-1.2
	c-0.1-0.1-0.2-0.1-0.3,0c-0.1,0-0.3,0.2-0.6,0.5c-0.3,0.3-0.5,0.5-0.6,0.6c-0.1,0-0.4,0.1-0.9,0.1c-0.4,0-0.7,0-0.8-0.1
	c-0.1-0.1-0.2-0.3-0.3-0.6c0-0.2,0-0.7,0-1.5c0-0.1,0-0.1,0-0.1c0-0.1,0-0.2,0-0.3c0-0.4,0-0.6,0.1-0.7c0.1-0.1,0.3-0.2,0.6-0.2
	c0.2,0,0.8,0,1.6,0c0.3,0,0.5,0,0.7,0c1.4,0,2.3,0,2.5,0c0.3,0,0.4-0.1,0.4-0.3c0-0.1-0.1-0.3-0.4-0.6c-0.3-0.3-0.6-0.6-1.1-1
	c-0.4-0.3-0.6-0.4-0.7-0.4c-0.1,0-0.3,0.2-0.6,0.6l0,0c-0.3,0.5-0.6,0.8-0.9,0.9s-0.5,0.1-0.9,0c-0.3-0.1-0.4-0.7-0.4-1.8
	c0-1.1,0.2-1.7,0.4-1.9c0.2-0.1,0.2-0.3-0.1-0.5c-0.3-0.2-0.9-0.4-1.8-0.6c0,0-0.1,0-0.1,0c-0.4-0.1-0.6-0.1-0.6-0.1
	c0,0-0.1,0.2,0,0.4c0,0,0,0.1,0,0.1c0.1,0.8,0.2,1.7,0.2,2.6c0,0.9,0,1.4-0.1,1.5c-0.1,0.1-0.6,0.2-1.6,0.3c-0.9,0-1.8,0-2.5-0.2
	c-0.1,0-0.2,0-0.2,0.1c0,0.1,0.1,0.2,0.2,0.5c0.1,0.3,0.2,0.4,0.3,0.5c0,0,0.2,0,0.3,0c0.5-0.2,1-0.2,1.4-0.2c0.4,0,0.6,0.1,0.7,0.3
	c0.1,0.3,0.1,1.2,0.1,2.9c0,1.7-0.1,3.1-0.3,4.4c-0.2,1.7-0.5,3.2-1,4.8c-0.5,1.5-1,2.8-1.6,3.7c-0.2,0.3-0.2,0.5-0.1,0.5
	c0.1,0,0.4-0.2,0.7-0.5c1.2-1.3,2.1-2.8,2.8-4.4c0.7-1.7,1.2-3.6,1.5-6c0.1-0.7,0.2-1.1,0.3-1.2c0.1-0.1,0.5-0.2,1.1-0.2h0
	c0.6,0,0.9,0.1,1,0.2c0.1,0.1,0.1,0.6,0.1,1.4c0,0,0,0.1,0,0.1c-0.1,4-0.4,6.6-0.9,7.5c-0.2,0.3-0.4,0.5-0.6,0.6
	c-0.3,0.1-0.8,0.1-1.6,0c-0.5,0-0.8,0-0.8,0c-0.1,0.1,0.1,0.2,0.4,0.4c0.9,0.3,1.4,0.9,1.4,1.7c0,0.2,0,0.3,0.1,0.3
	c0.1,0,0.2,0,0.4,0c0.8-0.1,1.5-0.4,1.9-0.8c0.5-0.5,0.8-1.3,1.1-2.4c0.2-1,0.4-2.6,0.5-4.6c0-0.2,0-0.5,0-0.9c0-0.3,0-0.6,0-0.7
	c0-0.2,0-0.5,0.1-1c0-0.3,0-0.4,0-0.5c0-0.4,0-0.7,0.1-0.8c0-0.1,0.2-0.2,0.4-0.3c0.2-0.1,0.4-0.1,0.4,0.1c0,0.2,0,0.5-0.2,0.9
	c-0.1,0.3-0.2,0.4-0.2,0.5c0,0.1,0,0.1,0.1,0.2c0.2,0,0.8-0.6,1.8-2c0.4-0.6,0.7-0.9,0.9-0.9c0.1,0,0.3,0.4,0.4,1.1
	c0.3,1.6,0.6,3.1,1.1,4.5c0.2,0.6,0.3,1,0.2,1.2c0,0.2-0.2,0.6-0.5,1c-1.3,1.9-2.9,3.5-5,4.9c-0.3,0.2-0.5,0.4-0.6,0.4
	c-0.1,0.1-0.1,0.2,0,0.2c0.1,0,0.3,0,0.7-0.2c2.2-0.9,4-2.2,5.6-3.7c0.4-0.4,0.7-0.6,0.8-0.6s0.4,0.3,0.8,0.9
	C233,44.9,233.8,45.8,234.5,46.6z M231.6,38.6c-0.4,0.4-0.9-0.6-1.6-2.9c-0.4-1.3-0.6-2.2-0.6-2.8c0-0.6,0.1-1,0.5-1.3
	c0.2-0.2,0.8-0.3,1.7-0.2s1.5,0.1,1.6,0.3c0.2,0.3,0,1.4-0.4,3.4S232,38.2,231.6,38.6z M264.1,47.4c0.3,0.1,0.6,0,0.9-0.2
	c0.3-0.2,0.4-0.6,0.4-1c0-0.6-0.3-1.3-0.9-1.9c-0.5-0.6-1.3-1.2-2.3-1.7c-0.5-0.3-0.8-0.5-0.8-0.6c0-0.2,0.2-0.5,0.6-0.9
	c0.6-0.7,1.2-1.5,1.8-2.3c0.5-0.8,0.9-1.2,1.1-1.2c0.4,0,0.4-0.1,0.2-0.3c-0.2-0.2-0.8-0.6-1.7-1.1c-0.4-0.2-0.6-0.3-0.7-0.3
	c-0.1,0-0.2,0.1-0.2,0.3c-0.7,2-1.9,4-3.6,5.8c-1.7,1.9-3.9,3.5-6.4,4.8c-0.1,0-0.1,0.1-0.2,0.1c-0.3,0.2-0.5,0.3-0.6,0.3
	c0,0,0,0.1,0,0.2l0,0c0,0,0.1,0,0.1,0c0,0,0.1,0,0.3-0.1c0.1,0,0.2-0.1,0.3-0.1c2.6-0.9,4.8-2.1,6.7-3.5c0.1-0.1,0.3-0.2,0.6-0.4
	c0.2-0.1,0.3-0.2,0.3-0.2c0.4-0.3,0.8,0,1.5,0.6c0.6,0.7,1.3,1.6,1.9,2.9C263.5,47.1,263.7,47.3,264.1,47.4z M245.1,47.4
	c0.2,0.1,0.5,0,0.9-0.1c0.4-0.1,0.7-0.3,0.8-0.4c0.1-0.1,0.1-0.3,0.1-0.6c0-0.5,0-0.8,0.1-0.9c0.1-0.1,0.6-0.2,1.2-0.2
	c0.7,0,1,0,1.2,0.1c0.1,0.1,0.2,0.3,0.2,0.6c0,0.7,0.5,0.8,1.5,0.3c0,0,0.1,0,0.1,0c0.3-0.1,0.4-0.3,0.4-0.4c0-0.1,0-0.5,0-1.2
	c0-0.1,0-0.1,0-0.2c-0.1-1.8-0.1-2.9,0-3.4s0.2-0.8,0.5-0.9c0.3-0.1,0.3-0.3,0.2-0.5c-0.1-0.2-0.4-0.5-0.9-0.9
	c-0.5-0.4-0.8-0.6-1-0.6c-0.1,0-0.4,0.2-0.7,0.6c-0.2,0.3-0.4,0.4-0.5,0.5c-0.2,0-0.6,0.1-1.2,0.1c0,0-0.1,0-0.1,0c-0.5,0-0.9,0-1,0
	c-0.2,0-0.5-0.2-1-0.4c-0.1,0-0.1-0.1-0.2-0.1c-0.1,0-0.2-0.1-0.3-0.1c-0.4-0.2-0.6-0.2-0.7-0.2c0,0,0,0.2,0,0.6c0,0.1,0,0.2,0,0.3
	c0.2,2.4,0.2,4.7,0.1,6.9c0,0.4,0,0.7,0,0.8C244.9,47.3,245,47.4,245.1,47.4z M248.1,44.6c-0.5,0-0.8,0-0.9-0.1
	c-0.2-0.1-0.3-0.2-0.3-0.5c0-0.2,0-0.7,0-1.4c0-0.1,0-0.2,0-0.3s0-0.2,0-0.3c0-0.7,0-1.2,0-1.4c0-0.3,0.1-0.4,0.3-0.5
	c0.1,0,0.4-0.1,0.8-0.1c0.1,0,0.1,0,0.2,0c0,0,0.1,0,0.2,0c0.5,0,0.8,0,0.9,0.1c0.2,0.1,0.3,0.2,0.3,0.5c0,0.2,0,0.7,0,1.4
	c0,0.1,0,0.2,0,0.3c0,1,0,1.6,0,1.8c0,0.2-0.1,0.3-0.3,0.4c-0.1,0-0.5,0.1-1.1,0.1C248.3,44.6,248.2,44.6,248.1,44.6z M252.8,42.1
	c0,0.1,0.1,0.1,0.2,0.1c0.1,0,0.4-0.2,0.7-0.4c3.4-1.8,6.3-4.3,8.6-7.5c0.4-0.6,0.7-0.9,0.9-0.9c0.3,0,0.4-0.1,0.4-0.2
	c0-0.1-0.3-0.3-0.7-0.5c-0.1,0-0.2-0.1-0.3-0.2c-0.4-0.2-0.7-0.4-0.8-0.5c-0.3-0.2-0.5-0.3-0.6-0.4c-0.1,0-0.1,0-0.2,0
	c-0.6,1.8-1.6,3.6-3.1,5.4c-1.4,1.8-3,3.4-4.8,4.6c-0.2,0.1-0.3,0.2-0.3,0.3C252.7,41.9,252.7,42,252.8,42.1z M255.8,37
	c0.4,0.2,0.8,0.1,1.1-0.1c0.3-0.2,0.4-0.6,0.4-1c0-0.5-0.2-0.9-0.6-1.4l0,0c-0.2-0.2-0.2-0.4-0.1-0.6c0.1-0.2,0.5-0.6,1.2-1.3
	c0.1-0.1,0.2-0.2,0.2-0.2c1-1,1.5-1.5,1.7-1.5c0.4-0.1,0.4-0.3,0-0.5c-0.4-0.2-0.5-0.3-0.5-0.5s0.1-0.2,0.4-0.2c0.3,0,1.2,0,2.9,0
	c1.6,0,2.5,0,2.8,0c0.3,0,0.4-0.1,0.5-0.2c0.1-0.2-0.3-0.7-1.3-1.5c-0.4-0.4-0.7-0.5-0.8-0.5c-0.1,0-0.4,0.3-0.7,0.7
	c-0.3,0.4-0.5,0.7-0.7,0.8c-0.2,0.1-0.5,0.1-1,0.1c-0.6,0-0.9-0.1-1.1-0.2s-0.2-0.4-0.2-1c0-0.4,0-0.7,0-0.8c0-0.1,0.2-0.3,0.3-0.4
	c0.2-0.2,0.2-0.3-0.1-0.5c-0.3-0.1-0.9-0.3-1.9-0.6c-0.4-0.1-0.6-0.1-0.7-0.1c-0.1,0-0.1,0.1,0,0.3v0c0.1,0.7,0.1,1.3,0.1,1.9
	s0,1-0.1,1.1c-0.1,0.1-0.6,0.2-1.6,0.2c-1,0-2,0-3.1-0.1c-0.2,0-0.4,0-0.4,0c0,0,0,0.1,0,0.2c0.1,0.1,0,0.2-0.1,0.2
	c-0.2,0-0.3-0.1-0.5-0.2l0,0c-0.4-0.3-0.7-0.4-0.8-0.4c-0.1,0-0.4,0.3-0.7,0.7c0,0-0.1,0.1-0.1,0.1c0,0,0,0,0,0.1
	c-0.2,0.3-0.4,0.4-0.6,0.5c-0.2,0-0.9,0-2,0c-0.1,0-0.2,0-0.3,0c-1.2,0-2.2,0-2.9-0.1c-0.4,0-0.6,0-0.6,0c0,0,0,0.2,0.2,0.5l0,0
	c0,0,0,0,0,0.1c0.1,0.2,0.2,0.4,0.3,0.4c0.1,0,0.3,0,0.6-0.1c0.1,0,0.1,0,0.1,0c0.3-0.1,0.6-0.1,1-0.1c0.3,0,1.3,0,3,0h0
	c2.3,0,3.4,0,3.5-0.1c0.1,0,0.1-0.1,0.2-0.2c0.1-0.1,0.1-0.1,0-0.2c-0.1-0.1,0.1-0.3,0.7-0.4c0.6-0.1,1.3-0.2,2.1-0.2h0
	c0.6,0,1,0,1.1,0.1c0.2,0.1,0.2,0.3,0.1,0.7c-0.1,0.3-0.3,0.9-0.7,1.8l0,0c-0.3,0.6-0.5,0.9-0.6,1c-0.2,0.1-0.5,0-1-0.1
	c-0.9-0.3-1.4-0.4-1.7-0.4c-0.3,0-0.2,0.2,0.2,0.6c0.9,0.8,1.6,1.7,2.2,2.9c0.2,0.4,0.3,0.6,0.3,0.6C255.6,36.9,255.7,37,255.8,37z
	 M245.4,37.1c0.1,0,0.1,0,0.1,0c0,0,0,0,0.1,0c0.4-0.1,0.7-0.2,1-0.2c0.3,0,1.1,0,2.5,0c1.4,0,2.3,0,2.5,0c0.3,0,0.4-0.1,0.5-0.3
	c0-0.1,0-0.3-0.3-0.6c-0.2-0.3-0.5-0.6-0.9-0.9c-0.3-0.2-0.5-0.3-0.6-0.3c-0.1,0-0.3,0.2-0.5,0.5c-0.3,0.5-0.6,0.7-0.8,0.8
	c-0.1,0-0.6,0.1-1.5,0c-0.9,0-1.7-0.1-2.3-0.1c-0.2,0-0.3,0-0.3,0c0,0,0.1,0.2,0.2,0.5C245.2,36.9,245.3,37.1,245.4,37.1L245.4,37.1
	z M245.4,34c0.1,0,0.1,0,0.1,0c0,0,0,0,0.1,0c0.4-0.1,0.7-0.2,1-0.2s1.1,0,2.5,0c1.4,0,2.3,0,2.5,0c0.3,0,0.4-0.1,0.5-0.2
	s-0.1-0.3-0.4-0.7c-0.3-0.4-0.6-0.6-1-0.9c-0.2-0.1-0.4-0.2-0.5-0.1c-0.1,0-0.3,0.2-0.5,0.6c-0.3,0.4-0.5,0.6-0.7,0.7
	c-0.1,0-0.6,0.1-1.5,0s-1.7-0.1-2.3-0.1c-0.2,0-0.3,0-0.3,0c0,0,0.1,0.2,0.2,0.5C245.2,33.8,245.3,33.9,245.4,34L245.4,34z
	 M245.4,27.9c0.1,0,0.3,0,0.7-0.1c0.1,0,0.2,0,0.2,0c0.8-0.1,2-0.2,3.4-0.2c1.3,0,2-0.1,2.1-0.3c0.1-0.2-0.2-0.7-1.1-1.4
	c-0.4-0.3-0.6-0.4-0.7-0.4c-0.1,0-0.3,0.2-0.5,0.5c-0.4,0.5-0.7,0.8-1.1,0.9c-0.4,0.1-1.3,0.1-2.7,0c0,0,0,0-0.1,0
	c-0.4,0-0.6-0.1-0.6-0.1c-0.1,0-0.2,0-0.1,0.1c0,0.1,0.1,0.2,0.2,0.5c0,0,0,0.1,0.1,0.2C245.2,27.8,245.3,27.9,245.4,27.9z
	 M273.4,47.4c0.4,0.1,0.8,0,1.3-0.2c0.4-0.2,0.7-0.5,0.7-0.8c0-0.4,0.1-0.6,0.3-0.8c0.1-0.1,2.4-0.1,6.8-0.1c4.4,0,6.7,0,6.8,0.1
	c0.2,0.1,0.3,0.4,0.3,0.9c0,0.3,0,0.6,0.1,0.6c0.1,0.1,0.2,0.1,0.4,0.1c0.2,0,0.6-0.1,1-0.2c0.4-0.1,0.7-0.3,0.9-0.5
	c0.1-0.1,0.1-0.1,0.1-0.2c0,0,0-0.2,0-0.5c-0.1-1.5-0.1-4.3-0.1-8.4c0-0.2,0-0.5,0-0.9c0-1.7,0-2.8,0-3.3c0-0.6,0-1.1,0.1-1.2
	c0-0.1,0.1-0.2,0.2-0.3c0,0,0.1,0,0.1,0c0.3-0.2,0.4-0.3,0.4-0.3c0-0.1,0-0.2-0.1-0.4c-0.4-0.4-0.9-0.8-1.5-1.2
	c-0.2-0.2-0.4-0.3-0.5-0.2c-0.1,0-0.2,0.1-0.4,0.3c0,0-0.1,0.1-0.1,0.1c-0.3,0.4-0.6,0.6-0.7,0.6c-0.1,0.1-0.5,0.1-1.2,0.1
	c-0.1,0-0.2,0-0.2,0c-0.1,0-0.2,0-0.3,0c-0.7,0-1.1-0.1-1.2-0.2c-0.1-0.1-0.1-0.6-0.1-1.4c0-0.2,0-0.4,0-0.5c0-0.9,0-1.5,0.1-1.6
	c0-0.2,0.1-0.3,0.3-0.4c0.2-0.2,0.2-0.3-0.1-0.5c-0.3-0.2-0.9-0.4-1.9-0.6c0,0-0.1,0-0.1,0c-0.3-0.1-0.5-0.1-0.6-0.1
	c0,0-0.1,0.2,0,0.4c0,0,0,0.1,0,0.1c0.1,0.7,0.2,1.8,0.2,3.1c0,0.1,0,0.2,0,0.3c0,0.8,0,1.2-0.1,1.3c-0.1,0.1-0.5,0.2-1.2,0.2
	c-0.1,0-0.2,0-0.2,0c-0.1,0-0.2,0-0.3,0c-0.7,0-1-0.1-1.2-0.2c-0.1-0.1-0.1-0.6-0.1-1.4c0-0.2,0-0.3,0-0.4c0-0.9,0-1.4,0-1.6
	c0-0.2,0.1-0.4,0.3-0.5c0.2-0.2,0.2-0.4,0-0.5c-0.2-0.1-0.9-0.3-1.9-0.6c0,0-0.1,0-0.2,0c-0.3-0.1-0.5-0.1-0.6,0c0,0-0.1,0.2,0,0.5
	c0,0.1,0,0.1,0,0.1c0.1,0.9,0.2,1.9,0.2,3.1c0,0,0,0.1,0,0.1c0,0.8,0,1.2-0.2,1.3c-0.1,0.1-0.6,0.2-1.4,0.2c-0.1,0-0.1,0-0.1,0
	c-0.1,0-0.2,0-0.3,0c-0.6,0-0.9,0-1.1,0c-0.2,0-0.6-0.2-1.2-0.5c-0.1,0-0.2-0.1-0.3-0.1c-0.7-0.3-1-0.4-1.1-0.4c0,0,0,0.1,0,0.2
	c0,0.1,0.1,0.6,0.1,1.3c0.1,0.9,0.1,3.2,0.1,6.8c0,3.6-0.1,6.2-0.2,7.7c0,0.6-0.1,1-0.1,1.2c0,0.1,0,0.2,0.1,0.3
	C273.2,47.3,273.3,47.4,273.4,47.4z M289.2,44.8c-0.1,0.1-0.6,0.1-1.3,0.1c-0.8,0-1.3,0-1.4-0.1c-0.1-0.1-0.2-0.3-0.3-0.5
	c0-0.3,0-1.2,0-2.7c0-0.2,0-0.5,0-0.8c0-0.9,0-1.5,0-1.8c0-0.4,0.1-0.6,0.3-0.6c0.1-0.1,0.4-0.1,0.9-0.1c0.2,0,0.3,0,0.4,0
	s0.3,0,0.4,0c0.5,0,0.8,0,0.9,0.1c0.2,0.1,0.3,0.3,0.3,0.6c0,0.2,0,0.8,0,1.8c0,0.4,0,0.6,0,0.8c0,0.1,0,0.3,0,0.6c0,1.3,0,2,0,2.2
	C289.5,44.5,289.4,44.7,289.2,44.8z M282,44.8c-0.4,0-0.7,0-0.9-0.1c-0.2-0.1-0.3-0.3-0.3-0.6c0-0.3,0-0.8,0-1.8c0-0.4,0-0.7,0-0.9
	s0-0.5,0-0.9c0-0.9,0-1.5,0-1.8c0-0.3,0.2-0.5,0.3-0.6c0.1-0.1,0.4-0.1,0.9-0.1c0.2,0,0.3,0,0.4,0s0.2,0,0.4,0c0.4,0,0.7,0,0.9,0.1
	c0.2,0.1,0.3,0.3,0.3,0.6c0,0.3,0,0.8,0,1.8c0,0.4,0,0.7,0,0.9c0,1.5,0,2.4,0,2.7c0,0.3-0.1,0.4-0.3,0.5c-0.1,0.1-0.5,0.1-1.3,0.1
	C282.3,44.8,282.2,44.8,282,44.8z M277,44.8c-0.8,0-1.2,0-1.3-0.1c-0.2-0.1-0.3-0.2-0.3-0.4c0-0.2,0-1,0-2.2c0-0.2,0-0.4,0-0.6
	c0-0.2,0-0.5,0-0.8c0-0.9,0-1.5,0-1.8c0-0.4,0.1-0.6,0.3-0.6c0.1-0.1,0.4-0.1,0.9-0.1c0.2,0,0.3,0,0.4,0c0.1,0,0.2,0,0.4,0
	c0.4,0,0.7,0,0.9,0.1c0.2,0.1,0.3,0.3,0.3,0.6c0,0.2,0,0.8,0,1.8c0,0.4,0,0.6,0,0.8c0,1.5,0,2.4,0,2.7c0,0.3-0.1,0.4-0.3,0.5
	C278.2,44.8,277.8,44.8,277,44.8z M277,37.6c-0.8,0-1.3,0-1.4-0.1c-0.1-0.1-0.2-0.2-0.3-0.5c0-0.3,0-1.1,0-2.5c0-0.2,0-0.4,0-0.6
	c0-0.8,0-1.4,0-1.6c0-0.3,0.2-0.5,0.3-0.6c0.1,0,0.4-0.1,0.9-0.1c0.2,0,0.3,0,0.4,0c0.1,0,0.2,0,0.4,0c0.5,0,0.8,0,0.9,0.1
	c0.2,0.1,0.3,0.3,0.3,0.6c0,0.2,0,0.8,0,1.6c0,0.3,0,0.5,0,0.6c0,1.4,0,2.2,0,2.5c0,0.3-0.1,0.4-0.2,0.5
	C278.3,37.5,277.9,37.6,277,37.6z M283.7,37.5c-0.1,0.1-0.5,0.1-1.3,0.1c-0.8,0-1.2-0.1-1.3-0.1c-0.1-0.1-0.2-0.2-0.3-0.5
	c0-0.2,0-1,0-2.4c0-0.2,0-0.4,0-0.7c0-0.9,0-1.4,0-1.7c0-0.3,0.1-0.5,0.3-0.6c0.1-0.1,0.4-0.1,0.9-0.1c0.2,0,0.3,0,0.4,0
	s0.2,0,0.4,0c0.5,0,0.8,0,0.9,0.1c0.2,0.1,0.3,0.3,0.3,0.6c0,0.2,0,0.8,0,1.7c0,0.3,0,0.5,0,0.7c0,1.4,0,2.2,0,2.4
	C283.9,37.2,283.9,37.4,283.7,37.5z M287.9,37.5c-0.8,0-1.3,0-1.4-0.1c-0.1-0.1-0.2-0.2-0.3-0.5c0-0.2,0-1,0-2.4c0-0.2,0-0.4,0-0.8
	c0-0.8,0-1.4,0-1.6c0-0.3,0.1-0.5,0.3-0.6c0.1-0.1,0.4-0.1,0.9-0.1c0.2,0,0.3,0,0.4,0s0.2,0,0.4,0c0.5,0,0.8,0,0.9,0.1
	c0.2,0.1,0.3,0.3,0.3,0.6c0,0.2,0,0.7,0,1.6c0,0.3,0,0.5,0,0.7c0,1.4,0,2.2,0,2.5c0,0.3-0.1,0.4-0.2,0.5
	C289.2,37.5,288.7,37.5,287.9,37.5z M36,71.5c0.2,0,0.6,0,1-0.1c0.4-0.1,0.7-0.2,0.9-0.4c0-0.1,0.1-0.5,0-1.4c0-0.2,0-0.5,0-0.8
	c0-1.1,0-1.8,0-2.1c0-0.4,0.2-0.6,0.5-0.7c0.2-0.1,0.7-0.1,1.5-0.1c0.2,0,0.4,0,0.6,0c1,0,1.7,0,2-0.1c0.4-0.1,0.5-0.2,0.3-0.5
	c-0.1-0.2-0.5-0.6-1.1-1.2c0,0,0,0-0.1-0.1c-0.5-0.4-0.8-0.6-0.9-0.6c-0.1,0-0.4,0.3-0.7,0.7c0,0,0,0.1,0,0.1
	c-0.3,0.4-0.5,0.7-0.6,0.8c-0.1,0.1-0.3,0.1-0.6,0.1c-0.4,0-0.6-0.1-0.7-0.2c-0.1-0.1-0.1-0.5-0.1-1.1c0-0.5,0-0.8,0-1
	c0-0.2,0.1-0.3,0.3-0.5c0.2-0.2,0.2-0.3,0-0.4c-0.1-0.1-0.6-0.3-1.3-0.5c-0.4-0.1-0.6-0.2-0.7-0.3s-0.1-0.2,0-0.4
	c0.1-0.2,0.4-0.4,1-0.4c0.5,0,1,0,1.5,0.1c0.5,0.1,0.7,0.3,0.7,0.6c0,0.3,0.4,0.4,1.1,0.1c0.5-0.2,0.9-0.3,1-0.5
	c0.1-0.1,0.1-0.5,0.1-1.1c0-1-0.1-2.2-0.1-3.5c0-0.1,0-0.3,0-0.5c0-1.2,0-2,0-2.2c0-0.2,0.2-0.4,0.4-0.5l0,0
	c0.3-0.2,0.4-0.3,0.4-0.4c0-0.1-0.1-0.3-0.4-0.6l0,0c-0.6-0.6-1.1-1-1.4-1.1c-0.1,0-0.4,0.1-0.7,0.6c0,0,0,0-0.1,0.1
	c-0.2,0.3-0.4,0.5-0.6,0.5c-0.1,0-0.6,0.1-1.3,0.1c-0.1,0-0.1,0-0.1,0c-0.8,0-1.3,0-1.5-0.1c-0.2-0.1-0.2-0.2,0-0.4
	c0-0.1,0.3-0.3,0.7-0.7c0.4-0.4,0.7-0.6,0.8-0.7c0.3-0.2,0.3-0.3,0.1-0.4c-0.2-0.1-0.9-0.3-1.8-0.5c-0.1,0-0.1,0-0.2,0
	c-0.4-0.1-0.7-0.1-0.7-0.1c-0.1,0-0.1,0.2-0.1,0.5c0,0.1,0,0.1,0,0.2c0,0.9-0.1,1.6-0.3,1.9c-0.2,0.4-0.5,0.5-1,0.5
	c-0.4,0-1.1-0.2-2-0.6c-0.1,0-0.2-0.1-0.3-0.1c-0.4-0.2-0.6-0.2-0.7-0.2c0,0-0.1,0.2,0,0.6c0,0.1,0,0.2,0,0.2
	c0.1,1.3,0.2,2.2,0.2,2.8c0,0.6-0.1,1-0.2,1.1c-0.1,0.1-0.4-0.1-0.7-0.4c0,0-0.1-0.1-0.1-0.1c-0.2-0.2-0.3-0.3-0.4-0.3
	c0,0-0.1,0-0.1,0.1c0,0,0,0.1,0,0.1c-0.1,0.3-0.3,0.4-0.5,0.3c-0.2,0-0.3-0.9-0.3-2.4c0-1.6,0.2-2.5,0.4-2.6
	c0.2-0.2,0.2-0.3-0.1-0.5c-0.2-0.1-0.8-0.3-1.7-0.6c-0.4-0.1-0.6-0.2-0.7-0.1c0,0-0.1,0.1,0,0.3c0.1,0.8,0.2,2,0.2,3.6
	c0,1.7,0,2.6,0,2.8c-0.1,0.2-0.3,0.3-0.8,0.3c-0.4,0-0.7,0-0.9-0.1c-0.3-0.2-0.4-1-0.3-2.6c0-1.6,0.2-2.4,0.5-2.6
	c0.4-0.3-0.2-0.7-2-1.1c-0.3-0.1-0.4-0.1-0.5,0c0,0,0,0.2,0,0.5c0.1,0.7,0.1,1.4,0.2,2.3c0,0.9,0,2.9,0,5.9c0,4,0,6.3-0.1,6.8
	c-0.2,2-0.5,3.7-0.9,5c0,0,0,0.1-0.1,0.2c-0.1,0.3-0.1,0.4-0.1,0.5c0,0.1,0,0.1,0,0.2c0.1,0.1,0.2,0.1,0.3,0
	c0.1-0.1,0.3-0.4,0.6-0.8c0.6-1,1.1-2,1.4-3.2c0.3-1.2,0.5-2.6,0.6-4.2c0-0.8,0.1-1.2,0.2-1.3c0.1-0.1,0.5-0.2,1.1-0.2
	c0.4,0,0.6,0,0.8,0.1c0.1,0,0.2,0.1,0.3,0.3c0.1,0.1,0.1,1.1,0.1,2.8c0,1.7-0.1,3.3-0.1,4.8c0,0.7-0.1,1.2-0.1,1.3
	c0,0.1,0.1,0.2,0.2,0.3c0.3,0.3,0.8,0.2,1.5-0.2c0,0,0,0,0.1,0c0.3-0.1,0.4-0.3,0.5-0.4c0-0.1,0.1-0.6,0-1.2c0-0.1,0-0.1,0-0.2
	c-0.1-2.6-0.1-4.4-0.1-5.5c0.1-1.1,0.2-1.7,0.5-1.7c0.2,0,0.3-0.1,0.4-0.2c0-0.2,0-0.3-0.2-0.5c-0.6-0.6-1-1-1.3-1.1
	c-0.3-0.1-0.6-0.1-0.8,0.2c-0.3,0.4-0.6,0.6-0.7,0.7c-0.1,0.1-0.4,0.1-0.9,0.1c-0.4,0-0.7,0-0.8-0.1c-0.2-0.1-0.3-0.2-0.3-0.5
	c0-0.2,0-0.6,0-1.3c0,0,0-0.1,0-0.1c0-0.1,0-0.3,0-0.4c0-0.5,0-0.8,0.1-0.9c0.1-0.2,0.3-0.3,0.6-0.3c0.2,0,0.8,0,1.7,0
	c0.3,0,0.6,0,0.8,0c0.2,0,0.4,0,0.7,0c0.9,0,1.5,0,1.8,0.1c0.3,0.1,0.5,0.3,0.6,0.6c0,0.2,0,0.8,0,1.7c0,0.3,0,0.5,0,0.7
	c0,0.7,0,1.2,0,1.3c0,0.1,0.1,0.2,0.1,0.3c0.2,0.2,0.6,0.2,1.1,0c0.6-0.2,0.9-0.4,0.9-0.6c0-0.2,0.1-0.4,0.4-0.5
	c0.3-0.1,0.6-0.1,0.8,0c0.4,0.2,0.3,0.7-0.4,1.5c-0.7,0.8-1.5,1.6-2.6,2.2c-0.2,0.1-0.4,0.2-0.4,0.3c0,0,0,0.1,0,0.2
	c0.1,0.1,0,0.1-0.2,0.2c-0.2,0-0.4,0.1-0.7,0h0c-0.2,0-0.3,0-0.4,0c0,0,0,0.2,0.1,0.4c0,0,0,0.1,0,0.1c0,0,0,0.1,0,0.1
	c0.1,0.2,0.2,0.4,0.3,0.4c0.1,0,0.3,0,0.6,0c0,0,0.1,0,0.1,0c0.8-0.1,1.8-0.2,3-0.2c1.2,0,1.9,0,2.1,0c0.2,0.1,0.3,0.5,0.3,1.2
	c0,0.7,0,1.9-0.1,3.6C35.6,71.2,35.7,71.4,36,71.5z M33.6,65.1c-1.2,0-1.9,0-2.1-0.1c-0.5-0.1-0.5-0.3,0-0.6c1.2-0.5,2.3-1.1,3.3-2
	c0.4-0.4,0.7-0.5,0.7-0.4c0.1,0.1,0.2,0.6,0.2,1.4c0,0.7,0,1.1,0,1.2c0,0.2-0.1,0.3-0.3,0.4C35.4,65.1,34.7,65.1,33.6,65.1z
	 M34.4,59.7c-0.1,0.1-0.4,0.1-0.8,0.1s-0.6-0.1-0.7-0.1c-0.2-0.1-0.3-0.5-0.3-1.3c0-0.8,0-1.3,0.1-1.5c0.1-0.2,0.4-0.3,0.9-0.3
	c0.5-0.1,0.8,0,1.1,0.1c0.3,0.1,0.4,0.6,0.3,1.5C34.9,59.1,34.7,59.6,34.4,59.7z M38,59.8c-0.7,0-1.1,0-1.2-0.1s-0.1-0.4,0-0.9
	c0.1-0.4,0.1-0.8,0.1-1.1c0-0.5,0.1-0.8,0.2-0.9c0.1-0.1,0.5-0.2,1-0.2c0.6,0,1,0.1,1.1,0.2c0.1,0.1,0.2,0.6,0.2,1.3
	c0,0.6,0,1,0,1.2c0,0.2-0.1,0.3-0.2,0.4c-0.1,0.1-0.2,0.1-0.3,0.1C38.7,59.8,38.5,59.8,38,59.8z M34.7,55.9
	c-0.1,0.1-0.4,0.1-0.9,0.1c-0.5,0-0.8,0-0.9-0.1c-0.2-0.1-0.3-0.6-0.3-1.4s0.1-1.3,0.3-1.4c0.1-0.1,0.5-0.1,1-0.1
	c0.5,0,0.8,0.1,1,0.2c0.2,0.2,0.2,0.6,0.2,1.4C35,55.3,34.9,55.7,34.7,55.9z M38.2,55.9c-0.5,0-0.8,0-0.9-0.1
	c-0.2-0.1-0.3-0.6-0.3-1.5s0.1-1.3,0.3-1.4c0.1-0.1,0.4-0.1,1-0.1c0.5,0,0.8,0.1,0.9,0.1c0.2,0.1,0.3,0.6,0.3,1.4s-0.1,1.3-0.3,1.4
	C39,55.9,38.7,55.9,38.2,55.9z M59.4,63.7c1.1,0.1,2-0.2,2.8-1c0.8-0.8,1.1-1.7,1-2.8c-0.1-0.9-0.5-1.6-1.2-2.2
	c-0.6-0.5-1.4-0.8-2.2-0.8c-0.9,0-1.6,0.3-2.3,0.9c-0.7,0.6-1,1.4-1.1,2.3c0,0.8,0.2,1.6,0.7,2.3C57.8,63.2,58.5,63.6,59.4,63.7z
	 M60.7,62.7c-0.8,0.3-1.6,0.2-2.3-0.3s-1.1-1.2-1.1-2.1c0-0.7,0.2-1.3,0.7-1.8c0.5-0.5,1.1-0.7,1.7-0.7c0.7,0,1.3,0.2,1.8,0.7
	c0.7,0.6,0.9,1.4,0.7,2.3C62.1,61.8,61.6,62.4,60.7,62.7z"/>
</svg>
