<svg xmlns="http://www.w3.org/2000/svg" viewBox="0 0 421.08 52.45"><defs><style>.cls-1{fill:#b13234;}</style></defs><title>資產 133</title><g id="圖層_2" data-name="圖層 2"><g id="圖層_3" data-name="圖層 3"><path class="cls-1" d="M11.53,4.53V0h4.36V16.71H11.53V10.45a33.07,33.07,0,0,1-10.66,7A7.4,7.4,0,0,0,0,12.88,19.26,19.26,0,0,0,11.53,9.23v-3H.87V4.53ZM24.37,30.64v1.74H10.88v10.1H6.53V17.76h4.35v1.39H26.55V17.76H30.9V38c0,2.21-2,3.83-6.09,4.88a2.27,2.27,0,0,0-1.74-.7l-2.83.7-.44-.35c4.79-1.39,7-2.79,6.75-4.18V20.89H10.88v4.18H24.37v1.74H10.88v3.83ZM25,16.36q-4.37.18-4.14-3.48V0h4.35V7.66l7.84-5.57,1.74,1.39L25.24,9.4v3.31c0,.58.44.87,1.31.87h5.66A1.7,1.7,0,0,0,34,12.53l1.74-6.61h.87l-.44,5.57H37v2.09c-.14,2-1.38,2.9-3.69,2.78Z"/><path class="cls-1" d="M65.94,14.45H61.59V.52h4.35V1.57H84.65v-1H89V14.8H84.65V12.71H72.9a44.9,44.9,0,0,1,5.22,2.44,11,11,0,0,1-1.74,2.09H93.79V19H56.36V17.24H75.08c-.44-.7-1-1.75-1.74-3.14a6.62,6.62,0,0,1-.87-1.39H65.94ZM56.36,42q6.09-4.18,6.53-10.1h5q-.66,4.7-9.8,10.1Zm9.58-12.89v1.4H61.59V20.37h4.35v1H84.22v-1h4.35V30.81H84.22V29.07h-7v9.75q.44,3.48-6.74,4.53c0-.58-.51-.76-1.53-.52L66.59,43l-.22-.7q7.62-.69,6.53-3.48V29.07Zm0-18.1H84.65V3.31H65.94V6.09h17V7.83h-17Zm0,16.36H84.22V23.15H65.94ZM88.13,42.65a58.15,58.15,0,0,1-7-11.66H82a95.91,95.91,0,0,1,9.79,7.83A10.53,10.53,0,0,1,88.13,42.65Z"/><path class="cls-1" d="M125.78,3.13l.44.18-7.84,10.27a6.35,6.35,0,0,1,1.74,1.57c-.72,1.27-1.23,2.14-1.52,2.61H123v1.39h15.24V17.58h4.57V34.82h-4.57V33.43H123v1.39h-4.57V18.11c-.14,0-.29.11-.43.34l-.66.53a36.21,36.21,0,0,1-4.78-9.75l.43-.35,2,1.57a22.61,22.61,0,0,1,1.74,1.74ZM124,34.64h6.53q-2.83,5.05-15.45,8.71h-2.61Q123,39.35,124,34.64ZM114.68.35l.44-.18C118,2.26,120,3.72,121,4.53A11.2,11.2,0,0,1,118.38,8,45.35,45.35,0,0,1,114.68.35ZM123,21.07v2.08h13.28V24.9H123v2.43h13.28v1.74H123v2.61h15.24V21.07ZM147.33,20q-8.49-3.66-10.45-10.62-2.17,4.35-11.75,8.88h-1.74q8.27-4.35,9.14-12h5.66a2.32,2.32,0,0,1-.44,1,5,5,0,0,1-.43,1.22q2.16,4.53,11.09,5.75A6,6,0,0,0,147.33,20ZM128,0h5.44a12.72,12.72,0,0,1-1.53,3.31H142.1V1.57h4.36V8.18q-2.19-2.25-4.36,1.57V5.05H130.79a39.78,39.78,0,0,1-5.88,6.09h-1.3A14.07,14.07,0,0,0,128,0Zm3.7,34.3V34q10.44,3.82,11.53,4.52a8.64,8.64,0,0,1-1.09,4.88Q139.06,41.09,131.66,34.3Z"/><path class="cls-1" d="M176.49,0h4.13V10.27l5.66-7.83,1.74,1-7.4,9.75v1h5.22V16h-5.22v1a10.91,10.91,0,0,1,1.09,1.05c3.48,3,5.15,4.64,5,4.87a14.11,14.11,0,0,1-2.17,3.83q-2.4-4.69-3.92-8.36V42.83h-4.13V24a41.51,41.51,0,0,1-6.75,10.1H168q6.74-9.22,7.4-18.1h-6.1V14.28h7.19ZM175.4,9.05a11.12,11.12,0,0,1-2.18,3.48,79.7,79.7,0,0,1-3-9.92l.21-.17A44.88,44.88,0,0,1,175.4,9.05ZM196.72,28.2l-13.05,1.74V28.2l13.05-1.74V0h4.14V25.77l5.44-.7v1.74l-5.44.7V42.83h-4.14Zm-8.48-13a48.77,48.77,0,0,1,6.31,5.22q-1.31,3.31-2.4,4A68.61,68.61,0,0,1,188,15.15Zm7.4-4.18a19.89,19.89,0,0,1-2.83,3.13,63.58,63.58,0,0,1-3.92-9.4h.22A38.73,38.73,0,0,1,195.64,11Z"/><path class="cls-1" d="M223.91,17.66h9.85a13.43,13.43,0,0,1,3.58.46,9.16,9.16,0,0,1,2.8,1.29,6.14,6.14,0,0,1,1.82,2A5.2,5.2,0,0,1,242.6,24a7.66,7.66,0,0,1-.21,1.88,4.43,4.43,0,0,1-.72,1.54,6,6,0,0,1-1.36,1.35A15.61,15.61,0,0,1,238.15,30v.07a8.7,8.7,0,0,1,2.36.75,5.94,5.94,0,0,1,1.8,1.33A5.87,5.87,0,0,1,243.47,34a6.68,6.68,0,0,1,.4,2.34,6.17,6.17,0,0,1-.61,2.73,6.34,6.34,0,0,1-1.72,2.21,8.2,8.2,0,0,1-2.69,1.48,11.14,11.14,0,0,1-3.53.53H223.91ZM228,29.22h5.23a6.2,6.2,0,0,0,2.19-.37,4.59,4.59,0,0,0,1.63-1,4.28,4.28,0,0,0,1-1.53,5.31,5.31,0,0,0,.34-1.94,5,5,0,0,0-.4-2,3.93,3.93,0,0,0-1.27-1.58,6.06,6.06,0,0,0-2.17-1,12.14,12.14,0,0,0-3.16-.35H228Zm0,12.23h4.44a11.92,11.92,0,0,0,3.11-.36,6.42,6.42,0,0,0,2.17-1A4,4,0,0,0,239,38.53a4.87,4.87,0,0,0,.41-2,6.66,6.66,0,0,0-.37-2.26,4.39,4.39,0,0,0-1.21-1.82,6.12,6.12,0,0,0-2.19-1.21,11,11,0,0,0-3.32-.44H228Z"/><path class="cls-1" d="M260.82,43.33h-3.75V40.62c-.45.36-.88.72-1.31,1.09a10.08,10.08,0,0,1-1.39,1,7.1,7.1,0,0,1-1.65.75,6.94,6.94,0,0,1-2.09.29,5.09,5.09,0,0,1-2-.38,4.46,4.46,0,0,1-1.53-1,4.61,4.61,0,0,1-1-1.57,5.62,5.62,0,0,1-.33-2,5.35,5.35,0,0,1,.48-2.3,6.19,6.19,0,0,1,1.32-1.83,9.13,9.13,0,0,1,2-1.44,19,19,0,0,1,2.36-1.12c.83-.33,1.68-.63,2.57-.89s1.74-.49,2.59-.72V29.29a8.72,8.72,0,0,0-.26-2.28,3.89,3.89,0,0,0-.73-1.5,2.68,2.68,0,0,0-1.15-.82,4.47,4.47,0,0,0-1.51-.25,4,4,0,0,0-1.55.26,2.41,2.41,0,0,0-.94.68,2.35,2.35,0,0,0-.46,1,5.09,5.09,0,0,0-.13,1.1,6.41,6.41,0,0,1-.07,1,2.6,2.6,0,0,1-.29.84,1.67,1.67,0,0,1-.57.58,1.72,1.72,0,0,1-.92.22,1.88,1.88,0,0,1-.8-.17,2,2,0,0,1-.63-.49,2.29,2.29,0,0,1-.4-.74,3,3,0,0,1,.47-2.74,5.38,5.38,0,0,1,1.65-1.47,9.28,9.28,0,0,1,2.43-1,11.49,11.49,0,0,1,2.91-.36,11.28,11.28,0,0,1,3.14.38,5.61,5.61,0,0,1,2.07,1.06,3.88,3.88,0,0,1,1.14,1.66,6.2,6.2,0,0,1,.35,2.16ZM257.07,31.8c-.54.18-1.1.39-1.68.62s-1.15.5-1.7.79a13.85,13.85,0,0,0-1.59.94,8.52,8.52,0,0,0-1.33,1.07,5.12,5.12,0,0,0-.9,1.22,2.93,2.93,0,0,0-.33,1.35,3.78,3.78,0,0,0,.25,1.37,3.92,3.92,0,0,0,.68,1.14,3.12,3.12,0,0,0,1,.77,2.37,2.37,0,0,0,1.15.29,4,4,0,0,0,1.2-.18,5.92,5.92,0,0,0,1.11-.46A9.31,9.31,0,0,0,256,40c.36-.26.72-.54,1.1-.83Z"/><path class="cls-1" d="M273.83,43.76a8,8,0,0,1-3.47-.77,8.94,8.94,0,0,1-2.82-2.09,9.7,9.7,0,0,1-1.9-3.11A10.57,10.57,0,0,1,265,34a11.58,11.58,0,0,1,.76-4.22,11.16,11.16,0,0,1,2.1-3.45,10,10,0,0,1,3.1-2.32,8.85,8.85,0,0,1,3.81-.85,11.17,11.17,0,0,1,2.92.36,8.07,8.07,0,0,1,2.3,1,4.88,4.88,0,0,1,1.5,1.5,3.39,3.39,0,0,1,.55,1.86,1.65,1.65,0,0,1-.22.84,2.53,2.53,0,0,1-.57.69,2.56,2.56,0,0,1-.8.47,2.41,2.41,0,0,1-.9.18,2.11,2.11,0,0,1-.92-.2,2.46,2.46,0,0,1-.69-.49,2.24,2.24,0,0,1-.44-.7,2.13,2.13,0,0,1-.15-.79,5.29,5.29,0,0,0-.14-1.28,2.53,2.53,0,0,0-.49-1,2.23,2.23,0,0,0-1-.68,4.13,4.13,0,0,0-1.57-.25,4.85,4.85,0,0,0-2.3.54,5.27,5.27,0,0,0-1.72,1.47,6.82,6.82,0,0,0-1.07,2.16,9.48,9.48,0,0,0-.37,2.65,13.13,13.13,0,0,0,.48,3.59,10.35,10.35,0,0,0,1.33,3,7,7,0,0,0,2.07,2,5.13,5.13,0,0,0,2.71.74,5.55,5.55,0,0,0,2.28-.43,5.35,5.35,0,0,0,1.67-1.17,7.15,7.15,0,0,0,1.22-1.71,18.53,18.53,0,0,0,.92-2.07l1.12.48a14.5,14.5,0,0,1-1.28,3.34,9.67,9.67,0,0,1-1.91,2.48,7.52,7.52,0,0,1-2.47,1.55A8.15,8.15,0,0,1,273.83,43.76Z"/><path class="cls-1" d="M289.73,31.52l9.46-8h2.44l-8.44,7.19,10.44,12.6H298.7l-9-10.83V43.33H286V14.53l2.67-1.13h1.07Z"/><path class="cls-1" d="M323.22,24.57v1.64h-3.58a7.16,7.16,0,0,1,.89,1.82,6.35,6.35,0,0,1,.33,2,6,6,0,0,1-.65,2.81,6.56,6.56,0,0,1-1.8,2.17,8.51,8.51,0,0,1-2.77,1.41,12,12,0,0,1-3.53.5,8.14,8.14,0,0,1-1.45-.13,9.44,9.44,0,0,1-1.29-.31,4.07,4.07,0,0,0-.91,1.07,2.29,2.29,0,0,0-.37,1.23,1.11,1.11,0,0,0,.62,1,3.71,3.71,0,0,0,1.75.4l7,.32a11.29,11.29,0,0,1,2.78.41,5.17,5.17,0,0,1,1.79.9,3.08,3.08,0,0,1,.93,1.36,5.4,5.4,0,0,1,.28,1.75,6.42,6.42,0,0,1-.77,3.13,6.79,6.79,0,0,1-2.21,2.39,11.14,11.14,0,0,1-3.52,1.52,18.6,18.6,0,0,1-4.68.53,16.83,16.83,0,0,1-7-1.1c-1.54-.74-2.31-1.72-2.31-2.93a3.41,3.41,0,0,1,.39-1.57,7,7,0,0,1,1-1.44,12,12,0,0,1,1.34-1.33c.49-.43,1-.83,1.46-1.23a5.74,5.74,0,0,1-1-.4,3.68,3.68,0,0,1-.77-.55,2.7,2.7,0,0,1-.52-.66,1.73,1.73,0,0,1-.19-.78,2.93,2.93,0,0,1,.3-1.25,5.12,5.12,0,0,1,.82-1.22,7.48,7.48,0,0,1,1.22-1.08,7.13,7.13,0,0,1,1.49-.8,7.13,7.13,0,0,1-3-2.37,5.94,5.94,0,0,1-1.07-3.49,6.28,6.28,0,0,1,.64-2.76,7.27,7.27,0,0,1,1.76-2.26,8.23,8.23,0,0,1,2.63-1.53,9.2,9.2,0,0,1,3.26-.57,11.73,11.73,0,0,1,1.67.12,12.87,12.87,0,0,1,1.53.32A8,8,0,0,1,317,24a3.19,3.19,0,0,1,.86.55Zm-15.13,18.6a4.26,4.26,0,0,0-.74.73,5.16,5.16,0,0,0-.54.86,5.45,5.45,0,0,0-.33.9,3.33,3.33,0,0,0-.11.86,2.15,2.15,0,0,0,.44,1.27,3.81,3.81,0,0,0,1.34,1.07,8.73,8.73,0,0,0,2.22.74,15.75,15.75,0,0,0,3.1.27,16.49,16.49,0,0,0,3.38-.31,10.34,10.34,0,0,0,2.52-.83A4.93,4.93,0,0,0,321,47.58a2,2,0,0,0,.55-1.28,2,2,0,0,0-1.26-1.94,8.09,8.09,0,0,0-3.43-.6c-.9,0-1.81,0-2.74-.07s-1.78-.09-2.59-.16-1.5-.12-2.1-.19S308.34,43.22,308.09,43.17Zm4.67-7.28a3.32,3.32,0,0,0,1.52-.38,4.18,4.18,0,0,0,1.3-1,5.26,5.26,0,0,0,.9-1.55,5.38,5.38,0,0,0,.33-1.9,9.32,9.32,0,0,0-.38-2.7,7.45,7.45,0,0,0-1-2.16,5.18,5.18,0,0,0-1.51-1.45,3.49,3.49,0,0,0-1.83-.53,3.1,3.1,0,0,0-1.64.42,3.42,3.42,0,0,0-1.14,1.13,5.29,5.29,0,0,0-.66,1.7,10,10,0,0,0-.21,2.1,9.58,9.58,0,0,0,.32,2.51,6.84,6.84,0,0,0,.88,2A4.51,4.51,0,0,0,311,35.4,3.37,3.37,0,0,0,312.76,35.89Z"/><path class="cls-1" d="M326.73,23.54h3.72v3.74a16.54,16.54,0,0,1,1.17-1.58,9.77,9.77,0,0,1,1.32-1.33,6.2,6.2,0,0,1,1.41-.9,3.44,3.44,0,0,1,1.48-.34,3.25,3.25,0,0,1,1.14.2,3.32,3.32,0,0,1,.93.51,2.5,2.5,0,0,1,.62.76,2,2,0,0,1,.23.91,1.81,1.81,0,0,1-.57,1.45,2.4,2.4,0,0,1-1.59.49,3.06,3.06,0,0,1-1-.14,4.78,4.78,0,0,1-.68-.31,6.23,6.23,0,0,0-.63-.32,2,2,0,0,0-.79-.14,1.45,1.45,0,0,0-.74.23,3.42,3.42,0,0,0-.76.65,9.59,9.59,0,0,0-.76,1c-.26.37-.52.78-.77,1.22V43.33h-3.72Z"/><path class="cls-1" d="M349.91,43.76a9.91,9.91,0,0,1-4-.8,9.57,9.57,0,0,1-3.16-2.15,9.7,9.7,0,0,1-2.07-3.2,10.25,10.25,0,0,1-.75-3.92,11.2,11.2,0,0,1,.75-4.11,10.1,10.1,0,0,1,2.07-3.36A9.86,9.86,0,0,1,345.92,24a9.6,9.6,0,0,1,4-.83,10.37,10.37,0,0,1,4,.76A9.69,9.69,0,0,1,357,26a9.45,9.45,0,0,1,2.08,3.1,9.82,9.82,0,0,1,.74,3.8,12.06,12.06,0,0,1-.74,4.23A10.8,10.8,0,0,1,357,40.56a9.82,9.82,0,0,1-3.15,2.34A9.27,9.27,0,0,1,349.91,43.76Zm.7-1.46a3.63,3.63,0,0,0,2-.6,5.67,5.67,0,0,0,1.6-1.6,8,8,0,0,0,1-2.35,10.53,10.53,0,0,0,.37-2.84,22.24,22.24,0,0,0-.35-4,11.06,11.06,0,0,0-1.14-3.27,6.15,6.15,0,0,0-2.06-2.2,5.69,5.69,0,0,0-3.1-.8,3.34,3.34,0,0,0-1.83.57,5.52,5.52,0,0,0-1.55,1.57,8.42,8.42,0,0,0-1.08,2.32,9.56,9.56,0,0,0-.4,2.82,18,18,0,0,0,.43,4,12,12,0,0,0,1.27,3.31,6.85,6.85,0,0,0,2,2.23A4.75,4.75,0,0,0,350.61,42.3Z"/><path class="cls-1" d="M367.2,23.54V37.62a3.18,3.18,0,0,0,.32,1.39,3.49,3.49,0,0,0,.89,1.13,4.36,4.36,0,0,0,1.31.77,4.6,4.6,0,0,0,1.62.28,3.36,3.36,0,0,0,1.19-.24,5.51,5.51,0,0,0,1.24-.7,7.72,7.72,0,0,0,1.14-1A6.15,6.15,0,0,0,375.8,38V23.54h3.74V43.33H375.8v-3.7a8,8,0,0,1-1.24,1.6A10.56,10.56,0,0,1,373,42.55a8.32,8.32,0,0,1-1.8.88,5.13,5.13,0,0,1-1.74.33,5.71,5.71,0,0,1-2.32-.49A6.18,6.18,0,0,1,365.2,42,5.94,5.94,0,0,1,363.93,40a6,6,0,0,1-.47-2.39V23.54Z"/><path class="cls-1" d="M383.92,23.54h3.74v3.61a12.75,12.75,0,0,1,3.55-3,7.77,7.77,0,0,1,3.75-1,3.82,3.82,0,0,1,1.85.47,4.9,4.9,0,0,1,1.51,1.29,6.28,6.28,0,0,1,1,1.9,7.16,7.16,0,0,1,.38,2.33V43.33H396V29.79a4.57,4.57,0,0,0-.84-3,2.66,2.66,0,0,0-2.16-1,4.13,4.13,0,0,0-1.26.2,6.54,6.54,0,0,0-1.35.58,10.07,10.07,0,0,0-1.37.9,12,12,0,0,0-1.32,1.17V43.33h-3.74Z"/><path class="cls-1" d="M417.36,41.4a9.32,9.32,0,0,1-1.41,1,9.79,9.79,0,0,1-1.57.74,10.68,10.68,0,0,1-1.65.47,8.26,8.26,0,0,1-1.62.17A6.31,6.31,0,0,1,408,43a8.62,8.62,0,0,1-2.52-2.2,11,11,0,0,1-1.71-3.2,12,12,0,0,1-.62-3.86A10,10,0,0,1,403.5,31a11.92,11.92,0,0,1,1-2.48,10.94,10.94,0,0,1,1.55-2.16,10.34,10.34,0,0,1,2-1.73,9.68,9.68,0,0,1,2.36-1.13,8.45,8.45,0,0,1,2.62-.41,5.37,5.37,0,0,1,2.4.51A7.73,7.73,0,0,1,417.36,25V14.53L420,13.4h1.11V43.76h-3.72Zm0-11.58a5.35,5.35,0,0,0-1.49-3.77A4.87,4.87,0,0,0,414.36,25a4,4,0,0,0-3.8.21,5.65,5.65,0,0,0-1.71,1.64,8.67,8.67,0,0,0-1.15,2.51,11.67,11.67,0,0,0-.42,3.22,13,13,0,0,0,.47,3.53A10.06,10.06,0,0,0,409,39a6.61,6.61,0,0,0,1.89,1.94,4.16,4.16,0,0,0,2.31.71,4.37,4.37,0,0,0,1.18-.17,6.06,6.06,0,0,0,1.12-.44,6.17,6.17,0,0,0,1-.64,6.24,6.24,0,0,0,.83-.78Z"/></g></g></svg>