<svg xmlns="http://www.w3.org/2000/svg" viewBox="0 0 96.78 97"><defs><style>.cls-1{fill:#b13234;}.cls-2{fill:#d6d2c7;}</style></defs><title>資產 138</title><g id="圖層_2" data-name="圖層 2"><g id="圖層_3" data-name="圖層 3"><path class="cls-1" d="M15,141.37a3.13,3.13,0,0,1-.13-.42,1.92,1.92,0,0,0-.45-1,2.15,2.15,0,0,0-1-.54c-.25-.07-.39-.13-.4-.19a.15.15,0,0,1,.11-.16,4.16,4.16,0,0,1,.66,0l.33,0a2.89,2.89,0,0,0,1.06,0,.84.84,0,0,0,.39-.71c0-.26,0-.91,0-1.94v-.66c0-1.38,0-2.19,0-2.43s-.07-.39-.18-.43-.36.05-.75.27a3.21,3.21,0,0,0-.81.61.21.21,0,0,0,0,.07c-.21.26-.34.37-.42.32a3.79,3.79,0,0,1-.42-.94,1.89,1.89,0,0,1-.06-.21l-.09-.23a4.55,4.55,0,0,1-.29-.87c0-.1.11-.17.33-.23a.26.26,0,0,1,.11,0,6.42,6.42,0,0,0,2.56-1,8,8,0,0,0,.11-1.69,9.16,9.16,0,0,0-.07-1.79c-.06-.22-.26-.35-.61-.4a3.81,3.81,0,0,0-1.37.16l-.07,0a.61.61,0,0,1-.38,0,1.13,1.13,0,0,1-.25-.39s0-.08,0-.09a.21.21,0,0,1,0-.07c-.11-.22-.14-.34-.11-.37s.18,0,.46,0h.09a13.49,13.49,0,0,0,1.68.08c.32,0,.52-.12.61-.28a5.84,5.84,0,0,0,.09-1.61c0-.94-.09-1.83-.18-2.66v-.07c0-.31,0-.48,0-.52s.21,0,.51.06l.06,0a10.3,10.3,0,0,1,1.74.56q.4.21.09.45a.74.74,0,0,0-.28.46,10.5,10.5,0,0,0-.07,1.31,5.85,5.85,0,0,0,.14,2c.11.17.36,0,.74-.57.26-.39.46-.57.58-.57s.41.24.85.7.84,1,.76,1.11-.58.22-1.51.25h-.24a2.34,2.34,0,0,0-1.16.19c-.11.11-.16.5-.16,1.18v.24a10.32,10.32,0,0,0,0,1.26.37.37,0,0,0,.4.33,7,7,0,0,0,1-.31q.79-.28.87-.21c.06.05,0,.11,0,.19a6.91,6.91,0,0,1-.66.5l-.57.4a2.85,2.85,0,0,0-.77.62,1.76,1.76,0,0,0-.27.92c0,.31,0,1,0,2.07v1.54c0,2.06,0,3.29,0,3.68a2.29,2.29,0,0,1-.15.88,2,2,0,0,1-1.72,1.11.5.5,0,0,0-.15,0l-.22,0A.14.14,0,0,1,15,141.37Zm4-.23a6.41,6.41,0,0,1,.64-.67,11.91,11.91,0,0,0,2.63-3.92,12.28,12.28,0,0,0,1-4.65c0-.72-.6-.88-1.81-.46-.11,0-.2,0-.25,0a3,3,0,0,1-.3-.51.89.89,0,0,1-.16-.39c0-.05.07-.07.19-.05a38,38,0,0,0,4.2.13h.62a20,20,0,0,0,2.31,0,1.28,1.28,0,0,0,.71-.44.71.71,0,0,0,.15-.16c.28-.29.53-.42.76-.37a2.4,2.4,0,0,1,1,.7,3.71,3.71,0,0,1,.6.73c0,.12,0,.23-.23.33a.89.89,0,0,0-.46.4,4.73,4.73,0,0,0-.13,1.14A40.91,40.91,0,0,1,30,138a5,5,0,0,1-1,2.51,2.84,2.84,0,0,1-1.91.79.89.89,0,0,1-.41,0c-.05,0-.08-.12-.08-.26,0-.8-.53-1.35-1.6-1.68-.3-.07-.45-.15-.47-.24s0-.14.15-.14.43,0,1,0a3.58,3.58,0,0,0,1.71-.11,1.84,1.84,0,0,0,.78-1.34c.11-.57.23-1.7.35-3.39a4.57,4.57,0,0,1,0-.47c.06-.91.08-1.49.07-1.74a.72.72,0,0,0-.33-.64,3.82,3.82,0,0,0-1-.08h-.55a2.58,2.58,0,0,0-1,.14c-.12.08-.22.38-.29.89,0,.12,0,.21,0,.27a12.52,12.52,0,0,1-1.83,5.05,12.2,12.2,0,0,1-3.88,3.6,1.4,1.4,0,0,1-.33.17s-.09,0-.14-.09S19,141.16,19,141.14Zm.4-10.17c-.11-.06-.08-.2.06-.42a1.11,1.11,0,0,0,.18-.46,1.21,1.21,0,0,1,.37-.57A7.29,7.29,0,0,0,21.36,127a14.15,14.15,0,0,0,.8-3.42c0-.19,0-.3.09-.32a.79.79,0,0,1,.37.08l1,.37a5.23,5.23,0,0,0,.64.22c.67.21.81.4.41.58a1.33,1.33,0,0,0-.66.83,14.37,14.37,0,0,1-2.57,4.06,5.43,5.43,0,0,0-.55.64l-.05,0a1.07,1.07,0,0,1-.42.35l-.53.35C19.66,131,19.5,131,19.41,131Zm11.36-1.21a9.72,9.72,0,0,1-1.92-3,8.78,8.78,0,0,1-1-3.35c0-.29-.34-.47-1-.55a11,11,0,0,0-2.75.18L24,123a1.07,1.07,0,0,1-.5,0c-.07,0-.16-.15-.27-.37a.24.24,0,0,0-.05-.09c-.15-.26-.2-.41-.16-.45s.22,0,.56,0a16.43,16.43,0,0,0,2.86.08,1.7,1.7,0,0,0,1.24-.54.33.33,0,0,1,.08-.11,2.54,2.54,0,0,1,.23-.36.1.1,0,0,1,.13,0l.84.6.79.57c.1.13-.14.28-.71.44-.29.07-.47.17-.53.3a.78.78,0,0,0,.09.6A8.52,8.52,0,0,0,30.1,126a9,9,0,0,0,2.24,1.82c.28.16.43.27.46.34s0,.15-.24.27a2.88,2.88,0,0,0-.76.62,2.71,2.71,0,0,0-.54.77c-.06.13-.11.19-.16.19A1.38,1.38,0,0,1,30.77,129.76Z"/><path class="cls-1" d="M41.65,141.37a.76.76,0,0,1-.26-.18.36.36,0,0,1-.13-.24q0-.24.06-1.08c.08-1.17.13-3,.16-5.46a35,35,0,0,0,0-3.92c-.06-.18-.15-.23-.28-.17a3.46,3.46,0,0,0-.69.63,9,9,0,0,1-1.41,1.39c-.14,0-.21-.05-.19-.16a2.9,2.9,0,0,1,.37-.72,29.85,29.85,0,0,0,2.46-5.18A23.76,23.76,0,0,0,43,121.11c0-.15.08-.22.15-.22a5.15,5.15,0,0,1,.75.24,11.94,11.94,0,0,1,1.74.7c.23.15.23.27,0,.38a.78.78,0,0,0-.33.3,8.07,8.07,0,0,0-.42.91c-.37.91-.8,1.87-1.3,2.88l0,0a3.4,3.4,0,0,0-.42,1c0,.13.12.31.35.55a2.26,2.26,0,0,1,.37.43.21.21,0,0,1-.06.23.8.8,0,0,0-.35.46c0,.12,0,1.68,0,4.67s0,4.9.06,5.75c0,.63,0,1,0,1.12a.34.34,0,0,1-.15.27,2.22,2.22,0,0,1-.87.46A1.56,1.56,0,0,1,41.65,141.37Zm4.14-.44a.4.4,0,0,1-.19-.29,8.06,8.06,0,0,1,0-1.08c.1-1.72.15-4.26.13-7.62,0-2,0-3.29,0-3.92a14.47,14.47,0,0,0-.17-1.8c0-.2,0-.3.07-.31a2.33,2.33,0,0,1,.66.13,10.2,10.2,0,0,1,1.67.56c.22.13.24.27.05.43l-.09.07a.88.88,0,0,0-.23.65c0,.33,0,1.43-.06,3.31v3.24c0,1.47,0,2.4,0,2.8a1.7,1.7,0,0,0,.28,1,1.35,1.35,0,0,0,.77.11l.49,0,.53,0a1.09,1.09,0,0,0,.75-.11,2.35,2.35,0,0,0,.26-1.23c0-.47,0-1.6,0-3.37V131.1q0-4.86,0-6.36c0-.91-.06-1.76-.13-2.53,0,0,0-.11,0-.2,0-.34,0-.53,0-.56s.22,0,.53,0a.64.64,0,0,1,.15,0,8,8,0,0,1,1.73.55c.23.13.25.28,0,.46l-.06.06a.53.53,0,0,0-.18.38,16.36,16.36,0,0,0-.09,1.67v11.59c0,.82,0,1.34.07,1.56s.07.26.15.29l0,0a4.81,4.81,0,0,0,1.32.07,5.5,5.5,0,0,0,1.3-.07l0,0c.1-.06.17-.26.19-.61s0-1.51,0-3.51v-1.12c0-2.37,0-3.9,0-4.61s-.08-1.27-.16-1.89v-.07q0-.35,0-.39s.2,0,.48.06a.18.18,0,0,0,.09,0,10.61,10.61,0,0,1,1.82.59c.3.15.34.3.14.43l-.07,0c-.12.09-.18.31-.21.66s0,1.54,0,3.57v.95c0,3.11,0,5.2.07,6.25v.27a9.36,9.36,0,0,1,0,1.2.6.6,0,0,1-.3.36l-.09.05a2,2,0,0,1-1.34.4q-.47-.12-.42-.87c0-.06,0-.14,0-.24,0-.31,0-.51-.09-.59s-.38-.19-.83-.22-1.09,0-2.29,0h-1.9q-1.7,0-2.16,0a1.33,1.33,0,0,0-.79.17.65.65,0,0,0-.13.49v.22a4.39,4.39,0,0,1,0,.54.41.41,0,0,1-.13.21,1.93,1.93,0,0,1-.88.46A1.18,1.18,0,0,1,45.79,140.93Z"/><path class="cls-1" d="M68.94,141.28c0-.06-.19-.39-.44-1a7.52,7.52,0,0,1-.37-1c0-.05.21-.09.64-.12a5,5,0,0,0,1.48-.23c.16-.1.21-.35.15-.76a4.06,4.06,0,0,0-.33-1.35.72.72,0,0,0-.66-.37h0c-.12,0-.19-.07-.22-.21a12.56,12.56,0,0,1-.06-1.44v-.38c0-.51,0-1.14,0-1.87v-.26c0-.28.17-.28.65,0a4,4,0,0,0,1.1.49,11.45,11.45,0,0,0,1.67.1h.15a8,8,0,0,0,1.63-.09,1.46,1.46,0,0,0,.64-.64q.19-.3.15-.39c0-.08-.25-.12-.61-.13s-.94,0-1.92,0c-1.19,0-1.93,0-2.24,0a1.75,1.75,0,0,0-.76.24c-.13.08-.23.09-.3.05a.54.54,0,0,0-.16-.09s-.07-.05-.13-.13c-.21-.42-.36-.56-.46-.45a2.88,2.88,0,0,0-.24,1.26,27.49,27.49,0,0,1-.73,4.73,12.61,12.61,0,0,1-1.43,3.4c-.17.26-.27.42-.31.47a.17.17,0,0,1-.18,0,.16.16,0,0,1-.11-.16,3.53,3.53,0,0,1,.11-.56,29.44,29.44,0,0,0,1-6.92c0-.82,0-2.49,0-5s0-4-.08-4.2v0c0-.22,0-.33,0-.33a4.1,4.1,0,0,1,.77.29l0,0a9.59,9.59,0,0,0,1.18.46,3.32,3.32,0,0,0,.83.07h.09c.55,0,.88-.06,1-.19a3.07,3.07,0,0,0,.11-1.2,19.44,19.44,0,0,0-.16-2.2c0-.19,0-.29,0-.31a2.14,2.14,0,0,1,.5.09c1.59.38,2.21.7,1.87.95s-.41.49-.28.73.42.37.88.37a1.57,1.57,0,0,0,.73-.12,3.38,3.38,0,0,0,.63-.7c.27-.34.45-.51.54-.53s.3.1.61.33c1,.78,1.37,1.27,1,1.48s-.3.25-.27.35a2.85,2.85,0,0,0,.57.71,3.64,3.64,0,0,1,.68.82c0,.13-.07.22-.32.28a2.29,2.29,0,0,0-.93.57,10.17,10.17,0,0,1-.89.74.55.55,0,0,1-.42.12.29.29,0,0,0-.3.11.71.71,0,0,1-.37.21c-.16,0-.58.08-1.26.14a9,9,0,0,0-1.23.16.46.46,0,0,0-.29.4.4.4,0,0,0,.29.37,7.13,7.13,0,0,0,1.3.06,6.89,6.89,0,0,0,1.3-.06,1.12,1.12,0,0,0,.57-.6.67.67,0,0,1,.21-.32c.07,0,.11,0,.12.17a1.87,1.87,0,0,0,.07.44,1.52,1.52,0,0,0,.26.33,1,1,0,0,1,.3.51.69.69,0,0,1-.21.46.64.64,0,0,0-.2.35.55.55,0,0,0,.2.33,10.09,10.09,0,0,1,.85.85.4.4,0,0,1,.08.32c-.05.13-.31.22-.78.26s-.64.09-.67.17.15.3.52.65a2.4,2.4,0,0,1,.57.67c0,.12,0,.23-.2.32a.69.69,0,0,0-.38.41,3.64,3.64,0,0,0,0,1v.18a1.94,1.94,0,0,1,0,.65c0,.08-.17.17-.4.27,0,0-.08,0-.09.05-.47.23-.55.44-.22.61s.23.25,0,.4a2.17,2.17,0,0,0-.58.55,1.28,1.28,0,0,0-.33.6c0,.14.1.22.28.23a11.25,11.25,0,0,0,1.35-.15c.58-.08.92-.13,1-.13s.15.05.15.13-2,.89-6,2.1a6.14,6.14,0,0,0-1.83.72C69.15,141.3,69,141.37,68.94,141.28ZM68.5,131c0-.05.06-.08.18-.08l1.17.06c.89.06,1.88.08,3,.05a6.38,6.38,0,0,0,1.77-.16c.47-.36.6-.61.4-.75a4.89,4.89,0,0,0-1.85-.19,16.4,16.4,0,0,1-1.81-.07,1.1,1.1,0,0,1-.75-.29,1.48,1.48,0,0,1-.19-.77,1.07,1.07,0,0,0-.21-.7,1.09,1.09,0,0,0-.72-.07l-.18,0a1.78,1.78,0,0,1-.49,0s-.11-.07-.17-.17-.08-.29,0-.32a2.09,2.09,0,0,1,.62-.1,2.16,2.16,0,0,0,1-.22,1.27,1.27,0,0,0,.22-.77c0-.47,0-.75-.14-.85s-.4-.14-.9-.14a1.63,1.63,0,0,0-.91.15c-.11.1-.17.39-.17.86a2.53,2.53,0,0,0,.16,1.08.44.44,0,0,1,0,.44,5.38,5.38,0,0,0-.12,1.42,5.11,5.11,0,0,0,.1,1.44C68.49,131.1,68.53,131.14,68.5,131Zm4.25,7.69a.79.79,0,0,0,.48-.57,6.7,6.7,0,0,0,.16-1.61c0-.2,0-.32,0-.35s0,0,.1,0a1.33,1.33,0,0,0,.81-.09c.15-.1.07-.21-.26-.31a11.69,11.69,0,0,0-1.56-.09,7.69,7.69,0,0,0-1.52.07c-.26.1-.39.25-.37.45s.16.4.46.61a1.62,1.62,0,0,1,.81,1.41C71.87,138.7,72.17,138.87,72.75,138.68Zm-.19-3.63a6.43,6.43,0,0,0,1.65-.13.75.75,0,0,0,.26-.65.67.67,0,0,0-.26-.63,5.44,5.44,0,0,0-1.64-.13,6.05,6.05,0,0,0-1.67.08.83.83,0,0,0-.27.69.66.66,0,0,0,.27.66A6.06,6.06,0,0,0,72.56,135.05Zm.22-8.06a1,1,0,0,0,.28-.29c0-.06.12-.16.22-.31a.42.42,0,0,1,.07-.11c.12-.17.24-.25.37-.23a2.37,2.37,0,0,1,.75.41,3.36,3.36,0,0,0,.55.31c.08,0,.15-.06.22-.2a1.11,1.11,0,0,0,.1-.61c0-.23-.09-.37-.21-.43a13.79,13.79,0,0,0-1.67-.06c-1,0-1.64,0-1.78,0q-.59.13.15.57a.94.94,0,0,1,.33.25s0,.14-.09.26-.14.32.06.44A.6.6,0,0,0,72.78,127ZM74,124.85a3.56,3.56,0,0,0,1.38-.15,1.41,1.41,0,0,0,.48-.53c.09-.21.08-.34,0-.4a6.42,6.42,0,0,0-1.54-.11,6.42,6.42,0,0,0-1.54.07.52.52,0,0,0-.28.46.56.56,0,0,0,.17.53A3,3,0,0,0,74,124.85Zm10.24,16.56-.07,0c-1-.23-2-1.18-3-2.84l-.09-.15c-.31-.53-.54-.8-.68-.8s-.45.25-.95.75l-.16.16a22.52,22.52,0,0,1-1.89,1.68q-1,.83-1.23.78c-.14,0-.17-.09-.1-.2a7.77,7.77,0,0,1,.74-.79,17.83,17.83,0,0,0,2.57-3.21,3.43,3.43,0,0,0,.42-.87,2.58,2.58,0,0,0-.18-1,32,32,0,0,1-1-5.18,2.56,2.56,0,0,0-.28-1.16c-.12-.11-.44-.12-1,0l-.16,0a1.47,1.47,0,0,1-.45,0s-.1-.07-.16-.17-.08-.26,0-.3a3,3,0,0,1,.69-.14,1.84,1.84,0,0,0,1-.33,2.05,2.05,0,0,0,.09-1.08q0-.64-.09-3c0-1.57,0-2.38,0-2.42s.14-.08.33-.07a12.94,12.94,0,0,1,1.86.27q.35.11.06.39a.92.92,0,0,0-.33.55,19.71,19.71,0,0,0,0,2c0,1.19,0,1.94,0,2.24s.11.72.24.82a1.31,1.31,0,0,0,.71,0,2.72,2.72,0,0,0,.82-.24,2.53,2.53,0,0,0,.54-.75,2.51,2.51,0,0,0,.31-.67.46.46,0,0,0-.18-.37.75.75,0,0,1-.22-.33,4.14,4.14,0,0,0-.49-1.2,8.37,8.37,0,0,0-.85-1.24c-.19-.22-.26-.36-.21-.41s.24,0,.56.05a4.06,4.06,0,0,1,2.33,1.35,1.18,1.18,0,0,1,0,1.69c-.17.17-.22.3-.18.41s.22.26.53.45a5,5,0,0,1,.94.66.35.35,0,0,1,.09.44c0,.08-.19.14-.44.2a18.76,18.76,0,0,1-1.91.33l-.49.07c-.76.12-1.24.2-1.43.26a.71.71,0,0,0-.51.4,3.32,3.32,0,0,0,0,.86c0,.1,0,.18,0,.24a14.86,14.86,0,0,0,.49,2.92c.17.45.37.42.61-.08a10,10,0,0,0,.45-1.45,14.42,14.42,0,0,0,.34-1.76v-.09c0-.22.08-.34.14-.35a2.1,2.1,0,0,1,.68.17l.19.07a7,7,0,0,1,1.38.58c.2.14.18.25-.05.32a.64.64,0,0,0-.36.29,6.71,6.71,0,0,0-.37.86,25.32,25.32,0,0,1-1.65,3.52,2,2,0,0,0-.34,1.13,4,4,0,0,0,.67,1.38,3.92,3.92,0,0,0,.86,1.06c.23.13.44,0,.64-.27a8,8,0,0,0,.72-1.71c.12-.38.22-.58.31-.58s.09.08.08.25-.06.58-.15,1.25c-.11,1-.17,1.58-.17,1.83a2.16,2.16,0,0,0,.2.86,2.43,2.43,0,0,1,.25,1.2c0,.24-.26.4-.63.47h0A1.08,1.08,0,0,1,84.21,141.41Z"/><circle class="cls-1" cx="48.39" cy="48.39" r="48.39"/><path class="cls-2" d="M31.92,70.06a7.91,7.91,0,0,1-5.24-1.42l1-1.4a6.26,6.26,0,0,0,8.73-1.52l1.39,1A7.92,7.92,0,0,1,32.63,70C32.39,70,32.16,70,31.92,70.06Z"/><path class="cls-2" d="M39.66,63.79h-.93l-.16-.43A22.21,22.21,0,0,1,59.31,33.18h.93l.16.43A22.2,22.2,0,0,1,39.66,63.79ZM59.28,34.56a20.8,20.8,0,0,0-17,8.85h0a20.82,20.82,0,0,0-2.57,19A20.82,20.82,0,0,0,59.28,34.56Z"/><path class="cls-2" d="M36.23,62.67l-1-.53-.46-.23-.32-.19c-.62-.36-1.11-.67-1.57-1l-.24-.16c-.5-.36-1-.76-1.57-1.22L30.68,59c-.49-.43-.95-.87-1.37-1.32L29,57.4c-.44-.48-.82-.93-1.16-1.37l-.14-.17c-.38-.49-.74-1-1.13-1.62l-.18-.3a19.91,19.91,0,0,1-1-1.76,22.89,22.89,0,0,1-2.24-12.73c.08-.69.19-1.35.34-2.07l.1-.41c.11-.49.24-.94.37-1.38l0-.17c0-.1,0-.19.08-.28l0-.1c.2-.6.42-1.18.68-1.81l.15-.35c.25-.57.55-1.16.87-1.74l.16-.3c.41-.7.76-1.26,1.12-1.78l.1-.13c.4-.56.79-1.06,1.21-1.55l.24-.29c.31-.36.65-.69,1-1l.34-.34.49.15a22.65,22.65,0,0,1,7.05,5.2c.31.34.61.68.89,1a22.52,22.52,0,0,1,3.63,6.3l.15.41-.3.31c-.21.22-.42.44-.62.67l-.28.33c-.51.6-.91,1.11-1.27,1.62s-.72,1.08-1.1,1.75l-.21.37c-.32.57-.61,1.16-.87,1.75L37.4,46c-.25.61-.46,1.17-.65,1.73l-.14.44c-.16.51-.3,1.06-.44,1.67l-.12.57a22.54,22.54,0,0,0,.14,9.43l.24.94L36,61l0,0,.46-.13.1.34ZM24.77,35.34l.65.21a1.46,1.46,0,0,0-.05.2l-.06.23c-.13.41-.24.83-.34,1.25l-.1.43c-.14.68-.25,1.3-.32,1.91A21.41,21.41,0,0,0,26.62,51.5c.29.6.6,1.15.95,1.73l.14.22c.4.62.74,1.12,1.09,1.57l.13.17c.32.41.68.83,1.09,1.28l.28.3c.4.42.83.83,1.29,1.24l.29.25c.57.48,1.05.85,1.52,1.19l.22.14c.4.28.83.55,1.3.83,0-.1,0-.2-.07-.3a23.86,23.86,0,0,1-.15-10l.11-.53c.17-.73.32-1.31.49-1.86l.12-.39c.22-.67.45-1.27.72-1.9l.16-.39c.28-.62.59-1.25.92-1.85l.22-.39c.41-.71.79-1.32,1.17-1.86s.81-1.09,1.35-1.72l.29-.35.36-.39A21.24,21.24,0,0,0,37.37,33c-.27-.33-.55-.65-.84-1a21.19,21.19,0,0,0-6.19-4.67c-.23.23-.44.44-.64.67l-.22.27c-.39.46-.76.93-1.09,1.4l-.14.18c-.34.49-.67,1-1,1.61L27,31.8c-.3.55-.57,1.11-.81,1.65l-.14.32c-.25.59-.46,1.14-.63,1.67Z"/><path class="cls-2" d="M56.84,72.57a22.25,22.25,0,0,1-2.57-.14h-.09a19.92,19.92,0,0,1-2-.33L51.93,72c-.77-.17-1.39-.34-2-.52l-.13-.05c-.62-.21-1.17-.41-1.75-.66l-.41-.17c-.56-.25-1.13-.53-1.7-.85l-.41-.22c-.63-.37-1.18-.71-1.68-1.06l-.23-.17c-.46-.33-.92-.7-1.41-1.11l-.34-.28c-.13-.11-.25-.23-.38-.36l-.84-.8L41.92,65l.44,0c.36,0,.68,0,1-.09a22.6,22.6,0,0,0,8.92-3l.5-.31c.53-.34,1-.66,1.42-1l.37-.28c.46-.36.93-.77,1.4-1.19l.3-.28c.46-.44.91-.91,1.35-1.4l.27-.33a18.83,18.83,0,0,0,1.27-1.62c.36-.51.72-1.08,1.1-1.75l.21-.37c.15-.27.29-.54.43-.82l.19-.38h.44a22.77,22.77,0,0,1,7.15,1.28c.43.15.86.32,1.28.49a22.62,22.62,0,0,1,7.28,4.88l.34.34-.21.44c-.21.46-.43.91-.67,1.35l-.18.31c-.32.57-.67,1.11-1,1.61l-.14.2c-.37.52-.78,1-1.25,1.6l-.26.31c-.45.5-.9,1-1.36,1.41l-.27.25c-.5.46-1,.86-1.45,1.24l-.52-.47.42.55-.25.17-.14.09c-.37.28-.75.54-1.14.8l-.38.25c-.63.38-1.22.71-1.81,1A22.78,22.78,0,0,1,56.84,72.57ZM43.22,66.26c.44.37.83.67,1.22.95l.21.15c.48.33,1,.66,1.59,1,.12.08.25.15.38.22.54.29,1.07.56,1.6.79l.38.16c.55.24,1.07.43,1.57.6l.12,0c.63.2,1.22.36,1.87.5l.32.08c.66.13,1.28.23,1.87.3a21.47,21.47,0,0,0,12-2.07c.58-.28,1.13-.59,1.72-1l.38-.25c.35-.23.71-.48,1.06-.74l.19-.13.16-.11.52.46-.42-.54c.45-.35.89-.73,1.36-1.16l.26-.24A17.78,17.78,0,0,0,72.82,64l.2-.23c.5-.59.88-1.08,1.23-1.57l.12-.18c.33-.48.65-1,1-1.51l.17-.3c.15-.27.29-.55.42-.83a21.41,21.41,0,0,0-6.5-4.24c-.39-.16-.79-.32-1.19-.46a21.61,21.61,0,0,0-6.3-1.19c-.08.16-.16.32-.25.48l-.22.39c-.41.7-.79,1.31-1.17,1.85s-.83,1.11-1.35,1.73l-.29.34c-.46.52-.94,1-1.43,1.49l-.32.29c-.49.45-1,.88-1.48,1.26l-.39.3c-.46.35-1,.68-1.51,1L53,63a23.78,23.78,0,0,1-9.46,3.23Z"/><path class="cls-2" d="M62.88,29.5c-6.73-4.74-15.15-8-17.5-4.63-1.49,2.12.48,5.36,2.14,7.48.43-.24.87-.46,1.31-.66-1.34-1.68-3.3-4.57-2.3-6,1.32-1.87,7.43-.2,13.62,3.72l.31.19c.52.33,1,.67,1.61,1.06s1.06.78,1.56,1.17l.26.21c5.78,4.5,9.42,9.69,8.11,11.55-1,1.45-4.33.61-6.43-.12,0,.48-.1,1-.18,1.45,2.55.85,6.27,1.6,7.76-.51,1.33-1.88-.08-4.65-1.5-6.64A37.85,37.85,0,0,0,62.88,29.5Z"/></g></g></svg>