<svg xmlns="http://www.w3.org/2000/svg" viewBox="0 0 324.61 16.33"><defs><style>.cls-1{fill:#375a77;}</style></defs><title>資產 135</title><g id="圖層_2" data-name="圖層 2"><g id="圖層_3" data-name="圖層 3"><polygon class="cls-1" points="6.54 12.52 0 12.52 3.27 6.86 6.54 1.19 9.8 6.86 13.07 12.52 6.54 12.52"/><path class="cls-1" d="M29.87,12.77a5.87,5.87,0,0,1-1.52-.2A5.79,5.79,0,0,1,27,12a5.56,5.56,0,0,1-2-2,6.07,6.07,0,0,1-.56-1.36,5.73,5.73,0,0,1-.2-1.51,5.62,5.62,0,0,1,.2-1.48A6,6,0,0,1,25,4.28a5.26,5.26,0,0,1,.87-1.12A5.94,5.94,0,0,1,27,2.29a5.74,5.74,0,0,1,1.35-.56,5.88,5.88,0,0,1,3,0,5.61,5.61,0,0,1,2.49,1.43,5.26,5.26,0,0,1,.87,1.12,5.52,5.52,0,0,1,.56,1.32,5.62,5.62,0,0,1,.2,1.48,5.85,5.85,0,0,1-.2,1.51A5.64,5.64,0,0,1,34.75,10a5.71,5.71,0,0,1-.87,1.15,5.15,5.15,0,0,1-1.14.89,5.45,5.45,0,0,1-1.35.58A5.81,5.81,0,0,1,29.87,12.77Zm0-.54a3.15,3.15,0,0,0,1.55-.38,3.33,3.33,0,0,0,1.13-1.08,5.05,5.05,0,0,0,.7-1.63,8.26,8.26,0,0,0,.24-2.06,8,8,0,0,0-.24-2,5,5,0,0,0-.7-1.59,3.18,3.18,0,0,0-1.13-1,3.47,3.47,0,0,0-3.12,0,3.21,3.21,0,0,0-1.14,1,5,5,0,0,0-.68,1.59,8,8,0,0,0-.23,2,8.28,8.28,0,0,0,.23,2.06,5,5,0,0,0,.68,1.63,3.36,3.36,0,0,0,1.14,1.08A3.17,3.17,0,0,0,29.87,12.23Z"/><path class="cls-1" d="M37.64,1.78h3.23a5.5,5.5,0,0,1,1.5.2,3.76,3.76,0,0,1,1.22.6,2.84,2.84,0,0,1,.82,1,2.74,2.74,0,0,1,.3,1.3A2.63,2.63,0,0,1,43.66,7a3.42,3.42,0,0,1-1.08.54,4.62,4.62,0,0,1-1.23.17,5.43,5.43,0,0,1-.56,0l-.56,0c-.18,0-.35,0-.5-.06a2.38,2.38,0,0,1-.38-.07v5H37.64Zm1.71,5.16.62.17a3.14,3.14,0,0,0,.68.07,2.45,2.45,0,0,0,1-.17,2.14,2.14,0,0,0,.69-.48,2,2,0,0,0,.41-.71A2.71,2.71,0,0,0,42.86,5a2.64,2.64,0,0,0-.18-1,2.41,2.41,0,0,0-.48-.75,2.28,2.28,0,0,0-1.63-.65H39.35Z"/><path class="cls-1" d="M49.07,8.18v1H45.31v-1Z"/><path class="cls-1" d="M53.73,12.52V3.43H52V3a2.72,2.72,0,0,0,1.5-.39,2.49,2.49,0,0,0,.87-1.06h.8v11Z"/><path class="cls-1" d="M63.42,4.24H65V5.79a6,6,0,0,1,.67-.66,9.13,9.13,0,0,1,.78-.54,4.22,4.22,0,0,1,.81-.38A2.41,2.41,0,0,1,68,4.07a2,2,0,0,1,.71.13,2.53,2.53,0,0,1,.66.37,2.27,2.27,0,0,1,.52.55,1.66,1.66,0,0,1,.29.7,2.61,2.61,0,0,1,.54-.68,3.82,3.82,0,0,1,.76-.56,4.55,4.55,0,0,1,.88-.37,3.25,3.25,0,0,1,.91-.14,1.74,1.74,0,0,1,.84.21,2.3,2.3,0,0,1,.69.56,2.61,2.61,0,0,1,.46.82,3.06,3.06,0,0,1,.17,1v5.85H73.87V6.91a1.76,1.76,0,0,0-.12-.66,1.72,1.72,0,0,0-.3-.55A1.44,1.44,0,0,0,73,5.33a1,1,0,0,0-.54-.14,2.5,2.5,0,0,0-.66.09,3.45,3.45,0,0,0-.63.25,2.81,2.81,0,0,0-.55.38,2.09,2.09,0,0,0-.4.46v6.15H68.66V6.91a1.76,1.76,0,0,0-.12-.66,1.74,1.74,0,0,0-.31-.55,1.44,1.44,0,0,0-.45-.37,1.1,1.1,0,0,0-.55-.14,2.27,2.27,0,0,0-.62.09,3.7,3.7,0,0,0-.62.26,3.14,3.14,0,0,0-.57.38,2.27,2.27,0,0,0-.43.45v6.15H63.42Z"/><path class="cls-1" d="M78.73,4.24v5.89a1.29,1.29,0,0,0,.13.58,1.54,1.54,0,0,0,.37.47,1.77,1.77,0,0,0,.55.32,1.91,1.91,0,0,0,.68.12,1.35,1.35,0,0,0,.5-.1,2.38,2.38,0,0,0,.51-.29A3.22,3.22,0,0,0,82,10.8a2.35,2.35,0,0,0,.37-.52v-6h1.57v8.28H82.32V11a3.19,3.19,0,0,1-.52.67,3.92,3.92,0,0,1-.67.55,3.27,3.27,0,0,1-.75.37,2.21,2.21,0,0,1-.73.13,2.31,2.31,0,0,1-1-.2,2.61,2.61,0,0,1-.79-.55,2.47,2.47,0,0,1-.53-.81,2.62,2.62,0,0,1-.2-1V4.24Z"/><path class="cls-1" d="M88.24,12.12a1.63,1.63,0,0,0,.59-.1,1.65,1.65,0,0,0,.47-.27,1.27,1.27,0,0,0,.3-.4.93.93,0,0,0,.11-.45,1.21,1.21,0,0,0-.18-.66,2.05,2.05,0,0,0-.47-.51,4.09,4.09,0,0,0-.68-.41l-.78-.38c-.26-.13-.52-.28-.77-.43A3.5,3.5,0,0,1,86.15,8a2.38,2.38,0,0,1-.48-.69,2.16,2.16,0,0,1-.18-.92,2,2,0,0,1,.21-.92,2.24,2.24,0,0,1,.55-.74,2.81,2.81,0,0,1,.85-.48,3.51,3.51,0,0,1,1.09-.17,4.23,4.23,0,0,1,.73.06,2.39,2.39,0,0,1,.67.22,3,3,0,0,1,.66.47,5.57,5.57,0,0,1,.67.78l-.57.54a3.59,3.59,0,0,0-1-1.15,2.07,2.07,0,0,0-1.19-.37,1.93,1.93,0,0,0-.6.09,1.34,1.34,0,0,0-.48.23,1.14,1.14,0,0,0-.31.35,1,1,0,0,0-.11.43,1.11,1.11,0,0,0,.2.65,2.08,2.08,0,0,0,.52.5,5.58,5.58,0,0,0,.73.41l.85.38.84.42a4.07,4.07,0,0,1,.74.52,2.72,2.72,0,0,1,.52.69,2,2,0,0,1,.2.91,2.67,2.67,0,0,1-.19,1,2.2,2.2,0,0,1-.56.79,2.64,2.64,0,0,1-1,.53,4.08,4.08,0,0,1-1.32.19,5.78,5.78,0,0,1-.71,0,2.94,2.94,0,0,1-.73-.23,3.37,3.37,0,0,1-.75-.46,4.71,4.71,0,0,1-.72-.79l.64-.61a6.72,6.72,0,0,0,.55.72,3.38,3.38,0,0,0,.53.49,1.92,1.92,0,0,0,.56.27A2.08,2.08,0,0,0,88.24,12.12Z"/><path class="cls-1" d="M93.67,0A.84.84,0,0,1,94,.07a.88.88,0,0,1,.28.17.82.82,0,0,1,.2.26.71.71,0,0,1,.07.32.68.68,0,0,1-.07.32.86.86,0,0,1-.2.27.88.88,0,0,1-.28.17.84.84,0,0,1-.35.07.77.77,0,0,1-.34-.07A.92.92,0,0,1,93,1.41a1,1,0,0,1-.19-.27.69.69,0,0,1-.08-.32A.72.72,0,0,1,92.85.5,1,1,0,0,1,93,.24a.92.92,0,0,1,.29-.17A.77.77,0,0,1,93.67,0Zm-.76,4.54L94,4.07h.45v8.45H92.91Z"/><path class="cls-1" d="M99.72,12.69a3.24,3.24,0,0,1-1.45-.32,3.62,3.62,0,0,1-1.18-.87,4.3,4.3,0,0,1-.8-1.3A4.46,4.46,0,0,1,96,8.6a4.87,4.87,0,0,1,.32-1.76A4.76,4.76,0,0,1,97.2,5.4a4.13,4.13,0,0,1,1.3-1,3.73,3.73,0,0,1,1.59-.35,4.69,4.69,0,0,1,1.22.15,3.24,3.24,0,0,1,1,.42,2,2,0,0,1,.63.62,1.39,1.39,0,0,1,.23.78.7.7,0,0,1-.09.35,1,1,0,0,1-.24.29,1.38,1.38,0,0,1-.33.2,1,1,0,0,1-.38.07.92.92,0,0,1-.38-.08.78.78,0,0,1-.29-.21,1,1,0,0,1-.19-.29.88.88,0,0,1-.06-.33,2.2,2.2,0,0,0-.06-.53,1,1,0,0,0-.2-.43,1,1,0,0,0-.41-.29,1.71,1.71,0,0,0-.65-.1,2,2,0,0,0-1,.22,2.25,2.25,0,0,0-.72.62,2.72,2.72,0,0,0-.45.9,4,4,0,0,0-.15,1.11,5.23,5.23,0,0,0,.2,1.5,4.13,4.13,0,0,0,.55,1.24,2.82,2.82,0,0,0,.87.85,2.18,2.18,0,0,0,1.13.31,2.27,2.27,0,0,0,1-.18,2.37,2.37,0,0,0,.71-.49,3.87,3.87,0,0,0,.51-.72c.14-.27.26-.56.38-.86l.47.2a6,6,0,0,1-.54,1.39,3.84,3.84,0,0,1-.8,1,3.27,3.27,0,0,1-1,.65A3.39,3.39,0,0,1,99.72,12.69Z"/><path class="cls-1" d="M111.73,12.12a1.63,1.63,0,0,0,.59-.1,1.65,1.65,0,0,0,.47-.27,1.27,1.27,0,0,0,.3-.4,1.06,1.06,0,0,0,.11-.45,1.21,1.21,0,0,0-.18-.66,1.92,1.92,0,0,0-.48-.51,3.62,3.62,0,0,0-.67-.41l-.78-.38c-.26-.13-.52-.28-.77-.43a3.22,3.22,0,0,1-.68-.52,2.38,2.38,0,0,1-.48-.69,2.16,2.16,0,0,1-.18-.92,2.17,2.17,0,0,1,.2-.92,2.27,2.27,0,0,1,.56-.74,2.81,2.81,0,0,1,.85-.48,3.4,3.4,0,0,1,1.08-.17,4.35,4.35,0,0,1,.74.06,2.39,2.39,0,0,1,.67.22,2.73,2.73,0,0,1,.65.47,5,5,0,0,1,.68.78l-.57.54a3.59,3.59,0,0,0-1-1.15,2.09,2.09,0,0,0-1.19-.37,2,2,0,0,0-.61.09,1.38,1.38,0,0,0-.47.23,1,1,0,0,0-.31.35.84.84,0,0,0-.11.43,1,1,0,0,0,.2.65,2.08,2.08,0,0,0,.52.5,5,5,0,0,0,.73.41l.85.38.84.42a4,4,0,0,1,.73.52,2.32,2.32,0,0,1,.52.69,1.88,1.88,0,0,1,.2.91,2.67,2.67,0,0,1-.18,1A2.22,2.22,0,0,1,114,12a2.59,2.59,0,0,1-.94.53,4.08,4.08,0,0,1-1.32.19,5.78,5.78,0,0,1-.71,0,3.14,3.14,0,0,1-.74-.23,3.56,3.56,0,0,1-.74-.46,4,4,0,0,1-.72-.79l.64-.61a6.72,6.72,0,0,0,.55.72,3,3,0,0,0,.53.49,1.92,1.92,0,0,0,.56.27A2.08,2.08,0,0,0,111.73,12.12Z"/><path class="cls-1" d="M120.52,11.46a2.43,2.43,0,0,1-.84.9,2.34,2.34,0,0,1-1.28.33,1.49,1.49,0,0,1-.69-.14,1.29,1.29,0,0,1-.48-.39,1.63,1.63,0,0,1-.28-.61,3.15,3.15,0,0,1-.09-.78V4.93h-1.37V4.52a2.12,2.12,0,0,0,1.09-.25,2.13,2.13,0,0,0,.7-.67,3.63,3.63,0,0,0,.42-1c.1-.37.19-.77.27-1.19h.45V4.24h1.77v.69h-1.77v5.84a.77.77,0,0,0,.07.34.75.75,0,0,0,.18.28.66.66,0,0,0,.27.19.72.72,0,0,0,.33.07.86.86,0,0,0,.48-.13,1.37,1.37,0,0,0,.38-.34Z"/><path class="cls-1" d="M127.27,12.52H125.7V11.38l-.55.46a4.94,4.94,0,0,1-.57.42,3,3,0,0,1-.7.31,2.86,2.86,0,0,1-.87.12,2.24,2.24,0,0,1-.84-.15,2.08,2.08,0,0,1-.64-.44,1.83,1.83,0,0,1-.4-.66,2.38,2.38,0,0,1-.14-.81,2.26,2.26,0,0,1,.2-1,2.78,2.78,0,0,1,.55-.77,4,4,0,0,1,.82-.6,9.85,9.85,0,0,1,1-.47c.35-.14.71-.26,1.08-.37l1.08-.3V6.64a3.31,3.31,0,0,0-.11-.95,1.68,1.68,0,0,0-.3-.63,1.09,1.09,0,0,0-.48-.34,1.83,1.83,0,0,0-.64-.1,1.69,1.69,0,0,0-.64.1,1,1,0,0,0-.59.69,2.49,2.49,0,0,0,0,.46,2.77,2.77,0,0,1,0,.42,1.6,1.6,0,0,1-.12.35.69.69,0,0,1-.24.24.75.75,0,0,1-.39.09.72.72,0,0,1-.33-.07.86.86,0,0,1-.26-.2.85.85,0,0,1-.17-.31,1.23,1.23,0,0,1-.06-.39,1.29,1.29,0,0,1,.26-.76,2.17,2.17,0,0,1,.69-.61,3.88,3.88,0,0,1,1-.41,4.85,4.85,0,0,1,1.22-.15,4.51,4.51,0,0,1,1.31.16,2.23,2.23,0,0,1,.87.44,1.55,1.55,0,0,1,.47.69,2.67,2.67,0,0,1,.15.91ZM125.7,7.69,125,8c-.24.1-.48.21-.71.33a7.33,7.33,0,0,0-.67.39,4.31,4.31,0,0,0-.55.46,1.79,1.79,0,0,0-.38.5,1.26,1.26,0,0,0-.14.57,1.56,1.56,0,0,0,.11.57,1.64,1.64,0,0,0,.28.48,1.57,1.57,0,0,0,.41.32,1,1,0,0,0,.48.12,1.63,1.63,0,0,0,.5-.07,2.37,2.37,0,0,0,.46-.2,3.79,3.79,0,0,0,.45-.29l.46-.35Z"/><path class="cls-1" d="M133.56,11.46a2.49,2.49,0,0,1-.83.9,2.38,2.38,0,0,1-1.29.33,1.52,1.52,0,0,1-.69-.14,1.29,1.29,0,0,1-.48-.39,1.81,1.81,0,0,1-.28-.61,3.15,3.15,0,0,1-.09-.78V4.93h-1.37V4.52a2.09,2.09,0,0,0,1.09-.25,2,2,0,0,0,.7-.67,3.63,3.63,0,0,0,.42-1c.11-.37.2-.77.28-1.19h.44V4.24h1.77v.69h-1.77v5.84a.94.94,0,0,0,.07.34.75.75,0,0,0,.18.28.66.66,0,0,0,.27.19.78.78,0,0,0,.33.07.86.86,0,0,0,.48-.13,1.24,1.24,0,0,0,.38-.34Z"/><path class="cls-1" d="M135.35,0a.8.8,0,0,1,.34.07.92.92,0,0,1,.29.17,1,1,0,0,1,.2.26.88.88,0,0,1,.07.32.83.83,0,0,1-.07.32,1.05,1.05,0,0,1-.2.27.92.92,0,0,1-.29.17.8.8,0,0,1-.34.07.81.81,0,0,1-.35-.07.88.88,0,0,1-.28-.17,1.05,1.05,0,0,1-.2-.27.68.68,0,0,1-.07-.32.71.71,0,0,1,.07-.32,1,1,0,0,1,.2-.26A.88.88,0,0,1,135,.07.81.81,0,0,1,135.35,0Zm-.77,4.54,1.1-.47h.46v8.45h-1.56Z"/><path class="cls-1" d="M141.89,12.69a4.15,4.15,0,0,1-1.67-.33,3.87,3.87,0,0,1-1.32-.9,4.22,4.22,0,0,1-1.18-3A4.7,4.7,0,0,1,138,6.76a4.47,4.47,0,0,1,.87-1.4,3.83,3.83,0,0,1,1.32-.94,4,4,0,0,1,1.67-.35,4.13,4.13,0,0,1,1.66.32,4.36,4.36,0,0,1,1.32.86,4,4,0,0,1,.87,1.3,4.17,4.17,0,0,1,.31,1.59,5.19,5.19,0,0,1-.31,1.77,4.71,4.71,0,0,1-.87,1.45,4.18,4.18,0,0,1-1.32,1A3.84,3.84,0,0,1,141.89,12.69Zm.29-.61a1.51,1.51,0,0,0,.85-.25,2.37,2.37,0,0,0,.67-.67,3.38,3.38,0,0,0,.43-1A4.17,4.17,0,0,0,144.29,9a8.9,8.9,0,0,0-.15-1.68,4.52,4.52,0,0,0-.48-1.37A2.46,2.46,0,0,0,142.8,5a2.39,2.39,0,0,0-1.3-.33,1.46,1.46,0,0,0-.76.23,2.41,2.41,0,0,0-.65.66,3.47,3.47,0,0,0-.45,1,4.1,4.1,0,0,0-.17,1.18,7.14,7.14,0,0,0,.19,1.7,4.78,4.78,0,0,0,.52,1.38,2.94,2.94,0,0,0,.85.93A2,2,0,0,0,142.18,12.08Z"/><path class="cls-1" d="M147.55,4.24h1.57V5.75a5.16,5.16,0,0,1,1.48-1.26,3.24,3.24,0,0,1,1.57-.42,1.5,1.5,0,0,1,.77.2,1.9,1.9,0,0,1,.63.53,2.56,2.56,0,0,1,.43.8,2.82,2.82,0,0,1,.16,1v5.95h-1.57V6.85a1.93,1.93,0,0,0-.35-1.24,1.14,1.14,0,0,0-.91-.42,2.13,2.13,0,0,0-.53.08,3.77,3.77,0,0,0-.56.24,6.27,6.27,0,0,0-.57.38,5.07,5.07,0,0,0-.55.49v6.14h-1.57Z"/><path class="cls-1" d="M160.36.46,161.47,0h.45V5.79a3.08,3.08,0,0,1,.51-.66,3.64,3.64,0,0,1,.68-.55,3.81,3.81,0,0,1,.76-.37,2.36,2.36,0,0,1,.76-.14,2.85,2.85,0,0,1,1.27.29,3.18,3.18,0,0,1,1,.8,3.71,3.71,0,0,1,.66,1.17,4.42,4.42,0,0,1,.23,1.43,5.19,5.19,0,0,1-.16,1.32,5.13,5.13,0,0,1-.44,1.17,4.44,4.44,0,0,1-2.62,2.27,4.21,4.21,0,0,1-1.18.17,5.58,5.58,0,0,1-1.65-.24,3.65,3.65,0,0,1-1.37-.74Zm1.56,10.7.33.3a2,2,0,0,0,.39.28,2.08,2.08,0,0,0,1.07.28,1.91,1.91,0,0,0,1-.28,2.58,2.58,0,0,0,.76-.78,3.85,3.85,0,0,0,.5-1.18,5.81,5.81,0,0,0,.17-1.49A3.6,3.6,0,0,0,166,7.14a3,3,0,0,0-.49-.94,2.57,2.57,0,0,0-.73-.63,1.88,1.88,0,0,0-.9-.23,2.15,2.15,0,0,0-.55.08,2.52,2.52,0,0,0-.54.21,2.64,2.64,0,0,0-.47.33,2.19,2.19,0,0,0-.36.39Z"/><path class="cls-1" d="M168.31,4.25h1.78l3,6,2.48-6h.84l-4,9.71a5.55,5.55,0,0,1-.59,1.06,4.16,4.16,0,0,1-.7.74,3.07,3.07,0,0,1-.76.43,2.37,2.37,0,0,1-.77.14,1.51,1.51,0,0,1-.48-.07,1.12,1.12,0,0,1-.41-.2,1,1,0,0,1-.27-.3.75.75,0,0,1-.1-.38.8.8,0,0,1,.07-.34.7.7,0,0,1,.19-.29.88.88,0,0,1,.29-.2.92.92,0,0,1,.38-.08,1.09,1.09,0,0,1,.4.06,2.1,2.1,0,0,1,.26.13l.25.13a.84.84,0,0,0,.36.06.74.74,0,0,0,.43-.14,1.51,1.51,0,0,0,.34-.37,2.87,2.87,0,0,0,.28-.48c.07-.18.14-.34.21-.49l.53-1.24Z"/><path class="cls-1" d="M186,11.46a2.49,2.49,0,0,1-.83.9,2.38,2.38,0,0,1-1.29.33,1.45,1.45,0,0,1-.68-.14,1.25,1.25,0,0,1-.49-.39,1.81,1.81,0,0,1-.28-.61,3.15,3.15,0,0,1-.09-.78V4.93H181V4.52a2.09,2.09,0,0,0,1.09-.25,2,2,0,0,0,.7-.67,3.63,3.63,0,0,0,.42-1c.11-.37.2-.77.28-1.19h.44V4.24h1.77v.69h-1.77v5.84a.94.94,0,0,0,.07.34.75.75,0,0,0,.18.28.83.83,0,0,0,.27.19.78.78,0,0,0,.33.07.92.92,0,0,0,.49-.13,1.33,1.33,0,0,0,.37-.34Z"/><path class="cls-1" d="M190.48,12.69a3.63,3.63,0,0,1-1.5-.31,4,4,0,0,1-2-2.13,3.91,3.91,0,0,1-.31-1.56,6.08,6.08,0,0,1,.28-1.85,4.55,4.55,0,0,1,.79-1.46,3.47,3.47,0,0,1,1.22-1,3.63,3.63,0,0,1,1.59-.35,3.46,3.46,0,0,1,1.42.28,3.5,3.5,0,0,1,1.11.77,3.43,3.43,0,0,1,.72,1.11A3.58,3.58,0,0,1,194,7.56h-5.88a5.87,5.87,0,0,0,.2,1.55,3.94,3.94,0,0,0,.58,1.22,2.52,2.52,0,0,0,.88.81,2.16,2.16,0,0,0,1.12.3,2.7,2.7,0,0,0,1-.18,3,3,0,0,0,.85-.45,2.86,2.86,0,0,0,.65-.65,2.22,2.22,0,0,0,.38-.75l.45.21a4.06,4.06,0,0,1-.55,1.2,4.52,4.52,0,0,1-.88,1,4,4,0,0,1-1.1.66A3.22,3.22,0,0,1,190.48,12.69Zm1.57-5.79a2.5,2.5,0,0,0-.16-.88,2.35,2.35,0,0,0-.43-.7,2,2,0,0,0-.65-.46,1.8,1.8,0,0,0-.8-.17,1.4,1.4,0,0,0-.68.17,1.93,1.93,0,0,0-.58.46,2.64,2.64,0,0,0-.41.7,3.08,3.08,0,0,0-.21.87Z"/><path class="cls-1" d="M199.18,12.69a3.63,3.63,0,0,1-1.5-.31,4,4,0,0,1-1.23-.86,4.2,4.2,0,0,1-.82-1.27,3.91,3.91,0,0,1-.31-1.56,5.79,5.79,0,0,1,.28-1.85,4.55,4.55,0,0,1,.79-1.46,3.47,3.47,0,0,1,1.22-1,3.57,3.57,0,0,1,1.59-.35,3.42,3.42,0,0,1,2.53,1,3.43,3.43,0,0,1,.72,1.11,3.57,3.57,0,0,1,.25,1.33h-5.87a5.48,5.48,0,0,0,.2,1.55,4.17,4.17,0,0,0,.57,1.22,2.7,2.7,0,0,0,.88.81,2.22,2.22,0,0,0,1.13.3,2.7,2.7,0,0,0,1-.18,3.14,3.14,0,0,0,.85-.45,2.86,2.86,0,0,0,.65-.65,2.22,2.22,0,0,0,.38-.75l.45.21a4.06,4.06,0,0,1-.55,1.2,4.52,4.52,0,0,1-.88,1,4,4,0,0,1-1.1.66A3.22,3.22,0,0,1,199.18,12.69Zm1.56-5.79a2.5,2.5,0,0,0-.15-.88,2.19,2.19,0,0,0-.44-.7,1.84,1.84,0,0,0-.64-.46,1.8,1.8,0,0,0-.8-.17,1.4,1.4,0,0,0-.68.17,1.93,1.93,0,0,0-.58.46A2.41,2.41,0,0,0,197,6a3.07,3.07,0,0,0-.2.87Z"/><path class="cls-1" d="M204.39,4.24H206V5.75a5.29,5.29,0,0,1,1.48-1.26A3.27,3.27,0,0,1,209,4.07a1.54,1.54,0,0,1,.78.2,2.12,2.12,0,0,1,.63.53,2.54,2.54,0,0,1,.42.8,2.82,2.82,0,0,1,.16,1v5.95h-1.57V6.85a1.93,1.93,0,0,0-.35-1.24,1.14,1.14,0,0,0-.91-.42,2,2,0,0,0-.52.08,3.46,3.46,0,0,0-.57.24,6.27,6.27,0,0,0-.57.38,5.07,5.07,0,0,0-.55.49v6.14h-1.56Z"/><path class="cls-1" d="M218.6,12.52H217V11.38l-.54.46a5.06,5.06,0,0,1-.58.42,3.09,3.09,0,0,1-.69.31,2.93,2.93,0,0,1-.88.12,2.24,2.24,0,0,1-.84-.15,1.93,1.93,0,0,1-.63-.44,1.72,1.72,0,0,1-.41-.66,2.38,2.38,0,0,1-.14-.81,2.26,2.26,0,0,1,.2-1,2.78,2.78,0,0,1,.55-.77,4.69,4.69,0,0,1,.82-.6,9.05,9.05,0,0,1,1-.47,11.2,11.2,0,0,1,1.07-.37l1.08-.3V6.64a3.74,3.74,0,0,0-.1-.95,1.55,1.55,0,0,0-.31-.63,1.09,1.09,0,0,0-.48-.34,1.81,1.81,0,0,0-.63-.1,1.71,1.71,0,0,0-.65.1,1.08,1.08,0,0,0-.39.29,1,1,0,0,0-.2.4,2.49,2.49,0,0,0,0,.46,2.77,2.77,0,0,1,0,.42,1,1,0,0,1-.12.35.69.69,0,0,1-.24.24.85.85,0,0,1-.72,0,.86.86,0,0,1-.26-.2,1,1,0,0,1-.17-.31,1.23,1.23,0,0,1-.06-.39,1.29,1.29,0,0,1,.26-.76,2.17,2.17,0,0,1,.69-.61,4,4,0,0,1,1-.41,4.91,4.91,0,0,1,1.22-.15,4.58,4.58,0,0,1,1.32.16,2.25,2.25,0,0,1,.86.44,1.66,1.66,0,0,1,.48.69,2.67,2.67,0,0,1,.15.91ZM217,7.69l-.7.26c-.24.1-.48.21-.71.33a7.16,7.16,0,0,0-.66.39,4.44,4.44,0,0,0-.56.46,1.75,1.75,0,0,0-.37.5,1.15,1.15,0,0,0-.14.57,1.56,1.56,0,0,0,.1.57,1.89,1.89,0,0,0,.28.48,1.57,1.57,0,0,0,.41.32,1.07,1.07,0,0,0,.48.12,1.7,1.7,0,0,0,.51-.07,3.05,3.05,0,0,0,.46-.2,3.79,3.79,0,0,0,.45-.29c.14-.11.3-.22.45-.35Z"/><path class="cls-1" d="M228.51,4.67v.69H227a3,3,0,0,1,.38.76,2.68,2.68,0,0,1,.14.83,2.56,2.56,0,0,1-.27,1.18,2.87,2.87,0,0,1-.76.91,3.62,3.62,0,0,1-1.16.59,5.22,5.22,0,0,1-1.47.2,3.2,3.2,0,0,1-.61-.05,4.31,4.31,0,0,1-.54-.13,1.82,1.82,0,0,0-.38.45,1,1,0,0,0-.16.51.45.45,0,0,0,.27.4,1.42,1.42,0,0,0,.72.17l2.93.13a4.49,4.49,0,0,1,1.16.18,2,2,0,0,1,.74.37,1.32,1.32,0,0,1,.4.57,2.43,2.43,0,0,1,.11.73,2.6,2.6,0,0,1-.32,1.31,2.82,2.82,0,0,1-.92,1,4.71,4.71,0,0,1-1.47.64,7.89,7.89,0,0,1-2,.22,7,7,0,0,1-2.92-.46c-.65-.31-1-.72-1-1.23a1.52,1.52,0,0,1,.16-.65,3.33,3.33,0,0,1,.42-.61,5.84,5.84,0,0,1,.56-.55l.61-.51a3.89,3.89,0,0,1-.41-.17,2,2,0,0,1-.32-.23,1.42,1.42,0,0,1-.22-.28.73.73,0,0,1-.08-.33,1.14,1.14,0,0,1,.13-.52,2.16,2.16,0,0,1,.34-.51,3.73,3.73,0,0,1,.51-.45,2.65,2.65,0,0,1,.62-.33,3,3,0,0,1-1.25-1A2.52,2.52,0,0,1,220.58,7a2.69,2.69,0,0,1,.26-1.15,3.09,3.09,0,0,1,.74-.95,3.62,3.62,0,0,1,1.1-.64A4,4,0,0,1,224,4.07a5.36,5.36,0,0,1,.7,0,5.56,5.56,0,0,1,.64.13,3.27,3.27,0,0,1,.53.19,1.49,1.49,0,0,1,.36.23Zm-6.33,7.78a1.7,1.7,0,0,0-.3.3,2.41,2.41,0,0,0-.23.36,2.22,2.22,0,0,0-.14.38,1.63,1.63,0,0,0,0,.36.93.93,0,0,0,.19.53,1.63,1.63,0,0,0,.56.45,3.75,3.75,0,0,0,.93.31,7,7,0,0,0,1.3.11,6.77,6.77,0,0,0,1.41-.13,4.16,4.16,0,0,0,1.05-.35,1.94,1.94,0,0,0,.66-.48.76.76,0,0,0,.23-.53.84.84,0,0,0-.52-.81,3.34,3.34,0,0,0-1.44-.26l-1.14,0-1.09-.07-.88-.08Zm2-3a1.35,1.35,0,0,0,.64-.16,1.83,1.83,0,0,0,.54-.43,2.29,2.29,0,0,0,.37-.65,2.05,2.05,0,0,0,.14-.79,3.72,3.72,0,0,0-.16-1.13,2.84,2.84,0,0,0-.43-.91,2.11,2.11,0,0,0-.63-.6,1.45,1.45,0,0,0-1.45-.05,1.44,1.44,0,0,0-.47.48,2.07,2.07,0,0,0-.28.71,4,4,0,0,0-.09.87,3.86,3.86,0,0,0,.14,1,2.64,2.64,0,0,0,.37.85,2,2,0,0,0,.57.56A1.44,1.44,0,0,0,224.14,9.4Z"/><path class="cls-1" d="M233.47,12.69a3.63,3.63,0,0,1-1.5-.31,4,4,0,0,1-2.05-2.13,3.91,3.91,0,0,1-.31-1.56,6.08,6.08,0,0,1,.28-1.85,4.55,4.55,0,0,1,.79-1.46,3.47,3.47,0,0,1,1.22-1,3.63,3.63,0,0,1,1.59-.35,3.46,3.46,0,0,1,1.42.28,3.5,3.5,0,0,1,1.11.77,3.43,3.43,0,0,1,.72,1.11A3.58,3.58,0,0,1,237,7.56h-5.88a5.87,5.87,0,0,0,.2,1.55,3.94,3.94,0,0,0,.58,1.22,2.52,2.52,0,0,0,.88.81,2.16,2.16,0,0,0,1.12.3,2.7,2.7,0,0,0,1-.18,3,3,0,0,0,.85-.45,2.86,2.86,0,0,0,.65-.65,2.22,2.22,0,0,0,.38-.75l.45.21a4.06,4.06,0,0,1-.55,1.2,4.52,4.52,0,0,1-.88,1,4,4,0,0,1-1.1.66A3.22,3.22,0,0,1,233.47,12.69ZM235,6.9a2.5,2.5,0,0,0-.16-.88,2.35,2.35,0,0,0-.43-.7,2,2,0,0,0-.65-.46,1.8,1.8,0,0,0-.8-.17,1.34,1.34,0,0,0-.67.17,1.85,1.85,0,0,0-.59.46,2.64,2.64,0,0,0-.41.7,3.08,3.08,0,0,0-.21.87Z"/><path class="cls-1" d="M246.58,12.69a3.64,3.64,0,0,1-1.51-.31,4,4,0,0,1-2-2.13,4.1,4.1,0,0,1-.31-1.56A6.08,6.08,0,0,1,243,6.84a4.55,4.55,0,0,1,.79-1.46,3.57,3.57,0,0,1,1.22-1,3.63,3.63,0,0,1,1.59-.35,3.46,3.46,0,0,1,1.42.28,3.5,3.5,0,0,1,1.11.77,3.43,3.43,0,0,1,.72,1.11,3.58,3.58,0,0,1,.26,1.33h-5.88a5.87,5.87,0,0,0,.2,1.55,3.94,3.94,0,0,0,.58,1.22,2.52,2.52,0,0,0,.88.81,2.16,2.16,0,0,0,1.12.3,2.7,2.7,0,0,0,1-.18,3.2,3.2,0,0,0,.86-.45,3.08,3.08,0,0,0,.65-.65,2.38,2.38,0,0,0,.37-.75l.45.21a3.82,3.82,0,0,1-.55,1.2,4.52,4.52,0,0,1-.88,1,4,4,0,0,1-1.1.66A3.21,3.21,0,0,1,246.58,12.69Zm1.56-5.79A2.3,2.3,0,0,0,248,6a2.17,2.17,0,0,0-.43-.7,2,2,0,0,0-.65-.46,1.75,1.75,0,0,0-.79-.17,1.35,1.35,0,0,0-.68.17,1.82,1.82,0,0,0-.58.46,2.41,2.41,0,0,0-.42.7,2.77,2.77,0,0,0-.2.87Z"/><path class="cls-1" d="M251.78,4.24h1.56V5.75a5.32,5.32,0,0,1,1.49-1.26,3.22,3.22,0,0,1,1.57-.42,1.5,1.5,0,0,1,.77.2,2.12,2.12,0,0,1,.63.53,2.78,2.78,0,0,1,.43.8,3.08,3.08,0,0,1,.16,1v5.95h-1.57V6.85a1.87,1.87,0,0,0-.36-1.24,1.11,1.11,0,0,0-.9-.42,2.07,2.07,0,0,0-.53.08,3.77,3.77,0,0,0-.56.24,6.39,6.39,0,0,0-.58.38,6.23,6.23,0,0,0-.55.49v6.14h-1.56Z"/><path class="cls-1" d="M268,4.67v.69h-1.5a2.69,2.69,0,0,1,.37.76A2.41,2.41,0,0,1,267,7a2.56,2.56,0,0,1-.27,1.18A2.84,2.84,0,0,1,266,9a3.73,3.73,0,0,1-1.16.59,5.3,5.3,0,0,1-1.48.2,3.1,3.1,0,0,1-.6-.05,4.31,4.31,0,0,1-.54-.13,1.86,1.86,0,0,0-.39.45,1,1,0,0,0-.15.51.45.45,0,0,0,.26.4,1.46,1.46,0,0,0,.73.17l2.92.13a4.5,4.5,0,0,1,1.17.18,2,2,0,0,1,.74.37,1.22,1.22,0,0,1,.39.57,2.15,2.15,0,0,1,.12.73,2.7,2.7,0,0,1-.32,1.31,2.77,2.77,0,0,1-.93,1,4.51,4.51,0,0,1-1.47.64,7.83,7.83,0,0,1-2,.22,7.07,7.07,0,0,1-2.92-.46,1.3,1.3,0,0,1-.8-1.88,3.33,3.33,0,0,1,.42-.61,4.87,4.87,0,0,1,.56-.55c.2-.18.4-.35.61-.51a3.17,3.17,0,0,1-.41-.17,1.65,1.65,0,0,1-.32-.23.94.94,0,0,1-.22-.28.73.73,0,0,1-.08-.33,1.27,1.27,0,0,1,.12-.52,2.58,2.58,0,0,1,.35-.51,2.83,2.83,0,0,1,.51-.45,2.46,2.46,0,0,1,.62-.33,3,3,0,0,1-1.25-1A2.45,2.45,0,0,1,260.07,7a2.56,2.56,0,0,1,.27-1.15,3,3,0,0,1,.74-.95,3.5,3.5,0,0,1,1.1-.64,4,4,0,0,1,1.36-.23,5.34,5.34,0,0,1,.69,0,5.74,5.74,0,0,1,.65.13,3.27,3.27,0,0,1,.53.19,1.25,1.25,0,0,1,.35.23Zm-6.33,7.78a1.77,1.77,0,0,0-.31.3,2.32,2.32,0,0,0-.22.36,2.22,2.22,0,0,0-.14.38,1.63,1.63,0,0,0-.05.36.86.86,0,0,0,.19.53,1.54,1.54,0,0,0,.56.45,3.53,3.53,0,0,0,.92.31,7.17,7.17,0,0,0,1.3.11,6.64,6.64,0,0,0,1.41-.13,4.25,4.25,0,0,0,1.06-.35,1.94,1.94,0,0,0,.66-.48.81.81,0,0,0,.23-.53.85.85,0,0,0-.53-.81,3.29,3.29,0,0,0-1.43-.26l-1.15,0-1.08-.07c-.33,0-.63,0-.88-.08Zm1.95-3a1.32,1.32,0,0,0,.64-.16,1.61,1.61,0,0,0,.54-.43,2.1,2.1,0,0,0,.38-.65,2.26,2.26,0,0,0,.14-.79,3.72,3.72,0,0,0-.16-1.13,3.07,3.07,0,0,0-.43-.91,2.11,2.11,0,0,0-.63-.6,1.4,1.4,0,0,0-.76-.22,1.36,1.36,0,0,0-.69.17,1.57,1.57,0,0,0-.48.48,2.29,2.29,0,0,0-.27.71,4,4,0,0,0-.09.87,3.87,3.87,0,0,0,.13,1,2.87,2.87,0,0,0,.37.85,1.93,1.93,0,0,0,.58.56A1.4,1.4,0,0,0,263.63,9.4Z"/><path class="cls-1" d="M270.31,0a.81.81,0,0,1,.35.07.92.92,0,0,1,.29.17,1,1,0,0,1,.19.26.72.72,0,0,1,.08.32.69.69,0,0,1-.08.32,1,1,0,0,1-.19.27.92.92,0,0,1-.29.17.81.81,0,0,1-.35.07.8.8,0,0,1-.34-.07.88.88,0,0,1-.28-.17.86.86,0,0,1-.2-.27.68.68,0,0,1-.07-.32.71.71,0,0,1,.07-.32.82.82,0,0,1,.2-.26A.88.88,0,0,1,270,.07.8.8,0,0,1,270.31,0Zm-.76,4.54,1.1-.47h.46v8.45h-1.56Z"/><path class="cls-1" d="M273,4.24h1.57V5.75a5.29,5.29,0,0,1,1.48-1.26,3.24,3.24,0,0,1,1.57-.42,1.54,1.54,0,0,1,.78.2,2.12,2.12,0,0,1,.63.53,2.76,2.76,0,0,1,.42.8,2.82,2.82,0,0,1,.16,1v5.95h-1.57V6.85a1.93,1.93,0,0,0-.35-1.24,1.14,1.14,0,0,0-.91-.42,2,2,0,0,0-.52.08,3.46,3.46,0,0,0-.57.24,6.27,6.27,0,0,0-.57.38,5.07,5.07,0,0,0-.55.49v6.14H273Z"/><path class="cls-1" d="M284.91,12.69a3.63,3.63,0,0,1-1.5-.31,4,4,0,0,1-1.23-.86,4,4,0,0,1-.82-1.27,3.91,3.91,0,0,1-.31-1.56,5.79,5.79,0,0,1,.28-1.85,4.55,4.55,0,0,1,.79-1.46,3.47,3.47,0,0,1,1.22-1,3.57,3.57,0,0,1,1.59-.35,3.42,3.42,0,0,1,2.53,1,3.43,3.43,0,0,1,.72,1.11,3.57,3.57,0,0,1,.25,1.33h-5.87a5.48,5.48,0,0,0,.2,1.55,4.17,4.17,0,0,0,.57,1.22,2.7,2.7,0,0,0,.88.81,2.22,2.22,0,0,0,1.13.3,2.7,2.7,0,0,0,1-.18,3.14,3.14,0,0,0,.85-.45,2.86,2.86,0,0,0,.65-.65,2.22,2.22,0,0,0,.38-.75l.45.21a4.33,4.33,0,0,1-.55,1.2,4.8,4.8,0,0,1-.88,1,4.13,4.13,0,0,1-1.1.66A3.22,3.22,0,0,1,284.91,12.69Zm1.56-5.79a2.5,2.5,0,0,0-.15-.88,2.19,2.19,0,0,0-.44-.7,1.84,1.84,0,0,0-.64-.46,1.8,1.8,0,0,0-.8-.17,1.4,1.4,0,0,0-.68.17,1.82,1.82,0,0,0-.58.46,2.41,2.41,0,0,0-.42.7,3.07,3.07,0,0,0-.2.87Z"/><path class="cls-1" d="M293.61,12.69a3.63,3.63,0,0,1-1.5-.31,4,4,0,0,1-1.23-.86,4.23,4.23,0,0,1-.83-1.27,4.09,4.09,0,0,1-.3-1.56A5.79,5.79,0,0,1,290,6.84a4.53,4.53,0,0,1,.78-1.46,3.56,3.56,0,0,1,2.81-1.31,3.42,3.42,0,0,1,2.54,1,3.79,3.79,0,0,1,.72,1.11,3.57,3.57,0,0,1,.25,1.33h-5.88a5.48,5.48,0,0,0,.21,1.55,4.17,4.17,0,0,0,.57,1.22,2.7,2.7,0,0,0,.88.81,2.19,2.19,0,0,0,1.12.3,2.72,2.72,0,0,0,1-.18,3.14,3.14,0,0,0,.85-.45,3.08,3.08,0,0,0,.65-.65,2.42,2.42,0,0,0,.38-.75l.45.21a4.33,4.33,0,0,1-.55,1.2,4.8,4.8,0,0,1-.88,1,4.13,4.13,0,0,1-1.1.66A3.22,3.22,0,0,1,293.61,12.69Zm1.56-5.79A2.3,2.3,0,0,0,295,6a2,2,0,0,0-.43-.7,1.94,1.94,0,0,0-.64-.46,1.83,1.83,0,0,0-.8-.17,1.4,1.4,0,0,0-.68.17,1.82,1.82,0,0,0-.58.46,2.41,2.41,0,0,0-.42.7,2.77,2.77,0,0,0-.2.87Z"/><path class="cls-1" d="M298.81,4.24h1.56V5.8a6.26,6.26,0,0,1,.49-.66,4.76,4.76,0,0,1,.55-.55,2.56,2.56,0,0,1,.59-.38,1.46,1.46,0,0,1,1.1-.06,1.19,1.19,0,0,1,.38.22,1,1,0,0,1,.26.31.75.75,0,0,1,.1.38.76.76,0,0,1-.24.61,1,1,0,0,1-.66.2,1.17,1.17,0,0,1-.42-.06,1.28,1.28,0,0,1-.29-.13L302,5.55a.82.82,0,0,0-.33,0,.61.61,0,0,0-.31.09,1.91,1.91,0,0,0-.32.27c-.1.12-.21.25-.32.41s-.21.33-.32.51v5.74h-1.56Z"/><path class="cls-1" d="M305.68,0a.81.81,0,0,1,.35.07.92.92,0,0,1,.29.17,1,1,0,0,1,.19.26.72.72,0,0,1,.08.32.69.69,0,0,1-.08.32,1,1,0,0,1-.19.27.92.92,0,0,1-.29.17.81.81,0,0,1-.35.07.8.8,0,0,1-.34-.07.88.88,0,0,1-.28-.17,1.05,1.05,0,0,1-.2-.27.68.68,0,0,1-.07-.32.71.71,0,0,1,.07-.32,1,1,0,0,1,.2-.26.88.88,0,0,1,.28-.17A.8.8,0,0,1,305.68,0Zm-.76,4.54,1.1-.47h.46v8.45h-1.56Z"/><path class="cls-1" d="M308.38,4.24H310V5.75a5.29,5.29,0,0,1,1.48-1.26A3.24,3.24,0,0,1,313,4.07a1.54,1.54,0,0,1,.78.2,2.12,2.12,0,0,1,.63.53,2.76,2.76,0,0,1,.42.8,2.82,2.82,0,0,1,.16,1v5.95h-1.57V6.85a1.93,1.93,0,0,0-.35-1.24,1.14,1.14,0,0,0-.91-.42,2,2,0,0,0-.52.08,3.46,3.46,0,0,0-.57.24,6.27,6.27,0,0,0-.57.38,5.07,5.07,0,0,0-.55.49v6.14h-1.57Z"/><path class="cls-1" d="M324.61,4.67v.69h-1.49a3,3,0,0,1,.37.76,2.68,2.68,0,0,1,.14.83,2.56,2.56,0,0,1-.27,1.18,2.87,2.87,0,0,1-.76.91,3.67,3.67,0,0,1-1.15.59,5.35,5.35,0,0,1-1.48.2,3.2,3.2,0,0,1-.61-.05,4.31,4.31,0,0,1-.54-.13,1.82,1.82,0,0,0-.38.45,1,1,0,0,0-.15.51.44.44,0,0,0,.26.4,1.43,1.43,0,0,0,.73.17l2.92.13a4.49,4.49,0,0,1,1.16.18,2.19,2.19,0,0,1,.75.37,1.39,1.39,0,0,1,.39.57,2.15,2.15,0,0,1,.11.73,2.6,2.6,0,0,1-.32,1.31,2.82,2.82,0,0,1-.92,1,4.71,4.71,0,0,1-1.47.64,7.83,7.83,0,0,1-2,.22,7,7,0,0,1-2.92-.46c-.64-.31-1-.72-1-1.23a1.4,1.4,0,0,1,.17-.65,2.84,2.84,0,0,1,.41-.61,7.3,7.3,0,0,1,.56-.55l.61-.51a3.89,3.89,0,0,1-.41-.17,2,2,0,0,1-.32-.23,1.42,1.42,0,0,1-.22-.28.73.73,0,0,1-.08-.33,1.29,1.29,0,0,1,.13-.52,2.51,2.51,0,0,1,.34-.51,3.73,3.73,0,0,1,.51-.45,2.65,2.65,0,0,1,.62-.33,2.89,2.89,0,0,1-1.24-1A2.45,2.45,0,0,1,316.68,7,2.56,2.56,0,0,1,317,5.89a2.92,2.92,0,0,1,.73-.95,3.62,3.62,0,0,1,1.1-.64,4,4,0,0,1,1.36-.23,5.36,5.36,0,0,1,.7,0,5.56,5.56,0,0,1,.64.13,3,3,0,0,1,.53.19,1.49,1.49,0,0,1,.36.23Zm-6.32,7.78a1.77,1.77,0,0,0-.31.3,2.41,2.41,0,0,0-.23.36,3.57,3.57,0,0,0-.14.38,1.59,1.59,0,0,0,0,.36.91.91,0,0,0,.18.53,1.63,1.63,0,0,0,.56.45,3.75,3.75,0,0,0,.93.31,7,7,0,0,0,1.3.11,6.77,6.77,0,0,0,1.41-.13,4.39,4.39,0,0,0,1.06-.35,2.17,2.17,0,0,0,.66-.48.79.79,0,0,0,.22-.53.84.84,0,0,0-.52-.81,3.34,3.34,0,0,0-1.44-.26l-1.14,0-1.08-.07c-.34,0-.63,0-.88-.08Zm1.95-3a1.35,1.35,0,0,0,.64-.16,1.83,1.83,0,0,0,.54-.43,2.08,2.08,0,0,0,.37-.65,2.05,2.05,0,0,0,.14-.79,4.06,4.06,0,0,0-.15-1.13,3.33,3.33,0,0,0-.43-.91,2.23,2.23,0,0,0-.63-.6,1.43,1.43,0,0,0-.77-.22,1.34,1.34,0,0,0-.68.17,1.38,1.38,0,0,0-.48.48,2.07,2.07,0,0,0-.28.71,4,4,0,0,0-.08.87,3.87,3.87,0,0,0,.13,1,2.87,2.87,0,0,0,.37.85,2,2,0,0,0,.57.56A1.44,1.44,0,0,0,320.24,9.4Z"/></g></g></svg>