<svg xmlns="http://www.w3.org/2000/svg" viewBox="0 0 1366.52 98.41"><defs><style>.cls-1{fill:#d6d2c7;}.cls-2{fill:none;stroke:#d6d2c7;stroke-miterlimit:10;stroke-width:2.64px;}</style></defs><title>資產 93</title><g id="圖層_2" data-name="圖層 2"><g id="圖層_1-2" data-name="圖層 1"><path class="cls-1" d="M570.21,6.15a9.65,9.65,0,0,0-9.46,9.79l.13,8.59,0,3a9.61,9.61,0,1,0,19.21-.3l0-3.06L580,15.64A9.62,9.62,0,0,0,570.21,6.15Zm6,23.9a5.62,5.62,0,1,1-11.19.18l-.07-4.48h0l-.2-12.59A5.62,5.62,0,1,1,575.9,13l.2,12.58h0Z"/><path class="cls-1" d="M585.82,7.07l0,1.4h0c.67,0,2.41.5,2.42,1.17l.41,26h2.48L590.71,7Z"/><path class="cls-1" d="M554.93,42.22l-15.1.23a4.36,4.36,0,0,1-4.44-4.29l-.24-15.6L534.9,7a4.38,4.38,0,0,1,4.3-4.44l15.1-.24,0-2.29L517.5.58h0L501.37.83A22,22,0,0,0,480,23.41v0a22,22,0,0,0,22.11,21.89l52.9-.83ZM501.4,3.09h0Zm-8.47,20.13c-.17-11,6.85-20,15.7-20.23l1.45,0c-5.69,3.72-9.53,11.39-9.4,20.13s4.23,16.29,10,19.83l-1.44,0C500.4,43,493.11,34.22,492.93,23.22Zm35.68,19.41L518,42.81c-8.09-.1-14.79-9-15-19.74s6.35-20,14.53-20.21L528,2.7A4.37,4.37,0,0,1,532.42,7l.24,15.6.25,15.6A4.37,4.37,0,0,1,528.61,42.63Z"/><path class="cls-1" d="M596.16,61.56c-.75-6.49-6.68-11.16-13.21-11.05l-17.3.27h0L523,51.45l.31,19.91c.15,10.8-1.43,19.11-5,26l1.95,1c3.78-7.29,4.73-14.46,5.19-22l11.35-.18a4.14,4.14,0,0,1,3.79,2.4c4.21,8.75,10.24,15,18,18.66.56-.77,1.07-1.42,1.62-2.05a32.1,32.1,0,0,1-11.44-8.33,37.26,37.26,0,0,1-6.69-10.77h.55l41.24-.65A12.52,12.52,0,0,0,596.16,61.56ZM529,74.3a3.56,3.56,0,0,1-3.62-3.5L525.15,57a3.56,3.56,0,0,1,3.51-3.62l37-.58h0c3.93-.06,7.22,5,7.31,10.66.07,4.5-2,8.88-5,10.21Zm50.34-.79-7.56.12a14.57,14.57,0,0,0,3.57-10.19,14.33,14.33,0,0,0-4.53-10.7l5.79-.09c4.59-.07,8.39,4.66,8.48,10.57C585.15,68.05,582.72,72.13,579.33,73.51Z"/><path class="cls-1" d="M624.47,68.94V68h14.35v1Z"/><path class="cls-1" d="M647.12,75.85h-.52A5.55,5.55,0,0,0,648,71.56h1.81A5.59,5.59,0,0,1,647.12,75.85Zm.52-10.51h2.77V63.4H647v-.69h3.46V60.36h1.73v2.35h2.76v.69h-2.76v1.94h2.24V66h-6.74Zm.17,11.89-.08-.27c2-.32,2.88-.79,2.59-1.38v-5H647v-.7h8.12v.7h-3v5.11c.06.7-.72,1.2-2.34,1.52,0-.18-.37-.2-1.12-.06Zm0-9.68H654a10.71,10.71,0,0,0,1.9-7h1.9c-.12,1-.29,2-.52,3h2.42v-.83h1.73v3.6c-.57-.56-1.15-.39-1.73.48V64.23h-2.68a28.21,28.21,0,0,1-2.68,3.32h-.17v.69h-6.4Zm6.31,8a16.51,16.51,0,0,1-1.47-4.08H653c.92,1,1.67,1.82,2.25,2.55A4,4,0,0,1,654.12,75.51Zm-.6,2q3.63-2.62,3.28-6.36V65.34h1.73v5.53c.12,1.71,1.21,3.09,3.29,4.15a3.55,3.55,0,0,0-.18,2.21v.28c-1.55-.83-2.65-2.58-3.28-5.25q-.52,2.55-4.06,5.25Z"/><path class="cls-1" d="M678.5,71h1.82v1h2.76v.76h-2.76v2.9c.28.88-.55,1.53-2.51,1.94a1,1,0,0,0-.78-.28l-1,.21v-.14c2-.32,2.86-.87,2.51-1.66v-3h-5.44a16.2,16.2,0,0,1,2.5,1.87,3.58,3.58,0,0,1-1,1.38,15.2,15.2,0,0,1-1.81-3.25h-3.89V72h9.68Zm3.2.83a14.6,14.6,0,0,1-2.85-2.07q-2.77,1.65-9.43,1.86a1.64,1.64,0,0,0-.25-1.93,21.45,21.45,0,0,0,6,.34V68.59h-2.94v.55h-1.73V63.61h1.73v.62h2.94V62.92H669v-.76h6.14V60.57h1.73v1.59h6v.76h-6v1.31h3v-.62h1.73v5.6h-1.73v-.62h-3V69.9a13.68,13.68,0,0,0,1.81-.34,3,3,0,0,1-.25-.28,5.92,5.92,0,0,1-.61-.62,34.17,34.17,0,0,1,4.06,1.52A4.26,4.26,0,0,1,681.7,71.84Zm-9.51-6.92V66h2.94V64.92Zm2.94,1.8h-2.94V67.9h2.94Zm4.75-1.8h-3V66h3Zm-3,1.8V67.9h3V66.72Z"/><path class="cls-1" d="M692,60.43h1.73v.76h9.33v-.55h1.65V64h-.61l-1,1,1.65.35a3.87,3.87,0,0,1,0,1.59c-.24-.09-.49-.21-.78-.35V69.9h.69v5.68c.17.78-.58,1.45-2.25,2-.06-.09-.23-.11-.52-.07l-1,.21-.09-.14c1.78-.46,2.56-1,2.33-1.73V71.22h-3.89v.83h1v-.49h1.64v3.32h-1.47a16.2,16.2,0,0,1,2.08.9A4.32,4.32,0,0,1,702,77.1a3.71,3.71,0,0,1-1.39-1.46,16.09,16.09,0,0,1-6.48,1.53,1.23,1.23,0,0,0-.09-1.66,7.39,7.39,0,0,0,3.55.34V74.54h-1.13V75h-1.55V72.19a1.25,1.25,0,0,0-.35.2,2,2,0,0,1-.43.28h-.78A13.29,13.29,0,0,1,691,77.51h-.52a10.89,10.89,0,0,0,1.3-3.53,55.82,55.82,0,0,0,.26-6.63Zm6.48,3.11h-4.84c0,2.68,0,4.61-.09,5.81a20.62,20.62,0,0,1-.17,3.18,5.88,5.88,0,0,0,2.77-2.63h-1.39V66.52a3.14,3.14,0,0,1-.69.06,1.36,1.36,0,0,0-.17-1.59,5.23,5.23,0,0,0,2.42.14l-.52-.62-.69-.76.09-.14,2,.62c0,.14-.11.3-.17.49a.63.63,0,0,0-.17.34,9.87,9.87,0,0,0,1.64-.55Zm-4.84-1.73v1h9.42v-1Zm6.48,2.77v1.66h-1.64V64.79a17,17,0,0,1-2.68,1.52h.52v.34h6.05v-.34h1.13c-.47-.23-1.21-.62-2.25-1.18C700.72,64.86,700.34,64.67,700.11,64.58Zm-2.5,6.57h-1l-.26.21a1.25,1.25,0,0,1-.35.2h.52v.49h1.13Zm-1.3-3.8V68.8h1.12V67.35Zm0,2.14v.34h1.9a1.52,1.52,0,0,1-.34.35,1.41,1.41,0,0,0-.35.35h5.53V69.9h-.69v-.41Zm1.3,3.25h-1.13v1.11h1.13Zm2.24-5.39h-1.12V68.8h1.12Zm-.69,5.39v1.11h1V72.74Zm1,1.8h-1v1.17c.58-.13,1-.25,1.3-.34-.06,0-.12-.07-.17-.21a.91.91,0,0,1-.09-.28Zm2.85-11h-2.94v.83c.64.14,1.36.28,2.17.42l.77-.83Zm-.69,3.81h-1.21V68.8h1.21Z"/><path class="cls-1" d="M719.74,66.86V61.74h-5v-.69h11.76v.69h-5v5.12h6.22v.69h-6.22v8c0,.92-1.1,1.56-3.46,1.93-.12-.18-.23-.25-.35-.21l-1.12.14-.09-.2c2.25-.47,3.34-1.16,3.29-2.08V67.55h-6.4v-.69Z"/><path class="cls-1" d="M741.35,72.88h1.73v1.31H748v.69h-4.93v1.39h6.31v.62H735v-.62h6.22V74.88h-4.92v-.69h5Zm.09-12.24h1.73V62h6v.69h-6v1h5.18v.69h-12.1v-.69h5.19v-1h-6.23V62h6.23Zm-6.14,7.19h1.55v.48h10.72v-.48h1.56v1.94c-.52-.37-1-.1-1.56.83V68.94H736.85v1.45H735.3Zm2.07,1.94h9.68v.62H744.2a30.24,30.24,0,0,1,3.46,1.93,4.63,4.63,0,0,1-.61,1.53,10.21,10.21,0,0,1-2.33-2.15,26.89,26.89,0,0,1-8,1.87c.23-.46.05-1-.52-1.59a5.33,5.33,0,0,0,1.55.21,3.12,3.12,0,0,0,1.82-1.8h-2.25Zm9.86-5V67.9H745.5v-.35h-6.4v.35h-1.73V64.79h1.73v.34h6.31v-.34Zm-9,7.47a22.68,22.68,0,0,0,6.31-.83,7.16,7.16,0,0,1-.69-1h-2.08A6.43,6.43,0,0,1,738.24,72.26Zm.86-6.51v1.18h6.4V65.75Z"/><path class="cls-1" d="M760.63,63.54l.34.14-2,10.44a8,8,0,0,1,1,.76l.86.7a6.82,6.82,0,0,1-.69,1.59,36.08,36.08,0,0,1-2.77-4,2.49,2.49,0,0,1-.34-.55l.08-.07a10.14,10.14,0,0,1,1.13.9Zm-3.46,1.59a13,13,0,0,1,2.07,1.73,6.48,6.48,0,0,1-.69,1.25,23.65,23.65,0,0,1-1.47-3Zm.43-4a19.13,19.13,0,0,1,2.68,1.73,4.78,4.78,0,0,1-.69,1.31,24.55,24.55,0,0,1-2.07-3ZM762,67.41v.83q.09,1.4-1.56,1.8v-.41c.52-.14.75-.44.7-.9V67.41Zm3.37-7c.17.09.46.28.87.55l.77.42c.18-.09,0,.18-.6.83h1.9v.55h-4a5.5,5.5,0,0,1-.69,1.18c-.17.23-.29.39-.34.48l.43.35c.23.23.49.5.78.83h1.21V66h.95v-.34h1.21v4a1.31,1.31,0,0,0,.52-1V67.41h.86v1.11c0,.65-.46,1.13-1.38,1.45V69.7h-1.21v-.83h-.95v.9h-1.21V65.89a2.42,2.42,0,0,1-.52,1,4.39,4.39,0,0,1-.35-.69.75.75,0,0,0-.17-.28,8.66,8.66,0,0,1-2.33,1.25q.35-.9-.18-1.32h.44a6.82,6.82,0,0,0,1.64-2.56,5.53,5.53,0,0,1-1.9,1,1.13,1.13,0,0,0-.26-1.24,2.25,2.25,0,0,0,.52.07,4.38,4.38,0,0,0,.6-2.63h1.38a8.51,8.51,0,0,1-1.72,2.63,3.15,3.15,0,0,0,1.55-.28V62h1.56q-.18,0-.18.21h1.47a6.08,6.08,0,0,0-.34-.83A3.61,3.61,0,0,0,765.38,60.43Zm3.29,9.47h1.47v3h-1.47v-.21h-5.54v1h6v-.42h1.56v2.35q.08,1.53-3,2a1.37,1.37,0,0,0-.86-.21l-1.22.14-.08-.21q3.72-.41,3.63-1.59V74.33h-6v.55h-1.46V71.56h1.46v.56h5.54V70.94h-7.61v-.55h7.61Zm-5.54-5.25a7.26,7.26,0,0,1-.86.9l-.52.41a5.33,5.33,0,0,0,1.73-.21,2.79,2.79,0,0,1-.17-.55A3.94,3.94,0,0,0,763.13,64.65Zm-.51,2.56a11.72,11.72,0,0,1,.6,2,2.82,2.82,0,0,1-.6.62c-.06-.64-.09-1.52-.09-2.62Zm.86-.14c.11.18.32.6.61,1.24.11.28.2.46.25.56a2.47,2.47,0,0,1-.51.62,1,1,0,0,1-.18.21,13.11,13.11,0,0,1-.26-2.63Zm.78-2.49h3.8v.55h-3.8Zm3.8-.62h-3.72V63.4h3.72Zm-1.38,2.56h-.95v1.79h.95ZM769,60.57h1.39a6.31,6.31,0,0,1-1.82,2.76,4.17,4.17,0,0,0,1.21-.2.27.27,0,0,1,.17-.07l.09-1h1.47a21,21,0,0,1-1.21,2.28A18.86,18.86,0,0,1,772.13,66a7.65,7.65,0,0,1-.61,1.25,4.76,4.76,0,0,1-.6-.9c-.12-.19-.21-.32-.26-.42a6.26,6.26,0,0,1-2.34,1.25,1,1,0,0,0-.26-1.18h.26l.26.07a7.47,7.47,0,0,0,1.3-2.49,8.93,8.93,0,0,1-1.56.9.89.89,0,0,0-.34-1.17h.43A7.73,7.73,0,0,0,769,60.57Zm1.13,3.94-.35.48c-.17.24-.46.58-.86,1a3.68,3.68,0,0,0,1.55-.48.51.51,0,0,0-.08-.21A3.79,3.79,0,0,1,770.14,64.51Zm-.44,2.56h.18c0,.18.11.44.17.76a10.05,10.05,0,0,1,.35,1.24l-.09.14a1.49,1.49,0,0,1-.61.49Zm.78-.14h.09a.75.75,0,0,1,.17.28c.4.78.69,1.33.87,1.66a3.64,3.64,0,0,1-.69.69c-.06-.28-.12-.69-.18-1.25S770.54,67.21,770.48,66.93Z"/><path class="cls-1" d="M786.22,67.62c1.15-1.66,1.67-4.05,1.55-7.19h2.08a12.87,12.87,0,0,1-.87,3.94h2.77v-1h1.73v12c0,.92-.81,1.61-2.42,2.07a.66.66,0,0,0-.61-.21l-1,.21-.18-.21c1.61-.46,2.45-1.06,2.51-1.79V65.06h-3.11a23.18,23.18,0,0,1-2.08,2.77h-.34v8.44h-1.73v-.9h-2.77v1.45H780V63.68h1.73v.69h.43c.52-.69.72-1.93.61-3.73h1.9c.06,1.24-.63,2.49-2.07,3.73h1.9v-.69h1.73Zm-4.5,7.19h2.77V65.06h-2.77V68.8h1.9v.69h-1.9ZM789,72.39a14.79,14.79,0,0,1-1.38-4.77h.09A19.44,19.44,0,0,1,790,70.46,4.57,4.57,0,0,1,789,72.39Z"/><path class="cls-1" d="M802.81,60.78H815v.69h-5.27v1.24h4.67v-.48H816v2.69c-.58-.46-1.12-.34-1.64.35V63.4h-4.67v3.88h-1.64V63.4h-4.76V65h-1.55V62.23h1.55v.48h4.76V61.47h-5.28Zm.44,6.77H805v.56h7.43v-.56h1.82V74.4h-1.82v-.69h-2.85v1.45c-.06.55.26.81,1,.76h2.85q1.21,0,1.47-.69l.52-2.49h.26v2h.26v1c.11,1.06-.41,1.55-1.56,1.46h-4.84c-1.15.09-1.67-.35-1.55-1.32V73.71H805V75h-1.73Zm.6-2.56V64.3h3.46V65Zm0,1.66V66h3.46v.69ZM805,68.8v1.8h2.94V68.8Zm0,2.49V73h2.94V71.29Zm7.43-2.49h-2.85v1.8h2.85Zm-2.85,2.49V73h2.85V71.29Zm.86-6.3V64.3h3.46V65Zm0,1.66V66h3.46v.69Z"/><path class="cls-1" d="M825.2,62.64v-.83h10.9l.69-.69H837v1.25L831.26,66h1.21v2.49h6.22v.83h-6.22v6.36c.11,1-1,1.71-3.38,2.08q-.26-.34-.51-.21l-1.13.14-.17-.28c2.3-.46,3.4-1,3.28-1.73V69.28H824v-.83h6.57V66.24h-1.21l5.54-3.6Z"/><path class="cls-1" d="M847.25,60.57h1.9a6.89,6.89,0,0,1-2.68,4.08,3.84,3.84,0,0,0,2.16-.35,10.63,10.63,0,0,0,.17-1.17,1.65,1.65,0,0,0,.09-.49h1.73A7.35,7.35,0,0,1,849.24,66c.86,1.52,1.41,2.45,1.64,2.77V62h1.47a3.65,3.65,0,0,0,.17-1.45h1.9c-.17.64-.86,1.22-2.07,1.73v.27h1.3V62h1.47V69.7h-1.21v1.45H860v.69H855c.86,1.38,2.53,2.4,5,3a1.77,1.77,0,0,0-.6,2.15,7.93,7.93,0,0,1-4.76-5.19h-.77v5.88h-1.65v-5a30.65,30.65,0,0,1-5.88,4.36h-.86a13.24,13.24,0,0,0,5.36-5.26H846v-.69h6.31V69.7h-1.38V69a6.25,6.25,0,0,1-1.12,1,5.77,5.77,0,0,1-.18-.76c-.11-.37-.2-.67-.26-.9A7.58,7.58,0,0,1,846,70a1.29,1.29,0,0,0,0-1.66h.26a7.26,7.26,0,0,0,2.42-3.59,8,8,0,0,1-2.5,1.66,1.38,1.38,0,0,0-.18-1.73h.35A7.9,7.9,0,0,0,847.25,60.57Zm-.78,7.74a4.44,4.44,0,0,0,2.77-.48,12.47,12.47,0,0,0-.26-1.45A8.45,8.45,0,0,1,846.47,68.31Zm5.88-5.11v1.86h1.3V63.2Zm1.3,2.55h-1.3v2.43h1.3Zm-1.3,3.12v.76h1.3v-.76Zm4.15-8.37h1.9a7.32,7.32,0,0,1-2.51,4.29,5.6,5.6,0,0,0,1.91-.35c.05-.28.11-.69.17-1.24a2.26,2.26,0,0,0,.08-.56h1.73a9.84,9.84,0,0,1-1.12,3.11,22.24,22.24,0,0,0,1.38,1.8,4.79,4.79,0,0,1,.61.83,7.15,7.15,0,0,1-1.21,1.25,1.91,1.91,0,0,0-.17-.69,3.56,3.56,0,0,0-.18-.7,11.79,11.79,0,0,1-3.54,1.53,1.28,1.28,0,0,0-.09-1.59c.12,0,.17,0,.17.06a8.64,8.64,0,0,0,2.08-3.32,8,8,0,0,1-2.33,1.39,1.11,1.11,0,0,0,0-1.52.41.41,0,0,0,.25-.07A9.83,9.83,0,0,0,856.5,60.5ZM856,68.24a7.26,7.26,0,0,0,2.94-.41c-.17-.55-.35-1.13-.52-1.73A7.26,7.26,0,0,1,856,68.24Z"/><path class="cls-1" d="M872.75,61.33v-.69h1.73v5.81h1.38V60.64h1.73v.55h1.9V60.5h1.73v6h-1.73v-.7h-1.9v.49l1.38.55.52.21a2.66,2.66,0,0,1-.6,1h3.54v.69h-5.7A12.65,12.65,0,0,0,883,70.32a1.79,1.79,0,0,0-.43,1.8,5.73,5.73,0,0,1-1.21-.28v5.53h-1.73v-1h-2.08v.82h-1.73V70.87h1.73v.56h2.08v-.14a8.86,8.86,0,0,1-3.46-2.63h-1.13a24.68,24.68,0,0,1-4.4,2.42v.35h2.07v-.56h1.73v6.36h-1.73v-.82h-2.07v1H869v-5.6l-.52.21h-.69a20.1,20.1,0,0,0,5.44-3.32h-5.27V68h5.71a6.93,6.93,0,0,0,.43-1.11,1.48,1.48,0,0,1,.17-.41h-1.47v-.7h-1.9v1h-1.73V60.64h1.73v.69Zm-2.07,10.79v3.59h2.07V72.12Zm.17-10.1v3h1.9V62ZM875.52,68h3l-1.21-1.52H876A4.23,4.23,0,0,1,875.52,68Zm4-2.91V61.88h-1.9v3.18Zm-1.9,7.06v3.59h2.08V72.12Z"/><path class="cls-1" d="M629.33,37.18h11.16v-23h-9.11V12.74h21.75v1.41h-9.41v23h10.87v1.41H629.33Z"/><path class="cls-1" d="M670.9,11.8h2.94v1.29H686V12H689V24.26H686V22.73h-6Q682.35,34,692.35,37.07a3.53,3.53,0,0,0-.88,4q-11.61-4.94-12.05-18.33h-5.58v7.75q0,3.54-5.29,9.41a12.45,12.45,0,0,0-.88.94h-.88a16.55,16.55,0,0,0,4.11-9.76ZM686,14.27H673.84v7.28H686Z"/><path class="cls-1" d="M712.18,20V12.27h2.94v28h-2.94V33.19a12.73,12.73,0,0,1-7,5.64,4.78,4.78,0,0,0-.88-3.53c3.82,0,6.46-1.09,7.93-3.29V21.2h-6.76V20Zm7.35,17.51V12.27h2.94V24l5.58-7.29,1.32.83-6.9,8.22V37.07c0,.39.39.58,1.17.58H726a1.19,1.19,0,0,0,1.18-.58l1.47-5.53h.73l-.44,4.23h.88V38a2.3,2.3,0,0,1-2.5,2h-5C720.56,39.93,719.62,39.1,719.53,37.54Z"/><path class="cls-1" d="M754.64,21.2c-.59-1.17-1.13-2.35-1.62-3.53-.1-.23,0-.27.15-.11a5.11,5.11,0,0,1,1.17.58c1.47-1.33,2.26-3.52,2.35-6.58h3.53a6.37,6.37,0,0,1-.73,2.59h8.08v1.17h-7.94a15.2,15.2,0,0,1,3.23,2.35,8,8,0,0,1-2.05,2.12,30.79,30.79,0,0,1-1.47-4.47h-.59a21.71,21.71,0,0,1-3.82,3.06,21.1,21.1,0,0,1,2.2,1.41,12.47,12.47,0,0,1-1,1.41h8.37v-.7h2.94V25c-.88-.78-1.86-.55-2.94.71V22.38h-19V25h-2.94V20.5h2.94v.7Zm-12-1.88a11,11,0,0,0,3.53-7.76h3.52v.24a8.79,8.79,0,0,1-.88,2.35h5.88v1.17h-5.59A18.35,18.35,0,0,1,752,17.91a8.13,8.13,0,0,1-2,2.12,16,16,0,0,1-1.18-4.71H748a21.89,21.89,0,0,1-3.38,2.94l-1.32,1.06Zm7.2,21.62h-2.94V24h2.94V25.2h9.84V24h2.94v7.05h-2.94v-.7h-9.84v2.82h11v-.94h2.94v8.46h-2.94V39.06h-11Zm0-14.57v2.82h9.84V26.37Zm0,8v3.53h11V34.36Z"/><path class="cls-1" d="M780.05,25.2q9.56-6.82,10.29-13.4h3.82c-.4,1.1.29,2.58,2.05,4.46q2.35,3.3,9.4,5.65a3.44,3.44,0,0,0-1,3.52,18.18,18.18,0,0,1-4.85-2.58v.47H785.05v-.94l-4,2.82Zm17.63,13.16H787.1v2.35h-2.93V26.37h2.93V28h10.58V26.61h2.94v14.1h-2.94Zm1.18-16.22a19,19,0,0,1-5.59-8.46q-1,3.06-6.9,7.64l-1,.82Zm-1.18,15v-8H787.1v8Z"/><path class="cls-1" d="M817.51,40.47q1.92-3,2.06-10.22V14.62h2.94v1.76h9.25V11.8h2.94v4.58h4a17.62,17.62,0,0,1-2.06-4.23,22,22,0,0,1,3.09,1.76l.44.36A6.18,6.18,0,0,1,839,16.38h3.53v1.18H834.7v4.82q0,6.11,1,8.81,2.35-3.28,2.35-10H841c.19,5.17-1.27,9.17-4.41,12a7.39,7.39,0,0,0,3.82,3.64l1.47-5.52h.44l-.44,5.87.73.24v3.41a12.34,12.34,0,0,1-8.37-5.76,67,67,0,0,1-7.49,4.7h-1a44,44,0,0,0,7.79-6,33.49,33.49,0,0,1-1.77-11.87V17.56h-9.25v5.29H826V21.2H829V34.13q-.15,1.88-3.82,2.94c-.49-.16-.78-.2-.88-.12l-1.17.12-.3-.12c2.16-.71,3.23-1.57,3.23-2.59V24h-3.52v5.64c.1,3.69-1.28,7.29-4.11,10.81Z"/><path class="cls-1" d="M863.64,13.21V12h2.94v9.88h2.35V12h2.94V13h3.23V11.8H878V21.91H875.1V20.73h-3.23v.82l2.35.94.88.36a4.47,4.47,0,0,1-1,1.64h6v1.18h-9.7a21.5,21.5,0,0,0,10.73,2.82,3,3,0,0,0-.74,3.05,9,9,0,0,1-2.06-.47v9.4H875.4V38.83h-3.53v1.41h-2.94V29.43h2.94v.94h3.53v-.24a14.87,14.87,0,0,1-5.88-4.46h-1.91a42.86,42.86,0,0,1-7.49,4.11v.59h3.52v-.94h2.94V40.24h-2.94V38.83h-3.52v1.64h-2.94V31l-.88.35h-1.18a34.94,34.94,0,0,0,9.26-5.64h-9V24.49h9.69a9.38,9.38,0,0,0,.74-1.88,2.67,2.67,0,0,1,.29-.7h-2.5V20.73h-3.23v1.65h-2.94V12h2.94v1.18Zm-3.52,18.33v6.11h3.52V31.54Zm.29-17.16v5.18h3.23V14.38Zm7.93,10.11h5.15l-2.06-2.58h-2.2A6.8,6.8,0,0,1,868.34,24.49Zm6.76-4.93V14.15h-3.23v5.41Zm-3.23,12v6.11h3.53V31.54Z"/><line class="cls-2" y1="50.72" x2="316.04" y2="50.72"/><line class="cls-2" x1="1050.48" y1="50.72" x2="1366.52" y2="50.72"/></g></g></svg>