<svg xmlns="http://www.w3.org/2000/svg" viewBox="0 0 455.27 46"><defs><style>.cls-1{fill:#b13234;}</style></defs><title>資產 141</title><g id="圖層_2" data-name="圖層 2"><g id="圖層_3" data-name="圖層 3"><path class="cls-1" d="M30.74,0a16.63,16.63,0,0,1,5.42,3.44l-.22.18a209.2,209.2,0,0,1-26,1.8v8.32h19V11.93h4.52q.67,15.38-7,22.06,3.6,2.9,12.43,5.07-2.49,2.34-1.81,4.7-9-2.9-14-7a95.39,95.39,0,0,1-11.31,5.42q-4.07,2-5.65,2.71H4.52a85.4,85.4,0,0,0,17-9.94q-5.41-6.51-6.1-19.35H10V21.7q0,9-1.81,13.38-1.14,3.62-7,9H0A19,19,0,0,0,4.52,35.8q.9-4.15.9-15.91V2.17H10V4.88Q24,2.9,30.74,0ZM24.19,32.37q5-5.61,4.74-16.82H16.27A27.69,27.69,0,0,0,24.19,32.37Z"/><path class="cls-1" d="M76,10.85V7.05H59.67v-2H76V.72h4.52V5.06H97.64v2H80.47v3.8h9V9.4H94V20.61H89.51V19.17h-9v3.61h9V21.7H94v6.51H98.1v2H94v8.13H89.51V35.62h-9v4q.45,4.51-8.37,5.61c0-.61-.45-.91-1.35-.91l-2.94.36-.45-.72q9.49-1.62,8.59-4.52v-3.8h-14v-2H76V30.2H58.32v-2H76V24.77h-14v-2H76V19.17h-9v1.44H62.38V9.4H66.9v1.45Zm0,2h-9V17h9ZM89.51,17V12.84h-9V17Zm-9,7.77v3.44h9V24.77Zm0,8.86h9V30.2h-9Z"/><path class="cls-1" d="M136.07,37.61Q133.35,41.23,120.7,45h-3.62q8.82-2.72,12.21-7.42ZM133.81.18q3.62.92,5.65,1.63l-.23.36a7.38,7.38,0,0,1-1.58,2.35h12.66V2.89h4.52V8.68c-.9-1-1.66-1.38-2.26-1.27a4.85,4.85,0,0,0-2.26,2V6.33H122.06V10h-4.52V2.71h4.52V4.52h13.78c-.3-.36-.9-1.27-1.8-2.71-.31-.6-.53-1-.68-1.27ZM145.11,8h4.75v5.6h5v1.81h-5V21h-.68V37.79h-4.75V36.16h-16.5v2h-4.74v-17h-.91l.45-5.79h-5.19V13.56h5.19L123,8.14h4.52V9.4h17.63Zm-11.3,7.41H127l-.23,2.35h7Zm-7,4.16V21h1.13v.72h16.5v-.91h.68V19.53Zm7-8.14h-6.56v2.17h6.56Zm10.62,12.12h-16.5v2.35h14.24v1.81H127.93V30h14.24v2H127.93v2.35h16.5Zm-5.65,13.2a116.16,116.16,0,0,1,12.66,4.34,15.19,15.19,0,0,1-1.13,4.34,100.32,100.32,0,0,1-12.66-8.68Zm-.68-25.32v2.17h7V11.39Zm7,4h-7v2.35h7Z"/><path class="cls-1" d="M202.37,32.12a14.89,14.89,0,0,0,.8,5,11.16,11.16,0,0,0,2.21,3.76,9.31,9.31,0,0,0,3.33,2.35,10.43,10.43,0,0,0,4.16.82,6.35,6.35,0,0,0,2.57-.55,9.8,9.8,0,0,0,2.31-1.41,11.88,11.88,0,0,0,1.9-2A13,13,0,0,0,221,37.92l1.79,1.21A17.85,17.85,0,0,1,221,41.71a12.28,12.28,0,0,1-2.46,2.19,12.66,12.66,0,0,1-3.18,1.53,12.86,12.86,0,0,1-4,.57,14.92,14.92,0,0,1-4-.51A14.06,14.06,0,0,1,204,44.08a13,13,0,0,1-2.79-2.19,13.27,13.27,0,0,1-2.07-2.83,14.2,14.2,0,0,1-1.31-3.3,14.64,14.64,0,0,1-.45-3.64,14.3,14.3,0,0,1,1.79-7,13.79,13.79,0,0,1,2.13-2.87,13.39,13.39,0,0,1,2.83-2.23,14.25,14.25,0,0,1,3.46-1.44,15.18,15.18,0,0,1,4-.52,11.34,11.34,0,0,1,3.72.58A12.92,12.92,0,0,1,221,22.38,17.28,17.28,0,0,1,222.83,25L221,26.27a13.37,13.37,0,0,0-3.57-4.75A7.2,7.2,0,0,0,212.89,20a10.15,10.15,0,0,0-4.12.84,9.82,9.82,0,0,0-3.34,2.41,11.74,11.74,0,0,0-2.24,3.81A14.78,14.78,0,0,0,202.37,32.12Z"/><path class="cls-1" d="M236.73,45.81a10.48,10.48,0,0,1-4.14-.82,10.05,10.05,0,0,1-5.43-5.56,10.65,10.65,0,0,1-.78-4.07,11.66,11.66,0,0,1,.78-4.28,10.67,10.67,0,0,1,2.15-3.48,10,10,0,0,1,7.42-3.21,10.48,10.48,0,0,1,4.13.79,10.05,10.05,0,0,1,3.27,2.15,9.74,9.74,0,0,1,2.17,3.21,10.27,10.27,0,0,1,.77,4,12.51,12.51,0,0,1-.77,4.39,11.28,11.28,0,0,1-2.17,3.6,10.06,10.06,0,0,1-3.27,2.43A9.57,9.57,0,0,1,236.73,45.81Zm.73-1.51a3.76,3.76,0,0,0,2.11-.63A5.7,5.7,0,0,0,241.23,42a8.11,8.11,0,0,0,1.08-2.44,10.94,10.94,0,0,0,.39-3,22.89,22.89,0,0,0-.37-4.18,11.08,11.08,0,0,0-1.18-3.4A6.38,6.38,0,0,0,239,26.75a5.93,5.93,0,0,0-3.22-.83,3.41,3.41,0,0,0-1.9.6,5.65,5.65,0,0,0-1.61,1.62,8.92,8.92,0,0,0-1.12,2.41,10,10,0,0,0-.42,2.93,18.81,18.81,0,0,0,.45,4.21,12.45,12.45,0,0,0,1.31,3.44,7.07,7.07,0,0,0,2.12,2.31A5,5,0,0,0,237.46,44.3Z"/><path class="cls-1" d="M254.69,24.81V39.44a3.12,3.12,0,0,0,.34,1.44,3.63,3.63,0,0,0,.92,1.18,4.77,4.77,0,0,0,3,1.09,3.45,3.45,0,0,0,1.24-.26,5.53,5.53,0,0,0,1.29-.72,7.8,7.8,0,0,0,1.18-1.06,6,6,0,0,0,.92-1.29v-15h3.89V45.37h-3.89V41.52a8.64,8.64,0,0,1-1.28,1.67,9.81,9.81,0,0,1-1.68,1.36,8,8,0,0,1-1.86.92,5.33,5.33,0,0,1-1.81.34,5.79,5.79,0,0,1-2.41-.51,6.34,6.34,0,0,1-2-1.37,6.2,6.2,0,0,1-1.32-2,6.36,6.36,0,0,1-.48-2.47V24.81Z"/><path class="cls-1" d="M272.06,24.81H276v3.75a13.25,13.25,0,0,1,3.68-3.13,8.11,8.11,0,0,1,3.9-1,3.92,3.92,0,0,1,1.92.49A5,5,0,0,1,287,26.21a6.68,6.68,0,0,1,1.06,2,7.44,7.44,0,0,1,.39,2.42V45.37h-3.9V31.3a4.67,4.67,0,0,0-.88-3.08,2.78,2.78,0,0,0-2.24-1,4.52,4.52,0,0,0-1.31.21,7.29,7.29,0,0,0-1.4.6,10.63,10.63,0,0,0-1.43.94A12.81,12.81,0,0,0,276,30.13V45.37h-3.89Z"/><path class="cls-1" d="M303.36,42.75A6.12,6.12,0,0,1,301.29,45a5.94,5.94,0,0,1-3.2.82,3.91,3.91,0,0,1-1.7-.35,3,3,0,0,1-1.19-1,4.39,4.39,0,0,1-.71-1.51,7.94,7.94,0,0,1-.22-2V26.53h-3.39v-1a5.28,5.28,0,0,0,2.69-.62,5.11,5.11,0,0,0,1.74-1.69,8.61,8.61,0,0,0,1.05-2.46c.26-.93.48-1.92.68-3h1.11v7h4.39v1.72h-4.39V41a2.28,2.28,0,0,0,.16.87,2.17,2.17,0,0,0,.45.69,2.11,2.11,0,0,0,1.5.65,2.26,2.26,0,0,0,1.2-.34,3.72,3.72,0,0,0,.94-.83Z"/><path class="cls-1" d="M314.39,45.81a8.89,8.89,0,0,1-3.73-.79,9.71,9.71,0,0,1-3-2.13,10.11,10.11,0,0,1-2.82-7,14.33,14.33,0,0,1,.7-4.58,11.14,11.14,0,0,1,1.95-3.64,8.79,8.79,0,0,1,7-3.25,8.64,8.64,0,0,1,8.71,8.67h-14.6a13.82,13.82,0,0,0,.51,3.84A9.88,9.88,0,0,0,310.47,40a6.74,6.74,0,0,0,2.19,2,5.48,5.48,0,0,0,2.79.73,6.93,6.93,0,0,0,2.44-.43A8.6,8.6,0,0,0,320,41.13a7.45,7.45,0,0,0,1.61-1.61,5.88,5.88,0,0,0,.94-1.87l1.11.52a9.67,9.67,0,0,1-1.36,3,11.47,11.47,0,0,1-2.18,2.42,10.77,10.77,0,0,1-2.74,1.64A8,8,0,0,1,314.39,45.81Zm3.89-14.39a6,6,0,0,0-.4-2.18,5.48,5.48,0,0,0-1.07-1.74,5,5,0,0,0-1.61-1.16,4.69,4.69,0,0,0-2-.42,3.61,3.61,0,0,0-1.68.42,4.94,4.94,0,0,0-1.44,1.15,6.17,6.17,0,0,0-1,1.73,7.31,7.31,0,0,0-.5,2.18Z"/><path class="cls-1" d="M327.32,24.81h3.86V28.7a20.08,20.08,0,0,1,1.22-1.65,11.92,11.92,0,0,1,1.37-1.38,6.52,6.52,0,0,1,1.47-.94,3.63,3.63,0,0,1,1.54-.34,3.48,3.48,0,0,1,1.18.2,3.19,3.19,0,0,1,1,.54,2.56,2.56,0,0,1,.65.78,2.11,2.11,0,0,1,.23.95,1.85,1.85,0,0,1-.59,1.5,2.43,2.43,0,0,1-1.65.51,3.29,3.29,0,0,1-1.05-.14,5.21,5.21,0,0,1-.71-.33c-.21-.12-.43-.23-.65-.33a2.12,2.12,0,0,0-.82-.14,1.47,1.47,0,0,0-.77.24,3.58,3.58,0,0,0-.78.67,10.39,10.39,0,0,0-.8,1c-.26.38-.53.81-.8,1.27V45.37h-3.86Z"/><path class="cls-1" d="M353.8,24.81v1.72h-5.23V45.37h-3.9V26.53h-4.1V24.81h4.1V22.4a8.78,8.78,0,0,1,.57-3.17,8.55,8.55,0,0,1,1.56-2.58,7.16,7.16,0,0,1,2.32-1.73,6.39,6.39,0,0,1,2.84-.64,9,9,0,0,1,2.31.28,5.93,5.93,0,0,1,1.7.75A3.29,3.29,0,0,1,357,16.42a2.75,2.75,0,0,1,.36,1.37,1.92,1.92,0,0,1-.16.81,1.67,1.67,0,0,1-.44.6,1.86,1.86,0,0,1-.63.39,2.22,2.22,0,0,1-.77.13,1.77,1.77,0,0,1-1.09-.29,1.92,1.92,0,0,1-.57-.72,5.58,5.58,0,0,1-.32-.95,4.12,4.12,0,0,0-.34-1,1.9,1.9,0,0,0-.62-.73,2.08,2.08,0,0,0-1.18-.28,1.79,1.79,0,0,0-1.08.35,3.2,3.2,0,0,0-.86.93,4.65,4.65,0,0,0-.56,1.32,6.06,6.06,0,0,0-.2,1.53v4.88Z"/><path class="cls-1" d="M371.41,45.37h-3.9V42.56c-.46.36-.91.74-1.36,1.12a10.29,10.29,0,0,1-1.44,1.06,7.41,7.41,0,0,1-1.71.77,7.18,7.18,0,0,1-2.18.3,5.35,5.35,0,0,1-2.08-.39,4.58,4.58,0,0,1-2.58-2.71,5.62,5.62,0,0,1-.35-2,5.54,5.54,0,0,1,.5-2.38,6.57,6.57,0,0,1,1.37-1.91,9.7,9.7,0,0,1,2-1.49,22.16,22.16,0,0,1,2.45-1.17c.87-.34,1.76-.65,2.67-.92s1.82-.51,2.69-.74V30.78a9.33,9.33,0,0,0-.26-2.36,4.13,4.13,0,0,0-.76-1.56A2.76,2.76,0,0,0,365.3,26a4.63,4.63,0,0,0-1.58-.26,4,4,0,0,0-1.6.27,2.44,2.44,0,0,0-1,.71,2.27,2.27,0,0,0-.48,1,4.92,4.92,0,0,0-.13,1.14,6.83,6.83,0,0,1-.08,1,2.79,2.79,0,0,1-.3.87,1.91,1.91,0,0,1-.59.61,1.84,1.84,0,0,1-1,.23,1.87,1.87,0,0,1-.83-.18,2,2,0,0,1-.65-.51,2.38,2.38,0,0,1-.42-.77,3.22,3.22,0,0,1-.14-1,3.15,3.15,0,0,1,.64-1.89,5.52,5.52,0,0,1,1.71-1.52,9.55,9.55,0,0,1,2.51-1,12,12,0,0,1,3-.37,11.68,11.68,0,0,1,3.26.39,5.65,5.65,0,0,1,2.15,1.1,4.14,4.14,0,0,1,1.19,1.73,6.62,6.62,0,0,1,.36,2.24Zm-3.9-12c-.56.19-1.14.41-1.74.65s-1.19.51-1.77.81-1.12.63-1.65,1A8.64,8.64,0,0,0,361,37a4.81,4.81,0,0,0-.94,1.26,3,3,0,0,0-.35,1.4A3.81,3.81,0,0,0,360,41a3.9,3.9,0,0,0,.7,1.19,3.22,3.22,0,0,0,1,.8,2.53,2.53,0,0,0,1.19.3,4.24,4.24,0,0,0,1.25-.18,6.12,6.12,0,0,0,1.15-.49,8.7,8.7,0,0,0,1.11-.72q.56-.41,1.14-.87Z"/><path class="cls-1" d="M384.92,45.81a8.38,8.38,0,0,1-3.6-.8,9.06,9.06,0,0,1-2.93-2.17,10.15,10.15,0,0,1-2-3.23,10.87,10.87,0,0,1-.72-4,12,12,0,0,1,.79-4.39,11.58,11.58,0,0,1,2.18-3.58,10.31,10.31,0,0,1,3.23-2.41,9,9,0,0,1,4-.88,11.59,11.59,0,0,1,3,.37,8.3,8.3,0,0,1,2.39,1,5.15,5.15,0,0,1,1.56,1.56,3.53,3.53,0,0,1,.57,1.93,1.77,1.77,0,0,1-.23.87,2.42,2.42,0,0,1-.59.72,3,3,0,0,1-.83.49,2.61,2.61,0,0,1-.94.18,2.24,2.24,0,0,1-.95-.2,2.56,2.56,0,0,1-.72-.52,2.31,2.31,0,0,1-.61-1.54,5.64,5.64,0,0,0-.15-1.33,2.58,2.58,0,0,0-.5-1.07,2.46,2.46,0,0,0-1-.71,4.36,4.36,0,0,0-1.62-.26,5,5,0,0,0-2.39.57A5.31,5.31,0,0,0,381.08,28,7,7,0,0,0,380,30.26a9.75,9.75,0,0,0-.38,2.74,13.79,13.79,0,0,0,.49,3.74,10.47,10.47,0,0,0,1.39,3.08,6.9,6.9,0,0,0,2.15,2.09,5.22,5.22,0,0,0,2.81.78A5.39,5.39,0,0,0,390.53,41a7.5,7.5,0,0,0,1.26-1.78,17.33,17.33,0,0,0,.95-2.14l1.17.5a14.74,14.74,0,0,1-1.33,3.46,10.09,10.09,0,0,1-2,2.59,8.1,8.1,0,0,1-2.57,1.6A8.51,8.51,0,0,1,384.92,45.81Z"/><path class="cls-1" d="M408,42.75A6.07,6.07,0,0,1,405.9,45a5.88,5.88,0,0,1-3.19.82,3.91,3.91,0,0,1-1.7-.35,3.15,3.15,0,0,1-1.2-1,4.38,4.38,0,0,1-.7-1.51,7.94,7.94,0,0,1-.22-2V26.53h-3.4v-1a5.29,5.29,0,0,0,2.7-.62,5.08,5.08,0,0,0,1.73-1.69A8.62,8.62,0,0,0,401,20.75c.26-.93.48-1.92.68-3h1.11v7h4.39v1.72h-4.39V41a2.28,2.28,0,0,0,.16.87,2.17,2.17,0,0,0,.45.69,2.11,2.11,0,0,0,1.5.65,2.26,2.26,0,0,0,1.2-.34,3.67,3.67,0,0,0,.93-.83Z"/><path class="cls-1" d="M414.22,24.81V39.44a3.24,3.24,0,0,0,.33,1.44,3.77,3.77,0,0,0,.92,1.18,4.73,4.73,0,0,0,1.37.79,4.64,4.64,0,0,0,1.68.3,3.45,3.45,0,0,0,1.24-.26,5.68,5.68,0,0,0,1.28-.72,7.86,7.86,0,0,0,1.19-1.06,6.34,6.34,0,0,0,.92-1.29v-15H427V45.37h-3.88V41.52a8.32,8.32,0,0,1-1.29,1.67,9.38,9.38,0,0,1-1.67,1.36,8.46,8.46,0,0,1-1.86.92,5.39,5.39,0,0,1-1.82.34,5.74,5.74,0,0,1-2.4-.51,6.42,6.42,0,0,1-3.78-5.86V24.81Z"/><path class="cls-1" d="M446,45.37h-3.9V42.56c-.46.36-.92.74-1.36,1.12a10.29,10.29,0,0,1-1.44,1.06,7.82,7.82,0,0,1-1.71.77,7.23,7.23,0,0,1-2.18.3,5.32,5.32,0,0,1-2.08-.39,4.56,4.56,0,0,1-2.59-2.71,5.85,5.85,0,0,1-.35-2,5.54,5.54,0,0,1,.5-2.38,6.57,6.57,0,0,1,1.37-1.91,9.51,9.51,0,0,1,2-1.49,21.33,21.33,0,0,1,2.45-1.17c.86-.34,1.75-.65,2.67-.92s1.81-.51,2.69-.74V30.78a8.86,8.86,0,0,0-.27-2.36,4.13,4.13,0,0,0-.75-1.56,2.73,2.73,0,0,0-1.2-.85,4.59,4.59,0,0,0-1.58-.26,4,4,0,0,0-1.6.27,2.42,2.42,0,0,0-1.46,1.71,5.52,5.52,0,0,0-.12,1.14,5.72,5.72,0,0,1-.09,1,2.36,2.36,0,0,1-.3.87,1.72,1.72,0,0,1-.59.61,1.84,1.84,0,0,1-1,.23,1.9,1.9,0,0,1-.83-.18,2,2,0,0,1-.64-.51,2.06,2.06,0,0,1-.42-.77,2.93,2.93,0,0,1-.15-1,3.15,3.15,0,0,1,.64-1.89,5.64,5.64,0,0,1,1.71-1.52,9.62,9.62,0,0,1,2.52-1,12,12,0,0,1,3-.37,11.81,11.81,0,0,1,3.27.39,5.81,5.81,0,0,1,2.15,1.1,4,4,0,0,1,1.18,1.73,6.38,6.38,0,0,1,.37,2.24Zm-3.9-12c-.56.19-1.14.41-1.74.65a18.85,18.85,0,0,0-1.77.81,16.69,16.69,0,0,0-1.65,1A9.22,9.22,0,0,0,435.57,37a5,5,0,0,0-.94,1.26,3,3,0,0,0-.34,1.4,3.8,3.8,0,0,0,.26,1.42,4.11,4.11,0,0,0,.7,1.19,3.15,3.15,0,0,0,1,.8,2.53,2.53,0,0,0,1.19.3,4.29,4.29,0,0,0,1.25-.18,6.41,6.41,0,0,0,1.15-.49,8.7,8.7,0,0,0,1.11-.72q.55-.41,1.14-.87Z"/><path class="cls-1" d="M455.27,45.37h-3.88V15.45l2.77-1.17h1.11Z"/></g></g></svg>