<svg xmlns="http://www.w3.org/2000/svg" viewBox="0 0 378.32 358.56"><defs><style>.cls-1{fill:#d6d2c7;}</style></defs><title>資產 145</title><g id="圖層_2" data-name="圖層 2"><g id="圖層_3" data-name="圖層 3"><path class="cls-1" d="M128.28,150.79c.53-.37,1-.78,1.59-1.11A23.79,23.79,0,0,0,136,144.8a24.1,24.1,0,0,0,2.93-4.29c1.78-3.43,1.41-6.86-.46-10.17a18.33,18.33,0,0,0-5.09-5.58c-1-.74-1.91-1.55-2.81-2.38A30.05,30.05,0,0,0,124,118c-.14-.08-.2-.32-.3-.49a1.85,1.85,0,0,1,.4-.12,4.64,4.64,0,0,1,.65,0l1.09,0a138.24,138.24,0,0,0,19.48-1.54c11.2-1.61,22.18-4.27,33.18-6.86,14.88-3.5,29.73-7.1,44.63-10.5q17.39-4,34.84-7.53c11.28-2.31,22.6-4.41,33.91-6.59,2.85-.54,5.71-1,8.55-1.54a9,9,0,0,1,3.66.06A166.69,166.69,0,0,1,344.5,96.83c3.43,1.72,6.73,3.7,10.08,5.56a1.94,1.94,0,0,1,.43.47c-.21.16-.39.42-.62.47-1.27.27-2.55.55-3.83.7a4.18,4.18,0,0,1-1.69-.31c-2.76-.9-5.49-1.86-8.24-2.75a73.64,73.64,0,0,0-16.78-3.41A78.78,78.78,0,0,0,313,97.32a148.75,148.75,0,0,0-16.83,1.83c-13.18,2.21-26,5.74-38.8,9.57-10.48,3.13-20.92,6.45-31.3,9.88a247.67,247.67,0,0,0-26.56,10.26,94.16,94.16,0,0,0-17.52,10,36.07,36.07,0,0,0-6,5.66,17.91,17.91,0,0,0-4.25,11.16,12.31,12.31,0,0,0,1.7,6.23,32.22,32.22,0,0,0,8.6,10c2.85,2.22,5.81,4.32,8.8,6.34s3,2.47,1.49,5.66a77.83,77.83,0,0,0-3.18,7.61,2.87,2.87,0,0,1-2.35,2.18c-4.62.87-9.23,1.87-13.87,2.66q-8.24,1.38-16.54,2.47c-3.8.5-7.64.71-11.46,1.1a235.36,235.36,0,0,1-25.19.91c-3.63,0-7.26,0-10.88-.17q-6.83-.39-13.63-1.15c-4.82-.52-9.64-1.11-14.43-1.88a215.26,215.26,0,0,1-40.71-10.71c-2.75-1-2.34-1-.65-2.87a90.05,90.05,0,0,0,7.64-8.9c2.81-4,5.31-8.12,6.08-13.07a19.88,19.88,0,0,0-1-9,42.36,42.36,0,0,0-1.71-4,7.15,7.15,0,0,1-.23-.79,4.07,4.07,0,0,1,.93.31c1.53,1,3,2.05,4.58,2.91A58.59,58.59,0,0,0,71.51,157,94,94,0,0,0,97,158.65a81.49,81.49,0,0,0,24.19-4.9c2-.76,4-1.63,6-2.45l-.11.19c-1,1.71-1,2,.64,2.83s3.11,1.54,4.67,2.31a3.51,3.51,0,0,0,3.33-.06c.58-.3,1.18-.57,1.75-.87a42,42,0,0,0,11.54-8.4,21.64,21.64,0,0,0,4.08-6.11c1.29-3.05,1.08-6.24.58-9.41a15.13,15.13,0,0,0-.91-2.89,2.32,2.32,0,0,0-2.67-1.71c-1.73.18-3.46.34-5.19.53a2.24,2.24,0,0,0-.81.28c-.8.47-1.59,1-2.39,1.44a1.61,1.61,0,0,0-.85,2c.1.42.3.82.42,1.24a9.58,9.58,0,0,1-.56,7.58,17.09,17.09,0,0,1-2,3.07A25.82,25.82,0,0,1,128.28,150.79Zm140.61-46.72c.69-.14,1.19-.23,1.67-.35,3.44-.86,6.88-1.74,10.32-2.61,2.6-.65,5.2-1.28,7.79-2a1.89,1.89,0,0,0,1.19-.76c.27-.63-.33-1-.81-1.37-1.12-.8-2.25-1.58-3.39-2.36-2.56-1.77-5.13-3.52-7.69-5.3a3.51,3.51,0,0,0-3.67-.53,4.44,4.44,0,0,1-.63.15q-8.44,2-16.88,4.1a4.44,4.44,0,0,0-1.38.58.71.71,0,0,0-.14,1.13,4.46,4.46,0,0,0,.67.55c3.77,2.69,7.54,5.39,11.33,8.06A7.8,7.8,0,0,0,268.89,104.07ZM133.3,193.58c1.1,0,2,.11,2.59-.77,1.33-2.16,2.63-4.33,3.93-6.51a.79.79,0,0,0-.4-1.25,6.43,6.43,0,0,0-1.43-.45c-1.36-.23-2.72-.45-4.08-.63-2.94-.4-5.89-.75-8.83-1.16a2.7,2.7,0,0,0-2.91,1.41c-1.14,1.85-2.34,3.67-3.5,5.51-.67,1.06-.48,1.58.66,1.89a7.93,7.93,0,0,0,1.07.17l5.38.75Zm-17.89-8.79c.4-.22,1.21-.42,1.57-.93,1.45-2.07,2.76-4.23,4.11-6.37a.81.81,0,0,0-.41-1.25,4.71,4.71,0,0,0-1.23-.36c-1.28-.22-2.56-.44-3.85-.61-3-.41-6-.76-9-1.18a2.58,2.58,0,0,0-2.79,1.18c-1.31,2-2.65,4-4,6a.84.84,0,0,0,.5,1.35,6.3,6.3,0,0,0,1.07.19l11.35,1.65Zm-7.92,11c1.63,0,2-.06,2.64-1q2-3,3.83-6.05c.57-.94.33-1.45-.68-1.79a4.74,4.74,0,0,0-.85-.17l-13.31-1.9A2.34,2.34,0,0,0,96.74,186c-1.37,2-2.77,4.07-4.12,6.13-.53.81-.32,1.28.66,1.59a7.76,7.76,0,0,0,1.07.2l5.79.82Zm51.89-4.3a2.58,2.58,0,0,0,2.82-1.57c.94-1.71,1.9-3.41,2.94-5.06.77-1.22.57-1.85-1-2.27a7.9,7.9,0,0,0-.85-.12c-2.86-.41-5.72-.83-8.58-1.22-1.36-.19-2.72-.33-4.08-.49a2.67,2.67,0,0,0-2.87,1.47c-1.1,1.87-2.28,3.68-3.42,5.53-.54.88-.29,1.47.72,1.76a9.5,9.5,0,0,0,1.07.15c1.86.27,3.72.54,5.58.79Zm-37.69-17.57A2.24,2.24,0,0,0,124,173c1.3-2,2.61-4,3.87-6a.9.9,0,0,0-.47-1.42,4.17,4.17,0,0,0-1.24-.39c-4.22-.59-8.46-1.17-12.69-1.73a2.5,2.5,0,0,0-2.62,1.15c-1.27,1.93-2.59,3.84-3.86,5.78-.48.73-.3,1.22.51,1.5a7,7,0,0,0,1.27.27q3.12.45,6.24.86ZM132.08,172c-1.82-.05-2.16.09-3.07,1.45-1.2,1.81-2.36,3.64-3.51,5.48-.54.87-.38,1.33.63,1.57s2.27.39,3.42.56l10.51,1.49a2.38,2.38,0,0,0,2.68-1c1.19-2,2.42-3.94,3.58-6,.48-.85.25-1.3-.7-1.64a6.68,6.68,0,0,0-1.27-.28c-1.5-.24-3-.48-4.5-.68C137.2,172.69,134.55,172.35,132.08,172Zm6.64-10.51a3,3,0,0,0-3.36,1.83c-.56,1-1.21,2-1.84,2.94-.46.73-1,1.43-1.42,2.18a.85.85,0,0,0,.48,1.37,3.82,3.82,0,0,0,.84.2c3.07.42,6.14.86,9.22,1.26,1.5.2,3,.36,4.52.51a2.22,2.22,0,0,0,2.33-1.23c.73-1.25,1.52-2.45,2.28-3.69.37-.61.76-1.23,1.08-1.87a1,1,0,0,0-.64-1.53,5.33,5.33,0,0,0-1.05-.24c-1.36-.21-2.72-.41-4.07-.59C144.3,162.26,141.51,161.89,138.72,161.51Zm26.75,18.93c1.4.13,2.3-.18,2.87-1.19,1.08-1.88,2.19-3.74,3.22-5.65.46-.85.23-1.31-.67-1.67a4.65,4.65,0,0,0-1-.28c-4.14-.57-8.3-1.12-12.44-1.71a2.86,2.86,0,0,0-3.25,1.54c-1,1.76-2.11,3.46-3.17,5.17-.68,1.08-.53,1.55.63,1.88a7.73,7.73,0,0,0,1.07.19l6,.82ZM297,93.16l3.82-1c1.47-.37,2.94-.72,4.4-1.13a.55.55,0,0,0,.19-1q-2.54-1.65-5.09-3.27a2.3,2.3,0,0,0-1.87-.19c-2.31.58-4.63,1.08-6.94,1.65a1.39,1.39,0,0,0-.76.63c-.07.11.2.53.41.67q2.31,1.61,4.67,3.14A6.59,6.59,0,0,0,297,93.16ZM80,179.78c1,.06,1,.07,1.75-.93,1.2-1.71,2.39-3.43,3.55-5.18s1-1.9-1.12-2.08a5.39,5.39,0,0,1-1.07-.11,2,2,0,0,0-2.37,1c-1.36,1.95-2.77,3.87-4.16,5.8-.38.54-.24,1,.42,1.1C78,179.58,79,179.66,80,179.78Zm104.46-60.43c-.67.09-1,.1-1.38.18-.62.14-.75.65-.31,1.11.1.1.22.19.33.28,2.49,2,5,3.92,7.47,5.93a2.55,2.55,0,0,0,2.84.23c.67-.26.77-.66.24-1.07-2.5-2-5-3.92-7.54-5.83A9.4,9.4,0,0,0,184.49,119.35Zm-1.24-10.15a6.38,6.38,0,0,0-1.59.27c-.2.1-.3.54-.32.83,0,.13.28.3.45.43,2.52,2,5.05,3.88,7.54,5.87,1,.78,1.89.49,2.85.12a.56.56,0,0,0,.13-1c-.69-.53-1.41-1-2.1-1.53-1.78-1.37-3.53-2.77-5.33-4.11A10.55,10.55,0,0,0,183.25,109.2Zm25.05,4.08a8.05,8.05,0,0,0-1.48.29.53.53,0,0,0-.27.87,2.18,2.18,0,0,0,.46.45c2.53,1.93,5.08,3.83,7.58,5.81a2.71,2.71,0,0,0,3,.18c.49-.21.53-.67.08-1-2.67-2-5.34-4-8-5.93A7.41,7.41,0,0,0,208.3,113.28Zm-1.73-10a5.69,5.69,0,0,0-1.18.17,1.29,1.29,0,0,0-.6.53c-.06.11.1.41.24.55a8.17,8.17,0,0,0,.85.68c2.31,1.74,4.68,3.4,6.91,5.25a2.82,2.82,0,0,0,3,.32c.61-.19.67-.74.14-1.13-2.56-1.89-5.12-3.78-7.71-5.62A7.91,7.91,0,0,0,206.57,103.3Zm24.21,6.92a4.34,4.34,0,0,0-3.1.85,1.09,1.09,0,0,0,.06,1.94,6.62,6.62,0,0,0,6,.23,1.22,1.22,0,0,0,.06-2.24A4.67,4.67,0,0,0,230.78,110.22Zm15.16-10.5a16.55,16.55,0,0,0,2.56-.62c.46-.19,1.05-.75,1.06-1.16a1.87,1.87,0,0,0-.95-1.27,5.28,5.28,0,0,0-5.35-.08c-.39.22-.93.74-.88,1a1.87,1.87,0,0,0,.92,1.28A15.79,15.79,0,0,0,245.94,99.72Zm2.11,6.14a4.46,4.46,0,0,0-3.08.8,1.08,1.08,0,0,0-.09,1.83c1.33,1.21,4.93,1.3,6.36.16a1.07,1.07,0,0,0,0-1.82A4.41,4.41,0,0,0,248.05,105.86Zm-19.24-1.8a21,21,0,0,0,2.83-.77c1.15-.48,1.23-1.39.28-2.15a5.79,5.79,0,0,0-5.76-.28,3.34,3.34,0,0,0-.47.45c-.53.6-.54,1.29.16,1.64A25.21,25.21,0,0,0,228.81,104.06ZM164.7,125.28a20.46,20.46,0,0,0,2.64-.89c.68-.34.67-1.09.1-1.63a4.74,4.74,0,0,0-5.45-.06,1,1,0,0,0,.19,1.76A19.09,19.09,0,0,0,164.7,125.28Zm-1,21.14c.92,0,1.53-.42,1.41-.87-.18-.69-.77-.8-1.35-.78a2.5,2.5,0,0,0-1,.35.58.58,0,0,0,.09,1A7.7,7.7,0,0,0,163.72,146.42Zm-1.66,2.31c1.1,0,1.76-.38,1.59-.9-.25-.74-.9-.6-1.46-.59a1.69,1.69,0,0,0-.81.24.71.71,0,0,0-.29.53.74.74,0,0,0,.33.52A2.3,2.3,0,0,0,162.06,148.73Zm3.05-4.75c1,0,1.59-.32,1.5-.79-.15-.78-.81-.72-1.38-.72a1.84,1.84,0,0,0-.83.19c-.17.08-.38.34-.35.48a1.07,1.07,0,0,0,.41.66A1.83,1.83,0,0,0,165.11,144Z"/><path class="cls-1" d="M168.84,322.43c-3.34,0-6.67,0-10,0q-18.6-.19-37.19-.44c-11.16-.13-22.32-.3-33.49-.41-2.79,0-2.39-.27-2-2.21,1-5.16-.15-10.08-1.57-15-.62-2.15-1.29-4.31-1.7-6.51a14.28,14.28,0,0,1,.64-8.54c.17-.4.36-.79.56-1.18a1.91,1.91,0,0,1,1.75-1.07c1.16-.05,2.32-.13,3.46-.28a1.59,1.59,0,0,1,1.52.61c.67.76,1.37,1.5,2.06,2.24a1.45,1.45,0,0,0,1.55.53c1.67-.51,3.34-1,5-1.53.62-.21.72-.65.37-1.21-.07-.12-.18-.22-.26-.34-1.12-1.5-1.12-1.46.84-1.87,7.51-1.58,15-3.19,22.53-4.76a20.42,20.42,0,0,1,3.65-.42c2.32-.05,4.64,0,7,0A122.23,122.23,0,0,0,151,278.51c14.37-2.21,28.29-6.22,42.16-10.42q9.57-2.89,19.09-6a3,3,0,0,1,3.34.74q7.93,7.26,15.94,14.47c2,1.8,4,3.58,6,5.39.83.75.8,1-.2,1.58-1.4.75-2.85,1.43-4.27,2.16A268.36,268.36,0,0,0,206.36,302a111.45,111.45,0,0,0-19.3,15.83c-1.09,1.16-2.21,2.3-3.2,3.54a3,3,0,0,1-2.62,1.21c-4.13,0-8.27,0-12.4,0Z"/><path class="cls-1" d="M310.87,134.81a53.48,53.48,0,0,1,22.87,5.42c1.89.92,3.74,1.92,5.59,2.91.44.24.39.57-.08.75s-1.09.39-1.65.57c-23.88,7.66-47.34,16.47-70.46,26.17-6.54,2.74-12.93,5.84-19.36,8.86a169.78,169.78,0,0,0-21.57,12.14A98.14,98.14,0,0,0,208.85,206c-.3.31-.61.61-.89.95a1.08,1.08,0,0,1-1.55.19c-.81-.48-1.62-1-2.42-1.45a91.68,91.68,0,0,1-12.3-9.65,2.47,2.47,0,0,1-.73-3.26c1.12-2.43,2.19-4.88,3.29-7.32.21-.46.5-.89.69-1.35a4.59,4.59,0,0,0-1.79-5.9c-.6-.41-1.24-.75-1.84-1.15-1.15-.77-1.16-.94,0-1.87a65.71,65.71,0,0,1,9.74-6.53,161.39,161.39,0,0,1,22.45-10.4c16-6,32.24-11.38,48.67-16.11,7.1-2,14.23-4,21.5-5.33a85.93,85.93,0,0,1,12.69-1.67C307.84,135.12,309.36,134.94,310.87,134.81Z"/><path class="cls-1" d="M84.48,242.45c-3.7,0-7.41.14-11.09,0-4.63-.23-9.24-.73-13.86-1.12a174.58,174.58,0,0,1-18.47-2.73,135.57,135.57,0,0,1-21.82-5.75,47.55,47.55,0,0,1-12.53-6.88,13.37,13.37,0,0,1-5.45-9.28c-.34-2.81-.79-5.59-1.19-8.39,0-.21,0-.43-.06-.65-.06-1.24.19-1.45,1.35-1.05,3.56,1.23,7.1,2.53,10.68,3.7a188.3,188.3,0,0,0,27.61,6.8c5.5.91,11,1.78,16.54,2.42,4.6.54,9.24.7,13.86,1.06a187.23,187.23,0,0,0,20.65.29c6-.19,12-.7,18-1.12,7.23-.51,14.4-1.51,21.55-2.64q11.92-1.89,23.66-4.63c.71-.17,1.41-.36,2.12-.49a1,1,0,0,1,1.22.9,3.13,3.13,0,0,1,0,.43c.15,3.47.31,6.95.44,10.42a6.2,6.2,0,0,1-1.82,4.51,23.34,23.34,0,0,1-7.14,4.87,60.44,60.44,0,0,1-17.8,5.46c-5.94.9-11.89,1.79-17.85,2.51-4.1.49-8.22.77-12.34,1-5.43.3-10.86.45-16.29.67Z"/><path class="cls-1" d="M134.9,279.06h-4.79a2.3,2.3,0,0,1-.55-.13,4.75,4.75,0,0,1,.55-.28c4.11-1.17,8.24-2.27,12.33-3.51q13.22-4,26.4-8.07c10.66-3.3,21.27-6.76,31.66-10.85a144.26,144.26,0,0,0,16.62-7.52c1.46-.8,2.83-1.77,4.2-2.7a5.93,5.93,0,0,0,1.26-1.19c1-1.17.75-2.38-.66-3a6.79,6.79,0,0,0-2.72-.62c-3.62,0-7.25,0-10.85.36-4.61.42-9.19,1.13-13.79,1.71a4.56,4.56,0,0,1-.64,0,2.24,2.24,0,0,1,.59-.39q7.62-2.16,15.27-4.28c16-4.46,32-8.73,48.15-12.55,11.77-2.79,23.58-5.38,35.39-8,2.29-.51,2.78-.65,1.94,1.89-1,3,.26,6.51,3.73,9a36.75,36.75,0,0,0,7.1,3.74l1,.4c.12.06.27.17.29.28a.38.38,0,0,1-.21.32c-1.89.49-3.79,1-5.69,1.42a2,2,0,0,1-1.79-.59c-1.24-1-2.54-1.94-3.71-3a2.66,2.66,0,0,0-3.31-.66,23.08,23.08,0,0,1-2.27.71.71.71,0,0,0-.33,1.22c.65.79,1.36,1.51,2.07,2.23.45.47,1,.89,1.4,1.36a.48.48,0,0,1-.18.86,7.23,7.23,0,0,1-1,.32c-3.51.92-7,1.8-10.51,2.76a2.65,2.65,0,0,1-2.78-.6c-1.27-1.18-2.68-2.21-4-3.35a2.05,2.05,0,0,0-2.55-.49,10,10,0,0,1-1.66.5c-1.88.55-2,.91-.6,2.41.88,1,1.85,1.83,2.78,2.75.72.72.67,1-.37,1.25-3.83,1.09-7.68,2.11-11.49,3.26a2.17,2.17,0,0,1-2.34-.59c-1.47-1.29-3-2.49-4.47-3.8a2,2,0,0,0-2.55-.36,21.55,21.55,0,0,1-2.26.79c-.84.33-1,.78-.41,1.49.73.89,1.56,1.71,2.36,2.55.4.41.85.79,1.25,1.21.63.65.58.94-.23,1.22s-1.53.46-2.29.69c-2.84.86-5.7,1.66-8.51,2.62a3.1,3.1,0,0,1-3.69-.77c-1.31-1.35-2.83-2.49-4.22-3.75a1.71,1.71,0,0,0-2.15-.38,24.65,24.65,0,0,1-2.68.87c-.83.3-1,.78-.38,1.49.88,1.06,1.83,2,2.76,3.07.44.48.92.92,1.34,1.41s.19.68-.22.87a9.56,9.56,0,0,1-1,.39c-3.52,1.13-7.05,2.22-10.55,3.4a2.34,2.34,0,0,1-2.72-.63c-1.6-1.58-3.33-3-5-4.53a1.7,1.7,0,0,0-2.14-.39c-.84.41-1.79.58-2.66.93s-1,.82-.41,1.52c.86,1.07,1.87,2,2.74,3.09.65.8,1.83,1.19,1.92,2.43-.94.37-1.85.79-2.81,1.09-14.22,4.51-28.45,9-43,12.5a182.06,182.06,0,0,1-22.21,4c-3.24.37-6.5.46-9.76.68Z"/><path class="cls-1" d="M136.44,251c-4.8-.24-9.66-.37-14.49-.76-4-.32-8.07-.84-12.08-1.46a88.74,88.74,0,0,0-20.58-1c-8.78.71-17.11,3-24.53,8a20.91,20.91,0,0,0-8.9,11.93A17.47,17.47,0,0,1,55,270.2c-.11.28-.48.44-.73.66a3.4,3.4,0,0,1-.42-.71C52.6,266.9,53.4,263.88,55,261a21.32,21.32,0,0,1,5.91-6.6,45.82,45.82,0,0,1,14.75-7.25,62.42,62.42,0,0,1,15.57-2.79c2.75-.12,5.5-.35,8.25-.29,3,.08,6.06.42,9.09.67,1.59.13,3.17.33,4.76.45q4.33.31,8.67.58c1.74.11,3.48.29,5.21.26a125.57,125.57,0,0,0,17.32-1.37c11.76-1.85,23.22-5,34.67-8.18,13.13-3.64,26.21-7.43,39.39-10.87q24.39-6.37,48.91-12.25c9.36-2.25,18.83-4.09,28.24-6.12a6.79,6.79,0,0,1,1.07-.17c.78,0,1.16.28,1,1-.44,2.5-.92,5-1.44,7.47-.18.89-.9,1.15-1.76,1.33-5.82,1.2-11.63,2.41-17.43,3.71q-27.15,6.06-54,13.44c-12.58,3.44-25.11,7.07-37.69,10.51-3.55,1-7.2,1.61-10.83,2.26-5,.89-10,1.72-15,2.44-3.44.49-6.91.83-10.37,1.08C145.05,250.63,140.77,250.78,136.44,251Z"/><path class="cls-1" d="M357.89,137.26c0,.27-.15.84-.22,1.41a1.85,1.85,0,0,1-1.5,1.65c-.84.23-1.65.55-2.49.76a12.94,12.94,0,0,0-7.05,4.82q-1.62,2-3.19,4.13a14.13,14.13,0,0,1-7.16,5q-8.05,2.61-16,5.46c-6.41,2.3-12.8,4.64-19.14,7.11-9.32,3.63-18.59,7.36-27.87,11.09-7.73,3.11-15.31,6.56-22.82,10.16-6.34,3-12.58,6.29-18.62,9.87a100,100,0,0,0-22,16.9c-1,1-1.84,2-2.76,3.06-.39.43-.76.88-1.19,1.28-1.15,1.07-2,1.08-3.23.06-1.45-1.19-2.27-1.08-3.22.56-.61,1.06-1.07,2.21-1.62,3.31-.42.86-.48.9-1.23.3a4.19,4.19,0,0,0-3.4-1.08c-.67.09-.9-.25-.67-1a46.84,46.84,0,0,1,4.6-10,.92.92,0,0,1,1.45-.35c.5.3,1,.56,1.52.85a3.41,3.41,0,0,0,4.06-.33,16.7,16.7,0,0,0,2.21-2.08,98.2,98.2,0,0,1,15.8-14.55,148.9,148.9,0,0,1,15.42-9.76,303.7,303.7,0,0,1,31.38-15c14.7-6.18,29.59-11.88,44.6-17.26,8.52-3.05,17.16-5.81,25.74-8.7,1.1-.37,2.22-.67,3.31-1.07a13.76,13.76,0,0,0,5.86-4c1-1.17,1.92-2.41,1.08-4.12a.94.94,0,0,1,.41-.79c1.88-.57,3.76-1.1,5.66-1.53a1.82,1.82,0,0,1,1.32.51C357.69,134.65,358,135.61,357.89,137.26Z"/><path class="cls-1" d="M71.62,336c-1.74,0-3.48,0-5.22,0a1.71,1.71,0,0,0-1.88,1.13,11.42,11.42,0,0,1-.87,1.5c-.68,1.21-.47,1.66.95,1.84,1.73.22,3.46.36,5.19.52,1.44.13,2.89.22,4.33.36.59.05.77.46.45.9-1.53,2.12-3.07,4.22-4.68,6.27-.24.31-.88.32-1.34.43-.13,0-.28-.05-.42-.09-6.54-2.12-12.68-5-17.91-9.55a13.92,13.92,0,0,1-2.17-2.93c-.4-.59-.62-1.3-1-1.91a2.3,2.3,0,0,1,.25-3c2.09-2.68,4.18-5.38,6.11-8.18a40,40,0,0,0,6.37-13.48c.56-2.32,1-4.68,1.31-7a16.29,16.29,0,0,0-.1-2.6c-.05-2.68-.11-5.36-.11-8a29.29,29.29,0,0,0-1.32-8.56,4.35,4.35,0,0,1-.2-.61,5.61,5.61,0,0,1,0-.82,3.37,3.37,0,0,1,.77.09,2.59,2.59,0,0,1,.55.33,34.17,34.17,0,0,0,14.86,4.46c2.16.16,4.33.22,6.5.33.9,0,1.12.29.78,1-2,4.39-1.3,8.77-.08,13.18.89,3.2,1.74,6.42,2.46,9.67a22,22,0,0,1-.22,8.85c-.19,1-.4,1.18-1.47,1.18-3.11,0-6.23-.08-9.35-.09-2.41,0-2.53.12-2.93,2.47-.22,1.28,0,1.74,1.37,1.94,1.72.25,3.45.38,5.18.55,1.3.12,2.6.17,3.9.31,1.08.12,1.36.48.93,1.41-1.08,2.36-2.26,4.69-3.41,7a2.1,2.1,0,0,1-2.15,1.15c-1.81,0-3.63,0-5.44,0Z"/><path class="cls-1" d="M88.31,341.52q22.29.19,44.58.39c11.59.11,23.19.28,34.79.43a15.68,15.68,0,0,1,2.37.2c.86.14,1,.36.77,1.17-.13.49-.33,1-.48,1.45-.61,2-1.28,4-1.78,6a2.52,2.52,0,0,1-2.35,2.12c-3.43.54-6.84,1.26-10.28,1.71-5.31.68-10.64,1.38-16,1.73-5.85.39-11.73.49-17.59.52-4.35,0-8.7-.13-13-.48a182.36,182.36,0,0,1-36.72-6.56c-.35-.1-.69-.2-1-.32-.93-.32-1-.52-.41-1.38.41-.6.87-1.16,1.29-1.74,1-1.41,2.09-2.79,3.06-4.24a2.51,2.51,0,0,1,2.36-1.2c3.48.05,7,0,10.44,0Z"/><path class="cls-1" d="M348.73,137.57a8.58,8.58,0,0,1-.67,1.22,12.87,12.87,0,0,1-5.95,4.21c-.73.3-1.23-.06-1.81-.36-2.31-1.21-4.61-2.45-7-3.56a46.34,46.34,0,0,0-16.85-4.74,83.34,83.34,0,0,0-13,.16c-12.32,1.16-24.19,4.54-36,8.12-11.44,3.48-22.78,7.28-34.11,11.1a202.15,202.15,0,0,0-27.7,11.46,79.64,79.64,0,0,0-15.07,9.46c-1.27,1.05-1.47,1-2.84.06s-2.46-1.8-3.65-2.76c-.94-.76-1-1.1,0-1.85,2-1.48,3.95-3,6-4.26a124.66,124.66,0,0,1,18.42-9.3c14.06-5.85,28.5-10.67,43-15.25,9.54-3,19.12-5.85,28.82-8.33a197.39,197.39,0,0,1,20-4.08,96.91,96.91,0,0,1,21.25-.91,66.43,66.43,0,0,1,25.88,7.66A1.72,1.72,0,0,1,348.73,137.57Z"/><path class="cls-1" d="M325,100.75a75.82,75.82,0,0,1,19.34,4.86c.61.24,1.23.45,1.82.72a11.09,11.09,0,0,0,7,.56c1-.22,1.95-.52,2.94-.76a1.8,1.8,0,0,0,1.6-1.53,2.1,2.1,0,0,0-1-2.43c-2.39-1.38-4.75-2.8-7.18-4.1a164.45,164.45,0,0,0-24.26-10.61,3.91,3.91,0,0,1-1.21-.47,1.41,1.41,0,0,1-.57-1c.2-1.65.5-3.29.8-4.93.11-.6.51-.82,1.12-.67.78.2,1.56.35,2.33.53A167,167,0,0,1,369,96.35c2.75,1.47,5.41,3.1,8.12,4.64a2,2,0,0,1,1.13,2.33c-.72,3.84-1.32,7.7-2.12,11.53a14.19,14.19,0,0,1-1.52,3.81,4,4,0,0,1-3.55,2.09,15,15,0,0,1-7.53-1.75c-3.71-1.81-7.39-3.69-11.15-5.39A154.79,154.79,0,0,0,335.14,107c-3-.93-5.82-2.19-8.71-3.34a7.66,7.66,0,0,1-1.87-1.1c-.65-.51-1.51-.88-1.67-1.85Z"/><path class="cls-1" d="M99,326.68c3.26,0,6.52,0,9.78,0q18.81.19,37.6.44,15.21.18,30.43.41c.36,0,.72,0,1.08,0,.76,0,.94.32.6.92s-.65,1-.94,1.47c-1.1,1.95-2.26,3.88-3.26,5.89a2.46,2.46,0,0,1-2.56,1.52c-6.81-.08-13.62-.06-20.44-.13-9.92-.11-19.84-.26-29.77-.39l-40-.47a6.46,6.46,0,0,1-1.08-.07.52.52,0,0,1-.39-.82c.48-1,1-1.91,1.49-2.89a36.77,36.77,0,0,0,1.89-4.15c.51-1.52,1.44-1.91,3-1.88,4.2.08,8.4,0,12.61,0Z"/><path class="cls-1" d="M192.19,336.11c0,.94,0,1.88,0,2.82a6.15,6.15,0,0,1-2.81,5.54,39.21,39.21,0,0,1-9,4.82c-3,1.14-6.06,2-9.1,2.93a4.81,4.81,0,0,1-1.05.23c-.66.06-1-.29-.85-.89.79-2.64,1.63-5.26,2.45-7.89a1.47,1.47,0,0,1,1.47-1.06c1.38-.09,2.75-.2,4.12-.3.73-.05,1.46-.05,2.17-.15,2.82-.41,3-.56,4-3.21.38-.94.19-1.36-.86-1.44-1.51-.12-3-.1-4.56-.14-.94,0-1.88,0-2.83-.07-.46,0-.62-.32-.49-.74a3.73,3.73,0,0,1,.35-.79c1.34-2.32,2.72-4.62,4-7a2.57,2.57,0,0,1,2.52-1.29c2.39,0,4.77-.31,7.15-.38a3.71,3.71,0,0,0,3.24-1.84c.12-.18.3-.33.4-.51.26-.49.49-1,.74-1.48a8.37,8.37,0,0,0-1.59-.44c-2-.13-4.05-.18-6.07-.3a4.92,4.92,0,0,1-1.16-.33,3.92,3.92,0,0,1,.52-.89c2.47-2.55,4.84-5.2,7.47-7.58,8.54-7.73,18.2-13.89,28.16-19.58,5.47-3.13,11.11-6,16.63-9,1.36-.76,2.39-.73,3.45.4a16.75,16.75,0,0,0,1.54,1.21c.66.55.66.81-.13,1.29-2.37,1.41-4.77,2.75-7.14,4.16a137.23,137.23,0,0,0-20.89,14.84A84.87,84.87,0,0,0,203.83,318c-.4.51-.79,1-1.21,1.54-1.06,1.27-1.22,1.3-2.72.55s-2.19-.57-3.17.71a6.4,6.4,0,0,0-.89,1.48c-1.16,2.89-2.45,5.75-3.36,8.71a24.35,24.35,0,0,0-.47,5.16Z"/><path class="cls-1" d="M350.73,238.12c-.55,2.47-1,5-1.68,7.41a7.55,7.55,0,0,1-5.39,5.41c-18.08,5.82-35.75,12.76-53.23,20.18q-20,8.49-39.52,18.09a215.49,215.49,0,0,0-25.94,15,126.92,126.92,0,0,0-14.09,11.24c-.21.2-.43.39-.65.57a.28.28,0,0,1-.2,0c0-.11-.1-.29-.05-.35.32-.39.67-.76,1-1.13,6.82-7.45,14.93-13.27,23.44-18.58a250.81,250.81,0,0,1,22.25-12.3c4.42-2.17,9-4,13.4-6.21,10.33-5.11,20.87-9.74,31.51-14.17q8.82-3.68,17.74-7.14c2.76-1.08,5.63-1.89,8.4-2.93,2-.76,4-1.61,6-2.56s3.07-2.62,4.42-4.13a26.71,26.71,0,0,0,2.27-2.91c2.29-3.37,5.71-5,9.41-6.22C350.58,237.15,350.69,237.28,350.73,238.12Z"/><path class="cls-1" d="M89.66,151.77c7.08-.32,13.38-.65,19.55-2.11.35-.09.71-.15,1.06-.23.72-.19,1.08.18,1.28.81.46,1.45.94,2.9,1.41,4.34.18.56-.1.81-.61.91-2.2.43-4.39.9-6.6,1.3A103.65,103.65,0,0,1,91.68,158a74,74,0,0,1-10-.39,81.68,81.68,0,0,1-14.54-2.54,50,50,0,0,1-13-5.41,25.69,25.69,0,0,1-5.6-4.79c-2.8-3.12-3.14-6.72-2-10.57a12.52,12.52,0,0,1,2.58-4.5c.07-.09.23-.1.35-.16l0,.38c-.05.35-.25.76-.13,1,.87,2.07.3,4.51,1.7,6.43a30.63,30.63,0,0,0,2.18,3c3.14,3.37,7.15,5.4,11.39,7A59.84,59.84,0,0,0,80.26,151C83.65,151.29,87,151.55,89.66,151.77Z"/><path class="cls-1" d="M256.63,274.84a3.28,3.28,0,0,1-.59.44c-3.6,1.7-7.22,3.36-10.81,5.1a1.86,1.86,0,0,1-2.33-.43c-2.63-2.39-5.28-4.74-7.93-7.11-4.21-3.78-8.42-7.54-12.61-11.33-2.1-1.9-2.09-1.92.62-2.79,3.24-1.05,6.5-2,9.72-3.13a2.66,2.66,0,0,1,3,.64q10.09,8.92,20.24,17.8A10.06,10.06,0,0,1,256.63,274.84Z"/><path class="cls-1" d="M254.34,249a14.58,14.58,0,0,1,1.39,1c3,2.53,5.94,5.08,8.91,7.62s6.05,5.17,9.07,7.77a6.7,6.7,0,0,1,1.07,1.06c.11.13,0,.52-.13.71s-.38.18-.57.27c-3.39,1.47-6.79,2.89-10.14,4.45a2.14,2.14,0,0,1-2.69-.47c-6.35-5.6-12.74-11.14-19.12-16.71a10,10,0,0,1-.95-.89c-.32-.36-.17-.66.22-.85a4.66,4.66,0,0,1,.82-.28L253,249.29C253.35,249.19,253.71,249.12,254.34,249Z"/><path class="cls-1" d="M281.22,264.27a16.68,16.68,0,0,1-1.48-1c-2.55-2.14-5.08-4.29-7.62-6.45l-9.24-7.89c-.39-.33-.77-.66-1.14-1-.8-.74-.77-.94.21-1.23,1.73-.5,3.48-1,5.22-1.46,1.95-.54,3.92-1,5.85-1.65a2.91,2.91,0,0,1,3.15.66c2.5,2.19,5.1,4.28,7.66,6.41l8.15,6.83c.28.24.56.46.82.72.78.76.74,1.07-.33,1.52-3.41,1.42-6.83,2.81-10.24,4.21Z"/><path class="cls-1" d="M294.93,237.84a12.21,12.21,0,0,1,1.62,1q6.93,5.59,13.82,11.24c.66.54,1.24,1.17,1.85,1.75-.76.38-1.49.8-2.28,1.11-2.9,1.14-5.82,2.2-8.71,3.36a2.4,2.4,0,0,1-2.76-.47c-5.14-4.34-10.34-8.62-15.52-12.92-.39-.33-.78-.65-1.15-1s-.12-.61.25-.78a1.77,1.77,0,0,1,.41-.12l11.14-2.88C294,238,294.31,238,294.93,237.84Z"/><path class="cls-1" d="M81.91,337.55c4.49,0,9,0,13.48,0q17.82.19,35.65.43,17.28.21,34.56.44c5,.07,10,.22,15,.34a2,2,0,0,1,.65,0,11.57,11.57,0,0,1,1.08.49c-.24.43-.38,1-.74,1.24a2.93,2.93,0,0,1-1.47.23c-5.5-.09-11-.21-16.51-.28-6.09-.08-12.18-.1-18.27-.15-4.49,0-9,0-13.48-.07q-17.71-.19-35.43-.43l-30-.4a2.28,2.28,0,0,1-.64,0,11.55,11.55,0,0,1-1.11-.43,8.39,8.39,0,0,1,.49-.94c.48-.7,1.23-.66,2-.66,2.68,0,5.36.05,8,.06h6.74Z"/><path class="cls-1" d="M87.87,322.77c4.06,0,8.12,0,12.18,0q18.15.19,36.31.44,17.49.21,35,.43c6.37.09,12.75.24,19.12.36l.65,0c.52,0,.62.3.35.71a2.52,2.52,0,0,1-2.36,1.25c-2-.06-4.06,0-6.09,0l-38.7-.47L108.68,325l-34.13-.43c-.43,0-.87,0-1.3,0s-.89-.14-.94-.69a1,1,0,0,1,.79-1.14,9,9,0,0,1,1.73-.12c3.11,0,6.23.05,9.35.06h3.69Z"/><path class="cls-1" d="M139.05,135.41a11.44,11.44,0,0,1-2.18,6.89,24.72,24.72,0,0,1-8.33,7.15,57.94,57.94,0,0,1-12.42,5.09c-.28.08-.57.1-.85.19a1,1,0,0,1-1.41-.61c-.53-1.49-1-3-1.43-4.53-.06-.21.27-.66.53-.78a11,11,0,0,1,1.65-.54,47.23,47.23,0,0,0,12.4-5.63,21.18,21.18,0,0,0,5.39-5c1.7-2.35,2.77-4.9,2.18-7.91a3.93,3.93,0,0,1,0-1.28c.1-.66.63-.85,1.06-.39A11.45,11.45,0,0,1,139.05,135.41Z"/><path class="cls-1" d="M309.43,234c.47.15,1,.28,1.42.46a136.89,136.89,0,0,1,19.92,9.63,3.13,3.13,0,0,1,.88.63c.09.11,0,.62-.13.66-4,1.38-8.09,2.71-12.13,4.09-.86.29-1.38-.17-1.94-.62l-7.95-6.42c-1.91-1.55-3.84-3.08-5.75-4.63a14.28,14.28,0,0,1-1.29-1.15.48.48,0,0,1,.22-.85C304.91,235.21,307.15,234.63,309.43,234Z"/><path class="cls-1" d="M201.66,212.17a7.83,7.83,0,0,1-1.45-.52c-6-3.47-11.91-7.15-17-12-.37-.35-.73-.71-1.06-1.09s-.34-.65.19-.78c1.69-.39,3.38-.78,5.08-1.15,1-.22,2.05-.73,2.92-.5s1.55,1.23,2.31,1.9a74.94,74.94,0,0,0,12.29,9.26,5.28,5.28,0,0,1,1.07.72c.16.16.28.6.17.75A7.55,7.55,0,0,1,202.5,212,5.34,5.34,0,0,1,201.66,212.17Z"/><path class="cls-1" d="M122.13,203c-5.84-.2-11.43-.25-17-.64-7.22-.5-14.42-1.26-21.58-2.37a230.17,230.17,0,0,1-26.74-5.77c-6.07-1.7-12-3.67-17.93-6a5.52,5.52,0,0,1-1-.41c-.13-.08-.15-.34-.23-.52.13,0,.28-.14.39-.11a9.67,9.67,0,0,1,1,.36A206.56,206.56,0,0,0,79.53,198.4c5.21.82,10.46,1.48,15.7,2.15a209.09,209.09,0,0,0,28.42,1.31c2.82,0,5.66,0,8.48-.09,3.9-.17,7.8-.45,11.7-.75,3.39-.26,6.79-.5,10.16-.94,6.54-.85,13.06-1.75,19.56-2.8,4.58-.74,9.1-1.77,13.65-2.66a4.91,4.91,0,0,1,.85-.09c.1,0,.25.16.27.26a.44.44,0,0,1-.17.35,2.63,2.63,0,0,1-.8.32c-6.11,1.17-12.21,2.46-18.35,3.45-5.71.93-11.47,1.59-17.22,2.3q-9.17,1.14-18.4,1.36C129.54,202.66,125.71,202.87,122.13,203Z"/><path class="cls-1" d="M211.58,253.94a12.33,12.33,0,0,1,1.37.91c2,1.76,4,3.54,6,5.33q12,10.81,24,21.65c1.08,1,2.19,1.91,3.24,2.9.61.57.52.88-.23,1.31-1.41.8-1.61.79-2.85-.33L222.57,267c-4.13-3.74-8.28-7.45-12.41-11.2a6.63,6.63,0,0,1-.87-1.16c.44-.21.88-.43,1.34-.61A4.57,4.57,0,0,1,211.58,253.94Z"/><path class="cls-1" d="M232,247.85a11.42,11.42,0,0,1,1.36.84q2.49,2.1,4.94,4.25l24.23,21.18a12.23,12.23,0,0,1,1.13,1c.37.44,1.31.77.66,1.53a1.79,1.79,0,0,1-2.49.38c-1.88-1.59-3.73-3.22-5.58-4.85Q243.58,261.09,230.93,250a7.09,7.09,0,0,1-.78-.77c-.3-.35-.22-.67.22-.83S231.33,248.05,232,247.85Z"/><path class="cls-1" d="M252.67,242.24a14,14,0,0,1,1.72,1.14c2.89,2.41,5.76,4.86,8.62,7.3l19,16.22c.28.23.58.44.84.69s.18.63-.17.85c-1.38.82-2,.76-3.28-.37l-12.05-10.32L252,244.62a5.17,5.17,0,0,1-.65-.58c-.3-.37-.55-.77-.83-1.16.46-.2.92-.4,1.39-.57A4,4,0,0,1,252.67,242.24Z"/><path class="cls-1" d="M202.68,129.08c.7-.37,1.38-.8,2.11-1.1,11.79-4.87,23.83-9,36-12.79,10.25-3.14,20.53-6.15,30.83-9.11a209.49,209.49,0,0,1,23.7-5.43c4-.66,8-1,12.06-1.53a88.16,88.16,0,0,1,11.94-.43,70.68,70.68,0,0,1,24.79,4.9,2.55,2.55,0,0,1,.57.48,3.6,3.6,0,0,1-.81-.11c-1.45-.47-2.87-1-4.33-1.45a76.81,76.81,0,0,0-19-3.21A124,124,0,0,0,300,100.52a217.82,217.82,0,0,0-29.46,6.41c-8,2.23-16.05,4.46-24,7-10.69,3.41-21.3,7-31.92,10.68-3.08,1-6,2.4-9.09,3.58-.94.36-1.92.6-2.89.89Z"/><path class="cls-1" d="M301.54,259.81c-.18.4-.2.47-.24.53a2.34,2.34,0,0,1-2.74.38c-1.32-1-2.6-2.09-3.88-3.16l-22.53-18.82a5.69,5.69,0,0,1-1-.86c-.1-.13,0-.64.1-.68a2.75,2.75,0,0,1,3.19.31c2.78,2.43,5.68,4.74,8.52,7.1q8.79,7.27,17.58,14.57A9.11,9.11,0,0,0,301.54,259.81Z"/><path class="cls-1" d="M293.74,231.6a16.84,16.84,0,0,1,1.6,1.06c3.28,2.63,6.54,5.28,9.81,7.92l13.19,10.65a4.11,4.11,0,0,1,.5.42c.34.41,1.14.6.81,1.33a2.28,2.28,0,0,1-2.17.58,5.19,5.19,0,0,1-1.07-.73l-23.77-19.35c-.29-.22-.56-.46-.83-.7s-.25-.66.18-.8A16.55,16.55,0,0,1,293.74,231.6Z"/><path class="cls-1" d="M45.2,322.77a5.45,5.45,0,0,1,.59-1.33c2.14-2.82,4.33-5.61,6.5-8.4a1.69,1.69,0,0,1,.34-.23c0,.17.19.37.14.51-.61,1.95-.06,3.88.07,5.81.07,1.07.35,1.15,1.35.49.18-.11.34-.25.52-.37a2,2,0,0,1-.13.56,74,74,0,0,1-7.52,10.58c-.16.18-.48.22-.73.32a2.52,2.52,0,0,1-.21-.58C45.82,327.77,45.53,325.4,45.2,322.77Z"/><path class="cls-1" d="M257.44,275.73c.48.31,1,.59,1.44.92,2.27,1.67,2.26,1.66-.17,2.87-2.91,1.45-5.81,2.93-8.71,4.4-1.7.85-1.72.87-3-.33-2.12-2-2.9-1.7.53-3.34,2.86-1.37,5.76-2.69,8.65-4C256.55,276,257,275.91,257.44,275.73Z"/><path class="cls-1" d="M266.43,275.73c-.45-.36-.92-.68-1.34-1.06-1.57-1.49-2.37-1.46.44-2.61s5.74-2.38,8.53-3.76c1.61-.79,2.84-.66,4,.65.09.11.23.17.33.27.57.52.56.78,0,1.14l-.38.2-10.46,4.75C267.18,275.46,266.84,275.57,266.43,275.73Z"/><path class="cls-1" d="M285.19,267.25c-.79,0-2.76-1.44-2.81-2,0-.19.26-.5.47-.6.85-.4,1.72-.75,2.59-1.1l7.83-3.16a2,2,0,0,1,2.24.05c.55.45,1.44.91,1.5,1.43.1.86-1,.81-1.62,1.08-3,1.32-6,2.58-8.94,3.85C286,267,285.51,267.14,285.19,267.25Z"/><path class="cls-1" d="M57.21,290.5a7.77,7.77,0,0,1,0,1.08,11.25,11.25,0,0,1-.26,1.15,6.68,6.68,0,0,1-.55-.87c-1.35-3-2.76-6-4-9.12a17.93,17.93,0,0,1-1.06-8.09,1.77,1.77,0,0,1,.12-.37c.1.07.26.12.31.23,1.8,3.85,4,7.51,5,11.71.32,1.4.44,2.83.65,4.25Z"/><path class="cls-1" d="M195.82,334c-.34-1.7.3-3.49,1-5.25s1.27-3.24,2-4.8c.57-1.17.9-1.26,2-.65a2.29,2.29,0,0,0,2.81-.11c.08-.06.25,0,.38,0a1.12,1.12,0,0,1-.1.38,8.14,8.14,0,0,1-.76,1.06,41.52,41.52,0,0,0-6.28,10.87,13.26,13.26,0,0,1-1,1.56c0-.57-.1-1.14-.13-1.71C195.8,335,195.82,334.6,195.82,334Z"/><path class="cls-1" d="M315.66,254.53a4.77,4.77,0,0,1-.66.39l-7,2.81c-1.2.49-2.39,1-3.61,1.45a3,3,0,0,1-3.28-1.37.56.56,0,0,1,.16-.54,2.73,2.73,0,0,1,.77-.36c3.37-1.28,6.74-2.57,10.12-3.81a2.75,2.75,0,0,1,3.36,1.11C315.53,254.27,315.56,254.34,315.66,254.53Z"/><path class="cls-1" d="M121.53,120c-.1.06-.22.18-.29.16-.34-.11-.68-.25-1-.39a58.06,58.06,0,0,0-15.73-3.91,78.42,78.42,0,0,0-12.34-.74A84.93,84.93,0,0,0,70,118.69c-2,.62-3.9,1.53-5.84,2.3a1.42,1.42,0,0,1-.41,0c.08-.14.13-.37.25-.43,2.14-.89,4.24-1.9,6.44-2.6a61.4,61.4,0,0,1,13.36-2.78c3.09-.28,6.19-.65,9.29-.71a75.48,75.48,0,0,1,8.89.41,63.42,63.42,0,0,1,15.87,3.41c1.15.43,2.28.93,3.41,1.41A1.22,1.22,0,0,1,121.53,120Z"/><path class="cls-1" d="M93.75,116.53a71.18,71.18,0,0,1,19.71,2.29c.63.16,1.25.36,1.87.57a2,2,0,0,1,.44.35,2.69,2.69,0,0,1-.63,0c-1.49-.32-3-.69-4.45-1a86,86,0,0,0-21.42-1.43,88,88,0,0,0-14,1.84c-.17,0-.37-.1-.55-.15.14-.14.26-.37.42-.41a26.15,26.15,0,0,1,2.74-.69A73.44,73.44,0,0,1,93.75,116.53Z"/><path class="cls-1" d="M334.17,246.45a4,4,0,0,1-.62.75,18.25,18.25,0,0,1-2.94,1.8c-2.47,1-5,1.9-7.52,2.78a2.57,2.57,0,0,1-1.65.13,2.29,2.29,0,0,1-1.33-1.27c-.14-.68.76-.71,1.26-.89q5.22-1.8,10.48-3.52a5.92,5.92,0,0,1,1.68-.29C333.72,245.93,333.93,246.24,334.17,246.45Z"/><path class="cls-1" d="M194.81,336.12c0,.54,0,.68,0,.82.51,3.77-1.26,6.39-4.21,8.42-.48.33-.94.68-1.44,1s-1,.53-1.5.79l1.3-1.2c1.17-1.06,2.39-2.08,3.51-3.2a5.54,5.54,0,0,0,1.37-4.61c-.11-1.66-.12-3.32-.13-5,0-.18.34-.35.52-.53.14.15.39.29.4.45C194.72,334.2,194.77,335.36,194.81,336.12Z"/><path class="cls-1" d="M95.86,286a2.67,2.67,0,0,1,1.89,1.6.59.59,0,0,1-.25.5,19.41,19.41,0,0,1-2.46.76c-.72.15-2.44-1.32-2.46-2.06,0-.18.32-.49.53-.52C94,286.16,94.82,286.12,95.86,286Z"/><path class="cls-1" d="M191,223.32c-.1-.07-.28-.15-.28-.2a4.67,4.67,0,0,1,.22-1.05c1.18-2.79,2.32-5.61,3.59-8.35.52-1.12.9-2.12.29-3.28-.07-.14,0-.38.09-.58a2.79,2.79,0,0,1,.6.17c1.07.65,1.22.94.66,1.89A53,53,0,0,0,191.21,223C191.17,223.12,191,223.21,191,223.32Z"/><path class="cls-1" d="M215.75,241.82c1.42.16,2.86.31,4.29.48.1,0,.18.17.26.26-.09.09-.18.24-.29.25a3.1,3.1,0,0,1-.86,0,43.67,43.67,0,0,0-11.25,0c-.93.12-1.88.1-2.82.13a3.38,3.38,0,0,1-.63-.07,4.27,4.27,0,0,1,.68-.18c2.38-.19,4.76-.35,7.14-.55C213.42,242.06,214.57,241.93,215.75,241.82Z"/><path class="cls-1" d="M195.84,227.57c-.06.15-.19.93-.38.94-.93.07-.48-.78-.67-1.24,0-.06,0-.14,0-.21-.37-2.14-.63-2.32-2.71-1.88-.49.11-1,.22-1.48.29-.11,0-.24-.11-.36-.17.06-.12.1-.33.19-.35,1.19-.3,2.37-.65,3.58-.84a1.41,1.41,0,0,1,1.59,1.17A21.06,21.06,0,0,1,195.84,227.57Z"/><path class="cls-1" d="M59.63,292.19c-.38,2.05-.76,4.09-1.16,6.13a4.18,4.18,0,0,1-.45,1,5.35,5.35,0,0,1,0-1c.27-1.48.57-3,.85-4.44a11.55,11.55,0,0,0-.19-5.13c-.3-1.11-.51-2.25-.73-3.38a2.75,2.75,0,0,1,.08-.74,2,2,0,0,1,.32.54C58.82,287.47,59.65,289.74,59.63,292.19Z"/><path class="cls-1" d="M50.7,132.75c.36-1.23.64-2.5,1.12-3.69a6.45,6.45,0,0,1,1.25-1.55l-.7,1.77c-1,2.6-1.38,5.18.11,7.74a2.22,2.22,0,0,1,.15.59c-.19-.15-.46-.26-.56-.45A11,11,0,0,1,50.7,132.75Z"/><path class="cls-1" d="M45.51,333.16l-.14.45c-.09-.11-.23-.2-.27-.33a6.3,6.3,0,0,1-.25-1q-.62-4.5-1.19-9c0-.18.12-.37.19-.56.11.16.3.3.32.47.31,2.35.59,4.72.89,7.08C45.19,331.23,45.36,332.22,45.51,333.16Z"/><path class="cls-1" d="M58,309.47c0,.19-.09.4-.14.61a32.35,32.35,0,0,1-3.28,7.27c-.08.15-.31.22-.47.33,0-.2-.12-.44-.05-.6.22-.53.53-1,.75-1.56.89-2,1.76-4.1,2.64-6.14.05-.11.21-.17.31-.25Z"/><path class="cls-1" d="M124.34,358.56h-6.49a6,6,0,0,1-.85-.1,4,4,0,0,1,.74-.13q6.83,0,13.63,0a3.74,3.74,0,0,1,.74.15c-.28,0-.56.09-.85.1Z"/><path class="cls-1" d="M350.54,106.12l-3.34-.83c-.11,0-.18-.2-.28-.3a1.27,1.27,0,0,1,.4-.09c.86.12,1.7.3,2.55.38a13.67,13.67,0,0,0,5.52-.79c.2-.06.48.1.72.16-.16.12-.3.3-.48.34C354,105.38,352.28,105.74,350.54,106.12Z"/><path class="cls-1" d="M135.84,251.78h6.49a4.74,4.74,0,0,1,.71.15,4.55,4.55,0,0,1-.63.09H129a3,3,0,0,1-.7-.18,4.41,4.41,0,0,1,.62-.09c1.3,0,2.59.06,3.89.07,1,0,2,0,3,0Z"/><path class="cls-1" d="M215.74,307.69a2.47,2.47,0,0,1-.28.49q-3.14,3.13-6.3,6.25c-.11.12-.35.1-.52.15a1.33,1.33,0,0,1,.2-.37c2.09-2.08,4.19-4.17,6.3-6.24A2.43,2.43,0,0,1,215.74,307.69Z"/><path class="cls-1" d="M131.32,125.57a7.3,7.3,0,0,1,2.16,7.06c0,.15-.19.27-.3.41a2,2,0,0,1-.06-.42c.14-2.53-.86-4.77-1.84-7Z"/><path class="cls-1" d="M248,115.47l-.52,0c-.06,0-.19-.07-.18-.09s.05-.32.13-.35c1.36-.43,2.72-.84,4.09-1.24.07,0,.26.12.28.21a.51.51,0,0,1-.12.39A4.79,4.79,0,0,1,248,115.47Z"/><path class="cls-1" d="M51.6,267.72a15.45,15.45,0,0,1,1.16-5.3,1.93,1.93,0,0,1,.37-.45,2.39,2.39,0,0,1,0,.6,15.27,15.27,0,0,0-1,5.51c0,1,.21,2,.31,3a1.17,1.17,0,0,1-.12.39c-.09-.11-.23-.21-.25-.33C51.87,270,51.74,268.86,51.6,267.72Z"/><path class="cls-1" d="M68,121.23l-.57-.08c.1-.09.19-.19.29-.27a.7.7,0,0,1,.2-.08l4.86-1.46C71.38,120.75,69.33,120.33,68,121.23Z"/><path class="cls-1" d="M98.23,248.68c2.57.18,5.15.35,7.72.54a3.19,3.19,0,0,1,.59.15,2.73,2.73,0,0,1-.62.09l-7.68-.8Z"/><path class="cls-1" d="M202.66,129.06c-.65.41-1.28.86-2,1.21-1.08.55-2.19,1-3.3,1.55a1.89,1.89,0,0,1-.59,0c.13-.14.22-.34.37-.41,1.83-.8,3.67-1.58,5.5-2.37Z"/><path class="cls-1" d="M196.82,324.82c-.08.19-.15.39-.24.59-.46,1-.92,2.06-1.39,3.09l-.14-.08c.47-1.26.94-2.51,1.42-3.76,0-.06.11-.09.16-.13Z"/><path class="cls-1" d="M192.68,133.76l.32.11c0,.06-.05.14-.1.17a3.41,3.41,0,0,1-.73.43c-1,.34-1.63,1.3-2.76,1.23L192.1,134C192.28,133.93,192.48,133.86,192.68,133.76Z"/><path class="cls-1" d="M98.24,248.66l-5.42,0c-.21,0-.42,0-.63-.08a1.16,1.16,0,0,1,.45-.16c1.86.08,3.73.18,5.59.28Z"/><path class="cls-1" d="M131.28,125.61c-.86-.87-1.73-1.74-2.59-2.63a1.79,1.79,0,0,1-.24-.5,1.8,1.8,0,0,1,.53.29c.79.93,1.56,1.87,2.34,2.8Z"/><path class="cls-1" d="M59.41,300.63a2.35,2.35,0,0,1,0,.64,9.63,9.63,0,0,1-.5,1,.31.31,0,0,1-.19,0c0-.39,0-.78,0-1.17a1,1,0,0,1,.11-.41c.12-.25.26-.49.4-.73Z"/><path class="cls-1" d="M59.79,305.11c-.1.38-.26,1.05-.43,1.73,0-.63-.11-1.26-.16-1.89a3.29,3.29,0,0,1,0-.63,1.27,1.27,0,0,1,.2-.33,2.13,2.13,0,0,1,.35.39A2.84,2.84,0,0,1,59.79,305.11Z"/><path class="cls-1" d="M202.67,322.07c-.1-.19-.2-.33-.18-.36.29-.31.6-.61.91-.9s.43-1,1.13-1a14,14,0,0,1-.9,1.44A7.17,7.17,0,0,1,202.67,322.07Z"/><path class="cls-1" d="M111.68,358.13c-.57,0-1.14,0-1.71,0a1.17,1.17,0,0,1-.38-.14,2.79,2.79,0,0,1,.4-.07c.57,0,1.14,0,1.71,0l2.13.1-2.14.18Z"/><path class="cls-1" d="M137.34,358.21h-1.72a1.63,1.63,0,0,1-.41-.1,1.24,1.24,0,0,1,.36-.11c.58,0,1.16-.05,1.74,0s1.46.07,2.2.1Z"/><path class="cls-1" d="M182.63,200.79c-.11,0-.28.11-.32.07-.69-.63-1.36-1.28-2-1.94-.08-.07-.06-.24-.08-.36s.29,0,.36.06c.67.65,1.33,1.31,2,2A.59.59,0,0,1,182.63,200.79Z"/><path class="cls-1" d="M162.24,34.41h.65c.51,0,.62.29.41.71a4.76,4.76,0,0,1-.47.73A20.93,20.93,0,0,0,161.36,38c-.88,1.7-2.26,2-4,1.73-3.52-.48-7-.84-10.57-1.25a6.18,6.18,0,0,1-1.06-.18c-.63-.18-.75-.58-.39-1.16a2.75,2.75,0,0,1,2.4-1.61c.36,0,.72-.13,1.08-.16l13.44-.9Z"/><path class="cls-1" d="M131.36,41.66l-10.22-1.17c-.86-.1-1.72-.17-2.59-.28s-.94-.37-.44-1.12a3.54,3.54,0,0,1,3-1.75c4.92-.25,9.83-.68,14.74-1a2.16,2.16,0,0,1,.59.13,1.82,1.82,0,0,1-.15.6c-.72,1-1.52,1.94-2.19,3C133.33,41.23,132.36,41.92,131.36,41.66Z"/><path class="cls-1" d="M107.08,38.14l2,.48c-.33.54-.62,1.11-1,1.62-.68.93-1.42,1.83-2.13,2.74a1.52,1.52,0,0,1-1.51.64c-4.37-.55-8.75-1.07-13.12-1.61-.93-.11-1-.29-.44-1a3.49,3.49,0,0,1,2.77-1.8c4-.21,8.07-.55,12.11-.83.43,0,.87,0,1.3,0Z"/><path class="cls-1" d="M141.51,27c.44,0,.87,0,1.3,0s.72.26.43.67c-.87,1.24-1.8,2.45-2.69,3.67a2,2,0,0,1-1.93.73c-2-.18-4-.34-6.05-.56-2.29-.25-4.59-.56-6.88-.85-.46-.06-.68-.34-.42-.73.63-1,1.22-1.95,2.61-2,4.55-.25,9.09-.55,13.64-.84Z"/><path class="cls-1" d="M165.32,30.31l-9.91-1.12c-.93-.11-1.87-.17-2.79-.35-.22,0-.57-.57-.51-.7.47-1,1-1.93,2.3-2,4.69-.29,9.37-.61,14.05-.92a1.63,1.63,0,0,1,.44,0c.33.07.65.16,1,.25a5,5,0,0,1-.36,1c-.56.85-1.21,1.63-1.73,2.5A2.35,2.35,0,0,1,165.32,30.31Z"/><path class="cls-1" d="M115.32,28.75a2.35,2.35,0,0,1,.85.07c.17.08.37.52.3.61-1.08,1.44-2.18,2.87-3.35,4.24a1.51,1.51,0,0,1-1.18.33q-6.43-.73-12.87-1.55c-.88-.11-.95-.36-.44-1.09a2.76,2.76,0,0,1,2.25-1.48c.5,0,1-.19,1.49-.22l12.95-.79Z"/><path class="cls-1" d="M148.07,17.78c.63.08,1.6-.06,1.84.29.48.72-.47,1.21-.82,1.8s-.74.9-1,1.4a3,3,0,0,1-3.47,1.53c-3.73-.47-7.47-.86-11.21-1.29-1.08-.12-1.26-.52-.62-1.39a2.72,2.72,0,0,1,2.08-1.38c4.41-.26,8.81-.56,13.21-.84Z"/><path class="cls-1" d="M122.42,19.64a7.76,7.76,0,0,1,1.08,0c.1,0,.27.4.22.46-1,1.39-2.08,2.79-3.22,4.09a2,2,0,0,1-1.41.36c-1,0-2-.2-3-.31l-8.84-1a4.82,4.82,0,0,1-.86-.1.54.54,0,0,1-.36-.84,2.92,2.92,0,0,1,1.91-1.65,4.9,4.9,0,0,1,.85-.16l13.65-.85Z"/><path class="cls-1" d="M119.49,43.51l9.19,1.08c1,.11,2,.17,3,.25a2.76,2.76,0,0,0,2.54-.92,2,2,0,0,1,.64-.35,5.93,5.93,0,0,1-.29.56c-.34.46-.7.91-1,1.38a1.82,1.82,0,0,1-1.9.72c-4.37-.54-8.73-1.06-13.1-1.61-.5-.06-1.28.14-1.23-.71,0-.17.82-.31,1.27-.43A5.28,5.28,0,0,1,119.49,43.51Z"/><path class="cls-1" d="M104.44,48.09,94.86,47c-1.5-.19-3-.4-4.5-.65-.21,0-.38-.35-.56-.54.2-.16.4-.46.62-.47a9,9,0,0,1,1.72.08q6,.7,12,1.44a3.44,3.44,0,0,0,2.45-.65c.09-.07.25,0,.38,0a1.13,1.13,0,0,1-.1.37C106.23,47.49,105.54,48.46,104.44,48.09Z"/><path class="cls-1" d="M158,44.21l-9.73-1.1-2.16-.26a4.39,4.39,0,0,1-1.27-.21c-.27-.12-.44-.49-.65-.75.28-.15.58-.45.85-.43,1.37.1,2.73.29,4.1.45,3,.37,6,.76,9,1.09a17.29,17.29,0,0,0,2.15-.07,2.11,2.11,0,0,1,.53.15,2.35,2.35,0,0,1-.24.58C159.94,44.47,159,44.18,158,44.21Z"/><path class="cls-1" d="M157.21,42l-9-1c-.79-.09-1.58-.18-2.36-.29-.36,0-.83-.12-.67-.59.07-.21.57-.4.86-.38,1.43.11,2.86.3,4.3.46l6.65.77a2.91,2.91,0,0,1,.85.13c.21.1.35.37.51.56a1.92,1.92,0,0,1-.48.34A2.73,2.73,0,0,1,157.21,42Z"/><path class="cls-1" d="M92.47,43.51l10.9,1.32c.07,0,.18,0,.21.05.15.2.28.42.41.63-.17.1-.35.3-.52.28-1.29-.11-2.58-.25-3.87-.4-2.36-.27-4.73-.54-7.09-.83a6.65,6.65,0,0,1-1.25-.28c-.17-.06-.27-.29-.4-.44.16-.11.31-.29.48-.32A8.42,8.42,0,0,1,92.47,43.51Z"/><path class="cls-1" d="M163.89,32.43c-1.42-.15-2.93-.29-4.44-.47-2.23-.27-4.45-.55-6.68-.85-.33,0-.8-.07-.68-.59,0-.14.46-.3.69-.27q5.5.54,11,1.15a3.43,3.43,0,0,1,1,.29c.15.06.23.3.34.46a2.65,2.65,0,0,1-.53.27A3.63,3.63,0,0,1,163.89,32.43Z"/><path class="cls-1" d="M144.38,25c-1.52-.15-2.88-.28-4.24-.44-2.29-.27-4.57-.56-6.86-.84a.36.36,0,0,1-.21,0c-.21-.16-.4-.33-.6-.49.21-.15.43-.44.62-.43,2.79.29,5.58.62,8.37.93,1.08.12,2.15.2,3.22.36.22,0,.41.33.61.5a4.48,4.48,0,0,1-.64.43A.4.4,0,0,1,144.38,25Z"/><path class="cls-1" d="M120,41.7c3.16.35,6.33.69,9.48,1a9.6,9.6,0,0,1,1.48.34c.11,0,.18.19.27.29-.14.12-.26.33-.43.36a2.75,2.75,0,0,1-.86,0c-3.52-.4-7-.79-10.55-1.22a5.42,5.42,0,0,1-1.31-.54c.36-.76,1-.23,1.49-.3a2.08,2.08,0,0,1,.43,0Z"/><path class="cls-1" d="M99.85,33.94c1.46.16,2.9.29,4.33.47q3.33.39,6.65.86c.22,0,.41.31.62.47-.21.14-.44.41-.63.39-3.66-.37-7.32-.78-11-1.19a2.19,2.19,0,0,1-.82-.26c-.15-.08-.23-.3-.34-.46a2.48,2.48,0,0,1,.54-.27A2.58,2.58,0,0,1,99.85,33.94Z"/><path class="cls-1" d="M117.16,26.73l-10.53-1.28c-.34,0-.8-.09-.67-.6,0-.14.46-.3.68-.28,3.67.37,7.33.77,11,1.17a1.63,1.63,0,0,1,.63.16,2.25,2.25,0,0,1,.43.44c-.15.13-.27.33-.44.37A6,6,0,0,1,117.16,26.73Z"/><path class="cls-1" d="M104.7,50.27,101,49.81,90.64,48.55a3.88,3.88,0,0,1-.85-.16c-.17-.06-.28-.27-.42-.41a1.19,1.19,0,0,1,.41-.11c1.43.14,2.87.28,4.3.45,3,.36,6,.77,9,1.08a29,29,0,0,0,3.23,0,2.79,2.79,0,0,1,.4.07c-.08.11-.15.29-.25.32C105.82,50,105.13,50.15,104.7,50.27Z"/><path class="cls-1" d="M136.64,34.21l-6.16-.72c-1.43-.17-2.86-.36-4.28-.57-.19,0-.35-.22-.52-.33.2-.14.42-.42.61-.41,2.24.18,4.47.37,6.69.61,1.51.16,3,.39,4.5.62a2.52,2.52,0,0,1,.73.37,6.58,6.58,0,0,1-.84.42A2.86,2.86,0,0,1,136.64,34.21Z"/><path class="cls-1" d="M158.12,46.32c-1.43-.14-3.22-.3-5-.5-2.44-.26-4.88-.55-7.31-.85a12.44,12.44,0,0,1-1.69-.37c-.17-.05-.31-.25-.46-.37.18-.06.37-.19.54-.17,2.36.26,4.73.56,7.09.81,2.94.3,5.89.57,8.83.86a2.57,2.57,0,0,1,.55.19c-.22.13-.43.36-.66.39C159.51,46.36,159,46.32,158.12,46.32Z"/><path class="cls-1" d="M130.75,48.22c-3.52-.42-7.11-.83-10.69-1.27-1.14-.15-2.28-.35-3.41-.57-.16,0-.28-.27-.42-.41a4,4,0,0,1,.6,0c5,.58,10,1.18,15.08,1.75a12.68,12.68,0,0,0,1.5-.08c.11,0,.22.1.33.16-.1.09-.21.24-.32.25C132.56,48.09,131.7,48.15,130.75,48.22Z"/><path class="cls-1" d="M149.84,30c0,1.17-.3,2-1.34,2.41a2.2,2.2,0,0,0-.61.22c-.45.35-.87.73-1.3,1.1a7,7,0,0,0,.33-1.73c-.07-1.75,1.59-1.6,2.45-2.31C149.42,29.61,149.73,29.88,149.84,30Z"/><path class="cls-1" d="M120.27,34.1c-.34-2,1-1.83,1.84-2.2.62-.28.91,0,.83.66a2.37,2.37,0,0,1-2.4,2C120.37,34.5,120.23,34,120.27,34.1Z"/><path class="cls-1" d="M104.72,36.84c-2.26-.2-4.27-.37-6.28-.56a1.53,1.53,0,0,1-.52-.27c.22-.1.45-.32.66-.3,1.72.14,3.44.33,5.16.51.86.1,1.71.22,2.57.33.21,0,.41.09.62.13a4.5,4.5,0,0,1-.73.15C105.63,36.86,105.05,36.84,104.72,36.84Z"/><path class="cls-1" d="M159.76,33.28c-2.26-.23-4.91-.5-7.56-.79a1.8,1.8,0,0,1-.55-.25,2.31,2.31,0,0,1,.62-.11q3.45.32,6.89.66c.79.08,1.58.18,2.36.28a4,4,0,0,1,.59.18l-.65,0Z"/><path class="cls-1" d="M107.33,26.5l8.14.91.63.11-.64.09a4.7,4.7,0,0,1-.65,0c-3-.27-6-.54-9-.83a1.51,1.51,0,0,1-.53-.25,1.83,1.83,0,0,1,.55-.13c.5,0,1,.09,1.51.14Z"/><path class="cls-1" d="M132.23,35.05l-6.62-.63c-.19,0-.35-.21-.52-.32.17-.06.35-.19.52-.17,2.15.21,4.29.43,6.44.66.64.07,1.28.14,1.92.23a1.87,1.87,0,0,1,.4.13,2.36,2.36,0,0,1-.38.1C133.42,35.06,132.84,35.05,132.23,35.05Z"/><path class="cls-1" d="M132.21,24.56l6.17.68a5.2,5.2,0,0,1,.75.2,6.09,6.09,0,0,1-.85.07l-6-.51c-.16,0-.31-.2-.47-.31Z"/><path class="cls-1" d="M114.77,36.51a19.4,19.4,0,0,1-1.68,1.77.88.88,0,0,1-1.32-.21,3.16,3.16,0,0,1-.34-.77,2.56,2.56,0,0,1,.58-.11,3,3,0,0,0,2.5-1c.06-.06.23,0,.35,0Z"/><path class="cls-1" d="M119.37,28.92a.83.83,0,0,1-.18-.49c0-.19.27-.53.43-.54a3,3,0,0,0,2.23-1.19,1.12,1.12,0,0,1,.35-.15.58.58,0,0,1,.06.17,5.23,5.23,0,0,1-2.24,2.2Z"/><path class="cls-1" d="M140.94,35.38c0,.61-1.24,1.47-1.76,1.2a.93.93,0,0,1-.41-.68.72.72,0,0,1,.42-.56,7.41,7.41,0,0,1,1.49-.19C140.76,35.15,140.85,35.3,140.94,35.38Z"/><path class="cls-1" d="M148.36,25.37a.58.58,0,0,1-.09.21,14.89,14.89,0,0,1-1.47,1.5c-.13.11-.57-.18-.87-.29.13-.21.22-.51.41-.62.54-.32,1.12-.57,1.7-.84A.76.76,0,0,1,148.36,25.37Z"/><path class="cls-1" d="M168,33.28a6.31,6.31,0,0,1-1,1.14c-.23.16-.66,0-1,0-.09,0-.23-.23-.22-.33s.11-.45.24-.5a13.34,13.34,0,0,1,1.64-.47C167.73,33.11,167.83,33.2,168,33.28Z"/><path class="cls-1" d="M98.65,37.57c-.18,0-.32.07-.46.08-1.12.11-2.25.22-3.37.3-.1,0-.21-.12-.32-.19.09-.1.18-.28.27-.29,1.2,0,2.39,0,3.59,0A1,1,0,0,1,98.65,37.57Z"/><path class="cls-1" d="M123.86,35.91c-.83,0-1.26,0-1.69,0-.08,0-.16-.17-.24-.27.1-.08.2-.24.3-.24a10.84,10.84,0,0,1,1.27.09c.56.07,1.11.18,1.67.27Z"/><path class="cls-1" d="M103.2,28.49a3.16,3.16,0,0,1-.64-.06c-.09,0-.22-.2-.2-.26a.39.39,0,0,1,.28-.24c.56,0,1.12,0,1.67,0,.08,0,.15.16.22.25-.1.08-.2.2-.31.22C103.88,28.45,103.53,28.46,103.2,28.49Z"/><path class="cls-1" d="M89.19,98.29A77.85,77.85,0,0,1,65,94.57a29.22,29.22,0,0,1-10.09-5.39,15.78,15.78,0,0,1-1.52-1.54c-2.87-3.28-2.59-6.59-.16-10.35,1.61-2.5,4.09-4.08,6.62-5.5a52.45,52.45,0,0,1,11.3-4.4,2.89,2.89,0,0,1,3,.66q4.32,3.63,8.68,7.22l24,19.75a2.9,2.9,0,0,1,.49.43,6,6,0,0,1,.38.71,3.56,3.56,0,0,1-.58.24c-2.36.41-4.69.95-7.06,1.18C96.42,97.93,92.8,98.06,89.19,98.29Z"/><path class="cls-1" d="M92.84,64.8A74,74,0,0,1,118.41,69,27.61,27.61,0,0,1,126,73.15a11.39,11.39,0,0,1,4.5,6.93,6.3,6.3,0,0,1-.81,4.56,16,16,0,0,1-5.7,5.55,46,46,0,0,1-12.16,5.13,3.4,3.4,0,0,1-3.4-.71q-15.94-13.26-32-26.43c-.28-.23-.57-.46-.83-.71-.58-.55-.55-.83.19-1s1.41-.28,2.13-.4A85.47,85.47,0,0,1,92.84,64.8Z"/><path class="cls-1" d="M90.06,100.3c-9.14,0-17.17-.91-24.91-3.59a81.24,81.24,0,0,1-7.48-3.43c-.11,0-.16-.21-.24-.32.13,0,.27-.09.37,0a5.56,5.56,0,0,1,.78.37,54.5,54.5,0,0,0,18,5.41,82.66,82.66,0,0,0,15.16.88c9.23-.36,18.31-1.61,26.92-5.17,2.33-1,4.5-2.32,6.74-3.48a2.58,2.58,0,0,1,.56-.16,1.75,1.75,0,0,1-.33.49,35.11,35.11,0,0,1-7.43,4,61.15,61.15,0,0,1-15.49,4.07A75.64,75.64,0,0,1,90.06,100.3Z"/><path class="cls-1" d="M89.77,102.07a79,79,0,0,1-22.4-2.7c-.69-.2-1.38-.44-2.06-.67-.11,0-.2-.17-.3-.26.14,0,.28-.12.4-.09,1.26.33,2.5.72,3.77,1a67.64,67.64,0,0,0,13.49,2c2.75.1,5.5.36,8.24.3a93.59,93.59,0,0,0,18.71-2.23,6.45,6.45,0,0,1,.84-.21,2.13,2.13,0,0,1,.6.09c-.17.12-.32.32-.5.35-2.34.48-4.67,1-7,1.39A77.82,77.82,0,0,1,89.77,102.07Z"/><path class="cls-1" d="M118.91,96.76c-.09.1-.16.24-.27.3a5.16,5.16,0,0,1-.8.33c-.75.23-1.5.44-2.26.66.71-.34,1.42-.69,2.13-1a6.07,6.07,0,0,1,.8-.32A1.16,1.16,0,0,1,118.91,96.76Z"/><path class="cls-1" d="M215.85,71.8c-.24.82-.43,1.66-.72,2.46a1.49,1.49,0,0,0,.34,1.78c.16.14.41.26.47.44a3.48,3.48,0,0,1,.3,1.61c-.05.24-.82.37-1.28.46-1.14.21-2.3.29-3.42.55-5.49,1.31-11,2.63-16.46,4a21.87,21.87,0,0,0-3.22,1.2c-.64.27-1.28.47-1.83,0a1.53,1.53,0,0,1-.46-2,2.78,2.78,0,0,0-.3-2.83,6.43,6.43,0,0,1-.3-2.94c0-.27.36-.63.64-.78a6,6,0,0,1,1.44-.48L213.67,70c.21,0,.42-.13.63-.17,1-.18,1.27,0,1.37,1.09,0,.28,0,.58,0,.87Z"/><path class="cls-1" d="M210.44,63.25a2.77,2.77,0,0,1-.11,1c-.57,1.26-.93,2.4.36,3.5.31.25.16.87-.35,1.06a16.65,16.65,0,0,1-1.87.52q-9.08,2.17-18.14,4.33A6.85,6.85,0,0,0,187.17,75a1.84,1.84,0,0,1-.76.39,1.36,1.36,0,0,1-1.89-1.58c0-.36.28-.7.27-1a10.64,10.64,0,0,0-.25-1.87c0-.27-.32-.49-.41-.75-.68-2.11,0-3.28,2.09-3.79q11-2.61,22-5.16C210.23,60.75,210.45,60.93,210.44,63.25Z"/><path class="cls-1" d="M238.12,64.78a10.15,10.15,0,0,1,1.3.28,4.32,4.32,0,0,0,4.14-.2c.49-.31.79,0,.8.57a1.49,1.49,0,0,1-.66,1.48,4.05,4.05,0,0,1-3.06.78c-.84-.18-1.69-.35-2.53-.54-.2-.05-.49-.13-.56-.27-.18-.44-.47-1-.35-1.37S237.87,65,238.12,64.78Z"/><path class="cls-1" d="M238.08,58a11.67,11.67,0,0,1-2.21-.47,1.87,1.87,0,0,1-.85-1.11c-.22-.7.14-1.11.89-1.06a7,7,0,0,1,1.7.3,4.24,4.24,0,0,0,3.75-.24c.59-.36.89-.06.87.63A1.44,1.44,0,0,1,241,57.58C240.06,57.76,239.12,57.86,238.08,58Z"/><path class="cls-1" d="M240.89,59c.64.15,1.62.33,2.56.64.24.08.45.54.49.84s-.34.46-.58.54a6.81,6.81,0,0,1-4.85,0c-.33-.13-.78-.61-.75-.87s.5-.71.85-.83A14.12,14.12,0,0,1,240.89,59Z"/><path class="cls-1" d="M238.49,49.45c1,.25,1.87.44,2.74.74a1.31,1.31,0,0,1,.59.82c0,.12-.33.44-.57.54a6.78,6.78,0,0,1-5.25-.18.64.64,0,0,1,0-1.18C236.82,49.88,237.66,49.69,238.49,49.45Z"/><path class="cls-1" d="M239.3,54.59c-1.1-.21-2.24-.39-3.35-.67-.29-.07-.54-.44-.74-.73a.65.65,0,0,1,0-.59.59.59,0,0,1,.55-.15,9.46,9.46,0,0,0,5.74.17c.17,0,.39.08.58.13-.06.25-.05.6-.22.75A3.63,3.63,0,0,1,239.3,54.59Z"/><path class="cls-1" d="M241.6,64.25c-1.44-.4-2.7-.72-3.92-1.14-.21-.08-.26-.59-.39-.9.25-.08.53-.28.74-.22a12.14,12.14,0,0,0,5.59.12c.18,0,.39.08.59.13-.08.26-.08.64-.25.74C243.17,63.46,242.34,63.86,241.6,64.25Z"/><path class="cls-1" d="M238.5,68.72a1.1,1.1,0,0,1,.59,0,5.1,5.1,0,0,0,4.55-.25c.09,0,.35.11.48.23s0,.31-.08.38a5,5,0,0,1-1.39.94,6.22,6.22,0,0,1-5.17-.59c-.21-.13-.3-.44-.45-.66l.78-.14A3.62,3.62,0,0,1,238.5,68.72Z"/><path class="cls-1" d="M241,73a17.67,17.67,0,0,1-1.81-.24c-1-.23-1.83-1.08-1.53-1.17a6.7,6.7,0,0,1,1.61,0c1.14,0,2.28-.05,3.42-.06a2,2,0,0,1,.58.14c-.11.24-.16.62-.33.69C242.18,72.68,241.43,72.87,241,73Z"/><path class="cls-1" d="M255.45,60.74a8.74,8.74,0,0,1,1.65.23,4.65,4.65,0,0,0,3.76-.19c.56-.29.95.09.88.73a3.09,3.09,0,0,1-3.08,2.14,26.28,26.28,0,0,1-3.34-.83c-.19-.06-.46-.21-.5-.37a3.64,3.64,0,0,1-.16-1.42C254.68,60.88,255.26,60.81,255.45,60.74Z"/><path class="cls-1" d="M255.46,53.82l-2-.15a1.2,1.2,0,0,1-1.14-1.11c-.13-.69.18-1.17.89-1.17a6.82,6.82,0,0,1,1.9.27,4,4,0,0,0,3.35-.27,2.53,2.53,0,0,1,.81-.17,4.55,4.55,0,0,1,.18,1c-.06.88-.74,1.22-1.46,1.36A22.45,22.45,0,0,1,255.46,53.82Z"/><path class="cls-1" d="M258.47,57.36c-.91-.21-1.88-.41-2.83-.7a.82.82,0,0,1-.44-.63.9.9,0,0,1,.44-.65,5.65,5.65,0,0,1,5.34.18.67.67,0,0,1-.12,1.27C260.11,57.05,259.34,57.17,258.47,57.36Z"/><path class="cls-1" d="M256,45.51c.82.22,1.72.43,2.6.72a.82.82,0,0,1,.37.69.87.87,0,0,1-.52.59,7.18,7.18,0,0,1-4.88-.09c-.23-.08-.55-.42-.53-.59a1.1,1.1,0,0,1,.52-.81A22.12,22.12,0,0,1,256,45.51Z"/><path class="cls-1" d="M256.66,50.61c-1.27-.31-2.39-.57-3.5-.86a.94.94,0,0,1-.5-.38.77.77,0,0,1-.12-.58c.05-.15.33-.35.45-.32a13.27,13.27,0,0,0,6,.05c.13,0,.34.18.45.32a.42.42,0,0,1-.09.38A4.39,4.39,0,0,1,256.66,50.61Z"/><path class="cls-1" d="M259.13,60c-1.41-.28-2.62-.48-3.81-.77-.23,0-.43-.37-.57-.61a.77.77,0,0,1-.05-.61c.07-.13.34-.17.53-.23a.58.58,0,0,1,.21.05,9.29,9.29,0,0,0,5.35.2c.22-.06.52.13.78.21-.15.29-.21.7-.44.84C260.45,59.41,259.71,59.69,259.13,60Z"/><path class="cls-1" d="M255.85,64.44a3.21,3.21,0,0,1,1,.19,4.22,4.22,0,0,0,4.14-.24c.14-.08.39,0,.59,0-.06.26,0,.62-.21.75a5.35,5.35,0,0,1-6.61-.09.41.41,0,0,1-.12-.37.4.4,0,0,1,.29-.24A6.55,6.55,0,0,1,255.85,64.44Z"/><path class="cls-1" d="M258.19,69c-.66-.17-1.3-.3-1.91-.49-1-.3-1.62-1-1.31-1.12a4.5,4.5,0,0,1,1.41,0c1.22,0,2.44,0,3.66,0a2.41,2.41,0,0,1,.7.27c-.17.21-.3.52-.52.61C259.56,68.53,258.87,68.72,258.19,69Z"/><path class="cls-1" d="M301.89,45.55a12.37,12.37,0,0,1-.54,2.53,9.62,9.62,0,0,0-1,3.27c-.08,1.33-.9,1.6-2.11.85-.92-.57-1.82-1.17-2.71-1.8a.8.8,0,0,1-.11-1.3,3.52,3.52,0,0,1,.62-.6,2.48,2.48,0,0,0,1-2.26c0-1.37.11-2.73.23-4.09,0-.19.3-.4.51-.52,0,0,.35.22.42.4a3.79,3.79,0,0,1,.16.84l.18,1.05c.12-.31.27-.61.37-.92s.43-.52.83-.36A2.74,2.74,0,0,1,301.89,45.55Z"/><path class="cls-1" d="M297.54,37c0,.14,0-.08,0-.3.09-.77.19-1.55.28-2.32,1-.2,1.6.53,2.32,1a5.62,5.62,0,0,1,1.36,1,2.22,2.22,0,0,1,.65,1.29c0,1.44-.15,2.88-.3,4.31-.05.52-.46.49-.81.29s-1-.64-1.42-1a4.07,4.07,0,0,1-.43-.49c-.51-.54-1.71-.22-1.78-1.29A20.57,20.57,0,0,1,297.54,37Z"/><path class="cls-1" d="M300.81,56.4c-1.28,0-1.67-.39-1.59-1a7.31,7.31,0,0,1,3.48-3.89,3.14,3.14,0,0,1,3.37,2,1.46,1.46,0,0,1-.91,1.77C303.58,55.76,302,56.11,300.81,56.4Z"/><path class="cls-1" d="M298.56,53.92c-.1,1.16-.88,1.62-1.77,1.08s-1.58-1-2.34-1.55a1.57,1.57,0,0,1-.66-1.89c.08-.24.62-.59.74-.52,1.3.75,2.57,1.57,3.83,2.4C298.5,53.53,298.51,53.81,298.56,53.92Z"/><path class="cls-1" d="M302.82,45.4c.16-2.53.32-5.06.5-7.59,0-.14.26-.26.39-.39a1.33,1.33,0,0,1,.18.38,3.51,3.51,0,0,1,0,.65q-.2,4.54-.41,9.11c0,.07,0,.16,0,.21s-.34.36-.52.54c-.09-.18-.26-.36-.25-.53,0-.79.11-1.59.18-2.38Z"/><path class="cls-1" d="M79,5.44a17.22,17.22,0,0,1-2,6.84,2.61,2.61,0,0,0-.38,1.17c-.06,1.09-.05,1.18-.89,1.09-2.66-.27-5.32-.59-8-.9-.12,0-.34-.15-.34-.2s.11-.47.23-.5c1.38-.38,1.79-1.56,2.3-2.68.91-2,.92-4.23,1.31-6.36.33-1.75.31-1.81,2-1.79a22.44,22.44,0,0,1,3.67.3C79,2.78,79.09,3,79,5.44Z"/><path class="cls-1" d="M83.49,6.87A3.73,3.73,0,0,1,83.1,8c-1.31,1.55-2.64,3.07-4,4.58-.14.15-.5.1-.76.14,0-.2-.1-.44,0-.6a20.77,20.77,0,0,0,1.84-8.64,2,2,0,0,1,.12-.64,2.48,2.48,0,0,1,.35-.45,1.29,1.29,0,0,1,.22.35c.13.49.24,1,.37,1.48a2.75,2.75,0,0,0,1.37,1.85A5.36,5.36,0,0,1,83.49,6.87Z"/><path class="cls-1" d="M68.45,14.75c1.94.18,3.88.35,5.81.57a7.91,7.91,0,0,1,1.65.45.58.58,0,0,1,.25.51.66.66,0,0,1-.43.38,2.48,2.48,0,0,1-.86,0q-3.65-.4-7.29-.84a1.62,1.62,0,0,1-.77-.3c-.13-.09-.15-.38-.14-.57A.41.41,0,0,1,67,14.7c.5,0,1,0,1.5,0Z"/><path class="cls-1" d="M74.48,0c1.46.18,2.82.34,4.18.52a1.1,1.1,0,0,1,.6.24c.14.12.31.41.25.51a1.07,1.07,0,0,1-.59.5c-.25.05-.55-.13-.84-.16C76.3,1.42,74.5,1.24,72.72,1c-.17,0-.31-.21-.46-.33.13-.15.24-.42.4-.45C73.29.13,73.93.07,74.48,0Z"/><path class="cls-1" d="M165.68,77.15c-.11.85-.26,2.13-.46,3.41a2.56,2.56,0,0,1-.4,1.21,5.42,5.42,0,0,0-1,2.56c-.14.9-1,1.27-2,1.13s-1.64-.75-1.53-1.71a3.36,3.36,0,0,1,.54-1.61,4.16,4.16,0,0,0,.71-2.64c.08-2.66.23-5.32.37-8,0-.62.35-.8.84-.46.71.5,1.37,1.06,2,1.61a2.67,2.67,0,0,1,1,2.3C165.66,75.55,165.68,76.13,165.68,77.15Z"/><path class="cls-1" d="M167.7,77.87c.09.92.16,1.85.27,2.78.08.63-.26.9-.79,1.08s-.92,0-.89-.52q.24-3.31.55-6.62c0-.15.27-.28.41-.42.12.16.33.31.34.48.09,1.07.13,2.14.18,3.21Z"/><path class="cls-1" d="M164.58,86.81c-.16,0-.52,0-.88,0-.11,0-.3-.11-.31-.18a.43.43,0,0,1,.18-.34,8.85,8.85,0,0,1,1.84-1,21.37,21.37,0,0,1,3.16-.66c.19,0,.49.24.63.45s0,.43-.19.55C167.81,86.63,166.32,86.81,164.58,86.81Z"/><path class="cls-1" d="M144.87,142c1.49.24,2.56.4,3.63.59.66.11.58.48.27.91a26.38,26.38,0,0,1-6.71,6.07,69,69,0,0,1-6.18,3.59,3.94,3.94,0,0,1-4.76-.67.66.66,0,0,1,.09-.66,9.9,9.9,0,0,1,1.32-.73,36.51,36.51,0,0,0,7.7-5.19,29.65,29.65,0,0,0,2.69-2.8C143.57,142.37,144.17,141.72,144.87,142Z"/><path class="cls-1" d="M152.54,133.56A16.81,16.81,0,0,1,151,140a1.32,1.32,0,0,1-1.54.89c-1.13-.2-2.29-.28-3.42-.49a.67.67,0,0,1-.52-1,1,1,0,0,1,.08-.2c1.43-3,1-6,.1-9.08-.32-1.12-.24-1.22.9-1.36s2-.27,3-.39a1.52,1.52,0,0,1,1.83,1.14C151.92,131,152.28,132.56,152.54,133.56Z"/><path class="cls-1" d="M145.27,133a14.14,14.14,0,0,1-2.51,8.08c-.08.12-.34.11-.52.16,0-.14,0-.27,0-.4a.5.5,0,0,1,.08-.2,10.21,10.21,0,0,0,.51-8.19,8.06,8.06,0,0,0-.24-.84,1,1,0,0,1,.58-1.39c1-.48,1.38-.36,1.7.79A19.91,19.91,0,0,1,145.27,133Z"/><path class="cls-1" d="M139.18,153.35a4.49,4.49,0,0,1-.52.41c-1,.46-1.93.91-2.91,1.36l-.06-.14,2.84-1.52A2.27,2.27,0,0,1,139.18,153.35Z"/><path class="cls-1" d="M275.52,89.62a5.77,5.77,0,0,1,1.31.52q5.3,3.6,10.54,7.27a1.83,1.83,0,0,1,.36.49,2.49,2.49,0,0,1-.52.3q-5.15,1.33-10.29,2.65c-2.31.6-4.63,1.14-6.93,1.77a2.17,2.17,0,0,1-2-.33c-3.23-2.31-6.49-4.6-9.73-6.9a1.66,1.66,0,0,1-.62-.58.73.73,0,0,1,.17-.69,5.47,5.47,0,0,1,1.23-.36l15.36-3.83Z"/><path class="cls-1" d="M124.94,186l9.17,1.25c.21,0,.42.09.64.12,2.58.4,2.58.4,1.16,2.71-.31.5-.63,1-.94,1.46a1.63,1.63,0,0,1-1.83.8c-3.64-.55-7.28-1.06-10.92-1.59-1-.15-1.09-.33-.58-1.23.4-.69.86-1.34,1.25-2C123.47,186.42,124.26,185.81,124.94,186Z"/><path class="cls-1" d="M136.75,186.37l-7.65-1.1c-1.14-.17-2.29-.36-3.42-.57-.16,0-.28-.26-.42-.4.16-.1.33-.32.48-.3,1.65.15,3.31.32,5,.53,1.94.24,3.87.52,5.8.8a4,4,0,0,1,1,.27c.14.06.22.32.26.51,0,0-.19.19-.32.22A5.07,5.07,0,0,1,136.75,186.37Z"/><path class="cls-1" d="M106.86,177.3l10.64,1.47c.73.11.87.38.5,1s-1,1.42-1.39,2.2a2.4,2.4,0,0,1-2.85,1.35c-3.28-.46-6.57-.89-9.85-1.37-1-.14-1.22-.58-.7-1.47.37-.62.82-1.19,1.18-1.81C105,177.56,105.83,176.85,106.86,177.3Z"/><path class="cls-1" d="M118.72,177.62l-10.52-1.36a3.76,3.76,0,0,1-1-.26,2.28,2.28,0,0,1-.55-.49,2.76,2.76,0,0,1,.75-.25,8.56,8.56,0,0,1,1.52.08c3.07.42,6.15.86,9.22,1.3a3,3,0,0,1,.81.26c.11,0,.25.27.23.31a1.09,1.09,0,0,1-.41.39C118.6,177.66,118.44,177.62,118.72,177.62Z"/><path class="cls-1" d="M107.41,194.51c-3.66-.53-7.44-1.06-11.22-1.63-.73-.11-.83-.37-.41-1,.64-1.05,1.34-2.06,2-3.08a1.36,1.36,0,0,1,1.47-.67q5.67.81,11.36,1.58c.58.08.75.41.46.89-.67,1.11-1.38,2.2-2.08,3.29A1.42,1.42,0,0,1,107.41,194.51Z"/><path class="cls-1" d="M111.5,188.52l-6.75-.9c-2.07-.27-4.15-.54-6.23-.85-.22,0-.41-.26-.61-.4a4.41,4.41,0,0,1,.65-.51,1.25,1.25,0,0,1,.64,0l12.25,1.73a.72.72,0,0,1,.39.16,2.84,2.84,0,0,1,.32.5,3.92,3.92,0,0,1-.53.29C111.51,188.55,111.35,188.52,111.5,188.52Z"/><path class="cls-1" d="M151.35,184,159,185c1,.14,2,.23,3,.39a.61.61,0,0,1,.48,1c-.55,1-1.14,2-1.71,3a1.59,1.59,0,0,1-1.83.79c-2.21-.34-4.42-.66-6.63-1-1.57-.23-3.14-.44-4.71-.66-.61-.09-.69-.45-.44-.91.46-.82.94-1.63,1.44-2.42C149.39,184,149.51,183.91,151.35,184Z"/><path class="cls-1" d="M162.21,184.22c-2.63-.35-5.35-.71-8.07-1.09-1.51-.21-3-.45-4.51-.68-.11,0-.21-.15-.32-.23.14-.14.27-.39.42-.4a9.67,9.67,0,0,1,1.94,0c3.45.43,6.89.9,10.33,1.37a4.12,4.12,0,0,1,1,.29c.17.07.28.26.42.4a2.06,2.06,0,0,1-.5.31A3.59,3.59,0,0,1,162.21,184.22Z"/><path class="cls-1" d="M120.94,172.53l-10.49-1.43c-.6-.08-.66-.48-.4-.93s.53-.86.82-1.28c1.65-2.44,1.37-2.49,4.31-2,2.55.46,5.14.68,7.71,1a9.43,9.43,0,0,1,1.06.2c1.06.27,1.14.49.53,1.5-.33.55-.75,1.06-1,1.64A2.15,2.15,0,0,1,120.94,172.53Z"/><path class="cls-1" d="M113.86,164.55c4,.56,7.86,1.09,11.71,1.64.2,0,.37.32.55.48-.22.13-.46.4-.67.37q-5.78-.76-11.53-1.6c-.21,0-.38-.33-.56-.5Z"/><path class="cls-1" d="M139.58,181.21l-8.39-1.12c-.72-.1-1.44-.17-2.15-.29s-.95-.42-.53-1.19a14.36,14.36,0,0,0,.91-1.48c.73-1.88,2.16-2.06,3.89-1.8,3.08.48,6.17.87,9.25,1.29,1.06.15,1.2.45.65,1.45-.35.63-.77,1.23-1.12,1.86A2.2,2.2,0,0,1,139.58,181.21Z"/><path class="cls-1" d="M143.29,175.51l-7.77-1c-1.07-.15-2.14-.28-3.21-.47-.21,0-.38-.35-.56-.54.24-.11.49-.33.72-.31,1.08.1,2.15.26,3.22.4l7.51,1a4.29,4.29,0,0,1,1.05.28c.15.06.25.26.37.41a2.26,2.26,0,0,1-.52.3A4.08,4.08,0,0,1,143.29,175.51Z"/><path class="cls-1" d="M146.54,170.55c-3.25-.46-6.68-.9-10.1-1.44-1.69-.27-1.68-.37-.77-1.89,1.58-2.63,1.7-2.71,4.66-2.31s6,.82,9,1.25c.77.11.91.36.56,1-.54.94-1.13,1.84-1.71,2.76A1.35,1.35,0,0,1,146.54,170.55Z"/><path class="cls-1" d="M139.81,162.69l7.73,1c1,.13,2,.22,3,.39.24,0,.44.31.65.47-.27.16-.56.46-.83.44-.93-.06-1.86-.24-2.79-.37-2.43-.32-4.87-.62-7.3-.95a7.7,7.7,0,0,1-1.25-.34c-.12,0-.2-.18-.29-.28a2.17,2.17,0,0,1,.44-.36C139.28,162.64,139.45,162.69,139.81,162.69Z"/><path class="cls-1" d="M165,179.12l-10.8-1.46c-.74-.11-.89-.36-.49-1a13,13,0,0,1,2.17-3.2c1-.88,2.35,0,3.54.08,2.58.27,5.16.62,7.73.95a6.41,6.41,0,0,1,1,.25c.48.15.75.45.46,1s-.74,1.24-1,1.89C167.05,178.85,166.22,179.58,165,179.12Z"/><path class="cls-1" d="M156.93,170.94l7.59,1q2.35.33,4.71.69c.31,0,.85,0,.68.52,0,.17-.59.27-.9.27a12.48,12.48,0,0,1-1.72-.15L157.2,172a4.71,4.71,0,0,1-1-.28c-.14-.06-.24-.28-.31-.44s.18-.21.3-.23A4.77,4.77,0,0,1,156.93,170.94Z"/><path class="cls-1" d="M298.55,87.66c.16.22.49.46.49.7,0,1.42-.81,2.15-2.33,2.25-.19,0-.56-.1-.56-.18-.19-1.69-1.41-.92-2.28-1-.15,0-.28-.21-.42-.32.1-.09.2-.23.32-.26Z"/><path class="cls-1" d="M81.65,175.11A4,4,0,0,1,80.37,178a1.57,1.57,0,0,1-.91.44c-.71.12-1.12-.44-.76-1.05.54-.92,1.16-1.8,1.78-2.68a5,5,0,0,1,.73-.72Z"/><path class="cls-1" d="M83.49,172.7c.07,0,.33.19.33.2-.29.53-.6,1.06-.91,1.59a.3.3,0,0,1-.19,0,3.47,3.47,0,0,1,0-1.24C82.77,173,83.2,172.84,83.49,172.7Z"/><path class="cls-1" d="M230.71,112.08l-1.73-.26c.34-.81,1.09-.56,1.66-.56s1.46-.3,1.88.56Z"/><path class="cls-1" d="M245.83,96.89c.65.15,1.26.29,1.86.46.08,0,.16.25.13.35a.38.38,0,0,1-.3.22c-.56,0-1.12-.13-1.68-.2l-1.64-.2C244.53,96.66,245.33,97.25,245.83,96.89Z"/><path class="cls-1" d="M248.21,107.64a4.8,4.8,0,0,1-.85,0c-.37-.06-.93.27-1-.37a2.76,2.76,0,0,1,1.09-.35,3.93,3.93,0,0,1,1.28,0,4,4,0,0,1,1.09.38c-.19.74-.78.23-1.2.34a2,2,0,0,1-.42,0Z"/><path class="cls-1" d="M228.92,101.28c.58.2,1.42-.33,1.81.59-.62,0-1.24.14-1.87.13a13.26,13.26,0,0,1-1.64-.18C227.58,101,228.32,101.44,228.92,101.28Z"/><path class="cls-1" d="M164.85,123.77a9.61,9.61,0,0,1-1.1-.14.36.36,0,0,1-.23-.29.45.45,0,0,1,.26-.3,2.62,2.62,0,0,1,.81-.25c.74-.08,1.61.43,1.37.59A3.62,3.62,0,0,1,164.85,123.77Z"/></g></g></svg>