<svg xmlns="http://www.w3.org/2000/svg" viewBox="0 0 1193.1 491.52"><defs><style>.cls-1{fill:#d6d2c7;}.cls-2{fill:none;stroke:#d6d2c7;stroke-miterlimit:10;stroke-width:2.58px;}</style></defs><title>資產 94</title><g id="圖層_2" data-name="圖層 2"><g id="圖層_1-2" data-name="圖層 1"><rect class="cls-1" x="0.24" y="0.41" width="5.64" height="5.72"/><rect class="cls-1" x="0.24" y="485.8" width="5.64" height="5.72"/><rect class="cls-1" x="1186.86" y="485.79" width="5.64" height="5.72"/><rect class="cls-1" x="1186.86" y="0.3" width="5.64" height="5.72"/><polygon class="cls-2" points="611.84 489.85 1176.32 489.85 1176.32 474.55 1191.81 474.55 1191.81 16.59 1176.72 16.59 1176.72 1.29 16.38 1.29 16.38 16.59 1.29 16.59 1.29 474.55 16.15 474.55 16.15 489.85 611.84 489.85"/><polygon class="cls-2" points="1185.58 484.47 1185.58 7.42 7.16 7.42 7.16 341.19 7.16 484.47 641.72 484.47 1185.58 484.47 1185.58 484.47"/></g></g></svg>