<svg xmlns="http://www.w3.org/2000/svg" viewBox="0 0 116.21 98.4"><defs><style>.cls-1{fill:#d6d2c7;}</style></defs><g id="Layer_2" data-name="Layer 2"><g id="Layer_1-2" data-name="Layer 1"><path class="cls-1" d="M90.21,6.2a9.76,9.76,0,0,0-9.5,9.8l.1,8.6v3a9.6,9.6,0,0,0,19.2.2V24.2l-.1-8.5a9.42,9.42,0,0,0-9.7-9.5Zm6,23.8A5.63,5.63,0,0,1,85,31.2v-1l-.1-4.5h0l-.2-12.6a5.6,5.6,0,0,1,11.1-1.5,3.3,3.3,0,0,1,0,1.4L96,25.6h0Z"/><path class="cls-1" d="M105.81,7.1V8.5h0c.7,0,2.4.5,2.4,1.2l.4,26h2.5L110.71,7Z"/><path class="cls-1" d="M74.91,42.2l-15.1.2a4.35,4.35,0,0,1-4.4-4.3h0l-.2-15.6L54.91,7a4.35,4.35,0,0,1,4.3-4.4l15.1-.2V0L37.51.6h0L21.41.9A22,22,0,0,0,0,23.5H0a22,22,0,0,0,22.1,21.9h0L75,44.6Zm-62-19c-.2-11,6.9-20,15.7-20.2h1.5c-5.7,3.7-9.5,11.4-9.4,20.1s4.2,16.3,10,19.8h-1.4C20.41,43,13.11,34.2,12.91,23.2Zm35.7,19.4L38,42.8c-8.1-.1-14.8-9-15-19.7s6.4-20,14.5-20.2L48,2.7A4.35,4.35,0,0,1,52.41,7l.2,15.6.3,15.6A4.35,4.35,0,0,1,48.61,42.6Z"/><path class="cls-1" d="M116.21,61.6a12.84,12.84,0,0,0-13.2-11l-17.3.3h0L43,51.5l.3,19.9c.2,10.8-1.4,19.1-5,26l2,1c3.8-7.3,4.7-14.5,5.2-22l11.3-.2a4.18,4.18,0,0,1,3.8,2.4c4.2,8.8,10.2,15,18,18.7.6-.8,1.1-1.4,1.6-2.1a31.38,31.38,0,0,1-11.4-8.3,37.62,37.62,0,0,1-6.7-10.8h.5l41.2-.7a12.66,12.66,0,0,0,12.4-12.7ZM49,74.3a3.5,3.5,0,0,1-3.6-3.5h0L45.21,57a3.5,3.5,0,0,1,3.5-3.6h0l37-.6h0c3.9-.1,7.2,5,7.3,10.7.1,4.5-2,8.9-5,10.2Zm50.3-.8-7.6.1a14.69,14.69,0,0,0,3.6-10.2,14.51,14.51,0,0,0-4.5-10.7l5.8-.1c4.6-.1,8.4,4.7,8.5,10.6.1,4.9-2.4,8.9-5.8,10.3Z"/></g></g></svg>