<svg xmlns="http://www.w3.org/2000/svg" viewBox="0 0 116.24 98.33"><defs><style>.cls-1{fill:#d6d2c7;}</style></defs><g id="Layer_2" data-name="Layer 2"><g id="Layer_1-2" data-name="Layer 1"><path class="cls-1" d="M74.94,42.19l-15.1.23a4.36,4.36,0,0,1-4.44-4.28h0l-.24-15.6L54.91,7a4.38,4.38,0,0,1,4.3-4.44l15.1-.24V0L37.51.55h0L21.38.8A22,22,0,0,0,0,23.38H0A22,22,0,0,0,22.12,45.27h0L75,44.44Zm-62-19c-.17-11,6.85-20,15.7-20.23h1.45c-5.69,3.72-9.53,11.39-9.4,20.13s4.23,16.29,10,19.83H29.25C20.41,43,13.12,34.19,12.94,23.19ZM48.62,42.6,38,42.78c-8.09-.1-14.79-9-15-19.74S29.36,3,37.54,2.83L48,2.67A4.37,4.37,0,0,1,52.43,7l.24,15.6.25,15.6A4.37,4.37,0,0,1,48.62,42.6Z"/><path class="cls-1" d="M116.17,61.53C115.42,55,109.49,50.37,103,50.48l-17.3.27h0L43,51.42l.31,19.91c.15,10.8-1.43,19.11-5,26l2,1c3.78-7.29,4.73-14.46,5.19-22l11.35-.18a4.15,4.15,0,0,1,3.79,2.4c4.21,8.75,10.24,15,18,18.66.56-.77,1.07-1.42,1.62-2a32,32,0,0,1-11.44-8.33,37.2,37.2,0,0,1-6.69-10.77h.55l41.24-.65a12.52,12.52,0,0,0,12.36-12.67A12.09,12.09,0,0,0,116.17,61.53ZM49,74.27a3.56,3.56,0,0,1-3.62-3.5h0L45.16,57a3.55,3.55,0,0,1,3.5-3.62h0l37-.58h0c3.93-.06,7.22,5,7.31,10.66.07,4.5-2,8.88-5,10.21Zm50.34-.79-7.56.12a14.56,14.56,0,0,0,3.57-10.19,14.34,14.34,0,0,0-4.53-10.7l5.79-.09c4.59-.07,8.39,4.66,8.48,10.57.06,4.83-2.37,8.91-5.76,10.29Z"/></g></g></svg>