<svg xmlns="http://www.w3.org/2000/svg" viewBox="0 0 230.74 235.8"><defs><style>.cls-1{fill:#ee8948;}</style></defs><title>資產 60</title><g id="圖層_2" data-name="圖層 2"><g id="圖層_1-2" data-name="圖層 1"><path d="M229.41,196l-18.62-18.62-9.11-9.11c-2.47-2.47-6.5-9.34-10.7-5.14l-18.62,18.62-9.11,9.11c-2.47,2.47-9.35,6.5-5.14,10.71l18.62,18.62,9.11,9.11c2.47,2.47,6.49,9.35,10.7,5.14l18.62-18.62,9.11-9.11C226.74,204.27,233.62,200.24,229.41,196Z"/><path d="M140.41,1.33,121.78,20l-9.11,9.11c-2.47,2.47-9.34,6.5-5.14,10.71l18.62,18.62,9.12,9.11c2.47,2.47,6.49,9.35,10.7,5.14L164.59,54l9.11-9.11c2.47-2.47,9.35-6.5,5.14-10.71L160.22,15.58l-9.11-9.11C148.64,4,144.61-2.87,140.41,1.33Z"/><path d="M165.69,82.25l-18.62,18.62L138,110c-2.47,2.47-9.35,6.5-5.14,10.7l18.62,18.62q4.56,4.56,9.11,9.11c2.47,2.47,6.5,9.35,10.7,5.14l18.62-18.62,9.12-9.11c2.47-2.47,9.34-6.49,5.14-10.7L185.51,96.5l-9.12-9.11C173.92,84.92,169.9,78,165.69,82.25Z"/><path d="M54.43,92.87l18.62,18.62,9.12,9.11c2.46,2.47,6.49,9.35,10.7,5.14l18.62-18.62L120.6,98c2.47-2.47,9.35-6.5,5.14-10.71L107.12,68.68q-4.56-4.55-9.11-9.11c-2.47-2.47-6.5-9.34-10.71-5.14L68.68,73.05l-9.11,9.12C57.1,84.63,50.23,88.66,54.43,92.87Z"/><path d="M112.59,135.35,94,154l-9.11,9.11c-2.47,2.47-9.35,6.5-5.14,10.7L98.34,192.4l9.11,9.11c2.47,2.47,6.5,9.35,10.7,5.14L136.77,188l9.12-9.11c2.47-2.47,9.34-6.49,5.14-10.7L132.41,149.6l-9.12-9.11C120.82,138,116.8,131.14,112.59,135.35Z"/><path d="M1.33,146,20,164.59l9.11,9.11c2.47,2.47,6.5,9.35,10.71,5.14l18.62-18.62,9.11-9.11c2.47-2.47,9.35-6.5,5.14-10.7L54,121.78l-9.11-9.11c-2.47-2.47-6.5-9.34-10.71-5.14L15.58,126.15l-9.11,9.12C4,137.74-2.87,141.76,1.33,146Z"/><path class="cls-1" d="M130.87,46.8a7.88,7.88,0,0,0,4.93,10l2.52-7.45Z"/><path class="cls-1" d="M157.4,54.52c3.38-10-1.65-20.78-11.21-24l-6.14,18.15Z"/><line class="cls-1" x1="138.01" y1="47.97" x2="144.14" y2="29.82"/><rect class="cls-1" x="131.5" y="38.17" width="19.16" height="1.45" transform="translate(59.08 160.11) rotate(-71.34)"/><circle class="cls-1" cx="100.69" cy="97.11" r="8.15"/><path class="cls-1" d="M98.49,106.43a9.58,9.58,0,0,1-7.12-11.52,9.21,9.21,0,0,1,.37-1.16,10.56,10.56,0,1,0,8,12.88C99.29,106.58,98.89,106.52,98.49,106.43Z"/><path class="cls-1" d="M25.65,162.68a9.73,9.73,0,0,1-6.2-6.68l1.13-.3A8.57,8.57,0,0,0,31,161.77l16-4.23a8.56,8.56,0,0,0,6.07-10.46l1.13-.3a9.73,9.73,0,0,1-6.9,11.89L31.34,162.9A9.64,9.64,0,0,1,25.65,162.68Z"/><ellipse class="cls-1" cx="36.4" cy="147.46" rx="5.2" ry="9.75" transform="translate(-36.58 14.25) rotate(-14.85)"/><path class="cls-1" d="M37,157.64l-.14-.06h0l-.49-.24A12.74,12.74,0,0,1,32.19,154l-.1-.12-.1-.14c-.2-.26-.39-.52-.57-.79a.57.57,0,0,0-.08-.13.41.41,0,0,1-.05-.09c-.19-.3-.35-.6-.51-.91a1.24,1.24,0,0,1-.1-.2c-.16-.32-.31-.66-.44-1,0-.08-.06-.15-.08-.22a11,11,0,0,1-.36-1.11,11.56,11.56,0,0,1-.24-1.14c0-.08,0-.16,0-.23s-.05-.35-.06-.52a12.35,12.35,0,0,0-3.79-.68H25a12.18,12.18,0,0,0-4.52,1.09c0,.26.05.53.09.79l0,.2c.06.32.13.65.21,1l0,.12q.15.53.33,1a1.8,1.8,0,0,0,.08.21c.12.32.26.64.41.95l.09.17a9.42,9.42,0,0,0,.49.88l0,.06a2.43,2.43,0,0,0,.14.2,6.42,6.42,0,0,0,.42.6.56.56,0,0,0,.05.08l.1.12a9.41,9.41,0,0,0,.71.83h0a12.17,12.17,0,0,0,5.88,3.43h0c.35.08.7.15,1.05.2l.19,0c.34,0,.69.08,1,.1H32c.32,0,.63,0,1,0h.23c.34,0,.67,0,1-.1l.24,0c.34-.06.69-.13,1-.22l.14,0,.91-.29h0l.19-.07.39-.17Z"/><path class="cls-1" d="M51.16,141.71q-.13-.5-.3-1a1.34,1.34,0,0,1-.07-.18c-.1-.25-.21-.49-.32-.73A11.79,11.79,0,0,0,46,141.13c-.21.11-.42.22-.63.35a12,12,0,0,0-3,2.46l.2.48a2.09,2.09,0,0,0,.08.23c.13.36.25.73.35,1.1a11.56,11.56,0,0,1,.24,1.14,2.23,2.23,0,0,1,0,.23,10.37,10.37,0,0,1,.12,1.09c0,.08,0,.15,0,.23,0,.35,0,.69,0,1,0,0,0,.07,0,.1v.16c0,.32-.06.64-.1,1a1.1,1.1,0,0,0,0,.18l0,.15A12.57,12.57,0,0,1,41.41,156c-.1.16-.2.31-.31.46h0l-.09.13,0,.22.43,0,.19,0h0c.31,0,.62-.11.93-.19l.15,0c.34-.09.67-.2,1-.32l.23-.09a9.46,9.46,0,0,0,.92-.4l.21-.11a8.36,8.36,0,0,0,.83-.46L46,155c.3-.19.58-.39.85-.6l.15-.11a9,9,0,0,0,.81-.7l0,0a12.14,12.14,0,0,0,3.41-5.88v0a9.63,9.63,0,0,0,.21-1.07c0-.05,0-.1,0-.15s0-.07,0-.1c0-.24,0-.48.07-.73,0-.08,0-.16,0-.24v-.07c0-.34,0-.67,0-1v-.2c0-.34-.06-.68-.12-1l0-.22c-.06-.35-.13-.7-.22-1C51.19,141.79,51.17,141.75,51.16,141.71Z"/><path class="cls-1" d="M156.83,122.73a2.76,2.76,0,0,1,3.69,1.25l1-.49a3.88,3.88,0,1,0-7,3.43l7,14.27,1-.5-7-14.27A2.76,2.76,0,0,1,156.83,122.73Z"/><path class="cls-1" d="M187.57,113.21l-1,.5a9.61,9.61,0,0,1-4.36,12.87L162.9,136.1l.5,1,19.29-9.52A10.75,10.75,0,0,0,187.57,113.21Z"/><path class="cls-1" d="M181.12,124.41a7.19,7.19,0,0,0,3.27-9.63l-6.72,3.32-19.23,9.48,3.18,6.45Z"/><circle class="cls-1" cx="116.81" cy="177.23" r="5.4"/><circle class="cls-1" cx="131.13" cy="172.43" r="5.4"/><circle class="cls-1" cx="102.5" cy="182.03" r="5.4"/><rect class="cls-1" x="104.29" y="183.49" width="31.41" height="1.18" transform="translate(-52.23 47.62) rotate(-18.51)"/><rect class="cls-1" x="100.65" y="177.04" width="31.41" height="1.18" transform="translate(-50.37 46.13) rotate(-18.51)"/><path class="cls-1" d="M187.49,217.82a19.8,19.8,0,0,1-11.09-10.47l1-.46a18.67,18.67,0,0,0,10.46,9.87h0a18.66,18.66,0,0,0,14.39-.4l.46,1a19.82,19.82,0,0,1-15.25.42Z"/><path class="cls-1" d="M207.8,193.29a14.46,14.46,0,1,1-26.4,11.82l10.37-4.64a6.2,6.2,0,1,0,11.32-5.07Z"/></g></g></svg>