<svg xmlns="http://www.w3.org/2000/svg" viewBox="0 0 73.97 73.97"><defs><style>.cls-1{fill:#ee8948;}</style></defs><title>資產 58</title><g id="圖層_2" data-name="圖層 2"><g id="圖層_1-2" data-name="圖層 1"><path d="M72.64,34.2,54,15.58Q49.46,11,44.91,6.47C42.44,4,38.41-2.87,34.2,1.33L15.58,20Q11,24.51,6.47,29.06C4,31.53-2.87,35.56,1.33,39.77L20,58.39q4.56,4.55,9.11,9.11c2.47,2.47,6.5,9.35,10.71,5.14L58.39,54q4.55-4.56,9.11-9.11C70,42.44,76.85,38.41,72.64,34.2Z"/><path class="cls-1" d="M40.14,32.82A3.93,3.93,0,0,0,42,27.58l-3.54,1.7Z"/><path class="cls-1" d="M47.69,39.43a3.93,3.93,0,0,0-5.24-1.85l1.7,3.55Z"/><path class="cls-1" d="M38.45,29.23l-14.07,7a6.51,6.51,0,0,0,5.76,11.67l14.08-7Z"/><path class="cls-1" d="M41.81,53.8l-3-6,6-3a7.88,7.88,0,0,1-3,9m-.46,1.54a9,9,0,0,0,4.07-12l-8.05,4,4,8.05Z"/><rect class="cls-1" x="36.11" y="48.16" width="1.1" height="8.98" transform="translate(-19.53 21.69) rotate(-26.3)"/><rect class="cls-1" x="32.59" y="49.9" width="1.1" height="8.98" transform="translate(-20.67 20.31) rotate(-26.3)"/><rect class="cls-1" x="29.07" y="51.64" width="1.1" height="8.98" transform="translate(-21.8 18.93) rotate(-26.3)"/></g></g></svg>