<svg xmlns="http://www.w3.org/2000/svg" viewBox="0 0 96.78 97"><defs><style>.cls-1{fill:#b13234;}.cls-2{fill:#d6d2c7;}</style></defs><title>資產 136</title><g id="圖層_2" data-name="圖層 2"><g id="圖層_3" data-name="圖層 3"><path class="cls-1" d="M30.05,144.73c-.08-.08-.1-.14-.06-.19a2.61,2.61,0,0,1,.36-.3,9.21,9.21,0,0,0,3.15-4.33q.84-2.4-.15-1.77c-.22.14-.6.41-1.12.82a5.68,5.68,0,0,0-.88.75s0,0-.05.06c-.2.25-.34.35-.41.3a3.7,3.7,0,0,1-.4-.89c0-.09-.06-.16-.07-.2a3.38,3.38,0,0,0-.13-.37c-.16-.43-.22-.68-.18-.76s.28-.18.71-.28l.35-.07.53-.13c.94-.22,1.53-.37,1.78-.46a1,1,0,0,0,.64-.51,2.7,2.7,0,0,0,.11-1v-.28c0-.85-.09-1.36-.31-1.51s-.78-.13-1.69.08l-.53.08a.17.17,0,0,1-.16-.08.37.37,0,0,0-.37-.22,10.7,10.7,0,0,0-.93.62,10.86,10.86,0,0,0-1,.79l-.05,0a.88.88,0,0,0-.2.58c0,.29-.05,1.25-.06,2.9v.75c0,2.55,0,3.93-.09,4.12a1.86,1.86,0,0,1-1.56,1.36c-.44.11-.69.13-.75.07a.27.27,0,0,1-.07-.18,1.71,1.71,0,0,0-.39-1.11,2,2,0,0,0-1.08-.63q-.55-.15-.48-.27c.06-.08.29-.11.72-.08a5.24,5.24,0,0,0,1.31,0,.64.64,0,0,0,.5-.31c0-.07,0-.87.07-2.4s0-2.42,0-2.68-.24-.49-.58-.37a3.21,3.21,0,0,0-1.2,1c-.12.13-.21.16-.27.07a10.92,10.92,0,0,1-.44-1.1c0-.09-.07-.21-.13-.35q-.24-.63-.18-.75t.69-.33l.33-.09A4,4,0,0,0,27,134.4a8.81,8.81,0,0,0,.11-1.88,10.59,10.59,0,0,0-.06-2,.66.66,0,0,0-.62-.41,3.22,3.22,0,0,0-1.25.19l-.05,0c-.13.05-.22.05-.26,0a1.76,1.76,0,0,1-.27-.43l0,0c-.13-.28-.19-.43-.16-.46s.16,0,.43,0h.06a11,11,0,0,0,1.52.08.64.64,0,0,0,.57-.28,5,5,0,0,0,.09-1.61c0-.94-.09-1.82-.17-2.66a1.5,1.5,0,0,1,0-.58c0-.06.16-.05.38,0l0,0a11.52,11.52,0,0,1,1.91.59c.27.15.29.3.07.44a.72.72,0,0,0-.29.47,10.67,10.67,0,0,0-.06,1.52,5.18,5.18,0,0,0,.16,1.78c.12.15.34-.07.68-.64a1.75,1.75,0,0,1,.42-.56c.07,0,.2,0,.39.17.4.32.61.41.64.28s.21,0,.6,0a6.63,6.63,0,0,0,1.87,0c.35-.08.55-.38.59-.88a18.57,18.57,0,0,0-.17-2.51v0c0-.28,0-.44,0-.46a1.26,1.26,0,0,1,.58.1,9.48,9.48,0,0,1,1.7.57c.25.14.27.28.06.43l-.06,0q-.18.11-.21.66t-.06,3.75v.9a59.34,59.34,0,0,1-.24,6,10.11,10.11,0,0,1-.84,3.44,8.2,8.2,0,0,1-1.87,2.33,11.83,11.83,0,0,1-1.86,1.39C30.57,144.65,30.15,144.83,30.05,144.73Zm-.73-11a4.17,4.17,0,0,0,.9-.26l.09,0,.77-.29a.22.22,0,0,0,.11-.21c0-.08,0-.12.09-.14l.73.07h.06a11.1,11.1,0,0,0,1.52,0c.31,0,.5-.14.57-.29a6.45,6.45,0,0,0,.08-1.61,7.43,7.43,0,0,0-.1-1.63c-.14-.29-.57-.39-1.28-.29s-1.07.32-1.1.64a.31.31,0,0,1-.24.29,9.94,9.94,0,0,1-1.17.07h-.3c-.58,0-.91.06-1,.18a3.26,3.26,0,0,0-.14,1.29v.62a9.38,9.38,0,0,0,.07,1.21C29,133.65,29.13,133.76,29.32,133.76Zm8.68,11a.38.38,0,0,1-.26-.28,6.75,6.75,0,0,1,0-1.09q.15-2.73.13-10.15,0-4.76,0-6c0-.73-.08-1.43-.16-2.09V125c0-.24,0-.37,0-.4a1,1,0,0,1,.49.06l.09,0a8.4,8.4,0,0,1,1.76.56c.28.15.32.3.13.45s-.37.69-.37,1.44.11,1.2.35,1.31a.88.88,0,0,0,.79,0,2.17,2.17,0,0,0,.75-.8l0,0c.28-.41.47-.63.58-.64s.33.14.7.46c.82.72,1.18,1.17,1.06,1.36s-.8.27-2.05.27H41.5a8.28,8.28,0,0,0-1.15,0,.48.48,0,0,0-.41.37,6.76,6.76,0,0,0,0,1v.5a9.54,9.54,0,0,0,.07,1.64q.06.25.48.3a.78.78,0,0,0,.57-.12,2.27,2.27,0,0,0,.58-.67c.26-.43.47-.63.64-.61s.5.31,1,.85a3.56,3.56,0,0,1,.66.79c0,.16-.08.27-.37.31a13.35,13.35,0,0,1-1.63.09h-.53a4.66,4.66,0,0,0-1.08.07.5.5,0,0,0-.4.41,5.45,5.45,0,0,0,0,1.15V136c0,.75,0,1.22,0,1.43s.1.48.22.55a1.23,1.23,0,0,0,.55.07h0a1.51,1.51,0,0,0,.69-.11,2.92,2.92,0,0,0,.55-.71,2.42,2.42,0,0,1,.48-.61c.12-.11.27-.1.44,0a10.24,10.24,0,0,1,.8.75,7.08,7.08,0,0,1,.65.71c.09.14.11.26.05.34a.43.43,0,0,1-.37.19q-.3,0-1.83.06h-.31a15.59,15.59,0,0,0-1.6.06.36.36,0,0,0-.29.31l0,0a16.59,16.59,0,0,0,0,1.68c0,1,0,1.91.09,2.73a1.11,1.11,0,0,1-.66,1A1.4,1.4,0,0,1,38,144.73Z"/><path class="cls-1" d="M51.65,140.57a12.19,12.19,0,0,0-.53-1.15.19.19,0,0,1,0-.09q-.27-.62-.3-.72c0-.08,0-.13.12-.16l0,0c1-.35,1.62-.59,1.87-.71a1,1,0,0,0,.44-.35,19.42,19.42,0,0,0,.11-3.08,17.5,17.5,0,0,0-.11-3c-.22-.31-.68-.36-1.37-.15l-.11,0a.81.81,0,0,1-.38.06q-.08,0-.21-.3l-.07-.11a4.18,4.18,0,0,1-.21-.49c0-.06,0-.07.17-.06a6.45,6.45,0,0,0,1.63.11c.35,0,.56-.18.61-.4a9.74,9.74,0,0,0,0-1.92c0-1.11-.1-2-.19-2.81v-.09c0-.31,0-.48,0-.52s.19,0,.45.06a.24.24,0,0,1,.13,0,8.94,8.94,0,0,1,1.82.58c.27.16.28.3,0,.43a.53.53,0,0,0-.29.43c0,.21,0,.79,0,1.73a8,8,0,0,0,.12,1.95c.08.17.28,0,.61-.47s.42-.55.5-.55.3.14.62.48c.76.76,1.09,1.26,1,1.48a.34.34,0,0,1-.24.17c-.15,0-.51,0-1.08,0h-.4a3.31,3.31,0,0,0-.79.08c-.15.08-.24.26-.29.56s0,.69,0,1.45v1.39c0,.85,0,1.38,0,1.6s.17.45.36.45a3.92,3.92,0,0,0,1-.34L57,136a6,6,0,0,1,.89-.34c.11,0,.16,0,.16.12A10,10,0,0,1,56.61,137c-1,.78-2,1.54-3,2.29a7.94,7.94,0,0,0-1.43,1.21c-.1.21-.19.31-.26.31S51.76,140.77,51.65,140.57Zm13.84,3.89a1.62,1.62,0,0,0-.38-1,2.26,2.26,0,0,0-1-.57,1.9,1.9,0,0,1-.47-.2c-.07-.06-.09-.11-.06-.17s.25-.06.69,0a6,6,0,0,0,1.85-.07,1.47,1.47,0,0,0,.88-1,12.66,12.66,0,0,0,.51-2.42,8.57,8.57,0,0,0,.16-1.81.41.41,0,0,0-.47-.37.66.66,0,0,0-.47.15,2.67,2.67,0,0,0-.37.71A12.83,12.83,0,0,1,60.93,144a10.17,10.17,0,0,1-1.12.62c-.21.09-.34.09-.38,0a.17.17,0,0,1,0-.18,2.51,2.51,0,0,1,.42-.35,12.54,12.54,0,0,0,2.65-2.73,13.45,13.45,0,0,0,1.84-3.46,1.43,1.43,0,0,0,.13-.7.36.36,0,0,0-.3-.29c-.37-.1-.67.07-.91.53a13.22,13.22,0,0,1-2.72,3.26,17.42,17.42,0,0,1-3.78,2.55,1.57,1.57,0,0,1-.35.17.13.13,0,0,1-.13-.06.18.18,0,0,1-.06-.21,2,2,0,0,1,.41-.34A15.33,15.33,0,0,0,60.42,139a6.76,6.76,0,0,0,1-1.64c.08-.3-.07-.45-.43-.45a.9.9,0,0,0-.48.12,8.47,8.47,0,0,0-.67.58,16.23,16.23,0,0,1-2.93,2.23c-1.11.67-1.67.86-1.67.55a2.16,2.16,0,0,1,.53-.48,15.62,15.62,0,0,0,2.72-3c.89-1.22,1.23-2,1-2.25s-.72-.28-1.67-.07h0a1.79,1.79,0,0,1-.62.1c-.07,0-.15-.14-.24-.34l-.05-.07a1.67,1.67,0,0,1-.2-.52s.12-.06.31,0q1.31.11,5.91.11H64.1c1.24,0,2,0,2.38,0a2.58,2.58,0,0,0,1-.16,1,1,0,0,0,.39-.44A1.38,1.38,0,0,0,68,133c.25-.41.44-.63.58-.66s.38.1.75.38a6.61,6.61,0,0,1,1,.91c.26.29.37.49.32.6s-.25.17-.6.18-1.59,0-3.69.05h-1c-1.22,0-2,0-2.31,0a3.34,3.34,0,0,0-.95.15.82.82,0,0,0-.31.36l-.09.19-.1.16a1.55,1.55,0,0,0-.27.61c0,.12.23.2.6.22s.92,0,2,.05h1.21a22.52,22.52,0,0,0,2.26-.06,1.11,1.11,0,0,0,.67-.4l.11-.11a1.68,1.68,0,0,1,.53-.46c.1,0,.28.07.53.26a6.15,6.15,0,0,1,1.13,1c.16.23.12.4-.1.5a.92.92,0,0,0-.47.4,4.27,4.27,0,0,0-.19,1.08,13.91,13.91,0,0,1-1,4.49,3,3,0,0,1-2,1.69,3.21,3.21,0,0,1-.62.1c-.25,0-.37,0-.39,0A1.4,1.4,0,0,1,65.49,144.46Zm-6.3-11.38a.35.35,0,0,1-.25-.26,3.15,3.15,0,0,1,0-.78c.06-.88.08-2,.07-3.26s-.06-2.29-.13-3.17a1.29,1.29,0,0,0,0-.24q-.06-.57,0-.63c.06,0,.28,0,.68.21l.23.11.28.13a3.37,3.37,0,0,0,1,.35,16.19,16.19,0,0,0,1.63,0H64a12,12,0,0,0,1.85-.08,1.25,1.25,0,0,0,.64-.52l.13-.17c.22-.3.38-.45.47-.45s.31.11.63.36a4.83,4.83,0,0,1,1.16,1.06c.15.25.1.43-.15.55a1,1,0,0,0-.46.89c0,.46,0,1.58,0,3.36,0,.07,0,.18,0,.33a4.11,4.11,0,0,1-.06,1.21c-.06.13-.28.26-.66.4l-.13,0c-.8.31-1.19.28-1.19-.09a.64.64,0,0,0-.11-.42,1.79,1.79,0,0,0-.71-.15c-.28,0-.89,0-1.85,0s-1.53,0-1.78,0a1.9,1.9,0,0,0-.71.11.6.6,0,0,0-.2.33c-.06.21-.29.4-.71.57A1.56,1.56,0,0,1,59.19,133.08ZM66,128.32c.23-.12.35-.47.35-1s-.12-.92-.35-1a12.22,12.22,0,0,0-2.4-.11,11.57,11.57,0,0,0-2.36.11c-.21.13-.3.48-.3,1.06s.12.91.34,1a13.85,13.85,0,0,0,2.36.09A13.85,13.85,0,0,0,66,128.32Zm0,2.88c.21-.13.3-.49.29-1.09s-.13-.94-.33-1a10.84,10.84,0,0,0-2.36-.11,10.84,10.84,0,0,0-2.36.11c-.2.1-.31.45-.33,1s.08,1,.29,1.07a13.5,13.5,0,0,0,2.4.11A13.88,13.88,0,0,0,66,131.2Z"/><circle class="cls-1" cx="48.39" cy="48.39" r="48.39"/><path class="cls-2" d="M61.28,54.66a2.1,2.1,0,0,0-1.9,1.06,3.65,3.65,0,0,0-.31,1.11c0,.07.09.16.14.23a.63.63,0,0,0,.13-.24,2.15,2.15,0,0,1,1-1.61,1.28,1.28,0,0,1,2,.69,1.72,1.72,0,0,1-1.59,2.18,1.26,1.26,0,0,0-.29,0,1.47,1.47,0,0,0-.28.14c.09.06.18.18.27.19a2,2,0,0,0,1.89-.79,1.8,1.8,0,0,0,.31-2A1.52,1.52,0,0,0,61.28,54.66Z"/><path class="cls-2" d="M60.79,58.68h-.3a.63.63,0,0,1-.32-.18l-.06-.05-.31-.22.41-.22a.89.89,0,0,1,.26-.11,1.23,1.23,0,0,1,.29,0A1.78,1.78,0,0,0,62,57.1,1.34,1.34,0,0,0,62.18,56a1,1,0,0,0-.63-.72,1.14,1.14,0,0,0-1,.15,1.87,1.87,0,0,0-1,1.45.49.49,0,0,1-.12.26l0,.06-.19.34L59,57.19l0,0a.4.4,0,0,1-.13-.36c0-.08,0-.17,0-.26a3,3,0,0,1,.28-.92,2.33,2.33,0,0,1,2.1-1.17h0a1.74,1.74,0,0,1,1.64,1.13,2,2,0,0,1-.34,2.24A2.19,2.19,0,0,1,60.79,58.68Z"/><path class="cls-2" d="M38.42,59.07a1.69,1.69,0,0,0-1.52,2.26,2.19,2.19,0,0,0,2.37,1.36,1.29,1.29,0,0,0,.21,0c.16-.1.31-.21.46-.32a2.05,2.05,0,0,0-.49-.06,2,2,0,0,1-1.68-.35,1.61,1.61,0,0,1-.47-1.86,1.37,1.37,0,0,1,1.6-.58,2.23,2.23,0,0,1,1.4,1c0,.08.15.12.23.18a1.31,1.31,0,0,0,0-.28A2.3,2.3,0,0,0,38.42,59.07Z"/><path class="cls-2" d="M38.92,62.94a2.4,2.4,0,0,1-2.24-1.53,1.89,1.89,0,0,1,.22-1.72,1.84,1.84,0,0,1,1.51-.84h0a2.49,2.49,0,0,1,2.32,1.49.81.81,0,0,1,0,.27l0,.51-.35-.26-.07,0a.58.58,0,0,1-.22-.2,2,2,0,0,0-1.25-.92,1.19,1.19,0,0,0-1.35.46,1.38,1.38,0,0,0,.41,1.58,1.78,1.78,0,0,0,1.51.3,1.1,1.1,0,0,1,.41,0l.14,0,.59.08-.61.42a2.71,2.71,0,0,1-.35.24.47.47,0,0,1-.24.07H39.3A2.43,2.43,0,0,1,38.92,62.94Z"/><path class="cls-2" d="M32.26,59.42a1.41,1.41,0,0,0-1.53.18,1.34,1.34,0,0,0-.47,1.45,2,2,0,0,0,2.27,1.71,1.92,1.92,0,0,0,.45-.27l-.46-.1a.76.76,0,0,0-.15,0,1.52,1.52,0,0,1-1.69-1.31c-.08-.44-.14-.93.26-1.24a1.15,1.15,0,0,1,1.39,0A8.56,8.56,0,0,1,33.44,61l.18.21c0-.11.09-.22.07-.31A2.07,2.07,0,0,0,32.26,59.42Z"/><path class="cls-2" d="M32.17,63a2,2,0,0,1-1.07-.32A2.49,2.49,0,0,1,30,61.1a1.55,1.55,0,0,1,.54-1.67,1.62,1.62,0,0,1,1.76-.23,2.31,2.31,0,0,1,1.57,1.64.62.62,0,0,1,0,.34l0,.08-.1.45-.35-.42-.11-.13c-.12-.12-.22-.24-.33-.37a5.22,5.22,0,0,0-.75-.74.92.92,0,0,0-1.12,0c-.29.21-.25.58-.17,1a1.27,1.27,0,0,0,1.45,1.12.66.66,0,0,1,.2,0l.36.08.65.15-.47.29-.13.09a1,1,0,0,1-.39.21A1.84,1.84,0,0,1,32.17,63ZM32.8,60c.17.16.32.33.47.5A1.71,1.71,0,0,0,32.8,60Z"/><path class="cls-2" d="M72.56,49.77a2.49,2.49,0,0,0-1,2.23,1.56,1.56,0,0,0,.14.33c0-.12.15-.23.15-.35a2.49,2.49,0,0,1,.83-1.83.65.65,0,0,1,1,0,1.59,1.59,0,0,1-.32,2.58c-.17.09-.36.14-.53.24a1.39,1.39,0,0,0-.23.25c.11,0,.22.11.32.1A2,2,0,0,0,74.55,51C74.33,49.88,73.41,49.32,72.56,49.77Z"/><path class="cls-2" d="M72.89,53.54a.82.82,0,0,1-.29-.08l-.08,0-.33-.1.23-.27.06-.07a.77.77,0,0,1,.22-.22l.31-.14.23-.1a1.37,1.37,0,0,0,.71-1,1.4,1.4,0,0,0-.44-1.18.43.43,0,0,0-.71,0A2.28,2.28,0,0,0,72,52a.73.73,0,0,1-.12.35.41.41,0,0,0,0,.09l-.22.47-.2-.47,0-.1a1,1,0,0,1-.11-.28,2.68,2.68,0,0,1,1.17-2.47h0a1.43,1.43,0,0,1,1.32,0,1.89,1.89,0,0,1,1,1.39,2.2,2.2,0,0,1-.4,1.7,2.11,2.11,0,0,1-1.44.91Z"/><path class="cls-2" d="M25.57,58.81c-.25.22-.54.36-.67.59a1.78,1.78,0,0,0,.07,2,1.9,1.9,0,0,0,1.84.86c.15,0,.29-.18.44-.28a2,2,0,0,0-.46-.1c-1,0-1.4-.31-1.7-1.13a1.53,1.53,0,0,1,.32-1.44.91.91,0,0,1,1.14.24,13.15,13.15,0,0,1,1,1.25s.09.1.13.16.1-.16.09-.23a2.24,2.24,0,0,0-1.11-1.57A4.33,4.33,0,0,0,25.57,58.81Z"/><path class="cls-2" d="M26.57,62.52a2.11,2.11,0,0,1-1.78-1,2,2,0,0,1-.09-2.26,1.57,1.57,0,0,1,.49-.47l.23-.18.1-.08.12,0,.36.09a2.42,2.42,0,0,1,.77.3A2.55,2.55,0,0,1,28,60.72a.43.43,0,0,1-.08.29l-.14.35-.27-.23L27.35,61l-.3-.4a8,8,0,0,0-.66-.83c-.3-.3-.59-.37-.86-.2a1.35,1.35,0,0,0-.22,1.16c.27.73.59.94,1.49,1a1.43,1.43,0,0,1,.37.07l.13,0,.5.12-.42.29-.12.09a.83.83,0,0,1-.42.23Z"/><path class="cls-2" d="M66.93,52.46a2.25,2.25,0,0,0-1.08,2.11,1.74,1.74,0,0,0,.11.18.86.86,0,0,0,.15-.28,2.18,2.18,0,0,1,1.07-1.77,1,1,0,0,1,1.33.2,1.66,1.66,0,0,1-.28,2.36,7.24,7.24,0,0,1-.79.39,1,1,0,0,0-.25.22c.12.05.26.15.37.13a2.16,2.16,0,0,0,1.7-2.44,4,4,0,0,0-.41-.76A1.39,1.39,0,0,0,66.93,52.46Z"/><path class="cls-2" d="M67.53,56.23a.67.67,0,0,1-.32-.1l-.1,0L66.75,56,67,55.7l.07-.06a.92.92,0,0,1,.23-.2l.34-.15a2.16,2.16,0,0,0,.43-.22,1.31,1.31,0,0,0,.54-.94,1.38,1.38,0,0,0-.3-1.08.77.77,0,0,0-1-.15,1.91,1.91,0,0,0-1,1.58.68.68,0,0,1-.13.31l0,.07-.18.33-.21-.32a.83.83,0,0,1-.14-.23,2.44,2.44,0,0,1,1.19-2.38h0a1.62,1.62,0,0,1,2.21.39,2.45,2.45,0,0,1,.32.57l.12.24,0,.06a2.37,2.37,0,0,1-1.88,2.7Z"/><path class="cls-2" d="M21.56,58.05a.75.75,0,0,0-1,.37,1.94,1.94,0,0,0,.35,2.31,2,2,0,0,0,1.49.51c.1,0,.2-.11.3-.16-.08-.07-.16-.18-.25-.2a4.7,4.7,0,0,0-.51-.06,1.34,1.34,0,0,1-1.18-1.17,2.13,2.13,0,0,1,0-.35c0-.36,0-.84.44-.9a1.13,1.13,0,0,1,.86.4,10.13,10.13,0,0,1,.75,1.33,3.46,3.46,0,0,0,.22.31c0-.13.13-.27.1-.39A2.88,2.88,0,0,0,21.56,58.05Z"/><path class="cls-2" d="M22.33,61.47a2.25,2.25,0,0,1-1.63-.57,2.17,2.17,0,0,1-.39-2.59,1,1,0,0,1,1.36-.46h0A3.13,3.13,0,0,1,23.28,60a.66.66,0,0,1-.07.4l0,.1-.13.47-.35-.48a1.38,1.38,0,0,1-.17-.25,3.81,3.81,0,0,1-.23-.45,4.55,4.55,0,0,0-.5-.84,1,1,0,0,0-.65-.33c-.17,0-.21.18-.24.6v.1a.82.82,0,0,0,0,.23v.07a1.1,1.1,0,0,0,1,1,.65.65,0,0,0,.2,0,2.11,2.11,0,0,1,.33,0,.73.73,0,0,1,.28.19l.06.06.25.21-.28.16-.08,0A.66.66,0,0,1,22.33,61.47Z"/><path class="cls-2" d="M76.78,47.1A2.82,2.82,0,0,0,76,49.66c0,.1.16.16.24.23,0-.1.09-.22.07-.31a2.61,2.61,0,0,1,.3-1.78c.36-.69.85-.7,1.27,0a1.54,1.54,0,0,1-.74,2.36,1.9,1.9,0,0,0-.29.28,1.2,1.2,0,0,0,.45.05,2.18,2.18,0,0,0,1.32-2.18,9.81,9.81,0,0,0-.79-1.12A.79.79,0,0,0,76.78,47.1Z"/><path class="cls-2" d="M77.24,50.69a1.09,1.09,0,0,1-.26,0l-.13,0-.47-.06.34-.33.08-.09a1,1,0,0,1,.26-.23,1.65,1.65,0,0,0,.89-1,1.32,1.32,0,0,0-.23-1c-.16-.24-.32-.38-.45-.38h0c-.13,0-.29.16-.42.41a2.27,2.27,0,0,0-.27,1.62.61.61,0,0,1,0,.34l0,.08-.1.37-.28-.26A.18.18,0,0,0,76,50a.72.72,0,0,1-.22-.26,3,3,0,0,1,.84-2.84A1,1,0,0,1,78,47a4.85,4.85,0,0,1,.58.79c.07.12.15.23.23.35l0,0v.06a2.41,2.41,0,0,1-1.48,2.42A.41.41,0,0,1,77.24,50.69Zm1.16-2.38a.51.51,0,0,1,0,.13v-.1Z"/><path class="cls-2" d="M44.87,58.58a1.6,1.6,0,0,0-.77,1.27,1.79,1.79,0,0,0,.09.4,1,1,0,0,0,.22-.31,1.7,1.7,0,0,1,2.8-1,4,4,0,0,1,.55.66s.16.11.17.09a.64.64,0,0,0,.14-.21,4.87,4.87,0,0,0-.28-.47A2.18,2.18,0,0,0,44.87,58.58Z"/><path class="cls-2" d="M44.09,60.8,44,60.31l0-.11a1,1,0,0,1-.07-.36,1.8,1.8,0,0,1,.87-1.45h0a2.39,2.39,0,0,1,3.23.49,2.53,2.53,0,0,1,.21.32l.16.28-.1.17a.58.58,0,0,1-.15.21c-.22.19-.5-.11-.5-.11a2.56,2.56,0,0,1-.2-.26,1.47,1.47,0,0,0-.32-.37,1.58,1.58,0,0,0-1.46-.3,1.64,1.64,0,0,0-1,1.18.69.69,0,0,1-.18.3l-.07.09Z"/><path class="cls-2" d="M53.06,56.85a1.93,1.93,0,0,0-1.36,1.43.39.39,0,0,0,0,.15,3,3,0,0,0,.11.32,2.31,2.31,0,0,0,.2-.24,3.87,3.87,0,0,1,.48-.9,1.67,1.67,0,0,1,2.78.32,1.16,1.16,0,0,0,.26.23l.12-.32a4.72,4.72,0,0,0-.43-.61A2,2,0,0,0,53.06,56.85Z"/><path class="cls-2" d="M51.7,59.22l-.16-.48a2.58,2.58,0,0,1-.08-.26.55.55,0,0,1,0-.23A2.16,2.16,0,0,1,53,56.63h0a2.25,2.25,0,0,1,2.36.43,1.82,1.82,0,0,1,.34.46,2.14,2.14,0,0,0,.13.19l.06.1-.27.75-.26-.22-.07-.07a.86.86,0,0,1-.22-.21,1.73,1.73,0,0,0-1.21-.82,1.58,1.58,0,0,0-1.22.53,1.65,1.65,0,0,0-.28.51c-.05.11-.1.23-.16.34a1,1,0,0,1-.17.22Z"/><path class="cls-2" d="M47.28,61.1c-1.16.65-1.55.61-2.53-.25a1.31,1.31,0,0,0-.36-.16c0,.15,0,.34.09.44a2.23,2.23,0,0,0,2.23.76c.18-.11.49-.26.77-.45.1-.08.13-.28.19-.42A1.59,1.59,0,0,0,47.28,61.1Z"/><path class="cls-2" d="M46.19,62.15a2.26,2.26,0,0,1-1.89-.88.7.7,0,0,1-.12-.41s0-.09,0-.12l-.08-.42.39.16.11,0a.8.8,0,0,1,.32.16c.91.78,1.2.81,2.27.22h0a1,1,0,0,1,.34-.09h.11l.43-.09-.17.4a.56.56,0,0,0,0,.12.69.69,0,0,1-.23.39A4.39,4.39,0,0,1,47,62l-.24.11A3.48,3.48,0,0,1,46.19,62.15Zm.47-.5,0,0h0Z"/><path class="cls-2" d="M53.13,60c-.14,0-.28-.09-.42-.11a.59.59,0,0,0-.25.07c0,.08.07.21.13.22.46.13.93.23,1.19.3a2.14,2.14,0,0,0,1.73-1.33,1.15,1.15,0,0,0,0-.45,1.53,1.53,0,0,0-.28.29A1.82,1.82,0,0,1,53.13,60Z"/><path class="cls-2" d="M53.78,60.73l-.26-.06-1-.25a.41.41,0,0,1-.25-.27s0,0,0-.06l-.15-.25.34-.1a.58.58,0,0,1,.28-.06,1.53,1.53,0,0,1,.29.07l.16,0h0A1.58,1.58,0,0,0,55,58.9a1.19,1.19,0,0,1,.23-.26l.08-.08.36-.37,0,.51a.5.5,0,0,0,0,.12.9.9,0,0,1,0,.43,2.33,2.33,0,0,1-1.9,1.47Z"/><path class="cls-2" d="M82.67,40.48a1.26,1.26,0,0,1-.27-.73,1.67,1.67,0,0,0-.6-1.29,2.14,2.14,0,0,1-.49-.78c-.31-1.06-.57-2.14-.84-3.21A5,5,0,0,0,79,32a9.9,9.9,0,0,0-5-2.33A39.65,39.65,0,0,0,64.23,29c-3.07.14-6.14.44-9.2.68a73.66,73.66,0,0,0-10,1.41c-.86.19-1.75.31-2.6.56-2.5.73-5,1.51-7.49,2.26a81.32,81.32,0,0,0-9.83,3.59,34.42,34.42,0,0,0-8,4.63c-2.21,1.82-3.53,4-2.86,7a5.58,5.58,0,0,1,.2,3.41c0,.1,0,.24,0,.36A5.4,5.4,0,0,1,14.45,54a1.68,1.68,0,0,0,.45,1.75,1.08,1.08,0,0,1,.29.64,1.82,1.82,0,0,0,.91,1.51,1.31,1.31,0,0,1,.5.49,14.46,14.46,0,0,0,1.85,3.09c1,1.26,1.84,2.61,2.87,3.83A15.54,15.54,0,0,0,27,69.53a27.5,27.5,0,0,0,7.18,2,56.44,56.44,0,0,0,18.15-.65,62,62,0,0,0,10.44-2.92,40.5,40.5,0,0,0,12.8-7.21,16.69,16.69,0,0,0,4.18-5.38,36.82,36.82,0,0,0,2.33-8.13c.24-1.07,0-2.21.59-3.24.1-.18,0-.47,0-.72a2.2,2.2,0,0,1,.11-.82A1.7,1.7,0,0,0,82.67,40.48ZM38.72,33.15c2.13-.52,4.23-1.13,6.55-1.76C48,31,51,30.48,53.92,30.2a34.77,34.77,0,0,1,5.3.1,4.21,4.21,0,0,1,1.59.53c.56.28.66.72.2,1.13a11.63,11.63,0,0,1-2.35,1.74,31.22,31.22,0,0,1-6.61,2.5c-1.48.41-2.93.88-4.42,1.19q-3,.63-6.11,1c-1.81.25-3.63.41-5.44.49a32.27,32.27,0,0,1-3.68-.17,4.22,4.22,0,0,1-1.14-.32c-1.05-.4-1.19-1-.33-1.73a10.78,10.78,0,0,1,2.15-1.41A26.32,26.32,0,0,1,38.72,33.15ZM16.19,43.79a12.28,12.28,0,0,1,4-3.33,61.25,61.25,0,0,1,8.67-4.09c1.14-.44,2.31-.83,3.47-1.24a2.7,2.7,0,0,1,.28,0l-.23.17a18.23,18.23,0,0,0-1.78,1.32,1.16,1.16,0,0,0,.5,2.14,15,15,0,0,0,3.19.52,36.29,36.29,0,0,0,7.65-.52L46.61,38a56.38,56.38,0,0,0,11.27-3.5A9.91,9.91,0,0,0,61,32.51c.93-.95.76-1.79-.51-2.21a17.26,17.26,0,0,0-2.16-.46,1.47,1.47,0,0,1-.22-.1l.21,0a73.67,73.67,0,0,1,12.69,0,15.72,15.72,0,0,1,5.69,1.45,3,3,0,0,1,1.66,1.7,2.79,2.79,0,0,1-.7,2.6A12.65,12.65,0,0,1,74,38.54a44.94,44.94,0,0,1-9.34,4.38c-1.87.64-3.76,1.26-5.65,1.84-1.09.34-2.19.66-3.29,1-2.92.81-5.86,1.54-8.84,2.11-2.76.52-5.54.94-8.33,1.29L37,49.3a63.63,63.63,0,0,1-14,.23,16.72,16.72,0,0,1-5.16-1.24,7.53,7.53,0,0,1-1.62-1C15.16,46.41,15.14,45.25,16.19,43.79Zm-1.27,1.64a2.09,2.09,0,0,1,.14-.17,1.12,1.12,0,0,1,.06.23A2.94,2.94,0,0,0,17,48.27a14.55,14.55,0,0,0,5.09,1.47A50.37,50.37,0,0,0,32.91,50c1.89-.14,3.78-.32,5.66-.56l1.75-.22c2.86-.4,5.69-.91,7.92-1.27,3.13-.75,5.67-1.29,8.16-2,.89-.25,1.77-.5,2.65-.77a70.4,70.4,0,0,0,12.87-5.07,18.59,18.59,0,0,0,5.81-4.25,6.22,6.22,0,0,0,.84-1.37,2.24,2.24,0,0,0-.08-2.13L78.35,32c.09.06.2.1.28.16a3.28,3.28,0,0,1,.59,4.72,15.16,15.16,0,0,1-4.41,3.76,55.59,55.59,0,0,1-10.92,5l-3.38,1.19h0c-1.12.34-3.3.93-4.43,1.24-3,.83-6,1.5-9.11,2.08-2.76.53-5.54,1-8.33,1.31H38.4A65.86,65.86,0,0,1,22,51.65a16.41,16.41,0,0,1-4.71-1.2,9.32,9.32,0,0,1-1.77-1.06A3.19,3.19,0,0,1,14.92,45.43Zm0,9.73a.67.67,0,0,1-.19-.46,6.45,6.45,0,0,1,.28-1c.13.24.28.48.4.73a4.14,4.14,0,0,1,.18.56c0,.06-.1.31-.22.34S15.07,55.28,15,55.16Zm1.56,2.43a1.34,1.34,0,0,1-.73-2c.18-.25.32-.21.43,0,.26.5.51,1,.75,1.51C17,57.54,16.89,57.69,16.51,57.59Zm64.57-7.5a19.29,19.29,0,0,1-2.2,6,17.69,17.69,0,0,1-2.62,3.35,33.69,33.69,0,0,1-10.7,6.85A50.92,50.92,0,0,1,58,69L52.85,70.3c-2.06.28-4.73.73-7.43,1a45,45,0,0,1-13.74-.72,18.79,18.79,0,0,1-7.44-3.12,16.12,16.12,0,0,1-4.37-4.64,1,1,0,0,1-.08-.24,1.67,1.67,0,0,1,.2.08c4,2.39,8.38,3,12.89,3.37a65.89,65.89,0,0,0,11.58-.33,80.88,80.88,0,0,0,11.76-2.18,66.17,66.17,0,0,0,15-5.68,30.36,30.36,0,0,0,8-5.76c.59-.63,1.09-1.33,1.64-2,.06-.08.13-.14.19-.22A.77.77,0,0,1,81.08,50.09ZM81,49.24a14.84,14.84,0,0,1-3.39,4,41.26,41.26,0,0,1-10.63,6.31,62.49,62.49,0,0,1-9,3.12c-2,.52-3.94,1.12-5.95,1.5a82.29,82.29,0,0,1-14.44,1.62A49.23,49.23,0,0,1,27.26,65a19,19,0,0,1-7.46-2.9,6.67,6.67,0,0,1-2.71-3.66L17,58.19a1.21,1.21,0,0,1,.14.2A1.83,1.83,0,0,0,19,59.79a1.9,1.9,0,0,0,.38-.13,1.18,1.18,0,0,0-.32-.23c-.16-.06-.34,0-.5-.1a1.41,1.41,0,0,1-.86-1.91c.2-.43.49-.51.76-.11a17.83,17.83,0,0,1,.86,1.62,1.57,1.57,0,0,0,.2.25,1.33,1.33,0,0,0,0-.28,3.45,3.45,0,0,0-1.07-2.06.55.55,0,0,0-.9,0c-.32.39-.32.15-.46-.14-.29-.62-.67-1.19-1-1.79a3,3,0,0,1-.37-.87c-.33-1.51-.62-3-.92-4.55a1.32,1.32,0,0,1,0-.34l.22.18a9.86,9.86,0,0,0,4.91,2.26,48.17,48.17,0,0,0,12.8.68c1.92-.11,3.83-.3,5.74-.48a1,1,0,0,0,.23-.05l1.57-.21c2.93-.41,5.85-.94,8.13-1.31,3.23-.78,5.83-1.32,8.4-2,.91-.25,2.35-.69,3.25-1s2-.52,2.88-.89c2.77-1.08,5.54-2.17,8.26-3.38a26.42,26.42,0,0,0,6.45-4,8.14,8.14,0,0,0,2.49-3.06c0-.09.15-.16.22-.24a1.09,1.09,0,0,1,.18.31q.5,2.64,1,5.29c0,.2,0,.52-.11.62-.5.41-.43,1-.48,1.49a4.59,4.59,0,0,0,0,.74c0,.61,0,.61-.51.38-.32-.14-.66-.2-.86.13a3.45,3.45,0,0,0-.38,2.5c0,.1.18.18.28.27,0-.12,0-.23,0-.35a16.8,16.8,0,0,1,.17-1.89c.11-.5.34-.52.75-.21a1.41,1.41,0,0,1-.2,2.36,6,6,0,0,0-.46.4,2,2,0,0,0,.71-.15,1.71,1.71,0,0,0,.88-1.44,1.42,1.42,0,0,1,0-.51c.06-.13.23-.21.36-.31a1.21,1.21,0,0,1,.15.33A6.13,6.13,0,0,1,81,49.24Zm.78-4.45c-.29.17-.48.12-.49-.23,0-.61,0-1.22.06-1.83,0-.33.27-.36.46-.19a5.33,5.33,0,0,1,.59.8A1.5,1.5,0,0,1,81.73,44.79Zm.86-3c0,.21-.26.37-.39.56l-.36-.44c0-.48,0-.83,0-1.17s.21-.32.4-.15A1.19,1.19,0,0,1,82.59,41.78Z"/><path class="cls-2" d="M40.92,72.18a48.2,48.2,0,0,1-6.77-.46,27.68,27.68,0,0,1-7.23-2,15.7,15.7,0,0,1-5.77-4.32c-.61-.72-1.16-1.49-1.7-2.24-.38-.53-.78-1.08-1.18-1.6a14.44,14.44,0,0,1-1.88-3.14,1.16,1.16,0,0,0-.42-.39,2.08,2.08,0,0,1-1-1.69.89.89,0,0,0-.22-.48,1.89,1.89,0,0,1-.52-2,3,3,0,0,0,.06-.74v-.28a.44.44,0,0,0,0-.1.59.59,0,0,1,0-.35,4.43,4.43,0,0,0-.09-2.74l-.12-.53c-.61-2.79.32-5.1,2.93-7.25a35,35,0,0,1,8-4.67,82,82,0,0,1,9.87-3.6l2.91-.88c1.53-.47,3-.93,4.58-1.38.59-.17,1.2-.29,1.79-.4l.83-.16a73.93,73.93,0,0,1,10-1.42l2.46-.2c2.21-.19,4.5-.38,6.75-.48a39.53,39.53,0,0,1,9.83.73,10.25,10.25,0,0,1,5.15,2.38,5.2,5.2,0,0,1,1.49,2.57l.25,1c.18.74.37,1.5.59,2.24a2,2,0,0,0,.44.69,1.89,1.89,0,0,1,.66,1.45,1,1,0,0,0,.23.59h0A1.92,1.92,0,0,1,83,42.52a1.33,1.33,0,0,0-.08.55v.19a1.05,1.05,0,0,0,0,.24.86.86,0,0,1,0,.57A4.67,4.67,0,0,0,82.47,46a7.78,7.78,0,0,1-.16,1.25c-.1.45-.19.9-.29,1.35a29.75,29.75,0,0,1-2,6.83,17.2,17.2,0,0,1-4.24,5.46,40.63,40.63,0,0,1-12.87,7.25,62.69,62.69,0,0,1-10.48,2.92A63,63,0,0,1,40.92,72.18Zm-2-.5A60.58,60.58,0,0,0,52.3,70.61h0l-1.37.2c-1.68.24-3.58.52-5.5.68A52.4,52.4,0,0,1,38.89,71.68Zm-8.58-1.23a28.43,28.43,0,0,0,3.91.81l.51.07c-1.06-.14-2.09-.33-3.1-.55C31.17,70.67,30.73,70.57,30.31,70.45Zm-10-7.36a16.14,16.14,0,0,0,4.06,4.16,18.41,18.41,0,0,0,7.35,3.08A44.45,44.45,0,0,0,45.4,71c1.91-.17,3.8-.44,5.47-.69l2-.27,1.91-.5,3.19-.82a50.37,50.37,0,0,0,7.55-2.67,33,33,0,0,0,10.63-6.8A16.84,16.84,0,0,0,78.68,56a18.66,18.66,0,0,0,2.06-5.4c-.07.09-.13.18-.2.26-.36.46-.73.93-1.13,1.37A30.7,30.7,0,0,1,71.35,58a66.35,66.35,0,0,1-15.07,5.7,80.06,80.06,0,0,1-11.8,2.19,65.4,65.4,0,0,1-11.62.33C28.67,65.92,24.26,65.32,20.32,63.09Zm40.5,5.29c-.93.31-1.86.58-2.78.82l-3.2.83-1.4.36A62.85,62.85,0,0,0,60.82,68.38Zm7.57-3.15c-.85.43-1.76.86-2.74,1.28l-1,.43C66,66.39,67.23,65.82,68.39,65.23ZM17.91,59.75a6.89,6.89,0,0,0,2,2.13,19.1,19.1,0,0,0,7.37,2.85,49.24,49.24,0,0,0,10.25.8A81,81,0,0,0,52,63.92c1.46-.28,2.92-.68,4.33-1.07l1.6-.43a62.57,62.57,0,0,0,8.95-3.11A41,41,0,0,0,77.41,53a14.55,14.55,0,0,0,3.34-3.91h0a5.81,5.81,0,0,0,.87-3.47v0s-.07,0-.07.07a.55.55,0,0,0,0,.23v.2a1.92,1.92,0,0,1-1,1.63,1.35,1.35,0,0,1-.57.15l-.22,0-.81.16.45-.41-.13-.13-.09-.06a.56.56,0,0,1-.27-.33,3.66,3.66,0,0,1,.42-2.66c.16-.26.49-.52,1.15-.22l.18.08V44a4.73,4.73,0,0,1,0-.65,2.64,2.64,0,0,0,0-.29,1.69,1.69,0,0,1,.55-1.36.89.89,0,0,0,0-.4q-.45-2.62-1-5.23a8.56,8.56,0,0,1-2.52,3.07,27,27,0,0,1-6.51,4c-2.61,1.16-5.18,2.18-8.27,3.39-.77.3-1.58.52-2.36.74l-1.39.41c-.81.24-1.74.52-2.4.7-1.73.48-3.44.87-5.43,1.33l-3,.7-2.13.36c-1.84.31-3.94.66-6,1l-1.57.2a.77.77,0,0,1-.24.06l-1.05.1c-1.54.14-3.13.29-4.7.37a48.45,48.45,0,0,1-12.86-.68,10.4,10.4,0,0,1-4.83-2.14l0,.28c.27,1.35.54,2.7.82,4.05a3.41,3.41,0,0,0,.35.79c.13.24.26.46.39.68s.43.74.62,1.13l0,.12,0,0a.81.81,0,0,1,.59-.32.83.83,0,0,1,.65.29,3.64,3.64,0,0,1,1.14,2.19,1.14,1.14,0,0,1,0,.27l-.07.46.18.13-.41.14-.11.05a.93.93,0,0,1-.38.1A1.88,1.88,0,0,1,17.91,59.75Zm1,1.89.65.88-.12-.36.26.1h0C19.39,62.05,19.13,61.85,18.89,61.64Zm-.84-4.36h0s-.1,0-.2.24a1.13,1.13,0,0,0,0,.92,1.15,1.15,0,0,0,.73.67l.2,0a1.3,1.3,0,0,1,.31.06.67.67,0,0,1,.2.12l-.06-.07a1.84,1.84,0,0,1-.17-.22l-.27-.56a7.94,7.94,0,0,0-.57-1C18.13,57.31,18.07,57.28,18.05,57.28Zm-1.62.53a1.25,1.25,0,0,1,.37.42l-.12-.38a1,1,0,0,1-.23,0h0Zm.57,0,.25.33.05.07a1.57,1.57,0,0,1,.14-.85l.06-.11a.39.39,0,0,1-.27.08h0a.58.58,0,0,1-.17.46Zm-.29-.38h0a.74.74,0,0,0,0-.17l-.21-.44-.52-1,0,0,0,0a1,1,0,0,0-.08,1,1.06,1.06,0,0,0,.64.65l-.1-.35ZM15,55.5l.05,0a1.17,1.17,0,0,1,.31.53,1.34,1.34,0,0,1,.17-.51.11.11,0,0,1-.07,0A.55.55,0,0,1,15,55.5Zm.83-.52,0,.09,0,.08a1.11,1.11,0,0,1-.07.16.47.47,0,0,1,.22-.09l-.1-.18Zm-.72,0a.8.8,0,0,0,.2.15l0-.11h0c0-.07,0-.13,0-.18s-.05-.19-.08-.27l-.15-.27a3.77,3.77,0,0,0-.1.43.47.47,0,0,0,.13.26Zm-.43-2.39,0,.07a1.3,1.3,0,0,1,0,.22v.27a3.49,3.49,0,0,1-.07.85c0,.1,0,.19-.05.28,0-.12.07-.23.11-.35l.09-.27.15-.52.39.69.09.17c-.19-.89-.36-1.78-.54-2.67a3.32,3.32,0,0,1-.22,1.26ZM14.91,46a2.87,2.87,0,0,0,.79,3.17,9,9,0,0,0,1.73,1,16.37,16.37,0,0,0,4.64,1.19,65,65,0,0,0,16.3-.19,1.31,1.31,0,0,1,.28,0c2.87-.37,5.67-.81,8.28-1.3,3.38-.65,6.36-1.33,9.09-2.08l.78-.21c1.16-.32,2.75-.75,3.64-1h0l1.17-.41,2.18-.76a54.49,54.49,0,0,0,10.88-5A15.25,15.25,0,0,0,79,36.75a3.07,3.07,0,0,0-.12-4,2.44,2.44,0,0,1-.14,1.81A6.33,6.33,0,0,1,77.9,36,18.9,18.9,0,0,1,72,40.29a69.88,69.88,0,0,1-12.91,5.09c-.88.27-1.77.52-2.66.77-1.68.47-3.35.86-5.28,1.3l-2.89.69-2.09.34c-1.79.3-3.82.64-5.85.92l-1.75.23c-1.93.24-3.84.43-5.67.56A50.27,50.27,0,0,1,22,50a14.64,14.64,0,0,1-5.16-1.5A3.38,3.38,0,0,1,14.91,46Zm66.36,3.24,0,.49.27-1.26h0c-.12.28-.26.56-.42.85h0a.86.86,0,0,1-.1.16Zm-64.9-5.35c-1,1.34-1,2.38,0,3.18a6.72,6.72,0,0,0,1.57,1A16.41,16.41,0,0,0,23,49.3a62.39,62.39,0,0,0,14-.23l1.52-.18c3-.37,5.68-.79,8.32-1.29s5.54-1.19,8.82-2.1c1-.28,2.1-.6,3.28-1,1.71-.52,3.56-1.12,5.65-1.84a45.3,45.3,0,0,0,9.29-4.35,13,13,0,0,0,3.64-3.07,2.53,2.53,0,0,0,.66-2.39,2.86,2.86,0,0,0-1.54-1.57A15.19,15.19,0,0,0,71,29.89a67.83,67.83,0,0,0-11.39-.05,6.54,6.54,0,0,1,1,.24c.87.29,1.14.73,1.22,1.06a1.64,1.64,0,0,1-.63,1.53,10.1,10.1,0,0,1-3.19,2,55.37,55.37,0,0,1-11.31,3.51l-1.44.24L42,39a36.42,36.42,0,0,1-7.7.52A14.92,14.92,0,0,1,31,38.94a1.39,1.39,0,0,1-.59-2.53,7.71,7.71,0,0,1,.84-.67c-.78.27-1.58.54-2.35.84a61.37,61.37,0,0,0-8.64,4.08,12.32,12.32,0,0,0-3.93,3.27Zm-2,3.8a7.12,7.12,0,0,0,.17,1.34c0,.08,0,.16.05.24a.13.13,0,0,0,0-.06.28.28,0,0,0,0-.09l0-.44.12.09A3,3,0,0,1,14.33,47.73ZM80,45s0,0-.09.24a7.49,7.49,0,0,0-.13,1.27c0,.2,0,.39,0,.59a2.13,2.13,0,0,1,0,.25l0,.16.07-.06a2.43,2.43,0,0,1,.34-.3,1.36,1.36,0,0,0,.65-1.08,1.08,1.08,0,0,0-.46-.91C80,45,80,45,80,45Zm.66-.13a1.58,1.58,0,0,1,.49.75l0-.08a.76.76,0,0,1,.32-.32l.1-.07,0,0a.43.43,0,0,1-.34,0,.42.42,0,0,1-.21-.3l-.08.07A.39.39,0,0,1,80.61,44.85Zm1.2.16.09.2a.41.41,0,0,1,0,.09,1.65,1.65,0,0,1,.1.19,5,5,0,0,1,.11-.76,1.35,1.35,0,0,1-.32.26h0Zm-66.64-.24.09.37A4.34,4.34,0,0,1,16,43.66h0a9.57,9.57,0,0,1,1-1.12,8.47,8.47,0,0,0-2.08,2.58Zm66.37-2.1a.38.38,0,0,0,0,.08c0,.73-.06,1.29-.06,1.81,0,0,0,.08,0,.1a.57.57,0,0,0,.13-.07h0a1.22,1.22,0,0,0,.51-1.17L82,43.21a2.89,2.89,0,0,0-.39-.5Zm.6,0a3.29,3.29,0,0,1,.23.33.86.86,0,0,0,.07.1,1.59,1.59,0,0,1,.13-.74l.06-.14-.12.14-.12.15-.18.25Zm-.61-.42a.55.55,0,0,1,.38.17,1.06,1.06,0,0,1,.15.15L81.62,42a.47.47,0,0,1-.1.1.75.75,0,0,0-.15.16A.41.41,0,0,1,81.53,42.21Zm.54-.4.13.17a.79.79,0,0,0,.17-.25h0a1,1,0,0,0-.32-1h0a6,6,0,0,0,0,.72C82.06,41.57,82.07,41.68,82.07,41.81Zm-1-4.06.51,2.84a.41.41,0,0,1,.24-.32.49.49,0,0,1,.51.13,1.35,1.35,0,0,1-.18-.66,1.47,1.47,0,0,0-.54-1.13A2.35,2.35,0,0,1,81.09,37.75ZM22.51,38.94,22,39.2Zm16.27-5.56a25.15,25.15,0,0,0-5.6,2.11,11,11,0,0,0-2.11,1.39c-.34.29-.5.55-.47.76s.3.41.74.58a3.84,3.84,0,0,0,1.07.3l.6,0a26.09,26.09,0,0,0,3.06.12c1.82-.08,3.64-.25,5.41-.49,2-.27,4.08-.62,6.1-1,1-.21,2.08-.51,3.09-.8L52,36a31,31,0,0,0,6.57-2.48,12.14,12.14,0,0,0,2.31-1.71c.1-.1.23-.24.21-.39s-.14-.25-.36-.36a3.93,3.93,0,0,0-1.5-.51l-.89-.05a27.87,27.87,0,0,0-4.38-.06c-2.09.2-4.16.52-6.17.83l-2.47.36-2.08.58c-1.53.43-3,.83-4.44,1.19Zm41.34.73a3.36,3.36,0,0,1,0,1.51l0,0,.06-.06.22-.22.08.14c-.08-.31-.16-.61-.23-.92C80.21,34.38,80.17,34.24,80.12,34.11Zm-46.65.63-.38.29c.82-.42,1.63-.78,2.43-1.1l-.53.16-2.5.78h0Zm10.65-3.28c-.55.11-1.11.22-1.64.37l-3,.9c1.19-.3,2.39-.63,3.64-1Zm33.73,0,.65.35a9.83,9.83,0,0,0-4-1.81,11.6,11.6,0,0,1,2.31.89,4.16,4.16,0,0,1,1.16.83ZM57.42,29.67l-2.38.2a77,77,0,0,0-8.32,1.07l1-.15c2-.31,4.1-.62,6.2-.82a28.3,28.3,0,0,1,4.22,0l0,0L58,30Zm8.11-.5a54,54,0,0,1,5.51.26l.37.05a41.09,41.09,0,0,0-6.8-.31Z"/></g></g></svg>