<svg xmlns="http://www.w3.org/2000/svg" viewBox="0 0 96.78 97"><defs><style>.cls-1{fill:#b13234;}.cls-2{fill:#d6d2c7;}</style></defs><title>資產 137</title><g id="圖層_2" data-name="圖層 2"><g id="圖層_3" data-name="圖層 3"><path class="cls-1" d="M25.72,141.62a3.92,3.92,0,0,1,0-.77c.06-.85.08-2.18.06-4s-.08-3.08-.17-3.8V133c0-.24,0-.37,0-.4s.2,0,.48.07a9.45,9.45,0,0,1,1.86.59c.3.16.32.31.07.44a.49.49,0,0,0-.23.44c0,.24,0,1,0,2.34v.92a7.78,7.78,0,0,0,0,1.39.6.6,0,0,0,.46.51,7.7,7.7,0,0,0,1.28,0h.84l.9,0a3.32,3.32,0,0,0,1.21-.09c.25-.08.41-.33.47-.72s0-.95,0-2v-1.45c0-2.07,0-3.29,0-3.65s-.09-.58-.21-.67a7.65,7.65,0,0,0-1.86-.12,8.35,8.35,0,0,0-1.86.08.51.51,0,0,0-.27.48c0,.34-.33.58-1,.71a1.29,1.29,0,0,1-.85,0c-.14-.09-.19-.3-.16-.64.08-1.25.11-2.73.08-4.45a14.71,14.71,0,0,0-.22-3.08c0-.09,0-.14.09-.14a3.62,3.62,0,0,1,.58.11,9.51,9.51,0,0,1,1.74.58c.26.14.28.28.06.41a.64.64,0,0,0-.28.5c0,.23-.05,1-.05,2.19v.75a6.94,6.94,0,0,0,.05,1.34.57.57,0,0,0,.39.51,4.36,4.36,0,0,0,1.06,0h.62c.91,0,1.45,0,1.63,0a.47.47,0,0,0,.38-.25,18.72,18.72,0,0,0,.09-3.23c0-2-.09-3.44-.19-4.33a.89.89,0,0,0,0-.11c0-.26,0-.41,0-.45a1.12,1.12,0,0,1,.55.08l.11,0a11.51,11.51,0,0,1,1.79.57c.28.15.31.29.11.42a.81.81,0,0,0-.31.64c0,.31,0,1.34,0,3.09v1.14a11.49,11.49,0,0,0,0,1.74c0,.35.17.57.37.64a3.59,3.59,0,0,0,1.06.07h.7c1,0,1.55,0,1.72,0a.48.48,0,0,0,.39-.24,9.14,9.14,0,0,0,.09-2.2c0-1.33-.09-2.44-.19-3.34a.52.52,0,0,0,0-.11q0-.44,0-.48a1.41,1.41,0,0,1,.58.08l.11,0a9.45,9.45,0,0,1,1.66.54c.23.12.26.26.07.42a1.93,1.93,0,0,0-.32,1.23c0,.65,0,1.93.07,3.84v.07a12.18,12.18,0,0,1,0,1.3.37.37,0,0,1-.2.3l0,0a2.18,2.18,0,0,1-1.3.39c-.39,0-.58-.2-.55-.52a.7.7,0,0,0,0-.47.86.86,0,0,0-.57-.2c-.24,0-.75,0-1.55,0l-.7,0a2.82,2.82,0,0,0-1.06.09c-.21.1-.34.36-.4.77s0,1,0,2.11v3a15.17,15.17,0,0,0,.05,2c.06.39.21.64.46.72a3.76,3.76,0,0,0,1.28.09l.92,0c1.22,0,1.94,0,2.15,0a.58.58,0,0,0,.45-.23,10.67,10.67,0,0,0,.1-2.72,29.64,29.64,0,0,0-.23-3.58c0-.12,0-.19.09-.2a5.2,5.2,0,0,1,.7.15,9.05,9.05,0,0,1,1.64.53c.24.13.27.27.08.42-.34.26-.4,2.44-.2,6.52a2.38,2.38,0,0,1-.06,1,1.71,1.71,0,0,1-.8.41,1.59,1.59,0,0,1-1,.1c-.18-.1-.26-.36-.25-.79a2.05,2.05,0,0,0,0-.6.43.43,0,0,0-.23-.27q-.18-.09-6.08-.08a59.62,59.62,0,0,0-6,.12c-.18.14-.24.42-.2.83a1.39,1.39,0,0,1,0,.47.78.78,0,0,1-.28.24,2,2,0,0,1-.76.26,1.41,1.41,0,0,1-.72,0Q25.75,141.77,25.72,141.62Z"/><path class="cls-1" d="M51.66,141.91a.37.37,0,0,1-.26-.28,7.27,7.27,0,0,1,0-1.13q.15-2.52.15-9.34,0-6.54-.15-8.28a1,1,0,0,0,0-.2c0-.32,0-.5.05-.53a1.5,1.5,0,0,1,.66.18l.24.11a6.65,6.65,0,0,0,2.25.61,1.82,1.82,0,0,0,1.34-.61c.29-.3.51-.43.64-.41a2.64,2.64,0,0,1,.84.66,5.73,5.73,0,0,1,.8.91c.11.19.09.33,0,.4s-.29.21-.2.33a6.3,6.3,0,0,0,2.21.24,6.24,6.24,0,0,0,2.26-.11q.38-.3.15-2.4V122c0-.24,0-.37,0-.39a2.47,2.47,0,0,1,.7.14l0,0a7,7,0,0,1,1.55.55c.21.13.2.27,0,.43a1.07,1.07,0,0,0-.35.95c0,.43.07.68.21.76a3.2,3.2,0,0,0,1.23.1h.09a3.4,3.4,0,0,0,1-.1,1.78,1.78,0,0,0,.54-.58.76.76,0,0,0,.08-.13l0-.07c.26-.38.44-.59.53-.61s.26,0,.53.24a6.88,6.88,0,0,1,1.1,1c.28.33.38.55.32.66s-.22.17-.47.19-1,0-2.3,0H67c-.9,0-1.47,0-1.7,0s-.54.1-.62.22a1.27,1.27,0,0,0-.09.6v.17q0,.7.18.84a2.44,2.44,0,0,0,1.08.13,3.47,3.47,0,0,0,1-.09,1.93,1.93,0,0,0,.59-.59l0,0c.22-.31.39-.46.5-.45s.37.18.78.54a4.25,4.25,0,0,1,.89.87c.13.19.11.34,0,.45l0,0a.77.77,0,0,0-.35.29,1.69,1.69,0,0,0-.13.74c0,.27,0,.88,0,1.83,0,1.16,0,2.18.07,3.06V134a2.26,2.26,0,0,1,0,.67.82.82,0,0,1-.33.3l-.11.06a2.17,2.17,0,0,1-1.12.36c-.31,0-.47-.14-.47-.4s-.07-.48-.22-.56a2.55,2.55,0,0,0-1.06-.13q-.94,0-1.11.18a2.46,2.46,0,0,0-.17,1.23v.11q0,1,.18,1.14a2.44,2.44,0,0,0,1.21.16h.31a3.38,3.38,0,0,0,1.1-.1,2.17,2.17,0,0,0,.66-.71l.07-.11c.25-.37.43-.56.55-.57s.37.14.75.46c.87.67,1.26,1.13,1.19,1.36s-.17.21-.42.24-1.11,0-2.58,0h-.53c-1.16,0-1.83,0-2,.06a.41.41,0,0,0-.37.2l0,0a6.13,6.13,0,0,0-.07,1.3c0,.75,0,1.3.07,1.67s-.11.45-.41.64a2,2,0,0,1-1.09.29c-.25,0-.41,0-.48-.14a1.13,1.13,0,0,1-.07-.66c.18-2,.12-3.15-.17-3.32a5.17,5.17,0,0,0-1.57-.08,22.08,22.08,0,0,0-2.55.19.83.83,0,0,0-.2,0,1.49,1.49,0,0,1-.55,0c-.07,0-.16-.15-.27-.37a.28.28,0,0,0,0-.11c-.12-.25-.2-.39-.25-.41s-.18,0-.37.14a3.66,3.66,0,0,1-1.27.51,1.13,1.13,0,0,1-.52,0q-.08,0-.12-.39v0c-.09-.8-.35-1.26-.8-1.36-.17-.05-.28,0-.33.11a3.44,3.44,0,0,0-.11,1.1c0,.47,0,1.4.09,2.8,0,.64,0,1,0,1.14a.48.48,0,0,1-.15.31,2,2,0,0,1-.9.49A1.32,1.32,0,0,1,51.66,141.91ZM55,135.5c.39-.1.61-.49.69-1.17a6,6,0,0,0-.2-2.27,8.64,8.64,0,0,0-1-2.42l0,0a.77.77,0,0,1-.18-.51q0-.08.18-.66c.07-.24.13-.42.16-.55a18.3,18.3,0,0,0,.79-4c-.1-.21-.41-.3-.9-.29s-.81.13-.91.33-.09,2-.09,5.71,0,5.6.09,5.75.23.14.56.17A2.71,2.71,0,0,0,55,135.5Zm6.11,1.58a6.09,6.09,0,0,0,1.27-.08q.24-.12.33-1.08a2.57,2.57,0,0,0-.11-1.35c-.1-.2-.36-.32-.79-.35a2.77,2.77,0,0,0-1.15.11c-.38.13-.57.31-.57.53s-.29.45-.88.62a1.29,1.29,0,0,1-.87,0q-.23-.15-.21-.63c.08-1.1.1-2.53.09-4.29,0-1.33,0-2.31-.09-3a1.05,1.05,0,0,0,0-.13,3.94,3.94,0,0,1,0-1.21,7,7,0,0,1,.9.35l.18.07a8,8,0,0,0,1.05.41,6.67,6.67,0,0,0,1,0h.13a2.9,2.9,0,0,0,1.2-.13c.13-.09.19-.37.19-.84a2,2,0,0,0-.07-.66.5.5,0,0,0-.24-.28,6.09,6.09,0,0,0-1.75-.05,17.5,17.5,0,0,0-2.37.24.55.55,0,0,1-.32,0,.65.65,0,0,1-.18-.28c-.16-.32-.32-.45-.47-.37a2.76,2.76,0,0,0-.63.94c-.31.66-.79,1.54-1.44,2.62a.39.39,0,0,0,0,.09,1.66,1.66,0,0,0-.33.75c0,.12.19.34.53.66l.09.11a7.33,7.33,0,0,1,1.77,3.08,5.44,5.44,0,0,1,0,3.2c-.15.41-.16.64,0,.68l1.11.09.77,0C59.67,137.09,60.36,137.1,61.11,137.08Zm1.32-3.5c.2-.12.31-.53.31-1.25s-.11-1.14-.31-1.26a2.82,2.82,0,0,0-1-.09,2.85,2.85,0,0,0-1,.13c-.19.12-.29.53-.29,1.22s.1,1.09.29,1.21a2.85,2.85,0,0,0,1,.13A2.82,2.82,0,0,0,62.43,133.58Zm0-3.28a.53.53,0,0,0,.26-.31,5.12,5.12,0,0,0,0-.9,2.13,2.13,0,0,0-.16-1.12c-.11-.12-.49-.18-1.12-.18a2.15,2.15,0,0,0-1.12.16q-.18.17-.18,1.14a2.11,2.11,0,0,0,.17,1.13,2,2,0,0,0,1.11.17A3,3,0,0,0,62.38,130.3Zm4.5,3.28c.2-.12.3-.53.3-1.25s-.1-1.14-.3-1.26a3,3,0,0,0-1-.09,2.92,2.92,0,0,0-1,.09c-.19.12-.29.53-.29,1.25s.1,1.12.29,1.24a3.26,3.26,0,0,0,1,.11A3,3,0,0,0,66.88,133.58Zm0-3.28a.53.53,0,0,0,.26-.31,5.12,5.12,0,0,0,0-.9c0-.63,0-1-.17-1.12s-.48-.18-1.11-.18-1,.06-1.11.18a2.08,2.08,0,0,0-.17,1.12,2.11,2.11,0,0,0,.17,1.12q.16.18,1.11.18A3,3,0,0,0,66.83,130.3Z"/><circle class="cls-1" cx="48.39" cy="48.39" r="48.39"/><path class="cls-2" d="M46.26,45.77a7.35,7.35,0,0,1-1.58,4.28,2.61,2.61,0,0,0-1.33-.65c.46-.59,1.47-1.48,1.47-4.77V41h7v4.82H49.25a4,4,0,0,0,1,1.59,4.62,4.62,0,0,0,2.31,1.47,5,5,0,0,0-1,1.2,6.37,6.37,0,0,1-3.77-4.26Zm4-1.37V42.31h-4V44.4Z"/><path class="cls-2" d="M48.7,35h3.67v1.45H43.52V35h3.65V29.86h-3V28.4h7.55v1.46h-3Z"/><path class="cls-2" d="M47.94,57.73a18.94,18.94,0,1,1,19-18.94A19,19,0,0,1,47.94,57.73Zm0-36.49A17.55,17.55,0,1,0,65.5,38.79,17.57,17.57,0,0,0,47.94,21.24Z"/><path class="cls-2" d="M60,84v.89A47.12,47.12,0,0,0,68.7,81.7v-1A46.36,46.36,0,0,1,60,84Z"/><path class="cls-2" d="M28.13,81.2v.93a47.71,47.71,0,0,0,7.73,2.78V84A46.59,46.59,0,0,1,28.13,81.2Z"/><path class="cls-2" d="M60,76.47v.9a40.86,40.86,0,0,0,8.67-3.91v-1A39.31,39.31,0,0,1,60,76.47Z"/><path class="cls-2" d="M28.13,73v1a40,40,0,0,0,7.73,3.37v-.9A40,40,0,0,1,28.13,73Z"/><path class="cls-2" d="M60,68.76v.91a33,33,0,0,0,8.67-5v-1.1A32.2,32.2,0,0,1,60,68.76Z"/><path class="cls-2" d="M28.13,64.3v1.08a33.34,33.34,0,0,0,7.73,4.29v-.91A32.43,32.43,0,0,1,28.13,64.3Z"/><path class="cls-2" d="M28.13,57.81V59a28.56,28.56,0,0,0,7.73,5.39v-1A27.53,27.53,0,0,1,28.13,57.81Z"/><path class="cls-2" d="M60,63.47v1a28.72,28.72,0,0,0,8.67-6.36V56.78A27.57,27.57,0,0,1,60,63.47Z"/><path class="cls-2" d="M28.13,49.76v1.66a23.64,23.64,0,0,0,7.73,7.52v-1A22.79,22.79,0,0,1,28.13,49.76Z"/><path class="cls-2" d="M60,57.94v1a23.63,23.63,0,0,0,8.67-9.13v-2A22.83,22.83,0,0,1,60,57.94Z"/><path class="cls-2" d="M47.94,15.19a4.8,4.8,0,1,1,4.8-4.79A4.8,4.8,0,0,1,47.94,15.19Zm0-8.67a3.88,3.88,0,1,0,3.88,3.88A3.88,3.88,0,0,0,47.94,6.52Z"/><path class="cls-2" d="M68.7,24.9a4.8,4.8,0,1,1,4.8-4.79A4.81,4.81,0,0,1,68.7,24.9Zm0-8.67a3.88,3.88,0,1,0,3.88,3.88A3.88,3.88,0,0,0,68.7,16.23Z"/><path class="cls-2" d="M27,24.9a4.8,4.8,0,1,1,4.79-4.79A4.8,4.8,0,0,1,27,24.9Zm0-8.67a3.88,3.88,0,1,0,3.88,3.88A3.88,3.88,0,0,0,27,16.23Z"/><rect class="cls-2" x="47.79" y="59.19" width="1.01" height="29.82"/><polygon class="cls-2" points="64.78 18.09 51.87 12.44 51.96 12.23 51.96 11.56 52.24 11.6 65.15 17.25 64.78 18.09"/><polygon class="cls-2" points="31.37 18.09 31 17.25 44.19 11.56 44.19 12.23 44.28 12.44 31.37 18.09"/></g></g></svg>