<svg xmlns="http://www.w3.org/2000/svg" viewBox="0 0 110.01 17.67"><defs><style>.cls-1{fill:#d6d2c7;}</style></defs><title>資產 175</title><g id="圖層_2" data-name="圖層 2"><g id="圖層_3" data-name="圖層 3"><path class="cls-1" d="M.06,16.65l.51-.21a13.14,13.14,0,0,0,4.18-2.26,1.75,1.75,0,0,0,.58-.69.92.92,0,0,0-.24-.63l-.29-.39c0-.08-.08-.13-.1-.17-.15-.24-.27-.36-.38-.37s-.22.1-.34.32a5.48,5.48,0,0,0-.76,1.42.28.28,0,0,1,0,.18q0,.09-.09.09a4.13,4.13,0,0,1-.45-.58,3.34,3.34,0,0,1-.41-.66s.08-.13.23-.23c1.11-.76,1.68-1.28,1.71-1.55s0-.23.08-.25.11,0,.23,0a.59.59,0,0,1,.25.15s0,.07,0,.12a.54.54,0,0,0-.1.49,2.9,2.9,0,0,0,.55.72c.34.36.6.49.79.39s.38-.46.58-1.09a4.44,4.44,0,0,0,.25-1c0-.19-.11-.32-.34-.38A9,9,0,0,0,5.24,10a8.33,8.33,0,0,0-1.35.06.3.3,0,0,0-.26.32c0,.2-.23.38-.7.53s-.78.14-.93,0a.39.39,0,0,1-.08-.28c0-.14,0-.47.06-1C2,9,2,8,2,6.85s-.06-2-.12-2.7c0-.34-.06-.53-.06-.59s0-.09.06-.09a5.29,5.29,0,0,1,.84.32l.2.09a4.66,4.66,0,0,0,.85.3,8.78,8.78,0,0,0,1.13,0h.65a8.92,8.92,0,0,0,1,0c.19,0,.31-.09.36-.2A1.8,1.8,0,0,0,7,3.39V2.94a1.19,1.19,0,0,0-.06-.55c-.06-.1-.22-.17-.48-.2s-.62,0-1.3,0H4.57A33.69,33.69,0,0,0,1,2.31l-.16,0a1.14,1.14,0,0,1-.44,0S.3,2.24.21,2.08L.16,2A1.14,1.14,0,0,1,0,1.59c0-.06,0-.07.13-.05q.62.1,6.55.11h2c1.42,0,2.33,0,2.71,0a4.3,4.3,0,0,0,1.08-.11.71.71,0,0,0,.35-.31A1.28,1.28,0,0,1,12.92,1a4,4,0,0,1,.59-.67c.07,0,.2,0,.38.11A6.74,6.74,0,0,1,15,1.37c.3.3.43.51.37.6s-.23.15-.52.16-1.23,0-2.87,0H11c-.92,0-1.49,0-1.73,0s-.56.09-.63.19a.86.86,0,0,0-.07.53v.41a1.94,1.94,0,0,0,0,.61A.41.41,0,0,0,9,4.19a10.25,10.25,0,0,0,1,0h.39a8.62,8.62,0,0,0,1.22,0,1,1,0,0,0,.46-.38v0c.25-.35.42-.52.53-.53s.33.13.69.41a3.89,3.89,0,0,1,.83.81c.09.18,0,.31-.16.41a.61.61,0,0,0-.38.45,17,17,0,0,0,0,1.93c0,1.21,0,2,.05,2.37a1.13,1.13,0,0,1-.19.87,2.28,2.28,0,0,1-1,.36,1,1,0,0,1-.43,0c-.05,0-.08-.12-.08-.27a.7.7,0,0,0-.07-.4.71.71,0,0,0-.45-.14c-.17,0-.57,0-1.2,0H9.88a4.58,4.58,0,0,0-1.23.08c-.13.05-.22.24-.28.57a1.27,1.27,0,0,1,0,.14A6.88,6.88,0,0,1,7.47,13c-.17.26-.21.45-.13.57a2,2,0,0,0,.83.43,21,21,0,0,0,6.66,1.07,3.06,3.06,0,0,1,.8.09c.08,0,0,.11-.21.23a1.93,1.93,0,0,0-.91,1.15.34.34,0,0,1-.27.28,6,6,0,0,1-1.16-.12,19.84,19.84,0,0,1-3.42-.77A11.67,11.67,0,0,1,7,14.66a1.52,1.52,0,0,0-.52-.25.66.66,0,0,0-.4.13A14,14,0,0,1,4,15.76a14.77,14.77,0,0,1-2.46.81l-1.17.27c-.2,0-.31,0-.33-.05A.11.11,0,0,1,.06,16.65Zm6.6-7.21c.19-.08.29-.42.31-1s-.06-.94-.24-1A6.49,6.49,0,0,0,5.29,7.3a6.49,6.49,0,0,0-1.44.07c-.18.11-.26.46-.25,1s.11.94.29,1a6.14,6.14,0,0,0,1.38.07A6.33,6.33,0,0,0,6.66,9.44Zm.07-2.68c.17-.11.25-.44.24-1s-.1-.88-.28-1a5.14,5.14,0,0,0-1.4-.09,5.14,5.14,0,0,0-1.4.09q-.25.12-.27,1c0,.56.06.89.23,1a6.27,6.27,0,0,0,1.44.09A6.49,6.49,0,0,0,6.73,6.76Zm3.49,2.77a6.43,6.43,0,0,0,1.44-.09c.18-.09.28-.44.28-1s-.08-.94-.26-1a5.68,5.68,0,0,0-1.5-.06,5.23,5.23,0,0,0-1.45.12c-.15.13-.21.48-.19,1.05s.1.9.24,1A6.9,6.9,0,0,0,10.22,9.53ZM11.7,6.76c.17-.11.25-.44.24-1s-.1-.88-.28-1a5.14,5.14,0,0,0-1.4-.09,5.3,5.3,0,0,0-1.41.09c-.2.11-.31.44-.31,1s.1.9.31,1a12.72,12.72,0,0,0,1.44,0A13.78,13.78,0,0,0,11.7,6.76Z"/><path class="cls-1" d="M20.63,16.82c-.11-.06-.13-.12-.05-.17a3.11,3.11,0,0,1,.62-.21,33.5,33.5,0,0,0,3.86-1.19A16.06,16.06,0,0,0,28,13.87c.38-.24.43-.44.14-.59a.59.59,0,0,1-.29-.31,5.52,5.52,0,0,0-.93-1.21A3.06,3.06,0,0,0,26,11a1.49,1.49,0,0,0-.89.21c-.61.29-1.34.58-2.18.88a4.85,4.85,0,0,1-1.4.4c-.1,0-.1-.09,0-.17a4.84,4.84,0,0,1,.75-.42,20.56,20.56,0,0,0,5.37-3.8c.54-.54.79-.86.74-1s-.38,0-1,.31a27,27,0,0,1-5.94,1.93,9.69,9.69,0,0,1-1.08.18c-.11,0-.18,0-.2-.09s0-.1.12-.14.38-.15.87-.31a26.94,26.94,0,0,0,4.95-2.16c.34-.2.53-.35.58-.47s0-.22-.24-.29a.59.59,0,0,1-.27-.23A5,5,0,0,0,25.3,5a2.93,2.93,0,0,0-.84-.59.55.55,0,0,0-.31,0,7.09,7.09,0,0,0-.7.31c-.63.3-1.26.56-1.89.79s-.92.3-1,.25a.09.09,0,0,1,0-.14,1.61,1.61,0,0,1,.37-.23A17.72,17.72,0,0,0,24.45,2.9,10.07,10.07,0,0,0,26.73.21c.06-.13.12-.2.17-.21a1.33,1.33,0,0,1,.44.12h0a9.48,9.48,0,0,1,1.73.61c.24.14.2.25-.11.32a2.13,2.13,0,0,0-.68.42c-.29.24-.46.42-.49.55s0,.2.18.22a11.88,11.88,0,0,0,1.38,0h.31a6.57,6.57,0,0,0,1.19-.06,1.2,1.2,0,0,0,.52-.37.17.17,0,0,0,.07-.08c.28-.27.5-.38.68-.32a4.65,4.65,0,0,1,1,.86c.28.28.41.46.41.55s-.13.17-.41.23a.93.93,0,0,0-.41.15,3.92,3.92,0,0,0-.54.55A15,15,0,0,1,30.4,5.54c-.44.34-.67.58-.69.7s.14.23.49.32A5.38,5.38,0,0,1,31.48,7c.14.09,0,.18-.31.25a2.88,2.88,0,0,0-.73.5,2.43,2.43,0,0,0-.65.65c-.07.16,0,.25.13.29a12.54,12.54,0,0,0,1.49.05h.29a8.35,8.35,0,0,0,1.2-.05,1.44,1.44,0,0,0,.56-.38l.09-.09,0,0c.25-.25.43-.37.54-.35a3,3,0,0,1,.77.55l.07.07q1.23,1.08.36,1.08c-.26,0-.57.25-.92.74a14,14,0,0,1-4.62,4.07A21.36,21.36,0,0,1,23,16.53c-1.46.22-2.22.33-2.29.33ZM27.88,5.66a10.16,10.16,0,0,0,1.56-1.33,4.23,4.23,0,0,0,1-1.21c0-.12,0-.19,0-.23a1.23,1.23,0,0,0-.54-.09c-.19,0-.66,0-1.4,0h-.38a11.22,11.22,0,0,0-1.3.06,1.41,1.41,0,0,0-.59.3l-.13.07c-.38.26-.57.43-.57.53s.18.22.55.36c.86.27,1.31.73,1.35,1.36,0,.2.06.31.12.34S27.7,5.78,27.88,5.66Zm1.82,7.06a9.5,9.5,0,0,0,2-1.83c.74-.86,1-1.37.93-1.54a.43.43,0,0,0-.35-.14c-.18,0-.75,0-1.72,0H30a11.46,11.46,0,0,0-1.31.06,1.94,1.94,0,0,0-.69.34l-.23.14c-.52.34-.79.56-.82.67s.16.23.57.37c1.06.39,1.62.93,1.65,1.64C29.25,12.81,29.41,12.91,29.7,12.72Z"/><path class="cls-1" d="M40,9a.1.1,0,0,1,0-.15,1.39,1.39,0,0,1,.36-.27A18.27,18.27,0,0,0,44.25,5,14.08,14.08,0,0,0,46.8.82l.05-.16L47,.26s.05,0,.11,0h0a10.73,10.73,0,0,1,1.37.33,7.27,7.27,0,0,1,1.12.35s0,.07-.08.12a.42.42,0,0,1-.2.1.26.26,0,0,0-.21.27,1,1,0,0,0,.21.53,10.55,10.55,0,0,0,2.7,2.46,17.21,17.21,0,0,0,3.84,1.91c.27.1.42.18.44.26s-.08.17-.3.28a2.14,2.14,0,0,0-.64.53,2.45,2.45,0,0,0-.44.75c0,.11-.08.16-.12.16a2.92,2.92,0,0,1-.42-.2,14.11,14.11,0,0,1-3.12-2.37,11.29,11.29,0,0,1-2.12-3A7.89,7.89,0,0,0,48.81,2a.35.35,0,0,0-.16-.16.26.26,0,0,0-.24.08,5.79,5.79,0,0,0-.46.63,16,16,0,0,1-2.61,3c-.19.18-.42.4-.68.67a1.07,1.07,0,0,1-.31.25,5.45,5.45,0,0,0-.47.3l-.11.08A19.66,19.66,0,0,1,41,8.6h0L40.17,9C40.08,9,40,9,40,9Zm.45,7.83c0-.05,0-.09,0-.11a1.12,1.12,0,0,1,.24-.15l.05,0A7.11,7.11,0,0,0,44,13a13.6,13.6,0,0,0,.67-6,1.09,1.09,0,0,1,0-.43s.11,0,.27,0a9.32,9.32,0,0,1,1.48.47q.38.18.15.36a.57.57,0,0,0-.22.32,3.3,3.3,0,0,0-.05.69,11.9,11.9,0,0,1-.58,4.07,6.27,6.27,0,0,1-1.94,2.69,9.81,9.81,0,0,1-2,1.23C41,16.8,40.5,16.93,40.43,16.79Zm9.27,0a.29.29,0,0,1-.16-.2,2.91,2.91,0,0,1,0-.46q.12-1.62.09-5.1a36.63,36.63,0,0,0-.14-4.14.89.89,0,0,0,0-.11c0-.18,0-.28,0-.29a1.24,1.24,0,0,1,.46.06.24.24,0,0,1,.12,0,7.62,7.62,0,0,1,1.46.45c.23.12.25.24.05.36a.6.6,0,0,0-.25.44c0,.19,0,.86-.05,2,0,2.35,0,4.24.11,5.68a3.32,3.32,0,0,1,0,.78c0,.08-.16.18-.39.29l0,0a2.89,2.89,0,0,1-.74.24A.79.79,0,0,1,49.7,16.82Z"/><path class="cls-1" d="M63,16.84a.32.32,0,0,1-.18-.21,2.56,2.56,0,0,1,0-.58c0-.71.09-1.6.11-2.68a15.16,15.16,0,0,0,0-1.75q-.15-.36-.36-.18a1.93,1.93,0,0,0-.45.85,14,14,0,0,1-1,2.16q-.6,1-.84,1c-.08,0-.13,0-.13-.11a2.75,2.75,0,0,1,.13-.5A12.3,12.3,0,0,0,60.87,11v-.13c0-.2,0-.32.08-.34a1.61,1.61,0,0,1,.54.09l.19,0,.84.21a.35.35,0,0,0,.23,0c.15-.06.23-.36.24-.89s-.07-.83-.23-.88a1.69,1.69,0,0,0-.88.1,2.38,2.38,0,0,0-.88.38c-.13.12-.22.15-.27.1a3.08,3.08,0,0,1-.29-.7l0,0c0-.07-.05-.15-.09-.25-.1-.3-.14-.48-.11-.53s.19-.09.47-.1h.54A2.15,2.15,0,0,0,61.9,8a1.16,1.16,0,0,0,.47-.52c.12-.19.36-.66.72-1.4l.34-.71c.22-.45.46-1,.74-1.77a7.37,7.37,0,0,0,.41-1.27c0-.17.46,0,1.39.42a2.33,2.33,0,0,1,.65.36q.09.12-.18.21c-.17.06-.42.34-.76.83-.55.8-1.16,1.62-1.84,2.45l-.3.36c-.15.18-.24.29-.27.34-.24.3-.32.49-.23.58s.42.13,1,.1,1-.07,1.1-.19,0-.41-.25-.89-.24-.51-.22-.54.39,0,.89.32a4.14,4.14,0,0,1,1.11,1c.17.24.31.37.43.39s.26-.07.44-.26a8.21,8.21,0,0,0,2.14-5q.07-.7-.3-.87a3.11,3.11,0,0,0-1.5.09,1.2,1.2,0,0,1-.46.06.86.86,0,0,1-.24-.33h0C67,1.52,67,1.38,67,1.35a1,1,0,0,1,.44,0c.29,0,1.41.06,3.35.06h.92c1.09,0,1.74,0,1.94,0a.84.84,0,0,0,.54-.31A1.11,1.11,0,0,0,74.3,1c.24-.25.45-.35.63-.29a3.16,3.16,0,0,1,1,.78.92.92,0,0,1,.27.43c0,.12-.06.18-.22.18s-.09,0-.17.11a.64.64,0,0,0-.16.19,4.52,4.52,0,0,0-.1.94A14.86,14.86,0,0,1,75,6.9a1.93,1.93,0,0,1-1.27,1.25c-.68.22-1,.19-1.07-.11a1.45,1.45,0,0,0-.28-.79,1.66,1.66,0,0,0-.76-.44,2.66,2.66,0,0,1-.49-.18c-.06,0-.07-.08,0-.14a4.53,4.53,0,0,1,.84,0,3.45,3.45,0,0,0,1.25-.07,1.15,1.15,0,0,0,.54-.87A17.62,17.62,0,0,0,74,3.32s0-.09,0-.16a2,2,0,0,0-.06-1.07c-.09-.1-.43-.16-1-.17h-.22a2.92,2.92,0,0,0-1.06.1q-.16.09-.27.69l0,.07a8.37,8.37,0,0,1-1.26,3.3,8.88,8.88,0,0,1-2.72,2.44A.81.81,0,0,0,67,9a.93.93,0,0,1-.41.6.66.66,0,0,1-.58.1.51.51,0,0,1-.36-.45,1.32,1.32,0,0,0-.25-.73.51.51,0,0,0-.51-.07.59.59,0,0,0-.41.37c0,.06,0,.81,0,2.26s0,2.48,0,3.11c0,.13,0,.31,0,.55,0,.83,0,1.32,0,1.47s0,.24,0,.26a1.84,1.84,0,0,1-.78.38A1.07,1.07,0,0,1,63,16.84ZM61.86,5.91a.38.38,0,0,1-.17-.11,2.05,2.05,0,0,1-.13-.3,5.5,5.5,0,0,0-1-1.84,1.44,1.44,0,0,1-.18-.21l-.05-.06c-.21-.25,0-.27.66-.05.4.13.65.16.75.08a2.07,2.07,0,0,0,.35-.87,14.08,14.08,0,0,0,.45-2v0c0-.22.08-.33.13-.34a1.52,1.52,0,0,1,.5.14l.11,0a8.27,8.27,0,0,1,1.3.58c.18.13.17.23,0,.32a1,1,0,0,0-.33.22c-.09.1-.27.34-.54.7s-.52.69-.81,1a2.31,2.31,0,0,0-.5.72.75.75,0,0,0,.22.51,1.22,1.22,0,0,1,.28.84.81.81,0,0,1-.28.65A.59.59,0,0,1,61.86,5.91Zm4.22,8.14a.5.5,0,0,1-.25-.19,1.69,1.69,0,0,1-.11-.49,12.74,12.74,0,0,0-.49-2c-.2-.6-.25-.91-.13-.94s.45.23,1,.74a3.49,3.49,0,0,1,.86,1.48,1.63,1.63,0,0,1,0,1.24C66.77,14.19,66.48,14.25,66.08,14.05Zm1.79,2.5a7.08,7.08,0,0,1,0-1c0-.79.07-1.86.06-3.22s-.07-2.35-.15-3a.49.49,0,0,0,0-.11c0-.22,0-.33,0-.34a2,2,0,0,1,.65.21l.23.09a4.88,4.88,0,0,0,1,.32c.23,0,.81,0,1.73.06H72a9.06,9.06,0,0,0,1.4-.06A1.29,1.29,0,0,0,74,9a1.31,1.31,0,0,1,.14-.16c.11-.13.2-.2.27-.2a1,1,0,0,1,.43.22c.87.58,1.15,1,.87,1.13a.86.86,0,0,0-.36.36,2.46,2.46,0,0,0-.11.94q0,.48,0,2.28c0,.12,0,.29,0,.51,0,.84,0,1.37,0,1.6a1.41,1.41,0,0,1-.11.61.68.68,0,0,1-.34.2l-.15,0a1.6,1.6,0,0,1-.9.11c-.17-.06-.24-.24-.23-.54V16a1.11,1.11,0,0,0,0-.41c-.06-.09-.22-.14-.47-.16s-.58,0-1.23,0H71.4c-.69,0-1.13,0-1.31,0a.8.8,0,0,0-.49.14.8.8,0,0,0-.07.4v0a1,1,0,0,1,0,.38.83.83,0,0,1-.27.21,2.24,2.24,0,0,1-.58.17,1.71,1.71,0,0,1-.55,0A.27.27,0,0,1,67.87,16.55Zm5.53-1.69a.52.52,0,0,0,.19-.41q0-.29,0-1.95v-.77a6.85,6.85,0,0,0,0-1.21.52.52,0,0,0-.36-.43,4.79,4.79,0,0,0-1,0H70.92a4.79,4.79,0,0,0-1,0,.52.52,0,0,0-.36.43,6.85,6.85,0,0,0,0,1.21v.77q0,1.66,0,1.95a.51.51,0,0,0,.17.39,10.31,10.31,0,0,0,1.86.09A10.06,10.06,0,0,0,73.4,14.86Z"/><polygon class="cls-1" points="83.78 1.19 83.78 17.68 95.11 9.43 83.78 1.19"/><polygon class="cls-1" points="98.67 1.19 98.67 17.68 110.01 9.43 98.67 1.19"/></g></g></svg>