<svg xmlns="http://www.w3.org/2000/svg" viewBox="0 0 74.55 17.49"><defs><style>.cls-1{fill:#d6d2c7;}</style></defs><title>資產 173</title><g id="圖層_2" data-name="圖層 2"><g id="圖層_3" data-name="圖層 3"><path class="cls-1" d="M6.92,16.66a.28.28,0,0,1-.2-.23,6.11,6.11,0,0,1,0-.92c.08-1.4.13-4,.13-7.78V3.68a9.63,9.63,0,0,0-.06-1.15.3.3,0,0,0-.14-.22s0,0,0,0-.85,0-2.29,0H4.2l-2.07,0a12.2,12.2,0,0,0-1.24.13l-.09,0a1.17,1.17,0,0,1-.4,0,.66.66,0,0,1-.21-.31.39.39,0,0,0,0-.09A1.44,1.44,0,0,1,0,1.66s.09,0,.24,0q1.14.09,7.06.09l4.86,0a3.1,3.1,0,0,0,.77-.06,4.09,4.09,0,0,0,.65-.8,1.87,1.87,0,0,1,.47-.53c.08,0,.23,0,.43.17C15.62,1.32,16.14,1.84,16,2s-.22.16-.52.17-1.35,0-3.13,0H11.17c-1,0-1.58,0-1.84,0s-.6.12-.68.27a1.48,1.48,0,0,0-.07.72c0,.2,0,.36,0,.48v.11A4.21,4.21,0,0,0,8.68,5c.05.12.25.22.58.29a6.68,6.68,0,0,1,3.91,2,1.82,1.82,0,0,1,.5,1.39.67.67,0,0,1-.77.64.86.86,0,0,1-.39-.09,1.41,1.41,0,0,1-.35-.39A12.21,12.21,0,0,0,10,6.61C9.2,6,8.74,5.76,8.65,6c0,.07-.05,1.21-.05,3.42s0,3.67,0,4.48c0,.12,0,.33,0,.63,0,.47,0,.78,0,.92a3.11,3.11,0,0,1,0,.61.41.41,0,0,1-.1.18,2,2,0,0,1-.83.4A1.37,1.37,0,0,1,6.92,16.66Z"/><path class="cls-1" d="M20.62,8.31a2,2,0,0,1-.25-.46,1.54,1.54,0,0,1-.15-.4,1.37,1.37,0,0,1,.42,0h.12c.42,0,2.47,0,6.14,0h4.57a8.14,8.14,0,0,0,1.16-.09.47.47,0,0,0,.28-.26L33,7l.18-.25A7,7,0,0,1,33.74,6c.12-.14.22-.21.31-.21a.9.9,0,0,1,.32.21l.11.09a11.19,11.19,0,0,1,1.29,1.17c.33.35.47.58.44.69s-.12.11-.29.12-.82,0-1.73.06H29.51q-6.26,0-7,0a15.87,15.87,0,0,0-1.78.2A.2.2,0,0,1,20.62,8.31Z"/><path class="cls-1" d="M47,12.68a1.08,1.08,0,0,1-.07-.31,1.54,1.54,0,0,0-1.34-1.2,1,1,0,0,1-.34-.11s0-.08,0-.14a2.08,2.08,0,0,1,.69,0h.21a5,5,0,0,0,1,0,.42.42,0,0,0,.36-.34,3.76,3.76,0,0,0,.07-1v-1a9.06,9.06,0,0,0,0-1.63.68.68,0,0,0-.5-.6,6.56,6.56,0,0,0-1.43-.07H45a34.87,34.87,0,0,0-3.67.14l-.11,0a1.42,1.42,0,0,1-.47,0q-.09,0-.21-.24a.44.44,0,0,1,0-.09q-.21-.36-.18-.42s.09-.05.25,0c.55,0,1.11.07,1.67.09a3.23,3.23,0,0,0,1-.06c.29-.15.32-1.42.09-3.8a.42.42,0,0,0,0-.14,1.26,1.26,0,0,1,0-.49s.17,0,.41,0l.09,0a7.21,7.21,0,0,1,1.38.46c.22.11.24.22.08.32S45,2.93,44.93,4s0,1.65.21,1.8a3.41,3.41,0,0,0,1.09.1,3.23,3.23,0,0,0,1.14-.1,4.33,4.33,0,0,0,.21-1.9,27,27,0,0,0-.16-3.4v0q0-.37,0-.42s.17,0,.4,0a.06.06,0,0,0,0,0,8.71,8.71,0,0,1,1.57.46c.21.12.24.24.07.37a.8.8,0,0,0-.24.33,3.79,3.79,0,0,0-.07.62v0a2.28,2.28,0,0,0,0,.7.39.39,0,0,0,.34.27,6,6,0,0,0,.94,0h.32a3.82,3.82,0,0,0,.92-.07,1.56,1.56,0,0,0,.5-.51l.11-.12a3.15,3.15,0,0,1,.48-.53.22.22,0,0,1,.26,0,5,5,0,0,1,1,.76c.42.38.62.62.61.71a.19.19,0,0,1-.13.18,2.62,2.62,0,0,1-.7.07L52,3.39h-.77a14.27,14.27,0,0,0-1.46,0c-.28,0-.45.09-.52.21a1.38,1.38,0,0,0-.08.58v.63a2.65,2.65,0,0,0,0,.74c.06.13.21.21.45.25s.58,0,1.22,0H52a10.78,10.78,0,0,0,1.41-.08,1.18,1.18,0,0,0,.53-.48,1.5,1.5,0,0,0,.14-.18l0,0c.24-.32.4-.5.49-.52s.25.07.52.27c1,.72,1.36,1.16,1.24,1.33s-.25.15-.56.16-1.36,0-3.15,0-2.91,0-3.22,0-.47,0-.47.12.13.19.38.33a.39.39,0,0,1,.22.26c0,.1,0,.15-.17.15s-.11.12-.13.35,0,.83,0,1.79a14.88,14.88,0,0,1-.13,2.24,1.1,1.1,0,0,1-.57.71,3.2,3.2,0,0,1-.88.3C47.25,12.75,47,12.75,47,12.68Zm-6.55-.47c-.08-.08,0-.23.27-.43a12.35,12.35,0,0,0,2-2.19A10.94,10.94,0,0,0,44,7.12a.81.81,0,0,0,0-.11c.06-.16.12-.23.17-.23a1.6,1.6,0,0,1,.41.21l.14.09c.44.27.74.45.92.54a1.79,1.79,0,0,1,.53.36c0,.07,0,.13-.22.18a4.31,4.31,0,0,0-.9.79A15.47,15.47,0,0,1,41,12.07C40.68,12.21,40.52,12.26,40.46,12.21Zm1,4.5c-.08-.09-.08-.17,0-.21a6,6,0,0,1,.89-.27,18.24,18.24,0,0,0,6.57-3.05,11.48,11.48,0,0,0,3.66-5,.46.46,0,0,0,0-.09c.08-.18.14-.28.2-.29a1.6,1.6,0,0,1,.45.24l.09.05.61.38.24.12a2.52,2.52,0,0,1,.68.44c.06.08,0,.14-.25.18s-.45.26-.74.68a14.43,14.43,0,0,1-4.31,4.41,16.55,16.55,0,0,1-6.07,2.16c-1.25.19-1.92.29-2,.29A.15.15,0,0,0,41.46,16.71Z"/><polygon class="cls-1" points="63.21 1.01 63.21 17.49 74.55 9.25 63.21 1.01"/></g></g></svg>