<svg xmlns="http://www.w3.org/2000/svg" viewBox="0 0 94.67 17.57"><defs><style>.cls-1{fill:#d6d2c7;}</style></defs><title>資產 172</title><g id="圖層_2" data-name="圖層 2"><g id="圖層_3" data-name="圖層 3"><path class="cls-1" d="M.22,16.73A.29.29,0,0,1,0,16.51a5,5,0,0,1,0-.89c.08-1.5.12-4.23.1-8.19C.14,4,.12,2.08.07,1.68q0-.18,0-.45C0,.8,0,.59,0,.59S.32.71.84,1A.68.68,0,0,1,1,1a5,5,0,0,0,.84.31,6.88,6.88,0,0,0,1,0h.41a6.15,6.15,0,0,0,1.16-.06c.13,0,.28-.17.46-.41A.19.19,0,0,0,5,.84c.18-.24.32-.37.41-.38A1.39,1.39,0,0,1,5.94.8a3.56,3.56,0,0,1,.82.79c.08.16,0,.31-.23.45a.86.86,0,0,0-.27.69,22.9,22.9,0,0,0,0,2.48c0,.09,0,.21,0,.36a7.41,7.41,0,0,1,0,.93A.41.41,0,0,1,6,6.76l-.11,0a2,2,0,0,1-.86.29q-.33,0-.33-.3c0-.24-.07-.39-.22-.45a5.64,5.64,0,0,0-1.25-.08q-.91,0-1.11,0a.44.44,0,0,0-.31.21A25.65,25.65,0,0,0,1.75,10c0,2.26,0,4,.1,5.31a5.22,5.22,0,0,1,0,.74.49.49,0,0,1-.16.27,1.66,1.66,0,0,1-.76.4A1,1,0,0,1,.22,16.73Zm4.3-11c.16-.11.24-.39.23-.82s-.1-.7-.27-.79A5.6,5.6,0,0,0,3.26,4,4.84,4.84,0,0,0,2,4.1c-.16.08-.25.34-.27.77s.05.7.22.81a4.29,4.29,0,0,0,1.27.11A4.53,4.53,0,0,0,4.52,5.72ZM3.15,3.57h.09A4.82,4.82,0,0,0,4.48,3.5a.36.36,0,0,0,.21-.21,2.38,2.38,0,0,0,0-.56v0a1.71,1.71,0,0,0-.05-.57c0-.11-.17-.18-.38-.2a7.22,7.22,0,0,0-1,0,7.49,7.49,0,0,0-1,0c-.21,0-.34.09-.39.2a1.62,1.62,0,0,0-.06.57v.09a1.51,1.51,0,0,0,.06.56c.05.11.17.17.36.2A8.92,8.92,0,0,0,3.15,3.57Zm-.27,12.5c-.1-.06,0-.21.23-.45a6.08,6.08,0,0,0,1.4-2.16c.35-.89.4-1.44.13-1.66a.92.92,0,0,0-.54-.08,2.81,2.81,0,0,0-.82.12H3.22a.52.52,0,0,1-.3,0,.85.85,0,0,1-.2-.29.21.21,0,0,0,0-.07c-.12-.22-.17-.34-.15-.38s.12,0,.3,0a5.81,5.81,0,0,0,1.34.07c.37,0,.59-.11.65-.23a3.26,3.26,0,0,0,.09-1.08,2.9,2.9,0,0,0-.09-1c-.16-.24-.53-.28-1.09-.13l-.11,0a.81.81,0,0,1-.32.05s-.1-.09-.17-.23l0-.11a1.29,1.29,0,0,1-.17-.42C2.91,8,3,8,3.17,8c.67.06,1.89.09,3.67.09h.72a12.27,12.27,0,0,0,1.66-.06,1.17,1.17,0,0,0,.59-.5c.06-.09.11-.17.16-.23.17-.21.32-.29.45-.25a3.54,3.54,0,0,1,.79.63c.4.38.57.63.52.73s-.4.17-1,.18h-.18c-.49,0-.78.07-.86.17a2.16,2.16,0,0,0-.11.93v.16A3.17,3.17,0,0,0,9.67,11c.08.12.24,0,.46-.27a3.36,3.36,0,0,1,.5-.58c.06,0,.18,0,.33.13l0,0c.72.51,1.06.87,1,1.08s-.43.32-1.21.34h-.16a1.85,1.85,0,0,0-.81.11c-.17.08-.27.3-.29.65s0,.82,0,1.74c0,.15,0,.26,0,.34a2.53,2.53,0,0,1-.08,1.07c-.08.14-.31.24-.71.3a1.19,1.19,0,0,1-.56,0c-.1,0-.17-.16-.19-.36a9.57,9.57,0,0,1,0-1.1q.08-1.47.06-1.92c0-.39-.11-.63-.26-.72a1.33,1.33,0,0,0-.75-.13,1.94,1.94,0,0,0-.77.09.84.84,0,0,0-.26.52,5.14,5.14,0,0,1-1.37,2.56,6.45,6.45,0,0,1-1.08.85C3.23,16,3,16.11,2.88,16.07Zm5-4.92c.11-.07.19-.42.23-1.05a2.84,2.84,0,0,0-.08-1.23c-.09-.2-.37-.29-.85-.29s-.75.09-.85.29a4.25,4.25,0,0,0-.08,1A5.19,5.19,0,0,0,6.32,11c0,.12.28.21.7.26A1.44,1.44,0,0,0,7.9,11.15Zm4.43,5.6s-.05-.1-.07-.29a1.73,1.73,0,0,0-.37-.93,1.58,1.58,0,0,0-.88-.47c-.19-.05-.25-.12-.19-.22a4.3,4.3,0,0,1,.83,0H12c.3,0,.49,0,.56-.09s.19-.37.21-.81,0-1.08,0-2.26V9.06c0-1.05,0-1.72,0-2s-.13-.65-.27-.74a1.73,1.73,0,0,0-.76-.07h-.52a11.12,11.12,0,0,0-1.19,0,.72.72,0,0,0-.38.22,1.77,1.77,0,0,1-.78.38c-.36.09-.59.08-.69,0a.38.38,0,0,1-.09-.24q0-.17,0-.81.06-.84,0-2.34c0-1,0-1.78-.1-2.36,0,0,0-.06,0-.12S8,.71,8,.7a3,3,0,0,1,.58.21L8.76,1l.17.07a3.73,3.73,0,0,0,.83.29,7.58,7.58,0,0,0,1.06,0h.57a7,7,0,0,0,1.09-.07,1,1,0,0,0,.44-.38L13,.84a1.35,1.35,0,0,1,.32-.36c.06,0,.14,0,.25,0a5.18,5.18,0,0,1,.9.66c.37.32.56.52.56.6s0,.1-.13.17-.16.12-.21.12-.16.1-.27.29-.06,1.91-.08,5.6v1q0,6.48-.07,6.64a1.3,1.3,0,0,1-.73.92c-.18.07-.41.14-.69.22S12.38,16.79,12.33,16.75Zm-1.12-11a4.69,4.69,0,0,0,1.34-.11c.16-.11.24-.38.22-.81s-.11-.69-.28-.77A5,5,0,0,0,11.21,4a6.22,6.22,0,0,0-1.29.07c-.17.09-.26.35-.27.79s.06.7.23.8A4.66,4.66,0,0,0,11.21,5.79Zm1.28-2.27a.42.42,0,0,0,.21-.23,2.22,2.22,0,0,0,0-.56v0a1.71,1.71,0,0,0-.05-.57.43.43,0,0,0-.38-.2,7,7,0,0,0-1,0h-.18a6.7,6.7,0,0,0-1,0c-.21,0-.33.09-.38.2a1.71,1.71,0,0,0-.05.57v0a2.48,2.48,0,0,0,0,.58.36.36,0,0,0,.21.21,5.29,5.29,0,0,0,1.29.09A5.39,5.39,0,0,0,12.49,3.52Z"/><path class="cls-1" d="M19.35,16.46a.13.13,0,0,1,0-.12,2,2,0,0,1,.29-.22,9.86,9.86,0,0,0,1.67-1.54,9.48,9.48,0,0,0,1.3-1.88,1.24,1.24,0,0,0,.21-.68,1.83,1.83,0,0,0-.48-.62c-.36-.33-.62-.5-.78-.5s-.27.15-.36.49a.71.71,0,0,1-.24.43,1.32,1.32,0,0,1-.6.09c-.41,0-.64-.06-.69-.14A1.48,1.48,0,0,1,19.8,11c.3-1,.62-2.15.95-3.54a11.7,11.7,0,0,0,.45-2.22c-.09-.28-.46-.34-1.09-.16l-.11,0a.59.59,0,0,1-.32,0A.6.6,0,0,1,19.51,5l-.05-.11c-.12-.23-.18-.36-.16-.39s.1,0,.28,0a4.79,4.79,0,0,0,1.27.06c.34,0,.55-.13.62-.26a8.54,8.54,0,0,0,.36-1.67A14,14,0,0,0,22.05.5v0c0-.23,0-.35.07-.38a1.44,1.44,0,0,1,.52.09A12.19,12.19,0,0,1,23.9.53q.33.15.18.27a.92.92,0,0,0-.19.13,3.51,3.51,0,0,0-.5,1.37A9.57,9.57,0,0,0,23,4.13q0,.47.63.42A1.68,1.68,0,0,0,24.79,4c.22-.26.42-.36.57-.31a3.16,3.16,0,0,1,.9.74q.4.39.42.51c0,.08-.05.16-.22.24a.77.77,0,0,0-.37.29A1.39,1.39,0,0,0,26,6a2.58,2.58,0,0,1-.09.7c0,.15-.11.51-.22,1.08a15.52,15.52,0,0,1-.79,3,.46.46,0,0,0,0,.09,1.69,1.69,0,0,0-.2.76,1.66,1.66,0,0,0,.47.6A4.13,4.13,0,0,1,26.27,14a1.14,1.14,0,0,1-.28,1.3.66.66,0,0,1-.58.12.55.55,0,0,1-.43-.35,4.84,4.84,0,0,0-.46-1,2.92,2.92,0,0,0-.5-.74c-.12-.12-.23-.16-.31-.12a2.2,2.2,0,0,0-.49.5,10.48,10.48,0,0,1-2.88,2.37,5.43,5.43,0,0,1-.76.39C19.46,16.53,19.39,16.52,19.35,16.46Zm3.94-5.67c.16-.06.33-.47.53-1.22a22.31,22.31,0,0,0,.5-2.77c.07-.62.1-1,.1-1.23s-.07-.41-.19-.48A1.44,1.44,0,0,0,23.58,5a1.34,1.34,0,0,0-.68.14,1.36,1.36,0,0,0-.27.71c-.1.34-.29,1.1-.56,2.29a2.5,2.5,0,0,0-.09.37,12.63,12.63,0,0,0-.29,1.25.66.66,0,0,0,0,.5.94.94,0,0,0,.42.23l.12,0,.22.09.59.19A.25.25,0,0,0,23.29,10.79ZM34.06,7.66c-.12-.67-.28-1.07-.47-1.18a2.32,2.32,0,0,0-1.37.12c-1.08.27-2.3.56-3.67.86-.54.12-.89.21-1.05.26a1.16,1.16,0,0,0-.41.23c-.13.12-.22.17-.26.15s-.09-.12-.16-.3c0,0,0-.12-.07-.25l-.16-.5,0-.13a2.6,2.6,0,0,1-.16-.66q0-.09.39-.09h.05A3.78,3.78,0,0,0,28,6c.17-.09.32-.37.44-.85A24.79,24.79,0,0,0,29.34.39V.32c0-.17.05-.26.11-.27a1.83,1.83,0,0,1,.61.14l.09,0a7,7,0,0,1,1.43.51c.21.13.21.24,0,.33A2.31,2.31,0,0,0,31,2c-.49,1.07-1.08,2.19-1.75,3.37-.15.25-.22.42-.2.5s.18.15.47.16S30.22,6,31,6H31l1.53-.09a1.79,1.79,0,0,0,.58-.11.27.27,0,0,0,.09-.24,2.62,2.62,0,0,0-.35-.74c-.24-.41-.48-.8-.75-1.18s-.23-.38-.19-.43.2,0,.48.14A7.54,7.54,0,0,1,34.62,5a3.28,3.28,0,0,1,.91,1.92,1.25,1.25,0,0,1-.25,1,.62.62,0,0,1-.74.23Q34.11,8,34.06,7.66Zm-6.66,9a.27.27,0,0,1-.15-.21,4.57,4.57,0,0,1,0-.58c.06-.69.08-1.76.07-3.23s-.05-2.56-.12-3.29c0,0,0-.1,0-.18,0-.24,0-.37,0-.39a1.77,1.77,0,0,1,.61.19,1.4,1.4,0,0,0,.27.11,4.74,4.74,0,0,0,1,.31c.22,0,.79.06,1.7.07h.45a12.09,12.09,0,0,0,1.4,0,.73.73,0,0,0,.44-.29l.05-.07L33.25,9c.22-.26.38-.41.45-.42s.24.05.46.2l0,0c.91.61,1.16,1,.74,1.19a.45.45,0,0,0-.29.37q0,.26,0,1.74c0,1.3,0,2.28,0,2.91v.18a7,7,0,0,1,0,.92c0,.1-.11.18-.28.25l-.07,0a2.87,2.87,0,0,1-.7.2,1.13,1.13,0,0,1-.56,0,.28.28,0,0,1-.14-.18,2.72,2.72,0,0,1,0-.45v-.09a1.16,1.16,0,0,0,0-.49c-.06-.1-.22-.16-.47-.18s-.6,0-1.26,0h-.42c-.69,0-1.14,0-1.33,0s-.41.08-.47.18a1,1,0,0,0,0,.5V16a.68.68,0,0,1-.06.41,1.23,1.23,0,0,1-.71.33A1.15,1.15,0,0,1,27.4,16.68Zm5.29-2a.39.39,0,0,0,.22-.37c0-.2,0-.84,0-1.93v-.72a6.49,6.49,0,0,0,0-1.17.5.5,0,0,0-.36-.43,4.73,4.73,0,0,0-1,0H30.28a4.62,4.62,0,0,0-1,0,.52.52,0,0,0-.37.43,8.21,8.21,0,0,0,0,1.17v.72c0,1.08,0,1.72,0,1.91a.41.41,0,0,0,.2.38,11.5,11.5,0,0,0,1.79.07A9.4,9.4,0,0,0,32.69,14.64Z"/><path class="cls-1" d="M51.66,13.56a.71.71,0,0,0-.46-.36.36.36,0,0,0-.39.26,4.84,4.84,0,0,1-.87.78,11.46,11.46,0,0,1-1.29.94,13.54,13.54,0,0,1-2,1.05,4.18,4.18,0,0,1-1.37.5q-.21-.09.18-.3a13,13,0,0,0,4.74-4.2,2.17,2.17,0,0,0,.35-.74,2.43,2.43,0,0,0-.17-.84A21.3,21.3,0,0,1,49.75,8c-.08-.46-.18-.69-.29-.69s-.31.23-.62.69-.59.85-.86,1.18-.44.49-.51.49-.13-.06-.12-.12a1.48,1.48,0,0,1,.13-.38c.21-.47.22-.72,0-.76a2.45,2.45,0,0,0-1.17.52,5.66,5.66,0,0,0-.76.55c-.12.12-.13.2-.05.25s0,.22-.23.37a.52.52,0,0,0-.21.45c0,.21.06.33.19.38a5.88,5.88,0,0,0,1.56-.14l.56-.09.85-.13c.08,0,.12,0,.12.07s0,.18-.17.24-.59.21-1.36.47l-.54.18a2.5,2.5,0,0,0-1.1.52,2.6,2.6,0,0,0-.16,1.22v.56c0,.84,0,1.37,0,1.58a1.39,1.39,0,0,1-.16.54,1.24,1.24,0,0,1-.57.53,2.85,2.85,0,0,1-1,.3l-.25,0-.13,0a.53.53,0,0,1-.09-.29,1.5,1.5,0,0,0-.43-.85,2.26,2.26,0,0,0-1-.46c-.37-.09-.49-.18-.37-.27s.24,0,.63,0h.14a6.13,6.13,0,0,0,1.17,0,.47.47,0,0,0,.43-.3,3.79,3.79,0,0,0,.06-.88v-.17a3.37,3.37,0,0,0-.06-.84c0-.16-.14-.23-.32-.22a5.54,5.54,0,0,0-.88.24h-.09a4.07,4.07,0,0,0-1.36.56c-.14.15-.23.19-.28.15a3.75,3.75,0,0,1-.33-.71.87.87,0,0,0,0-.12,1.08,1.08,0,0,0-.07-.18,2.5,2.5,0,0,1-.21-.68c0-.06.1-.1.28-.11a.26.26,0,0,1,.11,0l.45-.06c1-.1,1.68-.18,2-.23A1.16,1.16,0,0,0,43.4,11a1.55,1.55,0,0,0,.09-.67V10a2.47,2.47,0,0,1,0-.51s.08-.06.19-.05l.07,0a1,1,0,0,0,1.26-.81q.08-.29-.3-.39a1.84,1.84,0,0,0-.88,0A1.92,1.92,0,0,0,43,8.6a21.56,21.56,0,0,1-3,2.16l-.37.18a.14.14,0,0,1-.14-.06q-.07-.08,0-.12a1.73,1.73,0,0,1,.27-.2,13.16,13.16,0,0,0,1.64-1.44c.36-.4.5-.67.44-.81s-.36-.13-.88,0l0,0c-.13,0-.22,0-.25,0a1.54,1.54,0,0,1-.22-.33,1.1,1.1,0,0,1-.17-.39s.07-.06.19,0a8.41,8.41,0,0,0,1.74.09A1.18,1.18,0,0,0,43,7.35c.72-.78,1-1.25.83-1.42a3.09,3.09,0,0,0-1.27-.11A18.71,18.71,0,0,0,40.36,6h-.08a.83.83,0,0,1-.41,0s-.11-.12-.2-.3l0-.09a1.69,1.69,0,0,1-.16-.4s.08,0,.21,0a18.91,18.91,0,0,0,2,.13A1,1,0,0,0,42.52,5a1.73,1.73,0,0,0,.16-.9c0-.61-.13-1-.37-1.11a2.44,2.44,0,0,0-1.49.14l0,0a.35.35,0,0,1-.21,0,2.09,2.09,0,0,1-.19-.31l0,0a1.77,1.77,0,0,1-.17-.43s.11,0,.3,0a10.71,10.71,0,0,0,1.76.08.42.42,0,0,0,.38-.42c0-.11,0-.37,0-.79s0-.75-.06-.91,0-.25,0-.26A1.46,1.46,0,0,1,43,.17C44.4.5,44.89.77,44.5,1c-.17.1-.26.32-.27.67s.06.52.21.52.27-.14.47-.41.2-.26.25-.26.15.08.31.22c.38.34.67.43.85.29A2.88,2.88,0,0,0,46.89.64l0,0c0-.16.08-.25.14-.25a3.05,3.05,0,0,1,.6.25.24.24,0,0,0,.09.06,4.7,4.7,0,0,1,1,.6c.13.13.08.21-.14.24s-.41.3-.69.8c-.34.66-.77,1.38-1.27,2.17-.3.46-.38.7-.23.72s.4-.18.75-.63l0,0c.09-.12.17-.18.22-.17s.19.1.41.29l.09.09c.4.38.67.54.79.5s.24-.34.38-.89a16.49,16.49,0,0,0,.57-4v0c0-.13,0-.21.07-.22a1.45,1.45,0,0,1,.42.07l.12,0a9.49,9.49,0,0,1,1.55.49c.21.1.21.22,0,.34a.71.71,0,0,0-.25.29,5.21,5.21,0,0,0-.25.75l-.2.72a2.91,2.91,0,0,0-.11.34c-.14.47-.17.75-.08.83A2.24,2.24,0,0,0,52,4.08h.07a3.27,3.27,0,0,0,1-.09,2,2,0,0,0,.56-.61l0,0a2.7,2.7,0,0,1,.39-.45.4.4,0,0,1,.4,0,5.86,5.86,0,0,1,.72.6c.42.38.63.64.63.79s-.23.22-.67.23-.58.07-.66.17a2.61,2.61,0,0,0-.27,1,21.41,21.41,0,0,1-.63,2.87,16.5,16.5,0,0,1-1,2.43,2.34,2.34,0,0,0-.32.83,1.48,1.48,0,0,0,.41.68,10.09,10.09,0,0,0,2.86,2.37c.26.16.4.26.42.32s-.06.11-.24.17a1.78,1.78,0,0,0-1.13,1.06c-.09.23-.47,0-1.16-.67A11.76,11.76,0,0,1,51.66,13.56ZM44.68,5a2.7,2.7,0,0,0,.39-.54,3.44,3.44,0,0,0,.6-1.24c0-.17-.25-.24-.71-.23h0c-.34,0-.54.06-.6.14a2.3,2.3,0,0,0-.09.88V4.1a3,3,0,0,0,.09,1C44.38,5.19,44.5,5.17,44.68,5ZM47.9,8a2.68,2.68,0,0,0,.47-1.1c.15-.55.19-.87.1-1a3.57,3.57,0,0,0-1.35-.12,4.61,4.61,0,0,0-1.45.12,5.73,5.73,0,0,0-.69.67,4.1,4.1,0,0,0-.61.74c-.11.2-.08.33.08.39a1.09,1.09,0,0,0,.66,0,1.77,1.77,0,0,0,.72-.45c.24-.24.43-.34.57-.31a3.34,3.34,0,0,1,.85.72,4.42,4.42,0,0,0,.43.4C47.74,8.07,47.81,8.05,47.9,8Zm3.49,1.9a7.25,7.25,0,0,0,.79-2.56,5.93,5.93,0,0,0,.25-2.53c-.12-.19-.46-.26-1-.22s-.9.18-1,.38a3.54,3.54,0,0,0-.49,1.58,8.57,8.57,0,0,0,.58,2.13A6.15,6.15,0,0,0,51,9.81C51.13,10,51.26,10,51.39,9.87Z"/><path class="cls-1" d="M60.26,9.59a.66.66,0,0,1-.54-.72,1.23,1.23,0,0,1,.62-1,2.51,2.51,0,0,0,.7-.83,2,2,0,0,0,.29-1c0-.2.05-.28.15-.22s.18.2.22.44a.45.45,0,0,0,.23.31.15.15,0,0,0,.24-.08,17.19,17.19,0,0,0,0-3.08c0-.21,0-.51,0-.88,0-.66,0-1.08,0-1.26s.06-.38.13-.43.16,0,.34,0L62.8,1a1.42,1.42,0,0,0,.88,0,4.23,4.23,0,0,0,1-.81l0,0c.1-.1.18-.15.22-.14a1.1,1.1,0,0,1,.3.23l.11.1a4.49,4.49,0,0,1,.67.69q.11.16-.15.18a5.41,5.41,0,0,0-.87.18,8.81,8.81,0,0,1-.88.23h0a.72.72,0,0,0-.5.3,1.17,1.17,0,0,0,0,.71c0,.3.16.46.39.47a1,1,0,0,0,.69-.45.16.16,0,0,0,0-.06c.11-.12.19-.17.24-.17a1.59,1.59,0,0,1,.37.28l0,0c.33.28.54.4.66.39a2.28,2.28,0,0,0,.71-.57l0,0c.27-.27.4-.48.38-.63s-.18-.32-.51-.52a1.21,1.21,0,0,1-.2-.15s0-.07,0-.12.3-.05.69,0a1.41,1.41,0,0,0,.73,0,1.36,1.36,0,0,0,.44-.61,1.09,1.09,0,0,1,.18-.34,4,4,0,0,1,.66.36,5.73,5.73,0,0,1,.72.47A2.29,2.29,0,0,0,71,1.18a2.75,2.75,0,0,0,.77,0c.1,0,.23-.17.4-.41s.36-.43.48-.41a2.26,2.26,0,0,1,.75.54,2.8,2.8,0,0,1,.55.6c.08.12.06.22,0,.28l0,0a.61.61,0,0,0-.35.45,16.26,16.26,0,0,0-.14,1.9c0,.09,0,.15,0,.2,0,.9-.06,1.48,0,1.73s.06.5.16.5.23-.12.49-.36.32-.23.44-.19a2.76,2.76,0,0,1,.71.61,3.38,3.38,0,0,1,.62.74c.06.15,0,.25-.15.28a2.77,2.77,0,0,0-.87.4c-.62.42-1.05.7-1.29.83s-.45.2-.5.13,0-.24.08-.53a4,4,0,0,0,.21-.77A.26.26,0,0,0,73,7.41c-.09,0-1.89-.06-5.42-.06s-5.33,0-5.4.06-.22.23-.25.5a2.11,2.11,0,0,1-.58,1.35A1.09,1.09,0,0,1,60.26,9.59Zm6.09,7.16s0-.11-.07-.27a1.74,1.74,0,0,0-.45-.9,2.44,2.44,0,0,0-1-.49,2.88,2.88,0,0,1-.41-.13.1.1,0,0,1,0-.14s.1,0,.27,0c.85.07,1.4.1,1.64.09s.54-.1.63-.27a2.77,2.77,0,0,0,.1-.87v-.28a2.41,2.41,0,0,0,0-.69c-.06-.13-.22-.21-.49-.23a11.19,11.19,0,0,0-1.29,0h-.61a29.41,29.41,0,0,0-3.39.13l-.18,0a3.39,3.39,0,0,1-.56,0c-.06,0-.12-.08-.2-.22a.87.87,0,0,0,0-.12,1.27,1.27,0,0,1-.16-.43c0-.06.05-.08.14-.06.41.06,1.65.1,3.73.11h2.37c.34,0,.55-.07.62-.16a.87.87,0,0,0,.07-.51c0-.08,0-.15,0-.19V11c0-.21,0-.34,0-.37s.16,0,.39,0l.16,0a2.16,2.16,0,0,0,.85,0,2.3,2.3,0,0,0,.67-.48c.26-.25.4-.41.41-.48s-.13-.16-.43-.18-.79,0-1.64,0a24.82,24.82,0,0,0-3.33.16l-.07,0a1,1,0,0,1-.42,0,.81.81,0,0,1-.23-.31.08.08,0,0,0,0,0,1.5,1.5,0,0,1-.17-.43s.09,0,.24,0c.7.06,2.06.09,4.09.09h.58c1.06,0,1.7,0,1.9-.06a.8.8,0,0,0,.51-.27.45.45,0,0,1,.09-.1c.3-.32.52-.46.66-.44a3.21,3.21,0,0,1,.87.69c.36.35.55.57.56.67s-.11.19-.4.25a4.81,4.81,0,0,0-.81.27c-.4.16-.83.33-1.3.5A3.22,3.22,0,0,0,69.1,11a.79.79,0,0,1-.18.16.53.53,0,0,0-.29.45.36.36,0,0,0,.29.36,17.28,17.28,0,0,0,1.87,0h.44a10.27,10.27,0,0,0,1.32-.07.91.91,0,0,0,.46-.4l.11-.14,0-.06q.41-.57.54-.6c.1,0,.3.1.61.37l.08.05c.69.58,1,.95,1,1.12v0c0,.09-.15.14-.37.16s-1,0-2.31,0h-1.8c-.86,0-1.4,0-1.62,0a.73.73,0,0,0-.6.27,1.63,1.63,0,0,0-.07.72v.52a7,7,0,0,1-.16,1.73,1.3,1.3,0,0,1-.69.68,3.4,3.4,0,0,1-.81.25C66.57,16.79,66.38,16.8,66.35,16.75ZM65.84,6.8c.14-.06.17-.13.1-.19s-.08-.13,0-.17a1.84,1.84,0,0,1,.37-.31c.61-.44.94-.77,1-1s-.14-.45-.56-.73a1.05,1.05,0,0,1-.23-.2s0-.07,0-.11.36,0,.87.11a1.1,1.1,0,0,0,.69,0,1.26,1.26,0,0,0,.44-.55,1.11,1.11,0,0,0,.14-.41.86.86,0,0,0-.23-.35,1.05,1.05,0,0,0-.49-.36,1.37,1.37,0,0,0-.63.26q-1,.63-1.2.57a.22.22,0,0,0-.18.06.63.63,0,0,1-.32.11,7.16,7.16,0,0,1-.83,0,2.83,2.83,0,0,0-1,.09c-.11.06-.16.23-.16.52,0,.45.1.7.31.76s.44-.09.72-.45.3-.32.41-.31.29.15.56.42.47.59.37.71-.5.17-1.18.17h-.77a.32.32,0,0,0-.2.08.71.71,0,0,0-.18.62.62.62,0,0,0,.25.57,4.29,4.29,0,0,0,.93,0A5.11,5.11,0,0,0,65.84,6.8Zm5.73-.08a.87.87,0,0,0,.19-.5.79.79,0,0,0-.08-.54q-.09-.15-.39-.15a1.82,1.82,0,0,0-.66.11l-.07,0a.32.32,0,0,1-.23,0,.84.84,0,0,1-.18-.31l0,0C70,5.1,70,5,70,5s.12,0,.31,0a3.43,3.43,0,0,0,1.22,0q.27-.09.33-.51c.11-.81-.28-1.06-1.15-.73h-.06a.46.46,0,0,1-.22,0s-.08-.09-.15-.23l-.08-.11a1.5,1.5,0,0,1-.17-.4s.07,0,.19,0a3.73,3.73,0,0,0,1.48,0q.28-.13.27-.81a.54.54,0,0,0-.48-.51,2.05,2.05,0,0,0-1.14.2s-.18-.15-.38-.49q-.15-.28-.33-.3a.63.63,0,0,0-.43.2.76.76,0,0,0-.26.39.7.7,0,0,0,.14.45c.21.39.22.68,0,.88s-.12.21-.08.29a1.06,1.06,0,0,0,.42.34A1.64,1.64,0,0,1,70,4q.08.15-.21.15c-.06,0-.17.08-.32.25a1.05,1.05,0,0,0-.34.46.69.69,0,0,0,.12.46,1.06,1.06,0,0,1,.14.79.41.41,0,0,1-.34.38c-.19,0-.38-.09-.56-.35s-.29-.35-.41-.37a1.41,1.41,0,0,0-.65.23c-.32.18-.52.28-.59.31-.4.19-.48.34-.25.45a16.25,16.25,0,0,0,2.57.06A11,11,0,0,0,71.57,6.72Z"/><polygon class="cls-1" points="83.33 1.08 83.33 17.57 94.67 9.32 83.33 1.08"/></g></g></svg>