<svg xmlns="http://www.w3.org/2000/svg" viewBox="0 0 72.76 17.49"><defs><style>.cls-1{fill:#d6d2c7;}</style></defs><title>資產 174</title><g id="圖層_2" data-name="圖層 2"><g id="圖層_3" data-name="圖層 3"><path class="cls-1" d="M16.74,16a2.41,2.41,0,0,1-.21-.41,1.52,1.52,0,0,1-.15-.42h.32l.13,0c.36,0,1.43.06,3.2.07s2.69,0,2.76,0l0,0c.08,0,.12-.1.13-.23s0-.65,0-1.37q0-.78,0-3.66V8.43c0-3.32,0-5.32,0-6A18.26,18.26,0,0,0,22.84.6v0c0-.19,0-.3,0-.33a1,1,0,0,1,.41.06l.08,0a9.54,9.54,0,0,1,1.58.48c.24.12.28.25.13.38l0,0a.6.6,0,0,0-.21.44c0,.19,0,.84,0,1.93V4.92a12.26,12.26,0,0,0,0,1.44c0,.28.14.45.31.51a3.4,3.4,0,0,0,.88,0h.88A6.25,6.25,0,0,0,28,6.84a1.23,1.23,0,0,0,.49-.46.8.8,0,0,1,.13-.16,2.7,2.7,0,0,1,.54-.65c.08-.05.21,0,.38.11a8.23,8.23,0,0,1,1.08.89c.35.33.51.54.48.64s-.18.17-.44.19-1.14,0-2.66,0h-.59c-1.2,0-1.91,0-2.12,0a.65.65,0,0,0-.44.17v0a35.18,35.18,0,0,0-.1,3.54c0,2.28,0,3.52,0,3.71a.45.45,0,0,0,0,.08c0,.1.06.17.11.19a1.26,1.26,0,0,0,.52.09l1.37,0h.95a10.11,10.11,0,0,0,1.5-.06,1,1,0,0,0,.52-.48l.14-.21a2.7,2.7,0,0,1,.53-.63q.13-.06.45.18c1.1.79,1.61,1.29,1.53,1.51l0,0c0,.08-.26.12-.71.13l-4.71,0H25.38l-6.32,0a10.64,10.64,0,0,0-1.74.15h-.06A3.06,3.06,0,0,1,16.74,16Z"/><path class="cls-1" d="M37,8.31a1.69,1.69,0,0,1-.25-.46,1.54,1.54,0,0,1-.15-.4,1.32,1.32,0,0,1,.41,0h.13c.42,0,2.47,0,6.14,0h4.57A8,8,0,0,0,49,7.41a.49.49,0,0,0,.29-.26L49.39,7l.18-.25A7,7,0,0,1,50.13,6c.12-.14.22-.21.31-.21a1,1,0,0,1,.32.21l.11.09a11,11,0,0,1,1.28,1.17q.49.52.45.69c0,.07-.12.11-.29.12s-.82,0-1.73.06H45.9c-4.18,0-6.49,0-6.95,0a15.87,15.87,0,0,0-1.78.2A.19.19,0,0,1,37,8.31Z"/><path class="cls-1" d="M63.4,12.68a1.57,1.57,0,0,1-.08-.31A1.52,1.52,0,0,0,62,11.17a1,1,0,0,1-.34-.11s0-.08,0-.14a2.06,2.06,0,0,1,.69,0h.21a5,5,0,0,0,1,0,.42.42,0,0,0,.36-.34,3.76,3.76,0,0,0,.07-1v-1a10.2,10.2,0,0,0,0-1.63.68.68,0,0,0-.51-.6A6.39,6.39,0,0,0,62,6.38h-.63a34.87,34.87,0,0,0-3.67.14l-.11,0a1.42,1.42,0,0,1-.47,0q-.09,0-.21-.24l-.06-.09a1.19,1.19,0,0,1-.18-.42s.1-.05.26,0c.55,0,1.1.07,1.67.09a3.32,3.32,0,0,0,1-.06c.29-.15.32-1.42.09-3.8a1.15,1.15,0,0,0,0-.14,1.26,1.26,0,0,1,0-.49s.17,0,.41,0l.09,0a7.48,7.48,0,0,1,1.38.46c.22.11.24.22.07.32s-.26.68-.29,1.74,0,1.65.2,1.8a3.5,3.5,0,0,0,1.1.1,3.23,3.23,0,0,0,1.14-.1A4.33,4.33,0,0,0,64,3.89a29,29,0,0,0-.16-3.4v0q-.06-.37,0-.42s.17,0,.4,0a.06.06,0,0,0,.05,0,8.71,8.71,0,0,1,1.57.46c.21.12.24.24.07.37a1,1,0,0,0-.25.33,3.12,3.12,0,0,0-.06.62v0a2.28,2.28,0,0,0,0,.7.39.39,0,0,0,.34.27,5.91,5.91,0,0,0,.94,0h.32a3.82,3.82,0,0,0,.92-.07,1.56,1.56,0,0,0,.5-.51l.11-.12a3.15,3.15,0,0,1,.48-.53.22.22,0,0,1,.26,0,5,5,0,0,1,1,.76c.42.38.63.62.62.71s-.06.16-.13.18a2.69,2.69,0,0,1-.7.07l-1.89,0h-.78a14.16,14.16,0,0,0-1.45,0,.66.66,0,0,0-.53.21,1.43,1.43,0,0,0-.07.58v.63a2.65,2.65,0,0,0,0,.74c.06.13.21.21.45.25s.57,0,1.22,0h1.06a11.16,11.16,0,0,0,1.42-.08,1.24,1.24,0,0,0,.53-.48,1.5,1.5,0,0,0,.14-.18l0,0c.24-.32.4-.5.48-.52s.26.07.53.27c.94.72,1.36,1.16,1.24,1.33s-.25.15-.56.16-1.36,0-3.15,0-2.91,0-3.22,0-.47,0-.47.12.13.19.38.33a.35.35,0,0,1,.21.26c0,.1,0,.15-.16.15s-.12.12-.13.35,0,.83,0,1.79a16.47,16.47,0,0,1-.13,2.24,1.1,1.1,0,0,1-.57.71,3.32,3.32,0,0,1-.88.3C63.64,12.75,63.43,12.75,63.4,12.68Zm-6.56-.47c-.07-.08,0-.23.27-.43a12,12,0,0,0,2-2.19,11.35,11.35,0,0,0,1.36-2.47.81.81,0,0,0,0-.11c.06-.16.12-.23.16-.23A1.44,1.44,0,0,1,61,7l.14.09c.43.27.74.45.92.54a1.79,1.79,0,0,1,.53.36c0,.07,0,.13-.22.18a3.83,3.83,0,0,0-.9.79,15.47,15.47,0,0,1-4.16,3.12C57.07,12.21,56.9,12.26,56.84,12.21Zm1,4.5c-.08-.09-.08-.17,0-.21a6,6,0,0,1,.89-.27,18.24,18.24,0,0,0,6.57-3.05,11.56,11.56,0,0,0,3.66-5l0-.09c.07-.18.14-.28.2-.29a1.6,1.6,0,0,1,.45.24l.09.05.61.38.24.12a2.52,2.52,0,0,1,.68.44c.06.08,0,.14-.25.18s-.45.26-.74.68A14.55,14.55,0,0,1,66,14.3a16.61,16.61,0,0,1-6.08,2.16c-1.24.19-1.91.29-2,.29S57.88,16.72,57.85,16.71Z"/><polygon class="cls-1" points="11.34 17.49 11.34 1.01 0 9.25 11.34 17.49"/></g></g></svg>