<svg xmlns="http://www.w3.org/2000/svg" viewBox="0 0 103.42 22.65"><defs><style>.cls-1{fill:#b13234;}</style></defs><title>資產 127</title><g id="圖層_2" data-name="圖層 2"><g id="圖層_1-2" data-name="圖層 1"><path class="cls-1" d="M12.9,21.53a15.08,15.08,0,0,0,0-3.36c-.12-.51-.38-.57-.8-.18a20.2,20.2,0,0,1-4.66,3.12c-.55.26-.88.42-1,.46a.27.27,0,0,1-.3,0c-.07-.07-.08-.14,0-.18a2.34,2.34,0,0,1,.37-.3,18.46,18.46,0,0,0,3.36-3.12c1.11-1.3,1.58-2.11,1.42-2.45-.08-.18-.43-.27-1-.28A11.86,11.86,0,0,0,8,15.44l-.1,0a1.62,1.62,0,0,1-.6,0c-.07,0-.17-.18-.3-.44L7,15c-.16-.31-.22-.48-.18-.52a1.29,1.29,0,0,1,.62,0h.1c.46,0,1.44.07,2.91.07H11c.76,0,1.24,0,1.43,0a.68.68,0,0,0,.53-.24A1.7,1.7,0,0,0,13,13.6v-.41a3.15,3.15,0,0,0-.05-.78c0-.07-.16-.09-.39-.07a4.31,4.31,0,0,1-.79,0q-.15,0-.18-.21a.51.51,0,0,0-.33-.45,2.92,2.92,0,0,0-1-.09c-.53,0-.84.18-.92.49a.81.81,0,0,1-.47.43,2.2,2.2,0,0,1-.89.22c-.24,0-.39,0-.45-.14A1.78,1.78,0,0,1,7.49,12a3.68,3.68,0,0,0-.06-1.63c-.1-.13-.44,0-1,.39a2.87,2.87,0,0,1-.33.24,2.42,2.42,0,0,0-.68.56,2.49,2.49,0,0,0-.25,1c0,.36,0,1.17,0,2.43v1.31c0,1.81,0,3,0,3.47A7.46,7.46,0,0,1,5,21.21a1.8,1.8,0,0,1-.36.61,3.09,3.09,0,0,1-1.16.63c-.57.19-.9.23-1,.12a1.41,1.41,0,0,1-.07-.27A2.33,2.33,0,0,0,1.85,21a2.28,2.28,0,0,0-1.32-.63.38.38,0,0,1-.2-.14.1.1,0,0,1,0-.15,1.8,1.8,0,0,1,.78,0,5,5,0,0,0,1.49,0,.6.6,0,0,0,.44-.49,23,23,0,0,0,.07-3.16A17.45,17.45,0,0,0,3,13.5c-.13-.18-.4-.17-.81,0a1.89,1.89,0,0,0-.88.78c-.15.23-.26.29-.34.19a6.34,6.34,0,0,1-.54-1.26s0-.11-.07-.19A4.65,4.65,0,0,1,0,12c0-.11.1-.19.32-.24l0,0,.54-.12a13.61,13.61,0,0,0,1.55-.43A1,1,0,0,0,3,10.57,6.47,6.47,0,0,0,3.1,9.18V8.75A13.11,13.11,0,0,0,3,6.81c-.1-.39-.29-.62-.56-.68a4,4,0,0,0-1.31.22l-.1,0a.84.84,0,0,1-.45.06A1,1,0,0,1,.34,6L.29,6a.3.3,0,0,1,0-.1C.11,5.6.06,5.46.08,5.43s.19,0,.48,0H.65a11.13,11.13,0,0,0,1.73.08.68.68,0,0,0,.6-.3,5.39,5.39,0,0,0,.09-1.65C3,2.59,3,1.67,2.88.8V.72q-.06-.51,0-.57c.05,0,.24,0,.56.06l.08,0a9.92,9.92,0,0,1,1.9.6c.3.17.34.33.12.5s-.36.81-.41,1.93,0,1.76.18,1.94a.26.26,0,0,0,.38,0,4.45,4.45,0,0,0,.59-.75c.21-.34.36-.52.46-.54s.3.11.61.37c1.08.93,1.41,1.55,1,1.84-.16.11-.22.22-.17.33a1.35,1.35,0,0,0,.53.4,3.88,3.88,0,0,0,1.74.4,1.49,1.49,0,0,0,1.22-.45c.33-.39.56-.6.69-.62s.38.09.72.35a3.22,3.22,0,0,1,1,1c.15.3.09.45-.21.45s-.29.17-.34.51a13.44,13.44,0,0,0,0,1.79c0,.71,0,1.13,0,1.26a.52.52,0,0,1-.09.29c-.16.18-.08.34.23.49a1.14,1.14,0,0,0,.94,0c.21-.08.32-.62.34-1.61a33.08,33.08,0,0,0-.25-3.89V6.81c0-.26,0-.4,0-.41a2,2,0,0,1,.69.21l0,0,.13.05c.66.26,1.08.41,1.27.46a4.21,4.21,0,0,0,1,.07,3.52,3.52,0,0,0,.94-.08,2.31,2.31,0,0,0,.63-.5c.26-.26.47-.38.62-.35a2.84,2.84,0,0,1,.93.57,3.19,3.19,0,0,1,.76.69.24.24,0,0,1-.1.37,1.27,1.27,0,0,0-.5.48,3.63,3.63,0,0,0-.08,1c0,.45,0,.95.05,1.5a2.37,2.37,0,0,1,0,.79,1,1,0,0,1-.45.33,2.74,2.74,0,0,1-1,.3c-.3,0-.46,0-.47-.16q0-.44-1.11-.48T16.71,12a1.32,1.32,0,0,1-.42.32,1.76,1.76,0,0,0-.51.37,1.06,1.06,0,0,1-.26.26c-.15,0-.25.22-.32.53a1.23,1.23,0,0,0,0,.73.44.44,0,0,0,.35.26,7.71,7.71,0,0,0,1.22,0H17a4.08,4.08,0,0,0,1.12-.09,2.17,2.17,0,0,0,.67-.71.88.88,0,0,0,.07-.12c.33-.45.55-.69.68-.73s.38.11.75.42a8.29,8.29,0,0,1,1.41,1.28c.19.26.08.43-.34.51a15.58,15.58,0,0,1-2.33.12c-1.31,0-2.07,0-2.3,0a.54.54,0,0,0-.44.19c-.16.31.41.91,1.7,1.79a14.83,14.83,0,0,0,3.66,1.88c.21.06.32.13.32.2s-.1.15-.29.23a1.74,1.74,0,0,0-.73.61,3.12,3.12,0,0,0-.56,1c-.06.16-.12.25-.17.26a1.18,1.18,0,0,1-.43-.24A12.27,12.27,0,0,1,16.08,17c-.33-.57-.55-.85-.68-.85s-.23.36-.25,1,0,1.71.08,3.32v.25a8.78,8.78,0,0,1,0,1.16c0,.13-.14.24-.35.34l-.12.05c-.72.34-1.22.45-1.51.32S12.85,22.12,12.9,21.53ZM6.64,9.94c.5-.15.79-.32.86-.52a6.59,6.59,0,0,0,0-1.81V7.46a2.74,2.74,0,0,0-.21-1.1c-.09-.11-.39-.16-.91-.16H6.25a2.8,2.8,0,0,0-.77.07c-.16.07-.26.25-.29.54a12.06,12.06,0,0,0-.05,1.4,9.43,9.43,0,0,0,.07,1.53c0,.28.18.42.39.44A4.06,4.06,0,0,0,6.64,9.94Zm4.66.89c.16-.09.26-.51.3-1.25a2.66,2.66,0,0,0-.13-1.37,1.2,1.2,0,0,0-1-.33,1.23,1.23,0,0,0-1,.33,2.66,2.66,0,0,0-.13,1.37c0,.74.14,1.16.3,1.25a1.8,1.8,0,0,0,.82.12A1.74,1.74,0,0,0,11.3,10.83ZM10.13,6.25s0-.82-.07-2.33c0-1.21,0-2.18-.07-2.91a.5.5,0,0,0,0-.14c0-.31,0-.47.09-.49a2.9,2.9,0,0,1,.81.29l.12,0a2.35,2.35,0,0,0,.29.12,6.56,6.56,0,0,0,1.11.4,9,9,0,0,0,1.34.06h.68a7.27,7.27,0,0,0,1.54-.09,2,2,0,0,0,.72-.66.36.36,0,0,0,.09-.12Q17,0,17.23.07A2.28,2.28,0,0,1,18,.58a4.35,4.35,0,0,1,1,1c.09.21,0,.39-.29.55a.73.73,0,0,0-.33.52,8.25,8.25,0,0,0,0,1.49v.2a4.45,4.45,0,0,1,0,1,.65.65,0,0,1-.34.31A3.21,3.21,0,0,1,16.94,6c-.4.06-.6,0-.6-.17s-.12-.27-.36-.31a13.59,13.59,0,0,0-1.72-.07c-.91,0-1.45,0-1.64,0a1.21,1.21,0,0,0-.57.26A2.46,2.46,0,0,1,11,6.23C10.5,6.34,10.22,6.35,10.13,6.25Zm6-1.6a2,2,0,0,0,.25-1.32c0-.7-.12-1.11-.32-1.23A6.77,6.77,0,0,0,14.24,2a6.27,6.27,0,0,0-1.83.1c-.21.13-.31.57-.31,1.33s.1,1.2.31,1.33a8,8,0,0,0,1.88.08A6.3,6.3,0,0,0,16.12,4.65Zm2.62,6.28c.18-.08.3-.5.37-1.26A2.63,2.63,0,0,0,19,8.21c-.16-.22-.51-.33-1.06-.33a1.34,1.34,0,0,0-1.07.33,4.16,4.16,0,0,0-.11,1.22,3.91,3.91,0,0,0,.09,1.26c.08.16.36.27.83.33A2.16,2.16,0,0,0,18.74,10.93Z"/><path class="cls-1" d="M30.53,22.57a.4.4,0,0,1-.28-.3,6.53,6.53,0,0,1,0-1.21q.18-2.52.18-6.55a23.76,23.76,0,0,0-.14-4.2.24.24,0,0,0-.35,0c-.13.11-.47.46-1,1.06-.26.27-.58.59-1,.94a3.06,3.06,0,0,1-.64.54c-.24,0-.23-.21,0-.61a34.58,34.58,0,0,0,3.1-5.87A24.23,24.23,0,0,0,32.25.65a.52.52,0,0,1,0-.17,2.87,2.87,0,0,1,.07-.39s.07,0,.15,0a6.74,6.74,0,0,1,1.38.46,13.84,13.84,0,0,1,1.38.6c.28.18.27.32,0,.42s-.53.43-.8,1.06c-.42,1-.91,2-1.48,3.11A4.29,4.29,0,0,0,32.4,7a1.08,1.08,0,0,0,.43.68,1.29,1.29,0,0,1,.33.4c0,.09,0,.18-.14.26l-.05,0a.82.82,0,0,0-.27.61c0,.27-.05,1.19-.07,2.74v.63q0,5.63.15,8.58c0,.47,0,.75,0,.84a.46.46,0,0,1-.09.23,2.85,2.85,0,0,1-1.11.57A1.61,1.61,0,0,1,30.53,22.57Zm9.4,0c-.24-.06-.38-.18-.41-.34a12.35,12.35,0,0,1,0-1.6c.09-1.45.14-4.12.17-8s0-6,0-6.27-.32-.58-.66-.49a2,2,0,0,0-1,.9,27.87,27.87,0,0,1-2.49,3.13c-1,1.09-1.56,1.61-1.75,1.58s-.16-.09-.14-.18a4.18,4.18,0,0,1,.33-.6,31.7,31.7,0,0,0,2.56-4.88A26.69,26.69,0,0,0,38,.87c0-.07,0-.15.05-.24.06-.33.13-.5.21-.53A1.89,1.89,0,0,1,39,.29l.29.12c1.78.69,2.37,1.1,1.79,1.21-.19,0-.55.55-1.08,1.55s-.74,1.59-.66,1.77.19.18.45.21,1.1,0,2.55,0h.83a13.39,13.39,0,0,0,1.9-.07,1.23,1.23,0,0,0,.67-.56,1,1,0,0,1,.17-.21L46,4.17c.34-.46.58-.69.71-.71s.44.16.89.54a.61.61,0,0,0,.12.09c1,.79,1.44,1.3,1.31,1.53s-.27.2-.56.22-1.27,0-2.93,0h-1a13.25,13.25,0,0,0-1.85,0,.73.73,0,0,0-.65.41A3.51,3.51,0,0,0,42,7.46V8.53a10.78,10.78,0,0,0,0,1.26c0,.26.13.41.3.46a2.51,2.51,0,0,0,.79.07h.25a3.32,3.32,0,0,0,1.15-.11,2.62,2.62,0,0,0,.71-.76v0a4.14,4.14,0,0,1,.59-.74q.12-.09.36.06a7,7,0,0,1,1.25,1c.48.46.71.76.71.89s0,.21-.12.24a2.53,2.53,0,0,1-.77.1L45.1,11h-1a14.62,14.62,0,0,0-1.55.05.74.74,0,0,0-.59.41,5.39,5.39,0,0,0,0,1.14v1.07A12,12,0,0,0,42,15a.61.61,0,0,0,.34.49,3.21,3.21,0,0,0,.9.07h.36a3.39,3.39,0,0,0,1.1-.13,3.33,3.33,0,0,0,.7-.72l.07-.12,0-.05c.32-.45.54-.69.67-.71s.38.12.78.45l.1.07c1,.79,1.54,1.32,1.46,1.57s-.19.24-.46.26-1.22,0-2.82.06-2.44,0-2.71.06-.44.1-.49.23a19.53,19.53,0,0,0,0,3.93v.24a8.22,8.22,0,0,1,0,1.19q0,.2-.36.36l-.09.05a3.8,3.8,0,0,1-.86.27A1.84,1.84,0,0,1,39.93,22.59Z"/><path class="cls-1" d="M60,22.54a.31.31,0,0,1-.07-.24c0-.95-.92-1.61-2.69-2a5.59,5.59,0,0,1-.56-.13.13.13,0,0,1-.1-.13c0-.1.07-.15.22-.15a12.8,12.8,0,0,1,1.28.07A11.6,11.6,0,0,0,61,20a2,2,0,0,0,1.39-1.14,14,14,0,0,0,.77-3.06c0-.14.07-.34.1-.58a9.73,9.73,0,0,0,.22-1.62A.6.6,0,0,0,63,13a10.32,10.32,0,0,0-1.65-.08H60.23L58.58,13a1,1,0,0,0-.63.17,1,1,0,0,0-.17.46.35.35,0,0,0,0,.12c-.14.62-.77.82-1.89.61h-.07c-.18,0-.27-.09-.29-.18a3.67,3.67,0,0,1,.14-.89c0-.13,0-.22,0-.29a38,38,0,0,0,.85-6.28V6.52q0-.49.12-.51a2.55,2.55,0,0,1,.83.31l.31.15.22.1a7.77,7.77,0,0,0,1.25.48,9.23,9.23,0,0,0,1.49.07h1a5.39,5.39,0,0,0,1.14,0,.57.57,0,0,0,.41-.47,5.71,5.71,0,0,0,.07-1.21V4.82c0-1.07,0-1.71,0-1.92A.6.6,0,0,0,63,2.44a8.5,8.5,0,0,0-2.5-.14,32.67,32.67,0,0,0-3.61.19l-.17,0a2.89,2.89,0,0,1-.81,0,.87.87,0,0,1-.31-.37.43.43,0,0,0,0-.07,1.84,1.84,0,0,1-.26-.56c0-.05.12-.06.33-.05.9.08,2.4.12,4.48.12h.59a19.45,19.45,0,0,0,2.09-.06.92.92,0,0,0,.62-.47l.07-.1c.33-.45.57-.68.73-.7a2.84,2.84,0,0,1,1,.65,4.11,4.11,0,0,1,1,1.06c.08.2,0,.39-.37.57a1.25,1.25,0,0,0-.53,1.07c0,.55,0,1.8.07,3.75a4.53,4.53,0,0,1,0,1c0,.11-.17.22-.41.33l0,0a2.81,2.81,0,0,1-1.37.33.42.42,0,0,1-.42-.54.73.73,0,0,0,0-.49c-.08-.1-.29-.16-.63-.19s-.81,0-1.65,0h-.48A4.16,4.16,0,0,0,58.91,8c-.16.09-.28.41-.36.94,0,.13,0,.24,0,.32s0,.31-.1.58c-.07.45-.11.76-.15.92s0,.16,0,.27a3,3,0,0,0-.07.9c0,.17.24.28.56.31s.77.05,1.62.05h1.14a13,13,0,0,0,1.69-.06,1.41,1.41,0,0,0,.67-.43l.17-.17c.32-.32.57-.46.75-.43a3.5,3.5,0,0,1,1.09.77,2.79,2.79,0,0,1,.76.83c.06.16-.06.29-.35.39a.76.76,0,0,0-.47.4,4.57,4.57,0,0,0-.26,1.2,21.77,21.77,0,0,1-1.2,5.1,4.19,4.19,0,0,1-1.88,2.29,5.42,5.42,0,0,1-1.4.4C60.43,22.64,60.09,22.64,60,22.54Zm11.52,0a.41.41,0,0,1-.33-.36,11,11,0,0,1,.06-1.65c.15-2.39.2-6.06.17-11s-.11-7.91-.27-8.94c0-.13,0-.2.08-.22A5.83,5.83,0,0,1,72,.5a10.37,10.37,0,0,1,1.94.62c.28.16.3.35.07.57a1.27,1.27,0,0,0-.31.41q0,.18,0,7.68t0,8.93c0,.17,0,.45,0,.85,0,.63,0,1,0,1.24a7.31,7.31,0,0,1,0,.81.58.58,0,0,1-.15.26,2.23,2.23,0,0,1-1,.58A1.79,1.79,0,0,1,71.53,22.54Z"/><path class="cls-1" d="M94.61,22.57a.52.52,0,0,1,0-.2.2.2,0,0,1,0-.09,2,2,0,0,0-1-1.26,3,3,0,0,0-1.72-.56.24.24,0,0,1-.2-.13c0-.09,0-.15,0-.19a6,6,0,0,1,1.16.05H93c1,.07,1.59.09,1.87.08s.58-.16.67-.37a3,3,0,0,0,.1-1v-.41a1.42,1.42,0,0,0-.1-.78c-.08-.14-.32-.24-.72-.29s-1,0-2,0h-1a29.71,29.71,0,0,0-4.29.14c-.16.05-.21.09-.14.13a8,8,0,0,0,.92.33c1.52.54,2.33,1.24,2.42,2.11a1.22,1.22,0,0,1-.31,1,1,1,0,0,1-1.65-.26,7.22,7.22,0,0,0-2-2.57c-.19-.18-.3-.3-.31-.37s0-.1.19-.12.2-.05.22-.12-.39-.27-1.21-.29a17.55,17.55,0,0,0-2.89.22l-.1,0a1.36,1.36,0,0,1-.55,0,1,1,0,0,1-.27-.42l0-.12a1.37,1.37,0,0,1-.19-.53s.13-.06.34,0q1.45.12,7.54.12H94.2a6.15,6.15,0,0,0,1.18-.1.31.31,0,0,0,.22-.27.35.35,0,0,0,0-.12c.13-.53.07-.87-.17-1a5.31,5.31,0,0,0-2-.21,12.53,12.53,0,0,1-4.06-.49,4.55,4.55,0,0,1-2.24-1.79.61.61,0,0,0-.51-.33,1.31,1.31,0,0,0-.7.4l-.12.1-1.29,1.07-.15.14a12.06,12.06,0,0,0-1.09,1c-.17.29-.31.4-.41.32a5.23,5.23,0,0,1-.68-1.12c-.3-.59-.47-.94-.51-1.06s0-.19.15-.2a17.4,17.4,0,0,0,2-.54A3.28,3.28,0,0,0,84.93,12a4.32,4.32,0,0,0,.12-1.35A4.58,4.58,0,0,0,85,9.26c-.11-.2-.38-.31-.8-.33a4.09,4.09,0,0,0-1.43.21c-.21.06-.34.08-.4,0a1.18,1.18,0,0,1-.28-.43,2.12,2.12,0,0,1-.2-.56s.11-.06.32,0a18.4,18.4,0,0,0,2,.11A1,1,0,0,0,85,7.92c.45-.53.56-.9.34-1.11a3.68,3.68,0,0,1-.38-.49,9.93,9.93,0,0,0-1-1.1,10.38,10.38,0,0,0-1.13-1c-.31-.22-.42-.37-.35-.43s.35-.08.84,0a4.94,4.94,0,0,1,2.9,1q1,.87.3,1.74a.43.43,0,0,0-.13.51,4.14,4.14,0,0,0,.78.83,3.36,3.36,0,0,1,.75.81c.08.17,0,.29-.19.37a1,1,0,0,0-.56.51,4.25,4.25,0,0,0-.1,1.29,4.36,4.36,0,0,0,.1,1,1,1,0,0,0,.39.43,4.33,4.33,0,0,0,1.19.53,2.34,2.34,0,0,0,1,.14c.26,0,.28-.15.07-.36a.39.39,0,0,1-.11-.22c0-.08,0-.33,0-.75,0-.61,0-1.7,0-3.25s0-2.47-.07-2.86a4.25,4.25,0,0,1,0-1.28,11.63,11.63,0,0,1,1.09.43,4,4,0,0,0,2.53.49.91.91,0,0,0,.51-.68c.08-.36,0-.59-.22-.71A6,6,0,0,0,92,3.61a13.38,13.38,0,0,0-1.87.09l-.41,0L89,3.83l-.54,0-.15,0c-.09,0-.23-.08-.41-.29a.43.43,0,0,0-.29-.15.4.4,0,0,0-.32.1.93.93,0,0,1-.74.22A.69.69,0,0,1,86,3.39,8.77,8.77,0,0,0,83.87,1L83.82.94,83.46.63c0-.18.36-.22,1.09-.13q2.37.3,3,1.65a1.21,1.21,0,0,0,.85.66,11.56,11.56,0,0,0,2.43.09c.67,0,1-.19,1-.53A3,3,0,0,0,91,.75c-.23-.26-.33-.42-.31-.49s.18-.08.48-.05a3.93,3.93,0,0,1,2,.71,1.29,1.29,0,0,1,.57,1.33c-.06.29,0,.47.11.55A3.52,3.52,0,0,0,95,2.9a1.7,1.7,0,0,0,1.38-.43,5,5,0,0,0,.58-2v0c0-.22.09-.35.16-.37a1.71,1.71,0,0,1,.67.11,8.62,8.62,0,0,1,1.83.55q.38.22-.06.42a6.1,6.1,0,0,0-1.12.78c-.5.42-.75.67-.75.77s.07.16.2.19a4.92,4.92,0,0,0,.84.07,3.59,3.59,0,0,0,1.06-.09,2.83,2.83,0,0,0,.67-.67,2,2,0,0,1,.64-.62c.12,0,.34.08.67.32.95.68,1.42,1.13,1.4,1.36s-.52.35-1.53.38a5.93,5.93,0,0,0-1.52.16c-.12.07,0,.29.43.64,1.15,1,1.4,1.58.75,1.58,0,0-.09,0-.18.13a1,1,0,0,0-.19.25A9.45,9.45,0,0,0,100.89,8c0,1,0,1.91.07,2.71v.25a3.67,3.67,0,0,1,0,.83.46.46,0,0,1-.23.26,3.33,3.33,0,0,1-1.27.51c-.43.06-.64,0-.64-.23a.49.49,0,0,0-.15-.43,2.19,2.19,0,0,0-.92-.14c-.36,0-1.19,0-2.5,0-1.65,0-2.62,0-2.91.05a.79.79,0,0,0-.63.36,3.05,3.05,0,0,1-.65.39c-.49.24-.69.4-.61.46a4.39,4.39,0,0,0,1.67.17c.81,0,2.58,0,5.32,0,2.27,0,3.71,0,4.31,0,.82,0,1.33,0,1.53,0s.16.06.09.13a.65.65,0,0,1-.24.19,1.32,1.32,0,0,0-.48.49,1.59,1.59,0,0,0-.27.69.44.44,0,0,1-.08.26.33.33,0,0,1-.23.06c-.28,0-.42.08-.42.23s.16.36.46.62a7.84,7.84,0,0,1,.85.86.52.52,0,0,1,.15.42c0,.12-.16.18-.39.21s-.94,0-2.16,0h-.72a13.19,13.19,0,0,0-1.41,0c-.29,0-.47.15-.53.34a3.58,3.58,0,0,0-.1,1v.48a4.81,4.81,0,0,1-.51,2.55,3.25,3.25,0,0,1-2.09.85l-.12,0C94.8,22.64,94.64,22.63,94.61,22.57Zm3.93-11.66a.59.59,0,0,0,.24-.6.62.62,0,0,0-.36-.54,26.67,26.67,0,0,0-3.11-.08,26.84,26.84,0,0,0-3.1.08.65.65,0,0,0-.37.54.58.58,0,0,0,.25.6,24.78,24.78,0,0,0,3.22.09A25,25,0,0,0,98.54,10.91ZM98.46,7a.56.56,0,0,0,.33-.54.56.56,0,0,0-.3-.57,21.54,21.54,0,0,0-3.2-.08,22.89,22.89,0,0,0-3.2.1.58.58,0,0,0-.25.56.57.57,0,0,0,.32.53,27.13,27.13,0,0,0,3.15.08A20.78,20.78,0,0,0,98.46,7Zm.08,1.92a.62.62,0,0,0,.24-.54.6.6,0,0,0-.24-.53,18.8,18.8,0,0,0-3.23-.12,18.63,18.63,0,0,0-3.22.12.58.58,0,0,0-.25.53.6.6,0,0,0,.25.54A24.78,24.78,0,0,0,95.31,9,25,25,0,0,0,98.54,8.92ZM97,5.16A4.66,4.66,0,0,0,98.46,5a2.11,2.11,0,0,0,.67-.65c.23-.32.32-.53.24-.61a3.52,3.52,0,0,0-1.28-.17,8.89,8.89,0,0,0-1.69,0,1.35,1.35,0,0,0-.86.67c-.23.38-.24.63,0,.74A4.91,4.91,0,0,0,97,5.16Zm2.74,11.4a2.91,2.91,0,0,0,.51-.51,2.74,2.74,0,0,0,.41-.63c.06-.18,0-.3-.25-.37A6.38,6.38,0,0,0,99,15c-1.29,0-1.57.27-.85.65.25.13.27.27.08.42a.31.31,0,0,0-.15.31.32.32,0,0,0,.22.27,2.36,2.36,0,0,0,.75.05A2.16,2.16,0,0,0,99.75,16.56Z"/></g></g></svg>